M48
; DRILL file {KiCad 6.0.2+dfsg-1} date Wed 23 Nov 2022 08:40:01 PM PST
; FORMAT={-:-/ absolute / metric / decimal}
; #@! TF.CreationDate,2022-11-23T20:40:01-08:00
; #@! TF.GenerationSoftware,Kicad,Pcbnew,6.0.2+dfsg-1
; #@! TF.FileFunction,Plated,1,4,PTH
FMAT,2
METRIC
; #@! TA.AperFunction,Plated,PTH,ViaDrill
T1C0.200
; #@! TA.AperFunction,Plated,PTH,ComponentDrill
T2C0.200
; #@! TA.AperFunction,Plated,PTH,ComponentDrill
T3C0.350
; #@! TA.AperFunction,Plated,PTH,ViaDrill
T4C0.400
; #@! TA.AperFunction,Plated,PTH,ViaDrill
T5C0.500
; #@! TA.AperFunction,Plated,PTH,ComponentDrill
T6C0.600
; #@! TA.AperFunction,Plated,PTH,ComponentDrill
T7C0.900
; #@! TA.AperFunction,Plated,PTH,ComponentDrill
T8C1.190
; #@! TA.AperFunction,Plated,PTH,ComponentDrill
T9C3.500
; #@! TA.AperFunction,Plated,PTH,ComponentDrill
T10C3.900
; #@! TA.AperFunction,Plated,PTH,ComponentDrill
T11C4.000
%
G90
G05
T1
X63.7Y-92.1
X64.7Y-92.1
X65.8Y-92.1
X70.0Y-100.5
X70.6Y-105.8
X71.0Y-113.05
X71.5Y-104.5
X73.106Y-116.434
X73.9Y-122.9
X75.387Y-125.55
X76.237Y-125.55
X77.25Y-116.75
X77.3Y-74.0
X77.7Y-126.25
X78.5Y-127.25
X78.75Y-123.75
X78.9Y-117.25
X79.7Y-116.2
X79.7Y-128.001
X79.7Y-129.0
X81.25Y-128.5
X81.472Y-115.172
X81.602Y-123.803
X81.7Y-71.6
X81.75Y-129.0
X81.881Y-121.574
X82.122Y-114.522
X82.316Y-116.916
X82.451Y-117.799
X82.499Y-103.945
X82.567Y-123.479
X82.685Y-106.035
X82.77Y-113.874
X82.916Y-116.316
X83.0Y-105.3
X83.108Y-106.713
X83.2Y-113.2
X83.435Y-124.665
X83.607Y-107.499
X84.0Y-124.1
X84.75Y-128.0
X85.2Y-90.6
X85.206Y-121.034
X85.7Y-105.65
X86.085Y-104.893
X86.179Y-113.445
X86.5Y-102.1
X86.6Y-100.8
X86.7Y-100.0
X86.8Y-90.7
X86.8Y-105.25
X86.879Y-113.927
X86.9Y-113.1
X86.906Y-124.808
X86.95Y-99.15
X87.075Y-128.1
X87.6Y-85.4
X87.7Y-84.3
X87.925Y-128.1
X88.0Y-101.6
X88.1Y-88.3
X88.105Y-113.6
X88.105Y-116.0
X88.7Y-93.0
X88.75Y-91.75
X89.0Y-114.75
X89.047Y-102.71
X89.406Y-121.174
X89.6Y-97.35
X89.65Y-110.5
X89.758Y-115.003
X90.019Y-126.439
X90.156Y-115.924
X90.25Y-99.825
X90.26Y-111.1
X90.437Y-127.12
X90.65Y-107.35
X90.79Y-103.15
X90.9Y-125.624
X90.9Y-126.424
X91.5Y-130.049
X91.65Y-110.6
X92.25Y-131.5
X92.899Y-122.201
X93.501Y-121.599
X94.0Y-114.0
X94.3Y-97.45
X94.5Y-127.75
X94.55Y-108.75
X94.6Y-112.4
X94.95Y-110.0
X95.0Y-96.3
X95.25Y-100.05
X95.3Y-91.0
X95.45Y-101.5
X95.6Y-97.45
X95.7Y-95.0
X95.7Y-110.6
X95.791Y-112.158
X95.92Y-111.369
X95.95Y-100.5
X96.0Y-83.4
X96.0Y-108.25
X96.0Y-123.75
X96.15Y-98.05
X96.2Y-101.95
X96.25Y-116.4
X96.75Y-90.0
X96.75Y-120.5
X96.85Y-102.6
X96.9Y-91.85
X96.9Y-103.5
X97.0Y-107.7
X97.2Y-84.7
X97.2Y-93.4
X97.4Y-94.4
X97.6Y-92.5
X97.7Y-105.25
X97.7Y-107.05
X98.2Y-104.6
X98.4Y-105.8
X98.6Y-98.5
X99.2Y-106.4
X99.25Y-115.0
X99.3Y-111.8
X99.826Y-121.924
X99.9Y-85.3
X100.224Y-99.824
X100.65Y-103.8
X100.95Y-83.1
X101.1Y-91.1
X101.5Y-123.25
X101.6Y-95.6
X101.75Y-121.5
X102.25Y-112.5
X102.5Y-88.3
X102.5Y-91.2
X102.75Y-116.0
X103.0Y-120.25
X103.25Y-112.5
X103.5Y-116.0
X104.9Y-86.5
X106.0Y-71.1
X107.0Y-75.3
X108.41Y-106.807
X108.693Y-114.307
X109.5Y-104.2
X110.5Y-112.2
X112.1Y-99.1
X112.3Y-86.75
X112.484Y-100.816
X112.6Y-84.5
X113.4Y-89.7
X114.0Y-91.0
X119.8Y-125.1
X130.6Y-124.1
X131.4Y-127.5
X132.5Y-130.9
X135.441Y-115.63
X135.441Y-116.38
X135.441Y-117.13
X135.441Y-117.88
X135.441Y-118.63
X135.5Y-134.1
X135.55Y-78.17
X135.55Y-78.92
X135.55Y-79.67
X135.55Y-80.42
X135.55Y-81.17
X135.55Y-106.75
X135.55Y-107.5
X135.55Y-108.25
X135.55Y-109.0
X135.55Y-109.75
X135.6Y-133.0
X135.691Y-86.6
X135.691Y-87.35
X135.691Y-88.1
X135.691Y-88.85
X135.691Y-89.6
X135.8Y-69.82
X135.8Y-70.57
X135.8Y-71.32
X135.8Y-72.07
X135.8Y-72.82
X135.8Y-97.45
X135.8Y-98.2
X135.8Y-98.95
X135.8Y-99.7
X135.8Y-100.45
X136.191Y-115.63
X136.191Y-116.38
X136.191Y-117.13
X136.191Y-117.88
X136.191Y-118.63
X136.3Y-78.17
X136.3Y-78.92
X136.3Y-79.67
X136.3Y-80.42
X136.3Y-81.17
X136.3Y-106.75
X136.3Y-107.5
X136.3Y-108.25
X136.3Y-109.0
X136.3Y-109.75
X136.441Y-86.6
X136.441Y-87.35
X136.441Y-88.1
X136.441Y-88.85
X136.441Y-89.6
X136.55Y-69.82
X136.55Y-70.57
X136.55Y-71.32
X136.55Y-72.07
X136.55Y-72.82
X136.55Y-97.45
X136.55Y-98.2
X136.55Y-98.95
X136.55Y-99.7
X136.55Y-100.45
X136.941Y-115.63
X136.941Y-116.38
X136.941Y-117.13
X136.941Y-117.88
X136.941Y-118.63
X137.05Y-78.17
X137.05Y-78.92
X137.05Y-81.17
X137.05Y-106.75
X137.05Y-107.5
X137.05Y-109.75
X137.062Y-79.67
X137.062Y-80.42
X137.062Y-108.25
X137.062Y-109.0
X137.191Y-86.6
X137.191Y-87.35
X137.191Y-88.1
X137.191Y-88.85
X137.191Y-89.6
X137.2Y-134.2
X137.282Y-70.57
X137.282Y-71.32
X137.282Y-98.2
X137.282Y-98.95
X137.3Y-69.82
X137.3Y-72.07
X137.3Y-72.82
X137.3Y-97.45
X137.3Y-99.7
X137.3Y-100.45
X137.6Y-125.8
X137.691Y-115.63
X137.691Y-116.38
X137.691Y-117.13
X137.691Y-117.88
X137.691Y-118.63
X137.8Y-78.17
X137.8Y-78.92
X137.8Y-79.67
X137.8Y-80.42
X137.8Y-81.17
X137.8Y-106.75
X137.8Y-107.5
X137.8Y-108.25
X137.8Y-109.0
X137.8Y-109.75
X137.941Y-86.6
X137.941Y-87.35
X137.941Y-88.1
X137.941Y-88.85
X137.941Y-89.6
X138.05Y-69.82
X138.05Y-70.57
X138.05Y-71.32
X138.05Y-72.07
X138.05Y-72.82
X138.05Y-97.45
X138.05Y-98.2
X138.05Y-98.95
X138.05Y-99.7
X138.05Y-100.45
X138.3Y-134.7
X140.0Y-120.0
X140.0Y-120.75
X140.0Y-121.5
X140.05Y-74.75
X140.05Y-75.5
X140.05Y-76.25
X140.5Y-83.0
X140.5Y-83.75
X140.5Y-84.5
X140.5Y-91.5
X140.5Y-92.25
X140.5Y-93.0
X140.5Y-102.75
X140.5Y-103.5
X140.5Y-104.25
X140.5Y-111.25
X140.5Y-112.0
X140.5Y-112.75
X140.75Y-120.0
X140.75Y-120.75
X140.75Y-121.5
X140.8Y-74.75
X140.8Y-75.5
X140.8Y-76.25
X140.831Y-70.481
X140.831Y-71.231
X140.831Y-71.981
X140.831Y-72.731
X141.1Y-97.2
X141.231Y-115.661
X141.231Y-116.411
X141.231Y-117.161
X141.231Y-117.911
X141.231Y-118.661
X141.24Y-87.74
X141.24Y-88.49
X141.24Y-89.24
X141.24Y-89.99
X141.25Y-83.0
X141.25Y-83.75
X141.25Y-84.5
X141.25Y-91.5
X141.25Y-92.25
X141.25Y-93.0
X141.25Y-102.75
X141.25Y-103.5
X141.25Y-104.25
X141.25Y-111.25
X141.25Y-112.0
X141.25Y-112.75
X141.281Y-79.131
X141.281Y-79.881
X141.281Y-80.631
X141.281Y-81.381
X141.281Y-98.411
X141.281Y-99.161
X141.281Y-99.911
X141.281Y-100.661
X141.281Y-106.761
X141.281Y-107.511
X141.281Y-108.261
X141.281Y-109.011
X141.281Y-109.761
X141.5Y-120.0
X141.5Y-120.75
X141.5Y-121.5
X141.55Y-74.75
X141.55Y-75.5
X141.55Y-76.25
X141.581Y-70.231
X141.581Y-70.981
X141.581Y-71.731
X141.581Y-72.481
X141.581Y-73.231
X141.981Y-115.661
X141.981Y-116.411
X141.981Y-117.161
X141.981Y-117.911
X141.981Y-118.661
X141.99Y-86.99
X141.99Y-87.74
X141.99Y-88.49
X141.99Y-89.24
X141.99Y-89.99
X142.0Y-83.0
X142.0Y-83.75
X142.0Y-84.5
X142.0Y-91.5
X142.0Y-92.25
X142.0Y-93.0
X142.0Y-102.75
X142.0Y-103.5
X142.0Y-104.25
X142.0Y-111.25
X142.0Y-112.0
X142.0Y-112.75
X142.031Y-78.381
X142.031Y-79.131
X142.031Y-79.881
X142.031Y-80.631
X142.031Y-81.381
X142.031Y-97.661
X142.031Y-98.411
X142.031Y-99.161
X142.031Y-99.911
X142.031Y-100.661
X142.031Y-106.761
X142.031Y-107.511
X142.031Y-108.261
X142.031Y-109.011
X142.031Y-109.761
X142.25Y-120.75
X142.25Y-121.5
X142.3Y-75.5
X142.3Y-76.25
X142.6Y-70.119
X142.6Y-70.869
X142.6Y-71.619
X142.6Y-72.369
X142.75Y-83.75
X142.75Y-84.5
X142.75Y-87.75
X142.75Y-88.5
X142.75Y-89.25
X142.75Y-90.0
X142.75Y-92.25
X142.75Y-93.0
X142.75Y-103.5
X142.75Y-104.25
X142.75Y-112.0
X142.75Y-112.75
X142.98Y-98.069
X142.98Y-98.819
X142.98Y-99.569
X142.98Y-100.319
X143.0Y-78.45
X143.0Y-120.75
X143.0Y-121.5
X143.03Y-79.289
X143.03Y-80.039
X143.03Y-80.789
X143.03Y-81.539
X143.03Y-106.419
X143.03Y-107.169
X143.03Y-107.919
X143.03Y-108.669
X143.05Y-75.5
X143.05Y-76.25
X143.35Y-70.119
X143.35Y-70.869
X143.35Y-71.619
X143.35Y-72.369
X143.38Y-115.319
X143.38Y-116.069
X143.38Y-116.819
X143.38Y-117.569
X143.5Y-83.75
X143.5Y-84.5
X143.5Y-87.75
X143.5Y-88.5
X143.5Y-89.25
X143.5Y-90.0
X143.5Y-92.25
X143.5Y-93.0
X143.5Y-103.5
X143.5Y-104.25
X143.5Y-112.0
X143.5Y-112.75
X143.73Y-98.069
X143.73Y-98.819
X143.73Y-99.569
X143.73Y-100.319
X143.75Y-78.45
X143.75Y-120.75
X143.75Y-121.5
X143.78Y-79.289
X143.78Y-80.039
X143.78Y-80.789
X143.78Y-81.539
X143.78Y-106.419
X143.78Y-107.169
X143.78Y-107.919
X143.78Y-108.669
X143.8Y-75.5
X143.8Y-76.25
X144.1Y-70.119
X144.1Y-70.869
X144.1Y-71.619
X144.1Y-72.369
X144.13Y-115.319
X144.13Y-116.069
X144.13Y-116.819
X144.13Y-117.569
X144.25Y-83.75
X144.25Y-84.5
X144.25Y-87.75
X144.25Y-88.5
X144.25Y-89.25
X144.25Y-90.0
X144.25Y-92.25
X144.25Y-93.0
X144.25Y-103.5
X144.25Y-104.25
X144.25Y-112.0
X144.25Y-112.75
X144.48Y-98.069
X144.48Y-98.819
X144.48Y-99.569
X144.48Y-100.319
X144.5Y-78.45
X144.5Y-120.75
X144.5Y-121.5
X144.53Y-79.289
X144.53Y-80.039
X144.53Y-80.789
X144.53Y-81.539
X144.53Y-106.419
X144.53Y-107.169
X144.53Y-107.919
X144.53Y-108.669
X144.55Y-75.5
X144.55Y-76.25
X144.85Y-70.119
X144.85Y-70.869
X144.85Y-71.619
X144.85Y-72.369
X144.88Y-115.319
X144.88Y-116.069
X144.88Y-116.819
X144.88Y-117.569
X145.0Y-83.75
X145.0Y-84.5
X145.0Y-87.75
X145.0Y-88.5
X145.0Y-89.25
X145.0Y-90.0
X145.0Y-92.25
X145.0Y-93.0
X145.0Y-103.5
X145.0Y-104.25
X145.0Y-112.0
X145.0Y-112.75
X145.23Y-98.069
X145.23Y-98.819
X145.23Y-99.569
X145.23Y-100.319
X145.25Y-78.45
X145.25Y-121.5
X145.28Y-79.289
X145.28Y-80.039
X145.28Y-80.789
X145.28Y-81.539
X145.28Y-106.419
X145.28Y-107.169
X145.28Y-107.919
X145.28Y-108.669
X145.3Y-76.25
X145.6Y-70.119
X145.6Y-70.869
X145.6Y-71.619
X145.6Y-72.369
X145.63Y-115.319
X145.63Y-116.069
X145.63Y-116.819
X145.63Y-117.569
X145.7Y-93.0
X145.75Y-84.5
X145.75Y-87.75
X145.75Y-88.5
X145.75Y-89.25
X145.75Y-90.0
X145.75Y-104.25
X145.75Y-112.75
X145.98Y-98.069
X145.98Y-98.819
X145.98Y-99.569
X145.98Y-100.319
X146.0Y-78.45
X146.0Y-121.5
X146.03Y-79.289
X146.03Y-80.039
X146.03Y-80.789
X146.03Y-81.539
X146.03Y-106.419
X146.03Y-107.169
X146.03Y-107.919
X146.03Y-108.669
X146.25Y-129.1
X146.38Y-115.319
X146.38Y-116.069
X146.38Y-116.819
X146.38Y-117.569
X146.4Y-131.0
X146.5Y-104.25
X146.5Y-112.75
X146.74Y-85.99
X146.74Y-86.74
X146.74Y-87.49
X146.74Y-88.24
X146.74Y-88.99
X146.74Y-89.74
X146.75Y-97.75
X146.75Y-98.5
X146.75Y-99.25
X146.75Y-100.0
X146.75Y-100.75
X146.75Y-121.5
X146.8Y-136.6
X147.25Y-104.25
X147.25Y-112.75
X147.449Y-107.25
X147.449Y-108.0
X147.449Y-108.75
X147.449Y-109.5
X147.49Y-87.14
X147.49Y-87.89
X147.49Y-88.64
X147.49Y-89.39
X147.5Y-77.5
X147.5Y-78.55
X147.5Y-79.3
X147.5Y-80.05
X147.5Y-80.8
X147.5Y-81.55
X147.5Y-85.75
X147.5Y-97.75
X147.5Y-98.5
X147.5Y-99.25
X147.5Y-100.0
X147.5Y-100.75
X147.5Y-105.5
X148.199Y-108.0
X148.199Y-108.75
X148.199Y-109.5
X148.24Y-87.89
X148.24Y-88.64
X148.24Y-89.39
X148.25Y-80.05
X148.25Y-80.8
X148.25Y-81.55
X148.25Y-99.25
X148.25Y-100.0
X148.25Y-100.75
X148.25Y-105.5
X148.4Y-129.6
X148.5Y-135.5
X148.75Y-85.75
X148.75Y-97.25
X148.949Y-107.25
X148.949Y-108.0
X148.949Y-108.75
X148.949Y-109.5
X148.99Y-87.89
X148.99Y-88.64
X148.99Y-89.39
X149.0Y-77.5
X149.0Y-80.05
X149.0Y-80.8
X149.0Y-81.55
X149.0Y-99.25
X149.0Y-100.0
X149.0Y-100.75
X149.0Y-105.5
X149.0Y-106.25
X149.75Y-80.05
X149.75Y-80.8
X149.75Y-81.55
X150.0Y-129.25
X150.3Y-135.6
X150.75Y-87.95
X150.75Y-88.7
X150.75Y-89.45
X150.75Y-97.0
X150.75Y-99.75
X150.75Y-100.5
X150.75Y-101.25
X151.0Y-77.25
X151.0Y-80.0
X151.0Y-80.75
X151.0Y-81.5
X151.0Y-105.75
X151.0Y-108.25
X151.0Y-109.0
X151.0Y-109.75
X151.5Y-87.95
X151.5Y-88.7
X151.5Y-89.45
X151.5Y-97.0
X151.5Y-99.75
X151.5Y-100.5
X151.5Y-101.25
X151.75Y-77.25
X151.75Y-80.0
X151.75Y-80.75
X151.75Y-81.5
X151.75Y-105.75
X151.75Y-108.25
X151.75Y-109.0
X151.75Y-109.75
X152.2Y-135.9
X152.25Y-87.95
X152.25Y-88.7
X152.25Y-89.45
X152.25Y-99.75
X152.25Y-100.5
X152.25Y-101.25
X152.5Y-77.25
X152.5Y-80.0
X152.5Y-80.75
X152.5Y-81.5
X152.5Y-86.0
X152.5Y-86.75
X152.5Y-105.75
X152.5Y-108.25
X152.5Y-109.0
X152.5Y-109.75
X153.0Y-106.5
X153.25Y-77.25
X153.25Y-86.25
X153.25Y-105.75
X154.0Y-105.75
X154.1Y-131.3
X154.65Y-124.7
X155.9Y-129.5
X158.95Y-129.1
T2
X90.115Y-103.975
X90.115Y-105.25
X90.115Y-106.525
X91.39Y-103.975
X91.39Y-105.25
X91.39Y-106.525
X92.665Y-103.975
X92.665Y-105.25
X92.665Y-106.525
T3
X86.031Y-119.159
X86.031Y-120.434
X86.031Y-121.709
X87.306Y-119.159
X87.306Y-120.434
X87.306Y-121.709
X88.581Y-119.159
X88.581Y-120.434
X88.581Y-121.709
T4
X66.2Y-77.3
X66.2Y-78.5
X70.0Y-77.1
X79.6Y-101.2
X84.45Y-109.45
X84.45Y-111.2
X84.9Y-70.5
X86.0Y-79.75
X87.6Y-112.2
X87.7Y-78.45
X87.7Y-79.45
X88.7Y-86.6
X88.9Y-71.4
X89.9Y-78.45
X89.9Y-79.45
X91.95Y-113.5
X93.25Y-77.95
X93.3Y-79.0
X93.3Y-80.15
X94.55Y-75.0
X95.0Y-75.85
X95.5Y-74.95
X95.7Y-77.55
X95.8Y-76.5
X97.6Y-83.1
X99.7Y-108.5
X100.8Y-74.0
X100.8Y-75.0
X101.8Y-74.0
X101.8Y-75.0
X102.75Y-74.0
X102.75Y-75.0
X103.899Y-99.1
X106.799Y-101.7
X106.8Y-115.5
X106.9Y-82.5
X106.9Y-95.2
X107.1Y-85.5
X107.6Y-107.6
X107.65Y-70.15
X107.9Y-98.8
X108.1Y-90.47
X108.4Y-79.7
X108.7Y-118.4
X108.733Y-93.042
X109.2Y-70.6
X109.5Y-111.4
X110.0Y-120.5
X110.101Y-94.144
X110.2Y-72.5
X110.3Y-70.0
X110.41Y-102.741
X110.8Y-93.394
X112.0Y-82.65
X112.0Y-87.6
X112.2Y-90.9
X112.422Y-96.95
X112.5Y-78.1
X112.55Y-71.25
X112.573Y-117.546
X113.0Y-102.7
X113.4Y-88.0
X113.83Y-96.33
X114.9Y-96.2
X115.6Y-82.4
X115.9Y-71.2
X116.1Y-110.6
X116.4Y-105.05
X116.5Y-96.399
X116.6Y-88.6
X116.81Y-99.9
X117.1Y-116.5
X118.0Y-85.0
X118.1Y-108.2
X119.5Y-97.6
X119.5Y-100.5
X119.55Y-101.45
X119.6Y-88.42
X119.6Y-92.0
X119.6Y-106.85
X119.6Y-115.7
X119.65Y-83.72
X119.65Y-84.72
X119.65Y-87.42
X119.65Y-103.15
X119.65Y-104.15
X119.65Y-105.85
X119.65Y-111.6
X119.65Y-112.6
X119.65Y-114.7
X119.65Y-119.05
X120.5Y-97.6
X120.5Y-100.5
X120.55Y-101.45
X120.6Y-88.42
X120.6Y-92.0
X120.6Y-106.85
X120.6Y-115.7
X120.65Y-83.72
X120.65Y-84.72
X120.65Y-87.42
X120.65Y-103.15
X120.65Y-104.15
X120.65Y-105.85
X120.65Y-111.6
X120.65Y-112.6
X120.65Y-114.7
X120.65Y-119.05
X122.0Y-97.6
X122.0Y-100.5
X122.05Y-101.45
X122.1Y-88.42
X122.1Y-92.0
X122.1Y-106.85
X122.1Y-115.7
X122.15Y-83.72
X122.15Y-84.72
X122.15Y-87.42
X122.15Y-103.15
X122.15Y-104.15
X122.15Y-105.85
X122.15Y-111.6
X122.15Y-112.6
X122.15Y-114.7
X122.15Y-119.05
X123.0Y-97.6
X123.0Y-100.5
X123.05Y-101.45
X123.1Y-88.42
X123.1Y-92.0
X123.1Y-106.85
X123.1Y-115.7
X123.15Y-83.72
X123.15Y-84.72
X123.15Y-87.42
X123.15Y-103.15
X123.15Y-104.15
X123.15Y-105.85
X123.15Y-111.6
X123.15Y-112.6
X123.15Y-114.7
X123.15Y-119.05
X139.0Y-105.5
X140.5Y-114.5
X140.7Y-68.8
X141.1Y-77.5
X141.2Y-85.9
X146.7Y-74.2
X146.9Y-102.6
X147.0Y-91.9
X147.1Y-111.2
X147.2Y-82.9
X147.9Y-120.9
X152.4Y-93.3
X152.4Y-94.9
X152.55Y-96.3
X152.778Y-103.069
X152.8Y-92.249
X152.9Y-82.8
X152.95Y-112.25
X155.8Y-95.1
X156.4Y-113.5
X157.1Y-75.1
X157.9Y-85.1
X158.0Y-93.6
X158.1Y-112.5
X158.1Y-116.4
X158.4Y-83.6
X158.452Y-104.63
X159.0Y-102.4
X159.0Y-111.2
X159.2Y-86.9
X159.2Y-103.7
X159.4Y-95.9
X159.9Y-113.3
X160.0Y-78.0
X160.1Y-76.7
X160.1Y-82.1
X160.1Y-109.5
T5
X82.4Y-76.2
X83.4Y-75.6
T7
X117.742Y-137.672
X119.012Y-135.132
X120.282Y-137.672
X121.552Y-135.132
X122.822Y-137.672
X124.092Y-135.132
X125.362Y-137.672
X126.632Y-135.132
T8
X66.6Y-94.44
X66.6Y-96.98
X66.6Y-99.52
X66.6Y-102.06
X66.6Y-104.6
X66.6Y-108.22
X66.6Y-110.76
X66.6Y-113.3
X66.6Y-116.86
X66.6Y-119.4
X66.6Y-121.94
X66.6Y-125.52
X66.6Y-128.06
X66.6Y-130.6
X73.8Y-69.89
X73.8Y-72.43
X73.8Y-74.97
X73.8Y-77.51
X73.8Y-80.05
X73.8Y-83.64
X73.8Y-86.18
X73.8Y-88.72
X73.8Y-91.26
X73.8Y-93.8
X73.8Y-97.37
X73.8Y-99.91
X73.8Y-102.45
X77.05Y-106.09
X77.05Y-108.63
X77.05Y-111.17
X77.05Y-113.71
X80.932Y-78.536
X80.932Y-81.076
X80.932Y-83.616
X80.932Y-86.156
X80.932Y-88.696
X80.932Y-91.236
X97.987Y-125.55
X98.332Y-135.252
X100.527Y-125.55
X100.872Y-135.252
X103.412Y-135.252
X104.352Y-125.55
X105.952Y-135.252
X106.892Y-125.55
X108.492Y-135.252
X109.432Y-125.55
X111.032Y-135.252
X111.972Y-125.55
T9
X149.55Y-71.35
X150.35Y-117.3
X155.45Y-98.85
X155.5Y-88.6
X155.75Y-79.7
X155.75Y-108.55
T10
X66.3Y-71.55
X66.3Y-135.7
X157.95Y-71.55
X157.95Y-135.7
T11
X120.35Y-73.0
X128.1Y-73.0
T6
X71.43Y-133.095G85X71.43Y-134.195
G05
X71.43Y-137.525G85X71.43Y-138.125
G05
X80.07Y-133.095G85X80.07Y-134.195
G05
X80.07Y-137.525G85X80.07Y-138.125
G05
X83.93Y-133.095G85X83.93Y-134.195
G05
X83.93Y-137.525G85X83.93Y-138.125
G05
X92.57Y-133.095G85X92.57Y-134.195
G05
X92.57Y-137.525G85X92.57Y-138.125
G05
T0
M30
