  0
SECTION
  2
HEADER
  9
$ANGBASE
  50
0.0
  9
$ANGDIR
  70
1
  9
$MEASUREMENT
  70
1
  0
ENDSEC
  0
SECTION
  2
TABLES
  0
TABLE
  2
LTYPE
  70
4
  0
LTYPE
  5
40F
  2
CONTINUOUS
  70
0
  3
Solid line
  72
65
  73
0
  40
0.0
  0
LTYPE
  5
410
  2
DASHDOT
 70
0
  3
Dash Dot ____ _ ____ _
 72
65
 73
4
 40
2.0
 49
1.25
 49
-0.25
 49
0.25
 49
-0.25
  0
LTYPE
  5
411
  2
DASHED
 70
0
  3
Dashed __ __ __ __ __
 72
65
 73
2
 40
0.75
 49
0.5
 49
-0.25
  0
LTYPE
  5
43B
  2
DOTTED
 70
0
  3
Dotted .  .  .  .
 72
65
 73
2
 40
0.2
 49
0.0
 49
-0.2
  0
ENDTAB
  0
TABLE
  2
STYLE
  70
4
  0
STYLE
  2
KICAD
  70
0
  40
0
  41
1
  42
1
  50
0
  71
0
  3
isocp.shx
  0
STYLE
  2
KICADB
  70
0
  40
0
  41
1
  42
1
  50
0
  71
0
  3
isocp.shx
  0
STYLE
  2
KICADI
  70
0
  40
0
  41
1
  42
1
  50
15
  71
0
  3
isocp.shx
  0
STYLE
  2
KICADBI
  70
0
  40
0
  41
1
  42
1
  50
15
  71
0
  3
isocp.shx
  0
ENDTAB
  0
TABLE
  2
LAYER
  70
1
  0
LAYER
  2
BLACK
  70
0
  62
7
  6
CONTINUOUS
  0
ENDTAB
  0
ENDSEC
  0
SECTION
  2
ENTITIES
0
ARC
8
BLACK
10
63.9
20
-40.65
40
1.75
50
90
51
180
0
ARC
8
BLACK
10
171
20
-40.65
40
1.75
50
-0
51
90
0
LINE
8
BLACK
6
CONTINUOUS
10
62.15
20
-112.9
11
62.15
21
-40.65
0
LINE
8
BLACK
6
CONTINUOUS
10
171
20
-114.65
11
63.9
21
-114.65
0
ARC
8
BLACK
10
171
20
-112.9
40
1.75
50
-90
51
-0
0
LINE
8
BLACK
6
CONTINUOUS
10
171
20
-38.9
11
63.9
21
-38.9
0
ARC
8
BLACK
10
63.9
20
-112.9
40
1.75
50
-180
51
-90
0
LINE
8
BLACK
6
CONTINUOUS
10
172.75
20
-40.65
11
172.75
21
-112.9
0
LINE
8
BLACK
6
CONTINUOUS
10
71.935
20
-108.97
11
72.585
21
-109.62
0
LINE
8
BLACK
6
CONTINUOUS
10
72.585
20
-108.97
11
71.935
21
-109.62
0
LINE
8
BLACK
6
CONTINUOUS
10
77.715
20
-108.97
11
78.365
21
-109.62
0
LINE
8
BLACK
6
CONTINUOUS
10
78.365
20
-108.97
11
77.715
21
-109.62
0
LINE
8
BLACK
6
CONTINUOUS
10
84.435
20
-108.97
11
85.085
21
-109.62
0
LINE
8
BLACK
6
CONTINUOUS
10
85.085
20
-108.97
11
84.435
21
-109.62
0
LINE
8
BLACK
6
CONTINUOUS
10
90.215
20
-108.97
11
90.865
21
-109.62
0
LINE
8
BLACK
6
CONTINUOUS
10
90.865
20
-108.97
11
90.215
21
-109.62
0
CIRCLE
8
BLACK
10
125.88
20
-108.59
40
1.625
0
CIRCLE
8
BLACK
10
138.58
20
-108.59
40
1.625
0
CIRCLE
8
BLACK
10
145.48
20
-108.59
40
1.625
0
CIRCLE
8
BLACK
10
158.18
20
-108.59
40
1.625
0
LINE
8
BLACK
6
CONTINUOUS
10
64.6012
20
-117.8
11
64.6012
21
-115.8
0
LINE
8
BLACK
6
CONTINUOUS
10
64.6012
20
-115.8
11
65.0774
21
-115.8
0
LINE
8
BLACK
6
CONTINUOUS
10
65.0774
20
-115.8
11
65.3631
21
-115.895
0
LINE
8
BLACK
6
CONTINUOUS
10
65.3631
20
-115.895
11
65.5536
21
-116.086
0
LINE
8
BLACK
6
CONTINUOUS
10
65.5536
20
-116.086
11
65.6488
21
-116.276
0
LINE
8
BLACK
6
CONTINUOUS
10
65.6488
20
-116.276
11
65.744
21
-116.657
0
LINE
8
BLACK
6
CONTINUOUS
10
65.744
20
-116.657
11
65.744
21
-116.943
0
LINE
8
BLACK
6
CONTINUOUS
10
65.744
20
-116.943
11
65.6488
21
-117.324
0
LINE
8
BLACK
6
CONTINUOUS
10
65.6488
20
-117.324
11
65.5536
21
-117.515
0
LINE
8
BLACK
6
CONTINUOUS
10
65.5536
20
-117.515
11
65.3631
21
-117.705
0
LINE
8
BLACK
6
CONTINUOUS
10
65.3631
20
-117.705
11
65.0774
21
-117.8
0
LINE
8
BLACK
6
CONTINUOUS
10
65.0774
20
-117.8
11
64.6012
21
-117.8
0
LINE
8
BLACK
6
CONTINUOUS
10
66.6012
20
-117.8
11
66.6012
21
-116.467
0
LINE
8
BLACK
6
CONTINUOUS
10
66.6012
20
-116.848
11
66.6964
21
-116.657
0
LINE
8
BLACK
6
CONTINUOUS
10
66.6964
20
-116.657
11
66.7917
21
-116.562
0
LINE
8
BLACK
6
CONTINUOUS
10
66.7917
20
-116.562
11
66.9821
21
-116.467
0
LINE
8
BLACK
6
CONTINUOUS
10
66.9821
20
-116.467
11
67.1726
21
-116.467
0
LINE
8
BLACK
6
CONTINUOUS
10
67.8393
20
-117.8
11
67.8393
21
-116.467
0
LINE
8
BLACK
6
CONTINUOUS
10
67.8393
20
-115.8
11
67.744
21
-115.895
0
LINE
8
BLACK
6
CONTINUOUS
10
67.744
20
-115.895
11
67.8393
21
-115.991
0
LINE
8
BLACK
6
CONTINUOUS
10
67.8393
20
-115.991
11
67.9345
21
-115.895
0
LINE
8
BLACK
6
CONTINUOUS
10
67.9345
20
-115.895
11
67.8393
21
-115.8
0
LINE
8
BLACK
6
CONTINUOUS
10
67.8393
20
-115.8
11
67.8393
21
-115.991
0
LINE
8
BLACK
6
CONTINUOUS
10
69.0774
20
-117.8
11
68.8869
21
-117.705
0
LINE
8
BLACK
6
CONTINUOUS
10
68.8869
20
-117.705
11
68.7917
21
-117.515
0
LINE
8
BLACK
6
CONTINUOUS
10
68.7917
20
-117.515
11
68.7917
21
-115.8
0
LINE
8
BLACK
6
CONTINUOUS
10
70.125
20
-117.8
11
69.9345
21
-117.705
0
LINE
8
BLACK
6
CONTINUOUS
10
69.9345
20
-117.705
11
69.8393
21
-117.515
0
LINE
8
BLACK
6
CONTINUOUS
10
69.8393
20
-117.515
11
69.8393
21
-115.8
0
LINE
8
BLACK
6
CONTINUOUS
10
72.4107
20
-117.8
11
72.4107
21
-115.8
0
LINE
8
BLACK
6
CONTINUOUS
10
72.4107
20
-115.8
11
73.0774
21
-117.229
0
LINE
8
BLACK
6
CONTINUOUS
10
73.0774
20
-117.229
11
73.744
21
-115.8
0
LINE
8
BLACK
6
CONTINUOUS
10
73.744
20
-115.8
11
73.744
21
-117.8
0
LINE
8
BLACK
6
CONTINUOUS
10
75.5536
20
-117.8
11
75.5536
21
-116.753
0
LINE
8
BLACK
6
CONTINUOUS
10
75.5536
20
-116.753
11
75.4583
21
-116.562
0
LINE
8
BLACK
6
CONTINUOUS
10
75.4583
20
-116.562
11
75.2679
21
-116.467
0
LINE
8
BLACK
6
CONTINUOUS
10
75.2679
20
-116.467
11
74.8869
21
-116.467
0
LINE
8
BLACK
6
CONTINUOUS
10
74.8869
20
-116.467
11
74.6964
21
-116.562
0
LINE
8
BLACK
6
CONTINUOUS
10
75.5536
20
-117.705
11
75.3631
21
-117.8
0
LINE
8
BLACK
6
CONTINUOUS
10
75.3631
20
-117.8
11
74.8869
21
-117.8
0
LINE
8
BLACK
6
CONTINUOUS
10
74.8869
20
-117.8
11
74.6964
21
-117.705
0
LINE
8
BLACK
6
CONTINUOUS
10
74.6964
20
-117.705
11
74.6012
21
-117.515
0
LINE
8
BLACK
6
CONTINUOUS
10
74.6012
20
-117.515
11
74.6012
21
-117.324
0
LINE
8
BLACK
6
CONTINUOUS
10
74.6012
20
-117.324
11
74.6964
21
-117.134
0
LINE
8
BLACK
6
CONTINUOUS
10
74.6964
20
-117.134
11
74.8869
21
-117.038
0
LINE
8
BLACK
6
CONTINUOUS
10
74.8869
20
-117.038
11
75.3631
21
-117.038
0
LINE
8
BLACK
6
CONTINUOUS
10
75.3631
20
-117.038
11
75.5536
21
-116.943
0
LINE
8
BLACK
6
CONTINUOUS
10
76.506
20
-116.467
11
76.506
21
-118.467
0
LINE
8
BLACK
6
CONTINUOUS
10
76.506
20
-116.562
11
76.6964
21
-116.467
0
LINE
8
BLACK
6
CONTINUOUS
10
76.6964
20
-116.467
11
77.0774
21
-116.467
0
LINE
8
BLACK
6
CONTINUOUS
10
77.0774
20
-116.467
11
77.2679
21
-116.562
0
LINE
8
BLACK
6
CONTINUOUS
10
77.2679
20
-116.562
11
77.3631
21
-116.657
0
LINE
8
BLACK
6
CONTINUOUS
10
77.3631
20
-116.657
11
77.4583
21
-116.848
0
LINE
8
BLACK
6
CONTINUOUS
10
77.4583
20
-116.848
11
77.4583
21
-117.419
0
LINE
8
BLACK
6
CONTINUOUS
10
77.4583
20
-117.419
11
77.3631
21
-117.61
0
LINE
8
BLACK
6
CONTINUOUS
10
77.3631
20
-117.61
11
77.2679
21
-117.705
0
LINE
8
BLACK
6
CONTINUOUS
10
77.2679
20
-117.705
11
77.0774
21
-117.8
0
LINE
8
BLACK
6
CONTINUOUS
10
77.0774
20
-117.8
11
76.6964
21
-117.8
0
LINE
8
BLACK
6
CONTINUOUS
10
76.6964
20
-117.8
11
76.506
21
-117.705
0
LINE
8
BLACK
6
CONTINUOUS
10
78.3155
20
-117.61
11
78.4107
21
-117.705
0
LINE
8
BLACK
6
CONTINUOUS
10
78.4107
20
-117.705
11
78.3155
21
-117.8
0
LINE
8
BLACK
6
CONTINUOUS
10
78.3155
20
-117.8
11
78.2202
21
-117.705
0
LINE
8
BLACK
6
CONTINUOUS
10
78.2202
20
-117.705
11
78.3155
21
-117.61
0
LINE
8
BLACK
6
CONTINUOUS
10
78.3155
20
-117.61
11
78.3155
21
-117.8
0
LINE
8
BLACK
6
CONTINUOUS
10
78.3155
20
-116.562
11
78.4107
21
-116.657
0
LINE
8
BLACK
6
CONTINUOUS
10
78.4107
20
-116.657
11
78.3155
21
-116.753
0
LINE
8
BLACK
6
CONTINUOUS
10
78.3155
20
-116.753
11
78.2202
21
-116.657
0
LINE
8
BLACK
6
CONTINUOUS
10
78.2202
20
-116.657
11
78.3155
21
-116.562
0
LINE
8
BLACK
6
CONTINUOUS
10
78.3155
20
-116.562
11
78.3155
21
-116.753
0
LINE
8
BLACK
6
CONTINUOUS
10
61.475
20
-120.75
11
62.125
21
-121.4
0
LINE
8
BLACK
6
CONTINUOUS
10
62.125
20
-120.75
11
61.475
21
-121.4
0
LINE
8
BLACK
6
CONTINUOUS
10
64.9821
20
-120
11
65.1726
21
-120
0
LINE
8
BLACK
6
CONTINUOUS
10
65.1726
20
-120
11
65.3631
21
-120.095
0
LINE
8
BLACK
6
CONTINUOUS
10
65.3631
20
-120.095
11
65.4583
21
-120.191
0
LINE
8
BLACK
6
CONTINUOUS
10
65.4583
20
-120.191
11
65.5536
21
-120.381
0
LINE
8
BLACK
6
CONTINUOUS
10
65.5536
20
-120.381
11
65.6488
21
-120.762
0
LINE
8
BLACK
6
CONTINUOUS
10
65.6488
20
-120.762
11
65.6488
21
-121.238
0
LINE
8
BLACK
6
CONTINUOUS
10
65.6488
20
-121.238
11
65.5536
21
-121.619
0
LINE
8
BLACK
6
CONTINUOUS
10
65.5536
20
-121.619
11
65.4583
21
-121.81
0
LINE
8
BLACK
6
CONTINUOUS
10
65.4583
20
-121.81
11
65.3631
21
-121.905
0
LINE
8
BLACK
6
CONTINUOUS
10
65.3631
20
-121.905
11
65.1726
21
-122
0
LINE
8
BLACK
6
CONTINUOUS
10
65.1726
20
-122
11
64.9821
21
-122
0
LINE
8
BLACK
6
CONTINUOUS
10
64.9821
20
-122
11
64.7917
21
-121.905
0
LINE
8
BLACK
6
CONTINUOUS
10
64.7917
20
-121.905
11
64.6964
21
-121.81
0
LINE
8
BLACK
6
CONTINUOUS
10
64.6964
20
-121.81
11
64.6012
21
-121.619
0
LINE
8
BLACK
6
CONTINUOUS
10
64.6012
20
-121.619
11
64.506
21
-121.238
0
LINE
8
BLACK
6
CONTINUOUS
10
64.506
20
-121.238
11
64.506
21
-120.762
0
LINE
8
BLACK
6
CONTINUOUS
10
64.506
20
-120.762
11
64.6012
21
-120.381
0
LINE
8
BLACK
6
CONTINUOUS
10
64.6012
20
-120.381
11
64.6964
21
-120.191
0
LINE
8
BLACK
6
CONTINUOUS
10
64.6964
20
-120.191
11
64.7917
21
-120.095
0
LINE
8
BLACK
6
CONTINUOUS
10
64.7917
20
-120.095
11
64.9821
21
-120
0
LINE
8
BLACK
6
CONTINUOUS
10
66.506
20
-121.81
11
66.6012
21
-121.905
0
LINE
8
BLACK
6
CONTINUOUS
10
66.6012
20
-121.905
11
66.506
21
-122
0
LINE
8
BLACK
6
CONTINUOUS
10
66.506
20
-122
11
66.4107
21
-121.905
0
LINE
8
BLACK
6
CONTINUOUS
10
66.4107
20
-121.905
11
66.506
21
-121.81
0
LINE
8
BLACK
6
CONTINUOUS
10
66.506
20
-121.81
11
66.506
21
-122
0
LINE
8
BLACK
6
CONTINUOUS
10
68.3155
20
-120
11
67.9345
21
-120
0
LINE
8
BLACK
6
CONTINUOUS
10
67.9345
20
-120
11
67.744
21
-120.095
0
LINE
8
BLACK
6
CONTINUOUS
10
67.744
20
-120.095
11
67.6488
21
-120.191
0
LINE
8
BLACK
6
CONTINUOUS
10
67.6488
20
-120.191
11
67.4583
21
-120.476
0
LINE
8
BLACK
6
CONTINUOUS
10
67.4583
20
-120.476
11
67.3631
21
-120.857
0
LINE
8
BLACK
6
CONTINUOUS
10
67.3631
20
-120.857
11
67.3631
21
-121.619
0
LINE
8
BLACK
6
CONTINUOUS
10
67.3631
20
-121.619
11
67.4583
21
-121.81
0
LINE
8
BLACK
6
CONTINUOUS
10
67.4583
20
-121.81
11
67.5536
21
-121.905
0
LINE
8
BLACK
6
CONTINUOUS
10
67.5536
20
-121.905
11
67.744
21
-122
0
LINE
8
BLACK
6
CONTINUOUS
10
67.744
20
-122
11
68.125
21
-122
0
LINE
8
BLACK
6
CONTINUOUS
10
68.125
20
-122
11
68.3155
21
-121.905
0
LINE
8
BLACK
6
CONTINUOUS
10
68.3155
20
-121.905
11
68.4107
21
-121.81
0
LINE
8
BLACK
6
CONTINUOUS
10
68.4107
20
-121.81
11
68.506
21
-121.619
0
LINE
8
BLACK
6
CONTINUOUS
10
68.506
20
-121.619
11
68.506
21
-121.143
0
LINE
8
BLACK
6
CONTINUOUS
10
68.506
20
-121.143
11
68.4107
21
-120.953
0
LINE
8
BLACK
6
CONTINUOUS
10
68.4107
20
-120.953
11
68.3155
21
-120.857
0
LINE
8
BLACK
6
CONTINUOUS
10
68.3155
20
-120.857
11
68.125
21
-120.762
0
LINE
8
BLACK
6
CONTINUOUS
10
68.125
20
-120.762
11
67.744
21
-120.762
0
LINE
8
BLACK
6
CONTINUOUS
10
67.744
20
-120.762
11
67.5536
21
-120.857
0
LINE
8
BLACK
6
CONTINUOUS
10
67.5536
20
-120.857
11
67.4583
21
-120.953
0
LINE
8
BLACK
6
CONTINUOUS
10
67.4583
20
-120.953
11
67.3631
21
-121.143
0
LINE
8
BLACK
6
CONTINUOUS
10
70.3155
20
-120
11
69.3631
21
-120
0
LINE
8
BLACK
6
CONTINUOUS
10
69.3631
20
-120
11
69.2679
21
-120.953
0
LINE
8
BLACK
6
CONTINUOUS
10
69.2679
20
-120.953
11
69.3631
21
-120.857
0
LINE
8
BLACK
6
CONTINUOUS
10
69.3631
20
-120.857
11
69.5536
21
-120.762
0
LINE
8
BLACK
6
CONTINUOUS
10
69.5536
20
-120.762
11
70.0298
21
-120.762
0
LINE
8
BLACK
6
CONTINUOUS
10
70.0298
20
-120.762
11
70.2202
21
-120.857
0
LINE
8
BLACK
6
CONTINUOUS
10
70.2202
20
-120.857
11
70.3155
21
-120.953
0
LINE
8
BLACK
6
CONTINUOUS
10
70.3155
20
-120.953
11
70.4107
21
-121.143
0
LINE
8
BLACK
6
CONTINUOUS
10
70.4107
20
-121.143
11
70.4107
21
-121.619
0
LINE
8
BLACK
6
CONTINUOUS
10
70.4107
20
-121.619
11
70.3155
21
-121.81
0
LINE
8
BLACK
6
CONTINUOUS
10
70.3155
20
-121.81
11
70.2202
21
-121.905
0
LINE
8
BLACK
6
CONTINUOUS
10
70.2202
20
-121.905
11
70.0298
21
-122
0
LINE
8
BLACK
6
CONTINUOUS
10
70.0298
20
-122
11
69.5536
21
-122
0
LINE
8
BLACK
6
CONTINUOUS
10
69.5536
20
-122
11
69.3631
21
-121.905
0
LINE
8
BLACK
6
CONTINUOUS
10
69.3631
20
-121.905
11
69.2679
21
-121.81
0
LINE
8
BLACK
6
CONTINUOUS
10
71.6488
20
-120
11
71.8393
21
-120
0
LINE
8
BLACK
6
CONTINUOUS
10
71.8393
20
-120
11
72.0298
21
-120.095
0
LINE
8
BLACK
6
CONTINUOUS
10
72.0298
20
-120.095
11
72.125
21
-120.191
0
LINE
8
BLACK
6
CONTINUOUS
10
72.125
20
-120.191
11
72.2202
21
-120.381
0
LINE
8
BLACK
6
CONTINUOUS
10
72.2202
20
-120.381
11
72.3155
21
-120.762
0
LINE
8
BLACK
6
CONTINUOUS
10
72.3155
20
-120.762
11
72.3155
21
-121.238
0
LINE
8
BLACK
6
CONTINUOUS
10
72.3155
20
-121.238
11
72.2202
21
-121.619
0
LINE
8
BLACK
6
CONTINUOUS
10
72.2202
20
-121.619
11
72.125
21
-121.81
0
LINE
8
BLACK
6
CONTINUOUS
10
72.125
20
-121.81
11
72.0298
21
-121.905
0
LINE
8
BLACK
6
CONTINUOUS
10
72.0298
20
-121.905
11
71.8393
21
-122
0
LINE
8
BLACK
6
CONTINUOUS
10
71.8393
20
-122
11
71.6488
21
-122
0
LINE
8
BLACK
6
CONTINUOUS
10
71.6488
20
-122
11
71.4583
21
-121.905
0
LINE
8
BLACK
6
CONTINUOUS
10
71.4583
20
-121.905
11
71.3631
21
-121.81
0
LINE
8
BLACK
6
CONTINUOUS
10
71.3631
20
-121.81
11
71.2679
21
-121.619
0
LINE
8
BLACK
6
CONTINUOUS
10
71.2679
20
-121.619
11
71.1726
21
-121.238
0
LINE
8
BLACK
6
CONTINUOUS
10
71.1726
20
-121.238
11
71.1726
21
-120.762
0
LINE
8
BLACK
6
CONTINUOUS
10
71.1726
20
-120.762
11
71.2679
21
-120.381
0
LINE
8
BLACK
6
CONTINUOUS
10
71.2679
20
-120.381
11
71.3631
21
-120.191
0
LINE
8
BLACK
6
CONTINUOUS
10
71.3631
20
-120.191
11
71.4583
21
-120.095
0
LINE
8
BLACK
6
CONTINUOUS
10
71.4583
20
-120.095
11
71.6488
21
-120
0
LINE
8
BLACK
6
CONTINUOUS
10
73.1726
20
-122
11
73.1726
21
-120.667
0
LINE
8
BLACK
6
CONTINUOUS
10
73.1726
20
-120.857
11
73.2679
21
-120.762
0
LINE
8
BLACK
6
CONTINUOUS
10
73.2679
20
-120.762
11
73.4583
21
-120.667
0
LINE
8
BLACK
6
CONTINUOUS
10
73.4583
20
-120.667
11
73.744
21
-120.667
0
LINE
8
BLACK
6
CONTINUOUS
10
73.744
20
-120.667
11
73.9345
21
-120.762
0
LINE
8
BLACK
6
CONTINUOUS
10
73.9345
20
-120.762
11
74.0298
21
-120.953
0
LINE
8
BLACK
6
CONTINUOUS
10
74.0298
20
-120.953
11
74.0298
21
-122
0
LINE
8
BLACK
6
CONTINUOUS
10
74.0298
20
-120.953
11
74.125
21
-120.762
0
LINE
8
BLACK
6
CONTINUOUS
10
74.125
20
-120.762
11
74.3155
21
-120.667
0
LINE
8
BLACK
6
CONTINUOUS
10
74.3155
20
-120.667
11
74.6012
21
-120.667
0
LINE
8
BLACK
6
CONTINUOUS
10
74.6012
20
-120.667
11
74.7917
21
-120.762
0
LINE
8
BLACK
6
CONTINUOUS
10
74.7917
20
-120.762
11
74.8869
21
-120.953
0
LINE
8
BLACK
6
CONTINUOUS
10
74.8869
20
-120.953
11
74.8869
21
-122
0
LINE
8
BLACK
6
CONTINUOUS
10
75.8393
20
-122
11
75.8393
21
-120.667
0
LINE
8
BLACK
6
CONTINUOUS
10
75.8393
20
-120.857
11
75.9345
21
-120.762
0
LINE
8
BLACK
6
CONTINUOUS
10
75.9345
20
-120.762
11
76.125
21
-120.667
0
LINE
8
BLACK
6
CONTINUOUS
10
76.125
20
-120.667
11
76.4107
21
-120.667
0
LINE
8
BLACK
6
CONTINUOUS
10
76.4107
20
-120.667
11
76.6012
21
-120.762
0
LINE
8
BLACK
6
CONTINUOUS
10
76.6012
20
-120.762
11
76.6964
21
-120.953
0
LINE
8
BLACK
6
CONTINUOUS
10
76.6964
20
-120.953
11
76.6964
21
-122
0
LINE
8
BLACK
6
CONTINUOUS
10
76.6964
20
-120.953
11
76.7917
21
-120.762
0
LINE
8
BLACK
6
CONTINUOUS
10
76.7917
20
-120.762
11
76.9821
21
-120.667
0
LINE
8
BLACK
6
CONTINUOUS
10
76.9821
20
-120.667
11
77.2679
21
-120.667
0
LINE
8
BLACK
6
CONTINUOUS
10
77.2679
20
-120.667
11
77.4583
21
-120.762
0
LINE
8
BLACK
6
CONTINUOUS
10
77.4583
20
-120.762
11
77.5536
21
-120.953
0
LINE
8
BLACK
6
CONTINUOUS
10
77.5536
20
-120.953
11
77.5536
21
-122
0
LINE
8
BLACK
6
CONTINUOUS
10
81.4583
20
-119.905
11
79.744
21
-122.476
0
LINE
8
BLACK
6
CONTINUOUS
10
84.0298
20
-120
11
84.2202
21
-120
0
LINE
8
BLACK
6
CONTINUOUS
10
84.2202
20
-120
11
84.4107
21
-120.095
0
LINE
8
BLACK
6
CONTINUOUS
10
84.4107
20
-120.095
11
84.506
21
-120.191
0
LINE
8
BLACK
6
CONTINUOUS
10
84.506
20
-120.191
11
84.6012
21
-120.381
0
LINE
8
BLACK
6
CONTINUOUS
10
84.6012
20
-120.381
11
84.6964
21
-120.762
0
LINE
8
BLACK
6
CONTINUOUS
10
84.6964
20
-120.762
11
84.6964
21
-121.238
0
LINE
8
BLACK
6
CONTINUOUS
10
84.6964
20
-121.238
11
84.6012
21
-121.619
0
LINE
8
BLACK
6
CONTINUOUS
10
84.6012
20
-121.619
11
84.506
21
-121.81
0
LINE
8
BLACK
6
CONTINUOUS
10
84.506
20
-121.81
11
84.4107
21
-121.905
0
LINE
8
BLACK
6
CONTINUOUS
10
84.4107
20
-121.905
11
84.2202
21
-122
0
LINE
8
BLACK
6
CONTINUOUS
10
84.2202
20
-122
11
84.0298
21
-122
0
LINE
8
BLACK
6
CONTINUOUS
10
84.0298
20
-122
11
83.8393
21
-121.905
0
LINE
8
BLACK
6
CONTINUOUS
10
83.8393
20
-121.905
11
83.744
21
-121.81
0
LINE
8
BLACK
6
CONTINUOUS
10
83.744
20
-121.81
11
83.6488
21
-121.619
0
LINE
8
BLACK
6
CONTINUOUS
10
83.6488
20
-121.619
11
83.5536
21
-121.238
0
LINE
8
BLACK
6
CONTINUOUS
10
83.5536
20
-121.238
11
83.5536
21
-120.762
0
LINE
8
BLACK
6
CONTINUOUS
10
83.5536
20
-120.762
11
83.6488
21
-120.381
0
LINE
8
BLACK
6
CONTINUOUS
10
83.6488
20
-120.381
11
83.744
21
-120.191
0
LINE
8
BLACK
6
CONTINUOUS
10
83.744
20
-120.191
11
83.8393
21
-120.095
0
LINE
8
BLACK
6
CONTINUOUS
10
83.8393
20
-120.095
11
84.0298
21
-120
0
LINE
8
BLACK
6
CONTINUOUS
10
85.5536
20
-121.81
11
85.6488
21
-121.905
0
LINE
8
BLACK
6
CONTINUOUS
10
85.6488
20
-121.905
11
85.5536
21
-122
0
LINE
8
BLACK
6
CONTINUOUS
10
85.5536
20
-122
11
85.4583
21
-121.905
0
LINE
8
BLACK
6
CONTINUOUS
10
85.4583
20
-121.905
11
85.5536
21
-121.81
0
LINE
8
BLACK
6
CONTINUOUS
10
85.5536
20
-121.81
11
85.5536
21
-122
0
LINE
8
BLACK
6
CONTINUOUS
10
86.8869
20
-120
11
87.0774
21
-120
0
LINE
8
BLACK
6
CONTINUOUS
10
87.0774
20
-120
11
87.2679
21
-120.095
0
LINE
8
BLACK
6
CONTINUOUS
10
87.2679
20
-120.095
11
87.3631
21
-120.191
0
LINE
8
BLACK
6
CONTINUOUS
10
87.3631
20
-120.191
11
87.4583
21
-120.381
0
LINE
8
BLACK
6
CONTINUOUS
10
87.4583
20
-120.381
11
87.5536
21
-120.762
0
LINE
8
BLACK
6
CONTINUOUS
10
87.5536
20
-120.762
11
87.5536
21
-121.238
0
LINE
8
BLACK
6
CONTINUOUS
10
87.5536
20
-121.238
11
87.4583
21
-121.619
0
LINE
8
BLACK
6
CONTINUOUS
10
87.4583
20
-121.619
11
87.3631
21
-121.81
0
LINE
8
BLACK
6
CONTINUOUS
10
87.3631
20
-121.81
11
87.2679
21
-121.905
0
LINE
8
BLACK
6
CONTINUOUS
10
87.2679
20
-121.905
11
87.0774
21
-122
0
LINE
8
BLACK
6
CONTINUOUS
10
87.0774
20
-122
11
86.8869
21
-122
0
LINE
8
BLACK
6
CONTINUOUS
10
86.8869
20
-122
11
86.6964
21
-121.905
0
LINE
8
BLACK
6
CONTINUOUS
10
86.6964
20
-121.905
11
86.6012
21
-121.81
0
LINE
8
BLACK
6
CONTINUOUS
10
86.6012
20
-121.81
11
86.506
21
-121.619
0
LINE
8
BLACK
6
CONTINUOUS
10
86.506
20
-121.619
11
86.4107
21
-121.238
0
LINE
8
BLACK
6
CONTINUOUS
10
86.4107
20
-121.238
11
86.4107
21
-120.762
0
LINE
8
BLACK
6
CONTINUOUS
10
86.4107
20
-120.762
11
86.506
21
-120.381
0
LINE
8
BLACK
6
CONTINUOUS
10
86.506
20
-120.381
11
86.6012
21
-120.191
0
LINE
8
BLACK
6
CONTINUOUS
10
86.6012
20
-120.191
11
86.6964
21
-120.095
0
LINE
8
BLACK
6
CONTINUOUS
10
86.6964
20
-120.095
11
86.8869
21
-120
0
LINE
8
BLACK
6
CONTINUOUS
10
88.3155
20
-120.191
11
88.4107
21
-120.095
0
LINE
8
BLACK
6
CONTINUOUS
10
88.4107
20
-120.095
11
88.6012
21
-120
0
LINE
8
BLACK
6
CONTINUOUS
10
88.6012
20
-120
11
89.0774
21
-120
0
LINE
8
BLACK
6
CONTINUOUS
10
89.0774
20
-120
11
89.2679
21
-120.095
0
LINE
8
BLACK
6
CONTINUOUS
10
89.2679
20
-120.095
11
89.3631
21
-120.191
0
LINE
8
BLACK
6
CONTINUOUS
10
89.3631
20
-120.191
11
89.4583
21
-120.381
0
LINE
8
BLACK
6
CONTINUOUS
10
89.4583
20
-120.381
11
89.4583
21
-120.572
0
LINE
8
BLACK
6
CONTINUOUS
10
89.4583
20
-120.572
11
89.3631
21
-120.857
0
LINE
8
BLACK
6
CONTINUOUS
10
89.3631
20
-120.857
11
88.2202
21
-122
0
LINE
8
BLACK
6
CONTINUOUS
10
88.2202
20
-122
11
89.4583
21
-122
0
LINE
8
BLACK
6
CONTINUOUS
10
91.2679
20
-120
11
90.3155
21
-120
0
LINE
8
BLACK
6
CONTINUOUS
10
90.3155
20
-120
11
90.2202
21
-120.953
0
LINE
8
BLACK
6
CONTINUOUS
10
90.2202
20
-120.953
11
90.3155
21
-120.857
0
LINE
8
BLACK
6
CONTINUOUS
10
90.3155
20
-120.857
11
90.506
21
-120.762
0
LINE
8
BLACK
6
CONTINUOUS
10
90.506
20
-120.762
11
90.9821
21
-120.762
0
LINE
8
BLACK
6
CONTINUOUS
10
90.9821
20
-120.762
11
91.1726
21
-120.857
0
LINE
8
BLACK
6
CONTINUOUS
10
91.1726
20
-120.857
11
91.2679
21
-120.953
0
LINE
8
BLACK
6
CONTINUOUS
10
91.2679
20
-120.953
11
91.3631
21
-121.143
0
LINE
8
BLACK
6
CONTINUOUS
10
91.3631
20
-121.143
11
91.3631
21
-121.619
0
LINE
8
BLACK
6
CONTINUOUS
10
91.3631
20
-121.619
11
91.2679
21
-121.81
0
LINE
8
BLACK
6
CONTINUOUS
10
91.2679
20
-121.81
11
91.1726
21
-121.905
0
LINE
8
BLACK
6
CONTINUOUS
10
91.1726
20
-121.905
11
90.9821
21
-122
0
LINE
8
BLACK
6
CONTINUOUS
10
90.9821
20
-122
11
90.506
21
-122
0
LINE
8
BLACK
6
CONTINUOUS
10
90.506
20
-122
11
90.3155
21
-121.905
0
LINE
8
BLACK
6
CONTINUOUS
10
90.3155
20
-121.905
11
90.2202
21
-121.81
0
LINE
8
BLACK
6
CONTINUOUS
10
93.0774
20
-120
11
92.6964
21
-120
0
LINE
8
BLACK
6
CONTINUOUS
10
92.6964
20
-120
11
92.506
21
-120.095
0
LINE
8
BLACK
6
CONTINUOUS
10
92.506
20
-120.095
11
92.4107
21
-120.191
0
LINE
8
BLACK
6
CONTINUOUS
10
92.4107
20
-120.191
11
92.2202
21
-120.476
0
LINE
8
BLACK
6
CONTINUOUS
10
92.2202
20
-120.476
11
92.125
21
-120.857
0
LINE
8
BLACK
6
CONTINUOUS
10
92.125
20
-120.857
11
92.125
21
-121.619
0
LINE
8
BLACK
6
CONTINUOUS
10
92.125
20
-121.619
11
92.2202
21
-121.81
0
LINE
8
BLACK
6
CONTINUOUS
10
92.2202
20
-121.81
11
92.3155
21
-121.905
0
LINE
8
BLACK
6
CONTINUOUS
10
92.3155
20
-121.905
11
92.506
21
-122
0
LINE
8
BLACK
6
CONTINUOUS
10
92.506
20
-122
11
92.8869
21
-122
0
LINE
8
BLACK
6
CONTINUOUS
10
92.8869
20
-122
11
93.0774
21
-121.905
0
LINE
8
BLACK
6
CONTINUOUS
10
93.0774
20
-121.905
11
93.1726
21
-121.81
0
LINE
8
BLACK
6
CONTINUOUS
10
93.1726
20
-121.81
11
93.2679
21
-121.619
0
LINE
8
BLACK
6
CONTINUOUS
10
93.2679
20
-121.619
11
93.2679
21
-121.143
0
LINE
8
BLACK
6
CONTINUOUS
10
93.2679
20
-121.143
11
93.1726
21
-120.953
0
LINE
8
BLACK
6
CONTINUOUS
10
93.1726
20
-120.953
11
93.0774
21
-120.857
0
LINE
8
BLACK
6
CONTINUOUS
10
93.0774
20
-120.857
11
92.8869
21
-120.762
0
LINE
8
BLACK
6
CONTINUOUS
10
92.8869
20
-120.762
11
92.506
21
-120.762
0
LINE
8
BLACK
6
CONTINUOUS
10
92.506
20
-120.762
11
92.3155
21
-120.857
0
LINE
8
BLACK
6
CONTINUOUS
10
92.3155
20
-120.857
11
92.2202
21
-120.953
0
LINE
8
BLACK
6
CONTINUOUS
10
92.2202
20
-120.953
11
92.125
21
-121.143
0
LINE
8
BLACK
6
CONTINUOUS
10
94.0298
20
-120
11
94.0298
21
-120.381
0
LINE
8
BLACK
6
CONTINUOUS
10
94.7917
20
-120
11
94.7917
21
-120.381
0
LINE
8
BLACK
6
CONTINUOUS
10
97.7441
20
-122.762
11
97.6488
21
-122.667
0
LINE
8
BLACK
6
CONTINUOUS
10
97.6488
20
-122.667
11
97.4583
21
-122.381
0
LINE
8
BLACK
6
CONTINUOUS
10
97.4583
20
-122.381
11
97.3631
21
-122.191
0
LINE
8
BLACK
6
CONTINUOUS
10
97.3631
20
-122.191
11
97.2679
21
-121.905
0
LINE
8
BLACK
6
CONTINUOUS
10
97.2679
20
-121.905
11
97.1726
21
-121.429
0
LINE
8
BLACK
6
CONTINUOUS
10
97.1726
20
-121.429
11
97.1726
21
-121.048
0
LINE
8
BLACK
6
CONTINUOUS
10
97.1726
20
-121.048
11
97.2679
21
-120.572
0
LINE
8
BLACK
6
CONTINUOUS
10
97.2679
20
-120.572
11
97.3631
21
-120.286
0
LINE
8
BLACK
6
CONTINUOUS
10
97.3631
20
-120.286
11
97.4583
21
-120.095
0
LINE
8
BLACK
6
CONTINUOUS
10
97.4583
20
-120.095
11
97.6488
21
-119.81
0
LINE
8
BLACK
6
CONTINUOUS
10
97.6488
20
-119.81
11
97.7441
21
-119.715
0
LINE
8
BLACK
6
CONTINUOUS
10
99.3631
20
-120.667
11
99.3631
21
-122
0
LINE
8
BLACK
6
CONTINUOUS
10
98.8869
20
-119.905
11
98.4107
21
-121.334
0
LINE
8
BLACK
6
CONTINUOUS
10
98.4107
20
-121.334
11
99.6488
21
-121.334
0
LINE
8
BLACK
6
CONTINUOUS
10
101.935
20
-122
11
101.935
21
-120
0
LINE
8
BLACK
6
CONTINUOUS
10
102.792
20
-122
11
102.792
21
-120.953
0
LINE
8
BLACK
6
CONTINUOUS
10
102.792
20
-120.953
11
102.696
21
-120.762
0
LINE
8
BLACK
6
CONTINUOUS
10
102.696
20
-120.762
11
102.506
21
-120.667
0
LINE
8
BLACK
6
CONTINUOUS
10
102.506
20
-120.667
11
102.22
21
-120.667
0
LINE
8
BLACK
6
CONTINUOUS
10
102.22
20
-120.667
11
102.03
21
-120.762
0
LINE
8
BLACK
6
CONTINUOUS
10
102.03
20
-120.762
11
101.935
21
-120.857
0
LINE
8
BLACK
6
CONTINUOUS
10
104.03
20
-122
11
103.839
21
-121.905
0
LINE
8
BLACK
6
CONTINUOUS
10
103.839
20
-121.905
11
103.744
21
-121.81
0
LINE
8
BLACK
6
CONTINUOUS
10
103.744
20
-121.81
11
103.649
21
-121.619
0
LINE
8
BLACK
6
CONTINUOUS
10
103.649
20
-121.619
11
103.649
21
-121.048
0
LINE
8
BLACK
6
CONTINUOUS
10
103.649
20
-121.048
11
103.744
21
-120.857
0
LINE
8
BLACK
6
CONTINUOUS
10
103.744
20
-120.857
11
103.839
21
-120.762
0
LINE
8
BLACK
6
CONTINUOUS
10
103.839
20
-120.762
11
104.03
21
-120.667
0
LINE
8
BLACK
6
CONTINUOUS
10
104.03
20
-120.667
11
104.315
21
-120.667
0
LINE
8
BLACK
6
CONTINUOUS
10
104.315
20
-120.667
11
104.506
21
-120.762
0
LINE
8
BLACK
6
CONTINUOUS
10
104.506
20
-120.762
11
104.601
21
-120.857
0
LINE
8
BLACK
6
CONTINUOUS
10
104.601
20
-120.857
11
104.696
21
-121.048
0
LINE
8
BLACK
6
CONTINUOUS
10
104.696
20
-121.048
11
104.696
21
-121.619
0
LINE
8
BLACK
6
CONTINUOUS
10
104.696
20
-121.619
11
104.601
21
-121.81
0
LINE
8
BLACK
6
CONTINUOUS
10
104.601
20
-121.81
11
104.506
21
-121.905
0
LINE
8
BLACK
6
CONTINUOUS
10
104.506
20
-121.905
11
104.315
21
-122
0
LINE
8
BLACK
6
CONTINUOUS
10
104.315
20
-122
11
104.03
21
-122
0
LINE
8
BLACK
6
CONTINUOUS
10
105.839
20
-122
11
105.649
21
-121.905
0
LINE
8
BLACK
6
CONTINUOUS
10
105.649
20
-121.905
11
105.554
21
-121.715
0
LINE
8
BLACK
6
CONTINUOUS
10
105.554
20
-121.715
11
105.554
21
-120
0
LINE
8
BLACK
6
CONTINUOUS
10
107.363
20
-121.905
11
107.173
21
-122
0
LINE
8
BLACK
6
CONTINUOUS
10
107.173
20
-122
11
106.792
21
-122
0
LINE
8
BLACK
6
CONTINUOUS
10
106.792
20
-122
11
106.601
21
-121.905
0
LINE
8
BLACK
6
CONTINUOUS
10
106.601
20
-121.905
11
106.506
21
-121.715
0
LINE
8
BLACK
6
CONTINUOUS
10
106.506
20
-121.715
11
106.506
21
-120.953
0
LINE
8
BLACK
6
CONTINUOUS
10
106.506
20
-120.953
11
106.601
21
-120.762
0
LINE
8
BLACK
6
CONTINUOUS
10
106.601
20
-120.762
11
106.792
21
-120.667
0
LINE
8
BLACK
6
CONTINUOUS
10
106.792
20
-120.667
11
107.173
21
-120.667
0
LINE
8
BLACK
6
CONTINUOUS
10
107.173
20
-120.667
11
107.363
21
-120.762
0
LINE
8
BLACK
6
CONTINUOUS
10
107.363
20
-120.762
11
107.458
21
-120.953
0
LINE
8
BLACK
6
CONTINUOUS
10
107.458
20
-120.953
11
107.458
21
-121.143
0
LINE
8
BLACK
6
CONTINUOUS
10
107.458
20
-121.143
11
106.506
21
-121.334
0
LINE
8
BLACK
6
CONTINUOUS
10
108.22
20
-121.905
11
108.411
21
-122
0
LINE
8
BLACK
6
CONTINUOUS
10
108.411
20
-122
11
108.792
21
-122
0
LINE
8
BLACK
6
CONTINUOUS
10
108.792
20
-122
11
108.982
21
-121.905
0
LINE
8
BLACK
6
CONTINUOUS
10
108.982
20
-121.905
11
109.077
21
-121.715
0
LINE
8
BLACK
6
CONTINUOUS
10
109.077
20
-121.715
11
109.077
21
-121.619
0
LINE
8
BLACK
6
CONTINUOUS
10
109.077
20
-121.619
11
108.982
21
-121.429
0
LINE
8
BLACK
6
CONTINUOUS
10
108.982
20
-121.429
11
108.792
21
-121.334
0
LINE
8
BLACK
6
CONTINUOUS
10
108.792
20
-121.334
11
108.506
21
-121.334
0
LINE
8
BLACK
6
CONTINUOUS
10
108.506
20
-121.334
11
108.315
21
-121.238
0
LINE
8
BLACK
6
CONTINUOUS
10
108.315
20
-121.238
11
108.22
21
-121.048
0
LINE
8
BLACK
6
CONTINUOUS
10
108.22
20
-121.048
11
108.22
21
-120.953
0
LINE
8
BLACK
6
CONTINUOUS
10
108.22
20
-120.953
11
108.315
21
-120.762
0
LINE
8
BLACK
6
CONTINUOUS
10
108.315
20
-120.762
11
108.506
21
-120.667
0
LINE
8
BLACK
6
CONTINUOUS
10
108.506
20
-120.667
11
108.792
21
-120.667
0
LINE
8
BLACK
6
CONTINUOUS
10
108.792
20
-120.667
11
108.982
21
-120.762
0
LINE
8
BLACK
6
CONTINUOUS
10
109.744
20
-122.762
11
109.839
21
-122.667
0
LINE
8
BLACK
6
CONTINUOUS
10
109.839
20
-122.667
11
110.03
21
-122.381
0
LINE
8
BLACK
6
CONTINUOUS
10
110.03
20
-122.381
11
110.125
21
-122.191
0
LINE
8
BLACK
6
CONTINUOUS
10
110.125
20
-122.191
11
110.22
21
-121.905
0
LINE
8
BLACK
6
CONTINUOUS
10
110.22
20
-121.905
11
110.315
21
-121.429
0
LINE
8
BLACK
6
CONTINUOUS
10
110.315
20
-121.429
11
110.315
21
-121.048
0
LINE
8
BLACK
6
CONTINUOUS
10
110.315
20
-121.048
11
110.22
21
-120.572
0
LINE
8
BLACK
6
CONTINUOUS
10
110.22
20
-120.572
11
110.125
21
-120.286
0
LINE
8
BLACK
6
CONTINUOUS
10
110.125
20
-120.286
11
110.03
21
-120.095
0
LINE
8
BLACK
6
CONTINUOUS
10
110.03
20
-120.095
11
109.839
21
-119.81
0
LINE
8
BLACK
6
CONTINUOUS
10
109.839
20
-119.81
11
109.744
21
-119.715
0
LINE
8
BLACK
6
CONTINUOUS
10
113.363
20
-122.762
11
113.268
21
-122.667
0
LINE
8
BLACK
6
CONTINUOUS
10
113.268
20
-122.667
11
113.077
21
-122.381
0
LINE
8
BLACK
6
CONTINUOUS
10
113.077
20
-122.381
11
112.982
21
-122.191
0
LINE
8
BLACK
6
CONTINUOUS
10
112.982
20
-122.191
11
112.887
21
-121.905
0
LINE
8
BLACK
6
CONTINUOUS
10
112.887
20
-121.905
11
112.792
21
-121.429
0
LINE
8
BLACK
6
CONTINUOUS
10
112.792
20
-121.429
11
112.792
21
-121.048
0
LINE
8
BLACK
6
CONTINUOUS
10
112.792
20
-121.048
11
112.887
21
-120.572
0
LINE
8
BLACK
6
CONTINUOUS
10
112.887
20
-120.572
11
112.982
21
-120.286
0
LINE
8
BLACK
6
CONTINUOUS
10
112.982
20
-120.286
11
113.077
21
-120.095
0
LINE
8
BLACK
6
CONTINUOUS
10
113.077
20
-120.095
11
113.268
21
-119.81
0
LINE
8
BLACK
6
CONTINUOUS
10
113.268
20
-119.81
11
113.363
21
-119.715
0
LINE
8
BLACK
6
CONTINUOUS
10
114.125
20
-120.667
11
114.125
21
-122
0
LINE
8
BLACK
6
CONTINUOUS
10
114.125
20
-120.857
11
114.22
21
-120.762
0
LINE
8
BLACK
6
CONTINUOUS
10
114.22
20
-120.762
11
114.411
21
-120.667
0
LINE
8
BLACK
6
CONTINUOUS
10
114.411
20
-120.667
11
114.696
21
-120.667
0
LINE
8
BLACK
6
CONTINUOUS
10
114.696
20
-120.667
11
114.887
21
-120.762
0
LINE
8
BLACK
6
CONTINUOUS
10
114.887
20
-120.762
11
114.982
21
-120.953
0
LINE
8
BLACK
6
CONTINUOUS
10
114.982
20
-120.953
11
114.982
21
-122
0
LINE
8
BLACK
6
CONTINUOUS
10
116.22
20
-122
11
116.03
21
-121.905
0
LINE
8
BLACK
6
CONTINUOUS
10
116.03
20
-121.905
11
115.935
21
-121.81
0
LINE
8
BLACK
6
CONTINUOUS
10
115.935
20
-121.81
11
115.839
21
-121.619
0
LINE
8
BLACK
6
CONTINUOUS
10
115.839
20
-121.619
11
115.839
21
-121.048
0
LINE
8
BLACK
6
CONTINUOUS
10
115.839
20
-121.048
11
115.935
21
-120.857
0
LINE
8
BLACK
6
CONTINUOUS
10
115.935
20
-120.857
11
116.03
21
-120.762
0
LINE
8
BLACK
6
CONTINUOUS
10
116.03
20
-120.762
11
116.22
21
-120.667
0
LINE
8
BLACK
6
CONTINUOUS
10
116.22
20
-120.667
11
116.506
21
-120.667
0
LINE
8
BLACK
6
CONTINUOUS
10
116.506
20
-120.667
11
116.696
21
-120.762
0
LINE
8
BLACK
6
CONTINUOUS
10
116.696
20
-120.762
11
116.792
21
-120.857
0
LINE
8
BLACK
6
CONTINUOUS
10
116.792
20
-120.857
11
116.887
21
-121.048
0
LINE
8
BLACK
6
CONTINUOUS
10
116.887
20
-121.048
11
116.887
21
-121.619
0
LINE
8
BLACK
6
CONTINUOUS
10
116.887
20
-121.619
11
116.792
21
-121.81
0
LINE
8
BLACK
6
CONTINUOUS
10
116.792
20
-121.81
11
116.696
21
-121.905
0
LINE
8
BLACK
6
CONTINUOUS
10
116.696
20
-121.905
11
116.506
21
-122
0
LINE
8
BLACK
6
CONTINUOUS
10
116.506
20
-122
11
116.22
21
-122
0
LINE
8
BLACK
6
CONTINUOUS
10
117.458
20
-120.667
11
118.22
21
-120.667
0
LINE
8
BLACK
6
CONTINUOUS
10
117.744
20
-120
11
117.744
21
-121.715
0
LINE
8
BLACK
6
CONTINUOUS
10
117.744
20
-121.715
11
117.839
21
-121.905
0
LINE
8
BLACK
6
CONTINUOUS
10
117.839
20
-121.905
11
118.03
21
-122
0
LINE
8
BLACK
6
CONTINUOUS
10
118.03
20
-122
11
118.22
21
-122
0
LINE
8
BLACK
6
CONTINUOUS
10
120.411
20
-120.667
11
120.411
21
-122.667
0
LINE
8
BLACK
6
CONTINUOUS
10
120.411
20
-120.762
11
120.601
21
-120.667
0
LINE
8
BLACK
6
CONTINUOUS
10
120.601
20
-120.667
11
120.982
21
-120.667
0
LINE
8
BLACK
6
CONTINUOUS
10
120.982
20
-120.667
11
121.173
21
-120.762
0
LINE
8
BLACK
6
CONTINUOUS
10
121.173
20
-120.762
11
121.268
21
-120.857
0
LINE
8
BLACK
6
CONTINUOUS
10
121.268
20
-120.857
11
121.363
21
-121.048
0
LINE
8
BLACK
6
CONTINUOUS
10
121.363
20
-121.048
11
121.363
21
-121.619
0
LINE
8
BLACK
6
CONTINUOUS
10
121.363
20
-121.619
11
121.268
21
-121.81
0
LINE
8
BLACK
6
CONTINUOUS
10
121.268
20
-121.81
11
121.173
21
-121.905
0
LINE
8
BLACK
6
CONTINUOUS
10
121.173
20
-121.905
11
120.982
21
-122
0
LINE
8
BLACK
6
CONTINUOUS
10
120.982
20
-122
11
120.601
21
-122
0
LINE
8
BLACK
6
CONTINUOUS
10
120.601
20
-122
11
120.411
21
-121.905
0
LINE
8
BLACK
6
CONTINUOUS
10
122.506
20
-122
11
122.315
21
-121.905
0
LINE
8
BLACK
6
CONTINUOUS
10
122.315
20
-121.905
11
122.22
21
-121.715
0
LINE
8
BLACK
6
CONTINUOUS
10
122.22
20
-121.715
11
122.22
21
-120
0
LINE
8
BLACK
6
CONTINUOUS
10
124.125
20
-122
11
124.125
21
-120.953
0
LINE
8
BLACK
6
CONTINUOUS
10
124.125
20
-120.953
11
124.03
21
-120.762
0
LINE
8
BLACK
6
CONTINUOUS
10
124.03
20
-120.762
11
123.839
21
-120.667
0
LINE
8
BLACK
6
CONTINUOUS
10
123.839
20
-120.667
11
123.458
21
-120.667
0
LINE
8
BLACK
6
CONTINUOUS
10
123.458
20
-120.667
11
123.268
21
-120.762
0
LINE
8
BLACK
6
CONTINUOUS
10
124.125
20
-121.905
11
123.935
21
-122
0
LINE
8
BLACK
6
CONTINUOUS
10
123.935
20
-122
11
123.458
21
-122
0
LINE
8
BLACK
6
CONTINUOUS
10
123.458
20
-122
11
123.268
21
-121.905
0
LINE
8
BLACK
6
CONTINUOUS
10
123.268
20
-121.905
11
123.173
21
-121.715
0
LINE
8
BLACK
6
CONTINUOUS
10
123.173
20
-121.715
11
123.173
21
-121.524
0
LINE
8
BLACK
6
CONTINUOUS
10
123.173
20
-121.524
11
123.268
21
-121.334
0
LINE
8
BLACK
6
CONTINUOUS
10
123.268
20
-121.334
11
123.458
21
-121.238
0
LINE
8
BLACK
6
CONTINUOUS
10
123.458
20
-121.238
11
123.935
21
-121.238
0
LINE
8
BLACK
6
CONTINUOUS
10
123.935
20
-121.238
11
124.125
21
-121.143
0
LINE
8
BLACK
6
CONTINUOUS
10
124.792
20
-120.667
11
125.554
21
-120.667
0
LINE
8
BLACK
6
CONTINUOUS
10
125.077
20
-120
11
125.077
21
-121.715
0
LINE
8
BLACK
6
CONTINUOUS
10
125.077
20
-121.715
11
125.173
21
-121.905
0
LINE
8
BLACK
6
CONTINUOUS
10
125.173
20
-121.905
11
125.363
21
-122
0
LINE
8
BLACK
6
CONTINUOUS
10
125.363
20
-122
11
125.554
21
-122
0
LINE
8
BLACK
6
CONTINUOUS
10
126.982
20
-121.905
11
126.792
21
-122
0
LINE
8
BLACK
6
CONTINUOUS
10
126.792
20
-122
11
126.411
21
-122
0
LINE
8
BLACK
6
CONTINUOUS
10
126.411
20
-122
11
126.22
21
-121.905
0
LINE
8
BLACK
6
CONTINUOUS
10
126.22
20
-121.905
11
126.125
21
-121.715
0
LINE
8
BLACK
6
CONTINUOUS
10
126.125
20
-121.715
11
126.125
21
-120.953
0
LINE
8
BLACK
6
CONTINUOUS
10
126.125
20
-120.953
11
126.22
21
-120.762
0
LINE
8
BLACK
6
CONTINUOUS
10
126.22
20
-120.762
11
126.411
21
-120.667
0
LINE
8
BLACK
6
CONTINUOUS
10
126.411
20
-120.667
11
126.792
21
-120.667
0
LINE
8
BLACK
6
CONTINUOUS
10
126.792
20
-120.667
11
126.982
21
-120.762
0
LINE
8
BLACK
6
CONTINUOUS
10
126.982
20
-120.762
11
127.077
21
-120.953
0
LINE
8
BLACK
6
CONTINUOUS
10
127.077
20
-120.953
11
127.077
21
-121.143
0
LINE
8
BLACK
6
CONTINUOUS
10
127.077
20
-121.143
11
126.125
21
-121.334
0
LINE
8
BLACK
6
CONTINUOUS
10
128.792
20
-122
11
128.792
21
-120
0
LINE
8
BLACK
6
CONTINUOUS
10
128.792
20
-121.905
11
128.601
21
-122
0
LINE
8
BLACK
6
CONTINUOUS
10
128.601
20
-122
11
128.22
21
-122
0
LINE
8
BLACK
6
CONTINUOUS
10
128.22
20
-122
11
128.03
21
-121.905
0
LINE
8
BLACK
6
CONTINUOUS
10
128.03
20
-121.905
11
127.935
21
-121.81
0
LINE
8
BLACK
6
CONTINUOUS
10
127.935
20
-121.81
11
127.839
21
-121.619
0
LINE
8
BLACK
6
CONTINUOUS
10
127.839
20
-121.619
11
127.839
21
-121.048
0
LINE
8
BLACK
6
CONTINUOUS
10
127.839
20
-121.048
11
127.935
21
-120.857
0
LINE
8
BLACK
6
CONTINUOUS
10
127.935
20
-120.857
11
128.03
21
-120.762
0
LINE
8
BLACK
6
CONTINUOUS
10
128.03
20
-120.762
11
128.22
21
-120.667
0
LINE
8
BLACK
6
CONTINUOUS
10
128.22
20
-120.667
11
128.601
21
-120.667
0
LINE
8
BLACK
6
CONTINUOUS
10
128.601
20
-120.667
11
128.792
21
-120.762
0
LINE
8
BLACK
6
CONTINUOUS
10
129.554
20
-122.762
11
129.649
21
-122.667
0
LINE
8
BLACK
6
CONTINUOUS
10
129.649
20
-122.667
11
129.839
21
-122.381
0
LINE
8
BLACK
6
CONTINUOUS
10
129.839
20
-122.381
11
129.935
21
-122.191
0
LINE
8
BLACK
6
CONTINUOUS
10
129.935
20
-122.191
11
130.03
21
-121.905
0
LINE
8
BLACK
6
CONTINUOUS
10
130.03
20
-121.905
11
130.125
21
-121.429
0
LINE
8
BLACK
6
CONTINUOUS
10
130.125
20
-121.429
11
130.125
21
-121.048
0
LINE
8
BLACK
6
CONTINUOUS
10
130.125
20
-121.048
11
130.03
21
-120.572
0
LINE
8
BLACK
6
CONTINUOUS
10
130.03
20
-120.572
11
129.935
21
-120.286
0
LINE
8
BLACK
6
CONTINUOUS
10
129.935
20
-120.286
11
129.839
21
-120.095
0
LINE
8
BLACK
6
CONTINUOUS
10
129.839
20
-120.095
11
129.649
21
-119.81
0
LINE
8
BLACK
6
CONTINUOUS
10
129.649
20
-119.81
11
129.554
21
-119.715
0
CIRCLE
8
BLACK
10
61.125
20
-123.715
40
1
0
LINE
8
BLACK
6
CONTINUOUS
10
64.4107
20
-122.64
11
65.6488
21
-122.64
0
LINE
8
BLACK
6
CONTINUOUS
10
65.6488
20
-122.64
11
64.9821
21
-123.402
0
LINE
8
BLACK
6
CONTINUOUS
10
64.9821
20
-123.402
11
65.2679
21
-123.402
0
LINE
8
BLACK
6
CONTINUOUS
10
65.2679
20
-123.402
11
65.4583
21
-123.497
0
LINE
8
BLACK
6
CONTINUOUS
10
65.4583
20
-123.497
11
65.5536
21
-123.593
0
LINE
8
BLACK
6
CONTINUOUS
10
65.5536
20
-123.593
11
65.6488
21
-123.783
0
LINE
8
BLACK
6
CONTINUOUS
10
65.6488
20
-123.783
11
65.6488
21
-124.259
0
LINE
8
BLACK
6
CONTINUOUS
10
65.6488
20
-124.259
11
65.5536
21
-124.45
0
LINE
8
BLACK
6
CONTINUOUS
10
65.5536
20
-124.45
11
65.4583
21
-124.545
0
LINE
8
BLACK
6
CONTINUOUS
10
65.4583
20
-124.545
11
65.2679
21
-124.64
0
LINE
8
BLACK
6
CONTINUOUS
10
65.2679
20
-124.64
11
64.6964
21
-124.64
0
LINE
8
BLACK
6
CONTINUOUS
10
64.6964
20
-124.64
11
64.506
21
-124.545
0
LINE
8
BLACK
6
CONTINUOUS
10
64.506
20
-124.545
11
64.4107
21
-124.45
0
LINE
8
BLACK
6
CONTINUOUS
10
66.506
20
-124.45
11
66.6012
21
-124.545
0
LINE
8
BLACK
6
CONTINUOUS
10
66.6012
20
-124.545
11
66.506
21
-124.64
0
LINE
8
BLACK
6
CONTINUOUS
10
66.506
20
-124.64
11
66.4107
21
-124.545
0
LINE
8
BLACK
6
CONTINUOUS
10
66.4107
20
-124.545
11
66.506
21
-124.45
0
LINE
8
BLACK
6
CONTINUOUS
10
66.506
20
-124.45
11
66.506
21
-124.64
0
LINE
8
BLACK
6
CONTINUOUS
10
67.3631
20
-122.831
11
67.4583
21
-122.735
0
LINE
8
BLACK
6
CONTINUOUS
10
67.4583
20
-122.735
11
67.6488
21
-122.64
0
LINE
8
BLACK
6
CONTINUOUS
10
67.6488
20
-122.64
11
68.125
21
-122.64
0
LINE
8
BLACK
6
CONTINUOUS
10
68.125
20
-122.64
11
68.3155
21
-122.735
0
LINE
8
BLACK
6
CONTINUOUS
10
68.3155
20
-122.735
11
68.4107
21
-122.831
0
LINE
8
BLACK
6
CONTINUOUS
10
68.4107
20
-122.831
11
68.506
21
-123.021
0
LINE
8
BLACK
6
CONTINUOUS
10
68.506
20
-123.021
11
68.506
21
-123.212
0
LINE
8
BLACK
6
CONTINUOUS
10
68.506
20
-123.212
11
68.4107
21
-123.497
0
LINE
8
BLACK
6
CONTINUOUS
10
68.4107
20
-123.497
11
67.2679
21
-124.64
0
LINE
8
BLACK
6
CONTINUOUS
10
67.2679
20
-124.64
11
68.506
21
-124.64
0
LINE
8
BLACK
6
CONTINUOUS
10
70.3155
20
-122.64
11
69.3631
21
-122.64
0
LINE
8
BLACK
6
CONTINUOUS
10
69.3631
20
-122.64
11
69.2679
21
-123.593
0
LINE
8
BLACK
6
CONTINUOUS
10
69.2679
20
-123.593
11
69.3631
21
-123.497
0
LINE
8
BLACK
6
CONTINUOUS
10
69.3631
20
-123.497
11
69.5536
21
-123.402
0
LINE
8
BLACK
6
CONTINUOUS
10
69.5536
20
-123.402
11
70.0298
21
-123.402
0
LINE
8
BLACK
6
CONTINUOUS
10
70.0298
20
-123.402
11
70.2202
21
-123.497
0
LINE
8
BLACK
6
CONTINUOUS
10
70.2202
20
-123.497
11
70.3155
21
-123.593
0
LINE
8
BLACK
6
CONTINUOUS
10
70.3155
20
-123.593
11
70.4107
21
-123.783
0
LINE
8
BLACK
6
CONTINUOUS
10
70.4107
20
-123.783
11
70.4107
21
-124.259
0
LINE
8
BLACK
6
CONTINUOUS
10
70.4107
20
-124.259
11
70.3155
21
-124.45
0
LINE
8
BLACK
6
CONTINUOUS
10
70.3155
20
-124.45
11
70.2202
21
-124.545
0
LINE
8
BLACK
6
CONTINUOUS
10
70.2202
20
-124.545
11
70.0298
21
-124.64
0
LINE
8
BLACK
6
CONTINUOUS
10
70.0298
20
-124.64
11
69.5536
21
-124.64
0
LINE
8
BLACK
6
CONTINUOUS
10
69.5536
20
-124.64
11
69.3631
21
-124.545
0
LINE
8
BLACK
6
CONTINUOUS
10
69.3631
20
-124.545
11
69.2679
21
-124.45
0
LINE
8
BLACK
6
CONTINUOUS
10
71.6488
20
-122.64
11
71.8393
21
-122.64
0
LINE
8
BLACK
6
CONTINUOUS
10
71.8393
20
-122.64
11
72.0298
21
-122.735
0
LINE
8
BLACK
6
CONTINUOUS
10
72.0298
20
-122.735
11
72.125
21
-122.831
0
LINE
8
BLACK
6
CONTINUOUS
10
72.125
20
-122.831
11
72.2202
21
-123.021
0
LINE
8
BLACK
6
CONTINUOUS
10
72.2202
20
-123.021
11
72.3155
21
-123.402
0
LINE
8
BLACK
6
CONTINUOUS
10
72.3155
20
-123.402
11
72.3155
21
-123.878
0
LINE
8
BLACK
6
CONTINUOUS
10
72.3155
20
-123.878
11
72.2202
21
-124.259
0
LINE
8
BLACK
6
CONTINUOUS
10
72.2202
20
-124.259
11
72.125
21
-124.45
0
LINE
8
BLACK
6
CONTINUOUS
10
72.125
20
-124.45
11
72.0298
21
-124.545
0
LINE
8
BLACK
6
CONTINUOUS
10
72.0298
20
-124.545
11
71.8393
21
-124.64
0
LINE
8
BLACK
6
CONTINUOUS
10
71.8393
20
-124.64
11
71.6488
21
-124.64
0
LINE
8
BLACK
6
CONTINUOUS
10
71.6488
20
-124.64
11
71.4583
21
-124.545
0
LINE
8
BLACK
6
CONTINUOUS
10
71.4583
20
-124.545
11
71.3631
21
-124.45
0
LINE
8
BLACK
6
CONTINUOUS
10
71.3631
20
-124.45
11
71.2679
21
-124.259
0
LINE
8
BLACK
6
CONTINUOUS
10
71.2679
20
-124.259
11
71.1726
21
-123.878
0
LINE
8
BLACK
6
CONTINUOUS
10
71.1726
20
-123.878
11
71.1726
21
-123.402
0
LINE
8
BLACK
6
CONTINUOUS
10
71.1726
20
-123.402
11
71.2679
21
-123.021
0
LINE
8
BLACK
6
CONTINUOUS
10
71.2679
20
-123.021
11
71.3631
21
-122.831
0
LINE
8
BLACK
6
CONTINUOUS
10
71.3631
20
-122.831
11
71.4583
21
-122.735
0
LINE
8
BLACK
6
CONTINUOUS
10
71.4583
20
-122.735
11
71.6488
21
-122.64
0
LINE
8
BLACK
6
CONTINUOUS
10
73.1726
20
-124.64
11
73.1726
21
-123.307
0
LINE
8
BLACK
6
CONTINUOUS
10
73.1726
20
-123.497
11
73.2679
21
-123.402
0
LINE
8
BLACK
6
CONTINUOUS
10
73.2679
20
-123.402
11
73.4583
21
-123.307
0
LINE
8
BLACK
6
CONTINUOUS
10
73.4583
20
-123.307
11
73.744
21
-123.307
0
LINE
8
BLACK
6
CONTINUOUS
10
73.744
20
-123.307
11
73.9345
21
-123.402
0
LINE
8
BLACK
6
CONTINUOUS
10
73.9345
20
-123.402
11
74.0298
21
-123.593
0
LINE
8
BLACK
6
CONTINUOUS
10
74.0298
20
-123.593
11
74.0298
21
-124.64
0
LINE
8
BLACK
6
CONTINUOUS
10
74.0298
20
-123.593
11
74.125
21
-123.402
0
LINE
8
BLACK
6
CONTINUOUS
10
74.125
20
-123.402
11
74.3155
21
-123.307
0
LINE
8
BLACK
6
CONTINUOUS
10
74.3155
20
-123.307
11
74.6012
21
-123.307
0
LINE
8
BLACK
6
CONTINUOUS
10
74.6012
20
-123.307
11
74.7917
21
-123.402
0
LINE
8
BLACK
6
CONTINUOUS
10
74.7917
20
-123.402
11
74.8869
21
-123.593
0
LINE
8
BLACK
6
CONTINUOUS
10
74.8869
20
-123.593
11
74.8869
21
-124.64
0
LINE
8
BLACK
6
CONTINUOUS
10
75.8393
20
-124.64
11
75.8393
21
-123.307
0
LINE
8
BLACK
6
CONTINUOUS
10
75.8393
20
-123.497
11
75.9345
21
-123.402
0
LINE
8
BLACK
6
CONTINUOUS
10
75.9345
20
-123.402
11
76.125
21
-123.307
0
LINE
8
BLACK
6
CONTINUOUS
10
76.125
20
-123.307
11
76.4107
21
-123.307
0
LINE
8
BLACK
6
CONTINUOUS
10
76.4107
20
-123.307
11
76.6012
21
-123.402
0
LINE
8
BLACK
6
CONTINUOUS
10
76.6012
20
-123.402
11
76.6964
21
-123.593
0
LINE
8
BLACK
6
CONTINUOUS
10
76.6964
20
-123.593
11
76.6964
21
-124.64
0
LINE
8
BLACK
6
CONTINUOUS
10
76.6964
20
-123.593
11
76.7917
21
-123.402
0
LINE
8
BLACK
6
CONTINUOUS
10
76.7917
20
-123.402
11
76.9821
21
-123.307
0
LINE
8
BLACK
6
CONTINUOUS
10
76.9821
20
-123.307
11
77.2679
21
-123.307
0
LINE
8
BLACK
6
CONTINUOUS
10
77.2679
20
-123.307
11
77.4583
21
-123.402
0
LINE
8
BLACK
6
CONTINUOUS
10
77.4583
20
-123.402
11
77.5536
21
-123.593
0
LINE
8
BLACK
6
CONTINUOUS
10
77.5536
20
-123.593
11
77.5536
21
-124.64
0
LINE
8
BLACK
6
CONTINUOUS
10
81.4583
20
-122.545
11
79.744
21
-125.116
0
LINE
8
BLACK
6
CONTINUOUS
10
84.0298
20
-122.64
11
84.2202
21
-122.64
0
LINE
8
BLACK
6
CONTINUOUS
10
84.2202
20
-122.64
11
84.4107
21
-122.735
0
LINE
8
BLACK
6
CONTINUOUS
10
84.4107
20
-122.735
11
84.506
21
-122.831
0
LINE
8
BLACK
6
CONTINUOUS
10
84.506
20
-122.831
11
84.6012
21
-123.021
0
LINE
8
BLACK
6
CONTINUOUS
10
84.6012
20
-123.021
11
84.6964
21
-123.402
0
LINE
8
BLACK
6
CONTINUOUS
10
84.6964
20
-123.402
11
84.6964
21
-123.878
0
LINE
8
BLACK
6
CONTINUOUS
10
84.6964
20
-123.878
11
84.6012
21
-124.259
0
LINE
8
BLACK
6
CONTINUOUS
10
84.6012
20
-124.259
11
84.506
21
-124.45
0
LINE
8
BLACK
6
CONTINUOUS
10
84.506
20
-124.45
11
84.4107
21
-124.545
0
LINE
8
BLACK
6
CONTINUOUS
10
84.4107
20
-124.545
11
84.2202
21
-124.64
0
LINE
8
BLACK
6
CONTINUOUS
10
84.2202
20
-124.64
11
84.0298
21
-124.64
0
LINE
8
BLACK
6
CONTINUOUS
10
84.0298
20
-124.64
11
83.8393
21
-124.545
0
LINE
8
BLACK
6
CONTINUOUS
10
83.8393
20
-124.545
11
83.744
21
-124.45
0
LINE
8
BLACK
6
CONTINUOUS
10
83.744
20
-124.45
11
83.6488
21
-124.259
0
LINE
8
BLACK
6
CONTINUOUS
10
83.6488
20
-124.259
11
83.5536
21
-123.878
0
LINE
8
BLACK
6
CONTINUOUS
10
83.5536
20
-123.878
11
83.5536
21
-123.402
0
LINE
8
BLACK
6
CONTINUOUS
10
83.5536
20
-123.402
11
83.6488
21
-123.021
0
LINE
8
BLACK
6
CONTINUOUS
10
83.6488
20
-123.021
11
83.744
21
-122.831
0
LINE
8
BLACK
6
CONTINUOUS
10
83.744
20
-122.831
11
83.8393
21
-122.735
0
LINE
8
BLACK
6
CONTINUOUS
10
83.8393
20
-122.735
11
84.0298
21
-122.64
0
LINE
8
BLACK
6
CONTINUOUS
10
85.5536
20
-124.45
11
85.6488
21
-124.545
0
LINE
8
BLACK
6
CONTINUOUS
10
85.6488
20
-124.545
11
85.5536
21
-124.64
0
LINE
8
BLACK
6
CONTINUOUS
10
85.5536
20
-124.64
11
85.4583
21
-124.545
0
LINE
8
BLACK
6
CONTINUOUS
10
85.4583
20
-124.545
11
85.5536
21
-124.45
0
LINE
8
BLACK
6
CONTINUOUS
10
85.5536
20
-124.45
11
85.5536
21
-124.64
0
LINE
8
BLACK
6
CONTINUOUS
10
87.5536
20
-124.64
11
86.4107
21
-124.64
0
LINE
8
BLACK
6
CONTINUOUS
10
86.9821
20
-124.64
11
86.9821
21
-122.64
0
LINE
8
BLACK
6
CONTINUOUS
10
86.9821
20
-122.64
11
86.7917
21
-122.926
0
LINE
8
BLACK
6
CONTINUOUS
10
86.7917
20
-122.926
11
86.6012
21
-123.116
0
LINE
8
BLACK
6
CONTINUOUS
10
86.6012
20
-123.116
11
86.4107
21
-123.212
0
LINE
8
BLACK
6
CONTINUOUS
10
88.3155
20
-122.831
11
88.4107
21
-122.735
0
LINE
8
BLACK
6
CONTINUOUS
10
88.4107
20
-122.735
11
88.6012
21
-122.64
0
LINE
8
BLACK
6
CONTINUOUS
10
88.6012
20
-122.64
11
89.0774
21
-122.64
0
LINE
8
BLACK
6
CONTINUOUS
10
89.0774
20
-122.64
11
89.2679
21
-122.735
0
LINE
8
BLACK
6
CONTINUOUS
10
89.2679
20
-122.735
11
89.3631
21
-122.831
0
LINE
8
BLACK
6
CONTINUOUS
10
89.3631
20
-122.831
11
89.4583
21
-123.021
0
LINE
8
BLACK
6
CONTINUOUS
10
89.4583
20
-123.021
11
89.4583
21
-123.212
0
LINE
8
BLACK
6
CONTINUOUS
10
89.4583
20
-123.212
11
89.3631
21
-123.497
0
LINE
8
BLACK
6
CONTINUOUS
10
89.3631
20
-123.497
11
88.2202
21
-124.64
0
LINE
8
BLACK
6
CONTINUOUS
10
88.2202
20
-124.64
11
89.4583
21
-124.64
0
LINE
8
BLACK
6
CONTINUOUS
10
90.6012
20
-123.497
11
90.4107
21
-123.402
0
LINE
8
BLACK
6
CONTINUOUS
10
90.4107
20
-123.402
11
90.3155
21
-123.307
0
LINE
8
BLACK
6
CONTINUOUS
10
90.3155
20
-123.307
11
90.2202
21
-123.116
0
LINE
8
BLACK
6
CONTINUOUS
10
90.2202
20
-123.116
11
90.2202
21
-123.021
0
LINE
8
BLACK
6
CONTINUOUS
10
90.2202
20
-123.021
11
90.3155
21
-122.831
0
LINE
8
BLACK
6
CONTINUOUS
10
90.3155
20
-122.831
11
90.4107
21
-122.735
0
LINE
8
BLACK
6
CONTINUOUS
10
90.4107
20
-122.735
11
90.6012
21
-122.64
0
LINE
8
BLACK
6
CONTINUOUS
10
90.6012
20
-122.64
11
90.9821
21
-122.64
0
LINE
8
BLACK
6
CONTINUOUS
10
90.9821
20
-122.64
11
91.1726
21
-122.735
0
LINE
8
BLACK
6
CONTINUOUS
10
91.1726
20
-122.735
11
91.2679
21
-122.831
0
LINE
8
BLACK
6
CONTINUOUS
10
91.2679
20
-122.831
11
91.3631
21
-123.021
0
LINE
8
BLACK
6
CONTINUOUS
10
91.3631
20
-123.021
11
91.3631
21
-123.116
0
LINE
8
BLACK
6
CONTINUOUS
10
91.3631
20
-123.116
11
91.2679
21
-123.307
0
LINE
8
BLACK
6
CONTINUOUS
10
91.2679
20
-123.307
11
91.1726
21
-123.402
0
LINE
8
BLACK
6
CONTINUOUS
10
91.1726
20
-123.402
11
90.9821
21
-123.497
0
LINE
8
BLACK
6
CONTINUOUS
10
90.9821
20
-123.497
11
90.6012
21
-123.497
0
LINE
8
BLACK
6
CONTINUOUS
10
90.6012
20
-123.497
11
90.4107
21
-123.593
0
LINE
8
BLACK
6
CONTINUOUS
10
90.4107
20
-123.593
11
90.3155
21
-123.688
0
LINE
8
BLACK
6
CONTINUOUS
10
90.3155
20
-123.688
11
90.2202
21
-123.878
0
LINE
8
BLACK
6
CONTINUOUS
10
90.2202
20
-123.878
11
90.2202
21
-124.259
0
LINE
8
BLACK
6
CONTINUOUS
10
90.2202
20
-124.259
11
90.3155
21
-124.45
0
LINE
8
BLACK
6
CONTINUOUS
10
90.3155
20
-124.45
11
90.4107
21
-124.545
0
LINE
8
BLACK
6
CONTINUOUS
10
90.4107
20
-124.545
11
90.6012
21
-124.64
0
LINE
8
BLACK
6
CONTINUOUS
10
90.6012
20
-124.64
11
90.9821
21
-124.64
0
LINE
8
BLACK
6
CONTINUOUS
10
90.9821
20
-124.64
11
91.1726
21
-124.545
0
LINE
8
BLACK
6
CONTINUOUS
10
91.1726
20
-124.545
11
91.2679
21
-124.45
0
LINE
8
BLACK
6
CONTINUOUS
10
91.2679
20
-124.45
11
91.3631
21
-124.259
0
LINE
8
BLACK
6
CONTINUOUS
10
91.3631
20
-124.259
11
91.3631
21
-123.878
0
LINE
8
BLACK
6
CONTINUOUS
10
91.3631
20
-123.878
11
91.2679
21
-123.688
0
LINE
8
BLACK
6
CONTINUOUS
10
91.2679
20
-123.688
11
91.1726
21
-123.593
0
LINE
8
BLACK
6
CONTINUOUS
10
91.1726
20
-123.593
11
90.9821
21
-123.497
0
LINE
8
BLACK
6
CONTINUOUS
10
92.6012
20
-122.64
11
92.7917
21
-122.64
0
LINE
8
BLACK
6
CONTINUOUS
10
92.7917
20
-122.64
11
92.9821
21
-122.735
0
LINE
8
BLACK
6
CONTINUOUS
10
92.9821
20
-122.735
11
93.0774
21
-122.831
0
LINE
8
BLACK
6
CONTINUOUS
10
93.0774
20
-122.831
11
93.1726
21
-123.021
0
LINE
8
BLACK
6
CONTINUOUS
10
93.1726
20
-123.021
11
93.2679
21
-123.402
0
LINE
8
BLACK
6
CONTINUOUS
10
93.2679
20
-123.402
11
93.2679
21
-123.878
0
LINE
8
BLACK
6
CONTINUOUS
10
93.2679
20
-123.878
11
93.1726
21
-124.259
0
LINE
8
BLACK
6
CONTINUOUS
10
93.1726
20
-124.259
11
93.0774
21
-124.45
0
LINE
8
BLACK
6
CONTINUOUS
10
93.0774
20
-124.45
11
92.9821
21
-124.545
0
LINE
8
BLACK
6
CONTINUOUS
10
92.9821
20
-124.545
11
92.7917
21
-124.64
0
LINE
8
BLACK
6
CONTINUOUS
10
92.7917
20
-124.64
11
92.6012
21
-124.64
0
LINE
8
BLACK
6
CONTINUOUS
10
92.6012
20
-124.64
11
92.4107
21
-124.545
0
LINE
8
BLACK
6
CONTINUOUS
10
92.4107
20
-124.545
11
92.3155
21
-124.45
0
LINE
8
BLACK
6
CONTINUOUS
10
92.3155
20
-124.45
11
92.2202
21
-124.259
0
LINE
8
BLACK
6
CONTINUOUS
10
92.2202
20
-124.259
11
92.125
21
-123.878
0
LINE
8
BLACK
6
CONTINUOUS
10
92.125
20
-123.878
11
92.125
21
-123.402
0
LINE
8
BLACK
6
CONTINUOUS
10
92.125
20
-123.402
11
92.2202
21
-123.021
0
LINE
8
BLACK
6
CONTINUOUS
10
92.2202
20
-123.021
11
92.3155
21
-122.831
0
LINE
8
BLACK
6
CONTINUOUS
10
92.3155
20
-122.831
11
92.4107
21
-122.735
0
LINE
8
BLACK
6
CONTINUOUS
10
92.4107
20
-122.735
11
92.6012
21
-122.64
0
LINE
8
BLACK
6
CONTINUOUS
10
94.0298
20
-122.64
11
94.0298
21
-123.021
0
LINE
8
BLACK
6
CONTINUOUS
10
94.7917
20
-122.64
11
94.7917
21
-123.021
0
LINE
8
BLACK
6
CONTINUOUS
10
97.7441
20
-125.402
11
97.6488
21
-125.307
0
LINE
8
BLACK
6
CONTINUOUS
10
97.6488
20
-125.307
11
97.4583
21
-125.021
0
LINE
8
BLACK
6
CONTINUOUS
10
97.4583
20
-125.021
11
97.3631
21
-124.831
0
LINE
8
BLACK
6
CONTINUOUS
10
97.3631
20
-124.831
11
97.2679
21
-124.545
0
LINE
8
BLACK
6
CONTINUOUS
10
97.2679
20
-124.545
11
97.1726
21
-124.069
0
LINE
8
BLACK
6
CONTINUOUS
10
97.1726
20
-124.069
11
97.1726
21
-123.688
0
LINE
8
BLACK
6
CONTINUOUS
10
97.1726
20
-123.688
11
97.2679
21
-123.212
0
LINE
8
BLACK
6
CONTINUOUS
10
97.2679
20
-123.212
11
97.3631
21
-122.926
0
LINE
8
BLACK
6
CONTINUOUS
10
97.3631
20
-122.926
11
97.4583
21
-122.735
0
LINE
8
BLACK
6
CONTINUOUS
10
97.4583
20
-122.735
11
97.6488
21
-122.45
0
LINE
8
BLACK
6
CONTINUOUS
10
97.6488
20
-122.45
11
97.7441
21
-122.355
0
LINE
8
BLACK
6
CONTINUOUS
10
99.3631
20
-123.307
11
99.3631
21
-124.64
0
LINE
8
BLACK
6
CONTINUOUS
10
98.8869
20
-122.545
11
98.4107
21
-123.974
0
LINE
8
BLACK
6
CONTINUOUS
10
98.4107
20
-123.974
11
99.6488
21
-123.974
0
LINE
8
BLACK
6
CONTINUOUS
10
101.935
20
-124.64
11
101.935
21
-122.64
0
LINE
8
BLACK
6
CONTINUOUS
10
102.792
20
-124.64
11
102.792
21
-123.593
0
LINE
8
BLACK
6
CONTINUOUS
10
102.792
20
-123.593
11
102.696
21
-123.402
0
LINE
8
BLACK
6
CONTINUOUS
10
102.696
20
-123.402
11
102.506
21
-123.307
0
LINE
8
BLACK
6
CONTINUOUS
10
102.506
20
-123.307
11
102.22
21
-123.307
0
LINE
8
BLACK
6
CONTINUOUS
10
102.22
20
-123.307
11
102.03
21
-123.402
0
LINE
8
BLACK
6
CONTINUOUS
10
102.03
20
-123.402
11
101.935
21
-123.497
0
LINE
8
BLACK
6
CONTINUOUS
10
104.03
20
-124.64
11
103.839
21
-124.545
0
LINE
8
BLACK
6
CONTINUOUS
10
103.839
20
-124.545
11
103.744
21
-124.45
0
LINE
8
BLACK
6
CONTINUOUS
10
103.744
20
-124.45
11
103.649
21
-124.259
0
LINE
8
BLACK
6
CONTINUOUS
10
103.649
20
-124.259
11
103.649
21
-123.688
0
LINE
8
BLACK
6
CONTINUOUS
10
103.649
20
-123.688
11
103.744
21
-123.497
0
LINE
8
BLACK
6
CONTINUOUS
10
103.744
20
-123.497
11
103.839
21
-123.402
0
LINE
8
BLACK
6
CONTINUOUS
10
103.839
20
-123.402
11
104.03
21
-123.307
0
LINE
8
BLACK
6
CONTINUOUS
10
104.03
20
-123.307
11
104.315
21
-123.307
0
LINE
8
BLACK
6
CONTINUOUS
10
104.315
20
-123.307
11
104.506
21
-123.402
0
LINE
8
BLACK
6
CONTINUOUS
10
104.506
20
-123.402
11
104.601
21
-123.497
0
LINE
8
BLACK
6
CONTINUOUS
10
104.601
20
-123.497
11
104.696
21
-123.688
0
LINE
8
BLACK
6
CONTINUOUS
10
104.696
20
-123.688
11
104.696
21
-124.259
0
LINE
8
BLACK
6
CONTINUOUS
10
104.696
20
-124.259
11
104.601
21
-124.45
0
LINE
8
BLACK
6
CONTINUOUS
10
104.601
20
-124.45
11
104.506
21
-124.545
0
LINE
8
BLACK
6
CONTINUOUS
10
104.506
20
-124.545
11
104.315
21
-124.64
0
LINE
8
BLACK
6
CONTINUOUS
10
104.315
20
-124.64
11
104.03
21
-124.64
0
LINE
8
BLACK
6
CONTINUOUS
10
105.839
20
-124.64
11
105.649
21
-124.545
0
LINE
8
BLACK
6
CONTINUOUS
10
105.649
20
-124.545
11
105.554
21
-124.355
0
LINE
8
BLACK
6
CONTINUOUS
10
105.554
20
-124.355
11
105.554
21
-122.64
0
LINE
8
BLACK
6
CONTINUOUS
10
107.363
20
-124.545
11
107.173
21
-124.64
0
LINE
8
BLACK
6
CONTINUOUS
10
107.173
20
-124.64
11
106.792
21
-124.64
0
LINE
8
BLACK
6
CONTINUOUS
10
106.792
20
-124.64
11
106.601
21
-124.545
0
LINE
8
BLACK
6
CONTINUOUS
10
106.601
20
-124.545
11
106.506
21
-124.355
0
LINE
8
BLACK
6
CONTINUOUS
10
106.506
20
-124.355
11
106.506
21
-123.593
0
LINE
8
BLACK
6
CONTINUOUS
10
106.506
20
-123.593
11
106.601
21
-123.402
0
LINE
8
BLACK
6
CONTINUOUS
10
106.601
20
-123.402
11
106.792
21
-123.307
0
LINE
8
BLACK
6
CONTINUOUS
10
106.792
20
-123.307
11
107.173
21
-123.307
0
LINE
8
BLACK
6
CONTINUOUS
10
107.173
20
-123.307
11
107.363
21
-123.402
0
LINE
8
BLACK
6
CONTINUOUS
10
107.363
20
-123.402
11
107.458
21
-123.593
0
LINE
8
BLACK
6
CONTINUOUS
10
107.458
20
-123.593
11
107.458
21
-123.783
0
LINE
8
BLACK
6
CONTINUOUS
10
107.458
20
-123.783
11
106.506
21
-123.974
0
LINE
8
BLACK
6
CONTINUOUS
10
108.22
20
-124.545
11
108.411
21
-124.64
0
LINE
8
BLACK
6
CONTINUOUS
10
108.411
20
-124.64
11
108.792
21
-124.64
0
LINE
8
BLACK
6
CONTINUOUS
10
108.792
20
-124.64
11
108.982
21
-124.545
0
LINE
8
BLACK
6
CONTINUOUS
10
108.982
20
-124.545
11
109.077
21
-124.355
0
LINE
8
BLACK
6
CONTINUOUS
10
109.077
20
-124.355
11
109.077
21
-124.259
0
LINE
8
BLACK
6
CONTINUOUS
10
109.077
20
-124.259
11
108.982
21
-124.069
0
LINE
8
BLACK
6
CONTINUOUS
10
108.982
20
-124.069
11
108.792
21
-123.974
0
LINE
8
BLACK
6
CONTINUOUS
10
108.792
20
-123.974
11
108.506
21
-123.974
0
LINE
8
BLACK
6
CONTINUOUS
10
108.506
20
-123.974
11
108.315
21
-123.878
0
LINE
8
BLACK
6
CONTINUOUS
10
108.315
20
-123.878
11
108.22
21
-123.688
0
LINE
8
BLACK
6
CONTINUOUS
10
108.22
20
-123.688
11
108.22
21
-123.593
0
LINE
8
BLACK
6
CONTINUOUS
10
108.22
20
-123.593
11
108.315
21
-123.402
0
LINE
8
BLACK
6
CONTINUOUS
10
108.315
20
-123.402
11
108.506
21
-123.307
0
LINE
8
BLACK
6
CONTINUOUS
10
108.506
20
-123.307
11
108.792
21
-123.307
0
LINE
8
BLACK
6
CONTINUOUS
10
108.792
20
-123.307
11
108.982
21
-123.402
0
LINE
8
BLACK
6
CONTINUOUS
10
109.744
20
-125.402
11
109.839
21
-125.307
0
LINE
8
BLACK
6
CONTINUOUS
10
109.839
20
-125.307
11
110.03
21
-125.021
0
LINE
8
BLACK
6
CONTINUOUS
10
110.03
20
-125.021
11
110.125
21
-124.831
0
LINE
8
BLACK
6
CONTINUOUS
10
110.125
20
-124.831
11
110.22
21
-124.545
0
LINE
8
BLACK
6
CONTINUOUS
10
110.22
20
-124.545
11
110.315
21
-124.069
0
LINE
8
BLACK
6
CONTINUOUS
10
110.315
20
-124.069
11
110.315
21
-123.688
0
LINE
8
BLACK
6
CONTINUOUS
10
110.315
20
-123.688
11
110.22
21
-123.212
0
LINE
8
BLACK
6
CONTINUOUS
10
110.22
20
-123.212
11
110.125
21
-122.926
0
LINE
8
BLACK
6
CONTINUOUS
10
110.125
20
-122.926
11
110.03
21
-122.735
0
LINE
8
BLACK
6
CONTINUOUS
10
110.03
20
-122.735
11
109.839
21
-122.45
0
LINE
8
BLACK
6
CONTINUOUS
10
109.839
20
-122.45
11
109.744
21
-122.355
0
LINE
8
BLACK
6
CONTINUOUS
10
113.363
20
-125.402
11
113.268
21
-125.307
0
LINE
8
BLACK
6
CONTINUOUS
10
113.268
20
-125.307
11
113.077
21
-125.021
0
LINE
8
BLACK
6
CONTINUOUS
10
113.077
20
-125.021
11
112.982
21
-124.831
0
LINE
8
BLACK
6
CONTINUOUS
10
112.982
20
-124.831
11
112.887
21
-124.545
0
LINE
8
BLACK
6
CONTINUOUS
10
112.887
20
-124.545
11
112.792
21
-124.069
0
LINE
8
BLACK
6
CONTINUOUS
10
112.792
20
-124.069
11
112.792
21
-123.688
0
LINE
8
BLACK
6
CONTINUOUS
10
112.792
20
-123.688
11
112.887
21
-123.212
0
LINE
8
BLACK
6
CONTINUOUS
10
112.887
20
-123.212
11
112.982
21
-122.926
0
LINE
8
BLACK
6
CONTINUOUS
10
112.982
20
-122.926
11
113.077
21
-122.735
0
LINE
8
BLACK
6
CONTINUOUS
10
113.077
20
-122.735
11
113.268
21
-122.45
0
LINE
8
BLACK
6
CONTINUOUS
10
113.268
20
-122.45
11
113.363
21
-122.355
0
LINE
8
BLACK
6
CONTINUOUS
10
114.125
20
-123.307
11
114.125
21
-124.64
0
LINE
8
BLACK
6
CONTINUOUS
10
114.125
20
-123.497
11
114.22
21
-123.402
0
LINE
8
BLACK
6
CONTINUOUS
10
114.22
20
-123.402
11
114.411
21
-123.307
0
LINE
8
BLACK
6
CONTINUOUS
10
114.411
20
-123.307
11
114.696
21
-123.307
0
LINE
8
BLACK
6
CONTINUOUS
10
114.696
20
-123.307
11
114.887
21
-123.402
0
LINE
8
BLACK
6
CONTINUOUS
10
114.887
20
-123.402
11
114.982
21
-123.593
0
LINE
8
BLACK
6
CONTINUOUS
10
114.982
20
-123.593
11
114.982
21
-124.64
0
LINE
8
BLACK
6
CONTINUOUS
10
116.22
20
-124.64
11
116.03
21
-124.545
0
LINE
8
BLACK
6
CONTINUOUS
10
116.03
20
-124.545
11
115.935
21
-124.45
0
LINE
8
BLACK
6
CONTINUOUS
10
115.935
20
-124.45
11
115.839
21
-124.259
0
LINE
8
BLACK
6
CONTINUOUS
10
115.839
20
-124.259
11
115.839
21
-123.688
0
LINE
8
BLACK
6
CONTINUOUS
10
115.839
20
-123.688
11
115.935
21
-123.497
0
LINE
8
BLACK
6
CONTINUOUS
10
115.935
20
-123.497
11
116.03
21
-123.402
0
LINE
8
BLACK
6
CONTINUOUS
10
116.03
20
-123.402
11
116.22
21
-123.307
0
LINE
8
BLACK
6
CONTINUOUS
10
116.22
20
-123.307
11
116.506
21
-123.307
0
LINE
8
BLACK
6
CONTINUOUS
10
116.506
20
-123.307
11
116.696
21
-123.402
0
LINE
8
BLACK
6
CONTINUOUS
10
116.696
20
-123.402
11
116.792
21
-123.497
0
LINE
8
BLACK
6
CONTINUOUS
10
116.792
20
-123.497
11
116.887
21
-123.688
0
LINE
8
BLACK
6
CONTINUOUS
10
116.887
20
-123.688
11
116.887
21
-124.259
0
LINE
8
BLACK
6
CONTINUOUS
10
116.887
20
-124.259
11
116.792
21
-124.45
0
LINE
8
BLACK
6
CONTINUOUS
10
116.792
20
-124.45
11
116.696
21
-124.545
0
LINE
8
BLACK
6
CONTINUOUS
10
116.696
20
-124.545
11
116.506
21
-124.64
0
LINE
8
BLACK
6
CONTINUOUS
10
116.506
20
-124.64
11
116.22
21
-124.64
0
LINE
8
BLACK
6
CONTINUOUS
10
117.458
20
-123.307
11
118.22
21
-123.307
0
LINE
8
BLACK
6
CONTINUOUS
10
117.744
20
-122.64
11
117.744
21
-124.355
0
LINE
8
BLACK
6
CONTINUOUS
10
117.744
20
-124.355
11
117.839
21
-124.545
0
LINE
8
BLACK
6
CONTINUOUS
10
117.839
20
-124.545
11
118.03
21
-124.64
0
LINE
8
BLACK
6
CONTINUOUS
10
118.03
20
-124.64
11
118.22
21
-124.64
0
LINE
8
BLACK
6
CONTINUOUS
10
120.411
20
-123.307
11
120.411
21
-125.307
0
LINE
8
BLACK
6
CONTINUOUS
10
120.411
20
-123.402
11
120.601
21
-123.307
0
LINE
8
BLACK
6
CONTINUOUS
10
120.601
20
-123.307
11
120.982
21
-123.307
0
LINE
8
BLACK
6
CONTINUOUS
10
120.982
20
-123.307
11
121.173
21
-123.402
0
LINE
8
BLACK
6
CONTINUOUS
10
121.173
20
-123.402
11
121.268
21
-123.497
0
LINE
8
BLACK
6
CONTINUOUS
10
121.268
20
-123.497
11
121.363
21
-123.688
0
LINE
8
BLACK
6
CONTINUOUS
10
121.363
20
-123.688
11
121.363
21
-124.259
0
LINE
8
BLACK
6
CONTINUOUS
10
121.363
20
-124.259
11
121.268
21
-124.45
0
LINE
8
BLACK
6
CONTINUOUS
10
121.268
20
-124.45
11
121.173
21
-124.545
0
LINE
8
BLACK
6
CONTINUOUS
10
121.173
20
-124.545
11
120.982
21
-124.64
0
LINE
8
BLACK
6
CONTINUOUS
10
120.982
20
-124.64
11
120.601
21
-124.64
0
LINE
8
BLACK
6
CONTINUOUS
10
120.601
20
-124.64
11
120.411
21
-124.545
0
LINE
8
BLACK
6
CONTINUOUS
10
122.506
20
-124.64
11
122.315
21
-124.545
0
LINE
8
BLACK
6
CONTINUOUS
10
122.315
20
-124.545
11
122.22
21
-124.355
0
LINE
8
BLACK
6
CONTINUOUS
10
122.22
20
-124.355
11
122.22
21
-122.64
0
LINE
8
BLACK
6
CONTINUOUS
10
124.125
20
-124.64
11
124.125
21
-123.593
0
LINE
8
BLACK
6
CONTINUOUS
10
124.125
20
-123.593
11
124.03
21
-123.402
0
LINE
8
BLACK
6
CONTINUOUS
10
124.03
20
-123.402
11
123.839
21
-123.307
0
LINE
8
BLACK
6
CONTINUOUS
10
123.839
20
-123.307
11
123.458
21
-123.307
0
LINE
8
BLACK
6
CONTINUOUS
10
123.458
20
-123.307
11
123.268
21
-123.402
0
LINE
8
BLACK
6
CONTINUOUS
10
124.125
20
-124.545
11
123.935
21
-124.64
0
LINE
8
BLACK
6
CONTINUOUS
10
123.935
20
-124.64
11
123.458
21
-124.64
0
LINE
8
BLACK
6
CONTINUOUS
10
123.458
20
-124.64
11
123.268
21
-124.545
0
LINE
8
BLACK
6
CONTINUOUS
10
123.268
20
-124.545
11
123.173
21
-124.355
0
LINE
8
BLACK
6
CONTINUOUS
10
123.173
20
-124.355
11
123.173
21
-124.164
0
LINE
8
BLACK
6
CONTINUOUS
10
123.173
20
-124.164
11
123.268
21
-123.974
0
LINE
8
BLACK
6
CONTINUOUS
10
123.268
20
-123.974
11
123.458
21
-123.878
0
LINE
8
BLACK
6
CONTINUOUS
10
123.458
20
-123.878
11
123.935
21
-123.878
0
LINE
8
BLACK
6
CONTINUOUS
10
123.935
20
-123.878
11
124.125
21
-123.783
0
LINE
8
BLACK
6
CONTINUOUS
10
124.792
20
-123.307
11
125.554
21
-123.307
0
LINE
8
BLACK
6
CONTINUOUS
10
125.077
20
-122.64
11
125.077
21
-124.355
0
LINE
8
BLACK
6
CONTINUOUS
10
125.077
20
-124.355
11
125.173
21
-124.545
0
LINE
8
BLACK
6
CONTINUOUS
10
125.173
20
-124.545
11
125.363
21
-124.64
0
LINE
8
BLACK
6
CONTINUOUS
10
125.363
20
-124.64
11
125.554
21
-124.64
0
LINE
8
BLACK
6
CONTINUOUS
10
126.982
20
-124.545
11
126.792
21
-124.64
0
LINE
8
BLACK
6
CONTINUOUS
10
126.792
20
-124.64
11
126.411
21
-124.64
0
LINE
8
BLACK
6
CONTINUOUS
10
126.411
20
-124.64
11
126.22
21
-124.545
0
LINE
8
BLACK
6
CONTINUOUS
10
126.22
20
-124.545
11
126.125
21
-124.355
0
LINE
8
BLACK
6
CONTINUOUS
10
126.125
20
-124.355
11
126.125
21
-123.593
0
LINE
8
BLACK
6
CONTINUOUS
10
126.125
20
-123.593
11
126.22
21
-123.402
0
LINE
8
BLACK
6
CONTINUOUS
10
126.22
20
-123.402
11
126.411
21
-123.307
0
LINE
8
BLACK
6
CONTINUOUS
10
126.411
20
-123.307
11
126.792
21
-123.307
0
LINE
8
BLACK
6
CONTINUOUS
10
126.792
20
-123.307
11
126.982
21
-123.402
0
LINE
8
BLACK
6
CONTINUOUS
10
126.982
20
-123.402
11
127.077
21
-123.593
0
LINE
8
BLACK
6
CONTINUOUS
10
127.077
20
-123.593
11
127.077
21
-123.783
0
LINE
8
BLACK
6
CONTINUOUS
10
127.077
20
-123.783
11
126.125
21
-123.974
0
LINE
8
BLACK
6
CONTINUOUS
10
128.792
20
-124.64
11
128.792
21
-122.64
0
LINE
8
BLACK
6
CONTINUOUS
10
128.792
20
-124.545
11
128.601
21
-124.64
0
LINE
8
BLACK
6
CONTINUOUS
10
128.601
20
-124.64
11
128.22
21
-124.64
0
LINE
8
BLACK
6
CONTINUOUS
10
128.22
20
-124.64
11
128.03
21
-124.545
0
LINE
8
BLACK
6
CONTINUOUS
10
128.03
20
-124.545
11
127.935
21
-124.45
0
LINE
8
BLACK
6
CONTINUOUS
10
127.935
20
-124.45
11
127.839
21
-124.259
0
LINE
8
BLACK
6
CONTINUOUS
10
127.839
20
-124.259
11
127.839
21
-123.688
0
LINE
8
BLACK
6
CONTINUOUS
10
127.839
20
-123.688
11
127.935
21
-123.497
0
LINE
8
BLACK
6
CONTINUOUS
10
127.935
20
-123.497
11
128.03
21
-123.402
0
LINE
8
BLACK
6
CONTINUOUS
10
128.03
20
-123.402
11
128.22
21
-123.307
0
LINE
8
BLACK
6
CONTINUOUS
10
128.22
20
-123.307
11
128.601
21
-123.307
0
LINE
8
BLACK
6
CONTINUOUS
10
128.601
20
-123.307
11
128.792
21
-123.402
0
LINE
8
BLACK
6
CONTINUOUS
10
129.554
20
-125.402
11
129.649
21
-125.307
0
LINE
8
BLACK
6
CONTINUOUS
10
129.649
20
-125.307
11
129.839
21
-125.021
0
LINE
8
BLACK
6
CONTINUOUS
10
129.839
20
-125.021
11
129.935
21
-124.831
0
LINE
8
BLACK
6
CONTINUOUS
10
129.935
20
-124.831
11
130.03
21
-124.545
0
LINE
8
BLACK
6
CONTINUOUS
10
130.03
20
-124.545
11
130.125
21
-124.069
0
LINE
8
BLACK
6
CONTINUOUS
10
130.125
20
-124.069
11
130.125
21
-123.688
0
LINE
8
BLACK
6
CONTINUOUS
10
130.125
20
-123.688
11
130.03
21
-123.212
0
LINE
8
BLACK
6
CONTINUOUS
10
130.03
20
-123.212
11
129.935
21
-122.926
0
LINE
8
BLACK
6
CONTINUOUS
10
129.935
20
-122.926
11
129.839
21
-122.735
0
LINE
8
BLACK
6
CONTINUOUS
10
129.839
20
-122.735
11
129.649
21
-122.45
0
LINE
8
BLACK
6
CONTINUOUS
10
129.649
20
-122.45
11
129.554
21
-122.355
  0
ENDSEC
  0
EOF
