G04 #@! TF.GenerationSoftware,KiCad,Pcbnew,6.0.0-rc2*
G04 #@! TF.CreationDate,2022-06-17T00:24:22-07:00*
G04 #@! TF.ProjectId,RP2040_motor,52503230-3430-45f6-9d6f-746f722e6b69,REV1*
G04 #@! TF.SameCoordinates,Original*
G04 #@! TF.FileFunction,Soldermask,Bot*
G04 #@! TF.FilePolarity,Negative*
%FSLAX46Y46*%
G04 Gerber Fmt 4.6, Leading zero omitted, Abs format (unit mm)*
G04 Created by KiCad (PCBNEW 6.0.0-rc2) date 2022-06-17 00:24:22*
%MOMM*%
%LPD*%
G01*
G04 APERTURE LIST*
G04 Aperture macros list*
%AMRoundRect*
0 Rectangle with rounded corners*
0 $1 Rounding radius*
0 $2 $3 $4 $5 $6 $7 $8 $9 X,Y pos of 4 corners*
0 Add a 4 corners polygon primitive as box body*
4,1,4,$2,$3,$4,$5,$6,$7,$8,$9,$2,$3,0*
0 Add four circle primitives for the rounded corners*
1,1,$1+$1,$2,$3*
1,1,$1+$1,$4,$5*
1,1,$1+$1,$6,$7*
1,1,$1+$1,$8,$9*
0 Add four rect primitives between the rounded corners*
20,1,$1+$1,$2,$3,$4,$5,0*
20,1,$1+$1,$4,$5,$6,$7,0*
20,1,$1+$1,$6,$7,$8,$9,0*
20,1,$1+$1,$8,$9,$2,$3,0*%
G04 Aperture macros list end*
%ADD10RoundRect,0.301000X0.845000X-0.620000X0.845000X0.620000X-0.845000X0.620000X-0.845000X-0.620000X0*%
%ADD11O,2.292000X1.842000*%
%ADD12C,2.102000*%
%ADD13C,4.102000*%
%ADD14C,6.102000*%
%ADD15RoundRect,0.301000X0.620000X0.845000X-0.620000X0.845000X-0.620000X-0.845000X0.620000X-0.845000X0*%
%ADD16O,1.842000X2.292000*%
%ADD17C,0.752000*%
%ADD18O,1.102000X2.202000*%
%ADD19O,1.102000X1.702000*%
G04 APERTURE END LIST*
D10*
X78850000Y-88700000D03*
D11*
X78850000Y-86160000D03*
X78850000Y-83620000D03*
X78850000Y-81080000D03*
D12*
X102990000Y-82000000D03*
X96490000Y-82000000D03*
X102990000Y-86500000D03*
X96490000Y-86500000D03*
D13*
X157919000Y-87320000D03*
X157719000Y-71880000D03*
D10*
X78850000Y-105100000D03*
D11*
X78850000Y-102560000D03*
X78850000Y-100020000D03*
X78850000Y-97480000D03*
X78850000Y-94940000D03*
X78850000Y-92400000D03*
D14*
X120840000Y-72400000D03*
D13*
X157819000Y-101910000D03*
D10*
X78850000Y-77350000D03*
D11*
X78850000Y-74810000D03*
X78850000Y-72270000D03*
X78850000Y-69730000D03*
D15*
X89290000Y-85900000D03*
D16*
X86750000Y-85900000D03*
X84210000Y-85900000D03*
D10*
X78850000Y-119050000D03*
D11*
X78850000Y-116510000D03*
X78850000Y-113970000D03*
X78850000Y-111430000D03*
X78850000Y-108890000D03*
D13*
X157919000Y-118000000D03*
X157819000Y-79770000D03*
X157719000Y-110050000D03*
D17*
X94280000Y-116045000D03*
X88500000Y-116045000D03*
D18*
X95710000Y-115545000D03*
X87070000Y-115545000D03*
D19*
X87070000Y-119725000D03*
X95710000Y-119725000D03*
D14*
X128090000Y-72400000D03*
G36*
X145058121Y-116168907D02*
G01*
X145094085Y-116218407D01*
X145098924Y-116250064D01*
X145051053Y-120702064D01*
X145031521Y-120760049D01*
X144981638Y-120795478D01*
X144952059Y-120800000D01*
X138649000Y-120800000D01*
X138590809Y-120781093D01*
X138554845Y-120731593D01*
X138550000Y-120701000D01*
X138550000Y-116249000D01*
X138568907Y-116190809D01*
X138618407Y-116154845D01*
X138649000Y-116150000D01*
X144999930Y-116150000D01*
X145058121Y-116168907D01*
G37*
G36*
X145058121Y-107618907D02*
G01*
X145094085Y-107668407D01*
X145098924Y-107700064D01*
X145051053Y-112152064D01*
X145031521Y-112210049D01*
X144981638Y-112245478D01*
X144952059Y-112250000D01*
X138649000Y-112250000D01*
X138590809Y-112231093D01*
X138554845Y-112181593D01*
X138550000Y-112151000D01*
X138550000Y-107699000D01*
X138568907Y-107640809D01*
X138618407Y-107604845D01*
X138649000Y-107600000D01*
X144999930Y-107600000D01*
X145058121Y-107618907D01*
G37*
G36*
X144958121Y-99218907D02*
G01*
X144994085Y-99268407D01*
X144998924Y-99300064D01*
X144951053Y-103752064D01*
X144931521Y-103810049D01*
X144881638Y-103845478D01*
X144852059Y-103850000D01*
X138549000Y-103850000D01*
X138490809Y-103831093D01*
X138454845Y-103781593D01*
X138450000Y-103751000D01*
X138450000Y-99299000D01*
X138468907Y-99240809D01*
X138518407Y-99204845D01*
X138549000Y-99200000D01*
X144899930Y-99200000D01*
X144958121Y-99218907D01*
G37*
G36*
X144958121Y-85068907D02*
G01*
X144994085Y-85118407D01*
X144998924Y-85150064D01*
X144951053Y-89602064D01*
X144931521Y-89660049D01*
X144881638Y-89695478D01*
X144852059Y-89700000D01*
X138549000Y-89700000D01*
X138490809Y-89681093D01*
X138454845Y-89631593D01*
X138450000Y-89601000D01*
X138450000Y-85149000D01*
X138468907Y-85090809D01*
X138518407Y-85054845D01*
X138549000Y-85050000D01*
X144899930Y-85050000D01*
X144958121Y-85068907D01*
G37*
G36*
X145058121Y-76868907D02*
G01*
X145094085Y-76918407D01*
X145098924Y-76950064D01*
X145051053Y-81402064D01*
X145031521Y-81460049D01*
X144981638Y-81495478D01*
X144952059Y-81500000D01*
X138649000Y-81500000D01*
X138590809Y-81481093D01*
X138554845Y-81431593D01*
X138550000Y-81401000D01*
X138550000Y-76949000D01*
X138568907Y-76890809D01*
X138618407Y-76854845D01*
X138649000Y-76850000D01*
X144999930Y-76850000D01*
X145058121Y-76868907D01*
G37*
G36*
X145008121Y-68568907D02*
G01*
X145044085Y-68618407D01*
X145048924Y-68650064D01*
X145001053Y-73102064D01*
X144981521Y-73160049D01*
X144931638Y-73195478D01*
X144902059Y-73200000D01*
X138599000Y-73200000D01*
X138540809Y-73181093D01*
X138504845Y-73131593D01*
X138500000Y-73101000D01*
X138500000Y-68649000D01*
X138518907Y-68590809D01*
X138568407Y-68554845D01*
X138599000Y-68550000D01*
X144949930Y-68550000D01*
X145008121Y-68568907D01*
G37*
G36*
X136209308Y-68568907D02*
G01*
X136245272Y-68618407D01*
X136250117Y-68648883D01*
X136254916Y-72714354D01*
X136236077Y-72772567D01*
X136186620Y-72808589D01*
X136156693Y-72813468D01*
X132597034Y-72841398D01*
X132538696Y-72822948D01*
X132502345Y-72773731D01*
X132497257Y-72742336D01*
X132499935Y-68648935D01*
X132518880Y-68590757D01*
X132568404Y-68554825D01*
X132598935Y-68550000D01*
X136151117Y-68550000D01*
X136209308Y-68568907D01*
G37*
G36*
X136256418Y-76920917D02*
G01*
X136292382Y-76970417D01*
X136297227Y-77000893D01*
X136302026Y-81066364D01*
X136283187Y-81124577D01*
X136233730Y-81160599D01*
X136203803Y-81165478D01*
X132644144Y-81193408D01*
X132585806Y-81174958D01*
X132549455Y-81125741D01*
X132544367Y-81094346D01*
X132547045Y-77000945D01*
X132565990Y-76942767D01*
X132615514Y-76906835D01*
X132646045Y-76902010D01*
X136198227Y-76902010D01*
X136256418Y-76920917D01*
G37*
G36*
X136156418Y-85370917D02*
G01*
X136192382Y-85420417D01*
X136197227Y-85450893D01*
X136202026Y-89516364D01*
X136183187Y-89574577D01*
X136133730Y-89610599D01*
X136103803Y-89615478D01*
X132544144Y-89643408D01*
X132485806Y-89624958D01*
X132449455Y-89575741D01*
X132444367Y-89544346D01*
X132447045Y-85450945D01*
X132465990Y-85392767D01*
X132515514Y-85356835D01*
X132546045Y-85352010D01*
X136098227Y-85352010D01*
X136156418Y-85370917D01*
G37*
G36*
X136306418Y-99270917D02*
G01*
X136342382Y-99320417D01*
X136347227Y-99350893D01*
X136352026Y-103416364D01*
X136333187Y-103474577D01*
X136283730Y-103510599D01*
X136253803Y-103515478D01*
X132694144Y-103543408D01*
X132635806Y-103524958D01*
X132599455Y-103475741D01*
X132594367Y-103444346D01*
X132597045Y-99350945D01*
X132615990Y-99292767D01*
X132665514Y-99256835D01*
X132696045Y-99252010D01*
X136248227Y-99252010D01*
X136306418Y-99270917D01*
G37*
G36*
X136206418Y-107720917D02*
G01*
X136242382Y-107770417D01*
X136247227Y-107800893D01*
X136252026Y-111866364D01*
X136233187Y-111924577D01*
X136183730Y-111960599D01*
X136153803Y-111965478D01*
X132594144Y-111993408D01*
X132535806Y-111974958D01*
X132499455Y-111925741D01*
X132494367Y-111894346D01*
X132497045Y-107800945D01*
X132515990Y-107742767D01*
X132565514Y-107706835D01*
X132596045Y-107702010D01*
X136148227Y-107702010D01*
X136206418Y-107720917D01*
G37*
G36*
X136206418Y-116220917D02*
G01*
X136242382Y-116270417D01*
X136247227Y-116300893D01*
X136252026Y-120366364D01*
X136233187Y-120424577D01*
X136183730Y-120460599D01*
X136153803Y-120465478D01*
X132594144Y-120493408D01*
X132535806Y-120474958D01*
X132499455Y-120425741D01*
X132494367Y-120394346D01*
X132497045Y-116300945D01*
X132515990Y-116242767D01*
X132565514Y-116206835D01*
X132596045Y-116202010D01*
X136148227Y-116202010D01*
X136206418Y-116220917D01*
G37*
G36*
X136245002Y-120463776D02*
G01*
X136245002Y-120465776D01*
X136243286Y-120466776D01*
X132503266Y-120496121D01*
X132503250Y-120494121D01*
X132503250Y-120493996D01*
X132503235Y-120492121D01*
X136243253Y-120462776D01*
X136243270Y-120462776D01*
X136245002Y-120463776D01*
G37*
G36*
X136245002Y-111963776D02*
G01*
X136245002Y-111965776D01*
X136243286Y-111966776D01*
X132503266Y-111996121D01*
X132503250Y-111994121D01*
X132503250Y-111993996D01*
X132503235Y-111992121D01*
X136243253Y-111962776D01*
X136243270Y-111962776D01*
X136245002Y-111963776D01*
G37*
G36*
X136345002Y-103513776D02*
G01*
X136345002Y-103515776D01*
X136343286Y-103516776D01*
X132603266Y-103546121D01*
X132603250Y-103544121D01*
X132603250Y-103543996D01*
X132603235Y-103542121D01*
X136343253Y-103512776D01*
X136343270Y-103512776D01*
X136345002Y-103513776D01*
G37*
G36*
X136195002Y-89613776D02*
G01*
X136195002Y-89615776D01*
X136193286Y-89616776D01*
X132453266Y-89646121D01*
X132453250Y-89644121D01*
X132453250Y-89643996D01*
X132453235Y-89642121D01*
X136193253Y-89612776D01*
X136193270Y-89612776D01*
X136195002Y-89613776D01*
G37*
G36*
X136295002Y-81163776D02*
G01*
X136295002Y-81165776D01*
X136293286Y-81166776D01*
X132553266Y-81196121D01*
X132553250Y-81194121D01*
X132553250Y-81193996D01*
X132553235Y-81192121D01*
X136293253Y-81162776D01*
X136293270Y-81162776D01*
X136295002Y-81163776D01*
G37*
G36*
X136247892Y-72811766D02*
G01*
X136247892Y-72813766D01*
X136246176Y-72814766D01*
X132506156Y-72844111D01*
X132506140Y-72842111D01*
X132506140Y-72841986D01*
X132506125Y-72840111D01*
X136246143Y-72810766D01*
X136246160Y-72810766D01*
X136247892Y-72811766D01*
G37*
M02*
