G04 #@! TF.GenerationSoftware,KiCad,Pcbnew,6.0.0-rc2*
G04 #@! TF.CreationDate,2022-06-24T19:42:49-07:00*
G04 #@! TF.ProjectId,RP2040_motor,52503230-3430-45f6-9d6f-746f722e6b69,REV1*
G04 #@! TF.SameCoordinates,Original*
G04 #@! TF.FileFunction,Legend,Top*
G04 #@! TF.FilePolarity,Positive*
%FSLAX46Y46*%
G04 Gerber Fmt 4.6, Leading zero omitted, Abs format (unit mm)*
G04 Created by KiCad (PCBNEW 6.0.0-rc2) date 2022-06-24 19:42:49*
%MOMM*%
%LPD*%
G01*
G04 APERTURE LIST*
G04 Aperture macros list*
%AMRoundRect*
0 Rectangle with rounded corners*
0 $1 Rounding radius*
0 $2 $3 $4 $5 $6 $7 $8 $9 X,Y pos of 4 corners*
0 Add a 4 corners polygon primitive as box body*
4,1,4,$2,$3,$4,$5,$6,$7,$8,$9,$2,$3,0*
0 Add four circle primitives for the rounded corners*
1,1,$1+$1,$2,$3*
1,1,$1+$1,$4,$5*
1,1,$1+$1,$6,$7*
1,1,$1+$1,$8,$9*
0 Add four rect primitives between the rounded corners*
20,1,$1+$1,$2,$3,$4,$5,0*
20,1,$1+$1,$4,$5,$6,$7,0*
20,1,$1+$1,$6,$7,$8,$9,0*
20,1,$1+$1,$8,$9,$2,$3,0*%
%AMFreePoly0*
4,1,37,0.012349,0.795885,0.074216,0.795507,0.088518,0.793370,0.224339,0.752751,0.237465,0.746685,0.356427,0.669578,0.367324,0.660073,0.459862,0.552676,0.467652,0.540494,0.526329,0.411442,0.530388,0.397563,0.550485,0.257230,0.551000,0.250000,0.551000,-0.250000,0.550996,-0.250622,0.550847,-0.262838,0.550144,-0.270677,0.526624,-0.410478,0.522228,-0.424254,0.460416,-0.551833,
0.452330,-0.563821,0.357195,-0.668925,0.346069,-0.678161,0.225259,-0.752338,0.211989,-0.758081,0.075216,-0.795370,0.060866,-0.797157,0.011464,-0.796251,0.000000,-0.801000,-0.550000,-0.801000,-0.586062,-0.786062,-0.601000,-0.750000,-0.601000,0.750000,-0.586062,0.786062,-0.550000,0.801000,0.000000,0.801000,0.012349,0.795885,0.012349,0.795885,$1*%
%AMFreePoly1*
4,1,37,0.586062,0.786062,0.601000,0.750000,0.601000,-0.750000,0.586062,-0.786062,0.550000,-0.801000,0.000000,-0.801000,-0.012525,-0.795812,-0.080875,-0.794559,-0.095149,-0.792248,-0.230464,-0.749973,-0.243516,-0.743747,-0.361526,-0.665192,-0.372306,-0.655554,-0.463526,-0.547035,-0.471167,-0.534759,-0.528262,-0.405000,-0.532150,-0.391073,-0.549733,-0.256613,-0.548336,-0.256430,-0.551000,-0.250000,
-0.551000,0.250000,-0.550512,0.251179,-0.550356,0.263956,-0.528545,0.404033,-0.524317,0.417860,-0.464069,0.546185,-0.456130,0.558271,-0.362286,0.664529,-0.351274,0.673901,-0.231379,0.749549,-0.218180,0.755454,-0.081873,0.794411,-0.067546,0.796373,-0.011990,0.796033,0.000000,0.801000,0.550000,0.801000,0.586062,0.786062,0.586062,0.786062,$1*%
G04 Aperture macros list end*
%ADD10C,0.200000*%
%ADD11C,0.300000*%
%ADD12C,0.150000*%
%ADD13C,0.120000*%
%ADD14RoundRect,0.201000X-0.150000X0.512500X-0.150000X-0.512500X0.150000X-0.512500X0.150000X0.512500X0*%
%ADD15RoundRect,0.201000X-0.512500X-0.150000X0.512500X-0.150000X0.512500X0.150000X-0.512500X0.150000X0*%
%ADD16RoundRect,0.201000X0.150000X-0.512500X0.150000X0.512500X-0.150000X0.512500X-0.150000X-0.512500X0*%
%ADD17C,4.002000*%
%ADD18C,4.102000*%
%ADD19RoundRect,0.251000X-0.275000X0.200000X-0.275000X-0.200000X0.275000X-0.200000X0.275000X0.200000X0*%
%ADD20RoundRect,0.051000X-0.500000X-0.750000X0.500000X-0.750000X0.500000X0.750000X-0.500000X0.750000X0*%
%ADD21FreePoly0,0.000000*%
%ADD22FreePoly1,0.000000*%
%ADD23O,2.292000X1.842000*%
%ADD24RoundRect,0.301000X0.845000X-0.620000X0.845000X0.620000X-0.845000X0.620000X-0.845000X-0.620000X0*%
%ADD25RoundRect,0.251000X-0.200000X-0.275000X0.200000X-0.275000X0.200000X0.275000X-0.200000X0.275000X0*%
%ADD26RoundRect,0.276000X-0.225000X-0.250000X0.225000X-0.250000X0.225000X0.250000X-0.225000X0.250000X0*%
%ADD27RoundRect,0.276000X0.225000X0.250000X-0.225000X0.250000X-0.225000X-0.250000X0.225000X-0.250000X0*%
%ADD28RoundRect,0.251000X0.275000X-0.200000X0.275000X0.200000X-0.275000X0.200000X-0.275000X-0.200000X0*%
%ADD29RoundRect,0.276000X-0.250000X0.225000X-0.250000X-0.225000X0.250000X-0.225000X0.250000X0.225000X0*%
%ADD30RoundRect,0.276000X0.250000X-0.225000X0.250000X0.225000X-0.250000X0.225000X-0.250000X-0.225000X0*%
%ADD31RoundRect,0.294750X0.243750X0.456250X-0.243750X0.456250X-0.243750X-0.456250X0.243750X-0.456250X0*%
%ADD32RoundRect,0.198500X0.147500X0.172500X-0.147500X0.172500X-0.147500X-0.172500X0.147500X-0.172500X0*%
%ADD33RoundRect,0.051000X0.750000X-1.000000X0.750000X1.000000X-0.750000X1.000000X-0.750000X-1.000000X0*%
%ADD34RoundRect,0.051000X1.900000X-1.000000X1.900000X1.000000X-1.900000X1.000000X-1.900000X-1.000000X0*%
%ADD35RoundRect,0.201000X-0.150000X0.650000X-0.150000X-0.650000X0.150000X-0.650000X0.150000X0.650000X0*%
%ADD36RoundRect,0.294750X-0.456250X0.243750X-0.456250X-0.243750X0.456250X-0.243750X0.456250X0.243750X0*%
%ADD37RoundRect,0.101000X0.387500X0.050000X-0.387500X0.050000X-0.387500X-0.050000X0.387500X-0.050000X0*%
%ADD38RoundRect,0.101000X0.050000X0.387500X-0.050000X0.387500X-0.050000X-0.387500X0.050000X-0.387500X0*%
%ADD39RoundRect,0.195000X1.456000X1.456000X-1.456000X1.456000X-1.456000X-1.456000X1.456000X-1.456000X0*%
%ADD40RoundRect,0.301000X-0.250000X-0.475000X0.250000X-0.475000X0.250000X0.475000X-0.250000X0.475000X0*%
%ADD41RoundRect,0.201000X-0.150000X0.825000X-0.150000X-0.825000X0.150000X-0.825000X0.150000X0.825000X0*%
%ADD42RoundRect,0.676000X-1.075000X0.625000X-1.075000X-0.625000X1.075000X-0.625000X1.075000X0.625000X0*%
%ADD43RoundRect,0.051000X0.600000X-0.450000X0.600000X0.450000X-0.600000X0.450000X-0.600000X-0.450000X0*%
%ADD44RoundRect,0.301000X1.500000X1.000000X-1.500000X1.000000X-1.500000X-1.000000X1.500000X-1.000000X0*%
%ADD45RoundRect,0.301000X-1.500000X-0.550000X1.500000X-0.550000X1.500000X0.550000X-1.500000X0.550000X0*%
%ADD46RoundRect,0.051000X-0.300000X-0.350000X0.300000X-0.350000X0.300000X0.350000X-0.300000X0.350000X0*%
%ADD47C,2.102000*%
%ADD48RoundRect,0.301000X0.362500X1.425000X-0.362500X1.425000X-0.362500X-1.425000X0.362500X-1.425000X0*%
%ADD49RoundRect,0.251000X0.200000X0.275000X-0.200000X0.275000X-0.200000X-0.275000X0.200000X-0.275000X0*%
%ADD50RoundRect,0.051000X0.510000X0.305000X-0.510000X0.305000X-0.510000X-0.305000X0.510000X-0.305000X0*%
%ADD51RoundRect,0.051000X1.905000X1.955000X-1.905000X1.955000X-1.905000X-1.955000X1.905000X-1.955000X0*%
%ADD52RoundRect,0.051000X0.635000X0.305000X-0.635000X0.305000X-0.635000X-0.305000X0.635000X-0.305000X0*%
%ADD53RoundRect,0.051000X-0.450000X-0.600000X0.450000X-0.600000X0.450000X0.600000X-0.450000X0.600000X0*%
%ADD54RoundRect,0.051000X-1.250000X-0.900000X1.250000X-0.900000X1.250000X0.900000X-1.250000X0.900000X0*%
%ADD55RoundRect,0.201000X0.825000X0.150000X-0.825000X0.150000X-0.825000X-0.150000X0.825000X-0.150000X0*%
%ADD56C,6.102000*%
%ADD57RoundRect,0.301000X-0.475000X0.250000X-0.475000X-0.250000X0.475000X-0.250000X0.475000X0.250000X0*%
%ADD58RoundRect,0.051000X-0.225000X0.300000X-0.225000X-0.300000X0.225000X-0.300000X0.225000X0.300000X0*%
%ADD59RoundRect,0.051000X2.750000X-1.075000X2.750000X1.075000X-2.750000X1.075000X-2.750000X-1.075000X0*%
%ADD60RoundRect,0.301000X-0.620000X-0.845000X0.620000X-0.845000X0.620000X0.845000X-0.620000X0.845000X0*%
%ADD61O,1.842000X2.292000*%
%ADD62RoundRect,0.051000X-0.600000X0.450000X-0.600000X-0.450000X0.600000X-0.450000X0.600000X0.450000X0*%
%ADD63RoundRect,0.051000X0.375000X-0.450000X0.375000X0.450000X-0.375000X0.450000X-0.375000X-0.450000X0*%
%ADD64RoundRect,0.301000X0.250000X0.475000X-0.250000X0.475000X-0.250000X-0.475000X0.250000X-0.475000X0*%
%ADD65RoundRect,0.051000X0.450000X0.600000X-0.450000X0.600000X-0.450000X-0.600000X0.450000X-0.600000X0*%
%ADD66RoundRect,0.151000X0.712500X0.100000X-0.712500X0.100000X-0.712500X-0.100000X0.712500X-0.100000X0*%
%ADD67RoundRect,0.051000X-0.700000X-0.600000X0.700000X-0.600000X0.700000X0.600000X-0.700000X0.600000X0*%
%ADD68RoundRect,0.301000X0.625000X-0.312500X0.625000X0.312500X-0.625000X0.312500X-0.625000X-0.312500X0*%
%ADD69C,0.752000*%
%ADD70RoundRect,0.051000X-0.150000X-0.575000X0.150000X-0.575000X0.150000X0.575000X-0.150000X0.575000X0*%
%ADD71O,1.102000X2.202000*%
%ADD72O,1.102000X1.702000*%
G04 APERTURE END LIST*
D10*
X70700000Y-110385714D02*
X70700000Y-108957142D01*
X77700000Y-78025714D02*
X77700000Y-76597142D01*
X70700000Y-77885714D02*
X70700000Y-76457142D01*
X72345238Y-74452380D02*
X72916666Y-74452380D01*
X72630952Y-75452380D02*
X72630952Y-74452380D01*
X73250000Y-75452380D02*
X73250000Y-74452380D01*
X73250000Y-74928571D02*
X73821428Y-74928571D01*
X73821428Y-75452380D02*
X73821428Y-74452380D01*
X74821428Y-75452380D02*
X74250000Y-75452380D01*
X74535714Y-75452380D02*
X74535714Y-74452380D01*
X74440476Y-74595238D01*
X74345238Y-74690476D01*
X74250000Y-74738095D01*
X76250000Y-75785714D02*
X76250000Y-74357142D01*
X77583333Y-74452380D02*
X78154761Y-74452380D01*
X77869047Y-75452380D02*
X77869047Y-74452380D01*
X78488095Y-75452380D02*
X78488095Y-74452380D01*
X78488095Y-74928571D02*
X79059523Y-74928571D01*
X79059523Y-75452380D02*
X79059523Y-74452380D01*
X79488095Y-74547619D02*
X79535714Y-74500000D01*
X79630952Y-74452380D01*
X79869047Y-74452380D01*
X79964285Y-74500000D01*
X80011904Y-74547619D01*
X80059523Y-74642857D01*
X80059523Y-74738095D01*
X80011904Y-74880952D01*
X79440476Y-75452380D01*
X80059523Y-75452380D01*
X129090476Y-68852380D02*
X129423809Y-69852380D01*
X129757142Y-68852380D01*
X130090476Y-69852380D02*
X130090476Y-68852380D01*
X130423809Y-69566666D01*
X130757142Y-68852380D01*
X130757142Y-69852380D01*
X131423809Y-68852380D02*
X131614285Y-68852380D01*
X131709523Y-68900000D01*
X131804761Y-68995238D01*
X131852380Y-69185714D01*
X131852380Y-69519047D01*
X131804761Y-69709523D01*
X131709523Y-69804761D01*
X131614285Y-69852380D01*
X131423809Y-69852380D01*
X131328571Y-69804761D01*
X131233333Y-69709523D01*
X131185714Y-69519047D01*
X131185714Y-69185714D01*
X131233333Y-68995238D01*
X131328571Y-68900000D01*
X131423809Y-68852380D01*
X132138095Y-68852380D02*
X132709523Y-68852380D01*
X132423809Y-69852380D02*
X132423809Y-68852380D01*
X117738095Y-68600000D02*
X117642857Y-68552380D01*
X117500000Y-68552380D01*
X117357142Y-68600000D01*
X117261904Y-68695238D01*
X117214285Y-68790476D01*
X117166666Y-68980952D01*
X117166666Y-69123809D01*
X117214285Y-69314285D01*
X117261904Y-69409523D01*
X117357142Y-69504761D01*
X117500000Y-69552380D01*
X117595238Y-69552380D01*
X117738095Y-69504761D01*
X117785714Y-69457142D01*
X117785714Y-69123809D01*
X117595238Y-69123809D01*
X118214285Y-69552380D02*
X118214285Y-68552380D01*
X118785714Y-69552380D01*
X118785714Y-68552380D01*
X119261904Y-69552380D02*
X119261904Y-68552380D01*
X119500000Y-68552380D01*
X119642857Y-68600000D01*
X119738095Y-68695238D01*
X119785714Y-68790476D01*
X119833333Y-68980952D01*
X119833333Y-69123809D01*
X119785714Y-69314285D01*
X119738095Y-69409523D01*
X119642857Y-69504761D01*
X119500000Y-69552380D01*
X119261904Y-69552380D01*
X81423809Y-87904761D02*
X81566666Y-87952380D01*
X81804761Y-87952380D01*
X81900000Y-87904761D01*
X81947619Y-87857142D01*
X81995238Y-87761904D01*
X81995238Y-87666666D01*
X81947619Y-87571428D01*
X81900000Y-87523809D01*
X81804761Y-87476190D01*
X81614285Y-87428571D01*
X81519047Y-87380952D01*
X81471428Y-87333333D01*
X81423809Y-87238095D01*
X81423809Y-87142857D01*
X81471428Y-87047619D01*
X81519047Y-87000000D01*
X81614285Y-86952380D01*
X81852380Y-86952380D01*
X81995238Y-87000000D01*
X82804761Y-87904761D02*
X82709523Y-87952380D01*
X82519047Y-87952380D01*
X82423809Y-87904761D01*
X82376190Y-87809523D01*
X82376190Y-87428571D01*
X82423809Y-87333333D01*
X82519047Y-87285714D01*
X82709523Y-87285714D01*
X82804761Y-87333333D01*
X82852380Y-87428571D01*
X82852380Y-87523809D01*
X82376190Y-87619047D01*
X83280952Y-87952380D02*
X83280952Y-87285714D01*
X83280952Y-87476190D02*
X83328571Y-87380952D01*
X83376190Y-87333333D01*
X83471428Y-87285714D01*
X83566666Y-87285714D01*
X83900000Y-87952380D02*
X83900000Y-87285714D01*
X83900000Y-86952380D02*
X83852380Y-87000000D01*
X83900000Y-87047619D01*
X83947619Y-87000000D01*
X83900000Y-86952380D01*
X83900000Y-87047619D01*
X84804761Y-87952380D02*
X84804761Y-87428571D01*
X84757142Y-87333333D01*
X84661904Y-87285714D01*
X84471428Y-87285714D01*
X84376190Y-87333333D01*
X84804761Y-87904761D02*
X84709523Y-87952380D01*
X84471428Y-87952380D01*
X84376190Y-87904761D01*
X84328571Y-87809523D01*
X84328571Y-87714285D01*
X84376190Y-87619047D01*
X84471428Y-87571428D01*
X84709523Y-87571428D01*
X84804761Y-87523809D01*
X85423809Y-87952380D02*
X85328571Y-87904761D01*
X85280952Y-87809523D01*
X85280952Y-86952380D01*
D11*
X162828571Y-70900000D02*
X163542857Y-70900000D01*
X162685714Y-71328571D02*
X163185714Y-69828571D01*
X163685714Y-71328571D01*
X164114285Y-69971428D02*
X164185714Y-69900000D01*
X164328571Y-69828571D01*
X164685714Y-69828571D01*
X164828571Y-69900000D01*
X164900000Y-69971428D01*
X164971428Y-70114285D01*
X164971428Y-70257142D01*
X164900000Y-70471428D01*
X164042857Y-71328571D01*
X164971428Y-71328571D01*
D10*
X77642857Y-101799761D02*
X77785714Y-101847380D01*
X78023809Y-101847380D01*
X78119047Y-101799761D01*
X78166666Y-101752142D01*
X78214285Y-101656904D01*
X78214285Y-101561666D01*
X78166666Y-101466428D01*
X78119047Y-101418809D01*
X78023809Y-101371190D01*
X77833333Y-101323571D01*
X77738095Y-101275952D01*
X77690476Y-101228333D01*
X77642857Y-101133095D01*
X77642857Y-101037857D01*
X77690476Y-100942619D01*
X77738095Y-100895000D01*
X77833333Y-100847380D01*
X78071428Y-100847380D01*
X78214285Y-100895000D01*
X78547619Y-100847380D02*
X78785714Y-101847380D01*
X78976190Y-101133095D01*
X79166666Y-101847380D01*
X79404761Y-100847380D01*
X79785714Y-101847380D02*
X79785714Y-100847380D01*
X80023809Y-100847380D01*
X80166666Y-100895000D01*
X80261904Y-100990238D01*
X80309523Y-101085476D01*
X80357142Y-101275952D01*
X80357142Y-101418809D01*
X80309523Y-101609285D01*
X80261904Y-101704523D01*
X80166666Y-101799761D01*
X80023809Y-101847380D01*
X79785714Y-101847380D01*
X78261904Y-103457380D02*
X77928571Y-102981190D01*
X77690476Y-103457380D02*
X77690476Y-102457380D01*
X78071428Y-102457380D01*
X78166666Y-102505000D01*
X78214285Y-102552619D01*
X78261904Y-102647857D01*
X78261904Y-102790714D01*
X78214285Y-102885952D01*
X78166666Y-102933571D01*
X78071428Y-102981190D01*
X77690476Y-102981190D01*
X78690476Y-102457380D02*
X78690476Y-103266904D01*
X78738095Y-103362142D01*
X78785714Y-103409761D01*
X78880952Y-103457380D01*
X79071428Y-103457380D01*
X79166666Y-103409761D01*
X79214285Y-103362142D01*
X79261904Y-103266904D01*
X79261904Y-102457380D01*
X79738095Y-103457380D02*
X79738095Y-102457380D01*
X80309523Y-103457380D01*
X80309523Y-102457380D01*
X78143913Y-113066977D02*
X78143913Y-112733644D01*
X78667722Y-112590787D02*
X78667722Y-113066977D01*
X77667722Y-113066977D01*
X77667722Y-112590787D01*
X78667722Y-112162215D02*
X77667722Y-112162215D01*
X78667722Y-111590787D01*
X77667722Y-111590787D01*
X78572484Y-110543168D02*
X78620103Y-110590787D01*
X78667722Y-110733644D01*
X78667722Y-110828882D01*
X78620103Y-110971739D01*
X78524865Y-111066977D01*
X78429627Y-111114596D01*
X78239151Y-111162215D01*
X78096294Y-111162215D01*
X77905818Y-111114596D01*
X77810580Y-111066977D01*
X77715342Y-110971739D01*
X77667722Y-110828882D01*
X77667722Y-110733644D01*
X77715342Y-110590787D01*
X77762961Y-110543168D01*
X77762961Y-110162215D02*
X77715342Y-110114596D01*
X77667722Y-110019358D01*
X77667722Y-109781263D01*
X77715342Y-109686025D01*
X77762961Y-109638406D01*
X77858199Y-109590787D01*
X77953437Y-109590787D01*
X78096294Y-109638406D01*
X78667722Y-110209834D01*
X78667722Y-109590787D01*
D11*
X163150000Y-120435714D02*
X163078571Y-120507142D01*
X162864285Y-120578571D01*
X162721428Y-120578571D01*
X162507142Y-120507142D01*
X162364285Y-120364285D01*
X162292857Y-120221428D01*
X162221428Y-119935714D01*
X162221428Y-119721428D01*
X162292857Y-119435714D01*
X162364285Y-119292857D01*
X162507142Y-119150000D01*
X162721428Y-119078571D01*
X162864285Y-119078571D01*
X163078571Y-119150000D01*
X163150000Y-119221428D01*
X164578571Y-120578571D02*
X163721428Y-120578571D01*
X164150000Y-120578571D02*
X164150000Y-119078571D01*
X164007142Y-119292857D01*
X163864285Y-119435714D01*
X163721428Y-119507142D01*
X163278571Y-101800000D02*
X163992857Y-101800000D01*
X163135714Y-102228571D02*
X163635714Y-100728571D01*
X164135714Y-102228571D01*
X165421428Y-102228571D02*
X164564285Y-102228571D01*
X164992857Y-102228571D02*
X164992857Y-100728571D01*
X164850000Y-100942857D01*
X164707142Y-101085714D01*
X164564285Y-101157142D01*
D10*
X77535714Y-88328571D02*
X77869047Y-88328571D01*
X78011904Y-88852380D02*
X77535714Y-88852380D01*
X77535714Y-87852380D01*
X78011904Y-87852380D01*
X78440476Y-88852380D02*
X78440476Y-87852380D01*
X79011904Y-88852380D01*
X79011904Y-87852380D01*
X80059523Y-88757142D02*
X80011904Y-88804761D01*
X79869047Y-88852380D01*
X79773809Y-88852380D01*
X79630952Y-88804761D01*
X79535714Y-88709523D01*
X79488095Y-88614285D01*
X79440476Y-88423809D01*
X79440476Y-88280952D01*
X79488095Y-88090476D01*
X79535714Y-87995238D01*
X79630952Y-87900000D01*
X79773809Y-87852380D01*
X79869047Y-87852380D01*
X80011904Y-87900000D01*
X80059523Y-87947619D01*
X81011904Y-88852380D02*
X80440476Y-88852380D01*
X80726190Y-88852380D02*
X80726190Y-87852380D01*
X80630952Y-87995238D01*
X80535714Y-88090476D01*
X80440476Y-88138095D01*
D11*
X164000000Y-89185714D02*
X163928571Y-89257142D01*
X163714285Y-89328571D01*
X163571428Y-89328571D01*
X163357142Y-89257142D01*
X163214285Y-89114285D01*
X163142857Y-88971428D01*
X163071428Y-88685714D01*
X163071428Y-88471428D01*
X163142857Y-88185714D01*
X163214285Y-88042857D01*
X163357142Y-87900000D01*
X163571428Y-87828571D01*
X163714285Y-87828571D01*
X163928571Y-87900000D01*
X164000000Y-87971428D01*
X164571428Y-87971428D02*
X164642857Y-87900000D01*
X164785714Y-87828571D01*
X165142857Y-87828571D01*
X165285714Y-87900000D01*
X165357142Y-87971428D01*
X165428571Y-88114285D01*
X165428571Y-88257142D01*
X165357142Y-88471428D01*
X164500000Y-89328571D01*
X165428571Y-89328571D01*
X163442857Y-81242857D02*
X163657142Y-81314285D01*
X163728571Y-81385714D01*
X163800000Y-81528571D01*
X163800000Y-81742857D01*
X163728571Y-81885714D01*
X163657142Y-81957142D01*
X163514285Y-82028571D01*
X162942857Y-82028571D01*
X162942857Y-80528571D01*
X163442857Y-80528571D01*
X163585714Y-80600000D01*
X163657142Y-80671428D01*
X163728571Y-80814285D01*
X163728571Y-80957142D01*
X163657142Y-81100000D01*
X163585714Y-81171428D01*
X163442857Y-81242857D01*
X162942857Y-81242857D01*
X164371428Y-80671428D02*
X164442857Y-80600000D01*
X164585714Y-80528571D01*
X164942857Y-80528571D01*
X165085714Y-80600000D01*
X165157142Y-80671428D01*
X165228571Y-80814285D01*
X165228571Y-80957142D01*
X165157142Y-81171428D01*
X164300000Y-82028571D01*
X165228571Y-82028571D01*
D10*
X98092857Y-89078571D02*
X98235714Y-89126190D01*
X98283333Y-89173809D01*
X98330952Y-89269047D01*
X98330952Y-89411904D01*
X98283333Y-89507142D01*
X98235714Y-89554761D01*
X98140476Y-89602380D01*
X97759523Y-89602380D01*
X97759523Y-88602380D01*
X98092857Y-88602380D01*
X98188095Y-88650000D01*
X98235714Y-88697619D01*
X98283333Y-88792857D01*
X98283333Y-88888095D01*
X98235714Y-88983333D01*
X98188095Y-89030952D01*
X98092857Y-89078571D01*
X97759523Y-89078571D01*
X98950000Y-88602380D02*
X99140476Y-88602380D01*
X99235714Y-88650000D01*
X99330952Y-88745238D01*
X99378571Y-88935714D01*
X99378571Y-89269047D01*
X99330952Y-89459523D01*
X99235714Y-89554761D01*
X99140476Y-89602380D01*
X98950000Y-89602380D01*
X98854761Y-89554761D01*
X98759523Y-89459523D01*
X98711904Y-89269047D01*
X98711904Y-88935714D01*
X98759523Y-88745238D01*
X98854761Y-88650000D01*
X98950000Y-88602380D01*
X99997619Y-88602380D02*
X100188095Y-88602380D01*
X100283333Y-88650000D01*
X100378571Y-88745238D01*
X100426190Y-88935714D01*
X100426190Y-89269047D01*
X100378571Y-89459523D01*
X100283333Y-89554761D01*
X100188095Y-89602380D01*
X99997619Y-89602380D01*
X99902380Y-89554761D01*
X99807142Y-89459523D01*
X99759523Y-89269047D01*
X99759523Y-88935714D01*
X99807142Y-88745238D01*
X99902380Y-88650000D01*
X99997619Y-88602380D01*
X100711904Y-88602380D02*
X101283333Y-88602380D01*
X100997619Y-89602380D02*
X100997619Y-88602380D01*
D11*
X163392857Y-109442857D02*
X163607142Y-109514285D01*
X163678571Y-109585714D01*
X163750000Y-109728571D01*
X163750000Y-109942857D01*
X163678571Y-110085714D01*
X163607142Y-110157142D01*
X163464285Y-110228571D01*
X162892857Y-110228571D01*
X162892857Y-108728571D01*
X163392857Y-108728571D01*
X163535714Y-108800000D01*
X163607142Y-108871428D01*
X163678571Y-109014285D01*
X163678571Y-109157142D01*
X163607142Y-109300000D01*
X163535714Y-109371428D01*
X163392857Y-109442857D01*
X162892857Y-109442857D01*
X165178571Y-110228571D02*
X164321428Y-110228571D01*
X164750000Y-110228571D02*
X164750000Y-108728571D01*
X164607142Y-108942857D01*
X164464285Y-109085714D01*
X164321428Y-109157142D01*
D12*
X71702380Y-90882857D02*
X71702380Y-91359047D01*
X70702380Y-91359047D01*
X71178571Y-90549523D02*
X71178571Y-90216190D01*
X71702380Y-90073333D02*
X71702380Y-90549523D01*
X70702380Y-90549523D01*
X70702380Y-90073333D01*
X71702380Y-89644761D02*
X70702380Y-89644761D01*
X70702380Y-89406666D01*
X70750000Y-89263809D01*
X70845238Y-89168571D01*
X70940476Y-89120952D01*
X71130952Y-89073333D01*
X71273809Y-89073333D01*
X71464285Y-89120952D01*
X71559523Y-89168571D01*
X71654761Y-89263809D01*
X71702380Y-89406666D01*
X71702380Y-89644761D01*
X76402380Y-91875714D02*
X76402380Y-91304285D01*
X77402380Y-91590000D02*
X76402380Y-91590000D01*
X77402380Y-90970952D02*
X76402380Y-90970952D01*
X76878571Y-90970952D02*
X76878571Y-90399523D01*
X77402380Y-90399523D02*
X76402380Y-90399523D01*
X76497619Y-89970952D02*
X76450000Y-89923333D01*
X76402380Y-89828095D01*
X76402380Y-89590000D01*
X76450000Y-89494761D01*
X76497619Y-89447142D01*
X76592857Y-89399523D01*
X76688095Y-89399523D01*
X76830952Y-89447142D01*
X77402380Y-90018571D01*
X77402380Y-89399523D01*
X77736666Y-86522380D02*
X77736666Y-87236666D01*
X77689047Y-87379523D01*
X77593809Y-87474761D01*
X77450952Y-87522380D01*
X77355714Y-87522380D01*
X78117619Y-86522380D02*
X78736666Y-86522380D01*
X78403333Y-86903333D01*
X78546190Y-86903333D01*
X78641428Y-86950952D01*
X78689047Y-86998571D01*
X78736666Y-87093809D01*
X78736666Y-87331904D01*
X78689047Y-87427142D01*
X78641428Y-87474761D01*
X78546190Y-87522380D01*
X78260476Y-87522380D01*
X78165238Y-87474761D01*
X78117619Y-87427142D01*
X84736666Y-81732380D02*
X84736666Y-82446666D01*
X84689047Y-82589523D01*
X84593809Y-82684761D01*
X84450952Y-82732380D01*
X84355714Y-82732380D01*
X85641428Y-82065714D02*
X85641428Y-82732380D01*
X85403333Y-81684761D02*
X85165238Y-82399047D01*
X85784285Y-82399047D01*
X82046666Y-68322380D02*
X82046666Y-69036666D01*
X81999047Y-69179523D01*
X81903809Y-69274761D01*
X81760952Y-69322380D01*
X81665714Y-69322380D01*
X82999047Y-68322380D02*
X82522857Y-68322380D01*
X82475238Y-68798571D01*
X82522857Y-68750952D01*
X82618095Y-68703333D01*
X82856190Y-68703333D01*
X82951428Y-68750952D01*
X82999047Y-68798571D01*
X83046666Y-68893809D01*
X83046666Y-69131904D01*
X82999047Y-69227142D01*
X82951428Y-69274761D01*
X82856190Y-69322380D01*
X82618095Y-69322380D01*
X82522857Y-69274761D01*
X82475238Y-69227142D01*
X77682380Y-106943333D02*
X78396666Y-106943333D01*
X78539523Y-106990952D01*
X78634761Y-107086190D01*
X78682380Y-107229047D01*
X78682380Y-107324285D01*
X77682380Y-106038571D02*
X77682380Y-106229047D01*
X77730000Y-106324285D01*
X77777619Y-106371904D01*
X77920476Y-106467142D01*
X78110952Y-106514761D01*
X78491904Y-106514761D01*
X78587142Y-106467142D01*
X78634761Y-106419523D01*
X78682380Y-106324285D01*
X78682380Y-106133809D01*
X78634761Y-106038571D01*
X78587142Y-105990952D01*
X78491904Y-105943333D01*
X78253809Y-105943333D01*
X78158571Y-105990952D01*
X78110952Y-106038571D01*
X78063333Y-106133809D01*
X78063333Y-106324285D01*
X78110952Y-106419523D01*
X78158571Y-106467142D01*
X78253809Y-106514761D01*
X77846666Y-120232380D02*
X77846666Y-120946666D01*
X77799047Y-121089523D01*
X77703809Y-121184761D01*
X77560952Y-121232380D01*
X77465714Y-121232380D01*
X78275238Y-120327619D02*
X78322857Y-120280000D01*
X78418095Y-120232380D01*
X78656190Y-120232380D01*
X78751428Y-120280000D01*
X78799047Y-120327619D01*
X78846666Y-120422857D01*
X78846666Y-120518095D01*
X78799047Y-120660952D01*
X78227619Y-121232380D01*
X78846666Y-121232380D01*
D13*
X88844000Y-87901700D02*
X88844000Y-86101700D01*
X88844000Y-87901700D02*
X88844000Y-88701700D01*
X85724000Y-87901700D02*
X85724000Y-87101700D01*
X85724000Y-87901700D02*
X85724000Y-88701700D01*
X83821700Y-96776000D02*
X84621700Y-96776000D01*
X83821700Y-96776000D02*
X83021700Y-96776000D01*
X83821700Y-93656000D02*
X84621700Y-93656000D01*
X83821700Y-93656000D02*
X82021700Y-93656000D01*
X91564000Y-87971700D02*
X91564000Y-88771700D01*
X91564000Y-87971700D02*
X91564000Y-87171700D01*
X94684000Y-87971700D02*
X94684000Y-88771700D01*
X94684000Y-87971700D02*
X94684000Y-86171700D01*
X143586000Y-92738300D02*
X143586000Y-91938300D01*
X143586000Y-92738300D02*
X143586000Y-93538300D01*
X140466000Y-92738300D02*
X140466000Y-91938300D01*
X140466000Y-92738300D02*
X140466000Y-94538300D01*
D12*
X77350000Y-95000000D02*
G75*
G03*
X77350000Y-95000000I-3350000J0D01*
G01*
X165860000Y-76000000D02*
G75*
G03*
X165860000Y-76000000I-3350000J0D01*
G01*
X165860000Y-114000000D02*
G75*
G03*
X165860000Y-114000000I-3350000J0D01*
G01*
D13*
X139027500Y-94762742D02*
X139027500Y-95237258D01*
X140072500Y-94762742D02*
X140072500Y-95237258D01*
X72610000Y-89250000D02*
G75*
G03*
X71910000Y-89950000I0J-700000D01*
G01*
X71910000Y-90550000D02*
G75*
G03*
X72610000Y-91250000I700000J0D01*
G01*
X75310000Y-91250000D02*
G75*
G03*
X76010000Y-90550000I0J700000D01*
G01*
X76010000Y-89950000D02*
G75*
G03*
X75310000Y-89250000I-700000J0D01*
G01*
X72560000Y-89250000D02*
X75360000Y-89250000D01*
X76010000Y-89950000D02*
X76010000Y-90550000D01*
X75360000Y-91250000D02*
X72560000Y-91250000D01*
X71910000Y-90550000D02*
X71910000Y-89950000D01*
X71670000Y-76440000D02*
X71070000Y-76440000D01*
X71670000Y-78040000D02*
X71670000Y-76440000D01*
X71070000Y-78040000D02*
X71670000Y-78040000D01*
X71670000Y-78980000D02*
X71070000Y-78980000D01*
X71670000Y-80580000D02*
X71670000Y-78980000D01*
X71070000Y-80580000D02*
X71670000Y-80580000D01*
X71670000Y-81520000D02*
X71070000Y-81520000D01*
X71670000Y-83120000D02*
X71670000Y-81520000D01*
X71070000Y-83120000D02*
X71670000Y-83120000D01*
X71670000Y-84060000D02*
X71070000Y-84060000D01*
X71670000Y-85660000D02*
X71670000Y-84060000D01*
X71070000Y-85660000D02*
X71670000Y-85660000D01*
X71670000Y-86600000D02*
X71070000Y-86600000D01*
X71670000Y-88200000D02*
X71670000Y-86600000D01*
X71070000Y-88200000D02*
X71670000Y-88200000D01*
X77090000Y-77490000D02*
X76090000Y-77490000D01*
X77090000Y-87150000D02*
X76090000Y-87150000D01*
X75560000Y-77490000D02*
X76090000Y-77240000D01*
X75560000Y-87150000D02*
X75560000Y-77490000D01*
X76090000Y-87400000D02*
X75560000Y-87150000D01*
X76090000Y-77240000D02*
X77090000Y-77240000D01*
X76090000Y-87400000D02*
X76090000Y-77240000D01*
X77090000Y-87400000D02*
X76090000Y-87400000D01*
X72100000Y-89070000D02*
X76100000Y-89070000D01*
X71070000Y-75860000D02*
X71070000Y-88780000D01*
X77090000Y-75860000D02*
X71070000Y-75860000D01*
X77090000Y-88780000D02*
X77090000Y-75860000D01*
X71070000Y-88780000D02*
X77090000Y-88780000D01*
X141702742Y-99162500D02*
X142177258Y-99162500D01*
X141702742Y-98117500D02*
X142177258Y-98117500D01*
X141819420Y-95050000D02*
X142100580Y-95050000D01*
X141819420Y-96070000D02*
X142100580Y-96070000D01*
X86372500Y-76752742D02*
X86372500Y-77227258D01*
X85327500Y-76752742D02*
X85327500Y-77227258D01*
X87450580Y-84530000D02*
X87169420Y-84530000D01*
X87450580Y-85550000D02*
X87169420Y-85550000D01*
X85327500Y-80277258D02*
X85327500Y-79802742D01*
X86372500Y-80277258D02*
X86372500Y-79802742D01*
X81460000Y-95459420D02*
X81460000Y-95740580D01*
X80440000Y-95459420D02*
X80440000Y-95740580D01*
X142090580Y-97610000D02*
X141809420Y-97610000D01*
X142090580Y-96590000D02*
X141809420Y-96590000D01*
X87149420Y-82990000D02*
X87430580Y-82990000D01*
X87149420Y-84010000D02*
X87430580Y-84010000D01*
X79920000Y-95740580D02*
X79920000Y-95459420D01*
X78900000Y-95740580D02*
X78900000Y-95459420D01*
X98973578Y-100910000D02*
X98456422Y-100910000D01*
X98973578Y-99490000D02*
X98456422Y-99490000D01*
X85505580Y-111380000D02*
X85224420Y-111380000D01*
X85505580Y-112400000D02*
X85224420Y-112400000D01*
X88080000Y-111394420D02*
X88080000Y-111675580D01*
X89100000Y-111394420D02*
X89100000Y-111675580D01*
X98734420Y-103040000D02*
X99015580Y-103040000D01*
X98734420Y-104060000D02*
X99015580Y-104060000D01*
X103260000Y-116435580D02*
X103260000Y-116154420D01*
X104280000Y-116435580D02*
X104280000Y-116154420D01*
X104200000Y-92790000D02*
X102940000Y-92790000D01*
X97380000Y-98800000D02*
X97380000Y-92790000D01*
X97380000Y-92790000D02*
X98640000Y-92790000D01*
X104200000Y-96550000D02*
X104200000Y-92790000D01*
X102390000Y-111735000D02*
X102390000Y-110060000D01*
X97200000Y-114460000D02*
X97200000Y-111735000D01*
X102650000Y-114460000D02*
X102650000Y-111735000D01*
X97200000Y-111735000D02*
X97460000Y-111735000D01*
X102650000Y-114460000D02*
X102650000Y-117185000D01*
X102650000Y-111735000D02*
X102390000Y-111735000D01*
X102650000Y-117185000D02*
X102390000Y-117185000D01*
X97200000Y-117185000D02*
X97460000Y-117185000D01*
X97200000Y-114460000D02*
X97200000Y-117185000D01*
X90045580Y-96160000D02*
X89764420Y-96160000D01*
X90045580Y-95140000D02*
X89764420Y-95140000D01*
X102247742Y-109032500D02*
X102722258Y-109032500D01*
X102247742Y-107987500D02*
X102722258Y-107987500D01*
X91550000Y-112544420D02*
X91550000Y-112825580D01*
X90530000Y-112544420D02*
X90530000Y-112825580D01*
X84095580Y-103290000D02*
X83814420Y-103290000D01*
X84095580Y-104310000D02*
X83814420Y-104310000D01*
X90869000Y-98105580D02*
X90869000Y-97824420D01*
X89849000Y-98105580D02*
X89849000Y-97824420D01*
X84667500Y-115572258D02*
X84667500Y-115097742D01*
X85712500Y-115572258D02*
X85712500Y-115097742D01*
X87930000Y-98105580D02*
X87930000Y-97824420D01*
X88950000Y-98105580D02*
X88950000Y-97824420D01*
X102890000Y-100688922D02*
X102890000Y-101206078D01*
X104310000Y-100688922D02*
X104310000Y-101206078D01*
X97734420Y-108390000D02*
X98015580Y-108390000D01*
X97734420Y-109410000D02*
X98015580Y-109410000D01*
X85445580Y-110810000D02*
X85164420Y-110810000D01*
X85445580Y-109790000D02*
X85164420Y-109790000D01*
X87780000Y-101640000D02*
X87780000Y-102290000D01*
X94350000Y-101640000D02*
X95000000Y-101640000D01*
X94350000Y-108860000D02*
X95000000Y-108860000D01*
X88430000Y-101640000D02*
X87780000Y-101640000D01*
X87780000Y-108860000D02*
X87780000Y-108210000D01*
X88430000Y-108860000D02*
X87780000Y-108860000D01*
X95000000Y-101640000D02*
X95000000Y-102290000D01*
X94640000Y-92965580D02*
X94640000Y-92684420D01*
X95660000Y-92965580D02*
X95660000Y-92684420D01*
X83912500Y-115572258D02*
X83912500Y-115097742D01*
X82867500Y-115572258D02*
X82867500Y-115097742D01*
X93150000Y-112644420D02*
X93150000Y-112925580D01*
X92130000Y-112644420D02*
X92130000Y-112925580D01*
X85445580Y-109160000D02*
X85164420Y-109160000D01*
X85445580Y-108140000D02*
X85164420Y-108140000D01*
X92862500Y-97872258D02*
X92862500Y-97397742D01*
X91817500Y-97872258D02*
X91817500Y-97397742D01*
X102260000Y-100716422D02*
X102260000Y-101233578D01*
X100840000Y-100716422D02*
X100840000Y-101233578D01*
X113399680Y-74130000D02*
X113118520Y-74130000D01*
X113399680Y-73110000D02*
X113118520Y-73110000D01*
X113029648Y-104115000D02*
X113552152Y-104115000D01*
X113029648Y-102645000D02*
X113552152Y-102645000D01*
X78020000Y-78140000D02*
X78620000Y-78140000D01*
X78620000Y-79080000D02*
X78020000Y-79080000D01*
X78020000Y-75960000D02*
X78020000Y-86340000D01*
X78620000Y-80680000D02*
X78620000Y-79080000D01*
X78620000Y-85760000D02*
X78620000Y-84160000D01*
X78620000Y-84160000D02*
X78020000Y-84160000D01*
X78620000Y-83220000D02*
X78620000Y-81620000D01*
X79050000Y-86630000D02*
X83050000Y-86630000D01*
X78020000Y-80680000D02*
X78620000Y-80680000D01*
X82510000Y-84710000D02*
X82510000Y-77590000D01*
X78620000Y-78140000D02*
X78620000Y-76540000D01*
X84040000Y-84960000D02*
X83040000Y-84960000D01*
X78620000Y-76540000D02*
X78020000Y-76540000D01*
X83040000Y-84960000D02*
X82510000Y-84710000D01*
X83040000Y-77340000D02*
X84040000Y-77340000D01*
X84040000Y-84710000D02*
X83040000Y-84710000D01*
X84040000Y-86340000D02*
X84040000Y-75960000D01*
X78020000Y-85760000D02*
X78620000Y-85760000D01*
X83040000Y-84960000D02*
X83040000Y-77340000D01*
X78620000Y-81620000D02*
X78020000Y-81620000D01*
X82510000Y-77590000D02*
X83040000Y-77340000D01*
X78020000Y-86340000D02*
X84040000Y-86340000D01*
X84040000Y-77590000D02*
X83040000Y-77590000D01*
X84040000Y-75960000D02*
X78020000Y-75960000D01*
X78020000Y-83220000D02*
X78620000Y-83220000D01*
X93910000Y-78900000D02*
X93910000Y-80850000D01*
X93910000Y-78900000D02*
X93910000Y-75450000D01*
X88790000Y-78900000D02*
X88790000Y-76950000D01*
X88790000Y-78900000D02*
X88790000Y-80850000D01*
X116750000Y-104650000D02*
X116750000Y-100750000D01*
X118750000Y-104650000D02*
X118750000Y-100750000D01*
X116750000Y-104650000D02*
X118750000Y-104650000D01*
X128970000Y-120445563D02*
X128970000Y-118760000D01*
X120450000Y-112990000D02*
X120450000Y-115740000D01*
X128970000Y-114054437D02*
X128970000Y-115740000D01*
X127905563Y-121510000D02*
X120450000Y-121510000D01*
X120450000Y-121510000D02*
X120450000Y-118760000D01*
X130210000Y-119760000D02*
X129210000Y-119760000D01*
X128970000Y-120445563D02*
X127905563Y-121510000D01*
X127905563Y-112990000D02*
X120450000Y-112990000D01*
X129710000Y-120260000D02*
X129710000Y-119260000D01*
X128970000Y-114054437D02*
X127905563Y-112990000D01*
X107177500Y-113187742D02*
X107177500Y-113662258D01*
X108222500Y-113187742D02*
X108222500Y-113662258D01*
X96519437Y-75430000D02*
X102275000Y-75430000D01*
X94427500Y-70172500D02*
X95215000Y-70172500D01*
X95455000Y-69674437D02*
X95455000Y-70960000D01*
X96519437Y-68610000D02*
X102275000Y-68610000D01*
X95455000Y-69674437D02*
X96519437Y-68610000D01*
X94821250Y-69778750D02*
X94821250Y-70566250D01*
X102275000Y-68610000D02*
X102275000Y-70960000D01*
X95455000Y-74365563D02*
X95455000Y-73080000D01*
X95455000Y-74365563D02*
X96519437Y-75430000D01*
X102275000Y-75430000D02*
X102275000Y-73080000D01*
X102250000Y-79500000D02*
X104100000Y-79500000D01*
X102250000Y-80700000D02*
X104100000Y-80700000D01*
X104100000Y-80700000D02*
X104100000Y-79500000D01*
X96250000Y-84100000D02*
X96250000Y-85600000D01*
X97500000Y-88100000D02*
X102000000Y-88100000D01*
X103250000Y-85600000D02*
X103250000Y-84100000D01*
X102000000Y-81600000D02*
X97500000Y-81600000D01*
X155037064Y-116450000D02*
X150682936Y-116450000D01*
X155037064Y-113030000D02*
X150682936Y-113030000D01*
X149990580Y-97390000D02*
X149709420Y-97390000D01*
X149990580Y-98410000D02*
X149709420Y-98410000D01*
X150077258Y-91787500D02*
X149602742Y-91787500D01*
X150077258Y-92832500D02*
X149602742Y-92832500D01*
X148700000Y-121470000D02*
X142355000Y-121470000D01*
X148245000Y-116330000D02*
X142355000Y-116330000D01*
X163942500Y-93082742D02*
X163942500Y-93557258D01*
X162897500Y-93082742D02*
X162897500Y-93557258D01*
X155237064Y-86570000D02*
X150882936Y-86570000D01*
X155237064Y-83150000D02*
X150882936Y-83150000D01*
X80437258Y-89577500D02*
X79962742Y-89577500D01*
X80437258Y-90622500D02*
X79962742Y-90622500D01*
X163991600Y-97302258D02*
X163991600Y-96827742D01*
X162946600Y-97302258D02*
X162946600Y-96827742D01*
X118080000Y-81360320D02*
X118080000Y-81641480D01*
X117060000Y-81360320D02*
X117060000Y-81641480D01*
X152010000Y-70570000D02*
X155910000Y-70570000D01*
X152010000Y-68570000D02*
X152010000Y-70570000D01*
X152010000Y-68570000D02*
X155910000Y-68570000D01*
X80437258Y-91167500D02*
X79962742Y-91167500D01*
X80437258Y-92212500D02*
X79962742Y-92212500D01*
X84192742Y-118982500D02*
X84667258Y-118982500D01*
X84192742Y-117937500D02*
X84667258Y-117937500D01*
X148700000Y-73899500D02*
X142355000Y-73899500D01*
X148245000Y-68759500D02*
X142355000Y-68759500D01*
X107346500Y-96677742D02*
X107346500Y-97152258D01*
X108391500Y-96677742D02*
X108391500Y-97152258D01*
X108456500Y-78097742D02*
X108456500Y-78572258D01*
X109501500Y-78097742D02*
X109501500Y-78572258D01*
X135581000Y-107375000D02*
X139481000Y-107375000D01*
X135581000Y-105375000D02*
X139481000Y-105375000D01*
X135581000Y-105375000D02*
X135581000Y-107375000D01*
X84607258Y-119647500D02*
X84132742Y-119647500D01*
X84607258Y-120692500D02*
X84132742Y-120692500D01*
X96595000Y-75850000D02*
X96595000Y-79150000D01*
X96595000Y-79150000D02*
X101995000Y-79150000D01*
X96595000Y-75850000D02*
X101995000Y-75850000D01*
X113419648Y-93965000D02*
X113942152Y-93965000D01*
X113419648Y-95435000D02*
X113942152Y-95435000D01*
X112459100Y-110410000D02*
X110509100Y-110410000D01*
X112459100Y-105290000D02*
X110509100Y-105290000D01*
X112459100Y-110410000D02*
X115909100Y-110410000D01*
X112459100Y-105290000D02*
X114409100Y-105290000D01*
X120450000Y-85480000D02*
X120450000Y-82730000D01*
X128970000Y-84415563D02*
X127905563Y-85480000D01*
X127905563Y-76960000D02*
X120450000Y-76960000D01*
X128970000Y-78024437D02*
X128970000Y-79710000D01*
X127905563Y-85480000D02*
X120450000Y-85480000D01*
X128970000Y-78024437D02*
X127905563Y-76960000D01*
X120450000Y-76960000D02*
X120450000Y-79710000D01*
X128970000Y-84415563D02*
X128970000Y-82730000D01*
X130210000Y-83730000D02*
X129210000Y-83730000D01*
X129710000Y-84230000D02*
X129710000Y-83230000D01*
X85675000Y-70133748D02*
X85675000Y-70656252D01*
X87145000Y-70133748D02*
X87145000Y-70656252D01*
X108301500Y-101277742D02*
X108301500Y-101752258D01*
X107256500Y-101277742D02*
X107256500Y-101752258D01*
X83112742Y-91177500D02*
X83587258Y-91177500D01*
X83112742Y-92222500D02*
X83587258Y-92222500D01*
X160841020Y-95735000D02*
X161122180Y-95735000D01*
X160841020Y-96755000D02*
X161122180Y-96755000D01*
X105160000Y-86795000D02*
X105160000Y-89345000D01*
X106860000Y-86795000D02*
X105160000Y-86795000D01*
X106860000Y-86795000D02*
X106860000Y-89345000D01*
X159204400Y-97322258D02*
X159204400Y-96847742D01*
X158159400Y-97322258D02*
X158159400Y-96847742D01*
X118750000Y-121550000D02*
X118750000Y-117650000D01*
X116750000Y-121550000D02*
X116750000Y-117650000D01*
X116750000Y-121550000D02*
X118750000Y-121550000D01*
X160919420Y-94680000D02*
X161200580Y-94680000D01*
X160919420Y-93660000D02*
X161200580Y-93660000D01*
X149990580Y-93440000D02*
X149709420Y-93440000D01*
X149990580Y-94460000D02*
X149709420Y-94460000D01*
X148245000Y-77100000D02*
X142355000Y-77100000D01*
X148700000Y-82240000D02*
X142355000Y-82240000D01*
X93905000Y-68320000D02*
X92705000Y-68320000D01*
X87505000Y-68320000D02*
X88705000Y-68320000D01*
X87505000Y-68320000D02*
X87505000Y-69720000D01*
X93905000Y-75120000D02*
X92705000Y-75120000D01*
X87505000Y-75120000D02*
X88705000Y-75120000D01*
X93905000Y-68320000D02*
X93905000Y-69720000D01*
X87505000Y-75120000D02*
X87505000Y-73720000D01*
X93905000Y-75120000D02*
X93905000Y-73720000D01*
X70820000Y-69200000D02*
X70820000Y-73200000D01*
X76770000Y-68770000D02*
X78370000Y-68770000D01*
X72490000Y-73190000D02*
X72740000Y-72660000D01*
X76770000Y-68170000D02*
X76770000Y-68770000D01*
X74230000Y-68770000D02*
X75830000Y-68770000D01*
X80910000Y-68770000D02*
X80910000Y-68170000D01*
X80110000Y-73190000D02*
X80110000Y-74190000D01*
X78370000Y-68770000D02*
X78370000Y-68170000D01*
X81490000Y-68170000D02*
X71110000Y-68170000D01*
X79860000Y-72660000D02*
X80110000Y-73190000D01*
X72740000Y-74190000D02*
X72740000Y-73190000D01*
X71690000Y-68170000D02*
X71690000Y-68770000D01*
X79310000Y-68170000D02*
X79310000Y-68770000D01*
X73290000Y-68770000D02*
X73290000Y-68170000D01*
X71110000Y-74190000D02*
X81490000Y-74190000D01*
X75830000Y-68770000D02*
X75830000Y-68170000D01*
X74230000Y-68170000D02*
X74230000Y-68770000D01*
X71690000Y-68770000D02*
X73290000Y-68770000D01*
X72490000Y-74190000D02*
X72490000Y-73190000D01*
X72490000Y-73190000D02*
X80110000Y-73190000D01*
X79860000Y-74190000D02*
X79860000Y-73190000D01*
X71110000Y-68170000D02*
X71110000Y-74190000D01*
X79310000Y-68770000D02*
X80910000Y-68770000D01*
X72740000Y-72660000D02*
X79860000Y-72660000D01*
X81490000Y-74190000D02*
X81490000Y-68170000D01*
X155037064Y-103590000D02*
X150682936Y-103590000D01*
X155037064Y-100170000D02*
X150682936Y-100170000D01*
X88352500Y-76982258D02*
X88352500Y-76507742D01*
X87307500Y-76982258D02*
X87307500Y-76507742D01*
X155037064Y-77850000D02*
X150682936Y-77850000D01*
X155037064Y-74430000D02*
X150682936Y-74430000D01*
X109760000Y-73370000D02*
X109760000Y-75920000D01*
X109760000Y-73370000D02*
X108060000Y-73370000D01*
X108060000Y-73370000D02*
X108060000Y-75920000D01*
X147017500Y-93437258D02*
X147017500Y-92962742D01*
X148062500Y-93437258D02*
X148062500Y-92962742D01*
X106300000Y-68730000D02*
X106300000Y-72630000D01*
X106300000Y-68730000D02*
X104300000Y-68730000D01*
X104300000Y-68730000D02*
X104300000Y-72630000D01*
X139655000Y-77100000D02*
X133765000Y-77100000D01*
X140110000Y-82240000D02*
X133765000Y-82240000D01*
X140110000Y-90470000D02*
X133765000Y-90470000D01*
X139655000Y-85330000D02*
X133765000Y-85330000D01*
X113709100Y-74660000D02*
X111759100Y-74660000D01*
X113709100Y-79780000D02*
X111759100Y-79780000D01*
X113709100Y-74660000D02*
X115659100Y-74660000D01*
X113709100Y-79780000D02*
X117159100Y-79780000D01*
X107591500Y-74797742D02*
X107591500Y-75272258D01*
X106546500Y-74797742D02*
X106546500Y-75272258D01*
X113800000Y-72200000D02*
X113800000Y-69100000D01*
X114950000Y-72650000D02*
X113875000Y-72650000D01*
X116600000Y-72200000D02*
X116600000Y-69200000D01*
X107396500Y-82002742D02*
X107396500Y-82477258D01*
X108441500Y-82002742D02*
X108441500Y-82477258D01*
X148700000Y-90470000D02*
X142355000Y-90470000D01*
X148245000Y-85330000D02*
X142355000Y-85330000D01*
X111070352Y-81735000D02*
X110547848Y-81735000D01*
X111070352Y-80265000D02*
X110547848Y-80265000D01*
X93209420Y-84590000D02*
X93490580Y-84590000D01*
X93209420Y-85610000D02*
X93490580Y-85610000D01*
X112669100Y-88030000D02*
X114619100Y-88030000D01*
X112669100Y-93150000D02*
X110719100Y-93150000D01*
X112669100Y-88030000D02*
X110719100Y-88030000D01*
X112669100Y-93150000D02*
X116119100Y-93150000D01*
X155037064Y-104210000D02*
X150682936Y-104210000D01*
X155037064Y-107630000D02*
X150682936Y-107630000D01*
X112469100Y-118180000D02*
X115919100Y-118180000D01*
X112469100Y-118180000D02*
X110519100Y-118180000D01*
X112469100Y-113060000D02*
X110519100Y-113060000D01*
X112469100Y-113060000D02*
X114419100Y-113060000D01*
X99824742Y-80647400D02*
X100299258Y-80647400D01*
X99824742Y-79602400D02*
X100299258Y-79602400D01*
X112659100Y-82410000D02*
X114609100Y-82410000D01*
X112659100Y-82410000D02*
X110709100Y-82410000D01*
X112659100Y-87530000D02*
X116109100Y-87530000D01*
X112659100Y-87530000D02*
X110709100Y-87530000D01*
X107298500Y-109492742D02*
X107298500Y-109967258D01*
X108343500Y-109492742D02*
X108343500Y-109967258D01*
X105160000Y-83470000D02*
X105160000Y-86020000D01*
X106860000Y-83470000D02*
X105160000Y-83470000D01*
X106860000Y-83470000D02*
X106860000Y-86020000D01*
X96571642Y-79587500D02*
X97046158Y-79587500D01*
X96571642Y-80632500D02*
X97046158Y-80632500D01*
X155037064Y-108910000D02*
X150682936Y-108910000D01*
X155037064Y-112330000D02*
X150682936Y-112330000D01*
X148700000Y-113020000D02*
X142355000Y-113020000D01*
X148245000Y-107880000D02*
X142355000Y-107880000D01*
X120450000Y-103940000D02*
X120450000Y-106690000D01*
X127905563Y-112460000D02*
X120450000Y-112460000D01*
X129710000Y-111210000D02*
X129710000Y-110210000D01*
X127905563Y-103940000D02*
X120450000Y-103940000D01*
X128970000Y-105004437D02*
X128970000Y-106690000D01*
X128970000Y-111395563D02*
X128970000Y-109710000D01*
X128970000Y-111395563D02*
X127905563Y-112460000D01*
X130210000Y-110710000D02*
X129210000Y-110710000D01*
X120450000Y-112460000D02*
X120450000Y-109710000D01*
X128970000Y-105004437D02*
X127905563Y-103940000D01*
X143521000Y-113735000D02*
X147421000Y-113735000D01*
X143521000Y-115735000D02*
X147421000Y-115735000D01*
X143521000Y-113735000D02*
X143521000Y-115735000D01*
X77090000Y-101170000D02*
X76090000Y-101170000D01*
X76090000Y-106000000D02*
X75560000Y-105750000D01*
X76090000Y-106000000D02*
X76090000Y-100920000D01*
X71670000Y-105200000D02*
X71070000Y-105200000D01*
X71070000Y-99540000D02*
X71070000Y-107380000D01*
X71670000Y-101720000D02*
X71670000Y-100120000D01*
X77090000Y-106000000D02*
X76090000Y-106000000D01*
X71070000Y-101720000D02*
X71670000Y-101720000D01*
X71670000Y-106800000D02*
X71670000Y-105200000D01*
X71070000Y-106800000D02*
X71670000Y-106800000D01*
X72100000Y-107670000D02*
X76100000Y-107670000D01*
X75560000Y-105750000D02*
X75560000Y-101170000D01*
X77090000Y-105750000D02*
X76090000Y-105750000D01*
X71670000Y-104260000D02*
X71670000Y-102660000D01*
X77090000Y-107380000D02*
X77090000Y-99540000D01*
X71070000Y-104260000D02*
X71670000Y-104260000D01*
X71070000Y-107380000D02*
X77090000Y-107380000D01*
X71670000Y-102660000D02*
X71070000Y-102660000D01*
X75560000Y-101170000D02*
X76090000Y-100920000D01*
X71670000Y-100120000D02*
X71070000Y-100120000D01*
X76090000Y-100920000D02*
X77090000Y-100920000D01*
X77090000Y-99540000D02*
X71070000Y-99540000D01*
X144210000Y-105375000D02*
X148110000Y-105375000D01*
X144210000Y-107375000D02*
X148110000Y-107375000D01*
X144210000Y-105375000D02*
X144210000Y-107375000D01*
X107196500Y-104982742D02*
X107196500Y-105457258D01*
X108241500Y-104982742D02*
X108241500Y-105457258D01*
X113329648Y-110945000D02*
X113852152Y-110945000D01*
X113329648Y-112415000D02*
X113852152Y-112415000D01*
X108422500Y-88157742D02*
X108422500Y-88632258D01*
X107377500Y-88157742D02*
X107377500Y-88632258D01*
X101750000Y-121400000D02*
X97850000Y-121400000D01*
X101750000Y-121400000D02*
X101750000Y-119400000D01*
X101750000Y-119400000D02*
X97850000Y-119400000D01*
X140110000Y-73890000D02*
X133765000Y-73890000D01*
X139655000Y-68750000D02*
X133765000Y-68750000D01*
X105160000Y-91670000D02*
X105160000Y-94220000D01*
X106860000Y-91670000D02*
X106860000Y-94220000D01*
X106860000Y-91670000D02*
X105160000Y-91670000D01*
X154600000Y-98610000D02*
X157525000Y-98610000D01*
X154600000Y-95390000D02*
X156100000Y-95390000D01*
X154600000Y-95390000D02*
X153100000Y-95390000D01*
X154600000Y-98610000D02*
X153100000Y-98610000D01*
X105160000Y-80120000D02*
X105160000Y-82670000D01*
X106860000Y-80120000D02*
X106860000Y-82670000D01*
X106860000Y-80120000D02*
X105160000Y-80120000D01*
X104960000Y-95450000D02*
X104960000Y-98000000D01*
X106660000Y-95450000D02*
X104960000Y-95450000D01*
X106660000Y-95450000D02*
X106660000Y-98000000D01*
X135631000Y-82645000D02*
X139531000Y-82645000D01*
X135631000Y-84645000D02*
X139531000Y-84645000D01*
X135631000Y-82645000D02*
X135631000Y-84645000D01*
X144944642Y-98260500D02*
X145419158Y-98260500D01*
X144944642Y-97215500D02*
X145419158Y-97215500D01*
X145380580Y-94570000D02*
X145099420Y-94570000D01*
X145380580Y-93550000D02*
X145099420Y-93550000D01*
X112509100Y-96840000D02*
X110559100Y-96840000D01*
X112509100Y-96840000D02*
X114459100Y-96840000D01*
X112509100Y-101960000D02*
X115959100Y-101960000D01*
X112509100Y-101960000D02*
X110559100Y-101960000D01*
X139655000Y-107880000D02*
X133765000Y-107880000D01*
X140110000Y-113020000D02*
X133765000Y-113020000D01*
X89950000Y-91250000D02*
X89950000Y-94550000D01*
X89950000Y-94550000D02*
X93950000Y-94550000D01*
X150087258Y-96753400D02*
X149612742Y-96753400D01*
X150087258Y-95708400D02*
X149612742Y-95708400D01*
X107077500Y-117987742D02*
X107077500Y-118462258D01*
X108122500Y-117987742D02*
X108122500Y-118462258D01*
X127905563Y-103460000D02*
X120450000Y-103460000D01*
X128970000Y-102395563D02*
X127905563Y-103460000D01*
X128970000Y-102395563D02*
X128970000Y-100710000D01*
X120450000Y-103460000D02*
X120450000Y-100710000D01*
X128970000Y-96004437D02*
X127905563Y-94940000D01*
X130210000Y-101710000D02*
X129210000Y-101710000D01*
X120450000Y-94940000D02*
X120450000Y-97690000D01*
X127905563Y-94940000D02*
X120450000Y-94940000D01*
X128970000Y-96004437D02*
X128970000Y-97690000D01*
X129710000Y-102210000D02*
X129710000Y-101210000D01*
X107960000Y-76820000D02*
X106260000Y-76820000D01*
X107960000Y-76820000D02*
X107960000Y-79370000D01*
X106260000Y-76820000D02*
X106260000Y-79370000D01*
X80327258Y-118722500D02*
X79852742Y-118722500D01*
X80327258Y-117677500D02*
X79852742Y-117677500D01*
X154600000Y-94950000D02*
X157525000Y-94950000D01*
X154600000Y-91730000D02*
X153100000Y-91730000D01*
X154600000Y-94950000D02*
X153100000Y-94950000D01*
X154600000Y-91730000D02*
X156100000Y-91730000D01*
X75560000Y-109940000D02*
X76090000Y-109690000D01*
X77090000Y-119600000D02*
X76090000Y-119600000D01*
X72100000Y-121520000D02*
X76100000Y-121520000D01*
X71070000Y-108310000D02*
X71070000Y-121230000D01*
X71070000Y-110490000D02*
X71670000Y-110490000D01*
X71070000Y-120650000D02*
X71670000Y-120650000D01*
X71070000Y-113030000D02*
X71670000Y-113030000D01*
X77090000Y-121230000D02*
X77090000Y-108310000D01*
X71670000Y-113970000D02*
X71070000Y-113970000D01*
X71670000Y-108890000D02*
X71070000Y-108890000D01*
X77090000Y-119850000D02*
X76090000Y-119850000D01*
X77090000Y-109940000D02*
X76090000Y-109940000D01*
X71670000Y-111430000D02*
X71070000Y-111430000D01*
X76090000Y-119850000D02*
X75560000Y-119600000D01*
X71670000Y-115570000D02*
X71670000Y-113970000D01*
X71070000Y-121230000D02*
X77090000Y-121230000D01*
X71670000Y-119050000D02*
X71070000Y-119050000D01*
X71670000Y-120650000D02*
X71670000Y-119050000D01*
X71070000Y-118110000D02*
X71670000Y-118110000D01*
X71070000Y-115570000D02*
X71670000Y-115570000D01*
X75560000Y-119600000D02*
X75560000Y-109940000D01*
X77090000Y-108310000D02*
X71070000Y-108310000D01*
X71670000Y-116510000D02*
X71070000Y-116510000D01*
X76090000Y-109690000D02*
X77090000Y-109690000D01*
X71670000Y-110490000D02*
X71670000Y-108890000D01*
X71670000Y-118110000D02*
X71670000Y-116510000D01*
X71670000Y-113030000D02*
X71670000Y-111430000D01*
X76090000Y-119850000D02*
X76090000Y-109690000D01*
X110400000Y-72200000D02*
X110400000Y-69100000D01*
X113200000Y-72200000D02*
X113200000Y-69200000D01*
X111550000Y-72650000D02*
X110475000Y-72650000D01*
X108322500Y-92957742D02*
X108322500Y-93432258D01*
X107277500Y-92957742D02*
X107277500Y-93432258D01*
X145308980Y-96535000D02*
X145027820Y-96535000D01*
X145308980Y-95515000D02*
X145027820Y-95515000D01*
X118850000Y-87720000D02*
X118850000Y-83820000D01*
X116850000Y-87720000D02*
X118850000Y-87720000D01*
X116850000Y-87720000D02*
X116850000Y-83820000D01*
X139655000Y-116330000D02*
X133765000Y-116330000D01*
X140110000Y-121470000D02*
X133765000Y-121470000D01*
X135210000Y-91155000D02*
X135210000Y-93155000D01*
X135210000Y-93155000D02*
X139110000Y-93155000D01*
X135210000Y-91155000D02*
X139110000Y-91155000D01*
X135581000Y-113635000D02*
X139481000Y-113635000D01*
X135581000Y-113635000D02*
X135581000Y-115635000D01*
X135581000Y-115635000D02*
X139481000Y-115635000D01*
X117780000Y-114640320D02*
X117780000Y-114921480D01*
X116760000Y-114640320D02*
X116760000Y-114921480D01*
X159262500Y-93617258D02*
X159262500Y-93142742D01*
X158217500Y-93617258D02*
X158217500Y-93142742D01*
X117980000Y-89610320D02*
X117980000Y-89891480D01*
X116960000Y-89610320D02*
X116960000Y-89891480D01*
X161255358Y-97319500D02*
X160780842Y-97319500D01*
X161255358Y-98364500D02*
X160780842Y-98364500D01*
X135710000Y-74295000D02*
X135710000Y-76295000D01*
X135710000Y-74295000D02*
X139610000Y-74295000D01*
X135710000Y-76295000D02*
X139610000Y-76295000D01*
X144121000Y-74495000D02*
X148021000Y-74495000D01*
X144121000Y-76495000D02*
X148021000Y-76495000D01*
X144121000Y-74495000D02*
X144121000Y-76495000D01*
X135260000Y-96850000D02*
X135260000Y-98850000D01*
X135260000Y-98850000D02*
X139160000Y-98850000D01*
X135260000Y-96850000D02*
X139160000Y-96850000D01*
X93490580Y-84050000D02*
X93209420Y-84050000D01*
X93490580Y-83030000D02*
X93209420Y-83030000D01*
X104960000Y-111825000D02*
X104960000Y-114375000D01*
X106660000Y-111825000D02*
X104960000Y-111825000D01*
X106660000Y-111825000D02*
X106660000Y-114375000D01*
X151321000Y-119535000D02*
X151321000Y-121535000D01*
X151321000Y-119535000D02*
X155221000Y-119535000D01*
X151321000Y-121535000D02*
X155221000Y-121535000D01*
X148700000Y-104879500D02*
X142355000Y-104879500D01*
X148245000Y-99739500D02*
X142355000Y-99739500D01*
X140110000Y-104870000D02*
X133765000Y-104870000D01*
X139655000Y-99730000D02*
X133765000Y-99730000D01*
X80437258Y-93772500D02*
X79962742Y-93772500D01*
X80437258Y-92727500D02*
X79962742Y-92727500D01*
X147017500Y-97152258D02*
X147017500Y-96677742D01*
X148062500Y-97152258D02*
X148062500Y-96677742D01*
X107000000Y-72200000D02*
X107000000Y-69100000D01*
X109800000Y-72200000D02*
X109800000Y-69200000D01*
X108150000Y-72650000D02*
X107075000Y-72650000D01*
X155037064Y-81950000D02*
X150682936Y-81950000D01*
X155037064Y-78530000D02*
X150682936Y-78530000D01*
X155237064Y-90510000D02*
X150882936Y-90510000D01*
X155237064Y-87090000D02*
X150882936Y-87090000D01*
X106660000Y-103600000D02*
X104960000Y-103600000D01*
X104960000Y-103600000D02*
X104960000Y-106150000D01*
X106660000Y-103600000D02*
X106660000Y-106150000D01*
X106660000Y-100000000D02*
X104960000Y-100000000D01*
X104960000Y-100000000D02*
X104960000Y-102550000D01*
X106660000Y-100000000D02*
X106660000Y-102550000D01*
X108443500Y-85112742D02*
X108443500Y-85587258D01*
X107398500Y-85112742D02*
X107398500Y-85587258D01*
X113219648Y-120465000D02*
X113742152Y-120465000D01*
X113219648Y-118995000D02*
X113742152Y-118995000D01*
X116650000Y-113000000D02*
X118650000Y-113000000D01*
X118650000Y-113000000D02*
X118650000Y-109100000D01*
X116650000Y-113000000D02*
X116650000Y-109100000D01*
X80337258Y-113577500D02*
X79862742Y-113577500D01*
X80337258Y-114622500D02*
X79862742Y-114622500D01*
X116860000Y-106440320D02*
X116860000Y-106721480D01*
X117880000Y-106440320D02*
X117880000Y-106721480D01*
X80337258Y-115467500D02*
X79862742Y-115467500D01*
X80337258Y-116512500D02*
X79862742Y-116512500D01*
X130210000Y-92680000D02*
X129210000Y-92680000D01*
X129710000Y-93180000D02*
X129710000Y-92180000D01*
X127905563Y-85910000D02*
X120450000Y-85910000D01*
X120450000Y-94430000D02*
X120450000Y-91680000D01*
X128970000Y-93365563D02*
X127905563Y-94430000D01*
X127905563Y-94430000D02*
X120450000Y-94430000D01*
X128970000Y-86974437D02*
X128970000Y-88660000D01*
X120450000Y-85910000D02*
X120450000Y-88660000D01*
X128970000Y-86974437D02*
X127905563Y-85910000D01*
X128970000Y-93365563D02*
X128970000Y-91680000D01*
X106660000Y-116700000D02*
X104960000Y-116700000D01*
X104960000Y-116700000D02*
X104960000Y-119250000D01*
X106660000Y-116700000D02*
X106660000Y-119250000D01*
X161277258Y-93022500D02*
X160802742Y-93022500D01*
X161277258Y-91977500D02*
X160802742Y-91977500D01*
X83170000Y-71832064D02*
X83170000Y-70377936D01*
X84990000Y-71832064D02*
X84990000Y-70377936D01*
X106660000Y-108150000D02*
X104960000Y-108150000D01*
X104960000Y-108150000D02*
X104960000Y-110700000D01*
X106660000Y-108150000D02*
X106660000Y-110700000D01*
X114329648Y-81785000D02*
X114852152Y-81785000D01*
X114329648Y-80315000D02*
X114852152Y-80315000D01*
X118950000Y-95970000D02*
X118950000Y-92070000D01*
X116950000Y-95970000D02*
X116950000Y-92070000D01*
X116950000Y-95970000D02*
X118950000Y-95970000D01*
X95955000Y-77183748D02*
X95955000Y-77706252D01*
X94485000Y-77183748D02*
X94485000Y-77706252D01*
X144121000Y-82705000D02*
X148021000Y-82705000D01*
X144121000Y-84705000D02*
X148021000Y-84705000D01*
X144121000Y-82705000D02*
X144121000Y-84705000D01*
X86752500Y-73972258D02*
X86752500Y-73497742D01*
X85707500Y-73972258D02*
X85707500Y-73497742D01*
X117010000Y-97980320D02*
X117010000Y-98261480D01*
X118030000Y-97980320D02*
X118030000Y-98261480D01*
X83587258Y-89577500D02*
X83112742Y-89577500D01*
X83587258Y-90622500D02*
X83112742Y-90622500D01*
X83719420Y-74900000D02*
X84000580Y-74900000D01*
X83719420Y-73880000D02*
X84000580Y-73880000D01*
X95980000Y-119320000D02*
X95980000Y-117400000D01*
X95980000Y-123035000D02*
X86820000Y-123035000D01*
X86820000Y-123035000D02*
X86820000Y-121330000D01*
X86820000Y-117400000D02*
X86820000Y-119320000D01*
X95980000Y-121330000D02*
X95980000Y-123035000D01*
X145012742Y-92922500D02*
X145487258Y-92922500D01*
X145012742Y-91877500D02*
X145487258Y-91877500D01*
G36*
X131531806Y-93504602D02*
G01*
X131536260Y-93507936D01*
X131545748Y-93510000D01*
X131565285Y-93510000D01*
X131633406Y-93530002D01*
X131637860Y-93533336D01*
X131660583Y-93538279D01*
X131660025Y-93540844D01*
X131709606Y-93555402D01*
X131715123Y-93559532D01*
X131763827Y-93583911D01*
X131787583Y-93589079D01*
X131787025Y-93591644D01*
X131836606Y-93606202D01*
X131848084Y-93614795D01*
X131890634Y-93636094D01*
X131921180Y-93662562D01*
X131972059Y-93688030D01*
X131976023Y-93691464D01*
X132017634Y-93712294D01*
X132052220Y-93742263D01*
X132093834Y-93763093D01*
X132116979Y-93783148D01*
X132121896Y-93790800D01*
X132153822Y-93818464D01*
X132195434Y-93839293D01*
X132218579Y-93859348D01*
X132223496Y-93867000D01*
X132255422Y-93894664D01*
X132297034Y-93915493D01*
X132320179Y-93935548D01*
X132325097Y-93943202D01*
X132345578Y-93960948D01*
X132350495Y-93968600D01*
X132370978Y-93986348D01*
X132375895Y-93994000D01*
X132396378Y-94011748D01*
X132401295Y-94019400D01*
X132421778Y-94037148D01*
X132426694Y-94044798D01*
X132452465Y-94067129D01*
X132460148Y-94068800D01*
X132479285Y-94068800D01*
X132499073Y-94062990D01*
X132516548Y-94042822D01*
X132524200Y-94037905D01*
X132541948Y-94017422D01*
X132549600Y-94012505D01*
X132567348Y-93992022D01*
X132575000Y-93987105D01*
X132592748Y-93966622D01*
X132600400Y-93961705D01*
X132618148Y-93941222D01*
X132625799Y-93936306D01*
X132634881Y-93925824D01*
X132694606Y-93887441D01*
X132702273Y-93885190D01*
X132719748Y-93865022D01*
X132727400Y-93860105D01*
X132745148Y-93839622D01*
X132752799Y-93834706D01*
X132761881Y-93824224D01*
X132821606Y-93785841D01*
X132829272Y-93783590D01*
X132838081Y-93773424D01*
X132897806Y-93735041D01*
X132905472Y-93732790D01*
X132914281Y-93722624D01*
X132974006Y-93684241D01*
X132981672Y-93681990D01*
X132990481Y-93671824D01*
X133050206Y-93633441D01*
X133070970Y-93627344D01*
X133101006Y-93608041D01*
X133132766Y-93598715D01*
X133144295Y-93591305D01*
X133150965Y-93590346D01*
X133197970Y-93576544D01*
X133228006Y-93557241D01*
X133259766Y-93547915D01*
X133271295Y-93540505D01*
X133277965Y-93539546D01*
X133335965Y-93522516D01*
X133347495Y-93515105D01*
X133382998Y-93510000D01*
X133393685Y-93510000D01*
X133437565Y-93497116D01*
X133449095Y-93489705D01*
X133484598Y-93484600D01*
X133851285Y-93484600D01*
X133919406Y-93504602D01*
X133923860Y-93507936D01*
X133933348Y-93510000D01*
X133978285Y-93510000D01*
X134046406Y-93530002D01*
X134050860Y-93533336D01*
X134073583Y-93538279D01*
X134073025Y-93540844D01*
X134122606Y-93555402D01*
X134127060Y-93558736D01*
X134149783Y-93563679D01*
X134149225Y-93566244D01*
X134198806Y-93580802D01*
X134204323Y-93584932D01*
X134253031Y-93609313D01*
X134253131Y-93609335D01*
X134303831Y-93634713D01*
X134303931Y-93634735D01*
X134354631Y-93660113D01*
X134354731Y-93660135D01*
X134410459Y-93688030D01*
X134414422Y-93691464D01*
X134456034Y-93712293D01*
X134479179Y-93732348D01*
X134484097Y-93740002D01*
X134504578Y-93757748D01*
X134509495Y-93765400D01*
X134529978Y-93783148D01*
X134534896Y-93790800D01*
X134579443Y-93829401D01*
X134589278Y-93844705D01*
X134606178Y-93859348D01*
X134611095Y-93867000D01*
X134631578Y-93884748D01*
X134636495Y-93892400D01*
X134656978Y-93910148D01*
X134661894Y-93917799D01*
X134672376Y-93926881D01*
X134710759Y-93986606D01*
X134713010Y-93994272D01*
X134723176Y-94003081D01*
X134761559Y-94062806D01*
X134767656Y-94083570D01*
X134786959Y-94113606D01*
X134793056Y-94134370D01*
X134812359Y-94164406D01*
X134818456Y-94185170D01*
X134837759Y-94215206D01*
X134847085Y-94246966D01*
X134854495Y-94258495D01*
X134855454Y-94265165D01*
X134872484Y-94323165D01*
X134879895Y-94334695D01*
X134885000Y-94370198D01*
X134885000Y-94406285D01*
X134897884Y-94450165D01*
X134905295Y-94461695D01*
X134910400Y-94497198D01*
X134910400Y-94584085D01*
X134923284Y-94627965D01*
X134930695Y-94639495D01*
X134935800Y-94674998D01*
X134935800Y-94813085D01*
X134915798Y-94881206D01*
X134912464Y-94885660D01*
X134910400Y-94895148D01*
X134910400Y-94965485D01*
X134890398Y-95033606D01*
X134887064Y-95038060D01*
X134885000Y-95047548D01*
X134885000Y-95067085D01*
X134864998Y-95135206D01*
X134861664Y-95139660D01*
X134856721Y-95162383D01*
X134854156Y-95161825D01*
X134839598Y-95211406D01*
X134836264Y-95215860D01*
X134831321Y-95238583D01*
X134828756Y-95238025D01*
X134814198Y-95287606D01*
X134810068Y-95293123D01*
X134783170Y-95346859D01*
X134779736Y-95350823D01*
X134758906Y-95392434D01*
X134732438Y-95422980D01*
X134709487Y-95468831D01*
X134709465Y-95468931D01*
X134681570Y-95524659D01*
X134678136Y-95528622D01*
X134657307Y-95570234D01*
X134637252Y-95593379D01*
X134629600Y-95598296D01*
X134601936Y-95630222D01*
X134581107Y-95671834D01*
X134561052Y-95694979D01*
X134553400Y-95699896D01*
X134525736Y-95731822D01*
X134504907Y-95773434D01*
X134484852Y-95796579D01*
X134477198Y-95801497D01*
X134459452Y-95821978D01*
X134451800Y-95826895D01*
X134434052Y-95847378D01*
X134426400Y-95852295D01*
X134408652Y-95872778D01*
X134401000Y-95877695D01*
X134383252Y-95898178D01*
X134375602Y-95903094D01*
X134347936Y-95935022D01*
X134327106Y-95976636D01*
X134315719Y-95989777D01*
X134255994Y-96028159D01*
X134248327Y-96030410D01*
X134230852Y-96050578D01*
X134223200Y-96055495D01*
X134205452Y-96075978D01*
X134197800Y-96080895D01*
X134180052Y-96101378D01*
X134172400Y-96106295D01*
X134154652Y-96126778D01*
X134147000Y-96131695D01*
X134129252Y-96152178D01*
X134121600Y-96157095D01*
X134103852Y-96177578D01*
X134096200Y-96182495D01*
X134078452Y-96202978D01*
X134070800Y-96207895D01*
X134053052Y-96228378D01*
X134045400Y-96233295D01*
X134027652Y-96253778D01*
X134020000Y-96258695D01*
X134002252Y-96279178D01*
X133994600Y-96284095D01*
X133976852Y-96304578D01*
X133969200Y-96309495D01*
X133951452Y-96329978D01*
X133943800Y-96334895D01*
X133926052Y-96355378D01*
X133918400Y-96360295D01*
X133900652Y-96380778D01*
X133893000Y-96385695D01*
X133875252Y-96406178D01*
X133867600Y-96411095D01*
X133849852Y-96431578D01*
X133842200Y-96436495D01*
X133824452Y-96456978D01*
X133816800Y-96461895D01*
X133799052Y-96482378D01*
X133791400Y-96487295D01*
X133773652Y-96507778D01*
X133766000Y-96512695D01*
X133748252Y-96533178D01*
X133740600Y-96538095D01*
X133722852Y-96558578D01*
X133715200Y-96563495D01*
X133697452Y-96583978D01*
X133689800Y-96588895D01*
X133672052Y-96609378D01*
X133664401Y-96614294D01*
X133655319Y-96624776D01*
X133595594Y-96663159D01*
X133587927Y-96665410D01*
X133570452Y-96685578D01*
X133562800Y-96690495D01*
X133545052Y-96710978D01*
X133537400Y-96715895D01*
X133519652Y-96736378D01*
X133512000Y-96741295D01*
X133494252Y-96761778D01*
X133486600Y-96766695D01*
X133468852Y-96787178D01*
X133461200Y-96792095D01*
X133443452Y-96812578D01*
X133435800Y-96817495D01*
X133418052Y-96837978D01*
X133410400Y-96842895D01*
X133392652Y-96863378D01*
X133385000Y-96868295D01*
X133367252Y-96888778D01*
X133359600Y-96893695D01*
X133341852Y-96914178D01*
X133334200Y-96919095D01*
X133316452Y-96939578D01*
X133308800Y-96944495D01*
X133291052Y-96964978D01*
X133283400Y-96969895D01*
X133265652Y-96990378D01*
X133258000Y-96995295D01*
X133240252Y-97015778D01*
X133232600Y-97020695D01*
X133214852Y-97041178D01*
X133207200Y-97046095D01*
X133189452Y-97066578D01*
X133181800Y-97071495D01*
X133164052Y-97091978D01*
X133156400Y-97096895D01*
X133138652Y-97117378D01*
X133131000Y-97122295D01*
X133113252Y-97142778D01*
X133105600Y-97147695D01*
X133087852Y-97168178D01*
X133080200Y-97173095D01*
X133062452Y-97193578D01*
X133054800Y-97198495D01*
X133037052Y-97218978D01*
X133029400Y-97223895D01*
X133011652Y-97244378D01*
X133004000Y-97249295D01*
X132986252Y-97269778D01*
X132978601Y-97274694D01*
X132969519Y-97285176D01*
X132909794Y-97323559D01*
X132902127Y-97325810D01*
X132884652Y-97345978D01*
X132877000Y-97350895D01*
X132859252Y-97371378D01*
X132851600Y-97376295D01*
X132833852Y-97396778D01*
X132826200Y-97401695D01*
X132808452Y-97422178D01*
X132800800Y-97427095D01*
X132783052Y-97447578D01*
X132775400Y-97452495D01*
X132757652Y-97472978D01*
X132750000Y-97477895D01*
X132732252Y-97498378D01*
X132724600Y-97503295D01*
X132706852Y-97523778D01*
X132699200Y-97528695D01*
X132681452Y-97549178D01*
X132673800Y-97554095D01*
X132656052Y-97574578D01*
X132648400Y-97579495D01*
X132630652Y-97599978D01*
X132623000Y-97604895D01*
X132605252Y-97625378D01*
X132597601Y-97630294D01*
X132588519Y-97640776D01*
X132528793Y-97679159D01*
X132511693Y-97684180D01*
X132440697Y-97684180D01*
X132436459Y-97681866D01*
X132423296Y-97679003D01*
X132367566Y-97651107D01*
X132344421Y-97631052D01*
X132339503Y-97623398D01*
X132319022Y-97605652D01*
X132314105Y-97598000D01*
X132293622Y-97580252D01*
X132288705Y-97572600D01*
X132268222Y-97554852D01*
X132263305Y-97547200D01*
X132242822Y-97529452D01*
X132237905Y-97521800D01*
X132217422Y-97504052D01*
X132212505Y-97496400D01*
X132192022Y-97478652D01*
X132187105Y-97471000D01*
X132166622Y-97453252D01*
X132161705Y-97445600D01*
X132141222Y-97427852D01*
X132136305Y-97420200D01*
X132115822Y-97402452D01*
X132110905Y-97394800D01*
X132090422Y-97377052D01*
X132085505Y-97369400D01*
X132065022Y-97351652D01*
X132060105Y-97344000D01*
X132039622Y-97326252D01*
X132034706Y-97318602D01*
X132002778Y-97290936D01*
X131961166Y-97270107D01*
X131938021Y-97250052D01*
X131933103Y-97242398D01*
X131912622Y-97224652D01*
X131907705Y-97217000D01*
X131887222Y-97199252D01*
X131882305Y-97191600D01*
X131861822Y-97173852D01*
X131856905Y-97166200D01*
X131836422Y-97148452D01*
X131831505Y-97140800D01*
X131811022Y-97123052D01*
X131806105Y-97115400D01*
X131785622Y-97097652D01*
X131780705Y-97090000D01*
X131760222Y-97072252D01*
X131755305Y-97064600D01*
X131734822Y-97046852D01*
X131729905Y-97039200D01*
X131709422Y-97021452D01*
X131704505Y-97013800D01*
X131684022Y-96996052D01*
X131679105Y-96988400D01*
X131658622Y-96970652D01*
X131653705Y-96963000D01*
X131633222Y-96945252D01*
X131628305Y-96937600D01*
X131607822Y-96919852D01*
X131602905Y-96912200D01*
X131582422Y-96894452D01*
X131577505Y-96886800D01*
X131557022Y-96869052D01*
X131552105Y-96861400D01*
X131531622Y-96843652D01*
X131526705Y-96836000D01*
X131506222Y-96818252D01*
X131501305Y-96810600D01*
X131480822Y-96792852D01*
X131475905Y-96785200D01*
X131455422Y-96767452D01*
X131450505Y-96759800D01*
X131430022Y-96742052D01*
X131425105Y-96734400D01*
X131404622Y-96716652D01*
X131399705Y-96709000D01*
X131379222Y-96691252D01*
X131374306Y-96683602D01*
X131342378Y-96655936D01*
X131300766Y-96635107D01*
X131277621Y-96615052D01*
X131272703Y-96607398D01*
X131252222Y-96589652D01*
X131247305Y-96582000D01*
X131226822Y-96564252D01*
X131221905Y-96556600D01*
X131201422Y-96538852D01*
X131196505Y-96531200D01*
X131176022Y-96513452D01*
X131171105Y-96505800D01*
X131150622Y-96488052D01*
X131145705Y-96480400D01*
X131125222Y-96462652D01*
X131120305Y-96455000D01*
X131099822Y-96437252D01*
X131094905Y-96429600D01*
X131074422Y-96411852D01*
X131069505Y-96404200D01*
X131049022Y-96386452D01*
X131044105Y-96378800D01*
X131023622Y-96361052D01*
X131018705Y-96353400D01*
X130998222Y-96335652D01*
X130993305Y-96328000D01*
X130972822Y-96310252D01*
X130967905Y-96302600D01*
X130947422Y-96284852D01*
X130942505Y-96277200D01*
X130922022Y-96259452D01*
X130917105Y-96251800D01*
X130896622Y-96234052D01*
X130891705Y-96226400D01*
X130871222Y-96208652D01*
X130866305Y-96201000D01*
X130845822Y-96183252D01*
X130840905Y-96175600D01*
X130820422Y-96157852D01*
X130815505Y-96150200D01*
X130795022Y-96132452D01*
X130790105Y-96124800D01*
X130769622Y-96107052D01*
X130764705Y-96099400D01*
X130744222Y-96081652D01*
X130739305Y-96074000D01*
X130718822Y-96056252D01*
X130713904Y-96048600D01*
X130669357Y-96009999D01*
X130659523Y-95994697D01*
X130631178Y-95970136D01*
X130589564Y-95949306D01*
X130576423Y-95937919D01*
X130538041Y-95878194D01*
X130535790Y-95870527D01*
X130515622Y-95853052D01*
X130510705Y-95845400D01*
X130490222Y-95827652D01*
X130485305Y-95820000D01*
X130464822Y-95802252D01*
X130459906Y-95794601D01*
X130449424Y-95785519D01*
X130411041Y-95725794D01*
X130408790Y-95718127D01*
X130388622Y-95700652D01*
X130383706Y-95693001D01*
X130373224Y-95683919D01*
X130334841Y-95624194D01*
X130332590Y-95616527D01*
X130312422Y-95599052D01*
X130307506Y-95591401D01*
X130297024Y-95582319D01*
X130258641Y-95522594D01*
X130252544Y-95501830D01*
X130233241Y-95471794D01*
X130227144Y-95451030D01*
X130207841Y-95420994D01*
X130205590Y-95413328D01*
X130195424Y-95404519D01*
X130157041Y-95344794D01*
X130147715Y-95313034D01*
X130140305Y-95301505D01*
X130139346Y-95294835D01*
X130125544Y-95247830D01*
X130106241Y-95217794D01*
X130096915Y-95186034D01*
X130089505Y-95174505D01*
X130088546Y-95167835D01*
X130071516Y-95109835D01*
X130064105Y-95098305D01*
X130063146Y-95091635D01*
X130046116Y-95033635D01*
X130038705Y-95022105D01*
X130033600Y-94986602D01*
X130033600Y-94950515D01*
X130020716Y-94906635D01*
X130013305Y-94895105D01*
X130008200Y-94859602D01*
X130008200Y-94619915D01*
X130028202Y-94551794D01*
X130031536Y-94547340D01*
X130033600Y-94537852D01*
X130033600Y-94467515D01*
X130053602Y-94399394D01*
X130056936Y-94394940D01*
X130059000Y-94385452D01*
X130059000Y-94365915D01*
X130079002Y-94297794D01*
X130082336Y-94293340D01*
X130087279Y-94270617D01*
X130089844Y-94271175D01*
X130104402Y-94221594D01*
X130108532Y-94216077D01*
X130132913Y-94167369D01*
X130132935Y-94167269D01*
X130158313Y-94116569D01*
X130158335Y-94116469D01*
X130186230Y-94060741D01*
X130189664Y-94056777D01*
X130210494Y-94015166D01*
X130240463Y-93980580D01*
X130261293Y-93938966D01*
X130281348Y-93915821D01*
X130289002Y-93910903D01*
X130306748Y-93890422D01*
X130314398Y-93885506D01*
X130351529Y-93842655D01*
X130367132Y-93814081D01*
X130406914Y-93790477D01*
X130408348Y-93788822D01*
X130416000Y-93783905D01*
X130433748Y-93763422D01*
X130441400Y-93758505D01*
X130459148Y-93738022D01*
X130466799Y-93733106D01*
X130475881Y-93722624D01*
X130535606Y-93684241D01*
X130556370Y-93678144D01*
X130586406Y-93658841D01*
X130607170Y-93652744D01*
X130637206Y-93633441D01*
X130657970Y-93627344D01*
X130688006Y-93608041D01*
X130708770Y-93601944D01*
X130738806Y-93582641D01*
X130770566Y-93573315D01*
X130782095Y-93565905D01*
X130788765Y-93564946D01*
X130846765Y-93547916D01*
X130858295Y-93540505D01*
X130864965Y-93539546D01*
X130922965Y-93522516D01*
X130934495Y-93515105D01*
X130969998Y-93510000D01*
X131006085Y-93510000D01*
X131049965Y-93497116D01*
X131061495Y-93489705D01*
X131096998Y-93484600D01*
X131463685Y-93484600D01*
X131531806Y-93504602D01*
G37*
%LPC*%
D14*
X88234000Y-89039200D03*
X87284000Y-89039200D03*
X86334000Y-89039200D03*
X86334000Y-86764200D03*
X87284000Y-86764200D03*
X88234000Y-86764200D03*
D15*
X82684200Y-94266000D03*
X82684200Y-95216000D03*
X82684200Y-96166000D03*
X84959200Y-96166000D03*
X84959200Y-95216000D03*
X84959200Y-94266000D03*
D14*
X94074000Y-86834200D03*
X93124000Y-86834200D03*
X92174000Y-86834200D03*
X92174000Y-89109200D03*
X93124000Y-89109200D03*
X94074000Y-89109200D03*
D16*
X141076000Y-93875800D03*
X142026000Y-93875800D03*
X142976000Y-93875800D03*
X142976000Y-91600800D03*
X142026000Y-91600800D03*
X141076000Y-91600800D03*
D17*
X74000000Y-95000000D03*
X162510000Y-76000000D03*
X162510000Y-114000000D03*
D18*
X159500000Y-87750000D03*
D19*
X139550000Y-95825000D03*
X139550000Y-94175000D03*
D20*
X73960000Y-90250000D03*
D21*
X75260000Y-90250000D03*
D22*
X72660000Y-90250000D03*
D23*
X74100000Y-77240000D03*
X74100000Y-79780000D03*
X74100000Y-82320000D03*
X74100000Y-84860000D03*
D24*
X74100000Y-87400000D03*
D25*
X142765000Y-98640000D03*
X141115000Y-98640000D03*
D26*
X141185000Y-95560000D03*
X142735000Y-95560000D03*
D19*
X85850000Y-76165000D03*
X85850000Y-77815000D03*
D27*
X86535000Y-85040000D03*
X88085000Y-85040000D03*
D28*
X85850000Y-80865000D03*
X85850000Y-79215000D03*
D29*
X80950000Y-94825000D03*
X80950000Y-96375000D03*
D27*
X142725000Y-97100000D03*
X141175000Y-97100000D03*
D26*
X86515000Y-83500000D03*
X88065000Y-83500000D03*
D30*
X79410000Y-94825000D03*
X79410000Y-96375000D03*
D31*
X99652500Y-100200000D03*
X97777500Y-100200000D03*
D27*
X86140000Y-111890000D03*
X84590000Y-111890000D03*
D29*
X88590000Y-110760000D03*
X88590000Y-112310000D03*
D26*
X98100000Y-103550000D03*
X99650000Y-103550000D03*
D30*
X103770000Y-117070000D03*
X103770000Y-115520000D03*
D32*
X102220000Y-107010000D03*
X101250000Y-107010000D03*
D33*
X98490000Y-97850000D03*
D34*
X100790000Y-91550000D03*
D33*
X100790000Y-97850000D03*
X103090000Y-97850000D03*
D35*
X101830000Y-110860000D03*
X100560000Y-110860000D03*
X99290000Y-110860000D03*
X98020000Y-110860000D03*
X98020000Y-118060000D03*
X99290000Y-118060000D03*
X100560000Y-118060000D03*
X101830000Y-118060000D03*
D27*
X90680000Y-95650000D03*
X89130000Y-95650000D03*
D25*
X101660000Y-108510000D03*
X103310000Y-108510000D03*
D29*
X91040000Y-111910000D03*
X91040000Y-113460000D03*
D27*
X84730000Y-103800000D03*
X83180000Y-103800000D03*
D30*
X90359000Y-98740000D03*
X90359000Y-97190000D03*
D28*
X85190000Y-116160000D03*
X85190000Y-114510000D03*
D30*
X88440000Y-98740000D03*
X88440000Y-97190000D03*
D36*
X103600000Y-100010000D03*
X103600000Y-101885000D03*
D26*
X97100000Y-108900000D03*
X98650000Y-108900000D03*
D27*
X86080000Y-110300000D03*
X84530000Y-110300000D03*
D37*
X94827500Y-107850000D03*
X94827500Y-107450000D03*
X94827500Y-107050000D03*
X94827500Y-106650000D03*
X94827500Y-106250000D03*
X94827500Y-105850000D03*
X94827500Y-105450000D03*
X94827500Y-105050000D03*
X94827500Y-104650000D03*
X94827500Y-104250000D03*
X94827500Y-103850000D03*
X94827500Y-103450000D03*
X94827500Y-103050000D03*
X94827500Y-102650000D03*
D38*
X93990000Y-101812500D03*
X93590000Y-101812500D03*
X93190000Y-101812500D03*
X92790000Y-101812500D03*
X92390000Y-101812500D03*
X91990000Y-101812500D03*
X91590000Y-101812500D03*
X91190000Y-101812500D03*
X90790000Y-101812500D03*
X90390000Y-101812500D03*
X89990000Y-101812500D03*
X89590000Y-101812500D03*
X89190000Y-101812500D03*
X88790000Y-101812500D03*
D37*
X87952500Y-102650000D03*
X87952500Y-103050000D03*
X87952500Y-103450000D03*
X87952500Y-103850000D03*
X87952500Y-104250000D03*
X87952500Y-104650000D03*
X87952500Y-105050000D03*
X87952500Y-105450000D03*
X87952500Y-105850000D03*
X87952500Y-106250000D03*
X87952500Y-106650000D03*
X87952500Y-107050000D03*
X87952500Y-107450000D03*
X87952500Y-107850000D03*
D38*
X88790000Y-108687500D03*
X89190000Y-108687500D03*
X89590000Y-108687500D03*
X89990000Y-108687500D03*
X90390000Y-108687500D03*
X90790000Y-108687500D03*
X91190000Y-108687500D03*
X91590000Y-108687500D03*
X91990000Y-108687500D03*
X92390000Y-108687500D03*
X92790000Y-108687500D03*
X93190000Y-108687500D03*
X93590000Y-108687500D03*
X93990000Y-108687500D03*
D39*
X91390000Y-105250000D03*
D30*
X95150000Y-93600000D03*
X95150000Y-92050000D03*
D28*
X83390000Y-116160000D03*
X83390000Y-114510000D03*
D29*
X92640000Y-112010000D03*
X92640000Y-113560000D03*
D27*
X86080000Y-108650000D03*
X84530000Y-108650000D03*
D28*
X92340000Y-98460000D03*
X92340000Y-96810000D03*
D36*
X101550000Y-100037500D03*
X101550000Y-101912500D03*
D27*
X114034100Y-73620000D03*
X112484100Y-73620000D03*
D40*
X112340900Y-103380000D03*
X114240900Y-103380000D03*
D24*
X81050000Y-84960000D03*
D23*
X81050000Y-82420000D03*
X81050000Y-79880000D03*
X81050000Y-77340000D03*
D41*
X93255000Y-76425000D03*
X91985000Y-76425000D03*
X90715000Y-76425000D03*
X89445000Y-76425000D03*
X89445000Y-81375000D03*
X90715000Y-81375000D03*
X91985000Y-81375000D03*
X93255000Y-81375000D03*
D42*
X91350000Y-78900000D03*
D43*
X117750000Y-104050000D03*
X117750000Y-100750000D03*
D44*
X127960000Y-117250000D03*
X121460000Y-117250000D03*
D19*
X107700000Y-112600000D03*
X107700000Y-114250000D03*
D45*
X96165000Y-72020000D03*
X101565000Y-72020000D03*
D46*
X103650000Y-80100000D03*
X102250000Y-80100000D03*
D47*
X103000000Y-82600000D03*
X96500000Y-82600000D03*
X103000000Y-87100000D03*
X96500000Y-87100000D03*
D48*
X149897500Y-114740000D03*
X155822500Y-114740000D03*
D27*
X150625000Y-97900000D03*
X149075000Y-97900000D03*
D49*
X150665000Y-92310000D03*
X149015000Y-92310000D03*
D50*
X142505000Y-116995000D03*
X142505000Y-120805000D03*
D51*
X144610000Y-118900000D03*
D50*
X142505000Y-119535000D03*
X142505000Y-118265000D03*
D52*
X147970000Y-116995000D03*
X147970000Y-118265000D03*
X147970000Y-120805000D03*
X147970000Y-119535000D03*
D19*
X163420000Y-94145000D03*
X163420000Y-92495000D03*
D48*
X150097500Y-84860000D03*
X156022500Y-84860000D03*
D49*
X81025000Y-90100000D03*
X79375000Y-90100000D03*
D28*
X163469100Y-96240000D03*
X163469100Y-97890000D03*
D29*
X117570000Y-80725900D03*
X117570000Y-82275900D03*
D53*
X155910000Y-69570000D03*
X152610000Y-69570000D03*
D49*
X81025000Y-91690000D03*
X79375000Y-91690000D03*
D25*
X83605000Y-118460000D03*
X85255000Y-118460000D03*
D51*
X144610000Y-71329500D03*
D50*
X142505000Y-71964500D03*
X142505000Y-69424500D03*
X142505000Y-73234500D03*
X142505000Y-70694500D03*
D52*
X147970000Y-69424500D03*
X147970000Y-70694500D03*
X147970000Y-73234500D03*
X147970000Y-71964500D03*
D19*
X107869000Y-96090000D03*
X107869000Y-97740000D03*
X108979000Y-77510000D03*
X108979000Y-79160000D03*
D53*
X139481000Y-106375000D03*
X136181000Y-106375000D03*
D49*
X85195000Y-120170000D03*
X83545000Y-120170000D03*
D54*
X97995000Y-77500000D03*
X101995000Y-77500000D03*
D40*
X112730900Y-94700000D03*
X114630900Y-94700000D03*
D18*
X159500000Y-71250000D03*
D55*
X114934100Y-109755000D03*
X114934100Y-108485000D03*
X114934100Y-107215000D03*
X114934100Y-105945000D03*
X109984100Y-105945000D03*
X109984100Y-107215000D03*
X109984100Y-108485000D03*
X109984100Y-109755000D03*
D56*
X120350000Y-73000000D03*
D44*
X127960000Y-81220000D03*
X121460000Y-81220000D03*
D57*
X86410000Y-69445000D03*
X86410000Y-71345000D03*
D19*
X107779000Y-100690000D03*
X107779000Y-102340000D03*
D25*
X82525000Y-91700000D03*
X84175000Y-91700000D03*
D26*
X160206600Y-96245000D03*
X161756600Y-96245000D03*
D58*
X106010000Y-87245000D03*
X106010000Y-89345000D03*
D28*
X158681900Y-97910000D03*
X158681900Y-96260000D03*
D43*
X117750000Y-120950000D03*
X117750000Y-117650000D03*
D26*
X160285000Y-94170000D03*
X161835000Y-94170000D03*
D27*
X150625000Y-93950000D03*
X149075000Y-93950000D03*
D50*
X142505000Y-79035000D03*
X142505000Y-77765000D03*
X142505000Y-81575000D03*
X142505000Y-80305000D03*
D51*
X144610000Y-79670000D03*
D52*
X147970000Y-77765000D03*
X147970000Y-80305000D03*
X147970000Y-79035000D03*
X147970000Y-81575000D03*
D18*
X159500000Y-102250000D03*
D59*
X90705000Y-73645000D03*
X90705000Y-69795000D03*
D60*
X72490000Y-71200000D03*
D61*
X75030000Y-71200000D03*
X77570000Y-71200000D03*
X80110000Y-71200000D03*
D48*
X149897500Y-101880000D03*
X155822500Y-101880000D03*
D28*
X87830000Y-77570000D03*
X87830000Y-75920000D03*
D48*
X149897500Y-76140000D03*
X155822500Y-76140000D03*
D58*
X108910000Y-73820000D03*
X108910000Y-75920000D03*
D28*
X147540000Y-94025000D03*
X147540000Y-92375000D03*
D62*
X105300000Y-69330000D03*
X105300000Y-72630000D03*
D50*
X133915000Y-77765000D03*
X133915000Y-81575000D03*
D51*
X136020000Y-79670000D03*
D50*
X133915000Y-79035000D03*
X133915000Y-80305000D03*
D52*
X139380000Y-77765000D03*
X139380000Y-81575000D03*
X139380000Y-80305000D03*
X139380000Y-79035000D03*
D50*
X133915000Y-87265000D03*
X133915000Y-85995000D03*
X133915000Y-89805000D03*
X133915000Y-88535000D03*
D51*
X136020000Y-87900000D03*
D52*
X139380000Y-85995000D03*
X139380000Y-88535000D03*
X139380000Y-89805000D03*
X139380000Y-87265000D03*
D55*
X116184100Y-79125000D03*
X116184100Y-77855000D03*
X116184100Y-76585000D03*
X116184100Y-75315000D03*
X111234100Y-75315000D03*
X111234100Y-76585000D03*
X111234100Y-77855000D03*
X111234100Y-79125000D03*
D19*
X107069000Y-74210000D03*
X107069000Y-75860000D03*
D63*
X114450000Y-72050000D03*
X115950000Y-72050000D03*
X115950000Y-69350000D03*
X114450000Y-69350000D03*
D19*
X107919000Y-81415000D03*
X107919000Y-83065000D03*
D51*
X144610000Y-87900000D03*
D50*
X142505000Y-85995000D03*
X142505000Y-88535000D03*
X142505000Y-89805000D03*
X142505000Y-87265000D03*
D52*
X147970000Y-85995000D03*
X147970000Y-89805000D03*
X147970000Y-88535000D03*
X147970000Y-87265000D03*
D64*
X111759100Y-81000000D03*
X109859100Y-81000000D03*
D26*
X92575000Y-85100000D03*
X94125000Y-85100000D03*
D55*
X115144100Y-92495000D03*
X115144100Y-91225000D03*
X115144100Y-89955000D03*
X115144100Y-88685000D03*
X110194100Y-88685000D03*
X110194100Y-89955000D03*
X110194100Y-91225000D03*
X110194100Y-92495000D03*
D48*
X149897500Y-105920000D03*
X155822500Y-105920000D03*
D55*
X114944100Y-117525000D03*
X114944100Y-116255000D03*
X114944100Y-114985000D03*
X114944100Y-113715000D03*
X109994100Y-113715000D03*
X109994100Y-114985000D03*
X109994100Y-116255000D03*
X109994100Y-117525000D03*
D25*
X100887000Y-80124900D03*
X99237000Y-80124900D03*
D55*
X115134100Y-86875000D03*
X115134100Y-85605000D03*
X115134100Y-84335000D03*
X115134100Y-83065000D03*
X110184100Y-83065000D03*
X110184100Y-84335000D03*
X110184100Y-85605000D03*
X110184100Y-86875000D03*
D19*
X107821000Y-108905000D03*
X107821000Y-110555000D03*
D58*
X106010000Y-83920000D03*
X106010000Y-86020000D03*
D25*
X95983900Y-80110000D03*
X97633900Y-80110000D03*
D48*
X149897500Y-110620000D03*
X155822500Y-110620000D03*
D50*
X142505000Y-111085000D03*
D51*
X144610000Y-110450000D03*
D50*
X142505000Y-112355000D03*
X142505000Y-108545000D03*
X142505000Y-109815000D03*
D52*
X147970000Y-108545000D03*
X147970000Y-112355000D03*
X147970000Y-109815000D03*
X147970000Y-111085000D03*
D44*
X127960000Y-108200000D03*
X121460000Y-108200000D03*
D53*
X147421000Y-114735000D03*
X144121000Y-114735000D03*
D24*
X74100000Y-106000000D03*
D23*
X74100000Y-103460000D03*
X74100000Y-100920000D03*
D53*
X144810000Y-106375000D03*
X148110000Y-106375000D03*
D19*
X107719000Y-104395000D03*
X107719000Y-106045000D03*
D40*
X112640900Y-111680000D03*
X114540900Y-111680000D03*
D19*
X107900000Y-87570000D03*
X107900000Y-89220000D03*
D65*
X101150000Y-120400000D03*
X97850000Y-120400000D03*
D50*
X133915000Y-69415000D03*
X133915000Y-70685000D03*
X133915000Y-73225000D03*
D51*
X136020000Y-71320000D03*
D50*
X133915000Y-71955000D03*
D52*
X139380000Y-69415000D03*
X139380000Y-71955000D03*
X139380000Y-70685000D03*
X139380000Y-73225000D03*
D58*
X106010000Y-92120000D03*
X106010000Y-94220000D03*
D66*
X156712500Y-97975000D03*
X156712500Y-97325000D03*
X156712500Y-96675000D03*
X156712500Y-96025000D03*
X152487500Y-96025000D03*
X152487500Y-96675000D03*
X152487500Y-97325000D03*
X152487500Y-97975000D03*
D58*
X106010000Y-80570000D03*
X106010000Y-82670000D03*
X105810000Y-95900000D03*
X105810000Y-98000000D03*
D53*
X139531000Y-83645000D03*
X136231000Y-83645000D03*
D25*
X144356900Y-97738000D03*
X146006900Y-97738000D03*
D27*
X146015000Y-94060000D03*
X144465000Y-94060000D03*
D55*
X114984100Y-101305000D03*
X114984100Y-100035000D03*
X114984100Y-98765000D03*
X114984100Y-97495000D03*
X110034100Y-97495000D03*
X110034100Y-98765000D03*
X110034100Y-100035000D03*
X110034100Y-101305000D03*
D50*
X133915000Y-112355000D03*
X133915000Y-109815000D03*
D51*
X136020000Y-110450000D03*
D50*
X133915000Y-108545000D03*
X133915000Y-111085000D03*
D52*
X139380000Y-108545000D03*
X139380000Y-109815000D03*
X139380000Y-112355000D03*
X139380000Y-111085000D03*
D67*
X90850000Y-93750000D03*
X93050000Y-93750000D03*
X93050000Y-92050000D03*
X90850000Y-92050000D03*
D49*
X149025000Y-96230900D03*
X150675000Y-96230900D03*
D19*
X107600000Y-117400000D03*
X107600000Y-119050000D03*
D44*
X127960000Y-99200000D03*
X121460000Y-99200000D03*
D58*
X107110000Y-77270000D03*
X107110000Y-79370000D03*
D49*
X80915000Y-118200000D03*
X79265000Y-118200000D03*
D66*
X156712500Y-94315000D03*
X156712500Y-93665000D03*
X156712500Y-93015000D03*
X156712500Y-92365000D03*
X152487500Y-92365000D03*
X152487500Y-93015000D03*
X152487500Y-93665000D03*
X152487500Y-94315000D03*
D23*
X74100000Y-109690000D03*
X74100000Y-112230000D03*
X74100000Y-114770000D03*
X74100000Y-117310000D03*
D24*
X74100000Y-119850000D03*
D63*
X111050000Y-72050000D03*
X112550000Y-72050000D03*
X112550000Y-69350000D03*
X111050000Y-69350000D03*
D19*
X107800000Y-92370000D03*
X107800000Y-94020000D03*
D27*
X145943400Y-96025000D03*
X144393400Y-96025000D03*
D43*
X117850000Y-87120000D03*
X117850000Y-83820000D03*
D51*
X136020000Y-118900000D03*
D50*
X133915000Y-118265000D03*
X133915000Y-120805000D03*
X133915000Y-119535000D03*
X133915000Y-116995000D03*
D52*
X139380000Y-116995000D03*
X139380000Y-119535000D03*
X139380000Y-120805000D03*
X139380000Y-118265000D03*
D53*
X139110000Y-92155000D03*
X135810000Y-92155000D03*
X139481000Y-114635000D03*
X136181000Y-114635000D03*
D29*
X117270000Y-114005900D03*
X117270000Y-115555900D03*
D28*
X158740000Y-94205000D03*
X158740000Y-92555000D03*
D29*
X117470000Y-88975900D03*
X117470000Y-90525900D03*
D49*
X161843100Y-97842000D03*
X160193100Y-97842000D03*
D53*
X139610000Y-75295000D03*
X136310000Y-75295000D03*
X148021000Y-75495000D03*
X144721000Y-75495000D03*
X139160000Y-97850000D03*
X135860000Y-97850000D03*
D27*
X94125000Y-83540000D03*
X92575000Y-83540000D03*
D58*
X105810000Y-112275000D03*
X105810000Y-114375000D03*
D53*
X155221000Y-120535000D03*
X151921000Y-120535000D03*
D50*
X142505000Y-102944500D03*
X142505000Y-100404500D03*
D51*
X144610000Y-102309500D03*
D50*
X142505000Y-101674500D03*
X142505000Y-104214500D03*
D52*
X147970000Y-100404500D03*
X147970000Y-102944500D03*
X147970000Y-101674500D03*
X147970000Y-104214500D03*
D50*
X133915000Y-101665000D03*
X133915000Y-102935000D03*
X133915000Y-100395000D03*
D51*
X136020000Y-102300000D03*
D50*
X133915000Y-104205000D03*
D52*
X139380000Y-100395000D03*
X139380000Y-101665000D03*
X139380000Y-104205000D03*
X139380000Y-102935000D03*
D49*
X81025000Y-93250000D03*
X79375000Y-93250000D03*
D28*
X147540000Y-97740000D03*
X147540000Y-96090000D03*
D63*
X107650000Y-72050000D03*
X109150000Y-72050000D03*
X109150000Y-69350000D03*
X107650000Y-69350000D03*
D48*
X149897500Y-80240000D03*
X155822500Y-80240000D03*
X150097500Y-88800000D03*
X156022500Y-88800000D03*
D18*
X159500000Y-119000000D03*
D58*
X105810000Y-104050000D03*
X105810000Y-106150000D03*
X105810000Y-100450000D03*
X105810000Y-102550000D03*
D18*
X159500000Y-80600000D03*
D19*
X107921000Y-84525000D03*
X107921000Y-86175000D03*
D40*
X112530900Y-119730000D03*
X114430900Y-119730000D03*
D43*
X117650000Y-112400000D03*
X117650000Y-109100000D03*
D49*
X80925000Y-114100000D03*
X79275000Y-114100000D03*
D29*
X117370000Y-105805900D03*
X117370000Y-107355900D03*
D18*
X159500000Y-109400000D03*
D49*
X79275000Y-115990000D03*
X80925000Y-115990000D03*
D44*
X127960000Y-90170000D03*
X121460000Y-90170000D03*
D58*
X105810000Y-117150000D03*
X105810000Y-119250000D03*
D49*
X161865000Y-92500000D03*
X160215000Y-92500000D03*
D68*
X84080000Y-72567500D03*
X84080000Y-69642500D03*
D58*
X105810000Y-108600000D03*
X105810000Y-110700000D03*
D40*
X113640900Y-81050000D03*
X115540900Y-81050000D03*
D43*
X117950000Y-95370000D03*
X117950000Y-92070000D03*
D57*
X95220000Y-76495000D03*
X95220000Y-78395000D03*
D53*
X148021000Y-83705000D03*
X144721000Y-83705000D03*
D28*
X86230000Y-74560000D03*
X86230000Y-72910000D03*
D29*
X117520000Y-97345900D03*
X117520000Y-98895900D03*
D49*
X84175000Y-90100000D03*
X82525000Y-90100000D03*
D26*
X83085000Y-74390000D03*
X84635000Y-74390000D03*
D69*
X94290000Y-116645000D03*
X88510000Y-116645000D03*
D70*
X88050000Y-115580000D03*
X88850000Y-115580000D03*
X90150000Y-115580000D03*
X91150000Y-115580000D03*
X91650000Y-115580000D03*
X92650000Y-115580000D03*
X93950000Y-115580000D03*
X94750000Y-115580000D03*
X94450000Y-115580000D03*
X93650000Y-115580000D03*
X93150000Y-115580000D03*
X92150000Y-115580000D03*
X90650000Y-115580000D03*
X89650000Y-115580000D03*
X89150000Y-115580000D03*
X88350000Y-115580000D03*
D71*
X95720000Y-116145000D03*
X87080000Y-116145000D03*
D72*
X87080000Y-120325000D03*
X95720000Y-120325000D03*
D25*
X144425000Y-92400000D03*
X146075000Y-92400000D03*
D56*
X127350000Y-73000000D03*
M02*
