G04 #@! TF.GenerationSoftware,KiCad,Pcbnew,6.0.0-rc2*
G04 #@! TF.CreationDate,2022-06-30T13:47:11-07:00*
G04 #@! TF.ProjectId,RP2040_motor-rounded,52503230-3430-45f6-9d6f-746f722d726f,REV1*
G04 #@! TF.SameCoordinates,Original*
G04 #@! TF.FileFunction,Legend,Top*
G04 #@! TF.FilePolarity,Positive*
%FSLAX46Y46*%
G04 Gerber Fmt 4.6, Leading zero omitted, Abs format (unit mm)*
G04 Created by KiCad (PCBNEW 6.0.0-rc2) date 2022-06-30 13:47:11*
%MOMM*%
%LPD*%
G01*
G04 APERTURE LIST*
G04 Aperture macros list*
%AMRoundRect*
0 Rectangle with rounded corners*
0 $1 Rounding radius*
0 $2 $3 $4 $5 $6 $7 $8 $9 X,Y pos of 4 corners*
0 Add a 4 corners polygon primitive as box body*
4,1,4,$2,$3,$4,$5,$6,$7,$8,$9,$2,$3,0*
0 Add four circle primitives for the rounded corners*
1,1,$1+$1,$2,$3*
1,1,$1+$1,$4,$5*
1,1,$1+$1,$6,$7*
1,1,$1+$1,$8,$9*
0 Add four rect primitives between the rounded corners*
20,1,$1+$1,$2,$3,$4,$5,0*
20,1,$1+$1,$4,$5,$6,$7,0*
20,1,$1+$1,$6,$7,$8,$9,0*
20,1,$1+$1,$8,$9,$2,$3,0*%
%AMFreePoly0*
4,1,37,0.586062,0.786062,0.601000,0.750000,0.601000,-0.750000,0.586062,-0.786062,0.550000,-0.801000,0.000000,-0.801000,-0.012525,-0.795812,-0.080875,-0.794559,-0.095149,-0.792248,-0.230464,-0.749973,-0.243516,-0.743747,-0.361526,-0.665192,-0.372306,-0.655554,-0.463526,-0.547035,-0.471167,-0.534759,-0.528262,-0.405000,-0.532150,-0.391073,-0.549733,-0.256613,-0.548336,-0.256430,-0.551000,-0.250000,
-0.551000,0.250000,-0.550512,0.251179,-0.550356,0.263956,-0.528545,0.404033,-0.524317,0.417860,-0.464069,0.546185,-0.456130,0.558271,-0.362286,0.664529,-0.351274,0.673901,-0.231379,0.749549,-0.218180,0.755454,-0.081873,0.794411,-0.067546,0.796373,-0.011990,0.796033,0.000000,0.801000,0.550000,0.801000,0.586062,0.786062,0.586062,0.786062,$1*%
%AMFreePoly1*
4,1,37,0.012349,0.795885,0.074216,0.795507,0.088518,0.793370,0.224339,0.752751,0.237465,0.746685,0.356427,0.669578,0.367324,0.660073,0.459862,0.552676,0.467652,0.540494,0.526329,0.411442,0.530388,0.397563,0.550485,0.257230,0.551000,0.250000,0.551000,-0.250000,0.550996,-0.250622,0.550847,-0.262838,0.550144,-0.270677,0.526624,-0.410478,0.522228,-0.424254,0.460416,-0.551833,
0.452330,-0.563821,0.357195,-0.668925,0.346069,-0.678161,0.225259,-0.752338,0.211989,-0.758081,0.075216,-0.795370,0.060866,-0.797157,0.011464,-0.796251,0.000000,-0.801000,-0.550000,-0.801000,-0.586062,-0.786062,-0.601000,-0.750000,-0.601000,0.750000,-0.586062,0.786062,-0.550000,0.801000,0.000000,0.801000,0.012349,0.795885,0.012349,0.795885,$1*%
G04 Aperture macros list end*
%ADD10C,0.200000*%
%ADD11C,0.300000*%
%ADD12C,0.150000*%
%ADD13C,0.120000*%
%ADD14RoundRect,0.294750X0.243750X0.456250X-0.243750X0.456250X-0.243750X-0.456250X0.243750X-0.456250X0*%
%ADD15RoundRect,0.276000X0.225000X0.250000X-0.225000X0.250000X-0.225000X-0.250000X0.225000X-0.250000X0*%
%ADD16RoundRect,0.276000X-0.250000X0.225000X-0.250000X-0.225000X0.250000X-0.225000X0.250000X0.225000X0*%
%ADD17RoundRect,0.276000X-0.225000X-0.250000X0.225000X-0.250000X0.225000X0.250000X-0.225000X0.250000X0*%
%ADD18RoundRect,0.276000X0.250000X-0.225000X0.250000X0.225000X-0.250000X0.225000X-0.250000X-0.225000X0*%
%ADD19RoundRect,0.198500X0.147500X0.172500X-0.147500X0.172500X-0.147500X-0.172500X0.147500X-0.172500X0*%
%ADD20RoundRect,0.051000X0.750000X-1.000000X0.750000X1.000000X-0.750000X1.000000X-0.750000X-1.000000X0*%
%ADD21RoundRect,0.051000X1.900000X-1.000000X1.900000X1.000000X-1.900000X1.000000X-1.900000X-1.000000X0*%
%ADD22RoundRect,0.201000X-0.150000X0.650000X-0.150000X-0.650000X0.150000X-0.650000X0.150000X0.650000X0*%
%ADD23RoundRect,0.251000X-0.200000X-0.275000X0.200000X-0.275000X0.200000X0.275000X-0.200000X0.275000X0*%
%ADD24RoundRect,0.251000X0.275000X-0.200000X0.275000X0.200000X-0.275000X0.200000X-0.275000X-0.200000X0*%
%ADD25RoundRect,0.294750X-0.456250X0.243750X-0.456250X-0.243750X0.456250X-0.243750X0.456250X0.243750X0*%
%ADD26RoundRect,0.101000X0.387500X0.050000X-0.387500X0.050000X-0.387500X-0.050000X0.387500X-0.050000X0*%
%ADD27RoundRect,0.101000X0.050000X0.387500X-0.050000X0.387500X-0.050000X-0.387500X0.050000X-0.387500X0*%
%ADD28RoundRect,0.195000X1.456000X1.456000X-1.456000X1.456000X-1.456000X-1.456000X1.456000X-1.456000X0*%
%ADD29RoundRect,0.301000X-0.250000X-0.475000X0.250000X-0.475000X0.250000X0.475000X-0.250000X0.475000X0*%
%ADD30C,4.002000*%
%ADD31RoundRect,0.301000X0.845000X-0.620000X0.845000X0.620000X-0.845000X0.620000X-0.845000X-0.620000X0*%
%ADD32O,2.292000X1.842000*%
%ADD33RoundRect,0.201000X-0.150000X0.825000X-0.150000X-0.825000X0.150000X-0.825000X0.150000X0.825000X0*%
%ADD34RoundRect,0.676000X-1.075000X0.625000X-1.075000X-0.625000X1.075000X-0.625000X1.075000X0.625000X0*%
%ADD35RoundRect,0.051000X0.600000X-0.450000X0.600000X0.450000X-0.600000X0.450000X-0.600000X-0.450000X0*%
%ADD36RoundRect,0.301000X1.500000X1.000000X-1.500000X1.000000X-1.500000X-1.000000X1.500000X-1.000000X0*%
%ADD37RoundRect,0.251000X-0.275000X0.200000X-0.275000X-0.200000X0.275000X-0.200000X0.275000X0.200000X0*%
%ADD38RoundRect,0.301000X-1.500000X-0.550000X1.500000X-0.550000X1.500000X0.550000X-1.500000X0.550000X0*%
%ADD39RoundRect,0.051000X0.300000X0.350000X-0.300000X0.350000X-0.300000X-0.350000X0.300000X-0.350000X0*%
%ADD40RoundRect,0.051000X-0.600000X-0.500000X0.600000X-0.500000X0.600000X0.500000X-0.600000X0.500000X0*%
%ADD41RoundRect,0.301000X0.362500X1.425000X-0.362500X1.425000X-0.362500X-1.425000X0.362500X-1.425000X0*%
%ADD42RoundRect,0.251000X0.200000X0.275000X-0.200000X0.275000X-0.200000X-0.275000X0.200000X-0.275000X0*%
%ADD43RoundRect,0.301000X-0.325000X-0.650000X0.325000X-0.650000X0.325000X0.650000X-0.325000X0.650000X0*%
%ADD44RoundRect,0.051000X0.635000X0.305000X-0.635000X0.305000X-0.635000X-0.305000X0.635000X-0.305000X0*%
%ADD45RoundRect,0.051000X0.510000X0.305000X-0.510000X0.305000X-0.510000X-0.305000X0.510000X-0.305000X0*%
%ADD46RoundRect,0.051000X1.905000X1.955000X-1.905000X1.955000X-1.905000X-1.955000X1.905000X-1.955000X0*%
%ADD47RoundRect,0.051000X-0.450000X-0.600000X0.450000X-0.600000X0.450000X0.600000X-0.450000X0.600000X0*%
%ADD48RoundRect,0.051000X-1.250000X-0.900000X1.250000X-0.900000X1.250000X0.900000X-1.250000X0.900000X0*%
%ADD49C,4.102000*%
%ADD50RoundRect,0.201000X0.825000X0.150000X-0.825000X0.150000X-0.825000X-0.150000X0.825000X-0.150000X0*%
%ADD51RoundRect,0.201000X-0.150000X0.512500X-0.150000X-0.512500X0.150000X-0.512500X0.150000X0.512500X0*%
%ADD52C,6.102000*%
%ADD53RoundRect,0.301000X-0.475000X0.250000X-0.475000X-0.250000X0.475000X-0.250000X0.475000X0.250000X0*%
%ADD54RoundRect,0.301000X0.325000X1.100000X-0.325000X1.100000X-0.325000X-1.100000X0.325000X-1.100000X0*%
%ADD55RoundRect,0.051000X-0.225000X0.300000X-0.225000X-0.300000X0.225000X-0.300000X0.225000X0.300000X0*%
%ADD56RoundRect,0.051000X2.750000X-1.075000X2.750000X1.075000X-2.750000X1.075000X-2.750000X-1.075000X0*%
%ADD57RoundRect,0.301000X-0.620000X-0.845000X0.620000X-0.845000X0.620000X0.845000X-0.620000X0.845000X0*%
%ADD58O,1.842000X2.292000*%
%ADD59RoundRect,0.051000X0.450000X0.600000X-0.450000X0.600000X-0.450000X-0.600000X0.450000X-0.600000X0*%
%ADD60RoundRect,0.051000X0.375000X-0.450000X0.375000X0.450000X-0.375000X0.450000X-0.375000X-0.450000X0*%
%ADD61RoundRect,0.301000X0.250000X0.475000X-0.250000X0.475000X-0.250000X-0.475000X0.250000X-0.475000X0*%
%ADD62RoundRect,0.151000X0.712500X0.100000X-0.712500X0.100000X-0.712500X-0.100000X0.712500X-0.100000X0*%
%ADD63RoundRect,0.201000X0.150000X-0.512500X0.150000X0.512500X-0.150000X0.512500X-0.150000X-0.512500X0*%
%ADD64RoundRect,0.051000X-0.700000X-0.600000X0.700000X-0.600000X0.700000X0.600000X-0.700000X0.600000X0*%
%ADD65FreePoly0,0.000000*%
%ADD66RoundRect,0.051000X-0.500000X-0.750000X0.500000X-0.750000X0.500000X0.750000X-0.500000X0.750000X0*%
%ADD67FreePoly1,0.000000*%
%ADD68RoundRect,0.201000X-0.512500X-0.150000X0.512500X-0.150000X0.512500X0.150000X-0.512500X0.150000X0*%
%ADD69RoundRect,0.051000X0.890000X-1.715000X0.890000X1.715000X-0.890000X1.715000X-0.890000X-1.715000X0*%
%ADD70RoundRect,0.301000X0.625000X-0.312500X0.625000X0.312500X-0.625000X0.312500X-0.625000X-0.312500X0*%
%ADD71C,0.752000*%
%ADD72RoundRect,0.051000X-0.150000X-0.575000X0.150000X-0.575000X0.150000X0.575000X-0.150000X0.575000X0*%
%ADD73O,1.102000X2.202000*%
%ADD74O,1.102000X1.702000*%
G04 APERTURE END LIST*
D10*
X125490476Y-68452380D02*
X125823809Y-69452380D01*
X126157142Y-68452380D01*
X126490476Y-69452380D02*
X126490476Y-68452380D01*
X126823809Y-69166666D01*
X127157142Y-68452380D01*
X127157142Y-69452380D01*
X127823809Y-68452380D02*
X128014285Y-68452380D01*
X128109523Y-68500000D01*
X128204761Y-68595238D01*
X128252380Y-68785714D01*
X128252380Y-69119047D01*
X128204761Y-69309523D01*
X128109523Y-69404761D01*
X128014285Y-69452380D01*
X127823809Y-69452380D01*
X127728571Y-69404761D01*
X127633333Y-69309523D01*
X127585714Y-69119047D01*
X127585714Y-68785714D01*
X127633333Y-68595238D01*
X127728571Y-68500000D01*
X127823809Y-68452380D01*
X128538095Y-68452380D02*
X129109523Y-68452380D01*
X128823809Y-69452380D02*
X128823809Y-68452380D01*
X119638095Y-68500000D02*
X119542857Y-68452380D01*
X119400000Y-68452380D01*
X119257142Y-68500000D01*
X119161904Y-68595238D01*
X119114285Y-68690476D01*
X119066666Y-68880952D01*
X119066666Y-69023809D01*
X119114285Y-69214285D01*
X119161904Y-69309523D01*
X119257142Y-69404761D01*
X119400000Y-69452380D01*
X119495238Y-69452380D01*
X119638095Y-69404761D01*
X119685714Y-69357142D01*
X119685714Y-69023809D01*
X119495238Y-69023809D01*
X120114285Y-69452380D02*
X120114285Y-68452380D01*
X120685714Y-69452380D01*
X120685714Y-68452380D01*
X121161904Y-69452380D02*
X121161904Y-68452380D01*
X121400000Y-68452380D01*
X121542857Y-68500000D01*
X121638095Y-68595238D01*
X121685714Y-68690476D01*
X121733333Y-68880952D01*
X121733333Y-69023809D01*
X121685714Y-69214285D01*
X121638095Y-69309523D01*
X121542857Y-69404761D01*
X121400000Y-69452380D01*
X121161904Y-69452380D01*
X77700000Y-78025714D02*
X77700000Y-76597142D01*
X80423809Y-87904761D02*
X80566666Y-87952380D01*
X80804761Y-87952380D01*
X80900000Y-87904761D01*
X80947619Y-87857142D01*
X80995238Y-87761904D01*
X80995238Y-87666666D01*
X80947619Y-87571428D01*
X80900000Y-87523809D01*
X80804761Y-87476190D01*
X80614285Y-87428571D01*
X80519047Y-87380952D01*
X80471428Y-87333333D01*
X80423809Y-87238095D01*
X80423809Y-87142857D01*
X80471428Y-87047619D01*
X80519047Y-87000000D01*
X80614285Y-86952380D01*
X80852380Y-86952380D01*
X80995238Y-87000000D01*
X81804761Y-87904761D02*
X81709523Y-87952380D01*
X81519047Y-87952380D01*
X81423809Y-87904761D01*
X81376190Y-87809523D01*
X81376190Y-87428571D01*
X81423809Y-87333333D01*
X81519047Y-87285714D01*
X81709523Y-87285714D01*
X81804761Y-87333333D01*
X81852380Y-87428571D01*
X81852380Y-87523809D01*
X81376190Y-87619047D01*
X82280952Y-87952380D02*
X82280952Y-87285714D01*
X82280952Y-87476190D02*
X82328571Y-87380952D01*
X82376190Y-87333333D01*
X82471428Y-87285714D01*
X82566666Y-87285714D01*
X82900000Y-87952380D02*
X82900000Y-87285714D01*
X82900000Y-86952380D02*
X82852380Y-87000000D01*
X82900000Y-87047619D01*
X82947619Y-87000000D01*
X82900000Y-86952380D01*
X82900000Y-87047619D01*
X83804761Y-87952380D02*
X83804761Y-87428571D01*
X83757142Y-87333333D01*
X83661904Y-87285714D01*
X83471428Y-87285714D01*
X83376190Y-87333333D01*
X83804761Y-87904761D02*
X83709523Y-87952380D01*
X83471428Y-87952380D01*
X83376190Y-87904761D01*
X83328571Y-87809523D01*
X83328571Y-87714285D01*
X83376190Y-87619047D01*
X83471428Y-87571428D01*
X83709523Y-87571428D01*
X83804761Y-87523809D01*
X84423809Y-87952380D02*
X84328571Y-87904761D01*
X84280952Y-87809523D01*
X84280952Y-86952380D01*
D11*
X162828571Y-70900000D02*
X163542857Y-70900000D01*
X162685714Y-71328571D02*
X163185714Y-69828571D01*
X163685714Y-71328571D01*
X164114285Y-69971428D02*
X164185714Y-69900000D01*
X164328571Y-69828571D01*
X164685714Y-69828571D01*
X164828571Y-69900000D01*
X164900000Y-69971428D01*
X164971428Y-70114285D01*
X164971428Y-70257142D01*
X164900000Y-70471428D01*
X164042857Y-71328571D01*
X164971428Y-71328571D01*
D10*
X77820476Y-102194761D02*
X77963333Y-102242380D01*
X78201428Y-102242380D01*
X78296666Y-102194761D01*
X78344285Y-102147142D01*
X78391904Y-102051904D01*
X78391904Y-101956666D01*
X78344285Y-101861428D01*
X78296666Y-101813809D01*
X78201428Y-101766190D01*
X78010952Y-101718571D01*
X77915714Y-101670952D01*
X77868095Y-101623333D01*
X77820476Y-101528095D01*
X77820476Y-101432857D01*
X77868095Y-101337619D01*
X77915714Y-101290000D01*
X78010952Y-101242380D01*
X78249047Y-101242380D01*
X78391904Y-101290000D01*
X78725238Y-101242380D02*
X78963333Y-102242380D01*
X79153809Y-101528095D01*
X79344285Y-102242380D01*
X79582380Y-101242380D01*
X79963333Y-102242380D02*
X79963333Y-101242380D01*
X80201428Y-101242380D01*
X80344285Y-101290000D01*
X80439523Y-101385238D01*
X80487142Y-101480476D01*
X80534761Y-101670952D01*
X80534761Y-101813809D01*
X80487142Y-102004285D01*
X80439523Y-102099523D01*
X80344285Y-102194761D01*
X80201428Y-102242380D01*
X79963333Y-102242380D01*
X77820476Y-103804761D02*
X77963333Y-103852380D01*
X78201428Y-103852380D01*
X78296666Y-103804761D01*
X78344285Y-103757142D01*
X78391904Y-103661904D01*
X78391904Y-103566666D01*
X78344285Y-103471428D01*
X78296666Y-103423809D01*
X78201428Y-103376190D01*
X78010952Y-103328571D01*
X77915714Y-103280952D01*
X77868095Y-103233333D01*
X77820476Y-103138095D01*
X77820476Y-103042857D01*
X77868095Y-102947619D01*
X77915714Y-102900000D01*
X78010952Y-102852380D01*
X78249047Y-102852380D01*
X78391904Y-102900000D01*
X78725238Y-102852380D02*
X78963333Y-103852380D01*
X79153809Y-103138095D01*
X79344285Y-103852380D01*
X79582380Y-102852380D01*
X80534761Y-103757142D02*
X80487142Y-103804761D01*
X80344285Y-103852380D01*
X80249047Y-103852380D01*
X80106190Y-103804761D01*
X80010952Y-103709523D01*
X79963333Y-103614285D01*
X79915714Y-103423809D01*
X79915714Y-103280952D01*
X79963333Y-103090476D01*
X80010952Y-102995238D01*
X80106190Y-102900000D01*
X80249047Y-102852380D01*
X80344285Y-102852380D01*
X80487142Y-102900000D01*
X80534761Y-102947619D01*
X81439523Y-103852380D02*
X80963333Y-103852380D01*
X80963333Y-102852380D01*
X81772857Y-103852380D02*
X81772857Y-102852380D01*
X82344285Y-103852380D02*
X81915714Y-103280952D01*
X82344285Y-102852380D02*
X81772857Y-103423809D01*
X78439523Y-105462380D02*
X78106190Y-104986190D01*
X77868095Y-105462380D02*
X77868095Y-104462380D01*
X78249047Y-104462380D01*
X78344285Y-104510000D01*
X78391904Y-104557619D01*
X78439523Y-104652857D01*
X78439523Y-104795714D01*
X78391904Y-104890952D01*
X78344285Y-104938571D01*
X78249047Y-104986190D01*
X77868095Y-104986190D01*
X78868095Y-104462380D02*
X78868095Y-105271904D01*
X78915714Y-105367142D01*
X78963333Y-105414761D01*
X79058571Y-105462380D01*
X79249047Y-105462380D01*
X79344285Y-105414761D01*
X79391904Y-105367142D01*
X79439523Y-105271904D01*
X79439523Y-104462380D01*
X79915714Y-105462380D02*
X79915714Y-104462380D01*
X80487142Y-105462380D01*
X80487142Y-104462380D01*
X78243913Y-117716977D02*
X78243913Y-117383644D01*
X78767722Y-117240787D02*
X78767722Y-117716977D01*
X77767722Y-117716977D01*
X77767722Y-117240787D01*
X78767722Y-116812215D02*
X77767722Y-116812215D01*
X78767722Y-116240787D01*
X77767722Y-116240787D01*
X78672484Y-115193168D02*
X78720103Y-115240787D01*
X78767722Y-115383644D01*
X78767722Y-115478882D01*
X78720103Y-115621739D01*
X78624865Y-115716977D01*
X78529627Y-115764596D01*
X78339151Y-115812215D01*
X78196294Y-115812215D01*
X78005818Y-115764596D01*
X77910580Y-115716977D01*
X77815342Y-115621739D01*
X77767722Y-115478882D01*
X77767722Y-115383644D01*
X77815342Y-115240787D01*
X77862961Y-115193168D01*
X77862961Y-114812215D02*
X77815342Y-114764596D01*
X77767722Y-114669358D01*
X77767722Y-114431263D01*
X77815342Y-114336025D01*
X77862961Y-114288406D01*
X77958199Y-114240787D01*
X78053437Y-114240787D01*
X78196294Y-114288406D01*
X78767722Y-114859834D01*
X78767722Y-114240787D01*
D11*
X163150000Y-120435714D02*
X163078571Y-120507142D01*
X162864285Y-120578571D01*
X162721428Y-120578571D01*
X162507142Y-120507142D01*
X162364285Y-120364285D01*
X162292857Y-120221428D01*
X162221428Y-119935714D01*
X162221428Y-119721428D01*
X162292857Y-119435714D01*
X162364285Y-119292857D01*
X162507142Y-119150000D01*
X162721428Y-119078571D01*
X162864285Y-119078571D01*
X163078571Y-119150000D01*
X163150000Y-119221428D01*
X164578571Y-120578571D02*
X163721428Y-120578571D01*
X164150000Y-120578571D02*
X164150000Y-119078571D01*
X164007142Y-119292857D01*
X163864285Y-119435714D01*
X163721428Y-119507142D01*
D10*
X70700000Y-77885714D02*
X70700000Y-76457142D01*
D11*
X163278571Y-101800000D02*
X163992857Y-101800000D01*
X163135714Y-102228571D02*
X163635714Y-100728571D01*
X164135714Y-102228571D01*
X165421428Y-102228571D02*
X164564285Y-102228571D01*
X164992857Y-102228571D02*
X164992857Y-100728571D01*
X164850000Y-100942857D01*
X164707142Y-101085714D01*
X164564285Y-101157142D01*
D12*
X81038095Y-112000000D02*
X80942857Y-111952380D01*
X80800000Y-111952380D01*
X80657142Y-112000000D01*
X80561904Y-112095238D01*
X80514285Y-112190476D01*
X80466666Y-112380952D01*
X80466666Y-112523809D01*
X80514285Y-112714285D01*
X80561904Y-112809523D01*
X80657142Y-112904761D01*
X80800000Y-112952380D01*
X80895238Y-112952380D01*
X81038095Y-112904761D01*
X81085714Y-112857142D01*
X81085714Y-112523809D01*
X80895238Y-112523809D01*
X81514285Y-112952380D02*
X81514285Y-111952380D01*
X82085714Y-112952380D01*
X82085714Y-111952380D01*
X82561904Y-112952380D02*
X82561904Y-111952380D01*
X82800000Y-111952380D01*
X82942857Y-112000000D01*
X83038095Y-112095238D01*
X83085714Y-112190476D01*
X83133333Y-112380952D01*
X83133333Y-112523809D01*
X83085714Y-112714285D01*
X83038095Y-112809523D01*
X82942857Y-112904761D01*
X82800000Y-112952380D01*
X82561904Y-112952380D01*
D10*
X77535714Y-88778571D02*
X77869047Y-88778571D01*
X78011904Y-89302380D02*
X77535714Y-89302380D01*
X77535714Y-88302380D01*
X78011904Y-88302380D01*
X78440476Y-89302380D02*
X78440476Y-88302380D01*
X79011904Y-89302380D01*
X79011904Y-88302380D01*
X80059523Y-89207142D02*
X80011904Y-89254761D01*
X79869047Y-89302380D01*
X79773809Y-89302380D01*
X79630952Y-89254761D01*
X79535714Y-89159523D01*
X79488095Y-89064285D01*
X79440476Y-88873809D01*
X79440476Y-88730952D01*
X79488095Y-88540476D01*
X79535714Y-88445238D01*
X79630952Y-88350000D01*
X79773809Y-88302380D01*
X79869047Y-88302380D01*
X80011904Y-88350000D01*
X80059523Y-88397619D01*
X81011904Y-89302380D02*
X80440476Y-89302380D01*
X80726190Y-89302380D02*
X80726190Y-88302380D01*
X80630952Y-88445238D01*
X80535714Y-88540476D01*
X80440476Y-88588095D01*
X78011904Y-109150000D02*
X77916666Y-109102380D01*
X77773809Y-109102380D01*
X77630952Y-109150000D01*
X77535714Y-109245238D01*
X77488095Y-109340476D01*
X77440476Y-109530952D01*
X77440476Y-109673809D01*
X77488095Y-109864285D01*
X77535714Y-109959523D01*
X77630952Y-110054761D01*
X77773809Y-110102380D01*
X77869047Y-110102380D01*
X78011904Y-110054761D01*
X78059523Y-110007142D01*
X78059523Y-109673809D01*
X77869047Y-109673809D01*
D11*
X164000000Y-89185714D02*
X163928571Y-89257142D01*
X163714285Y-89328571D01*
X163571428Y-89328571D01*
X163357142Y-89257142D01*
X163214285Y-89114285D01*
X163142857Y-88971428D01*
X163071428Y-88685714D01*
X163071428Y-88471428D01*
X163142857Y-88185714D01*
X163214285Y-88042857D01*
X163357142Y-87900000D01*
X163571428Y-87828571D01*
X163714285Y-87828571D01*
X163928571Y-87900000D01*
X164000000Y-87971428D01*
X164571428Y-87971428D02*
X164642857Y-87900000D01*
X164785714Y-87828571D01*
X165142857Y-87828571D01*
X165285714Y-87900000D01*
X165357142Y-87971428D01*
X165428571Y-88114285D01*
X165428571Y-88257142D01*
X165357142Y-88471428D01*
X164500000Y-89328571D01*
X165428571Y-89328571D01*
X163442857Y-81242857D02*
X163657142Y-81314285D01*
X163728571Y-81385714D01*
X163800000Y-81528571D01*
X163800000Y-81742857D01*
X163728571Y-81885714D01*
X163657142Y-81957142D01*
X163514285Y-82028571D01*
X162942857Y-82028571D01*
X162942857Y-80528571D01*
X163442857Y-80528571D01*
X163585714Y-80600000D01*
X163657142Y-80671428D01*
X163728571Y-80814285D01*
X163728571Y-80957142D01*
X163657142Y-81100000D01*
X163585714Y-81171428D01*
X163442857Y-81242857D01*
X162942857Y-81242857D01*
X164371428Y-80671428D02*
X164442857Y-80600000D01*
X164585714Y-80528571D01*
X164942857Y-80528571D01*
X165085714Y-80600000D01*
X165157142Y-80671428D01*
X165228571Y-80814285D01*
X165228571Y-80957142D01*
X165157142Y-81171428D01*
X164300000Y-82028571D01*
X165228571Y-82028571D01*
D10*
X70700000Y-110385714D02*
X70700000Y-108957142D01*
X96442857Y-85103571D02*
X96585714Y-85151190D01*
X96633333Y-85198809D01*
X96680952Y-85294047D01*
X96680952Y-85436904D01*
X96633333Y-85532142D01*
X96585714Y-85579761D01*
X96490476Y-85627380D01*
X96109523Y-85627380D01*
X96109523Y-84627380D01*
X96442857Y-84627380D01*
X96538095Y-84675000D01*
X96585714Y-84722619D01*
X96633333Y-84817857D01*
X96633333Y-84913095D01*
X96585714Y-85008333D01*
X96538095Y-85055952D01*
X96442857Y-85103571D01*
X96109523Y-85103571D01*
X97300000Y-84627380D02*
X97490476Y-84627380D01*
X97585714Y-84675000D01*
X97680952Y-84770238D01*
X97728571Y-84960714D01*
X97728571Y-85294047D01*
X97680952Y-85484523D01*
X97585714Y-85579761D01*
X97490476Y-85627380D01*
X97300000Y-85627380D01*
X97204761Y-85579761D01*
X97109523Y-85484523D01*
X97061904Y-85294047D01*
X97061904Y-84960714D01*
X97109523Y-84770238D01*
X97204761Y-84675000D01*
X97300000Y-84627380D01*
X98347619Y-84627380D02*
X98538095Y-84627380D01*
X98633333Y-84675000D01*
X98728571Y-84770238D01*
X98776190Y-84960714D01*
X98776190Y-85294047D01*
X98728571Y-85484523D01*
X98633333Y-85579761D01*
X98538095Y-85627380D01*
X98347619Y-85627380D01*
X98252380Y-85579761D01*
X98157142Y-85484523D01*
X98109523Y-85294047D01*
X98109523Y-84960714D01*
X98157142Y-84770238D01*
X98252380Y-84675000D01*
X98347619Y-84627380D01*
X99061904Y-84627380D02*
X99633333Y-84627380D01*
X99347619Y-85627380D02*
X99347619Y-84627380D01*
D11*
X163392857Y-109442857D02*
X163607142Y-109514285D01*
X163678571Y-109585714D01*
X163750000Y-109728571D01*
X163750000Y-109942857D01*
X163678571Y-110085714D01*
X163607142Y-110157142D01*
X163464285Y-110228571D01*
X162892857Y-110228571D01*
X162892857Y-108728571D01*
X163392857Y-108728571D01*
X163535714Y-108800000D01*
X163607142Y-108871428D01*
X163678571Y-109014285D01*
X163678571Y-109157142D01*
X163607142Y-109300000D01*
X163535714Y-109371428D01*
X163392857Y-109442857D01*
X162892857Y-109442857D01*
X165178571Y-110228571D02*
X164321428Y-110228571D01*
X164750000Y-110228571D02*
X164750000Y-108728571D01*
X164607142Y-108942857D01*
X164464285Y-109085714D01*
X164321428Y-109157142D01*
D10*
X76300000Y-75628571D02*
X76300000Y-74485714D01*
X72590476Y-74502380D02*
X73161904Y-74502380D01*
X72876190Y-75502380D02*
X72876190Y-74502380D01*
X73495238Y-75502380D02*
X73495238Y-74502380D01*
X73495238Y-74978571D02*
X74066666Y-74978571D01*
X74066666Y-75502380D02*
X74066666Y-74502380D01*
X75066666Y-75502380D02*
X74495238Y-75502380D01*
X74780952Y-75502380D02*
X74780952Y-74502380D01*
X74685714Y-74645238D01*
X74590476Y-74740476D01*
X74495238Y-74788095D01*
X77638095Y-74502380D02*
X78209523Y-74502380D01*
X77923809Y-75502380D02*
X77923809Y-74502380D01*
X78542857Y-75502380D02*
X78542857Y-74502380D01*
X78542857Y-74978571D02*
X79114285Y-74978571D01*
X79114285Y-75502380D02*
X79114285Y-74502380D01*
X79542857Y-74597619D02*
X79590476Y-74550000D01*
X79685714Y-74502380D01*
X79923809Y-74502380D01*
X80019047Y-74550000D01*
X80066666Y-74597619D01*
X80114285Y-74692857D01*
X80114285Y-74788095D01*
X80066666Y-74930952D01*
X79495238Y-75502380D01*
X80114285Y-75502380D01*
D12*
X84636666Y-81432380D02*
X84636666Y-82146666D01*
X84589047Y-82289523D01*
X84493809Y-82384761D01*
X84350952Y-82432380D01*
X84255714Y-82432380D01*
X85589047Y-81432380D02*
X85112857Y-81432380D01*
X85065238Y-81908571D01*
X85112857Y-81860952D01*
X85208095Y-81813333D01*
X85446190Y-81813333D01*
X85541428Y-81860952D01*
X85589047Y-81908571D01*
X85636666Y-82003809D01*
X85636666Y-82241904D01*
X85589047Y-82337142D01*
X85541428Y-82384761D01*
X85446190Y-82432380D01*
X85208095Y-82432380D01*
X85112857Y-82384761D01*
X85065238Y-82337142D01*
X81546666Y-74422380D02*
X81546666Y-75136666D01*
X81499047Y-75279523D01*
X81403809Y-75374761D01*
X81260952Y-75422380D01*
X81165714Y-75422380D01*
X81975238Y-74517619D02*
X82022857Y-74470000D01*
X82118095Y-74422380D01*
X82356190Y-74422380D01*
X82451428Y-74470000D01*
X82499047Y-74517619D01*
X82546666Y-74612857D01*
X82546666Y-74708095D01*
X82499047Y-74850952D01*
X81927619Y-75422380D01*
X82546666Y-75422380D01*
X77736666Y-86622380D02*
X77736666Y-87336666D01*
X77689047Y-87479523D01*
X77593809Y-87574761D01*
X77450952Y-87622380D01*
X77355714Y-87622380D01*
X78641428Y-86955714D02*
X78641428Y-87622380D01*
X78403333Y-86574761D02*
X78165238Y-87289047D01*
X78784285Y-87289047D01*
X77776666Y-106622380D02*
X77776666Y-107336666D01*
X77729047Y-107479523D01*
X77633809Y-107574761D01*
X77490952Y-107622380D01*
X77395714Y-107622380D01*
X78681428Y-106622380D02*
X78490952Y-106622380D01*
X78395714Y-106670000D01*
X78348095Y-106717619D01*
X78252857Y-106860476D01*
X78205238Y-107050952D01*
X78205238Y-107431904D01*
X78252857Y-107527142D01*
X78300476Y-107574761D01*
X78395714Y-107622380D01*
X78586190Y-107622380D01*
X78681428Y-107574761D01*
X78729047Y-107527142D01*
X78776666Y-107431904D01*
X78776666Y-107193809D01*
X78729047Y-107098571D01*
X78681428Y-107050952D01*
X78586190Y-107003333D01*
X78395714Y-107003333D01*
X78300476Y-107050952D01*
X78252857Y-107098571D01*
X78205238Y-107193809D01*
X76402380Y-92025714D02*
X76402380Y-91454285D01*
X77402380Y-91740000D02*
X76402380Y-91740000D01*
X77402380Y-91120952D02*
X76402380Y-91120952D01*
X76878571Y-91120952D02*
X76878571Y-90549523D01*
X77402380Y-90549523D02*
X76402380Y-90549523D01*
X76497619Y-90120952D02*
X76450000Y-90073333D01*
X76402380Y-89978095D01*
X76402380Y-89740000D01*
X76450000Y-89644761D01*
X76497619Y-89597142D01*
X76592857Y-89549523D01*
X76688095Y-89549523D01*
X76830952Y-89597142D01*
X77402380Y-90168571D01*
X77402380Y-89549523D01*
X71702380Y-90982857D02*
X71702380Y-91459047D01*
X70702380Y-91459047D01*
X71178571Y-90649523D02*
X71178571Y-90316190D01*
X71702380Y-90173333D02*
X71702380Y-90649523D01*
X70702380Y-90649523D01*
X70702380Y-90173333D01*
X71702380Y-89744761D02*
X70702380Y-89744761D01*
X70702380Y-89506666D01*
X70750000Y-89363809D01*
X70845238Y-89268571D01*
X70940476Y-89220952D01*
X71130952Y-89173333D01*
X71273809Y-89173333D01*
X71464285Y-89220952D01*
X71559523Y-89268571D01*
X71654761Y-89363809D01*
X71702380Y-89506666D01*
X71702380Y-89744761D01*
X77946666Y-119832380D02*
X77946666Y-120546666D01*
X77899047Y-120689523D01*
X77803809Y-120784761D01*
X77660952Y-120832380D01*
X77565714Y-120832380D01*
X78327619Y-119832380D02*
X78946666Y-119832380D01*
X78613333Y-120213333D01*
X78756190Y-120213333D01*
X78851428Y-120260952D01*
X78899047Y-120308571D01*
X78946666Y-120403809D01*
X78946666Y-120641904D01*
X78899047Y-120737142D01*
X78851428Y-120784761D01*
X78756190Y-120832380D01*
X78470476Y-120832380D01*
X78375238Y-120784761D01*
X78327619Y-120737142D01*
D13*
X98773578Y-100910000D02*
X98256422Y-100910000D01*
X98773578Y-99490000D02*
X98256422Y-99490000D01*
X85505580Y-111380000D02*
X85224420Y-111380000D01*
X85505580Y-112400000D02*
X85224420Y-112400000D01*
X88080000Y-111394420D02*
X88080000Y-111675580D01*
X89100000Y-111394420D02*
X89100000Y-111675580D01*
X98734420Y-103040000D02*
X99015580Y-103040000D01*
X98734420Y-104060000D02*
X99015580Y-104060000D01*
X103260000Y-116435580D02*
X103260000Y-116154420D01*
X104280000Y-116435580D02*
X104280000Y-116154420D01*
X104200000Y-92790000D02*
X102940000Y-92790000D01*
X97380000Y-98800000D02*
X97380000Y-92790000D01*
X97380000Y-92790000D02*
X98640000Y-92790000D01*
X104200000Y-96550000D02*
X104200000Y-92790000D01*
X102390000Y-111735000D02*
X102390000Y-110060000D01*
X97200000Y-114460000D02*
X97200000Y-111735000D01*
X102650000Y-114460000D02*
X102650000Y-111735000D01*
X97200000Y-111735000D02*
X97460000Y-111735000D01*
X102650000Y-114460000D02*
X102650000Y-117185000D01*
X102650000Y-111735000D02*
X102390000Y-111735000D01*
X102650000Y-117185000D02*
X102390000Y-117185000D01*
X97200000Y-117185000D02*
X97460000Y-117185000D01*
X97200000Y-114460000D02*
X97200000Y-117185000D01*
X90045580Y-96160000D02*
X89764420Y-96160000D01*
X90045580Y-95140000D02*
X89764420Y-95140000D01*
X102247742Y-109032500D02*
X102722258Y-109032500D01*
X102247742Y-107987500D02*
X102722258Y-107987500D01*
X91550000Y-112544420D02*
X91550000Y-112825580D01*
X90530000Y-112544420D02*
X90530000Y-112825580D01*
X84095580Y-103290000D02*
X83814420Y-103290000D01*
X84095580Y-104310000D02*
X83814420Y-104310000D01*
X90869000Y-98105580D02*
X90869000Y-97824420D01*
X89849000Y-98105580D02*
X89849000Y-97824420D01*
X84667500Y-115572258D02*
X84667500Y-115097742D01*
X85712500Y-115572258D02*
X85712500Y-115097742D01*
X87930000Y-98105580D02*
X87930000Y-97824420D01*
X88950000Y-98105580D02*
X88950000Y-97824420D01*
X102690000Y-100688922D02*
X102690000Y-101206078D01*
X104110000Y-100688922D02*
X104110000Y-101206078D01*
X97734420Y-108390000D02*
X98015580Y-108390000D01*
X97734420Y-109410000D02*
X98015580Y-109410000D01*
X85445580Y-110810000D02*
X85164420Y-110810000D01*
X85445580Y-109790000D02*
X85164420Y-109790000D01*
X87780000Y-101640000D02*
X87780000Y-102290000D01*
X94350000Y-101640000D02*
X95000000Y-101640000D01*
X94350000Y-108860000D02*
X95000000Y-108860000D01*
X88430000Y-101640000D02*
X87780000Y-101640000D01*
X87780000Y-108860000D02*
X87780000Y-108210000D01*
X88430000Y-108860000D02*
X87780000Y-108860000D01*
X95000000Y-101640000D02*
X95000000Y-102290000D01*
X94640000Y-92965580D02*
X94640000Y-92684420D01*
X95660000Y-92965580D02*
X95660000Y-92684420D01*
X83912500Y-115572258D02*
X83912500Y-115097742D01*
X82867500Y-115572258D02*
X82867500Y-115097742D01*
X93150000Y-112644420D02*
X93150000Y-112925580D01*
X92130000Y-112644420D02*
X92130000Y-112925580D01*
X85445580Y-109160000D02*
X85164420Y-109160000D01*
X85445580Y-108140000D02*
X85164420Y-108140000D01*
X92862500Y-97872258D02*
X92862500Y-97397742D01*
X91817500Y-97872258D02*
X91817500Y-97397742D01*
X102060000Y-100716422D02*
X102060000Y-101233578D01*
X100640000Y-100716422D02*
X100640000Y-101233578D01*
X114700320Y-73170000D02*
X114981480Y-73170000D01*
X114700320Y-74190000D02*
X114981480Y-74190000D01*
X113029648Y-104115000D02*
X113552152Y-104115000D01*
X113029648Y-102645000D02*
X113552152Y-102645000D01*
X91150000Y-86799420D02*
X91150000Y-87080580D01*
X90130000Y-86799420D02*
X90130000Y-87080580D01*
D12*
X77300000Y-95000000D02*
G75*
G03*
X77300000Y-95000000I-3350000J0D01*
G01*
D13*
X78020000Y-78140000D02*
X78620000Y-78140000D01*
X78620000Y-79080000D02*
X78020000Y-79080000D01*
X78020000Y-75960000D02*
X78020000Y-86340000D01*
X78620000Y-80680000D02*
X78620000Y-79080000D01*
X78620000Y-85760000D02*
X78620000Y-84160000D01*
X78620000Y-84160000D02*
X78020000Y-84160000D01*
X78620000Y-83220000D02*
X78620000Y-81620000D01*
X79050000Y-86630000D02*
X83050000Y-86630000D01*
X78020000Y-80680000D02*
X78620000Y-80680000D01*
X82510000Y-84710000D02*
X82510000Y-77590000D01*
X78620000Y-78140000D02*
X78620000Y-76540000D01*
X84040000Y-84960000D02*
X83040000Y-84960000D01*
X78620000Y-76540000D02*
X78020000Y-76540000D01*
X83040000Y-84960000D02*
X82510000Y-84710000D01*
X83040000Y-77340000D02*
X84040000Y-77340000D01*
X84040000Y-84710000D02*
X83040000Y-84710000D01*
X84040000Y-86340000D02*
X84040000Y-75960000D01*
X78020000Y-85760000D02*
X78620000Y-85760000D01*
X83040000Y-84960000D02*
X83040000Y-77340000D01*
X78620000Y-81620000D02*
X78020000Y-81620000D01*
X82510000Y-77590000D02*
X83040000Y-77340000D01*
X78020000Y-86340000D02*
X84040000Y-86340000D01*
X84040000Y-77590000D02*
X83040000Y-77590000D01*
X84040000Y-75960000D02*
X78020000Y-75960000D01*
X78020000Y-83220000D02*
X78620000Y-83220000D01*
X91310000Y-78950000D02*
X91310000Y-80900000D01*
X91310000Y-78950000D02*
X91310000Y-75500000D01*
X86190000Y-78950000D02*
X86190000Y-77000000D01*
X86190000Y-78950000D02*
X86190000Y-80900000D01*
X116750000Y-104650000D02*
X116750000Y-100750000D01*
X118750000Y-104650000D02*
X118750000Y-100750000D01*
X116750000Y-104650000D02*
X118750000Y-104650000D01*
X128970000Y-120445563D02*
X128970000Y-118760000D01*
X120450000Y-112990000D02*
X120450000Y-115740000D01*
X128970000Y-114054437D02*
X128970000Y-115740000D01*
X127905563Y-121510000D02*
X120450000Y-121510000D01*
X120450000Y-121510000D02*
X120450000Y-118760000D01*
X130210000Y-119760000D02*
X129210000Y-119760000D01*
X128970000Y-120445563D02*
X127905563Y-121510000D01*
X127905563Y-112990000D02*
X120450000Y-112990000D01*
X129710000Y-120260000D02*
X129710000Y-119260000D01*
X128970000Y-114054437D02*
X127905563Y-112990000D01*
X107177500Y-113187742D02*
X107177500Y-113662258D01*
X108222500Y-113187742D02*
X108222500Y-113662258D01*
X96519437Y-75430000D02*
X102275000Y-75430000D01*
X94427500Y-70172500D02*
X95215000Y-70172500D01*
X95455000Y-69674437D02*
X95455000Y-70960000D01*
X96519437Y-68610000D02*
X102275000Y-68610000D01*
X95455000Y-69674437D02*
X96519437Y-68610000D01*
X94821250Y-69778750D02*
X94821250Y-70566250D01*
X102275000Y-68610000D02*
X102275000Y-70960000D01*
X95455000Y-74365563D02*
X95455000Y-73080000D01*
X95455000Y-74365563D02*
X96519437Y-75430000D01*
X102275000Y-75430000D02*
X102275000Y-73080000D01*
X101700000Y-82300000D02*
X99850000Y-82300000D01*
X101700000Y-81100000D02*
X99850000Y-81100000D01*
X99850000Y-81100000D02*
X99850000Y-82300000D01*
X139027500Y-94762742D02*
X139027500Y-95237258D01*
X140072500Y-94762742D02*
X140072500Y-95237258D01*
X96650000Y-86250000D02*
X102650000Y-86250000D01*
X102650000Y-89850000D02*
X96650000Y-89850000D01*
X96650000Y-89850000D02*
X96650000Y-86250000D01*
X102650000Y-86250000D02*
X102650000Y-89850000D01*
X155037064Y-113030000D02*
X150682936Y-113030000D01*
X155037064Y-116450000D02*
X150682936Y-116450000D01*
X149990580Y-97390000D02*
X149709420Y-97390000D01*
X149990580Y-98410000D02*
X149709420Y-98410000D01*
X142090580Y-97610000D02*
X141809420Y-97610000D01*
X142090580Y-96590000D02*
X141809420Y-96590000D01*
X150077258Y-91787500D02*
X149602742Y-91787500D01*
X150077258Y-92832500D02*
X149602742Y-92832500D01*
X136538748Y-76410000D02*
X137961252Y-76410000D01*
X136538748Y-74590000D02*
X137961252Y-74590000D01*
X148245000Y-116330000D02*
X142355000Y-116330000D01*
X148700000Y-121470000D02*
X142355000Y-121470000D01*
X162897500Y-93082742D02*
X162897500Y-93557258D01*
X163942500Y-93082742D02*
X163942500Y-93557258D01*
X80440000Y-95459420D02*
X80440000Y-95740580D01*
X81460000Y-95459420D02*
X81460000Y-95740580D01*
X155237064Y-83150000D02*
X150882936Y-83150000D01*
X155237064Y-86570000D02*
X150882936Y-86570000D01*
X80437258Y-89577500D02*
X79962742Y-89577500D01*
X80437258Y-90622500D02*
X79962742Y-90622500D01*
X162946600Y-97302258D02*
X162946600Y-96827742D01*
X163991600Y-97302258D02*
X163991600Y-96827742D01*
X118080000Y-81560320D02*
X118080000Y-81841480D01*
X117060000Y-81560320D02*
X117060000Y-81841480D01*
X152010000Y-68570000D02*
X155910000Y-68570000D01*
X152010000Y-68570000D02*
X152010000Y-70570000D01*
X152010000Y-70570000D02*
X155910000Y-70570000D01*
X80437258Y-91167500D02*
X79962742Y-91167500D01*
X80437258Y-92212500D02*
X79962742Y-92212500D01*
X84192742Y-118982500D02*
X84667258Y-118982500D01*
X84192742Y-117937500D02*
X84667258Y-117937500D01*
X148245000Y-68759500D02*
X142355000Y-68759500D01*
X148700000Y-73899500D02*
X142355000Y-73899500D01*
X107346500Y-96677742D02*
X107346500Y-97152258D01*
X108391500Y-96677742D02*
X108391500Y-97152258D01*
X107256500Y-78097742D02*
X107256500Y-78572258D01*
X108301500Y-78097742D02*
X108301500Y-78572258D01*
X139681000Y-105375000D02*
X139681000Y-107375000D01*
X139681000Y-105375000D02*
X143581000Y-105375000D01*
X139681000Y-107375000D02*
X143581000Y-107375000D01*
X84607258Y-119647500D02*
X84132742Y-119647500D01*
X84607258Y-120692500D02*
X84132742Y-120692500D01*
X96595000Y-75850000D02*
X96595000Y-79150000D01*
X96595000Y-79150000D02*
X101995000Y-79150000D01*
X96595000Y-75850000D02*
X101995000Y-75850000D01*
X113419648Y-93965000D02*
X113942152Y-93965000D01*
X113419648Y-95435000D02*
X113942152Y-95435000D01*
X112459100Y-110410000D02*
X110509100Y-110410000D01*
X112459100Y-105290000D02*
X110509100Y-105290000D01*
X112459100Y-110410000D02*
X115909100Y-110410000D01*
X112459100Y-105290000D02*
X114409100Y-105290000D01*
X88144000Y-88651700D02*
X88144000Y-89451700D01*
X88144000Y-88651700D02*
X88144000Y-86851700D01*
X85024000Y-88651700D02*
X85024000Y-87851700D01*
X85024000Y-88651700D02*
X85024000Y-89451700D01*
X120450000Y-85480000D02*
X120450000Y-82730000D01*
X128970000Y-84415563D02*
X127905563Y-85480000D01*
X127905563Y-76960000D02*
X120450000Y-76960000D01*
X128970000Y-78024437D02*
X128970000Y-79710000D01*
X127905563Y-85480000D02*
X120450000Y-85480000D01*
X128970000Y-78024437D02*
X127905563Y-76960000D01*
X120450000Y-76960000D02*
X120450000Y-79710000D01*
X128970000Y-84415563D02*
X128970000Y-82730000D01*
X130210000Y-83730000D02*
X129210000Y-83730000D01*
X129710000Y-84230000D02*
X129710000Y-83230000D01*
G36*
X132429381Y-79431206D02*
G01*
X132588663Y-79470067D01*
X132734764Y-79529997D01*
X132862344Y-79609466D01*
X132966060Y-79706943D01*
X133040571Y-79820899D01*
X133066965Y-79889358D01*
X133091546Y-79997086D01*
X133093433Y-80091145D01*
X133072700Y-80190766D01*
X133068193Y-80205621D01*
X133014758Y-80311826D01*
X132927286Y-80405397D01*
X132810428Y-80483974D01*
X132668835Y-80545194D01*
X132507161Y-80586696D01*
X132330056Y-80606117D01*
X132277132Y-80607280D01*
X132174028Y-80600735D01*
X132105685Y-80579268D01*
X132069057Y-80541095D01*
X132061096Y-80484437D01*
X132061388Y-80481162D01*
X132079114Y-80427698D01*
X132122740Y-80392407D01*
X132196508Y-80373196D01*
X132290586Y-80367922D01*
X132421575Y-80357387D01*
X132543222Y-80328559D01*
X132649587Y-80284648D01*
X132734730Y-80228862D01*
X132792712Y-80164409D01*
X132817595Y-80094497D01*
X132818108Y-80082963D01*
X132800355Y-80001154D01*
X132746365Y-79932947D01*
X132655043Y-79877017D01*
X132643591Y-79871952D01*
X132498268Y-79829373D01*
X132337513Y-79816400D01*
X132172001Y-79832315D01*
X132012410Y-79876403D01*
X131915072Y-79920823D01*
X131863152Y-79953887D01*
X131789769Y-80007058D01*
X131703403Y-80073892D01*
X131612534Y-80147948D01*
X131580322Y-80175161D01*
X131464496Y-80269865D01*
X131356777Y-80349995D01*
X131264624Y-80410199D01*
X131216847Y-80435997D01*
X131157415Y-80462902D01*
X131107433Y-80480553D01*
X131055664Y-80490850D01*
X130990871Y-80495694D01*
X130901818Y-80496985D01*
X130856563Y-80496931D01*
X130702833Y-80490788D01*
X130578178Y-80471298D01*
X130472968Y-80435315D01*
X130377568Y-80379690D01*
X130296094Y-80313804D01*
X130205540Y-80221351D01*
X130147298Y-80131487D01*
X130116071Y-80033099D01*
X130106567Y-79916167D01*
X130108675Y-79833896D01*
X130118283Y-79776001D01*
X130139060Y-79727040D01*
X130159311Y-79694170D01*
X130220099Y-79624962D01*
X130302200Y-79572587D01*
X130410997Y-79534705D01*
X130551875Y-79508977D01*
X130597666Y-79503647D01*
X130718149Y-79494615D01*
X130804933Y-79497705D01*
X130862914Y-79514430D01*
X130896992Y-79546300D01*
X130912062Y-79594825D01*
X130912732Y-79600845D01*
X130902193Y-79662741D01*
X130858123Y-79704873D01*
X130782653Y-79725651D01*
X130743008Y-79727627D01*
X130647777Y-79733951D01*
X130554083Y-79750902D01*
X130474067Y-79775449D01*
X130419869Y-79804561D01*
X130414105Y-79809737D01*
X130378348Y-79868147D01*
X130380017Y-79930648D01*
X130417346Y-79993199D01*
X130488566Y-80051761D01*
X130530313Y-80075288D01*
X130596939Y-80095520D01*
X130687822Y-80105841D01*
X130788335Y-80105840D01*
X130883849Y-80095104D01*
X130922543Y-80086320D01*
X130987898Y-80058479D01*
X131078567Y-80005117D01*
X131191127Y-79928555D01*
X131322153Y-79831117D01*
X131460202Y-79721664D01*
X131547720Y-79655030D01*
X131642901Y-79589943D01*
X131730724Y-79536409D01*
X131767281Y-79517054D01*
X131925868Y-79456338D01*
X132092642Y-79422812D01*
X132262260Y-79414945D01*
X132429381Y-79431206D01*
G37*
G36*
X132323070Y-87427446D02*
G01*
X132496350Y-87428173D01*
X132640336Y-87429834D01*
X132757710Y-87432755D01*
X132851158Y-87437262D01*
X132923362Y-87443679D01*
X132977007Y-87452331D01*
X133014777Y-87463544D01*
X133039354Y-87477643D01*
X133053424Y-87494952D01*
X133059670Y-87515798D01*
X133060775Y-87540504D01*
X133059423Y-87569396D01*
X133058299Y-87602800D01*
X133058297Y-87604202D01*
X133052681Y-87679715D01*
X133033464Y-87729244D01*
X133018266Y-87747627D01*
X133009615Y-87755406D01*
X132998456Y-87762104D01*
X132981926Y-87767804D01*
X132957160Y-87772585D01*
X132921295Y-87776529D01*
X132871467Y-87779715D01*
X132804811Y-87782226D01*
X132718465Y-87784140D01*
X132609564Y-87785539D01*
X132475244Y-87786504D01*
X132312643Y-87787114D01*
X132118895Y-87787451D01*
X131891137Y-87787595D01*
X131626505Y-87787627D01*
X131597147Y-87787627D01*
X131328569Y-87787602D01*
X131097158Y-87787473D01*
X130900052Y-87787160D01*
X130734385Y-87786581D01*
X130597295Y-87785657D01*
X130485917Y-87784306D01*
X130397388Y-87782448D01*
X130328844Y-87780003D01*
X130277420Y-87776889D01*
X130240254Y-87773027D01*
X130214481Y-87768335D01*
X130197237Y-87762734D01*
X130185659Y-87756141D01*
X130176883Y-87748478D01*
X130176028Y-87747627D01*
X130149616Y-87707761D01*
X130137669Y-87649203D01*
X130135996Y-87600727D01*
X130135007Y-87567886D01*
X130133827Y-87539459D01*
X130135135Y-87515130D01*
X130141611Y-87494582D01*
X130155936Y-87477498D01*
X130180788Y-87463561D01*
X130218847Y-87452455D01*
X130272794Y-87443864D01*
X130345309Y-87437469D01*
X130439070Y-87432955D01*
X130556757Y-87430005D01*
X130701052Y-87428302D01*
X130874632Y-87427529D01*
X131080179Y-87427371D01*
X131320371Y-87427509D01*
X131597890Y-87427627D01*
X131600624Y-87427627D01*
X131877891Y-87427499D01*
X132117812Y-87427330D01*
X132323070Y-87427446D01*
G37*
G36*
X132970054Y-85469970D02*
G01*
X133000180Y-85480019D01*
X133022569Y-85502308D01*
X133038351Y-85541370D01*
X133048656Y-85601739D01*
X133054613Y-85687947D01*
X133057351Y-85804528D01*
X133058000Y-85956014D01*
X133057991Y-85977078D01*
X133057226Y-86103599D01*
X133055265Y-86216991D01*
X133052320Y-86311001D01*
X133048603Y-86379376D01*
X133044326Y-86415862D01*
X133042979Y-86419633D01*
X133032966Y-86432702D01*
X133019759Y-86443981D01*
X133000528Y-86453602D01*
X132972439Y-86461698D01*
X132932664Y-86468398D01*
X132878369Y-86473835D01*
X132806723Y-86478141D01*
X132714896Y-86481446D01*
X132600056Y-86483881D01*
X132459371Y-86485580D01*
X132290010Y-86486672D01*
X132089142Y-86487290D01*
X131853936Y-86487565D01*
X131581560Y-86487627D01*
X131578447Y-86487627D01*
X131311818Y-86487602D01*
X131082337Y-86487470D01*
X130887118Y-86487149D01*
X130723277Y-86486558D01*
X130587930Y-86485614D01*
X130478191Y-86484234D01*
X130391176Y-86482337D01*
X130324002Y-86479840D01*
X130273782Y-86476660D01*
X130237633Y-86472716D01*
X130212670Y-86467926D01*
X130196008Y-86462206D01*
X130184764Y-86455476D01*
X130176052Y-86447651D01*
X130176028Y-86447627D01*
X130162354Y-86431552D01*
X130152197Y-86410708D01*
X130145037Y-86379399D01*
X130140356Y-86331928D01*
X130137635Y-86262596D01*
X130136357Y-86165705D01*
X130136002Y-86035559D01*
X130135996Y-86007627D01*
X130136238Y-85870763D01*
X130137308Y-85768199D01*
X130139725Y-85694239D01*
X130144008Y-85643184D01*
X130150675Y-85609338D01*
X130160243Y-85587001D01*
X130173233Y-85570478D01*
X130176028Y-85567627D01*
X130231326Y-85532461D01*
X130290414Y-85536272D01*
X130331700Y-85558762D01*
X130350288Y-85574193D01*
X130362828Y-85594633D01*
X130370505Y-85627507D01*
X130374499Y-85680238D01*
X130375993Y-85760248D01*
X130376185Y-85838058D01*
X130376704Y-85942415D01*
X130378950Y-86013866D01*
X130383956Y-86059500D01*
X130392756Y-86086405D01*
X130406381Y-86101670D01*
X130415414Y-86107198D01*
X130448864Y-86113685D01*
X130521496Y-86118602D01*
X130632492Y-86121933D01*
X130781034Y-86123657D01*
X130966302Y-86123756D01*
X131110961Y-86122902D01*
X131767281Y-86117627D01*
X131772540Y-85907627D01*
X131775804Y-85811470D01*
X131780925Y-85746949D01*
X131789516Y-85705700D01*
X131803189Y-85679359D01*
X131819792Y-85662627D01*
X131879995Y-85630928D01*
X131939707Y-85638774D01*
X131968616Y-85655948D01*
X131986445Y-85674254D01*
X131998851Y-85703664D01*
X132007386Y-85751961D01*
X132013604Y-85826925D01*
X132017478Y-85900948D01*
X132027485Y-86117627D01*
X132383215Y-86123091D01*
X132525801Y-86123992D01*
X132640491Y-86122023D01*
X132723628Y-86117328D01*
X132771558Y-86110052D01*
X132778526Y-86107387D01*
X132794147Y-86096225D01*
X132805029Y-86077909D01*
X132812019Y-86045881D01*
X132815964Y-85993583D01*
X132817711Y-85914455D01*
X132818108Y-85801940D01*
X132818108Y-85800924D01*
X132818889Y-85678297D01*
X132822500Y-85590043D01*
X132830846Y-85530544D01*
X132845830Y-85494183D01*
X132869356Y-85475345D01*
X132903326Y-85468411D01*
X132931063Y-85467627D01*
X132970054Y-85469970D01*
G37*
G36*
X131303917Y-82661951D02*
G01*
X131072717Y-82660918D01*
X130875859Y-82659834D01*
X130710498Y-82658610D01*
X130573790Y-82657152D01*
X130462889Y-82655369D01*
X130374953Y-82653171D01*
X130307134Y-82650464D01*
X130256590Y-82647158D01*
X130220476Y-82643161D01*
X130195946Y-82638381D01*
X130180156Y-82632726D01*
X130170262Y-82626106D01*
X130163418Y-82618428D01*
X130162814Y-82617627D01*
X130150722Y-82593883D01*
X130142813Y-82556573D01*
X130138641Y-82499238D01*
X130137758Y-82415414D01*
X130139718Y-82298640D01*
X130139986Y-82287627D01*
X130140283Y-82277627D01*
X130386193Y-82277627D01*
X131592143Y-82282784D01*
X132798092Y-82287940D01*
X132798092Y-82245806D01*
X132789620Y-82199634D01*
X132768903Y-82142416D01*
X132765693Y-82135451D01*
X132702827Y-82047278D01*
X132604210Y-81967962D01*
X132473331Y-81898448D01*
X132313680Y-81839681D01*
X132128746Y-81792608D01*
X131922019Y-81758172D01*
X131696987Y-81737319D01*
X131457142Y-81730996D01*
X131289006Y-81735400D01*
X131062322Y-81751778D01*
X130872498Y-81778481D01*
X130717458Y-81816537D01*
X130595128Y-81866972D01*
X130503433Y-81930813D01*
X130440297Y-82009087D01*
X130403646Y-82102819D01*
X130392586Y-82178950D01*
X130386193Y-82277627D01*
X130140283Y-82277627D01*
X130143461Y-82170610D01*
X130148082Y-82084680D01*
X130155182Y-82020929D01*
X130166097Y-81970444D01*
X130182160Y-81924316D01*
X130200695Y-81882229D01*
X130287547Y-81742491D01*
X130409523Y-81621863D01*
X130566554Y-81520395D01*
X130758570Y-81438137D01*
X130870656Y-81403403D01*
X130927681Y-81388842D01*
X130983571Y-81377890D01*
X131045358Y-81370022D01*
X131120073Y-81364714D01*
X131214746Y-81361442D01*
X131336409Y-81359684D01*
X131467044Y-81358986D01*
X131623522Y-81359096D01*
X131747086Y-81360792D01*
X131844840Y-81364498D01*
X131923885Y-81370642D01*
X131991322Y-81379647D01*
X132054254Y-81391941D01*
X132067517Y-81394969D01*
X132307445Y-81464835D01*
X132516968Y-81555034D01*
X132694692Y-81664635D01*
X132839219Y-81792709D01*
X132949155Y-81938323D01*
X132986169Y-82007627D01*
X133014238Y-82071054D01*
X133032824Y-82127238D01*
X133044308Y-82188345D01*
X133051069Y-82266540D01*
X133055015Y-82359555D01*
X133062422Y-82581482D01*
X133007113Y-82624954D01*
X132951803Y-82668426D01*
X132798092Y-82667824D01*
X131572304Y-82663027D01*
X131303917Y-82661951D01*
G37*
G36*
X130332661Y-88639153D02*
G01*
X130353147Y-88653988D01*
X130362218Y-88684396D01*
X130370124Y-88748783D01*
X130376338Y-88841133D01*
X130380337Y-88955431D01*
X130380617Y-88968988D01*
X130386193Y-89257627D01*
X131081741Y-89262887D01*
X131777288Y-89268146D01*
X131777288Y-89038348D01*
X131777715Y-88939159D01*
X131779947Y-88872177D01*
X131785416Y-88829611D01*
X131795549Y-88803668D01*
X131811777Y-88786558D01*
X131825208Y-88777176D01*
X131884516Y-88757133D01*
X131945102Y-88765053D01*
X131991240Y-88798077D01*
X131997990Y-88808613D01*
X132006129Y-88843145D01*
X132012600Y-88907398D01*
X132016592Y-88991104D01*
X132017478Y-89055302D01*
X132017478Y-89265607D01*
X132495796Y-89271617D01*
X132660286Y-89273921D01*
X132789106Y-89277184D01*
X132886617Y-89282860D01*
X132957177Y-89292403D01*
X133005145Y-89307268D01*
X133034882Y-89328910D01*
X133050746Y-89358782D01*
X133057096Y-89398338D01*
X133058293Y-89449034D01*
X133058297Y-89459276D01*
X133055186Y-89525809D01*
X133042297Y-89567455D01*
X133014291Y-89599077D01*
X133005558Y-89606176D01*
X132994505Y-89614321D01*
X132981650Y-89621323D01*
X132964067Y-89627267D01*
X132938829Y-89632241D01*
X132903011Y-89636331D01*
X132853687Y-89639623D01*
X132787932Y-89642205D01*
X132702818Y-89644161D01*
X132595421Y-89645580D01*
X132462814Y-89646547D01*
X132302072Y-89647148D01*
X132110268Y-89647472D01*
X131884477Y-89647602D01*
X131621773Y-89647627D01*
X131603139Y-89647627D01*
X131331651Y-89647565D01*
X131097349Y-89647289D01*
X130897388Y-89646665D01*
X130728925Y-89645561D01*
X130589114Y-89643843D01*
X130475109Y-89641379D01*
X130384068Y-89638035D01*
X130313143Y-89633677D01*
X130259492Y-89628173D01*
X130220268Y-89621389D01*
X130192627Y-89613191D01*
X130173724Y-89603448D01*
X130160715Y-89592025D01*
X130151314Y-89579633D01*
X130146968Y-89553897D01*
X130143102Y-89494322D01*
X130139921Y-89407067D01*
X130137629Y-89298292D01*
X130136429Y-89174156D01*
X130136303Y-89125727D01*
X130136457Y-88982401D01*
X130137429Y-88873745D01*
X130139634Y-88794432D01*
X130143487Y-88739134D01*
X130149406Y-88702525D01*
X130157804Y-88679276D01*
X130169100Y-88664059D01*
X130172600Y-88660727D01*
X130220793Y-88636009D01*
X130280118Y-88628595D01*
X130332661Y-88639153D01*
G37*
G36*
X132976518Y-83469245D02*
G01*
X133004280Y-83477134D01*
X133024934Y-83495848D01*
X133039526Y-83529941D01*
X133049107Y-83583969D01*
X133054722Y-83662485D01*
X133057422Y-83770044D01*
X133058253Y-83911199D01*
X133058297Y-83979056D01*
X133058103Y-84124823D01*
X133057231Y-84235916D01*
X133055244Y-84317658D01*
X133051705Y-84375373D01*
X133046180Y-84414387D01*
X133038231Y-84440022D01*
X133027422Y-84457605D01*
X133018266Y-84467627D01*
X133009615Y-84475406D01*
X132998456Y-84482104D01*
X132981926Y-84487804D01*
X132957160Y-84492585D01*
X132921295Y-84496529D01*
X132871467Y-84499715D01*
X132804811Y-84502226D01*
X132718465Y-84504140D01*
X132609564Y-84505539D01*
X132475244Y-84506504D01*
X132312643Y-84507114D01*
X132118895Y-84507451D01*
X131891137Y-84507595D01*
X131626505Y-84507627D01*
X131597147Y-84507627D01*
X131328569Y-84507602D01*
X131097158Y-84507473D01*
X130900052Y-84507160D01*
X130734385Y-84506581D01*
X130597295Y-84505657D01*
X130485917Y-84504306D01*
X130397388Y-84502448D01*
X130328844Y-84500003D01*
X130277420Y-84496889D01*
X130240254Y-84493027D01*
X130214481Y-84488335D01*
X130197237Y-84482734D01*
X130185659Y-84476141D01*
X130176883Y-84468478D01*
X130176028Y-84467627D01*
X130149009Y-84417703D01*
X130136276Y-84346864D01*
X130138544Y-84271830D01*
X130156530Y-84209321D01*
X130164400Y-84196450D01*
X130171239Y-84188695D01*
X130181517Y-84182011D01*
X130198155Y-84176293D01*
X130224071Y-84171434D01*
X130262186Y-84167326D01*
X130315418Y-84163864D01*
X130386689Y-84160941D01*
X130478916Y-84158449D01*
X130595021Y-84156283D01*
X130737921Y-84154335D01*
X130910538Y-84152499D01*
X131115790Y-84150668D01*
X131356598Y-84148736D01*
X131500452Y-84147627D01*
X132808100Y-84137627D01*
X132813416Y-83827627D01*
X132816365Y-83699470D01*
X132821435Y-83605903D01*
X132830537Y-83541518D01*
X132845581Y-83500908D01*
X132868480Y-83478664D01*
X132901142Y-83469377D01*
X132940598Y-83467627D01*
X132976518Y-83469245D01*
G37*
X85475000Y-69633748D02*
X85475000Y-70156252D01*
X86945000Y-69633748D02*
X86945000Y-70156252D01*
X108301500Y-101277742D02*
X108301500Y-101752258D01*
X107256500Y-101277742D02*
X107256500Y-101752258D01*
X94561252Y-80760000D02*
X93138748Y-80760000D01*
X94561252Y-78040000D02*
X93138748Y-78040000D01*
X83112742Y-91177500D02*
X83587258Y-91177500D01*
X83112742Y-92222500D02*
X83587258Y-92222500D01*
X160841020Y-95735000D02*
X161122180Y-95735000D01*
X160841020Y-96755000D02*
X161122180Y-96755000D01*
X105160000Y-86795000D02*
X105160000Y-89345000D01*
X106860000Y-86795000D02*
X105160000Y-86795000D01*
X106860000Y-86795000D02*
X106860000Y-89345000D01*
X159204400Y-97322258D02*
X159204400Y-96847742D01*
X158159400Y-97322258D02*
X158159400Y-96847742D01*
X118750000Y-121550000D02*
X118750000Y-117650000D01*
X116750000Y-121550000D02*
X116750000Y-117650000D01*
X116750000Y-121550000D02*
X118750000Y-121550000D01*
X160919420Y-94680000D02*
X161200580Y-94680000D01*
X160919420Y-93660000D02*
X161200580Y-93660000D01*
X149990580Y-93440000D02*
X149709420Y-93440000D01*
X149990580Y-94460000D02*
X149709420Y-94460000D01*
X148700000Y-82240000D02*
X142355000Y-82240000D01*
X148245000Y-77100000D02*
X142355000Y-77100000D01*
X93905000Y-68320000D02*
X92705000Y-68320000D01*
X87505000Y-68320000D02*
X88705000Y-68320000D01*
X87505000Y-68320000D02*
X87505000Y-69720000D01*
X93905000Y-75120000D02*
X92705000Y-75120000D01*
X87505000Y-75120000D02*
X88705000Y-75120000D01*
X93905000Y-68320000D02*
X93905000Y-69720000D01*
X87505000Y-75120000D02*
X87505000Y-73720000D01*
X93905000Y-75120000D02*
X93905000Y-73720000D01*
X70820000Y-69200000D02*
X70820000Y-73200000D01*
X76770000Y-68770000D02*
X78370000Y-68770000D01*
X72490000Y-73190000D02*
X72740000Y-72660000D01*
X76770000Y-68170000D02*
X76770000Y-68770000D01*
X74230000Y-68770000D02*
X75830000Y-68770000D01*
X80910000Y-68770000D02*
X80910000Y-68170000D01*
X80110000Y-73190000D02*
X80110000Y-74190000D01*
X78370000Y-68770000D02*
X78370000Y-68170000D01*
X81490000Y-68170000D02*
X71110000Y-68170000D01*
X79860000Y-72660000D02*
X80110000Y-73190000D01*
X72740000Y-74190000D02*
X72740000Y-73190000D01*
X71690000Y-68170000D02*
X71690000Y-68770000D01*
X79310000Y-68170000D02*
X79310000Y-68770000D01*
X73290000Y-68770000D02*
X73290000Y-68170000D01*
X71110000Y-74190000D02*
X81490000Y-74190000D01*
X75830000Y-68770000D02*
X75830000Y-68170000D01*
X74230000Y-68170000D02*
X74230000Y-68770000D01*
X71690000Y-68770000D02*
X73290000Y-68770000D01*
X72490000Y-74190000D02*
X72490000Y-73190000D01*
X72490000Y-73190000D02*
X80110000Y-73190000D01*
X79860000Y-74190000D02*
X79860000Y-73190000D01*
X71110000Y-68170000D02*
X71110000Y-74190000D01*
X79310000Y-68770000D02*
X80910000Y-68770000D01*
X72740000Y-72660000D02*
X79860000Y-72660000D01*
X81490000Y-74190000D02*
X81490000Y-68170000D01*
X155037064Y-100170000D02*
X150682936Y-100170000D01*
X155037064Y-103590000D02*
X150682936Y-103590000D01*
X85752500Y-77032258D02*
X85752500Y-76557742D01*
X84707500Y-77032258D02*
X84707500Y-76557742D01*
X155037064Y-74430000D02*
X150682936Y-74430000D01*
X155037064Y-77850000D02*
X150682936Y-77850000D01*
X106860000Y-73470000D02*
X106860000Y-76020000D01*
X106860000Y-73470000D02*
X105160000Y-73470000D01*
X105160000Y-73470000D02*
X105160000Y-76020000D01*
X147017500Y-93437258D02*
X147017500Y-92962742D01*
X148062500Y-93437258D02*
X148062500Y-92962742D01*
X104470000Y-84900000D02*
X100570000Y-84900000D01*
X104470000Y-84900000D02*
X104470000Y-82900000D01*
X104470000Y-82900000D02*
X100570000Y-82900000D01*
X140110000Y-82240000D02*
X133765000Y-82240000D01*
X139655000Y-77100000D02*
X133765000Y-77100000D01*
X139655000Y-85330000D02*
X133765000Y-85330000D01*
X140110000Y-90470000D02*
X133765000Y-90470000D01*
X112409100Y-74660000D02*
X110459100Y-74660000D01*
X112409100Y-79780000D02*
X110459100Y-79780000D01*
X112409100Y-74660000D02*
X114359100Y-74660000D01*
X112409100Y-79780000D02*
X115859100Y-79780000D01*
X108291500Y-74897742D02*
X108291500Y-75372258D01*
X107246500Y-74897742D02*
X107246500Y-75372258D01*
X88590000Y-87100580D02*
X88590000Y-86819420D01*
X89610000Y-87100580D02*
X89610000Y-86819420D01*
X113800000Y-72200000D02*
X113800000Y-69100000D01*
X114950000Y-72650000D02*
X113875000Y-72650000D01*
X116600000Y-72200000D02*
X116600000Y-69200000D01*
X107396500Y-82002742D02*
X107396500Y-82477258D01*
X108441500Y-82002742D02*
X108441500Y-82477258D01*
X148245000Y-85330000D02*
X142355000Y-85330000D01*
X148700000Y-90470000D02*
X142355000Y-90470000D01*
X111070352Y-81735000D02*
X110547848Y-81735000D01*
X111070352Y-80265000D02*
X110547848Y-80265000D01*
X93209420Y-84590000D02*
X93490580Y-84590000D01*
X93209420Y-85610000D02*
X93490580Y-85610000D01*
X112669100Y-88030000D02*
X114619100Y-88030000D01*
X112669100Y-93150000D02*
X110719100Y-93150000D01*
X112669100Y-88030000D02*
X110719100Y-88030000D01*
X112669100Y-93150000D02*
X116119100Y-93150000D01*
X155037064Y-107630000D02*
X150682936Y-107630000D01*
X155037064Y-104210000D02*
X150682936Y-104210000D01*
X112469100Y-118180000D02*
X115919100Y-118180000D01*
X112469100Y-118180000D02*
X110519100Y-118180000D01*
X112469100Y-113060000D02*
X110519100Y-113060000D01*
X112469100Y-113060000D02*
X114419100Y-113060000D01*
X100724742Y-79552400D02*
X101199258Y-79552400D01*
X100724742Y-80597400D02*
X101199258Y-80597400D01*
X71670000Y-88200000D02*
X71670000Y-86600000D01*
X71070000Y-83120000D02*
X71670000Y-83120000D01*
X71070000Y-80580000D02*
X71670000Y-80580000D01*
X71070000Y-75860000D02*
X71070000Y-88780000D01*
X72100000Y-89070000D02*
X76100000Y-89070000D01*
X71070000Y-85660000D02*
X71670000Y-85660000D01*
X77090000Y-87400000D02*
X76090000Y-87400000D01*
X75560000Y-77490000D02*
X76090000Y-77240000D01*
X75560000Y-87150000D02*
X75560000Y-77490000D01*
X71670000Y-76440000D02*
X71070000Y-76440000D01*
X77090000Y-87150000D02*
X76090000Y-87150000D01*
X71670000Y-81520000D02*
X71070000Y-81520000D01*
X71670000Y-84060000D02*
X71070000Y-84060000D01*
X77090000Y-77490000D02*
X76090000Y-77490000D01*
X77090000Y-88780000D02*
X77090000Y-75860000D01*
X77090000Y-75860000D02*
X71070000Y-75860000D01*
X71670000Y-85660000D02*
X71670000Y-84060000D01*
X71070000Y-88780000D02*
X77090000Y-88780000D01*
X71070000Y-88200000D02*
X71670000Y-88200000D01*
X71670000Y-78040000D02*
X71670000Y-76440000D01*
X71070000Y-78040000D02*
X71670000Y-78040000D01*
X76090000Y-87400000D02*
X75560000Y-87150000D01*
X76090000Y-87400000D02*
X76090000Y-77240000D01*
X71670000Y-80580000D02*
X71670000Y-78980000D01*
X71670000Y-83120000D02*
X71670000Y-81520000D01*
X71670000Y-78980000D02*
X71070000Y-78980000D01*
X71670000Y-86600000D02*
X71070000Y-86600000D01*
X76090000Y-77240000D02*
X77090000Y-77240000D01*
X136588748Y-84610000D02*
X138011252Y-84610000D01*
X136588748Y-82790000D02*
X138011252Y-82790000D01*
X112659100Y-82410000D02*
X114609100Y-82410000D01*
X112659100Y-82410000D02*
X110709100Y-82410000D01*
X112659100Y-87530000D02*
X116109100Y-87530000D01*
X112659100Y-87530000D02*
X110709100Y-87530000D01*
X107298500Y-109492742D02*
X107298500Y-109967258D01*
X108343500Y-109492742D02*
X108343500Y-109967258D01*
X105160000Y-83470000D02*
X105160000Y-86020000D01*
X106860000Y-83470000D02*
X105160000Y-83470000D01*
X106860000Y-83470000D02*
X106860000Y-86020000D01*
X97721642Y-79537500D02*
X98196158Y-79537500D01*
X97721642Y-80582500D02*
X98196158Y-80582500D01*
X155037064Y-112330000D02*
X150682936Y-112330000D01*
X155037064Y-108910000D02*
X150682936Y-108910000D01*
X148245000Y-107880000D02*
X142355000Y-107880000D01*
X148700000Y-113020000D02*
X142355000Y-113020000D01*
X120450000Y-103940000D02*
X120450000Y-106690000D01*
X127905563Y-112460000D02*
X120450000Y-112460000D01*
X129710000Y-111210000D02*
X129710000Y-110210000D01*
X127905563Y-103940000D02*
X120450000Y-103940000D01*
X128970000Y-105004437D02*
X128970000Y-106690000D01*
X128970000Y-111395563D02*
X128970000Y-109710000D01*
X128970000Y-111395563D02*
X127905563Y-112460000D01*
X130210000Y-110710000D02*
X129210000Y-110710000D01*
X120450000Y-112460000D02*
X120450000Y-109710000D01*
X128970000Y-105004437D02*
X127905563Y-103940000D01*
X144421000Y-113585000D02*
X144421000Y-115585000D01*
X144421000Y-115585000D02*
X148321000Y-115585000D01*
X144421000Y-113585000D02*
X148321000Y-113585000D01*
X77090000Y-101170000D02*
X76090000Y-101170000D01*
X76090000Y-106000000D02*
X75560000Y-105750000D01*
X76090000Y-106000000D02*
X76090000Y-100920000D01*
X71670000Y-105200000D02*
X71070000Y-105200000D01*
X71070000Y-99540000D02*
X71070000Y-107380000D01*
X71670000Y-101720000D02*
X71670000Y-100120000D01*
X77090000Y-106000000D02*
X76090000Y-106000000D01*
X71070000Y-101720000D02*
X71670000Y-101720000D01*
X71670000Y-106800000D02*
X71670000Y-105200000D01*
X71070000Y-106800000D02*
X71670000Y-106800000D01*
X72100000Y-107670000D02*
X76100000Y-107670000D01*
X75560000Y-105750000D02*
X75560000Y-101170000D01*
X77090000Y-105750000D02*
X76090000Y-105750000D01*
X71670000Y-104260000D02*
X71670000Y-102660000D01*
X77090000Y-107380000D02*
X77090000Y-99540000D01*
X71070000Y-104260000D02*
X71670000Y-104260000D01*
X71070000Y-107380000D02*
X77090000Y-107380000D01*
X71670000Y-102660000D02*
X71070000Y-102660000D01*
X75560000Y-101170000D02*
X76090000Y-100920000D01*
X71670000Y-100120000D02*
X71070000Y-100120000D01*
X76090000Y-100920000D02*
X77090000Y-100920000D01*
X77090000Y-99540000D02*
X71070000Y-99540000D01*
X144410000Y-105375000D02*
X148310000Y-105375000D01*
X144410000Y-107375000D02*
X148310000Y-107375000D01*
X144410000Y-105375000D02*
X144410000Y-107375000D01*
G36*
X130308453Y-112251732D02*
G01*
X130342659Y-112272011D01*
X130363992Y-112313043D01*
X130375176Y-112380744D01*
X130378937Y-112481030D01*
X130379038Y-112507715D01*
X130379038Y-112706286D01*
X131680063Y-112706286D01*
X131940198Y-112706314D01*
X132163257Y-112706457D01*
X132352197Y-112706802D01*
X132509972Y-112707438D01*
X132639540Y-112708453D01*
X132743855Y-112709935D01*
X132825874Y-112711972D01*
X132888552Y-112714653D01*
X132934845Y-112718065D01*
X132967709Y-112722298D01*
X132990100Y-112727438D01*
X133004974Y-112733575D01*
X133015287Y-112740795D01*
X133021119Y-112746286D01*
X133054012Y-112804498D01*
X133063320Y-112879165D01*
X133049563Y-112954805D01*
X133013259Y-113015940D01*
X133012020Y-113017196D01*
X132962891Y-113066286D01*
X130379038Y-113066286D01*
X130379038Y-113265152D01*
X130378326Y-113357060D01*
X130375087Y-113417525D01*
X130367668Y-113455099D01*
X130354415Y-113478329D01*
X130334553Y-113495152D01*
X130270929Y-113523546D01*
X130213707Y-113513111D01*
X130178881Y-113486287D01*
X130167077Y-113472695D01*
X130157850Y-113455157D01*
X130150884Y-113428968D01*
X130145863Y-113389423D01*
X130142470Y-113331817D01*
X130140389Y-113251445D01*
X130139304Y-113143602D01*
X130138898Y-113003583D01*
X130138849Y-112890737D01*
X130139162Y-112713198D01*
X130140604Y-112571604D01*
X130143929Y-112461903D01*
X130149889Y-112380040D01*
X130159238Y-112321964D01*
X130172730Y-112283621D01*
X130191118Y-112260958D01*
X130215156Y-112249922D01*
X130245596Y-112246459D01*
X130258649Y-112246286D01*
X130308453Y-112251732D01*
G37*
G36*
X131868578Y-107966312D02*
G01*
X132099988Y-107966441D01*
X132297094Y-107966754D01*
X132462761Y-107967333D01*
X132599851Y-107968257D01*
X132711229Y-107969608D01*
X132799758Y-107971466D01*
X132868302Y-107973911D01*
X132919726Y-107977025D01*
X132956892Y-107980887D01*
X132982665Y-107985579D01*
X132999909Y-107991180D01*
X133011487Y-107997773D01*
X133020263Y-108005436D01*
X133021119Y-108006286D01*
X133054012Y-108064498D01*
X133063320Y-108139165D01*
X133049563Y-108214805D01*
X133013259Y-108275940D01*
X133012020Y-108277196D01*
X132962891Y-108326286D01*
X130237108Y-108326286D01*
X130187979Y-108277196D01*
X130151097Y-108216644D01*
X130136747Y-108141185D01*
X130145449Y-108066297D01*
X130177723Y-108007462D01*
X130178881Y-108006286D01*
X130187531Y-107998508D01*
X130198690Y-107991810D01*
X130215220Y-107986110D01*
X130239986Y-107981329D01*
X130275851Y-107977385D01*
X130325679Y-107974199D01*
X130392335Y-107971688D01*
X130478681Y-107969774D01*
X130587582Y-107968375D01*
X130721902Y-107967410D01*
X130884504Y-107966800D01*
X131078252Y-107966463D01*
X131306010Y-107966319D01*
X131570641Y-107966287D01*
X131600000Y-107966286D01*
X131868578Y-107966312D01*
G37*
G36*
X132416461Y-105920121D02*
G01*
X132589202Y-105959947D01*
X132743754Y-106023250D01*
X132875151Y-106107514D01*
X132978425Y-106210225D01*
X133044098Y-106318323D01*
X133083457Y-106447790D01*
X133091250Y-106579788D01*
X133071639Y-106686286D01*
X133015747Y-106796276D01*
X132925970Y-106891716D01*
X132806473Y-106970492D01*
X132661422Y-107030484D01*
X132494981Y-107069575D01*
X132311315Y-107085648D01*
X132285539Y-107085939D01*
X132178708Y-107078155D01*
X132106906Y-107053611D01*
X132068414Y-107011419D01*
X132060362Y-106969386D01*
X132072916Y-106925463D01*
X132113205Y-106893760D01*
X132185165Y-106872402D01*
X132290543Y-106859672D01*
X132456263Y-106838907D01*
X132589083Y-106802994D01*
X132693748Y-106750389D01*
X132742091Y-106712831D01*
X132792142Y-106661344D01*
X132815772Y-106616515D01*
X132820961Y-106572644D01*
X132812549Y-106499708D01*
X132782419Y-106444294D01*
X132723230Y-106395088D01*
X132694103Y-106377129D01*
X132582431Y-106331166D01*
X132447108Y-106306325D01*
X132298694Y-106302956D01*
X132147751Y-106321411D01*
X132024334Y-106354875D01*
X131909180Y-106409381D01*
X131774396Y-106498600D01*
X131620102Y-106622451D01*
X131579984Y-106657494D01*
X131462952Y-106757837D01*
X131365409Y-106833197D01*
X131280180Y-106888430D01*
X131200094Y-106928391D01*
X131153005Y-106946543D01*
X130981521Y-106989961D01*
X130814375Y-106997094D01*
X130686500Y-106979322D01*
X130535027Y-106937367D01*
X130410512Y-106878488D01*
X130301501Y-106797013D01*
X130282312Y-106779195D01*
X130195393Y-106683444D01*
X130141369Y-106589788D01*
X130115257Y-106487385D01*
X130110906Y-106406286D01*
X130124226Y-106282706D01*
X130163901Y-106183088D01*
X130231982Y-106105830D01*
X130330516Y-106049333D01*
X130461553Y-106011994D01*
X130627141Y-105992214D01*
X130641902Y-105991344D01*
X130735476Y-105987132D01*
X130798057Y-105987457D01*
X130838521Y-105993258D01*
X130865744Y-106005473D01*
X130879632Y-106016467D01*
X130913609Y-106068879D01*
X130913872Y-106125772D01*
X130884436Y-106170532D01*
X130844959Y-106188767D01*
X130777024Y-106204435D01*
X130704367Y-106213765D01*
X130571358Y-106232571D01*
X130472518Y-106262163D01*
X130409576Y-106301848D01*
X130385988Y-106341340D01*
X130381936Y-106412997D01*
X130411065Y-106473929D01*
X130476159Y-106528555D01*
X130519149Y-106552887D01*
X130586138Y-106584278D01*
X130642091Y-106599882D01*
X130705795Y-106603349D01*
X130764520Y-106600545D01*
X130863936Y-106586677D01*
X130961869Y-106556443D01*
X131064496Y-106506630D01*
X131177996Y-106434022D01*
X131308545Y-106335405D01*
X131369818Y-106285561D01*
X131525822Y-106162165D01*
X131663512Y-106066919D01*
X131789692Y-105996826D01*
X131911164Y-105948889D01*
X132034730Y-105920110D01*
X132167193Y-105907492D01*
X132230496Y-105906286D01*
X132416461Y-105920121D01*
G37*
G36*
X130302479Y-104030124D02*
G01*
X130334972Y-104044436D01*
X130355873Y-104076060D01*
X130368501Y-104131528D01*
X130376177Y-104217372D01*
X130379038Y-104270495D01*
X130389046Y-104476286D01*
X131696694Y-104486286D01*
X131957642Y-104488317D01*
X132181478Y-104490188D01*
X132371122Y-104492008D01*
X132529495Y-104493883D01*
X132659516Y-104495920D01*
X132764104Y-104498225D01*
X132846179Y-104500905D01*
X132908660Y-104504067D01*
X132954468Y-104507817D01*
X132986521Y-104512263D01*
X133007740Y-104517510D01*
X133021044Y-104523665D01*
X133029352Y-104530836D01*
X133032746Y-104535109D01*
X133058323Y-104599391D01*
X133060758Y-104677708D01*
X133041442Y-104752484D01*
X133012020Y-104797196D01*
X132962891Y-104846286D01*
X130379038Y-104846286D01*
X130379038Y-105045152D01*
X130378326Y-105137060D01*
X130375087Y-105197525D01*
X130367668Y-105235099D01*
X130354415Y-105258329D01*
X130334553Y-105275152D01*
X130270929Y-105303546D01*
X130213707Y-105293111D01*
X130178881Y-105266286D01*
X130167077Y-105252695D01*
X130157850Y-105235157D01*
X130150884Y-105208968D01*
X130145863Y-105169423D01*
X130142470Y-105111817D01*
X130140389Y-105031445D01*
X130139304Y-104923602D01*
X130138898Y-104783583D01*
X130138849Y-104670737D01*
X130139181Y-104493080D01*
X130140663Y-104351379D01*
X130144024Y-104241591D01*
X130149994Y-104159674D01*
X130159303Y-104101585D01*
X130172679Y-104063281D01*
X130190852Y-104040721D01*
X130214551Y-104029863D01*
X130244506Y-104026662D01*
X130255075Y-104026593D01*
X130302479Y-104030124D01*
G37*
G36*
X131331550Y-101326271D02*
G01*
X131100265Y-101326168D01*
X130903276Y-101325892D01*
X130737715Y-101325359D01*
X130600715Y-101324483D01*
X130489409Y-101323180D01*
X130400928Y-101321364D01*
X130332404Y-101318951D01*
X130280971Y-101315855D01*
X130243761Y-101311992D01*
X130217905Y-101307277D01*
X130200536Y-101301625D01*
X130188787Y-101294950D01*
X130179789Y-101287168D01*
X130176711Y-101284119D01*
X130160083Y-101265073D01*
X130148774Y-101242254D01*
X130142022Y-101208562D01*
X130139068Y-101156900D01*
X130139153Y-101080168D01*
X130141517Y-100971269D01*
X130141848Y-100958363D01*
X130141909Y-100956286D01*
X130389046Y-100956286D01*
X131594996Y-100961443D01*
X132800945Y-100966599D01*
X132800945Y-100914465D01*
X132792237Y-100860605D01*
X132771035Y-100799491D01*
X132768663Y-100794356D01*
X132733774Y-100743666D01*
X132679570Y-100687853D01*
X132642717Y-100657678D01*
X132498394Y-100573130D01*
X132319534Y-100505094D01*
X132108225Y-100453936D01*
X131866557Y-100420020D01*
X131596616Y-100403713D01*
X131300490Y-100405379D01*
X131219700Y-100408790D01*
X131018985Y-100423730D01*
X130853518Y-100447443D01*
X130719305Y-100480807D01*
X130612348Y-100524702D01*
X130564749Y-100552938D01*
X130475779Y-100627167D01*
X130421434Y-100710536D01*
X130396310Y-100812394D01*
X130393623Y-100848864D01*
X130389046Y-100956286D01*
X130141909Y-100956286D01*
X130145202Y-100844947D01*
X130149509Y-100762294D01*
X130156373Y-100701174D01*
X130167401Y-100652354D01*
X130184197Y-100606605D01*
X130208368Y-100554695D01*
X130214072Y-100543079D01*
X130299966Y-100406673D01*
X130413506Y-100291666D01*
X130556314Y-100197242D01*
X130730010Y-100122584D01*
X130936217Y-100066874D01*
X131176554Y-100029297D01*
X131247875Y-100022120D01*
X131516565Y-100010189D01*
X131774248Y-100022760D01*
X132017605Y-100058581D01*
X132243315Y-100116396D01*
X132448060Y-100194953D01*
X132628521Y-100292998D01*
X132781377Y-100409278D01*
X132903309Y-100542539D01*
X132984893Y-100678139D01*
X133014741Y-100746325D01*
X133034355Y-100806430D01*
X133046445Y-100871541D01*
X133053723Y-100954744D01*
X133057275Y-101027614D01*
X133060612Y-101123621D01*
X133060426Y-101188276D01*
X133055587Y-101230157D01*
X133044969Y-101257839D01*
X133027445Y-101279901D01*
X133023588Y-101283819D01*
X132981087Y-101326286D01*
X131600000Y-101326286D01*
X131331550Y-101326271D01*
G37*
G36*
X130234628Y-109167264D02*
G01*
X130263086Y-109171087D01*
X130327512Y-109181814D01*
X130424557Y-109198830D01*
X130550872Y-109221522D01*
X130703105Y-109249279D01*
X130877908Y-109281487D01*
X131071931Y-109317534D01*
X131281823Y-109356805D01*
X131504235Y-109398690D01*
X131638244Y-109424051D01*
X131909851Y-109475472D01*
X132144802Y-109520007D01*
X132345724Y-109558469D01*
X132515244Y-109591668D01*
X132655989Y-109620418D01*
X132770587Y-109645530D01*
X132861665Y-109667817D01*
X132931849Y-109688091D01*
X132983768Y-109707164D01*
X133020047Y-109725848D01*
X133043315Y-109744955D01*
X133056198Y-109765297D01*
X133061323Y-109787687D01*
X133061318Y-109812937D01*
X133058810Y-109841858D01*
X133057104Y-109862672D01*
X133045961Y-109929998D01*
X133019078Y-109973953D01*
X133000176Y-109990137D01*
X132978522Y-110000757D01*
X132938120Y-110013396D01*
X132876325Y-110028569D01*
X132790492Y-110046790D01*
X132677975Y-110068574D01*
X132536129Y-110094437D01*
X132362308Y-110124891D01*
X132153868Y-110160453D01*
X131942194Y-110195965D01*
X131746485Y-110228783D01*
X131562893Y-110259913D01*
X131395175Y-110288692D01*
X131247090Y-110314460D01*
X131122395Y-110336556D01*
X131024848Y-110354319D01*
X130958207Y-110367087D01*
X130926231Y-110374199D01*
X130923985Y-110375102D01*
X130920248Y-110386381D01*
X130921132Y-110386477D01*
X130941875Y-110389837D01*
X130998367Y-110399419D01*
X131086915Y-110414586D01*
X131203830Y-110434702D01*
X131345419Y-110459131D01*
X131507992Y-110487236D01*
X131687858Y-110518382D01*
X131881326Y-110551930D01*
X131960283Y-110565635D01*
X132196405Y-110606582D01*
X132396162Y-110641417D01*
X132562590Y-110671113D01*
X132698722Y-110696641D01*
X132807593Y-110718975D01*
X132892239Y-110739087D01*
X132955692Y-110757951D01*
X133000988Y-110776538D01*
X133031160Y-110795821D01*
X133049244Y-110816774D01*
X133058274Y-110840367D01*
X133061285Y-110867576D01*
X133061310Y-110899370D01*
X133061150Y-110918502D01*
X133050284Y-110998850D01*
X133022909Y-111044497D01*
X132981607Y-111070268D01*
X132918217Y-111094015D01*
X132877795Y-111104108D01*
X132800777Y-111119074D01*
X132694243Y-111139103D01*
X132562223Y-111163481D01*
X132408750Y-111191495D01*
X132237855Y-111222433D01*
X132053570Y-111255581D01*
X131859927Y-111290227D01*
X131660956Y-111325657D01*
X131460690Y-111361159D01*
X131263160Y-111396020D01*
X131072398Y-111429526D01*
X130892436Y-111460964D01*
X130727304Y-111489623D01*
X130581036Y-111514788D01*
X130457661Y-111535747D01*
X130361213Y-111551787D01*
X130295722Y-111562194D01*
X130265220Y-111566256D01*
X130264313Y-111566286D01*
X130199778Y-111551572D01*
X130158796Y-111506398D01*
X130140249Y-111429223D01*
X130138849Y-111392811D01*
X130146374Y-111314948D01*
X130173678Y-111263163D01*
X130227852Y-111229325D01*
X130299298Y-111208823D01*
X130337047Y-111201406D01*
X130409882Y-111187915D01*
X130513453Y-111169130D01*
X130643405Y-111145828D01*
X130795387Y-111118785D01*
X130965046Y-111088781D01*
X131148028Y-111056592D01*
X131319779Y-111026524D01*
X131508429Y-110993446D01*
X131685521Y-110962151D01*
X131847046Y-110933364D01*
X131988992Y-110907812D01*
X132107350Y-110886220D01*
X132198108Y-110869316D01*
X132257256Y-110857824D01*
X132280535Y-110852575D01*
X132267419Y-110847126D01*
X132218411Y-110835799D01*
X132137111Y-110819265D01*
X132027117Y-110798199D01*
X131892030Y-110773271D01*
X131735449Y-110745157D01*
X131560972Y-110714527D01*
X131372199Y-110682056D01*
X131329787Y-110674847D01*
X131134506Y-110641706D01*
X130949518Y-110610274D01*
X130778916Y-110581248D01*
X130626791Y-110555327D01*
X130497237Y-110533210D01*
X130394344Y-110515593D01*
X130322206Y-110503175D01*
X130284914Y-110496654D01*
X130282847Y-110496277D01*
X130208074Y-110470276D01*
X130162115Y-110422208D01*
X130141153Y-110346849D01*
X130138849Y-110299386D01*
X130147156Y-110215048D01*
X130175248Y-110160011D01*
X130227886Y-110126500D01*
X130248936Y-110119551D01*
X130276076Y-110114194D01*
X130338820Y-110103158D01*
X130433248Y-110087094D01*
X130555436Y-110066654D01*
X130701462Y-110042490D01*
X130867405Y-110015252D01*
X131049342Y-109985593D01*
X131243351Y-109954164D01*
X131288376Y-109946897D01*
X131483272Y-109915335D01*
X131665922Y-109885509D01*
X131832567Y-109858050D01*
X131979445Y-109833588D01*
X132102796Y-109812757D01*
X132198859Y-109796186D01*
X132263872Y-109784508D01*
X132294076Y-109778354D01*
X132295755Y-109777745D01*
X132296471Y-109775112D01*
X132291613Y-109771876D01*
X132278239Y-109767462D01*
X132253412Y-109761298D01*
X132214190Y-109752812D01*
X132157636Y-109741430D01*
X132080808Y-109726580D01*
X131980767Y-109707689D01*
X131854575Y-109684184D01*
X131699290Y-109655492D01*
X131511973Y-109621041D01*
X131289686Y-109580257D01*
X131164633Y-109557334D01*
X130976182Y-109522506D01*
X130798932Y-109489188D01*
X130636954Y-109458187D01*
X130494318Y-109430307D01*
X130375095Y-109406353D01*
X130283356Y-109387129D01*
X130223170Y-109373442D01*
X130199109Y-109366400D01*
X130158421Y-109327244D01*
X130143459Y-109275786D01*
X130152090Y-109223992D01*
X130182180Y-109183827D01*
X130231593Y-109167256D01*
X130234628Y-109167264D01*
G37*
G36*
X132960042Y-102235274D02*
G01*
X133011657Y-102275015D01*
X133012020Y-102275377D01*
X133028335Y-102292550D01*
X133040567Y-102310746D01*
X133049304Y-102335585D01*
X133055135Y-102372693D01*
X133058648Y-102427690D01*
X133060429Y-102506201D01*
X133061067Y-102613848D01*
X133061150Y-102745377D01*
X133060931Y-102886131D01*
X133059954Y-102992413D01*
X133057739Y-103069751D01*
X133053806Y-103123674D01*
X133047674Y-103159709D01*
X133038864Y-103183384D01*
X133026895Y-103200227D01*
X133021119Y-103206286D01*
X133012468Y-103214065D01*
X133001309Y-103220763D01*
X132984779Y-103226463D01*
X132960013Y-103231244D01*
X132924148Y-103235188D01*
X132874320Y-103238374D01*
X132807664Y-103240885D01*
X132721318Y-103242799D01*
X132612417Y-103244198D01*
X132478097Y-103245163D01*
X132315496Y-103245773D01*
X132121748Y-103246110D01*
X131893990Y-103246254D01*
X131629358Y-103246286D01*
X131600000Y-103246286D01*
X131331422Y-103246261D01*
X131100011Y-103246132D01*
X130902905Y-103245819D01*
X130737238Y-103245240D01*
X130600148Y-103244316D01*
X130488770Y-103242965D01*
X130400241Y-103241107D01*
X130331697Y-103238662D01*
X130280273Y-103235548D01*
X130243107Y-103231686D01*
X130217334Y-103226994D01*
X130200090Y-103221393D01*
X130188512Y-103214800D01*
X130179736Y-103207137D01*
X130178881Y-103206286D01*
X130164981Y-103189900D01*
X130154722Y-103168636D01*
X130147555Y-103136670D01*
X130142932Y-103088177D01*
X130140305Y-103017334D01*
X130139127Y-102918314D01*
X130138849Y-102785295D01*
X130138849Y-102780737D01*
X130139561Y-102630652D01*
X130142542Y-102515872D01*
X130149066Y-102431715D01*
X130160401Y-102373499D01*
X130177820Y-102336540D01*
X130202593Y-102316157D01*
X130235992Y-102307666D01*
X130267636Y-102306286D01*
X130319977Y-102313711D01*
X130355148Y-102331670D01*
X130355946Y-102332582D01*
X130365121Y-102362748D01*
X130373239Y-102425524D01*
X130379587Y-102513525D01*
X130383416Y-102617582D01*
X130389046Y-102876286D01*
X131084594Y-102881546D01*
X131780141Y-102886805D01*
X131780141Y-102677974D01*
X131782395Y-102567597D01*
X131790891Y-102491180D01*
X131808232Y-102442848D01*
X131837023Y-102416728D01*
X131879864Y-102406943D01*
X131900531Y-102406286D01*
X131949252Y-102414225D01*
X131983467Y-102441412D01*
X132005300Y-102492902D01*
X132016879Y-102573753D01*
X132020330Y-102689020D01*
X132020331Y-102691159D01*
X132020331Y-102887132D01*
X132810953Y-102876286D01*
X132816086Y-102586286D01*
X132818528Y-102471987D01*
X132821801Y-102390859D01*
X132826897Y-102336077D01*
X132834809Y-102300812D01*
X132846530Y-102278238D01*
X132863052Y-102261526D01*
X132863339Y-102261286D01*
X132914131Y-102231033D01*
X132960042Y-102235274D01*
G37*
X136538748Y-115510000D02*
X137961252Y-115510000D01*
X136538748Y-113690000D02*
X137961252Y-113690000D01*
X107196500Y-104982742D02*
X107196500Y-105457258D01*
X108241500Y-104982742D02*
X108241500Y-105457258D01*
X113329648Y-110945000D02*
X113852152Y-110945000D01*
X113329648Y-112415000D02*
X113852152Y-112415000D01*
X108422500Y-88157742D02*
X108422500Y-88632258D01*
X107377500Y-88157742D02*
X107377500Y-88632258D01*
X101750000Y-121400000D02*
X97850000Y-121400000D01*
X101750000Y-121400000D02*
X101750000Y-119400000D01*
X101750000Y-119400000D02*
X97850000Y-119400000D01*
G36*
X134507168Y-93097823D02*
G01*
X134542033Y-93135608D01*
X134592600Y-93196732D01*
X134651589Y-93271783D01*
X134711725Y-93351345D01*
X134765730Y-93426004D01*
X134800811Y-93477698D01*
X134822408Y-93515398D01*
X134820551Y-93530562D01*
X134806243Y-93532698D01*
X134784006Y-93547032D01*
X134739173Y-93587305D01*
X134675588Y-93649424D01*
X134597096Y-93729297D01*
X134507544Y-93822830D01*
X134410776Y-93925930D01*
X134310638Y-94034505D01*
X134210975Y-94144462D01*
X134115632Y-94251707D01*
X134028454Y-94352149D01*
X133960689Y-94432698D01*
X133767630Y-94681286D01*
X133589141Y-94940016D01*
X133429133Y-95202144D01*
X133291514Y-95460922D01*
X133180194Y-95709605D01*
X133113221Y-95895106D01*
X133046522Y-96136505D01*
X132990084Y-96405365D01*
X132947305Y-96682698D01*
X132938831Y-96773345D01*
X132932250Y-96892621D01*
X132927582Y-97032336D01*
X132924850Y-97184297D01*
X132924075Y-97340313D01*
X132925278Y-97492191D01*
X132928481Y-97631740D01*
X132933706Y-97750768D01*
X132940974Y-97841083D01*
X132944196Y-97865658D01*
X132963100Y-97988618D01*
X132851601Y-98011497D01*
X132776097Y-98024152D01*
X132679842Y-98036413D01*
X132582066Y-98045870D01*
X132569968Y-98046788D01*
X132488349Y-98052180D01*
X132440212Y-98053071D01*
X132419169Y-98048532D01*
X132418831Y-98037634D01*
X132427251Y-98026015D01*
X132438581Y-98005863D01*
X132444097Y-97974937D01*
X132443806Y-97925820D01*
X132437713Y-97851096D01*
X132427501Y-97757764D01*
X132413724Y-97597454D01*
X132405524Y-97411474D01*
X132402800Y-97211356D01*
X132405454Y-97008628D01*
X132413383Y-96814819D01*
X132426487Y-96641460D01*
X132438083Y-96542698D01*
X132522187Y-96082987D01*
X132642903Y-95637875D01*
X132799629Y-95208763D01*
X132991760Y-94797051D01*
X133218696Y-94404139D01*
X133479832Y-94031428D01*
X133565616Y-93922698D01*
X133658958Y-93813162D01*
X133771851Y-93689543D01*
X133896434Y-93559729D01*
X134024850Y-93431610D01*
X134149240Y-93313076D01*
X134261746Y-93212016D01*
X134330198Y-93155120D01*
X134459143Y-93052948D01*
X134507168Y-93097823D01*
G37*
G36*
X131718977Y-96203936D02*
G01*
X131750862Y-96231160D01*
X131796858Y-96291184D01*
X131805537Y-96347047D01*
X131777642Y-96406985D01*
X131767885Y-96420001D01*
X131712349Y-96463399D01*
X131646368Y-96469766D01*
X131574684Y-96439083D01*
X131550700Y-96420921D01*
X131501749Y-96362606D01*
X131492553Y-96301765D01*
X131522835Y-96235712D01*
X131530602Y-96225396D01*
X131586405Y-96181117D01*
X131651052Y-96174013D01*
X131718977Y-96203936D01*
G37*
G36*
X133100565Y-92220176D02*
G01*
X133151015Y-92235447D01*
X133222493Y-92260135D01*
X133307028Y-92291271D01*
X133396653Y-92325886D01*
X133483398Y-92361012D01*
X133559294Y-92393680D01*
X133587865Y-92406825D01*
X133663780Y-92445167D01*
X133705512Y-92472760D01*
X133716612Y-92492207D01*
X133712963Y-92498604D01*
X133695515Y-92534820D01*
X133690851Y-92569166D01*
X133698414Y-92618814D01*
X133718892Y-92695668D01*
X133748973Y-92790365D01*
X133785341Y-92893545D01*
X133824685Y-92995847D01*
X133863690Y-93087911D01*
X133899041Y-93160376D01*
X133902116Y-93165948D01*
X133936042Y-93227596D01*
X133960486Y-93273944D01*
X133970500Y-93295588D01*
X133970532Y-93295948D01*
X133956971Y-93311706D01*
X133920021Y-93350520D01*
X133864680Y-93407244D01*
X133795943Y-93476728D01*
X133763319Y-93509441D01*
X133556647Y-93716183D01*
X133473532Y-93546192D01*
X133314183Y-93175240D01*
X133190477Y-92786861D01*
X133109612Y-92423095D01*
X133095089Y-92338984D01*
X133084501Y-92271129D01*
X133079114Y-92228080D01*
X133079111Y-92217291D01*
X133100565Y-92220176D01*
G37*
G36*
X134968589Y-93786129D02*
G01*
X135094609Y-94080329D01*
X135187461Y-94394596D01*
X135246196Y-94725256D01*
X135264823Y-94932698D01*
X135276929Y-95142698D01*
X135200549Y-95182698D01*
X135142431Y-95222129D01*
X135066197Y-95286995D01*
X134978070Y-95370978D01*
X134884275Y-95467757D01*
X134791037Y-95571011D01*
X134704579Y-95674422D01*
X134661301Y-95730236D01*
X134558341Y-95881748D01*
X134458835Y-96054294D01*
X134369508Y-96234603D01*
X134297088Y-96409401D01*
X134259675Y-96522698D01*
X134233953Y-96634184D01*
X134213765Y-96764362D01*
X134199886Y-96902216D01*
X134193091Y-97036726D01*
X134194154Y-97156876D01*
X134203852Y-97251646D01*
X134207245Y-97268097D01*
X134227200Y-97353495D01*
X134114148Y-97439938D01*
X134015273Y-97513433D01*
X133932050Y-97571104D01*
X133868708Y-97610260D01*
X133829473Y-97628206D01*
X133819316Y-97627729D01*
X133811566Y-97604480D01*
X133799684Y-97550973D01*
X133785622Y-97476488D01*
X133777644Y-97429802D01*
X133761665Y-97285732D01*
X133755290Y-97116470D01*
X133758076Y-96935541D01*
X133769580Y-96756473D01*
X133789358Y-96592792D01*
X133808328Y-96492698D01*
X133893826Y-96198951D01*
X134014290Y-95912226D01*
X134171226Y-95629561D01*
X134366139Y-95347989D01*
X134432715Y-95262698D01*
X134486194Y-95199313D01*
X134561512Y-95114741D01*
X134652162Y-95016046D01*
X134751640Y-94910288D01*
X134853440Y-94804529D01*
X134876900Y-94780537D01*
X134988851Y-94665110D01*
X135073393Y-94574338D01*
X135132274Y-94505469D01*
X135167238Y-94455746D01*
X135180033Y-94422415D01*
X135172404Y-94402721D01*
X135146097Y-94393909D01*
X135122701Y-94392698D01*
X135094550Y-94406886D01*
X135044009Y-94446566D01*
X134975369Y-94507412D01*
X134892925Y-94585101D01*
X134800970Y-94675308D01*
X134703799Y-94773707D01*
X134605703Y-94875974D01*
X134510978Y-94977783D01*
X134423916Y-95074811D01*
X134348811Y-95162733D01*
X134308634Y-95212698D01*
X134102951Y-95499966D01*
X133935733Y-95784810D01*
X133805807Y-96070396D01*
X133711999Y-96359892D01*
X133653137Y-96656465D01*
X133628045Y-96963282D01*
X133626914Y-97052698D01*
X133630454Y-97189485D01*
X133639828Y-97327201D01*
X133653938Y-97456475D01*
X133671684Y-97567933D01*
X133691968Y-97652205D01*
X133699805Y-97674393D01*
X133697748Y-97693521D01*
X133673352Y-97716385D01*
X133621602Y-97746462D01*
X133537486Y-97787232D01*
X133536601Y-97787642D01*
X133395247Y-97850246D01*
X133276043Y-97897104D01*
X133182137Y-97927208D01*
X133116675Y-97939553D01*
X133082805Y-97933131D01*
X133082539Y-97932873D01*
X133075257Y-97908126D01*
X133069472Y-97849141D01*
X133065140Y-97754691D01*
X133062216Y-97623552D01*
X133060658Y-97454496D01*
X133060355Y-97316706D01*
X133060620Y-97140326D01*
X133061652Y-96997484D01*
X133063805Y-96881719D01*
X133067430Y-96786570D01*
X133072883Y-96705578D01*
X133080516Y-96632282D01*
X133090683Y-96560221D01*
X133103737Y-96482936D01*
X133106944Y-96465073D01*
X133176157Y-96146830D01*
X133266232Y-95849539D01*
X133380506Y-95565746D01*
X133522316Y-95288002D01*
X133695000Y-95008853D01*
X133868047Y-94765573D01*
X133949830Y-94657605D01*
X134025006Y-94561123D01*
X134098795Y-94470033D01*
X134176414Y-94378241D01*
X134263081Y-94279652D01*
X134364015Y-94168171D01*
X134484432Y-94037704D01*
X134568372Y-93947598D01*
X134881272Y-93612497D01*
X134968589Y-93786129D01*
G37*
G36*
X133837077Y-92546110D02*
G01*
X133882487Y-92571535D01*
X133945343Y-92612481D01*
X134018823Y-92664111D01*
X134096108Y-92721584D01*
X134170375Y-92780061D01*
X134234805Y-92834704D01*
X134252188Y-92850549D01*
X134372440Y-92962698D01*
X134240758Y-93068730D01*
X134177295Y-93118626D01*
X134123813Y-93158483D01*
X134089323Y-93181657D01*
X134083773Y-93184463D01*
X134064350Y-93171905D01*
X134035266Y-93128616D01*
X133999523Y-93061813D01*
X133960127Y-92978711D01*
X133920080Y-92886525D01*
X133882387Y-92792471D01*
X133850050Y-92703765D01*
X133826074Y-92627622D01*
X133813461Y-92571256D01*
X133815217Y-92541885D01*
X133815934Y-92541047D01*
X133837077Y-92546110D01*
G37*
G36*
X131746293Y-92466628D02*
G01*
X131756002Y-92575841D01*
X131765605Y-92674788D01*
X131774196Y-92754720D01*
X131780864Y-92806889D01*
X131782723Y-92817698D01*
X131787168Y-92852667D01*
X131774637Y-92868404D01*
X131735378Y-92872562D01*
X131712643Y-92872698D01*
X131655893Y-92867564D01*
X131615787Y-92845761D01*
X131576931Y-92801520D01*
X131504456Y-92727331D01*
X131420922Y-92686129D01*
X131315549Y-92672732D01*
X131308976Y-92672698D01*
X131198221Y-92688276D01*
X131106911Y-92730919D01*
X131037978Y-92794489D01*
X130994351Y-92872851D01*
X130978961Y-92959866D01*
X130994739Y-93049398D01*
X131044616Y-93135310D01*
X131073404Y-93166001D01*
X131143171Y-93224790D01*
X131207119Y-93257516D01*
X131282214Y-93271002D01*
X131338677Y-93272699D01*
X131454556Y-93261175D01*
X131540731Y-93224950D01*
X131600786Y-93161546D01*
X131638305Y-93068483D01*
X131639236Y-93064733D01*
X131655316Y-93012236D01*
X131677622Y-92987264D01*
X131718671Y-92977834D01*
X131731253Y-92976673D01*
X131803255Y-92970648D01*
X131858755Y-93206673D01*
X131883815Y-93304914D01*
X131917106Y-93423634D01*
X131955548Y-93552950D01*
X131996064Y-93682979D01*
X132035574Y-93803835D01*
X132071000Y-93905636D01*
X132098920Y-93977698D01*
X132102964Y-94000166D01*
X132083756Y-94010335D01*
X132033758Y-94012698D01*
X131994657Y-94010436D01*
X131961348Y-94000212D01*
X131927601Y-93976868D01*
X131887183Y-93935247D01*
X131833863Y-93870191D01*
X131784071Y-93806057D01*
X131709354Y-93738553D01*
X131619148Y-93704009D01*
X131520469Y-93702304D01*
X131420332Y-93733318D01*
X131325753Y-93796930D01*
X131307423Y-93814250D01*
X131239462Y-93907693D01*
X131206655Y-94018004D01*
X131208515Y-94147048D01*
X131213165Y-94176157D01*
X131238554Y-94279741D01*
X131275868Y-94358148D01*
X131332875Y-94425983D01*
X131358689Y-94449730D01*
X131443227Y-94500336D01*
X131535034Y-94515370D01*
X131627474Y-94496769D01*
X131713911Y-94446470D01*
X131787707Y-94366410D01*
X131817859Y-94315692D01*
X131855036Y-94248116D01*
X131890891Y-94203840D01*
X131937506Y-94172889D01*
X132006961Y-94145290D01*
X132036116Y-94135493D01*
X132148470Y-94098456D01*
X132237973Y-94280577D01*
X132423512Y-94623113D01*
X132613330Y-94912777D01*
X132721282Y-95062856D01*
X132612946Y-95322698D01*
X132495302Y-95328551D01*
X132377659Y-95334404D01*
X132313066Y-95234798D01*
X132233920Y-95136513D01*
X132145361Y-95074753D01*
X132041832Y-95046232D01*
X131989511Y-95043365D01*
X131872234Y-95060269D01*
X131777097Y-95107807D01*
X131707832Y-95181216D01*
X131668171Y-95275734D01*
X131661848Y-95386598D01*
X131672615Y-95447715D01*
X131715763Y-95540664D01*
X131790840Y-95613271D01*
X131893230Y-95661518D01*
X131928871Y-95670703D01*
X132051221Y-95689222D01*
X132145416Y-95684338D01*
X132216974Y-95654276D01*
X132271415Y-95597263D01*
X132296689Y-95552471D01*
X132323705Y-95500714D01*
X132350036Y-95472555D01*
X132389556Y-95458793D01*
X132449874Y-95450898D01*
X132510783Y-95444757D01*
X132552261Y-95441310D01*
X132563472Y-95441074D01*
X132559413Y-95459751D01*
X132545757Y-95509087D01*
X132524664Y-95581507D01*
X132499202Y-95666445D01*
X132467032Y-95777720D01*
X132435245Y-95896614D01*
X132408384Y-96005726D01*
X132396106Y-96061269D01*
X132360792Y-96232698D01*
X132204532Y-96232698D01*
X132078648Y-96225621D01*
X131979144Y-96201641D01*
X131894469Y-96156637D01*
X131823408Y-96096722D01*
X131771911Y-96051599D01*
X131727868Y-96030059D01*
X131673713Y-96024460D01*
X131657749Y-96024629D01*
X131569846Y-96043152D01*
X131490409Y-96089743D01*
X131424199Y-96156786D01*
X131375976Y-96236665D01*
X131350498Y-96321762D01*
X131352525Y-96404463D01*
X131380353Y-96468516D01*
X131444670Y-96528295D01*
X131536852Y-96570538D01*
X131647096Y-96591261D01*
X131685778Y-96592698D01*
X131787844Y-96582113D01*
X131861542Y-96547942D01*
X131913195Y-96486561D01*
X131929289Y-96453122D01*
X131944480Y-96422131D01*
X131964789Y-96400753D01*
X131997964Y-96386264D01*
X132051751Y-96375938D01*
X132133900Y-96367052D01*
X132187441Y-96362347D01*
X132335331Y-96349730D01*
X132320855Y-96456214D01*
X132301221Y-96617943D01*
X132285527Y-96781766D01*
X132274870Y-96934308D01*
X132270346Y-97062193D01*
X132270274Y-97072734D01*
X132269732Y-97222770D01*
X131916124Y-97233360D01*
X131857743Y-97119569D01*
X131786516Y-97017049D01*
X131695732Y-96949398D01*
X131584966Y-96916353D01*
X131526943Y-96912698D01*
X131424000Y-96923051D01*
X131348603Y-96956354D01*
X131293390Y-97015981D01*
X131290149Y-97021133D01*
X131245405Y-97128086D01*
X131236727Y-97237596D01*
X131261015Y-97343932D01*
X131315173Y-97441361D01*
X131396103Y-97524152D01*
X131500707Y-97586571D01*
X131614264Y-97620910D01*
X131708591Y-97621170D01*
X131787128Y-97584804D01*
X131849993Y-97511718D01*
X131897305Y-97401819D01*
X131898548Y-97397745D01*
X131910660Y-97371867D01*
X131933471Y-97354019D01*
X131974453Y-97341916D01*
X132041078Y-97333275D01*
X132131944Y-97326385D01*
X132264369Y-97317735D01*
X132277696Y-97500217D01*
X132289940Y-97648191D01*
X132303545Y-97778581D01*
X132317830Y-97886788D01*
X132332116Y-97968214D01*
X132345723Y-98018261D01*
X132356417Y-98032698D01*
X132366406Y-98041735D01*
X132358719Y-98051782D01*
X132330565Y-98058694D01*
X132270634Y-98060545D01*
X132186779Y-98057932D01*
X132086853Y-98051448D01*
X131978708Y-98041689D01*
X131870197Y-98029251D01*
X131769172Y-98014727D01*
X131697302Y-98001655D01*
X131369731Y-97915649D01*
X131062719Y-97796543D01*
X130773839Y-97643016D01*
X130500664Y-97453745D01*
X130240766Y-97227407D01*
X130196689Y-97184109D01*
X129960910Y-96922119D01*
X129761817Y-96644200D01*
X129599594Y-96350845D01*
X129474424Y-96042544D01*
X129386492Y-95719789D01*
X129335980Y-95383071D01*
X129323072Y-95032882D01*
X129330119Y-94862698D01*
X129371892Y-94527726D01*
X129451848Y-94202524D01*
X129568779Y-93889725D01*
X129721478Y-93591961D01*
X129908740Y-93311863D01*
X130129356Y-93052065D01*
X130187463Y-92992698D01*
X130377613Y-92815647D01*
X130565810Y-92666617D01*
X130764608Y-92536349D01*
X130932635Y-92443091D01*
X131051464Y-92385962D01*
X131185726Y-92328939D01*
X131324650Y-92275968D01*
X131457465Y-92230994D01*
X131573402Y-92197966D01*
X131640166Y-92183832D01*
X131721160Y-92170558D01*
X131746293Y-92466628D01*
G37*
G36*
X131385201Y-92789563D02*
G01*
X131451262Y-92838558D01*
X131493198Y-92917286D01*
X131509050Y-93023347D01*
X131509133Y-93032549D01*
X131500800Y-93095346D01*
X131470190Y-93139553D01*
X131456394Y-93151247D01*
X131382487Y-93187316D01*
X131302971Y-93183791D01*
X131227160Y-93147098D01*
X131153582Y-93079647D01*
X131115669Y-93003431D01*
X131114550Y-92923756D01*
X131151352Y-92845925D01*
X131160637Y-92834233D01*
X131204240Y-92792387D01*
X131252412Y-92775142D01*
X131296973Y-92772698D01*
X131385201Y-92789563D01*
G37*
G36*
X135268731Y-95296337D02*
G01*
X135264973Y-95318357D01*
X135259724Y-95365471D01*
X135258093Y-95382698D01*
X135229231Y-95586161D01*
X135179762Y-95807343D01*
X135113546Y-96032309D01*
X135034447Y-96247121D01*
X134990734Y-96347530D01*
X134919151Y-96486739D01*
X134828722Y-96638622D01*
X134726026Y-96793813D01*
X134617647Y-96942941D01*
X134510165Y-97076638D01*
X134410163Y-97185537D01*
X134385006Y-97209745D01*
X134334423Y-97256792D01*
X134320220Y-97162154D01*
X134312426Y-97029295D01*
X134323061Y-96872670D01*
X134350295Y-96703010D01*
X134392296Y-96531048D01*
X134447235Y-96367517D01*
X134461974Y-96331117D01*
X134557092Y-96136549D01*
X134680471Y-95934057D01*
X134824897Y-95734244D01*
X134983153Y-95547715D01*
X135025787Y-95502586D01*
X135075545Y-95453401D01*
X135130561Y-95402449D01*
X135184155Y-95355402D01*
X135229646Y-95317931D01*
X135260352Y-95295708D01*
X135269594Y-95294406D01*
X135268731Y-95296337D01*
G37*
G36*
X132369811Y-92311674D02*
G01*
X132383326Y-92586946D01*
X132422236Y-92876610D01*
X132484085Y-93172303D01*
X132566417Y-93465662D01*
X132666776Y-93748322D01*
X132782708Y-94011920D01*
X132911757Y-94248092D01*
X132960734Y-94324465D01*
X132999060Y-94386453D01*
X133023734Y-94436131D01*
X133030304Y-94464266D01*
X133029186Y-94466367D01*
X133014298Y-94489474D01*
X132985083Y-94540758D01*
X132945621Y-94612874D01*
X132899991Y-94698477D01*
X132895196Y-94707590D01*
X132777026Y-94932482D01*
X132641641Y-94727590D01*
X132433671Y-94377499D01*
X132255556Y-94003126D01*
X132108448Y-93608074D01*
X131993499Y-93195945D01*
X131911863Y-92770341D01*
X131864691Y-92334865D01*
X131861885Y-92290427D01*
X131852901Y-92138156D01*
X131986258Y-92125569D01*
X132081697Y-92118545D01*
X132184815Y-92113913D01*
X132244712Y-92112841D01*
X132369811Y-92112698D01*
X132369811Y-92311674D01*
G37*
G36*
X132042643Y-95168897D02*
G01*
X132119178Y-95212588D01*
X132175079Y-95276415D01*
X132204362Y-95353019D01*
X132201042Y-95435043D01*
X132195485Y-95452698D01*
X132160677Y-95511642D01*
X132105545Y-95543448D01*
X132025125Y-95552698D01*
X131928188Y-95542819D01*
X131856582Y-95514778D01*
X131824688Y-95484704D01*
X131816586Y-95453761D01*
X131811115Y-95397023D01*
X131809676Y-95347698D01*
X131819558Y-95252588D01*
X131850825Y-95190101D01*
X131905014Y-95158127D01*
X131951459Y-95152698D01*
X132042643Y-95168897D01*
G37*
G36*
X131622465Y-97045240D02*
G01*
X131685962Y-97105157D01*
X131731382Y-97181127D01*
X131763550Y-97284563D01*
X131760756Y-97374417D01*
X131755138Y-97392698D01*
X131714583Y-97457323D01*
X131655533Y-97487950D01*
X131582185Y-97483533D01*
X131513954Y-97452807D01*
X131442440Y-97391480D01*
X131393526Y-97313740D01*
X131369517Y-97228996D01*
X131372718Y-97146657D01*
X131405434Y-97076131D01*
X131418152Y-97061789D01*
X131482434Y-97021222D01*
X131552580Y-97016483D01*
X131622465Y-97045240D01*
G37*
G36*
X132584980Y-92122951D02*
G01*
X132650245Y-92132518D01*
X132738329Y-92146534D01*
X132832658Y-92162344D01*
X132854907Y-92166201D01*
X132937455Y-92181122D01*
X132986271Y-92192295D01*
X133007128Y-92202451D01*
X133005797Y-92214321D01*
X132989175Y-92229724D01*
X132948590Y-92262698D01*
X132990638Y-92482698D01*
X133080924Y-92869418D01*
X133199629Y-93236099D01*
X133345020Y-93577572D01*
X133382963Y-93653778D01*
X133420528Y-93728069D01*
X133449874Y-93788056D01*
X133467045Y-93825545D01*
X133469864Y-93833778D01*
X133457478Y-93852889D01*
X133427047Y-93891043D01*
X133408704Y-93912698D01*
X133370459Y-93960613D01*
X133318716Y-94030144D01*
X133262098Y-94109573D01*
X133235774Y-94147698D01*
X133187102Y-94217266D01*
X133146277Y-94272344D01*
X133118683Y-94305847D01*
X133110354Y-94312698D01*
X133093502Y-94295765D01*
X133062843Y-94249277D01*
X133021970Y-94179700D01*
X132974483Y-94093501D01*
X132923975Y-93997146D01*
X132874045Y-93897100D01*
X132843391Y-93832698D01*
X132729215Y-93553195D01*
X132634271Y-93250535D01*
X132561156Y-92936349D01*
X132512466Y-92622266D01*
X132490797Y-92319917D01*
X132489905Y-92249354D01*
X132489905Y-92110248D01*
X132584980Y-92122951D01*
G37*
G36*
X131592480Y-93842651D02*
G01*
X131655763Y-93877059D01*
X131706276Y-93940424D01*
X131738002Y-94030392D01*
X131744386Y-94076869D01*
X131746012Y-94149398D01*
X131733825Y-94202206D01*
X131706070Y-94250860D01*
X131660685Y-94306815D01*
X131610751Y-94354706D01*
X131604208Y-94359765D01*
X131549165Y-94400509D01*
X131494121Y-94359832D01*
X131423650Y-94288525D01*
X131375039Y-94200404D01*
X131350877Y-94105614D01*
X131353752Y-94014300D01*
X131386179Y-93936712D01*
X131451671Y-93870123D01*
X131522443Y-93839554D01*
X131592480Y-93842651D01*
G37*
X139655000Y-68750000D02*
X133765000Y-68750000D01*
X140110000Y-73890000D02*
X133765000Y-73890000D01*
X105160000Y-91670000D02*
X105160000Y-94220000D01*
X106860000Y-91670000D02*
X106860000Y-94220000D01*
X106860000Y-91670000D02*
X105160000Y-91670000D01*
X154600000Y-98610000D02*
X157525000Y-98610000D01*
X154600000Y-95390000D02*
X156100000Y-95390000D01*
X154600000Y-95390000D02*
X153100000Y-95390000D01*
X154600000Y-98610000D02*
X153100000Y-98610000D01*
X105160000Y-80120000D02*
X105160000Y-82670000D01*
X106860000Y-80120000D02*
X106860000Y-82670000D01*
X106860000Y-80120000D02*
X105160000Y-80120000D01*
X104960000Y-95450000D02*
X104960000Y-98000000D01*
X106660000Y-95450000D02*
X104960000Y-95450000D01*
X106660000Y-95450000D02*
X106660000Y-98000000D01*
X139781000Y-82695000D02*
X139781000Y-84695000D01*
X139781000Y-84695000D02*
X143681000Y-84695000D01*
X139781000Y-82695000D02*
X143681000Y-82695000D01*
X144944642Y-98260500D02*
X145419158Y-98260500D01*
X144944642Y-97215500D02*
X145419158Y-97215500D01*
X145380580Y-94570000D02*
X145099420Y-94570000D01*
X145380580Y-93550000D02*
X145099420Y-93550000D01*
X85972742Y-85177500D02*
X86447258Y-85177500D01*
X85972742Y-86222500D02*
X86447258Y-86222500D01*
X112509100Y-96840000D02*
X110559100Y-96840000D01*
X112509100Y-96840000D02*
X114459100Y-96840000D01*
X112509100Y-101960000D02*
X115959100Y-101960000D01*
X112509100Y-101960000D02*
X110559100Y-101960000D01*
X143586000Y-92738300D02*
X143586000Y-93538300D01*
X143586000Y-92738300D02*
X143586000Y-91938300D01*
X140466000Y-92738300D02*
X140466000Y-91938300D01*
X140466000Y-92738300D02*
X140466000Y-94538300D01*
X140110000Y-113020000D02*
X133765000Y-113020000D01*
X139655000Y-107880000D02*
X133765000Y-107880000D01*
X89950000Y-91250000D02*
X89950000Y-94550000D01*
X89950000Y-94550000D02*
X93950000Y-94550000D01*
X75360000Y-91250000D02*
X72560000Y-91250000D01*
X71910000Y-90550000D02*
X71910000Y-89950000D01*
X72560000Y-89250000D02*
X75360000Y-89250000D01*
X76010000Y-89950000D02*
X76010000Y-90550000D01*
X72610000Y-89250000D02*
G75*
G03*
X71910000Y-89950000I-1J-699999D01*
G01*
X71910000Y-90550000D02*
G75*
G03*
X72610000Y-91250000I699999J-1D01*
G01*
X75310000Y-91250000D02*
G75*
G03*
X76010000Y-90550000I1J699999D01*
G01*
X76010000Y-89950000D02*
G75*
G03*
X75310000Y-89250000I-699999J1D01*
G01*
X150087258Y-95708400D02*
X149612742Y-95708400D01*
X150087258Y-96753400D02*
X149612742Y-96753400D01*
X107077500Y-117987742D02*
X107077500Y-118462258D01*
X108122500Y-117987742D02*
X108122500Y-118462258D01*
X127905563Y-103460000D02*
X120450000Y-103460000D01*
X128970000Y-102395563D02*
X127905563Y-103460000D01*
X128970000Y-102395563D02*
X128970000Y-100710000D01*
X120450000Y-103460000D02*
X120450000Y-100710000D01*
X128970000Y-96004437D02*
X127905563Y-94940000D01*
X130210000Y-101710000D02*
X129210000Y-101710000D01*
X120450000Y-94940000D02*
X120450000Y-97690000D01*
X127905563Y-94940000D02*
X120450000Y-94940000D01*
X128970000Y-96004437D02*
X128970000Y-97690000D01*
X129710000Y-102210000D02*
X129710000Y-101210000D01*
X83821700Y-93656000D02*
X84621700Y-93656000D01*
X83821700Y-96776000D02*
X84621700Y-96776000D01*
X83821700Y-93656000D02*
X82021700Y-93656000D01*
X83821700Y-96776000D02*
X83021700Y-96776000D01*
X106860000Y-76720000D02*
X105160000Y-76720000D01*
X106860000Y-76720000D02*
X106860000Y-79270000D01*
X105160000Y-76720000D02*
X105160000Y-79270000D01*
D12*
X79600000Y-111700000D02*
X79600000Y-107500000D01*
X82000000Y-107500000D02*
X82000000Y-111700000D01*
X79600000Y-107500000D02*
X82000000Y-107500000D01*
X82000000Y-111700000D02*
X79600000Y-111700000D01*
D13*
X80827258Y-118722500D02*
X80352742Y-118722500D01*
X80827258Y-117677500D02*
X80352742Y-117677500D01*
X154600000Y-94950000D02*
X157525000Y-94950000D01*
X154600000Y-91730000D02*
X153100000Y-91730000D01*
X154600000Y-94950000D02*
X153100000Y-94950000D01*
X154600000Y-91730000D02*
X156100000Y-91730000D01*
D12*
X165800000Y-75800000D02*
G75*
G03*
X165800000Y-75800000I-3350000J0D01*
G01*
D13*
X76090000Y-119850000D02*
X76090000Y-109690000D01*
X71670000Y-113030000D02*
X71670000Y-111430000D01*
X71670000Y-118110000D02*
X71670000Y-116510000D01*
X71670000Y-110490000D02*
X71670000Y-108890000D01*
X76090000Y-109690000D02*
X77090000Y-109690000D01*
X71670000Y-116510000D02*
X71070000Y-116510000D01*
X77090000Y-108310000D02*
X71070000Y-108310000D01*
X75560000Y-119600000D02*
X75560000Y-109940000D01*
X71070000Y-115570000D02*
X71670000Y-115570000D01*
X71070000Y-118110000D02*
X71670000Y-118110000D01*
X71670000Y-120650000D02*
X71670000Y-119050000D01*
X71670000Y-119050000D02*
X71070000Y-119050000D01*
X71070000Y-121230000D02*
X77090000Y-121230000D01*
X71670000Y-115570000D02*
X71670000Y-113970000D01*
X76090000Y-119850000D02*
X75560000Y-119600000D01*
X71670000Y-111430000D02*
X71070000Y-111430000D01*
X77090000Y-109940000D02*
X76090000Y-109940000D01*
X77090000Y-119850000D02*
X76090000Y-119850000D01*
X71670000Y-108890000D02*
X71070000Y-108890000D01*
X71670000Y-113970000D02*
X71070000Y-113970000D01*
X77090000Y-121230000D02*
X77090000Y-108310000D01*
X71070000Y-113030000D02*
X71670000Y-113030000D01*
X71070000Y-120650000D02*
X71670000Y-120650000D01*
X71070000Y-110490000D02*
X71670000Y-110490000D01*
X71070000Y-108310000D02*
X71070000Y-121230000D01*
X72100000Y-121520000D02*
X76100000Y-121520000D01*
X77090000Y-119600000D02*
X76090000Y-119600000D01*
X75560000Y-109940000D02*
X76090000Y-109690000D01*
X110400000Y-72200000D02*
X110400000Y-69100000D01*
X113200000Y-72200000D02*
X113200000Y-69200000D01*
X111550000Y-72650000D02*
X110475000Y-72650000D01*
X108322500Y-92957742D02*
X108322500Y-93432258D01*
X107277500Y-92957742D02*
X107277500Y-93432258D01*
X145308980Y-96535000D02*
X145027820Y-96535000D01*
X145308980Y-95515000D02*
X145027820Y-95515000D01*
X118850000Y-87920000D02*
X118850000Y-84020000D01*
X116850000Y-87920000D02*
X118850000Y-87920000D01*
X116850000Y-87920000D02*
X116850000Y-84020000D01*
X140110000Y-121470000D02*
X133765000Y-121470000D01*
X139655000Y-116330000D02*
X133765000Y-116330000D01*
X135210000Y-91155000D02*
X139110000Y-91155000D01*
X135210000Y-93155000D02*
X139110000Y-93155000D01*
X135210000Y-91155000D02*
X135210000Y-93155000D01*
X139681000Y-115585000D02*
X143581000Y-115585000D01*
X139681000Y-113585000D02*
X139681000Y-115585000D01*
X139681000Y-113585000D02*
X143581000Y-113585000D01*
X117780000Y-114640320D02*
X117780000Y-114921480D01*
X116760000Y-114640320D02*
X116760000Y-114921480D01*
X159262500Y-93617258D02*
X159262500Y-93142742D01*
X158217500Y-93617258D02*
X158217500Y-93142742D01*
X117980000Y-89610320D02*
X117980000Y-89891480D01*
X116960000Y-89610320D02*
X116960000Y-89891480D01*
X161255358Y-97319500D02*
X160780842Y-97319500D01*
X161255358Y-98364500D02*
X160780842Y-98364500D01*
X139710000Y-76495000D02*
X143610000Y-76495000D01*
X139710000Y-74495000D02*
X143610000Y-74495000D01*
X139710000Y-74495000D02*
X139710000Y-76495000D01*
X144421000Y-74495000D02*
X144421000Y-76495000D01*
X144421000Y-76495000D02*
X148321000Y-76495000D01*
X144421000Y-74495000D02*
X148321000Y-74495000D01*
X135260000Y-96850000D02*
X139160000Y-96850000D01*
X135260000Y-98850000D02*
X139160000Y-98850000D01*
X135260000Y-96850000D02*
X135260000Y-98850000D01*
X93490580Y-84050000D02*
X93209420Y-84050000D01*
X93490580Y-83030000D02*
X93209420Y-83030000D01*
X104960000Y-111825000D02*
X104960000Y-114375000D01*
X106660000Y-111825000D02*
X104960000Y-111825000D01*
X106660000Y-111825000D02*
X106660000Y-114375000D01*
X151321000Y-121535000D02*
X155221000Y-121535000D01*
X151321000Y-119535000D02*
X155221000Y-119535000D01*
X151321000Y-119535000D02*
X151321000Y-121535000D01*
X148245000Y-99739500D02*
X142355000Y-99739500D01*
X148700000Y-104879500D02*
X142355000Y-104879500D01*
X139655000Y-99730000D02*
X133765000Y-99730000D01*
X140110000Y-104870000D02*
X133765000Y-104870000D01*
X78900000Y-95740580D02*
X78900000Y-95459420D01*
X79920000Y-95740580D02*
X79920000Y-95459420D01*
X80437258Y-93772500D02*
X79962742Y-93772500D01*
X80437258Y-92727500D02*
X79962742Y-92727500D01*
X147017500Y-97152258D02*
X147017500Y-96677742D01*
X148062500Y-97152258D02*
X148062500Y-96677742D01*
X107000000Y-72200000D02*
X107000000Y-69100000D01*
X109800000Y-72200000D02*
X109800000Y-69200000D01*
X108150000Y-72650000D02*
X107075000Y-72650000D01*
X155037064Y-78530000D02*
X150682936Y-78530000D01*
X155037064Y-81950000D02*
X150682936Y-81950000D01*
X91564000Y-87971700D02*
X91564000Y-88771700D01*
X91564000Y-87971700D02*
X91564000Y-87171700D01*
X94684000Y-87971700D02*
X94684000Y-86171700D01*
X94684000Y-87971700D02*
X94684000Y-88771700D01*
X85952742Y-83577500D02*
X86427258Y-83577500D01*
X85952742Y-84622500D02*
X86427258Y-84622500D01*
X155237064Y-87090000D02*
X150882936Y-87090000D01*
X155237064Y-90510000D02*
X150882936Y-90510000D01*
X106660000Y-103600000D02*
X104960000Y-103600000D01*
X104960000Y-103600000D02*
X104960000Y-106150000D01*
X106660000Y-103600000D02*
X106660000Y-106150000D01*
X106660000Y-100000000D02*
X104960000Y-100000000D01*
X104960000Y-100000000D02*
X104960000Y-102550000D01*
X106660000Y-100000000D02*
X106660000Y-102550000D01*
X108443500Y-85112742D02*
X108443500Y-85587258D01*
X107398500Y-85112742D02*
X107398500Y-85587258D01*
D12*
X165800000Y-114200000D02*
G75*
G03*
X165800000Y-114200000I-3350000J0D01*
G01*
D13*
X113219648Y-120465000D02*
X113742152Y-120465000D01*
X113219648Y-118995000D02*
X113742152Y-118995000D01*
X116650000Y-113000000D02*
X118650000Y-113000000D01*
X118650000Y-113000000D02*
X118650000Y-109100000D01*
X116650000Y-113000000D02*
X116650000Y-109100000D01*
X80837258Y-113577500D02*
X80362742Y-113577500D01*
X80837258Y-114622500D02*
X80362742Y-114622500D01*
X116860000Y-106440320D02*
X116860000Y-106721480D01*
X117880000Y-106440320D02*
X117880000Y-106721480D01*
X80837258Y-116512500D02*
X80362742Y-116512500D01*
X80837258Y-115467500D02*
X80362742Y-115467500D01*
X130210000Y-92680000D02*
X129210000Y-92680000D01*
X129710000Y-93180000D02*
X129710000Y-92180000D01*
X127905563Y-85910000D02*
X120450000Y-85910000D01*
X120450000Y-94430000D02*
X120450000Y-91680000D01*
X128970000Y-93365563D02*
X127905563Y-94430000D01*
X127905563Y-94430000D02*
X120450000Y-94430000D01*
X128970000Y-86974437D02*
X128970000Y-88660000D01*
X120450000Y-85910000D02*
X120450000Y-88660000D01*
X128970000Y-86974437D02*
X127905563Y-85910000D01*
X128970000Y-93365563D02*
X128970000Y-91680000D01*
X106660000Y-116700000D02*
X104960000Y-116700000D01*
X104960000Y-116700000D02*
X104960000Y-119250000D01*
X106660000Y-116700000D02*
X106660000Y-119250000D01*
X141819420Y-96070000D02*
X142100580Y-96070000D01*
X141819420Y-95050000D02*
X142100580Y-95050000D01*
X161277258Y-93022500D02*
X160802742Y-93022500D01*
X161277258Y-91977500D02*
X160802742Y-91977500D01*
X82970000Y-71332064D02*
X82970000Y-69877936D01*
X84790000Y-71332064D02*
X84790000Y-69877936D01*
X106660000Y-108150000D02*
X104960000Y-108150000D01*
X104960000Y-108150000D02*
X104960000Y-110700000D01*
X106660000Y-108150000D02*
X106660000Y-110700000D01*
X136538748Y-107310000D02*
X137961252Y-107310000D01*
X136538748Y-105490000D02*
X137961252Y-105490000D01*
X114329648Y-81785000D02*
X114852152Y-81785000D01*
X114329648Y-80315000D02*
X114852152Y-80315000D01*
X118950000Y-95970000D02*
X118950000Y-92070000D01*
X116950000Y-95970000D02*
X116950000Y-92070000D01*
X116950000Y-95970000D02*
X118950000Y-95970000D01*
X93666252Y-77355000D02*
X93143748Y-77355000D01*
X93666252Y-75885000D02*
X93143748Y-75885000D01*
X144521000Y-82705000D02*
X144521000Y-84705000D01*
X144521000Y-84705000D02*
X148421000Y-84705000D01*
X144521000Y-82705000D02*
X148421000Y-82705000D01*
X86552500Y-73472258D02*
X86552500Y-72997742D01*
X85507500Y-73472258D02*
X85507500Y-72997742D01*
X117010000Y-97980320D02*
X117010000Y-98261480D01*
X118030000Y-97980320D02*
X118030000Y-98261480D01*
X83587258Y-89577500D02*
X83112742Y-89577500D01*
X83587258Y-90622500D02*
X83112742Y-90622500D01*
X83519420Y-74400000D02*
X83800580Y-74400000D01*
X83519420Y-73380000D02*
X83800580Y-73380000D01*
X95980000Y-119320000D02*
X95980000Y-117400000D01*
X95980000Y-123035000D02*
X86820000Y-123035000D01*
X86820000Y-123035000D02*
X86820000Y-121330000D01*
X86820000Y-117400000D02*
X86820000Y-119320000D01*
X95980000Y-121330000D02*
X95980000Y-123035000D01*
X145012742Y-92922500D02*
X145487258Y-92922500D01*
X145012742Y-91877500D02*
X145487258Y-91877500D01*
X141702742Y-98117500D02*
X142177258Y-98117500D01*
X141702742Y-99162500D02*
X142177258Y-99162500D01*
G36*
X83331806Y-97304602D02*
G01*
X83336260Y-97307936D01*
X83345748Y-97310000D01*
X83365285Y-97310000D01*
X83433406Y-97330002D01*
X83437860Y-97333336D01*
X83460583Y-97338279D01*
X83460025Y-97340844D01*
X83509606Y-97355402D01*
X83515123Y-97359532D01*
X83563827Y-97383911D01*
X83587583Y-97389079D01*
X83587025Y-97391644D01*
X83636606Y-97406202D01*
X83648084Y-97414795D01*
X83690634Y-97436094D01*
X83721180Y-97462562D01*
X83772059Y-97488030D01*
X83776023Y-97491464D01*
X83817634Y-97512294D01*
X83852220Y-97542263D01*
X83893834Y-97563093D01*
X83916979Y-97583148D01*
X83921896Y-97590800D01*
X83953822Y-97618464D01*
X83995434Y-97639293D01*
X84018579Y-97659348D01*
X84023496Y-97667000D01*
X84055422Y-97694664D01*
X84097034Y-97715493D01*
X84120179Y-97735548D01*
X84125097Y-97743202D01*
X84145578Y-97760948D01*
X84150495Y-97768600D01*
X84170978Y-97786348D01*
X84175895Y-97794000D01*
X84196378Y-97811748D01*
X84201295Y-97819400D01*
X84221778Y-97837148D01*
X84226694Y-97844798D01*
X84252465Y-97867129D01*
X84260148Y-97868800D01*
X84279285Y-97868800D01*
X84299073Y-97862990D01*
X84316548Y-97842822D01*
X84324200Y-97837905D01*
X84341948Y-97817422D01*
X84349600Y-97812505D01*
X84367348Y-97792022D01*
X84375000Y-97787105D01*
X84392748Y-97766622D01*
X84400400Y-97761705D01*
X84418148Y-97741222D01*
X84425799Y-97736306D01*
X84434881Y-97725824D01*
X84494606Y-97687441D01*
X84502273Y-97685190D01*
X84519748Y-97665022D01*
X84527400Y-97660105D01*
X84545148Y-97639622D01*
X84552799Y-97634706D01*
X84561881Y-97624224D01*
X84621606Y-97585841D01*
X84629272Y-97583590D01*
X84638081Y-97573424D01*
X84697806Y-97535041D01*
X84705472Y-97532790D01*
X84714281Y-97522624D01*
X84774006Y-97484241D01*
X84781672Y-97481990D01*
X84790481Y-97471824D01*
X84850206Y-97433441D01*
X84870970Y-97427344D01*
X84901006Y-97408041D01*
X84932766Y-97398715D01*
X84944295Y-97391305D01*
X84950965Y-97390346D01*
X84997970Y-97376544D01*
X85028006Y-97357241D01*
X85059766Y-97347915D01*
X85071295Y-97340505D01*
X85077965Y-97339546D01*
X85135965Y-97322516D01*
X85147495Y-97315105D01*
X85182998Y-97310000D01*
X85193685Y-97310000D01*
X85237565Y-97297116D01*
X85249095Y-97289705D01*
X85284598Y-97284600D01*
X85651285Y-97284600D01*
X85719406Y-97304602D01*
X85723860Y-97307936D01*
X85733348Y-97310000D01*
X85778285Y-97310000D01*
X85846406Y-97330002D01*
X85850860Y-97333336D01*
X85873583Y-97338279D01*
X85873025Y-97340844D01*
X85922606Y-97355402D01*
X85927060Y-97358736D01*
X85949783Y-97363679D01*
X85949225Y-97366244D01*
X85998806Y-97380802D01*
X86004323Y-97384932D01*
X86053031Y-97409313D01*
X86053131Y-97409335D01*
X86103831Y-97434713D01*
X86103931Y-97434735D01*
X86154631Y-97460113D01*
X86154731Y-97460135D01*
X86210459Y-97488030D01*
X86214422Y-97491464D01*
X86256034Y-97512293D01*
X86279179Y-97532348D01*
X86284097Y-97540002D01*
X86304578Y-97557748D01*
X86309495Y-97565400D01*
X86329978Y-97583148D01*
X86334896Y-97590800D01*
X86379443Y-97629401D01*
X86389278Y-97644705D01*
X86406178Y-97659348D01*
X86411095Y-97667000D01*
X86431578Y-97684748D01*
X86436495Y-97692400D01*
X86456978Y-97710148D01*
X86461894Y-97717799D01*
X86472376Y-97726881D01*
X86510759Y-97786606D01*
X86513010Y-97794272D01*
X86523176Y-97803081D01*
X86561559Y-97862806D01*
X86567656Y-97883570D01*
X86586959Y-97913606D01*
X86593056Y-97934370D01*
X86612359Y-97964406D01*
X86618456Y-97985170D01*
X86637759Y-98015206D01*
X86647085Y-98046966D01*
X86654495Y-98058495D01*
X86655454Y-98065165D01*
X86672484Y-98123165D01*
X86679895Y-98134695D01*
X86685000Y-98170198D01*
X86685000Y-98206285D01*
X86697884Y-98250165D01*
X86705295Y-98261695D01*
X86710400Y-98297198D01*
X86710400Y-98384085D01*
X86723284Y-98427965D01*
X86730695Y-98439495D01*
X86735800Y-98474998D01*
X86735800Y-98613085D01*
X86715798Y-98681206D01*
X86712464Y-98685660D01*
X86710400Y-98695148D01*
X86710400Y-98765485D01*
X86690398Y-98833606D01*
X86687064Y-98838060D01*
X86685000Y-98847548D01*
X86685000Y-98867085D01*
X86664998Y-98935206D01*
X86661664Y-98939660D01*
X86656721Y-98962383D01*
X86654156Y-98961825D01*
X86639598Y-99011406D01*
X86636264Y-99015860D01*
X86631321Y-99038583D01*
X86628756Y-99038025D01*
X86614198Y-99087606D01*
X86610068Y-99093123D01*
X86583170Y-99146859D01*
X86579736Y-99150823D01*
X86558906Y-99192434D01*
X86532438Y-99222980D01*
X86509487Y-99268831D01*
X86509465Y-99268931D01*
X86481570Y-99324659D01*
X86478136Y-99328622D01*
X86457307Y-99370234D01*
X86437252Y-99393379D01*
X86429600Y-99398296D01*
X86401936Y-99430222D01*
X86381107Y-99471834D01*
X86361052Y-99494979D01*
X86353400Y-99499896D01*
X86325736Y-99531822D01*
X86304907Y-99573434D01*
X86284852Y-99596579D01*
X86277198Y-99601497D01*
X86259452Y-99621978D01*
X86251800Y-99626895D01*
X86234052Y-99647378D01*
X86226400Y-99652295D01*
X86208652Y-99672778D01*
X86201000Y-99677695D01*
X86183252Y-99698178D01*
X86175602Y-99703094D01*
X86147936Y-99735022D01*
X86127106Y-99776636D01*
X86115719Y-99789777D01*
X86055994Y-99828159D01*
X86048327Y-99830410D01*
X86030852Y-99850578D01*
X86023200Y-99855495D01*
X86005452Y-99875978D01*
X85997800Y-99880895D01*
X85980052Y-99901378D01*
X85972400Y-99906295D01*
X85954652Y-99926778D01*
X85947000Y-99931695D01*
X85929252Y-99952178D01*
X85921600Y-99957095D01*
X85903852Y-99977578D01*
X85896200Y-99982495D01*
X85878452Y-100002978D01*
X85870800Y-100007895D01*
X85853052Y-100028378D01*
X85845400Y-100033295D01*
X85827652Y-100053778D01*
X85820000Y-100058695D01*
X85802252Y-100079178D01*
X85794600Y-100084095D01*
X85776852Y-100104578D01*
X85769200Y-100109495D01*
X85751452Y-100129978D01*
X85743800Y-100134895D01*
X85726052Y-100155378D01*
X85718400Y-100160295D01*
X85700652Y-100180778D01*
X85693000Y-100185695D01*
X85675252Y-100206178D01*
X85667600Y-100211095D01*
X85649852Y-100231578D01*
X85642200Y-100236495D01*
X85624452Y-100256978D01*
X85616800Y-100261895D01*
X85599052Y-100282378D01*
X85591400Y-100287295D01*
X85573652Y-100307778D01*
X85566000Y-100312695D01*
X85548252Y-100333178D01*
X85540600Y-100338095D01*
X85522852Y-100358578D01*
X85515200Y-100363495D01*
X85497452Y-100383978D01*
X85489800Y-100388895D01*
X85472052Y-100409378D01*
X85464401Y-100414294D01*
X85455319Y-100424776D01*
X85395594Y-100463159D01*
X85387927Y-100465410D01*
X85370452Y-100485578D01*
X85362800Y-100490495D01*
X85345052Y-100510978D01*
X85337400Y-100515895D01*
X85319652Y-100536378D01*
X85312000Y-100541295D01*
X85294252Y-100561778D01*
X85286600Y-100566695D01*
X85268852Y-100587178D01*
X85261200Y-100592095D01*
X85243452Y-100612578D01*
X85235800Y-100617495D01*
X85218052Y-100637978D01*
X85210400Y-100642895D01*
X85192652Y-100663378D01*
X85185000Y-100668295D01*
X85167252Y-100688778D01*
X85159600Y-100693695D01*
X85141852Y-100714178D01*
X85134200Y-100719095D01*
X85116452Y-100739578D01*
X85108800Y-100744495D01*
X85091052Y-100764978D01*
X85083400Y-100769895D01*
X85065652Y-100790378D01*
X85058000Y-100795295D01*
X85040252Y-100815778D01*
X85032600Y-100820695D01*
X85014852Y-100841178D01*
X85007200Y-100846095D01*
X84989452Y-100866578D01*
X84981800Y-100871495D01*
X84964052Y-100891978D01*
X84956400Y-100896895D01*
X84938652Y-100917378D01*
X84931000Y-100922295D01*
X84913252Y-100942778D01*
X84905600Y-100947695D01*
X84887852Y-100968178D01*
X84880200Y-100973095D01*
X84862452Y-100993578D01*
X84854800Y-100998495D01*
X84837052Y-101018978D01*
X84829400Y-101023895D01*
X84811652Y-101044378D01*
X84804000Y-101049295D01*
X84786252Y-101069778D01*
X84778601Y-101074694D01*
X84769519Y-101085176D01*
X84709794Y-101123559D01*
X84702127Y-101125810D01*
X84684652Y-101145978D01*
X84677000Y-101150895D01*
X84659252Y-101171378D01*
X84651600Y-101176295D01*
X84633852Y-101196778D01*
X84626200Y-101201695D01*
X84608452Y-101222178D01*
X84600800Y-101227095D01*
X84583052Y-101247578D01*
X84575400Y-101252495D01*
X84557652Y-101272978D01*
X84550000Y-101277895D01*
X84532252Y-101298378D01*
X84524600Y-101303295D01*
X84506852Y-101323778D01*
X84499200Y-101328695D01*
X84481452Y-101349178D01*
X84473800Y-101354095D01*
X84456052Y-101374578D01*
X84448400Y-101379495D01*
X84430652Y-101399978D01*
X84423000Y-101404895D01*
X84405252Y-101425378D01*
X84397601Y-101430294D01*
X84388519Y-101440776D01*
X84328793Y-101479159D01*
X84311693Y-101484180D01*
X84240697Y-101484180D01*
X84236459Y-101481866D01*
X84223296Y-101479003D01*
X84167566Y-101451107D01*
X84144421Y-101431052D01*
X84139503Y-101423398D01*
X84119022Y-101405652D01*
X84114105Y-101398000D01*
X84093622Y-101380252D01*
X84088705Y-101372600D01*
X84068222Y-101354852D01*
X84063305Y-101347200D01*
X84042822Y-101329452D01*
X84037905Y-101321800D01*
X84017422Y-101304052D01*
X84012505Y-101296400D01*
X83992022Y-101278652D01*
X83987105Y-101271000D01*
X83966622Y-101253252D01*
X83961705Y-101245600D01*
X83941222Y-101227852D01*
X83936305Y-101220200D01*
X83915822Y-101202452D01*
X83910905Y-101194800D01*
X83890422Y-101177052D01*
X83885505Y-101169400D01*
X83865022Y-101151652D01*
X83860105Y-101144000D01*
X83839622Y-101126252D01*
X83834706Y-101118602D01*
X83802778Y-101090936D01*
X83761166Y-101070107D01*
X83738021Y-101050052D01*
X83733103Y-101042398D01*
X83712622Y-101024652D01*
X83707705Y-101017000D01*
X83687222Y-100999252D01*
X83682305Y-100991600D01*
X83661822Y-100973852D01*
X83656905Y-100966200D01*
X83636422Y-100948452D01*
X83631505Y-100940800D01*
X83611022Y-100923052D01*
X83606105Y-100915400D01*
X83585622Y-100897652D01*
X83580705Y-100890000D01*
X83560222Y-100872252D01*
X83555305Y-100864600D01*
X83534822Y-100846852D01*
X83529905Y-100839200D01*
X83509422Y-100821452D01*
X83504505Y-100813800D01*
X83484022Y-100796052D01*
X83479105Y-100788400D01*
X83458622Y-100770652D01*
X83453705Y-100763000D01*
X83433222Y-100745252D01*
X83428305Y-100737600D01*
X83407822Y-100719852D01*
X83402905Y-100712200D01*
X83382422Y-100694452D01*
X83377505Y-100686800D01*
X83357022Y-100669052D01*
X83352105Y-100661400D01*
X83331622Y-100643652D01*
X83326705Y-100636000D01*
X83306222Y-100618252D01*
X83301305Y-100610600D01*
X83280822Y-100592852D01*
X83275905Y-100585200D01*
X83255422Y-100567452D01*
X83250505Y-100559800D01*
X83230022Y-100542052D01*
X83225105Y-100534400D01*
X83204622Y-100516652D01*
X83199705Y-100509000D01*
X83179222Y-100491252D01*
X83174306Y-100483602D01*
X83142378Y-100455936D01*
X83100766Y-100435107D01*
X83077621Y-100415052D01*
X83072703Y-100407398D01*
X83052222Y-100389652D01*
X83047305Y-100382000D01*
X83026822Y-100364252D01*
X83021905Y-100356600D01*
X83001422Y-100338852D01*
X82996505Y-100331200D01*
X82976022Y-100313452D01*
X82971105Y-100305800D01*
X82950622Y-100288052D01*
X82945705Y-100280400D01*
X82925222Y-100262652D01*
X82920305Y-100255000D01*
X82899822Y-100237252D01*
X82894905Y-100229600D01*
X82874422Y-100211852D01*
X82869505Y-100204200D01*
X82849022Y-100186452D01*
X82844105Y-100178800D01*
X82823622Y-100161052D01*
X82818705Y-100153400D01*
X82798222Y-100135652D01*
X82793305Y-100128000D01*
X82772822Y-100110252D01*
X82767905Y-100102600D01*
X82747422Y-100084852D01*
X82742505Y-100077200D01*
X82722022Y-100059452D01*
X82717105Y-100051800D01*
X82696622Y-100034052D01*
X82691705Y-100026400D01*
X82671222Y-100008652D01*
X82666305Y-100001000D01*
X82645822Y-99983252D01*
X82640905Y-99975600D01*
X82620422Y-99957852D01*
X82615505Y-99950200D01*
X82595022Y-99932452D01*
X82590105Y-99924800D01*
X82569622Y-99907052D01*
X82564705Y-99899400D01*
X82544222Y-99881652D01*
X82539305Y-99874000D01*
X82518822Y-99856252D01*
X82513904Y-99848600D01*
X82469357Y-99809999D01*
X82459523Y-99794697D01*
X82431178Y-99770136D01*
X82389564Y-99749306D01*
X82376423Y-99737919D01*
X82338041Y-99678194D01*
X82335790Y-99670527D01*
X82315622Y-99653052D01*
X82310705Y-99645400D01*
X82290222Y-99627652D01*
X82285305Y-99620000D01*
X82264822Y-99602252D01*
X82259906Y-99594601D01*
X82249424Y-99585519D01*
X82211041Y-99525794D01*
X82208790Y-99518127D01*
X82188622Y-99500652D01*
X82183706Y-99493001D01*
X82173224Y-99483919D01*
X82134841Y-99424194D01*
X82132590Y-99416527D01*
X82112422Y-99399052D01*
X82107506Y-99391401D01*
X82097024Y-99382319D01*
X82058641Y-99322594D01*
X82052544Y-99301830D01*
X82033241Y-99271794D01*
X82027144Y-99251030D01*
X82007841Y-99220994D01*
X82005590Y-99213328D01*
X81995424Y-99204519D01*
X81957041Y-99144794D01*
X81947715Y-99113034D01*
X81940305Y-99101505D01*
X81939346Y-99094835D01*
X81925544Y-99047830D01*
X81906241Y-99017794D01*
X81896915Y-98986034D01*
X81889505Y-98974505D01*
X81888546Y-98967835D01*
X81871516Y-98909835D01*
X81864105Y-98898305D01*
X81863146Y-98891635D01*
X81846116Y-98833635D01*
X81838705Y-98822105D01*
X81833600Y-98786602D01*
X81833600Y-98750515D01*
X81820716Y-98706635D01*
X81813305Y-98695105D01*
X81808200Y-98659602D01*
X81808200Y-98419915D01*
X81828202Y-98351794D01*
X81831536Y-98347340D01*
X81833600Y-98337852D01*
X81833600Y-98267515D01*
X81853602Y-98199394D01*
X81856936Y-98194940D01*
X81859000Y-98185452D01*
X81859000Y-98165915D01*
X81879002Y-98097794D01*
X81882336Y-98093340D01*
X81887279Y-98070617D01*
X81889844Y-98071175D01*
X81904402Y-98021594D01*
X81908532Y-98016077D01*
X81932913Y-97967369D01*
X81932935Y-97967269D01*
X81958313Y-97916569D01*
X81958335Y-97916469D01*
X81986230Y-97860741D01*
X81989664Y-97856777D01*
X82010494Y-97815166D01*
X82040463Y-97780580D01*
X82061293Y-97738966D01*
X82081348Y-97715821D01*
X82089002Y-97710903D01*
X82106748Y-97690422D01*
X82114398Y-97685506D01*
X82151529Y-97642655D01*
X82167132Y-97614081D01*
X82206914Y-97590477D01*
X82208348Y-97588822D01*
X82216000Y-97583905D01*
X82233748Y-97563422D01*
X82241400Y-97558505D01*
X82259148Y-97538022D01*
X82266799Y-97533106D01*
X82275881Y-97522624D01*
X82335606Y-97484241D01*
X82356370Y-97478144D01*
X82386406Y-97458841D01*
X82407170Y-97452744D01*
X82437206Y-97433441D01*
X82457970Y-97427344D01*
X82488006Y-97408041D01*
X82508770Y-97401944D01*
X82538806Y-97382641D01*
X82570566Y-97373315D01*
X82582095Y-97365905D01*
X82588765Y-97364946D01*
X82646765Y-97347916D01*
X82658295Y-97340505D01*
X82664965Y-97339546D01*
X82722965Y-97322516D01*
X82734495Y-97315105D01*
X82769998Y-97310000D01*
X82806085Y-97310000D01*
X82849965Y-97297116D01*
X82861495Y-97289705D01*
X82896998Y-97284600D01*
X83263685Y-97284600D01*
X83331806Y-97304602D01*
G37*
%LPC*%
D14*
X99452500Y-100200000D03*
X97577500Y-100200000D03*
D15*
X86140000Y-111890000D03*
X84590000Y-111890000D03*
D16*
X88590000Y-110760000D03*
X88590000Y-112310000D03*
D17*
X98100000Y-103550000D03*
X99650000Y-103550000D03*
D18*
X103770000Y-117070000D03*
X103770000Y-115520000D03*
D19*
X102220000Y-107010000D03*
X101250000Y-107010000D03*
D20*
X98490000Y-97850000D03*
D21*
X100790000Y-91550000D03*
D20*
X100790000Y-97850000D03*
X103090000Y-97850000D03*
D22*
X101830000Y-110860000D03*
X100560000Y-110860000D03*
X99290000Y-110860000D03*
X98020000Y-110860000D03*
X98020000Y-118060000D03*
X99290000Y-118060000D03*
X100560000Y-118060000D03*
X101830000Y-118060000D03*
D15*
X90680000Y-95650000D03*
X89130000Y-95650000D03*
D23*
X101660000Y-108510000D03*
X103310000Y-108510000D03*
D16*
X91040000Y-111910000D03*
X91040000Y-113460000D03*
D15*
X84730000Y-103800000D03*
X83180000Y-103800000D03*
D18*
X90359000Y-98740000D03*
X90359000Y-97190000D03*
D24*
X85190000Y-116160000D03*
X85190000Y-114510000D03*
D18*
X88440000Y-98740000D03*
X88440000Y-97190000D03*
D25*
X103400000Y-100010000D03*
X103400000Y-101885000D03*
D17*
X97100000Y-108900000D03*
X98650000Y-108900000D03*
D15*
X86080000Y-110300000D03*
X84530000Y-110300000D03*
D26*
X94827500Y-107850000D03*
X94827500Y-107450000D03*
X94827500Y-107050000D03*
X94827500Y-106650000D03*
X94827500Y-106250000D03*
X94827500Y-105850000D03*
X94827500Y-105450000D03*
X94827500Y-105050000D03*
X94827500Y-104650000D03*
X94827500Y-104250000D03*
X94827500Y-103850000D03*
X94827500Y-103450000D03*
X94827500Y-103050000D03*
X94827500Y-102650000D03*
D27*
X93990000Y-101812500D03*
X93590000Y-101812500D03*
X93190000Y-101812500D03*
X92790000Y-101812500D03*
X92390000Y-101812500D03*
X91990000Y-101812500D03*
X91590000Y-101812500D03*
X91190000Y-101812500D03*
X90790000Y-101812500D03*
X90390000Y-101812500D03*
X89990000Y-101812500D03*
X89590000Y-101812500D03*
X89190000Y-101812500D03*
X88790000Y-101812500D03*
D26*
X87952500Y-102650000D03*
X87952500Y-103050000D03*
X87952500Y-103450000D03*
X87952500Y-103850000D03*
X87952500Y-104250000D03*
X87952500Y-104650000D03*
X87952500Y-105050000D03*
X87952500Y-105450000D03*
X87952500Y-105850000D03*
X87952500Y-106250000D03*
X87952500Y-106650000D03*
X87952500Y-107050000D03*
X87952500Y-107450000D03*
X87952500Y-107850000D03*
D27*
X88790000Y-108687500D03*
X89190000Y-108687500D03*
X89590000Y-108687500D03*
X89990000Y-108687500D03*
X90390000Y-108687500D03*
X90790000Y-108687500D03*
X91190000Y-108687500D03*
X91590000Y-108687500D03*
X91990000Y-108687500D03*
X92390000Y-108687500D03*
X92790000Y-108687500D03*
X93190000Y-108687500D03*
X93590000Y-108687500D03*
X93990000Y-108687500D03*
D28*
X91390000Y-105250000D03*
D18*
X95150000Y-93600000D03*
X95150000Y-92050000D03*
D24*
X83390000Y-116160000D03*
X83390000Y-114510000D03*
D16*
X92640000Y-112010000D03*
X92640000Y-113560000D03*
D15*
X86080000Y-108650000D03*
X84530000Y-108650000D03*
D24*
X92340000Y-98460000D03*
X92340000Y-96810000D03*
D25*
X101350000Y-100037500D03*
X101350000Y-101912500D03*
D17*
X114065900Y-73680000D03*
X115615900Y-73680000D03*
D29*
X112340900Y-103380000D03*
X114240900Y-103380000D03*
D16*
X90640000Y-86165000D03*
X90640000Y-87715000D03*
D30*
X73950000Y-95000000D03*
D31*
X81050000Y-84960000D03*
D32*
X81050000Y-82420000D03*
X81050000Y-79880000D03*
X81050000Y-77340000D03*
D33*
X90655000Y-76475000D03*
X89385000Y-76475000D03*
X88115000Y-76475000D03*
X86845000Y-76475000D03*
X86845000Y-81425000D03*
X88115000Y-81425000D03*
X89385000Y-81425000D03*
X90655000Y-81425000D03*
D34*
X88750000Y-78950000D03*
D35*
X117750000Y-104050000D03*
X117750000Y-100750000D03*
D36*
X127960000Y-117250000D03*
X121460000Y-117250000D03*
D37*
X107700000Y-112600000D03*
X107700000Y-114250000D03*
D38*
X96165000Y-72020000D03*
X101565000Y-72020000D03*
D39*
X100300000Y-81700000D03*
X101700000Y-81700000D03*
D37*
X139550000Y-94175000D03*
X139550000Y-95825000D03*
D40*
X95950000Y-88050000D03*
X103350000Y-88050000D03*
D41*
X155822500Y-114740000D03*
X149897500Y-114740000D03*
D15*
X150625000Y-97900000D03*
X149075000Y-97900000D03*
X142725000Y-97100000D03*
X141175000Y-97100000D03*
D42*
X150665000Y-92310000D03*
X149015000Y-92310000D03*
D43*
X135775000Y-75500000D03*
X138725000Y-75500000D03*
D44*
X147970000Y-119535000D03*
X147970000Y-120805000D03*
X147970000Y-118265000D03*
X147970000Y-116995000D03*
D45*
X142505000Y-118265000D03*
X142505000Y-119535000D03*
D46*
X144610000Y-118900000D03*
D45*
X142505000Y-120805000D03*
X142505000Y-116995000D03*
D37*
X163420000Y-92495000D03*
X163420000Y-94145000D03*
D16*
X80950000Y-94825000D03*
X80950000Y-96375000D03*
D41*
X156022500Y-84860000D03*
X150097500Y-84860000D03*
D42*
X81025000Y-90100000D03*
X79375000Y-90100000D03*
D24*
X163469100Y-97890000D03*
X163469100Y-96240000D03*
D16*
X117570000Y-80925900D03*
X117570000Y-82475900D03*
D47*
X152610000Y-69570000D03*
X155910000Y-69570000D03*
D42*
X81025000Y-91690000D03*
X79375000Y-91690000D03*
D23*
X83605000Y-118460000D03*
X85255000Y-118460000D03*
D44*
X147970000Y-71964500D03*
X147970000Y-73234500D03*
X147970000Y-70694500D03*
X147970000Y-69424500D03*
D45*
X142505000Y-70694500D03*
X142505000Y-73234500D03*
X142505000Y-69424500D03*
X142505000Y-71964500D03*
D46*
X144610000Y-71329500D03*
D37*
X107869000Y-96090000D03*
X107869000Y-97740000D03*
X107779000Y-77510000D03*
X107779000Y-79160000D03*
D47*
X140281000Y-106375000D03*
X143581000Y-106375000D03*
D42*
X85195000Y-120170000D03*
X83545000Y-120170000D03*
D48*
X97995000Y-77500000D03*
X101995000Y-77500000D03*
D29*
X112730900Y-94700000D03*
X114630900Y-94700000D03*
D49*
X159400000Y-71000000D03*
D50*
X114934100Y-109755000D03*
X114934100Y-108485000D03*
X114934100Y-107215000D03*
X114934100Y-105945000D03*
X109984100Y-105945000D03*
X109984100Y-107215000D03*
X109984100Y-108485000D03*
X109984100Y-109755000D03*
D51*
X87534000Y-87514200D03*
X86584000Y-87514200D03*
X85634000Y-87514200D03*
X85634000Y-89789200D03*
X86584000Y-89789200D03*
X87534000Y-89789200D03*
D52*
X120350000Y-73000000D03*
D36*
X127960000Y-81220000D03*
X121460000Y-81220000D03*
D53*
X86210000Y-68945000D03*
X86210000Y-70845000D03*
D37*
X107779000Y-100690000D03*
X107779000Y-102340000D03*
D54*
X95325000Y-79400000D03*
X92375000Y-79400000D03*
D23*
X82525000Y-91700000D03*
X84175000Y-91700000D03*
D17*
X160206600Y-96245000D03*
X161756600Y-96245000D03*
D55*
X106010000Y-87245000D03*
X106010000Y-89345000D03*
D24*
X158681900Y-97910000D03*
X158681900Y-96260000D03*
D35*
X117750000Y-120950000D03*
X117750000Y-117650000D03*
D17*
X160285000Y-94170000D03*
X161835000Y-94170000D03*
D15*
X150625000Y-93950000D03*
X149075000Y-93950000D03*
D44*
X147970000Y-81575000D03*
X147970000Y-79035000D03*
X147970000Y-80305000D03*
X147970000Y-77765000D03*
D46*
X144610000Y-79670000D03*
D45*
X142505000Y-80305000D03*
X142505000Y-81575000D03*
X142505000Y-77765000D03*
X142505000Y-79035000D03*
D49*
X159500000Y-102250000D03*
D56*
X90705000Y-73645000D03*
X90705000Y-69795000D03*
D57*
X72490000Y-71200000D03*
D58*
X75030000Y-71200000D03*
X77570000Y-71200000D03*
X80110000Y-71200000D03*
D41*
X155822500Y-101880000D03*
X149897500Y-101880000D03*
D24*
X85230000Y-77620000D03*
X85230000Y-75970000D03*
D41*
X155822500Y-76140000D03*
X149897500Y-76140000D03*
D55*
X106010000Y-73920000D03*
X106010000Y-76020000D03*
D24*
X147540000Y-94025000D03*
X147540000Y-92375000D03*
D59*
X103870000Y-83900000D03*
X100570000Y-83900000D03*
D44*
X139380000Y-79035000D03*
X139380000Y-80305000D03*
X139380000Y-81575000D03*
X139380000Y-77765000D03*
D45*
X133915000Y-80305000D03*
X133915000Y-79035000D03*
D46*
X136020000Y-79670000D03*
D45*
X133915000Y-81575000D03*
X133915000Y-77765000D03*
D44*
X139380000Y-87265000D03*
X139380000Y-89805000D03*
X139380000Y-88535000D03*
X139380000Y-85995000D03*
D46*
X136020000Y-87900000D03*
D45*
X133915000Y-88535000D03*
X133915000Y-89805000D03*
X133915000Y-85995000D03*
X133915000Y-87265000D03*
D50*
X114884100Y-79125000D03*
X114884100Y-77855000D03*
X114884100Y-76585000D03*
X114884100Y-75315000D03*
X109934100Y-75315000D03*
X109934100Y-76585000D03*
X109934100Y-77855000D03*
X109934100Y-79125000D03*
D37*
X107769000Y-74310000D03*
X107769000Y-75960000D03*
D18*
X89100000Y-87735000D03*
X89100000Y-86185000D03*
D60*
X114450000Y-72050000D03*
X115950000Y-72050000D03*
X115950000Y-69350000D03*
X114450000Y-69350000D03*
D37*
X107919000Y-81415000D03*
X107919000Y-83065000D03*
D44*
X147970000Y-87265000D03*
X147970000Y-88535000D03*
X147970000Y-89805000D03*
X147970000Y-85995000D03*
D45*
X142505000Y-87265000D03*
X142505000Y-89805000D03*
X142505000Y-88535000D03*
X142505000Y-85995000D03*
D46*
X144610000Y-87900000D03*
D61*
X111759100Y-81000000D03*
X109859100Y-81000000D03*
D17*
X92575000Y-85100000D03*
X94125000Y-85100000D03*
D50*
X115144100Y-92495000D03*
X115144100Y-91225000D03*
X115144100Y-89955000D03*
X115144100Y-88685000D03*
X110194100Y-88685000D03*
X110194100Y-89955000D03*
X110194100Y-91225000D03*
X110194100Y-92495000D03*
D41*
X155822500Y-105920000D03*
X149897500Y-105920000D03*
D50*
X114944100Y-117525000D03*
X114944100Y-116255000D03*
X114944100Y-114985000D03*
X114944100Y-113715000D03*
X109994100Y-113715000D03*
X109994100Y-114985000D03*
X109994100Y-116255000D03*
X109994100Y-117525000D03*
D23*
X100137000Y-80074900D03*
X101787000Y-80074900D03*
D31*
X74100000Y-87400000D03*
D32*
X74100000Y-84860000D03*
X74100000Y-82320000D03*
X74100000Y-79780000D03*
X74100000Y-77240000D03*
D43*
X135825000Y-83700000D03*
X138775000Y-83700000D03*
D50*
X115134100Y-86875000D03*
X115134100Y-85605000D03*
X115134100Y-84335000D03*
X115134100Y-83065000D03*
X110184100Y-83065000D03*
X110184100Y-84335000D03*
X110184100Y-85605000D03*
X110184100Y-86875000D03*
D37*
X107821000Y-108905000D03*
X107821000Y-110555000D03*
D55*
X106010000Y-83920000D03*
X106010000Y-86020000D03*
D23*
X97133900Y-80060000D03*
X98783900Y-80060000D03*
D41*
X155822500Y-110620000D03*
X149897500Y-110620000D03*
D44*
X147970000Y-111085000D03*
X147970000Y-109815000D03*
X147970000Y-112355000D03*
X147970000Y-108545000D03*
D45*
X142505000Y-109815000D03*
X142505000Y-108545000D03*
X142505000Y-112355000D03*
D46*
X144610000Y-110450000D03*
D45*
X142505000Y-111085000D03*
D36*
X127960000Y-108200000D03*
X121460000Y-108200000D03*
D47*
X145021000Y-114585000D03*
X148321000Y-114585000D03*
D31*
X74100000Y-106000000D03*
D32*
X74100000Y-103460000D03*
X74100000Y-100920000D03*
D47*
X145010000Y-106375000D03*
X148310000Y-106375000D03*
D43*
X135775000Y-114600000D03*
X138725000Y-114600000D03*
D37*
X107719000Y-104395000D03*
X107719000Y-106045000D03*
D29*
X112640900Y-111680000D03*
X114540900Y-111680000D03*
D37*
X107900000Y-87570000D03*
X107900000Y-89220000D03*
D59*
X101150000Y-120400000D03*
X97850000Y-120400000D03*
D44*
X139380000Y-73225000D03*
X139380000Y-70685000D03*
X139380000Y-71955000D03*
X139380000Y-69415000D03*
D45*
X133915000Y-71955000D03*
D46*
X136020000Y-71320000D03*
D45*
X133915000Y-73225000D03*
X133915000Y-70685000D03*
X133915000Y-69415000D03*
D55*
X106010000Y-92120000D03*
X106010000Y-94220000D03*
D62*
X156712500Y-97975000D03*
X156712500Y-97325000D03*
X156712500Y-96675000D03*
X156712500Y-96025000D03*
X152487500Y-96025000D03*
X152487500Y-96675000D03*
X152487500Y-97325000D03*
X152487500Y-97975000D03*
D55*
X106010000Y-80570000D03*
X106010000Y-82670000D03*
X105810000Y-95900000D03*
X105810000Y-98000000D03*
D47*
X140381000Y-83695000D03*
X143681000Y-83695000D03*
D23*
X144356900Y-97738000D03*
X146006900Y-97738000D03*
D15*
X146015000Y-94060000D03*
X144465000Y-94060000D03*
D23*
X85385000Y-85700000D03*
X87035000Y-85700000D03*
D50*
X114984100Y-101305000D03*
X114984100Y-100035000D03*
X114984100Y-98765000D03*
X114984100Y-97495000D03*
X110034100Y-97495000D03*
X110034100Y-98765000D03*
X110034100Y-100035000D03*
X110034100Y-101305000D03*
D63*
X141076000Y-93875800D03*
X142026000Y-93875800D03*
X142976000Y-93875800D03*
X142976000Y-91600800D03*
X142026000Y-91600800D03*
X141076000Y-91600800D03*
D44*
X139380000Y-111085000D03*
X139380000Y-112355000D03*
X139380000Y-109815000D03*
X139380000Y-108545000D03*
D45*
X133915000Y-111085000D03*
X133915000Y-108545000D03*
D46*
X136020000Y-110450000D03*
D45*
X133915000Y-109815000D03*
X133915000Y-112355000D03*
D64*
X90850000Y-93750000D03*
X93050000Y-93750000D03*
X93050000Y-92050000D03*
X90850000Y-92050000D03*
D65*
X72660000Y-90250000D03*
D66*
X73960000Y-90250000D03*
D67*
X75260000Y-90250000D03*
D42*
X150675000Y-96230900D03*
X149025000Y-96230900D03*
D37*
X107600000Y-117400000D03*
X107600000Y-119050000D03*
D36*
X127960000Y-99200000D03*
X121460000Y-99200000D03*
D68*
X82684200Y-94266000D03*
X82684200Y-95216000D03*
X82684200Y-96166000D03*
X84959200Y-96166000D03*
X84959200Y-95216000D03*
X84959200Y-94266000D03*
D55*
X106010000Y-77170000D03*
X106010000Y-79270000D03*
D69*
X80800000Y-109600000D03*
D42*
X81415000Y-118200000D03*
X79765000Y-118200000D03*
D62*
X156712500Y-94315000D03*
X156712500Y-93665000D03*
X156712500Y-93015000D03*
X156712500Y-92365000D03*
X152487500Y-92365000D03*
X152487500Y-93015000D03*
X152487500Y-93665000D03*
X152487500Y-94315000D03*
D30*
X162450000Y-75800000D03*
D31*
X74100000Y-119850000D03*
D32*
X74100000Y-117310000D03*
X74100000Y-114770000D03*
X74100000Y-112230000D03*
X74100000Y-109690000D03*
D60*
X111050000Y-72050000D03*
X112550000Y-72050000D03*
X112550000Y-69350000D03*
X111050000Y-69350000D03*
D37*
X107800000Y-92370000D03*
X107800000Y-94020000D03*
D15*
X145943400Y-96025000D03*
X144393400Y-96025000D03*
D35*
X117850000Y-87320000D03*
X117850000Y-84020000D03*
D44*
X139380000Y-118265000D03*
X139380000Y-120805000D03*
X139380000Y-119535000D03*
X139380000Y-116995000D03*
D45*
X133915000Y-116995000D03*
X133915000Y-119535000D03*
X133915000Y-120805000D03*
X133915000Y-118265000D03*
D46*
X136020000Y-118900000D03*
D47*
X135810000Y-92155000D03*
X139110000Y-92155000D03*
X140281000Y-114585000D03*
X143581000Y-114585000D03*
D16*
X117270000Y-114005900D03*
X117270000Y-115555900D03*
D49*
X159500000Y-87750000D03*
D24*
X158740000Y-94205000D03*
X158740000Y-92555000D03*
D16*
X117470000Y-88975900D03*
X117470000Y-90525900D03*
D42*
X161843100Y-97842000D03*
X160193100Y-97842000D03*
D47*
X140310000Y-75495000D03*
X143610000Y-75495000D03*
X145021000Y-75495000D03*
X148321000Y-75495000D03*
X135860000Y-97850000D03*
X139160000Y-97850000D03*
D15*
X94125000Y-83540000D03*
X92575000Y-83540000D03*
D55*
X105810000Y-112275000D03*
X105810000Y-114375000D03*
D47*
X151921000Y-120535000D03*
X155221000Y-120535000D03*
D44*
X147970000Y-104214500D03*
X147970000Y-101674500D03*
X147970000Y-102944500D03*
X147970000Y-100404500D03*
D45*
X142505000Y-104214500D03*
X142505000Y-101674500D03*
D46*
X144610000Y-102309500D03*
D45*
X142505000Y-100404500D03*
X142505000Y-102944500D03*
D44*
X139380000Y-102935000D03*
X139380000Y-104205000D03*
X139380000Y-101665000D03*
X139380000Y-100395000D03*
D45*
X133915000Y-104205000D03*
D46*
X136020000Y-102300000D03*
D45*
X133915000Y-100395000D03*
X133915000Y-102935000D03*
X133915000Y-101665000D03*
D18*
X79410000Y-96375000D03*
X79410000Y-94825000D03*
D42*
X81025000Y-93250000D03*
X79375000Y-93250000D03*
D24*
X147540000Y-97740000D03*
X147540000Y-96090000D03*
D60*
X107650000Y-72050000D03*
X109150000Y-72050000D03*
X109150000Y-69350000D03*
X107650000Y-69350000D03*
D41*
X155822500Y-80240000D03*
X149897500Y-80240000D03*
D51*
X94074000Y-86834200D03*
X93124000Y-86834200D03*
X92174000Y-86834200D03*
X92174000Y-89109200D03*
X93124000Y-89109200D03*
X94074000Y-89109200D03*
D23*
X85365000Y-84100000D03*
X87015000Y-84100000D03*
D41*
X156022500Y-88800000D03*
X150097500Y-88800000D03*
D49*
X159500000Y-119100000D03*
D55*
X105810000Y-104050000D03*
X105810000Y-106150000D03*
X105810000Y-100450000D03*
X105810000Y-102550000D03*
D49*
X159500000Y-80700000D03*
D37*
X107921000Y-84525000D03*
X107921000Y-86175000D03*
D30*
X162450000Y-114200000D03*
D29*
X112530900Y-119730000D03*
X114430900Y-119730000D03*
D35*
X117650000Y-112400000D03*
X117650000Y-109100000D03*
D42*
X81425000Y-114100000D03*
X79775000Y-114100000D03*
D16*
X117370000Y-105805900D03*
X117370000Y-107355900D03*
D49*
X159500000Y-109300000D03*
D42*
X81425000Y-115990000D03*
X79775000Y-115990000D03*
D36*
X127960000Y-90170000D03*
X121460000Y-90170000D03*
D55*
X105810000Y-117150000D03*
X105810000Y-119250000D03*
D17*
X141185000Y-95560000D03*
X142735000Y-95560000D03*
D42*
X161865000Y-92500000D03*
X160215000Y-92500000D03*
D70*
X83880000Y-72067500D03*
X83880000Y-69142500D03*
D55*
X105810000Y-108600000D03*
X105810000Y-110700000D03*
D43*
X135775000Y-106400000D03*
X138725000Y-106400000D03*
D29*
X113640900Y-81050000D03*
X115540900Y-81050000D03*
D35*
X117950000Y-95370000D03*
X117950000Y-92070000D03*
D61*
X94355000Y-76620000D03*
X92455000Y-76620000D03*
D47*
X145121000Y-83705000D03*
X148421000Y-83705000D03*
D24*
X86030000Y-74060000D03*
X86030000Y-72410000D03*
D16*
X117520000Y-97345900D03*
X117520000Y-98895900D03*
D42*
X84175000Y-90100000D03*
X82525000Y-90100000D03*
D17*
X82885000Y-73890000D03*
X84435000Y-73890000D03*
D71*
X94290000Y-116645000D03*
X88510000Y-116645000D03*
D72*
X88050000Y-115580000D03*
X88850000Y-115580000D03*
X90150000Y-115580000D03*
X91150000Y-115580000D03*
X91650000Y-115580000D03*
X92650000Y-115580000D03*
X93950000Y-115580000D03*
X94750000Y-115580000D03*
X94450000Y-115580000D03*
X93650000Y-115580000D03*
X93150000Y-115580000D03*
X92150000Y-115580000D03*
X90650000Y-115580000D03*
X89650000Y-115580000D03*
X89150000Y-115580000D03*
X88350000Y-115580000D03*
D73*
X95720000Y-116145000D03*
X87080000Y-116145000D03*
D74*
X87080000Y-120325000D03*
X95720000Y-120325000D03*
D23*
X144425000Y-92400000D03*
X146075000Y-92400000D03*
D52*
X127350000Y-73000000D03*
D23*
X141115000Y-98640000D03*
X142765000Y-98640000D03*
M02*
