G04 #@! TF.GenerationSoftware,KiCad,Pcbnew,7.0.2-6a45011f42~172~ubuntu22.04.1*
G04 #@! TF.CreationDate,2023-05-09T17:27:58-07:00*
G04 #@! TF.ProjectId,RP2040_motor,52503230-3430-45f6-9d6f-746f722e6b69,REV1*
G04 #@! TF.SameCoordinates,Original*
G04 #@! TF.FileFunction,Soldermask,Bot*
G04 #@! TF.FilePolarity,Negative*
%FSLAX46Y46*%
G04 Gerber Fmt 4.6, Leading zero omitted, Abs format (unit mm)*
G04 Created by KiCad (PCBNEW 7.0.2-6a45011f42~172~ubuntu22.04.1) date 2023-05-09 17:27:58*
%MOMM*%
%LPD*%
G01*
G04 APERTURE LIST*
G04 Aperture macros list*
%AMRoundRect*
0 Rectangle with rounded corners*
0 $1 Rounding radius*
0 $2 $3 $4 $5 $6 $7 $8 $9 X,Y pos of 4 corners*
0 Add a 4 corners polygon primitive as box body*
4,1,4,$2,$3,$4,$5,$6,$7,$8,$9,$2,$3,0*
0 Add four circle primitives for the rounded corners*
1,1,$1+$1,$2,$3*
1,1,$1+$1,$4,$5*
1,1,$1+$1,$6,$7*
1,1,$1+$1,$8,$9*
0 Add four rect primitives between the rounded corners*
20,1,$1+$1,$2,$3,$4,$5,0*
20,1,$1+$1,$4,$5,$6,$7,0*
20,1,$1+$1,$6,$7,$8,$9,0*
20,1,$1+$1,$8,$9,$2,$3,0*%
%AMFreePoly0*
4,1,19,0.500000,-0.750000,0.000000,-0.750000,0.000000,-0.744911,-0.071157,-0.744911,-0.207708,-0.704816,-0.327430,-0.627875,-0.420627,-0.520320,-0.479746,-0.390866,-0.500000,-0.250000,-0.500000,0.250000,-0.479746,0.390866,-0.420627,0.520320,-0.327430,0.627875,-0.207708,0.704816,-0.071157,0.744911,0.000000,0.744911,0.000000,0.750000,0.500000,0.750000,0.500000,-0.750000,0.500000,-0.750000,
$1*%
%AMFreePoly1*
4,1,19,0.000000,0.744911,0.071157,0.744911,0.207708,0.704816,0.327430,0.627875,0.420627,0.520320,0.479746,0.390866,0.500000,0.250000,0.500000,-0.250000,0.479746,-0.390866,0.420627,-0.520320,0.327430,-0.627875,0.207708,-0.704816,0.071157,-0.744911,0.000000,-0.744911,0.000000,-0.750000,-0.500000,-0.750000,-0.500000,0.750000,0.000000,0.750000,0.000000,0.744911,0.000000,0.744911,
$1*%
G04 Aperture macros list end*
%ADD10C,1.500000*%
%ADD11R,1.600000X1.600000*%
%ADD12C,1.600000*%
%ADD13C,3.900000*%
%ADD14RoundRect,1.500000X1.500000X1.500000X-1.500000X1.500000X-1.500000X-1.500000X1.500000X-1.500000X0*%
%ADD15C,6.000000*%
%ADD16RoundRect,0.250000X0.845000X-0.620000X0.845000X0.620000X-0.845000X0.620000X-0.845000X-0.620000X0*%
%ADD17O,2.190000X1.740000*%
%ADD18C,5.200000*%
%ADD19RoundRect,0.250000X0.620000X0.845000X-0.620000X0.845000X-0.620000X-0.845000X0.620000X-0.845000X0*%
%ADD20O,1.740000X2.190000*%
%ADD21C,2.050000*%
%ADD22C,2.800000*%
%ADD23C,1.400000*%
%ADD24C,0.650000*%
%ADD25O,1.000000X2.100000*%
%ADD26O,1.000000X1.600000*%
%ADD27C,3.000000*%
%ADD28C,2.000000*%
%ADD29FreePoly0,180.000000*%
%ADD30FreePoly1,180.000000*%
%ADD31R,2.000000X1.500000*%
%ADD32R,2.000000X3.800000*%
G04 APERTURE END LIST*
D10*
X114575000Y-44425000D03*
X111175000Y-53475000D03*
X114025000Y-51275000D03*
X102175000Y-64975000D03*
X102575000Y-67575000D03*
X89325000Y-58625000D03*
X107475000Y-50625000D03*
X103825000Y-50475000D03*
X109375000Y-38725000D03*
X110725000Y-40925000D03*
X144225000Y-47975000D03*
X122175000Y-40625000D03*
X141275000Y-47225000D03*
X125325000Y-40625000D03*
X122475000Y-37375000D03*
X119425000Y-42675000D03*
X120075000Y-46525000D03*
X125275000Y-50075000D03*
X120125000Y-53075000D03*
X121725000Y-49625000D03*
X136475000Y-43825000D03*
X136425000Y-35225000D03*
X143625000Y-62925000D03*
X123875000Y-66475000D03*
X137075000Y-46475000D03*
X95425000Y-69075000D03*
X115775000Y-66025000D03*
X120875000Y-62875000D03*
X148375000Y-59425000D03*
X121775000Y-55975000D03*
X124475000Y-53575000D03*
X118425000Y-55225000D03*
X115525000Y-57725000D03*
X122625000Y-60775000D03*
X103275000Y-61775000D03*
X106675000Y-61525000D03*
D11*
X133500000Y-80450000D03*
D12*
X130000000Y-80450000D03*
D13*
X65700000Y-34950000D03*
D14*
X139140000Y-62660000D03*
D15*
X131940000Y-62660000D03*
D16*
X99390000Y-112050000D03*
D17*
X99390000Y-109510000D03*
X99390000Y-106970000D03*
D11*
X133500000Y-36120000D03*
D12*
X130000000Y-36120000D03*
D16*
X73540000Y-54400000D03*
D17*
X73540000Y-51860000D03*
X73540000Y-49320000D03*
X73540000Y-46780000D03*
X73540000Y-44240000D03*
X73540000Y-41700000D03*
D13*
X172700000Y-34950000D03*
D18*
X171145000Y-48295000D03*
X171145000Y-42795000D03*
X166385000Y-45545000D03*
D16*
X121865000Y-112747000D03*
D17*
X121865000Y-110207000D03*
X121865000Y-107667000D03*
X121865000Y-105127000D03*
D19*
X113327000Y-98012000D03*
D20*
X110787000Y-98012000D03*
X108247000Y-98012000D03*
X105707000Y-98012000D03*
X103167000Y-98012000D03*
X100627000Y-98012000D03*
D18*
X171795000Y-82570000D03*
X171795000Y-77070000D03*
X167035000Y-79820000D03*
D16*
X66340000Y-90090000D03*
D17*
X66340000Y-87550000D03*
X66340000Y-85010000D03*
D11*
X133500000Y-89275000D03*
D12*
X130000000Y-89275000D03*
D11*
X133500000Y-71700000D03*
D12*
X130000000Y-71700000D03*
D16*
X66340000Y-70750000D03*
D17*
X66340000Y-68210000D03*
X66340000Y-65670000D03*
X66340000Y-63130000D03*
X66340000Y-60590000D03*
D16*
X66340000Y-53086000D03*
D17*
X66340000Y-50546000D03*
X66340000Y-48006000D03*
X66340000Y-45466000D03*
X66340000Y-42926000D03*
X66340000Y-40386000D03*
D11*
X133500000Y-53600000D03*
D12*
X130000000Y-53600000D03*
D21*
X149300000Y-106900000D03*
D22*
X149300000Y-110900000D03*
D21*
X164300000Y-106900000D03*
D22*
X164300000Y-110900000D03*
D23*
X155300000Y-104800000D03*
X158300000Y-104800000D03*
X159525000Y-106900000D03*
X158875000Y-109000000D03*
X156800000Y-109000000D03*
X154725000Y-109000000D03*
X154075000Y-106900000D03*
X156800000Y-106900000D03*
X156800000Y-110900000D03*
D24*
X85360000Y-109295000D03*
X91140000Y-109295000D03*
D25*
X83930000Y-108795000D03*
D26*
X83930000Y-112975000D03*
D25*
X92570000Y-108795000D03*
D26*
X92570000Y-112975000D03*
D27*
X100225000Y-77550000D03*
D16*
X162663000Y-98050000D03*
D17*
X162663000Y-95510000D03*
D13*
X172700000Y-69200000D03*
X172700000Y-56100000D03*
X172700000Y-90500000D03*
X65700000Y-111100000D03*
D21*
X130400000Y-106925000D03*
D22*
X130400000Y-110925000D03*
D21*
X145400000Y-106925000D03*
D22*
X145400000Y-110925000D03*
D23*
X136400000Y-104825000D03*
X139400000Y-104825000D03*
X140625000Y-106925000D03*
X139975000Y-109025000D03*
X137900000Y-109025000D03*
X135825000Y-109025000D03*
X135175000Y-106925000D03*
X137900000Y-106925000D03*
X137900000Y-110925000D03*
D16*
X66340000Y-81050000D03*
D17*
X66340000Y-78510000D03*
X66340000Y-75970000D03*
D16*
X73490000Y-70850000D03*
D17*
X73490000Y-68310000D03*
X73490000Y-65770000D03*
X73490000Y-63230000D03*
X73490000Y-60690000D03*
X73490000Y-58150000D03*
D13*
X172700000Y-111100000D03*
D11*
X79130302Y-38025000D03*
D12*
X79130302Y-34525000D03*
D11*
X133500000Y-44820000D03*
D12*
X130000000Y-44820000D03*
D24*
X72660000Y-109295000D03*
X78440000Y-109295000D03*
D25*
X71230000Y-108795000D03*
D26*
X71230000Y-112975000D03*
D25*
X79870000Y-108795000D03*
D26*
X79870000Y-112975000D03*
D16*
X66340000Y-100500000D03*
D17*
X66340000Y-97960000D03*
X66340000Y-95420000D03*
D28*
X78264286Y-111125000D03*
X152239286Y-100850000D03*
X71964286Y-102500000D03*
X85889286Y-55725000D03*
X79464286Y-75700000D03*
X83514286Y-84925000D03*
X76339286Y-95250000D03*
D27*
X159889286Y-47950000D03*
D28*
X170564286Y-100975000D03*
D27*
X168864286Y-72525000D03*
D28*
X76039286Y-78600000D03*
X84939286Y-34900000D03*
D29*
X107725000Y-66425000D03*
D30*
X106425000Y-66425000D03*
D28*
X98389286Y-59600000D03*
X144464286Y-100000000D03*
X95539286Y-95450000D03*
X114964286Y-92475000D03*
X85139286Y-46675000D03*
X154689286Y-98225000D03*
X113664286Y-106425000D03*
X82064286Y-68825000D03*
X157539286Y-52125000D03*
X83389286Y-62750000D03*
X101514286Y-102025000D03*
X122939286Y-83925000D03*
X73189286Y-34475000D03*
D27*
X159014286Y-77450000D03*
D28*
X68914286Y-104900000D03*
D27*
X167914286Y-38275000D03*
D29*
X107825000Y-46975000D03*
D30*
X106525000Y-46975000D03*
D28*
X129739286Y-102075000D03*
X72914286Y-111100000D03*
X86989286Y-61500000D03*
X82289286Y-55425000D03*
X87289286Y-66300000D03*
X117789286Y-107225000D03*
X97639286Y-70700000D03*
D31*
X96464286Y-38750000D03*
X96464286Y-41050000D03*
D32*
X90164286Y-41050000D03*
D31*
X96464286Y-43350000D03*
D28*
X80139286Y-95725000D03*
X111164286Y-92475000D03*
X70914286Y-83000000D03*
X78989286Y-72500000D03*
D29*
X107225000Y-78325000D03*
D30*
X105925000Y-78325000D03*
D28*
X117639286Y-62025000D03*
X90364286Y-110925000D03*
X158114286Y-95950000D03*
X95289286Y-62000000D03*
D27*
X167464286Y-86050000D03*
D28*
X86414286Y-110850000D03*
X72714286Y-96675000D03*
X73039286Y-92900000D03*
D27*
X167539286Y-52825000D03*
D28*
X117414286Y-110800000D03*
X81839286Y-49325000D03*
X117814286Y-70725000D03*
D29*
X106375000Y-58025000D03*
D30*
X105075000Y-58025000D03*
D28*
X72964286Y-38225000D03*
X107539286Y-92400000D03*
X82514286Y-65800000D03*
M02*
