G04 #@! TF.GenerationSoftware,KiCad,Pcbnew,6.0.0-rc2*
G04 #@! TF.CreationDate,2022-06-24T19:42:49-07:00*
G04 #@! TF.ProjectId,RP2040_motor,52503230-3430-45f6-9d6f-746f722e6b69,REV1*
G04 #@! TF.SameCoordinates,Original*
G04 #@! TF.FileFunction,Legend,Bot*
G04 #@! TF.FilePolarity,Positive*
%FSLAX46Y46*%
G04 Gerber Fmt 4.6, Leading zero omitted, Abs format (unit mm)*
G04 Created by KiCad (PCBNEW 6.0.0-rc2) date 2022-06-24 19:42:49*
%MOMM*%
%LPD*%
G01*
G04 APERTURE LIST*
G04 Aperture macros list*
%AMRoundRect*
0 Rectangle with rounded corners*
0 $1 Rounding radius*
0 $2 $3 $4 $5 $6 $7 $8 $9 X,Y pos of 4 corners*
0 Add a 4 corners polygon primitive as box body*
4,1,4,$2,$3,$4,$5,$6,$7,$8,$9,$2,$3,0*
0 Add four circle primitives for the rounded corners*
1,1,$1+$1,$2,$3*
1,1,$1+$1,$4,$5*
1,1,$1+$1,$6,$7*
1,1,$1+$1,$8,$9*
0 Add four rect primitives between the rounded corners*
20,1,$1+$1,$2,$3,$4,$5,0*
20,1,$1+$1,$4,$5,$6,$7,0*
20,1,$1+$1,$6,$7,$8,$9,0*
20,1,$1+$1,$8,$9,$2,$3,0*%
G04 Aperture macros list end*
%ADD10C,0.150000*%
%ADD11C,0.200000*%
%ADD12C,0.300000*%
%ADD13C,4.002000*%
%ADD14C,4.102000*%
%ADD15O,2.292000X1.842000*%
%ADD16RoundRect,0.301000X0.845000X-0.620000X0.845000X0.620000X-0.845000X0.620000X-0.845000X-0.620000X0*%
%ADD17C,2.102000*%
%ADD18C,6.102000*%
%ADD19RoundRect,0.301000X-0.620000X-0.845000X0.620000X-0.845000X0.620000X0.845000X-0.620000X0.845000X0*%
%ADD20O,1.842000X2.292000*%
%ADD21C,0.752000*%
%ADD22O,1.102000X2.202000*%
%ADD23O,1.102000X1.702000*%
G04 APERTURE END LIST*
D10*
X75011904Y-74750000D02*
X75107142Y-74702380D01*
X75250000Y-74702380D01*
X75392857Y-74750000D01*
X75488095Y-74845238D01*
X75535714Y-74940476D01*
X75583333Y-75130952D01*
X75583333Y-75273809D01*
X75535714Y-75464285D01*
X75488095Y-75559523D01*
X75392857Y-75654761D01*
X75250000Y-75702380D01*
X75154761Y-75702380D01*
X75011904Y-75654761D01*
X74964285Y-75607142D01*
X74964285Y-75273809D01*
X75154761Y-75273809D01*
X74535714Y-75702380D02*
X74535714Y-74702380D01*
X73964285Y-75702380D01*
X73964285Y-74702380D01*
X73488095Y-75702380D02*
X73488095Y-74702380D01*
X73250000Y-74702380D01*
X73107142Y-74750000D01*
X73011904Y-74845238D01*
X72964285Y-74940476D01*
X72916666Y-75130952D01*
X72916666Y-75273809D01*
X72964285Y-75464285D01*
X73011904Y-75559523D01*
X73107142Y-75654761D01*
X73250000Y-75702380D01*
X73488095Y-75702380D01*
X78011904Y-109250000D02*
X78107142Y-109202380D01*
X78250000Y-109202380D01*
X78392857Y-109250000D01*
X78488095Y-109345238D01*
X78535714Y-109440476D01*
X78583333Y-109630952D01*
X78583333Y-109773809D01*
X78535714Y-109964285D01*
X78488095Y-110059523D01*
X78392857Y-110154761D01*
X78250000Y-110202380D01*
X78154761Y-110202380D01*
X78011904Y-110154761D01*
X77964285Y-110107142D01*
X77964285Y-109773809D01*
X78154761Y-109773809D01*
X77535714Y-110202380D02*
X77535714Y-109202380D01*
X76964285Y-110202380D01*
X76964285Y-109202380D01*
X76488095Y-110202380D02*
X76488095Y-109202380D01*
X76250000Y-109202380D01*
X76107142Y-109250000D01*
X76011904Y-109345238D01*
X75964285Y-109440476D01*
X75916666Y-109630952D01*
X75916666Y-109773809D01*
X75964285Y-109964285D01*
X76011904Y-110059523D01*
X76107142Y-110154761D01*
X76250000Y-110202380D01*
X76488095Y-110202380D01*
X81761904Y-74750000D02*
X81857142Y-74702380D01*
X82000000Y-74702380D01*
X82142857Y-74750000D01*
X82238095Y-74845238D01*
X82285714Y-74940476D01*
X82333333Y-75130952D01*
X82333333Y-75273809D01*
X82285714Y-75464285D01*
X82238095Y-75559523D01*
X82142857Y-75654761D01*
X82000000Y-75702380D01*
X81904761Y-75702380D01*
X81761904Y-75654761D01*
X81714285Y-75607142D01*
X81714285Y-75273809D01*
X81904761Y-75273809D01*
X81285714Y-75702380D02*
X81285714Y-74702380D01*
X80714285Y-75702380D01*
X80714285Y-74702380D01*
X80238095Y-75702380D02*
X80238095Y-74702380D01*
X80000000Y-74702380D01*
X79857142Y-74750000D01*
X79761904Y-74845238D01*
X79714285Y-74940476D01*
X79666666Y-75130952D01*
X79666666Y-75273809D01*
X79714285Y-75464285D01*
X79761904Y-75559523D01*
X79857142Y-75654761D01*
X80000000Y-75702380D01*
X80238095Y-75702380D01*
D11*
X111514285Y-72833333D02*
X111514285Y-71433333D01*
X110942857Y-71433333D01*
X110800000Y-71500000D01*
X110728571Y-71566666D01*
X110657142Y-71700000D01*
X110657142Y-71900000D01*
X110728571Y-72033333D01*
X110800000Y-72100000D01*
X110942857Y-72166666D01*
X111514285Y-72166666D01*
X109800000Y-72833333D02*
X109942857Y-72766666D01*
X110014285Y-72633333D01*
X110014285Y-71433333D01*
X108657142Y-72766666D02*
X108800000Y-72833333D01*
X109085714Y-72833333D01*
X109228571Y-72766666D01*
X109300000Y-72633333D01*
X109300000Y-72100000D01*
X109228571Y-71966666D01*
X109085714Y-71900000D01*
X108800000Y-71900000D01*
X108657142Y-71966666D01*
X108585714Y-72100000D01*
X108585714Y-72233333D01*
X109300000Y-72366666D01*
X107300000Y-72833333D02*
X107300000Y-72100000D01*
X107371428Y-71966666D01*
X107514285Y-71900000D01*
X107800000Y-71900000D01*
X107942857Y-71966666D01*
X107300000Y-72766666D02*
X107442857Y-72833333D01*
X107800000Y-72833333D01*
X107942857Y-72766666D01*
X108014285Y-72633333D01*
X108014285Y-72500000D01*
X107942857Y-72366666D01*
X107800000Y-72300000D01*
X107442857Y-72300000D01*
X107300000Y-72233333D01*
X106657142Y-72766666D02*
X106514285Y-72833333D01*
X106228571Y-72833333D01*
X106085714Y-72766666D01*
X106014285Y-72633333D01*
X106014285Y-72566666D01*
X106085714Y-72433333D01*
X106228571Y-72366666D01*
X106442857Y-72366666D01*
X106585714Y-72300000D01*
X106657142Y-72166666D01*
X106657142Y-72100000D01*
X106585714Y-71966666D01*
X106442857Y-71900000D01*
X106228571Y-71900000D01*
X106085714Y-71966666D01*
X104800000Y-72766666D02*
X104942857Y-72833333D01*
X105228571Y-72833333D01*
X105371428Y-72766666D01*
X105442857Y-72633333D01*
X105442857Y-72100000D01*
X105371428Y-71966666D01*
X105228571Y-71900000D01*
X104942857Y-71900000D01*
X104800000Y-71966666D01*
X104728571Y-72100000D01*
X104728571Y-72233333D01*
X105442857Y-72366666D01*
X102300000Y-72766666D02*
X102442857Y-72833333D01*
X102728571Y-72833333D01*
X102871428Y-72766666D01*
X102942857Y-72700000D01*
X103014285Y-72566666D01*
X103014285Y-72166666D01*
X102942857Y-72033333D01*
X102871428Y-71966666D01*
X102728571Y-71900000D01*
X102442857Y-71900000D01*
X102300000Y-71966666D01*
X101442857Y-72833333D02*
X101585714Y-72766666D01*
X101657142Y-72633333D01*
X101657142Y-71433333D01*
X100657142Y-72833333D02*
X100800000Y-72766666D01*
X100871428Y-72700000D01*
X100942857Y-72566666D01*
X100942857Y-72166666D01*
X100871428Y-72033333D01*
X100800000Y-71966666D01*
X100657142Y-71900000D01*
X100442857Y-71900000D01*
X100300000Y-71966666D01*
X100228571Y-72033333D01*
X100157142Y-72166666D01*
X100157142Y-72566666D01*
X100228571Y-72700000D01*
X100300000Y-72766666D01*
X100442857Y-72833333D01*
X100657142Y-72833333D01*
X99514285Y-71900000D02*
X99514285Y-72833333D01*
X99514285Y-72033333D02*
X99442857Y-71966666D01*
X99300000Y-71900000D01*
X99085714Y-71900000D01*
X98942857Y-71966666D01*
X98871428Y-72100000D01*
X98871428Y-72833333D01*
X97585714Y-72766666D02*
X97728571Y-72833333D01*
X98014285Y-72833333D01*
X98157142Y-72766666D01*
X98228571Y-72633333D01*
X98228571Y-72100000D01*
X98157142Y-71966666D01*
X98014285Y-71900000D01*
X97728571Y-71900000D01*
X97585714Y-71966666D01*
X97514285Y-72100000D01*
X97514285Y-72233333D01*
X98228571Y-72366666D01*
X95942857Y-71900000D02*
X95371428Y-71900000D01*
X95728571Y-71433333D02*
X95728571Y-72633333D01*
X95657142Y-72766666D01*
X95514285Y-72833333D01*
X95371428Y-72833333D01*
X94871428Y-72833333D02*
X94871428Y-71433333D01*
X94228571Y-72833333D02*
X94228571Y-72100000D01*
X94300000Y-71966666D01*
X94442857Y-71900000D01*
X94657142Y-71900000D01*
X94800000Y-71966666D01*
X94871428Y-72033333D01*
X93514285Y-72833333D02*
X93514285Y-71900000D01*
X93514285Y-71433333D02*
X93585714Y-71500000D01*
X93514285Y-71566666D01*
X93442857Y-71500000D01*
X93514285Y-71433333D01*
X93514285Y-71566666D01*
X92871428Y-72766666D02*
X92728571Y-72833333D01*
X92442857Y-72833333D01*
X92300000Y-72766666D01*
X92228571Y-72633333D01*
X92228571Y-72566666D01*
X92300000Y-72433333D01*
X92442857Y-72366666D01*
X92657142Y-72366666D01*
X92800000Y-72300000D01*
X92871428Y-72166666D01*
X92871428Y-72100000D01*
X92800000Y-71966666D01*
X92657142Y-71900000D01*
X92442857Y-71900000D01*
X92300000Y-71966666D01*
X90442857Y-72833333D02*
X90442857Y-71433333D01*
X90442857Y-71966666D02*
X90300000Y-71900000D01*
X90014285Y-71900000D01*
X89871428Y-71966666D01*
X89800000Y-72033333D01*
X89728571Y-72166666D01*
X89728571Y-72566666D01*
X89800000Y-72700000D01*
X89871428Y-72766666D01*
X90014285Y-72833333D01*
X90300000Y-72833333D01*
X90442857Y-72766666D01*
X88871428Y-72833333D02*
X89014285Y-72766666D01*
X89085714Y-72700000D01*
X89157142Y-72566666D01*
X89157142Y-72166666D01*
X89085714Y-72033333D01*
X89014285Y-71966666D01*
X88871428Y-71900000D01*
X88657142Y-71900000D01*
X88514285Y-71966666D01*
X88442857Y-72033333D01*
X88371428Y-72166666D01*
X88371428Y-72566666D01*
X88442857Y-72700000D01*
X88514285Y-72766666D01*
X88657142Y-72833333D01*
X88871428Y-72833333D01*
X87085714Y-72833333D02*
X87085714Y-72100000D01*
X87157142Y-71966666D01*
X87300000Y-71900000D01*
X87585714Y-71900000D01*
X87728571Y-71966666D01*
X87085714Y-72766666D02*
X87228571Y-72833333D01*
X87585714Y-72833333D01*
X87728571Y-72766666D01*
X87800000Y-72633333D01*
X87800000Y-72500000D01*
X87728571Y-72366666D01*
X87585714Y-72300000D01*
X87228571Y-72300000D01*
X87085714Y-72233333D01*
X86371428Y-72833333D02*
X86371428Y-71900000D01*
X86371428Y-72166666D02*
X86300000Y-72033333D01*
X86228571Y-71966666D01*
X86085714Y-71900000D01*
X85942857Y-71900000D01*
X84800000Y-72833333D02*
X84800000Y-71433333D01*
X84800000Y-72766666D02*
X84942857Y-72833333D01*
X85228571Y-72833333D01*
X85371428Y-72766666D01*
X85442857Y-72700000D01*
X85514285Y-72566666D01*
X85514285Y-72166666D01*
X85442857Y-72033333D01*
X85371428Y-71966666D01*
X85228571Y-71900000D01*
X84942857Y-71900000D01*
X84800000Y-71966666D01*
X84085714Y-72700000D02*
X84014285Y-72766666D01*
X84085714Y-72833333D01*
X84157142Y-72766666D01*
X84085714Y-72700000D01*
X84085714Y-72833333D01*
X84085714Y-72300000D02*
X84157142Y-71500000D01*
X84085714Y-71433333D01*
X84014285Y-71500000D01*
X84085714Y-72300000D01*
X84085714Y-71433333D01*
X147060857Y-69685714D02*
X147060857Y-70371428D01*
X148260857Y-70028571D02*
X147060857Y-70028571D01*
X148260857Y-70771428D02*
X147060857Y-70771428D01*
X148260857Y-71285714D02*
X147632285Y-71285714D01*
X147518000Y-71228571D01*
X147460857Y-71114285D01*
X147460857Y-70942857D01*
X147518000Y-70828571D01*
X147575142Y-70771428D01*
X148203714Y-72314285D02*
X148260857Y-72200000D01*
X148260857Y-71971428D01*
X148203714Y-71857142D01*
X148089428Y-71800000D01*
X147632285Y-71800000D01*
X147518000Y-71857142D01*
X147460857Y-71971428D01*
X147460857Y-72200000D01*
X147518000Y-72314285D01*
X147632285Y-72371428D01*
X147746571Y-72371428D01*
X147860857Y-71800000D01*
X148203714Y-73742857D02*
X148260857Y-73857142D01*
X148260857Y-74085714D01*
X148203714Y-74200000D01*
X148089428Y-74257142D01*
X148032285Y-74257142D01*
X147918000Y-74200000D01*
X147860857Y-74085714D01*
X147860857Y-73914285D01*
X147803714Y-73800000D01*
X147689428Y-73742857D01*
X147632285Y-73742857D01*
X147518000Y-73800000D01*
X147460857Y-73914285D01*
X147460857Y-74085714D01*
X147518000Y-74200000D01*
X148260857Y-74771428D02*
X147460857Y-74771428D01*
X147575142Y-74771428D02*
X147518000Y-74828571D01*
X147460857Y-74942857D01*
X147460857Y-75114285D01*
X147518000Y-75228571D01*
X147632285Y-75285714D01*
X148260857Y-75285714D01*
X147632285Y-75285714D02*
X147518000Y-75342857D01*
X147460857Y-75457142D01*
X147460857Y-75628571D01*
X147518000Y-75742857D01*
X147632285Y-75800000D01*
X148260857Y-75800000D01*
X148260857Y-76885714D02*
X147632285Y-76885714D01*
X147518000Y-76828571D01*
X147460857Y-76714285D01*
X147460857Y-76485714D01*
X147518000Y-76371428D01*
X148203714Y-76885714D02*
X148260857Y-76771428D01*
X148260857Y-76485714D01*
X148203714Y-76371428D01*
X148089428Y-76314285D01*
X147975142Y-76314285D01*
X147860857Y-76371428D01*
X147803714Y-76485714D01*
X147803714Y-76771428D01*
X147746571Y-76885714D01*
X148260857Y-77628571D02*
X148203714Y-77514285D01*
X148089428Y-77457142D01*
X147060857Y-77457142D01*
X148260857Y-78257142D02*
X148203714Y-78142857D01*
X148089428Y-78085714D01*
X147060857Y-78085714D01*
X148203714Y-79171428D02*
X148260857Y-79057142D01*
X148260857Y-78828571D01*
X148203714Y-78714285D01*
X148089428Y-78657142D01*
X147632285Y-78657142D01*
X147518000Y-78714285D01*
X147460857Y-78828571D01*
X147460857Y-79057142D01*
X147518000Y-79171428D01*
X147632285Y-79228571D01*
X147746571Y-79228571D01*
X147860857Y-78657142D01*
X148203714Y-79685714D02*
X148260857Y-79800000D01*
X148260857Y-80028571D01*
X148203714Y-80142857D01*
X148089428Y-80200000D01*
X148032285Y-80200000D01*
X147918000Y-80142857D01*
X147860857Y-80028571D01*
X147860857Y-79857142D01*
X147803714Y-79742857D01*
X147689428Y-79685714D01*
X147632285Y-79685714D01*
X147518000Y-79742857D01*
X147460857Y-79857142D01*
X147460857Y-80028571D01*
X147518000Y-80142857D01*
X147460857Y-80542857D02*
X147460857Y-81000000D01*
X147060857Y-80714285D02*
X148089428Y-80714285D01*
X148203714Y-80771428D01*
X148260857Y-80885714D01*
X148260857Y-81000000D01*
X148203714Y-82828571D02*
X148260857Y-82714285D01*
X148260857Y-82485714D01*
X148203714Y-82371428D01*
X148146571Y-82314285D01*
X148032285Y-82257142D01*
X147689428Y-82257142D01*
X147575142Y-82314285D01*
X147518000Y-82371428D01*
X147460857Y-82485714D01*
X147460857Y-82714285D01*
X147518000Y-82828571D01*
X148260857Y-83342857D02*
X147060857Y-83342857D01*
X148260857Y-83857142D02*
X147632285Y-83857142D01*
X147518000Y-83800000D01*
X147460857Y-83685714D01*
X147460857Y-83514285D01*
X147518000Y-83400000D01*
X147575142Y-83342857D01*
X148260857Y-84942857D02*
X147632285Y-84942857D01*
X147518000Y-84885714D01*
X147460857Y-84771428D01*
X147460857Y-84542857D01*
X147518000Y-84428571D01*
X148203714Y-84942857D02*
X148260857Y-84828571D01*
X148260857Y-84542857D01*
X148203714Y-84428571D01*
X148089428Y-84371428D01*
X147975142Y-84371428D01*
X147860857Y-84428571D01*
X147803714Y-84542857D01*
X147803714Y-84828571D01*
X147746571Y-84942857D01*
X147460857Y-85514285D02*
X148260857Y-85514285D01*
X147575142Y-85514285D02*
X147518000Y-85571428D01*
X147460857Y-85685714D01*
X147460857Y-85857142D01*
X147518000Y-85971428D01*
X147632285Y-86028571D01*
X148260857Y-86028571D01*
X147460857Y-87114285D02*
X148432285Y-87114285D01*
X148546571Y-87057142D01*
X148603714Y-87000000D01*
X148660857Y-86885714D01*
X148660857Y-86714285D01*
X148603714Y-86600000D01*
X148203714Y-87114285D02*
X148260857Y-87000000D01*
X148260857Y-86771428D01*
X148203714Y-86657142D01*
X148146571Y-86600000D01*
X148032285Y-86542857D01*
X147689428Y-86542857D01*
X147575142Y-86600000D01*
X147518000Y-86657142D01*
X147460857Y-86771428D01*
X147460857Y-87000000D01*
X147518000Y-87114285D01*
X148203714Y-88142857D02*
X148260857Y-88028571D01*
X148260857Y-87800000D01*
X148203714Y-87685714D01*
X148089428Y-87628571D01*
X147632285Y-87628571D01*
X147518000Y-87685714D01*
X147460857Y-87800000D01*
X147460857Y-88028571D01*
X147518000Y-88142857D01*
X147632285Y-88200000D01*
X147746571Y-88200000D01*
X147860857Y-87628571D01*
X150135714Y-70028571D02*
X150192857Y-69914285D01*
X150192857Y-69685714D01*
X150135714Y-69571428D01*
X150078571Y-69514285D01*
X149964285Y-69457142D01*
X149621428Y-69457142D01*
X149507142Y-69514285D01*
X149450000Y-69571428D01*
X149392857Y-69685714D01*
X149392857Y-69914285D01*
X149450000Y-70028571D01*
X150192857Y-71057142D02*
X149564285Y-71057142D01*
X149450000Y-71000000D01*
X149392857Y-70885714D01*
X149392857Y-70657142D01*
X149450000Y-70542857D01*
X150135714Y-71057142D02*
X150192857Y-70942857D01*
X150192857Y-70657142D01*
X150135714Y-70542857D01*
X150021428Y-70485714D01*
X149907142Y-70485714D01*
X149792857Y-70542857D01*
X149735714Y-70657142D01*
X149735714Y-70942857D01*
X149678571Y-71057142D01*
X149392857Y-71628571D02*
X150192857Y-71628571D01*
X149507142Y-71628571D02*
X149450000Y-71685714D01*
X149392857Y-71800000D01*
X149392857Y-71971428D01*
X149450000Y-72085714D01*
X149564285Y-72142857D01*
X150192857Y-72142857D01*
X150192857Y-73628571D02*
X148992857Y-73628571D01*
X149450000Y-73628571D02*
X149392857Y-73742857D01*
X149392857Y-73971428D01*
X149450000Y-74085714D01*
X149507142Y-74142857D01*
X149621428Y-74200000D01*
X149964285Y-74200000D01*
X150078571Y-74142857D01*
X150135714Y-74085714D01*
X150192857Y-73971428D01*
X150192857Y-73742857D01*
X150135714Y-73628571D01*
X150135714Y-75171428D02*
X150192857Y-75057142D01*
X150192857Y-74828571D01*
X150135714Y-74714285D01*
X150021428Y-74657142D01*
X149564285Y-74657142D01*
X149450000Y-74714285D01*
X149392857Y-74828571D01*
X149392857Y-75057142D01*
X149450000Y-75171428D01*
X149564285Y-75228571D01*
X149678571Y-75228571D01*
X149792857Y-74657142D01*
X149392857Y-76485714D02*
X149392857Y-76942857D01*
X148992857Y-76657142D02*
X150021428Y-76657142D01*
X150135714Y-76714285D01*
X150192857Y-76828571D01*
X150192857Y-76942857D01*
X150192857Y-77342857D02*
X148992857Y-77342857D01*
X150192857Y-77857142D02*
X149564285Y-77857142D01*
X149450000Y-77800000D01*
X149392857Y-77685714D01*
X149392857Y-77514285D01*
X149450000Y-77400000D01*
X149507142Y-77342857D01*
X150135714Y-78885714D02*
X150192857Y-78771428D01*
X150192857Y-78542857D01*
X150135714Y-78428571D01*
X150021428Y-78371428D01*
X149564285Y-78371428D01*
X149450000Y-78428571D01*
X149392857Y-78542857D01*
X149392857Y-78771428D01*
X149450000Y-78885714D01*
X149564285Y-78942857D01*
X149678571Y-78942857D01*
X149792857Y-78371428D01*
X150192857Y-80371428D02*
X148992857Y-80371428D01*
X149450000Y-80371428D02*
X149392857Y-80485714D01*
X149392857Y-80714285D01*
X149450000Y-80828571D01*
X149507142Y-80885714D01*
X149621428Y-80942857D01*
X149964285Y-80942857D01*
X150078571Y-80885714D01*
X150135714Y-80828571D01*
X150192857Y-80714285D01*
X150192857Y-80485714D01*
X150135714Y-80371428D01*
X150135714Y-81914285D02*
X150192857Y-81800000D01*
X150192857Y-81571428D01*
X150135714Y-81457142D01*
X150021428Y-81400000D01*
X149564285Y-81400000D01*
X149450000Y-81457142D01*
X149392857Y-81571428D01*
X149392857Y-81800000D01*
X149450000Y-81914285D01*
X149564285Y-81971428D01*
X149678571Y-81971428D01*
X149792857Y-81400000D01*
X149392857Y-83000000D02*
X150364285Y-83000000D01*
X150478571Y-82942857D01*
X150535714Y-82885714D01*
X150592857Y-82771428D01*
X150592857Y-82600000D01*
X150535714Y-82485714D01*
X150135714Y-83000000D02*
X150192857Y-82885714D01*
X150192857Y-82657142D01*
X150135714Y-82542857D01*
X150078571Y-82485714D01*
X149964285Y-82428571D01*
X149621428Y-82428571D01*
X149507142Y-82485714D01*
X149450000Y-82542857D01*
X149392857Y-82657142D01*
X149392857Y-82885714D01*
X149450000Y-83000000D01*
X150192857Y-83571428D02*
X149392857Y-83571428D01*
X148992857Y-83571428D02*
X149050000Y-83514285D01*
X149107142Y-83571428D01*
X149050000Y-83628571D01*
X148992857Y-83571428D01*
X149107142Y-83571428D01*
X149392857Y-84142857D02*
X150192857Y-84142857D01*
X149507142Y-84142857D02*
X149450000Y-84200000D01*
X149392857Y-84314285D01*
X149392857Y-84485714D01*
X149450000Y-84600000D01*
X149564285Y-84657142D01*
X150192857Y-84657142D01*
X149392857Y-85228571D02*
X150192857Y-85228571D01*
X149507142Y-85228571D02*
X149450000Y-85285714D01*
X149392857Y-85400000D01*
X149392857Y-85571428D01*
X149450000Y-85685714D01*
X149564285Y-85742857D01*
X150192857Y-85742857D01*
X150192857Y-86314285D02*
X149392857Y-86314285D01*
X148992857Y-86314285D02*
X149050000Y-86257142D01*
X149107142Y-86314285D01*
X149050000Y-86371428D01*
X148992857Y-86314285D01*
X149107142Y-86314285D01*
X149392857Y-86885714D02*
X150192857Y-86885714D01*
X149507142Y-86885714D02*
X149450000Y-86942857D01*
X149392857Y-87057142D01*
X149392857Y-87228571D01*
X149450000Y-87342857D01*
X149564285Y-87400000D01*
X150192857Y-87400000D01*
X149392857Y-88485714D02*
X150364285Y-88485714D01*
X150478571Y-88428571D01*
X150535714Y-88371428D01*
X150592857Y-88257142D01*
X150592857Y-88085714D01*
X150535714Y-87971428D01*
X150135714Y-88485714D02*
X150192857Y-88371428D01*
X150192857Y-88142857D01*
X150135714Y-88028571D01*
X150078571Y-87971428D01*
X149964285Y-87914285D01*
X149621428Y-87914285D01*
X149507142Y-87971428D01*
X149450000Y-88028571D01*
X149392857Y-88142857D01*
X149392857Y-88371428D01*
X149450000Y-88485714D01*
X152124857Y-71400000D02*
X152067714Y-71285714D01*
X152010571Y-71228571D01*
X151896285Y-71171428D01*
X151553428Y-71171428D01*
X151439142Y-71228571D01*
X151382000Y-71285714D01*
X151324857Y-71400000D01*
X151324857Y-71571428D01*
X151382000Y-71685714D01*
X151439142Y-71742857D01*
X151553428Y-71800000D01*
X151896285Y-71800000D01*
X152010571Y-71742857D01*
X152067714Y-71685714D01*
X152124857Y-71571428D01*
X152124857Y-71400000D01*
X151324857Y-72142857D02*
X151324857Y-72600000D01*
X152124857Y-72314285D02*
X151096285Y-72314285D01*
X150982000Y-72371428D01*
X150924857Y-72485714D01*
X150924857Y-72600000D01*
X152067714Y-73857142D02*
X152124857Y-73971428D01*
X152124857Y-74200000D01*
X152067714Y-74314285D01*
X151953428Y-74371428D01*
X151896285Y-74371428D01*
X151782000Y-74314285D01*
X151724857Y-74200000D01*
X151724857Y-74028571D01*
X151667714Y-73914285D01*
X151553428Y-73857142D01*
X151496285Y-73857142D01*
X151382000Y-73914285D01*
X151324857Y-74028571D01*
X151324857Y-74200000D01*
X151382000Y-74314285D01*
X152124857Y-75057142D02*
X152067714Y-74942857D01*
X152010571Y-74885714D01*
X151896285Y-74828571D01*
X151553428Y-74828571D01*
X151439142Y-74885714D01*
X151382000Y-74942857D01*
X151324857Y-75057142D01*
X151324857Y-75228571D01*
X151382000Y-75342857D01*
X151439142Y-75400000D01*
X151553428Y-75457142D01*
X151896285Y-75457142D01*
X152010571Y-75400000D01*
X152067714Y-75342857D01*
X152124857Y-75228571D01*
X152124857Y-75057142D01*
X152124857Y-75971428D02*
X151324857Y-75971428D01*
X151439142Y-75971428D02*
X151382000Y-76028571D01*
X151324857Y-76142857D01*
X151324857Y-76314285D01*
X151382000Y-76428571D01*
X151496285Y-76485714D01*
X152124857Y-76485714D01*
X151496285Y-76485714D02*
X151382000Y-76542857D01*
X151324857Y-76657142D01*
X151324857Y-76828571D01*
X151382000Y-76942857D01*
X151496285Y-77000000D01*
X152124857Y-77000000D01*
X152067714Y-78028571D02*
X152124857Y-77914285D01*
X152124857Y-77685714D01*
X152067714Y-77571428D01*
X151953428Y-77514285D01*
X151496285Y-77514285D01*
X151382000Y-77571428D01*
X151324857Y-77685714D01*
X151324857Y-77914285D01*
X151382000Y-78028571D01*
X151496285Y-78085714D01*
X151610571Y-78085714D01*
X151724857Y-77514285D01*
X151324857Y-78428571D02*
X151324857Y-78885714D01*
X150924857Y-78600000D02*
X151953428Y-78600000D01*
X152067714Y-78657142D01*
X152124857Y-78771428D01*
X152124857Y-78885714D01*
X152124857Y-79285714D02*
X150924857Y-79285714D01*
X152124857Y-79800000D02*
X151496285Y-79800000D01*
X151382000Y-79742857D01*
X151324857Y-79628571D01*
X151324857Y-79457142D01*
X151382000Y-79342857D01*
X151439142Y-79285714D01*
X152124857Y-80371428D02*
X151324857Y-80371428D01*
X150924857Y-80371428D02*
X150982000Y-80314285D01*
X151039142Y-80371428D01*
X150982000Y-80428571D01*
X150924857Y-80371428D01*
X151039142Y-80371428D01*
X151324857Y-80942857D02*
X152124857Y-80942857D01*
X151439142Y-80942857D02*
X151382000Y-81000000D01*
X151324857Y-81114285D01*
X151324857Y-81285714D01*
X151382000Y-81400000D01*
X151496285Y-81457142D01*
X152124857Y-81457142D01*
X151324857Y-82542857D02*
X152296285Y-82542857D01*
X152410571Y-82485714D01*
X152467714Y-82428571D01*
X152524857Y-82314285D01*
X152524857Y-82142857D01*
X152467714Y-82028571D01*
X152067714Y-82542857D02*
X152124857Y-82428571D01*
X152124857Y-82200000D01*
X152067714Y-82085714D01*
X152010571Y-82028571D01*
X151896285Y-81971428D01*
X151553428Y-81971428D01*
X151439142Y-82028571D01*
X151382000Y-82085714D01*
X151324857Y-82200000D01*
X151324857Y-82428571D01*
X151382000Y-82542857D01*
X152124857Y-84028571D02*
X150924857Y-84028571D01*
X151382000Y-84028571D02*
X151324857Y-84142857D01*
X151324857Y-84371428D01*
X151382000Y-84485714D01*
X151439142Y-84542857D01*
X151553428Y-84600000D01*
X151896285Y-84600000D01*
X152010571Y-84542857D01*
X152067714Y-84485714D01*
X152124857Y-84371428D01*
X152124857Y-84142857D01*
X152067714Y-84028571D01*
X152124857Y-85114285D02*
X151324857Y-85114285D01*
X150924857Y-85114285D02*
X150982000Y-85057142D01*
X151039142Y-85114285D01*
X150982000Y-85171428D01*
X150924857Y-85114285D01*
X151039142Y-85114285D01*
X151324857Y-86200000D02*
X152296285Y-86200000D01*
X152410571Y-86142857D01*
X152467714Y-86085714D01*
X152524857Y-85971428D01*
X152524857Y-85800000D01*
X152467714Y-85685714D01*
X152067714Y-86200000D02*
X152124857Y-86085714D01*
X152124857Y-85857142D01*
X152067714Y-85742857D01*
X152010571Y-85685714D01*
X151896285Y-85628571D01*
X151553428Y-85628571D01*
X151439142Y-85685714D01*
X151382000Y-85742857D01*
X151324857Y-85857142D01*
X151324857Y-86085714D01*
X151382000Y-86200000D01*
X152010571Y-86771428D02*
X152067714Y-86828571D01*
X152124857Y-86771428D01*
X152067714Y-86714285D01*
X152010571Y-86771428D01*
X152124857Y-86771428D01*
X113485714Y-76606333D02*
X113128571Y-78006333D01*
X112842857Y-77006333D01*
X112557142Y-78006333D01*
X112200000Y-76606333D01*
X111057142Y-77939666D02*
X111200000Y-78006333D01*
X111485714Y-78006333D01*
X111628571Y-77939666D01*
X111700000Y-77806333D01*
X111700000Y-77273000D01*
X111628571Y-77139666D01*
X111485714Y-77073000D01*
X111200000Y-77073000D01*
X111057142Y-77139666D01*
X110985714Y-77273000D01*
X110985714Y-77406333D01*
X111700000Y-77539666D01*
X109200000Y-77073000D02*
X109200000Y-78006333D01*
X109200000Y-77206333D02*
X109128571Y-77139666D01*
X108985714Y-77073000D01*
X108771428Y-77073000D01*
X108628571Y-77139666D01*
X108557142Y-77273000D01*
X108557142Y-78006333D01*
X107271428Y-77939666D02*
X107414285Y-78006333D01*
X107700000Y-78006333D01*
X107842857Y-77939666D01*
X107914285Y-77806333D01*
X107914285Y-77273000D01*
X107842857Y-77139666D01*
X107700000Y-77073000D01*
X107414285Y-77073000D01*
X107271428Y-77139666D01*
X107200000Y-77273000D01*
X107200000Y-77406333D01*
X107914285Y-77539666D01*
X105985714Y-77939666D02*
X106128571Y-78006333D01*
X106414285Y-78006333D01*
X106557142Y-77939666D01*
X106628571Y-77806333D01*
X106628571Y-77273000D01*
X106557142Y-77139666D01*
X106414285Y-77073000D01*
X106128571Y-77073000D01*
X105985714Y-77139666D01*
X105914285Y-77273000D01*
X105914285Y-77406333D01*
X106628571Y-77539666D01*
X104628571Y-78006333D02*
X104628571Y-76606333D01*
X104628571Y-77939666D02*
X104771428Y-78006333D01*
X105057142Y-78006333D01*
X105200000Y-77939666D01*
X105271428Y-77873000D01*
X105342857Y-77739666D01*
X105342857Y-77339666D01*
X105271428Y-77206333D01*
X105200000Y-77139666D01*
X105057142Y-77073000D01*
X104771428Y-77073000D01*
X104628571Y-77139666D01*
X102914285Y-77073000D02*
X102557142Y-78006333D01*
X102200000Y-77073000D02*
X102557142Y-78006333D01*
X102700000Y-78339666D01*
X102771428Y-78406333D01*
X102914285Y-78473000D01*
X101414285Y-78006333D02*
X101557142Y-77939666D01*
X101628571Y-77873000D01*
X101700000Y-77739666D01*
X101700000Y-77339666D01*
X101628571Y-77206333D01*
X101557142Y-77139666D01*
X101414285Y-77073000D01*
X101200000Y-77073000D01*
X101057142Y-77139666D01*
X100985714Y-77206333D01*
X100914285Y-77339666D01*
X100914285Y-77739666D01*
X100985714Y-77873000D01*
X101057142Y-77939666D01*
X101200000Y-78006333D01*
X101414285Y-78006333D01*
X99628571Y-77073000D02*
X99628571Y-78006333D01*
X100271428Y-77073000D02*
X100271428Y-77806333D01*
X100200000Y-77939666D01*
X100057142Y-78006333D01*
X99842857Y-78006333D01*
X99700000Y-77939666D01*
X99628571Y-77873000D01*
X98914285Y-78006333D02*
X98914285Y-77073000D01*
X98914285Y-77339666D02*
X98842857Y-77206333D01*
X98771428Y-77139666D01*
X98628571Y-77073000D01*
X98485714Y-77073000D01*
X96842857Y-78006333D02*
X96842857Y-76606333D01*
X96200000Y-78006333D02*
X96200000Y-77273000D01*
X96271428Y-77139666D01*
X96414285Y-77073000D01*
X96628571Y-77073000D01*
X96771428Y-77139666D01*
X96842857Y-77206333D01*
X94914285Y-77939666D02*
X95057142Y-78006333D01*
X95342857Y-78006333D01*
X95485714Y-77939666D01*
X95557142Y-77806333D01*
X95557142Y-77273000D01*
X95485714Y-77139666D01*
X95342857Y-77073000D01*
X95057142Y-77073000D01*
X94914285Y-77139666D01*
X94842857Y-77273000D01*
X94842857Y-77406333D01*
X95557142Y-77539666D01*
X93985714Y-78006333D02*
X94128571Y-77939666D01*
X94200000Y-77806333D01*
X94200000Y-76606333D01*
X93414285Y-77073000D02*
X93414285Y-78473000D01*
X93414285Y-77139666D02*
X93271428Y-77073000D01*
X92985714Y-77073000D01*
X92842857Y-77139666D01*
X92771428Y-77206333D01*
X92700000Y-77339666D01*
X92700000Y-77739666D01*
X92771428Y-77873000D01*
X92842857Y-77939666D01*
X92985714Y-78006333D01*
X93271428Y-78006333D01*
X93414285Y-77939666D01*
X92057142Y-77873000D02*
X91985714Y-77939666D01*
X92057142Y-78006333D01*
X92128571Y-77939666D01*
X92057142Y-77873000D01*
X92057142Y-78006333D01*
X122164285Y-79527000D02*
X122664285Y-79527000D01*
X122664285Y-80260333D02*
X122664285Y-78860333D01*
X121950000Y-78860333D01*
X121164285Y-80260333D02*
X121307142Y-80193666D01*
X121378571Y-80127000D01*
X121450000Y-79993666D01*
X121450000Y-79593666D01*
X121378571Y-79460333D01*
X121307142Y-79393666D01*
X121164285Y-79327000D01*
X120950000Y-79327000D01*
X120807142Y-79393666D01*
X120735714Y-79460333D01*
X120664285Y-79593666D01*
X120664285Y-79993666D01*
X120735714Y-80127000D01*
X120807142Y-80193666D01*
X120950000Y-80260333D01*
X121164285Y-80260333D01*
X120021428Y-80260333D02*
X120021428Y-79327000D01*
X120021428Y-79593666D02*
X119950000Y-79460333D01*
X119878571Y-79393666D01*
X119735714Y-79327000D01*
X119592857Y-79327000D01*
X119092857Y-80260333D02*
X119092857Y-78860333D01*
X118950000Y-79727000D02*
X118521428Y-80260333D01*
X118521428Y-79327000D02*
X119092857Y-79860333D01*
X116950000Y-79327000D02*
X116378571Y-79327000D01*
X116735714Y-78860333D02*
X116735714Y-80060333D01*
X116664285Y-80193666D01*
X116521428Y-80260333D01*
X116378571Y-80260333D01*
X115878571Y-80260333D02*
X115878571Y-78860333D01*
X115235714Y-80260333D02*
X115235714Y-79527000D01*
X115307142Y-79393666D01*
X115450000Y-79327000D01*
X115664285Y-79327000D01*
X115807142Y-79393666D01*
X115878571Y-79460333D01*
X113950000Y-80193666D02*
X114092857Y-80260333D01*
X114378571Y-80260333D01*
X114521428Y-80193666D01*
X114592857Y-80060333D01*
X114592857Y-79527000D01*
X114521428Y-79393666D01*
X114378571Y-79327000D01*
X114092857Y-79327000D01*
X113950000Y-79393666D01*
X113878571Y-79527000D01*
X113878571Y-79660333D01*
X114592857Y-79793666D01*
X111450000Y-80260333D02*
X111450000Y-78860333D01*
X111450000Y-80193666D02*
X111592857Y-80260333D01*
X111878571Y-80260333D01*
X112021428Y-80193666D01*
X112092857Y-80127000D01*
X112164285Y-79993666D01*
X112164285Y-79593666D01*
X112092857Y-79460333D01*
X112021428Y-79393666D01*
X111878571Y-79327000D01*
X111592857Y-79327000D01*
X111450000Y-79393666D01*
X110164285Y-80193666D02*
X110307142Y-80260333D01*
X110592857Y-80260333D01*
X110735714Y-80193666D01*
X110807142Y-80060333D01*
X110807142Y-79527000D01*
X110735714Y-79393666D01*
X110592857Y-79327000D01*
X110307142Y-79327000D01*
X110164285Y-79393666D01*
X110092857Y-79527000D01*
X110092857Y-79660333D01*
X110807142Y-79793666D01*
X109521428Y-80193666D02*
X109378571Y-80260333D01*
X109092857Y-80260333D01*
X108950000Y-80193666D01*
X108878571Y-80060333D01*
X108878571Y-79993666D01*
X108950000Y-79860333D01*
X109092857Y-79793666D01*
X109307142Y-79793666D01*
X109450000Y-79727000D01*
X109521428Y-79593666D01*
X109521428Y-79527000D01*
X109450000Y-79393666D01*
X109307142Y-79327000D01*
X109092857Y-79327000D01*
X108950000Y-79393666D01*
X108235714Y-80260333D02*
X108235714Y-79327000D01*
X108235714Y-78860333D02*
X108307142Y-78927000D01*
X108235714Y-78993666D01*
X108164285Y-78927000D01*
X108235714Y-78860333D01*
X108235714Y-78993666D01*
X106878571Y-79327000D02*
X106878571Y-80460333D01*
X106950000Y-80593666D01*
X107021428Y-80660333D01*
X107164285Y-80727000D01*
X107378571Y-80727000D01*
X107521428Y-80660333D01*
X106878571Y-80193666D02*
X107021428Y-80260333D01*
X107307142Y-80260333D01*
X107450000Y-80193666D01*
X107521428Y-80127000D01*
X107592857Y-79993666D01*
X107592857Y-79593666D01*
X107521428Y-79460333D01*
X107450000Y-79393666D01*
X107307142Y-79327000D01*
X107021428Y-79327000D01*
X106878571Y-79393666D01*
X106164285Y-79327000D02*
X106164285Y-80260333D01*
X106164285Y-79460333D02*
X106092857Y-79393666D01*
X105950000Y-79327000D01*
X105735714Y-79327000D01*
X105592857Y-79393666D01*
X105521428Y-79527000D01*
X105521428Y-80260333D01*
X103021428Y-80260333D02*
X103021428Y-79527000D01*
X103092857Y-79393666D01*
X103235714Y-79327000D01*
X103521428Y-79327000D01*
X103664285Y-79393666D01*
X103021428Y-80193666D02*
X103164285Y-80260333D01*
X103521428Y-80260333D01*
X103664285Y-80193666D01*
X103735714Y-80060333D01*
X103735714Y-79927000D01*
X103664285Y-79793666D01*
X103521428Y-79727000D01*
X103164285Y-79727000D01*
X103021428Y-79660333D01*
X102307142Y-79327000D02*
X102307142Y-80260333D01*
X102307142Y-79460333D02*
X102235714Y-79393666D01*
X102092857Y-79327000D01*
X101878571Y-79327000D01*
X101735714Y-79393666D01*
X101664285Y-79527000D01*
X101664285Y-80260333D01*
X100307142Y-80260333D02*
X100307142Y-78860333D01*
X100307142Y-80193666D02*
X100450000Y-80260333D01*
X100735714Y-80260333D01*
X100878571Y-80193666D01*
X100950000Y-80127000D01*
X101021428Y-79993666D01*
X101021428Y-79593666D01*
X100950000Y-79460333D01*
X100878571Y-79393666D01*
X100735714Y-79327000D01*
X100450000Y-79327000D01*
X100307142Y-79393666D01*
X98450000Y-80260333D02*
X98450000Y-79327000D01*
X98450000Y-79460333D02*
X98378571Y-79393666D01*
X98235714Y-79327000D01*
X98021428Y-79327000D01*
X97878571Y-79393666D01*
X97807142Y-79527000D01*
X97807142Y-80260333D01*
X97807142Y-79527000D02*
X97735714Y-79393666D01*
X97592857Y-79327000D01*
X97378571Y-79327000D01*
X97235714Y-79393666D01*
X97164285Y-79527000D01*
X97164285Y-80260333D01*
X95807142Y-80260333D02*
X95807142Y-79527000D01*
X95878571Y-79393666D01*
X96021428Y-79327000D01*
X96307142Y-79327000D01*
X96450000Y-79393666D01*
X95807142Y-80193666D02*
X95950000Y-80260333D01*
X96307142Y-80260333D01*
X96450000Y-80193666D01*
X96521428Y-80060333D01*
X96521428Y-79927000D01*
X96450000Y-79793666D01*
X96307142Y-79727000D01*
X95950000Y-79727000D01*
X95807142Y-79660333D01*
X95092857Y-80260333D02*
X95092857Y-78860333D01*
X94950000Y-79727000D02*
X94521428Y-80260333D01*
X94521428Y-79327000D02*
X95092857Y-79860333D01*
X93307142Y-80193666D02*
X93450000Y-80260333D01*
X93735714Y-80260333D01*
X93878571Y-80193666D01*
X93950000Y-80060333D01*
X93950000Y-79527000D01*
X93878571Y-79393666D01*
X93735714Y-79327000D01*
X93450000Y-79327000D01*
X93307142Y-79393666D01*
X93235714Y-79527000D01*
X93235714Y-79660333D01*
X93950000Y-79793666D01*
X91450000Y-80260333D02*
X91450000Y-79327000D01*
X91450000Y-78860333D02*
X91521428Y-78927000D01*
X91450000Y-78993666D01*
X91378571Y-78927000D01*
X91450000Y-78860333D01*
X91450000Y-78993666D01*
X90950000Y-79327000D02*
X90378571Y-79327000D01*
X90735714Y-78860333D02*
X90735714Y-80060333D01*
X90664285Y-80193666D01*
X90521428Y-80260333D01*
X90378571Y-80260333D01*
X88878571Y-79327000D02*
X88521428Y-80260333D01*
X88164285Y-79327000D02*
X88521428Y-80260333D01*
X88664285Y-80593666D01*
X88735714Y-80660333D01*
X88878571Y-80727000D01*
X87378571Y-80260333D02*
X87521428Y-80193666D01*
X87592857Y-80127000D01*
X87664285Y-79993666D01*
X87664285Y-79593666D01*
X87592857Y-79460333D01*
X87521428Y-79393666D01*
X87378571Y-79327000D01*
X87164285Y-79327000D01*
X87021428Y-79393666D01*
X86950000Y-79460333D01*
X86878571Y-79593666D01*
X86878571Y-79993666D01*
X86950000Y-80127000D01*
X87021428Y-80193666D01*
X87164285Y-80260333D01*
X87378571Y-80260333D01*
X85592857Y-79327000D02*
X85592857Y-80260333D01*
X86235714Y-79327000D02*
X86235714Y-80060333D01*
X86164285Y-80193666D01*
X86021428Y-80260333D01*
X85807142Y-80260333D01*
X85664285Y-80193666D01*
X85592857Y-80127000D01*
X84878571Y-80260333D02*
X84878571Y-79327000D01*
X84878571Y-79593666D02*
X84807142Y-79460333D01*
X84735714Y-79393666D01*
X84592857Y-79327000D01*
X84450000Y-79327000D01*
X84021428Y-80193666D02*
X83878571Y-80260333D01*
X83592857Y-80260333D01*
X83450000Y-80193666D01*
X83378571Y-80060333D01*
X83378571Y-79993666D01*
X83450000Y-79860333D01*
X83592857Y-79793666D01*
X83807142Y-79793666D01*
X83950000Y-79727000D01*
X84021428Y-79593666D01*
X84021428Y-79527000D01*
X83950000Y-79393666D01*
X83807142Y-79327000D01*
X83592857Y-79327000D01*
X83450000Y-79393666D01*
X82735714Y-80127000D02*
X82664285Y-80193666D01*
X82735714Y-80260333D01*
X82807142Y-80193666D01*
X82735714Y-80127000D01*
X82735714Y-80260333D01*
D12*
X126904761Y-109294761D02*
X126904761Y-107294761D01*
X126428571Y-107294761D01*
X126142857Y-107390000D01*
X125952380Y-107580476D01*
X125857142Y-107770952D01*
X125761904Y-108151904D01*
X125761904Y-108437619D01*
X125857142Y-108818571D01*
X125952380Y-109009047D01*
X126142857Y-109199523D01*
X126428571Y-109294761D01*
X126904761Y-109294761D01*
X124142857Y-109199523D02*
X124333333Y-109294761D01*
X124714285Y-109294761D01*
X124904761Y-109199523D01*
X125000000Y-109009047D01*
X125000000Y-108247142D01*
X124904761Y-108056666D01*
X124714285Y-107961428D01*
X124333333Y-107961428D01*
X124142857Y-108056666D01*
X124047619Y-108247142D01*
X124047619Y-108437619D01*
X125000000Y-108628095D01*
X123285714Y-109199523D02*
X123095238Y-109294761D01*
X122714285Y-109294761D01*
X122523809Y-109199523D01*
X122428571Y-109009047D01*
X122428571Y-108913809D01*
X122523809Y-108723333D01*
X122714285Y-108628095D01*
X123000000Y-108628095D01*
X123190476Y-108532857D01*
X123285714Y-108342380D01*
X123285714Y-108247142D01*
X123190476Y-108056666D01*
X123000000Y-107961428D01*
X122714285Y-107961428D01*
X122523809Y-108056666D01*
X121571428Y-109294761D02*
X121571428Y-107961428D01*
X121571428Y-107294761D02*
X121666666Y-107390000D01*
X121571428Y-107485238D01*
X121476190Y-107390000D01*
X121571428Y-107294761D01*
X121571428Y-107485238D01*
X119761904Y-107961428D02*
X119761904Y-109580476D01*
X119857142Y-109770952D01*
X119952380Y-109866190D01*
X120142857Y-109961428D01*
X120428571Y-109961428D01*
X120619047Y-109866190D01*
X119761904Y-109199523D02*
X119952380Y-109294761D01*
X120333333Y-109294761D01*
X120523809Y-109199523D01*
X120619047Y-109104285D01*
X120714285Y-108913809D01*
X120714285Y-108342380D01*
X120619047Y-108151904D01*
X120523809Y-108056666D01*
X120333333Y-107961428D01*
X119952380Y-107961428D01*
X119761904Y-108056666D01*
X118809523Y-107961428D02*
X118809523Y-109294761D01*
X118809523Y-108151904D02*
X118714285Y-108056666D01*
X118523809Y-107961428D01*
X118238095Y-107961428D01*
X118047619Y-108056666D01*
X117952380Y-108247142D01*
X117952380Y-109294761D01*
X116238095Y-109199523D02*
X116428571Y-109294761D01*
X116809523Y-109294761D01*
X117000000Y-109199523D01*
X117095238Y-109009047D01*
X117095238Y-108247142D01*
X117000000Y-108056666D01*
X116809523Y-107961428D01*
X116428571Y-107961428D01*
X116238095Y-108056666D01*
X116142857Y-108247142D01*
X116142857Y-108437619D01*
X117095238Y-108628095D01*
X114428571Y-109294761D02*
X114428571Y-107294761D01*
X114428571Y-109199523D02*
X114619047Y-109294761D01*
X115000000Y-109294761D01*
X115190476Y-109199523D01*
X115285714Y-109104285D01*
X115380952Y-108913809D01*
X115380952Y-108342380D01*
X115285714Y-108151904D01*
X115190476Y-108056666D01*
X115000000Y-107961428D01*
X114619047Y-107961428D01*
X114428571Y-108056666D01*
X111952380Y-109294761D02*
X111952380Y-107294761D01*
X111952380Y-108056666D02*
X111761904Y-107961428D01*
X111380952Y-107961428D01*
X111190476Y-108056666D01*
X111095238Y-108151904D01*
X111000000Y-108342380D01*
X111000000Y-108913809D01*
X111095238Y-109104285D01*
X111190476Y-109199523D01*
X111380952Y-109294761D01*
X111761904Y-109294761D01*
X111952380Y-109199523D01*
X110333333Y-107961428D02*
X109857142Y-109294761D01*
X109380952Y-107961428D02*
X109857142Y-109294761D01*
X110047619Y-109770952D01*
X110142857Y-109866190D01*
X110333333Y-109961428D01*
X107380952Y-107294761D02*
X106238095Y-107294761D01*
X106809523Y-109294761D02*
X106809523Y-107294761D01*
X104714285Y-109294761D02*
X104714285Y-108247142D01*
X104809523Y-108056666D01*
X105000000Y-107961428D01*
X105380952Y-107961428D01*
X105571428Y-108056666D01*
X104714285Y-109199523D02*
X104904761Y-109294761D01*
X105380952Y-109294761D01*
X105571428Y-109199523D01*
X105666666Y-109009047D01*
X105666666Y-108818571D01*
X105571428Y-108628095D01*
X105380952Y-108532857D01*
X104904761Y-108532857D01*
X104714285Y-108437619D01*
X103952380Y-107961428D02*
X103476190Y-109294761D01*
X103000000Y-107961428D02*
X103476190Y-109294761D01*
X103666666Y-109770952D01*
X103761904Y-109866190D01*
X103952380Y-109961428D01*
X101952380Y-109294761D02*
X102142857Y-109199523D01*
X102238095Y-109009047D01*
X102238095Y-107294761D01*
X100904761Y-109294761D02*
X101095238Y-109199523D01*
X101190476Y-109104285D01*
X101285714Y-108913809D01*
X101285714Y-108342380D01*
X101190476Y-108151904D01*
X101095238Y-108056666D01*
X100904761Y-107961428D01*
X100619047Y-107961428D01*
X100428571Y-108056666D01*
X100333333Y-108151904D01*
X100238095Y-108342380D01*
X100238095Y-108913809D01*
X100333333Y-109104285D01*
X100428571Y-109199523D01*
X100619047Y-109294761D01*
X100904761Y-109294761D01*
X99380952Y-109294761D02*
X99380952Y-107961428D01*
X99380952Y-108342380D02*
X99285714Y-108151904D01*
X99190476Y-108056666D01*
X99000000Y-107961428D01*
X98809523Y-107961428D01*
X96714285Y-108723333D02*
X95761904Y-108723333D01*
X96904761Y-109294761D02*
X96238095Y-107294761D01*
X95571428Y-109294761D01*
X94619047Y-109294761D02*
X94809523Y-109199523D01*
X94904761Y-109009047D01*
X94904761Y-107294761D01*
X93095238Y-109199523D02*
X93285714Y-109294761D01*
X93666666Y-109294761D01*
X93857142Y-109199523D01*
X93952380Y-109009047D01*
X93952380Y-108247142D01*
X93857142Y-108056666D01*
X93666666Y-107961428D01*
X93285714Y-107961428D01*
X93095238Y-108056666D01*
X93000000Y-108247142D01*
X93000000Y-108437619D01*
X93952380Y-108628095D01*
X92333333Y-109294761D02*
X91285714Y-107961428D01*
X92333333Y-107961428D02*
X91285714Y-109294761D01*
X89666666Y-109294761D02*
X89666666Y-108247142D01*
X89761904Y-108056666D01*
X89952380Y-107961428D01*
X90333333Y-107961428D01*
X90523809Y-108056666D01*
X89666666Y-109199523D02*
X89857142Y-109294761D01*
X90333333Y-109294761D01*
X90523809Y-109199523D01*
X90619047Y-109009047D01*
X90619047Y-108818571D01*
X90523809Y-108628095D01*
X90333333Y-108532857D01*
X89857142Y-108532857D01*
X89666666Y-108437619D01*
X88714285Y-107961428D02*
X88714285Y-109294761D01*
X88714285Y-108151904D02*
X88619047Y-108056666D01*
X88428571Y-107961428D01*
X88142857Y-107961428D01*
X87952380Y-108056666D01*
X87857142Y-108247142D01*
X87857142Y-109294761D01*
X86047619Y-109294761D02*
X86047619Y-107294761D01*
X86047619Y-109199523D02*
X86238095Y-109294761D01*
X86619047Y-109294761D01*
X86809523Y-109199523D01*
X86904761Y-109104285D01*
X87000000Y-108913809D01*
X87000000Y-108342380D01*
X86904761Y-108151904D01*
X86809523Y-108056666D01*
X86619047Y-107961428D01*
X86238095Y-107961428D01*
X86047619Y-108056666D01*
X84333333Y-109199523D02*
X84523809Y-109294761D01*
X84904761Y-109294761D01*
X85095238Y-109199523D01*
X85190476Y-109009047D01*
X85190476Y-108247142D01*
X85095238Y-108056666D01*
X84904761Y-107961428D01*
X84523809Y-107961428D01*
X84333333Y-108056666D01*
X84238095Y-108247142D01*
X84238095Y-108437619D01*
X85190476Y-108628095D01*
X83380952Y-109294761D02*
X83380952Y-107961428D01*
X83380952Y-108342380D02*
X83285714Y-108151904D01*
X83190476Y-108056666D01*
X83000000Y-107961428D01*
X82809523Y-107961428D01*
X117619047Y-111467142D02*
X118285714Y-111467142D01*
X118285714Y-112514761D02*
X118285714Y-110514761D01*
X117333333Y-110514761D01*
X116285714Y-112514761D02*
X116476190Y-112419523D01*
X116571428Y-112324285D01*
X116666666Y-112133809D01*
X116666666Y-111562380D01*
X116571428Y-111371904D01*
X116476190Y-111276666D01*
X116285714Y-111181428D01*
X116000000Y-111181428D01*
X115809523Y-111276666D01*
X115714285Y-111371904D01*
X115619047Y-111562380D01*
X115619047Y-112133809D01*
X115714285Y-112324285D01*
X115809523Y-112419523D01*
X116000000Y-112514761D01*
X116285714Y-112514761D01*
X114761904Y-112514761D02*
X114761904Y-111181428D01*
X114761904Y-111562380D02*
X114666666Y-111371904D01*
X114571428Y-111276666D01*
X114380952Y-111181428D01*
X114190476Y-111181428D01*
X112285714Y-110514761D02*
X111142857Y-110514761D01*
X111714285Y-112514761D02*
X111714285Y-110514761D01*
X110666666Y-111181428D02*
X110285714Y-112514761D01*
X109904761Y-111562380D01*
X109523809Y-112514761D01*
X109142857Y-111181428D01*
X108380952Y-112514761D02*
X108380952Y-111181428D01*
X108380952Y-110514761D02*
X108476190Y-110610000D01*
X108380952Y-110705238D01*
X108285714Y-110610000D01*
X108380952Y-110514761D01*
X108380952Y-110705238D01*
X107523809Y-112419523D02*
X107333333Y-112514761D01*
X106952380Y-112514761D01*
X106761904Y-112419523D01*
X106666666Y-112229047D01*
X106666666Y-112133809D01*
X106761904Y-111943333D01*
X106952380Y-111848095D01*
X107238095Y-111848095D01*
X107428571Y-111752857D01*
X107523809Y-111562380D01*
X107523809Y-111467142D01*
X107428571Y-111276666D01*
X107238095Y-111181428D01*
X106952380Y-111181428D01*
X106761904Y-111276666D01*
X106095238Y-111181428D02*
X105333333Y-111181428D01*
X105809523Y-110514761D02*
X105809523Y-112229047D01*
X105714285Y-112419523D01*
X105523809Y-112514761D01*
X105333333Y-112514761D01*
X103904761Y-112419523D02*
X104095238Y-112514761D01*
X104476190Y-112514761D01*
X104666666Y-112419523D01*
X104761904Y-112229047D01*
X104761904Y-111467142D01*
X104666666Y-111276666D01*
X104476190Y-111181428D01*
X104095238Y-111181428D01*
X103904761Y-111276666D01*
X103809523Y-111467142D01*
X103809523Y-111657619D01*
X104761904Y-111848095D01*
X102095238Y-112514761D02*
X102095238Y-110514761D01*
X102095238Y-112419523D02*
X102285714Y-112514761D01*
X102666666Y-112514761D01*
X102857142Y-112419523D01*
X102952380Y-112324285D01*
X103047619Y-112133809D01*
X103047619Y-111562380D01*
X102952380Y-111371904D01*
X102857142Y-111276666D01*
X102666666Y-111181428D01*
X102285714Y-111181428D01*
X102095238Y-111276666D01*
X98952380Y-111467142D02*
X99619047Y-111467142D01*
X99619047Y-112514761D02*
X99619047Y-110514761D01*
X98666666Y-110514761D01*
X97904761Y-112514761D02*
X97904761Y-111181428D01*
X97904761Y-110514761D02*
X98000000Y-110610000D01*
X97904761Y-110705238D01*
X97809523Y-110610000D01*
X97904761Y-110514761D01*
X97904761Y-110705238D01*
X96190476Y-112419523D02*
X96380952Y-112514761D01*
X96761904Y-112514761D01*
X96952380Y-112419523D01*
X97047619Y-112229047D01*
X97047619Y-111467142D01*
X96952380Y-111276666D01*
X96761904Y-111181428D01*
X96380952Y-111181428D01*
X96190476Y-111276666D01*
X96095238Y-111467142D01*
X96095238Y-111657619D01*
X97047619Y-111848095D01*
X94952380Y-112514761D02*
X95142857Y-112419523D01*
X95238095Y-112229047D01*
X95238095Y-110514761D01*
X93333333Y-112514761D02*
X93333333Y-110514761D01*
X93333333Y-112419523D02*
X93523809Y-112514761D01*
X93904761Y-112514761D01*
X94095238Y-112419523D01*
X94190476Y-112324285D01*
X94285714Y-112133809D01*
X94285714Y-111562380D01*
X94190476Y-111371904D01*
X94095238Y-111276666D01*
X93904761Y-111181428D01*
X93523809Y-111181428D01*
X93333333Y-111276666D01*
X92476190Y-112419523D02*
X92285714Y-112514761D01*
X91904761Y-112514761D01*
X91714285Y-112419523D01*
X91619047Y-112229047D01*
X91619047Y-112133809D01*
X91714285Y-111943333D01*
X91904761Y-111848095D01*
X92190476Y-111848095D01*
X92380952Y-111752857D01*
X92476190Y-111562380D01*
X92476190Y-111467142D01*
X92380952Y-111276666D01*
X92190476Y-111181428D01*
X91904761Y-111181428D01*
X91714285Y-111276666D01*
D11*
X71950000Y-117321428D02*
X71950000Y-116821428D01*
X71216666Y-116607142D02*
X71216666Y-117321428D01*
X72616666Y-117321428D01*
X72616666Y-116607142D01*
X71216666Y-115964285D02*
X72616666Y-115964285D01*
X71216666Y-115107142D01*
X72616666Y-115107142D01*
X71350000Y-113535714D02*
X71283333Y-113607142D01*
X71216666Y-113821428D01*
X71216666Y-113964285D01*
X71283333Y-114178571D01*
X71416666Y-114321428D01*
X71550000Y-114392857D01*
X71816666Y-114464285D01*
X72016666Y-114464285D01*
X72283333Y-114392857D01*
X72416666Y-114321428D01*
X72550000Y-114178571D01*
X72616666Y-113964285D01*
X72616666Y-113821428D01*
X72550000Y-113607142D01*
X72483333Y-113535714D01*
X72483333Y-112964285D02*
X72550000Y-112892857D01*
X72616666Y-112750000D01*
X72616666Y-112392857D01*
X72550000Y-112250000D01*
X72483333Y-112178571D01*
X72350000Y-112107142D01*
X72216666Y-112107142D01*
X72016666Y-112178571D01*
X71216666Y-113035714D01*
X71216666Y-112107142D01*
X71900000Y-84171428D02*
X71900000Y-83671428D01*
X71166666Y-83457142D02*
X71166666Y-84171428D01*
X72566666Y-84171428D01*
X72566666Y-83457142D01*
X71166666Y-82814285D02*
X72566666Y-82814285D01*
X71166666Y-81957142D01*
X72566666Y-81957142D01*
X71300000Y-80385714D02*
X71233333Y-80457142D01*
X71166666Y-80671428D01*
X71166666Y-80814285D01*
X71233333Y-81028571D01*
X71366666Y-81171428D01*
X71500000Y-81242857D01*
X71766666Y-81314285D01*
X71966666Y-81314285D01*
X72233333Y-81242857D01*
X72366666Y-81171428D01*
X72500000Y-81028571D01*
X72566666Y-80814285D01*
X72566666Y-80671428D01*
X72500000Y-80457142D01*
X72433333Y-80385714D01*
X71166666Y-78957142D02*
X71166666Y-79814285D01*
X71166666Y-79385714D02*
X72566666Y-79385714D01*
X72366666Y-79528571D01*
X72233333Y-79671428D01*
X72166666Y-79814285D01*
D12*
X127671428Y-99097142D02*
X128338095Y-99097142D01*
X128338095Y-100144761D02*
X128338095Y-98144761D01*
X127385714Y-98144761D01*
X125766666Y-98811428D02*
X125766666Y-100144761D01*
X126623809Y-98811428D02*
X126623809Y-99859047D01*
X126528571Y-100049523D01*
X126338095Y-100144761D01*
X126052380Y-100144761D01*
X125861904Y-100049523D01*
X125766666Y-99954285D01*
X124814285Y-98811428D02*
X124814285Y-100144761D01*
X124814285Y-99001904D02*
X124719047Y-98906666D01*
X124528571Y-98811428D01*
X124242857Y-98811428D01*
X124052380Y-98906666D01*
X123957142Y-99097142D01*
X123957142Y-100144761D01*
X122147619Y-100144761D02*
X122147619Y-98144761D01*
X122147619Y-100049523D02*
X122338095Y-100144761D01*
X122719047Y-100144761D01*
X122909523Y-100049523D01*
X123004761Y-99954285D01*
X123100000Y-99763809D01*
X123100000Y-99192380D01*
X123004761Y-99001904D01*
X122909523Y-98906666D01*
X122719047Y-98811428D01*
X122338095Y-98811428D01*
X122147619Y-98906666D01*
X120433333Y-100049523D02*
X120623809Y-100144761D01*
X121004761Y-100144761D01*
X121195238Y-100049523D01*
X121290476Y-99859047D01*
X121290476Y-99097142D01*
X121195238Y-98906666D01*
X121004761Y-98811428D01*
X120623809Y-98811428D01*
X120433333Y-98906666D01*
X120338095Y-99097142D01*
X120338095Y-99287619D01*
X121290476Y-99478095D01*
X118623809Y-100144761D02*
X118623809Y-98144761D01*
X118623809Y-100049523D02*
X118814285Y-100144761D01*
X119195238Y-100144761D01*
X119385714Y-100049523D01*
X119480952Y-99954285D01*
X119576190Y-99763809D01*
X119576190Y-99192380D01*
X119480952Y-99001904D01*
X119385714Y-98906666D01*
X119195238Y-98811428D01*
X118814285Y-98811428D01*
X118623809Y-98906666D01*
X115480952Y-99097142D02*
X115195238Y-99192380D01*
X115100000Y-99287619D01*
X115004761Y-99478095D01*
X115004761Y-99763809D01*
X115100000Y-99954285D01*
X115195238Y-100049523D01*
X115385714Y-100144761D01*
X116147619Y-100144761D01*
X116147619Y-98144761D01*
X115480952Y-98144761D01*
X115290476Y-98240000D01*
X115195238Y-98335238D01*
X115100000Y-98525714D01*
X115100000Y-98716190D01*
X115195238Y-98906666D01*
X115290476Y-99001904D01*
X115480952Y-99097142D01*
X116147619Y-99097142D01*
X114338095Y-98811428D02*
X113861904Y-100144761D01*
X113385714Y-98811428D02*
X113861904Y-100144761D01*
X114052380Y-100620952D01*
X114147619Y-100716190D01*
X114338095Y-100811428D01*
X111100000Y-100144761D02*
X111100000Y-98144761D01*
X110623809Y-98144761D01*
X110338095Y-98240000D01*
X110147619Y-98430476D01*
X110052380Y-98620952D01*
X109957142Y-99001904D01*
X109957142Y-99287619D01*
X110052380Y-99668571D01*
X110147619Y-99859047D01*
X110338095Y-100049523D01*
X110623809Y-100144761D01*
X111100000Y-100144761D01*
X108242857Y-100144761D02*
X108242857Y-99097142D01*
X108338095Y-98906666D01*
X108528571Y-98811428D01*
X108909523Y-98811428D01*
X109100000Y-98906666D01*
X108242857Y-100049523D02*
X108433333Y-100144761D01*
X108909523Y-100144761D01*
X109100000Y-100049523D01*
X109195238Y-99859047D01*
X109195238Y-99668571D01*
X109100000Y-99478095D01*
X108909523Y-99382857D01*
X108433333Y-99382857D01*
X108242857Y-99287619D01*
X107290476Y-98811428D02*
X107290476Y-100144761D01*
X107290476Y-99001904D02*
X107195238Y-98906666D01*
X107004761Y-98811428D01*
X106719047Y-98811428D01*
X106528571Y-98906666D01*
X106433333Y-99097142D01*
X106433333Y-100144761D01*
X105480952Y-100144761D02*
X105480952Y-98811428D01*
X105480952Y-98144761D02*
X105576190Y-98240000D01*
X105480952Y-98335238D01*
X105385714Y-98240000D01*
X105480952Y-98144761D01*
X105480952Y-98335238D01*
X103766666Y-100049523D02*
X103957142Y-100144761D01*
X104338095Y-100144761D01*
X104528571Y-100049523D01*
X104623809Y-99859047D01*
X104623809Y-99097142D01*
X104528571Y-98906666D01*
X104338095Y-98811428D01*
X103957142Y-98811428D01*
X103766666Y-98906666D01*
X103671428Y-99097142D01*
X103671428Y-99287619D01*
X104623809Y-99478095D01*
X102528571Y-100144761D02*
X102719047Y-100049523D01*
X102814285Y-99859047D01*
X102814285Y-98144761D01*
X100528571Y-98144761D02*
X99385714Y-98144761D01*
X99957142Y-100144761D02*
X99957142Y-98144761D01*
X98719047Y-100144761D02*
X98719047Y-98144761D01*
X97861904Y-100144761D02*
X97861904Y-99097142D01*
X97957142Y-98906666D01*
X98147619Y-98811428D01*
X98433333Y-98811428D01*
X98623809Y-98906666D01*
X98719047Y-99001904D01*
X96147619Y-100049523D02*
X96338095Y-100144761D01*
X96719047Y-100144761D01*
X96909523Y-100049523D01*
X97004761Y-99859047D01*
X97004761Y-99097142D01*
X96909523Y-98906666D01*
X96719047Y-98811428D01*
X96338095Y-98811428D01*
X96147619Y-98906666D01*
X96052380Y-99097142D01*
X96052380Y-99287619D01*
X97004761Y-99478095D01*
X94909523Y-100144761D02*
X95100000Y-100049523D01*
X95195238Y-99954285D01*
X95290476Y-99763809D01*
X95290476Y-99192380D01*
X95195238Y-99001904D01*
X95100000Y-98906666D01*
X94909523Y-98811428D01*
X94623809Y-98811428D01*
X94433333Y-98906666D01*
X94338095Y-99001904D01*
X94242857Y-99192380D01*
X94242857Y-99763809D01*
X94338095Y-99954285D01*
X94433333Y-100049523D01*
X94623809Y-100144761D01*
X94909523Y-100144761D01*
X93385714Y-100144761D02*
X93385714Y-98144761D01*
X93385714Y-98906666D02*
X93195238Y-98811428D01*
X92814285Y-98811428D01*
X92623809Y-98906666D01*
X92528571Y-99001904D01*
X92433333Y-99192380D01*
X92433333Y-99763809D01*
X92528571Y-99954285D01*
X92623809Y-100049523D01*
X92814285Y-100144761D01*
X93195238Y-100144761D01*
X93385714Y-100049523D01*
X90719047Y-100144761D02*
X90719047Y-99097142D01*
X90814285Y-98906666D01*
X91004761Y-98811428D01*
X91385714Y-98811428D01*
X91576190Y-98906666D01*
X90719047Y-100049523D02*
X90909523Y-100144761D01*
X91385714Y-100144761D01*
X91576190Y-100049523D01*
X91671428Y-99859047D01*
X91671428Y-99668571D01*
X91576190Y-99478095D01*
X91385714Y-99382857D01*
X90909523Y-99382857D01*
X90719047Y-99287619D01*
X89480952Y-100144761D02*
X89671428Y-100049523D01*
X89766666Y-99859047D01*
X89766666Y-98144761D01*
X87861904Y-100144761D02*
X87861904Y-98144761D01*
X87861904Y-100049523D02*
X88052380Y-100144761D01*
X88433333Y-100144761D01*
X88623809Y-100049523D01*
X88719047Y-99954285D01*
X88814285Y-99763809D01*
X88814285Y-99192380D01*
X88719047Y-99001904D01*
X88623809Y-98906666D01*
X88433333Y-98811428D01*
X88052380Y-98811428D01*
X87861904Y-98906666D01*
X118909523Y-101364761D02*
X117766666Y-101364761D01*
X118338095Y-103364761D02*
X118338095Y-101364761D01*
X117100000Y-103364761D02*
X117100000Y-101364761D01*
X116242857Y-103364761D02*
X116242857Y-102317142D01*
X116338095Y-102126666D01*
X116528571Y-102031428D01*
X116814285Y-102031428D01*
X117004761Y-102126666D01*
X117100000Y-102221904D01*
X114433333Y-103364761D02*
X114433333Y-102317142D01*
X114528571Y-102126666D01*
X114719047Y-102031428D01*
X115100000Y-102031428D01*
X115290476Y-102126666D01*
X114433333Y-103269523D02*
X114623809Y-103364761D01*
X115100000Y-103364761D01*
X115290476Y-103269523D01*
X115385714Y-103079047D01*
X115385714Y-102888571D01*
X115290476Y-102698095D01*
X115100000Y-102602857D01*
X114623809Y-102602857D01*
X114433333Y-102507619D01*
X113480952Y-102031428D02*
X113480952Y-103364761D01*
X113480952Y-102221904D02*
X113385714Y-102126666D01*
X113195238Y-102031428D01*
X112909523Y-102031428D01*
X112719047Y-102126666D01*
X112623809Y-102317142D01*
X112623809Y-103364761D01*
X111671428Y-103364761D02*
X111671428Y-101364761D01*
X111480952Y-102602857D02*
X110909523Y-103364761D01*
X110909523Y-102031428D02*
X111671428Y-102793333D01*
X110147619Y-103269523D02*
X109957142Y-103364761D01*
X109576190Y-103364761D01*
X109385714Y-103269523D01*
X109290476Y-103079047D01*
X109290476Y-102983809D01*
X109385714Y-102793333D01*
X109576190Y-102698095D01*
X109861904Y-102698095D01*
X110052380Y-102602857D01*
X110147619Y-102412380D01*
X110147619Y-102317142D01*
X110052380Y-102126666D01*
X109861904Y-102031428D01*
X109576190Y-102031428D01*
X109385714Y-102126666D01*
X106909523Y-103364761D02*
X106909523Y-101364761D01*
X106433333Y-101364761D01*
X106147619Y-101460000D01*
X105957142Y-101650476D01*
X105861904Y-101840952D01*
X105766666Y-102221904D01*
X105766666Y-102507619D01*
X105861904Y-102888571D01*
X105957142Y-103079047D01*
X106147619Y-103269523D01*
X106433333Y-103364761D01*
X106909523Y-103364761D01*
X104052380Y-103364761D02*
X104052380Y-102317142D01*
X104147619Y-102126666D01*
X104338095Y-102031428D01*
X104719047Y-102031428D01*
X104909523Y-102126666D01*
X104052380Y-103269523D02*
X104242857Y-103364761D01*
X104719047Y-103364761D01*
X104909523Y-103269523D01*
X105004761Y-103079047D01*
X105004761Y-102888571D01*
X104909523Y-102698095D01*
X104719047Y-102602857D01*
X104242857Y-102602857D01*
X104052380Y-102507619D01*
X103100000Y-102031428D02*
X103100000Y-103364761D01*
X103100000Y-102221904D02*
X103004761Y-102126666D01*
X102814285Y-102031428D01*
X102528571Y-102031428D01*
X102338095Y-102126666D01*
X102242857Y-102317142D01*
X102242857Y-103364761D01*
X101290476Y-103364761D02*
X101290476Y-102031428D01*
X101290476Y-101364761D02*
X101385714Y-101460000D01*
X101290476Y-101555238D01*
X101195238Y-101460000D01*
X101290476Y-101364761D01*
X101290476Y-101555238D01*
X99576190Y-103269523D02*
X99766666Y-103364761D01*
X100147619Y-103364761D01*
X100338095Y-103269523D01*
X100433333Y-103079047D01*
X100433333Y-102317142D01*
X100338095Y-102126666D01*
X100147619Y-102031428D01*
X99766666Y-102031428D01*
X99576190Y-102126666D01*
X99480952Y-102317142D01*
X99480952Y-102507619D01*
X100433333Y-102698095D01*
X98338095Y-103364761D02*
X98528571Y-103269523D01*
X98623809Y-103079047D01*
X98623809Y-101364761D01*
X97576190Y-103174285D02*
X97480952Y-103269523D01*
X97576190Y-103364761D01*
X97671428Y-103269523D01*
X97576190Y-103174285D01*
X97576190Y-103364761D01*
X97576190Y-102602857D02*
X97671428Y-101460000D01*
X97576190Y-101364761D01*
X97480952Y-101460000D01*
X97576190Y-102602857D01*
X97576190Y-101364761D01*
D11*
X144064285Y-96433333D02*
X143564285Y-97833333D01*
X143064285Y-96433333D01*
X141992857Y-97766666D02*
X142135714Y-97833333D01*
X142421428Y-97833333D01*
X142564285Y-97766666D01*
X142635714Y-97633333D01*
X142635714Y-97100000D01*
X142564285Y-96966666D01*
X142421428Y-96900000D01*
X142135714Y-96900000D01*
X141992857Y-96966666D01*
X141921428Y-97100000D01*
X141921428Y-97233333D01*
X142635714Y-97366666D01*
X141278571Y-97833333D02*
X141278571Y-96900000D01*
X141278571Y-97166666D02*
X141207142Y-97033333D01*
X141135714Y-96966666D01*
X140992857Y-96900000D01*
X140850000Y-96900000D01*
X140421428Y-97766666D02*
X140278571Y-97833333D01*
X139992857Y-97833333D01*
X139850000Y-97766666D01*
X139778571Y-97633333D01*
X139778571Y-97566666D01*
X139850000Y-97433333D01*
X139992857Y-97366666D01*
X140207142Y-97366666D01*
X140350000Y-97300000D01*
X140421428Y-97166666D01*
X140421428Y-97100000D01*
X140350000Y-96966666D01*
X140207142Y-96900000D01*
X139992857Y-96900000D01*
X139850000Y-96966666D01*
X139135714Y-97833333D02*
X139135714Y-96900000D01*
X139135714Y-96433333D02*
X139207142Y-96500000D01*
X139135714Y-96566666D01*
X139064285Y-96500000D01*
X139135714Y-96433333D01*
X139135714Y-96566666D01*
X138207142Y-97833333D02*
X138350000Y-97766666D01*
X138421428Y-97700000D01*
X138492857Y-97566666D01*
X138492857Y-97166666D01*
X138421428Y-97033333D01*
X138350000Y-96966666D01*
X138207142Y-96900000D01*
X137992857Y-96900000D01*
X137850000Y-96966666D01*
X137778571Y-97033333D01*
X137707142Y-97166666D01*
X137707142Y-97566666D01*
X137778571Y-97700000D01*
X137850000Y-97766666D01*
X137992857Y-97833333D01*
X138207142Y-97833333D01*
X137064285Y-96900000D02*
X137064285Y-97833333D01*
X137064285Y-97033333D02*
X136992857Y-96966666D01*
X136850000Y-96900000D01*
X136635714Y-96900000D01*
X136492857Y-96966666D01*
X136421428Y-97100000D01*
X136421428Y-97833333D01*
X133778571Y-97833333D02*
X134635714Y-97833333D01*
X134207142Y-97833333D02*
X134207142Y-96433333D01*
X134350000Y-96633333D01*
X134492857Y-96766666D01*
X134635714Y-96833333D01*
X145792857Y-91100000D02*
X145792857Y-92233333D01*
X145864285Y-92366666D01*
X145935714Y-92433333D01*
X146078571Y-92500000D01*
X146292857Y-92500000D01*
X146435714Y-92433333D01*
X145792857Y-91966666D02*
X145935714Y-92033333D01*
X146221428Y-92033333D01*
X146364285Y-91966666D01*
X146435714Y-91900000D01*
X146507142Y-91766666D01*
X146507142Y-91366666D01*
X146435714Y-91233333D01*
X146364285Y-91166666D01*
X146221428Y-91100000D01*
X145935714Y-91100000D01*
X145792857Y-91166666D01*
X145078571Y-92033333D02*
X145078571Y-91100000D01*
X145078571Y-90633333D02*
X145150000Y-90700000D01*
X145078571Y-90766666D01*
X145007142Y-90700000D01*
X145078571Y-90633333D01*
X145078571Y-90766666D01*
X144578571Y-91100000D02*
X144007142Y-91100000D01*
X144364285Y-90633333D02*
X144364285Y-91833333D01*
X144292857Y-91966666D01*
X144150000Y-92033333D01*
X144007142Y-92033333D01*
X143507142Y-92033333D02*
X143507142Y-90633333D01*
X142864285Y-92033333D02*
X142864285Y-91300000D01*
X142935714Y-91166666D01*
X143078571Y-91100000D01*
X143292857Y-91100000D01*
X143435714Y-91166666D01*
X143507142Y-91233333D01*
X141507142Y-91100000D02*
X141507142Y-92033333D01*
X142150000Y-91100000D02*
X142150000Y-91833333D01*
X142078571Y-91966666D01*
X141935714Y-92033333D01*
X141721428Y-92033333D01*
X141578571Y-91966666D01*
X141507142Y-91900000D01*
X140792857Y-92033333D02*
X140792857Y-90633333D01*
X140792857Y-91166666D02*
X140650000Y-91100000D01*
X140364285Y-91100000D01*
X140221428Y-91166666D01*
X140150000Y-91233333D01*
X140078571Y-91366666D01*
X140078571Y-91766666D01*
X140150000Y-91900000D01*
X140221428Y-91966666D01*
X140364285Y-92033333D01*
X140650000Y-92033333D01*
X140792857Y-91966666D01*
X139435714Y-91900000D02*
X139364285Y-91966666D01*
X139435714Y-92033333D01*
X139507142Y-91966666D01*
X139435714Y-91900000D01*
X139435714Y-92033333D01*
X138078571Y-91966666D02*
X138221428Y-92033333D01*
X138507142Y-92033333D01*
X138650000Y-91966666D01*
X138721428Y-91900000D01*
X138792857Y-91766666D01*
X138792857Y-91366666D01*
X138721428Y-91233333D01*
X138650000Y-91166666D01*
X138507142Y-91100000D01*
X138221428Y-91100000D01*
X138078571Y-91166666D01*
X137221428Y-92033333D02*
X137364285Y-91966666D01*
X137435714Y-91900000D01*
X137507142Y-91766666D01*
X137507142Y-91366666D01*
X137435714Y-91233333D01*
X137364285Y-91166666D01*
X137221428Y-91100000D01*
X137007142Y-91100000D01*
X136864285Y-91166666D01*
X136792857Y-91233333D01*
X136721428Y-91366666D01*
X136721428Y-91766666D01*
X136792857Y-91900000D01*
X136864285Y-91966666D01*
X137007142Y-92033333D01*
X137221428Y-92033333D01*
X136078571Y-92033333D02*
X136078571Y-91100000D01*
X136078571Y-91233333D02*
X136007142Y-91166666D01*
X135864285Y-91100000D01*
X135650000Y-91100000D01*
X135507142Y-91166666D01*
X135435714Y-91300000D01*
X135435714Y-92033333D01*
X135435714Y-91300000D02*
X135364285Y-91166666D01*
X135221428Y-91100000D01*
X135007142Y-91100000D01*
X134864285Y-91166666D01*
X134792857Y-91300000D01*
X134792857Y-92033333D01*
X133007142Y-90566666D02*
X134292857Y-92366666D01*
X132721428Y-90633333D02*
X131864285Y-90633333D01*
X132292857Y-92033333D02*
X132292857Y-90633333D01*
X131507142Y-91100000D02*
X131221428Y-92033333D01*
X130935714Y-91366666D01*
X130649999Y-92033333D01*
X130364285Y-91100000D01*
X129792857Y-92033333D02*
X129792857Y-91100000D01*
X129792857Y-90633333D02*
X129864285Y-90700000D01*
X129792857Y-90766666D01*
X129721428Y-90700000D01*
X129792857Y-90633333D01*
X129792857Y-90766666D01*
X129149999Y-91966666D02*
X129007142Y-92033333D01*
X128721428Y-92033333D01*
X128578571Y-91966666D01*
X128507142Y-91833333D01*
X128507142Y-91766666D01*
X128578571Y-91633333D01*
X128721428Y-91566666D01*
X128935714Y-91566666D01*
X129078571Y-91500000D01*
X129149999Y-91366666D01*
X129149999Y-91300000D01*
X129078571Y-91166666D01*
X128935714Y-91100000D01*
X128721428Y-91100000D01*
X128578571Y-91166666D01*
X128078571Y-91100000D02*
X127507142Y-91100000D01*
X127864285Y-90633333D02*
X127864285Y-91833333D01*
X127792857Y-91966666D01*
X127649999Y-92033333D01*
X127507142Y-92033333D01*
X126435714Y-91966666D02*
X126578571Y-92033333D01*
X126864285Y-92033333D01*
X127007142Y-91966666D01*
X127078571Y-91833333D01*
X127078571Y-91300000D01*
X127007142Y-91166666D01*
X126864285Y-91100000D01*
X126578571Y-91100000D01*
X126435714Y-91166666D01*
X126364285Y-91300000D01*
X126364285Y-91433333D01*
X127078571Y-91566666D01*
X125078571Y-92033333D02*
X125078571Y-90633333D01*
X125078571Y-91966666D02*
X125221428Y-92033333D01*
X125507142Y-92033333D01*
X125649999Y-91966666D01*
X125721428Y-91900000D01*
X125792857Y-91766666D01*
X125792857Y-91366666D01*
X125721428Y-91233333D01*
X125649999Y-91166666D01*
X125507142Y-91100000D01*
X125221428Y-91100000D01*
X125078571Y-91166666D01*
X124364285Y-91500000D02*
X123221428Y-91500000D01*
X122007142Y-91300000D02*
X122507142Y-91300000D01*
X122507142Y-92033333D02*
X122507142Y-90633333D01*
X121792857Y-90633333D01*
X121221428Y-92033333D02*
X121221428Y-91100000D01*
X121221428Y-90633333D02*
X121292857Y-90700000D01*
X121221428Y-90766666D01*
X121149999Y-90700000D01*
X121221428Y-90633333D01*
X121221428Y-90766666D01*
X119935714Y-91966666D02*
X120078571Y-92033333D01*
X120364285Y-92033333D01*
X120507142Y-91966666D01*
X120578571Y-91833333D01*
X120578571Y-91300000D01*
X120507142Y-91166666D01*
X120364285Y-91100000D01*
X120078571Y-91100000D01*
X119935714Y-91166666D01*
X119864285Y-91300000D01*
X119864285Y-91433333D01*
X120578571Y-91566666D01*
X119007142Y-92033333D02*
X119149999Y-91966666D01*
X119221428Y-91833333D01*
X119221428Y-90633333D01*
X117792857Y-92033333D02*
X117792857Y-90633333D01*
X117792857Y-91966666D02*
X117935714Y-92033333D01*
X118221428Y-92033333D01*
X118364285Y-91966666D01*
X118435714Y-91900000D01*
X118507142Y-91766666D01*
X118507142Y-91366666D01*
X118435714Y-91233333D01*
X118364285Y-91166666D01*
X118221428Y-91100000D01*
X117935714Y-91100000D01*
X117792857Y-91166666D01*
X117149999Y-91966666D02*
X117007142Y-92033333D01*
X116721428Y-92033333D01*
X116578571Y-91966666D01*
X116507142Y-91833333D01*
X116507142Y-91766666D01*
X116578571Y-91633333D01*
X116721428Y-91566666D01*
X116935714Y-91566666D01*
X117078571Y-91500000D01*
X117149999Y-91366666D01*
X117149999Y-91300000D01*
X117078571Y-91166666D01*
X116935714Y-91100000D01*
X116721428Y-91100000D01*
X116578571Y-91166666D01*
X114792857Y-90566666D02*
X116078571Y-92366666D01*
X114292857Y-92033333D02*
X114292857Y-91100000D01*
X114292857Y-91366666D02*
X114221428Y-91233333D01*
X114149999Y-91166666D01*
X114007142Y-91100000D01*
X113864285Y-91100000D01*
X113364285Y-91100000D02*
X113364285Y-92500000D01*
X113364285Y-91166666D02*
X113221428Y-91100000D01*
X112935714Y-91100000D01*
X112792857Y-91166666D01*
X112721428Y-91233333D01*
X112649999Y-91366666D01*
X112649999Y-91766666D01*
X112721428Y-91900000D01*
X112792857Y-91966666D01*
X112935714Y-92033333D01*
X113221428Y-92033333D01*
X113364285Y-91966666D01*
X112078571Y-90766666D02*
X112007142Y-90700000D01*
X111864285Y-90633333D01*
X111507142Y-90633333D01*
X111364285Y-90700000D01*
X111292857Y-90766666D01*
X111221428Y-90900000D01*
X111221428Y-91033333D01*
X111292857Y-91233333D01*
X112149999Y-92033333D01*
X111221428Y-92033333D01*
X110292857Y-90633333D02*
X110149999Y-90633333D01*
X110007142Y-90700000D01*
X109935714Y-90766666D01*
X109864285Y-90900000D01*
X109792857Y-91166666D01*
X109792857Y-91500000D01*
X109864285Y-91766666D01*
X109935714Y-91900000D01*
X110007142Y-91966666D01*
X110149999Y-92033333D01*
X110292857Y-92033333D01*
X110435714Y-91966666D01*
X110507142Y-91900000D01*
X110578571Y-91766666D01*
X110649999Y-91500000D01*
X110649999Y-91166666D01*
X110578571Y-90900000D01*
X110507142Y-90766666D01*
X110435714Y-90700000D01*
X110292857Y-90633333D01*
X108507142Y-91100000D02*
X108507142Y-92033333D01*
X108864285Y-90566666D02*
X109221428Y-91566666D01*
X108292857Y-91566666D01*
X107435714Y-90633333D02*
X107292857Y-90633333D01*
X107149999Y-90700000D01*
X107078571Y-90766666D01*
X107007142Y-90900000D01*
X106935714Y-91166666D01*
X106935714Y-91500000D01*
X107007142Y-91766666D01*
X107078571Y-91900000D01*
X107149999Y-91966666D01*
X107292857Y-92033333D01*
X107435714Y-92033333D01*
X107578571Y-91966666D01*
X107649999Y-91900000D01*
X107721428Y-91766666D01*
X107792857Y-91500000D01*
X107792857Y-91166666D01*
X107721428Y-90900000D01*
X107649999Y-90766666D01*
X107578571Y-90700000D01*
X107435714Y-90633333D01*
X106292857Y-91500000D02*
X105149999Y-91500000D01*
X104435714Y-92033333D02*
X104435714Y-91100000D01*
X104435714Y-91233333D02*
X104364285Y-91166666D01*
X104221428Y-91100000D01*
X104007142Y-91100000D01*
X103864285Y-91166666D01*
X103792857Y-91300000D01*
X103792857Y-92033333D01*
X103792857Y-91300000D02*
X103721428Y-91166666D01*
X103578571Y-91100000D01*
X103364285Y-91100000D01*
X103221428Y-91166666D01*
X103149999Y-91300000D01*
X103149999Y-92033333D01*
X102221428Y-92033333D02*
X102364285Y-91966666D01*
X102435714Y-91900000D01*
X102507142Y-91766666D01*
X102507142Y-91366666D01*
X102435714Y-91233333D01*
X102364285Y-91166666D01*
X102221428Y-91100000D01*
X102007142Y-91100000D01*
X101864285Y-91166666D01*
X101792857Y-91233333D01*
X101721428Y-91366666D01*
X101721428Y-91766666D01*
X101792857Y-91900000D01*
X101864285Y-91966666D01*
X102007142Y-92033333D01*
X102221428Y-92033333D01*
X101292857Y-91100000D02*
X100721428Y-91100000D01*
X101078571Y-90633333D02*
X101078571Y-91833333D01*
X101007142Y-91966666D01*
X100864285Y-92033333D01*
X100721428Y-92033333D01*
X100007142Y-92033333D02*
X100149999Y-91966666D01*
X100221428Y-91900000D01*
X100292857Y-91766666D01*
X100292857Y-91366666D01*
X100221428Y-91233333D01*
X100149999Y-91166666D01*
X100007142Y-91100000D01*
X99792857Y-91100000D01*
X99649999Y-91166666D01*
X99578571Y-91233333D01*
X99507142Y-91366666D01*
X99507142Y-91766666D01*
X99578571Y-91900000D01*
X99649999Y-91966666D01*
X99792857Y-92033333D01*
X100007142Y-92033333D01*
X98864285Y-92033333D02*
X98864285Y-91100000D01*
X98864285Y-91366666D02*
X98792857Y-91233333D01*
X98721428Y-91166666D01*
X98578571Y-91100000D01*
X98435714Y-91100000D01*
X97935714Y-91500000D02*
X96792857Y-91500000D01*
X95435714Y-91966666D02*
X95578571Y-92033333D01*
X95864285Y-92033333D01*
X96007142Y-91966666D01*
X96078571Y-91900000D01*
X96149999Y-91766666D01*
X96149999Y-91366666D01*
X96078571Y-91233333D01*
X96007142Y-91166666D01*
X95864285Y-91100000D01*
X95578571Y-91100000D01*
X95435714Y-91166666D01*
X94578571Y-92033333D02*
X94721428Y-91966666D01*
X94792857Y-91900000D01*
X94864285Y-91766666D01*
X94864285Y-91366666D01*
X94792857Y-91233333D01*
X94721428Y-91166666D01*
X94578571Y-91100000D01*
X94364285Y-91100000D01*
X94221428Y-91166666D01*
X94149999Y-91233333D01*
X94078571Y-91366666D01*
X94078571Y-91766666D01*
X94149999Y-91900000D01*
X94221428Y-91966666D01*
X94364285Y-92033333D01*
X94578571Y-92033333D01*
X93435714Y-91100000D02*
X93435714Y-92033333D01*
X93435714Y-91233333D02*
X93364285Y-91166666D01*
X93221428Y-91100000D01*
X93007142Y-91100000D01*
X92864285Y-91166666D01*
X92792857Y-91300000D01*
X92792857Y-92033333D01*
X92292857Y-91100000D02*
X91721428Y-91100000D01*
X92078571Y-90633333D02*
X92078571Y-91833333D01*
X92007142Y-91966666D01*
X91864285Y-92033333D01*
X91721428Y-92033333D01*
X91221428Y-92033333D02*
X91221428Y-91100000D01*
X91221428Y-91366666D02*
X91149999Y-91233333D01*
X91078571Y-91166666D01*
X90935714Y-91100000D01*
X90792857Y-91100000D01*
X90078571Y-92033333D02*
X90221428Y-91966666D01*
X90292857Y-91900000D01*
X90364285Y-91766666D01*
X90364285Y-91366666D01*
X90292857Y-91233333D01*
X90221428Y-91166666D01*
X90078571Y-91100000D01*
X89864285Y-91100000D01*
X89721428Y-91166666D01*
X89649999Y-91233333D01*
X89578571Y-91366666D01*
X89578571Y-91766666D01*
X89649999Y-91900000D01*
X89721428Y-91966666D01*
X89864285Y-92033333D01*
X90078571Y-92033333D01*
X88721428Y-92033333D02*
X88864285Y-91966666D01*
X88935714Y-91833333D01*
X88935714Y-90633333D01*
X87935714Y-92033333D02*
X88078571Y-91966666D01*
X88149999Y-91833333D01*
X88149999Y-90633333D01*
X86792857Y-91966666D02*
X86935714Y-92033333D01*
X87221428Y-92033333D01*
X87364285Y-91966666D01*
X87435714Y-91833333D01*
X87435714Y-91300000D01*
X87364285Y-91166666D01*
X87221428Y-91100000D01*
X86935714Y-91100000D01*
X86792857Y-91166666D01*
X86721428Y-91300000D01*
X86721428Y-91433333D01*
X87435714Y-91566666D01*
X86078571Y-92033333D02*
X86078571Y-91100000D01*
X86078571Y-91366666D02*
X86007142Y-91233333D01*
X85935714Y-91166666D01*
X85792857Y-91100000D01*
X85649999Y-91100000D01*
X78015591Y-84179891D02*
X77948924Y-83965606D01*
X77948924Y-83608463D01*
X78015591Y-83465606D01*
X78082258Y-83394177D01*
X78215591Y-83322748D01*
X78348924Y-83322748D01*
X78482258Y-83394177D01*
X78548924Y-83465606D01*
X78615591Y-83608463D01*
X78682258Y-83894177D01*
X78748924Y-84037034D01*
X78815591Y-84108463D01*
X78948924Y-84179891D01*
X79082258Y-84179891D01*
X79215591Y-84108463D01*
X79282258Y-84037034D01*
X79348924Y-83894177D01*
X79348924Y-83537034D01*
X79282258Y-83322748D01*
X78015591Y-82108463D02*
X77948924Y-82251320D01*
X77948924Y-82537034D01*
X78015591Y-82679891D01*
X78148924Y-82751320D01*
X78682258Y-82751320D01*
X78815591Y-82679891D01*
X78882258Y-82537034D01*
X78882258Y-82251320D01*
X78815591Y-82108463D01*
X78682258Y-82037034D01*
X78548924Y-82037034D01*
X78415591Y-82751320D01*
X77948924Y-81394177D02*
X78882258Y-81394177D01*
X78615591Y-81394177D02*
X78748924Y-81322748D01*
X78815591Y-81251320D01*
X78882258Y-81108463D01*
X78882258Y-80965606D01*
X77948924Y-80465606D02*
X78882258Y-80465606D01*
X79348924Y-80465606D02*
X79282258Y-80537034D01*
X79215591Y-80465606D01*
X79282258Y-80394177D01*
X79348924Y-80465606D01*
X79215591Y-80465606D01*
X77948924Y-79108463D02*
X78682258Y-79108463D01*
X78815591Y-79179891D01*
X78882258Y-79322748D01*
X78882258Y-79608463D01*
X78815591Y-79751320D01*
X78015591Y-79108463D02*
X77948924Y-79251320D01*
X77948924Y-79608463D01*
X78015591Y-79751320D01*
X78148924Y-79822748D01*
X78282258Y-79822748D01*
X78415591Y-79751320D01*
X78482258Y-79608463D01*
X78482258Y-79251320D01*
X78548924Y-79108463D01*
X77948924Y-78179891D02*
X78015591Y-78322748D01*
X78148924Y-78394177D01*
X79348924Y-78394177D01*
X111271428Y-84666666D02*
X111271428Y-85333333D01*
X111771428Y-83933333D02*
X111271428Y-84666666D01*
X110771428Y-83933333D01*
X110057142Y-85333333D02*
X110200000Y-85266666D01*
X110271428Y-85200000D01*
X110342857Y-85066666D01*
X110342857Y-84666666D01*
X110271428Y-84533333D01*
X110200000Y-84466666D01*
X110057142Y-84400000D01*
X109842857Y-84400000D01*
X109700000Y-84466666D01*
X109628571Y-84533333D01*
X109557142Y-84666666D01*
X109557142Y-85066666D01*
X109628571Y-85200000D01*
X109700000Y-85266666D01*
X109842857Y-85333333D01*
X110057142Y-85333333D01*
X108271428Y-84400000D02*
X108271428Y-85333333D01*
X108914285Y-84400000D02*
X108914285Y-85133333D01*
X108842857Y-85266666D01*
X108700000Y-85333333D01*
X108485714Y-85333333D01*
X108342857Y-85266666D01*
X108271428Y-85200000D01*
X105771428Y-85266666D02*
X105914285Y-85333333D01*
X106200000Y-85333333D01*
X106342857Y-85266666D01*
X106414285Y-85200000D01*
X106485714Y-85066666D01*
X106485714Y-84666666D01*
X106414285Y-84533333D01*
X106342857Y-84466666D01*
X106200000Y-84400000D01*
X105914285Y-84400000D01*
X105771428Y-84466666D01*
X104485714Y-85333333D02*
X104485714Y-84600000D01*
X104557142Y-84466666D01*
X104700000Y-84400000D01*
X104985714Y-84400000D01*
X105128571Y-84466666D01*
X104485714Y-85266666D02*
X104628571Y-85333333D01*
X104985714Y-85333333D01*
X105128571Y-85266666D01*
X105200000Y-85133333D01*
X105200000Y-85000000D01*
X105128571Y-84866666D01*
X104985714Y-84800000D01*
X104628571Y-84800000D01*
X104485714Y-84733333D01*
X103771428Y-84400000D02*
X103771428Y-85333333D01*
X103771428Y-84533333D02*
X103700000Y-84466666D01*
X103557142Y-84400000D01*
X103342857Y-84400000D01*
X103200000Y-84466666D01*
X103128571Y-84600000D01*
X103128571Y-85333333D01*
X100628571Y-85333333D02*
X100628571Y-83933333D01*
X100628571Y-85266666D02*
X100771428Y-85333333D01*
X101057142Y-85333333D01*
X101200000Y-85266666D01*
X101271428Y-85200000D01*
X101342857Y-85066666D01*
X101342857Y-84666666D01*
X101271428Y-84533333D01*
X101200000Y-84466666D01*
X101057142Y-84400000D01*
X100771428Y-84400000D01*
X100628571Y-84466666D01*
X99700000Y-85333333D02*
X99842857Y-85266666D01*
X99914285Y-85200000D01*
X99985714Y-85066666D01*
X99985714Y-84666666D01*
X99914285Y-84533333D01*
X99842857Y-84466666D01*
X99700000Y-84400000D01*
X99485714Y-84400000D01*
X99342857Y-84466666D01*
X99271428Y-84533333D01*
X99200000Y-84666666D01*
X99200000Y-85066666D01*
X99271428Y-85200000D01*
X99342857Y-85266666D01*
X99485714Y-85333333D01*
X99700000Y-85333333D01*
X97414285Y-85333333D02*
X97414285Y-84400000D01*
X97414285Y-83933333D02*
X97485714Y-84000000D01*
X97414285Y-84066666D01*
X97342857Y-84000000D01*
X97414285Y-83933333D01*
X97414285Y-84066666D01*
X96914285Y-84400000D02*
X96342857Y-84400000D01*
X96700000Y-83933333D02*
X96700000Y-85133333D01*
X96628571Y-85266666D01*
X96485714Y-85333333D01*
X96342857Y-85333333D01*
X95842857Y-85200000D02*
X95771428Y-85266666D01*
X95842857Y-85333333D01*
X95914285Y-85266666D01*
X95842857Y-85200000D01*
X95842857Y-85333333D01*
X95842857Y-84800000D02*
X95914285Y-84000000D01*
X95842857Y-83933333D01*
X95771428Y-84000000D01*
X95842857Y-84800000D01*
X95842857Y-83933333D01*
X149383333Y-97121428D02*
X150783333Y-97478571D01*
X149783333Y-97764285D01*
X150783333Y-98050000D01*
X149383333Y-98407142D01*
X150716666Y-99550000D02*
X150783333Y-99407142D01*
X150783333Y-99121428D01*
X150716666Y-98978571D01*
X150583333Y-98907142D01*
X150050000Y-98907142D01*
X149916666Y-98978571D01*
X149850000Y-99121428D01*
X149850000Y-99407142D01*
X149916666Y-99550000D01*
X150050000Y-99621428D01*
X150183333Y-99621428D01*
X150316666Y-98907142D01*
X150783333Y-102050000D02*
X150050000Y-102050000D01*
X149916666Y-101978571D01*
X149850000Y-101835714D01*
X149850000Y-101550000D01*
X149916666Y-101407142D01*
X150716666Y-102050000D02*
X150783333Y-101907142D01*
X150783333Y-101550000D01*
X150716666Y-101407142D01*
X150583333Y-101335714D01*
X150450000Y-101335714D01*
X150316666Y-101407142D01*
X150250000Y-101550000D01*
X150250000Y-101907142D01*
X150183333Y-102050000D01*
X150783333Y-102764285D02*
X149850000Y-102764285D01*
X150116666Y-102764285D02*
X149983333Y-102835714D01*
X149916666Y-102907142D01*
X149850000Y-103050000D01*
X149850000Y-103192857D01*
X150716666Y-104264285D02*
X150783333Y-104121428D01*
X150783333Y-103835714D01*
X150716666Y-103692857D01*
X150583333Y-103621428D01*
X150050000Y-103621428D01*
X149916666Y-103692857D01*
X149850000Y-103835714D01*
X149850000Y-104121428D01*
X149916666Y-104264285D01*
X150050000Y-104335714D01*
X150183333Y-104335714D01*
X150316666Y-103621428D01*
X150783333Y-106764285D02*
X150050000Y-106764285D01*
X149916666Y-106692857D01*
X149850000Y-106550000D01*
X149850000Y-106264285D01*
X149916666Y-106121428D01*
X150716666Y-106764285D02*
X150783333Y-106621428D01*
X150783333Y-106264285D01*
X150716666Y-106121428D01*
X150583333Y-106050000D01*
X150450000Y-106050000D01*
X150316666Y-106121428D01*
X150250000Y-106264285D01*
X150250000Y-106621428D01*
X150183333Y-106764285D01*
X150783333Y-107692857D02*
X150716666Y-107550000D01*
X150583333Y-107478571D01*
X149383333Y-107478571D01*
X150783333Y-108478571D02*
X150716666Y-108335714D01*
X150583333Y-108264285D01*
X149383333Y-108264285D01*
X150716666Y-110121428D02*
X150783333Y-110264285D01*
X150783333Y-110550000D01*
X150716666Y-110692857D01*
X150583333Y-110764285D01*
X150516666Y-110764285D01*
X150383333Y-110692857D01*
X150316666Y-110550000D01*
X150316666Y-110335714D01*
X150250000Y-110192857D01*
X150116666Y-110121428D01*
X150050000Y-110121428D01*
X149916666Y-110192857D01*
X149850000Y-110335714D01*
X149850000Y-110550000D01*
X149916666Y-110692857D01*
X149850000Y-111192857D02*
X149850000Y-111764285D01*
X149383333Y-111407142D02*
X150583333Y-111407142D01*
X150716666Y-111478571D01*
X150783333Y-111621428D01*
X150783333Y-111764285D01*
X150783333Y-112907142D02*
X150050000Y-112907142D01*
X149916666Y-112835714D01*
X149850000Y-112692857D01*
X149850000Y-112407142D01*
X149916666Y-112264285D01*
X150716666Y-112907142D02*
X150783333Y-112764285D01*
X150783333Y-112407142D01*
X150716666Y-112264285D01*
X150583333Y-112192857D01*
X150450000Y-112192857D01*
X150316666Y-112264285D01*
X150250000Y-112407142D01*
X150250000Y-112764285D01*
X150183333Y-112907142D01*
X150783333Y-113621428D02*
X149850000Y-113621428D01*
X150116666Y-113621428D02*
X149983333Y-113692857D01*
X149916666Y-113764285D01*
X149850000Y-113907142D01*
X149850000Y-114050000D01*
X150716666Y-115621428D02*
X150783333Y-115764285D01*
X150783333Y-116050000D01*
X150716666Y-116192857D01*
X150583333Y-116264285D01*
X150516666Y-116264285D01*
X150383333Y-116192857D01*
X150316666Y-116050000D01*
X150316666Y-115835714D01*
X150250000Y-115692857D01*
X150116666Y-115621428D01*
X150050000Y-115621428D01*
X149916666Y-115692857D01*
X149850000Y-115835714D01*
X149850000Y-116050000D01*
X149916666Y-116192857D01*
X149850000Y-116692857D02*
X149850000Y-117264285D01*
X149383333Y-116907142D02*
X150583333Y-116907142D01*
X150716666Y-116978571D01*
X150783333Y-117121428D01*
X150783333Y-117264285D01*
X149850000Y-118407142D02*
X150783333Y-118407142D01*
X149850000Y-117764285D02*
X150583333Y-117764285D01*
X150716666Y-117835714D01*
X150783333Y-117978571D01*
X150783333Y-118192857D01*
X150716666Y-118335714D01*
X150650000Y-118407142D01*
X149850000Y-118907142D02*
X149850000Y-119478571D01*
X150783333Y-119121428D02*
X149583333Y-119121428D01*
X149450000Y-119192857D01*
X149383333Y-119335714D01*
X149383333Y-119478571D01*
X149850000Y-119764285D02*
X149850000Y-120335714D01*
X150783333Y-119978571D02*
X149583333Y-119978571D01*
X149450000Y-120050000D01*
X149383333Y-120192857D01*
X149383333Y-120335714D01*
X150650000Y-120835714D02*
X150716666Y-120907142D01*
X150783333Y-120835714D01*
X150716666Y-120764285D01*
X150650000Y-120835714D01*
X150783333Y-120835714D01*
D12*
X155485714Y-95154761D02*
X156152380Y-94202380D01*
X156628571Y-95154761D02*
X156628571Y-93154761D01*
X155866666Y-93154761D01*
X155676190Y-93250000D01*
X155580952Y-93345238D01*
X155485714Y-93535714D01*
X155485714Y-93821428D01*
X155580952Y-94011904D01*
X155676190Y-94107142D01*
X155866666Y-94202380D01*
X156628571Y-94202380D01*
X154628571Y-95154761D02*
X154628571Y-93154761D01*
X153866666Y-93154761D01*
X153676190Y-93250000D01*
X153580952Y-93345238D01*
X153485714Y-93535714D01*
X153485714Y-93821428D01*
X153580952Y-94011904D01*
X153676190Y-94107142D01*
X153866666Y-94202380D01*
X154628571Y-94202380D01*
X152723809Y-93345238D02*
X152628571Y-93250000D01*
X152438095Y-93154761D01*
X151961904Y-93154761D01*
X151771428Y-93250000D01*
X151676190Y-93345238D01*
X151580952Y-93535714D01*
X151580952Y-93726190D01*
X151676190Y-94011904D01*
X152819047Y-95154761D01*
X151580952Y-95154761D01*
X150342857Y-93154761D02*
X150152380Y-93154761D01*
X149961904Y-93250000D01*
X149866666Y-93345238D01*
X149771428Y-93535714D01*
X149676190Y-93916666D01*
X149676190Y-94392857D01*
X149771428Y-94773809D01*
X149866666Y-94964285D01*
X149961904Y-95059523D01*
X150152380Y-95154761D01*
X150342857Y-95154761D01*
X150533333Y-95059523D01*
X150628571Y-94964285D01*
X150723809Y-94773809D01*
X150819047Y-94392857D01*
X150819047Y-93916666D01*
X150723809Y-93535714D01*
X150628571Y-93345238D01*
X150533333Y-93250000D01*
X150342857Y-93154761D01*
X147961904Y-93821428D02*
X147961904Y-95154761D01*
X148438095Y-93059523D02*
X148914285Y-94488095D01*
X147676190Y-94488095D01*
X146533333Y-93154761D02*
X146342857Y-93154761D01*
X146152380Y-93250000D01*
X146057142Y-93345238D01*
X145961904Y-93535714D01*
X145866666Y-93916666D01*
X145866666Y-94392857D01*
X145961904Y-94773809D01*
X146057142Y-94964285D01*
X146152380Y-95059523D01*
X146342857Y-95154761D01*
X146533333Y-95154761D01*
X146723809Y-95059523D01*
X146819047Y-94964285D01*
X146914285Y-94773809D01*
X147009523Y-94392857D01*
X147009523Y-93916666D01*
X146914285Y-93535714D01*
X146819047Y-93345238D01*
X146723809Y-93250000D01*
X146533333Y-93154761D01*
X142819047Y-94107142D02*
X142533333Y-94202380D01*
X142438095Y-94297619D01*
X142342857Y-94488095D01*
X142342857Y-94773809D01*
X142438095Y-94964285D01*
X142533333Y-95059523D01*
X142723809Y-95154761D01*
X143485714Y-95154761D01*
X143485714Y-93154761D01*
X142819047Y-93154761D01*
X142628571Y-93250000D01*
X142533333Y-93345238D01*
X142438095Y-93535714D01*
X142438095Y-93726190D01*
X142533333Y-93916666D01*
X142628571Y-94011904D01*
X142819047Y-94107142D01*
X143485714Y-94107142D01*
X141485714Y-95154761D02*
X141485714Y-93821428D01*
X141485714Y-94202380D02*
X141390476Y-94011904D01*
X141295238Y-93916666D01*
X141104761Y-93821428D01*
X140914285Y-93821428D01*
X139390476Y-93821428D02*
X139390476Y-95154761D01*
X140247619Y-93821428D02*
X140247619Y-94869047D01*
X140152380Y-95059523D01*
X139961904Y-95154761D01*
X139676190Y-95154761D01*
X139485714Y-95059523D01*
X139390476Y-94964285D01*
X138533333Y-95059523D02*
X138342857Y-95154761D01*
X137961904Y-95154761D01*
X137771428Y-95059523D01*
X137676190Y-94869047D01*
X137676190Y-94773809D01*
X137771428Y-94583333D01*
X137961904Y-94488095D01*
X138247619Y-94488095D01*
X138438095Y-94392857D01*
X138533333Y-94202380D01*
X138533333Y-94107142D01*
X138438095Y-93916666D01*
X138247619Y-93821428D01*
X137961904Y-93821428D01*
X137771428Y-93916666D01*
X136819047Y-95154761D02*
X136819047Y-93154761D01*
X135961904Y-95154761D02*
X135961904Y-94107142D01*
X136057142Y-93916666D01*
X136247619Y-93821428D01*
X136533333Y-93821428D01*
X136723809Y-93916666D01*
X136819047Y-94011904D01*
X134723809Y-95154761D02*
X134914285Y-95059523D01*
X135009523Y-94869047D01*
X135009523Y-93154761D01*
X133200000Y-95059523D02*
X133390476Y-95154761D01*
X133771428Y-95154761D01*
X133961904Y-95059523D01*
X134057142Y-94869047D01*
X134057142Y-94107142D01*
X133961904Y-93916666D01*
X133771428Y-93821428D01*
X133390476Y-93821428D01*
X133200000Y-93916666D01*
X133104761Y-94107142D01*
X133104761Y-94297619D01*
X134057142Y-94488095D01*
X132342857Y-95059523D02*
X132152380Y-95154761D01*
X131771428Y-95154761D01*
X131580952Y-95059523D01*
X131485714Y-94869047D01*
X131485714Y-94773809D01*
X131580952Y-94583333D01*
X131771428Y-94488095D01*
X132057142Y-94488095D01*
X132247619Y-94392857D01*
X132342857Y-94202380D01*
X132342857Y-94107142D01*
X132247619Y-93916666D01*
X132057142Y-93821428D01*
X131771428Y-93821428D01*
X131580952Y-93916666D01*
X130723809Y-95059523D02*
X130533333Y-95154761D01*
X130152380Y-95154761D01*
X129961904Y-95059523D01*
X129866666Y-94869047D01*
X129866666Y-94773809D01*
X129961904Y-94583333D01*
X130152380Y-94488095D01*
X130438095Y-94488095D01*
X130628571Y-94392857D01*
X130723809Y-94202380D01*
X130723809Y-94107142D01*
X130628571Y-93916666D01*
X130438095Y-93821428D01*
X130152380Y-93821428D01*
X129961904Y-93916666D01*
X127485714Y-95154761D02*
X127485714Y-93154761D01*
X126819047Y-94583333D01*
X126152380Y-93154761D01*
X126152380Y-95154761D01*
X124914285Y-95154761D02*
X125104761Y-95059523D01*
X125200000Y-94964285D01*
X125295238Y-94773809D01*
X125295238Y-94202380D01*
X125200000Y-94011904D01*
X125104761Y-93916666D01*
X124914285Y-93821428D01*
X124628571Y-93821428D01*
X124438095Y-93916666D01*
X124342857Y-94011904D01*
X124247619Y-94202380D01*
X124247619Y-94773809D01*
X124342857Y-94964285D01*
X124438095Y-95059523D01*
X124628571Y-95154761D01*
X124914285Y-95154761D01*
X123676190Y-93821428D02*
X122914285Y-93821428D01*
X123390476Y-93154761D02*
X123390476Y-94869047D01*
X123295238Y-95059523D01*
X123104761Y-95154761D01*
X122914285Y-95154761D01*
X121961904Y-95154761D02*
X122152380Y-95059523D01*
X122247619Y-94964285D01*
X122342857Y-94773809D01*
X122342857Y-94202380D01*
X122247619Y-94011904D01*
X122152380Y-93916666D01*
X121961904Y-93821428D01*
X121676190Y-93821428D01*
X121485714Y-93916666D01*
X121390476Y-94011904D01*
X121295238Y-94202380D01*
X121295238Y-94773809D01*
X121390476Y-94964285D01*
X121485714Y-95059523D01*
X121676190Y-95154761D01*
X121961904Y-95154761D01*
X120438095Y-95154761D02*
X120438095Y-93821428D01*
X120438095Y-94202380D02*
X120342857Y-94011904D01*
X120247619Y-93916666D01*
X120057142Y-93821428D01*
X119866666Y-93821428D01*
X116533333Y-94964285D02*
X116628571Y-95059523D01*
X116914285Y-95154761D01*
X117104761Y-95154761D01*
X117390476Y-95059523D01*
X117580952Y-94869047D01*
X117676190Y-94678571D01*
X117771428Y-94297619D01*
X117771428Y-94011904D01*
X117676190Y-93630952D01*
X117580952Y-93440476D01*
X117390476Y-93250000D01*
X117104761Y-93154761D01*
X116914285Y-93154761D01*
X116628571Y-93250000D01*
X116533333Y-93345238D01*
X115390476Y-95154761D02*
X115580952Y-95059523D01*
X115676190Y-94964285D01*
X115771428Y-94773809D01*
X115771428Y-94202380D01*
X115676190Y-94011904D01*
X115580952Y-93916666D01*
X115390476Y-93821428D01*
X115104761Y-93821428D01*
X114914285Y-93916666D01*
X114819047Y-94011904D01*
X114723809Y-94202380D01*
X114723809Y-94773809D01*
X114819047Y-94964285D01*
X114914285Y-95059523D01*
X115104761Y-95154761D01*
X115390476Y-95154761D01*
X113866666Y-93821428D02*
X113866666Y-95154761D01*
X113866666Y-94011904D02*
X113771428Y-93916666D01*
X113580952Y-93821428D01*
X113295238Y-93821428D01*
X113104761Y-93916666D01*
X113009523Y-94107142D01*
X113009523Y-95154761D01*
X112342857Y-93821428D02*
X111580952Y-93821428D01*
X112057142Y-93154761D02*
X112057142Y-94869047D01*
X111961904Y-95059523D01*
X111771428Y-95154761D01*
X111580952Y-95154761D01*
X110914285Y-95154761D02*
X110914285Y-93821428D01*
X110914285Y-94202380D02*
X110819047Y-94011904D01*
X110723809Y-93916666D01*
X110533333Y-93821428D01*
X110342857Y-93821428D01*
X109390476Y-95154761D02*
X109580952Y-95059523D01*
X109676190Y-94964285D01*
X109771428Y-94773809D01*
X109771428Y-94202380D01*
X109676190Y-94011904D01*
X109580952Y-93916666D01*
X109390476Y-93821428D01*
X109104761Y-93821428D01*
X108914285Y-93916666D01*
X108819047Y-94011904D01*
X108723809Y-94202380D01*
X108723809Y-94773809D01*
X108819047Y-94964285D01*
X108914285Y-95059523D01*
X109104761Y-95154761D01*
X109390476Y-95154761D01*
X107580952Y-95154761D02*
X107771428Y-95059523D01*
X107866666Y-94869047D01*
X107866666Y-93154761D01*
X106533333Y-95154761D02*
X106723809Y-95059523D01*
X106819047Y-94869047D01*
X106819047Y-93154761D01*
X105009523Y-95059523D02*
X105200000Y-95154761D01*
X105580952Y-95154761D01*
X105771428Y-95059523D01*
X105866666Y-94869047D01*
X105866666Y-94107142D01*
X105771428Y-93916666D01*
X105580952Y-93821428D01*
X105200000Y-93821428D01*
X105009523Y-93916666D01*
X104914285Y-94107142D01*
X104914285Y-94297619D01*
X105866666Y-94488095D01*
X104057142Y-95154761D02*
X104057142Y-93821428D01*
X104057142Y-94202380D02*
X103961904Y-94011904D01*
X103866666Y-93916666D01*
X103676190Y-93821428D01*
X103485714Y-93821428D01*
G36*
X123777187Y-85616071D02*
G01*
X123875575Y-85647298D01*
X123965439Y-85705540D01*
X124057892Y-85796094D01*
X124123778Y-85877568D01*
X124179403Y-85972968D01*
X124215386Y-86078178D01*
X124234876Y-86202833D01*
X124241019Y-86356563D01*
X124241073Y-86401818D01*
X124239782Y-86490871D01*
X124234938Y-86555664D01*
X124224641Y-86607433D01*
X124206990Y-86657415D01*
X124180085Y-86716847D01*
X124154287Y-86764624D01*
X124094083Y-86856777D01*
X124013953Y-86964496D01*
X123919249Y-87080322D01*
X123892036Y-87112534D01*
X123817980Y-87203403D01*
X123751146Y-87289769D01*
X123697975Y-87363152D01*
X123664911Y-87415072D01*
X123620491Y-87512410D01*
X123576403Y-87672001D01*
X123560488Y-87837513D01*
X123573461Y-87998268D01*
X123616040Y-88143591D01*
X123621105Y-88155043D01*
X123677035Y-88246365D01*
X123745242Y-88300355D01*
X123827051Y-88318108D01*
X123838585Y-88317595D01*
X123908497Y-88292712D01*
X123972950Y-88234730D01*
X124028736Y-88149587D01*
X124072647Y-88043222D01*
X124101475Y-87921575D01*
X124112010Y-87790586D01*
X124117284Y-87696508D01*
X124136495Y-87622740D01*
X124171786Y-87579114D01*
X124225250Y-87561388D01*
X124228525Y-87561096D01*
X124285183Y-87569057D01*
X124323356Y-87605685D01*
X124344823Y-87674028D01*
X124351368Y-87777132D01*
X124350205Y-87830056D01*
X124330784Y-88007161D01*
X124289282Y-88168835D01*
X124228062Y-88310428D01*
X124149485Y-88427286D01*
X124055914Y-88514758D01*
X123949709Y-88568193D01*
X123934854Y-88572700D01*
X123835233Y-88593433D01*
X123741174Y-88591546D01*
X123633446Y-88566965D01*
X123564987Y-88540571D01*
X123451031Y-88466060D01*
X123353554Y-88362344D01*
X123274085Y-88234764D01*
X123214155Y-88088663D01*
X123175294Y-87929381D01*
X123159033Y-87762260D01*
X123166900Y-87592642D01*
X123200426Y-87425868D01*
X123261142Y-87267281D01*
X123280497Y-87230724D01*
X123334031Y-87142901D01*
X123399118Y-87047720D01*
X123465752Y-86960202D01*
X123575205Y-86822153D01*
X123672643Y-86691127D01*
X123749205Y-86578567D01*
X123802567Y-86487898D01*
X123830408Y-86422543D01*
X123839192Y-86383849D01*
X123849928Y-86288335D01*
X123849929Y-86187822D01*
X123839608Y-86096939D01*
X123819376Y-86030313D01*
X123795849Y-85988566D01*
X123737287Y-85917346D01*
X123674736Y-85880017D01*
X123612235Y-85878348D01*
X123553825Y-85914105D01*
X123548649Y-85919869D01*
X123519537Y-85974067D01*
X123494990Y-86054083D01*
X123478039Y-86147777D01*
X123471715Y-86243008D01*
X123469739Y-86282653D01*
X123448961Y-86358123D01*
X123406829Y-86402193D01*
X123344933Y-86412732D01*
X123338913Y-86412062D01*
X123290388Y-86396992D01*
X123258518Y-86362914D01*
X123241793Y-86304933D01*
X123238703Y-86218149D01*
X123247735Y-86097666D01*
X123253065Y-86051875D01*
X123278793Y-85910997D01*
X123316675Y-85802200D01*
X123369050Y-85720099D01*
X123438258Y-85659311D01*
X123471128Y-85639060D01*
X123520089Y-85618283D01*
X123577984Y-85608675D01*
X123660255Y-85606567D01*
X123777187Y-85616071D01*
G37*
G36*
X131311974Y-85635007D02*
G01*
X131344815Y-85635996D01*
X131393291Y-85637669D01*
X131451849Y-85649616D01*
X131491715Y-85676028D01*
X131492566Y-85676883D01*
X131500229Y-85685659D01*
X131506822Y-85697237D01*
X131512423Y-85714481D01*
X131517115Y-85740254D01*
X131520977Y-85777420D01*
X131524091Y-85828844D01*
X131526536Y-85897388D01*
X131528394Y-85985917D01*
X131529745Y-86097295D01*
X131530669Y-86234385D01*
X131531248Y-86400052D01*
X131531561Y-86597158D01*
X131531690Y-86828569D01*
X131531715Y-87097147D01*
X131531715Y-87126505D01*
X131531683Y-87391137D01*
X131531539Y-87618895D01*
X131531202Y-87812643D01*
X131530592Y-87975244D01*
X131529627Y-88109564D01*
X131528228Y-88218465D01*
X131526314Y-88304811D01*
X131523803Y-88371467D01*
X131520617Y-88421295D01*
X131516673Y-88457160D01*
X131511892Y-88481926D01*
X131506192Y-88498456D01*
X131499494Y-88509615D01*
X131491715Y-88518266D01*
X131473332Y-88533464D01*
X131423803Y-88552681D01*
X131348290Y-88558297D01*
X131346888Y-88558299D01*
X131313484Y-88559423D01*
X131284592Y-88560775D01*
X131259886Y-88559670D01*
X131239040Y-88553424D01*
X131221731Y-88539354D01*
X131207632Y-88514777D01*
X131196419Y-88477007D01*
X131187767Y-88423362D01*
X131181350Y-88351158D01*
X131176843Y-88257710D01*
X131173922Y-88140336D01*
X131172261Y-87996350D01*
X131171534Y-87823070D01*
X131171418Y-87617812D01*
X131171587Y-87377891D01*
X131171715Y-87100624D01*
X131171715Y-87097890D01*
X131171597Y-86820371D01*
X131171459Y-86580179D01*
X131171617Y-86374632D01*
X131172390Y-86201052D01*
X131174093Y-86056757D01*
X131177043Y-85939070D01*
X131181557Y-85845309D01*
X131187952Y-85772794D01*
X131196543Y-85718847D01*
X131207649Y-85680788D01*
X131221586Y-85655936D01*
X131238670Y-85641611D01*
X131259218Y-85635135D01*
X131283547Y-85633827D01*
X131311974Y-85635007D01*
G37*
G36*
X129779647Y-85636002D02*
G01*
X129909793Y-85636357D01*
X130006684Y-85637635D01*
X130076016Y-85640356D01*
X130123487Y-85645037D01*
X130154796Y-85652197D01*
X130175640Y-85662354D01*
X130191715Y-85676028D01*
X130191739Y-85676052D01*
X130199564Y-85684764D01*
X130206294Y-85696008D01*
X130212014Y-85712670D01*
X130216804Y-85737633D01*
X130220748Y-85773782D01*
X130223928Y-85824002D01*
X130226425Y-85891176D01*
X130228322Y-85978191D01*
X130229702Y-86087930D01*
X130230646Y-86223277D01*
X130231237Y-86387118D01*
X130231558Y-86582337D01*
X130231690Y-86811818D01*
X130231715Y-87078447D01*
X130231715Y-87081560D01*
X130231653Y-87353936D01*
X130231378Y-87589142D01*
X130230760Y-87790010D01*
X130229668Y-87959371D01*
X130227969Y-88100056D01*
X130225534Y-88214896D01*
X130222229Y-88306723D01*
X130217923Y-88378369D01*
X130212486Y-88432664D01*
X130205786Y-88472439D01*
X130197690Y-88500528D01*
X130188069Y-88519759D01*
X130176790Y-88532966D01*
X130163721Y-88542979D01*
X130159950Y-88544326D01*
X130123464Y-88548603D01*
X130055089Y-88552320D01*
X129961079Y-88555265D01*
X129847687Y-88557226D01*
X129721166Y-88557991D01*
X129700102Y-88558000D01*
X129548616Y-88557351D01*
X129432035Y-88554613D01*
X129345827Y-88548656D01*
X129285458Y-88538351D01*
X129246396Y-88522569D01*
X129224107Y-88500180D01*
X129214058Y-88470054D01*
X129211715Y-88431063D01*
X129212499Y-88403326D01*
X129219433Y-88369356D01*
X129238271Y-88345830D01*
X129274632Y-88330846D01*
X129334131Y-88322500D01*
X129422385Y-88318889D01*
X129545012Y-88318108D01*
X129546028Y-88318108D01*
X129658543Y-88317711D01*
X129737671Y-88315964D01*
X129789969Y-88312019D01*
X129821997Y-88305029D01*
X129840313Y-88294147D01*
X129851475Y-88278526D01*
X129854140Y-88271558D01*
X129861416Y-88223628D01*
X129866111Y-88140491D01*
X129868080Y-88025801D01*
X129867179Y-87883215D01*
X129861715Y-87527485D01*
X129645036Y-87517478D01*
X129571013Y-87513604D01*
X129496049Y-87507386D01*
X129447752Y-87498851D01*
X129418342Y-87486445D01*
X129400036Y-87468616D01*
X129382862Y-87439707D01*
X129375016Y-87379995D01*
X129406715Y-87319792D01*
X129423447Y-87303189D01*
X129449788Y-87289516D01*
X129491037Y-87280925D01*
X129555558Y-87275804D01*
X129651715Y-87272540D01*
X129861715Y-87267281D01*
X129866990Y-86610961D01*
X129867844Y-86466302D01*
X129867745Y-86281034D01*
X129866021Y-86132492D01*
X129862690Y-86021496D01*
X129857773Y-85948864D01*
X129851286Y-85915414D01*
X129845758Y-85906381D01*
X129830493Y-85892756D01*
X129803588Y-85883956D01*
X129757954Y-85878950D01*
X129686503Y-85876704D01*
X129582146Y-85876185D01*
X129504336Y-85875993D01*
X129424326Y-85874499D01*
X129371595Y-85870505D01*
X129338721Y-85862828D01*
X129318281Y-85850288D01*
X129302850Y-85831700D01*
X129280360Y-85790414D01*
X129276549Y-85731326D01*
X129311715Y-85676028D01*
X129314566Y-85673233D01*
X129331089Y-85660243D01*
X129353426Y-85650675D01*
X129387272Y-85644008D01*
X129438327Y-85639725D01*
X129512287Y-85637308D01*
X129614851Y-85636238D01*
X129751715Y-85635996D01*
X129779647Y-85636002D01*
G37*
G36*
X126369042Y-88507113D02*
G01*
X126325570Y-88562422D01*
X126103643Y-88555015D01*
X126010628Y-88551069D01*
X125932433Y-88544308D01*
X125871326Y-88532824D01*
X125815142Y-88514238D01*
X125751715Y-88486169D01*
X125682411Y-88449155D01*
X125536797Y-88339219D01*
X125408723Y-88194692D01*
X125299122Y-88016968D01*
X125208923Y-87807445D01*
X125139057Y-87567517D01*
X125136029Y-87554254D01*
X125123735Y-87491322D01*
X125114730Y-87423885D01*
X125108586Y-87344840D01*
X125104880Y-87247086D01*
X125103184Y-87123522D01*
X125103074Y-86967044D01*
X125103127Y-86957142D01*
X125475084Y-86957142D01*
X125481407Y-87196987D01*
X125502260Y-87422019D01*
X125536696Y-87628746D01*
X125583769Y-87813680D01*
X125642536Y-87973331D01*
X125712050Y-88104210D01*
X125791366Y-88202827D01*
X125879539Y-88265693D01*
X125886504Y-88268903D01*
X125943722Y-88289620D01*
X125989894Y-88298092D01*
X126032028Y-88298092D01*
X126026872Y-87092143D01*
X126021715Y-85886193D01*
X125923038Y-85892586D01*
X125846907Y-85903646D01*
X125753175Y-85940297D01*
X125674901Y-86003433D01*
X125611060Y-86095128D01*
X125560625Y-86217458D01*
X125522569Y-86372498D01*
X125495866Y-86562322D01*
X125479488Y-86789006D01*
X125475084Y-86957142D01*
X125103127Y-86957142D01*
X125103772Y-86836409D01*
X125105530Y-86714746D01*
X125108802Y-86620073D01*
X125114110Y-86545358D01*
X125121978Y-86483571D01*
X125132930Y-86427681D01*
X125147491Y-86370656D01*
X125182225Y-86258570D01*
X125264483Y-86066554D01*
X125365951Y-85909523D01*
X125486579Y-85787547D01*
X125626317Y-85700695D01*
X125668404Y-85682160D01*
X125714532Y-85666097D01*
X125765017Y-85655182D01*
X125828768Y-85648082D01*
X125914698Y-85643461D01*
X126031715Y-85639986D01*
X126042728Y-85639718D01*
X126159502Y-85637758D01*
X126243326Y-85638641D01*
X126300661Y-85642813D01*
X126337971Y-85650722D01*
X126361715Y-85662814D01*
X126362516Y-85663418D01*
X126370194Y-85670262D01*
X126376814Y-85680156D01*
X126382469Y-85695946D01*
X126387249Y-85720476D01*
X126391246Y-85756590D01*
X126394552Y-85807134D01*
X126397259Y-85874953D01*
X126399457Y-85962889D01*
X126401240Y-86073790D01*
X126402698Y-86210498D01*
X126403922Y-86375859D01*
X126405006Y-86572717D01*
X126406039Y-86803917D01*
X126407115Y-87072304D01*
X126411912Y-88298092D01*
X126412514Y-88451803D01*
X126369042Y-88507113D01*
G37*
G36*
X132918244Y-85636429D02*
G01*
X133042380Y-85637629D01*
X133151155Y-85639921D01*
X133238410Y-85643102D01*
X133297985Y-85646968D01*
X133323721Y-85651314D01*
X133336113Y-85660715D01*
X133347536Y-85673724D01*
X133357279Y-85692627D01*
X133365477Y-85720268D01*
X133372261Y-85759492D01*
X133377765Y-85813143D01*
X133382123Y-85884068D01*
X133385467Y-85975109D01*
X133387931Y-86089114D01*
X133389649Y-86228925D01*
X133390753Y-86397388D01*
X133391377Y-86597349D01*
X133391653Y-86831651D01*
X133391715Y-87103139D01*
X133391715Y-87121773D01*
X133391690Y-87384477D01*
X133391560Y-87610268D01*
X133391236Y-87802072D01*
X133390635Y-87962814D01*
X133389668Y-88095421D01*
X133388249Y-88202818D01*
X133386293Y-88287932D01*
X133383711Y-88353687D01*
X133380419Y-88403011D01*
X133376329Y-88438829D01*
X133371355Y-88464067D01*
X133365411Y-88481650D01*
X133358409Y-88494505D01*
X133350264Y-88505558D01*
X133343165Y-88514291D01*
X133311543Y-88542297D01*
X133269897Y-88555186D01*
X133203364Y-88558297D01*
X133193122Y-88558293D01*
X133142426Y-88557096D01*
X133102870Y-88550746D01*
X133072998Y-88534882D01*
X133051356Y-88505145D01*
X133036491Y-88457177D01*
X133026948Y-88386617D01*
X133021272Y-88289106D01*
X133018009Y-88160286D01*
X133015705Y-87995796D01*
X133009695Y-87517478D01*
X132799390Y-87517478D01*
X132735192Y-87516592D01*
X132651486Y-87512600D01*
X132587233Y-87506129D01*
X132552701Y-87497990D01*
X132542165Y-87491240D01*
X132509141Y-87445102D01*
X132501221Y-87384516D01*
X132521264Y-87325208D01*
X132530646Y-87311777D01*
X132547756Y-87295549D01*
X132573699Y-87285416D01*
X132616265Y-87279947D01*
X132683247Y-87277715D01*
X132782436Y-87277288D01*
X133012234Y-87277288D01*
X133006975Y-86581741D01*
X133001715Y-85886193D01*
X132713076Y-85880617D01*
X132699519Y-85880337D01*
X132585221Y-85876338D01*
X132492871Y-85870124D01*
X132428484Y-85862218D01*
X132398076Y-85853147D01*
X132383241Y-85832661D01*
X132372683Y-85780118D01*
X132380097Y-85720793D01*
X132404815Y-85672600D01*
X132408147Y-85669100D01*
X132423364Y-85657804D01*
X132446613Y-85649406D01*
X132483222Y-85643487D01*
X132538520Y-85639634D01*
X132617833Y-85637429D01*
X132726489Y-85636457D01*
X132869815Y-85636303D01*
X132918244Y-85636429D01*
G37*
G36*
X128161791Y-85649009D02*
G01*
X128211715Y-85676028D01*
X128212566Y-85676883D01*
X128220229Y-85685659D01*
X128226822Y-85697237D01*
X128232423Y-85714481D01*
X128237115Y-85740254D01*
X128240977Y-85777420D01*
X128244091Y-85828844D01*
X128246536Y-85897388D01*
X128248394Y-85985917D01*
X128249745Y-86097295D01*
X128250669Y-86234385D01*
X128251248Y-86400052D01*
X128251561Y-86597158D01*
X128251690Y-86828569D01*
X128251715Y-87097147D01*
X128251715Y-87126505D01*
X128251683Y-87391137D01*
X128251539Y-87618895D01*
X128251202Y-87812643D01*
X128250592Y-87975244D01*
X128249627Y-88109564D01*
X128248228Y-88218465D01*
X128246314Y-88304811D01*
X128243803Y-88371467D01*
X128240617Y-88421295D01*
X128236673Y-88457160D01*
X128231892Y-88481926D01*
X128226192Y-88498456D01*
X128219494Y-88509615D01*
X128211715Y-88518266D01*
X128201693Y-88527422D01*
X128184110Y-88538231D01*
X128158475Y-88546180D01*
X128119461Y-88551705D01*
X128061746Y-88555244D01*
X127980004Y-88557231D01*
X127868911Y-88558103D01*
X127723144Y-88558297D01*
X127655287Y-88558253D01*
X127514132Y-88557422D01*
X127406573Y-88554722D01*
X127328057Y-88549107D01*
X127274029Y-88539526D01*
X127239936Y-88524934D01*
X127221222Y-88504280D01*
X127213333Y-88476518D01*
X127211715Y-88440598D01*
X127213465Y-88401142D01*
X127222752Y-88368480D01*
X127244996Y-88345581D01*
X127285606Y-88330537D01*
X127349991Y-88321435D01*
X127443558Y-88316365D01*
X127571715Y-88313416D01*
X127881715Y-88308100D01*
X127891715Y-87000452D01*
X127892824Y-86856598D01*
X127894756Y-86615790D01*
X127896587Y-86410538D01*
X127898423Y-86237921D01*
X127900371Y-86095021D01*
X127902537Y-85978916D01*
X127905029Y-85886689D01*
X127907952Y-85815418D01*
X127911414Y-85762186D01*
X127915522Y-85724071D01*
X127920381Y-85698155D01*
X127926099Y-85681517D01*
X127932783Y-85671239D01*
X127940538Y-85664400D01*
X127953409Y-85656530D01*
X128015918Y-85638544D01*
X128090952Y-85636276D01*
X128161791Y-85649009D01*
G37*
G36*
X118259150Y-86145760D02*
G01*
X118445130Y-86153960D01*
X118605440Y-86167737D01*
X118698772Y-86177949D01*
X118773496Y-86184042D01*
X118822613Y-86184333D01*
X118853539Y-86178817D01*
X118873691Y-86167487D01*
X118885310Y-86159067D01*
X118896208Y-86159405D01*
X118900747Y-86180448D01*
X118899856Y-86228585D01*
X118894464Y-86310204D01*
X118893546Y-86322302D01*
X118884089Y-86420078D01*
X118871828Y-86516333D01*
X118859173Y-86591837D01*
X118836294Y-86703336D01*
X118713334Y-86684432D01*
X118688759Y-86681210D01*
X118598444Y-86673942D01*
X118479416Y-86668717D01*
X118339867Y-86665514D01*
X118187989Y-86664311D01*
X118031973Y-86665086D01*
X117880012Y-86667818D01*
X117740297Y-86672486D01*
X117621021Y-86679067D01*
X117530374Y-86687541D01*
X117253041Y-86730320D01*
X116984181Y-86786758D01*
X116742782Y-86853457D01*
X116557281Y-86920430D01*
X116308598Y-87031750D01*
X116049820Y-87169369D01*
X115787692Y-87329377D01*
X115528962Y-87507866D01*
X115280374Y-87700925D01*
X115199825Y-87768690D01*
X115099383Y-87855868D01*
X114992138Y-87951211D01*
X114882181Y-88050874D01*
X114773606Y-88151012D01*
X114670506Y-88247780D01*
X114576973Y-88337332D01*
X114497100Y-88415824D01*
X114434981Y-88479409D01*
X114394708Y-88524242D01*
X114380374Y-88546479D01*
X114378238Y-88560787D01*
X114363074Y-88562644D01*
X114325374Y-88541047D01*
X114273680Y-88505966D01*
X114199021Y-88451961D01*
X114119459Y-88391825D01*
X114044408Y-88332836D01*
X113983284Y-88282269D01*
X113945499Y-88247404D01*
X113900624Y-88199379D01*
X114002796Y-88070434D01*
X114059692Y-88001982D01*
X114160752Y-87889476D01*
X114279286Y-87765086D01*
X114407405Y-87636670D01*
X114537219Y-87512087D01*
X114660838Y-87399194D01*
X114770374Y-87305852D01*
X114879104Y-87220068D01*
X115251815Y-86958932D01*
X115644727Y-86731996D01*
X116056439Y-86539865D01*
X116485551Y-86383139D01*
X116930663Y-86262423D01*
X117390374Y-86178319D01*
X117489136Y-86166723D01*
X117662495Y-86153619D01*
X117856304Y-86145690D01*
X118059032Y-86143036D01*
X118259150Y-86145760D01*
G37*
G36*
X117210282Y-85241985D02*
G01*
X117268597Y-85290936D01*
X117286759Y-85314920D01*
X117317442Y-85386604D01*
X117311075Y-85452585D01*
X117267677Y-85508121D01*
X117254661Y-85517878D01*
X117194723Y-85545773D01*
X117138860Y-85537094D01*
X117078836Y-85491098D01*
X117051612Y-85459213D01*
X117021689Y-85391288D01*
X117028793Y-85326641D01*
X117073072Y-85270838D01*
X117083388Y-85263071D01*
X117149441Y-85232789D01*
X117210282Y-85241985D01*
G37*
G36*
X113075756Y-86819350D02*
G01*
X113118805Y-86824737D01*
X113186660Y-86835325D01*
X113270771Y-86849848D01*
X113634537Y-86930713D01*
X114022916Y-87054419D01*
X114393868Y-87213768D01*
X114563859Y-87296883D01*
X114357117Y-87503555D01*
X114324404Y-87536179D01*
X114254920Y-87604916D01*
X114198196Y-87660257D01*
X114159382Y-87697207D01*
X114143624Y-87710768D01*
X114143264Y-87710736D01*
X114121620Y-87700722D01*
X114075272Y-87676278D01*
X114013624Y-87642352D01*
X114008052Y-87639277D01*
X113935587Y-87603926D01*
X113843523Y-87564921D01*
X113741221Y-87525577D01*
X113638041Y-87489209D01*
X113543344Y-87459128D01*
X113466490Y-87438650D01*
X113416842Y-87431087D01*
X113382496Y-87435751D01*
X113346280Y-87453199D01*
X113339883Y-87456848D01*
X113320436Y-87445748D01*
X113292843Y-87404016D01*
X113254501Y-87328101D01*
X113241356Y-87299530D01*
X113208688Y-87223634D01*
X113173562Y-87136889D01*
X113138947Y-87047264D01*
X113107811Y-86962729D01*
X113083123Y-86891251D01*
X113067852Y-86840801D01*
X113064967Y-86819347D01*
X113075756Y-86819350D01*
G37*
G36*
X118302172Y-86800894D02*
G01*
X118471228Y-86802452D01*
X118602367Y-86805376D01*
X118696817Y-86809708D01*
X118755802Y-86815493D01*
X118780549Y-86822775D01*
X118780807Y-86823041D01*
X118787229Y-86856911D01*
X118774884Y-86922373D01*
X118744780Y-87016279D01*
X118697922Y-87135483D01*
X118635318Y-87276837D01*
X118634908Y-87277722D01*
X118594138Y-87361838D01*
X118564061Y-87413588D01*
X118541197Y-87437984D01*
X118522069Y-87440041D01*
X118499881Y-87432204D01*
X118415609Y-87411920D01*
X118304151Y-87394174D01*
X118174877Y-87380064D01*
X118037161Y-87370690D01*
X117900374Y-87367150D01*
X117810958Y-87368281D01*
X117504141Y-87393373D01*
X117207568Y-87452235D01*
X116918072Y-87546043D01*
X116632486Y-87675969D01*
X116347642Y-87843187D01*
X116060374Y-88048870D01*
X116010409Y-88089047D01*
X115922487Y-88164152D01*
X115825459Y-88251214D01*
X115723650Y-88345939D01*
X115621383Y-88444035D01*
X115522984Y-88541206D01*
X115432777Y-88633161D01*
X115355088Y-88715605D01*
X115294242Y-88784245D01*
X115254562Y-88834786D01*
X115240374Y-88862937D01*
X115241585Y-88886333D01*
X115250397Y-88912640D01*
X115270091Y-88920269D01*
X115303422Y-88907474D01*
X115353145Y-88872510D01*
X115422014Y-88813629D01*
X115512786Y-88729087D01*
X115628213Y-88617136D01*
X115652205Y-88593676D01*
X115757964Y-88491876D01*
X115863722Y-88392398D01*
X115962417Y-88301748D01*
X116046989Y-88226430D01*
X116110374Y-88172951D01*
X116195665Y-88106375D01*
X116477237Y-87911462D01*
X116759902Y-87754526D01*
X117046627Y-87634062D01*
X117340374Y-87548564D01*
X117440468Y-87529594D01*
X117604149Y-87509816D01*
X117783217Y-87498312D01*
X117964146Y-87495526D01*
X118133408Y-87501901D01*
X118277478Y-87517880D01*
X118324164Y-87525858D01*
X118398649Y-87539920D01*
X118452156Y-87551802D01*
X118475405Y-87559552D01*
X118475882Y-87569709D01*
X118457936Y-87608944D01*
X118418780Y-87672286D01*
X118361109Y-87755509D01*
X118287614Y-87854384D01*
X118201171Y-87967436D01*
X118115773Y-87947481D01*
X118099322Y-87944088D01*
X118004552Y-87934390D01*
X117884402Y-87933327D01*
X117749892Y-87940122D01*
X117612038Y-87954001D01*
X117481860Y-87974189D01*
X117370374Y-87999911D01*
X117257077Y-88037324D01*
X117082279Y-88109744D01*
X116901970Y-88199071D01*
X116729424Y-88298577D01*
X116577912Y-88401537D01*
X116522098Y-88444815D01*
X116418687Y-88531273D01*
X116315433Y-88624511D01*
X116218654Y-88718306D01*
X116134671Y-88806433D01*
X116069805Y-88882667D01*
X116030374Y-88940785D01*
X115990374Y-89017165D01*
X115780374Y-89005059D01*
X115572932Y-88986432D01*
X115242272Y-88927697D01*
X114928005Y-88834845D01*
X114633805Y-88708825D01*
X114460173Y-88621508D01*
X114795274Y-88308608D01*
X114885380Y-88224668D01*
X115015847Y-88104251D01*
X115127328Y-88003317D01*
X115225917Y-87916650D01*
X115317709Y-87839031D01*
X115408799Y-87765242D01*
X115505281Y-87690066D01*
X115613249Y-87608283D01*
X115856529Y-87435236D01*
X116135678Y-87262552D01*
X116413422Y-87120742D01*
X116697215Y-87006468D01*
X116994506Y-86916393D01*
X117312749Y-86847180D01*
X117330612Y-86843973D01*
X117407897Y-86830919D01*
X117479958Y-86820752D01*
X117553254Y-86813119D01*
X117634246Y-86807666D01*
X117729395Y-86804041D01*
X117845160Y-86801888D01*
X117988002Y-86800856D01*
X118164382Y-86800591D01*
X118302172Y-86800894D01*
G37*
G36*
X113475298Y-87566310D02*
G01*
X113551441Y-87590286D01*
X113640147Y-87622623D01*
X113734201Y-87660316D01*
X113826387Y-87700363D01*
X113909489Y-87739759D01*
X113976292Y-87775502D01*
X114019581Y-87804586D01*
X114032139Y-87824009D01*
X114029333Y-87829559D01*
X114006159Y-87864049D01*
X113966302Y-87917531D01*
X113916406Y-87980994D01*
X113810374Y-88112676D01*
X113698225Y-87992424D01*
X113682380Y-87975041D01*
X113627737Y-87910611D01*
X113569260Y-87836344D01*
X113511787Y-87759059D01*
X113460157Y-87685579D01*
X113419211Y-87622723D01*
X113393786Y-87577313D01*
X113388723Y-87556170D01*
X113389561Y-87555453D01*
X113418932Y-87553697D01*
X113475298Y-87566310D01*
G37*
G36*
X116230747Y-83076216D02*
G01*
X116567465Y-83126728D01*
X116890220Y-83214660D01*
X117198521Y-83339830D01*
X117491876Y-83502053D01*
X117769795Y-83701146D01*
X118031785Y-83936925D01*
X118075083Y-83981002D01*
X118301421Y-84240900D01*
X118490692Y-84514075D01*
X118644219Y-84802955D01*
X118763325Y-85109967D01*
X118849331Y-85437538D01*
X118862403Y-85509408D01*
X118876927Y-85610433D01*
X118889365Y-85718944D01*
X118899124Y-85827089D01*
X118905608Y-85927015D01*
X118908221Y-86010870D01*
X118906370Y-86070801D01*
X118899458Y-86098955D01*
X118889411Y-86106642D01*
X118880374Y-86096653D01*
X118865937Y-86085959D01*
X118815890Y-86072352D01*
X118734464Y-86058066D01*
X118626257Y-86043781D01*
X118495867Y-86030176D01*
X118347893Y-86017932D01*
X118165411Y-86004605D01*
X118174061Y-85872180D01*
X118180951Y-85781314D01*
X118189592Y-85714689D01*
X118201695Y-85673707D01*
X118219543Y-85650896D01*
X118245421Y-85638784D01*
X118249495Y-85637541D01*
X118359394Y-85590229D01*
X118432480Y-85527364D01*
X118468846Y-85448827D01*
X118468586Y-85354500D01*
X118434247Y-85240943D01*
X118371828Y-85136339D01*
X118289037Y-85055409D01*
X118191608Y-85001251D01*
X118085272Y-84976963D01*
X117975762Y-84985641D01*
X117868809Y-85030385D01*
X117863657Y-85033626D01*
X117804030Y-85088839D01*
X117770727Y-85164236D01*
X117760374Y-85267179D01*
X117764029Y-85325202D01*
X117797074Y-85435968D01*
X117864725Y-85526752D01*
X117967245Y-85597979D01*
X118081036Y-85656360D01*
X118070446Y-86009968D01*
X117920410Y-86010510D01*
X117909869Y-86010582D01*
X117781984Y-86015106D01*
X117629442Y-86025763D01*
X117465619Y-86041457D01*
X117303890Y-86061091D01*
X117197406Y-86075567D01*
X117210023Y-85927677D01*
X117214728Y-85874136D01*
X117223614Y-85791987D01*
X117233940Y-85738200D01*
X117248429Y-85705025D01*
X117269807Y-85684716D01*
X117300798Y-85669525D01*
X117334237Y-85653431D01*
X117395618Y-85601778D01*
X117429789Y-85528080D01*
X117440374Y-85426014D01*
X117438937Y-85387332D01*
X117418214Y-85277088D01*
X117375971Y-85184906D01*
X117316192Y-85120589D01*
X117252139Y-85092761D01*
X117169438Y-85090734D01*
X117084341Y-85116212D01*
X117004462Y-85164435D01*
X116937419Y-85230645D01*
X116890828Y-85310082D01*
X116872305Y-85397985D01*
X116872136Y-85413949D01*
X116877735Y-85468104D01*
X116899275Y-85512147D01*
X116944398Y-85563644D01*
X117004313Y-85634705D01*
X117049317Y-85719380D01*
X117073297Y-85818884D01*
X117080374Y-85944768D01*
X117080374Y-86101028D01*
X116908945Y-86136342D01*
X116853402Y-86148620D01*
X116744290Y-86175481D01*
X116625396Y-86207268D01*
X116514121Y-86239438D01*
X116429183Y-86264900D01*
X116356763Y-86285993D01*
X116307427Y-86299649D01*
X116288750Y-86303708D01*
X116288986Y-86292497D01*
X116292433Y-86251019D01*
X116298574Y-86190110D01*
X116306469Y-86129792D01*
X116320231Y-86090272D01*
X116348390Y-86063941D01*
X116400147Y-86036925D01*
X116444939Y-86011651D01*
X116501952Y-85957210D01*
X116532014Y-85885652D01*
X116536898Y-85791457D01*
X116518379Y-85669107D01*
X116509194Y-85633466D01*
X116460947Y-85531076D01*
X116388340Y-85455999D01*
X116295391Y-85412851D01*
X116234274Y-85402084D01*
X116123410Y-85408407D01*
X116028892Y-85448068D01*
X115955483Y-85517333D01*
X115907945Y-85612470D01*
X115891041Y-85729747D01*
X115893908Y-85782068D01*
X115922429Y-85885597D01*
X115984189Y-85974156D01*
X116082474Y-86053302D01*
X116182080Y-86117895D01*
X116176227Y-86235538D01*
X116170374Y-86353182D01*
X115910532Y-86461518D01*
X115760453Y-86353566D01*
X115470789Y-86163748D01*
X115128253Y-85978209D01*
X114946132Y-85888706D01*
X114983169Y-85776352D01*
X114992966Y-85747197D01*
X115020565Y-85677742D01*
X115051516Y-85631127D01*
X115095792Y-85595272D01*
X115163368Y-85558095D01*
X115214086Y-85527943D01*
X115294146Y-85454147D01*
X115344445Y-85367710D01*
X115363046Y-85275270D01*
X115348012Y-85183463D01*
X115297406Y-85098925D01*
X115273659Y-85073111D01*
X115205824Y-85016104D01*
X115127417Y-84978790D01*
X115023833Y-84953401D01*
X114994724Y-84948751D01*
X114865680Y-84946891D01*
X114755369Y-84979698D01*
X114661926Y-85047659D01*
X114644606Y-85065989D01*
X114580994Y-85160568D01*
X114549980Y-85260705D01*
X114551685Y-85359384D01*
X114586229Y-85449590D01*
X114653733Y-85524307D01*
X114717867Y-85574099D01*
X114782923Y-85627419D01*
X114824544Y-85667837D01*
X114847888Y-85701584D01*
X114858112Y-85734893D01*
X114860374Y-85773994D01*
X114858011Y-85823992D01*
X114847842Y-85843200D01*
X114825374Y-85839156D01*
X114753312Y-85811236D01*
X114651511Y-85775810D01*
X114530655Y-85736300D01*
X114400626Y-85695784D01*
X114271310Y-85657342D01*
X114152590Y-85624051D01*
X114054349Y-85598991D01*
X113818324Y-85543491D01*
X113824349Y-85471489D01*
X113825510Y-85458907D01*
X113834940Y-85417858D01*
X113859912Y-85395552D01*
X113912409Y-85379472D01*
X113916159Y-85378541D01*
X114009222Y-85341022D01*
X114072626Y-85280967D01*
X114108851Y-85194792D01*
X114120375Y-85078913D01*
X114118678Y-85022450D01*
X114105192Y-84947355D01*
X114072466Y-84883407D01*
X114013677Y-84813640D01*
X113982986Y-84784852D01*
X113897074Y-84734975D01*
X113807542Y-84719197D01*
X113720527Y-84734587D01*
X113642165Y-84778214D01*
X113578595Y-84847147D01*
X113535952Y-84938457D01*
X113520374Y-85049212D01*
X113520408Y-85055785D01*
X113533805Y-85161158D01*
X113575007Y-85244692D01*
X113649196Y-85317167D01*
X113693437Y-85356023D01*
X113715240Y-85396129D01*
X113720374Y-85452879D01*
X113720238Y-85475614D01*
X113716080Y-85514873D01*
X113700343Y-85527404D01*
X113665374Y-85522959D01*
X113654565Y-85521100D01*
X113602396Y-85514432D01*
X113522464Y-85505841D01*
X113423517Y-85496238D01*
X113314304Y-85486529D01*
X113018234Y-85461396D01*
X113031508Y-85380402D01*
X113045642Y-85313638D01*
X113078670Y-85197701D01*
X113123644Y-85064886D01*
X113176615Y-84925962D01*
X113233638Y-84791700D01*
X113290767Y-84672871D01*
X113384025Y-84504844D01*
X113514293Y-84306046D01*
X113663323Y-84117849D01*
X113840374Y-83927699D01*
X113899741Y-83869592D01*
X114159539Y-83648976D01*
X114439637Y-83461714D01*
X114737401Y-83309015D01*
X115050200Y-83192084D01*
X115375402Y-83112128D01*
X115710374Y-83070355D01*
X115880558Y-83063308D01*
X116230747Y-83076216D01*
G37*
G36*
X113851107Y-84855905D02*
G01*
X113927323Y-84893818D01*
X113994774Y-84967396D01*
X114031467Y-85043207D01*
X114034992Y-85122723D01*
X113998923Y-85196630D01*
X113987229Y-85210426D01*
X113943022Y-85241036D01*
X113880225Y-85249369D01*
X113871023Y-85249286D01*
X113764962Y-85233434D01*
X113686234Y-85191498D01*
X113637239Y-85125437D01*
X113620374Y-85037209D01*
X113622818Y-84992648D01*
X113640063Y-84944476D01*
X113681909Y-84900873D01*
X113693601Y-84891588D01*
X113771432Y-84854786D01*
X113851107Y-84855905D01*
G37*
G36*
X118009830Y-88060456D02*
G01*
X118104468Y-88074659D01*
X118057421Y-88125242D01*
X118033213Y-88150399D01*
X117924314Y-88250401D01*
X117790617Y-88357883D01*
X117641489Y-88466262D01*
X117486298Y-88568958D01*
X117334415Y-88659387D01*
X117195206Y-88730970D01*
X117094797Y-88774683D01*
X116879985Y-88853782D01*
X116655019Y-88919998D01*
X116433837Y-88969467D01*
X116230374Y-88998329D01*
X116213147Y-88999960D01*
X116166033Y-89005209D01*
X116144013Y-89008967D01*
X116142082Y-89009830D01*
X116143384Y-89000588D01*
X116165607Y-88969882D01*
X116203078Y-88924391D01*
X116250125Y-88870797D01*
X116301077Y-88815781D01*
X116350262Y-88766023D01*
X116395391Y-88723389D01*
X116581920Y-88565133D01*
X116781733Y-88420707D01*
X116984225Y-88297328D01*
X117178793Y-88202210D01*
X117215193Y-88187471D01*
X117378724Y-88132532D01*
X117550686Y-88090531D01*
X117720346Y-88063297D01*
X117876971Y-88052662D01*
X118009830Y-88060456D01*
G37*
G36*
X113138103Y-85602121D02*
G01*
X113182541Y-85604927D01*
X113618017Y-85652099D01*
X114043621Y-85733735D01*
X114455750Y-85848684D01*
X114850802Y-85995792D01*
X115225175Y-86173907D01*
X115575266Y-86381877D01*
X115780158Y-86517262D01*
X115555266Y-86635432D01*
X115546153Y-86640227D01*
X115460550Y-86685857D01*
X115388434Y-86725319D01*
X115337150Y-86754534D01*
X115314043Y-86769422D01*
X115311942Y-86770540D01*
X115283807Y-86763970D01*
X115234129Y-86739296D01*
X115172141Y-86700970D01*
X115095768Y-86651993D01*
X114859596Y-86522944D01*
X114595998Y-86407012D01*
X114313338Y-86306653D01*
X114019979Y-86224321D01*
X113724286Y-86162472D01*
X113434622Y-86123562D01*
X113159350Y-86110047D01*
X112960374Y-86110047D01*
X112960517Y-85984948D01*
X112961589Y-85925051D01*
X112966221Y-85821933D01*
X112973245Y-85726494D01*
X112985832Y-85593137D01*
X113138103Y-85602121D01*
G37*
G36*
X116244699Y-85551351D02*
G01*
X116301437Y-85556822D01*
X116332380Y-85564924D01*
X116362454Y-85596818D01*
X116390495Y-85668424D01*
X116400374Y-85765361D01*
X116391124Y-85845781D01*
X116359318Y-85900913D01*
X116300374Y-85935721D01*
X116282719Y-85941278D01*
X116200695Y-85944598D01*
X116124091Y-85915315D01*
X116060264Y-85859414D01*
X116016573Y-85782879D01*
X116000374Y-85691695D01*
X116005803Y-85645250D01*
X116037777Y-85591061D01*
X116100264Y-85559794D01*
X116195374Y-85549912D01*
X116244699Y-85551351D01*
G37*
G36*
X118161416Y-85133762D02*
G01*
X118239156Y-85182676D01*
X118300483Y-85254190D01*
X118331209Y-85322421D01*
X118335626Y-85395769D01*
X118304999Y-85454819D01*
X118240374Y-85495374D01*
X118222093Y-85500992D01*
X118132239Y-85503786D01*
X118028803Y-85471618D01*
X117952833Y-85426198D01*
X117892916Y-85362701D01*
X117864159Y-85292816D01*
X117868898Y-85222670D01*
X117909465Y-85158388D01*
X117923807Y-85145670D01*
X117994333Y-85112954D01*
X118076672Y-85109753D01*
X118161416Y-85133762D01*
G37*
G36*
X113167593Y-86231033D02*
G01*
X113469942Y-86252702D01*
X113784025Y-86301392D01*
X114098211Y-86374507D01*
X114400871Y-86469451D01*
X114680374Y-86583627D01*
X114744776Y-86614281D01*
X114844822Y-86664211D01*
X114941177Y-86714719D01*
X115027376Y-86762206D01*
X115096953Y-86803079D01*
X115143441Y-86833738D01*
X115160374Y-86850590D01*
X115153523Y-86858919D01*
X115120020Y-86886513D01*
X115064942Y-86927338D01*
X114995374Y-86976010D01*
X114957249Y-87002334D01*
X114877820Y-87058952D01*
X114808289Y-87110695D01*
X114760374Y-87148940D01*
X114738719Y-87167283D01*
X114700565Y-87197714D01*
X114681454Y-87210100D01*
X114673221Y-87207281D01*
X114635732Y-87190110D01*
X114575745Y-87160764D01*
X114501454Y-87123199D01*
X114425248Y-87085256D01*
X114083775Y-86939865D01*
X113717094Y-86821160D01*
X113330374Y-86730874D01*
X113110374Y-86688826D01*
X113077400Y-86729411D01*
X113061997Y-86746033D01*
X113050127Y-86747364D01*
X113039971Y-86726507D01*
X113028798Y-86677691D01*
X113013877Y-86595143D01*
X113010020Y-86572894D01*
X112994210Y-86478565D01*
X112980194Y-86390481D01*
X112970627Y-86325216D01*
X112957924Y-86230141D01*
X113097030Y-86230141D01*
X113167593Y-86231033D01*
G37*
G36*
X115048080Y-85115275D02*
G01*
X115136201Y-85163886D01*
X115207508Y-85234357D01*
X115248185Y-85289401D01*
X115207441Y-85344444D01*
X115202382Y-85350987D01*
X115154491Y-85400921D01*
X115098536Y-85446306D01*
X115049882Y-85474061D01*
X114997074Y-85486248D01*
X114924545Y-85484622D01*
X114878068Y-85478238D01*
X114788100Y-85446512D01*
X114724735Y-85395999D01*
X114690327Y-85332716D01*
X114687230Y-85262679D01*
X114717799Y-85191907D01*
X114784388Y-85126415D01*
X114861976Y-85093988D01*
X114953290Y-85091113D01*
X115048080Y-85115275D01*
G37*
G36*
X136347671Y-82138898D02*
G01*
X136487690Y-82139304D01*
X136595533Y-82140389D01*
X136675905Y-82142470D01*
X136733511Y-82145863D01*
X136773056Y-82150884D01*
X136799245Y-82157850D01*
X136816783Y-82167077D01*
X136830375Y-82178881D01*
X136857199Y-82213707D01*
X136867634Y-82270929D01*
X136839240Y-82334553D01*
X136822417Y-82354415D01*
X136799187Y-82367668D01*
X136761613Y-82375087D01*
X136701148Y-82378326D01*
X136609240Y-82379038D01*
X136410374Y-82379038D01*
X136410374Y-84962891D01*
X136361284Y-85012020D01*
X136360028Y-85013259D01*
X136298893Y-85049563D01*
X136223253Y-85063320D01*
X136148586Y-85054012D01*
X136090374Y-85021119D01*
X136084883Y-85015287D01*
X136077663Y-85004974D01*
X136071526Y-84990100D01*
X136066386Y-84967709D01*
X136062153Y-84934845D01*
X136058741Y-84888552D01*
X136056060Y-84825874D01*
X136054023Y-84743855D01*
X136052541Y-84639540D01*
X136051526Y-84509972D01*
X136050890Y-84352197D01*
X136050545Y-84163257D01*
X136050402Y-83940198D01*
X136050374Y-83680063D01*
X136050374Y-82379038D01*
X135851803Y-82379038D01*
X135825118Y-82378937D01*
X135724832Y-82375176D01*
X135657131Y-82363992D01*
X135616099Y-82342659D01*
X135595820Y-82308453D01*
X135590374Y-82258649D01*
X135590547Y-82245596D01*
X135594010Y-82215156D01*
X135605046Y-82191118D01*
X135627709Y-82172730D01*
X135666052Y-82159238D01*
X135724128Y-82149889D01*
X135805991Y-82143929D01*
X135915692Y-82140604D01*
X136057286Y-82139162D01*
X136234825Y-82138849D01*
X136347671Y-82138898D01*
G37*
G36*
X131560732Y-82151097D02*
G01*
X131621284Y-82187979D01*
X131670374Y-82237108D01*
X131670374Y-84962891D01*
X131621284Y-85012020D01*
X131620028Y-85013259D01*
X131558893Y-85049563D01*
X131483253Y-85063320D01*
X131408586Y-85054012D01*
X131350374Y-85021119D01*
X131349524Y-85020263D01*
X131341861Y-85011487D01*
X131335268Y-84999909D01*
X131329667Y-84982665D01*
X131324975Y-84956892D01*
X131321113Y-84919726D01*
X131317999Y-84868302D01*
X131315554Y-84799758D01*
X131313696Y-84711229D01*
X131312345Y-84599851D01*
X131311421Y-84462761D01*
X131310842Y-84297094D01*
X131310529Y-84099988D01*
X131310400Y-83868578D01*
X131310374Y-83600000D01*
X131310375Y-83570641D01*
X131310407Y-83306010D01*
X131310551Y-83078252D01*
X131310888Y-82884504D01*
X131311498Y-82721902D01*
X131312463Y-82587582D01*
X131313862Y-82478681D01*
X131315776Y-82392335D01*
X131318287Y-82325679D01*
X131321473Y-82275851D01*
X131325417Y-82239986D01*
X131330198Y-82215220D01*
X131335898Y-82198690D01*
X131342596Y-82187531D01*
X131350374Y-82178881D01*
X131351550Y-82177723D01*
X131410385Y-82145449D01*
X131485273Y-82136747D01*
X131560732Y-82151097D01*
G37*
G36*
X129831473Y-82115257D02*
G01*
X129933876Y-82141369D01*
X130027532Y-82195393D01*
X130123283Y-82282312D01*
X130141101Y-82301501D01*
X130222576Y-82410512D01*
X130281455Y-82535027D01*
X130323410Y-82686500D01*
X130341182Y-82814375D01*
X130334049Y-82981521D01*
X130290631Y-83153005D01*
X130272479Y-83200094D01*
X130232518Y-83280180D01*
X130177285Y-83365409D01*
X130101925Y-83462952D01*
X130001582Y-83579984D01*
X129966539Y-83620102D01*
X129842688Y-83774396D01*
X129753469Y-83909180D01*
X129698963Y-84024334D01*
X129665499Y-84147751D01*
X129647044Y-84298694D01*
X129650413Y-84447108D01*
X129675254Y-84582431D01*
X129721217Y-84694103D01*
X129739176Y-84723230D01*
X129788382Y-84782419D01*
X129843796Y-84812549D01*
X129916732Y-84820961D01*
X129960603Y-84815772D01*
X130005432Y-84792142D01*
X130056919Y-84742091D01*
X130094477Y-84693748D01*
X130147082Y-84589083D01*
X130182995Y-84456263D01*
X130203760Y-84290543D01*
X130216490Y-84185165D01*
X130237848Y-84113205D01*
X130269551Y-84072916D01*
X130313474Y-84060362D01*
X130355507Y-84068414D01*
X130397699Y-84106906D01*
X130422243Y-84178708D01*
X130430027Y-84285539D01*
X130429736Y-84311315D01*
X130413663Y-84494981D01*
X130374572Y-84661422D01*
X130314580Y-84806473D01*
X130235804Y-84925970D01*
X130140364Y-85015747D01*
X130030374Y-85071639D01*
X129923876Y-85091250D01*
X129791878Y-85083457D01*
X129662411Y-85044098D01*
X129554313Y-84978425D01*
X129451602Y-84875151D01*
X129367338Y-84743754D01*
X129304035Y-84589202D01*
X129264209Y-84416461D01*
X129250374Y-84230496D01*
X129251580Y-84167193D01*
X129264198Y-84034730D01*
X129292977Y-83911164D01*
X129340914Y-83789692D01*
X129411007Y-83663512D01*
X129506253Y-83525822D01*
X129629649Y-83369818D01*
X129679493Y-83308545D01*
X129778110Y-83177996D01*
X129850718Y-83064496D01*
X129900531Y-82961869D01*
X129930765Y-82863936D01*
X129944633Y-82764520D01*
X129947437Y-82705795D01*
X129943970Y-82642091D01*
X129928366Y-82586138D01*
X129896975Y-82519149D01*
X129872643Y-82476159D01*
X129818017Y-82411065D01*
X129757085Y-82381936D01*
X129685428Y-82385988D01*
X129645936Y-82409576D01*
X129606251Y-82472518D01*
X129576659Y-82571358D01*
X129557853Y-82704367D01*
X129548523Y-82777024D01*
X129532855Y-82844959D01*
X129514620Y-82884436D01*
X129469860Y-82913872D01*
X129412967Y-82913609D01*
X129360555Y-82879632D01*
X129349561Y-82865744D01*
X129337346Y-82838521D01*
X129331545Y-82798057D01*
X129331220Y-82735476D01*
X129335432Y-82641902D01*
X129336302Y-82627141D01*
X129356082Y-82461553D01*
X129393421Y-82330516D01*
X129449918Y-82231982D01*
X129527176Y-82163901D01*
X129626794Y-82124226D01*
X129750374Y-82110906D01*
X129831473Y-82115257D01*
G37*
G36*
X128127671Y-82138898D02*
G01*
X128267690Y-82139304D01*
X128375533Y-82140389D01*
X128455905Y-82142470D01*
X128513511Y-82145863D01*
X128553056Y-82150884D01*
X128579245Y-82157850D01*
X128596783Y-82167077D01*
X128610374Y-82178881D01*
X128637199Y-82213707D01*
X128647634Y-82270929D01*
X128619240Y-82334553D01*
X128602417Y-82354415D01*
X128579187Y-82367668D01*
X128541613Y-82375087D01*
X128481148Y-82378326D01*
X128389240Y-82379038D01*
X128190374Y-82379038D01*
X128190374Y-84962891D01*
X128141284Y-85012020D01*
X128096572Y-85041442D01*
X128021796Y-85060758D01*
X127943479Y-85058323D01*
X127879197Y-85032746D01*
X127874924Y-85029352D01*
X127867753Y-85021044D01*
X127861598Y-85007740D01*
X127856351Y-84986521D01*
X127851905Y-84954468D01*
X127848155Y-84908660D01*
X127844993Y-84846179D01*
X127842313Y-84764104D01*
X127840008Y-84659516D01*
X127837971Y-84529495D01*
X127836096Y-84371122D01*
X127834276Y-84181478D01*
X127832405Y-83957642D01*
X127830374Y-83696694D01*
X127820374Y-82389046D01*
X127614583Y-82379038D01*
X127561460Y-82376177D01*
X127475616Y-82368501D01*
X127420148Y-82355873D01*
X127388524Y-82334972D01*
X127374212Y-82302479D01*
X127370681Y-82255075D01*
X127370750Y-82244506D01*
X127373951Y-82214551D01*
X127384809Y-82190852D01*
X127407369Y-82172679D01*
X127445673Y-82159303D01*
X127503762Y-82149994D01*
X127585679Y-82144024D01*
X127695467Y-82140663D01*
X127837168Y-82139181D01*
X128014825Y-82138849D01*
X128127671Y-82138898D01*
G37*
G36*
X124627907Y-85023588D02*
G01*
X124623989Y-85027445D01*
X124601927Y-85044969D01*
X124574245Y-85055587D01*
X124532364Y-85060426D01*
X124467709Y-85060612D01*
X124371702Y-85057275D01*
X124298832Y-85053723D01*
X124215629Y-85046445D01*
X124150518Y-85034355D01*
X124090413Y-85014741D01*
X124022227Y-84984893D01*
X123886627Y-84903309D01*
X123753366Y-84781377D01*
X123637086Y-84628521D01*
X123539041Y-84448060D01*
X123460484Y-84243315D01*
X123402669Y-84017605D01*
X123366848Y-83774248D01*
X123358182Y-83596616D01*
X123747801Y-83596616D01*
X123764108Y-83866557D01*
X123798024Y-84108225D01*
X123849182Y-84319534D01*
X123917218Y-84498394D01*
X124001766Y-84642717D01*
X124031941Y-84679570D01*
X124087754Y-84733774D01*
X124138444Y-84768663D01*
X124143579Y-84771035D01*
X124204693Y-84792237D01*
X124258553Y-84800945D01*
X124310687Y-84800945D01*
X124305531Y-83594996D01*
X124300374Y-82389046D01*
X124192952Y-82393623D01*
X124156482Y-82396310D01*
X124054624Y-82421434D01*
X123971255Y-82475779D01*
X123897026Y-82564749D01*
X123868790Y-82612348D01*
X123824895Y-82719305D01*
X123791531Y-82853518D01*
X123767818Y-83018985D01*
X123752878Y-83219700D01*
X123749467Y-83300490D01*
X123747801Y-83596616D01*
X123358182Y-83596616D01*
X123354277Y-83516565D01*
X123366208Y-83247875D01*
X123373385Y-83176554D01*
X123410962Y-82936217D01*
X123466672Y-82730010D01*
X123541330Y-82556314D01*
X123635754Y-82413506D01*
X123750761Y-82299966D01*
X123887167Y-82214072D01*
X123898783Y-82208368D01*
X123950693Y-82184197D01*
X123996442Y-82167401D01*
X124045262Y-82156373D01*
X124106382Y-82149509D01*
X124189035Y-82145202D01*
X124302451Y-82141848D01*
X124315357Y-82141517D01*
X124424256Y-82139153D01*
X124500988Y-82139068D01*
X124552650Y-82142022D01*
X124586342Y-82148774D01*
X124609161Y-82160083D01*
X124628207Y-82176711D01*
X124631256Y-82179789D01*
X124639038Y-82188787D01*
X124645713Y-82200536D01*
X124651365Y-82217905D01*
X124656080Y-82243761D01*
X124659943Y-82280971D01*
X124663039Y-82332404D01*
X124665452Y-82400928D01*
X124667268Y-82489409D01*
X124668571Y-82600715D01*
X124669447Y-82737715D01*
X124669980Y-82903276D01*
X124670256Y-83100265D01*
X124670359Y-83331550D01*
X124670374Y-83600000D01*
X124670374Y-84981087D01*
X124627907Y-85023588D01*
G37*
G36*
X134773311Y-82140249D02*
G01*
X134850486Y-82158796D01*
X134895660Y-82199778D01*
X134910374Y-82264313D01*
X134910344Y-82265220D01*
X134906282Y-82295722D01*
X134895875Y-82361213D01*
X134879835Y-82457661D01*
X134858876Y-82581036D01*
X134833711Y-82727304D01*
X134805052Y-82892436D01*
X134773614Y-83072398D01*
X134740108Y-83263160D01*
X134705247Y-83460690D01*
X134669745Y-83660956D01*
X134634315Y-83859927D01*
X134599669Y-84053570D01*
X134566521Y-84237855D01*
X134535583Y-84408750D01*
X134507569Y-84562223D01*
X134483191Y-84694243D01*
X134463162Y-84800777D01*
X134448196Y-84877795D01*
X134438103Y-84918217D01*
X134414356Y-84981607D01*
X134388585Y-85022909D01*
X134342938Y-85050284D01*
X134262590Y-85061150D01*
X134243458Y-85061310D01*
X134211664Y-85061285D01*
X134184455Y-85058274D01*
X134160862Y-85049244D01*
X134139909Y-85031160D01*
X134120626Y-85000988D01*
X134102039Y-84955692D01*
X134083175Y-84892239D01*
X134063063Y-84807593D01*
X134040729Y-84698722D01*
X134015201Y-84562590D01*
X133985505Y-84396162D01*
X133950670Y-84196405D01*
X133909723Y-83960283D01*
X133896018Y-83881326D01*
X133862470Y-83687858D01*
X133831324Y-83507992D01*
X133803219Y-83345419D01*
X133778790Y-83203830D01*
X133758674Y-83086915D01*
X133743507Y-82998367D01*
X133733925Y-82941875D01*
X133730565Y-82921132D01*
X133730469Y-82920248D01*
X133719190Y-82923985D01*
X133718287Y-82926231D01*
X133711175Y-82958207D01*
X133698407Y-83024848D01*
X133680644Y-83122395D01*
X133658548Y-83247090D01*
X133632780Y-83395175D01*
X133604001Y-83562893D01*
X133572871Y-83746485D01*
X133540053Y-83942194D01*
X133504541Y-84153868D01*
X133468979Y-84362308D01*
X133438525Y-84536129D01*
X133412662Y-84677975D01*
X133390878Y-84790492D01*
X133372657Y-84876325D01*
X133357484Y-84938120D01*
X133344845Y-84978522D01*
X133334225Y-85000176D01*
X133318041Y-85019078D01*
X133274086Y-85045961D01*
X133206760Y-85057104D01*
X133185946Y-85058810D01*
X133157025Y-85061318D01*
X133131775Y-85061323D01*
X133109385Y-85056198D01*
X133089043Y-85043315D01*
X133069936Y-85020047D01*
X133051252Y-84983768D01*
X133032179Y-84931849D01*
X133011905Y-84861665D01*
X132989618Y-84770587D01*
X132964506Y-84655989D01*
X132935756Y-84515244D01*
X132902557Y-84345724D01*
X132864095Y-84144802D01*
X132819560Y-83909851D01*
X132768139Y-83638244D01*
X132742778Y-83504235D01*
X132700893Y-83281823D01*
X132661622Y-83071931D01*
X132625575Y-82877908D01*
X132593367Y-82703105D01*
X132565610Y-82550872D01*
X132542918Y-82424557D01*
X132525902Y-82327512D01*
X132515175Y-82263086D01*
X132511352Y-82234628D01*
X132511344Y-82231593D01*
X132527915Y-82182180D01*
X132568080Y-82152090D01*
X132619874Y-82143459D01*
X132671332Y-82158421D01*
X132710488Y-82199109D01*
X132717530Y-82223170D01*
X132731217Y-82283356D01*
X132750441Y-82375095D01*
X132774395Y-82494318D01*
X132802275Y-82636954D01*
X132833276Y-82798932D01*
X132866594Y-82976182D01*
X132901422Y-83164633D01*
X132924345Y-83289686D01*
X132965129Y-83511973D01*
X132999580Y-83699290D01*
X133028272Y-83854575D01*
X133051777Y-83980767D01*
X133070668Y-84080808D01*
X133085518Y-84157636D01*
X133096900Y-84214190D01*
X133105386Y-84253412D01*
X133111550Y-84278239D01*
X133115964Y-84291613D01*
X133119200Y-84296471D01*
X133121833Y-84295755D01*
X133122442Y-84294076D01*
X133128596Y-84263872D01*
X133140274Y-84198859D01*
X133156845Y-84102796D01*
X133177676Y-83979445D01*
X133202138Y-83832567D01*
X133229597Y-83665922D01*
X133259423Y-83483272D01*
X133290985Y-83288376D01*
X133298252Y-83243351D01*
X133329681Y-83049342D01*
X133359340Y-82867405D01*
X133386578Y-82701462D01*
X133410742Y-82555436D01*
X133431182Y-82433248D01*
X133447246Y-82338820D01*
X133458282Y-82276076D01*
X133463639Y-82248936D01*
X133470588Y-82227886D01*
X133504099Y-82175248D01*
X133559136Y-82147156D01*
X133643474Y-82138849D01*
X133690937Y-82141153D01*
X133766296Y-82162115D01*
X133814364Y-82208074D01*
X133840365Y-82282847D01*
X133840742Y-82284914D01*
X133847263Y-82322206D01*
X133859681Y-82394344D01*
X133877298Y-82497237D01*
X133899415Y-82626791D01*
X133925336Y-82778916D01*
X133954362Y-82949518D01*
X133985794Y-83134506D01*
X134018935Y-83329787D01*
X134026144Y-83372199D01*
X134058615Y-83560972D01*
X134089245Y-83735449D01*
X134117359Y-83892030D01*
X134142287Y-84027117D01*
X134163353Y-84137111D01*
X134179887Y-84218411D01*
X134191214Y-84267419D01*
X134196663Y-84280535D01*
X134201912Y-84257256D01*
X134213404Y-84198108D01*
X134230308Y-84107350D01*
X134251900Y-83988992D01*
X134277452Y-83847046D01*
X134306239Y-83685521D01*
X134337534Y-83508429D01*
X134370612Y-83319779D01*
X134400680Y-83148028D01*
X134432869Y-82965046D01*
X134462873Y-82795387D01*
X134489916Y-82643405D01*
X134513218Y-82513453D01*
X134532003Y-82409882D01*
X134545494Y-82337047D01*
X134552911Y-82299298D01*
X134573413Y-82227852D01*
X134607251Y-82173678D01*
X134659036Y-82146374D01*
X134736899Y-82138849D01*
X134773311Y-82140249D01*
G37*
G36*
X126262402Y-82139127D02*
G01*
X126361422Y-82140305D01*
X126432265Y-82142932D01*
X126480758Y-82147555D01*
X126512724Y-82154722D01*
X126533988Y-82164981D01*
X126550374Y-82178881D01*
X126551225Y-82179736D01*
X126558888Y-82188512D01*
X126565481Y-82200090D01*
X126571082Y-82217334D01*
X126575774Y-82243107D01*
X126579636Y-82280273D01*
X126582750Y-82331697D01*
X126585195Y-82400241D01*
X126587053Y-82488770D01*
X126588404Y-82600148D01*
X126589328Y-82737238D01*
X126589907Y-82902905D01*
X126590220Y-83100011D01*
X126590349Y-83331422D01*
X126590374Y-83600000D01*
X126590374Y-83629358D01*
X126590342Y-83893990D01*
X126590198Y-84121748D01*
X126589861Y-84315496D01*
X126589251Y-84478097D01*
X126588286Y-84612417D01*
X126586887Y-84721318D01*
X126584973Y-84807664D01*
X126582462Y-84874320D01*
X126579276Y-84924148D01*
X126575332Y-84960013D01*
X126570551Y-84984779D01*
X126564851Y-85001309D01*
X126558153Y-85012468D01*
X126550374Y-85021119D01*
X126544315Y-85026895D01*
X126527472Y-85038864D01*
X126503797Y-85047674D01*
X126467762Y-85053806D01*
X126413839Y-85057739D01*
X126336501Y-85059954D01*
X126230219Y-85060931D01*
X126089465Y-85061150D01*
X125957936Y-85061067D01*
X125850289Y-85060429D01*
X125771778Y-85058648D01*
X125716781Y-85055135D01*
X125679673Y-85049304D01*
X125654834Y-85040567D01*
X125636638Y-85028335D01*
X125619465Y-85012020D01*
X125619103Y-85011657D01*
X125579362Y-84960042D01*
X125575121Y-84914131D01*
X125605374Y-84863339D01*
X125605614Y-84863052D01*
X125622326Y-84846530D01*
X125644900Y-84834809D01*
X125680165Y-84826897D01*
X125734947Y-84821801D01*
X125816075Y-84818528D01*
X125930374Y-84816086D01*
X126220374Y-84810953D01*
X126231220Y-84020331D01*
X126035247Y-84020331D01*
X126033108Y-84020330D01*
X125917841Y-84016879D01*
X125836990Y-84005300D01*
X125785500Y-83983467D01*
X125758313Y-83949252D01*
X125750374Y-83900531D01*
X125751031Y-83879864D01*
X125760816Y-83837023D01*
X125786936Y-83808232D01*
X125835268Y-83790891D01*
X125911685Y-83782395D01*
X126022062Y-83780141D01*
X126230893Y-83780141D01*
X126225634Y-83084594D01*
X126220374Y-82389046D01*
X125961670Y-82383416D01*
X125857613Y-82379587D01*
X125769612Y-82373239D01*
X125706836Y-82365121D01*
X125676670Y-82355946D01*
X125675758Y-82355148D01*
X125657799Y-82319977D01*
X125650374Y-82267636D01*
X125651754Y-82235992D01*
X125660245Y-82202593D01*
X125680628Y-82177820D01*
X125717587Y-82160401D01*
X125775803Y-82149066D01*
X125859960Y-82142542D01*
X125974740Y-82139561D01*
X126124825Y-82138849D01*
X126129383Y-82138849D01*
X126262402Y-82139127D01*
G37*
G36*
X91019079Y-81357038D02*
G01*
X91023533Y-81360372D01*
X91033021Y-81362436D01*
X91052558Y-81362436D01*
X91120679Y-81382438D01*
X91125133Y-81385772D01*
X91147856Y-81390715D01*
X91147298Y-81393280D01*
X91196879Y-81407838D01*
X91202396Y-81411968D01*
X91251100Y-81436347D01*
X91274856Y-81441515D01*
X91274298Y-81444080D01*
X91323879Y-81458638D01*
X91329396Y-81462768D01*
X91383132Y-81489666D01*
X91387096Y-81493100D01*
X91428707Y-81513930D01*
X91463293Y-81543899D01*
X91504907Y-81564730D01*
X91539493Y-81594699D01*
X91581107Y-81615530D01*
X91615693Y-81645499D01*
X91657307Y-81666329D01*
X91680452Y-81686384D01*
X91685370Y-81694038D01*
X91705851Y-81711784D01*
X91710767Y-81719434D01*
X91742695Y-81747100D01*
X91784307Y-81767929D01*
X91807452Y-81787984D01*
X91812370Y-81795638D01*
X91832851Y-81813384D01*
X91837768Y-81821036D01*
X91858251Y-81838784D01*
X91863168Y-81846436D01*
X91883651Y-81864184D01*
X91888568Y-81871836D01*
X91909051Y-81889584D01*
X91913967Y-81897234D01*
X91939738Y-81919565D01*
X91947421Y-81921236D01*
X91966558Y-81921236D01*
X91986346Y-81915426D01*
X92003821Y-81895258D01*
X92011473Y-81890341D01*
X92029221Y-81869858D01*
X92036873Y-81864941D01*
X92054621Y-81844458D01*
X92062273Y-81839541D01*
X92080021Y-81819058D01*
X92087673Y-81814141D01*
X92105421Y-81793658D01*
X92113072Y-81788742D01*
X92122154Y-81778260D01*
X92181879Y-81739877D01*
X92189546Y-81737626D01*
X92207021Y-81717458D01*
X92214672Y-81712542D01*
X92223754Y-81702060D01*
X92283479Y-81663677D01*
X92291146Y-81661426D01*
X92308621Y-81641258D01*
X92316272Y-81636342D01*
X92325354Y-81625860D01*
X92385079Y-81587477D01*
X92392745Y-81585226D01*
X92401554Y-81575060D01*
X92461279Y-81536677D01*
X92482043Y-81530580D01*
X92512079Y-81511277D01*
X92519745Y-81509026D01*
X92528554Y-81498860D01*
X92588279Y-81460477D01*
X92620039Y-81451151D01*
X92631568Y-81443741D01*
X92638238Y-81442782D01*
X92685243Y-81428980D01*
X92715279Y-81409677D01*
X92747039Y-81400351D01*
X92758568Y-81392941D01*
X92765238Y-81391982D01*
X92823238Y-81374952D01*
X92834768Y-81367541D01*
X92870271Y-81362436D01*
X92880958Y-81362436D01*
X92924838Y-81349552D01*
X92936368Y-81342141D01*
X92971871Y-81337036D01*
X93338558Y-81337036D01*
X93406679Y-81357038D01*
X93411133Y-81360372D01*
X93420621Y-81362436D01*
X93465558Y-81362436D01*
X93533679Y-81382438D01*
X93538133Y-81385772D01*
X93560856Y-81390715D01*
X93560298Y-81393280D01*
X93609879Y-81407838D01*
X93614333Y-81411172D01*
X93637056Y-81416115D01*
X93636498Y-81418680D01*
X93686079Y-81433238D01*
X93691596Y-81437368D01*
X93740304Y-81461749D01*
X93740404Y-81461771D01*
X93791104Y-81487149D01*
X93791204Y-81487171D01*
X93841904Y-81512549D01*
X93842004Y-81512571D01*
X93897732Y-81540466D01*
X93901695Y-81543900D01*
X93943307Y-81564729D01*
X93966452Y-81584784D01*
X93971370Y-81592438D01*
X93991851Y-81610184D01*
X93996767Y-81617834D01*
X94039618Y-81654965D01*
X94068192Y-81670568D01*
X94091796Y-81710350D01*
X94093451Y-81711784D01*
X94098368Y-81719436D01*
X94118851Y-81737184D01*
X94123768Y-81744836D01*
X94144251Y-81762584D01*
X94149167Y-81770235D01*
X94159649Y-81779317D01*
X94198032Y-81839042D01*
X94200283Y-81846708D01*
X94210449Y-81855517D01*
X94248832Y-81915242D01*
X94254929Y-81936006D01*
X94274232Y-81966042D01*
X94280329Y-81986806D01*
X94299632Y-82016842D01*
X94305729Y-82037606D01*
X94325032Y-82067642D01*
X94334358Y-82099402D01*
X94341768Y-82110931D01*
X94342727Y-82117601D01*
X94359757Y-82175601D01*
X94367168Y-82187131D01*
X94372273Y-82222634D01*
X94372273Y-82233321D01*
X94385157Y-82277201D01*
X94392568Y-82288731D01*
X94397673Y-82324234D01*
X94397673Y-82385721D01*
X94410557Y-82429601D01*
X94417968Y-82441131D01*
X94423073Y-82476634D01*
X94423073Y-82716321D01*
X94403071Y-82784442D01*
X94399737Y-82788896D01*
X94397673Y-82798384D01*
X94397673Y-82843321D01*
X94377671Y-82911442D01*
X94374337Y-82915896D01*
X94369394Y-82938619D01*
X94366829Y-82938061D01*
X94352271Y-82987642D01*
X94348937Y-82992096D01*
X94343994Y-83014819D01*
X94341429Y-83014261D01*
X94326871Y-83063842D01*
X94322741Y-83069359D01*
X94298362Y-83118063D01*
X94293194Y-83141819D01*
X94290629Y-83141261D01*
X94276071Y-83190842D01*
X94267478Y-83202320D01*
X94246179Y-83244870D01*
X94219711Y-83275416D01*
X94196760Y-83321267D01*
X94196738Y-83321367D01*
X94168843Y-83377095D01*
X94165409Y-83381058D01*
X94144580Y-83422670D01*
X94124525Y-83445815D01*
X94116873Y-83450732D01*
X94089209Y-83482658D01*
X94068380Y-83524270D01*
X94048325Y-83547415D01*
X94040673Y-83552332D01*
X94013009Y-83584258D01*
X93992180Y-83625870D01*
X93972125Y-83649015D01*
X93964471Y-83653933D01*
X93946725Y-83674414D01*
X93939073Y-83679331D01*
X93921325Y-83699814D01*
X93913675Y-83704730D01*
X93886009Y-83736658D01*
X93865179Y-83778272D01*
X93853792Y-83791413D01*
X93794067Y-83829795D01*
X93790948Y-83830711D01*
X93773472Y-83850879D01*
X93758168Y-83860714D01*
X93743525Y-83877614D01*
X93735873Y-83882531D01*
X93718125Y-83903014D01*
X93710473Y-83907931D01*
X93692725Y-83928414D01*
X93685073Y-83933331D01*
X93667325Y-83953814D01*
X93659673Y-83958731D01*
X93641925Y-83979214D01*
X93634273Y-83984131D01*
X93616525Y-84004614D01*
X93608873Y-84009531D01*
X93591125Y-84030014D01*
X93583473Y-84034931D01*
X93565725Y-84055414D01*
X93558073Y-84060331D01*
X93540325Y-84080814D01*
X93532673Y-84085731D01*
X93514925Y-84106214D01*
X93507273Y-84111131D01*
X93489525Y-84131614D01*
X93481873Y-84136531D01*
X93464125Y-84157014D01*
X93456473Y-84161931D01*
X93438725Y-84182414D01*
X93431073Y-84187331D01*
X93413325Y-84207814D01*
X93405673Y-84212731D01*
X93387925Y-84233214D01*
X93380273Y-84238131D01*
X93362525Y-84258614D01*
X93354873Y-84263531D01*
X93337125Y-84284014D01*
X93329473Y-84288931D01*
X93311725Y-84309414D01*
X93304073Y-84314331D01*
X93286325Y-84334814D01*
X93278673Y-84339731D01*
X93260925Y-84360214D01*
X93253273Y-84365131D01*
X93235525Y-84385614D01*
X93227873Y-84390531D01*
X93210125Y-84411014D01*
X93202473Y-84415931D01*
X93184725Y-84436414D01*
X93177073Y-84441331D01*
X93159325Y-84461814D01*
X93151674Y-84466730D01*
X93142592Y-84477212D01*
X93082867Y-84515595D01*
X93075200Y-84517846D01*
X93057725Y-84538014D01*
X93050073Y-84542931D01*
X93032325Y-84563414D01*
X93024673Y-84568331D01*
X93006925Y-84588814D01*
X92999273Y-84593731D01*
X92981525Y-84614214D01*
X92973873Y-84619131D01*
X92956125Y-84639614D01*
X92948473Y-84644531D01*
X92930725Y-84665014D01*
X92923073Y-84669931D01*
X92905325Y-84690414D01*
X92897673Y-84695331D01*
X92879925Y-84715814D01*
X92872273Y-84720731D01*
X92854525Y-84741214D01*
X92846873Y-84746131D01*
X92829125Y-84766614D01*
X92821473Y-84771531D01*
X92803725Y-84792014D01*
X92796073Y-84796931D01*
X92778325Y-84817414D01*
X92770673Y-84822331D01*
X92752925Y-84842814D01*
X92745273Y-84847731D01*
X92727525Y-84868214D01*
X92719873Y-84873131D01*
X92702125Y-84893614D01*
X92694473Y-84898531D01*
X92676725Y-84919014D01*
X92669073Y-84923931D01*
X92651325Y-84944414D01*
X92643673Y-84949331D01*
X92625925Y-84969814D01*
X92618273Y-84974731D01*
X92600525Y-84995214D01*
X92592873Y-85000131D01*
X92575125Y-85020614D01*
X92567473Y-85025531D01*
X92549725Y-85046014D01*
X92542073Y-85050931D01*
X92524325Y-85071414D01*
X92516673Y-85076331D01*
X92498925Y-85096814D01*
X92491274Y-85101730D01*
X92482192Y-85112212D01*
X92422467Y-85150595D01*
X92414800Y-85152846D01*
X92397325Y-85173014D01*
X92389673Y-85177931D01*
X92371925Y-85198414D01*
X92364273Y-85203331D01*
X92346525Y-85223814D01*
X92338873Y-85228731D01*
X92321125Y-85249214D01*
X92313473Y-85254131D01*
X92295725Y-85274614D01*
X92288073Y-85279531D01*
X92270325Y-85300014D01*
X92262673Y-85304931D01*
X92244925Y-85325414D01*
X92237273Y-85330331D01*
X92219525Y-85350814D01*
X92211873Y-85355731D01*
X92194125Y-85376214D01*
X92186473Y-85381131D01*
X92168725Y-85401614D01*
X92161073Y-85406531D01*
X92143325Y-85427014D01*
X92135673Y-85431931D01*
X92117925Y-85452414D01*
X92110273Y-85457331D01*
X92092525Y-85477814D01*
X92084874Y-85482730D01*
X92075792Y-85493212D01*
X92016066Y-85531595D01*
X91998966Y-85536616D01*
X91927970Y-85536616D01*
X91923732Y-85534302D01*
X91910569Y-85531439D01*
X91854839Y-85503543D01*
X91831694Y-85483488D01*
X91826776Y-85475834D01*
X91806295Y-85458088D01*
X91801378Y-85450436D01*
X91780895Y-85432688D01*
X91775978Y-85425036D01*
X91755495Y-85407288D01*
X91750578Y-85399636D01*
X91730095Y-85381888D01*
X91725178Y-85374236D01*
X91704695Y-85356488D01*
X91699778Y-85348836D01*
X91679295Y-85331088D01*
X91674378Y-85323436D01*
X91653895Y-85305688D01*
X91648978Y-85298036D01*
X91628495Y-85280288D01*
X91623578Y-85272636D01*
X91603095Y-85254888D01*
X91598178Y-85247236D01*
X91577695Y-85229488D01*
X91572778Y-85221836D01*
X91552295Y-85204088D01*
X91547379Y-85196438D01*
X91515451Y-85168772D01*
X91473839Y-85147943D01*
X91450694Y-85127888D01*
X91445776Y-85120234D01*
X91425295Y-85102488D01*
X91420378Y-85094836D01*
X91399895Y-85077088D01*
X91394978Y-85069436D01*
X91374495Y-85051688D01*
X91369578Y-85044036D01*
X91349095Y-85026288D01*
X91344178Y-85018636D01*
X91323695Y-85000888D01*
X91318778Y-84993236D01*
X91298295Y-84975488D01*
X91293378Y-84967836D01*
X91272895Y-84950088D01*
X91267978Y-84942436D01*
X91247495Y-84924688D01*
X91242578Y-84917036D01*
X91222095Y-84899288D01*
X91217178Y-84891636D01*
X91196695Y-84873888D01*
X91191778Y-84866236D01*
X91171295Y-84848488D01*
X91166378Y-84840836D01*
X91145895Y-84823088D01*
X91140978Y-84815436D01*
X91120495Y-84797688D01*
X91115578Y-84790036D01*
X91095095Y-84772288D01*
X91090178Y-84764636D01*
X91069695Y-84746888D01*
X91064778Y-84739236D01*
X91044295Y-84721488D01*
X91039378Y-84713836D01*
X91018895Y-84696088D01*
X91013978Y-84688436D01*
X90993495Y-84670688D01*
X90988578Y-84663036D01*
X90968095Y-84645288D01*
X90963178Y-84637636D01*
X90942695Y-84619888D01*
X90937778Y-84612236D01*
X90917295Y-84594488D01*
X90912378Y-84586836D01*
X90891895Y-84569088D01*
X90886978Y-84561436D01*
X90866495Y-84543688D01*
X90861579Y-84536038D01*
X90829651Y-84508372D01*
X90788039Y-84487543D01*
X90764894Y-84467488D01*
X90759976Y-84459834D01*
X90739495Y-84442088D01*
X90734578Y-84434436D01*
X90714095Y-84416688D01*
X90709178Y-84409036D01*
X90688695Y-84391288D01*
X90683778Y-84383636D01*
X90663295Y-84365888D01*
X90658378Y-84358236D01*
X90637895Y-84340488D01*
X90632978Y-84332836D01*
X90612495Y-84315088D01*
X90607578Y-84307436D01*
X90587095Y-84289688D01*
X90582178Y-84282036D01*
X90561695Y-84264288D01*
X90556778Y-84256636D01*
X90536295Y-84238888D01*
X90531378Y-84231236D01*
X90510895Y-84213488D01*
X90505978Y-84205836D01*
X90485495Y-84188088D01*
X90480578Y-84180436D01*
X90460095Y-84162688D01*
X90455178Y-84155036D01*
X90434695Y-84137288D01*
X90429778Y-84129636D01*
X90409295Y-84111888D01*
X90404378Y-84104236D01*
X90383895Y-84086488D01*
X90378978Y-84078836D01*
X90358495Y-84061088D01*
X90353578Y-84053436D01*
X90333095Y-84035688D01*
X90328178Y-84028036D01*
X90307695Y-84010288D01*
X90302778Y-84002636D01*
X90282295Y-83984888D01*
X90277378Y-83977236D01*
X90256895Y-83959488D01*
X90251978Y-83951836D01*
X90231495Y-83934088D01*
X90226578Y-83926436D01*
X90206095Y-83908688D01*
X90201179Y-83901038D01*
X90169251Y-83873372D01*
X90127637Y-83852542D01*
X90114496Y-83841155D01*
X90076114Y-83781430D01*
X90073863Y-83773763D01*
X90053695Y-83756288D01*
X90048778Y-83748636D01*
X90028295Y-83730888D01*
X90023378Y-83723236D01*
X90002895Y-83705488D01*
X89997978Y-83697836D01*
X89977495Y-83680088D01*
X89972578Y-83672436D01*
X89952095Y-83654688D01*
X89947179Y-83647037D01*
X89936697Y-83637955D01*
X89898314Y-83578230D01*
X89896063Y-83570563D01*
X89875895Y-83553088D01*
X89870979Y-83545437D01*
X89860497Y-83536355D01*
X89822114Y-83476630D01*
X89819863Y-83468963D01*
X89799695Y-83451488D01*
X89794779Y-83443837D01*
X89784297Y-83434755D01*
X89745914Y-83375030D01*
X89739817Y-83354266D01*
X89720514Y-83324230D01*
X89714417Y-83303466D01*
X89695114Y-83273430D01*
X89692863Y-83265764D01*
X89682697Y-83256955D01*
X89644314Y-83197230D01*
X89638217Y-83176466D01*
X89618914Y-83146430D01*
X89609588Y-83114670D01*
X89602178Y-83103141D01*
X89601219Y-83096471D01*
X89584189Y-83038471D01*
X89576778Y-83026941D01*
X89575819Y-83020271D01*
X89558789Y-82962271D01*
X89551378Y-82950741D01*
X89546273Y-82915238D01*
X89546273Y-82904551D01*
X89533389Y-82860671D01*
X89525978Y-82849141D01*
X89520873Y-82813638D01*
X89520873Y-82752151D01*
X89507989Y-82708271D01*
X89500578Y-82696741D01*
X89495473Y-82661238D01*
X89495473Y-82523151D01*
X89515475Y-82455030D01*
X89518809Y-82450576D01*
X89520873Y-82441088D01*
X89520873Y-82345351D01*
X89540875Y-82277230D01*
X89544209Y-82272776D01*
X89546273Y-82263288D01*
X89546273Y-82218351D01*
X89566275Y-82150230D01*
X89569609Y-82145776D01*
X89574552Y-82123053D01*
X89577117Y-82123611D01*
X89591675Y-82074030D01*
X89595805Y-82068513D01*
X89620186Y-82019805D01*
X89620208Y-82019705D01*
X89645586Y-81969005D01*
X89645608Y-81968905D01*
X89673503Y-81913177D01*
X89676937Y-81909213D01*
X89697767Y-81867602D01*
X89727736Y-81833016D01*
X89748566Y-81791402D01*
X89768621Y-81768257D01*
X89776275Y-81763339D01*
X89794021Y-81742858D01*
X89801673Y-81737940D01*
X89840274Y-81693393D01*
X89855578Y-81683558D01*
X89870221Y-81666658D01*
X89877873Y-81661741D01*
X89895621Y-81641258D01*
X89903273Y-81636341D01*
X89921021Y-81615858D01*
X89928673Y-81610941D01*
X89946421Y-81590458D01*
X89954072Y-81585542D01*
X89963154Y-81575060D01*
X90022879Y-81536677D01*
X90043643Y-81530580D01*
X90073679Y-81511277D01*
X90094443Y-81505180D01*
X90124479Y-81485877D01*
X90145243Y-81479780D01*
X90175279Y-81460477D01*
X90196043Y-81454380D01*
X90226079Y-81435077D01*
X90257839Y-81425751D01*
X90269368Y-81418341D01*
X90276038Y-81417382D01*
X90334038Y-81400352D01*
X90345568Y-81392941D01*
X90352238Y-81391982D01*
X90410238Y-81374952D01*
X90421768Y-81367541D01*
X90457271Y-81362436D01*
X90493358Y-81362436D01*
X90537238Y-81349552D01*
X90548768Y-81342141D01*
X90584271Y-81337036D01*
X90950958Y-81337036D01*
X91019079Y-81357038D01*
G37*
%LPC*%
D13*
X74000000Y-95000000D03*
X162510000Y-76000000D03*
X162510000Y-114000000D03*
D14*
X159500000Y-87750000D03*
D15*
X74100000Y-77240000D03*
X74100000Y-79780000D03*
X74100000Y-82320000D03*
X74100000Y-84860000D03*
D16*
X74100000Y-87400000D03*
X81050000Y-84960000D03*
D15*
X81050000Y-82420000D03*
X81050000Y-79880000D03*
X81050000Y-77340000D03*
D17*
X103000000Y-82600000D03*
X96500000Y-82600000D03*
X103000000Y-87100000D03*
X96500000Y-87100000D03*
D14*
X159500000Y-71250000D03*
D18*
X120350000Y-73000000D03*
D14*
X159500000Y-102250000D03*
D19*
X72490000Y-71200000D03*
D20*
X75030000Y-71200000D03*
X77570000Y-71200000D03*
X80110000Y-71200000D03*
D16*
X74100000Y-106000000D03*
D15*
X74100000Y-103460000D03*
X74100000Y-100920000D03*
X74100000Y-109690000D03*
X74100000Y-112230000D03*
X74100000Y-114770000D03*
X74100000Y-117310000D03*
D16*
X74100000Y-119850000D03*
D14*
X159500000Y-119000000D03*
X159500000Y-80600000D03*
X159500000Y-109400000D03*
D21*
X94290000Y-116645000D03*
X88510000Y-116645000D03*
D22*
X95720000Y-116145000D03*
X87080000Y-116145000D03*
D23*
X87080000Y-120325000D03*
X95720000Y-120325000D03*
D18*
X127350000Y-73000000D03*
G36*
X137906418Y-85970917D02*
G01*
X137942382Y-86020417D01*
X137947227Y-86050893D01*
X137952026Y-90116364D01*
X137933187Y-90174577D01*
X137883730Y-90210599D01*
X137853803Y-90215478D01*
X134294144Y-90243408D01*
X134235806Y-90224958D01*
X134199455Y-90175741D01*
X134194367Y-90144346D01*
X134197045Y-86050945D01*
X134215990Y-85992767D01*
X134265514Y-85956835D01*
X134296045Y-85952010D01*
X137848227Y-85952010D01*
X137906418Y-85970917D01*
G37*
G36*
X146783121Y-85543907D02*
G01*
X146819085Y-85593407D01*
X146823924Y-85625064D01*
X146776053Y-90077064D01*
X146756521Y-90135049D01*
X146706638Y-90170478D01*
X146677059Y-90175000D01*
X140374000Y-90175000D01*
X140315809Y-90156093D01*
X140279845Y-90106593D01*
X140275000Y-90076000D01*
X140275000Y-85624000D01*
X140293907Y-85565809D01*
X140343407Y-85529845D01*
X140374000Y-85525000D01*
X146724930Y-85525000D01*
X146783121Y-85543907D01*
G37*
G36*
X138256418Y-99845917D02*
G01*
X138292382Y-99895417D01*
X138297227Y-99925893D01*
X138302026Y-103991364D01*
X138283187Y-104049577D01*
X138233730Y-104085599D01*
X138203803Y-104090478D01*
X134644144Y-104118408D01*
X134585806Y-104099958D01*
X134549455Y-104050741D01*
X134544367Y-104019346D01*
X134547045Y-99925945D01*
X134565990Y-99867767D01*
X134615514Y-99831835D01*
X134646045Y-99827010D01*
X138198227Y-99827010D01*
X138256418Y-99845917D01*
G37*
G36*
X137881418Y-108220917D02*
G01*
X137917382Y-108270417D01*
X137922227Y-108300893D01*
X137927026Y-112366364D01*
X137908187Y-112424577D01*
X137858730Y-112460599D01*
X137828803Y-112465478D01*
X134269144Y-112493408D01*
X134210806Y-112474958D01*
X134174455Y-112425741D01*
X134169367Y-112394346D01*
X134172045Y-108300945D01*
X134190990Y-108242767D01*
X134240514Y-108206835D01*
X134271045Y-108202010D01*
X137823227Y-108202010D01*
X137881418Y-108220917D01*
G37*
G36*
X146708121Y-99693907D02*
G01*
X146744085Y-99743407D01*
X146748924Y-99775064D01*
X146701053Y-104227064D01*
X146681521Y-104285049D01*
X146631638Y-104320478D01*
X146602059Y-104325000D01*
X140299000Y-104325000D01*
X140240809Y-104306093D01*
X140204845Y-104256593D01*
X140200000Y-104226000D01*
X140200000Y-99774000D01*
X140218907Y-99715809D01*
X140268407Y-99679845D01*
X140299000Y-99675000D01*
X146649930Y-99675000D01*
X146708121Y-99693907D01*
G37*
G36*
X137984308Y-69193907D02*
G01*
X138020272Y-69243407D01*
X138025117Y-69273883D01*
X138029916Y-73339354D01*
X138011077Y-73397567D01*
X137961620Y-73433589D01*
X137931693Y-73438468D01*
X134372034Y-73466398D01*
X134313696Y-73447948D01*
X134277345Y-73398731D01*
X134272257Y-73367336D01*
X134274935Y-69273935D01*
X134293880Y-69215757D01*
X134343404Y-69179825D01*
X134373935Y-69175000D01*
X137926117Y-69175000D01*
X137984308Y-69193907D01*
G37*
G36*
X146783121Y-108168907D02*
G01*
X146819085Y-108218407D01*
X146823924Y-108250064D01*
X146776053Y-112702064D01*
X146756521Y-112760049D01*
X146706638Y-112795478D01*
X146677059Y-112800000D01*
X140374000Y-112800000D01*
X140315809Y-112781093D01*
X140279845Y-112731593D01*
X140275000Y-112701000D01*
X140275000Y-108249000D01*
X140293907Y-108190809D01*
X140343407Y-108154845D01*
X140374000Y-108150000D01*
X146724930Y-108150000D01*
X146783121Y-108168907D01*
G37*
G36*
X146558121Y-69018907D02*
G01*
X146594085Y-69068407D01*
X146598924Y-69100064D01*
X146551053Y-73552064D01*
X146531521Y-73610049D01*
X146481638Y-73645478D01*
X146452059Y-73650000D01*
X140149000Y-73650000D01*
X140090809Y-73631093D01*
X140054845Y-73581593D01*
X140050000Y-73551000D01*
X140050000Y-69099000D01*
X140068907Y-69040809D01*
X140118407Y-69004845D01*
X140149000Y-69000000D01*
X146499930Y-69000000D01*
X146558121Y-69018907D01*
G37*
G36*
X137906418Y-116745917D02*
G01*
X137942382Y-116795417D01*
X137947227Y-116825893D01*
X137952026Y-120891364D01*
X137933187Y-120949577D01*
X137883730Y-120985599D01*
X137853803Y-120990478D01*
X134294144Y-121018408D01*
X134235806Y-120999958D01*
X134199455Y-120950741D01*
X134194367Y-120919346D01*
X134197045Y-116825945D01*
X134215990Y-116767767D01*
X134265514Y-116731835D01*
X134296045Y-116727010D01*
X137848227Y-116727010D01*
X137906418Y-116745917D01*
G37*
G36*
X137881418Y-77470917D02*
G01*
X137917382Y-77520417D01*
X137922227Y-77550893D01*
X137927026Y-81616364D01*
X137908187Y-81674577D01*
X137858730Y-81710599D01*
X137828803Y-81715478D01*
X134269144Y-81743408D01*
X134210806Y-81724958D01*
X134174455Y-81675741D01*
X134169367Y-81644346D01*
X134172045Y-77550945D01*
X134190990Y-77492767D01*
X134240514Y-77456835D01*
X134271045Y-77452010D01*
X137823227Y-77452010D01*
X137881418Y-77470917D01*
G37*
G36*
X146733121Y-116543907D02*
G01*
X146769085Y-116593407D01*
X146773924Y-116625064D01*
X146726053Y-121077064D01*
X146706521Y-121135049D01*
X146656638Y-121170478D01*
X146627059Y-121175000D01*
X140324000Y-121175000D01*
X140265809Y-121156093D01*
X140229845Y-121106593D01*
X140225000Y-121076000D01*
X140225000Y-116624000D01*
X140243907Y-116565809D01*
X140293407Y-116529845D01*
X140324000Y-116525000D01*
X146674930Y-116525000D01*
X146733121Y-116543907D01*
G37*
G36*
X146783121Y-77343907D02*
G01*
X146819085Y-77393407D01*
X146823924Y-77425064D01*
X146776053Y-81877064D01*
X146756521Y-81935049D01*
X146706638Y-81970478D01*
X146677059Y-81975000D01*
X140374000Y-81975000D01*
X140315809Y-81956093D01*
X140279845Y-81906593D01*
X140275000Y-81876000D01*
X140275000Y-77424000D01*
X140293907Y-77365809D01*
X140343407Y-77329845D01*
X140374000Y-77325000D01*
X146724930Y-77325000D01*
X146783121Y-77343907D01*
G37*
M02*
