M48
; DRILL file {KiCad 6.0.0-rc2} date Fri 17 Jun 2022 12:24:58 AM PDT
; FORMAT={-:-/ absolute / metric / decimal}
; #@! TF.CreationDate,2022-06-17T00:24:58-07:00
; #@! TF.GenerationSoftware,Kicad,Pcbnew,6.0.0-rc2
; #@! TF.FileFunction,Plated,1,4,PTH
FMAT,2
METRIC
; #@! TA.AperFunction,Plated,PTH,ViaDrill
T1C0.200
; #@! TA.AperFunction,Plated,PTH,ComponentDrill
T2C0.200
; #@! TA.AperFunction,Plated,PTH,ViaDrill
T3C0.400
; #@! TA.AperFunction,Plated,PTH,ComponentDrill
T4C0.600
; #@! TA.AperFunction,Plated,PTH,ComponentDrill
T5C1.100
; #@! TA.AperFunction,Plated,PTH,ComponentDrill
T6C1.190
; #@! TA.AperFunction,Plated,PTH,ComponentDrill
T7C2.300
; #@! TA.AperFunction,Plated,PTH,ComponentDrill
T8C3.500
%
G90
G05
T1
X80.142Y-103.469
X80.59Y-90.7
X80.59Y-105.1
X80.644Y-104.091
X81.19Y-89.6
X81.905Y-89.958
X82.29Y-99.3
X82.34Y-100.45
X82.489Y-103.345
X82.79Y-105.7
X82.89Y-108.0
X82.99Y-104.7
X83.14Y-88.55
X83.39Y-106.6
X83.44Y-116.65
X83.44Y-118.65
X83.94Y-113.15
X84.29Y-106.9
X85.19Y-116.65
X85.69Y-101.1
X85.69Y-104.249
X85.79Y-100.25
X85.84Y-105.05
X85.89Y-90.5
X86.19Y-113.65
X86.59Y-104.65
X87.19Y-101.4
X87.39Y-100.05
X87.693Y-98.397
X88.282Y-99.598
X88.69Y-92.4
X88.879Y-104.4
X88.898Y-103.062
X88.94Y-91.05
X88.94Y-113.65
X89.037Y-102.11
X89.49Y-97.15
X89.64Y-109.9
X90.19Y-110.5
X90.389Y-99.201
X90.64Y-106.75
X90.69Y-113.9
X90.78Y-102.55
X90.79Y-89.299
X91.3Y-85.8
X91.3Y-86.5
X91.64Y-110.0
X91.94Y-117.15
X92.09Y-89.3
X92.89Y-82.8
X93.037Y-85.086
X94.29Y-89.0
X94.29Y-96.85
X94.44Y-113.15
X94.54Y-108.15
X94.6Y-85.7
X94.6Y-86.5
X94.94Y-109.4
X95.24Y-99.45
X95.29Y-90.4
X95.44Y-100.9
X95.59Y-96.85
X95.69Y-94.4
X95.74Y-95.6
X95.89Y-107.325
X96.14Y-97.45
X96.19Y-99.65
X96.19Y-101.35
X96.69Y-112.55
X96.84Y-102.0
X96.89Y-91.251
X96.99Y-102.9
X97.39Y-104.65
X97.44Y-113.65
X97.49Y-106.45
X97.59Y-91.9
X97.94Y-104.0
X98.29Y-98.5
X98.39Y-105.2
X98.44Y-92.65
X98.44Y-93.8
X98.74Y-106.6
X98.89Y-111.9
X99.19Y-113.65
X99.29Y-105.75
X100.44Y-115.4
X100.49Y-105.65
X100.64Y-103.2
X101.19Y-106.9
X101.384Y-79.394
X102.59Y-101.5
X112.44Y-105.9
X112.94Y-98.4
X112.94Y-113.65
X112.94Y-114.65
X113.039Y-90.45
X113.19Y-105.4
X113.4Y-88.94
X113.44Y-100.15
X133.181Y-86.0
X133.181Y-86.75
X133.181Y-87.5
X133.181Y-88.25
X133.181Y-89.0
X133.181Y-116.78
X133.181Y-117.53
X133.181Y-118.28
X133.181Y-119.03
X133.181Y-119.78
X133.29Y-77.57
X133.29Y-78.32
X133.29Y-79.07
X133.29Y-79.82
X133.29Y-80.57
X133.29Y-108.35
X133.29Y-109.1
X133.29Y-109.85
X133.29Y-110.6
X133.29Y-111.35
X133.54Y-69.22
X133.54Y-69.97
X133.54Y-70.72
X133.54Y-71.47
X133.54Y-72.22
X133.54Y-99.9
X133.54Y-100.65
X133.54Y-101.4
X133.54Y-102.15
X133.54Y-102.9
X133.931Y-86.0
X133.931Y-86.75
X133.931Y-87.5
X133.931Y-88.25
X133.931Y-89.0
X133.931Y-116.78
X133.931Y-117.53
X133.931Y-118.28
X133.931Y-119.03
X133.931Y-119.78
X134.04Y-77.57
X134.04Y-78.32
X134.04Y-79.07
X134.04Y-79.82
X134.04Y-80.57
X134.04Y-108.35
X134.04Y-109.1
X134.04Y-109.85
X134.04Y-110.6
X134.04Y-111.35
X134.29Y-69.22
X134.29Y-69.97
X134.29Y-70.72
X134.29Y-71.47
X134.29Y-72.22
X134.29Y-99.9
X134.29Y-100.65
X134.29Y-101.4
X134.29Y-102.15
X134.29Y-102.9
X134.681Y-86.0
X134.681Y-86.75
X134.681Y-87.5
X134.681Y-88.25
X134.681Y-89.0
X134.681Y-116.78
X134.681Y-117.53
X134.681Y-118.28
X134.681Y-119.03
X134.681Y-119.78
X134.79Y-77.57
X134.79Y-78.32
X134.79Y-80.57
X134.79Y-108.35
X134.79Y-109.1
X134.79Y-111.35
X134.802Y-79.07
X134.802Y-79.82
X134.802Y-109.85
X134.802Y-110.6
X135.022Y-69.97
X135.022Y-70.72
X135.022Y-100.65
X135.022Y-101.4
X135.04Y-69.22
X135.04Y-71.47
X135.04Y-72.22
X135.04Y-99.9
X135.04Y-102.15
X135.04Y-102.9
X135.431Y-86.0
X135.431Y-86.75
X135.431Y-87.5
X135.431Y-88.25
X135.431Y-89.0
X135.431Y-116.78
X135.431Y-117.53
X135.431Y-118.28
X135.431Y-119.03
X135.431Y-119.78
X135.54Y-77.57
X135.54Y-78.32
X135.54Y-79.07
X135.54Y-79.82
X135.54Y-80.57
X135.54Y-108.35
X135.54Y-109.1
X135.54Y-109.85
X135.54Y-110.6
X135.54Y-111.35
X135.79Y-69.22
X135.79Y-69.97
X135.79Y-70.72
X135.79Y-71.47
X135.79Y-72.22
X135.79Y-99.9
X135.79Y-100.65
X135.79Y-101.4
X135.79Y-102.15
X135.79Y-102.9
X137.2Y-98.7
X138.971Y-116.811
X138.971Y-117.561
X138.971Y-118.311
X138.971Y-119.061
X138.971Y-119.811
X139.021Y-69.231
X139.021Y-69.981
X139.021Y-70.731
X139.021Y-71.481
X139.021Y-72.231
X139.021Y-77.581
X139.021Y-78.331
X139.021Y-79.081
X139.021Y-79.831
X139.021Y-80.581
X139.021Y-86.031
X139.021Y-86.781
X139.021Y-87.531
X139.021Y-88.281
X139.021Y-89.031
X139.021Y-99.861
X139.021Y-100.611
X139.021Y-101.361
X139.021Y-102.111
X139.021Y-102.861
X139.021Y-108.361
X139.021Y-109.111
X139.021Y-109.861
X139.021Y-110.611
X139.021Y-111.361
X139.1Y-94.4
X139.721Y-116.811
X139.721Y-117.561
X139.721Y-118.311
X139.721Y-119.061
X139.721Y-119.811
X139.771Y-69.231
X139.771Y-69.981
X139.771Y-70.731
X139.771Y-71.481
X139.771Y-72.231
X139.771Y-77.581
X139.771Y-78.331
X139.771Y-79.081
X139.771Y-79.831
X139.771Y-80.581
X139.771Y-86.031
X139.771Y-86.781
X139.771Y-87.531
X139.771Y-88.281
X139.771Y-89.031
X139.771Y-99.861
X139.771Y-100.611
X139.771Y-101.361
X139.771Y-102.111
X139.771Y-102.861
X139.771Y-108.361
X139.771Y-109.111
X139.771Y-109.861
X139.771Y-110.611
X139.771Y-111.361
X141.89Y-94.2
X142.09Y-96.389
X142.121Y-69.2
X142.121Y-69.95
X142.121Y-70.7
X142.121Y-71.45
X142.121Y-72.2
X142.121Y-86.0
X142.121Y-86.75
X142.121Y-87.5
X142.121Y-88.25
X142.121Y-89.0
X142.121Y-99.88
X142.121Y-100.63
X142.121Y-101.38
X142.121Y-102.13
X142.121Y-102.88
X142.121Y-116.78
X142.121Y-117.53
X142.121Y-118.28
X142.121Y-119.03
X142.121Y-119.78
X142.371Y-77.55
X142.371Y-78.3
X142.371Y-79.05
X142.371Y-79.8
X142.371Y-80.55
X142.371Y-108.33
X142.371Y-109.08
X142.371Y-109.83
X142.371Y-110.58
X142.371Y-111.33
X142.871Y-69.2
X142.871Y-69.95
X142.871Y-70.7
X142.871Y-71.45
X142.871Y-72.2
X142.871Y-86.0
X142.871Y-86.75
X142.871Y-87.5
X142.871Y-88.25
X142.871Y-89.0
X142.871Y-99.88
X142.871Y-100.63
X142.871Y-101.38
X142.871Y-102.13
X142.871Y-102.88
X142.871Y-116.78
X142.871Y-117.53
X142.871Y-118.28
X142.871Y-119.03
X142.871Y-119.78
X143.121Y-77.55
X143.121Y-78.3
X143.121Y-79.05
X143.121Y-79.8
X143.121Y-80.55
X143.121Y-108.33
X143.121Y-109.08
X143.121Y-109.83
X143.121Y-110.58
X143.121Y-111.33
X143.55Y-96.5
X143.621Y-69.2
X143.621Y-69.95
X143.621Y-70.7
X143.621Y-71.45
X143.621Y-72.2
X143.621Y-86.0
X143.621Y-86.75
X143.621Y-87.5
X143.621Y-88.25
X143.621Y-89.0
X143.621Y-99.88
X143.621Y-100.63
X143.621Y-101.38
X143.621Y-102.13
X143.621Y-102.88
X143.621Y-116.78
X143.621Y-117.53
X143.621Y-118.28
X143.621Y-119.03
X143.621Y-119.78
X143.7Y-92.5
X143.871Y-77.55
X143.871Y-78.3
X143.871Y-79.05
X143.871Y-79.8
X143.871Y-80.55
X143.871Y-108.33
X143.871Y-109.08
X143.871Y-109.83
X143.871Y-110.58
X143.871Y-111.33
X144.371Y-69.2
X144.371Y-69.95
X144.371Y-70.7
X144.371Y-71.45
X144.371Y-72.2
X144.371Y-86.0
X144.371Y-86.75
X144.371Y-87.5
X144.371Y-88.25
X144.371Y-89.0
X144.371Y-99.88
X144.371Y-100.63
X144.371Y-101.38
X144.371Y-102.13
X144.371Y-102.88
X144.371Y-116.78
X144.371Y-117.53
X144.371Y-118.28
X144.371Y-119.03
X144.371Y-119.78
X144.621Y-77.55
X144.621Y-78.3
X144.621Y-79.05
X144.621Y-79.8
X144.621Y-80.55
X144.621Y-108.33
X144.621Y-109.08
X144.621Y-109.83
X144.621Y-110.58
X144.621Y-111.33
X145.2Y-83.8
X147.2Y-99.5
X149.49Y-93.5
X150.09Y-97.8
X150.2Y-91.35
X150.35Y-95.15
X152.29Y-120.2
X152.59Y-69.7
X152.761Y-92.865
X152.89Y-96.5
X157.69Y-94.7
X157.89Y-92.6
X158.09Y-96.5
T2
X90.105Y-103.375
X90.105Y-104.65
X90.105Y-105.925
X91.38Y-103.375
X91.38Y-104.65
X91.38Y-105.925
X92.655Y-103.375
X92.655Y-104.65
X92.655Y-105.925
T3
X76.89Y-90.6
X82.69Y-69.2
X84.29Y-79.7
X84.44Y-108.85
X84.44Y-110.6
X85.09Y-70.4
X86.69Y-76.8
X88.09Y-79.6
X88.44Y-112.4
X90.29Y-77.8
X90.29Y-78.8
X91.94Y-112.9
X92.49Y-77.8
X92.49Y-78.8
X94.49Y-74.2
X94.89Y-78.8
X95.49Y-74.6
X96.94Y-110.15
X97.99Y-88.8
X98.39Y-83.9
X98.49Y-78.6
X99.69Y-107.9
X100.29Y-73.2
X100.29Y-74.2
X100.29Y-75.2
X101.29Y-73.2
X101.29Y-74.2
X101.29Y-75.2
X101.69Y-98.4
X102.29Y-119.6
X103.09Y-95.3
X103.69Y-113.65
X104.29Y-72.7
X105.29Y-70.2
X105.39Y-77.8
X106.59Y-74.4
X106.69Y-71.3
X106.79Y-114.9
X106.8Y-112.8
X106.89Y-81.4
X107.09Y-84.9
X107.59Y-70.1
X107.89Y-98.2
X108.09Y-89.87
X108.29Y-119.8
X108.723Y-92.442
X108.89Y-110.8
X108.99Y-102.45
X109.19Y-70.0
X109.19Y-74.4
X109.367Y-94.751
X109.922Y-93.888
X110.14Y-95.55
X110.507Y-93.077
X110.69Y-69.8
X111.19Y-72.2
X111.29Y-102.55
X111.79Y-85.2
X111.99Y-111.6
X112.19Y-117.0
X112.3Y-96.3
X112.39Y-109.65
X112.49Y-70.5
X112.79Y-86.9
X112.9Y-82.3
X113.39Y-91.95
X113.49Y-76.9
X113.5Y-84.8
X114.59Y-81.4
X114.89Y-78.9
X114.99Y-75.2
X115.1Y-77.1
X115.59Y-72.7
X115.89Y-70.6
X116.2Y-118.1
X116.39Y-104.45
X116.39Y-112.5
X116.4Y-96.35
X116.7Y-91.1
X116.79Y-87.6
X116.8Y-99.3
X117.79Y-109.4
X117.99Y-84.12
X118.2Y-114.2
X118.3Y-78.0
X118.39Y-80.1
X118.69Y-88.9
X119.3Y-119.5
X119.54Y-100.45
X119.59Y-87.82
X119.59Y-106.25
X119.59Y-115.1
X119.64Y-77.37
X119.64Y-78.37
X119.64Y-83.12
X119.64Y-84.12
X119.64Y-86.82
X119.64Y-91.57
X119.64Y-92.57
X119.64Y-96.8
X119.64Y-97.8
X119.64Y-102.55
X119.64Y-103.55
X119.64Y-105.25
X119.64Y-111.0
X119.64Y-112.0
X119.64Y-114.1
X119.64Y-118.45
X120.54Y-100.45
X120.59Y-87.82
X120.59Y-106.25
X120.59Y-115.1
X120.64Y-77.37
X120.64Y-78.37
X120.64Y-83.12
X120.64Y-84.12
X120.64Y-86.82
X120.64Y-91.57
X120.64Y-92.57
X120.64Y-96.8
X120.64Y-97.8
X120.64Y-102.55
X120.64Y-103.55
X120.64Y-105.25
X120.64Y-111.0
X120.64Y-112.0
X120.64Y-114.1
X120.64Y-118.45
X121.54Y-100.45
X121.59Y-87.82
X121.59Y-106.25
X121.59Y-115.1
X121.64Y-77.37
X121.64Y-78.37
X121.64Y-83.12
X121.64Y-84.12
X121.64Y-86.82
X121.64Y-91.57
X121.64Y-92.57
X121.64Y-96.8
X121.64Y-97.8
X121.64Y-102.55
X121.64Y-103.55
X121.64Y-105.25
X121.64Y-111.0
X121.64Y-112.0
X121.64Y-114.1
X121.64Y-118.45
X122.54Y-100.45
X122.59Y-87.82
X122.59Y-106.25
X122.59Y-115.1
X122.64Y-77.37
X122.64Y-78.37
X122.64Y-83.12
X122.64Y-84.12
X122.64Y-86.82
X122.64Y-91.57
X122.64Y-92.57
X122.64Y-96.8
X122.64Y-97.8
X122.64Y-102.55
X122.64Y-103.55
X122.64Y-105.25
X122.64Y-111.0
X122.64Y-112.0
X122.64Y-114.1
X122.64Y-118.45
X136.4Y-115.6
X136.59Y-68.15
X136.69Y-106.75
X136.9Y-76.4
X136.99Y-84.6
X144.69Y-115.3
X144.9Y-106.1
X145.19Y-76.0
X146.19Y-68.15
X149.19Y-95.7
X151.89Y-105.7
X151.89Y-106.7
X151.89Y-113.6
X151.89Y-114.6
X151.99Y-75.4
X151.99Y-76.4
X152.04Y-83.33
X152.04Y-84.33
X152.84Y-105.67
X152.84Y-106.67
X152.84Y-113.57
X152.84Y-114.57
X152.94Y-75.37
X152.94Y-76.37
X152.99Y-83.3
X152.99Y-84.3
X153.84Y-105.67
X153.84Y-106.67
X153.84Y-113.57
X153.84Y-114.57
X153.94Y-75.37
X153.94Y-76.37
X153.99Y-83.3
X153.99Y-84.3
X154.84Y-105.67
X154.84Y-106.67
X154.84Y-113.57
X154.84Y-114.57
X154.94Y-75.37
X154.94Y-76.37
X154.99Y-83.3
X154.99Y-84.3
X155.84Y-105.67
X155.84Y-106.67
X155.84Y-113.57
X155.84Y-114.57
X155.94Y-75.37
X155.94Y-76.37
X155.99Y-83.3
X155.99Y-84.3
X156.84Y-105.67
X156.84Y-106.67
X156.84Y-113.57
X156.84Y-114.57
X156.94Y-75.37
X156.94Y-76.37
X156.99Y-83.3
X156.99Y-84.3
X157.79Y-105.7
X157.79Y-106.7
X157.79Y-113.6
X157.79Y-114.6
X157.89Y-75.4
X157.89Y-76.4
X157.94Y-83.33
X157.94Y-84.33
X158.79Y-105.7
X158.79Y-106.7
X158.79Y-113.6
X158.79Y-114.6
X158.89Y-75.4
X158.89Y-76.4
X158.94Y-83.33
X158.94Y-84.33
X159.79Y-105.7
X159.79Y-106.7
X159.79Y-113.6
X159.79Y-114.6
X159.89Y-75.4
X159.89Y-76.4
X159.94Y-83.33
X159.94Y-84.33
T5
X96.49Y-82.0
X96.49Y-86.5
X102.99Y-82.0
X102.99Y-86.5
T6
X78.85Y-69.73
X78.85Y-72.27
X78.85Y-74.81
X78.85Y-77.35
X78.85Y-81.08
X78.85Y-83.62
X78.85Y-86.16
X78.85Y-88.7
X78.85Y-92.4
X78.85Y-94.94
X78.85Y-97.48
X78.85Y-100.02
X78.85Y-102.56
X78.85Y-105.1
X78.85Y-108.89
X78.85Y-111.43
X78.85Y-113.97
X78.85Y-116.51
X78.85Y-119.05
X84.21Y-85.9
X86.75Y-85.9
X89.29Y-85.9
T7
X157.719Y-71.88
X157.719Y-110.05
X157.819Y-79.77
X157.819Y-101.91
X157.919Y-87.32
X157.919Y-118.0
T8
X120.84Y-72.4
X128.09Y-72.4
T4
X87.07Y-114.995G85X87.07Y-116.095
G05
X87.07Y-119.425G85X87.07Y-120.025
G05
X95.71Y-114.995G85X95.71Y-116.095
G05
X95.71Y-119.425G85X95.71Y-120.025
G05
T0
M30
