%FSLAX45Y45*%
G04 Gerber Fmt 4.5, Leading zero omitted, Abs format (unit mm)*
G04 Created by KiCad (PCBNEW 6.0.0-rc2) date 2022-06-17 00:24:59*
%MOMM*%
%LPD*%
G01*
G04 APERTURE LIST*
%TA.AperFunction,Profile*%
%ADD10C,0.050000*%
%TD*%
%ADD11C,0.200000*%
%ADD12C,0.020000*%
%ADD13C,0.040000*%
%ADD14C,0.060000*%
%ADD15C,0.110000*%
%ADD16C,0.119000*%
%ADD17C,0.230000*%
%ADD18C,0.350000*%
G04 APERTURE END LIST*
D10*
X7544000Y-11965000D02*
X7544000Y-6915000D01*
X15919000Y-12140000D02*
G75*
G03*
X16094000Y-11965000I0J175000D01*
G01*
X15919000Y-12140000D02*
X7719000Y-12140000D01*
X7719000Y-6740000D02*
G75*
G03*
X7544000Y-6915000I0J-175000D01*
G01*
X16094000Y-6915000D02*
G75*
G03*
X15919000Y-6740000I-175000J0D01*
G01*
X7544000Y-11965000D02*
G75*
G03*
X7719000Y-12140000I175000J0D01*
G01*
X15919000Y-6740000D02*
X7719000Y-6740000D01*
X16094000Y-6915000D02*
X16094000Y-11965000D01*
D11*
D12*
X8004195Y-10336927D02*
X8024195Y-10356927D01*
X8024195Y-10336927D02*
X8004195Y-10356927D01*
X8049000Y-9060000D02*
X8069000Y-9080000D01*
X8069000Y-9060000D02*
X8049000Y-9080000D01*
X8049000Y-10500000D02*
X8069000Y-10520000D01*
X8069000Y-10500000D02*
X8049000Y-10520000D01*
X8054444Y-10399113D02*
X8074444Y-10419113D01*
X8074444Y-10399113D02*
X8054444Y-10419113D01*
X8109000Y-8950000D02*
X8129000Y-8970000D01*
X8129000Y-8950000D02*
X8109000Y-8970000D01*
X8180510Y-8985755D02*
X8200510Y-9005755D01*
X8200510Y-8985755D02*
X8180510Y-9005755D01*
X8219000Y-9920000D02*
X8239000Y-9940000D01*
X8239000Y-9920000D02*
X8219000Y-9940000D01*
X8224000Y-10035000D02*
X8244000Y-10055000D01*
X8244000Y-10035000D02*
X8224000Y-10055000D01*
X8238950Y-10324499D02*
X8258950Y-10344499D01*
X8258950Y-10324499D02*
X8238950Y-10344499D01*
X8269000Y-10560000D02*
X8289000Y-10580000D01*
X8289000Y-10560000D02*
X8269000Y-10580000D01*
X8279000Y-10790000D02*
X8299000Y-10810000D01*
X8299000Y-10790000D02*
X8279000Y-10810000D01*
X8289000Y-10460000D02*
X8309000Y-10480000D01*
X8309000Y-10460000D02*
X8289000Y-10480000D01*
X8304000Y-8845000D02*
X8324000Y-8865000D01*
X8324000Y-8845000D02*
X8304000Y-8865000D01*
X8329000Y-10650000D02*
X8349000Y-10670000D01*
X8349000Y-10650000D02*
X8329000Y-10670000D01*
X8334000Y-11655000D02*
X8354000Y-11675000D01*
X8354000Y-11655000D02*
X8334000Y-11675000D01*
X8334000Y-11855000D02*
X8354000Y-11875000D01*
X8354000Y-11855000D02*
X8334000Y-11875000D01*
X8384000Y-11305000D02*
X8404000Y-11325000D01*
X8404000Y-11305000D02*
X8384000Y-11325000D01*
X8419000Y-10680000D02*
X8439000Y-10700000D01*
X8439000Y-10680000D02*
X8419000Y-10700000D01*
X8509000Y-11655000D02*
X8529000Y-11675000D01*
X8529000Y-11655000D02*
X8509000Y-11675000D01*
X8559000Y-10100000D02*
X8579000Y-10120000D01*
X8579000Y-10100000D02*
X8559000Y-10120000D01*
X8559000Y-10414950D02*
X8579000Y-10434950D01*
X8579000Y-10414950D02*
X8559000Y-10434950D01*
X8569000Y-10015000D02*
X8589000Y-10035000D01*
X8589000Y-10015000D02*
X8569000Y-10035000D01*
X8574000Y-10495000D02*
X8594000Y-10515000D01*
X8594000Y-10495000D02*
X8574000Y-10515000D01*
X8579000Y-9040000D02*
X8599000Y-9060000D01*
X8599000Y-9040000D02*
X8579000Y-9060000D01*
X8609000Y-11355000D02*
X8629000Y-11375000D01*
X8629000Y-11355000D02*
X8609000Y-11375000D01*
X8649000Y-10455050D02*
X8669000Y-10475050D01*
X8669000Y-10455050D02*
X8649000Y-10475050D01*
X8709000Y-10130000D02*
X8729000Y-10150000D01*
X8729000Y-10130000D02*
X8709000Y-10150000D01*
X8729000Y-9995000D02*
X8749000Y-10015000D01*
X8749000Y-9995000D02*
X8729000Y-10015000D01*
X8759338Y-9829662D02*
X8779338Y-9849662D01*
X8779338Y-9829662D02*
X8759338Y-9849662D01*
X8818203Y-9949764D02*
X8838203Y-9969764D01*
X8838203Y-9949764D02*
X8818203Y-9969764D01*
X8859000Y-9230000D02*
X8879000Y-9250000D01*
X8879000Y-9230000D02*
X8859000Y-9250000D01*
X8877950Y-10430000D02*
X8897950Y-10450000D01*
X8897950Y-10430000D02*
X8877950Y-10450000D01*
X8879757Y-10296214D02*
X8899757Y-10316214D01*
X8899757Y-10296214D02*
X8879757Y-10316214D01*
X8884000Y-9095000D02*
X8904000Y-9115000D01*
X8904000Y-9095000D02*
X8884000Y-9115000D01*
X8884000Y-11355000D02*
X8904000Y-11375000D01*
X8904000Y-11355000D02*
X8884000Y-11375000D01*
X8893703Y-10201021D02*
X8913703Y-10221021D01*
X8913703Y-10201021D02*
X8893703Y-10221021D01*
X8939000Y-9705000D02*
X8959000Y-9725000D01*
X8959000Y-9705000D02*
X8939000Y-9725000D01*
X8954000Y-10980000D02*
X8974000Y-11000000D01*
X8974000Y-10980000D02*
X8954000Y-11000000D01*
X9009000Y-11040000D02*
X9029000Y-11060000D01*
X9029000Y-11040000D02*
X9009000Y-11060000D01*
X9028884Y-9910116D02*
X9048884Y-9930116D01*
X9048884Y-9910116D02*
X9028884Y-9930116D01*
X9054000Y-10665000D02*
X9074000Y-10685000D01*
X9074000Y-10665000D02*
X9054000Y-10685000D01*
X9059000Y-11380000D02*
X9079000Y-11400000D01*
X9079000Y-11380000D02*
X9059000Y-11400000D01*
X9068003Y-10245000D02*
X9088003Y-10265000D01*
X9088003Y-10245000D02*
X9068003Y-10265000D01*
X9069000Y-8919950D02*
X9089000Y-8939950D01*
X9089000Y-8919950D02*
X9069000Y-8939950D01*
X9120000Y-8570000D02*
X9140000Y-8590000D01*
X9140000Y-8570000D02*
X9120000Y-8590000D01*
X9120000Y-8640000D02*
X9140000Y-8660000D01*
X9140000Y-8640000D02*
X9120000Y-8660000D01*
X9154000Y-10990000D02*
X9174000Y-11010000D01*
X9174000Y-10990000D02*
X9154000Y-11010000D01*
X9184000Y-11705000D02*
X9204000Y-11725000D01*
X9204000Y-11705000D02*
X9184000Y-11725000D01*
X9199000Y-8920000D02*
X9219000Y-8940000D01*
X9219000Y-8920000D02*
X9199000Y-8940000D01*
X9279000Y-8270000D02*
X9299000Y-8290000D01*
X9299000Y-8270000D02*
X9279000Y-8290000D01*
X9293691Y-8498554D02*
X9313691Y-8518554D01*
X9313691Y-8498554D02*
X9293691Y-8518554D01*
X9419000Y-8890000D02*
X9439000Y-8910000D01*
X9439000Y-8890000D02*
X9419000Y-8910000D01*
X9419000Y-9675000D02*
X9439000Y-9695000D01*
X9439000Y-9675000D02*
X9419000Y-9695000D01*
X9434000Y-11305000D02*
X9454000Y-11325000D01*
X9454000Y-11305000D02*
X9434000Y-11325000D01*
X9444000Y-10805000D02*
X9464000Y-10825000D01*
X9464000Y-10805000D02*
X9444000Y-10825000D01*
X9450000Y-8560000D02*
X9470000Y-8580000D01*
X9470000Y-8560000D02*
X9450000Y-8580000D01*
X9450000Y-8640000D02*
X9470000Y-8660000D01*
X9470000Y-8640000D02*
X9450000Y-8660000D01*
X9484000Y-10930000D02*
X9504000Y-10950000D01*
X9504000Y-10930000D02*
X9484000Y-10950000D01*
X9514000Y-9935000D02*
X9534000Y-9955000D01*
X9534000Y-9935000D02*
X9514000Y-9955000D01*
X9519000Y-9030000D02*
X9539000Y-9050000D01*
X9539000Y-9030000D02*
X9519000Y-9050000D01*
X9534000Y-10080000D02*
X9554000Y-10100000D01*
X9554000Y-10080000D02*
X9534000Y-10100000D01*
X9549000Y-9675000D02*
X9569000Y-9695000D01*
X9569000Y-9675000D02*
X9549000Y-9695000D01*
X9559000Y-9430000D02*
X9579000Y-9450000D01*
X9579000Y-9430000D02*
X9559000Y-9450000D01*
X9564000Y-9550000D02*
X9584000Y-9570000D01*
X9584000Y-9550000D02*
X9564000Y-9570000D01*
X9579000Y-10722550D02*
X9599000Y-10742550D01*
X9599000Y-10722550D02*
X9579000Y-10742550D01*
X9604000Y-9735000D02*
X9624000Y-9755000D01*
X9624000Y-9735000D02*
X9604000Y-9755000D01*
X9609000Y-9955000D02*
X9629000Y-9975000D01*
X9629000Y-9955000D02*
X9609000Y-9975000D01*
X9609000Y-10125000D02*
X9629000Y-10145000D01*
X9629000Y-10125000D02*
X9609000Y-10145000D01*
X9659000Y-11245000D02*
X9679000Y-11265000D01*
X9679000Y-11245000D02*
X9659000Y-11265000D01*
X9674000Y-10190000D02*
X9694000Y-10210000D01*
X9694000Y-10190000D02*
X9674000Y-10210000D01*
X9679000Y-9115050D02*
X9699000Y-9135050D01*
X9699000Y-9115050D02*
X9679000Y-9135050D01*
X9689000Y-10280000D02*
X9709000Y-10300000D01*
X9709000Y-10280000D02*
X9689000Y-10300000D01*
X9729000Y-10455000D02*
X9749000Y-10475000D01*
X9749000Y-10455000D02*
X9729000Y-10475000D01*
X9734000Y-11355000D02*
X9754000Y-11375000D01*
X9754000Y-11355000D02*
X9734000Y-11375000D01*
X9739000Y-10635000D02*
X9759000Y-10655000D01*
X9759000Y-10635000D02*
X9739000Y-10655000D01*
X9749000Y-9180000D02*
X9769000Y-9200000D01*
X9769000Y-9180000D02*
X9749000Y-9200000D01*
X9784000Y-10390000D02*
X9804000Y-10410000D01*
X9804000Y-10390000D02*
X9784000Y-10410000D01*
X9819000Y-9840000D02*
X9839000Y-9860000D01*
X9839000Y-9840000D02*
X9819000Y-9860000D01*
X9829000Y-10510000D02*
X9849000Y-10530000D01*
X9849000Y-10510000D02*
X9829000Y-10530000D01*
X9834000Y-9255000D02*
X9854000Y-9275000D01*
X9854000Y-9255000D02*
X9834000Y-9275000D01*
X9834000Y-9370000D02*
X9854000Y-9390000D01*
X9854000Y-9370000D02*
X9834000Y-9390000D01*
X9864000Y-10650000D02*
X9884000Y-10670000D01*
X9884000Y-10650000D02*
X9864000Y-10670000D01*
X9879000Y-11180000D02*
X9899000Y-11200000D01*
X9899000Y-11180000D02*
X9879000Y-11200000D01*
X9909000Y-11355000D02*
X9929000Y-11375000D01*
X9929000Y-11355000D02*
X9909000Y-11375000D01*
X9919000Y-10565000D02*
X9939000Y-10585000D01*
X9939000Y-10565000D02*
X9919000Y-10585000D01*
X10034000Y-11530000D02*
X10054000Y-11550000D01*
X10054000Y-11530000D02*
X10034000Y-11550000D01*
X10039000Y-10555000D02*
X10059000Y-10575000D01*
X10059000Y-10555000D02*
X10039000Y-10575000D01*
X10054000Y-10310000D02*
X10074000Y-10330000D01*
X10074000Y-10310000D02*
X10054000Y-10330000D01*
X10109000Y-10680000D02*
X10129000Y-10700000D01*
X10129000Y-10680000D02*
X10109000Y-10700000D01*
X10128377Y-7929377D02*
X10148377Y-7949377D01*
X10148377Y-7929377D02*
X10128377Y-7949377D01*
X10249000Y-10140000D02*
X10269000Y-10160000D01*
X10269000Y-10140000D02*
X10249000Y-10160000D01*
X11234000Y-10580000D02*
X11254000Y-10600000D01*
X11254000Y-10580000D02*
X11234000Y-10600000D01*
X11284000Y-9830000D02*
X11304000Y-9850000D01*
X11304000Y-9830000D02*
X11284000Y-9850000D01*
X11284000Y-11355000D02*
X11304000Y-11375000D01*
X11304000Y-11355000D02*
X11284000Y-11375000D01*
X11284000Y-11455000D02*
X11304000Y-11475000D01*
X11304000Y-11455000D02*
X11284000Y-11475000D01*
X11293918Y-9034950D02*
X11313918Y-9054950D01*
X11313918Y-9034950D02*
X11293918Y-9054950D01*
X11309000Y-10530000D02*
X11329000Y-10550000D01*
X11329000Y-10530000D02*
X11309000Y-10550000D01*
X11329967Y-8884033D02*
X11349967Y-8904033D01*
X11349967Y-8884033D02*
X11329967Y-8904033D01*
X11334000Y-10005000D02*
X11354000Y-10025000D01*
X11354000Y-10005000D02*
X11334000Y-10025000D01*
X13308090Y-8590000D02*
X13328090Y-8610000D01*
X13328090Y-8590000D02*
X13308090Y-8610000D01*
X13308090Y-8665000D02*
X13328090Y-8685000D01*
X13328090Y-8665000D02*
X13308090Y-8685000D01*
X13308090Y-8740000D02*
X13328090Y-8760000D01*
X13328090Y-8740000D02*
X13308090Y-8760000D01*
X13308090Y-8815000D02*
X13328090Y-8835000D01*
X13328090Y-8815000D02*
X13308090Y-8835000D01*
X13308090Y-8890000D02*
X13328090Y-8910000D01*
X13328090Y-8890000D02*
X13308090Y-8910000D01*
X13308090Y-11668000D02*
X13328090Y-11688000D01*
X13328090Y-11668000D02*
X13308090Y-11688000D01*
X13308090Y-11743000D02*
X13328090Y-11763000D01*
X13328090Y-11743000D02*
X13308090Y-11763000D01*
X13308090Y-11818000D02*
X13328090Y-11838000D01*
X13328090Y-11818000D02*
X13308090Y-11838000D01*
X13308090Y-11893000D02*
X13328090Y-11913000D01*
X13328090Y-11893000D02*
X13308090Y-11913000D01*
X13308090Y-11968000D02*
X13328090Y-11988000D01*
X13328090Y-11968000D02*
X13308090Y-11988000D01*
X13319000Y-7747000D02*
X13339000Y-7767000D01*
X13339000Y-7747000D02*
X13319000Y-7767000D01*
X13319000Y-7822000D02*
X13339000Y-7842000D01*
X13339000Y-7822000D02*
X13319000Y-7842000D01*
X13319000Y-7897000D02*
X13339000Y-7917000D01*
X13339000Y-7897000D02*
X13319000Y-7917000D01*
X13319000Y-7972000D02*
X13339000Y-7992000D01*
X13339000Y-7972000D02*
X13319000Y-7992000D01*
X13319000Y-8047000D02*
X13339000Y-8067000D01*
X13339000Y-8047000D02*
X13319000Y-8067000D01*
X13319000Y-10825000D02*
X13339000Y-10845000D01*
X13339000Y-10825000D02*
X13319000Y-10845000D01*
X13319000Y-10900000D02*
X13339000Y-10920000D01*
X13339000Y-10900000D02*
X13319000Y-10920000D01*
X13319000Y-10975000D02*
X13339000Y-10995000D01*
X13339000Y-10975000D02*
X13319000Y-10995000D01*
X13319000Y-11050000D02*
X13339000Y-11070000D01*
X13339000Y-11050000D02*
X13319000Y-11070000D01*
X13319000Y-11125000D02*
X13339000Y-11145000D01*
X13339000Y-11125000D02*
X13319000Y-11145000D01*
X13344000Y-6912000D02*
X13364000Y-6932000D01*
X13364000Y-6912000D02*
X13344000Y-6932000D01*
X13344000Y-6987000D02*
X13364000Y-7007000D01*
X13364000Y-6987000D02*
X13344000Y-7007000D01*
X13344000Y-7062000D02*
X13364000Y-7082000D01*
X13364000Y-7062000D02*
X13344000Y-7082000D01*
X13344000Y-7137000D02*
X13364000Y-7157000D01*
X13364000Y-7137000D02*
X13344000Y-7157000D01*
X13344000Y-7212000D02*
X13364000Y-7232000D01*
X13364000Y-7212000D02*
X13344000Y-7232000D01*
X13344000Y-9980000D02*
X13364000Y-10000000D01*
X13364000Y-9980000D02*
X13344000Y-10000000D01*
X13344000Y-10055000D02*
X13364000Y-10075000D01*
X13364000Y-10055000D02*
X13344000Y-10075000D01*
X13344000Y-10130000D02*
X13364000Y-10150000D01*
X13364000Y-10130000D02*
X13344000Y-10150000D01*
X13344000Y-10205000D02*
X13364000Y-10225000D01*
X13364000Y-10205000D02*
X13344000Y-10225000D01*
X13344000Y-10280000D02*
X13364000Y-10300000D01*
X13364000Y-10280000D02*
X13344000Y-10300000D01*
X13383090Y-8590000D02*
X13403090Y-8610000D01*
X13403090Y-8590000D02*
X13383090Y-8610000D01*
X13383090Y-8665000D02*
X13403090Y-8685000D01*
X13403090Y-8665000D02*
X13383090Y-8685000D01*
X13383090Y-8740000D02*
X13403090Y-8760000D01*
X13403090Y-8740000D02*
X13383090Y-8760000D01*
X13383090Y-8815000D02*
X13403090Y-8835000D01*
X13403090Y-8815000D02*
X13383090Y-8835000D01*
X13383090Y-8890000D02*
X13403090Y-8910000D01*
X13403090Y-8890000D02*
X13383090Y-8910000D01*
X13383090Y-11668000D02*
X13403090Y-11688000D01*
X13403090Y-11668000D02*
X13383090Y-11688000D01*
X13383090Y-11743000D02*
X13403090Y-11763000D01*
X13403090Y-11743000D02*
X13383090Y-11763000D01*
X13383090Y-11818000D02*
X13403090Y-11838000D01*
X13403090Y-11818000D02*
X13383090Y-11838000D01*
X13383090Y-11893000D02*
X13403090Y-11913000D01*
X13403090Y-11893000D02*
X13383090Y-11913000D01*
X13383090Y-11968000D02*
X13403090Y-11988000D01*
X13403090Y-11968000D02*
X13383090Y-11988000D01*
X13394000Y-7747000D02*
X13414000Y-7767000D01*
X13414000Y-7747000D02*
X13394000Y-7767000D01*
X13394000Y-7822000D02*
X13414000Y-7842000D01*
X13414000Y-7822000D02*
X13394000Y-7842000D01*
X13394000Y-7897000D02*
X13414000Y-7917000D01*
X13414000Y-7897000D02*
X13394000Y-7917000D01*
X13394000Y-7972000D02*
X13414000Y-7992000D01*
X13414000Y-7972000D02*
X13394000Y-7992000D01*
X13394000Y-8047000D02*
X13414000Y-8067000D01*
X13414000Y-8047000D02*
X13394000Y-8067000D01*
X13394000Y-10825000D02*
X13414000Y-10845000D01*
X13414000Y-10825000D02*
X13394000Y-10845000D01*
X13394000Y-10900000D02*
X13414000Y-10920000D01*
X13414000Y-10900000D02*
X13394000Y-10920000D01*
X13394000Y-10975000D02*
X13414000Y-10995000D01*
X13414000Y-10975000D02*
X13394000Y-10995000D01*
X13394000Y-11050000D02*
X13414000Y-11070000D01*
X13414000Y-11050000D02*
X13394000Y-11070000D01*
X13394000Y-11125000D02*
X13414000Y-11145000D01*
X13414000Y-11125000D02*
X13394000Y-11145000D01*
X13419000Y-6912000D02*
X13439000Y-6932000D01*
X13439000Y-6912000D02*
X13419000Y-6932000D01*
X13419000Y-6987000D02*
X13439000Y-7007000D01*
X13439000Y-6987000D02*
X13419000Y-7007000D01*
X13419000Y-7062000D02*
X13439000Y-7082000D01*
X13439000Y-7062000D02*
X13419000Y-7082000D01*
X13419000Y-7137000D02*
X13439000Y-7157000D01*
X13439000Y-7137000D02*
X13419000Y-7157000D01*
X13419000Y-7212000D02*
X13439000Y-7232000D01*
X13439000Y-7212000D02*
X13419000Y-7232000D01*
X13419000Y-9980000D02*
X13439000Y-10000000D01*
X13439000Y-9980000D02*
X13419000Y-10000000D01*
X13419000Y-10055000D02*
X13439000Y-10075000D01*
X13439000Y-10055000D02*
X13419000Y-10075000D01*
X13419000Y-10130000D02*
X13439000Y-10150000D01*
X13439000Y-10130000D02*
X13419000Y-10150000D01*
X13419000Y-10205000D02*
X13439000Y-10225000D01*
X13439000Y-10205000D02*
X13419000Y-10225000D01*
X13419000Y-10280000D02*
X13439000Y-10300000D01*
X13439000Y-10280000D02*
X13419000Y-10300000D01*
X13458090Y-8590000D02*
X13478090Y-8610000D01*
X13478090Y-8590000D02*
X13458090Y-8610000D01*
X13458090Y-8665000D02*
X13478090Y-8685000D01*
X13478090Y-8665000D02*
X13458090Y-8685000D01*
X13458090Y-8740000D02*
X13478090Y-8760000D01*
X13478090Y-8740000D02*
X13458090Y-8760000D01*
X13458090Y-8815000D02*
X13478090Y-8835000D01*
X13478090Y-8815000D02*
X13458090Y-8835000D01*
X13458090Y-8890000D02*
X13478090Y-8910000D01*
X13478090Y-8890000D02*
X13458090Y-8910000D01*
X13458090Y-11668000D02*
X13478090Y-11688000D01*
X13478090Y-11668000D02*
X13458090Y-11688000D01*
X13458090Y-11743000D02*
X13478090Y-11763000D01*
X13478090Y-11743000D02*
X13458090Y-11763000D01*
X13458090Y-11818000D02*
X13478090Y-11838000D01*
X13478090Y-11818000D02*
X13458090Y-11838000D01*
X13458090Y-11893000D02*
X13478090Y-11913000D01*
X13478090Y-11893000D02*
X13458090Y-11913000D01*
X13458090Y-11968000D02*
X13478090Y-11988000D01*
X13478090Y-11968000D02*
X13458090Y-11988000D01*
X13469000Y-7747000D02*
X13489000Y-7767000D01*
X13489000Y-7747000D02*
X13469000Y-7767000D01*
X13469000Y-7822000D02*
X13489000Y-7842000D01*
X13489000Y-7822000D02*
X13469000Y-7842000D01*
X13469000Y-8047000D02*
X13489000Y-8067000D01*
X13489000Y-8047000D02*
X13469000Y-8067000D01*
X13469000Y-10825000D02*
X13489000Y-10845000D01*
X13489000Y-10825000D02*
X13469000Y-10845000D01*
X13469000Y-10900000D02*
X13489000Y-10920000D01*
X13489000Y-10900000D02*
X13469000Y-10920000D01*
X13469000Y-11125000D02*
X13489000Y-11145000D01*
X13489000Y-11125000D02*
X13469000Y-11145000D01*
X13470230Y-7897000D02*
X13490230Y-7917000D01*
X13490230Y-7897000D02*
X13470230Y-7917000D01*
X13470230Y-7972000D02*
X13490230Y-7992000D01*
X13490230Y-7972000D02*
X13470230Y-7992000D01*
X13470230Y-10975000D02*
X13490230Y-10995000D01*
X13490230Y-10975000D02*
X13470230Y-10995000D01*
X13470230Y-11050000D02*
X13490230Y-11070000D01*
X13490230Y-11050000D02*
X13470230Y-11070000D01*
X13492230Y-6987000D02*
X13512230Y-7007000D01*
X13512230Y-6987000D02*
X13492230Y-7007000D01*
X13492230Y-7062000D02*
X13512230Y-7082000D01*
X13512230Y-7062000D02*
X13492230Y-7082000D01*
X13492230Y-10055000D02*
X13512230Y-10075000D01*
X13512230Y-10055000D02*
X13492230Y-10075000D01*
X13492230Y-10130000D02*
X13512230Y-10150000D01*
X13512230Y-10130000D02*
X13492230Y-10150000D01*
X13494000Y-6912000D02*
X13514000Y-6932000D01*
X13514000Y-6912000D02*
X13494000Y-6932000D01*
X13494000Y-7137000D02*
X13514000Y-7157000D01*
X13514000Y-7137000D02*
X13494000Y-7157000D01*
X13494000Y-7212000D02*
X13514000Y-7232000D01*
X13514000Y-7212000D02*
X13494000Y-7232000D01*
X13494000Y-9980000D02*
X13514000Y-10000000D01*
X13514000Y-9980000D02*
X13494000Y-10000000D01*
X13494000Y-10205000D02*
X13514000Y-10225000D01*
X13514000Y-10205000D02*
X13494000Y-10225000D01*
X13494000Y-10280000D02*
X13514000Y-10300000D01*
X13514000Y-10280000D02*
X13494000Y-10300000D01*
X13533090Y-8590000D02*
X13553090Y-8610000D01*
X13553090Y-8590000D02*
X13533090Y-8610000D01*
X13533090Y-8665000D02*
X13553090Y-8685000D01*
X13553090Y-8665000D02*
X13533090Y-8685000D01*
X13533090Y-8740000D02*
X13553090Y-8760000D01*
X13553090Y-8740000D02*
X13533090Y-8760000D01*
X13533090Y-8815000D02*
X13553090Y-8835000D01*
X13553090Y-8815000D02*
X13533090Y-8835000D01*
X13533090Y-8890000D02*
X13553090Y-8910000D01*
X13553090Y-8890000D02*
X13533090Y-8910000D01*
X13533090Y-11668000D02*
X13553090Y-11688000D01*
X13553090Y-11668000D02*
X13533090Y-11688000D01*
X13533090Y-11743000D02*
X13553090Y-11763000D01*
X13553090Y-11743000D02*
X13533090Y-11763000D01*
X13533090Y-11818000D02*
X13553090Y-11838000D01*
X13553090Y-11818000D02*
X13533090Y-11838000D01*
X13533090Y-11893000D02*
X13553090Y-11913000D01*
X13553090Y-11893000D02*
X13533090Y-11913000D01*
X13533090Y-11968000D02*
X13553090Y-11988000D01*
X13553090Y-11968000D02*
X13533090Y-11988000D01*
X13544000Y-7747000D02*
X13564000Y-7767000D01*
X13564000Y-7747000D02*
X13544000Y-7767000D01*
X13544000Y-7822000D02*
X13564000Y-7842000D01*
X13564000Y-7822000D02*
X13544000Y-7842000D01*
X13544000Y-7897000D02*
X13564000Y-7917000D01*
X13564000Y-7897000D02*
X13544000Y-7917000D01*
X13544000Y-7972000D02*
X13564000Y-7992000D01*
X13564000Y-7972000D02*
X13544000Y-7992000D01*
X13544000Y-8047000D02*
X13564000Y-8067000D01*
X13564000Y-8047000D02*
X13544000Y-8067000D01*
X13544000Y-10825000D02*
X13564000Y-10845000D01*
X13564000Y-10825000D02*
X13544000Y-10845000D01*
X13544000Y-10900000D02*
X13564000Y-10920000D01*
X13564000Y-10900000D02*
X13544000Y-10920000D01*
X13544000Y-10975000D02*
X13564000Y-10995000D01*
X13564000Y-10975000D02*
X13544000Y-10995000D01*
X13544000Y-11050000D02*
X13564000Y-11070000D01*
X13564000Y-11050000D02*
X13544000Y-11070000D01*
X13544000Y-11125000D02*
X13564000Y-11145000D01*
X13564000Y-11125000D02*
X13544000Y-11145000D01*
X13569000Y-6912000D02*
X13589000Y-6932000D01*
X13589000Y-6912000D02*
X13569000Y-6932000D01*
X13569000Y-6987000D02*
X13589000Y-7007000D01*
X13589000Y-6987000D02*
X13569000Y-7007000D01*
X13569000Y-7062000D02*
X13589000Y-7082000D01*
X13589000Y-7062000D02*
X13569000Y-7082000D01*
X13569000Y-7137000D02*
X13589000Y-7157000D01*
X13589000Y-7137000D02*
X13569000Y-7157000D01*
X13569000Y-7212000D02*
X13589000Y-7232000D01*
X13589000Y-7212000D02*
X13569000Y-7232000D01*
X13569000Y-9980000D02*
X13589000Y-10000000D01*
X13589000Y-9980000D02*
X13569000Y-10000000D01*
X13569000Y-10055000D02*
X13589000Y-10075000D01*
X13589000Y-10055000D02*
X13569000Y-10075000D01*
X13569000Y-10130000D02*
X13589000Y-10150000D01*
X13589000Y-10130000D02*
X13569000Y-10150000D01*
X13569000Y-10205000D02*
X13589000Y-10225000D01*
X13589000Y-10205000D02*
X13569000Y-10225000D01*
X13569000Y-10280000D02*
X13589000Y-10300000D01*
X13589000Y-10280000D02*
X13569000Y-10300000D01*
X13710000Y-9860000D02*
X13730000Y-9880000D01*
X13730000Y-9860000D02*
X13710000Y-9880000D01*
X13887090Y-11671140D02*
X13907090Y-11691140D01*
X13907090Y-11671140D02*
X13887090Y-11691140D01*
X13887090Y-11746140D02*
X13907090Y-11766140D01*
X13907090Y-11746140D02*
X13887090Y-11766140D01*
X13887090Y-11821140D02*
X13907090Y-11841140D01*
X13907090Y-11821140D02*
X13887090Y-11841140D01*
X13887090Y-11896140D02*
X13907090Y-11916140D01*
X13907090Y-11896140D02*
X13887090Y-11916140D01*
X13887090Y-11971140D02*
X13907090Y-11991140D01*
X13907090Y-11971140D02*
X13887090Y-11991140D01*
X13892090Y-6913140D02*
X13912090Y-6933140D01*
X13912090Y-6913140D02*
X13892090Y-6933140D01*
X13892090Y-6988140D02*
X13912090Y-7008140D01*
X13912090Y-6988140D02*
X13892090Y-7008140D01*
X13892090Y-7063140D02*
X13912090Y-7083140D01*
X13912090Y-7063140D02*
X13892090Y-7083140D01*
X13892090Y-7138140D02*
X13912090Y-7158140D01*
X13912090Y-7138140D02*
X13892090Y-7158140D01*
X13892090Y-7213140D02*
X13912090Y-7233140D01*
X13912090Y-7213140D02*
X13892090Y-7233140D01*
X13892090Y-7748140D02*
X13912090Y-7768140D01*
X13912090Y-7748140D02*
X13892090Y-7768140D01*
X13892090Y-7823140D02*
X13912090Y-7843140D01*
X13912090Y-7823140D02*
X13892090Y-7843140D01*
X13892090Y-7898140D02*
X13912090Y-7918140D01*
X13912090Y-7898140D02*
X13892090Y-7918140D01*
X13892090Y-7973140D02*
X13912090Y-7993140D01*
X13912090Y-7973140D02*
X13892090Y-7993140D01*
X13892090Y-8048140D02*
X13912090Y-8068140D01*
X13912090Y-8048140D02*
X13892090Y-8068140D01*
X13892090Y-8593140D02*
X13912090Y-8613140D01*
X13912090Y-8593140D02*
X13892090Y-8613140D01*
X13892090Y-8668140D02*
X13912090Y-8688140D01*
X13912090Y-8668140D02*
X13892090Y-8688140D01*
X13892090Y-8743140D02*
X13912090Y-8763140D01*
X13912090Y-8743140D02*
X13892090Y-8763140D01*
X13892090Y-8818140D02*
X13912090Y-8838140D01*
X13912090Y-8818140D02*
X13892090Y-8838140D01*
X13892090Y-8893140D02*
X13912090Y-8913140D01*
X13912090Y-8893140D02*
X13892090Y-8913140D01*
X13892090Y-9976140D02*
X13912090Y-9996140D01*
X13912090Y-9976140D02*
X13892090Y-9996140D01*
X13892090Y-10051140D02*
X13912090Y-10071140D01*
X13912090Y-10051140D02*
X13892090Y-10071140D01*
X13892090Y-10126140D02*
X13912090Y-10146140D01*
X13912090Y-10126140D02*
X13892090Y-10146140D01*
X13892090Y-10201140D02*
X13912090Y-10221140D01*
X13912090Y-10201140D02*
X13892090Y-10221140D01*
X13892090Y-10276140D02*
X13912090Y-10296140D01*
X13912090Y-10276140D02*
X13892090Y-10296140D01*
X13892090Y-10826140D02*
X13912090Y-10846140D01*
X13912090Y-10826140D02*
X13892090Y-10846140D01*
X13892090Y-10901140D02*
X13912090Y-10921140D01*
X13912090Y-10901140D02*
X13892090Y-10921140D01*
X13892090Y-10976140D02*
X13912090Y-10996140D01*
X13912090Y-10976140D02*
X13892090Y-10996140D01*
X13892090Y-11051140D02*
X13912090Y-11071140D01*
X13912090Y-11051140D02*
X13892090Y-11071140D01*
X13892090Y-11126140D02*
X13912090Y-11146140D01*
X13912090Y-11126140D02*
X13892090Y-11146140D01*
X13900000Y-9430000D02*
X13920000Y-9450000D01*
X13920000Y-9430000D02*
X13900000Y-9450000D01*
X13962090Y-11671140D02*
X13982090Y-11691140D01*
X13982090Y-11671140D02*
X13962090Y-11691140D01*
X13962090Y-11746140D02*
X13982090Y-11766140D01*
X13982090Y-11746140D02*
X13962090Y-11766140D01*
X13962090Y-11821140D02*
X13982090Y-11841140D01*
X13982090Y-11821140D02*
X13962090Y-11841140D01*
X13962090Y-11896140D02*
X13982090Y-11916140D01*
X13982090Y-11896140D02*
X13962090Y-11916140D01*
X13962090Y-11971140D02*
X13982090Y-11991140D01*
X13982090Y-11971140D02*
X13962090Y-11991140D01*
X13967090Y-6913140D02*
X13987090Y-6933140D01*
X13987090Y-6913140D02*
X13967090Y-6933140D01*
X13967090Y-6988140D02*
X13987090Y-7008140D01*
X13987090Y-6988140D02*
X13967090Y-7008140D01*
X13967090Y-7063140D02*
X13987090Y-7083140D01*
X13987090Y-7063140D02*
X13967090Y-7083140D01*
X13967090Y-7138140D02*
X13987090Y-7158140D01*
X13987090Y-7138140D02*
X13967090Y-7158140D01*
X13967090Y-7213140D02*
X13987090Y-7233140D01*
X13987090Y-7213140D02*
X13967090Y-7233140D01*
X13967090Y-7748140D02*
X13987090Y-7768140D01*
X13987090Y-7748140D02*
X13967090Y-7768140D01*
X13967090Y-7823140D02*
X13987090Y-7843140D01*
X13987090Y-7823140D02*
X13967090Y-7843140D01*
X13967090Y-7898140D02*
X13987090Y-7918140D01*
X13987090Y-7898140D02*
X13967090Y-7918140D01*
X13967090Y-7973140D02*
X13987090Y-7993140D01*
X13987090Y-7973140D02*
X13967090Y-7993140D01*
X13967090Y-8048140D02*
X13987090Y-8068140D01*
X13987090Y-8048140D02*
X13967090Y-8068140D01*
X13967090Y-8593140D02*
X13987090Y-8613140D01*
X13987090Y-8593140D02*
X13967090Y-8613140D01*
X13967090Y-8668140D02*
X13987090Y-8688140D01*
X13987090Y-8668140D02*
X13967090Y-8688140D01*
X13967090Y-8743140D02*
X13987090Y-8763140D01*
X13987090Y-8743140D02*
X13967090Y-8763140D01*
X13967090Y-8818140D02*
X13987090Y-8838140D01*
X13987090Y-8818140D02*
X13967090Y-8838140D01*
X13967090Y-8893140D02*
X13987090Y-8913140D01*
X13987090Y-8893140D02*
X13967090Y-8913140D01*
X13967090Y-9976140D02*
X13987090Y-9996140D01*
X13987090Y-9976140D02*
X13967090Y-9996140D01*
X13967090Y-10051140D02*
X13987090Y-10071140D01*
X13987090Y-10051140D02*
X13967090Y-10071140D01*
X13967090Y-10126140D02*
X13987090Y-10146140D01*
X13987090Y-10126140D02*
X13967090Y-10146140D01*
X13967090Y-10201140D02*
X13987090Y-10221140D01*
X13987090Y-10201140D02*
X13967090Y-10221140D01*
X13967090Y-10276140D02*
X13987090Y-10296140D01*
X13987090Y-10276140D02*
X13967090Y-10296140D01*
X13967090Y-10826140D02*
X13987090Y-10846140D01*
X13987090Y-10826140D02*
X13967090Y-10846140D01*
X13967090Y-10901140D02*
X13987090Y-10921140D01*
X13987090Y-10901140D02*
X13967090Y-10921140D01*
X13967090Y-10976140D02*
X13987090Y-10996140D01*
X13987090Y-10976140D02*
X13967090Y-10996140D01*
X13967090Y-11051140D02*
X13987090Y-11071140D01*
X13987090Y-11051140D02*
X13967090Y-11071140D01*
X13967090Y-11126140D02*
X13987090Y-11146140D01*
X13987090Y-11126140D02*
X13967090Y-11146140D01*
X14179000Y-9410000D02*
X14199000Y-9430000D01*
X14199000Y-9410000D02*
X14179000Y-9430000D01*
X14199000Y-9628950D02*
X14219000Y-9648950D01*
X14219000Y-9628950D02*
X14199000Y-9648950D01*
X14202090Y-6910000D02*
X14222090Y-6930000D01*
X14222090Y-6910000D02*
X14202090Y-6930000D01*
X14202090Y-6985000D02*
X14222090Y-7005000D01*
X14222090Y-6985000D02*
X14202090Y-7005000D01*
X14202090Y-7060000D02*
X14222090Y-7080000D01*
X14222090Y-7060000D02*
X14202090Y-7080000D01*
X14202090Y-7135000D02*
X14222090Y-7155000D01*
X14222090Y-7135000D02*
X14202090Y-7155000D01*
X14202090Y-7210000D02*
X14222090Y-7230000D01*
X14222090Y-7210000D02*
X14202090Y-7230000D01*
X14202090Y-8590000D02*
X14222090Y-8610000D01*
X14222090Y-8590000D02*
X14202090Y-8610000D01*
X14202090Y-8665000D02*
X14222090Y-8685000D01*
X14222090Y-8665000D02*
X14202090Y-8685000D01*
X14202090Y-8740000D02*
X14222090Y-8760000D01*
X14222090Y-8740000D02*
X14202090Y-8760000D01*
X14202090Y-8815000D02*
X14222090Y-8835000D01*
X14222090Y-8815000D02*
X14202090Y-8835000D01*
X14202090Y-8890000D02*
X14222090Y-8910000D01*
X14222090Y-8890000D02*
X14202090Y-8910000D01*
X14202090Y-9978000D02*
X14222090Y-9998000D01*
X14222090Y-9978000D02*
X14202090Y-9998000D01*
X14202090Y-10053000D02*
X14222090Y-10073000D01*
X14222090Y-10053000D02*
X14202090Y-10073000D01*
X14202090Y-10128000D02*
X14222090Y-10148000D01*
X14222090Y-10128000D02*
X14202090Y-10148000D01*
X14202090Y-10203000D02*
X14222090Y-10223000D01*
X14222090Y-10203000D02*
X14202090Y-10223000D01*
X14202090Y-10278000D02*
X14222090Y-10298000D01*
X14222090Y-10278000D02*
X14202090Y-10298000D01*
X14202090Y-11668000D02*
X14222090Y-11688000D01*
X14222090Y-11668000D02*
X14202090Y-11688000D01*
X14202090Y-11743000D02*
X14222090Y-11763000D01*
X14222090Y-11743000D02*
X14202090Y-11763000D01*
X14202090Y-11818000D02*
X14222090Y-11838000D01*
X14222090Y-11818000D02*
X14202090Y-11838000D01*
X14202090Y-11893000D02*
X14222090Y-11913000D01*
X14222090Y-11893000D02*
X14202090Y-11913000D01*
X14202090Y-11968000D02*
X14222090Y-11988000D01*
X14222090Y-11968000D02*
X14202090Y-11988000D01*
X14227090Y-7745000D02*
X14247090Y-7765000D01*
X14247090Y-7745000D02*
X14227090Y-7765000D01*
X14227090Y-7820000D02*
X14247090Y-7840000D01*
X14247090Y-7820000D02*
X14227090Y-7840000D01*
X14227090Y-7895000D02*
X14247090Y-7915000D01*
X14247090Y-7895000D02*
X14227090Y-7915000D01*
X14227090Y-7970000D02*
X14247090Y-7990000D01*
X14247090Y-7970000D02*
X14227090Y-7990000D01*
X14227090Y-8045000D02*
X14247090Y-8065000D01*
X14247090Y-8045000D02*
X14227090Y-8065000D01*
X14227090Y-10823000D02*
X14247090Y-10843000D01*
X14247090Y-10823000D02*
X14227090Y-10843000D01*
X14227090Y-10898000D02*
X14247090Y-10918000D01*
X14247090Y-10898000D02*
X14227090Y-10918000D01*
X14227090Y-10973000D02*
X14247090Y-10993000D01*
X14247090Y-10973000D02*
X14227090Y-10993000D01*
X14227090Y-11048000D02*
X14247090Y-11068000D01*
X14247090Y-11048000D02*
X14227090Y-11068000D01*
X14227090Y-11123000D02*
X14247090Y-11143000D01*
X14247090Y-11123000D02*
X14227090Y-11143000D01*
X14277090Y-6910000D02*
X14297090Y-6930000D01*
X14297090Y-6910000D02*
X14277090Y-6930000D01*
X14277090Y-6985000D02*
X14297090Y-7005000D01*
X14297090Y-6985000D02*
X14277090Y-7005000D01*
X14277090Y-7060000D02*
X14297090Y-7080000D01*
X14297090Y-7060000D02*
X14277090Y-7080000D01*
X14277090Y-7135000D02*
X14297090Y-7155000D01*
X14297090Y-7135000D02*
X14277090Y-7155000D01*
X14277090Y-7210000D02*
X14297090Y-7230000D01*
X14297090Y-7210000D02*
X14277090Y-7230000D01*
X14277090Y-8590000D02*
X14297090Y-8610000D01*
X14297090Y-8590000D02*
X14277090Y-8610000D01*
X14277090Y-8665000D02*
X14297090Y-8685000D01*
X14297090Y-8665000D02*
X14277090Y-8685000D01*
X14277090Y-8740000D02*
X14297090Y-8760000D01*
X14297090Y-8740000D02*
X14277090Y-8760000D01*
X14277090Y-8815000D02*
X14297090Y-8835000D01*
X14297090Y-8815000D02*
X14277090Y-8835000D01*
X14277090Y-8890000D02*
X14297090Y-8910000D01*
X14297090Y-8890000D02*
X14277090Y-8910000D01*
X14277090Y-9978000D02*
X14297090Y-9998000D01*
X14297090Y-9978000D02*
X14277090Y-9998000D01*
X14277090Y-10053000D02*
X14297090Y-10073000D01*
X14297090Y-10053000D02*
X14277090Y-10073000D01*
X14277090Y-10128000D02*
X14297090Y-10148000D01*
X14297090Y-10128000D02*
X14277090Y-10148000D01*
X14277090Y-10203000D02*
X14297090Y-10223000D01*
X14297090Y-10203000D02*
X14277090Y-10223000D01*
X14277090Y-10278000D02*
X14297090Y-10298000D01*
X14297090Y-10278000D02*
X14277090Y-10298000D01*
X14277090Y-11668000D02*
X14297090Y-11688000D01*
X14297090Y-11668000D02*
X14277090Y-11688000D01*
X14277090Y-11743000D02*
X14297090Y-11763000D01*
X14297090Y-11743000D02*
X14277090Y-11763000D01*
X14277090Y-11818000D02*
X14297090Y-11838000D01*
X14297090Y-11818000D02*
X14277090Y-11838000D01*
X14277090Y-11893000D02*
X14297090Y-11913000D01*
X14297090Y-11893000D02*
X14277090Y-11913000D01*
X14277090Y-11968000D02*
X14297090Y-11988000D01*
X14297090Y-11968000D02*
X14277090Y-11988000D01*
X14302090Y-7745000D02*
X14322090Y-7765000D01*
X14322090Y-7745000D02*
X14302090Y-7765000D01*
X14302090Y-7820000D02*
X14322090Y-7840000D01*
X14322090Y-7820000D02*
X14302090Y-7840000D01*
X14302090Y-7895000D02*
X14322090Y-7915000D01*
X14322090Y-7895000D02*
X14302090Y-7915000D01*
X14302090Y-7970000D02*
X14322090Y-7990000D01*
X14322090Y-7970000D02*
X14302090Y-7990000D01*
X14302090Y-8045000D02*
X14322090Y-8065000D01*
X14322090Y-8045000D02*
X14302090Y-8065000D01*
X14302090Y-10823000D02*
X14322090Y-10843000D01*
X14322090Y-10823000D02*
X14302090Y-10843000D01*
X14302090Y-10898000D02*
X14322090Y-10918000D01*
X14322090Y-10898000D02*
X14302090Y-10918000D01*
X14302090Y-10973000D02*
X14322090Y-10993000D01*
X14322090Y-10973000D02*
X14302090Y-10993000D01*
X14302090Y-11048000D02*
X14322090Y-11068000D01*
X14322090Y-11048000D02*
X14302090Y-11068000D01*
X14302090Y-11123000D02*
X14322090Y-11143000D01*
X14322090Y-11123000D02*
X14302090Y-11143000D01*
X14345000Y-9640000D02*
X14365000Y-9660000D01*
X14365000Y-9640000D02*
X14345000Y-9660000D01*
X14352090Y-6910000D02*
X14372090Y-6930000D01*
X14372090Y-6910000D02*
X14352090Y-6930000D01*
X14352090Y-6985000D02*
X14372090Y-7005000D01*
X14372090Y-6985000D02*
X14352090Y-7005000D01*
X14352090Y-7060000D02*
X14372090Y-7080000D01*
X14372090Y-7060000D02*
X14352090Y-7080000D01*
X14352090Y-7135000D02*
X14372090Y-7155000D01*
X14372090Y-7135000D02*
X14352090Y-7155000D01*
X14352090Y-7210000D02*
X14372090Y-7230000D01*
X14372090Y-7210000D02*
X14352090Y-7230000D01*
X14352090Y-8590000D02*
X14372090Y-8610000D01*
X14372090Y-8590000D02*
X14352090Y-8610000D01*
X14352090Y-8665000D02*
X14372090Y-8685000D01*
X14372090Y-8665000D02*
X14352090Y-8685000D01*
X14352090Y-8740000D02*
X14372090Y-8760000D01*
X14372090Y-8740000D02*
X14352090Y-8760000D01*
X14352090Y-8815000D02*
X14372090Y-8835000D01*
X14372090Y-8815000D02*
X14352090Y-8835000D01*
X14352090Y-8890000D02*
X14372090Y-8910000D01*
X14372090Y-8890000D02*
X14352090Y-8910000D01*
X14352090Y-9978000D02*
X14372090Y-9998000D01*
X14372090Y-9978000D02*
X14352090Y-9998000D01*
X14352090Y-10053000D02*
X14372090Y-10073000D01*
X14372090Y-10053000D02*
X14352090Y-10073000D01*
X14352090Y-10128000D02*
X14372090Y-10148000D01*
X14372090Y-10128000D02*
X14352090Y-10148000D01*
X14352090Y-10203000D02*
X14372090Y-10223000D01*
X14372090Y-10203000D02*
X14352090Y-10223000D01*
X14352090Y-10278000D02*
X14372090Y-10298000D01*
X14372090Y-10278000D02*
X14352090Y-10298000D01*
X14352090Y-11668000D02*
X14372090Y-11688000D01*
X14372090Y-11668000D02*
X14352090Y-11688000D01*
X14352090Y-11743000D02*
X14372090Y-11763000D01*
X14372090Y-11743000D02*
X14352090Y-11763000D01*
X14352090Y-11818000D02*
X14372090Y-11838000D01*
X14372090Y-11818000D02*
X14352090Y-11838000D01*
X14352090Y-11893000D02*
X14372090Y-11913000D01*
X14372090Y-11893000D02*
X14352090Y-11913000D01*
X14352090Y-11968000D02*
X14372090Y-11988000D01*
X14372090Y-11968000D02*
X14352090Y-11988000D01*
X14360000Y-9240000D02*
X14380000Y-9260000D01*
X14380000Y-9240000D02*
X14360000Y-9260000D01*
X14377090Y-7745000D02*
X14397090Y-7765000D01*
X14397090Y-7745000D02*
X14377090Y-7765000D01*
X14377090Y-7820000D02*
X14397090Y-7840000D01*
X14397090Y-7820000D02*
X14377090Y-7840000D01*
X14377090Y-7895000D02*
X14397090Y-7915000D01*
X14397090Y-7895000D02*
X14377090Y-7915000D01*
X14377090Y-7970000D02*
X14397090Y-7990000D01*
X14397090Y-7970000D02*
X14377090Y-7990000D01*
X14377090Y-8045000D02*
X14397090Y-8065000D01*
X14397090Y-8045000D02*
X14377090Y-8065000D01*
X14377090Y-10823000D02*
X14397090Y-10843000D01*
X14397090Y-10823000D02*
X14377090Y-10843000D01*
X14377090Y-10898000D02*
X14397090Y-10918000D01*
X14397090Y-10898000D02*
X14377090Y-10918000D01*
X14377090Y-10973000D02*
X14397090Y-10993000D01*
X14397090Y-10973000D02*
X14377090Y-10993000D01*
X14377090Y-11048000D02*
X14397090Y-11068000D01*
X14397090Y-11048000D02*
X14377090Y-11068000D01*
X14377090Y-11123000D02*
X14397090Y-11143000D01*
X14397090Y-11123000D02*
X14377090Y-11143000D01*
X14427090Y-6910000D02*
X14447090Y-6930000D01*
X14447090Y-6910000D02*
X14427090Y-6930000D01*
X14427090Y-6985000D02*
X14447090Y-7005000D01*
X14447090Y-6985000D02*
X14427090Y-7005000D01*
X14427090Y-7060000D02*
X14447090Y-7080000D01*
X14447090Y-7060000D02*
X14427090Y-7080000D01*
X14427090Y-7135000D02*
X14447090Y-7155000D01*
X14447090Y-7135000D02*
X14427090Y-7155000D01*
X14427090Y-7210000D02*
X14447090Y-7230000D01*
X14447090Y-7210000D02*
X14427090Y-7230000D01*
X14427090Y-8590000D02*
X14447090Y-8610000D01*
X14447090Y-8590000D02*
X14427090Y-8610000D01*
X14427090Y-8665000D02*
X14447090Y-8685000D01*
X14447090Y-8665000D02*
X14427090Y-8685000D01*
X14427090Y-8740000D02*
X14447090Y-8760000D01*
X14447090Y-8740000D02*
X14427090Y-8760000D01*
X14427090Y-8815000D02*
X14447090Y-8835000D01*
X14447090Y-8815000D02*
X14427090Y-8835000D01*
X14427090Y-8890000D02*
X14447090Y-8910000D01*
X14447090Y-8890000D02*
X14427090Y-8910000D01*
X14427090Y-9978000D02*
X14447090Y-9998000D01*
X14447090Y-9978000D02*
X14427090Y-9998000D01*
X14427090Y-10053000D02*
X14447090Y-10073000D01*
X14447090Y-10053000D02*
X14427090Y-10073000D01*
X14427090Y-10128000D02*
X14447090Y-10148000D01*
X14447090Y-10128000D02*
X14427090Y-10148000D01*
X14427090Y-10203000D02*
X14447090Y-10223000D01*
X14447090Y-10203000D02*
X14427090Y-10223000D01*
X14427090Y-10278000D02*
X14447090Y-10298000D01*
X14447090Y-10278000D02*
X14427090Y-10298000D01*
X14427090Y-11668000D02*
X14447090Y-11688000D01*
X14447090Y-11668000D02*
X14427090Y-11688000D01*
X14427090Y-11743000D02*
X14447090Y-11763000D01*
X14447090Y-11743000D02*
X14427090Y-11763000D01*
X14427090Y-11818000D02*
X14447090Y-11838000D01*
X14447090Y-11818000D02*
X14427090Y-11838000D01*
X14427090Y-11893000D02*
X14447090Y-11913000D01*
X14447090Y-11893000D02*
X14427090Y-11913000D01*
X14427090Y-11968000D02*
X14447090Y-11988000D01*
X14447090Y-11968000D02*
X14427090Y-11988000D01*
X14452090Y-7745000D02*
X14472090Y-7765000D01*
X14472090Y-7745000D02*
X14452090Y-7765000D01*
X14452090Y-7820000D02*
X14472090Y-7840000D01*
X14472090Y-7820000D02*
X14452090Y-7840000D01*
X14452090Y-7895000D02*
X14472090Y-7915000D01*
X14472090Y-7895000D02*
X14452090Y-7915000D01*
X14452090Y-7970000D02*
X14472090Y-7990000D01*
X14472090Y-7970000D02*
X14452090Y-7990000D01*
X14452090Y-8045000D02*
X14472090Y-8065000D01*
X14472090Y-8045000D02*
X14452090Y-8065000D01*
X14452090Y-10823000D02*
X14472090Y-10843000D01*
X14472090Y-10823000D02*
X14452090Y-10843000D01*
X14452090Y-10898000D02*
X14472090Y-10918000D01*
X14472090Y-10898000D02*
X14452090Y-10918000D01*
X14452090Y-10973000D02*
X14472090Y-10993000D01*
X14472090Y-10973000D02*
X14452090Y-10993000D01*
X14452090Y-11048000D02*
X14472090Y-11068000D01*
X14472090Y-11048000D02*
X14452090Y-11068000D01*
X14452090Y-11123000D02*
X14472090Y-11143000D01*
X14472090Y-11123000D02*
X14452090Y-11143000D01*
X14510000Y-8370000D02*
X14530000Y-8390000D01*
X14530000Y-8370000D02*
X14510000Y-8390000D01*
X14710000Y-9940000D02*
X14730000Y-9960000D01*
X14730000Y-9940000D02*
X14710000Y-9960000D01*
X14939000Y-9340000D02*
X14959000Y-9360000D01*
X14959000Y-9340000D02*
X14939000Y-9360000D01*
X14999000Y-9770000D02*
X15019000Y-9790000D01*
X15019000Y-9770000D02*
X14999000Y-9790000D01*
X15010000Y-9125000D02*
X15030000Y-9145000D01*
X15030000Y-9125000D02*
X15010000Y-9145000D01*
X15025000Y-9505000D02*
X15045000Y-9525000D01*
X15045000Y-9505000D02*
X15025000Y-9525000D01*
X15219000Y-12010000D02*
X15239000Y-12030000D01*
X15239000Y-12010000D02*
X15219000Y-12030000D01*
X15249000Y-6960000D02*
X15269000Y-6980000D01*
X15269000Y-6960000D02*
X15249000Y-6980000D01*
X15266088Y-9276457D02*
X15286088Y-9296457D01*
X15286088Y-9276457D02*
X15266088Y-9296457D01*
X15279000Y-9640000D02*
X15299000Y-9660000D01*
X15299000Y-9640000D02*
X15279000Y-9660000D01*
X15759000Y-9460000D02*
X15779000Y-9480000D01*
X15779000Y-9460000D02*
X15759000Y-9480000D01*
X15779000Y-9250000D02*
X15799000Y-9270000D01*
X15799000Y-9250000D02*
X15779000Y-9270000D01*
X15799000Y-9640000D02*
X15819000Y-9660000D01*
X15819000Y-9640000D02*
X15799000Y-9660000D01*
X9020500Y-10337500D02*
G75*
G03*
X9020500Y-10337500I-10000J0D01*
G01*
X9020500Y-10465000D02*
G75*
G03*
X9020500Y-10465000I-10000J0D01*
G01*
X9020500Y-10592500D02*
G75*
G03*
X9020500Y-10592500I-10000J0D01*
G01*
X9148000Y-10337500D02*
G75*
G03*
X9148000Y-10337500I-10000J0D01*
G01*
X9148000Y-10465000D02*
G75*
G03*
X9148000Y-10465000I-10000J0D01*
G01*
X9148000Y-10592500D02*
G75*
G03*
X9148000Y-10592500I-10000J0D01*
G01*
X9275500Y-10337500D02*
G75*
G03*
X9275500Y-10337500I-10000J0D01*
G01*
X9275500Y-10465000D02*
G75*
G03*
X9275500Y-10465000I-10000J0D01*
G01*
X9275500Y-10592500D02*
G75*
G03*
X9275500Y-10592500I-10000J0D01*
G01*
D13*
X7689000Y-9040000D02*
X7689000Y-9080000D01*
X7669000Y-9060000D02*
X7709000Y-9060000D01*
X8269000Y-6900000D02*
X8269000Y-6940000D01*
X8249000Y-6920000D02*
X8289000Y-6920000D01*
X8429000Y-7950000D02*
X8429000Y-7990000D01*
X8409000Y-7970000D02*
X8449000Y-7970000D01*
X8444000Y-10865000D02*
X8444000Y-10905000D01*
X8424000Y-10885000D02*
X8464000Y-10885000D01*
X8444000Y-11040000D02*
X8444000Y-11080000D01*
X8424000Y-11060000D02*
X8464000Y-11060000D01*
X8509000Y-7020000D02*
X8509000Y-7060000D01*
X8489000Y-7040000D02*
X8529000Y-7040000D01*
X8669000Y-7660000D02*
X8669000Y-7700000D01*
X8649000Y-7680000D02*
X8689000Y-7680000D01*
X8809000Y-7940000D02*
X8809000Y-7980000D01*
X8789000Y-7960000D02*
X8829000Y-7960000D01*
X8844000Y-11220000D02*
X8844000Y-11260000D01*
X8824000Y-11240000D02*
X8864000Y-11240000D01*
X9029000Y-7760000D02*
X9029000Y-7800000D01*
X9009000Y-7780000D02*
X9049000Y-7780000D01*
X9029000Y-7860000D02*
X9029000Y-7900000D01*
X9009000Y-7880000D02*
X9049000Y-7880000D01*
X9194000Y-11270000D02*
X9194000Y-11310000D01*
X9174000Y-11290000D02*
X9214000Y-11290000D01*
X9249000Y-7760000D02*
X9249000Y-7800000D01*
X9229000Y-7780000D02*
X9269000Y-7780000D01*
X9249000Y-7860000D02*
X9249000Y-7900000D01*
X9229000Y-7880000D02*
X9269000Y-7880000D01*
X9449000Y-7400000D02*
X9449000Y-7440000D01*
X9429000Y-7420000D02*
X9469000Y-7420000D01*
X9489000Y-7860000D02*
X9489000Y-7900000D01*
X9469000Y-7880000D02*
X9509000Y-7880000D01*
X9549000Y-7440000D02*
X9549000Y-7480000D01*
X9529000Y-7460000D02*
X9569000Y-7460000D01*
X9694000Y-10995000D02*
X9694000Y-11035000D01*
X9674000Y-11015000D02*
X9714000Y-11015000D01*
X9799000Y-8860000D02*
X9799000Y-8900000D01*
X9779000Y-8880000D02*
X9819000Y-8880000D01*
X9839000Y-8370000D02*
X9839000Y-8410000D01*
X9819000Y-8390000D02*
X9859000Y-8390000D01*
X9849000Y-7840000D02*
X9849000Y-7880000D01*
X9829000Y-7860000D02*
X9869000Y-7860000D01*
X9969000Y-10770000D02*
X9969000Y-10810000D01*
X9949000Y-10790000D02*
X9989000Y-10790000D01*
X10029000Y-7300000D02*
X10029000Y-7340000D01*
X10009000Y-7320000D02*
X10049000Y-7320000D01*
X10029000Y-7400000D02*
X10029000Y-7440000D01*
X10009000Y-7420000D02*
X10049000Y-7420000D01*
X10029000Y-7500000D02*
X10029000Y-7540000D01*
X10009000Y-7520000D02*
X10049000Y-7520000D01*
X10129000Y-7300000D02*
X10129000Y-7340000D01*
X10109000Y-7320000D02*
X10149000Y-7320000D01*
X10129000Y-7400000D02*
X10129000Y-7440000D01*
X10109000Y-7420000D02*
X10149000Y-7420000D01*
X10129000Y-7500000D02*
X10129000Y-7540000D01*
X10109000Y-7520000D02*
X10149000Y-7520000D01*
X10169000Y-9820000D02*
X10169000Y-9860000D01*
X10149000Y-9840000D02*
X10189000Y-9840000D01*
X10229000Y-11940000D02*
X10229000Y-11980000D01*
X10209000Y-11960000D02*
X10249000Y-11960000D01*
X10309000Y-9510000D02*
X10309000Y-9550000D01*
X10289000Y-9530000D02*
X10329000Y-9530000D01*
X10369000Y-11345000D02*
X10369000Y-11385000D01*
X10349000Y-11365000D02*
X10389000Y-11365000D01*
X10429000Y-7250000D02*
X10429000Y-7290000D01*
X10409000Y-7270000D02*
X10449000Y-7270000D01*
X10529000Y-7000000D02*
X10529000Y-7040000D01*
X10509000Y-7020000D02*
X10549000Y-7020000D01*
X10539000Y-7760000D02*
X10539000Y-7800000D01*
X10519000Y-7780000D02*
X10559000Y-7780000D01*
X10659000Y-7420000D02*
X10659000Y-7460000D01*
X10639000Y-7440000D02*
X10679000Y-7440000D01*
X10669000Y-7110000D02*
X10669000Y-7150000D01*
X10649000Y-7130000D02*
X10689000Y-7130000D01*
X10679000Y-11470000D02*
X10679000Y-11510000D01*
X10659000Y-11490000D02*
X10699000Y-11490000D01*
X10680000Y-11260000D02*
X10680000Y-11300000D01*
X10660000Y-11280000D02*
X10700000Y-11280000D01*
X10689000Y-8120000D02*
X10689000Y-8160000D01*
X10669000Y-8140000D02*
X10709000Y-8140000D01*
X10709000Y-8470000D02*
X10709000Y-8510000D01*
X10689000Y-8490000D02*
X10729000Y-8490000D01*
X10759000Y-6990000D02*
X10759000Y-7030000D01*
X10739000Y-7010000D02*
X10779000Y-7010000D01*
X10789000Y-9800000D02*
X10789000Y-9840000D01*
X10769000Y-9820000D02*
X10809000Y-9820000D01*
X10809000Y-8967000D02*
X10809000Y-9007000D01*
X10789000Y-8987000D02*
X10829000Y-8987000D01*
X10829000Y-11960000D02*
X10829000Y-12000000D01*
X10809000Y-11980000D02*
X10849000Y-11980000D01*
X10872318Y-9224168D02*
X10872318Y-9264168D01*
X10852318Y-9244168D02*
X10892318Y-9244168D01*
X10889000Y-11060000D02*
X10889000Y-11100000D01*
X10869000Y-11080000D02*
X10909000Y-11080000D01*
X10899000Y-10225000D02*
X10899000Y-10265000D01*
X10879000Y-10245000D02*
X10919000Y-10245000D01*
X10919000Y-6980000D02*
X10919000Y-7020000D01*
X10899000Y-7000000D02*
X10939000Y-7000000D01*
X10919000Y-7420000D02*
X10919000Y-7460000D01*
X10899000Y-7440000D02*
X10939000Y-7440000D01*
X10936657Y-9455050D02*
X10936657Y-9495050D01*
X10916657Y-9475050D02*
X10956657Y-9475050D01*
X10992206Y-9368763D02*
X10992206Y-9408763D01*
X10972206Y-9388763D02*
X11012206Y-9388763D01*
X11013953Y-9535050D02*
X11013953Y-9575050D01*
X10993953Y-9555050D02*
X11033953Y-9555050D01*
X11050665Y-9287691D02*
X11050665Y-9327691D01*
X11030665Y-9307691D02*
X11070665Y-9307691D01*
X11069000Y-6960000D02*
X11069000Y-7000000D01*
X11049000Y-6980000D02*
X11089000Y-6980000D01*
X11119000Y-7200000D02*
X11119000Y-7240000D01*
X11099000Y-7220000D02*
X11139000Y-7220000D01*
X11129000Y-10235000D02*
X11129000Y-10275000D01*
X11109000Y-10255000D02*
X11149000Y-10255000D01*
X11179000Y-8500000D02*
X11179000Y-8540000D01*
X11159000Y-8520000D02*
X11199000Y-8520000D01*
X11199000Y-11140000D02*
X11199000Y-11180000D01*
X11179000Y-11160000D02*
X11219000Y-11160000D01*
X11219000Y-11680000D02*
X11219000Y-11720000D01*
X11199000Y-11700000D02*
X11239000Y-11700000D01*
X11230000Y-9610000D02*
X11230000Y-9650000D01*
X11210000Y-9630000D02*
X11250000Y-9630000D01*
X11239000Y-10945000D02*
X11239000Y-10985000D01*
X11219000Y-10965000D02*
X11259000Y-10965000D01*
X11249000Y-7030000D02*
X11249000Y-7070000D01*
X11229000Y-7050000D02*
X11269000Y-7050000D01*
X11279000Y-8670000D02*
X11279000Y-8710000D01*
X11259000Y-8690000D02*
X11299000Y-8690000D01*
X11290000Y-8210000D02*
X11290000Y-8250000D01*
X11270000Y-8230000D02*
X11310000Y-8230000D01*
X11339000Y-9174950D02*
X11339000Y-9214950D01*
X11319000Y-9194950D02*
X11359000Y-9194950D01*
X11349000Y-7670000D02*
X11349000Y-7710000D01*
X11329000Y-7690000D02*
X11369000Y-7690000D01*
X11350000Y-8460000D02*
X11350000Y-8500000D01*
X11330000Y-8480000D02*
X11370000Y-8480000D01*
X11459000Y-8120000D02*
X11459000Y-8160000D01*
X11439000Y-8140000D02*
X11479000Y-8140000D01*
X11489000Y-7870000D02*
X11489000Y-7910000D01*
X11469000Y-7890000D02*
X11509000Y-7890000D01*
X11499000Y-7500000D02*
X11499000Y-7540000D01*
X11479000Y-7520000D02*
X11519000Y-7520000D01*
X11510000Y-7690000D02*
X11510000Y-7730000D01*
X11490000Y-7710000D02*
X11530000Y-7710000D01*
X11559000Y-7250000D02*
X11559000Y-7290000D01*
X11539000Y-7270000D02*
X11579000Y-7270000D01*
X11589000Y-7040000D02*
X11589000Y-7080000D01*
X11569000Y-7060000D02*
X11609000Y-7060000D01*
X11620000Y-11790000D02*
X11620000Y-11830000D01*
X11600000Y-11810000D02*
X11640000Y-11810000D01*
X11639000Y-10425000D02*
X11639000Y-10465000D01*
X11619000Y-10445000D02*
X11659000Y-10445000D01*
X11639000Y-11230000D02*
X11639000Y-11270000D01*
X11619000Y-11250000D02*
X11659000Y-11250000D01*
X11640000Y-9615000D02*
X11640000Y-9655000D01*
X11620000Y-9635000D02*
X11660000Y-9635000D01*
X11670000Y-9090000D02*
X11670000Y-9130000D01*
X11650000Y-9110000D02*
X11690000Y-9110000D01*
X11679000Y-8740000D02*
X11679000Y-8780000D01*
X11659000Y-8760000D02*
X11699000Y-8760000D01*
X11680000Y-9910000D02*
X11680000Y-9950000D01*
X11660000Y-9930000D02*
X11700000Y-9930000D01*
X11779000Y-10920000D02*
X11779000Y-10960000D01*
X11759000Y-10940000D02*
X11799000Y-10940000D01*
X11799000Y-8392001D02*
X11799000Y-8432001D01*
X11779000Y-8412001D02*
X11819000Y-8412001D01*
X11820000Y-11400000D02*
X11820000Y-11440000D01*
X11800000Y-11420000D02*
X11840000Y-11420000D01*
X11830000Y-7780000D02*
X11830000Y-7820000D01*
X11810000Y-7800000D02*
X11850000Y-7800000D01*
X11839000Y-7990000D02*
X11839000Y-8030000D01*
X11819000Y-8010000D02*
X11859000Y-8010000D01*
X11869000Y-8870000D02*
X11869000Y-8910000D01*
X11849000Y-8890000D02*
X11889000Y-8890000D01*
X11930000Y-11930000D02*
X11930000Y-11970000D01*
X11910000Y-11950000D02*
X11950000Y-11950000D01*
X11954000Y-10025000D02*
X11954000Y-10065000D01*
X11934000Y-10045000D02*
X11974000Y-10045000D01*
X11959000Y-8762000D02*
X11959000Y-8802000D01*
X11939000Y-8782000D02*
X11979000Y-8782000D01*
X11959000Y-10605000D02*
X11959000Y-10645000D01*
X11939000Y-10625000D02*
X11979000Y-10625000D01*
X11959000Y-11490000D02*
X11959000Y-11530000D01*
X11939000Y-11510000D02*
X11979000Y-11510000D01*
X11964000Y-7717000D02*
X11964000Y-7757000D01*
X11944000Y-7737000D02*
X11984000Y-7737000D01*
X11964000Y-7817000D02*
X11964000Y-7857000D01*
X11944000Y-7837000D02*
X11984000Y-7837000D01*
X11964000Y-8292000D02*
X11964000Y-8332000D01*
X11944000Y-8312000D02*
X11984000Y-8312000D01*
X11964000Y-8392000D02*
X11964000Y-8432000D01*
X11944000Y-8412000D02*
X11984000Y-8412000D01*
X11964000Y-8662000D02*
X11964000Y-8702000D01*
X11944000Y-8682000D02*
X11984000Y-8682000D01*
X11964000Y-9137000D02*
X11964000Y-9177000D01*
X11944000Y-9157000D02*
X11984000Y-9157000D01*
X11964000Y-9237000D02*
X11964000Y-9277000D01*
X11944000Y-9257000D02*
X11984000Y-9257000D01*
X11964000Y-9660000D02*
X11964000Y-9700000D01*
X11944000Y-9680000D02*
X11984000Y-9680000D01*
X11964000Y-9760000D02*
X11964000Y-9800000D01*
X11944000Y-9780000D02*
X11984000Y-9780000D01*
X11964000Y-10235000D02*
X11964000Y-10275000D01*
X11944000Y-10255000D02*
X11984000Y-10255000D01*
X11964000Y-10335000D02*
X11964000Y-10375000D01*
X11944000Y-10355000D02*
X11984000Y-10355000D01*
X11964000Y-10505000D02*
X11964000Y-10545000D01*
X11944000Y-10525000D02*
X11984000Y-10525000D01*
X11964000Y-11080000D02*
X11964000Y-11120000D01*
X11944000Y-11100000D02*
X11984000Y-11100000D01*
X11964000Y-11180000D02*
X11964000Y-11220000D01*
X11944000Y-11200000D02*
X11984000Y-11200000D01*
X11964000Y-11390000D02*
X11964000Y-11430000D01*
X11944000Y-11410000D02*
X11984000Y-11410000D01*
X11964000Y-11825000D02*
X11964000Y-11865000D01*
X11944000Y-11845000D02*
X11984000Y-11845000D01*
X12054000Y-10025000D02*
X12054000Y-10065000D01*
X12034000Y-10045000D02*
X12074000Y-10045000D01*
X12059000Y-8762000D02*
X12059000Y-8802000D01*
X12039000Y-8782000D02*
X12079000Y-8782000D01*
X12059000Y-10605000D02*
X12059000Y-10645000D01*
X12039000Y-10625000D02*
X12079000Y-10625000D01*
X12059000Y-11490000D02*
X12059000Y-11530000D01*
X12039000Y-11510000D02*
X12079000Y-11510000D01*
X12064000Y-7717000D02*
X12064000Y-7757000D01*
X12044000Y-7737000D02*
X12084000Y-7737000D01*
X12064000Y-7817000D02*
X12064000Y-7857000D01*
X12044000Y-7837000D02*
X12084000Y-7837000D01*
X12064000Y-8292000D02*
X12064000Y-8332000D01*
X12044000Y-8312000D02*
X12084000Y-8312000D01*
X12064000Y-8392000D02*
X12064000Y-8432000D01*
X12044000Y-8412000D02*
X12084000Y-8412000D01*
X12064000Y-8662000D02*
X12064000Y-8702000D01*
X12044000Y-8682000D02*
X12084000Y-8682000D01*
X12064000Y-9137000D02*
X12064000Y-9177000D01*
X12044000Y-9157000D02*
X12084000Y-9157000D01*
X12064000Y-9237000D02*
X12064000Y-9277000D01*
X12044000Y-9257000D02*
X12084000Y-9257000D01*
X12064000Y-9660000D02*
X12064000Y-9700000D01*
X12044000Y-9680000D02*
X12084000Y-9680000D01*
X12064000Y-9760000D02*
X12064000Y-9800000D01*
X12044000Y-9780000D02*
X12084000Y-9780000D01*
X12064000Y-10235000D02*
X12064000Y-10275000D01*
X12044000Y-10255000D02*
X12084000Y-10255000D01*
X12064000Y-10335000D02*
X12064000Y-10375000D01*
X12044000Y-10355000D02*
X12084000Y-10355000D01*
X12064000Y-10505000D02*
X12064000Y-10545000D01*
X12044000Y-10525000D02*
X12084000Y-10525000D01*
X12064000Y-11080000D02*
X12064000Y-11120000D01*
X12044000Y-11100000D02*
X12084000Y-11100000D01*
X12064000Y-11180000D02*
X12064000Y-11220000D01*
X12044000Y-11200000D02*
X12084000Y-11200000D01*
X12064000Y-11390000D02*
X12064000Y-11430000D01*
X12044000Y-11410000D02*
X12084000Y-11410000D01*
X12064000Y-11825000D02*
X12064000Y-11865000D01*
X12044000Y-11845000D02*
X12084000Y-11845000D01*
X12154000Y-10025000D02*
X12154000Y-10065000D01*
X12134000Y-10045000D02*
X12174000Y-10045000D01*
X12159000Y-8762000D02*
X12159000Y-8802000D01*
X12139000Y-8782000D02*
X12179000Y-8782000D01*
X12159000Y-10605000D02*
X12159000Y-10645000D01*
X12139000Y-10625000D02*
X12179000Y-10625000D01*
X12159000Y-11490000D02*
X12159000Y-11530000D01*
X12139000Y-11510000D02*
X12179000Y-11510000D01*
X12164000Y-7717000D02*
X12164000Y-7757000D01*
X12144000Y-7737000D02*
X12184000Y-7737000D01*
X12164000Y-7817000D02*
X12164000Y-7857000D01*
X12144000Y-7837000D02*
X12184000Y-7837000D01*
X12164000Y-8292000D02*
X12164000Y-8332000D01*
X12144000Y-8312000D02*
X12184000Y-8312000D01*
X12164000Y-8392000D02*
X12164000Y-8432000D01*
X12144000Y-8412000D02*
X12184000Y-8412000D01*
X12164000Y-8662000D02*
X12164000Y-8702000D01*
X12144000Y-8682000D02*
X12184000Y-8682000D01*
X12164000Y-9137000D02*
X12164000Y-9177000D01*
X12144000Y-9157000D02*
X12184000Y-9157000D01*
X12164000Y-9237000D02*
X12164000Y-9277000D01*
X12144000Y-9257000D02*
X12184000Y-9257000D01*
X12164000Y-9660000D02*
X12164000Y-9700000D01*
X12144000Y-9680000D02*
X12184000Y-9680000D01*
X12164000Y-9760000D02*
X12164000Y-9800000D01*
X12144000Y-9780000D02*
X12184000Y-9780000D01*
X12164000Y-10235000D02*
X12164000Y-10275000D01*
X12144000Y-10255000D02*
X12184000Y-10255000D01*
X12164000Y-10335000D02*
X12164000Y-10375000D01*
X12144000Y-10355000D02*
X12184000Y-10355000D01*
X12164000Y-10505000D02*
X12164000Y-10545000D01*
X12144000Y-10525000D02*
X12184000Y-10525000D01*
X12164000Y-11080000D02*
X12164000Y-11120000D01*
X12144000Y-11100000D02*
X12184000Y-11100000D01*
X12164000Y-11180000D02*
X12164000Y-11220000D01*
X12144000Y-11200000D02*
X12184000Y-11200000D01*
X12164000Y-11390000D02*
X12164000Y-11430000D01*
X12144000Y-11410000D02*
X12184000Y-11410000D01*
X12164000Y-11825000D02*
X12164000Y-11865000D01*
X12144000Y-11845000D02*
X12184000Y-11845000D01*
X12254000Y-10025000D02*
X12254000Y-10065000D01*
X12234000Y-10045000D02*
X12274000Y-10045000D01*
X12259000Y-8762000D02*
X12259000Y-8802000D01*
X12239000Y-8782000D02*
X12279000Y-8782000D01*
X12259000Y-10605000D02*
X12259000Y-10645000D01*
X12239000Y-10625000D02*
X12279000Y-10625000D01*
X12259000Y-11490000D02*
X12259000Y-11530000D01*
X12239000Y-11510000D02*
X12279000Y-11510000D01*
X12264000Y-7717000D02*
X12264000Y-7757000D01*
X12244000Y-7737000D02*
X12284000Y-7737000D01*
X12264000Y-7817000D02*
X12264000Y-7857000D01*
X12244000Y-7837000D02*
X12284000Y-7837000D01*
X12264000Y-8292000D02*
X12264000Y-8332000D01*
X12244000Y-8312000D02*
X12284000Y-8312000D01*
X12264000Y-8392000D02*
X12264000Y-8432000D01*
X12244000Y-8412000D02*
X12284000Y-8412000D01*
X12264000Y-8662000D02*
X12264000Y-8702000D01*
X12244000Y-8682000D02*
X12284000Y-8682000D01*
X12264000Y-9137000D02*
X12264000Y-9177000D01*
X12244000Y-9157000D02*
X12284000Y-9157000D01*
X12264000Y-9237000D02*
X12264000Y-9277000D01*
X12244000Y-9257000D02*
X12284000Y-9257000D01*
X12264000Y-9660000D02*
X12264000Y-9700000D01*
X12244000Y-9680000D02*
X12284000Y-9680000D01*
X12264000Y-9760000D02*
X12264000Y-9800000D01*
X12244000Y-9780000D02*
X12284000Y-9780000D01*
X12264000Y-10235000D02*
X12264000Y-10275000D01*
X12244000Y-10255000D02*
X12284000Y-10255000D01*
X12264000Y-10335000D02*
X12264000Y-10375000D01*
X12244000Y-10355000D02*
X12284000Y-10355000D01*
X12264000Y-10505000D02*
X12264000Y-10545000D01*
X12244000Y-10525000D02*
X12284000Y-10525000D01*
X12264000Y-11080000D02*
X12264000Y-11120000D01*
X12244000Y-11100000D02*
X12284000Y-11100000D01*
X12264000Y-11180000D02*
X12264000Y-11220000D01*
X12244000Y-11200000D02*
X12284000Y-11200000D01*
X12264000Y-11390000D02*
X12264000Y-11430000D01*
X12244000Y-11410000D02*
X12284000Y-11410000D01*
X12264000Y-11825000D02*
X12264000Y-11865000D01*
X12244000Y-11845000D02*
X12284000Y-11845000D01*
X13640000Y-11540000D02*
X13640000Y-11580000D01*
X13620000Y-11560000D02*
X13660000Y-11560000D01*
X13659000Y-6795000D02*
X13659000Y-6835000D01*
X13639000Y-6815000D02*
X13679000Y-6815000D01*
X13669000Y-10655000D02*
X13669000Y-10695000D01*
X13649000Y-10675000D02*
X13689000Y-10675000D01*
X13690000Y-7620000D02*
X13690000Y-7660000D01*
X13670000Y-7640000D02*
X13710000Y-7640000D01*
X13699000Y-8440000D02*
X13699000Y-8480000D01*
X13679000Y-8460000D02*
X13719000Y-8460000D01*
X14469000Y-11510000D02*
X14469000Y-11550000D01*
X14449000Y-11530000D02*
X14489000Y-11530000D01*
X14490000Y-10590000D02*
X14490000Y-10630000D01*
X14470000Y-10610000D02*
X14510000Y-10610000D01*
X14519000Y-7580000D02*
X14519000Y-7620000D01*
X14499000Y-7600000D02*
X14539000Y-7600000D01*
X14619000Y-6794950D02*
X14619000Y-6834950D01*
X14599000Y-6814950D02*
X14639000Y-6814950D01*
X14919000Y-9550000D02*
X14919000Y-9590000D01*
X14899000Y-9570000D02*
X14939000Y-9570000D01*
X15189000Y-10550000D02*
X15189000Y-10590000D01*
X15169000Y-10570000D02*
X15209000Y-10570000D01*
X15189000Y-10650000D02*
X15189000Y-10690000D01*
X15169000Y-10670000D02*
X15209000Y-10670000D01*
X15189000Y-11340000D02*
X15189000Y-11380000D01*
X15169000Y-11360000D02*
X15209000Y-11360000D01*
X15189000Y-11440000D02*
X15189000Y-11480000D01*
X15169000Y-11460000D02*
X15209000Y-11460000D01*
X15199000Y-7520000D02*
X15199000Y-7560000D01*
X15179000Y-7540000D02*
X15219000Y-7540000D01*
X15199000Y-7620000D02*
X15199000Y-7660000D01*
X15179000Y-7640000D02*
X15219000Y-7640000D01*
X15204000Y-8313000D02*
X15204000Y-8353000D01*
X15184000Y-8333000D02*
X15224000Y-8333000D01*
X15204000Y-8413000D02*
X15204000Y-8453000D01*
X15184000Y-8433000D02*
X15224000Y-8433000D01*
X15284000Y-10547000D02*
X15284000Y-10587000D01*
X15264000Y-10567000D02*
X15304000Y-10567000D01*
X15284000Y-10647000D02*
X15284000Y-10687000D01*
X15264000Y-10667000D02*
X15304000Y-10667000D01*
X15284000Y-11337000D02*
X15284000Y-11377000D01*
X15264000Y-11357000D02*
X15304000Y-11357000D01*
X15284000Y-11437000D02*
X15284000Y-11477000D01*
X15264000Y-11457000D02*
X15304000Y-11457000D01*
X15294000Y-7517000D02*
X15294000Y-7557000D01*
X15274000Y-7537000D02*
X15314000Y-7537000D01*
X15294000Y-7617000D02*
X15294000Y-7657000D01*
X15274000Y-7637000D02*
X15314000Y-7637000D01*
X15299000Y-8310000D02*
X15299000Y-8350000D01*
X15279000Y-8330000D02*
X15319000Y-8330000D01*
X15299000Y-8410000D02*
X15299000Y-8450000D01*
X15279000Y-8430000D02*
X15319000Y-8430000D01*
X15384000Y-10547000D02*
X15384000Y-10587000D01*
X15364000Y-10567000D02*
X15404000Y-10567000D01*
X15384000Y-10647000D02*
X15384000Y-10687000D01*
X15364000Y-10667000D02*
X15404000Y-10667000D01*
X15384000Y-11337000D02*
X15384000Y-11377000D01*
X15364000Y-11357000D02*
X15404000Y-11357000D01*
X15384000Y-11437000D02*
X15384000Y-11477000D01*
X15364000Y-11457000D02*
X15404000Y-11457000D01*
X15394000Y-7517000D02*
X15394000Y-7557000D01*
X15374000Y-7537000D02*
X15414000Y-7537000D01*
X15394000Y-7617000D02*
X15394000Y-7657000D01*
X15374000Y-7637000D02*
X15414000Y-7637000D01*
X15399000Y-8310000D02*
X15399000Y-8350000D01*
X15379000Y-8330000D02*
X15419000Y-8330000D01*
X15399000Y-8410000D02*
X15399000Y-8450000D01*
X15379000Y-8430000D02*
X15419000Y-8430000D01*
X15484000Y-10547000D02*
X15484000Y-10587000D01*
X15464000Y-10567000D02*
X15504000Y-10567000D01*
X15484000Y-10647000D02*
X15484000Y-10687000D01*
X15464000Y-10667000D02*
X15504000Y-10667000D01*
X15484000Y-11337000D02*
X15484000Y-11377000D01*
X15464000Y-11357000D02*
X15504000Y-11357000D01*
X15484000Y-11437000D02*
X15484000Y-11477000D01*
X15464000Y-11457000D02*
X15504000Y-11457000D01*
X15494000Y-7517000D02*
X15494000Y-7557000D01*
X15474000Y-7537000D02*
X15514000Y-7537000D01*
X15494000Y-7617000D02*
X15494000Y-7657000D01*
X15474000Y-7637000D02*
X15514000Y-7637000D01*
X15499000Y-8310000D02*
X15499000Y-8350000D01*
X15479000Y-8330000D02*
X15519000Y-8330000D01*
X15499000Y-8410000D02*
X15499000Y-8450000D01*
X15479000Y-8430000D02*
X15519000Y-8430000D01*
X15584000Y-10547000D02*
X15584000Y-10587000D01*
X15564000Y-10567000D02*
X15604000Y-10567000D01*
X15584000Y-10647000D02*
X15584000Y-10687000D01*
X15564000Y-10667000D02*
X15604000Y-10667000D01*
X15584000Y-11337000D02*
X15584000Y-11377000D01*
X15564000Y-11357000D02*
X15604000Y-11357000D01*
X15584000Y-11437000D02*
X15584000Y-11477000D01*
X15564000Y-11457000D02*
X15604000Y-11457000D01*
X15594000Y-7517000D02*
X15594000Y-7557000D01*
X15574000Y-7537000D02*
X15614000Y-7537000D01*
X15594000Y-7617000D02*
X15594000Y-7657000D01*
X15574000Y-7637000D02*
X15614000Y-7637000D01*
X15599000Y-8310000D02*
X15599000Y-8350000D01*
X15579000Y-8330000D02*
X15619000Y-8330000D01*
X15599000Y-8410000D02*
X15599000Y-8450000D01*
X15579000Y-8430000D02*
X15619000Y-8430000D01*
X15684000Y-10547000D02*
X15684000Y-10587000D01*
X15664000Y-10567000D02*
X15704000Y-10567000D01*
X15684000Y-10647000D02*
X15684000Y-10687000D01*
X15664000Y-10667000D02*
X15704000Y-10667000D01*
X15684000Y-11337000D02*
X15684000Y-11377000D01*
X15664000Y-11357000D02*
X15704000Y-11357000D01*
X15684000Y-11437000D02*
X15684000Y-11477000D01*
X15664000Y-11457000D02*
X15704000Y-11457000D01*
X15694000Y-7517000D02*
X15694000Y-7557000D01*
X15674000Y-7537000D02*
X15714000Y-7537000D01*
X15694000Y-7617000D02*
X15694000Y-7657000D01*
X15674000Y-7637000D02*
X15714000Y-7637000D01*
X15699000Y-8310000D02*
X15699000Y-8350000D01*
X15679000Y-8330000D02*
X15719000Y-8330000D01*
X15699000Y-8410000D02*
X15699000Y-8450000D01*
X15679000Y-8430000D02*
X15719000Y-8430000D01*
X15779000Y-10550000D02*
X15779000Y-10590000D01*
X15759000Y-10570000D02*
X15799000Y-10570000D01*
X15779000Y-10650000D02*
X15779000Y-10690000D01*
X15759000Y-10670000D02*
X15799000Y-10670000D01*
X15779000Y-11340000D02*
X15779000Y-11380000D01*
X15759000Y-11360000D02*
X15799000Y-11360000D01*
X15779000Y-11440000D02*
X15779000Y-11480000D01*
X15759000Y-11460000D02*
X15799000Y-11460000D01*
X15789000Y-7520000D02*
X15789000Y-7560000D01*
X15769000Y-7540000D02*
X15809000Y-7540000D01*
X15789000Y-7620000D02*
X15789000Y-7660000D01*
X15769000Y-7640000D02*
X15809000Y-7640000D01*
X15794000Y-8313000D02*
X15794000Y-8353000D01*
X15774000Y-8333000D02*
X15814000Y-8333000D01*
X15794000Y-8413000D02*
X15794000Y-8453000D01*
X15774000Y-8433000D02*
X15814000Y-8433000D01*
X15879000Y-10550000D02*
X15879000Y-10590000D01*
X15859000Y-10570000D02*
X15899000Y-10570000D01*
X15879000Y-10650000D02*
X15879000Y-10690000D01*
X15859000Y-10670000D02*
X15899000Y-10670000D01*
X15879000Y-11340000D02*
X15879000Y-11380000D01*
X15859000Y-11360000D02*
X15899000Y-11360000D01*
X15879000Y-11440000D02*
X15879000Y-11480000D01*
X15859000Y-11460000D02*
X15899000Y-11460000D01*
X15889000Y-7520000D02*
X15889000Y-7560000D01*
X15869000Y-7540000D02*
X15909000Y-7540000D01*
X15889000Y-7620000D02*
X15889000Y-7660000D01*
X15869000Y-7640000D02*
X15909000Y-7640000D01*
X15894000Y-8313000D02*
X15894000Y-8353000D01*
X15874000Y-8333000D02*
X15914000Y-8333000D01*
X15894000Y-8413000D02*
X15894000Y-8453000D01*
X15874000Y-8433000D02*
X15914000Y-8433000D01*
X15979000Y-10550000D02*
X15979000Y-10590000D01*
X15959000Y-10570000D02*
X15999000Y-10570000D01*
X15979000Y-10650000D02*
X15979000Y-10690000D01*
X15959000Y-10670000D02*
X15999000Y-10670000D01*
X15979000Y-11340000D02*
X15979000Y-11380000D01*
X15959000Y-11360000D02*
X15999000Y-11360000D01*
X15979000Y-11440000D02*
X15979000Y-11480000D01*
X15959000Y-11460000D02*
X15999000Y-11460000D01*
X15989000Y-7520000D02*
X15989000Y-7560000D01*
X15969000Y-7540000D02*
X16009000Y-7540000D01*
X15989000Y-7620000D02*
X15989000Y-7660000D01*
X15969000Y-7640000D02*
X16009000Y-7640000D01*
X15994000Y-8313000D02*
X15994000Y-8353000D01*
X15974000Y-8333000D02*
X16014000Y-8333000D01*
X15994000Y-8413000D02*
X15994000Y-8453000D01*
X15974000Y-8433000D02*
X16014000Y-8433000D01*
D14*
X8728213Y-11575713D02*
X8728213Y-11533287D01*
X8685787Y-11533287D01*
X8685787Y-11575713D01*
X8728213Y-11575713D01*
D11*
X8687000Y-11499500D02*
X8687000Y-11609500D01*
X8727000Y-11499500D02*
X8727000Y-11609500D01*
X8687000Y-11609500D02*
G75*
G03*
X8727000Y-11609500I20000J0D01*
G01*
X8727000Y-11499500D02*
G75*
G03*
X8687000Y-11499500I-20000J0D01*
G01*
D14*
X8728213Y-11993713D02*
X8728213Y-11951287D01*
X8685787Y-11951287D01*
X8685787Y-11993713D01*
X8728213Y-11993713D01*
D11*
X8687000Y-11942500D02*
X8687000Y-12002500D01*
X8727000Y-11942500D02*
X8727000Y-12002500D01*
X8687000Y-12002500D02*
G75*
G03*
X8727000Y-12002500I20000J0D01*
G01*
X8727000Y-11942500D02*
G75*
G03*
X8687000Y-11942500I-20000J0D01*
G01*
D14*
X9592213Y-11575713D02*
X9592213Y-11533287D01*
X9549787Y-11533287D01*
X9549787Y-11575713D01*
X9592213Y-11575713D01*
D11*
X9551000Y-11499500D02*
X9551000Y-11609500D01*
X9591000Y-11499500D02*
X9591000Y-11609500D01*
X9551000Y-11609500D02*
G75*
G03*
X9591000Y-11609500I20000J0D01*
G01*
X9591000Y-11499500D02*
G75*
G03*
X9551000Y-11499500I-20000J0D01*
G01*
D14*
X9592213Y-11993713D02*
X9592213Y-11951287D01*
X9549787Y-11951287D01*
X9549787Y-11993713D01*
X9592213Y-11993713D01*
D11*
X9551000Y-11942500D02*
X9551000Y-12002500D01*
X9591000Y-11942500D02*
X9591000Y-12002500D01*
X9551000Y-12002500D02*
G75*
G03*
X9591000Y-12002500I20000J0D01*
G01*
X9591000Y-11942500D02*
G75*
G03*
X9551000Y-11942500I-20000J0D01*
G01*
D15*
X9649000Y-8255000D02*
X9704000Y-8200000D01*
X9649000Y-8145000D01*
X9594000Y-8200000D01*
X9649000Y-8255000D01*
X9649000Y-8705000D02*
X9704000Y-8650000D01*
X9649000Y-8595000D01*
X9594000Y-8650000D01*
X9649000Y-8705000D01*
X10299000Y-8255000D02*
X10354000Y-8200000D01*
X10299000Y-8145000D01*
X10244000Y-8200000D01*
X10299000Y-8255000D01*
X10299000Y-8705000D02*
X10354000Y-8650000D01*
X10299000Y-8595000D01*
X10244000Y-8650000D01*
X10299000Y-8705000D01*
D16*
X7825500Y-6913500D02*
X7944500Y-7032500D01*
X7944500Y-6913500D02*
X7825500Y-7032500D01*
X7944500Y-6973000D02*
G75*
G03*
X7944500Y-6973000I-59500J0D01*
G01*
X7825500Y-7167500D02*
X7944500Y-7286500D01*
X7944500Y-7167500D02*
X7825500Y-7286500D01*
X7944500Y-7227000D02*
G75*
G03*
X7944500Y-7227000I-59500J0D01*
G01*
X7825500Y-7421500D02*
X7944500Y-7540500D01*
X7944500Y-7421500D02*
X7825500Y-7540500D01*
X7944500Y-7481000D02*
G75*
G03*
X7944500Y-7481000I-59500J0D01*
G01*
X7825500Y-7675500D02*
X7944500Y-7794500D01*
X7944500Y-7675500D02*
X7825500Y-7794500D01*
X7944500Y-7735000D02*
G75*
G03*
X7944500Y-7735000I-59500J0D01*
G01*
X7825500Y-8048500D02*
X7944500Y-8167500D01*
X7944500Y-8048500D02*
X7825500Y-8167500D01*
X7944500Y-8108000D02*
G75*
G03*
X7944500Y-8108000I-59500J0D01*
G01*
X7825500Y-8302500D02*
X7944500Y-8421500D01*
X7944500Y-8302500D02*
X7825500Y-8421500D01*
X7944500Y-8362000D02*
G75*
G03*
X7944500Y-8362000I-59500J0D01*
G01*
X7825500Y-8556500D02*
X7944500Y-8675500D01*
X7944500Y-8556500D02*
X7825500Y-8675500D01*
X7944500Y-8616000D02*
G75*
G03*
X7944500Y-8616000I-59500J0D01*
G01*
X7825500Y-8810500D02*
X7944500Y-8929500D01*
X7944500Y-8810500D02*
X7825500Y-8929500D01*
X7944500Y-8870000D02*
G75*
G03*
X7944500Y-8870000I-59500J0D01*
G01*
X7825500Y-9180500D02*
X7944500Y-9299500D01*
X7944500Y-9180500D02*
X7825500Y-9299500D01*
X7944500Y-9240000D02*
G75*
G03*
X7944500Y-9240000I-59500J0D01*
G01*
X7825500Y-9434500D02*
X7944500Y-9553500D01*
X7944500Y-9434500D02*
X7825500Y-9553500D01*
X7944500Y-9494000D02*
G75*
G03*
X7944500Y-9494000I-59500J0D01*
G01*
X7825500Y-9688500D02*
X7944500Y-9807500D01*
X7944500Y-9688500D02*
X7825500Y-9807500D01*
X7944500Y-9748000D02*
G75*
G03*
X7944500Y-9748000I-59500J0D01*
G01*
X7825500Y-9942500D02*
X7944500Y-10061500D01*
X7944500Y-9942500D02*
X7825500Y-10061500D01*
X7944500Y-10002000D02*
G75*
G03*
X7944500Y-10002000I-59500J0D01*
G01*
X7825500Y-10196500D02*
X7944500Y-10315500D01*
X7944500Y-10196500D02*
X7825500Y-10315500D01*
X7944500Y-10256000D02*
G75*
G03*
X7944500Y-10256000I-59500J0D01*
G01*
X7825500Y-10450500D02*
X7944500Y-10569500D01*
X7944500Y-10450500D02*
X7825500Y-10569500D01*
X7944500Y-10510000D02*
G75*
G03*
X7944500Y-10510000I-59500J0D01*
G01*
X7825500Y-10829500D02*
X7944500Y-10948500D01*
X7944500Y-10829500D02*
X7825500Y-10948500D01*
X7944500Y-10889000D02*
G75*
G03*
X7944500Y-10889000I-59500J0D01*
G01*
X7825500Y-11083500D02*
X7944500Y-11202500D01*
X7944500Y-11083500D02*
X7825500Y-11202500D01*
X7944500Y-11143000D02*
G75*
G03*
X7944500Y-11143000I-59500J0D01*
G01*
X7825500Y-11337500D02*
X7944500Y-11456500D01*
X7944500Y-11337500D02*
X7825500Y-11456500D01*
X7944500Y-11397000D02*
G75*
G03*
X7944500Y-11397000I-59500J0D01*
G01*
X7825500Y-11591500D02*
X7944500Y-11710500D01*
X7944500Y-11591500D02*
X7825500Y-11710500D01*
X7944500Y-11651000D02*
G75*
G03*
X7944500Y-11651000I-59500J0D01*
G01*
X7825500Y-11845500D02*
X7944500Y-11964500D01*
X7944500Y-11845500D02*
X7825500Y-11964500D01*
X7944500Y-11905000D02*
G75*
G03*
X7944500Y-11905000I-59500J0D01*
G01*
X8361500Y-8530500D02*
X8480500Y-8649500D01*
X8480500Y-8530500D02*
X8361500Y-8649500D01*
X8480500Y-8590000D02*
G75*
G03*
X8480500Y-8590000I-59500J0D01*
G01*
X8615500Y-8530500D02*
X8734500Y-8649500D01*
X8734500Y-8530500D02*
X8615500Y-8649500D01*
X8734500Y-8590000D02*
G75*
G03*
X8734500Y-8590000I-59500J0D01*
G01*
X8869500Y-8530500D02*
X8988500Y-8649500D01*
X8988500Y-8530500D02*
X8869500Y-8649500D01*
X8988500Y-8590000D02*
G75*
G03*
X8988500Y-8590000I-59500J0D01*
G01*
D17*
X15656900Y-7073000D02*
X15886900Y-7303000D01*
X15886900Y-7073000D02*
X15656900Y-7303000D01*
X15771900Y-7073000D02*
X15771900Y-7303000D01*
X15656900Y-7188000D02*
X15886900Y-7188000D01*
X15656900Y-10890000D02*
X15886900Y-11120000D01*
X15886900Y-10890000D02*
X15656900Y-11120000D01*
X15771900Y-10890000D02*
X15771900Y-11120000D01*
X15656900Y-11005000D02*
X15886900Y-11005000D01*
X15666900Y-7862000D02*
X15896900Y-8092000D01*
X15896900Y-7862000D02*
X15666900Y-8092000D01*
X15781900Y-7862000D02*
X15781900Y-8092000D01*
X15666900Y-7977000D02*
X15896900Y-7977000D01*
X15666900Y-10076000D02*
X15896900Y-10306000D01*
X15896900Y-10076000D02*
X15666900Y-10306000D01*
X15781900Y-10076000D02*
X15781900Y-10306000D01*
X15666900Y-10191000D02*
X15896900Y-10191000D01*
X15676900Y-8617000D02*
X15906900Y-8847000D01*
X15906900Y-8617000D02*
X15676900Y-8847000D01*
X15791900Y-8617000D02*
X15791900Y-8847000D01*
X15676900Y-8732000D02*
X15906900Y-8732000D01*
X15676900Y-11685000D02*
X15906900Y-11915000D01*
X15906900Y-11685000D02*
X15676900Y-11915000D01*
X15791900Y-11685000D02*
X15791900Y-11915000D01*
X15676900Y-11800000D02*
X15906900Y-11800000D01*
D18*
X11909000Y-7065000D02*
X12259000Y-7415000D01*
X12259000Y-7065000D02*
X11909000Y-7415000D01*
X12207745Y-7363745D02*
X12207745Y-7116255D01*
X11960255Y-7116255D01*
X11960255Y-7363745D01*
X12207745Y-7363745D01*
X12634000Y-7065000D02*
X12984000Y-7415000D01*
X12984000Y-7065000D02*
X12634000Y-7415000D01*
X12932745Y-7363745D02*
X12932745Y-7116255D01*
X12685255Y-7116255D01*
X12685255Y-7363745D01*
X12932745Y-7363745D01*
D11*
X7799119Y-12452976D02*
X7799119Y-12252976D01*
X7846738Y-12252976D01*
X7875309Y-12262500D01*
X7894357Y-12281548D01*
X7903881Y-12300595D01*
X7913405Y-12338690D01*
X7913405Y-12367262D01*
X7903881Y-12405357D01*
X7894357Y-12424405D01*
X7875309Y-12443452D01*
X7846738Y-12452976D01*
X7799119Y-12452976D01*
X7999119Y-12452976D02*
X7999119Y-12319643D01*
X7999119Y-12357738D02*
X8008643Y-12338690D01*
X8018167Y-12329167D01*
X8037214Y-12319643D01*
X8056262Y-12319643D01*
X8122928Y-12452976D02*
X8122928Y-12319643D01*
X8122928Y-12252976D02*
X8113405Y-12262500D01*
X8122928Y-12272024D01*
X8132452Y-12262500D01*
X8122928Y-12252976D01*
X8122928Y-12272024D01*
X8246738Y-12452976D02*
X8227690Y-12443452D01*
X8218167Y-12424405D01*
X8218167Y-12252976D01*
X8351500Y-12452976D02*
X8332452Y-12443452D01*
X8322928Y-12424405D01*
X8322928Y-12252976D01*
X8580071Y-12452976D02*
X8580071Y-12252976D01*
X8646738Y-12395833D01*
X8713405Y-12252976D01*
X8713405Y-12452976D01*
X8894357Y-12452976D02*
X8894357Y-12348214D01*
X8884833Y-12329167D01*
X8865786Y-12319643D01*
X8827690Y-12319643D01*
X8808643Y-12329167D01*
X8894357Y-12443452D02*
X8875310Y-12452976D01*
X8827690Y-12452976D01*
X8808643Y-12443452D01*
X8799119Y-12424405D01*
X8799119Y-12405357D01*
X8808643Y-12386309D01*
X8827690Y-12376786D01*
X8875310Y-12376786D01*
X8894357Y-12367262D01*
X8989595Y-12319643D02*
X8989595Y-12519643D01*
X8989595Y-12329167D02*
X9008643Y-12319643D01*
X9046738Y-12319643D01*
X9065786Y-12329167D01*
X9075310Y-12338690D01*
X9084833Y-12357738D01*
X9084833Y-12414881D01*
X9075310Y-12433928D01*
X9065786Y-12443452D01*
X9046738Y-12452976D01*
X9008643Y-12452976D01*
X8989595Y-12443452D01*
X9170548Y-12433928D02*
X9180071Y-12443452D01*
X9170548Y-12452976D01*
X9161024Y-12443452D01*
X9170548Y-12433928D01*
X9170548Y-12452976D01*
X9170548Y-12329167D02*
X9180071Y-12338690D01*
X9170548Y-12348214D01*
X9161024Y-12338690D01*
X9170548Y-12329167D01*
X9170548Y-12348214D01*
D12*
X7521500Y-12772500D02*
X7541500Y-12792500D01*
X7541500Y-12772500D02*
X7521500Y-12792500D01*
D11*
X7837214Y-12672976D02*
X7856262Y-12672976D01*
X7875309Y-12682500D01*
X7884833Y-12692024D01*
X7894357Y-12711071D01*
X7903881Y-12749167D01*
X7903881Y-12796786D01*
X7894357Y-12834881D01*
X7884833Y-12853928D01*
X7875309Y-12863452D01*
X7856262Y-12872976D01*
X7837214Y-12872976D01*
X7818167Y-12863452D01*
X7808643Y-12853928D01*
X7799119Y-12834881D01*
X7789595Y-12796786D01*
X7789595Y-12749167D01*
X7799119Y-12711071D01*
X7808643Y-12692024D01*
X7818167Y-12682500D01*
X7837214Y-12672976D01*
X7989595Y-12853928D02*
X7999119Y-12863452D01*
X7989595Y-12872976D01*
X7980071Y-12863452D01*
X7989595Y-12853928D01*
X7989595Y-12872976D01*
X8075309Y-12692024D02*
X8084833Y-12682500D01*
X8103881Y-12672976D01*
X8151500Y-12672976D01*
X8170548Y-12682500D01*
X8180071Y-12692024D01*
X8189595Y-12711071D01*
X8189595Y-12730119D01*
X8180071Y-12758690D01*
X8065786Y-12872976D01*
X8189595Y-12872976D01*
X8313405Y-12672976D02*
X8332452Y-12672976D01*
X8351500Y-12682500D01*
X8361024Y-12692024D01*
X8370548Y-12711071D01*
X8380071Y-12749167D01*
X8380071Y-12796786D01*
X8370548Y-12834881D01*
X8361024Y-12853928D01*
X8351500Y-12863452D01*
X8332452Y-12872976D01*
X8313405Y-12872976D01*
X8294357Y-12863452D01*
X8284833Y-12853928D01*
X8275309Y-12834881D01*
X8265786Y-12796786D01*
X8265786Y-12749167D01*
X8275309Y-12711071D01*
X8284833Y-12692024D01*
X8294357Y-12682500D01*
X8313405Y-12672976D01*
X8503881Y-12672976D02*
X8522929Y-12672976D01*
X8541976Y-12682500D01*
X8551500Y-12692024D01*
X8561024Y-12711071D01*
X8570548Y-12749167D01*
X8570548Y-12796786D01*
X8561024Y-12834881D01*
X8551500Y-12853928D01*
X8541976Y-12863452D01*
X8522929Y-12872976D01*
X8503881Y-12872976D01*
X8484833Y-12863452D01*
X8475310Y-12853928D01*
X8465786Y-12834881D01*
X8456262Y-12796786D01*
X8456262Y-12749167D01*
X8465786Y-12711071D01*
X8475310Y-12692024D01*
X8484833Y-12682500D01*
X8503881Y-12672976D01*
X8656262Y-12872976D02*
X8656262Y-12739643D01*
X8656262Y-12758690D02*
X8665786Y-12749167D01*
X8684833Y-12739643D01*
X8713405Y-12739643D01*
X8732452Y-12749167D01*
X8741976Y-12768214D01*
X8741976Y-12872976D01*
X8741976Y-12768214D02*
X8751500Y-12749167D01*
X8770548Y-12739643D01*
X8799119Y-12739643D01*
X8818167Y-12749167D01*
X8827690Y-12768214D01*
X8827690Y-12872976D01*
X8922929Y-12872976D02*
X8922929Y-12739643D01*
X8922929Y-12758690D02*
X8932452Y-12749167D01*
X8951500Y-12739643D01*
X8980071Y-12739643D01*
X8999119Y-12749167D01*
X9008643Y-12768214D01*
X9008643Y-12872976D01*
X9008643Y-12768214D02*
X9018167Y-12749167D01*
X9037214Y-12739643D01*
X9065786Y-12739643D01*
X9084833Y-12749167D01*
X9094357Y-12768214D01*
X9094357Y-12872976D01*
X9484833Y-12663452D02*
X9313405Y-12920595D01*
X9741976Y-12672976D02*
X9761024Y-12672976D01*
X9780071Y-12682500D01*
X9789595Y-12692024D01*
X9799119Y-12711071D01*
X9808643Y-12749167D01*
X9808643Y-12796786D01*
X9799119Y-12834881D01*
X9789595Y-12853928D01*
X9780071Y-12863452D01*
X9761024Y-12872976D01*
X9741976Y-12872976D01*
X9722929Y-12863452D01*
X9713405Y-12853928D01*
X9703881Y-12834881D01*
X9694357Y-12796786D01*
X9694357Y-12749167D01*
X9703881Y-12711071D01*
X9713405Y-12692024D01*
X9722929Y-12682500D01*
X9741976Y-12672976D01*
X9894357Y-12853928D02*
X9903881Y-12863452D01*
X9894357Y-12872976D01*
X9884833Y-12863452D01*
X9894357Y-12853928D01*
X9894357Y-12872976D01*
X10027690Y-12672976D02*
X10046738Y-12672976D01*
X10065786Y-12682500D01*
X10075310Y-12692024D01*
X10084833Y-12711071D01*
X10094357Y-12749167D01*
X10094357Y-12796786D01*
X10084833Y-12834881D01*
X10075310Y-12853928D01*
X10065786Y-12863452D01*
X10046738Y-12872976D01*
X10027690Y-12872976D01*
X10008643Y-12863452D01*
X9999119Y-12853928D01*
X9989595Y-12834881D01*
X9980071Y-12796786D01*
X9980071Y-12749167D01*
X9989595Y-12711071D01*
X9999119Y-12692024D01*
X10008643Y-12682500D01*
X10027690Y-12672976D01*
X10218167Y-12672976D02*
X10237214Y-12672976D01*
X10256262Y-12682500D01*
X10265786Y-12692024D01*
X10275310Y-12711071D01*
X10284833Y-12749167D01*
X10284833Y-12796786D01*
X10275310Y-12834881D01*
X10265786Y-12853928D01*
X10256262Y-12863452D01*
X10237214Y-12872976D01*
X10218167Y-12872976D01*
X10199119Y-12863452D01*
X10189595Y-12853928D01*
X10180071Y-12834881D01*
X10170548Y-12796786D01*
X10170548Y-12749167D01*
X10180071Y-12711071D01*
X10189595Y-12692024D01*
X10199119Y-12682500D01*
X10218167Y-12672976D01*
X10351500Y-12672976D02*
X10484833Y-12672976D01*
X10399119Y-12872976D01*
X10570548Y-12872976D02*
X10608643Y-12872976D01*
X10627690Y-12863452D01*
X10637214Y-12853928D01*
X10656262Y-12825357D01*
X10665786Y-12787262D01*
X10665786Y-12711071D01*
X10656262Y-12692024D01*
X10646738Y-12682500D01*
X10627690Y-12672976D01*
X10589595Y-12672976D01*
X10570548Y-12682500D01*
X10561024Y-12692024D01*
X10551500Y-12711071D01*
X10551500Y-12758690D01*
X10561024Y-12777738D01*
X10570548Y-12787262D01*
X10589595Y-12796786D01*
X10627690Y-12796786D01*
X10646738Y-12787262D01*
X10656262Y-12777738D01*
X10665786Y-12758690D01*
X10741976Y-12672976D02*
X10741976Y-12711071D01*
X10818167Y-12672976D02*
X10818167Y-12711071D01*
X11113405Y-12949167D02*
X11103881Y-12939643D01*
X11084833Y-12911071D01*
X11075310Y-12892024D01*
X11065786Y-12863452D01*
X11056262Y-12815833D01*
X11056262Y-12777738D01*
X11065786Y-12730119D01*
X11075310Y-12701548D01*
X11084833Y-12682500D01*
X11103881Y-12653928D01*
X11113405Y-12644405D01*
X11275309Y-12739643D02*
X11275309Y-12872976D01*
X11227690Y-12663452D02*
X11180071Y-12806309D01*
X11303881Y-12806309D01*
X11484833Y-12872976D02*
X11370548Y-12872976D01*
X11427690Y-12872976D02*
X11427690Y-12672976D01*
X11408643Y-12701548D01*
X11389595Y-12720595D01*
X11370548Y-12730119D01*
X11599119Y-12758690D02*
X11580071Y-12749167D01*
X11570548Y-12739643D01*
X11561024Y-12720595D01*
X11561024Y-12711071D01*
X11570548Y-12692024D01*
X11580071Y-12682500D01*
X11599119Y-12672976D01*
X11637214Y-12672976D01*
X11656262Y-12682500D01*
X11665786Y-12692024D01*
X11675309Y-12711071D01*
X11675309Y-12720595D01*
X11665786Y-12739643D01*
X11656262Y-12749167D01*
X11637214Y-12758690D01*
X11599119Y-12758690D01*
X11580071Y-12768214D01*
X11570548Y-12777738D01*
X11561024Y-12796786D01*
X11561024Y-12834881D01*
X11570548Y-12853928D01*
X11580071Y-12863452D01*
X11599119Y-12872976D01*
X11637214Y-12872976D01*
X11656262Y-12863452D01*
X11665786Y-12853928D01*
X11675309Y-12834881D01*
X11675309Y-12796786D01*
X11665786Y-12777738D01*
X11656262Y-12768214D01*
X11637214Y-12758690D01*
X11913405Y-12872976D02*
X11913405Y-12672976D01*
X11999119Y-12872976D02*
X11999119Y-12768214D01*
X11989595Y-12749167D01*
X11970548Y-12739643D01*
X11941976Y-12739643D01*
X11922928Y-12749167D01*
X11913405Y-12758690D01*
X12122928Y-12872976D02*
X12103881Y-12863452D01*
X12094357Y-12853928D01*
X12084833Y-12834881D01*
X12084833Y-12777738D01*
X12094357Y-12758690D01*
X12103881Y-12749167D01*
X12122928Y-12739643D01*
X12151500Y-12739643D01*
X12170548Y-12749167D01*
X12180071Y-12758690D01*
X12189595Y-12777738D01*
X12189595Y-12834881D01*
X12180071Y-12853928D01*
X12170548Y-12863452D01*
X12151500Y-12872976D01*
X12122928Y-12872976D01*
X12303881Y-12872976D02*
X12284833Y-12863452D01*
X12275309Y-12844405D01*
X12275309Y-12672976D01*
X12456262Y-12863452D02*
X12437214Y-12872976D01*
X12399119Y-12872976D01*
X12380071Y-12863452D01*
X12370548Y-12844405D01*
X12370548Y-12768214D01*
X12380071Y-12749167D01*
X12399119Y-12739643D01*
X12437214Y-12739643D01*
X12456262Y-12749167D01*
X12465786Y-12768214D01*
X12465786Y-12787262D01*
X12370548Y-12806309D01*
X12541976Y-12863452D02*
X12561024Y-12872976D01*
X12599119Y-12872976D01*
X12618167Y-12863452D01*
X12627690Y-12844405D01*
X12627690Y-12834881D01*
X12618167Y-12815833D01*
X12599119Y-12806309D01*
X12570548Y-12806309D01*
X12551500Y-12796786D01*
X12541976Y-12777738D01*
X12541976Y-12768214D01*
X12551500Y-12749167D01*
X12570548Y-12739643D01*
X12599119Y-12739643D01*
X12618167Y-12749167D01*
X12694357Y-12949167D02*
X12703881Y-12939643D01*
X12722928Y-12911071D01*
X12732452Y-12892024D01*
X12741976Y-12863452D01*
X12751500Y-12815833D01*
X12751500Y-12777738D01*
X12741976Y-12730119D01*
X12732452Y-12701548D01*
X12722928Y-12682500D01*
X12703881Y-12653928D01*
X12694357Y-12644405D01*
D12*
X7541500Y-13046500D02*
G75*
G03*
X7541500Y-13046500I-10000J0D01*
G01*
D11*
X7837214Y-12936976D02*
X7856262Y-12936976D01*
X7875309Y-12946500D01*
X7884833Y-12956024D01*
X7894357Y-12975071D01*
X7903881Y-13013167D01*
X7903881Y-13060786D01*
X7894357Y-13098881D01*
X7884833Y-13117928D01*
X7875309Y-13127452D01*
X7856262Y-13136976D01*
X7837214Y-13136976D01*
X7818167Y-13127452D01*
X7808643Y-13117928D01*
X7799119Y-13098881D01*
X7789595Y-13060786D01*
X7789595Y-13013167D01*
X7799119Y-12975071D01*
X7808643Y-12956024D01*
X7818167Y-12946500D01*
X7837214Y-12936976D01*
X7989595Y-13117928D02*
X7999119Y-13127452D01*
X7989595Y-13136976D01*
X7980071Y-13127452D01*
X7989595Y-13117928D01*
X7989595Y-13136976D01*
X8075309Y-12956024D02*
X8084833Y-12946500D01*
X8103881Y-12936976D01*
X8151500Y-12936976D01*
X8170548Y-12946500D01*
X8180071Y-12956024D01*
X8189595Y-12975071D01*
X8189595Y-12994119D01*
X8180071Y-13022690D01*
X8065786Y-13136976D01*
X8189595Y-13136976D01*
X8313405Y-12936976D02*
X8332452Y-12936976D01*
X8351500Y-12946500D01*
X8361024Y-12956024D01*
X8370548Y-12975071D01*
X8380071Y-13013167D01*
X8380071Y-13060786D01*
X8370548Y-13098881D01*
X8361024Y-13117928D01*
X8351500Y-13127452D01*
X8332452Y-13136976D01*
X8313405Y-13136976D01*
X8294357Y-13127452D01*
X8284833Y-13117928D01*
X8275309Y-13098881D01*
X8265786Y-13060786D01*
X8265786Y-13013167D01*
X8275309Y-12975071D01*
X8284833Y-12956024D01*
X8294357Y-12946500D01*
X8313405Y-12936976D01*
X8503881Y-12936976D02*
X8522929Y-12936976D01*
X8541976Y-12946500D01*
X8551500Y-12956024D01*
X8561024Y-12975071D01*
X8570548Y-13013167D01*
X8570548Y-13060786D01*
X8561024Y-13098881D01*
X8551500Y-13117928D01*
X8541976Y-13127452D01*
X8522929Y-13136976D01*
X8503881Y-13136976D01*
X8484833Y-13127452D01*
X8475310Y-13117928D01*
X8465786Y-13098881D01*
X8456262Y-13060786D01*
X8456262Y-13013167D01*
X8465786Y-12975071D01*
X8475310Y-12956024D01*
X8484833Y-12946500D01*
X8503881Y-12936976D01*
X8656262Y-13136976D02*
X8656262Y-13003643D01*
X8656262Y-13022690D02*
X8665786Y-13013167D01*
X8684833Y-13003643D01*
X8713405Y-13003643D01*
X8732452Y-13013167D01*
X8741976Y-13032214D01*
X8741976Y-13136976D01*
X8741976Y-13032214D02*
X8751500Y-13013167D01*
X8770548Y-13003643D01*
X8799119Y-13003643D01*
X8818167Y-13013167D01*
X8827690Y-13032214D01*
X8827690Y-13136976D01*
X8922929Y-13136976D02*
X8922929Y-13003643D01*
X8922929Y-13022690D02*
X8932452Y-13013167D01*
X8951500Y-13003643D01*
X8980071Y-13003643D01*
X8999119Y-13013167D01*
X9008643Y-13032214D01*
X9008643Y-13136976D01*
X9008643Y-13032214D02*
X9018167Y-13013167D01*
X9037214Y-13003643D01*
X9065786Y-13003643D01*
X9084833Y-13013167D01*
X9094357Y-13032214D01*
X9094357Y-13136976D01*
X9484833Y-12927452D02*
X9313405Y-13184595D01*
X9741976Y-12936976D02*
X9761024Y-12936976D01*
X9780071Y-12946500D01*
X9789595Y-12956024D01*
X9799119Y-12975071D01*
X9808643Y-13013167D01*
X9808643Y-13060786D01*
X9799119Y-13098881D01*
X9789595Y-13117928D01*
X9780071Y-13127452D01*
X9761024Y-13136976D01*
X9741976Y-13136976D01*
X9722929Y-13127452D01*
X9713405Y-13117928D01*
X9703881Y-13098881D01*
X9694357Y-13060786D01*
X9694357Y-13013167D01*
X9703881Y-12975071D01*
X9713405Y-12956024D01*
X9722929Y-12946500D01*
X9741976Y-12936976D01*
X9894357Y-13117928D02*
X9903881Y-13127452D01*
X9894357Y-13136976D01*
X9884833Y-13127452D01*
X9894357Y-13117928D01*
X9894357Y-13136976D01*
X10027690Y-12936976D02*
X10046738Y-12936976D01*
X10065786Y-12946500D01*
X10075310Y-12956024D01*
X10084833Y-12975071D01*
X10094357Y-13013167D01*
X10094357Y-13060786D01*
X10084833Y-13098881D01*
X10075310Y-13117928D01*
X10065786Y-13127452D01*
X10046738Y-13136976D01*
X10027690Y-13136976D01*
X10008643Y-13127452D01*
X9999119Y-13117928D01*
X9989595Y-13098881D01*
X9980071Y-13060786D01*
X9980071Y-13013167D01*
X9989595Y-12975071D01*
X9999119Y-12956024D01*
X10008643Y-12946500D01*
X10027690Y-12936976D01*
X10218167Y-12936976D02*
X10237214Y-12936976D01*
X10256262Y-12946500D01*
X10265786Y-12956024D01*
X10275310Y-12975071D01*
X10284833Y-13013167D01*
X10284833Y-13060786D01*
X10275310Y-13098881D01*
X10265786Y-13117928D01*
X10256262Y-13127452D01*
X10237214Y-13136976D01*
X10218167Y-13136976D01*
X10199119Y-13127452D01*
X10189595Y-13117928D01*
X10180071Y-13098881D01*
X10170548Y-13060786D01*
X10170548Y-13013167D01*
X10180071Y-12975071D01*
X10189595Y-12956024D01*
X10199119Y-12946500D01*
X10218167Y-12936976D01*
X10351500Y-12936976D02*
X10484833Y-12936976D01*
X10399119Y-13136976D01*
X10570548Y-13136976D02*
X10608643Y-13136976D01*
X10627690Y-13127452D01*
X10637214Y-13117928D01*
X10656262Y-13089357D01*
X10665786Y-13051262D01*
X10665786Y-12975071D01*
X10656262Y-12956024D01*
X10646738Y-12946500D01*
X10627690Y-12936976D01*
X10589595Y-12936976D01*
X10570548Y-12946500D01*
X10561024Y-12956024D01*
X10551500Y-12975071D01*
X10551500Y-13022690D01*
X10561024Y-13041738D01*
X10570548Y-13051262D01*
X10589595Y-13060786D01*
X10627690Y-13060786D01*
X10646738Y-13051262D01*
X10656262Y-13041738D01*
X10665786Y-13022690D01*
X10741976Y-12936976D02*
X10741976Y-12975071D01*
X10818167Y-12936976D02*
X10818167Y-12975071D01*
X11113405Y-13213167D02*
X11103881Y-13203643D01*
X11084833Y-13175071D01*
X11075310Y-13156024D01*
X11065786Y-13127452D01*
X11056262Y-13079833D01*
X11056262Y-13041738D01*
X11065786Y-12994119D01*
X11075310Y-12965548D01*
X11084833Y-12946500D01*
X11103881Y-12917928D01*
X11113405Y-12908405D01*
X11199119Y-13136976D02*
X11237214Y-13136976D01*
X11256262Y-13127452D01*
X11265786Y-13117928D01*
X11284833Y-13089357D01*
X11294357Y-13051262D01*
X11294357Y-12975071D01*
X11284833Y-12956024D01*
X11275309Y-12946500D01*
X11256262Y-12936976D01*
X11218167Y-12936976D01*
X11199119Y-12946500D01*
X11189595Y-12956024D01*
X11180071Y-12975071D01*
X11180071Y-13022690D01*
X11189595Y-13041738D01*
X11199119Y-13051262D01*
X11218167Y-13060786D01*
X11256262Y-13060786D01*
X11275309Y-13051262D01*
X11284833Y-13041738D01*
X11294357Y-13022690D01*
X11532452Y-13136976D02*
X11532452Y-12936976D01*
X11618167Y-13136976D02*
X11618167Y-13032214D01*
X11608643Y-13013167D01*
X11589595Y-13003643D01*
X11561024Y-13003643D01*
X11541976Y-13013167D01*
X11532452Y-13022690D01*
X11741976Y-13136976D02*
X11722928Y-13127452D01*
X11713405Y-13117928D01*
X11703881Y-13098881D01*
X11703881Y-13041738D01*
X11713405Y-13022690D01*
X11722928Y-13013167D01*
X11741976Y-13003643D01*
X11770548Y-13003643D01*
X11789595Y-13013167D01*
X11799119Y-13022690D01*
X11808643Y-13041738D01*
X11808643Y-13098881D01*
X11799119Y-13117928D01*
X11789595Y-13127452D01*
X11770548Y-13136976D01*
X11741976Y-13136976D01*
X11922928Y-13136976D02*
X11903881Y-13127452D01*
X11894357Y-13108405D01*
X11894357Y-12936976D01*
X12075309Y-13127452D02*
X12056262Y-13136976D01*
X12018167Y-13136976D01*
X11999119Y-13127452D01*
X11989595Y-13108405D01*
X11989595Y-13032214D01*
X11999119Y-13013167D01*
X12018167Y-13003643D01*
X12056262Y-13003643D01*
X12075309Y-13013167D01*
X12084833Y-13032214D01*
X12084833Y-13051262D01*
X11989595Y-13070309D01*
X12161024Y-13127452D02*
X12180071Y-13136976D01*
X12218167Y-13136976D01*
X12237214Y-13127452D01*
X12246738Y-13108405D01*
X12246738Y-13098881D01*
X12237214Y-13079833D01*
X12218167Y-13070309D01*
X12189595Y-13070309D01*
X12170548Y-13060786D01*
X12161024Y-13041738D01*
X12161024Y-13032214D01*
X12170548Y-13013167D01*
X12189595Y-13003643D01*
X12218167Y-13003643D01*
X12237214Y-13013167D01*
X12313405Y-13213167D02*
X12322928Y-13203643D01*
X12341976Y-13175071D01*
X12351500Y-13156024D01*
X12361024Y-13127452D01*
X12370548Y-13079833D01*
X12370548Y-13041738D01*
X12361024Y-12994119D01*
X12351500Y-12965548D01*
X12341976Y-12946500D01*
X12322928Y-12917928D01*
X12313405Y-12908405D01*
D13*
X7521500Y-13290500D02*
X7521500Y-13330500D01*
X7501500Y-13310500D02*
X7541500Y-13310500D01*
D11*
X7837214Y-13200976D02*
X7856262Y-13200976D01*
X7875309Y-13210500D01*
X7884833Y-13220024D01*
X7894357Y-13239071D01*
X7903881Y-13277167D01*
X7903881Y-13324786D01*
X7894357Y-13362881D01*
X7884833Y-13381928D01*
X7875309Y-13391452D01*
X7856262Y-13400976D01*
X7837214Y-13400976D01*
X7818167Y-13391452D01*
X7808643Y-13381928D01*
X7799119Y-13362881D01*
X7789595Y-13324786D01*
X7789595Y-13277167D01*
X7799119Y-13239071D01*
X7808643Y-13220024D01*
X7818167Y-13210500D01*
X7837214Y-13200976D01*
X7989595Y-13381928D02*
X7999119Y-13391452D01*
X7989595Y-13400976D01*
X7980071Y-13391452D01*
X7989595Y-13381928D01*
X7989595Y-13400976D01*
X8170548Y-13267643D02*
X8170548Y-13400976D01*
X8122928Y-13191452D02*
X8075309Y-13334309D01*
X8199119Y-13334309D01*
X8313405Y-13200976D02*
X8332452Y-13200976D01*
X8351500Y-13210500D01*
X8361024Y-13220024D01*
X8370548Y-13239071D01*
X8380071Y-13277167D01*
X8380071Y-13324786D01*
X8370548Y-13362881D01*
X8361024Y-13381928D01*
X8351500Y-13391452D01*
X8332452Y-13400976D01*
X8313405Y-13400976D01*
X8294357Y-13391452D01*
X8284833Y-13381928D01*
X8275309Y-13362881D01*
X8265786Y-13324786D01*
X8265786Y-13277167D01*
X8275309Y-13239071D01*
X8284833Y-13220024D01*
X8294357Y-13210500D01*
X8313405Y-13200976D01*
X8503881Y-13200976D02*
X8522929Y-13200976D01*
X8541976Y-13210500D01*
X8551500Y-13220024D01*
X8561024Y-13239071D01*
X8570548Y-13277167D01*
X8570548Y-13324786D01*
X8561024Y-13362881D01*
X8551500Y-13381928D01*
X8541976Y-13391452D01*
X8522929Y-13400976D01*
X8503881Y-13400976D01*
X8484833Y-13391452D01*
X8475310Y-13381928D01*
X8465786Y-13362881D01*
X8456262Y-13324786D01*
X8456262Y-13277167D01*
X8465786Y-13239071D01*
X8475310Y-13220024D01*
X8484833Y-13210500D01*
X8503881Y-13200976D01*
X8656262Y-13400976D02*
X8656262Y-13267643D01*
X8656262Y-13286690D02*
X8665786Y-13277167D01*
X8684833Y-13267643D01*
X8713405Y-13267643D01*
X8732452Y-13277167D01*
X8741976Y-13296214D01*
X8741976Y-13400976D01*
X8741976Y-13296214D02*
X8751500Y-13277167D01*
X8770548Y-13267643D01*
X8799119Y-13267643D01*
X8818167Y-13277167D01*
X8827690Y-13296214D01*
X8827690Y-13400976D01*
X8922929Y-13400976D02*
X8922929Y-13267643D01*
X8922929Y-13286690D02*
X8932452Y-13277167D01*
X8951500Y-13267643D01*
X8980071Y-13267643D01*
X8999119Y-13277167D01*
X9008643Y-13296214D01*
X9008643Y-13400976D01*
X9008643Y-13296214D02*
X9018167Y-13277167D01*
X9037214Y-13267643D01*
X9065786Y-13267643D01*
X9084833Y-13277167D01*
X9094357Y-13296214D01*
X9094357Y-13400976D01*
X9484833Y-13191452D02*
X9313405Y-13448595D01*
X9741976Y-13200976D02*
X9761024Y-13200976D01*
X9780071Y-13210500D01*
X9789595Y-13220024D01*
X9799119Y-13239071D01*
X9808643Y-13277167D01*
X9808643Y-13324786D01*
X9799119Y-13362881D01*
X9789595Y-13381928D01*
X9780071Y-13391452D01*
X9761024Y-13400976D01*
X9741976Y-13400976D01*
X9722929Y-13391452D01*
X9713405Y-13381928D01*
X9703881Y-13362881D01*
X9694357Y-13324786D01*
X9694357Y-13277167D01*
X9703881Y-13239071D01*
X9713405Y-13220024D01*
X9722929Y-13210500D01*
X9741976Y-13200976D01*
X9894357Y-13381928D02*
X9903881Y-13391452D01*
X9894357Y-13400976D01*
X9884833Y-13391452D01*
X9894357Y-13381928D01*
X9894357Y-13400976D01*
X10027690Y-13200976D02*
X10046738Y-13200976D01*
X10065786Y-13210500D01*
X10075310Y-13220024D01*
X10084833Y-13239071D01*
X10094357Y-13277167D01*
X10094357Y-13324786D01*
X10084833Y-13362881D01*
X10075310Y-13381928D01*
X10065786Y-13391452D01*
X10046738Y-13400976D01*
X10027690Y-13400976D01*
X10008643Y-13391452D01*
X9999119Y-13381928D01*
X9989595Y-13362881D01*
X9980071Y-13324786D01*
X9980071Y-13277167D01*
X9989595Y-13239071D01*
X9999119Y-13220024D01*
X10008643Y-13210500D01*
X10027690Y-13200976D01*
X10284833Y-13400976D02*
X10170548Y-13400976D01*
X10227690Y-13400976D02*
X10227690Y-13200976D01*
X10208643Y-13229548D01*
X10189595Y-13248595D01*
X10170548Y-13258119D01*
X10465786Y-13200976D02*
X10370548Y-13200976D01*
X10361024Y-13296214D01*
X10370548Y-13286690D01*
X10389595Y-13277167D01*
X10437214Y-13277167D01*
X10456262Y-13286690D01*
X10465786Y-13296214D01*
X10475310Y-13315262D01*
X10475310Y-13362881D01*
X10465786Y-13381928D01*
X10456262Y-13391452D01*
X10437214Y-13400976D01*
X10389595Y-13400976D01*
X10370548Y-13391452D01*
X10361024Y-13381928D01*
X10541976Y-13200976D02*
X10675310Y-13200976D01*
X10589595Y-13400976D01*
X10741976Y-13200976D02*
X10741976Y-13239071D01*
X10818167Y-13200976D02*
X10818167Y-13239071D01*
X11113405Y-13477167D02*
X11103881Y-13467643D01*
X11084833Y-13439071D01*
X11075310Y-13420024D01*
X11065786Y-13391452D01*
X11056262Y-13343833D01*
X11056262Y-13305738D01*
X11065786Y-13258119D01*
X11075310Y-13229548D01*
X11084833Y-13210500D01*
X11103881Y-13181928D01*
X11113405Y-13172405D01*
X11180071Y-13220024D02*
X11189595Y-13210500D01*
X11208643Y-13200976D01*
X11256262Y-13200976D01*
X11275309Y-13210500D01*
X11284833Y-13220024D01*
X11294357Y-13239071D01*
X11294357Y-13258119D01*
X11284833Y-13286690D01*
X11170548Y-13400976D01*
X11294357Y-13400976D01*
X11475309Y-13200976D02*
X11380071Y-13200976D01*
X11370548Y-13296214D01*
X11380071Y-13286690D01*
X11399119Y-13277167D01*
X11446738Y-13277167D01*
X11465786Y-13286690D01*
X11475309Y-13296214D01*
X11484833Y-13315262D01*
X11484833Y-13362881D01*
X11475309Y-13381928D01*
X11465786Y-13391452D01*
X11446738Y-13400976D01*
X11399119Y-13400976D01*
X11380071Y-13391452D01*
X11370548Y-13381928D01*
X11608643Y-13200976D02*
X11627690Y-13200976D01*
X11646738Y-13210500D01*
X11656262Y-13220024D01*
X11665786Y-13239071D01*
X11675309Y-13277167D01*
X11675309Y-13324786D01*
X11665786Y-13362881D01*
X11656262Y-13381928D01*
X11646738Y-13391452D01*
X11627690Y-13400976D01*
X11608643Y-13400976D01*
X11589595Y-13391452D01*
X11580071Y-13381928D01*
X11570548Y-13362881D01*
X11561024Y-13324786D01*
X11561024Y-13277167D01*
X11570548Y-13239071D01*
X11580071Y-13220024D01*
X11589595Y-13210500D01*
X11608643Y-13200976D01*
X11913405Y-13400976D02*
X11913405Y-13200976D01*
X11999119Y-13400976D02*
X11999119Y-13296214D01*
X11989595Y-13277167D01*
X11970548Y-13267643D01*
X11941976Y-13267643D01*
X11922928Y-13277167D01*
X11913405Y-13286690D01*
X12122928Y-13400976D02*
X12103881Y-13391452D01*
X12094357Y-13381928D01*
X12084833Y-13362881D01*
X12084833Y-13305738D01*
X12094357Y-13286690D01*
X12103881Y-13277167D01*
X12122928Y-13267643D01*
X12151500Y-13267643D01*
X12170548Y-13277167D01*
X12180071Y-13286690D01*
X12189595Y-13305738D01*
X12189595Y-13362881D01*
X12180071Y-13381928D01*
X12170548Y-13391452D01*
X12151500Y-13400976D01*
X12122928Y-13400976D01*
X12303881Y-13400976D02*
X12284833Y-13391452D01*
X12275309Y-13372405D01*
X12275309Y-13200976D01*
X12456262Y-13391452D02*
X12437214Y-13400976D01*
X12399119Y-13400976D01*
X12380071Y-13391452D01*
X12370548Y-13372405D01*
X12370548Y-13296214D01*
X12380071Y-13277167D01*
X12399119Y-13267643D01*
X12437214Y-13267643D01*
X12456262Y-13277167D01*
X12465786Y-13296214D01*
X12465786Y-13315262D01*
X12370548Y-13334309D01*
X12541976Y-13391452D02*
X12561024Y-13400976D01*
X12599119Y-13400976D01*
X12618167Y-13391452D01*
X12627690Y-13372405D01*
X12627690Y-13362881D01*
X12618167Y-13343833D01*
X12599119Y-13334309D01*
X12570548Y-13334309D01*
X12551500Y-13324786D01*
X12541976Y-13305738D01*
X12541976Y-13296214D01*
X12551500Y-13277167D01*
X12570548Y-13267643D01*
X12599119Y-13267643D01*
X12618167Y-13277167D01*
X12694357Y-13477167D02*
X12703881Y-13467643D01*
X12722928Y-13439071D01*
X12732452Y-13420024D01*
X12741976Y-13391452D01*
X12751500Y-13343833D01*
X12751500Y-13305738D01*
X12741976Y-13258119D01*
X12732452Y-13229548D01*
X12722928Y-13210500D01*
X12703881Y-13181928D01*
X12694357Y-13172405D01*
D14*
X7532713Y-13595713D02*
X7532713Y-13553287D01*
X7490287Y-13553287D01*
X7490287Y-13595713D01*
X7532713Y-13595713D01*
D11*
X7837214Y-13464976D02*
X7856262Y-13464976D01*
X7875309Y-13474500D01*
X7884833Y-13484024D01*
X7894357Y-13503071D01*
X7903881Y-13541167D01*
X7903881Y-13588786D01*
X7894357Y-13626881D01*
X7884833Y-13645928D01*
X7875309Y-13655452D01*
X7856262Y-13664976D01*
X7837214Y-13664976D01*
X7818167Y-13655452D01*
X7808643Y-13645928D01*
X7799119Y-13626881D01*
X7789595Y-13588786D01*
X7789595Y-13541167D01*
X7799119Y-13503071D01*
X7808643Y-13484024D01*
X7818167Y-13474500D01*
X7837214Y-13464976D01*
X7989595Y-13645928D02*
X7999119Y-13655452D01*
X7989595Y-13664976D01*
X7980071Y-13655452D01*
X7989595Y-13645928D01*
X7989595Y-13664976D01*
X8170548Y-13464976D02*
X8132452Y-13464976D01*
X8113405Y-13474500D01*
X8103881Y-13484024D01*
X8084833Y-13512595D01*
X8075309Y-13550690D01*
X8075309Y-13626881D01*
X8084833Y-13645928D01*
X8094357Y-13655452D01*
X8113405Y-13664976D01*
X8151500Y-13664976D01*
X8170548Y-13655452D01*
X8180071Y-13645928D01*
X8189595Y-13626881D01*
X8189595Y-13579262D01*
X8180071Y-13560214D01*
X8170548Y-13550690D01*
X8151500Y-13541167D01*
X8113405Y-13541167D01*
X8094357Y-13550690D01*
X8084833Y-13560214D01*
X8075309Y-13579262D01*
X8313405Y-13464976D02*
X8332452Y-13464976D01*
X8351500Y-13474500D01*
X8361024Y-13484024D01*
X8370548Y-13503071D01*
X8380071Y-13541167D01*
X8380071Y-13588786D01*
X8370548Y-13626881D01*
X8361024Y-13645928D01*
X8351500Y-13655452D01*
X8332452Y-13664976D01*
X8313405Y-13664976D01*
X8294357Y-13655452D01*
X8284833Y-13645928D01*
X8275309Y-13626881D01*
X8265786Y-13588786D01*
X8265786Y-13541167D01*
X8275309Y-13503071D01*
X8284833Y-13484024D01*
X8294357Y-13474500D01*
X8313405Y-13464976D01*
X8503881Y-13464976D02*
X8522929Y-13464976D01*
X8541976Y-13474500D01*
X8551500Y-13484024D01*
X8561024Y-13503071D01*
X8570548Y-13541167D01*
X8570548Y-13588786D01*
X8561024Y-13626881D01*
X8551500Y-13645928D01*
X8541976Y-13655452D01*
X8522929Y-13664976D01*
X8503881Y-13664976D01*
X8484833Y-13655452D01*
X8475310Y-13645928D01*
X8465786Y-13626881D01*
X8456262Y-13588786D01*
X8456262Y-13541167D01*
X8465786Y-13503071D01*
X8475310Y-13484024D01*
X8484833Y-13474500D01*
X8503881Y-13464976D01*
X8656262Y-13664976D02*
X8656262Y-13531643D01*
X8656262Y-13550690D02*
X8665786Y-13541167D01*
X8684833Y-13531643D01*
X8713405Y-13531643D01*
X8732452Y-13541167D01*
X8741976Y-13560214D01*
X8741976Y-13664976D01*
X8741976Y-13560214D02*
X8751500Y-13541167D01*
X8770548Y-13531643D01*
X8799119Y-13531643D01*
X8818167Y-13541167D01*
X8827690Y-13560214D01*
X8827690Y-13664976D01*
X8922929Y-13664976D02*
X8922929Y-13531643D01*
X8922929Y-13550690D02*
X8932452Y-13541167D01*
X8951500Y-13531643D01*
X8980071Y-13531643D01*
X8999119Y-13541167D01*
X9008643Y-13560214D01*
X9008643Y-13664976D01*
X9008643Y-13560214D02*
X9018167Y-13541167D01*
X9037214Y-13531643D01*
X9065786Y-13531643D01*
X9084833Y-13541167D01*
X9094357Y-13560214D01*
X9094357Y-13664976D01*
X9484833Y-13455452D02*
X9313405Y-13712595D01*
X9741976Y-13464976D02*
X9761024Y-13464976D01*
X9780071Y-13474500D01*
X9789595Y-13484024D01*
X9799119Y-13503071D01*
X9808643Y-13541167D01*
X9808643Y-13588786D01*
X9799119Y-13626881D01*
X9789595Y-13645928D01*
X9780071Y-13655452D01*
X9761024Y-13664976D01*
X9741976Y-13664976D01*
X9722929Y-13655452D01*
X9713405Y-13645928D01*
X9703881Y-13626881D01*
X9694357Y-13588786D01*
X9694357Y-13541167D01*
X9703881Y-13503071D01*
X9713405Y-13484024D01*
X9722929Y-13474500D01*
X9741976Y-13464976D01*
X9894357Y-13645928D02*
X9903881Y-13655452D01*
X9894357Y-13664976D01*
X9884833Y-13655452D01*
X9894357Y-13645928D01*
X9894357Y-13664976D01*
X10027690Y-13464976D02*
X10046738Y-13464976D01*
X10065786Y-13474500D01*
X10075310Y-13484024D01*
X10084833Y-13503071D01*
X10094357Y-13541167D01*
X10094357Y-13588786D01*
X10084833Y-13626881D01*
X10075310Y-13645928D01*
X10065786Y-13655452D01*
X10046738Y-13664976D01*
X10027690Y-13664976D01*
X10008643Y-13655452D01*
X9999119Y-13645928D01*
X9989595Y-13626881D01*
X9980071Y-13588786D01*
X9980071Y-13541167D01*
X9989595Y-13503071D01*
X9999119Y-13484024D01*
X10008643Y-13474500D01*
X10027690Y-13464976D01*
X10170548Y-13484024D02*
X10180071Y-13474500D01*
X10199119Y-13464976D01*
X10246738Y-13464976D01*
X10265786Y-13474500D01*
X10275310Y-13484024D01*
X10284833Y-13503071D01*
X10284833Y-13522119D01*
X10275310Y-13550690D01*
X10161024Y-13664976D01*
X10284833Y-13664976D01*
X10351500Y-13464976D02*
X10475310Y-13464976D01*
X10408643Y-13541167D01*
X10437214Y-13541167D01*
X10456262Y-13550690D01*
X10465786Y-13560214D01*
X10475310Y-13579262D01*
X10475310Y-13626881D01*
X10465786Y-13645928D01*
X10456262Y-13655452D01*
X10437214Y-13664976D01*
X10380071Y-13664976D01*
X10361024Y-13655452D01*
X10351500Y-13645928D01*
X10646738Y-13464976D02*
X10608643Y-13464976D01*
X10589595Y-13474500D01*
X10580071Y-13484024D01*
X10561024Y-13512595D01*
X10551500Y-13550690D01*
X10551500Y-13626881D01*
X10561024Y-13645928D01*
X10570548Y-13655452D01*
X10589595Y-13664976D01*
X10627690Y-13664976D01*
X10646738Y-13655452D01*
X10656262Y-13645928D01*
X10665786Y-13626881D01*
X10665786Y-13579262D01*
X10656262Y-13560214D01*
X10646738Y-13550690D01*
X10627690Y-13541167D01*
X10589595Y-13541167D01*
X10570548Y-13550690D01*
X10561024Y-13560214D01*
X10551500Y-13579262D01*
X10741976Y-13464976D02*
X10741976Y-13503071D01*
X10818167Y-13464976D02*
X10818167Y-13503071D01*
X11113405Y-13741167D02*
X11103881Y-13731643D01*
X11084833Y-13703071D01*
X11075310Y-13684024D01*
X11065786Y-13655452D01*
X11056262Y-13607833D01*
X11056262Y-13569738D01*
X11065786Y-13522119D01*
X11075310Y-13493548D01*
X11084833Y-13474500D01*
X11103881Y-13445928D01*
X11113405Y-13436405D01*
X11227690Y-13464976D02*
X11246738Y-13464976D01*
X11265786Y-13474500D01*
X11275309Y-13484024D01*
X11284833Y-13503071D01*
X11294357Y-13541167D01*
X11294357Y-13588786D01*
X11284833Y-13626881D01*
X11275309Y-13645928D01*
X11265786Y-13655452D01*
X11246738Y-13664976D01*
X11227690Y-13664976D01*
X11208643Y-13655452D01*
X11199119Y-13645928D01*
X11189595Y-13626881D01*
X11180071Y-13588786D01*
X11180071Y-13541167D01*
X11189595Y-13503071D01*
X11199119Y-13484024D01*
X11208643Y-13474500D01*
X11227690Y-13464976D01*
X11532452Y-13664976D02*
X11532452Y-13464976D01*
X11618167Y-13664976D02*
X11618167Y-13560214D01*
X11608643Y-13541167D01*
X11589595Y-13531643D01*
X11561024Y-13531643D01*
X11541976Y-13541167D01*
X11532452Y-13550690D01*
X11741976Y-13664976D02*
X11722928Y-13655452D01*
X11713405Y-13645928D01*
X11703881Y-13626881D01*
X11703881Y-13569738D01*
X11713405Y-13550690D01*
X11722928Y-13541167D01*
X11741976Y-13531643D01*
X11770548Y-13531643D01*
X11789595Y-13541167D01*
X11799119Y-13550690D01*
X11808643Y-13569738D01*
X11808643Y-13626881D01*
X11799119Y-13645928D01*
X11789595Y-13655452D01*
X11770548Y-13664976D01*
X11741976Y-13664976D01*
X11922928Y-13664976D02*
X11903881Y-13655452D01*
X11894357Y-13636405D01*
X11894357Y-13464976D01*
X12075309Y-13655452D02*
X12056262Y-13664976D01*
X12018167Y-13664976D01*
X11999119Y-13655452D01*
X11989595Y-13636405D01*
X11989595Y-13560214D01*
X11999119Y-13541167D01*
X12018167Y-13531643D01*
X12056262Y-13531643D01*
X12075309Y-13541167D01*
X12084833Y-13560214D01*
X12084833Y-13579262D01*
X11989595Y-13598309D01*
X12161024Y-13655452D02*
X12180071Y-13664976D01*
X12218167Y-13664976D01*
X12237214Y-13655452D01*
X12246738Y-13636405D01*
X12246738Y-13626881D01*
X12237214Y-13607833D01*
X12218167Y-13598309D01*
X12189595Y-13598309D01*
X12170548Y-13588786D01*
X12161024Y-13569738D01*
X12161024Y-13560214D01*
X12170548Y-13541167D01*
X12189595Y-13531643D01*
X12218167Y-13531643D01*
X12237214Y-13541167D01*
X12484833Y-13588786D02*
X12637214Y-13588786D01*
X12561024Y-13664976D02*
X12561024Y-13512595D01*
X12970548Y-13531643D02*
X12970548Y-13664976D01*
X12922928Y-13455452D02*
X12875309Y-13598309D01*
X12999119Y-13598309D01*
X13218167Y-13655452D02*
X13237214Y-13664976D01*
X13275309Y-13664976D01*
X13294357Y-13655452D01*
X13303881Y-13636405D01*
X13303881Y-13626881D01*
X13294357Y-13607833D01*
X13275309Y-13598309D01*
X13246738Y-13598309D01*
X13227690Y-13588786D01*
X13218167Y-13569738D01*
X13218167Y-13560214D01*
X13227690Y-13541167D01*
X13246738Y-13531643D01*
X13275309Y-13531643D01*
X13294357Y-13541167D01*
X13418167Y-13664976D02*
X13399119Y-13655452D01*
X13389595Y-13636405D01*
X13389595Y-13464976D01*
X13522928Y-13664976D02*
X13503881Y-13655452D01*
X13494357Y-13645928D01*
X13484833Y-13626881D01*
X13484833Y-13569738D01*
X13494357Y-13550690D01*
X13503881Y-13541167D01*
X13522928Y-13531643D01*
X13551500Y-13531643D01*
X13570548Y-13541167D01*
X13580071Y-13550690D01*
X13589595Y-13569738D01*
X13589595Y-13626881D01*
X13580071Y-13645928D01*
X13570548Y-13655452D01*
X13551500Y-13664976D01*
X13522928Y-13664976D01*
X13646738Y-13531643D02*
X13722928Y-13531643D01*
X13675309Y-13464976D02*
X13675309Y-13636405D01*
X13684833Y-13655452D01*
X13703881Y-13664976D01*
X13722928Y-13664976D01*
X13780071Y-13655452D02*
X13799119Y-13664976D01*
X13837214Y-13664976D01*
X13856262Y-13655452D01*
X13865786Y-13636405D01*
X13865786Y-13626881D01*
X13856262Y-13607833D01*
X13837214Y-13598309D01*
X13808643Y-13598309D01*
X13789595Y-13588786D01*
X13780071Y-13569738D01*
X13780071Y-13560214D01*
X13789595Y-13541167D01*
X13808643Y-13531643D01*
X13837214Y-13531643D01*
X13856262Y-13541167D01*
X13932452Y-13741167D02*
X13941976Y-13731643D01*
X13961024Y-13703071D01*
X13970548Y-13684024D01*
X13980071Y-13655452D01*
X13989595Y-13607833D01*
X13989595Y-13569738D01*
X13980071Y-13522119D01*
X13970548Y-13493548D01*
X13961024Y-13474500D01*
X13941976Y-13445928D01*
X13932452Y-13436405D01*
D15*
X7486500Y-13893500D02*
X7541500Y-13838500D01*
X7486500Y-13783500D01*
X7431500Y-13838500D01*
X7486500Y-13893500D01*
D11*
X7903881Y-13928976D02*
X7789595Y-13928976D01*
X7846738Y-13928976D02*
X7846738Y-13728976D01*
X7827690Y-13757548D01*
X7808643Y-13776595D01*
X7789595Y-13786119D01*
X7989595Y-13909928D02*
X7999119Y-13919452D01*
X7989595Y-13928976D01*
X7980071Y-13919452D01*
X7989595Y-13909928D01*
X7989595Y-13928976D01*
X8189595Y-13928976D02*
X8075309Y-13928976D01*
X8132452Y-13928976D02*
X8132452Y-13728976D01*
X8113405Y-13757548D01*
X8094357Y-13776595D01*
X8075309Y-13786119D01*
X8313405Y-13728976D02*
X8332452Y-13728976D01*
X8351500Y-13738500D01*
X8361024Y-13748024D01*
X8370548Y-13767071D01*
X8380071Y-13805167D01*
X8380071Y-13852786D01*
X8370548Y-13890881D01*
X8361024Y-13909928D01*
X8351500Y-13919452D01*
X8332452Y-13928976D01*
X8313405Y-13928976D01*
X8294357Y-13919452D01*
X8284833Y-13909928D01*
X8275309Y-13890881D01*
X8265786Y-13852786D01*
X8265786Y-13805167D01*
X8275309Y-13767071D01*
X8284833Y-13748024D01*
X8294357Y-13738500D01*
X8313405Y-13728976D01*
X8503881Y-13728976D02*
X8522929Y-13728976D01*
X8541976Y-13738500D01*
X8551500Y-13748024D01*
X8561024Y-13767071D01*
X8570548Y-13805167D01*
X8570548Y-13852786D01*
X8561024Y-13890881D01*
X8551500Y-13909928D01*
X8541976Y-13919452D01*
X8522929Y-13928976D01*
X8503881Y-13928976D01*
X8484833Y-13919452D01*
X8475310Y-13909928D01*
X8465786Y-13890881D01*
X8456262Y-13852786D01*
X8456262Y-13805167D01*
X8465786Y-13767071D01*
X8475310Y-13748024D01*
X8484833Y-13738500D01*
X8503881Y-13728976D01*
X8656262Y-13928976D02*
X8656262Y-13795643D01*
X8656262Y-13814690D02*
X8665786Y-13805167D01*
X8684833Y-13795643D01*
X8713405Y-13795643D01*
X8732452Y-13805167D01*
X8741976Y-13824214D01*
X8741976Y-13928976D01*
X8741976Y-13824214D02*
X8751500Y-13805167D01*
X8770548Y-13795643D01*
X8799119Y-13795643D01*
X8818167Y-13805167D01*
X8827690Y-13824214D01*
X8827690Y-13928976D01*
X8922929Y-13928976D02*
X8922929Y-13795643D01*
X8922929Y-13814690D02*
X8932452Y-13805167D01*
X8951500Y-13795643D01*
X8980071Y-13795643D01*
X8999119Y-13805167D01*
X9008643Y-13824214D01*
X9008643Y-13928976D01*
X9008643Y-13824214D02*
X9018167Y-13805167D01*
X9037214Y-13795643D01*
X9065786Y-13795643D01*
X9084833Y-13805167D01*
X9094357Y-13824214D01*
X9094357Y-13928976D01*
X9484833Y-13719452D02*
X9313405Y-13976595D01*
X9741976Y-13728976D02*
X9761024Y-13728976D01*
X9780071Y-13738500D01*
X9789595Y-13748024D01*
X9799119Y-13767071D01*
X9808643Y-13805167D01*
X9808643Y-13852786D01*
X9799119Y-13890881D01*
X9789595Y-13909928D01*
X9780071Y-13919452D01*
X9761024Y-13928976D01*
X9741976Y-13928976D01*
X9722929Y-13919452D01*
X9713405Y-13909928D01*
X9703881Y-13890881D01*
X9694357Y-13852786D01*
X9694357Y-13805167D01*
X9703881Y-13767071D01*
X9713405Y-13748024D01*
X9722929Y-13738500D01*
X9741976Y-13728976D01*
X9894357Y-13909928D02*
X9903881Y-13919452D01*
X9894357Y-13928976D01*
X9884833Y-13919452D01*
X9894357Y-13909928D01*
X9894357Y-13928976D01*
X10027690Y-13728976D02*
X10046738Y-13728976D01*
X10065786Y-13738500D01*
X10075310Y-13748024D01*
X10084833Y-13767071D01*
X10094357Y-13805167D01*
X10094357Y-13852786D01*
X10084833Y-13890881D01*
X10075310Y-13909928D01*
X10065786Y-13919452D01*
X10046738Y-13928976D01*
X10027690Y-13928976D01*
X10008643Y-13919452D01*
X9999119Y-13909928D01*
X9989595Y-13890881D01*
X9980071Y-13852786D01*
X9980071Y-13805167D01*
X9989595Y-13767071D01*
X9999119Y-13748024D01*
X10008643Y-13738500D01*
X10027690Y-13728976D01*
X10265786Y-13795643D02*
X10265786Y-13928976D01*
X10218167Y-13719452D02*
X10170548Y-13862309D01*
X10294357Y-13862309D01*
X10351500Y-13728976D02*
X10475310Y-13728976D01*
X10408643Y-13805167D01*
X10437214Y-13805167D01*
X10456262Y-13814690D01*
X10465786Y-13824214D01*
X10475310Y-13843262D01*
X10475310Y-13890881D01*
X10465786Y-13909928D01*
X10456262Y-13919452D01*
X10437214Y-13928976D01*
X10380071Y-13928976D01*
X10361024Y-13919452D01*
X10351500Y-13909928D01*
X10541976Y-13728976D02*
X10665786Y-13728976D01*
X10599119Y-13805167D01*
X10627690Y-13805167D01*
X10646738Y-13814690D01*
X10656262Y-13824214D01*
X10665786Y-13843262D01*
X10665786Y-13890881D01*
X10656262Y-13909928D01*
X10646738Y-13919452D01*
X10627690Y-13928976D01*
X10570548Y-13928976D01*
X10551500Y-13919452D01*
X10541976Y-13909928D01*
X10741976Y-13728976D02*
X10741976Y-13767071D01*
X10818167Y-13728976D02*
X10818167Y-13767071D01*
X11113405Y-14005167D02*
X11103881Y-13995643D01*
X11084833Y-13967071D01*
X11075310Y-13948024D01*
X11065786Y-13919452D01*
X11056262Y-13871833D01*
X11056262Y-13833738D01*
X11065786Y-13786119D01*
X11075310Y-13757548D01*
X11084833Y-13738500D01*
X11103881Y-13709928D01*
X11113405Y-13700405D01*
X11275309Y-13795643D02*
X11275309Y-13928976D01*
X11227690Y-13719452D02*
X11180071Y-13862309D01*
X11303881Y-13862309D01*
X11532452Y-13928976D02*
X11532452Y-13728976D01*
X11618167Y-13928976D02*
X11618167Y-13824214D01*
X11608643Y-13805167D01*
X11589595Y-13795643D01*
X11561024Y-13795643D01*
X11541976Y-13805167D01*
X11532452Y-13814690D01*
X11741976Y-13928976D02*
X11722928Y-13919452D01*
X11713405Y-13909928D01*
X11703881Y-13890881D01*
X11703881Y-13833738D01*
X11713405Y-13814690D01*
X11722928Y-13805167D01*
X11741976Y-13795643D01*
X11770548Y-13795643D01*
X11789595Y-13805167D01*
X11799119Y-13814690D01*
X11808643Y-13833738D01*
X11808643Y-13890881D01*
X11799119Y-13909928D01*
X11789595Y-13919452D01*
X11770548Y-13928976D01*
X11741976Y-13928976D01*
X11922928Y-13928976D02*
X11903881Y-13919452D01*
X11894357Y-13900405D01*
X11894357Y-13728976D01*
X12075309Y-13919452D02*
X12056262Y-13928976D01*
X12018167Y-13928976D01*
X11999119Y-13919452D01*
X11989595Y-13900405D01*
X11989595Y-13824214D01*
X11999119Y-13805167D01*
X12018167Y-13795643D01*
X12056262Y-13795643D01*
X12075309Y-13805167D01*
X12084833Y-13824214D01*
X12084833Y-13843262D01*
X11989595Y-13862309D01*
X12161024Y-13919452D02*
X12180071Y-13928976D01*
X12218167Y-13928976D01*
X12237214Y-13919452D01*
X12246738Y-13900405D01*
X12246738Y-13890881D01*
X12237214Y-13871833D01*
X12218167Y-13862309D01*
X12189595Y-13862309D01*
X12170548Y-13852786D01*
X12161024Y-13833738D01*
X12161024Y-13824214D01*
X12170548Y-13805167D01*
X12189595Y-13795643D01*
X12218167Y-13795643D01*
X12237214Y-13805167D01*
X12313405Y-14005167D02*
X12322928Y-13995643D01*
X12341976Y-13967071D01*
X12351500Y-13948024D01*
X12361024Y-13919452D01*
X12370548Y-13871833D01*
X12370548Y-13833738D01*
X12361024Y-13786119D01*
X12351500Y-13757548D01*
X12341976Y-13738500D01*
X12322928Y-13709928D01*
X12313405Y-13700405D01*
D16*
X7422500Y-14043000D02*
X7541500Y-14162000D01*
X7541500Y-14043000D02*
X7422500Y-14162000D01*
X7541500Y-14102500D02*
G75*
G03*
X7541500Y-14102500I-59500J0D01*
G01*
D11*
X7903881Y-14192976D02*
X7789595Y-14192976D01*
X7846738Y-14192976D02*
X7846738Y-13992976D01*
X7827690Y-14021548D01*
X7808643Y-14040595D01*
X7789595Y-14050119D01*
X7989595Y-14173928D02*
X7999119Y-14183452D01*
X7989595Y-14192976D01*
X7980071Y-14183452D01*
X7989595Y-14173928D01*
X7989595Y-14192976D01*
X8189595Y-14192976D02*
X8075309Y-14192976D01*
X8132452Y-14192976D02*
X8132452Y-13992976D01*
X8113405Y-14021548D01*
X8094357Y-14040595D01*
X8075309Y-14050119D01*
X8284833Y-14192976D02*
X8322928Y-14192976D01*
X8341976Y-14183452D01*
X8351500Y-14173928D01*
X8370548Y-14145357D01*
X8380071Y-14107262D01*
X8380071Y-14031071D01*
X8370548Y-14012024D01*
X8361024Y-14002500D01*
X8341976Y-13992976D01*
X8303881Y-13992976D01*
X8284833Y-14002500D01*
X8275309Y-14012024D01*
X8265786Y-14031071D01*
X8265786Y-14078690D01*
X8275309Y-14097738D01*
X8284833Y-14107262D01*
X8303881Y-14116786D01*
X8341976Y-14116786D01*
X8361024Y-14107262D01*
X8370548Y-14097738D01*
X8380071Y-14078690D01*
X8503881Y-13992976D02*
X8522929Y-13992976D01*
X8541976Y-14002500D01*
X8551500Y-14012024D01*
X8561024Y-14031071D01*
X8570548Y-14069167D01*
X8570548Y-14116786D01*
X8561024Y-14154881D01*
X8551500Y-14173928D01*
X8541976Y-14183452D01*
X8522929Y-14192976D01*
X8503881Y-14192976D01*
X8484833Y-14183452D01*
X8475310Y-14173928D01*
X8465786Y-14154881D01*
X8456262Y-14116786D01*
X8456262Y-14069167D01*
X8465786Y-14031071D01*
X8475310Y-14012024D01*
X8484833Y-14002500D01*
X8503881Y-13992976D01*
X8656262Y-14192976D02*
X8656262Y-14059643D01*
X8656262Y-14078690D02*
X8665786Y-14069167D01*
X8684833Y-14059643D01*
X8713405Y-14059643D01*
X8732452Y-14069167D01*
X8741976Y-14088214D01*
X8741976Y-14192976D01*
X8741976Y-14088214D02*
X8751500Y-14069167D01*
X8770548Y-14059643D01*
X8799119Y-14059643D01*
X8818167Y-14069167D01*
X8827690Y-14088214D01*
X8827690Y-14192976D01*
X8922929Y-14192976D02*
X8922929Y-14059643D01*
X8922929Y-14078690D02*
X8932452Y-14069167D01*
X8951500Y-14059643D01*
X8980071Y-14059643D01*
X8999119Y-14069167D01*
X9008643Y-14088214D01*
X9008643Y-14192976D01*
X9008643Y-14088214D02*
X9018167Y-14069167D01*
X9037214Y-14059643D01*
X9065786Y-14059643D01*
X9084833Y-14069167D01*
X9094357Y-14088214D01*
X9094357Y-14192976D01*
X9484833Y-13983452D02*
X9313405Y-14240595D01*
X9741976Y-13992976D02*
X9761024Y-13992976D01*
X9780071Y-14002500D01*
X9789595Y-14012024D01*
X9799119Y-14031071D01*
X9808643Y-14069167D01*
X9808643Y-14116786D01*
X9799119Y-14154881D01*
X9789595Y-14173928D01*
X9780071Y-14183452D01*
X9761024Y-14192976D01*
X9741976Y-14192976D01*
X9722929Y-14183452D01*
X9713405Y-14173928D01*
X9703881Y-14154881D01*
X9694357Y-14116786D01*
X9694357Y-14069167D01*
X9703881Y-14031071D01*
X9713405Y-14012024D01*
X9722929Y-14002500D01*
X9741976Y-13992976D01*
X9894357Y-14173928D02*
X9903881Y-14183452D01*
X9894357Y-14192976D01*
X9884833Y-14183452D01*
X9894357Y-14173928D01*
X9894357Y-14192976D01*
X10027690Y-13992976D02*
X10046738Y-13992976D01*
X10065786Y-14002500D01*
X10075310Y-14012024D01*
X10084833Y-14031071D01*
X10094357Y-14069167D01*
X10094357Y-14116786D01*
X10084833Y-14154881D01*
X10075310Y-14173928D01*
X10065786Y-14183452D01*
X10046738Y-14192976D01*
X10027690Y-14192976D01*
X10008643Y-14183452D01*
X9999119Y-14173928D01*
X9989595Y-14154881D01*
X9980071Y-14116786D01*
X9980071Y-14069167D01*
X9989595Y-14031071D01*
X9999119Y-14012024D01*
X10008643Y-14002500D01*
X10027690Y-13992976D01*
X10265786Y-14059643D02*
X10265786Y-14192976D01*
X10218167Y-13983452D02*
X10170548Y-14126309D01*
X10294357Y-14126309D01*
X10456262Y-13992976D02*
X10418167Y-13992976D01*
X10399119Y-14002500D01*
X10389595Y-14012024D01*
X10370548Y-14040595D01*
X10361024Y-14078690D01*
X10361024Y-14154881D01*
X10370548Y-14173928D01*
X10380071Y-14183452D01*
X10399119Y-14192976D01*
X10437214Y-14192976D01*
X10456262Y-14183452D01*
X10465786Y-14173928D01*
X10475310Y-14154881D01*
X10475310Y-14107262D01*
X10465786Y-14088214D01*
X10456262Y-14078690D01*
X10437214Y-14069167D01*
X10399119Y-14069167D01*
X10380071Y-14078690D01*
X10370548Y-14088214D01*
X10361024Y-14107262D01*
X10570548Y-14192976D02*
X10608643Y-14192976D01*
X10627690Y-14183452D01*
X10637214Y-14173928D01*
X10656262Y-14145357D01*
X10665786Y-14107262D01*
X10665786Y-14031071D01*
X10656262Y-14012024D01*
X10646738Y-14002500D01*
X10627690Y-13992976D01*
X10589595Y-13992976D01*
X10570548Y-14002500D01*
X10561024Y-14012024D01*
X10551500Y-14031071D01*
X10551500Y-14078690D01*
X10561024Y-14097738D01*
X10570548Y-14107262D01*
X10589595Y-14116786D01*
X10627690Y-14116786D01*
X10646738Y-14107262D01*
X10656262Y-14097738D01*
X10665786Y-14078690D01*
X10741976Y-13992976D02*
X10741976Y-14031071D01*
X10818167Y-13992976D02*
X10818167Y-14031071D01*
X11113405Y-14269167D02*
X11103881Y-14259643D01*
X11084833Y-14231071D01*
X11075310Y-14212024D01*
X11065786Y-14183452D01*
X11056262Y-14135833D01*
X11056262Y-14097738D01*
X11065786Y-14050119D01*
X11075310Y-14021548D01*
X11084833Y-14002500D01*
X11103881Y-13973928D01*
X11113405Y-13964405D01*
X11180071Y-14012024D02*
X11189595Y-14002500D01*
X11208643Y-13992976D01*
X11256262Y-13992976D01*
X11275309Y-14002500D01*
X11284833Y-14012024D01*
X11294357Y-14031071D01*
X11294357Y-14050119D01*
X11284833Y-14078690D01*
X11170548Y-14192976D01*
X11294357Y-14192976D01*
X11370548Y-14012024D02*
X11380071Y-14002500D01*
X11399119Y-13992976D01*
X11446738Y-13992976D01*
X11465786Y-14002500D01*
X11475309Y-14012024D01*
X11484833Y-14031071D01*
X11484833Y-14050119D01*
X11475309Y-14078690D01*
X11361024Y-14192976D01*
X11484833Y-14192976D01*
X11722928Y-14192976D02*
X11722928Y-13992976D01*
X11808643Y-14192976D02*
X11808643Y-14088214D01*
X11799119Y-14069167D01*
X11780071Y-14059643D01*
X11751500Y-14059643D01*
X11732452Y-14069167D01*
X11722928Y-14078690D01*
X11932452Y-14192976D02*
X11913405Y-14183452D01*
X11903881Y-14173928D01*
X11894357Y-14154881D01*
X11894357Y-14097738D01*
X11903881Y-14078690D01*
X11913405Y-14069167D01*
X11932452Y-14059643D01*
X11961024Y-14059643D01*
X11980071Y-14069167D01*
X11989595Y-14078690D01*
X11999119Y-14097738D01*
X11999119Y-14154881D01*
X11989595Y-14173928D01*
X11980071Y-14183452D01*
X11961024Y-14192976D01*
X11932452Y-14192976D01*
X12113405Y-14192976D02*
X12094357Y-14183452D01*
X12084833Y-14164405D01*
X12084833Y-13992976D01*
X12265786Y-14183452D02*
X12246738Y-14192976D01*
X12208643Y-14192976D01*
X12189595Y-14183452D01*
X12180071Y-14164405D01*
X12180071Y-14088214D01*
X12189595Y-14069167D01*
X12208643Y-14059643D01*
X12246738Y-14059643D01*
X12265786Y-14069167D01*
X12275309Y-14088214D01*
X12275309Y-14107262D01*
X12180071Y-14126309D01*
X12351500Y-14183452D02*
X12370548Y-14192976D01*
X12408643Y-14192976D01*
X12427690Y-14183452D01*
X12437214Y-14164405D01*
X12437214Y-14154881D01*
X12427690Y-14135833D01*
X12408643Y-14126309D01*
X12380071Y-14126309D01*
X12361024Y-14116786D01*
X12351500Y-14097738D01*
X12351500Y-14088214D01*
X12361024Y-14069167D01*
X12380071Y-14059643D01*
X12408643Y-14059643D01*
X12427690Y-14069167D01*
X12503881Y-14269167D02*
X12513405Y-14259643D01*
X12532452Y-14231071D01*
X12541976Y-14212024D01*
X12551500Y-14183452D01*
X12561024Y-14135833D01*
X12561024Y-14097738D01*
X12551500Y-14050119D01*
X12541976Y-14021548D01*
X12532452Y-14002500D01*
X12513405Y-13973928D01*
X12503881Y-13964405D01*
X7341500Y-14266500D02*
X7541500Y-14466500D01*
X7541500Y-14266500D02*
X7341500Y-14466500D01*
X7441500Y-14266500D02*
X7441500Y-14466500D01*
X7341500Y-14366500D02*
X7541500Y-14366500D01*
X7789595Y-14276024D02*
X7799119Y-14266500D01*
X7818167Y-14256976D01*
X7865786Y-14256976D01*
X7884833Y-14266500D01*
X7894357Y-14276024D01*
X7903881Y-14295071D01*
X7903881Y-14314119D01*
X7894357Y-14342690D01*
X7780071Y-14456976D01*
X7903881Y-14456976D01*
X7989595Y-14437928D02*
X7999119Y-14447452D01*
X7989595Y-14456976D01*
X7980071Y-14447452D01*
X7989595Y-14437928D01*
X7989595Y-14456976D01*
X8065786Y-14256976D02*
X8189595Y-14256976D01*
X8122928Y-14333167D01*
X8151500Y-14333167D01*
X8170548Y-14342690D01*
X8180071Y-14352214D01*
X8189595Y-14371262D01*
X8189595Y-14418881D01*
X8180071Y-14437928D01*
X8170548Y-14447452D01*
X8151500Y-14456976D01*
X8094357Y-14456976D01*
X8075309Y-14447452D01*
X8065786Y-14437928D01*
X8313405Y-14256976D02*
X8332452Y-14256976D01*
X8351500Y-14266500D01*
X8361024Y-14276024D01*
X8370548Y-14295071D01*
X8380071Y-14333167D01*
X8380071Y-14380786D01*
X8370548Y-14418881D01*
X8361024Y-14437928D01*
X8351500Y-14447452D01*
X8332452Y-14456976D01*
X8313405Y-14456976D01*
X8294357Y-14447452D01*
X8284833Y-14437928D01*
X8275309Y-14418881D01*
X8265786Y-14380786D01*
X8265786Y-14333167D01*
X8275309Y-14295071D01*
X8284833Y-14276024D01*
X8294357Y-14266500D01*
X8313405Y-14256976D01*
X8503881Y-14256976D02*
X8522929Y-14256976D01*
X8541976Y-14266500D01*
X8551500Y-14276024D01*
X8561024Y-14295071D01*
X8570548Y-14333167D01*
X8570548Y-14380786D01*
X8561024Y-14418881D01*
X8551500Y-14437928D01*
X8541976Y-14447452D01*
X8522929Y-14456976D01*
X8503881Y-14456976D01*
X8484833Y-14447452D01*
X8475310Y-14437928D01*
X8465786Y-14418881D01*
X8456262Y-14380786D01*
X8456262Y-14333167D01*
X8465786Y-14295071D01*
X8475310Y-14276024D01*
X8484833Y-14266500D01*
X8503881Y-14256976D01*
X8656262Y-14456976D02*
X8656262Y-14323643D01*
X8656262Y-14342690D02*
X8665786Y-14333167D01*
X8684833Y-14323643D01*
X8713405Y-14323643D01*
X8732452Y-14333167D01*
X8741976Y-14352214D01*
X8741976Y-14456976D01*
X8741976Y-14352214D02*
X8751500Y-14333167D01*
X8770548Y-14323643D01*
X8799119Y-14323643D01*
X8818167Y-14333167D01*
X8827690Y-14352214D01*
X8827690Y-14456976D01*
X8922929Y-14456976D02*
X8922929Y-14323643D01*
X8922929Y-14342690D02*
X8932452Y-14333167D01*
X8951500Y-14323643D01*
X8980071Y-14323643D01*
X8999119Y-14333167D01*
X9008643Y-14352214D01*
X9008643Y-14456976D01*
X9008643Y-14352214D02*
X9018167Y-14333167D01*
X9037214Y-14323643D01*
X9065786Y-14323643D01*
X9084833Y-14333167D01*
X9094357Y-14352214D01*
X9094357Y-14456976D01*
X9484833Y-14247452D02*
X9313405Y-14504595D01*
X9741976Y-14256976D02*
X9761024Y-14256976D01*
X9780071Y-14266500D01*
X9789595Y-14276024D01*
X9799119Y-14295071D01*
X9808643Y-14333167D01*
X9808643Y-14380786D01*
X9799119Y-14418881D01*
X9789595Y-14437928D01*
X9780071Y-14447452D01*
X9761024Y-14456976D01*
X9741976Y-14456976D01*
X9722929Y-14447452D01*
X9713405Y-14437928D01*
X9703881Y-14418881D01*
X9694357Y-14380786D01*
X9694357Y-14333167D01*
X9703881Y-14295071D01*
X9713405Y-14276024D01*
X9722929Y-14266500D01*
X9741976Y-14256976D01*
X9894357Y-14437928D02*
X9903881Y-14447452D01*
X9894357Y-14456976D01*
X9884833Y-14447452D01*
X9894357Y-14437928D01*
X9894357Y-14456976D01*
X10027690Y-14256976D02*
X10046738Y-14256976D01*
X10065786Y-14266500D01*
X10075310Y-14276024D01*
X10084833Y-14295071D01*
X10094357Y-14333167D01*
X10094357Y-14380786D01*
X10084833Y-14418881D01*
X10075310Y-14437928D01*
X10065786Y-14447452D01*
X10046738Y-14456976D01*
X10027690Y-14456976D01*
X10008643Y-14447452D01*
X9999119Y-14437928D01*
X9989595Y-14418881D01*
X9980071Y-14380786D01*
X9980071Y-14333167D01*
X9989595Y-14295071D01*
X9999119Y-14276024D01*
X10008643Y-14266500D01*
X10027690Y-14256976D01*
X10189595Y-14456976D02*
X10227690Y-14456976D01*
X10246738Y-14447452D01*
X10256262Y-14437928D01*
X10275310Y-14409357D01*
X10284833Y-14371262D01*
X10284833Y-14295071D01*
X10275310Y-14276024D01*
X10265786Y-14266500D01*
X10246738Y-14256976D01*
X10208643Y-14256976D01*
X10189595Y-14266500D01*
X10180071Y-14276024D01*
X10170548Y-14295071D01*
X10170548Y-14342690D01*
X10180071Y-14361738D01*
X10189595Y-14371262D01*
X10208643Y-14380786D01*
X10246738Y-14380786D01*
X10265786Y-14371262D01*
X10275310Y-14361738D01*
X10284833Y-14342690D01*
X10408643Y-14256976D02*
X10427690Y-14256976D01*
X10446738Y-14266500D01*
X10456262Y-14276024D01*
X10465786Y-14295071D01*
X10475310Y-14333167D01*
X10475310Y-14380786D01*
X10465786Y-14418881D01*
X10456262Y-14437928D01*
X10446738Y-14447452D01*
X10427690Y-14456976D01*
X10408643Y-14456976D01*
X10389595Y-14447452D01*
X10380071Y-14437928D01*
X10370548Y-14418881D01*
X10361024Y-14380786D01*
X10361024Y-14333167D01*
X10370548Y-14295071D01*
X10380071Y-14276024D01*
X10389595Y-14266500D01*
X10408643Y-14256976D01*
X10646738Y-14256976D02*
X10608643Y-14256976D01*
X10589595Y-14266500D01*
X10580071Y-14276024D01*
X10561024Y-14304595D01*
X10551500Y-14342690D01*
X10551500Y-14418881D01*
X10561024Y-14437928D01*
X10570548Y-14447452D01*
X10589595Y-14456976D01*
X10627690Y-14456976D01*
X10646738Y-14447452D01*
X10656262Y-14437928D01*
X10665786Y-14418881D01*
X10665786Y-14371262D01*
X10656262Y-14352214D01*
X10646738Y-14342690D01*
X10627690Y-14333167D01*
X10589595Y-14333167D01*
X10570548Y-14342690D01*
X10561024Y-14352214D01*
X10551500Y-14371262D01*
X10741976Y-14256976D02*
X10741976Y-14295071D01*
X10818167Y-14256976D02*
X10818167Y-14295071D01*
X11113405Y-14533167D02*
X11103881Y-14523643D01*
X11084833Y-14495071D01*
X11075310Y-14476024D01*
X11065786Y-14447452D01*
X11056262Y-14399833D01*
X11056262Y-14361738D01*
X11065786Y-14314119D01*
X11075310Y-14285548D01*
X11084833Y-14266500D01*
X11103881Y-14237928D01*
X11113405Y-14228405D01*
X11275309Y-14256976D02*
X11237214Y-14256976D01*
X11218167Y-14266500D01*
X11208643Y-14276024D01*
X11189595Y-14304595D01*
X11180071Y-14342690D01*
X11180071Y-14418881D01*
X11189595Y-14437928D01*
X11199119Y-14447452D01*
X11218167Y-14456976D01*
X11256262Y-14456976D01*
X11275309Y-14447452D01*
X11284833Y-14437928D01*
X11294357Y-14418881D01*
X11294357Y-14371262D01*
X11284833Y-14352214D01*
X11275309Y-14342690D01*
X11256262Y-14333167D01*
X11218167Y-14333167D01*
X11199119Y-14342690D01*
X11189595Y-14352214D01*
X11180071Y-14371262D01*
X11532452Y-14456976D02*
X11532452Y-14256976D01*
X11618167Y-14456976D02*
X11618167Y-14352214D01*
X11608643Y-14333167D01*
X11589595Y-14323643D01*
X11561024Y-14323643D01*
X11541976Y-14333167D01*
X11532452Y-14342690D01*
X11741976Y-14456976D02*
X11722928Y-14447452D01*
X11713405Y-14437928D01*
X11703881Y-14418881D01*
X11703881Y-14361738D01*
X11713405Y-14342690D01*
X11722928Y-14333167D01*
X11741976Y-14323643D01*
X11770548Y-14323643D01*
X11789595Y-14333167D01*
X11799119Y-14342690D01*
X11808643Y-14361738D01*
X11808643Y-14418881D01*
X11799119Y-14437928D01*
X11789595Y-14447452D01*
X11770548Y-14456976D01*
X11741976Y-14456976D01*
X11922928Y-14456976D02*
X11903881Y-14447452D01*
X11894357Y-14428405D01*
X11894357Y-14256976D01*
X12075309Y-14447452D02*
X12056262Y-14456976D01*
X12018167Y-14456976D01*
X11999119Y-14447452D01*
X11989595Y-14428405D01*
X11989595Y-14352214D01*
X11999119Y-14333167D01*
X12018167Y-14323643D01*
X12056262Y-14323643D01*
X12075309Y-14333167D01*
X12084833Y-14352214D01*
X12084833Y-14371262D01*
X11989595Y-14390309D01*
X12161024Y-14447452D02*
X12180071Y-14456976D01*
X12218167Y-14456976D01*
X12237214Y-14447452D01*
X12246738Y-14428405D01*
X12246738Y-14418881D01*
X12237214Y-14399833D01*
X12218167Y-14390309D01*
X12189595Y-14390309D01*
X12170548Y-14380786D01*
X12161024Y-14361738D01*
X12161024Y-14352214D01*
X12170548Y-14333167D01*
X12189595Y-14323643D01*
X12218167Y-14323643D01*
X12237214Y-14333167D01*
X12313405Y-14533167D02*
X12322928Y-14523643D01*
X12341976Y-14495071D01*
X12351500Y-14476024D01*
X12361024Y-14447452D01*
X12370548Y-14399833D01*
X12370548Y-14361738D01*
X12361024Y-14314119D01*
X12351500Y-14285548D01*
X12341976Y-14266500D01*
X12322928Y-14237928D01*
X12313405Y-14228405D01*
X7341500Y-14586500D02*
X7541500Y-14786500D01*
X7541500Y-14586500D02*
X7341500Y-14786500D01*
X7512211Y-14757211D02*
X7512211Y-14615789D01*
X7370789Y-14615789D01*
X7370789Y-14757211D01*
X7512211Y-14757211D01*
X7780071Y-14576976D02*
X7903881Y-14576976D01*
X7837214Y-14653167D01*
X7865786Y-14653167D01*
X7884833Y-14662690D01*
X7894357Y-14672214D01*
X7903881Y-14691262D01*
X7903881Y-14738881D01*
X7894357Y-14757928D01*
X7884833Y-14767452D01*
X7865786Y-14776976D01*
X7808643Y-14776976D01*
X7789595Y-14767452D01*
X7780071Y-14757928D01*
X7989595Y-14757928D02*
X7999119Y-14767452D01*
X7989595Y-14776976D01*
X7980071Y-14767452D01*
X7989595Y-14757928D01*
X7989595Y-14776976D01*
X8180071Y-14576976D02*
X8084833Y-14576976D01*
X8075309Y-14672214D01*
X8084833Y-14662690D01*
X8103881Y-14653167D01*
X8151500Y-14653167D01*
X8170548Y-14662690D01*
X8180071Y-14672214D01*
X8189595Y-14691262D01*
X8189595Y-14738881D01*
X8180071Y-14757928D01*
X8170548Y-14767452D01*
X8151500Y-14776976D01*
X8103881Y-14776976D01*
X8084833Y-14767452D01*
X8075309Y-14757928D01*
X8313405Y-14576976D02*
X8332452Y-14576976D01*
X8351500Y-14586500D01*
X8361024Y-14596024D01*
X8370548Y-14615071D01*
X8380071Y-14653167D01*
X8380071Y-14700786D01*
X8370548Y-14738881D01*
X8361024Y-14757928D01*
X8351500Y-14767452D01*
X8332452Y-14776976D01*
X8313405Y-14776976D01*
X8294357Y-14767452D01*
X8284833Y-14757928D01*
X8275309Y-14738881D01*
X8265786Y-14700786D01*
X8265786Y-14653167D01*
X8275309Y-14615071D01*
X8284833Y-14596024D01*
X8294357Y-14586500D01*
X8313405Y-14576976D01*
X8503881Y-14576976D02*
X8522929Y-14576976D01*
X8541976Y-14586500D01*
X8551500Y-14596024D01*
X8561024Y-14615071D01*
X8570548Y-14653167D01*
X8570548Y-14700786D01*
X8561024Y-14738881D01*
X8551500Y-14757928D01*
X8541976Y-14767452D01*
X8522929Y-14776976D01*
X8503881Y-14776976D01*
X8484833Y-14767452D01*
X8475310Y-14757928D01*
X8465786Y-14738881D01*
X8456262Y-14700786D01*
X8456262Y-14653167D01*
X8465786Y-14615071D01*
X8475310Y-14596024D01*
X8484833Y-14586500D01*
X8503881Y-14576976D01*
X8656262Y-14776976D02*
X8656262Y-14643643D01*
X8656262Y-14662690D02*
X8665786Y-14653167D01*
X8684833Y-14643643D01*
X8713405Y-14643643D01*
X8732452Y-14653167D01*
X8741976Y-14672214D01*
X8741976Y-14776976D01*
X8741976Y-14672214D02*
X8751500Y-14653167D01*
X8770548Y-14643643D01*
X8799119Y-14643643D01*
X8818167Y-14653167D01*
X8827690Y-14672214D01*
X8827690Y-14776976D01*
X8922929Y-14776976D02*
X8922929Y-14643643D01*
X8922929Y-14662690D02*
X8932452Y-14653167D01*
X8951500Y-14643643D01*
X8980071Y-14643643D01*
X8999119Y-14653167D01*
X9008643Y-14672214D01*
X9008643Y-14776976D01*
X9008643Y-14672214D02*
X9018167Y-14653167D01*
X9037214Y-14643643D01*
X9065786Y-14643643D01*
X9084833Y-14653167D01*
X9094357Y-14672214D01*
X9094357Y-14776976D01*
X9484833Y-14567452D02*
X9313405Y-14824595D01*
X9741976Y-14576976D02*
X9761024Y-14576976D01*
X9780071Y-14586500D01*
X9789595Y-14596024D01*
X9799119Y-14615071D01*
X9808643Y-14653167D01*
X9808643Y-14700786D01*
X9799119Y-14738881D01*
X9789595Y-14757928D01*
X9780071Y-14767452D01*
X9761024Y-14776976D01*
X9741976Y-14776976D01*
X9722929Y-14767452D01*
X9713405Y-14757928D01*
X9703881Y-14738881D01*
X9694357Y-14700786D01*
X9694357Y-14653167D01*
X9703881Y-14615071D01*
X9713405Y-14596024D01*
X9722929Y-14586500D01*
X9741976Y-14576976D01*
X9894357Y-14757928D02*
X9903881Y-14767452D01*
X9894357Y-14776976D01*
X9884833Y-14767452D01*
X9894357Y-14757928D01*
X9894357Y-14776976D01*
X10094357Y-14776976D02*
X9980071Y-14776976D01*
X10037214Y-14776976D02*
X10037214Y-14576976D01*
X10018167Y-14605548D01*
X9999119Y-14624595D01*
X9980071Y-14634119D01*
X10161024Y-14576976D02*
X10284833Y-14576976D01*
X10218167Y-14653167D01*
X10246738Y-14653167D01*
X10265786Y-14662690D01*
X10275310Y-14672214D01*
X10284833Y-14691262D01*
X10284833Y-14738881D01*
X10275310Y-14757928D01*
X10265786Y-14767452D01*
X10246738Y-14776976D01*
X10189595Y-14776976D01*
X10170548Y-14767452D01*
X10161024Y-14757928D01*
X10351500Y-14576976D02*
X10484833Y-14576976D01*
X10399119Y-14776976D01*
X10589595Y-14662690D02*
X10570548Y-14653167D01*
X10561024Y-14643643D01*
X10551500Y-14624595D01*
X10551500Y-14615071D01*
X10561024Y-14596024D01*
X10570548Y-14586500D01*
X10589595Y-14576976D01*
X10627690Y-14576976D01*
X10646738Y-14586500D01*
X10656262Y-14596024D01*
X10665786Y-14615071D01*
X10665786Y-14624595D01*
X10656262Y-14643643D01*
X10646738Y-14653167D01*
X10627690Y-14662690D01*
X10589595Y-14662690D01*
X10570548Y-14672214D01*
X10561024Y-14681738D01*
X10551500Y-14700786D01*
X10551500Y-14738881D01*
X10561024Y-14757928D01*
X10570548Y-14767452D01*
X10589595Y-14776976D01*
X10627690Y-14776976D01*
X10646738Y-14767452D01*
X10656262Y-14757928D01*
X10665786Y-14738881D01*
X10665786Y-14700786D01*
X10656262Y-14681738D01*
X10646738Y-14672214D01*
X10627690Y-14662690D01*
X10741976Y-14576976D02*
X10741976Y-14615071D01*
X10818167Y-14576976D02*
X10818167Y-14615071D01*
X11113405Y-14853167D02*
X11103881Y-14843643D01*
X11084833Y-14815071D01*
X11075310Y-14796024D01*
X11065786Y-14767452D01*
X11056262Y-14719833D01*
X11056262Y-14681738D01*
X11065786Y-14634119D01*
X11075310Y-14605548D01*
X11084833Y-14586500D01*
X11103881Y-14557928D01*
X11113405Y-14548405D01*
X11180071Y-14596024D02*
X11189595Y-14586500D01*
X11208643Y-14576976D01*
X11256262Y-14576976D01*
X11275309Y-14586500D01*
X11284833Y-14596024D01*
X11294357Y-14615071D01*
X11294357Y-14634119D01*
X11284833Y-14662690D01*
X11170548Y-14776976D01*
X11294357Y-14776976D01*
X11532452Y-14776976D02*
X11532452Y-14576976D01*
X11618167Y-14776976D02*
X11618167Y-14672214D01*
X11608643Y-14653167D01*
X11589595Y-14643643D01*
X11561024Y-14643643D01*
X11541976Y-14653167D01*
X11532452Y-14662690D01*
X11741976Y-14776976D02*
X11722928Y-14767452D01*
X11713405Y-14757928D01*
X11703881Y-14738881D01*
X11703881Y-14681738D01*
X11713405Y-14662690D01*
X11722928Y-14653167D01*
X11741976Y-14643643D01*
X11770548Y-14643643D01*
X11789595Y-14653167D01*
X11799119Y-14662690D01*
X11808643Y-14681738D01*
X11808643Y-14738881D01*
X11799119Y-14757928D01*
X11789595Y-14767452D01*
X11770548Y-14776976D01*
X11741976Y-14776976D01*
X11922928Y-14776976D02*
X11903881Y-14767452D01*
X11894357Y-14748405D01*
X11894357Y-14576976D01*
X12075309Y-14767452D02*
X12056262Y-14776976D01*
X12018167Y-14776976D01*
X11999119Y-14767452D01*
X11989595Y-14748405D01*
X11989595Y-14672214D01*
X11999119Y-14653167D01*
X12018167Y-14643643D01*
X12056262Y-14643643D01*
X12075309Y-14653167D01*
X12084833Y-14672214D01*
X12084833Y-14691262D01*
X11989595Y-14710309D01*
X12161024Y-14767452D02*
X12180071Y-14776976D01*
X12218167Y-14776976D01*
X12237214Y-14767452D01*
X12246738Y-14748405D01*
X12246738Y-14738881D01*
X12237214Y-14719833D01*
X12218167Y-14710309D01*
X12189595Y-14710309D01*
X12170548Y-14700786D01*
X12161024Y-14681738D01*
X12161024Y-14672214D01*
X12170548Y-14653167D01*
X12189595Y-14643643D01*
X12218167Y-14643643D01*
X12237214Y-14653167D01*
X12313405Y-14853167D02*
X12322928Y-14843643D01*
X12341976Y-14815071D01*
X12351500Y-14796024D01*
X12361024Y-14767452D01*
X12370548Y-14719833D01*
X12370548Y-14681738D01*
X12361024Y-14634119D01*
X12351500Y-14605548D01*
X12341976Y-14586500D01*
X12322928Y-14557928D01*
X12313405Y-14548405D01*
M02*
