%FSLAX45Y45*%
G04 Gerber Fmt 4.5, Leading zero omitted, Abs format (unit mm)*
G04 Created by KiCad (PCBNEW 6.0.0-rc2) date 2022-07-03 09:31:05*
%MOMM*%
%LPD*%
G01*
G04 APERTURE LIST*
%TA.AperFunction,Profile*%
%ADD10C,0.050000*%
%TD*%
%ADD11C,0.200000*%
%ADD12C,0.020000*%
%ADD13C,0.040000*%
%ADD14C,0.050000*%
%ADD15C,0.060000*%
%ADD16C,0.119000*%
%ADD17C,0.230000*%
%ADD18C,0.350000*%
%ADD19C,0.390000*%
G04 APERTURE END LIST*
D10*
X7045000Y-12025000D02*
X7045000Y-6975000D01*
X16420000Y-12200000D02*
G75*
G03*
X16595000Y-12025000I0J175000D01*
G01*
X16420000Y-12200000D02*
X7220000Y-12200000D01*
X7220000Y-6800000D02*
G75*
G03*
X7045000Y-6975000I0J-175000D01*
G01*
X16595000Y-6975000D02*
G75*
G03*
X16420000Y-6800000I-175000J0D01*
G01*
X7045000Y-12025000D02*
G75*
G03*
X7220000Y-12200000I175000J0D01*
G01*
X16420000Y-6800000D02*
X7220000Y-6800000D01*
X16595000Y-6975000D02*
X16595000Y-12025000D01*
D11*
D12*
X7205000Y-9155000D02*
X7225000Y-9175000D01*
X7225000Y-9155000D02*
X7205000Y-9175000D01*
X7515000Y-8900000D02*
X7535000Y-8920000D01*
X7535000Y-8900000D02*
X7515000Y-8920000D01*
X7665000Y-9115000D02*
X7685000Y-9135000D01*
X7685000Y-9115000D02*
X7665000Y-9135000D01*
X7740000Y-9040000D02*
X7760000Y-9060000D01*
X7760000Y-9040000D02*
X7740000Y-9060000D01*
X7800000Y-8965000D02*
X7820000Y-8985000D01*
X7820000Y-8965000D02*
X7800000Y-8985000D01*
X7855000Y-9390000D02*
X7875000Y-9410000D01*
X7875000Y-9390000D02*
X7855000Y-9410000D01*
X7865000Y-9880000D02*
X7885000Y-9900000D01*
X7885000Y-9880000D02*
X7865000Y-9900000D01*
X7870000Y-10000000D02*
X7890000Y-10020000D01*
X7890000Y-10000000D02*
X7870000Y-10020000D01*
X7875000Y-10090000D02*
X7895000Y-10110000D01*
X7895000Y-10090000D02*
X7875000Y-10110000D01*
X7940000Y-10396927D02*
X7960000Y-10416927D01*
X7960000Y-10396927D02*
X7940000Y-10416927D01*
X8005000Y-9635000D02*
X8025000Y-9655000D01*
X8025000Y-9635000D02*
X8005000Y-9655000D01*
X8015000Y-10470000D02*
X8035000Y-10490000D01*
X8035000Y-10470000D02*
X8015000Y-10490000D01*
X8050000Y-10560000D02*
X8070000Y-10580000D01*
X8070000Y-10560000D02*
X8050000Y-10580000D01*
X8150000Y-10060000D02*
X8170000Y-10080000D01*
X8170000Y-10060000D02*
X8150000Y-10080000D01*
X8190000Y-9640000D02*
X8210000Y-9660000D01*
X8210000Y-9640000D02*
X8190000Y-9660000D01*
X8200000Y-8840000D02*
X8220000Y-8860000D01*
X8220000Y-8840000D02*
X8200000Y-8860000D01*
X8220000Y-9980000D02*
X8240000Y-10000000D01*
X8240000Y-9980000D02*
X8220000Y-10000000D01*
X8239950Y-10384499D02*
X8259950Y-10404499D01*
X8259950Y-10384499D02*
X8239950Y-10404499D01*
X8270000Y-10620000D02*
X8290000Y-10640000D01*
X8290000Y-10620000D02*
X8270000Y-10640000D01*
X8280000Y-10850000D02*
X8300000Y-10870000D01*
X8300000Y-10850000D02*
X8280000Y-10870000D01*
X8290000Y-10520000D02*
X8310000Y-10540000D01*
X8310000Y-10520000D02*
X8290000Y-10540000D01*
X8315000Y-9315000D02*
X8335000Y-9335000D01*
X8335000Y-9315000D02*
X8315000Y-9335000D01*
X8330000Y-8865000D02*
X8350000Y-8885000D01*
X8350000Y-8865000D02*
X8330000Y-8885000D01*
X8330000Y-10710000D02*
X8350000Y-10730000D01*
X8350000Y-10710000D02*
X8330000Y-10730000D01*
X8335000Y-11915000D02*
X8355000Y-11935000D01*
X8355000Y-11915000D02*
X8335000Y-11935000D01*
X8366000Y-11360000D02*
X8386000Y-11380000D01*
X8386000Y-11360000D02*
X8366000Y-11380000D01*
X8371000Y-11710000D02*
X8391000Y-11730000D01*
X8391000Y-11710000D02*
X8371000Y-11730000D01*
X8410000Y-8585000D02*
X8430000Y-8605000D01*
X8430000Y-8585000D02*
X8410000Y-8605000D01*
X8410000Y-10750000D02*
X8430000Y-10770000D01*
X8430000Y-10750000D02*
X8410000Y-10770000D01*
X8461000Y-11710000D02*
X8481000Y-11730000D01*
X8481000Y-11710000D02*
X8461000Y-11730000D01*
X8466000Y-11360000D02*
X8486000Y-11380000D01*
X8486000Y-11360000D02*
X8466000Y-11380000D01*
X8495000Y-8950000D02*
X8515000Y-8970000D01*
X8515000Y-8950000D02*
X8495000Y-8970000D01*
X8495000Y-9345000D02*
X8515000Y-9365000D01*
X8515000Y-9345000D02*
X8495000Y-9365000D01*
X8500000Y-9155000D02*
X8520000Y-9175000D01*
X8520000Y-9155000D02*
X8500000Y-9175000D01*
X8560000Y-10474950D02*
X8580000Y-10494950D01*
X8580000Y-10474950D02*
X8560000Y-10494950D01*
X8570000Y-10160000D02*
X8590000Y-10180000D01*
X8590000Y-10160000D02*
X8570000Y-10180000D01*
X8575000Y-10555000D02*
X8595000Y-10575000D01*
X8595000Y-10555000D02*
X8575000Y-10575000D01*
X8625000Y-9405000D02*
X8645000Y-9425000D01*
X8645000Y-9405000D02*
X8625000Y-9425000D01*
X8640000Y-9065000D02*
X8660000Y-9085000D01*
X8660000Y-9065000D02*
X8640000Y-9085000D01*
X8650000Y-10070000D02*
X8670000Y-10090000D01*
X8670000Y-10070000D02*
X8650000Y-10090000D01*
X8650000Y-10515050D02*
X8670000Y-10535050D01*
X8670000Y-10515050D02*
X8650000Y-10535050D01*
X8660000Y-9990000D02*
X8680000Y-10010000D01*
X8680000Y-9990000D02*
X8660000Y-10010000D01*
X8685000Y-9905000D02*
X8705000Y-9925000D01*
X8705000Y-9905000D02*
X8685000Y-9925000D01*
X8710000Y-10190000D02*
X8730000Y-10210000D01*
X8730000Y-10190000D02*
X8710000Y-10210000D01*
X8840000Y-8915000D02*
X8860000Y-8935000D01*
X8860000Y-8915000D02*
X8840000Y-8935000D01*
X8860000Y-9290000D02*
X8880000Y-9310000D01*
X8880000Y-9290000D02*
X8860000Y-9310000D01*
X8878950Y-10490000D02*
X8898950Y-10510000D01*
X8898950Y-10490000D02*
X8878950Y-10510000D01*
X8880757Y-10356214D02*
X8900757Y-10376214D01*
X8900757Y-10356214D02*
X8880757Y-10376214D01*
X8894703Y-10261021D02*
X8914703Y-10281021D01*
X8914703Y-10261021D02*
X8894703Y-10281021D01*
X8950000Y-9725000D02*
X8970000Y-9745000D01*
X8970000Y-9725000D02*
X8950000Y-9745000D01*
X8955000Y-11040000D02*
X8975000Y-11060000D01*
X8975000Y-11040000D02*
X8955000Y-11060000D01*
X8956000Y-11315000D02*
X8976000Y-11335000D01*
X8976000Y-11315000D02*
X8956000Y-11335000D01*
X9015000Y-9972500D02*
X9035000Y-9992500D01*
X9035000Y-9972500D02*
X9015000Y-9992500D01*
X9016000Y-11100000D02*
X9036000Y-11120000D01*
X9036000Y-11100000D02*
X9016000Y-11120000D01*
X9055000Y-10725000D02*
X9075000Y-10745000D01*
X9075000Y-10725000D02*
X9055000Y-10745000D01*
X9069003Y-10305000D02*
X9089003Y-10325000D01*
X9089003Y-10305000D02*
X9069003Y-10325000D01*
X9106000Y-11435000D02*
X9126000Y-11455000D01*
X9126000Y-11435000D02*
X9106000Y-11455000D01*
X9130000Y-8960000D02*
X9150000Y-8980000D01*
X9150000Y-8960000D02*
X9130000Y-8980000D01*
X9151000Y-11705000D02*
X9171000Y-11725000D01*
X9171000Y-11705000D02*
X9151000Y-11725000D01*
X9155000Y-11050000D02*
X9175000Y-11070000D01*
X9175000Y-11050000D02*
X9155000Y-11070000D01*
X9270000Y-9020000D02*
X9290000Y-9040000D01*
X9290000Y-9020000D02*
X9270000Y-9040000D01*
X9290000Y-8570000D02*
X9310000Y-8590000D01*
X9310000Y-8570000D02*
X9290000Y-8590000D01*
X9370000Y-11370000D02*
X9390000Y-11390000D01*
X9390000Y-11370000D02*
X9370000Y-11390000D01*
X9390000Y-9010000D02*
X9410000Y-9030000D01*
X9410000Y-9010000D02*
X9390000Y-9030000D01*
X9420000Y-9735000D02*
X9440000Y-9755000D01*
X9440000Y-9735000D02*
X9420000Y-9755000D01*
X9445000Y-10865000D02*
X9465000Y-10885000D01*
X9465000Y-10865000D02*
X9445000Y-10885000D01*
X9485000Y-10990000D02*
X9505000Y-11010000D01*
X9505000Y-10990000D02*
X9485000Y-11010000D01*
X9515000Y-9995000D02*
X9535000Y-10015000D01*
X9535000Y-9995000D02*
X9515000Y-10015000D01*
X9520000Y-9090000D02*
X9540000Y-9110000D01*
X9540000Y-9090000D02*
X9520000Y-9110000D01*
X9535000Y-10140000D02*
X9555000Y-10160000D01*
X9555000Y-10140000D02*
X9535000Y-10160000D01*
X9550000Y-9735000D02*
X9570000Y-9755000D01*
X9570000Y-9735000D02*
X9550000Y-9755000D01*
X9560000Y-9490000D02*
X9580000Y-9510000D01*
X9580000Y-9490000D02*
X9560000Y-9510000D01*
X9565000Y-9610000D02*
X9585000Y-9630000D01*
X9585000Y-9610000D02*
X9565000Y-9630000D01*
X9580000Y-10800000D02*
X9600000Y-10820000D01*
X9600000Y-10800000D02*
X9580000Y-10820000D01*
X9585000Y-10040000D02*
X9605000Y-10060000D01*
X9605000Y-10040000D02*
X9585000Y-10060000D01*
X9605000Y-9795000D02*
X9625000Y-9815000D01*
X9625000Y-9795000D02*
X9605000Y-9815000D01*
X9610000Y-10185000D02*
X9630000Y-10205000D01*
X9630000Y-10185000D02*
X9610000Y-10205000D01*
X9660000Y-11305000D02*
X9680000Y-11325000D01*
X9680000Y-11305000D02*
X9660000Y-11325000D01*
X9675000Y-8760000D02*
X9695000Y-8780000D01*
X9695000Y-8760000D02*
X9675000Y-8780000D01*
X9675000Y-10250000D02*
X9695000Y-10270000D01*
X9695000Y-10250000D02*
X9675000Y-10270000D01*
X9680000Y-9175050D02*
X9700000Y-9195050D01*
X9700000Y-9175050D02*
X9680000Y-9195050D01*
X9680000Y-10340000D02*
X9700000Y-10360000D01*
X9700000Y-10340000D02*
X9680000Y-10360000D01*
X9710000Y-9330000D02*
X9730000Y-9350000D01*
X9730000Y-9330000D02*
X9710000Y-9350000D01*
X9730000Y-9430000D02*
X9750000Y-9450000D01*
X9750000Y-9430000D02*
X9730000Y-9450000D01*
X9730000Y-10515000D02*
X9750000Y-10535000D01*
X9750000Y-10515000D02*
X9730000Y-10535000D01*
X9735000Y-11415000D02*
X9755000Y-11435000D01*
X9755000Y-11415000D02*
X9735000Y-11435000D01*
X9750000Y-9240000D02*
X9770000Y-9260000D01*
X9770000Y-9240000D02*
X9750000Y-9260000D01*
X9760000Y-10695000D02*
X9780000Y-10715000D01*
X9780000Y-10695000D02*
X9760000Y-10715000D01*
X9765000Y-6890000D02*
X9785000Y-6910000D01*
X9785000Y-6890000D02*
X9765000Y-6910000D01*
X9785000Y-10450000D02*
X9805000Y-10470000D01*
X9805000Y-10450000D02*
X9785000Y-10470000D01*
X9820000Y-9900000D02*
X9840000Y-9920000D01*
X9840000Y-9900000D02*
X9820000Y-9920000D01*
X9830000Y-10570000D02*
X9850000Y-10590000D01*
X9850000Y-10570000D02*
X9830000Y-10590000D01*
X9865000Y-10710000D02*
X9885000Y-10730000D01*
X9885000Y-10710000D02*
X9865000Y-10730000D01*
X9910000Y-10630000D02*
X9930000Y-10650000D01*
X9930000Y-10630000D02*
X9910000Y-10650000D01*
X9910000Y-11415000D02*
X9930000Y-11435000D01*
X9930000Y-11415000D02*
X9910000Y-11435000D01*
X10010000Y-10615000D02*
X10030000Y-10635000D01*
X10030000Y-10615000D02*
X10010000Y-10635000D01*
X10030000Y-11240000D02*
X10050000Y-11260000D01*
X10050000Y-11240000D02*
X10030000Y-11260000D01*
X10035000Y-11590000D02*
X10055000Y-11610000D01*
X10055000Y-11590000D02*
X10035000Y-11610000D01*
X10055000Y-10370000D02*
X10075000Y-10390000D01*
X10075000Y-10370000D02*
X10055000Y-10390000D01*
X10085000Y-8300000D02*
X10105000Y-8320000D01*
X10105000Y-8300000D02*
X10085000Y-8320000D01*
X10190000Y-8570000D02*
X10210000Y-8590000D01*
X10210000Y-8570000D02*
X10190000Y-8590000D01*
X10220000Y-11060000D02*
X10240000Y-11080000D01*
X10240000Y-11060000D02*
X10220000Y-11080000D01*
X10230000Y-10200000D02*
X10250000Y-10220000D01*
X10250000Y-10200000D02*
X10230000Y-10220000D01*
X10480000Y-8640000D02*
X10500000Y-8660000D01*
X10500000Y-8640000D02*
X10480000Y-8660000D01*
X10690000Y-7520000D02*
X10710000Y-7540000D01*
X10710000Y-7520000D02*
X10690000Y-7540000D01*
X11220000Y-8370000D02*
X11240000Y-8390000D01*
X11240000Y-8370000D02*
X11220000Y-8390000D01*
X11220000Y-8665000D02*
X11240000Y-8685000D01*
X11240000Y-8665000D02*
X11220000Y-8685000D01*
X11235000Y-10640000D02*
X11255000Y-10660000D01*
X11255000Y-10640000D02*
X11235000Y-10660000D01*
X11285000Y-9890000D02*
X11305000Y-9910000D01*
X11305000Y-9890000D02*
X11285000Y-9910000D01*
X11285000Y-11415000D02*
X11305000Y-11435000D01*
X11305000Y-11415000D02*
X11285000Y-11435000D01*
X11285000Y-11515000D02*
X11305000Y-11535000D01*
X11305000Y-11515000D02*
X11285000Y-11535000D01*
X11294918Y-9094950D02*
X11314918Y-9114950D01*
X11314918Y-9094950D02*
X11294918Y-9114950D01*
X11310000Y-10590000D02*
X11330000Y-10610000D01*
X11330000Y-10590000D02*
X11310000Y-10610000D01*
X11330000Y-8960000D02*
X11350000Y-8980000D01*
X11350000Y-8960000D02*
X11330000Y-8980000D01*
X11335000Y-10065000D02*
X11355000Y-10085000D01*
X11355000Y-10065000D02*
X11335000Y-10085000D01*
X11590000Y-9320000D02*
X11610000Y-9340000D01*
X11610000Y-9320000D02*
X11590000Y-9340000D01*
X11710000Y-9320000D02*
X11730000Y-9340000D01*
X11730000Y-9320000D02*
X11710000Y-9340000D01*
X11810000Y-9320000D02*
X11830000Y-9340000D01*
X11830000Y-9320000D02*
X11810000Y-9340000D01*
X13484090Y-8650000D02*
X13504090Y-8670000D01*
X13504090Y-8650000D02*
X13484090Y-8670000D01*
X13484090Y-8725000D02*
X13504090Y-8745000D01*
X13504090Y-8725000D02*
X13484090Y-8745000D01*
X13484090Y-8800000D02*
X13504090Y-8820000D01*
X13504090Y-8800000D02*
X13484090Y-8820000D01*
X13484090Y-8875000D02*
X13504090Y-8895000D01*
X13504090Y-8875000D02*
X13484090Y-8895000D01*
X13484090Y-8950000D02*
X13504090Y-8970000D01*
X13504090Y-8950000D02*
X13484090Y-8970000D01*
X13484090Y-11728000D02*
X13504090Y-11748000D01*
X13504090Y-11728000D02*
X13484090Y-11748000D01*
X13484090Y-11803000D02*
X13504090Y-11823000D01*
X13504090Y-11803000D02*
X13484090Y-11823000D01*
X13484090Y-11878000D02*
X13504090Y-11898000D01*
X13504090Y-11878000D02*
X13484090Y-11898000D01*
X13484090Y-11953000D02*
X13504090Y-11973000D01*
X13504090Y-11953000D02*
X13484090Y-11973000D01*
X13484090Y-12028000D02*
X13504090Y-12048000D01*
X13504090Y-12028000D02*
X13484090Y-12048000D01*
X13495000Y-7807000D02*
X13515000Y-7827000D01*
X13515000Y-7807000D02*
X13495000Y-7827000D01*
X13495000Y-7882000D02*
X13515000Y-7902000D01*
X13515000Y-7882000D02*
X13495000Y-7902000D01*
X13495000Y-7957000D02*
X13515000Y-7977000D01*
X13515000Y-7957000D02*
X13495000Y-7977000D01*
X13495000Y-8032000D02*
X13515000Y-8052000D01*
X13515000Y-8032000D02*
X13495000Y-8052000D01*
X13495000Y-8107000D02*
X13515000Y-8127000D01*
X13515000Y-8107000D02*
X13495000Y-8127000D01*
X13495000Y-10885000D02*
X13515000Y-10905000D01*
X13515000Y-10885000D02*
X13495000Y-10905000D01*
X13495000Y-10960000D02*
X13515000Y-10980000D01*
X13515000Y-10960000D02*
X13495000Y-10980000D01*
X13495000Y-11035000D02*
X13515000Y-11055000D01*
X13515000Y-11035000D02*
X13495000Y-11055000D01*
X13495000Y-11110000D02*
X13515000Y-11130000D01*
X13515000Y-11110000D02*
X13495000Y-11130000D01*
X13495000Y-11185000D02*
X13515000Y-11205000D01*
X13515000Y-11185000D02*
X13495000Y-11205000D01*
X13520000Y-6972000D02*
X13540000Y-6992000D01*
X13540000Y-6972000D02*
X13520000Y-6992000D01*
X13520000Y-7047000D02*
X13540000Y-7067000D01*
X13540000Y-7047000D02*
X13520000Y-7067000D01*
X13520000Y-7122000D02*
X13540000Y-7142000D01*
X13540000Y-7122000D02*
X13520000Y-7142000D01*
X13520000Y-7197000D02*
X13540000Y-7217000D01*
X13540000Y-7197000D02*
X13520000Y-7217000D01*
X13520000Y-7272000D02*
X13540000Y-7292000D01*
X13540000Y-7272000D02*
X13520000Y-7292000D01*
X13520000Y-10040000D02*
X13540000Y-10060000D01*
X13540000Y-10040000D02*
X13520000Y-10060000D01*
X13520000Y-10115000D02*
X13540000Y-10135000D01*
X13540000Y-10115000D02*
X13520000Y-10135000D01*
X13520000Y-10190000D02*
X13540000Y-10210000D01*
X13540000Y-10190000D02*
X13520000Y-10210000D01*
X13520000Y-10265000D02*
X13540000Y-10285000D01*
X13540000Y-10265000D02*
X13520000Y-10285000D01*
X13520000Y-10340000D02*
X13540000Y-10360000D01*
X13540000Y-10340000D02*
X13520000Y-10360000D01*
X13559090Y-8650000D02*
X13579090Y-8670000D01*
X13579090Y-8650000D02*
X13559090Y-8670000D01*
X13559090Y-8725000D02*
X13579090Y-8745000D01*
X13579090Y-8725000D02*
X13559090Y-8745000D01*
X13559090Y-8800000D02*
X13579090Y-8820000D01*
X13579090Y-8800000D02*
X13559090Y-8820000D01*
X13559090Y-8875000D02*
X13579090Y-8895000D01*
X13579090Y-8875000D02*
X13559090Y-8895000D01*
X13559090Y-8950000D02*
X13579090Y-8970000D01*
X13579090Y-8950000D02*
X13559090Y-8970000D01*
X13559090Y-11728000D02*
X13579090Y-11748000D01*
X13579090Y-11728000D02*
X13559090Y-11748000D01*
X13559090Y-11803000D02*
X13579090Y-11823000D01*
X13579090Y-11803000D02*
X13559090Y-11823000D01*
X13559090Y-11878000D02*
X13579090Y-11898000D01*
X13579090Y-11878000D02*
X13559090Y-11898000D01*
X13559090Y-11953000D02*
X13579090Y-11973000D01*
X13579090Y-11953000D02*
X13559090Y-11973000D01*
X13559090Y-12028000D02*
X13579090Y-12048000D01*
X13579090Y-12028000D02*
X13559090Y-12048000D01*
X13570000Y-7807000D02*
X13590000Y-7827000D01*
X13590000Y-7807000D02*
X13570000Y-7827000D01*
X13570000Y-7882000D02*
X13590000Y-7902000D01*
X13590000Y-7882000D02*
X13570000Y-7902000D01*
X13570000Y-7957000D02*
X13590000Y-7977000D01*
X13590000Y-7957000D02*
X13570000Y-7977000D01*
X13570000Y-8032000D02*
X13590000Y-8052000D01*
X13590000Y-8032000D02*
X13570000Y-8052000D01*
X13570000Y-8107000D02*
X13590000Y-8127000D01*
X13590000Y-8107000D02*
X13570000Y-8127000D01*
X13570000Y-10885000D02*
X13590000Y-10905000D01*
X13590000Y-10885000D02*
X13570000Y-10905000D01*
X13570000Y-10960000D02*
X13590000Y-10980000D01*
X13590000Y-10960000D02*
X13570000Y-10980000D01*
X13570000Y-11035000D02*
X13590000Y-11055000D01*
X13590000Y-11035000D02*
X13570000Y-11055000D01*
X13570000Y-11110000D02*
X13590000Y-11130000D01*
X13590000Y-11110000D02*
X13570000Y-11130000D01*
X13570000Y-11185000D02*
X13590000Y-11205000D01*
X13590000Y-11185000D02*
X13570000Y-11205000D01*
X13595000Y-6972000D02*
X13615000Y-6992000D01*
X13615000Y-6972000D02*
X13595000Y-6992000D01*
X13595000Y-7047000D02*
X13615000Y-7067000D01*
X13615000Y-7047000D02*
X13595000Y-7067000D01*
X13595000Y-7122000D02*
X13615000Y-7142000D01*
X13615000Y-7122000D02*
X13595000Y-7142000D01*
X13595000Y-7197000D02*
X13615000Y-7217000D01*
X13615000Y-7197000D02*
X13595000Y-7217000D01*
X13595000Y-7272000D02*
X13615000Y-7292000D01*
X13615000Y-7272000D02*
X13595000Y-7292000D01*
X13595000Y-10040000D02*
X13615000Y-10060000D01*
X13615000Y-10040000D02*
X13595000Y-10060000D01*
X13595000Y-10115000D02*
X13615000Y-10135000D01*
X13615000Y-10115000D02*
X13595000Y-10135000D01*
X13595000Y-10190000D02*
X13615000Y-10210000D01*
X13615000Y-10190000D02*
X13595000Y-10210000D01*
X13595000Y-10265000D02*
X13615000Y-10285000D01*
X13615000Y-10265000D02*
X13595000Y-10285000D01*
X13595000Y-10340000D02*
X13615000Y-10360000D01*
X13615000Y-10340000D02*
X13595000Y-10360000D01*
X13634090Y-8650000D02*
X13654090Y-8670000D01*
X13654090Y-8650000D02*
X13634090Y-8670000D01*
X13634090Y-8725000D02*
X13654090Y-8745000D01*
X13654090Y-8725000D02*
X13634090Y-8745000D01*
X13634090Y-8800000D02*
X13654090Y-8820000D01*
X13654090Y-8800000D02*
X13634090Y-8820000D01*
X13634090Y-8875000D02*
X13654090Y-8895000D01*
X13654090Y-8875000D02*
X13634090Y-8895000D01*
X13634090Y-8950000D02*
X13654090Y-8970000D01*
X13654090Y-8950000D02*
X13634090Y-8970000D01*
X13634090Y-11728000D02*
X13654090Y-11748000D01*
X13654090Y-11728000D02*
X13634090Y-11748000D01*
X13634090Y-11803000D02*
X13654090Y-11823000D01*
X13654090Y-11803000D02*
X13634090Y-11823000D01*
X13634090Y-11878000D02*
X13654090Y-11898000D01*
X13654090Y-11878000D02*
X13634090Y-11898000D01*
X13634090Y-11953000D02*
X13654090Y-11973000D01*
X13654090Y-11953000D02*
X13634090Y-11973000D01*
X13634090Y-12028000D02*
X13654090Y-12048000D01*
X13654090Y-12028000D02*
X13634090Y-12048000D01*
X13645000Y-7807000D02*
X13665000Y-7827000D01*
X13665000Y-7807000D02*
X13645000Y-7827000D01*
X13645000Y-7882000D02*
X13665000Y-7902000D01*
X13665000Y-7882000D02*
X13645000Y-7902000D01*
X13645000Y-8107000D02*
X13665000Y-8127000D01*
X13665000Y-8107000D02*
X13645000Y-8127000D01*
X13645000Y-10885000D02*
X13665000Y-10905000D01*
X13665000Y-10885000D02*
X13645000Y-10905000D01*
X13645000Y-10960000D02*
X13665000Y-10980000D01*
X13665000Y-10960000D02*
X13645000Y-10980000D01*
X13645000Y-11185000D02*
X13665000Y-11205000D01*
X13665000Y-11185000D02*
X13645000Y-11205000D01*
X13646230Y-7957000D02*
X13666230Y-7977000D01*
X13666230Y-7957000D02*
X13646230Y-7977000D01*
X13646230Y-8032000D02*
X13666230Y-8052000D01*
X13666230Y-8032000D02*
X13646230Y-8052000D01*
X13646230Y-11035000D02*
X13666230Y-11055000D01*
X13666230Y-11035000D02*
X13646230Y-11055000D01*
X13646230Y-11110000D02*
X13666230Y-11130000D01*
X13666230Y-11110000D02*
X13646230Y-11130000D01*
X13668230Y-7047000D02*
X13688230Y-7067000D01*
X13688230Y-7047000D02*
X13668230Y-7067000D01*
X13668230Y-7122000D02*
X13688230Y-7142000D01*
X13688230Y-7122000D02*
X13668230Y-7142000D01*
X13668230Y-10115000D02*
X13688230Y-10135000D01*
X13688230Y-10115000D02*
X13668230Y-10135000D01*
X13668230Y-10190000D02*
X13688230Y-10210000D01*
X13688230Y-10190000D02*
X13668230Y-10210000D01*
X13670000Y-6972000D02*
X13690000Y-6992000D01*
X13690000Y-6972000D02*
X13670000Y-6992000D01*
X13670000Y-7197000D02*
X13690000Y-7217000D01*
X13690000Y-7197000D02*
X13670000Y-7217000D01*
X13670000Y-7272000D02*
X13690000Y-7292000D01*
X13690000Y-7272000D02*
X13670000Y-7292000D01*
X13670000Y-10040000D02*
X13690000Y-10060000D01*
X13690000Y-10040000D02*
X13670000Y-10060000D01*
X13670000Y-10265000D02*
X13690000Y-10285000D01*
X13690000Y-10265000D02*
X13670000Y-10285000D01*
X13670000Y-10340000D02*
X13690000Y-10360000D01*
X13690000Y-10340000D02*
X13670000Y-10360000D01*
X13709090Y-8650000D02*
X13729090Y-8670000D01*
X13729090Y-8650000D02*
X13709090Y-8670000D01*
X13709090Y-8725000D02*
X13729090Y-8745000D01*
X13729090Y-8725000D02*
X13709090Y-8745000D01*
X13709090Y-8800000D02*
X13729090Y-8820000D01*
X13729090Y-8800000D02*
X13709090Y-8820000D01*
X13709090Y-8875000D02*
X13729090Y-8895000D01*
X13729090Y-8875000D02*
X13709090Y-8895000D01*
X13709090Y-8950000D02*
X13729090Y-8970000D01*
X13729090Y-8950000D02*
X13709090Y-8970000D01*
X13709090Y-11728000D02*
X13729090Y-11748000D01*
X13729090Y-11728000D02*
X13709090Y-11748000D01*
X13709090Y-11803000D02*
X13729090Y-11823000D01*
X13729090Y-11803000D02*
X13709090Y-11823000D01*
X13709090Y-11878000D02*
X13729090Y-11898000D01*
X13729090Y-11878000D02*
X13709090Y-11898000D01*
X13709090Y-11953000D02*
X13729090Y-11973000D01*
X13729090Y-11953000D02*
X13709090Y-11973000D01*
X13709090Y-12028000D02*
X13729090Y-12048000D01*
X13729090Y-12028000D02*
X13709090Y-12048000D01*
X13720000Y-7807000D02*
X13740000Y-7827000D01*
X13740000Y-7807000D02*
X13720000Y-7827000D01*
X13720000Y-7882000D02*
X13740000Y-7902000D01*
X13740000Y-7882000D02*
X13720000Y-7902000D01*
X13720000Y-7957000D02*
X13740000Y-7977000D01*
X13740000Y-7957000D02*
X13720000Y-7977000D01*
X13720000Y-8032000D02*
X13740000Y-8052000D01*
X13740000Y-8032000D02*
X13720000Y-8052000D01*
X13720000Y-8107000D02*
X13740000Y-8127000D01*
X13740000Y-8107000D02*
X13720000Y-8127000D01*
X13720000Y-10885000D02*
X13740000Y-10905000D01*
X13740000Y-10885000D02*
X13720000Y-10905000D01*
X13720000Y-10960000D02*
X13740000Y-10980000D01*
X13740000Y-10960000D02*
X13720000Y-10980000D01*
X13720000Y-11035000D02*
X13740000Y-11055000D01*
X13740000Y-11035000D02*
X13720000Y-11055000D01*
X13720000Y-11110000D02*
X13740000Y-11130000D01*
X13740000Y-11110000D02*
X13720000Y-11130000D01*
X13720000Y-11185000D02*
X13740000Y-11205000D01*
X13740000Y-11185000D02*
X13720000Y-11205000D01*
X13745000Y-6972000D02*
X13765000Y-6992000D01*
X13765000Y-6972000D02*
X13745000Y-6992000D01*
X13745000Y-7047000D02*
X13765000Y-7067000D01*
X13765000Y-7047000D02*
X13745000Y-7067000D01*
X13745000Y-7122000D02*
X13765000Y-7142000D01*
X13765000Y-7122000D02*
X13745000Y-7142000D01*
X13745000Y-7197000D02*
X13765000Y-7217000D01*
X13765000Y-7197000D02*
X13745000Y-7217000D01*
X13745000Y-7272000D02*
X13765000Y-7292000D01*
X13765000Y-7272000D02*
X13745000Y-7292000D01*
X13745000Y-10040000D02*
X13765000Y-10060000D01*
X13765000Y-10040000D02*
X13745000Y-10060000D01*
X13745000Y-10115000D02*
X13765000Y-10135000D01*
X13765000Y-10115000D02*
X13745000Y-10135000D01*
X13745000Y-10190000D02*
X13765000Y-10210000D01*
X13765000Y-10190000D02*
X13745000Y-10210000D01*
X13745000Y-10265000D02*
X13765000Y-10285000D01*
X13765000Y-10265000D02*
X13745000Y-10285000D01*
X13745000Y-10340000D02*
X13765000Y-10360000D01*
X13765000Y-10340000D02*
X13745000Y-10360000D01*
X13845000Y-9965000D02*
X13865000Y-9985000D01*
X13865000Y-9965000D02*
X13845000Y-9985000D01*
X13930000Y-11565000D02*
X13950000Y-11585000D01*
X13950000Y-11565000D02*
X13930000Y-11585000D01*
X13935000Y-8465000D02*
X13955000Y-8485000D01*
X13955000Y-8465000D02*
X13935000Y-8485000D01*
X13935000Y-10740000D02*
X13955000Y-10760000D01*
X13955000Y-10740000D02*
X13935000Y-10760000D01*
X13940000Y-7635000D02*
X13960000Y-7655000D01*
X13960000Y-7635000D02*
X13940000Y-7655000D01*
X14063090Y-11731140D02*
X14083090Y-11751140D01*
X14083090Y-11731140D02*
X14063090Y-11751140D01*
X14063090Y-11806140D02*
X14083090Y-11826140D01*
X14083090Y-11806140D02*
X14063090Y-11826140D01*
X14063090Y-11881140D02*
X14083090Y-11901140D01*
X14083090Y-11881140D02*
X14063090Y-11901140D01*
X14063090Y-11956140D02*
X14083090Y-11976140D01*
X14083090Y-11956140D02*
X14063090Y-11976140D01*
X14063090Y-12031140D02*
X14083090Y-12051140D01*
X14083090Y-12031140D02*
X14063090Y-12051140D01*
X14065000Y-9095000D02*
X14085000Y-9115000D01*
X14085000Y-9095000D02*
X14065000Y-9115000D01*
X14068090Y-6973140D02*
X14088090Y-6993140D01*
X14088090Y-6973140D02*
X14068090Y-6993140D01*
X14068090Y-7048140D02*
X14088090Y-7068140D01*
X14088090Y-7048140D02*
X14068090Y-7068140D01*
X14068090Y-7123140D02*
X14088090Y-7143140D01*
X14088090Y-7123140D02*
X14068090Y-7143140D01*
X14068090Y-7198140D02*
X14088090Y-7218140D01*
X14088090Y-7198140D02*
X14068090Y-7218140D01*
X14068090Y-7273140D02*
X14088090Y-7293140D01*
X14088090Y-7273140D02*
X14068090Y-7293140D01*
X14068090Y-7808140D02*
X14088090Y-7828140D01*
X14088090Y-7808140D02*
X14068090Y-7828140D01*
X14068090Y-7883140D02*
X14088090Y-7903140D01*
X14088090Y-7883140D02*
X14068090Y-7903140D01*
X14068090Y-7958140D02*
X14088090Y-7978140D01*
X14088090Y-7958140D02*
X14068090Y-7978140D01*
X14068090Y-8033140D02*
X14088090Y-8053140D01*
X14088090Y-8033140D02*
X14068090Y-8053140D01*
X14068090Y-8108140D02*
X14088090Y-8128140D01*
X14088090Y-8108140D02*
X14068090Y-8128140D01*
X14068090Y-8653140D02*
X14088090Y-8673140D01*
X14088090Y-8653140D02*
X14068090Y-8673140D01*
X14068090Y-8728140D02*
X14088090Y-8748140D01*
X14088090Y-8728140D02*
X14068090Y-8748140D01*
X14068090Y-8803140D02*
X14088090Y-8823140D01*
X14088090Y-8803140D02*
X14068090Y-8823140D01*
X14068090Y-8878140D02*
X14088090Y-8898140D01*
X14088090Y-8878140D02*
X14068090Y-8898140D01*
X14068090Y-8953140D02*
X14088090Y-8973140D01*
X14088090Y-8953140D02*
X14068090Y-8973140D01*
X14068090Y-10036140D02*
X14088090Y-10056140D01*
X14088090Y-10036140D02*
X14068090Y-10056140D01*
X14068090Y-10111140D02*
X14088090Y-10131140D01*
X14088090Y-10111140D02*
X14068090Y-10131140D01*
X14068090Y-10186140D02*
X14088090Y-10206140D01*
X14088090Y-10186140D02*
X14068090Y-10206140D01*
X14068090Y-10261140D02*
X14088090Y-10281140D01*
X14088090Y-10261140D02*
X14068090Y-10281140D01*
X14068090Y-10336140D02*
X14088090Y-10356140D01*
X14088090Y-10336140D02*
X14068090Y-10356140D01*
X14068090Y-10886140D02*
X14088090Y-10906140D01*
X14088090Y-10886140D02*
X14068090Y-10906140D01*
X14068090Y-10961140D02*
X14088090Y-10981140D01*
X14088090Y-10961140D02*
X14068090Y-10981140D01*
X14068090Y-11036140D02*
X14088090Y-11056140D01*
X14088090Y-11036140D02*
X14068090Y-11056140D01*
X14068090Y-11111140D02*
X14088090Y-11131140D01*
X14088090Y-11111140D02*
X14068090Y-11131140D01*
X14068090Y-11186140D02*
X14088090Y-11206140D01*
X14088090Y-11186140D02*
X14068090Y-11206140D01*
X14138090Y-11731140D02*
X14158090Y-11751140D01*
X14158090Y-11731140D02*
X14138090Y-11751140D01*
X14138090Y-11806140D02*
X14158090Y-11826140D01*
X14158090Y-11806140D02*
X14138090Y-11826140D01*
X14138090Y-11881140D02*
X14158090Y-11901140D01*
X14158090Y-11881140D02*
X14138090Y-11901140D01*
X14138090Y-11956140D02*
X14158090Y-11976140D01*
X14158090Y-11956140D02*
X14138090Y-11976140D01*
X14138090Y-12031140D02*
X14158090Y-12051140D01*
X14158090Y-12031140D02*
X14138090Y-12051140D01*
X14143090Y-6973140D02*
X14163090Y-6993140D01*
X14163090Y-6973140D02*
X14143090Y-6993140D01*
X14143090Y-7048140D02*
X14163090Y-7068140D01*
X14163090Y-7048140D02*
X14143090Y-7068140D01*
X14143090Y-7123140D02*
X14163090Y-7143140D01*
X14163090Y-7123140D02*
X14143090Y-7143140D01*
X14143090Y-7198140D02*
X14163090Y-7218140D01*
X14163090Y-7198140D02*
X14143090Y-7218140D01*
X14143090Y-7273140D02*
X14163090Y-7293140D01*
X14163090Y-7273140D02*
X14143090Y-7293140D01*
X14143090Y-7808140D02*
X14163090Y-7828140D01*
X14163090Y-7808140D02*
X14143090Y-7828140D01*
X14143090Y-7883140D02*
X14163090Y-7903140D01*
X14163090Y-7883140D02*
X14143090Y-7903140D01*
X14143090Y-7958140D02*
X14163090Y-7978140D01*
X14163090Y-7958140D02*
X14143090Y-7978140D01*
X14143090Y-8033140D02*
X14163090Y-8053140D01*
X14163090Y-8033140D02*
X14143090Y-8053140D01*
X14143090Y-8108140D02*
X14163090Y-8128140D01*
X14163090Y-8108140D02*
X14143090Y-8128140D01*
X14143090Y-8653140D02*
X14163090Y-8673140D01*
X14163090Y-8653140D02*
X14143090Y-8673140D01*
X14143090Y-8728140D02*
X14163090Y-8748140D01*
X14163090Y-8728140D02*
X14143090Y-8748140D01*
X14143090Y-8803140D02*
X14163090Y-8823140D01*
X14163090Y-8803140D02*
X14143090Y-8823140D01*
X14143090Y-8878140D02*
X14163090Y-8898140D01*
X14163090Y-8878140D02*
X14143090Y-8898140D01*
X14143090Y-8953140D02*
X14163090Y-8973140D01*
X14163090Y-8953140D02*
X14143090Y-8973140D01*
X14143090Y-10036140D02*
X14163090Y-10056140D01*
X14163090Y-10036140D02*
X14143090Y-10056140D01*
X14143090Y-10111140D02*
X14163090Y-10131140D01*
X14163090Y-10111140D02*
X14143090Y-10131140D01*
X14143090Y-10186140D02*
X14163090Y-10206140D01*
X14163090Y-10186140D02*
X14143090Y-10206140D01*
X14143090Y-10261140D02*
X14163090Y-10281140D01*
X14163090Y-10261140D02*
X14143090Y-10281140D01*
X14143090Y-10336140D02*
X14163090Y-10356140D01*
X14163090Y-10336140D02*
X14143090Y-10356140D01*
X14143090Y-10886140D02*
X14163090Y-10906140D01*
X14163090Y-10886140D02*
X14143090Y-10906140D01*
X14143090Y-10961140D02*
X14163090Y-10981140D01*
X14163090Y-10961140D02*
X14143090Y-10981140D01*
X14143090Y-11036140D02*
X14163090Y-11056140D01*
X14163090Y-11036140D02*
X14143090Y-11056140D01*
X14143090Y-11111140D02*
X14163090Y-11131140D01*
X14163090Y-11111140D02*
X14143090Y-11131140D01*
X14143090Y-11186140D02*
X14163090Y-11206140D01*
X14163090Y-11186140D02*
X14143090Y-11206140D01*
X14160000Y-9635000D02*
X14180000Y-9655000D01*
X14180000Y-9635000D02*
X14160000Y-9655000D01*
X14185000Y-9080000D02*
X14205000Y-9100000D01*
X14205000Y-9080000D02*
X14185000Y-9100000D01*
X14300000Y-9775000D02*
X14320000Y-9795000D01*
X14320000Y-9775000D02*
X14300000Y-9795000D01*
X14330000Y-9095000D02*
X14350000Y-9115000D01*
X14350000Y-9095000D02*
X14330000Y-9115000D01*
X14378090Y-6970000D02*
X14398090Y-6990000D01*
X14398090Y-6970000D02*
X14378090Y-6990000D01*
X14378090Y-7045000D02*
X14398090Y-7065000D01*
X14398090Y-7045000D02*
X14378090Y-7065000D01*
X14378090Y-7120000D02*
X14398090Y-7140000D01*
X14398090Y-7120000D02*
X14378090Y-7140000D01*
X14378090Y-7195000D02*
X14398090Y-7215000D01*
X14398090Y-7195000D02*
X14378090Y-7215000D01*
X14378090Y-7270000D02*
X14398090Y-7290000D01*
X14398090Y-7270000D02*
X14378090Y-7290000D01*
X14378090Y-8650000D02*
X14398090Y-8670000D01*
X14398090Y-8650000D02*
X14378090Y-8670000D01*
X14378090Y-8725000D02*
X14398090Y-8745000D01*
X14398090Y-8725000D02*
X14378090Y-8745000D01*
X14378090Y-8800000D02*
X14398090Y-8820000D01*
X14398090Y-8800000D02*
X14378090Y-8820000D01*
X14378090Y-8875000D02*
X14398090Y-8895000D01*
X14398090Y-8875000D02*
X14378090Y-8895000D01*
X14378090Y-8950000D02*
X14398090Y-8970000D01*
X14398090Y-8950000D02*
X14378090Y-8970000D01*
X14378090Y-10038000D02*
X14398090Y-10058000D01*
X14398090Y-10038000D02*
X14378090Y-10058000D01*
X14378090Y-10113000D02*
X14398090Y-10133000D01*
X14398090Y-10113000D02*
X14378090Y-10133000D01*
X14378090Y-10188000D02*
X14398090Y-10208000D01*
X14398090Y-10188000D02*
X14378090Y-10208000D01*
X14378090Y-10263000D02*
X14398090Y-10283000D01*
X14398090Y-10263000D02*
X14378090Y-10283000D01*
X14378090Y-10338000D02*
X14398090Y-10358000D01*
X14398090Y-10338000D02*
X14378090Y-10358000D01*
X14378090Y-11728000D02*
X14398090Y-11748000D01*
X14398090Y-11728000D02*
X14378090Y-11748000D01*
X14378090Y-11803000D02*
X14398090Y-11823000D01*
X14398090Y-11803000D02*
X14378090Y-11823000D01*
X14378090Y-11878000D02*
X14398090Y-11898000D01*
X14398090Y-11878000D02*
X14378090Y-11898000D01*
X14378090Y-11953000D02*
X14398090Y-11973000D01*
X14398090Y-11953000D02*
X14378090Y-11973000D01*
X14378090Y-12028000D02*
X14398090Y-12048000D01*
X14398090Y-12028000D02*
X14378090Y-12048000D01*
X14403090Y-7805000D02*
X14423090Y-7825000D01*
X14423090Y-7805000D02*
X14403090Y-7825000D01*
X14403090Y-7880000D02*
X14423090Y-7900000D01*
X14423090Y-7880000D02*
X14403090Y-7900000D01*
X14403090Y-7955000D02*
X14423090Y-7975000D01*
X14423090Y-7955000D02*
X14403090Y-7975000D01*
X14403090Y-8030000D02*
X14423090Y-8050000D01*
X14423090Y-8030000D02*
X14403090Y-8050000D01*
X14403090Y-8105000D02*
X14423090Y-8125000D01*
X14423090Y-8105000D02*
X14403090Y-8125000D01*
X14403090Y-10883000D02*
X14423090Y-10903000D01*
X14423090Y-10883000D02*
X14403090Y-10903000D01*
X14403090Y-10958000D02*
X14423090Y-10978000D01*
X14423090Y-10958000D02*
X14403090Y-10978000D01*
X14403090Y-11033000D02*
X14423090Y-11053000D01*
X14423090Y-11033000D02*
X14403090Y-11053000D01*
X14403090Y-11108000D02*
X14423090Y-11128000D01*
X14423090Y-11108000D02*
X14403090Y-11128000D01*
X14403090Y-11183000D02*
X14423090Y-11203000D01*
X14423090Y-11183000D02*
X14403090Y-11203000D01*
X14426000Y-9490000D02*
X14446000Y-9510000D01*
X14446000Y-9490000D02*
X14426000Y-9510000D01*
X14453090Y-6970000D02*
X14473090Y-6990000D01*
X14473090Y-6970000D02*
X14453090Y-6990000D01*
X14453090Y-7045000D02*
X14473090Y-7065000D01*
X14473090Y-7045000D02*
X14453090Y-7065000D01*
X14453090Y-7120000D02*
X14473090Y-7140000D01*
X14473090Y-7120000D02*
X14453090Y-7140000D01*
X14453090Y-7195000D02*
X14473090Y-7215000D01*
X14473090Y-7195000D02*
X14453090Y-7215000D01*
X14453090Y-7270000D02*
X14473090Y-7290000D01*
X14473090Y-7270000D02*
X14453090Y-7290000D01*
X14453090Y-8650000D02*
X14473090Y-8670000D01*
X14473090Y-8650000D02*
X14453090Y-8670000D01*
X14453090Y-8725000D02*
X14473090Y-8745000D01*
X14473090Y-8725000D02*
X14453090Y-8745000D01*
X14453090Y-8800000D02*
X14473090Y-8820000D01*
X14473090Y-8800000D02*
X14453090Y-8820000D01*
X14453090Y-8875000D02*
X14473090Y-8895000D01*
X14473090Y-8875000D02*
X14453090Y-8895000D01*
X14453090Y-8950000D02*
X14473090Y-8970000D01*
X14473090Y-8950000D02*
X14453090Y-8970000D01*
X14453090Y-10038000D02*
X14473090Y-10058000D01*
X14473090Y-10038000D02*
X14453090Y-10058000D01*
X14453090Y-10113000D02*
X14473090Y-10133000D01*
X14473090Y-10113000D02*
X14453090Y-10133000D01*
X14453090Y-10188000D02*
X14473090Y-10208000D01*
X14473090Y-10188000D02*
X14453090Y-10208000D01*
X14453090Y-10263000D02*
X14473090Y-10283000D01*
X14473090Y-10263000D02*
X14453090Y-10283000D01*
X14453090Y-10338000D02*
X14473090Y-10358000D01*
X14473090Y-10338000D02*
X14453090Y-10358000D01*
X14453090Y-11728000D02*
X14473090Y-11748000D01*
X14473090Y-11728000D02*
X14453090Y-11748000D01*
X14453090Y-11803000D02*
X14473090Y-11823000D01*
X14473090Y-11803000D02*
X14453090Y-11823000D01*
X14453090Y-11878000D02*
X14473090Y-11898000D01*
X14473090Y-11878000D02*
X14453090Y-11898000D01*
X14453090Y-11953000D02*
X14473090Y-11973000D01*
X14473090Y-11953000D02*
X14453090Y-11973000D01*
X14453090Y-12028000D02*
X14473090Y-12048000D01*
X14473090Y-12028000D02*
X14453090Y-12048000D01*
X14478090Y-7805000D02*
X14498090Y-7825000D01*
X14498090Y-7805000D02*
X14478090Y-7825000D01*
X14478090Y-7880000D02*
X14498090Y-7900000D01*
X14498090Y-7880000D02*
X14478090Y-7900000D01*
X14478090Y-7955000D02*
X14498090Y-7975000D01*
X14498090Y-7955000D02*
X14478090Y-7975000D01*
X14478090Y-8030000D02*
X14498090Y-8050000D01*
X14498090Y-8030000D02*
X14478090Y-8050000D01*
X14478090Y-8105000D02*
X14498090Y-8125000D01*
X14498090Y-8105000D02*
X14478090Y-8125000D01*
X14478090Y-10883000D02*
X14498090Y-10903000D01*
X14498090Y-10883000D02*
X14478090Y-10903000D01*
X14478090Y-10958000D02*
X14498090Y-10978000D01*
X14498090Y-10958000D02*
X14478090Y-10978000D01*
X14478090Y-11033000D02*
X14498090Y-11053000D01*
X14498090Y-11033000D02*
X14478090Y-11053000D01*
X14478090Y-11108000D02*
X14498090Y-11128000D01*
X14498090Y-11108000D02*
X14478090Y-11128000D01*
X14478090Y-11183000D02*
X14498090Y-11203000D01*
X14498090Y-11183000D02*
X14478090Y-11203000D01*
X14528090Y-6970000D02*
X14548090Y-6990000D01*
X14548090Y-6970000D02*
X14528090Y-6990000D01*
X14528090Y-7045000D02*
X14548090Y-7065000D01*
X14548090Y-7045000D02*
X14528090Y-7065000D01*
X14528090Y-7120000D02*
X14548090Y-7140000D01*
X14548090Y-7120000D02*
X14528090Y-7140000D01*
X14528090Y-7195000D02*
X14548090Y-7215000D01*
X14548090Y-7195000D02*
X14528090Y-7215000D01*
X14528090Y-7270000D02*
X14548090Y-7290000D01*
X14548090Y-7270000D02*
X14528090Y-7290000D01*
X14528090Y-8650000D02*
X14548090Y-8670000D01*
X14548090Y-8650000D02*
X14528090Y-8670000D01*
X14528090Y-8725000D02*
X14548090Y-8745000D01*
X14548090Y-8725000D02*
X14528090Y-8745000D01*
X14528090Y-8800000D02*
X14548090Y-8820000D01*
X14548090Y-8800000D02*
X14528090Y-8820000D01*
X14528090Y-8875000D02*
X14548090Y-8895000D01*
X14548090Y-8875000D02*
X14528090Y-8895000D01*
X14528090Y-8950000D02*
X14548090Y-8970000D01*
X14548090Y-8950000D02*
X14528090Y-8970000D01*
X14528090Y-10038000D02*
X14548090Y-10058000D01*
X14548090Y-10038000D02*
X14528090Y-10058000D01*
X14528090Y-10113000D02*
X14548090Y-10133000D01*
X14548090Y-10113000D02*
X14528090Y-10133000D01*
X14528090Y-10188000D02*
X14548090Y-10208000D01*
X14548090Y-10188000D02*
X14528090Y-10208000D01*
X14528090Y-10263000D02*
X14548090Y-10283000D01*
X14548090Y-10263000D02*
X14528090Y-10283000D01*
X14528090Y-10338000D02*
X14548090Y-10358000D01*
X14548090Y-10338000D02*
X14528090Y-10358000D01*
X14528090Y-11728000D02*
X14548090Y-11748000D01*
X14548090Y-11728000D02*
X14528090Y-11748000D01*
X14528090Y-11803000D02*
X14548090Y-11823000D01*
X14548090Y-11803000D02*
X14528090Y-11823000D01*
X14528090Y-11878000D02*
X14548090Y-11898000D01*
X14548090Y-11878000D02*
X14528090Y-11898000D01*
X14528090Y-11953000D02*
X14548090Y-11973000D01*
X14548090Y-11953000D02*
X14528090Y-11973000D01*
X14528090Y-12028000D02*
X14548090Y-12048000D01*
X14548090Y-12028000D02*
X14528090Y-12048000D01*
X14553090Y-7805000D02*
X14573090Y-7825000D01*
X14573090Y-7805000D02*
X14553090Y-7825000D01*
X14553090Y-7880000D02*
X14573090Y-7900000D01*
X14573090Y-7880000D02*
X14553090Y-7900000D01*
X14553090Y-7955000D02*
X14573090Y-7975000D01*
X14573090Y-7955000D02*
X14553090Y-7975000D01*
X14553090Y-8030000D02*
X14573090Y-8050000D01*
X14573090Y-8030000D02*
X14553090Y-8050000D01*
X14553090Y-8105000D02*
X14573090Y-8125000D01*
X14573090Y-8105000D02*
X14553090Y-8125000D01*
X14553090Y-10883000D02*
X14573090Y-10903000D01*
X14573090Y-10883000D02*
X14553090Y-10903000D01*
X14553090Y-10958000D02*
X14573090Y-10978000D01*
X14573090Y-10958000D02*
X14553090Y-10978000D01*
X14553090Y-11033000D02*
X14573090Y-11053000D01*
X14573090Y-11033000D02*
X14553090Y-11053000D01*
X14553090Y-11108000D02*
X14573090Y-11128000D01*
X14573090Y-11108000D02*
X14553090Y-11128000D01*
X14553090Y-11183000D02*
X14573090Y-11203000D01*
X14573090Y-11183000D02*
X14553090Y-11203000D01*
X14603090Y-6970000D02*
X14623090Y-6990000D01*
X14623090Y-6970000D02*
X14603090Y-6990000D01*
X14603090Y-7045000D02*
X14623090Y-7065000D01*
X14623090Y-7045000D02*
X14603090Y-7065000D01*
X14603090Y-7120000D02*
X14623090Y-7140000D01*
X14623090Y-7120000D02*
X14603090Y-7140000D01*
X14603090Y-7195000D02*
X14623090Y-7215000D01*
X14623090Y-7195000D02*
X14603090Y-7215000D01*
X14603090Y-7270000D02*
X14623090Y-7290000D01*
X14623090Y-7270000D02*
X14603090Y-7290000D01*
X14603090Y-8650000D02*
X14623090Y-8670000D01*
X14623090Y-8650000D02*
X14603090Y-8670000D01*
X14603090Y-8725000D02*
X14623090Y-8745000D01*
X14623090Y-8725000D02*
X14603090Y-8745000D01*
X14603090Y-8800000D02*
X14623090Y-8820000D01*
X14623090Y-8800000D02*
X14603090Y-8820000D01*
X14603090Y-8875000D02*
X14623090Y-8895000D01*
X14623090Y-8875000D02*
X14603090Y-8895000D01*
X14603090Y-8950000D02*
X14623090Y-8970000D01*
X14623090Y-8950000D02*
X14603090Y-8970000D01*
X14603090Y-10038000D02*
X14623090Y-10058000D01*
X14623090Y-10038000D02*
X14603090Y-10058000D01*
X14603090Y-10113000D02*
X14623090Y-10133000D01*
X14623090Y-10113000D02*
X14603090Y-10133000D01*
X14603090Y-10188000D02*
X14623090Y-10208000D01*
X14623090Y-10188000D02*
X14603090Y-10208000D01*
X14603090Y-10263000D02*
X14623090Y-10283000D01*
X14623090Y-10263000D02*
X14603090Y-10283000D01*
X14603090Y-10338000D02*
X14623090Y-10358000D01*
X14623090Y-10338000D02*
X14603090Y-10358000D01*
X14603090Y-11728000D02*
X14623090Y-11748000D01*
X14623090Y-11728000D02*
X14603090Y-11748000D01*
X14603090Y-11803000D02*
X14623090Y-11823000D01*
X14623090Y-11803000D02*
X14603090Y-11823000D01*
X14603090Y-11878000D02*
X14623090Y-11898000D01*
X14623090Y-11878000D02*
X14603090Y-11898000D01*
X14603090Y-11953000D02*
X14623090Y-11973000D01*
X14623090Y-11953000D02*
X14603090Y-11973000D01*
X14603090Y-12028000D02*
X14623090Y-12048000D01*
X14623090Y-12028000D02*
X14603090Y-12048000D01*
X14628090Y-7805000D02*
X14648090Y-7825000D01*
X14648090Y-7805000D02*
X14628090Y-7825000D01*
X14628090Y-7880000D02*
X14648090Y-7900000D01*
X14648090Y-7880000D02*
X14628090Y-7900000D01*
X14628090Y-7955000D02*
X14648090Y-7975000D01*
X14648090Y-7955000D02*
X14628090Y-7975000D01*
X14628090Y-8030000D02*
X14648090Y-8050000D01*
X14648090Y-8030000D02*
X14628090Y-8050000D01*
X14628090Y-8105000D02*
X14648090Y-8125000D01*
X14648090Y-8105000D02*
X14628090Y-8125000D01*
X14628090Y-10883000D02*
X14648090Y-10903000D01*
X14648090Y-10883000D02*
X14628090Y-10903000D01*
X14628090Y-10958000D02*
X14648090Y-10978000D01*
X14648090Y-10958000D02*
X14628090Y-10978000D01*
X14628090Y-11033000D02*
X14648090Y-11053000D01*
X14648090Y-11033000D02*
X14628090Y-11053000D01*
X14628090Y-11108000D02*
X14648090Y-11128000D01*
X14648090Y-11108000D02*
X14628090Y-11128000D01*
X14628090Y-11183000D02*
X14648090Y-11203000D01*
X14648090Y-11183000D02*
X14628090Y-11203000D01*
X14670000Y-9910000D02*
X14690000Y-9930000D01*
X14690000Y-9910000D02*
X14670000Y-9930000D01*
X14686000Y-8430000D02*
X14706000Y-8450000D01*
X14706000Y-8430000D02*
X14686000Y-8450000D01*
X14871000Y-9700000D02*
X14891000Y-9720000D01*
X14891000Y-9700000D02*
X14871000Y-9720000D01*
X14886000Y-9300000D02*
X14906000Y-9320000D01*
X14906000Y-9300000D02*
X14886000Y-9320000D01*
X15316000Y-12070000D02*
X15336000Y-12090000D01*
X15336000Y-12070000D02*
X15316000Y-12090000D01*
X15360000Y-9720000D02*
X15380000Y-9740000D01*
X15380000Y-9720000D02*
X15360000Y-9740000D01*
X15380000Y-9370000D02*
X15400000Y-9390000D01*
X15400000Y-9370000D02*
X15380000Y-9390000D01*
X15420000Y-6890000D02*
X15440000Y-6910000D01*
X15440000Y-6890000D02*
X15420000Y-6910000D01*
X15536000Y-9240000D02*
X15556000Y-9260000D01*
X15556000Y-9240000D02*
X15536000Y-9260000D01*
X15551000Y-9565000D02*
X15571000Y-9585000D01*
X15571000Y-9565000D02*
X15551000Y-9585000D01*
X15800000Y-9330000D02*
X15820000Y-9350000D01*
X15820000Y-9330000D02*
X15800000Y-9350000D01*
X15925000Y-9710000D02*
X15945000Y-9730000D01*
X15945000Y-9710000D02*
X15925000Y-9730000D01*
X15940000Y-9485000D02*
X15960000Y-9505000D01*
X15960000Y-9485000D02*
X15940000Y-9505000D01*
X16290000Y-9520000D02*
X16310000Y-9540000D01*
X16310000Y-9520000D02*
X16290000Y-9540000D01*
X16310000Y-9310000D02*
X16330000Y-9330000D01*
X16330000Y-9310000D02*
X16310000Y-9330000D01*
X9021500Y-10397500D02*
G75*
G03*
X9021500Y-10397500I-10000J0D01*
G01*
X9021500Y-10525000D02*
G75*
G03*
X9021500Y-10525000I-10000J0D01*
G01*
X9021500Y-10652500D02*
G75*
G03*
X9021500Y-10652500I-10000J0D01*
G01*
X9149000Y-10397500D02*
G75*
G03*
X9149000Y-10397500I-10000J0D01*
G01*
X9149000Y-10525000D02*
G75*
G03*
X9149000Y-10525000I-10000J0D01*
G01*
X9149000Y-10652500D02*
G75*
G03*
X9149000Y-10652500I-10000J0D01*
G01*
X9276500Y-10397500D02*
G75*
G03*
X9276500Y-10397500I-10000J0D01*
G01*
X9276500Y-10525000D02*
G75*
G03*
X9276500Y-10525000I-10000J0D01*
G01*
X9276500Y-10652500D02*
G75*
G03*
X9276500Y-10652500I-10000J0D01*
G01*
D13*
X7980000Y-10740000D02*
X7980000Y-10780000D01*
X7960000Y-10760000D02*
X8000000Y-10760000D01*
X8420000Y-8230000D02*
X8420000Y-8270000D01*
X8400000Y-8250000D02*
X8440000Y-8250000D01*
X8445000Y-10925000D02*
X8445000Y-10965000D01*
X8425000Y-10945000D02*
X8465000Y-10945000D01*
X8445000Y-11100000D02*
X8445000Y-11140000D01*
X8425000Y-11120000D02*
X8465000Y-11120000D01*
X8510000Y-7025000D02*
X8510000Y-7065000D01*
X8490000Y-7045000D02*
X8530000Y-7045000D01*
X8600000Y-7955000D02*
X8600000Y-7995000D01*
X8580000Y-7975000D02*
X8620000Y-7975000D01*
X8770000Y-7825000D02*
X8770000Y-7865000D01*
X8750000Y-7845000D02*
X8790000Y-7845000D01*
X8770000Y-7925000D02*
X8770000Y-7965000D01*
X8750000Y-7945000D02*
X8790000Y-7945000D01*
X8780000Y-8475000D02*
X8780000Y-8515000D01*
X8760000Y-8495000D02*
X8800000Y-8495000D01*
X8845000Y-11280000D02*
X8845000Y-11320000D01*
X8825000Y-11300000D02*
X8865000Y-11300000D01*
X8890000Y-7120000D02*
X8890000Y-7160000D01*
X8870000Y-7140000D02*
X8910000Y-7140000D01*
X8990000Y-7825000D02*
X8990000Y-7865000D01*
X8970000Y-7845000D02*
X9010000Y-7845000D01*
X8990000Y-7925000D02*
X8990000Y-7965000D01*
X8970000Y-7945000D02*
X9010000Y-7945000D01*
X9005000Y-8820000D02*
X9005000Y-8860000D01*
X8985000Y-8840000D02*
X9025000Y-8840000D01*
X9195000Y-11330000D02*
X9195000Y-11370000D01*
X9175000Y-11350000D02*
X9215000Y-11350000D01*
X9325000Y-7775000D02*
X9325000Y-7815000D01*
X9305000Y-7795000D02*
X9345000Y-7795000D01*
X9330000Y-7880000D02*
X9330000Y-7920000D01*
X9310000Y-7900000D02*
X9350000Y-7900000D01*
X9330000Y-7995000D02*
X9330000Y-8035000D01*
X9310000Y-8015000D02*
X9350000Y-8015000D01*
X9455000Y-7480000D02*
X9455000Y-7520000D01*
X9435000Y-7500000D02*
X9475000Y-7500000D01*
X9480000Y-8090000D02*
X9480000Y-8130000D01*
X9460000Y-8110000D02*
X9500000Y-8110000D01*
X9500000Y-7565000D02*
X9500000Y-7605000D01*
X9480000Y-7585000D02*
X9520000Y-7585000D01*
X9550000Y-7475000D02*
X9550000Y-7515000D01*
X9530000Y-7495000D02*
X9570000Y-7495000D01*
X9570000Y-7735000D02*
X9570000Y-7775000D01*
X9550000Y-7755000D02*
X9590000Y-7755000D01*
X9570000Y-8280000D02*
X9570000Y-8320000D01*
X9550000Y-8300000D02*
X9590000Y-8300000D01*
X9580000Y-7630000D02*
X9580000Y-7670000D01*
X9560000Y-7650000D02*
X9600000Y-7650000D01*
X9695000Y-11055000D02*
X9695000Y-11095000D01*
X9675000Y-11075000D02*
X9715000Y-11075000D01*
X9970000Y-10830000D02*
X9970000Y-10870000D01*
X9950000Y-10850000D02*
X9990000Y-10850000D01*
X10080000Y-7380000D02*
X10080000Y-7420000D01*
X10060000Y-7400000D02*
X10100000Y-7400000D01*
X10080000Y-7480000D02*
X10080000Y-7520000D01*
X10060000Y-7500000D02*
X10100000Y-7500000D01*
X10170000Y-9880000D02*
X10170000Y-9920000D01*
X10150000Y-9900000D02*
X10190000Y-9900000D01*
X10180000Y-7380000D02*
X10180000Y-7420000D01*
X10160000Y-7400000D02*
X10200000Y-7400000D01*
X10180000Y-7480000D02*
X10180000Y-7520000D01*
X10160000Y-7500000D02*
X10200000Y-7500000D01*
X10230000Y-12000000D02*
X10230000Y-12040000D01*
X10210000Y-12020000D02*
X10250000Y-12020000D01*
X10275000Y-7380000D02*
X10275000Y-7420000D01*
X10255000Y-7400000D02*
X10295000Y-7400000D01*
X10275000Y-7480000D02*
X10275000Y-7520000D01*
X10255000Y-7500000D02*
X10295000Y-7500000D01*
X10310000Y-9570000D02*
X10310000Y-9610000D01*
X10290000Y-9590000D02*
X10330000Y-9590000D01*
X10370000Y-11405000D02*
X10370000Y-11445000D01*
X10350000Y-11425000D02*
X10390000Y-11425000D01*
X10665000Y-6970000D02*
X10665000Y-7010000D01*
X10645000Y-6990000D02*
X10685000Y-6990000D01*
X10680000Y-11530000D02*
X10680000Y-11570000D01*
X10660000Y-11550000D02*
X10700000Y-11550000D01*
X10681000Y-11320000D02*
X10681000Y-11360000D01*
X10661000Y-11340000D02*
X10701000Y-11340000D01*
X10690000Y-8180000D02*
X10690000Y-8220000D01*
X10670000Y-8200000D02*
X10710000Y-8200000D01*
X10710000Y-8530000D02*
X10710000Y-8570000D01*
X10690000Y-8550000D02*
X10730000Y-8550000D01*
X10790000Y-9860000D02*
X10790000Y-9900000D01*
X10770000Y-9880000D02*
X10810000Y-9880000D01*
X10810000Y-9027000D02*
X10810000Y-9067000D01*
X10790000Y-9047000D02*
X10830000Y-9047000D01*
X10820000Y-7015000D02*
X10820000Y-7055000D01*
X10800000Y-7035000D02*
X10840000Y-7035000D01*
X10830000Y-12020000D02*
X10830000Y-12060000D01*
X10810000Y-12040000D02*
X10850000Y-12040000D01*
X10840000Y-7950000D02*
X10840000Y-7990000D01*
X10820000Y-7970000D02*
X10860000Y-7970000D01*
X10873318Y-9284168D02*
X10873318Y-9324168D01*
X10853318Y-9304168D02*
X10893318Y-9304168D01*
X10890000Y-11120000D02*
X10890000Y-11160000D01*
X10870000Y-11140000D02*
X10910000Y-11140000D01*
X10900000Y-10285000D02*
X10900000Y-10325000D01*
X10880000Y-10305000D02*
X10920000Y-10305000D01*
X10920000Y-7205000D02*
X10920000Y-7245000D01*
X10900000Y-7225000D02*
X10940000Y-7225000D01*
X10930000Y-6955000D02*
X10930000Y-6995000D01*
X10910000Y-6975000D02*
X10950000Y-6975000D01*
X10937657Y-9515050D02*
X10937657Y-9555050D01*
X10917657Y-9535050D02*
X10957657Y-9535050D01*
X10993206Y-9428763D02*
X10993206Y-9468763D01*
X10973206Y-9448763D02*
X11013206Y-9448763D01*
X11014953Y-9595050D02*
X11014953Y-9635050D01*
X10994953Y-9615050D02*
X11034953Y-9615050D01*
X11051665Y-9347691D02*
X11051665Y-9387691D01*
X11031665Y-9367691D02*
X11071665Y-9367691D01*
X11095000Y-8015000D02*
X11095000Y-8055000D01*
X11075000Y-8035000D02*
X11115000Y-8035000D01*
X11130000Y-10295000D02*
X11130000Y-10335000D01*
X11110000Y-10315000D02*
X11150000Y-10315000D01*
X11155000Y-7080000D02*
X11155000Y-7120000D01*
X11135000Y-7100000D02*
X11175000Y-7100000D01*
X11170000Y-8585000D02*
X11170000Y-8625000D01*
X11150000Y-8605000D02*
X11190000Y-8605000D01*
X11200000Y-8740000D02*
X11200000Y-8780000D01*
X11180000Y-8760000D02*
X11220000Y-8760000D01*
X11220000Y-11740000D02*
X11220000Y-11780000D01*
X11200000Y-11760000D02*
X11240000Y-11760000D01*
X11231000Y-9670000D02*
X11231000Y-9710000D01*
X11211000Y-9690000D02*
X11251000Y-9690000D01*
X11240000Y-11005000D02*
X11240000Y-11045000D01*
X11220000Y-11025000D02*
X11260000Y-11025000D01*
X11340000Y-8780000D02*
X11340000Y-8820000D01*
X11320000Y-8800000D02*
X11360000Y-8800000D01*
X11340000Y-9234950D02*
X11340000Y-9274950D01*
X11320000Y-9254950D02*
X11360000Y-9254950D01*
X11350000Y-11830000D02*
X11350000Y-11870000D01*
X11330000Y-11850000D02*
X11370000Y-11850000D01*
X11490000Y-7075000D02*
X11490000Y-7115000D01*
X11470000Y-7095000D02*
X11510000Y-7095000D01*
X11560000Y-8220000D02*
X11560000Y-8260000D01*
X11540000Y-8240000D02*
X11580000Y-8240000D01*
X11640000Y-10485000D02*
X11640000Y-10525000D01*
X11620000Y-10505000D02*
X11660000Y-10505000D01*
X11640000Y-11290000D02*
X11640000Y-11330000D01*
X11620000Y-11310000D02*
X11660000Y-11310000D01*
X11641000Y-9675000D02*
X11641000Y-9715000D01*
X11621000Y-9695000D02*
X11661000Y-9695000D01*
X11660000Y-8840000D02*
X11660000Y-8880000D01*
X11640000Y-8860000D02*
X11680000Y-8860000D01*
X11675000Y-11930000D02*
X11675000Y-11970000D01*
X11655000Y-11950000D02*
X11695000Y-11950000D01*
X11681000Y-9970000D02*
X11681000Y-10010000D01*
X11661000Y-9990000D02*
X11701000Y-9990000D01*
X11780000Y-10980000D02*
X11780000Y-11020000D01*
X11760000Y-11000000D02*
X11800000Y-11000000D01*
X11800000Y-8480000D02*
X11800000Y-8520000D01*
X11780000Y-8500000D02*
X11820000Y-8500000D01*
X11821000Y-11460000D02*
X11821000Y-11500000D01*
X11801000Y-11480000D02*
X11841000Y-11480000D01*
X11870000Y-8930000D02*
X11870000Y-8970000D01*
X11850000Y-8950000D02*
X11890000Y-8950000D01*
X11950000Y-9690000D02*
X11950000Y-9730000D01*
X11930000Y-9710000D02*
X11970000Y-9710000D01*
X11950000Y-10030000D02*
X11950000Y-10070000D01*
X11930000Y-10050000D02*
X11970000Y-10050000D01*
X11955000Y-10125000D02*
X11955000Y-10165000D01*
X11935000Y-10145000D02*
X11975000Y-10145000D01*
X11960000Y-8822000D02*
X11960000Y-8862000D01*
X11940000Y-8842000D02*
X11980000Y-8842000D01*
X11960000Y-10665000D02*
X11960000Y-10705000D01*
X11940000Y-10685000D02*
X11980000Y-10685000D01*
X11960000Y-11550000D02*
X11960000Y-11590000D01*
X11940000Y-11570000D02*
X11980000Y-11570000D01*
X11965000Y-8352000D02*
X11965000Y-8392000D01*
X11945000Y-8372000D02*
X11985000Y-8372000D01*
X11965000Y-8452000D02*
X11965000Y-8492000D01*
X11945000Y-8472000D02*
X11985000Y-8472000D01*
X11965000Y-8722000D02*
X11965000Y-8762000D01*
X11945000Y-8742000D02*
X11985000Y-8742000D01*
X11965000Y-10295000D02*
X11965000Y-10335000D01*
X11945000Y-10315000D02*
X11985000Y-10315000D01*
X11965000Y-10395000D02*
X11965000Y-10435000D01*
X11945000Y-10415000D02*
X11985000Y-10415000D01*
X11965000Y-10565000D02*
X11965000Y-10605000D01*
X11945000Y-10585000D02*
X11985000Y-10585000D01*
X11965000Y-11140000D02*
X11965000Y-11180000D01*
X11945000Y-11160000D02*
X11985000Y-11160000D01*
X11965000Y-11240000D02*
X11965000Y-11280000D01*
X11945000Y-11260000D02*
X11985000Y-11260000D01*
X11965000Y-11450000D02*
X11965000Y-11490000D01*
X11945000Y-11470000D02*
X11985000Y-11470000D01*
X11965000Y-11885000D02*
X11965000Y-11925000D01*
X11945000Y-11905000D02*
X11985000Y-11905000D01*
X11970000Y-9310000D02*
X11970000Y-9350000D01*
X11950000Y-9330000D02*
X11990000Y-9330000D01*
X12050000Y-9690000D02*
X12050000Y-9730000D01*
X12030000Y-9710000D02*
X12070000Y-9710000D01*
X12050000Y-10030000D02*
X12050000Y-10070000D01*
X12030000Y-10050000D02*
X12070000Y-10050000D01*
X12055000Y-10125000D02*
X12055000Y-10165000D01*
X12035000Y-10145000D02*
X12075000Y-10145000D01*
X12060000Y-8822000D02*
X12060000Y-8862000D01*
X12040000Y-8842000D02*
X12080000Y-8842000D01*
X12060000Y-10665000D02*
X12060000Y-10705000D01*
X12040000Y-10685000D02*
X12080000Y-10685000D01*
X12060000Y-11550000D02*
X12060000Y-11590000D01*
X12040000Y-11570000D02*
X12080000Y-11570000D01*
X12065000Y-8352000D02*
X12065000Y-8392000D01*
X12045000Y-8372000D02*
X12085000Y-8372000D01*
X12065000Y-8452000D02*
X12065000Y-8492000D01*
X12045000Y-8472000D02*
X12085000Y-8472000D01*
X12065000Y-8722000D02*
X12065000Y-8762000D01*
X12045000Y-8742000D02*
X12085000Y-8742000D01*
X12065000Y-10295000D02*
X12065000Y-10335000D01*
X12045000Y-10315000D02*
X12085000Y-10315000D01*
X12065000Y-10395000D02*
X12065000Y-10435000D01*
X12045000Y-10415000D02*
X12085000Y-10415000D01*
X12065000Y-10565000D02*
X12065000Y-10605000D01*
X12045000Y-10585000D02*
X12085000Y-10585000D01*
X12065000Y-11140000D02*
X12065000Y-11180000D01*
X12045000Y-11160000D02*
X12085000Y-11160000D01*
X12065000Y-11240000D02*
X12065000Y-11280000D01*
X12045000Y-11260000D02*
X12085000Y-11260000D01*
X12065000Y-11450000D02*
X12065000Y-11490000D01*
X12045000Y-11470000D02*
X12085000Y-11470000D01*
X12065000Y-11885000D02*
X12065000Y-11925000D01*
X12045000Y-11905000D02*
X12085000Y-11905000D01*
X12070000Y-9310000D02*
X12070000Y-9350000D01*
X12050000Y-9330000D02*
X12090000Y-9330000D01*
X12150000Y-9690000D02*
X12150000Y-9730000D01*
X12130000Y-9710000D02*
X12170000Y-9710000D01*
X12150000Y-10030000D02*
X12150000Y-10070000D01*
X12130000Y-10050000D02*
X12170000Y-10050000D01*
X12155000Y-10125000D02*
X12155000Y-10165000D01*
X12135000Y-10145000D02*
X12175000Y-10145000D01*
X12160000Y-8822000D02*
X12160000Y-8862000D01*
X12140000Y-8842000D02*
X12180000Y-8842000D01*
X12160000Y-10665000D02*
X12160000Y-10705000D01*
X12140000Y-10685000D02*
X12180000Y-10685000D01*
X12160000Y-11550000D02*
X12160000Y-11590000D01*
X12140000Y-11570000D02*
X12180000Y-11570000D01*
X12165000Y-8352000D02*
X12165000Y-8392000D01*
X12145000Y-8372000D02*
X12185000Y-8372000D01*
X12165000Y-8452000D02*
X12165000Y-8492000D01*
X12145000Y-8472000D02*
X12185000Y-8472000D01*
X12165000Y-8722000D02*
X12165000Y-8762000D01*
X12145000Y-8742000D02*
X12185000Y-8742000D01*
X12165000Y-10295000D02*
X12165000Y-10335000D01*
X12145000Y-10315000D02*
X12185000Y-10315000D01*
X12165000Y-10395000D02*
X12165000Y-10435000D01*
X12145000Y-10415000D02*
X12185000Y-10415000D01*
X12165000Y-10565000D02*
X12165000Y-10605000D01*
X12145000Y-10585000D02*
X12185000Y-10585000D01*
X12165000Y-11140000D02*
X12165000Y-11180000D01*
X12145000Y-11160000D02*
X12185000Y-11160000D01*
X12165000Y-11240000D02*
X12165000Y-11280000D01*
X12145000Y-11260000D02*
X12185000Y-11260000D01*
X12165000Y-11450000D02*
X12165000Y-11490000D01*
X12145000Y-11470000D02*
X12185000Y-11470000D01*
X12165000Y-11885000D02*
X12165000Y-11925000D01*
X12145000Y-11905000D02*
X12185000Y-11905000D01*
X12170000Y-9310000D02*
X12170000Y-9350000D01*
X12150000Y-9330000D02*
X12190000Y-9330000D01*
X12250000Y-9690000D02*
X12250000Y-9730000D01*
X12230000Y-9710000D02*
X12270000Y-9710000D01*
X12250000Y-10030000D02*
X12250000Y-10070000D01*
X12230000Y-10050000D02*
X12270000Y-10050000D01*
X12255000Y-10125000D02*
X12255000Y-10165000D01*
X12235000Y-10145000D02*
X12275000Y-10145000D01*
X12260000Y-8822000D02*
X12260000Y-8862000D01*
X12240000Y-8842000D02*
X12280000Y-8842000D01*
X12260000Y-10665000D02*
X12260000Y-10705000D01*
X12240000Y-10685000D02*
X12280000Y-10685000D01*
X12260000Y-11550000D02*
X12260000Y-11590000D01*
X12240000Y-11570000D02*
X12280000Y-11570000D01*
X12265000Y-8352000D02*
X12265000Y-8392000D01*
X12245000Y-8372000D02*
X12285000Y-8372000D01*
X12265000Y-8452000D02*
X12265000Y-8492000D01*
X12245000Y-8472000D02*
X12285000Y-8472000D01*
X12265000Y-8722000D02*
X12265000Y-8762000D01*
X12245000Y-8742000D02*
X12285000Y-8742000D01*
X12265000Y-10295000D02*
X12265000Y-10335000D01*
X12245000Y-10315000D02*
X12285000Y-10315000D01*
X12265000Y-10395000D02*
X12265000Y-10435000D01*
X12245000Y-10415000D02*
X12285000Y-10415000D01*
X12265000Y-10565000D02*
X12265000Y-10605000D01*
X12245000Y-10585000D02*
X12285000Y-10585000D01*
X12265000Y-11140000D02*
X12265000Y-11180000D01*
X12245000Y-11160000D02*
X12285000Y-11160000D01*
X12265000Y-11240000D02*
X12265000Y-11280000D01*
X12245000Y-11260000D02*
X12285000Y-11260000D01*
X12265000Y-11450000D02*
X12265000Y-11490000D01*
X12245000Y-11470000D02*
X12285000Y-11470000D01*
X12265000Y-11885000D02*
X12265000Y-11925000D01*
X12245000Y-11905000D02*
X12285000Y-11905000D01*
X12270000Y-9310000D02*
X12270000Y-9350000D01*
X12250000Y-9330000D02*
X12290000Y-9330000D01*
X13835000Y-6855000D02*
X13835000Y-6895000D01*
X13815000Y-6875000D02*
X13855000Y-6875000D01*
X13840000Y-11625000D02*
X13840000Y-11665000D01*
X13820000Y-11645000D02*
X13860000Y-11645000D01*
X13845000Y-10775000D02*
X13845000Y-10815000D01*
X13825000Y-10795000D02*
X13865000Y-10795000D01*
X13850000Y-7685000D02*
X13850000Y-7725000D01*
X13830000Y-7705000D02*
X13870000Y-7705000D01*
X13860000Y-8515000D02*
X13860000Y-8555000D01*
X13840000Y-8535000D02*
X13880000Y-8535000D01*
X14655000Y-11580000D02*
X14655000Y-11620000D01*
X14635000Y-11600000D02*
X14675000Y-11600000D01*
X14665000Y-10730000D02*
X14665000Y-10770000D01*
X14645000Y-10750000D02*
X14685000Y-10750000D01*
X14695000Y-7640000D02*
X14695000Y-7680000D01*
X14675000Y-7660000D02*
X14715000Y-7660000D01*
X14795000Y-6854950D02*
X14795000Y-6894950D01*
X14775000Y-6874950D02*
X14815000Y-6874950D01*
X15350000Y-7580000D02*
X15350000Y-7620000D01*
X15330000Y-7600000D02*
X15370000Y-7600000D01*
X15350000Y-8400000D02*
X15350000Y-8440000D01*
X15330000Y-8420000D02*
X15370000Y-8420000D01*
X15350000Y-10555000D02*
X15350000Y-10595000D01*
X15330000Y-10575000D02*
X15370000Y-10575000D01*
X15350000Y-11380000D02*
X15350000Y-11420000D01*
X15330000Y-11400000D02*
X15370000Y-11400000D01*
X15445000Y-9610000D02*
X15445000Y-9650000D01*
X15425000Y-9630000D02*
X15465000Y-9630000D01*
X15450000Y-7580000D02*
X15450000Y-7620000D01*
X15430000Y-7600000D02*
X15470000Y-7600000D01*
X15450000Y-8400000D02*
X15450000Y-8440000D01*
X15430000Y-8420000D02*
X15470000Y-8420000D01*
X15450000Y-10555000D02*
X15450000Y-10595000D01*
X15430000Y-10575000D02*
X15470000Y-10575000D01*
X15450000Y-11380000D02*
X15450000Y-11420000D01*
X15430000Y-11400000D02*
X15470000Y-11400000D01*
X15550000Y-7580000D02*
X15550000Y-7620000D01*
X15530000Y-7600000D02*
X15570000Y-7600000D01*
X15550000Y-8400000D02*
X15550000Y-8440000D01*
X15530000Y-8420000D02*
X15570000Y-8420000D01*
X15550000Y-10555000D02*
X15550000Y-10595000D01*
X15530000Y-10575000D02*
X15570000Y-10575000D01*
X15550000Y-11380000D02*
X15550000Y-11420000D01*
X15530000Y-11400000D02*
X15570000Y-11400000D01*
X15650000Y-7580000D02*
X15650000Y-7620000D01*
X15630000Y-7600000D02*
X15670000Y-7600000D01*
X15650000Y-8400000D02*
X15650000Y-8440000D01*
X15630000Y-8420000D02*
X15670000Y-8420000D01*
X15650000Y-10555000D02*
X15650000Y-10595000D01*
X15630000Y-10575000D02*
X15670000Y-10575000D01*
X15650000Y-11380000D02*
X15650000Y-11420000D01*
X15630000Y-11400000D02*
X15670000Y-11400000D01*
X15750000Y-7580000D02*
X15750000Y-7620000D01*
X15730000Y-7600000D02*
X15770000Y-7600000D01*
X15750000Y-8400000D02*
X15750000Y-8440000D01*
X15730000Y-8420000D02*
X15770000Y-8420000D01*
X15750000Y-10555000D02*
X15750000Y-10595000D01*
X15730000Y-10575000D02*
X15770000Y-10575000D01*
X15750000Y-11380000D02*
X15750000Y-11420000D01*
X15730000Y-11400000D02*
X15770000Y-11400000D01*
X15849791Y-8399786D02*
X15849791Y-8439786D01*
X15829791Y-8419786D02*
X15869791Y-8419786D01*
X15850000Y-7580000D02*
X15850000Y-7620000D01*
X15830000Y-7600000D02*
X15870000Y-7600000D01*
X15850000Y-10555000D02*
X15850000Y-10595000D01*
X15830000Y-10575000D02*
X15870000Y-10575000D01*
X15850000Y-11380000D02*
X15850000Y-11420000D01*
X15830000Y-11400000D02*
X15870000Y-11400000D01*
X15950000Y-7580000D02*
X15950000Y-7620000D01*
X15930000Y-7600000D02*
X15970000Y-7600000D01*
X15950000Y-8400000D02*
X15950000Y-8440000D01*
X15930000Y-8420000D02*
X15970000Y-8420000D01*
X15950000Y-10555000D02*
X15950000Y-10595000D01*
X15930000Y-10575000D02*
X15970000Y-10575000D01*
X15950000Y-11380000D02*
X15950000Y-11420000D01*
X15930000Y-11400000D02*
X15970000Y-11400000D01*
X16050000Y-8400000D02*
X16050000Y-8440000D01*
X16030000Y-8420000D02*
X16070000Y-8420000D01*
X16050000Y-10555000D02*
X16050000Y-10595000D01*
X16030000Y-10575000D02*
X16070000Y-10575000D01*
X16150000Y-8400000D02*
X16150000Y-8440000D01*
X16130000Y-8420000D02*
X16170000Y-8420000D01*
X16150000Y-10555000D02*
X16150000Y-10595000D01*
X16130000Y-10575000D02*
X16170000Y-10575000D01*
X16250000Y-8400000D02*
X16250000Y-8440000D01*
X16230000Y-8420000D02*
X16270000Y-8420000D01*
X16250000Y-10555000D02*
X16250000Y-10595000D01*
X16230000Y-10575000D02*
X16270000Y-10575000D01*
X16350000Y-6980000D02*
X16350000Y-7020000D01*
X16330000Y-7000000D02*
X16370000Y-7000000D01*
X16350000Y-7080000D02*
X16350000Y-7120000D01*
X16330000Y-7100000D02*
X16370000Y-7100000D01*
X16350000Y-7180000D02*
X16350000Y-7220000D01*
X16330000Y-7200000D02*
X16370000Y-7200000D01*
X16350000Y-7280000D02*
X16350000Y-7320000D01*
X16330000Y-7300000D02*
X16370000Y-7300000D01*
X16350000Y-7880000D02*
X16350000Y-7920000D01*
X16330000Y-7900000D02*
X16370000Y-7900000D01*
X16350000Y-7980000D02*
X16350000Y-8020000D01*
X16330000Y-8000000D02*
X16370000Y-8000000D01*
X16350000Y-8080000D02*
X16350000Y-8120000D01*
X16330000Y-8100000D02*
X16370000Y-8100000D01*
X16350000Y-8180000D02*
X16350000Y-8220000D01*
X16330000Y-8200000D02*
X16370000Y-8200000D01*
X16350000Y-8280000D02*
X16350000Y-8320000D01*
X16330000Y-8300000D02*
X16370000Y-8300000D01*
X16350000Y-8380000D02*
X16350000Y-8420000D01*
X16330000Y-8400000D02*
X16370000Y-8400000D01*
X16350000Y-8480000D02*
X16350000Y-8520000D01*
X16330000Y-8500000D02*
X16370000Y-8500000D01*
X16350000Y-8580000D02*
X16350000Y-8620000D01*
X16330000Y-8600000D02*
X16370000Y-8600000D01*
X16350000Y-8680000D02*
X16350000Y-8720000D01*
X16330000Y-8700000D02*
X16370000Y-8700000D01*
X16350000Y-8780000D02*
X16350000Y-8820000D01*
X16330000Y-8800000D02*
X16370000Y-8800000D01*
X16350000Y-8880000D02*
X16350000Y-8920000D01*
X16330000Y-8900000D02*
X16370000Y-8900000D01*
X16350000Y-8980000D02*
X16350000Y-9020000D01*
X16330000Y-9000000D02*
X16370000Y-9000000D01*
X16350000Y-9080000D02*
X16350000Y-9120000D01*
X16330000Y-9100000D02*
X16370000Y-9100000D01*
X16350000Y-9880000D02*
X16350000Y-9920000D01*
X16330000Y-9900000D02*
X16370000Y-9900000D01*
X16350000Y-9980000D02*
X16350000Y-10020000D01*
X16330000Y-10000000D02*
X16370000Y-10000000D01*
X16350000Y-10080000D02*
X16350000Y-10120000D01*
X16330000Y-10100000D02*
X16370000Y-10100000D01*
X16350000Y-10180000D02*
X16350000Y-10220000D01*
X16330000Y-10200000D02*
X16370000Y-10200000D01*
X16350000Y-10280000D02*
X16350000Y-10320000D01*
X16330000Y-10300000D02*
X16370000Y-10300000D01*
X16350000Y-10380000D02*
X16350000Y-10420000D01*
X16330000Y-10400000D02*
X16370000Y-10400000D01*
X16350000Y-10480000D02*
X16350000Y-10520000D01*
X16330000Y-10500000D02*
X16370000Y-10500000D01*
X16350000Y-10580000D02*
X16350000Y-10620000D01*
X16330000Y-10600000D02*
X16370000Y-10600000D01*
X16350000Y-10680000D02*
X16350000Y-10720000D01*
X16330000Y-10700000D02*
X16370000Y-10700000D01*
X16350000Y-10780000D02*
X16350000Y-10820000D01*
X16330000Y-10800000D02*
X16370000Y-10800000D01*
X16350000Y-10880000D02*
X16350000Y-10920000D01*
X16330000Y-10900000D02*
X16370000Y-10900000D01*
X16350000Y-10980000D02*
X16350000Y-11020000D01*
X16330000Y-11000000D02*
X16370000Y-11000000D01*
X16350000Y-11080000D02*
X16350000Y-11120000D01*
X16330000Y-11100000D02*
X16370000Y-11100000D01*
X16350000Y-11780000D02*
X16350000Y-11820000D01*
X16330000Y-11800000D02*
X16370000Y-11800000D01*
X16350000Y-11880000D02*
X16350000Y-11920000D01*
X16330000Y-11900000D02*
X16370000Y-11900000D01*
X16350000Y-11980000D02*
X16350000Y-12020000D01*
X16330000Y-12000000D02*
X16370000Y-12000000D01*
X16350000Y-12080000D02*
X16350000Y-12120000D01*
X16330000Y-12100000D02*
X16370000Y-12100000D01*
X16450000Y-6980000D02*
X16450000Y-7020000D01*
X16430000Y-7000000D02*
X16470000Y-7000000D01*
X16450000Y-7080000D02*
X16450000Y-7120000D01*
X16430000Y-7100000D02*
X16470000Y-7100000D01*
X16450000Y-7180000D02*
X16450000Y-7220000D01*
X16430000Y-7200000D02*
X16470000Y-7200000D01*
X16450000Y-7280000D02*
X16450000Y-7320000D01*
X16430000Y-7300000D02*
X16470000Y-7300000D01*
X16450000Y-7880000D02*
X16450000Y-7920000D01*
X16430000Y-7900000D02*
X16470000Y-7900000D01*
X16450000Y-7980000D02*
X16450000Y-8020000D01*
X16430000Y-8000000D02*
X16470000Y-8000000D01*
X16450000Y-8080000D02*
X16450000Y-8120000D01*
X16430000Y-8100000D02*
X16470000Y-8100000D01*
X16450000Y-8180000D02*
X16450000Y-8220000D01*
X16430000Y-8200000D02*
X16470000Y-8200000D01*
X16450000Y-8280000D02*
X16450000Y-8320000D01*
X16430000Y-8300000D02*
X16470000Y-8300000D01*
X16450000Y-8380000D02*
X16450000Y-8420000D01*
X16430000Y-8400000D02*
X16470000Y-8400000D01*
X16450000Y-8480000D02*
X16450000Y-8520000D01*
X16430000Y-8500000D02*
X16470000Y-8500000D01*
X16450000Y-8580000D02*
X16450000Y-8620000D01*
X16430000Y-8600000D02*
X16470000Y-8600000D01*
X16450000Y-8680000D02*
X16450000Y-8720000D01*
X16430000Y-8700000D02*
X16470000Y-8700000D01*
X16450000Y-8780000D02*
X16450000Y-8820000D01*
X16430000Y-8800000D02*
X16470000Y-8800000D01*
X16450000Y-8880000D02*
X16450000Y-8920000D01*
X16430000Y-8900000D02*
X16470000Y-8900000D01*
X16450000Y-8980000D02*
X16450000Y-9020000D01*
X16430000Y-9000000D02*
X16470000Y-9000000D01*
X16450000Y-9080000D02*
X16450000Y-9120000D01*
X16430000Y-9100000D02*
X16470000Y-9100000D01*
X16450000Y-9880000D02*
X16450000Y-9920000D01*
X16430000Y-9900000D02*
X16470000Y-9900000D01*
X16450000Y-9980000D02*
X16450000Y-10020000D01*
X16430000Y-10000000D02*
X16470000Y-10000000D01*
X16450000Y-10080000D02*
X16450000Y-10120000D01*
X16430000Y-10100000D02*
X16470000Y-10100000D01*
X16450000Y-10180000D02*
X16450000Y-10220000D01*
X16430000Y-10200000D02*
X16470000Y-10200000D01*
X16450000Y-10280000D02*
X16450000Y-10320000D01*
X16430000Y-10300000D02*
X16470000Y-10300000D01*
X16450000Y-10380000D02*
X16450000Y-10420000D01*
X16430000Y-10400000D02*
X16470000Y-10400000D01*
X16450000Y-10480000D02*
X16450000Y-10520000D01*
X16430000Y-10500000D02*
X16470000Y-10500000D01*
X16450000Y-10580000D02*
X16450000Y-10620000D01*
X16430000Y-10600000D02*
X16470000Y-10600000D01*
X16450000Y-10680000D02*
X16450000Y-10720000D01*
X16430000Y-10700000D02*
X16470000Y-10700000D01*
X16450000Y-10780000D02*
X16450000Y-10820000D01*
X16430000Y-10800000D02*
X16470000Y-10800000D01*
X16450000Y-10880000D02*
X16450000Y-10920000D01*
X16430000Y-10900000D02*
X16470000Y-10900000D01*
X16450000Y-10980000D02*
X16450000Y-11020000D01*
X16430000Y-11000000D02*
X16470000Y-11000000D01*
X16450000Y-11080000D02*
X16450000Y-11120000D01*
X16430000Y-11100000D02*
X16470000Y-11100000D01*
X16450000Y-11780000D02*
X16450000Y-11820000D01*
X16430000Y-11800000D02*
X16470000Y-11800000D01*
X16450000Y-11880000D02*
X16450000Y-11920000D01*
X16430000Y-11900000D02*
X16470000Y-11900000D01*
X16450000Y-11980000D02*
X16450000Y-12020000D01*
X16430000Y-12000000D02*
X16470000Y-12000000D01*
X16450000Y-12080000D02*
X16450000Y-12120000D01*
X16430000Y-12100000D02*
X16470000Y-12100000D01*
D14*
X8387678Y-7127678D02*
X8387678Y-7092322D01*
X8352322Y-7092322D01*
X8352322Y-7127678D01*
X8387678Y-7127678D01*
X8587678Y-8192678D02*
X8587678Y-8157322D01*
X8552322Y-8157322D01*
X8552322Y-8192678D01*
X8587678Y-8192678D01*
D15*
X10590000Y-12130000D02*
X10620000Y-12100000D01*
X10590000Y-12070000D01*
X10560000Y-12100000D01*
X10590000Y-12130000D01*
X8678000Y-11584500D02*
X8738000Y-11644500D01*
X8738000Y-11584500D02*
X8678000Y-11644500D01*
X8738000Y-11614500D02*
G75*
G03*
X8738000Y-11614500I-30000J0D01*
G01*
D11*
X8688000Y-11559500D02*
X8688000Y-11669500D01*
X8728000Y-11559500D02*
X8728000Y-11669500D01*
X8688000Y-11669500D02*
G75*
G03*
X8728000Y-11669500I20000J0D01*
G01*
X8728000Y-11559500D02*
G75*
G03*
X8688000Y-11559500I-20000J0D01*
G01*
D15*
X8678000Y-12002500D02*
X8738000Y-12062500D01*
X8738000Y-12002500D02*
X8678000Y-12062500D01*
X8738000Y-12032500D02*
G75*
G03*
X8738000Y-12032500I-30000J0D01*
G01*
D11*
X8688000Y-12002500D02*
X8688000Y-12062500D01*
X8728000Y-12002500D02*
X8728000Y-12062500D01*
X8688000Y-12062500D02*
G75*
G03*
X8728000Y-12062500I20000J0D01*
G01*
X8728000Y-12002500D02*
G75*
G03*
X8688000Y-12002500I-20000J0D01*
G01*
D15*
X9542000Y-11584500D02*
X9602000Y-11644500D01*
X9602000Y-11584500D02*
X9542000Y-11644500D01*
X9602000Y-11614500D02*
G75*
G03*
X9602000Y-11614500I-30000J0D01*
G01*
D11*
X9552000Y-11559500D02*
X9552000Y-11669500D01*
X9592000Y-11559500D02*
X9592000Y-11669500D01*
X9552000Y-11669500D02*
G75*
G03*
X9592000Y-11669500I20000J0D01*
G01*
X9592000Y-11559500D02*
G75*
G03*
X9552000Y-11559500I-20000J0D01*
G01*
D15*
X9542000Y-12002500D02*
X9602000Y-12062500D01*
X9602000Y-12002500D02*
X9542000Y-12062500D01*
X9602000Y-12032500D02*
G75*
G03*
X9602000Y-12032500I-30000J0D01*
G01*
D11*
X9552000Y-12002500D02*
X9552000Y-12062500D01*
X9592000Y-12002500D02*
X9592000Y-12062500D01*
X9552000Y-12062500D02*
G75*
G03*
X9592000Y-12062500I20000J0D01*
G01*
X9592000Y-12002500D02*
G75*
G03*
X9552000Y-12002500I-20000J0D01*
G01*
D16*
X7189500Y-7060500D02*
X7308500Y-7179500D01*
X7308500Y-7060500D02*
X7189500Y-7179500D01*
X7249000Y-7060500D02*
X7249000Y-7179500D01*
X7189500Y-7120000D02*
X7308500Y-7120000D01*
X7350500Y-7664500D02*
X7469500Y-7783500D01*
X7469500Y-7664500D02*
X7350500Y-7783500D01*
X7410000Y-7664500D02*
X7410000Y-7783500D01*
X7350500Y-7724000D02*
X7469500Y-7724000D01*
X7350500Y-7918500D02*
X7469500Y-8037500D01*
X7469500Y-7918500D02*
X7350500Y-8037500D01*
X7410000Y-7918500D02*
X7410000Y-8037500D01*
X7350500Y-7978000D02*
X7469500Y-7978000D01*
X7350500Y-8172500D02*
X7469500Y-8291500D01*
X7469500Y-8172500D02*
X7350500Y-8291500D01*
X7410000Y-8172500D02*
X7410000Y-8291500D01*
X7350500Y-8232000D02*
X7469500Y-8232000D01*
X7350500Y-8426500D02*
X7469500Y-8545500D01*
X7469500Y-8426500D02*
X7350500Y-8545500D01*
X7410000Y-8426500D02*
X7410000Y-8545500D01*
X7350500Y-8486000D02*
X7469500Y-8486000D01*
X7350500Y-8680500D02*
X7469500Y-8799500D01*
X7469500Y-8680500D02*
X7350500Y-8799500D01*
X7410000Y-8680500D02*
X7410000Y-8799500D01*
X7350500Y-8740000D02*
X7469500Y-8740000D01*
X7350500Y-10032500D02*
X7469500Y-10151500D01*
X7469500Y-10032500D02*
X7350500Y-10151500D01*
X7410000Y-10032500D02*
X7410000Y-10151500D01*
X7350500Y-10092000D02*
X7469500Y-10092000D01*
X7350500Y-10286500D02*
X7469500Y-10405500D01*
X7469500Y-10286500D02*
X7350500Y-10405500D01*
X7410000Y-10286500D02*
X7410000Y-10405500D01*
X7350500Y-10346000D02*
X7469500Y-10346000D01*
X7350500Y-10540500D02*
X7469500Y-10659500D01*
X7469500Y-10540500D02*
X7350500Y-10659500D01*
X7410000Y-10540500D02*
X7410000Y-10659500D01*
X7350500Y-10600000D02*
X7469500Y-10600000D01*
X7350500Y-10909500D02*
X7469500Y-11028500D01*
X7469500Y-10909500D02*
X7350500Y-11028500D01*
X7410000Y-10909500D02*
X7410000Y-11028500D01*
X7350500Y-10969000D02*
X7469500Y-10969000D01*
X7350500Y-11163500D02*
X7469500Y-11282500D01*
X7469500Y-11163500D02*
X7350500Y-11282500D01*
X7410000Y-11163500D02*
X7410000Y-11282500D01*
X7350500Y-11223000D02*
X7469500Y-11223000D01*
X7350500Y-11417500D02*
X7469500Y-11536500D01*
X7469500Y-11417500D02*
X7350500Y-11536500D01*
X7410000Y-11417500D02*
X7410000Y-11536500D01*
X7350500Y-11477000D02*
X7469500Y-11477000D01*
X7350500Y-11671500D02*
X7469500Y-11790500D01*
X7469500Y-11671500D02*
X7350500Y-11790500D01*
X7410000Y-11671500D02*
X7410000Y-11790500D01*
X7350500Y-11731000D02*
X7469500Y-11731000D01*
X7350500Y-11925500D02*
X7469500Y-12044500D01*
X7469500Y-11925500D02*
X7350500Y-12044500D01*
X7410000Y-11925500D02*
X7410000Y-12044500D01*
X7350500Y-11985000D02*
X7469500Y-11985000D01*
X7443500Y-7060500D02*
X7562500Y-7179500D01*
X7562500Y-7060500D02*
X7443500Y-7179500D01*
X7503000Y-7060500D02*
X7503000Y-7179500D01*
X7443500Y-7120000D02*
X7562500Y-7120000D01*
X7697500Y-7060500D02*
X7816500Y-7179500D01*
X7816500Y-7060500D02*
X7697500Y-7179500D01*
X7757000Y-7060500D02*
X7757000Y-7179500D01*
X7697500Y-7120000D02*
X7816500Y-7120000D01*
X7951500Y-7060500D02*
X8070500Y-7179500D01*
X8070500Y-7060500D02*
X7951500Y-7179500D01*
X8011000Y-7060500D02*
X8011000Y-7179500D01*
X7951500Y-7120000D02*
X8070500Y-7120000D01*
X8045500Y-7674500D02*
X8164500Y-7793500D01*
X8164500Y-7674500D02*
X8045500Y-7793500D01*
X8105000Y-7674500D02*
X8105000Y-7793500D01*
X8045500Y-7734000D02*
X8164500Y-7734000D01*
X8045500Y-7928500D02*
X8164500Y-8047500D01*
X8164500Y-7928500D02*
X8045500Y-8047500D01*
X8105000Y-7928500D02*
X8105000Y-8047500D01*
X8045500Y-7988000D02*
X8164500Y-7988000D01*
X8045500Y-8182500D02*
X8164500Y-8301500D01*
X8164500Y-8182500D02*
X8045500Y-8301500D01*
X8105000Y-8182500D02*
X8105000Y-8301500D01*
X8045500Y-8242000D02*
X8164500Y-8242000D01*
X8045500Y-8436500D02*
X8164500Y-8555500D01*
X8164500Y-8436500D02*
X8045500Y-8555500D01*
X8105000Y-8436500D02*
X8105000Y-8555500D01*
X8045500Y-8496000D02*
X8164500Y-8496000D01*
D17*
X15825000Y-6985000D02*
X16055000Y-7215000D01*
X16055000Y-6985000D02*
X15825000Y-7215000D01*
X16021318Y-7181318D02*
X16021318Y-7018682D01*
X15858682Y-7018682D01*
X15858682Y-7181318D01*
X16021318Y-7181318D01*
X15835000Y-7955000D02*
X16065000Y-8185000D01*
X16065000Y-7955000D02*
X15835000Y-8185000D01*
X16031318Y-8151318D02*
X16031318Y-7988682D01*
X15868682Y-7988682D01*
X15868682Y-8151318D01*
X16031318Y-8151318D01*
X15835000Y-8660000D02*
X16065000Y-8890000D01*
X16065000Y-8660000D02*
X15835000Y-8890000D01*
X16031318Y-8856318D02*
X16031318Y-8693682D01*
X15868682Y-8693682D01*
X15868682Y-8856318D01*
X16031318Y-8856318D01*
X15835000Y-10110000D02*
X16065000Y-10340000D01*
X16065000Y-10110000D02*
X15835000Y-10340000D01*
X16031318Y-10306318D02*
X16031318Y-10143682D01*
X15868682Y-10143682D01*
X15868682Y-10306318D01*
X16031318Y-10306318D01*
X15835000Y-10815000D02*
X16065000Y-11045000D01*
X16065000Y-10815000D02*
X15835000Y-11045000D01*
X16031318Y-11011318D02*
X16031318Y-10848682D01*
X15868682Y-10848682D01*
X15868682Y-11011318D01*
X16031318Y-11011318D01*
X15835000Y-11795000D02*
X16065000Y-12025000D01*
X16065000Y-11795000D02*
X15835000Y-12025000D01*
X16031318Y-11991318D02*
X16031318Y-11828682D01*
X15868682Y-11828682D01*
X15868682Y-11991318D01*
X16031318Y-11991318D01*
D18*
X11853306Y-7125000D02*
X12203306Y-7475000D01*
X12203306Y-7125000D02*
X11853306Y-7475000D01*
X12028306Y-7475000D02*
X12203306Y-7300000D01*
X12028306Y-7125000D01*
X11853306Y-7300000D01*
X12028306Y-7475000D01*
X12635000Y-7125000D02*
X12985000Y-7475000D01*
X12985000Y-7125000D02*
X12635000Y-7475000D01*
X12810000Y-7475000D02*
X12985000Y-7300000D01*
X12810000Y-7125000D01*
X12635000Y-7300000D01*
X12810000Y-7475000D01*
D19*
X7395000Y-9305000D02*
X7395000Y-9695000D01*
X7200000Y-9500000D02*
X7590000Y-9500000D01*
X7590000Y-9500000D02*
G75*
G03*
X7590000Y-9500000I-195000J0D01*
G01*
X16245000Y-7385000D02*
X16245000Y-7775000D01*
X16050000Y-7580000D02*
X16440000Y-7580000D01*
X16440000Y-7580000D02*
G75*
G03*
X16440000Y-7580000I-195000J0D01*
G01*
X16245000Y-11225000D02*
X16245000Y-11615000D01*
X16050000Y-11420000D02*
X16440000Y-11420000D01*
X16440000Y-11420000D02*
G75*
G03*
X16440000Y-11420000I-195000J0D01*
G01*
D11*
X7300119Y-12512976D02*
X7300119Y-12312976D01*
X7347738Y-12312976D01*
X7376309Y-12322500D01*
X7395357Y-12341548D01*
X7404881Y-12360595D01*
X7414405Y-12398690D01*
X7414405Y-12427262D01*
X7404881Y-12465357D01*
X7395357Y-12484405D01*
X7376309Y-12503452D01*
X7347738Y-12512976D01*
X7300119Y-12512976D01*
X7500119Y-12512976D02*
X7500119Y-12379643D01*
X7500119Y-12417738D02*
X7509643Y-12398690D01*
X7519167Y-12389167D01*
X7538214Y-12379643D01*
X7557262Y-12379643D01*
X7623928Y-12512976D02*
X7623928Y-12379643D01*
X7623928Y-12312976D02*
X7614405Y-12322500D01*
X7623928Y-12332024D01*
X7633452Y-12322500D01*
X7623928Y-12312976D01*
X7623928Y-12332024D01*
X7747738Y-12512976D02*
X7728690Y-12503452D01*
X7719167Y-12484405D01*
X7719167Y-12312976D01*
X7852500Y-12512976D02*
X7833452Y-12503452D01*
X7823928Y-12484405D01*
X7823928Y-12312976D01*
X8081071Y-12512976D02*
X8081071Y-12312976D01*
X8147738Y-12455833D01*
X8214405Y-12312976D01*
X8214405Y-12512976D01*
X8395357Y-12512976D02*
X8395357Y-12408214D01*
X8385833Y-12389167D01*
X8366786Y-12379643D01*
X8328690Y-12379643D01*
X8309643Y-12389167D01*
X8395357Y-12503452D02*
X8376309Y-12512976D01*
X8328690Y-12512976D01*
X8309643Y-12503452D01*
X8300119Y-12484405D01*
X8300119Y-12465357D01*
X8309643Y-12446309D01*
X8328690Y-12436786D01*
X8376309Y-12436786D01*
X8395357Y-12427262D01*
X8490595Y-12379643D02*
X8490595Y-12579643D01*
X8490595Y-12389167D02*
X8509643Y-12379643D01*
X8547738Y-12379643D01*
X8566786Y-12389167D01*
X8576310Y-12398690D01*
X8585833Y-12417738D01*
X8585833Y-12474881D01*
X8576310Y-12493928D01*
X8566786Y-12503452D01*
X8547738Y-12512976D01*
X8509643Y-12512976D01*
X8490595Y-12503452D01*
X8671548Y-12493928D02*
X8681071Y-12503452D01*
X8671548Y-12512976D01*
X8662024Y-12503452D01*
X8671548Y-12493928D01*
X8671548Y-12512976D01*
X8671548Y-12389167D02*
X8681071Y-12398690D01*
X8671548Y-12408214D01*
X8662024Y-12398690D01*
X8671548Y-12389167D01*
X8671548Y-12408214D01*
D12*
X7022500Y-12832500D02*
X7042500Y-12852500D01*
X7042500Y-12832500D02*
X7022500Y-12852500D01*
D11*
X7338214Y-12732976D02*
X7357262Y-12732976D01*
X7376309Y-12742500D01*
X7385833Y-12752024D01*
X7395357Y-12771071D01*
X7404881Y-12809167D01*
X7404881Y-12856786D01*
X7395357Y-12894881D01*
X7385833Y-12913928D01*
X7376309Y-12923452D01*
X7357262Y-12932976D01*
X7338214Y-12932976D01*
X7319167Y-12923452D01*
X7309643Y-12913928D01*
X7300119Y-12894881D01*
X7290595Y-12856786D01*
X7290595Y-12809167D01*
X7300119Y-12771071D01*
X7309643Y-12752024D01*
X7319167Y-12742500D01*
X7338214Y-12732976D01*
X7490595Y-12913928D02*
X7500119Y-12923452D01*
X7490595Y-12932976D01*
X7481071Y-12923452D01*
X7490595Y-12913928D01*
X7490595Y-12932976D01*
X7576309Y-12752024D02*
X7585833Y-12742500D01*
X7604881Y-12732976D01*
X7652500Y-12732976D01*
X7671548Y-12742500D01*
X7681071Y-12752024D01*
X7690595Y-12771071D01*
X7690595Y-12790119D01*
X7681071Y-12818690D01*
X7566786Y-12932976D01*
X7690595Y-12932976D01*
X7814405Y-12732976D02*
X7833452Y-12732976D01*
X7852500Y-12742500D01*
X7862024Y-12752024D01*
X7871548Y-12771071D01*
X7881071Y-12809167D01*
X7881071Y-12856786D01*
X7871548Y-12894881D01*
X7862024Y-12913928D01*
X7852500Y-12923452D01*
X7833452Y-12932976D01*
X7814405Y-12932976D01*
X7795357Y-12923452D01*
X7785833Y-12913928D01*
X7776309Y-12894881D01*
X7766786Y-12856786D01*
X7766786Y-12809167D01*
X7776309Y-12771071D01*
X7785833Y-12752024D01*
X7795357Y-12742500D01*
X7814405Y-12732976D01*
X8004881Y-12732976D02*
X8023928Y-12732976D01*
X8042976Y-12742500D01*
X8052500Y-12752024D01*
X8062024Y-12771071D01*
X8071548Y-12809167D01*
X8071548Y-12856786D01*
X8062024Y-12894881D01*
X8052500Y-12913928D01*
X8042976Y-12923452D01*
X8023928Y-12932976D01*
X8004881Y-12932976D01*
X7985833Y-12923452D01*
X7976309Y-12913928D01*
X7966786Y-12894881D01*
X7957262Y-12856786D01*
X7957262Y-12809167D01*
X7966786Y-12771071D01*
X7976309Y-12752024D01*
X7985833Y-12742500D01*
X8004881Y-12732976D01*
X8157262Y-12932976D02*
X8157262Y-12799643D01*
X8157262Y-12818690D02*
X8166786Y-12809167D01*
X8185833Y-12799643D01*
X8214405Y-12799643D01*
X8233452Y-12809167D01*
X8242976Y-12828214D01*
X8242976Y-12932976D01*
X8242976Y-12828214D02*
X8252500Y-12809167D01*
X8271548Y-12799643D01*
X8300119Y-12799643D01*
X8319167Y-12809167D01*
X8328690Y-12828214D01*
X8328690Y-12932976D01*
X8423929Y-12932976D02*
X8423929Y-12799643D01*
X8423929Y-12818690D02*
X8433452Y-12809167D01*
X8452500Y-12799643D01*
X8481071Y-12799643D01*
X8500119Y-12809167D01*
X8509643Y-12828214D01*
X8509643Y-12932976D01*
X8509643Y-12828214D02*
X8519167Y-12809167D01*
X8538214Y-12799643D01*
X8566786Y-12799643D01*
X8585833Y-12809167D01*
X8595357Y-12828214D01*
X8595357Y-12932976D01*
X8985833Y-12723452D02*
X8814405Y-12980595D01*
X9242976Y-12732976D02*
X9262024Y-12732976D01*
X9281071Y-12742500D01*
X9290595Y-12752024D01*
X9300119Y-12771071D01*
X9309643Y-12809167D01*
X9309643Y-12856786D01*
X9300119Y-12894881D01*
X9290595Y-12913928D01*
X9281071Y-12923452D01*
X9262024Y-12932976D01*
X9242976Y-12932976D01*
X9223929Y-12923452D01*
X9214405Y-12913928D01*
X9204881Y-12894881D01*
X9195357Y-12856786D01*
X9195357Y-12809167D01*
X9204881Y-12771071D01*
X9214405Y-12752024D01*
X9223929Y-12742500D01*
X9242976Y-12732976D01*
X9395357Y-12913928D02*
X9404881Y-12923452D01*
X9395357Y-12932976D01*
X9385833Y-12923452D01*
X9395357Y-12913928D01*
X9395357Y-12932976D01*
X9528690Y-12732976D02*
X9547738Y-12732976D01*
X9566786Y-12742500D01*
X9576310Y-12752024D01*
X9585833Y-12771071D01*
X9595357Y-12809167D01*
X9595357Y-12856786D01*
X9585833Y-12894881D01*
X9576310Y-12913928D01*
X9566786Y-12923452D01*
X9547738Y-12932976D01*
X9528690Y-12932976D01*
X9509643Y-12923452D01*
X9500119Y-12913928D01*
X9490595Y-12894881D01*
X9481071Y-12856786D01*
X9481071Y-12809167D01*
X9490595Y-12771071D01*
X9500119Y-12752024D01*
X9509643Y-12742500D01*
X9528690Y-12732976D01*
X9719167Y-12732976D02*
X9738214Y-12732976D01*
X9757262Y-12742500D01*
X9766786Y-12752024D01*
X9776310Y-12771071D01*
X9785833Y-12809167D01*
X9785833Y-12856786D01*
X9776310Y-12894881D01*
X9766786Y-12913928D01*
X9757262Y-12923452D01*
X9738214Y-12932976D01*
X9719167Y-12932976D01*
X9700119Y-12923452D01*
X9690595Y-12913928D01*
X9681071Y-12894881D01*
X9671548Y-12856786D01*
X9671548Y-12809167D01*
X9681071Y-12771071D01*
X9690595Y-12752024D01*
X9700119Y-12742500D01*
X9719167Y-12732976D01*
X9852500Y-12732976D02*
X9985833Y-12732976D01*
X9900119Y-12932976D01*
X10071548Y-12932976D02*
X10109643Y-12932976D01*
X10128690Y-12923452D01*
X10138214Y-12913928D01*
X10157262Y-12885357D01*
X10166786Y-12847262D01*
X10166786Y-12771071D01*
X10157262Y-12752024D01*
X10147738Y-12742500D01*
X10128690Y-12732976D01*
X10090595Y-12732976D01*
X10071548Y-12742500D01*
X10062024Y-12752024D01*
X10052500Y-12771071D01*
X10052500Y-12818690D01*
X10062024Y-12837738D01*
X10071548Y-12847262D01*
X10090595Y-12856786D01*
X10128690Y-12856786D01*
X10147738Y-12847262D01*
X10157262Y-12837738D01*
X10166786Y-12818690D01*
X10242976Y-12732976D02*
X10242976Y-12771071D01*
X10319167Y-12732976D02*
X10319167Y-12771071D01*
X10614405Y-13009167D02*
X10604881Y-12999643D01*
X10585833Y-12971071D01*
X10576310Y-12952024D01*
X10566786Y-12923452D01*
X10557262Y-12875833D01*
X10557262Y-12837738D01*
X10566786Y-12790119D01*
X10576310Y-12761548D01*
X10585833Y-12742500D01*
X10604881Y-12713928D01*
X10614405Y-12704405D01*
X10776310Y-12799643D02*
X10776310Y-12932976D01*
X10728690Y-12723452D02*
X10681071Y-12866309D01*
X10804881Y-12866309D01*
X10966786Y-12799643D02*
X10966786Y-12932976D01*
X10919167Y-12723452D02*
X10871548Y-12866309D01*
X10995357Y-12866309D01*
X11157262Y-12799643D02*
X11157262Y-12932976D01*
X11109643Y-12723452D02*
X11062024Y-12866309D01*
X11185833Y-12866309D01*
X11414405Y-12932976D02*
X11414405Y-12732976D01*
X11500119Y-12932976D02*
X11500119Y-12828214D01*
X11490595Y-12809167D01*
X11471548Y-12799643D01*
X11442976Y-12799643D01*
X11423928Y-12809167D01*
X11414405Y-12818690D01*
X11623928Y-12932976D02*
X11604881Y-12923452D01*
X11595357Y-12913928D01*
X11585833Y-12894881D01*
X11585833Y-12837738D01*
X11595357Y-12818690D01*
X11604881Y-12809167D01*
X11623928Y-12799643D01*
X11652500Y-12799643D01*
X11671548Y-12809167D01*
X11681071Y-12818690D01*
X11690595Y-12837738D01*
X11690595Y-12894881D01*
X11681071Y-12913928D01*
X11671548Y-12923452D01*
X11652500Y-12932976D01*
X11623928Y-12932976D01*
X11804881Y-12932976D02*
X11785833Y-12923452D01*
X11776309Y-12904405D01*
X11776309Y-12732976D01*
X11957262Y-12923452D02*
X11938214Y-12932976D01*
X11900119Y-12932976D01*
X11881071Y-12923452D01*
X11871548Y-12904405D01*
X11871548Y-12828214D01*
X11881071Y-12809167D01*
X11900119Y-12799643D01*
X11938214Y-12799643D01*
X11957262Y-12809167D01*
X11966786Y-12828214D01*
X11966786Y-12847262D01*
X11871548Y-12866309D01*
X12042976Y-12923452D02*
X12062024Y-12932976D01*
X12100119Y-12932976D01*
X12119167Y-12923452D01*
X12128690Y-12904405D01*
X12128690Y-12894881D01*
X12119167Y-12875833D01*
X12100119Y-12866309D01*
X12071548Y-12866309D01*
X12052500Y-12856786D01*
X12042976Y-12837738D01*
X12042976Y-12828214D01*
X12052500Y-12809167D01*
X12071548Y-12799643D01*
X12100119Y-12799643D01*
X12119167Y-12809167D01*
X12195357Y-13009167D02*
X12204881Y-12999643D01*
X12223928Y-12971071D01*
X12233452Y-12952024D01*
X12242976Y-12923452D01*
X12252500Y-12875833D01*
X12252500Y-12837738D01*
X12242976Y-12790119D01*
X12233452Y-12761548D01*
X12223928Y-12742500D01*
X12204881Y-12713928D01*
X12195357Y-12704405D01*
D12*
X7042500Y-13106500D02*
G75*
G03*
X7042500Y-13106500I-10000J0D01*
G01*
D11*
X7338214Y-12996976D02*
X7357262Y-12996976D01*
X7376309Y-13006500D01*
X7385833Y-13016024D01*
X7395357Y-13035071D01*
X7404881Y-13073167D01*
X7404881Y-13120786D01*
X7395357Y-13158881D01*
X7385833Y-13177928D01*
X7376309Y-13187452D01*
X7357262Y-13196976D01*
X7338214Y-13196976D01*
X7319167Y-13187452D01*
X7309643Y-13177928D01*
X7300119Y-13158881D01*
X7290595Y-13120786D01*
X7290595Y-13073167D01*
X7300119Y-13035071D01*
X7309643Y-13016024D01*
X7319167Y-13006500D01*
X7338214Y-12996976D01*
X7490595Y-13177928D02*
X7500119Y-13187452D01*
X7490595Y-13196976D01*
X7481071Y-13187452D01*
X7490595Y-13177928D01*
X7490595Y-13196976D01*
X7576309Y-13016024D02*
X7585833Y-13006500D01*
X7604881Y-12996976D01*
X7652500Y-12996976D01*
X7671548Y-13006500D01*
X7681071Y-13016024D01*
X7690595Y-13035071D01*
X7690595Y-13054119D01*
X7681071Y-13082690D01*
X7566786Y-13196976D01*
X7690595Y-13196976D01*
X7814405Y-12996976D02*
X7833452Y-12996976D01*
X7852500Y-13006500D01*
X7862024Y-13016024D01*
X7871548Y-13035071D01*
X7881071Y-13073167D01*
X7881071Y-13120786D01*
X7871548Y-13158881D01*
X7862024Y-13177928D01*
X7852500Y-13187452D01*
X7833452Y-13196976D01*
X7814405Y-13196976D01*
X7795357Y-13187452D01*
X7785833Y-13177928D01*
X7776309Y-13158881D01*
X7766786Y-13120786D01*
X7766786Y-13073167D01*
X7776309Y-13035071D01*
X7785833Y-13016024D01*
X7795357Y-13006500D01*
X7814405Y-12996976D01*
X8004881Y-12996976D02*
X8023928Y-12996976D01*
X8042976Y-13006500D01*
X8052500Y-13016024D01*
X8062024Y-13035071D01*
X8071548Y-13073167D01*
X8071548Y-13120786D01*
X8062024Y-13158881D01*
X8052500Y-13177928D01*
X8042976Y-13187452D01*
X8023928Y-13196976D01*
X8004881Y-13196976D01*
X7985833Y-13187452D01*
X7976309Y-13177928D01*
X7966786Y-13158881D01*
X7957262Y-13120786D01*
X7957262Y-13073167D01*
X7966786Y-13035071D01*
X7976309Y-13016024D01*
X7985833Y-13006500D01*
X8004881Y-12996976D01*
X8157262Y-13196976D02*
X8157262Y-13063643D01*
X8157262Y-13082690D02*
X8166786Y-13073167D01*
X8185833Y-13063643D01*
X8214405Y-13063643D01*
X8233452Y-13073167D01*
X8242976Y-13092214D01*
X8242976Y-13196976D01*
X8242976Y-13092214D02*
X8252500Y-13073167D01*
X8271548Y-13063643D01*
X8300119Y-13063643D01*
X8319167Y-13073167D01*
X8328690Y-13092214D01*
X8328690Y-13196976D01*
X8423929Y-13196976D02*
X8423929Y-13063643D01*
X8423929Y-13082690D02*
X8433452Y-13073167D01*
X8452500Y-13063643D01*
X8481071Y-13063643D01*
X8500119Y-13073167D01*
X8509643Y-13092214D01*
X8509643Y-13196976D01*
X8509643Y-13092214D02*
X8519167Y-13073167D01*
X8538214Y-13063643D01*
X8566786Y-13063643D01*
X8585833Y-13073167D01*
X8595357Y-13092214D01*
X8595357Y-13196976D01*
X8985833Y-12987452D02*
X8814405Y-13244595D01*
X9242976Y-12996976D02*
X9262024Y-12996976D01*
X9281071Y-13006500D01*
X9290595Y-13016024D01*
X9300119Y-13035071D01*
X9309643Y-13073167D01*
X9309643Y-13120786D01*
X9300119Y-13158881D01*
X9290595Y-13177928D01*
X9281071Y-13187452D01*
X9262024Y-13196976D01*
X9242976Y-13196976D01*
X9223929Y-13187452D01*
X9214405Y-13177928D01*
X9204881Y-13158881D01*
X9195357Y-13120786D01*
X9195357Y-13073167D01*
X9204881Y-13035071D01*
X9214405Y-13016024D01*
X9223929Y-13006500D01*
X9242976Y-12996976D01*
X9395357Y-13177928D02*
X9404881Y-13187452D01*
X9395357Y-13196976D01*
X9385833Y-13187452D01*
X9395357Y-13177928D01*
X9395357Y-13196976D01*
X9528690Y-12996976D02*
X9547738Y-12996976D01*
X9566786Y-13006500D01*
X9576310Y-13016024D01*
X9585833Y-13035071D01*
X9595357Y-13073167D01*
X9595357Y-13120786D01*
X9585833Y-13158881D01*
X9576310Y-13177928D01*
X9566786Y-13187452D01*
X9547738Y-13196976D01*
X9528690Y-13196976D01*
X9509643Y-13187452D01*
X9500119Y-13177928D01*
X9490595Y-13158881D01*
X9481071Y-13120786D01*
X9481071Y-13073167D01*
X9490595Y-13035071D01*
X9500119Y-13016024D01*
X9509643Y-13006500D01*
X9528690Y-12996976D01*
X9719167Y-12996976D02*
X9738214Y-12996976D01*
X9757262Y-13006500D01*
X9766786Y-13016024D01*
X9776310Y-13035071D01*
X9785833Y-13073167D01*
X9785833Y-13120786D01*
X9776310Y-13158881D01*
X9766786Y-13177928D01*
X9757262Y-13187452D01*
X9738214Y-13196976D01*
X9719167Y-13196976D01*
X9700119Y-13187452D01*
X9690595Y-13177928D01*
X9681071Y-13158881D01*
X9671548Y-13120786D01*
X9671548Y-13073167D01*
X9681071Y-13035071D01*
X9690595Y-13016024D01*
X9700119Y-13006500D01*
X9719167Y-12996976D01*
X9852500Y-12996976D02*
X9985833Y-12996976D01*
X9900119Y-13196976D01*
X10071548Y-13196976D02*
X10109643Y-13196976D01*
X10128690Y-13187452D01*
X10138214Y-13177928D01*
X10157262Y-13149357D01*
X10166786Y-13111262D01*
X10166786Y-13035071D01*
X10157262Y-13016024D01*
X10147738Y-13006500D01*
X10128690Y-12996976D01*
X10090595Y-12996976D01*
X10071548Y-13006500D01*
X10062024Y-13016024D01*
X10052500Y-13035071D01*
X10052500Y-13082690D01*
X10062024Y-13101738D01*
X10071548Y-13111262D01*
X10090595Y-13120786D01*
X10128690Y-13120786D01*
X10147738Y-13111262D01*
X10157262Y-13101738D01*
X10166786Y-13082690D01*
X10242976Y-12996976D02*
X10242976Y-13035071D01*
X10319167Y-12996976D02*
X10319167Y-13035071D01*
X10614405Y-13273167D02*
X10604881Y-13263643D01*
X10585833Y-13235071D01*
X10576310Y-13216024D01*
X10566786Y-13187452D01*
X10557262Y-13139833D01*
X10557262Y-13101738D01*
X10566786Y-13054119D01*
X10576310Y-13025548D01*
X10585833Y-13006500D01*
X10604881Y-12977928D01*
X10614405Y-12968405D01*
X10700119Y-13196976D02*
X10738214Y-13196976D01*
X10757262Y-13187452D01*
X10766786Y-13177928D01*
X10785833Y-13149357D01*
X10795357Y-13111262D01*
X10795357Y-13035071D01*
X10785833Y-13016024D01*
X10776310Y-13006500D01*
X10757262Y-12996976D01*
X10719167Y-12996976D01*
X10700119Y-13006500D01*
X10690595Y-13016024D01*
X10681071Y-13035071D01*
X10681071Y-13082690D01*
X10690595Y-13101738D01*
X10700119Y-13111262D01*
X10719167Y-13120786D01*
X10757262Y-13120786D01*
X10776310Y-13111262D01*
X10785833Y-13101738D01*
X10795357Y-13082690D01*
X11033452Y-13196976D02*
X11033452Y-12996976D01*
X11119167Y-13196976D02*
X11119167Y-13092214D01*
X11109643Y-13073167D01*
X11090595Y-13063643D01*
X11062024Y-13063643D01*
X11042976Y-13073167D01*
X11033452Y-13082690D01*
X11242976Y-13196976D02*
X11223928Y-13187452D01*
X11214405Y-13177928D01*
X11204881Y-13158881D01*
X11204881Y-13101738D01*
X11214405Y-13082690D01*
X11223928Y-13073167D01*
X11242976Y-13063643D01*
X11271548Y-13063643D01*
X11290595Y-13073167D01*
X11300119Y-13082690D01*
X11309643Y-13101738D01*
X11309643Y-13158881D01*
X11300119Y-13177928D01*
X11290595Y-13187452D01*
X11271548Y-13196976D01*
X11242976Y-13196976D01*
X11423928Y-13196976D02*
X11404881Y-13187452D01*
X11395357Y-13168405D01*
X11395357Y-12996976D01*
X11576309Y-13187452D02*
X11557262Y-13196976D01*
X11519167Y-13196976D01*
X11500119Y-13187452D01*
X11490595Y-13168405D01*
X11490595Y-13092214D01*
X11500119Y-13073167D01*
X11519167Y-13063643D01*
X11557262Y-13063643D01*
X11576309Y-13073167D01*
X11585833Y-13092214D01*
X11585833Y-13111262D01*
X11490595Y-13130309D01*
X11662024Y-13187452D02*
X11681071Y-13196976D01*
X11719167Y-13196976D01*
X11738214Y-13187452D01*
X11747738Y-13168405D01*
X11747738Y-13158881D01*
X11738214Y-13139833D01*
X11719167Y-13130309D01*
X11690595Y-13130309D01*
X11671548Y-13120786D01*
X11662024Y-13101738D01*
X11662024Y-13092214D01*
X11671548Y-13073167D01*
X11690595Y-13063643D01*
X11719167Y-13063643D01*
X11738214Y-13073167D01*
X11814405Y-13273167D02*
X11823928Y-13263643D01*
X11842976Y-13235071D01*
X11852500Y-13216024D01*
X11862024Y-13187452D01*
X11871548Y-13139833D01*
X11871548Y-13101738D01*
X11862024Y-13054119D01*
X11852500Y-13025548D01*
X11842976Y-13006500D01*
X11823928Y-12977928D01*
X11814405Y-12968405D01*
D13*
X7022500Y-13350500D02*
X7022500Y-13390500D01*
X7002500Y-13370500D02*
X7042500Y-13370500D01*
D11*
X7338214Y-13260976D02*
X7357262Y-13260976D01*
X7376309Y-13270500D01*
X7385833Y-13280024D01*
X7395357Y-13299071D01*
X7404881Y-13337167D01*
X7404881Y-13384786D01*
X7395357Y-13422881D01*
X7385833Y-13441928D01*
X7376309Y-13451452D01*
X7357262Y-13460976D01*
X7338214Y-13460976D01*
X7319167Y-13451452D01*
X7309643Y-13441928D01*
X7300119Y-13422881D01*
X7290595Y-13384786D01*
X7290595Y-13337167D01*
X7300119Y-13299071D01*
X7309643Y-13280024D01*
X7319167Y-13270500D01*
X7338214Y-13260976D01*
X7490595Y-13441928D02*
X7500119Y-13451452D01*
X7490595Y-13460976D01*
X7481071Y-13451452D01*
X7490595Y-13441928D01*
X7490595Y-13460976D01*
X7671548Y-13327643D02*
X7671548Y-13460976D01*
X7623928Y-13251452D02*
X7576309Y-13394309D01*
X7700119Y-13394309D01*
X7814405Y-13260976D02*
X7833452Y-13260976D01*
X7852500Y-13270500D01*
X7862024Y-13280024D01*
X7871548Y-13299071D01*
X7881071Y-13337167D01*
X7881071Y-13384786D01*
X7871548Y-13422881D01*
X7862024Y-13441928D01*
X7852500Y-13451452D01*
X7833452Y-13460976D01*
X7814405Y-13460976D01*
X7795357Y-13451452D01*
X7785833Y-13441928D01*
X7776309Y-13422881D01*
X7766786Y-13384786D01*
X7766786Y-13337167D01*
X7776309Y-13299071D01*
X7785833Y-13280024D01*
X7795357Y-13270500D01*
X7814405Y-13260976D01*
X8004881Y-13260976D02*
X8023928Y-13260976D01*
X8042976Y-13270500D01*
X8052500Y-13280024D01*
X8062024Y-13299071D01*
X8071548Y-13337167D01*
X8071548Y-13384786D01*
X8062024Y-13422881D01*
X8052500Y-13441928D01*
X8042976Y-13451452D01*
X8023928Y-13460976D01*
X8004881Y-13460976D01*
X7985833Y-13451452D01*
X7976309Y-13441928D01*
X7966786Y-13422881D01*
X7957262Y-13384786D01*
X7957262Y-13337167D01*
X7966786Y-13299071D01*
X7976309Y-13280024D01*
X7985833Y-13270500D01*
X8004881Y-13260976D01*
X8157262Y-13460976D02*
X8157262Y-13327643D01*
X8157262Y-13346690D02*
X8166786Y-13337167D01*
X8185833Y-13327643D01*
X8214405Y-13327643D01*
X8233452Y-13337167D01*
X8242976Y-13356214D01*
X8242976Y-13460976D01*
X8242976Y-13356214D02*
X8252500Y-13337167D01*
X8271548Y-13327643D01*
X8300119Y-13327643D01*
X8319167Y-13337167D01*
X8328690Y-13356214D01*
X8328690Y-13460976D01*
X8423929Y-13460976D02*
X8423929Y-13327643D01*
X8423929Y-13346690D02*
X8433452Y-13337167D01*
X8452500Y-13327643D01*
X8481071Y-13327643D01*
X8500119Y-13337167D01*
X8509643Y-13356214D01*
X8509643Y-13460976D01*
X8509643Y-13356214D02*
X8519167Y-13337167D01*
X8538214Y-13327643D01*
X8566786Y-13327643D01*
X8585833Y-13337167D01*
X8595357Y-13356214D01*
X8595357Y-13460976D01*
X8985833Y-13251452D02*
X8814405Y-13508595D01*
X9242976Y-13260976D02*
X9262024Y-13260976D01*
X9281071Y-13270500D01*
X9290595Y-13280024D01*
X9300119Y-13299071D01*
X9309643Y-13337167D01*
X9309643Y-13384786D01*
X9300119Y-13422881D01*
X9290595Y-13441928D01*
X9281071Y-13451452D01*
X9262024Y-13460976D01*
X9242976Y-13460976D01*
X9223929Y-13451452D01*
X9214405Y-13441928D01*
X9204881Y-13422881D01*
X9195357Y-13384786D01*
X9195357Y-13337167D01*
X9204881Y-13299071D01*
X9214405Y-13280024D01*
X9223929Y-13270500D01*
X9242976Y-13260976D01*
X9395357Y-13441928D02*
X9404881Y-13451452D01*
X9395357Y-13460976D01*
X9385833Y-13451452D01*
X9395357Y-13441928D01*
X9395357Y-13460976D01*
X9528690Y-13260976D02*
X9547738Y-13260976D01*
X9566786Y-13270500D01*
X9576310Y-13280024D01*
X9585833Y-13299071D01*
X9595357Y-13337167D01*
X9595357Y-13384786D01*
X9585833Y-13422881D01*
X9576310Y-13441928D01*
X9566786Y-13451452D01*
X9547738Y-13460976D01*
X9528690Y-13460976D01*
X9509643Y-13451452D01*
X9500119Y-13441928D01*
X9490595Y-13422881D01*
X9481071Y-13384786D01*
X9481071Y-13337167D01*
X9490595Y-13299071D01*
X9500119Y-13280024D01*
X9509643Y-13270500D01*
X9528690Y-13260976D01*
X9785833Y-13460976D02*
X9671548Y-13460976D01*
X9728690Y-13460976D02*
X9728690Y-13260976D01*
X9709643Y-13289548D01*
X9690595Y-13308595D01*
X9671548Y-13318119D01*
X9966786Y-13260976D02*
X9871548Y-13260976D01*
X9862024Y-13356214D01*
X9871548Y-13346690D01*
X9890595Y-13337167D01*
X9938214Y-13337167D01*
X9957262Y-13346690D01*
X9966786Y-13356214D01*
X9976310Y-13375262D01*
X9976310Y-13422881D01*
X9966786Y-13441928D01*
X9957262Y-13451452D01*
X9938214Y-13460976D01*
X9890595Y-13460976D01*
X9871548Y-13451452D01*
X9862024Y-13441928D01*
X10042976Y-13260976D02*
X10176310Y-13260976D01*
X10090595Y-13460976D01*
X10242976Y-13260976D02*
X10242976Y-13299071D01*
X10319167Y-13260976D02*
X10319167Y-13299071D01*
X10614405Y-13537167D02*
X10604881Y-13527643D01*
X10585833Y-13499071D01*
X10576310Y-13480024D01*
X10566786Y-13451452D01*
X10557262Y-13403833D01*
X10557262Y-13365738D01*
X10566786Y-13318119D01*
X10576310Y-13289548D01*
X10585833Y-13270500D01*
X10604881Y-13241928D01*
X10614405Y-13232405D01*
X10681071Y-13280024D02*
X10690595Y-13270500D01*
X10709643Y-13260976D01*
X10757262Y-13260976D01*
X10776310Y-13270500D01*
X10785833Y-13280024D01*
X10795357Y-13299071D01*
X10795357Y-13318119D01*
X10785833Y-13346690D01*
X10671548Y-13460976D01*
X10795357Y-13460976D01*
X10976310Y-13260976D02*
X10881071Y-13260976D01*
X10871548Y-13356214D01*
X10881071Y-13346690D01*
X10900119Y-13337167D01*
X10947738Y-13337167D01*
X10966786Y-13346690D01*
X10976310Y-13356214D01*
X10985833Y-13375262D01*
X10985833Y-13422881D01*
X10976310Y-13441928D01*
X10966786Y-13451452D01*
X10947738Y-13460976D01*
X10900119Y-13460976D01*
X10881071Y-13451452D01*
X10871548Y-13441928D01*
X11081071Y-13460976D02*
X11119167Y-13460976D01*
X11138214Y-13451452D01*
X11147738Y-13441928D01*
X11166786Y-13413357D01*
X11176310Y-13375262D01*
X11176310Y-13299071D01*
X11166786Y-13280024D01*
X11157262Y-13270500D01*
X11138214Y-13260976D01*
X11100119Y-13260976D01*
X11081071Y-13270500D01*
X11071548Y-13280024D01*
X11062024Y-13299071D01*
X11062024Y-13346690D01*
X11071548Y-13365738D01*
X11081071Y-13375262D01*
X11100119Y-13384786D01*
X11138214Y-13384786D01*
X11157262Y-13375262D01*
X11166786Y-13365738D01*
X11176310Y-13346690D01*
X11414405Y-13460976D02*
X11414405Y-13260976D01*
X11500119Y-13460976D02*
X11500119Y-13356214D01*
X11490595Y-13337167D01*
X11471548Y-13327643D01*
X11442976Y-13327643D01*
X11423928Y-13337167D01*
X11414405Y-13346690D01*
X11623928Y-13460976D02*
X11604881Y-13451452D01*
X11595357Y-13441928D01*
X11585833Y-13422881D01*
X11585833Y-13365738D01*
X11595357Y-13346690D01*
X11604881Y-13337167D01*
X11623928Y-13327643D01*
X11652500Y-13327643D01*
X11671548Y-13337167D01*
X11681071Y-13346690D01*
X11690595Y-13365738D01*
X11690595Y-13422881D01*
X11681071Y-13441928D01*
X11671548Y-13451452D01*
X11652500Y-13460976D01*
X11623928Y-13460976D01*
X11804881Y-13460976D02*
X11785833Y-13451452D01*
X11776309Y-13432405D01*
X11776309Y-13260976D01*
X11957262Y-13451452D02*
X11938214Y-13460976D01*
X11900119Y-13460976D01*
X11881071Y-13451452D01*
X11871548Y-13432405D01*
X11871548Y-13356214D01*
X11881071Y-13337167D01*
X11900119Y-13327643D01*
X11938214Y-13327643D01*
X11957262Y-13337167D01*
X11966786Y-13356214D01*
X11966786Y-13375262D01*
X11871548Y-13394309D01*
X12042976Y-13451452D02*
X12062024Y-13460976D01*
X12100119Y-13460976D01*
X12119167Y-13451452D01*
X12128690Y-13432405D01*
X12128690Y-13422881D01*
X12119167Y-13403833D01*
X12100119Y-13394309D01*
X12071548Y-13394309D01*
X12052500Y-13384786D01*
X12042976Y-13365738D01*
X12042976Y-13356214D01*
X12052500Y-13337167D01*
X12071548Y-13327643D01*
X12100119Y-13327643D01*
X12119167Y-13337167D01*
X12195357Y-13537167D02*
X12204881Y-13527643D01*
X12223928Y-13499071D01*
X12233452Y-13480024D01*
X12242976Y-13451452D01*
X12252500Y-13403833D01*
X12252500Y-13365738D01*
X12242976Y-13318119D01*
X12233452Y-13289548D01*
X12223928Y-13270500D01*
X12204881Y-13241928D01*
X12195357Y-13232405D01*
D14*
X7035178Y-13652178D02*
X7035178Y-13616822D01*
X6999822Y-13616822D01*
X6999822Y-13652178D01*
X7035178Y-13652178D01*
D11*
X7338214Y-13524976D02*
X7357262Y-13524976D01*
X7376309Y-13534500D01*
X7385833Y-13544024D01*
X7395357Y-13563071D01*
X7404881Y-13601167D01*
X7404881Y-13648786D01*
X7395357Y-13686881D01*
X7385833Y-13705928D01*
X7376309Y-13715452D01*
X7357262Y-13724976D01*
X7338214Y-13724976D01*
X7319167Y-13715452D01*
X7309643Y-13705928D01*
X7300119Y-13686881D01*
X7290595Y-13648786D01*
X7290595Y-13601167D01*
X7300119Y-13563071D01*
X7309643Y-13544024D01*
X7319167Y-13534500D01*
X7338214Y-13524976D01*
X7490595Y-13705928D02*
X7500119Y-13715452D01*
X7490595Y-13724976D01*
X7481071Y-13715452D01*
X7490595Y-13705928D01*
X7490595Y-13724976D01*
X7681071Y-13524976D02*
X7585833Y-13524976D01*
X7576309Y-13620214D01*
X7585833Y-13610690D01*
X7604881Y-13601167D01*
X7652500Y-13601167D01*
X7671548Y-13610690D01*
X7681071Y-13620214D01*
X7690595Y-13639262D01*
X7690595Y-13686881D01*
X7681071Y-13705928D01*
X7671548Y-13715452D01*
X7652500Y-13724976D01*
X7604881Y-13724976D01*
X7585833Y-13715452D01*
X7576309Y-13705928D01*
X7814405Y-13524976D02*
X7833452Y-13524976D01*
X7852500Y-13534500D01*
X7862024Y-13544024D01*
X7871548Y-13563071D01*
X7881071Y-13601167D01*
X7881071Y-13648786D01*
X7871548Y-13686881D01*
X7862024Y-13705928D01*
X7852500Y-13715452D01*
X7833452Y-13724976D01*
X7814405Y-13724976D01*
X7795357Y-13715452D01*
X7785833Y-13705928D01*
X7776309Y-13686881D01*
X7766786Y-13648786D01*
X7766786Y-13601167D01*
X7776309Y-13563071D01*
X7785833Y-13544024D01*
X7795357Y-13534500D01*
X7814405Y-13524976D01*
X8004881Y-13524976D02*
X8023928Y-13524976D01*
X8042976Y-13534500D01*
X8052500Y-13544024D01*
X8062024Y-13563071D01*
X8071548Y-13601167D01*
X8071548Y-13648786D01*
X8062024Y-13686881D01*
X8052500Y-13705928D01*
X8042976Y-13715452D01*
X8023928Y-13724976D01*
X8004881Y-13724976D01*
X7985833Y-13715452D01*
X7976309Y-13705928D01*
X7966786Y-13686881D01*
X7957262Y-13648786D01*
X7957262Y-13601167D01*
X7966786Y-13563071D01*
X7976309Y-13544024D01*
X7985833Y-13534500D01*
X8004881Y-13524976D01*
X8157262Y-13724976D02*
X8157262Y-13591643D01*
X8157262Y-13610690D02*
X8166786Y-13601167D01*
X8185833Y-13591643D01*
X8214405Y-13591643D01*
X8233452Y-13601167D01*
X8242976Y-13620214D01*
X8242976Y-13724976D01*
X8242976Y-13620214D02*
X8252500Y-13601167D01*
X8271548Y-13591643D01*
X8300119Y-13591643D01*
X8319167Y-13601167D01*
X8328690Y-13620214D01*
X8328690Y-13724976D01*
X8423929Y-13724976D02*
X8423929Y-13591643D01*
X8423929Y-13610690D02*
X8433452Y-13601167D01*
X8452500Y-13591643D01*
X8481071Y-13591643D01*
X8500119Y-13601167D01*
X8509643Y-13620214D01*
X8509643Y-13724976D01*
X8509643Y-13620214D02*
X8519167Y-13601167D01*
X8538214Y-13591643D01*
X8566786Y-13591643D01*
X8585833Y-13601167D01*
X8595357Y-13620214D01*
X8595357Y-13724976D01*
X8985833Y-13515452D02*
X8814405Y-13772595D01*
X9242976Y-13524976D02*
X9262024Y-13524976D01*
X9281071Y-13534500D01*
X9290595Y-13544024D01*
X9300119Y-13563071D01*
X9309643Y-13601167D01*
X9309643Y-13648786D01*
X9300119Y-13686881D01*
X9290595Y-13705928D01*
X9281071Y-13715452D01*
X9262024Y-13724976D01*
X9242976Y-13724976D01*
X9223929Y-13715452D01*
X9214405Y-13705928D01*
X9204881Y-13686881D01*
X9195357Y-13648786D01*
X9195357Y-13601167D01*
X9204881Y-13563071D01*
X9214405Y-13544024D01*
X9223929Y-13534500D01*
X9242976Y-13524976D01*
X9395357Y-13705928D02*
X9404881Y-13715452D01*
X9395357Y-13724976D01*
X9385833Y-13715452D01*
X9395357Y-13705928D01*
X9395357Y-13724976D01*
X9528690Y-13524976D02*
X9547738Y-13524976D01*
X9566786Y-13534500D01*
X9576310Y-13544024D01*
X9585833Y-13563071D01*
X9595357Y-13601167D01*
X9595357Y-13648786D01*
X9585833Y-13686881D01*
X9576310Y-13705928D01*
X9566786Y-13715452D01*
X9547738Y-13724976D01*
X9528690Y-13724976D01*
X9509643Y-13715452D01*
X9500119Y-13705928D01*
X9490595Y-13686881D01*
X9481071Y-13648786D01*
X9481071Y-13601167D01*
X9490595Y-13563071D01*
X9500119Y-13544024D01*
X9509643Y-13534500D01*
X9528690Y-13524976D01*
X9785833Y-13724976D02*
X9671548Y-13724976D01*
X9728690Y-13724976D02*
X9728690Y-13524976D01*
X9709643Y-13553548D01*
X9690595Y-13572595D01*
X9671548Y-13582119D01*
X9881071Y-13724976D02*
X9919167Y-13724976D01*
X9938214Y-13715452D01*
X9947738Y-13705928D01*
X9966786Y-13677357D01*
X9976310Y-13639262D01*
X9976310Y-13563071D01*
X9966786Y-13544024D01*
X9957262Y-13534500D01*
X9938214Y-13524976D01*
X9900119Y-13524976D01*
X9881071Y-13534500D01*
X9871548Y-13544024D01*
X9862024Y-13563071D01*
X9862024Y-13610690D01*
X9871548Y-13629738D01*
X9881071Y-13639262D01*
X9900119Y-13648786D01*
X9938214Y-13648786D01*
X9957262Y-13639262D01*
X9966786Y-13629738D01*
X9976310Y-13610690D01*
X10042976Y-13524976D02*
X10176310Y-13524976D01*
X10090595Y-13724976D01*
X10242976Y-13524976D02*
X10242976Y-13563071D01*
X10319167Y-13524976D02*
X10319167Y-13563071D01*
X10614405Y-13801167D02*
X10604881Y-13791643D01*
X10585833Y-13763071D01*
X10576310Y-13744024D01*
X10566786Y-13715452D01*
X10557262Y-13667833D01*
X10557262Y-13629738D01*
X10566786Y-13582119D01*
X10576310Y-13553548D01*
X10585833Y-13534500D01*
X10604881Y-13505928D01*
X10614405Y-13496405D01*
X10681071Y-13544024D02*
X10690595Y-13534500D01*
X10709643Y-13524976D01*
X10757262Y-13524976D01*
X10776310Y-13534500D01*
X10785833Y-13544024D01*
X10795357Y-13563071D01*
X10795357Y-13582119D01*
X10785833Y-13610690D01*
X10671548Y-13724976D01*
X10795357Y-13724976D01*
X11033452Y-13724976D02*
X11033452Y-13524976D01*
X11119167Y-13724976D02*
X11119167Y-13620214D01*
X11109643Y-13601167D01*
X11090595Y-13591643D01*
X11062024Y-13591643D01*
X11042976Y-13601167D01*
X11033452Y-13610690D01*
X11242976Y-13724976D02*
X11223928Y-13715452D01*
X11214405Y-13705928D01*
X11204881Y-13686881D01*
X11204881Y-13629738D01*
X11214405Y-13610690D01*
X11223928Y-13601167D01*
X11242976Y-13591643D01*
X11271548Y-13591643D01*
X11290595Y-13601167D01*
X11300119Y-13610690D01*
X11309643Y-13629738D01*
X11309643Y-13686881D01*
X11300119Y-13705928D01*
X11290595Y-13715452D01*
X11271548Y-13724976D01*
X11242976Y-13724976D01*
X11423928Y-13724976D02*
X11404881Y-13715452D01*
X11395357Y-13696405D01*
X11395357Y-13524976D01*
X11576309Y-13715452D02*
X11557262Y-13724976D01*
X11519167Y-13724976D01*
X11500119Y-13715452D01*
X11490595Y-13696405D01*
X11490595Y-13620214D01*
X11500119Y-13601167D01*
X11519167Y-13591643D01*
X11557262Y-13591643D01*
X11576309Y-13601167D01*
X11585833Y-13620214D01*
X11585833Y-13639262D01*
X11490595Y-13658309D01*
X11662024Y-13715452D02*
X11681071Y-13724976D01*
X11719167Y-13724976D01*
X11738214Y-13715452D01*
X11747738Y-13696405D01*
X11747738Y-13686881D01*
X11738214Y-13667833D01*
X11719167Y-13658309D01*
X11690595Y-13658309D01*
X11671548Y-13648786D01*
X11662024Y-13629738D01*
X11662024Y-13620214D01*
X11671548Y-13601167D01*
X11690595Y-13591643D01*
X11719167Y-13591643D01*
X11738214Y-13601167D01*
X11814405Y-13801167D02*
X11823928Y-13791643D01*
X11842976Y-13763071D01*
X11852500Y-13744024D01*
X11862024Y-13715452D01*
X11871548Y-13667833D01*
X11871548Y-13629738D01*
X11862024Y-13582119D01*
X11852500Y-13553548D01*
X11842976Y-13534500D01*
X11823928Y-13505928D01*
X11814405Y-13496405D01*
D15*
X7012500Y-13928500D02*
X7042500Y-13898500D01*
X7012500Y-13868500D01*
X6982500Y-13898500D01*
X7012500Y-13928500D01*
D11*
X7338214Y-13788976D02*
X7357262Y-13788976D01*
X7376309Y-13798500D01*
X7385833Y-13808024D01*
X7395357Y-13827071D01*
X7404881Y-13865167D01*
X7404881Y-13912786D01*
X7395357Y-13950881D01*
X7385833Y-13969928D01*
X7376309Y-13979452D01*
X7357262Y-13988976D01*
X7338214Y-13988976D01*
X7319167Y-13979452D01*
X7309643Y-13969928D01*
X7300119Y-13950881D01*
X7290595Y-13912786D01*
X7290595Y-13865167D01*
X7300119Y-13827071D01*
X7309643Y-13808024D01*
X7319167Y-13798500D01*
X7338214Y-13788976D01*
X7490595Y-13969928D02*
X7500119Y-13979452D01*
X7490595Y-13988976D01*
X7481071Y-13979452D01*
X7490595Y-13969928D01*
X7490595Y-13988976D01*
X7671548Y-13788976D02*
X7633452Y-13788976D01*
X7614405Y-13798500D01*
X7604881Y-13808024D01*
X7585833Y-13836595D01*
X7576309Y-13874690D01*
X7576309Y-13950881D01*
X7585833Y-13969928D01*
X7595357Y-13979452D01*
X7614405Y-13988976D01*
X7652500Y-13988976D01*
X7671548Y-13979452D01*
X7681071Y-13969928D01*
X7690595Y-13950881D01*
X7690595Y-13903262D01*
X7681071Y-13884214D01*
X7671548Y-13874690D01*
X7652500Y-13865167D01*
X7614405Y-13865167D01*
X7595357Y-13874690D01*
X7585833Y-13884214D01*
X7576309Y-13903262D01*
X7814405Y-13788976D02*
X7833452Y-13788976D01*
X7852500Y-13798500D01*
X7862024Y-13808024D01*
X7871548Y-13827071D01*
X7881071Y-13865167D01*
X7881071Y-13912786D01*
X7871548Y-13950881D01*
X7862024Y-13969928D01*
X7852500Y-13979452D01*
X7833452Y-13988976D01*
X7814405Y-13988976D01*
X7795357Y-13979452D01*
X7785833Y-13969928D01*
X7776309Y-13950881D01*
X7766786Y-13912786D01*
X7766786Y-13865167D01*
X7776309Y-13827071D01*
X7785833Y-13808024D01*
X7795357Y-13798500D01*
X7814405Y-13788976D01*
X8004881Y-13788976D02*
X8023928Y-13788976D01*
X8042976Y-13798500D01*
X8052500Y-13808024D01*
X8062024Y-13827071D01*
X8071548Y-13865167D01*
X8071548Y-13912786D01*
X8062024Y-13950881D01*
X8052500Y-13969928D01*
X8042976Y-13979452D01*
X8023928Y-13988976D01*
X8004881Y-13988976D01*
X7985833Y-13979452D01*
X7976309Y-13969928D01*
X7966786Y-13950881D01*
X7957262Y-13912786D01*
X7957262Y-13865167D01*
X7966786Y-13827071D01*
X7976309Y-13808024D01*
X7985833Y-13798500D01*
X8004881Y-13788976D01*
X8157262Y-13988976D02*
X8157262Y-13855643D01*
X8157262Y-13874690D02*
X8166786Y-13865167D01*
X8185833Y-13855643D01*
X8214405Y-13855643D01*
X8233452Y-13865167D01*
X8242976Y-13884214D01*
X8242976Y-13988976D01*
X8242976Y-13884214D02*
X8252500Y-13865167D01*
X8271548Y-13855643D01*
X8300119Y-13855643D01*
X8319167Y-13865167D01*
X8328690Y-13884214D01*
X8328690Y-13988976D01*
X8423929Y-13988976D02*
X8423929Y-13855643D01*
X8423929Y-13874690D02*
X8433452Y-13865167D01*
X8452500Y-13855643D01*
X8481071Y-13855643D01*
X8500119Y-13865167D01*
X8509643Y-13884214D01*
X8509643Y-13988976D01*
X8509643Y-13884214D02*
X8519167Y-13865167D01*
X8538214Y-13855643D01*
X8566786Y-13855643D01*
X8585833Y-13865167D01*
X8595357Y-13884214D01*
X8595357Y-13988976D01*
X8985833Y-13779452D02*
X8814405Y-14036595D01*
X9242976Y-13788976D02*
X9262024Y-13788976D01*
X9281071Y-13798500D01*
X9290595Y-13808024D01*
X9300119Y-13827071D01*
X9309643Y-13865167D01*
X9309643Y-13912786D01*
X9300119Y-13950881D01*
X9290595Y-13969928D01*
X9281071Y-13979452D01*
X9262024Y-13988976D01*
X9242976Y-13988976D01*
X9223929Y-13979452D01*
X9214405Y-13969928D01*
X9204881Y-13950881D01*
X9195357Y-13912786D01*
X9195357Y-13865167D01*
X9204881Y-13827071D01*
X9214405Y-13808024D01*
X9223929Y-13798500D01*
X9242976Y-13788976D01*
X9395357Y-13969928D02*
X9404881Y-13979452D01*
X9395357Y-13988976D01*
X9385833Y-13979452D01*
X9395357Y-13969928D01*
X9395357Y-13988976D01*
X9528690Y-13788976D02*
X9547738Y-13788976D01*
X9566786Y-13798500D01*
X9576310Y-13808024D01*
X9585833Y-13827071D01*
X9595357Y-13865167D01*
X9595357Y-13912786D01*
X9585833Y-13950881D01*
X9576310Y-13969928D01*
X9566786Y-13979452D01*
X9547738Y-13988976D01*
X9528690Y-13988976D01*
X9509643Y-13979452D01*
X9500119Y-13969928D01*
X9490595Y-13950881D01*
X9481071Y-13912786D01*
X9481071Y-13865167D01*
X9490595Y-13827071D01*
X9500119Y-13808024D01*
X9509643Y-13798500D01*
X9528690Y-13788976D01*
X9671548Y-13808024D02*
X9681071Y-13798500D01*
X9700119Y-13788976D01*
X9747738Y-13788976D01*
X9766786Y-13798500D01*
X9776310Y-13808024D01*
X9785833Y-13827071D01*
X9785833Y-13846119D01*
X9776310Y-13874690D01*
X9662024Y-13988976D01*
X9785833Y-13988976D01*
X9852500Y-13788976D02*
X9976310Y-13788976D01*
X9909643Y-13865167D01*
X9938214Y-13865167D01*
X9957262Y-13874690D01*
X9966786Y-13884214D01*
X9976310Y-13903262D01*
X9976310Y-13950881D01*
X9966786Y-13969928D01*
X9957262Y-13979452D01*
X9938214Y-13988976D01*
X9881071Y-13988976D01*
X9862024Y-13979452D01*
X9852500Y-13969928D01*
X10147738Y-13788976D02*
X10109643Y-13788976D01*
X10090595Y-13798500D01*
X10081071Y-13808024D01*
X10062024Y-13836595D01*
X10052500Y-13874690D01*
X10052500Y-13950881D01*
X10062024Y-13969928D01*
X10071548Y-13979452D01*
X10090595Y-13988976D01*
X10128690Y-13988976D01*
X10147738Y-13979452D01*
X10157262Y-13969928D01*
X10166786Y-13950881D01*
X10166786Y-13903262D01*
X10157262Y-13884214D01*
X10147738Y-13874690D01*
X10128690Y-13865167D01*
X10090595Y-13865167D01*
X10071548Y-13874690D01*
X10062024Y-13884214D01*
X10052500Y-13903262D01*
X10242976Y-13788976D02*
X10242976Y-13827071D01*
X10319167Y-13788976D02*
X10319167Y-13827071D01*
X10614405Y-14065167D02*
X10604881Y-14055643D01*
X10585833Y-14027071D01*
X10576310Y-14008024D01*
X10566786Y-13979452D01*
X10557262Y-13931833D01*
X10557262Y-13893738D01*
X10566786Y-13846119D01*
X10576310Y-13817548D01*
X10585833Y-13798500D01*
X10604881Y-13769928D01*
X10614405Y-13760405D01*
X10795357Y-13988976D02*
X10681071Y-13988976D01*
X10738214Y-13988976D02*
X10738214Y-13788976D01*
X10719167Y-13817548D01*
X10700119Y-13836595D01*
X10681071Y-13846119D01*
X11033452Y-13988976D02*
X11033452Y-13788976D01*
X11119167Y-13988976D02*
X11119167Y-13884214D01*
X11109643Y-13865167D01*
X11090595Y-13855643D01*
X11062024Y-13855643D01*
X11042976Y-13865167D01*
X11033452Y-13874690D01*
X11242976Y-13988976D02*
X11223928Y-13979452D01*
X11214405Y-13969928D01*
X11204881Y-13950881D01*
X11204881Y-13893738D01*
X11214405Y-13874690D01*
X11223928Y-13865167D01*
X11242976Y-13855643D01*
X11271548Y-13855643D01*
X11290595Y-13865167D01*
X11300119Y-13874690D01*
X11309643Y-13893738D01*
X11309643Y-13950881D01*
X11300119Y-13969928D01*
X11290595Y-13979452D01*
X11271548Y-13988976D01*
X11242976Y-13988976D01*
X11423928Y-13988976D02*
X11404881Y-13979452D01*
X11395357Y-13960405D01*
X11395357Y-13788976D01*
X11576309Y-13979452D02*
X11557262Y-13988976D01*
X11519167Y-13988976D01*
X11500119Y-13979452D01*
X11490595Y-13960405D01*
X11490595Y-13884214D01*
X11500119Y-13865167D01*
X11519167Y-13855643D01*
X11557262Y-13855643D01*
X11576309Y-13865167D01*
X11585833Y-13884214D01*
X11585833Y-13903262D01*
X11490595Y-13922309D01*
X11652500Y-14065167D02*
X11662024Y-14055643D01*
X11681071Y-14027071D01*
X11690595Y-14008024D01*
X11700119Y-13979452D01*
X11709643Y-13931833D01*
X11709643Y-13893738D01*
X11700119Y-13846119D01*
X11690595Y-13817548D01*
X11681071Y-13798500D01*
X11662024Y-13769928D01*
X11652500Y-13760405D01*
D15*
X6982500Y-14132500D02*
X7042500Y-14192500D01*
X7042500Y-14132500D02*
X6982500Y-14192500D01*
X7042500Y-14162500D02*
G75*
G03*
X7042500Y-14162500I-30000J0D01*
G01*
D11*
X7338214Y-14052976D02*
X7357262Y-14052976D01*
X7376309Y-14062500D01*
X7385833Y-14072024D01*
X7395357Y-14091071D01*
X7404881Y-14129167D01*
X7404881Y-14176786D01*
X7395357Y-14214881D01*
X7385833Y-14233928D01*
X7376309Y-14243452D01*
X7357262Y-14252976D01*
X7338214Y-14252976D01*
X7319167Y-14243452D01*
X7309643Y-14233928D01*
X7300119Y-14214881D01*
X7290595Y-14176786D01*
X7290595Y-14129167D01*
X7300119Y-14091071D01*
X7309643Y-14072024D01*
X7319167Y-14062500D01*
X7338214Y-14052976D01*
X7490595Y-14233928D02*
X7500119Y-14243452D01*
X7490595Y-14252976D01*
X7481071Y-14243452D01*
X7490595Y-14233928D01*
X7490595Y-14252976D01*
X7671548Y-14052976D02*
X7633452Y-14052976D01*
X7614405Y-14062500D01*
X7604881Y-14072024D01*
X7585833Y-14100595D01*
X7576309Y-14138690D01*
X7576309Y-14214881D01*
X7585833Y-14233928D01*
X7595357Y-14243452D01*
X7614405Y-14252976D01*
X7652500Y-14252976D01*
X7671548Y-14243452D01*
X7681071Y-14233928D01*
X7690595Y-14214881D01*
X7690595Y-14167262D01*
X7681071Y-14148214D01*
X7671548Y-14138690D01*
X7652500Y-14129167D01*
X7614405Y-14129167D01*
X7595357Y-14138690D01*
X7585833Y-14148214D01*
X7576309Y-14167262D01*
X7814405Y-14052976D02*
X7833452Y-14052976D01*
X7852500Y-14062500D01*
X7862024Y-14072024D01*
X7871548Y-14091071D01*
X7881071Y-14129167D01*
X7881071Y-14176786D01*
X7871548Y-14214881D01*
X7862024Y-14233928D01*
X7852500Y-14243452D01*
X7833452Y-14252976D01*
X7814405Y-14252976D01*
X7795357Y-14243452D01*
X7785833Y-14233928D01*
X7776309Y-14214881D01*
X7766786Y-14176786D01*
X7766786Y-14129167D01*
X7776309Y-14091071D01*
X7785833Y-14072024D01*
X7795357Y-14062500D01*
X7814405Y-14052976D01*
X8004881Y-14052976D02*
X8023928Y-14052976D01*
X8042976Y-14062500D01*
X8052500Y-14072024D01*
X8062024Y-14091071D01*
X8071548Y-14129167D01*
X8071548Y-14176786D01*
X8062024Y-14214881D01*
X8052500Y-14233928D01*
X8042976Y-14243452D01*
X8023928Y-14252976D01*
X8004881Y-14252976D01*
X7985833Y-14243452D01*
X7976309Y-14233928D01*
X7966786Y-14214881D01*
X7957262Y-14176786D01*
X7957262Y-14129167D01*
X7966786Y-14091071D01*
X7976309Y-14072024D01*
X7985833Y-14062500D01*
X8004881Y-14052976D01*
X8157262Y-14252976D02*
X8157262Y-14119643D01*
X8157262Y-14138690D02*
X8166786Y-14129167D01*
X8185833Y-14119643D01*
X8214405Y-14119643D01*
X8233452Y-14129167D01*
X8242976Y-14148214D01*
X8242976Y-14252976D01*
X8242976Y-14148214D02*
X8252500Y-14129167D01*
X8271548Y-14119643D01*
X8300119Y-14119643D01*
X8319167Y-14129167D01*
X8328690Y-14148214D01*
X8328690Y-14252976D01*
X8423929Y-14252976D02*
X8423929Y-14119643D01*
X8423929Y-14138690D02*
X8433452Y-14129167D01*
X8452500Y-14119643D01*
X8481071Y-14119643D01*
X8500119Y-14129167D01*
X8509643Y-14148214D01*
X8509643Y-14252976D01*
X8509643Y-14148214D02*
X8519167Y-14129167D01*
X8538214Y-14119643D01*
X8566786Y-14119643D01*
X8585833Y-14129167D01*
X8595357Y-14148214D01*
X8595357Y-14252976D01*
X8985833Y-14043452D02*
X8814405Y-14300595D01*
X9242976Y-14052976D02*
X9262024Y-14052976D01*
X9281071Y-14062500D01*
X9290595Y-14072024D01*
X9300119Y-14091071D01*
X9309643Y-14129167D01*
X9309643Y-14176786D01*
X9300119Y-14214881D01*
X9290595Y-14233928D01*
X9281071Y-14243452D01*
X9262024Y-14252976D01*
X9242976Y-14252976D01*
X9223929Y-14243452D01*
X9214405Y-14233928D01*
X9204881Y-14214881D01*
X9195357Y-14176786D01*
X9195357Y-14129167D01*
X9204881Y-14091071D01*
X9214405Y-14072024D01*
X9223929Y-14062500D01*
X9242976Y-14052976D01*
X9395357Y-14233928D02*
X9404881Y-14243452D01*
X9395357Y-14252976D01*
X9385833Y-14243452D01*
X9395357Y-14233928D01*
X9395357Y-14252976D01*
X9528690Y-14052976D02*
X9547738Y-14052976D01*
X9566786Y-14062500D01*
X9576310Y-14072024D01*
X9585833Y-14091071D01*
X9595357Y-14129167D01*
X9595357Y-14176786D01*
X9585833Y-14214881D01*
X9576310Y-14233928D01*
X9566786Y-14243452D01*
X9547738Y-14252976D01*
X9528690Y-14252976D01*
X9509643Y-14243452D01*
X9500119Y-14233928D01*
X9490595Y-14214881D01*
X9481071Y-14176786D01*
X9481071Y-14129167D01*
X9490595Y-14091071D01*
X9500119Y-14072024D01*
X9509643Y-14062500D01*
X9528690Y-14052976D01*
X9671548Y-14072024D02*
X9681071Y-14062500D01*
X9700119Y-14052976D01*
X9747738Y-14052976D01*
X9766786Y-14062500D01*
X9776310Y-14072024D01*
X9785833Y-14091071D01*
X9785833Y-14110119D01*
X9776310Y-14138690D01*
X9662024Y-14252976D01*
X9785833Y-14252976D01*
X9852500Y-14052976D02*
X9976310Y-14052976D01*
X9909643Y-14129167D01*
X9938214Y-14129167D01*
X9957262Y-14138690D01*
X9966786Y-14148214D01*
X9976310Y-14167262D01*
X9976310Y-14214881D01*
X9966786Y-14233928D01*
X9957262Y-14243452D01*
X9938214Y-14252976D01*
X9881071Y-14252976D01*
X9862024Y-14243452D01*
X9852500Y-14233928D01*
X10147738Y-14052976D02*
X10109643Y-14052976D01*
X10090595Y-14062500D01*
X10081071Y-14072024D01*
X10062024Y-14100595D01*
X10052500Y-14138690D01*
X10052500Y-14214881D01*
X10062024Y-14233928D01*
X10071548Y-14243452D01*
X10090595Y-14252976D01*
X10128690Y-14252976D01*
X10147738Y-14243452D01*
X10157262Y-14233928D01*
X10166786Y-14214881D01*
X10166786Y-14167262D01*
X10157262Y-14148214D01*
X10147738Y-14138690D01*
X10128690Y-14129167D01*
X10090595Y-14129167D01*
X10071548Y-14138690D01*
X10062024Y-14148214D01*
X10052500Y-14167262D01*
X10242976Y-14052976D02*
X10242976Y-14091071D01*
X10319167Y-14052976D02*
X10319167Y-14091071D01*
X10614405Y-14329167D02*
X10604881Y-14319643D01*
X10585833Y-14291071D01*
X10576310Y-14272024D01*
X10566786Y-14243452D01*
X10557262Y-14195833D01*
X10557262Y-14157738D01*
X10566786Y-14110119D01*
X10576310Y-14081548D01*
X10585833Y-14062500D01*
X10604881Y-14033928D01*
X10614405Y-14024405D01*
X10728690Y-14052976D02*
X10747738Y-14052976D01*
X10766786Y-14062500D01*
X10776310Y-14072024D01*
X10785833Y-14091071D01*
X10795357Y-14129167D01*
X10795357Y-14176786D01*
X10785833Y-14214881D01*
X10776310Y-14233928D01*
X10766786Y-14243452D01*
X10747738Y-14252976D01*
X10728690Y-14252976D01*
X10709643Y-14243452D01*
X10700119Y-14233928D01*
X10690595Y-14214881D01*
X10681071Y-14176786D01*
X10681071Y-14129167D01*
X10690595Y-14091071D01*
X10700119Y-14072024D01*
X10709643Y-14062500D01*
X10728690Y-14052976D01*
X11033452Y-14252976D02*
X11033452Y-14052976D01*
X11119167Y-14252976D02*
X11119167Y-14148214D01*
X11109643Y-14129167D01*
X11090595Y-14119643D01*
X11062024Y-14119643D01*
X11042976Y-14129167D01*
X11033452Y-14138690D01*
X11242976Y-14252976D02*
X11223928Y-14243452D01*
X11214405Y-14233928D01*
X11204881Y-14214881D01*
X11204881Y-14157738D01*
X11214405Y-14138690D01*
X11223928Y-14129167D01*
X11242976Y-14119643D01*
X11271548Y-14119643D01*
X11290595Y-14129167D01*
X11300119Y-14138690D01*
X11309643Y-14157738D01*
X11309643Y-14214881D01*
X11300119Y-14233928D01*
X11290595Y-14243452D01*
X11271548Y-14252976D01*
X11242976Y-14252976D01*
X11423928Y-14252976D02*
X11404881Y-14243452D01*
X11395357Y-14224405D01*
X11395357Y-14052976D01*
X11576309Y-14243452D02*
X11557262Y-14252976D01*
X11519167Y-14252976D01*
X11500119Y-14243452D01*
X11490595Y-14224405D01*
X11490595Y-14148214D01*
X11500119Y-14129167D01*
X11519167Y-14119643D01*
X11557262Y-14119643D01*
X11576309Y-14129167D01*
X11585833Y-14148214D01*
X11585833Y-14167262D01*
X11490595Y-14186309D01*
X11662024Y-14243452D02*
X11681071Y-14252976D01*
X11719167Y-14252976D01*
X11738214Y-14243452D01*
X11747738Y-14224405D01*
X11747738Y-14214881D01*
X11738214Y-14195833D01*
X11719167Y-14186309D01*
X11690595Y-14186309D01*
X11671548Y-14176786D01*
X11662024Y-14157738D01*
X11662024Y-14148214D01*
X11671548Y-14129167D01*
X11690595Y-14119643D01*
X11719167Y-14119643D01*
X11738214Y-14129167D01*
X11985833Y-14176786D02*
X12138214Y-14176786D01*
X12062024Y-14252976D02*
X12062024Y-14100595D01*
X12471548Y-14119643D02*
X12471548Y-14252976D01*
X12423928Y-14043452D02*
X12376309Y-14186309D01*
X12500119Y-14186309D01*
X12719167Y-14243452D02*
X12738214Y-14252976D01*
X12776309Y-14252976D01*
X12795357Y-14243452D01*
X12804881Y-14224405D01*
X12804881Y-14214881D01*
X12795357Y-14195833D01*
X12776309Y-14186309D01*
X12747738Y-14186309D01*
X12728690Y-14176786D01*
X12719167Y-14157738D01*
X12719167Y-14148214D01*
X12728690Y-14129167D01*
X12747738Y-14119643D01*
X12776309Y-14119643D01*
X12795357Y-14129167D01*
X12919167Y-14252976D02*
X12900119Y-14243452D01*
X12890595Y-14224405D01*
X12890595Y-14052976D01*
X13023928Y-14252976D02*
X13004881Y-14243452D01*
X12995357Y-14233928D01*
X12985833Y-14214881D01*
X12985833Y-14157738D01*
X12995357Y-14138690D01*
X13004881Y-14129167D01*
X13023928Y-14119643D01*
X13052500Y-14119643D01*
X13071548Y-14129167D01*
X13081071Y-14138690D01*
X13090595Y-14157738D01*
X13090595Y-14214881D01*
X13081071Y-14233928D01*
X13071548Y-14243452D01*
X13052500Y-14252976D01*
X13023928Y-14252976D01*
X13147738Y-14119643D02*
X13223928Y-14119643D01*
X13176309Y-14052976D02*
X13176309Y-14224405D01*
X13185833Y-14243452D01*
X13204881Y-14252976D01*
X13223928Y-14252976D01*
X13281071Y-14243452D02*
X13300119Y-14252976D01*
X13338214Y-14252976D01*
X13357262Y-14243452D01*
X13366786Y-14224405D01*
X13366786Y-14214881D01*
X13357262Y-14195833D01*
X13338214Y-14186309D01*
X13309643Y-14186309D01*
X13290595Y-14176786D01*
X13281071Y-14157738D01*
X13281071Y-14148214D01*
X13290595Y-14129167D01*
X13309643Y-14119643D01*
X13338214Y-14119643D01*
X13357262Y-14129167D01*
X13433452Y-14329167D02*
X13442976Y-14319643D01*
X13462024Y-14291071D01*
X13471548Y-14272024D01*
X13481071Y-14243452D01*
X13490595Y-14195833D01*
X13490595Y-14157738D01*
X13481071Y-14110119D01*
X13471548Y-14081548D01*
X13462024Y-14062500D01*
X13442976Y-14033928D01*
X13433452Y-14024405D01*
D16*
X6923500Y-14367000D02*
X7042500Y-14486000D01*
X7042500Y-14367000D02*
X6923500Y-14486000D01*
X6983000Y-14367000D02*
X6983000Y-14486000D01*
X6923500Y-14426500D02*
X7042500Y-14426500D01*
D11*
X7404881Y-14516976D02*
X7290595Y-14516976D01*
X7347738Y-14516976D02*
X7347738Y-14316976D01*
X7328690Y-14345548D01*
X7309643Y-14364595D01*
X7290595Y-14374119D01*
X7490595Y-14497928D02*
X7500119Y-14507452D01*
X7490595Y-14516976D01*
X7481071Y-14507452D01*
X7490595Y-14497928D01*
X7490595Y-14516976D01*
X7690595Y-14516976D02*
X7576309Y-14516976D01*
X7633452Y-14516976D02*
X7633452Y-14316976D01*
X7614405Y-14345548D01*
X7595357Y-14364595D01*
X7576309Y-14374119D01*
X7785833Y-14516976D02*
X7823928Y-14516976D01*
X7842976Y-14507452D01*
X7852500Y-14497928D01*
X7871548Y-14469357D01*
X7881071Y-14431262D01*
X7881071Y-14355071D01*
X7871548Y-14336024D01*
X7862024Y-14326500D01*
X7842976Y-14316976D01*
X7804881Y-14316976D01*
X7785833Y-14326500D01*
X7776309Y-14336024D01*
X7766786Y-14355071D01*
X7766786Y-14402690D01*
X7776309Y-14421738D01*
X7785833Y-14431262D01*
X7804881Y-14440786D01*
X7842976Y-14440786D01*
X7862024Y-14431262D01*
X7871548Y-14421738D01*
X7881071Y-14402690D01*
X8004881Y-14316976D02*
X8023928Y-14316976D01*
X8042976Y-14326500D01*
X8052500Y-14336024D01*
X8062024Y-14355071D01*
X8071548Y-14393167D01*
X8071548Y-14440786D01*
X8062024Y-14478881D01*
X8052500Y-14497928D01*
X8042976Y-14507452D01*
X8023928Y-14516976D01*
X8004881Y-14516976D01*
X7985833Y-14507452D01*
X7976309Y-14497928D01*
X7966786Y-14478881D01*
X7957262Y-14440786D01*
X7957262Y-14393167D01*
X7966786Y-14355071D01*
X7976309Y-14336024D01*
X7985833Y-14326500D01*
X8004881Y-14316976D01*
X8157262Y-14516976D02*
X8157262Y-14383643D01*
X8157262Y-14402690D02*
X8166786Y-14393167D01*
X8185833Y-14383643D01*
X8214405Y-14383643D01*
X8233452Y-14393167D01*
X8242976Y-14412214D01*
X8242976Y-14516976D01*
X8242976Y-14412214D02*
X8252500Y-14393167D01*
X8271548Y-14383643D01*
X8300119Y-14383643D01*
X8319167Y-14393167D01*
X8328690Y-14412214D01*
X8328690Y-14516976D01*
X8423929Y-14516976D02*
X8423929Y-14383643D01*
X8423929Y-14402690D02*
X8433452Y-14393167D01*
X8452500Y-14383643D01*
X8481071Y-14383643D01*
X8500119Y-14393167D01*
X8509643Y-14412214D01*
X8509643Y-14516976D01*
X8509643Y-14412214D02*
X8519167Y-14393167D01*
X8538214Y-14383643D01*
X8566786Y-14383643D01*
X8585833Y-14393167D01*
X8595357Y-14412214D01*
X8595357Y-14516976D01*
X8985833Y-14307452D02*
X8814405Y-14564595D01*
X9242976Y-14316976D02*
X9262024Y-14316976D01*
X9281071Y-14326500D01*
X9290595Y-14336024D01*
X9300119Y-14355071D01*
X9309643Y-14393167D01*
X9309643Y-14440786D01*
X9300119Y-14478881D01*
X9290595Y-14497928D01*
X9281071Y-14507452D01*
X9262024Y-14516976D01*
X9242976Y-14516976D01*
X9223929Y-14507452D01*
X9214405Y-14497928D01*
X9204881Y-14478881D01*
X9195357Y-14440786D01*
X9195357Y-14393167D01*
X9204881Y-14355071D01*
X9214405Y-14336024D01*
X9223929Y-14326500D01*
X9242976Y-14316976D01*
X9395357Y-14497928D02*
X9404881Y-14507452D01*
X9395357Y-14516976D01*
X9385833Y-14507452D01*
X9395357Y-14497928D01*
X9395357Y-14516976D01*
X9528690Y-14316976D02*
X9547738Y-14316976D01*
X9566786Y-14326500D01*
X9576310Y-14336024D01*
X9585833Y-14355071D01*
X9595357Y-14393167D01*
X9595357Y-14440786D01*
X9585833Y-14478881D01*
X9576310Y-14497928D01*
X9566786Y-14507452D01*
X9547738Y-14516976D01*
X9528690Y-14516976D01*
X9509643Y-14507452D01*
X9500119Y-14497928D01*
X9490595Y-14478881D01*
X9481071Y-14440786D01*
X9481071Y-14393167D01*
X9490595Y-14355071D01*
X9500119Y-14336024D01*
X9509643Y-14326500D01*
X9528690Y-14316976D01*
X9766786Y-14383643D02*
X9766786Y-14516976D01*
X9719167Y-14307452D02*
X9671548Y-14450309D01*
X9795357Y-14450309D01*
X9957262Y-14316976D02*
X9919167Y-14316976D01*
X9900119Y-14326500D01*
X9890595Y-14336024D01*
X9871548Y-14364595D01*
X9862024Y-14402690D01*
X9862024Y-14478881D01*
X9871548Y-14497928D01*
X9881071Y-14507452D01*
X9900119Y-14516976D01*
X9938214Y-14516976D01*
X9957262Y-14507452D01*
X9966786Y-14497928D01*
X9976310Y-14478881D01*
X9976310Y-14431262D01*
X9966786Y-14412214D01*
X9957262Y-14402690D01*
X9938214Y-14393167D01*
X9900119Y-14393167D01*
X9881071Y-14402690D01*
X9871548Y-14412214D01*
X9862024Y-14431262D01*
X10071548Y-14516976D02*
X10109643Y-14516976D01*
X10128690Y-14507452D01*
X10138214Y-14497928D01*
X10157262Y-14469357D01*
X10166786Y-14431262D01*
X10166786Y-14355071D01*
X10157262Y-14336024D01*
X10147738Y-14326500D01*
X10128690Y-14316976D01*
X10090595Y-14316976D01*
X10071548Y-14326500D01*
X10062024Y-14336024D01*
X10052500Y-14355071D01*
X10052500Y-14402690D01*
X10062024Y-14421738D01*
X10071548Y-14431262D01*
X10090595Y-14440786D01*
X10128690Y-14440786D01*
X10147738Y-14431262D01*
X10157262Y-14421738D01*
X10166786Y-14402690D01*
X10242976Y-14316976D02*
X10242976Y-14355071D01*
X10319167Y-14316976D02*
X10319167Y-14355071D01*
X10614405Y-14593167D02*
X10604881Y-14583643D01*
X10585833Y-14555071D01*
X10576310Y-14536024D01*
X10566786Y-14507452D01*
X10557262Y-14459833D01*
X10557262Y-14421738D01*
X10566786Y-14374119D01*
X10576310Y-14345548D01*
X10585833Y-14326500D01*
X10604881Y-14297928D01*
X10614405Y-14288405D01*
X10681071Y-14336024D02*
X10690595Y-14326500D01*
X10709643Y-14316976D01*
X10757262Y-14316976D01*
X10776310Y-14326500D01*
X10785833Y-14336024D01*
X10795357Y-14355071D01*
X10795357Y-14374119D01*
X10785833Y-14402690D01*
X10671548Y-14516976D01*
X10795357Y-14516976D01*
X10985833Y-14516976D02*
X10871548Y-14516976D01*
X10928690Y-14516976D02*
X10928690Y-14316976D01*
X10909643Y-14345548D01*
X10890595Y-14364595D01*
X10871548Y-14374119D01*
X11223928Y-14516976D02*
X11223928Y-14316976D01*
X11309643Y-14516976D02*
X11309643Y-14412214D01*
X11300119Y-14393167D01*
X11281071Y-14383643D01*
X11252500Y-14383643D01*
X11233452Y-14393167D01*
X11223928Y-14402690D01*
X11433452Y-14516976D02*
X11414405Y-14507452D01*
X11404881Y-14497928D01*
X11395357Y-14478881D01*
X11395357Y-14421738D01*
X11404881Y-14402690D01*
X11414405Y-14393167D01*
X11433452Y-14383643D01*
X11462024Y-14383643D01*
X11481071Y-14393167D01*
X11490595Y-14402690D01*
X11500119Y-14421738D01*
X11500119Y-14478881D01*
X11490595Y-14497928D01*
X11481071Y-14507452D01*
X11462024Y-14516976D01*
X11433452Y-14516976D01*
X11614405Y-14516976D02*
X11595357Y-14507452D01*
X11585833Y-14488405D01*
X11585833Y-14316976D01*
X11766786Y-14507452D02*
X11747738Y-14516976D01*
X11709643Y-14516976D01*
X11690595Y-14507452D01*
X11681071Y-14488405D01*
X11681071Y-14412214D01*
X11690595Y-14393167D01*
X11709643Y-14383643D01*
X11747738Y-14383643D01*
X11766786Y-14393167D01*
X11776309Y-14412214D01*
X11776309Y-14431262D01*
X11681071Y-14450309D01*
X11852500Y-14507452D02*
X11871548Y-14516976D01*
X11909643Y-14516976D01*
X11928690Y-14507452D01*
X11938214Y-14488405D01*
X11938214Y-14478881D01*
X11928690Y-14459833D01*
X11909643Y-14450309D01*
X11881071Y-14450309D01*
X11862024Y-14440786D01*
X11852500Y-14421738D01*
X11852500Y-14412214D01*
X11862024Y-14393167D01*
X11881071Y-14383643D01*
X11909643Y-14383643D01*
X11928690Y-14393167D01*
X12004881Y-14593167D02*
X12014405Y-14583643D01*
X12033452Y-14555071D01*
X12042976Y-14536024D01*
X12052500Y-14507452D01*
X12062024Y-14459833D01*
X12062024Y-14421738D01*
X12052500Y-14374119D01*
X12042976Y-14345548D01*
X12033452Y-14326500D01*
X12014405Y-14297928D01*
X12004881Y-14288405D01*
X6842500Y-14590500D02*
X7042500Y-14790500D01*
X7042500Y-14590500D02*
X6842500Y-14790500D01*
X7013211Y-14761211D02*
X7013211Y-14619789D01*
X6871789Y-14619789D01*
X6871789Y-14761211D01*
X7013211Y-14761211D01*
X7290595Y-14600024D02*
X7300119Y-14590500D01*
X7319167Y-14580976D01*
X7366786Y-14580976D01*
X7385833Y-14590500D01*
X7395357Y-14600024D01*
X7404881Y-14619071D01*
X7404881Y-14638119D01*
X7395357Y-14666690D01*
X7281071Y-14780976D01*
X7404881Y-14780976D01*
X7490595Y-14761928D02*
X7500119Y-14771452D01*
X7490595Y-14780976D01*
X7481071Y-14771452D01*
X7490595Y-14761928D01*
X7490595Y-14780976D01*
X7566786Y-14580976D02*
X7690595Y-14580976D01*
X7623928Y-14657167D01*
X7652500Y-14657167D01*
X7671548Y-14666690D01*
X7681071Y-14676214D01*
X7690595Y-14695262D01*
X7690595Y-14742881D01*
X7681071Y-14761928D01*
X7671548Y-14771452D01*
X7652500Y-14780976D01*
X7595357Y-14780976D01*
X7576309Y-14771452D01*
X7566786Y-14761928D01*
X7814405Y-14580976D02*
X7833452Y-14580976D01*
X7852500Y-14590500D01*
X7862024Y-14600024D01*
X7871548Y-14619071D01*
X7881071Y-14657167D01*
X7881071Y-14704786D01*
X7871548Y-14742881D01*
X7862024Y-14761928D01*
X7852500Y-14771452D01*
X7833452Y-14780976D01*
X7814405Y-14780976D01*
X7795357Y-14771452D01*
X7785833Y-14761928D01*
X7776309Y-14742881D01*
X7766786Y-14704786D01*
X7766786Y-14657167D01*
X7776309Y-14619071D01*
X7785833Y-14600024D01*
X7795357Y-14590500D01*
X7814405Y-14580976D01*
X8004881Y-14580976D02*
X8023928Y-14580976D01*
X8042976Y-14590500D01*
X8052500Y-14600024D01*
X8062024Y-14619071D01*
X8071548Y-14657167D01*
X8071548Y-14704786D01*
X8062024Y-14742881D01*
X8052500Y-14761928D01*
X8042976Y-14771452D01*
X8023928Y-14780976D01*
X8004881Y-14780976D01*
X7985833Y-14771452D01*
X7976309Y-14761928D01*
X7966786Y-14742881D01*
X7957262Y-14704786D01*
X7957262Y-14657167D01*
X7966786Y-14619071D01*
X7976309Y-14600024D01*
X7985833Y-14590500D01*
X8004881Y-14580976D01*
X8157262Y-14780976D02*
X8157262Y-14647643D01*
X8157262Y-14666690D02*
X8166786Y-14657167D01*
X8185833Y-14647643D01*
X8214405Y-14647643D01*
X8233452Y-14657167D01*
X8242976Y-14676214D01*
X8242976Y-14780976D01*
X8242976Y-14676214D02*
X8252500Y-14657167D01*
X8271548Y-14647643D01*
X8300119Y-14647643D01*
X8319167Y-14657167D01*
X8328690Y-14676214D01*
X8328690Y-14780976D01*
X8423929Y-14780976D02*
X8423929Y-14647643D01*
X8423929Y-14666690D02*
X8433452Y-14657167D01*
X8452500Y-14647643D01*
X8481071Y-14647643D01*
X8500119Y-14657167D01*
X8509643Y-14676214D01*
X8509643Y-14780976D01*
X8509643Y-14676214D02*
X8519167Y-14657167D01*
X8538214Y-14647643D01*
X8566786Y-14647643D01*
X8585833Y-14657167D01*
X8595357Y-14676214D01*
X8595357Y-14780976D01*
X8985833Y-14571452D02*
X8814405Y-14828595D01*
X9242976Y-14580976D02*
X9262024Y-14580976D01*
X9281071Y-14590500D01*
X9290595Y-14600024D01*
X9300119Y-14619071D01*
X9309643Y-14657167D01*
X9309643Y-14704786D01*
X9300119Y-14742881D01*
X9290595Y-14761928D01*
X9281071Y-14771452D01*
X9262024Y-14780976D01*
X9242976Y-14780976D01*
X9223929Y-14771452D01*
X9214405Y-14761928D01*
X9204881Y-14742881D01*
X9195357Y-14704786D01*
X9195357Y-14657167D01*
X9204881Y-14619071D01*
X9214405Y-14600024D01*
X9223929Y-14590500D01*
X9242976Y-14580976D01*
X9395357Y-14761928D02*
X9404881Y-14771452D01*
X9395357Y-14780976D01*
X9385833Y-14771452D01*
X9395357Y-14761928D01*
X9395357Y-14780976D01*
X9528690Y-14580976D02*
X9547738Y-14580976D01*
X9566786Y-14590500D01*
X9576310Y-14600024D01*
X9585833Y-14619071D01*
X9595357Y-14657167D01*
X9595357Y-14704786D01*
X9585833Y-14742881D01*
X9576310Y-14761928D01*
X9566786Y-14771452D01*
X9547738Y-14780976D01*
X9528690Y-14780976D01*
X9509643Y-14771452D01*
X9500119Y-14761928D01*
X9490595Y-14742881D01*
X9481071Y-14704786D01*
X9481071Y-14657167D01*
X9490595Y-14619071D01*
X9500119Y-14600024D01*
X9509643Y-14590500D01*
X9528690Y-14580976D01*
X9690595Y-14780976D02*
X9728690Y-14780976D01*
X9747738Y-14771452D01*
X9757262Y-14761928D01*
X9776310Y-14733357D01*
X9785833Y-14695262D01*
X9785833Y-14619071D01*
X9776310Y-14600024D01*
X9766786Y-14590500D01*
X9747738Y-14580976D01*
X9709643Y-14580976D01*
X9690595Y-14590500D01*
X9681071Y-14600024D01*
X9671548Y-14619071D01*
X9671548Y-14666690D01*
X9681071Y-14685738D01*
X9690595Y-14695262D01*
X9709643Y-14704786D01*
X9747738Y-14704786D01*
X9766786Y-14695262D01*
X9776310Y-14685738D01*
X9785833Y-14666690D01*
X9909643Y-14580976D02*
X9928690Y-14580976D01*
X9947738Y-14590500D01*
X9957262Y-14600024D01*
X9966786Y-14619071D01*
X9976310Y-14657167D01*
X9976310Y-14704786D01*
X9966786Y-14742881D01*
X9957262Y-14761928D01*
X9947738Y-14771452D01*
X9928690Y-14780976D01*
X9909643Y-14780976D01*
X9890595Y-14771452D01*
X9881071Y-14761928D01*
X9871548Y-14742881D01*
X9862024Y-14704786D01*
X9862024Y-14657167D01*
X9871548Y-14619071D01*
X9881071Y-14600024D01*
X9890595Y-14590500D01*
X9909643Y-14580976D01*
X10147738Y-14580976D02*
X10109643Y-14580976D01*
X10090595Y-14590500D01*
X10081071Y-14600024D01*
X10062024Y-14628595D01*
X10052500Y-14666690D01*
X10052500Y-14742881D01*
X10062024Y-14761928D01*
X10071548Y-14771452D01*
X10090595Y-14780976D01*
X10128690Y-14780976D01*
X10147738Y-14771452D01*
X10157262Y-14761928D01*
X10166786Y-14742881D01*
X10166786Y-14695262D01*
X10157262Y-14676214D01*
X10147738Y-14666690D01*
X10128690Y-14657167D01*
X10090595Y-14657167D01*
X10071548Y-14666690D01*
X10062024Y-14676214D01*
X10052500Y-14695262D01*
X10242976Y-14580976D02*
X10242976Y-14619071D01*
X10319167Y-14580976D02*
X10319167Y-14619071D01*
X10614405Y-14857167D02*
X10604881Y-14847643D01*
X10585833Y-14819071D01*
X10576310Y-14800024D01*
X10566786Y-14771452D01*
X10557262Y-14723833D01*
X10557262Y-14685738D01*
X10566786Y-14638119D01*
X10576310Y-14609548D01*
X10585833Y-14590500D01*
X10604881Y-14561928D01*
X10614405Y-14552405D01*
X10776310Y-14580976D02*
X10738214Y-14580976D01*
X10719167Y-14590500D01*
X10709643Y-14600024D01*
X10690595Y-14628595D01*
X10681071Y-14666690D01*
X10681071Y-14742881D01*
X10690595Y-14761928D01*
X10700119Y-14771452D01*
X10719167Y-14780976D01*
X10757262Y-14780976D01*
X10776310Y-14771452D01*
X10785833Y-14761928D01*
X10795357Y-14742881D01*
X10795357Y-14695262D01*
X10785833Y-14676214D01*
X10776310Y-14666690D01*
X10757262Y-14657167D01*
X10719167Y-14657167D01*
X10700119Y-14666690D01*
X10690595Y-14676214D01*
X10681071Y-14695262D01*
X11033452Y-14780976D02*
X11033452Y-14580976D01*
X11119167Y-14780976D02*
X11119167Y-14676214D01*
X11109643Y-14657167D01*
X11090595Y-14647643D01*
X11062024Y-14647643D01*
X11042976Y-14657167D01*
X11033452Y-14666690D01*
X11242976Y-14780976D02*
X11223928Y-14771452D01*
X11214405Y-14761928D01*
X11204881Y-14742881D01*
X11204881Y-14685738D01*
X11214405Y-14666690D01*
X11223928Y-14657167D01*
X11242976Y-14647643D01*
X11271548Y-14647643D01*
X11290595Y-14657167D01*
X11300119Y-14666690D01*
X11309643Y-14685738D01*
X11309643Y-14742881D01*
X11300119Y-14761928D01*
X11290595Y-14771452D01*
X11271548Y-14780976D01*
X11242976Y-14780976D01*
X11423928Y-14780976D02*
X11404881Y-14771452D01*
X11395357Y-14752405D01*
X11395357Y-14580976D01*
X11576309Y-14771452D02*
X11557262Y-14780976D01*
X11519167Y-14780976D01*
X11500119Y-14771452D01*
X11490595Y-14752405D01*
X11490595Y-14676214D01*
X11500119Y-14657167D01*
X11519167Y-14647643D01*
X11557262Y-14647643D01*
X11576309Y-14657167D01*
X11585833Y-14676214D01*
X11585833Y-14695262D01*
X11490595Y-14714309D01*
X11662024Y-14771452D02*
X11681071Y-14780976D01*
X11719167Y-14780976D01*
X11738214Y-14771452D01*
X11747738Y-14752405D01*
X11747738Y-14742881D01*
X11738214Y-14723833D01*
X11719167Y-14714309D01*
X11690595Y-14714309D01*
X11671548Y-14704786D01*
X11662024Y-14685738D01*
X11662024Y-14676214D01*
X11671548Y-14657167D01*
X11690595Y-14647643D01*
X11719167Y-14647643D01*
X11738214Y-14657167D01*
X11814405Y-14857167D02*
X11823928Y-14847643D01*
X11842976Y-14819071D01*
X11852500Y-14800024D01*
X11862024Y-14771452D01*
X11871548Y-14723833D01*
X11871548Y-14685738D01*
X11862024Y-14638119D01*
X11852500Y-14609548D01*
X11842976Y-14590500D01*
X11823928Y-14561928D01*
X11814405Y-14552405D01*
X6842500Y-14910500D02*
X7042500Y-15110500D01*
X7042500Y-14910500D02*
X6842500Y-15110500D01*
X6942500Y-15110500D02*
X7042500Y-15010500D01*
X6942500Y-14910500D01*
X6842500Y-15010500D01*
X6942500Y-15110500D01*
X7281071Y-14900976D02*
X7404881Y-14900976D01*
X7338214Y-14977167D01*
X7366786Y-14977167D01*
X7385833Y-14986690D01*
X7395357Y-14996214D01*
X7404881Y-15015262D01*
X7404881Y-15062881D01*
X7395357Y-15081928D01*
X7385833Y-15091452D01*
X7366786Y-15100976D01*
X7309643Y-15100976D01*
X7290595Y-15091452D01*
X7281071Y-15081928D01*
X7490595Y-15081928D02*
X7500119Y-15091452D01*
X7490595Y-15100976D01*
X7481071Y-15091452D01*
X7490595Y-15081928D01*
X7490595Y-15100976D01*
X7681071Y-14900976D02*
X7585833Y-14900976D01*
X7576309Y-14996214D01*
X7585833Y-14986690D01*
X7604881Y-14977167D01*
X7652500Y-14977167D01*
X7671548Y-14986690D01*
X7681071Y-14996214D01*
X7690595Y-15015262D01*
X7690595Y-15062881D01*
X7681071Y-15081928D01*
X7671548Y-15091452D01*
X7652500Y-15100976D01*
X7604881Y-15100976D01*
X7585833Y-15091452D01*
X7576309Y-15081928D01*
X7814405Y-14900976D02*
X7833452Y-14900976D01*
X7852500Y-14910500D01*
X7862024Y-14920024D01*
X7871548Y-14939071D01*
X7881071Y-14977167D01*
X7881071Y-15024786D01*
X7871548Y-15062881D01*
X7862024Y-15081928D01*
X7852500Y-15091452D01*
X7833452Y-15100976D01*
X7814405Y-15100976D01*
X7795357Y-15091452D01*
X7785833Y-15081928D01*
X7776309Y-15062881D01*
X7766786Y-15024786D01*
X7766786Y-14977167D01*
X7776309Y-14939071D01*
X7785833Y-14920024D01*
X7795357Y-14910500D01*
X7814405Y-14900976D01*
X8004881Y-14900976D02*
X8023928Y-14900976D01*
X8042976Y-14910500D01*
X8052500Y-14920024D01*
X8062024Y-14939071D01*
X8071548Y-14977167D01*
X8071548Y-15024786D01*
X8062024Y-15062881D01*
X8052500Y-15081928D01*
X8042976Y-15091452D01*
X8023928Y-15100976D01*
X8004881Y-15100976D01*
X7985833Y-15091452D01*
X7976309Y-15081928D01*
X7966786Y-15062881D01*
X7957262Y-15024786D01*
X7957262Y-14977167D01*
X7966786Y-14939071D01*
X7976309Y-14920024D01*
X7985833Y-14910500D01*
X8004881Y-14900976D01*
X8157262Y-15100976D02*
X8157262Y-14967643D01*
X8157262Y-14986690D02*
X8166786Y-14977167D01*
X8185833Y-14967643D01*
X8214405Y-14967643D01*
X8233452Y-14977167D01*
X8242976Y-14996214D01*
X8242976Y-15100976D01*
X8242976Y-14996214D02*
X8252500Y-14977167D01*
X8271548Y-14967643D01*
X8300119Y-14967643D01*
X8319167Y-14977167D01*
X8328690Y-14996214D01*
X8328690Y-15100976D01*
X8423929Y-15100976D02*
X8423929Y-14967643D01*
X8423929Y-14986690D02*
X8433452Y-14977167D01*
X8452500Y-14967643D01*
X8481071Y-14967643D01*
X8500119Y-14977167D01*
X8509643Y-14996214D01*
X8509643Y-15100976D01*
X8509643Y-14996214D02*
X8519167Y-14977167D01*
X8538214Y-14967643D01*
X8566786Y-14967643D01*
X8585833Y-14977167D01*
X8595357Y-14996214D01*
X8595357Y-15100976D01*
X8985833Y-14891452D02*
X8814405Y-15148595D01*
X9242976Y-14900976D02*
X9262024Y-14900976D01*
X9281071Y-14910500D01*
X9290595Y-14920024D01*
X9300119Y-14939071D01*
X9309643Y-14977167D01*
X9309643Y-15024786D01*
X9300119Y-15062881D01*
X9290595Y-15081928D01*
X9281071Y-15091452D01*
X9262024Y-15100976D01*
X9242976Y-15100976D01*
X9223929Y-15091452D01*
X9214405Y-15081928D01*
X9204881Y-15062881D01*
X9195357Y-15024786D01*
X9195357Y-14977167D01*
X9204881Y-14939071D01*
X9214405Y-14920024D01*
X9223929Y-14910500D01*
X9242976Y-14900976D01*
X9395357Y-15081928D02*
X9404881Y-15091452D01*
X9395357Y-15100976D01*
X9385833Y-15091452D01*
X9395357Y-15081928D01*
X9395357Y-15100976D01*
X9595357Y-15100976D02*
X9481071Y-15100976D01*
X9538214Y-15100976D02*
X9538214Y-14900976D01*
X9519167Y-14929548D01*
X9500119Y-14948595D01*
X9481071Y-14958119D01*
X9662024Y-14900976D02*
X9785833Y-14900976D01*
X9719167Y-14977167D01*
X9747738Y-14977167D01*
X9766786Y-14986690D01*
X9776310Y-14996214D01*
X9785833Y-15015262D01*
X9785833Y-15062881D01*
X9776310Y-15081928D01*
X9766786Y-15091452D01*
X9747738Y-15100976D01*
X9690595Y-15100976D01*
X9671548Y-15091452D01*
X9662024Y-15081928D01*
X9852500Y-14900976D02*
X9985833Y-14900976D01*
X9900119Y-15100976D01*
X10090595Y-14986690D02*
X10071548Y-14977167D01*
X10062024Y-14967643D01*
X10052500Y-14948595D01*
X10052500Y-14939071D01*
X10062024Y-14920024D01*
X10071548Y-14910500D01*
X10090595Y-14900976D01*
X10128690Y-14900976D01*
X10147738Y-14910500D01*
X10157262Y-14920024D01*
X10166786Y-14939071D01*
X10166786Y-14948595D01*
X10157262Y-14967643D01*
X10147738Y-14977167D01*
X10128690Y-14986690D01*
X10090595Y-14986690D01*
X10071548Y-14996214D01*
X10062024Y-15005738D01*
X10052500Y-15024786D01*
X10052500Y-15062881D01*
X10062024Y-15081928D01*
X10071548Y-15091452D01*
X10090595Y-15100976D01*
X10128690Y-15100976D01*
X10147738Y-15091452D01*
X10157262Y-15081928D01*
X10166786Y-15062881D01*
X10166786Y-15024786D01*
X10157262Y-15005738D01*
X10147738Y-14996214D01*
X10128690Y-14986690D01*
X10242976Y-14900976D02*
X10242976Y-14939071D01*
X10319167Y-14900976D02*
X10319167Y-14939071D01*
X10614405Y-15177167D02*
X10604881Y-15167643D01*
X10585833Y-15139071D01*
X10576310Y-15120024D01*
X10566786Y-15091452D01*
X10557262Y-15043833D01*
X10557262Y-15005738D01*
X10566786Y-14958119D01*
X10576310Y-14929548D01*
X10585833Y-14910500D01*
X10604881Y-14881928D01*
X10614405Y-14872405D01*
X10681071Y-14920024D02*
X10690595Y-14910500D01*
X10709643Y-14900976D01*
X10757262Y-14900976D01*
X10776310Y-14910500D01*
X10785833Y-14920024D01*
X10795357Y-14939071D01*
X10795357Y-14958119D01*
X10785833Y-14986690D01*
X10671548Y-15100976D01*
X10795357Y-15100976D01*
X11033452Y-15100976D02*
X11033452Y-14900976D01*
X11119167Y-15100976D02*
X11119167Y-14996214D01*
X11109643Y-14977167D01*
X11090595Y-14967643D01*
X11062024Y-14967643D01*
X11042976Y-14977167D01*
X11033452Y-14986690D01*
X11242976Y-15100976D02*
X11223928Y-15091452D01*
X11214405Y-15081928D01*
X11204881Y-15062881D01*
X11204881Y-15005738D01*
X11214405Y-14986690D01*
X11223928Y-14977167D01*
X11242976Y-14967643D01*
X11271548Y-14967643D01*
X11290595Y-14977167D01*
X11300119Y-14986690D01*
X11309643Y-15005738D01*
X11309643Y-15062881D01*
X11300119Y-15081928D01*
X11290595Y-15091452D01*
X11271548Y-15100976D01*
X11242976Y-15100976D01*
X11423928Y-15100976D02*
X11404881Y-15091452D01*
X11395357Y-15072405D01*
X11395357Y-14900976D01*
X11576309Y-15091452D02*
X11557262Y-15100976D01*
X11519167Y-15100976D01*
X11500119Y-15091452D01*
X11490595Y-15072405D01*
X11490595Y-14996214D01*
X11500119Y-14977167D01*
X11519167Y-14967643D01*
X11557262Y-14967643D01*
X11576309Y-14977167D01*
X11585833Y-14996214D01*
X11585833Y-15015262D01*
X11490595Y-15034309D01*
X11662024Y-15091452D02*
X11681071Y-15100976D01*
X11719167Y-15100976D01*
X11738214Y-15091452D01*
X11747738Y-15072405D01*
X11747738Y-15062881D01*
X11738214Y-15043833D01*
X11719167Y-15034309D01*
X11690595Y-15034309D01*
X11671548Y-15024786D01*
X11662024Y-15005738D01*
X11662024Y-14996214D01*
X11671548Y-14977167D01*
X11690595Y-14967643D01*
X11719167Y-14967643D01*
X11738214Y-14977167D01*
X11814405Y-15177167D02*
X11823928Y-15167643D01*
X11842976Y-15139071D01*
X11852500Y-15120024D01*
X11862024Y-15091452D01*
X11871548Y-15043833D01*
X11871548Y-15005738D01*
X11862024Y-14958119D01*
X11852500Y-14929548D01*
X11842976Y-14910500D01*
X11823928Y-14881928D01*
X11814405Y-14872405D01*
X6942500Y-15230500D02*
X6942500Y-15430500D01*
X6842500Y-15330500D02*
X7042500Y-15330500D01*
X7042500Y-15330500D02*
G75*
G03*
X7042500Y-15330500I-100000J0D01*
G01*
X7281071Y-15220976D02*
X7404881Y-15220976D01*
X7338214Y-15297167D01*
X7366786Y-15297167D01*
X7385833Y-15306690D01*
X7395357Y-15316214D01*
X7404881Y-15335262D01*
X7404881Y-15382881D01*
X7395357Y-15401928D01*
X7385833Y-15411452D01*
X7366786Y-15420976D01*
X7309643Y-15420976D01*
X7290595Y-15411452D01*
X7281071Y-15401928D01*
X7490595Y-15401928D02*
X7500119Y-15411452D01*
X7490595Y-15420976D01*
X7481071Y-15411452D01*
X7490595Y-15401928D01*
X7490595Y-15420976D01*
X7595357Y-15420976D02*
X7633452Y-15420976D01*
X7652500Y-15411452D01*
X7662024Y-15401928D01*
X7681071Y-15373357D01*
X7690595Y-15335262D01*
X7690595Y-15259071D01*
X7681071Y-15240024D01*
X7671548Y-15230500D01*
X7652500Y-15220976D01*
X7614405Y-15220976D01*
X7595357Y-15230500D01*
X7585833Y-15240024D01*
X7576309Y-15259071D01*
X7576309Y-15306690D01*
X7585833Y-15325738D01*
X7595357Y-15335262D01*
X7614405Y-15344786D01*
X7652500Y-15344786D01*
X7671548Y-15335262D01*
X7681071Y-15325738D01*
X7690595Y-15306690D01*
X7814405Y-15220976D02*
X7833452Y-15220976D01*
X7852500Y-15230500D01*
X7862024Y-15240024D01*
X7871548Y-15259071D01*
X7881071Y-15297167D01*
X7881071Y-15344786D01*
X7871548Y-15382881D01*
X7862024Y-15401928D01*
X7852500Y-15411452D01*
X7833452Y-15420976D01*
X7814405Y-15420976D01*
X7795357Y-15411452D01*
X7785833Y-15401928D01*
X7776309Y-15382881D01*
X7766786Y-15344786D01*
X7766786Y-15297167D01*
X7776309Y-15259071D01*
X7785833Y-15240024D01*
X7795357Y-15230500D01*
X7814405Y-15220976D01*
X8004881Y-15220976D02*
X8023928Y-15220976D01*
X8042976Y-15230500D01*
X8052500Y-15240024D01*
X8062024Y-15259071D01*
X8071548Y-15297167D01*
X8071548Y-15344786D01*
X8062024Y-15382881D01*
X8052500Y-15401928D01*
X8042976Y-15411452D01*
X8023928Y-15420976D01*
X8004881Y-15420976D01*
X7985833Y-15411452D01*
X7976309Y-15401928D01*
X7966786Y-15382881D01*
X7957262Y-15344786D01*
X7957262Y-15297167D01*
X7966786Y-15259071D01*
X7976309Y-15240024D01*
X7985833Y-15230500D01*
X8004881Y-15220976D01*
X8157262Y-15420976D02*
X8157262Y-15287643D01*
X8157262Y-15306690D02*
X8166786Y-15297167D01*
X8185833Y-15287643D01*
X8214405Y-15287643D01*
X8233452Y-15297167D01*
X8242976Y-15316214D01*
X8242976Y-15420976D01*
X8242976Y-15316214D02*
X8252500Y-15297167D01*
X8271548Y-15287643D01*
X8300119Y-15287643D01*
X8319167Y-15297167D01*
X8328690Y-15316214D01*
X8328690Y-15420976D01*
X8423929Y-15420976D02*
X8423929Y-15287643D01*
X8423929Y-15306690D02*
X8433452Y-15297167D01*
X8452500Y-15287643D01*
X8481071Y-15287643D01*
X8500119Y-15297167D01*
X8509643Y-15316214D01*
X8509643Y-15420976D01*
X8509643Y-15316214D02*
X8519167Y-15297167D01*
X8538214Y-15287643D01*
X8566786Y-15287643D01*
X8585833Y-15297167D01*
X8595357Y-15316214D01*
X8595357Y-15420976D01*
X8985833Y-15211452D02*
X8814405Y-15468595D01*
X9242976Y-15220976D02*
X9262024Y-15220976D01*
X9281071Y-15230500D01*
X9290595Y-15240024D01*
X9300119Y-15259071D01*
X9309643Y-15297167D01*
X9309643Y-15344786D01*
X9300119Y-15382881D01*
X9290595Y-15401928D01*
X9281071Y-15411452D01*
X9262024Y-15420976D01*
X9242976Y-15420976D01*
X9223929Y-15411452D01*
X9214405Y-15401928D01*
X9204881Y-15382881D01*
X9195357Y-15344786D01*
X9195357Y-15297167D01*
X9204881Y-15259071D01*
X9214405Y-15240024D01*
X9223929Y-15230500D01*
X9242976Y-15220976D01*
X9395357Y-15401928D02*
X9404881Y-15411452D01*
X9395357Y-15420976D01*
X9385833Y-15411452D01*
X9395357Y-15401928D01*
X9395357Y-15420976D01*
X9595357Y-15420976D02*
X9481071Y-15420976D01*
X9538214Y-15420976D02*
X9538214Y-15220976D01*
X9519167Y-15249548D01*
X9500119Y-15268595D01*
X9481071Y-15278119D01*
X9776310Y-15220976D02*
X9681071Y-15220976D01*
X9671548Y-15316214D01*
X9681071Y-15306690D01*
X9700119Y-15297167D01*
X9747738Y-15297167D01*
X9766786Y-15306690D01*
X9776310Y-15316214D01*
X9785833Y-15335262D01*
X9785833Y-15382881D01*
X9776310Y-15401928D01*
X9766786Y-15411452D01*
X9747738Y-15420976D01*
X9700119Y-15420976D01*
X9681071Y-15411452D01*
X9671548Y-15401928D01*
X9852500Y-15220976D02*
X9976310Y-15220976D01*
X9909643Y-15297167D01*
X9938214Y-15297167D01*
X9957262Y-15306690D01*
X9966786Y-15316214D01*
X9976310Y-15335262D01*
X9976310Y-15382881D01*
X9966786Y-15401928D01*
X9957262Y-15411452D01*
X9938214Y-15420976D01*
X9881071Y-15420976D01*
X9862024Y-15411452D01*
X9852500Y-15401928D01*
X10157262Y-15220976D02*
X10062024Y-15220976D01*
X10052500Y-15316214D01*
X10062024Y-15306690D01*
X10081071Y-15297167D01*
X10128690Y-15297167D01*
X10147738Y-15306690D01*
X10157262Y-15316214D01*
X10166786Y-15335262D01*
X10166786Y-15382881D01*
X10157262Y-15401928D01*
X10147738Y-15411452D01*
X10128690Y-15420976D01*
X10081071Y-15420976D01*
X10062024Y-15411452D01*
X10052500Y-15401928D01*
X10242976Y-15220976D02*
X10242976Y-15259071D01*
X10319167Y-15220976D02*
X10319167Y-15259071D01*
X10614405Y-15497167D02*
X10604881Y-15487643D01*
X10585833Y-15459071D01*
X10576310Y-15440024D01*
X10566786Y-15411452D01*
X10557262Y-15363833D01*
X10557262Y-15325738D01*
X10566786Y-15278119D01*
X10576310Y-15249548D01*
X10585833Y-15230500D01*
X10604881Y-15201928D01*
X10614405Y-15192405D01*
X10671548Y-15220976D02*
X10795357Y-15220976D01*
X10728690Y-15297167D01*
X10757262Y-15297167D01*
X10776310Y-15306690D01*
X10785833Y-15316214D01*
X10795357Y-15335262D01*
X10795357Y-15382881D01*
X10785833Y-15401928D01*
X10776310Y-15411452D01*
X10757262Y-15420976D01*
X10700119Y-15420976D01*
X10681071Y-15411452D01*
X10671548Y-15401928D01*
X11033452Y-15420976D02*
X11033452Y-15220976D01*
X11119167Y-15420976D02*
X11119167Y-15316214D01*
X11109643Y-15297167D01*
X11090595Y-15287643D01*
X11062024Y-15287643D01*
X11042976Y-15297167D01*
X11033452Y-15306690D01*
X11242976Y-15420976D02*
X11223928Y-15411452D01*
X11214405Y-15401928D01*
X11204881Y-15382881D01*
X11204881Y-15325738D01*
X11214405Y-15306690D01*
X11223928Y-15297167D01*
X11242976Y-15287643D01*
X11271548Y-15287643D01*
X11290595Y-15297167D01*
X11300119Y-15306690D01*
X11309643Y-15325738D01*
X11309643Y-15382881D01*
X11300119Y-15401928D01*
X11290595Y-15411452D01*
X11271548Y-15420976D01*
X11242976Y-15420976D01*
X11423928Y-15420976D02*
X11404881Y-15411452D01*
X11395357Y-15392405D01*
X11395357Y-15220976D01*
X11576309Y-15411452D02*
X11557262Y-15420976D01*
X11519167Y-15420976D01*
X11500119Y-15411452D01*
X11490595Y-15392405D01*
X11490595Y-15316214D01*
X11500119Y-15297167D01*
X11519167Y-15287643D01*
X11557262Y-15287643D01*
X11576309Y-15297167D01*
X11585833Y-15316214D01*
X11585833Y-15335262D01*
X11490595Y-15354309D01*
X11662024Y-15411452D02*
X11681071Y-15420976D01*
X11719167Y-15420976D01*
X11738214Y-15411452D01*
X11747738Y-15392405D01*
X11747738Y-15382881D01*
X11738214Y-15363833D01*
X11719167Y-15354309D01*
X11690595Y-15354309D01*
X11671548Y-15344786D01*
X11662024Y-15325738D01*
X11662024Y-15316214D01*
X11671548Y-15297167D01*
X11690595Y-15287643D01*
X11719167Y-15287643D01*
X11738214Y-15297167D01*
X11814405Y-15497167D02*
X11823928Y-15487643D01*
X11842976Y-15459071D01*
X11852500Y-15440024D01*
X11862024Y-15411452D01*
X11871548Y-15363833D01*
X11871548Y-15325738D01*
X11862024Y-15278119D01*
X11852500Y-15249548D01*
X11842976Y-15230500D01*
X11823928Y-15201928D01*
X11814405Y-15192405D01*
M02*
