G04 #@! TF.GenerationSoftware,KiCad,Pcbnew,6.0.2+dfsg-1*
G04 #@! TF.CreationDate,2022-12-09T23:48:52-08:00*
G04 #@! TF.ProjectId,RP2040_motor,52503230-3430-45f6-9d6f-746f722e6b69,REV1*
G04 #@! TF.SameCoordinates,Original*
G04 #@! TF.FileFunction,Legend,Top*
G04 #@! TF.FilePolarity,Positive*
%FSLAX46Y46*%
G04 Gerber Fmt 4.6, Leading zero omitted, Abs format (unit mm)*
G04 Created by KiCad (PCBNEW 6.0.2+dfsg-1) date 2022-12-09 23:48:52*
%MOMM*%
%LPD*%
G01*
G04 APERTURE LIST*
G04 Aperture macros list*
%AMRoundRect*
0 Rectangle with rounded corners*
0 $1 Rounding radius*
0 $2 $3 $4 $5 $6 $7 $8 $9 X,Y pos of 4 corners*
0 Add a 4 corners polygon primitive as box body*
4,1,4,$2,$3,$4,$5,$6,$7,$8,$9,$2,$3,0*
0 Add four circle primitives for the rounded corners*
1,1,$1+$1,$2,$3*
1,1,$1+$1,$4,$5*
1,1,$1+$1,$6,$7*
1,1,$1+$1,$8,$9*
0 Add four rect primitives between the rounded corners*
20,1,$1+$1,$2,$3,$4,$5,0*
20,1,$1+$1,$4,$5,$6,$7,0*
20,1,$1+$1,$6,$7,$8,$9,0*
20,1,$1+$1,$8,$9,$2,$3,0*%
%AMFreePoly0*
4,1,22,0.500000,-0.750000,0.000000,-0.750000,0.000000,-0.745033,-0.079941,-0.743568,-0.215256,-0.701293,-0.333266,-0.622738,-0.424486,-0.514219,-0.481581,-0.384460,-0.499164,-0.250000,-0.500000,-0.250000,-0.500000,0.250000,-0.499164,0.250000,-0.499963,0.256109,-0.478152,0.396186,-0.417904,0.524511,-0.324060,0.630769,-0.204165,0.706417,-0.067858,0.745374,0.000000,0.744959,0.000000,0.750000,
0.500000,0.750000,0.500000,-0.750000,0.500000,-0.750000,$1*%
%AMFreePoly1*
4,1,20,0.000000,0.744959,0.073905,0.744508,0.209726,0.703889,0.328688,0.626782,0.421226,0.519385,0.479903,0.390333,0.500000,0.250000,0.500000,-0.250000,0.499851,-0.262216,0.476331,-0.402017,0.414519,-0.529596,0.319384,-0.634700,0.198574,-0.708877,0.061801,-0.746166,0.000000,-0.745033,0.000000,-0.750000,-0.500000,-0.750000,-0.500000,0.750000,0.000000,0.750000,0.000000,0.744959,
0.000000,0.744959,$1*%
G04 Aperture macros list end*
%ADD10C,0.200000*%
%ADD11C,0.120000*%
%ADD12C,0.150000*%
%ADD13C,0.100000*%
%ADD14RoundRect,0.225000X0.225000X0.250000X-0.225000X0.250000X-0.225000X-0.250000X0.225000X-0.250000X0*%
%ADD15RoundRect,0.225000X-0.250000X0.225000X-0.250000X-0.225000X0.250000X-0.225000X0.250000X0.225000X0*%
%ADD16RoundRect,0.225000X-0.225000X-0.250000X0.225000X-0.250000X0.225000X0.250000X-0.225000X0.250000X0*%
%ADD17RoundRect,0.135000X0.135000X0.185000X-0.135000X0.185000X-0.135000X-0.185000X0.135000X-0.185000X0*%
%ADD18RoundRect,0.150000X0.150000X-0.650000X0.150000X0.650000X-0.150000X0.650000X-0.150000X-0.650000X0*%
%ADD19RoundRect,0.200000X0.200000X0.275000X-0.200000X0.275000X-0.200000X-0.275000X0.200000X-0.275000X0*%
%ADD20RoundRect,0.225000X0.250000X-0.225000X0.250000X0.225000X-0.250000X0.225000X-0.250000X-0.225000X0*%
%ADD21RoundRect,0.200000X0.275000X-0.200000X0.275000X0.200000X-0.275000X0.200000X-0.275000X-0.200000X0*%
%ADD22RoundRect,0.050000X0.387500X0.050000X-0.387500X0.050000X-0.387500X-0.050000X0.387500X-0.050000X0*%
%ADD23RoundRect,0.050000X0.050000X0.387500X-0.050000X0.387500X-0.050000X-0.387500X0.050000X-0.387500X0*%
%ADD24RoundRect,0.144000X1.456000X1.456000X-1.456000X1.456000X-1.456000X-1.456000X1.456000X-1.456000X0*%
%ADD25RoundRect,0.243750X0.243750X0.456250X-0.243750X0.456250X-0.243750X-0.456250X0.243750X-0.456250X0*%
%ADD26RoundRect,0.250000X-0.250000X-0.475000X0.250000X-0.475000X0.250000X0.475000X-0.250000X0.475000X0*%
%ADD27RoundRect,0.150000X-0.150000X0.825000X-0.150000X-0.825000X0.150000X-0.825000X0.150000X0.825000X0*%
%ADD28R,3.810000X2.410000*%
%ADD29R,1.200000X0.900000*%
%ADD30RoundRect,0.250000X1.500000X1.000000X-1.500000X1.000000X-1.500000X-1.000000X1.500000X-1.000000X0*%
%ADD31RoundRect,0.200000X-0.275000X0.200000X-0.275000X-0.200000X0.275000X-0.200000X0.275000X0.200000X0*%
%ADD32RoundRect,0.250000X-1.500000X-0.550000X1.500000X-0.550000X1.500000X0.550000X-1.500000X0.550000X0*%
%ADD33RoundRect,0.200000X-0.200000X-0.275000X0.200000X-0.275000X0.200000X0.275000X-0.200000X0.275000X0*%
%ADD34R,1.200000X1.000000*%
%ADD35R,1.000000X1.000000*%
%ADD36RoundRect,0.250000X-0.325000X-0.650000X0.325000X-0.650000X0.325000X0.650000X-0.325000X0.650000X0*%
%ADD37R,0.610000X1.270000*%
%ADD38R,0.610000X1.020000*%
%ADD39R,3.910000X3.810000*%
%ADD40RoundRect,0.050000X-0.050000X0.387500X-0.050000X-0.387500X0.050000X-0.387500X0.050000X0.387500X0*%
%ADD41RoundRect,0.050000X-0.387500X0.050000X-0.387500X-0.050000X0.387500X-0.050000X0.387500X0.050000X0*%
%ADD42RoundRect,0.144000X-1.456000X1.456000X-1.456000X-1.456000X1.456000X-1.456000X1.456000X1.456000X0*%
%ADD43RoundRect,0.243750X-0.243750X-0.456250X0.243750X-0.456250X0.243750X0.456250X-0.243750X0.456250X0*%
%ADD44C,3.900000*%
%ADD45R,0.900000X1.200000*%
%ADD46RoundRect,0.250000X-0.475000X0.250000X-0.475000X-0.250000X0.475000X-0.250000X0.475000X0.250000X0*%
%ADD47RoundRect,0.250000X0.845000X-0.620000X0.845000X0.620000X-0.845000X0.620000X-0.845000X-0.620000X0*%
%ADD48O,2.190000X1.740000*%
%ADD49R,2.500000X1.800000*%
%ADD50C,5.300000*%
%ADD51RoundRect,0.150000X0.825000X0.150000X-0.825000X0.150000X-0.825000X-0.150000X0.825000X-0.150000X0*%
%ADD52C,6.500000*%
%ADD53RoundRect,0.250000X0.325000X1.100000X-0.325000X1.100000X-0.325000X-1.100000X0.325000X-1.100000X0*%
%ADD54R,0.450000X0.600000*%
%ADD55R,5.500000X2.150000*%
%ADD56RoundRect,0.250000X-0.845000X0.620000X-0.845000X-0.620000X0.845000X-0.620000X0.845000X0.620000X0*%
%ADD57RoundRect,0.250000X0.620000X0.845000X-0.620000X0.845000X-0.620000X-0.845000X0.620000X-0.845000X0*%
%ADD58O,1.740000X2.190000*%
%ADD59R,0.650000X0.400000*%
%ADD60R,1.270000X0.610000*%
%ADD61R,1.020000X0.610000*%
%ADD62R,3.810000X3.910000*%
%ADD63C,3.250000*%
%ADD64R,1.500000X1.500000*%
%ADD65C,1.500000*%
%ADD66C,2.600000*%
%ADD67R,0.750000X0.900000*%
%ADD68RoundRect,0.070000X-0.650000X-0.300000X0.650000X-0.300000X0.650000X0.300000X-0.650000X0.300000X0*%
%ADD69RoundRect,0.250000X0.250000X0.475000X-0.250000X0.475000X-0.250000X-0.475000X0.250000X-0.475000X0*%
%ADD70RoundRect,0.150000X-0.750000X-0.150000X0.750000X-0.150000X0.750000X0.150000X-0.750000X0.150000X0*%
%ADD71R,1.200000X1.400000*%
%ADD72R,2.000000X0.640000*%
%ADD73RoundRect,0.150000X-0.512500X-0.150000X0.512500X-0.150000X0.512500X0.150000X-0.512500X0.150000X0*%
%ADD74R,1.400000X1.200000*%
%ADD75R,1.700000X1.700000*%
%ADD76O,1.700000X1.700000*%
%ADD77C,0.650000*%
%ADD78R,0.300000X1.150000*%
%ADD79O,1.000000X1.600000*%
%ADD80O,1.000000X2.100000*%
%ADD81R,1.780000X3.430000*%
%ADD82FreePoly0,180.000000*%
%ADD83FreePoly1,180.000000*%
%ADD84RoundRect,0.150000X-0.875000X-0.150000X0.875000X-0.150000X0.875000X0.150000X-0.875000X0.150000X0*%
%ADD85R,1.000000X1.200000*%
%ADD86RoundRect,0.140000X-0.140000X-0.170000X0.140000X-0.170000X0.140000X0.170000X-0.140000X0.170000X0*%
%ADD87R,0.600000X0.450000*%
%ADD88RoundRect,0.218750X0.256250X-0.218750X0.256250X0.218750X-0.256250X0.218750X-0.256250X-0.218750X0*%
%ADD89RoundRect,0.150000X0.512500X0.150000X-0.512500X0.150000X-0.512500X-0.150000X0.512500X-0.150000X0*%
%ADD90FreePoly0,0.000000*%
%ADD91FreePoly1,0.000000*%
%ADD92RoundRect,0.250000X0.625000X-0.312500X0.625000X0.312500X-0.625000X0.312500X-0.625000X-0.312500X0*%
%ADD93RoundRect,0.150000X-0.150000X0.650000X-0.150000X-0.650000X0.150000X-0.650000X0.150000X0.650000X0*%
%ADD94R,1.200000X2.200000*%
%ADD95R,5.800000X6.400000*%
G04 APERTURE END LIST*
D10*
X81300000Y-107100000D02*
X82400000Y-108200000D01*
X113683333Y-98402380D02*
X113350000Y-97926190D01*
X113111904Y-98402380D02*
X113111904Y-97402380D01*
X113492857Y-97402380D01*
X113588095Y-97450000D01*
X113635714Y-97497619D01*
X113683333Y-97592857D01*
X113683333Y-97735714D01*
X113635714Y-97830952D01*
X113588095Y-97878571D01*
X113492857Y-97926190D01*
X113111904Y-97926190D01*
X114016666Y-97402380D02*
X114683333Y-98402380D01*
X114683333Y-97402380D02*
X114016666Y-98402380D01*
X142871428Y-97678571D02*
X142814285Y-97735714D01*
X142642857Y-97792857D01*
X142528571Y-97792857D01*
X142357142Y-97735714D01*
X142242857Y-97621428D01*
X142185714Y-97507142D01*
X142128571Y-97278571D01*
X142128571Y-97107142D01*
X142185714Y-96878571D01*
X142242857Y-96764285D01*
X142357142Y-96650000D01*
X142528571Y-96592857D01*
X142642857Y-96592857D01*
X142814285Y-96650000D01*
X142871428Y-96707142D01*
X143328571Y-97450000D02*
X143900000Y-97450000D01*
X143214285Y-97792857D02*
X143614285Y-96592857D01*
X144014285Y-97792857D01*
X144414285Y-97792857D02*
X144414285Y-96592857D01*
X145100000Y-97792857D01*
X145100000Y-96592857D01*
X146814285Y-96592857D02*
X147042857Y-96592857D01*
X147157142Y-96650000D01*
X147271428Y-96764285D01*
X147328571Y-96992857D01*
X147328571Y-97392857D01*
X147271428Y-97621428D01*
X147157142Y-97735714D01*
X147042857Y-97792857D01*
X146814285Y-97792857D01*
X146700000Y-97735714D01*
X146585714Y-97621428D01*
X146528571Y-97392857D01*
X146528571Y-96992857D01*
X146585714Y-96764285D01*
X146700000Y-96650000D01*
X146814285Y-96592857D01*
X147842857Y-96592857D02*
X147842857Y-97564285D01*
X147900000Y-97678571D01*
X147957142Y-97735714D01*
X148071428Y-97792857D01*
X148300000Y-97792857D01*
X148414285Y-97735714D01*
X148471428Y-97678571D01*
X148528571Y-97564285D01*
X148528571Y-96592857D01*
X148928571Y-96592857D02*
X149614285Y-96592857D01*
X149271428Y-97792857D02*
X149271428Y-96592857D01*
X150014285Y-97792857D02*
X150014285Y-96592857D01*
X150471428Y-96592857D01*
X150585714Y-96650000D01*
X150642857Y-96707142D01*
X150700000Y-96821428D01*
X150700000Y-96992857D01*
X150642857Y-97107142D01*
X150585714Y-97164285D01*
X150471428Y-97221428D01*
X150014285Y-97221428D01*
X151214285Y-96592857D02*
X151214285Y-97564285D01*
X151271428Y-97678571D01*
X151328571Y-97735714D01*
X151442857Y-97792857D01*
X151671428Y-97792857D01*
X151785714Y-97735714D01*
X151842857Y-97678571D01*
X151900000Y-97564285D01*
X151900000Y-96592857D01*
X152300000Y-96592857D02*
X152985714Y-96592857D01*
X152642857Y-97792857D02*
X152642857Y-96592857D01*
X70511666Y-82964285D02*
X70511666Y-82488095D01*
X70797380Y-83059523D02*
X69797380Y-82726190D01*
X70797380Y-82392857D01*
X69797380Y-82059523D02*
X70606904Y-82059523D01*
X70702142Y-82011904D01*
X70749761Y-81964285D01*
X70797380Y-81869047D01*
X70797380Y-81678571D01*
X70749761Y-81583333D01*
X70702142Y-81535714D01*
X70606904Y-81488095D01*
X69797380Y-81488095D01*
X69797380Y-81107142D02*
X70797380Y-80440476D01*
X69797380Y-80440476D02*
X70797380Y-81107142D01*
X70797380Y-79535714D02*
X70797380Y-80107142D01*
X70797380Y-79821428D02*
X69797380Y-79821428D01*
X69940238Y-79916666D01*
X70035476Y-80011904D01*
X70083095Y-80107142D01*
X72407380Y-83797619D02*
X71407380Y-83797619D01*
X71883571Y-83797619D02*
X71883571Y-83226190D01*
X72407380Y-83226190D02*
X71407380Y-83226190D01*
X72407380Y-82607142D02*
X72359761Y-82702380D01*
X72312142Y-82750000D01*
X72216904Y-82797619D01*
X71931190Y-82797619D01*
X71835952Y-82750000D01*
X71788333Y-82702380D01*
X71740714Y-82607142D01*
X71740714Y-82464285D01*
X71788333Y-82369047D01*
X71835952Y-82321428D01*
X71931190Y-82273809D01*
X72216904Y-82273809D01*
X72312142Y-82321428D01*
X72359761Y-82369047D01*
X72407380Y-82464285D01*
X72407380Y-82607142D01*
X72407380Y-81845238D02*
X71740714Y-81845238D01*
X71835952Y-81845238D02*
X71788333Y-81797619D01*
X71740714Y-81702380D01*
X71740714Y-81559523D01*
X71788333Y-81464285D01*
X71883571Y-81416666D01*
X72407380Y-81416666D01*
X71883571Y-81416666D02*
X71788333Y-81369047D01*
X71740714Y-81273809D01*
X71740714Y-81130952D01*
X71788333Y-81035714D01*
X71883571Y-80988095D01*
X72407380Y-80988095D01*
X72407380Y-80511904D02*
X71740714Y-80511904D01*
X71407380Y-80511904D02*
X71455000Y-80559523D01*
X71502619Y-80511904D01*
X71455000Y-80464285D01*
X71407380Y-80511904D01*
X71502619Y-80511904D01*
X71740714Y-80035714D02*
X72407380Y-80035714D01*
X71835952Y-80035714D02*
X71788333Y-79988095D01*
X71740714Y-79892857D01*
X71740714Y-79750000D01*
X71788333Y-79654761D01*
X71883571Y-79607142D01*
X72407380Y-79607142D01*
X71740714Y-78702380D02*
X72550238Y-78702380D01*
X72645476Y-78750000D01*
X72693095Y-78797619D01*
X72740714Y-78892857D01*
X72740714Y-79035714D01*
X72693095Y-79130952D01*
X72359761Y-78702380D02*
X72407380Y-78797619D01*
X72407380Y-78988095D01*
X72359761Y-79083333D01*
X72312142Y-79130952D01*
X72216904Y-79178571D01*
X71931190Y-79178571D01*
X71835952Y-79130952D01*
X71788333Y-79083333D01*
X71740714Y-78988095D01*
X71740714Y-78797619D01*
X71788333Y-78702380D01*
X125921428Y-97628571D02*
X125864285Y-97685714D01*
X125692857Y-97742857D01*
X125578571Y-97742857D01*
X125407142Y-97685714D01*
X125292857Y-97571428D01*
X125235714Y-97457142D01*
X125178571Y-97228571D01*
X125178571Y-97057142D01*
X125235714Y-96828571D01*
X125292857Y-96714285D01*
X125407142Y-96600000D01*
X125578571Y-96542857D01*
X125692857Y-96542857D01*
X125864285Y-96600000D01*
X125921428Y-96657142D01*
X126378571Y-97400000D02*
X126950000Y-97400000D01*
X126264285Y-97742857D02*
X126664285Y-96542857D01*
X127064285Y-97742857D01*
X127464285Y-97742857D02*
X127464285Y-96542857D01*
X128150000Y-97742857D01*
X128150000Y-96542857D01*
X129635714Y-97742857D02*
X129635714Y-96542857D01*
X130207142Y-97742857D02*
X130207142Y-96542857D01*
X130892857Y-97742857D01*
X130892857Y-96542857D01*
X131464285Y-97742857D02*
X131464285Y-96542857D01*
X131921428Y-96542857D01*
X132035714Y-96600000D01*
X132092857Y-96657142D01*
X132150000Y-96771428D01*
X132150000Y-96942857D01*
X132092857Y-97057142D01*
X132035714Y-97114285D01*
X131921428Y-97171428D01*
X131464285Y-97171428D01*
X132664285Y-96542857D02*
X132664285Y-97514285D01*
X132721428Y-97628571D01*
X132778571Y-97685714D01*
X132892857Y-97742857D01*
X133121428Y-97742857D01*
X133235714Y-97685714D01*
X133292857Y-97628571D01*
X133350000Y-97514285D01*
X133350000Y-96542857D01*
X133750000Y-96542857D02*
X134435714Y-96542857D01*
X134092857Y-97742857D02*
X134092857Y-96542857D01*
X70911904Y-105652380D02*
X70911904Y-106461904D01*
X70959523Y-106557142D01*
X71007142Y-106604761D01*
X71102380Y-106652380D01*
X71292857Y-106652380D01*
X71388095Y-106604761D01*
X71435714Y-106557142D01*
X71483333Y-106461904D01*
X71483333Y-105652380D01*
X71911904Y-106604761D02*
X72054761Y-106652380D01*
X72292857Y-106652380D01*
X72388095Y-106604761D01*
X72435714Y-106557142D01*
X72483333Y-106461904D01*
X72483333Y-106366666D01*
X72435714Y-106271428D01*
X72388095Y-106223809D01*
X72292857Y-106176190D01*
X72102380Y-106128571D01*
X72007142Y-106080952D01*
X71959523Y-106033333D01*
X71911904Y-105938095D01*
X71911904Y-105842857D01*
X71959523Y-105747619D01*
X72007142Y-105700000D01*
X72102380Y-105652380D01*
X72340476Y-105652380D01*
X72483333Y-105700000D01*
X73245238Y-106128571D02*
X73388095Y-106176190D01*
X73435714Y-106223809D01*
X73483333Y-106319047D01*
X73483333Y-106461904D01*
X73435714Y-106557142D01*
X73388095Y-106604761D01*
X73292857Y-106652380D01*
X72911904Y-106652380D01*
X72911904Y-105652380D01*
X73245238Y-105652380D01*
X73340476Y-105700000D01*
X73388095Y-105747619D01*
X73435714Y-105842857D01*
X73435714Y-105938095D01*
X73388095Y-106033333D01*
X73340476Y-106080952D01*
X73245238Y-106128571D01*
X72911904Y-106128571D01*
X74435714Y-106652380D02*
X73864285Y-106652380D01*
X74150000Y-106652380D02*
X74150000Y-105652380D01*
X74054761Y-105795238D01*
X73959523Y-105890476D01*
X73864285Y-105938095D01*
X125590476Y-39352380D02*
X125923809Y-40352380D01*
X126257142Y-39352380D01*
X126590476Y-40352380D02*
X126590476Y-39352380D01*
X126923809Y-40066666D01*
X127257142Y-39352380D01*
X127257142Y-40352380D01*
X127923809Y-39352380D02*
X128114285Y-39352380D01*
X128209523Y-39400000D01*
X128304761Y-39495238D01*
X128352380Y-39685714D01*
X128352380Y-40019047D01*
X128304761Y-40209523D01*
X128209523Y-40304761D01*
X128114285Y-40352380D01*
X127923809Y-40352380D01*
X127828571Y-40304761D01*
X127733333Y-40209523D01*
X127685714Y-40019047D01*
X127685714Y-39685714D01*
X127733333Y-39495238D01*
X127828571Y-39400000D01*
X127923809Y-39352380D01*
X128638095Y-39352380D02*
X129209523Y-39352380D01*
X128923809Y-40352380D02*
X128923809Y-39352380D01*
X97166666Y-77628571D02*
X97309523Y-77676190D01*
X97357142Y-77723809D01*
X97404761Y-77819047D01*
X97404761Y-77961904D01*
X97357142Y-78057142D01*
X97309523Y-78104761D01*
X97214285Y-78152380D01*
X96833333Y-78152380D01*
X96833333Y-77152380D01*
X97166666Y-77152380D01*
X97261904Y-77200000D01*
X97309523Y-77247619D01*
X97357142Y-77342857D01*
X97357142Y-77438095D01*
X97309523Y-77533333D01*
X97261904Y-77580952D01*
X97166666Y-77628571D01*
X96833333Y-77628571D01*
X98023809Y-77152380D02*
X98214285Y-77152380D01*
X98309523Y-77200000D01*
X98404761Y-77295238D01*
X98452380Y-77485714D01*
X98452380Y-77819047D01*
X98404761Y-78009523D01*
X98309523Y-78104761D01*
X98214285Y-78152380D01*
X98023809Y-78152380D01*
X97928571Y-78104761D01*
X97833333Y-78009523D01*
X97785714Y-77819047D01*
X97785714Y-77485714D01*
X97833333Y-77295238D01*
X97928571Y-77200000D01*
X98023809Y-77152380D01*
X99071428Y-77152380D02*
X99261904Y-77152380D01*
X99357142Y-77200000D01*
X99452380Y-77295238D01*
X99500000Y-77485714D01*
X99500000Y-77819047D01*
X99452380Y-78009523D01*
X99357142Y-78104761D01*
X99261904Y-78152380D01*
X99071428Y-78152380D01*
X98976190Y-78104761D01*
X98880952Y-78009523D01*
X98833333Y-77819047D01*
X98833333Y-77485714D01*
X98880952Y-77295238D01*
X98976190Y-77200000D01*
X99071428Y-77152380D01*
X99785714Y-77152380D02*
X100357142Y-77152380D01*
X100071428Y-78152380D02*
X100071428Y-77152380D01*
X100642857Y-77247619D02*
X100690476Y-77200000D01*
X100785714Y-77152380D01*
X101023809Y-77152380D01*
X101119047Y-77200000D01*
X101166666Y-77247619D01*
X101214285Y-77342857D01*
X101214285Y-77438095D01*
X101166666Y-77580952D01*
X100595238Y-78152380D01*
X101214285Y-78152380D01*
X65885714Y-63266666D02*
X66361904Y-63266666D01*
X65790476Y-63552380D02*
X66123809Y-62552380D01*
X66457142Y-63552380D01*
X66790476Y-62552380D02*
X66790476Y-63361904D01*
X66838095Y-63457142D01*
X66885714Y-63504761D01*
X66980952Y-63552380D01*
X67171428Y-63552380D01*
X67266666Y-63504761D01*
X67314285Y-63457142D01*
X67361904Y-63361904D01*
X67361904Y-62552380D01*
X67742857Y-62552380D02*
X68409523Y-63552380D01*
X68409523Y-62552380D02*
X67742857Y-63552380D01*
X68695238Y-62552380D02*
X69314285Y-62552380D01*
X68980952Y-62933333D01*
X69123809Y-62933333D01*
X69219047Y-62980952D01*
X69266666Y-63028571D01*
X69314285Y-63123809D01*
X69314285Y-63361904D01*
X69266666Y-63457142D01*
X69219047Y-63504761D01*
X69123809Y-63552380D01*
X68838095Y-63552380D01*
X68742857Y-63504761D01*
X68695238Y-63457142D01*
X119038095Y-39400000D02*
X118942857Y-39352380D01*
X118800000Y-39352380D01*
X118657142Y-39400000D01*
X118561904Y-39495238D01*
X118514285Y-39590476D01*
X118466666Y-39780952D01*
X118466666Y-39923809D01*
X118514285Y-40114285D01*
X118561904Y-40209523D01*
X118657142Y-40304761D01*
X118800000Y-40352380D01*
X118895238Y-40352380D01*
X119038095Y-40304761D01*
X119085714Y-40257142D01*
X119085714Y-39923809D01*
X118895238Y-39923809D01*
X119514285Y-40352380D02*
X119514285Y-39352380D01*
X120085714Y-40352380D01*
X120085714Y-39352380D01*
X120561904Y-40352380D02*
X120561904Y-39352380D01*
X120800000Y-39352380D01*
X120942857Y-39400000D01*
X121038095Y-39495238D01*
X121085714Y-39590476D01*
X121133333Y-39780952D01*
X121133333Y-39923809D01*
X121085714Y-40114285D01*
X121038095Y-40209523D01*
X120942857Y-40304761D01*
X120800000Y-40352380D01*
X120561904Y-40352380D01*
X78411904Y-105652380D02*
X78411904Y-106461904D01*
X78459523Y-106557142D01*
X78507142Y-106604761D01*
X78602380Y-106652380D01*
X78792857Y-106652380D01*
X78888095Y-106604761D01*
X78935714Y-106557142D01*
X78983333Y-106461904D01*
X78983333Y-105652380D01*
X79411904Y-106604761D02*
X79554761Y-106652380D01*
X79792857Y-106652380D01*
X79888095Y-106604761D01*
X79935714Y-106557142D01*
X79983333Y-106461904D01*
X79983333Y-106366666D01*
X79935714Y-106271428D01*
X79888095Y-106223809D01*
X79792857Y-106176190D01*
X79602380Y-106128571D01*
X79507142Y-106080952D01*
X79459523Y-106033333D01*
X79411904Y-105938095D01*
X79411904Y-105842857D01*
X79459523Y-105747619D01*
X79507142Y-105700000D01*
X79602380Y-105652380D01*
X79840476Y-105652380D01*
X79983333Y-105700000D01*
X80745238Y-106128571D02*
X80888095Y-106176190D01*
X80935714Y-106223809D01*
X80983333Y-106319047D01*
X80983333Y-106461904D01*
X80935714Y-106557142D01*
X80888095Y-106604761D01*
X80792857Y-106652380D01*
X80411904Y-106652380D01*
X80411904Y-105652380D01*
X80745238Y-105652380D01*
X80840476Y-105700000D01*
X80888095Y-105747619D01*
X80935714Y-105842857D01*
X80935714Y-105938095D01*
X80888095Y-106033333D01*
X80840476Y-106080952D01*
X80745238Y-106128571D01*
X80411904Y-106128571D01*
X81364285Y-105747619D02*
X81411904Y-105700000D01*
X81507142Y-105652380D01*
X81745238Y-105652380D01*
X81840476Y-105700000D01*
X81888095Y-105747619D01*
X81935714Y-105842857D01*
X81935714Y-105938095D01*
X81888095Y-106080952D01*
X81316666Y-106652380D01*
X81935714Y-106652380D01*
X82839523Y-86357142D02*
X82791904Y-86404761D01*
X82649047Y-86452380D01*
X82553809Y-86452380D01*
X82410952Y-86404761D01*
X82315714Y-86309523D01*
X82268095Y-86214285D01*
X82220476Y-86023809D01*
X82220476Y-85880952D01*
X82268095Y-85690476D01*
X82315714Y-85595238D01*
X82410952Y-85500000D01*
X82553809Y-85452380D01*
X82649047Y-85452380D01*
X82791904Y-85500000D01*
X82839523Y-85547619D01*
X83268095Y-86452380D02*
X83268095Y-85452380D01*
X83649047Y-85452380D01*
X83744285Y-85500000D01*
X83791904Y-85547619D01*
X83839523Y-85642857D01*
X83839523Y-85785714D01*
X83791904Y-85880952D01*
X83744285Y-85928571D01*
X83649047Y-85976190D01*
X83268095Y-85976190D01*
X84268095Y-85452380D02*
X84268095Y-86261904D01*
X84315714Y-86357142D01*
X84363333Y-86404761D01*
X84458571Y-86452380D01*
X84649047Y-86452380D01*
X84744285Y-86404761D01*
X84791904Y-86357142D01*
X84839523Y-86261904D01*
X84839523Y-85452380D01*
X85268095Y-85547619D02*
X85315714Y-85500000D01*
X85410952Y-85452380D01*
X85649047Y-85452380D01*
X85744285Y-85500000D01*
X85791904Y-85547619D01*
X85839523Y-85642857D01*
X85839523Y-85738095D01*
X85791904Y-85880952D01*
X85220476Y-86452380D01*
X85839523Y-86452380D01*
X86982380Y-85404761D02*
X86125238Y-86690476D01*
X87268095Y-86166666D02*
X87744285Y-86166666D01*
X87172857Y-86452380D02*
X87506190Y-85452380D01*
X87839523Y-86452380D01*
X88172857Y-85452380D02*
X88172857Y-86261904D01*
X88220476Y-86357142D01*
X88268095Y-86404761D01*
X88363333Y-86452380D01*
X88553809Y-86452380D01*
X88649047Y-86404761D01*
X88696666Y-86357142D01*
X88744285Y-86261904D01*
X88744285Y-85452380D01*
X89125238Y-85452380D02*
X89791904Y-86452380D01*
X89791904Y-85452380D02*
X89125238Y-86452380D01*
X151842857Y-44350000D02*
X152414285Y-44350000D01*
X151728571Y-44692857D02*
X152128571Y-43492857D01*
X152528571Y-44692857D01*
X152871428Y-43607142D02*
X152928571Y-43550000D01*
X153042857Y-43492857D01*
X153328571Y-43492857D01*
X153442857Y-43550000D01*
X153500000Y-43607142D01*
X153557142Y-43721428D01*
X153557142Y-43835714D01*
X153500000Y-44007142D01*
X152814285Y-44692857D01*
X153557142Y-44692857D01*
X81738095Y-72900000D02*
X81642857Y-72852380D01*
X81500000Y-72852380D01*
X81357142Y-72900000D01*
X81261904Y-72995238D01*
X81214285Y-73090476D01*
X81166666Y-73280952D01*
X81166666Y-73423809D01*
X81214285Y-73614285D01*
X81261904Y-73709523D01*
X81357142Y-73804761D01*
X81500000Y-73852380D01*
X81595238Y-73852380D01*
X81738095Y-73804761D01*
X81785714Y-73757142D01*
X81785714Y-73423809D01*
X81595238Y-73423809D01*
X82214285Y-73852380D02*
X82214285Y-72852380D01*
X82785714Y-73852380D01*
X82785714Y-72852380D01*
X83261904Y-73852380D02*
X83261904Y-72852380D01*
X83500000Y-72852380D01*
X83642857Y-72900000D01*
X83738095Y-72995238D01*
X83785714Y-73090476D01*
X83833333Y-73280952D01*
X83833333Y-73423809D01*
X83785714Y-73614285D01*
X83738095Y-73709523D01*
X83642857Y-73804761D01*
X83500000Y-73852380D01*
X83261904Y-73852380D01*
X70566666Y-92214285D02*
X70566666Y-91738095D01*
X70852380Y-92309523D02*
X69852380Y-91976190D01*
X70852380Y-91642857D01*
X70852380Y-91309523D02*
X69852380Y-91309523D01*
X69852380Y-91071428D01*
X69900000Y-90928571D01*
X69995238Y-90833333D01*
X70090476Y-90785714D01*
X70280952Y-90738095D01*
X70423809Y-90738095D01*
X70614285Y-90785714D01*
X70709523Y-90833333D01*
X70804761Y-90928571D01*
X70852380Y-91071428D01*
X70852380Y-91309523D01*
X70757142Y-89738095D02*
X70804761Y-89785714D01*
X70852380Y-89928571D01*
X70852380Y-90023809D01*
X70804761Y-90166666D01*
X70709523Y-90261904D01*
X70614285Y-90309523D01*
X70423809Y-90357142D01*
X70280952Y-90357142D01*
X70090476Y-90309523D01*
X69995238Y-90261904D01*
X69900000Y-90166666D01*
X69852380Y-90023809D01*
X69852380Y-89928571D01*
X69900000Y-89785714D01*
X69947619Y-89738095D01*
X69947619Y-89357142D02*
X69900000Y-89309523D01*
X69852380Y-89214285D01*
X69852380Y-88976190D01*
X69900000Y-88880952D01*
X69947619Y-88833333D01*
X70042857Y-88785714D01*
X70138095Y-88785714D01*
X70280952Y-88833333D01*
X70852380Y-89404761D01*
X70852380Y-88785714D01*
X152200000Y-92228571D02*
X152142857Y-92285714D01*
X151971428Y-92342857D01*
X151857142Y-92342857D01*
X151685714Y-92285714D01*
X151571428Y-92171428D01*
X151514285Y-92057142D01*
X151457142Y-91828571D01*
X151457142Y-91657142D01*
X151514285Y-91428571D01*
X151571428Y-91314285D01*
X151685714Y-91200000D01*
X151857142Y-91142857D01*
X151971428Y-91142857D01*
X152142857Y-91200000D01*
X152200000Y-91257142D01*
X153342857Y-92342857D02*
X152657142Y-92342857D01*
X153000000Y-92342857D02*
X153000000Y-91142857D01*
X152885714Y-91314285D01*
X152771428Y-91428571D01*
X152657142Y-91485714D01*
X158592857Y-66050000D02*
X159164285Y-66050000D01*
X158478571Y-66392857D02*
X158878571Y-65192857D01*
X159278571Y-66392857D01*
X160307142Y-66392857D02*
X159621428Y-66392857D01*
X159964285Y-66392857D02*
X159964285Y-65192857D01*
X159850000Y-65364285D01*
X159735714Y-65478571D01*
X159621428Y-65535714D01*
X87316455Y-71633284D02*
X87268836Y-71680903D01*
X87125979Y-71728522D01*
X87030741Y-71728522D01*
X86887884Y-71680903D01*
X86792646Y-71585665D01*
X86745027Y-71490427D01*
X86697408Y-71299951D01*
X86697408Y-71157094D01*
X86745027Y-70966618D01*
X86792646Y-70871380D01*
X86887884Y-70776142D01*
X87030741Y-70728522D01*
X87125979Y-70728522D01*
X87268836Y-70776142D01*
X87316455Y-70823761D01*
X87745027Y-71728522D02*
X87745027Y-70728522D01*
X88125979Y-70728522D01*
X88221217Y-70776142D01*
X88268836Y-70823761D01*
X88316455Y-70918999D01*
X88316455Y-71061856D01*
X88268836Y-71157094D01*
X88221217Y-71204713D01*
X88125979Y-71252332D01*
X87745027Y-71252332D01*
X88745027Y-70728522D02*
X88745027Y-71538046D01*
X88792646Y-71633284D01*
X88840265Y-71680903D01*
X88935503Y-71728522D01*
X89125979Y-71728522D01*
X89221217Y-71680903D01*
X89268836Y-71633284D01*
X89316455Y-71538046D01*
X89316455Y-70728522D01*
X90316455Y-71728522D02*
X89745027Y-71728522D01*
X90030741Y-71728522D02*
X90030741Y-70728522D01*
X89935503Y-70871380D01*
X89840265Y-70966618D01*
X89745027Y-71014237D01*
X91459312Y-70680903D02*
X90602170Y-71966618D01*
X91792646Y-71728522D02*
X91792646Y-70728522D01*
X92125979Y-71442808D01*
X92459312Y-70728522D01*
X92459312Y-71728522D01*
X93125979Y-70728522D02*
X93316455Y-70728522D01*
X93411693Y-70776142D01*
X93506932Y-70871380D01*
X93554551Y-71061856D01*
X93554551Y-71395189D01*
X93506932Y-71585665D01*
X93411693Y-71680903D01*
X93316455Y-71728522D01*
X93125979Y-71728522D01*
X93030741Y-71680903D01*
X92935503Y-71585665D01*
X92887884Y-71395189D01*
X92887884Y-71061856D01*
X92935503Y-70871380D01*
X93030741Y-70776142D01*
X93125979Y-70728522D01*
X93840265Y-70728522D02*
X94411693Y-70728522D01*
X94125979Y-71728522D02*
X94125979Y-70728522D01*
X66966666Y-104852380D02*
X66966666Y-103852380D01*
X67347619Y-103852380D01*
X67442857Y-103900000D01*
X67490476Y-103947619D01*
X67538095Y-104042857D01*
X67538095Y-104185714D01*
X67490476Y-104280952D01*
X67442857Y-104328571D01*
X67347619Y-104376190D01*
X66966666Y-104376190D01*
X67871428Y-103852380D02*
X68109523Y-104852380D01*
X68300000Y-104138095D01*
X68490476Y-104852380D01*
X68728571Y-103852380D01*
X69680952Y-104852380D02*
X69347619Y-104376190D01*
X69109523Y-104852380D02*
X69109523Y-103852380D01*
X69490476Y-103852380D01*
X69585714Y-103900000D01*
X69633333Y-103947619D01*
X69680952Y-104042857D01*
X69680952Y-104185714D01*
X69633333Y-104280952D01*
X69585714Y-104328571D01*
X69490476Y-104376190D01*
X69109523Y-104376190D01*
X77185714Y-64828571D02*
X77519047Y-64828571D01*
X77661904Y-65352380D02*
X77185714Y-65352380D01*
X77185714Y-64352380D01*
X77661904Y-64352380D01*
X78090476Y-65352380D02*
X78090476Y-64352380D01*
X78661904Y-65352380D01*
X78661904Y-64352380D01*
X79709523Y-65257142D02*
X79661904Y-65304761D01*
X79519047Y-65352380D01*
X79423809Y-65352380D01*
X79280952Y-65304761D01*
X79185714Y-65209523D01*
X79138095Y-65114285D01*
X79090476Y-64923809D01*
X79090476Y-64780952D01*
X79138095Y-64590476D01*
X79185714Y-64495238D01*
X79280952Y-64400000D01*
X79423809Y-64352380D01*
X79519047Y-64352380D01*
X79661904Y-64400000D01*
X79709523Y-64447619D01*
X80661904Y-65352380D02*
X80090476Y-65352380D01*
X80376190Y-65352380D02*
X80376190Y-64352380D01*
X80280952Y-64495238D01*
X80185714Y-64590476D01*
X80090476Y-64638095D01*
X113476190Y-93702380D02*
X113476190Y-92702380D01*
X113714285Y-92702380D01*
X113857142Y-92750000D01*
X113952380Y-92845238D01*
X114000000Y-92940476D01*
X114047619Y-93130952D01*
X114047619Y-93273809D01*
X114000000Y-93464285D01*
X113952380Y-93559523D01*
X113857142Y-93654761D01*
X113714285Y-93702380D01*
X113476190Y-93702380D01*
X114857142Y-93654761D02*
X114761904Y-93702380D01*
X114571428Y-93702380D01*
X114476190Y-93654761D01*
X114428571Y-93559523D01*
X114428571Y-93178571D01*
X114476190Y-93083333D01*
X114571428Y-93035714D01*
X114761904Y-93035714D01*
X114857142Y-93083333D01*
X114904761Y-93178571D01*
X114904761Y-93273809D01*
X114428571Y-93369047D01*
X115333333Y-93702380D02*
X115333333Y-92702380D01*
X115333333Y-93083333D02*
X115428571Y-93035714D01*
X115619047Y-93035714D01*
X115714285Y-93083333D01*
X115761904Y-93130952D01*
X115809523Y-93226190D01*
X115809523Y-93511904D01*
X115761904Y-93607142D01*
X115714285Y-93654761D01*
X115619047Y-93702380D01*
X115428571Y-93702380D01*
X115333333Y-93654761D01*
X116666666Y-93035714D02*
X116666666Y-93702380D01*
X116238095Y-93035714D02*
X116238095Y-93559523D01*
X116285714Y-93654761D01*
X116380952Y-93702380D01*
X116523809Y-93702380D01*
X116619047Y-93654761D01*
X116666666Y-93607142D01*
X117571428Y-93035714D02*
X117571428Y-93845238D01*
X117523809Y-93940476D01*
X117476190Y-93988095D01*
X117380952Y-94035714D01*
X117238095Y-94035714D01*
X117142857Y-93988095D01*
X117571428Y-93654761D02*
X117476190Y-93702380D01*
X117285714Y-93702380D01*
X117190476Y-93654761D01*
X117142857Y-93607142D01*
X117095238Y-93511904D01*
X117095238Y-93226190D01*
X117142857Y-93130952D01*
X117190476Y-93083333D01*
X117285714Y-93035714D01*
X117476190Y-93035714D01*
X117571428Y-93083333D01*
X118000000Y-92797619D02*
X118047619Y-92750000D01*
X118142857Y-92702380D01*
X118380952Y-92702380D01*
X118476190Y-92750000D01*
X118523809Y-92797619D01*
X118571428Y-92892857D01*
X118571428Y-92988095D01*
X118523809Y-93130952D01*
X117952380Y-93702380D01*
X118571428Y-93702380D01*
X109638095Y-97402380D02*
X110209523Y-97402380D01*
X109923809Y-98402380D02*
X109923809Y-97402380D01*
X110447619Y-97402380D02*
X111114285Y-98402380D01*
X111114285Y-97402380D02*
X110447619Y-98402380D01*
X77466666Y-73464285D02*
X77466666Y-72988095D01*
X77752380Y-73559523D02*
X76752380Y-73226190D01*
X77752380Y-72892857D01*
X76752380Y-72559523D02*
X77561904Y-72559523D01*
X77657142Y-72511904D01*
X77704761Y-72464285D01*
X77752380Y-72369047D01*
X77752380Y-72178571D01*
X77704761Y-72083333D01*
X77657142Y-72035714D01*
X77561904Y-71988095D01*
X76752380Y-71988095D01*
X76752380Y-71607142D02*
X77752380Y-70940476D01*
X76752380Y-70940476D02*
X77752380Y-71607142D01*
X76847619Y-70607142D02*
X76800000Y-70559523D01*
X76752380Y-70464285D01*
X76752380Y-70226190D01*
X76800000Y-70130952D01*
X76847619Y-70083333D01*
X76942857Y-70035714D01*
X77038095Y-70035714D01*
X77180952Y-70083333D01*
X77752380Y-70654761D01*
X77752380Y-70035714D01*
X158750000Y-61978571D02*
X158692857Y-62035714D01*
X158521428Y-62092857D01*
X158407142Y-62092857D01*
X158235714Y-62035714D01*
X158121428Y-61921428D01*
X158064285Y-61807142D01*
X158007142Y-61578571D01*
X158007142Y-61407142D01*
X158064285Y-61178571D01*
X158121428Y-61064285D01*
X158235714Y-60950000D01*
X158407142Y-60892857D01*
X158521428Y-60892857D01*
X158692857Y-60950000D01*
X158750000Y-61007142D01*
X159207142Y-61007142D02*
X159264285Y-60950000D01*
X159378571Y-60892857D01*
X159664285Y-60892857D01*
X159778571Y-60950000D01*
X159835714Y-61007142D01*
X159892857Y-61121428D01*
X159892857Y-61235714D01*
X159835714Y-61407142D01*
X159150000Y-62092857D01*
X159892857Y-62092857D01*
X156404761Y-106878571D02*
X156738095Y-106878571D01*
X156880952Y-107402380D02*
X156404761Y-107402380D01*
X156404761Y-106402380D01*
X156880952Y-106402380D01*
X157261904Y-107354761D02*
X157404761Y-107402380D01*
X157642857Y-107402380D01*
X157738095Y-107354761D01*
X157785714Y-107307142D01*
X157833333Y-107211904D01*
X157833333Y-107116666D01*
X157785714Y-107021428D01*
X157738095Y-106973809D01*
X157642857Y-106926190D01*
X157452380Y-106878571D01*
X157357142Y-106830952D01*
X157309523Y-106783333D01*
X157261904Y-106688095D01*
X157261904Y-106592857D01*
X157309523Y-106497619D01*
X157357142Y-106450000D01*
X157452380Y-106402380D01*
X157690476Y-106402380D01*
X157833333Y-106450000D01*
X158119047Y-106402380D02*
X158690476Y-106402380D01*
X158404761Y-107402380D02*
X158404761Y-106402380D01*
X159214285Y-106402380D02*
X159404761Y-106402380D01*
X159500000Y-106450000D01*
X159595238Y-106545238D01*
X159642857Y-106735714D01*
X159642857Y-107069047D01*
X159595238Y-107259523D01*
X159500000Y-107354761D01*
X159404761Y-107402380D01*
X159214285Y-107402380D01*
X159119047Y-107354761D01*
X159023809Y-107259523D01*
X158976190Y-107069047D01*
X158976190Y-106735714D01*
X159023809Y-106545238D01*
X159119047Y-106450000D01*
X159214285Y-106402380D01*
X160071428Y-107402380D02*
X160071428Y-106402380D01*
X160452380Y-106402380D01*
X160547619Y-106450000D01*
X160595238Y-106497619D01*
X160642857Y-106592857D01*
X160642857Y-106735714D01*
X160595238Y-106830952D01*
X160547619Y-106878571D01*
X160452380Y-106926190D01*
X160071428Y-106926190D01*
X154899112Y-96825413D02*
X154851493Y-96873032D01*
X154708636Y-96920651D01*
X154613398Y-96920651D01*
X154470541Y-96873032D01*
X154375303Y-96777794D01*
X154327684Y-96682556D01*
X154280065Y-96492080D01*
X154280065Y-96349223D01*
X154327684Y-96158747D01*
X154375303Y-96063509D01*
X154470541Y-95968271D01*
X154613398Y-95920651D01*
X154708636Y-95920651D01*
X154851493Y-95968271D01*
X154899112Y-96015890D01*
X155280065Y-96634937D02*
X155756255Y-96634937D01*
X155184827Y-96920651D02*
X155518160Y-95920651D01*
X155851493Y-96920651D01*
X156184827Y-96920651D02*
X156184827Y-95920651D01*
X156756255Y-96920651D01*
X156756255Y-95920651D01*
X156364285Y-47164285D02*
X156535714Y-47221428D01*
X156592857Y-47278571D01*
X156650000Y-47392857D01*
X156650000Y-47564285D01*
X156592857Y-47678571D01*
X156535714Y-47735714D01*
X156421428Y-47792857D01*
X155964285Y-47792857D01*
X155964285Y-46592857D01*
X156364285Y-46592857D01*
X156478571Y-46650000D01*
X156535714Y-46707142D01*
X156592857Y-46821428D01*
X156592857Y-46935714D01*
X156535714Y-47050000D01*
X156478571Y-47107142D01*
X156364285Y-47164285D01*
X155964285Y-47164285D01*
X157107142Y-46707142D02*
X157164285Y-46650000D01*
X157278571Y-46592857D01*
X157564285Y-46592857D01*
X157678571Y-46650000D01*
X157735714Y-46707142D01*
X157792857Y-46821428D01*
X157792857Y-46935714D01*
X157735714Y-47107142D01*
X157050000Y-47792857D01*
X157792857Y-47792857D01*
X94555952Y-102582142D02*
X94508333Y-102629761D01*
X94365476Y-102677380D01*
X94270238Y-102677380D01*
X94127380Y-102629761D01*
X94032142Y-102534523D01*
X93984523Y-102439285D01*
X93936904Y-102248809D01*
X93936904Y-102105952D01*
X93984523Y-101915476D01*
X94032142Y-101820238D01*
X94127380Y-101725000D01*
X94270238Y-101677380D01*
X94365476Y-101677380D01*
X94508333Y-101725000D01*
X94555952Y-101772619D01*
X94936904Y-102391666D02*
X95413095Y-102391666D01*
X94841666Y-102677380D02*
X95175000Y-101677380D01*
X95508333Y-102677380D01*
X95841666Y-102677380D02*
X95841666Y-101677380D01*
X96413095Y-102677380D01*
X96413095Y-101677380D01*
X96841666Y-101772619D02*
X96889285Y-101725000D01*
X96984523Y-101677380D01*
X97222619Y-101677380D01*
X97317857Y-101725000D01*
X97365476Y-101772619D01*
X97413095Y-101867857D01*
X97413095Y-101963095D01*
X97365476Y-102105952D01*
X96794047Y-102677380D01*
X97413095Y-102677380D01*
X85202380Y-59723809D02*
X84202380Y-59723809D01*
X84202380Y-59485714D01*
X84250000Y-59342857D01*
X84345238Y-59247619D01*
X84440476Y-59200000D01*
X84630952Y-59152380D01*
X84773809Y-59152380D01*
X84964285Y-59200000D01*
X85059523Y-59247619D01*
X85154761Y-59342857D01*
X85202380Y-59485714D01*
X85202380Y-59723809D01*
X85154761Y-58342857D02*
X85202380Y-58438095D01*
X85202380Y-58628571D01*
X85154761Y-58723809D01*
X85059523Y-58771428D01*
X84678571Y-58771428D01*
X84583333Y-58723809D01*
X84535714Y-58628571D01*
X84535714Y-58438095D01*
X84583333Y-58342857D01*
X84678571Y-58295238D01*
X84773809Y-58295238D01*
X84869047Y-58771428D01*
X85202380Y-57866666D02*
X84202380Y-57866666D01*
X84583333Y-57866666D02*
X84535714Y-57771428D01*
X84535714Y-57580952D01*
X84583333Y-57485714D01*
X84630952Y-57438095D01*
X84726190Y-57390476D01*
X85011904Y-57390476D01*
X85107142Y-57438095D01*
X85154761Y-57485714D01*
X85202380Y-57580952D01*
X85202380Y-57771428D01*
X85154761Y-57866666D01*
X84535714Y-56533333D02*
X85202380Y-56533333D01*
X84535714Y-56961904D02*
X85059523Y-56961904D01*
X85154761Y-56914285D01*
X85202380Y-56819047D01*
X85202380Y-56676190D01*
X85154761Y-56580952D01*
X85107142Y-56533333D01*
X84535714Y-55628571D02*
X85345238Y-55628571D01*
X85440476Y-55676190D01*
X85488095Y-55723809D01*
X85535714Y-55819047D01*
X85535714Y-55961904D01*
X85488095Y-56057142D01*
X85154761Y-55628571D02*
X85202380Y-55723809D01*
X85202380Y-55914285D01*
X85154761Y-56009523D01*
X85107142Y-56057142D01*
X85011904Y-56104761D01*
X84726190Y-56104761D01*
X84630952Y-56057142D01*
X84583333Y-56009523D01*
X84535714Y-55914285D01*
X84535714Y-55723809D01*
X84583333Y-55628571D01*
X85202380Y-54628571D02*
X85202380Y-55200000D01*
X85202380Y-54914285D02*
X84202380Y-54914285D01*
X84345238Y-55009523D01*
X84440476Y-55104761D01*
X84488095Y-55200000D01*
X77185714Y-46828571D02*
X77519047Y-46828571D01*
X77661904Y-47352380D02*
X77185714Y-47352380D01*
X77185714Y-46352380D01*
X77661904Y-46352380D01*
X78090476Y-47352380D02*
X78090476Y-46352380D01*
X78661904Y-47352380D01*
X78661904Y-46352380D01*
X79709523Y-47257142D02*
X79661904Y-47304761D01*
X79519047Y-47352380D01*
X79423809Y-47352380D01*
X79280952Y-47304761D01*
X79185714Y-47209523D01*
X79138095Y-47114285D01*
X79090476Y-46923809D01*
X79090476Y-46780952D01*
X79138095Y-46590476D01*
X79185714Y-46495238D01*
X79280952Y-46400000D01*
X79423809Y-46352380D01*
X79519047Y-46352380D01*
X79661904Y-46400000D01*
X79709523Y-46447619D01*
X80090476Y-46447619D02*
X80138095Y-46400000D01*
X80233333Y-46352380D01*
X80471428Y-46352380D01*
X80566666Y-46400000D01*
X80614285Y-46447619D01*
X80661904Y-46542857D01*
X80661904Y-46638095D01*
X80614285Y-46780952D01*
X80042857Y-47352380D01*
X80661904Y-47352380D01*
X94166666Y-58003571D02*
X94309523Y-58051190D01*
X94357142Y-58098809D01*
X94404761Y-58194047D01*
X94404761Y-58336904D01*
X94357142Y-58432142D01*
X94309523Y-58479761D01*
X94214285Y-58527380D01*
X93833333Y-58527380D01*
X93833333Y-57527380D01*
X94166666Y-57527380D01*
X94261904Y-57575000D01*
X94309523Y-57622619D01*
X94357142Y-57717857D01*
X94357142Y-57813095D01*
X94309523Y-57908333D01*
X94261904Y-57955952D01*
X94166666Y-58003571D01*
X93833333Y-58003571D01*
X95023809Y-57527380D02*
X95214285Y-57527380D01*
X95309523Y-57575000D01*
X95404761Y-57670238D01*
X95452380Y-57860714D01*
X95452380Y-58194047D01*
X95404761Y-58384523D01*
X95309523Y-58479761D01*
X95214285Y-58527380D01*
X95023809Y-58527380D01*
X94928571Y-58479761D01*
X94833333Y-58384523D01*
X94785714Y-58194047D01*
X94785714Y-57860714D01*
X94833333Y-57670238D01*
X94928571Y-57575000D01*
X95023809Y-57527380D01*
X96071428Y-57527380D02*
X96261904Y-57527380D01*
X96357142Y-57575000D01*
X96452380Y-57670238D01*
X96500000Y-57860714D01*
X96500000Y-58194047D01*
X96452380Y-58384523D01*
X96357142Y-58479761D01*
X96261904Y-58527380D01*
X96071428Y-58527380D01*
X95976190Y-58479761D01*
X95880952Y-58384523D01*
X95833333Y-58194047D01*
X95833333Y-57860714D01*
X95880952Y-57670238D01*
X95976190Y-57575000D01*
X96071428Y-57527380D01*
X96785714Y-57527380D02*
X97357142Y-57527380D01*
X97071428Y-58527380D02*
X97071428Y-57527380D01*
X98214285Y-58527380D02*
X97642857Y-58527380D01*
X97928571Y-58527380D02*
X97928571Y-57527380D01*
X97833333Y-57670238D01*
X97738095Y-57765476D01*
X97642857Y-57813095D01*
X152714285Y-76164285D02*
X152885714Y-76221428D01*
X152942857Y-76278571D01*
X153000000Y-76392857D01*
X153000000Y-76564285D01*
X152942857Y-76678571D01*
X152885714Y-76735714D01*
X152771428Y-76792857D01*
X152314285Y-76792857D01*
X152314285Y-75592857D01*
X152714285Y-75592857D01*
X152828571Y-75650000D01*
X152885714Y-75707142D01*
X152942857Y-75821428D01*
X152942857Y-75935714D01*
X152885714Y-76050000D01*
X152828571Y-76107142D01*
X152714285Y-76164285D01*
X152314285Y-76164285D01*
X154142857Y-76792857D02*
X153457142Y-76792857D01*
X153800000Y-76792857D02*
X153800000Y-75592857D01*
X153685714Y-75764285D01*
X153571428Y-75878571D01*
X153457142Y-75935714D01*
X81128571Y-80850000D02*
X79985714Y-80850000D01*
X80002380Y-84709523D02*
X80002380Y-84138095D01*
X81002380Y-84423809D02*
X80002380Y-84423809D01*
X81002380Y-83804761D02*
X80002380Y-83804761D01*
X80478571Y-83804761D02*
X80478571Y-83233333D01*
X81002380Y-83233333D02*
X80002380Y-83233333D01*
X81002380Y-82233333D02*
X81002380Y-82804761D01*
X81002380Y-82519047D02*
X80002380Y-82519047D01*
X80145238Y-82614285D01*
X80240476Y-82709523D01*
X80288095Y-82804761D01*
X80002380Y-79661904D02*
X80002380Y-79090476D01*
X81002380Y-79376190D02*
X80002380Y-79376190D01*
X81002380Y-78757142D02*
X80002380Y-78757142D01*
X80478571Y-78757142D02*
X80478571Y-78185714D01*
X81002380Y-78185714D02*
X80002380Y-78185714D01*
X80097619Y-77757142D02*
X80050000Y-77709523D01*
X80002380Y-77614285D01*
X80002380Y-77376190D01*
X80050000Y-77280952D01*
X80097619Y-77233333D01*
X80192857Y-77185714D01*
X80288095Y-77185714D01*
X80430952Y-77233333D01*
X81002380Y-77804761D01*
X81002380Y-77185714D01*
X70711666Y-100639285D02*
X70711666Y-100163095D01*
X70997380Y-100734523D02*
X69997380Y-100401190D01*
X70997380Y-100067857D01*
X70997380Y-99734523D02*
X69997380Y-99734523D01*
X69997380Y-99496428D01*
X70045000Y-99353571D01*
X70140238Y-99258333D01*
X70235476Y-99210714D01*
X70425952Y-99163095D01*
X70568809Y-99163095D01*
X70759285Y-99210714D01*
X70854523Y-99258333D01*
X70949761Y-99353571D01*
X70997380Y-99496428D01*
X70997380Y-99734523D01*
X70902142Y-98163095D02*
X70949761Y-98210714D01*
X70997380Y-98353571D01*
X70997380Y-98448809D01*
X70949761Y-98591666D01*
X70854523Y-98686904D01*
X70759285Y-98734523D01*
X70568809Y-98782142D01*
X70425952Y-98782142D01*
X70235476Y-98734523D01*
X70140238Y-98686904D01*
X70045000Y-98591666D01*
X69997380Y-98448809D01*
X69997380Y-98353571D01*
X70045000Y-98210714D01*
X70092619Y-98163095D01*
X70997380Y-97210714D02*
X70997380Y-97782142D01*
X70997380Y-97496428D02*
X69997380Y-97496428D01*
X70140238Y-97591666D01*
X70235476Y-97686904D01*
X70283095Y-97782142D01*
X72607380Y-101234523D02*
X72131190Y-101567857D01*
X72607380Y-101805952D02*
X71607380Y-101805952D01*
X71607380Y-101425000D01*
X71655000Y-101329761D01*
X71702619Y-101282142D01*
X71797857Y-101234523D01*
X71940714Y-101234523D01*
X72035952Y-101282142D01*
X72083571Y-101329761D01*
X72131190Y-101425000D01*
X72131190Y-101805952D01*
X72607380Y-100663095D02*
X72559761Y-100758333D01*
X72512142Y-100805952D01*
X72416904Y-100853571D01*
X72131190Y-100853571D01*
X72035952Y-100805952D01*
X71988333Y-100758333D01*
X71940714Y-100663095D01*
X71940714Y-100520238D01*
X71988333Y-100425000D01*
X72035952Y-100377380D01*
X72131190Y-100329761D01*
X72416904Y-100329761D01*
X72512142Y-100377380D01*
X72559761Y-100425000D01*
X72607380Y-100520238D01*
X72607380Y-100663095D01*
X71940714Y-100044047D02*
X71940714Y-99663095D01*
X71607380Y-99901190D02*
X72464523Y-99901190D01*
X72559761Y-99853571D01*
X72607380Y-99758333D01*
X72607380Y-99663095D01*
X72607380Y-98901190D02*
X72083571Y-98901190D01*
X71988333Y-98948809D01*
X71940714Y-99044047D01*
X71940714Y-99234523D01*
X71988333Y-99329761D01*
X72559761Y-98901190D02*
X72607380Y-98996428D01*
X72607380Y-99234523D01*
X72559761Y-99329761D01*
X72464523Y-99377380D01*
X72369285Y-99377380D01*
X72274047Y-99329761D01*
X72226428Y-99234523D01*
X72226428Y-98996428D01*
X72178809Y-98901190D01*
X71940714Y-98567857D02*
X71940714Y-98186904D01*
X71607380Y-98425000D02*
X72464523Y-98425000D01*
X72559761Y-98377380D01*
X72607380Y-98282142D01*
X72607380Y-98186904D01*
X72607380Y-97853571D02*
X71940714Y-97853571D01*
X71607380Y-97853571D02*
X71655000Y-97901190D01*
X71702619Y-97853571D01*
X71655000Y-97805952D01*
X71607380Y-97853571D01*
X71702619Y-97853571D01*
X72607380Y-97234523D02*
X72559761Y-97329761D01*
X72512142Y-97377380D01*
X72416904Y-97425000D01*
X72131190Y-97425000D01*
X72035952Y-97377380D01*
X71988333Y-97329761D01*
X71940714Y-97234523D01*
X71940714Y-97091666D01*
X71988333Y-96996428D01*
X72035952Y-96948809D01*
X72131190Y-96901190D01*
X72416904Y-96901190D01*
X72512142Y-96948809D01*
X72559761Y-96996428D01*
X72607380Y-97091666D01*
X72607380Y-97234523D01*
X71940714Y-96472619D02*
X72607380Y-96472619D01*
X72035952Y-96472619D02*
X71988333Y-96425000D01*
X71940714Y-96329761D01*
X71940714Y-96186904D01*
X71988333Y-96091666D01*
X72083571Y-96044047D01*
X72607380Y-96044047D01*
D11*
X84905580Y-82280000D02*
X84624420Y-82280000D01*
X84905580Y-83300000D02*
X84624420Y-83300000D01*
X87480000Y-82294420D02*
X87480000Y-82575580D01*
X88500000Y-82294420D02*
X88500000Y-82575580D01*
X98134420Y-73940000D02*
X98415580Y-73940000D01*
X98134420Y-74960000D02*
X98415580Y-74960000D01*
X97940000Y-60764420D02*
X97940000Y-61045580D01*
X96920000Y-60764420D02*
X96920000Y-61045580D01*
X101688641Y-57190000D02*
X101381359Y-57190000D01*
X101688641Y-56430000D02*
X101381359Y-56430000D01*
X98810000Y-66965000D02*
X98810000Y-68640000D01*
X104000000Y-64240000D02*
X104000000Y-66965000D01*
X98550000Y-64240000D02*
X98550000Y-66965000D01*
X104000000Y-66965000D02*
X103740000Y-66965000D01*
X98550000Y-64240000D02*
X98550000Y-61515000D01*
X98550000Y-66965000D02*
X98810000Y-66965000D01*
X98550000Y-61515000D02*
X98810000Y-61515000D01*
X104000000Y-61515000D02*
X103740000Y-61515000D01*
X104000000Y-64240000D02*
X104000000Y-61515000D01*
X89445580Y-67060000D02*
X89164420Y-67060000D01*
X89445580Y-66040000D02*
X89164420Y-66040000D01*
X101252258Y-57567500D02*
X100777742Y-57567500D01*
X101252258Y-58612500D02*
X100777742Y-58612500D01*
X90950000Y-83444420D02*
X90950000Y-83725580D01*
X89930000Y-83444420D02*
X89930000Y-83725580D01*
X83495580Y-74190000D02*
X83214420Y-74190000D01*
X83495580Y-75210000D02*
X83214420Y-75210000D01*
X90269000Y-69005580D02*
X90269000Y-68724420D01*
X89249000Y-69005580D02*
X89249000Y-68724420D01*
X75489500Y-99184258D02*
X75489500Y-98709742D01*
X76534500Y-99184258D02*
X76534500Y-98709742D01*
X87330000Y-69005580D02*
X87330000Y-68724420D01*
X88350000Y-69005580D02*
X88350000Y-68724420D01*
X96734420Y-79790000D02*
X97015580Y-79790000D01*
X96734420Y-80810000D02*
X97015580Y-80810000D01*
X84845580Y-81710000D02*
X84564420Y-81710000D01*
X84845580Y-80690000D02*
X84564420Y-80690000D01*
X87180000Y-72540000D02*
X87180000Y-73190000D01*
X93750000Y-72540000D02*
X94400000Y-72540000D01*
X93750000Y-79760000D02*
X94400000Y-79760000D01*
X87830000Y-72540000D02*
X87180000Y-72540000D01*
X87180000Y-79760000D02*
X87180000Y-79110000D01*
X87830000Y-79760000D02*
X87180000Y-79760000D01*
X94400000Y-72540000D02*
X94400000Y-73190000D01*
X94040000Y-63865580D02*
X94040000Y-63584420D01*
X95060000Y-63865580D02*
X95060000Y-63584420D01*
X74934500Y-99184258D02*
X74934500Y-98709742D01*
X73889500Y-99184258D02*
X73889500Y-98709742D01*
X92550000Y-83544420D02*
X92550000Y-83825580D01*
X91530000Y-83544420D02*
X91530000Y-83825580D01*
X84845580Y-80060000D02*
X84564420Y-80060000D01*
X84845580Y-79040000D02*
X84564420Y-79040000D01*
X92262500Y-68772258D02*
X92262500Y-68297742D01*
X91217500Y-68772258D02*
X91217500Y-68297742D01*
X79230578Y-96941000D02*
X78713422Y-96941000D01*
X79230578Y-95521000D02*
X78713422Y-95521000D01*
X114100320Y-44070000D02*
X114381480Y-44070000D01*
X114100320Y-45090000D02*
X114381480Y-45090000D01*
X112429648Y-75015000D02*
X112952152Y-75015000D01*
X112429648Y-73545000D02*
X112952152Y-73545000D01*
X123487258Y-96257500D02*
X123012742Y-96257500D01*
X123487258Y-97302500D02*
X123012742Y-97302500D01*
X95246000Y-97023420D02*
X95246000Y-97304580D01*
X94226000Y-97023420D02*
X94226000Y-97304580D01*
X90710000Y-49850000D02*
X90710000Y-51800000D01*
X90710000Y-49850000D02*
X90710000Y-46400000D01*
X85590000Y-49850000D02*
X85590000Y-47900000D01*
X85590000Y-49850000D02*
X85590000Y-51800000D01*
X116150000Y-75550000D02*
X116150000Y-71650000D01*
X118150000Y-75550000D02*
X118150000Y-71650000D01*
X116150000Y-75550000D02*
X118150000Y-75550000D01*
X128370000Y-91345563D02*
X128370000Y-89660000D01*
X119850000Y-83890000D02*
X119850000Y-86640000D01*
X128370000Y-84954437D02*
X128370000Y-86640000D01*
X127305563Y-92410000D02*
X119850000Y-92410000D01*
X119850000Y-92410000D02*
X119850000Y-89660000D01*
X129610000Y-90660000D02*
X128610000Y-90660000D01*
X128370000Y-91345563D02*
X127305563Y-92410000D01*
X127305563Y-83890000D02*
X119850000Y-83890000D01*
X129110000Y-91160000D02*
X129110000Y-90160000D01*
X128370000Y-84954437D02*
X127305563Y-83890000D01*
X106577500Y-83887742D02*
X106577500Y-84362258D01*
X107622500Y-83887742D02*
X107622500Y-84362258D01*
X95919437Y-46330000D02*
X101675000Y-46330000D01*
X93827500Y-41072500D02*
X94615000Y-41072500D01*
X94855000Y-40574437D02*
X94855000Y-41860000D01*
X95919437Y-39510000D02*
X101675000Y-39510000D01*
X94855000Y-40574437D02*
X95919437Y-39510000D01*
X94221250Y-40678750D02*
X94221250Y-41466250D01*
X101675000Y-39510000D02*
X101675000Y-41860000D01*
X94855000Y-45265563D02*
X94855000Y-43980000D01*
X94855000Y-45265563D02*
X95919437Y-46330000D01*
X101675000Y-46330000D02*
X101675000Y-43980000D01*
X153932742Y-85422500D02*
X154407258Y-85422500D01*
X153932742Y-84377500D02*
X154407258Y-84377500D01*
X143087258Y-64977500D02*
X142612742Y-64977500D01*
X143087258Y-66022500D02*
X142612742Y-66022500D01*
X87250000Y-57750000D02*
X93250000Y-57750000D01*
X93250000Y-61350000D02*
X87250000Y-61350000D01*
X87250000Y-61350000D02*
X87250000Y-57750000D01*
X93250000Y-57750000D02*
X93250000Y-61350000D01*
X100600000Y-102550000D02*
X102000000Y-102550000D01*
X100600000Y-103950000D02*
X100600000Y-102550000D01*
X102000000Y-102550000D02*
X102000000Y-103950000D01*
X102000000Y-103950000D02*
X100600000Y-103950000D01*
X153840580Y-65260000D02*
X153559420Y-65260000D01*
X153840580Y-64240000D02*
X153559420Y-64240000D01*
X81564000Y-97780000D02*
X81564000Y-101680000D01*
X79564000Y-97780000D02*
X79564000Y-101680000D01*
X81564000Y-97780000D02*
X79564000Y-97780000D01*
X136438748Y-47060000D02*
X137861252Y-47060000D01*
X136438748Y-45240000D02*
X137861252Y-45240000D01*
X146770000Y-91045000D02*
X146770000Y-85155000D01*
X141630000Y-91500000D02*
X141630000Y-85155000D01*
X145088748Y-94365000D02*
X145611252Y-94365000D01*
X145088748Y-95835000D02*
X145611252Y-95835000D01*
X152240000Y-51820000D02*
X152240000Y-53770000D01*
X147120000Y-51820000D02*
X147120000Y-53770000D01*
X147120000Y-51820000D02*
X147120000Y-49870000D01*
X152240000Y-51820000D02*
X152240000Y-48370000D01*
X78564580Y-68468000D02*
X78283420Y-68468000D01*
X78564580Y-67448000D02*
X78283420Y-67448000D01*
X83096000Y-87724000D02*
X83746000Y-87724000D01*
X83096000Y-88374000D02*
X83096000Y-87724000D01*
X83096000Y-94294000D02*
X83096000Y-94944000D01*
X90316000Y-88374000D02*
X90316000Y-87724000D01*
X90316000Y-94294000D02*
X90316000Y-94944000D01*
X83096000Y-94944000D02*
X83746000Y-94944000D01*
X90316000Y-94944000D02*
X89666000Y-94944000D01*
X112115000Y-100560000D02*
X114800000Y-100560000D01*
X112115000Y-98640000D02*
X112115000Y-100560000D01*
X114800000Y-98640000D02*
X112115000Y-98640000D01*
X78837258Y-41177500D02*
X78362742Y-41177500D01*
X78837258Y-42222500D02*
X78362742Y-42222500D01*
D12*
X69050000Y-42450000D02*
G75*
G03*
X69050000Y-42450000I-3350000J0D01*
G01*
D11*
X117480000Y-52460320D02*
X117480000Y-52741480D01*
X116460000Y-52460320D02*
X116460000Y-52741480D01*
X150900000Y-47600000D02*
X147000000Y-47600000D01*
X150900000Y-47600000D02*
X150900000Y-45600000D01*
X150900000Y-45600000D02*
X147000000Y-45600000D01*
X64221000Y-60438748D02*
X64221000Y-60961252D01*
X62751000Y-60438748D02*
X62751000Y-60961252D01*
X78837258Y-42867500D02*
X78362742Y-42867500D01*
X78837258Y-43912500D02*
X78362742Y-43912500D01*
X68036742Y-107216500D02*
X68511258Y-107216500D01*
X68036742Y-106171500D02*
X68511258Y-106171500D01*
X146070000Y-45924500D02*
X146070000Y-40034500D01*
X140930000Y-46379500D02*
X140930000Y-40034500D01*
X70770000Y-70010000D02*
X70170000Y-70010000D01*
X70170000Y-66890000D02*
X70170000Y-74730000D01*
X74660000Y-73100000D02*
X74660000Y-68520000D01*
X70170000Y-74730000D02*
X76190000Y-74730000D01*
X71200000Y-75020000D02*
X75200000Y-75020000D01*
X76190000Y-73100000D02*
X75190000Y-73100000D01*
X70770000Y-67470000D02*
X70170000Y-67470000D01*
X70170000Y-71610000D02*
X70770000Y-71610000D01*
X70770000Y-69070000D02*
X70770000Y-67470000D01*
X70170000Y-74150000D02*
X70770000Y-74150000D01*
X76190000Y-73350000D02*
X75190000Y-73350000D01*
X75190000Y-73350000D02*
X75190000Y-68270000D01*
X76190000Y-66890000D02*
X70170000Y-66890000D01*
X70770000Y-72550000D02*
X70170000Y-72550000D01*
X76190000Y-68520000D02*
X75190000Y-68520000D01*
X75190000Y-73350000D02*
X74660000Y-73100000D01*
X75190000Y-68270000D02*
X76190000Y-68270000D01*
X70770000Y-71610000D02*
X70770000Y-70010000D01*
X70170000Y-69070000D02*
X70770000Y-69070000D01*
X76190000Y-74730000D02*
X76190000Y-66890000D01*
X70770000Y-74150000D02*
X70770000Y-72550000D01*
X74660000Y-68520000D02*
X75190000Y-68270000D01*
X106746500Y-67577742D02*
X106746500Y-68052258D01*
X107791500Y-67577742D02*
X107791500Y-68052258D01*
X106656500Y-48997742D02*
X106656500Y-49472258D01*
X107701500Y-48997742D02*
X107701500Y-49472258D01*
X157725000Y-85469000D02*
X159725000Y-85469000D01*
X157725000Y-85469000D02*
X157725000Y-81569000D01*
X159725000Y-85469000D02*
X159725000Y-81569000D01*
X78368500Y-100451258D02*
X78368500Y-99976742D01*
X77323500Y-100451258D02*
X77323500Y-99976742D01*
X95995000Y-46750000D02*
X95995000Y-50050000D01*
X95995000Y-50050000D02*
X101395000Y-50050000D01*
X95995000Y-46750000D02*
X101395000Y-46750000D01*
X112819648Y-64865000D02*
X113342152Y-64865000D01*
X112819648Y-66335000D02*
X113342152Y-66335000D01*
X108730000Y-98640000D02*
X108730000Y-100560000D01*
X108730000Y-100560000D02*
X111415000Y-100560000D01*
X111415000Y-98640000D02*
X108730000Y-98640000D01*
X111859100Y-81310000D02*
X109909100Y-81310000D01*
X111859100Y-76190000D02*
X109909100Y-76190000D01*
X111859100Y-81310000D02*
X115309100Y-81310000D01*
X111859100Y-76190000D02*
X113809100Y-76190000D01*
X84051500Y-100679742D02*
X84051500Y-101154258D01*
X85096500Y-100679742D02*
X85096500Y-101154258D01*
X119850000Y-56380000D02*
X119850000Y-53630000D01*
X128370000Y-55315563D02*
X127305563Y-56380000D01*
X127305563Y-47860000D02*
X119850000Y-47860000D01*
X128370000Y-48924437D02*
X128370000Y-50610000D01*
X127305563Y-56380000D02*
X119850000Y-56380000D01*
X128370000Y-48924437D02*
X127305563Y-47860000D01*
X119850000Y-47860000D02*
X119850000Y-50610000D01*
X128370000Y-55315563D02*
X128370000Y-53630000D01*
X129610000Y-54630000D02*
X128610000Y-54630000D01*
X129110000Y-55130000D02*
X129110000Y-54130000D01*
G36*
X132129381Y-49131206D02*
G01*
X132288663Y-49170067D01*
X132434764Y-49229997D01*
X132562344Y-49309466D01*
X132666060Y-49406943D01*
X132740571Y-49520899D01*
X132766965Y-49589358D01*
X132791546Y-49697086D01*
X132793433Y-49791145D01*
X132772700Y-49890766D01*
X132768193Y-49905621D01*
X132714758Y-50011826D01*
X132627286Y-50105397D01*
X132510428Y-50183974D01*
X132368835Y-50245194D01*
X132207161Y-50286696D01*
X132030056Y-50306117D01*
X131977132Y-50307280D01*
X131874028Y-50300735D01*
X131805685Y-50279268D01*
X131769057Y-50241095D01*
X131761096Y-50184437D01*
X131761388Y-50181162D01*
X131779114Y-50127698D01*
X131822740Y-50092407D01*
X131896508Y-50073196D01*
X131990586Y-50067922D01*
X132121575Y-50057387D01*
X132243222Y-50028559D01*
X132349587Y-49984648D01*
X132434730Y-49928862D01*
X132492712Y-49864409D01*
X132517595Y-49794497D01*
X132518108Y-49782963D01*
X132500355Y-49701154D01*
X132446365Y-49632947D01*
X132355043Y-49577017D01*
X132343591Y-49571952D01*
X132198268Y-49529373D01*
X132037513Y-49516400D01*
X131872001Y-49532315D01*
X131712410Y-49576403D01*
X131615072Y-49620823D01*
X131563152Y-49653887D01*
X131489769Y-49707058D01*
X131403403Y-49773892D01*
X131312534Y-49847948D01*
X131280322Y-49875161D01*
X131164496Y-49969865D01*
X131056777Y-50049995D01*
X130964624Y-50110199D01*
X130916847Y-50135997D01*
X130857415Y-50162902D01*
X130807433Y-50180553D01*
X130755664Y-50190850D01*
X130690871Y-50195694D01*
X130601818Y-50196985D01*
X130556563Y-50196931D01*
X130402833Y-50190788D01*
X130278178Y-50171298D01*
X130172968Y-50135315D01*
X130077568Y-50079690D01*
X129996094Y-50013804D01*
X129905540Y-49921351D01*
X129847298Y-49831487D01*
X129816071Y-49733099D01*
X129806567Y-49616167D01*
X129808675Y-49533896D01*
X129818283Y-49476001D01*
X129839060Y-49427040D01*
X129859311Y-49394170D01*
X129920099Y-49324962D01*
X130002200Y-49272587D01*
X130110997Y-49234705D01*
X130251875Y-49208977D01*
X130297666Y-49203647D01*
X130418149Y-49194615D01*
X130504933Y-49197705D01*
X130562914Y-49214430D01*
X130596992Y-49246300D01*
X130612062Y-49294825D01*
X130612732Y-49300845D01*
X130602193Y-49362741D01*
X130558123Y-49404873D01*
X130482653Y-49425651D01*
X130443008Y-49427627D01*
X130347777Y-49433951D01*
X130254083Y-49450902D01*
X130174067Y-49475449D01*
X130119869Y-49504561D01*
X130114105Y-49509737D01*
X130078348Y-49568147D01*
X130080017Y-49630648D01*
X130117346Y-49693199D01*
X130188566Y-49751761D01*
X130230313Y-49775288D01*
X130296939Y-49795520D01*
X130387822Y-49805841D01*
X130488335Y-49805840D01*
X130583849Y-49795104D01*
X130622543Y-49786320D01*
X130687898Y-49758479D01*
X130778567Y-49705117D01*
X130891127Y-49628555D01*
X131022153Y-49531117D01*
X131160202Y-49421664D01*
X131247720Y-49355030D01*
X131342901Y-49289943D01*
X131430724Y-49236409D01*
X131467281Y-49217054D01*
X131625868Y-49156338D01*
X131792642Y-49122812D01*
X131962260Y-49114945D01*
X132129381Y-49131206D01*
G37*
G36*
X132023070Y-57127446D02*
G01*
X132196350Y-57128173D01*
X132340336Y-57129834D01*
X132457710Y-57132755D01*
X132551158Y-57137262D01*
X132623362Y-57143679D01*
X132677007Y-57152331D01*
X132714777Y-57163544D01*
X132739354Y-57177643D01*
X132753424Y-57194952D01*
X132759670Y-57215798D01*
X132760775Y-57240504D01*
X132759423Y-57269396D01*
X132758299Y-57302800D01*
X132758297Y-57304202D01*
X132752681Y-57379715D01*
X132733464Y-57429244D01*
X132718266Y-57447627D01*
X132709615Y-57455406D01*
X132698456Y-57462104D01*
X132681926Y-57467804D01*
X132657160Y-57472585D01*
X132621295Y-57476529D01*
X132571467Y-57479715D01*
X132504811Y-57482226D01*
X132418465Y-57484140D01*
X132309564Y-57485539D01*
X132175244Y-57486504D01*
X132012643Y-57487114D01*
X131818895Y-57487451D01*
X131591137Y-57487595D01*
X131326505Y-57487627D01*
X131297147Y-57487627D01*
X131028569Y-57487602D01*
X130797158Y-57487473D01*
X130600052Y-57487160D01*
X130434385Y-57486581D01*
X130297295Y-57485657D01*
X130185917Y-57484306D01*
X130097388Y-57482448D01*
X130028844Y-57480003D01*
X129977420Y-57476889D01*
X129940254Y-57473027D01*
X129914481Y-57468335D01*
X129897237Y-57462734D01*
X129885659Y-57456141D01*
X129876883Y-57448478D01*
X129876028Y-57447627D01*
X129849616Y-57407761D01*
X129837669Y-57349203D01*
X129835996Y-57300727D01*
X129835007Y-57267886D01*
X129833827Y-57239459D01*
X129835135Y-57215130D01*
X129841611Y-57194582D01*
X129855936Y-57177498D01*
X129880788Y-57163561D01*
X129918847Y-57152455D01*
X129972794Y-57143864D01*
X130045309Y-57137469D01*
X130139070Y-57132955D01*
X130256757Y-57130005D01*
X130401052Y-57128302D01*
X130574632Y-57127529D01*
X130780179Y-57127371D01*
X131020371Y-57127509D01*
X131297890Y-57127627D01*
X131300624Y-57127627D01*
X131577891Y-57127499D01*
X131817812Y-57127330D01*
X132023070Y-57127446D01*
G37*
G36*
X132670054Y-55169970D02*
G01*
X132700180Y-55180019D01*
X132722569Y-55202308D01*
X132738351Y-55241370D01*
X132748656Y-55301739D01*
X132754613Y-55387947D01*
X132757351Y-55504528D01*
X132758000Y-55656014D01*
X132757991Y-55677078D01*
X132757226Y-55803599D01*
X132755265Y-55916991D01*
X132752320Y-56011001D01*
X132748603Y-56079376D01*
X132744326Y-56115862D01*
X132742979Y-56119633D01*
X132732966Y-56132702D01*
X132719759Y-56143981D01*
X132700528Y-56153602D01*
X132672439Y-56161698D01*
X132632664Y-56168398D01*
X132578369Y-56173835D01*
X132506723Y-56178141D01*
X132414896Y-56181446D01*
X132300056Y-56183881D01*
X132159371Y-56185580D01*
X131990010Y-56186672D01*
X131789142Y-56187290D01*
X131553936Y-56187565D01*
X131281560Y-56187627D01*
X131278447Y-56187627D01*
X131011818Y-56187602D01*
X130782337Y-56187470D01*
X130587118Y-56187149D01*
X130423277Y-56186558D01*
X130287930Y-56185614D01*
X130178191Y-56184234D01*
X130091176Y-56182337D01*
X130024002Y-56179840D01*
X129973782Y-56176660D01*
X129937633Y-56172716D01*
X129912670Y-56167926D01*
X129896008Y-56162206D01*
X129884764Y-56155476D01*
X129876052Y-56147651D01*
X129876028Y-56147627D01*
X129862354Y-56131552D01*
X129852197Y-56110708D01*
X129845037Y-56079399D01*
X129840356Y-56031928D01*
X129837635Y-55962596D01*
X129836357Y-55865705D01*
X129836002Y-55735559D01*
X129835996Y-55707627D01*
X129836238Y-55570763D01*
X129837308Y-55468199D01*
X129839725Y-55394239D01*
X129844008Y-55343184D01*
X129850675Y-55309338D01*
X129860243Y-55287001D01*
X129873233Y-55270478D01*
X129876028Y-55267627D01*
X129931326Y-55232461D01*
X129990414Y-55236272D01*
X130031700Y-55258762D01*
X130050288Y-55274193D01*
X130062828Y-55294633D01*
X130070505Y-55327507D01*
X130074499Y-55380238D01*
X130075993Y-55460248D01*
X130076185Y-55538058D01*
X130076704Y-55642415D01*
X130078950Y-55713866D01*
X130083956Y-55759500D01*
X130092756Y-55786405D01*
X130106381Y-55801670D01*
X130115414Y-55807198D01*
X130148864Y-55813685D01*
X130221496Y-55818602D01*
X130332492Y-55821933D01*
X130481034Y-55823657D01*
X130666302Y-55823756D01*
X130810961Y-55822902D01*
X131467281Y-55817627D01*
X131472540Y-55607627D01*
X131475804Y-55511470D01*
X131480925Y-55446949D01*
X131489516Y-55405700D01*
X131503189Y-55379359D01*
X131519792Y-55362627D01*
X131579995Y-55330928D01*
X131639707Y-55338774D01*
X131668616Y-55355948D01*
X131686445Y-55374254D01*
X131698851Y-55403664D01*
X131707386Y-55451961D01*
X131713604Y-55526925D01*
X131717478Y-55600948D01*
X131727485Y-55817627D01*
X132083215Y-55823091D01*
X132225801Y-55823992D01*
X132340491Y-55822023D01*
X132423628Y-55817328D01*
X132471558Y-55810052D01*
X132478526Y-55807387D01*
X132494147Y-55796225D01*
X132505029Y-55777909D01*
X132512019Y-55745881D01*
X132515964Y-55693583D01*
X132517711Y-55614455D01*
X132518108Y-55501940D01*
X132518108Y-55500924D01*
X132518889Y-55378297D01*
X132522500Y-55290043D01*
X132530846Y-55230544D01*
X132545830Y-55194183D01*
X132569356Y-55175345D01*
X132603326Y-55168411D01*
X132631063Y-55167627D01*
X132670054Y-55169970D01*
G37*
G36*
X131003917Y-52361951D02*
G01*
X130772717Y-52360918D01*
X130575859Y-52359834D01*
X130410498Y-52358610D01*
X130273790Y-52357152D01*
X130162889Y-52355369D01*
X130074953Y-52353171D01*
X130007134Y-52350464D01*
X129956590Y-52347158D01*
X129920476Y-52343161D01*
X129895946Y-52338381D01*
X129880156Y-52332726D01*
X129870262Y-52326106D01*
X129863418Y-52318428D01*
X129862814Y-52317627D01*
X129850722Y-52293883D01*
X129842813Y-52256573D01*
X129838641Y-52199238D01*
X129837758Y-52115414D01*
X129839718Y-51998640D01*
X129839986Y-51987627D01*
X129840283Y-51977627D01*
X130086193Y-51977627D01*
X131292143Y-51982784D01*
X132498092Y-51987940D01*
X132498092Y-51945806D01*
X132489620Y-51899634D01*
X132468903Y-51842416D01*
X132465693Y-51835451D01*
X132402827Y-51747278D01*
X132304210Y-51667962D01*
X132173331Y-51598448D01*
X132013680Y-51539681D01*
X131828746Y-51492608D01*
X131622019Y-51458172D01*
X131396987Y-51437319D01*
X131157142Y-51430996D01*
X130989006Y-51435400D01*
X130762322Y-51451778D01*
X130572498Y-51478481D01*
X130417458Y-51516537D01*
X130295128Y-51566972D01*
X130203433Y-51630813D01*
X130140297Y-51709087D01*
X130103646Y-51802819D01*
X130092586Y-51878950D01*
X130086193Y-51977627D01*
X129840283Y-51977627D01*
X129843461Y-51870610D01*
X129848082Y-51784680D01*
X129855182Y-51720929D01*
X129866097Y-51670444D01*
X129882160Y-51624316D01*
X129900695Y-51582229D01*
X129987547Y-51442491D01*
X130109523Y-51321863D01*
X130266554Y-51220395D01*
X130458570Y-51138137D01*
X130570656Y-51103403D01*
X130627681Y-51088842D01*
X130683571Y-51077890D01*
X130745358Y-51070022D01*
X130820073Y-51064714D01*
X130914746Y-51061442D01*
X131036409Y-51059684D01*
X131167044Y-51058986D01*
X131323522Y-51059096D01*
X131447086Y-51060792D01*
X131544840Y-51064498D01*
X131623885Y-51070642D01*
X131691322Y-51079647D01*
X131754254Y-51091941D01*
X131767517Y-51094969D01*
X132007445Y-51164835D01*
X132216968Y-51255034D01*
X132394692Y-51364635D01*
X132539219Y-51492709D01*
X132649155Y-51638323D01*
X132686169Y-51707627D01*
X132714238Y-51771054D01*
X132732824Y-51827238D01*
X132744308Y-51888345D01*
X132751069Y-51966540D01*
X132755015Y-52059555D01*
X132762422Y-52281482D01*
X132707113Y-52324954D01*
X132651803Y-52368426D01*
X132498092Y-52367824D01*
X131272304Y-52363027D01*
X131003917Y-52361951D01*
G37*
G36*
X130032661Y-58339153D02*
G01*
X130053147Y-58353988D01*
X130062218Y-58384396D01*
X130070124Y-58448783D01*
X130076338Y-58541133D01*
X130080337Y-58655431D01*
X130080617Y-58668988D01*
X130086193Y-58957627D01*
X130781741Y-58962887D01*
X131477288Y-58968146D01*
X131477288Y-58738348D01*
X131477715Y-58639159D01*
X131479947Y-58572177D01*
X131485416Y-58529611D01*
X131495549Y-58503668D01*
X131511777Y-58486558D01*
X131525208Y-58477176D01*
X131584516Y-58457133D01*
X131645102Y-58465053D01*
X131691240Y-58498077D01*
X131697990Y-58508613D01*
X131706129Y-58543145D01*
X131712600Y-58607398D01*
X131716592Y-58691104D01*
X131717478Y-58755302D01*
X131717478Y-58965607D01*
X132195796Y-58971617D01*
X132360286Y-58973921D01*
X132489106Y-58977184D01*
X132586617Y-58982860D01*
X132657177Y-58992403D01*
X132705145Y-59007268D01*
X132734882Y-59028910D01*
X132750746Y-59058782D01*
X132757096Y-59098338D01*
X132758293Y-59149034D01*
X132758297Y-59159276D01*
X132755186Y-59225809D01*
X132742297Y-59267455D01*
X132714291Y-59299077D01*
X132705558Y-59306176D01*
X132694505Y-59314321D01*
X132681650Y-59321323D01*
X132664067Y-59327267D01*
X132638829Y-59332241D01*
X132603011Y-59336331D01*
X132553687Y-59339623D01*
X132487932Y-59342205D01*
X132402818Y-59344161D01*
X132295421Y-59345580D01*
X132162814Y-59346547D01*
X132002072Y-59347148D01*
X131810268Y-59347472D01*
X131584477Y-59347602D01*
X131321773Y-59347627D01*
X131303139Y-59347627D01*
X131031651Y-59347565D01*
X130797349Y-59347289D01*
X130597388Y-59346665D01*
X130428925Y-59345561D01*
X130289114Y-59343843D01*
X130175109Y-59341379D01*
X130084068Y-59338035D01*
X130013143Y-59333677D01*
X129959492Y-59328173D01*
X129920268Y-59321389D01*
X129892627Y-59313191D01*
X129873724Y-59303448D01*
X129860715Y-59292025D01*
X129851314Y-59279633D01*
X129846968Y-59253897D01*
X129843102Y-59194322D01*
X129839921Y-59107067D01*
X129837629Y-58998292D01*
X129836429Y-58874156D01*
X129836303Y-58825727D01*
X129836457Y-58682401D01*
X129837429Y-58573745D01*
X129839634Y-58494432D01*
X129843487Y-58439134D01*
X129849406Y-58402525D01*
X129857804Y-58379276D01*
X129869100Y-58364059D01*
X129872600Y-58360727D01*
X129920793Y-58336009D01*
X129980118Y-58328595D01*
X130032661Y-58339153D01*
G37*
G36*
X132676518Y-53169245D02*
G01*
X132704280Y-53177134D01*
X132724934Y-53195848D01*
X132739526Y-53229941D01*
X132749107Y-53283969D01*
X132754722Y-53362485D01*
X132757422Y-53470044D01*
X132758253Y-53611199D01*
X132758297Y-53679056D01*
X132758103Y-53824823D01*
X132757231Y-53935916D01*
X132755244Y-54017658D01*
X132751705Y-54075373D01*
X132746180Y-54114387D01*
X132738231Y-54140022D01*
X132727422Y-54157605D01*
X132718266Y-54167627D01*
X132709615Y-54175406D01*
X132698456Y-54182104D01*
X132681926Y-54187804D01*
X132657160Y-54192585D01*
X132621295Y-54196529D01*
X132571467Y-54199715D01*
X132504811Y-54202226D01*
X132418465Y-54204140D01*
X132309564Y-54205539D01*
X132175244Y-54206504D01*
X132012643Y-54207114D01*
X131818895Y-54207451D01*
X131591137Y-54207595D01*
X131326505Y-54207627D01*
X131297147Y-54207627D01*
X131028569Y-54207602D01*
X130797158Y-54207473D01*
X130600052Y-54207160D01*
X130434385Y-54206581D01*
X130297295Y-54205657D01*
X130185917Y-54204306D01*
X130097388Y-54202448D01*
X130028844Y-54200003D01*
X129977420Y-54196889D01*
X129940254Y-54193027D01*
X129914481Y-54188335D01*
X129897237Y-54182734D01*
X129885659Y-54176141D01*
X129876883Y-54168478D01*
X129876028Y-54167627D01*
X129849009Y-54117703D01*
X129836276Y-54046864D01*
X129838544Y-53971830D01*
X129856530Y-53909321D01*
X129864400Y-53896450D01*
X129871239Y-53888695D01*
X129881517Y-53882011D01*
X129898155Y-53876293D01*
X129924071Y-53871434D01*
X129962186Y-53867326D01*
X130015418Y-53863864D01*
X130086689Y-53860941D01*
X130178916Y-53858449D01*
X130295021Y-53856283D01*
X130437921Y-53854335D01*
X130610538Y-53852499D01*
X130815790Y-53850668D01*
X131056598Y-53848736D01*
X131200452Y-53847627D01*
X132508100Y-53837627D01*
X132513416Y-53527627D01*
X132516365Y-53399470D01*
X132521435Y-53305903D01*
X132530537Y-53241518D01*
X132545581Y-53200908D01*
X132568480Y-53178664D01*
X132601142Y-53169377D01*
X132640598Y-53167627D01*
X132676518Y-53169245D01*
G37*
X84875000Y-40633748D02*
X84875000Y-41156252D01*
X86345000Y-40633748D02*
X86345000Y-41156252D01*
X107701500Y-72177742D02*
X107701500Y-72652258D01*
X106656500Y-72177742D02*
X106656500Y-72652258D01*
X93961252Y-51660000D02*
X92538748Y-51660000D01*
X93961252Y-48940000D02*
X92538748Y-48940000D01*
X84265500Y-63527258D02*
X84265500Y-63052742D01*
X85310500Y-63527258D02*
X85310500Y-63052742D01*
X104560000Y-57695000D02*
X104560000Y-60245000D01*
X106260000Y-57695000D02*
X104560000Y-57695000D01*
X106260000Y-57695000D02*
X106260000Y-60245000D01*
X118150000Y-92450000D02*
X118150000Y-88550000D01*
X116150000Y-92450000D02*
X116150000Y-88550000D01*
X116150000Y-92450000D02*
X118150000Y-92450000D01*
X155177500Y-105062742D02*
X155177500Y-105537258D01*
X156222500Y-105062742D02*
X156222500Y-105537258D01*
X141380000Y-55070000D02*
X141380000Y-48725000D01*
X146520000Y-54615000D02*
X146520000Y-48725000D01*
X93305000Y-39220000D02*
X92105000Y-39220000D01*
X86905000Y-39220000D02*
X88105000Y-39220000D01*
X86905000Y-39220000D02*
X86905000Y-40620000D01*
X93305000Y-46020000D02*
X92105000Y-46020000D01*
X86905000Y-46020000D02*
X88105000Y-46020000D01*
X93305000Y-39220000D02*
X93305000Y-40620000D01*
X86905000Y-46020000D02*
X86905000Y-44620000D01*
X93305000Y-46020000D02*
X93305000Y-44620000D01*
X74450000Y-86280000D02*
X78450000Y-86280000D01*
X74020000Y-80330000D02*
X74020000Y-78730000D01*
X78440000Y-84610000D02*
X77910000Y-84360000D01*
X73420000Y-80330000D02*
X74020000Y-80330000D01*
X74020000Y-82870000D02*
X74020000Y-81270000D01*
X74020000Y-76190000D02*
X73420000Y-76190000D01*
X78440000Y-76990000D02*
X79440000Y-76990000D01*
X74020000Y-78730000D02*
X73420000Y-78730000D01*
X73420000Y-75610000D02*
X73420000Y-85990000D01*
X77910000Y-77240000D02*
X78440000Y-76990000D01*
X79440000Y-84360000D02*
X78440000Y-84360000D01*
X73420000Y-85410000D02*
X74020000Y-85410000D01*
X73420000Y-77790000D02*
X74020000Y-77790000D01*
X74020000Y-83810000D02*
X73420000Y-83810000D01*
X79440000Y-85990000D02*
X79440000Y-75610000D01*
X74020000Y-81270000D02*
X73420000Y-81270000D01*
X73420000Y-82870000D02*
X74020000Y-82870000D01*
X74020000Y-85410000D02*
X74020000Y-83810000D01*
X79440000Y-84610000D02*
X78440000Y-84610000D01*
X78440000Y-84610000D02*
X78440000Y-76990000D01*
X79440000Y-77240000D02*
X78440000Y-77240000D01*
X73420000Y-85990000D02*
X79440000Y-85990000D01*
X74020000Y-77790000D02*
X74020000Y-76190000D01*
X77910000Y-84360000D02*
X77910000Y-77240000D01*
X79440000Y-75610000D02*
X73420000Y-75610000D01*
X98905000Y-103947000D02*
X98905000Y-105547000D01*
X98905000Y-113167000D02*
X99505000Y-113167000D01*
X94485000Y-112367000D02*
X93485000Y-112367000D01*
X99505000Y-103367000D02*
X93485000Y-103367000D01*
X99505000Y-103947000D02*
X98905000Y-103947000D01*
X95015000Y-112117000D02*
X94485000Y-112367000D01*
X99505000Y-109027000D02*
X98905000Y-109027000D01*
X98905000Y-105547000D02*
X99505000Y-105547000D01*
X98905000Y-110627000D02*
X99505000Y-110627000D01*
X99505000Y-106487000D02*
X98905000Y-106487000D01*
X98475000Y-103077000D02*
X94475000Y-103077000D01*
X94485000Y-104747000D02*
X95015000Y-104997000D01*
X93485000Y-104997000D02*
X94485000Y-104997000D01*
X98905000Y-109027000D02*
X98905000Y-110627000D01*
X94485000Y-104747000D02*
X94485000Y-112367000D01*
X99505000Y-113747000D02*
X99505000Y-103367000D01*
X99505000Y-111567000D02*
X98905000Y-111567000D01*
X98905000Y-111567000D02*
X98905000Y-113167000D01*
X98905000Y-106487000D02*
X98905000Y-108087000D01*
X95015000Y-104997000D02*
X95015000Y-112117000D01*
X98905000Y-108087000D02*
X99505000Y-108087000D01*
X93485000Y-113747000D02*
X99505000Y-113747000D01*
X93485000Y-104747000D02*
X94485000Y-104747000D01*
X93485000Y-112117000D02*
X94485000Y-112117000D01*
X93485000Y-103367000D02*
X93485000Y-113747000D01*
X102182580Y-112787000D02*
X101901420Y-112787000D01*
X102182580Y-113807000D02*
X101901420Y-113807000D01*
X85152500Y-47832258D02*
X85152500Y-47357742D01*
X84107500Y-47832258D02*
X84107500Y-47357742D01*
X107202000Y-95332000D02*
X107202000Y-94732000D01*
X97402000Y-89312000D02*
X97402000Y-95332000D01*
X102122000Y-94732000D02*
X100522000Y-94732000D01*
X105602000Y-94732000D02*
X105602000Y-95332000D01*
X107202000Y-94732000D02*
X105602000Y-94732000D01*
X99032000Y-89312000D02*
X99032000Y-90312000D01*
X110682000Y-94732000D02*
X110682000Y-95332000D01*
X111232000Y-90842000D02*
X99032000Y-90842000D01*
X102122000Y-95332000D02*
X102122000Y-94732000D01*
X98782000Y-90312000D02*
X98782000Y-89312000D01*
X111482000Y-90312000D02*
X98782000Y-90312000D01*
X99032000Y-90842000D02*
X98782000Y-90312000D01*
X108142000Y-94732000D02*
X108142000Y-95332000D01*
X113152000Y-94302000D02*
X113152000Y-90302000D01*
X109742000Y-95332000D02*
X109742000Y-94732000D01*
X111482000Y-89312000D02*
X111482000Y-90312000D01*
X97982000Y-94732000D02*
X97982000Y-95332000D01*
X103062000Y-94732000D02*
X103062000Y-95332000D01*
X97402000Y-95332000D02*
X112862000Y-95332000D01*
X100522000Y-94732000D02*
X100522000Y-95332000D01*
X99582000Y-94732000D02*
X97982000Y-94732000D01*
X99582000Y-95332000D02*
X99582000Y-94732000D01*
X109742000Y-94732000D02*
X108142000Y-94732000D01*
X112862000Y-89312000D02*
X97402000Y-89312000D01*
X112862000Y-95332000D02*
X112862000Y-89312000D01*
X112282000Y-94732000D02*
X110682000Y-94732000D01*
X104662000Y-95332000D02*
X104662000Y-94732000D01*
X104662000Y-94732000D02*
X103062000Y-94732000D01*
X112282000Y-95332000D02*
X112282000Y-94732000D01*
X111232000Y-89312000D02*
X111232000Y-90312000D01*
X111482000Y-90312000D02*
X111232000Y-90842000D01*
X102000000Y-106050000D02*
X100600000Y-106050000D01*
X100600000Y-104650000D02*
X102000000Y-104650000D01*
X102000000Y-104650000D02*
X102000000Y-106050000D01*
X100600000Y-106050000D02*
X100600000Y-104650000D01*
X114250000Y-96760000D02*
X115650000Y-96760000D01*
X115650000Y-94440000D02*
X113750000Y-94440000D01*
X154009420Y-82640000D02*
X154290580Y-82640000D01*
X154009420Y-83660000D02*
X154290580Y-83660000D01*
X106260000Y-44370000D02*
X106260000Y-46920000D01*
X106260000Y-44370000D02*
X104560000Y-44370000D01*
X104560000Y-44370000D02*
X104560000Y-46920000D01*
X153422742Y-75422500D02*
X153897258Y-75422500D01*
X153422742Y-74377500D02*
X153897258Y-74377500D01*
X79616580Y-92684000D02*
X79335420Y-92684000D01*
X79616580Y-91664000D02*
X79335420Y-91664000D01*
X153472742Y-65717500D02*
X153947258Y-65717500D01*
X153472742Y-66762500D02*
X153947258Y-66762500D01*
X110837258Y-101872500D02*
X110362742Y-101872500D01*
X110837258Y-100827500D02*
X110362742Y-100827500D01*
X103870000Y-55800000D02*
X99970000Y-55800000D01*
X103870000Y-55800000D02*
X103870000Y-53800000D01*
X103870000Y-53800000D02*
X99970000Y-53800000D01*
X140010000Y-52890000D02*
X133665000Y-52890000D01*
X139555000Y-47750000D02*
X133665000Y-47750000D01*
X90056500Y-101084258D02*
X90056500Y-100609742D01*
X89011500Y-101084258D02*
X89011500Y-100609742D01*
X139805000Y-56230000D02*
X133915000Y-56230000D01*
X140260000Y-61370000D02*
X133915000Y-61370000D01*
X111809100Y-45560000D02*
X109859100Y-45560000D01*
X111809100Y-50680000D02*
X109859100Y-50680000D01*
X111809100Y-45560000D02*
X113759100Y-45560000D01*
X111809100Y-50680000D02*
X115259100Y-50680000D01*
X153410000Y-98440000D02*
X136725000Y-98440000D01*
X154150000Y-106500000D02*
X154150000Y-107500000D01*
X153410000Y-114410000D02*
X136770000Y-114410000D01*
X136725000Y-98440000D02*
X136725000Y-104000000D01*
X153455000Y-98440000D02*
X153455000Y-104000000D01*
X153455000Y-114410000D02*
X153455000Y-106800000D01*
X154150000Y-107500000D02*
X153650000Y-107000000D01*
X153650000Y-107000000D02*
X154150000Y-106500000D01*
X136725000Y-114410000D02*
X136725000Y-106800000D01*
X107691500Y-45797742D02*
X107691500Y-46272258D01*
X106646500Y-45797742D02*
X106646500Y-46272258D01*
X77676000Y-93043420D02*
X77676000Y-93324580D01*
X76656000Y-93043420D02*
X76656000Y-93324580D01*
X133855000Y-114410000D02*
X133855000Y-106800000D01*
X117125000Y-98440000D02*
X117125000Y-104000000D01*
X117125000Y-114410000D02*
X117125000Y-106800000D01*
X133810000Y-114410000D02*
X117170000Y-114410000D01*
X134550000Y-106500000D02*
X134550000Y-107500000D01*
X134550000Y-107500000D02*
X134050000Y-107000000D01*
X133810000Y-98440000D02*
X117125000Y-98440000D01*
X134050000Y-107000000D02*
X134550000Y-106500000D01*
X133855000Y-98440000D02*
X133855000Y-104000000D01*
X113200000Y-43100000D02*
X113200000Y-40000000D01*
X114350000Y-43550000D02*
X113275000Y-43550000D01*
X116000000Y-43100000D02*
X116000000Y-40100000D01*
X106796500Y-52902742D02*
X106796500Y-53377258D01*
X107841500Y-52902742D02*
X107841500Y-53377258D01*
X67742748Y-47586000D02*
X68265252Y-47586000D01*
X67742748Y-46116000D02*
X68265252Y-46116000D01*
X146320000Y-62845000D02*
X146320000Y-56955000D01*
X141180000Y-63300000D02*
X141180000Y-56955000D01*
D13*
X141475000Y-97500000D02*
X141025000Y-97500000D01*
X141475000Y-94200000D02*
X141475000Y-94500000D01*
X141475000Y-97200000D02*
X141475000Y-97500000D01*
X139825000Y-94475000D02*
X139825000Y-94525000D01*
X141100000Y-94200000D02*
X141475000Y-94200000D01*
X139825000Y-94525000D02*
X139050000Y-94525000D01*
X140300000Y-97500000D02*
X139825000Y-97500000D01*
X140200000Y-94200000D02*
X139825000Y-94475000D01*
X141475000Y-97275000D02*
X141475000Y-97150000D01*
X140475000Y-94200000D02*
X140200000Y-94200000D01*
X139825000Y-97500000D02*
X139825000Y-97150000D01*
D11*
X82504580Y-66918000D02*
X82223420Y-66918000D01*
X82504580Y-65898000D02*
X82223420Y-65898000D01*
X110470352Y-52635000D02*
X109947848Y-52635000D01*
X110470352Y-51165000D02*
X109947848Y-51165000D01*
X93110000Y-55609420D02*
X93110000Y-55890580D01*
X92090000Y-55609420D02*
X92090000Y-55890580D01*
X112069100Y-58930000D02*
X114019100Y-58930000D01*
X112069100Y-64050000D02*
X110119100Y-64050000D01*
X112069100Y-58930000D02*
X110119100Y-58930000D01*
X112069100Y-64050000D02*
X115519100Y-64050000D01*
X153712742Y-55287500D02*
X154187258Y-55287500D01*
X153712742Y-56332500D02*
X154187258Y-56332500D01*
X67939420Y-60512000D02*
X68220580Y-60512000D01*
X67939420Y-59492000D02*
X68220580Y-59492000D01*
X153559420Y-63760000D02*
X153840580Y-63760000D01*
X153559420Y-62740000D02*
X153840580Y-62740000D01*
X157040580Y-65390000D02*
X156759420Y-65390000D01*
X157040580Y-66410000D02*
X156759420Y-66410000D01*
X105950000Y-95915000D02*
X105950000Y-96485000D01*
X102090000Y-101985000D02*
X98230000Y-101985000D01*
X102090000Y-95915000D02*
X105950000Y-95915000D01*
X102090000Y-101985000D02*
X105950000Y-101985000D01*
X98230000Y-95915000D02*
X98230000Y-96485000D01*
X102090000Y-95915000D02*
X98230000Y-95915000D01*
X98230000Y-96485000D02*
X95865000Y-96485000D01*
X105950000Y-101985000D02*
X105950000Y-101415000D01*
X98230000Y-101985000D02*
X98230000Y-101415000D01*
X67990000Y-87760000D02*
X68990000Y-87760000D01*
X63570000Y-86960000D02*
X62970000Y-86960000D01*
X63570000Y-92040000D02*
X62970000Y-92040000D01*
X67990000Y-92840000D02*
X67460000Y-92590000D01*
X63570000Y-91100000D02*
X63570000Y-89500000D01*
X67990000Y-92840000D02*
X67990000Y-87760000D01*
X63570000Y-89500000D02*
X62970000Y-89500000D01*
X63570000Y-93640000D02*
X63570000Y-92040000D01*
X62970000Y-91100000D02*
X63570000Y-91100000D01*
X67460000Y-92590000D02*
X67460000Y-88010000D01*
X62970000Y-93640000D02*
X63570000Y-93640000D01*
X63570000Y-88560000D02*
X63570000Y-86960000D01*
X64000000Y-94510000D02*
X68000000Y-94510000D01*
X68990000Y-92590000D02*
X67990000Y-92590000D01*
X68990000Y-94220000D02*
X68990000Y-86380000D01*
X62970000Y-88560000D02*
X63570000Y-88560000D01*
X67460000Y-88010000D02*
X67990000Y-87760000D01*
X68990000Y-88010000D02*
X67990000Y-88010000D01*
X68990000Y-86380000D02*
X62970000Y-86380000D01*
X68990000Y-92840000D02*
X67990000Y-92840000D01*
X62970000Y-86380000D02*
X62970000Y-94220000D01*
X62970000Y-94220000D02*
X68990000Y-94220000D01*
X111869100Y-88780000D02*
X115319100Y-88780000D01*
X111869100Y-88780000D02*
X109919100Y-88780000D01*
X111869100Y-83660000D02*
X109919100Y-83660000D01*
X111869100Y-83660000D02*
X113819100Y-83660000D01*
X100124742Y-50477500D02*
X100599258Y-50477500D01*
X100124742Y-51522500D02*
X100599258Y-51522500D01*
X70770000Y-51750000D02*
X70770000Y-50150000D01*
X70170000Y-46670000D02*
X70770000Y-46670000D01*
X70170000Y-44130000D02*
X70770000Y-44130000D01*
X70170000Y-39410000D02*
X70170000Y-52330000D01*
X71200000Y-52620000D02*
X75200000Y-52620000D01*
X70170000Y-49210000D02*
X70770000Y-49210000D01*
X76190000Y-50950000D02*
X75190000Y-50950000D01*
X74660000Y-41040000D02*
X75190000Y-40790000D01*
X74660000Y-50700000D02*
X74660000Y-41040000D01*
X70770000Y-39990000D02*
X70170000Y-39990000D01*
X76190000Y-50700000D02*
X75190000Y-50700000D01*
X70770000Y-45070000D02*
X70170000Y-45070000D01*
X70770000Y-47610000D02*
X70170000Y-47610000D01*
X76190000Y-41040000D02*
X75190000Y-41040000D01*
X76190000Y-52330000D02*
X76190000Y-39410000D01*
X76190000Y-39410000D02*
X70170000Y-39410000D01*
X70770000Y-49210000D02*
X70770000Y-47610000D01*
X70170000Y-52330000D02*
X76190000Y-52330000D01*
X70170000Y-51750000D02*
X70770000Y-51750000D01*
X70770000Y-41590000D02*
X70770000Y-39990000D01*
X70170000Y-41590000D02*
X70770000Y-41590000D01*
X75190000Y-50950000D02*
X74660000Y-50700000D01*
X75190000Y-50950000D02*
X75190000Y-40790000D01*
X70770000Y-44130000D02*
X70770000Y-42530000D01*
X70770000Y-46670000D02*
X70770000Y-45070000D01*
X70770000Y-42530000D02*
X70170000Y-42530000D01*
X70770000Y-50150000D02*
X70170000Y-50150000D01*
X75190000Y-40790000D02*
X76190000Y-40790000D01*
X136988748Y-55260000D02*
X138411252Y-55260000D01*
X136988748Y-53440000D02*
X138411252Y-53440000D01*
X112059100Y-53310000D02*
X114009100Y-53310000D01*
X112059100Y-53310000D02*
X110109100Y-53310000D01*
X112059100Y-58430000D02*
X115509100Y-58430000D01*
X112059100Y-58430000D02*
X110109100Y-58430000D01*
X106698500Y-80392742D02*
X106698500Y-80867258D01*
X107743500Y-80392742D02*
X107743500Y-80867258D01*
X104560000Y-54370000D02*
X104560000Y-56920000D01*
X106260000Y-54370000D02*
X104560000Y-54370000D01*
X106260000Y-54370000D02*
X106260000Y-56920000D01*
X64765000Y-60438748D02*
X64765000Y-60961252D01*
X66235000Y-60438748D02*
X66235000Y-60961252D01*
X97121642Y-50477500D02*
X97596158Y-50477500D01*
X97121642Y-51522500D02*
X97596158Y-51522500D01*
X76106000Y-92804000D02*
X76106000Y-88804000D01*
X72806000Y-92804000D02*
X76106000Y-92804000D01*
X84220000Y-102780000D02*
X84220000Y-102630000D01*
X89020000Y-106630000D02*
X84220000Y-106630000D01*
X84220000Y-102630000D02*
X89020000Y-102630000D01*
X89020000Y-102630000D02*
X89020000Y-102780000D01*
X89020000Y-106480000D02*
X90720000Y-106480000D01*
X84220000Y-106630000D02*
X84220000Y-106480000D01*
X89020000Y-106480000D02*
X89020000Y-106630000D01*
X146520000Y-82345000D02*
X146520000Y-76455000D01*
X141380000Y-82800000D02*
X141380000Y-76455000D01*
X119850000Y-74840000D02*
X119850000Y-77590000D01*
X127305563Y-83360000D02*
X119850000Y-83360000D01*
X129110000Y-82110000D02*
X129110000Y-81110000D01*
X127305563Y-74840000D02*
X119850000Y-74840000D01*
X128370000Y-75904437D02*
X128370000Y-77590000D01*
X128370000Y-82295563D02*
X128370000Y-80610000D01*
X128370000Y-82295563D02*
X127305563Y-83360000D01*
X129610000Y-81610000D02*
X128610000Y-81610000D01*
X119850000Y-83360000D02*
X119850000Y-80610000D01*
X128370000Y-75904437D02*
X127305563Y-74840000D01*
X155679000Y-74765000D02*
X155679000Y-76765000D01*
X155679000Y-76765000D02*
X159579000Y-76765000D01*
X155679000Y-74765000D02*
X159579000Y-74765000D01*
X160140000Y-74425000D02*
X156240000Y-74425000D01*
X160140000Y-72425000D02*
X156240000Y-72425000D01*
X160140000Y-74425000D02*
X160140000Y-72425000D01*
G36*
X130008453Y-80151732D02*
G01*
X130042659Y-80172011D01*
X130063992Y-80213043D01*
X130075176Y-80280744D01*
X130078937Y-80381030D01*
X130079038Y-80407715D01*
X130079038Y-80606286D01*
X131380063Y-80606286D01*
X131640198Y-80606314D01*
X131863257Y-80606457D01*
X132052197Y-80606802D01*
X132209972Y-80607438D01*
X132339540Y-80608453D01*
X132443855Y-80609935D01*
X132525874Y-80611972D01*
X132588552Y-80614653D01*
X132634845Y-80618065D01*
X132667709Y-80622298D01*
X132690100Y-80627438D01*
X132704974Y-80633575D01*
X132715287Y-80640795D01*
X132721119Y-80646286D01*
X132754012Y-80704498D01*
X132763320Y-80779165D01*
X132749563Y-80854805D01*
X132713259Y-80915940D01*
X132712020Y-80917196D01*
X132662891Y-80966286D01*
X130079038Y-80966286D01*
X130079038Y-81165152D01*
X130078326Y-81257060D01*
X130075087Y-81317525D01*
X130067668Y-81355099D01*
X130054415Y-81378329D01*
X130034553Y-81395152D01*
X129970929Y-81423546D01*
X129913707Y-81413111D01*
X129878881Y-81386287D01*
X129867077Y-81372695D01*
X129857850Y-81355157D01*
X129850884Y-81328968D01*
X129845863Y-81289423D01*
X129842470Y-81231817D01*
X129840389Y-81151445D01*
X129839304Y-81043602D01*
X129838898Y-80903583D01*
X129838849Y-80790737D01*
X129839162Y-80613198D01*
X129840604Y-80471604D01*
X129843929Y-80361903D01*
X129849889Y-80280040D01*
X129859238Y-80221964D01*
X129872730Y-80183621D01*
X129891118Y-80160958D01*
X129915156Y-80149922D01*
X129945596Y-80146459D01*
X129958649Y-80146286D01*
X130008453Y-80151732D01*
G37*
G36*
X131568578Y-75866312D02*
G01*
X131799988Y-75866441D01*
X131997094Y-75866754D01*
X132162761Y-75867333D01*
X132299851Y-75868257D01*
X132411229Y-75869608D01*
X132499758Y-75871466D01*
X132568302Y-75873911D01*
X132619726Y-75877025D01*
X132656892Y-75880887D01*
X132682665Y-75885579D01*
X132699909Y-75891180D01*
X132711487Y-75897773D01*
X132720263Y-75905436D01*
X132721119Y-75906286D01*
X132754012Y-75964498D01*
X132763320Y-76039165D01*
X132749563Y-76114805D01*
X132713259Y-76175940D01*
X132712020Y-76177196D01*
X132662891Y-76226286D01*
X129937108Y-76226286D01*
X129887979Y-76177196D01*
X129851097Y-76116644D01*
X129836747Y-76041185D01*
X129845449Y-75966297D01*
X129877723Y-75907462D01*
X129878881Y-75906286D01*
X129887531Y-75898508D01*
X129898690Y-75891810D01*
X129915220Y-75886110D01*
X129939986Y-75881329D01*
X129975851Y-75877385D01*
X130025679Y-75874199D01*
X130092335Y-75871688D01*
X130178681Y-75869774D01*
X130287582Y-75868375D01*
X130421902Y-75867410D01*
X130584504Y-75866800D01*
X130778252Y-75866463D01*
X131006010Y-75866319D01*
X131270641Y-75866287D01*
X131300000Y-75866286D01*
X131568578Y-75866312D01*
G37*
G36*
X132116461Y-73820121D02*
G01*
X132289202Y-73859947D01*
X132443754Y-73923250D01*
X132575151Y-74007514D01*
X132678425Y-74110225D01*
X132744098Y-74218323D01*
X132783457Y-74347790D01*
X132791250Y-74479788D01*
X132771639Y-74586286D01*
X132715747Y-74696276D01*
X132625970Y-74791716D01*
X132506473Y-74870492D01*
X132361422Y-74930484D01*
X132194981Y-74969575D01*
X132011315Y-74985648D01*
X131985539Y-74985939D01*
X131878708Y-74978155D01*
X131806906Y-74953611D01*
X131768414Y-74911419D01*
X131760362Y-74869386D01*
X131772916Y-74825463D01*
X131813205Y-74793760D01*
X131885165Y-74772402D01*
X131990543Y-74759672D01*
X132156263Y-74738907D01*
X132289083Y-74702994D01*
X132393748Y-74650389D01*
X132442091Y-74612831D01*
X132492142Y-74561344D01*
X132515772Y-74516515D01*
X132520961Y-74472644D01*
X132512549Y-74399708D01*
X132482419Y-74344294D01*
X132423230Y-74295088D01*
X132394103Y-74277129D01*
X132282431Y-74231166D01*
X132147108Y-74206325D01*
X131998694Y-74202956D01*
X131847751Y-74221411D01*
X131724334Y-74254875D01*
X131609180Y-74309381D01*
X131474396Y-74398600D01*
X131320102Y-74522451D01*
X131279984Y-74557494D01*
X131162952Y-74657837D01*
X131065409Y-74733197D01*
X130980180Y-74788430D01*
X130900094Y-74828391D01*
X130853005Y-74846543D01*
X130681521Y-74889961D01*
X130514375Y-74897094D01*
X130386500Y-74879322D01*
X130235027Y-74837367D01*
X130110512Y-74778488D01*
X130001501Y-74697013D01*
X129982312Y-74679195D01*
X129895393Y-74583444D01*
X129841369Y-74489788D01*
X129815257Y-74387385D01*
X129810906Y-74306286D01*
X129824226Y-74182706D01*
X129863901Y-74083088D01*
X129931982Y-74005830D01*
X130030516Y-73949333D01*
X130161553Y-73911994D01*
X130327141Y-73892214D01*
X130341902Y-73891344D01*
X130435476Y-73887132D01*
X130498057Y-73887457D01*
X130538521Y-73893258D01*
X130565744Y-73905473D01*
X130579632Y-73916467D01*
X130613609Y-73968879D01*
X130613872Y-74025772D01*
X130584436Y-74070532D01*
X130544959Y-74088767D01*
X130477024Y-74104435D01*
X130404367Y-74113765D01*
X130271358Y-74132571D01*
X130172518Y-74162163D01*
X130109576Y-74201848D01*
X130085988Y-74241340D01*
X130081936Y-74312997D01*
X130111065Y-74373929D01*
X130176159Y-74428555D01*
X130219149Y-74452887D01*
X130286138Y-74484278D01*
X130342091Y-74499882D01*
X130405795Y-74503349D01*
X130464520Y-74500545D01*
X130563936Y-74486677D01*
X130661869Y-74456443D01*
X130764496Y-74406630D01*
X130877996Y-74334022D01*
X131008545Y-74235405D01*
X131069818Y-74185561D01*
X131225822Y-74062165D01*
X131363512Y-73966919D01*
X131489692Y-73896826D01*
X131611164Y-73848889D01*
X131734730Y-73820110D01*
X131867193Y-73807492D01*
X131930496Y-73806286D01*
X132116461Y-73820121D01*
G37*
G36*
X130002479Y-71930124D02*
G01*
X130034972Y-71944436D01*
X130055873Y-71976060D01*
X130068501Y-72031528D01*
X130076177Y-72117372D01*
X130079038Y-72170495D01*
X130089046Y-72376286D01*
X131396694Y-72386286D01*
X131657642Y-72388317D01*
X131881478Y-72390188D01*
X132071122Y-72392008D01*
X132229495Y-72393883D01*
X132359516Y-72395920D01*
X132464104Y-72398225D01*
X132546179Y-72400905D01*
X132608660Y-72404067D01*
X132654468Y-72407817D01*
X132686521Y-72412263D01*
X132707740Y-72417510D01*
X132721044Y-72423665D01*
X132729352Y-72430836D01*
X132732746Y-72435109D01*
X132758323Y-72499391D01*
X132760758Y-72577708D01*
X132741442Y-72652484D01*
X132712020Y-72697196D01*
X132662891Y-72746286D01*
X130079038Y-72746286D01*
X130079038Y-72945152D01*
X130078326Y-73037060D01*
X130075087Y-73097525D01*
X130067668Y-73135099D01*
X130054415Y-73158329D01*
X130034553Y-73175152D01*
X129970929Y-73203546D01*
X129913707Y-73193111D01*
X129878881Y-73166286D01*
X129867077Y-73152695D01*
X129857850Y-73135157D01*
X129850884Y-73108968D01*
X129845863Y-73069423D01*
X129842470Y-73011817D01*
X129840389Y-72931445D01*
X129839304Y-72823602D01*
X129838898Y-72683583D01*
X129838849Y-72570737D01*
X129839181Y-72393080D01*
X129840663Y-72251379D01*
X129844024Y-72141591D01*
X129849994Y-72059674D01*
X129859303Y-72001585D01*
X129872679Y-71963281D01*
X129890852Y-71940721D01*
X129914551Y-71929863D01*
X129944506Y-71926662D01*
X129955075Y-71926593D01*
X130002479Y-71930124D01*
G37*
G36*
X131031550Y-69226271D02*
G01*
X130800265Y-69226168D01*
X130603276Y-69225892D01*
X130437715Y-69225359D01*
X130300715Y-69224483D01*
X130189409Y-69223180D01*
X130100928Y-69221364D01*
X130032404Y-69218951D01*
X129980971Y-69215855D01*
X129943761Y-69211992D01*
X129917905Y-69207277D01*
X129900536Y-69201625D01*
X129888787Y-69194950D01*
X129879789Y-69187168D01*
X129876711Y-69184119D01*
X129860083Y-69165073D01*
X129848774Y-69142254D01*
X129842022Y-69108562D01*
X129839068Y-69056900D01*
X129839153Y-68980168D01*
X129841517Y-68871269D01*
X129841848Y-68858363D01*
X129841909Y-68856286D01*
X130089046Y-68856286D01*
X131294996Y-68861443D01*
X132500945Y-68866599D01*
X132500945Y-68814465D01*
X132492237Y-68760605D01*
X132471035Y-68699491D01*
X132468663Y-68694356D01*
X132433774Y-68643666D01*
X132379570Y-68587853D01*
X132342717Y-68557678D01*
X132198394Y-68473130D01*
X132019534Y-68405094D01*
X131808225Y-68353936D01*
X131566557Y-68320020D01*
X131296616Y-68303713D01*
X131000490Y-68305379D01*
X130919700Y-68308790D01*
X130718985Y-68323730D01*
X130553518Y-68347443D01*
X130419305Y-68380807D01*
X130312348Y-68424702D01*
X130264749Y-68452938D01*
X130175779Y-68527167D01*
X130121434Y-68610536D01*
X130096310Y-68712394D01*
X130093623Y-68748864D01*
X130089046Y-68856286D01*
X129841909Y-68856286D01*
X129845202Y-68744947D01*
X129849509Y-68662294D01*
X129856373Y-68601174D01*
X129867401Y-68552354D01*
X129884197Y-68506605D01*
X129908368Y-68454695D01*
X129914072Y-68443079D01*
X129999966Y-68306673D01*
X130113506Y-68191666D01*
X130256314Y-68097242D01*
X130430010Y-68022584D01*
X130636217Y-67966874D01*
X130876554Y-67929297D01*
X130947875Y-67922120D01*
X131216565Y-67910189D01*
X131474248Y-67922760D01*
X131717605Y-67958581D01*
X131943315Y-68016396D01*
X132148060Y-68094953D01*
X132328521Y-68192998D01*
X132481377Y-68309278D01*
X132603309Y-68442539D01*
X132684893Y-68578139D01*
X132714741Y-68646325D01*
X132734355Y-68706430D01*
X132746445Y-68771541D01*
X132753723Y-68854744D01*
X132757275Y-68927614D01*
X132760612Y-69023621D01*
X132760426Y-69088276D01*
X132755587Y-69130157D01*
X132744969Y-69157839D01*
X132727445Y-69179901D01*
X132723588Y-69183819D01*
X132681087Y-69226286D01*
X131300000Y-69226286D01*
X131031550Y-69226271D01*
G37*
G36*
X129934628Y-77067264D02*
G01*
X129963086Y-77071087D01*
X130027512Y-77081814D01*
X130124557Y-77098830D01*
X130250872Y-77121522D01*
X130403105Y-77149279D01*
X130577908Y-77181487D01*
X130771931Y-77217534D01*
X130981823Y-77256805D01*
X131204235Y-77298690D01*
X131338244Y-77324051D01*
X131609851Y-77375472D01*
X131844802Y-77420007D01*
X132045724Y-77458469D01*
X132215244Y-77491668D01*
X132355989Y-77520418D01*
X132470587Y-77545530D01*
X132561665Y-77567817D01*
X132631849Y-77588091D01*
X132683768Y-77607164D01*
X132720047Y-77625848D01*
X132743315Y-77644955D01*
X132756198Y-77665297D01*
X132761323Y-77687687D01*
X132761318Y-77712937D01*
X132758810Y-77741858D01*
X132757104Y-77762672D01*
X132745961Y-77829998D01*
X132719078Y-77873953D01*
X132700176Y-77890137D01*
X132678522Y-77900757D01*
X132638120Y-77913396D01*
X132576325Y-77928569D01*
X132490492Y-77946790D01*
X132377975Y-77968574D01*
X132236129Y-77994437D01*
X132062308Y-78024891D01*
X131853868Y-78060453D01*
X131642194Y-78095965D01*
X131446485Y-78128783D01*
X131262893Y-78159913D01*
X131095175Y-78188692D01*
X130947090Y-78214460D01*
X130822395Y-78236556D01*
X130724848Y-78254319D01*
X130658207Y-78267087D01*
X130626231Y-78274199D01*
X130623985Y-78275102D01*
X130620248Y-78286381D01*
X130621132Y-78286477D01*
X130641875Y-78289837D01*
X130698367Y-78299419D01*
X130786915Y-78314586D01*
X130903830Y-78334702D01*
X131045419Y-78359131D01*
X131207992Y-78387236D01*
X131387858Y-78418382D01*
X131581326Y-78451930D01*
X131660283Y-78465635D01*
X131896405Y-78506582D01*
X132096162Y-78541417D01*
X132262590Y-78571113D01*
X132398722Y-78596641D01*
X132507593Y-78618975D01*
X132592239Y-78639087D01*
X132655692Y-78657951D01*
X132700988Y-78676538D01*
X132731160Y-78695821D01*
X132749244Y-78716774D01*
X132758274Y-78740367D01*
X132761285Y-78767576D01*
X132761310Y-78799370D01*
X132761150Y-78818502D01*
X132750284Y-78898850D01*
X132722909Y-78944497D01*
X132681607Y-78970268D01*
X132618217Y-78994015D01*
X132577795Y-79004108D01*
X132500777Y-79019074D01*
X132394243Y-79039103D01*
X132262223Y-79063481D01*
X132108750Y-79091495D01*
X131937855Y-79122433D01*
X131753570Y-79155581D01*
X131559927Y-79190227D01*
X131360956Y-79225657D01*
X131160690Y-79261159D01*
X130963160Y-79296020D01*
X130772398Y-79329526D01*
X130592436Y-79360964D01*
X130427304Y-79389623D01*
X130281036Y-79414788D01*
X130157661Y-79435747D01*
X130061213Y-79451787D01*
X129995722Y-79462194D01*
X129965220Y-79466256D01*
X129964313Y-79466286D01*
X129899778Y-79451572D01*
X129858796Y-79406398D01*
X129840249Y-79329223D01*
X129838849Y-79292811D01*
X129846374Y-79214948D01*
X129873678Y-79163163D01*
X129927852Y-79129325D01*
X129999298Y-79108823D01*
X130037047Y-79101406D01*
X130109882Y-79087915D01*
X130213453Y-79069130D01*
X130343405Y-79045828D01*
X130495387Y-79018785D01*
X130665046Y-78988781D01*
X130848028Y-78956592D01*
X131019779Y-78926524D01*
X131208429Y-78893446D01*
X131385521Y-78862151D01*
X131547046Y-78833364D01*
X131688992Y-78807812D01*
X131807350Y-78786220D01*
X131898108Y-78769316D01*
X131957256Y-78757824D01*
X131980535Y-78752575D01*
X131967419Y-78747126D01*
X131918411Y-78735799D01*
X131837111Y-78719265D01*
X131727117Y-78698199D01*
X131592030Y-78673271D01*
X131435449Y-78645157D01*
X131260972Y-78614527D01*
X131072199Y-78582056D01*
X131029787Y-78574847D01*
X130834506Y-78541706D01*
X130649518Y-78510274D01*
X130478916Y-78481248D01*
X130326791Y-78455327D01*
X130197237Y-78433210D01*
X130094344Y-78415593D01*
X130022206Y-78403175D01*
X129984914Y-78396654D01*
X129982847Y-78396277D01*
X129908074Y-78370276D01*
X129862115Y-78322208D01*
X129841153Y-78246849D01*
X129838849Y-78199386D01*
X129847156Y-78115048D01*
X129875248Y-78060011D01*
X129927886Y-78026500D01*
X129948936Y-78019551D01*
X129976076Y-78014194D01*
X130038820Y-78003158D01*
X130133248Y-77987094D01*
X130255436Y-77966654D01*
X130401462Y-77942490D01*
X130567405Y-77915252D01*
X130749342Y-77885593D01*
X130943351Y-77854164D01*
X130988376Y-77846897D01*
X131183272Y-77815335D01*
X131365922Y-77785509D01*
X131532567Y-77758050D01*
X131679445Y-77733588D01*
X131802796Y-77712757D01*
X131898859Y-77696186D01*
X131963872Y-77684508D01*
X131994076Y-77678354D01*
X131995755Y-77677745D01*
X131996471Y-77675112D01*
X131991613Y-77671876D01*
X131978239Y-77667462D01*
X131953412Y-77661298D01*
X131914190Y-77652812D01*
X131857636Y-77641430D01*
X131780808Y-77626580D01*
X131680767Y-77607689D01*
X131554575Y-77584184D01*
X131399290Y-77555492D01*
X131211973Y-77521041D01*
X130989686Y-77480257D01*
X130864633Y-77457334D01*
X130676182Y-77422506D01*
X130498932Y-77389188D01*
X130336954Y-77358187D01*
X130194318Y-77330307D01*
X130075095Y-77306353D01*
X129983356Y-77287129D01*
X129923170Y-77273442D01*
X129899109Y-77266400D01*
X129858421Y-77227244D01*
X129843459Y-77175786D01*
X129852090Y-77123992D01*
X129882180Y-77083827D01*
X129931593Y-77067256D01*
X129934628Y-77067264D01*
G37*
G36*
X132660042Y-70135274D02*
G01*
X132711657Y-70175015D01*
X132712020Y-70175377D01*
X132728335Y-70192550D01*
X132740567Y-70210746D01*
X132749304Y-70235585D01*
X132755135Y-70272693D01*
X132758648Y-70327690D01*
X132760429Y-70406201D01*
X132761067Y-70513848D01*
X132761150Y-70645377D01*
X132760931Y-70786131D01*
X132759954Y-70892413D01*
X132757739Y-70969751D01*
X132753806Y-71023674D01*
X132747674Y-71059709D01*
X132738864Y-71083384D01*
X132726895Y-71100227D01*
X132721119Y-71106286D01*
X132712468Y-71114065D01*
X132701309Y-71120763D01*
X132684779Y-71126463D01*
X132660013Y-71131244D01*
X132624148Y-71135188D01*
X132574320Y-71138374D01*
X132507664Y-71140885D01*
X132421318Y-71142799D01*
X132312417Y-71144198D01*
X132178097Y-71145163D01*
X132015496Y-71145773D01*
X131821748Y-71146110D01*
X131593990Y-71146254D01*
X131329358Y-71146286D01*
X131300000Y-71146286D01*
X131031422Y-71146261D01*
X130800011Y-71146132D01*
X130602905Y-71145819D01*
X130437238Y-71145240D01*
X130300148Y-71144316D01*
X130188770Y-71142965D01*
X130100241Y-71141107D01*
X130031697Y-71138662D01*
X129980273Y-71135548D01*
X129943107Y-71131686D01*
X129917334Y-71126994D01*
X129900090Y-71121393D01*
X129888512Y-71114800D01*
X129879736Y-71107137D01*
X129878881Y-71106286D01*
X129864981Y-71089900D01*
X129854722Y-71068636D01*
X129847555Y-71036670D01*
X129842932Y-70988177D01*
X129840305Y-70917334D01*
X129839127Y-70818314D01*
X129838849Y-70685295D01*
X129838849Y-70680737D01*
X129839561Y-70530652D01*
X129842542Y-70415872D01*
X129849066Y-70331715D01*
X129860401Y-70273499D01*
X129877820Y-70236540D01*
X129902593Y-70216157D01*
X129935992Y-70207666D01*
X129967636Y-70206286D01*
X130019977Y-70213711D01*
X130055148Y-70231670D01*
X130055946Y-70232582D01*
X130065121Y-70262748D01*
X130073239Y-70325524D01*
X130079587Y-70413525D01*
X130083416Y-70517582D01*
X130089046Y-70776286D01*
X130784594Y-70781546D01*
X131480141Y-70786805D01*
X131480141Y-70577974D01*
X131482395Y-70467597D01*
X131490891Y-70391180D01*
X131508232Y-70342848D01*
X131537023Y-70316728D01*
X131579864Y-70306943D01*
X131600531Y-70306286D01*
X131649252Y-70314225D01*
X131683467Y-70341412D01*
X131705300Y-70392902D01*
X131716879Y-70473753D01*
X131720330Y-70589020D01*
X131720331Y-70591159D01*
X131720331Y-70787132D01*
X132510953Y-70776286D01*
X132516086Y-70486286D01*
X132518528Y-70371987D01*
X132521801Y-70290859D01*
X132526897Y-70236077D01*
X132534809Y-70200812D01*
X132546530Y-70178238D01*
X132563052Y-70161526D01*
X132563339Y-70161286D01*
X132614131Y-70131033D01*
X132660042Y-70135274D01*
G37*
X137188748Y-84210000D02*
X138611252Y-84210000D01*
X137188748Y-82390000D02*
X138611252Y-82390000D01*
X106596500Y-75882742D02*
X106596500Y-76357258D01*
X107641500Y-75882742D02*
X107641500Y-76357258D01*
X112729648Y-81745000D02*
X113252152Y-81745000D01*
X112729648Y-83215000D02*
X113252152Y-83215000D01*
X92676000Y-97033420D02*
X92676000Y-97314580D01*
X93696000Y-97033420D02*
X93696000Y-97314580D01*
X107822500Y-59057742D02*
X107822500Y-59532258D01*
X106777500Y-59057742D02*
X106777500Y-59532258D01*
X67990000Y-75500000D02*
X67460000Y-75250000D01*
X64000000Y-77170000D02*
X68000000Y-77170000D01*
X62970000Y-73760000D02*
X63570000Y-73760000D01*
X67460000Y-75250000D02*
X67460000Y-65590000D01*
X63570000Y-64540000D02*
X62970000Y-64540000D01*
X67990000Y-65340000D02*
X68990000Y-65340000D01*
X62970000Y-71220000D02*
X63570000Y-71220000D01*
X62970000Y-76300000D02*
X63570000Y-76300000D01*
X67460000Y-65590000D02*
X67990000Y-65340000D01*
X63570000Y-73760000D02*
X63570000Y-72160000D01*
X63570000Y-67080000D02*
X62970000Y-67080000D01*
X63570000Y-72160000D02*
X62970000Y-72160000D01*
X63570000Y-76300000D02*
X63570000Y-74700000D01*
X62970000Y-63960000D02*
X62970000Y-76880000D01*
X63570000Y-71220000D02*
X63570000Y-69620000D01*
X63570000Y-69620000D02*
X62970000Y-69620000D01*
X68990000Y-65590000D02*
X67990000Y-65590000D01*
X62970000Y-68680000D02*
X63570000Y-68680000D01*
X63570000Y-74700000D02*
X62970000Y-74700000D01*
X68990000Y-76880000D02*
X68990000Y-63960000D01*
X68990000Y-63960000D02*
X62970000Y-63960000D01*
X68990000Y-75250000D02*
X67990000Y-75250000D01*
X62970000Y-66140000D02*
X63570000Y-66140000D01*
X63570000Y-68680000D02*
X63570000Y-67080000D01*
X63570000Y-66140000D02*
X63570000Y-64540000D01*
X62970000Y-76880000D02*
X68990000Y-76880000D01*
X67990000Y-75500000D02*
X67990000Y-65340000D01*
X68990000Y-75500000D02*
X67990000Y-75500000D01*
G36*
X134007168Y-62397823D02*
G01*
X134042033Y-62435608D01*
X134092600Y-62496732D01*
X134151589Y-62571783D01*
X134211725Y-62651345D01*
X134265730Y-62726004D01*
X134300811Y-62777698D01*
X134322408Y-62815398D01*
X134320551Y-62830562D01*
X134306243Y-62832698D01*
X134284006Y-62847032D01*
X134239173Y-62887305D01*
X134175588Y-62949424D01*
X134097096Y-63029297D01*
X134007544Y-63122830D01*
X133910776Y-63225930D01*
X133810638Y-63334505D01*
X133710975Y-63444462D01*
X133615632Y-63551707D01*
X133528454Y-63652149D01*
X133460689Y-63732698D01*
X133267630Y-63981286D01*
X133089141Y-64240016D01*
X132929133Y-64502144D01*
X132791514Y-64760922D01*
X132680194Y-65009605D01*
X132613221Y-65195106D01*
X132546522Y-65436505D01*
X132490084Y-65705365D01*
X132447305Y-65982698D01*
X132438831Y-66073345D01*
X132432250Y-66192621D01*
X132427582Y-66332336D01*
X132424850Y-66484297D01*
X132424075Y-66640313D01*
X132425278Y-66792191D01*
X132428481Y-66931740D01*
X132433706Y-67050768D01*
X132440974Y-67141083D01*
X132444196Y-67165658D01*
X132463100Y-67288618D01*
X132351601Y-67311497D01*
X132276097Y-67324152D01*
X132179842Y-67336413D01*
X132082066Y-67345870D01*
X132069968Y-67346788D01*
X131988349Y-67352180D01*
X131940212Y-67353071D01*
X131919169Y-67348532D01*
X131918831Y-67337634D01*
X131927251Y-67326015D01*
X131938581Y-67305863D01*
X131944097Y-67274937D01*
X131943806Y-67225820D01*
X131937713Y-67151096D01*
X131927501Y-67057764D01*
X131913724Y-66897454D01*
X131905524Y-66711474D01*
X131902800Y-66511356D01*
X131905454Y-66308628D01*
X131913383Y-66114819D01*
X131926487Y-65941460D01*
X131938083Y-65842698D01*
X132022187Y-65382987D01*
X132142903Y-64937875D01*
X132299629Y-64508763D01*
X132491760Y-64097051D01*
X132718696Y-63704139D01*
X132979832Y-63331428D01*
X133065616Y-63222698D01*
X133158958Y-63113162D01*
X133271851Y-62989543D01*
X133396434Y-62859729D01*
X133524850Y-62731610D01*
X133649240Y-62613076D01*
X133761746Y-62512016D01*
X133830198Y-62455120D01*
X133959143Y-62352948D01*
X134007168Y-62397823D01*
G37*
G36*
X131218977Y-65503936D02*
G01*
X131250862Y-65531160D01*
X131296858Y-65591184D01*
X131305537Y-65647047D01*
X131277642Y-65706985D01*
X131267885Y-65720001D01*
X131212349Y-65763399D01*
X131146368Y-65769766D01*
X131074684Y-65739083D01*
X131050700Y-65720921D01*
X131001749Y-65662606D01*
X130992553Y-65601765D01*
X131022835Y-65535712D01*
X131030602Y-65525396D01*
X131086405Y-65481117D01*
X131151052Y-65474013D01*
X131218977Y-65503936D01*
G37*
G36*
X132600565Y-61520176D02*
G01*
X132651015Y-61535447D01*
X132722493Y-61560135D01*
X132807028Y-61591271D01*
X132896653Y-61625886D01*
X132983398Y-61661012D01*
X133059294Y-61693680D01*
X133087865Y-61706825D01*
X133163780Y-61745167D01*
X133205512Y-61772760D01*
X133216612Y-61792207D01*
X133212963Y-61798604D01*
X133195515Y-61834820D01*
X133190851Y-61869166D01*
X133198414Y-61918814D01*
X133218892Y-61995668D01*
X133248973Y-62090365D01*
X133285341Y-62193545D01*
X133324685Y-62295847D01*
X133363690Y-62387911D01*
X133399041Y-62460376D01*
X133402116Y-62465948D01*
X133436042Y-62527596D01*
X133460486Y-62573944D01*
X133470500Y-62595588D01*
X133470532Y-62595948D01*
X133456971Y-62611706D01*
X133420021Y-62650520D01*
X133364680Y-62707244D01*
X133295943Y-62776728D01*
X133263319Y-62809441D01*
X133056647Y-63016183D01*
X132973532Y-62846192D01*
X132814183Y-62475240D01*
X132690477Y-62086861D01*
X132609612Y-61723095D01*
X132595089Y-61638984D01*
X132584501Y-61571129D01*
X132579114Y-61528080D01*
X132579111Y-61517291D01*
X132600565Y-61520176D01*
G37*
G36*
X134468589Y-63086129D02*
G01*
X134594609Y-63380329D01*
X134687461Y-63694596D01*
X134746196Y-64025256D01*
X134764823Y-64232698D01*
X134776929Y-64442698D01*
X134700549Y-64482698D01*
X134642431Y-64522129D01*
X134566197Y-64586995D01*
X134478070Y-64670978D01*
X134384275Y-64767757D01*
X134291037Y-64871011D01*
X134204579Y-64974422D01*
X134161301Y-65030236D01*
X134058341Y-65181748D01*
X133958835Y-65354294D01*
X133869508Y-65534603D01*
X133797088Y-65709401D01*
X133759675Y-65822698D01*
X133733953Y-65934184D01*
X133713765Y-66064362D01*
X133699886Y-66202216D01*
X133693091Y-66336726D01*
X133694154Y-66456876D01*
X133703852Y-66551646D01*
X133707245Y-66568097D01*
X133727200Y-66653495D01*
X133614148Y-66739938D01*
X133515273Y-66813433D01*
X133432050Y-66871104D01*
X133368708Y-66910260D01*
X133329473Y-66928206D01*
X133319316Y-66927729D01*
X133311566Y-66904480D01*
X133299684Y-66850973D01*
X133285622Y-66776488D01*
X133277644Y-66729802D01*
X133261665Y-66585732D01*
X133255290Y-66416470D01*
X133258076Y-66235541D01*
X133269580Y-66056473D01*
X133289358Y-65892792D01*
X133308328Y-65792698D01*
X133393826Y-65498951D01*
X133514290Y-65212226D01*
X133671226Y-64929561D01*
X133866139Y-64647989D01*
X133932715Y-64562698D01*
X133986194Y-64499313D01*
X134061512Y-64414741D01*
X134152162Y-64316046D01*
X134251640Y-64210288D01*
X134353440Y-64104529D01*
X134376900Y-64080537D01*
X134488851Y-63965110D01*
X134573393Y-63874338D01*
X134632274Y-63805469D01*
X134667238Y-63755746D01*
X134680033Y-63722415D01*
X134672404Y-63702721D01*
X134646097Y-63693909D01*
X134622701Y-63692698D01*
X134594550Y-63706886D01*
X134544009Y-63746566D01*
X134475369Y-63807412D01*
X134392925Y-63885101D01*
X134300970Y-63975308D01*
X134203799Y-64073707D01*
X134105703Y-64175974D01*
X134010978Y-64277783D01*
X133923916Y-64374811D01*
X133848811Y-64462733D01*
X133808634Y-64512698D01*
X133602951Y-64799966D01*
X133435733Y-65084810D01*
X133305807Y-65370396D01*
X133211999Y-65659892D01*
X133153137Y-65956465D01*
X133128045Y-66263282D01*
X133126914Y-66352698D01*
X133130454Y-66489485D01*
X133139828Y-66627201D01*
X133153938Y-66756475D01*
X133171684Y-66867933D01*
X133191968Y-66952205D01*
X133199805Y-66974393D01*
X133197748Y-66993521D01*
X133173352Y-67016385D01*
X133121602Y-67046462D01*
X133037486Y-67087232D01*
X133036601Y-67087642D01*
X132895247Y-67150246D01*
X132776043Y-67197104D01*
X132682137Y-67227208D01*
X132616675Y-67239553D01*
X132582805Y-67233131D01*
X132582539Y-67232873D01*
X132575257Y-67208126D01*
X132569472Y-67149141D01*
X132565140Y-67054691D01*
X132562216Y-66923552D01*
X132560658Y-66754496D01*
X132560355Y-66616706D01*
X132560620Y-66440326D01*
X132561652Y-66297484D01*
X132563805Y-66181719D01*
X132567430Y-66086570D01*
X132572883Y-66005578D01*
X132580516Y-65932282D01*
X132590683Y-65860221D01*
X132603737Y-65782936D01*
X132606944Y-65765073D01*
X132676157Y-65446830D01*
X132766232Y-65149539D01*
X132880506Y-64865746D01*
X133022316Y-64588002D01*
X133195000Y-64308853D01*
X133368047Y-64065573D01*
X133449830Y-63957605D01*
X133525006Y-63861123D01*
X133598795Y-63770033D01*
X133676414Y-63678241D01*
X133763081Y-63579652D01*
X133864015Y-63468171D01*
X133984432Y-63337704D01*
X134068372Y-63247598D01*
X134381272Y-62912497D01*
X134468589Y-63086129D01*
G37*
G36*
X133337077Y-61846110D02*
G01*
X133382487Y-61871535D01*
X133445343Y-61912481D01*
X133518823Y-61964111D01*
X133596108Y-62021584D01*
X133670375Y-62080061D01*
X133734805Y-62134704D01*
X133752188Y-62150549D01*
X133872440Y-62262698D01*
X133740758Y-62368730D01*
X133677295Y-62418626D01*
X133623813Y-62458483D01*
X133589323Y-62481657D01*
X133583773Y-62484463D01*
X133564350Y-62471905D01*
X133535266Y-62428616D01*
X133499523Y-62361813D01*
X133460127Y-62278711D01*
X133420080Y-62186525D01*
X133382387Y-62092471D01*
X133350050Y-62003765D01*
X133326074Y-61927622D01*
X133313461Y-61871256D01*
X133315217Y-61841885D01*
X133315934Y-61841047D01*
X133337077Y-61846110D01*
G37*
G36*
X131246293Y-61766628D02*
G01*
X131256002Y-61875841D01*
X131265605Y-61974788D01*
X131274196Y-62054720D01*
X131280864Y-62106889D01*
X131282723Y-62117698D01*
X131287168Y-62152667D01*
X131274637Y-62168404D01*
X131235378Y-62172562D01*
X131212643Y-62172698D01*
X131155893Y-62167564D01*
X131115787Y-62145761D01*
X131076931Y-62101520D01*
X131004456Y-62027331D01*
X130920922Y-61986129D01*
X130815549Y-61972732D01*
X130808976Y-61972698D01*
X130698221Y-61988276D01*
X130606911Y-62030919D01*
X130537978Y-62094489D01*
X130494351Y-62172851D01*
X130478961Y-62259866D01*
X130494739Y-62349398D01*
X130544616Y-62435310D01*
X130573404Y-62466001D01*
X130643171Y-62524790D01*
X130707119Y-62557516D01*
X130782214Y-62571002D01*
X130838677Y-62572699D01*
X130954556Y-62561175D01*
X131040731Y-62524950D01*
X131100786Y-62461546D01*
X131138305Y-62368483D01*
X131139236Y-62364733D01*
X131155316Y-62312236D01*
X131177622Y-62287264D01*
X131218671Y-62277834D01*
X131231253Y-62276673D01*
X131303255Y-62270648D01*
X131358755Y-62506673D01*
X131383815Y-62604914D01*
X131417106Y-62723634D01*
X131455548Y-62852950D01*
X131496064Y-62982979D01*
X131535574Y-63103835D01*
X131571000Y-63205636D01*
X131598920Y-63277698D01*
X131602964Y-63300166D01*
X131583756Y-63310335D01*
X131533758Y-63312698D01*
X131494657Y-63310436D01*
X131461348Y-63300212D01*
X131427601Y-63276868D01*
X131387183Y-63235247D01*
X131333863Y-63170191D01*
X131284071Y-63106057D01*
X131209354Y-63038553D01*
X131119148Y-63004009D01*
X131020469Y-63002304D01*
X130920332Y-63033318D01*
X130825753Y-63096930D01*
X130807423Y-63114250D01*
X130739462Y-63207693D01*
X130706655Y-63318004D01*
X130708515Y-63447048D01*
X130713165Y-63476157D01*
X130738554Y-63579741D01*
X130775868Y-63658148D01*
X130832875Y-63725983D01*
X130858689Y-63749730D01*
X130943227Y-63800336D01*
X131035034Y-63815370D01*
X131127474Y-63796769D01*
X131213911Y-63746470D01*
X131287707Y-63666410D01*
X131317859Y-63615692D01*
X131355036Y-63548116D01*
X131390891Y-63503840D01*
X131437506Y-63472889D01*
X131506961Y-63445290D01*
X131536116Y-63435493D01*
X131648470Y-63398456D01*
X131737973Y-63580577D01*
X131923512Y-63923113D01*
X132113330Y-64212777D01*
X132221282Y-64362856D01*
X132112946Y-64622698D01*
X131995302Y-64628551D01*
X131877659Y-64634404D01*
X131813066Y-64534798D01*
X131733920Y-64436513D01*
X131645361Y-64374753D01*
X131541832Y-64346232D01*
X131489511Y-64343365D01*
X131372234Y-64360269D01*
X131277097Y-64407807D01*
X131207832Y-64481216D01*
X131168171Y-64575734D01*
X131161848Y-64686598D01*
X131172615Y-64747715D01*
X131215763Y-64840664D01*
X131290840Y-64913271D01*
X131393230Y-64961518D01*
X131428871Y-64970703D01*
X131551221Y-64989222D01*
X131645416Y-64984338D01*
X131716974Y-64954276D01*
X131771415Y-64897263D01*
X131796689Y-64852471D01*
X131823705Y-64800714D01*
X131850036Y-64772555D01*
X131889556Y-64758793D01*
X131949874Y-64750898D01*
X132010783Y-64744757D01*
X132052261Y-64741310D01*
X132063472Y-64741074D01*
X132059413Y-64759751D01*
X132045757Y-64809087D01*
X132024664Y-64881507D01*
X131999202Y-64966445D01*
X131967032Y-65077720D01*
X131935245Y-65196614D01*
X131908384Y-65305726D01*
X131896106Y-65361269D01*
X131860792Y-65532698D01*
X131704532Y-65532698D01*
X131578648Y-65525621D01*
X131479144Y-65501641D01*
X131394469Y-65456637D01*
X131323408Y-65396722D01*
X131271911Y-65351599D01*
X131227868Y-65330059D01*
X131173713Y-65324460D01*
X131157749Y-65324629D01*
X131069846Y-65343152D01*
X130990409Y-65389743D01*
X130924199Y-65456786D01*
X130875976Y-65536665D01*
X130850498Y-65621762D01*
X130852525Y-65704463D01*
X130880353Y-65768516D01*
X130944670Y-65828295D01*
X131036852Y-65870538D01*
X131147096Y-65891261D01*
X131185778Y-65892698D01*
X131287844Y-65882113D01*
X131361542Y-65847942D01*
X131413195Y-65786561D01*
X131429289Y-65753122D01*
X131444480Y-65722131D01*
X131464789Y-65700753D01*
X131497964Y-65686264D01*
X131551751Y-65675938D01*
X131633900Y-65667052D01*
X131687441Y-65662347D01*
X131835331Y-65649730D01*
X131820855Y-65756214D01*
X131801221Y-65917943D01*
X131785527Y-66081766D01*
X131774870Y-66234308D01*
X131770346Y-66362193D01*
X131770274Y-66372734D01*
X131769732Y-66522770D01*
X131416124Y-66533360D01*
X131357743Y-66419569D01*
X131286516Y-66317049D01*
X131195732Y-66249398D01*
X131084966Y-66216353D01*
X131026943Y-66212698D01*
X130924000Y-66223051D01*
X130848603Y-66256354D01*
X130793390Y-66315981D01*
X130790149Y-66321133D01*
X130745405Y-66428086D01*
X130736727Y-66537596D01*
X130761015Y-66643932D01*
X130815173Y-66741361D01*
X130896103Y-66824152D01*
X131000707Y-66886571D01*
X131114264Y-66920910D01*
X131208591Y-66921170D01*
X131287128Y-66884804D01*
X131349993Y-66811718D01*
X131397305Y-66701819D01*
X131398548Y-66697745D01*
X131410660Y-66671867D01*
X131433471Y-66654019D01*
X131474453Y-66641916D01*
X131541078Y-66633275D01*
X131631944Y-66626385D01*
X131764369Y-66617735D01*
X131777696Y-66800217D01*
X131789940Y-66948191D01*
X131803545Y-67078581D01*
X131817830Y-67186788D01*
X131832116Y-67268214D01*
X131845723Y-67318261D01*
X131856417Y-67332698D01*
X131866406Y-67341735D01*
X131858719Y-67351782D01*
X131830565Y-67358694D01*
X131770634Y-67360545D01*
X131686779Y-67357932D01*
X131586853Y-67351448D01*
X131478708Y-67341689D01*
X131370197Y-67329251D01*
X131269172Y-67314727D01*
X131197302Y-67301655D01*
X130869731Y-67215649D01*
X130562719Y-67096543D01*
X130273839Y-66943016D01*
X130000664Y-66753745D01*
X129740766Y-66527407D01*
X129696689Y-66484109D01*
X129460910Y-66222119D01*
X129261817Y-65944200D01*
X129099594Y-65650845D01*
X128974424Y-65342544D01*
X128886492Y-65019789D01*
X128835980Y-64683071D01*
X128823072Y-64332882D01*
X128830119Y-64162698D01*
X128871892Y-63827726D01*
X128951848Y-63502524D01*
X129068779Y-63189725D01*
X129221478Y-62891961D01*
X129408740Y-62611863D01*
X129629356Y-62352065D01*
X129687463Y-62292698D01*
X129877613Y-62115647D01*
X130065810Y-61966617D01*
X130264608Y-61836349D01*
X130432635Y-61743091D01*
X130551464Y-61685962D01*
X130685726Y-61628939D01*
X130824650Y-61575968D01*
X130957465Y-61530994D01*
X131073402Y-61497966D01*
X131140166Y-61483832D01*
X131221160Y-61470558D01*
X131246293Y-61766628D01*
G37*
G36*
X130885201Y-62089563D02*
G01*
X130951262Y-62138558D01*
X130993198Y-62217286D01*
X131009050Y-62323347D01*
X131009133Y-62332549D01*
X131000800Y-62395346D01*
X130970190Y-62439553D01*
X130956394Y-62451247D01*
X130882487Y-62487316D01*
X130802971Y-62483791D01*
X130727160Y-62447098D01*
X130653582Y-62379647D01*
X130615669Y-62303431D01*
X130614550Y-62223756D01*
X130651352Y-62145925D01*
X130660637Y-62134233D01*
X130704240Y-62092387D01*
X130752412Y-62075142D01*
X130796973Y-62072698D01*
X130885201Y-62089563D01*
G37*
G36*
X134768731Y-64596337D02*
G01*
X134764973Y-64618357D01*
X134759724Y-64665471D01*
X134758093Y-64682698D01*
X134729231Y-64886161D01*
X134679762Y-65107343D01*
X134613546Y-65332309D01*
X134534447Y-65547121D01*
X134490734Y-65647530D01*
X134419151Y-65786739D01*
X134328722Y-65938622D01*
X134226026Y-66093813D01*
X134117647Y-66242941D01*
X134010165Y-66376638D01*
X133910163Y-66485537D01*
X133885006Y-66509745D01*
X133834423Y-66556792D01*
X133820220Y-66462154D01*
X133812426Y-66329295D01*
X133823061Y-66172670D01*
X133850295Y-66003010D01*
X133892296Y-65831048D01*
X133947235Y-65667517D01*
X133961974Y-65631117D01*
X134057092Y-65436549D01*
X134180471Y-65234057D01*
X134324897Y-65034244D01*
X134483153Y-64847715D01*
X134525787Y-64802586D01*
X134575545Y-64753401D01*
X134630561Y-64702449D01*
X134684155Y-64655402D01*
X134729646Y-64617931D01*
X134760352Y-64595708D01*
X134769594Y-64594406D01*
X134768731Y-64596337D01*
G37*
G36*
X131869811Y-61611674D02*
G01*
X131883326Y-61886946D01*
X131922236Y-62176610D01*
X131984085Y-62472303D01*
X132066417Y-62765662D01*
X132166776Y-63048322D01*
X132282708Y-63311920D01*
X132411757Y-63548092D01*
X132460734Y-63624465D01*
X132499060Y-63686453D01*
X132523734Y-63736131D01*
X132530304Y-63764266D01*
X132529186Y-63766367D01*
X132514298Y-63789474D01*
X132485083Y-63840758D01*
X132445621Y-63912874D01*
X132399991Y-63998477D01*
X132395196Y-64007590D01*
X132277026Y-64232482D01*
X132141641Y-64027590D01*
X131933671Y-63677499D01*
X131755556Y-63303126D01*
X131608448Y-62908074D01*
X131493499Y-62495945D01*
X131411863Y-62070341D01*
X131364691Y-61634865D01*
X131361885Y-61590427D01*
X131352901Y-61438156D01*
X131486258Y-61425569D01*
X131581697Y-61418545D01*
X131684815Y-61413913D01*
X131744712Y-61412841D01*
X131869811Y-61412698D01*
X131869811Y-61611674D01*
G37*
G36*
X131542643Y-64468897D02*
G01*
X131619178Y-64512588D01*
X131675079Y-64576415D01*
X131704362Y-64653019D01*
X131701042Y-64735043D01*
X131695485Y-64752698D01*
X131660677Y-64811642D01*
X131605545Y-64843448D01*
X131525125Y-64852698D01*
X131428188Y-64842819D01*
X131356582Y-64814778D01*
X131324688Y-64784704D01*
X131316586Y-64753761D01*
X131311115Y-64697023D01*
X131309676Y-64647698D01*
X131319558Y-64552588D01*
X131350825Y-64490101D01*
X131405014Y-64458127D01*
X131451459Y-64452698D01*
X131542643Y-64468897D01*
G37*
G36*
X131122465Y-66345240D02*
G01*
X131185962Y-66405157D01*
X131231382Y-66481127D01*
X131263550Y-66584563D01*
X131260756Y-66674417D01*
X131255138Y-66692698D01*
X131214583Y-66757323D01*
X131155533Y-66787950D01*
X131082185Y-66783533D01*
X131013954Y-66752807D01*
X130942440Y-66691480D01*
X130893526Y-66613740D01*
X130869517Y-66528996D01*
X130872718Y-66446657D01*
X130905434Y-66376131D01*
X130918152Y-66361789D01*
X130982434Y-66321222D01*
X131052580Y-66316483D01*
X131122465Y-66345240D01*
G37*
G36*
X132084980Y-61422951D02*
G01*
X132150245Y-61432518D01*
X132238329Y-61446534D01*
X132332658Y-61462344D01*
X132354907Y-61466201D01*
X132437455Y-61481122D01*
X132486271Y-61492295D01*
X132507128Y-61502451D01*
X132505797Y-61514321D01*
X132489175Y-61529724D01*
X132448590Y-61562698D01*
X132490638Y-61782698D01*
X132580924Y-62169418D01*
X132699629Y-62536099D01*
X132845020Y-62877572D01*
X132882963Y-62953778D01*
X132920528Y-63028069D01*
X132949874Y-63088056D01*
X132967045Y-63125545D01*
X132969864Y-63133778D01*
X132957478Y-63152889D01*
X132927047Y-63191043D01*
X132908704Y-63212698D01*
X132870459Y-63260613D01*
X132818716Y-63330144D01*
X132762098Y-63409573D01*
X132735774Y-63447698D01*
X132687102Y-63517266D01*
X132646277Y-63572344D01*
X132618683Y-63605847D01*
X132610354Y-63612698D01*
X132593502Y-63595765D01*
X132562843Y-63549277D01*
X132521970Y-63479700D01*
X132474483Y-63393501D01*
X132423975Y-63297146D01*
X132374045Y-63197100D01*
X132343391Y-63132698D01*
X132229215Y-62853195D01*
X132134271Y-62550535D01*
X132061156Y-62236349D01*
X132012466Y-61922266D01*
X131990797Y-61619917D01*
X131989905Y-61549354D01*
X131989905Y-61410248D01*
X132084980Y-61422951D01*
G37*
G36*
X131092480Y-63142651D02*
G01*
X131155763Y-63177059D01*
X131206276Y-63240424D01*
X131238002Y-63330392D01*
X131244386Y-63376869D01*
X131246012Y-63449398D01*
X131233825Y-63502206D01*
X131206070Y-63550860D01*
X131160685Y-63606815D01*
X131110751Y-63654706D01*
X131104208Y-63659765D01*
X131049165Y-63700509D01*
X130994121Y-63659832D01*
X130923650Y-63588525D01*
X130875039Y-63500404D01*
X130850877Y-63405614D01*
X130853752Y-63314300D01*
X130886179Y-63236712D01*
X130951671Y-63170123D01*
X131022443Y-63139554D01*
X131092480Y-63142651D01*
G37*
X139555000Y-39650000D02*
X133665000Y-39650000D01*
X140010000Y-44790000D02*
X133665000Y-44790000D01*
X104560000Y-62570000D02*
X104560000Y-65120000D01*
X106260000Y-62570000D02*
X106260000Y-65120000D01*
X106260000Y-62570000D02*
X104560000Y-62570000D01*
X84416000Y-97759420D02*
X84416000Y-98040580D01*
X85436000Y-97759420D02*
X85436000Y-98040580D01*
X104560000Y-51020000D02*
X104560000Y-53570000D01*
X106260000Y-51020000D02*
X106260000Y-53570000D01*
X106260000Y-51020000D02*
X104560000Y-51020000D01*
X104360000Y-66350000D02*
X104360000Y-68900000D01*
X106060000Y-66350000D02*
X104360000Y-66350000D01*
X106060000Y-66350000D02*
X106060000Y-68900000D01*
X158095000Y-55369000D02*
X160095000Y-55369000D01*
X160095000Y-55369000D02*
X160095000Y-51469000D01*
X158095000Y-55369000D02*
X158095000Y-51469000D01*
X71437258Y-85612500D02*
X70962742Y-85612500D01*
X71437258Y-84567500D02*
X70962742Y-84567500D01*
X102381258Y-78255500D02*
X101906742Y-78255500D01*
X102381258Y-79300500D02*
X101906742Y-79300500D01*
X111909100Y-67740000D02*
X109959100Y-67740000D01*
X111909100Y-67740000D02*
X113859100Y-67740000D01*
X111909100Y-72860000D02*
X115359100Y-72860000D01*
X111909100Y-72860000D02*
X109959100Y-72860000D01*
X149838300Y-67384000D02*
X149038300Y-67384000D01*
X149838300Y-67384000D02*
X150638300Y-67384000D01*
X149838300Y-64264000D02*
X150638300Y-64264000D01*
X149838300Y-64264000D02*
X148038300Y-64264000D01*
X87259500Y-101137258D02*
X87259500Y-100662742D01*
X88304500Y-101137258D02*
X88304500Y-100662742D01*
X140010000Y-81470000D02*
X133665000Y-81470000D01*
X139555000Y-76330000D02*
X133665000Y-76330000D01*
X89350000Y-62150000D02*
X89350000Y-65450000D01*
X89350000Y-65450000D02*
X93350000Y-65450000D01*
X92205420Y-85612000D02*
X92486580Y-85612000D01*
X92205420Y-86632000D02*
X92486580Y-86632000D01*
X117550000Y-96760000D02*
X118950000Y-96760000D01*
X118950000Y-94440000D02*
X117050000Y-94440000D01*
X77902000Y-51176000D02*
X77302000Y-51176000D01*
X77902000Y-50236000D02*
X77902000Y-48636000D01*
X77302000Y-62936000D02*
X77902000Y-62936000D01*
X77302000Y-52776000D02*
X77902000Y-52776000D01*
X77902000Y-55316000D02*
X77902000Y-53716000D01*
X78332000Y-63806000D02*
X82332000Y-63806000D01*
X77902000Y-48636000D02*
X77302000Y-48636000D01*
X77902000Y-58796000D02*
X77302000Y-58796000D01*
X83322000Y-63516000D02*
X83322000Y-48056000D01*
X83322000Y-61886000D02*
X82322000Y-61886000D01*
X83322000Y-48056000D02*
X77302000Y-48056000D01*
X82322000Y-62136000D02*
X82322000Y-49436000D01*
X82322000Y-62136000D02*
X81792000Y-61886000D01*
X77302000Y-55316000D02*
X77902000Y-55316000D01*
X77902000Y-52776000D02*
X77902000Y-51176000D01*
X77902000Y-62936000D02*
X77902000Y-61336000D01*
X83322000Y-62136000D02*
X82322000Y-62136000D01*
X77902000Y-60396000D02*
X77902000Y-58796000D01*
X77302000Y-60396000D02*
X77902000Y-60396000D01*
X77302000Y-50236000D02*
X77902000Y-50236000D01*
X77902000Y-61336000D02*
X77302000Y-61336000D01*
X77302000Y-57856000D02*
X77902000Y-57856000D01*
X81792000Y-49686000D02*
X82322000Y-49436000D01*
X81792000Y-61886000D02*
X81792000Y-49686000D01*
X77302000Y-48056000D02*
X77302000Y-63516000D01*
X77302000Y-63516000D02*
X83322000Y-63516000D01*
X77902000Y-57856000D02*
X77902000Y-56256000D01*
X77902000Y-56256000D02*
X77302000Y-56256000D01*
X82322000Y-49436000D02*
X83322000Y-49436000D01*
X83322000Y-49686000D02*
X82322000Y-49686000D01*
X77902000Y-53716000D02*
X77302000Y-53716000D01*
X127830000Y-111770000D02*
X130430000Y-111770000D01*
X120150000Y-109170000D02*
X120150000Y-114370000D01*
X127830000Y-109170000D02*
X120150000Y-109170000D01*
X130430000Y-114370000D02*
X120150000Y-114370000D01*
X130430000Y-111770000D02*
X130430000Y-114370000D01*
X127830000Y-109170000D02*
X127830000Y-111770000D01*
X130430000Y-109170000D02*
X130430000Y-110500000D01*
X129100000Y-109170000D02*
X130430000Y-109170000D01*
X158880000Y-78920580D02*
X158880000Y-78639420D01*
X159900000Y-78920580D02*
X159900000Y-78639420D01*
X150130000Y-114270000D02*
X139850000Y-114270000D01*
X147530000Y-109070000D02*
X139850000Y-109070000D01*
X139850000Y-109070000D02*
X139850000Y-114270000D01*
X147530000Y-109070000D02*
X147530000Y-111670000D01*
X150130000Y-111670000D02*
X150130000Y-114270000D01*
X147530000Y-111670000D02*
X150130000Y-111670000D01*
X148800000Y-109070000D02*
X150130000Y-109070000D01*
X150130000Y-109070000D02*
X150130000Y-110400000D01*
X106477500Y-87187742D02*
X106477500Y-87662258D01*
X107522500Y-87187742D02*
X107522500Y-87662258D01*
X127305563Y-74360000D02*
X119850000Y-74360000D01*
X128370000Y-73295563D02*
X127305563Y-74360000D01*
X128370000Y-73295563D02*
X128370000Y-71610000D01*
X119850000Y-74360000D02*
X119850000Y-71610000D01*
X128370000Y-66904437D02*
X127305563Y-65840000D01*
X129610000Y-72610000D02*
X128610000Y-72610000D01*
X119850000Y-65840000D02*
X119850000Y-68590000D01*
X127305563Y-65840000D02*
X119850000Y-65840000D01*
X128370000Y-66904437D02*
X128370000Y-68590000D01*
X129110000Y-73110000D02*
X129110000Y-72110000D01*
X83070000Y-115685000D02*
X83070000Y-113980000D01*
X92230000Y-113980000D02*
X92230000Y-115685000D01*
X92230000Y-111970000D02*
X92230000Y-110050000D01*
X83070000Y-110050000D02*
X83070000Y-111970000D01*
X92230000Y-115685000D02*
X83070000Y-115685000D01*
X106260000Y-47620000D02*
X104560000Y-47620000D01*
X106260000Y-47620000D02*
X106260000Y-50170000D01*
X104560000Y-47620000D02*
X104560000Y-50170000D01*
D12*
X80750000Y-70500000D02*
X80750000Y-74700000D01*
X78350000Y-74700000D02*
X78350000Y-70500000D01*
X80750000Y-74700000D02*
X78350000Y-74700000D01*
X78350000Y-70500000D02*
X80750000Y-70500000D01*
D11*
X151940000Y-71320000D02*
X151940000Y-67870000D01*
X146820000Y-71320000D02*
X146820000Y-73270000D01*
X146820000Y-71320000D02*
X146820000Y-69370000D01*
X151940000Y-71320000D02*
X151940000Y-73270000D01*
X155282742Y-95292500D02*
X155757258Y-95292500D01*
X155282742Y-94247500D02*
X155757258Y-94247500D01*
X78697258Y-66872500D02*
X78222742Y-66872500D01*
X78697258Y-65827500D02*
X78222742Y-65827500D01*
X160180000Y-97333000D02*
X154880000Y-97333000D01*
X156260000Y-98333000D02*
X156260000Y-97333000D01*
X157060000Y-102753000D02*
X155460000Y-102753000D01*
X159600000Y-103353000D02*
X159600000Y-102753000D01*
X158000000Y-102753000D02*
X158000000Y-103353000D01*
X159600000Y-102753000D02*
X158000000Y-102753000D01*
X160180000Y-103353000D02*
X160180000Y-97333000D01*
X156510000Y-97333000D02*
X156510000Y-98333000D01*
X158800000Y-98333000D02*
X156260000Y-98333000D01*
X155460000Y-102753000D02*
X155460000Y-103353000D01*
X158800000Y-97333000D02*
X158800000Y-98333000D01*
X158800000Y-98333000D02*
X158550000Y-98863000D01*
X158550000Y-97333000D02*
X158550000Y-98333000D01*
X156510000Y-98863000D02*
X156260000Y-98333000D01*
X158550000Y-98863000D02*
X156510000Y-98863000D01*
X154880000Y-103353000D02*
X160180000Y-103353000D01*
X160470000Y-102323000D02*
X160470000Y-98323000D01*
X157060000Y-103353000D02*
X157060000Y-102753000D01*
X154880000Y-97333000D02*
X154880000Y-103353000D01*
D12*
X160700000Y-42450000D02*
G75*
G03*
X160700000Y-42450000I-3350000J0D01*
G01*
D11*
X75190000Y-64700000D02*
X75190000Y-54540000D01*
X70770000Y-57880000D02*
X70770000Y-56280000D01*
X70770000Y-62960000D02*
X70770000Y-61360000D01*
X70770000Y-55340000D02*
X70770000Y-53740000D01*
X75190000Y-54540000D02*
X76190000Y-54540000D01*
X70770000Y-61360000D02*
X70170000Y-61360000D01*
X76190000Y-53160000D02*
X70170000Y-53160000D01*
X74660000Y-64450000D02*
X74660000Y-54790000D01*
X70170000Y-60420000D02*
X70770000Y-60420000D01*
X70170000Y-62960000D02*
X70770000Y-62960000D01*
X70770000Y-65500000D02*
X70770000Y-63900000D01*
X70770000Y-63900000D02*
X70170000Y-63900000D01*
X70170000Y-66080000D02*
X76190000Y-66080000D01*
X70770000Y-60420000D02*
X70770000Y-58820000D01*
X75190000Y-64700000D02*
X74660000Y-64450000D01*
X70770000Y-56280000D02*
X70170000Y-56280000D01*
X76190000Y-54790000D02*
X75190000Y-54790000D01*
X76190000Y-64700000D02*
X75190000Y-64700000D01*
X70770000Y-53740000D02*
X70170000Y-53740000D01*
X70770000Y-58820000D02*
X70170000Y-58820000D01*
X76190000Y-66080000D02*
X76190000Y-53160000D01*
X70170000Y-57880000D02*
X70770000Y-57880000D01*
X70170000Y-65500000D02*
X70770000Y-65500000D01*
X70170000Y-55340000D02*
X70770000Y-55340000D01*
X70170000Y-53160000D02*
X70170000Y-66080000D01*
X71200000Y-66370000D02*
X75200000Y-66370000D01*
X76190000Y-64450000D02*
X75190000Y-64450000D01*
X74660000Y-54790000D02*
X75190000Y-54540000D01*
X151940000Y-60370000D02*
X151940000Y-56920000D01*
X151940000Y-60370000D02*
X151940000Y-62320000D01*
X146820000Y-60370000D02*
X146820000Y-62320000D01*
X146820000Y-60370000D02*
X146820000Y-58420000D01*
X109800000Y-43100000D02*
X109800000Y-40000000D01*
X112600000Y-43100000D02*
X112600000Y-40100000D01*
X110950000Y-43550000D02*
X109875000Y-43550000D01*
X123109420Y-95710000D02*
X123390580Y-95710000D01*
X123109420Y-94690000D02*
X123390580Y-94690000D01*
X107722500Y-63857742D02*
X107722500Y-64332258D01*
X106677500Y-63857742D02*
X106677500Y-64332258D01*
X159750000Y-104800000D02*
X159750000Y-105400000D01*
X156950000Y-105400000D02*
X156950000Y-104800000D01*
X159050000Y-106100000D02*
X157650000Y-106100000D01*
X157650000Y-104100000D02*
X159050000Y-104100000D01*
X156950000Y-105400000D02*
G75*
G03*
X157650000Y-106100000I699999J-1D01*
G01*
X159050000Y-106100000D02*
G75*
G03*
X159750000Y-105400000I1J699999D01*
G01*
X157650000Y-104100000D02*
G75*
G03*
X156950000Y-104800000I-1J-699999D01*
G01*
X159750000Y-104800000D02*
G75*
G03*
X159050000Y-104100000I-699999J1D01*
G01*
X105755000Y-114071000D02*
X105755000Y-113826000D01*
X105755000Y-102546000D02*
X103940000Y-102546000D01*
X109615000Y-114071000D02*
X105755000Y-114071000D01*
X105755000Y-102301000D02*
X105755000Y-102546000D01*
X113475000Y-114071000D02*
X113475000Y-113826000D01*
X109615000Y-114071000D02*
X113475000Y-114071000D01*
X109615000Y-102301000D02*
X105755000Y-102301000D01*
X109615000Y-102301000D02*
X113475000Y-102301000D01*
X113475000Y-102301000D02*
X113475000Y-102546000D01*
D12*
X69050000Y-111100000D02*
G75*
G03*
X69050000Y-111100000I-3350000J0D01*
G01*
D11*
X118250000Y-58820000D02*
X118250000Y-54920000D01*
X116250000Y-58820000D02*
X118250000Y-58820000D01*
X116250000Y-58820000D02*
X116250000Y-54920000D01*
X140010000Y-90120000D02*
X133665000Y-90120000D01*
X139555000Y-84980000D02*
X133665000Y-84980000D01*
D13*
X136105000Y-94520000D02*
X135330000Y-94520000D01*
X137755000Y-97195000D02*
X137755000Y-97495000D01*
X136755000Y-94195000D02*
X136480000Y-94195000D01*
X137755000Y-97270000D02*
X137755000Y-97145000D01*
X137380000Y-94195000D02*
X137755000Y-94195000D01*
X136480000Y-94195000D02*
X136105000Y-94470000D01*
X136105000Y-94470000D02*
X136105000Y-94520000D01*
X136105000Y-97495000D02*
X136105000Y-97145000D01*
X137755000Y-97495000D02*
X137305000Y-97495000D01*
X136580000Y-97495000D02*
X136105000Y-97495000D01*
X137755000Y-94195000D02*
X137755000Y-94495000D01*
D11*
X160095000Y-55660000D02*
X160095000Y-59560000D01*
X158095000Y-55660000D02*
X158095000Y-59560000D01*
X160095000Y-55660000D02*
X158095000Y-55660000D01*
X63516500Y-105570258D02*
X63516500Y-105095742D01*
X64561500Y-105570258D02*
X64561500Y-105095742D01*
X157219000Y-88815000D02*
X153319000Y-88815000D01*
X157219000Y-90815000D02*
X157219000Y-88815000D01*
X157219000Y-90815000D02*
X153319000Y-90815000D01*
X83804000Y-97759420D02*
X83804000Y-98040580D01*
X82784000Y-97759420D02*
X82784000Y-98040580D01*
X137188748Y-73440000D02*
X138611252Y-73440000D01*
X137188748Y-75260000D02*
X138611252Y-75260000D01*
X117180000Y-85540320D02*
X117180000Y-85821480D01*
X116160000Y-85540320D02*
X116160000Y-85821480D01*
X157150000Y-84019420D02*
X157150000Y-84300580D01*
X156130000Y-84019420D02*
X156130000Y-84300580D01*
X117380000Y-60510320D02*
X117380000Y-60791480D01*
X116360000Y-60510320D02*
X116360000Y-60791480D01*
X100243000Y-70449000D02*
X103843000Y-70449000D01*
X100243000Y-76449000D02*
X100243000Y-70449000D01*
X103843000Y-76449000D02*
X100243000Y-76449000D01*
X103843000Y-70449000D02*
X103843000Y-76449000D01*
X86744500Y-101137258D02*
X86744500Y-100662742D01*
X85699500Y-101137258D02*
X85699500Y-100662742D01*
X155640000Y-45600000D02*
X151740000Y-45600000D01*
X155640000Y-47600000D02*
X151740000Y-47600000D01*
X155640000Y-47600000D02*
X155640000Y-45600000D01*
X146692164Y-64935000D02*
X146907836Y-64935000D01*
X146692164Y-64215000D02*
X146907836Y-64215000D01*
X153509420Y-73870000D02*
X153790580Y-73870000D01*
X153509420Y-72850000D02*
X153790580Y-72850000D01*
X101936420Y-106878000D02*
X102217580Y-106878000D01*
X101936420Y-107898000D02*
X102217580Y-107898000D01*
X158095000Y-50479000D02*
X160095000Y-50479000D01*
X160095000Y-50479000D02*
X160095000Y-46579000D01*
X158095000Y-50479000D02*
X158095000Y-46579000D01*
X159800000Y-67160000D02*
X159800000Y-71060000D01*
X157800000Y-67160000D02*
X157800000Y-71060000D01*
X159800000Y-67160000D02*
X157800000Y-67160000D01*
X98900000Y-53650000D02*
X98900000Y-51950000D01*
X98900000Y-51950000D02*
X96350000Y-51950000D01*
X98900000Y-53650000D02*
X96350000Y-53650000D01*
X93750000Y-55890580D02*
X93750000Y-55609420D01*
X94770000Y-55890580D02*
X94770000Y-55609420D01*
X104360000Y-82525000D02*
X104360000Y-85075000D01*
X106060000Y-82525000D02*
X104360000Y-82525000D01*
X106060000Y-82525000D02*
X106060000Y-85075000D01*
X152721000Y-88185000D02*
X156621000Y-88185000D01*
X152721000Y-86185000D02*
X156621000Y-86185000D01*
X152721000Y-86185000D02*
X152721000Y-88185000D01*
X91936000Y-97033420D02*
X91936000Y-97314580D01*
X90916000Y-97033420D02*
X90916000Y-97314580D01*
X65070000Y-106800000D02*
X66540000Y-106800000D01*
X65070000Y-104515000D02*
X65070000Y-106800000D01*
X66540000Y-106800000D02*
X66540000Y-104515000D01*
X146420000Y-73735500D02*
X146420000Y-67845500D01*
X141280000Y-74190500D02*
X141280000Y-67845500D01*
X139555000Y-67580000D02*
X133665000Y-67580000D01*
X140010000Y-72720000D02*
X133665000Y-72720000D01*
X97279641Y-85382000D02*
X96972359Y-85382000D01*
X97279641Y-84622000D02*
X96972359Y-84622000D01*
X94925420Y-90254000D02*
X95206580Y-90254000D01*
X94925420Y-91274000D02*
X95206580Y-91274000D01*
X62970000Y-82460000D02*
X63570000Y-82460000D01*
X67460000Y-79370000D02*
X67990000Y-79120000D01*
X64000000Y-85870000D02*
X68000000Y-85870000D01*
X67990000Y-79120000D02*
X68990000Y-79120000D01*
X62970000Y-85000000D02*
X63570000Y-85000000D01*
X68990000Y-77740000D02*
X62970000Y-77740000D01*
X68990000Y-85580000D02*
X68990000Y-77740000D01*
X63570000Y-78320000D02*
X62970000Y-78320000D01*
X67990000Y-84200000D02*
X67990000Y-79120000D01*
X68990000Y-79370000D02*
X67990000Y-79370000D01*
X63570000Y-80860000D02*
X62970000Y-80860000D01*
X68990000Y-83950000D02*
X67990000Y-83950000D01*
X62970000Y-79920000D02*
X63570000Y-79920000D01*
X67460000Y-83950000D02*
X67460000Y-79370000D01*
X63570000Y-85000000D02*
X63570000Y-83400000D01*
X63570000Y-79920000D02*
X63570000Y-78320000D01*
X62970000Y-85580000D02*
X68990000Y-85580000D01*
X63570000Y-82460000D02*
X63570000Y-80860000D01*
X62970000Y-77740000D02*
X62970000Y-85580000D01*
X67990000Y-84200000D02*
X67460000Y-83950000D01*
X68990000Y-84200000D02*
X67990000Y-84200000D01*
X63570000Y-83400000D02*
X62970000Y-83400000D01*
X81422500Y-40562742D02*
X81422500Y-41037258D01*
X80377500Y-40562742D02*
X80377500Y-41037258D01*
X112037258Y-95977500D02*
X111562742Y-95977500D01*
X112037258Y-97022500D02*
X111562742Y-97022500D01*
X148842164Y-55670000D02*
X149057836Y-55670000D01*
X148842164Y-56390000D02*
X149057836Y-56390000D01*
X78740580Y-45498000D02*
X78459420Y-45498000D01*
X78740580Y-44478000D02*
X78459420Y-44478000D01*
X106400000Y-43100000D02*
X106400000Y-40000000D01*
X109200000Y-43100000D02*
X109200000Y-40100000D01*
X107550000Y-43550000D02*
X106475000Y-43550000D01*
X149122164Y-84290000D02*
X149337836Y-84290000D01*
X149122164Y-85010000D02*
X149337836Y-85010000D01*
X147070000Y-80420000D02*
X147070000Y-78470000D01*
X152190000Y-80420000D02*
X152190000Y-82370000D01*
X152190000Y-80420000D02*
X152190000Y-76970000D01*
X147070000Y-80420000D02*
X147070000Y-82370000D01*
X89628300Y-54064000D02*
X88828300Y-54064000D01*
X89628300Y-54064000D02*
X90428300Y-54064000D01*
X89628300Y-57184000D02*
X91428300Y-57184000D01*
X89628300Y-57184000D02*
X88828300Y-57184000D01*
X97972000Y-82894580D02*
X97972000Y-82613420D01*
X96952000Y-82894580D02*
X96952000Y-82613420D01*
X155850000Y-54859420D02*
X155850000Y-55140580D01*
X156870000Y-54859420D02*
X156870000Y-55140580D01*
X71487258Y-77882500D02*
X71012742Y-77882500D01*
X71487258Y-76837500D02*
X71012742Y-76837500D01*
X94935420Y-92764000D02*
X95216580Y-92764000D01*
X94935420Y-91744000D02*
X95216580Y-91744000D01*
X106060000Y-74500000D02*
X104360000Y-74500000D01*
X104360000Y-74500000D02*
X104360000Y-77050000D01*
X106060000Y-74500000D02*
X106060000Y-77050000D01*
X106060000Y-70900000D02*
X104360000Y-70900000D01*
X104360000Y-70900000D02*
X104360000Y-73450000D01*
X106060000Y-70900000D02*
X106060000Y-73450000D01*
X107843500Y-56012742D02*
X107843500Y-56487258D01*
X106798500Y-56012742D02*
X106798500Y-56487258D01*
D12*
X160700000Y-111100000D02*
G75*
G03*
X160700000Y-111100000I-3350000J0D01*
G01*
D11*
X114035000Y-90419648D02*
X114035000Y-90942152D01*
X115505000Y-90419648D02*
X115505000Y-90942152D01*
X103529000Y-112324000D02*
X103529000Y-108324000D01*
X100229000Y-112324000D02*
X103529000Y-112324000D01*
X116050000Y-83900000D02*
X118050000Y-83900000D01*
X118050000Y-83900000D02*
X118050000Y-80000000D01*
X116050000Y-83900000D02*
X116050000Y-80000000D01*
X82637258Y-64277500D02*
X82162742Y-64277500D01*
X82637258Y-65322500D02*
X82162742Y-65322500D01*
X116260000Y-77340320D02*
X116260000Y-77621480D01*
X117280000Y-77340320D02*
X117280000Y-77621480D01*
X67842742Y-61067500D02*
X68317258Y-61067500D01*
X67842742Y-62112500D02*
X68317258Y-62112500D01*
X127305563Y-56810000D02*
X119850000Y-56810000D01*
X119850000Y-65330000D02*
X119850000Y-62580000D01*
X128370000Y-64265563D02*
X127305563Y-65330000D01*
X127305563Y-65330000D02*
X119850000Y-65330000D01*
X128370000Y-57874437D02*
X128370000Y-59560000D01*
X119850000Y-56810000D02*
X119850000Y-59560000D01*
X128370000Y-57874437D02*
X127305563Y-56810000D01*
X128370000Y-64265563D02*
X128370000Y-62580000D01*
X106060000Y-85800000D02*
X104360000Y-85800000D01*
X104360000Y-85800000D02*
X104360000Y-88350000D01*
X106060000Y-85800000D02*
X106060000Y-88350000D01*
X146380580Y-65330000D02*
X146099420Y-65330000D01*
X146380580Y-66350000D02*
X146099420Y-66350000D01*
X147872164Y-75220000D02*
X148087836Y-75220000D01*
X147872164Y-75940000D02*
X148087836Y-75940000D01*
X78740580Y-40547000D02*
X78459420Y-40547000D01*
X78740580Y-39527000D02*
X78459420Y-39527000D01*
X160200000Y-94550000D02*
X160200000Y-95150000D01*
X157400000Y-95150000D02*
X157400000Y-94550000D01*
X159500000Y-95850000D02*
X158100000Y-95850000D01*
X158100000Y-93850000D02*
X159500000Y-93850000D01*
X158100000Y-93850000D02*
G75*
G03*
X157400000Y-94550000I-1J-699999D01*
G01*
X159500000Y-95850000D02*
G75*
G03*
X160200000Y-95150000I1J699999D01*
G01*
X160200000Y-94550000D02*
G75*
G03*
X159500000Y-93850000I-699999J1D01*
G01*
X157400000Y-95150000D02*
G75*
G03*
X158100000Y-95850000I699999J-1D01*
G01*
X82370000Y-42232064D02*
X82370000Y-40777936D01*
X84190000Y-42232064D02*
X84190000Y-40777936D01*
X79706580Y-94384000D02*
X79425420Y-94384000D01*
X79706580Y-93364000D02*
X79425420Y-93364000D01*
X74215420Y-87994000D02*
X74496580Y-87994000D01*
X74215420Y-86974000D02*
X74496580Y-86974000D01*
X93485420Y-93764000D02*
X93766580Y-93764000D01*
X93485420Y-94784000D02*
X93766580Y-94784000D01*
X153809420Y-54760000D02*
X154090580Y-54760000D01*
X153809420Y-53740000D02*
X154090580Y-53740000D01*
X106060000Y-79050000D02*
X104360000Y-79050000D01*
X104360000Y-79050000D02*
X104360000Y-81600000D01*
X106060000Y-79050000D02*
X106060000Y-81600000D01*
X136938748Y-64160000D02*
X138361252Y-64160000D01*
X136938748Y-62340000D02*
X138361252Y-62340000D01*
X113729648Y-52685000D02*
X114252152Y-52685000D01*
X113729648Y-51215000D02*
X114252152Y-51215000D01*
X118350000Y-66870000D02*
X118350000Y-62970000D01*
X116350000Y-66870000D02*
X116350000Y-62970000D01*
X116350000Y-66870000D02*
X118350000Y-66870000D01*
X113709420Y-101870000D02*
X113990580Y-101870000D01*
X113709420Y-100850000D02*
X113990580Y-100850000D01*
X93066252Y-48255000D02*
X92543748Y-48255000D01*
X93066252Y-46785000D02*
X92543748Y-46785000D01*
X121187500Y-95897258D02*
X121187500Y-95422742D01*
X120142500Y-95897258D02*
X120142500Y-95422742D01*
X155371000Y-62755000D02*
X155371000Y-64755000D01*
X155371000Y-64755000D02*
X159271000Y-64755000D01*
X155371000Y-62755000D02*
X159271000Y-62755000D01*
X81412000Y-44340580D02*
X81412000Y-44059420D01*
X80392000Y-44340580D02*
X80392000Y-44059420D01*
X98562000Y-84232000D02*
X98562000Y-86957000D01*
X104012000Y-86957000D02*
X103752000Y-86957000D01*
X98562000Y-81507000D02*
X98822000Y-81507000D01*
X98562000Y-86957000D02*
X98822000Y-86957000D01*
X103752000Y-81507000D02*
X103752000Y-79832000D01*
X104012000Y-81507000D02*
X103752000Y-81507000D01*
X104012000Y-84232000D02*
X104012000Y-81507000D01*
X98562000Y-84232000D02*
X98562000Y-81507000D01*
X104012000Y-84232000D02*
X104012000Y-86957000D01*
X80322742Y-103057500D02*
X80797258Y-103057500D01*
X80322742Y-104102500D02*
X80797258Y-104102500D01*
X86152500Y-44372258D02*
X86152500Y-43897742D01*
X85107500Y-44372258D02*
X85107500Y-43897742D01*
X62745000Y-50938000D02*
X63015000Y-50938000D01*
X62745000Y-52438000D02*
X62745000Y-50938000D01*
X69645000Y-52438000D02*
X69645000Y-50938000D01*
X63015000Y-50938000D02*
X63015000Y-49838000D01*
X69645000Y-50938000D02*
X69375000Y-50938000D01*
X69375000Y-50938000D02*
X69375000Y-48108000D01*
X116410000Y-68880320D02*
X116410000Y-69161480D01*
X117430000Y-68880320D02*
X117430000Y-69161480D01*
X86065500Y-63052742D02*
X86065500Y-63527258D01*
X87110500Y-63052742D02*
X87110500Y-63527258D01*
X83119420Y-45300000D02*
X83400580Y-45300000D01*
X83119420Y-44280000D02*
X83400580Y-44280000D01*
X79730000Y-111970000D02*
X79730000Y-110050000D01*
X79730000Y-115685000D02*
X70570000Y-115685000D01*
X70570000Y-115685000D02*
X70570000Y-113980000D01*
X70570000Y-110050000D02*
X70570000Y-111970000D01*
X79730000Y-113980000D02*
X79730000Y-115685000D01*
X79273258Y-90151500D02*
X78798742Y-90151500D01*
X79273258Y-91196500D02*
X78798742Y-91196500D01*
X62970000Y-97220000D02*
X63570000Y-97220000D01*
X68990000Y-102880000D02*
X68990000Y-95040000D01*
X62970000Y-99760000D02*
X63570000Y-99760000D01*
X68990000Y-95040000D02*
X62970000Y-95040000D01*
X68990000Y-96670000D02*
X67990000Y-96670000D01*
X64000000Y-103170000D02*
X68000000Y-103170000D01*
X63570000Y-102300000D02*
X63570000Y-100700000D01*
X62970000Y-102300000D02*
X63570000Y-102300000D01*
X67990000Y-96420000D02*
X68990000Y-96420000D01*
X67990000Y-101500000D02*
X67990000Y-96420000D01*
X68990000Y-101500000D02*
X67990000Y-101500000D01*
X63570000Y-98160000D02*
X62970000Y-98160000D01*
X62970000Y-102880000D02*
X68990000Y-102880000D01*
X62970000Y-95040000D02*
X62970000Y-102880000D01*
X63570000Y-97220000D02*
X63570000Y-95620000D01*
X67460000Y-96670000D02*
X67990000Y-96420000D01*
X63570000Y-99760000D02*
X63570000Y-98160000D01*
X63570000Y-100700000D02*
X62970000Y-100700000D01*
X67460000Y-101250000D02*
X67460000Y-96670000D01*
X68990000Y-101250000D02*
X67990000Y-101250000D01*
X63570000Y-95620000D02*
X62970000Y-95620000D01*
X67990000Y-101500000D02*
X67460000Y-101250000D01*
X140047258Y-66032500D02*
X139572742Y-66032500D01*
X140047258Y-64987500D02*
X139572742Y-64987500D01*
G36*
X82631806Y-67504602D02*
G01*
X82636260Y-67507936D01*
X82645748Y-67510000D01*
X82665285Y-67510000D01*
X82733406Y-67530002D01*
X82737860Y-67533336D01*
X82760583Y-67538279D01*
X82760025Y-67540844D01*
X82809606Y-67555402D01*
X82815123Y-67559532D01*
X82863827Y-67583911D01*
X82887583Y-67589079D01*
X82887025Y-67591644D01*
X82936606Y-67606202D01*
X82948084Y-67614795D01*
X82990634Y-67636094D01*
X83021180Y-67662562D01*
X83072059Y-67688030D01*
X83076023Y-67691464D01*
X83117634Y-67712294D01*
X83152220Y-67742263D01*
X83193834Y-67763093D01*
X83216979Y-67783148D01*
X83221896Y-67790800D01*
X83253822Y-67818464D01*
X83295434Y-67839293D01*
X83318579Y-67859348D01*
X83323496Y-67867000D01*
X83355422Y-67894664D01*
X83397034Y-67915493D01*
X83420179Y-67935548D01*
X83425097Y-67943202D01*
X83445578Y-67960948D01*
X83450495Y-67968600D01*
X83470978Y-67986348D01*
X83475895Y-67994000D01*
X83496378Y-68011748D01*
X83501295Y-68019400D01*
X83521778Y-68037148D01*
X83526694Y-68044798D01*
X83552465Y-68067129D01*
X83560148Y-68068800D01*
X83579285Y-68068800D01*
X83599073Y-68062990D01*
X83616548Y-68042822D01*
X83624200Y-68037905D01*
X83641948Y-68017422D01*
X83649600Y-68012505D01*
X83667348Y-67992022D01*
X83675000Y-67987105D01*
X83692748Y-67966622D01*
X83700400Y-67961705D01*
X83718148Y-67941222D01*
X83725799Y-67936306D01*
X83734881Y-67925824D01*
X83794606Y-67887441D01*
X83802273Y-67885190D01*
X83819748Y-67865022D01*
X83827400Y-67860105D01*
X83845148Y-67839622D01*
X83852799Y-67834706D01*
X83861881Y-67824224D01*
X83921606Y-67785841D01*
X83929272Y-67783590D01*
X83938081Y-67773424D01*
X83997806Y-67735041D01*
X84005472Y-67732790D01*
X84014281Y-67722624D01*
X84074006Y-67684241D01*
X84081672Y-67681990D01*
X84090481Y-67671824D01*
X84150206Y-67633441D01*
X84170970Y-67627344D01*
X84201006Y-67608041D01*
X84232766Y-67598715D01*
X84244295Y-67591305D01*
X84250965Y-67590346D01*
X84297970Y-67576544D01*
X84328006Y-67557241D01*
X84359766Y-67547915D01*
X84371295Y-67540505D01*
X84377965Y-67539546D01*
X84435965Y-67522516D01*
X84447495Y-67515105D01*
X84482998Y-67510000D01*
X84493685Y-67510000D01*
X84537565Y-67497116D01*
X84549095Y-67489705D01*
X84584598Y-67484600D01*
X84951285Y-67484600D01*
X85019406Y-67504602D01*
X85023860Y-67507936D01*
X85033348Y-67510000D01*
X85078285Y-67510000D01*
X85146406Y-67530002D01*
X85150860Y-67533336D01*
X85173583Y-67538279D01*
X85173025Y-67540844D01*
X85222606Y-67555402D01*
X85227060Y-67558736D01*
X85249783Y-67563679D01*
X85249225Y-67566244D01*
X85298806Y-67580802D01*
X85304323Y-67584932D01*
X85353031Y-67609313D01*
X85353131Y-67609335D01*
X85403831Y-67634713D01*
X85403931Y-67634735D01*
X85454631Y-67660113D01*
X85454731Y-67660135D01*
X85510459Y-67688030D01*
X85514422Y-67691464D01*
X85556034Y-67712293D01*
X85579179Y-67732348D01*
X85584097Y-67740002D01*
X85604578Y-67757748D01*
X85609495Y-67765400D01*
X85629978Y-67783148D01*
X85634896Y-67790800D01*
X85679443Y-67829401D01*
X85689278Y-67844705D01*
X85706178Y-67859348D01*
X85711095Y-67867000D01*
X85731578Y-67884748D01*
X85736495Y-67892400D01*
X85756978Y-67910148D01*
X85761894Y-67917799D01*
X85772376Y-67926881D01*
X85810759Y-67986606D01*
X85813010Y-67994272D01*
X85823176Y-68003081D01*
X85861559Y-68062806D01*
X85867656Y-68083570D01*
X85886959Y-68113606D01*
X85893056Y-68134370D01*
X85912359Y-68164406D01*
X85918456Y-68185170D01*
X85937759Y-68215206D01*
X85947085Y-68246966D01*
X85954495Y-68258495D01*
X85955454Y-68265165D01*
X85972484Y-68323165D01*
X85979895Y-68334695D01*
X85985000Y-68370198D01*
X85985000Y-68406285D01*
X85997884Y-68450165D01*
X86005295Y-68461695D01*
X86010400Y-68497198D01*
X86010400Y-68584085D01*
X86023284Y-68627965D01*
X86030695Y-68639495D01*
X86035800Y-68674998D01*
X86035800Y-68813085D01*
X86015798Y-68881206D01*
X86012464Y-68885660D01*
X86010400Y-68895148D01*
X86010400Y-68965485D01*
X85990398Y-69033606D01*
X85987064Y-69038060D01*
X85985000Y-69047548D01*
X85985000Y-69067085D01*
X85964998Y-69135206D01*
X85961664Y-69139660D01*
X85956721Y-69162383D01*
X85954156Y-69161825D01*
X85939598Y-69211406D01*
X85936264Y-69215860D01*
X85931321Y-69238583D01*
X85928756Y-69238025D01*
X85914198Y-69287606D01*
X85910068Y-69293123D01*
X85883170Y-69346859D01*
X85879736Y-69350823D01*
X85858906Y-69392434D01*
X85832438Y-69422980D01*
X85809487Y-69468831D01*
X85809465Y-69468931D01*
X85781570Y-69524659D01*
X85778136Y-69528622D01*
X85757307Y-69570234D01*
X85737252Y-69593379D01*
X85729600Y-69598296D01*
X85701936Y-69630222D01*
X85681107Y-69671834D01*
X85661052Y-69694979D01*
X85653400Y-69699896D01*
X85625736Y-69731822D01*
X85604907Y-69773434D01*
X85584852Y-69796579D01*
X85577198Y-69801497D01*
X85559452Y-69821978D01*
X85551800Y-69826895D01*
X85534052Y-69847378D01*
X85526400Y-69852295D01*
X85508652Y-69872778D01*
X85501000Y-69877695D01*
X85483252Y-69898178D01*
X85475602Y-69903094D01*
X85447936Y-69935022D01*
X85427106Y-69976636D01*
X85415719Y-69989777D01*
X85355994Y-70028159D01*
X85348327Y-70030410D01*
X85330852Y-70050578D01*
X85323200Y-70055495D01*
X85305452Y-70075978D01*
X85297800Y-70080895D01*
X85280052Y-70101378D01*
X85272400Y-70106295D01*
X85254652Y-70126778D01*
X85247000Y-70131695D01*
X85229252Y-70152178D01*
X85221600Y-70157095D01*
X85203852Y-70177578D01*
X85196200Y-70182495D01*
X85178452Y-70202978D01*
X85170800Y-70207895D01*
X85153052Y-70228378D01*
X85145400Y-70233295D01*
X85127652Y-70253778D01*
X85120000Y-70258695D01*
X85102252Y-70279178D01*
X85094600Y-70284095D01*
X85076852Y-70304578D01*
X85069200Y-70309495D01*
X85051452Y-70329978D01*
X85043800Y-70334895D01*
X85026052Y-70355378D01*
X85018400Y-70360295D01*
X85000652Y-70380778D01*
X84993000Y-70385695D01*
X84975252Y-70406178D01*
X84967600Y-70411095D01*
X84949852Y-70431578D01*
X84942200Y-70436495D01*
X84924452Y-70456978D01*
X84916800Y-70461895D01*
X84899052Y-70482378D01*
X84891400Y-70487295D01*
X84873652Y-70507778D01*
X84866000Y-70512695D01*
X84848252Y-70533178D01*
X84840600Y-70538095D01*
X84822852Y-70558578D01*
X84815200Y-70563495D01*
X84797452Y-70583978D01*
X84789800Y-70588895D01*
X84772052Y-70609378D01*
X84764401Y-70614294D01*
X84755319Y-70624776D01*
X84695594Y-70663159D01*
X84687927Y-70665410D01*
X84670452Y-70685578D01*
X84662800Y-70690495D01*
X84645052Y-70710978D01*
X84637400Y-70715895D01*
X84619652Y-70736378D01*
X84612000Y-70741295D01*
X84594252Y-70761778D01*
X84586600Y-70766695D01*
X84568852Y-70787178D01*
X84561200Y-70792095D01*
X84543452Y-70812578D01*
X84535800Y-70817495D01*
X84518052Y-70837978D01*
X84510400Y-70842895D01*
X84492652Y-70863378D01*
X84485000Y-70868295D01*
X84467252Y-70888778D01*
X84459600Y-70893695D01*
X84441852Y-70914178D01*
X84434200Y-70919095D01*
X84416452Y-70939578D01*
X84408800Y-70944495D01*
X84391052Y-70964978D01*
X84383400Y-70969895D01*
X84365652Y-70990378D01*
X84358000Y-70995295D01*
X84340252Y-71015778D01*
X84332600Y-71020695D01*
X84314852Y-71041178D01*
X84307200Y-71046095D01*
X84289452Y-71066578D01*
X84281800Y-71071495D01*
X84264052Y-71091978D01*
X84256400Y-71096895D01*
X84238652Y-71117378D01*
X84231000Y-71122295D01*
X84213252Y-71142778D01*
X84205600Y-71147695D01*
X84187852Y-71168178D01*
X84180200Y-71173095D01*
X84162452Y-71193578D01*
X84154800Y-71198495D01*
X84137052Y-71218978D01*
X84129400Y-71223895D01*
X84111652Y-71244378D01*
X84104000Y-71249295D01*
X84086252Y-71269778D01*
X84078601Y-71274694D01*
X84069519Y-71285176D01*
X84009794Y-71323559D01*
X84002127Y-71325810D01*
X83984652Y-71345978D01*
X83977000Y-71350895D01*
X83959252Y-71371378D01*
X83951600Y-71376295D01*
X83933852Y-71396778D01*
X83926200Y-71401695D01*
X83908452Y-71422178D01*
X83900800Y-71427095D01*
X83883052Y-71447578D01*
X83875400Y-71452495D01*
X83857652Y-71472978D01*
X83850000Y-71477895D01*
X83832252Y-71498378D01*
X83824600Y-71503295D01*
X83806852Y-71523778D01*
X83799200Y-71528695D01*
X83781452Y-71549178D01*
X83773800Y-71554095D01*
X83756052Y-71574578D01*
X83748400Y-71579495D01*
X83730652Y-71599978D01*
X83723000Y-71604895D01*
X83705252Y-71625378D01*
X83697601Y-71630294D01*
X83688519Y-71640776D01*
X83628793Y-71679159D01*
X83611693Y-71684180D01*
X83540697Y-71684180D01*
X83536459Y-71681866D01*
X83523296Y-71679003D01*
X83467566Y-71651107D01*
X83444421Y-71631052D01*
X83439503Y-71623398D01*
X83419022Y-71605652D01*
X83414105Y-71598000D01*
X83393622Y-71580252D01*
X83388705Y-71572600D01*
X83368222Y-71554852D01*
X83363305Y-71547200D01*
X83342822Y-71529452D01*
X83337905Y-71521800D01*
X83317422Y-71504052D01*
X83312505Y-71496400D01*
X83292022Y-71478652D01*
X83287105Y-71471000D01*
X83266622Y-71453252D01*
X83261705Y-71445600D01*
X83241222Y-71427852D01*
X83236305Y-71420200D01*
X83215822Y-71402452D01*
X83210905Y-71394800D01*
X83190422Y-71377052D01*
X83185505Y-71369400D01*
X83165022Y-71351652D01*
X83160105Y-71344000D01*
X83139622Y-71326252D01*
X83134706Y-71318602D01*
X83102778Y-71290936D01*
X83061166Y-71270107D01*
X83038021Y-71250052D01*
X83033103Y-71242398D01*
X83012622Y-71224652D01*
X83007705Y-71217000D01*
X82987222Y-71199252D01*
X82982305Y-71191600D01*
X82961822Y-71173852D01*
X82956905Y-71166200D01*
X82936422Y-71148452D01*
X82931505Y-71140800D01*
X82911022Y-71123052D01*
X82906105Y-71115400D01*
X82885622Y-71097652D01*
X82880705Y-71090000D01*
X82860222Y-71072252D01*
X82855305Y-71064600D01*
X82834822Y-71046852D01*
X82829905Y-71039200D01*
X82809422Y-71021452D01*
X82804505Y-71013800D01*
X82784022Y-70996052D01*
X82779105Y-70988400D01*
X82758622Y-70970652D01*
X82753705Y-70963000D01*
X82733222Y-70945252D01*
X82728305Y-70937600D01*
X82707822Y-70919852D01*
X82702905Y-70912200D01*
X82682422Y-70894452D01*
X82677505Y-70886800D01*
X82657022Y-70869052D01*
X82652105Y-70861400D01*
X82631622Y-70843652D01*
X82626705Y-70836000D01*
X82606222Y-70818252D01*
X82601305Y-70810600D01*
X82580822Y-70792852D01*
X82575905Y-70785200D01*
X82555422Y-70767452D01*
X82550505Y-70759800D01*
X82530022Y-70742052D01*
X82525105Y-70734400D01*
X82504622Y-70716652D01*
X82499705Y-70709000D01*
X82479222Y-70691252D01*
X82474306Y-70683602D01*
X82442378Y-70655936D01*
X82400766Y-70635107D01*
X82377621Y-70615052D01*
X82372703Y-70607398D01*
X82352222Y-70589652D01*
X82347305Y-70582000D01*
X82326822Y-70564252D01*
X82321905Y-70556600D01*
X82301422Y-70538852D01*
X82296505Y-70531200D01*
X82276022Y-70513452D01*
X82271105Y-70505800D01*
X82250622Y-70488052D01*
X82245705Y-70480400D01*
X82225222Y-70462652D01*
X82220305Y-70455000D01*
X82199822Y-70437252D01*
X82194905Y-70429600D01*
X82174422Y-70411852D01*
X82169505Y-70404200D01*
X82149022Y-70386452D01*
X82144105Y-70378800D01*
X82123622Y-70361052D01*
X82118705Y-70353400D01*
X82098222Y-70335652D01*
X82093305Y-70328000D01*
X82072822Y-70310252D01*
X82067905Y-70302600D01*
X82047422Y-70284852D01*
X82042505Y-70277200D01*
X82022022Y-70259452D01*
X82017105Y-70251800D01*
X81996622Y-70234052D01*
X81991705Y-70226400D01*
X81971222Y-70208652D01*
X81966305Y-70201000D01*
X81945822Y-70183252D01*
X81940905Y-70175600D01*
X81920422Y-70157852D01*
X81915505Y-70150200D01*
X81895022Y-70132452D01*
X81890105Y-70124800D01*
X81869622Y-70107052D01*
X81864705Y-70099400D01*
X81844222Y-70081652D01*
X81839305Y-70074000D01*
X81818822Y-70056252D01*
X81813904Y-70048600D01*
X81769357Y-70009999D01*
X81759523Y-69994697D01*
X81731178Y-69970136D01*
X81689564Y-69949306D01*
X81676423Y-69937919D01*
X81638041Y-69878194D01*
X81635790Y-69870527D01*
X81615622Y-69853052D01*
X81610705Y-69845400D01*
X81590222Y-69827652D01*
X81585305Y-69820000D01*
X81564822Y-69802252D01*
X81559906Y-69794601D01*
X81549424Y-69785519D01*
X81511041Y-69725794D01*
X81508790Y-69718127D01*
X81488622Y-69700652D01*
X81483706Y-69693001D01*
X81473224Y-69683919D01*
X81434841Y-69624194D01*
X81432590Y-69616527D01*
X81412422Y-69599052D01*
X81407506Y-69591401D01*
X81397024Y-69582319D01*
X81358641Y-69522594D01*
X81352544Y-69501830D01*
X81333241Y-69471794D01*
X81327144Y-69451030D01*
X81307841Y-69420994D01*
X81305590Y-69413328D01*
X81295424Y-69404519D01*
X81257041Y-69344794D01*
X81247715Y-69313034D01*
X81240305Y-69301505D01*
X81239346Y-69294835D01*
X81225544Y-69247830D01*
X81206241Y-69217794D01*
X81196915Y-69186034D01*
X81189505Y-69174505D01*
X81188546Y-69167835D01*
X81171516Y-69109835D01*
X81164105Y-69098305D01*
X81163146Y-69091635D01*
X81146116Y-69033635D01*
X81138705Y-69022105D01*
X81133600Y-68986602D01*
X81133600Y-68950515D01*
X81120716Y-68906635D01*
X81113305Y-68895105D01*
X81108200Y-68859602D01*
X81108200Y-68619915D01*
X81128202Y-68551794D01*
X81131536Y-68547340D01*
X81133600Y-68537852D01*
X81133600Y-68467515D01*
X81153602Y-68399394D01*
X81156936Y-68394940D01*
X81159000Y-68385452D01*
X81159000Y-68365915D01*
X81179002Y-68297794D01*
X81182336Y-68293340D01*
X81187279Y-68270617D01*
X81189844Y-68271175D01*
X81204402Y-68221594D01*
X81208532Y-68216077D01*
X81232913Y-68167369D01*
X81232935Y-68167269D01*
X81258313Y-68116569D01*
X81258335Y-68116469D01*
X81286230Y-68060741D01*
X81289664Y-68056777D01*
X81310494Y-68015166D01*
X81340463Y-67980580D01*
X81361293Y-67938966D01*
X81381348Y-67915821D01*
X81389002Y-67910903D01*
X81406748Y-67890422D01*
X81414398Y-67885506D01*
X81451529Y-67842655D01*
X81467132Y-67814081D01*
X81506914Y-67790477D01*
X81508348Y-67788822D01*
X81516000Y-67783905D01*
X81533748Y-67763422D01*
X81541400Y-67758505D01*
X81559148Y-67738022D01*
X81566799Y-67733106D01*
X81575881Y-67722624D01*
X81635606Y-67684241D01*
X81656370Y-67678144D01*
X81686406Y-67658841D01*
X81707170Y-67652744D01*
X81737206Y-67633441D01*
X81757970Y-67627344D01*
X81788006Y-67608041D01*
X81808770Y-67601944D01*
X81838806Y-67582641D01*
X81870566Y-67573315D01*
X81882095Y-67565905D01*
X81888765Y-67564946D01*
X81946765Y-67547916D01*
X81958295Y-67540505D01*
X81964965Y-67539546D01*
X82022965Y-67522516D01*
X82034495Y-67515105D01*
X82069998Y-67510000D01*
X82106085Y-67510000D01*
X82149965Y-67497116D01*
X82161495Y-67489705D01*
X82196998Y-67484600D01*
X82563685Y-67484600D01*
X82631806Y-67504602D01*
G37*
%LPC*%
D14*
X85540000Y-82790000D03*
X83990000Y-82790000D03*
D15*
X87990000Y-81660000D03*
X87990000Y-83210000D03*
D16*
X97500000Y-74450000D03*
X99050000Y-74450000D03*
D15*
X97430000Y-60130000D03*
X97430000Y-61680000D03*
D17*
X102045000Y-56810000D03*
X101025000Y-56810000D03*
D18*
X99370000Y-67840000D03*
X100640000Y-67840000D03*
X101910000Y-67840000D03*
X103180000Y-67840000D03*
X103180000Y-60640000D03*
X101910000Y-60640000D03*
X100640000Y-60640000D03*
X99370000Y-60640000D03*
D14*
X90080000Y-66550000D03*
X88530000Y-66550000D03*
D19*
X101840000Y-58090000D03*
X100190000Y-58090000D03*
D15*
X90440000Y-82810000D03*
X90440000Y-84360000D03*
D14*
X84130000Y-74700000D03*
X82580000Y-74700000D03*
D20*
X89759000Y-69640000D03*
X89759000Y-68090000D03*
D21*
X76012000Y-99772000D03*
X76012000Y-98122000D03*
D20*
X87840000Y-69640000D03*
X87840000Y-68090000D03*
D16*
X96100000Y-80300000D03*
X97650000Y-80300000D03*
D14*
X85480000Y-81200000D03*
X83930000Y-81200000D03*
D22*
X94227500Y-78750000D03*
X94227500Y-78350000D03*
X94227500Y-77950000D03*
X94227500Y-77550000D03*
X94227500Y-77150000D03*
X94227500Y-76750000D03*
X94227500Y-76350000D03*
X94227500Y-75950000D03*
X94227500Y-75550000D03*
X94227500Y-75150000D03*
X94227500Y-74750000D03*
X94227500Y-74350000D03*
X94227500Y-73950000D03*
X94227500Y-73550000D03*
D23*
X93390000Y-72712500D03*
X92990000Y-72712500D03*
X92590000Y-72712500D03*
X92190000Y-72712500D03*
X91790000Y-72712500D03*
X91390000Y-72712500D03*
X90990000Y-72712500D03*
X90590000Y-72712500D03*
X90190000Y-72712500D03*
X89790000Y-72712500D03*
X89390000Y-72712500D03*
X88990000Y-72712500D03*
X88590000Y-72712500D03*
X88190000Y-72712500D03*
D22*
X87352500Y-73550000D03*
X87352500Y-73950000D03*
X87352500Y-74350000D03*
X87352500Y-74750000D03*
X87352500Y-75150000D03*
X87352500Y-75550000D03*
X87352500Y-75950000D03*
X87352500Y-76350000D03*
X87352500Y-76750000D03*
X87352500Y-77150000D03*
X87352500Y-77550000D03*
X87352500Y-77950000D03*
X87352500Y-78350000D03*
X87352500Y-78750000D03*
D23*
X88190000Y-79587500D03*
X88590000Y-79587500D03*
X88990000Y-79587500D03*
X89390000Y-79587500D03*
X89790000Y-79587500D03*
X90190000Y-79587500D03*
X90590000Y-79587500D03*
X90990000Y-79587500D03*
X91390000Y-79587500D03*
X91790000Y-79587500D03*
X92190000Y-79587500D03*
X92590000Y-79587500D03*
X92990000Y-79587500D03*
X93390000Y-79587500D03*
D24*
X90790000Y-76150000D03*
D20*
X94550000Y-64500000D03*
X94550000Y-62950000D03*
D21*
X74412000Y-99772000D03*
X74412000Y-98122000D03*
D15*
X92040000Y-82910000D03*
X92040000Y-84460000D03*
D14*
X85480000Y-79550000D03*
X83930000Y-79550000D03*
D21*
X91740000Y-69360000D03*
X91740000Y-67710000D03*
D25*
X79909500Y-96231000D03*
X78034500Y-96231000D03*
D16*
X113465900Y-44580000D03*
X115015900Y-44580000D03*
D26*
X111740900Y-74280000D03*
X113640900Y-74280000D03*
D19*
X124075000Y-96780000D03*
X122425000Y-96780000D03*
D15*
X94736000Y-96389000D03*
X94736000Y-97939000D03*
D27*
X90055000Y-47375000D03*
X88785000Y-47375000D03*
X87515000Y-47375000D03*
X86245000Y-47375000D03*
X86245000Y-52325000D03*
X87515000Y-52325000D03*
X88785000Y-52325000D03*
X90055000Y-52325000D03*
D28*
X88150000Y-49850000D03*
D29*
X117150000Y-74950000D03*
X117150000Y-71650000D03*
D30*
X127360000Y-88150000D03*
X120860000Y-88150000D03*
D31*
X107100000Y-83300000D03*
X107100000Y-84950000D03*
D32*
X95565000Y-42920000D03*
X100965000Y-42920000D03*
D33*
X153345000Y-84900000D03*
X154995000Y-84900000D03*
D19*
X143675000Y-65500000D03*
X142025000Y-65500000D03*
D34*
X86550000Y-59550000D03*
X93950000Y-59550000D03*
D35*
X101300000Y-103250000D03*
D14*
X154475000Y-64750000D03*
X152925000Y-64750000D03*
D29*
X80564000Y-98380000D03*
X80564000Y-101680000D03*
D36*
X135675000Y-46150000D03*
X138625000Y-46150000D03*
D37*
X143565000Y-90770000D03*
X142295000Y-90770000D03*
X144835000Y-90770000D03*
X146105000Y-90770000D03*
D38*
X144835000Y-85305000D03*
X143565000Y-85305000D03*
D39*
X144200000Y-87410000D03*
D38*
X142295000Y-85305000D03*
X146105000Y-85305000D03*
D26*
X144400000Y-95100000D03*
X146300000Y-95100000D03*
D27*
X151585000Y-49345000D03*
X150315000Y-49345000D03*
X149045000Y-49345000D03*
X147775000Y-49345000D03*
X147775000Y-54295000D03*
X149045000Y-54295000D03*
X150315000Y-54295000D03*
X151585000Y-54295000D03*
D14*
X79199000Y-67958000D03*
X77649000Y-67958000D03*
D40*
X89306000Y-87896500D03*
X88906000Y-87896500D03*
X88506000Y-87896500D03*
X88106000Y-87896500D03*
X87706000Y-87896500D03*
X87306000Y-87896500D03*
X86906000Y-87896500D03*
X86506000Y-87896500D03*
X86106000Y-87896500D03*
X85706000Y-87896500D03*
X85306000Y-87896500D03*
X84906000Y-87896500D03*
X84506000Y-87896500D03*
X84106000Y-87896500D03*
D41*
X83268500Y-88734000D03*
X83268500Y-89134000D03*
X83268500Y-89534000D03*
X83268500Y-89934000D03*
X83268500Y-90334000D03*
X83268500Y-90734000D03*
X83268500Y-91134000D03*
X83268500Y-91534000D03*
X83268500Y-91934000D03*
X83268500Y-92334000D03*
X83268500Y-92734000D03*
X83268500Y-93134000D03*
X83268500Y-93534000D03*
X83268500Y-93934000D03*
D40*
X84106000Y-94771500D03*
X84506000Y-94771500D03*
X84906000Y-94771500D03*
X85306000Y-94771500D03*
X85706000Y-94771500D03*
X86106000Y-94771500D03*
X86506000Y-94771500D03*
X86906000Y-94771500D03*
X87306000Y-94771500D03*
X87706000Y-94771500D03*
X88106000Y-94771500D03*
X88506000Y-94771500D03*
X88906000Y-94771500D03*
X89306000Y-94771500D03*
D41*
X90143500Y-93934000D03*
X90143500Y-93534000D03*
X90143500Y-93134000D03*
X90143500Y-92734000D03*
X90143500Y-92334000D03*
X90143500Y-91934000D03*
X90143500Y-91534000D03*
X90143500Y-91134000D03*
X90143500Y-90734000D03*
X90143500Y-90334000D03*
X90143500Y-89934000D03*
X90143500Y-89534000D03*
X90143500Y-89134000D03*
X90143500Y-88734000D03*
D42*
X86706000Y-91334000D03*
D43*
X112862500Y-99600000D03*
X114737500Y-99600000D03*
D19*
X79425000Y-41700000D03*
X77775000Y-41700000D03*
D44*
X65700000Y-42450000D03*
D15*
X116970000Y-51825900D03*
X116970000Y-53375900D03*
D45*
X150300000Y-46600000D03*
X147000000Y-46600000D03*
D46*
X63486000Y-59750000D03*
X63486000Y-61650000D03*
D19*
X79425000Y-43390000D03*
X77775000Y-43390000D03*
D33*
X67449000Y-106694000D03*
X69099000Y-106694000D03*
D37*
X142865000Y-45649500D03*
X141595000Y-45649500D03*
X144135000Y-45649500D03*
X145405000Y-45649500D03*
D38*
X144135000Y-40184500D03*
X141595000Y-40184500D03*
X145405000Y-40184500D03*
X142865000Y-40184500D03*
D39*
X143500000Y-42289500D03*
D47*
X73200000Y-73350000D03*
D48*
X73200000Y-70810000D03*
X73200000Y-68270000D03*
D31*
X107269000Y-66990000D03*
X107269000Y-68640000D03*
X107179000Y-48410000D03*
X107179000Y-50060000D03*
D29*
X158725000Y-84869000D03*
X158725000Y-81569000D03*
D21*
X77846000Y-101039000D03*
X77846000Y-99389000D03*
D49*
X97395000Y-48400000D03*
X101395000Y-48400000D03*
D26*
X112130900Y-65600000D03*
X114030900Y-65600000D03*
D43*
X109477500Y-99600000D03*
X111352500Y-99600000D03*
D50*
X148950000Y-42250000D03*
D51*
X114334100Y-80655000D03*
X114334100Y-79385000D03*
X114334100Y-78115000D03*
X114334100Y-76845000D03*
X109384100Y-76845000D03*
X109384100Y-78115000D03*
X109384100Y-79385000D03*
X109384100Y-80655000D03*
D31*
X84574000Y-100092000D03*
X84574000Y-101742000D03*
D52*
X119750000Y-43900000D03*
D30*
X127360000Y-52120000D03*
X120860000Y-52120000D03*
D46*
X85610000Y-39945000D03*
X85610000Y-41845000D03*
D31*
X107179000Y-71590000D03*
X107179000Y-73240000D03*
D53*
X94725000Y-50300000D03*
X91775000Y-50300000D03*
D21*
X84788000Y-64115000D03*
X84788000Y-62465000D03*
D54*
X105410000Y-58145000D03*
X105410000Y-60245000D03*
D29*
X117150000Y-91850000D03*
X117150000Y-88550000D03*
D31*
X155700000Y-104475000D03*
X155700000Y-106125000D03*
D37*
X142045000Y-54340000D03*
X144585000Y-54340000D03*
X143315000Y-54340000D03*
X145855000Y-54340000D03*
D39*
X143950000Y-50980000D03*
D38*
X143315000Y-48875000D03*
X142045000Y-48875000D03*
X145855000Y-48875000D03*
X144585000Y-48875000D03*
D50*
X154850000Y-69750000D03*
D55*
X90105000Y-44545000D03*
X90105000Y-40695000D03*
D47*
X76450000Y-84610000D03*
D48*
X76450000Y-82070000D03*
X76450000Y-79530000D03*
X76450000Y-76990000D03*
D56*
X96475000Y-104747000D03*
D48*
X96475000Y-107287000D03*
X96475000Y-109827000D03*
X96475000Y-112367000D03*
D14*
X102817000Y-113297000D03*
X101267000Y-113297000D03*
D21*
X84630000Y-48420000D03*
X84630000Y-46770000D03*
D57*
X111482000Y-92302000D03*
D58*
X108942000Y-92302000D03*
X106402000Y-92302000D03*
X103862000Y-92302000D03*
X101322000Y-92302000D03*
X98782000Y-92302000D03*
D35*
X101300000Y-105350000D03*
D59*
X114000000Y-94950000D03*
X114000000Y-95600000D03*
X114000000Y-96250000D03*
X115900000Y-96250000D03*
X115900000Y-94950000D03*
D16*
X153375000Y-83150000D03*
X154925000Y-83150000D03*
D54*
X105410000Y-44820000D03*
X105410000Y-46920000D03*
D33*
X152835000Y-74900000D03*
X154485000Y-74900000D03*
D14*
X80251000Y-92174000D03*
X78701000Y-92174000D03*
D33*
X152885000Y-66240000D03*
X154535000Y-66240000D03*
D19*
X111425000Y-101350000D03*
X109775000Y-101350000D03*
D45*
X103270000Y-54800000D03*
X99970000Y-54800000D03*
D60*
X139280000Y-49685000D03*
X139280000Y-50955000D03*
X139280000Y-52225000D03*
X139280000Y-48415000D03*
D61*
X133815000Y-50955000D03*
X133815000Y-49685000D03*
D62*
X135920000Y-50320000D03*
D61*
X133815000Y-52225000D03*
X133815000Y-48415000D03*
D21*
X89534000Y-101672000D03*
X89534000Y-100022000D03*
D60*
X139530000Y-58165000D03*
X139530000Y-60705000D03*
X139530000Y-59435000D03*
X139530000Y-56895000D03*
D62*
X136170000Y-58800000D03*
D61*
X134065000Y-59435000D03*
X134065000Y-60705000D03*
X134065000Y-56895000D03*
X134065000Y-58165000D03*
D51*
X114284100Y-50025000D03*
X114284100Y-48755000D03*
X114284100Y-47485000D03*
X114284100Y-46215000D03*
X109334100Y-46215000D03*
X109334100Y-47485000D03*
X109334100Y-48755000D03*
X109334100Y-50025000D03*
D63*
X151430000Y-108840000D03*
X138730000Y-108840000D03*
D64*
X148650000Y-106300000D03*
D65*
X147630000Y-104520000D03*
X146610000Y-106300000D03*
X145590000Y-104520000D03*
X144570000Y-106300000D03*
X143550000Y-104520000D03*
X142530000Y-106300000D03*
X141510000Y-104520000D03*
D66*
X153210000Y-105280000D03*
X136950000Y-105280000D03*
D31*
X107169000Y-45210000D03*
X107169000Y-46860000D03*
D15*
X77166000Y-92409000D03*
X77166000Y-93959000D03*
D63*
X131830000Y-108840000D03*
X119130000Y-108840000D03*
D64*
X129050000Y-106300000D03*
D65*
X128030000Y-104520000D03*
X127010000Y-106300000D03*
X125990000Y-104520000D03*
X124970000Y-106300000D03*
X123950000Y-104520000D03*
X122930000Y-106300000D03*
X121910000Y-104520000D03*
D66*
X133610000Y-105280000D03*
X117350000Y-105280000D03*
D67*
X113850000Y-42950000D03*
X115350000Y-42950000D03*
X115350000Y-40250000D03*
X113850000Y-40250000D03*
D31*
X107319000Y-52315000D03*
X107319000Y-53965000D03*
D26*
X67054000Y-46851000D03*
X68954000Y-46851000D03*
D37*
X144385000Y-62570000D03*
X143115000Y-62570000D03*
X141845000Y-62570000D03*
X145655000Y-62570000D03*
D38*
X144385000Y-57105000D03*
X141845000Y-57105000D03*
X143115000Y-57105000D03*
X145655000Y-57105000D03*
D39*
X143750000Y-59210000D03*
D68*
X139600000Y-94900000D03*
X139600000Y-96800000D03*
X141700000Y-95850000D03*
D14*
X83139000Y-66408000D03*
X81589000Y-66408000D03*
D69*
X111159100Y-51900000D03*
X109259100Y-51900000D03*
D15*
X92600000Y-54975000D03*
X92600000Y-56525000D03*
D51*
X114544100Y-63395000D03*
X114544100Y-62125000D03*
X114544100Y-60855000D03*
X114544100Y-59585000D03*
X109594100Y-59585000D03*
X109594100Y-60855000D03*
X109594100Y-62125000D03*
X109594100Y-63395000D03*
D33*
X153125000Y-55810000D03*
X154775000Y-55810000D03*
D16*
X67305000Y-60002000D03*
X68855000Y-60002000D03*
X152925000Y-63250000D03*
X154475000Y-63250000D03*
D14*
X157675000Y-65900000D03*
X156125000Y-65900000D03*
D70*
X96765000Y-97045000D03*
X96765000Y-98315000D03*
X96765000Y-99585000D03*
X96765000Y-100855000D03*
X107415000Y-100855000D03*
X107415000Y-99585000D03*
X107415000Y-98315000D03*
X107415000Y-97045000D03*
D47*
X66000000Y-92840000D03*
D48*
X66000000Y-90300000D03*
X66000000Y-87760000D03*
D51*
X114344100Y-88125000D03*
X114344100Y-86855000D03*
X114344100Y-85585000D03*
X114344100Y-84315000D03*
X109394100Y-84315000D03*
X109394100Y-85585000D03*
X109394100Y-86855000D03*
X109394100Y-88125000D03*
D33*
X99537000Y-51000000D03*
X101187000Y-51000000D03*
D47*
X73200000Y-50950000D03*
D48*
X73200000Y-48410000D03*
X73200000Y-45870000D03*
X73200000Y-43330000D03*
X73200000Y-40790000D03*
D36*
X136225000Y-54350000D03*
X139175000Y-54350000D03*
D51*
X114534100Y-57775000D03*
X114534100Y-56505000D03*
X114534100Y-55235000D03*
X114534100Y-53965000D03*
X109584100Y-53965000D03*
X109584100Y-55235000D03*
X109584100Y-56505000D03*
X109584100Y-57775000D03*
D31*
X107221000Y-79805000D03*
X107221000Y-81455000D03*
D54*
X105410000Y-54820000D03*
X105410000Y-56920000D03*
D46*
X65500000Y-59750000D03*
X65500000Y-61650000D03*
D33*
X96533900Y-51000000D03*
X98183900Y-51000000D03*
D71*
X75306000Y-91904000D03*
X75306000Y-89704000D03*
X73606000Y-89704000D03*
X73606000Y-91904000D03*
D72*
X89770000Y-105900000D03*
X89770000Y-103360000D03*
X83470000Y-103360000D03*
X83470000Y-105900000D03*
D37*
X143315000Y-82070000D03*
X144585000Y-82070000D03*
X142045000Y-82070000D03*
X145855000Y-82070000D03*
D38*
X144585000Y-76605000D03*
X145855000Y-76605000D03*
X142045000Y-76605000D03*
D39*
X143950000Y-78710000D03*
D38*
X143315000Y-76605000D03*
D30*
X127360000Y-79100000D03*
X120860000Y-79100000D03*
D45*
X156279000Y-75765000D03*
X159579000Y-75765000D03*
X159540000Y-73425000D03*
X156240000Y-73425000D03*
D36*
X136425000Y-83300000D03*
X139375000Y-83300000D03*
D31*
X107119000Y-75295000D03*
X107119000Y-76945000D03*
D26*
X112040900Y-82480000D03*
X113940900Y-82480000D03*
D15*
X93186000Y-96399000D03*
X93186000Y-97949000D03*
D31*
X107300000Y-58470000D03*
X107300000Y-60120000D03*
D47*
X66000000Y-75500000D03*
D48*
X66000000Y-72960000D03*
X66000000Y-70420000D03*
X66000000Y-67880000D03*
X66000000Y-65340000D03*
D60*
X139280000Y-44125000D03*
X139280000Y-41585000D03*
X139280000Y-42855000D03*
X139280000Y-40315000D03*
D61*
X133815000Y-42855000D03*
D62*
X135920000Y-42220000D03*
D61*
X133815000Y-44125000D03*
X133815000Y-41585000D03*
X133815000Y-40315000D03*
D54*
X105410000Y-63020000D03*
X105410000Y-65120000D03*
D15*
X84926000Y-97125000D03*
X84926000Y-98675000D03*
D54*
X105410000Y-51470000D03*
X105410000Y-53570000D03*
X105210000Y-66800000D03*
X105210000Y-68900000D03*
D29*
X159095000Y-54769000D03*
X159095000Y-51469000D03*
D19*
X72025000Y-85090000D03*
X70375000Y-85090000D03*
X102969000Y-78778000D03*
X101319000Y-78778000D03*
D51*
X114384100Y-72205000D03*
X114384100Y-70935000D03*
X114384100Y-69665000D03*
X114384100Y-68395000D03*
X109434100Y-68395000D03*
X109434100Y-69665000D03*
X109434100Y-70935000D03*
X109434100Y-72205000D03*
D73*
X148700800Y-64874000D03*
X148700800Y-65824000D03*
X148700800Y-66774000D03*
X150975800Y-66774000D03*
X150975800Y-65824000D03*
X150975800Y-64874000D03*
D21*
X87782000Y-101725000D03*
X87782000Y-100075000D03*
D60*
X139280000Y-79535000D03*
X139280000Y-80805000D03*
X139280000Y-78265000D03*
X139280000Y-76995000D03*
D61*
X133815000Y-79535000D03*
X133815000Y-76995000D03*
D62*
X135920000Y-78900000D03*
D61*
X133815000Y-78265000D03*
X133815000Y-80805000D03*
D74*
X90250000Y-64650000D03*
X92450000Y-64650000D03*
X92450000Y-62950000D03*
X90250000Y-62950000D03*
D16*
X91571000Y-86122000D03*
X93121000Y-86122000D03*
D59*
X117300000Y-94950000D03*
X117300000Y-95600000D03*
X117300000Y-96250000D03*
X119200000Y-96250000D03*
X119200000Y-94950000D03*
D47*
X80332000Y-62136000D03*
D48*
X80332000Y-59596000D03*
X80332000Y-57056000D03*
X80332000Y-54516000D03*
X80332000Y-51976000D03*
X80332000Y-49436000D03*
D75*
X129100000Y-110500000D03*
D76*
X129100000Y-113040000D03*
X126560000Y-110500000D03*
X126560000Y-113040000D03*
X124020000Y-110500000D03*
X124020000Y-113040000D03*
X121480000Y-110500000D03*
X121480000Y-113040000D03*
D20*
X159390000Y-79555000D03*
X159390000Y-78005000D03*
D75*
X148800000Y-110400000D03*
D76*
X148800000Y-112940000D03*
X146260000Y-110400000D03*
X146260000Y-112940000D03*
X143720000Y-110400000D03*
X143720000Y-112940000D03*
X141180000Y-110400000D03*
X141180000Y-112940000D03*
D31*
X107000000Y-86600000D03*
X107000000Y-88250000D03*
D30*
X127360000Y-70100000D03*
X120860000Y-70100000D03*
D77*
X90540000Y-109295000D03*
X84760000Y-109295000D03*
D78*
X84300000Y-108230000D03*
X85100000Y-108230000D03*
X86400000Y-108230000D03*
X87400000Y-108230000D03*
X87900000Y-108230000D03*
X88900000Y-108230000D03*
X90200000Y-108230000D03*
X91000000Y-108230000D03*
X90700000Y-108230000D03*
X89900000Y-108230000D03*
X89400000Y-108230000D03*
X88400000Y-108230000D03*
X86900000Y-108230000D03*
X85900000Y-108230000D03*
X85400000Y-108230000D03*
X84600000Y-108230000D03*
D79*
X91970000Y-112975000D03*
D80*
X91970000Y-108795000D03*
D79*
X83330000Y-112975000D03*
D80*
X83330000Y-108795000D03*
D54*
X105410000Y-48070000D03*
X105410000Y-50170000D03*
D81*
X79550000Y-72600000D03*
D27*
X151285000Y-68845000D03*
X150015000Y-68845000D03*
X148745000Y-68845000D03*
X147475000Y-68845000D03*
X147475000Y-73795000D03*
X148745000Y-73795000D03*
X150015000Y-73795000D03*
X151285000Y-73795000D03*
D33*
X154695000Y-94770000D03*
X156345000Y-94770000D03*
D19*
X79285000Y-66350000D03*
X77635000Y-66350000D03*
D57*
X158800000Y-100323000D03*
D58*
X156260000Y-100323000D03*
D44*
X157350000Y-42450000D03*
D47*
X73200000Y-64700000D03*
D48*
X73200000Y-62160000D03*
X73200000Y-59620000D03*
X73200000Y-57080000D03*
X73200000Y-54540000D03*
D27*
X151285000Y-57895000D03*
X150015000Y-57895000D03*
X148745000Y-57895000D03*
X147475000Y-57895000D03*
X147475000Y-62845000D03*
X148745000Y-62845000D03*
X150015000Y-62845000D03*
X151285000Y-62845000D03*
D67*
X110450000Y-42950000D03*
X111950000Y-42950000D03*
X111950000Y-40250000D03*
X110450000Y-40250000D03*
D16*
X122475000Y-95200000D03*
X124025000Y-95200000D03*
D31*
X107200000Y-63270000D03*
X107200000Y-64920000D03*
D82*
X159000000Y-105100000D03*
D83*
X157700000Y-105100000D03*
D84*
X104965000Y-103106000D03*
X104965000Y-104376000D03*
X104965000Y-105646000D03*
X104965000Y-106916000D03*
X104965000Y-108186000D03*
X104965000Y-109456000D03*
X104965000Y-110726000D03*
X104965000Y-111996000D03*
X104965000Y-113266000D03*
X114265000Y-113266000D03*
X114265000Y-111996000D03*
X114265000Y-110726000D03*
X114265000Y-109456000D03*
X114265000Y-108186000D03*
X114265000Y-106916000D03*
X114265000Y-105646000D03*
X114265000Y-104376000D03*
X114265000Y-103106000D03*
D44*
X65700000Y-111100000D03*
D29*
X117250000Y-58220000D03*
X117250000Y-54920000D03*
D60*
X139280000Y-86915000D03*
X139280000Y-89455000D03*
X139280000Y-88185000D03*
X139280000Y-85645000D03*
D61*
X133815000Y-85645000D03*
X133815000Y-88185000D03*
X133815000Y-89455000D03*
X133815000Y-86915000D03*
D62*
X135920000Y-87550000D03*
D68*
X135880000Y-94895000D03*
X135880000Y-96795000D03*
X137980000Y-95845000D03*
D29*
X159095000Y-56260000D03*
X159095000Y-59560000D03*
D21*
X64039000Y-106158000D03*
X64039000Y-104508000D03*
D45*
X156619000Y-89815000D03*
X153319000Y-89815000D03*
D15*
X83294000Y-97125000D03*
X83294000Y-98675000D03*
D36*
X136425000Y-74350000D03*
X139375000Y-74350000D03*
D15*
X116670000Y-84905900D03*
X116670000Y-86455900D03*
D50*
X154900000Y-59500000D03*
D15*
X156640000Y-83385000D03*
X156640000Y-84935000D03*
X116870000Y-59875900D03*
X116870000Y-61425900D03*
D85*
X102043000Y-69749000D03*
X102043000Y-77149000D03*
D21*
X86222000Y-101725000D03*
X86222000Y-100075000D03*
D45*
X155040000Y-46600000D03*
X151740000Y-46600000D03*
D86*
X146320000Y-64575000D03*
X147280000Y-64575000D03*
D16*
X152875000Y-73360000D03*
X154425000Y-73360000D03*
X101302000Y-107388000D03*
X102852000Y-107388000D03*
D29*
X159095000Y-49879000D03*
X159095000Y-46579000D03*
X158800000Y-67760000D03*
X158800000Y-71060000D03*
D87*
X98450000Y-52800000D03*
X96350000Y-52800000D03*
D20*
X94260000Y-56525000D03*
X94260000Y-54975000D03*
D54*
X105210000Y-82975000D03*
X105210000Y-85075000D03*
D45*
X153321000Y-87185000D03*
X156621000Y-87185000D03*
D15*
X91426000Y-96399000D03*
X91426000Y-97949000D03*
D88*
X65805000Y-106102500D03*
X65805000Y-104527500D03*
D37*
X141945000Y-73460500D03*
X144485000Y-73460500D03*
X143215000Y-73460500D03*
X145755000Y-73460500D03*
D38*
X141945000Y-67995500D03*
X144485000Y-67995500D03*
D39*
X143850000Y-70100500D03*
D38*
X145755000Y-67995500D03*
X143215000Y-67995500D03*
D60*
X139280000Y-70785000D03*
X139280000Y-72055000D03*
X139280000Y-69515000D03*
X139280000Y-68245000D03*
D61*
X133815000Y-72055000D03*
D62*
X135920000Y-70150000D03*
D61*
X133815000Y-68245000D03*
X133815000Y-70785000D03*
X133815000Y-69515000D03*
D17*
X97636000Y-85002000D03*
X96616000Y-85002000D03*
D16*
X94291000Y-90764000D03*
X95841000Y-90764000D03*
D47*
X66000000Y-84200000D03*
D48*
X66000000Y-81660000D03*
X66000000Y-79120000D03*
D31*
X80900000Y-39975000D03*
X80900000Y-41625000D03*
D19*
X112625000Y-96500000D03*
X110975000Y-96500000D03*
D86*
X148470000Y-56030000D03*
X149430000Y-56030000D03*
D14*
X79375000Y-44988000D03*
X77825000Y-44988000D03*
D67*
X107050000Y-42950000D03*
X108550000Y-42950000D03*
X108550000Y-40250000D03*
X107050000Y-40250000D03*
D86*
X148750000Y-84650000D03*
X149710000Y-84650000D03*
D27*
X151535000Y-77945000D03*
X150265000Y-77945000D03*
X148995000Y-77945000D03*
X147725000Y-77945000D03*
X147725000Y-82895000D03*
X148995000Y-82895000D03*
X150265000Y-82895000D03*
X151535000Y-82895000D03*
D89*
X90765800Y-56574000D03*
X90765800Y-55624000D03*
X90765800Y-54674000D03*
X88490800Y-54674000D03*
X88490800Y-55624000D03*
X88490800Y-56574000D03*
D20*
X97462000Y-83529000D03*
X97462000Y-81979000D03*
D15*
X156360000Y-54225000D03*
X156360000Y-55775000D03*
D19*
X72075000Y-77360000D03*
X70425000Y-77360000D03*
D16*
X94301000Y-92254000D03*
X95851000Y-92254000D03*
D50*
X149750000Y-88800000D03*
D54*
X105210000Y-74950000D03*
X105210000Y-77050000D03*
X105210000Y-71350000D03*
X105210000Y-73450000D03*
D50*
X155150000Y-50600000D03*
D31*
X107321000Y-55425000D03*
X107321000Y-57075000D03*
D44*
X157350000Y-111100000D03*
D46*
X114770000Y-89730900D03*
X114770000Y-91630900D03*
D71*
X102729000Y-111424000D03*
X102729000Y-109224000D03*
X101029000Y-109224000D03*
X101029000Y-111424000D03*
D29*
X117050000Y-83300000D03*
X117050000Y-80000000D03*
D19*
X83225000Y-64800000D03*
X81575000Y-64800000D03*
D15*
X116770000Y-76705900D03*
X116770000Y-78255900D03*
D50*
X155150000Y-79450000D03*
D33*
X67255000Y-61590000D03*
X68905000Y-61590000D03*
D30*
X127360000Y-61070000D03*
X120860000Y-61070000D03*
D54*
X105210000Y-86250000D03*
X105210000Y-88350000D03*
D14*
X147015000Y-65840000D03*
X145465000Y-65840000D03*
D86*
X147500000Y-75580000D03*
X148460000Y-75580000D03*
D14*
X79375000Y-40037000D03*
X77825000Y-40037000D03*
D90*
X158150000Y-94850000D03*
D91*
X159450000Y-94850000D03*
D92*
X83280000Y-42967500D03*
X83280000Y-40042500D03*
D14*
X80341000Y-93874000D03*
X78791000Y-93874000D03*
D16*
X73581000Y-87484000D03*
X75131000Y-87484000D03*
X92851000Y-94274000D03*
X94401000Y-94274000D03*
X153175000Y-54250000D03*
X154725000Y-54250000D03*
D54*
X105210000Y-79500000D03*
X105210000Y-81600000D03*
D36*
X136175000Y-63250000D03*
X139125000Y-63250000D03*
D26*
X113040900Y-51950000D03*
X114940900Y-51950000D03*
D29*
X117350000Y-66270000D03*
X117350000Y-62970000D03*
D16*
X113075000Y-101360000D03*
X114625000Y-101360000D03*
D69*
X93755000Y-47520000D03*
X91855000Y-47520000D03*
D21*
X120665000Y-96485000D03*
X120665000Y-94835000D03*
D45*
X155971000Y-63755000D03*
X159271000Y-63755000D03*
D20*
X80902000Y-44975000D03*
X80902000Y-43425000D03*
D93*
X103192000Y-80632000D03*
X101922000Y-80632000D03*
X100652000Y-80632000D03*
X99382000Y-80632000D03*
X99382000Y-87832000D03*
X100652000Y-87832000D03*
X101922000Y-87832000D03*
X103192000Y-87832000D03*
D33*
X79735000Y-103580000D03*
X81385000Y-103580000D03*
D21*
X85630000Y-44960000D03*
X85630000Y-43310000D03*
D94*
X68475000Y-49208000D03*
D95*
X66195000Y-55508000D03*
D94*
X63915000Y-49208000D03*
D15*
X116920000Y-68245900D03*
X116920000Y-69795900D03*
D31*
X86588000Y-62465000D03*
X86588000Y-64115000D03*
D16*
X82485000Y-44790000D03*
X84035000Y-44790000D03*
D77*
X78040000Y-109295000D03*
X72260000Y-109295000D03*
D78*
X71800000Y-108230000D03*
X72600000Y-108230000D03*
X73900000Y-108230000D03*
X74900000Y-108230000D03*
X75400000Y-108230000D03*
X76400000Y-108230000D03*
X77700000Y-108230000D03*
X78500000Y-108230000D03*
X78200000Y-108230000D03*
X77400000Y-108230000D03*
X76900000Y-108230000D03*
X75900000Y-108230000D03*
X74400000Y-108230000D03*
X73400000Y-108230000D03*
X72900000Y-108230000D03*
X72100000Y-108230000D03*
D80*
X79470000Y-108795000D03*
X70830000Y-108795000D03*
D79*
X70830000Y-112975000D03*
X79470000Y-112975000D03*
D19*
X79861000Y-90674000D03*
X78211000Y-90674000D03*
D52*
X127500000Y-43900000D03*
D47*
X66000000Y-101500000D03*
D48*
X66000000Y-98960000D03*
X66000000Y-96420000D03*
D19*
X140635000Y-65510000D03*
X138985000Y-65510000D03*
M02*
