G04 #@! TF.GenerationSoftware,KiCad,Pcbnew,7.0.1-3b83917a11~171~ubuntu22.04.1*
G04 #@! TF.CreationDate,2023-03-24T16:48:54-07:00*
G04 #@! TF.ProjectId,RP2040_motor,52503230-3430-45f6-9d6f-746f722e6b69,REV1*
G04 #@! TF.SameCoordinates,Original*
G04 #@! TF.FileFunction,Paste,Top*
G04 #@! TF.FilePolarity,Positive*
%FSLAX46Y46*%
G04 Gerber Fmt 4.6, Leading zero omitted, Abs format (unit mm)*
G04 Created by KiCad (PCBNEW 7.0.1-3b83917a11~171~ubuntu22.04.1) date 2023-03-24 16:48:54*
%MOMM*%
%LPD*%
G01*
G04 APERTURE LIST*
G04 Aperture macros list*
%AMRoundRect*
0 Rectangle with rounded corners*
0 $1 Rounding radius*
0 $2 $3 $4 $5 $6 $7 $8 $9 X,Y pos of 4 corners*
0 Add a 4 corners polygon primitive as box body*
4,1,4,$2,$3,$4,$5,$6,$7,$8,$9,$2,$3,0*
0 Add four circle primitives for the rounded corners*
1,1,$1+$1,$2,$3*
1,1,$1+$1,$4,$5*
1,1,$1+$1,$6,$7*
1,1,$1+$1,$8,$9*
0 Add four rect primitives between the rounded corners*
20,1,$1+$1,$2,$3,$4,$5,0*
20,1,$1+$1,$4,$5,$6,$7,0*
20,1,$1+$1,$6,$7,$8,$9,0*
20,1,$1+$1,$8,$9,$2,$3,0*%
G04 Aperture macros list end*
%ADD10RoundRect,0.225000X0.225000X0.250000X-0.225000X0.250000X-0.225000X-0.250000X0.225000X-0.250000X0*%
%ADD11RoundRect,0.225000X-0.250000X0.225000X-0.250000X-0.225000X0.250000X-0.225000X0.250000X0.225000X0*%
%ADD12RoundRect,0.225000X-0.225000X-0.250000X0.225000X-0.250000X0.225000X0.250000X-0.225000X0.250000X0*%
%ADD13RoundRect,0.135000X-0.185000X0.135000X-0.185000X-0.135000X0.185000X-0.135000X0.185000X0.135000X0*%
%ADD14RoundRect,0.150000X0.150000X-0.650000X0.150000X0.650000X-0.150000X0.650000X-0.150000X-0.650000X0*%
%ADD15RoundRect,0.200000X-0.275000X0.200000X-0.275000X-0.200000X0.275000X-0.200000X0.275000X0.200000X0*%
%ADD16RoundRect,0.225000X0.250000X-0.225000X0.250000X0.225000X-0.250000X0.225000X-0.250000X-0.225000X0*%
%ADD17RoundRect,0.200000X0.275000X-0.200000X0.275000X0.200000X-0.275000X0.200000X-0.275000X-0.200000X0*%
%ADD18RoundRect,0.250000X0.292217X0.292217X-0.292217X0.292217X-0.292217X-0.292217X0.292217X-0.292217X0*%
%ADD19RoundRect,0.050000X0.387500X0.050000X-0.387500X0.050000X-0.387500X-0.050000X0.387500X-0.050000X0*%
%ADD20RoundRect,0.050000X0.050000X0.387500X-0.050000X0.387500X-0.050000X-0.387500X0.050000X-0.387500X0*%
%ADD21RoundRect,0.243750X0.243750X0.456250X-0.243750X0.456250X-0.243750X-0.456250X0.243750X-0.456250X0*%
%ADD22RoundRect,0.250000X0.250000X0.475000X-0.250000X0.475000X-0.250000X-0.475000X0.250000X-0.475000X0*%
%ADD23RoundRect,0.250000X-2.450000X0.650000X-2.450000X-0.650000X2.450000X-0.650000X2.450000X0.650000X0*%
%ADD24RoundRect,0.200000X0.200000X0.275000X-0.200000X0.275000X-0.200000X-0.275000X0.200000X-0.275000X0*%
%ADD25RoundRect,0.242500X-0.527500X0.242500X-0.527500X-0.242500X0.527500X-0.242500X0.527500X0.242500X0*%
%ADD26RoundRect,0.150000X-0.150000X0.825000X-0.150000X-0.825000X0.150000X-0.825000X0.150000X0.825000X0*%
%ADD27R,1.200000X0.900000*%
%ADD28RoundRect,0.250000X1.500000X1.000000X-1.500000X1.000000X-1.500000X-1.000000X1.500000X-1.000000X0*%
%ADD29RoundRect,0.250000X-1.500000X-0.550000X1.500000X-0.550000X1.500000X0.550000X-1.500000X0.550000X0*%
%ADD30R,1.200000X1.000000*%
%ADD31RoundRect,0.250000X-0.325000X-0.650000X0.325000X-0.650000X0.325000X0.650000X-0.325000X0.650000X0*%
%ADD32R,0.610000X1.270000*%
%ADD33R,3.910000X3.810000*%
%ADD34R,0.610000X1.020000*%
%ADD35RoundRect,0.250000X-0.250000X-0.475000X0.250000X-0.475000X0.250000X0.475000X-0.250000X0.475000X0*%
%ADD36RoundRect,0.150000X0.150000X-0.825000X0.150000X0.825000X-0.150000X0.825000X-0.150000X-0.825000X0*%
%ADD37RoundRect,0.250000X-0.292217X0.292217X-0.292217X-0.292217X0.292217X-0.292217X0.292217X0.292217X0*%
%ADD38RoundRect,0.050000X-0.050000X0.387500X-0.050000X-0.387500X0.050000X-0.387500X0.050000X0.387500X0*%
%ADD39RoundRect,0.050000X-0.387500X0.050000X-0.387500X-0.050000X0.387500X-0.050000X0.387500X0.050000X0*%
%ADD40R,1.300000X1.200000*%
%ADD41R,0.950000X1.000000*%
%ADD42RoundRect,0.200000X-0.200000X-0.275000X0.200000X-0.275000X0.200000X0.275000X-0.200000X0.275000X0*%
%ADD43R,1.200000X1.300000*%
%ADD44R,1.000000X0.950000*%
%ADD45R,2.500000X1.800000*%
%ADD46RoundRect,0.250000X-0.475000X0.250000X-0.475000X-0.250000X0.475000X-0.250000X0.475000X0.250000X0*%
%ADD47RoundRect,0.250000X0.325000X1.100000X-0.325000X1.100000X-0.325000X-1.100000X0.325000X-1.100000X0*%
%ADD48R,0.600000X0.450000*%
%ADD49R,0.900000X1.200000*%
%ADD50R,5.500000X2.150000*%
%ADD51R,0.650000X0.400000*%
%ADD52R,1.270000X0.610000*%
%ADD53R,3.810000X3.910000*%
%ADD54R,1.020000X0.610000*%
%ADD55R,0.750000X0.900000*%
%ADD56R,1.300000X0.600000*%
%ADD57RoundRect,0.150000X-0.750000X-0.150000X0.750000X-0.150000X0.750000X0.150000X-0.750000X0.150000X0*%
%ADD58R,1.200000X1.400000*%
%ADD59R,2.000000X0.640000*%
%ADD60RoundRect,0.150000X-0.150000X0.512500X-0.150000X-0.512500X0.150000X-0.512500X0.150000X0.512500X0*%
%ADD61RoundRect,0.150000X0.150000X-0.512500X0.150000X0.512500X-0.150000X0.512500X-0.150000X-0.512500X0*%
%ADD62R,1.400000X1.200000*%
%ADD63R,0.400000X0.650000*%
%ADD64R,0.300000X1.150000*%
%ADD65RoundRect,0.150000X-0.875000X-0.150000X0.875000X-0.150000X0.875000X0.150000X-0.875000X0.150000X0*%
%ADD66R,4.200000X1.400000*%
%ADD67RoundRect,0.140000X0.140000X0.170000X-0.140000X0.170000X-0.140000X-0.170000X0.140000X-0.170000X0*%
%ADD68RoundRect,0.218750X0.256250X-0.218750X0.256250X0.218750X-0.256250X0.218750X-0.256250X-0.218750X0*%
%ADD69RoundRect,0.135000X0.135000X0.185000X-0.135000X0.185000X-0.135000X-0.185000X0.135000X-0.185000X0*%
%ADD70RoundRect,0.250000X0.450000X-0.262500X0.450000X0.262500X-0.450000X0.262500X-0.450000X-0.262500X0*%
%ADD71RoundRect,0.140000X-0.140000X-0.170000X0.140000X-0.170000X0.140000X0.170000X-0.140000X0.170000X0*%
%ADD72R,0.760000X1.270000*%
%ADD73RoundRect,0.150000X0.512500X0.150000X-0.512500X0.150000X-0.512500X-0.150000X0.512500X-0.150000X0*%
%ADD74RoundRect,0.250000X0.475000X-0.250000X0.475000X0.250000X-0.475000X0.250000X-0.475000X-0.250000X0*%
%ADD75RoundRect,0.250000X0.625000X-0.312500X0.625000X0.312500X-0.625000X0.312500X-0.625000X-0.312500X0*%
%ADD76RoundRect,0.250000X-1.000000X-0.650000X1.000000X-0.650000X1.000000X0.650000X-1.000000X0.650000X0*%
%ADD77RoundRect,0.150000X-0.150000X0.650000X-0.150000X-0.650000X0.150000X-0.650000X0.150000X0.650000X0*%
G04 APERTURE END LIST*
D10*
X85540000Y-82790000D03*
X83990000Y-82790000D03*
D11*
X87990000Y-81660000D03*
X87990000Y-83210000D03*
D12*
X98800000Y-74750000D03*
X100350000Y-74750000D03*
X100395000Y-59680000D03*
X101945000Y-59680000D03*
D13*
X102410000Y-63205000D03*
X102410000Y-64225000D03*
D14*
X97120000Y-68840000D03*
X98390000Y-68840000D03*
X99660000Y-68840000D03*
X100930000Y-68840000D03*
X100930000Y-61640000D03*
X99660000Y-61640000D03*
X98390000Y-61640000D03*
X97120000Y-61640000D03*
D10*
X90080000Y-66550000D03*
X88530000Y-66550000D03*
D15*
X84960000Y-54990000D03*
X84960000Y-56640000D03*
D11*
X90440000Y-82810000D03*
X90440000Y-84360000D03*
D10*
X84130000Y-74700000D03*
X82580000Y-74700000D03*
D16*
X89759000Y-69640000D03*
X89759000Y-68090000D03*
D17*
X76012000Y-99772000D03*
X76012000Y-98122000D03*
D16*
X87840000Y-69640000D03*
X87840000Y-68090000D03*
D12*
X96100000Y-80300000D03*
X97650000Y-80300000D03*
D10*
X85480000Y-81200000D03*
X83930000Y-81200000D03*
D18*
X91427500Y-76787500D03*
X91427500Y-75512500D03*
X90152500Y-76787500D03*
X90152500Y-75512500D03*
D19*
X94227500Y-78750000D03*
X94227500Y-78350000D03*
X94227500Y-77950000D03*
X94227500Y-77550000D03*
X94227500Y-77150000D03*
X94227500Y-76750000D03*
X94227500Y-76350000D03*
X94227500Y-75950000D03*
X94227500Y-75550000D03*
X94227500Y-75150000D03*
X94227500Y-74750000D03*
X94227500Y-74350000D03*
X94227500Y-73950000D03*
X94227500Y-73550000D03*
D20*
X93390000Y-72712500D03*
X92990000Y-72712500D03*
X92590000Y-72712500D03*
X92190000Y-72712500D03*
X91790000Y-72712500D03*
X91390000Y-72712500D03*
X90990000Y-72712500D03*
X90590000Y-72712500D03*
X90190000Y-72712500D03*
X89790000Y-72712500D03*
X89390000Y-72712500D03*
X88990000Y-72712500D03*
X88590000Y-72712500D03*
X88190000Y-72712500D03*
D19*
X87352500Y-73550000D03*
X87352500Y-73950000D03*
X87352500Y-74350000D03*
X87352500Y-74750000D03*
X87352500Y-75150000D03*
X87352500Y-75550000D03*
X87352500Y-75950000D03*
X87352500Y-76350000D03*
X87352500Y-76750000D03*
X87352500Y-77150000D03*
X87352500Y-77550000D03*
X87352500Y-77950000D03*
X87352500Y-78350000D03*
X87352500Y-78750000D03*
D20*
X88190000Y-79587500D03*
X88590000Y-79587500D03*
X88990000Y-79587500D03*
X89390000Y-79587500D03*
X89790000Y-79587500D03*
X90190000Y-79587500D03*
X90590000Y-79587500D03*
X90990000Y-79587500D03*
X91390000Y-79587500D03*
X91790000Y-79587500D03*
X92190000Y-79587500D03*
X92590000Y-79587500D03*
X92990000Y-79587500D03*
X93390000Y-79587500D03*
D16*
X93650000Y-64600000D03*
X93650000Y-63050000D03*
D17*
X74412000Y-99772000D03*
X74412000Y-98122000D03*
D11*
X92040000Y-82910000D03*
X92040000Y-84460000D03*
D10*
X85480000Y-79550000D03*
X83930000Y-79550000D03*
D17*
X91740000Y-69360000D03*
X91740000Y-67710000D03*
D21*
X79909500Y-96231000D03*
X78034500Y-96231000D03*
D22*
X83175000Y-57605000D03*
X81275000Y-57605000D03*
D10*
X106954100Y-47740000D03*
X105404100Y-47740000D03*
D23*
X116120000Y-67765900D03*
X116120000Y-72865900D03*
D24*
X130875000Y-96880000D03*
X129225000Y-96880000D03*
D11*
X94736000Y-96389000D03*
X94736000Y-97939000D03*
D22*
X82975000Y-68285000D03*
X81075000Y-68285000D03*
D25*
X87300000Y-49250000D03*
X85400000Y-49250000D03*
X87300000Y-50450000D03*
X85400000Y-50450000D03*
D26*
X88255000Y-47375000D03*
X86985000Y-47375000D03*
X85715000Y-47375000D03*
X84445000Y-47375000D03*
X84445000Y-52325000D03*
X85715000Y-52325000D03*
X86985000Y-52325000D03*
X88255000Y-52325000D03*
D27*
X103175000Y-65750000D03*
X103175000Y-69050000D03*
D28*
X127860000Y-88150000D03*
X121360000Y-88150000D03*
D24*
X107055000Y-84760000D03*
X105405000Y-84760000D03*
D29*
X94065000Y-42920000D03*
X99465000Y-42920000D03*
D24*
X98765000Y-59790000D03*
X97115000Y-59790000D03*
X145600000Y-56710000D03*
X143950000Y-56710000D03*
D30*
X84850000Y-59500000D03*
X92250000Y-59500000D03*
D10*
X158580000Y-68580000D03*
X157030000Y-68580000D03*
D12*
X153475000Y-64300000D03*
X155025000Y-64300000D03*
D27*
X80564000Y-98380000D03*
X80564000Y-101680000D03*
D31*
X135675000Y-46450000D03*
X138625000Y-46450000D03*
D32*
X141345000Y-91520000D03*
X142615000Y-91520000D03*
X143885000Y-91520000D03*
X145155000Y-91520000D03*
D33*
X143250000Y-88160000D03*
D34*
X141345000Y-86055000D03*
X142615000Y-86055000D03*
X143885000Y-86055000D03*
X145155000Y-86055000D03*
D22*
X83025000Y-71695000D03*
X81125000Y-71695000D03*
D35*
X150450000Y-96600000D03*
X152350000Y-96600000D03*
D36*
X147225000Y-47355000D03*
X148495000Y-47355000D03*
X149765000Y-47355000D03*
X151035000Y-47355000D03*
X151035000Y-42405000D03*
X149765000Y-42405000D03*
X148495000Y-42405000D03*
X147225000Y-42405000D03*
D10*
X79275000Y-73058000D03*
X77725000Y-73058000D03*
D37*
X87343500Y-90696500D03*
X86068500Y-90696500D03*
X87343500Y-91971500D03*
X86068500Y-91971500D03*
D38*
X89306000Y-87896500D03*
X88906000Y-87896500D03*
X88506000Y-87896500D03*
X88106000Y-87896500D03*
X87706000Y-87896500D03*
X87306000Y-87896500D03*
X86906000Y-87896500D03*
X86506000Y-87896500D03*
X86106000Y-87896500D03*
X85706000Y-87896500D03*
X85306000Y-87896500D03*
X84906000Y-87896500D03*
X84506000Y-87896500D03*
X84106000Y-87896500D03*
D39*
X83268500Y-88734000D03*
X83268500Y-89134000D03*
X83268500Y-89534000D03*
X83268500Y-89934000D03*
X83268500Y-90334000D03*
X83268500Y-90734000D03*
X83268500Y-91134000D03*
X83268500Y-91534000D03*
X83268500Y-91934000D03*
X83268500Y-92334000D03*
X83268500Y-92734000D03*
X83268500Y-93134000D03*
X83268500Y-93534000D03*
X83268500Y-93934000D03*
D38*
X84106000Y-94771500D03*
X84506000Y-94771500D03*
X84906000Y-94771500D03*
X85306000Y-94771500D03*
X85706000Y-94771500D03*
X86106000Y-94771500D03*
X86506000Y-94771500D03*
X86906000Y-94771500D03*
X87306000Y-94771500D03*
X87706000Y-94771500D03*
X88106000Y-94771500D03*
X88506000Y-94771500D03*
X88906000Y-94771500D03*
X89306000Y-94771500D03*
D39*
X90143500Y-93934000D03*
X90143500Y-93534000D03*
X90143500Y-93134000D03*
X90143500Y-92734000D03*
X90143500Y-92334000D03*
X90143500Y-91934000D03*
X90143500Y-91534000D03*
X90143500Y-91134000D03*
X90143500Y-90734000D03*
X90143500Y-90334000D03*
X90143500Y-89934000D03*
X90143500Y-89534000D03*
X90143500Y-89134000D03*
X90143500Y-88734000D03*
D21*
X114737500Y-99600000D03*
X112862500Y-99600000D03*
D17*
X73655000Y-105070000D03*
X73655000Y-103420000D03*
D24*
X79325000Y-53100000D03*
X77675000Y-53100000D03*
D12*
X105435900Y-56260000D03*
X106985900Y-56260000D03*
D40*
X149250000Y-53125000D03*
X149250000Y-51325000D03*
X149250000Y-49525000D03*
X147450000Y-53125000D03*
X147450000Y-51325000D03*
X147450000Y-49525000D03*
D41*
X149320000Y-55675000D03*
X147380000Y-55675000D03*
D24*
X71470000Y-40420000D03*
X69820000Y-40420000D03*
X79325000Y-54790000D03*
X77675000Y-54790000D03*
D42*
X67449000Y-106694000D03*
X69099000Y-106694000D03*
D32*
X141345000Y-46249500D03*
X142615000Y-46249500D03*
X143885000Y-46249500D03*
X145155000Y-46249500D03*
D33*
X143250000Y-42889500D03*
D34*
X141345000Y-40784500D03*
X142615000Y-40784500D03*
X143885000Y-40784500D03*
X145155000Y-40784500D03*
D24*
X107030000Y-68044000D03*
X105380000Y-68044000D03*
X104570000Y-44079000D03*
X102920000Y-44079000D03*
D43*
X163125000Y-90094000D03*
X161325000Y-90094000D03*
X159525000Y-90094000D03*
X163125000Y-91894000D03*
X161325000Y-91894000D03*
X159525000Y-91894000D03*
D44*
X165675000Y-90024000D03*
X165675000Y-91964000D03*
D17*
X77846000Y-101039000D03*
X77846000Y-99389000D03*
D45*
X95495000Y-48400000D03*
X99495000Y-48400000D03*
D23*
X116120000Y-60325900D03*
X116120000Y-65425900D03*
D21*
X111352500Y-99600000D03*
X109477500Y-99600000D03*
D36*
X108545000Y-80234100D03*
X109815000Y-80234100D03*
X111085000Y-80234100D03*
X112355000Y-80234100D03*
X112355000Y-75284100D03*
X111085000Y-75284100D03*
X109815000Y-75284100D03*
X108545000Y-75284100D03*
D15*
X84574000Y-100092000D03*
X84574000Y-101742000D03*
D28*
X127860000Y-52120000D03*
X121360000Y-52120000D03*
D46*
X84810000Y-39945000D03*
X84810000Y-41845000D03*
D24*
X107030000Y-69539000D03*
X105380000Y-69539000D03*
D47*
X92925000Y-50300000D03*
X89975000Y-50300000D03*
D24*
X79325000Y-62712000D03*
X77675000Y-62712000D03*
D48*
X107150000Y-57985000D03*
X105050000Y-57985000D03*
D49*
X115050000Y-90059100D03*
X118350000Y-90059100D03*
D22*
X83175000Y-59935000D03*
X81275000Y-59935000D03*
D24*
X164475000Y-108425000D03*
X162825000Y-108425000D03*
D32*
X141345000Y-54140000D03*
X142615000Y-54140000D03*
X143885000Y-54140000D03*
X145155000Y-54140000D03*
D33*
X143250000Y-50780000D03*
D34*
X141345000Y-48675000D03*
X142615000Y-48675000D03*
X143885000Y-48675000D03*
X145155000Y-48675000D03*
D50*
X88905000Y-44545000D03*
X88905000Y-40695000D03*
D10*
X102817000Y-113297000D03*
X101267000Y-113297000D03*
D17*
X82830000Y-48420000D03*
X82830000Y-46770000D03*
D51*
X120675000Y-93875000D03*
X120675000Y-94525000D03*
X120675000Y-95175000D03*
X122575000Y-95175000D03*
X122575000Y-93875000D03*
D10*
X151125000Y-92675000D03*
X149575000Y-92675000D03*
D48*
X104650000Y-40720000D03*
X102550000Y-40720000D03*
D24*
X98765000Y-58275000D03*
X97115000Y-58275000D03*
D10*
X80251000Y-92174000D03*
X78701000Y-92174000D03*
D24*
X98770000Y-56750000D03*
X97120000Y-56750000D03*
X111425000Y-101350000D03*
X109775000Y-101350000D03*
D27*
X103210000Y-47605000D03*
X103210000Y-50905000D03*
D52*
X139270000Y-52425000D03*
X139270000Y-51155000D03*
X139270000Y-49885000D03*
X139270000Y-48615000D03*
D53*
X135910000Y-50520000D03*
D54*
X133805000Y-52425000D03*
X133805000Y-51155000D03*
X133805000Y-49885000D03*
X133805000Y-48615000D03*
D17*
X89534000Y-101672000D03*
X89534000Y-100022000D03*
D52*
X139270000Y-60805000D03*
X139270000Y-59535000D03*
X139270000Y-58265000D03*
X139270000Y-56995000D03*
D53*
X135910000Y-58900000D03*
D54*
X133805000Y-60805000D03*
X133805000Y-59535000D03*
X133805000Y-58265000D03*
X133805000Y-56995000D03*
D36*
X106055000Y-45734100D03*
X107325000Y-45734100D03*
X108595000Y-45734100D03*
X109865000Y-45734100D03*
X109865000Y-40784100D03*
X108595000Y-40784100D03*
X107325000Y-40784100D03*
X106055000Y-40784100D03*
D24*
X104560000Y-42479000D03*
X102910000Y-42479000D03*
X142180000Y-84540000D03*
X140530000Y-84540000D03*
D11*
X77166000Y-92409000D03*
X77166000Y-93959000D03*
D55*
X103640000Y-52400000D03*
X102140000Y-52400000D03*
X102140000Y-55100000D03*
X103640000Y-55100000D03*
D24*
X107035000Y-51319000D03*
X105385000Y-51319000D03*
D32*
X141345000Y-63720000D03*
X142615000Y-63720000D03*
X143885000Y-63720000D03*
X145155000Y-63720000D03*
D33*
X143250000Y-60360000D03*
D34*
X141345000Y-58255000D03*
X142615000Y-58255000D03*
X143885000Y-58255000D03*
X145155000Y-58255000D03*
D56*
X146350000Y-94650000D03*
X146350000Y-96550000D03*
X148450000Y-95600000D03*
D10*
X79275000Y-66333000D03*
X77725000Y-66333000D03*
D23*
X113635000Y-40715900D03*
X113635000Y-45815900D03*
D11*
X91000000Y-54975000D03*
X91000000Y-56525000D03*
D36*
X108550000Y-65339100D03*
X109820000Y-65339100D03*
X111090000Y-65339100D03*
X112360000Y-65339100D03*
X112360000Y-60389100D03*
X111090000Y-60389100D03*
X109820000Y-60389100D03*
X108550000Y-60389100D03*
D42*
X100790000Y-56700000D03*
X102440000Y-56700000D03*
D10*
X79275000Y-69598000D03*
X77725000Y-69598000D03*
X151410000Y-65090000D03*
X149860000Y-65090000D03*
D12*
X94150000Y-56750000D03*
X95700000Y-56750000D03*
D57*
X96765000Y-97045000D03*
X96765000Y-98315000D03*
X96765000Y-99585000D03*
X96765000Y-100855000D03*
X107415000Y-100855000D03*
X107415000Y-99585000D03*
X107415000Y-98315000D03*
X107415000Y-97045000D03*
D36*
X108550000Y-87644100D03*
X109820000Y-87644100D03*
X111090000Y-87644100D03*
X112360000Y-87644100D03*
X112360000Y-82694100D03*
X111090000Y-82694100D03*
X109820000Y-82694100D03*
X108550000Y-82694100D03*
D42*
X97637000Y-50950000D03*
X99287000Y-50950000D03*
D31*
X136225000Y-54550000D03*
X139175000Y-54550000D03*
D36*
X108545000Y-55574100D03*
X109815000Y-55574100D03*
X111085000Y-55574100D03*
X112355000Y-55574100D03*
X112355000Y-50624100D03*
X111085000Y-50624100D03*
X109815000Y-50624100D03*
X108545000Y-50624100D03*
D24*
X107020000Y-77886000D03*
X105370000Y-77886000D03*
D48*
X107150000Y-54550000D03*
X105050000Y-54550000D03*
D15*
X161225000Y-95245000D03*
X161225000Y-96895000D03*
D42*
X94583900Y-50950000D03*
X96233900Y-50950000D03*
D58*
X75306000Y-91904000D03*
X75306000Y-89704000D03*
X73606000Y-89704000D03*
X73606000Y-91904000D03*
D59*
X89770000Y-105900000D03*
X89770000Y-103360000D03*
X83470000Y-103360000D03*
X83470000Y-105900000D03*
D32*
X141345000Y-81820000D03*
X142615000Y-81820000D03*
X143885000Y-81820000D03*
X145155000Y-81820000D03*
D33*
X143250000Y-78460000D03*
D34*
X141345000Y-76355000D03*
X142615000Y-76355000D03*
X143885000Y-76355000D03*
X145155000Y-76355000D03*
D28*
X127860000Y-79100000D03*
X121360000Y-79100000D03*
D40*
X169090000Y-86471000D03*
X169090000Y-88271000D03*
X169090000Y-90071000D03*
X170890000Y-86471000D03*
X170890000Y-88271000D03*
X170890000Y-90071000D03*
D41*
X169020000Y-83921000D03*
X170960000Y-83921000D03*
D43*
X169075000Y-67740000D03*
X167275000Y-67740000D03*
X165475000Y-67740000D03*
X169075000Y-69540000D03*
X167275000Y-69540000D03*
X165475000Y-69540000D03*
D44*
X171625000Y-67670000D03*
X171625000Y-69610000D03*
D31*
X136025000Y-83000000D03*
X138975000Y-83000000D03*
D24*
X107020000Y-76404000D03*
X105370000Y-76404000D03*
D23*
X116130000Y-75209100D03*
X116130000Y-80309100D03*
D11*
X93186000Y-96399000D03*
X93186000Y-97949000D03*
D60*
X74490000Y-44002500D03*
X73540000Y-44002500D03*
X72590000Y-44002500D03*
X72590000Y-46277500D03*
X73540000Y-46277500D03*
X74490000Y-46277500D03*
D24*
X107055000Y-59705000D03*
X105405000Y-59705000D03*
D52*
X139470000Y-44325000D03*
X139470000Y-43055000D03*
X139470000Y-41785000D03*
X139470000Y-40515000D03*
D53*
X136110000Y-42420000D03*
D54*
X134005000Y-44325000D03*
X134005000Y-43055000D03*
X134005000Y-41785000D03*
X134005000Y-40515000D03*
D48*
X107155000Y-62915000D03*
X105055000Y-62915000D03*
D11*
X84926000Y-97125000D03*
X84926000Y-98675000D03*
D48*
X107150000Y-49590000D03*
X105050000Y-49590000D03*
X107135000Y-66330000D03*
X105035000Y-66330000D03*
D43*
X163744000Y-41005000D03*
X161944000Y-41005000D03*
X160144000Y-41005000D03*
X163744000Y-42805000D03*
X161944000Y-42805000D03*
X160144000Y-42805000D03*
D44*
X166294000Y-40935000D03*
X166294000Y-42875000D03*
D42*
X77725000Y-78440000D03*
X79375000Y-78440000D03*
D61*
X156900000Y-66752500D03*
X157850000Y-66752500D03*
X158800000Y-66752500D03*
X158800000Y-64477500D03*
X157850000Y-64477500D03*
X156900000Y-64477500D03*
D42*
X101929000Y-74808000D03*
X103579000Y-74808000D03*
D36*
X108520000Y-72784100D03*
X109790000Y-72784100D03*
X111060000Y-72784100D03*
X112330000Y-72784100D03*
X112330000Y-67834100D03*
X111060000Y-67834100D03*
X109790000Y-67834100D03*
X108520000Y-67834100D03*
D60*
X154999000Y-66099200D03*
X154049000Y-66099200D03*
X153099000Y-66099200D03*
X153099000Y-68374200D03*
X154049000Y-68374200D03*
X154999000Y-68374200D03*
D17*
X87782000Y-101725000D03*
X87782000Y-100075000D03*
D52*
X139270000Y-80505000D03*
X139270000Y-79235000D03*
X139270000Y-77965000D03*
X139270000Y-76695000D03*
D53*
X135910000Y-78600000D03*
D54*
X133805000Y-80505000D03*
X133805000Y-79235000D03*
X133805000Y-77965000D03*
X133805000Y-76695000D03*
D62*
X89650000Y-64850000D03*
X91850000Y-64850000D03*
X91850000Y-63150000D03*
X89650000Y-63150000D03*
D12*
X91571000Y-86122000D03*
X93121000Y-86122000D03*
D51*
X124100000Y-95350000D03*
X124100000Y-96000000D03*
X124100000Y-96650000D03*
X126000000Y-96650000D03*
X126000000Y-95350000D03*
D12*
X94145000Y-58275000D03*
X95695000Y-58275000D03*
D63*
X70525000Y-105175000D03*
X71175000Y-105175000D03*
X71825000Y-105175000D03*
X71825000Y-103275000D03*
X70525000Y-103275000D03*
D24*
X107055000Y-86230000D03*
X105405000Y-86230000D03*
D28*
X127860000Y-70100000D03*
X121360000Y-70100000D03*
D64*
X84300000Y-108230000D03*
X85100000Y-108230000D03*
X86400000Y-108230000D03*
X87400000Y-108230000D03*
X87900000Y-108230000D03*
X88900000Y-108230000D03*
X90200000Y-108230000D03*
X91000000Y-108230000D03*
X90700000Y-108230000D03*
X89900000Y-108230000D03*
X89400000Y-108230000D03*
X88400000Y-108230000D03*
X86900000Y-108230000D03*
X85900000Y-108230000D03*
X85400000Y-108230000D03*
X84600000Y-108230000D03*
D48*
X104480000Y-45790000D03*
X102380000Y-45790000D03*
D36*
X147315000Y-73605000D03*
X148585000Y-73605000D03*
X149855000Y-73605000D03*
X151125000Y-73605000D03*
X151125000Y-68655000D03*
X149855000Y-68655000D03*
X148585000Y-68655000D03*
X147315000Y-68655000D03*
D15*
X162780000Y-95245000D03*
X162780000Y-96895000D03*
D24*
X79325000Y-71450000D03*
X77675000Y-71450000D03*
D26*
X150935000Y-58105000D03*
X149665000Y-58105000D03*
X148395000Y-58105000D03*
X147125000Y-58105000D03*
X147125000Y-63055000D03*
X148395000Y-63055000D03*
X149665000Y-63055000D03*
X150935000Y-63055000D03*
D55*
X100600000Y-52400000D03*
X99100000Y-52400000D03*
X99100000Y-55100000D03*
X100600000Y-55100000D03*
D12*
X129275000Y-95300000D03*
X130825000Y-95300000D03*
D24*
X107045000Y-61205000D03*
X105395000Y-61205000D03*
D65*
X104965000Y-103106000D03*
X104965000Y-104376000D03*
X104965000Y-105646000D03*
X104965000Y-106916000D03*
X104965000Y-108186000D03*
X104965000Y-109456000D03*
X104965000Y-110726000D03*
X104965000Y-111996000D03*
X104965000Y-113266000D03*
X114265000Y-113266000D03*
X114265000Y-111996000D03*
X114265000Y-110726000D03*
X114265000Y-109456000D03*
X114265000Y-108186000D03*
X114265000Y-106916000D03*
X114265000Y-105646000D03*
X114265000Y-104376000D03*
X114265000Y-103106000D03*
D49*
X108460000Y-48180000D03*
X111760000Y-48180000D03*
D52*
X139270000Y-89955000D03*
X139270000Y-88685000D03*
X139270000Y-87415000D03*
X139270000Y-86145000D03*
D53*
X135910000Y-88050000D03*
D54*
X133805000Y-89955000D03*
X133805000Y-88685000D03*
X133805000Y-87415000D03*
X133805000Y-86145000D03*
D56*
X142630000Y-94645000D03*
X142630000Y-96545000D03*
X144730000Y-95595000D03*
D43*
X169130000Y-57865000D03*
X167330000Y-57865000D03*
X165530000Y-57865000D03*
X169130000Y-59665000D03*
X167330000Y-59665000D03*
X165530000Y-59665000D03*
D44*
X171680000Y-57795000D03*
X171680000Y-59735000D03*
D17*
X64039000Y-106158000D03*
X64039000Y-104508000D03*
X72915000Y-42045000D03*
X72915000Y-40395000D03*
D40*
X162944000Y-70865000D03*
X162944000Y-69065000D03*
X162944000Y-67265000D03*
X161144000Y-70865000D03*
X161144000Y-69065000D03*
X161144000Y-67265000D03*
D41*
X163014000Y-73415000D03*
X161074000Y-73415000D03*
D66*
X78295000Y-47240000D03*
X78295000Y-43540000D03*
D11*
X83294000Y-97125000D03*
X83294000Y-98675000D03*
D31*
X136425000Y-73950000D03*
X139375000Y-73950000D03*
D11*
X113595000Y-89618200D03*
X113595000Y-91168200D03*
D12*
X94145000Y-59790000D03*
X95695000Y-59790000D03*
X105430900Y-64625000D03*
X106980900Y-64625000D03*
D30*
X96157000Y-71951000D03*
X103557000Y-71951000D03*
D17*
X86222000Y-101725000D03*
X86222000Y-100075000D03*
D40*
X160835000Y-61550000D03*
X160835000Y-63350000D03*
X160835000Y-65150000D03*
X162635000Y-61550000D03*
X162635000Y-63350000D03*
X162635000Y-65150000D03*
D41*
X160765000Y-59000000D03*
X162705000Y-59000000D03*
D67*
X148660000Y-65005000D03*
X147700000Y-65005000D03*
D12*
X147310000Y-66620000D03*
X148860000Y-66620000D03*
D11*
X77410000Y-40205000D03*
X77410000Y-41755000D03*
D12*
X101302000Y-107388000D03*
X102852000Y-107388000D03*
D40*
X170454000Y-44255000D03*
X170454000Y-42455000D03*
X170454000Y-40655000D03*
X168654000Y-44255000D03*
X168654000Y-42455000D03*
X168654000Y-40655000D03*
D41*
X170524000Y-46805000D03*
X168584000Y-46805000D03*
D43*
X169100000Y-72935000D03*
X167300000Y-72935000D03*
X165500000Y-72935000D03*
X169100000Y-74735000D03*
X167300000Y-74735000D03*
X165500000Y-74735000D03*
D44*
X171650000Y-72865000D03*
X171650000Y-74805000D03*
D48*
X89700000Y-52900000D03*
X91800000Y-52900000D03*
D16*
X92660000Y-56525000D03*
X92660000Y-54975000D03*
D48*
X107160000Y-83030000D03*
X105060000Y-83030000D03*
D40*
X149279000Y-80790000D03*
X149279000Y-78990000D03*
X149279000Y-77190000D03*
X147479000Y-80790000D03*
X147479000Y-78990000D03*
X147479000Y-77190000D03*
D41*
X149349000Y-83340000D03*
X147409000Y-83340000D03*
D11*
X91426000Y-96399000D03*
X91426000Y-97949000D03*
D68*
X65805000Y-106102500D03*
X65805000Y-104527500D03*
D32*
X141345000Y-73160500D03*
X142615000Y-73160500D03*
X143885000Y-73160500D03*
X145155000Y-73160500D03*
D33*
X143250000Y-69800500D03*
D34*
X141345000Y-67695500D03*
X142615000Y-67695500D03*
X143885000Y-67695500D03*
X145155000Y-67695500D03*
D52*
X139270000Y-71905000D03*
X139270000Y-70635000D03*
X139270000Y-69365000D03*
X139270000Y-68095000D03*
D53*
X135910000Y-70000000D03*
D54*
X133805000Y-71905000D03*
X133805000Y-70635000D03*
X133805000Y-69365000D03*
X133805000Y-68095000D03*
D69*
X97636000Y-85002000D03*
X96616000Y-85002000D03*
D12*
X94291000Y-90764000D03*
X95841000Y-90764000D03*
D11*
X79150000Y-40205000D03*
X79150000Y-41755000D03*
D70*
X133045000Y-96982500D03*
X133045000Y-95157500D03*
D24*
X79325000Y-58000000D03*
X77675000Y-58000000D03*
X114120000Y-96505000D03*
X112470000Y-96505000D03*
D71*
X150095000Y-40455000D03*
X151055000Y-40455000D03*
D10*
X79275000Y-56388000D03*
X77725000Y-56388000D03*
D55*
X97550000Y-52400000D03*
X96050000Y-52400000D03*
X96050000Y-55100000D03*
X97550000Y-55100000D03*
D71*
X146940000Y-92525000D03*
X147900000Y-92525000D03*
D26*
X150678000Y-85701000D03*
X149408000Y-85701000D03*
X148138000Y-85701000D03*
X146868000Y-85701000D03*
X146868000Y-90651000D03*
X148138000Y-90651000D03*
X149408000Y-90651000D03*
X150678000Y-90651000D03*
D72*
X164050000Y-106655000D03*
X165320000Y-106655000D03*
X166590000Y-106655000D03*
X167860000Y-106655000D03*
X169130000Y-106655000D03*
X170400000Y-106655000D03*
X170400000Y-99035000D03*
X169130000Y-99035000D03*
X167860000Y-99035000D03*
X166590000Y-99035000D03*
X165320000Y-99035000D03*
X164050000Y-99035000D03*
D42*
X154405000Y-96630000D03*
X156055000Y-96630000D03*
D73*
X89165800Y-56574000D03*
X89165800Y-55624000D03*
X89165800Y-54674000D03*
X86890800Y-54674000D03*
X86890800Y-55624000D03*
X86890800Y-56574000D03*
D16*
X97462000Y-83529000D03*
X97462000Y-81979000D03*
D12*
X100840000Y-58175000D03*
X102390000Y-58175000D03*
D24*
X83075000Y-62460000D03*
X81425000Y-62460000D03*
D12*
X94301000Y-92254000D03*
X95851000Y-92254000D03*
D48*
X107135000Y-74700000D03*
X105035000Y-74700000D03*
X107135000Y-71270000D03*
X105035000Y-71270000D03*
D24*
X107045000Y-52831000D03*
X105395000Y-52831000D03*
D23*
X116145000Y-82630900D03*
X116145000Y-87730900D03*
D22*
X83175000Y-55195000D03*
X81275000Y-55195000D03*
D58*
X102729000Y-111424000D03*
X102729000Y-109224000D03*
X101029000Y-109224000D03*
X101029000Y-111424000D03*
D49*
X100350000Y-78405900D03*
X103650000Y-78405900D03*
D24*
X79325000Y-64750000D03*
X77675000Y-64750000D03*
D12*
X105455000Y-81315000D03*
X107005000Y-81315000D03*
X74380000Y-41730000D03*
X75930000Y-41730000D03*
D24*
X79325000Y-68010000D03*
X77675000Y-68010000D03*
D22*
X82925000Y-65025000D03*
X81025000Y-65025000D03*
D28*
X127860000Y-61070000D03*
X121360000Y-61070000D03*
D48*
X107165000Y-87930000D03*
X105065000Y-87930000D03*
D67*
X151110000Y-66815000D03*
X150150000Y-66815000D03*
D10*
X79275000Y-51437000D03*
X77725000Y-51437000D03*
D74*
X70720000Y-46390000D03*
X70720000Y-44490000D03*
D75*
X82680000Y-42967500D03*
X82680000Y-40042500D03*
D12*
X109455000Y-96505000D03*
X111005000Y-96505000D03*
D10*
X80341000Y-93874000D03*
X78791000Y-93874000D03*
D12*
X73581000Y-87484000D03*
X75131000Y-87484000D03*
X92851000Y-94274000D03*
X94401000Y-94274000D03*
D76*
X136030000Y-95725000D03*
X140030000Y-95725000D03*
D12*
X147075000Y-40225000D03*
X148625000Y-40225000D03*
D48*
X107125000Y-79585000D03*
X105025000Y-79585000D03*
D42*
X157455000Y-96640000D03*
X159105000Y-96640000D03*
D31*
X136175000Y-63250000D03*
X139125000Y-63250000D03*
D12*
X69880000Y-42110000D03*
X71430000Y-42110000D03*
D23*
X116115000Y-50545900D03*
X116115000Y-55645900D03*
D49*
X108435000Y-57970000D03*
X111735000Y-57970000D03*
D12*
X113075000Y-101360000D03*
X114625000Y-101360000D03*
D22*
X91955000Y-47520000D03*
X90055000Y-47520000D03*
D17*
X127465000Y-96885000D03*
X127465000Y-95235000D03*
D43*
X169095000Y-63071000D03*
X167295000Y-63071000D03*
X165495000Y-63071000D03*
X169095000Y-64871000D03*
X167295000Y-64871000D03*
X165495000Y-64871000D03*
D44*
X171645000Y-63001000D03*
X171645000Y-64941000D03*
D10*
X79275000Y-59598000D03*
X77725000Y-59598000D03*
D77*
X103192000Y-80632000D03*
X101922000Y-80632000D03*
X100652000Y-80632000D03*
X99382000Y-80632000D03*
X99382000Y-87832000D03*
X100652000Y-87832000D03*
X101922000Y-87832000D03*
X103192000Y-87832000D03*
D42*
X79735000Y-103580000D03*
X81385000Y-103580000D03*
D17*
X85030000Y-45160000D03*
X85030000Y-43510000D03*
D12*
X105424100Y-72985000D03*
X106974100Y-72985000D03*
D42*
X77675000Y-61162000D03*
X79325000Y-61162000D03*
D12*
X81985000Y-44690000D03*
X83535000Y-44690000D03*
D64*
X71800000Y-108230000D03*
X72600000Y-108230000D03*
X73900000Y-108230000D03*
X74900000Y-108230000D03*
X75400000Y-108230000D03*
X76400000Y-108230000D03*
X77700000Y-108230000D03*
X78500000Y-108230000D03*
X78200000Y-108230000D03*
X77400000Y-108230000D03*
X76900000Y-108230000D03*
X75900000Y-108230000D03*
X74400000Y-108230000D03*
X73400000Y-108230000D03*
X72900000Y-108230000D03*
X72100000Y-108230000D03*
D24*
X79861000Y-90674000D03*
X78211000Y-90674000D03*
X145295000Y-84540000D03*
X143645000Y-84540000D03*
X142585000Y-56710000D03*
X140935000Y-56710000D03*
G36*
X73750500Y-60413263D02*
G01*
X73786737Y-60449500D01*
X73800000Y-60499000D01*
X73800000Y-61801000D01*
X73786737Y-61850500D01*
X73750500Y-61886737D01*
X73701000Y-61900000D01*
X71699000Y-61900000D01*
X71649500Y-61886737D01*
X71613263Y-61850500D01*
X71600000Y-61801000D01*
X71600000Y-60499000D01*
X71613263Y-60449500D01*
X71649500Y-60413263D01*
X71699000Y-60400000D01*
X73701000Y-60400000D01*
X73750500Y-60413263D01*
G37*
M02*
