G04 #@! TF.GenerationSoftware,KiCad,Pcbnew,6.0.0-rc2*
G04 #@! TF.CreationDate,2022-06-17T00:24:21-07:00*
G04 #@! TF.ProjectId,RP2040_motor,52503230-3430-45f6-9d6f-746f722e6b69,REV1*
G04 #@! TF.SameCoordinates,Original*
G04 #@! TF.FileFunction,Legend,Bot*
G04 #@! TF.FilePolarity,Positive*
%FSLAX46Y46*%
G04 Gerber Fmt 4.6, Leading zero omitted, Abs format (unit mm)*
G04 Created by KiCad (PCBNEW 6.0.0-rc2) date 2022-06-17 00:24:21*
%MOMM*%
%LPD*%
G01*
G04 APERTURE LIST*
G04 Aperture macros list*
%AMRoundRect*
0 Rectangle with rounded corners*
0 $1 Rounding radius*
0 $2 $3 $4 $5 $6 $7 $8 $9 X,Y pos of 4 corners*
0 Add a 4 corners polygon primitive as box body*
4,1,4,$2,$3,$4,$5,$6,$7,$8,$9,$2,$3,0*
0 Add four circle primitives for the rounded corners*
1,1,$1+$1,$2,$3*
1,1,$1+$1,$4,$5*
1,1,$1+$1,$6,$7*
1,1,$1+$1,$8,$9*
0 Add four rect primitives between the rounded corners*
20,1,$1+$1,$2,$3,$4,$5,0*
20,1,$1+$1,$4,$5,$6,$7,0*
20,1,$1+$1,$6,$7,$8,$9,0*
20,1,$1+$1,$8,$9,$2,$3,0*%
G04 Aperture macros list end*
%ADD10C,0.200000*%
%ADD11C,0.300000*%
%ADD12RoundRect,0.301000X0.845000X-0.620000X0.845000X0.620000X-0.845000X0.620000X-0.845000X-0.620000X0*%
%ADD13O,2.292000X1.842000*%
%ADD14C,2.102000*%
%ADD15C,4.102000*%
%ADD16C,6.102000*%
%ADD17RoundRect,0.301000X0.620000X0.845000X-0.620000X0.845000X-0.620000X-0.845000X0.620000X-0.845000X0*%
%ADD18O,1.842000X2.292000*%
%ADD19C,0.752000*%
%ADD20O,1.102000X2.202000*%
%ADD21O,1.102000X1.702000*%
G04 APERTURE END LIST*
D10*
X82000000Y-115971428D02*
X82000000Y-115471428D01*
X81266666Y-115257142D02*
X81266666Y-115971428D01*
X82666666Y-115971428D01*
X82666666Y-115257142D01*
X81266666Y-114614285D02*
X82666666Y-114614285D01*
X81266666Y-113757142D01*
X82666666Y-113757142D01*
X81400000Y-112185714D02*
X81333333Y-112257142D01*
X81266666Y-112471428D01*
X81266666Y-112614285D01*
X81333333Y-112828571D01*
X81466666Y-112971428D01*
X81600000Y-113042857D01*
X81866666Y-113114285D01*
X82066666Y-113114285D01*
X82333333Y-113042857D01*
X82466666Y-112971428D01*
X82600000Y-112828571D01*
X82666666Y-112614285D01*
X82666666Y-112471428D01*
X82600000Y-112257142D01*
X82533333Y-112185714D01*
X82533333Y-111614285D02*
X82600000Y-111542857D01*
X82666666Y-111400000D01*
X82666666Y-111042857D01*
X82600000Y-110900000D01*
X82533333Y-110828571D01*
X82400000Y-110757142D01*
X82266666Y-110757142D01*
X82066666Y-110828571D01*
X81266666Y-111685714D01*
X81266666Y-110757142D01*
X81183333Y-103150000D02*
X81116666Y-102935714D01*
X81116666Y-102578571D01*
X81183333Y-102435714D01*
X81250000Y-102364285D01*
X81383333Y-102292857D01*
X81516666Y-102292857D01*
X81650000Y-102364285D01*
X81716666Y-102435714D01*
X81783333Y-102578571D01*
X81850000Y-102864285D01*
X81916666Y-103007142D01*
X81983333Y-103078571D01*
X82116666Y-103150000D01*
X82250000Y-103150000D01*
X82383333Y-103078571D01*
X82450000Y-103007142D01*
X82516666Y-102864285D01*
X82516666Y-102507142D01*
X82450000Y-102292857D01*
X81116666Y-101650000D02*
X82516666Y-101650000D01*
X82516666Y-101078571D01*
X82450000Y-100935714D01*
X82383333Y-100864285D01*
X82250000Y-100792857D01*
X82050000Y-100792857D01*
X81916666Y-100864285D01*
X81850000Y-100935714D01*
X81783333Y-101078571D01*
X81783333Y-101650000D01*
X81116666Y-100150000D02*
X82516666Y-100150000D01*
X82583333Y-98364285D02*
X80783333Y-99650000D01*
X81850000Y-97864285D02*
X81850000Y-97364285D01*
X81116666Y-97150000D02*
X81116666Y-97864285D01*
X82516666Y-97864285D01*
X82516666Y-97150000D01*
X81116666Y-96507142D02*
X82516666Y-96507142D01*
X81116666Y-95650000D01*
X82516666Y-95650000D01*
X81250000Y-94078571D02*
X81183333Y-94150000D01*
X81116666Y-94364285D01*
X81116666Y-94507142D01*
X81183333Y-94721428D01*
X81316666Y-94864285D01*
X81450000Y-94935714D01*
X81716666Y-95007142D01*
X81916666Y-95007142D01*
X82183333Y-94935714D01*
X82316666Y-94864285D01*
X82450000Y-94721428D01*
X82516666Y-94507142D01*
X82516666Y-94364285D01*
X82450000Y-94150000D01*
X82383333Y-94078571D01*
X81116666Y-92650000D02*
X81116666Y-93507142D01*
X81116666Y-93078571D02*
X82516666Y-93078571D01*
X82316666Y-93221428D01*
X82183333Y-93364285D01*
X82116666Y-93507142D01*
X81015591Y-87329891D02*
X80948924Y-87115606D01*
X80948924Y-86758463D01*
X81015591Y-86615606D01*
X81082258Y-86544177D01*
X81215591Y-86472748D01*
X81348924Y-86472748D01*
X81482258Y-86544177D01*
X81548924Y-86615606D01*
X81615591Y-86758463D01*
X81682258Y-87044177D01*
X81748924Y-87187034D01*
X81815591Y-87258463D01*
X81948924Y-87329891D01*
X82082258Y-87329891D01*
X82215591Y-87258463D01*
X82282258Y-87187034D01*
X82348924Y-87044177D01*
X82348924Y-86687034D01*
X82282258Y-86472748D01*
X81015591Y-85258463D02*
X80948924Y-85401320D01*
X80948924Y-85687034D01*
X81015591Y-85829891D01*
X81148924Y-85901320D01*
X81682258Y-85901320D01*
X81815591Y-85829891D01*
X81882258Y-85687034D01*
X81882258Y-85401320D01*
X81815591Y-85258463D01*
X81682258Y-85187034D01*
X81548924Y-85187034D01*
X81415591Y-85901320D01*
X80948924Y-84544177D02*
X81882258Y-84544177D01*
X81615591Y-84544177D02*
X81748924Y-84472748D01*
X81815591Y-84401320D01*
X81882258Y-84258463D01*
X81882258Y-84115606D01*
X80948924Y-83615606D02*
X81882258Y-83615606D01*
X82348924Y-83615606D02*
X82282258Y-83687034D01*
X82215591Y-83615606D01*
X82282258Y-83544177D01*
X82348924Y-83615606D01*
X82215591Y-83615606D01*
X80948924Y-82258463D02*
X81682258Y-82258463D01*
X81815591Y-82329891D01*
X81882258Y-82472748D01*
X81882258Y-82758463D01*
X81815591Y-82901320D01*
X81015591Y-82258463D02*
X80948924Y-82401320D01*
X80948924Y-82758463D01*
X81015591Y-82901320D01*
X81148924Y-82972748D01*
X81282258Y-82972748D01*
X81415591Y-82901320D01*
X81482258Y-82758463D01*
X81482258Y-82401320D01*
X81548924Y-82258463D01*
X80948924Y-81329891D02*
X81015591Y-81472748D01*
X81148924Y-81544177D01*
X82348924Y-81544177D01*
X81266666Y-75014285D02*
X82666666Y-75014285D01*
X82533333Y-74371428D02*
X82600000Y-74300000D01*
X82666666Y-74157142D01*
X82666666Y-73800000D01*
X82600000Y-73657142D01*
X82533333Y-73585714D01*
X82400000Y-73514285D01*
X82266666Y-73514285D01*
X82066666Y-73585714D01*
X81266666Y-74442857D01*
X81266666Y-73514285D01*
X81400000Y-72014285D02*
X81333333Y-72085714D01*
X81266666Y-72300000D01*
X81266666Y-72442857D01*
X81333333Y-72657142D01*
X81466666Y-72800000D01*
X81600000Y-72871428D01*
X81866666Y-72942857D01*
X82066666Y-72942857D01*
X82333333Y-72871428D01*
X82466666Y-72800000D01*
X82600000Y-72657142D01*
X82666666Y-72442857D01*
X82666666Y-72300000D01*
X82600000Y-72085714D01*
X82533333Y-72014285D01*
X112014285Y-72433333D02*
X112014285Y-71033333D01*
X111442857Y-71033333D01*
X111300000Y-71100000D01*
X111228571Y-71166666D01*
X111157142Y-71300000D01*
X111157142Y-71500000D01*
X111228571Y-71633333D01*
X111300000Y-71700000D01*
X111442857Y-71766666D01*
X112014285Y-71766666D01*
X110300000Y-72433333D02*
X110442857Y-72366666D01*
X110514285Y-72233333D01*
X110514285Y-71033333D01*
X109157142Y-72366666D02*
X109300000Y-72433333D01*
X109585714Y-72433333D01*
X109728571Y-72366666D01*
X109800000Y-72233333D01*
X109800000Y-71700000D01*
X109728571Y-71566666D01*
X109585714Y-71500000D01*
X109300000Y-71500000D01*
X109157142Y-71566666D01*
X109085714Y-71700000D01*
X109085714Y-71833333D01*
X109800000Y-71966666D01*
X107800000Y-72433333D02*
X107800000Y-71700000D01*
X107871428Y-71566666D01*
X108014285Y-71500000D01*
X108300000Y-71500000D01*
X108442857Y-71566666D01*
X107800000Y-72366666D02*
X107942857Y-72433333D01*
X108300000Y-72433333D01*
X108442857Y-72366666D01*
X108514285Y-72233333D01*
X108514285Y-72100000D01*
X108442857Y-71966666D01*
X108300000Y-71900000D01*
X107942857Y-71900000D01*
X107800000Y-71833333D01*
X107157142Y-72366666D02*
X107014285Y-72433333D01*
X106728571Y-72433333D01*
X106585714Y-72366666D01*
X106514285Y-72233333D01*
X106514285Y-72166666D01*
X106585714Y-72033333D01*
X106728571Y-71966666D01*
X106942857Y-71966666D01*
X107085714Y-71900000D01*
X107157142Y-71766666D01*
X107157142Y-71700000D01*
X107085714Y-71566666D01*
X106942857Y-71500000D01*
X106728571Y-71500000D01*
X106585714Y-71566666D01*
X105300000Y-72366666D02*
X105442857Y-72433333D01*
X105728571Y-72433333D01*
X105871428Y-72366666D01*
X105942857Y-72233333D01*
X105942857Y-71700000D01*
X105871428Y-71566666D01*
X105728571Y-71500000D01*
X105442857Y-71500000D01*
X105300000Y-71566666D01*
X105228571Y-71700000D01*
X105228571Y-71833333D01*
X105942857Y-71966666D01*
X102800000Y-72366666D02*
X102942857Y-72433333D01*
X103228571Y-72433333D01*
X103371428Y-72366666D01*
X103442857Y-72300000D01*
X103514285Y-72166666D01*
X103514285Y-71766666D01*
X103442857Y-71633333D01*
X103371428Y-71566666D01*
X103228571Y-71500000D01*
X102942857Y-71500000D01*
X102800000Y-71566666D01*
X101942857Y-72433333D02*
X102085714Y-72366666D01*
X102157142Y-72233333D01*
X102157142Y-71033333D01*
X101157142Y-72433333D02*
X101300000Y-72366666D01*
X101371428Y-72300000D01*
X101442857Y-72166666D01*
X101442857Y-71766666D01*
X101371428Y-71633333D01*
X101300000Y-71566666D01*
X101157142Y-71500000D01*
X100942857Y-71500000D01*
X100800000Y-71566666D01*
X100728571Y-71633333D01*
X100657142Y-71766666D01*
X100657142Y-72166666D01*
X100728571Y-72300000D01*
X100800000Y-72366666D01*
X100942857Y-72433333D01*
X101157142Y-72433333D01*
X100014285Y-71500000D02*
X100014285Y-72433333D01*
X100014285Y-71633333D02*
X99942857Y-71566666D01*
X99800000Y-71500000D01*
X99585714Y-71500000D01*
X99442857Y-71566666D01*
X99371428Y-71700000D01*
X99371428Y-72433333D01*
X98085714Y-72366666D02*
X98228571Y-72433333D01*
X98514285Y-72433333D01*
X98657142Y-72366666D01*
X98728571Y-72233333D01*
X98728571Y-71700000D01*
X98657142Y-71566666D01*
X98514285Y-71500000D01*
X98228571Y-71500000D01*
X98085714Y-71566666D01*
X98014285Y-71700000D01*
X98014285Y-71833333D01*
X98728571Y-71966666D01*
X96442857Y-71500000D02*
X95871428Y-71500000D01*
X96228571Y-71033333D02*
X96228571Y-72233333D01*
X96157142Y-72366666D01*
X96014285Y-72433333D01*
X95871428Y-72433333D01*
X95371428Y-72433333D02*
X95371428Y-71033333D01*
X94728571Y-72433333D02*
X94728571Y-71700000D01*
X94800000Y-71566666D01*
X94942857Y-71500000D01*
X95157142Y-71500000D01*
X95300000Y-71566666D01*
X95371428Y-71633333D01*
X94014285Y-72433333D02*
X94014285Y-71500000D01*
X94014285Y-71033333D02*
X94085714Y-71100000D01*
X94014285Y-71166666D01*
X93942857Y-71100000D01*
X94014285Y-71033333D01*
X94014285Y-71166666D01*
X93371428Y-72366666D02*
X93228571Y-72433333D01*
X92942857Y-72433333D01*
X92800000Y-72366666D01*
X92728571Y-72233333D01*
X92728571Y-72166666D01*
X92800000Y-72033333D01*
X92942857Y-71966666D01*
X93157142Y-71966666D01*
X93300000Y-71900000D01*
X93371428Y-71766666D01*
X93371428Y-71700000D01*
X93300000Y-71566666D01*
X93157142Y-71500000D01*
X92942857Y-71500000D01*
X92800000Y-71566666D01*
X90942857Y-72433333D02*
X90942857Y-71033333D01*
X90942857Y-71566666D02*
X90800000Y-71500000D01*
X90514285Y-71500000D01*
X90371428Y-71566666D01*
X90300000Y-71633333D01*
X90228571Y-71766666D01*
X90228571Y-72166666D01*
X90300000Y-72300000D01*
X90371428Y-72366666D01*
X90514285Y-72433333D01*
X90800000Y-72433333D01*
X90942857Y-72366666D01*
X89371428Y-72433333D02*
X89514285Y-72366666D01*
X89585714Y-72300000D01*
X89657142Y-72166666D01*
X89657142Y-71766666D01*
X89585714Y-71633333D01*
X89514285Y-71566666D01*
X89371428Y-71500000D01*
X89157142Y-71500000D01*
X89014285Y-71566666D01*
X88942857Y-71633333D01*
X88871428Y-71766666D01*
X88871428Y-72166666D01*
X88942857Y-72300000D01*
X89014285Y-72366666D01*
X89157142Y-72433333D01*
X89371428Y-72433333D01*
X87585714Y-72433333D02*
X87585714Y-71700000D01*
X87657142Y-71566666D01*
X87800000Y-71500000D01*
X88085714Y-71500000D01*
X88228571Y-71566666D01*
X87585714Y-72366666D02*
X87728571Y-72433333D01*
X88085714Y-72433333D01*
X88228571Y-72366666D01*
X88300000Y-72233333D01*
X88300000Y-72100000D01*
X88228571Y-71966666D01*
X88085714Y-71900000D01*
X87728571Y-71900000D01*
X87585714Y-71833333D01*
X86871428Y-72433333D02*
X86871428Y-71500000D01*
X86871428Y-71766666D02*
X86800000Y-71633333D01*
X86728571Y-71566666D01*
X86585714Y-71500000D01*
X86442857Y-71500000D01*
X85300000Y-72433333D02*
X85300000Y-71033333D01*
X85300000Y-72366666D02*
X85442857Y-72433333D01*
X85728571Y-72433333D01*
X85871428Y-72366666D01*
X85942857Y-72300000D01*
X86014285Y-72166666D01*
X86014285Y-71766666D01*
X85942857Y-71633333D01*
X85871428Y-71566666D01*
X85728571Y-71500000D01*
X85442857Y-71500000D01*
X85300000Y-71566666D01*
X84585714Y-72300000D02*
X84514285Y-72366666D01*
X84585714Y-72433333D01*
X84657142Y-72366666D01*
X84585714Y-72300000D01*
X84585714Y-72433333D01*
X84585714Y-71900000D02*
X84657142Y-71100000D01*
X84585714Y-71033333D01*
X84514285Y-71100000D01*
X84585714Y-71900000D01*
X84585714Y-71033333D01*
X146010857Y-69685714D02*
X146010857Y-70371428D01*
X147210857Y-70028571D02*
X146010857Y-70028571D01*
X147210857Y-70771428D02*
X146010857Y-70771428D01*
X147210857Y-71285714D02*
X146582285Y-71285714D01*
X146468000Y-71228571D01*
X146410857Y-71114285D01*
X146410857Y-70942857D01*
X146468000Y-70828571D01*
X146525142Y-70771428D01*
X147153714Y-72314285D02*
X147210857Y-72200000D01*
X147210857Y-71971428D01*
X147153714Y-71857142D01*
X147039428Y-71800000D01*
X146582285Y-71800000D01*
X146468000Y-71857142D01*
X146410857Y-71971428D01*
X146410857Y-72200000D01*
X146468000Y-72314285D01*
X146582285Y-72371428D01*
X146696571Y-72371428D01*
X146810857Y-71800000D01*
X147153714Y-73742857D02*
X147210857Y-73857142D01*
X147210857Y-74085714D01*
X147153714Y-74200000D01*
X147039428Y-74257142D01*
X146982285Y-74257142D01*
X146868000Y-74200000D01*
X146810857Y-74085714D01*
X146810857Y-73914285D01*
X146753714Y-73800000D01*
X146639428Y-73742857D01*
X146582285Y-73742857D01*
X146468000Y-73800000D01*
X146410857Y-73914285D01*
X146410857Y-74085714D01*
X146468000Y-74200000D01*
X147210857Y-74771428D02*
X146410857Y-74771428D01*
X146525142Y-74771428D02*
X146468000Y-74828571D01*
X146410857Y-74942857D01*
X146410857Y-75114285D01*
X146468000Y-75228571D01*
X146582285Y-75285714D01*
X147210857Y-75285714D01*
X146582285Y-75285714D02*
X146468000Y-75342857D01*
X146410857Y-75457142D01*
X146410857Y-75628571D01*
X146468000Y-75742857D01*
X146582285Y-75800000D01*
X147210857Y-75800000D01*
X147210857Y-76885714D02*
X146582285Y-76885714D01*
X146468000Y-76828571D01*
X146410857Y-76714285D01*
X146410857Y-76485714D01*
X146468000Y-76371428D01*
X147153714Y-76885714D02*
X147210857Y-76771428D01*
X147210857Y-76485714D01*
X147153714Y-76371428D01*
X147039428Y-76314285D01*
X146925142Y-76314285D01*
X146810857Y-76371428D01*
X146753714Y-76485714D01*
X146753714Y-76771428D01*
X146696571Y-76885714D01*
X147210857Y-77628571D02*
X147153714Y-77514285D01*
X147039428Y-77457142D01*
X146010857Y-77457142D01*
X147210857Y-78257142D02*
X147153714Y-78142857D01*
X147039428Y-78085714D01*
X146010857Y-78085714D01*
X147153714Y-79171428D02*
X147210857Y-79057142D01*
X147210857Y-78828571D01*
X147153714Y-78714285D01*
X147039428Y-78657142D01*
X146582285Y-78657142D01*
X146468000Y-78714285D01*
X146410857Y-78828571D01*
X146410857Y-79057142D01*
X146468000Y-79171428D01*
X146582285Y-79228571D01*
X146696571Y-79228571D01*
X146810857Y-78657142D01*
X147153714Y-79685714D02*
X147210857Y-79800000D01*
X147210857Y-80028571D01*
X147153714Y-80142857D01*
X147039428Y-80200000D01*
X146982285Y-80200000D01*
X146868000Y-80142857D01*
X146810857Y-80028571D01*
X146810857Y-79857142D01*
X146753714Y-79742857D01*
X146639428Y-79685714D01*
X146582285Y-79685714D01*
X146468000Y-79742857D01*
X146410857Y-79857142D01*
X146410857Y-80028571D01*
X146468000Y-80142857D01*
X146410857Y-80542857D02*
X146410857Y-81000000D01*
X146010857Y-80714285D02*
X147039428Y-80714285D01*
X147153714Y-80771428D01*
X147210857Y-80885714D01*
X147210857Y-81000000D01*
X147153714Y-82828571D02*
X147210857Y-82714285D01*
X147210857Y-82485714D01*
X147153714Y-82371428D01*
X147096571Y-82314285D01*
X146982285Y-82257142D01*
X146639428Y-82257142D01*
X146525142Y-82314285D01*
X146468000Y-82371428D01*
X146410857Y-82485714D01*
X146410857Y-82714285D01*
X146468000Y-82828571D01*
X147210857Y-83342857D02*
X146010857Y-83342857D01*
X147210857Y-83857142D02*
X146582285Y-83857142D01*
X146468000Y-83800000D01*
X146410857Y-83685714D01*
X146410857Y-83514285D01*
X146468000Y-83400000D01*
X146525142Y-83342857D01*
X147210857Y-84942857D02*
X146582285Y-84942857D01*
X146468000Y-84885714D01*
X146410857Y-84771428D01*
X146410857Y-84542857D01*
X146468000Y-84428571D01*
X147153714Y-84942857D02*
X147210857Y-84828571D01*
X147210857Y-84542857D01*
X147153714Y-84428571D01*
X147039428Y-84371428D01*
X146925142Y-84371428D01*
X146810857Y-84428571D01*
X146753714Y-84542857D01*
X146753714Y-84828571D01*
X146696571Y-84942857D01*
X146410857Y-85514285D02*
X147210857Y-85514285D01*
X146525142Y-85514285D02*
X146468000Y-85571428D01*
X146410857Y-85685714D01*
X146410857Y-85857142D01*
X146468000Y-85971428D01*
X146582285Y-86028571D01*
X147210857Y-86028571D01*
X146410857Y-87114285D02*
X147382285Y-87114285D01*
X147496571Y-87057142D01*
X147553714Y-87000000D01*
X147610857Y-86885714D01*
X147610857Y-86714285D01*
X147553714Y-86600000D01*
X147153714Y-87114285D02*
X147210857Y-87000000D01*
X147210857Y-86771428D01*
X147153714Y-86657142D01*
X147096571Y-86600000D01*
X146982285Y-86542857D01*
X146639428Y-86542857D01*
X146525142Y-86600000D01*
X146468000Y-86657142D01*
X146410857Y-86771428D01*
X146410857Y-87000000D01*
X146468000Y-87114285D01*
X147153714Y-88142857D02*
X147210857Y-88028571D01*
X147210857Y-87800000D01*
X147153714Y-87685714D01*
X147039428Y-87628571D01*
X146582285Y-87628571D01*
X146468000Y-87685714D01*
X146410857Y-87800000D01*
X146410857Y-88028571D01*
X146468000Y-88142857D01*
X146582285Y-88200000D01*
X146696571Y-88200000D01*
X146810857Y-87628571D01*
X149085714Y-70028571D02*
X149142857Y-69914285D01*
X149142857Y-69685714D01*
X149085714Y-69571428D01*
X149028571Y-69514285D01*
X148914285Y-69457142D01*
X148571428Y-69457142D01*
X148457142Y-69514285D01*
X148400000Y-69571428D01*
X148342857Y-69685714D01*
X148342857Y-69914285D01*
X148400000Y-70028571D01*
X149142857Y-71057142D02*
X148514285Y-71057142D01*
X148400000Y-71000000D01*
X148342857Y-70885714D01*
X148342857Y-70657142D01*
X148400000Y-70542857D01*
X149085714Y-71057142D02*
X149142857Y-70942857D01*
X149142857Y-70657142D01*
X149085714Y-70542857D01*
X148971428Y-70485714D01*
X148857142Y-70485714D01*
X148742857Y-70542857D01*
X148685714Y-70657142D01*
X148685714Y-70942857D01*
X148628571Y-71057142D01*
X148342857Y-71628571D02*
X149142857Y-71628571D01*
X148457142Y-71628571D02*
X148400000Y-71685714D01*
X148342857Y-71800000D01*
X148342857Y-71971428D01*
X148400000Y-72085714D01*
X148514285Y-72142857D01*
X149142857Y-72142857D01*
X149142857Y-73628571D02*
X147942857Y-73628571D01*
X148400000Y-73628571D02*
X148342857Y-73742857D01*
X148342857Y-73971428D01*
X148400000Y-74085714D01*
X148457142Y-74142857D01*
X148571428Y-74200000D01*
X148914285Y-74200000D01*
X149028571Y-74142857D01*
X149085714Y-74085714D01*
X149142857Y-73971428D01*
X149142857Y-73742857D01*
X149085714Y-73628571D01*
X149085714Y-75171428D02*
X149142857Y-75057142D01*
X149142857Y-74828571D01*
X149085714Y-74714285D01*
X148971428Y-74657142D01*
X148514285Y-74657142D01*
X148400000Y-74714285D01*
X148342857Y-74828571D01*
X148342857Y-75057142D01*
X148400000Y-75171428D01*
X148514285Y-75228571D01*
X148628571Y-75228571D01*
X148742857Y-74657142D01*
X148342857Y-76485714D02*
X148342857Y-76942857D01*
X147942857Y-76657142D02*
X148971428Y-76657142D01*
X149085714Y-76714285D01*
X149142857Y-76828571D01*
X149142857Y-76942857D01*
X149142857Y-77342857D02*
X147942857Y-77342857D01*
X149142857Y-77857142D02*
X148514285Y-77857142D01*
X148400000Y-77800000D01*
X148342857Y-77685714D01*
X148342857Y-77514285D01*
X148400000Y-77400000D01*
X148457142Y-77342857D01*
X149085714Y-78885714D02*
X149142857Y-78771428D01*
X149142857Y-78542857D01*
X149085714Y-78428571D01*
X148971428Y-78371428D01*
X148514285Y-78371428D01*
X148400000Y-78428571D01*
X148342857Y-78542857D01*
X148342857Y-78771428D01*
X148400000Y-78885714D01*
X148514285Y-78942857D01*
X148628571Y-78942857D01*
X148742857Y-78371428D01*
X149142857Y-80371428D02*
X147942857Y-80371428D01*
X148400000Y-80371428D02*
X148342857Y-80485714D01*
X148342857Y-80714285D01*
X148400000Y-80828571D01*
X148457142Y-80885714D01*
X148571428Y-80942857D01*
X148914285Y-80942857D01*
X149028571Y-80885714D01*
X149085714Y-80828571D01*
X149142857Y-80714285D01*
X149142857Y-80485714D01*
X149085714Y-80371428D01*
X149085714Y-81914285D02*
X149142857Y-81800000D01*
X149142857Y-81571428D01*
X149085714Y-81457142D01*
X148971428Y-81400000D01*
X148514285Y-81400000D01*
X148400000Y-81457142D01*
X148342857Y-81571428D01*
X148342857Y-81800000D01*
X148400000Y-81914285D01*
X148514285Y-81971428D01*
X148628571Y-81971428D01*
X148742857Y-81400000D01*
X148342857Y-83000000D02*
X149314285Y-83000000D01*
X149428571Y-82942857D01*
X149485714Y-82885714D01*
X149542857Y-82771428D01*
X149542857Y-82600000D01*
X149485714Y-82485714D01*
X149085714Y-83000000D02*
X149142857Y-82885714D01*
X149142857Y-82657142D01*
X149085714Y-82542857D01*
X149028571Y-82485714D01*
X148914285Y-82428571D01*
X148571428Y-82428571D01*
X148457142Y-82485714D01*
X148400000Y-82542857D01*
X148342857Y-82657142D01*
X148342857Y-82885714D01*
X148400000Y-83000000D01*
X149142857Y-83571428D02*
X148342857Y-83571428D01*
X147942857Y-83571428D02*
X148000000Y-83514285D01*
X148057142Y-83571428D01*
X148000000Y-83628571D01*
X147942857Y-83571428D01*
X148057142Y-83571428D01*
X148342857Y-84142857D02*
X149142857Y-84142857D01*
X148457142Y-84142857D02*
X148400000Y-84200000D01*
X148342857Y-84314285D01*
X148342857Y-84485714D01*
X148400000Y-84600000D01*
X148514285Y-84657142D01*
X149142857Y-84657142D01*
X148342857Y-85228571D02*
X149142857Y-85228571D01*
X148457142Y-85228571D02*
X148400000Y-85285714D01*
X148342857Y-85400000D01*
X148342857Y-85571428D01*
X148400000Y-85685714D01*
X148514285Y-85742857D01*
X149142857Y-85742857D01*
X149142857Y-86314285D02*
X148342857Y-86314285D01*
X147942857Y-86314285D02*
X148000000Y-86257142D01*
X148057142Y-86314285D01*
X148000000Y-86371428D01*
X147942857Y-86314285D01*
X148057142Y-86314285D01*
X148342857Y-86885714D02*
X149142857Y-86885714D01*
X148457142Y-86885714D02*
X148400000Y-86942857D01*
X148342857Y-87057142D01*
X148342857Y-87228571D01*
X148400000Y-87342857D01*
X148514285Y-87400000D01*
X149142857Y-87400000D01*
X148342857Y-88485714D02*
X149314285Y-88485714D01*
X149428571Y-88428571D01*
X149485714Y-88371428D01*
X149542857Y-88257142D01*
X149542857Y-88085714D01*
X149485714Y-87971428D01*
X149085714Y-88485714D02*
X149142857Y-88371428D01*
X149142857Y-88142857D01*
X149085714Y-88028571D01*
X149028571Y-87971428D01*
X148914285Y-87914285D01*
X148571428Y-87914285D01*
X148457142Y-87971428D01*
X148400000Y-88028571D01*
X148342857Y-88142857D01*
X148342857Y-88371428D01*
X148400000Y-88485714D01*
X151074857Y-71400000D02*
X151017714Y-71285714D01*
X150960571Y-71228571D01*
X150846285Y-71171428D01*
X150503428Y-71171428D01*
X150389142Y-71228571D01*
X150332000Y-71285714D01*
X150274857Y-71400000D01*
X150274857Y-71571428D01*
X150332000Y-71685714D01*
X150389142Y-71742857D01*
X150503428Y-71800000D01*
X150846285Y-71800000D01*
X150960571Y-71742857D01*
X151017714Y-71685714D01*
X151074857Y-71571428D01*
X151074857Y-71400000D01*
X150274857Y-72142857D02*
X150274857Y-72600000D01*
X151074857Y-72314285D02*
X150046285Y-72314285D01*
X149932000Y-72371428D01*
X149874857Y-72485714D01*
X149874857Y-72600000D01*
X151017714Y-73857142D02*
X151074857Y-73971428D01*
X151074857Y-74200000D01*
X151017714Y-74314285D01*
X150903428Y-74371428D01*
X150846285Y-74371428D01*
X150732000Y-74314285D01*
X150674857Y-74200000D01*
X150674857Y-74028571D01*
X150617714Y-73914285D01*
X150503428Y-73857142D01*
X150446285Y-73857142D01*
X150332000Y-73914285D01*
X150274857Y-74028571D01*
X150274857Y-74200000D01*
X150332000Y-74314285D01*
X151074857Y-75057142D02*
X151017714Y-74942857D01*
X150960571Y-74885714D01*
X150846285Y-74828571D01*
X150503428Y-74828571D01*
X150389142Y-74885714D01*
X150332000Y-74942857D01*
X150274857Y-75057142D01*
X150274857Y-75228571D01*
X150332000Y-75342857D01*
X150389142Y-75400000D01*
X150503428Y-75457142D01*
X150846285Y-75457142D01*
X150960571Y-75400000D01*
X151017714Y-75342857D01*
X151074857Y-75228571D01*
X151074857Y-75057142D01*
X151074857Y-75971428D02*
X150274857Y-75971428D01*
X150389142Y-75971428D02*
X150332000Y-76028571D01*
X150274857Y-76142857D01*
X150274857Y-76314285D01*
X150332000Y-76428571D01*
X150446285Y-76485714D01*
X151074857Y-76485714D01*
X150446285Y-76485714D02*
X150332000Y-76542857D01*
X150274857Y-76657142D01*
X150274857Y-76828571D01*
X150332000Y-76942857D01*
X150446285Y-77000000D01*
X151074857Y-77000000D01*
X151017714Y-78028571D02*
X151074857Y-77914285D01*
X151074857Y-77685714D01*
X151017714Y-77571428D01*
X150903428Y-77514285D01*
X150446285Y-77514285D01*
X150332000Y-77571428D01*
X150274857Y-77685714D01*
X150274857Y-77914285D01*
X150332000Y-78028571D01*
X150446285Y-78085714D01*
X150560571Y-78085714D01*
X150674857Y-77514285D01*
X150274857Y-78428571D02*
X150274857Y-78885714D01*
X149874857Y-78600000D02*
X150903428Y-78600000D01*
X151017714Y-78657142D01*
X151074857Y-78771428D01*
X151074857Y-78885714D01*
X151074857Y-79285714D02*
X149874857Y-79285714D01*
X151074857Y-79800000D02*
X150446285Y-79800000D01*
X150332000Y-79742857D01*
X150274857Y-79628571D01*
X150274857Y-79457142D01*
X150332000Y-79342857D01*
X150389142Y-79285714D01*
X151074857Y-80371428D02*
X150274857Y-80371428D01*
X149874857Y-80371428D02*
X149932000Y-80314285D01*
X149989142Y-80371428D01*
X149932000Y-80428571D01*
X149874857Y-80371428D01*
X149989142Y-80371428D01*
X150274857Y-80942857D02*
X151074857Y-80942857D01*
X150389142Y-80942857D02*
X150332000Y-81000000D01*
X150274857Y-81114285D01*
X150274857Y-81285714D01*
X150332000Y-81400000D01*
X150446285Y-81457142D01*
X151074857Y-81457142D01*
X150274857Y-82542857D02*
X151246285Y-82542857D01*
X151360571Y-82485714D01*
X151417714Y-82428571D01*
X151474857Y-82314285D01*
X151474857Y-82142857D01*
X151417714Y-82028571D01*
X151017714Y-82542857D02*
X151074857Y-82428571D01*
X151074857Y-82200000D01*
X151017714Y-82085714D01*
X150960571Y-82028571D01*
X150846285Y-81971428D01*
X150503428Y-81971428D01*
X150389142Y-82028571D01*
X150332000Y-82085714D01*
X150274857Y-82200000D01*
X150274857Y-82428571D01*
X150332000Y-82542857D01*
X151074857Y-84028571D02*
X149874857Y-84028571D01*
X150332000Y-84028571D02*
X150274857Y-84142857D01*
X150274857Y-84371428D01*
X150332000Y-84485714D01*
X150389142Y-84542857D01*
X150503428Y-84600000D01*
X150846285Y-84600000D01*
X150960571Y-84542857D01*
X151017714Y-84485714D01*
X151074857Y-84371428D01*
X151074857Y-84142857D01*
X151017714Y-84028571D01*
X151074857Y-85114285D02*
X150274857Y-85114285D01*
X149874857Y-85114285D02*
X149932000Y-85057142D01*
X149989142Y-85114285D01*
X149932000Y-85171428D01*
X149874857Y-85114285D01*
X149989142Y-85114285D01*
X150274857Y-86200000D02*
X151246285Y-86200000D01*
X151360571Y-86142857D01*
X151417714Y-86085714D01*
X151474857Y-85971428D01*
X151474857Y-85800000D01*
X151417714Y-85685714D01*
X151017714Y-86200000D02*
X151074857Y-86085714D01*
X151074857Y-85857142D01*
X151017714Y-85742857D01*
X150960571Y-85685714D01*
X150846285Y-85628571D01*
X150503428Y-85628571D01*
X150389142Y-85685714D01*
X150332000Y-85742857D01*
X150274857Y-85857142D01*
X150274857Y-86085714D01*
X150332000Y-86200000D01*
X150960571Y-86771428D02*
X151017714Y-86828571D01*
X151074857Y-86771428D01*
X151017714Y-86714285D01*
X150960571Y-86771428D01*
X151074857Y-86771428D01*
X113485714Y-76606333D02*
X113128571Y-78006333D01*
X112842857Y-77006333D01*
X112557142Y-78006333D01*
X112200000Y-76606333D01*
X111057142Y-77939666D02*
X111200000Y-78006333D01*
X111485714Y-78006333D01*
X111628571Y-77939666D01*
X111700000Y-77806333D01*
X111700000Y-77273000D01*
X111628571Y-77139666D01*
X111485714Y-77073000D01*
X111200000Y-77073000D01*
X111057142Y-77139666D01*
X110985714Y-77273000D01*
X110985714Y-77406333D01*
X111700000Y-77539666D01*
X109200000Y-77073000D02*
X109200000Y-78006333D01*
X109200000Y-77206333D02*
X109128571Y-77139666D01*
X108985714Y-77073000D01*
X108771428Y-77073000D01*
X108628571Y-77139666D01*
X108557142Y-77273000D01*
X108557142Y-78006333D01*
X107271428Y-77939666D02*
X107414285Y-78006333D01*
X107700000Y-78006333D01*
X107842857Y-77939666D01*
X107914285Y-77806333D01*
X107914285Y-77273000D01*
X107842857Y-77139666D01*
X107700000Y-77073000D01*
X107414285Y-77073000D01*
X107271428Y-77139666D01*
X107200000Y-77273000D01*
X107200000Y-77406333D01*
X107914285Y-77539666D01*
X105985714Y-77939666D02*
X106128571Y-78006333D01*
X106414285Y-78006333D01*
X106557142Y-77939666D01*
X106628571Y-77806333D01*
X106628571Y-77273000D01*
X106557142Y-77139666D01*
X106414285Y-77073000D01*
X106128571Y-77073000D01*
X105985714Y-77139666D01*
X105914285Y-77273000D01*
X105914285Y-77406333D01*
X106628571Y-77539666D01*
X104628571Y-78006333D02*
X104628571Y-76606333D01*
X104628571Y-77939666D02*
X104771428Y-78006333D01*
X105057142Y-78006333D01*
X105200000Y-77939666D01*
X105271428Y-77873000D01*
X105342857Y-77739666D01*
X105342857Y-77339666D01*
X105271428Y-77206333D01*
X105200000Y-77139666D01*
X105057142Y-77073000D01*
X104771428Y-77073000D01*
X104628571Y-77139666D01*
X102914285Y-77073000D02*
X102557142Y-78006333D01*
X102200000Y-77073000D02*
X102557142Y-78006333D01*
X102700000Y-78339666D01*
X102771428Y-78406333D01*
X102914285Y-78473000D01*
X101414285Y-78006333D02*
X101557142Y-77939666D01*
X101628571Y-77873000D01*
X101700000Y-77739666D01*
X101700000Y-77339666D01*
X101628571Y-77206333D01*
X101557142Y-77139666D01*
X101414285Y-77073000D01*
X101200000Y-77073000D01*
X101057142Y-77139666D01*
X100985714Y-77206333D01*
X100914285Y-77339666D01*
X100914285Y-77739666D01*
X100985714Y-77873000D01*
X101057142Y-77939666D01*
X101200000Y-78006333D01*
X101414285Y-78006333D01*
X99628571Y-77073000D02*
X99628571Y-78006333D01*
X100271428Y-77073000D02*
X100271428Y-77806333D01*
X100200000Y-77939666D01*
X100057142Y-78006333D01*
X99842857Y-78006333D01*
X99700000Y-77939666D01*
X99628571Y-77873000D01*
X98914285Y-78006333D02*
X98914285Y-77073000D01*
X98914285Y-77339666D02*
X98842857Y-77206333D01*
X98771428Y-77139666D01*
X98628571Y-77073000D01*
X98485714Y-77073000D01*
X96842857Y-78006333D02*
X96842857Y-76606333D01*
X96200000Y-78006333D02*
X96200000Y-77273000D01*
X96271428Y-77139666D01*
X96414285Y-77073000D01*
X96628571Y-77073000D01*
X96771428Y-77139666D01*
X96842857Y-77206333D01*
X94914285Y-77939666D02*
X95057142Y-78006333D01*
X95342857Y-78006333D01*
X95485714Y-77939666D01*
X95557142Y-77806333D01*
X95557142Y-77273000D01*
X95485714Y-77139666D01*
X95342857Y-77073000D01*
X95057142Y-77073000D01*
X94914285Y-77139666D01*
X94842857Y-77273000D01*
X94842857Y-77406333D01*
X95557142Y-77539666D01*
X93985714Y-78006333D02*
X94128571Y-77939666D01*
X94200000Y-77806333D01*
X94200000Y-76606333D01*
X93414285Y-77073000D02*
X93414285Y-78473000D01*
X93414285Y-77139666D02*
X93271428Y-77073000D01*
X92985714Y-77073000D01*
X92842857Y-77139666D01*
X92771428Y-77206333D01*
X92700000Y-77339666D01*
X92700000Y-77739666D01*
X92771428Y-77873000D01*
X92842857Y-77939666D01*
X92985714Y-78006333D01*
X93271428Y-78006333D01*
X93414285Y-77939666D01*
X92057142Y-77873000D02*
X91985714Y-77939666D01*
X92057142Y-78006333D01*
X92128571Y-77939666D01*
X92057142Y-77873000D01*
X92057142Y-78006333D01*
X122164285Y-79527000D02*
X122664285Y-79527000D01*
X122664285Y-80260333D02*
X122664285Y-78860333D01*
X121950000Y-78860333D01*
X121164285Y-80260333D02*
X121307142Y-80193666D01*
X121378571Y-80127000D01*
X121450000Y-79993666D01*
X121450000Y-79593666D01*
X121378571Y-79460333D01*
X121307142Y-79393666D01*
X121164285Y-79327000D01*
X120950000Y-79327000D01*
X120807142Y-79393666D01*
X120735714Y-79460333D01*
X120664285Y-79593666D01*
X120664285Y-79993666D01*
X120735714Y-80127000D01*
X120807142Y-80193666D01*
X120950000Y-80260333D01*
X121164285Y-80260333D01*
X120021428Y-80260333D02*
X120021428Y-79327000D01*
X120021428Y-79593666D02*
X119950000Y-79460333D01*
X119878571Y-79393666D01*
X119735714Y-79327000D01*
X119592857Y-79327000D01*
X119092857Y-80260333D02*
X119092857Y-78860333D01*
X118950000Y-79727000D02*
X118521428Y-80260333D01*
X118521428Y-79327000D02*
X119092857Y-79860333D01*
X116950000Y-79327000D02*
X116378571Y-79327000D01*
X116735714Y-78860333D02*
X116735714Y-80060333D01*
X116664285Y-80193666D01*
X116521428Y-80260333D01*
X116378571Y-80260333D01*
X115878571Y-80260333D02*
X115878571Y-78860333D01*
X115235714Y-80260333D02*
X115235714Y-79527000D01*
X115307142Y-79393666D01*
X115450000Y-79327000D01*
X115664285Y-79327000D01*
X115807142Y-79393666D01*
X115878571Y-79460333D01*
X113950000Y-80193666D02*
X114092857Y-80260333D01*
X114378571Y-80260333D01*
X114521428Y-80193666D01*
X114592857Y-80060333D01*
X114592857Y-79527000D01*
X114521428Y-79393666D01*
X114378571Y-79327000D01*
X114092857Y-79327000D01*
X113950000Y-79393666D01*
X113878571Y-79527000D01*
X113878571Y-79660333D01*
X114592857Y-79793666D01*
X111450000Y-80260333D02*
X111450000Y-78860333D01*
X111450000Y-80193666D02*
X111592857Y-80260333D01*
X111878571Y-80260333D01*
X112021428Y-80193666D01*
X112092857Y-80127000D01*
X112164285Y-79993666D01*
X112164285Y-79593666D01*
X112092857Y-79460333D01*
X112021428Y-79393666D01*
X111878571Y-79327000D01*
X111592857Y-79327000D01*
X111450000Y-79393666D01*
X110164285Y-80193666D02*
X110307142Y-80260333D01*
X110592857Y-80260333D01*
X110735714Y-80193666D01*
X110807142Y-80060333D01*
X110807142Y-79527000D01*
X110735714Y-79393666D01*
X110592857Y-79327000D01*
X110307142Y-79327000D01*
X110164285Y-79393666D01*
X110092857Y-79527000D01*
X110092857Y-79660333D01*
X110807142Y-79793666D01*
X109521428Y-80193666D02*
X109378571Y-80260333D01*
X109092857Y-80260333D01*
X108950000Y-80193666D01*
X108878571Y-80060333D01*
X108878571Y-79993666D01*
X108950000Y-79860333D01*
X109092857Y-79793666D01*
X109307142Y-79793666D01*
X109450000Y-79727000D01*
X109521428Y-79593666D01*
X109521428Y-79527000D01*
X109450000Y-79393666D01*
X109307142Y-79327000D01*
X109092857Y-79327000D01*
X108950000Y-79393666D01*
X108235714Y-80260333D02*
X108235714Y-79327000D01*
X108235714Y-78860333D02*
X108307142Y-78927000D01*
X108235714Y-78993666D01*
X108164285Y-78927000D01*
X108235714Y-78860333D01*
X108235714Y-78993666D01*
X106878571Y-79327000D02*
X106878571Y-80460333D01*
X106950000Y-80593666D01*
X107021428Y-80660333D01*
X107164285Y-80727000D01*
X107378571Y-80727000D01*
X107521428Y-80660333D01*
X106878571Y-80193666D02*
X107021428Y-80260333D01*
X107307142Y-80260333D01*
X107450000Y-80193666D01*
X107521428Y-80127000D01*
X107592857Y-79993666D01*
X107592857Y-79593666D01*
X107521428Y-79460333D01*
X107450000Y-79393666D01*
X107307142Y-79327000D01*
X107021428Y-79327000D01*
X106878571Y-79393666D01*
X106164285Y-79327000D02*
X106164285Y-80260333D01*
X106164285Y-79460333D02*
X106092857Y-79393666D01*
X105950000Y-79327000D01*
X105735714Y-79327000D01*
X105592857Y-79393666D01*
X105521428Y-79527000D01*
X105521428Y-80260333D01*
X103021428Y-80260333D02*
X103021428Y-79527000D01*
X103092857Y-79393666D01*
X103235714Y-79327000D01*
X103521428Y-79327000D01*
X103664285Y-79393666D01*
X103021428Y-80193666D02*
X103164285Y-80260333D01*
X103521428Y-80260333D01*
X103664285Y-80193666D01*
X103735714Y-80060333D01*
X103735714Y-79927000D01*
X103664285Y-79793666D01*
X103521428Y-79727000D01*
X103164285Y-79727000D01*
X103021428Y-79660333D01*
X102307142Y-79327000D02*
X102307142Y-80260333D01*
X102307142Y-79460333D02*
X102235714Y-79393666D01*
X102092857Y-79327000D01*
X101878571Y-79327000D01*
X101735714Y-79393666D01*
X101664285Y-79527000D01*
X101664285Y-80260333D01*
X100307142Y-80260333D02*
X100307142Y-78860333D01*
X100307142Y-80193666D02*
X100450000Y-80260333D01*
X100735714Y-80260333D01*
X100878571Y-80193666D01*
X100950000Y-80127000D01*
X101021428Y-79993666D01*
X101021428Y-79593666D01*
X100950000Y-79460333D01*
X100878571Y-79393666D01*
X100735714Y-79327000D01*
X100450000Y-79327000D01*
X100307142Y-79393666D01*
X98450000Y-80260333D02*
X98450000Y-79327000D01*
X98450000Y-79460333D02*
X98378571Y-79393666D01*
X98235714Y-79327000D01*
X98021428Y-79327000D01*
X97878571Y-79393666D01*
X97807142Y-79527000D01*
X97807142Y-80260333D01*
X97807142Y-79527000D02*
X97735714Y-79393666D01*
X97592857Y-79327000D01*
X97378571Y-79327000D01*
X97235714Y-79393666D01*
X97164285Y-79527000D01*
X97164285Y-80260333D01*
X95807142Y-80260333D02*
X95807142Y-79527000D01*
X95878571Y-79393666D01*
X96021428Y-79327000D01*
X96307142Y-79327000D01*
X96450000Y-79393666D01*
X95807142Y-80193666D02*
X95950000Y-80260333D01*
X96307142Y-80260333D01*
X96450000Y-80193666D01*
X96521428Y-80060333D01*
X96521428Y-79927000D01*
X96450000Y-79793666D01*
X96307142Y-79727000D01*
X95950000Y-79727000D01*
X95807142Y-79660333D01*
X95092857Y-80260333D02*
X95092857Y-78860333D01*
X94950000Y-79727000D02*
X94521428Y-80260333D01*
X94521428Y-79327000D02*
X95092857Y-79860333D01*
X93307142Y-80193666D02*
X93450000Y-80260333D01*
X93735714Y-80260333D01*
X93878571Y-80193666D01*
X93950000Y-80060333D01*
X93950000Y-79527000D01*
X93878571Y-79393666D01*
X93735714Y-79327000D01*
X93450000Y-79327000D01*
X93307142Y-79393666D01*
X93235714Y-79527000D01*
X93235714Y-79660333D01*
X93950000Y-79793666D01*
X91450000Y-80260333D02*
X91450000Y-79327000D01*
X91450000Y-78860333D02*
X91521428Y-78927000D01*
X91450000Y-78993666D01*
X91378571Y-78927000D01*
X91450000Y-78860333D01*
X91450000Y-78993666D01*
X90950000Y-79327000D02*
X90378571Y-79327000D01*
X90735714Y-78860333D02*
X90735714Y-80060333D01*
X90664285Y-80193666D01*
X90521428Y-80260333D01*
X90378571Y-80260333D01*
X88878571Y-79327000D02*
X88521428Y-80260333D01*
X88164285Y-79327000D02*
X88521428Y-80260333D01*
X88664285Y-80593666D01*
X88735714Y-80660333D01*
X88878571Y-80727000D01*
X87378571Y-80260333D02*
X87521428Y-80193666D01*
X87592857Y-80127000D01*
X87664285Y-79993666D01*
X87664285Y-79593666D01*
X87592857Y-79460333D01*
X87521428Y-79393666D01*
X87378571Y-79327000D01*
X87164285Y-79327000D01*
X87021428Y-79393666D01*
X86950000Y-79460333D01*
X86878571Y-79593666D01*
X86878571Y-79993666D01*
X86950000Y-80127000D01*
X87021428Y-80193666D01*
X87164285Y-80260333D01*
X87378571Y-80260333D01*
X85592857Y-79327000D02*
X85592857Y-80260333D01*
X86235714Y-79327000D02*
X86235714Y-80060333D01*
X86164285Y-80193666D01*
X86021428Y-80260333D01*
X85807142Y-80260333D01*
X85664285Y-80193666D01*
X85592857Y-80127000D01*
X84878571Y-80260333D02*
X84878571Y-79327000D01*
X84878571Y-79593666D02*
X84807142Y-79460333D01*
X84735714Y-79393666D01*
X84592857Y-79327000D01*
X84450000Y-79327000D01*
X84021428Y-80193666D02*
X83878571Y-80260333D01*
X83592857Y-80260333D01*
X83450000Y-80193666D01*
X83378571Y-80060333D01*
X83378571Y-79993666D01*
X83450000Y-79860333D01*
X83592857Y-79793666D01*
X83807142Y-79793666D01*
X83950000Y-79727000D01*
X84021428Y-79593666D01*
X84021428Y-79527000D01*
X83950000Y-79393666D01*
X83807142Y-79327000D01*
X83592857Y-79327000D01*
X83450000Y-79393666D01*
X82735714Y-80127000D02*
X82664285Y-80193666D01*
X82735714Y-80260333D01*
X82807142Y-80193666D01*
X82735714Y-80127000D01*
X82735714Y-80260333D01*
D11*
X127104761Y-108994761D02*
X127104761Y-106994761D01*
X126628571Y-106994761D01*
X126342857Y-107090000D01*
X126152380Y-107280476D01*
X126057142Y-107470952D01*
X125961904Y-107851904D01*
X125961904Y-108137619D01*
X126057142Y-108518571D01*
X126152380Y-108709047D01*
X126342857Y-108899523D01*
X126628571Y-108994761D01*
X127104761Y-108994761D01*
X124342857Y-108899523D02*
X124533333Y-108994761D01*
X124914285Y-108994761D01*
X125104761Y-108899523D01*
X125200000Y-108709047D01*
X125200000Y-107947142D01*
X125104761Y-107756666D01*
X124914285Y-107661428D01*
X124533333Y-107661428D01*
X124342857Y-107756666D01*
X124247619Y-107947142D01*
X124247619Y-108137619D01*
X125200000Y-108328095D01*
X123485714Y-108899523D02*
X123295238Y-108994761D01*
X122914285Y-108994761D01*
X122723809Y-108899523D01*
X122628571Y-108709047D01*
X122628571Y-108613809D01*
X122723809Y-108423333D01*
X122914285Y-108328095D01*
X123200000Y-108328095D01*
X123390476Y-108232857D01*
X123485714Y-108042380D01*
X123485714Y-107947142D01*
X123390476Y-107756666D01*
X123200000Y-107661428D01*
X122914285Y-107661428D01*
X122723809Y-107756666D01*
X121771428Y-108994761D02*
X121771428Y-107661428D01*
X121771428Y-106994761D02*
X121866666Y-107090000D01*
X121771428Y-107185238D01*
X121676190Y-107090000D01*
X121771428Y-106994761D01*
X121771428Y-107185238D01*
X119961904Y-107661428D02*
X119961904Y-109280476D01*
X120057142Y-109470952D01*
X120152380Y-109566190D01*
X120342857Y-109661428D01*
X120628571Y-109661428D01*
X120819047Y-109566190D01*
X119961904Y-108899523D02*
X120152380Y-108994761D01*
X120533333Y-108994761D01*
X120723809Y-108899523D01*
X120819047Y-108804285D01*
X120914285Y-108613809D01*
X120914285Y-108042380D01*
X120819047Y-107851904D01*
X120723809Y-107756666D01*
X120533333Y-107661428D01*
X120152380Y-107661428D01*
X119961904Y-107756666D01*
X119009523Y-107661428D02*
X119009523Y-108994761D01*
X119009523Y-107851904D02*
X118914285Y-107756666D01*
X118723809Y-107661428D01*
X118438095Y-107661428D01*
X118247619Y-107756666D01*
X118152380Y-107947142D01*
X118152380Y-108994761D01*
X116438095Y-108899523D02*
X116628571Y-108994761D01*
X117009523Y-108994761D01*
X117200000Y-108899523D01*
X117295238Y-108709047D01*
X117295238Y-107947142D01*
X117200000Y-107756666D01*
X117009523Y-107661428D01*
X116628571Y-107661428D01*
X116438095Y-107756666D01*
X116342857Y-107947142D01*
X116342857Y-108137619D01*
X117295238Y-108328095D01*
X114628571Y-108994761D02*
X114628571Y-106994761D01*
X114628571Y-108899523D02*
X114819047Y-108994761D01*
X115200000Y-108994761D01*
X115390476Y-108899523D01*
X115485714Y-108804285D01*
X115580952Y-108613809D01*
X115580952Y-108042380D01*
X115485714Y-107851904D01*
X115390476Y-107756666D01*
X115200000Y-107661428D01*
X114819047Y-107661428D01*
X114628571Y-107756666D01*
X112152380Y-108994761D02*
X112152380Y-106994761D01*
X112152380Y-107756666D02*
X111961904Y-107661428D01*
X111580952Y-107661428D01*
X111390476Y-107756666D01*
X111295238Y-107851904D01*
X111200000Y-108042380D01*
X111200000Y-108613809D01*
X111295238Y-108804285D01*
X111390476Y-108899523D01*
X111580952Y-108994761D01*
X111961904Y-108994761D01*
X112152380Y-108899523D01*
X110533333Y-107661428D02*
X110057142Y-108994761D01*
X109580952Y-107661428D02*
X110057142Y-108994761D01*
X110247619Y-109470952D01*
X110342857Y-109566190D01*
X110533333Y-109661428D01*
X107580952Y-106994761D02*
X106438095Y-106994761D01*
X107009523Y-108994761D02*
X107009523Y-106994761D01*
X104914285Y-108994761D02*
X104914285Y-107947142D01*
X105009523Y-107756666D01*
X105200000Y-107661428D01*
X105580952Y-107661428D01*
X105771428Y-107756666D01*
X104914285Y-108899523D02*
X105104761Y-108994761D01*
X105580952Y-108994761D01*
X105771428Y-108899523D01*
X105866666Y-108709047D01*
X105866666Y-108518571D01*
X105771428Y-108328095D01*
X105580952Y-108232857D01*
X105104761Y-108232857D01*
X104914285Y-108137619D01*
X104152380Y-107661428D02*
X103676190Y-108994761D01*
X103200000Y-107661428D02*
X103676190Y-108994761D01*
X103866666Y-109470952D01*
X103961904Y-109566190D01*
X104152380Y-109661428D01*
X102152380Y-108994761D02*
X102342857Y-108899523D01*
X102438095Y-108709047D01*
X102438095Y-106994761D01*
X101104761Y-108994761D02*
X101295238Y-108899523D01*
X101390476Y-108804285D01*
X101485714Y-108613809D01*
X101485714Y-108042380D01*
X101390476Y-107851904D01*
X101295238Y-107756666D01*
X101104761Y-107661428D01*
X100819047Y-107661428D01*
X100628571Y-107756666D01*
X100533333Y-107851904D01*
X100438095Y-108042380D01*
X100438095Y-108613809D01*
X100533333Y-108804285D01*
X100628571Y-108899523D01*
X100819047Y-108994761D01*
X101104761Y-108994761D01*
X99580952Y-108994761D02*
X99580952Y-107661428D01*
X99580952Y-108042380D02*
X99485714Y-107851904D01*
X99390476Y-107756666D01*
X99200000Y-107661428D01*
X99009523Y-107661428D01*
X96914285Y-108423333D02*
X95961904Y-108423333D01*
X97104761Y-108994761D02*
X96438095Y-106994761D01*
X95771428Y-108994761D01*
X94819047Y-108994761D02*
X95009523Y-108899523D01*
X95104761Y-108709047D01*
X95104761Y-106994761D01*
X93295238Y-108899523D02*
X93485714Y-108994761D01*
X93866666Y-108994761D01*
X94057142Y-108899523D01*
X94152380Y-108709047D01*
X94152380Y-107947142D01*
X94057142Y-107756666D01*
X93866666Y-107661428D01*
X93485714Y-107661428D01*
X93295238Y-107756666D01*
X93200000Y-107947142D01*
X93200000Y-108137619D01*
X94152380Y-108328095D01*
X92533333Y-108994761D02*
X91485714Y-107661428D01*
X92533333Y-107661428D02*
X91485714Y-108994761D01*
X89866666Y-108994761D02*
X89866666Y-107947142D01*
X89961904Y-107756666D01*
X90152380Y-107661428D01*
X90533333Y-107661428D01*
X90723809Y-107756666D01*
X89866666Y-108899523D02*
X90057142Y-108994761D01*
X90533333Y-108994761D01*
X90723809Y-108899523D01*
X90819047Y-108709047D01*
X90819047Y-108518571D01*
X90723809Y-108328095D01*
X90533333Y-108232857D01*
X90057142Y-108232857D01*
X89866666Y-108137619D01*
X88914285Y-107661428D02*
X88914285Y-108994761D01*
X88914285Y-107851904D02*
X88819047Y-107756666D01*
X88628571Y-107661428D01*
X88342857Y-107661428D01*
X88152380Y-107756666D01*
X88057142Y-107947142D01*
X88057142Y-108994761D01*
X86247619Y-108994761D02*
X86247619Y-106994761D01*
X86247619Y-108899523D02*
X86438095Y-108994761D01*
X86819047Y-108994761D01*
X87009523Y-108899523D01*
X87104761Y-108804285D01*
X87200000Y-108613809D01*
X87200000Y-108042380D01*
X87104761Y-107851904D01*
X87009523Y-107756666D01*
X86819047Y-107661428D01*
X86438095Y-107661428D01*
X86247619Y-107756666D01*
X84533333Y-108899523D02*
X84723809Y-108994761D01*
X85104761Y-108994761D01*
X85295238Y-108899523D01*
X85390476Y-108709047D01*
X85390476Y-107947142D01*
X85295238Y-107756666D01*
X85104761Y-107661428D01*
X84723809Y-107661428D01*
X84533333Y-107756666D01*
X84438095Y-107947142D01*
X84438095Y-108137619D01*
X85390476Y-108328095D01*
X83580952Y-108994761D02*
X83580952Y-107661428D01*
X83580952Y-108042380D02*
X83485714Y-107851904D01*
X83390476Y-107756666D01*
X83200000Y-107661428D01*
X83009523Y-107661428D01*
X117819047Y-111167142D02*
X118485714Y-111167142D01*
X118485714Y-112214761D02*
X118485714Y-110214761D01*
X117533333Y-110214761D01*
X116485714Y-112214761D02*
X116676190Y-112119523D01*
X116771428Y-112024285D01*
X116866666Y-111833809D01*
X116866666Y-111262380D01*
X116771428Y-111071904D01*
X116676190Y-110976666D01*
X116485714Y-110881428D01*
X116200000Y-110881428D01*
X116009523Y-110976666D01*
X115914285Y-111071904D01*
X115819047Y-111262380D01*
X115819047Y-111833809D01*
X115914285Y-112024285D01*
X116009523Y-112119523D01*
X116200000Y-112214761D01*
X116485714Y-112214761D01*
X114961904Y-112214761D02*
X114961904Y-110881428D01*
X114961904Y-111262380D02*
X114866666Y-111071904D01*
X114771428Y-110976666D01*
X114580952Y-110881428D01*
X114390476Y-110881428D01*
X112485714Y-110214761D02*
X111342857Y-110214761D01*
X111914285Y-112214761D02*
X111914285Y-110214761D01*
X110866666Y-110881428D02*
X110485714Y-112214761D01*
X110104761Y-111262380D01*
X109723809Y-112214761D01*
X109342857Y-110881428D01*
X108580952Y-112214761D02*
X108580952Y-110881428D01*
X108580952Y-110214761D02*
X108676190Y-110310000D01*
X108580952Y-110405238D01*
X108485714Y-110310000D01*
X108580952Y-110214761D01*
X108580952Y-110405238D01*
X107723809Y-112119523D02*
X107533333Y-112214761D01*
X107152380Y-112214761D01*
X106961904Y-112119523D01*
X106866666Y-111929047D01*
X106866666Y-111833809D01*
X106961904Y-111643333D01*
X107152380Y-111548095D01*
X107438095Y-111548095D01*
X107628571Y-111452857D01*
X107723809Y-111262380D01*
X107723809Y-111167142D01*
X107628571Y-110976666D01*
X107438095Y-110881428D01*
X107152380Y-110881428D01*
X106961904Y-110976666D01*
X106295238Y-110881428D02*
X105533333Y-110881428D01*
X106009523Y-110214761D02*
X106009523Y-111929047D01*
X105914285Y-112119523D01*
X105723809Y-112214761D01*
X105533333Y-112214761D01*
X104104761Y-112119523D02*
X104295238Y-112214761D01*
X104676190Y-112214761D01*
X104866666Y-112119523D01*
X104961904Y-111929047D01*
X104961904Y-111167142D01*
X104866666Y-110976666D01*
X104676190Y-110881428D01*
X104295238Y-110881428D01*
X104104761Y-110976666D01*
X104009523Y-111167142D01*
X104009523Y-111357619D01*
X104961904Y-111548095D01*
X102295238Y-112214761D02*
X102295238Y-110214761D01*
X102295238Y-112119523D02*
X102485714Y-112214761D01*
X102866666Y-112214761D01*
X103057142Y-112119523D01*
X103152380Y-112024285D01*
X103247619Y-111833809D01*
X103247619Y-111262380D01*
X103152380Y-111071904D01*
X103057142Y-110976666D01*
X102866666Y-110881428D01*
X102485714Y-110881428D01*
X102295238Y-110976666D01*
X99152380Y-111167142D02*
X99819047Y-111167142D01*
X99819047Y-112214761D02*
X99819047Y-110214761D01*
X98866666Y-110214761D01*
X98104761Y-112214761D02*
X98104761Y-110881428D01*
X98104761Y-110214761D02*
X98200000Y-110310000D01*
X98104761Y-110405238D01*
X98009523Y-110310000D01*
X98104761Y-110214761D01*
X98104761Y-110405238D01*
X96390476Y-112119523D02*
X96580952Y-112214761D01*
X96961904Y-112214761D01*
X97152380Y-112119523D01*
X97247619Y-111929047D01*
X97247619Y-111167142D01*
X97152380Y-110976666D01*
X96961904Y-110881428D01*
X96580952Y-110881428D01*
X96390476Y-110976666D01*
X96295238Y-111167142D01*
X96295238Y-111357619D01*
X97247619Y-111548095D01*
X95152380Y-112214761D02*
X95342857Y-112119523D01*
X95438095Y-111929047D01*
X95438095Y-110214761D01*
X93533333Y-112214761D02*
X93533333Y-110214761D01*
X93533333Y-112119523D02*
X93723809Y-112214761D01*
X94104761Y-112214761D01*
X94295238Y-112119523D01*
X94390476Y-112024285D01*
X94485714Y-111833809D01*
X94485714Y-111262380D01*
X94390476Y-111071904D01*
X94295238Y-110976666D01*
X94104761Y-110881428D01*
X93723809Y-110881428D01*
X93533333Y-110976666D01*
X92676190Y-112119523D02*
X92485714Y-112214761D01*
X92104761Y-112214761D01*
X91914285Y-112119523D01*
X91819047Y-111929047D01*
X91819047Y-111833809D01*
X91914285Y-111643333D01*
X92104761Y-111548095D01*
X92390476Y-111548095D01*
X92580952Y-111452857D01*
X92676190Y-111262380D01*
X92676190Y-111167142D01*
X92580952Y-110976666D01*
X92390476Y-110881428D01*
X92104761Y-110881428D01*
X91914285Y-110976666D01*
X127671428Y-98747142D02*
X128338095Y-98747142D01*
X128338095Y-99794761D02*
X128338095Y-97794761D01*
X127385714Y-97794761D01*
X125766666Y-98461428D02*
X125766666Y-99794761D01*
X126623809Y-98461428D02*
X126623809Y-99509047D01*
X126528571Y-99699523D01*
X126338095Y-99794761D01*
X126052380Y-99794761D01*
X125861904Y-99699523D01*
X125766666Y-99604285D01*
X124814285Y-98461428D02*
X124814285Y-99794761D01*
X124814285Y-98651904D02*
X124719047Y-98556666D01*
X124528571Y-98461428D01*
X124242857Y-98461428D01*
X124052380Y-98556666D01*
X123957142Y-98747142D01*
X123957142Y-99794761D01*
X122147619Y-99794761D02*
X122147619Y-97794761D01*
X122147619Y-99699523D02*
X122338095Y-99794761D01*
X122719047Y-99794761D01*
X122909523Y-99699523D01*
X123004761Y-99604285D01*
X123100000Y-99413809D01*
X123100000Y-98842380D01*
X123004761Y-98651904D01*
X122909523Y-98556666D01*
X122719047Y-98461428D01*
X122338095Y-98461428D01*
X122147619Y-98556666D01*
X120433333Y-99699523D02*
X120623809Y-99794761D01*
X121004761Y-99794761D01*
X121195238Y-99699523D01*
X121290476Y-99509047D01*
X121290476Y-98747142D01*
X121195238Y-98556666D01*
X121004761Y-98461428D01*
X120623809Y-98461428D01*
X120433333Y-98556666D01*
X120338095Y-98747142D01*
X120338095Y-98937619D01*
X121290476Y-99128095D01*
X118623809Y-99794761D02*
X118623809Y-97794761D01*
X118623809Y-99699523D02*
X118814285Y-99794761D01*
X119195238Y-99794761D01*
X119385714Y-99699523D01*
X119480952Y-99604285D01*
X119576190Y-99413809D01*
X119576190Y-98842380D01*
X119480952Y-98651904D01*
X119385714Y-98556666D01*
X119195238Y-98461428D01*
X118814285Y-98461428D01*
X118623809Y-98556666D01*
X115480952Y-98747142D02*
X115195238Y-98842380D01*
X115100000Y-98937619D01*
X115004761Y-99128095D01*
X115004761Y-99413809D01*
X115100000Y-99604285D01*
X115195238Y-99699523D01*
X115385714Y-99794761D01*
X116147619Y-99794761D01*
X116147619Y-97794761D01*
X115480952Y-97794761D01*
X115290476Y-97890000D01*
X115195238Y-97985238D01*
X115100000Y-98175714D01*
X115100000Y-98366190D01*
X115195238Y-98556666D01*
X115290476Y-98651904D01*
X115480952Y-98747142D01*
X116147619Y-98747142D01*
X114338095Y-98461428D02*
X113861904Y-99794761D01*
X113385714Y-98461428D02*
X113861904Y-99794761D01*
X114052380Y-100270952D01*
X114147619Y-100366190D01*
X114338095Y-100461428D01*
X111100000Y-99794761D02*
X111100000Y-97794761D01*
X110623809Y-97794761D01*
X110338095Y-97890000D01*
X110147619Y-98080476D01*
X110052380Y-98270952D01*
X109957142Y-98651904D01*
X109957142Y-98937619D01*
X110052380Y-99318571D01*
X110147619Y-99509047D01*
X110338095Y-99699523D01*
X110623809Y-99794761D01*
X111100000Y-99794761D01*
X108242857Y-99794761D02*
X108242857Y-98747142D01*
X108338095Y-98556666D01*
X108528571Y-98461428D01*
X108909523Y-98461428D01*
X109100000Y-98556666D01*
X108242857Y-99699523D02*
X108433333Y-99794761D01*
X108909523Y-99794761D01*
X109100000Y-99699523D01*
X109195238Y-99509047D01*
X109195238Y-99318571D01*
X109100000Y-99128095D01*
X108909523Y-99032857D01*
X108433333Y-99032857D01*
X108242857Y-98937619D01*
X107290476Y-98461428D02*
X107290476Y-99794761D01*
X107290476Y-98651904D02*
X107195238Y-98556666D01*
X107004761Y-98461428D01*
X106719047Y-98461428D01*
X106528571Y-98556666D01*
X106433333Y-98747142D01*
X106433333Y-99794761D01*
X105480952Y-99794761D02*
X105480952Y-98461428D01*
X105480952Y-97794761D02*
X105576190Y-97890000D01*
X105480952Y-97985238D01*
X105385714Y-97890000D01*
X105480952Y-97794761D01*
X105480952Y-97985238D01*
X103766666Y-99699523D02*
X103957142Y-99794761D01*
X104338095Y-99794761D01*
X104528571Y-99699523D01*
X104623809Y-99509047D01*
X104623809Y-98747142D01*
X104528571Y-98556666D01*
X104338095Y-98461428D01*
X103957142Y-98461428D01*
X103766666Y-98556666D01*
X103671428Y-98747142D01*
X103671428Y-98937619D01*
X104623809Y-99128095D01*
X102528571Y-99794761D02*
X102719047Y-99699523D01*
X102814285Y-99509047D01*
X102814285Y-97794761D01*
X100528571Y-97794761D02*
X99385714Y-97794761D01*
X99957142Y-99794761D02*
X99957142Y-97794761D01*
X98719047Y-99794761D02*
X98719047Y-97794761D01*
X97861904Y-99794761D02*
X97861904Y-98747142D01*
X97957142Y-98556666D01*
X98147619Y-98461428D01*
X98433333Y-98461428D01*
X98623809Y-98556666D01*
X98719047Y-98651904D01*
X96147619Y-99699523D02*
X96338095Y-99794761D01*
X96719047Y-99794761D01*
X96909523Y-99699523D01*
X97004761Y-99509047D01*
X97004761Y-98747142D01*
X96909523Y-98556666D01*
X96719047Y-98461428D01*
X96338095Y-98461428D01*
X96147619Y-98556666D01*
X96052380Y-98747142D01*
X96052380Y-98937619D01*
X97004761Y-99128095D01*
X94909523Y-99794761D02*
X95100000Y-99699523D01*
X95195238Y-99604285D01*
X95290476Y-99413809D01*
X95290476Y-98842380D01*
X95195238Y-98651904D01*
X95100000Y-98556666D01*
X94909523Y-98461428D01*
X94623809Y-98461428D01*
X94433333Y-98556666D01*
X94338095Y-98651904D01*
X94242857Y-98842380D01*
X94242857Y-99413809D01*
X94338095Y-99604285D01*
X94433333Y-99699523D01*
X94623809Y-99794761D01*
X94909523Y-99794761D01*
X93385714Y-99794761D02*
X93385714Y-97794761D01*
X93385714Y-98556666D02*
X93195238Y-98461428D01*
X92814285Y-98461428D01*
X92623809Y-98556666D01*
X92528571Y-98651904D01*
X92433333Y-98842380D01*
X92433333Y-99413809D01*
X92528571Y-99604285D01*
X92623809Y-99699523D01*
X92814285Y-99794761D01*
X93195238Y-99794761D01*
X93385714Y-99699523D01*
X90719047Y-99794761D02*
X90719047Y-98747142D01*
X90814285Y-98556666D01*
X91004761Y-98461428D01*
X91385714Y-98461428D01*
X91576190Y-98556666D01*
X90719047Y-99699523D02*
X90909523Y-99794761D01*
X91385714Y-99794761D01*
X91576190Y-99699523D01*
X91671428Y-99509047D01*
X91671428Y-99318571D01*
X91576190Y-99128095D01*
X91385714Y-99032857D01*
X90909523Y-99032857D01*
X90719047Y-98937619D01*
X89480952Y-99794761D02*
X89671428Y-99699523D01*
X89766666Y-99509047D01*
X89766666Y-97794761D01*
X87861904Y-99794761D02*
X87861904Y-97794761D01*
X87861904Y-99699523D02*
X88052380Y-99794761D01*
X88433333Y-99794761D01*
X88623809Y-99699523D01*
X88719047Y-99604285D01*
X88814285Y-99413809D01*
X88814285Y-98842380D01*
X88719047Y-98651904D01*
X88623809Y-98556666D01*
X88433333Y-98461428D01*
X88052380Y-98461428D01*
X87861904Y-98556666D01*
X118909523Y-101014761D02*
X117766666Y-101014761D01*
X118338095Y-103014761D02*
X118338095Y-101014761D01*
X117100000Y-103014761D02*
X117100000Y-101014761D01*
X116242857Y-103014761D02*
X116242857Y-101967142D01*
X116338095Y-101776666D01*
X116528571Y-101681428D01*
X116814285Y-101681428D01*
X117004761Y-101776666D01*
X117100000Y-101871904D01*
X114433333Y-103014761D02*
X114433333Y-101967142D01*
X114528571Y-101776666D01*
X114719047Y-101681428D01*
X115100000Y-101681428D01*
X115290476Y-101776666D01*
X114433333Y-102919523D02*
X114623809Y-103014761D01*
X115100000Y-103014761D01*
X115290476Y-102919523D01*
X115385714Y-102729047D01*
X115385714Y-102538571D01*
X115290476Y-102348095D01*
X115100000Y-102252857D01*
X114623809Y-102252857D01*
X114433333Y-102157619D01*
X113480952Y-101681428D02*
X113480952Y-103014761D01*
X113480952Y-101871904D02*
X113385714Y-101776666D01*
X113195238Y-101681428D01*
X112909523Y-101681428D01*
X112719047Y-101776666D01*
X112623809Y-101967142D01*
X112623809Y-103014761D01*
X111671428Y-103014761D02*
X111671428Y-101014761D01*
X111480952Y-102252857D02*
X110909523Y-103014761D01*
X110909523Y-101681428D02*
X111671428Y-102443333D01*
X110147619Y-102919523D02*
X109957142Y-103014761D01*
X109576190Y-103014761D01*
X109385714Y-102919523D01*
X109290476Y-102729047D01*
X109290476Y-102633809D01*
X109385714Y-102443333D01*
X109576190Y-102348095D01*
X109861904Y-102348095D01*
X110052380Y-102252857D01*
X110147619Y-102062380D01*
X110147619Y-101967142D01*
X110052380Y-101776666D01*
X109861904Y-101681428D01*
X109576190Y-101681428D01*
X109385714Y-101776666D01*
X106909523Y-103014761D02*
X106909523Y-101014761D01*
X106433333Y-101014761D01*
X106147619Y-101110000D01*
X105957142Y-101300476D01*
X105861904Y-101490952D01*
X105766666Y-101871904D01*
X105766666Y-102157619D01*
X105861904Y-102538571D01*
X105957142Y-102729047D01*
X106147619Y-102919523D01*
X106433333Y-103014761D01*
X106909523Y-103014761D01*
X104052380Y-103014761D02*
X104052380Y-101967142D01*
X104147619Y-101776666D01*
X104338095Y-101681428D01*
X104719047Y-101681428D01*
X104909523Y-101776666D01*
X104052380Y-102919523D02*
X104242857Y-103014761D01*
X104719047Y-103014761D01*
X104909523Y-102919523D01*
X105004761Y-102729047D01*
X105004761Y-102538571D01*
X104909523Y-102348095D01*
X104719047Y-102252857D01*
X104242857Y-102252857D01*
X104052380Y-102157619D01*
X103100000Y-101681428D02*
X103100000Y-103014761D01*
X103100000Y-101871904D02*
X103004761Y-101776666D01*
X102814285Y-101681428D01*
X102528571Y-101681428D01*
X102338095Y-101776666D01*
X102242857Y-101967142D01*
X102242857Y-103014761D01*
X101290476Y-103014761D02*
X101290476Y-101681428D01*
X101290476Y-101014761D02*
X101385714Y-101110000D01*
X101290476Y-101205238D01*
X101195238Y-101110000D01*
X101290476Y-101014761D01*
X101290476Y-101205238D01*
X99576190Y-102919523D02*
X99766666Y-103014761D01*
X100147619Y-103014761D01*
X100338095Y-102919523D01*
X100433333Y-102729047D01*
X100433333Y-101967142D01*
X100338095Y-101776666D01*
X100147619Y-101681428D01*
X99766666Y-101681428D01*
X99576190Y-101776666D01*
X99480952Y-101967142D01*
X99480952Y-102157619D01*
X100433333Y-102348095D01*
X98338095Y-103014761D02*
X98528571Y-102919523D01*
X98623809Y-102729047D01*
X98623809Y-101014761D01*
X97576190Y-102824285D02*
X97480952Y-102919523D01*
X97576190Y-103014761D01*
X97671428Y-102919523D01*
X97576190Y-102824285D01*
X97576190Y-103014761D01*
X97576190Y-102252857D02*
X97671428Y-101110000D01*
X97576190Y-101014761D01*
X97480952Y-101110000D01*
X97576190Y-102252857D01*
X97576190Y-101014761D01*
D10*
X139314285Y-95833333D02*
X138814285Y-97233333D01*
X138314285Y-95833333D01*
X137242857Y-97166666D02*
X137385714Y-97233333D01*
X137671428Y-97233333D01*
X137814285Y-97166666D01*
X137885714Y-97033333D01*
X137885714Y-96500000D01*
X137814285Y-96366666D01*
X137671428Y-96300000D01*
X137385714Y-96300000D01*
X137242857Y-96366666D01*
X137171428Y-96500000D01*
X137171428Y-96633333D01*
X137885714Y-96766666D01*
X136528571Y-97233333D02*
X136528571Y-96300000D01*
X136528571Y-96566666D02*
X136457142Y-96433333D01*
X136385714Y-96366666D01*
X136242857Y-96300000D01*
X136100000Y-96300000D01*
X135671428Y-97166666D02*
X135528571Y-97233333D01*
X135242857Y-97233333D01*
X135100000Y-97166666D01*
X135028571Y-97033333D01*
X135028571Y-96966666D01*
X135100000Y-96833333D01*
X135242857Y-96766666D01*
X135457142Y-96766666D01*
X135600000Y-96700000D01*
X135671428Y-96566666D01*
X135671428Y-96500000D01*
X135600000Y-96366666D01*
X135457142Y-96300000D01*
X135242857Y-96300000D01*
X135100000Y-96366666D01*
X134385714Y-97233333D02*
X134385714Y-96300000D01*
X134385714Y-95833333D02*
X134457142Y-95900000D01*
X134385714Y-95966666D01*
X134314285Y-95900000D01*
X134385714Y-95833333D01*
X134385714Y-95966666D01*
X133457142Y-97233333D02*
X133600000Y-97166666D01*
X133671428Y-97100000D01*
X133742857Y-96966666D01*
X133742857Y-96566666D01*
X133671428Y-96433333D01*
X133600000Y-96366666D01*
X133457142Y-96300000D01*
X133242857Y-96300000D01*
X133100000Y-96366666D01*
X133028571Y-96433333D01*
X132957142Y-96566666D01*
X132957142Y-96966666D01*
X133028571Y-97100000D01*
X133100000Y-97166666D01*
X133242857Y-97233333D01*
X133457142Y-97233333D01*
X132314285Y-96300000D02*
X132314285Y-97233333D01*
X132314285Y-96433333D02*
X132242857Y-96366666D01*
X132100000Y-96300000D01*
X131885714Y-96300000D01*
X131742857Y-96366666D01*
X131671428Y-96500000D01*
X131671428Y-97233333D01*
X129028571Y-97233333D02*
X129885714Y-97233333D01*
X129457142Y-97233333D02*
X129457142Y-95833333D01*
X129600000Y-96033333D01*
X129742857Y-96166666D01*
X129885714Y-96233333D01*
X145542857Y-90600000D02*
X145542857Y-91733333D01*
X145614285Y-91866666D01*
X145685714Y-91933333D01*
X145828571Y-92000000D01*
X146042857Y-92000000D01*
X146185714Y-91933333D01*
X145542857Y-91466666D02*
X145685714Y-91533333D01*
X145971428Y-91533333D01*
X146114285Y-91466666D01*
X146185714Y-91400000D01*
X146257142Y-91266666D01*
X146257142Y-90866666D01*
X146185714Y-90733333D01*
X146114285Y-90666666D01*
X145971428Y-90600000D01*
X145685714Y-90600000D01*
X145542857Y-90666666D01*
X144828571Y-91533333D02*
X144828571Y-90600000D01*
X144828571Y-90133333D02*
X144900000Y-90200000D01*
X144828571Y-90266666D01*
X144757142Y-90200000D01*
X144828571Y-90133333D01*
X144828571Y-90266666D01*
X144328571Y-90600000D02*
X143757142Y-90600000D01*
X144114285Y-90133333D02*
X144114285Y-91333333D01*
X144042857Y-91466666D01*
X143900000Y-91533333D01*
X143757142Y-91533333D01*
X143257142Y-91533333D02*
X143257142Y-90133333D01*
X142614285Y-91533333D02*
X142614285Y-90800000D01*
X142685714Y-90666666D01*
X142828571Y-90600000D01*
X143042857Y-90600000D01*
X143185714Y-90666666D01*
X143257142Y-90733333D01*
X141257142Y-90600000D02*
X141257142Y-91533333D01*
X141900000Y-90600000D02*
X141900000Y-91333333D01*
X141828571Y-91466666D01*
X141685714Y-91533333D01*
X141471428Y-91533333D01*
X141328571Y-91466666D01*
X141257142Y-91400000D01*
X140542857Y-91533333D02*
X140542857Y-90133333D01*
X140542857Y-90666666D02*
X140400000Y-90600000D01*
X140114285Y-90600000D01*
X139971428Y-90666666D01*
X139900000Y-90733333D01*
X139828571Y-90866666D01*
X139828571Y-91266666D01*
X139900000Y-91400000D01*
X139971428Y-91466666D01*
X140114285Y-91533333D01*
X140400000Y-91533333D01*
X140542857Y-91466666D01*
X139185714Y-91400000D02*
X139114285Y-91466666D01*
X139185714Y-91533333D01*
X139257142Y-91466666D01*
X139185714Y-91400000D01*
X139185714Y-91533333D01*
X137828571Y-91466666D02*
X137971428Y-91533333D01*
X138257142Y-91533333D01*
X138400000Y-91466666D01*
X138471428Y-91400000D01*
X138542857Y-91266666D01*
X138542857Y-90866666D01*
X138471428Y-90733333D01*
X138400000Y-90666666D01*
X138257142Y-90600000D01*
X137971428Y-90600000D01*
X137828571Y-90666666D01*
X136971428Y-91533333D02*
X137114285Y-91466666D01*
X137185714Y-91400000D01*
X137257142Y-91266666D01*
X137257142Y-90866666D01*
X137185714Y-90733333D01*
X137114285Y-90666666D01*
X136971428Y-90600000D01*
X136757142Y-90600000D01*
X136614285Y-90666666D01*
X136542857Y-90733333D01*
X136471428Y-90866666D01*
X136471428Y-91266666D01*
X136542857Y-91400000D01*
X136614285Y-91466666D01*
X136757142Y-91533333D01*
X136971428Y-91533333D01*
X135828571Y-91533333D02*
X135828571Y-90600000D01*
X135828571Y-90733333D02*
X135757142Y-90666666D01*
X135614285Y-90600000D01*
X135400000Y-90600000D01*
X135257142Y-90666666D01*
X135185714Y-90800000D01*
X135185714Y-91533333D01*
X135185714Y-90800000D02*
X135114285Y-90666666D01*
X134971428Y-90600000D01*
X134757142Y-90600000D01*
X134614285Y-90666666D01*
X134542857Y-90800000D01*
X134542857Y-91533333D01*
X132757142Y-90066666D02*
X134042857Y-91866666D01*
X132471428Y-90133333D02*
X131614285Y-90133333D01*
X132042857Y-91533333D02*
X132042857Y-90133333D01*
X131257142Y-90600000D02*
X130971428Y-91533333D01*
X130685714Y-90866666D01*
X130399999Y-91533333D01*
X130114285Y-90600000D01*
X129542857Y-91533333D02*
X129542857Y-90600000D01*
X129542857Y-90133333D02*
X129614285Y-90200000D01*
X129542857Y-90266666D01*
X129471428Y-90200000D01*
X129542857Y-90133333D01*
X129542857Y-90266666D01*
X128899999Y-91466666D02*
X128757142Y-91533333D01*
X128471428Y-91533333D01*
X128328571Y-91466666D01*
X128257142Y-91333333D01*
X128257142Y-91266666D01*
X128328571Y-91133333D01*
X128471428Y-91066666D01*
X128685714Y-91066666D01*
X128828571Y-91000000D01*
X128899999Y-90866666D01*
X128899999Y-90800000D01*
X128828571Y-90666666D01*
X128685714Y-90600000D01*
X128471428Y-90600000D01*
X128328571Y-90666666D01*
X127828571Y-90600000D02*
X127257142Y-90600000D01*
X127614285Y-90133333D02*
X127614285Y-91333333D01*
X127542857Y-91466666D01*
X127399999Y-91533333D01*
X127257142Y-91533333D01*
X126185714Y-91466666D02*
X126328571Y-91533333D01*
X126614285Y-91533333D01*
X126757142Y-91466666D01*
X126828571Y-91333333D01*
X126828571Y-90800000D01*
X126757142Y-90666666D01*
X126614285Y-90600000D01*
X126328571Y-90600000D01*
X126185714Y-90666666D01*
X126114285Y-90800000D01*
X126114285Y-90933333D01*
X126828571Y-91066666D01*
X124828571Y-91533333D02*
X124828571Y-90133333D01*
X124828571Y-91466666D02*
X124971428Y-91533333D01*
X125257142Y-91533333D01*
X125399999Y-91466666D01*
X125471428Y-91400000D01*
X125542857Y-91266666D01*
X125542857Y-90866666D01*
X125471428Y-90733333D01*
X125399999Y-90666666D01*
X125257142Y-90600000D01*
X124971428Y-90600000D01*
X124828571Y-90666666D01*
X124114285Y-91000000D02*
X122971428Y-91000000D01*
X121757142Y-90800000D02*
X122257142Y-90800000D01*
X122257142Y-91533333D02*
X122257142Y-90133333D01*
X121542857Y-90133333D01*
X120971428Y-91533333D02*
X120971428Y-90600000D01*
X120971428Y-90133333D02*
X121042857Y-90200000D01*
X120971428Y-90266666D01*
X120899999Y-90200000D01*
X120971428Y-90133333D01*
X120971428Y-90266666D01*
X119685714Y-91466666D02*
X119828571Y-91533333D01*
X120114285Y-91533333D01*
X120257142Y-91466666D01*
X120328571Y-91333333D01*
X120328571Y-90800000D01*
X120257142Y-90666666D01*
X120114285Y-90600000D01*
X119828571Y-90600000D01*
X119685714Y-90666666D01*
X119614285Y-90800000D01*
X119614285Y-90933333D01*
X120328571Y-91066666D01*
X118757142Y-91533333D02*
X118899999Y-91466666D01*
X118971428Y-91333333D01*
X118971428Y-90133333D01*
X117542857Y-91533333D02*
X117542857Y-90133333D01*
X117542857Y-91466666D02*
X117685714Y-91533333D01*
X117971428Y-91533333D01*
X118114285Y-91466666D01*
X118185714Y-91400000D01*
X118257142Y-91266666D01*
X118257142Y-90866666D01*
X118185714Y-90733333D01*
X118114285Y-90666666D01*
X117971428Y-90600000D01*
X117685714Y-90600000D01*
X117542857Y-90666666D01*
X116899999Y-91466666D02*
X116757142Y-91533333D01*
X116471428Y-91533333D01*
X116328571Y-91466666D01*
X116257142Y-91333333D01*
X116257142Y-91266666D01*
X116328571Y-91133333D01*
X116471428Y-91066666D01*
X116685714Y-91066666D01*
X116828571Y-91000000D01*
X116899999Y-90866666D01*
X116899999Y-90800000D01*
X116828571Y-90666666D01*
X116685714Y-90600000D01*
X116471428Y-90600000D01*
X116328571Y-90666666D01*
X114542857Y-90066666D02*
X115828571Y-91866666D01*
X114042857Y-91533333D02*
X114042857Y-90600000D01*
X114042857Y-90866666D02*
X113971428Y-90733333D01*
X113899999Y-90666666D01*
X113757142Y-90600000D01*
X113614285Y-90600000D01*
X113114285Y-90600000D02*
X113114285Y-92000000D01*
X113114285Y-90666666D02*
X112971428Y-90600000D01*
X112685714Y-90600000D01*
X112542857Y-90666666D01*
X112471428Y-90733333D01*
X112399999Y-90866666D01*
X112399999Y-91266666D01*
X112471428Y-91400000D01*
X112542857Y-91466666D01*
X112685714Y-91533333D01*
X112971428Y-91533333D01*
X113114285Y-91466666D01*
X111828571Y-90266666D02*
X111757142Y-90200000D01*
X111614285Y-90133333D01*
X111257142Y-90133333D01*
X111114285Y-90200000D01*
X111042857Y-90266666D01*
X110971428Y-90400000D01*
X110971428Y-90533333D01*
X111042857Y-90733333D01*
X111899999Y-91533333D01*
X110971428Y-91533333D01*
X110042857Y-90133333D02*
X109899999Y-90133333D01*
X109757142Y-90200000D01*
X109685714Y-90266666D01*
X109614285Y-90400000D01*
X109542857Y-90666666D01*
X109542857Y-91000000D01*
X109614285Y-91266666D01*
X109685714Y-91400000D01*
X109757142Y-91466666D01*
X109899999Y-91533333D01*
X110042857Y-91533333D01*
X110185714Y-91466666D01*
X110257142Y-91400000D01*
X110328571Y-91266666D01*
X110399999Y-91000000D01*
X110399999Y-90666666D01*
X110328571Y-90400000D01*
X110257142Y-90266666D01*
X110185714Y-90200000D01*
X110042857Y-90133333D01*
X108257142Y-90600000D02*
X108257142Y-91533333D01*
X108614285Y-90066666D02*
X108971428Y-91066666D01*
X108042857Y-91066666D01*
X107185714Y-90133333D02*
X107042857Y-90133333D01*
X106899999Y-90200000D01*
X106828571Y-90266666D01*
X106757142Y-90400000D01*
X106685714Y-90666666D01*
X106685714Y-91000000D01*
X106757142Y-91266666D01*
X106828571Y-91400000D01*
X106899999Y-91466666D01*
X107042857Y-91533333D01*
X107185714Y-91533333D01*
X107328571Y-91466666D01*
X107399999Y-91400000D01*
X107471428Y-91266666D01*
X107542857Y-91000000D01*
X107542857Y-90666666D01*
X107471428Y-90400000D01*
X107399999Y-90266666D01*
X107328571Y-90200000D01*
X107185714Y-90133333D01*
X106042857Y-91000000D02*
X104899999Y-91000000D01*
X104185714Y-91533333D02*
X104185714Y-90600000D01*
X104185714Y-90733333D02*
X104114285Y-90666666D01*
X103971428Y-90600000D01*
X103757142Y-90600000D01*
X103614285Y-90666666D01*
X103542857Y-90800000D01*
X103542857Y-91533333D01*
X103542857Y-90800000D02*
X103471428Y-90666666D01*
X103328571Y-90600000D01*
X103114285Y-90600000D01*
X102971428Y-90666666D01*
X102899999Y-90800000D01*
X102899999Y-91533333D01*
X101971428Y-91533333D02*
X102114285Y-91466666D01*
X102185714Y-91400000D01*
X102257142Y-91266666D01*
X102257142Y-90866666D01*
X102185714Y-90733333D01*
X102114285Y-90666666D01*
X101971428Y-90600000D01*
X101757142Y-90600000D01*
X101614285Y-90666666D01*
X101542857Y-90733333D01*
X101471428Y-90866666D01*
X101471428Y-91266666D01*
X101542857Y-91400000D01*
X101614285Y-91466666D01*
X101757142Y-91533333D01*
X101971428Y-91533333D01*
X101042857Y-90600000D02*
X100471428Y-90600000D01*
X100828571Y-90133333D02*
X100828571Y-91333333D01*
X100757142Y-91466666D01*
X100614285Y-91533333D01*
X100471428Y-91533333D01*
X99757142Y-91533333D02*
X99899999Y-91466666D01*
X99971428Y-91400000D01*
X100042857Y-91266666D01*
X100042857Y-90866666D01*
X99971428Y-90733333D01*
X99899999Y-90666666D01*
X99757142Y-90600000D01*
X99542857Y-90600000D01*
X99399999Y-90666666D01*
X99328571Y-90733333D01*
X99257142Y-90866666D01*
X99257142Y-91266666D01*
X99328571Y-91400000D01*
X99399999Y-91466666D01*
X99542857Y-91533333D01*
X99757142Y-91533333D01*
X98614285Y-91533333D02*
X98614285Y-90600000D01*
X98614285Y-90866666D02*
X98542857Y-90733333D01*
X98471428Y-90666666D01*
X98328571Y-90600000D01*
X98185714Y-90600000D01*
X97685714Y-91000000D02*
X96542857Y-91000000D01*
X95185714Y-91466666D02*
X95328571Y-91533333D01*
X95614285Y-91533333D01*
X95757142Y-91466666D01*
X95828571Y-91400000D01*
X95899999Y-91266666D01*
X95899999Y-90866666D01*
X95828571Y-90733333D01*
X95757142Y-90666666D01*
X95614285Y-90600000D01*
X95328571Y-90600000D01*
X95185714Y-90666666D01*
X94328571Y-91533333D02*
X94471428Y-91466666D01*
X94542857Y-91400000D01*
X94614285Y-91266666D01*
X94614285Y-90866666D01*
X94542857Y-90733333D01*
X94471428Y-90666666D01*
X94328571Y-90600000D01*
X94114285Y-90600000D01*
X93971428Y-90666666D01*
X93899999Y-90733333D01*
X93828571Y-90866666D01*
X93828571Y-91266666D01*
X93899999Y-91400000D01*
X93971428Y-91466666D01*
X94114285Y-91533333D01*
X94328571Y-91533333D01*
X93185714Y-90600000D02*
X93185714Y-91533333D01*
X93185714Y-90733333D02*
X93114285Y-90666666D01*
X92971428Y-90600000D01*
X92757142Y-90600000D01*
X92614285Y-90666666D01*
X92542857Y-90800000D01*
X92542857Y-91533333D01*
X92042857Y-90600000D02*
X91471428Y-90600000D01*
X91828571Y-90133333D02*
X91828571Y-91333333D01*
X91757142Y-91466666D01*
X91614285Y-91533333D01*
X91471428Y-91533333D01*
X90971428Y-91533333D02*
X90971428Y-90600000D01*
X90971428Y-90866666D02*
X90899999Y-90733333D01*
X90828571Y-90666666D01*
X90685714Y-90600000D01*
X90542857Y-90600000D01*
X89828571Y-91533333D02*
X89971428Y-91466666D01*
X90042857Y-91400000D01*
X90114285Y-91266666D01*
X90114285Y-90866666D01*
X90042857Y-90733333D01*
X89971428Y-90666666D01*
X89828571Y-90600000D01*
X89614285Y-90600000D01*
X89471428Y-90666666D01*
X89399999Y-90733333D01*
X89328571Y-90866666D01*
X89328571Y-91266666D01*
X89399999Y-91400000D01*
X89471428Y-91466666D01*
X89614285Y-91533333D01*
X89828571Y-91533333D01*
X88471428Y-91533333D02*
X88614285Y-91466666D01*
X88685714Y-91333333D01*
X88685714Y-90133333D01*
X87685714Y-91533333D02*
X87828571Y-91466666D01*
X87899999Y-91333333D01*
X87899999Y-90133333D01*
X86542857Y-91466666D02*
X86685714Y-91533333D01*
X86971428Y-91533333D01*
X87114285Y-91466666D01*
X87185714Y-91333333D01*
X87185714Y-90800000D01*
X87114285Y-90666666D01*
X86971428Y-90600000D01*
X86685714Y-90600000D01*
X86542857Y-90666666D01*
X86471428Y-90800000D01*
X86471428Y-90933333D01*
X87185714Y-91066666D01*
X85828571Y-91533333D02*
X85828571Y-90600000D01*
X85828571Y-90866666D02*
X85757142Y-90733333D01*
X85685714Y-90666666D01*
X85542857Y-90600000D01*
X85399999Y-90600000D01*
X111271428Y-84166666D02*
X111271428Y-84833333D01*
X111771428Y-83433333D02*
X111271428Y-84166666D01*
X110771428Y-83433333D01*
X110057142Y-84833333D02*
X110200000Y-84766666D01*
X110271428Y-84700000D01*
X110342857Y-84566666D01*
X110342857Y-84166666D01*
X110271428Y-84033333D01*
X110200000Y-83966666D01*
X110057142Y-83900000D01*
X109842857Y-83900000D01*
X109700000Y-83966666D01*
X109628571Y-84033333D01*
X109557142Y-84166666D01*
X109557142Y-84566666D01*
X109628571Y-84700000D01*
X109700000Y-84766666D01*
X109842857Y-84833333D01*
X110057142Y-84833333D01*
X108271428Y-83900000D02*
X108271428Y-84833333D01*
X108914285Y-83900000D02*
X108914285Y-84633333D01*
X108842857Y-84766666D01*
X108700000Y-84833333D01*
X108485714Y-84833333D01*
X108342857Y-84766666D01*
X108271428Y-84700000D01*
X105771428Y-84766666D02*
X105914285Y-84833333D01*
X106200000Y-84833333D01*
X106342857Y-84766666D01*
X106414285Y-84700000D01*
X106485714Y-84566666D01*
X106485714Y-84166666D01*
X106414285Y-84033333D01*
X106342857Y-83966666D01*
X106200000Y-83900000D01*
X105914285Y-83900000D01*
X105771428Y-83966666D01*
X104485714Y-84833333D02*
X104485714Y-84100000D01*
X104557142Y-83966666D01*
X104700000Y-83900000D01*
X104985714Y-83900000D01*
X105128571Y-83966666D01*
X104485714Y-84766666D02*
X104628571Y-84833333D01*
X104985714Y-84833333D01*
X105128571Y-84766666D01*
X105200000Y-84633333D01*
X105200000Y-84500000D01*
X105128571Y-84366666D01*
X104985714Y-84300000D01*
X104628571Y-84300000D01*
X104485714Y-84233333D01*
X103771428Y-83900000D02*
X103771428Y-84833333D01*
X103771428Y-84033333D02*
X103700000Y-83966666D01*
X103557142Y-83900000D01*
X103342857Y-83900000D01*
X103200000Y-83966666D01*
X103128571Y-84100000D01*
X103128571Y-84833333D01*
X100628571Y-84833333D02*
X100628571Y-83433333D01*
X100628571Y-84766666D02*
X100771428Y-84833333D01*
X101057142Y-84833333D01*
X101200000Y-84766666D01*
X101271428Y-84700000D01*
X101342857Y-84566666D01*
X101342857Y-84166666D01*
X101271428Y-84033333D01*
X101200000Y-83966666D01*
X101057142Y-83900000D01*
X100771428Y-83900000D01*
X100628571Y-83966666D01*
X99700000Y-84833333D02*
X99842857Y-84766666D01*
X99914285Y-84700000D01*
X99985714Y-84566666D01*
X99985714Y-84166666D01*
X99914285Y-84033333D01*
X99842857Y-83966666D01*
X99700000Y-83900000D01*
X99485714Y-83900000D01*
X99342857Y-83966666D01*
X99271428Y-84033333D01*
X99200000Y-84166666D01*
X99200000Y-84566666D01*
X99271428Y-84700000D01*
X99342857Y-84766666D01*
X99485714Y-84833333D01*
X99700000Y-84833333D01*
X97414285Y-84833333D02*
X97414285Y-83900000D01*
X97414285Y-83433333D02*
X97485714Y-83500000D01*
X97414285Y-83566666D01*
X97342857Y-83500000D01*
X97414285Y-83433333D01*
X97414285Y-83566666D01*
X96914285Y-83900000D02*
X96342857Y-83900000D01*
X96700000Y-83433333D02*
X96700000Y-84633333D01*
X96628571Y-84766666D01*
X96485714Y-84833333D01*
X96342857Y-84833333D01*
X95842857Y-84700000D02*
X95771428Y-84766666D01*
X95842857Y-84833333D01*
X95914285Y-84766666D01*
X95842857Y-84700000D01*
X95842857Y-84833333D01*
X95842857Y-84300000D02*
X95914285Y-83500000D01*
X95842857Y-83433333D01*
X95771428Y-83500000D01*
X95842857Y-84300000D01*
X95842857Y-83433333D01*
X148433333Y-96671428D02*
X149833333Y-97028571D01*
X148833333Y-97314285D01*
X149833333Y-97600000D01*
X148433333Y-97957142D01*
X149766666Y-99100000D02*
X149833333Y-98957142D01*
X149833333Y-98671428D01*
X149766666Y-98528571D01*
X149633333Y-98457142D01*
X149100000Y-98457142D01*
X148966666Y-98528571D01*
X148900000Y-98671428D01*
X148900000Y-98957142D01*
X148966666Y-99100000D01*
X149100000Y-99171428D01*
X149233333Y-99171428D01*
X149366666Y-98457142D01*
X149833333Y-101600000D02*
X149100000Y-101600000D01*
X148966666Y-101528571D01*
X148900000Y-101385714D01*
X148900000Y-101100000D01*
X148966666Y-100957142D01*
X149766666Y-101600000D02*
X149833333Y-101457142D01*
X149833333Y-101100000D01*
X149766666Y-100957142D01*
X149633333Y-100885714D01*
X149500000Y-100885714D01*
X149366666Y-100957142D01*
X149300000Y-101100000D01*
X149300000Y-101457142D01*
X149233333Y-101600000D01*
X149833333Y-102314285D02*
X148900000Y-102314285D01*
X149166666Y-102314285D02*
X149033333Y-102385714D01*
X148966666Y-102457142D01*
X148900000Y-102600000D01*
X148900000Y-102742857D01*
X149766666Y-103814285D02*
X149833333Y-103671428D01*
X149833333Y-103385714D01*
X149766666Y-103242857D01*
X149633333Y-103171428D01*
X149100000Y-103171428D01*
X148966666Y-103242857D01*
X148900000Y-103385714D01*
X148900000Y-103671428D01*
X148966666Y-103814285D01*
X149100000Y-103885714D01*
X149233333Y-103885714D01*
X149366666Y-103171428D01*
X149833333Y-106314285D02*
X149100000Y-106314285D01*
X148966666Y-106242857D01*
X148900000Y-106100000D01*
X148900000Y-105814285D01*
X148966666Y-105671428D01*
X149766666Y-106314285D02*
X149833333Y-106171428D01*
X149833333Y-105814285D01*
X149766666Y-105671428D01*
X149633333Y-105600000D01*
X149500000Y-105600000D01*
X149366666Y-105671428D01*
X149300000Y-105814285D01*
X149300000Y-106171428D01*
X149233333Y-106314285D01*
X149833333Y-107242857D02*
X149766666Y-107100000D01*
X149633333Y-107028571D01*
X148433333Y-107028571D01*
X149833333Y-108028571D02*
X149766666Y-107885714D01*
X149633333Y-107814285D01*
X148433333Y-107814285D01*
X149766666Y-109671428D02*
X149833333Y-109814285D01*
X149833333Y-110100000D01*
X149766666Y-110242857D01*
X149633333Y-110314285D01*
X149566666Y-110314285D01*
X149433333Y-110242857D01*
X149366666Y-110100000D01*
X149366666Y-109885714D01*
X149300000Y-109742857D01*
X149166666Y-109671428D01*
X149100000Y-109671428D01*
X148966666Y-109742857D01*
X148900000Y-109885714D01*
X148900000Y-110100000D01*
X148966666Y-110242857D01*
X148900000Y-110742857D02*
X148900000Y-111314285D01*
X148433333Y-110957142D02*
X149633333Y-110957142D01*
X149766666Y-111028571D01*
X149833333Y-111171428D01*
X149833333Y-111314285D01*
X149833333Y-112457142D02*
X149100000Y-112457142D01*
X148966666Y-112385714D01*
X148900000Y-112242857D01*
X148900000Y-111957142D01*
X148966666Y-111814285D01*
X149766666Y-112457142D02*
X149833333Y-112314285D01*
X149833333Y-111957142D01*
X149766666Y-111814285D01*
X149633333Y-111742857D01*
X149500000Y-111742857D01*
X149366666Y-111814285D01*
X149300000Y-111957142D01*
X149300000Y-112314285D01*
X149233333Y-112457142D01*
X149833333Y-113171428D02*
X148900000Y-113171428D01*
X149166666Y-113171428D02*
X149033333Y-113242857D01*
X148966666Y-113314285D01*
X148900000Y-113457142D01*
X148900000Y-113600000D01*
X149766666Y-115171428D02*
X149833333Y-115314285D01*
X149833333Y-115600000D01*
X149766666Y-115742857D01*
X149633333Y-115814285D01*
X149566666Y-115814285D01*
X149433333Y-115742857D01*
X149366666Y-115600000D01*
X149366666Y-115385714D01*
X149300000Y-115242857D01*
X149166666Y-115171428D01*
X149100000Y-115171428D01*
X148966666Y-115242857D01*
X148900000Y-115385714D01*
X148900000Y-115600000D01*
X148966666Y-115742857D01*
X148900000Y-116242857D02*
X148900000Y-116814285D01*
X148433333Y-116457142D02*
X149633333Y-116457142D01*
X149766666Y-116528571D01*
X149833333Y-116671428D01*
X149833333Y-116814285D01*
X148900000Y-117957142D02*
X149833333Y-117957142D01*
X148900000Y-117314285D02*
X149633333Y-117314285D01*
X149766666Y-117385714D01*
X149833333Y-117528571D01*
X149833333Y-117742857D01*
X149766666Y-117885714D01*
X149700000Y-117957142D01*
X148900000Y-118457142D02*
X148900000Y-119028571D01*
X149833333Y-118671428D02*
X148633333Y-118671428D01*
X148500000Y-118742857D01*
X148433333Y-118885714D01*
X148433333Y-119028571D01*
X148900000Y-119314285D02*
X148900000Y-119885714D01*
X149833333Y-119528571D02*
X148633333Y-119528571D01*
X148500000Y-119600000D01*
X148433333Y-119742857D01*
X148433333Y-119885714D01*
X149700000Y-120385714D02*
X149766666Y-120457142D01*
X149833333Y-120385714D01*
X149766666Y-120314285D01*
X149700000Y-120385714D01*
X149833333Y-120385714D01*
D11*
X155485714Y-94904761D02*
X156152380Y-93952380D01*
X156628571Y-94904761D02*
X156628571Y-92904761D01*
X155866666Y-92904761D01*
X155676190Y-93000000D01*
X155580952Y-93095238D01*
X155485714Y-93285714D01*
X155485714Y-93571428D01*
X155580952Y-93761904D01*
X155676190Y-93857142D01*
X155866666Y-93952380D01*
X156628571Y-93952380D01*
X154628571Y-94904761D02*
X154628571Y-92904761D01*
X153866666Y-92904761D01*
X153676190Y-93000000D01*
X153580952Y-93095238D01*
X153485714Y-93285714D01*
X153485714Y-93571428D01*
X153580952Y-93761904D01*
X153676190Y-93857142D01*
X153866666Y-93952380D01*
X154628571Y-93952380D01*
X152723809Y-93095238D02*
X152628571Y-93000000D01*
X152438095Y-92904761D01*
X151961904Y-92904761D01*
X151771428Y-93000000D01*
X151676190Y-93095238D01*
X151580952Y-93285714D01*
X151580952Y-93476190D01*
X151676190Y-93761904D01*
X152819047Y-94904761D01*
X151580952Y-94904761D01*
X150342857Y-92904761D02*
X150152380Y-92904761D01*
X149961904Y-93000000D01*
X149866666Y-93095238D01*
X149771428Y-93285714D01*
X149676190Y-93666666D01*
X149676190Y-94142857D01*
X149771428Y-94523809D01*
X149866666Y-94714285D01*
X149961904Y-94809523D01*
X150152380Y-94904761D01*
X150342857Y-94904761D01*
X150533333Y-94809523D01*
X150628571Y-94714285D01*
X150723809Y-94523809D01*
X150819047Y-94142857D01*
X150819047Y-93666666D01*
X150723809Y-93285714D01*
X150628571Y-93095238D01*
X150533333Y-93000000D01*
X150342857Y-92904761D01*
X147961904Y-93571428D02*
X147961904Y-94904761D01*
X148438095Y-92809523D02*
X148914285Y-94238095D01*
X147676190Y-94238095D01*
X146533333Y-92904761D02*
X146342857Y-92904761D01*
X146152380Y-93000000D01*
X146057142Y-93095238D01*
X145961904Y-93285714D01*
X145866666Y-93666666D01*
X145866666Y-94142857D01*
X145961904Y-94523809D01*
X146057142Y-94714285D01*
X146152380Y-94809523D01*
X146342857Y-94904761D01*
X146533333Y-94904761D01*
X146723809Y-94809523D01*
X146819047Y-94714285D01*
X146914285Y-94523809D01*
X147009523Y-94142857D01*
X147009523Y-93666666D01*
X146914285Y-93285714D01*
X146819047Y-93095238D01*
X146723809Y-93000000D01*
X146533333Y-92904761D01*
X142819047Y-93857142D02*
X142533333Y-93952380D01*
X142438095Y-94047619D01*
X142342857Y-94238095D01*
X142342857Y-94523809D01*
X142438095Y-94714285D01*
X142533333Y-94809523D01*
X142723809Y-94904761D01*
X143485714Y-94904761D01*
X143485714Y-92904761D01*
X142819047Y-92904761D01*
X142628571Y-93000000D01*
X142533333Y-93095238D01*
X142438095Y-93285714D01*
X142438095Y-93476190D01*
X142533333Y-93666666D01*
X142628571Y-93761904D01*
X142819047Y-93857142D01*
X143485714Y-93857142D01*
X141485714Y-94904761D02*
X141485714Y-93571428D01*
X141485714Y-93952380D02*
X141390476Y-93761904D01*
X141295238Y-93666666D01*
X141104761Y-93571428D01*
X140914285Y-93571428D01*
X139390476Y-93571428D02*
X139390476Y-94904761D01*
X140247619Y-93571428D02*
X140247619Y-94619047D01*
X140152380Y-94809523D01*
X139961904Y-94904761D01*
X139676190Y-94904761D01*
X139485714Y-94809523D01*
X139390476Y-94714285D01*
X138533333Y-94809523D02*
X138342857Y-94904761D01*
X137961904Y-94904761D01*
X137771428Y-94809523D01*
X137676190Y-94619047D01*
X137676190Y-94523809D01*
X137771428Y-94333333D01*
X137961904Y-94238095D01*
X138247619Y-94238095D01*
X138438095Y-94142857D01*
X138533333Y-93952380D01*
X138533333Y-93857142D01*
X138438095Y-93666666D01*
X138247619Y-93571428D01*
X137961904Y-93571428D01*
X137771428Y-93666666D01*
X136819047Y-94904761D02*
X136819047Y-92904761D01*
X135961904Y-94904761D02*
X135961904Y-93857142D01*
X136057142Y-93666666D01*
X136247619Y-93571428D01*
X136533333Y-93571428D01*
X136723809Y-93666666D01*
X136819047Y-93761904D01*
X134723809Y-94904761D02*
X134914285Y-94809523D01*
X135009523Y-94619047D01*
X135009523Y-92904761D01*
X133200000Y-94809523D02*
X133390476Y-94904761D01*
X133771428Y-94904761D01*
X133961904Y-94809523D01*
X134057142Y-94619047D01*
X134057142Y-93857142D01*
X133961904Y-93666666D01*
X133771428Y-93571428D01*
X133390476Y-93571428D01*
X133200000Y-93666666D01*
X133104761Y-93857142D01*
X133104761Y-94047619D01*
X134057142Y-94238095D01*
X132342857Y-94809523D02*
X132152380Y-94904761D01*
X131771428Y-94904761D01*
X131580952Y-94809523D01*
X131485714Y-94619047D01*
X131485714Y-94523809D01*
X131580952Y-94333333D01*
X131771428Y-94238095D01*
X132057142Y-94238095D01*
X132247619Y-94142857D01*
X132342857Y-93952380D01*
X132342857Y-93857142D01*
X132247619Y-93666666D01*
X132057142Y-93571428D01*
X131771428Y-93571428D01*
X131580952Y-93666666D01*
X130723809Y-94809523D02*
X130533333Y-94904761D01*
X130152380Y-94904761D01*
X129961904Y-94809523D01*
X129866666Y-94619047D01*
X129866666Y-94523809D01*
X129961904Y-94333333D01*
X130152380Y-94238095D01*
X130438095Y-94238095D01*
X130628571Y-94142857D01*
X130723809Y-93952380D01*
X130723809Y-93857142D01*
X130628571Y-93666666D01*
X130438095Y-93571428D01*
X130152380Y-93571428D01*
X129961904Y-93666666D01*
X127485714Y-94904761D02*
X127485714Y-92904761D01*
X126819047Y-94333333D01*
X126152380Y-92904761D01*
X126152380Y-94904761D01*
X124914285Y-94904761D02*
X125104761Y-94809523D01*
X125200000Y-94714285D01*
X125295238Y-94523809D01*
X125295238Y-93952380D01*
X125200000Y-93761904D01*
X125104761Y-93666666D01*
X124914285Y-93571428D01*
X124628571Y-93571428D01*
X124438095Y-93666666D01*
X124342857Y-93761904D01*
X124247619Y-93952380D01*
X124247619Y-94523809D01*
X124342857Y-94714285D01*
X124438095Y-94809523D01*
X124628571Y-94904761D01*
X124914285Y-94904761D01*
X123676190Y-93571428D02*
X122914285Y-93571428D01*
X123390476Y-92904761D02*
X123390476Y-94619047D01*
X123295238Y-94809523D01*
X123104761Y-94904761D01*
X122914285Y-94904761D01*
X121961904Y-94904761D02*
X122152380Y-94809523D01*
X122247619Y-94714285D01*
X122342857Y-94523809D01*
X122342857Y-93952380D01*
X122247619Y-93761904D01*
X122152380Y-93666666D01*
X121961904Y-93571428D01*
X121676190Y-93571428D01*
X121485714Y-93666666D01*
X121390476Y-93761904D01*
X121295238Y-93952380D01*
X121295238Y-94523809D01*
X121390476Y-94714285D01*
X121485714Y-94809523D01*
X121676190Y-94904761D01*
X121961904Y-94904761D01*
X120438095Y-94904761D02*
X120438095Y-93571428D01*
X120438095Y-93952380D02*
X120342857Y-93761904D01*
X120247619Y-93666666D01*
X120057142Y-93571428D01*
X119866666Y-93571428D01*
X116533333Y-94714285D02*
X116628571Y-94809523D01*
X116914285Y-94904761D01*
X117104761Y-94904761D01*
X117390476Y-94809523D01*
X117580952Y-94619047D01*
X117676190Y-94428571D01*
X117771428Y-94047619D01*
X117771428Y-93761904D01*
X117676190Y-93380952D01*
X117580952Y-93190476D01*
X117390476Y-93000000D01*
X117104761Y-92904761D01*
X116914285Y-92904761D01*
X116628571Y-93000000D01*
X116533333Y-93095238D01*
X115390476Y-94904761D02*
X115580952Y-94809523D01*
X115676190Y-94714285D01*
X115771428Y-94523809D01*
X115771428Y-93952380D01*
X115676190Y-93761904D01*
X115580952Y-93666666D01*
X115390476Y-93571428D01*
X115104761Y-93571428D01*
X114914285Y-93666666D01*
X114819047Y-93761904D01*
X114723809Y-93952380D01*
X114723809Y-94523809D01*
X114819047Y-94714285D01*
X114914285Y-94809523D01*
X115104761Y-94904761D01*
X115390476Y-94904761D01*
X113866666Y-93571428D02*
X113866666Y-94904761D01*
X113866666Y-93761904D02*
X113771428Y-93666666D01*
X113580952Y-93571428D01*
X113295238Y-93571428D01*
X113104761Y-93666666D01*
X113009523Y-93857142D01*
X113009523Y-94904761D01*
X112342857Y-93571428D02*
X111580952Y-93571428D01*
X112057142Y-92904761D02*
X112057142Y-94619047D01*
X111961904Y-94809523D01*
X111771428Y-94904761D01*
X111580952Y-94904761D01*
X110914285Y-94904761D02*
X110914285Y-93571428D01*
X110914285Y-93952380D02*
X110819047Y-93761904D01*
X110723809Y-93666666D01*
X110533333Y-93571428D01*
X110342857Y-93571428D01*
X109390476Y-94904761D02*
X109580952Y-94809523D01*
X109676190Y-94714285D01*
X109771428Y-94523809D01*
X109771428Y-93952380D01*
X109676190Y-93761904D01*
X109580952Y-93666666D01*
X109390476Y-93571428D01*
X109104761Y-93571428D01*
X108914285Y-93666666D01*
X108819047Y-93761904D01*
X108723809Y-93952380D01*
X108723809Y-94523809D01*
X108819047Y-94714285D01*
X108914285Y-94809523D01*
X109104761Y-94904761D01*
X109390476Y-94904761D01*
X107580952Y-94904761D02*
X107771428Y-94809523D01*
X107866666Y-94619047D01*
X107866666Y-92904761D01*
X106533333Y-94904761D02*
X106723809Y-94809523D01*
X106819047Y-94619047D01*
X106819047Y-92904761D01*
X105009523Y-94809523D02*
X105200000Y-94904761D01*
X105580952Y-94904761D01*
X105771428Y-94809523D01*
X105866666Y-94619047D01*
X105866666Y-93857142D01*
X105771428Y-93666666D01*
X105580952Y-93571428D01*
X105200000Y-93571428D01*
X105009523Y-93666666D01*
X104914285Y-93857142D01*
X104914285Y-94047619D01*
X105866666Y-94238095D01*
X104057142Y-94904761D02*
X104057142Y-93571428D01*
X104057142Y-93952380D02*
X103961904Y-93761904D01*
X103866666Y-93666666D01*
X103676190Y-93571428D01*
X103485714Y-93571428D01*
G36*
X122377187Y-84816071D02*
G01*
X122475575Y-84847298D01*
X122565439Y-84905540D01*
X122657892Y-84996094D01*
X122723778Y-85077568D01*
X122779403Y-85172968D01*
X122815386Y-85278178D01*
X122834876Y-85402833D01*
X122841019Y-85556563D01*
X122841073Y-85601818D01*
X122839782Y-85690871D01*
X122834938Y-85755664D01*
X122824641Y-85807433D01*
X122806990Y-85857415D01*
X122780085Y-85916847D01*
X122754287Y-85964624D01*
X122694083Y-86056777D01*
X122613953Y-86164496D01*
X122519249Y-86280322D01*
X122492036Y-86312534D01*
X122417980Y-86403403D01*
X122351146Y-86489769D01*
X122297975Y-86563152D01*
X122264911Y-86615072D01*
X122220491Y-86712410D01*
X122176403Y-86872001D01*
X122160488Y-87037513D01*
X122173461Y-87198268D01*
X122216040Y-87343591D01*
X122221105Y-87355043D01*
X122277035Y-87446365D01*
X122345242Y-87500355D01*
X122427051Y-87518108D01*
X122438585Y-87517595D01*
X122508497Y-87492712D01*
X122572950Y-87434730D01*
X122628736Y-87349587D01*
X122672647Y-87243222D01*
X122701475Y-87121575D01*
X122712010Y-86990586D01*
X122717284Y-86896508D01*
X122736495Y-86822740D01*
X122771786Y-86779114D01*
X122825250Y-86761388D01*
X122828525Y-86761096D01*
X122885183Y-86769057D01*
X122923356Y-86805685D01*
X122944823Y-86874028D01*
X122951368Y-86977132D01*
X122950205Y-87030056D01*
X122930784Y-87207161D01*
X122889282Y-87368835D01*
X122828062Y-87510428D01*
X122749485Y-87627286D01*
X122655914Y-87714758D01*
X122549709Y-87768193D01*
X122534854Y-87772700D01*
X122435233Y-87793433D01*
X122341174Y-87791546D01*
X122233446Y-87766965D01*
X122164987Y-87740571D01*
X122051031Y-87666060D01*
X121953554Y-87562344D01*
X121874085Y-87434764D01*
X121814155Y-87288663D01*
X121775294Y-87129381D01*
X121759033Y-86962260D01*
X121766900Y-86792642D01*
X121800426Y-86625868D01*
X121861142Y-86467281D01*
X121880497Y-86430724D01*
X121934031Y-86342901D01*
X121999118Y-86247720D01*
X122065752Y-86160202D01*
X122175205Y-86022153D01*
X122272643Y-85891127D01*
X122349205Y-85778567D01*
X122402567Y-85687898D01*
X122430408Y-85622543D01*
X122439192Y-85583849D01*
X122449928Y-85488335D01*
X122449929Y-85387822D01*
X122439608Y-85296939D01*
X122419376Y-85230313D01*
X122395849Y-85188566D01*
X122337287Y-85117346D01*
X122274736Y-85080017D01*
X122212235Y-85078348D01*
X122153825Y-85114105D01*
X122148649Y-85119869D01*
X122119537Y-85174067D01*
X122094990Y-85254083D01*
X122078039Y-85347777D01*
X122071715Y-85443008D01*
X122069739Y-85482653D01*
X122048961Y-85558123D01*
X122006829Y-85602193D01*
X121944933Y-85612732D01*
X121938913Y-85612062D01*
X121890388Y-85596992D01*
X121858518Y-85562914D01*
X121841793Y-85504933D01*
X121838703Y-85418149D01*
X121847735Y-85297666D01*
X121853065Y-85251875D01*
X121878793Y-85110997D01*
X121916675Y-85002200D01*
X121969050Y-84920099D01*
X122038258Y-84859311D01*
X122071128Y-84839060D01*
X122120089Y-84818283D01*
X122177984Y-84808675D01*
X122260255Y-84806567D01*
X122377187Y-84816071D01*
G37*
G36*
X129911974Y-84835007D02*
G01*
X129944815Y-84835996D01*
X129993291Y-84837669D01*
X130051849Y-84849616D01*
X130091715Y-84876028D01*
X130092566Y-84876883D01*
X130100229Y-84885659D01*
X130106822Y-84897237D01*
X130112423Y-84914481D01*
X130117115Y-84940254D01*
X130120977Y-84977420D01*
X130124091Y-85028844D01*
X130126536Y-85097388D01*
X130128394Y-85185917D01*
X130129745Y-85297295D01*
X130130669Y-85434385D01*
X130131248Y-85600052D01*
X130131561Y-85797158D01*
X130131690Y-86028569D01*
X130131715Y-86297147D01*
X130131715Y-86326505D01*
X130131683Y-86591137D01*
X130131539Y-86818895D01*
X130131202Y-87012643D01*
X130130592Y-87175244D01*
X130129627Y-87309564D01*
X130128228Y-87418465D01*
X130126314Y-87504811D01*
X130123803Y-87571467D01*
X130120617Y-87621295D01*
X130116673Y-87657160D01*
X130111892Y-87681926D01*
X130106192Y-87698456D01*
X130099494Y-87709615D01*
X130091715Y-87718266D01*
X130073332Y-87733464D01*
X130023803Y-87752681D01*
X129948290Y-87758297D01*
X129946888Y-87758299D01*
X129913484Y-87759423D01*
X129884592Y-87760775D01*
X129859886Y-87759670D01*
X129839040Y-87753424D01*
X129821731Y-87739354D01*
X129807632Y-87714777D01*
X129796419Y-87677007D01*
X129787767Y-87623362D01*
X129781350Y-87551158D01*
X129776843Y-87457710D01*
X129773922Y-87340336D01*
X129772261Y-87196350D01*
X129771534Y-87023070D01*
X129771418Y-86817812D01*
X129771587Y-86577891D01*
X129771715Y-86300624D01*
X129771715Y-86297890D01*
X129771597Y-86020371D01*
X129771459Y-85780179D01*
X129771617Y-85574632D01*
X129772390Y-85401052D01*
X129774093Y-85256757D01*
X129777043Y-85139070D01*
X129781557Y-85045309D01*
X129787952Y-84972794D01*
X129796543Y-84918847D01*
X129807649Y-84880788D01*
X129821586Y-84855936D01*
X129838670Y-84841611D01*
X129859218Y-84835135D01*
X129883547Y-84833827D01*
X129911974Y-84835007D01*
G37*
G36*
X128379647Y-84836002D02*
G01*
X128509793Y-84836357D01*
X128606684Y-84837635D01*
X128676016Y-84840356D01*
X128723487Y-84845037D01*
X128754796Y-84852197D01*
X128775640Y-84862354D01*
X128791715Y-84876028D01*
X128791739Y-84876052D01*
X128799564Y-84884764D01*
X128806294Y-84896008D01*
X128812014Y-84912670D01*
X128816804Y-84937633D01*
X128820748Y-84973782D01*
X128823928Y-85024002D01*
X128826425Y-85091176D01*
X128828322Y-85178191D01*
X128829702Y-85287930D01*
X128830646Y-85423277D01*
X128831237Y-85587118D01*
X128831558Y-85782337D01*
X128831690Y-86011818D01*
X128831715Y-86278447D01*
X128831715Y-86281560D01*
X128831653Y-86553936D01*
X128831378Y-86789142D01*
X128830760Y-86990010D01*
X128829668Y-87159371D01*
X128827969Y-87300056D01*
X128825534Y-87414896D01*
X128822229Y-87506723D01*
X128817923Y-87578369D01*
X128812486Y-87632664D01*
X128805786Y-87672439D01*
X128797690Y-87700528D01*
X128788069Y-87719759D01*
X128776790Y-87732966D01*
X128763721Y-87742979D01*
X128759950Y-87744326D01*
X128723464Y-87748603D01*
X128655089Y-87752320D01*
X128561079Y-87755265D01*
X128447687Y-87757226D01*
X128321166Y-87757991D01*
X128300102Y-87758000D01*
X128148616Y-87757351D01*
X128032035Y-87754613D01*
X127945827Y-87748656D01*
X127885458Y-87738351D01*
X127846396Y-87722569D01*
X127824107Y-87700180D01*
X127814058Y-87670054D01*
X127811715Y-87631063D01*
X127812499Y-87603326D01*
X127819433Y-87569356D01*
X127838271Y-87545830D01*
X127874632Y-87530846D01*
X127934131Y-87522500D01*
X128022385Y-87518889D01*
X128145012Y-87518108D01*
X128146028Y-87518108D01*
X128258543Y-87517711D01*
X128337671Y-87515964D01*
X128389969Y-87512019D01*
X128421997Y-87505029D01*
X128440313Y-87494147D01*
X128451475Y-87478526D01*
X128454140Y-87471558D01*
X128461416Y-87423628D01*
X128466111Y-87340491D01*
X128468080Y-87225801D01*
X128467179Y-87083215D01*
X128461715Y-86727485D01*
X128245036Y-86717478D01*
X128171013Y-86713604D01*
X128096049Y-86707386D01*
X128047752Y-86698851D01*
X128018342Y-86686445D01*
X128000036Y-86668616D01*
X127982862Y-86639707D01*
X127975016Y-86579995D01*
X128006715Y-86519792D01*
X128023447Y-86503189D01*
X128049788Y-86489516D01*
X128091037Y-86480925D01*
X128155558Y-86475804D01*
X128251715Y-86472540D01*
X128461715Y-86467281D01*
X128466990Y-85810961D01*
X128467844Y-85666302D01*
X128467745Y-85481034D01*
X128466021Y-85332492D01*
X128462690Y-85221496D01*
X128457773Y-85148864D01*
X128451286Y-85115414D01*
X128445758Y-85106381D01*
X128430493Y-85092756D01*
X128403588Y-85083956D01*
X128357954Y-85078950D01*
X128286503Y-85076704D01*
X128182146Y-85076185D01*
X128104336Y-85075993D01*
X128024326Y-85074499D01*
X127971595Y-85070505D01*
X127938721Y-85062828D01*
X127918281Y-85050288D01*
X127902850Y-85031700D01*
X127880360Y-84990414D01*
X127876549Y-84931326D01*
X127911715Y-84876028D01*
X127914566Y-84873233D01*
X127931089Y-84860243D01*
X127953426Y-84850675D01*
X127987272Y-84844008D01*
X128038327Y-84839725D01*
X128112287Y-84837308D01*
X128214851Y-84836238D01*
X128351715Y-84835996D01*
X128379647Y-84836002D01*
G37*
G36*
X124969042Y-87707113D02*
G01*
X124925570Y-87762422D01*
X124703643Y-87755015D01*
X124610628Y-87751069D01*
X124532433Y-87744308D01*
X124471326Y-87732824D01*
X124415142Y-87714238D01*
X124351715Y-87686169D01*
X124282411Y-87649155D01*
X124136797Y-87539219D01*
X124008723Y-87394692D01*
X123899122Y-87216968D01*
X123808923Y-87007445D01*
X123739057Y-86767517D01*
X123736029Y-86754254D01*
X123723735Y-86691322D01*
X123714730Y-86623885D01*
X123708586Y-86544840D01*
X123704880Y-86447086D01*
X123703184Y-86323522D01*
X123703074Y-86167044D01*
X123703127Y-86157142D01*
X124075084Y-86157142D01*
X124081407Y-86396987D01*
X124102260Y-86622019D01*
X124136696Y-86828746D01*
X124183769Y-87013680D01*
X124242536Y-87173331D01*
X124312050Y-87304210D01*
X124391366Y-87402827D01*
X124479539Y-87465693D01*
X124486504Y-87468903D01*
X124543722Y-87489620D01*
X124589894Y-87498092D01*
X124632028Y-87498092D01*
X124626872Y-86292143D01*
X124621715Y-85086193D01*
X124523038Y-85092586D01*
X124446907Y-85103646D01*
X124353175Y-85140297D01*
X124274901Y-85203433D01*
X124211060Y-85295128D01*
X124160625Y-85417458D01*
X124122569Y-85572498D01*
X124095866Y-85762322D01*
X124079488Y-85989006D01*
X124075084Y-86157142D01*
X123703127Y-86157142D01*
X123703772Y-86036409D01*
X123705530Y-85914746D01*
X123708802Y-85820073D01*
X123714110Y-85745358D01*
X123721978Y-85683571D01*
X123732930Y-85627681D01*
X123747491Y-85570656D01*
X123782225Y-85458570D01*
X123864483Y-85266554D01*
X123965951Y-85109523D01*
X124086579Y-84987547D01*
X124226317Y-84900695D01*
X124268404Y-84882160D01*
X124314532Y-84866097D01*
X124365017Y-84855182D01*
X124428768Y-84848082D01*
X124514698Y-84843461D01*
X124631715Y-84839986D01*
X124642728Y-84839718D01*
X124759502Y-84837758D01*
X124843326Y-84838641D01*
X124900661Y-84842813D01*
X124937971Y-84850722D01*
X124961715Y-84862814D01*
X124962516Y-84863418D01*
X124970194Y-84870262D01*
X124976814Y-84880156D01*
X124982469Y-84895946D01*
X124987249Y-84920476D01*
X124991246Y-84956590D01*
X124994552Y-85007134D01*
X124997259Y-85074953D01*
X124999457Y-85162889D01*
X125001240Y-85273790D01*
X125002698Y-85410498D01*
X125003922Y-85575859D01*
X125005006Y-85772717D01*
X125006039Y-86003917D01*
X125007115Y-86272304D01*
X125011912Y-87498092D01*
X125012514Y-87651803D01*
X124969042Y-87707113D01*
G37*
G36*
X131518244Y-84836429D02*
G01*
X131642380Y-84837629D01*
X131751155Y-84839921D01*
X131838410Y-84843102D01*
X131897985Y-84846968D01*
X131923721Y-84851314D01*
X131936113Y-84860715D01*
X131947536Y-84873724D01*
X131957279Y-84892627D01*
X131965477Y-84920268D01*
X131972261Y-84959492D01*
X131977765Y-85013143D01*
X131982123Y-85084068D01*
X131985467Y-85175109D01*
X131987931Y-85289114D01*
X131989649Y-85428925D01*
X131990753Y-85597388D01*
X131991377Y-85797349D01*
X131991653Y-86031651D01*
X131991715Y-86303139D01*
X131991715Y-86321773D01*
X131991690Y-86584477D01*
X131991560Y-86810268D01*
X131991236Y-87002072D01*
X131990635Y-87162814D01*
X131989668Y-87295421D01*
X131988249Y-87402818D01*
X131986293Y-87487932D01*
X131983711Y-87553687D01*
X131980419Y-87603011D01*
X131976329Y-87638829D01*
X131971355Y-87664067D01*
X131965411Y-87681650D01*
X131958409Y-87694505D01*
X131950264Y-87705558D01*
X131943165Y-87714291D01*
X131911543Y-87742297D01*
X131869897Y-87755186D01*
X131803364Y-87758297D01*
X131793122Y-87758293D01*
X131742426Y-87757096D01*
X131702870Y-87750746D01*
X131672998Y-87734882D01*
X131651356Y-87705145D01*
X131636491Y-87657177D01*
X131626948Y-87586617D01*
X131621272Y-87489106D01*
X131618009Y-87360286D01*
X131615705Y-87195796D01*
X131609695Y-86717478D01*
X131399390Y-86717478D01*
X131335192Y-86716592D01*
X131251486Y-86712600D01*
X131187233Y-86706129D01*
X131152701Y-86697990D01*
X131142165Y-86691240D01*
X131109141Y-86645102D01*
X131101221Y-86584516D01*
X131121264Y-86525208D01*
X131130646Y-86511777D01*
X131147756Y-86495549D01*
X131173699Y-86485416D01*
X131216265Y-86479947D01*
X131283247Y-86477715D01*
X131382436Y-86477288D01*
X131612234Y-86477288D01*
X131606975Y-85781741D01*
X131601715Y-85086193D01*
X131313076Y-85080617D01*
X131299519Y-85080337D01*
X131185221Y-85076338D01*
X131092871Y-85070124D01*
X131028484Y-85062218D01*
X130998076Y-85053147D01*
X130983241Y-85032661D01*
X130972683Y-84980118D01*
X130980097Y-84920793D01*
X131004815Y-84872600D01*
X131008147Y-84869100D01*
X131023364Y-84857804D01*
X131046613Y-84849406D01*
X131083222Y-84843487D01*
X131138520Y-84839634D01*
X131217833Y-84837429D01*
X131326489Y-84836457D01*
X131469815Y-84836303D01*
X131518244Y-84836429D01*
G37*
G36*
X126761791Y-84849009D02*
G01*
X126811715Y-84876028D01*
X126812566Y-84876883D01*
X126820229Y-84885659D01*
X126826822Y-84897237D01*
X126832423Y-84914481D01*
X126837115Y-84940254D01*
X126840977Y-84977420D01*
X126844091Y-85028844D01*
X126846536Y-85097388D01*
X126848394Y-85185917D01*
X126849745Y-85297295D01*
X126850669Y-85434385D01*
X126851248Y-85600052D01*
X126851561Y-85797158D01*
X126851690Y-86028569D01*
X126851715Y-86297147D01*
X126851715Y-86326505D01*
X126851683Y-86591137D01*
X126851539Y-86818895D01*
X126851202Y-87012643D01*
X126850592Y-87175244D01*
X126849627Y-87309564D01*
X126848228Y-87418465D01*
X126846314Y-87504811D01*
X126843803Y-87571467D01*
X126840617Y-87621295D01*
X126836673Y-87657160D01*
X126831892Y-87681926D01*
X126826192Y-87698456D01*
X126819494Y-87709615D01*
X126811715Y-87718266D01*
X126801693Y-87727422D01*
X126784110Y-87738231D01*
X126758475Y-87746180D01*
X126719461Y-87751705D01*
X126661746Y-87755244D01*
X126580004Y-87757231D01*
X126468911Y-87758103D01*
X126323144Y-87758297D01*
X126255287Y-87758253D01*
X126114132Y-87757422D01*
X126006573Y-87754722D01*
X125928057Y-87749107D01*
X125874029Y-87739526D01*
X125839936Y-87724934D01*
X125821222Y-87704280D01*
X125813333Y-87676518D01*
X125811715Y-87640598D01*
X125813465Y-87601142D01*
X125822752Y-87568480D01*
X125844996Y-87545581D01*
X125885606Y-87530537D01*
X125949991Y-87521435D01*
X126043558Y-87516365D01*
X126171715Y-87513416D01*
X126481715Y-87508100D01*
X126491715Y-86200452D01*
X126492824Y-86056598D01*
X126494756Y-85815790D01*
X126496587Y-85610538D01*
X126498423Y-85437921D01*
X126500371Y-85295021D01*
X126502537Y-85178916D01*
X126505029Y-85086689D01*
X126507952Y-85015418D01*
X126511414Y-84962186D01*
X126515522Y-84924071D01*
X126520381Y-84898155D01*
X126526099Y-84881517D01*
X126532783Y-84871239D01*
X126540538Y-84864400D01*
X126553409Y-84856530D01*
X126615918Y-84838544D01*
X126690952Y-84836276D01*
X126761791Y-84849009D01*
G37*
G36*
X118259150Y-86145760D02*
G01*
X118445130Y-86153960D01*
X118605440Y-86167737D01*
X118698772Y-86177949D01*
X118773496Y-86184042D01*
X118822613Y-86184333D01*
X118853539Y-86178817D01*
X118873691Y-86167487D01*
X118885310Y-86159067D01*
X118896208Y-86159405D01*
X118900747Y-86180448D01*
X118899856Y-86228585D01*
X118894464Y-86310204D01*
X118893546Y-86322302D01*
X118884089Y-86420078D01*
X118871828Y-86516333D01*
X118859173Y-86591837D01*
X118836294Y-86703336D01*
X118713334Y-86684432D01*
X118688759Y-86681210D01*
X118598444Y-86673942D01*
X118479416Y-86668717D01*
X118339867Y-86665514D01*
X118187989Y-86664311D01*
X118031973Y-86665086D01*
X117880012Y-86667818D01*
X117740297Y-86672486D01*
X117621021Y-86679067D01*
X117530374Y-86687541D01*
X117253041Y-86730320D01*
X116984181Y-86786758D01*
X116742782Y-86853457D01*
X116557281Y-86920430D01*
X116308598Y-87031750D01*
X116049820Y-87169369D01*
X115787692Y-87329377D01*
X115528962Y-87507866D01*
X115280374Y-87700925D01*
X115199825Y-87768690D01*
X115099383Y-87855868D01*
X114992138Y-87951211D01*
X114882181Y-88050874D01*
X114773606Y-88151012D01*
X114670506Y-88247780D01*
X114576973Y-88337332D01*
X114497100Y-88415824D01*
X114434981Y-88479409D01*
X114394708Y-88524242D01*
X114380374Y-88546479D01*
X114378238Y-88560787D01*
X114363074Y-88562644D01*
X114325374Y-88541047D01*
X114273680Y-88505966D01*
X114199021Y-88451961D01*
X114119459Y-88391825D01*
X114044408Y-88332836D01*
X113983284Y-88282269D01*
X113945499Y-88247404D01*
X113900624Y-88199379D01*
X114002796Y-88070434D01*
X114059692Y-88001982D01*
X114160752Y-87889476D01*
X114279286Y-87765086D01*
X114407405Y-87636670D01*
X114537219Y-87512087D01*
X114660838Y-87399194D01*
X114770374Y-87305852D01*
X114879104Y-87220068D01*
X115251815Y-86958932D01*
X115644727Y-86731996D01*
X116056439Y-86539865D01*
X116485551Y-86383139D01*
X116930663Y-86262423D01*
X117390374Y-86178319D01*
X117489136Y-86166723D01*
X117662495Y-86153619D01*
X117856304Y-86145690D01*
X118059032Y-86143036D01*
X118259150Y-86145760D01*
G37*
G36*
X117210282Y-85241985D02*
G01*
X117268597Y-85290936D01*
X117286759Y-85314920D01*
X117317442Y-85386604D01*
X117311075Y-85452585D01*
X117267677Y-85508121D01*
X117254661Y-85517878D01*
X117194723Y-85545773D01*
X117138860Y-85537094D01*
X117078836Y-85491098D01*
X117051612Y-85459213D01*
X117021689Y-85391288D01*
X117028793Y-85326641D01*
X117073072Y-85270838D01*
X117083388Y-85263071D01*
X117149441Y-85232789D01*
X117210282Y-85241985D01*
G37*
G36*
X113075756Y-86819350D02*
G01*
X113118805Y-86824737D01*
X113186660Y-86835325D01*
X113270771Y-86849848D01*
X113634537Y-86930713D01*
X114022916Y-87054419D01*
X114393868Y-87213768D01*
X114563859Y-87296883D01*
X114357117Y-87503555D01*
X114324404Y-87536179D01*
X114254920Y-87604916D01*
X114198196Y-87660257D01*
X114159382Y-87697207D01*
X114143624Y-87710768D01*
X114143264Y-87710736D01*
X114121620Y-87700722D01*
X114075272Y-87676278D01*
X114013624Y-87642352D01*
X114008052Y-87639277D01*
X113935587Y-87603926D01*
X113843523Y-87564921D01*
X113741221Y-87525577D01*
X113638041Y-87489209D01*
X113543344Y-87459128D01*
X113466490Y-87438650D01*
X113416842Y-87431087D01*
X113382496Y-87435751D01*
X113346280Y-87453199D01*
X113339883Y-87456848D01*
X113320436Y-87445748D01*
X113292843Y-87404016D01*
X113254501Y-87328101D01*
X113241356Y-87299530D01*
X113208688Y-87223634D01*
X113173562Y-87136889D01*
X113138947Y-87047264D01*
X113107811Y-86962729D01*
X113083123Y-86891251D01*
X113067852Y-86840801D01*
X113064967Y-86819347D01*
X113075756Y-86819350D01*
G37*
G36*
X118302172Y-86800894D02*
G01*
X118471228Y-86802452D01*
X118602367Y-86805376D01*
X118696817Y-86809708D01*
X118755802Y-86815493D01*
X118780549Y-86822775D01*
X118780807Y-86823041D01*
X118787229Y-86856911D01*
X118774884Y-86922373D01*
X118744780Y-87016279D01*
X118697922Y-87135483D01*
X118635318Y-87276837D01*
X118634908Y-87277722D01*
X118594138Y-87361838D01*
X118564061Y-87413588D01*
X118541197Y-87437984D01*
X118522069Y-87440041D01*
X118499881Y-87432204D01*
X118415609Y-87411920D01*
X118304151Y-87394174D01*
X118174877Y-87380064D01*
X118037161Y-87370690D01*
X117900374Y-87367150D01*
X117810958Y-87368281D01*
X117504141Y-87393373D01*
X117207568Y-87452235D01*
X116918072Y-87546043D01*
X116632486Y-87675969D01*
X116347642Y-87843187D01*
X116060374Y-88048870D01*
X116010409Y-88089047D01*
X115922487Y-88164152D01*
X115825459Y-88251214D01*
X115723650Y-88345939D01*
X115621383Y-88444035D01*
X115522984Y-88541206D01*
X115432777Y-88633161D01*
X115355088Y-88715605D01*
X115294242Y-88784245D01*
X115254562Y-88834786D01*
X115240374Y-88862937D01*
X115241585Y-88886333D01*
X115250397Y-88912640D01*
X115270091Y-88920269D01*
X115303422Y-88907474D01*
X115353145Y-88872510D01*
X115422014Y-88813629D01*
X115512786Y-88729087D01*
X115628213Y-88617136D01*
X115652205Y-88593676D01*
X115757964Y-88491876D01*
X115863722Y-88392398D01*
X115962417Y-88301748D01*
X116046989Y-88226430D01*
X116110374Y-88172951D01*
X116195665Y-88106375D01*
X116477237Y-87911462D01*
X116759902Y-87754526D01*
X117046627Y-87634062D01*
X117340374Y-87548564D01*
X117440468Y-87529594D01*
X117604149Y-87509816D01*
X117783217Y-87498312D01*
X117964146Y-87495526D01*
X118133408Y-87501901D01*
X118277478Y-87517880D01*
X118324164Y-87525858D01*
X118398649Y-87539920D01*
X118452156Y-87551802D01*
X118475405Y-87559552D01*
X118475882Y-87569709D01*
X118457936Y-87608944D01*
X118418780Y-87672286D01*
X118361109Y-87755509D01*
X118287614Y-87854384D01*
X118201171Y-87967436D01*
X118115773Y-87947481D01*
X118099322Y-87944088D01*
X118004552Y-87934390D01*
X117884402Y-87933327D01*
X117749892Y-87940122D01*
X117612038Y-87954001D01*
X117481860Y-87974189D01*
X117370374Y-87999911D01*
X117257077Y-88037324D01*
X117082279Y-88109744D01*
X116901970Y-88199071D01*
X116729424Y-88298577D01*
X116577912Y-88401537D01*
X116522098Y-88444815D01*
X116418687Y-88531273D01*
X116315433Y-88624511D01*
X116218654Y-88718306D01*
X116134671Y-88806433D01*
X116069805Y-88882667D01*
X116030374Y-88940785D01*
X115990374Y-89017165D01*
X115780374Y-89005059D01*
X115572932Y-88986432D01*
X115242272Y-88927697D01*
X114928005Y-88834845D01*
X114633805Y-88708825D01*
X114460173Y-88621508D01*
X114795274Y-88308608D01*
X114885380Y-88224668D01*
X115015847Y-88104251D01*
X115127328Y-88003317D01*
X115225917Y-87916650D01*
X115317709Y-87839031D01*
X115408799Y-87765242D01*
X115505281Y-87690066D01*
X115613249Y-87608283D01*
X115856529Y-87435236D01*
X116135678Y-87262552D01*
X116413422Y-87120742D01*
X116697215Y-87006468D01*
X116994506Y-86916393D01*
X117312749Y-86847180D01*
X117330612Y-86843973D01*
X117407897Y-86830919D01*
X117479958Y-86820752D01*
X117553254Y-86813119D01*
X117634246Y-86807666D01*
X117729395Y-86804041D01*
X117845160Y-86801888D01*
X117988002Y-86800856D01*
X118164382Y-86800591D01*
X118302172Y-86800894D01*
G37*
G36*
X113475298Y-87566310D02*
G01*
X113551441Y-87590286D01*
X113640147Y-87622623D01*
X113734201Y-87660316D01*
X113826387Y-87700363D01*
X113909489Y-87739759D01*
X113976292Y-87775502D01*
X114019581Y-87804586D01*
X114032139Y-87824009D01*
X114029333Y-87829559D01*
X114006159Y-87864049D01*
X113966302Y-87917531D01*
X113916406Y-87980994D01*
X113810374Y-88112676D01*
X113698225Y-87992424D01*
X113682380Y-87975041D01*
X113627737Y-87910611D01*
X113569260Y-87836344D01*
X113511787Y-87759059D01*
X113460157Y-87685579D01*
X113419211Y-87622723D01*
X113393786Y-87577313D01*
X113388723Y-87556170D01*
X113389561Y-87555453D01*
X113418932Y-87553697D01*
X113475298Y-87566310D01*
G37*
G36*
X116230747Y-83076216D02*
G01*
X116567465Y-83126728D01*
X116890220Y-83214660D01*
X117198521Y-83339830D01*
X117491876Y-83502053D01*
X117769795Y-83701146D01*
X118031785Y-83936925D01*
X118075083Y-83981002D01*
X118301421Y-84240900D01*
X118490692Y-84514075D01*
X118644219Y-84802955D01*
X118763325Y-85109967D01*
X118849331Y-85437538D01*
X118862403Y-85509408D01*
X118876927Y-85610433D01*
X118889365Y-85718944D01*
X118899124Y-85827089D01*
X118905608Y-85927015D01*
X118908221Y-86010870D01*
X118906370Y-86070801D01*
X118899458Y-86098955D01*
X118889411Y-86106642D01*
X118880374Y-86096653D01*
X118865937Y-86085959D01*
X118815890Y-86072352D01*
X118734464Y-86058066D01*
X118626257Y-86043781D01*
X118495867Y-86030176D01*
X118347893Y-86017932D01*
X118165411Y-86004605D01*
X118174061Y-85872180D01*
X118180951Y-85781314D01*
X118189592Y-85714689D01*
X118201695Y-85673707D01*
X118219543Y-85650896D01*
X118245421Y-85638784D01*
X118249495Y-85637541D01*
X118359394Y-85590229D01*
X118432480Y-85527364D01*
X118468846Y-85448827D01*
X118468586Y-85354500D01*
X118434247Y-85240943D01*
X118371828Y-85136339D01*
X118289037Y-85055409D01*
X118191608Y-85001251D01*
X118085272Y-84976963D01*
X117975762Y-84985641D01*
X117868809Y-85030385D01*
X117863657Y-85033626D01*
X117804030Y-85088839D01*
X117770727Y-85164236D01*
X117760374Y-85267179D01*
X117764029Y-85325202D01*
X117797074Y-85435968D01*
X117864725Y-85526752D01*
X117967245Y-85597979D01*
X118081036Y-85656360D01*
X118070446Y-86009968D01*
X117920410Y-86010510D01*
X117909869Y-86010582D01*
X117781984Y-86015106D01*
X117629442Y-86025763D01*
X117465619Y-86041457D01*
X117303890Y-86061091D01*
X117197406Y-86075567D01*
X117210023Y-85927677D01*
X117214728Y-85874136D01*
X117223614Y-85791987D01*
X117233940Y-85738200D01*
X117248429Y-85705025D01*
X117269807Y-85684716D01*
X117300798Y-85669525D01*
X117334237Y-85653431D01*
X117395618Y-85601778D01*
X117429789Y-85528080D01*
X117440374Y-85426014D01*
X117438937Y-85387332D01*
X117418214Y-85277088D01*
X117375971Y-85184906D01*
X117316192Y-85120589D01*
X117252139Y-85092761D01*
X117169438Y-85090734D01*
X117084341Y-85116212D01*
X117004462Y-85164435D01*
X116937419Y-85230645D01*
X116890828Y-85310082D01*
X116872305Y-85397985D01*
X116872136Y-85413949D01*
X116877735Y-85468104D01*
X116899275Y-85512147D01*
X116944398Y-85563644D01*
X117004313Y-85634705D01*
X117049317Y-85719380D01*
X117073297Y-85818884D01*
X117080374Y-85944768D01*
X117080374Y-86101028D01*
X116908945Y-86136342D01*
X116853402Y-86148620D01*
X116744290Y-86175481D01*
X116625396Y-86207268D01*
X116514121Y-86239438D01*
X116429183Y-86264900D01*
X116356763Y-86285993D01*
X116307427Y-86299649D01*
X116288750Y-86303708D01*
X116288986Y-86292497D01*
X116292433Y-86251019D01*
X116298574Y-86190110D01*
X116306469Y-86129792D01*
X116320231Y-86090272D01*
X116348390Y-86063941D01*
X116400147Y-86036925D01*
X116444939Y-86011651D01*
X116501952Y-85957210D01*
X116532014Y-85885652D01*
X116536898Y-85791457D01*
X116518379Y-85669107D01*
X116509194Y-85633466D01*
X116460947Y-85531076D01*
X116388340Y-85455999D01*
X116295391Y-85412851D01*
X116234274Y-85402084D01*
X116123410Y-85408407D01*
X116028892Y-85448068D01*
X115955483Y-85517333D01*
X115907945Y-85612470D01*
X115891041Y-85729747D01*
X115893908Y-85782068D01*
X115922429Y-85885597D01*
X115984189Y-85974156D01*
X116082474Y-86053302D01*
X116182080Y-86117895D01*
X116176227Y-86235538D01*
X116170374Y-86353182D01*
X115910532Y-86461518D01*
X115760453Y-86353566D01*
X115470789Y-86163748D01*
X115128253Y-85978209D01*
X114946132Y-85888706D01*
X114983169Y-85776352D01*
X114992966Y-85747197D01*
X115020565Y-85677742D01*
X115051516Y-85631127D01*
X115095792Y-85595272D01*
X115163368Y-85558095D01*
X115214086Y-85527943D01*
X115294146Y-85454147D01*
X115344445Y-85367710D01*
X115363046Y-85275270D01*
X115348012Y-85183463D01*
X115297406Y-85098925D01*
X115273659Y-85073111D01*
X115205824Y-85016104D01*
X115127417Y-84978790D01*
X115023833Y-84953401D01*
X114994724Y-84948751D01*
X114865680Y-84946891D01*
X114755369Y-84979698D01*
X114661926Y-85047659D01*
X114644606Y-85065989D01*
X114580994Y-85160568D01*
X114549980Y-85260705D01*
X114551685Y-85359384D01*
X114586229Y-85449590D01*
X114653733Y-85524307D01*
X114717867Y-85574099D01*
X114782923Y-85627419D01*
X114824544Y-85667837D01*
X114847888Y-85701584D01*
X114858112Y-85734893D01*
X114860374Y-85773994D01*
X114858011Y-85823992D01*
X114847842Y-85843200D01*
X114825374Y-85839156D01*
X114753312Y-85811236D01*
X114651511Y-85775810D01*
X114530655Y-85736300D01*
X114400626Y-85695784D01*
X114271310Y-85657342D01*
X114152590Y-85624051D01*
X114054349Y-85598991D01*
X113818324Y-85543491D01*
X113824349Y-85471489D01*
X113825510Y-85458907D01*
X113834940Y-85417858D01*
X113859912Y-85395552D01*
X113912409Y-85379472D01*
X113916159Y-85378541D01*
X114009222Y-85341022D01*
X114072626Y-85280967D01*
X114108851Y-85194792D01*
X114120375Y-85078913D01*
X114118678Y-85022450D01*
X114105192Y-84947355D01*
X114072466Y-84883407D01*
X114013677Y-84813640D01*
X113982986Y-84784852D01*
X113897074Y-84734975D01*
X113807542Y-84719197D01*
X113720527Y-84734587D01*
X113642165Y-84778214D01*
X113578595Y-84847147D01*
X113535952Y-84938457D01*
X113520374Y-85049212D01*
X113520408Y-85055785D01*
X113533805Y-85161158D01*
X113575007Y-85244692D01*
X113649196Y-85317167D01*
X113693437Y-85356023D01*
X113715240Y-85396129D01*
X113720374Y-85452879D01*
X113720238Y-85475614D01*
X113716080Y-85514873D01*
X113700343Y-85527404D01*
X113665374Y-85522959D01*
X113654565Y-85521100D01*
X113602396Y-85514432D01*
X113522464Y-85505841D01*
X113423517Y-85496238D01*
X113314304Y-85486529D01*
X113018234Y-85461396D01*
X113031508Y-85380402D01*
X113045642Y-85313638D01*
X113078670Y-85197701D01*
X113123644Y-85064886D01*
X113176615Y-84925962D01*
X113233638Y-84791700D01*
X113290767Y-84672871D01*
X113384025Y-84504844D01*
X113514293Y-84306046D01*
X113663323Y-84117849D01*
X113840374Y-83927699D01*
X113899741Y-83869592D01*
X114159539Y-83648976D01*
X114439637Y-83461714D01*
X114737401Y-83309015D01*
X115050200Y-83192084D01*
X115375402Y-83112128D01*
X115710374Y-83070355D01*
X115880558Y-83063308D01*
X116230747Y-83076216D01*
G37*
G36*
X113851107Y-84855905D02*
G01*
X113927323Y-84893818D01*
X113994774Y-84967396D01*
X114031467Y-85043207D01*
X114034992Y-85122723D01*
X113998923Y-85196630D01*
X113987229Y-85210426D01*
X113943022Y-85241036D01*
X113880225Y-85249369D01*
X113871023Y-85249286D01*
X113764962Y-85233434D01*
X113686234Y-85191498D01*
X113637239Y-85125437D01*
X113620374Y-85037209D01*
X113622818Y-84992648D01*
X113640063Y-84944476D01*
X113681909Y-84900873D01*
X113693601Y-84891588D01*
X113771432Y-84854786D01*
X113851107Y-84855905D01*
G37*
G36*
X118009830Y-88060456D02*
G01*
X118104468Y-88074659D01*
X118057421Y-88125242D01*
X118033213Y-88150399D01*
X117924314Y-88250401D01*
X117790617Y-88357883D01*
X117641489Y-88466262D01*
X117486298Y-88568958D01*
X117334415Y-88659387D01*
X117195206Y-88730970D01*
X117094797Y-88774683D01*
X116879985Y-88853782D01*
X116655019Y-88919998D01*
X116433837Y-88969467D01*
X116230374Y-88998329D01*
X116213147Y-88999960D01*
X116166033Y-89005209D01*
X116144013Y-89008967D01*
X116142082Y-89009830D01*
X116143384Y-89000588D01*
X116165607Y-88969882D01*
X116203078Y-88924391D01*
X116250125Y-88870797D01*
X116301077Y-88815781D01*
X116350262Y-88766023D01*
X116395391Y-88723389D01*
X116581920Y-88565133D01*
X116781733Y-88420707D01*
X116984225Y-88297328D01*
X117178793Y-88202210D01*
X117215193Y-88187471D01*
X117378724Y-88132532D01*
X117550686Y-88090531D01*
X117720346Y-88063297D01*
X117876971Y-88052662D01*
X118009830Y-88060456D01*
G37*
G36*
X113138103Y-85602121D02*
G01*
X113182541Y-85604927D01*
X113618017Y-85652099D01*
X114043621Y-85733735D01*
X114455750Y-85848684D01*
X114850802Y-85995792D01*
X115225175Y-86173907D01*
X115575266Y-86381877D01*
X115780158Y-86517262D01*
X115555266Y-86635432D01*
X115546153Y-86640227D01*
X115460550Y-86685857D01*
X115388434Y-86725319D01*
X115337150Y-86754534D01*
X115314043Y-86769422D01*
X115311942Y-86770540D01*
X115283807Y-86763970D01*
X115234129Y-86739296D01*
X115172141Y-86700970D01*
X115095768Y-86651993D01*
X114859596Y-86522944D01*
X114595998Y-86407012D01*
X114313338Y-86306653D01*
X114019979Y-86224321D01*
X113724286Y-86162472D01*
X113434622Y-86123562D01*
X113159350Y-86110047D01*
X112960374Y-86110047D01*
X112960517Y-85984948D01*
X112961589Y-85925051D01*
X112966221Y-85821933D01*
X112973245Y-85726494D01*
X112985832Y-85593137D01*
X113138103Y-85602121D01*
G37*
G36*
X116244699Y-85551351D02*
G01*
X116301437Y-85556822D01*
X116332380Y-85564924D01*
X116362454Y-85596818D01*
X116390495Y-85668424D01*
X116400374Y-85765361D01*
X116391124Y-85845781D01*
X116359318Y-85900913D01*
X116300374Y-85935721D01*
X116282719Y-85941278D01*
X116200695Y-85944598D01*
X116124091Y-85915315D01*
X116060264Y-85859414D01*
X116016573Y-85782879D01*
X116000374Y-85691695D01*
X116005803Y-85645250D01*
X116037777Y-85591061D01*
X116100264Y-85559794D01*
X116195374Y-85549912D01*
X116244699Y-85551351D01*
G37*
G36*
X118161416Y-85133762D02*
G01*
X118239156Y-85182676D01*
X118300483Y-85254190D01*
X118331209Y-85322421D01*
X118335626Y-85395769D01*
X118304999Y-85454819D01*
X118240374Y-85495374D01*
X118222093Y-85500992D01*
X118132239Y-85503786D01*
X118028803Y-85471618D01*
X117952833Y-85426198D01*
X117892916Y-85362701D01*
X117864159Y-85292816D01*
X117868898Y-85222670D01*
X117909465Y-85158388D01*
X117923807Y-85145670D01*
X117994333Y-85112954D01*
X118076672Y-85109753D01*
X118161416Y-85133762D01*
G37*
G36*
X113167593Y-86231033D02*
G01*
X113469942Y-86252702D01*
X113784025Y-86301392D01*
X114098211Y-86374507D01*
X114400871Y-86469451D01*
X114680374Y-86583627D01*
X114744776Y-86614281D01*
X114844822Y-86664211D01*
X114941177Y-86714719D01*
X115027376Y-86762206D01*
X115096953Y-86803079D01*
X115143441Y-86833738D01*
X115160374Y-86850590D01*
X115153523Y-86858919D01*
X115120020Y-86886513D01*
X115064942Y-86927338D01*
X114995374Y-86976010D01*
X114957249Y-87002334D01*
X114877820Y-87058952D01*
X114808289Y-87110695D01*
X114760374Y-87148940D01*
X114738719Y-87167283D01*
X114700565Y-87197714D01*
X114681454Y-87210100D01*
X114673221Y-87207281D01*
X114635732Y-87190110D01*
X114575745Y-87160764D01*
X114501454Y-87123199D01*
X114425248Y-87085256D01*
X114083775Y-86939865D01*
X113717094Y-86821160D01*
X113330374Y-86730874D01*
X113110374Y-86688826D01*
X113077400Y-86729411D01*
X113061997Y-86746033D01*
X113050127Y-86747364D01*
X113039971Y-86726507D01*
X113028798Y-86677691D01*
X113013877Y-86595143D01*
X113010020Y-86572894D01*
X112994210Y-86478565D01*
X112980194Y-86390481D01*
X112970627Y-86325216D01*
X112957924Y-86230141D01*
X113097030Y-86230141D01*
X113167593Y-86231033D01*
G37*
G36*
X115048080Y-85115275D02*
G01*
X115136201Y-85163886D01*
X115207508Y-85234357D01*
X115248185Y-85289401D01*
X115207441Y-85344444D01*
X115202382Y-85350987D01*
X115154491Y-85400921D01*
X115098536Y-85446306D01*
X115049882Y-85474061D01*
X114997074Y-85486248D01*
X114924545Y-85484622D01*
X114878068Y-85478238D01*
X114788100Y-85446512D01*
X114724735Y-85395999D01*
X114690327Y-85332716D01*
X114687230Y-85262679D01*
X114717799Y-85191907D01*
X114784388Y-85126415D01*
X114861976Y-85093988D01*
X114953290Y-85091113D01*
X115048080Y-85115275D01*
G37*
G36*
X134947671Y-81338898D02*
G01*
X135087690Y-81339304D01*
X135195533Y-81340389D01*
X135275905Y-81342470D01*
X135333511Y-81345863D01*
X135373056Y-81350884D01*
X135399245Y-81357850D01*
X135416783Y-81367077D01*
X135430375Y-81378881D01*
X135457199Y-81413707D01*
X135467634Y-81470929D01*
X135439240Y-81534553D01*
X135422417Y-81554415D01*
X135399187Y-81567668D01*
X135361613Y-81575087D01*
X135301148Y-81578326D01*
X135209240Y-81579038D01*
X135010374Y-81579038D01*
X135010374Y-84162891D01*
X134961284Y-84212020D01*
X134960028Y-84213259D01*
X134898893Y-84249563D01*
X134823253Y-84263320D01*
X134748586Y-84254012D01*
X134690374Y-84221119D01*
X134684883Y-84215287D01*
X134677663Y-84204974D01*
X134671526Y-84190100D01*
X134666386Y-84167709D01*
X134662153Y-84134845D01*
X134658741Y-84088552D01*
X134656060Y-84025874D01*
X134654023Y-83943855D01*
X134652541Y-83839540D01*
X134651526Y-83709972D01*
X134650890Y-83552197D01*
X134650545Y-83363257D01*
X134650402Y-83140198D01*
X134650374Y-82880063D01*
X134650374Y-81579038D01*
X134451803Y-81579038D01*
X134425118Y-81578937D01*
X134324832Y-81575176D01*
X134257131Y-81563992D01*
X134216099Y-81542659D01*
X134195820Y-81508453D01*
X134190374Y-81458649D01*
X134190547Y-81445596D01*
X134194010Y-81415156D01*
X134205046Y-81391118D01*
X134227709Y-81372730D01*
X134266052Y-81359238D01*
X134324128Y-81349889D01*
X134405991Y-81343929D01*
X134515692Y-81340604D01*
X134657286Y-81339162D01*
X134834825Y-81338849D01*
X134947671Y-81338898D01*
G37*
G36*
X130160732Y-81351097D02*
G01*
X130221284Y-81387979D01*
X130270374Y-81437108D01*
X130270374Y-84162891D01*
X130221284Y-84212020D01*
X130220028Y-84213259D01*
X130158893Y-84249563D01*
X130083253Y-84263320D01*
X130008586Y-84254012D01*
X129950374Y-84221119D01*
X129949524Y-84220263D01*
X129941861Y-84211487D01*
X129935268Y-84199909D01*
X129929667Y-84182665D01*
X129924975Y-84156892D01*
X129921113Y-84119726D01*
X129917999Y-84068302D01*
X129915554Y-83999758D01*
X129913696Y-83911229D01*
X129912345Y-83799851D01*
X129911421Y-83662761D01*
X129910842Y-83497094D01*
X129910529Y-83299988D01*
X129910400Y-83068578D01*
X129910374Y-82800000D01*
X129910375Y-82770641D01*
X129910407Y-82506010D01*
X129910551Y-82278252D01*
X129910888Y-82084504D01*
X129911498Y-81921902D01*
X129912463Y-81787582D01*
X129913862Y-81678681D01*
X129915776Y-81592335D01*
X129918287Y-81525679D01*
X129921473Y-81475851D01*
X129925417Y-81439986D01*
X129930198Y-81415220D01*
X129935898Y-81398690D01*
X129942596Y-81387531D01*
X129950374Y-81378881D01*
X129951550Y-81377723D01*
X130010385Y-81345449D01*
X130085273Y-81336747D01*
X130160732Y-81351097D01*
G37*
G36*
X128431473Y-81315257D02*
G01*
X128533876Y-81341369D01*
X128627532Y-81395393D01*
X128723283Y-81482312D01*
X128741101Y-81501501D01*
X128822576Y-81610512D01*
X128881455Y-81735027D01*
X128923410Y-81886500D01*
X128941182Y-82014375D01*
X128934049Y-82181521D01*
X128890631Y-82353005D01*
X128872479Y-82400094D01*
X128832518Y-82480180D01*
X128777285Y-82565409D01*
X128701925Y-82662952D01*
X128601582Y-82779984D01*
X128566539Y-82820102D01*
X128442688Y-82974396D01*
X128353469Y-83109180D01*
X128298963Y-83224334D01*
X128265499Y-83347751D01*
X128247044Y-83498694D01*
X128250413Y-83647108D01*
X128275254Y-83782431D01*
X128321217Y-83894103D01*
X128339176Y-83923230D01*
X128388382Y-83982419D01*
X128443796Y-84012549D01*
X128516732Y-84020961D01*
X128560603Y-84015772D01*
X128605432Y-83992142D01*
X128656919Y-83942091D01*
X128694477Y-83893748D01*
X128747082Y-83789083D01*
X128782995Y-83656263D01*
X128803760Y-83490543D01*
X128816490Y-83385165D01*
X128837848Y-83313205D01*
X128869551Y-83272916D01*
X128913474Y-83260362D01*
X128955507Y-83268414D01*
X128997699Y-83306906D01*
X129022243Y-83378708D01*
X129030027Y-83485539D01*
X129029736Y-83511315D01*
X129013663Y-83694981D01*
X128974572Y-83861422D01*
X128914580Y-84006473D01*
X128835804Y-84125970D01*
X128740364Y-84215747D01*
X128630374Y-84271639D01*
X128523876Y-84291250D01*
X128391878Y-84283457D01*
X128262411Y-84244098D01*
X128154313Y-84178425D01*
X128051602Y-84075151D01*
X127967338Y-83943754D01*
X127904035Y-83789202D01*
X127864209Y-83616461D01*
X127850374Y-83430496D01*
X127851580Y-83367193D01*
X127864198Y-83234730D01*
X127892977Y-83111164D01*
X127940914Y-82989692D01*
X128011007Y-82863512D01*
X128106253Y-82725822D01*
X128229649Y-82569818D01*
X128279493Y-82508545D01*
X128378110Y-82377996D01*
X128450718Y-82264496D01*
X128500531Y-82161869D01*
X128530765Y-82063936D01*
X128544633Y-81964520D01*
X128547437Y-81905795D01*
X128543970Y-81842091D01*
X128528366Y-81786138D01*
X128496975Y-81719149D01*
X128472643Y-81676159D01*
X128418017Y-81611065D01*
X128357085Y-81581936D01*
X128285428Y-81585988D01*
X128245936Y-81609576D01*
X128206251Y-81672518D01*
X128176659Y-81771358D01*
X128157853Y-81904367D01*
X128148523Y-81977024D01*
X128132855Y-82044959D01*
X128114620Y-82084436D01*
X128069860Y-82113872D01*
X128012967Y-82113609D01*
X127960555Y-82079632D01*
X127949561Y-82065744D01*
X127937346Y-82038521D01*
X127931545Y-81998057D01*
X127931220Y-81935476D01*
X127935432Y-81841902D01*
X127936302Y-81827141D01*
X127956082Y-81661553D01*
X127993421Y-81530516D01*
X128049918Y-81431982D01*
X128127176Y-81363901D01*
X128226794Y-81324226D01*
X128350374Y-81310906D01*
X128431473Y-81315257D01*
G37*
G36*
X126727671Y-81338898D02*
G01*
X126867690Y-81339304D01*
X126975533Y-81340389D01*
X127055905Y-81342470D01*
X127113511Y-81345863D01*
X127153056Y-81350884D01*
X127179245Y-81357850D01*
X127196783Y-81367077D01*
X127210374Y-81378881D01*
X127237199Y-81413707D01*
X127247634Y-81470929D01*
X127219240Y-81534553D01*
X127202417Y-81554415D01*
X127179187Y-81567668D01*
X127141613Y-81575087D01*
X127081148Y-81578326D01*
X126989240Y-81579038D01*
X126790374Y-81579038D01*
X126790374Y-84162891D01*
X126741284Y-84212020D01*
X126696572Y-84241442D01*
X126621796Y-84260758D01*
X126543479Y-84258323D01*
X126479197Y-84232746D01*
X126474924Y-84229352D01*
X126467753Y-84221044D01*
X126461598Y-84207740D01*
X126456351Y-84186521D01*
X126451905Y-84154468D01*
X126448155Y-84108660D01*
X126444993Y-84046179D01*
X126442313Y-83964104D01*
X126440008Y-83859516D01*
X126437971Y-83729495D01*
X126436096Y-83571122D01*
X126434276Y-83381478D01*
X126432405Y-83157642D01*
X126430374Y-82896694D01*
X126420374Y-81589046D01*
X126214583Y-81579038D01*
X126161460Y-81576177D01*
X126075616Y-81568501D01*
X126020148Y-81555873D01*
X125988524Y-81534972D01*
X125974212Y-81502479D01*
X125970681Y-81455075D01*
X125970750Y-81444506D01*
X125973951Y-81414551D01*
X125984809Y-81390852D01*
X126007369Y-81372679D01*
X126045673Y-81359303D01*
X126103762Y-81349994D01*
X126185679Y-81344024D01*
X126295467Y-81340663D01*
X126437168Y-81339181D01*
X126614825Y-81338849D01*
X126727671Y-81338898D01*
G37*
G36*
X123227907Y-84223588D02*
G01*
X123223989Y-84227445D01*
X123201927Y-84244969D01*
X123174245Y-84255587D01*
X123132364Y-84260426D01*
X123067709Y-84260612D01*
X122971702Y-84257275D01*
X122898832Y-84253723D01*
X122815629Y-84246445D01*
X122750518Y-84234355D01*
X122690413Y-84214741D01*
X122622227Y-84184893D01*
X122486627Y-84103309D01*
X122353366Y-83981377D01*
X122237086Y-83828521D01*
X122139041Y-83648060D01*
X122060484Y-83443315D01*
X122002669Y-83217605D01*
X121966848Y-82974248D01*
X121958182Y-82796616D01*
X122347801Y-82796616D01*
X122364108Y-83066557D01*
X122398024Y-83308225D01*
X122449182Y-83519534D01*
X122517218Y-83698394D01*
X122601766Y-83842717D01*
X122631941Y-83879570D01*
X122687754Y-83933774D01*
X122738444Y-83968663D01*
X122743579Y-83971035D01*
X122804693Y-83992237D01*
X122858553Y-84000945D01*
X122910687Y-84000945D01*
X122905531Y-82794996D01*
X122900374Y-81589046D01*
X122792952Y-81593623D01*
X122756482Y-81596310D01*
X122654624Y-81621434D01*
X122571255Y-81675779D01*
X122497026Y-81764749D01*
X122468790Y-81812348D01*
X122424895Y-81919305D01*
X122391531Y-82053518D01*
X122367818Y-82218985D01*
X122352878Y-82419700D01*
X122349467Y-82500490D01*
X122347801Y-82796616D01*
X121958182Y-82796616D01*
X121954277Y-82716565D01*
X121966208Y-82447875D01*
X121973385Y-82376554D01*
X122010962Y-82136217D01*
X122066672Y-81930010D01*
X122141330Y-81756314D01*
X122235754Y-81613506D01*
X122350761Y-81499966D01*
X122487167Y-81414072D01*
X122498783Y-81408368D01*
X122550693Y-81384197D01*
X122596442Y-81367401D01*
X122645262Y-81356373D01*
X122706382Y-81349509D01*
X122789035Y-81345202D01*
X122902451Y-81341848D01*
X122915357Y-81341517D01*
X123024256Y-81339153D01*
X123100988Y-81339068D01*
X123152650Y-81342022D01*
X123186342Y-81348774D01*
X123209161Y-81360083D01*
X123228207Y-81376711D01*
X123231256Y-81379789D01*
X123239038Y-81388787D01*
X123245713Y-81400536D01*
X123251365Y-81417905D01*
X123256080Y-81443761D01*
X123259943Y-81480971D01*
X123263039Y-81532404D01*
X123265452Y-81600928D01*
X123267268Y-81689409D01*
X123268571Y-81800715D01*
X123269447Y-81937715D01*
X123269980Y-82103276D01*
X123270256Y-82300265D01*
X123270359Y-82531550D01*
X123270374Y-82800000D01*
X123270374Y-84181087D01*
X123227907Y-84223588D01*
G37*
G36*
X133373311Y-81340249D02*
G01*
X133450486Y-81358796D01*
X133495660Y-81399778D01*
X133510374Y-81464313D01*
X133510344Y-81465220D01*
X133506282Y-81495722D01*
X133495875Y-81561213D01*
X133479835Y-81657661D01*
X133458876Y-81781036D01*
X133433711Y-81927304D01*
X133405052Y-82092436D01*
X133373614Y-82272398D01*
X133340108Y-82463160D01*
X133305247Y-82660690D01*
X133269745Y-82860956D01*
X133234315Y-83059927D01*
X133199669Y-83253570D01*
X133166521Y-83437855D01*
X133135583Y-83608750D01*
X133107569Y-83762223D01*
X133083191Y-83894243D01*
X133063162Y-84000777D01*
X133048196Y-84077795D01*
X133038103Y-84118217D01*
X133014356Y-84181607D01*
X132988585Y-84222909D01*
X132942938Y-84250284D01*
X132862590Y-84261150D01*
X132843458Y-84261310D01*
X132811664Y-84261285D01*
X132784455Y-84258274D01*
X132760862Y-84249244D01*
X132739909Y-84231160D01*
X132720626Y-84200988D01*
X132702039Y-84155692D01*
X132683175Y-84092239D01*
X132663063Y-84007593D01*
X132640729Y-83898722D01*
X132615201Y-83762590D01*
X132585505Y-83596162D01*
X132550670Y-83396405D01*
X132509723Y-83160283D01*
X132496018Y-83081326D01*
X132462470Y-82887858D01*
X132431324Y-82707992D01*
X132403219Y-82545419D01*
X132378790Y-82403830D01*
X132358674Y-82286915D01*
X132343507Y-82198367D01*
X132333925Y-82141875D01*
X132330565Y-82121132D01*
X132330469Y-82120248D01*
X132319190Y-82123985D01*
X132318287Y-82126231D01*
X132311175Y-82158207D01*
X132298407Y-82224848D01*
X132280644Y-82322395D01*
X132258548Y-82447090D01*
X132232780Y-82595175D01*
X132204001Y-82762893D01*
X132172871Y-82946485D01*
X132140053Y-83142194D01*
X132104541Y-83353868D01*
X132068979Y-83562308D01*
X132038525Y-83736129D01*
X132012662Y-83877975D01*
X131990878Y-83990492D01*
X131972657Y-84076325D01*
X131957484Y-84138120D01*
X131944845Y-84178522D01*
X131934225Y-84200176D01*
X131918041Y-84219078D01*
X131874086Y-84245961D01*
X131806760Y-84257104D01*
X131785946Y-84258810D01*
X131757025Y-84261318D01*
X131731775Y-84261323D01*
X131709385Y-84256198D01*
X131689043Y-84243315D01*
X131669936Y-84220047D01*
X131651252Y-84183768D01*
X131632179Y-84131849D01*
X131611905Y-84061665D01*
X131589618Y-83970587D01*
X131564506Y-83855989D01*
X131535756Y-83715244D01*
X131502557Y-83545724D01*
X131464095Y-83344802D01*
X131419560Y-83109851D01*
X131368139Y-82838244D01*
X131342778Y-82704235D01*
X131300893Y-82481823D01*
X131261622Y-82271931D01*
X131225575Y-82077908D01*
X131193367Y-81903105D01*
X131165610Y-81750872D01*
X131142918Y-81624557D01*
X131125902Y-81527512D01*
X131115175Y-81463086D01*
X131111352Y-81434628D01*
X131111344Y-81431593D01*
X131127915Y-81382180D01*
X131168080Y-81352090D01*
X131219874Y-81343459D01*
X131271332Y-81358421D01*
X131310488Y-81399109D01*
X131317530Y-81423170D01*
X131331217Y-81483356D01*
X131350441Y-81575095D01*
X131374395Y-81694318D01*
X131402275Y-81836954D01*
X131433276Y-81998932D01*
X131466594Y-82176182D01*
X131501422Y-82364633D01*
X131524345Y-82489686D01*
X131565129Y-82711973D01*
X131599580Y-82899290D01*
X131628272Y-83054575D01*
X131651777Y-83180767D01*
X131670668Y-83280808D01*
X131685518Y-83357636D01*
X131696900Y-83414190D01*
X131705386Y-83453412D01*
X131711550Y-83478239D01*
X131715964Y-83491613D01*
X131719200Y-83496471D01*
X131721833Y-83495755D01*
X131722442Y-83494076D01*
X131728596Y-83463872D01*
X131740274Y-83398859D01*
X131756845Y-83302796D01*
X131777676Y-83179445D01*
X131802138Y-83032567D01*
X131829597Y-82865922D01*
X131859423Y-82683272D01*
X131890985Y-82488376D01*
X131898252Y-82443351D01*
X131929681Y-82249342D01*
X131959340Y-82067405D01*
X131986578Y-81901462D01*
X132010742Y-81755436D01*
X132031182Y-81633248D01*
X132047246Y-81538820D01*
X132058282Y-81476076D01*
X132063639Y-81448936D01*
X132070588Y-81427886D01*
X132104099Y-81375248D01*
X132159136Y-81347156D01*
X132243474Y-81338849D01*
X132290937Y-81341153D01*
X132366296Y-81362115D01*
X132414364Y-81408074D01*
X132440365Y-81482847D01*
X132440742Y-81484914D01*
X132447263Y-81522206D01*
X132459681Y-81594344D01*
X132477298Y-81697237D01*
X132499415Y-81826791D01*
X132525336Y-81978916D01*
X132554362Y-82149518D01*
X132585794Y-82334506D01*
X132618935Y-82529787D01*
X132626144Y-82572199D01*
X132658615Y-82760972D01*
X132689245Y-82935449D01*
X132717359Y-83092030D01*
X132742287Y-83227117D01*
X132763353Y-83337111D01*
X132779887Y-83418411D01*
X132791214Y-83467419D01*
X132796663Y-83480535D01*
X132801912Y-83457256D01*
X132813404Y-83398108D01*
X132830308Y-83307350D01*
X132851900Y-83188992D01*
X132877452Y-83047046D01*
X132906239Y-82885521D01*
X132937534Y-82708429D01*
X132970612Y-82519779D01*
X133000680Y-82348028D01*
X133032869Y-82165046D01*
X133062873Y-81995387D01*
X133089916Y-81843405D01*
X133113218Y-81713453D01*
X133132003Y-81609882D01*
X133145494Y-81537047D01*
X133152911Y-81499298D01*
X133173413Y-81427852D01*
X133207251Y-81373678D01*
X133259036Y-81346374D01*
X133336899Y-81338849D01*
X133373311Y-81340249D01*
G37*
G36*
X124862402Y-81339127D02*
G01*
X124961422Y-81340305D01*
X125032265Y-81342932D01*
X125080758Y-81347555D01*
X125112724Y-81354722D01*
X125133988Y-81364981D01*
X125150374Y-81378881D01*
X125151225Y-81379736D01*
X125158888Y-81388512D01*
X125165481Y-81400090D01*
X125171082Y-81417334D01*
X125175774Y-81443107D01*
X125179636Y-81480273D01*
X125182750Y-81531697D01*
X125185195Y-81600241D01*
X125187053Y-81688770D01*
X125188404Y-81800148D01*
X125189328Y-81937238D01*
X125189907Y-82102905D01*
X125190220Y-82300011D01*
X125190349Y-82531422D01*
X125190374Y-82800000D01*
X125190374Y-82829358D01*
X125190342Y-83093990D01*
X125190198Y-83321748D01*
X125189861Y-83515496D01*
X125189251Y-83678097D01*
X125188286Y-83812417D01*
X125186887Y-83921318D01*
X125184973Y-84007664D01*
X125182462Y-84074320D01*
X125179276Y-84124148D01*
X125175332Y-84160013D01*
X125170551Y-84184779D01*
X125164851Y-84201309D01*
X125158153Y-84212468D01*
X125150374Y-84221119D01*
X125144315Y-84226895D01*
X125127472Y-84238864D01*
X125103797Y-84247674D01*
X125067762Y-84253806D01*
X125013839Y-84257739D01*
X124936501Y-84259954D01*
X124830219Y-84260931D01*
X124689465Y-84261150D01*
X124557936Y-84261067D01*
X124450289Y-84260429D01*
X124371778Y-84258648D01*
X124316781Y-84255135D01*
X124279673Y-84249304D01*
X124254834Y-84240567D01*
X124236638Y-84228335D01*
X124219465Y-84212020D01*
X124219103Y-84211657D01*
X124179362Y-84160042D01*
X124175121Y-84114131D01*
X124205374Y-84063339D01*
X124205614Y-84063052D01*
X124222326Y-84046530D01*
X124244900Y-84034809D01*
X124280165Y-84026897D01*
X124334947Y-84021801D01*
X124416075Y-84018528D01*
X124530374Y-84016086D01*
X124820374Y-84010953D01*
X124831220Y-83220331D01*
X124635247Y-83220331D01*
X124633108Y-83220330D01*
X124517841Y-83216879D01*
X124436990Y-83205300D01*
X124385500Y-83183467D01*
X124358313Y-83149252D01*
X124350374Y-83100531D01*
X124351031Y-83079864D01*
X124360816Y-83037023D01*
X124386936Y-83008232D01*
X124435268Y-82990891D01*
X124511685Y-82982395D01*
X124622062Y-82980141D01*
X124830893Y-82980141D01*
X124825634Y-82284594D01*
X124820374Y-81589046D01*
X124561670Y-81583416D01*
X124457613Y-81579587D01*
X124369612Y-81573239D01*
X124306836Y-81565121D01*
X124276670Y-81555946D01*
X124275758Y-81555148D01*
X124257799Y-81519977D01*
X124250374Y-81467636D01*
X124251754Y-81435992D01*
X124260245Y-81402593D01*
X124280628Y-81377820D01*
X124317587Y-81360401D01*
X124375803Y-81349066D01*
X124459960Y-81342542D01*
X124574740Y-81339561D01*
X124724825Y-81338849D01*
X124729383Y-81338849D01*
X124862402Y-81339127D01*
G37*
G36*
X91019079Y-81357038D02*
G01*
X91023533Y-81360372D01*
X91033021Y-81362436D01*
X91052558Y-81362436D01*
X91120679Y-81382438D01*
X91125133Y-81385772D01*
X91147856Y-81390715D01*
X91147298Y-81393280D01*
X91196879Y-81407838D01*
X91202396Y-81411968D01*
X91251100Y-81436347D01*
X91274856Y-81441515D01*
X91274298Y-81444080D01*
X91323879Y-81458638D01*
X91329396Y-81462768D01*
X91383132Y-81489666D01*
X91387096Y-81493100D01*
X91428707Y-81513930D01*
X91463293Y-81543899D01*
X91504907Y-81564730D01*
X91539493Y-81594699D01*
X91581107Y-81615530D01*
X91615693Y-81645499D01*
X91657307Y-81666329D01*
X91680452Y-81686384D01*
X91685370Y-81694038D01*
X91705851Y-81711784D01*
X91710767Y-81719434D01*
X91742695Y-81747100D01*
X91784307Y-81767929D01*
X91807452Y-81787984D01*
X91812370Y-81795638D01*
X91832851Y-81813384D01*
X91837768Y-81821036D01*
X91858251Y-81838784D01*
X91863168Y-81846436D01*
X91883651Y-81864184D01*
X91888568Y-81871836D01*
X91909051Y-81889584D01*
X91913967Y-81897234D01*
X91939738Y-81919565D01*
X91947421Y-81921236D01*
X91966558Y-81921236D01*
X91986346Y-81915426D01*
X92003821Y-81895258D01*
X92011473Y-81890341D01*
X92029221Y-81869858D01*
X92036873Y-81864941D01*
X92054621Y-81844458D01*
X92062273Y-81839541D01*
X92080021Y-81819058D01*
X92087673Y-81814141D01*
X92105421Y-81793658D01*
X92113072Y-81788742D01*
X92122154Y-81778260D01*
X92181879Y-81739877D01*
X92189546Y-81737626D01*
X92207021Y-81717458D01*
X92214672Y-81712542D01*
X92223754Y-81702060D01*
X92283479Y-81663677D01*
X92291146Y-81661426D01*
X92308621Y-81641258D01*
X92316272Y-81636342D01*
X92325354Y-81625860D01*
X92385079Y-81587477D01*
X92392745Y-81585226D01*
X92401554Y-81575060D01*
X92461279Y-81536677D01*
X92482043Y-81530580D01*
X92512079Y-81511277D01*
X92519745Y-81509026D01*
X92528554Y-81498860D01*
X92588279Y-81460477D01*
X92620039Y-81451151D01*
X92631568Y-81443741D01*
X92638238Y-81442782D01*
X92685243Y-81428980D01*
X92715279Y-81409677D01*
X92747039Y-81400351D01*
X92758568Y-81392941D01*
X92765238Y-81391982D01*
X92823238Y-81374952D01*
X92834768Y-81367541D01*
X92870271Y-81362436D01*
X92880958Y-81362436D01*
X92924838Y-81349552D01*
X92936368Y-81342141D01*
X92971871Y-81337036D01*
X93338558Y-81337036D01*
X93406679Y-81357038D01*
X93411133Y-81360372D01*
X93420621Y-81362436D01*
X93465558Y-81362436D01*
X93533679Y-81382438D01*
X93538133Y-81385772D01*
X93560856Y-81390715D01*
X93560298Y-81393280D01*
X93609879Y-81407838D01*
X93614333Y-81411172D01*
X93637056Y-81416115D01*
X93636498Y-81418680D01*
X93686079Y-81433238D01*
X93691596Y-81437368D01*
X93740304Y-81461749D01*
X93740404Y-81461771D01*
X93791104Y-81487149D01*
X93791204Y-81487171D01*
X93841904Y-81512549D01*
X93842004Y-81512571D01*
X93897732Y-81540466D01*
X93901695Y-81543900D01*
X93943307Y-81564729D01*
X93966452Y-81584784D01*
X93971370Y-81592438D01*
X93991851Y-81610184D01*
X93996767Y-81617834D01*
X94039618Y-81654965D01*
X94068192Y-81670568D01*
X94091796Y-81710350D01*
X94093451Y-81711784D01*
X94098368Y-81719436D01*
X94118851Y-81737184D01*
X94123768Y-81744836D01*
X94144251Y-81762584D01*
X94149167Y-81770235D01*
X94159649Y-81779317D01*
X94198032Y-81839042D01*
X94200283Y-81846708D01*
X94210449Y-81855517D01*
X94248832Y-81915242D01*
X94254929Y-81936006D01*
X94274232Y-81966042D01*
X94280329Y-81986806D01*
X94299632Y-82016842D01*
X94305729Y-82037606D01*
X94325032Y-82067642D01*
X94334358Y-82099402D01*
X94341768Y-82110931D01*
X94342727Y-82117601D01*
X94359757Y-82175601D01*
X94367168Y-82187131D01*
X94372273Y-82222634D01*
X94372273Y-82233321D01*
X94385157Y-82277201D01*
X94392568Y-82288731D01*
X94397673Y-82324234D01*
X94397673Y-82385721D01*
X94410557Y-82429601D01*
X94417968Y-82441131D01*
X94423073Y-82476634D01*
X94423073Y-82716321D01*
X94403071Y-82784442D01*
X94399737Y-82788896D01*
X94397673Y-82798384D01*
X94397673Y-82843321D01*
X94377671Y-82911442D01*
X94374337Y-82915896D01*
X94369394Y-82938619D01*
X94366829Y-82938061D01*
X94352271Y-82987642D01*
X94348937Y-82992096D01*
X94343994Y-83014819D01*
X94341429Y-83014261D01*
X94326871Y-83063842D01*
X94322741Y-83069359D01*
X94298362Y-83118063D01*
X94293194Y-83141819D01*
X94290629Y-83141261D01*
X94276071Y-83190842D01*
X94267478Y-83202320D01*
X94246179Y-83244870D01*
X94219711Y-83275416D01*
X94196760Y-83321267D01*
X94196738Y-83321367D01*
X94168843Y-83377095D01*
X94165409Y-83381058D01*
X94144580Y-83422670D01*
X94124525Y-83445815D01*
X94116873Y-83450732D01*
X94089209Y-83482658D01*
X94068380Y-83524270D01*
X94048325Y-83547415D01*
X94040673Y-83552332D01*
X94013009Y-83584258D01*
X93992180Y-83625870D01*
X93972125Y-83649015D01*
X93964471Y-83653933D01*
X93946725Y-83674414D01*
X93939073Y-83679331D01*
X93921325Y-83699814D01*
X93913675Y-83704730D01*
X93886009Y-83736658D01*
X93865179Y-83778272D01*
X93853792Y-83791413D01*
X93794067Y-83829795D01*
X93790948Y-83830711D01*
X93773472Y-83850879D01*
X93758168Y-83860714D01*
X93743525Y-83877614D01*
X93735873Y-83882531D01*
X93718125Y-83903014D01*
X93710473Y-83907931D01*
X93692725Y-83928414D01*
X93685073Y-83933331D01*
X93667325Y-83953814D01*
X93659673Y-83958731D01*
X93641925Y-83979214D01*
X93634273Y-83984131D01*
X93616525Y-84004614D01*
X93608873Y-84009531D01*
X93591125Y-84030014D01*
X93583473Y-84034931D01*
X93565725Y-84055414D01*
X93558073Y-84060331D01*
X93540325Y-84080814D01*
X93532673Y-84085731D01*
X93514925Y-84106214D01*
X93507273Y-84111131D01*
X93489525Y-84131614D01*
X93481873Y-84136531D01*
X93464125Y-84157014D01*
X93456473Y-84161931D01*
X93438725Y-84182414D01*
X93431073Y-84187331D01*
X93413325Y-84207814D01*
X93405673Y-84212731D01*
X93387925Y-84233214D01*
X93380273Y-84238131D01*
X93362525Y-84258614D01*
X93354873Y-84263531D01*
X93337125Y-84284014D01*
X93329473Y-84288931D01*
X93311725Y-84309414D01*
X93304073Y-84314331D01*
X93286325Y-84334814D01*
X93278673Y-84339731D01*
X93260925Y-84360214D01*
X93253273Y-84365131D01*
X93235525Y-84385614D01*
X93227873Y-84390531D01*
X93210125Y-84411014D01*
X93202473Y-84415931D01*
X93184725Y-84436414D01*
X93177073Y-84441331D01*
X93159325Y-84461814D01*
X93151674Y-84466730D01*
X93142592Y-84477212D01*
X93082867Y-84515595D01*
X93075200Y-84517846D01*
X93057725Y-84538014D01*
X93050073Y-84542931D01*
X93032325Y-84563414D01*
X93024673Y-84568331D01*
X93006925Y-84588814D01*
X92999273Y-84593731D01*
X92981525Y-84614214D01*
X92973873Y-84619131D01*
X92956125Y-84639614D01*
X92948473Y-84644531D01*
X92930725Y-84665014D01*
X92923073Y-84669931D01*
X92905325Y-84690414D01*
X92897673Y-84695331D01*
X92879925Y-84715814D01*
X92872273Y-84720731D01*
X92854525Y-84741214D01*
X92846873Y-84746131D01*
X92829125Y-84766614D01*
X92821473Y-84771531D01*
X92803725Y-84792014D01*
X92796073Y-84796931D01*
X92778325Y-84817414D01*
X92770673Y-84822331D01*
X92752925Y-84842814D01*
X92745273Y-84847731D01*
X92727525Y-84868214D01*
X92719873Y-84873131D01*
X92702125Y-84893614D01*
X92694473Y-84898531D01*
X92676725Y-84919014D01*
X92669073Y-84923931D01*
X92651325Y-84944414D01*
X92643673Y-84949331D01*
X92625925Y-84969814D01*
X92618273Y-84974731D01*
X92600525Y-84995214D01*
X92592873Y-85000131D01*
X92575125Y-85020614D01*
X92567473Y-85025531D01*
X92549725Y-85046014D01*
X92542073Y-85050931D01*
X92524325Y-85071414D01*
X92516673Y-85076331D01*
X92498925Y-85096814D01*
X92491274Y-85101730D01*
X92482192Y-85112212D01*
X92422467Y-85150595D01*
X92414800Y-85152846D01*
X92397325Y-85173014D01*
X92389673Y-85177931D01*
X92371925Y-85198414D01*
X92364273Y-85203331D01*
X92346525Y-85223814D01*
X92338873Y-85228731D01*
X92321125Y-85249214D01*
X92313473Y-85254131D01*
X92295725Y-85274614D01*
X92288073Y-85279531D01*
X92270325Y-85300014D01*
X92262673Y-85304931D01*
X92244925Y-85325414D01*
X92237273Y-85330331D01*
X92219525Y-85350814D01*
X92211873Y-85355731D01*
X92194125Y-85376214D01*
X92186473Y-85381131D01*
X92168725Y-85401614D01*
X92161073Y-85406531D01*
X92143325Y-85427014D01*
X92135673Y-85431931D01*
X92117925Y-85452414D01*
X92110273Y-85457331D01*
X92092525Y-85477814D01*
X92084874Y-85482730D01*
X92075792Y-85493212D01*
X92016066Y-85531595D01*
X91998966Y-85536616D01*
X91927970Y-85536616D01*
X91923732Y-85534302D01*
X91910569Y-85531439D01*
X91854839Y-85503543D01*
X91831694Y-85483488D01*
X91826776Y-85475834D01*
X91806295Y-85458088D01*
X91801378Y-85450436D01*
X91780895Y-85432688D01*
X91775978Y-85425036D01*
X91755495Y-85407288D01*
X91750578Y-85399636D01*
X91730095Y-85381888D01*
X91725178Y-85374236D01*
X91704695Y-85356488D01*
X91699778Y-85348836D01*
X91679295Y-85331088D01*
X91674378Y-85323436D01*
X91653895Y-85305688D01*
X91648978Y-85298036D01*
X91628495Y-85280288D01*
X91623578Y-85272636D01*
X91603095Y-85254888D01*
X91598178Y-85247236D01*
X91577695Y-85229488D01*
X91572778Y-85221836D01*
X91552295Y-85204088D01*
X91547379Y-85196438D01*
X91515451Y-85168772D01*
X91473839Y-85147943D01*
X91450694Y-85127888D01*
X91445776Y-85120234D01*
X91425295Y-85102488D01*
X91420378Y-85094836D01*
X91399895Y-85077088D01*
X91394978Y-85069436D01*
X91374495Y-85051688D01*
X91369578Y-85044036D01*
X91349095Y-85026288D01*
X91344178Y-85018636D01*
X91323695Y-85000888D01*
X91318778Y-84993236D01*
X91298295Y-84975488D01*
X91293378Y-84967836D01*
X91272895Y-84950088D01*
X91267978Y-84942436D01*
X91247495Y-84924688D01*
X91242578Y-84917036D01*
X91222095Y-84899288D01*
X91217178Y-84891636D01*
X91196695Y-84873888D01*
X91191778Y-84866236D01*
X91171295Y-84848488D01*
X91166378Y-84840836D01*
X91145895Y-84823088D01*
X91140978Y-84815436D01*
X91120495Y-84797688D01*
X91115578Y-84790036D01*
X91095095Y-84772288D01*
X91090178Y-84764636D01*
X91069695Y-84746888D01*
X91064778Y-84739236D01*
X91044295Y-84721488D01*
X91039378Y-84713836D01*
X91018895Y-84696088D01*
X91013978Y-84688436D01*
X90993495Y-84670688D01*
X90988578Y-84663036D01*
X90968095Y-84645288D01*
X90963178Y-84637636D01*
X90942695Y-84619888D01*
X90937778Y-84612236D01*
X90917295Y-84594488D01*
X90912378Y-84586836D01*
X90891895Y-84569088D01*
X90886978Y-84561436D01*
X90866495Y-84543688D01*
X90861579Y-84536038D01*
X90829651Y-84508372D01*
X90788039Y-84487543D01*
X90764894Y-84467488D01*
X90759976Y-84459834D01*
X90739495Y-84442088D01*
X90734578Y-84434436D01*
X90714095Y-84416688D01*
X90709178Y-84409036D01*
X90688695Y-84391288D01*
X90683778Y-84383636D01*
X90663295Y-84365888D01*
X90658378Y-84358236D01*
X90637895Y-84340488D01*
X90632978Y-84332836D01*
X90612495Y-84315088D01*
X90607578Y-84307436D01*
X90587095Y-84289688D01*
X90582178Y-84282036D01*
X90561695Y-84264288D01*
X90556778Y-84256636D01*
X90536295Y-84238888D01*
X90531378Y-84231236D01*
X90510895Y-84213488D01*
X90505978Y-84205836D01*
X90485495Y-84188088D01*
X90480578Y-84180436D01*
X90460095Y-84162688D01*
X90455178Y-84155036D01*
X90434695Y-84137288D01*
X90429778Y-84129636D01*
X90409295Y-84111888D01*
X90404378Y-84104236D01*
X90383895Y-84086488D01*
X90378978Y-84078836D01*
X90358495Y-84061088D01*
X90353578Y-84053436D01*
X90333095Y-84035688D01*
X90328178Y-84028036D01*
X90307695Y-84010288D01*
X90302778Y-84002636D01*
X90282295Y-83984888D01*
X90277378Y-83977236D01*
X90256895Y-83959488D01*
X90251978Y-83951836D01*
X90231495Y-83934088D01*
X90226578Y-83926436D01*
X90206095Y-83908688D01*
X90201179Y-83901038D01*
X90169251Y-83873372D01*
X90127637Y-83852542D01*
X90114496Y-83841155D01*
X90076114Y-83781430D01*
X90073863Y-83773763D01*
X90053695Y-83756288D01*
X90048778Y-83748636D01*
X90028295Y-83730888D01*
X90023378Y-83723236D01*
X90002895Y-83705488D01*
X89997978Y-83697836D01*
X89977495Y-83680088D01*
X89972578Y-83672436D01*
X89952095Y-83654688D01*
X89947179Y-83647037D01*
X89936697Y-83637955D01*
X89898314Y-83578230D01*
X89896063Y-83570563D01*
X89875895Y-83553088D01*
X89870979Y-83545437D01*
X89860497Y-83536355D01*
X89822114Y-83476630D01*
X89819863Y-83468963D01*
X89799695Y-83451488D01*
X89794779Y-83443837D01*
X89784297Y-83434755D01*
X89745914Y-83375030D01*
X89739817Y-83354266D01*
X89720514Y-83324230D01*
X89714417Y-83303466D01*
X89695114Y-83273430D01*
X89692863Y-83265764D01*
X89682697Y-83256955D01*
X89644314Y-83197230D01*
X89638217Y-83176466D01*
X89618914Y-83146430D01*
X89609588Y-83114670D01*
X89602178Y-83103141D01*
X89601219Y-83096471D01*
X89584189Y-83038471D01*
X89576778Y-83026941D01*
X89575819Y-83020271D01*
X89558789Y-82962271D01*
X89551378Y-82950741D01*
X89546273Y-82915238D01*
X89546273Y-82904551D01*
X89533389Y-82860671D01*
X89525978Y-82849141D01*
X89520873Y-82813638D01*
X89520873Y-82752151D01*
X89507989Y-82708271D01*
X89500578Y-82696741D01*
X89495473Y-82661238D01*
X89495473Y-82523151D01*
X89515475Y-82455030D01*
X89518809Y-82450576D01*
X89520873Y-82441088D01*
X89520873Y-82345351D01*
X89540875Y-82277230D01*
X89544209Y-82272776D01*
X89546273Y-82263288D01*
X89546273Y-82218351D01*
X89566275Y-82150230D01*
X89569609Y-82145776D01*
X89574552Y-82123053D01*
X89577117Y-82123611D01*
X89591675Y-82074030D01*
X89595805Y-82068513D01*
X89620186Y-82019805D01*
X89620208Y-82019705D01*
X89645586Y-81969005D01*
X89645608Y-81968905D01*
X89673503Y-81913177D01*
X89676937Y-81909213D01*
X89697767Y-81867602D01*
X89727736Y-81833016D01*
X89748566Y-81791402D01*
X89768621Y-81768257D01*
X89776275Y-81763339D01*
X89794021Y-81742858D01*
X89801673Y-81737940D01*
X89840274Y-81693393D01*
X89855578Y-81683558D01*
X89870221Y-81666658D01*
X89877873Y-81661741D01*
X89895621Y-81641258D01*
X89903273Y-81636341D01*
X89921021Y-81615858D01*
X89928673Y-81610941D01*
X89946421Y-81590458D01*
X89954072Y-81585542D01*
X89963154Y-81575060D01*
X90022879Y-81536677D01*
X90043643Y-81530580D01*
X90073679Y-81511277D01*
X90094443Y-81505180D01*
X90124479Y-81485877D01*
X90145243Y-81479780D01*
X90175279Y-81460477D01*
X90196043Y-81454380D01*
X90226079Y-81435077D01*
X90257839Y-81425751D01*
X90269368Y-81418341D01*
X90276038Y-81417382D01*
X90334038Y-81400352D01*
X90345568Y-81392941D01*
X90352238Y-81391982D01*
X90410238Y-81374952D01*
X90421768Y-81367541D01*
X90457271Y-81362436D01*
X90493358Y-81362436D01*
X90537238Y-81349552D01*
X90548768Y-81342141D01*
X90584271Y-81337036D01*
X90950958Y-81337036D01*
X91019079Y-81357038D01*
G37*
%LPC*%
D12*
X78850000Y-88700000D03*
D13*
X78850000Y-86160000D03*
X78850000Y-83620000D03*
X78850000Y-81080000D03*
D14*
X102990000Y-82000000D03*
X96490000Y-82000000D03*
X102990000Y-86500000D03*
X96490000Y-86500000D03*
D15*
X157919000Y-87320000D03*
X157719000Y-71880000D03*
D12*
X78850000Y-105100000D03*
D13*
X78850000Y-102560000D03*
X78850000Y-100020000D03*
X78850000Y-97480000D03*
X78850000Y-94940000D03*
X78850000Y-92400000D03*
D16*
X120840000Y-72400000D03*
D15*
X157819000Y-101910000D03*
D12*
X78850000Y-77350000D03*
D13*
X78850000Y-74810000D03*
X78850000Y-72270000D03*
X78850000Y-69730000D03*
D17*
X89290000Y-85900000D03*
D18*
X86750000Y-85900000D03*
X84210000Y-85900000D03*
D12*
X78850000Y-119050000D03*
D13*
X78850000Y-116510000D03*
X78850000Y-113970000D03*
X78850000Y-111430000D03*
X78850000Y-108890000D03*
D15*
X157919000Y-118000000D03*
X157819000Y-79770000D03*
X157719000Y-110050000D03*
D19*
X94280000Y-116045000D03*
X88500000Y-116045000D03*
D20*
X95710000Y-115545000D03*
X87070000Y-115545000D03*
D21*
X87070000Y-119725000D03*
X95710000Y-119725000D03*
D16*
X128090000Y-72400000D03*
G36*
X145058121Y-116168907D02*
G01*
X145094085Y-116218407D01*
X145098924Y-116250064D01*
X145051053Y-120702064D01*
X145031521Y-120760049D01*
X144981638Y-120795478D01*
X144952059Y-120800000D01*
X138649000Y-120800000D01*
X138590809Y-120781093D01*
X138554845Y-120731593D01*
X138550000Y-120701000D01*
X138550000Y-116249000D01*
X138568907Y-116190809D01*
X138618407Y-116154845D01*
X138649000Y-116150000D01*
X144999930Y-116150000D01*
X145058121Y-116168907D01*
G37*
G36*
X145058121Y-107618907D02*
G01*
X145094085Y-107668407D01*
X145098924Y-107700064D01*
X145051053Y-112152064D01*
X145031521Y-112210049D01*
X144981638Y-112245478D01*
X144952059Y-112250000D01*
X138649000Y-112250000D01*
X138590809Y-112231093D01*
X138554845Y-112181593D01*
X138550000Y-112151000D01*
X138550000Y-107699000D01*
X138568907Y-107640809D01*
X138618407Y-107604845D01*
X138649000Y-107600000D01*
X144999930Y-107600000D01*
X145058121Y-107618907D01*
G37*
G36*
X144958121Y-99218907D02*
G01*
X144994085Y-99268407D01*
X144998924Y-99300064D01*
X144951053Y-103752064D01*
X144931521Y-103810049D01*
X144881638Y-103845478D01*
X144852059Y-103850000D01*
X138549000Y-103850000D01*
X138490809Y-103831093D01*
X138454845Y-103781593D01*
X138450000Y-103751000D01*
X138450000Y-99299000D01*
X138468907Y-99240809D01*
X138518407Y-99204845D01*
X138549000Y-99200000D01*
X144899930Y-99200000D01*
X144958121Y-99218907D01*
G37*
G36*
X144958121Y-85068907D02*
G01*
X144994085Y-85118407D01*
X144998924Y-85150064D01*
X144951053Y-89602064D01*
X144931521Y-89660049D01*
X144881638Y-89695478D01*
X144852059Y-89700000D01*
X138549000Y-89700000D01*
X138490809Y-89681093D01*
X138454845Y-89631593D01*
X138450000Y-89601000D01*
X138450000Y-85149000D01*
X138468907Y-85090809D01*
X138518407Y-85054845D01*
X138549000Y-85050000D01*
X144899930Y-85050000D01*
X144958121Y-85068907D01*
G37*
G36*
X145058121Y-76868907D02*
G01*
X145094085Y-76918407D01*
X145098924Y-76950064D01*
X145051053Y-81402064D01*
X145031521Y-81460049D01*
X144981638Y-81495478D01*
X144952059Y-81500000D01*
X138649000Y-81500000D01*
X138590809Y-81481093D01*
X138554845Y-81431593D01*
X138550000Y-81401000D01*
X138550000Y-76949000D01*
X138568907Y-76890809D01*
X138618407Y-76854845D01*
X138649000Y-76850000D01*
X144999930Y-76850000D01*
X145058121Y-76868907D01*
G37*
G36*
X145008121Y-68568907D02*
G01*
X145044085Y-68618407D01*
X145048924Y-68650064D01*
X145001053Y-73102064D01*
X144981521Y-73160049D01*
X144931638Y-73195478D01*
X144902059Y-73200000D01*
X138599000Y-73200000D01*
X138540809Y-73181093D01*
X138504845Y-73131593D01*
X138500000Y-73101000D01*
X138500000Y-68649000D01*
X138518907Y-68590809D01*
X138568407Y-68554845D01*
X138599000Y-68550000D01*
X144949930Y-68550000D01*
X145008121Y-68568907D01*
G37*
G36*
X136209308Y-68568907D02*
G01*
X136245272Y-68618407D01*
X136250117Y-68648883D01*
X136254916Y-72714354D01*
X136236077Y-72772567D01*
X136186620Y-72808589D01*
X136156693Y-72813468D01*
X132597034Y-72841398D01*
X132538696Y-72822948D01*
X132502345Y-72773731D01*
X132497257Y-72742336D01*
X132499935Y-68648935D01*
X132518880Y-68590757D01*
X132568404Y-68554825D01*
X132598935Y-68550000D01*
X136151117Y-68550000D01*
X136209308Y-68568907D01*
G37*
G36*
X136256418Y-76920917D02*
G01*
X136292382Y-76970417D01*
X136297227Y-77000893D01*
X136302026Y-81066364D01*
X136283187Y-81124577D01*
X136233730Y-81160599D01*
X136203803Y-81165478D01*
X132644144Y-81193408D01*
X132585806Y-81174958D01*
X132549455Y-81125741D01*
X132544367Y-81094346D01*
X132547045Y-77000945D01*
X132565990Y-76942767D01*
X132615514Y-76906835D01*
X132646045Y-76902010D01*
X136198227Y-76902010D01*
X136256418Y-76920917D01*
G37*
G36*
X136156418Y-85370917D02*
G01*
X136192382Y-85420417D01*
X136197227Y-85450893D01*
X136202026Y-89516364D01*
X136183187Y-89574577D01*
X136133730Y-89610599D01*
X136103803Y-89615478D01*
X132544144Y-89643408D01*
X132485806Y-89624958D01*
X132449455Y-89575741D01*
X132444367Y-89544346D01*
X132447045Y-85450945D01*
X132465990Y-85392767D01*
X132515514Y-85356835D01*
X132546045Y-85352010D01*
X136098227Y-85352010D01*
X136156418Y-85370917D01*
G37*
G36*
X136306418Y-99270917D02*
G01*
X136342382Y-99320417D01*
X136347227Y-99350893D01*
X136352026Y-103416364D01*
X136333187Y-103474577D01*
X136283730Y-103510599D01*
X136253803Y-103515478D01*
X132694144Y-103543408D01*
X132635806Y-103524958D01*
X132599455Y-103475741D01*
X132594367Y-103444346D01*
X132597045Y-99350945D01*
X132615990Y-99292767D01*
X132665514Y-99256835D01*
X132696045Y-99252010D01*
X136248227Y-99252010D01*
X136306418Y-99270917D01*
G37*
G36*
X136206418Y-107720917D02*
G01*
X136242382Y-107770417D01*
X136247227Y-107800893D01*
X136252026Y-111866364D01*
X136233187Y-111924577D01*
X136183730Y-111960599D01*
X136153803Y-111965478D01*
X132594144Y-111993408D01*
X132535806Y-111974958D01*
X132499455Y-111925741D01*
X132494367Y-111894346D01*
X132497045Y-107800945D01*
X132515990Y-107742767D01*
X132565514Y-107706835D01*
X132596045Y-107702010D01*
X136148227Y-107702010D01*
X136206418Y-107720917D01*
G37*
G36*
X136206418Y-116220917D02*
G01*
X136242382Y-116270417D01*
X136247227Y-116300893D01*
X136252026Y-120366364D01*
X136233187Y-120424577D01*
X136183730Y-120460599D01*
X136153803Y-120465478D01*
X132594144Y-120493408D01*
X132535806Y-120474958D01*
X132499455Y-120425741D01*
X132494367Y-120394346D01*
X132497045Y-116300945D01*
X132515990Y-116242767D01*
X132565514Y-116206835D01*
X132596045Y-116202010D01*
X136148227Y-116202010D01*
X136206418Y-116220917D01*
G37*
M02*
