G04 #@! TF.GenerationSoftware,KiCad,Pcbnew,6.0.0-rc2*
G04 #@! TF.CreationDate,2022-06-17T00:24:21-07:00*
G04 #@! TF.ProjectId,RP2040_motor,52503230-3430-45f6-9d6f-746f722e6b69,REV1*
G04 #@! TF.SameCoordinates,Original*
G04 #@! TF.FileFunction,Copper,L3,Inr*
G04 #@! TF.FilePolarity,Positive*
%FSLAX46Y46*%
G04 Gerber Fmt 4.6, Leading zero omitted, Abs format (unit mm)*
G04 Created by KiCad (PCBNEW 6.0.0-rc2) date 2022-06-17 00:24:21*
%MOMM*%
%LPD*%
G01*
G04 APERTURE LIST*
G04 Aperture macros list*
%AMRoundRect*
0 Rectangle with rounded corners*
0 $1 Rounding radius*
0 $2 $3 $4 $5 $6 $7 $8 $9 X,Y pos of 4 corners*
0 Add a 4 corners polygon primitive as box body*
4,1,4,$2,$3,$4,$5,$6,$7,$8,$9,$2,$3,0*
0 Add four circle primitives for the rounded corners*
1,1,$1+$1,$2,$3*
1,1,$1+$1,$4,$5*
1,1,$1+$1,$6,$7*
1,1,$1+$1,$8,$9*
0 Add four rect primitives between the rounded corners*
20,1,$1+$1,$2,$3,$4,$5,0*
20,1,$1+$1,$4,$5,$6,$7,0*
20,1,$1+$1,$6,$7,$8,$9,0*
20,1,$1+$1,$8,$9,$2,$3,0*%
G04 Aperture macros list end*
G04 #@! TA.AperFunction,ComponentPad*
%ADD10C,0.600000*%
G04 #@! TD*
G04 #@! TA.AperFunction,ComponentPad*
%ADD11RoundRect,0.250000X0.845000X-0.620000X0.845000X0.620000X-0.845000X0.620000X-0.845000X-0.620000X0*%
G04 #@! TD*
G04 #@! TA.AperFunction,ComponentPad*
%ADD12O,2.190000X1.740000*%
G04 #@! TD*
G04 #@! TA.AperFunction,ComponentPad*
%ADD13C,2.000000*%
G04 #@! TD*
G04 #@! TA.AperFunction,ComponentPad*
%ADD14C,4.000000*%
G04 #@! TD*
G04 #@! TA.AperFunction,ComponentPad*
%ADD15C,6.000000*%
G04 #@! TD*
G04 #@! TA.AperFunction,ComponentPad*
%ADD16RoundRect,0.250000X0.620000X0.845000X-0.620000X0.845000X-0.620000X-0.845000X0.620000X-0.845000X0*%
G04 #@! TD*
G04 #@! TA.AperFunction,ComponentPad*
%ADD17O,1.740000X2.190000*%
G04 #@! TD*
G04 #@! TA.AperFunction,ComponentPad*
%ADD18O,1.000000X2.100000*%
G04 #@! TD*
G04 #@! TA.AperFunction,ComponentPad*
%ADD19O,1.000000X1.600000*%
G04 #@! TD*
G04 #@! TA.AperFunction,ViaPad*
%ADD20C,0.800000*%
G04 #@! TD*
G04 #@! TA.AperFunction,ViaPad*
%ADD21C,0.600000*%
G04 #@! TD*
G04 #@! TA.AperFunction,Conductor*
%ADD22C,0.300000*%
G04 #@! TD*
G04 #@! TA.AperFunction,Conductor*
%ADD23C,0.600000*%
G04 #@! TD*
G04 #@! TA.AperFunction,Conductor*
%ADD24C,0.200000*%
G04 #@! TD*
G04 #@! TA.AperFunction,Conductor*
%ADD25C,1.000000*%
G04 #@! TD*
G04 APERTURE END LIST*
D10*
X91380000Y-104650000D03*
X92655000Y-105925000D03*
X91380000Y-103375000D03*
X92655000Y-103375000D03*
X91380000Y-105925000D03*
X90105000Y-104650000D03*
X90105000Y-103375000D03*
X92655000Y-104650000D03*
X90105000Y-105925000D03*
D11*
X78850000Y-88700000D03*
D12*
X78850000Y-86160000D03*
X78850000Y-83620000D03*
X78850000Y-81080000D03*
D13*
X102990000Y-82000000D03*
X96490000Y-82000000D03*
X102990000Y-86500000D03*
X96490000Y-86500000D03*
D14*
X157919000Y-87320000D03*
X157719000Y-71880000D03*
D11*
X78850000Y-105100000D03*
D12*
X78850000Y-102560000D03*
X78850000Y-100020000D03*
X78850000Y-97480000D03*
X78850000Y-94940000D03*
X78850000Y-92400000D03*
D15*
X120840000Y-72400000D03*
D14*
X157819000Y-101910000D03*
D11*
X78850000Y-77350000D03*
D12*
X78850000Y-74810000D03*
X78850000Y-72270000D03*
X78850000Y-69730000D03*
D16*
X89290000Y-85900000D03*
D17*
X86750000Y-85900000D03*
X84210000Y-85900000D03*
D11*
X78850000Y-119050000D03*
D12*
X78850000Y-116510000D03*
X78850000Y-113970000D03*
X78850000Y-111430000D03*
X78850000Y-108890000D03*
D14*
X157919000Y-118000000D03*
X157819000Y-79770000D03*
X157719000Y-110050000D03*
D18*
X95710000Y-115545000D03*
X87070000Y-115545000D03*
D19*
X87070000Y-119725000D03*
X95710000Y-119725000D03*
D15*
X128090000Y-72400000D03*
D20*
X116400000Y-96350000D03*
X118200000Y-114200000D03*
X116700000Y-91100000D03*
X118300000Y-78000000D03*
X106800000Y-112800000D03*
X119300000Y-119500000D03*
D21*
X95290000Y-90400000D03*
X95690000Y-94400000D03*
X88690000Y-92400000D03*
X89490000Y-97150000D03*
D20*
X119640000Y-83120000D03*
X158890000Y-75400000D03*
X159940000Y-83330000D03*
X157790000Y-106700000D03*
X122640000Y-97800000D03*
X119640000Y-86820000D03*
X103690000Y-113650000D03*
X159890000Y-75400000D03*
X157790000Y-113600000D03*
X159890000Y-76400000D03*
X156940000Y-76370000D03*
X119640000Y-92570000D03*
X155840000Y-114570000D03*
X158940000Y-83330000D03*
X157940000Y-84330000D03*
X122540000Y-100450000D03*
X119640000Y-103550000D03*
X122640000Y-86820000D03*
D21*
X150350000Y-95150000D03*
D20*
X119640000Y-118450000D03*
D21*
X98290000Y-98500000D03*
D20*
X157890000Y-75400000D03*
X155840000Y-106670000D03*
X116390000Y-104450000D03*
X121590000Y-106250000D03*
X154840000Y-106670000D03*
X155940000Y-76370000D03*
X154990000Y-84300000D03*
X152990000Y-84300000D03*
X90290000Y-77800000D03*
X159790000Y-113600000D03*
X118390000Y-80100000D03*
X157790000Y-114600000D03*
X119640000Y-77370000D03*
X153840000Y-105670000D03*
X120640000Y-86820000D03*
X119640000Y-97800000D03*
X121640000Y-77370000D03*
X151890000Y-113600000D03*
X120640000Y-83120000D03*
X154940000Y-75370000D03*
X151890000Y-114600000D03*
D21*
X95740000Y-95600000D03*
D20*
X156840000Y-106670000D03*
X154940000Y-76370000D03*
X101290000Y-75200000D03*
X122590000Y-106250000D03*
X120590000Y-115100000D03*
X119640000Y-112000000D03*
X153840000Y-114570000D03*
X153990000Y-83300000D03*
X122640000Y-102550000D03*
X158790000Y-113600000D03*
X155940000Y-75370000D03*
X86690000Y-76800000D03*
X100290000Y-74200000D03*
X121640000Y-102550000D03*
X122640000Y-112000000D03*
X152840000Y-114570000D03*
X111190000Y-72200000D03*
X120640000Y-96800000D03*
X121640000Y-105250000D03*
X122640000Y-111000000D03*
X158790000Y-114600000D03*
X159790000Y-114600000D03*
X120640000Y-84120000D03*
X155840000Y-113570000D03*
X154840000Y-113570000D03*
X119640000Y-91570000D03*
X85090000Y-70400000D03*
X122640000Y-103550000D03*
X121540000Y-100450000D03*
X156840000Y-113570000D03*
X159790000Y-105700000D03*
X122640000Y-105250000D03*
X151890000Y-106700000D03*
X121640000Y-91570000D03*
X158890000Y-76400000D03*
X122590000Y-87820000D03*
X120640000Y-112000000D03*
X121640000Y-118450000D03*
X120640000Y-111000000D03*
X155990000Y-83300000D03*
X120640000Y-77370000D03*
X156940000Y-75370000D03*
X121640000Y-112000000D03*
X119640000Y-84120000D03*
X92490000Y-78800000D03*
X121640000Y-78370000D03*
X154990000Y-83300000D03*
X152940000Y-75370000D03*
X92490000Y-77800000D03*
X100290000Y-75200000D03*
X90290000Y-78800000D03*
X96940000Y-110150000D03*
X152840000Y-113570000D03*
X91940000Y-112900000D03*
X97990000Y-88800000D03*
X121590000Y-87820000D03*
X153840000Y-106670000D03*
X120590000Y-106250000D03*
X115590000Y-72700000D03*
X120640000Y-78370000D03*
X158940000Y-84330000D03*
X116390000Y-112500000D03*
X155840000Y-105670000D03*
X119590000Y-87820000D03*
X119640000Y-105250000D03*
X119590000Y-106250000D03*
X120640000Y-102550000D03*
X122640000Y-84120000D03*
X119540000Y-100450000D03*
X122640000Y-96800000D03*
X88440000Y-112400000D03*
X121590000Y-115100000D03*
X120640000Y-118450000D03*
X121640000Y-111000000D03*
X122640000Y-77370000D03*
D21*
X143550000Y-96500000D03*
D20*
X119640000Y-102550000D03*
X84440000Y-110600000D03*
D21*
X94290000Y-96850000D03*
D20*
X120640000Y-97800000D03*
X99690000Y-107900000D03*
X157790000Y-105700000D03*
X120640000Y-91570000D03*
D21*
X157690000Y-94700000D03*
D20*
X152990000Y-83300000D03*
X121640000Y-103550000D03*
X100290000Y-73200000D03*
X116790000Y-87600000D03*
X119640000Y-111000000D03*
X152940000Y-76370000D03*
X122640000Y-91570000D03*
X153940000Y-76370000D03*
X153940000Y-75370000D03*
X154840000Y-114570000D03*
D21*
X100640000Y-103200000D03*
X92890000Y-82800000D03*
D20*
X151890000Y-105700000D03*
D21*
X139100000Y-94400000D03*
D20*
X153840000Y-113570000D03*
D21*
X82489500Y-103344989D03*
X93036913Y-85085543D03*
D20*
X121640000Y-96800000D03*
X94890000Y-78800000D03*
X101290000Y-73200000D03*
X159790000Y-106700000D03*
X122640000Y-114100000D03*
X121640000Y-92570000D03*
D21*
X150200000Y-91350000D03*
D20*
X159940000Y-84330000D03*
X120640000Y-103550000D03*
X122640000Y-92570000D03*
X120540000Y-100450000D03*
D21*
X88940000Y-91050000D03*
D20*
X122640000Y-118450000D03*
X158790000Y-106700000D03*
X158790000Y-105700000D03*
X120590000Y-87820000D03*
X121640000Y-83120000D03*
X119640000Y-114100000D03*
X154840000Y-105670000D03*
X152040000Y-84330000D03*
X157890000Y-76400000D03*
X84440000Y-108850000D03*
X156990000Y-83300000D03*
X121640000Y-86820000D03*
X152840000Y-105670000D03*
X151990000Y-76400000D03*
X119640000Y-78370000D03*
X152840000Y-106670000D03*
X155990000Y-84300000D03*
X119590000Y-115100000D03*
X120640000Y-92570000D03*
D21*
X143700000Y-92500000D03*
D20*
X120640000Y-105250000D03*
X122590000Y-115100000D03*
X101290000Y-74200000D03*
X156840000Y-114570000D03*
X121640000Y-84120000D03*
X152040000Y-83330000D03*
X156840000Y-105670000D03*
X121640000Y-97800000D03*
X106690000Y-71300000D03*
X121640000Y-114100000D03*
X157940000Y-83330000D03*
X153990000Y-84300000D03*
D21*
X83440000Y-118650000D03*
D20*
X151990000Y-75400000D03*
X119640000Y-96800000D03*
X122640000Y-78370000D03*
X122640000Y-83120000D03*
X120640000Y-114100000D03*
D21*
X101383767Y-79393767D03*
D20*
X156990000Y-84300000D03*
D21*
X102590000Y-101500000D03*
X88940000Y-113650000D03*
X94440000Y-113150000D03*
X94600000Y-86500000D03*
D20*
X112300000Y-96300000D03*
X109190000Y-70000000D03*
D21*
X91300000Y-86500000D03*
D20*
X149190000Y-95700000D03*
D21*
X91300000Y-85800000D03*
X94600000Y-85700000D03*
D20*
X101690000Y-98400000D03*
X98490000Y-78600000D03*
D21*
X91640000Y-110000000D03*
X90780030Y-102550000D03*
X90388839Y-99201161D03*
X90640000Y-106750000D03*
X80141946Y-103469270D03*
X90790000Y-89299500D03*
X85690000Y-104249500D03*
X86590000Y-104650500D03*
X80590000Y-105100000D03*
X92090000Y-89300000D03*
X80644440Y-104091126D03*
X85840000Y-105050000D03*
X94290000Y-89000000D03*
X82290000Y-99300000D03*
X82340000Y-100450000D03*
X85790000Y-100250000D03*
X82890000Y-108000000D03*
X88879500Y-104400000D03*
X134290000Y-69220000D03*
X133180900Y-119780000D03*
X133540000Y-99900000D03*
X134040000Y-111350000D03*
X135040000Y-71470000D03*
X134290000Y-101400000D03*
X134290000Y-70720000D03*
X135430900Y-119780000D03*
X133290000Y-108350000D03*
X135790000Y-71470000D03*
X135430900Y-119030000D03*
X134802300Y-110600000D03*
X134040000Y-108350000D03*
X133930900Y-116780000D03*
X135040000Y-102900000D03*
X133540000Y-100650000D03*
X135540000Y-79070000D03*
X133180900Y-86750000D03*
X134290000Y-102150000D03*
X133930900Y-119030000D03*
X135790000Y-72220000D03*
X133540000Y-69970000D03*
X135540000Y-80570000D03*
X134040000Y-78320000D03*
X134802300Y-79820000D03*
X134790000Y-78320000D03*
X135540000Y-79820000D03*
X133290000Y-77570000D03*
X134790000Y-80570000D03*
X135790000Y-102150000D03*
X134790000Y-77570000D03*
X134802300Y-109850000D03*
X134680900Y-86750000D03*
X133290000Y-109850000D03*
X135430900Y-88250000D03*
X135790000Y-69970000D03*
X133540000Y-71470000D03*
X133930900Y-87500000D03*
X133290000Y-79070000D03*
X133540000Y-70720000D03*
X134680900Y-119780000D03*
D20*
X95490000Y-74600000D03*
D21*
X135430900Y-86750000D03*
X133290000Y-79820000D03*
X134790000Y-111350000D03*
X134290000Y-99900000D03*
X133290000Y-78320000D03*
X134040000Y-79820000D03*
X135040000Y-102150000D03*
X135022300Y-69970000D03*
X134802300Y-79070000D03*
X134680900Y-89000000D03*
X133180900Y-88250000D03*
X133180900Y-116780000D03*
X134680900Y-87500000D03*
X134290000Y-102900000D03*
X133290000Y-111350000D03*
X134040000Y-109100000D03*
X135430900Y-116780000D03*
X133540000Y-102900000D03*
X133180900Y-119030000D03*
X135790000Y-102900000D03*
X134680900Y-86000000D03*
X134790000Y-108350000D03*
X135040000Y-72220000D03*
X135022300Y-70720000D03*
X133540000Y-72220000D03*
X134290000Y-69970000D03*
X135790000Y-99900000D03*
X134790000Y-109100000D03*
X134040000Y-80570000D03*
X135430900Y-87500000D03*
X133930900Y-86000000D03*
X133540000Y-101400000D03*
X133930900Y-89000000D03*
X133930900Y-119780000D03*
X133540000Y-69220000D03*
X135540000Y-109100000D03*
X135790000Y-101400000D03*
X133290000Y-110600000D03*
X133180900Y-89000000D03*
X135430900Y-89000000D03*
X135430900Y-86000000D03*
X135540000Y-111350000D03*
X134680900Y-116780000D03*
X134680900Y-117530000D03*
X133180900Y-117530000D03*
X134680900Y-118280000D03*
X134680900Y-119030000D03*
X133290000Y-109100000D03*
X135540000Y-109850000D03*
X135040000Y-99900000D03*
X134040000Y-109850000D03*
X133540000Y-102150000D03*
X135022300Y-101400000D03*
X135790000Y-100650000D03*
X135040000Y-69220000D03*
X135540000Y-77570000D03*
X133180900Y-118280000D03*
X133180900Y-87500000D03*
X135430900Y-117530000D03*
X135790000Y-69220000D03*
X133930900Y-86750000D03*
X134290000Y-100650000D03*
X134040000Y-77570000D03*
X135790000Y-70720000D03*
X133930900Y-88250000D03*
X135022300Y-100650000D03*
X135540000Y-78320000D03*
X135540000Y-110600000D03*
D20*
X94490000Y-74200000D03*
D21*
X133180900Y-86000000D03*
X134680900Y-88250000D03*
X134040000Y-79070000D03*
X133290000Y-80570000D03*
X135540000Y-108350000D03*
X134290000Y-72220000D03*
X133930900Y-117530000D03*
X133930900Y-118280000D03*
X134290000Y-71470000D03*
X135430900Y-118280000D03*
X134040000Y-110600000D03*
X139020900Y-102111400D03*
X144370900Y-102880000D03*
X139770900Y-102111400D03*
X142120900Y-102880000D03*
X144370900Y-101380000D03*
X142870900Y-100630000D03*
X142870900Y-99880000D03*
X139020900Y-99861400D03*
X144370900Y-100630000D03*
X142120900Y-102130000D03*
X143620900Y-99880000D03*
X139770900Y-101361400D03*
X139770900Y-102861400D03*
D20*
X111290000Y-102550000D03*
D21*
X142120900Y-101380000D03*
X142870900Y-102880000D03*
X143620900Y-102130000D03*
X142870900Y-102130000D03*
X142870900Y-101380000D03*
X143620900Y-101380000D03*
X139770900Y-100611400D03*
X142120900Y-100630000D03*
X144370900Y-99880000D03*
X139020900Y-102861400D03*
X143620900Y-102880000D03*
X139770900Y-99861400D03*
X142120900Y-99880000D03*
X144370900Y-102130000D03*
X139020900Y-100611400D03*
X139020900Y-101361400D03*
X143620900Y-100630000D03*
X144620900Y-109830000D03*
X143870900Y-111330000D03*
X142370900Y-109080000D03*
X143870900Y-109830000D03*
X144620900Y-109080000D03*
X139770900Y-109111400D03*
X139020900Y-108361400D03*
X139770900Y-109861400D03*
X139020900Y-109111400D03*
X143120900Y-109830000D03*
X143120900Y-109080000D03*
X143870900Y-109080000D03*
X139770900Y-110611400D03*
X139020900Y-111361400D03*
X139770900Y-111361400D03*
X142370900Y-111330000D03*
X143870900Y-110580000D03*
D20*
X111990000Y-111600000D03*
D21*
X143870900Y-108330000D03*
X144620900Y-108330000D03*
X139020900Y-109861400D03*
X143120900Y-110580000D03*
D20*
X112390000Y-109650000D03*
D21*
X139770900Y-108361400D03*
X142370900Y-108330000D03*
X143120900Y-108330000D03*
X139020900Y-110611400D03*
X144620900Y-110580000D03*
X143120900Y-111330000D03*
X142370900Y-109830000D03*
X142370900Y-110580000D03*
X144620900Y-111330000D03*
X144370900Y-117530000D03*
X139720900Y-119061400D03*
X144370900Y-119780000D03*
X139720900Y-118311400D03*
X142870900Y-118280000D03*
X152290000Y-120200000D03*
X142120900Y-119030000D03*
X144370900Y-118280000D03*
X143620900Y-119780000D03*
X142120900Y-116780000D03*
X142870900Y-119780000D03*
D20*
X112190000Y-117000000D03*
D21*
X143620900Y-119030000D03*
X142870900Y-117530000D03*
X138970900Y-119061400D03*
X142120900Y-119780000D03*
X142870900Y-119030000D03*
X139720900Y-116811400D03*
X144370900Y-119030000D03*
X139720900Y-117561400D03*
X138970900Y-118311400D03*
X143620900Y-117530000D03*
X139720900Y-119811400D03*
X138970900Y-117561400D03*
X142870900Y-116780000D03*
X142120900Y-118280000D03*
X142120900Y-117530000D03*
X144370900Y-116780000D03*
X143620900Y-116780000D03*
X138970900Y-119811400D03*
X143620900Y-118280000D03*
X138970900Y-116811400D03*
D20*
X108990000Y-102450000D03*
D21*
X137200000Y-98700000D03*
X147200000Y-99500000D03*
D20*
X107890000Y-98200000D03*
X108890000Y-110800000D03*
X136690000Y-106750000D03*
X144900000Y-106100000D03*
X82690000Y-69200000D03*
X88090000Y-79600000D03*
X105390000Y-77800000D03*
X136590000Y-68150000D03*
X146190000Y-68149500D03*
X109190000Y-74400000D03*
X136900000Y-76400000D03*
X107090000Y-84900000D03*
X145190000Y-76000000D03*
X106890000Y-81400000D03*
X136400000Y-115600000D03*
X108290000Y-119800000D03*
X106790000Y-114900000D03*
X144690000Y-115300000D03*
X114590000Y-81400000D03*
X112790000Y-86900000D03*
X105290000Y-70200000D03*
X106590000Y-74400000D03*
X136990000Y-84600000D03*
X108723180Y-92441682D03*
X108090000Y-89870000D03*
D21*
X145200000Y-83800000D03*
X158090000Y-96500000D03*
X152890000Y-96500000D03*
X149490000Y-93500000D03*
X82990000Y-104700000D03*
D20*
X110506647Y-93076913D03*
D21*
X96890000Y-91250500D03*
X82790000Y-105700000D03*
X141890000Y-94200000D03*
D20*
X109922064Y-93887633D03*
D21*
X97590000Y-91900000D03*
X143620900Y-71450000D03*
X142120900Y-70700000D03*
X144370900Y-70700000D03*
X139770900Y-72231400D03*
X139020900Y-71481400D03*
X143620900Y-70700000D03*
X143620900Y-69200000D03*
X143620900Y-72200000D03*
X142120900Y-69950000D03*
X139020900Y-69981400D03*
D20*
X113490000Y-76900000D03*
D21*
X142870900Y-69200000D03*
X144370900Y-72200000D03*
X142870900Y-72200000D03*
X139770900Y-71481400D03*
X139770900Y-70731400D03*
X139770900Y-69981400D03*
X144370900Y-69950000D03*
X142870900Y-70700000D03*
X152590000Y-69700000D03*
X139020900Y-72231400D03*
X142870900Y-69950000D03*
X143620900Y-69950000D03*
X142120900Y-71450000D03*
X139020900Y-70731400D03*
X142120900Y-69200000D03*
X139020900Y-69231400D03*
X142120900Y-72200000D03*
X142870900Y-71450000D03*
X139770900Y-69231400D03*
X144370900Y-71450000D03*
X144370900Y-69200000D03*
X143870900Y-79800000D03*
X139020900Y-79831400D03*
X139020900Y-77581400D03*
X142370900Y-79050000D03*
X143120900Y-79800000D03*
X143120900Y-80550000D03*
X144620900Y-79800000D03*
X139770900Y-78331400D03*
X142370900Y-79800000D03*
X139020900Y-78331400D03*
X142370900Y-77550000D03*
X143870900Y-80550000D03*
X143120900Y-79050000D03*
X142370900Y-80550000D03*
X139020900Y-80581400D03*
X139770900Y-80581400D03*
X143870900Y-78300000D03*
X139770900Y-77581400D03*
X143870900Y-77550000D03*
X143120900Y-77550000D03*
X139020900Y-79081400D03*
X143870900Y-79050000D03*
X143120900Y-78300000D03*
X142370900Y-78300000D03*
D20*
X113500000Y-84800000D03*
D21*
X139770900Y-79831400D03*
X144620900Y-80550000D03*
X144620900Y-79050000D03*
X139770900Y-79081400D03*
X144620900Y-77550000D03*
X144620900Y-78300000D03*
X144370900Y-88250000D03*
X142120900Y-88250000D03*
X144370900Y-86000000D03*
X142870900Y-89000000D03*
X142870900Y-87500000D03*
X143620900Y-87500000D03*
X143620900Y-86750000D03*
X139020900Y-88281400D03*
X142870900Y-88250000D03*
X142120900Y-86750000D03*
X139020900Y-87531400D03*
X144370900Y-86750000D03*
X142120900Y-87500000D03*
X143620900Y-89000000D03*
X142120900Y-89000000D03*
X143620900Y-86000000D03*
X139770900Y-86781400D03*
X139020900Y-89031400D03*
X139770900Y-88281400D03*
X144370900Y-87500000D03*
X143620900Y-88250000D03*
X142870900Y-86000000D03*
X139770900Y-89031400D03*
X144370900Y-89000000D03*
X139770900Y-87531400D03*
X139020900Y-86031400D03*
X139020900Y-86781400D03*
X142120900Y-86000000D03*
X139770900Y-86031400D03*
X142870900Y-86750000D03*
D20*
X113390000Y-91949500D03*
X103090000Y-95300000D03*
X116200000Y-118100000D03*
X104290000Y-72700000D03*
X114890000Y-78900000D03*
X102290000Y-119600000D03*
X117790000Y-109400000D03*
X84290000Y-79700000D03*
X116800000Y-99300000D03*
X117990000Y-84120011D03*
X118690000Y-88900000D03*
D21*
X83390000Y-106600000D03*
D20*
X109366567Y-94750500D03*
D21*
X98440000Y-92650000D03*
X150090000Y-97800000D03*
X86190000Y-113650000D03*
X90190000Y-110500000D03*
X95890000Y-107325500D03*
X100490000Y-105650000D03*
X83140000Y-88550000D03*
X97490000Y-106450000D03*
X85890000Y-90500000D03*
X98740000Y-106600000D03*
X98440000Y-93800000D03*
X142090000Y-96389500D03*
D20*
X110139527Y-95550500D03*
D21*
X84290000Y-106900000D03*
X89037034Y-102110213D03*
X87190000Y-101400000D03*
X85690000Y-101100000D03*
X88897572Y-103062141D03*
D20*
X76890000Y-90600000D03*
X98390000Y-83900000D03*
D21*
X152760885Y-92864571D03*
X157890000Y-92600000D03*
X89640000Y-109900000D03*
X83940000Y-113150000D03*
X90690000Y-113900000D03*
X83440000Y-116650000D03*
X85190000Y-116650000D03*
X91940000Y-117150000D03*
X87390000Y-100050000D03*
X80590000Y-90700000D03*
X81905097Y-89957548D03*
X87693381Y-98396619D03*
X81190000Y-89600000D03*
X88282033Y-99597644D03*
X94540000Y-108150000D03*
X101190000Y-106900000D03*
X98890000Y-111900000D03*
X94940000Y-109400000D03*
X99190000Y-113650000D03*
X96690000Y-112550000D03*
X100440000Y-115400000D03*
X97440000Y-113650000D03*
X112940000Y-114650000D03*
X99290000Y-105750000D03*
X98390000Y-105200000D03*
X112940000Y-113650000D03*
X113039177Y-90449500D03*
X96190000Y-101350000D03*
X113399668Y-88940332D03*
X95440000Y-100900000D03*
X97390000Y-104650000D03*
X112440000Y-105900000D03*
X113190000Y-105400000D03*
X97940000Y-104000000D03*
X96190000Y-99650000D03*
D20*
X111790000Y-85200000D03*
D21*
X95240000Y-99450000D03*
D20*
X112900000Y-82300000D03*
D21*
X96990000Y-102900000D03*
X113440000Y-100150000D03*
X112940000Y-98400000D03*
X96840000Y-102000000D03*
D20*
X114990000Y-75200000D03*
D21*
X95590000Y-96850000D03*
D20*
X115100000Y-77100000D03*
D21*
X96140000Y-97450000D03*
D20*
X107590000Y-70100000D03*
X112490000Y-70500000D03*
X110690000Y-69800000D03*
X115890000Y-70600000D03*
D22*
X150090000Y-97800000D02*
X151690000Y-96200000D01*
X151690000Y-96200000D02*
X151690000Y-95300000D01*
X151690000Y-95300000D02*
X150840489Y-94450489D01*
X111050489Y-95050489D02*
X110750500Y-94750500D01*
X110750500Y-94750500D02*
X109366567Y-94750500D01*
X150840489Y-94450489D02*
X149149511Y-94450489D01*
X149149511Y-94450489D02*
X148549511Y-95050489D01*
X148549511Y-95050489D02*
X111050489Y-95050489D01*
X126800000Y-82300000D02*
X114000000Y-82300000D01*
X145190000Y-76000000D02*
X144790000Y-75600000D01*
X113200000Y-81400000D02*
X106890000Y-81400000D01*
X144790000Y-75600000D02*
X133500000Y-75600000D01*
X133500000Y-75600000D02*
X126800000Y-82300000D01*
X114000000Y-82300000D02*
X113400000Y-81700000D01*
X113400000Y-81700000D02*
X113400000Y-81600000D01*
X113400000Y-81600000D02*
X113200000Y-81400000D01*
X110506647Y-93076913D02*
X112666913Y-93076913D01*
X141749031Y-93250969D02*
X143150000Y-91850000D01*
X112666913Y-93076913D02*
X113590000Y-94000000D01*
X135500000Y-94000000D02*
X136249031Y-93250969D01*
X136249031Y-93250969D02*
X141749031Y-93250969D01*
X113590000Y-94000000D02*
X135500000Y-94000000D01*
X143150000Y-91850000D02*
X147900000Y-91850000D01*
X149490000Y-93440000D02*
X149490000Y-93500000D01*
X147900000Y-91850000D02*
X149490000Y-93440000D01*
X139020900Y-88381400D02*
X139020900Y-88979100D01*
X139020900Y-88979100D02*
X134600000Y-93400000D01*
X134600000Y-93400000D02*
X114840500Y-93400000D01*
X114840500Y-93400000D02*
X113390000Y-91949500D01*
X142090000Y-96389500D02*
X126010500Y-96389500D01*
X126010500Y-96389500D02*
X123700000Y-98700000D01*
X123700000Y-98700000D02*
X118700000Y-98700000D01*
X118700000Y-98700000D02*
X117100000Y-97100000D01*
X117100000Y-97100000D02*
X111500000Y-97100000D01*
X111500000Y-97100000D02*
X110139527Y-95739527D01*
X110139527Y-95739527D02*
X110139527Y-95550500D01*
X147200000Y-99500000D02*
X146100000Y-98400000D01*
X125800000Y-97900000D02*
X124250000Y-99450000D01*
X146100000Y-98400000D02*
X138400000Y-98400000D01*
X137900000Y-97900000D02*
X125800000Y-97900000D01*
X138400000Y-98400000D02*
X137900000Y-97900000D01*
X124250000Y-99450000D02*
X118450000Y-99450000D01*
X118450000Y-99450000D02*
X116700000Y-97700000D01*
X116700000Y-97700000D02*
X108390000Y-97700000D01*
X108390000Y-97700000D02*
X107890000Y-98200000D01*
X149190000Y-95700000D02*
X144500000Y-95700000D01*
X144500000Y-95700000D02*
X144400000Y-95600000D01*
X144400000Y-95600000D02*
X113190000Y-95600000D01*
X113190000Y-95600000D02*
X112490000Y-96300000D01*
X112490000Y-96300000D02*
X112300000Y-96300000D01*
X118200000Y-115300000D02*
X118200000Y-114200000D01*
X119000000Y-116100000D02*
X118200000Y-115300000D01*
X127400000Y-113700000D02*
X126600000Y-113700000D01*
X139020900Y-111679100D02*
X137200000Y-113500000D01*
X124200000Y-116100000D02*
X119000000Y-116100000D01*
X126600000Y-113700000D02*
X124200000Y-116100000D01*
X139020900Y-110961400D02*
X139020900Y-111679100D01*
X137200000Y-113500000D02*
X137000000Y-113700000D01*
X137000000Y-113700000D02*
X127400000Y-113700000D01*
X144900000Y-106100000D02*
X144700000Y-106300000D01*
X144700000Y-106300000D02*
X138000000Y-106300000D01*
X116800000Y-113500000D02*
X114500000Y-113500000D01*
X138000000Y-106300000D02*
X137500000Y-106800000D01*
X137500000Y-106800000D02*
X137500000Y-112000000D01*
X137500000Y-112000000D02*
X136500000Y-113000000D01*
X136500000Y-113000000D02*
X117300000Y-113000000D01*
X117300000Y-113000000D02*
X116800000Y-113500000D01*
X114500000Y-113500000D02*
X113600000Y-112600000D01*
X113600000Y-112600000D02*
X107000000Y-112600000D01*
X107000000Y-112600000D02*
X106800000Y-112800000D01*
X113490000Y-76900000D02*
X113490000Y-77290000D01*
X114300000Y-78100000D02*
X115700000Y-78100000D01*
X113490000Y-77290000D02*
X114300000Y-78100000D01*
X115700000Y-78100000D02*
X116800000Y-79200000D01*
X116800000Y-79200000D02*
X124100000Y-79200000D01*
X125300000Y-78000000D02*
X130300000Y-78000000D01*
X130300000Y-78000000D02*
X133200000Y-75100000D01*
X124100000Y-79200000D02*
X125300000Y-78000000D01*
X133200000Y-75100000D02*
X136900000Y-75100000D01*
X136900000Y-75100000D02*
X139020900Y-72979100D01*
X139020900Y-72979100D02*
X139020900Y-72581400D01*
X146190000Y-68149500D02*
X145549500Y-68149500D01*
X145549500Y-68149500D02*
X145400000Y-68000000D01*
X145400000Y-68000000D02*
X137900000Y-68000000D01*
X137900000Y-68000000D02*
X137500000Y-68400000D01*
X137500000Y-68400000D02*
X137500000Y-73200000D01*
X137500000Y-73200000D02*
X136200000Y-74500000D01*
X136200000Y-74500000D02*
X132400000Y-74500000D01*
X132400000Y-74500000D02*
X130300000Y-76600000D01*
X130300000Y-76600000D02*
X118700000Y-76600000D01*
X118700000Y-76600000D02*
X118300000Y-77000000D01*
X118300000Y-77000000D02*
X118300000Y-78000000D01*
X116700000Y-91100000D02*
X117200000Y-90600000D01*
X117200000Y-90600000D02*
X136000000Y-90600000D01*
X136000000Y-90600000D02*
X136700000Y-89900000D01*
X136700000Y-89900000D02*
X136700000Y-86100000D01*
X139000000Y-83800000D02*
X145200000Y-83800000D01*
X136700000Y-86100000D02*
X139000000Y-83800000D01*
X136400000Y-115600000D02*
X136050000Y-115250000D01*
X119400000Y-119600000D02*
X119300000Y-119500000D01*
X136050000Y-115250000D02*
X129050000Y-115250000D01*
X129050000Y-115250000D02*
X124700000Y-119600000D01*
X124700000Y-119600000D02*
X119400000Y-119600000D01*
X136990000Y-84600000D02*
X131500000Y-84600000D01*
X120800000Y-88700000D02*
X119500000Y-90000000D01*
X131500000Y-84600000D02*
X127400000Y-88700000D01*
X127400000Y-88700000D02*
X120800000Y-88700000D01*
X119500000Y-90000000D02*
X115499052Y-90000000D01*
X109964862Y-91200000D02*
X108723180Y-92441682D01*
X115499052Y-90000000D02*
X114299052Y-91200000D01*
X114299052Y-91200000D02*
X109964862Y-91200000D01*
D23*
X105990000Y-82000000D02*
X107290000Y-83300000D01*
X107290000Y-83300000D02*
X117169989Y-83300000D01*
X117169989Y-83300000D02*
X117990000Y-84120011D01*
D22*
X136900000Y-76400000D02*
X137090000Y-76590000D01*
X137090000Y-76590000D02*
X137090000Y-80510000D01*
X110000000Y-84000000D02*
X109000000Y-85000000D01*
X137090000Y-80510000D02*
X134900000Y-82700000D01*
X134900000Y-82700000D02*
X127800000Y-82700000D01*
X127800000Y-82700000D02*
X125300000Y-85200000D01*
X125300000Y-85200000D02*
X115800000Y-85200000D01*
X115800000Y-85200000D02*
X114600000Y-84000000D01*
X107190000Y-85000000D02*
X107090000Y-84900000D01*
X114600000Y-84000000D02*
X110000000Y-84000000D01*
X109000000Y-85000000D02*
X107190000Y-85000000D01*
X113500000Y-84800000D02*
X113500000Y-84900000D01*
X113500000Y-84900000D02*
X114500000Y-85900000D01*
X128500000Y-83700000D02*
X135100000Y-83700000D01*
X135100000Y-83700000D02*
X137868600Y-80931400D01*
X137868600Y-80931400D02*
X139020900Y-80931400D01*
X114500000Y-85900000D02*
X126300000Y-85900000D01*
X126300000Y-85900000D02*
X128500000Y-83700000D01*
X136800000Y-72500000D02*
X135500000Y-73800000D01*
X135500000Y-73800000D02*
X132200000Y-73800000D01*
X105390000Y-77800000D02*
X107190000Y-76000000D01*
X107190000Y-76000000D02*
X130000000Y-76000000D01*
X130000000Y-76000000D02*
X132200000Y-73800000D01*
X136800000Y-72500000D02*
X136800000Y-68360000D01*
X136800000Y-68360000D02*
X136590000Y-68150000D01*
X109922064Y-93887633D02*
X110904848Y-93887633D01*
X136699511Y-93750489D02*
X141440489Y-93750489D01*
X110904848Y-93887633D02*
X111517215Y-94500000D01*
X111517215Y-94500000D02*
X135950000Y-94500000D01*
X135950000Y-94500000D02*
X136699511Y-93750489D01*
X141440489Y-93750489D02*
X141890000Y-94200000D01*
D23*
X116800000Y-99300000D02*
X116700000Y-99200000D01*
X116700000Y-99200000D02*
X105890000Y-99200000D01*
D22*
X137200000Y-98700000D02*
X137000000Y-98900000D01*
X137000000Y-98900000D02*
X130900000Y-98900000D01*
X109640489Y-101799511D02*
X108990000Y-102450000D01*
X130900000Y-98900000D02*
X128000489Y-101799511D01*
X128000489Y-101799511D02*
X109640489Y-101799511D01*
X116500000Y-103200000D02*
X115900000Y-102600000D01*
X123600000Y-104400000D02*
X118200000Y-104400000D01*
X138038600Y-103261400D02*
X136800000Y-104500000D01*
X136800000Y-104500000D02*
X123700000Y-104500000D01*
X139020900Y-103261400D02*
X138038600Y-103261400D01*
X123700000Y-104500000D02*
X123600000Y-104400000D01*
X118200000Y-104400000D02*
X117700000Y-104400000D01*
X115900000Y-102600000D02*
X111300000Y-102600000D01*
X117700000Y-104400000D02*
X116500000Y-103200000D01*
X144690000Y-115300000D02*
X144690000Y-114590000D01*
X144300000Y-114200000D02*
X128200000Y-114200000D01*
X144690000Y-114590000D02*
X144300000Y-114200000D01*
X128200000Y-114200000D02*
X125500000Y-116900000D01*
X125500000Y-116900000D02*
X118700000Y-116900000D01*
X118700000Y-116900000D02*
X117500000Y-115700000D01*
X117500000Y-115700000D02*
X107590000Y-115700000D01*
X107590000Y-115700000D02*
X106790000Y-114900000D01*
X139020900Y-119911400D02*
X138502789Y-120429511D01*
X138502789Y-120429511D02*
X118529511Y-120429511D01*
X118529511Y-120429511D02*
X117400000Y-119300000D01*
X117400000Y-119300000D02*
X117400000Y-117800000D01*
X117400000Y-117800000D02*
X116600000Y-117000000D01*
X116600000Y-117000000D02*
X112190000Y-117000000D01*
D23*
X116200000Y-118100000D02*
X115700489Y-118599511D01*
X115700489Y-118599511D02*
X108990489Y-118599511D01*
D22*
X93440000Y-112150000D02*
X94440000Y-113150000D01*
X90440000Y-112150000D02*
X92940000Y-112150000D01*
X92940000Y-112150000D02*
X93440000Y-112150000D01*
X88940000Y-113650000D02*
X90440000Y-112150000D01*
X105290000Y-71800000D02*
X105190000Y-71700000D01*
X106290000Y-72400000D02*
X105890000Y-72400000D01*
X106790000Y-72400000D02*
X106290000Y-72400000D01*
X103090000Y-73400000D02*
X103090000Y-77700000D01*
X105890000Y-72400000D02*
X105290000Y-71800000D01*
X103090000Y-72300000D02*
X103090000Y-73400000D01*
X98790000Y-78300000D02*
X98490000Y-78600000D01*
X102890000Y-77900000D02*
X102490000Y-78300000D01*
X102490000Y-78300000D02*
X100090000Y-78300000D01*
X109190000Y-70000000D02*
X106790000Y-72400000D01*
X103690000Y-71700000D02*
X103090000Y-72300000D01*
X105190000Y-71700000D02*
X103690000Y-71700000D01*
X103090000Y-77700000D02*
X102890000Y-77900000D01*
X100090000Y-78300000D02*
X98790000Y-78300000D01*
D24*
X80244520Y-98145480D02*
X88290000Y-90100000D01*
X80141946Y-103469270D02*
X80244520Y-103366696D01*
X89090500Y-89299500D02*
X90790000Y-89299500D01*
X88290000Y-90100000D02*
X89090500Y-89299500D01*
X80244520Y-103366696D02*
X80244520Y-98145480D01*
X79740000Y-91200000D02*
X80040000Y-91500000D01*
X80040000Y-91500000D02*
X82890000Y-91500000D01*
X77540000Y-91200000D02*
X79740000Y-91200000D01*
X76690000Y-105600000D02*
X76690000Y-92050000D01*
X80590000Y-106400000D02*
X80490000Y-106500000D01*
X82890000Y-91500000D02*
X85690000Y-88700000D01*
X80590000Y-105100000D02*
X80590000Y-106400000D01*
X85690000Y-88700000D02*
X91490000Y-88700000D01*
X80490000Y-106500000D02*
X77590000Y-106500000D01*
X76690000Y-92050000D02*
X77540000Y-91200000D01*
X77590000Y-106500000D02*
X76690000Y-105600000D01*
X91490000Y-88700000D02*
X92090000Y-89300000D01*
X93290000Y-90000000D02*
X94290000Y-89000000D01*
X80644440Y-104091126D02*
X80644440Y-103845560D01*
X88955006Y-90000000D02*
X93290000Y-90000000D01*
X81890000Y-98600000D02*
X81890000Y-97065006D01*
X81890000Y-97065006D02*
X88955006Y-90000000D01*
X80644440Y-103845560D02*
X80840000Y-103650000D01*
X80840000Y-103650000D02*
X80840000Y-99650000D01*
X80840000Y-99650000D02*
X81890000Y-98600000D01*
X82290000Y-99300000D02*
X82290000Y-99500000D01*
X82290000Y-99500000D02*
X81364500Y-100333550D01*
X81364500Y-100333550D02*
X81364500Y-108725500D01*
X79940000Y-110150000D02*
X77840000Y-110150000D01*
X77340000Y-110650000D02*
X77340000Y-115000000D01*
X77340000Y-115000000D02*
X78850000Y-116510000D01*
X81364500Y-108725500D02*
X79940000Y-110150000D01*
X77840000Y-110150000D02*
X77340000Y-110650000D01*
X82340000Y-100450000D02*
X81805970Y-100984030D01*
X81805970Y-111014030D02*
X78850000Y-113970000D01*
X81805970Y-100984030D02*
X81805970Y-111014030D01*
X87190000Y-102710500D02*
X88879500Y-104400000D01*
X85790000Y-100250000D02*
X86340000Y-100800000D01*
X87190000Y-102500000D02*
X87190000Y-102710500D01*
X85229500Y-108050000D02*
X88879500Y-104400000D01*
X82890000Y-108000000D02*
X82940000Y-108050000D01*
X86340000Y-101650000D02*
X87190000Y-102500000D01*
X82940000Y-108050000D02*
X85229500Y-108050000D01*
X86340000Y-100800000D02*
X86340000Y-101650000D01*
D25*
X94490000Y-74200000D02*
X95090000Y-74200000D01*
X95090000Y-74200000D02*
X95490000Y-74600000D01*
X124360489Y-68670489D02*
X128090000Y-72400000D01*
X100219511Y-68670489D02*
X124360489Y-68670489D01*
X94690000Y-74200000D02*
X100219511Y-68670489D01*
X94490000Y-74200000D02*
X94690000Y-74200000D01*
D22*
X112490000Y-110800000D02*
X108890000Y-110800000D01*
X136490000Y-112200000D02*
X125899970Y-112200000D01*
X136740000Y-111950000D02*
X136490000Y-112200000D01*
X136740000Y-106950000D02*
X136740000Y-111950000D01*
X113039511Y-110250489D02*
X112490000Y-110800000D01*
X125899970Y-112200000D02*
X123950459Y-110250489D01*
X123950459Y-110250489D02*
X113039511Y-110250489D01*
X108723180Y-92441682D02*
X108964862Y-92200000D01*
X91039500Y-91250500D02*
X83090000Y-99200000D01*
X83390000Y-104300000D02*
X82990000Y-104700000D01*
X83090000Y-102100000D02*
X83390000Y-102400000D01*
X83090000Y-99200000D02*
X83090000Y-102100000D01*
X96890000Y-91250500D02*
X91039500Y-91250500D01*
X83390000Y-102400000D02*
X83390000Y-104300000D01*
X83049970Y-105700000D02*
X83890000Y-104859970D01*
X83890000Y-104859970D02*
X83890000Y-99300000D01*
X82790000Y-105700000D02*
X83049970Y-105700000D01*
X83890000Y-99300000D02*
X91290000Y-91900000D01*
X91290000Y-91900000D02*
X97590000Y-91900000D01*
D23*
X105890000Y-96200000D02*
X105890000Y-99200000D01*
X105890000Y-99200000D02*
X105890000Y-108900000D01*
X112090000Y-78800000D02*
X112190000Y-78900000D01*
X105890000Y-108900000D02*
X105890000Y-116500000D01*
X107989511Y-118599511D02*
X108990489Y-118599511D01*
X85089511Y-80499511D02*
X104489511Y-80499511D01*
X105890000Y-96200000D02*
X103990000Y-96200000D01*
X105890000Y-87900000D02*
X115747898Y-87900000D01*
X105890000Y-83872102D02*
X105890000Y-87900000D01*
X103990000Y-96200000D02*
X103090000Y-95300000D01*
X105990000Y-83772102D02*
X105890000Y-83872102D01*
X103290489Y-118599511D02*
X102290000Y-119600000D01*
X112190000Y-78900000D02*
X114890000Y-78900000D01*
D22*
X104290000Y-72700000D02*
X104290000Y-80300000D01*
X104290000Y-80300000D02*
X104489511Y-80499511D01*
D23*
X107189022Y-77800000D02*
X104489511Y-80499511D01*
X117140489Y-108750489D02*
X117790000Y-109400000D01*
X108990489Y-118599511D02*
X103290489Y-118599511D01*
X105890000Y-108900000D02*
X106039511Y-108750489D01*
X118390000Y-89200000D02*
X118690000Y-88900000D01*
X105890000Y-87900000D02*
X105890000Y-96200000D01*
X106039511Y-108750489D02*
X117140489Y-108750489D01*
X105890000Y-116500000D02*
X107989511Y-118599511D01*
X105990000Y-82000000D02*
X105990000Y-83772102D01*
X107189022Y-77800000D02*
X111090000Y-77800000D01*
X111090000Y-77800000D02*
X112090000Y-78800000D01*
X104489511Y-80499511D02*
X105990000Y-82000000D01*
X84290000Y-79700000D02*
X85089511Y-80499511D01*
X117047898Y-89200000D02*
X118390000Y-89200000D01*
X115747898Y-87900000D02*
X117047898Y-89200000D01*
D22*
X84390000Y-105600000D02*
X84390000Y-99700000D01*
X91440000Y-92650000D02*
X98440000Y-92650000D01*
X83390000Y-106600000D02*
X84390000Y-105600000D01*
X84390000Y-99700000D02*
X91440000Y-92650000D01*
D24*
X100490000Y-105650000D02*
X99264511Y-104424511D01*
X91110000Y-83620000D02*
X78850000Y-83620000D01*
X99264511Y-92574511D02*
X91790000Y-85100000D01*
X99264511Y-104424511D02*
X99264511Y-92574511D01*
X91790000Y-85100000D02*
X91790000Y-84300000D01*
X91790000Y-84300000D02*
X91110000Y-83620000D01*
D22*
X85040489Y-106149511D02*
X84290000Y-106900000D01*
X91440000Y-93650000D02*
X85040489Y-100049511D01*
X98290000Y-93650000D02*
X91440000Y-93650000D01*
X98440000Y-93800000D02*
X98290000Y-93650000D01*
X85040489Y-100049511D02*
X85040489Y-106149511D01*
X81890000Y-81400000D02*
X81890000Y-79600000D01*
X76690000Y-80300000D02*
X76690000Y-90400000D01*
X98390000Y-83900000D02*
X92590000Y-83900000D01*
X77590000Y-79400000D02*
X76690000Y-80300000D01*
X76690000Y-90400000D02*
X76890000Y-90600000D01*
X91590000Y-82900000D02*
X91190000Y-82500000D01*
X77990000Y-79400000D02*
X77590000Y-79400000D01*
X82990000Y-82500000D02*
X81890000Y-81400000D01*
X92590000Y-83900000D02*
X91590000Y-82900000D01*
X81690000Y-79400000D02*
X77990000Y-79400000D01*
X91190000Y-82500000D02*
X82990000Y-82500000D01*
X81890000Y-79600000D02*
X81690000Y-79400000D01*
X91940000Y-117400000D02*
X91940000Y-117150000D01*
X85190000Y-116650000D02*
X85940000Y-117400000D01*
X85940000Y-117400000D02*
X91940000Y-117400000D01*
D24*
X89290000Y-87100000D02*
X89290000Y-85900000D01*
X82690000Y-90700000D02*
X85190000Y-88200000D01*
X80590000Y-90700000D02*
X82690000Y-90700000D01*
X85190000Y-88200000D02*
X88190000Y-88200000D01*
X88190000Y-88200000D02*
X89290000Y-87100000D01*
X81905097Y-89957548D02*
X82844934Y-89957548D01*
X84590000Y-88212482D02*
X84590000Y-88060000D01*
X84590000Y-88060000D02*
X86750000Y-85900000D01*
X82844934Y-89957548D02*
X84590000Y-88212482D01*
X84210000Y-85900000D02*
X83990000Y-85900000D01*
X81190000Y-88920000D02*
X84210000Y-85900000D01*
X81190000Y-89600000D02*
X81190000Y-88920000D01*
G04 #@! TA.AperFunction,Conductor*
G36*
X150906121Y-114410284D02*
G01*
X150961537Y-114465700D01*
X150981821Y-114541400D01*
X150980992Y-114557220D01*
X150976496Y-114600000D01*
X150977325Y-114607888D01*
X150993634Y-114763056D01*
X150996458Y-114789928D01*
X151055473Y-114971556D01*
X151059443Y-114978432D01*
X151131088Y-115102524D01*
X151150960Y-115136944D01*
X151278747Y-115278866D01*
X151307835Y-115300000D01*
X151390000Y-115359696D01*
X151433248Y-115391118D01*
X151440493Y-115394344D01*
X151440497Y-115394346D01*
X151600463Y-115465567D01*
X151600467Y-115465568D01*
X151607712Y-115468794D01*
X151707139Y-115489928D01*
X151786754Y-115506851D01*
X151786756Y-115506851D01*
X151794513Y-115508500D01*
X151985487Y-115508500D01*
X151993244Y-115506851D01*
X151993246Y-115506851D01*
X152072861Y-115489928D01*
X152172288Y-115468794D01*
X152179533Y-115465568D01*
X152179537Y-115465567D01*
X152304180Y-115410072D01*
X152337112Y-115395410D01*
X152414517Y-115383150D01*
X152460266Y-115395409D01*
X152557712Y-115438794D01*
X152565470Y-115440443D01*
X152736754Y-115476851D01*
X152736756Y-115476851D01*
X152744513Y-115478500D01*
X152935487Y-115478500D01*
X152943244Y-115476851D01*
X152943246Y-115476851D01*
X153002262Y-115464306D01*
X153122288Y-115438794D01*
X153129533Y-115435568D01*
X153129537Y-115435567D01*
X153278420Y-115369280D01*
X153355826Y-115357020D01*
X153401580Y-115369280D01*
X153550463Y-115435567D01*
X153550467Y-115435568D01*
X153557712Y-115438794D01*
X153677738Y-115464306D01*
X153736754Y-115476851D01*
X153736756Y-115476851D01*
X153744513Y-115478500D01*
X153935487Y-115478500D01*
X153943244Y-115476851D01*
X153943246Y-115476851D01*
X154002262Y-115464306D01*
X154122288Y-115438794D01*
X154129533Y-115435568D01*
X154129537Y-115435567D01*
X154278420Y-115369280D01*
X154355826Y-115357020D01*
X154401580Y-115369280D01*
X154550463Y-115435567D01*
X154550467Y-115435568D01*
X154557712Y-115438794D01*
X154677738Y-115464306D01*
X154736754Y-115476851D01*
X154736756Y-115476851D01*
X154744513Y-115478500D01*
X154935487Y-115478500D01*
X154943244Y-115476851D01*
X154943246Y-115476851D01*
X155002262Y-115464306D01*
X155122288Y-115438794D01*
X155129533Y-115435568D01*
X155129537Y-115435567D01*
X155278420Y-115369280D01*
X155355826Y-115357020D01*
X155401580Y-115369280D01*
X155550463Y-115435567D01*
X155550467Y-115435568D01*
X155557712Y-115438794D01*
X155677738Y-115464306D01*
X155736754Y-115476851D01*
X155736756Y-115476851D01*
X155744513Y-115478500D01*
X155935487Y-115478500D01*
X155943244Y-115476851D01*
X155943246Y-115476851D01*
X156002262Y-115464306D01*
X156122288Y-115438794D01*
X156129533Y-115435568D01*
X156129537Y-115435567D01*
X156278420Y-115369280D01*
X156355826Y-115357020D01*
X156401580Y-115369280D01*
X156550463Y-115435567D01*
X156550467Y-115435568D01*
X156557712Y-115438794D01*
X156677738Y-115464306D01*
X156736754Y-115476851D01*
X156736756Y-115476851D01*
X156744513Y-115478500D01*
X156935487Y-115478500D01*
X156943244Y-115476851D01*
X156943246Y-115476851D01*
X157114530Y-115440443D01*
X157122288Y-115438794D01*
X157219732Y-115395410D01*
X157297135Y-115383150D01*
X157342887Y-115395409D01*
X157375820Y-115410072D01*
X157500463Y-115465567D01*
X157500467Y-115465568D01*
X157507712Y-115468794D01*
X157515473Y-115470444D01*
X157515474Y-115470444D01*
X157567931Y-115481594D01*
X157637760Y-115517174D01*
X157680444Y-115582900D01*
X157684546Y-115661163D01*
X157648966Y-115730992D01*
X157583240Y-115773676D01*
X157565991Y-115778177D01*
X157340781Y-115822975D01*
X157331238Y-115825532D01*
X157061578Y-115917069D01*
X157052434Y-115920857D01*
X156968569Y-115962214D01*
X156956332Y-115972946D01*
X156957017Y-115976387D01*
X156959469Y-115979809D01*
X157904904Y-116925244D01*
X157919000Y-116933382D01*
X157933096Y-116925244D01*
X158873213Y-115985127D01*
X158881351Y-115971031D01*
X158879597Y-115967992D01*
X158876175Y-115965540D01*
X158785566Y-115920857D01*
X158776422Y-115917069D01*
X158506762Y-115825532D01*
X158497219Y-115822975D01*
X158217915Y-115767417D01*
X158208104Y-115766126D01*
X158117743Y-115760203D01*
X158043532Y-115735011D01*
X157991858Y-115676089D01*
X157976569Y-115599225D01*
X158001761Y-115525014D01*
X158060683Y-115473340D01*
X158071401Y-115468982D01*
X158072288Y-115468794D01*
X158076735Y-115466814D01*
X158076745Y-115466810D01*
X158228420Y-115399280D01*
X158305826Y-115387020D01*
X158351580Y-115399280D01*
X158500463Y-115465567D01*
X158500467Y-115465568D01*
X158507712Y-115468794D01*
X158607139Y-115489928D01*
X158686754Y-115506851D01*
X158686756Y-115506851D01*
X158694513Y-115508500D01*
X158885487Y-115508500D01*
X158893244Y-115506851D01*
X158893246Y-115506851D01*
X158972861Y-115489928D01*
X159072288Y-115468794D01*
X159079533Y-115465568D01*
X159079537Y-115465567D01*
X159228420Y-115399280D01*
X159305826Y-115387020D01*
X159351580Y-115399280D01*
X159500463Y-115465567D01*
X159500467Y-115465568D01*
X159507712Y-115468794D01*
X159607139Y-115489928D01*
X159686754Y-115506851D01*
X159686756Y-115506851D01*
X159694513Y-115508500D01*
X159885487Y-115508500D01*
X159893244Y-115506851D01*
X159893246Y-115506851D01*
X159972861Y-115489928D01*
X160072288Y-115468794D01*
X160079533Y-115465568D01*
X160079537Y-115465567D01*
X160219020Y-115403465D01*
X160296426Y-115391205D01*
X160369591Y-115419291D01*
X160418911Y-115480196D01*
X160432000Y-115541776D01*
X160432000Y-117573647D01*
X160411716Y-117649347D01*
X160356300Y-117704763D01*
X160280600Y-117725047D01*
X160204900Y-117704763D01*
X160149484Y-117649347D01*
X160132109Y-117603184D01*
X160096025Y-117421781D01*
X160093468Y-117412238D01*
X160001931Y-117142578D01*
X159998143Y-117133434D01*
X159956786Y-117049569D01*
X159946054Y-117037332D01*
X159942613Y-117038017D01*
X159939191Y-117040469D01*
X158993756Y-117985904D01*
X158985618Y-118000000D01*
X158993756Y-118014096D01*
X159933873Y-118954213D01*
X159947969Y-118962351D01*
X159951008Y-118960597D01*
X159953460Y-118957175D01*
X159998143Y-118866566D01*
X160001931Y-118857422D01*
X160093468Y-118587762D01*
X160096025Y-118578219D01*
X160132109Y-118396816D01*
X160166772Y-118326528D01*
X160231934Y-118282988D01*
X160310137Y-118277862D01*
X160380425Y-118312525D01*
X160423965Y-118377687D01*
X160432000Y-118426353D01*
X160432000Y-119598710D01*
X160430197Y-119622002D01*
X160426814Y-119643730D01*
X160428213Y-119654428D01*
X160428213Y-119654434D01*
X160428305Y-119655139D01*
X160429116Y-119686646D01*
X160417644Y-119832410D01*
X160413928Y-119855874D01*
X160373993Y-120022216D01*
X160366654Y-120044804D01*
X160350861Y-120082931D01*
X160301191Y-120202845D01*
X160290406Y-120224012D01*
X160201025Y-120369869D01*
X160187061Y-120389089D01*
X160075966Y-120519166D01*
X160059166Y-120535966D01*
X159929089Y-120647061D01*
X159909869Y-120661025D01*
X159764012Y-120750406D01*
X159742846Y-120761190D01*
X159584804Y-120826654D01*
X159562218Y-120833992D01*
X159516912Y-120844869D01*
X159395874Y-120873928D01*
X159372410Y-120877644D01*
X159344217Y-120879863D01*
X159233953Y-120888541D01*
X159217723Y-120887923D01*
X159217715Y-120888605D01*
X159206928Y-120888473D01*
X159196270Y-120886814D01*
X159166614Y-120890692D01*
X159166385Y-120890722D01*
X159146754Y-120892000D01*
X136966300Y-120892000D01*
X136890600Y-120871716D01*
X136835184Y-120816300D01*
X136814900Y-120740600D01*
X136814900Y-120028969D01*
X156956649Y-120028969D01*
X156958403Y-120032008D01*
X156961825Y-120034460D01*
X157052434Y-120079143D01*
X157061578Y-120082931D01*
X157331238Y-120174468D01*
X157340781Y-120177025D01*
X157620085Y-120232583D01*
X157629896Y-120233874D01*
X157914057Y-120252499D01*
X157923943Y-120252499D01*
X158208104Y-120233874D01*
X158217915Y-120232583D01*
X158497219Y-120177025D01*
X158506762Y-120174468D01*
X158776422Y-120082931D01*
X158785566Y-120079143D01*
X158869431Y-120037786D01*
X158881668Y-120027054D01*
X158880983Y-120023613D01*
X158878531Y-120020191D01*
X157933096Y-119074756D01*
X157919000Y-119066618D01*
X157904904Y-119074756D01*
X156964787Y-120014873D01*
X156956649Y-120028969D01*
X136814900Y-120028969D01*
X136814900Y-118004943D01*
X155666501Y-118004943D01*
X155685126Y-118289104D01*
X155686417Y-118298915D01*
X155741975Y-118578219D01*
X155744532Y-118587762D01*
X155836069Y-118857422D01*
X155839857Y-118866566D01*
X155881214Y-118950431D01*
X155891946Y-118962668D01*
X155895387Y-118961983D01*
X155898809Y-118959531D01*
X156844244Y-118014096D01*
X156852382Y-118000000D01*
X156844244Y-117985904D01*
X155904127Y-117045787D01*
X155890031Y-117037649D01*
X155886992Y-117039403D01*
X155884540Y-117042825D01*
X155839857Y-117133434D01*
X155836069Y-117142578D01*
X155744532Y-117412238D01*
X155741975Y-117421781D01*
X155686417Y-117701085D01*
X155685126Y-117710896D01*
X155666501Y-117995057D01*
X155666501Y-118004943D01*
X136814900Y-118004943D01*
X136814900Y-116498667D01*
X136835184Y-116422967D01*
X136877308Y-116376183D01*
X137011253Y-116278866D01*
X137076096Y-116206851D01*
X137133729Y-116142843D01*
X137133731Y-116142840D01*
X137139040Y-116136944D01*
X137234527Y-115971556D01*
X137237563Y-115962214D01*
X137252231Y-115917069D01*
X137293542Y-115789928D01*
X137295251Y-115773676D01*
X137312675Y-115607888D01*
X137313504Y-115600000D01*
X137311707Y-115582900D01*
X137294372Y-115417965D01*
X137294371Y-115417961D01*
X137293542Y-115410072D01*
X137234527Y-115228444D01*
X137210910Y-115187537D01*
X137152056Y-115085600D01*
X137131772Y-115009900D01*
X137152056Y-114934200D01*
X137207472Y-114878784D01*
X137283172Y-114858500D01*
X143669814Y-114858500D01*
X143745514Y-114878784D01*
X143800930Y-114934200D01*
X143821214Y-115009900D01*
X143813804Y-115056685D01*
X143798911Y-115102520D01*
X143798909Y-115102527D01*
X143796458Y-115110072D01*
X143795629Y-115117961D01*
X143795628Y-115117965D01*
X143784017Y-115228444D01*
X143776496Y-115300000D01*
X143777325Y-115307888D01*
X143795257Y-115478500D01*
X143796458Y-115489928D01*
X143855473Y-115671556D01*
X143950960Y-115836944D01*
X144078747Y-115978866D01*
X144233248Y-116091118D01*
X144240493Y-116094344D01*
X144240497Y-116094346D01*
X144400463Y-116165567D01*
X144400467Y-116165568D01*
X144407712Y-116168794D01*
X144527738Y-116194306D01*
X144586754Y-116206851D01*
X144586756Y-116206851D01*
X144594513Y-116208500D01*
X144785487Y-116208500D01*
X144793244Y-116206851D01*
X144793246Y-116206851D01*
X144852262Y-116194306D01*
X144972288Y-116168794D01*
X144979533Y-116165568D01*
X144979537Y-116165567D01*
X145139503Y-116094346D01*
X145139507Y-116094344D01*
X145146752Y-116091118D01*
X145301253Y-115978866D01*
X145429040Y-115836944D01*
X145524527Y-115671556D01*
X145583542Y-115489928D01*
X145584744Y-115478500D01*
X145602675Y-115307888D01*
X145603504Y-115300000D01*
X145595983Y-115228444D01*
X145584372Y-115117965D01*
X145584371Y-115117961D01*
X145583542Y-115110072D01*
X145524527Y-114928444D01*
X145460256Y-114817124D01*
X145433009Y-114769930D01*
X145433008Y-114769928D01*
X145429040Y-114763056D01*
X145388630Y-114718176D01*
X145353052Y-114648349D01*
X145349819Y-114621628D01*
X145348575Y-114582045D01*
X145348500Y-114577289D01*
X145348500Y-114548568D01*
X145348820Y-114548568D01*
X145363838Y-114474083D01*
X145415665Y-114415296D01*
X145489942Y-114390299D01*
X145499449Y-114390000D01*
X150830421Y-114390000D01*
X150906121Y-114410284D01*
G37*
G04 #@! TD.AperFunction*
G04 #@! TA.AperFunction,Conductor*
G36*
X160356300Y-98985284D02*
G01*
X160411716Y-99040700D01*
X160432000Y-99116400D01*
X160432000Y-104758224D01*
X160411716Y-104833924D01*
X160356300Y-104889340D01*
X160280600Y-104909624D01*
X160219020Y-104896535D01*
X160079537Y-104834433D01*
X160079533Y-104834432D01*
X160072288Y-104831206D01*
X159931150Y-104801206D01*
X159893246Y-104793149D01*
X159893244Y-104793149D01*
X159885487Y-104791500D01*
X159694513Y-104791500D01*
X159686756Y-104793149D01*
X159686754Y-104793149D01*
X159648850Y-104801206D01*
X159507712Y-104831206D01*
X159500467Y-104834432D01*
X159500463Y-104834433D01*
X159351580Y-104900720D01*
X159274174Y-104912980D01*
X159228420Y-104900720D01*
X159079537Y-104834433D01*
X159079533Y-104834432D01*
X159072288Y-104831206D01*
X158931150Y-104801206D01*
X158893246Y-104793149D01*
X158893244Y-104793149D01*
X158885487Y-104791500D01*
X158694513Y-104791500D01*
X158686756Y-104793149D01*
X158686754Y-104793149D01*
X158648850Y-104801206D01*
X158507712Y-104831206D01*
X158500467Y-104834432D01*
X158500463Y-104834433D01*
X158351580Y-104900720D01*
X158274174Y-104912980D01*
X158228420Y-104900720D01*
X158079537Y-104834433D01*
X158079533Y-104834432D01*
X158072288Y-104831206D01*
X157931150Y-104801206D01*
X157893246Y-104793149D01*
X157893244Y-104793149D01*
X157885487Y-104791500D01*
X157694513Y-104791500D01*
X157686756Y-104793149D01*
X157686754Y-104793149D01*
X157633668Y-104804433D01*
X157507712Y-104831206D01*
X157410268Y-104874590D01*
X157332865Y-104886850D01*
X157287113Y-104874591D01*
X157209957Y-104840239D01*
X157129537Y-104804433D01*
X157129533Y-104804432D01*
X157122288Y-104801206D01*
X157002262Y-104775694D01*
X156943246Y-104763149D01*
X156943244Y-104763149D01*
X156935487Y-104761500D01*
X156744513Y-104761500D01*
X156736756Y-104763149D01*
X156736754Y-104763149D01*
X156677738Y-104775694D01*
X156557712Y-104801206D01*
X156550467Y-104804432D01*
X156550463Y-104804433D01*
X156401580Y-104870720D01*
X156324174Y-104882980D01*
X156278420Y-104870720D01*
X156129537Y-104804433D01*
X156129533Y-104804432D01*
X156122288Y-104801206D01*
X156002262Y-104775694D01*
X155943246Y-104763149D01*
X155943244Y-104763149D01*
X155935487Y-104761500D01*
X155744513Y-104761500D01*
X155736756Y-104763149D01*
X155736754Y-104763149D01*
X155677738Y-104775694D01*
X155557712Y-104801206D01*
X155550467Y-104804432D01*
X155550463Y-104804433D01*
X155401580Y-104870720D01*
X155324174Y-104882980D01*
X155278420Y-104870720D01*
X155129537Y-104804433D01*
X155129533Y-104804432D01*
X155122288Y-104801206D01*
X155002262Y-104775694D01*
X154943246Y-104763149D01*
X154943244Y-104763149D01*
X154935487Y-104761500D01*
X154744513Y-104761500D01*
X154736756Y-104763149D01*
X154736754Y-104763149D01*
X154677738Y-104775694D01*
X154557712Y-104801206D01*
X154550467Y-104804432D01*
X154550463Y-104804433D01*
X154401580Y-104870720D01*
X154324174Y-104882980D01*
X154278420Y-104870720D01*
X154129537Y-104804433D01*
X154129533Y-104804432D01*
X154122288Y-104801206D01*
X154002262Y-104775694D01*
X153943246Y-104763149D01*
X153943244Y-104763149D01*
X153935487Y-104761500D01*
X153744513Y-104761500D01*
X153736756Y-104763149D01*
X153736754Y-104763149D01*
X153677738Y-104775694D01*
X153557712Y-104801206D01*
X153550467Y-104804432D01*
X153550463Y-104804433D01*
X153401580Y-104870720D01*
X153324174Y-104882980D01*
X153278420Y-104870720D01*
X153129537Y-104804433D01*
X153129533Y-104804432D01*
X153122288Y-104801206D01*
X153002262Y-104775694D01*
X152943246Y-104763149D01*
X152943244Y-104763149D01*
X152935487Y-104761500D01*
X152744513Y-104761500D01*
X152736756Y-104763149D01*
X152736754Y-104763149D01*
X152677738Y-104775694D01*
X152557712Y-104801206D01*
X152550467Y-104804432D01*
X152550463Y-104804433D01*
X152470043Y-104840239D01*
X152392888Y-104874590D01*
X152315483Y-104886850D01*
X152269734Y-104874591D01*
X152172288Y-104831206D01*
X152046332Y-104804433D01*
X151993246Y-104793149D01*
X151993244Y-104793149D01*
X151985487Y-104791500D01*
X151794513Y-104791500D01*
X151786756Y-104793149D01*
X151786754Y-104793149D01*
X151748850Y-104801206D01*
X151607712Y-104831206D01*
X151600467Y-104834432D01*
X151600463Y-104834433D01*
X151440497Y-104905654D01*
X151440493Y-104905656D01*
X151433248Y-104908882D01*
X151426828Y-104913546D01*
X151426827Y-104913547D01*
X151355998Y-104965008D01*
X151278747Y-105021134D01*
X151150960Y-105163056D01*
X151146992Y-105169928D01*
X151146991Y-105169930D01*
X151111613Y-105231206D01*
X151055473Y-105328444D01*
X150996458Y-105510072D01*
X150995629Y-105517961D01*
X150995628Y-105517965D01*
X150984965Y-105619425D01*
X150956880Y-105692590D01*
X150895975Y-105741911D01*
X150834394Y-105755000D01*
X145837270Y-105755000D01*
X145761570Y-105734716D01*
X145706154Y-105679300D01*
X145643009Y-105569930D01*
X145643008Y-105569928D01*
X145639040Y-105563056D01*
X145511253Y-105421134D01*
X145356752Y-105308882D01*
X145349507Y-105305656D01*
X145349503Y-105305654D01*
X145189537Y-105234433D01*
X145189533Y-105234432D01*
X145182288Y-105231206D01*
X145062262Y-105205694D01*
X145003246Y-105193149D01*
X145003244Y-105193149D01*
X144995487Y-105191500D01*
X144804513Y-105191500D01*
X144796756Y-105193149D01*
X144796754Y-105193149D01*
X144737738Y-105205694D01*
X144617712Y-105231206D01*
X144610467Y-105234432D01*
X144610463Y-105234433D01*
X144450497Y-105305654D01*
X144450493Y-105305656D01*
X144443248Y-105308882D01*
X144288747Y-105421134D01*
X144160960Y-105563056D01*
X144156992Y-105569929D01*
X144152329Y-105576347D01*
X144150300Y-105574873D01*
X144103969Y-105621211D01*
X144028260Y-105641500D01*
X138081132Y-105641500D01*
X138070448Y-105640996D01*
X138062463Y-105639211D01*
X138052946Y-105639510D01*
X138052944Y-105639510D01*
X137992026Y-105641425D01*
X137987269Y-105641500D01*
X137958568Y-105641500D01*
X137953848Y-105642096D01*
X137949305Y-105642382D01*
X137941145Y-105643024D01*
X137929960Y-105643376D01*
X137896169Y-105644438D01*
X137877496Y-105649863D01*
X137854240Y-105654679D01*
X137834936Y-105657118D01*
X137826081Y-105660624D01*
X137826077Y-105660625D01*
X137793099Y-105673682D01*
X137779604Y-105678302D01*
X137745554Y-105688195D01*
X137745550Y-105688197D01*
X137736400Y-105690855D01*
X137719663Y-105700753D01*
X137698325Y-105711206D01*
X137680244Y-105718365D01*
X137672539Y-105723963D01*
X137669617Y-105726086D01*
X137666504Y-105727281D01*
X137664192Y-105728552D01*
X137664018Y-105728235D01*
X137596451Y-105754171D01*
X137580628Y-105755000D01*
X136881300Y-105755000D01*
X136805600Y-105734716D01*
X136750184Y-105679300D01*
X136729900Y-105603600D01*
X136729900Y-103938969D01*
X156856649Y-103938969D01*
X156858403Y-103942008D01*
X156861825Y-103944460D01*
X156952434Y-103989143D01*
X156961578Y-103992931D01*
X157231238Y-104084468D01*
X157240781Y-104087025D01*
X157520085Y-104142583D01*
X157529896Y-104143874D01*
X157814057Y-104162499D01*
X157823943Y-104162499D01*
X158108104Y-104143874D01*
X158117915Y-104142583D01*
X158397219Y-104087025D01*
X158406762Y-104084468D01*
X158676422Y-103992931D01*
X158685566Y-103989143D01*
X158769431Y-103947786D01*
X158781668Y-103937054D01*
X158780983Y-103933613D01*
X158778531Y-103930191D01*
X157833096Y-102984756D01*
X157819000Y-102976618D01*
X157804904Y-102984756D01*
X156864787Y-103924873D01*
X156856649Y-103938969D01*
X136729900Y-103938969D01*
X136729900Y-101914943D01*
X155566501Y-101914943D01*
X155585126Y-102199104D01*
X155586417Y-102208915D01*
X155641975Y-102488219D01*
X155644532Y-102497762D01*
X155736069Y-102767422D01*
X155739857Y-102776566D01*
X155781214Y-102860431D01*
X155791946Y-102872668D01*
X155795387Y-102871983D01*
X155798809Y-102869531D01*
X156744244Y-101924096D01*
X156752382Y-101910000D01*
X158885618Y-101910000D01*
X158893756Y-101924096D01*
X159833873Y-102864213D01*
X159847969Y-102872351D01*
X159851008Y-102870597D01*
X159853460Y-102867175D01*
X159898143Y-102776566D01*
X159901931Y-102767422D01*
X159993468Y-102497762D01*
X159996025Y-102488219D01*
X160051583Y-102208915D01*
X160052874Y-102199104D01*
X160071499Y-101914943D01*
X160071499Y-101905057D01*
X160052874Y-101620896D01*
X160051583Y-101611085D01*
X159996025Y-101331781D01*
X159993468Y-101322238D01*
X159901931Y-101052578D01*
X159898143Y-101043434D01*
X159856786Y-100959569D01*
X159846054Y-100947332D01*
X159842613Y-100948017D01*
X159839191Y-100950469D01*
X158893756Y-101895904D01*
X158885618Y-101910000D01*
X156752382Y-101910000D01*
X156744244Y-101895904D01*
X155804127Y-100955787D01*
X155790031Y-100947649D01*
X155786992Y-100949403D01*
X155784540Y-100952825D01*
X155739857Y-101043434D01*
X155736069Y-101052578D01*
X155644532Y-101322238D01*
X155641975Y-101331781D01*
X155586417Y-101611085D01*
X155585126Y-101620896D01*
X155566501Y-101905057D01*
X155566501Y-101914943D01*
X136729900Y-101914943D01*
X136729900Y-99709900D01*
X136750184Y-99634200D01*
X136805600Y-99578784D01*
X136881300Y-99558500D01*
X136918878Y-99558500D01*
X136929554Y-99559004D01*
X136937537Y-99560788D01*
X136947056Y-99560489D01*
X136947057Y-99560489D01*
X137007955Y-99558575D01*
X137012711Y-99558500D01*
X137041432Y-99558500D01*
X137046165Y-99557902D01*
X137050720Y-99557615D01*
X137058866Y-99556975D01*
X137081701Y-99556257D01*
X137103831Y-99555562D01*
X137122504Y-99550137D01*
X137145760Y-99545321D01*
X137165064Y-99542882D01*
X137173919Y-99539376D01*
X137173923Y-99539375D01*
X137206901Y-99526318D01*
X137220396Y-99521698D01*
X137263600Y-99509146D01*
X137264074Y-99510779D01*
X137292857Y-99503436D01*
X137363600Y-99496998D01*
X137406150Y-99483173D01*
X137528061Y-99443562D01*
X137528064Y-99443561D01*
X137536108Y-99440947D01*
X137691912Y-99348069D01*
X137823266Y-99222982D01*
X137923643Y-99071902D01*
X137925584Y-99066793D01*
X137977361Y-99009694D01*
X138051980Y-98985739D01*
X138132309Y-99004285D01*
X138155663Y-99017124D01*
X138174504Y-99021962D01*
X138196969Y-99029654D01*
X138214824Y-99037380D01*
X138224230Y-99038870D01*
X138224231Y-99038870D01*
X138259265Y-99044419D01*
X138273229Y-99047311D01*
X138307586Y-99056132D01*
X138307592Y-99056133D01*
X138316812Y-99058500D01*
X138336261Y-99058500D01*
X138359944Y-99060364D01*
X138365916Y-99061310D01*
X138379152Y-99063406D01*
X138388631Y-99062510D01*
X138388633Y-99062510D01*
X138423944Y-99059172D01*
X138438192Y-99058500D01*
X145764528Y-99058500D01*
X145840228Y-99078784D01*
X145871584Y-99102844D01*
X146364570Y-99595830D01*
X146403602Y-99663435D01*
X146404163Y-99669160D01*
X146461418Y-99841273D01*
X146555380Y-99996424D01*
X146681382Y-100126902D01*
X146688468Y-100131539D01*
X146713729Y-100148069D01*
X146833159Y-100226222D01*
X146841094Y-100229173D01*
X146841096Y-100229174D01*
X146903488Y-100252377D01*
X147003168Y-100289448D01*
X147182961Y-100313438D01*
X147191389Y-100312671D01*
X147191392Y-100312671D01*
X147254573Y-100306921D01*
X147363600Y-100296998D01*
X147406150Y-100283173D01*
X147528061Y-100243562D01*
X147528064Y-100243561D01*
X147536108Y-100240947D01*
X147691912Y-100148069D01*
X147823266Y-100022982D01*
X147916305Y-99882946D01*
X156856332Y-99882946D01*
X156857017Y-99886387D01*
X156859469Y-99889809D01*
X157804904Y-100835244D01*
X157819000Y-100843382D01*
X157833096Y-100835244D01*
X158773213Y-99895127D01*
X158781351Y-99881031D01*
X158779597Y-99877992D01*
X158776175Y-99875540D01*
X158685566Y-99830857D01*
X158676422Y-99827069D01*
X158406762Y-99735532D01*
X158397219Y-99732975D01*
X158117915Y-99677417D01*
X158108104Y-99676126D01*
X157823943Y-99657501D01*
X157814057Y-99657501D01*
X157529896Y-99676126D01*
X157520085Y-99677417D01*
X157240781Y-99732975D01*
X157231238Y-99735532D01*
X156961578Y-99827069D01*
X156952434Y-99830857D01*
X156868569Y-99872214D01*
X156856332Y-99882946D01*
X147916305Y-99882946D01*
X147923643Y-99871902D01*
X147988055Y-99702338D01*
X148005419Y-99578784D01*
X148012638Y-99527421D01*
X148012638Y-99527419D01*
X148013299Y-99522717D01*
X148013466Y-99510779D01*
X148013550Y-99504759D01*
X148013550Y-99504753D01*
X148013616Y-99500000D01*
X148006506Y-99436613D01*
X147994341Y-99328157D01*
X147994340Y-99328153D01*
X147993397Y-99319745D01*
X147990614Y-99311753D01*
X147990613Y-99311749D01*
X147939924Y-99166191D01*
X147934184Y-99088031D01*
X147968293Y-99017472D01*
X148033111Y-98973422D01*
X148082902Y-98965000D01*
X160280600Y-98965000D01*
X160356300Y-98985284D01*
G37*
G04 #@! TD.AperFunction*
G04 #@! TA.AperFunction,Conductor*
G36*
X159162003Y-67909803D02*
G01*
X159173068Y-67911526D01*
X159173069Y-67911526D01*
X159183730Y-67913186D01*
X159194428Y-67911787D01*
X159194434Y-67911787D01*
X159195139Y-67911695D01*
X159226646Y-67910884D01*
X159372410Y-67922356D01*
X159395874Y-67926072D01*
X159516912Y-67955131D01*
X159562218Y-67966008D01*
X159584804Y-67973346D01*
X159742845Y-68038809D01*
X159764012Y-68049594D01*
X159909869Y-68138975D01*
X159929089Y-68152939D01*
X160059166Y-68264034D01*
X160075966Y-68280834D01*
X160187061Y-68410911D01*
X160201025Y-68430131D01*
X160290406Y-68575988D01*
X160301190Y-68597154D01*
X160366654Y-68755196D01*
X160373992Y-68777782D01*
X160381695Y-68809864D01*
X160413928Y-68944126D01*
X160417644Y-68967590D01*
X160424760Y-69058000D01*
X160428541Y-69106043D01*
X160427923Y-69122277D01*
X160428605Y-69122285D01*
X160428473Y-69133072D01*
X160426814Y-69143730D01*
X160428213Y-69154426D01*
X160430722Y-69173615D01*
X160432000Y-69193246D01*
X160432000Y-74413701D01*
X160411716Y-74489401D01*
X160356300Y-74544817D01*
X160280600Y-74565101D01*
X160219021Y-74552012D01*
X160179541Y-74534435D01*
X160179539Y-74534434D01*
X160172288Y-74531206D01*
X160031150Y-74501206D01*
X159993246Y-74493149D01*
X159993244Y-74493149D01*
X159985487Y-74491500D01*
X159794513Y-74491500D01*
X159786756Y-74493149D01*
X159786754Y-74493149D01*
X159748850Y-74501206D01*
X159607712Y-74531206D01*
X159600467Y-74534432D01*
X159600463Y-74534433D01*
X159451580Y-74600720D01*
X159374174Y-74612980D01*
X159328420Y-74600720D01*
X159179537Y-74534433D01*
X159179533Y-74534432D01*
X159172288Y-74531206D01*
X159031150Y-74501206D01*
X158993246Y-74493149D01*
X158993244Y-74493149D01*
X158985487Y-74491500D01*
X158794513Y-74491500D01*
X158786756Y-74493149D01*
X158786754Y-74493149D01*
X158748850Y-74501206D01*
X158607712Y-74531206D01*
X158600467Y-74534432D01*
X158600463Y-74534433D01*
X158451580Y-74600720D01*
X158374174Y-74612980D01*
X158328420Y-74600720D01*
X158179537Y-74534433D01*
X158179533Y-74534432D01*
X158172288Y-74531206D01*
X158031150Y-74501206D01*
X157993246Y-74493149D01*
X157993244Y-74493149D01*
X157985487Y-74491500D01*
X157794513Y-74491500D01*
X157786756Y-74493149D01*
X157786754Y-74493149D01*
X157733668Y-74504433D01*
X157607712Y-74531206D01*
X157510268Y-74574590D01*
X157432865Y-74586850D01*
X157387113Y-74574591D01*
X157296922Y-74534435D01*
X157229537Y-74504433D01*
X157229533Y-74504432D01*
X157222288Y-74501206D01*
X157102262Y-74475694D01*
X157043246Y-74463149D01*
X157043244Y-74463149D01*
X157035487Y-74461500D01*
X156844513Y-74461500D01*
X156836756Y-74463149D01*
X156836754Y-74463149D01*
X156777738Y-74475694D01*
X156657712Y-74501206D01*
X156650467Y-74504432D01*
X156650463Y-74504433D01*
X156501580Y-74570720D01*
X156424174Y-74582980D01*
X156378420Y-74570720D01*
X156229537Y-74504433D01*
X156229533Y-74504432D01*
X156222288Y-74501206D01*
X156102262Y-74475694D01*
X156043246Y-74463149D01*
X156043244Y-74463149D01*
X156035487Y-74461500D01*
X155844513Y-74461500D01*
X155836756Y-74463149D01*
X155836754Y-74463149D01*
X155777738Y-74475694D01*
X155657712Y-74501206D01*
X155650467Y-74504432D01*
X155650463Y-74504433D01*
X155501580Y-74570720D01*
X155424174Y-74582980D01*
X155378420Y-74570720D01*
X155229537Y-74504433D01*
X155229533Y-74504432D01*
X155222288Y-74501206D01*
X155102262Y-74475694D01*
X155043246Y-74463149D01*
X155043244Y-74463149D01*
X155035487Y-74461500D01*
X154844513Y-74461500D01*
X154836756Y-74463149D01*
X154836754Y-74463149D01*
X154777738Y-74475694D01*
X154657712Y-74501206D01*
X154650467Y-74504432D01*
X154650463Y-74504433D01*
X154501580Y-74570720D01*
X154424174Y-74582980D01*
X154378420Y-74570720D01*
X154229537Y-74504433D01*
X154229533Y-74504432D01*
X154222288Y-74501206D01*
X154102262Y-74475694D01*
X154043246Y-74463149D01*
X154043244Y-74463149D01*
X154035487Y-74461500D01*
X153844513Y-74461500D01*
X153836756Y-74463149D01*
X153836754Y-74463149D01*
X153777738Y-74475694D01*
X153657712Y-74501206D01*
X153650467Y-74504432D01*
X153650463Y-74504433D01*
X153501580Y-74570720D01*
X153424174Y-74582980D01*
X153378420Y-74570720D01*
X153229537Y-74504433D01*
X153229533Y-74504432D01*
X153222288Y-74501206D01*
X153102262Y-74475694D01*
X153043246Y-74463149D01*
X153043244Y-74463149D01*
X153035487Y-74461500D01*
X152844513Y-74461500D01*
X152836756Y-74463149D01*
X152836754Y-74463149D01*
X152777738Y-74475694D01*
X152657712Y-74501206D01*
X152650467Y-74504432D01*
X152650463Y-74504433D01*
X152583078Y-74534435D01*
X152492888Y-74574590D01*
X152415483Y-74586850D01*
X152369734Y-74574591D01*
X152272288Y-74531206D01*
X152146332Y-74504433D01*
X152093246Y-74493149D01*
X152093244Y-74493149D01*
X152085487Y-74491500D01*
X151894513Y-74491500D01*
X151886756Y-74493149D01*
X151886754Y-74493149D01*
X151848850Y-74501206D01*
X151707712Y-74531206D01*
X151700467Y-74534432D01*
X151700463Y-74534433D01*
X151540497Y-74605654D01*
X151540493Y-74605656D01*
X151533248Y-74608882D01*
X151526828Y-74613546D01*
X151526827Y-74613547D01*
X151455998Y-74665008D01*
X151378747Y-74721134D01*
X151250960Y-74863056D01*
X151155473Y-75028444D01*
X151096458Y-75210072D01*
X151095629Y-75217961D01*
X151095628Y-75217965D01*
X151088118Y-75289425D01*
X151060033Y-75362590D01*
X150999128Y-75411911D01*
X150937547Y-75425000D01*
X145962181Y-75425000D01*
X145886481Y-75404716D01*
X145849673Y-75374910D01*
X145801253Y-75321134D01*
X145646752Y-75208882D01*
X145639507Y-75205656D01*
X145639503Y-75205654D01*
X145479537Y-75134433D01*
X145479533Y-75134432D01*
X145472288Y-75131206D01*
X145352262Y-75105694D01*
X145293246Y-75093149D01*
X145293244Y-75093149D01*
X145285487Y-75091500D01*
X145266484Y-75091500D01*
X145190784Y-75071216D01*
X145184523Y-75067150D01*
X145180133Y-75063028D01*
X145163087Y-75053657D01*
X145143237Y-75040617D01*
X145127868Y-75028696D01*
X145119133Y-75024916D01*
X145119126Y-75024912D01*
X145086567Y-75010823D01*
X145073757Y-75004548D01*
X145034337Y-74982876D01*
X145015496Y-74978038D01*
X144993031Y-74970346D01*
X144975176Y-74962620D01*
X144965770Y-74961130D01*
X144965769Y-74961130D01*
X144930735Y-74955581D01*
X144916771Y-74952689D01*
X144882414Y-74943868D01*
X144882408Y-74943867D01*
X144873188Y-74941500D01*
X144853739Y-74941500D01*
X144830056Y-74939636D01*
X144824084Y-74938690D01*
X144810848Y-74936594D01*
X144801369Y-74937490D01*
X144801367Y-74937490D01*
X144766056Y-74940828D01*
X144751808Y-74941500D01*
X137055272Y-74941500D01*
X136979572Y-74921216D01*
X136924156Y-74865800D01*
X136903872Y-74790100D01*
X136924156Y-74714400D01*
X136948216Y-74683044D01*
X137722291Y-73908969D01*
X156756649Y-73908969D01*
X156758403Y-73912008D01*
X156761825Y-73914460D01*
X156852434Y-73959143D01*
X156861578Y-73962931D01*
X157131238Y-74054468D01*
X157140781Y-74057025D01*
X157420085Y-74112583D01*
X157429896Y-74113874D01*
X157714057Y-74132499D01*
X157723943Y-74132499D01*
X158008104Y-74113874D01*
X158017915Y-74112583D01*
X158297219Y-74057025D01*
X158306762Y-74054468D01*
X158576422Y-73962931D01*
X158585566Y-73959143D01*
X158669431Y-73917786D01*
X158681668Y-73907054D01*
X158680983Y-73903613D01*
X158678531Y-73900191D01*
X157733096Y-72954756D01*
X157719000Y-72946618D01*
X157704904Y-72954756D01*
X156764787Y-73894873D01*
X156756649Y-73908969D01*
X137722291Y-73908969D01*
X137908272Y-73722988D01*
X137916173Y-73715799D01*
X137923080Y-73711416D01*
X137971312Y-73660054D01*
X137974622Y-73656638D01*
X137994927Y-73636333D01*
X137997843Y-73632574D01*
X138000812Y-73629206D01*
X138006166Y-73622938D01*
X138036972Y-73590133D01*
X138046343Y-73573087D01*
X138059383Y-73553237D01*
X138071304Y-73537868D01*
X138075084Y-73529133D01*
X138075088Y-73529126D01*
X138089177Y-73496567D01*
X138095452Y-73483757D01*
X138117124Y-73444337D01*
X138121962Y-73425496D01*
X138129655Y-73403027D01*
X138133598Y-73393916D01*
X138137380Y-73385176D01*
X138144419Y-73340735D01*
X138147311Y-73326771D01*
X138156132Y-73292414D01*
X138156133Y-73292408D01*
X138158500Y-73283188D01*
X138158500Y-73263739D01*
X138160364Y-73240056D01*
X138161916Y-73230255D01*
X138163406Y-73220848D01*
X138159172Y-73176056D01*
X138158500Y-73161808D01*
X138158500Y-71884943D01*
X155466501Y-71884943D01*
X155485126Y-72169104D01*
X155486417Y-72178915D01*
X155541975Y-72458219D01*
X155544532Y-72467762D01*
X155636069Y-72737422D01*
X155639857Y-72746566D01*
X155681214Y-72830431D01*
X155691946Y-72842668D01*
X155695387Y-72841983D01*
X155698809Y-72839531D01*
X156644244Y-71894096D01*
X156652382Y-71880000D01*
X158785618Y-71880000D01*
X158793756Y-71894096D01*
X159733873Y-72834213D01*
X159747969Y-72842351D01*
X159751008Y-72840597D01*
X159753460Y-72837175D01*
X159798143Y-72746566D01*
X159801931Y-72737422D01*
X159893468Y-72467762D01*
X159896025Y-72458219D01*
X159951583Y-72178915D01*
X159952874Y-72169104D01*
X159971499Y-71884943D01*
X159971499Y-71875057D01*
X159952874Y-71590896D01*
X159951583Y-71581085D01*
X159896025Y-71301781D01*
X159893468Y-71292238D01*
X159801931Y-71022578D01*
X159798143Y-71013434D01*
X159756786Y-70929569D01*
X159746054Y-70917332D01*
X159742613Y-70918017D01*
X159739191Y-70920469D01*
X158793756Y-71865904D01*
X158785618Y-71880000D01*
X156652382Y-71880000D01*
X156644244Y-71865904D01*
X155704127Y-70925787D01*
X155690031Y-70917649D01*
X155686992Y-70919403D01*
X155684540Y-70922825D01*
X155639857Y-71013434D01*
X155636069Y-71022578D01*
X155544532Y-71292238D01*
X155541975Y-71301781D01*
X155486417Y-71581085D01*
X155485126Y-71590896D01*
X155466501Y-71875057D01*
X155466501Y-71884943D01*
X138158500Y-71884943D01*
X138158500Y-69852946D01*
X156756332Y-69852946D01*
X156757017Y-69856387D01*
X156759469Y-69859809D01*
X157704904Y-70805244D01*
X157719000Y-70813382D01*
X157733096Y-70805244D01*
X158673213Y-69865127D01*
X158681351Y-69851031D01*
X158679597Y-69847992D01*
X158676175Y-69845540D01*
X158585566Y-69800857D01*
X158576422Y-69797069D01*
X158306762Y-69705532D01*
X158297219Y-69702975D01*
X158017915Y-69647417D01*
X158008104Y-69646126D01*
X157723943Y-69627501D01*
X157714057Y-69627501D01*
X157429896Y-69646126D01*
X157420085Y-69647417D01*
X157140781Y-69702975D01*
X157131238Y-69705532D01*
X156861578Y-69797069D01*
X156852434Y-69800857D01*
X156768569Y-69842214D01*
X156756332Y-69852946D01*
X138158500Y-69852946D01*
X138158500Y-68809900D01*
X138178784Y-68734200D01*
X138234200Y-68678784D01*
X138309900Y-68658500D01*
X145073705Y-68658500D01*
X145149405Y-68678784D01*
X145155160Y-68682521D01*
X145159367Y-68686472D01*
X145176413Y-68695843D01*
X145196263Y-68708883D01*
X145211632Y-68720804D01*
X145220367Y-68724584D01*
X145220374Y-68724588D01*
X145252933Y-68738677D01*
X145265741Y-68744951D01*
X145305163Y-68766624D01*
X145324004Y-68771462D01*
X145346469Y-68779154D01*
X145364324Y-68786880D01*
X145373730Y-68788370D01*
X145373731Y-68788370D01*
X145408765Y-68793919D01*
X145422729Y-68796811D01*
X145457086Y-68805632D01*
X145457092Y-68805633D01*
X145466312Y-68808000D01*
X145485761Y-68808000D01*
X145509444Y-68809864D01*
X145528651Y-68812906D01*
X145528088Y-68816462D01*
X145585465Y-68833756D01*
X145594729Y-68839978D01*
X145733248Y-68940618D01*
X145740493Y-68943844D01*
X145740497Y-68943846D01*
X145900463Y-69015067D01*
X145900467Y-69015068D01*
X145907712Y-69018294D01*
X146027738Y-69043806D01*
X146086754Y-69056351D01*
X146086756Y-69056351D01*
X146094513Y-69058000D01*
X146285487Y-69058000D01*
X146293244Y-69056351D01*
X146293246Y-69056351D01*
X146352262Y-69043806D01*
X146472288Y-69018294D01*
X146479533Y-69015068D01*
X146479537Y-69015067D01*
X146639503Y-68943846D01*
X146639507Y-68943844D01*
X146646752Y-68940618D01*
X146801253Y-68828366D01*
X146876359Y-68744952D01*
X146923729Y-68692343D01*
X146923731Y-68692340D01*
X146929040Y-68686444D01*
X147024527Y-68521056D01*
X147083542Y-68339428D01*
X147089701Y-68280834D01*
X147102675Y-68157388D01*
X147103504Y-68149500D01*
X147095697Y-68075224D01*
X147107957Y-67997821D01*
X147157277Y-67936915D01*
X147230442Y-67908829D01*
X147246268Y-67908000D01*
X159138710Y-67908000D01*
X159162003Y-67909803D01*
G37*
G04 #@! TD.AperFunction*
G04 #@! TA.AperFunction,Conductor*
G36*
X144295223Y-76305284D02*
G01*
X144350639Y-76360700D01*
X144354245Y-76367777D01*
X144355473Y-76371556D01*
X144359438Y-76378423D01*
X144359439Y-76378426D01*
X144446991Y-76530070D01*
X144450960Y-76536944D01*
X144578747Y-76678866D01*
X144733248Y-76791118D01*
X144740493Y-76794344D01*
X144740497Y-76794346D01*
X144900463Y-76865567D01*
X144900467Y-76865568D01*
X144907712Y-76868794D01*
X145027738Y-76894306D01*
X145086754Y-76906851D01*
X145086756Y-76906851D01*
X145094513Y-76908500D01*
X145285487Y-76908500D01*
X145293244Y-76906851D01*
X145293246Y-76906851D01*
X145352262Y-76894306D01*
X145472288Y-76868794D01*
X145479533Y-76865568D01*
X145479537Y-76865567D01*
X145639503Y-76794346D01*
X145639507Y-76794344D01*
X145646752Y-76791118D01*
X145801253Y-76678866D01*
X145929040Y-76536944D01*
X145933009Y-76530070D01*
X146020561Y-76378426D01*
X146020562Y-76378423D01*
X146024527Y-76371556D01*
X146024718Y-76371666D01*
X146071492Y-76313911D01*
X146144658Y-76285829D01*
X146160477Y-76285000D01*
X150928087Y-76285000D01*
X151003787Y-76305284D01*
X151059203Y-76360700D01*
X151078658Y-76420574D01*
X151096458Y-76589928D01*
X151155473Y-76771556D01*
X151159443Y-76778432D01*
X151212566Y-76870443D01*
X151250960Y-76936944D01*
X151378747Y-77078866D01*
X151385168Y-77083531D01*
X151521501Y-77182583D01*
X151533248Y-77191118D01*
X151540493Y-77194344D01*
X151540497Y-77194346D01*
X151700463Y-77265567D01*
X151700467Y-77265568D01*
X151707712Y-77268794D01*
X151827738Y-77294306D01*
X151886754Y-77306851D01*
X151886756Y-77306851D01*
X151894513Y-77308500D01*
X152085487Y-77308500D01*
X152093244Y-77306851D01*
X152093246Y-77306851D01*
X152152262Y-77294306D01*
X152272288Y-77268794D01*
X152279533Y-77265568D01*
X152279537Y-77265567D01*
X152359957Y-77229761D01*
X152437112Y-77195410D01*
X152514517Y-77183150D01*
X152560266Y-77195409D01*
X152657712Y-77238794D01*
X152665470Y-77240443D01*
X152836754Y-77276851D01*
X152836756Y-77276851D01*
X152844513Y-77278500D01*
X153035487Y-77278500D01*
X153043244Y-77276851D01*
X153043246Y-77276851D01*
X153104574Y-77263815D01*
X153222288Y-77238794D01*
X153229533Y-77235568D01*
X153229537Y-77235567D01*
X153378420Y-77169280D01*
X153455826Y-77157020D01*
X153501580Y-77169280D01*
X153650463Y-77235567D01*
X153650467Y-77235568D01*
X153657712Y-77238794D01*
X153775426Y-77263815D01*
X153836754Y-77276851D01*
X153836756Y-77276851D01*
X153844513Y-77278500D01*
X154035487Y-77278500D01*
X154043244Y-77276851D01*
X154043246Y-77276851D01*
X154104574Y-77263815D01*
X154222288Y-77238794D01*
X154229533Y-77235568D01*
X154229537Y-77235567D01*
X154378420Y-77169280D01*
X154455826Y-77157020D01*
X154501580Y-77169280D01*
X154650463Y-77235567D01*
X154650467Y-77235568D01*
X154657712Y-77238794D01*
X154775426Y-77263815D01*
X154836754Y-77276851D01*
X154836756Y-77276851D01*
X154844513Y-77278500D01*
X155035487Y-77278500D01*
X155043244Y-77276851D01*
X155043246Y-77276851D01*
X155104574Y-77263815D01*
X155222288Y-77238794D01*
X155229533Y-77235568D01*
X155229537Y-77235567D01*
X155378420Y-77169280D01*
X155455826Y-77157020D01*
X155501580Y-77169280D01*
X155650463Y-77235567D01*
X155650467Y-77235568D01*
X155657712Y-77238794D01*
X155775426Y-77263815D01*
X155836754Y-77276851D01*
X155836756Y-77276851D01*
X155844513Y-77278500D01*
X156035487Y-77278500D01*
X156043244Y-77276851D01*
X156043246Y-77276851D01*
X156104574Y-77263815D01*
X156222288Y-77238794D01*
X156229533Y-77235568D01*
X156229537Y-77235567D01*
X156378420Y-77169280D01*
X156455826Y-77157020D01*
X156501580Y-77169280D01*
X156650463Y-77235567D01*
X156650467Y-77235568D01*
X156657712Y-77238794D01*
X156775426Y-77263815D01*
X156836754Y-77276851D01*
X156836756Y-77276851D01*
X156844513Y-77278500D01*
X157035487Y-77278500D01*
X157043244Y-77276851D01*
X157043246Y-77276851D01*
X157214530Y-77240443D01*
X157222288Y-77238794D01*
X157319732Y-77195410D01*
X157397135Y-77183150D01*
X157442887Y-77195409D01*
X157533083Y-77235567D01*
X157562948Y-77248864D01*
X157623853Y-77298185D01*
X157651939Y-77371350D01*
X157639679Y-77448755D01*
X157590358Y-77509660D01*
X157524820Y-77535806D01*
X157524948Y-77536450D01*
X157521474Y-77537141D01*
X157521123Y-77537281D01*
X157520081Y-77537418D01*
X157240781Y-77592975D01*
X157231238Y-77595532D01*
X156961578Y-77687069D01*
X156952434Y-77690857D01*
X156868569Y-77732214D01*
X156856332Y-77742946D01*
X156857017Y-77746387D01*
X156859469Y-77749809D01*
X157804904Y-78695244D01*
X157819000Y-78703382D01*
X157833096Y-78695244D01*
X158773213Y-77755127D01*
X158781351Y-77741031D01*
X158779597Y-77737992D01*
X158776175Y-77735540D01*
X158685566Y-77690857D01*
X158676422Y-77687069D01*
X158406762Y-77595532D01*
X158397219Y-77592975D01*
X158205867Y-77554912D01*
X158135579Y-77520249D01*
X158092039Y-77455087D01*
X158086913Y-77376884D01*
X158121576Y-77306596D01*
X158173825Y-77268110D01*
X158328421Y-77199280D01*
X158405826Y-77187020D01*
X158451580Y-77199280D01*
X158600463Y-77265567D01*
X158600467Y-77265568D01*
X158607712Y-77268794D01*
X158727738Y-77294306D01*
X158786754Y-77306851D01*
X158786756Y-77306851D01*
X158794513Y-77308500D01*
X158985487Y-77308500D01*
X158993244Y-77306851D01*
X158993246Y-77306851D01*
X159052262Y-77294306D01*
X159172288Y-77268794D01*
X159179533Y-77265568D01*
X159179537Y-77265567D01*
X159328420Y-77199280D01*
X159405826Y-77187020D01*
X159451580Y-77199280D01*
X159600463Y-77265567D01*
X159600467Y-77265568D01*
X159607712Y-77268794D01*
X159727738Y-77294306D01*
X159786754Y-77306851D01*
X159786756Y-77306851D01*
X159794513Y-77308500D01*
X159985487Y-77308500D01*
X159993244Y-77306851D01*
X159993246Y-77306851D01*
X160052262Y-77294306D01*
X160172288Y-77268794D01*
X160179539Y-77265566D01*
X160179541Y-77265565D01*
X160219021Y-77247988D01*
X160296427Y-77235729D01*
X160369592Y-77263815D01*
X160418911Y-77324720D01*
X160432000Y-77386299D01*
X160432000Y-82321833D01*
X160411716Y-82397533D01*
X160356300Y-82452949D01*
X160280600Y-82473233D01*
X160233814Y-82465823D01*
X160229537Y-82464433D01*
X160222288Y-82461206D01*
X160081150Y-82431206D01*
X160043246Y-82423149D01*
X160043244Y-82423149D01*
X160035487Y-82421500D01*
X159844513Y-82421500D01*
X159836756Y-82423149D01*
X159836754Y-82423149D01*
X159798850Y-82431206D01*
X159657712Y-82461206D01*
X159650467Y-82464432D01*
X159650463Y-82464433D01*
X159501580Y-82530720D01*
X159424174Y-82542980D01*
X159378420Y-82530720D01*
X159229537Y-82464433D01*
X159229533Y-82464432D01*
X159222288Y-82461206D01*
X159081150Y-82431206D01*
X159043246Y-82423149D01*
X159043244Y-82423149D01*
X159035487Y-82421500D01*
X158844513Y-82421500D01*
X158836756Y-82423149D01*
X158836754Y-82423149D01*
X158798850Y-82431206D01*
X158657712Y-82461206D01*
X158650467Y-82464432D01*
X158650463Y-82464433D01*
X158501580Y-82530720D01*
X158424174Y-82542980D01*
X158378420Y-82530720D01*
X158229537Y-82464433D01*
X158229533Y-82464432D01*
X158222288Y-82461206D01*
X158081150Y-82431206D01*
X158043246Y-82423149D01*
X158043244Y-82423149D01*
X158035487Y-82421500D01*
X157844513Y-82421500D01*
X157836756Y-82423149D01*
X157836754Y-82423149D01*
X157783668Y-82434433D01*
X157657712Y-82461206D01*
X157560268Y-82504590D01*
X157482865Y-82516850D01*
X157437113Y-82504591D01*
X157359957Y-82470239D01*
X157279537Y-82434433D01*
X157279533Y-82434432D01*
X157272288Y-82431206D01*
X157152262Y-82405694D01*
X157093246Y-82393149D01*
X157093244Y-82393149D01*
X157085487Y-82391500D01*
X156894513Y-82391500D01*
X156886756Y-82393149D01*
X156886754Y-82393149D01*
X156827738Y-82405694D01*
X156707712Y-82431206D01*
X156700467Y-82434432D01*
X156700463Y-82434433D01*
X156551580Y-82500720D01*
X156474174Y-82512980D01*
X156428420Y-82500720D01*
X156279537Y-82434433D01*
X156279533Y-82434432D01*
X156272288Y-82431206D01*
X156152262Y-82405694D01*
X156093246Y-82393149D01*
X156093244Y-82393149D01*
X156085487Y-82391500D01*
X155894513Y-82391500D01*
X155886756Y-82393149D01*
X155886754Y-82393149D01*
X155827738Y-82405694D01*
X155707712Y-82431206D01*
X155700467Y-82434432D01*
X155700463Y-82434433D01*
X155551580Y-82500720D01*
X155474174Y-82512980D01*
X155428420Y-82500720D01*
X155279537Y-82434433D01*
X155279533Y-82434432D01*
X155272288Y-82431206D01*
X155152262Y-82405694D01*
X155093246Y-82393149D01*
X155093244Y-82393149D01*
X155085487Y-82391500D01*
X154894513Y-82391500D01*
X154886756Y-82393149D01*
X154886754Y-82393149D01*
X154827738Y-82405694D01*
X154707712Y-82431206D01*
X154700467Y-82434432D01*
X154700463Y-82434433D01*
X154551580Y-82500720D01*
X154474174Y-82512980D01*
X154428420Y-82500720D01*
X154279537Y-82434433D01*
X154279533Y-82434432D01*
X154272288Y-82431206D01*
X154152262Y-82405694D01*
X154093246Y-82393149D01*
X154093244Y-82393149D01*
X154085487Y-82391500D01*
X153894513Y-82391500D01*
X153886756Y-82393149D01*
X153886754Y-82393149D01*
X153827738Y-82405694D01*
X153707712Y-82431206D01*
X153700467Y-82434432D01*
X153700463Y-82434433D01*
X153551580Y-82500720D01*
X153474174Y-82512980D01*
X153428420Y-82500720D01*
X153279537Y-82434433D01*
X153279533Y-82434432D01*
X153272288Y-82431206D01*
X153152262Y-82405694D01*
X153093246Y-82393149D01*
X153093244Y-82393149D01*
X153085487Y-82391500D01*
X152894513Y-82391500D01*
X152886756Y-82393149D01*
X152886754Y-82393149D01*
X152827738Y-82405694D01*
X152707712Y-82431206D01*
X152700467Y-82434432D01*
X152700463Y-82434433D01*
X152620043Y-82470239D01*
X152542888Y-82504590D01*
X152465483Y-82516850D01*
X152419734Y-82504591D01*
X152322288Y-82461206D01*
X152196332Y-82434433D01*
X152143246Y-82423149D01*
X152143244Y-82423149D01*
X152135487Y-82421500D01*
X151944513Y-82421500D01*
X151936756Y-82423149D01*
X151936754Y-82423149D01*
X151898850Y-82431206D01*
X151757712Y-82461206D01*
X151750467Y-82464432D01*
X151750463Y-82464433D01*
X151590497Y-82535654D01*
X151590493Y-82535656D01*
X151583248Y-82538882D01*
X151576828Y-82543546D01*
X151576827Y-82543547D01*
X151505997Y-82595008D01*
X151428747Y-82651134D01*
X151300960Y-82793056D01*
X151205473Y-82958444D01*
X151146458Y-83140072D01*
X151145629Y-83147961D01*
X151145628Y-83147965D01*
X151129152Y-83304728D01*
X151126496Y-83330000D01*
X151125634Y-83329909D01*
X151107041Y-83399300D01*
X151051625Y-83454716D01*
X150975925Y-83475000D01*
X146034259Y-83475000D01*
X145958559Y-83454716D01*
X145905864Y-83403829D01*
X145842112Y-83301803D01*
X145842112Y-83301802D01*
X145837626Y-83294624D01*
X145818683Y-83275548D01*
X145715778Y-83171922D01*
X145715774Y-83171919D01*
X145709815Y-83165918D01*
X145556666Y-83068727D01*
X145548696Y-83065889D01*
X145548694Y-83065888D01*
X145393760Y-83010719D01*
X145385790Y-83007881D01*
X145377389Y-83006879D01*
X145377388Y-83006879D01*
X145323834Y-83000493D01*
X145205680Y-82986404D01*
X145197269Y-82987288D01*
X145197267Y-82987288D01*
X145140132Y-82993293D01*
X145025288Y-83005364D01*
X145017278Y-83008091D01*
X145017277Y-83008091D01*
X144861592Y-83061090D01*
X144861591Y-83061091D01*
X144853579Y-83063818D01*
X144846369Y-83068254D01*
X144846364Y-83068256D01*
X144763798Y-83119051D01*
X144684467Y-83141500D01*
X139081122Y-83141500D01*
X139070446Y-83140996D01*
X139062463Y-83139212D01*
X139052944Y-83139511D01*
X139052943Y-83139511D01*
X138992045Y-83141425D01*
X138987289Y-83141500D01*
X138958568Y-83141500D01*
X138953835Y-83142098D01*
X138949280Y-83142385D01*
X138941134Y-83143025D01*
X138918299Y-83143743D01*
X138896169Y-83144438D01*
X138877496Y-83149863D01*
X138854240Y-83154679D01*
X138834936Y-83157118D01*
X138826081Y-83160624D01*
X138826077Y-83160625D01*
X138793099Y-83173682D01*
X138779604Y-83178302D01*
X138745554Y-83188195D01*
X138745550Y-83188197D01*
X138736400Y-83190855D01*
X138728199Y-83195705D01*
X138719663Y-83200753D01*
X138698334Y-83211202D01*
X138689101Y-83214858D01*
X138689100Y-83214859D01*
X138680244Y-83218365D01*
X138672539Y-83223963D01*
X138643835Y-83244818D01*
X138631914Y-83252648D01*
X138593193Y-83275548D01*
X138579443Y-83289298D01*
X138561380Y-83304725D01*
X138545643Y-83316159D01*
X138539574Y-83323495D01*
X138539573Y-83323496D01*
X138516959Y-83350832D01*
X138507359Y-83361382D01*
X138438085Y-83430656D01*
X138370214Y-83469841D01*
X138331029Y-83475000D01*
X136891300Y-83475000D01*
X136815600Y-83454716D01*
X136760184Y-83399300D01*
X136739900Y-83323600D01*
X136739900Y-81854072D01*
X136754665Y-81798969D01*
X156856649Y-81798969D01*
X156858403Y-81802008D01*
X156861825Y-81804460D01*
X156952434Y-81849143D01*
X156961578Y-81852931D01*
X157231238Y-81944468D01*
X157240781Y-81947025D01*
X157520085Y-82002583D01*
X157529896Y-82003874D01*
X157814057Y-82022499D01*
X157823943Y-82022499D01*
X158108104Y-82003874D01*
X158117915Y-82002583D01*
X158397219Y-81947025D01*
X158406762Y-81944468D01*
X158676422Y-81852931D01*
X158685566Y-81849143D01*
X158769431Y-81807786D01*
X158781668Y-81797054D01*
X158780983Y-81793613D01*
X158778531Y-81790191D01*
X157833096Y-80844756D01*
X157819000Y-80836618D01*
X157804904Y-80844756D01*
X156864787Y-81784873D01*
X156856649Y-81798969D01*
X136754665Y-81798969D01*
X136760184Y-81778372D01*
X136784244Y-81747016D01*
X137498272Y-81032988D01*
X137506173Y-81025799D01*
X137513080Y-81021416D01*
X137561312Y-80970054D01*
X137564622Y-80966638D01*
X137584927Y-80946333D01*
X137587843Y-80942574D01*
X137590812Y-80939206D01*
X137596166Y-80932938D01*
X137626972Y-80900133D01*
X137636343Y-80883087D01*
X137649383Y-80863237D01*
X137661304Y-80847868D01*
X137665084Y-80839133D01*
X137665088Y-80839126D01*
X137679177Y-80806567D01*
X137685452Y-80793757D01*
X137707124Y-80754337D01*
X137711962Y-80735496D01*
X137719655Y-80713027D01*
X137723598Y-80703916D01*
X137727380Y-80695176D01*
X137734419Y-80650735D01*
X137737311Y-80636771D01*
X137746132Y-80602414D01*
X137746133Y-80602408D01*
X137748500Y-80593188D01*
X137748500Y-80573739D01*
X137750364Y-80550056D01*
X137751916Y-80540255D01*
X137753406Y-80530848D01*
X137749172Y-80486056D01*
X137748500Y-80471808D01*
X137748500Y-79774943D01*
X155566501Y-79774943D01*
X155585126Y-80059104D01*
X155586417Y-80068915D01*
X155641975Y-80348219D01*
X155644532Y-80357762D01*
X155736069Y-80627422D01*
X155739857Y-80636566D01*
X155781214Y-80720431D01*
X155791946Y-80732668D01*
X155795387Y-80731983D01*
X155798809Y-80729531D01*
X156744244Y-79784096D01*
X156752382Y-79770000D01*
X158885618Y-79770000D01*
X158893756Y-79784096D01*
X159833873Y-80724213D01*
X159847969Y-80732351D01*
X159851008Y-80730597D01*
X159853460Y-80727175D01*
X159898143Y-80636566D01*
X159901931Y-80627422D01*
X159993468Y-80357762D01*
X159996025Y-80348219D01*
X160051583Y-80068915D01*
X160052874Y-80059104D01*
X160071499Y-79774943D01*
X160071499Y-79765057D01*
X160052874Y-79480896D01*
X160051583Y-79471085D01*
X159996025Y-79191781D01*
X159993468Y-79182238D01*
X159901931Y-78912578D01*
X159898143Y-78903434D01*
X159856786Y-78819569D01*
X159846054Y-78807332D01*
X159842613Y-78808017D01*
X159839191Y-78810469D01*
X158893756Y-79755904D01*
X158885618Y-79770000D01*
X156752382Y-79770000D01*
X156744244Y-79755904D01*
X155804127Y-78815787D01*
X155790031Y-78807649D01*
X155786992Y-78809403D01*
X155784540Y-78812825D01*
X155739857Y-78903434D01*
X155736069Y-78912578D01*
X155644532Y-79182238D01*
X155641975Y-79191781D01*
X155586417Y-79471085D01*
X155585126Y-79480896D01*
X155566501Y-79765057D01*
X155566501Y-79774943D01*
X137748500Y-79774943D01*
X137748500Y-76752532D01*
X137755910Y-76705747D01*
X137791091Y-76597471D01*
X137793542Y-76589928D01*
X137794371Y-76582042D01*
X137811342Y-76420574D01*
X137839428Y-76347409D01*
X137900333Y-76298089D01*
X137961913Y-76285000D01*
X144219523Y-76285000D01*
X144295223Y-76305284D01*
G37*
G04 #@! TD.AperFunction*
G04 #@! TA.AperFunction,Conductor*
G36*
X150908748Y-106485284D02*
G01*
X150964164Y-106540700D01*
X150984448Y-106616400D01*
X150983619Y-106632225D01*
X150976496Y-106700000D01*
X150996458Y-106889928D01*
X151055473Y-107071556D01*
X151150960Y-107236944D01*
X151278747Y-107378866D01*
X151285168Y-107383531D01*
X151390000Y-107459696D01*
X151433248Y-107491118D01*
X151440493Y-107494344D01*
X151440497Y-107494346D01*
X151600463Y-107565567D01*
X151600467Y-107565568D01*
X151607712Y-107568794D01*
X151720519Y-107592772D01*
X151786754Y-107606851D01*
X151786756Y-107606851D01*
X151794513Y-107608500D01*
X151985487Y-107608500D01*
X151993244Y-107606851D01*
X151993246Y-107606851D01*
X152059481Y-107592772D01*
X152172288Y-107568794D01*
X152179533Y-107565568D01*
X152179537Y-107565567D01*
X152283474Y-107519291D01*
X152337112Y-107495410D01*
X152414517Y-107483150D01*
X152460266Y-107495409D01*
X152557712Y-107538794D01*
X152565470Y-107540443D01*
X152736754Y-107576851D01*
X152736756Y-107576851D01*
X152744513Y-107578500D01*
X152935487Y-107578500D01*
X152943244Y-107576851D01*
X152943246Y-107576851D01*
X153002262Y-107564306D01*
X153122288Y-107538794D01*
X153129533Y-107535568D01*
X153129537Y-107535567D01*
X153278420Y-107469280D01*
X153355826Y-107457020D01*
X153401580Y-107469280D01*
X153550463Y-107535567D01*
X153550467Y-107535568D01*
X153557712Y-107538794D01*
X153677738Y-107564306D01*
X153736754Y-107576851D01*
X153736756Y-107576851D01*
X153744513Y-107578500D01*
X153935487Y-107578500D01*
X153943244Y-107576851D01*
X153943246Y-107576851D01*
X154002262Y-107564306D01*
X154122288Y-107538794D01*
X154129533Y-107535568D01*
X154129537Y-107535567D01*
X154278420Y-107469280D01*
X154355826Y-107457020D01*
X154401580Y-107469280D01*
X154550463Y-107535567D01*
X154550467Y-107535568D01*
X154557712Y-107538794D01*
X154677738Y-107564306D01*
X154736754Y-107576851D01*
X154736756Y-107576851D01*
X154744513Y-107578500D01*
X154935487Y-107578500D01*
X154943244Y-107576851D01*
X154943246Y-107576851D01*
X155002262Y-107564306D01*
X155122288Y-107538794D01*
X155129533Y-107535568D01*
X155129537Y-107535567D01*
X155278420Y-107469280D01*
X155355826Y-107457020D01*
X155401580Y-107469280D01*
X155550463Y-107535567D01*
X155550467Y-107535568D01*
X155557712Y-107538794D01*
X155677738Y-107564306D01*
X155736754Y-107576851D01*
X155736756Y-107576851D01*
X155744513Y-107578500D01*
X155935487Y-107578500D01*
X155943244Y-107576851D01*
X155943246Y-107576851D01*
X156002262Y-107564306D01*
X156122288Y-107538794D01*
X156129533Y-107535568D01*
X156129537Y-107535567D01*
X156278420Y-107469280D01*
X156355826Y-107457020D01*
X156401580Y-107469280D01*
X156550463Y-107535567D01*
X156550467Y-107535568D01*
X156557712Y-107538794D01*
X156677738Y-107564306D01*
X156736754Y-107576851D01*
X156736756Y-107576851D01*
X156744513Y-107578500D01*
X156935487Y-107578500D01*
X156943244Y-107576851D01*
X156943246Y-107576851D01*
X157114530Y-107540443D01*
X157122288Y-107538794D01*
X157219732Y-107495410D01*
X157297135Y-107483150D01*
X157342887Y-107495409D01*
X157396526Y-107519291D01*
X157431277Y-107534763D01*
X157492182Y-107584083D01*
X157520268Y-107657249D01*
X157508008Y-107734654D01*
X157458688Y-107795559D01*
X157399234Y-107821565D01*
X157140781Y-107872975D01*
X157131238Y-107875532D01*
X156861578Y-107967069D01*
X156852434Y-107970857D01*
X156768569Y-108012214D01*
X156756332Y-108022946D01*
X156757017Y-108026387D01*
X156759469Y-108029809D01*
X157704904Y-108975244D01*
X157719000Y-108983382D01*
X157733096Y-108975244D01*
X158673213Y-108035127D01*
X158681351Y-108021031D01*
X158679597Y-108017992D01*
X158676175Y-108015540D01*
X158585566Y-107970857D01*
X158576422Y-107967069D01*
X158306762Y-107875532D01*
X158297219Y-107872975D01*
X158136916Y-107841088D01*
X158066628Y-107806425D01*
X158023088Y-107741263D01*
X158017962Y-107663060D01*
X158052625Y-107592772D01*
X158104874Y-107554286D01*
X158228421Y-107499280D01*
X158305826Y-107487020D01*
X158351580Y-107499280D01*
X158500463Y-107565567D01*
X158500467Y-107565568D01*
X158507712Y-107568794D01*
X158620519Y-107592772D01*
X158686754Y-107606851D01*
X158686756Y-107606851D01*
X158694513Y-107608500D01*
X158885487Y-107608500D01*
X158893244Y-107606851D01*
X158893246Y-107606851D01*
X158959481Y-107592772D01*
X159072288Y-107568794D01*
X159079533Y-107565568D01*
X159079537Y-107565567D01*
X159228420Y-107499280D01*
X159305826Y-107487020D01*
X159351580Y-107499280D01*
X159500463Y-107565567D01*
X159500467Y-107565568D01*
X159507712Y-107568794D01*
X159620519Y-107592772D01*
X159686754Y-107606851D01*
X159686756Y-107606851D01*
X159694513Y-107608500D01*
X159885487Y-107608500D01*
X159893244Y-107606851D01*
X159893246Y-107606851D01*
X159959481Y-107592772D01*
X160072288Y-107568794D01*
X160079533Y-107565568D01*
X160079537Y-107565567D01*
X160219020Y-107503465D01*
X160296426Y-107491205D01*
X160369591Y-107519291D01*
X160418911Y-107580196D01*
X160432000Y-107641776D01*
X160432000Y-112658224D01*
X160411716Y-112733924D01*
X160356300Y-112789340D01*
X160280600Y-112809624D01*
X160219020Y-112796535D01*
X160079537Y-112734433D01*
X160079533Y-112734432D01*
X160072288Y-112731206D01*
X159931150Y-112701206D01*
X159893246Y-112693149D01*
X159893244Y-112693149D01*
X159885487Y-112691500D01*
X159694513Y-112691500D01*
X159686756Y-112693149D01*
X159686754Y-112693149D01*
X159648850Y-112701206D01*
X159507712Y-112731206D01*
X159500467Y-112734432D01*
X159500463Y-112734433D01*
X159351580Y-112800720D01*
X159274174Y-112812980D01*
X159228420Y-112800720D01*
X159079537Y-112734433D01*
X159079533Y-112734432D01*
X159072288Y-112731206D01*
X158931150Y-112701206D01*
X158893246Y-112693149D01*
X158893244Y-112693149D01*
X158885487Y-112691500D01*
X158694513Y-112691500D01*
X158686756Y-112693149D01*
X158686754Y-112693149D01*
X158648850Y-112701206D01*
X158507712Y-112731206D01*
X158500467Y-112734432D01*
X158500463Y-112734433D01*
X158351580Y-112800720D01*
X158274174Y-112812980D01*
X158228420Y-112800720D01*
X158079537Y-112734433D01*
X158079533Y-112734432D01*
X158072288Y-112731206D01*
X157931150Y-112701206D01*
X157893246Y-112693149D01*
X157893244Y-112693149D01*
X157885487Y-112691500D01*
X157694513Y-112691500D01*
X157686756Y-112693149D01*
X157686754Y-112693149D01*
X157633668Y-112704433D01*
X157507712Y-112731206D01*
X157410268Y-112774590D01*
X157332865Y-112786850D01*
X157287113Y-112774591D01*
X157209957Y-112740239D01*
X157129537Y-112704433D01*
X157129533Y-112704432D01*
X157122288Y-112701206D01*
X157002262Y-112675694D01*
X156943246Y-112663149D01*
X156943244Y-112663149D01*
X156935487Y-112661500D01*
X156744513Y-112661500D01*
X156736756Y-112663149D01*
X156736754Y-112663149D01*
X156677738Y-112675694D01*
X156557712Y-112701206D01*
X156550467Y-112704432D01*
X156550463Y-112704433D01*
X156401580Y-112770720D01*
X156324174Y-112782980D01*
X156278420Y-112770720D01*
X156129537Y-112704433D01*
X156129533Y-112704432D01*
X156122288Y-112701206D01*
X156002262Y-112675694D01*
X155943246Y-112663149D01*
X155943244Y-112663149D01*
X155935487Y-112661500D01*
X155744513Y-112661500D01*
X155736756Y-112663149D01*
X155736754Y-112663149D01*
X155677738Y-112675694D01*
X155557712Y-112701206D01*
X155550467Y-112704432D01*
X155550463Y-112704433D01*
X155401580Y-112770720D01*
X155324174Y-112782980D01*
X155278420Y-112770720D01*
X155129537Y-112704433D01*
X155129533Y-112704432D01*
X155122288Y-112701206D01*
X155002262Y-112675694D01*
X154943246Y-112663149D01*
X154943244Y-112663149D01*
X154935487Y-112661500D01*
X154744513Y-112661500D01*
X154736756Y-112663149D01*
X154736754Y-112663149D01*
X154677738Y-112675694D01*
X154557712Y-112701206D01*
X154550467Y-112704432D01*
X154550463Y-112704433D01*
X154401580Y-112770720D01*
X154324174Y-112782980D01*
X154278420Y-112770720D01*
X154129537Y-112704433D01*
X154129533Y-112704432D01*
X154122288Y-112701206D01*
X154002262Y-112675694D01*
X153943246Y-112663149D01*
X153943244Y-112663149D01*
X153935487Y-112661500D01*
X153744513Y-112661500D01*
X153736756Y-112663149D01*
X153736754Y-112663149D01*
X153677738Y-112675694D01*
X153557712Y-112701206D01*
X153550467Y-112704432D01*
X153550463Y-112704433D01*
X153401580Y-112770720D01*
X153324174Y-112782980D01*
X153278420Y-112770720D01*
X153129537Y-112704433D01*
X153129533Y-112704432D01*
X153122288Y-112701206D01*
X153002262Y-112675694D01*
X152943246Y-112663149D01*
X152943244Y-112663149D01*
X152935487Y-112661500D01*
X152744513Y-112661500D01*
X152736756Y-112663149D01*
X152736754Y-112663149D01*
X152677738Y-112675694D01*
X152557712Y-112701206D01*
X152550467Y-112704432D01*
X152550463Y-112704433D01*
X152470043Y-112740239D01*
X152392888Y-112774590D01*
X152315483Y-112786850D01*
X152269734Y-112774591D01*
X152172288Y-112731206D01*
X152046332Y-112704433D01*
X151993246Y-112693149D01*
X151993244Y-112693149D01*
X151985487Y-112691500D01*
X151794513Y-112691500D01*
X151786756Y-112693149D01*
X151786754Y-112693149D01*
X151748850Y-112701206D01*
X151607712Y-112731206D01*
X151600467Y-112734432D01*
X151600463Y-112734433D01*
X151440497Y-112805654D01*
X151440493Y-112805656D01*
X151433248Y-112808882D01*
X151426828Y-112813546D01*
X151426827Y-112813547D01*
X151355997Y-112865008D01*
X151278747Y-112921134D01*
X151150960Y-113063056D01*
X151055473Y-113228444D01*
X150996458Y-113410072D01*
X150995629Y-113417961D01*
X150995628Y-113417965D01*
X150980581Y-113561130D01*
X150976496Y-113600000D01*
X150977325Y-113607888D01*
X150985721Y-113687775D01*
X150973460Y-113765181D01*
X150924140Y-113826086D01*
X150850975Y-113854171D01*
X150835150Y-113855000D01*
X144948972Y-113855000D01*
X144873272Y-113834716D01*
X144841916Y-113810656D01*
X144822993Y-113791733D01*
X144815801Y-113783829D01*
X144811416Y-113776920D01*
X144760053Y-113728687D01*
X144756637Y-113725377D01*
X144736333Y-113705073D01*
X144732574Y-113702157D01*
X144729206Y-113699188D01*
X144722938Y-113693834D01*
X144690133Y-113663028D01*
X144673087Y-113653657D01*
X144653237Y-113640617D01*
X144637868Y-113628696D01*
X144629133Y-113624916D01*
X144629126Y-113624912D01*
X144596567Y-113610823D01*
X144583757Y-113604548D01*
X144544337Y-113582876D01*
X144525496Y-113578038D01*
X144503031Y-113570346D01*
X144485176Y-113562620D01*
X144475770Y-113561130D01*
X144475769Y-113561130D01*
X144440735Y-113555581D01*
X144426771Y-113552689D01*
X144392414Y-113543868D01*
X144392408Y-113543867D01*
X144383188Y-113541500D01*
X144363739Y-113541500D01*
X144340056Y-113539636D01*
X144334084Y-113538690D01*
X144320848Y-113536594D01*
X144311369Y-113537490D01*
X144311367Y-113537490D01*
X144276056Y-113540828D01*
X144261808Y-113541500D01*
X137255272Y-113541500D01*
X137179572Y-113521216D01*
X137124156Y-113465800D01*
X137103872Y-113390100D01*
X137124156Y-113314400D01*
X137148216Y-113283044D01*
X137908272Y-112522988D01*
X137916173Y-112515799D01*
X137923080Y-112511416D01*
X137971312Y-112460054D01*
X137974622Y-112456638D01*
X137994927Y-112436333D01*
X137997843Y-112432574D01*
X138000812Y-112429206D01*
X138006166Y-112422938D01*
X138036972Y-112390133D01*
X138046343Y-112373087D01*
X138059383Y-112353237D01*
X138071304Y-112337868D01*
X138075084Y-112329133D01*
X138075088Y-112329126D01*
X138089177Y-112296567D01*
X138095452Y-112283757D01*
X138117124Y-112244337D01*
X138121962Y-112225496D01*
X138129655Y-112203027D01*
X138133598Y-112193916D01*
X138137380Y-112185176D01*
X138144419Y-112140735D01*
X138147311Y-112126771D01*
X138156132Y-112092414D01*
X138156133Y-112092408D01*
X138158500Y-112083188D01*
X138158500Y-112078969D01*
X156756649Y-112078969D01*
X156758403Y-112082008D01*
X156761825Y-112084460D01*
X156852434Y-112129143D01*
X156861578Y-112132931D01*
X157131238Y-112224468D01*
X157140781Y-112227025D01*
X157420085Y-112282583D01*
X157429896Y-112283874D01*
X157714057Y-112302499D01*
X157723943Y-112302499D01*
X158008104Y-112283874D01*
X158017915Y-112282583D01*
X158297219Y-112227025D01*
X158306762Y-112224468D01*
X158576422Y-112132931D01*
X158585566Y-112129143D01*
X158669431Y-112087786D01*
X158681668Y-112077054D01*
X158680983Y-112073613D01*
X158678531Y-112070191D01*
X157733096Y-111124756D01*
X157719000Y-111116618D01*
X157704904Y-111124756D01*
X156764787Y-112064873D01*
X156756649Y-112078969D01*
X138158500Y-112078969D01*
X138158500Y-112063739D01*
X138160364Y-112040056D01*
X138161916Y-112030255D01*
X138163406Y-112020848D01*
X138159172Y-111976056D01*
X138158500Y-111961808D01*
X138158500Y-110054943D01*
X155466501Y-110054943D01*
X155485126Y-110339104D01*
X155486417Y-110348915D01*
X155541975Y-110628219D01*
X155544532Y-110637762D01*
X155636069Y-110907422D01*
X155639857Y-110916566D01*
X155681214Y-111000431D01*
X155691946Y-111012668D01*
X155695387Y-111011983D01*
X155698809Y-111009531D01*
X156644244Y-110064096D01*
X156652382Y-110050000D01*
X158785618Y-110050000D01*
X158793756Y-110064096D01*
X159733873Y-111004213D01*
X159747969Y-111012351D01*
X159751008Y-111010597D01*
X159753460Y-111007175D01*
X159798143Y-110916566D01*
X159801931Y-110907422D01*
X159893468Y-110637762D01*
X159896025Y-110628219D01*
X159951583Y-110348915D01*
X159952874Y-110339104D01*
X159971499Y-110054943D01*
X159971499Y-110045057D01*
X159952874Y-109760896D01*
X159951583Y-109751085D01*
X159896025Y-109471781D01*
X159893468Y-109462238D01*
X159801931Y-109192578D01*
X159798143Y-109183434D01*
X159756786Y-109099569D01*
X159746054Y-109087332D01*
X159742613Y-109088017D01*
X159739191Y-109090469D01*
X158793756Y-110035904D01*
X158785618Y-110050000D01*
X156652382Y-110050000D01*
X156644244Y-110035904D01*
X155704127Y-109095787D01*
X155690031Y-109087649D01*
X155686992Y-109089403D01*
X155684540Y-109092825D01*
X155639857Y-109183434D01*
X155636069Y-109192578D01*
X155544532Y-109462238D01*
X155541975Y-109471781D01*
X155486417Y-109751085D01*
X155485126Y-109760896D01*
X155466501Y-110045057D01*
X155466501Y-110054943D01*
X138158500Y-110054943D01*
X138158500Y-107135472D01*
X138178784Y-107059772D01*
X138202844Y-107028416D01*
X138228416Y-107002844D01*
X138296287Y-106963659D01*
X138335472Y-106958500D01*
X144564735Y-106958500D01*
X144611078Y-106965840D01*
X144617712Y-106968794D01*
X144625470Y-106970443D01*
X144625473Y-106970444D01*
X144796754Y-107006851D01*
X144796756Y-107006851D01*
X144804513Y-107008500D01*
X144995487Y-107008500D01*
X145003244Y-107006851D01*
X145003246Y-107006851D01*
X145062262Y-106994306D01*
X145182288Y-106968794D01*
X145189533Y-106965568D01*
X145189537Y-106965567D01*
X145349503Y-106894346D01*
X145349507Y-106894344D01*
X145356752Y-106891118D01*
X145511253Y-106778866D01*
X145639040Y-106636944D01*
X145694607Y-106540699D01*
X145750024Y-106485283D01*
X145825723Y-106465000D01*
X150833048Y-106465000D01*
X150908748Y-106485284D01*
G37*
G04 #@! TD.AperFunction*
G04 #@! TA.AperFunction,Conductor*
G36*
X151051917Y-84180284D02*
G01*
X151107333Y-84235700D01*
X151127617Y-84311400D01*
X151127325Y-84316962D01*
X151127325Y-84322112D01*
X151126496Y-84330000D01*
X151127325Y-84337888D01*
X151142134Y-84478784D01*
X151146458Y-84519928D01*
X151205473Y-84701556D01*
X151300960Y-84866944D01*
X151428747Y-85008866D01*
X151435168Y-85013531D01*
X151540000Y-85089696D01*
X151583248Y-85121118D01*
X151590493Y-85124344D01*
X151590497Y-85124346D01*
X151750463Y-85195567D01*
X151750467Y-85195568D01*
X151757712Y-85198794D01*
X151877738Y-85224306D01*
X151936754Y-85236851D01*
X151936756Y-85236851D01*
X151944513Y-85238500D01*
X152135487Y-85238500D01*
X152143244Y-85236851D01*
X152143246Y-85236851D01*
X152202262Y-85224306D01*
X152322288Y-85198794D01*
X152329533Y-85195568D01*
X152329537Y-85195567D01*
X152461143Y-85136972D01*
X152487112Y-85125410D01*
X152564517Y-85113150D01*
X152610266Y-85125409D01*
X152707712Y-85168794D01*
X152715470Y-85170443D01*
X152886754Y-85206851D01*
X152886756Y-85206851D01*
X152894513Y-85208500D01*
X153085487Y-85208500D01*
X153093244Y-85206851D01*
X153093246Y-85206851D01*
X153172169Y-85190075D01*
X153272288Y-85168794D01*
X153279533Y-85165568D01*
X153279537Y-85165567D01*
X153428420Y-85099280D01*
X153505826Y-85087020D01*
X153551580Y-85099280D01*
X153700463Y-85165567D01*
X153700467Y-85165568D01*
X153707712Y-85168794D01*
X153807831Y-85190075D01*
X153886754Y-85206851D01*
X153886756Y-85206851D01*
X153894513Y-85208500D01*
X154085487Y-85208500D01*
X154093244Y-85206851D01*
X154093246Y-85206851D01*
X154172169Y-85190075D01*
X154272288Y-85168794D01*
X154279533Y-85165568D01*
X154279537Y-85165567D01*
X154428420Y-85099280D01*
X154505826Y-85087020D01*
X154551580Y-85099280D01*
X154700463Y-85165567D01*
X154700467Y-85165568D01*
X154707712Y-85168794D01*
X154807831Y-85190075D01*
X154886754Y-85206851D01*
X154886756Y-85206851D01*
X154894513Y-85208500D01*
X155085487Y-85208500D01*
X155093244Y-85206851D01*
X155093246Y-85206851D01*
X155172169Y-85190075D01*
X155272288Y-85168794D01*
X155279533Y-85165568D01*
X155279537Y-85165567D01*
X155428420Y-85099280D01*
X155505826Y-85087020D01*
X155551580Y-85099280D01*
X155700463Y-85165567D01*
X155700467Y-85165568D01*
X155707712Y-85168794D01*
X155807831Y-85190075D01*
X155886754Y-85206851D01*
X155886756Y-85206851D01*
X155894513Y-85208500D01*
X156085487Y-85208500D01*
X156093244Y-85206851D01*
X156093246Y-85206851D01*
X156172169Y-85190075D01*
X156272288Y-85168794D01*
X156279533Y-85165568D01*
X156279537Y-85165567D01*
X156428420Y-85099280D01*
X156505826Y-85087020D01*
X156551580Y-85099280D01*
X156700463Y-85165567D01*
X156700467Y-85165568D01*
X156707712Y-85168794D01*
X156843967Y-85197756D01*
X156913795Y-85233336D01*
X156937635Y-85270047D01*
X156937970Y-85269807D01*
X156959469Y-85299809D01*
X157904904Y-86245244D01*
X157919000Y-86253382D01*
X157933096Y-86245244D01*
X158887309Y-85291031D01*
X158889227Y-85292949D01*
X158923395Y-85258782D01*
X158999092Y-85238500D01*
X159035487Y-85238500D01*
X159043244Y-85236851D01*
X159043246Y-85236851D01*
X159102262Y-85224306D01*
X159222288Y-85198794D01*
X159229533Y-85195568D01*
X159229537Y-85195567D01*
X159378420Y-85129280D01*
X159455826Y-85117020D01*
X159501580Y-85129280D01*
X159650463Y-85195567D01*
X159650467Y-85195568D01*
X159657712Y-85198794D01*
X159777738Y-85224306D01*
X159836754Y-85236851D01*
X159836756Y-85236851D01*
X159844513Y-85238500D01*
X160035487Y-85238500D01*
X160043244Y-85236851D01*
X160043246Y-85236851D01*
X160102262Y-85224306D01*
X160222288Y-85198794D01*
X160229537Y-85195567D01*
X160233814Y-85194177D01*
X160312077Y-85190075D01*
X160381906Y-85225655D01*
X160424590Y-85291381D01*
X160432000Y-85338167D01*
X160432000Y-86893647D01*
X160411716Y-86969347D01*
X160356300Y-87024763D01*
X160280600Y-87045047D01*
X160204900Y-87024763D01*
X160149484Y-86969347D01*
X160132109Y-86923184D01*
X160096025Y-86741781D01*
X160093468Y-86732238D01*
X160001931Y-86462578D01*
X159998143Y-86453434D01*
X159956786Y-86369569D01*
X159946054Y-86357332D01*
X159942613Y-86358017D01*
X159939191Y-86360469D01*
X158993756Y-87305904D01*
X158985618Y-87320000D01*
X158993756Y-87334096D01*
X159933873Y-88274213D01*
X159947969Y-88282351D01*
X159951008Y-88280597D01*
X159953460Y-88277175D01*
X159998143Y-88186566D01*
X160001931Y-88177422D01*
X160093468Y-87907762D01*
X160096025Y-87898219D01*
X160132109Y-87716816D01*
X160166772Y-87646528D01*
X160231934Y-87602988D01*
X160310137Y-87597862D01*
X160380425Y-87632525D01*
X160423965Y-87697687D01*
X160432000Y-87746353D01*
X160432000Y-90598600D01*
X160411716Y-90674300D01*
X160356300Y-90729716D01*
X160280600Y-90750000D01*
X150804015Y-90750000D01*
X150728315Y-90729716D01*
X150713324Y-90719452D01*
X150709815Y-90715918D01*
X150556666Y-90618727D01*
X150548696Y-90615889D01*
X150548694Y-90615888D01*
X150393760Y-90560719D01*
X150385790Y-90557881D01*
X150377389Y-90556879D01*
X150377388Y-90556879D01*
X150323834Y-90550493D01*
X150205680Y-90536404D01*
X150197269Y-90537288D01*
X150197267Y-90537288D01*
X150140132Y-90543293D01*
X150025288Y-90555364D01*
X150017278Y-90558091D01*
X150017277Y-90558091D01*
X149861592Y-90611090D01*
X149861591Y-90611091D01*
X149853579Y-90613818D01*
X149846370Y-90618253D01*
X149846368Y-90618254D01*
X149706298Y-90704426D01*
X149706296Y-90704428D01*
X149699088Y-90708862D01*
X149693041Y-90714784D01*
X149689046Y-90717905D01*
X149616905Y-90748527D01*
X149595835Y-90750000D01*
X137146771Y-90750000D01*
X137071071Y-90729716D01*
X137015655Y-90674300D01*
X136995371Y-90598600D01*
X137015655Y-90522900D01*
X137039715Y-90491544D01*
X137108263Y-90422996D01*
X137116169Y-90415801D01*
X137123080Y-90411416D01*
X137171327Y-90360038D01*
X137174637Y-90356622D01*
X137194926Y-90336333D01*
X137197847Y-90332568D01*
X137200865Y-90329144D01*
X137206156Y-90322949D01*
X137236972Y-90290133D01*
X137241560Y-90281788D01*
X137241564Y-90281782D01*
X137246338Y-90273097D01*
X137259383Y-90253237D01*
X137265464Y-90245398D01*
X137265465Y-90245397D01*
X137271304Y-90237869D01*
X137289179Y-90196563D01*
X137295447Y-90183767D01*
X137312536Y-90152683D01*
X137312537Y-90152681D01*
X137317124Y-90144337D01*
X137321960Y-90125503D01*
X137329657Y-90103021D01*
X137333595Y-90093921D01*
X137337379Y-90085177D01*
X137344417Y-90040739D01*
X137347310Y-90026771D01*
X137356130Y-89992418D01*
X137358500Y-89983188D01*
X137358500Y-89963739D01*
X137360364Y-89940054D01*
X137363406Y-89920849D01*
X137359172Y-89876059D01*
X137358500Y-89861811D01*
X137358500Y-89348969D01*
X156956649Y-89348969D01*
X156958403Y-89352008D01*
X156961825Y-89354460D01*
X157052434Y-89399143D01*
X157061578Y-89402931D01*
X157331238Y-89494468D01*
X157340781Y-89497025D01*
X157620085Y-89552583D01*
X157629896Y-89553874D01*
X157914057Y-89572499D01*
X157923943Y-89572499D01*
X158208104Y-89553874D01*
X158217915Y-89552583D01*
X158497219Y-89497025D01*
X158506762Y-89494468D01*
X158776422Y-89402931D01*
X158785566Y-89399143D01*
X158869431Y-89357786D01*
X158881668Y-89347054D01*
X158880983Y-89343613D01*
X158878531Y-89340191D01*
X157933096Y-88394756D01*
X157919000Y-88386618D01*
X157904904Y-88394756D01*
X156964787Y-89334873D01*
X156956649Y-89348969D01*
X137358500Y-89348969D01*
X137358500Y-87324943D01*
X155666501Y-87324943D01*
X155685126Y-87609104D01*
X155686417Y-87618915D01*
X155741975Y-87898219D01*
X155744532Y-87907762D01*
X155836069Y-88177422D01*
X155839857Y-88186566D01*
X155881214Y-88270431D01*
X155891946Y-88282668D01*
X155895387Y-88281983D01*
X155898809Y-88279531D01*
X156844244Y-87334096D01*
X156852382Y-87320000D01*
X156844244Y-87305904D01*
X155904127Y-86365787D01*
X155890031Y-86357649D01*
X155886992Y-86359403D01*
X155884540Y-86362825D01*
X155839857Y-86453434D01*
X155836069Y-86462578D01*
X155744532Y-86732238D01*
X155741975Y-86741781D01*
X155686417Y-87021085D01*
X155685126Y-87030896D01*
X155666501Y-87315057D01*
X155666501Y-87324943D01*
X137358500Y-87324943D01*
X137358500Y-86435472D01*
X137378784Y-86359772D01*
X137402844Y-86328416D01*
X139228416Y-84502844D01*
X139296287Y-84463659D01*
X139335472Y-84458500D01*
X144684535Y-84458500D01*
X144760235Y-84478784D01*
X144767436Y-84483214D01*
X144823541Y-84519928D01*
X144833159Y-84526222D01*
X144841094Y-84529173D01*
X144841096Y-84529174D01*
X144903488Y-84552377D01*
X145003168Y-84589448D01*
X145182961Y-84613438D01*
X145191389Y-84612671D01*
X145191392Y-84612671D01*
X145254573Y-84606921D01*
X145363600Y-84596998D01*
X145406150Y-84583173D01*
X145528061Y-84543562D01*
X145528064Y-84543561D01*
X145536108Y-84540947D01*
X145691912Y-84448069D01*
X145823266Y-84322982D01*
X145886626Y-84227617D01*
X145945412Y-84175789D01*
X146012730Y-84160000D01*
X150976217Y-84160000D01*
X151051917Y-84180284D01*
G37*
G04 #@! TD.AperFunction*
M02*
