G04 #@! TF.GenerationSoftware,KiCad,Pcbnew,7.0.1-3b83917a11~171~ubuntu22.04.1*
G04 #@! TF.CreationDate,2023-03-24T16:48:54-07:00*
G04 #@! TF.ProjectId,RP2040_motor,52503230-3430-45f6-9d6f-746f722e6b69,REV1*
G04 #@! TF.SameCoordinates,Original*
G04 #@! TF.FileFunction,Soldermask,Bot*
G04 #@! TF.FilePolarity,Negative*
%FSLAX46Y46*%
G04 Gerber Fmt 4.6, Leading zero omitted, Abs format (unit mm)*
G04 Created by KiCad (PCBNEW 7.0.1-3b83917a11~171~ubuntu22.04.1) date 2023-03-24 16:48:54*
%MOMM*%
%LPD*%
G01*
G04 APERTURE LIST*
G04 Aperture macros list*
%AMRoundRect*
0 Rectangle with rounded corners*
0 $1 Rounding radius*
0 $2 $3 $4 $5 $6 $7 $8 $9 X,Y pos of 4 corners*
0 Add a 4 corners polygon primitive as box body*
4,1,4,$2,$3,$4,$5,$6,$7,$8,$9,$2,$3,0*
0 Add four circle primitives for the rounded corners*
1,1,$1+$1,$2,$3*
1,1,$1+$1,$4,$5*
1,1,$1+$1,$6,$7*
1,1,$1+$1,$8,$9*
0 Add four rect primitives between the rounded corners*
20,1,$1+$1,$2,$3,$4,$5,0*
20,1,$1+$1,$4,$5,$6,$7,0*
20,1,$1+$1,$6,$7,$8,$9,0*
20,1,$1+$1,$8,$9,$2,$3,0*%
G04 Aperture macros list end*
%ADD10C,3.900000*%
%ADD11RoundRect,1.500000X1.500000X1.500000X-1.500000X1.500000X-1.500000X-1.500000X1.500000X-1.500000X0*%
%ADD12C,6.000000*%
%ADD13RoundRect,0.250000X0.845000X-0.620000X0.845000X0.620000X-0.845000X0.620000X-0.845000X-0.620000X0*%
%ADD14O,2.190000X1.740000*%
%ADD15C,5.200000*%
%ADD16RoundRect,0.250000X0.620000X0.845000X-0.620000X0.845000X-0.620000X-0.845000X0.620000X-0.845000X0*%
%ADD17O,1.740000X2.190000*%
%ADD18C,3.250000*%
%ADD19R,1.500000X1.500000*%
%ADD20C,1.500000*%
%ADD21C,2.600000*%
%ADD22R,1.700000X1.700000*%
%ADD23O,1.700000X1.700000*%
%ADD24C,0.650000*%
%ADD25O,1.000000X2.100000*%
%ADD26O,1.000000X1.600000*%
%ADD27C,3.000000*%
%ADD28C,2.000000*%
%ADD29R,1.500000X2.000000*%
%ADD30R,3.800000X2.000000*%
G04 APERTURE END LIST*
D10*
X65700000Y-42450000D03*
D11*
X128525000Y-43075000D03*
D12*
X121325000Y-43075000D03*
D13*
X96890000Y-112050000D03*
D14*
X96890000Y-109510000D03*
X96890000Y-106970000D03*
D13*
X73740000Y-62700000D03*
D14*
X73740000Y-60160000D03*
X73740000Y-57620000D03*
X73740000Y-55080000D03*
X73740000Y-52540000D03*
X73740000Y-50000000D03*
D10*
X155525000Y-42450000D03*
D15*
X161320000Y-54020000D03*
X161320000Y-48520000D03*
X156560000Y-51270000D03*
D13*
X119365000Y-112747000D03*
D14*
X119365000Y-110207000D03*
X119365000Y-107667000D03*
X119365000Y-105127000D03*
D16*
X111082000Y-91962000D03*
D17*
X108542000Y-91962000D03*
X106002000Y-91962000D03*
X103462000Y-91962000D03*
X100922000Y-91962000D03*
X98382000Y-91962000D03*
D15*
X161320000Y-84120000D03*
X161320000Y-78620000D03*
X156560000Y-81370000D03*
D18*
X158180000Y-108590000D03*
X145480000Y-108590000D03*
D19*
X155400000Y-106050000D03*
D20*
X154380000Y-104270000D03*
X153360000Y-106050000D03*
X152340000Y-104270000D03*
X151320000Y-106050000D03*
X150300000Y-104270000D03*
X149280000Y-106050000D03*
X148260000Y-104270000D03*
D21*
X159960000Y-105030000D03*
X143700000Y-105030000D03*
D18*
X138580000Y-108590000D03*
X125880000Y-108590000D03*
D19*
X135800000Y-106050000D03*
D20*
X134780000Y-104270000D03*
X133760000Y-106050000D03*
X132740000Y-104270000D03*
X131720000Y-106050000D03*
X130700000Y-104270000D03*
X129680000Y-106050000D03*
X128660000Y-104270000D03*
D21*
X140360000Y-105030000D03*
X124100000Y-105030000D03*
D13*
X66340000Y-92840000D03*
D14*
X66340000Y-90300000D03*
X66340000Y-87760000D03*
D13*
X66340000Y-75500000D03*
D14*
X66340000Y-72960000D03*
X66340000Y-70420000D03*
X66340000Y-67880000D03*
X66340000Y-65340000D03*
D13*
X66340000Y-60436000D03*
D14*
X66340000Y-57896000D03*
X66340000Y-55356000D03*
X66340000Y-52816000D03*
X66340000Y-50276000D03*
X66340000Y-47736000D03*
D22*
X135850000Y-110250000D03*
D23*
X135850000Y-112790000D03*
X133310000Y-110250000D03*
X133310000Y-112790000D03*
X130770000Y-110250000D03*
X130770000Y-112790000D03*
X128230000Y-110250000D03*
X128230000Y-112790000D03*
D22*
X155550000Y-110150000D03*
D23*
X155550000Y-112690000D03*
X153010000Y-110150000D03*
X153010000Y-112690000D03*
X150470000Y-110150000D03*
X150470000Y-112690000D03*
X147930000Y-110150000D03*
X147930000Y-112690000D03*
D24*
X84760000Y-109295000D03*
X90540000Y-109295000D03*
D25*
X83330000Y-108795000D03*
D26*
X83330000Y-112975000D03*
D25*
X91970000Y-108795000D03*
D26*
X91970000Y-112975000D03*
D27*
X74900000Y-83500000D03*
D10*
X155075000Y-89750000D03*
D13*
X119338000Y-100350000D03*
D14*
X119338000Y-97810000D03*
D10*
X169175000Y-79570000D03*
X155575000Y-60000000D03*
X155575000Y-72875000D03*
X65700000Y-111100000D03*
D13*
X66340000Y-84200000D03*
D14*
X66340000Y-81660000D03*
X66340000Y-79120000D03*
D13*
X73740000Y-79100000D03*
D14*
X73740000Y-76560000D03*
X73740000Y-74020000D03*
X73740000Y-71480000D03*
X73740000Y-68940000D03*
X73740000Y-66400000D03*
D10*
X168200000Y-111100000D03*
X169175000Y-51270000D03*
D24*
X72260000Y-109295000D03*
X78040000Y-109295000D03*
D25*
X70830000Y-108795000D03*
D26*
X70830000Y-112975000D03*
D25*
X79470000Y-108795000D03*
D26*
X79470000Y-112975000D03*
D13*
X66340000Y-101500000D03*
D14*
X66340000Y-98960000D03*
X66340000Y-96420000D03*
D28*
X85125000Y-105625000D03*
X70745000Y-72815000D03*
X103125000Y-89225000D03*
X127455000Y-48185000D03*
X76575000Y-51575000D03*
X69345000Y-75665000D03*
X77175000Y-65425000D03*
D27*
X149825000Y-79175000D03*
D28*
X76575000Y-62175000D03*
X69155000Y-90335000D03*
X76275000Y-68175000D03*
X84755000Y-42985000D03*
X70645000Y-66615000D03*
X70225000Y-55075000D03*
X76775000Y-73475000D03*
X109325000Y-89225000D03*
D27*
X151275000Y-51475000D03*
D28*
X140775000Y-101475000D03*
D29*
X77525000Y-42825000D03*
X79825000Y-42825000D03*
D30*
X79825000Y-49125000D03*
D29*
X82125000Y-42825000D03*
D28*
X116025000Y-110275000D03*
X113375000Y-90325000D03*
D27*
X166125000Y-56175000D03*
D28*
X69355000Y-81635000D03*
X99975000Y-89225000D03*
X96825000Y-89225000D03*
X106075000Y-89225000D03*
X76675000Y-57075000D03*
X69925000Y-52425000D03*
X120855000Y-48135000D03*
X68945000Y-69765000D03*
X69525000Y-46925000D03*
D27*
X161325000Y-43325000D03*
D28*
X89525000Y-105625000D03*
X99805000Y-109485000D03*
X70325000Y-60425000D03*
X77025000Y-105725000D03*
X76675000Y-54425000D03*
X69925000Y-57825000D03*
X77775000Y-70825000D03*
X122125000Y-100325000D03*
X153275000Y-101425000D03*
X157725000Y-101375000D03*
X76475000Y-59625000D03*
X116125000Y-107525000D03*
X68645000Y-63465000D03*
X81025000Y-105675000D03*
X75975000Y-48425000D03*
X76575000Y-78575000D03*
D27*
X166675000Y-84525000D03*
D28*
X135625000Y-101425000D03*
X69155000Y-99085000D03*
X73225000Y-105875000D03*
X149075000Y-101525000D03*
X70425000Y-49675000D03*
X122125000Y-97825000D03*
D27*
X166225000Y-75325000D03*
D28*
X77575000Y-76025000D03*
G36*
X148299665Y-68588458D02*
G01*
X148335951Y-68625174D01*
X148348822Y-68675165D01*
X148301151Y-72727165D01*
X148287504Y-72776171D01*
X148251321Y-72811930D01*
X148202158Y-72825000D01*
X139399000Y-72825000D01*
X139349500Y-72811737D01*
X139313263Y-72775500D01*
X139300000Y-72726000D01*
X139300000Y-68674000D01*
X139313263Y-68624500D01*
X139349500Y-68588263D01*
X139399000Y-68575000D01*
X148249829Y-68575000D01*
X148299665Y-68588458D01*
G37*
G36*
X137897693Y-57065254D02*
G01*
X137933925Y-57101443D01*
X137947227Y-57150893D01*
X137952025Y-61216363D01*
X137938929Y-61265688D01*
X137903006Y-61301937D01*
X137853802Y-61315477D01*
X134294144Y-61343407D01*
X134244297Y-61330394D01*
X134207739Y-61294097D01*
X134194367Y-61244345D01*
X134197045Y-57150945D01*
X134210330Y-57101473D01*
X134246564Y-57065263D01*
X134296045Y-57052010D01*
X137848227Y-57052010D01*
X137897693Y-57065254D01*
G37*
G36*
X146524845Y-57835444D02*
G01*
X146574621Y-57848950D01*
X146610849Y-57885659D01*
X146623697Y-57935609D01*
X146576026Y-61987611D01*
X146562355Y-62036658D01*
X146526114Y-62072423D01*
X146476891Y-62085446D01*
X139273858Y-62075141D01*
X139224418Y-62061830D01*
X139188240Y-62025600D01*
X139175000Y-61976141D01*
X139175000Y-57924141D01*
X139188287Y-57874600D01*
X139224581Y-57838358D01*
X139274141Y-57825141D01*
X146524845Y-57835444D01*
G37*
G36*
X138147693Y-67640254D02*
G01*
X138183925Y-67676443D01*
X138197227Y-67725893D01*
X138202025Y-71791363D01*
X138188929Y-71840688D01*
X138153006Y-71876937D01*
X138103802Y-71890477D01*
X134544144Y-71918407D01*
X134494297Y-71905394D01*
X134457739Y-71869097D01*
X134444367Y-71819345D01*
X134447045Y-67725945D01*
X134460330Y-67676473D01*
X134496564Y-67640263D01*
X134546045Y-67627010D01*
X138098227Y-67627010D01*
X138147693Y-67640254D01*
G37*
G36*
X137572693Y-76515254D02*
G01*
X137608925Y-76551443D01*
X137622227Y-76600893D01*
X137627025Y-80666363D01*
X137613929Y-80715688D01*
X137578006Y-80751937D01*
X137528802Y-80765477D01*
X133969144Y-80793407D01*
X133919297Y-80780394D01*
X133882739Y-80744097D01*
X133869367Y-80694345D01*
X133872045Y-76600945D01*
X133885330Y-76551473D01*
X133921564Y-76515263D01*
X133971045Y-76502010D01*
X137523227Y-76502010D01*
X137572693Y-76515254D01*
G37*
G36*
X138175583Y-40188244D02*
G01*
X138211815Y-40224433D01*
X138225117Y-40273883D01*
X138229915Y-44339353D01*
X138216819Y-44388678D01*
X138180896Y-44424927D01*
X138131692Y-44438467D01*
X134572034Y-44466397D01*
X134522187Y-44453384D01*
X134485629Y-44417087D01*
X134472257Y-44367335D01*
X134474935Y-40273935D01*
X134488220Y-40224463D01*
X134524454Y-40188253D01*
X134573935Y-40175000D01*
X138126117Y-40175000D01*
X138175583Y-40188244D01*
G37*
G36*
X146874737Y-76063441D02*
G01*
X146911019Y-76100116D01*
X146923924Y-76150064D01*
X146876053Y-80602064D01*
X146862438Y-80651113D01*
X146826251Y-80686913D01*
X146777059Y-80700000D01*
X138574000Y-80700000D01*
X138524500Y-80686737D01*
X138488263Y-80650500D01*
X138475000Y-80601000D01*
X138475000Y-76149000D01*
X138488263Y-76099500D01*
X138524500Y-76063263D01*
X138574000Y-76050000D01*
X146824930Y-76050000D01*
X146874737Y-76063441D01*
G37*
G36*
X145749737Y-40113441D02*
G01*
X145786019Y-40150116D01*
X145798924Y-40200064D01*
X145751053Y-44652064D01*
X145737438Y-44701113D01*
X145701251Y-44736913D01*
X145652059Y-44750000D01*
X139349000Y-44750000D01*
X139299500Y-44736737D01*
X139263263Y-44700500D01*
X139250000Y-44651000D01*
X139250000Y-40199000D01*
X139263263Y-40149500D01*
X139299500Y-40113263D01*
X139349000Y-40100000D01*
X145699930Y-40100000D01*
X145749737Y-40113441D01*
G37*
G36*
X137848229Y-85927006D02*
G01*
X137897694Y-85940251D01*
X137933924Y-85976439D01*
X137947226Y-86025889D01*
X137952025Y-90091321D01*
X137938922Y-90140658D01*
X137902982Y-90176909D01*
X137853759Y-90190435D01*
X134094101Y-90218319D01*
X134044273Y-90205292D01*
X134007731Y-90168996D01*
X133994367Y-90119257D01*
X133997045Y-86025817D01*
X134010331Y-85976344D01*
X134046566Y-85940134D01*
X134096048Y-85926882D01*
X137848229Y-85927006D01*
G37*
G36*
X137872693Y-48465254D02*
G01*
X137908925Y-48501443D01*
X137922227Y-48550893D01*
X137927025Y-52616363D01*
X137913929Y-52665688D01*
X137878006Y-52701937D01*
X137828802Y-52715477D01*
X134269144Y-52743407D01*
X134219297Y-52730394D01*
X134182739Y-52694097D01*
X134169367Y-52644345D01*
X134172045Y-48550945D01*
X134185330Y-48501473D01*
X134221564Y-48465263D01*
X134271045Y-48452010D01*
X137823227Y-48452010D01*
X137872693Y-48465254D01*
G37*
G36*
X148424737Y-85638441D02*
G01*
X148461019Y-85675116D01*
X148473924Y-85725064D01*
X148426053Y-90177064D01*
X148412438Y-90226113D01*
X148376251Y-90261913D01*
X148327059Y-90275000D01*
X140124000Y-90275000D01*
X140074500Y-90261737D01*
X140038263Y-90225500D01*
X140025000Y-90176000D01*
X140025000Y-85724000D01*
X140038263Y-85674500D01*
X140074500Y-85638263D01*
X140124000Y-85625000D01*
X148374930Y-85625000D01*
X148424737Y-85638441D01*
G37*
G36*
X145850500Y-48338263D02*
G01*
X145886737Y-48374500D01*
X145900000Y-48424000D01*
X145900000Y-52700626D01*
X145886674Y-52750234D01*
X145850284Y-52786487D01*
X145800626Y-52799625D01*
X139373626Y-52775372D01*
X139324284Y-52761985D01*
X139288201Y-52725765D01*
X139275000Y-52676373D01*
X139275000Y-48424000D01*
X139288263Y-48374500D01*
X139324500Y-48338263D01*
X139374000Y-48325000D01*
X145801000Y-48325000D01*
X145850500Y-48338263D01*
G37*
M02*
