M48
; DRILL file {KiCad 6.0.0-rc2} date Thu 30 Jun 2022 01:47:25 PM PDT
; FORMAT={-:-/ absolute / metric / decimal}
; #@! TF.CreationDate,2022-06-30T13:47:25-07:00
; #@! TF.GenerationSoftware,Kicad,Pcbnew,6.0.0-rc2
; #@! TF.FileFunction,Plated,1,4,PTH
FMAT,2
METRIC
; #@! TA.AperFunction,Plated,PTH,ViaDrill
T1C0.200
; #@! TA.AperFunction,Plated,PTH,ComponentDrill
T2C0.200
; #@! TA.AperFunction,Plated,PTH,ViaDrill
T3C0.400
; #@! TA.AperFunction,Plated,PTH,ViaDrill
T4C0.500
; #@! TA.AperFunction,Plated,PTH,ComponentDrill
T5C0.600
; #@! TA.AperFunction,Plated,PTH,ComponentDrill
T6C1.190
; #@! TA.AperFunction,Plated,PTH,ComponentDrill
T7C2.300
; #@! TA.AperFunction,Plated,PTH,ComponentDrill
T8C3.500
; #@! TA.AperFunction,Plated,PTH,ComponentDrill
T9C3.900
%
G90
G05
T1
X72.15Y-91.65
X75.25Y-89.1
X76.75Y-91.25
X77.5Y-90.5
X78.1Y-89.75
X78.65Y-94.0
X78.75Y-98.9
X78.8Y-100.1
X78.85Y-101.0
X79.5Y-104.069
X80.15Y-96.45
X80.25Y-104.8
X80.6Y-105.7
X81.6Y-100.7
X82.0Y-96.5
X82.1Y-88.5
X82.3Y-99.9
X82.499Y-103.945
X82.8Y-106.3
X82.9Y-108.6
X83.0Y-105.3
X83.25Y-93.25
X83.4Y-88.75
X83.4Y-107.2
X83.45Y-119.25
X83.76Y-113.7
X83.81Y-117.2
X84.2Y-85.95
X84.2Y-107.6
X84.71Y-117.2
X84.76Y-113.7
X85.05Y-89.6
X85.05Y-93.55
X85.1Y-91.65
X85.7Y-104.849
X85.8Y-101.7
X85.85Y-105.65
X86.35Y-94.15
X86.5Y-90.75
X86.6Y-100.8
X86.6Y-105.25
X86.7Y-100.0
X86.95Y-99.15
X87.2Y-102.0
X88.5Y-89.25
X88.7Y-93.0
X88.889Y-105.0
X88.908Y-103.662
X89.047Y-102.71
X89.6Y-97.35
X89.65Y-110.5
X89.66Y-113.25
X90.25Y-99.825
X90.26Y-111.1
X90.65Y-107.35
X90.79Y-103.15
X91.16Y-114.45
X91.4Y-89.7
X91.61Y-117.15
X91.65Y-110.6
X92.8Y-90.3
X93.0Y-85.8
X93.8Y-113.8
X94.0Y-90.2
X94.3Y-97.45
X94.55Y-108.75
X94.95Y-110.0
X95.25Y-100.05
X95.3Y-91.0
X95.45Y-101.5
X95.6Y-97.45
X95.7Y-95.0
X95.75Y-96.2
X95.9Y-108.1
X95.95Y-100.5
X96.15Y-98.05
X96.2Y-101.95
X96.7Y-113.15
X96.85Y-87.7
X96.85Y-102.6
X96.9Y-91.85
X96.9Y-103.5
X97.2Y-93.4
X97.4Y-94.4
X97.4Y-105.25
X97.45Y-114.25
X97.6Y-92.5
X97.7Y-107.05
X97.75Y-69.0
X97.95Y-104.6
X98.3Y-99.1
X98.4Y-105.8
X98.75Y-107.2
X99.2Y-106.4
X99.2Y-114.25
X100.2Y-106.25
X100.4Y-112.5
X100.45Y-116.0
X100.65Y-103.8
X100.95Y-83.1
X102.0Y-85.8
X102.3Y-110.7
X102.4Y-102.1
X104.9Y-86.5
X107.0Y-75.3
X112.3Y-83.8
X112.3Y-86.75
X112.45Y-106.5
X112.95Y-99.0
X112.95Y-114.25
X112.95Y-115.25
X113.049Y-91.049
X113.2Y-106.0
X113.4Y-89.7
X113.45Y-100.75
X116.0Y-93.3
X117.2Y-93.3
X118.2Y-93.3
X134.941Y-86.6
X134.941Y-87.35
X134.941Y-88.1
X134.941Y-88.85
X134.941Y-89.6
X134.941Y-117.38
X134.941Y-118.13
X134.941Y-118.88
X134.941Y-119.63
X134.941Y-120.38
X135.05Y-78.17
X135.05Y-78.92
X135.05Y-79.67
X135.05Y-80.42
X135.05Y-81.17
X135.05Y-108.95
X135.05Y-109.7
X135.05Y-110.45
X135.05Y-111.2
X135.05Y-111.95
X135.3Y-69.82
X135.3Y-70.57
X135.3Y-71.32
X135.3Y-72.07
X135.3Y-72.82
X135.3Y-100.5
X135.3Y-101.25
X135.3Y-102.0
X135.3Y-102.75
X135.3Y-103.5
X135.691Y-86.6
X135.691Y-87.35
X135.691Y-88.1
X135.691Y-88.85
X135.691Y-89.6
X135.691Y-117.38
X135.691Y-118.13
X135.691Y-118.88
X135.691Y-119.63
X135.691Y-120.38
X135.8Y-78.17
X135.8Y-78.92
X135.8Y-79.67
X135.8Y-80.42
X135.8Y-81.17
X135.8Y-108.95
X135.8Y-109.7
X135.8Y-110.45
X135.8Y-111.2
X135.8Y-111.95
X136.05Y-69.82
X136.05Y-70.57
X136.05Y-71.32
X136.05Y-72.07
X136.05Y-72.82
X136.05Y-100.5
X136.05Y-101.25
X136.05Y-102.0
X136.05Y-102.75
X136.05Y-103.5
X136.441Y-86.6
X136.441Y-87.35
X136.441Y-88.1
X136.441Y-88.85
X136.441Y-89.6
X136.441Y-117.38
X136.441Y-118.13
X136.441Y-118.88
X136.441Y-119.63
X136.441Y-120.38
X136.55Y-78.17
X136.55Y-78.92
X136.55Y-81.17
X136.55Y-108.95
X136.55Y-109.7
X136.55Y-111.95
X136.562Y-79.67
X136.562Y-80.42
X136.562Y-110.45
X136.562Y-111.2
X136.782Y-70.57
X136.782Y-71.32
X136.782Y-101.25
X136.782Y-102.0
X136.8Y-69.82
X136.8Y-72.07
X136.8Y-72.82
X136.8Y-100.5
X136.8Y-102.75
X136.8Y-103.5
X137.191Y-86.6
X137.191Y-87.35
X137.191Y-88.1
X137.191Y-88.85
X137.191Y-89.6
X137.191Y-117.38
X137.191Y-118.13
X137.191Y-118.88
X137.191Y-119.63
X137.191Y-120.38
X137.3Y-78.17
X137.3Y-78.92
X137.3Y-79.67
X137.3Y-80.42
X137.3Y-81.17
X137.3Y-108.95
X137.3Y-109.7
X137.3Y-110.45
X137.3Y-111.2
X137.3Y-111.95
X137.55Y-69.82
X137.55Y-70.57
X137.55Y-71.32
X137.55Y-72.07
X137.55Y-72.82
X137.55Y-100.5
X137.55Y-101.25
X137.55Y-102.0
X137.55Y-102.75
X137.55Y-103.5
X138.55Y-99.75
X139.4Y-115.75
X139.45Y-84.75
X139.45Y-107.5
X139.5Y-76.45
X140.731Y-117.411
X140.731Y-118.161
X140.731Y-118.911
X140.731Y-119.661
X140.731Y-120.411
X140.75Y-91.05
X140.781Y-69.831
X140.781Y-70.581
X140.781Y-71.331
X140.781Y-72.081
X140.781Y-72.831
X140.781Y-78.181
X140.781Y-78.931
X140.781Y-79.681
X140.781Y-80.431
X140.781Y-81.181
X140.781Y-86.631
X140.781Y-87.381
X140.781Y-88.131
X140.781Y-88.881
X140.781Y-89.631
X140.781Y-100.461
X140.781Y-101.211
X140.781Y-101.961
X140.781Y-102.711
X140.781Y-103.461
X140.781Y-108.961
X140.781Y-109.711
X140.781Y-110.461
X140.781Y-111.211
X140.781Y-111.961
X141.481Y-117.411
X141.481Y-118.161
X141.481Y-118.911
X141.481Y-119.661
X141.481Y-120.411
X141.531Y-69.831
X141.531Y-70.581
X141.531Y-71.331
X141.531Y-72.081
X141.531Y-72.831
X141.531Y-78.181
X141.531Y-78.931
X141.531Y-79.681
X141.531Y-80.431
X141.531Y-81.181
X141.531Y-86.631
X141.531Y-87.381
X141.531Y-88.131
X141.531Y-88.881
X141.531Y-89.631
X141.531Y-100.461
X141.531Y-101.211
X141.531Y-101.961
X141.531Y-102.711
X141.531Y-103.461
X141.531Y-108.961
X141.531Y-109.711
X141.531Y-110.461
X141.531Y-111.211
X141.531Y-111.961
X141.7Y-96.45
X141.95Y-90.9
X143.1Y-97.85
X143.4Y-91.05
X143.881Y-69.8
X143.881Y-70.55
X143.881Y-71.3
X143.881Y-72.05
X143.881Y-72.8
X143.881Y-86.6
X143.881Y-87.35
X143.881Y-88.1
X143.881Y-88.85
X143.881Y-89.6
X143.881Y-100.48
X143.881Y-101.23
X143.881Y-101.98
X143.881Y-102.73
X143.881Y-103.48
X143.881Y-117.38
X143.881Y-118.13
X143.881Y-118.88
X143.881Y-119.63
X143.881Y-120.38
X144.131Y-78.15
X144.131Y-78.9
X144.131Y-79.65
X144.131Y-80.4
X144.131Y-81.15
X144.131Y-108.93
X144.131Y-109.68
X144.131Y-110.43
X144.131Y-111.18
X144.131Y-111.93
X144.36Y-95.0
X144.631Y-69.8
X144.631Y-70.55
X144.631Y-71.3
X144.631Y-72.05
X144.631Y-72.8
X144.631Y-86.6
X144.631Y-87.35
X144.631Y-88.1
X144.631Y-88.85
X144.631Y-89.6
X144.631Y-100.48
X144.631Y-101.23
X144.631Y-101.98
X144.631Y-102.73
X144.631Y-103.48
X144.631Y-117.38
X144.631Y-118.13
X144.631Y-118.88
X144.631Y-119.63
X144.631Y-120.38
X144.881Y-78.15
X144.881Y-78.9
X144.881Y-79.65
X144.881Y-80.4
X144.881Y-81.15
X144.881Y-108.93
X144.881Y-109.68
X144.881Y-110.43
X144.881Y-111.18
X144.881Y-111.93
X145.381Y-69.8
X145.381Y-70.55
X145.381Y-71.3
X145.381Y-72.05
X145.381Y-72.8
X145.381Y-86.6
X145.381Y-87.35
X145.381Y-88.1
X145.381Y-88.85
X145.381Y-89.6
X145.381Y-100.48
X145.381Y-101.23
X145.381Y-101.98
X145.381Y-102.73
X145.381Y-103.48
X145.381Y-117.38
X145.381Y-118.13
X145.381Y-118.88
X145.381Y-119.63
X145.381Y-120.38
X145.631Y-78.15
X145.631Y-78.9
X145.631Y-79.65
X145.631Y-80.4
X145.631Y-81.15
X145.631Y-108.93
X145.631Y-109.68
X145.631Y-110.43
X145.631Y-111.18
X145.631Y-111.93
X146.131Y-69.8
X146.131Y-70.55
X146.131Y-71.3
X146.131Y-72.05
X146.131Y-72.8
X146.131Y-86.6
X146.131Y-87.35
X146.131Y-88.1
X146.131Y-88.85
X146.131Y-89.6
X146.131Y-100.48
X146.131Y-101.23
X146.131Y-101.98
X146.131Y-102.73
X146.131Y-103.48
X146.131Y-117.38
X146.131Y-118.13
X146.131Y-118.88
X146.131Y-119.63
X146.131Y-120.38
X146.381Y-78.15
X146.381Y-78.9
X146.381Y-79.65
X146.381Y-80.4
X146.381Y-81.15
X146.381Y-108.93
X146.381Y-109.68
X146.381Y-110.43
X146.381Y-111.18
X146.381Y-111.93
X146.8Y-99.2
X146.96Y-84.4
X148.81Y-97.1
X148.96Y-93.1
X153.26Y-120.8
X153.7Y-97.3
X153.9Y-93.8
X154.3Y-69.0
X155.46Y-92.5
X155.61Y-95.75
X158.1Y-93.4
X159.35Y-97.2
X159.5Y-94.95
X163.0Y-95.3
X163.2Y-93.2
T2
X90.115Y-103.975
X90.115Y-105.25
X90.115Y-106.525
X91.39Y-103.975
X91.39Y-105.25
X91.39Y-106.525
X92.665Y-103.975
X92.665Y-105.25
X92.665Y-106.525
T3
X79.8Y-107.6
X84.2Y-82.5
X84.45Y-109.45
X84.45Y-111.2
X85.1Y-70.45
X86.0Y-79.75
X87.7Y-78.45
X87.7Y-79.45
X87.8Y-84.95
X88.45Y-113.0
X88.9Y-71.4
X89.9Y-78.45
X89.9Y-79.45
X90.05Y-88.4
X91.95Y-113.5
X93.25Y-77.95
X93.3Y-79.0
X93.3Y-80.15
X94.55Y-75.0
X95.0Y-75.85
X95.5Y-74.95
X95.7Y-77.55
X95.7Y-83.0
X95.8Y-76.5
X96.95Y-110.75
X99.7Y-108.5
X100.8Y-74.0
X100.8Y-75.0
X101.7Y-99.0
X101.8Y-74.0
X101.8Y-75.0
X102.3Y-120.2
X102.75Y-74.0
X102.75Y-75.0
X103.1Y-95.9
X103.7Y-114.25
X106.8Y-115.5
X106.81Y-113.4
X106.9Y-82.0
X107.1Y-85.5
X107.65Y-70.15
X107.9Y-98.8
X108.1Y-90.47
X108.3Y-120.4
X108.4Y-79.7
X108.733Y-93.042
X108.9Y-111.4
X109.0Y-103.05
X109.2Y-70.6
X109.377Y-95.35
X109.932Y-94.488
X110.15Y-96.15
X110.2Y-72.5
X110.3Y-70.0
X110.517Y-93.677
X110.95Y-80.35
X111.3Y-103.15
X111.7Y-86.05
X112.0Y-87.6
X112.2Y-117.6
X112.31Y-96.9
X112.4Y-110.25
X112.55Y-71.25
X113.4Y-88.0
X113.4Y-92.549
X113.5Y-118.5
X115.6Y-82.4
X115.9Y-71.2
X116.4Y-105.05
X116.4Y-113.1
X116.41Y-96.95
X116.6Y-88.6
X116.75Y-119.5
X116.81Y-99.9
X117.8Y-110.0
X118.0Y-85.0
X118.21Y-114.8
X118.7Y-89.5
X119.5Y-97.1
X119.5Y-100.5
X119.55Y-101.45
X119.6Y-88.42
X119.6Y-106.85
X119.6Y-115.7
X119.65Y-83.72
X119.65Y-84.72
X119.65Y-87.42
X119.65Y-103.15
X119.65Y-104.15
X119.65Y-105.85
X119.65Y-111.6
X119.65Y-112.6
X119.65Y-114.7
X119.65Y-119.05
X119.7Y-93.3
X120.5Y-97.1
X120.5Y-100.5
X120.55Y-101.45
X120.6Y-88.42
X120.6Y-106.85
X120.6Y-115.7
X120.65Y-83.72
X120.65Y-84.72
X120.65Y-87.42
X120.65Y-103.15
X120.65Y-104.15
X120.65Y-105.85
X120.65Y-111.6
X120.65Y-112.6
X120.65Y-114.7
X120.65Y-119.05
X120.7Y-93.3
X121.5Y-97.1
X121.5Y-100.5
X121.55Y-101.45
X121.6Y-88.42
X121.6Y-106.85
X121.6Y-115.7
X121.65Y-83.72
X121.65Y-84.72
X121.65Y-87.42
X121.65Y-103.15
X121.65Y-104.15
X121.65Y-105.85
X121.65Y-111.6
X121.65Y-112.6
X121.65Y-114.7
X121.65Y-119.05
X121.7Y-93.3
X122.5Y-97.1
X122.5Y-100.5
X122.55Y-101.45
X122.6Y-88.42
X122.6Y-106.85
X122.6Y-115.7
X122.65Y-83.72
X122.65Y-84.72
X122.65Y-87.42
X122.65Y-103.15
X122.65Y-104.15
X122.65Y-105.85
X122.65Y-111.6
X122.65Y-112.6
X122.65Y-114.7
X122.65Y-119.05
X122.7Y-93.3
X138.35Y-68.75
X138.4Y-116.45
X138.45Y-107.95
X138.5Y-77.05
X138.6Y-85.35
X146.55Y-116.0
X146.65Y-107.5
X146.95Y-76.6
X147.95Y-68.749
X153.5Y-76.0
X153.5Y-84.2
X153.5Y-105.75
X153.5Y-114.0
X154.45Y-96.3
X154.5Y-76.0
X154.5Y-84.2
X154.5Y-105.75
X154.5Y-114.0
X155.5Y-76.0
X155.5Y-84.2
X155.5Y-105.75
X155.5Y-114.0
X156.5Y-76.0
X156.5Y-84.2
X156.5Y-105.75
X156.5Y-114.0
X157.5Y-76.0
X157.5Y-84.2
X157.5Y-105.75
X157.5Y-114.0
X158.498Y-84.198
X158.5Y-76.0
X158.5Y-105.75
X158.5Y-114.0
X159.5Y-76.0
X159.5Y-84.2
X159.5Y-105.75
X159.5Y-114.0
X160.5Y-84.2
X160.5Y-105.75
X161.5Y-84.2
X161.5Y-105.75
X162.5Y-84.2
X162.5Y-105.75
X163.5Y-70.0
X163.5Y-71.0
X163.5Y-72.0
X163.5Y-73.0
X163.5Y-79.0
X163.5Y-80.0
X163.5Y-81.0
X163.5Y-82.0
X163.5Y-83.0
X163.5Y-84.0
X163.5Y-85.0
X163.5Y-86.0
X163.5Y-87.0
X163.5Y-88.0
X163.5Y-89.0
X163.5Y-90.0
X163.5Y-91.0
X163.5Y-99.0
X163.5Y-100.0
X163.5Y-101.0
X163.5Y-102.0
X163.5Y-103.0
X163.5Y-104.0
X163.5Y-105.0
X163.5Y-106.0
X163.5Y-107.0
X163.5Y-108.0
X163.5Y-109.0
X163.5Y-110.0
X163.5Y-111.0
X163.5Y-118.0
X163.5Y-119.0
X163.5Y-120.0
X163.5Y-121.0
X164.5Y-70.0
X164.5Y-71.0
X164.5Y-72.0
X164.5Y-73.0
X164.5Y-79.0
X164.5Y-80.0
X164.5Y-81.0
X164.5Y-82.0
X164.5Y-83.0
X164.5Y-84.0
X164.5Y-85.0
X164.5Y-86.0
X164.5Y-87.0
X164.5Y-88.0
X164.5Y-89.0
X164.5Y-90.0
X164.5Y-91.0
X164.5Y-99.0
X164.5Y-100.0
X164.5Y-101.0
X164.5Y-102.0
X164.5Y-103.0
X164.5Y-104.0
X164.5Y-105.0
X164.5Y-106.0
X164.5Y-107.0
X164.5Y-108.0
X164.5Y-109.0
X164.5Y-110.0
X164.5Y-111.0
X164.5Y-118.0
X164.5Y-119.0
X164.5Y-120.0
X164.5Y-121.0
T4
X83.7Y-71.1
X85.7Y-81.75
T6
X72.49Y-71.2
X74.1Y-77.24
X74.1Y-79.78
X74.1Y-82.32
X74.1Y-84.86
X74.1Y-87.4
X74.1Y-100.92
X74.1Y-103.46
X74.1Y-106.0
X74.1Y-109.69
X74.1Y-112.23
X74.1Y-114.77
X74.1Y-117.31
X74.1Y-119.85
X75.03Y-71.2
X77.57Y-71.2
X80.11Y-71.2
X81.05Y-77.34
X81.05Y-79.88
X81.05Y-82.42
X81.05Y-84.96
T7
X159.4Y-71.0
X159.5Y-80.7
X159.5Y-87.75
X159.5Y-102.25
X159.5Y-109.3
X159.5Y-119.1
T8
X120.35Y-73.0
X127.35Y-73.0
T9
X73.95Y-95.0
X162.45Y-75.8
X162.45Y-114.2
T5
X87.08Y-115.595G85X87.08Y-116.695
G05
X87.08Y-120.025G85X87.08Y-120.625
G05
X95.72Y-115.595G85X95.72Y-116.695
G05
X95.72Y-120.025G85X95.72Y-120.625
G05
T0
M30
