M48
; DRILL file {KiCad 7.0.2-6a45011f42~172~ubuntu22.04.1} date Tue 09 May 2023 05:28:00 PM PDT
; FORMAT={-:-/ absolute / metric / decimal}
; #@! TF.CreationDate,2023-05-09T17:28:00-07:00
; #@! TF.GenerationSoftware,Kicad,Pcbnew,7.0.2-6a45011f42~172~ubuntu22.04.1
; #@! TF.FileFunction,Plated,1,4,PTH
FMAT,2
METRIC
; #@! TA.AperFunction,Plated,PTH,ComponentDrill
T1C0.300
; #@! TA.AperFunction,Plated,PTH,ViaDrill
T2C0.400
; #@! TA.AperFunction,Plated,PTH,ViaDrill
T3C0.600
; #@! TA.AperFunction,Plated,PTH,ComponentDrill
T4C0.600
; #@! TA.AperFunction,Plated,PTH,ComponentDrill
T5C0.800
; #@! TA.AperFunction,Plated,PTH,ComponentDrill
T6C1.000
; #@! TA.AperFunction,Plated,PTH,ComponentDrill
T7C1.190
; #@! TA.AperFunction,Plated,PTH,ComponentDrill
T8C1.600
; #@! TA.AperFunction,Plated,PTH,ComponentDrill
T9C4.500
%
G90
G05
T1
X82.981Y-94.409
X82.981Y-95.684
X82.981Y-96.959
X84.256Y-94.409
X84.256Y-95.684
X84.256Y-96.959
X84.825Y-41.55
X84.825Y-42.85
X85.531Y-94.409
X85.531Y-95.684
X85.531Y-96.959
X85.825Y-41.55
X85.825Y-42.85
X86.825Y-41.55
X86.825Y-42.85
X90.015Y-72.625
X90.015Y-73.9
X90.015Y-75.175
X91.29Y-72.625
X91.29Y-73.9
X91.29Y-75.175
X92.565Y-72.625
X92.565Y-73.9
X92.565Y-75.175
T2
X63.4Y-107.925
X63.662Y-103.938
X63.8Y-70.8
X64.766Y-56.95
X64.975Y-72.75
X66.911Y-55.472
X67.0Y-56.7
X67.2Y-58.35
X67.5Y-92.0
X67.9Y-54.7
X68.1Y-90.6
X68.2Y-86.8
X68.85Y-100.725
X69.4Y-52.7
X69.5Y-54.8
X69.775Y-33.8
X69.85Y-46.05
X69.9Y-82.8
X69.9Y-90.9
X69.9Y-92.5
X69.9Y-94.8
X69.95Y-76.25
X69.99Y-78.51
X70.0Y-98.2
X70.008Y-35.813
X70.15Y-73.3
X71.225Y-80.9
X71.427Y-73.588
X71.5Y-98.2
X72.35Y-104.2
X72.689Y-88.823
X72.8Y-85.4
X73.0Y-82.1
X73.2Y-98.3
X73.82Y-37.37
X73.95Y-82.1
X74.04Y-99.36
X74.1Y-91.0
X74.316Y-87.016
X74.8Y-35.5
X74.862Y-109.362
X75.026Y-99.592
X75.205Y-33.926
X75.6Y-61.0
X75.726Y-92.95
X75.875Y-32.55
X75.9Y-73.3
X76.05Y-70.775
X76.156Y-90.958
X76.157Y-91.958
X76.182Y-104.671
X76.247Y-101.801
X76.428Y-109.363
X76.525Y-97.07
X76.652Y-85.341
X77.0Y-55.8
X77.048Y-82.502
X77.1Y-75.2
X77.1Y-93.3
X77.225Y-99.67
X77.846Y-81.901
X78.2Y-78.849
X78.2Y-99.45
X78.221Y-62.596
X78.264Y-103.522
X78.306Y-51.096
X78.307Y-54.324
X78.341Y-64.38
X78.345Y-67.578
X78.355Y-91.444
X78.55Y-88.7
X78.6Y-47.3
X78.85Y-98.422
X79.0Y-43.0
X79.0Y-44.0
X79.0Y-45.0
X79.05Y-82.51
X79.058Y-87.839
X79.35Y-104.999
X79.486Y-97.651
X79.589Y-79.927
X79.7Y-102.0
X79.786Y-70.118
X79.789Y-50.903
X79.8Y-53.6
X79.85Y-98.65
X79.9Y-87.3
X79.925Y-56.367
X80.0Y-43.0
X80.0Y-44.0
X80.0Y-45.0
X80.0Y-66.3
X80.179Y-63.539
X80.247Y-49.406
X80.57Y-91.524
X80.6Y-106.2
X80.711Y-70.714
X80.725Y-57.7
X80.891Y-89.797
X80.9Y-67.5
X80.994Y-77.251
X81.0Y-33.0
X81.0Y-34.0
X81.0Y-43.0
X81.0Y-44.0
X81.0Y-45.0
X81.098Y-73.533
X81.112Y-92.385
X81.15Y-41.55
X81.25Y-90.73
X81.284Y-58.763
X81.4Y-102.4
X81.438Y-72.135
X81.8Y-75.7
X81.815Y-57.424
X81.85Y-63.3
X81.861Y-85.161
X81.895Y-98.094
X82.0Y-33.0
X82.0Y-34.0
X82.0Y-39.0
X82.0Y-43.0
X82.0Y-44.0
X82.0Y-45.0
X82.249Y-90.926
X82.291Y-72.657
X82.655Y-74.455
X82.691Y-83.209
X82.7Y-57.95
X83.079Y-87.05
X83.425Y-68.45
X83.45Y-79.85
X83.479Y-71.471
X83.6Y-66.325
X83.65Y-103.272
X83.7Y-78.15
X83.888Y-83.204
X84.141Y-102.1
X84.17Y-56.291
X84.2Y-70.19
X84.285Y-86.553
X84.499Y-57.4
X84.499Y-58.4
X84.65Y-103.8
X84.846Y-90.208
X84.927Y-76.127
X85.754Y-89.79
X86.0Y-76.099
X86.05Y-62.55
X86.081Y-85.999
X86.2Y-36.2
X86.353Y-100.492
X86.575Y-68.05
X86.579Y-90.353
X86.6Y-70.9
X86.6Y-81.6
X86.8Y-35.4
X86.95Y-47.5
X86.998Y-104.191
X87.4Y-36.6
X87.6Y-81.4
X87.75Y-109.925
X87.851Y-80.008
X88.0Y-35.8
X88.0Y-77.4
X88.212Y-91.016
X88.352Y-86.13
X88.5Y-60.2
X88.58Y-61.663
X88.65Y-102.392
X88.7Y-62.9
X88.835Y-104.996
X89.0Y-33.0
X89.0Y-71.8
X89.0Y-88.099
X89.0Y-90.25
X89.05Y-109.925
X89.124Y-97.597
X89.2Y-85.6
X89.4Y-66.4
X89.6Y-55.0
X89.9Y-90.75
X89.902Y-96.969
X90.0Y-33.0
X90.09Y-43.855
X90.2Y-85.9
X90.4Y-84.1
X91.0Y-33.0
X91.0Y-47.6
X91.6Y-59.65
X91.722Y-81.382
X91.8Y-56.2
X91.89Y-79.91
X91.959Y-101.311
X92.0Y-33.0
X92.0Y-34.0
X92.0Y-64.25
X92.146Y-102.711
X92.8Y-52.274
X93.0Y-33.0
X93.0Y-34.0
X93.0Y-42.0
X93.0Y-43.0
X93.0Y-44.0
X93.0Y-45.0
X93.0Y-46.0
X93.0Y-66.0
X93.1Y-64.25
X93.4Y-56.2
X93.7Y-98.4
X93.908Y-102.724
X94.0Y-33.0
X94.0Y-34.0
X94.025Y-57.799
X94.247Y-92.202
X94.298Y-84.784
X94.475Y-85.95
X94.475Y-86.95
X94.65Y-65.65
X94.7Y-64.3
X94.8Y-53.6
X94.9Y-70.475
X94.95Y-102.45
X95.0Y-33.0
X95.0Y-34.0
X95.1Y-59.6
X95.2Y-38.55
X95.2Y-57.8
X95.3Y-62.5
X95.5Y-77.2
X95.573Y-69.736
X95.613Y-80.828
X95.948Y-103.052
X96.0Y-33.0
X96.0Y-34.0
X96.05Y-104.549
X96.14Y-47.2
X96.2Y-53.6
X96.2Y-57.8
X96.514Y-55.747
X96.519Y-83.555
X96.525Y-79.6
X96.525Y-97.675
X96.674Y-87.001
X97.0Y-33.0
X97.0Y-34.0
X97.153Y-107.849
X97.173Y-58.029
X97.674Y-87.001
X97.8Y-50.9
X97.825Y-82.639
X97.967Y-85.994
X98.0Y-72.6
X98.353Y-83.487
X98.6Y-53.8
X98.8Y-33.8
X98.909Y-80.45
X98.975Y-95.575
X99.4Y-89.6
X99.5Y-41.2
X99.5Y-54.5
X99.52Y-99.47
X99.6Y-44.4
X99.8Y-48.3
X99.9Y-33.8
X99.95Y-83.7
X100.28Y-73.935
X100.42Y-102.775
X100.9Y-61.899
X101.2Y-73.2
X101.399Y-69.6
X101.4Y-33.8
X101.418Y-38.798
X101.52Y-56.37
X101.841Y-55.15
X101.968Y-32.2
X102.001Y-67.4
X102.072Y-65.393
X102.075Y-71.025
X102.299Y-60.2
X102.399Y-69.2
X102.6Y-43.86
X102.6Y-90.9
X102.7Y-113.3
X102.95Y-45.55
X103.1Y-38.7
X103.2Y-59.3
X103.204Y-58.301
X103.3Y-89.2
X103.399Y-80.041
X103.55Y-50.05
X104.0Y-71.475
X104.2Y-39.6
X104.3Y-82.2
X104.4Y-61.15
X104.504Y-66.791
X104.545Y-68.19
X104.589Y-55.13
X104.798Y-77.999
X104.85Y-95.95
X105.012Y-47.978
X105.4Y-106.3
X105.919Y-87.123
X106.25Y-94.2
X106.45Y-76.5
X107.075Y-72.6
X107.17Y-60.991
X107.4Y-88.75
X107.647Y-58.041
X107.676Y-32.2
X107.7Y-38.299
X107.759Y-39.399
X107.891Y-47.495
X108.0Y-50.25
X108.125Y-94.2
X108.175Y-77.99
X108.545Y-60.899
X108.748Y-112.774
X108.9Y-100.95
X108.95Y-85.2
X109.0Y-65.2
X109.02Y-67.299
X109.1Y-55.5
X109.1Y-82.825
X109.2Y-76.0
X109.2Y-103.676
X109.4Y-57.4
X109.55Y-106.65
X109.55Y-108.5
X109.875Y-86.6
X109.909Y-105.717
X110.097Y-67.299
X110.15Y-107.615
X110.2Y-40.3
X110.2Y-72.3
X110.2Y-110.05
X110.229Y-82.769
X110.245Y-51.335
X110.25Y-91.599
X110.482Y-61.569
X110.6Y-45.55
X110.7Y-103.0
X110.8Y-77.55
X110.925Y-70.525
X111.2Y-81.0
X111.248Y-88.225
X111.295Y-51.335
X111.325Y-79.416
X111.5Y-109.85
X111.532Y-61.569
X111.7Y-72.278
X111.7Y-103.85
X112.079Y-82.769
X112.47Y-66.07
X112.607Y-88.328
X112.7Y-56.0
X113.125Y-77.125
X113.125Y-110.55
X113.2Y-63.6
X113.3Y-59.6
X113.348Y-60.797
X113.4Y-51.3
X113.4Y-74.0
X113.5Y-49.5
X113.5Y-67.9
X113.559Y-79.442
X113.575Y-93.35
X113.58Y-83.257
X113.6Y-53.1
X113.7Y-69.3
X113.799Y-104.3
X114.036Y-101.749
X114.2Y-44.0
X114.2Y-62.4
X114.22Y-53.78
X114.4Y-71.8
X114.4Y-81.0
X114.57Y-35.499
X115.364Y-92.55
X115.4Y-33.9
X115.725Y-66.425
X115.9Y-42.2
X116.5Y-33.8
X116.8Y-88.8
X117.2Y-44.65
X117.45Y-101.55
X117.625Y-40.0
X117.65Y-61.475
X117.7Y-57.8
X117.7Y-66.9
X117.8Y-33.5
X117.8Y-76.1
X117.85Y-71.325
X117.95Y-86.05
X118.7Y-98.2
X118.773Y-55.524
X119.7Y-46.45
X119.8Y-106.2
X119.8Y-109.0
X119.8Y-111.2
X120.475Y-53.075
X120.525Y-62.725
X121.3Y-49.55
X121.3Y-97.1
X121.875Y-56.325
X121.975Y-37.5
X122.1Y-102.6
X122.25Y-40.95
X123.0Y-84.5
X123.1Y-93.8
X123.25Y-66.0
X123.373Y-56.423
X123.4Y-47.2
X123.4Y-97.2
X123.506Y-75.35
X124.0Y-110.7
X124.5Y-109.0
X124.574Y-37.648
X124.7Y-107.3
X124.75Y-90.4
X125.0Y-102.5
X125.491Y-50.291
X125.55Y-53.825
X125.595Y-40.702
X125.8Y-72.15
X125.925Y-62.9
X126.35Y-83.25
X126.75Y-53.05
X126.75Y-99.25
X126.8Y-81.2
X126.95Y-40.15
X127.1Y-43.0
X127.2Y-62.0
X127.2Y-89.2
X127.35Y-44.2
X127.35Y-49.55
X127.35Y-58.25
X127.35Y-113.8
X127.4Y-76.45
X127.5Y-67.1
X127.5Y-71.15
X127.5Y-97.3
X127.5Y-105.9
X127.6Y-92.3
X128.0Y-103.2
X128.35Y-111.9
X128.95Y-96.4
X131.0Y-102.075
X131.8Y-105.8
X132.7Y-107.0
X132.8Y-111.2
X132.9Y-98.0
X133.0Y-109.3
X133.6Y-110.4
X133.8Y-104.9
X134.125Y-33.125
X134.246Y-96.059
X134.5Y-98.5
X134.5Y-112.8
X135.4Y-101.299
X135.7Y-97.8
X136.0Y-32.5
X137.25Y-32.2
X138.593Y-99.607
X138.8Y-95.4
X139.0Y-101.75
X139.3Y-98.9
X140.342Y-102.952
X140.6Y-98.1
X141.3Y-101.8
X141.6Y-99.3
X141.687Y-113.902
X141.7Y-96.7
X141.8Y-104.2
X142.4Y-106.3
X142.7Y-97.7
X142.75Y-112.1
X143.0Y-95.45
X143.1Y-110.1
X143.8Y-107.7
X144.2Y-99.1
X145.0Y-96.9
X145.2Y-98.3
X146.2Y-97.105
X146.2Y-98.155
X147.15Y-101.0
X147.3Y-106.2
X147.4Y-104.2
X150.606Y-34.294
X150.7Y-101.9
X150.8Y-90.1
X150.8Y-91.1
X150.8Y-92.1
X151.025Y-74.15
X151.05Y-84.273
X151.225Y-54.25
X151.275Y-64.25
X151.3Y-39.8
X151.3Y-40.8
X151.3Y-41.8
X151.3Y-49.6
X151.3Y-50.6
X151.3Y-51.6
X151.3Y-59.8
X151.3Y-60.8
X151.3Y-61.8
X151.5Y-79.9
X151.5Y-80.9
X151.5Y-81.9
X151.6Y-44.25
X151.65Y-69.8
X151.65Y-70.8
X151.65Y-71.8
X151.8Y-90.1
X151.8Y-91.1
X151.8Y-92.1
X152.3Y-39.8
X152.3Y-40.8
X152.3Y-41.8
X152.3Y-49.6
X152.3Y-50.6
X152.3Y-51.6
X152.3Y-59.8
X152.3Y-60.8
X152.3Y-61.8
X152.5Y-79.9
X152.5Y-80.9
X152.5Y-81.9
X152.6Y-54.6
X152.65Y-69.8
X152.65Y-70.8
X152.65Y-71.8
X152.7Y-64.8
X152.7Y-104.2
X152.8Y-90.1
X152.8Y-91.1
X152.8Y-92.1
X153.2Y-109.8
X153.3Y-39.8
X153.3Y-40.8
X153.3Y-41.8
X153.3Y-49.6
X153.3Y-50.6
X153.3Y-51.6
X153.3Y-59.8
X153.3Y-60.8
X153.3Y-61.8
X153.5Y-79.9
X153.5Y-80.9
X153.5Y-81.9
X153.65Y-69.8
X153.65Y-70.8
X153.65Y-71.8
X153.8Y-90.1
X153.8Y-91.1
X153.8Y-92.1
X153.9Y-104.251
X154.0Y-43.55
X154.1Y-83.65
X154.3Y-39.8
X154.3Y-40.8
X154.3Y-41.8
X154.3Y-49.6
X154.3Y-50.6
X154.3Y-51.6
X154.3Y-59.8
X154.3Y-60.8
X154.3Y-61.8
X154.35Y-73.6
X154.5Y-79.9
X154.5Y-80.9
X154.5Y-81.9
X154.553Y-101.295
X154.65Y-69.8
X154.65Y-70.8
X154.65Y-71.8
X154.7Y-112.6
X154.8Y-90.1
X154.8Y-91.1
X154.8Y-92.1
X155.26Y-100.588
X155.3Y-39.8
X155.3Y-40.8
X155.3Y-41.8
X155.3Y-49.6
X155.3Y-50.6
X155.3Y-51.6
X155.3Y-59.8
X155.3Y-60.8
X155.3Y-61.8
X155.5Y-79.9
X155.5Y-80.9
X155.5Y-81.9
X155.65Y-69.8
X155.65Y-70.8
X155.65Y-71.8
X155.8Y-91.1
X155.8Y-92.1
X155.8Y-95.425
X156.2Y-41.8
X156.2Y-99.6
X156.3Y-51.6
X156.3Y-61.8
X156.4Y-96.9
X156.4Y-113.2
X156.5Y-81.9
X156.6Y-71.8
X156.7Y-98.7
X156.75Y-92.35
X156.8Y-40.8
X156.8Y-94.4
X157.0Y-60.8
X157.005Y-91.25
X157.25Y-62.0
X157.3Y-49.4
X157.3Y-51.6
X157.325Y-70.925
X157.5Y-41.75
X157.5Y-81.9
X157.6Y-34.7
X157.7Y-80.25
X157.75Y-92.35
X157.9Y-113.6
X157.95Y-32.45
X158.0Y-71.8
X158.2Y-50.8
X158.25Y-62.0
X158.45Y-78.3
X158.5Y-81.9
X158.619Y-41.587
X158.65Y-101.3
X159.0Y-71.5
X159.65Y-72.25
X160.0Y-104.8
X160.5Y-51.5
X160.5Y-98.4
X160.5Y-101.9
X160.775Y-47.375
X160.875Y-42.38
X160.9Y-100.775
X161.077Y-86.595
X161.226Y-67.8
X161.257Y-82.807
X161.375Y-56.827
X161.9Y-83.815
X161.9Y-85.9
X161.925Y-42.38
X162.1Y-107.0
X162.2Y-110.0
X162.225Y-67.276
X162.3Y-112.1
X162.425Y-56.827
X162.5Y-59.9
X162.65Y-62.45
X162.9Y-104.7
X163.25Y-51.35
X163.35Y-61.75
X163.65Y-49.35
X163.9Y-72.1
X164.48Y-100.399
X164.615Y-73.185
X165.884Y-60.5
X166.0Y-62.5
X166.0Y-108.275
X166.0Y-109.325
X166.1Y-103.5
X166.2Y-32.9
X166.45Y-85.825
X166.6Y-105.6
X167.0Y-98.4
X167.9Y-105.1
X168.246Y-62.025
X168.55Y-52.85
X168.7Y-33.05
X168.7Y-57.85
X168.75Y-59.3
X168.85Y-92.05
X168.9Y-37.875
X168.9Y-102.1
X169.0Y-90.45
X169.025Y-97.5
X169.1Y-105.2
X169.2Y-62.325
X169.4Y-65.2
X169.6Y-110.4
X169.85Y-59.8
X169.9Y-72.4
X170.85Y-65.25
X171.3Y-96.8
X172.0Y-102.8
X172.1Y-104.9
X172.524Y-60.55
X172.54Y-65.467
X172.55Y-62.6
X172.8Y-61.6
X172.8Y-100.1
X174.4Y-101.9
X174.4Y-105.4
X174.9Y-59.576
X175.275Y-62.038
X175.35Y-65.75
T3
X70.096Y-68.31
X75.8Y-59.2
X77.846Y-80.346
X82.7Y-81.3
X85.075Y-87.775
X88.1Y-56.5
X97.466Y-90.396
X98.5Y-87.8
X108.2Y-43.2
X141.9Y-111.2
T5
X79.13Y-34.525
X79.13Y-38.025
X130.0Y-36.12
X130.0Y-44.82
X130.0Y-53.6
X130.0Y-71.7
X130.0Y-80.45
X130.0Y-89.275
X133.5Y-36.12
X133.5Y-44.82
X133.5Y-53.6
X133.5Y-71.7
X133.5Y-80.45
X133.5Y-89.275
T6
X135.175Y-106.925
X135.825Y-109.025
X136.4Y-104.825
X137.9Y-106.925
X137.9Y-109.025
X137.9Y-110.925
X139.4Y-104.825
X139.975Y-109.025
X140.625Y-106.925
X154.075Y-106.9
X154.725Y-109.0
X155.3Y-104.8
X156.8Y-106.9
X156.8Y-109.0
X156.8Y-110.9
X158.3Y-104.8
X158.875Y-109.0
X159.525Y-106.9
T7
X66.34Y-40.386
X66.34Y-42.926
X66.34Y-45.466
X66.34Y-48.006
X66.34Y-50.546
X66.34Y-53.086
X66.34Y-60.59
X66.34Y-63.13
X66.34Y-65.67
X66.34Y-68.21
X66.34Y-70.75
X66.34Y-75.97
X66.34Y-78.51
X66.34Y-81.05
X66.34Y-85.01
X66.34Y-87.55
X66.34Y-90.09
X66.34Y-95.42
X66.34Y-97.96
X66.34Y-100.5
X73.49Y-58.15
X73.49Y-60.69
X73.49Y-63.23
X73.49Y-65.77
X73.49Y-68.31
X73.49Y-70.85
X73.54Y-41.7
X73.54Y-44.24
X73.54Y-46.78
X73.54Y-49.32
X73.54Y-51.86
X73.54Y-54.4
X99.39Y-106.97
X99.39Y-109.51
X99.39Y-112.05
X100.627Y-98.012
X103.167Y-98.012
X105.707Y-98.012
X108.247Y-98.012
X110.787Y-98.012
X113.327Y-98.012
X121.865Y-105.127
X121.865Y-107.667
X121.865Y-110.207
X121.865Y-112.747
X162.663Y-95.51
X162.663Y-98.05
T8
X100.225Y-77.55
T9
X131.94Y-62.66
X139.14Y-62.66
X166.385Y-45.545
X167.035Y-79.82
X171.145Y-42.795
X171.145Y-48.295
X171.795Y-77.07
X171.795Y-82.57
T4
X71.23Y-108.245G85X71.23Y-109.345
G05
X71.23Y-112.675G85X71.23Y-113.275
G05
X79.87Y-108.245G85X79.87Y-109.345
G05
X79.87Y-112.675G85X79.87Y-113.275
G05
X83.93Y-108.245G85X83.93Y-109.345
G05
X83.93Y-112.675G85X83.93Y-113.275
G05
X92.57Y-108.245G85X92.57Y-109.345
G05
X92.57Y-112.675G85X92.57Y-113.275
G05
T0
M30
