G04 #@! TF.GenerationSoftware,KiCad,Pcbnew,6.0.0-rc2*
G04 #@! TF.CreationDate,2022-06-17T00:24:21-07:00*
G04 #@! TF.ProjectId,RP2040_motor,52503230-3430-45f6-9d6f-746f722e6b69,REV1*
G04 #@! TF.SameCoordinates,Original*
G04 #@! TF.FileFunction,Paste,Top*
G04 #@! TF.FilePolarity,Positive*
%FSLAX46Y46*%
G04 Gerber Fmt 4.6, Leading zero omitted, Abs format (unit mm)*
G04 Created by KiCad (PCBNEW 6.0.0-rc2) date 2022-06-17 00:24:21*
%MOMM*%
%LPD*%
G01*
G04 APERTURE LIST*
G04 Aperture macros list*
%AMRoundRect*
0 Rectangle with rounded corners*
0 $1 Rounding radius*
0 $2 $3 $4 $5 $6 $7 $8 $9 X,Y pos of 4 corners*
0 Add a 4 corners polygon primitive as box body*
4,1,4,$2,$3,$4,$5,$6,$7,$8,$9,$2,$3,0*
0 Add four circle primitives for the rounded corners*
1,1,$1+$1,$2,$3*
1,1,$1+$1,$4,$5*
1,1,$1+$1,$6,$7*
1,1,$1+$1,$8,$9*
0 Add four rect primitives between the rounded corners*
20,1,$1+$1,$2,$3,$4,$5,0*
20,1,$1+$1,$4,$5,$6,$7,0*
20,1,$1+$1,$6,$7,$8,$9,0*
20,1,$1+$1,$8,$9,$2,$3,0*%
G04 Aperture macros list end*
%ADD10C,0.100000*%
%ADD11RoundRect,0.243750X0.243750X0.456250X-0.243750X0.456250X-0.243750X-0.456250X0.243750X-0.456250X0*%
%ADD12RoundRect,0.225000X0.225000X0.250000X-0.225000X0.250000X-0.225000X-0.250000X0.225000X-0.250000X0*%
%ADD13RoundRect,0.225000X-0.250000X0.225000X-0.250000X-0.225000X0.250000X-0.225000X0.250000X0.225000X0*%
%ADD14RoundRect,0.225000X-0.225000X-0.250000X0.225000X-0.250000X0.225000X0.250000X-0.225000X0.250000X0*%
%ADD15RoundRect,0.225000X0.250000X-0.225000X0.250000X0.225000X-0.250000X0.225000X-0.250000X-0.225000X0*%
%ADD16RoundRect,0.147500X0.147500X0.172500X-0.147500X0.172500X-0.147500X-0.172500X0.147500X-0.172500X0*%
%ADD17R,1.500000X2.000000*%
%ADD18R,3.800000X2.000000*%
%ADD19RoundRect,0.150000X-0.150000X0.650000X-0.150000X-0.650000X0.150000X-0.650000X0.150000X0.650000X0*%
%ADD20RoundRect,0.200000X-0.200000X-0.275000X0.200000X-0.275000X0.200000X0.275000X-0.200000X0.275000X0*%
%ADD21RoundRect,0.200000X0.275000X-0.200000X0.275000X0.200000X-0.275000X0.200000X-0.275000X-0.200000X0*%
%ADD22RoundRect,0.243750X-0.456250X0.243750X-0.456250X-0.243750X0.456250X-0.243750X0.456250X0.243750X0*%
%ADD23RoundRect,0.250000X0.292217X0.292217X-0.292217X0.292217X-0.292217X-0.292217X0.292217X-0.292217X0*%
%ADD24RoundRect,0.050000X0.387500X0.050000X-0.387500X0.050000X-0.387500X-0.050000X0.387500X-0.050000X0*%
%ADD25RoundRect,0.050000X0.050000X0.387500X-0.050000X0.387500X-0.050000X-0.387500X0.050000X-0.387500X0*%
%ADD26RoundRect,0.250000X-0.250000X-0.475000X0.250000X-0.475000X0.250000X0.475000X-0.250000X0.475000X0*%
%ADD27RoundRect,0.150000X-0.150000X0.825000X-0.150000X-0.825000X0.150000X-0.825000X0.150000X0.825000X0*%
%ADD28RoundRect,0.625000X-1.075000X0.625000X-1.075000X-0.625000X1.075000X-0.625000X1.075000X0.625000X0*%
%ADD29R,1.200000X0.900000*%
%ADD30RoundRect,0.250000X1.500000X1.000000X-1.500000X1.000000X-1.500000X-1.000000X1.500000X-1.000000X0*%
%ADD31RoundRect,0.200000X-0.275000X0.200000X-0.275000X-0.200000X0.275000X-0.200000X0.275000X0.200000X0*%
%ADD32RoundRect,0.250000X-1.500000X-0.550000X1.500000X-0.550000X1.500000X0.550000X-1.500000X0.550000X0*%
%ADD33R,0.600000X0.700000*%
%ADD34RoundRect,0.250000X0.362500X1.425000X-0.362500X1.425000X-0.362500X-1.425000X0.362500X-1.425000X0*%
%ADD35RoundRect,0.200000X0.200000X0.275000X-0.200000X0.275000X-0.200000X-0.275000X0.200000X-0.275000X0*%
%ADD36R,1.270000X0.610000*%
%ADD37R,1.020000X0.610000*%
%ADD38R,3.810000X3.910000*%
%ADD39R,0.900000X1.200000*%
%ADD40R,2.500000X1.800000*%
%ADD41RoundRect,0.150000X0.825000X0.150000X-0.825000X0.150000X-0.825000X-0.150000X0.825000X-0.150000X0*%
%ADD42RoundRect,0.250000X-0.475000X0.250000X-0.475000X-0.250000X0.475000X-0.250000X0.475000X0.250000X0*%
%ADD43R,0.450000X0.600000*%
%ADD44R,5.500000X2.150000*%
%ADD45R,0.750000X0.900000*%
%ADD46RoundRect,0.250000X0.250000X0.475000X-0.250000X0.475000X-0.250000X-0.475000X0.250000X-0.475000X0*%
%ADD47RoundRect,0.100000X0.712500X0.100000X-0.712500X0.100000X-0.712500X-0.100000X0.712500X-0.100000X0*%
%ADD48R,1.400000X1.200000*%
%ADD49RoundRect,0.250000X0.625000X-0.312500X0.625000X0.312500X-0.625000X0.312500X-0.625000X-0.312500X0*%
%ADD50R,0.300000X1.150000*%
G04 APERTURE END LIST*
D10*
X93890999Y-85608000D02*
X93636999Y-85608000D01*
X93636999Y-85608000D02*
X93636999Y-86217600D01*
X93636999Y-86217600D02*
X93890999Y-86217600D01*
X93890999Y-86217600D02*
X93890999Y-85608000D01*
G36*
X93890999Y-86217600D02*
G01*
X93636999Y-86217600D01*
X93636999Y-85608000D01*
X93890999Y-85608000D01*
X93890999Y-86217600D01*
G37*
X93890999Y-86217600D02*
X93636999Y-86217600D01*
X93636999Y-85608000D01*
X93890999Y-85608000D01*
X93890999Y-86217600D01*
X93241000Y-85608000D02*
X92987000Y-85608000D01*
X92987000Y-85608000D02*
X92987000Y-86217600D01*
X92987000Y-86217600D02*
X93241000Y-86217600D01*
X93241000Y-86217600D02*
X93241000Y-85608000D01*
G36*
X93241000Y-86217600D02*
G01*
X92987000Y-86217600D01*
X92987000Y-85608000D01*
X93241000Y-85608000D01*
X93241000Y-86217600D01*
G37*
X93241000Y-86217600D02*
X92987000Y-86217600D01*
X92987000Y-85608000D01*
X93241000Y-85608000D01*
X93241000Y-86217600D01*
X92591001Y-85608000D02*
X92337001Y-85608000D01*
X92337001Y-85608000D02*
X92337001Y-86217600D01*
X92337001Y-86217600D02*
X92591001Y-86217600D01*
X92591001Y-86217600D02*
X92591001Y-85608000D01*
G36*
X92591001Y-86217600D02*
G01*
X92337001Y-86217600D01*
X92337001Y-85608000D01*
X92591001Y-85608000D01*
X92591001Y-86217600D01*
G37*
X92591001Y-86217600D02*
X92337001Y-86217600D01*
X92337001Y-85608000D01*
X92591001Y-85608000D01*
X92591001Y-86217600D01*
X92591001Y-88325800D02*
X92337001Y-88325800D01*
X92337001Y-88325800D02*
X92337001Y-88935400D01*
X92337001Y-88935400D02*
X92591001Y-88935400D01*
X92591001Y-88935400D02*
X92591001Y-88325800D01*
G36*
X92591001Y-88935400D02*
G01*
X92337001Y-88935400D01*
X92337001Y-88325800D01*
X92591001Y-88325800D01*
X92591001Y-88935400D01*
G37*
X92591001Y-88935400D02*
X92337001Y-88935400D01*
X92337001Y-88325800D01*
X92591001Y-88325800D01*
X92591001Y-88935400D01*
X93890999Y-88325800D02*
X93636999Y-88325800D01*
X93636999Y-88325800D02*
X93636999Y-88935400D01*
X93636999Y-88935400D02*
X93890999Y-88935400D01*
X93890999Y-88935400D02*
X93890999Y-88325800D01*
G36*
X93890999Y-88935400D02*
G01*
X93636999Y-88935400D01*
X93636999Y-88325800D01*
X93890999Y-88325800D01*
X93890999Y-88935400D01*
G37*
X93890999Y-88935400D02*
X93636999Y-88935400D01*
X93636999Y-88325800D01*
X93890999Y-88325800D01*
X93890999Y-88935400D01*
X93685500Y-86916100D02*
X92542500Y-86916100D01*
X92542500Y-86916100D02*
X92542500Y-87627300D01*
X92542500Y-87627300D02*
X93685500Y-87627300D01*
X93685500Y-87627300D02*
X93685500Y-86916100D01*
G36*
X93685500Y-87627300D02*
G01*
X92542500Y-87627300D01*
X92542500Y-86916100D01*
X93685500Y-86916100D01*
X93685500Y-87627300D01*
G37*
X93685500Y-87627300D02*
X92542500Y-87627300D01*
X92542500Y-86916100D01*
X93685500Y-86916100D01*
X93685500Y-87627300D01*
X93241000Y-88325800D02*
X92987000Y-88325800D01*
X92987000Y-88325800D02*
X92987000Y-88935400D01*
X92987000Y-88935400D02*
X93241000Y-88935400D01*
X93241000Y-88935400D02*
X93241000Y-88325800D01*
G36*
X93241000Y-88935400D02*
G01*
X92987000Y-88935400D01*
X92987000Y-88325800D01*
X93241000Y-88325800D01*
X93241000Y-88935400D01*
G37*
X93241000Y-88935400D02*
X92987000Y-88935400D01*
X92987000Y-88325800D01*
X93241000Y-88325800D01*
X93241000Y-88935400D01*
D11*
X99642500Y-99600000D03*
X97767500Y-99600000D03*
D12*
X86130000Y-111290000D03*
X84580000Y-111290000D03*
D13*
X88580000Y-110160000D03*
X88580000Y-111710000D03*
D14*
X98090000Y-102950000D03*
X99640000Y-102950000D03*
D15*
X103760000Y-116470000D03*
X103760000Y-114920000D03*
D16*
X102210000Y-106410000D03*
X101240000Y-106410000D03*
D17*
X98480000Y-97250000D03*
D18*
X100780000Y-90950000D03*
D17*
X100780000Y-97250000D03*
X103080000Y-97250000D03*
D19*
X101820000Y-110260000D03*
X100550000Y-110260000D03*
X99280000Y-110260000D03*
X98010000Y-110260000D03*
X98010000Y-117460000D03*
X99280000Y-117460000D03*
X100550000Y-117460000D03*
X101820000Y-117460000D03*
D12*
X90670000Y-95050000D03*
X89120000Y-95050000D03*
D20*
X101650000Y-107910000D03*
X103300000Y-107910000D03*
D13*
X91030000Y-111310000D03*
X91030000Y-112860000D03*
D12*
X84720000Y-103200000D03*
X83170000Y-103200000D03*
D15*
X90349000Y-98140000D03*
X90349000Y-96590000D03*
D21*
X85180000Y-115560000D03*
X85180000Y-113910000D03*
D15*
X88730000Y-98140000D03*
X88730000Y-96590000D03*
D22*
X103590000Y-99410000D03*
X103590000Y-101285000D03*
D14*
X97090000Y-108300000D03*
X98640000Y-108300000D03*
D12*
X86070000Y-109700000D03*
X84520000Y-109700000D03*
D23*
X92017500Y-104012500D03*
X90742500Y-105287500D03*
X90742500Y-104012500D03*
X92017500Y-105287500D03*
D24*
X94817500Y-107250000D03*
X94817500Y-106850000D03*
X94817500Y-106450000D03*
X94817500Y-106050000D03*
X94817500Y-105650000D03*
X94817500Y-105250000D03*
X94817500Y-104850000D03*
X94817500Y-104450000D03*
X94817500Y-104050000D03*
X94817500Y-103650000D03*
X94817500Y-103250000D03*
X94817500Y-102850000D03*
X94817500Y-102450000D03*
X94817500Y-102050000D03*
D25*
X93980000Y-101212500D03*
X93580000Y-101212500D03*
X93180000Y-101212500D03*
X92780000Y-101212500D03*
X92380000Y-101212500D03*
X91980000Y-101212500D03*
X91580000Y-101212500D03*
X91180000Y-101212500D03*
X90780000Y-101212500D03*
X90380000Y-101212500D03*
X89980000Y-101212500D03*
X89580000Y-101212500D03*
X89180000Y-101212500D03*
X88780000Y-101212500D03*
D24*
X87942500Y-102050000D03*
X87942500Y-102450000D03*
X87942500Y-102850000D03*
X87942500Y-103250000D03*
X87942500Y-103650000D03*
X87942500Y-104050000D03*
X87942500Y-104450000D03*
X87942500Y-104850000D03*
X87942500Y-105250000D03*
X87942500Y-105650000D03*
X87942500Y-106050000D03*
X87942500Y-106450000D03*
X87942500Y-106850000D03*
X87942500Y-107250000D03*
D25*
X88780000Y-108087500D03*
X89180000Y-108087500D03*
X89580000Y-108087500D03*
X89980000Y-108087500D03*
X90380000Y-108087500D03*
X90780000Y-108087500D03*
X91180000Y-108087500D03*
X91580000Y-108087500D03*
X91980000Y-108087500D03*
X92380000Y-108087500D03*
X92780000Y-108087500D03*
X93180000Y-108087500D03*
X93580000Y-108087500D03*
X93980000Y-108087500D03*
D15*
X95140000Y-93000000D03*
X95140000Y-91450000D03*
D21*
X83380000Y-115560000D03*
X83380000Y-113910000D03*
D13*
X92630000Y-111410000D03*
X92630000Y-112960000D03*
D12*
X86070000Y-108050000D03*
X84520000Y-108050000D03*
D21*
X92280000Y-97860000D03*
X92280000Y-96210000D03*
D22*
X101540000Y-99437500D03*
X101540000Y-101312500D03*
D12*
X114524100Y-73020000D03*
X112974100Y-73020000D03*
D26*
X112330900Y-102780000D03*
X114230900Y-102780000D03*
D27*
X93245000Y-75825000D03*
X91975000Y-75825000D03*
X90705000Y-75825000D03*
X89435000Y-75825000D03*
X89435000Y-80775000D03*
X90705000Y-80775000D03*
X91975000Y-80775000D03*
X93245000Y-80775000D03*
D28*
X91340000Y-78300000D03*
D29*
X117740000Y-103450000D03*
X117740000Y-100150000D03*
D30*
X127950000Y-116650000D03*
X121450000Y-116650000D03*
D31*
X107690000Y-112000000D03*
X107690000Y-113650000D03*
D32*
X96155000Y-71420000D03*
X101555000Y-71420000D03*
D33*
X99290000Y-79650000D03*
X100690000Y-79650000D03*
D34*
X154262500Y-114140000D03*
X148337500Y-114140000D03*
D12*
X145265000Y-97300000D03*
X143715000Y-97300000D03*
D35*
X145305000Y-91710000D03*
X143655000Y-91710000D03*
D36*
X146220000Y-118935000D03*
X146220000Y-120205000D03*
X146220000Y-117665000D03*
X146220000Y-116395000D03*
D37*
X140755000Y-117665000D03*
X140755000Y-118935000D03*
D38*
X142860000Y-118300000D03*
D37*
X140755000Y-120205000D03*
X140755000Y-116395000D03*
D31*
X158610000Y-91995000D03*
X158610000Y-93645000D03*
D34*
X154262500Y-84260000D03*
X148337500Y-84260000D03*
D31*
X83240000Y-93675000D03*
X83240000Y-95325000D03*
D21*
X158659100Y-97190000D03*
X158659100Y-95540000D03*
D13*
X117560000Y-80125900D03*
X117560000Y-81675900D03*
D39*
X151450000Y-68970000D03*
X154750000Y-68970000D03*
D31*
X84880000Y-93685000D03*
X84880000Y-95335000D03*
D20*
X83595000Y-117860000D03*
X85245000Y-117860000D03*
D36*
X146220000Y-71364500D03*
X146220000Y-72634500D03*
X146220000Y-70094500D03*
X146220000Y-68824500D03*
D37*
X140755000Y-70094500D03*
X140755000Y-72634500D03*
X140755000Y-68824500D03*
X140755000Y-71364500D03*
D38*
X142860000Y-70729500D03*
D31*
X107859000Y-95490000D03*
X107859000Y-97140000D03*
X109469000Y-76910000D03*
X109469000Y-78560000D03*
D39*
X134421000Y-105875000D03*
X137721000Y-105875000D03*
D35*
X85185000Y-119570000D03*
X83535000Y-119570000D03*
D40*
X97985000Y-76900000D03*
X101985000Y-76900000D03*
D26*
X112720900Y-94100000D03*
X114620900Y-94100000D03*
D41*
X114924100Y-109155000D03*
X114924100Y-107885000D03*
X114924100Y-106615000D03*
X114924100Y-105345000D03*
X109974100Y-105345000D03*
X109974100Y-106615000D03*
X109974100Y-107885000D03*
X109974100Y-109155000D03*
D30*
X127950000Y-80620000D03*
X121450000Y-80620000D03*
D42*
X86400000Y-68845000D03*
X86400000Y-70745000D03*
D31*
X107769000Y-100090000D03*
X107769000Y-101740000D03*
D21*
X84910000Y-92025000D03*
X84910000Y-90375000D03*
D14*
X155246600Y-95645000D03*
X156796600Y-95645000D03*
D43*
X106000000Y-86645000D03*
X106000000Y-88745000D03*
D21*
X153521900Y-97310000D03*
X153521900Y-95660000D03*
D29*
X117740000Y-120350000D03*
X117740000Y-117050000D03*
D14*
X155225000Y-93570000D03*
X156775000Y-93570000D03*
D12*
X145265000Y-93350000D03*
X143715000Y-93350000D03*
D36*
X146220000Y-80975000D03*
X146220000Y-78435000D03*
X146220000Y-79705000D03*
X146220000Y-77165000D03*
D38*
X142860000Y-79070000D03*
D37*
X140755000Y-79705000D03*
X140755000Y-80975000D03*
X140755000Y-77165000D03*
X140755000Y-78435000D03*
D44*
X90695000Y-73045000D03*
X90695000Y-69195000D03*
D34*
X154262500Y-101280000D03*
X148337500Y-101280000D03*
D21*
X87820000Y-76970000D03*
X87820000Y-75320000D03*
D34*
X154262500Y-75540000D03*
X148337500Y-75540000D03*
D43*
X109400000Y-73220000D03*
X109400000Y-75320000D03*
D21*
X142080000Y-93425000D03*
X142080000Y-91775000D03*
D29*
X105290000Y-68730000D03*
X105290000Y-72030000D03*
D36*
X137620000Y-78435000D03*
X137620000Y-79705000D03*
X137620000Y-80975000D03*
X137620000Y-77165000D03*
D37*
X132155000Y-79705000D03*
X132155000Y-78435000D03*
D38*
X134260000Y-79070000D03*
D37*
X132155000Y-80975000D03*
X132155000Y-77165000D03*
D36*
X137620000Y-86885000D03*
X137620000Y-89425000D03*
X137620000Y-88155000D03*
X137620000Y-85615000D03*
D38*
X134260000Y-87520000D03*
D37*
X132155000Y-88155000D03*
X132155000Y-89425000D03*
X132155000Y-85615000D03*
X132155000Y-86885000D03*
D41*
X116674100Y-78525000D03*
X116674100Y-77255000D03*
X116674100Y-75985000D03*
X116674100Y-74715000D03*
X111724100Y-74715000D03*
X111724100Y-75985000D03*
X111724100Y-77255000D03*
X111724100Y-78525000D03*
D31*
X107559000Y-73610000D03*
X107559000Y-75260000D03*
D45*
X114440000Y-71450000D03*
X115940000Y-71450000D03*
X115940000Y-68750000D03*
X114440000Y-68750000D03*
D31*
X107909000Y-80815000D03*
X107909000Y-82465000D03*
D36*
X146220000Y-86885000D03*
X146220000Y-88155000D03*
X146220000Y-89425000D03*
X146220000Y-85615000D03*
D37*
X140755000Y-86885000D03*
X140755000Y-89425000D03*
X140755000Y-88155000D03*
X140755000Y-85615000D03*
D38*
X142860000Y-87520000D03*
D46*
X111749100Y-80400000D03*
X109849100Y-80400000D03*
D13*
X93990000Y-83025000D03*
X93990000Y-84575000D03*
D41*
X115134100Y-91895000D03*
X115134100Y-90625000D03*
X115134100Y-89355000D03*
X115134100Y-88085000D03*
X110184100Y-88085000D03*
X110184100Y-89355000D03*
X110184100Y-90625000D03*
X110184100Y-91895000D03*
D34*
X154262500Y-105320000D03*
X148337500Y-105320000D03*
D41*
X114934100Y-116925000D03*
X114934100Y-115655000D03*
X114934100Y-114385000D03*
X114934100Y-113115000D03*
X109984100Y-113115000D03*
X109984100Y-114385000D03*
X109984100Y-115655000D03*
X109984100Y-116925000D03*
D21*
X91964900Y-84763000D03*
X91964900Y-83113000D03*
D41*
X115124100Y-86275000D03*
X115124100Y-85005000D03*
X115124100Y-83735000D03*
X115124100Y-82465000D03*
X110174100Y-82465000D03*
X110174100Y-83735000D03*
X110174100Y-85005000D03*
X110174100Y-86275000D03*
D31*
X107811000Y-108305000D03*
X107811000Y-109955000D03*
D43*
X106000000Y-83320000D03*
X106000000Y-85420000D03*
D20*
X95973900Y-79510000D03*
X97623900Y-79510000D03*
D34*
X154262500Y-110120000D03*
X148337500Y-110120000D03*
D36*
X146220000Y-110485000D03*
X146220000Y-109215000D03*
X146220000Y-111755000D03*
X146220000Y-107945000D03*
D37*
X140755000Y-109215000D03*
X140755000Y-107945000D03*
X140755000Y-111755000D03*
D38*
X142860000Y-109850000D03*
D37*
X140755000Y-110485000D03*
D30*
X127950000Y-107600000D03*
X121450000Y-107600000D03*
D39*
X142361000Y-114335000D03*
X145661000Y-114335000D03*
X143050000Y-105875000D03*
X146350000Y-105875000D03*
D31*
X107709000Y-103795000D03*
X107709000Y-105445000D03*
D26*
X112630900Y-111080000D03*
X114530900Y-111080000D03*
D31*
X107890000Y-86970000D03*
X107890000Y-88620000D03*
D39*
X101140000Y-119800000D03*
X97840000Y-119800000D03*
D36*
X137620000Y-72625000D03*
X137620000Y-70085000D03*
X137620000Y-71355000D03*
X137620000Y-68815000D03*
D37*
X132155000Y-71355000D03*
D38*
X134260000Y-70720000D03*
D37*
X132155000Y-72625000D03*
X132155000Y-70085000D03*
X132155000Y-68815000D03*
D43*
X106000000Y-91520000D03*
X106000000Y-93620000D03*
D47*
X151452500Y-97375000D03*
X151452500Y-96725000D03*
X151452500Y-96075000D03*
X151452500Y-95425000D03*
X147227500Y-95425000D03*
X147227500Y-96075000D03*
X147227500Y-96725000D03*
X147227500Y-97375000D03*
D43*
X106000000Y-79970000D03*
X106000000Y-82070000D03*
X105800000Y-95300000D03*
X105800000Y-97400000D03*
D39*
X134471000Y-83045000D03*
X137771000Y-83045000D03*
D20*
X138796900Y-97138000D03*
X140446900Y-97138000D03*
D12*
X140405000Y-93460000D03*
X138855000Y-93460000D03*
D41*
X114974100Y-100705000D03*
X114974100Y-99435000D03*
X114974100Y-98165000D03*
X114974100Y-96895000D03*
X110024100Y-96895000D03*
X110024100Y-98165000D03*
X110024100Y-99435000D03*
X110024100Y-100705000D03*
D36*
X137620000Y-110485000D03*
X137620000Y-111755000D03*
X137620000Y-109215000D03*
X137620000Y-107945000D03*
D37*
X132155000Y-110485000D03*
X132155000Y-107945000D03*
D38*
X134260000Y-109850000D03*
D37*
X132155000Y-109215000D03*
X132155000Y-111755000D03*
D48*
X90840000Y-93150000D03*
X93040000Y-93150000D03*
X93040000Y-91450000D03*
X90840000Y-91450000D03*
D35*
X145360000Y-95630900D03*
X143710000Y-95630900D03*
D31*
X107590000Y-116800000D03*
X107590000Y-118450000D03*
D30*
X127950000Y-98600000D03*
X121450000Y-98600000D03*
D43*
X107600000Y-76670000D03*
X107600000Y-78770000D03*
D31*
X83090000Y-97485000D03*
X83090000Y-99135000D03*
D47*
X151452500Y-93715000D03*
X151452500Y-93065000D03*
X151452500Y-92415000D03*
X151452500Y-91765000D03*
X147227500Y-91765000D03*
X147227500Y-92415000D03*
X147227500Y-93065000D03*
X147227500Y-93715000D03*
D45*
X111040000Y-71450000D03*
X112540000Y-71450000D03*
X112540000Y-68750000D03*
X111040000Y-68750000D03*
D31*
X107790000Y-91770000D03*
X107790000Y-93420000D03*
D12*
X140383400Y-95425000D03*
X138833400Y-95425000D03*
D29*
X117840000Y-86520000D03*
X117840000Y-83220000D03*
D36*
X137620000Y-117665000D03*
X137620000Y-120205000D03*
X137620000Y-118935000D03*
X137620000Y-116395000D03*
D37*
X132155000Y-116395000D03*
X132155000Y-118935000D03*
X132155000Y-120205000D03*
X132155000Y-117665000D03*
D38*
X134260000Y-118300000D03*
D39*
X133650000Y-91755000D03*
X136950000Y-91755000D03*
X134421000Y-114335000D03*
X137721000Y-114335000D03*
D13*
X117260000Y-113405900D03*
X117260000Y-114955900D03*
D21*
X153480000Y-93605000D03*
X153480000Y-91955000D03*
D13*
X117460000Y-88375900D03*
X117460000Y-89925900D03*
D35*
X156883100Y-97242000D03*
X155233100Y-97242000D03*
D39*
X134550000Y-74695000D03*
X137850000Y-74695000D03*
X143161000Y-74695000D03*
X146461000Y-74695000D03*
X134050000Y-97250000D03*
X137350000Y-97250000D03*
D14*
X95715000Y-88810000D03*
X97265000Y-88810000D03*
D43*
X105800000Y-111675000D03*
X105800000Y-113775000D03*
D39*
X151161000Y-119935000D03*
X154461000Y-119935000D03*
D36*
X146220000Y-103314500D03*
X146220000Y-100774500D03*
X146220000Y-102044500D03*
X146220000Y-99504500D03*
D37*
X140755000Y-103314500D03*
X140755000Y-100774500D03*
D38*
X142860000Y-101409500D03*
D37*
X140755000Y-99504500D03*
X140755000Y-102044500D03*
D36*
X137620000Y-102035000D03*
X137620000Y-103305000D03*
X137620000Y-100765000D03*
X137620000Y-99495000D03*
D37*
X132155000Y-103305000D03*
D38*
X134260000Y-101400000D03*
D37*
X132155000Y-99495000D03*
X132155000Y-102035000D03*
X132155000Y-100765000D03*
D31*
X86590000Y-93695000D03*
X86590000Y-95345000D03*
D21*
X142121900Y-97140000D03*
X142121900Y-95490000D03*
D45*
X107640000Y-71450000D03*
X109140000Y-71450000D03*
X109140000Y-68750000D03*
X107640000Y-68750000D03*
D34*
X154262500Y-79640000D03*
X148337500Y-79640000D03*
X154262500Y-88200000D03*
X148337500Y-88200000D03*
D43*
X105800000Y-103450000D03*
X105800000Y-105550000D03*
X105800000Y-99850000D03*
X105800000Y-101950000D03*
D31*
X107911000Y-83925000D03*
X107911000Y-85575000D03*
D26*
X112520900Y-119130000D03*
X114420900Y-119130000D03*
D29*
X117640000Y-111800000D03*
X117640000Y-108500000D03*
D31*
X86390000Y-97475000D03*
X86390000Y-99125000D03*
D13*
X117360000Y-105205900D03*
X117360000Y-106755900D03*
D31*
X84780000Y-97475000D03*
X84780000Y-99125000D03*
D30*
X127950000Y-89570000D03*
X121450000Y-89570000D03*
D43*
X105800000Y-116550000D03*
X105800000Y-118650000D03*
D35*
X156805000Y-91900000D03*
X155155000Y-91900000D03*
D49*
X84070000Y-71967500D03*
X84070000Y-69042500D03*
D43*
X105800000Y-108000000D03*
X105800000Y-110100000D03*
D26*
X113630900Y-80450000D03*
X115530900Y-80450000D03*
D29*
X117940000Y-94770000D03*
X117940000Y-91470000D03*
D42*
X95210000Y-75895000D03*
X95210000Y-77795000D03*
D39*
X142961000Y-83105000D03*
X146261000Y-83105000D03*
D21*
X86170000Y-74210000D03*
X86170000Y-72560000D03*
D13*
X117510000Y-96745900D03*
X117510000Y-98295900D03*
D31*
X83280000Y-90375000D03*
X83280000Y-92025000D03*
D15*
X85290000Y-77375000D03*
X85290000Y-75825000D03*
D50*
X88040000Y-114980000D03*
X88840000Y-114980000D03*
X90140000Y-114980000D03*
X91140000Y-114980000D03*
X91640000Y-114980000D03*
X92640000Y-114980000D03*
X93940000Y-114980000D03*
X94740000Y-114980000D03*
X94440000Y-114980000D03*
X93640000Y-114980000D03*
X93140000Y-114980000D03*
X92140000Y-114980000D03*
X90640000Y-114980000D03*
X89640000Y-114980000D03*
X89140000Y-114980000D03*
X88340000Y-114980000D03*
D20*
X138765000Y-91800000D03*
X140415000Y-91800000D03*
G36*
X105759191Y-73968907D02*
G01*
X105795155Y-74018407D01*
X105800000Y-74049000D01*
X105800000Y-75951000D01*
X105781093Y-76009191D01*
X105731593Y-76045155D01*
X105701000Y-76050000D01*
X104699000Y-76050000D01*
X104640809Y-76031093D01*
X104604845Y-75981593D01*
X104600000Y-75951000D01*
X104600000Y-74049000D01*
X104618907Y-73990809D01*
X104668407Y-73954845D01*
X104699000Y-73950000D01*
X105701000Y-73950000D01*
X105759191Y-73968907D01*
G37*
M02*
