M48
; DRILL file {KiCad 7.0.1-3b83917a11~171~ubuntu22.04.1} date Fri 24 Mar 2023 04:48:57 PM PDT
; FORMAT={-:-/ absolute / metric / decimal}
; #@! TF.CreationDate,2023-03-24T16:48:57-07:00
; #@! TF.GenerationSoftware,Kicad,Pcbnew,7.0.1-3b83917a11~171~ubuntu22.04.1
; #@! TF.FileFunction,Plated,1,4,PTH
FMAT,2
METRIC
; #@! TA.AperFunction,Plated,PTH,ViaDrill
T1C0.200
; #@! TA.AperFunction,Plated,PTH,ComponentDrill
T2C0.200
; #@! TA.AperFunction,Plated,PTH,ComponentDrill
T3C0.350
; #@! TA.AperFunction,Plated,PTH,ViaDrill
T4C0.400
; #@! TA.AperFunction,Plated,PTH,ViaDrill
T5C0.500
; #@! TA.AperFunction,Plated,PTH,ComponentDrill
T6C0.600
; #@! TA.AperFunction,Plated,PTH,ComponentDrill
T7C0.890
; #@! TA.AperFunction,Plated,PTH,ComponentDrill
T8C1.000
; #@! TA.AperFunction,Plated,PTH,ComponentDrill
T9C1.190
; #@! TA.AperFunction,Plated,PTH,ComponentDrill
T10C1.600
; #@! TA.AperFunction,Plated,PTH,ComponentDrill
T11C1.800
; #@! TA.AperFunction,Plated,PTH,ComponentDrill
T12C3.900
; #@! TA.AperFunction,Plated,PTH,ComponentDrill
T13C4.500
%
G90
G05
T1
X66.85Y-105.95
X72.05Y-65.4
X72.45Y-81.66
X72.506Y-87.334
X73.3Y-93.8
X74.1Y-106.6
X74.787Y-96.45
X75.13Y-61.33
X75.4Y-58.35
X75.637Y-96.45
X75.9Y-106.6
X76.3Y-95.05
X76.4Y-87.65
X77.1Y-97.15
X77.9Y-98.15
X78.15Y-94.175
X78.3Y-88.15
X79.011Y-98.887
X79.1Y-87.1
X79.1Y-99.9
X80.0Y-79.25
X80.1Y-94.9
X80.6Y-106.75
X80.872Y-86.072
X80.933Y-83.501
X81.164Y-95.116
X81.522Y-85.422
X81.716Y-87.816
X81.747Y-79.508
X81.851Y-88.699
X81.9Y-74.845
X82.0Y-78.75
X82.085Y-76.935
X82.17Y-84.774
X82.316Y-87.216
X82.4Y-76.2
X82.5Y-57.1
X82.508Y-77.613
X82.512Y-94.456
X82.6Y-84.1
X82.8Y-104.7
X82.824Y-54.254
X82.825Y-70.325
X82.874Y-95.4
X83.007Y-78.4
X83.621Y-95.803
X83.649Y-94.971
X84.148Y-96.404
X84.15Y-98.9
X84.203Y-93.829
X84.25Y-54.8
X84.7Y-67.55
X84.7Y-103.9
X84.85Y-58.85
X85.1Y-76.55
X85.3Y-84.345
X85.485Y-75.793
X85.8Y-55.9
X85.9Y-73.0
X85.903Y-54.584
X86.093Y-84.446
X86.2Y-76.15
X86.306Y-95.709
X86.309Y-83.676
X86.4Y-106.3
X86.475Y-99.0
X86.489Y-71.036
X86.51Y-93.957
X86.85Y-71.749
X86.938Y-70.18
X87.325Y-99.0
X87.4Y-72.8
X87.505Y-85.7
X87.8Y-106.6
X88.1Y-63.9
X88.146Y-85.222
X88.15Y-62.65
X88.447Y-73.61
X88.793Y-85.692
X88.9Y-68.19
X89.05Y-81.4
X89.419Y-97.339
X89.569Y-86.151
X89.66Y-82.0
X89.837Y-98.02
X90.0Y-86.824
X90.3Y-96.524
X90.3Y-97.324
X90.5Y-100.5
X91.35Y-106.4
X92.1Y-104.25
X92.299Y-93.101
X92.4Y-54.0
X92.901Y-92.499
X93.4Y-84.9
X93.5Y-58.1
X93.6Y-66.8
X93.7Y-68.35
X93.9Y-98.65
X93.95Y-79.65
X94.0Y-83.3
X94.3Y-65.8
X94.35Y-80.9
X94.4Y-55.65
X94.5Y-61.9
X94.8Y-71.393
X94.804Y-70.594
X94.85Y-72.4
X94.899Y-68.625
X95.095Y-69.478
X95.1Y-81.5
X95.151Y-79.103
X95.191Y-83.058
X95.3Y-73.1
X95.32Y-82.269
X95.4Y-94.65
X95.5Y-70.2
X95.55Y-53.3
X95.6Y-91.5
X95.946Y-79.019
X96.2Y-57.3
X96.25Y-73.5
X96.3Y-74.4
X96.39Y-59.79
X96.484Y-58.384
X96.975Y-102.15
X97.05Y-53.25
X97.1Y-76.15
X97.25Y-67.55
X97.3Y-86.1
X97.597Y-78.563
X97.6Y-75.501
X97.8Y-76.7
X97.958Y-58.825
X98.1Y-56.5
X98.1Y-59.79
X98.197Y-77.99
X98.3Y-94.9
X98.4Y-62.7
X98.524Y-71.824
X98.6Y-77.3
X98.6Y-80.9
X99.201Y-94.601
X99.275Y-65.525
X99.3Y-84.2
X99.313Y-95.393
X99.524Y-70.824
X99.665Y-62.774
X100.001Y-64.7
X100.1Y-56.2
X100.25Y-53.1
X100.71Y-86.26
X100.9Y-73.75
X101.25Y-69.65
X101.487Y-98.087
X101.8Y-82.0
X102.288Y-86.569
X102.4Y-57.45
X102.4Y-75.2
X103.0Y-82.5
X103.068Y-52.857
X103.35Y-73.45
X103.5Y-84.25
X104.15Y-56.4
X104.268Y-88.203
X104.475Y-72.85
X104.5Y-78.827
X104.75Y-65.605
X105.6Y-55.65
X105.891Y-42.809
X106.002Y-82.348
X106.025Y-73.15
X106.031Y-64.85
X106.055Y-81.55
X106.1Y-73.95
X106.326Y-85.493
X106.4Y-48.2
X106.65Y-67.05
X107.25Y-42.25
X107.35Y-44.35
X107.6Y-76.0
X107.75Y-83.05
X107.809Y-77.056
X107.821Y-59.042
X107.895Y-49.279
X109.023Y-83.573
X109.066Y-46.4
X109.315Y-71.88
X109.589Y-49.154
X109.59Y-58.92
X109.75Y-44.5
X109.8Y-64.1
X109.8Y-79.0
X109.91Y-85.698
X110.285Y-54.875
X110.525Y-84.475
X110.59Y-72.0
X110.65Y-56.9
X111.05Y-78.7
X111.094Y-64.142
X111.25Y-85.749
X111.822Y-66.792
X111.925Y-71.675
X112.05Y-54.35
X112.249Y-98.499
X112.35Y-64.15
X112.35Y-83.95
X112.4Y-76.55
X112.5Y-78.7
X112.863Y-88.887
X114.8Y-77.4
X115.15Y-70.05
X115.968Y-70.082
X116.75Y-70.25
X118.4Y-93.9
X118.912Y-94.514
X119.8Y-94.999
X121.974Y-95.274
X123.275Y-96.599
X123.4Y-95.2
X123.7Y-107.3
X124.6Y-97.4
X124.8Y-94.789
X126.9Y-101.6
X134.6Y-77.15
X134.6Y-77.9
X134.6Y-78.65
X134.6Y-79.4
X134.6Y-80.15
X134.841Y-86.53
X134.841Y-87.28
X134.841Y-88.03
X134.841Y-88.78
X134.841Y-89.53
X134.85Y-68.5
X134.85Y-69.25
X134.85Y-70.0
X134.85Y-70.75
X134.85Y-71.5
X134.95Y-49.07
X134.95Y-49.82
X134.95Y-50.57
X134.95Y-51.32
X134.95Y-52.07
X135.0Y-40.92
X135.0Y-41.67
X135.0Y-42.42
X135.0Y-43.17
X135.0Y-43.92
X135.091Y-57.6
X135.091Y-58.35
X135.091Y-59.1
X135.091Y-59.85
X135.091Y-60.6
X135.35Y-77.15
X135.35Y-77.9
X135.35Y-78.65
X135.35Y-79.4
X135.35Y-80.15
X135.591Y-86.53
X135.591Y-87.28
X135.591Y-88.03
X135.591Y-88.78
X135.591Y-89.53
X135.6Y-68.5
X135.6Y-69.25
X135.6Y-70.0
X135.6Y-70.75
X135.6Y-71.5
X135.7Y-49.07
X135.7Y-49.82
X135.7Y-50.57
X135.7Y-51.32
X135.7Y-52.07
X135.75Y-40.92
X135.75Y-41.67
X135.75Y-42.42
X135.75Y-43.17
X135.75Y-43.92
X135.841Y-57.6
X135.841Y-58.35
X135.841Y-59.1
X135.841Y-59.85
X135.841Y-60.6
X136.1Y-77.15
X136.1Y-77.9
X136.1Y-80.15
X136.112Y-78.65
X136.112Y-79.4
X136.332Y-69.25
X136.332Y-70.0
X136.341Y-86.53
X136.341Y-87.28
X136.341Y-88.03
X136.341Y-88.78
X136.341Y-89.53
X136.35Y-68.5
X136.35Y-70.75
X136.35Y-71.5
X136.45Y-49.07
X136.45Y-49.82
X136.45Y-52.07
X136.462Y-50.57
X136.462Y-51.32
X136.482Y-41.67
X136.482Y-42.42
X136.5Y-40.92
X136.5Y-43.17
X136.5Y-43.92
X136.591Y-57.6
X136.591Y-58.35
X136.591Y-59.1
X136.591Y-59.85
X136.591Y-60.6
X136.85Y-77.15
X136.85Y-77.9
X136.85Y-78.65
X136.85Y-79.4
X137.091Y-86.53
X137.091Y-87.28
X137.091Y-88.03
X137.091Y-88.78
X137.091Y-89.53
X137.1Y-68.5
X137.1Y-69.25
X137.1Y-70.0
X137.1Y-70.75
X137.1Y-71.5
X137.2Y-49.07
X137.2Y-49.82
X137.2Y-50.57
X137.2Y-51.32
X137.2Y-52.07
X137.25Y-40.92
X137.25Y-41.67
X137.25Y-42.42
X137.25Y-43.17
X137.25Y-43.92
X137.341Y-57.6
X137.341Y-58.35
X137.341Y-59.1
X137.341Y-59.85
X137.341Y-60.6
X138.25Y-94.899
X138.8Y-81.7
X139.075Y-91.375
X139.075Y-92.125
X139.075Y-92.875
X139.25Y-45.8
X139.25Y-46.55
X139.25Y-47.3
X139.3Y-63.05
X139.3Y-63.8
X139.3Y-64.55
X139.5Y-81.7
X139.5Y-82.45
X139.825Y-91.375
X139.825Y-92.125
X139.825Y-92.875
X140.0Y-45.8
X140.0Y-46.55
X140.0Y-47.3
X140.0Y-54.0
X140.0Y-54.75
X140.0Y-55.5
X140.0Y-69.2
X140.0Y-70.8
X140.05Y-63.05
X140.05Y-63.8
X140.05Y-64.55
X140.1Y-73.3
X140.1Y-74.05
X140.1Y-74.8
X140.181Y-70.0
X140.2Y-49.8
X140.2Y-50.7
X140.25Y-41.85
X140.25Y-42.6
X140.25Y-43.35
X140.25Y-44.1
X140.25Y-58.25
X140.25Y-59.0
X140.25Y-59.75
X140.25Y-60.5
X140.25Y-61.25
X140.25Y-81.7
X140.25Y-82.45
X140.25Y-83.2
X140.4Y-51.4
X140.575Y-91.375
X140.575Y-92.125
X140.575Y-92.875
X140.631Y-87.061
X140.631Y-87.811
X140.631Y-88.561
X140.631Y-89.311
X140.7Y-45.8
X140.7Y-46.55
X140.7Y-47.3
X140.75Y-54.0
X140.75Y-54.75
X140.75Y-55.5
X140.8Y-77.95
X140.8Y-78.7
X140.8Y-79.45
X140.801Y-77.2
X140.831Y-68.261
X140.831Y-69.011
X140.85Y-73.3
X140.85Y-74.05
X140.85Y-74.8
X140.9Y-63.1
X140.9Y-63.85
X140.9Y-64.6
X140.9Y-71.375
X140.95Y-69.75
X140.95Y-70.511
X141.0Y-41.1
X141.0Y-41.85
X141.0Y-42.6
X141.0Y-43.35
X141.0Y-44.1
X141.0Y-81.75
X141.0Y-82.5
X141.0Y-83.25
X141.09Y-58.64
X141.09Y-59.39
X141.09Y-60.14
X141.09Y-60.89
X141.2Y-49.6
X141.2Y-50.4
X141.2Y-51.2
X141.325Y-91.375
X141.325Y-92.125
X141.325Y-92.875
X141.45Y-45.8
X141.45Y-46.55
X141.45Y-47.3
X141.5Y-54.0
X141.5Y-54.75
X141.5Y-55.5
X141.6Y-73.3
X141.6Y-74.05
X141.6Y-74.8
X141.65Y-63.1
X141.65Y-63.85
X141.65Y-64.6
X141.68Y-76.869
X141.68Y-77.619
X141.68Y-78.369
X141.68Y-79.119
X141.7Y-80.0
X141.75Y-41.1
X141.75Y-41.85
X141.75Y-42.6
X141.75Y-43.35
X141.75Y-44.1
X141.75Y-81.75
X141.75Y-82.5
X141.75Y-83.25
X141.775Y-71.325
X141.78Y-68.369
X141.78Y-69.119
X141.78Y-69.869
X141.78Y-70.619
X141.78Y-86.919
X141.78Y-87.669
X141.78Y-88.419
X141.78Y-89.169
X141.85Y-59.1
X141.85Y-59.85
X141.85Y-60.6
X141.85Y-61.35
X141.9Y-48.55
X141.93Y-49.389
X141.93Y-50.139
X141.93Y-50.889
X141.93Y-51.639
X142.075Y-91.375
X142.075Y-92.125
X142.075Y-92.875
X142.2Y-45.8
X142.2Y-46.55
X142.2Y-47.3
X142.25Y-53.9
X142.25Y-54.65
X142.25Y-55.4
X142.3Y-73.3
X142.3Y-74.05
X142.3Y-74.8
X142.35Y-63.1
X142.35Y-63.85
X142.35Y-64.6
X142.43Y-76.869
X142.43Y-77.619
X142.43Y-78.369
X142.43Y-79.119
X142.45Y-80.0
X142.451Y-95.346
X142.5Y-41.1
X142.5Y-41.85
X142.5Y-42.6
X142.5Y-43.35
X142.5Y-44.1
X142.5Y-81.75
X142.5Y-82.5
X142.5Y-83.25
X142.525Y-71.325
X142.53Y-68.369
X142.53Y-69.119
X142.53Y-69.869
X142.53Y-70.619
X142.53Y-86.919
X142.53Y-87.669
X142.53Y-88.419
X142.53Y-89.169
X142.6Y-59.1
X142.6Y-59.85
X142.6Y-60.6
X142.6Y-61.35
X142.65Y-48.55
X142.68Y-49.389
X142.68Y-50.139
X142.68Y-50.889
X142.68Y-51.639
X142.825Y-91.375
X142.825Y-92.125
X142.825Y-92.875
X142.9Y-45.8
X142.9Y-46.55
X142.9Y-47.3
X143.0Y-53.9
X143.0Y-54.65
X143.0Y-55.4
X143.05Y-73.3
X143.05Y-74.05
X143.05Y-74.8
X143.1Y-63.1
X143.1Y-63.85
X143.1Y-64.6
X143.18Y-76.869
X143.18Y-77.619
X143.18Y-78.369
X143.18Y-79.119
X143.2Y-80.0
X143.25Y-41.1
X143.25Y-41.85
X143.25Y-42.6
X143.25Y-43.35
X143.25Y-44.1
X143.25Y-81.75
X143.25Y-82.5
X143.25Y-83.25
X143.275Y-71.325
X143.28Y-68.369
X143.28Y-69.119
X143.28Y-69.869
X143.28Y-70.619
X143.28Y-86.919
X143.28Y-87.669
X143.28Y-88.419
X143.28Y-89.169
X143.35Y-59.1
X143.35Y-59.85
X143.35Y-60.6
X143.35Y-61.35
X143.4Y-48.55
X143.43Y-49.389
X143.43Y-50.139
X143.43Y-50.889
X143.43Y-51.639
X143.575Y-92.025
X143.675Y-92.775
X143.7Y-45.8
X143.7Y-46.55
X143.7Y-47.3
X143.75Y-53.9
X143.75Y-54.65
X143.75Y-55.4
X143.8Y-73.3
X143.8Y-74.05
X143.8Y-74.8
X143.85Y-64.6
X143.93Y-76.869
X143.93Y-77.619
X143.93Y-78.369
X143.93Y-79.119
X143.95Y-80.0
X144.0Y-41.1
X144.0Y-41.85
X144.0Y-42.6
X144.0Y-43.35
X144.0Y-44.1
X144.0Y-63.099
X144.0Y-81.75
X144.0Y-82.5
X144.0Y-83.25
X144.025Y-71.325
X144.03Y-68.369
X144.03Y-69.119
X144.03Y-69.869
X144.03Y-70.619
X144.03Y-86.919
X144.03Y-87.669
X144.03Y-88.419
X144.03Y-89.169
X144.1Y-59.1
X144.1Y-59.85
X144.1Y-60.6
X144.1Y-61.35
X144.15Y-48.55
X144.18Y-49.389
X144.18Y-50.139
X144.18Y-50.889
X144.18Y-51.639
X144.475Y-92.875
X144.55Y-74.8
X144.68Y-76.869
X144.68Y-77.619
X144.68Y-78.369
X144.68Y-79.119
X144.7Y-80.0
X144.75Y-41.1
X144.75Y-41.85
X144.75Y-42.6
X144.75Y-43.35
X144.75Y-44.1
X144.75Y-83.3
X144.775Y-71.325
X144.78Y-68.369
X144.78Y-69.119
X144.78Y-69.869
X144.78Y-70.619
X144.78Y-86.919
X144.78Y-87.669
X144.78Y-88.419
X144.78Y-89.169
X144.85Y-59.1
X144.85Y-59.85
X144.85Y-60.6
X144.85Y-61.35
X144.9Y-48.55
X144.93Y-49.389
X144.93Y-50.139
X144.93Y-50.889
X144.93Y-51.639
X145.3Y-74.8
X145.5Y-41.1
X145.5Y-41.85
X145.5Y-42.6
X145.5Y-43.35
X145.5Y-44.1
X145.55Y-69.85
X145.55Y-70.6
X145.55Y-71.35
X145.59Y-59.29
X145.59Y-60.04
X145.59Y-60.79
X145.599Y-78.0
X145.599Y-78.75
X145.599Y-79.5
X145.599Y-80.25
X145.6Y-77.25
X145.6Y-88.7
X145.65Y-86.4
X145.65Y-87.15
X145.65Y-87.9
X145.7Y-61.6
X145.8Y-83.2
X146.025Y-92.825
X146.25Y-43.75
X146.25Y-44.5
X146.25Y-45.25
X146.3Y-64.1
X146.34Y-60.69
X146.35Y-88.7
X146.4Y-70.2
X146.4Y-70.95
X146.4Y-71.7
X146.4Y-86.4
X146.4Y-87.15
X146.4Y-87.9
X146.5Y-60.0
X146.55Y-83.3
X146.7Y-55.6
X147.0Y-44.5
X147.0Y-45.25
X147.0Y-46.0
X147.1Y-61.05
X147.1Y-88.7
X147.15Y-86.4
X147.15Y-87.15
X147.15Y-87.9
X147.17Y-70.631
X147.17Y-71.381
X147.17Y-72.131
X147.25Y-60.25
X147.5Y-55.0
X148.0Y-70.6
X148.0Y-71.35
X148.0Y-72.1
X148.0Y-88.8
X148.05Y-86.5
X148.05Y-87.25
X148.05Y-88.0
X148.25Y-55.0
X148.4Y-83.3
X148.5Y-55.75
X149.0Y-55.0
X149.75Y-55.0
X150.0Y-44.25
X150.0Y-45.0
X150.0Y-45.75
X150.0Y-85.75
X150.0Y-86.5
X150.0Y-87.25
X150.0Y-88.0
X150.25Y-57.5
X150.25Y-58.5
X150.75Y-44.25
X150.75Y-45.0
X150.75Y-45.75
X150.75Y-59.5
X150.75Y-75.5
X150.75Y-87.25
X150.75Y-88.0
X150.75Y-88.75
X151.25Y-85.0
X151.25Y-85.75
X151.25Y-86.5
X151.5Y-44.25
X151.5Y-45.0
X151.5Y-45.75
X151.5Y-56.5
X151.5Y-57.25
X151.5Y-58.0
X151.5Y-58.75
X151.5Y-59.5
X151.5Y-74.75
X151.5Y-75.5
X151.5Y-76.25
X151.5Y-87.25
X151.5Y-88.0
X151.5Y-88.75
X152.0Y-55.75
X152.0Y-85.0
X152.0Y-85.75
X152.0Y-86.5
X152.25Y-44.25
X152.25Y-45.0
X152.25Y-45.75
X152.25Y-46.5
X152.25Y-47.25
X152.25Y-56.5
X152.25Y-57.25
X152.25Y-58.0
X152.25Y-58.75
X152.25Y-59.5
X152.25Y-60.25
X152.25Y-74.0
X152.25Y-74.75
X152.25Y-75.5
X152.25Y-76.25
X152.75Y-55.75
X152.75Y-85.0
X152.75Y-85.75
X152.774Y-73.224
X153.0Y-44.25
X153.0Y-45.0
X153.0Y-45.75
X153.0Y-46.5
X153.0Y-47.25
X153.0Y-56.5
X153.0Y-57.25
X153.0Y-74.0
X153.0Y-74.75
X153.0Y-75.5
X153.0Y-76.25
X153.0Y-77.0
X153.2Y-97.299
X153.75Y-75.5
X153.75Y-76.25
X153.75Y-77.0
X154.7Y-101.6
X155.5Y-99.7
X156.2Y-98.1
X157.9Y-103.43
X158.3Y-95.6
X160.066Y-97.334
X171.2Y-99.0
T2
X89.515Y-74.875
X89.515Y-76.15
X89.515Y-77.425
X90.79Y-74.875
X90.79Y-76.15
X90.79Y-77.425
X92.065Y-74.875
X92.065Y-76.15
X92.065Y-77.425
T3
X85.431Y-90.059
X85.431Y-91.334
X85.431Y-92.609
X86.706Y-90.059
X86.706Y-91.334
X86.706Y-92.609
X87.981Y-90.059
X87.981Y-91.334
X87.981Y-92.609
T4
X63.9Y-53.9
X64.0Y-107.0
X70.0Y-105.25
X70.2Y-41.2
X71.5Y-102.5
X72.0Y-46.6
X72.0Y-104.75
X73.05Y-80.8
X73.5Y-102.75
X73.515Y-43.011
X73.6Y-40.1
X76.6Y-40.2
X77.2Y-80.8
X78.6Y-40.2
X79.825Y-42.825
X80.3Y-63.7
X80.35Y-50.6
X80.675Y-99.625
X80.75Y-62.25
X81.3Y-63.7
X82.1Y-69.4
X82.5Y-64.0
X82.55Y-50.875
X82.55Y-51.8
X82.626Y-60.966
X83.5Y-41.35
X83.6Y-50.1
X83.85Y-80.35
X83.85Y-82.1
X84.0Y-63.0
X85.3Y-49.35
X85.3Y-50.35
X86.5Y-42.5
X87.0Y-83.1
X87.5Y-49.35
X87.5Y-50.35
X87.85Y-57.25
X90.75Y-101.7
X90.9Y-48.55
X90.9Y-49.9
X90.9Y-51.05
X90.95Y-59.6
X91.18Y-102.602
X91.35Y-84.4
X92.15Y-99.4
X92.225Y-48.675
X92.5Y-46.0
X92.828Y-100.134
X93.0Y-47.225
X93.3Y-48.15
X93.45Y-46.3
X95.1Y-100.3
X96.0Y-104.4
X98.4Y-44.9
X98.4Y-45.9
X99.25Y-103.55
X99.4Y-44.9
X99.4Y-45.9
X100.3Y-113.3
X100.35Y-44.9
X100.35Y-45.9
X101.25Y-51.2
X101.275Y-100.8
X101.6Y-77.8
X102.35Y-108.1
X102.4Y-59.8
X103.0Y-41.5
X103.232Y-67.257
X103.246Y-61.414
X103.57Y-43.86
X103.65Y-60.25
X104.165Y-57.631
X104.2Y-69.25
X104.3Y-53.9
X104.5Y-80.525
X104.5Y-101.25
X104.6Y-58.75
X105.2Y-98.441
X105.2Y-48.7
X105.65Y-67.05
X105.8Y-74.85
X105.8Y-100.8
X105.85Y-99.2
X105.9Y-97.0
X105.999Y-69.0
X106.055Y-84.5
X106.072Y-52.353
X106.25Y-102.2
X106.45Y-78.893
X106.55Y-113.2
X107.894Y-60.464
X108.034Y-51.4
X108.6Y-69.2
X108.65Y-111.9
X108.75Y-62.464
X108.783Y-76.783
X109.53Y-52.53
X109.6Y-48.25
X109.95Y-109.15
X110.0Y-77.8
X110.05Y-110.4
X110.2Y-62.2
X110.595Y-69.605
X112.0Y-110.7
X112.25Y-102.35
X112.4Y-107.1
X112.8Y-104.4
X112.925Y-94.625
X113.2Y-57.75
X113.5Y-43.25
X114.923Y-61.523
X116.0Y-100.0
X116.05Y-84.0
X116.1Y-52.0
X116.4Y-90.15
X117.3Y-69.35
X118.05Y-84.65
X119.29Y-76.91
X119.4Y-71.4
X120.15Y-68.5
X120.25Y-59.32
X120.25Y-62.9
X120.25Y-86.6
X120.3Y-54.62
X120.3Y-55.62
X120.3Y-58.32
X120.3Y-74.45
X120.3Y-75.45
X120.3Y-76.75
X120.3Y-80.8
X120.3Y-82.7
X120.3Y-89.95
X120.3Y-92.0
X120.4Y-71.4
X120.45Y-72.35
X121.4Y-68.5
X121.4Y-71.4
X121.45Y-72.35
X121.5Y-59.32
X121.5Y-62.9
X121.5Y-86.6
X121.55Y-54.62
X121.55Y-55.62
X121.55Y-58.32
X121.55Y-74.45
X121.55Y-75.45
X121.55Y-76.75
X121.55Y-80.8
X121.55Y-82.7
X121.55Y-89.95
X121.55Y-92.0
X122.4Y-68.5
X122.4Y-71.4
X122.45Y-72.35
X122.5Y-59.32
X122.5Y-62.9
X122.5Y-86.6
X122.55Y-54.62
X122.55Y-55.62
X122.55Y-58.32
X122.55Y-74.45
X122.55Y-75.45
X122.55Y-76.75
X122.55Y-80.8
X122.55Y-82.7
X122.55Y-89.95
X122.55Y-92.0
X125.8Y-97.8
X127.23Y-97.53
X128.449Y-96.051
X128.9Y-97.95
X131.75Y-95.0
X136.0Y-97.25
X137.3Y-100.0
X138.0Y-103.05
X138.4Y-76.4
X138.4Y-85.73
X138.5Y-56.3
X138.775Y-68.46
X139.1Y-39.6
X140.2Y-48.6
X142.85Y-84.6
X143.25Y-56.75
X143.8Y-97.0
X145.0Y-56.6
X145.53Y-63.03
X145.6Y-91.1
X145.7Y-81.9
X145.75Y-73.3
X145.8Y-46.6
X145.8Y-53.7
X145.85Y-105.9
X146.2Y-102.8
X147.3Y-97.5
X147.325Y-94.8
X147.663Y-40.844
X147.856Y-67.139
X148.124Y-43.2
X148.9Y-92.4
X149.125Y-61.7
X149.3Y-89.6
X149.4Y-40.3
X149.654Y-71.196
X150.171Y-82.339
X150.524Y-61.527
X150.755Y-69.499
X150.933Y-70.483
X151.2Y-83.6
X151.6Y-91.8
X151.884Y-70.176
X152.1Y-69.2
X152.15Y-63.9
X152.612Y-65.072
X154.462Y-63.734
X155.799Y-69.399
X156.2Y-64.0
X157.85Y-63.5
X158.4Y-71.6
X158.58Y-70.5
X158.848Y-63.445
X160.25Y-59.55
X160.5Y-72.9
X160.5Y-73.9
X161.0Y-68.0
X161.0Y-69.0
X161.0Y-70.0
X161.0Y-107.35
X161.035Y-62.35
X161.035Y-63.35
X161.035Y-64.35
X161.25Y-58.55
X161.25Y-59.55
X161.5Y-72.9
X161.5Y-73.9
X162.0Y-68.0
X162.0Y-69.0
X162.0Y-70.0
X162.0Y-110.0
X162.0Y-111.75
X162.035Y-62.35
X162.035Y-63.35
X162.035Y-64.35
X162.25Y-58.55
X162.25Y-59.55
X162.5Y-72.9
X162.5Y-73.9
X162.75Y-94.5
X162.75Y-98.0
X163.0Y-68.0
X163.0Y-69.0
X163.0Y-70.0
X163.035Y-62.35
X163.035Y-63.35
X163.035Y-64.35
X163.25Y-58.55
X163.25Y-59.55
X163.5Y-72.9
X163.5Y-73.9
X165.15Y-89.6
X165.15Y-90.6
X165.15Y-91.6
X165.15Y-92.6
X165.25Y-105.5
X166.0Y-40.5
X166.0Y-41.5
X166.0Y-42.5
X166.0Y-43.5
X166.0Y-63.0
X166.0Y-64.0
X166.0Y-65.0
X166.0Y-67.5
X166.0Y-68.5
X166.0Y-69.5
X166.15Y-89.6
X166.15Y-90.6
X166.15Y-91.6
X166.15Y-92.6
X167.0Y-40.5
X167.0Y-41.5
X167.0Y-42.5
X167.0Y-43.5
X167.0Y-63.0
X167.0Y-64.0
X167.0Y-65.0
X167.0Y-67.5
X167.0Y-68.5
X167.0Y-69.5
X168.0Y-63.0
X168.0Y-64.0
X168.0Y-65.0
X168.0Y-67.5
X168.0Y-68.5
X168.0Y-69.5
X168.5Y-41.5
X168.5Y-42.5
X168.5Y-43.5
X169.0Y-87.0
X169.0Y-88.0
X169.0Y-89.0
X169.0Y-100.75
X169.0Y-104.25
X169.5Y-41.5
X169.5Y-42.5
X169.5Y-43.5
X170.0Y-87.0
X170.0Y-88.0
X170.0Y-89.0
X170.5Y-41.5
X170.5Y-42.5
X170.5Y-43.5
X170.5Y-105.25
X170.9Y-56.9
X170.9Y-57.9
X170.9Y-58.9
X170.9Y-74.0
X170.9Y-75.0
X170.9Y-76.0
X171.0Y-87.0
X171.0Y-88.0
X171.0Y-89.0
X171.9Y-56.9
X171.9Y-57.9
X171.9Y-58.9
X171.9Y-59.9
X171.9Y-73.0
X171.9Y-74.0
X171.9Y-75.0
X171.9Y-76.0
T5
X81.8Y-45.8
T7
X128.66Y-104.27
X129.68Y-106.05
X130.7Y-104.27
X131.72Y-106.05
X132.74Y-104.27
X133.76Y-106.05
X134.78Y-104.27
X135.8Y-106.05
X148.26Y-104.27
X149.28Y-106.05
X150.3Y-104.27
X151.32Y-106.05
X152.34Y-104.27
X153.36Y-106.05
X154.38Y-104.27
X155.4Y-106.05
T8
X128.23Y-110.25
X128.23Y-112.79
X130.77Y-110.25
X130.77Y-112.79
X133.31Y-110.25
X133.31Y-112.79
X135.85Y-110.25
X135.85Y-112.79
X147.93Y-110.15
X147.93Y-112.69
X150.47Y-110.15
X150.47Y-112.69
X153.01Y-110.15
X153.01Y-112.69
X155.55Y-110.15
X155.55Y-112.69
T9
X66.34Y-47.736
X66.34Y-50.276
X66.34Y-52.816
X66.34Y-55.356
X66.34Y-57.896
X66.34Y-60.436
X66.34Y-65.34
X66.34Y-67.88
X66.34Y-70.42
X66.34Y-72.96
X66.34Y-75.5
X66.34Y-79.12
X66.34Y-81.66
X66.34Y-84.2
X66.34Y-87.76
X66.34Y-90.3
X66.34Y-92.84
X66.34Y-96.42
X66.34Y-98.96
X66.34Y-101.5
X73.74Y-50.0
X73.74Y-52.54
X73.74Y-55.08
X73.74Y-57.62
X73.74Y-60.16
X73.74Y-62.7
X73.74Y-66.4
X73.74Y-68.94
X73.74Y-71.48
X73.74Y-74.02
X73.74Y-76.56
X73.74Y-79.1
X96.89Y-106.97
X96.89Y-109.51
X96.89Y-112.05
X98.382Y-91.962
X100.922Y-91.962
X103.462Y-91.962
X106.002Y-91.962
X108.542Y-91.962
X111.082Y-91.962
X119.338Y-97.81
X119.338Y-100.35
X119.365Y-105.127
X119.365Y-107.667
X119.365Y-110.207
X119.365Y-112.747
T10
X74.9Y-83.5
T11
X124.1Y-105.03
X140.36Y-105.03
X143.7Y-105.03
X159.96Y-105.03
T12
X65.7Y-42.45
X65.7Y-111.1
X155.075Y-89.75
X155.525Y-42.45
X155.575Y-60.0
X155.575Y-72.875
X168.2Y-111.1
X169.175Y-51.27
X169.175Y-79.57
T13
X121.325Y-43.075
X128.525Y-43.075
X156.56Y-51.27
X156.56Y-81.37
X161.32Y-48.52
X161.32Y-54.02
X161.32Y-78.62
X161.32Y-84.12
T6
X70.83Y-108.245G85X70.83Y-109.345
G05
X70.83Y-112.675G85X70.83Y-113.275
G05
X79.47Y-108.245G85X79.47Y-109.345
G05
X79.47Y-112.675G85X79.47Y-113.275
G05
X83.33Y-108.245G85X83.33Y-109.345
G05
X83.33Y-112.675G85X83.33Y-113.275
G05
X91.97Y-108.245G85X91.97Y-109.345
G05
X91.97Y-112.675G85X91.97Y-113.275
G05
T0
M30
