M48
; DRILL file {KiCad 6.0.2+dfsg-1} date Fri 09 Dec 2022 11:49:18 PM PST
; FORMAT={-:-/ absolute / metric / decimal}
; #@! TF.CreationDate,2022-12-09T23:49:18-08:00
; #@! TF.GenerationSoftware,Kicad,Pcbnew,6.0.2+dfsg-1
; #@! TF.FileFunction,Plated,1,4,PTH
FMAT,2
METRIC
; #@! TA.AperFunction,Plated,PTH,ViaDrill
T1C0.200
; #@! TA.AperFunction,Plated,PTH,ComponentDrill
T2C0.200
; #@! TA.AperFunction,Plated,PTH,ComponentDrill
T3C0.350
; #@! TA.AperFunction,Plated,PTH,ViaDrill
T4C0.400
; #@! TA.AperFunction,Plated,PTH,ViaDrill
T5C0.500
; #@! TA.AperFunction,Plated,PTH,ComponentDrill
T6C0.600
; #@! TA.AperFunction,Plated,PTH,ComponentDrill
T7C0.890
; #@! TA.AperFunction,Plated,PTH,ComponentDrill
T8C1.000
; #@! TA.AperFunction,Plated,PTH,ComponentDrill
T9C1.190
; #@! TA.AperFunction,Plated,PTH,ComponentDrill
T10C1.800
; #@! TA.AperFunction,Plated,PTH,ComponentDrill
T11C3.500
; #@! TA.AperFunction,Plated,PTH,ComponentDrill
T12C3.900
; #@! TA.AperFunction,Plated,PTH,ComponentDrill
T13C4.000
%
G90
G05
T1
X63.1Y-63.0
X64.1Y-63.0
X65.2Y-63.0
X66.85Y-105.95
X69.4Y-71.4
X70.0Y-76.7
X70.4Y-83.95
X70.9Y-75.4
X72.506Y-87.334
X73.3Y-93.8
X74.787Y-96.45
X75.637Y-96.45
X76.3Y-95.4
X76.65Y-87.65
X76.7Y-44.9
X77.1Y-97.15
X77.9Y-98.15
X78.15Y-94.65
X78.3Y-88.15
X79.1Y-87.1
X79.1Y-98.901
X79.1Y-99.9
X80.65Y-99.4
X80.872Y-86.072
X81.002Y-94.703
X81.1Y-42.5
X81.15Y-99.9
X81.522Y-85.422
X81.7Y-105.1
X81.716Y-87.816
X81.851Y-88.699
X81.9Y-74.845
X81.967Y-94.379
X82.085Y-76.935
X82.17Y-84.774
X82.316Y-87.216
X82.4Y-76.2
X82.508Y-77.613
X82.6Y-84.1
X82.835Y-95.565
X83.007Y-78.4
X83.4Y-95.0
X84.15Y-98.9
X84.7Y-103.9
X84.75Y-61.0
X85.1Y-76.55
X85.485Y-75.793
X85.579Y-84.345
X85.9Y-73.0
X86.0Y-71.7
X86.1Y-70.9
X86.2Y-61.6
X86.2Y-76.15
X86.279Y-84.827
X86.3Y-84.0
X86.306Y-95.709
X86.35Y-70.05
X86.475Y-99.0
X87.0Y-56.3
X87.1Y-55.2
X87.325Y-99.0
X87.4Y-72.5
X87.5Y-59.2
X87.505Y-84.5
X87.505Y-86.9
X88.1Y-63.9
X88.15Y-62.65
X88.4Y-85.65
X88.447Y-73.61
X89.0Y-68.25
X89.05Y-81.4
X89.158Y-85.903
X89.419Y-97.339
X89.556Y-86.824
X89.66Y-82.0
X89.837Y-98.02
X90.3Y-96.524
X90.3Y-97.324
X90.5Y-100.5
X91.35Y-105.95
X91.6Y-103.7
X92.299Y-93.101
X92.901Y-92.499
X93.4Y-84.9
X93.7Y-68.35
X93.9Y-98.65
X93.95Y-79.65
X94.0Y-83.3
X94.35Y-80.9
X94.4Y-67.2
X94.65Y-70.95
X94.7Y-61.9
X94.85Y-72.4
X95.0Y-68.35
X95.1Y-65.9
X95.1Y-81.5
X95.191Y-83.058
X95.32Y-82.269
X95.35Y-71.4
X95.4Y-54.3
X95.4Y-79.15
X95.4Y-94.65
X95.55Y-68.95
X95.6Y-72.85
X95.701Y-77.999
X96.15Y-60.9
X96.15Y-91.4
X96.25Y-73.5
X96.3Y-62.75
X96.3Y-74.4
X96.6Y-55.6
X96.6Y-64.3
X96.8Y-65.3
X97.0Y-63.4
X97.0Y-85.9
X97.1Y-76.15
X97.1Y-77.95
X97.6Y-75.501
X97.8Y-76.7
X98.0Y-69.4
X98.6Y-77.3
X98.6Y-80.9
X99.3Y-56.2
X99.3Y-84.2
X99.624Y-70.724
X100.05Y-74.7
X100.35Y-54.0
X100.5Y-62.0
X101.0Y-66.5
X101.4Y-90.4
X101.8Y-82.0
X101.9Y-59.2
X101.9Y-62.1
X102.1Y-84.9
X102.2Y-89.9
X102.4Y-85.9
X103.0Y-82.5
X103.1Y-85.9
X104.0Y-84.1
X104.3Y-57.4
X105.4Y-42.0
X106.4Y-46.2
X107.81Y-77.707
X108.9Y-75.1
X109.741Y-82.759
X111.5Y-70.0
X111.7Y-57.65
X111.884Y-71.716
X112.0Y-55.4
X112.8Y-60.6
X113.4Y-61.9
X134.841Y-86.53
X134.841Y-87.28
X134.841Y-88.03
X134.841Y-88.78
X134.841Y-89.53
X134.95Y-49.07
X134.95Y-49.82
X134.95Y-50.57
X134.95Y-51.32
X134.95Y-52.07
X134.95Y-77.65
X134.95Y-78.4
X134.95Y-79.15
X134.95Y-79.9
X134.95Y-80.65
X135.091Y-57.5
X135.091Y-58.25
X135.091Y-59.0
X135.091Y-59.75
X135.091Y-60.5
X135.2Y-40.72
X135.2Y-41.47
X135.2Y-42.22
X135.2Y-42.97
X135.2Y-43.72
X135.2Y-68.35
X135.2Y-69.1
X135.2Y-69.85
X135.2Y-70.6
X135.2Y-71.35
X135.591Y-86.53
X135.591Y-87.28
X135.591Y-88.03
X135.591Y-88.78
X135.591Y-89.53
X135.7Y-49.07
X135.7Y-49.82
X135.7Y-50.57
X135.7Y-51.32
X135.7Y-52.07
X135.7Y-77.65
X135.7Y-78.4
X135.7Y-79.15
X135.7Y-79.9
X135.7Y-80.65
X135.841Y-57.5
X135.841Y-58.25
X135.841Y-59.0
X135.841Y-59.75
X135.841Y-60.5
X135.95Y-40.72
X135.95Y-41.47
X135.95Y-42.22
X135.95Y-42.97
X135.95Y-43.72
X135.95Y-68.35
X135.95Y-69.1
X135.95Y-69.85
X135.95Y-70.6
X135.95Y-71.35
X136.341Y-86.53
X136.341Y-87.28
X136.341Y-88.03
X136.341Y-88.78
X136.341Y-89.53
X136.45Y-49.07
X136.45Y-49.82
X136.45Y-52.07
X136.45Y-77.65
X136.45Y-78.4
X136.45Y-80.65
X136.462Y-50.57
X136.462Y-51.32
X136.462Y-79.15
X136.462Y-79.9
X136.591Y-57.5
X136.591Y-58.25
X136.591Y-59.0
X136.591Y-59.75
X136.591Y-60.5
X136.682Y-41.47
X136.682Y-42.22
X136.682Y-69.1
X136.682Y-69.85
X136.7Y-40.72
X136.7Y-42.97
X136.7Y-43.72
X136.7Y-68.35
X136.7Y-70.6
X136.7Y-71.35
X137.091Y-86.53
X137.091Y-87.28
X137.091Y-88.03
X137.091Y-88.78
X137.091Y-89.53
X137.2Y-49.07
X137.2Y-49.82
X137.2Y-50.57
X137.2Y-51.32
X137.2Y-52.07
X137.2Y-77.65
X137.2Y-78.4
X137.2Y-79.15
X137.2Y-79.9
X137.2Y-80.65
X137.341Y-57.5
X137.341Y-58.25
X137.341Y-59.0
X137.341Y-59.75
X137.341Y-60.5
X137.45Y-40.72
X137.45Y-41.47
X137.45Y-42.22
X137.45Y-42.97
X137.45Y-43.72
X137.45Y-68.35
X137.45Y-69.1
X137.45Y-69.85
X137.45Y-70.6
X137.45Y-71.35
X139.4Y-90.9
X139.4Y-91.65
X139.4Y-92.4
X139.45Y-45.65
X139.45Y-46.4
X139.45Y-47.15
X139.9Y-53.9
X139.9Y-54.65
X139.9Y-55.4
X139.9Y-62.4
X139.9Y-63.15
X139.9Y-63.9
X139.9Y-73.65
X139.9Y-74.4
X139.9Y-75.15
X139.9Y-82.15
X139.9Y-82.9
X139.9Y-83.65
X140.15Y-90.9
X140.15Y-91.65
X140.15Y-92.4
X140.2Y-45.65
X140.2Y-46.4
X140.2Y-47.15
X140.231Y-41.381
X140.231Y-42.131
X140.231Y-42.881
X140.231Y-43.631
X140.5Y-68.1
X140.631Y-86.561
X140.631Y-87.311
X140.631Y-88.061
X140.631Y-88.811
X140.631Y-89.561
X140.64Y-58.64
X140.64Y-59.39
X140.64Y-60.14
X140.64Y-60.89
X140.65Y-53.9
X140.65Y-54.65
X140.65Y-55.4
X140.65Y-62.4
X140.65Y-63.15
X140.65Y-63.9
X140.65Y-73.65
X140.65Y-74.4
X140.65Y-75.15
X140.65Y-82.15
X140.65Y-82.9
X140.65Y-83.65
X140.681Y-50.031
X140.681Y-50.781
X140.681Y-51.531
X140.681Y-52.281
X140.681Y-69.311
X140.681Y-70.061
X140.681Y-70.811
X140.681Y-71.561
X140.681Y-77.661
X140.681Y-78.411
X140.681Y-79.161
X140.681Y-79.911
X140.681Y-80.661
X140.9Y-90.9
X140.9Y-91.65
X140.9Y-92.4
X140.95Y-45.65
X140.95Y-46.4
X140.95Y-47.15
X140.981Y-41.131
X140.981Y-41.881
X140.981Y-42.631
X140.981Y-43.381
X140.981Y-44.131
X141.381Y-86.561
X141.381Y-87.311
X141.381Y-88.061
X141.381Y-88.811
X141.381Y-89.561
X141.39Y-57.89
X141.39Y-58.64
X141.39Y-59.39
X141.39Y-60.14
X141.39Y-60.89
X141.4Y-53.9
X141.4Y-54.65
X141.4Y-55.4
X141.4Y-62.4
X141.4Y-63.15
X141.4Y-63.9
X141.4Y-73.65
X141.4Y-74.4
X141.4Y-75.15
X141.4Y-82.15
X141.4Y-82.9
X141.4Y-83.65
X141.431Y-49.281
X141.431Y-50.031
X141.431Y-50.781
X141.431Y-51.531
X141.431Y-52.281
X141.431Y-68.561
X141.431Y-69.311
X141.431Y-70.061
X141.431Y-70.811
X141.431Y-71.561
X141.431Y-77.661
X141.431Y-78.411
X141.431Y-79.161
X141.431Y-79.911
X141.431Y-80.661
X141.65Y-91.65
X141.65Y-92.4
X141.7Y-46.4
X141.7Y-47.15
X142.0Y-41.019
X142.0Y-41.769
X142.0Y-42.519
X142.0Y-43.269
X142.15Y-54.65
X142.15Y-55.4
X142.15Y-58.65
X142.15Y-59.4
X142.15Y-60.15
X142.15Y-60.9
X142.15Y-63.15
X142.15Y-63.9
X142.15Y-74.4
X142.15Y-75.15
X142.15Y-82.9
X142.15Y-83.65
X142.38Y-68.969
X142.38Y-69.719
X142.38Y-70.469
X142.38Y-71.219
X142.4Y-49.35
X142.4Y-91.65
X142.4Y-92.4
X142.43Y-50.189
X142.43Y-50.939
X142.43Y-51.689
X142.43Y-52.439
X142.43Y-77.319
X142.43Y-78.069
X142.43Y-78.819
X142.43Y-79.569
X142.45Y-46.4
X142.45Y-47.15
X142.75Y-41.019
X142.75Y-41.769
X142.75Y-42.519
X142.75Y-43.269
X142.78Y-86.219
X142.78Y-86.969
X142.78Y-87.719
X142.78Y-88.469
X142.9Y-54.65
X142.9Y-55.4
X142.9Y-58.65
X142.9Y-59.4
X142.9Y-60.15
X142.9Y-60.9
X142.9Y-63.15
X142.9Y-63.9
X142.9Y-74.4
X142.9Y-75.15
X142.9Y-82.9
X142.9Y-83.65
X143.13Y-68.969
X143.13Y-69.719
X143.13Y-70.469
X143.13Y-71.219
X143.15Y-49.35
X143.15Y-91.65
X143.15Y-92.4
X143.18Y-50.189
X143.18Y-50.939
X143.18Y-51.689
X143.18Y-52.439
X143.18Y-77.319
X143.18Y-78.069
X143.18Y-78.819
X143.18Y-79.569
X143.2Y-46.4
X143.2Y-47.15
X143.5Y-41.019
X143.5Y-41.769
X143.5Y-42.519
X143.5Y-43.269
X143.53Y-86.219
X143.53Y-86.969
X143.53Y-87.719
X143.53Y-88.469
X143.65Y-54.65
X143.65Y-55.4
X143.65Y-58.65
X143.65Y-59.4
X143.65Y-60.15
X143.65Y-60.9
X143.65Y-63.15
X143.65Y-63.9
X143.65Y-74.4
X143.65Y-75.15
X143.65Y-82.9
X143.65Y-83.65
X143.88Y-68.969
X143.88Y-69.719
X143.88Y-70.469
X143.88Y-71.219
X143.9Y-49.35
X143.9Y-91.65
X143.9Y-92.4
X143.93Y-50.189
X143.93Y-50.939
X143.93Y-51.689
X143.93Y-52.439
X143.93Y-77.319
X143.93Y-78.069
X143.93Y-78.819
X143.93Y-79.569
X143.95Y-46.4
X143.95Y-47.15
X144.25Y-41.019
X144.25Y-41.769
X144.25Y-42.519
X144.25Y-43.269
X144.28Y-86.219
X144.28Y-86.969
X144.28Y-87.719
X144.28Y-88.469
X144.4Y-54.65
X144.4Y-55.4
X144.4Y-58.65
X144.4Y-59.4
X144.4Y-60.15
X144.4Y-60.9
X144.4Y-63.15
X144.4Y-63.9
X144.4Y-74.4
X144.4Y-75.15
X144.4Y-82.9
X144.4Y-83.65
X144.63Y-68.969
X144.63Y-69.719
X144.63Y-70.469
X144.63Y-71.219
X144.65Y-49.35
X144.65Y-92.4
X144.68Y-50.189
X144.68Y-50.939
X144.68Y-51.689
X144.68Y-52.439
X144.68Y-77.319
X144.68Y-78.069
X144.68Y-78.819
X144.68Y-79.569
X144.7Y-47.15
X145.0Y-41.019
X145.0Y-41.769
X145.0Y-42.519
X145.0Y-43.269
X145.03Y-86.219
X145.03Y-86.969
X145.03Y-87.719
X145.03Y-88.469
X145.1Y-63.9
X145.15Y-55.4
X145.15Y-58.65
X145.15Y-59.4
X145.15Y-60.15
X145.15Y-60.9
X145.15Y-75.15
X145.15Y-83.65
X145.38Y-68.969
X145.38Y-69.719
X145.38Y-70.469
X145.38Y-71.219
X145.4Y-49.35
X145.4Y-92.4
X145.43Y-50.189
X145.43Y-50.939
X145.43Y-51.689
X145.43Y-52.439
X145.43Y-77.319
X145.43Y-78.069
X145.43Y-78.819
X145.43Y-79.569
X145.78Y-86.219
X145.78Y-86.969
X145.78Y-87.719
X145.78Y-88.469
X145.9Y-75.15
X145.9Y-83.65
X146.14Y-56.89
X146.14Y-57.64
X146.14Y-58.39
X146.14Y-59.14
X146.14Y-59.89
X146.14Y-60.64
X146.15Y-68.65
X146.15Y-69.4
X146.15Y-70.15
X146.15Y-70.9
X146.15Y-71.65
X146.65Y-75.15
X146.65Y-83.65
X146.849Y-78.15
X146.849Y-78.9
X146.849Y-79.65
X146.849Y-80.4
X146.85Y-77.0
X146.89Y-58.04
X146.89Y-58.79
X146.89Y-59.54
X146.89Y-60.29
X146.9Y-48.4
X146.9Y-49.45
X146.9Y-50.2
X146.9Y-50.95
X146.9Y-51.7
X146.9Y-52.45
X146.9Y-56.65
X146.9Y-68.65
X146.9Y-69.4
X146.9Y-70.15
X146.9Y-70.9
X146.9Y-71.65
X147.599Y-78.9
X147.599Y-79.65
X147.599Y-80.4
X147.64Y-58.79
X147.64Y-59.54
X147.64Y-60.29
X147.65Y-50.95
X147.65Y-51.7
X147.65Y-52.45
X147.65Y-70.15
X147.65Y-70.9
X147.65Y-71.65
X148.15Y-68.15
X148.349Y-78.15
X148.349Y-78.9
X148.349Y-79.65
X148.349Y-80.4
X148.39Y-58.79
X148.39Y-59.54
X148.39Y-60.29
X148.4Y-48.4
X148.4Y-50.95
X148.4Y-51.7
X148.4Y-52.45
X148.4Y-70.15
X148.4Y-70.9
X148.4Y-71.65
X148.4Y-77.15
X149.15Y-50.95
X149.15Y-51.7
X149.15Y-52.45
X150.15Y-58.85
X150.15Y-59.6
X150.15Y-60.35
X150.15Y-70.65
X150.15Y-71.4
X150.15Y-72.15
X150.4Y-48.15
X150.4Y-50.9
X150.4Y-51.65
X150.4Y-52.4
X150.4Y-76.65
X150.4Y-79.15
X150.4Y-79.9
X150.4Y-80.65
X150.65Y-68.3
X150.65Y-69.35
X150.9Y-58.85
X150.9Y-59.6
X150.9Y-60.35
X150.9Y-70.65
X150.9Y-71.4
X150.9Y-72.15
X151.15Y-48.15
X151.15Y-50.9
X151.15Y-51.65
X151.15Y-52.4
X151.15Y-76.65
X151.15Y-79.15
X151.15Y-79.9
X151.15Y-80.65
X151.65Y-58.85
X151.65Y-59.6
X151.65Y-60.35
X151.65Y-70.65
X151.65Y-71.4
X151.65Y-72.15
X151.9Y-48.15
X151.9Y-50.9
X151.9Y-51.65
X151.9Y-52.4
X151.9Y-56.9
X151.9Y-57.65
X151.9Y-76.65
X151.9Y-79.15
X151.9Y-79.9
X151.9Y-80.65
X152.4Y-77.4
X152.65Y-48.15
X152.65Y-57.15
X152.65Y-76.65
X153.4Y-76.65
T2
X89.515Y-74.875
X89.515Y-76.15
X89.515Y-77.425
X90.79Y-74.875
X90.79Y-76.15
X90.79Y-77.425
X92.065Y-74.875
X92.065Y-76.15
X92.065Y-77.425
T3
X85.431Y-90.059
X85.431Y-91.334
X85.431Y-92.609
X86.706Y-90.059
X86.706Y-91.334
X86.706Y-92.609
X87.981Y-90.059
X87.981Y-91.334
X87.981Y-92.609
T4
X65.6Y-48.2
X65.6Y-49.4
X69.4Y-48.0
X79.0Y-72.1
X83.85Y-80.35
X83.85Y-82.1
X84.3Y-41.4
X85.4Y-50.65
X87.0Y-83.1
X87.1Y-49.35
X87.1Y-50.35
X88.1Y-57.5
X88.3Y-42.3
X89.3Y-49.35
X89.3Y-50.35
X89.45Y-104.55
X90.75Y-101.7
X91.35Y-84.4
X92.15Y-99.4
X92.65Y-48.85
X92.7Y-49.9
X92.7Y-51.05
X93.35Y-99.45
X93.95Y-45.9
X94.4Y-46.75
X94.9Y-45.85
X95.1Y-48.45
X95.1Y-100.3
X95.2Y-47.4
X97.0Y-54.0
X98.6Y-79.7
X100.05Y-99.95
X100.05Y-105.3
X100.2Y-44.9
X100.2Y-45.9
X100.3Y-113.3
X101.2Y-44.9
X101.2Y-45.9
X102.15Y-44.9
X102.15Y-45.9
X102.35Y-108.1
X103.299Y-70.0
X105.15Y-97.9
X105.8Y-100.8
X105.85Y-99.2
X106.05Y-96.85
X106.2Y-72.599
X106.2Y-85.2
X106.3Y-53.4
X106.3Y-66.1
X106.5Y-56.4
X106.55Y-113.2
X106.85Y-103.15
X107.0Y-78.5
X107.05Y-41.05
X107.3Y-69.7
X107.5Y-61.37
X107.5Y-104.25
X107.8Y-50.6
X107.82Y-88.0
X108.133Y-63.942
X108.6Y-41.5
X108.65Y-111.9
X108.9Y-82.3
X109.501Y-65.044
X109.6Y-43.4
X109.7Y-40.9
X109.81Y-73.641
X109.9Y-90.149
X109.95Y-109.15
X110.05Y-110.4
X110.2Y-64.294
X111.4Y-53.55
X111.4Y-58.5
X111.6Y-61.8
X111.822Y-67.85
X111.9Y-49.0
X111.95Y-42.15
X111.973Y-88.446
X112.0Y-110.7
X112.25Y-102.35
X112.4Y-73.6
X112.4Y-107.1
X112.8Y-58.9
X112.8Y-104.4
X113.23Y-67.23
X113.6Y-96.9
X114.3Y-67.1
X114.925Y-96.2
X115.0Y-53.3
X115.3Y-42.1
X115.5Y-81.5
X115.8Y-75.95
X115.9Y-67.299
X116.0Y-59.5
X116.21Y-70.8
X116.5Y-87.4
X116.614Y-96.929
X117.4Y-55.9
X117.5Y-79.1
X117.95Y-94.55
X118.9Y-68.5
X118.9Y-71.4
X118.95Y-72.35
X119.0Y-59.32
X119.0Y-62.9
X119.0Y-77.75
X119.0Y-86.6
X119.05Y-54.62
X119.05Y-55.62
X119.05Y-58.32
X119.05Y-74.05
X119.05Y-75.05
X119.05Y-76.75
X119.05Y-82.5
X119.05Y-83.5
X119.05Y-85.6
X119.05Y-89.95
X119.55Y-97.65
X119.9Y-68.5
X119.9Y-71.4
X119.95Y-72.35
X120.0Y-59.32
X120.0Y-62.9
X120.0Y-77.75
X120.0Y-86.6
X120.05Y-54.62
X120.05Y-55.62
X120.05Y-58.32
X120.05Y-74.05
X120.05Y-75.05
X120.05Y-76.75
X120.05Y-82.5
X120.05Y-83.5
X120.05Y-85.6
X120.05Y-89.95
X121.4Y-68.5
X121.4Y-71.4
X121.45Y-72.35
X121.5Y-59.32
X121.5Y-62.9
X121.5Y-77.75
X121.5Y-86.6
X121.55Y-54.62
X121.55Y-55.62
X121.55Y-58.32
X121.55Y-74.05
X121.55Y-75.05
X121.55Y-76.75
X121.55Y-82.5
X121.55Y-83.5
X121.55Y-85.6
X121.55Y-89.95
X121.7Y-95.7
X122.1Y-97.85
X122.4Y-68.5
X122.4Y-71.4
X122.45Y-72.35
X122.5Y-59.32
X122.5Y-62.9
X122.5Y-77.75
X122.5Y-86.6
X122.55Y-54.62
X122.55Y-55.62
X122.55Y-58.32
X122.55Y-74.05
X122.55Y-75.05
X122.55Y-76.75
X122.55Y-82.5
X122.55Y-83.5
X122.55Y-85.6
X122.55Y-89.95
X125.15Y-95.7
X130.55Y-100.25
X131.25Y-103.3
X132.45Y-99.5
X136.95Y-97.05
X137.0Y-94.9
X138.4Y-76.4
X139.1Y-106.15
X139.45Y-103.05
X139.9Y-85.4
X140.1Y-39.7
X140.5Y-48.4
X140.6Y-56.8
X140.7Y-94.9
X140.75Y-98.549
X143.1Y-99.7
X146.1Y-45.1
X146.3Y-73.5
X146.4Y-62.8
X146.5Y-82.1
X146.6Y-53.8
X146.6Y-92.45
X147.5Y-95.05
X149.714Y-65.645
X151.8Y-65.8
X151.85Y-64.55
X151.95Y-67.2
X152.178Y-73.969
X152.2Y-63.149
X152.3Y-53.7
X152.35Y-83.15
X153.45Y-94.85
X154.25Y-107.6
X155.2Y-66.0
X155.8Y-84.4
X156.5Y-46.0
X157.3Y-56.0
X157.4Y-64.5
X157.5Y-83.4
X157.5Y-87.3
X157.8Y-54.5
X157.852Y-75.53
X158.4Y-73.3
X158.4Y-82.1
X158.6Y-57.8
X158.6Y-74.6
X158.8Y-66.8
X159.2Y-96.6
X159.3Y-84.2
X159.4Y-48.9
X159.5Y-47.6
X159.5Y-53.0
X159.5Y-80.4
T5
X81.8Y-47.1
X82.8Y-46.5
T7
X121.91Y-104.52
X122.93Y-106.3
X123.95Y-104.52
X124.97Y-106.3
X125.99Y-104.52
X127.01Y-106.3
X128.03Y-104.52
X129.05Y-106.3
X141.51Y-104.52
X142.53Y-106.3
X143.55Y-104.52
X144.57Y-106.3
X145.59Y-104.52
X146.61Y-106.3
X147.63Y-104.52
X148.65Y-106.3
T8
X121.48Y-110.5
X121.48Y-113.04
X124.02Y-110.5
X124.02Y-113.04
X126.56Y-110.5
X126.56Y-113.04
X129.1Y-110.5
X129.1Y-113.04
X141.18Y-110.4
X141.18Y-112.94
X143.72Y-110.4
X143.72Y-112.94
X146.26Y-110.4
X146.26Y-112.94
X148.8Y-110.4
X148.8Y-112.94
T9
X66.0Y-65.34
X66.0Y-67.88
X66.0Y-70.42
X66.0Y-72.96
X66.0Y-75.5
X66.0Y-79.12
X66.0Y-81.66
X66.0Y-84.2
X66.0Y-87.76
X66.0Y-90.3
X66.0Y-92.84
X66.0Y-96.42
X66.0Y-98.96
X66.0Y-101.5
X73.2Y-40.79
X73.2Y-43.33
X73.2Y-45.87
X73.2Y-48.41
X73.2Y-50.95
X73.2Y-54.54
X73.2Y-57.08
X73.2Y-59.62
X73.2Y-62.16
X73.2Y-64.7
X73.2Y-68.27
X73.2Y-70.81
X73.2Y-73.35
X76.45Y-76.99
X76.45Y-79.53
X76.45Y-82.07
X76.45Y-84.61
X80.332Y-49.436
X80.332Y-51.976
X80.332Y-54.516
X80.332Y-57.056
X80.332Y-59.596
X80.332Y-62.136
X96.475Y-104.747
X96.475Y-107.287
X96.475Y-109.827
X96.475Y-112.367
X98.782Y-92.302
X101.322Y-92.302
X103.862Y-92.302
X106.402Y-92.302
X108.942Y-92.302
X111.482Y-92.302
X156.26Y-100.323
X158.8Y-100.323
T10
X117.35Y-105.28
X133.61Y-105.28
X136.95Y-105.28
X153.21Y-105.28
T11
X148.95Y-42.25
X149.75Y-88.8
X154.85Y-69.75
X154.9Y-59.5
X155.15Y-50.6
X155.15Y-79.45
T12
X65.7Y-42.45
X65.7Y-111.1
X157.35Y-42.45
X157.35Y-111.1
T13
X119.75Y-43.9
X127.5Y-43.9
T6
X70.83Y-108.245G85X70.83Y-109.345
G05
X70.83Y-112.675G85X70.83Y-113.275
G05
X79.47Y-108.245G85X79.47Y-109.345
G05
X79.47Y-112.675G85X79.47Y-113.275
G05
X83.33Y-108.245G85X83.33Y-109.345
G05
X83.33Y-112.675G85X83.33Y-113.275
G05
X91.97Y-108.245G85X91.97Y-109.345
G05
X91.97Y-112.675G85X91.97Y-113.275
G05
T0
M30
