G04 #@! TF.GenerationSoftware,KiCad,Pcbnew,6.0.0-rc2*
G04 #@! TF.CreationDate,2022-06-30T13:47:11-07:00*
G04 #@! TF.ProjectId,RP2040_motor-rounded,52503230-3430-45f6-9d6f-746f722d726f,REV1*
G04 #@! TF.SameCoordinates,Original*
G04 #@! TF.FileFunction,Paste,Top*
G04 #@! TF.FilePolarity,Positive*
%FSLAX46Y46*%
G04 Gerber Fmt 4.6, Leading zero omitted, Abs format (unit mm)*
G04 Created by KiCad (PCBNEW 6.0.0-rc2) date 2022-06-30 13:47:11*
%MOMM*%
%LPD*%
G01*
G04 APERTURE LIST*
G04 Aperture macros list*
%AMRoundRect*
0 Rectangle with rounded corners*
0 $1 Rounding radius*
0 $2 $3 $4 $5 $6 $7 $8 $9 X,Y pos of 4 corners*
0 Add a 4 corners polygon primitive as box body*
4,1,4,$2,$3,$4,$5,$6,$7,$8,$9,$2,$3,0*
0 Add four circle primitives for the rounded corners*
1,1,$1+$1,$2,$3*
1,1,$1+$1,$4,$5*
1,1,$1+$1,$6,$7*
1,1,$1+$1,$8,$9*
0 Add four rect primitives between the rounded corners*
20,1,$1+$1,$2,$3,$4,$5,0*
20,1,$1+$1,$4,$5,$6,$7,0*
20,1,$1+$1,$6,$7,$8,$9,0*
20,1,$1+$1,$8,$9,$2,$3,0*%
G04 Aperture macros list end*
%ADD10RoundRect,0.243750X0.243750X0.456250X-0.243750X0.456250X-0.243750X-0.456250X0.243750X-0.456250X0*%
%ADD11RoundRect,0.225000X0.225000X0.250000X-0.225000X0.250000X-0.225000X-0.250000X0.225000X-0.250000X0*%
%ADD12RoundRect,0.225000X-0.250000X0.225000X-0.250000X-0.225000X0.250000X-0.225000X0.250000X0.225000X0*%
%ADD13RoundRect,0.225000X-0.225000X-0.250000X0.225000X-0.250000X0.225000X0.250000X-0.225000X0.250000X0*%
%ADD14RoundRect,0.225000X0.250000X-0.225000X0.250000X0.225000X-0.250000X0.225000X-0.250000X-0.225000X0*%
%ADD15RoundRect,0.147500X0.147500X0.172500X-0.147500X0.172500X-0.147500X-0.172500X0.147500X-0.172500X0*%
%ADD16R,1.500000X2.000000*%
%ADD17R,3.800000X2.000000*%
%ADD18RoundRect,0.150000X-0.150000X0.650000X-0.150000X-0.650000X0.150000X-0.650000X0.150000X0.650000X0*%
%ADD19RoundRect,0.200000X-0.200000X-0.275000X0.200000X-0.275000X0.200000X0.275000X-0.200000X0.275000X0*%
%ADD20RoundRect,0.200000X0.275000X-0.200000X0.275000X0.200000X-0.275000X0.200000X-0.275000X-0.200000X0*%
%ADD21RoundRect,0.243750X-0.456250X0.243750X-0.456250X-0.243750X0.456250X-0.243750X0.456250X0.243750X0*%
%ADD22RoundRect,0.250000X0.292217X0.292217X-0.292217X0.292217X-0.292217X-0.292217X0.292217X-0.292217X0*%
%ADD23RoundRect,0.050000X0.387500X0.050000X-0.387500X0.050000X-0.387500X-0.050000X0.387500X-0.050000X0*%
%ADD24RoundRect,0.050000X0.050000X0.387500X-0.050000X0.387500X-0.050000X-0.387500X0.050000X-0.387500X0*%
%ADD25RoundRect,0.250000X-0.250000X-0.475000X0.250000X-0.475000X0.250000X0.475000X-0.250000X0.475000X0*%
%ADD26RoundRect,0.150000X-0.150000X0.825000X-0.150000X-0.825000X0.150000X-0.825000X0.150000X0.825000X0*%
%ADD27RoundRect,0.625000X-1.075000X0.625000X-1.075000X-0.625000X1.075000X-0.625000X1.075000X0.625000X0*%
%ADD28R,1.200000X0.900000*%
%ADD29RoundRect,0.250000X1.500000X1.000000X-1.500000X1.000000X-1.500000X-1.000000X1.500000X-1.000000X0*%
%ADD30RoundRect,0.200000X-0.275000X0.200000X-0.275000X-0.200000X0.275000X-0.200000X0.275000X0.200000X0*%
%ADD31RoundRect,0.250000X-1.500000X-0.550000X1.500000X-0.550000X1.500000X0.550000X-1.500000X0.550000X0*%
%ADD32R,0.600000X0.700000*%
%ADD33R,1.200000X1.000000*%
%ADD34RoundRect,0.250000X0.362500X1.425000X-0.362500X1.425000X-0.362500X-1.425000X0.362500X-1.425000X0*%
%ADD35RoundRect,0.200000X0.200000X0.275000X-0.200000X0.275000X-0.200000X-0.275000X0.200000X-0.275000X0*%
%ADD36RoundRect,0.250000X-0.325000X-0.650000X0.325000X-0.650000X0.325000X0.650000X-0.325000X0.650000X0*%
%ADD37R,1.270000X0.610000*%
%ADD38R,1.020000X0.610000*%
%ADD39R,3.810000X3.910000*%
%ADD40R,0.900000X1.200000*%
%ADD41R,2.500000X1.800000*%
%ADD42RoundRect,0.150000X0.825000X0.150000X-0.825000X0.150000X-0.825000X-0.150000X0.825000X-0.150000X0*%
%ADD43RoundRect,0.150000X-0.150000X0.512500X-0.150000X-0.512500X0.150000X-0.512500X0.150000X0.512500X0*%
%ADD44RoundRect,0.250000X-0.475000X0.250000X-0.475000X-0.250000X0.475000X-0.250000X0.475000X0.250000X0*%
%ADD45RoundRect,0.250000X0.325000X1.100000X-0.325000X1.100000X-0.325000X-1.100000X0.325000X-1.100000X0*%
%ADD46R,0.450000X0.600000*%
%ADD47R,5.500000X2.150000*%
%ADD48R,0.750000X0.900000*%
%ADD49RoundRect,0.250000X0.250000X0.475000X-0.250000X0.475000X-0.250000X-0.475000X0.250000X-0.475000X0*%
%ADD50RoundRect,0.100000X0.712500X0.100000X-0.712500X0.100000X-0.712500X-0.100000X0.712500X-0.100000X0*%
%ADD51RoundRect,0.150000X0.150000X-0.512500X0.150000X0.512500X-0.150000X0.512500X-0.150000X-0.512500X0*%
%ADD52R,1.400000X1.200000*%
%ADD53RoundRect,0.150000X-0.512500X-0.150000X0.512500X-0.150000X0.512500X0.150000X-0.512500X0.150000X0*%
%ADD54R,1.780000X3.430000*%
%ADD55RoundRect,0.250000X0.625000X-0.312500X0.625000X0.312500X-0.625000X0.312500X-0.625000X-0.312500X0*%
%ADD56R,0.300000X1.150000*%
G04 APERTURE END LIST*
D10*
X99452500Y-100200000D03*
X97577500Y-100200000D03*
D11*
X86140000Y-111890000D03*
X84590000Y-111890000D03*
D12*
X88590000Y-110760000D03*
X88590000Y-112310000D03*
D13*
X98100000Y-103550000D03*
X99650000Y-103550000D03*
D14*
X103770000Y-117070000D03*
X103770000Y-115520000D03*
D15*
X102220000Y-107010000D03*
X101250000Y-107010000D03*
D16*
X98490000Y-97850000D03*
D17*
X100790000Y-91550000D03*
D16*
X100790000Y-97850000D03*
X103090000Y-97850000D03*
D18*
X101830000Y-110860000D03*
X100560000Y-110860000D03*
X99290000Y-110860000D03*
X98020000Y-110860000D03*
X98020000Y-118060000D03*
X99290000Y-118060000D03*
X100560000Y-118060000D03*
X101830000Y-118060000D03*
D11*
X90680000Y-95650000D03*
X89130000Y-95650000D03*
D19*
X101660000Y-108510000D03*
X103310000Y-108510000D03*
D12*
X91040000Y-111910000D03*
X91040000Y-113460000D03*
D11*
X84730000Y-103800000D03*
X83180000Y-103800000D03*
D14*
X90359000Y-98740000D03*
X90359000Y-97190000D03*
D20*
X85190000Y-116160000D03*
X85190000Y-114510000D03*
D14*
X88440000Y-98740000D03*
X88440000Y-97190000D03*
D21*
X103400000Y-100010000D03*
X103400000Y-101885000D03*
D13*
X97100000Y-108900000D03*
X98650000Y-108900000D03*
D11*
X86080000Y-110300000D03*
X84530000Y-110300000D03*
D22*
X92027500Y-104612500D03*
X90752500Y-105887500D03*
X90752500Y-104612500D03*
X92027500Y-105887500D03*
D23*
X94827500Y-107850000D03*
X94827500Y-107450000D03*
X94827500Y-107050000D03*
X94827500Y-106650000D03*
X94827500Y-106250000D03*
X94827500Y-105850000D03*
X94827500Y-105450000D03*
X94827500Y-105050000D03*
X94827500Y-104650000D03*
X94827500Y-104250000D03*
X94827500Y-103850000D03*
X94827500Y-103450000D03*
X94827500Y-103050000D03*
X94827500Y-102650000D03*
D24*
X93990000Y-101812500D03*
X93590000Y-101812500D03*
X93190000Y-101812500D03*
X92790000Y-101812500D03*
X92390000Y-101812500D03*
X91990000Y-101812500D03*
X91590000Y-101812500D03*
X91190000Y-101812500D03*
X90790000Y-101812500D03*
X90390000Y-101812500D03*
X89990000Y-101812500D03*
X89590000Y-101812500D03*
X89190000Y-101812500D03*
X88790000Y-101812500D03*
D23*
X87952500Y-102650000D03*
X87952500Y-103050000D03*
X87952500Y-103450000D03*
X87952500Y-103850000D03*
X87952500Y-104250000D03*
X87952500Y-104650000D03*
X87952500Y-105050000D03*
X87952500Y-105450000D03*
X87952500Y-105850000D03*
X87952500Y-106250000D03*
X87952500Y-106650000D03*
X87952500Y-107050000D03*
X87952500Y-107450000D03*
X87952500Y-107850000D03*
D24*
X88790000Y-108687500D03*
X89190000Y-108687500D03*
X89590000Y-108687500D03*
X89990000Y-108687500D03*
X90390000Y-108687500D03*
X90790000Y-108687500D03*
X91190000Y-108687500D03*
X91590000Y-108687500D03*
X91990000Y-108687500D03*
X92390000Y-108687500D03*
X92790000Y-108687500D03*
X93190000Y-108687500D03*
X93590000Y-108687500D03*
X93990000Y-108687500D03*
D14*
X95150000Y-93600000D03*
X95150000Y-92050000D03*
D20*
X83390000Y-116160000D03*
X83390000Y-114510000D03*
D12*
X92640000Y-112010000D03*
X92640000Y-113560000D03*
D11*
X86080000Y-108650000D03*
X84530000Y-108650000D03*
D20*
X92340000Y-98460000D03*
X92340000Y-96810000D03*
D21*
X101350000Y-100037500D03*
X101350000Y-101912500D03*
D13*
X114065900Y-73680000D03*
X115615900Y-73680000D03*
D25*
X112340900Y-103380000D03*
X114240900Y-103380000D03*
D12*
X90640000Y-86165000D03*
X90640000Y-87715000D03*
D26*
X90655000Y-76475000D03*
X89385000Y-76475000D03*
X88115000Y-76475000D03*
X86845000Y-76475000D03*
X86845000Y-81425000D03*
X88115000Y-81425000D03*
X89385000Y-81425000D03*
X90655000Y-81425000D03*
D27*
X88750000Y-78950000D03*
D28*
X117750000Y-104050000D03*
X117750000Y-100750000D03*
D29*
X127960000Y-117250000D03*
X121460000Y-117250000D03*
D30*
X107700000Y-112600000D03*
X107700000Y-114250000D03*
D31*
X96165000Y-72020000D03*
X101565000Y-72020000D03*
D32*
X100300000Y-81700000D03*
X101700000Y-81700000D03*
D30*
X139550000Y-94175000D03*
X139550000Y-95825000D03*
D33*
X95950000Y-88050000D03*
X103350000Y-88050000D03*
D34*
X155822500Y-114740000D03*
X149897500Y-114740000D03*
D11*
X150625000Y-97900000D03*
X149075000Y-97900000D03*
X142725000Y-97100000D03*
X141175000Y-97100000D03*
D35*
X150665000Y-92310000D03*
X149015000Y-92310000D03*
D36*
X135775000Y-75500000D03*
X138725000Y-75500000D03*
D37*
X147970000Y-119535000D03*
X147970000Y-120805000D03*
X147970000Y-118265000D03*
X147970000Y-116995000D03*
D38*
X142505000Y-118265000D03*
X142505000Y-119535000D03*
D39*
X144610000Y-118900000D03*
D38*
X142505000Y-120805000D03*
X142505000Y-116995000D03*
D30*
X163420000Y-92495000D03*
X163420000Y-94145000D03*
D12*
X80950000Y-94825000D03*
X80950000Y-96375000D03*
D34*
X156022500Y-84860000D03*
X150097500Y-84860000D03*
D35*
X81025000Y-90100000D03*
X79375000Y-90100000D03*
D20*
X163469100Y-97890000D03*
X163469100Y-96240000D03*
D12*
X117570000Y-80925900D03*
X117570000Y-82475900D03*
D40*
X152610000Y-69570000D03*
X155910000Y-69570000D03*
D35*
X81025000Y-91690000D03*
X79375000Y-91690000D03*
D19*
X83605000Y-118460000D03*
X85255000Y-118460000D03*
D37*
X147970000Y-71964500D03*
X147970000Y-73234500D03*
X147970000Y-70694500D03*
X147970000Y-69424500D03*
D38*
X142505000Y-70694500D03*
X142505000Y-73234500D03*
X142505000Y-69424500D03*
X142505000Y-71964500D03*
D39*
X144610000Y-71329500D03*
D30*
X107869000Y-96090000D03*
X107869000Y-97740000D03*
X107779000Y-77510000D03*
X107779000Y-79160000D03*
D40*
X140281000Y-106375000D03*
X143581000Y-106375000D03*
D35*
X85195000Y-120170000D03*
X83545000Y-120170000D03*
D41*
X97995000Y-77500000D03*
X101995000Y-77500000D03*
D25*
X112730900Y-94700000D03*
X114630900Y-94700000D03*
D42*
X114934100Y-109755000D03*
X114934100Y-108485000D03*
X114934100Y-107215000D03*
X114934100Y-105945000D03*
X109984100Y-105945000D03*
X109984100Y-107215000D03*
X109984100Y-108485000D03*
X109984100Y-109755000D03*
D43*
X87534000Y-87514200D03*
X86584000Y-87514200D03*
X85634000Y-87514200D03*
X85634000Y-89789200D03*
X86584000Y-89789200D03*
X87534000Y-89789200D03*
D29*
X127960000Y-81220000D03*
X121460000Y-81220000D03*
D44*
X86210000Y-68945000D03*
X86210000Y-70845000D03*
D30*
X107779000Y-100690000D03*
X107779000Y-102340000D03*
D45*
X95325000Y-79400000D03*
X92375000Y-79400000D03*
D19*
X82525000Y-91700000D03*
X84175000Y-91700000D03*
D13*
X160206600Y-96245000D03*
X161756600Y-96245000D03*
D46*
X106010000Y-87245000D03*
X106010000Y-89345000D03*
D20*
X158681900Y-97910000D03*
X158681900Y-96260000D03*
D28*
X117750000Y-120950000D03*
X117750000Y-117650000D03*
D13*
X160285000Y-94170000D03*
X161835000Y-94170000D03*
D11*
X150625000Y-93950000D03*
X149075000Y-93950000D03*
D37*
X147970000Y-81575000D03*
X147970000Y-79035000D03*
X147970000Y-80305000D03*
X147970000Y-77765000D03*
D39*
X144610000Y-79670000D03*
D38*
X142505000Y-80305000D03*
X142505000Y-81575000D03*
X142505000Y-77765000D03*
X142505000Y-79035000D03*
D47*
X90705000Y-73645000D03*
X90705000Y-69795000D03*
D34*
X155822500Y-101880000D03*
X149897500Y-101880000D03*
D20*
X85230000Y-77620000D03*
X85230000Y-75970000D03*
D34*
X155822500Y-76140000D03*
X149897500Y-76140000D03*
D46*
X106010000Y-73920000D03*
X106010000Y-76020000D03*
D20*
X147540000Y-94025000D03*
X147540000Y-92375000D03*
D40*
X103870000Y-83900000D03*
X100570000Y-83900000D03*
D37*
X139380000Y-79035000D03*
X139380000Y-80305000D03*
X139380000Y-81575000D03*
X139380000Y-77765000D03*
D38*
X133915000Y-80305000D03*
X133915000Y-79035000D03*
D39*
X136020000Y-79670000D03*
D38*
X133915000Y-81575000D03*
X133915000Y-77765000D03*
D37*
X139380000Y-87265000D03*
X139380000Y-89805000D03*
X139380000Y-88535000D03*
X139380000Y-85995000D03*
D39*
X136020000Y-87900000D03*
D38*
X133915000Y-88535000D03*
X133915000Y-89805000D03*
X133915000Y-85995000D03*
X133915000Y-87265000D03*
D42*
X114884100Y-79125000D03*
X114884100Y-77855000D03*
X114884100Y-76585000D03*
X114884100Y-75315000D03*
X109934100Y-75315000D03*
X109934100Y-76585000D03*
X109934100Y-77855000D03*
X109934100Y-79125000D03*
D30*
X107769000Y-74310000D03*
X107769000Y-75960000D03*
D14*
X89100000Y-87735000D03*
X89100000Y-86185000D03*
D48*
X114450000Y-72050000D03*
X115950000Y-72050000D03*
X115950000Y-69350000D03*
X114450000Y-69350000D03*
D30*
X107919000Y-81415000D03*
X107919000Y-83065000D03*
D37*
X147970000Y-87265000D03*
X147970000Y-88535000D03*
X147970000Y-89805000D03*
X147970000Y-85995000D03*
D38*
X142505000Y-87265000D03*
X142505000Y-89805000D03*
X142505000Y-88535000D03*
X142505000Y-85995000D03*
D39*
X144610000Y-87900000D03*
D49*
X111759100Y-81000000D03*
X109859100Y-81000000D03*
D13*
X92575000Y-85100000D03*
X94125000Y-85100000D03*
D42*
X115144100Y-92495000D03*
X115144100Y-91225000D03*
X115144100Y-89955000D03*
X115144100Y-88685000D03*
X110194100Y-88685000D03*
X110194100Y-89955000D03*
X110194100Y-91225000D03*
X110194100Y-92495000D03*
D34*
X155822500Y-105920000D03*
X149897500Y-105920000D03*
D42*
X114944100Y-117525000D03*
X114944100Y-116255000D03*
X114944100Y-114985000D03*
X114944100Y-113715000D03*
X109994100Y-113715000D03*
X109994100Y-114985000D03*
X109994100Y-116255000D03*
X109994100Y-117525000D03*
D19*
X100137000Y-80074900D03*
X101787000Y-80074900D03*
D36*
X135825000Y-83700000D03*
X138775000Y-83700000D03*
D42*
X115134100Y-86875000D03*
X115134100Y-85605000D03*
X115134100Y-84335000D03*
X115134100Y-83065000D03*
X110184100Y-83065000D03*
X110184100Y-84335000D03*
X110184100Y-85605000D03*
X110184100Y-86875000D03*
D30*
X107821000Y-108905000D03*
X107821000Y-110555000D03*
D46*
X106010000Y-83920000D03*
X106010000Y-86020000D03*
D19*
X97133900Y-80060000D03*
X98783900Y-80060000D03*
D34*
X155822500Y-110620000D03*
X149897500Y-110620000D03*
D37*
X147970000Y-111085000D03*
X147970000Y-109815000D03*
X147970000Y-112355000D03*
X147970000Y-108545000D03*
D38*
X142505000Y-109815000D03*
X142505000Y-108545000D03*
X142505000Y-112355000D03*
D39*
X144610000Y-110450000D03*
D38*
X142505000Y-111085000D03*
D29*
X127960000Y-108200000D03*
X121460000Y-108200000D03*
D40*
X145021000Y-114585000D03*
X148321000Y-114585000D03*
X145010000Y-106375000D03*
X148310000Y-106375000D03*
D36*
X135775000Y-114600000D03*
X138725000Y-114600000D03*
D30*
X107719000Y-104395000D03*
X107719000Y-106045000D03*
D25*
X112640900Y-111680000D03*
X114540900Y-111680000D03*
D30*
X107900000Y-87570000D03*
X107900000Y-89220000D03*
D40*
X101150000Y-120400000D03*
X97850000Y-120400000D03*
D37*
X139380000Y-73225000D03*
X139380000Y-70685000D03*
X139380000Y-71955000D03*
X139380000Y-69415000D03*
D38*
X133915000Y-71955000D03*
D39*
X136020000Y-71320000D03*
D38*
X133915000Y-73225000D03*
X133915000Y-70685000D03*
X133915000Y-69415000D03*
D46*
X106010000Y-92120000D03*
X106010000Y-94220000D03*
D50*
X156712500Y-97975000D03*
X156712500Y-97325000D03*
X156712500Y-96675000D03*
X156712500Y-96025000D03*
X152487500Y-96025000D03*
X152487500Y-96675000D03*
X152487500Y-97325000D03*
X152487500Y-97975000D03*
D46*
X106010000Y-80570000D03*
X106010000Y-82670000D03*
X105810000Y-95900000D03*
X105810000Y-98000000D03*
D40*
X140381000Y-83695000D03*
X143681000Y-83695000D03*
D19*
X144356900Y-97738000D03*
X146006900Y-97738000D03*
D11*
X146015000Y-94060000D03*
X144465000Y-94060000D03*
D19*
X85385000Y-85700000D03*
X87035000Y-85700000D03*
D42*
X114984100Y-101305000D03*
X114984100Y-100035000D03*
X114984100Y-98765000D03*
X114984100Y-97495000D03*
X110034100Y-97495000D03*
X110034100Y-98765000D03*
X110034100Y-100035000D03*
X110034100Y-101305000D03*
D51*
X141076000Y-93875800D03*
X142026000Y-93875800D03*
X142976000Y-93875800D03*
X142976000Y-91600800D03*
X142026000Y-91600800D03*
X141076000Y-91600800D03*
D37*
X139380000Y-111085000D03*
X139380000Y-112355000D03*
X139380000Y-109815000D03*
X139380000Y-108545000D03*
D38*
X133915000Y-111085000D03*
X133915000Y-108545000D03*
D39*
X136020000Y-110450000D03*
D38*
X133915000Y-109815000D03*
X133915000Y-112355000D03*
D52*
X90850000Y-93750000D03*
X93050000Y-93750000D03*
X93050000Y-92050000D03*
X90850000Y-92050000D03*
D35*
X150675000Y-96230900D03*
X149025000Y-96230900D03*
D30*
X107600000Y-117400000D03*
X107600000Y-119050000D03*
D29*
X127960000Y-99200000D03*
X121460000Y-99200000D03*
D53*
X82684200Y-94266000D03*
X82684200Y-95216000D03*
X82684200Y-96166000D03*
X84959200Y-96166000D03*
X84959200Y-95216000D03*
X84959200Y-94266000D03*
D46*
X106010000Y-77170000D03*
X106010000Y-79270000D03*
D54*
X80800000Y-109600000D03*
D35*
X81415000Y-118200000D03*
X79765000Y-118200000D03*
D50*
X156712500Y-94315000D03*
X156712500Y-93665000D03*
X156712500Y-93015000D03*
X156712500Y-92365000D03*
X152487500Y-92365000D03*
X152487500Y-93015000D03*
X152487500Y-93665000D03*
X152487500Y-94315000D03*
D48*
X111050000Y-72050000D03*
X112550000Y-72050000D03*
X112550000Y-69350000D03*
X111050000Y-69350000D03*
D30*
X107800000Y-92370000D03*
X107800000Y-94020000D03*
D11*
X145943400Y-96025000D03*
X144393400Y-96025000D03*
D28*
X117850000Y-87320000D03*
X117850000Y-84020000D03*
D37*
X139380000Y-118265000D03*
X139380000Y-120805000D03*
X139380000Y-119535000D03*
X139380000Y-116995000D03*
D38*
X133915000Y-116995000D03*
X133915000Y-119535000D03*
X133915000Y-120805000D03*
X133915000Y-118265000D03*
D39*
X136020000Y-118900000D03*
D40*
X135810000Y-92155000D03*
X139110000Y-92155000D03*
X140281000Y-114585000D03*
X143581000Y-114585000D03*
D12*
X117270000Y-114005900D03*
X117270000Y-115555900D03*
D20*
X158740000Y-94205000D03*
X158740000Y-92555000D03*
D12*
X117470000Y-88975900D03*
X117470000Y-90525900D03*
D35*
X161843100Y-97842000D03*
X160193100Y-97842000D03*
D40*
X140310000Y-75495000D03*
X143610000Y-75495000D03*
X145021000Y-75495000D03*
X148321000Y-75495000D03*
X135860000Y-97850000D03*
X139160000Y-97850000D03*
D11*
X94125000Y-83540000D03*
X92575000Y-83540000D03*
D46*
X105810000Y-112275000D03*
X105810000Y-114375000D03*
D40*
X151921000Y-120535000D03*
X155221000Y-120535000D03*
D37*
X147970000Y-104214500D03*
X147970000Y-101674500D03*
X147970000Y-102944500D03*
X147970000Y-100404500D03*
D38*
X142505000Y-104214500D03*
X142505000Y-101674500D03*
D39*
X144610000Y-102309500D03*
D38*
X142505000Y-100404500D03*
X142505000Y-102944500D03*
D37*
X139380000Y-102935000D03*
X139380000Y-104205000D03*
X139380000Y-101665000D03*
X139380000Y-100395000D03*
D38*
X133915000Y-104205000D03*
D39*
X136020000Y-102300000D03*
D38*
X133915000Y-100395000D03*
X133915000Y-102935000D03*
X133915000Y-101665000D03*
D14*
X79410000Y-96375000D03*
X79410000Y-94825000D03*
D35*
X81025000Y-93250000D03*
X79375000Y-93250000D03*
D20*
X147540000Y-97740000D03*
X147540000Y-96090000D03*
D48*
X107650000Y-72050000D03*
X109150000Y-72050000D03*
X109150000Y-69350000D03*
X107650000Y-69350000D03*
D34*
X155822500Y-80240000D03*
X149897500Y-80240000D03*
D43*
X94074000Y-86834200D03*
X93124000Y-86834200D03*
X92174000Y-86834200D03*
X92174000Y-89109200D03*
X93124000Y-89109200D03*
X94074000Y-89109200D03*
D19*
X85365000Y-84100000D03*
X87015000Y-84100000D03*
D34*
X156022500Y-88800000D03*
X150097500Y-88800000D03*
D46*
X105810000Y-104050000D03*
X105810000Y-106150000D03*
X105810000Y-100450000D03*
X105810000Y-102550000D03*
D30*
X107921000Y-84525000D03*
X107921000Y-86175000D03*
D25*
X112530900Y-119730000D03*
X114430900Y-119730000D03*
D28*
X117650000Y-112400000D03*
X117650000Y-109100000D03*
D35*
X81425000Y-114100000D03*
X79775000Y-114100000D03*
D12*
X117370000Y-105805900D03*
X117370000Y-107355900D03*
D35*
X81425000Y-115990000D03*
X79775000Y-115990000D03*
D29*
X127960000Y-90170000D03*
X121460000Y-90170000D03*
D46*
X105810000Y-117150000D03*
X105810000Y-119250000D03*
D13*
X141185000Y-95560000D03*
X142735000Y-95560000D03*
D35*
X161865000Y-92500000D03*
X160215000Y-92500000D03*
D55*
X83880000Y-72067500D03*
X83880000Y-69142500D03*
D46*
X105810000Y-108600000D03*
X105810000Y-110700000D03*
D36*
X135775000Y-106400000D03*
X138725000Y-106400000D03*
D25*
X113640900Y-81050000D03*
X115540900Y-81050000D03*
D28*
X117950000Y-95370000D03*
X117950000Y-92070000D03*
D49*
X94355000Y-76620000D03*
X92455000Y-76620000D03*
D40*
X145121000Y-83705000D03*
X148421000Y-83705000D03*
D20*
X86030000Y-74060000D03*
X86030000Y-72410000D03*
D12*
X117520000Y-97345900D03*
X117520000Y-98895900D03*
D35*
X84175000Y-90100000D03*
X82525000Y-90100000D03*
D13*
X82885000Y-73890000D03*
X84435000Y-73890000D03*
D56*
X88050000Y-115580000D03*
X88850000Y-115580000D03*
X90150000Y-115580000D03*
X91150000Y-115580000D03*
X91650000Y-115580000D03*
X92650000Y-115580000D03*
X93950000Y-115580000D03*
X94750000Y-115580000D03*
X94450000Y-115580000D03*
X93650000Y-115580000D03*
X93150000Y-115580000D03*
X92150000Y-115580000D03*
X90650000Y-115580000D03*
X89650000Y-115580000D03*
X89150000Y-115580000D03*
X88350000Y-115580000D03*
D19*
X144425000Y-92400000D03*
X146075000Y-92400000D03*
X141115000Y-98640000D03*
X142765000Y-98640000D03*
G36*
X74359191Y-89518907D02*
G01*
X74395155Y-89568407D01*
X74400000Y-89599000D01*
X74400000Y-90901000D01*
X74381093Y-90959191D01*
X74331593Y-90995155D01*
X74301000Y-91000000D01*
X72299000Y-91000000D01*
X72240809Y-90981093D01*
X72204845Y-90931593D01*
X72200000Y-90901000D01*
X72200000Y-89599000D01*
X72218907Y-89540809D01*
X72268407Y-89504845D01*
X72299000Y-89500000D01*
X74301000Y-89500000D01*
X74359191Y-89518907D01*
G37*
M02*
