%FSLAX45Y45*%
G04 Gerber Fmt 4.5, Leading zero omitted, Abs format (unit mm)*
G04 Created by KiCad (PCBNEW 6.0.2+dfsg-1) date 2022-11-23 20:40:02*
%MOMM*%
%LPD*%
G01*
G04 APERTURE LIST*
%TA.AperFunction,Profile*%
%ADD10C,0.050000*%
%TD*%
%ADD11C,0.200000*%
%ADD12C,0.020000*%
%ADD13C,0.035000*%
%ADD14C,0.040000*%
%ADD15C,0.050000*%
%ADD16C,0.060000*%
%ADD17C,0.090000*%
%ADD18C,0.119000*%
%ADD19C,0.350000*%
%ADD20C,0.390000*%
%ADD21C,0.400000*%
G04 APERTURE END LIST*
D10*
X6275000Y-13750000D02*
G75*
G03*
X6450000Y-13925000I175000J0D01*
G01*
X6450000Y-6800000D02*
G75*
G03*
X6275000Y-6975000I0J-175000D01*
G01*
X15975000Y-13925000D02*
G75*
G03*
X16150000Y-13750000I0J175000D01*
G01*
X16150000Y-6975000D02*
G75*
G03*
X15975000Y-6800000I-175000J0D01*
G01*
X6275000Y-13750000D02*
X6275000Y-6975000D01*
X15975000Y-13925000D02*
X6450000Y-13925000D01*
X15975000Y-6800000D02*
X6450000Y-6800000D01*
X16150000Y-6975000D02*
X16150000Y-13750000D01*
D11*
D12*
X6360000Y-9200000D02*
X6380000Y-9220000D01*
X6380000Y-9200000D02*
X6360000Y-9220000D01*
X6460000Y-9200000D02*
X6480000Y-9220000D01*
X6480000Y-9200000D02*
X6460000Y-9220000D01*
X6570000Y-9200000D02*
X6590000Y-9220000D01*
X6590000Y-9200000D02*
X6570000Y-9220000D01*
X6990000Y-10040000D02*
X7010000Y-10060000D01*
X7010000Y-10040000D02*
X6990000Y-10060000D01*
X7050000Y-10570000D02*
X7070000Y-10590000D01*
X7070000Y-10570000D02*
X7050000Y-10590000D01*
X7090000Y-11295000D02*
X7110000Y-11315000D01*
X7110000Y-11295000D02*
X7090000Y-11315000D01*
X7140000Y-10440000D02*
X7160000Y-10460000D01*
X7160000Y-10440000D02*
X7140000Y-10460000D01*
X7300600Y-11633400D02*
X7320600Y-11653400D01*
X7320600Y-11633400D02*
X7300600Y-11653400D01*
X7380000Y-12280000D02*
X7400000Y-12300000D01*
X7400000Y-12280000D02*
X7380000Y-12300000D01*
X7528700Y-12545000D02*
X7548700Y-12565000D01*
X7548700Y-12545000D02*
X7528700Y-12565000D01*
X7613700Y-12545000D02*
X7633700Y-12565000D01*
X7633700Y-12545000D02*
X7613700Y-12565000D01*
X7715000Y-11665000D02*
X7735000Y-11685000D01*
X7735000Y-11665000D02*
X7715000Y-11685000D01*
X7720000Y-7390000D02*
X7740000Y-7410000D01*
X7740000Y-7390000D02*
X7720000Y-7410000D01*
X7760000Y-12615000D02*
X7780000Y-12635000D01*
X7780000Y-12615000D02*
X7760000Y-12635000D01*
X7840000Y-12715000D02*
X7860000Y-12735000D01*
X7860000Y-12715000D02*
X7840000Y-12735000D01*
X7865000Y-12365000D02*
X7885000Y-12385000D01*
X7885000Y-12365000D02*
X7865000Y-12385000D01*
X7880000Y-11715000D02*
X7900000Y-11735000D01*
X7900000Y-11715000D02*
X7880000Y-11735000D01*
X7960000Y-11610000D02*
X7980000Y-11630000D01*
X7980000Y-11610000D02*
X7960000Y-11630000D01*
X7960000Y-12790100D02*
X7980000Y-12810100D01*
X7980000Y-12790100D02*
X7960000Y-12810100D01*
X7960000Y-12890050D02*
X7980000Y-12910050D01*
X7980000Y-12890050D02*
X7960000Y-12910050D01*
X8115000Y-12840000D02*
X8135000Y-12860000D01*
X8135000Y-12840000D02*
X8115000Y-12860000D01*
X8137199Y-11507199D02*
X8157199Y-11527199D01*
X8157199Y-11507199D02*
X8137199Y-11527199D01*
X8150198Y-12370263D02*
X8170198Y-12390263D01*
X8170198Y-12370263D02*
X8150198Y-12390263D01*
X8160000Y-7150000D02*
X8180000Y-7170000D01*
X8180000Y-7150000D02*
X8160000Y-7170000D01*
X8165000Y-12890000D02*
X8185000Y-12910000D01*
X8185000Y-12890000D02*
X8165000Y-12910000D01*
X8178100Y-12147400D02*
X8198100Y-12167400D01*
X8198100Y-12147400D02*
X8178100Y-12167400D01*
X8202199Y-11442199D02*
X8222199Y-11462199D01*
X8222199Y-11442199D02*
X8202199Y-11462199D01*
X8221641Y-11681641D02*
X8241641Y-11701641D01*
X8241641Y-11681641D02*
X8221641Y-11701641D01*
X8235109Y-11769891D02*
X8255109Y-11789891D01*
X8255109Y-11769891D02*
X8235109Y-11789891D01*
X8239950Y-10384499D02*
X8259950Y-10404499D01*
X8259950Y-10384499D02*
X8239950Y-10404499D01*
X8246671Y-12337905D02*
X8266671Y-12357905D01*
X8266671Y-12337905D02*
X8246671Y-12357905D01*
X8258506Y-10593486D02*
X8278506Y-10613486D01*
X8278506Y-10593486D02*
X8258506Y-10613486D01*
X8266997Y-11377400D02*
X8286997Y-11397400D01*
X8286997Y-11377400D02*
X8266997Y-11397400D01*
X8281641Y-11621641D02*
X8301641Y-11641641D01*
X8301641Y-11621641D02*
X8281641Y-11641641D01*
X8290000Y-10520000D02*
X8310000Y-10540000D01*
X8310000Y-10520000D02*
X8290000Y-10540000D01*
X8300823Y-10661319D02*
X8320823Y-10681319D01*
X8320823Y-10661319D02*
X8300823Y-10681319D01*
X8310000Y-11310000D02*
X8330000Y-11330000D01*
X8330000Y-11310000D02*
X8310000Y-11330000D01*
X8333467Y-12456533D02*
X8353467Y-12476533D01*
X8353467Y-12456533D02*
X8333467Y-12476533D01*
X8350720Y-10739950D02*
X8370720Y-10759950D01*
X8370720Y-10739950D02*
X8350720Y-10759950D01*
X8390000Y-12400000D02*
X8410000Y-12420000D01*
X8410000Y-12400000D02*
X8390000Y-12420000D01*
X8465000Y-12790000D02*
X8485000Y-12810000D01*
X8485000Y-12790000D02*
X8465000Y-12810000D01*
X8510000Y-9050000D02*
X8530000Y-9070000D01*
X8530000Y-9050000D02*
X8510000Y-9070000D01*
X8510600Y-12093397D02*
X8530600Y-12113397D01*
X8530600Y-12093397D02*
X8510600Y-12113397D01*
X8559999Y-10555050D02*
X8579999Y-10575050D01*
X8579999Y-10555050D02*
X8559999Y-10575050D01*
X8598511Y-10479254D02*
X8618511Y-10499254D01*
X8618511Y-10479254D02*
X8598511Y-10499254D01*
X8607869Y-11334484D02*
X8627869Y-11354484D01*
X8627869Y-11334484D02*
X8607869Y-11354484D01*
X8640000Y-10200000D02*
X8660000Y-10220000D01*
X8660000Y-10200000D02*
X8640000Y-10220000D01*
X8650000Y-10070000D02*
X8670000Y-10090000D01*
X8670000Y-10070000D02*
X8650000Y-10090000D01*
X8660000Y-9990000D02*
X8680000Y-10010000D01*
X8680000Y-9990000D02*
X8660000Y-10010000D01*
X8670000Y-9060000D02*
X8690000Y-9080000D01*
X8690000Y-9060000D02*
X8670000Y-9080000D01*
X8670000Y-10515050D02*
X8690000Y-10535050D01*
X8690000Y-10515050D02*
X8670000Y-10535050D01*
X8677933Y-11382715D02*
X8697933Y-11402715D01*
X8697933Y-11382715D02*
X8677933Y-11402715D01*
X8680000Y-11300000D02*
X8700000Y-11320000D01*
X8700000Y-11300000D02*
X8680000Y-11320000D01*
X8680650Y-12470850D02*
X8700650Y-12490850D01*
X8700650Y-12470850D02*
X8680650Y-12490850D01*
X8685000Y-9905000D02*
X8705000Y-9925000D01*
X8705000Y-9905000D02*
X8685000Y-9925000D01*
X8697500Y-12800000D02*
X8717500Y-12820000D01*
X8717500Y-12800000D02*
X8697500Y-12820000D01*
X8750000Y-8530000D02*
X8770000Y-8550000D01*
X8770000Y-8530000D02*
X8750000Y-8550000D01*
X8760000Y-8420000D02*
X8780000Y-8440000D01*
X8780000Y-8420000D02*
X8760000Y-8440000D01*
X8782500Y-12800000D02*
X8802500Y-12820000D01*
X8802500Y-12800000D02*
X8782500Y-12820000D01*
X8790000Y-10150000D02*
X8810000Y-10170000D01*
X8810000Y-10150000D02*
X8790000Y-10170000D01*
X8800000Y-8820000D02*
X8820000Y-8840000D01*
X8820000Y-8820000D02*
X8800000Y-8840000D01*
X8800547Y-11350000D02*
X8820547Y-11370000D01*
X8820547Y-11350000D02*
X8800547Y-11370000D01*
X8800550Y-11590000D02*
X8820550Y-11610000D01*
X8820550Y-11590000D02*
X8800550Y-11610000D01*
X8860000Y-9290000D02*
X8880000Y-9310000D01*
X8880000Y-9290000D02*
X8860000Y-9310000D01*
X8865000Y-9165000D02*
X8885000Y-9185000D01*
X8885000Y-9165000D02*
X8865000Y-9185000D01*
X8890000Y-11465000D02*
X8910000Y-11485000D01*
X8910000Y-11465000D02*
X8890000Y-11485000D01*
X8894703Y-10261021D02*
X8914703Y-10281021D01*
X8914703Y-10261021D02*
X8894703Y-10281021D01*
X8930600Y-12107400D02*
X8950600Y-12127400D01*
X8950600Y-12107400D02*
X8930600Y-12127400D01*
X8950000Y-9725000D02*
X8970000Y-9745000D01*
X8970000Y-9725000D02*
X8950000Y-9745000D01*
X8955000Y-11040000D02*
X8975000Y-11060000D01*
X8975000Y-11040000D02*
X8955000Y-11060000D01*
X8965848Y-11490282D02*
X8985848Y-11510282D01*
X8985848Y-11490282D02*
X8965848Y-11510282D01*
X8991866Y-12633882D02*
X9011866Y-12653882D01*
X9011866Y-12633882D02*
X8991866Y-12653882D01*
X9005600Y-11582400D02*
X9025600Y-11602400D01*
X9025600Y-11582400D02*
X9005600Y-11602400D01*
X9015000Y-9972500D02*
X9035000Y-9992500D01*
X9035000Y-9972500D02*
X9015000Y-9992500D01*
X9016000Y-11100000D02*
X9036000Y-11120000D01*
X9036000Y-11100000D02*
X9016000Y-11120000D01*
X9033721Y-12702000D02*
X9053721Y-12722000D01*
X9053721Y-12702000D02*
X9033721Y-12722000D01*
X9055000Y-10725000D02*
X9075000Y-10745000D01*
X9075000Y-10725000D02*
X9055000Y-10745000D01*
X9069003Y-10305000D02*
X9089003Y-10325000D01*
X9089003Y-10305000D02*
X9069003Y-10325000D01*
X9080000Y-12552450D02*
X9100000Y-12572450D01*
X9100000Y-12552450D02*
X9080000Y-12572450D01*
X9080000Y-12632400D02*
X9100000Y-12652400D01*
X9100000Y-12632400D02*
X9080000Y-12652400D01*
X9140000Y-12994950D02*
X9160000Y-13014950D01*
X9160000Y-12994950D02*
X9140000Y-13014950D01*
X9155000Y-11050000D02*
X9175000Y-11070000D01*
X9175000Y-11050000D02*
X9155000Y-11070000D01*
X9215000Y-13140000D02*
X9235000Y-13160000D01*
X9235000Y-13140000D02*
X9215000Y-13160000D01*
X9279948Y-12210052D02*
X9299948Y-12230052D01*
X9299948Y-12210052D02*
X9279948Y-12230052D01*
X9340052Y-12149948D02*
X9360052Y-12169948D01*
X9360052Y-12149948D02*
X9340052Y-12169948D01*
X9390000Y-11390000D02*
X9410000Y-11410000D01*
X9410000Y-11390000D02*
X9390000Y-11410000D01*
X9420000Y-9735000D02*
X9440000Y-9755000D01*
X9440000Y-9735000D02*
X9420000Y-9755000D01*
X9440000Y-12765000D02*
X9460000Y-12785000D01*
X9460000Y-12765000D02*
X9440000Y-12785000D01*
X9445000Y-10865000D02*
X9465000Y-10885000D01*
X9465000Y-10865000D02*
X9445000Y-10885000D01*
X9450000Y-11230000D02*
X9470000Y-11250000D01*
X9470000Y-11230000D02*
X9450000Y-11250000D01*
X9485000Y-10990000D02*
X9505000Y-11010000D01*
X9505000Y-10990000D02*
X9485000Y-11010000D01*
X9490000Y-9620000D02*
X9510000Y-9640000D01*
X9510000Y-9620000D02*
X9490000Y-9640000D01*
X9515000Y-9995000D02*
X9535000Y-10015000D01*
X9535000Y-9995000D02*
X9515000Y-10015000D01*
X9520000Y-9090000D02*
X9540000Y-9110000D01*
X9540000Y-9090000D02*
X9520000Y-9110000D01*
X9535000Y-10140000D02*
X9555000Y-10160000D01*
X9555000Y-10140000D02*
X9535000Y-10160000D01*
X9550000Y-9735000D02*
X9570000Y-9755000D01*
X9570000Y-9735000D02*
X9550000Y-9755000D01*
X9560000Y-9490000D02*
X9580000Y-9510000D01*
X9580000Y-9490000D02*
X9560000Y-9510000D01*
X9560000Y-11050000D02*
X9580000Y-11070000D01*
X9580000Y-11050000D02*
X9560000Y-11070000D01*
X9569055Y-11205775D02*
X9589055Y-11225775D01*
X9589055Y-11205775D02*
X9569055Y-11225775D01*
X9581964Y-11126874D02*
X9601964Y-11146874D01*
X9601964Y-11126874D02*
X9581964Y-11146874D01*
X9585000Y-10040000D02*
X9605000Y-10060000D01*
X9605000Y-10040000D02*
X9585000Y-10060000D01*
X9590000Y-8330000D02*
X9610000Y-8350000D01*
X9610000Y-8330000D02*
X9590000Y-8350000D01*
X9590000Y-10815000D02*
X9610000Y-10835000D01*
X9610000Y-10815000D02*
X9590000Y-10835000D01*
X9590000Y-12365000D02*
X9610000Y-12385000D01*
X9610000Y-12365000D02*
X9590000Y-12385000D01*
X9605000Y-9795000D02*
X9625000Y-9815000D01*
X9625000Y-9795000D02*
X9605000Y-9815000D01*
X9610000Y-10185000D02*
X9630000Y-10205000D01*
X9630000Y-10185000D02*
X9610000Y-10205000D01*
X9615000Y-11630050D02*
X9635000Y-11650050D01*
X9635000Y-11630050D02*
X9615000Y-11650050D01*
X9665000Y-8990000D02*
X9685000Y-9010000D01*
X9685000Y-8990000D02*
X9665000Y-9010000D01*
X9665000Y-12040000D02*
X9685000Y-12060000D01*
X9685000Y-12040000D02*
X9665000Y-12060000D01*
X9675000Y-10250000D02*
X9695000Y-10270000D01*
X9695000Y-10250000D02*
X9675000Y-10270000D01*
X9680000Y-9175050D02*
X9700000Y-9195050D01*
X9700000Y-9175050D02*
X9680000Y-9195050D01*
X9680000Y-10340000D02*
X9700000Y-10360000D01*
X9700000Y-10340000D02*
X9680000Y-10360000D01*
X9690000Y-10760000D02*
X9710000Y-10780000D01*
X9710000Y-10760000D02*
X9690000Y-10780000D01*
X9710000Y-8460000D02*
X9730000Y-8480000D01*
X9730000Y-8460000D02*
X9710000Y-8480000D01*
X9710000Y-9330000D02*
X9730000Y-9350000D01*
X9730000Y-9330000D02*
X9710000Y-9350000D01*
X9730000Y-9430000D02*
X9750000Y-9450000D01*
X9750000Y-9430000D02*
X9730000Y-9450000D01*
X9750000Y-9240000D02*
X9770000Y-9260000D01*
X9770000Y-9240000D02*
X9750000Y-9260000D01*
X9760000Y-10515050D02*
X9780000Y-10535050D01*
X9780000Y-10515050D02*
X9760000Y-10535050D01*
X9760000Y-10695000D02*
X9780000Y-10715000D01*
X9780000Y-10695000D02*
X9760000Y-10715000D01*
X9810000Y-10450050D02*
X9830000Y-10470050D01*
X9830000Y-10450050D02*
X9810000Y-10470050D01*
X9830000Y-10570000D02*
X9850000Y-10590000D01*
X9850000Y-10570000D02*
X9830000Y-10590000D01*
X9850000Y-9840000D02*
X9870000Y-9860000D01*
X9870000Y-9840000D02*
X9850000Y-9860000D01*
X9910000Y-10630000D02*
X9930000Y-10650000D01*
X9930000Y-10630000D02*
X9910000Y-10650000D01*
X9915000Y-11490000D02*
X9935000Y-11510000D01*
X9935000Y-11490000D02*
X9915000Y-11510000D01*
X9920000Y-11170000D02*
X9940000Y-11190000D01*
X9940000Y-11170000D02*
X9920000Y-11190000D01*
X9972609Y-12182391D02*
X9992609Y-12202391D01*
X9992609Y-12182391D02*
X9972609Y-12202391D01*
X9980000Y-8520000D02*
X10000000Y-8540000D01*
X10000000Y-8520000D02*
X9980000Y-8540000D01*
X10012391Y-9972391D02*
X10032391Y-9992391D01*
X10032391Y-9972391D02*
X10012391Y-9992391D01*
X10055000Y-10370000D02*
X10075000Y-10390000D01*
X10075000Y-10370000D02*
X10055000Y-10390000D01*
X10085000Y-8300000D02*
X10105000Y-8320000D01*
X10105000Y-8300000D02*
X10085000Y-8320000D01*
X10100000Y-9100000D02*
X10120000Y-9120000D01*
X10120000Y-9100000D02*
X10100000Y-9120000D01*
X10140000Y-12315000D02*
X10160000Y-12335000D01*
X10160000Y-12315000D02*
X10140000Y-12335000D01*
X10150000Y-9550000D02*
X10170000Y-9570000D01*
X10170000Y-9550000D02*
X10150000Y-9570000D01*
X10165000Y-12140000D02*
X10185000Y-12160000D01*
X10185000Y-12140000D02*
X10165000Y-12160000D01*
X10215000Y-11240000D02*
X10235000Y-11260000D01*
X10235000Y-11240000D02*
X10215000Y-11260000D01*
X10240000Y-8820000D02*
X10260000Y-8840000D01*
X10260000Y-8820000D02*
X10240000Y-8840000D01*
X10240000Y-9110000D02*
X10260000Y-9130000D01*
X10260000Y-9110000D02*
X10240000Y-9130000D01*
X10265000Y-11590000D02*
X10285000Y-11610000D01*
X10285000Y-11590000D02*
X10265000Y-11610000D01*
X10290000Y-12015000D02*
X10310000Y-12035000D01*
X10310000Y-12015000D02*
X10290000Y-12035000D01*
X10315000Y-11240000D02*
X10335000Y-11260000D01*
X10335000Y-11240000D02*
X10315000Y-11260000D01*
X10340000Y-11590000D02*
X10360000Y-11610000D01*
X10360000Y-11590000D02*
X10340000Y-11610000D01*
X10480000Y-8640000D02*
X10500000Y-8660000D01*
X10500000Y-8640000D02*
X10480000Y-8660000D01*
X10590000Y-7100000D02*
X10610000Y-7120000D01*
X10610000Y-7100000D02*
X10590000Y-7120000D01*
X10690000Y-7520000D02*
X10710000Y-7540000D01*
X10710000Y-7520000D02*
X10690000Y-7540000D01*
X10831019Y-10670722D02*
X10851019Y-10690722D01*
X10851019Y-10670722D02*
X10831019Y-10690722D01*
X10859285Y-11420663D02*
X10879285Y-11440663D01*
X10879285Y-11420663D02*
X10859285Y-11440663D01*
X10940000Y-10410000D02*
X10960000Y-10430000D01*
X10960000Y-10410000D02*
X10940000Y-10430000D01*
X11040000Y-11210000D02*
X11060000Y-11230000D01*
X11060000Y-11210000D02*
X11040000Y-11230000D01*
X11200000Y-9900000D02*
X11220000Y-9920000D01*
X11220000Y-9900000D02*
X11200000Y-9920000D01*
X11220000Y-8665000D02*
X11240000Y-8685000D01*
X11240000Y-8665000D02*
X11220000Y-8685000D01*
X11238427Y-10071573D02*
X11258427Y-10091573D01*
X11258427Y-10071573D02*
X11238427Y-10091573D01*
X11250000Y-8440000D02*
X11270000Y-8460000D01*
X11270000Y-8440000D02*
X11250000Y-8460000D01*
X11330000Y-8960000D02*
X11350000Y-8980000D01*
X11350000Y-8960000D02*
X11330000Y-8980000D01*
X11390000Y-9090000D02*
X11410000Y-9110000D01*
X11410000Y-9090000D02*
X11390000Y-9110000D01*
X11970000Y-12500000D02*
X11990000Y-12520000D01*
X11990000Y-12500000D02*
X11970000Y-12520000D01*
X13050000Y-12400000D02*
X13070000Y-12420000D01*
X13070000Y-12400000D02*
X13050000Y-12420000D01*
X13130000Y-12740000D02*
X13150000Y-12760000D01*
X13150000Y-12740000D02*
X13130000Y-12760000D01*
X13240000Y-13080000D02*
X13260000Y-13100000D01*
X13260000Y-13080000D02*
X13240000Y-13100000D01*
X13534090Y-11553000D02*
X13554090Y-11573000D01*
X13554090Y-11553000D02*
X13534090Y-11573000D01*
X13534090Y-11628000D02*
X13554090Y-11648000D01*
X13554090Y-11628000D02*
X13534090Y-11648000D01*
X13534090Y-11703000D02*
X13554090Y-11723000D01*
X13554090Y-11703000D02*
X13534090Y-11723000D01*
X13534090Y-11778000D02*
X13554090Y-11798000D01*
X13554090Y-11778000D02*
X13534090Y-11798000D01*
X13534090Y-11853000D02*
X13554090Y-11873000D01*
X13554090Y-11853000D02*
X13534090Y-11873000D01*
X13540000Y-13400000D02*
X13560000Y-13420000D01*
X13560000Y-13400000D02*
X13540000Y-13420000D01*
X13545000Y-7807000D02*
X13565000Y-7827000D01*
X13565000Y-7807000D02*
X13545000Y-7827000D01*
X13545000Y-7882000D02*
X13565000Y-7902000D01*
X13565000Y-7882000D02*
X13545000Y-7902000D01*
X13545000Y-7957000D02*
X13565000Y-7977000D01*
X13565000Y-7957000D02*
X13545000Y-7977000D01*
X13545000Y-8032000D02*
X13565000Y-8052000D01*
X13565000Y-8032000D02*
X13545000Y-8052000D01*
X13545000Y-8107000D02*
X13565000Y-8127000D01*
X13565000Y-8107000D02*
X13545000Y-8127000D01*
X13545000Y-10665000D02*
X13565000Y-10685000D01*
X13565000Y-10665000D02*
X13545000Y-10685000D01*
X13545000Y-10740000D02*
X13565000Y-10760000D01*
X13565000Y-10740000D02*
X13545000Y-10760000D01*
X13545000Y-10815000D02*
X13565000Y-10835000D01*
X13565000Y-10815000D02*
X13545000Y-10835000D01*
X13545000Y-10890000D02*
X13565000Y-10910000D01*
X13565000Y-10890000D02*
X13545000Y-10910000D01*
X13545000Y-10965000D02*
X13565000Y-10985000D01*
X13565000Y-10965000D02*
X13545000Y-10985000D01*
X13550000Y-13290000D02*
X13570000Y-13310000D01*
X13570000Y-13290000D02*
X13550000Y-13310000D01*
X13559090Y-8650000D02*
X13579090Y-8670000D01*
X13579090Y-8650000D02*
X13559090Y-8670000D01*
X13559090Y-8725000D02*
X13579090Y-8745000D01*
X13579090Y-8725000D02*
X13559090Y-8745000D01*
X13559090Y-8800000D02*
X13579090Y-8820000D01*
X13579090Y-8800000D02*
X13559090Y-8820000D01*
X13559090Y-8875000D02*
X13579090Y-8895000D01*
X13579090Y-8875000D02*
X13559090Y-8895000D01*
X13559090Y-8950000D02*
X13579090Y-8970000D01*
X13579090Y-8950000D02*
X13559090Y-8970000D01*
X13570000Y-6972000D02*
X13590000Y-6992000D01*
X13590000Y-6972000D02*
X13570000Y-6992000D01*
X13570000Y-7047000D02*
X13590000Y-7067000D01*
X13590000Y-7047000D02*
X13570000Y-7067000D01*
X13570000Y-7122000D02*
X13590000Y-7142000D01*
X13590000Y-7122000D02*
X13570000Y-7142000D01*
X13570000Y-7197000D02*
X13590000Y-7217000D01*
X13590000Y-7197000D02*
X13570000Y-7217000D01*
X13570000Y-7272000D02*
X13590000Y-7292000D01*
X13590000Y-7272000D02*
X13570000Y-7292000D01*
X13570000Y-9735000D02*
X13590000Y-9755000D01*
X13590000Y-9735000D02*
X13570000Y-9755000D01*
X13570000Y-9810000D02*
X13590000Y-9830000D01*
X13590000Y-9810000D02*
X13570000Y-9830000D01*
X13570000Y-9885000D02*
X13590000Y-9905000D01*
X13590000Y-9885000D02*
X13570000Y-9905000D01*
X13570000Y-9960000D02*
X13590000Y-9980000D01*
X13590000Y-9960000D02*
X13570000Y-9980000D01*
X13570000Y-10035000D02*
X13590000Y-10055000D01*
X13590000Y-10035000D02*
X13570000Y-10055000D01*
X13609090Y-11553000D02*
X13629090Y-11573000D01*
X13629090Y-11553000D02*
X13609090Y-11573000D01*
X13609090Y-11628000D02*
X13629090Y-11648000D01*
X13629090Y-11628000D02*
X13609090Y-11648000D01*
X13609090Y-11703000D02*
X13629090Y-11723000D01*
X13629090Y-11703000D02*
X13609090Y-11723000D01*
X13609090Y-11778000D02*
X13629090Y-11798000D01*
X13629090Y-11778000D02*
X13609090Y-11798000D01*
X13609090Y-11853000D02*
X13629090Y-11873000D01*
X13629090Y-11853000D02*
X13609090Y-11873000D01*
X13620000Y-7807000D02*
X13640000Y-7827000D01*
X13640000Y-7807000D02*
X13620000Y-7827000D01*
X13620000Y-7882000D02*
X13640000Y-7902000D01*
X13640000Y-7882000D02*
X13620000Y-7902000D01*
X13620000Y-7957000D02*
X13640000Y-7977000D01*
X13640000Y-7957000D02*
X13620000Y-7977000D01*
X13620000Y-8032000D02*
X13640000Y-8052000D01*
X13640000Y-8032000D02*
X13620000Y-8052000D01*
X13620000Y-8107000D02*
X13640000Y-8127000D01*
X13640000Y-8107000D02*
X13620000Y-8127000D01*
X13620000Y-10665000D02*
X13640000Y-10685000D01*
X13640000Y-10665000D02*
X13620000Y-10685000D01*
X13620000Y-10740000D02*
X13640000Y-10760000D01*
X13640000Y-10740000D02*
X13620000Y-10760000D01*
X13620000Y-10815000D02*
X13640000Y-10835000D01*
X13640000Y-10815000D02*
X13620000Y-10835000D01*
X13620000Y-10890000D02*
X13640000Y-10910000D01*
X13640000Y-10890000D02*
X13620000Y-10910000D01*
X13620000Y-10965000D02*
X13640000Y-10985000D01*
X13640000Y-10965000D02*
X13620000Y-10985000D01*
X13634090Y-8650000D02*
X13654090Y-8670000D01*
X13654090Y-8650000D02*
X13634090Y-8670000D01*
X13634090Y-8725000D02*
X13654090Y-8745000D01*
X13654090Y-8725000D02*
X13634090Y-8745000D01*
X13634090Y-8800000D02*
X13654090Y-8820000D01*
X13654090Y-8800000D02*
X13634090Y-8820000D01*
X13634090Y-8875000D02*
X13654090Y-8895000D01*
X13654090Y-8875000D02*
X13634090Y-8895000D01*
X13634090Y-8950000D02*
X13654090Y-8970000D01*
X13654090Y-8950000D02*
X13634090Y-8970000D01*
X13645000Y-6972000D02*
X13665000Y-6992000D01*
X13665000Y-6972000D02*
X13645000Y-6992000D01*
X13645000Y-7047000D02*
X13665000Y-7067000D01*
X13665000Y-7047000D02*
X13645000Y-7067000D01*
X13645000Y-7122000D02*
X13665000Y-7142000D01*
X13665000Y-7122000D02*
X13645000Y-7142000D01*
X13645000Y-7197000D02*
X13665000Y-7217000D01*
X13665000Y-7197000D02*
X13645000Y-7217000D01*
X13645000Y-7272000D02*
X13665000Y-7292000D01*
X13665000Y-7272000D02*
X13645000Y-7292000D01*
X13645000Y-9735000D02*
X13665000Y-9755000D01*
X13665000Y-9735000D02*
X13645000Y-9755000D01*
X13645000Y-9810000D02*
X13665000Y-9830000D01*
X13665000Y-9810000D02*
X13645000Y-9830000D01*
X13645000Y-9885000D02*
X13665000Y-9905000D01*
X13665000Y-9885000D02*
X13645000Y-9905000D01*
X13645000Y-9960000D02*
X13665000Y-9980000D01*
X13665000Y-9960000D02*
X13645000Y-9980000D01*
X13645000Y-10035000D02*
X13665000Y-10055000D01*
X13665000Y-10035000D02*
X13645000Y-10055000D01*
X13684090Y-11553000D02*
X13704090Y-11573000D01*
X13704090Y-11553000D02*
X13684090Y-11573000D01*
X13684090Y-11628000D02*
X13704090Y-11648000D01*
X13704090Y-11628000D02*
X13684090Y-11648000D01*
X13684090Y-11703000D02*
X13704090Y-11723000D01*
X13704090Y-11703000D02*
X13684090Y-11723000D01*
X13684090Y-11778000D02*
X13704090Y-11798000D01*
X13704090Y-11778000D02*
X13684090Y-11798000D01*
X13684090Y-11853000D02*
X13704090Y-11873000D01*
X13704090Y-11853000D02*
X13684090Y-11873000D01*
X13695000Y-7807000D02*
X13715000Y-7827000D01*
X13715000Y-7807000D02*
X13695000Y-7827000D01*
X13695000Y-7882000D02*
X13715000Y-7902000D01*
X13715000Y-7882000D02*
X13695000Y-7902000D01*
X13695000Y-8107000D02*
X13715000Y-8127000D01*
X13715000Y-8107000D02*
X13695000Y-8127000D01*
X13695000Y-10665000D02*
X13715000Y-10685000D01*
X13715000Y-10665000D02*
X13695000Y-10685000D01*
X13695000Y-10740000D02*
X13715000Y-10760000D01*
X13715000Y-10740000D02*
X13695000Y-10760000D01*
X13695000Y-10965000D02*
X13715000Y-10985000D01*
X13715000Y-10965000D02*
X13695000Y-10985000D01*
X13696230Y-7957000D02*
X13716230Y-7977000D01*
X13716230Y-7957000D02*
X13696230Y-7977000D01*
X13696230Y-8032000D02*
X13716230Y-8052000D01*
X13716230Y-8032000D02*
X13696230Y-8052000D01*
X13696230Y-10815000D02*
X13716230Y-10835000D01*
X13716230Y-10815000D02*
X13696230Y-10835000D01*
X13696230Y-10890000D02*
X13716230Y-10910000D01*
X13716230Y-10890000D02*
X13696230Y-10910000D01*
X13709090Y-8650000D02*
X13729090Y-8670000D01*
X13729090Y-8650000D02*
X13709090Y-8670000D01*
X13709090Y-8725000D02*
X13729090Y-8745000D01*
X13729090Y-8725000D02*
X13709090Y-8745000D01*
X13709090Y-8800000D02*
X13729090Y-8820000D01*
X13729090Y-8800000D02*
X13709090Y-8820000D01*
X13709090Y-8875000D02*
X13729090Y-8895000D01*
X13729090Y-8875000D02*
X13709090Y-8895000D01*
X13709090Y-8950000D02*
X13729090Y-8970000D01*
X13729090Y-8950000D02*
X13709090Y-8970000D01*
X13710000Y-13410000D02*
X13730000Y-13430000D01*
X13730000Y-13410000D02*
X13710000Y-13430000D01*
X13718230Y-7047000D02*
X13738230Y-7067000D01*
X13738230Y-7047000D02*
X13718230Y-7067000D01*
X13718230Y-7122000D02*
X13738230Y-7142000D01*
X13738230Y-7122000D02*
X13718230Y-7142000D01*
X13718230Y-9810000D02*
X13738230Y-9830000D01*
X13738230Y-9810000D02*
X13718230Y-9830000D01*
X13718230Y-9885000D02*
X13738230Y-9905000D01*
X13738230Y-9885000D02*
X13718230Y-9905000D01*
X13720000Y-6972000D02*
X13740000Y-6992000D01*
X13740000Y-6972000D02*
X13720000Y-6992000D01*
X13720000Y-7197000D02*
X13740000Y-7217000D01*
X13740000Y-7197000D02*
X13720000Y-7217000D01*
X13720000Y-7272000D02*
X13740000Y-7292000D01*
X13740000Y-7272000D02*
X13720000Y-7292000D01*
X13720000Y-9735000D02*
X13740000Y-9755000D01*
X13740000Y-9735000D02*
X13720000Y-9755000D01*
X13720000Y-9960000D02*
X13740000Y-9980000D01*
X13740000Y-9960000D02*
X13720000Y-9980000D01*
X13720000Y-10035000D02*
X13740000Y-10055000D01*
X13740000Y-10035000D02*
X13720000Y-10055000D01*
X13750000Y-12570000D02*
X13770000Y-12590000D01*
X13770000Y-12570000D02*
X13750000Y-12590000D01*
X13759090Y-11553000D02*
X13779090Y-11573000D01*
X13779090Y-11553000D02*
X13759090Y-11573000D01*
X13759090Y-11628000D02*
X13779090Y-11648000D01*
X13779090Y-11628000D02*
X13759090Y-11648000D01*
X13759090Y-11703000D02*
X13779090Y-11723000D01*
X13779090Y-11703000D02*
X13759090Y-11723000D01*
X13759090Y-11778000D02*
X13779090Y-11798000D01*
X13779090Y-11778000D02*
X13759090Y-11798000D01*
X13759090Y-11853000D02*
X13779090Y-11873000D01*
X13779090Y-11853000D02*
X13759090Y-11873000D01*
X13770000Y-7807000D02*
X13790000Y-7827000D01*
X13790000Y-7807000D02*
X13770000Y-7827000D01*
X13770000Y-7882000D02*
X13790000Y-7902000D01*
X13790000Y-7882000D02*
X13770000Y-7902000D01*
X13770000Y-7957000D02*
X13790000Y-7977000D01*
X13790000Y-7957000D02*
X13770000Y-7977000D01*
X13770000Y-8032000D02*
X13790000Y-8052000D01*
X13790000Y-8032000D02*
X13770000Y-8052000D01*
X13770000Y-8107000D02*
X13790000Y-8127000D01*
X13790000Y-8107000D02*
X13770000Y-8127000D01*
X13770000Y-10665000D02*
X13790000Y-10685000D01*
X13790000Y-10665000D02*
X13770000Y-10685000D01*
X13770000Y-10740000D02*
X13790000Y-10760000D01*
X13790000Y-10740000D02*
X13770000Y-10760000D01*
X13770000Y-10815000D02*
X13790000Y-10835000D01*
X13790000Y-10815000D02*
X13770000Y-10835000D01*
X13770000Y-10890000D02*
X13790000Y-10910000D01*
X13790000Y-10890000D02*
X13770000Y-10910000D01*
X13770000Y-10965000D02*
X13790000Y-10985000D01*
X13790000Y-10965000D02*
X13770000Y-10985000D01*
X13784090Y-8650000D02*
X13804090Y-8670000D01*
X13804090Y-8650000D02*
X13784090Y-8670000D01*
X13784090Y-8725000D02*
X13804090Y-8745000D01*
X13804090Y-8725000D02*
X13784090Y-8745000D01*
X13784090Y-8800000D02*
X13804090Y-8820000D01*
X13804090Y-8800000D02*
X13784090Y-8820000D01*
X13784090Y-8875000D02*
X13804090Y-8895000D01*
X13804090Y-8875000D02*
X13784090Y-8895000D01*
X13784090Y-8950000D02*
X13804090Y-8970000D01*
X13804090Y-8950000D02*
X13784090Y-8970000D01*
X13795000Y-6972000D02*
X13815000Y-6992000D01*
X13815000Y-6972000D02*
X13795000Y-6992000D01*
X13795000Y-7047000D02*
X13815000Y-7067000D01*
X13815000Y-7047000D02*
X13795000Y-7067000D01*
X13795000Y-7122000D02*
X13815000Y-7142000D01*
X13815000Y-7122000D02*
X13795000Y-7142000D01*
X13795000Y-7197000D02*
X13815000Y-7217000D01*
X13815000Y-7197000D02*
X13795000Y-7217000D01*
X13795000Y-7272000D02*
X13815000Y-7292000D01*
X13815000Y-7272000D02*
X13795000Y-7292000D01*
X13795000Y-9735000D02*
X13815000Y-9755000D01*
X13815000Y-9735000D02*
X13795000Y-9755000D01*
X13795000Y-9810000D02*
X13815000Y-9830000D01*
X13815000Y-9810000D02*
X13795000Y-9830000D01*
X13795000Y-9885000D02*
X13815000Y-9905000D01*
X13815000Y-9885000D02*
X13795000Y-9905000D01*
X13795000Y-9960000D02*
X13815000Y-9980000D01*
X13815000Y-9960000D02*
X13795000Y-9980000D01*
X13795000Y-10035000D02*
X13815000Y-10055000D01*
X13815000Y-10035000D02*
X13795000Y-10055000D01*
X13820000Y-13460000D02*
X13840000Y-13480000D01*
X13840000Y-13460000D02*
X13820000Y-13480000D01*
X13990000Y-11990000D02*
X14010000Y-12010000D01*
X14010000Y-11990000D02*
X13990000Y-12010000D01*
X13990000Y-12065000D02*
X14010000Y-12085000D01*
X14010000Y-12065000D02*
X13990000Y-12085000D01*
X13990000Y-12140000D02*
X14010000Y-12160000D01*
X14010000Y-12140000D02*
X13990000Y-12160000D01*
X13995000Y-7465000D02*
X14015000Y-7485000D01*
X14015000Y-7465000D02*
X13995000Y-7485000D01*
X13995000Y-7540000D02*
X14015000Y-7560000D01*
X14015000Y-7540000D02*
X13995000Y-7560000D01*
X13995000Y-7615000D02*
X14015000Y-7635000D01*
X14015000Y-7615000D02*
X13995000Y-7635000D01*
X14040000Y-8290000D02*
X14060000Y-8310000D01*
X14060000Y-8290000D02*
X14040000Y-8310000D01*
X14040000Y-8365000D02*
X14060000Y-8385000D01*
X14060000Y-8365000D02*
X14040000Y-8385000D01*
X14040000Y-8440000D02*
X14060000Y-8460000D01*
X14060000Y-8440000D02*
X14040000Y-8460000D01*
X14040000Y-9140000D02*
X14060000Y-9160000D01*
X14060000Y-9140000D02*
X14040000Y-9160000D01*
X14040000Y-9215000D02*
X14060000Y-9235000D01*
X14060000Y-9215000D02*
X14040000Y-9235000D01*
X14040000Y-9290000D02*
X14060000Y-9310000D01*
X14060000Y-9290000D02*
X14040000Y-9310000D01*
X14040000Y-10265000D02*
X14060000Y-10285000D01*
X14060000Y-10265000D02*
X14040000Y-10285000D01*
X14040000Y-10340000D02*
X14060000Y-10360000D01*
X14060000Y-10340000D02*
X14040000Y-10360000D01*
X14040000Y-10415000D02*
X14060000Y-10435000D01*
X14060000Y-10415000D02*
X14040000Y-10435000D01*
X14040000Y-11115000D02*
X14060000Y-11135000D01*
X14060000Y-11115000D02*
X14040000Y-11135000D01*
X14040000Y-11190000D02*
X14060000Y-11210000D01*
X14060000Y-11190000D02*
X14040000Y-11210000D01*
X14040000Y-11265000D02*
X14060000Y-11285000D01*
X14060000Y-11265000D02*
X14040000Y-11285000D01*
X14065000Y-11990000D02*
X14085000Y-12010000D01*
X14085000Y-11990000D02*
X14065000Y-12010000D01*
X14065000Y-12065000D02*
X14085000Y-12085000D01*
X14085000Y-12065000D02*
X14065000Y-12085000D01*
X14065000Y-12140000D02*
X14085000Y-12160000D01*
X14085000Y-12140000D02*
X14065000Y-12160000D01*
X14070000Y-7465000D02*
X14090000Y-7485000D01*
X14090000Y-7465000D02*
X14070000Y-7485000D01*
X14070000Y-7540000D02*
X14090000Y-7560000D01*
X14090000Y-7540000D02*
X14070000Y-7560000D01*
X14070000Y-7615000D02*
X14090000Y-7635000D01*
X14090000Y-7615000D02*
X14070000Y-7635000D01*
X14073090Y-7038140D02*
X14093090Y-7058140D01*
X14093090Y-7038140D02*
X14073090Y-7058140D01*
X14073090Y-7113140D02*
X14093090Y-7133140D01*
X14093090Y-7113140D02*
X14073090Y-7133140D01*
X14073090Y-7188140D02*
X14093090Y-7208140D01*
X14093090Y-7188140D02*
X14073090Y-7208140D01*
X14073090Y-7263140D02*
X14093090Y-7283140D01*
X14093090Y-7263140D02*
X14073090Y-7283140D01*
X14100000Y-9710000D02*
X14120000Y-9730000D01*
X14120000Y-9710000D02*
X14100000Y-9730000D01*
X14113090Y-11556140D02*
X14133090Y-11576140D01*
X14133090Y-11556140D02*
X14113090Y-11576140D01*
X14113090Y-11631140D02*
X14133090Y-11651140D01*
X14133090Y-11631140D02*
X14113090Y-11651140D01*
X14113090Y-11706140D02*
X14133090Y-11726140D01*
X14133090Y-11706140D02*
X14113090Y-11726140D01*
X14113090Y-11781140D02*
X14133090Y-11801140D01*
X14133090Y-11781140D02*
X14113090Y-11801140D01*
X14113090Y-11856140D02*
X14133090Y-11876140D01*
X14133090Y-11856140D02*
X14113090Y-11876140D01*
X14114010Y-8764010D02*
X14134010Y-8784010D01*
X14134010Y-8764010D02*
X14114010Y-8784010D01*
X14114010Y-8839010D02*
X14134010Y-8859010D01*
X14134010Y-8839010D02*
X14114010Y-8859010D01*
X14114010Y-8914010D02*
X14134010Y-8934010D01*
X14134010Y-8914010D02*
X14114010Y-8934010D01*
X14114010Y-8989010D02*
X14134010Y-9009010D01*
X14134010Y-8989010D02*
X14114010Y-9009010D01*
X14115000Y-8290000D02*
X14135000Y-8310000D01*
X14135000Y-8290000D02*
X14115000Y-8310000D01*
X14115000Y-8365000D02*
X14135000Y-8385000D01*
X14135000Y-8365000D02*
X14115000Y-8385000D01*
X14115000Y-8440000D02*
X14135000Y-8460000D01*
X14135000Y-8440000D02*
X14115000Y-8460000D01*
X14115000Y-9140000D02*
X14135000Y-9160000D01*
X14135000Y-9140000D02*
X14115000Y-9160000D01*
X14115000Y-9215000D02*
X14135000Y-9235000D01*
X14135000Y-9215000D02*
X14115000Y-9235000D01*
X14115000Y-9290000D02*
X14135000Y-9310000D01*
X14135000Y-9290000D02*
X14115000Y-9310000D01*
X14115000Y-10265000D02*
X14135000Y-10285000D01*
X14135000Y-10265000D02*
X14115000Y-10285000D01*
X14115000Y-10340000D02*
X14135000Y-10360000D01*
X14135000Y-10340000D02*
X14115000Y-10360000D01*
X14115000Y-10415000D02*
X14135000Y-10435000D01*
X14135000Y-10415000D02*
X14115000Y-10435000D01*
X14115000Y-11115000D02*
X14135000Y-11135000D01*
X14135000Y-11115000D02*
X14115000Y-11135000D01*
X14115000Y-11190000D02*
X14135000Y-11210000D01*
X14135000Y-11190000D02*
X14115000Y-11210000D01*
X14115000Y-11265000D02*
X14135000Y-11285000D01*
X14135000Y-11265000D02*
X14115000Y-11285000D01*
X14118090Y-7903140D02*
X14138090Y-7923140D01*
X14138090Y-7903140D02*
X14118090Y-7923140D01*
X14118090Y-7978140D02*
X14138090Y-7998140D01*
X14138090Y-7978140D02*
X14118090Y-7998140D01*
X14118090Y-8053140D02*
X14138090Y-8073140D01*
X14138090Y-8053140D02*
X14118090Y-8073140D01*
X14118090Y-8128140D02*
X14138090Y-8148140D01*
X14138090Y-8128140D02*
X14118090Y-8148140D01*
X14118090Y-9831140D02*
X14138090Y-9851140D01*
X14138090Y-9831140D02*
X14118090Y-9851140D01*
X14118090Y-9906140D02*
X14138090Y-9926140D01*
X14138090Y-9906140D02*
X14118090Y-9926140D01*
X14118090Y-9981140D02*
X14138090Y-10001140D01*
X14138090Y-9981140D02*
X14118090Y-10001140D01*
X14118090Y-10056140D02*
X14138090Y-10076140D01*
X14138090Y-10056140D02*
X14118090Y-10076140D01*
X14118090Y-10666140D02*
X14138090Y-10686140D01*
X14138090Y-10666140D02*
X14118090Y-10686140D01*
X14118090Y-10741140D02*
X14138090Y-10761140D01*
X14138090Y-10741140D02*
X14118090Y-10761140D01*
X14118090Y-10816140D02*
X14138090Y-10836140D01*
X14138090Y-10816140D02*
X14118090Y-10836140D01*
X14118090Y-10891140D02*
X14138090Y-10911140D01*
X14138090Y-10891140D02*
X14118090Y-10911140D01*
X14118090Y-10966140D02*
X14138090Y-10986140D01*
X14138090Y-10966140D02*
X14118090Y-10986140D01*
X14140000Y-11990000D02*
X14160000Y-12010000D01*
X14160000Y-11990000D02*
X14140000Y-12010000D01*
X14140000Y-12065000D02*
X14160000Y-12085000D01*
X14160000Y-12065000D02*
X14140000Y-12085000D01*
X14140000Y-12140000D02*
X14160000Y-12160000D01*
X14160000Y-12140000D02*
X14140000Y-12160000D01*
X14145000Y-7465000D02*
X14165000Y-7485000D01*
X14165000Y-7465000D02*
X14145000Y-7485000D01*
X14145000Y-7540000D02*
X14165000Y-7560000D01*
X14165000Y-7540000D02*
X14145000Y-7560000D01*
X14145000Y-7615000D02*
X14165000Y-7635000D01*
X14165000Y-7615000D02*
X14145000Y-7635000D01*
X14148090Y-7013140D02*
X14168090Y-7033140D01*
X14168090Y-7013140D02*
X14148090Y-7033140D01*
X14148090Y-7088140D02*
X14168090Y-7108140D01*
X14168090Y-7088140D02*
X14148090Y-7108140D01*
X14148090Y-7163140D02*
X14168090Y-7183140D01*
X14168090Y-7163140D02*
X14148090Y-7183140D01*
X14148090Y-7238140D02*
X14168090Y-7258140D01*
X14168090Y-7238140D02*
X14148090Y-7258140D01*
X14148090Y-7313140D02*
X14168090Y-7333140D01*
X14168090Y-7313140D02*
X14148090Y-7333140D01*
X14188090Y-11556140D02*
X14208090Y-11576140D01*
X14208090Y-11556140D02*
X14188090Y-11576140D01*
X14188090Y-11631140D02*
X14208090Y-11651140D01*
X14208090Y-11631140D02*
X14188090Y-11651140D01*
X14188090Y-11706140D02*
X14208090Y-11726140D01*
X14208090Y-11706140D02*
X14188090Y-11726140D01*
X14188090Y-11781140D02*
X14208090Y-11801140D01*
X14208090Y-11781140D02*
X14188090Y-11801140D01*
X14188090Y-11856140D02*
X14208090Y-11876140D01*
X14208090Y-11856140D02*
X14188090Y-11876140D01*
X14189010Y-8689010D02*
X14209010Y-8709010D01*
X14209010Y-8689010D02*
X14189010Y-8709010D01*
X14189010Y-8764010D02*
X14209010Y-8784010D01*
X14209010Y-8764010D02*
X14189010Y-8784010D01*
X14189010Y-8839010D02*
X14209010Y-8859010D01*
X14209010Y-8839010D02*
X14189010Y-8859010D01*
X14189010Y-8914010D02*
X14209010Y-8934010D01*
X14209010Y-8914010D02*
X14189010Y-8934010D01*
X14189010Y-8989010D02*
X14209010Y-9009010D01*
X14209010Y-8989010D02*
X14189010Y-9009010D01*
X14190000Y-8290000D02*
X14210000Y-8310000D01*
X14210000Y-8290000D02*
X14190000Y-8310000D01*
X14190000Y-8365000D02*
X14210000Y-8385000D01*
X14210000Y-8365000D02*
X14190000Y-8385000D01*
X14190000Y-8440000D02*
X14210000Y-8460000D01*
X14210000Y-8440000D02*
X14190000Y-8460000D01*
X14190000Y-9140000D02*
X14210000Y-9160000D01*
X14210000Y-9140000D02*
X14190000Y-9160000D01*
X14190000Y-9215000D02*
X14210000Y-9235000D01*
X14210000Y-9215000D02*
X14190000Y-9235000D01*
X14190000Y-9290000D02*
X14210000Y-9310000D01*
X14210000Y-9290000D02*
X14190000Y-9310000D01*
X14190000Y-10265000D02*
X14210000Y-10285000D01*
X14210000Y-10265000D02*
X14190000Y-10285000D01*
X14190000Y-10340000D02*
X14210000Y-10360000D01*
X14210000Y-10340000D02*
X14190000Y-10360000D01*
X14190000Y-10415000D02*
X14210000Y-10435000D01*
X14210000Y-10415000D02*
X14190000Y-10435000D01*
X14190000Y-11115000D02*
X14210000Y-11135000D01*
X14210000Y-11115000D02*
X14190000Y-11135000D01*
X14190000Y-11190000D02*
X14210000Y-11210000D01*
X14210000Y-11190000D02*
X14190000Y-11210000D01*
X14190000Y-11265000D02*
X14210000Y-11285000D01*
X14210000Y-11265000D02*
X14190000Y-11285000D01*
X14193090Y-7828140D02*
X14213090Y-7848140D01*
X14213090Y-7828140D02*
X14193090Y-7848140D01*
X14193090Y-7903140D02*
X14213090Y-7923140D01*
X14213090Y-7903140D02*
X14193090Y-7923140D01*
X14193090Y-7978140D02*
X14213090Y-7998140D01*
X14213090Y-7978140D02*
X14193090Y-7998140D01*
X14193090Y-8053140D02*
X14213090Y-8073140D01*
X14213090Y-8053140D02*
X14193090Y-8073140D01*
X14193090Y-8128140D02*
X14213090Y-8148140D01*
X14213090Y-8128140D02*
X14193090Y-8148140D01*
X14193090Y-9756140D02*
X14213090Y-9776140D01*
X14213090Y-9756140D02*
X14193090Y-9776140D01*
X14193090Y-9831140D02*
X14213090Y-9851140D01*
X14213090Y-9831140D02*
X14193090Y-9851140D01*
X14193090Y-9906140D02*
X14213090Y-9926140D01*
X14213090Y-9906140D02*
X14193090Y-9926140D01*
X14193090Y-9981140D02*
X14213090Y-10001140D01*
X14213090Y-9981140D02*
X14193090Y-10001140D01*
X14193090Y-10056140D02*
X14213090Y-10076140D01*
X14213090Y-10056140D02*
X14193090Y-10076140D01*
X14193090Y-10666140D02*
X14213090Y-10686140D01*
X14213090Y-10666140D02*
X14193090Y-10686140D01*
X14193090Y-10741140D02*
X14213090Y-10761140D01*
X14213090Y-10741140D02*
X14193090Y-10761140D01*
X14193090Y-10816140D02*
X14213090Y-10836140D01*
X14213090Y-10816140D02*
X14193090Y-10836140D01*
X14193090Y-10891140D02*
X14213090Y-10911140D01*
X14213090Y-10891140D02*
X14193090Y-10911140D01*
X14193090Y-10966140D02*
X14213090Y-10986140D01*
X14213090Y-10966140D02*
X14193090Y-10986140D01*
X14215000Y-12065000D02*
X14235000Y-12085000D01*
X14235000Y-12065000D02*
X14215000Y-12085000D01*
X14215000Y-12140000D02*
X14235000Y-12160000D01*
X14235000Y-12140000D02*
X14215000Y-12160000D01*
X14220000Y-7540000D02*
X14240000Y-7560000D01*
X14240000Y-7540000D02*
X14220000Y-7560000D01*
X14220000Y-7615000D02*
X14240000Y-7635000D01*
X14240000Y-7615000D02*
X14220000Y-7635000D01*
X14250000Y-7001910D02*
X14270000Y-7021910D01*
X14270000Y-7001910D02*
X14250000Y-7021910D01*
X14250000Y-7076910D02*
X14270000Y-7096910D01*
X14270000Y-7076910D02*
X14250000Y-7096910D01*
X14250000Y-7151910D02*
X14270000Y-7171910D01*
X14270000Y-7151910D02*
X14250000Y-7171910D01*
X14250000Y-7226910D02*
X14270000Y-7246910D01*
X14270000Y-7226910D02*
X14250000Y-7246910D01*
X14265000Y-8365000D02*
X14285000Y-8385000D01*
X14285000Y-8365000D02*
X14265000Y-8385000D01*
X14265000Y-8440000D02*
X14285000Y-8460000D01*
X14285000Y-8440000D02*
X14265000Y-8460000D01*
X14265000Y-8765000D02*
X14285000Y-8785000D01*
X14285000Y-8765000D02*
X14265000Y-8785000D01*
X14265000Y-8840000D02*
X14285000Y-8860000D01*
X14285000Y-8840000D02*
X14265000Y-8860000D01*
X14265000Y-8915000D02*
X14285000Y-8935000D01*
X14285000Y-8915000D02*
X14265000Y-8935000D01*
X14265000Y-8990000D02*
X14285000Y-9010000D01*
X14285000Y-8990000D02*
X14265000Y-9010000D01*
X14265000Y-9215000D02*
X14285000Y-9235000D01*
X14285000Y-9215000D02*
X14265000Y-9235000D01*
X14265000Y-9290000D02*
X14285000Y-9310000D01*
X14285000Y-9290000D02*
X14265000Y-9310000D01*
X14265000Y-10340000D02*
X14285000Y-10360000D01*
X14285000Y-10340000D02*
X14265000Y-10360000D01*
X14265000Y-10415000D02*
X14285000Y-10435000D01*
X14285000Y-10415000D02*
X14265000Y-10435000D01*
X14265000Y-11190000D02*
X14285000Y-11210000D01*
X14285000Y-11190000D02*
X14265000Y-11210000D01*
X14265000Y-11265000D02*
X14285000Y-11285000D01*
X14285000Y-11265000D02*
X14265000Y-11285000D01*
X14288000Y-9796910D02*
X14308000Y-9816910D01*
X14308000Y-9796910D02*
X14288000Y-9816910D01*
X14288000Y-9871910D02*
X14308000Y-9891910D01*
X14308000Y-9871910D02*
X14288000Y-9891910D01*
X14288000Y-9946910D02*
X14308000Y-9966910D01*
X14308000Y-9946910D02*
X14288000Y-9966910D01*
X14288000Y-10021910D02*
X14308000Y-10041910D01*
X14308000Y-10021910D02*
X14288000Y-10041910D01*
X14290000Y-7835000D02*
X14310000Y-7855000D01*
X14310000Y-7835000D02*
X14290000Y-7855000D01*
X14290000Y-12065000D02*
X14310000Y-12085000D01*
X14310000Y-12065000D02*
X14290000Y-12085000D01*
X14290000Y-12140000D02*
X14310000Y-12160000D01*
X14310000Y-12140000D02*
X14290000Y-12160000D01*
X14293000Y-7918910D02*
X14313000Y-7938910D01*
X14313000Y-7918910D02*
X14293000Y-7938910D01*
X14293000Y-7993910D02*
X14313000Y-8013910D01*
X14313000Y-7993910D02*
X14293000Y-8013910D01*
X14293000Y-8068910D02*
X14313000Y-8088910D01*
X14313000Y-8068910D02*
X14293000Y-8088910D01*
X14293000Y-8143910D02*
X14313000Y-8163910D01*
X14313000Y-8143910D02*
X14293000Y-8163910D01*
X14293000Y-10631910D02*
X14313000Y-10651910D01*
X14313000Y-10631910D02*
X14293000Y-10651910D01*
X14293000Y-10706910D02*
X14313000Y-10726910D01*
X14313000Y-10706910D02*
X14293000Y-10726910D01*
X14293000Y-10781910D02*
X14313000Y-10801910D01*
X14313000Y-10781910D02*
X14293000Y-10801910D01*
X14293000Y-10856910D02*
X14313000Y-10876910D01*
X14313000Y-10856910D02*
X14293000Y-10876910D01*
X14295000Y-7540000D02*
X14315000Y-7560000D01*
X14315000Y-7540000D02*
X14295000Y-7560000D01*
X14295000Y-7615000D02*
X14315000Y-7635000D01*
X14315000Y-7615000D02*
X14295000Y-7635000D01*
X14325000Y-7001910D02*
X14345000Y-7021910D01*
X14345000Y-7001910D02*
X14325000Y-7021910D01*
X14325000Y-7076910D02*
X14345000Y-7096910D01*
X14345000Y-7076910D02*
X14325000Y-7096910D01*
X14325000Y-7151910D02*
X14345000Y-7171910D01*
X14345000Y-7151910D02*
X14325000Y-7171910D01*
X14325000Y-7226910D02*
X14345000Y-7246910D01*
X14345000Y-7226910D02*
X14325000Y-7246910D01*
X14328000Y-11521910D02*
X14348000Y-11541910D01*
X14348000Y-11521910D02*
X14328000Y-11541910D01*
X14328000Y-11596910D02*
X14348000Y-11616910D01*
X14348000Y-11596910D02*
X14328000Y-11616910D01*
X14328000Y-11671910D02*
X14348000Y-11691910D01*
X14348000Y-11671910D02*
X14328000Y-11691910D01*
X14328000Y-11746910D02*
X14348000Y-11766910D01*
X14348000Y-11746910D02*
X14328000Y-11766910D01*
X14340000Y-8365000D02*
X14360000Y-8385000D01*
X14360000Y-8365000D02*
X14340000Y-8385000D01*
X14340000Y-8440000D02*
X14360000Y-8460000D01*
X14360000Y-8440000D02*
X14340000Y-8460000D01*
X14340000Y-8765000D02*
X14360000Y-8785000D01*
X14360000Y-8765000D02*
X14340000Y-8785000D01*
X14340000Y-8840000D02*
X14360000Y-8860000D01*
X14360000Y-8840000D02*
X14340000Y-8860000D01*
X14340000Y-8915000D02*
X14360000Y-8935000D01*
X14360000Y-8915000D02*
X14340000Y-8935000D01*
X14340000Y-8990000D02*
X14360000Y-9010000D01*
X14360000Y-8990000D02*
X14340000Y-9010000D01*
X14340000Y-9215000D02*
X14360000Y-9235000D01*
X14360000Y-9215000D02*
X14340000Y-9235000D01*
X14340000Y-9290000D02*
X14360000Y-9310000D01*
X14360000Y-9290000D02*
X14340000Y-9310000D01*
X14340000Y-10340000D02*
X14360000Y-10360000D01*
X14360000Y-10340000D02*
X14340000Y-10360000D01*
X14340000Y-10415000D02*
X14360000Y-10435000D01*
X14360000Y-10415000D02*
X14340000Y-10435000D01*
X14340000Y-11190000D02*
X14360000Y-11210000D01*
X14360000Y-11190000D02*
X14340000Y-11210000D01*
X14340000Y-11265000D02*
X14360000Y-11285000D01*
X14360000Y-11265000D02*
X14340000Y-11285000D01*
X14363000Y-9796910D02*
X14383000Y-9816910D01*
X14383000Y-9796910D02*
X14363000Y-9816910D01*
X14363000Y-9871910D02*
X14383000Y-9891910D01*
X14383000Y-9871910D02*
X14363000Y-9891910D01*
X14363000Y-9946910D02*
X14383000Y-9966910D01*
X14383000Y-9946910D02*
X14363000Y-9966910D01*
X14363000Y-10021910D02*
X14383000Y-10041910D01*
X14383000Y-10021910D02*
X14363000Y-10041910D01*
X14365000Y-7835000D02*
X14385000Y-7855000D01*
X14385000Y-7835000D02*
X14365000Y-7855000D01*
X14365000Y-12065000D02*
X14385000Y-12085000D01*
X14385000Y-12065000D02*
X14365000Y-12085000D01*
X14365000Y-12140000D02*
X14385000Y-12160000D01*
X14385000Y-12140000D02*
X14365000Y-12160000D01*
X14368000Y-7918910D02*
X14388000Y-7938910D01*
X14388000Y-7918910D02*
X14368000Y-7938910D01*
X14368000Y-7993910D02*
X14388000Y-8013910D01*
X14388000Y-7993910D02*
X14368000Y-8013910D01*
X14368000Y-8068910D02*
X14388000Y-8088910D01*
X14388000Y-8068910D02*
X14368000Y-8088910D01*
X14368000Y-8143910D02*
X14388000Y-8163910D01*
X14388000Y-8143910D02*
X14368000Y-8163910D01*
X14368000Y-10631910D02*
X14388000Y-10651910D01*
X14388000Y-10631910D02*
X14368000Y-10651910D01*
X14368000Y-10706910D02*
X14388000Y-10726910D01*
X14388000Y-10706910D02*
X14368000Y-10726910D01*
X14368000Y-10781910D02*
X14388000Y-10801910D01*
X14388000Y-10781910D02*
X14368000Y-10801910D01*
X14368000Y-10856910D02*
X14388000Y-10876910D01*
X14388000Y-10856910D02*
X14368000Y-10876910D01*
X14370000Y-7540000D02*
X14390000Y-7560000D01*
X14390000Y-7540000D02*
X14370000Y-7560000D01*
X14370000Y-7615000D02*
X14390000Y-7635000D01*
X14390000Y-7615000D02*
X14370000Y-7635000D01*
X14400000Y-7001910D02*
X14420000Y-7021910D01*
X14420000Y-7001910D02*
X14400000Y-7021910D01*
X14400000Y-7076910D02*
X14420000Y-7096910D01*
X14420000Y-7076910D02*
X14400000Y-7096910D01*
X14400000Y-7151910D02*
X14420000Y-7171910D01*
X14420000Y-7151910D02*
X14400000Y-7171910D01*
X14400000Y-7226910D02*
X14420000Y-7246910D01*
X14420000Y-7226910D02*
X14400000Y-7246910D01*
X14403000Y-11521910D02*
X14423000Y-11541910D01*
X14423000Y-11521910D02*
X14403000Y-11541910D01*
X14403000Y-11596910D02*
X14423000Y-11616910D01*
X14423000Y-11596910D02*
X14403000Y-11616910D01*
X14403000Y-11671910D02*
X14423000Y-11691910D01*
X14423000Y-11671910D02*
X14403000Y-11691910D01*
X14403000Y-11746910D02*
X14423000Y-11766910D01*
X14423000Y-11746910D02*
X14403000Y-11766910D01*
X14415000Y-8365000D02*
X14435000Y-8385000D01*
X14435000Y-8365000D02*
X14415000Y-8385000D01*
X14415000Y-8440000D02*
X14435000Y-8460000D01*
X14435000Y-8440000D02*
X14415000Y-8460000D01*
X14415000Y-8765000D02*
X14435000Y-8785000D01*
X14435000Y-8765000D02*
X14415000Y-8785000D01*
X14415000Y-8840000D02*
X14435000Y-8860000D01*
X14435000Y-8840000D02*
X14415000Y-8860000D01*
X14415000Y-8915000D02*
X14435000Y-8935000D01*
X14435000Y-8915000D02*
X14415000Y-8935000D01*
X14415000Y-8990000D02*
X14435000Y-9010000D01*
X14435000Y-8990000D02*
X14415000Y-9010000D01*
X14415000Y-9215000D02*
X14435000Y-9235000D01*
X14435000Y-9215000D02*
X14415000Y-9235000D01*
X14415000Y-9290000D02*
X14435000Y-9310000D01*
X14435000Y-9290000D02*
X14415000Y-9310000D01*
X14415000Y-10340000D02*
X14435000Y-10360000D01*
X14435000Y-10340000D02*
X14415000Y-10360000D01*
X14415000Y-10415000D02*
X14435000Y-10435000D01*
X14435000Y-10415000D02*
X14415000Y-10435000D01*
X14415000Y-11190000D02*
X14435000Y-11210000D01*
X14435000Y-11190000D02*
X14415000Y-11210000D01*
X14415000Y-11265000D02*
X14435000Y-11285000D01*
X14435000Y-11265000D02*
X14415000Y-11285000D01*
X14438000Y-9796910D02*
X14458000Y-9816910D01*
X14458000Y-9796910D02*
X14438000Y-9816910D01*
X14438000Y-9871910D02*
X14458000Y-9891910D01*
X14458000Y-9871910D02*
X14438000Y-9891910D01*
X14438000Y-9946910D02*
X14458000Y-9966910D01*
X14458000Y-9946910D02*
X14438000Y-9966910D01*
X14438000Y-10021910D02*
X14458000Y-10041910D01*
X14458000Y-10021910D02*
X14438000Y-10041910D01*
X14440000Y-7835000D02*
X14460000Y-7855000D01*
X14460000Y-7835000D02*
X14440000Y-7855000D01*
X14440000Y-12065000D02*
X14460000Y-12085000D01*
X14460000Y-12065000D02*
X14440000Y-12085000D01*
X14440000Y-12140000D02*
X14460000Y-12160000D01*
X14460000Y-12140000D02*
X14440000Y-12160000D01*
X14443000Y-7918910D02*
X14463000Y-7938910D01*
X14463000Y-7918910D02*
X14443000Y-7938910D01*
X14443000Y-7993910D02*
X14463000Y-8013910D01*
X14463000Y-7993910D02*
X14443000Y-8013910D01*
X14443000Y-8068910D02*
X14463000Y-8088910D01*
X14463000Y-8068910D02*
X14443000Y-8088910D01*
X14443000Y-8143910D02*
X14463000Y-8163910D01*
X14463000Y-8143910D02*
X14443000Y-8163910D01*
X14443000Y-10631910D02*
X14463000Y-10651910D01*
X14463000Y-10631910D02*
X14443000Y-10651910D01*
X14443000Y-10706910D02*
X14463000Y-10726910D01*
X14463000Y-10706910D02*
X14443000Y-10726910D01*
X14443000Y-10781910D02*
X14463000Y-10801910D01*
X14463000Y-10781910D02*
X14443000Y-10801910D01*
X14443000Y-10856910D02*
X14463000Y-10876910D01*
X14463000Y-10856910D02*
X14443000Y-10876910D01*
X14445000Y-7540000D02*
X14465000Y-7560000D01*
X14465000Y-7540000D02*
X14445000Y-7560000D01*
X14445000Y-7615000D02*
X14465000Y-7635000D01*
X14465000Y-7615000D02*
X14445000Y-7635000D01*
X14475000Y-7001910D02*
X14495000Y-7021910D01*
X14495000Y-7001910D02*
X14475000Y-7021910D01*
X14475000Y-7076910D02*
X14495000Y-7096910D01*
X14495000Y-7076910D02*
X14475000Y-7096910D01*
X14475000Y-7151910D02*
X14495000Y-7171910D01*
X14495000Y-7151910D02*
X14475000Y-7171910D01*
X14475000Y-7226910D02*
X14495000Y-7246910D01*
X14495000Y-7226910D02*
X14475000Y-7246910D01*
X14478000Y-11521910D02*
X14498000Y-11541910D01*
X14498000Y-11521910D02*
X14478000Y-11541910D01*
X14478000Y-11596910D02*
X14498000Y-11616910D01*
X14498000Y-11596910D02*
X14478000Y-11616910D01*
X14478000Y-11671910D02*
X14498000Y-11691910D01*
X14498000Y-11671910D02*
X14478000Y-11691910D01*
X14478000Y-11746910D02*
X14498000Y-11766910D01*
X14498000Y-11746910D02*
X14478000Y-11766910D01*
X14490000Y-8365000D02*
X14510000Y-8385000D01*
X14510000Y-8365000D02*
X14490000Y-8385000D01*
X14490000Y-8440000D02*
X14510000Y-8460000D01*
X14510000Y-8440000D02*
X14490000Y-8460000D01*
X14490000Y-8765000D02*
X14510000Y-8785000D01*
X14510000Y-8765000D02*
X14490000Y-8785000D01*
X14490000Y-8840000D02*
X14510000Y-8860000D01*
X14510000Y-8840000D02*
X14490000Y-8860000D01*
X14490000Y-8915000D02*
X14510000Y-8935000D01*
X14510000Y-8915000D02*
X14490000Y-8935000D01*
X14490000Y-8990000D02*
X14510000Y-9010000D01*
X14510000Y-8990000D02*
X14490000Y-9010000D01*
X14490000Y-9215000D02*
X14510000Y-9235000D01*
X14510000Y-9215000D02*
X14490000Y-9235000D01*
X14490000Y-9290000D02*
X14510000Y-9310000D01*
X14510000Y-9290000D02*
X14490000Y-9310000D01*
X14490000Y-10340000D02*
X14510000Y-10360000D01*
X14510000Y-10340000D02*
X14490000Y-10360000D01*
X14490000Y-10415000D02*
X14510000Y-10435000D01*
X14510000Y-10415000D02*
X14490000Y-10435000D01*
X14490000Y-11190000D02*
X14510000Y-11210000D01*
X14510000Y-11190000D02*
X14490000Y-11210000D01*
X14490000Y-11265000D02*
X14510000Y-11285000D01*
X14510000Y-11265000D02*
X14490000Y-11285000D01*
X14513000Y-9796910D02*
X14533000Y-9816910D01*
X14533000Y-9796910D02*
X14513000Y-9816910D01*
X14513000Y-9871910D02*
X14533000Y-9891910D01*
X14533000Y-9871910D02*
X14513000Y-9891910D01*
X14513000Y-9946910D02*
X14533000Y-9966910D01*
X14533000Y-9946910D02*
X14513000Y-9966910D01*
X14513000Y-10021910D02*
X14533000Y-10041910D01*
X14533000Y-10021910D02*
X14513000Y-10041910D01*
X14515000Y-7835000D02*
X14535000Y-7855000D01*
X14535000Y-7835000D02*
X14515000Y-7855000D01*
X14515000Y-12140000D02*
X14535000Y-12160000D01*
X14535000Y-12140000D02*
X14515000Y-12160000D01*
X14518000Y-7918910D02*
X14538000Y-7938910D01*
X14538000Y-7918910D02*
X14518000Y-7938910D01*
X14518000Y-7993910D02*
X14538000Y-8013910D01*
X14538000Y-7993910D02*
X14518000Y-8013910D01*
X14518000Y-8068910D02*
X14538000Y-8088910D01*
X14538000Y-8068910D02*
X14518000Y-8088910D01*
X14518000Y-8143910D02*
X14538000Y-8163910D01*
X14538000Y-8143910D02*
X14518000Y-8163910D01*
X14518000Y-10631910D02*
X14538000Y-10651910D01*
X14538000Y-10631910D02*
X14518000Y-10651910D01*
X14518000Y-10706910D02*
X14538000Y-10726910D01*
X14538000Y-10706910D02*
X14518000Y-10726910D01*
X14518000Y-10781910D02*
X14538000Y-10801910D01*
X14538000Y-10781910D02*
X14518000Y-10801910D01*
X14518000Y-10856910D02*
X14538000Y-10876910D01*
X14538000Y-10856910D02*
X14518000Y-10876910D01*
X14520000Y-7615000D02*
X14540000Y-7635000D01*
X14540000Y-7615000D02*
X14520000Y-7635000D01*
X14550000Y-7001910D02*
X14570000Y-7021910D01*
X14570000Y-7001910D02*
X14550000Y-7021910D01*
X14550000Y-7076910D02*
X14570000Y-7096910D01*
X14570000Y-7076910D02*
X14550000Y-7096910D01*
X14550000Y-7151910D02*
X14570000Y-7171910D01*
X14570000Y-7151910D02*
X14550000Y-7171910D01*
X14550000Y-7226910D02*
X14570000Y-7246910D01*
X14570000Y-7226910D02*
X14550000Y-7246910D01*
X14553000Y-11521910D02*
X14573000Y-11541910D01*
X14573000Y-11521910D02*
X14553000Y-11541910D01*
X14553000Y-11596910D02*
X14573000Y-11616910D01*
X14573000Y-11596910D02*
X14553000Y-11616910D01*
X14553000Y-11671910D02*
X14573000Y-11691910D01*
X14573000Y-11671910D02*
X14553000Y-11691910D01*
X14553000Y-11746910D02*
X14573000Y-11766910D01*
X14573000Y-11746910D02*
X14553000Y-11766910D01*
X14560000Y-9290000D02*
X14580000Y-9310000D01*
X14580000Y-9290000D02*
X14560000Y-9310000D01*
X14565000Y-8440000D02*
X14585000Y-8460000D01*
X14585000Y-8440000D02*
X14565000Y-8460000D01*
X14565000Y-8765000D02*
X14585000Y-8785000D01*
X14585000Y-8765000D02*
X14565000Y-8785000D01*
X14565000Y-8840000D02*
X14585000Y-8860000D01*
X14585000Y-8840000D02*
X14565000Y-8860000D01*
X14565000Y-8915000D02*
X14585000Y-8935000D01*
X14585000Y-8915000D02*
X14565000Y-8935000D01*
X14565000Y-8990000D02*
X14585000Y-9010000D01*
X14585000Y-8990000D02*
X14565000Y-9010000D01*
X14565000Y-10415000D02*
X14585000Y-10435000D01*
X14585000Y-10415000D02*
X14565000Y-10435000D01*
X14565000Y-11265000D02*
X14585000Y-11285000D01*
X14585000Y-11265000D02*
X14565000Y-11285000D01*
X14588000Y-9796910D02*
X14608000Y-9816910D01*
X14608000Y-9796910D02*
X14588000Y-9816910D01*
X14588000Y-9871910D02*
X14608000Y-9891910D01*
X14608000Y-9871910D02*
X14588000Y-9891910D01*
X14588000Y-9946910D02*
X14608000Y-9966910D01*
X14608000Y-9946910D02*
X14588000Y-9966910D01*
X14588000Y-10021910D02*
X14608000Y-10041910D01*
X14608000Y-10021910D02*
X14588000Y-10041910D01*
X14590000Y-7835000D02*
X14610000Y-7855000D01*
X14610000Y-7835000D02*
X14590000Y-7855000D01*
X14590000Y-12140000D02*
X14610000Y-12160000D01*
X14610000Y-12140000D02*
X14590000Y-12160000D01*
X14593000Y-7918910D02*
X14613000Y-7938910D01*
X14613000Y-7918910D02*
X14593000Y-7938910D01*
X14593000Y-7993910D02*
X14613000Y-8013910D01*
X14613000Y-7993910D02*
X14593000Y-8013910D01*
X14593000Y-8068910D02*
X14613000Y-8088910D01*
X14613000Y-8068910D02*
X14593000Y-8088910D01*
X14593000Y-8143910D02*
X14613000Y-8163910D01*
X14613000Y-8143910D02*
X14593000Y-8163910D01*
X14593000Y-10631910D02*
X14613000Y-10651910D01*
X14613000Y-10631910D02*
X14593000Y-10651910D01*
X14593000Y-10706910D02*
X14613000Y-10726910D01*
X14613000Y-10706910D02*
X14593000Y-10726910D01*
X14593000Y-10781910D02*
X14613000Y-10801910D01*
X14613000Y-10781910D02*
X14593000Y-10801910D01*
X14593000Y-10856910D02*
X14613000Y-10876910D01*
X14613000Y-10856910D02*
X14593000Y-10876910D01*
X14615000Y-12900000D02*
X14635000Y-12920000D01*
X14635000Y-12900000D02*
X14615000Y-12920000D01*
X14628000Y-11521910D02*
X14648000Y-11541910D01*
X14648000Y-11521910D02*
X14628000Y-11541910D01*
X14628000Y-11596910D02*
X14648000Y-11616910D01*
X14648000Y-11596910D02*
X14628000Y-11616910D01*
X14628000Y-11671910D02*
X14648000Y-11691910D01*
X14648000Y-11671910D02*
X14628000Y-11691910D01*
X14628000Y-11746910D02*
X14648000Y-11766910D01*
X14648000Y-11746910D02*
X14628000Y-11766910D01*
X14630000Y-13090050D02*
X14650000Y-13110050D01*
X14650000Y-13090050D02*
X14630000Y-13110050D01*
X14640000Y-10415000D02*
X14660000Y-10435000D01*
X14660000Y-10415000D02*
X14640000Y-10435000D01*
X14640000Y-11265000D02*
X14660000Y-11285000D01*
X14660000Y-11265000D02*
X14640000Y-11285000D01*
X14664010Y-8589010D02*
X14684010Y-8609010D01*
X14684010Y-8589010D02*
X14664010Y-8609010D01*
X14664010Y-8664010D02*
X14684010Y-8684010D01*
X14684010Y-8664010D02*
X14664010Y-8684010D01*
X14664010Y-8739010D02*
X14684010Y-8759010D01*
X14684010Y-8739010D02*
X14664010Y-8759010D01*
X14664010Y-8814010D02*
X14684010Y-8834010D01*
X14684010Y-8814010D02*
X14664010Y-8834010D01*
X14664010Y-8889010D02*
X14684010Y-8909010D01*
X14684010Y-8889010D02*
X14664010Y-8909010D01*
X14664010Y-8964010D02*
X14684010Y-8984010D01*
X14684010Y-8964010D02*
X14664010Y-8984010D01*
X14665000Y-9765000D02*
X14685000Y-9785000D01*
X14685000Y-9765000D02*
X14665000Y-9785000D01*
X14665000Y-9840000D02*
X14685000Y-9860000D01*
X14685000Y-9840000D02*
X14665000Y-9860000D01*
X14665000Y-9915000D02*
X14685000Y-9935000D01*
X14685000Y-9915000D02*
X14665000Y-9935000D01*
X14665000Y-9990000D02*
X14685000Y-10010000D01*
X14685000Y-9990000D02*
X14665000Y-10010000D01*
X14665000Y-10065000D02*
X14685000Y-10085000D01*
X14685000Y-10065000D02*
X14665000Y-10085000D01*
X14665000Y-12140000D02*
X14685000Y-12160000D01*
X14685000Y-12140000D02*
X14665000Y-12160000D01*
X14670000Y-13650000D02*
X14690000Y-13670000D01*
X14690000Y-13650000D02*
X14670000Y-13670000D01*
X14715000Y-10415000D02*
X14735000Y-10435000D01*
X14735000Y-10415000D02*
X14715000Y-10435000D01*
X14715000Y-11265000D02*
X14735000Y-11285000D01*
X14735000Y-11265000D02*
X14715000Y-11285000D01*
X14734910Y-10715000D02*
X14754910Y-10735000D01*
X14754910Y-10715000D02*
X14734910Y-10735000D01*
X14734910Y-10790000D02*
X14754910Y-10810000D01*
X14754910Y-10790000D02*
X14734910Y-10810000D01*
X14734910Y-10865000D02*
X14754910Y-10885000D01*
X14754910Y-10865000D02*
X14734910Y-10885000D01*
X14734910Y-10940000D02*
X14754910Y-10960000D01*
X14754910Y-10940000D02*
X14734910Y-10960000D01*
X14739010Y-8704010D02*
X14759010Y-8724010D01*
X14759010Y-8704010D02*
X14739010Y-8724010D01*
X14739010Y-8779010D02*
X14759010Y-8799010D01*
X14759010Y-8779010D02*
X14739010Y-8799010D01*
X14739010Y-8854010D02*
X14759010Y-8874010D01*
X14759010Y-8854010D02*
X14739010Y-8874010D01*
X14739010Y-8929010D02*
X14759010Y-8949010D01*
X14759010Y-8929010D02*
X14739010Y-8949010D01*
X14740000Y-7740000D02*
X14760000Y-7760000D01*
X14760000Y-7740000D02*
X14740000Y-7760000D01*
X14740000Y-7845000D02*
X14760000Y-7865000D01*
X14760000Y-7845000D02*
X14740000Y-7865000D01*
X14740000Y-7920000D02*
X14760000Y-7940000D01*
X14760000Y-7920000D02*
X14740000Y-7940000D01*
X14740000Y-7995000D02*
X14760000Y-8015000D01*
X14760000Y-7995000D02*
X14740000Y-8015000D01*
X14740000Y-8070000D02*
X14760000Y-8090000D01*
X14760000Y-8070000D02*
X14740000Y-8090000D01*
X14740000Y-8145000D02*
X14760000Y-8165000D01*
X14760000Y-8145000D02*
X14740000Y-8165000D01*
X14740000Y-8565000D02*
X14760000Y-8585000D01*
X14760000Y-8565000D02*
X14740000Y-8585000D01*
X14740000Y-9765000D02*
X14760000Y-9785000D01*
X14760000Y-9765000D02*
X14740000Y-9785000D01*
X14740000Y-9840000D02*
X14760000Y-9860000D01*
X14760000Y-9840000D02*
X14740000Y-9860000D01*
X14740000Y-9915000D02*
X14760000Y-9935000D01*
X14760000Y-9915000D02*
X14740000Y-9935000D01*
X14740000Y-9990000D02*
X14760000Y-10010000D01*
X14760000Y-9990000D02*
X14740000Y-10010000D01*
X14740000Y-10065000D02*
X14760000Y-10085000D01*
X14760000Y-10065000D02*
X14740000Y-10085000D01*
X14740000Y-10540000D02*
X14760000Y-10560000D01*
X14760000Y-10540000D02*
X14740000Y-10560000D01*
X14809910Y-10790000D02*
X14829910Y-10810000D01*
X14829910Y-10790000D02*
X14809910Y-10810000D01*
X14809910Y-10865000D02*
X14829910Y-10885000D01*
X14829910Y-10865000D02*
X14809910Y-10885000D01*
X14809910Y-10940000D02*
X14829910Y-10960000D01*
X14829910Y-10940000D02*
X14809910Y-10960000D01*
X14814010Y-8779010D02*
X14834010Y-8799010D01*
X14834010Y-8779010D02*
X14814010Y-8799010D01*
X14814010Y-8854010D02*
X14834010Y-8874010D01*
X14834010Y-8854010D02*
X14814010Y-8874010D01*
X14814010Y-8929010D02*
X14834010Y-8949010D01*
X14834010Y-8929010D02*
X14814010Y-8949010D01*
X14815000Y-7995000D02*
X14835000Y-8015000D01*
X14835000Y-7995000D02*
X14815000Y-8015000D01*
X14815000Y-8070000D02*
X14835000Y-8090000D01*
X14835000Y-8070000D02*
X14815000Y-8090000D01*
X14815000Y-8145000D02*
X14835000Y-8165000D01*
X14835000Y-8145000D02*
X14815000Y-8165000D01*
X14815000Y-9915000D02*
X14835000Y-9935000D01*
X14835000Y-9915000D02*
X14815000Y-9935000D01*
X14815000Y-9990000D02*
X14835000Y-10010000D01*
X14835000Y-9990000D02*
X14815000Y-10010000D01*
X14815000Y-10065000D02*
X14835000Y-10085000D01*
X14835000Y-10065000D02*
X14815000Y-10085000D01*
X14815000Y-10540000D02*
X14835000Y-10560000D01*
X14835000Y-10540000D02*
X14815000Y-10560000D01*
X14830000Y-12950000D02*
X14850000Y-12970000D01*
X14850000Y-12950000D02*
X14830000Y-12970000D01*
X14840000Y-13540000D02*
X14860000Y-13560000D01*
X14860000Y-13540000D02*
X14840000Y-13560000D01*
X14865000Y-8565000D02*
X14885000Y-8585000D01*
X14885000Y-8565000D02*
X14865000Y-8585000D01*
X14865000Y-9715000D02*
X14885000Y-9735000D01*
X14885000Y-9715000D02*
X14865000Y-9735000D01*
X14884910Y-10715000D02*
X14904910Y-10735000D01*
X14904910Y-10715000D02*
X14884910Y-10735000D01*
X14884910Y-10790000D02*
X14904910Y-10810000D01*
X14904910Y-10790000D02*
X14884910Y-10810000D01*
X14884910Y-10865000D02*
X14904910Y-10885000D01*
X14904910Y-10865000D02*
X14884910Y-10885000D01*
X14884910Y-10940000D02*
X14904910Y-10960000D01*
X14904910Y-10940000D02*
X14884910Y-10960000D01*
X14889010Y-8779010D02*
X14909010Y-8799010D01*
X14909010Y-8779010D02*
X14889010Y-8799010D01*
X14889010Y-8854010D02*
X14909010Y-8874010D01*
X14909010Y-8854010D02*
X14889010Y-8874010D01*
X14889010Y-8929010D02*
X14909010Y-8949010D01*
X14909010Y-8929010D02*
X14889010Y-8949010D01*
X14890000Y-7740000D02*
X14910000Y-7760000D01*
X14910000Y-7740000D02*
X14890000Y-7760000D01*
X14890000Y-7995000D02*
X14910000Y-8015000D01*
X14910000Y-7995000D02*
X14890000Y-8015000D01*
X14890000Y-8070000D02*
X14910000Y-8090000D01*
X14910000Y-8070000D02*
X14890000Y-8090000D01*
X14890000Y-8145000D02*
X14910000Y-8165000D01*
X14910000Y-8145000D02*
X14890000Y-8165000D01*
X14890000Y-9915000D02*
X14910000Y-9935000D01*
X14910000Y-9915000D02*
X14890000Y-9935000D01*
X14890000Y-9990000D02*
X14910000Y-10010000D01*
X14910000Y-9990000D02*
X14890000Y-10010000D01*
X14890000Y-10065000D02*
X14910000Y-10085000D01*
X14910000Y-10065000D02*
X14890000Y-10085000D01*
X14890000Y-10540000D02*
X14910000Y-10560000D01*
X14910000Y-10540000D02*
X14890000Y-10560000D01*
X14890000Y-10615000D02*
X14910000Y-10635000D01*
X14910000Y-10615000D02*
X14890000Y-10635000D01*
X14965000Y-7995000D02*
X14985000Y-8015000D01*
X14985000Y-7995000D02*
X14965000Y-8015000D01*
X14965000Y-8070000D02*
X14985000Y-8090000D01*
X14985000Y-8070000D02*
X14965000Y-8090000D01*
X14965000Y-8145000D02*
X14985000Y-8165000D01*
X14985000Y-8145000D02*
X14965000Y-8165000D01*
X14990000Y-12915000D02*
X15010000Y-12935000D01*
X15010000Y-12915000D02*
X14990000Y-12935000D01*
X15020000Y-13550000D02*
X15040000Y-13570000D01*
X15040000Y-13550000D02*
X15020000Y-13570000D01*
X15065000Y-8785000D02*
X15085000Y-8805000D01*
X15085000Y-8785000D02*
X15065000Y-8805000D01*
X15065000Y-8860000D02*
X15085000Y-8880000D01*
X15085000Y-8860000D02*
X15065000Y-8880000D01*
X15065000Y-8935000D02*
X15085000Y-8955000D01*
X15085000Y-8935000D02*
X15065000Y-8955000D01*
X15065000Y-9690000D02*
X15085000Y-9710000D01*
X15085000Y-9690000D02*
X15065000Y-9710000D01*
X15065000Y-9965000D02*
X15085000Y-9985000D01*
X15085000Y-9965000D02*
X15065000Y-9985000D01*
X15065000Y-10040000D02*
X15085000Y-10060000D01*
X15085000Y-10040000D02*
X15065000Y-10060000D01*
X15065000Y-10115000D02*
X15085000Y-10135000D01*
X15085000Y-10115000D02*
X15065000Y-10135000D01*
X15090000Y-7715000D02*
X15110000Y-7735000D01*
X15110000Y-7715000D02*
X15090000Y-7735000D01*
X15090000Y-7990000D02*
X15110000Y-8010000D01*
X15110000Y-7990000D02*
X15090000Y-8010000D01*
X15090000Y-8065000D02*
X15110000Y-8085000D01*
X15110000Y-8065000D02*
X15090000Y-8085000D01*
X15090000Y-8140000D02*
X15110000Y-8160000D01*
X15110000Y-8140000D02*
X15090000Y-8160000D01*
X15090000Y-10565000D02*
X15110000Y-10585000D01*
X15110000Y-10565000D02*
X15090000Y-10585000D01*
X15090000Y-10815000D02*
X15110000Y-10835000D01*
X15110000Y-10815000D02*
X15090000Y-10835000D01*
X15090000Y-10890000D02*
X15110000Y-10910000D01*
X15110000Y-10890000D02*
X15090000Y-10910000D01*
X15090000Y-10965000D02*
X15110000Y-10985000D01*
X15110000Y-10965000D02*
X15090000Y-10985000D01*
X15140000Y-8785000D02*
X15160000Y-8805000D01*
X15160000Y-8785000D02*
X15140000Y-8805000D01*
X15140000Y-8860000D02*
X15160000Y-8880000D01*
X15160000Y-8860000D02*
X15140000Y-8880000D01*
X15140000Y-8935000D02*
X15160000Y-8955000D01*
X15160000Y-8935000D02*
X15140000Y-8955000D01*
X15140000Y-9690000D02*
X15160000Y-9710000D01*
X15160000Y-9690000D02*
X15140000Y-9710000D01*
X15140000Y-9965000D02*
X15160000Y-9985000D01*
X15160000Y-9965000D02*
X15140000Y-9985000D01*
X15140000Y-10040000D02*
X15160000Y-10060000D01*
X15160000Y-10040000D02*
X15140000Y-10060000D01*
X15140000Y-10115000D02*
X15160000Y-10135000D01*
X15160000Y-10115000D02*
X15140000Y-10135000D01*
X15165000Y-7715000D02*
X15185000Y-7735000D01*
X15185000Y-7715000D02*
X15165000Y-7735000D01*
X15165000Y-7990000D02*
X15185000Y-8010000D01*
X15185000Y-7990000D02*
X15165000Y-8010000D01*
X15165000Y-8065000D02*
X15185000Y-8085000D01*
X15185000Y-8065000D02*
X15165000Y-8085000D01*
X15165000Y-8140000D02*
X15185000Y-8160000D01*
X15185000Y-8140000D02*
X15165000Y-8160000D01*
X15165000Y-10565000D02*
X15185000Y-10585000D01*
X15185000Y-10565000D02*
X15165000Y-10585000D01*
X15165000Y-10815000D02*
X15185000Y-10835000D01*
X15185000Y-10815000D02*
X15165000Y-10835000D01*
X15165000Y-10890000D02*
X15185000Y-10910000D01*
X15185000Y-10890000D02*
X15165000Y-10910000D01*
X15165000Y-10965000D02*
X15185000Y-10985000D01*
X15185000Y-10965000D02*
X15165000Y-10985000D01*
X15210000Y-13580000D02*
X15230000Y-13600000D01*
X15230000Y-13580000D02*
X15210000Y-13600000D01*
X15215000Y-8785000D02*
X15235000Y-8805000D01*
X15235000Y-8785000D02*
X15215000Y-8805000D01*
X15215000Y-8860000D02*
X15235000Y-8880000D01*
X15235000Y-8860000D02*
X15215000Y-8880000D01*
X15215000Y-8935000D02*
X15235000Y-8955000D01*
X15235000Y-8935000D02*
X15215000Y-8955000D01*
X15215000Y-9965000D02*
X15235000Y-9985000D01*
X15235000Y-9965000D02*
X15215000Y-9985000D01*
X15215000Y-10040000D02*
X15235000Y-10060000D01*
X15235000Y-10040000D02*
X15215000Y-10060000D01*
X15215000Y-10115000D02*
X15235000Y-10135000D01*
X15235000Y-10115000D02*
X15215000Y-10135000D01*
X15240000Y-7715000D02*
X15260000Y-7735000D01*
X15260000Y-7715000D02*
X15240000Y-7735000D01*
X15240000Y-7990000D02*
X15260000Y-8010000D01*
X15260000Y-7990000D02*
X15240000Y-8010000D01*
X15240000Y-8065000D02*
X15260000Y-8085000D01*
X15260000Y-8065000D02*
X15240000Y-8085000D01*
X15240000Y-8140000D02*
X15260000Y-8160000D01*
X15260000Y-8140000D02*
X15240000Y-8160000D01*
X15240000Y-8590000D02*
X15260000Y-8610000D01*
X15260000Y-8590000D02*
X15240000Y-8610000D01*
X15240000Y-8665000D02*
X15260000Y-8685000D01*
X15260000Y-8665000D02*
X15240000Y-8685000D01*
X15240000Y-10565000D02*
X15260000Y-10585000D01*
X15260000Y-10565000D02*
X15240000Y-10585000D01*
X15240000Y-10815000D02*
X15260000Y-10835000D01*
X15260000Y-10815000D02*
X15240000Y-10835000D01*
X15240000Y-10890000D02*
X15260000Y-10910000D01*
X15260000Y-10890000D02*
X15240000Y-10910000D01*
X15240000Y-10965000D02*
X15260000Y-10985000D01*
X15260000Y-10965000D02*
X15240000Y-10985000D01*
X15290000Y-10640000D02*
X15310000Y-10660000D01*
X15310000Y-10640000D02*
X15290000Y-10660000D01*
X15315000Y-7715000D02*
X15335000Y-7735000D01*
X15335000Y-7715000D02*
X15315000Y-7735000D01*
X15315000Y-8615000D02*
X15335000Y-8635000D01*
X15335000Y-8615000D02*
X15315000Y-8635000D01*
X15315000Y-10565000D02*
X15335000Y-10585000D01*
X15335000Y-10565000D02*
X15315000Y-10585000D01*
X15390000Y-10565000D02*
X15410000Y-10585000D01*
X15410000Y-10565000D02*
X15390000Y-10585000D01*
X15400000Y-13120000D02*
X15420000Y-13140000D01*
X15420000Y-13120000D02*
X15400000Y-13140000D01*
X15455000Y-12460000D02*
X15475000Y-12480000D01*
X15475000Y-12460000D02*
X15455000Y-12480000D01*
X15580000Y-12940000D02*
X15600000Y-12960000D01*
X15600000Y-12940000D02*
X15580000Y-12960000D01*
X15885000Y-12900000D02*
X15905000Y-12920000D01*
X15905000Y-12900000D02*
X15885000Y-12920000D01*
X9021500Y-10397500D02*
G75*
G03*
X9021500Y-10397500I-10000J0D01*
G01*
X9021500Y-10525000D02*
G75*
G03*
X9021500Y-10525000I-10000J0D01*
G01*
X9021500Y-10652500D02*
G75*
G03*
X9021500Y-10652500I-10000J0D01*
G01*
X9149000Y-10397500D02*
G75*
G03*
X9149000Y-10397500I-10000J0D01*
G01*
X9149000Y-10525000D02*
G75*
G03*
X9149000Y-10525000I-10000J0D01*
G01*
X9149000Y-10652500D02*
G75*
G03*
X9149000Y-10652500I-10000J0D01*
G01*
X9276500Y-10397500D02*
G75*
G03*
X9276500Y-10397500I-10000J0D01*
G01*
X9276500Y-10525000D02*
G75*
G03*
X9276500Y-10525000I-10000J0D01*
G01*
X9276500Y-10652500D02*
G75*
G03*
X9276500Y-10652500I-10000J0D01*
G01*
D13*
X8603100Y-11898400D02*
X8603100Y-11933400D01*
X8585600Y-11915900D02*
X8620600Y-11915900D01*
X8603100Y-12025900D02*
X8603100Y-12060900D01*
X8585600Y-12043400D02*
X8620600Y-12043400D01*
X8603100Y-12153400D02*
X8603100Y-12188400D01*
X8585600Y-12170900D02*
X8620600Y-12170900D01*
X8730600Y-11898400D02*
X8730600Y-11933400D01*
X8713100Y-11915900D02*
X8748100Y-11915900D01*
X8730600Y-12025900D02*
X8730600Y-12060900D01*
X8713100Y-12043400D02*
X8748100Y-12043400D01*
X8730600Y-12153400D02*
X8730600Y-12188400D01*
X8713100Y-12170900D02*
X8748100Y-12170900D01*
X8858100Y-11898400D02*
X8858100Y-11933400D01*
X8840600Y-11915900D02*
X8875600Y-11915900D01*
X8858100Y-12025900D02*
X8858100Y-12060900D01*
X8840600Y-12043400D02*
X8875600Y-12043400D01*
X8858100Y-12153400D02*
X8858100Y-12188400D01*
X8840600Y-12170900D02*
X8875600Y-12170900D01*
D14*
X6634142Y-7744142D02*
X6634142Y-7715858D01*
X6605858Y-7715858D01*
X6605858Y-7744142D01*
X6634142Y-7744142D01*
X6634142Y-7864142D02*
X6634142Y-7835858D01*
X6605858Y-7835858D01*
X6605858Y-7864142D01*
X6634142Y-7864142D01*
X7014142Y-7724142D02*
X7014142Y-7695858D01*
X6985858Y-7695858D01*
X6985858Y-7724142D01*
X7014142Y-7724142D01*
X7974142Y-10134142D02*
X7974142Y-10105858D01*
X7945858Y-10105858D01*
X7945858Y-10134142D01*
X7974142Y-10134142D01*
X8459142Y-10959142D02*
X8459142Y-10930858D01*
X8430858Y-10930858D01*
X8430858Y-10959142D01*
X8459142Y-10959142D01*
X8459142Y-11134142D02*
X8459142Y-11105858D01*
X8430858Y-11105858D01*
X8430858Y-11134142D01*
X8459142Y-11134142D01*
X8504142Y-7064142D02*
X8504142Y-7035858D01*
X8475858Y-7035858D01*
X8475858Y-7064142D01*
X8504142Y-7064142D01*
X8614142Y-7989142D02*
X8614142Y-7960858D01*
X8585858Y-7960858D01*
X8585858Y-7989142D01*
X8614142Y-7989142D01*
X8774142Y-11234142D02*
X8774142Y-11205858D01*
X8745858Y-11205858D01*
X8745858Y-11234142D01*
X8774142Y-11234142D01*
X8784142Y-7859142D02*
X8784142Y-7830858D01*
X8755858Y-7830858D01*
X8755858Y-7859142D01*
X8784142Y-7859142D01*
X8784142Y-7959142D02*
X8784142Y-7930858D01*
X8755858Y-7930858D01*
X8755858Y-7959142D01*
X8784142Y-7959142D01*
X8884142Y-8674142D02*
X8884142Y-8645858D01*
X8855858Y-8645858D01*
X8855858Y-8674142D01*
X8884142Y-8674142D01*
X8904142Y-7154142D02*
X8904142Y-7125858D01*
X8875858Y-7125858D01*
X8875858Y-7154142D01*
X8904142Y-7154142D01*
X9004142Y-7859142D02*
X9004142Y-7830858D01*
X8975858Y-7830858D01*
X8975858Y-7859142D01*
X9004142Y-7859142D01*
X9004142Y-7959142D02*
X9004142Y-7930858D01*
X8975858Y-7930858D01*
X8975858Y-7959142D01*
X9004142Y-7959142D01*
X9209142Y-11364142D02*
X9209142Y-11335858D01*
X9180858Y-11335858D01*
X9180858Y-11364142D01*
X9209142Y-11364142D01*
X9339142Y-7809142D02*
X9339142Y-7780858D01*
X9310858Y-7780858D01*
X9310858Y-7809142D01*
X9339142Y-7809142D01*
X9344142Y-7914142D02*
X9344142Y-7885858D01*
X9315858Y-7885858D01*
X9315858Y-7914142D01*
X9344142Y-7914142D01*
X9344142Y-8029142D02*
X9344142Y-8000858D01*
X9315858Y-8000858D01*
X9315858Y-8029142D01*
X9344142Y-8029142D01*
X9469142Y-7514142D02*
X9469142Y-7485858D01*
X9440858Y-7485858D01*
X9440858Y-7514142D01*
X9469142Y-7514142D01*
X9514142Y-7599142D02*
X9514142Y-7570858D01*
X9485858Y-7570858D01*
X9485858Y-7599142D01*
X9514142Y-7599142D01*
X9564142Y-7509142D02*
X9564142Y-7480858D01*
X9535858Y-7480858D01*
X9535858Y-7509142D01*
X9564142Y-7509142D01*
X9584142Y-7769142D02*
X9584142Y-7740858D01*
X9555858Y-7740858D01*
X9555858Y-7769142D01*
X9584142Y-7769142D01*
X9594142Y-7664142D02*
X9594142Y-7635858D01*
X9565858Y-7635858D01*
X9565858Y-7664142D01*
X9594142Y-7664142D01*
X9774142Y-8324142D02*
X9774142Y-8295858D01*
X9745858Y-8295858D01*
X9745858Y-8324142D01*
X9774142Y-8324142D01*
X9984142Y-10864142D02*
X9984142Y-10835858D01*
X9955858Y-10835858D01*
X9955858Y-10864142D01*
X9984142Y-10864142D01*
X10094142Y-7414142D02*
X10094142Y-7385858D01*
X10065858Y-7385858D01*
X10065858Y-7414142D01*
X10094142Y-7414142D01*
X10094142Y-7514142D02*
X10094142Y-7485858D01*
X10065858Y-7485858D01*
X10065858Y-7514142D01*
X10094142Y-7514142D01*
X10194142Y-7414142D02*
X10194142Y-7385858D01*
X10165858Y-7385858D01*
X10165858Y-7414142D01*
X10194142Y-7414142D01*
X10194142Y-7514142D02*
X10194142Y-7485858D01*
X10165858Y-7485858D01*
X10165858Y-7514142D01*
X10194142Y-7514142D01*
X10289142Y-7414142D02*
X10289142Y-7385858D01*
X10260858Y-7385858D01*
X10260858Y-7414142D01*
X10289142Y-7414142D01*
X10289142Y-7514142D02*
X10289142Y-7485858D01*
X10260858Y-7485858D01*
X10260858Y-7514142D01*
X10289142Y-7514142D01*
X10404092Y-9924142D02*
X10404092Y-9895858D01*
X10375808Y-9895858D01*
X10375808Y-9924142D01*
X10404092Y-9924142D01*
X10694092Y-10184092D02*
X10694092Y-10155808D01*
X10665808Y-10155808D01*
X10665808Y-10184092D01*
X10694092Y-10184092D01*
X10694142Y-11564142D02*
X10694142Y-11535858D01*
X10665858Y-11535858D01*
X10665858Y-11564142D01*
X10694142Y-11564142D01*
X10704142Y-8264142D02*
X10704142Y-8235858D01*
X10675858Y-8235858D01*
X10675858Y-8264142D01*
X10704142Y-8264142D01*
X10704142Y-9534142D02*
X10704142Y-9505858D01*
X10675858Y-9505858D01*
X10675858Y-9534142D01*
X10704142Y-9534142D01*
X10724142Y-8564142D02*
X10724142Y-8535858D01*
X10695858Y-8535858D01*
X10695858Y-8564142D01*
X10724142Y-8564142D01*
X10774142Y-10774142D02*
X10774142Y-10745858D01*
X10745858Y-10745858D01*
X10745858Y-10774142D01*
X10774142Y-10774142D01*
X10779142Y-7029142D02*
X10779142Y-7000858D01*
X10750858Y-7000858D01*
X10750858Y-7029142D01*
X10779142Y-7029142D01*
X10804142Y-9894142D02*
X10804142Y-9865858D01*
X10775858Y-9865858D01*
X10775858Y-9894142D01*
X10804142Y-9894142D01*
X10824142Y-9061142D02*
X10824142Y-9032858D01*
X10795858Y-9032858D01*
X10795858Y-9061142D01*
X10824142Y-9061142D01*
X10854142Y-7984142D02*
X10854142Y-7955858D01*
X10825858Y-7955858D01*
X10825858Y-7984142D01*
X10854142Y-7984142D01*
X10884142Y-11854142D02*
X10884142Y-11825858D01*
X10855858Y-11825858D01*
X10855858Y-11854142D01*
X10884142Y-11854142D01*
X10887460Y-9318311D02*
X10887460Y-9290026D01*
X10859176Y-9290026D01*
X10859176Y-9318311D01*
X10887460Y-9318311D01*
X10934142Y-7074142D02*
X10934142Y-7045858D01*
X10905858Y-7045858D01*
X10905858Y-7074142D01*
X10934142Y-7074142D01*
X10964142Y-11154142D02*
X10964142Y-11125858D01*
X10935858Y-11125858D01*
X10935858Y-11154142D01*
X10964142Y-11154142D01*
X11014142Y-12064142D02*
X11014142Y-12035858D01*
X10985858Y-12035858D01*
X10985858Y-12064142D01*
X11014142Y-12064142D01*
X11024240Y-9428542D02*
X11024240Y-9400258D01*
X10995956Y-9400258D01*
X10995956Y-9428542D01*
X11024240Y-9428542D01*
X11034142Y-7264142D02*
X11034142Y-7235858D01*
X11005858Y-7235858D01*
X11005858Y-7264142D01*
X11034142Y-7264142D01*
X11044142Y-7014142D02*
X11044142Y-6985858D01*
X11015858Y-6985858D01*
X11015858Y-7014142D01*
X11044142Y-7014142D01*
X11055125Y-10288210D02*
X11055125Y-10259925D01*
X11026840Y-10259925D01*
X11026840Y-10288210D01*
X11055125Y-10288210D01*
X11094142Y-9353592D02*
X11094142Y-9325308D01*
X11065858Y-9325308D01*
X11065858Y-9353592D01*
X11094142Y-9353592D01*
X11214142Y-8279142D02*
X11214142Y-8250858D01*
X11185858Y-8250858D01*
X11185858Y-8279142D01*
X11214142Y-8279142D01*
X11214142Y-8774142D02*
X11214142Y-8745858D01*
X11185858Y-8745858D01*
X11185858Y-8774142D01*
X11214142Y-8774142D01*
X11234142Y-9104142D02*
X11234142Y-9075858D01*
X11205858Y-9075858D01*
X11205858Y-9104142D01*
X11234142Y-9104142D01*
X11256374Y-9709192D02*
X11256374Y-9680908D01*
X11228090Y-9680908D01*
X11228090Y-9709192D01*
X11256374Y-9709192D01*
X11264142Y-7824142D02*
X11264142Y-7795858D01*
X11235858Y-7795858D01*
X11235858Y-7824142D01*
X11264142Y-7824142D01*
X11269142Y-7139142D02*
X11269142Y-7110858D01*
X11240858Y-7110858D01*
X11240858Y-7139142D01*
X11269142Y-7139142D01*
X11271439Y-11768737D02*
X11271439Y-11740453D01*
X11243154Y-11740453D01*
X11243154Y-11768737D01*
X11271439Y-11768737D01*
X11314142Y-10284142D02*
X11314142Y-10255858D01*
X11285858Y-10255858D01*
X11285858Y-10284142D01*
X11314142Y-10284142D01*
X11354142Y-8814142D02*
X11354142Y-8785858D01*
X11325858Y-8785858D01*
X11325858Y-8814142D01*
X11354142Y-8814142D01*
X11397140Y-9647140D02*
X11397140Y-9618855D01*
X11368855Y-9618855D01*
X11368855Y-9647140D01*
X11397140Y-9647140D01*
X11504142Y-9634142D02*
X11504142Y-9605858D01*
X11475858Y-9605858D01*
X11475858Y-9634142D01*
X11504142Y-9634142D01*
X11574142Y-8254142D02*
X11574142Y-8225858D01*
X11545858Y-8225858D01*
X11545858Y-8254142D01*
X11574142Y-8254142D01*
X11604142Y-7134142D02*
X11604142Y-7105858D01*
X11575858Y-7105858D01*
X11575858Y-7134142D01*
X11604142Y-7134142D01*
X11624142Y-11074142D02*
X11624142Y-11045858D01*
X11595858Y-11045858D01*
X11595858Y-11074142D01*
X11624142Y-11074142D01*
X11654142Y-10519142D02*
X11654142Y-10490858D01*
X11625858Y-10490858D01*
X11625858Y-10519142D01*
X11654142Y-10519142D01*
X11664142Y-9654092D02*
X11664142Y-9625808D01*
X11635858Y-9625808D01*
X11635858Y-9654092D01*
X11664142Y-9654092D01*
X11674142Y-8874142D02*
X11674142Y-8845858D01*
X11645858Y-8845858D01*
X11645858Y-8874142D01*
X11674142Y-8874142D01*
X11695142Y-10004142D02*
X11695142Y-9975858D01*
X11666858Y-9975858D01*
X11666858Y-10004142D01*
X11695142Y-10004142D01*
X11724142Y-11664142D02*
X11724142Y-11635858D01*
X11695858Y-11635858D01*
X11695858Y-11664142D01*
X11724142Y-11664142D01*
X11814142Y-8514142D02*
X11814142Y-8485858D01*
X11785858Y-8485858D01*
X11785858Y-8514142D01*
X11814142Y-8514142D01*
X11824142Y-10834142D02*
X11824142Y-10805858D01*
X11795858Y-10805858D01*
X11795858Y-10834142D01*
X11824142Y-10834142D01*
X11964142Y-9774142D02*
X11964142Y-9745858D01*
X11935858Y-9745858D01*
X11935858Y-9774142D01*
X11964142Y-9774142D01*
X11964142Y-10064142D02*
X11964142Y-10035858D01*
X11935858Y-10035858D01*
X11935858Y-10064142D01*
X11964142Y-10064142D01*
X11969142Y-10159142D02*
X11969142Y-10130858D01*
X11940858Y-10130858D01*
X11940858Y-10159142D01*
X11969142Y-10159142D01*
X11974142Y-8856142D02*
X11974142Y-8827858D01*
X11945858Y-8827858D01*
X11945858Y-8856142D01*
X11974142Y-8856142D01*
X11974142Y-9214142D02*
X11974142Y-9185858D01*
X11945858Y-9185858D01*
X11945858Y-9214142D01*
X11974142Y-9214142D01*
X11974142Y-10699142D02*
X11974142Y-10670858D01*
X11945858Y-10670858D01*
X11945858Y-10699142D01*
X11974142Y-10699142D01*
X11974142Y-11584142D02*
X11974142Y-11555858D01*
X11945858Y-11555858D01*
X11945858Y-11584142D01*
X11974142Y-11584142D01*
X11979142Y-8386142D02*
X11979142Y-8357858D01*
X11950858Y-8357858D01*
X11950858Y-8386142D01*
X11979142Y-8386142D01*
X11979142Y-8486142D02*
X11979142Y-8457858D01*
X11950858Y-8457858D01*
X11950858Y-8486142D01*
X11979142Y-8486142D01*
X11979142Y-8756142D02*
X11979142Y-8727858D01*
X11950858Y-8727858D01*
X11950858Y-8756142D01*
X11979142Y-8756142D01*
X11979142Y-10329142D02*
X11979142Y-10300858D01*
X11950858Y-10300858D01*
X11950858Y-10329142D01*
X11979142Y-10329142D01*
X11979142Y-10429142D02*
X11979142Y-10400858D01*
X11950858Y-10400858D01*
X11950858Y-10429142D01*
X11979142Y-10429142D01*
X11979142Y-10599142D02*
X11979142Y-10570858D01*
X11950858Y-10570858D01*
X11950858Y-10599142D01*
X11979142Y-10599142D01*
X11979142Y-11174142D02*
X11979142Y-11145858D01*
X11950858Y-11145858D01*
X11950858Y-11174142D01*
X11979142Y-11174142D01*
X11979142Y-11274142D02*
X11979142Y-11245858D01*
X11950858Y-11245858D01*
X11950858Y-11274142D01*
X11979142Y-11274142D01*
X11979142Y-11484142D02*
X11979142Y-11455858D01*
X11950858Y-11455858D01*
X11950858Y-11484142D01*
X11979142Y-11484142D01*
X11979142Y-11919142D02*
X11979142Y-11890858D01*
X11950858Y-11890858D01*
X11950858Y-11919142D01*
X11979142Y-11919142D01*
X12064142Y-9774142D02*
X12064142Y-9745858D01*
X12035858Y-9745858D01*
X12035858Y-9774142D01*
X12064142Y-9774142D01*
X12064142Y-10064142D02*
X12064142Y-10035858D01*
X12035858Y-10035858D01*
X12035858Y-10064142D01*
X12064142Y-10064142D01*
X12069142Y-10159142D02*
X12069142Y-10130858D01*
X12040858Y-10130858D01*
X12040858Y-10159142D01*
X12069142Y-10159142D01*
X12074142Y-8856142D02*
X12074142Y-8827858D01*
X12045858Y-8827858D01*
X12045858Y-8856142D01*
X12074142Y-8856142D01*
X12074142Y-9214142D02*
X12074142Y-9185858D01*
X12045858Y-9185858D01*
X12045858Y-9214142D01*
X12074142Y-9214142D01*
X12074142Y-10699142D02*
X12074142Y-10670858D01*
X12045858Y-10670858D01*
X12045858Y-10699142D01*
X12074142Y-10699142D01*
X12074142Y-11584142D02*
X12074142Y-11555858D01*
X12045858Y-11555858D01*
X12045858Y-11584142D01*
X12074142Y-11584142D01*
X12079142Y-8386142D02*
X12079142Y-8357858D01*
X12050858Y-8357858D01*
X12050858Y-8386142D01*
X12079142Y-8386142D01*
X12079142Y-8486142D02*
X12079142Y-8457858D01*
X12050858Y-8457858D01*
X12050858Y-8486142D01*
X12079142Y-8486142D01*
X12079142Y-8756142D02*
X12079142Y-8727858D01*
X12050858Y-8727858D01*
X12050858Y-8756142D01*
X12079142Y-8756142D01*
X12079142Y-10329142D02*
X12079142Y-10300858D01*
X12050858Y-10300858D01*
X12050858Y-10329142D01*
X12079142Y-10329142D01*
X12079142Y-10429142D02*
X12079142Y-10400858D01*
X12050858Y-10400858D01*
X12050858Y-10429142D01*
X12079142Y-10429142D01*
X12079142Y-10599142D02*
X12079142Y-10570858D01*
X12050858Y-10570858D01*
X12050858Y-10599142D01*
X12079142Y-10599142D01*
X12079142Y-11174142D02*
X12079142Y-11145858D01*
X12050858Y-11145858D01*
X12050858Y-11174142D01*
X12079142Y-11174142D01*
X12079142Y-11274142D02*
X12079142Y-11245858D01*
X12050858Y-11245858D01*
X12050858Y-11274142D01*
X12079142Y-11274142D01*
X12079142Y-11484142D02*
X12079142Y-11455858D01*
X12050858Y-11455858D01*
X12050858Y-11484142D01*
X12079142Y-11484142D01*
X12079142Y-11919142D02*
X12079142Y-11890858D01*
X12050858Y-11890858D01*
X12050858Y-11919142D01*
X12079142Y-11919142D01*
X12214142Y-9774142D02*
X12214142Y-9745858D01*
X12185858Y-9745858D01*
X12185858Y-9774142D01*
X12214142Y-9774142D01*
X12214142Y-10064142D02*
X12214142Y-10035858D01*
X12185858Y-10035858D01*
X12185858Y-10064142D01*
X12214142Y-10064142D01*
X12219142Y-10159142D02*
X12219142Y-10130858D01*
X12190858Y-10130858D01*
X12190858Y-10159142D01*
X12219142Y-10159142D01*
X12224142Y-8856142D02*
X12224142Y-8827858D01*
X12195858Y-8827858D01*
X12195858Y-8856142D01*
X12224142Y-8856142D01*
X12224142Y-9214142D02*
X12224142Y-9185858D01*
X12195858Y-9185858D01*
X12195858Y-9214142D01*
X12224142Y-9214142D01*
X12224142Y-10699142D02*
X12224142Y-10670858D01*
X12195858Y-10670858D01*
X12195858Y-10699142D01*
X12224142Y-10699142D01*
X12224142Y-11584142D02*
X12224142Y-11555858D01*
X12195858Y-11555858D01*
X12195858Y-11584142D01*
X12224142Y-11584142D01*
X12229142Y-8386142D02*
X12229142Y-8357858D01*
X12200858Y-8357858D01*
X12200858Y-8386142D01*
X12229142Y-8386142D01*
X12229142Y-8486142D02*
X12229142Y-8457858D01*
X12200858Y-8457858D01*
X12200858Y-8486142D01*
X12229142Y-8486142D01*
X12229142Y-8756142D02*
X12229142Y-8727858D01*
X12200858Y-8727858D01*
X12200858Y-8756142D01*
X12229142Y-8756142D01*
X12229142Y-10329142D02*
X12229142Y-10300858D01*
X12200858Y-10300858D01*
X12200858Y-10329142D01*
X12229142Y-10329142D01*
X12229142Y-10429142D02*
X12229142Y-10400858D01*
X12200858Y-10400858D01*
X12200858Y-10429142D01*
X12229142Y-10429142D01*
X12229142Y-10599142D02*
X12229142Y-10570858D01*
X12200858Y-10570858D01*
X12200858Y-10599142D01*
X12229142Y-10599142D01*
X12229142Y-11174142D02*
X12229142Y-11145858D01*
X12200858Y-11145858D01*
X12200858Y-11174142D01*
X12229142Y-11174142D01*
X12229142Y-11274142D02*
X12229142Y-11245858D01*
X12200858Y-11245858D01*
X12200858Y-11274142D01*
X12229142Y-11274142D01*
X12229142Y-11484142D02*
X12229142Y-11455858D01*
X12200858Y-11455858D01*
X12200858Y-11484142D01*
X12229142Y-11484142D01*
X12229142Y-11919142D02*
X12229142Y-11890858D01*
X12200858Y-11890858D01*
X12200858Y-11919142D01*
X12229142Y-11919142D01*
X12314142Y-9774142D02*
X12314142Y-9745858D01*
X12285858Y-9745858D01*
X12285858Y-9774142D01*
X12314142Y-9774142D01*
X12314142Y-10064142D02*
X12314142Y-10035858D01*
X12285858Y-10035858D01*
X12285858Y-10064142D01*
X12314142Y-10064142D01*
X12319142Y-10159142D02*
X12319142Y-10130858D01*
X12290858Y-10130858D01*
X12290858Y-10159142D01*
X12319142Y-10159142D01*
X12324142Y-8856142D02*
X12324142Y-8827858D01*
X12295858Y-8827858D01*
X12295858Y-8856142D01*
X12324142Y-8856142D01*
X12324142Y-9214142D02*
X12324142Y-9185858D01*
X12295858Y-9185858D01*
X12295858Y-9214142D01*
X12324142Y-9214142D01*
X12324142Y-10699142D02*
X12324142Y-10670858D01*
X12295858Y-10670858D01*
X12295858Y-10699142D01*
X12324142Y-10699142D01*
X12324142Y-11584142D02*
X12324142Y-11555858D01*
X12295858Y-11555858D01*
X12295858Y-11584142D01*
X12324142Y-11584142D01*
X12329142Y-8386142D02*
X12329142Y-8357858D01*
X12300858Y-8357858D01*
X12300858Y-8386142D01*
X12329142Y-8386142D01*
X12329142Y-8486142D02*
X12329142Y-8457858D01*
X12300858Y-8457858D01*
X12300858Y-8486142D01*
X12329142Y-8486142D01*
X12329142Y-8756142D02*
X12329142Y-8727858D01*
X12300858Y-8727858D01*
X12300858Y-8756142D01*
X12329142Y-8756142D01*
X12329142Y-10329142D02*
X12329142Y-10300858D01*
X12300858Y-10300858D01*
X12300858Y-10329142D01*
X12329142Y-10329142D01*
X12329142Y-10429142D02*
X12329142Y-10400858D01*
X12300858Y-10400858D01*
X12300858Y-10429142D01*
X12329142Y-10429142D01*
X12329142Y-10599142D02*
X12329142Y-10570858D01*
X12300858Y-10570858D01*
X12300858Y-10599142D01*
X12329142Y-10599142D01*
X12329142Y-11174142D02*
X12329142Y-11145858D01*
X12300858Y-11145858D01*
X12300858Y-11174142D01*
X12329142Y-11174142D01*
X12329142Y-11274142D02*
X12329142Y-11245858D01*
X12300858Y-11245858D01*
X12300858Y-11274142D01*
X12329142Y-11274142D01*
X12329142Y-11484142D02*
X12329142Y-11455858D01*
X12300858Y-11455858D01*
X12300858Y-11484142D01*
X12329142Y-11484142D01*
X12329142Y-11919142D02*
X12329142Y-11890858D01*
X12300858Y-11890858D01*
X12300858Y-11919142D01*
X12329142Y-11919142D01*
X13914142Y-10564142D02*
X13914142Y-10535858D01*
X13885858Y-10535858D01*
X13885858Y-10564142D01*
X13914142Y-10564142D01*
X14064142Y-11464142D02*
X14064142Y-11435858D01*
X14035858Y-11435858D01*
X14035858Y-11464142D01*
X14064142Y-11464142D01*
X14084142Y-6894142D02*
X14084142Y-6865858D01*
X14055858Y-6865858D01*
X14055858Y-6894142D01*
X14084142Y-6894142D01*
X14124142Y-7764142D02*
X14124142Y-7735858D01*
X14095858Y-7735858D01*
X14095858Y-7764142D01*
X14124142Y-7764142D01*
X14134142Y-8604142D02*
X14134142Y-8575858D01*
X14105858Y-8575858D01*
X14105858Y-8604142D01*
X14134142Y-8604142D01*
X14684142Y-7434142D02*
X14684142Y-7405858D01*
X14655858Y-7405858D01*
X14655858Y-7434142D01*
X14684142Y-7434142D01*
X14704142Y-10274142D02*
X14704142Y-10245858D01*
X14675858Y-10245858D01*
X14675858Y-10274142D01*
X14704142Y-10274142D01*
X14714142Y-9204142D02*
X14714142Y-9175858D01*
X14685858Y-9175858D01*
X14685858Y-9204142D01*
X14714142Y-9204142D01*
X14724142Y-11134142D02*
X14724142Y-11105858D01*
X14695858Y-11105858D01*
X14695858Y-11134142D01*
X14724142Y-11134142D01*
X14734142Y-8304142D02*
X14734142Y-8275858D01*
X14705858Y-8275858D01*
X14705858Y-8304142D01*
X14734142Y-8304142D01*
X14804142Y-12104142D02*
X14804142Y-12075858D01*
X14775858Y-12075858D01*
X14775858Y-12104142D01*
X14804142Y-12104142D01*
X15254142Y-9344142D02*
X15254142Y-9315858D01*
X15225858Y-9315858D01*
X15225858Y-9344142D01*
X15254142Y-9344142D01*
X15254142Y-9504142D02*
X15254142Y-9475858D01*
X15225858Y-9475858D01*
X15225858Y-9504142D01*
X15254142Y-9504142D01*
X15269142Y-9644142D02*
X15269142Y-9615858D01*
X15240858Y-9615858D01*
X15240858Y-9644142D01*
X15269142Y-9644142D01*
X15291970Y-10321022D02*
X15291970Y-10292737D01*
X15263686Y-10292737D01*
X15263686Y-10321022D01*
X15291970Y-10321022D01*
X15294142Y-9239092D02*
X15294142Y-9210808D01*
X15265858Y-9210808D01*
X15265858Y-9239092D01*
X15294142Y-9239092D01*
X15304142Y-8294142D02*
X15304142Y-8265858D01*
X15275858Y-8265858D01*
X15275858Y-8294142D01*
X15304142Y-8294142D01*
X15309142Y-11239142D02*
X15309142Y-11210858D01*
X15280858Y-11210858D01*
X15280858Y-11239142D01*
X15309142Y-11239142D01*
X15594142Y-9524142D02*
X15594142Y-9495858D01*
X15565858Y-9495858D01*
X15565858Y-9524142D01*
X15594142Y-9524142D01*
X15654142Y-11364142D02*
X15654142Y-11335858D01*
X15625858Y-11335858D01*
X15625858Y-11364142D01*
X15654142Y-11364142D01*
X15724142Y-7524142D02*
X15724142Y-7495858D01*
X15695858Y-7495858D01*
X15695858Y-7524142D01*
X15724142Y-7524142D01*
X15804142Y-8524142D02*
X15804142Y-8495858D01*
X15775858Y-8495858D01*
X15775858Y-8524142D01*
X15804142Y-8524142D01*
X15814142Y-9374142D02*
X15814142Y-9345858D01*
X15785858Y-9345858D01*
X15785858Y-9374142D01*
X15814142Y-9374142D01*
X15824142Y-11264142D02*
X15824142Y-11235858D01*
X15795858Y-11235858D01*
X15795858Y-11264142D01*
X15824142Y-11264142D01*
X15824142Y-11654142D02*
X15824142Y-11625858D01*
X15795858Y-11625858D01*
X15795858Y-11654142D01*
X15824142Y-11654142D01*
X15854142Y-8374142D02*
X15854142Y-8345858D01*
X15825858Y-8345858D01*
X15825858Y-8374142D01*
X15854142Y-8374142D01*
X15859385Y-10477116D02*
X15859385Y-10448831D01*
X15831100Y-10448831D01*
X15831100Y-10477116D01*
X15859385Y-10477116D01*
X15914142Y-10254142D02*
X15914142Y-10225858D01*
X15885858Y-10225858D01*
X15885858Y-10254142D01*
X15914142Y-10254142D01*
X15914142Y-11134142D02*
X15914142Y-11105858D01*
X15885858Y-11105858D01*
X15885858Y-11134142D01*
X15914142Y-11134142D01*
X15934142Y-8704142D02*
X15934142Y-8675858D01*
X15905858Y-8675858D01*
X15905858Y-8704142D01*
X15934142Y-8704142D01*
X15934142Y-10384142D02*
X15934142Y-10355858D01*
X15905858Y-10355858D01*
X15905858Y-10384142D01*
X15934142Y-10384142D01*
X15954142Y-9604142D02*
X15954142Y-9575858D01*
X15925858Y-9575858D01*
X15925858Y-9604142D01*
X15954142Y-9604142D01*
X16004142Y-11344142D02*
X16004142Y-11315858D01*
X15975858Y-11315858D01*
X15975858Y-11344142D01*
X16004142Y-11344142D01*
X16014142Y-7814142D02*
X16014142Y-7785858D01*
X15985858Y-7785858D01*
X15985858Y-7814142D01*
X16014142Y-7814142D01*
X16024142Y-7684142D02*
X16024142Y-7655858D01*
X15995858Y-7655858D01*
X15995858Y-7684142D01*
X16024142Y-7684142D01*
X16024142Y-8224142D02*
X16024142Y-8195858D01*
X15995858Y-8195858D01*
X15995858Y-8224142D01*
X16024142Y-8224142D01*
X16024142Y-10964142D02*
X16024142Y-10935858D01*
X15995858Y-10935858D01*
X15995858Y-10964142D01*
X16024142Y-10964142D01*
D15*
X8240000Y-7645000D02*
X8265000Y-7620000D01*
X8240000Y-7595000D01*
X8215000Y-7620000D01*
X8240000Y-7645000D01*
X8340000Y-7585000D02*
X8365000Y-7560000D01*
X8340000Y-7535000D01*
X8315000Y-7560000D01*
X8340000Y-7585000D01*
D16*
X7113000Y-13334500D02*
X7173000Y-13394500D01*
X7173000Y-13334500D02*
X7113000Y-13394500D01*
X7173000Y-13364500D02*
G75*
G03*
X7173000Y-13364500I-30000J0D01*
G01*
D11*
X7123000Y-13309500D02*
X7123000Y-13419500D01*
X7163000Y-13309500D02*
X7163000Y-13419500D01*
X7123000Y-13419500D02*
G75*
G03*
X7163000Y-13419500I20000J0D01*
G01*
X7163000Y-13309500D02*
G75*
G03*
X7123000Y-13309500I-20000J0D01*
G01*
D16*
X7113000Y-13752500D02*
X7173000Y-13812500D01*
X7173000Y-13752500D02*
X7113000Y-13812500D01*
X7173000Y-13782500D02*
G75*
G03*
X7173000Y-13782500I-30000J0D01*
G01*
D11*
X7123000Y-13752500D02*
X7123000Y-13812500D01*
X7163000Y-13752500D02*
X7163000Y-13812500D01*
X7123000Y-13812500D02*
G75*
G03*
X7163000Y-13812500I20000J0D01*
G01*
X7163000Y-13752500D02*
G75*
G03*
X7123000Y-13752500I-20000J0D01*
G01*
D16*
X7977000Y-13334500D02*
X8037000Y-13394500D01*
X8037000Y-13334500D02*
X7977000Y-13394500D01*
X8037000Y-13364500D02*
G75*
G03*
X8037000Y-13364500I-30000J0D01*
G01*
D11*
X7987000Y-13309500D02*
X7987000Y-13419500D01*
X8027000Y-13309500D02*
X8027000Y-13419500D01*
X7987000Y-13419500D02*
G75*
G03*
X8027000Y-13419500I20000J0D01*
G01*
X8027000Y-13309500D02*
G75*
G03*
X7987000Y-13309500I-20000J0D01*
G01*
D16*
X7977000Y-13752500D02*
X8037000Y-13812500D01*
X8037000Y-13752500D02*
X7977000Y-13812500D01*
X8037000Y-13782500D02*
G75*
G03*
X8037000Y-13782500I-30000J0D01*
G01*
D11*
X7987000Y-13752500D02*
X7987000Y-13812500D01*
X8027000Y-13752500D02*
X8027000Y-13812500D01*
X7987000Y-13812500D02*
G75*
G03*
X8027000Y-13812500I20000J0D01*
G01*
X8027000Y-13752500D02*
G75*
G03*
X7987000Y-13752500I-20000J0D01*
G01*
D16*
X8363000Y-13334500D02*
X8423000Y-13394500D01*
X8423000Y-13334500D02*
X8363000Y-13394500D01*
X8423000Y-13364500D02*
G75*
G03*
X8423000Y-13364500I-30000J0D01*
G01*
D11*
X8373000Y-13309500D02*
X8373000Y-13419500D01*
X8413000Y-13309500D02*
X8413000Y-13419500D01*
X8373000Y-13419500D02*
G75*
G03*
X8413000Y-13419500I20000J0D01*
G01*
X8413000Y-13309500D02*
G75*
G03*
X8373000Y-13309500I-20000J0D01*
G01*
D16*
X8363000Y-13752500D02*
X8423000Y-13812500D01*
X8423000Y-13752500D02*
X8363000Y-13812500D01*
X8423000Y-13782500D02*
G75*
G03*
X8423000Y-13782500I-30000J0D01*
G01*
D11*
X8373000Y-13752500D02*
X8373000Y-13812500D01*
X8413000Y-13752500D02*
X8413000Y-13812500D01*
X8373000Y-13812500D02*
G75*
G03*
X8413000Y-13812500I20000J0D01*
G01*
X8413000Y-13752500D02*
G75*
G03*
X8373000Y-13752500I-20000J0D01*
G01*
D16*
X9227000Y-13334500D02*
X9287000Y-13394500D01*
X9287000Y-13334500D02*
X9227000Y-13394500D01*
X9287000Y-13364500D02*
G75*
G03*
X9287000Y-13364500I-30000J0D01*
G01*
D11*
X9237000Y-13309500D02*
X9237000Y-13419500D01*
X9277000Y-13309500D02*
X9277000Y-13419500D01*
X9237000Y-13419500D02*
G75*
G03*
X9277000Y-13419500I20000J0D01*
G01*
X9277000Y-13309500D02*
G75*
G03*
X9237000Y-13309500I-20000J0D01*
G01*
D16*
X9227000Y-13752500D02*
X9287000Y-13812500D01*
X9287000Y-13752500D02*
X9227000Y-13812500D01*
X9287000Y-13782500D02*
G75*
G03*
X9287000Y-13782500I-30000J0D01*
G01*
D11*
X9237000Y-13752500D02*
X9237000Y-13812500D01*
X9277000Y-13752500D02*
X9277000Y-13812500D01*
X9237000Y-13812500D02*
G75*
G03*
X9277000Y-13812500I20000J0D01*
G01*
X9277000Y-13752500D02*
G75*
G03*
X9237000Y-13752500I-20000J0D01*
G01*
D17*
X11729200Y-13722200D02*
X11819200Y-13812200D01*
X11819200Y-13722200D02*
X11729200Y-13812200D01*
X11774200Y-13722200D02*
X11774200Y-13812200D01*
X11729200Y-13767200D02*
X11819200Y-13767200D01*
X11856200Y-13468200D02*
X11946200Y-13558200D01*
X11946200Y-13468200D02*
X11856200Y-13558200D01*
X11901200Y-13468200D02*
X11901200Y-13558200D01*
X11856200Y-13513200D02*
X11946200Y-13513200D01*
X11983200Y-13722200D02*
X12073200Y-13812200D01*
X12073200Y-13722200D02*
X11983200Y-13812200D01*
X12028200Y-13722200D02*
X12028200Y-13812200D01*
X11983200Y-13767200D02*
X12073200Y-13767200D01*
X12110200Y-13468200D02*
X12200200Y-13558200D01*
X12200200Y-13468200D02*
X12110200Y-13558200D01*
X12155200Y-13468200D02*
X12155200Y-13558200D01*
X12110200Y-13513200D02*
X12200200Y-13513200D01*
X12237200Y-13722200D02*
X12327200Y-13812200D01*
X12327200Y-13722200D02*
X12237200Y-13812200D01*
X12282200Y-13722200D02*
X12282200Y-13812200D01*
X12237200Y-13767200D02*
X12327200Y-13767200D01*
X12364200Y-13468200D02*
X12454200Y-13558200D01*
X12454200Y-13468200D02*
X12364200Y-13558200D01*
X12409200Y-13468200D02*
X12409200Y-13558200D01*
X12364200Y-13513200D02*
X12454200Y-13513200D01*
X12491200Y-13722200D02*
X12581200Y-13812200D01*
X12581200Y-13722200D02*
X12491200Y-13812200D01*
X12536200Y-13722200D02*
X12536200Y-13812200D01*
X12491200Y-13767200D02*
X12581200Y-13767200D01*
X12618200Y-13468200D02*
X12708200Y-13558200D01*
X12708200Y-13468200D02*
X12618200Y-13558200D01*
X12663200Y-13468200D02*
X12663200Y-13558200D01*
X12618200Y-13513200D02*
X12708200Y-13513200D01*
D18*
X6600500Y-9384500D02*
X6719500Y-9503500D01*
X6719500Y-9384500D02*
X6600500Y-9503500D01*
X6702073Y-9486073D02*
X6702073Y-9401927D01*
X6617927Y-9401927D01*
X6617927Y-9486073D01*
X6702073Y-9486073D01*
X6600500Y-9638500D02*
X6719500Y-9757500D01*
X6719500Y-9638500D02*
X6600500Y-9757500D01*
X6702073Y-9740073D02*
X6702073Y-9655927D01*
X6617927Y-9655927D01*
X6617927Y-9740073D01*
X6702073Y-9740073D01*
X6600500Y-9892500D02*
X6719500Y-10011500D01*
X6719500Y-9892500D02*
X6600500Y-10011500D01*
X6702073Y-9994073D02*
X6702073Y-9909927D01*
X6617927Y-9909927D01*
X6617927Y-9994073D01*
X6702073Y-9994073D01*
X6600500Y-10146500D02*
X6719500Y-10265500D01*
X6719500Y-10146500D02*
X6600500Y-10265500D01*
X6702073Y-10248073D02*
X6702073Y-10163927D01*
X6617927Y-10163927D01*
X6617927Y-10248073D01*
X6702073Y-10248073D01*
X6600500Y-10400500D02*
X6719500Y-10519500D01*
X6719500Y-10400500D02*
X6600500Y-10519500D01*
X6702073Y-10502073D02*
X6702073Y-10417927D01*
X6617927Y-10417927D01*
X6617927Y-10502073D01*
X6702073Y-10502073D01*
X6600500Y-10762500D02*
X6719500Y-10881500D01*
X6719500Y-10762500D02*
X6600500Y-10881500D01*
X6702073Y-10864073D02*
X6702073Y-10779927D01*
X6617927Y-10779927D01*
X6617927Y-10864073D01*
X6702073Y-10864073D01*
X6600500Y-11016500D02*
X6719500Y-11135500D01*
X6719500Y-11016500D02*
X6600500Y-11135500D01*
X6702073Y-11118073D02*
X6702073Y-11033927D01*
X6617927Y-11033927D01*
X6617927Y-11118073D01*
X6702073Y-11118073D01*
X6600500Y-11270500D02*
X6719500Y-11389500D01*
X6719500Y-11270500D02*
X6600500Y-11389500D01*
X6702073Y-11372073D02*
X6702073Y-11287927D01*
X6617927Y-11287927D01*
X6617927Y-11372073D01*
X6702073Y-11372073D01*
X6600500Y-11626500D02*
X6719500Y-11745500D01*
X6719500Y-11626500D02*
X6600500Y-11745500D01*
X6702073Y-11728073D02*
X6702073Y-11643927D01*
X6617927Y-11643927D01*
X6617927Y-11728073D01*
X6702073Y-11728073D01*
X6600500Y-11880500D02*
X6719500Y-11999500D01*
X6719500Y-11880500D02*
X6600500Y-11999500D01*
X6702073Y-11982073D02*
X6702073Y-11897927D01*
X6617927Y-11897927D01*
X6617927Y-11982073D01*
X6702073Y-11982073D01*
X6600500Y-12134500D02*
X6719500Y-12253500D01*
X6719500Y-12134500D02*
X6600500Y-12253500D01*
X6702073Y-12236073D02*
X6702073Y-12151927D01*
X6617927Y-12151927D01*
X6617927Y-12236073D01*
X6702073Y-12236073D01*
X6600500Y-12492500D02*
X6719500Y-12611500D01*
X6719500Y-12492500D02*
X6600500Y-12611500D01*
X6702073Y-12594073D02*
X6702073Y-12509927D01*
X6617927Y-12509927D01*
X6617927Y-12594073D01*
X6702073Y-12594073D01*
X6600500Y-12746500D02*
X6719500Y-12865500D01*
X6719500Y-12746500D02*
X6600500Y-12865500D01*
X6702073Y-12848073D02*
X6702073Y-12763927D01*
X6617927Y-12763927D01*
X6617927Y-12848073D01*
X6702073Y-12848073D01*
X6600500Y-13000500D02*
X6719500Y-13119500D01*
X6719500Y-13000500D02*
X6600500Y-13119500D01*
X6702073Y-13102073D02*
X6702073Y-13017927D01*
X6617927Y-13017927D01*
X6617927Y-13102073D01*
X6702073Y-13102073D01*
X7320500Y-6929500D02*
X7439500Y-7048500D01*
X7439500Y-6929500D02*
X7320500Y-7048500D01*
X7422073Y-7031073D02*
X7422073Y-6946927D01*
X7337927Y-6946927D01*
X7337927Y-7031073D01*
X7422073Y-7031073D01*
X7320500Y-7183500D02*
X7439500Y-7302500D01*
X7439500Y-7183500D02*
X7320500Y-7302500D01*
X7422073Y-7285073D02*
X7422073Y-7200927D01*
X7337927Y-7200927D01*
X7337927Y-7285073D01*
X7422073Y-7285073D01*
X7320500Y-7437500D02*
X7439500Y-7556500D01*
X7439500Y-7437500D02*
X7320500Y-7556500D01*
X7422073Y-7539073D02*
X7422073Y-7454927D01*
X7337927Y-7454927D01*
X7337927Y-7539073D01*
X7422073Y-7539073D01*
X7320500Y-7691500D02*
X7439500Y-7810500D01*
X7439500Y-7691500D02*
X7320500Y-7810500D01*
X7422073Y-7793073D02*
X7422073Y-7708927D01*
X7337927Y-7708927D01*
X7337927Y-7793073D01*
X7422073Y-7793073D01*
X7320500Y-7945500D02*
X7439500Y-8064500D01*
X7439500Y-7945500D02*
X7320500Y-8064500D01*
X7422073Y-8047073D02*
X7422073Y-7962927D01*
X7337927Y-7962927D01*
X7337927Y-8047073D01*
X7422073Y-8047073D01*
X7320500Y-8304500D02*
X7439500Y-8423500D01*
X7439500Y-8304500D02*
X7320500Y-8423500D01*
X7422073Y-8406073D02*
X7422073Y-8321927D01*
X7337927Y-8321927D01*
X7337927Y-8406073D01*
X7422073Y-8406073D01*
X7320500Y-8558500D02*
X7439500Y-8677500D01*
X7439500Y-8558500D02*
X7320500Y-8677500D01*
X7422073Y-8660073D02*
X7422073Y-8575927D01*
X7337927Y-8575927D01*
X7337927Y-8660073D01*
X7422073Y-8660073D01*
X7320500Y-8812500D02*
X7439500Y-8931500D01*
X7439500Y-8812500D02*
X7320500Y-8931500D01*
X7422073Y-8914073D02*
X7422073Y-8829927D01*
X7337927Y-8829927D01*
X7337927Y-8914073D01*
X7422073Y-8914073D01*
X7320500Y-9066500D02*
X7439500Y-9185500D01*
X7439500Y-9066500D02*
X7320500Y-9185500D01*
X7422073Y-9168073D02*
X7422073Y-9083927D01*
X7337927Y-9083927D01*
X7337927Y-9168073D01*
X7422073Y-9168073D01*
X7320500Y-9320500D02*
X7439500Y-9439500D01*
X7439500Y-9320500D02*
X7320500Y-9439500D01*
X7422073Y-9422073D02*
X7422073Y-9337927D01*
X7337927Y-9337927D01*
X7337927Y-9422073D01*
X7422073Y-9422073D01*
X7320500Y-9677500D02*
X7439500Y-9796500D01*
X7439500Y-9677500D02*
X7320500Y-9796500D01*
X7422073Y-9779073D02*
X7422073Y-9694927D01*
X7337927Y-9694927D01*
X7337927Y-9779073D01*
X7422073Y-9779073D01*
X7320500Y-9931500D02*
X7439500Y-10050500D01*
X7439500Y-9931500D02*
X7320500Y-10050500D01*
X7422073Y-10033073D02*
X7422073Y-9948927D01*
X7337927Y-9948927D01*
X7337927Y-10033073D01*
X7422073Y-10033073D01*
X7320500Y-10185500D02*
X7439500Y-10304500D01*
X7439500Y-10185500D02*
X7320500Y-10304500D01*
X7422073Y-10287073D02*
X7422073Y-10202927D01*
X7337927Y-10202927D01*
X7337927Y-10287073D01*
X7422073Y-10287073D01*
X7645500Y-10549500D02*
X7764500Y-10668500D01*
X7764500Y-10549500D02*
X7645500Y-10668500D01*
X7747073Y-10651073D02*
X7747073Y-10566927D01*
X7662927Y-10566927D01*
X7662927Y-10651073D01*
X7747073Y-10651073D01*
X7645500Y-10803500D02*
X7764500Y-10922500D01*
X7764500Y-10803500D02*
X7645500Y-10922500D01*
X7747073Y-10905073D02*
X7747073Y-10820927D01*
X7662927Y-10820927D01*
X7662927Y-10905073D01*
X7747073Y-10905073D01*
X7645500Y-11057500D02*
X7764500Y-11176500D01*
X7764500Y-11057500D02*
X7645500Y-11176500D01*
X7747073Y-11159073D02*
X7747073Y-11074927D01*
X7662927Y-11074927D01*
X7662927Y-11159073D01*
X7747073Y-11159073D01*
X7645500Y-11311500D02*
X7764500Y-11430500D01*
X7764500Y-11311500D02*
X7645500Y-11430500D01*
X7747073Y-11413073D02*
X7747073Y-11328927D01*
X7662927Y-11328927D01*
X7662927Y-11413073D01*
X7747073Y-11413073D01*
X8033700Y-7794100D02*
X8152700Y-7913100D01*
X8152700Y-7794100D02*
X8033700Y-7913100D01*
X8135273Y-7895673D02*
X8135273Y-7811527D01*
X8051127Y-7811527D01*
X8051127Y-7895673D01*
X8135273Y-7895673D01*
X8033700Y-8048100D02*
X8152700Y-8167100D01*
X8152700Y-8048100D02*
X8033700Y-8167100D01*
X8135273Y-8149673D02*
X8135273Y-8065527D01*
X8051127Y-8065527D01*
X8051127Y-8149673D01*
X8135273Y-8149673D01*
X8033700Y-8302100D02*
X8152700Y-8421100D01*
X8152700Y-8302100D02*
X8033700Y-8421100D01*
X8135273Y-8403673D02*
X8135273Y-8319527D01*
X8051127Y-8319527D01*
X8051127Y-8403673D01*
X8135273Y-8403673D01*
X8033700Y-8556100D02*
X8152700Y-8675100D01*
X8152700Y-8556100D02*
X8033700Y-8675100D01*
X8135273Y-8657673D02*
X8135273Y-8573527D01*
X8051127Y-8573527D01*
X8051127Y-8657673D01*
X8135273Y-8657673D01*
X8033700Y-8810100D02*
X8152700Y-8929100D01*
X8152700Y-8810100D02*
X8033700Y-8929100D01*
X8135273Y-8911673D02*
X8135273Y-8827527D01*
X8051127Y-8827527D01*
X8051127Y-8911673D01*
X8135273Y-8911673D01*
X8033700Y-9064100D02*
X8152700Y-9183100D01*
X8152700Y-9064100D02*
X8033700Y-9183100D01*
X8135273Y-9165673D02*
X8135273Y-9081527D01*
X8051127Y-9081527D01*
X8051127Y-9165673D01*
X8135273Y-9165673D01*
X9739200Y-12495500D02*
X9858200Y-12614500D01*
X9858200Y-12495500D02*
X9739200Y-12614500D01*
X9840773Y-12597073D02*
X9840773Y-12512927D01*
X9756627Y-12512927D01*
X9756627Y-12597073D01*
X9840773Y-12597073D01*
X9773700Y-13465700D02*
X9892700Y-13584700D01*
X9892700Y-13465700D02*
X9773700Y-13584700D01*
X9875273Y-13567273D02*
X9875273Y-13483127D01*
X9791127Y-13483127D01*
X9791127Y-13567273D01*
X9875273Y-13567273D01*
X9993200Y-12495500D02*
X10112200Y-12614500D01*
X10112200Y-12495500D02*
X9993200Y-12614500D01*
X10094773Y-12597073D02*
X10094773Y-12512927D01*
X10010627Y-12512927D01*
X10010627Y-12597073D01*
X10094773Y-12597073D01*
X10027700Y-13465700D02*
X10146700Y-13584700D01*
X10146700Y-13465700D02*
X10027700Y-13584700D01*
X10129273Y-13567273D02*
X10129273Y-13483127D01*
X10045127Y-13483127D01*
X10045127Y-13567273D01*
X10129273Y-13567273D01*
X10281700Y-13465700D02*
X10400700Y-13584700D01*
X10400700Y-13465700D02*
X10281700Y-13584700D01*
X10383273Y-13567273D02*
X10383273Y-13483127D01*
X10299127Y-13483127D01*
X10299127Y-13567273D01*
X10383273Y-13567273D01*
X10375700Y-12495500D02*
X10494700Y-12614500D01*
X10494700Y-12495500D02*
X10375700Y-12614500D01*
X10477273Y-12597073D02*
X10477273Y-12512927D01*
X10393127Y-12512927D01*
X10393127Y-12597073D01*
X10477273Y-12597073D01*
X10535700Y-13465700D02*
X10654700Y-13584700D01*
X10654700Y-13465700D02*
X10535700Y-13584700D01*
X10637273Y-13567273D02*
X10637273Y-13483127D01*
X10553127Y-13483127D01*
X10553127Y-13567273D01*
X10637273Y-13567273D01*
X10629700Y-12495500D02*
X10748700Y-12614500D01*
X10748700Y-12495500D02*
X10629700Y-12614500D01*
X10731273Y-12597073D02*
X10731273Y-12512927D01*
X10647127Y-12512927D01*
X10647127Y-12597073D01*
X10731273Y-12597073D01*
X10789700Y-13465700D02*
X10908700Y-13584700D01*
X10908700Y-13465700D02*
X10789700Y-13584700D01*
X10891273Y-13567273D02*
X10891273Y-13483127D01*
X10807127Y-13483127D01*
X10807127Y-13567273D01*
X10891273Y-13567273D01*
X10883700Y-12495500D02*
X11002700Y-12614500D01*
X11002700Y-12495500D02*
X10883700Y-12614500D01*
X10985273Y-12597073D02*
X10985273Y-12512927D01*
X10901127Y-12512927D01*
X10901127Y-12597073D01*
X10985273Y-12597073D01*
X11043700Y-13465700D02*
X11162700Y-13584700D01*
X11162700Y-13465700D02*
X11043700Y-13584700D01*
X11145273Y-13567273D02*
X11145273Y-13483127D01*
X11061127Y-13483127D01*
X11061127Y-13567273D01*
X11145273Y-13567273D01*
X11137700Y-12495500D02*
X11256700Y-12614500D01*
X11256700Y-12495500D02*
X11137700Y-12614500D01*
X11239273Y-12597073D02*
X11239273Y-12512927D01*
X11155127Y-12512927D01*
X11155127Y-12597073D01*
X11239273Y-12597073D01*
D19*
X14780000Y-6960000D02*
X15130000Y-7310000D01*
X15130000Y-6960000D02*
X14780000Y-7310000D01*
X14955000Y-7310000D02*
X15130000Y-7135000D01*
X14955000Y-6960000D01*
X14780000Y-7135000D01*
X14955000Y-7310000D01*
X14860000Y-11555000D02*
X15210000Y-11905000D01*
X15210000Y-11555000D02*
X14860000Y-11905000D01*
X15035000Y-11905000D02*
X15210000Y-11730000D01*
X15035000Y-11555000D01*
X14860000Y-11730000D01*
X15035000Y-11905000D01*
X15370000Y-9710000D02*
X15720000Y-10060000D01*
X15720000Y-9710000D02*
X15370000Y-10060000D01*
X15545000Y-10060000D02*
X15720000Y-9885000D01*
X15545000Y-9710000D01*
X15370000Y-9885000D01*
X15545000Y-10060000D01*
X15375000Y-8685000D02*
X15725000Y-9035000D01*
X15725000Y-8685000D02*
X15375000Y-9035000D01*
X15550000Y-9035000D02*
X15725000Y-8860000D01*
X15550000Y-8685000D01*
X15375000Y-8860000D01*
X15550000Y-9035000D01*
X15400000Y-7795000D02*
X15750000Y-8145000D01*
X15750000Y-7795000D02*
X15400000Y-8145000D01*
X15575000Y-8145000D02*
X15750000Y-7970000D01*
X15575000Y-7795000D01*
X15400000Y-7970000D01*
X15575000Y-8145000D01*
X15400000Y-10680000D02*
X15750000Y-11030000D01*
X15750000Y-10680000D02*
X15400000Y-11030000D01*
X15575000Y-11030000D02*
X15750000Y-10855000D01*
X15575000Y-10680000D01*
X15400000Y-10855000D01*
X15575000Y-11030000D01*
D20*
X6630000Y-6960000D02*
X6630000Y-7350000D01*
X6435000Y-7155000D02*
X6825000Y-7155000D01*
X6825000Y-7155000D02*
G75*
G03*
X6825000Y-7155000I-195000J0D01*
G01*
X6630000Y-13375000D02*
X6630000Y-13765000D01*
X6435000Y-13570000D02*
X6825000Y-13570000D01*
X6825000Y-13570000D02*
G75*
G03*
X6825000Y-13570000I-195000J0D01*
G01*
X15795000Y-6960000D02*
X15795000Y-7350000D01*
X15600000Y-7155000D02*
X15990000Y-7155000D01*
X15990000Y-7155000D02*
G75*
G03*
X15990000Y-7155000I-195000J0D01*
G01*
X15795000Y-13375000D02*
X15795000Y-13765000D01*
X15600000Y-13570000D02*
X15990000Y-13570000D01*
X15990000Y-13570000D02*
G75*
G03*
X15990000Y-13570000I-195000J0D01*
G01*
D21*
X12176423Y-7441423D02*
X12176423Y-7158577D01*
X11893577Y-7158577D01*
X11893577Y-7441423D01*
X12176423Y-7441423D01*
X12235000Y-7300000D02*
G75*
G03*
X12235000Y-7300000I-200000J0D01*
G01*
X12951423Y-7441423D02*
X12951423Y-7158577D01*
X12668577Y-7158577D01*
X12668577Y-7441423D01*
X12951423Y-7441423D01*
X13010000Y-7300000D02*
G75*
G03*
X13010000Y-7300000I-200000J0D01*
G01*
D11*
X6530119Y-14237976D02*
X6530119Y-14037976D01*
X6577738Y-14037976D01*
X6606309Y-14047500D01*
X6625357Y-14066548D01*
X6634881Y-14085595D01*
X6644405Y-14123690D01*
X6644405Y-14152262D01*
X6634881Y-14190357D01*
X6625357Y-14209405D01*
X6606309Y-14228452D01*
X6577738Y-14237976D01*
X6530119Y-14237976D01*
X6730119Y-14237976D02*
X6730119Y-14104643D01*
X6730119Y-14142738D02*
X6739643Y-14123690D01*
X6749167Y-14114167D01*
X6768214Y-14104643D01*
X6787262Y-14104643D01*
X6853928Y-14237976D02*
X6853928Y-14104643D01*
X6853928Y-14037976D02*
X6844405Y-14047500D01*
X6853928Y-14057024D01*
X6863452Y-14047500D01*
X6853928Y-14037976D01*
X6853928Y-14057024D01*
X6977738Y-14237976D02*
X6958690Y-14228452D01*
X6949167Y-14209405D01*
X6949167Y-14037976D01*
X7082500Y-14237976D02*
X7063452Y-14228452D01*
X7053928Y-14209405D01*
X7053928Y-14037976D01*
X7311071Y-14237976D02*
X7311071Y-14037976D01*
X7377738Y-14180833D01*
X7444405Y-14037976D01*
X7444405Y-14237976D01*
X7625357Y-14237976D02*
X7625357Y-14133214D01*
X7615833Y-14114167D01*
X7596786Y-14104643D01*
X7558690Y-14104643D01*
X7539643Y-14114167D01*
X7625357Y-14228452D02*
X7606309Y-14237976D01*
X7558690Y-14237976D01*
X7539643Y-14228452D01*
X7530119Y-14209405D01*
X7530119Y-14190357D01*
X7539643Y-14171309D01*
X7558690Y-14161786D01*
X7606309Y-14161786D01*
X7625357Y-14152262D01*
X7720595Y-14104643D02*
X7720595Y-14304643D01*
X7720595Y-14114167D02*
X7739643Y-14104643D01*
X7777738Y-14104643D01*
X7796786Y-14114167D01*
X7806309Y-14123690D01*
X7815833Y-14142738D01*
X7815833Y-14199881D01*
X7806309Y-14218928D01*
X7796786Y-14228452D01*
X7777738Y-14237976D01*
X7739643Y-14237976D01*
X7720595Y-14228452D01*
X7901548Y-14218928D02*
X7911071Y-14228452D01*
X7901548Y-14237976D01*
X7892024Y-14228452D01*
X7901548Y-14218928D01*
X7901548Y-14237976D01*
X7901548Y-14114167D02*
X7911071Y-14123690D01*
X7901548Y-14133214D01*
X7892024Y-14123690D01*
X7901548Y-14114167D01*
X7901548Y-14133214D01*
D12*
X6252500Y-14557500D02*
X6272500Y-14577500D01*
X6272500Y-14557500D02*
X6252500Y-14577500D01*
D11*
X6568214Y-14457976D02*
X6587262Y-14457976D01*
X6606309Y-14467500D01*
X6615833Y-14477024D01*
X6625357Y-14496071D01*
X6634881Y-14534167D01*
X6634881Y-14581786D01*
X6625357Y-14619881D01*
X6615833Y-14638928D01*
X6606309Y-14648452D01*
X6587262Y-14657976D01*
X6568214Y-14657976D01*
X6549167Y-14648452D01*
X6539643Y-14638928D01*
X6530119Y-14619881D01*
X6520595Y-14581786D01*
X6520595Y-14534167D01*
X6530119Y-14496071D01*
X6539643Y-14477024D01*
X6549167Y-14467500D01*
X6568214Y-14457976D01*
X6720595Y-14638928D02*
X6730119Y-14648452D01*
X6720595Y-14657976D01*
X6711071Y-14648452D01*
X6720595Y-14638928D01*
X6720595Y-14657976D01*
X6806309Y-14477024D02*
X6815833Y-14467500D01*
X6834881Y-14457976D01*
X6882500Y-14457976D01*
X6901548Y-14467500D01*
X6911071Y-14477024D01*
X6920595Y-14496071D01*
X6920595Y-14515119D01*
X6911071Y-14543690D01*
X6796786Y-14657976D01*
X6920595Y-14657976D01*
X7044405Y-14457976D02*
X7063452Y-14457976D01*
X7082500Y-14467500D01*
X7092024Y-14477024D01*
X7101548Y-14496071D01*
X7111071Y-14534167D01*
X7111071Y-14581786D01*
X7101548Y-14619881D01*
X7092024Y-14638928D01*
X7082500Y-14648452D01*
X7063452Y-14657976D01*
X7044405Y-14657976D01*
X7025357Y-14648452D01*
X7015833Y-14638928D01*
X7006309Y-14619881D01*
X6996786Y-14581786D01*
X6996786Y-14534167D01*
X7006309Y-14496071D01*
X7015833Y-14477024D01*
X7025357Y-14467500D01*
X7044405Y-14457976D01*
X7234881Y-14457976D02*
X7253928Y-14457976D01*
X7272976Y-14467500D01*
X7282500Y-14477024D01*
X7292024Y-14496071D01*
X7301548Y-14534167D01*
X7301548Y-14581786D01*
X7292024Y-14619881D01*
X7282500Y-14638928D01*
X7272976Y-14648452D01*
X7253928Y-14657976D01*
X7234881Y-14657976D01*
X7215833Y-14648452D01*
X7206309Y-14638928D01*
X7196786Y-14619881D01*
X7187262Y-14581786D01*
X7187262Y-14534167D01*
X7196786Y-14496071D01*
X7206309Y-14477024D01*
X7215833Y-14467500D01*
X7234881Y-14457976D01*
X7387262Y-14657976D02*
X7387262Y-14524643D01*
X7387262Y-14543690D02*
X7396786Y-14534167D01*
X7415833Y-14524643D01*
X7444405Y-14524643D01*
X7463452Y-14534167D01*
X7472976Y-14553214D01*
X7472976Y-14657976D01*
X7472976Y-14553214D02*
X7482500Y-14534167D01*
X7501548Y-14524643D01*
X7530119Y-14524643D01*
X7549167Y-14534167D01*
X7558690Y-14553214D01*
X7558690Y-14657976D01*
X7653928Y-14657976D02*
X7653928Y-14524643D01*
X7653928Y-14543690D02*
X7663452Y-14534167D01*
X7682500Y-14524643D01*
X7711071Y-14524643D01*
X7730119Y-14534167D01*
X7739643Y-14553214D01*
X7739643Y-14657976D01*
X7739643Y-14553214D02*
X7749167Y-14534167D01*
X7768214Y-14524643D01*
X7796786Y-14524643D01*
X7815833Y-14534167D01*
X7825357Y-14553214D01*
X7825357Y-14657976D01*
X8215833Y-14448452D02*
X8044405Y-14705595D01*
X8472976Y-14457976D02*
X8492024Y-14457976D01*
X8511071Y-14467500D01*
X8520595Y-14477024D01*
X8530119Y-14496071D01*
X8539643Y-14534167D01*
X8539643Y-14581786D01*
X8530119Y-14619881D01*
X8520595Y-14638928D01*
X8511071Y-14648452D01*
X8492024Y-14657976D01*
X8472976Y-14657976D01*
X8453929Y-14648452D01*
X8444405Y-14638928D01*
X8434881Y-14619881D01*
X8425357Y-14581786D01*
X8425357Y-14534167D01*
X8434881Y-14496071D01*
X8444405Y-14477024D01*
X8453929Y-14467500D01*
X8472976Y-14457976D01*
X8625357Y-14638928D02*
X8634881Y-14648452D01*
X8625357Y-14657976D01*
X8615833Y-14648452D01*
X8625357Y-14638928D01*
X8625357Y-14657976D01*
X8758690Y-14457976D02*
X8777738Y-14457976D01*
X8796786Y-14467500D01*
X8806310Y-14477024D01*
X8815833Y-14496071D01*
X8825357Y-14534167D01*
X8825357Y-14581786D01*
X8815833Y-14619881D01*
X8806310Y-14638928D01*
X8796786Y-14648452D01*
X8777738Y-14657976D01*
X8758690Y-14657976D01*
X8739643Y-14648452D01*
X8730119Y-14638928D01*
X8720595Y-14619881D01*
X8711071Y-14581786D01*
X8711071Y-14534167D01*
X8720595Y-14496071D01*
X8730119Y-14477024D01*
X8739643Y-14467500D01*
X8758690Y-14457976D01*
X8949167Y-14457976D02*
X8968214Y-14457976D01*
X8987262Y-14467500D01*
X8996786Y-14477024D01*
X9006310Y-14496071D01*
X9015833Y-14534167D01*
X9015833Y-14581786D01*
X9006310Y-14619881D01*
X8996786Y-14638928D01*
X8987262Y-14648452D01*
X8968214Y-14657976D01*
X8949167Y-14657976D01*
X8930119Y-14648452D01*
X8920595Y-14638928D01*
X8911071Y-14619881D01*
X8901548Y-14581786D01*
X8901548Y-14534167D01*
X8911071Y-14496071D01*
X8920595Y-14477024D01*
X8930119Y-14467500D01*
X8949167Y-14457976D01*
X9082500Y-14457976D02*
X9215833Y-14457976D01*
X9130119Y-14657976D01*
X9301548Y-14657976D02*
X9339643Y-14657976D01*
X9358690Y-14648452D01*
X9368214Y-14638928D01*
X9387262Y-14610357D01*
X9396786Y-14572262D01*
X9396786Y-14496071D01*
X9387262Y-14477024D01*
X9377738Y-14467500D01*
X9358690Y-14457976D01*
X9320595Y-14457976D01*
X9301548Y-14467500D01*
X9292024Y-14477024D01*
X9282500Y-14496071D01*
X9282500Y-14543690D01*
X9292024Y-14562738D01*
X9301548Y-14572262D01*
X9320595Y-14581786D01*
X9358690Y-14581786D01*
X9377738Y-14572262D01*
X9387262Y-14562738D01*
X9396786Y-14543690D01*
X9472976Y-14457976D02*
X9472976Y-14496071D01*
X9549167Y-14457976D02*
X9549167Y-14496071D01*
X9844405Y-14734167D02*
X9834881Y-14724643D01*
X9815833Y-14696071D01*
X9806310Y-14677024D01*
X9796786Y-14648452D01*
X9787262Y-14600833D01*
X9787262Y-14562738D01*
X9796786Y-14515119D01*
X9806310Y-14486548D01*
X9815833Y-14467500D01*
X9834881Y-14438928D01*
X9844405Y-14429405D01*
X9901548Y-14457976D02*
X10034881Y-14457976D01*
X9949167Y-14657976D01*
X10149167Y-14457976D02*
X10168214Y-14457976D01*
X10187262Y-14467500D01*
X10196786Y-14477024D01*
X10206310Y-14496071D01*
X10215833Y-14534167D01*
X10215833Y-14581786D01*
X10206310Y-14619881D01*
X10196786Y-14638928D01*
X10187262Y-14648452D01*
X10168214Y-14657976D01*
X10149167Y-14657976D01*
X10130119Y-14648452D01*
X10120595Y-14638928D01*
X10111071Y-14619881D01*
X10101548Y-14581786D01*
X10101548Y-14534167D01*
X10111071Y-14496071D01*
X10120595Y-14477024D01*
X10130119Y-14467500D01*
X10149167Y-14457976D01*
X10330119Y-14543690D02*
X10311071Y-14534167D01*
X10301548Y-14524643D01*
X10292024Y-14505595D01*
X10292024Y-14496071D01*
X10301548Y-14477024D01*
X10311071Y-14467500D01*
X10330119Y-14457976D01*
X10368214Y-14457976D01*
X10387262Y-14467500D01*
X10396786Y-14477024D01*
X10406310Y-14496071D01*
X10406310Y-14505595D01*
X10396786Y-14524643D01*
X10387262Y-14534167D01*
X10368214Y-14543690D01*
X10330119Y-14543690D01*
X10311071Y-14553214D01*
X10301548Y-14562738D01*
X10292024Y-14581786D01*
X10292024Y-14619881D01*
X10301548Y-14638928D01*
X10311071Y-14648452D01*
X10330119Y-14657976D01*
X10368214Y-14657976D01*
X10387262Y-14648452D01*
X10396786Y-14638928D01*
X10406310Y-14619881D01*
X10406310Y-14581786D01*
X10396786Y-14562738D01*
X10387262Y-14553214D01*
X10368214Y-14543690D01*
X10644405Y-14657976D02*
X10644405Y-14457976D01*
X10730119Y-14657976D02*
X10730119Y-14553214D01*
X10720595Y-14534167D01*
X10701548Y-14524643D01*
X10672976Y-14524643D01*
X10653929Y-14534167D01*
X10644405Y-14543690D01*
X10853929Y-14657976D02*
X10834881Y-14648452D01*
X10825357Y-14638928D01*
X10815833Y-14619881D01*
X10815833Y-14562738D01*
X10825357Y-14543690D01*
X10834881Y-14534167D01*
X10853929Y-14524643D01*
X10882500Y-14524643D01*
X10901548Y-14534167D01*
X10911071Y-14543690D01*
X10920595Y-14562738D01*
X10920595Y-14619881D01*
X10911071Y-14638928D01*
X10901548Y-14648452D01*
X10882500Y-14657976D01*
X10853929Y-14657976D01*
X11034881Y-14657976D02*
X11015833Y-14648452D01*
X11006310Y-14629405D01*
X11006310Y-14457976D01*
X11187262Y-14648452D02*
X11168214Y-14657976D01*
X11130119Y-14657976D01*
X11111071Y-14648452D01*
X11101548Y-14629405D01*
X11101548Y-14553214D01*
X11111071Y-14534167D01*
X11130119Y-14524643D01*
X11168214Y-14524643D01*
X11187262Y-14534167D01*
X11196786Y-14553214D01*
X11196786Y-14572262D01*
X11101548Y-14591309D01*
X11272976Y-14648452D02*
X11292024Y-14657976D01*
X11330119Y-14657976D01*
X11349167Y-14648452D01*
X11358690Y-14629405D01*
X11358690Y-14619881D01*
X11349167Y-14600833D01*
X11330119Y-14591309D01*
X11301548Y-14591309D01*
X11282500Y-14581786D01*
X11272976Y-14562738D01*
X11272976Y-14553214D01*
X11282500Y-14534167D01*
X11301548Y-14524643D01*
X11330119Y-14524643D01*
X11349167Y-14534167D01*
X11425357Y-14734167D02*
X11434881Y-14724643D01*
X11453928Y-14696071D01*
X11463452Y-14677024D01*
X11472976Y-14648452D01*
X11482500Y-14600833D01*
X11482500Y-14562738D01*
X11472976Y-14515119D01*
X11463452Y-14486548D01*
X11453928Y-14467500D01*
X11434881Y-14438928D01*
X11425357Y-14429405D01*
D12*
X6272500Y-14831500D02*
G75*
G03*
X6272500Y-14831500I-10000J0D01*
G01*
D11*
X6568214Y-14721976D02*
X6587262Y-14721976D01*
X6606309Y-14731500D01*
X6615833Y-14741024D01*
X6625357Y-14760071D01*
X6634881Y-14798167D01*
X6634881Y-14845786D01*
X6625357Y-14883881D01*
X6615833Y-14902928D01*
X6606309Y-14912452D01*
X6587262Y-14921976D01*
X6568214Y-14921976D01*
X6549167Y-14912452D01*
X6539643Y-14902928D01*
X6530119Y-14883881D01*
X6520595Y-14845786D01*
X6520595Y-14798167D01*
X6530119Y-14760071D01*
X6539643Y-14741024D01*
X6549167Y-14731500D01*
X6568214Y-14721976D01*
X6720595Y-14902928D02*
X6730119Y-14912452D01*
X6720595Y-14921976D01*
X6711071Y-14912452D01*
X6720595Y-14902928D01*
X6720595Y-14921976D01*
X6806309Y-14741024D02*
X6815833Y-14731500D01*
X6834881Y-14721976D01*
X6882500Y-14721976D01*
X6901548Y-14731500D01*
X6911071Y-14741024D01*
X6920595Y-14760071D01*
X6920595Y-14779119D01*
X6911071Y-14807690D01*
X6796786Y-14921976D01*
X6920595Y-14921976D01*
X7044405Y-14721976D02*
X7063452Y-14721976D01*
X7082500Y-14731500D01*
X7092024Y-14741024D01*
X7101548Y-14760071D01*
X7111071Y-14798167D01*
X7111071Y-14845786D01*
X7101548Y-14883881D01*
X7092024Y-14902928D01*
X7082500Y-14912452D01*
X7063452Y-14921976D01*
X7044405Y-14921976D01*
X7025357Y-14912452D01*
X7015833Y-14902928D01*
X7006309Y-14883881D01*
X6996786Y-14845786D01*
X6996786Y-14798167D01*
X7006309Y-14760071D01*
X7015833Y-14741024D01*
X7025357Y-14731500D01*
X7044405Y-14721976D01*
X7234881Y-14721976D02*
X7253928Y-14721976D01*
X7272976Y-14731500D01*
X7282500Y-14741024D01*
X7292024Y-14760071D01*
X7301548Y-14798167D01*
X7301548Y-14845786D01*
X7292024Y-14883881D01*
X7282500Y-14902928D01*
X7272976Y-14912452D01*
X7253928Y-14921976D01*
X7234881Y-14921976D01*
X7215833Y-14912452D01*
X7206309Y-14902928D01*
X7196786Y-14883881D01*
X7187262Y-14845786D01*
X7187262Y-14798167D01*
X7196786Y-14760071D01*
X7206309Y-14741024D01*
X7215833Y-14731500D01*
X7234881Y-14721976D01*
X7387262Y-14921976D02*
X7387262Y-14788643D01*
X7387262Y-14807690D02*
X7396786Y-14798167D01*
X7415833Y-14788643D01*
X7444405Y-14788643D01*
X7463452Y-14798167D01*
X7472976Y-14817214D01*
X7472976Y-14921976D01*
X7472976Y-14817214D02*
X7482500Y-14798167D01*
X7501548Y-14788643D01*
X7530119Y-14788643D01*
X7549167Y-14798167D01*
X7558690Y-14817214D01*
X7558690Y-14921976D01*
X7653928Y-14921976D02*
X7653928Y-14788643D01*
X7653928Y-14807690D02*
X7663452Y-14798167D01*
X7682500Y-14788643D01*
X7711071Y-14788643D01*
X7730119Y-14798167D01*
X7739643Y-14817214D01*
X7739643Y-14921976D01*
X7739643Y-14817214D02*
X7749167Y-14798167D01*
X7768214Y-14788643D01*
X7796786Y-14788643D01*
X7815833Y-14798167D01*
X7825357Y-14817214D01*
X7825357Y-14921976D01*
X8215833Y-14712452D02*
X8044405Y-14969595D01*
X8472976Y-14721976D02*
X8492024Y-14721976D01*
X8511071Y-14731500D01*
X8520595Y-14741024D01*
X8530119Y-14760071D01*
X8539643Y-14798167D01*
X8539643Y-14845786D01*
X8530119Y-14883881D01*
X8520595Y-14902928D01*
X8511071Y-14912452D01*
X8492024Y-14921976D01*
X8472976Y-14921976D01*
X8453929Y-14912452D01*
X8444405Y-14902928D01*
X8434881Y-14883881D01*
X8425357Y-14845786D01*
X8425357Y-14798167D01*
X8434881Y-14760071D01*
X8444405Y-14741024D01*
X8453929Y-14731500D01*
X8472976Y-14721976D01*
X8625357Y-14902928D02*
X8634881Y-14912452D01*
X8625357Y-14921976D01*
X8615833Y-14912452D01*
X8625357Y-14902928D01*
X8625357Y-14921976D01*
X8758690Y-14721976D02*
X8777738Y-14721976D01*
X8796786Y-14731500D01*
X8806310Y-14741024D01*
X8815833Y-14760071D01*
X8825357Y-14798167D01*
X8825357Y-14845786D01*
X8815833Y-14883881D01*
X8806310Y-14902928D01*
X8796786Y-14912452D01*
X8777738Y-14921976D01*
X8758690Y-14921976D01*
X8739643Y-14912452D01*
X8730119Y-14902928D01*
X8720595Y-14883881D01*
X8711071Y-14845786D01*
X8711071Y-14798167D01*
X8720595Y-14760071D01*
X8730119Y-14741024D01*
X8739643Y-14731500D01*
X8758690Y-14721976D01*
X8949167Y-14721976D02*
X8968214Y-14721976D01*
X8987262Y-14731500D01*
X8996786Y-14741024D01*
X9006310Y-14760071D01*
X9015833Y-14798167D01*
X9015833Y-14845786D01*
X9006310Y-14883881D01*
X8996786Y-14902928D01*
X8987262Y-14912452D01*
X8968214Y-14921976D01*
X8949167Y-14921976D01*
X8930119Y-14912452D01*
X8920595Y-14902928D01*
X8911071Y-14883881D01*
X8901548Y-14845786D01*
X8901548Y-14798167D01*
X8911071Y-14760071D01*
X8920595Y-14741024D01*
X8930119Y-14731500D01*
X8949167Y-14721976D01*
X9082500Y-14721976D02*
X9215833Y-14721976D01*
X9130119Y-14921976D01*
X9301548Y-14921976D02*
X9339643Y-14921976D01*
X9358690Y-14912452D01*
X9368214Y-14902928D01*
X9387262Y-14874357D01*
X9396786Y-14836262D01*
X9396786Y-14760071D01*
X9387262Y-14741024D01*
X9377738Y-14731500D01*
X9358690Y-14721976D01*
X9320595Y-14721976D01*
X9301548Y-14731500D01*
X9292024Y-14741024D01*
X9282500Y-14760071D01*
X9282500Y-14807690D01*
X9292024Y-14826738D01*
X9301548Y-14836262D01*
X9320595Y-14845786D01*
X9358690Y-14845786D01*
X9377738Y-14836262D01*
X9387262Y-14826738D01*
X9396786Y-14807690D01*
X9472976Y-14721976D02*
X9472976Y-14760071D01*
X9549167Y-14721976D02*
X9549167Y-14760071D01*
X9844405Y-14998167D02*
X9834881Y-14988643D01*
X9815833Y-14960071D01*
X9806310Y-14941024D01*
X9796786Y-14912452D01*
X9787262Y-14864833D01*
X9787262Y-14826738D01*
X9796786Y-14779119D01*
X9806310Y-14750548D01*
X9815833Y-14731500D01*
X9834881Y-14702928D01*
X9844405Y-14693405D01*
X9930119Y-14921976D02*
X9968214Y-14921976D01*
X9987262Y-14912452D01*
X9996786Y-14902928D01*
X10015833Y-14874357D01*
X10025357Y-14836262D01*
X10025357Y-14760071D01*
X10015833Y-14741024D01*
X10006310Y-14731500D01*
X9987262Y-14721976D01*
X9949167Y-14721976D01*
X9930119Y-14731500D01*
X9920595Y-14741024D01*
X9911071Y-14760071D01*
X9911071Y-14807690D01*
X9920595Y-14826738D01*
X9930119Y-14836262D01*
X9949167Y-14845786D01*
X9987262Y-14845786D01*
X10006310Y-14836262D01*
X10015833Y-14826738D01*
X10025357Y-14807690D01*
X10263452Y-14921976D02*
X10263452Y-14721976D01*
X10349167Y-14921976D02*
X10349167Y-14817214D01*
X10339643Y-14798167D01*
X10320595Y-14788643D01*
X10292024Y-14788643D01*
X10272976Y-14798167D01*
X10263452Y-14807690D01*
X10472976Y-14921976D02*
X10453929Y-14912452D01*
X10444405Y-14902928D01*
X10434881Y-14883881D01*
X10434881Y-14826738D01*
X10444405Y-14807690D01*
X10453929Y-14798167D01*
X10472976Y-14788643D01*
X10501548Y-14788643D01*
X10520595Y-14798167D01*
X10530119Y-14807690D01*
X10539643Y-14826738D01*
X10539643Y-14883881D01*
X10530119Y-14902928D01*
X10520595Y-14912452D01*
X10501548Y-14921976D01*
X10472976Y-14921976D01*
X10653929Y-14921976D02*
X10634881Y-14912452D01*
X10625357Y-14893405D01*
X10625357Y-14721976D01*
X10806310Y-14912452D02*
X10787262Y-14921976D01*
X10749167Y-14921976D01*
X10730119Y-14912452D01*
X10720595Y-14893405D01*
X10720595Y-14817214D01*
X10730119Y-14798167D01*
X10749167Y-14788643D01*
X10787262Y-14788643D01*
X10806310Y-14798167D01*
X10815833Y-14817214D01*
X10815833Y-14836262D01*
X10720595Y-14855309D01*
X10892024Y-14912452D02*
X10911071Y-14921976D01*
X10949167Y-14921976D01*
X10968214Y-14912452D01*
X10977738Y-14893405D01*
X10977738Y-14883881D01*
X10968214Y-14864833D01*
X10949167Y-14855309D01*
X10920595Y-14855309D01*
X10901548Y-14845786D01*
X10892024Y-14826738D01*
X10892024Y-14817214D01*
X10901548Y-14798167D01*
X10920595Y-14788643D01*
X10949167Y-14788643D01*
X10968214Y-14798167D01*
X11044405Y-14998167D02*
X11053929Y-14988643D01*
X11072976Y-14960071D01*
X11082500Y-14941024D01*
X11092024Y-14912452D01*
X11101548Y-14864833D01*
X11101548Y-14826738D01*
X11092024Y-14779119D01*
X11082500Y-14750548D01*
X11072976Y-14731500D01*
X11053929Y-14702928D01*
X11044405Y-14693405D01*
D13*
X6255000Y-15078000D02*
X6255000Y-15113000D01*
X6237500Y-15095500D02*
X6272500Y-15095500D01*
D11*
X6568214Y-14985976D02*
X6587262Y-14985976D01*
X6606309Y-14995500D01*
X6615833Y-15005024D01*
X6625357Y-15024071D01*
X6634881Y-15062167D01*
X6634881Y-15109786D01*
X6625357Y-15147881D01*
X6615833Y-15166928D01*
X6606309Y-15176452D01*
X6587262Y-15185976D01*
X6568214Y-15185976D01*
X6549167Y-15176452D01*
X6539643Y-15166928D01*
X6530119Y-15147881D01*
X6520595Y-15109786D01*
X6520595Y-15062167D01*
X6530119Y-15024071D01*
X6539643Y-15005024D01*
X6549167Y-14995500D01*
X6568214Y-14985976D01*
X6720595Y-15166928D02*
X6730119Y-15176452D01*
X6720595Y-15185976D01*
X6711071Y-15176452D01*
X6720595Y-15166928D01*
X6720595Y-15185976D01*
X6796786Y-14985976D02*
X6920595Y-14985976D01*
X6853928Y-15062167D01*
X6882500Y-15062167D01*
X6901548Y-15071690D01*
X6911071Y-15081214D01*
X6920595Y-15100262D01*
X6920595Y-15147881D01*
X6911071Y-15166928D01*
X6901548Y-15176452D01*
X6882500Y-15185976D01*
X6825357Y-15185976D01*
X6806309Y-15176452D01*
X6796786Y-15166928D01*
X7101548Y-14985976D02*
X7006309Y-14985976D01*
X6996786Y-15081214D01*
X7006309Y-15071690D01*
X7025357Y-15062167D01*
X7072976Y-15062167D01*
X7092024Y-15071690D01*
X7101548Y-15081214D01*
X7111071Y-15100262D01*
X7111071Y-15147881D01*
X7101548Y-15166928D01*
X7092024Y-15176452D01*
X7072976Y-15185976D01*
X7025357Y-15185976D01*
X7006309Y-15176452D01*
X6996786Y-15166928D01*
X7234881Y-14985976D02*
X7253928Y-14985976D01*
X7272976Y-14995500D01*
X7282500Y-15005024D01*
X7292024Y-15024071D01*
X7301548Y-15062167D01*
X7301548Y-15109786D01*
X7292024Y-15147881D01*
X7282500Y-15166928D01*
X7272976Y-15176452D01*
X7253928Y-15185976D01*
X7234881Y-15185976D01*
X7215833Y-15176452D01*
X7206309Y-15166928D01*
X7196786Y-15147881D01*
X7187262Y-15109786D01*
X7187262Y-15062167D01*
X7196786Y-15024071D01*
X7206309Y-15005024D01*
X7215833Y-14995500D01*
X7234881Y-14985976D01*
X7387262Y-15185976D02*
X7387262Y-15052643D01*
X7387262Y-15071690D02*
X7396786Y-15062167D01*
X7415833Y-15052643D01*
X7444405Y-15052643D01*
X7463452Y-15062167D01*
X7472976Y-15081214D01*
X7472976Y-15185976D01*
X7472976Y-15081214D02*
X7482500Y-15062167D01*
X7501548Y-15052643D01*
X7530119Y-15052643D01*
X7549167Y-15062167D01*
X7558690Y-15081214D01*
X7558690Y-15185976D01*
X7653928Y-15185976D02*
X7653928Y-15052643D01*
X7653928Y-15071690D02*
X7663452Y-15062167D01*
X7682500Y-15052643D01*
X7711071Y-15052643D01*
X7730119Y-15062167D01*
X7739643Y-15081214D01*
X7739643Y-15185976D01*
X7739643Y-15081214D02*
X7749167Y-15062167D01*
X7768214Y-15052643D01*
X7796786Y-15052643D01*
X7815833Y-15062167D01*
X7825357Y-15081214D01*
X7825357Y-15185976D01*
X8215833Y-14976452D02*
X8044405Y-15233595D01*
X8472976Y-14985976D02*
X8492024Y-14985976D01*
X8511071Y-14995500D01*
X8520595Y-15005024D01*
X8530119Y-15024071D01*
X8539643Y-15062167D01*
X8539643Y-15109786D01*
X8530119Y-15147881D01*
X8520595Y-15166928D01*
X8511071Y-15176452D01*
X8492024Y-15185976D01*
X8472976Y-15185976D01*
X8453929Y-15176452D01*
X8444405Y-15166928D01*
X8434881Y-15147881D01*
X8425357Y-15109786D01*
X8425357Y-15062167D01*
X8434881Y-15024071D01*
X8444405Y-15005024D01*
X8453929Y-14995500D01*
X8472976Y-14985976D01*
X8625357Y-15166928D02*
X8634881Y-15176452D01*
X8625357Y-15185976D01*
X8615833Y-15176452D01*
X8625357Y-15166928D01*
X8625357Y-15185976D01*
X8758690Y-14985976D02*
X8777738Y-14985976D01*
X8796786Y-14995500D01*
X8806310Y-15005024D01*
X8815833Y-15024071D01*
X8825357Y-15062167D01*
X8825357Y-15109786D01*
X8815833Y-15147881D01*
X8806310Y-15166928D01*
X8796786Y-15176452D01*
X8777738Y-15185976D01*
X8758690Y-15185976D01*
X8739643Y-15176452D01*
X8730119Y-15166928D01*
X8720595Y-15147881D01*
X8711071Y-15109786D01*
X8711071Y-15062167D01*
X8720595Y-15024071D01*
X8730119Y-15005024D01*
X8739643Y-14995500D01*
X8758690Y-14985976D01*
X9015833Y-15185976D02*
X8901548Y-15185976D01*
X8958690Y-15185976D02*
X8958690Y-14985976D01*
X8939643Y-15014548D01*
X8920595Y-15033595D01*
X8901548Y-15043119D01*
X9082500Y-14985976D02*
X9206310Y-14985976D01*
X9139643Y-15062167D01*
X9168214Y-15062167D01*
X9187262Y-15071690D01*
X9196786Y-15081214D01*
X9206310Y-15100262D01*
X9206310Y-15147881D01*
X9196786Y-15166928D01*
X9187262Y-15176452D01*
X9168214Y-15185976D01*
X9111071Y-15185976D01*
X9092024Y-15176452D01*
X9082500Y-15166928D01*
X9320595Y-15071690D02*
X9301548Y-15062167D01*
X9292024Y-15052643D01*
X9282500Y-15033595D01*
X9282500Y-15024071D01*
X9292024Y-15005024D01*
X9301548Y-14995500D01*
X9320595Y-14985976D01*
X9358690Y-14985976D01*
X9377738Y-14995500D01*
X9387262Y-15005024D01*
X9396786Y-15024071D01*
X9396786Y-15033595D01*
X9387262Y-15052643D01*
X9377738Y-15062167D01*
X9358690Y-15071690D01*
X9320595Y-15071690D01*
X9301548Y-15081214D01*
X9292024Y-15090738D01*
X9282500Y-15109786D01*
X9282500Y-15147881D01*
X9292024Y-15166928D01*
X9301548Y-15176452D01*
X9320595Y-15185976D01*
X9358690Y-15185976D01*
X9377738Y-15176452D01*
X9387262Y-15166928D01*
X9396786Y-15147881D01*
X9396786Y-15109786D01*
X9387262Y-15090738D01*
X9377738Y-15081214D01*
X9358690Y-15071690D01*
X9472976Y-14985976D02*
X9472976Y-15024071D01*
X9549167Y-14985976D02*
X9549167Y-15024071D01*
X9844405Y-15262167D02*
X9834881Y-15252643D01*
X9815833Y-15224071D01*
X9806310Y-15205024D01*
X9796786Y-15176452D01*
X9787262Y-15128833D01*
X9787262Y-15090738D01*
X9796786Y-15043119D01*
X9806310Y-15014548D01*
X9815833Y-14995500D01*
X9834881Y-14966928D01*
X9844405Y-14957405D01*
X9930119Y-15185976D02*
X9968214Y-15185976D01*
X9987262Y-15176452D01*
X9996786Y-15166928D01*
X10015833Y-15138357D01*
X10025357Y-15100262D01*
X10025357Y-15024071D01*
X10015833Y-15005024D01*
X10006310Y-14995500D01*
X9987262Y-14985976D01*
X9949167Y-14985976D01*
X9930119Y-14995500D01*
X9920595Y-15005024D01*
X9911071Y-15024071D01*
X9911071Y-15071690D01*
X9920595Y-15090738D01*
X9930119Y-15100262D01*
X9949167Y-15109786D01*
X9987262Y-15109786D01*
X10006310Y-15100262D01*
X10015833Y-15090738D01*
X10025357Y-15071690D01*
X10263452Y-15185976D02*
X10263452Y-14985976D01*
X10349167Y-15185976D02*
X10349167Y-15081214D01*
X10339643Y-15062167D01*
X10320595Y-15052643D01*
X10292024Y-15052643D01*
X10272976Y-15062167D01*
X10263452Y-15071690D01*
X10472976Y-15185976D02*
X10453929Y-15176452D01*
X10444405Y-15166928D01*
X10434881Y-15147881D01*
X10434881Y-15090738D01*
X10444405Y-15071690D01*
X10453929Y-15062167D01*
X10472976Y-15052643D01*
X10501548Y-15052643D01*
X10520595Y-15062167D01*
X10530119Y-15071690D01*
X10539643Y-15090738D01*
X10539643Y-15147881D01*
X10530119Y-15166928D01*
X10520595Y-15176452D01*
X10501548Y-15185976D01*
X10472976Y-15185976D01*
X10653929Y-15185976D02*
X10634881Y-15176452D01*
X10625357Y-15157405D01*
X10625357Y-14985976D01*
X10806310Y-15176452D02*
X10787262Y-15185976D01*
X10749167Y-15185976D01*
X10730119Y-15176452D01*
X10720595Y-15157405D01*
X10720595Y-15081214D01*
X10730119Y-15062167D01*
X10749167Y-15052643D01*
X10787262Y-15052643D01*
X10806310Y-15062167D01*
X10815833Y-15081214D01*
X10815833Y-15100262D01*
X10720595Y-15119309D01*
X10892024Y-15176452D02*
X10911071Y-15185976D01*
X10949167Y-15185976D01*
X10968214Y-15176452D01*
X10977738Y-15157405D01*
X10977738Y-15147881D01*
X10968214Y-15128833D01*
X10949167Y-15119309D01*
X10920595Y-15119309D01*
X10901548Y-15109786D01*
X10892024Y-15090738D01*
X10892024Y-15081214D01*
X10901548Y-15062167D01*
X10920595Y-15052643D01*
X10949167Y-15052643D01*
X10968214Y-15062167D01*
X11044405Y-15262167D02*
X11053929Y-15252643D01*
X11072976Y-15224071D01*
X11082500Y-15205024D01*
X11092024Y-15176452D01*
X11101548Y-15128833D01*
X11101548Y-15090738D01*
X11092024Y-15043119D01*
X11082500Y-15014548D01*
X11072976Y-14995500D01*
X11053929Y-14966928D01*
X11044405Y-14957405D01*
D14*
X6266642Y-15373642D02*
X6266642Y-15345358D01*
X6238358Y-15345358D01*
X6238358Y-15373642D01*
X6266642Y-15373642D01*
D11*
X6568214Y-15249976D02*
X6587262Y-15249976D01*
X6606309Y-15259500D01*
X6615833Y-15269024D01*
X6625357Y-15288071D01*
X6634881Y-15326167D01*
X6634881Y-15373786D01*
X6625357Y-15411881D01*
X6615833Y-15430928D01*
X6606309Y-15440452D01*
X6587262Y-15449976D01*
X6568214Y-15449976D01*
X6549167Y-15440452D01*
X6539643Y-15430928D01*
X6530119Y-15411881D01*
X6520595Y-15373786D01*
X6520595Y-15326167D01*
X6530119Y-15288071D01*
X6539643Y-15269024D01*
X6549167Y-15259500D01*
X6568214Y-15249976D01*
X6720595Y-15430928D02*
X6730119Y-15440452D01*
X6720595Y-15449976D01*
X6711071Y-15440452D01*
X6720595Y-15430928D01*
X6720595Y-15449976D01*
X6901548Y-15316643D02*
X6901548Y-15449976D01*
X6853928Y-15240452D02*
X6806309Y-15383309D01*
X6930119Y-15383309D01*
X7044405Y-15249976D02*
X7063452Y-15249976D01*
X7082500Y-15259500D01*
X7092024Y-15269024D01*
X7101548Y-15288071D01*
X7111071Y-15326167D01*
X7111071Y-15373786D01*
X7101548Y-15411881D01*
X7092024Y-15430928D01*
X7082500Y-15440452D01*
X7063452Y-15449976D01*
X7044405Y-15449976D01*
X7025357Y-15440452D01*
X7015833Y-15430928D01*
X7006309Y-15411881D01*
X6996786Y-15373786D01*
X6996786Y-15326167D01*
X7006309Y-15288071D01*
X7015833Y-15269024D01*
X7025357Y-15259500D01*
X7044405Y-15249976D01*
X7234881Y-15249976D02*
X7253928Y-15249976D01*
X7272976Y-15259500D01*
X7282500Y-15269024D01*
X7292024Y-15288071D01*
X7301548Y-15326167D01*
X7301548Y-15373786D01*
X7292024Y-15411881D01*
X7282500Y-15430928D01*
X7272976Y-15440452D01*
X7253928Y-15449976D01*
X7234881Y-15449976D01*
X7215833Y-15440452D01*
X7206309Y-15430928D01*
X7196786Y-15411881D01*
X7187262Y-15373786D01*
X7187262Y-15326167D01*
X7196786Y-15288071D01*
X7206309Y-15269024D01*
X7215833Y-15259500D01*
X7234881Y-15249976D01*
X7387262Y-15449976D02*
X7387262Y-15316643D01*
X7387262Y-15335690D02*
X7396786Y-15326167D01*
X7415833Y-15316643D01*
X7444405Y-15316643D01*
X7463452Y-15326167D01*
X7472976Y-15345214D01*
X7472976Y-15449976D01*
X7472976Y-15345214D02*
X7482500Y-15326167D01*
X7501548Y-15316643D01*
X7530119Y-15316643D01*
X7549167Y-15326167D01*
X7558690Y-15345214D01*
X7558690Y-15449976D01*
X7653928Y-15449976D02*
X7653928Y-15316643D01*
X7653928Y-15335690D02*
X7663452Y-15326167D01*
X7682500Y-15316643D01*
X7711071Y-15316643D01*
X7730119Y-15326167D01*
X7739643Y-15345214D01*
X7739643Y-15449976D01*
X7739643Y-15345214D02*
X7749167Y-15326167D01*
X7768214Y-15316643D01*
X7796786Y-15316643D01*
X7815833Y-15326167D01*
X7825357Y-15345214D01*
X7825357Y-15449976D01*
X8215833Y-15240452D02*
X8044405Y-15497595D01*
X8472976Y-15249976D02*
X8492024Y-15249976D01*
X8511071Y-15259500D01*
X8520595Y-15269024D01*
X8530119Y-15288071D01*
X8539643Y-15326167D01*
X8539643Y-15373786D01*
X8530119Y-15411881D01*
X8520595Y-15430928D01*
X8511071Y-15440452D01*
X8492024Y-15449976D01*
X8472976Y-15449976D01*
X8453929Y-15440452D01*
X8444405Y-15430928D01*
X8434881Y-15411881D01*
X8425357Y-15373786D01*
X8425357Y-15326167D01*
X8434881Y-15288071D01*
X8444405Y-15269024D01*
X8453929Y-15259500D01*
X8472976Y-15249976D01*
X8625357Y-15430928D02*
X8634881Y-15440452D01*
X8625357Y-15449976D01*
X8615833Y-15440452D01*
X8625357Y-15430928D01*
X8625357Y-15449976D01*
X8758690Y-15249976D02*
X8777738Y-15249976D01*
X8796786Y-15259500D01*
X8806310Y-15269024D01*
X8815833Y-15288071D01*
X8825357Y-15326167D01*
X8825357Y-15373786D01*
X8815833Y-15411881D01*
X8806310Y-15430928D01*
X8796786Y-15440452D01*
X8777738Y-15449976D01*
X8758690Y-15449976D01*
X8739643Y-15440452D01*
X8730119Y-15430928D01*
X8720595Y-15411881D01*
X8711071Y-15373786D01*
X8711071Y-15326167D01*
X8720595Y-15288071D01*
X8730119Y-15269024D01*
X8739643Y-15259500D01*
X8758690Y-15249976D01*
X9015833Y-15449976D02*
X8901548Y-15449976D01*
X8958690Y-15449976D02*
X8958690Y-15249976D01*
X8939643Y-15278548D01*
X8920595Y-15297595D01*
X8901548Y-15307119D01*
X9196786Y-15249976D02*
X9101548Y-15249976D01*
X9092024Y-15345214D01*
X9101548Y-15335690D01*
X9120595Y-15326167D01*
X9168214Y-15326167D01*
X9187262Y-15335690D01*
X9196786Y-15345214D01*
X9206310Y-15364262D01*
X9206310Y-15411881D01*
X9196786Y-15430928D01*
X9187262Y-15440452D01*
X9168214Y-15449976D01*
X9120595Y-15449976D01*
X9101548Y-15440452D01*
X9092024Y-15430928D01*
X9272976Y-15249976D02*
X9406310Y-15249976D01*
X9320595Y-15449976D01*
X9472976Y-15249976D02*
X9472976Y-15288071D01*
X9549167Y-15249976D02*
X9549167Y-15288071D01*
X9844405Y-15526167D02*
X9834881Y-15516643D01*
X9815833Y-15488071D01*
X9806310Y-15469024D01*
X9796786Y-15440452D01*
X9787262Y-15392833D01*
X9787262Y-15354738D01*
X9796786Y-15307119D01*
X9806310Y-15278548D01*
X9815833Y-15259500D01*
X9834881Y-15230928D01*
X9844405Y-15221405D01*
X10025357Y-15449976D02*
X9911071Y-15449976D01*
X9968214Y-15449976D02*
X9968214Y-15249976D01*
X9949167Y-15278548D01*
X9930119Y-15297595D01*
X9911071Y-15307119D01*
X10092024Y-15249976D02*
X10225357Y-15249976D01*
X10139643Y-15449976D01*
X10311071Y-15449976D02*
X10349167Y-15449976D01*
X10368214Y-15440452D01*
X10377738Y-15430928D01*
X10396786Y-15402357D01*
X10406310Y-15364262D01*
X10406310Y-15288071D01*
X10396786Y-15269024D01*
X10387262Y-15259500D01*
X10368214Y-15249976D01*
X10330119Y-15249976D01*
X10311071Y-15259500D01*
X10301548Y-15269024D01*
X10292024Y-15288071D01*
X10292024Y-15335690D01*
X10301548Y-15354738D01*
X10311071Y-15364262D01*
X10330119Y-15373786D01*
X10368214Y-15373786D01*
X10387262Y-15364262D01*
X10396786Y-15354738D01*
X10406310Y-15335690D01*
X10644405Y-15449976D02*
X10644405Y-15249976D01*
X10730119Y-15449976D02*
X10730119Y-15345214D01*
X10720595Y-15326167D01*
X10701548Y-15316643D01*
X10672976Y-15316643D01*
X10653929Y-15326167D01*
X10644405Y-15335690D01*
X10853929Y-15449976D02*
X10834881Y-15440452D01*
X10825357Y-15430928D01*
X10815833Y-15411881D01*
X10815833Y-15354738D01*
X10825357Y-15335690D01*
X10834881Y-15326167D01*
X10853929Y-15316643D01*
X10882500Y-15316643D01*
X10901548Y-15326167D01*
X10911071Y-15335690D01*
X10920595Y-15354738D01*
X10920595Y-15411881D01*
X10911071Y-15430928D01*
X10901548Y-15440452D01*
X10882500Y-15449976D01*
X10853929Y-15449976D01*
X11034881Y-15449976D02*
X11015833Y-15440452D01*
X11006310Y-15421405D01*
X11006310Y-15249976D01*
X11187262Y-15440452D02*
X11168214Y-15449976D01*
X11130119Y-15449976D01*
X11111071Y-15440452D01*
X11101548Y-15421405D01*
X11101548Y-15345214D01*
X11111071Y-15326167D01*
X11130119Y-15316643D01*
X11168214Y-15316643D01*
X11187262Y-15326167D01*
X11196786Y-15345214D01*
X11196786Y-15364262D01*
X11101548Y-15383309D01*
X11272976Y-15440452D02*
X11292024Y-15449976D01*
X11330119Y-15449976D01*
X11349167Y-15440452D01*
X11358690Y-15421405D01*
X11358690Y-15411881D01*
X11349167Y-15392833D01*
X11330119Y-15383309D01*
X11301548Y-15383309D01*
X11282500Y-15373786D01*
X11272976Y-15354738D01*
X11272976Y-15345214D01*
X11282500Y-15326167D01*
X11301548Y-15316643D01*
X11330119Y-15316643D01*
X11349167Y-15326167D01*
X11425357Y-15526167D02*
X11434881Y-15516643D01*
X11453928Y-15488071D01*
X11463452Y-15469024D01*
X11472976Y-15440452D01*
X11482500Y-15392833D01*
X11482500Y-15354738D01*
X11472976Y-15307119D01*
X11463452Y-15278548D01*
X11453928Y-15259500D01*
X11434881Y-15230928D01*
X11425357Y-15221405D01*
D15*
X6247500Y-15648500D02*
X6272500Y-15623500D01*
X6247500Y-15598500D01*
X6222500Y-15623500D01*
X6247500Y-15648500D01*
D11*
X6568214Y-15513976D02*
X6587262Y-15513976D01*
X6606309Y-15523500D01*
X6615833Y-15533024D01*
X6625357Y-15552071D01*
X6634881Y-15590167D01*
X6634881Y-15637786D01*
X6625357Y-15675881D01*
X6615833Y-15694928D01*
X6606309Y-15704452D01*
X6587262Y-15713976D01*
X6568214Y-15713976D01*
X6549167Y-15704452D01*
X6539643Y-15694928D01*
X6530119Y-15675881D01*
X6520595Y-15637786D01*
X6520595Y-15590167D01*
X6530119Y-15552071D01*
X6539643Y-15533024D01*
X6549167Y-15523500D01*
X6568214Y-15513976D01*
X6720595Y-15694928D02*
X6730119Y-15704452D01*
X6720595Y-15713976D01*
X6711071Y-15704452D01*
X6720595Y-15694928D01*
X6720595Y-15713976D01*
X6911071Y-15513976D02*
X6815833Y-15513976D01*
X6806309Y-15609214D01*
X6815833Y-15599690D01*
X6834881Y-15590167D01*
X6882500Y-15590167D01*
X6901548Y-15599690D01*
X6911071Y-15609214D01*
X6920595Y-15628262D01*
X6920595Y-15675881D01*
X6911071Y-15694928D01*
X6901548Y-15704452D01*
X6882500Y-15713976D01*
X6834881Y-15713976D01*
X6815833Y-15704452D01*
X6806309Y-15694928D01*
X7044405Y-15513976D02*
X7063452Y-15513976D01*
X7082500Y-15523500D01*
X7092024Y-15533024D01*
X7101548Y-15552071D01*
X7111071Y-15590167D01*
X7111071Y-15637786D01*
X7101548Y-15675881D01*
X7092024Y-15694928D01*
X7082500Y-15704452D01*
X7063452Y-15713976D01*
X7044405Y-15713976D01*
X7025357Y-15704452D01*
X7015833Y-15694928D01*
X7006309Y-15675881D01*
X6996786Y-15637786D01*
X6996786Y-15590167D01*
X7006309Y-15552071D01*
X7015833Y-15533024D01*
X7025357Y-15523500D01*
X7044405Y-15513976D01*
X7234881Y-15513976D02*
X7253928Y-15513976D01*
X7272976Y-15523500D01*
X7282500Y-15533024D01*
X7292024Y-15552071D01*
X7301548Y-15590167D01*
X7301548Y-15637786D01*
X7292024Y-15675881D01*
X7282500Y-15694928D01*
X7272976Y-15704452D01*
X7253928Y-15713976D01*
X7234881Y-15713976D01*
X7215833Y-15704452D01*
X7206309Y-15694928D01*
X7196786Y-15675881D01*
X7187262Y-15637786D01*
X7187262Y-15590167D01*
X7196786Y-15552071D01*
X7206309Y-15533024D01*
X7215833Y-15523500D01*
X7234881Y-15513976D01*
X7387262Y-15713976D02*
X7387262Y-15580643D01*
X7387262Y-15599690D02*
X7396786Y-15590167D01*
X7415833Y-15580643D01*
X7444405Y-15580643D01*
X7463452Y-15590167D01*
X7472976Y-15609214D01*
X7472976Y-15713976D01*
X7472976Y-15609214D02*
X7482500Y-15590167D01*
X7501548Y-15580643D01*
X7530119Y-15580643D01*
X7549167Y-15590167D01*
X7558690Y-15609214D01*
X7558690Y-15713976D01*
X7653928Y-15713976D02*
X7653928Y-15580643D01*
X7653928Y-15599690D02*
X7663452Y-15590167D01*
X7682500Y-15580643D01*
X7711071Y-15580643D01*
X7730119Y-15590167D01*
X7739643Y-15609214D01*
X7739643Y-15713976D01*
X7739643Y-15609214D02*
X7749167Y-15590167D01*
X7768214Y-15580643D01*
X7796786Y-15580643D01*
X7815833Y-15590167D01*
X7825357Y-15609214D01*
X7825357Y-15713976D01*
X8215833Y-15504452D02*
X8044405Y-15761595D01*
X8472976Y-15513976D02*
X8492024Y-15513976D01*
X8511071Y-15523500D01*
X8520595Y-15533024D01*
X8530119Y-15552071D01*
X8539643Y-15590167D01*
X8539643Y-15637786D01*
X8530119Y-15675881D01*
X8520595Y-15694928D01*
X8511071Y-15704452D01*
X8492024Y-15713976D01*
X8472976Y-15713976D01*
X8453929Y-15704452D01*
X8444405Y-15694928D01*
X8434881Y-15675881D01*
X8425357Y-15637786D01*
X8425357Y-15590167D01*
X8434881Y-15552071D01*
X8444405Y-15533024D01*
X8453929Y-15523500D01*
X8472976Y-15513976D01*
X8625357Y-15694928D02*
X8634881Y-15704452D01*
X8625357Y-15713976D01*
X8615833Y-15704452D01*
X8625357Y-15694928D01*
X8625357Y-15713976D01*
X8758690Y-15513976D02*
X8777738Y-15513976D01*
X8796786Y-15523500D01*
X8806310Y-15533024D01*
X8815833Y-15552071D01*
X8825357Y-15590167D01*
X8825357Y-15637786D01*
X8815833Y-15675881D01*
X8806310Y-15694928D01*
X8796786Y-15704452D01*
X8777738Y-15713976D01*
X8758690Y-15713976D01*
X8739643Y-15704452D01*
X8730119Y-15694928D01*
X8720595Y-15675881D01*
X8711071Y-15637786D01*
X8711071Y-15590167D01*
X8720595Y-15552071D01*
X8730119Y-15533024D01*
X8739643Y-15523500D01*
X8758690Y-15513976D01*
X9015833Y-15713976D02*
X8901548Y-15713976D01*
X8958690Y-15713976D02*
X8958690Y-15513976D01*
X8939643Y-15542548D01*
X8920595Y-15561595D01*
X8901548Y-15571119D01*
X9111071Y-15713976D02*
X9149167Y-15713976D01*
X9168214Y-15704452D01*
X9177738Y-15694928D01*
X9196786Y-15666357D01*
X9206310Y-15628262D01*
X9206310Y-15552071D01*
X9196786Y-15533024D01*
X9187262Y-15523500D01*
X9168214Y-15513976D01*
X9130119Y-15513976D01*
X9111071Y-15523500D01*
X9101548Y-15533024D01*
X9092024Y-15552071D01*
X9092024Y-15599690D01*
X9101548Y-15618738D01*
X9111071Y-15628262D01*
X9130119Y-15637786D01*
X9168214Y-15637786D01*
X9187262Y-15628262D01*
X9196786Y-15618738D01*
X9206310Y-15599690D01*
X9272976Y-15513976D02*
X9406310Y-15513976D01*
X9320595Y-15713976D01*
X9472976Y-15513976D02*
X9472976Y-15552071D01*
X9549167Y-15513976D02*
X9549167Y-15552071D01*
X9844405Y-15790167D02*
X9834881Y-15780643D01*
X9815833Y-15752071D01*
X9806310Y-15733024D01*
X9796786Y-15704452D01*
X9787262Y-15656833D01*
X9787262Y-15618738D01*
X9796786Y-15571119D01*
X9806310Y-15542548D01*
X9815833Y-15523500D01*
X9834881Y-15494928D01*
X9844405Y-15485405D01*
X9911071Y-15533024D02*
X9920595Y-15523500D01*
X9939643Y-15513976D01*
X9987262Y-15513976D01*
X10006310Y-15523500D01*
X10015833Y-15533024D01*
X10025357Y-15552071D01*
X10025357Y-15571119D01*
X10015833Y-15599690D01*
X9901548Y-15713976D01*
X10025357Y-15713976D01*
X10263452Y-15713976D02*
X10263452Y-15513976D01*
X10349167Y-15713976D02*
X10349167Y-15609214D01*
X10339643Y-15590167D01*
X10320595Y-15580643D01*
X10292024Y-15580643D01*
X10272976Y-15590167D01*
X10263452Y-15599690D01*
X10472976Y-15713976D02*
X10453929Y-15704452D01*
X10444405Y-15694928D01*
X10434881Y-15675881D01*
X10434881Y-15618738D01*
X10444405Y-15599690D01*
X10453929Y-15590167D01*
X10472976Y-15580643D01*
X10501548Y-15580643D01*
X10520595Y-15590167D01*
X10530119Y-15599690D01*
X10539643Y-15618738D01*
X10539643Y-15675881D01*
X10530119Y-15694928D01*
X10520595Y-15704452D01*
X10501548Y-15713976D01*
X10472976Y-15713976D01*
X10653929Y-15713976D02*
X10634881Y-15704452D01*
X10625357Y-15685405D01*
X10625357Y-15513976D01*
X10806310Y-15704452D02*
X10787262Y-15713976D01*
X10749167Y-15713976D01*
X10730119Y-15704452D01*
X10720595Y-15685405D01*
X10720595Y-15609214D01*
X10730119Y-15590167D01*
X10749167Y-15580643D01*
X10787262Y-15580643D01*
X10806310Y-15590167D01*
X10815833Y-15609214D01*
X10815833Y-15628262D01*
X10720595Y-15647309D01*
X10892024Y-15704452D02*
X10911071Y-15713976D01*
X10949167Y-15713976D01*
X10968214Y-15704452D01*
X10977738Y-15685405D01*
X10977738Y-15675881D01*
X10968214Y-15656833D01*
X10949167Y-15647309D01*
X10920595Y-15647309D01*
X10901548Y-15637786D01*
X10892024Y-15618738D01*
X10892024Y-15609214D01*
X10901548Y-15590167D01*
X10920595Y-15580643D01*
X10949167Y-15580643D01*
X10968214Y-15590167D01*
X11044405Y-15790167D02*
X11053929Y-15780643D01*
X11072976Y-15752071D01*
X11082500Y-15733024D01*
X11092024Y-15704452D01*
X11101548Y-15656833D01*
X11101548Y-15618738D01*
X11092024Y-15571119D01*
X11082500Y-15542548D01*
X11072976Y-15523500D01*
X11053929Y-15494928D01*
X11044405Y-15485405D01*
D16*
X6212500Y-15857500D02*
X6272500Y-15917500D01*
X6272500Y-15857500D02*
X6212500Y-15917500D01*
X6272500Y-15887500D02*
G75*
G03*
X6272500Y-15887500I-30000J0D01*
G01*
D11*
X6568214Y-15777976D02*
X6587262Y-15777976D01*
X6606309Y-15787500D01*
X6615833Y-15797024D01*
X6625357Y-15816071D01*
X6634881Y-15854167D01*
X6634881Y-15901786D01*
X6625357Y-15939881D01*
X6615833Y-15958928D01*
X6606309Y-15968452D01*
X6587262Y-15977976D01*
X6568214Y-15977976D01*
X6549167Y-15968452D01*
X6539643Y-15958928D01*
X6530119Y-15939881D01*
X6520595Y-15901786D01*
X6520595Y-15854167D01*
X6530119Y-15816071D01*
X6539643Y-15797024D01*
X6549167Y-15787500D01*
X6568214Y-15777976D01*
X6720595Y-15958928D02*
X6730119Y-15968452D01*
X6720595Y-15977976D01*
X6711071Y-15968452D01*
X6720595Y-15958928D01*
X6720595Y-15977976D01*
X6901548Y-15777976D02*
X6863452Y-15777976D01*
X6844405Y-15787500D01*
X6834881Y-15797024D01*
X6815833Y-15825595D01*
X6806309Y-15863690D01*
X6806309Y-15939881D01*
X6815833Y-15958928D01*
X6825357Y-15968452D01*
X6844405Y-15977976D01*
X6882500Y-15977976D01*
X6901548Y-15968452D01*
X6911071Y-15958928D01*
X6920595Y-15939881D01*
X6920595Y-15892262D01*
X6911071Y-15873214D01*
X6901548Y-15863690D01*
X6882500Y-15854167D01*
X6844405Y-15854167D01*
X6825357Y-15863690D01*
X6815833Y-15873214D01*
X6806309Y-15892262D01*
X7044405Y-15777976D02*
X7063452Y-15777976D01*
X7082500Y-15787500D01*
X7092024Y-15797024D01*
X7101548Y-15816071D01*
X7111071Y-15854167D01*
X7111071Y-15901786D01*
X7101548Y-15939881D01*
X7092024Y-15958928D01*
X7082500Y-15968452D01*
X7063452Y-15977976D01*
X7044405Y-15977976D01*
X7025357Y-15968452D01*
X7015833Y-15958928D01*
X7006309Y-15939881D01*
X6996786Y-15901786D01*
X6996786Y-15854167D01*
X7006309Y-15816071D01*
X7015833Y-15797024D01*
X7025357Y-15787500D01*
X7044405Y-15777976D01*
X7234881Y-15777976D02*
X7253928Y-15777976D01*
X7272976Y-15787500D01*
X7282500Y-15797024D01*
X7292024Y-15816071D01*
X7301548Y-15854167D01*
X7301548Y-15901786D01*
X7292024Y-15939881D01*
X7282500Y-15958928D01*
X7272976Y-15968452D01*
X7253928Y-15977976D01*
X7234881Y-15977976D01*
X7215833Y-15968452D01*
X7206309Y-15958928D01*
X7196786Y-15939881D01*
X7187262Y-15901786D01*
X7187262Y-15854167D01*
X7196786Y-15816071D01*
X7206309Y-15797024D01*
X7215833Y-15787500D01*
X7234881Y-15777976D01*
X7387262Y-15977976D02*
X7387262Y-15844643D01*
X7387262Y-15863690D02*
X7396786Y-15854167D01*
X7415833Y-15844643D01*
X7444405Y-15844643D01*
X7463452Y-15854167D01*
X7472976Y-15873214D01*
X7472976Y-15977976D01*
X7472976Y-15873214D02*
X7482500Y-15854167D01*
X7501548Y-15844643D01*
X7530119Y-15844643D01*
X7549167Y-15854167D01*
X7558690Y-15873214D01*
X7558690Y-15977976D01*
X7653928Y-15977976D02*
X7653928Y-15844643D01*
X7653928Y-15863690D02*
X7663452Y-15854167D01*
X7682500Y-15844643D01*
X7711071Y-15844643D01*
X7730119Y-15854167D01*
X7739643Y-15873214D01*
X7739643Y-15977976D01*
X7739643Y-15873214D02*
X7749167Y-15854167D01*
X7768214Y-15844643D01*
X7796786Y-15844643D01*
X7815833Y-15854167D01*
X7825357Y-15873214D01*
X7825357Y-15977976D01*
X8215833Y-15768452D02*
X8044405Y-16025595D01*
X8472976Y-15777976D02*
X8492024Y-15777976D01*
X8511071Y-15787500D01*
X8520595Y-15797024D01*
X8530119Y-15816071D01*
X8539643Y-15854167D01*
X8539643Y-15901786D01*
X8530119Y-15939881D01*
X8520595Y-15958928D01*
X8511071Y-15968452D01*
X8492024Y-15977976D01*
X8472976Y-15977976D01*
X8453929Y-15968452D01*
X8444405Y-15958928D01*
X8434881Y-15939881D01*
X8425357Y-15901786D01*
X8425357Y-15854167D01*
X8434881Y-15816071D01*
X8444405Y-15797024D01*
X8453929Y-15787500D01*
X8472976Y-15777976D01*
X8625357Y-15958928D02*
X8634881Y-15968452D01*
X8625357Y-15977976D01*
X8615833Y-15968452D01*
X8625357Y-15958928D01*
X8625357Y-15977976D01*
X8758690Y-15777976D02*
X8777738Y-15777976D01*
X8796786Y-15787500D01*
X8806310Y-15797024D01*
X8815833Y-15816071D01*
X8825357Y-15854167D01*
X8825357Y-15901786D01*
X8815833Y-15939881D01*
X8806310Y-15958928D01*
X8796786Y-15968452D01*
X8777738Y-15977976D01*
X8758690Y-15977976D01*
X8739643Y-15968452D01*
X8730119Y-15958928D01*
X8720595Y-15939881D01*
X8711071Y-15901786D01*
X8711071Y-15854167D01*
X8720595Y-15816071D01*
X8730119Y-15797024D01*
X8739643Y-15787500D01*
X8758690Y-15777976D01*
X8901548Y-15797024D02*
X8911071Y-15787500D01*
X8930119Y-15777976D01*
X8977738Y-15777976D01*
X8996786Y-15787500D01*
X9006310Y-15797024D01*
X9015833Y-15816071D01*
X9015833Y-15835119D01*
X9006310Y-15863690D01*
X8892024Y-15977976D01*
X9015833Y-15977976D01*
X9082500Y-15777976D02*
X9206310Y-15777976D01*
X9139643Y-15854167D01*
X9168214Y-15854167D01*
X9187262Y-15863690D01*
X9196786Y-15873214D01*
X9206310Y-15892262D01*
X9206310Y-15939881D01*
X9196786Y-15958928D01*
X9187262Y-15968452D01*
X9168214Y-15977976D01*
X9111071Y-15977976D01*
X9092024Y-15968452D01*
X9082500Y-15958928D01*
X9377738Y-15777976D02*
X9339643Y-15777976D01*
X9320595Y-15787500D01*
X9311071Y-15797024D01*
X9292024Y-15825595D01*
X9282500Y-15863690D01*
X9282500Y-15939881D01*
X9292024Y-15958928D01*
X9301548Y-15968452D01*
X9320595Y-15977976D01*
X9358690Y-15977976D01*
X9377738Y-15968452D01*
X9387262Y-15958928D01*
X9396786Y-15939881D01*
X9396786Y-15892262D01*
X9387262Y-15873214D01*
X9377738Y-15863690D01*
X9358690Y-15854167D01*
X9320595Y-15854167D01*
X9301548Y-15863690D01*
X9292024Y-15873214D01*
X9282500Y-15892262D01*
X9472976Y-15777976D02*
X9472976Y-15816071D01*
X9549167Y-15777976D02*
X9549167Y-15816071D01*
X9844405Y-16054167D02*
X9834881Y-16044643D01*
X9815833Y-16016071D01*
X9806310Y-15997024D01*
X9796786Y-15968452D01*
X9787262Y-15920833D01*
X9787262Y-15882738D01*
X9796786Y-15835119D01*
X9806310Y-15806548D01*
X9815833Y-15787500D01*
X9834881Y-15758928D01*
X9844405Y-15749405D01*
X9958690Y-15777976D02*
X9977738Y-15777976D01*
X9996786Y-15787500D01*
X10006310Y-15797024D01*
X10015833Y-15816071D01*
X10025357Y-15854167D01*
X10025357Y-15901786D01*
X10015833Y-15939881D01*
X10006310Y-15958928D01*
X9996786Y-15968452D01*
X9977738Y-15977976D01*
X9958690Y-15977976D01*
X9939643Y-15968452D01*
X9930119Y-15958928D01*
X9920595Y-15939881D01*
X9911071Y-15901786D01*
X9911071Y-15854167D01*
X9920595Y-15816071D01*
X9930119Y-15797024D01*
X9939643Y-15787500D01*
X9958690Y-15777976D01*
X10263452Y-15977976D02*
X10263452Y-15777976D01*
X10349167Y-15977976D02*
X10349167Y-15873214D01*
X10339643Y-15854167D01*
X10320595Y-15844643D01*
X10292024Y-15844643D01*
X10272976Y-15854167D01*
X10263452Y-15863690D01*
X10472976Y-15977976D02*
X10453929Y-15968452D01*
X10444405Y-15958928D01*
X10434881Y-15939881D01*
X10434881Y-15882738D01*
X10444405Y-15863690D01*
X10453929Y-15854167D01*
X10472976Y-15844643D01*
X10501548Y-15844643D01*
X10520595Y-15854167D01*
X10530119Y-15863690D01*
X10539643Y-15882738D01*
X10539643Y-15939881D01*
X10530119Y-15958928D01*
X10520595Y-15968452D01*
X10501548Y-15977976D01*
X10472976Y-15977976D01*
X10653929Y-15977976D02*
X10634881Y-15968452D01*
X10625357Y-15949405D01*
X10625357Y-15777976D01*
X10806310Y-15968452D02*
X10787262Y-15977976D01*
X10749167Y-15977976D01*
X10730119Y-15968452D01*
X10720595Y-15949405D01*
X10720595Y-15873214D01*
X10730119Y-15854167D01*
X10749167Y-15844643D01*
X10787262Y-15844643D01*
X10806310Y-15854167D01*
X10815833Y-15873214D01*
X10815833Y-15892262D01*
X10720595Y-15911309D01*
X10892024Y-15968452D02*
X10911071Y-15977976D01*
X10949167Y-15977976D01*
X10968214Y-15968452D01*
X10977738Y-15949405D01*
X10977738Y-15939881D01*
X10968214Y-15920833D01*
X10949167Y-15911309D01*
X10920595Y-15911309D01*
X10901548Y-15901786D01*
X10892024Y-15882738D01*
X10892024Y-15873214D01*
X10901548Y-15854167D01*
X10920595Y-15844643D01*
X10949167Y-15844643D01*
X10968214Y-15854167D01*
X11215833Y-15901786D02*
X11368214Y-15901786D01*
X11292024Y-15977976D02*
X11292024Y-15825595D01*
X11644405Y-15863690D02*
X11625357Y-15854167D01*
X11615833Y-15844643D01*
X11606309Y-15825595D01*
X11606309Y-15816071D01*
X11615833Y-15797024D01*
X11625357Y-15787500D01*
X11644405Y-15777976D01*
X11682500Y-15777976D01*
X11701548Y-15787500D01*
X11711071Y-15797024D01*
X11720595Y-15816071D01*
X11720595Y-15825595D01*
X11711071Y-15844643D01*
X11701548Y-15854167D01*
X11682500Y-15863690D01*
X11644405Y-15863690D01*
X11625357Y-15873214D01*
X11615833Y-15882738D01*
X11606309Y-15901786D01*
X11606309Y-15939881D01*
X11615833Y-15958928D01*
X11625357Y-15968452D01*
X11644405Y-15977976D01*
X11682500Y-15977976D01*
X11701548Y-15968452D01*
X11711071Y-15958928D01*
X11720595Y-15939881D01*
X11720595Y-15901786D01*
X11711071Y-15882738D01*
X11701548Y-15873214D01*
X11682500Y-15863690D01*
X11949167Y-15968452D02*
X11968214Y-15977976D01*
X12006309Y-15977976D01*
X12025357Y-15968452D01*
X12034881Y-15949405D01*
X12034881Y-15939881D01*
X12025357Y-15920833D01*
X12006309Y-15911309D01*
X11977738Y-15911309D01*
X11958690Y-15901786D01*
X11949167Y-15882738D01*
X11949167Y-15873214D01*
X11958690Y-15854167D01*
X11977738Y-15844643D01*
X12006309Y-15844643D01*
X12025357Y-15854167D01*
X12149167Y-15977976D02*
X12130119Y-15968452D01*
X12120595Y-15949405D01*
X12120595Y-15777976D01*
X12253928Y-15977976D02*
X12234881Y-15968452D01*
X12225357Y-15958928D01*
X12215833Y-15939881D01*
X12215833Y-15882738D01*
X12225357Y-15863690D01*
X12234881Y-15854167D01*
X12253928Y-15844643D01*
X12282500Y-15844643D01*
X12301548Y-15854167D01*
X12311071Y-15863690D01*
X12320595Y-15882738D01*
X12320595Y-15939881D01*
X12311071Y-15958928D01*
X12301548Y-15968452D01*
X12282500Y-15977976D01*
X12253928Y-15977976D01*
X12377738Y-15844643D02*
X12453928Y-15844643D01*
X12406309Y-15777976D02*
X12406309Y-15949405D01*
X12415833Y-15968452D01*
X12434881Y-15977976D01*
X12453928Y-15977976D01*
X12511071Y-15968452D02*
X12530119Y-15977976D01*
X12568214Y-15977976D01*
X12587262Y-15968452D01*
X12596786Y-15949405D01*
X12596786Y-15939881D01*
X12587262Y-15920833D01*
X12568214Y-15911309D01*
X12539643Y-15911309D01*
X12520595Y-15901786D01*
X12511071Y-15882738D01*
X12511071Y-15873214D01*
X12520595Y-15854167D01*
X12539643Y-15844643D01*
X12568214Y-15844643D01*
X12587262Y-15854167D01*
X12663452Y-16054167D02*
X12672976Y-16044643D01*
X12692024Y-16016071D01*
X12701548Y-15997024D01*
X12711071Y-15968452D01*
X12720595Y-15920833D01*
X12720595Y-15882738D01*
X12711071Y-15835119D01*
X12701548Y-15806548D01*
X12692024Y-15787500D01*
X12672976Y-15758928D01*
X12663452Y-15749405D01*
D17*
X6182500Y-16106500D02*
X6272500Y-16196500D01*
X6272500Y-16106500D02*
X6182500Y-16196500D01*
X6227500Y-16106500D02*
X6227500Y-16196500D01*
X6182500Y-16151500D02*
X6272500Y-16151500D01*
D11*
X6568214Y-16041976D02*
X6587262Y-16041976D01*
X6606309Y-16051500D01*
X6615833Y-16061024D01*
X6625357Y-16080071D01*
X6634881Y-16118167D01*
X6634881Y-16165786D01*
X6625357Y-16203881D01*
X6615833Y-16222928D01*
X6606309Y-16232452D01*
X6587262Y-16241976D01*
X6568214Y-16241976D01*
X6549167Y-16232452D01*
X6539643Y-16222928D01*
X6530119Y-16203881D01*
X6520595Y-16165786D01*
X6520595Y-16118167D01*
X6530119Y-16080071D01*
X6539643Y-16061024D01*
X6549167Y-16051500D01*
X6568214Y-16041976D01*
X6720595Y-16222928D02*
X6730119Y-16232452D01*
X6720595Y-16241976D01*
X6711071Y-16232452D01*
X6720595Y-16222928D01*
X6720595Y-16241976D01*
X6825357Y-16241976D02*
X6863452Y-16241976D01*
X6882500Y-16232452D01*
X6892024Y-16222928D01*
X6911071Y-16194357D01*
X6920595Y-16156262D01*
X6920595Y-16080071D01*
X6911071Y-16061024D01*
X6901548Y-16051500D01*
X6882500Y-16041976D01*
X6844405Y-16041976D01*
X6825357Y-16051500D01*
X6815833Y-16061024D01*
X6806309Y-16080071D01*
X6806309Y-16127690D01*
X6815833Y-16146738D01*
X6825357Y-16156262D01*
X6844405Y-16165786D01*
X6882500Y-16165786D01*
X6901548Y-16156262D01*
X6911071Y-16146738D01*
X6920595Y-16127690D01*
X7044405Y-16041976D02*
X7063452Y-16041976D01*
X7082500Y-16051500D01*
X7092024Y-16061024D01*
X7101548Y-16080071D01*
X7111071Y-16118167D01*
X7111071Y-16165786D01*
X7101548Y-16203881D01*
X7092024Y-16222928D01*
X7082500Y-16232452D01*
X7063452Y-16241976D01*
X7044405Y-16241976D01*
X7025357Y-16232452D01*
X7015833Y-16222928D01*
X7006309Y-16203881D01*
X6996786Y-16165786D01*
X6996786Y-16118167D01*
X7006309Y-16080071D01*
X7015833Y-16061024D01*
X7025357Y-16051500D01*
X7044405Y-16041976D01*
X7234881Y-16041976D02*
X7253928Y-16041976D01*
X7272976Y-16051500D01*
X7282500Y-16061024D01*
X7292024Y-16080071D01*
X7301548Y-16118167D01*
X7301548Y-16165786D01*
X7292024Y-16203881D01*
X7282500Y-16222928D01*
X7272976Y-16232452D01*
X7253928Y-16241976D01*
X7234881Y-16241976D01*
X7215833Y-16232452D01*
X7206309Y-16222928D01*
X7196786Y-16203881D01*
X7187262Y-16165786D01*
X7187262Y-16118167D01*
X7196786Y-16080071D01*
X7206309Y-16061024D01*
X7215833Y-16051500D01*
X7234881Y-16041976D01*
X7387262Y-16241976D02*
X7387262Y-16108643D01*
X7387262Y-16127690D02*
X7396786Y-16118167D01*
X7415833Y-16108643D01*
X7444405Y-16108643D01*
X7463452Y-16118167D01*
X7472976Y-16137214D01*
X7472976Y-16241976D01*
X7472976Y-16137214D02*
X7482500Y-16118167D01*
X7501548Y-16108643D01*
X7530119Y-16108643D01*
X7549167Y-16118167D01*
X7558690Y-16137214D01*
X7558690Y-16241976D01*
X7653928Y-16241976D02*
X7653928Y-16108643D01*
X7653928Y-16127690D02*
X7663452Y-16118167D01*
X7682500Y-16108643D01*
X7711071Y-16108643D01*
X7730119Y-16118167D01*
X7739643Y-16137214D01*
X7739643Y-16241976D01*
X7739643Y-16137214D02*
X7749167Y-16118167D01*
X7768214Y-16108643D01*
X7796786Y-16108643D01*
X7815833Y-16118167D01*
X7825357Y-16137214D01*
X7825357Y-16241976D01*
X8215833Y-16032452D02*
X8044405Y-16289595D01*
X8472976Y-16041976D02*
X8492024Y-16041976D01*
X8511071Y-16051500D01*
X8520595Y-16061024D01*
X8530119Y-16080071D01*
X8539643Y-16118167D01*
X8539643Y-16165786D01*
X8530119Y-16203881D01*
X8520595Y-16222928D01*
X8511071Y-16232452D01*
X8492024Y-16241976D01*
X8472976Y-16241976D01*
X8453929Y-16232452D01*
X8444405Y-16222928D01*
X8434881Y-16203881D01*
X8425357Y-16165786D01*
X8425357Y-16118167D01*
X8434881Y-16080071D01*
X8444405Y-16061024D01*
X8453929Y-16051500D01*
X8472976Y-16041976D01*
X8625357Y-16222928D02*
X8634881Y-16232452D01*
X8625357Y-16241976D01*
X8615833Y-16232452D01*
X8625357Y-16222928D01*
X8625357Y-16241976D01*
X8758690Y-16041976D02*
X8777738Y-16041976D01*
X8796786Y-16051500D01*
X8806310Y-16061024D01*
X8815833Y-16080071D01*
X8825357Y-16118167D01*
X8825357Y-16165786D01*
X8815833Y-16203881D01*
X8806310Y-16222928D01*
X8796786Y-16232452D01*
X8777738Y-16241976D01*
X8758690Y-16241976D01*
X8739643Y-16232452D01*
X8730119Y-16222928D01*
X8720595Y-16203881D01*
X8711071Y-16165786D01*
X8711071Y-16118167D01*
X8720595Y-16080071D01*
X8730119Y-16061024D01*
X8739643Y-16051500D01*
X8758690Y-16041976D01*
X8892024Y-16041976D02*
X9015833Y-16041976D01*
X8949167Y-16118167D01*
X8977738Y-16118167D01*
X8996786Y-16127690D01*
X9006310Y-16137214D01*
X9015833Y-16156262D01*
X9015833Y-16203881D01*
X9006310Y-16222928D01*
X8996786Y-16232452D01*
X8977738Y-16241976D01*
X8920595Y-16241976D01*
X8901548Y-16232452D01*
X8892024Y-16222928D01*
X9196786Y-16041976D02*
X9101548Y-16041976D01*
X9092024Y-16137214D01*
X9101548Y-16127690D01*
X9120595Y-16118167D01*
X9168214Y-16118167D01*
X9187262Y-16127690D01*
X9196786Y-16137214D01*
X9206310Y-16156262D01*
X9206310Y-16203881D01*
X9196786Y-16222928D01*
X9187262Y-16232452D01*
X9168214Y-16241976D01*
X9120595Y-16241976D01*
X9101548Y-16232452D01*
X9092024Y-16222928D01*
X9377738Y-16108643D02*
X9377738Y-16241976D01*
X9330119Y-16032452D02*
X9282500Y-16175309D01*
X9406310Y-16175309D01*
X9472976Y-16041976D02*
X9472976Y-16080071D01*
X9549167Y-16041976D02*
X9549167Y-16080071D01*
X9844405Y-16318167D02*
X9834881Y-16308643D01*
X9815833Y-16280071D01*
X9806310Y-16261024D01*
X9796786Y-16232452D01*
X9787262Y-16184833D01*
X9787262Y-16146738D01*
X9796786Y-16099119D01*
X9806310Y-16070548D01*
X9815833Y-16051500D01*
X9834881Y-16022928D01*
X9844405Y-16013405D01*
X9949167Y-16127690D02*
X9930119Y-16118167D01*
X9920595Y-16108643D01*
X9911071Y-16089595D01*
X9911071Y-16080071D01*
X9920595Y-16061024D01*
X9930119Y-16051500D01*
X9949167Y-16041976D01*
X9987262Y-16041976D01*
X10006310Y-16051500D01*
X10015833Y-16061024D01*
X10025357Y-16080071D01*
X10025357Y-16089595D01*
X10015833Y-16108643D01*
X10006310Y-16118167D01*
X9987262Y-16127690D01*
X9949167Y-16127690D01*
X9930119Y-16137214D01*
X9920595Y-16146738D01*
X9911071Y-16165786D01*
X9911071Y-16203881D01*
X9920595Y-16222928D01*
X9930119Y-16232452D01*
X9949167Y-16241976D01*
X9987262Y-16241976D01*
X10006310Y-16232452D01*
X10015833Y-16222928D01*
X10025357Y-16203881D01*
X10025357Y-16165786D01*
X10015833Y-16146738D01*
X10006310Y-16137214D01*
X9987262Y-16127690D01*
X10263452Y-16241976D02*
X10263452Y-16041976D01*
X10349167Y-16241976D02*
X10349167Y-16137214D01*
X10339643Y-16118167D01*
X10320595Y-16108643D01*
X10292024Y-16108643D01*
X10272976Y-16118167D01*
X10263452Y-16127690D01*
X10472976Y-16241976D02*
X10453929Y-16232452D01*
X10444405Y-16222928D01*
X10434881Y-16203881D01*
X10434881Y-16146738D01*
X10444405Y-16127690D01*
X10453929Y-16118167D01*
X10472976Y-16108643D01*
X10501548Y-16108643D01*
X10520595Y-16118167D01*
X10530119Y-16127690D01*
X10539643Y-16146738D01*
X10539643Y-16203881D01*
X10530119Y-16222928D01*
X10520595Y-16232452D01*
X10501548Y-16241976D01*
X10472976Y-16241976D01*
X10653929Y-16241976D02*
X10634881Y-16232452D01*
X10625357Y-16213405D01*
X10625357Y-16041976D01*
X10806310Y-16232452D02*
X10787262Y-16241976D01*
X10749167Y-16241976D01*
X10730119Y-16232452D01*
X10720595Y-16213405D01*
X10720595Y-16137214D01*
X10730119Y-16118167D01*
X10749167Y-16108643D01*
X10787262Y-16108643D01*
X10806310Y-16118167D01*
X10815833Y-16137214D01*
X10815833Y-16156262D01*
X10720595Y-16175309D01*
X10892024Y-16232452D02*
X10911071Y-16241976D01*
X10949167Y-16241976D01*
X10968214Y-16232452D01*
X10977738Y-16213405D01*
X10977738Y-16203881D01*
X10968214Y-16184833D01*
X10949167Y-16175309D01*
X10920595Y-16175309D01*
X10901548Y-16165786D01*
X10892024Y-16146738D01*
X10892024Y-16137214D01*
X10901548Y-16118167D01*
X10920595Y-16108643D01*
X10949167Y-16108643D01*
X10968214Y-16118167D01*
X11044405Y-16318167D02*
X11053929Y-16308643D01*
X11072976Y-16280071D01*
X11082500Y-16261024D01*
X11092024Y-16232452D01*
X11101548Y-16184833D01*
X11101548Y-16146738D01*
X11092024Y-16099119D01*
X11082500Y-16070548D01*
X11072976Y-16051500D01*
X11053929Y-16022928D01*
X11044405Y-16013405D01*
D18*
X6153500Y-16356000D02*
X6272500Y-16475000D01*
X6272500Y-16356000D02*
X6153500Y-16475000D01*
X6255073Y-16457573D02*
X6255073Y-16373427D01*
X6170927Y-16373427D01*
X6170927Y-16457573D01*
X6255073Y-16457573D01*
D11*
X6634881Y-16505976D02*
X6520595Y-16505976D01*
X6577738Y-16505976D02*
X6577738Y-16305976D01*
X6558690Y-16334548D01*
X6539643Y-16353595D01*
X6520595Y-16363119D01*
X6720595Y-16486928D02*
X6730119Y-16496452D01*
X6720595Y-16505976D01*
X6711071Y-16496452D01*
X6720595Y-16486928D01*
X6720595Y-16505976D01*
X6920595Y-16505976D02*
X6806309Y-16505976D01*
X6863452Y-16505976D02*
X6863452Y-16305976D01*
X6844405Y-16334548D01*
X6825357Y-16353595D01*
X6806309Y-16363119D01*
X7015833Y-16505976D02*
X7053928Y-16505976D01*
X7072976Y-16496452D01*
X7082500Y-16486928D01*
X7101548Y-16458357D01*
X7111071Y-16420262D01*
X7111071Y-16344071D01*
X7101548Y-16325024D01*
X7092024Y-16315500D01*
X7072976Y-16305976D01*
X7034881Y-16305976D01*
X7015833Y-16315500D01*
X7006309Y-16325024D01*
X6996786Y-16344071D01*
X6996786Y-16391690D01*
X7006309Y-16410738D01*
X7015833Y-16420262D01*
X7034881Y-16429786D01*
X7072976Y-16429786D01*
X7092024Y-16420262D01*
X7101548Y-16410738D01*
X7111071Y-16391690D01*
X7234881Y-16305976D02*
X7253928Y-16305976D01*
X7272976Y-16315500D01*
X7282500Y-16325024D01*
X7292024Y-16344071D01*
X7301548Y-16382167D01*
X7301548Y-16429786D01*
X7292024Y-16467881D01*
X7282500Y-16486928D01*
X7272976Y-16496452D01*
X7253928Y-16505976D01*
X7234881Y-16505976D01*
X7215833Y-16496452D01*
X7206309Y-16486928D01*
X7196786Y-16467881D01*
X7187262Y-16429786D01*
X7187262Y-16382167D01*
X7196786Y-16344071D01*
X7206309Y-16325024D01*
X7215833Y-16315500D01*
X7234881Y-16305976D01*
X7387262Y-16505976D02*
X7387262Y-16372643D01*
X7387262Y-16391690D02*
X7396786Y-16382167D01*
X7415833Y-16372643D01*
X7444405Y-16372643D01*
X7463452Y-16382167D01*
X7472976Y-16401214D01*
X7472976Y-16505976D01*
X7472976Y-16401214D02*
X7482500Y-16382167D01*
X7501548Y-16372643D01*
X7530119Y-16372643D01*
X7549167Y-16382167D01*
X7558690Y-16401214D01*
X7558690Y-16505976D01*
X7653928Y-16505976D02*
X7653928Y-16372643D01*
X7653928Y-16391690D02*
X7663452Y-16382167D01*
X7682500Y-16372643D01*
X7711071Y-16372643D01*
X7730119Y-16382167D01*
X7739643Y-16401214D01*
X7739643Y-16505976D01*
X7739643Y-16401214D02*
X7749167Y-16382167D01*
X7768214Y-16372643D01*
X7796786Y-16372643D01*
X7815833Y-16382167D01*
X7825357Y-16401214D01*
X7825357Y-16505976D01*
X8215833Y-16296452D02*
X8044405Y-16553595D01*
X8472976Y-16305976D02*
X8492024Y-16305976D01*
X8511071Y-16315500D01*
X8520595Y-16325024D01*
X8530119Y-16344071D01*
X8539643Y-16382167D01*
X8539643Y-16429786D01*
X8530119Y-16467881D01*
X8520595Y-16486928D01*
X8511071Y-16496452D01*
X8492024Y-16505976D01*
X8472976Y-16505976D01*
X8453929Y-16496452D01*
X8444405Y-16486928D01*
X8434881Y-16467881D01*
X8425357Y-16429786D01*
X8425357Y-16382167D01*
X8434881Y-16344071D01*
X8444405Y-16325024D01*
X8453929Y-16315500D01*
X8472976Y-16305976D01*
X8625357Y-16486928D02*
X8634881Y-16496452D01*
X8625357Y-16505976D01*
X8615833Y-16496452D01*
X8625357Y-16486928D01*
X8625357Y-16505976D01*
X8758690Y-16305976D02*
X8777738Y-16305976D01*
X8796786Y-16315500D01*
X8806310Y-16325024D01*
X8815833Y-16344071D01*
X8825357Y-16382167D01*
X8825357Y-16429786D01*
X8815833Y-16467881D01*
X8806310Y-16486928D01*
X8796786Y-16496452D01*
X8777738Y-16505976D01*
X8758690Y-16505976D01*
X8739643Y-16496452D01*
X8730119Y-16486928D01*
X8720595Y-16467881D01*
X8711071Y-16429786D01*
X8711071Y-16382167D01*
X8720595Y-16344071D01*
X8730119Y-16325024D01*
X8739643Y-16315500D01*
X8758690Y-16305976D01*
X8996786Y-16372643D02*
X8996786Y-16505976D01*
X8949167Y-16296452D02*
X8901548Y-16439309D01*
X9025357Y-16439309D01*
X9187262Y-16305976D02*
X9149167Y-16305976D01*
X9130119Y-16315500D01*
X9120595Y-16325024D01*
X9101548Y-16353595D01*
X9092024Y-16391690D01*
X9092024Y-16467881D01*
X9101548Y-16486928D01*
X9111071Y-16496452D01*
X9130119Y-16505976D01*
X9168214Y-16505976D01*
X9187262Y-16496452D01*
X9196786Y-16486928D01*
X9206310Y-16467881D01*
X9206310Y-16420262D01*
X9196786Y-16401214D01*
X9187262Y-16391690D01*
X9168214Y-16382167D01*
X9130119Y-16382167D01*
X9111071Y-16391690D01*
X9101548Y-16401214D01*
X9092024Y-16420262D01*
X9301548Y-16505976D02*
X9339643Y-16505976D01*
X9358690Y-16496452D01*
X9368214Y-16486928D01*
X9387262Y-16458357D01*
X9396786Y-16420262D01*
X9396786Y-16344071D01*
X9387262Y-16325024D01*
X9377738Y-16315500D01*
X9358690Y-16305976D01*
X9320595Y-16305976D01*
X9301548Y-16315500D01*
X9292024Y-16325024D01*
X9282500Y-16344071D01*
X9282500Y-16391690D01*
X9292024Y-16410738D01*
X9301548Y-16420262D01*
X9320595Y-16429786D01*
X9358690Y-16429786D01*
X9377738Y-16420262D01*
X9387262Y-16410738D01*
X9396786Y-16391690D01*
X9472976Y-16305976D02*
X9472976Y-16344071D01*
X9549167Y-16305976D02*
X9549167Y-16344071D01*
X9844405Y-16582167D02*
X9834881Y-16572643D01*
X9815833Y-16544071D01*
X9806310Y-16525024D01*
X9796786Y-16496452D01*
X9787262Y-16448833D01*
X9787262Y-16410738D01*
X9796786Y-16363119D01*
X9806310Y-16334548D01*
X9815833Y-16315500D01*
X9834881Y-16286928D01*
X9844405Y-16277405D01*
X10006310Y-16372643D02*
X10006310Y-16505976D01*
X9958690Y-16296452D02*
X9911071Y-16439309D01*
X10034881Y-16439309D01*
X10120595Y-16505976D02*
X10158690Y-16505976D01*
X10177738Y-16496452D01*
X10187262Y-16486928D01*
X10206310Y-16458357D01*
X10215833Y-16420262D01*
X10215833Y-16344071D01*
X10206310Y-16325024D01*
X10196786Y-16315500D01*
X10177738Y-16305976D01*
X10139643Y-16305976D01*
X10120595Y-16315500D01*
X10111071Y-16325024D01*
X10101548Y-16344071D01*
X10101548Y-16391690D01*
X10111071Y-16410738D01*
X10120595Y-16420262D01*
X10139643Y-16429786D01*
X10177738Y-16429786D01*
X10196786Y-16420262D01*
X10206310Y-16410738D01*
X10215833Y-16391690D01*
X10453929Y-16505976D02*
X10453929Y-16305976D01*
X10539643Y-16505976D02*
X10539643Y-16401214D01*
X10530119Y-16382167D01*
X10511071Y-16372643D01*
X10482500Y-16372643D01*
X10463452Y-16382167D01*
X10453929Y-16391690D01*
X10663452Y-16505976D02*
X10644405Y-16496452D01*
X10634881Y-16486928D01*
X10625357Y-16467881D01*
X10625357Y-16410738D01*
X10634881Y-16391690D01*
X10644405Y-16382167D01*
X10663452Y-16372643D01*
X10692024Y-16372643D01*
X10711071Y-16382167D01*
X10720595Y-16391690D01*
X10730119Y-16410738D01*
X10730119Y-16467881D01*
X10720595Y-16486928D01*
X10711071Y-16496452D01*
X10692024Y-16505976D01*
X10663452Y-16505976D01*
X10844405Y-16505976D02*
X10825357Y-16496452D01*
X10815833Y-16477405D01*
X10815833Y-16305976D01*
X10996786Y-16496452D02*
X10977738Y-16505976D01*
X10939643Y-16505976D01*
X10920595Y-16496452D01*
X10911071Y-16477405D01*
X10911071Y-16401214D01*
X10920595Y-16382167D01*
X10939643Y-16372643D01*
X10977738Y-16372643D01*
X10996786Y-16382167D01*
X11006310Y-16401214D01*
X11006310Y-16420262D01*
X10911071Y-16439309D01*
X11082500Y-16496452D02*
X11101548Y-16505976D01*
X11139643Y-16505976D01*
X11158690Y-16496452D01*
X11168214Y-16477405D01*
X11168214Y-16467881D01*
X11158690Y-16448833D01*
X11139643Y-16439309D01*
X11111071Y-16439309D01*
X11092024Y-16429786D01*
X11082500Y-16410738D01*
X11082500Y-16401214D01*
X11092024Y-16382167D01*
X11111071Y-16372643D01*
X11139643Y-16372643D01*
X11158690Y-16382167D01*
X11234881Y-16582167D02*
X11244405Y-16572643D01*
X11263452Y-16544071D01*
X11272976Y-16525024D01*
X11282500Y-16496452D01*
X11292024Y-16448833D01*
X11292024Y-16410738D01*
X11282500Y-16363119D01*
X11272976Y-16334548D01*
X11263452Y-16315500D01*
X11244405Y-16286928D01*
X11234881Y-16277405D01*
X6072500Y-16579500D02*
X6272500Y-16779500D01*
X6272500Y-16579500D02*
X6072500Y-16779500D01*
X6172500Y-16779500D02*
X6272500Y-16679500D01*
X6172500Y-16579500D01*
X6072500Y-16679500D01*
X6172500Y-16779500D01*
X6511071Y-16569976D02*
X6634881Y-16569976D01*
X6568214Y-16646167D01*
X6596786Y-16646167D01*
X6615833Y-16655690D01*
X6625357Y-16665214D01*
X6634881Y-16684262D01*
X6634881Y-16731881D01*
X6625357Y-16750928D01*
X6615833Y-16760452D01*
X6596786Y-16769976D01*
X6539643Y-16769976D01*
X6520595Y-16760452D01*
X6511071Y-16750928D01*
X6720595Y-16750928D02*
X6730119Y-16760452D01*
X6720595Y-16769976D01*
X6711071Y-16760452D01*
X6720595Y-16750928D01*
X6720595Y-16769976D01*
X6911071Y-16569976D02*
X6815833Y-16569976D01*
X6806309Y-16665214D01*
X6815833Y-16655690D01*
X6834881Y-16646167D01*
X6882500Y-16646167D01*
X6901548Y-16655690D01*
X6911071Y-16665214D01*
X6920595Y-16684262D01*
X6920595Y-16731881D01*
X6911071Y-16750928D01*
X6901548Y-16760452D01*
X6882500Y-16769976D01*
X6834881Y-16769976D01*
X6815833Y-16760452D01*
X6806309Y-16750928D01*
X7044405Y-16569976D02*
X7063452Y-16569976D01*
X7082500Y-16579500D01*
X7092024Y-16589024D01*
X7101548Y-16608071D01*
X7111071Y-16646167D01*
X7111071Y-16693786D01*
X7101548Y-16731881D01*
X7092024Y-16750928D01*
X7082500Y-16760452D01*
X7063452Y-16769976D01*
X7044405Y-16769976D01*
X7025357Y-16760452D01*
X7015833Y-16750928D01*
X7006309Y-16731881D01*
X6996786Y-16693786D01*
X6996786Y-16646167D01*
X7006309Y-16608071D01*
X7015833Y-16589024D01*
X7025357Y-16579500D01*
X7044405Y-16569976D01*
X7234881Y-16569976D02*
X7253928Y-16569976D01*
X7272976Y-16579500D01*
X7282500Y-16589024D01*
X7292024Y-16608071D01*
X7301548Y-16646167D01*
X7301548Y-16693786D01*
X7292024Y-16731881D01*
X7282500Y-16750928D01*
X7272976Y-16760452D01*
X7253928Y-16769976D01*
X7234881Y-16769976D01*
X7215833Y-16760452D01*
X7206309Y-16750928D01*
X7196786Y-16731881D01*
X7187262Y-16693786D01*
X7187262Y-16646167D01*
X7196786Y-16608071D01*
X7206309Y-16589024D01*
X7215833Y-16579500D01*
X7234881Y-16569976D01*
X7387262Y-16769976D02*
X7387262Y-16636643D01*
X7387262Y-16655690D02*
X7396786Y-16646167D01*
X7415833Y-16636643D01*
X7444405Y-16636643D01*
X7463452Y-16646167D01*
X7472976Y-16665214D01*
X7472976Y-16769976D01*
X7472976Y-16665214D02*
X7482500Y-16646167D01*
X7501548Y-16636643D01*
X7530119Y-16636643D01*
X7549167Y-16646167D01*
X7558690Y-16665214D01*
X7558690Y-16769976D01*
X7653928Y-16769976D02*
X7653928Y-16636643D01*
X7653928Y-16655690D02*
X7663452Y-16646167D01*
X7682500Y-16636643D01*
X7711071Y-16636643D01*
X7730119Y-16646167D01*
X7739643Y-16665214D01*
X7739643Y-16769976D01*
X7739643Y-16665214D02*
X7749167Y-16646167D01*
X7768214Y-16636643D01*
X7796786Y-16636643D01*
X7815833Y-16646167D01*
X7825357Y-16665214D01*
X7825357Y-16769976D01*
X8215833Y-16560452D02*
X8044405Y-16817595D01*
X8472976Y-16569976D02*
X8492024Y-16569976D01*
X8511071Y-16579500D01*
X8520595Y-16589024D01*
X8530119Y-16608071D01*
X8539643Y-16646167D01*
X8539643Y-16693786D01*
X8530119Y-16731881D01*
X8520595Y-16750928D01*
X8511071Y-16760452D01*
X8492024Y-16769976D01*
X8472976Y-16769976D01*
X8453929Y-16760452D01*
X8444405Y-16750928D01*
X8434881Y-16731881D01*
X8425357Y-16693786D01*
X8425357Y-16646167D01*
X8434881Y-16608071D01*
X8444405Y-16589024D01*
X8453929Y-16579500D01*
X8472976Y-16569976D01*
X8625357Y-16750928D02*
X8634881Y-16760452D01*
X8625357Y-16769976D01*
X8615833Y-16760452D01*
X8625357Y-16750928D01*
X8625357Y-16769976D01*
X8825357Y-16769976D02*
X8711071Y-16769976D01*
X8768214Y-16769976D02*
X8768214Y-16569976D01*
X8749167Y-16598548D01*
X8730119Y-16617595D01*
X8711071Y-16627119D01*
X8892024Y-16569976D02*
X9015833Y-16569976D01*
X8949167Y-16646167D01*
X8977738Y-16646167D01*
X8996786Y-16655690D01*
X9006310Y-16665214D01*
X9015833Y-16684262D01*
X9015833Y-16731881D01*
X9006310Y-16750928D01*
X8996786Y-16760452D01*
X8977738Y-16769976D01*
X8920595Y-16769976D01*
X8901548Y-16760452D01*
X8892024Y-16750928D01*
X9082500Y-16569976D02*
X9215833Y-16569976D01*
X9130119Y-16769976D01*
X9320595Y-16655690D02*
X9301548Y-16646167D01*
X9292024Y-16636643D01*
X9282500Y-16617595D01*
X9282500Y-16608071D01*
X9292024Y-16589024D01*
X9301548Y-16579500D01*
X9320595Y-16569976D01*
X9358690Y-16569976D01*
X9377738Y-16579500D01*
X9387262Y-16589024D01*
X9396786Y-16608071D01*
X9396786Y-16617595D01*
X9387262Y-16636643D01*
X9377738Y-16646167D01*
X9358690Y-16655690D01*
X9320595Y-16655690D01*
X9301548Y-16665214D01*
X9292024Y-16674738D01*
X9282500Y-16693786D01*
X9282500Y-16731881D01*
X9292024Y-16750928D01*
X9301548Y-16760452D01*
X9320595Y-16769976D01*
X9358690Y-16769976D01*
X9377738Y-16760452D01*
X9387262Y-16750928D01*
X9396786Y-16731881D01*
X9396786Y-16693786D01*
X9387262Y-16674738D01*
X9377738Y-16665214D01*
X9358690Y-16655690D01*
X9472976Y-16569976D02*
X9472976Y-16608071D01*
X9549167Y-16569976D02*
X9549167Y-16608071D01*
X9844405Y-16846167D02*
X9834881Y-16836643D01*
X9815833Y-16808071D01*
X9806310Y-16789024D01*
X9796786Y-16760452D01*
X9787262Y-16712833D01*
X9787262Y-16674738D01*
X9796786Y-16627119D01*
X9806310Y-16598548D01*
X9815833Y-16579500D01*
X9834881Y-16550928D01*
X9844405Y-16541405D01*
X10006310Y-16569976D02*
X9968214Y-16569976D01*
X9949167Y-16579500D01*
X9939643Y-16589024D01*
X9920595Y-16617595D01*
X9911071Y-16655690D01*
X9911071Y-16731881D01*
X9920595Y-16750928D01*
X9930119Y-16760452D01*
X9949167Y-16769976D01*
X9987262Y-16769976D01*
X10006310Y-16760452D01*
X10015833Y-16750928D01*
X10025357Y-16731881D01*
X10025357Y-16684262D01*
X10015833Y-16665214D01*
X10006310Y-16655690D01*
X9987262Y-16646167D01*
X9949167Y-16646167D01*
X9930119Y-16655690D01*
X9920595Y-16665214D01*
X9911071Y-16684262D01*
X10263452Y-16769976D02*
X10263452Y-16569976D01*
X10349167Y-16769976D02*
X10349167Y-16665214D01*
X10339643Y-16646167D01*
X10320595Y-16636643D01*
X10292024Y-16636643D01*
X10272976Y-16646167D01*
X10263452Y-16655690D01*
X10472976Y-16769976D02*
X10453929Y-16760452D01*
X10444405Y-16750928D01*
X10434881Y-16731881D01*
X10434881Y-16674738D01*
X10444405Y-16655690D01*
X10453929Y-16646167D01*
X10472976Y-16636643D01*
X10501548Y-16636643D01*
X10520595Y-16646167D01*
X10530119Y-16655690D01*
X10539643Y-16674738D01*
X10539643Y-16731881D01*
X10530119Y-16750928D01*
X10520595Y-16760452D01*
X10501548Y-16769976D01*
X10472976Y-16769976D01*
X10653929Y-16769976D02*
X10634881Y-16760452D01*
X10625357Y-16741405D01*
X10625357Y-16569976D01*
X10806310Y-16760452D02*
X10787262Y-16769976D01*
X10749167Y-16769976D01*
X10730119Y-16760452D01*
X10720595Y-16741405D01*
X10720595Y-16665214D01*
X10730119Y-16646167D01*
X10749167Y-16636643D01*
X10787262Y-16636643D01*
X10806310Y-16646167D01*
X10815833Y-16665214D01*
X10815833Y-16684262D01*
X10720595Y-16703309D01*
X10892024Y-16760452D02*
X10911071Y-16769976D01*
X10949167Y-16769976D01*
X10968214Y-16760452D01*
X10977738Y-16741405D01*
X10977738Y-16731881D01*
X10968214Y-16712833D01*
X10949167Y-16703309D01*
X10920595Y-16703309D01*
X10901548Y-16693786D01*
X10892024Y-16674738D01*
X10892024Y-16665214D01*
X10901548Y-16646167D01*
X10920595Y-16636643D01*
X10949167Y-16636643D01*
X10968214Y-16646167D01*
X11044405Y-16846167D02*
X11053929Y-16836643D01*
X11072976Y-16808071D01*
X11082500Y-16789024D01*
X11092024Y-16760452D01*
X11101548Y-16712833D01*
X11101548Y-16674738D01*
X11092024Y-16627119D01*
X11082500Y-16598548D01*
X11072976Y-16579500D01*
X11053929Y-16550928D01*
X11044405Y-16541405D01*
X6172500Y-16899500D02*
X6172500Y-17099500D01*
X6072500Y-16999500D02*
X6272500Y-16999500D01*
X6272500Y-16999500D02*
G75*
G03*
X6272500Y-16999500I-100000J0D01*
G01*
X6511071Y-16889976D02*
X6634881Y-16889976D01*
X6568214Y-16966167D01*
X6596786Y-16966167D01*
X6615833Y-16975690D01*
X6625357Y-16985214D01*
X6634881Y-17004262D01*
X6634881Y-17051881D01*
X6625357Y-17070929D01*
X6615833Y-17080452D01*
X6596786Y-17089976D01*
X6539643Y-17089976D01*
X6520595Y-17080452D01*
X6511071Y-17070929D01*
X6720595Y-17070929D02*
X6730119Y-17080452D01*
X6720595Y-17089976D01*
X6711071Y-17080452D01*
X6720595Y-17070929D01*
X6720595Y-17089976D01*
X6825357Y-17089976D02*
X6863452Y-17089976D01*
X6882500Y-17080452D01*
X6892024Y-17070929D01*
X6911071Y-17042357D01*
X6920595Y-17004262D01*
X6920595Y-16928071D01*
X6911071Y-16909024D01*
X6901548Y-16899500D01*
X6882500Y-16889976D01*
X6844405Y-16889976D01*
X6825357Y-16899500D01*
X6815833Y-16909024D01*
X6806309Y-16928071D01*
X6806309Y-16975690D01*
X6815833Y-16994738D01*
X6825357Y-17004262D01*
X6844405Y-17013786D01*
X6882500Y-17013786D01*
X6901548Y-17004262D01*
X6911071Y-16994738D01*
X6920595Y-16975690D01*
X7044405Y-16889976D02*
X7063452Y-16889976D01*
X7082500Y-16899500D01*
X7092024Y-16909024D01*
X7101548Y-16928071D01*
X7111071Y-16966167D01*
X7111071Y-17013786D01*
X7101548Y-17051881D01*
X7092024Y-17070929D01*
X7082500Y-17080452D01*
X7063452Y-17089976D01*
X7044405Y-17089976D01*
X7025357Y-17080452D01*
X7015833Y-17070929D01*
X7006309Y-17051881D01*
X6996786Y-17013786D01*
X6996786Y-16966167D01*
X7006309Y-16928071D01*
X7015833Y-16909024D01*
X7025357Y-16899500D01*
X7044405Y-16889976D01*
X7234881Y-16889976D02*
X7253928Y-16889976D01*
X7272976Y-16899500D01*
X7282500Y-16909024D01*
X7292024Y-16928071D01*
X7301548Y-16966167D01*
X7301548Y-17013786D01*
X7292024Y-17051881D01*
X7282500Y-17070929D01*
X7272976Y-17080452D01*
X7253928Y-17089976D01*
X7234881Y-17089976D01*
X7215833Y-17080452D01*
X7206309Y-17070929D01*
X7196786Y-17051881D01*
X7187262Y-17013786D01*
X7187262Y-16966167D01*
X7196786Y-16928071D01*
X7206309Y-16909024D01*
X7215833Y-16899500D01*
X7234881Y-16889976D01*
X7387262Y-17089976D02*
X7387262Y-16956643D01*
X7387262Y-16975690D02*
X7396786Y-16966167D01*
X7415833Y-16956643D01*
X7444405Y-16956643D01*
X7463452Y-16966167D01*
X7472976Y-16985214D01*
X7472976Y-17089976D01*
X7472976Y-16985214D02*
X7482500Y-16966167D01*
X7501548Y-16956643D01*
X7530119Y-16956643D01*
X7549167Y-16966167D01*
X7558690Y-16985214D01*
X7558690Y-17089976D01*
X7653928Y-17089976D02*
X7653928Y-16956643D01*
X7653928Y-16975690D02*
X7663452Y-16966167D01*
X7682500Y-16956643D01*
X7711071Y-16956643D01*
X7730119Y-16966167D01*
X7739643Y-16985214D01*
X7739643Y-17089976D01*
X7739643Y-16985214D02*
X7749167Y-16966167D01*
X7768214Y-16956643D01*
X7796786Y-16956643D01*
X7815833Y-16966167D01*
X7825357Y-16985214D01*
X7825357Y-17089976D01*
X8215833Y-16880452D02*
X8044405Y-17137595D01*
X8472976Y-16889976D02*
X8492024Y-16889976D01*
X8511071Y-16899500D01*
X8520595Y-16909024D01*
X8530119Y-16928071D01*
X8539643Y-16966167D01*
X8539643Y-17013786D01*
X8530119Y-17051881D01*
X8520595Y-17070929D01*
X8511071Y-17080452D01*
X8492024Y-17089976D01*
X8472976Y-17089976D01*
X8453929Y-17080452D01*
X8444405Y-17070929D01*
X8434881Y-17051881D01*
X8425357Y-17013786D01*
X8425357Y-16966167D01*
X8434881Y-16928071D01*
X8444405Y-16909024D01*
X8453929Y-16899500D01*
X8472976Y-16889976D01*
X8625357Y-17070929D02*
X8634881Y-17080452D01*
X8625357Y-17089976D01*
X8615833Y-17080452D01*
X8625357Y-17070929D01*
X8625357Y-17089976D01*
X8825357Y-17089976D02*
X8711071Y-17089976D01*
X8768214Y-17089976D02*
X8768214Y-16889976D01*
X8749167Y-16918548D01*
X8730119Y-16937595D01*
X8711071Y-16947119D01*
X9006310Y-16889976D02*
X8911071Y-16889976D01*
X8901548Y-16985214D01*
X8911071Y-16975690D01*
X8930119Y-16966167D01*
X8977738Y-16966167D01*
X8996786Y-16975690D01*
X9006310Y-16985214D01*
X9015833Y-17004262D01*
X9015833Y-17051881D01*
X9006310Y-17070929D01*
X8996786Y-17080452D01*
X8977738Y-17089976D01*
X8930119Y-17089976D01*
X8911071Y-17080452D01*
X8901548Y-17070929D01*
X9082500Y-16889976D02*
X9206310Y-16889976D01*
X9139643Y-16966167D01*
X9168214Y-16966167D01*
X9187262Y-16975690D01*
X9196786Y-16985214D01*
X9206310Y-17004262D01*
X9206310Y-17051881D01*
X9196786Y-17070929D01*
X9187262Y-17080452D01*
X9168214Y-17089976D01*
X9111071Y-17089976D01*
X9092024Y-17080452D01*
X9082500Y-17070929D01*
X9387262Y-16889976D02*
X9292024Y-16889976D01*
X9282500Y-16985214D01*
X9292024Y-16975690D01*
X9311071Y-16966167D01*
X9358690Y-16966167D01*
X9377738Y-16975690D01*
X9387262Y-16985214D01*
X9396786Y-17004262D01*
X9396786Y-17051881D01*
X9387262Y-17070929D01*
X9377738Y-17080452D01*
X9358690Y-17089976D01*
X9311071Y-17089976D01*
X9292024Y-17080452D01*
X9282500Y-17070929D01*
X9472976Y-16889976D02*
X9472976Y-16928071D01*
X9549167Y-16889976D02*
X9549167Y-16928071D01*
X9844405Y-17166167D02*
X9834881Y-17156643D01*
X9815833Y-17128071D01*
X9806310Y-17109024D01*
X9796786Y-17080452D01*
X9787262Y-17032833D01*
X9787262Y-16994738D01*
X9796786Y-16947119D01*
X9806310Y-16918548D01*
X9815833Y-16899500D01*
X9834881Y-16870929D01*
X9844405Y-16861405D01*
X10006310Y-16956643D02*
X10006310Y-17089976D01*
X9958690Y-16880452D02*
X9911071Y-17023310D01*
X10034881Y-17023310D01*
X10263452Y-17089976D02*
X10263452Y-16889976D01*
X10349167Y-17089976D02*
X10349167Y-16985214D01*
X10339643Y-16966167D01*
X10320595Y-16956643D01*
X10292024Y-16956643D01*
X10272976Y-16966167D01*
X10263452Y-16975690D01*
X10472976Y-17089976D02*
X10453929Y-17080452D01*
X10444405Y-17070929D01*
X10434881Y-17051881D01*
X10434881Y-16994738D01*
X10444405Y-16975690D01*
X10453929Y-16966167D01*
X10472976Y-16956643D01*
X10501548Y-16956643D01*
X10520595Y-16966167D01*
X10530119Y-16975690D01*
X10539643Y-16994738D01*
X10539643Y-17051881D01*
X10530119Y-17070929D01*
X10520595Y-17080452D01*
X10501548Y-17089976D01*
X10472976Y-17089976D01*
X10653929Y-17089976D02*
X10634881Y-17080452D01*
X10625357Y-17061405D01*
X10625357Y-16889976D01*
X10806310Y-17080452D02*
X10787262Y-17089976D01*
X10749167Y-17089976D01*
X10730119Y-17080452D01*
X10720595Y-17061405D01*
X10720595Y-16985214D01*
X10730119Y-16966167D01*
X10749167Y-16956643D01*
X10787262Y-16956643D01*
X10806310Y-16966167D01*
X10815833Y-16985214D01*
X10815833Y-17004262D01*
X10720595Y-17023310D01*
X10892024Y-17080452D02*
X10911071Y-17089976D01*
X10949167Y-17089976D01*
X10968214Y-17080452D01*
X10977738Y-17061405D01*
X10977738Y-17051881D01*
X10968214Y-17032833D01*
X10949167Y-17023310D01*
X10920595Y-17023310D01*
X10901548Y-17013786D01*
X10892024Y-16994738D01*
X10892024Y-16985214D01*
X10901548Y-16966167D01*
X10920595Y-16956643D01*
X10949167Y-16956643D01*
X10968214Y-16966167D01*
X11044405Y-17166167D02*
X11053929Y-17156643D01*
X11072976Y-17128071D01*
X11082500Y-17109024D01*
X11092024Y-17080452D01*
X11101548Y-17032833D01*
X11101548Y-16994738D01*
X11092024Y-16947119D01*
X11082500Y-16918548D01*
X11072976Y-16899500D01*
X11053929Y-16870929D01*
X11044405Y-16861405D01*
X6243211Y-17390211D02*
X6243211Y-17248789D01*
X6101789Y-17248789D01*
X6101789Y-17390211D01*
X6243211Y-17390211D01*
X6272500Y-17319500D02*
G75*
G03*
X6272500Y-17319500I-100000J0D01*
G01*
X6615833Y-17276643D02*
X6615833Y-17409976D01*
X6568214Y-17200452D02*
X6520595Y-17343310D01*
X6644405Y-17343310D01*
X6720595Y-17390929D02*
X6730119Y-17400452D01*
X6720595Y-17409976D01*
X6711071Y-17400452D01*
X6720595Y-17390929D01*
X6720595Y-17409976D01*
X6853928Y-17209976D02*
X6872976Y-17209976D01*
X6892024Y-17219500D01*
X6901548Y-17229024D01*
X6911071Y-17248071D01*
X6920595Y-17286167D01*
X6920595Y-17333786D01*
X6911071Y-17371881D01*
X6901548Y-17390929D01*
X6892024Y-17400452D01*
X6872976Y-17409976D01*
X6853928Y-17409976D01*
X6834881Y-17400452D01*
X6825357Y-17390929D01*
X6815833Y-17371881D01*
X6806309Y-17333786D01*
X6806309Y-17286167D01*
X6815833Y-17248071D01*
X6825357Y-17229024D01*
X6834881Y-17219500D01*
X6853928Y-17209976D01*
X7044405Y-17209976D02*
X7063452Y-17209976D01*
X7082500Y-17219500D01*
X7092024Y-17229024D01*
X7101548Y-17248071D01*
X7111071Y-17286167D01*
X7111071Y-17333786D01*
X7101548Y-17371881D01*
X7092024Y-17390929D01*
X7082500Y-17400452D01*
X7063452Y-17409976D01*
X7044405Y-17409976D01*
X7025357Y-17400452D01*
X7015833Y-17390929D01*
X7006309Y-17371881D01*
X6996786Y-17333786D01*
X6996786Y-17286167D01*
X7006309Y-17248071D01*
X7015833Y-17229024D01*
X7025357Y-17219500D01*
X7044405Y-17209976D01*
X7234881Y-17209976D02*
X7253928Y-17209976D01*
X7272976Y-17219500D01*
X7282500Y-17229024D01*
X7292024Y-17248071D01*
X7301548Y-17286167D01*
X7301548Y-17333786D01*
X7292024Y-17371881D01*
X7282500Y-17390929D01*
X7272976Y-17400452D01*
X7253928Y-17409976D01*
X7234881Y-17409976D01*
X7215833Y-17400452D01*
X7206309Y-17390929D01*
X7196786Y-17371881D01*
X7187262Y-17333786D01*
X7187262Y-17286167D01*
X7196786Y-17248071D01*
X7206309Y-17229024D01*
X7215833Y-17219500D01*
X7234881Y-17209976D01*
X7387262Y-17409976D02*
X7387262Y-17276643D01*
X7387262Y-17295690D02*
X7396786Y-17286167D01*
X7415833Y-17276643D01*
X7444405Y-17276643D01*
X7463452Y-17286167D01*
X7472976Y-17305214D01*
X7472976Y-17409976D01*
X7472976Y-17305214D02*
X7482500Y-17286167D01*
X7501548Y-17276643D01*
X7530119Y-17276643D01*
X7549167Y-17286167D01*
X7558690Y-17305214D01*
X7558690Y-17409976D01*
X7653928Y-17409976D02*
X7653928Y-17276643D01*
X7653928Y-17295690D02*
X7663452Y-17286167D01*
X7682500Y-17276643D01*
X7711071Y-17276643D01*
X7730119Y-17286167D01*
X7739643Y-17305214D01*
X7739643Y-17409976D01*
X7739643Y-17305214D02*
X7749167Y-17286167D01*
X7768214Y-17276643D01*
X7796786Y-17276643D01*
X7815833Y-17286167D01*
X7825357Y-17305214D01*
X7825357Y-17409976D01*
X8215833Y-17200452D02*
X8044405Y-17457595D01*
X8472976Y-17209976D02*
X8492024Y-17209976D01*
X8511071Y-17219500D01*
X8520595Y-17229024D01*
X8530119Y-17248071D01*
X8539643Y-17286167D01*
X8539643Y-17333786D01*
X8530119Y-17371881D01*
X8520595Y-17390929D01*
X8511071Y-17400452D01*
X8492024Y-17409976D01*
X8472976Y-17409976D01*
X8453929Y-17400452D01*
X8444405Y-17390929D01*
X8434881Y-17371881D01*
X8425357Y-17333786D01*
X8425357Y-17286167D01*
X8434881Y-17248071D01*
X8444405Y-17229024D01*
X8453929Y-17219500D01*
X8472976Y-17209976D01*
X8625357Y-17390929D02*
X8634881Y-17400452D01*
X8625357Y-17409976D01*
X8615833Y-17400452D01*
X8625357Y-17390929D01*
X8625357Y-17409976D01*
X8825357Y-17409976D02*
X8711071Y-17409976D01*
X8768214Y-17409976D02*
X8768214Y-17209976D01*
X8749167Y-17238548D01*
X8730119Y-17257595D01*
X8711071Y-17267119D01*
X9006310Y-17209976D02*
X8911071Y-17209976D01*
X8901548Y-17305214D01*
X8911071Y-17295690D01*
X8930119Y-17286167D01*
X8977738Y-17286167D01*
X8996786Y-17295690D01*
X9006310Y-17305214D01*
X9015833Y-17324262D01*
X9015833Y-17371881D01*
X9006310Y-17390929D01*
X8996786Y-17400452D01*
X8977738Y-17409976D01*
X8930119Y-17409976D01*
X8911071Y-17400452D01*
X8901548Y-17390929D01*
X9082500Y-17209976D02*
X9215833Y-17209976D01*
X9130119Y-17409976D01*
X9387262Y-17209976D02*
X9292024Y-17209976D01*
X9282500Y-17305214D01*
X9292024Y-17295690D01*
X9311071Y-17286167D01*
X9358690Y-17286167D01*
X9377738Y-17295690D01*
X9387262Y-17305214D01*
X9396786Y-17324262D01*
X9396786Y-17371881D01*
X9387262Y-17390929D01*
X9377738Y-17400452D01*
X9358690Y-17409976D01*
X9311071Y-17409976D01*
X9292024Y-17400452D01*
X9282500Y-17390929D01*
X9472976Y-17209976D02*
X9472976Y-17248071D01*
X9549167Y-17209976D02*
X9549167Y-17248071D01*
X9844405Y-17486167D02*
X9834881Y-17476643D01*
X9815833Y-17448071D01*
X9806310Y-17429024D01*
X9796786Y-17400452D01*
X9787262Y-17352833D01*
X9787262Y-17314738D01*
X9796786Y-17267119D01*
X9806310Y-17238548D01*
X9815833Y-17219500D01*
X9834881Y-17190929D01*
X9844405Y-17181405D01*
X9911071Y-17229024D02*
X9920595Y-17219500D01*
X9939643Y-17209976D01*
X9987262Y-17209976D01*
X10006310Y-17219500D01*
X10015833Y-17229024D01*
X10025357Y-17248071D01*
X10025357Y-17267119D01*
X10015833Y-17295690D01*
X9901548Y-17409976D01*
X10025357Y-17409976D01*
X10263452Y-17409976D02*
X10263452Y-17209976D01*
X10349167Y-17409976D02*
X10349167Y-17305214D01*
X10339643Y-17286167D01*
X10320595Y-17276643D01*
X10292024Y-17276643D01*
X10272976Y-17286167D01*
X10263452Y-17295690D01*
X10472976Y-17409976D02*
X10453929Y-17400452D01*
X10444405Y-17390929D01*
X10434881Y-17371881D01*
X10434881Y-17314738D01*
X10444405Y-17295690D01*
X10453929Y-17286167D01*
X10472976Y-17276643D01*
X10501548Y-17276643D01*
X10520595Y-17286167D01*
X10530119Y-17295690D01*
X10539643Y-17314738D01*
X10539643Y-17371881D01*
X10530119Y-17390929D01*
X10520595Y-17400452D01*
X10501548Y-17409976D01*
X10472976Y-17409976D01*
X10653929Y-17409976D02*
X10634881Y-17400452D01*
X10625357Y-17381405D01*
X10625357Y-17209976D01*
X10806310Y-17400452D02*
X10787262Y-17409976D01*
X10749167Y-17409976D01*
X10730119Y-17400452D01*
X10720595Y-17381405D01*
X10720595Y-17305214D01*
X10730119Y-17286167D01*
X10749167Y-17276643D01*
X10787262Y-17276643D01*
X10806310Y-17286167D01*
X10815833Y-17305214D01*
X10815833Y-17324262D01*
X10720595Y-17343310D01*
X10892024Y-17400452D02*
X10911071Y-17409976D01*
X10949167Y-17409976D01*
X10968214Y-17400452D01*
X10977738Y-17381405D01*
X10977738Y-17371881D01*
X10968214Y-17352833D01*
X10949167Y-17343310D01*
X10920595Y-17343310D01*
X10901548Y-17333786D01*
X10892024Y-17314738D01*
X10892024Y-17305214D01*
X10901548Y-17286167D01*
X10920595Y-17276643D01*
X10949167Y-17276643D01*
X10968214Y-17286167D01*
X11044405Y-17486167D02*
X11053929Y-17476643D01*
X11072976Y-17448071D01*
X11082500Y-17429024D01*
X11092024Y-17400452D01*
X11101548Y-17352833D01*
X11101548Y-17314738D01*
X11092024Y-17267119D01*
X11082500Y-17238548D01*
X11072976Y-17219500D01*
X11053929Y-17190929D01*
X11044405Y-17181405D01*
M02*
