G04 #@! TF.GenerationSoftware,KiCad,Pcbnew,6.0.0-rc2*
G04 #@! TF.CreationDate,2022-06-24T19:42:49-07:00*
G04 #@! TF.ProjectId,RP2040_motor,52503230-3430-45f6-9d6f-746f722e6b69,REV1*
G04 #@! TF.SameCoordinates,Original*
G04 #@! TF.FileFunction,Copper,L3,Inr*
G04 #@! TF.FilePolarity,Positive*
%FSLAX46Y46*%
G04 Gerber Fmt 4.6, Leading zero omitted, Abs format (unit mm)*
G04 Created by KiCad (PCBNEW 6.0.0-rc2) date 2022-06-24 19:42:49*
%MOMM*%
%LPD*%
G01*
G04 APERTURE LIST*
G04 Aperture macros list*
%AMRoundRect*
0 Rectangle with rounded corners*
0 $1 Rounding radius*
0 $2 $3 $4 $5 $6 $7 $8 $9 X,Y pos of 4 corners*
0 Add a 4 corners polygon primitive as box body*
4,1,4,$2,$3,$4,$5,$6,$7,$8,$9,$2,$3,0*
0 Add four circle primitives for the rounded corners*
1,1,$1+$1,$2,$3*
1,1,$1+$1,$4,$5*
1,1,$1+$1,$6,$7*
1,1,$1+$1,$8,$9*
0 Add four rect primitives between the rounded corners*
20,1,$1+$1,$2,$3,$4,$5,0*
20,1,$1+$1,$4,$5,$6,$7,0*
20,1,$1+$1,$6,$7,$8,$9,0*
20,1,$1+$1,$8,$9,$2,$3,0*%
G04 Aperture macros list end*
G04 #@! TA.AperFunction,ComponentPad*
%ADD10C,3.900000*%
G04 #@! TD*
G04 #@! TA.AperFunction,ComponentPad*
%ADD11C,4.000000*%
G04 #@! TD*
G04 #@! TA.AperFunction,ComponentPad*
%ADD12O,2.190000X1.740000*%
G04 #@! TD*
G04 #@! TA.AperFunction,ComponentPad*
%ADD13RoundRect,0.250000X0.845000X-0.620000X0.845000X0.620000X-0.845000X0.620000X-0.845000X-0.620000X0*%
G04 #@! TD*
G04 #@! TA.AperFunction,ComponentPad*
%ADD14C,0.600000*%
G04 #@! TD*
G04 #@! TA.AperFunction,ComponentPad*
%ADD15C,2.000000*%
G04 #@! TD*
G04 #@! TA.AperFunction,ComponentPad*
%ADD16C,6.000000*%
G04 #@! TD*
G04 #@! TA.AperFunction,ComponentPad*
%ADD17RoundRect,0.250000X-0.620000X-0.845000X0.620000X-0.845000X0.620000X0.845000X-0.620000X0.845000X0*%
G04 #@! TD*
G04 #@! TA.AperFunction,ComponentPad*
%ADD18O,1.740000X2.190000*%
G04 #@! TD*
G04 #@! TA.AperFunction,ComponentPad*
%ADD19O,1.000000X2.100000*%
G04 #@! TD*
G04 #@! TA.AperFunction,ComponentPad*
%ADD20O,1.000000X1.600000*%
G04 #@! TD*
G04 #@! TA.AperFunction,ViaPad*
%ADD21C,0.800000*%
G04 #@! TD*
G04 #@! TA.AperFunction,ViaPad*
%ADD22C,0.600000*%
G04 #@! TD*
G04 #@! TA.AperFunction,ViaPad*
%ADD23C,1.000000*%
G04 #@! TD*
G04 #@! TA.AperFunction,Conductor*
%ADD24C,0.200000*%
G04 #@! TD*
G04 #@! TA.AperFunction,Conductor*
%ADD25C,0.400000*%
G04 #@! TD*
G04 #@! TA.AperFunction,Conductor*
%ADD26C,0.300000*%
G04 #@! TD*
G04 #@! TA.AperFunction,Conductor*
%ADD27C,1.000000*%
G04 #@! TD*
G04 #@! TA.AperFunction,Conductor*
%ADD28C,0.600000*%
G04 #@! TD*
G04 APERTURE END LIST*
D10*
X74000000Y-95000000D03*
X162510000Y-76000000D03*
X162510000Y-114000000D03*
D11*
X159500000Y-87750000D03*
D12*
X74100000Y-77240000D03*
X74100000Y-79780000D03*
X74100000Y-82320000D03*
X74100000Y-84860000D03*
D13*
X74100000Y-87400000D03*
D14*
X91390000Y-105250000D03*
X92665000Y-106525000D03*
X91390000Y-103975000D03*
X92665000Y-103975000D03*
X91390000Y-106525000D03*
X90115000Y-105250000D03*
X90115000Y-103975000D03*
X92665000Y-105250000D03*
X90115000Y-106525000D03*
D13*
X81050000Y-84960000D03*
D12*
X81050000Y-82420000D03*
X81050000Y-79880000D03*
X81050000Y-77340000D03*
D15*
X103000000Y-82600000D03*
X96500000Y-82600000D03*
X103000000Y-87100000D03*
X96500000Y-87100000D03*
D11*
X159500000Y-71250000D03*
D16*
X120350000Y-73000000D03*
D11*
X159500000Y-102250000D03*
D17*
X72490000Y-71200000D03*
D18*
X75030000Y-71200000D03*
X77570000Y-71200000D03*
X80110000Y-71200000D03*
D13*
X74100000Y-106000000D03*
D12*
X74100000Y-103460000D03*
X74100000Y-100920000D03*
X74100000Y-109690000D03*
X74100000Y-112230000D03*
X74100000Y-114770000D03*
X74100000Y-117310000D03*
D13*
X74100000Y-119850000D03*
D11*
X159500000Y-119000000D03*
X159500000Y-80600000D03*
X159500000Y-109400000D03*
D19*
X95720000Y-116145000D03*
X87080000Y-116145000D03*
D20*
X87080000Y-120325000D03*
X95720000Y-120325000D03*
D16*
X127350000Y-73000000D03*
D21*
X164500000Y-99000000D03*
X163500000Y-99000000D03*
X164500000Y-91000000D03*
X163500000Y-91000000D03*
X159500000Y-114500000D03*
X162500000Y-106250000D03*
X162500000Y-84000000D03*
X159500000Y-76000000D03*
X163500000Y-118000000D03*
X163500000Y-120000000D03*
X163500000Y-119000000D03*
X163500000Y-121000000D03*
X163500000Y-109000000D03*
X163500000Y-103000000D03*
X163500000Y-102000000D03*
X163500000Y-110000000D03*
X163500000Y-100000000D03*
X163500000Y-104000000D03*
X163500000Y-106000000D03*
X163500000Y-105000000D03*
X163500000Y-111000000D03*
X163500000Y-107000000D03*
X163500000Y-108000000D03*
X163500000Y-101000000D03*
X163500000Y-72000000D03*
X163500000Y-70000000D03*
X163500000Y-73000000D03*
X163500000Y-71000000D03*
X164500000Y-79000000D03*
X164500000Y-82000000D03*
X164500000Y-80000000D03*
X164500000Y-88000000D03*
X164500000Y-85000000D03*
X164500000Y-87000000D03*
X164500000Y-86000000D03*
X164500000Y-89000000D03*
X164500000Y-90000000D03*
X164500000Y-81000000D03*
X164500000Y-83000000D03*
X164500000Y-84000000D03*
X164500000Y-121000000D03*
X164500000Y-120000000D03*
X164500000Y-119000000D03*
X164500000Y-118000000D03*
X164500000Y-111000000D03*
X164500000Y-110000000D03*
X164500000Y-109000000D03*
X164500000Y-108000000D03*
X164500000Y-100000000D03*
X164500000Y-101000000D03*
X164500000Y-102000000D03*
X164500000Y-103000000D03*
X164500000Y-104000000D03*
X164500000Y-105000000D03*
X164500000Y-107000000D03*
X164500000Y-106000000D03*
X161500000Y-106250000D03*
X160500000Y-106250000D03*
X159500000Y-106250000D03*
X158500000Y-106250000D03*
X157500000Y-106250000D03*
X156500000Y-106250000D03*
X155500000Y-106250000D03*
X154500000Y-106250000D03*
X153500000Y-106250000D03*
X158500000Y-114500000D03*
X157500000Y-114500000D03*
X156500000Y-114500000D03*
X155500000Y-114500000D03*
X154500000Y-114500000D03*
X153500000Y-114500000D03*
X164500000Y-70000000D03*
X158500000Y-76000000D03*
X157500000Y-76000000D03*
X156500000Y-76000000D03*
X155500000Y-76000000D03*
X154500000Y-76000000D03*
X153500000Y-76000000D03*
X164500000Y-73000000D03*
X164500000Y-72000000D03*
X164500000Y-71000000D03*
X163500000Y-90000000D03*
X163500000Y-89000000D03*
X163500000Y-88000000D03*
X163500000Y-87000000D03*
X163500000Y-86000000D03*
X163500000Y-79000000D03*
X163500000Y-80000000D03*
X163500000Y-81000000D03*
X163500000Y-82000000D03*
X163500000Y-83000000D03*
X163500000Y-85000000D03*
X163500000Y-84000000D03*
X161500000Y-84000000D03*
X160500000Y-84000000D03*
X159500000Y-84000000D03*
X158497915Y-83997861D03*
X157500000Y-84000000D03*
X156500000Y-84000000D03*
X155500000Y-84000000D03*
X154500000Y-84000000D03*
X153500000Y-84000000D03*
D22*
X85100000Y-91650000D03*
X82100000Y-88500000D03*
X78700000Y-97650000D03*
X75900000Y-91800000D03*
X77500000Y-90100000D03*
X78100000Y-89450000D03*
X97500000Y-69500000D03*
X72150000Y-91650000D03*
X85050000Y-93550000D03*
X75250000Y-89100000D03*
X86350000Y-94150000D03*
X83400000Y-88750000D03*
X85750000Y-88850000D03*
X86400000Y-90450000D03*
X82000000Y-96500000D03*
X80150000Y-96450000D03*
X83200000Y-93000000D03*
X89050000Y-88850000D03*
X76700000Y-90500000D03*
X78750000Y-98950000D03*
X78800000Y-100200000D03*
X82850000Y-98800000D03*
X78850000Y-101000000D03*
D21*
X98500000Y-83450000D03*
X85850000Y-84300000D03*
X84200000Y-80400000D03*
X84800000Y-78600000D03*
D22*
X92800000Y-90300000D03*
X100000000Y-89000000D03*
X99900000Y-82600000D03*
X104800000Y-82800000D03*
X104900000Y-86500000D03*
X112900000Y-82900000D03*
X112500000Y-86200000D03*
X116000000Y-93300000D03*
X117200000Y-93300000D03*
X118200000Y-93300000D03*
X140450000Y-91850000D03*
X141950000Y-90750000D03*
X142850000Y-92550000D03*
X141700000Y-96450000D03*
X143100000Y-97850000D03*
D21*
X88900000Y-71400000D03*
D23*
X88300000Y-81800000D03*
D22*
X95300000Y-91000000D03*
X95700000Y-95000000D03*
X88700000Y-93000000D03*
X89600000Y-97350000D03*
D21*
X119650000Y-83720000D03*
X122650000Y-98400000D03*
X119650000Y-87420000D03*
X103700000Y-114250000D03*
X119700000Y-93300000D03*
X122550000Y-101050000D03*
X119650000Y-104150000D03*
X122650000Y-87420000D03*
D22*
X155610000Y-95750000D03*
D21*
X119650000Y-119050000D03*
D22*
X98300000Y-99100000D03*
D21*
X116400000Y-105050000D03*
X121600000Y-106850000D03*
X90300000Y-78400000D03*
X118400000Y-80700000D03*
X119650000Y-77970000D03*
X120650000Y-87420000D03*
X119650000Y-98400000D03*
X121650000Y-77970000D03*
X120650000Y-83720000D03*
D22*
X95750000Y-96200000D03*
D21*
X101300000Y-75800000D03*
X122600000Y-106850000D03*
X120600000Y-115700000D03*
X119650000Y-112600000D03*
X122650000Y-103150000D03*
X100300000Y-74800000D03*
X121650000Y-103150000D03*
X122650000Y-112600000D03*
X110700000Y-72800000D03*
X120650000Y-97400000D03*
X121650000Y-105850000D03*
X122650000Y-111600000D03*
X120650000Y-84720000D03*
X85100000Y-71000000D03*
X122650000Y-104150000D03*
X121550000Y-101050000D03*
X122650000Y-105850000D03*
X122600000Y-88420000D03*
X120650000Y-112600000D03*
X121650000Y-119050000D03*
X120650000Y-111600000D03*
X120650000Y-77970000D03*
X121650000Y-112600000D03*
X119650000Y-84720000D03*
X92500000Y-79400000D03*
X121650000Y-78970000D03*
X92500000Y-78400000D03*
X100300000Y-75800000D03*
X90300000Y-79400000D03*
X96950000Y-110750000D03*
X91950000Y-113500000D03*
X121600000Y-88420000D03*
X120600000Y-106850000D03*
X115100000Y-73300000D03*
X120650000Y-78970000D03*
X116400000Y-113100000D03*
X119600000Y-88420000D03*
X119650000Y-105850000D03*
X119600000Y-106850000D03*
X120650000Y-103150000D03*
X122650000Y-84720000D03*
X119550000Y-101050000D03*
X122650000Y-97400000D03*
X88450000Y-113000000D03*
X121600000Y-115700000D03*
X120650000Y-119050000D03*
X121650000Y-111600000D03*
X122650000Y-77970000D03*
D22*
X148810000Y-97100000D03*
D21*
X119650000Y-103150000D03*
X84450000Y-111200000D03*
D22*
X94300000Y-97450000D03*
D21*
X120650000Y-98400000D03*
X99700000Y-108500000D03*
D22*
X163000000Y-95300000D03*
D21*
X121650000Y-104150000D03*
X100300000Y-73800000D03*
X116800000Y-88200000D03*
X119650000Y-111600000D03*
D22*
X100650000Y-103800000D03*
X144360000Y-95000000D03*
X82499500Y-103944989D03*
X93000000Y-85800000D03*
D21*
X121650000Y-97400000D03*
X116410000Y-96950000D03*
X94900000Y-79400000D03*
X101300000Y-73800000D03*
X122650000Y-114700000D03*
X121700000Y-93300000D03*
D22*
X155460000Y-92500000D03*
D21*
X120650000Y-104150000D03*
X122700000Y-93300000D03*
X120550000Y-101050000D03*
D22*
X88750000Y-91750000D03*
D21*
X122650000Y-119050000D03*
X120600000Y-88420000D03*
X121650000Y-83720000D03*
X119650000Y-114700000D03*
X84450000Y-109450000D03*
X121650000Y-87420000D03*
X119650000Y-78970000D03*
X119600000Y-115700000D03*
X120700000Y-93300000D03*
D22*
X148960000Y-93100000D03*
D21*
X120650000Y-105850000D03*
X122600000Y-115700000D03*
X101300000Y-74800000D03*
X121650000Y-84720000D03*
X121650000Y-98400000D03*
X106900000Y-71750000D03*
X121650000Y-114700000D03*
D22*
X83450000Y-119250000D03*
D21*
X119650000Y-97400000D03*
X122650000Y-78970000D03*
X122650000Y-83720000D03*
X120650000Y-114700000D03*
D22*
X102600000Y-102100000D03*
X89660000Y-113250000D03*
X94450000Y-113750000D03*
D21*
X112310000Y-96900000D03*
X109200000Y-70600000D03*
X154450000Y-96300000D03*
X101700000Y-99000000D03*
D22*
X91650000Y-110600000D03*
X90790030Y-103150000D03*
X90250000Y-99825000D03*
X90650000Y-107350000D03*
X79500000Y-104069270D03*
X91400000Y-89700000D03*
X85700000Y-104849500D03*
X86600000Y-105250500D03*
X80600000Y-105700000D03*
X80250000Y-104800000D03*
X85850000Y-105650000D03*
X94000000Y-90200000D03*
X82300000Y-99900000D03*
X81750000Y-100700000D03*
X82900000Y-108600000D03*
X88889500Y-105000000D03*
X136050000Y-69820000D03*
X134940900Y-120380000D03*
X135300000Y-100500000D03*
X135800000Y-111950000D03*
X136800000Y-72070000D03*
X136050000Y-102000000D03*
X136050000Y-71320000D03*
X137190900Y-120380000D03*
X135050000Y-108950000D03*
X137550000Y-72070000D03*
X137190900Y-119630000D03*
X136562300Y-111200000D03*
X135800000Y-108950000D03*
X135690900Y-117380000D03*
X136800000Y-103500000D03*
X135300000Y-101250000D03*
X137300000Y-79670000D03*
X134940900Y-87350000D03*
X136050000Y-102750000D03*
X135690900Y-119630000D03*
X137550000Y-72820000D03*
X135300000Y-70570000D03*
X137300000Y-81170000D03*
X135800000Y-78920000D03*
X136562300Y-80420000D03*
X136550000Y-78920000D03*
X137300000Y-80420000D03*
X135050000Y-78170000D03*
X136550000Y-81170000D03*
X137550000Y-102750000D03*
X136550000Y-78170000D03*
X136562300Y-110450000D03*
X136440900Y-87350000D03*
X135050000Y-110450000D03*
X137190900Y-88850000D03*
X137550000Y-70570000D03*
X135300000Y-72070000D03*
X135690900Y-88100000D03*
X135050000Y-79670000D03*
X135300000Y-71320000D03*
X136440900Y-120380000D03*
D21*
X95500000Y-75200000D03*
D22*
X137190900Y-87350000D03*
X135050000Y-80420000D03*
X136550000Y-111950000D03*
X136050000Y-100500000D03*
X135050000Y-78920000D03*
X135800000Y-80420000D03*
X136800000Y-102750000D03*
X136782300Y-70570000D03*
X136562300Y-79670000D03*
X136440900Y-89600000D03*
X134940900Y-88850000D03*
X134940900Y-117380000D03*
X136440900Y-88100000D03*
X136050000Y-103500000D03*
X135050000Y-111950000D03*
X135800000Y-109700000D03*
X137190900Y-117380000D03*
X135300000Y-103500000D03*
X134940900Y-119630000D03*
X137550000Y-103500000D03*
X136440900Y-86600000D03*
X136550000Y-108950000D03*
X136800000Y-72820000D03*
X136782300Y-71320000D03*
X135300000Y-72820000D03*
X136050000Y-70570000D03*
X137550000Y-100500000D03*
X136550000Y-109700000D03*
X135800000Y-81170000D03*
X137190900Y-88100000D03*
X135690900Y-86600000D03*
X135300000Y-102000000D03*
X135690900Y-89600000D03*
X135690900Y-120380000D03*
X135300000Y-69820000D03*
X137300000Y-109700000D03*
X137550000Y-102000000D03*
X135050000Y-111200000D03*
X134940900Y-89600000D03*
X137190900Y-89600000D03*
X137190900Y-86600000D03*
X137300000Y-111950000D03*
X136440900Y-117380000D03*
X136440900Y-118130000D03*
X134940900Y-118130000D03*
X136440900Y-118880000D03*
X136440900Y-119630000D03*
X135050000Y-109700000D03*
X137300000Y-110450000D03*
X136800000Y-100500000D03*
X135800000Y-110450000D03*
X135300000Y-102750000D03*
X136782300Y-102000000D03*
X137550000Y-101250000D03*
X136800000Y-69820000D03*
X137300000Y-78170000D03*
X134940900Y-118880000D03*
X134940900Y-88100000D03*
X137190900Y-118130000D03*
X137550000Y-69820000D03*
X135690900Y-87350000D03*
X136050000Y-101250000D03*
X135800000Y-78170000D03*
X137550000Y-71320000D03*
X135690900Y-88850000D03*
X136782300Y-101250000D03*
X137300000Y-78920000D03*
X137300000Y-111200000D03*
D21*
X94500000Y-74800000D03*
D22*
X134940900Y-86600000D03*
X136440900Y-88850000D03*
X135800000Y-79670000D03*
X135050000Y-81170000D03*
X137300000Y-108950000D03*
X136050000Y-72820000D03*
X135690900Y-118130000D03*
X135690900Y-118880000D03*
X136050000Y-72070000D03*
X137190900Y-118880000D03*
X135800000Y-111200000D03*
X140780900Y-102711400D03*
X146130900Y-103480000D03*
X141530900Y-102711400D03*
X143880900Y-103480000D03*
X146130900Y-101980000D03*
X144630900Y-101230000D03*
X144630900Y-100480000D03*
X140780900Y-100461400D03*
X146130900Y-101230000D03*
X143880900Y-102730000D03*
X145380900Y-100480000D03*
X141530900Y-101961400D03*
X141530900Y-103461400D03*
D21*
X111300000Y-103150000D03*
D22*
X143880900Y-101980000D03*
X144630900Y-103480000D03*
X145380900Y-102730000D03*
X144630900Y-102730000D03*
X144630900Y-101980000D03*
X145380900Y-101980000D03*
X141530900Y-101211400D03*
X143880900Y-101230000D03*
X146130900Y-100480000D03*
X140780900Y-103461400D03*
X145380900Y-103480000D03*
X141530900Y-100461400D03*
X143880900Y-100480000D03*
X146130900Y-102730000D03*
X140780900Y-101211400D03*
X140780900Y-101961400D03*
X145380900Y-101230000D03*
X146380900Y-110430000D03*
X145630900Y-111930000D03*
X144130900Y-109680000D03*
X145630900Y-110430000D03*
X146380900Y-109680000D03*
X141530900Y-109711400D03*
X140780900Y-108961400D03*
X141530900Y-110461400D03*
X140780900Y-109711400D03*
X144880900Y-110430000D03*
X144880900Y-109680000D03*
X145630900Y-109680000D03*
X141530900Y-111211400D03*
X140780900Y-111961400D03*
X141530900Y-111961400D03*
X144130900Y-111930000D03*
X145630900Y-111180000D03*
X145630900Y-108930000D03*
X146380900Y-108930000D03*
X140780900Y-110461400D03*
X144880900Y-111180000D03*
D21*
X118210000Y-114800000D03*
X112400000Y-110250000D03*
D22*
X141530900Y-108961400D03*
X144130900Y-108930000D03*
X144880900Y-108930000D03*
X140780900Y-111211400D03*
X146380900Y-111180000D03*
X144880900Y-111930000D03*
X144130900Y-110430000D03*
X144130900Y-111180000D03*
X146380900Y-111930000D03*
X146130900Y-118130000D03*
X141480900Y-119661400D03*
X146130900Y-120380000D03*
X141480900Y-118911400D03*
X144630900Y-118880000D03*
X153260000Y-120800000D03*
X143880900Y-119630000D03*
X146130900Y-118880000D03*
X145380900Y-120380000D03*
X143880900Y-117380000D03*
X144630900Y-120380000D03*
D21*
X112200000Y-117600000D03*
D22*
X145380900Y-119630000D03*
X144630900Y-118130000D03*
X140730900Y-119661400D03*
X143880900Y-120380000D03*
X144630900Y-119630000D03*
X141480900Y-117411400D03*
X146130900Y-119630000D03*
X141480900Y-118161400D03*
X140730900Y-118911400D03*
X145380900Y-118130000D03*
X141480900Y-120411400D03*
X140730900Y-118161400D03*
X144630900Y-117380000D03*
X143880900Y-118880000D03*
X143880900Y-118130000D03*
X146130900Y-117380000D03*
X145380900Y-117380000D03*
X140730900Y-120411400D03*
X145380900Y-118880000D03*
X140730900Y-117411400D03*
D21*
X109000000Y-103050000D03*
D22*
X139010000Y-99400000D03*
X148960000Y-99950000D03*
D21*
X107900000Y-98800000D03*
X108900000Y-111400000D03*
X138450000Y-107350000D03*
X146660000Y-106700000D03*
X106810000Y-113400000D03*
X88600000Y-79700000D03*
X105450000Y-78450000D03*
X138350000Y-68750000D03*
X147950000Y-68749500D03*
X118150000Y-77400000D03*
X108700000Y-75000000D03*
X138660000Y-77000000D03*
X107100000Y-85500000D03*
X146950000Y-76600000D03*
X106900000Y-82000000D03*
X138160000Y-116200000D03*
X119310000Y-120100000D03*
X108300000Y-120400000D03*
X106800000Y-115500000D03*
X146450000Y-115900000D03*
X113400000Y-88000000D03*
X105300000Y-70800000D03*
X106100000Y-75000000D03*
X138750000Y-85200000D03*
X108733180Y-93041682D03*
X108100000Y-90470000D03*
D22*
X146960000Y-84400000D03*
X163450000Y-97200000D03*
X158050000Y-97100000D03*
X154750000Y-94100000D03*
X83000000Y-105300000D03*
D21*
X110516647Y-93676913D03*
D22*
X96900000Y-91850500D03*
X82800000Y-106300000D03*
X147150000Y-94800000D03*
D21*
X109932064Y-94487633D03*
D22*
X97600000Y-92500000D03*
X145380900Y-72050000D03*
X143880900Y-71300000D03*
X146130900Y-71300000D03*
X141530900Y-72831400D03*
X140780900Y-72081400D03*
X145380900Y-71300000D03*
X145380900Y-69800000D03*
X145380900Y-72800000D03*
X143880900Y-70550000D03*
X140780900Y-70581400D03*
D21*
X113000000Y-77500000D03*
D22*
X144630900Y-69800000D03*
X146130900Y-72800000D03*
X144630900Y-72800000D03*
X141530900Y-72081400D03*
X141530900Y-71331400D03*
X141530900Y-70581400D03*
X146130900Y-70550000D03*
X144630900Y-71300000D03*
X154350000Y-70300000D03*
X140780900Y-72831400D03*
X144630900Y-70550000D03*
X145380900Y-70550000D03*
X143880900Y-72050000D03*
X140780900Y-71331400D03*
X143880900Y-69800000D03*
X140780900Y-69831400D03*
X143880900Y-72800000D03*
X144630900Y-72050000D03*
X141530900Y-69831400D03*
X146130900Y-72050000D03*
X146130900Y-69800000D03*
X145630900Y-80400000D03*
X140780900Y-80431400D03*
X140780900Y-78181400D03*
X144130900Y-79650000D03*
X144880900Y-80400000D03*
X144880900Y-81150000D03*
X146380900Y-80400000D03*
X141530900Y-78931400D03*
X144130900Y-80400000D03*
X140780900Y-78931400D03*
X144130900Y-78150000D03*
X145630900Y-81150000D03*
X144880900Y-79650000D03*
X144130900Y-81150000D03*
X140780900Y-81181400D03*
X141530900Y-81181400D03*
X145630900Y-78900000D03*
X141530900Y-78181400D03*
X145630900Y-78150000D03*
X144880900Y-78150000D03*
X140780900Y-79681400D03*
X145630900Y-79650000D03*
X144880900Y-78900000D03*
X144130900Y-78900000D03*
D21*
X111800000Y-85400000D03*
D22*
X141530900Y-80431400D03*
X146380900Y-81150000D03*
X146380900Y-79650000D03*
X141530900Y-79681400D03*
X146380900Y-78150000D03*
X146380900Y-78900000D03*
X146130900Y-88850000D03*
X143880900Y-88850000D03*
X146130900Y-86600000D03*
X144630900Y-89600000D03*
X144630900Y-88100000D03*
X145380900Y-88100000D03*
X145380900Y-87350000D03*
X140780900Y-88881400D03*
X144630900Y-88850000D03*
X143880900Y-87350000D03*
X140780900Y-88131400D03*
X146130900Y-87350000D03*
X143880900Y-88100000D03*
X145380900Y-89600000D03*
X143880900Y-89600000D03*
X145380900Y-86600000D03*
X141530900Y-87381400D03*
X140780900Y-89631400D03*
X141530900Y-88881400D03*
X146130900Y-88100000D03*
X145380900Y-88850000D03*
X144630900Y-86600000D03*
X141530900Y-89631400D03*
X146130900Y-89600000D03*
X141530900Y-88131400D03*
X140780900Y-86631400D03*
X140780900Y-87381400D03*
X143880900Y-86600000D03*
X141530900Y-86631400D03*
X144630900Y-87350000D03*
D21*
X113400000Y-92549500D03*
X103100000Y-95900000D03*
X116210000Y-118700000D03*
X104300000Y-73300000D03*
X114400000Y-79500000D03*
X102300000Y-120200000D03*
X117800000Y-110000000D03*
D23*
X83560000Y-71400000D03*
D21*
X116810000Y-99900000D03*
X118000000Y-84720011D03*
X118700000Y-89500000D03*
D22*
X83400000Y-107200000D03*
D21*
X109376567Y-95350500D03*
D22*
X98450000Y-93250000D03*
X155250000Y-98100000D03*
X84760000Y-113700000D03*
X90260000Y-111100000D03*
X95900000Y-107925500D03*
X100200000Y-106250000D03*
X97500000Y-107050000D03*
X98750000Y-107200000D03*
X98450000Y-94400000D03*
X147350000Y-96989500D03*
D21*
X110149527Y-96150500D03*
D22*
X84300000Y-107500000D03*
X89047034Y-102710213D03*
X87200000Y-102000000D03*
X85700000Y-101700000D03*
X88907572Y-103662141D03*
X158100000Y-93400000D03*
X163200000Y-93200000D03*
X91160000Y-114450000D03*
X83810000Y-117200000D03*
X84710000Y-117200000D03*
X91610000Y-117150000D03*
X86600000Y-100800000D03*
X86950000Y-99150000D03*
X86700000Y-100000000D03*
X94550000Y-108750000D03*
X102300000Y-110700000D03*
X98900000Y-112500000D03*
X94950000Y-110000000D03*
X99200000Y-114250000D03*
X96700000Y-113150000D03*
X100450000Y-116000000D03*
X97450000Y-114250000D03*
X112950000Y-115250000D03*
X99300000Y-106350000D03*
X98400000Y-105800000D03*
X112950000Y-114250000D03*
X113049177Y-91049500D03*
X96200000Y-101950000D03*
X113400000Y-89700000D03*
X95450000Y-101500000D03*
X97400000Y-105250000D03*
X112450000Y-106500000D03*
X113200000Y-106000000D03*
X97950000Y-104600000D03*
X95950000Y-100500000D03*
D21*
X111900000Y-87200000D03*
D22*
X95250000Y-100050000D03*
X97000000Y-103500000D03*
X113450000Y-100750000D03*
X112950000Y-99000000D03*
X96850000Y-102600000D03*
D21*
X114500000Y-75800000D03*
D22*
X95600000Y-97450000D03*
D21*
X114610000Y-77700000D03*
D22*
X96150000Y-98050000D03*
D21*
X107600000Y-70700000D03*
X112500000Y-71100000D03*
X110700000Y-70400000D03*
X115900000Y-71200000D03*
D22*
X89650000Y-110500000D03*
X83760000Y-113700000D03*
D24*
X100200000Y-106250000D02*
X99274511Y-105324511D01*
X81380000Y-79550000D02*
X81300000Y-79630000D01*
X99274511Y-105324511D02*
X99274511Y-93174511D01*
X99274511Y-93174511D02*
X91800000Y-85700000D01*
X91800000Y-85700000D02*
X90750000Y-85700000D01*
X90750000Y-85700000D02*
X84600000Y-79550000D01*
X84600000Y-79550000D02*
X81380000Y-79550000D01*
X81300000Y-79630000D02*
X81980000Y-79630000D01*
X79500000Y-104069270D02*
X79800000Y-103769270D01*
X79800000Y-103769270D02*
X79800000Y-99200000D01*
X79800000Y-99200000D02*
X81000000Y-98000000D01*
X81000000Y-98000000D02*
X81000000Y-95200000D01*
X88100000Y-89700000D02*
X91400000Y-89700000D01*
X82100000Y-88500000D02*
X82100000Y-89700000D01*
X82100000Y-89700000D02*
X83200000Y-90800000D01*
X83200000Y-90800000D02*
X83200000Y-93000000D01*
D25*
X84200000Y-93000000D02*
X84200000Y-80400000D01*
X82000000Y-96500000D02*
X82000000Y-95300000D01*
X82000000Y-95300000D02*
X84200000Y-93100000D01*
D26*
X163450000Y-97200000D02*
X158150000Y-97200000D01*
X158150000Y-97200000D02*
X158050000Y-97100000D01*
X163200000Y-93200000D02*
X158300000Y-93200000D01*
X158300000Y-93200000D02*
X158100000Y-93400000D01*
X146950000Y-76600000D02*
X146550000Y-76200000D01*
X128000000Y-82900000D02*
X114110000Y-82900000D01*
X146550000Y-76200000D02*
X134700000Y-76200000D01*
X113210000Y-82000000D02*
X106900000Y-82000000D01*
X134700000Y-76200000D02*
X128000000Y-82900000D01*
X114110000Y-82900000D02*
X113210000Y-82000000D01*
D24*
X82300000Y-99900000D02*
X82300000Y-100300000D01*
X82300000Y-100300000D02*
X82400000Y-100400000D01*
X82400000Y-102100000D02*
X81900000Y-102600000D01*
X81900000Y-102600000D02*
X81900000Y-109510000D01*
X82400000Y-100400000D02*
X82400000Y-102100000D01*
X81900000Y-109510000D02*
X74100000Y-117310000D01*
D26*
X96900000Y-91850500D02*
X91049500Y-91850500D01*
X91049500Y-91850500D02*
X83225000Y-99675000D01*
X83225000Y-105075000D02*
X83000000Y-105300000D01*
X83225000Y-99675000D02*
X83225000Y-105075000D01*
D27*
X94500000Y-74800000D02*
X94700000Y-74800000D01*
X94700000Y-74800000D02*
X100229511Y-69270489D01*
X100229511Y-69270489D02*
X123620489Y-69270489D01*
X123620489Y-69270489D02*
X127350000Y-73000000D01*
D28*
X105950000Y-88825000D02*
X106025000Y-88900000D01*
X106025000Y-88900000D02*
X116157898Y-88900000D01*
X118400000Y-89800000D02*
X118700000Y-89500000D01*
X116157898Y-88900000D02*
X117057898Y-89800000D01*
X117057898Y-89800000D02*
X118400000Y-89800000D01*
X106000000Y-82600000D02*
X105900000Y-82700000D01*
X105900000Y-82700000D02*
X105900000Y-88500000D01*
X107175000Y-78425000D02*
X107200000Y-78400000D01*
X107200000Y-78400000D02*
X110600000Y-78400000D01*
X110600000Y-78400000D02*
X111700000Y-79500000D01*
X111700000Y-79500000D02*
X114400000Y-79500000D01*
D26*
X155250000Y-98100000D02*
X156950000Y-96400000D01*
X156950000Y-96400000D02*
X156950000Y-95900000D01*
X156100489Y-95050489D02*
X154409511Y-95050489D01*
X154409511Y-95050489D02*
X153760000Y-95700000D01*
X156950000Y-95900000D02*
X156100489Y-95050489D01*
X153760000Y-95700000D02*
X111110000Y-95700000D01*
X111110000Y-95700000D02*
X110760500Y-95350500D01*
X110760500Y-95350500D02*
X109376567Y-95350500D01*
X141700000Y-96450000D02*
X141850000Y-96300000D01*
X141850000Y-96300000D02*
X154450000Y-96300000D01*
X98450000Y-94400000D02*
X98300000Y-94250000D01*
X90925000Y-94250000D02*
X85050489Y-100124511D01*
X98300000Y-94250000D02*
X90925000Y-94250000D01*
X85050489Y-100124511D02*
X85050489Y-106749511D01*
X85050489Y-106749511D02*
X84300000Y-107500000D01*
X83400000Y-107200000D02*
X84400000Y-106200000D01*
X84400000Y-100000000D02*
X91150000Y-93250000D01*
X91150000Y-93250000D02*
X98450000Y-93250000D01*
X84400000Y-106200000D02*
X84400000Y-100000000D01*
X82800000Y-106300000D02*
X83059970Y-106300000D01*
X83059970Y-106300000D02*
X83900000Y-105459970D01*
X91150000Y-92500000D02*
X97600000Y-92500000D01*
X83900000Y-105459970D02*
X83900000Y-99750000D01*
X83900000Y-99750000D02*
X91150000Y-92500000D01*
D24*
X75900000Y-91800000D02*
X75900000Y-92200000D01*
X75900000Y-92200000D02*
X78700000Y-95000000D01*
X78700000Y-95000000D02*
X78700000Y-97650000D01*
X85750000Y-88850000D02*
X87250000Y-88850000D01*
X87250000Y-88850000D02*
X88100000Y-89700000D01*
X77300000Y-88900000D02*
X77300000Y-89900000D01*
X77300000Y-89900000D02*
X77500000Y-90100000D01*
X77700000Y-87300000D02*
X78100000Y-87700000D01*
X78100000Y-87700000D02*
X78100000Y-89450000D01*
X72150000Y-91650000D02*
X72150000Y-89150000D01*
X72150000Y-89150000D02*
X71500000Y-88500000D01*
X82200000Y-71150000D02*
X83850000Y-69500000D01*
X71500000Y-88500000D02*
X71500000Y-76200000D01*
X71500000Y-76200000D02*
X73150000Y-74550000D01*
X73150000Y-74550000D02*
X80850000Y-74550000D01*
X80850000Y-74550000D02*
X82200000Y-73200000D01*
X82200000Y-73200000D02*
X82200000Y-71150000D01*
X83850000Y-69500000D02*
X97500000Y-69500000D01*
X81000000Y-95200000D02*
X83200000Y-93000000D01*
D26*
X105450000Y-78450000D02*
X107300000Y-76600000D01*
X138560000Y-68960000D02*
X138350000Y-68750000D01*
X107300000Y-76600000D02*
X130550000Y-76600000D01*
X130550000Y-76600000D02*
X132750000Y-74400000D01*
X137260000Y-74400000D02*
X138560000Y-73100000D01*
X132750000Y-74400000D02*
X137260000Y-74400000D01*
X138560000Y-73100000D02*
X138560000Y-68960000D01*
X148960000Y-99950000D02*
X148010000Y-99000000D01*
X143160000Y-98500000D02*
X130250000Y-98500000D01*
X148010000Y-99000000D02*
X143660000Y-99000000D01*
X143660000Y-99000000D02*
X143160000Y-98500000D01*
X130250000Y-98500000D02*
X128700000Y-100050000D01*
X128700000Y-100050000D02*
X118460000Y-100050000D01*
X118460000Y-100050000D02*
X116710000Y-98300000D01*
X116710000Y-98300000D02*
X108400000Y-98300000D01*
X108400000Y-98300000D02*
X107900000Y-98800000D01*
D24*
X86350000Y-94150000D02*
X80900000Y-99600000D01*
X80900000Y-99600000D02*
X80900000Y-105100000D01*
X80900000Y-105100000D02*
X80600000Y-105400000D01*
X80600000Y-105400000D02*
X80600000Y-105700000D01*
X80250000Y-104800000D02*
X80250000Y-104141120D01*
X80250000Y-104141120D02*
X80300000Y-104091120D01*
X80300000Y-104091120D02*
X80300000Y-99265006D01*
X80300000Y-99265006D02*
X88665006Y-90900000D01*
X88665006Y-90900000D02*
X93300000Y-90900000D01*
X93300000Y-90900000D02*
X94000000Y-90200000D01*
X86550000Y-90300000D02*
X86400000Y-90450000D01*
X92800000Y-90300000D02*
X86550000Y-90300000D01*
X76000000Y-89800000D02*
X76000000Y-85600000D01*
X76700000Y-90500000D02*
X76000000Y-89800000D01*
X76000000Y-85600000D02*
X75010000Y-84610000D01*
X75010000Y-84610000D02*
X74100000Y-84610000D01*
X74100000Y-82070000D02*
X76900000Y-84870000D01*
X76900000Y-84870000D02*
X76900000Y-88500000D01*
X76900000Y-88500000D02*
X77300000Y-88900000D01*
X74100000Y-79530000D02*
X75730000Y-79530000D01*
X75730000Y-79530000D02*
X77700000Y-81500000D01*
X77700000Y-81500000D02*
X77700000Y-87300000D01*
X81450000Y-108450000D02*
X75330000Y-114570000D01*
X81450000Y-101000000D02*
X81450000Y-108450000D01*
X81750000Y-100700000D02*
X81450000Y-101000000D01*
X75330000Y-114570000D02*
X74300000Y-114570000D01*
X74300000Y-114570000D02*
X74100000Y-114770000D01*
D26*
X146450000Y-115900000D02*
X145650000Y-115100000D01*
X117510000Y-116300000D02*
X107600000Y-116300000D01*
X145650000Y-115100000D02*
X127910000Y-115100000D01*
X127910000Y-115100000D02*
X125510000Y-117500000D01*
X125510000Y-117500000D02*
X118710000Y-117500000D01*
X118710000Y-117500000D02*
X117510000Y-116300000D01*
X107600000Y-116300000D02*
X106800000Y-115500000D01*
X140780900Y-120511400D02*
X140262789Y-121029511D01*
X140262789Y-121029511D02*
X118539511Y-121029511D01*
X118539511Y-121029511D02*
X117410000Y-119900000D01*
X117410000Y-119900000D02*
X117410000Y-118400000D01*
X117410000Y-118400000D02*
X116610000Y-117600000D01*
X116610000Y-117600000D02*
X112200000Y-117600000D01*
X140780900Y-73181400D02*
X140780900Y-73579100D01*
X138660000Y-75700000D02*
X134150000Y-75700000D01*
X140780900Y-73579100D02*
X138660000Y-75700000D01*
X134150000Y-75700000D02*
X130050000Y-79800000D01*
X130050000Y-79800000D02*
X116310000Y-79800000D01*
X116310000Y-79800000D02*
X115210000Y-78700000D01*
X115210000Y-78700000D02*
X113810000Y-78700000D01*
X113810000Y-78700000D02*
X113000000Y-77890000D01*
X113000000Y-77890000D02*
X113000000Y-77500000D01*
X147309500Y-68749500D02*
X147950000Y-68749500D01*
X147160000Y-68600000D02*
X147309500Y-68749500D01*
X118710000Y-77200000D02*
X131350000Y-77200000D01*
X139260000Y-69000000D02*
X139660000Y-68600000D01*
X139260000Y-73800000D02*
X139260000Y-69000000D01*
X118150000Y-77400000D02*
X118510000Y-77400000D01*
X137960000Y-75100000D02*
X139260000Y-73800000D01*
X133450000Y-75100000D02*
X137960000Y-75100000D01*
X131350000Y-77200000D02*
X133450000Y-75100000D01*
X139660000Y-68600000D02*
X147160000Y-68600000D01*
X118510000Y-77400000D02*
X118710000Y-77200000D01*
D24*
X99900000Y-82600000D02*
X99900000Y-88900000D01*
X99900000Y-88900000D02*
X100000000Y-89000000D01*
D26*
X138160000Y-116200000D02*
X137810000Y-115850000D01*
X137810000Y-115850000D02*
X131550000Y-115850000D01*
X131550000Y-115850000D02*
X127200000Y-120200000D01*
X127200000Y-120200000D02*
X119410000Y-120200000D01*
X119410000Y-120200000D02*
X119310000Y-120100000D01*
X140780900Y-111561400D02*
X140780900Y-112279100D01*
X138760000Y-114300000D02*
X126610000Y-114300000D01*
X126610000Y-114300000D02*
X124210000Y-116700000D01*
X140780900Y-112279100D02*
X138760000Y-114300000D01*
X124210000Y-116700000D02*
X119010000Y-116700000D01*
X119010000Y-116700000D02*
X118210000Y-115900000D01*
X118210000Y-115900000D02*
X118210000Y-114800000D01*
X146660000Y-106700000D02*
X146460000Y-106900000D01*
X139760000Y-106900000D02*
X139260000Y-107400000D01*
X146460000Y-106900000D02*
X139760000Y-106900000D01*
X139260000Y-107400000D02*
X139260000Y-112600000D01*
X139260000Y-112600000D02*
X138260000Y-113600000D01*
X116810000Y-114100000D02*
X114510000Y-114100000D01*
X138260000Y-113600000D02*
X117310000Y-113600000D01*
X117310000Y-113600000D02*
X116810000Y-114100000D01*
X114510000Y-114100000D02*
X113610000Y-113200000D01*
X113610000Y-113200000D02*
X107010000Y-113200000D01*
X107010000Y-113200000D02*
X106810000Y-113400000D01*
X138250000Y-112800000D02*
X125909970Y-112800000D01*
X125909970Y-112800000D02*
X123960459Y-110850489D01*
X140780900Y-103861400D02*
X139798600Y-103861400D01*
X139798600Y-103861400D02*
X138560000Y-105100000D01*
X138560000Y-105100000D02*
X123710000Y-105100000D01*
X123610000Y-105000000D02*
X117710000Y-105000000D01*
X123710000Y-105100000D02*
X123610000Y-105000000D01*
X115910000Y-103200000D02*
X111310000Y-103200000D01*
X117710000Y-105000000D02*
X115910000Y-103200000D01*
X130400000Y-84300000D02*
X136860000Y-84300000D01*
X111800000Y-85400000D02*
X113410000Y-85400000D01*
X113410000Y-85400000D02*
X114510000Y-86500000D01*
X114510000Y-86500000D02*
X128200000Y-86500000D01*
X128200000Y-86500000D02*
X130400000Y-84300000D01*
X136860000Y-84300000D02*
X139628600Y-81531400D01*
X139628600Y-81531400D02*
X140780900Y-81531400D01*
D24*
X117600000Y-91700000D02*
X116000000Y-93300000D01*
X119200000Y-91700000D02*
X117600000Y-91700000D01*
X118300000Y-92200000D02*
X117200000Y-93300000D01*
X119300000Y-92200000D02*
X118300000Y-92200000D01*
X118900000Y-92600000D02*
X118200000Y-93300000D01*
X119100000Y-92600000D02*
X118900000Y-92600000D01*
D26*
X146960000Y-84400000D02*
X140760000Y-84400000D01*
X116710000Y-91700000D02*
X111200000Y-91700000D01*
X107500000Y-91070000D02*
X108100000Y-90470000D01*
X140760000Y-84400000D02*
X138460000Y-86700000D01*
X138460000Y-86700000D02*
X138460000Y-90500000D01*
X138460000Y-90500000D02*
X137760000Y-91200000D01*
X137760000Y-91200000D02*
X117210000Y-91200000D01*
X117210000Y-91200000D02*
X116710000Y-91700000D01*
X108200000Y-94100000D02*
X107500000Y-93400000D01*
X107500000Y-93400000D02*
X107500000Y-91070000D01*
X111200000Y-91700000D02*
X108800000Y-94100000D01*
X108800000Y-94100000D02*
X108200000Y-94100000D01*
X138750000Y-85200000D02*
X131510000Y-85200000D01*
X120810000Y-89300000D02*
X119510000Y-90600000D01*
X113800000Y-90600000D02*
X113600000Y-90400000D01*
X131510000Y-85200000D02*
X127410000Y-89300000D01*
X127410000Y-89300000D02*
X120810000Y-89300000D01*
X119510000Y-90600000D02*
X113800000Y-90600000D01*
X113600000Y-90400000D02*
X111374862Y-90400000D01*
X111374862Y-90400000D02*
X108733180Y-93041682D01*
D24*
X123800000Y-91700000D02*
X119200000Y-91700000D01*
X124050000Y-91950000D02*
X123800000Y-91700000D01*
X124050000Y-92550000D02*
X123700000Y-92200000D01*
X123700000Y-92200000D02*
X119300000Y-92200000D01*
X123100000Y-92700000D02*
X123000000Y-92600000D01*
X124100000Y-93200000D02*
X123600000Y-93200000D01*
X123000000Y-92600000D02*
X119100000Y-92600000D01*
X123600000Y-93200000D02*
X123100000Y-92700000D01*
D26*
X113400000Y-92549500D02*
X114950500Y-94100000D01*
X143880900Y-92619100D02*
X143880900Y-89600000D01*
X114950500Y-94100000D02*
X142400000Y-94100000D01*
X142400000Y-94100000D02*
X143880900Y-92619100D01*
D24*
X141950000Y-92100000D02*
X141500000Y-92550000D01*
X141950000Y-90750000D02*
X141950000Y-92100000D01*
X141500000Y-92550000D02*
X124050000Y-92550000D01*
D26*
X128100000Y-99300000D02*
X129825000Y-97575000D01*
X141725000Y-97575000D02*
X129825000Y-97575000D01*
X147350000Y-96989500D02*
X142310500Y-96989500D01*
X142310500Y-96989500D02*
X141725000Y-97575000D01*
X154750000Y-94100000D02*
X154750000Y-94040000D01*
X154750000Y-94040000D02*
X153160000Y-92450000D01*
X153160000Y-92450000D02*
X148410000Y-92450000D01*
X147009031Y-93850969D02*
X143549031Y-93850969D01*
X148410000Y-92450000D02*
X147009031Y-93850969D01*
X143549031Y-93850969D02*
X142800000Y-94600000D01*
X142800000Y-94600000D02*
X113600000Y-94600000D01*
X113600000Y-94600000D02*
X112676913Y-93676913D01*
X112676913Y-93676913D02*
X110516647Y-93676913D01*
X147150000Y-94800000D02*
X146700489Y-94350489D01*
X143949511Y-94350489D02*
X143200000Y-95100000D01*
X146700489Y-94350489D02*
X143949511Y-94350489D01*
X110914848Y-94487633D02*
X109932064Y-94487633D01*
X143200000Y-95100000D02*
X111527215Y-95100000D01*
X111527215Y-95100000D02*
X110914848Y-94487633D01*
X141700000Y-96450000D02*
X141450000Y-96200000D01*
X141450000Y-96200000D02*
X113200000Y-96200000D01*
X113200000Y-96200000D02*
X112500000Y-96900000D01*
X112500000Y-96900000D02*
X112310000Y-96900000D01*
D24*
X142850000Y-92700000D02*
X142450000Y-93100000D01*
X142450000Y-93100000D02*
X142350000Y-93200000D01*
X135550000Y-93200000D02*
X124100000Y-93200000D01*
X142850000Y-92550000D02*
X142850000Y-92700000D01*
X142350000Y-93200000D02*
X135550000Y-93200000D01*
X140350000Y-91950000D02*
X124050000Y-91950000D01*
X140450000Y-91850000D02*
X140350000Y-91950000D01*
D26*
X139010000Y-99400000D02*
X138910000Y-99500000D01*
X138910000Y-99500000D02*
X130910000Y-99500000D01*
X130910000Y-99500000D02*
X128010489Y-102399511D01*
X128010489Y-102399511D02*
X109650489Y-102399511D01*
X109650489Y-102399511D02*
X109000000Y-103050000D01*
X110149527Y-96150500D02*
X110149527Y-96339527D01*
X118710000Y-99300000D02*
X128100000Y-99300000D01*
X110149527Y-96339527D02*
X111510000Y-97700000D01*
X111510000Y-97700000D02*
X117110000Y-97700000D01*
X117110000Y-97700000D02*
X118710000Y-99300000D01*
X140780900Y-88981400D02*
X140780900Y-89579100D01*
X138660000Y-77000000D02*
X138850000Y-77190000D01*
X138850000Y-77190000D02*
X138850000Y-81110000D01*
X138850000Y-81110000D02*
X136660000Y-83300000D01*
X115810000Y-85800000D02*
X114610000Y-84600000D01*
X136660000Y-83300000D02*
X130300000Y-83300000D01*
X130300000Y-83300000D02*
X127800000Y-85800000D01*
X127800000Y-85800000D02*
X115810000Y-85800000D01*
X114610000Y-84600000D02*
X110010000Y-84600000D01*
X109010000Y-85600000D02*
X107200000Y-85600000D01*
X110010000Y-84600000D02*
X109010000Y-85600000D01*
X107200000Y-85600000D02*
X107100000Y-85500000D01*
D28*
X88300000Y-81800000D02*
X89000489Y-81099511D01*
X89000489Y-81099511D02*
X90609511Y-81099511D01*
D25*
X88600000Y-71700000D02*
X88900000Y-71400000D01*
X88600000Y-79700000D02*
X88600000Y-71700000D01*
D28*
X90609511Y-81099511D02*
X88399511Y-81099511D01*
X88399511Y-81099511D02*
X86900000Y-79600000D01*
X86900000Y-79600000D02*
X86900000Y-74740000D01*
X86900000Y-74740000D02*
X83560000Y-71400000D01*
X90609511Y-81099511D02*
X104499511Y-81099511D01*
D26*
X89660000Y-113250000D02*
X90160000Y-112750000D01*
X93450000Y-112750000D02*
X94450000Y-113750000D01*
X90160000Y-112750000D02*
X93450000Y-112750000D01*
D24*
X82300000Y-99900000D02*
X82300000Y-100100000D01*
X85239500Y-108650000D02*
X88889500Y-105000000D01*
X82900000Y-108600000D02*
X82950000Y-108650000D01*
X82950000Y-108650000D02*
X85239500Y-108650000D01*
D27*
X94500000Y-74800000D02*
X95100000Y-74800000D01*
X95100000Y-74800000D02*
X95500000Y-75200000D01*
D26*
X112500000Y-111400000D02*
X108900000Y-111400000D01*
X138500000Y-112550000D02*
X138250000Y-112800000D01*
X138500000Y-107550000D02*
X138500000Y-112550000D01*
X113049511Y-110850489D02*
X112500000Y-111400000D01*
X123960459Y-110850489D02*
X113049511Y-110850489D01*
D28*
X105900000Y-96800000D02*
X105900000Y-99800000D01*
X105900000Y-99800000D02*
X105900000Y-109500000D01*
X105900000Y-109500000D02*
X105900000Y-117100000D01*
X107999511Y-119199511D02*
X109000489Y-119199511D01*
X105900000Y-96800000D02*
X104000000Y-96800000D01*
X104000000Y-96800000D02*
X103100000Y-95900000D01*
X115710489Y-119199511D02*
X109000489Y-119199511D01*
X103300489Y-119199511D02*
X102300000Y-120200000D01*
X117179989Y-83900000D02*
X118000000Y-84720011D01*
D26*
X104300000Y-73300000D02*
X104300000Y-80900000D01*
D28*
X116210000Y-118700000D02*
X115710489Y-119199511D01*
D26*
X104300000Y-80900000D02*
X104499511Y-81099511D01*
D28*
X107199022Y-78400000D02*
X104499511Y-81099511D01*
X117150489Y-109350489D02*
X117800000Y-110000000D01*
X109000489Y-119199511D02*
X103300489Y-119199511D01*
X105900000Y-109500000D02*
X106049511Y-109350489D01*
X105900000Y-88500000D02*
X105900000Y-96800000D01*
X106049511Y-109350489D02*
X117150489Y-109350489D01*
X105900000Y-117100000D02*
X107999511Y-119199511D01*
X107300000Y-83900000D02*
X117179989Y-83900000D01*
X104499511Y-81099511D02*
X106000000Y-82600000D01*
X106000000Y-82600000D02*
X107300000Y-83900000D01*
X116810000Y-99900000D02*
X116710000Y-99800000D01*
X116710000Y-99800000D02*
X105900000Y-99800000D01*
D24*
X90260001Y-115349999D02*
X91160000Y-114450000D01*
X90028199Y-115349999D02*
X90260001Y-115349999D01*
X84034999Y-115956801D02*
X86266800Y-113725000D01*
X84034999Y-116975001D02*
X84034999Y-115956801D01*
X88403200Y-113725000D02*
X90028199Y-115349999D01*
X86266800Y-113725000D02*
X88403200Y-113725000D01*
X83810000Y-117200000D02*
X84034999Y-116975001D01*
X88216800Y-114175000D02*
X89841801Y-115800001D01*
X89841801Y-115800001D02*
X90260001Y-115800001D01*
X84485001Y-116143199D02*
X86453200Y-114175000D01*
X84485001Y-116975001D02*
X84485001Y-116143199D01*
X84710000Y-117200000D02*
X84485001Y-116975001D01*
X90260001Y-115800001D02*
X91610000Y-117150000D01*
D26*
X84710000Y-117200000D02*
X84710000Y-117322182D01*
D24*
X86453200Y-114175000D02*
X88216800Y-114175000D01*
G04 #@! TA.AperFunction,Conductor*
G36*
X152726984Y-115010284D02*
G01*
X152763796Y-115040094D01*
X152812887Y-115094615D01*
X152888747Y-115178866D01*
X152946924Y-115221134D01*
X153000000Y-115259696D01*
X153043248Y-115291118D01*
X153050493Y-115294344D01*
X153050497Y-115294346D01*
X153210463Y-115365567D01*
X153210467Y-115365568D01*
X153217712Y-115368794D01*
X153337738Y-115394306D01*
X153396754Y-115406851D01*
X153396756Y-115406851D01*
X153404513Y-115408500D01*
X153595487Y-115408500D01*
X153603244Y-115406851D01*
X153603246Y-115406851D01*
X153662262Y-115394306D01*
X153782288Y-115368794D01*
X153789533Y-115365568D01*
X153789537Y-115365567D01*
X153938420Y-115299280D01*
X154015826Y-115287020D01*
X154061580Y-115299280D01*
X154210463Y-115365567D01*
X154210467Y-115365568D01*
X154217712Y-115368794D01*
X154337738Y-115394306D01*
X154396754Y-115406851D01*
X154396756Y-115406851D01*
X154404513Y-115408500D01*
X154595487Y-115408500D01*
X154603244Y-115406851D01*
X154603246Y-115406851D01*
X154662262Y-115394306D01*
X154782288Y-115368794D01*
X154789533Y-115365568D01*
X154789537Y-115365567D01*
X154938420Y-115299280D01*
X155015826Y-115287020D01*
X155061580Y-115299280D01*
X155210463Y-115365567D01*
X155210467Y-115365568D01*
X155217712Y-115368794D01*
X155337738Y-115394306D01*
X155396754Y-115406851D01*
X155396756Y-115406851D01*
X155404513Y-115408500D01*
X155595487Y-115408500D01*
X155603244Y-115406851D01*
X155603246Y-115406851D01*
X155662262Y-115394306D01*
X155782288Y-115368794D01*
X155789533Y-115365568D01*
X155789537Y-115365567D01*
X155938420Y-115299280D01*
X156015826Y-115287020D01*
X156061580Y-115299280D01*
X156210463Y-115365567D01*
X156210467Y-115365568D01*
X156217712Y-115368794D01*
X156337738Y-115394306D01*
X156396754Y-115406851D01*
X156396756Y-115406851D01*
X156404513Y-115408500D01*
X156595487Y-115408500D01*
X156603244Y-115406851D01*
X156603246Y-115406851D01*
X156662262Y-115394306D01*
X156782288Y-115368794D01*
X156789533Y-115365568D01*
X156789537Y-115365567D01*
X156938420Y-115299280D01*
X157015826Y-115287020D01*
X157061580Y-115299280D01*
X157210463Y-115365567D01*
X157210467Y-115365568D01*
X157217712Y-115368794D01*
X157337738Y-115394306D01*
X157396754Y-115406851D01*
X157396756Y-115406851D01*
X157404513Y-115408500D01*
X157595487Y-115408500D01*
X157603244Y-115406851D01*
X157603246Y-115406851D01*
X157662262Y-115394306D01*
X157782288Y-115368794D01*
X157789533Y-115365568D01*
X157789537Y-115365567D01*
X157938420Y-115299280D01*
X158015826Y-115287020D01*
X158061580Y-115299280D01*
X158210463Y-115365567D01*
X158210467Y-115365568D01*
X158217712Y-115368794D01*
X158337738Y-115394306D01*
X158396754Y-115406851D01*
X158396756Y-115406851D01*
X158404513Y-115408500D01*
X158595487Y-115408500D01*
X158603244Y-115406851D01*
X158603246Y-115406851D01*
X158662262Y-115394306D01*
X158782288Y-115368794D01*
X158789533Y-115365568D01*
X158789537Y-115365567D01*
X158938420Y-115299280D01*
X159015826Y-115287020D01*
X159061580Y-115299280D01*
X159210463Y-115365567D01*
X159210467Y-115365568D01*
X159217712Y-115368794D01*
X159337738Y-115394306D01*
X159396754Y-115406851D01*
X159396756Y-115406851D01*
X159404513Y-115408500D01*
X159595487Y-115408500D01*
X159603244Y-115406851D01*
X159603246Y-115406851D01*
X159662262Y-115394306D01*
X159782288Y-115368794D01*
X159789533Y-115365568D01*
X159789537Y-115365567D01*
X159949503Y-115294346D01*
X159949507Y-115294344D01*
X159956752Y-115291118D01*
X160000001Y-115259696D01*
X160053076Y-115221134D01*
X160111253Y-115178866D01*
X160116566Y-115172966D01*
X160122457Y-115167661D01*
X160123528Y-115168851D01*
X160181406Y-115131260D01*
X160259669Y-115127154D01*
X160329499Y-115162729D01*
X160356030Y-115194123D01*
X160467601Y-115369930D01*
X160517099Y-115447927D01*
X160714287Y-115686287D01*
X160717751Y-115689540D01*
X160717753Y-115689542D01*
X160933470Y-115892112D01*
X160939795Y-115898052D01*
X160943637Y-115900843D01*
X160943645Y-115900850D01*
X161186211Y-116077084D01*
X161190065Y-116079884D01*
X161222065Y-116097476D01*
X161456982Y-116226624D01*
X161456988Y-116226627D01*
X161461152Y-116228916D01*
X161586215Y-116278432D01*
X161744351Y-116341043D01*
X161744359Y-116341046D01*
X161748780Y-116342796D01*
X161753385Y-116343978D01*
X161753390Y-116343980D01*
X161955578Y-116395892D01*
X162048412Y-116419728D01*
X162157440Y-116433501D01*
X162350604Y-116457904D01*
X162350608Y-116457904D01*
X162355324Y-116458500D01*
X162664676Y-116458500D01*
X162669392Y-116457904D01*
X162669396Y-116457904D01*
X162835309Y-116436944D01*
X162971588Y-116419728D01*
X162976190Y-116418546D01*
X162976213Y-116418542D01*
X163040848Y-116401946D01*
X163119214Y-116402766D01*
X163186671Y-116442660D01*
X163225143Y-116510937D01*
X163229900Y-116548589D01*
X163229900Y-117027459D01*
X163209616Y-117103159D01*
X163154200Y-117158575D01*
X163140079Y-117165770D01*
X163050501Y-117205652D01*
X163050495Y-117205655D01*
X163043248Y-117208882D01*
X162888747Y-117321134D01*
X162760960Y-117463056D01*
X162665473Y-117628444D01*
X162606458Y-117810072D01*
X162586496Y-118000000D01*
X162606458Y-118189928D01*
X162665473Y-118371556D01*
X162694471Y-118421781D01*
X162695925Y-118424300D01*
X162716209Y-118499999D01*
X162695925Y-118575699D01*
X162665473Y-118628444D01*
X162606458Y-118810072D01*
X162605629Y-118817961D01*
X162605628Y-118817965D01*
X162587325Y-118992112D01*
X162586496Y-119000000D01*
X162587325Y-119007888D01*
X162587978Y-119014096D01*
X162606458Y-119189928D01*
X162665473Y-119371556D01*
X162669443Y-119378432D01*
X162695925Y-119424300D01*
X162716209Y-119499999D01*
X162695925Y-119575699D01*
X162665473Y-119628444D01*
X162606458Y-119810072D01*
X162586496Y-120000000D01*
X162606458Y-120189928D01*
X162665473Y-120371556D01*
X162669443Y-120378432D01*
X162695925Y-120424300D01*
X162716209Y-120499999D01*
X162695925Y-120575699D01*
X162665473Y-120628444D01*
X162606458Y-120810072D01*
X162586496Y-121000000D01*
X162587325Y-121007888D01*
X162605102Y-121177025D01*
X162606458Y-121189928D01*
X162618429Y-121226771D01*
X162640213Y-121293814D01*
X162644315Y-121372077D01*
X162608735Y-121441906D01*
X162543009Y-121484590D01*
X162496223Y-121492000D01*
X160031926Y-121492000D01*
X159956226Y-121471716D01*
X159900810Y-121416300D01*
X159880526Y-121340600D01*
X159900810Y-121264900D01*
X159956226Y-121209484D01*
X160002389Y-121192109D01*
X160078219Y-121177025D01*
X160087762Y-121174468D01*
X160357422Y-121082931D01*
X160366566Y-121079143D01*
X160450431Y-121037786D01*
X160462668Y-121027054D01*
X160461983Y-121023613D01*
X160459531Y-121020191D01*
X159514096Y-120074756D01*
X159500000Y-120066618D01*
X159485904Y-120074756D01*
X158545787Y-121014873D01*
X158537649Y-121028969D01*
X158539403Y-121032008D01*
X158542825Y-121034460D01*
X158633434Y-121079143D01*
X158642578Y-121082931D01*
X158912238Y-121174468D01*
X158921781Y-121177025D01*
X158997611Y-121192109D01*
X159067899Y-121226771D01*
X159111439Y-121291934D01*
X159116565Y-121370137D01*
X159081903Y-121440425D01*
X159016740Y-121483965D01*
X158968074Y-121492000D01*
X139476300Y-121492000D01*
X139400600Y-121471716D01*
X139345184Y-121416300D01*
X139324900Y-121340600D01*
X139324900Y-119004943D01*
X157247501Y-119004943D01*
X157266126Y-119289104D01*
X157267417Y-119298915D01*
X157322975Y-119578219D01*
X157325532Y-119587762D01*
X157417069Y-119857422D01*
X157420857Y-119866566D01*
X157462214Y-119950431D01*
X157472946Y-119962668D01*
X157476387Y-119961983D01*
X157479809Y-119959531D01*
X158425244Y-119014096D01*
X158433382Y-119000000D01*
X160566618Y-119000000D01*
X160574756Y-119014096D01*
X161514873Y-119954213D01*
X161528969Y-119962351D01*
X161532008Y-119960597D01*
X161534460Y-119957175D01*
X161579143Y-119866566D01*
X161582931Y-119857422D01*
X161674468Y-119587762D01*
X161677025Y-119578219D01*
X161732583Y-119298915D01*
X161733874Y-119289104D01*
X161752499Y-119004943D01*
X161752499Y-118995057D01*
X161733874Y-118710896D01*
X161732583Y-118701085D01*
X161677025Y-118421781D01*
X161674468Y-118412238D01*
X161582931Y-118142578D01*
X161579143Y-118133434D01*
X161537786Y-118049569D01*
X161527054Y-118037332D01*
X161523613Y-118038017D01*
X161520191Y-118040469D01*
X160574756Y-118985904D01*
X160566618Y-119000000D01*
X158433382Y-119000000D01*
X158425244Y-118985904D01*
X157485127Y-118045787D01*
X157471031Y-118037649D01*
X157467992Y-118039403D01*
X157465540Y-118042825D01*
X157420857Y-118133434D01*
X157417069Y-118142578D01*
X157325532Y-118412238D01*
X157322975Y-118421781D01*
X157267417Y-118701085D01*
X157266126Y-118710896D01*
X157247501Y-118995057D01*
X157247501Y-119004943D01*
X139324900Y-119004943D01*
X139324900Y-116972946D01*
X158537332Y-116972946D01*
X158538017Y-116976387D01*
X158540469Y-116979809D01*
X159485904Y-117925244D01*
X159500000Y-117933382D01*
X159514096Y-117925244D01*
X160454213Y-116985127D01*
X160462351Y-116971031D01*
X160460597Y-116967992D01*
X160457175Y-116965540D01*
X160366566Y-116920857D01*
X160357422Y-116917069D01*
X160087762Y-116825532D01*
X160078219Y-116822975D01*
X159798915Y-116767417D01*
X159789104Y-116766126D01*
X159504943Y-116747501D01*
X159495057Y-116747501D01*
X159210896Y-116766126D01*
X159201085Y-116767417D01*
X158921781Y-116822975D01*
X158912238Y-116825532D01*
X158642578Y-116917069D01*
X158633434Y-116920857D01*
X158549569Y-116962214D01*
X158537332Y-116972946D01*
X139324900Y-116972946D01*
X139324900Y-115909900D01*
X139345184Y-115834200D01*
X139400600Y-115778784D01*
X139476300Y-115758500D01*
X145314528Y-115758500D01*
X145390228Y-115778784D01*
X145421584Y-115802844D01*
X145500670Y-115881930D01*
X145539855Y-115949801D01*
X145544185Y-115973160D01*
X145556458Y-116089928D01*
X145558908Y-116097467D01*
X145558908Y-116097469D01*
X145601618Y-116228916D01*
X145615473Y-116271556D01*
X145619443Y-116278432D01*
X145700336Y-116418542D01*
X145710960Y-116436944D01*
X145716269Y-116442840D01*
X145716271Y-116442843D01*
X145781673Y-116515479D01*
X145838747Y-116578866D01*
X145993248Y-116691118D01*
X146000493Y-116694344D01*
X146000497Y-116694346D01*
X146160463Y-116765567D01*
X146160467Y-116765568D01*
X146167712Y-116768794D01*
X146287738Y-116794306D01*
X146346754Y-116806851D01*
X146346756Y-116806851D01*
X146354513Y-116808500D01*
X146545487Y-116808500D01*
X146553244Y-116806851D01*
X146553246Y-116806851D01*
X146612262Y-116794306D01*
X146732288Y-116768794D01*
X146739533Y-116765568D01*
X146739537Y-116765567D01*
X146899503Y-116694346D01*
X146899507Y-116694344D01*
X146906752Y-116691118D01*
X147061253Y-116578866D01*
X147118326Y-116515479D01*
X147183729Y-116442843D01*
X147183731Y-116442840D01*
X147189040Y-116436944D01*
X147199665Y-116418542D01*
X147280557Y-116278432D01*
X147284527Y-116271556D01*
X147343542Y-116089928D01*
X147362464Y-115909900D01*
X147362675Y-115907888D01*
X147363504Y-115900000D01*
X147343542Y-115710072D01*
X147284527Y-115528444D01*
X147189040Y-115363056D01*
X147080674Y-115242703D01*
X147045097Y-115172878D01*
X147049198Y-115094615D01*
X147091881Y-115028888D01*
X147161710Y-114993309D01*
X147193188Y-114990000D01*
X152651284Y-114990000D01*
X152726984Y-115010284D01*
G37*
G04 #@! TD.AperFunction*
G04 #@! TA.AperFunction,Conductor*
G36*
X143006728Y-99285284D02*
G01*
X143038084Y-99309344D01*
X143137012Y-99408272D01*
X143144201Y-99416173D01*
X143148584Y-99423080D01*
X143155527Y-99429600D01*
X143155528Y-99429601D01*
X143199946Y-99471312D01*
X143203362Y-99474622D01*
X143223667Y-99494927D01*
X143227426Y-99497843D01*
X143230794Y-99500812D01*
X143237062Y-99506166D01*
X143269867Y-99536972D01*
X143286913Y-99546343D01*
X143306763Y-99559383D01*
X143322132Y-99571304D01*
X143330867Y-99575084D01*
X143330874Y-99575088D01*
X143363433Y-99589177D01*
X143376241Y-99595451D01*
X143415663Y-99617124D01*
X143434504Y-99621962D01*
X143456969Y-99629654D01*
X143474824Y-99637380D01*
X143484230Y-99638870D01*
X143484231Y-99638870D01*
X143519265Y-99644419D01*
X143533229Y-99647311D01*
X143567586Y-99656132D01*
X143567592Y-99656133D01*
X143576812Y-99658500D01*
X143596261Y-99658500D01*
X143619944Y-99660364D01*
X143625916Y-99661310D01*
X143639152Y-99663406D01*
X143648631Y-99662510D01*
X143648633Y-99662510D01*
X143683944Y-99659172D01*
X143698192Y-99658500D01*
X147674528Y-99658500D01*
X147750228Y-99678784D01*
X147781584Y-99702844D01*
X148124570Y-100045830D01*
X148163602Y-100113435D01*
X148164163Y-100119160D01*
X148221418Y-100291273D01*
X148315380Y-100446424D01*
X148441382Y-100576902D01*
X148448468Y-100581539D01*
X148531683Y-100635993D01*
X148593159Y-100676222D01*
X148601094Y-100679173D01*
X148601096Y-100679174D01*
X148663488Y-100702377D01*
X148763168Y-100739448D01*
X148942961Y-100763438D01*
X148951389Y-100762671D01*
X148951392Y-100762671D01*
X149014573Y-100756921D01*
X149123600Y-100746998D01*
X149166150Y-100733173D01*
X149288061Y-100693562D01*
X149288064Y-100693561D01*
X149296108Y-100690947D01*
X149451912Y-100598069D01*
X149583266Y-100472982D01*
X149683643Y-100321902D01*
X149721233Y-100222946D01*
X158537332Y-100222946D01*
X158538017Y-100226387D01*
X158540469Y-100229809D01*
X159485904Y-101175244D01*
X159500000Y-101183382D01*
X159514096Y-101175244D01*
X160454213Y-100235127D01*
X160462351Y-100221031D01*
X160460597Y-100217992D01*
X160457175Y-100215540D01*
X160366566Y-100170857D01*
X160357422Y-100167069D01*
X160087762Y-100075532D01*
X160078219Y-100072975D01*
X159798915Y-100017417D01*
X159789104Y-100016126D01*
X159504943Y-99997501D01*
X159495057Y-99997501D01*
X159210896Y-100016126D01*
X159201085Y-100017417D01*
X158921781Y-100072975D01*
X158912238Y-100075532D01*
X158642578Y-100167069D01*
X158633434Y-100170857D01*
X158549569Y-100212214D01*
X158537332Y-100222946D01*
X149721233Y-100222946D01*
X149736774Y-100182035D01*
X149745048Y-100160255D01*
X149745049Y-100160252D01*
X149748055Y-100152338D01*
X149773299Y-99972717D01*
X149773616Y-99950000D01*
X149758806Y-99817965D01*
X149754341Y-99778157D01*
X149754340Y-99778153D01*
X149753397Y-99769745D01*
X149693745Y-99598448D01*
X149630122Y-99496629D01*
X149607209Y-99421683D01*
X149624839Y-99345321D01*
X149678288Y-99288005D01*
X149758517Y-99265000D01*
X162520852Y-99265000D01*
X162596552Y-99285284D01*
X162651968Y-99340700D01*
X162659231Y-99357010D01*
X162659793Y-99356760D01*
X162663021Y-99364010D01*
X162665473Y-99371556D01*
X162695925Y-99424300D01*
X162716209Y-99499999D01*
X162695925Y-99575699D01*
X162665473Y-99628444D01*
X162663021Y-99635992D01*
X162663020Y-99635993D01*
X162655707Y-99658500D01*
X162606458Y-99810072D01*
X162605629Y-99817961D01*
X162605628Y-99817965D01*
X162588869Y-99977421D01*
X162586496Y-100000000D01*
X162587325Y-100007888D01*
X162604454Y-100170857D01*
X162606458Y-100189928D01*
X162665473Y-100371556D01*
X162669443Y-100378432D01*
X162695925Y-100424300D01*
X162716209Y-100499999D01*
X162695925Y-100575699D01*
X162665473Y-100628444D01*
X162606458Y-100810072D01*
X162586496Y-101000000D01*
X162587325Y-101007888D01*
X162604915Y-101175244D01*
X162606458Y-101189928D01*
X162665473Y-101371556D01*
X162669443Y-101378432D01*
X162695925Y-101424300D01*
X162716209Y-101499999D01*
X162695925Y-101575699D01*
X162665473Y-101628444D01*
X162606458Y-101810072D01*
X162586496Y-102000000D01*
X162606458Y-102189928D01*
X162665473Y-102371556D01*
X162669443Y-102378432D01*
X162695925Y-102424300D01*
X162716209Y-102499999D01*
X162695925Y-102575699D01*
X162665473Y-102628444D01*
X162606458Y-102810072D01*
X162605629Y-102817961D01*
X162605628Y-102817965D01*
X162587325Y-102992112D01*
X162586496Y-103000000D01*
X162606458Y-103189928D01*
X162665473Y-103371556D01*
X162669443Y-103378432D01*
X162695925Y-103424300D01*
X162716209Y-103499999D01*
X162695925Y-103575699D01*
X162665473Y-103628444D01*
X162606458Y-103810072D01*
X162586496Y-104000000D01*
X162606458Y-104189928D01*
X162665473Y-104371556D01*
X162669443Y-104378432D01*
X162695925Y-104424300D01*
X162716209Y-104499999D01*
X162695925Y-104575699D01*
X162665473Y-104628444D01*
X162606458Y-104810072D01*
X162586496Y-105000000D01*
X162587325Y-105007886D01*
X162604813Y-105174274D01*
X162592553Y-105251680D01*
X162543233Y-105312585D01*
X162470068Y-105340671D01*
X162454242Y-105341500D01*
X162404513Y-105341500D01*
X162396756Y-105343149D01*
X162396754Y-105343149D01*
X162339825Y-105355250D01*
X162217712Y-105381206D01*
X162210467Y-105384432D01*
X162210463Y-105384433D01*
X162061580Y-105450720D01*
X161984174Y-105462980D01*
X161938420Y-105450720D01*
X161789537Y-105384433D01*
X161789533Y-105384432D01*
X161782288Y-105381206D01*
X161660175Y-105355250D01*
X161603246Y-105343149D01*
X161603244Y-105343149D01*
X161595487Y-105341500D01*
X161404513Y-105341500D01*
X161396756Y-105343149D01*
X161396754Y-105343149D01*
X161339825Y-105355250D01*
X161217712Y-105381206D01*
X161210467Y-105384432D01*
X161210463Y-105384433D01*
X161061580Y-105450720D01*
X160984174Y-105462980D01*
X160938420Y-105450720D01*
X160789537Y-105384433D01*
X160789533Y-105384432D01*
X160782288Y-105381206D01*
X160660175Y-105355250D01*
X160603246Y-105343149D01*
X160603244Y-105343149D01*
X160595487Y-105341500D01*
X160404513Y-105341500D01*
X160396756Y-105343149D01*
X160396754Y-105343149D01*
X160339825Y-105355250D01*
X160217712Y-105381206D01*
X160210467Y-105384432D01*
X160210463Y-105384433D01*
X160061580Y-105450720D01*
X159984174Y-105462980D01*
X159938420Y-105450720D01*
X159789537Y-105384433D01*
X159789533Y-105384432D01*
X159782288Y-105381206D01*
X159660175Y-105355250D01*
X159603246Y-105343149D01*
X159603244Y-105343149D01*
X159595487Y-105341500D01*
X159404513Y-105341500D01*
X159396756Y-105343149D01*
X159396754Y-105343149D01*
X159339825Y-105355250D01*
X159217712Y-105381206D01*
X159210467Y-105384432D01*
X159210463Y-105384433D01*
X159061580Y-105450720D01*
X158984174Y-105462980D01*
X158938420Y-105450720D01*
X158789537Y-105384433D01*
X158789533Y-105384432D01*
X158782288Y-105381206D01*
X158660175Y-105355250D01*
X158603246Y-105343149D01*
X158603244Y-105343149D01*
X158595487Y-105341500D01*
X158404513Y-105341500D01*
X158396756Y-105343149D01*
X158396754Y-105343149D01*
X158339825Y-105355250D01*
X158217712Y-105381206D01*
X158210467Y-105384432D01*
X158210463Y-105384433D01*
X158061580Y-105450720D01*
X157984174Y-105462980D01*
X157938420Y-105450720D01*
X157789537Y-105384433D01*
X157789533Y-105384432D01*
X157782288Y-105381206D01*
X157660175Y-105355250D01*
X157603246Y-105343149D01*
X157603244Y-105343149D01*
X157595487Y-105341500D01*
X157404513Y-105341500D01*
X157396756Y-105343149D01*
X157396754Y-105343149D01*
X157339825Y-105355250D01*
X157217712Y-105381206D01*
X157210467Y-105384432D01*
X157210463Y-105384433D01*
X157061580Y-105450720D01*
X156984174Y-105462980D01*
X156938420Y-105450720D01*
X156789537Y-105384433D01*
X156789533Y-105384432D01*
X156782288Y-105381206D01*
X156660175Y-105355250D01*
X156603246Y-105343149D01*
X156603244Y-105343149D01*
X156595487Y-105341500D01*
X156404513Y-105341500D01*
X156396756Y-105343149D01*
X156396754Y-105343149D01*
X156339825Y-105355250D01*
X156217712Y-105381206D01*
X156210467Y-105384432D01*
X156210463Y-105384433D01*
X156061580Y-105450720D01*
X155984174Y-105462980D01*
X155938420Y-105450720D01*
X155789537Y-105384433D01*
X155789533Y-105384432D01*
X155782288Y-105381206D01*
X155660175Y-105355250D01*
X155603246Y-105343149D01*
X155603244Y-105343149D01*
X155595487Y-105341500D01*
X155404513Y-105341500D01*
X155396756Y-105343149D01*
X155396754Y-105343149D01*
X155339825Y-105355250D01*
X155217712Y-105381206D01*
X155210467Y-105384432D01*
X155210463Y-105384433D01*
X155061580Y-105450720D01*
X154984174Y-105462980D01*
X154938420Y-105450720D01*
X154789537Y-105384433D01*
X154789533Y-105384432D01*
X154782288Y-105381206D01*
X154660175Y-105355250D01*
X154603246Y-105343149D01*
X154603244Y-105343149D01*
X154595487Y-105341500D01*
X154404513Y-105341500D01*
X154396756Y-105343149D01*
X154396754Y-105343149D01*
X154339825Y-105355250D01*
X154217712Y-105381206D01*
X154210467Y-105384432D01*
X154210463Y-105384433D01*
X154061580Y-105450720D01*
X153984174Y-105462980D01*
X153938420Y-105450720D01*
X153789537Y-105384433D01*
X153789533Y-105384432D01*
X153782288Y-105381206D01*
X153660175Y-105355250D01*
X153603246Y-105343149D01*
X153603244Y-105343149D01*
X153595487Y-105341500D01*
X153404513Y-105341500D01*
X153396756Y-105343149D01*
X153396754Y-105343149D01*
X153339825Y-105355250D01*
X153217712Y-105381206D01*
X153210467Y-105384432D01*
X153210463Y-105384433D01*
X153050497Y-105455654D01*
X153050493Y-105455656D01*
X153043248Y-105458882D01*
X153036828Y-105463546D01*
X153036827Y-105463547D01*
X152986654Y-105500000D01*
X152888747Y-105571134D01*
X152760960Y-105713056D01*
X152756992Y-105719928D01*
X152756991Y-105719930D01*
X152722714Y-105779300D01*
X152667298Y-105834716D01*
X152591598Y-105855000D01*
X147027912Y-105855000D01*
X146966332Y-105841911D01*
X146949537Y-105834433D01*
X146949533Y-105834432D01*
X146942288Y-105831206D01*
X146822262Y-105805694D01*
X146763246Y-105793149D01*
X146763244Y-105793149D01*
X146755487Y-105791500D01*
X146564513Y-105791500D01*
X146556756Y-105793149D01*
X146556754Y-105793149D01*
X146497738Y-105805694D01*
X146377712Y-105831206D01*
X146370467Y-105834432D01*
X146370463Y-105834433D01*
X146353668Y-105841911D01*
X146292088Y-105855000D01*
X139391300Y-105855000D01*
X139315600Y-105834716D01*
X139260184Y-105779300D01*
X139239900Y-105703600D01*
X139239900Y-104278969D01*
X158537649Y-104278969D01*
X158539403Y-104282008D01*
X158542825Y-104284460D01*
X158633434Y-104329143D01*
X158642578Y-104332931D01*
X158912238Y-104424468D01*
X158921781Y-104427025D01*
X159201085Y-104482583D01*
X159210896Y-104483874D01*
X159495057Y-104502499D01*
X159504943Y-104502499D01*
X159789104Y-104483874D01*
X159798915Y-104482583D01*
X160078219Y-104427025D01*
X160087762Y-104424468D01*
X160357422Y-104332931D01*
X160366566Y-104329143D01*
X160450431Y-104287786D01*
X160462668Y-104277054D01*
X160461983Y-104273613D01*
X160459531Y-104270191D01*
X159514096Y-103324756D01*
X159500000Y-103316618D01*
X159485904Y-103324756D01*
X158545787Y-104264873D01*
X158537649Y-104278969D01*
X139239900Y-104278969D01*
X139239900Y-102254943D01*
X157247501Y-102254943D01*
X157266126Y-102539104D01*
X157267417Y-102548915D01*
X157322975Y-102828219D01*
X157325532Y-102837762D01*
X157417069Y-103107422D01*
X157420857Y-103116566D01*
X157462214Y-103200431D01*
X157472946Y-103212668D01*
X157476387Y-103211983D01*
X157479809Y-103209531D01*
X158425244Y-102264096D01*
X158433382Y-102250000D01*
X160566618Y-102250000D01*
X160574756Y-102264096D01*
X161514873Y-103204213D01*
X161528969Y-103212351D01*
X161532008Y-103210597D01*
X161534460Y-103207175D01*
X161579143Y-103116566D01*
X161582931Y-103107422D01*
X161674468Y-102837762D01*
X161677025Y-102828219D01*
X161732583Y-102548915D01*
X161733874Y-102539104D01*
X161752499Y-102254943D01*
X161752499Y-102245057D01*
X161733874Y-101960896D01*
X161732583Y-101951085D01*
X161677025Y-101671781D01*
X161674468Y-101662238D01*
X161582931Y-101392578D01*
X161579143Y-101383434D01*
X161537786Y-101299569D01*
X161527054Y-101287332D01*
X161523613Y-101288017D01*
X161520191Y-101290469D01*
X160574756Y-102235904D01*
X160566618Y-102250000D01*
X158433382Y-102250000D01*
X158425244Y-102235904D01*
X157485127Y-101295787D01*
X157471031Y-101287649D01*
X157467992Y-101289403D01*
X157465540Y-101292825D01*
X157420857Y-101383434D01*
X157417069Y-101392578D01*
X157325532Y-101662238D01*
X157322975Y-101671781D01*
X157267417Y-101951085D01*
X157266126Y-101960896D01*
X157247501Y-102245057D01*
X157247501Y-102254943D01*
X139239900Y-102254943D01*
X139239900Y-100285455D01*
X139260184Y-100209755D01*
X139315600Y-100154339D01*
X139330615Y-100147652D01*
X139330347Y-100147061D01*
X139338060Y-100143562D01*
X139346108Y-100140947D01*
X139501912Y-100048069D01*
X139633266Y-99922982D01*
X139733643Y-99771902D01*
X139776721Y-99658500D01*
X139795048Y-99610255D01*
X139795049Y-99610252D01*
X139798055Y-99602338D01*
X139823299Y-99422717D01*
X139823365Y-99417970D01*
X139823366Y-99417960D01*
X139823417Y-99414281D01*
X139844758Y-99338872D01*
X139900945Y-99284237D01*
X139974802Y-99265000D01*
X142931028Y-99265000D01*
X143006728Y-99285284D01*
G37*
G04 #@! TD.AperFunction*
G04 #@! TA.AperFunction,Conductor*
G36*
X163154200Y-68528284D02*
G01*
X163209616Y-68583700D01*
X163229900Y-68659400D01*
X163229900Y-69027459D01*
X163209616Y-69103159D01*
X163154200Y-69158575D01*
X163140079Y-69165770D01*
X163050501Y-69205652D01*
X163050495Y-69205655D01*
X163043248Y-69208882D01*
X163036828Y-69213546D01*
X163036827Y-69213547D01*
X163007125Y-69235127D01*
X162888747Y-69321134D01*
X162840765Y-69374423D01*
X162781737Y-69439981D01*
X162760960Y-69463056D01*
X162665473Y-69628444D01*
X162606458Y-69810072D01*
X162586496Y-70000000D01*
X162587325Y-70007888D01*
X162604915Y-70175244D01*
X162606458Y-70189928D01*
X162665473Y-70371556D01*
X162669443Y-70378432D01*
X162695925Y-70424300D01*
X162716209Y-70499999D01*
X162695925Y-70575699D01*
X162665473Y-70628444D01*
X162606458Y-70810072D01*
X162586496Y-71000000D01*
X162606458Y-71189928D01*
X162665473Y-71371556D01*
X162669443Y-71378432D01*
X162695925Y-71424300D01*
X162716209Y-71499999D01*
X162695925Y-71575699D01*
X162665473Y-71628444D01*
X162606458Y-71810072D01*
X162605629Y-71817961D01*
X162605628Y-71817965D01*
X162587325Y-71992112D01*
X162586496Y-72000000D01*
X162606458Y-72189928D01*
X162665473Y-72371556D01*
X162669443Y-72378432D01*
X162695925Y-72424300D01*
X162716209Y-72499999D01*
X162695925Y-72575699D01*
X162665473Y-72628444D01*
X162606458Y-72810072D01*
X162586496Y-73000000D01*
X162606458Y-73189928D01*
X162652923Y-73332931D01*
X162656297Y-73343314D01*
X162660399Y-73421577D01*
X162624820Y-73491406D01*
X162559093Y-73534090D01*
X162512307Y-73541500D01*
X162355324Y-73541500D01*
X162350608Y-73542096D01*
X162350604Y-73542096D01*
X162157440Y-73566499D01*
X162048412Y-73580272D01*
X161955578Y-73604108D01*
X161753390Y-73656020D01*
X161753385Y-73656022D01*
X161748780Y-73657204D01*
X161744359Y-73658954D01*
X161744351Y-73658957D01*
X161604966Y-73714144D01*
X161461152Y-73771084D01*
X161456988Y-73773373D01*
X161456982Y-73773376D01*
X161370632Y-73820848D01*
X161190065Y-73920116D01*
X161186212Y-73922915D01*
X161186211Y-73922916D01*
X160943645Y-74099150D01*
X160943637Y-74099157D01*
X160939795Y-74101948D01*
X160936328Y-74105204D01*
X160936324Y-74105207D01*
X160717753Y-74310458D01*
X160714287Y-74313713D01*
X160517099Y-74552073D01*
X160351340Y-74813267D01*
X160219625Y-75093176D01*
X160218154Y-75097704D01*
X160218153Y-75097706D01*
X160203400Y-75143112D01*
X160160717Y-75208839D01*
X160090888Y-75244418D01*
X160012625Y-75240317D01*
X159970420Y-75218813D01*
X159956752Y-75208882D01*
X159949507Y-75205656D01*
X159949503Y-75205654D01*
X159789537Y-75134433D01*
X159789533Y-75134432D01*
X159782288Y-75131206D01*
X159624684Y-75097706D01*
X159603246Y-75093149D01*
X159603244Y-75093149D01*
X159595487Y-75091500D01*
X159404513Y-75091500D01*
X159396756Y-75093149D01*
X159396754Y-75093149D01*
X159375316Y-75097706D01*
X159217712Y-75131206D01*
X159210467Y-75134432D01*
X159210463Y-75134433D01*
X159061580Y-75200720D01*
X158984174Y-75212980D01*
X158938420Y-75200720D01*
X158789537Y-75134433D01*
X158789533Y-75134432D01*
X158782288Y-75131206D01*
X158624684Y-75097706D01*
X158603246Y-75093149D01*
X158603244Y-75093149D01*
X158595487Y-75091500D01*
X158404513Y-75091500D01*
X158396756Y-75093149D01*
X158396754Y-75093149D01*
X158375316Y-75097706D01*
X158217712Y-75131206D01*
X158210467Y-75134432D01*
X158210463Y-75134433D01*
X158061580Y-75200720D01*
X157984174Y-75212980D01*
X157938420Y-75200720D01*
X157789537Y-75134433D01*
X157789533Y-75134432D01*
X157782288Y-75131206D01*
X157624684Y-75097706D01*
X157603246Y-75093149D01*
X157603244Y-75093149D01*
X157595487Y-75091500D01*
X157404513Y-75091500D01*
X157396756Y-75093149D01*
X157396754Y-75093149D01*
X157375316Y-75097706D01*
X157217712Y-75131206D01*
X157210467Y-75134432D01*
X157210463Y-75134433D01*
X157061580Y-75200720D01*
X156984174Y-75212980D01*
X156938420Y-75200720D01*
X156789537Y-75134433D01*
X156789533Y-75134432D01*
X156782288Y-75131206D01*
X156624684Y-75097706D01*
X156603246Y-75093149D01*
X156603244Y-75093149D01*
X156595487Y-75091500D01*
X156404513Y-75091500D01*
X156396756Y-75093149D01*
X156396754Y-75093149D01*
X156375316Y-75097706D01*
X156217712Y-75131206D01*
X156210467Y-75134432D01*
X156210463Y-75134433D01*
X156061580Y-75200720D01*
X155984174Y-75212980D01*
X155938420Y-75200720D01*
X155789537Y-75134433D01*
X155789533Y-75134432D01*
X155782288Y-75131206D01*
X155624684Y-75097706D01*
X155603246Y-75093149D01*
X155603244Y-75093149D01*
X155595487Y-75091500D01*
X155404513Y-75091500D01*
X155396756Y-75093149D01*
X155396754Y-75093149D01*
X155375316Y-75097706D01*
X155217712Y-75131206D01*
X155210467Y-75134432D01*
X155210463Y-75134433D01*
X155061580Y-75200720D01*
X154984174Y-75212980D01*
X154938420Y-75200720D01*
X154789537Y-75134433D01*
X154789533Y-75134432D01*
X154782288Y-75131206D01*
X154624684Y-75097706D01*
X154603246Y-75093149D01*
X154603244Y-75093149D01*
X154595487Y-75091500D01*
X154404513Y-75091500D01*
X154396756Y-75093149D01*
X154396754Y-75093149D01*
X154375316Y-75097706D01*
X154217712Y-75131206D01*
X154210467Y-75134432D01*
X154210463Y-75134433D01*
X154061580Y-75200720D01*
X153984174Y-75212980D01*
X153938420Y-75200720D01*
X153789537Y-75134433D01*
X153789533Y-75134432D01*
X153782288Y-75131206D01*
X153624684Y-75097706D01*
X153603246Y-75093149D01*
X153603244Y-75093149D01*
X153595487Y-75091500D01*
X153404513Y-75091500D01*
X153396756Y-75093149D01*
X153396754Y-75093149D01*
X153375316Y-75097706D01*
X153217712Y-75131206D01*
X153210467Y-75134432D01*
X153210463Y-75134433D01*
X153050497Y-75205654D01*
X153050493Y-75205656D01*
X153043248Y-75208882D01*
X153036830Y-75213545D01*
X153036827Y-75213547D01*
X152999982Y-75240317D01*
X152888747Y-75321134D01*
X152760960Y-75463056D01*
X152665473Y-75628444D01*
X152663021Y-75635992D01*
X152663020Y-75635993D01*
X152635599Y-75720386D01*
X152592915Y-75786112D01*
X152523086Y-75821692D01*
X152491609Y-75825000D01*
X147473578Y-75825000D01*
X147407464Y-75807284D01*
X147406752Y-75808882D01*
X147239537Y-75734433D01*
X147239533Y-75734432D01*
X147232288Y-75731206D01*
X147112262Y-75705694D01*
X147053246Y-75693149D01*
X147053244Y-75693149D01*
X147045487Y-75691500D01*
X147026484Y-75691500D01*
X146950784Y-75671216D01*
X146944523Y-75667150D01*
X146940133Y-75663028D01*
X146923087Y-75653657D01*
X146903237Y-75640617D01*
X146887868Y-75628696D01*
X146879133Y-75624916D01*
X146879126Y-75624912D01*
X146846567Y-75610823D01*
X146833757Y-75604548D01*
X146794337Y-75582876D01*
X146775496Y-75578038D01*
X146753031Y-75570346D01*
X146735176Y-75562620D01*
X146725770Y-75561130D01*
X146725769Y-75561130D01*
X146690735Y-75555581D01*
X146676771Y-75552689D01*
X146642414Y-75543868D01*
X146642408Y-75543867D01*
X146633188Y-75541500D01*
X146613739Y-75541500D01*
X146590056Y-75539636D01*
X146584084Y-75538690D01*
X146570848Y-75536594D01*
X146561369Y-75537490D01*
X146561367Y-75537490D01*
X146526056Y-75540828D01*
X146511808Y-75541500D01*
X139391300Y-75541500D01*
X139315600Y-75521216D01*
X139260184Y-75465800D01*
X139239900Y-75390100D01*
X139239900Y-74814072D01*
X139260184Y-74738372D01*
X139284244Y-74707016D01*
X139668272Y-74322988D01*
X139676173Y-74315799D01*
X139683080Y-74311416D01*
X139731312Y-74260054D01*
X139734622Y-74256638D01*
X139754927Y-74236333D01*
X139757843Y-74232574D01*
X139760812Y-74229206D01*
X139766166Y-74222938D01*
X139796972Y-74190133D01*
X139806343Y-74173087D01*
X139819383Y-74153237D01*
X139831304Y-74137868D01*
X139835084Y-74129133D01*
X139835088Y-74129126D01*
X139849177Y-74096567D01*
X139855452Y-74083757D01*
X139877124Y-74044337D01*
X139881962Y-74025496D01*
X139889655Y-74003027D01*
X139893598Y-73993916D01*
X139897380Y-73985176D01*
X139904419Y-73940735D01*
X139907311Y-73926771D01*
X139916132Y-73892414D01*
X139916133Y-73892408D01*
X139918500Y-73883188D01*
X139918500Y-73863739D01*
X139920364Y-73840056D01*
X139921916Y-73830255D01*
X139923406Y-73820848D01*
X139919172Y-73776056D01*
X139918500Y-73761808D01*
X139918500Y-73278969D01*
X158537649Y-73278969D01*
X158539403Y-73282008D01*
X158542825Y-73284460D01*
X158633434Y-73329143D01*
X158642578Y-73332931D01*
X158912238Y-73424468D01*
X158921781Y-73427025D01*
X159201085Y-73482583D01*
X159210896Y-73483874D01*
X159495057Y-73502499D01*
X159504943Y-73502499D01*
X159789104Y-73483874D01*
X159798915Y-73482583D01*
X160078219Y-73427025D01*
X160087762Y-73424468D01*
X160357422Y-73332931D01*
X160366566Y-73329143D01*
X160450431Y-73287786D01*
X160462668Y-73277054D01*
X160461983Y-73273613D01*
X160459531Y-73270191D01*
X159514096Y-72324756D01*
X159500000Y-72316618D01*
X159485904Y-72324756D01*
X158545787Y-73264873D01*
X158537649Y-73278969D01*
X139918500Y-73278969D01*
X139918500Y-71254943D01*
X157247501Y-71254943D01*
X157266126Y-71539104D01*
X157267417Y-71548915D01*
X157322975Y-71828219D01*
X157325532Y-71837762D01*
X157417069Y-72107422D01*
X157420857Y-72116566D01*
X157462214Y-72200431D01*
X157472946Y-72212668D01*
X157476387Y-72211983D01*
X157479809Y-72209531D01*
X158425244Y-71264096D01*
X158433382Y-71250000D01*
X160566618Y-71250000D01*
X160574756Y-71264096D01*
X161514873Y-72204213D01*
X161528969Y-72212351D01*
X161532008Y-72210597D01*
X161534460Y-72207175D01*
X161579143Y-72116566D01*
X161582931Y-72107422D01*
X161674468Y-71837762D01*
X161677025Y-71828219D01*
X161732583Y-71548915D01*
X161733874Y-71539104D01*
X161752499Y-71254943D01*
X161752499Y-71245057D01*
X161733874Y-70960896D01*
X161732583Y-70951085D01*
X161677025Y-70671781D01*
X161674468Y-70662238D01*
X161582931Y-70392578D01*
X161579143Y-70383434D01*
X161537786Y-70299569D01*
X161527054Y-70287332D01*
X161523613Y-70288017D01*
X161520191Y-70290469D01*
X160574756Y-71235904D01*
X160566618Y-71250000D01*
X158433382Y-71250000D01*
X158425244Y-71235904D01*
X157485127Y-70295787D01*
X157471031Y-70287649D01*
X157467992Y-70289403D01*
X157465540Y-70292825D01*
X157420857Y-70383434D01*
X157417069Y-70392578D01*
X157325532Y-70662238D01*
X157322975Y-70671781D01*
X157267417Y-70951085D01*
X157266126Y-70960896D01*
X157247501Y-71245057D01*
X157247501Y-71254943D01*
X139918500Y-71254943D01*
X139918500Y-69409900D01*
X139938784Y-69334200D01*
X139994200Y-69278784D01*
X140069900Y-69258500D01*
X146833705Y-69258500D01*
X146909405Y-69278784D01*
X146915160Y-69282521D01*
X146919367Y-69286472D01*
X146936413Y-69295843D01*
X146956263Y-69308883D01*
X146971632Y-69320804D01*
X146980367Y-69324584D01*
X146980374Y-69324588D01*
X147012933Y-69338677D01*
X147025741Y-69344951D01*
X147065163Y-69366624D01*
X147084004Y-69371462D01*
X147106469Y-69379154D01*
X147124324Y-69386880D01*
X147133730Y-69388370D01*
X147133731Y-69388370D01*
X147168765Y-69393919D01*
X147182729Y-69396811D01*
X147217086Y-69405632D01*
X147217092Y-69405633D01*
X147226312Y-69408000D01*
X147245761Y-69408000D01*
X147269444Y-69409864D01*
X147288651Y-69412906D01*
X147288088Y-69416462D01*
X147345465Y-69433756D01*
X147354729Y-69439978D01*
X147493248Y-69540618D01*
X147500493Y-69543844D01*
X147500497Y-69543846D01*
X147660463Y-69615067D01*
X147660467Y-69615068D01*
X147667712Y-69618294D01*
X147750979Y-69635993D01*
X147846754Y-69656351D01*
X147846756Y-69656351D01*
X147854513Y-69658000D01*
X148045487Y-69658000D01*
X148053244Y-69656351D01*
X148053246Y-69656351D01*
X148149021Y-69635993D01*
X148232288Y-69618294D01*
X148239533Y-69615068D01*
X148239537Y-69615067D01*
X148399503Y-69543846D01*
X148399507Y-69543844D01*
X148406752Y-69540618D01*
X148561253Y-69428366D01*
X148636359Y-69344952D01*
X148683729Y-69292343D01*
X148683731Y-69292340D01*
X148689040Y-69286444D01*
X148725701Y-69222946D01*
X158537332Y-69222946D01*
X158538017Y-69226387D01*
X158540469Y-69229809D01*
X159485904Y-70175244D01*
X159500000Y-70183382D01*
X159514096Y-70175244D01*
X160454213Y-69235127D01*
X160462351Y-69221031D01*
X160460597Y-69217992D01*
X160457175Y-69215540D01*
X160366566Y-69170857D01*
X160357422Y-69167069D01*
X160087762Y-69075532D01*
X160078219Y-69072975D01*
X159798915Y-69017417D01*
X159789104Y-69016126D01*
X159504943Y-68997501D01*
X159495057Y-68997501D01*
X159210896Y-69016126D01*
X159201085Y-69017417D01*
X158921781Y-69072975D01*
X158912238Y-69075532D01*
X158642578Y-69167069D01*
X158633434Y-69170857D01*
X158549569Y-69212214D01*
X158537332Y-69222946D01*
X148725701Y-69222946D01*
X148784527Y-69121056D01*
X148843542Y-68939428D01*
X148863504Y-68749500D01*
X148855697Y-68675224D01*
X148867957Y-68597821D01*
X148917277Y-68536915D01*
X148990442Y-68508829D01*
X149006268Y-68508000D01*
X163078500Y-68508000D01*
X163154200Y-68528284D01*
G37*
G04 #@! TD.AperFunction*
G04 #@! TA.AperFunction,Conductor*
G36*
X152722804Y-76505284D02*
G01*
X152759462Y-76538293D01*
X152760960Y-76536944D01*
X152888747Y-76678866D01*
X152895168Y-76683531D01*
X153000000Y-76759696D01*
X153043248Y-76791118D01*
X153050493Y-76794344D01*
X153050497Y-76794346D01*
X153210463Y-76865567D01*
X153210467Y-76865568D01*
X153217712Y-76868794D01*
X153337738Y-76894306D01*
X153396754Y-76906851D01*
X153396756Y-76906851D01*
X153404513Y-76908500D01*
X153595487Y-76908500D01*
X153603244Y-76906851D01*
X153603246Y-76906851D01*
X153662262Y-76894306D01*
X153782288Y-76868794D01*
X153789533Y-76865568D01*
X153789537Y-76865567D01*
X153938420Y-76799280D01*
X154015826Y-76787020D01*
X154061580Y-76799280D01*
X154210463Y-76865567D01*
X154210467Y-76865568D01*
X154217712Y-76868794D01*
X154337738Y-76894306D01*
X154396754Y-76906851D01*
X154396756Y-76906851D01*
X154404513Y-76908500D01*
X154595487Y-76908500D01*
X154603244Y-76906851D01*
X154603246Y-76906851D01*
X154662262Y-76894306D01*
X154782288Y-76868794D01*
X154789533Y-76865568D01*
X154789537Y-76865567D01*
X154938420Y-76799280D01*
X155015826Y-76787020D01*
X155061580Y-76799280D01*
X155210463Y-76865567D01*
X155210467Y-76865568D01*
X155217712Y-76868794D01*
X155337738Y-76894306D01*
X155396754Y-76906851D01*
X155396756Y-76906851D01*
X155404513Y-76908500D01*
X155595487Y-76908500D01*
X155603244Y-76906851D01*
X155603246Y-76906851D01*
X155662262Y-76894306D01*
X155782288Y-76868794D01*
X155789533Y-76865568D01*
X155789537Y-76865567D01*
X155938420Y-76799280D01*
X156015826Y-76787020D01*
X156061580Y-76799280D01*
X156210463Y-76865567D01*
X156210467Y-76865568D01*
X156217712Y-76868794D01*
X156337738Y-76894306D01*
X156396754Y-76906851D01*
X156396756Y-76906851D01*
X156404513Y-76908500D01*
X156595487Y-76908500D01*
X156603244Y-76906851D01*
X156603246Y-76906851D01*
X156662262Y-76894306D01*
X156782288Y-76868794D01*
X156789533Y-76865568D01*
X156789537Y-76865567D01*
X156938420Y-76799280D01*
X157015826Y-76787020D01*
X157061580Y-76799280D01*
X157210463Y-76865567D01*
X157210467Y-76865568D01*
X157217712Y-76868794D01*
X157337738Y-76894306D01*
X157396754Y-76906851D01*
X157396756Y-76906851D01*
X157404513Y-76908500D01*
X157595487Y-76908500D01*
X157603244Y-76906851D01*
X157603246Y-76906851D01*
X157662262Y-76894306D01*
X157782288Y-76868794D01*
X157789533Y-76865568D01*
X157789537Y-76865567D01*
X157938420Y-76799280D01*
X158015826Y-76787020D01*
X158061580Y-76799280D01*
X158210463Y-76865567D01*
X158210467Y-76865568D01*
X158217712Y-76868794D01*
X158337738Y-76894306D01*
X158396754Y-76906851D01*
X158396756Y-76906851D01*
X158404513Y-76908500D01*
X158595487Y-76908500D01*
X158603244Y-76906851D01*
X158603246Y-76906851D01*
X158662262Y-76894306D01*
X158782288Y-76868794D01*
X158789533Y-76865568D01*
X158789537Y-76865567D01*
X158938420Y-76799280D01*
X159015826Y-76787020D01*
X159061580Y-76799280D01*
X159210463Y-76865567D01*
X159210467Y-76865568D01*
X159217712Y-76868794D01*
X159337738Y-76894306D01*
X159396754Y-76906851D01*
X159396756Y-76906851D01*
X159404513Y-76908500D01*
X159595487Y-76908500D01*
X159603244Y-76906851D01*
X159603246Y-76906851D01*
X159662262Y-76894306D01*
X159782288Y-76868794D01*
X159789533Y-76865568D01*
X159789537Y-76865567D01*
X159949503Y-76794346D01*
X159949507Y-76794344D01*
X159956752Y-76791118D01*
X159970419Y-76781188D01*
X160043582Y-76753103D01*
X160120988Y-76765361D01*
X160181894Y-76814680D01*
X160203400Y-76856887D01*
X160219625Y-76906824D01*
X160221653Y-76911133D01*
X160349133Y-77182042D01*
X160351340Y-77186733D01*
X160517099Y-77447927D01*
X160714287Y-77686287D01*
X160939795Y-77898052D01*
X160943637Y-77900843D01*
X160943645Y-77900850D01*
X161186211Y-78077084D01*
X161190065Y-78079884D01*
X161283419Y-78131206D01*
X161456982Y-78226624D01*
X161456988Y-78226627D01*
X161461152Y-78228916D01*
X161604966Y-78285856D01*
X161744351Y-78341043D01*
X161744359Y-78341046D01*
X161748780Y-78342796D01*
X161753385Y-78343978D01*
X161753390Y-78343980D01*
X161955578Y-78395892D01*
X162048412Y-78419728D01*
X162157440Y-78433501D01*
X162350604Y-78457904D01*
X162350608Y-78457904D01*
X162355324Y-78458500D01*
X162512307Y-78458500D01*
X162588007Y-78478784D01*
X162643423Y-78534200D01*
X162663707Y-78609900D01*
X162656297Y-78656683D01*
X162606458Y-78810072D01*
X162586496Y-79000000D01*
X162606458Y-79189928D01*
X162665473Y-79371556D01*
X162669443Y-79378432D01*
X162695925Y-79424300D01*
X162716209Y-79499999D01*
X162695925Y-79575699D01*
X162665473Y-79628444D01*
X162663021Y-79635992D01*
X162663020Y-79635993D01*
X162661912Y-79639403D01*
X162606458Y-79810072D01*
X162586496Y-80000000D01*
X162606458Y-80189928D01*
X162665473Y-80371556D01*
X162669443Y-80378432D01*
X162695925Y-80424300D01*
X162716209Y-80499999D01*
X162695925Y-80575699D01*
X162665473Y-80628444D01*
X162606458Y-80810072D01*
X162605629Y-80817961D01*
X162605628Y-80817965D01*
X162597120Y-80898915D01*
X162586496Y-81000000D01*
X162587325Y-81007888D01*
X162600249Y-81130848D01*
X162606458Y-81189928D01*
X162665473Y-81371556D01*
X162669443Y-81378432D01*
X162695925Y-81424300D01*
X162716209Y-81499999D01*
X162695925Y-81575699D01*
X162665473Y-81628444D01*
X162606458Y-81810072D01*
X162586496Y-82000000D01*
X162606458Y-82189928D01*
X162665473Y-82371556D01*
X162669443Y-82378432D01*
X162695925Y-82424300D01*
X162716209Y-82499999D01*
X162695925Y-82575699D01*
X162665473Y-82628444D01*
X162663021Y-82635992D01*
X162663020Y-82635993D01*
X162649552Y-82677443D01*
X162606458Y-82810072D01*
X162600825Y-82863667D01*
X162591128Y-82955926D01*
X162563042Y-83029091D01*
X162502137Y-83078411D01*
X162440557Y-83091500D01*
X162404513Y-83091500D01*
X162396756Y-83093149D01*
X162396754Y-83093149D01*
X162337738Y-83105694D01*
X162217712Y-83131206D01*
X162210467Y-83134432D01*
X162210463Y-83134433D01*
X162061580Y-83200720D01*
X161984174Y-83212980D01*
X161938420Y-83200720D01*
X161789537Y-83134433D01*
X161789533Y-83134432D01*
X161782288Y-83131206D01*
X161662262Y-83105694D01*
X161603246Y-83093149D01*
X161603244Y-83093149D01*
X161595487Y-83091500D01*
X161404513Y-83091500D01*
X161396756Y-83093149D01*
X161396754Y-83093149D01*
X161337738Y-83105694D01*
X161217712Y-83131206D01*
X161210467Y-83134432D01*
X161210463Y-83134433D01*
X161061580Y-83200720D01*
X160984174Y-83212980D01*
X160938420Y-83200720D01*
X160789537Y-83134433D01*
X160789533Y-83134432D01*
X160782288Y-83131206D01*
X160662262Y-83105694D01*
X160603246Y-83093149D01*
X160603244Y-83093149D01*
X160595487Y-83091500D01*
X160404513Y-83091500D01*
X160396756Y-83093149D01*
X160396754Y-83093149D01*
X160337738Y-83105694D01*
X160217712Y-83131206D01*
X160210467Y-83134432D01*
X160210463Y-83134433D01*
X160061580Y-83200720D01*
X159984174Y-83212980D01*
X159938420Y-83200720D01*
X159789535Y-83134432D01*
X159789530Y-83134430D01*
X159782288Y-83131206D01*
X159774530Y-83129557D01*
X159767463Y-83127261D01*
X159701736Y-83084578D01*
X159666157Y-83014749D01*
X159670258Y-82936486D01*
X159712941Y-82870759D01*
X159782770Y-82835180D01*
X159794483Y-82833167D01*
X159798904Y-82832585D01*
X160078219Y-82777025D01*
X160087762Y-82774468D01*
X160357422Y-82682931D01*
X160366566Y-82679143D01*
X160450431Y-82637786D01*
X160462668Y-82627054D01*
X160461983Y-82623613D01*
X160459531Y-82620191D01*
X159514096Y-81674756D01*
X159500000Y-81666618D01*
X159485904Y-81674756D01*
X158545787Y-82614873D01*
X158537649Y-82628969D01*
X158539403Y-82632008D01*
X158542825Y-82634460D01*
X158633434Y-82679143D01*
X158642578Y-82682931D01*
X158912238Y-82774468D01*
X158921781Y-82777025D01*
X159201096Y-82832585D01*
X159205517Y-82833167D01*
X159277921Y-82863160D01*
X159325629Y-82925336D01*
X159335856Y-83003036D01*
X159305863Y-83075440D01*
X159243687Y-83123148D01*
X159232537Y-83127261D01*
X159225470Y-83129557D01*
X159217712Y-83131206D01*
X159210470Y-83134430D01*
X159210465Y-83134432D01*
X159124688Y-83172623D01*
X159062939Y-83200115D01*
X158985534Y-83212375D01*
X158939780Y-83200115D01*
X158937694Y-83199186D01*
X158914908Y-83189041D01*
X158787452Y-83132294D01*
X158787448Y-83132293D01*
X158780203Y-83129067D01*
X158660177Y-83103555D01*
X158601161Y-83091010D01*
X158601159Y-83091010D01*
X158593402Y-83089361D01*
X158402428Y-83089361D01*
X158394671Y-83091010D01*
X158394669Y-83091010D01*
X158335653Y-83103555D01*
X158215627Y-83129067D01*
X158208376Y-83132295D01*
X158208374Y-83132296D01*
X158058134Y-83199186D01*
X157980729Y-83211446D01*
X157934976Y-83199186D01*
X157789541Y-83134435D01*
X157789539Y-83134434D01*
X157782288Y-83131206D01*
X157662262Y-83105694D01*
X157603246Y-83093149D01*
X157603244Y-83093149D01*
X157595487Y-83091500D01*
X157404513Y-83091500D01*
X157396756Y-83093149D01*
X157396754Y-83093149D01*
X157337738Y-83105694D01*
X157217712Y-83131206D01*
X157210467Y-83134432D01*
X157210463Y-83134433D01*
X157061580Y-83200720D01*
X156984174Y-83212980D01*
X156938420Y-83200720D01*
X156789537Y-83134433D01*
X156789533Y-83134432D01*
X156782288Y-83131206D01*
X156662262Y-83105694D01*
X156603246Y-83093149D01*
X156603244Y-83093149D01*
X156595487Y-83091500D01*
X156404513Y-83091500D01*
X156396756Y-83093149D01*
X156396754Y-83093149D01*
X156337738Y-83105694D01*
X156217712Y-83131206D01*
X156210467Y-83134432D01*
X156210463Y-83134433D01*
X156061580Y-83200720D01*
X155984174Y-83212980D01*
X155938420Y-83200720D01*
X155789537Y-83134433D01*
X155789533Y-83134432D01*
X155782288Y-83131206D01*
X155662262Y-83105694D01*
X155603246Y-83093149D01*
X155603244Y-83093149D01*
X155595487Y-83091500D01*
X155404513Y-83091500D01*
X155396756Y-83093149D01*
X155396754Y-83093149D01*
X155337738Y-83105694D01*
X155217712Y-83131206D01*
X155210467Y-83134432D01*
X155210463Y-83134433D01*
X155061580Y-83200720D01*
X154984174Y-83212980D01*
X154938420Y-83200720D01*
X154789537Y-83134433D01*
X154789533Y-83134432D01*
X154782288Y-83131206D01*
X154662262Y-83105694D01*
X154603246Y-83093149D01*
X154603244Y-83093149D01*
X154595487Y-83091500D01*
X154404513Y-83091500D01*
X154396756Y-83093149D01*
X154396754Y-83093149D01*
X154337738Y-83105694D01*
X154217712Y-83131206D01*
X154210467Y-83134432D01*
X154210463Y-83134433D01*
X154061580Y-83200720D01*
X153984174Y-83212980D01*
X153938420Y-83200720D01*
X153789537Y-83134433D01*
X153789533Y-83134432D01*
X153782288Y-83131206D01*
X153662262Y-83105694D01*
X153603246Y-83093149D01*
X153603244Y-83093149D01*
X153595487Y-83091500D01*
X153404513Y-83091500D01*
X153396756Y-83093149D01*
X153396754Y-83093149D01*
X153337738Y-83105694D01*
X153217712Y-83131206D01*
X153210467Y-83134432D01*
X153210463Y-83134433D01*
X153050497Y-83205654D01*
X153050493Y-83205656D01*
X153043248Y-83208882D01*
X153036828Y-83213546D01*
X153036827Y-83213547D01*
X152965997Y-83265008D01*
X152888747Y-83321134D01*
X152883435Y-83327034D01*
X152777408Y-83444789D01*
X152760960Y-83463056D01*
X152665473Y-83628444D01*
X152606458Y-83810072D01*
X152605629Y-83817961D01*
X152605628Y-83817965D01*
X152602365Y-83849013D01*
X152596510Y-83904728D01*
X152592863Y-83939425D01*
X152564778Y-84012590D01*
X152503873Y-84061911D01*
X152442292Y-84075000D01*
X147794259Y-84075000D01*
X147718559Y-84054716D01*
X147665864Y-84003829D01*
X147663472Y-84000000D01*
X147597626Y-83894624D01*
X147578683Y-83875548D01*
X147475778Y-83771922D01*
X147475774Y-83771919D01*
X147469815Y-83765918D01*
X147316666Y-83668727D01*
X147308696Y-83665889D01*
X147308694Y-83665888D01*
X147153760Y-83610719D01*
X147145790Y-83607881D01*
X147137389Y-83606879D01*
X147137388Y-83606879D01*
X147083834Y-83600493D01*
X146965680Y-83586404D01*
X146957269Y-83587288D01*
X146957267Y-83587288D01*
X146900132Y-83593293D01*
X146785288Y-83605364D01*
X146777278Y-83608091D01*
X146777277Y-83608091D01*
X146621592Y-83661090D01*
X146621591Y-83661091D01*
X146613579Y-83663818D01*
X146606369Y-83668254D01*
X146606364Y-83668256D01*
X146523798Y-83719051D01*
X146444467Y-83741500D01*
X140841122Y-83741500D01*
X140830446Y-83740996D01*
X140822463Y-83739212D01*
X140812944Y-83739511D01*
X140812943Y-83739511D01*
X140752045Y-83741425D01*
X140747289Y-83741500D01*
X140718568Y-83741500D01*
X140713835Y-83742098D01*
X140709280Y-83742385D01*
X140701134Y-83743025D01*
X140678299Y-83743743D01*
X140656169Y-83744438D01*
X140637496Y-83749863D01*
X140614240Y-83754679D01*
X140594936Y-83757118D01*
X140586081Y-83760624D01*
X140586077Y-83760625D01*
X140553099Y-83773682D01*
X140539604Y-83778302D01*
X140505554Y-83788195D01*
X140505550Y-83788197D01*
X140496400Y-83790855D01*
X140488199Y-83795705D01*
X140479663Y-83800753D01*
X140458334Y-83811202D01*
X140449101Y-83814858D01*
X140449100Y-83814859D01*
X140440244Y-83818365D01*
X140432539Y-83823963D01*
X140403835Y-83844818D01*
X140391914Y-83852648D01*
X140353193Y-83875548D01*
X140339443Y-83889298D01*
X140321380Y-83904725D01*
X140305643Y-83916159D01*
X140299574Y-83923495D01*
X140299573Y-83923496D01*
X140276959Y-83950832D01*
X140267359Y-83961382D01*
X140198085Y-84030656D01*
X140130214Y-84069841D01*
X140091029Y-84075000D01*
X139401300Y-84075000D01*
X139325600Y-84054716D01*
X139270184Y-83999300D01*
X139249900Y-83923600D01*
X139249900Y-81706043D01*
X139270184Y-81630343D01*
X139290935Y-81602402D01*
X139321313Y-81570053D01*
X139324622Y-81566638D01*
X139344927Y-81546333D01*
X139347843Y-81542574D01*
X139350812Y-81539206D01*
X139356166Y-81532938D01*
X139386972Y-81500133D01*
X139396343Y-81483087D01*
X139409383Y-81463237D01*
X139421304Y-81447868D01*
X139425084Y-81439133D01*
X139425088Y-81439126D01*
X139439177Y-81406567D01*
X139445452Y-81393757D01*
X139453877Y-81378432D01*
X139467124Y-81354337D01*
X139471962Y-81335496D01*
X139479655Y-81313027D01*
X139483598Y-81303916D01*
X139487380Y-81295176D01*
X139494419Y-81250735D01*
X139497311Y-81236771D01*
X139506132Y-81202414D01*
X139506133Y-81202408D01*
X139508500Y-81193188D01*
X139508500Y-81173739D01*
X139510364Y-81150056D01*
X139511916Y-81140255D01*
X139513406Y-81130848D01*
X139509172Y-81086056D01*
X139508500Y-81071808D01*
X139508500Y-80604943D01*
X157247501Y-80604943D01*
X157266126Y-80889104D01*
X157267417Y-80898915D01*
X157322975Y-81178219D01*
X157325532Y-81187762D01*
X157417069Y-81457422D01*
X157420857Y-81466566D01*
X157462214Y-81550431D01*
X157472946Y-81562668D01*
X157476387Y-81561983D01*
X157479809Y-81559531D01*
X158425244Y-80614096D01*
X158433382Y-80600000D01*
X160566618Y-80600000D01*
X160574756Y-80614096D01*
X161514873Y-81554213D01*
X161528969Y-81562351D01*
X161532008Y-81560597D01*
X161534460Y-81557175D01*
X161579143Y-81466566D01*
X161582931Y-81457422D01*
X161674468Y-81187762D01*
X161677025Y-81178219D01*
X161732583Y-80898915D01*
X161733874Y-80889104D01*
X161752499Y-80604943D01*
X161752499Y-80595057D01*
X161733874Y-80310896D01*
X161732583Y-80301085D01*
X161677025Y-80021781D01*
X161674468Y-80012238D01*
X161582931Y-79742578D01*
X161579143Y-79733434D01*
X161537786Y-79649569D01*
X161527054Y-79637332D01*
X161523613Y-79638017D01*
X161520191Y-79640469D01*
X160574756Y-80585904D01*
X160566618Y-80600000D01*
X158433382Y-80600000D01*
X158425244Y-80585904D01*
X157485127Y-79645787D01*
X157471031Y-79637649D01*
X157467992Y-79639403D01*
X157465540Y-79642825D01*
X157420857Y-79733434D01*
X157417069Y-79742578D01*
X157325532Y-80012238D01*
X157322975Y-80021781D01*
X157267417Y-80301085D01*
X157266126Y-80310896D01*
X157247501Y-80595057D01*
X157247501Y-80604943D01*
X139508500Y-80604943D01*
X139508500Y-78572946D01*
X158537332Y-78572946D01*
X158538017Y-78576387D01*
X158540469Y-78579809D01*
X159485904Y-79525244D01*
X159500000Y-79533382D01*
X159514096Y-79525244D01*
X160454213Y-78585127D01*
X160462351Y-78571031D01*
X160460597Y-78567992D01*
X160457175Y-78565540D01*
X160366566Y-78520857D01*
X160357422Y-78517069D01*
X160087762Y-78425532D01*
X160078219Y-78422975D01*
X159798915Y-78367417D01*
X159789104Y-78366126D01*
X159504943Y-78347501D01*
X159495057Y-78347501D01*
X159210896Y-78366126D01*
X159201085Y-78367417D01*
X158921781Y-78422975D01*
X158912238Y-78425532D01*
X158642578Y-78517069D01*
X158633434Y-78520857D01*
X158549569Y-78562214D01*
X158537332Y-78572946D01*
X139508500Y-78572946D01*
X139508500Y-77352532D01*
X139515910Y-77305747D01*
X139551091Y-77197471D01*
X139553542Y-77189928D01*
X139573504Y-77000000D01*
X139575278Y-77000186D01*
X139592959Y-76934200D01*
X139648375Y-76878784D01*
X139724075Y-76858500D01*
X145968740Y-76858500D01*
X146044440Y-76878784D01*
X146099856Y-76934200D01*
X146112728Y-76963109D01*
X146113020Y-76964009D01*
X146113023Y-76964016D01*
X146115473Y-76971556D01*
X146210960Y-77136944D01*
X146338747Y-77278866D01*
X146493248Y-77391118D01*
X146500493Y-77394344D01*
X146500497Y-77394346D01*
X146660463Y-77465567D01*
X146660467Y-77465568D01*
X146667712Y-77468794D01*
X146787738Y-77494306D01*
X146846754Y-77506851D01*
X146846756Y-77506851D01*
X146854513Y-77508500D01*
X147045487Y-77508500D01*
X147053244Y-77506851D01*
X147053246Y-77506851D01*
X147112262Y-77494306D01*
X147232288Y-77468794D01*
X147239533Y-77465568D01*
X147239537Y-77465567D01*
X147399503Y-77394346D01*
X147399507Y-77394344D01*
X147406752Y-77391118D01*
X147561253Y-77278866D01*
X147689040Y-77136944D01*
X147784527Y-76971556D01*
X147843542Y-76789928D01*
X147855835Y-76672966D01*
X147861342Y-76620574D01*
X147889428Y-76547409D01*
X147950333Y-76498089D01*
X148011913Y-76485000D01*
X152647104Y-76485000D01*
X152722804Y-76505284D01*
G37*
G04 #@! TD.AperFunction*
G04 #@! TA.AperFunction,Conductor*
G36*
X153026925Y-84780284D02*
G01*
X153033198Y-84784358D01*
X153036830Y-84786455D01*
X153043248Y-84791118D01*
X153050493Y-84794344D01*
X153050497Y-84794346D01*
X153210463Y-84865567D01*
X153210467Y-84865568D01*
X153217712Y-84868794D01*
X153337738Y-84894306D01*
X153396754Y-84906851D01*
X153396756Y-84906851D01*
X153404513Y-84908500D01*
X153595487Y-84908500D01*
X153603244Y-84906851D01*
X153603246Y-84906851D01*
X153662262Y-84894306D01*
X153782288Y-84868794D01*
X153789533Y-84865568D01*
X153789537Y-84865567D01*
X153938420Y-84799280D01*
X154015826Y-84787020D01*
X154061580Y-84799280D01*
X154210463Y-84865567D01*
X154210467Y-84865568D01*
X154217712Y-84868794D01*
X154337738Y-84894306D01*
X154396754Y-84906851D01*
X154396756Y-84906851D01*
X154404513Y-84908500D01*
X154595487Y-84908500D01*
X154603244Y-84906851D01*
X154603246Y-84906851D01*
X154662262Y-84894306D01*
X154782288Y-84868794D01*
X154789533Y-84865568D01*
X154789537Y-84865567D01*
X154938420Y-84799280D01*
X155015826Y-84787020D01*
X155061580Y-84799280D01*
X155210463Y-84865567D01*
X155210467Y-84865568D01*
X155217712Y-84868794D01*
X155337738Y-84894306D01*
X155396754Y-84906851D01*
X155396756Y-84906851D01*
X155404513Y-84908500D01*
X155595487Y-84908500D01*
X155603244Y-84906851D01*
X155603246Y-84906851D01*
X155662262Y-84894306D01*
X155782288Y-84868794D01*
X155789533Y-84865568D01*
X155789537Y-84865567D01*
X155938420Y-84799280D01*
X156015826Y-84787020D01*
X156061580Y-84799280D01*
X156210463Y-84865567D01*
X156210467Y-84865568D01*
X156217712Y-84868794D01*
X156337738Y-84894306D01*
X156396754Y-84906851D01*
X156396756Y-84906851D01*
X156404513Y-84908500D01*
X156595487Y-84908500D01*
X156603244Y-84906851D01*
X156603246Y-84906851D01*
X156662262Y-84894306D01*
X156782288Y-84868794D01*
X156789533Y-84865568D01*
X156789537Y-84865567D01*
X156938420Y-84799280D01*
X157015826Y-84787020D01*
X157061580Y-84799280D01*
X157210463Y-84865567D01*
X157210467Y-84865568D01*
X157217712Y-84868794D01*
X157337738Y-84894306D01*
X157396754Y-84906851D01*
X157396756Y-84906851D01*
X157404513Y-84908500D01*
X157595487Y-84908500D01*
X157603244Y-84906851D01*
X157603246Y-84906851D01*
X157662262Y-84894306D01*
X157782288Y-84868794D01*
X157789539Y-84865566D01*
X157789541Y-84865565D01*
X157939781Y-84798675D01*
X158017186Y-84786415D01*
X158062939Y-84798675D01*
X158208374Y-84863426D01*
X158208376Y-84863427D01*
X158215627Y-84866655D01*
X158335653Y-84892167D01*
X158394669Y-84904712D01*
X158394671Y-84904712D01*
X158402428Y-84906361D01*
X158593402Y-84906361D01*
X158601159Y-84904712D01*
X158601161Y-84904712D01*
X158660177Y-84892167D01*
X158780203Y-84866655D01*
X158787448Y-84863429D01*
X158787452Y-84863428D01*
X158931530Y-84799280D01*
X158934976Y-84797746D01*
X159012381Y-84785486D01*
X159058135Y-84797746D01*
X159061580Y-84799280D01*
X159210463Y-84865567D01*
X159210467Y-84865568D01*
X159217712Y-84868794D01*
X159337738Y-84894306D01*
X159396754Y-84906851D01*
X159396756Y-84906851D01*
X159404513Y-84908500D01*
X159595487Y-84908500D01*
X159603244Y-84906851D01*
X159603246Y-84906851D01*
X159662262Y-84894306D01*
X159782288Y-84868794D01*
X159789533Y-84865568D01*
X159789537Y-84865567D01*
X159938420Y-84799280D01*
X160015826Y-84787020D01*
X160061580Y-84799280D01*
X160210463Y-84865567D01*
X160210467Y-84865568D01*
X160217712Y-84868794D01*
X160337738Y-84894306D01*
X160396754Y-84906851D01*
X160396756Y-84906851D01*
X160404513Y-84908500D01*
X160595487Y-84908500D01*
X160603244Y-84906851D01*
X160603246Y-84906851D01*
X160662262Y-84894306D01*
X160782288Y-84868794D01*
X160789533Y-84865568D01*
X160789537Y-84865567D01*
X160938420Y-84799280D01*
X161015826Y-84787020D01*
X161061580Y-84799280D01*
X161210463Y-84865567D01*
X161210467Y-84865568D01*
X161217712Y-84868794D01*
X161337738Y-84894306D01*
X161396754Y-84906851D01*
X161396756Y-84906851D01*
X161404513Y-84908500D01*
X161595487Y-84908500D01*
X161603244Y-84906851D01*
X161603246Y-84906851D01*
X161662262Y-84894306D01*
X161782288Y-84868794D01*
X161789533Y-84865568D01*
X161789537Y-84865567D01*
X161938420Y-84799280D01*
X162015826Y-84787020D01*
X162061580Y-84799280D01*
X162210463Y-84865567D01*
X162210467Y-84865568D01*
X162217712Y-84868794D01*
X162337738Y-84894306D01*
X162396754Y-84906851D01*
X162396756Y-84906851D01*
X162404513Y-84908500D01*
X162440557Y-84908500D01*
X162516257Y-84928784D01*
X162571673Y-84984200D01*
X162591128Y-85044074D01*
X162593187Y-85063659D01*
X162606458Y-85189928D01*
X162665473Y-85371556D01*
X162669443Y-85378432D01*
X162695925Y-85424300D01*
X162716209Y-85499999D01*
X162695925Y-85575699D01*
X162665473Y-85628444D01*
X162606458Y-85810072D01*
X162605629Y-85817961D01*
X162605628Y-85817965D01*
X162589890Y-85967710D01*
X162586496Y-86000000D01*
X162606458Y-86189928D01*
X162665473Y-86371556D01*
X162669443Y-86378432D01*
X162695925Y-86424300D01*
X162716209Y-86499999D01*
X162695925Y-86575699D01*
X162665473Y-86628444D01*
X162606458Y-86810072D01*
X162586496Y-87000000D01*
X162587325Y-87007888D01*
X162604551Y-87171781D01*
X162606458Y-87189928D01*
X162608911Y-87197476D01*
X162650182Y-87324494D01*
X162665473Y-87371556D01*
X162669443Y-87378432D01*
X162695925Y-87424300D01*
X162716209Y-87499999D01*
X162695925Y-87575699D01*
X162665473Y-87628444D01*
X162606458Y-87810072D01*
X162586496Y-88000000D01*
X162606458Y-88189928D01*
X162665473Y-88371556D01*
X162669443Y-88378432D01*
X162695925Y-88424300D01*
X162716209Y-88499999D01*
X162695925Y-88575699D01*
X162665473Y-88628444D01*
X162606458Y-88810072D01*
X162605629Y-88817961D01*
X162605628Y-88817965D01*
X162587325Y-88992112D01*
X162586496Y-89000000D01*
X162606458Y-89189928D01*
X162665473Y-89371556D01*
X162669443Y-89378432D01*
X162695925Y-89424300D01*
X162716209Y-89499999D01*
X162695925Y-89575699D01*
X162665473Y-89628444D01*
X162606458Y-89810072D01*
X162605629Y-89817961D01*
X162605628Y-89817965D01*
X162588327Y-89982583D01*
X162586496Y-90000000D01*
X162587325Y-90007888D01*
X162598561Y-90114789D01*
X162606458Y-90189928D01*
X162665473Y-90371556D01*
X162675105Y-90388238D01*
X162695925Y-90424300D01*
X162716209Y-90499999D01*
X162695925Y-90575699D01*
X162665473Y-90628444D01*
X162606458Y-90810072D01*
X162605629Y-90817961D01*
X162605628Y-90817965D01*
X162592386Y-90943955D01*
X162586496Y-91000000D01*
X162587325Y-91007888D01*
X162605706Y-91182775D01*
X162593446Y-91260180D01*
X162544125Y-91321085D01*
X162470960Y-91349171D01*
X162455135Y-91350000D01*
X142803388Y-91350000D01*
X142727688Y-91329716D01*
X142672272Y-91274300D01*
X142651988Y-91198600D01*
X142668732Y-91129393D01*
X142668957Y-91128954D01*
X142673643Y-91121902D01*
X142685278Y-91091273D01*
X142735048Y-90960255D01*
X142735049Y-90960252D01*
X142738055Y-90952338D01*
X142763299Y-90772717D01*
X142763616Y-90750000D01*
X142743397Y-90569745D01*
X142683745Y-90398448D01*
X142587626Y-90244624D01*
X142540806Y-90197476D01*
X142465778Y-90121922D01*
X142465774Y-90121919D01*
X142459815Y-90115918D01*
X142306666Y-90018727D01*
X142298696Y-90015889D01*
X142298694Y-90015888D01*
X142143760Y-89960719D01*
X142135790Y-89957881D01*
X142127389Y-89956879D01*
X142127388Y-89956879D01*
X142073834Y-89950493D01*
X141955680Y-89936404D01*
X141947269Y-89937288D01*
X141947267Y-89937288D01*
X141890132Y-89943293D01*
X141775288Y-89955364D01*
X141767278Y-89958091D01*
X141767277Y-89958091D01*
X141611592Y-90011090D01*
X141611591Y-90011091D01*
X141603579Y-90013818D01*
X141596370Y-90018253D01*
X141596368Y-90018254D01*
X141595600Y-90018727D01*
X141449088Y-90108862D01*
X141443038Y-90114787D01*
X141443035Y-90114789D01*
X141387460Y-90169213D01*
X141319493Y-90235771D01*
X141314906Y-90242889D01*
X141227555Y-90378432D01*
X141221235Y-90388238D01*
X141218340Y-90396192D01*
X141218339Y-90396194D01*
X141180557Y-90500000D01*
X141159197Y-90558685D01*
X141136463Y-90738640D01*
X141154163Y-90919160D01*
X141193460Y-91037288D01*
X141198061Y-91051120D01*
X141202709Y-91129352D01*
X141167618Y-91199428D01*
X141102191Y-91242570D01*
X141023959Y-91247218D01*
X140961899Y-91218016D01*
X140959815Y-91215918D01*
X140806666Y-91118727D01*
X140798696Y-91115889D01*
X140798694Y-91115888D01*
X140643760Y-91060719D01*
X140635790Y-91057881D01*
X140627389Y-91056879D01*
X140627388Y-91056879D01*
X140573834Y-91050493D01*
X140455680Y-91036404D01*
X140447269Y-91037288D01*
X140447267Y-91037288D01*
X140390132Y-91043293D01*
X140275288Y-91055364D01*
X140267278Y-91058091D01*
X140267277Y-91058091D01*
X140111592Y-91111090D01*
X140111591Y-91111091D01*
X140103579Y-91113818D01*
X140096370Y-91118253D01*
X140096368Y-91118254D01*
X139964423Y-91199428D01*
X139949088Y-91208862D01*
X139943038Y-91214787D01*
X139943035Y-91214789D01*
X139910731Y-91246424D01*
X139872537Y-91283827D01*
X139857787Y-91298271D01*
X139789510Y-91336743D01*
X139751858Y-91341500D01*
X139476300Y-91341500D01*
X139400600Y-91321216D01*
X139345184Y-91265800D01*
X139324900Y-91190100D01*
X139324900Y-89778969D01*
X158537649Y-89778969D01*
X158539403Y-89782008D01*
X158542825Y-89784460D01*
X158633434Y-89829143D01*
X158642578Y-89832931D01*
X158912238Y-89924468D01*
X158921781Y-89927025D01*
X159201085Y-89982583D01*
X159210896Y-89983874D01*
X159495057Y-90002499D01*
X159504943Y-90002499D01*
X159789104Y-89983874D01*
X159798915Y-89982583D01*
X160078219Y-89927025D01*
X160087762Y-89924468D01*
X160357422Y-89832931D01*
X160366566Y-89829143D01*
X160450431Y-89787786D01*
X160462668Y-89777054D01*
X160461983Y-89773613D01*
X160459531Y-89770191D01*
X159514096Y-88824756D01*
X159500000Y-88816618D01*
X159485904Y-88824756D01*
X158545787Y-89764873D01*
X158537649Y-89778969D01*
X139324900Y-89778969D01*
X139324900Y-87754943D01*
X157247501Y-87754943D01*
X157266126Y-88039104D01*
X157267417Y-88048915D01*
X157322975Y-88328219D01*
X157325532Y-88337762D01*
X157417069Y-88607422D01*
X157420857Y-88616566D01*
X157462214Y-88700431D01*
X157472946Y-88712668D01*
X157476387Y-88711983D01*
X157479809Y-88709531D01*
X158425244Y-87764096D01*
X158433382Y-87750000D01*
X160566618Y-87750000D01*
X160574756Y-87764096D01*
X161514873Y-88704213D01*
X161528969Y-88712351D01*
X161532008Y-88710597D01*
X161534460Y-88707175D01*
X161579143Y-88616566D01*
X161582931Y-88607422D01*
X161674468Y-88337762D01*
X161677025Y-88328219D01*
X161732583Y-88048915D01*
X161733874Y-88039104D01*
X161752499Y-87754943D01*
X161752499Y-87745057D01*
X161733874Y-87460896D01*
X161732583Y-87451085D01*
X161677025Y-87171781D01*
X161674468Y-87162238D01*
X161582931Y-86892578D01*
X161579143Y-86883434D01*
X161537786Y-86799569D01*
X161527054Y-86787332D01*
X161523613Y-86788017D01*
X161520191Y-86790469D01*
X160574756Y-87735904D01*
X160566618Y-87750000D01*
X158433382Y-87750000D01*
X158425244Y-87735904D01*
X157485127Y-86795787D01*
X157471031Y-86787649D01*
X157467992Y-86789403D01*
X157465540Y-86792825D01*
X157420857Y-86883434D01*
X157417069Y-86892578D01*
X157325532Y-87162238D01*
X157322975Y-87171781D01*
X157267417Y-87451085D01*
X157266126Y-87460896D01*
X157247501Y-87745057D01*
X157247501Y-87754943D01*
X139324900Y-87754943D01*
X139324900Y-86829072D01*
X139345184Y-86753372D01*
X139369244Y-86722016D01*
X140368314Y-85722946D01*
X158537332Y-85722946D01*
X158538017Y-85726387D01*
X158540469Y-85729809D01*
X159485904Y-86675244D01*
X159500000Y-86683382D01*
X159514096Y-86675244D01*
X160454213Y-85735127D01*
X160462351Y-85721031D01*
X160460597Y-85717992D01*
X160457175Y-85715540D01*
X160366566Y-85670857D01*
X160357422Y-85667069D01*
X160087762Y-85575532D01*
X160078219Y-85572975D01*
X159798915Y-85517417D01*
X159789104Y-85516126D01*
X159504943Y-85497501D01*
X159495057Y-85497501D01*
X159210896Y-85516126D01*
X159201085Y-85517417D01*
X158921781Y-85572975D01*
X158912238Y-85575532D01*
X158642578Y-85667069D01*
X158633434Y-85670857D01*
X158549569Y-85712214D01*
X158537332Y-85722946D01*
X140368314Y-85722946D01*
X140988416Y-85102844D01*
X141056287Y-85063659D01*
X141095472Y-85058500D01*
X146444535Y-85058500D01*
X146520235Y-85078784D01*
X146527436Y-85083214D01*
X146557434Y-85102844D01*
X146593159Y-85126222D01*
X146601094Y-85129173D01*
X146601096Y-85129174D01*
X146663488Y-85152377D01*
X146763168Y-85189448D01*
X146942961Y-85213438D01*
X146951389Y-85212671D01*
X146951392Y-85212671D01*
X147014573Y-85206921D01*
X147123600Y-85196998D01*
X147169649Y-85182036D01*
X147288061Y-85143562D01*
X147288064Y-85143561D01*
X147296108Y-85140947D01*
X147451912Y-85048069D01*
X147583266Y-84922982D01*
X147646626Y-84827617D01*
X147705412Y-84775789D01*
X147772730Y-84760000D01*
X152951225Y-84760000D01*
X153026925Y-84780284D01*
G37*
G04 #@! TD.AperFunction*
G04 #@! TA.AperFunction,Conductor*
G36*
X152621110Y-106585284D02*
G01*
X152676526Y-106640700D01*
X152760960Y-106786944D01*
X152766269Y-106792840D01*
X152766271Y-106792843D01*
X152784471Y-106813056D01*
X152888747Y-106928866D01*
X152895168Y-106933531D01*
X153000000Y-107009696D01*
X153043248Y-107041118D01*
X153050493Y-107044344D01*
X153050497Y-107044346D01*
X153210463Y-107115567D01*
X153210467Y-107115568D01*
X153217712Y-107118794D01*
X153337738Y-107144306D01*
X153396754Y-107156851D01*
X153396756Y-107156851D01*
X153404513Y-107158500D01*
X153595487Y-107158500D01*
X153603244Y-107156851D01*
X153603246Y-107156851D01*
X153662262Y-107144306D01*
X153782288Y-107118794D01*
X153789533Y-107115568D01*
X153789537Y-107115567D01*
X153938420Y-107049280D01*
X154015826Y-107037020D01*
X154061580Y-107049280D01*
X154210463Y-107115567D01*
X154210467Y-107115568D01*
X154217712Y-107118794D01*
X154337738Y-107144306D01*
X154396754Y-107156851D01*
X154396756Y-107156851D01*
X154404513Y-107158500D01*
X154595487Y-107158500D01*
X154603244Y-107156851D01*
X154603246Y-107156851D01*
X154662262Y-107144306D01*
X154782288Y-107118794D01*
X154789533Y-107115568D01*
X154789537Y-107115567D01*
X154938420Y-107049280D01*
X155015826Y-107037020D01*
X155061580Y-107049280D01*
X155210463Y-107115567D01*
X155210467Y-107115568D01*
X155217712Y-107118794D01*
X155337738Y-107144306D01*
X155396754Y-107156851D01*
X155396756Y-107156851D01*
X155404513Y-107158500D01*
X155595487Y-107158500D01*
X155603244Y-107156851D01*
X155603246Y-107156851D01*
X155662262Y-107144306D01*
X155782288Y-107118794D01*
X155789533Y-107115568D01*
X155789537Y-107115567D01*
X155938420Y-107049280D01*
X156015826Y-107037020D01*
X156061580Y-107049280D01*
X156210463Y-107115567D01*
X156210467Y-107115568D01*
X156217712Y-107118794D01*
X156337738Y-107144306D01*
X156396754Y-107156851D01*
X156396756Y-107156851D01*
X156404513Y-107158500D01*
X156595487Y-107158500D01*
X156603244Y-107156851D01*
X156603246Y-107156851D01*
X156662262Y-107144306D01*
X156782288Y-107118794D01*
X156789533Y-107115568D01*
X156789537Y-107115567D01*
X156938420Y-107049280D01*
X157015826Y-107037020D01*
X157061580Y-107049280D01*
X157210463Y-107115567D01*
X157210467Y-107115568D01*
X157217712Y-107118794D01*
X157337738Y-107144306D01*
X157396754Y-107156851D01*
X157396756Y-107156851D01*
X157404513Y-107158500D01*
X157595487Y-107158500D01*
X157603244Y-107156851D01*
X157603246Y-107156851D01*
X157662262Y-107144306D01*
X157782288Y-107118794D01*
X157789533Y-107115568D01*
X157789537Y-107115567D01*
X157938420Y-107049280D01*
X158015826Y-107037020D01*
X158061580Y-107049280D01*
X158210463Y-107115567D01*
X158210467Y-107115568D01*
X158217712Y-107118794D01*
X158404513Y-107158500D01*
X158412447Y-107158500D01*
X158414055Y-107158669D01*
X158487220Y-107186755D01*
X158536540Y-107247660D01*
X158548800Y-107325066D01*
X158541594Y-107357906D01*
X158537021Y-107371379D01*
X158538017Y-107376387D01*
X158540469Y-107379809D01*
X159485904Y-108325244D01*
X159500000Y-108333382D01*
X159514096Y-108325244D01*
X160454213Y-107385127D01*
X160463150Y-107369647D01*
X160463150Y-107357917D01*
X160450114Y-107309267D01*
X160470398Y-107233567D01*
X160525814Y-107178151D01*
X160585688Y-107158696D01*
X160587552Y-107158500D01*
X160595487Y-107158500D01*
X160782288Y-107118794D01*
X160789533Y-107115568D01*
X160789537Y-107115567D01*
X160938420Y-107049280D01*
X161015826Y-107037020D01*
X161061580Y-107049280D01*
X161210463Y-107115567D01*
X161210467Y-107115568D01*
X161217712Y-107118794D01*
X161337738Y-107144306D01*
X161396754Y-107156851D01*
X161396756Y-107156851D01*
X161404513Y-107158500D01*
X161595487Y-107158500D01*
X161603244Y-107156851D01*
X161603246Y-107156851D01*
X161662262Y-107144306D01*
X161782288Y-107118794D01*
X161789533Y-107115568D01*
X161789537Y-107115567D01*
X161938420Y-107049280D01*
X162015826Y-107037020D01*
X162061580Y-107049280D01*
X162210463Y-107115567D01*
X162210467Y-107115568D01*
X162217712Y-107118794D01*
X162337738Y-107144306D01*
X162396754Y-107156851D01*
X162396756Y-107156851D01*
X162404513Y-107158500D01*
X162486248Y-107158500D01*
X162561948Y-107178784D01*
X162617364Y-107234200D01*
X162630238Y-107263115D01*
X162665473Y-107371556D01*
X162669694Y-107378866D01*
X162695925Y-107424300D01*
X162716209Y-107499999D01*
X162695925Y-107575699D01*
X162665473Y-107628444D01*
X162606458Y-107810072D01*
X162605629Y-107817961D01*
X162605628Y-107817965D01*
X162587325Y-107992112D01*
X162586496Y-108000000D01*
X162606458Y-108189928D01*
X162665473Y-108371556D01*
X162669443Y-108378432D01*
X162695925Y-108424300D01*
X162716209Y-108499999D01*
X162695925Y-108575699D01*
X162665473Y-108628444D01*
X162606458Y-108810072D01*
X162586496Y-109000000D01*
X162587325Y-109007888D01*
X162598152Y-109110896D01*
X162606458Y-109189928D01*
X162665473Y-109371556D01*
X162690034Y-109414096D01*
X162695925Y-109424300D01*
X162716209Y-109499999D01*
X162695925Y-109575699D01*
X162665473Y-109628444D01*
X162606458Y-109810072D01*
X162586496Y-110000000D01*
X162606458Y-110189928D01*
X162649552Y-110322557D01*
X162662363Y-110361983D01*
X162665473Y-110371556D01*
X162669443Y-110378432D01*
X162695925Y-110424300D01*
X162716209Y-110499999D01*
X162695925Y-110575699D01*
X162665473Y-110628444D01*
X162606458Y-110810072D01*
X162586496Y-111000000D01*
X162606458Y-111189928D01*
X162608911Y-111197476D01*
X162656297Y-111343314D01*
X162660399Y-111421577D01*
X162624820Y-111491406D01*
X162559093Y-111534090D01*
X162512307Y-111541500D01*
X162355324Y-111541500D01*
X162350608Y-111542096D01*
X162350604Y-111542096D01*
X162157440Y-111566499D01*
X162048412Y-111580272D01*
X161955578Y-111604108D01*
X161753390Y-111656020D01*
X161753385Y-111656022D01*
X161748780Y-111657204D01*
X161744359Y-111658954D01*
X161744351Y-111658957D01*
X161604966Y-111714144D01*
X161461152Y-111771084D01*
X161456988Y-111773373D01*
X161456982Y-111773376D01*
X161424710Y-111791118D01*
X161190065Y-111920116D01*
X161186212Y-111922915D01*
X161186211Y-111922916D01*
X160943645Y-112099150D01*
X160943637Y-112099157D01*
X160939795Y-112101948D01*
X160714287Y-112313713D01*
X160517099Y-112552073D01*
X160351340Y-112813267D01*
X160349316Y-112817569D01*
X160349314Y-112817572D01*
X160332792Y-112852683D01*
X160219625Y-113093176D01*
X160124030Y-113387387D01*
X160123138Y-113392063D01*
X160123137Y-113392067D01*
X160090201Y-113564725D01*
X160056092Y-113635284D01*
X159991274Y-113679335D01*
X159913114Y-113685074D01*
X159879903Y-113674667D01*
X159789537Y-113634433D01*
X159789533Y-113634432D01*
X159782288Y-113631206D01*
X159654633Y-113604072D01*
X159603246Y-113593149D01*
X159603244Y-113593149D01*
X159595487Y-113591500D01*
X159404513Y-113591500D01*
X159396756Y-113593149D01*
X159396754Y-113593149D01*
X159345367Y-113604072D01*
X159217712Y-113631206D01*
X159210467Y-113634432D01*
X159210463Y-113634433D01*
X159061580Y-113700720D01*
X158984174Y-113712980D01*
X158938420Y-113700720D01*
X158789537Y-113634433D01*
X158789533Y-113634432D01*
X158782288Y-113631206D01*
X158654633Y-113604072D01*
X158603246Y-113593149D01*
X158603244Y-113593149D01*
X158595487Y-113591500D01*
X158404513Y-113591500D01*
X158396756Y-113593149D01*
X158396754Y-113593149D01*
X158345367Y-113604072D01*
X158217712Y-113631206D01*
X158210467Y-113634432D01*
X158210463Y-113634433D01*
X158061580Y-113700720D01*
X157984174Y-113712980D01*
X157938420Y-113700720D01*
X157789537Y-113634433D01*
X157789533Y-113634432D01*
X157782288Y-113631206D01*
X157654633Y-113604072D01*
X157603246Y-113593149D01*
X157603244Y-113593149D01*
X157595487Y-113591500D01*
X157404513Y-113591500D01*
X157396756Y-113593149D01*
X157396754Y-113593149D01*
X157345367Y-113604072D01*
X157217712Y-113631206D01*
X157210467Y-113634432D01*
X157210463Y-113634433D01*
X157061580Y-113700720D01*
X156984174Y-113712980D01*
X156938420Y-113700720D01*
X156789537Y-113634433D01*
X156789533Y-113634432D01*
X156782288Y-113631206D01*
X156654633Y-113604072D01*
X156603246Y-113593149D01*
X156603244Y-113593149D01*
X156595487Y-113591500D01*
X156404513Y-113591500D01*
X156396756Y-113593149D01*
X156396754Y-113593149D01*
X156345367Y-113604072D01*
X156217712Y-113631206D01*
X156210467Y-113634432D01*
X156210463Y-113634433D01*
X156061580Y-113700720D01*
X155984174Y-113712980D01*
X155938420Y-113700720D01*
X155789537Y-113634433D01*
X155789533Y-113634432D01*
X155782288Y-113631206D01*
X155654633Y-113604072D01*
X155603246Y-113593149D01*
X155603244Y-113593149D01*
X155595487Y-113591500D01*
X155404513Y-113591500D01*
X155396756Y-113593149D01*
X155396754Y-113593149D01*
X155345367Y-113604072D01*
X155217712Y-113631206D01*
X155210467Y-113634432D01*
X155210463Y-113634433D01*
X155061580Y-113700720D01*
X154984174Y-113712980D01*
X154938420Y-113700720D01*
X154789537Y-113634433D01*
X154789533Y-113634432D01*
X154782288Y-113631206D01*
X154654633Y-113604072D01*
X154603246Y-113593149D01*
X154603244Y-113593149D01*
X154595487Y-113591500D01*
X154404513Y-113591500D01*
X154396756Y-113593149D01*
X154396754Y-113593149D01*
X154345367Y-113604072D01*
X154217712Y-113631206D01*
X154210467Y-113634432D01*
X154210463Y-113634433D01*
X154061580Y-113700720D01*
X153984174Y-113712980D01*
X153938420Y-113700720D01*
X153789537Y-113634433D01*
X153789533Y-113634432D01*
X153782288Y-113631206D01*
X153654633Y-113604072D01*
X153603246Y-113593149D01*
X153603244Y-113593149D01*
X153595487Y-113591500D01*
X153404513Y-113591500D01*
X153396756Y-113593149D01*
X153396754Y-113593149D01*
X153345367Y-113604072D01*
X153217712Y-113631206D01*
X153210467Y-113634432D01*
X153210463Y-113634433D01*
X153050497Y-113705654D01*
X153050493Y-113705656D01*
X153043248Y-113708882D01*
X153036828Y-113713546D01*
X153036827Y-113713547D01*
X152993826Y-113744789D01*
X152888747Y-113821134D01*
X152760960Y-113963056D01*
X152665473Y-114128444D01*
X152662795Y-114126898D01*
X152622981Y-114176075D01*
X152549819Y-114204169D01*
X152533976Y-114205000D01*
X139401300Y-114205000D01*
X139325600Y-114184716D01*
X139270184Y-114129300D01*
X139249900Y-114053600D01*
X139249900Y-113604072D01*
X139270184Y-113528372D01*
X139294244Y-113497016D01*
X139668272Y-113122988D01*
X139676173Y-113115799D01*
X139683080Y-113111416D01*
X139700209Y-113093176D01*
X139731312Y-113060054D01*
X139734622Y-113056638D01*
X139754927Y-113036333D01*
X139757843Y-113032574D01*
X139760812Y-113029206D01*
X139766166Y-113022938D01*
X139796972Y-112990133D01*
X139806343Y-112973087D01*
X139819383Y-112953237D01*
X139831304Y-112937868D01*
X139835084Y-112929133D01*
X139835088Y-112929126D01*
X139849177Y-112896567D01*
X139855452Y-112883757D01*
X139877124Y-112844337D01*
X139881962Y-112825496D01*
X139889655Y-112803027D01*
X139893598Y-112793916D01*
X139897380Y-112785176D01*
X139904419Y-112740735D01*
X139907311Y-112726771D01*
X139916132Y-112692414D01*
X139916133Y-112692408D01*
X139918500Y-112683188D01*
X139918500Y-112663739D01*
X139920364Y-112640056D01*
X139921916Y-112630255D01*
X139923406Y-112620848D01*
X139919172Y-112576056D01*
X139918500Y-112561808D01*
X139918500Y-111428969D01*
X158537649Y-111428969D01*
X158539403Y-111432008D01*
X158542825Y-111434460D01*
X158633434Y-111479143D01*
X158642578Y-111482931D01*
X158912238Y-111574468D01*
X158921781Y-111577025D01*
X159201085Y-111632583D01*
X159210896Y-111633874D01*
X159495057Y-111652499D01*
X159504943Y-111652499D01*
X159789104Y-111633874D01*
X159798915Y-111632583D01*
X160078219Y-111577025D01*
X160087762Y-111574468D01*
X160357422Y-111482931D01*
X160366566Y-111479143D01*
X160450431Y-111437786D01*
X160462668Y-111427054D01*
X160461983Y-111423613D01*
X160459531Y-111420191D01*
X159514096Y-110474756D01*
X159500000Y-110466618D01*
X159485904Y-110474756D01*
X158545787Y-111414873D01*
X158537649Y-111428969D01*
X139918500Y-111428969D01*
X139918500Y-109404943D01*
X157247501Y-109404943D01*
X157266126Y-109689104D01*
X157267417Y-109698915D01*
X157322975Y-109978219D01*
X157325532Y-109987762D01*
X157417069Y-110257422D01*
X157420857Y-110266566D01*
X157462214Y-110350431D01*
X157472946Y-110362668D01*
X157476387Y-110361983D01*
X157479809Y-110359531D01*
X158425244Y-109414096D01*
X158433382Y-109400000D01*
X160566618Y-109400000D01*
X160574756Y-109414096D01*
X161514873Y-110354213D01*
X161528969Y-110362351D01*
X161532008Y-110360597D01*
X161534460Y-110357175D01*
X161579143Y-110266566D01*
X161582931Y-110257422D01*
X161674468Y-109987762D01*
X161677025Y-109978219D01*
X161732583Y-109698915D01*
X161733874Y-109689104D01*
X161752499Y-109404943D01*
X161752499Y-109395057D01*
X161733874Y-109110896D01*
X161732583Y-109101085D01*
X161677025Y-108821781D01*
X161674468Y-108812238D01*
X161582931Y-108542578D01*
X161579143Y-108533434D01*
X161537786Y-108449569D01*
X161527054Y-108437332D01*
X161523613Y-108438017D01*
X161520191Y-108440469D01*
X160574756Y-109385904D01*
X160566618Y-109400000D01*
X158433382Y-109400000D01*
X158425244Y-109385904D01*
X157485127Y-108445787D01*
X157471031Y-108437649D01*
X157467992Y-108439403D01*
X157465540Y-108442825D01*
X157420857Y-108533434D01*
X157417069Y-108542578D01*
X157325532Y-108812238D01*
X157322975Y-108821781D01*
X157267417Y-109101085D01*
X157266126Y-109110896D01*
X157247501Y-109395057D01*
X157247501Y-109404943D01*
X139918500Y-109404943D01*
X139918500Y-107735472D01*
X139938784Y-107659772D01*
X139962844Y-107628416D01*
X139988416Y-107602844D01*
X140056287Y-107563659D01*
X140095472Y-107558500D01*
X146324735Y-107558500D01*
X146371078Y-107565840D01*
X146377712Y-107568794D01*
X146385470Y-107570443D01*
X146385473Y-107570444D01*
X146556754Y-107606851D01*
X146556756Y-107606851D01*
X146564513Y-107608500D01*
X146755487Y-107608500D01*
X146763244Y-107606851D01*
X146763246Y-107606851D01*
X146822262Y-107594306D01*
X146942288Y-107568794D01*
X146949533Y-107565568D01*
X146949537Y-107565567D01*
X147109503Y-107494346D01*
X147109507Y-107494344D01*
X147116752Y-107491118D01*
X147271253Y-107378866D01*
X147375476Y-107263115D01*
X147393729Y-107242843D01*
X147393731Y-107242840D01*
X147399040Y-107236944D01*
X147494527Y-107071556D01*
X147553542Y-106889928D01*
X147573444Y-106700574D01*
X147601530Y-106627409D01*
X147662435Y-106578089D01*
X147724015Y-106565000D01*
X152545410Y-106565000D01*
X152621110Y-106585284D01*
G37*
G04 #@! TD.AperFunction*
M02*
