%TF.GenerationSoftware,KiCad,Pcbnew,7.0.2-6a45011f42~172~ubuntu22.04.1*%
%TF.CreationDate,2023-05-09T16:24:30-07:00*%
%TF.ProjectId,RP2040_motor,52503230-3430-45f6-9d6f-746f722e6b69,REV1*%
%TF.SameCoordinates,Original*%
%TF.FileFunction,Drillmap*%
%TF.FilePolarity,Positive*%
%FSLAX45Y45*%
G04 Gerber Fmt 4.5, Leading zero omitted, Abs format (unit mm)*
G04 Created by KiCad (PCBNEW 7.0.2-6a45011f42~172~ubuntu22.04.1) date 2023-05-09 16:24:30*
%MOMM*%
%LPD*%
G01*
G04 APERTURE LIST*
%ADD10C,0.050000*%
%ADD11C,0.200000*%
%ADD12C,0.065000*%
%ADD13C,0.205000*%
%ADD14C,0.280000*%
%ADD15C,0.390000*%
G04 APERTURE END LIST*
D10*
X6390000Y-3140000D02*
G75*
G03*
X6215000Y-3315000I0J-175000D01*
G01*
X17625000Y-3315000D02*
G75*
G03*
X17450000Y-3140000I-175000J0D01*
G01*
X6215000Y-11290000D02*
X6215000Y-3315000D01*
X17450000Y-11465000D02*
X6390000Y-11465000D01*
X17450000Y-11465000D02*
G75*
G03*
X17625000Y-11290000I0J175000D01*
G01*
X17450000Y-3140000D02*
X6390000Y-3140000D01*
X6215000Y-11290000D02*
G75*
G03*
X6390000Y-11465000I175000J0D01*
G01*
X17625000Y-3315000D02*
X17625000Y-11290000D01*
D11*
D12*
X7233500Y-10897000D02*
X7298500Y-10962000D01*
X7298500Y-10897000D02*
X7233500Y-10962000D01*
X7811500Y-10897000D02*
X7876500Y-10962000D01*
X7876500Y-10897000D02*
X7811500Y-10962000D01*
X8503500Y-10897000D02*
X8568500Y-10962000D01*
X8568500Y-10897000D02*
X8503500Y-10962000D01*
X9081500Y-10897000D02*
X9146500Y-10962000D01*
X9146500Y-10897000D02*
X9081500Y-10962000D01*
D13*
X13142500Y-10692500D02*
G75*
G03*
X13142500Y-10692500I-102500J0D01*
G01*
X14642500Y-10692500D02*
G75*
G03*
X14642500Y-10692500I-102500J0D01*
G01*
X15032500Y-10690000D02*
G75*
G03*
X15032500Y-10690000I-102500J0D01*
G01*
X16532500Y-10690000D02*
G75*
G03*
X16532500Y-10690000I-102500J0D01*
G01*
D14*
X13040000Y-10952500D02*
X13040000Y-11232500D01*
X12900000Y-11092500D02*
X13180000Y-11092500D01*
X14540000Y-10952500D02*
X14540000Y-11232500D01*
X14400000Y-11092500D02*
X14680000Y-11092500D01*
X14930000Y-10950000D02*
X14930000Y-11230000D01*
X14790000Y-11090000D02*
X15070000Y-11090000D01*
X16430000Y-10950000D02*
X16430000Y-11230000D01*
X16290000Y-11090000D02*
X16570000Y-11090000D01*
D15*
X6707887Y-3632887D02*
X6707887Y-3357113D01*
X6432113Y-3357113D01*
X6432113Y-3632887D01*
X6707887Y-3632887D01*
X6707887Y-11247887D02*
X6707887Y-10972113D01*
X6432113Y-10972113D01*
X6432113Y-11247887D01*
X6707887Y-11247887D01*
X17407887Y-3632887D02*
X17407887Y-3357113D01*
X17132113Y-3357113D01*
X17132113Y-3632887D01*
X17407887Y-3632887D01*
X17407887Y-5747887D02*
X17407887Y-5472113D01*
X17132113Y-5472113D01*
X17132113Y-5747887D01*
X17407887Y-5747887D01*
X17407887Y-7057887D02*
X17407887Y-6782113D01*
X17132113Y-6782113D01*
X17132113Y-7057887D01*
X17407887Y-7057887D01*
X17407887Y-9187887D02*
X17407887Y-8912113D01*
X17132113Y-8912113D01*
X17132113Y-9187887D01*
X17407887Y-9187887D01*
X17407887Y-11247887D02*
X17407887Y-10972113D01*
X17132113Y-10972113D01*
X17132113Y-11247887D01*
X17407887Y-11247887D01*
D11*
X6460119Y-11780024D02*
X6460119Y-11580024D01*
X6460119Y-11580024D02*
X6507738Y-11580024D01*
X6507738Y-11580024D02*
X6536309Y-11589548D01*
X6536309Y-11589548D02*
X6555357Y-11608595D01*
X6555357Y-11608595D02*
X6564881Y-11627643D01*
X6564881Y-11627643D02*
X6574405Y-11665738D01*
X6574405Y-11665738D02*
X6574405Y-11694309D01*
X6574405Y-11694309D02*
X6564881Y-11732405D01*
X6564881Y-11732405D02*
X6555357Y-11751452D01*
X6555357Y-11751452D02*
X6536309Y-11770500D01*
X6536309Y-11770500D02*
X6507738Y-11780024D01*
X6507738Y-11780024D02*
X6460119Y-11780024D01*
X6660119Y-11780024D02*
X6660119Y-11646690D01*
X6660119Y-11684786D02*
X6669643Y-11665738D01*
X6669643Y-11665738D02*
X6679167Y-11656214D01*
X6679167Y-11656214D02*
X6698214Y-11646690D01*
X6698214Y-11646690D02*
X6717262Y-11646690D01*
X6783928Y-11780024D02*
X6783928Y-11646690D01*
X6783928Y-11580024D02*
X6774405Y-11589548D01*
X6774405Y-11589548D02*
X6783928Y-11599071D01*
X6783928Y-11599071D02*
X6793452Y-11589548D01*
X6793452Y-11589548D02*
X6783928Y-11580024D01*
X6783928Y-11580024D02*
X6783928Y-11599071D01*
X6907738Y-11780024D02*
X6888690Y-11770500D01*
X6888690Y-11770500D02*
X6879167Y-11751452D01*
X6879167Y-11751452D02*
X6879167Y-11580024D01*
X7012500Y-11780024D02*
X6993452Y-11770500D01*
X6993452Y-11770500D02*
X6983928Y-11751452D01*
X6983928Y-11751452D02*
X6983928Y-11580024D01*
X7241071Y-11780024D02*
X7241071Y-11580024D01*
X7241071Y-11580024D02*
X7307738Y-11722881D01*
X7307738Y-11722881D02*
X7374405Y-11580024D01*
X7374405Y-11580024D02*
X7374405Y-11780024D01*
X7555357Y-11780024D02*
X7555357Y-11675262D01*
X7555357Y-11675262D02*
X7545833Y-11656214D01*
X7545833Y-11656214D02*
X7526786Y-11646690D01*
X7526786Y-11646690D02*
X7488690Y-11646690D01*
X7488690Y-11646690D02*
X7469643Y-11656214D01*
X7555357Y-11770500D02*
X7536309Y-11780024D01*
X7536309Y-11780024D02*
X7488690Y-11780024D01*
X7488690Y-11780024D02*
X7469643Y-11770500D01*
X7469643Y-11770500D02*
X7460119Y-11751452D01*
X7460119Y-11751452D02*
X7460119Y-11732405D01*
X7460119Y-11732405D02*
X7469643Y-11713357D01*
X7469643Y-11713357D02*
X7488690Y-11703833D01*
X7488690Y-11703833D02*
X7536309Y-11703833D01*
X7536309Y-11703833D02*
X7555357Y-11694309D01*
X7650595Y-11646690D02*
X7650595Y-11846690D01*
X7650595Y-11656214D02*
X7669643Y-11646690D01*
X7669643Y-11646690D02*
X7707738Y-11646690D01*
X7707738Y-11646690D02*
X7726786Y-11656214D01*
X7726786Y-11656214D02*
X7736309Y-11665738D01*
X7736309Y-11665738D02*
X7745833Y-11684786D01*
X7745833Y-11684786D02*
X7745833Y-11741928D01*
X7745833Y-11741928D02*
X7736309Y-11760976D01*
X7736309Y-11760976D02*
X7726786Y-11770500D01*
X7726786Y-11770500D02*
X7707738Y-11780024D01*
X7707738Y-11780024D02*
X7669643Y-11780024D01*
X7669643Y-11780024D02*
X7650595Y-11770500D01*
X7831548Y-11760976D02*
X7841071Y-11770500D01*
X7841071Y-11770500D02*
X7831548Y-11780024D01*
X7831548Y-11780024D02*
X7822024Y-11770500D01*
X7822024Y-11770500D02*
X7831548Y-11760976D01*
X7831548Y-11760976D02*
X7831548Y-11780024D01*
X7831548Y-11656214D02*
X7841071Y-11665738D01*
X7841071Y-11665738D02*
X7831548Y-11675262D01*
X7831548Y-11675262D02*
X7822024Y-11665738D01*
X7822024Y-11665738D02*
X7831548Y-11656214D01*
X7831548Y-11656214D02*
X7831548Y-11675262D01*
D12*
X6147500Y-12075000D02*
X6212500Y-12140000D01*
X6212500Y-12075000D02*
X6147500Y-12140000D01*
D11*
X6498214Y-12000024D02*
X6517262Y-12000024D01*
X6517262Y-12000024D02*
X6536309Y-12009548D01*
X6536309Y-12009548D02*
X6545833Y-12019071D01*
X6545833Y-12019071D02*
X6555357Y-12038119D01*
X6555357Y-12038119D02*
X6564881Y-12076214D01*
X6564881Y-12076214D02*
X6564881Y-12123833D01*
X6564881Y-12123833D02*
X6555357Y-12161928D01*
X6555357Y-12161928D02*
X6545833Y-12180976D01*
X6545833Y-12180976D02*
X6536309Y-12190500D01*
X6536309Y-12190500D02*
X6517262Y-12200024D01*
X6517262Y-12200024D02*
X6498214Y-12200024D01*
X6498214Y-12200024D02*
X6479167Y-12190500D01*
X6479167Y-12190500D02*
X6469643Y-12180976D01*
X6469643Y-12180976D02*
X6460119Y-12161928D01*
X6460119Y-12161928D02*
X6450595Y-12123833D01*
X6450595Y-12123833D02*
X6450595Y-12076214D01*
X6450595Y-12076214D02*
X6460119Y-12038119D01*
X6460119Y-12038119D02*
X6469643Y-12019071D01*
X6469643Y-12019071D02*
X6479167Y-12009548D01*
X6479167Y-12009548D02*
X6498214Y-12000024D01*
X6650595Y-12180976D02*
X6660119Y-12190500D01*
X6660119Y-12190500D02*
X6650595Y-12200024D01*
X6650595Y-12200024D02*
X6641071Y-12190500D01*
X6641071Y-12190500D02*
X6650595Y-12180976D01*
X6650595Y-12180976D02*
X6650595Y-12200024D01*
X6831548Y-12000024D02*
X6793452Y-12000024D01*
X6793452Y-12000024D02*
X6774405Y-12009548D01*
X6774405Y-12009548D02*
X6764881Y-12019071D01*
X6764881Y-12019071D02*
X6745833Y-12047643D01*
X6745833Y-12047643D02*
X6736309Y-12085738D01*
X6736309Y-12085738D02*
X6736309Y-12161928D01*
X6736309Y-12161928D02*
X6745833Y-12180976D01*
X6745833Y-12180976D02*
X6755357Y-12190500D01*
X6755357Y-12190500D02*
X6774405Y-12200024D01*
X6774405Y-12200024D02*
X6812500Y-12200024D01*
X6812500Y-12200024D02*
X6831548Y-12190500D01*
X6831548Y-12190500D02*
X6841071Y-12180976D01*
X6841071Y-12180976D02*
X6850595Y-12161928D01*
X6850595Y-12161928D02*
X6850595Y-12114309D01*
X6850595Y-12114309D02*
X6841071Y-12095262D01*
X6841071Y-12095262D02*
X6831548Y-12085738D01*
X6831548Y-12085738D02*
X6812500Y-12076214D01*
X6812500Y-12076214D02*
X6774405Y-12076214D01*
X6774405Y-12076214D02*
X6755357Y-12085738D01*
X6755357Y-12085738D02*
X6745833Y-12095262D01*
X6745833Y-12095262D02*
X6736309Y-12114309D01*
X7031548Y-12000024D02*
X6936309Y-12000024D01*
X6936309Y-12000024D02*
X6926786Y-12095262D01*
X6926786Y-12095262D02*
X6936309Y-12085738D01*
X6936309Y-12085738D02*
X6955357Y-12076214D01*
X6955357Y-12076214D02*
X7002976Y-12076214D01*
X7002976Y-12076214D02*
X7022024Y-12085738D01*
X7022024Y-12085738D02*
X7031548Y-12095262D01*
X7031548Y-12095262D02*
X7041071Y-12114309D01*
X7041071Y-12114309D02*
X7041071Y-12161928D01*
X7041071Y-12161928D02*
X7031548Y-12180976D01*
X7031548Y-12180976D02*
X7022024Y-12190500D01*
X7022024Y-12190500D02*
X7002976Y-12200024D01*
X7002976Y-12200024D02*
X6955357Y-12200024D01*
X6955357Y-12200024D02*
X6936309Y-12190500D01*
X6936309Y-12190500D02*
X6926786Y-12180976D01*
X7164881Y-12000024D02*
X7183929Y-12000024D01*
X7183929Y-12000024D02*
X7202976Y-12009548D01*
X7202976Y-12009548D02*
X7212500Y-12019071D01*
X7212500Y-12019071D02*
X7222024Y-12038119D01*
X7222024Y-12038119D02*
X7231548Y-12076214D01*
X7231548Y-12076214D02*
X7231548Y-12123833D01*
X7231548Y-12123833D02*
X7222024Y-12161928D01*
X7222024Y-12161928D02*
X7212500Y-12180976D01*
X7212500Y-12180976D02*
X7202976Y-12190500D01*
X7202976Y-12190500D02*
X7183929Y-12200024D01*
X7183929Y-12200024D02*
X7164881Y-12200024D01*
X7164881Y-12200024D02*
X7145833Y-12190500D01*
X7145833Y-12190500D02*
X7136309Y-12180976D01*
X7136309Y-12180976D02*
X7126786Y-12161928D01*
X7126786Y-12161928D02*
X7117262Y-12123833D01*
X7117262Y-12123833D02*
X7117262Y-12076214D01*
X7117262Y-12076214D02*
X7126786Y-12038119D01*
X7126786Y-12038119D02*
X7136309Y-12019071D01*
X7136309Y-12019071D02*
X7145833Y-12009548D01*
X7145833Y-12009548D02*
X7164881Y-12000024D01*
X7317262Y-12200024D02*
X7317262Y-12066690D01*
X7317262Y-12085738D02*
X7326786Y-12076214D01*
X7326786Y-12076214D02*
X7345833Y-12066690D01*
X7345833Y-12066690D02*
X7374405Y-12066690D01*
X7374405Y-12066690D02*
X7393452Y-12076214D01*
X7393452Y-12076214D02*
X7402976Y-12095262D01*
X7402976Y-12095262D02*
X7402976Y-12200024D01*
X7402976Y-12095262D02*
X7412500Y-12076214D01*
X7412500Y-12076214D02*
X7431548Y-12066690D01*
X7431548Y-12066690D02*
X7460119Y-12066690D01*
X7460119Y-12066690D02*
X7479167Y-12076214D01*
X7479167Y-12076214D02*
X7488690Y-12095262D01*
X7488690Y-12095262D02*
X7488690Y-12200024D01*
X7583929Y-12200024D02*
X7583929Y-12066690D01*
X7583929Y-12085738D02*
X7593452Y-12076214D01*
X7593452Y-12076214D02*
X7612500Y-12066690D01*
X7612500Y-12066690D02*
X7641071Y-12066690D01*
X7641071Y-12066690D02*
X7660119Y-12076214D01*
X7660119Y-12076214D02*
X7669643Y-12095262D01*
X7669643Y-12095262D02*
X7669643Y-12200024D01*
X7669643Y-12095262D02*
X7679167Y-12076214D01*
X7679167Y-12076214D02*
X7698214Y-12066690D01*
X7698214Y-12066690D02*
X7726786Y-12066690D01*
X7726786Y-12066690D02*
X7745833Y-12076214D01*
X7745833Y-12076214D02*
X7755357Y-12095262D01*
X7755357Y-12095262D02*
X7755357Y-12200024D01*
X8145833Y-11990500D02*
X7974405Y-12247643D01*
X8402976Y-12000024D02*
X8422024Y-12000024D01*
X8422024Y-12000024D02*
X8441072Y-12009548D01*
X8441072Y-12009548D02*
X8450595Y-12019071D01*
X8450595Y-12019071D02*
X8460119Y-12038119D01*
X8460119Y-12038119D02*
X8469643Y-12076214D01*
X8469643Y-12076214D02*
X8469643Y-12123833D01*
X8469643Y-12123833D02*
X8460119Y-12161928D01*
X8460119Y-12161928D02*
X8450595Y-12180976D01*
X8450595Y-12180976D02*
X8441072Y-12190500D01*
X8441072Y-12190500D02*
X8422024Y-12200024D01*
X8422024Y-12200024D02*
X8402976Y-12200024D01*
X8402976Y-12200024D02*
X8383929Y-12190500D01*
X8383929Y-12190500D02*
X8374405Y-12180976D01*
X8374405Y-12180976D02*
X8364881Y-12161928D01*
X8364881Y-12161928D02*
X8355357Y-12123833D01*
X8355357Y-12123833D02*
X8355357Y-12076214D01*
X8355357Y-12076214D02*
X8364881Y-12038119D01*
X8364881Y-12038119D02*
X8374405Y-12019071D01*
X8374405Y-12019071D02*
X8383929Y-12009548D01*
X8383929Y-12009548D02*
X8402976Y-12000024D01*
X8555357Y-12180976D02*
X8564881Y-12190500D01*
X8564881Y-12190500D02*
X8555357Y-12200024D01*
X8555357Y-12200024D02*
X8545834Y-12190500D01*
X8545834Y-12190500D02*
X8555357Y-12180976D01*
X8555357Y-12180976D02*
X8555357Y-12200024D01*
X8688691Y-12000024D02*
X8707738Y-12000024D01*
X8707738Y-12000024D02*
X8726786Y-12009548D01*
X8726786Y-12009548D02*
X8736310Y-12019071D01*
X8736310Y-12019071D02*
X8745834Y-12038119D01*
X8745834Y-12038119D02*
X8755357Y-12076214D01*
X8755357Y-12076214D02*
X8755357Y-12123833D01*
X8755357Y-12123833D02*
X8745834Y-12161928D01*
X8745834Y-12161928D02*
X8736310Y-12180976D01*
X8736310Y-12180976D02*
X8726786Y-12190500D01*
X8726786Y-12190500D02*
X8707738Y-12200024D01*
X8707738Y-12200024D02*
X8688691Y-12200024D01*
X8688691Y-12200024D02*
X8669643Y-12190500D01*
X8669643Y-12190500D02*
X8660119Y-12180976D01*
X8660119Y-12180976D02*
X8650595Y-12161928D01*
X8650595Y-12161928D02*
X8641072Y-12123833D01*
X8641072Y-12123833D02*
X8641072Y-12076214D01*
X8641072Y-12076214D02*
X8650595Y-12038119D01*
X8650595Y-12038119D02*
X8660119Y-12019071D01*
X8660119Y-12019071D02*
X8669643Y-12009548D01*
X8669643Y-12009548D02*
X8688691Y-12000024D01*
X8831548Y-12019071D02*
X8841072Y-12009548D01*
X8841072Y-12009548D02*
X8860119Y-12000024D01*
X8860119Y-12000024D02*
X8907738Y-12000024D01*
X8907738Y-12000024D02*
X8926786Y-12009548D01*
X8926786Y-12009548D02*
X8936310Y-12019071D01*
X8936310Y-12019071D02*
X8945834Y-12038119D01*
X8945834Y-12038119D02*
X8945834Y-12057167D01*
X8945834Y-12057167D02*
X8936310Y-12085738D01*
X8936310Y-12085738D02*
X8822024Y-12200024D01*
X8822024Y-12200024D02*
X8945834Y-12200024D01*
X9126786Y-12000024D02*
X9031548Y-12000024D01*
X9031548Y-12000024D02*
X9022024Y-12095262D01*
X9022024Y-12095262D02*
X9031548Y-12085738D01*
X9031548Y-12085738D02*
X9050595Y-12076214D01*
X9050595Y-12076214D02*
X9098215Y-12076214D01*
X9098215Y-12076214D02*
X9117262Y-12085738D01*
X9117262Y-12085738D02*
X9126786Y-12095262D01*
X9126786Y-12095262D02*
X9136310Y-12114309D01*
X9136310Y-12114309D02*
X9136310Y-12161928D01*
X9136310Y-12161928D02*
X9126786Y-12180976D01*
X9126786Y-12180976D02*
X9117262Y-12190500D01*
X9117262Y-12190500D02*
X9098215Y-12200024D01*
X9098215Y-12200024D02*
X9050595Y-12200024D01*
X9050595Y-12200024D02*
X9031548Y-12190500D01*
X9031548Y-12190500D02*
X9022024Y-12180976D01*
X9307738Y-12000024D02*
X9269643Y-12000024D01*
X9269643Y-12000024D02*
X9250595Y-12009548D01*
X9250595Y-12009548D02*
X9241072Y-12019071D01*
X9241072Y-12019071D02*
X9222024Y-12047643D01*
X9222024Y-12047643D02*
X9212500Y-12085738D01*
X9212500Y-12085738D02*
X9212500Y-12161928D01*
X9212500Y-12161928D02*
X9222024Y-12180976D01*
X9222024Y-12180976D02*
X9231548Y-12190500D01*
X9231548Y-12190500D02*
X9250595Y-12200024D01*
X9250595Y-12200024D02*
X9288691Y-12200024D01*
X9288691Y-12200024D02*
X9307738Y-12190500D01*
X9307738Y-12190500D02*
X9317262Y-12180976D01*
X9317262Y-12180976D02*
X9326786Y-12161928D01*
X9326786Y-12161928D02*
X9326786Y-12114309D01*
X9326786Y-12114309D02*
X9317262Y-12095262D01*
X9317262Y-12095262D02*
X9307738Y-12085738D01*
X9307738Y-12085738D02*
X9288691Y-12076214D01*
X9288691Y-12076214D02*
X9250595Y-12076214D01*
X9250595Y-12076214D02*
X9231548Y-12085738D01*
X9231548Y-12085738D02*
X9222024Y-12095262D01*
X9222024Y-12095262D02*
X9212500Y-12114309D01*
X9402976Y-12000024D02*
X9402976Y-12038119D01*
X9479167Y-12000024D02*
X9479167Y-12038119D01*
X9774405Y-12276214D02*
X9764881Y-12266690D01*
X9764881Y-12266690D02*
X9745834Y-12238119D01*
X9745834Y-12238119D02*
X9736310Y-12219071D01*
X9736310Y-12219071D02*
X9726786Y-12190500D01*
X9726786Y-12190500D02*
X9717262Y-12142881D01*
X9717262Y-12142881D02*
X9717262Y-12104786D01*
X9717262Y-12104786D02*
X9726786Y-12057167D01*
X9726786Y-12057167D02*
X9736310Y-12028595D01*
X9736310Y-12028595D02*
X9745834Y-12009548D01*
X9745834Y-12009548D02*
X9764881Y-11980976D01*
X9764881Y-11980976D02*
X9774405Y-11971452D01*
X9936310Y-12066690D02*
X9936310Y-12200024D01*
X9888691Y-11990500D02*
X9841072Y-12133357D01*
X9841072Y-12133357D02*
X9964881Y-12133357D01*
X10193453Y-12200024D02*
X10193453Y-12000024D01*
X10279167Y-12200024D02*
X10279167Y-12095262D01*
X10279167Y-12095262D02*
X10269643Y-12076214D01*
X10269643Y-12076214D02*
X10250596Y-12066690D01*
X10250596Y-12066690D02*
X10222024Y-12066690D01*
X10222024Y-12066690D02*
X10202977Y-12076214D01*
X10202977Y-12076214D02*
X10193453Y-12085738D01*
X10402977Y-12200024D02*
X10383929Y-12190500D01*
X10383929Y-12190500D02*
X10374405Y-12180976D01*
X10374405Y-12180976D02*
X10364881Y-12161928D01*
X10364881Y-12161928D02*
X10364881Y-12104786D01*
X10364881Y-12104786D02*
X10374405Y-12085738D01*
X10374405Y-12085738D02*
X10383929Y-12076214D01*
X10383929Y-12076214D02*
X10402977Y-12066690D01*
X10402977Y-12066690D02*
X10431548Y-12066690D01*
X10431548Y-12066690D02*
X10450596Y-12076214D01*
X10450596Y-12076214D02*
X10460119Y-12085738D01*
X10460119Y-12085738D02*
X10469643Y-12104786D01*
X10469643Y-12104786D02*
X10469643Y-12161928D01*
X10469643Y-12161928D02*
X10460119Y-12180976D01*
X10460119Y-12180976D02*
X10450596Y-12190500D01*
X10450596Y-12190500D02*
X10431548Y-12200024D01*
X10431548Y-12200024D02*
X10402977Y-12200024D01*
X10583929Y-12200024D02*
X10564881Y-12190500D01*
X10564881Y-12190500D02*
X10555358Y-12171452D01*
X10555358Y-12171452D02*
X10555358Y-12000024D01*
X10736310Y-12190500D02*
X10717262Y-12200024D01*
X10717262Y-12200024D02*
X10679167Y-12200024D01*
X10679167Y-12200024D02*
X10660119Y-12190500D01*
X10660119Y-12190500D02*
X10650596Y-12171452D01*
X10650596Y-12171452D02*
X10650596Y-12095262D01*
X10650596Y-12095262D02*
X10660119Y-12076214D01*
X10660119Y-12076214D02*
X10679167Y-12066690D01*
X10679167Y-12066690D02*
X10717262Y-12066690D01*
X10717262Y-12066690D02*
X10736310Y-12076214D01*
X10736310Y-12076214D02*
X10745834Y-12095262D01*
X10745834Y-12095262D02*
X10745834Y-12114309D01*
X10745834Y-12114309D02*
X10650596Y-12133357D01*
X10822024Y-12190500D02*
X10841072Y-12200024D01*
X10841072Y-12200024D02*
X10879167Y-12200024D01*
X10879167Y-12200024D02*
X10898215Y-12190500D01*
X10898215Y-12190500D02*
X10907739Y-12171452D01*
X10907739Y-12171452D02*
X10907739Y-12161928D01*
X10907739Y-12161928D02*
X10898215Y-12142881D01*
X10898215Y-12142881D02*
X10879167Y-12133357D01*
X10879167Y-12133357D02*
X10850596Y-12133357D01*
X10850596Y-12133357D02*
X10831548Y-12123833D01*
X10831548Y-12123833D02*
X10822024Y-12104786D01*
X10822024Y-12104786D02*
X10822024Y-12095262D01*
X10822024Y-12095262D02*
X10831548Y-12076214D01*
X10831548Y-12076214D02*
X10850596Y-12066690D01*
X10850596Y-12066690D02*
X10879167Y-12066690D01*
X10879167Y-12066690D02*
X10898215Y-12076214D01*
X10974405Y-12276214D02*
X10983929Y-12266690D01*
X10983929Y-12266690D02*
X11002977Y-12238119D01*
X11002977Y-12238119D02*
X11012500Y-12219071D01*
X11012500Y-12219071D02*
X11022024Y-12190500D01*
X11022024Y-12190500D02*
X11031548Y-12142881D01*
X11031548Y-12142881D02*
X11031548Y-12104786D01*
X11031548Y-12104786D02*
X11022024Y-12057167D01*
X11022024Y-12057167D02*
X11012500Y-12028595D01*
X11012500Y-12028595D02*
X11002977Y-12009548D01*
X11002977Y-12009548D02*
X10983929Y-11980976D01*
X10983929Y-11980976D02*
X10974405Y-11971452D01*
X11336310Y-12276214D02*
X11326786Y-12266690D01*
X11326786Y-12266690D02*
X11307738Y-12238119D01*
X11307738Y-12238119D02*
X11298215Y-12219071D01*
X11298215Y-12219071D02*
X11288691Y-12190500D01*
X11288691Y-12190500D02*
X11279167Y-12142881D01*
X11279167Y-12142881D02*
X11279167Y-12104786D01*
X11279167Y-12104786D02*
X11288691Y-12057167D01*
X11288691Y-12057167D02*
X11298215Y-12028595D01*
X11298215Y-12028595D02*
X11307738Y-12009548D01*
X11307738Y-12009548D02*
X11326786Y-11980976D01*
X11326786Y-11980976D02*
X11336310Y-11971452D01*
X11412500Y-12066690D02*
X11412500Y-12200024D01*
X11412500Y-12085738D02*
X11422024Y-12076214D01*
X11422024Y-12076214D02*
X11441072Y-12066690D01*
X11441072Y-12066690D02*
X11469643Y-12066690D01*
X11469643Y-12066690D02*
X11488691Y-12076214D01*
X11488691Y-12076214D02*
X11498215Y-12095262D01*
X11498215Y-12095262D02*
X11498215Y-12200024D01*
X11622024Y-12200024D02*
X11602977Y-12190500D01*
X11602977Y-12190500D02*
X11593453Y-12180976D01*
X11593453Y-12180976D02*
X11583929Y-12161928D01*
X11583929Y-12161928D02*
X11583929Y-12104786D01*
X11583929Y-12104786D02*
X11593453Y-12085738D01*
X11593453Y-12085738D02*
X11602977Y-12076214D01*
X11602977Y-12076214D02*
X11622024Y-12066690D01*
X11622024Y-12066690D02*
X11650596Y-12066690D01*
X11650596Y-12066690D02*
X11669643Y-12076214D01*
X11669643Y-12076214D02*
X11679167Y-12085738D01*
X11679167Y-12085738D02*
X11688691Y-12104786D01*
X11688691Y-12104786D02*
X11688691Y-12161928D01*
X11688691Y-12161928D02*
X11679167Y-12180976D01*
X11679167Y-12180976D02*
X11669643Y-12190500D01*
X11669643Y-12190500D02*
X11650596Y-12200024D01*
X11650596Y-12200024D02*
X11622024Y-12200024D01*
X11745834Y-12066690D02*
X11822024Y-12066690D01*
X11774405Y-12000024D02*
X11774405Y-12171452D01*
X11774405Y-12171452D02*
X11783929Y-12190500D01*
X11783929Y-12190500D02*
X11802977Y-12200024D01*
X11802977Y-12200024D02*
X11822024Y-12200024D01*
X12041072Y-12066690D02*
X12041072Y-12266690D01*
X12041072Y-12076214D02*
X12060119Y-12066690D01*
X12060119Y-12066690D02*
X12098215Y-12066690D01*
X12098215Y-12066690D02*
X12117262Y-12076214D01*
X12117262Y-12076214D02*
X12126786Y-12085738D01*
X12126786Y-12085738D02*
X12136310Y-12104786D01*
X12136310Y-12104786D02*
X12136310Y-12161928D01*
X12136310Y-12161928D02*
X12126786Y-12180976D01*
X12126786Y-12180976D02*
X12117262Y-12190500D01*
X12117262Y-12190500D02*
X12098215Y-12200024D01*
X12098215Y-12200024D02*
X12060119Y-12200024D01*
X12060119Y-12200024D02*
X12041072Y-12190500D01*
X12250596Y-12200024D02*
X12231548Y-12190500D01*
X12231548Y-12190500D02*
X12222024Y-12171452D01*
X12222024Y-12171452D02*
X12222024Y-12000024D01*
X12412500Y-12200024D02*
X12412500Y-12095262D01*
X12412500Y-12095262D02*
X12402977Y-12076214D01*
X12402977Y-12076214D02*
X12383929Y-12066690D01*
X12383929Y-12066690D02*
X12345834Y-12066690D01*
X12345834Y-12066690D02*
X12326786Y-12076214D01*
X12412500Y-12190500D02*
X12393453Y-12200024D01*
X12393453Y-12200024D02*
X12345834Y-12200024D01*
X12345834Y-12200024D02*
X12326786Y-12190500D01*
X12326786Y-12190500D02*
X12317262Y-12171452D01*
X12317262Y-12171452D02*
X12317262Y-12152405D01*
X12317262Y-12152405D02*
X12326786Y-12133357D01*
X12326786Y-12133357D02*
X12345834Y-12123833D01*
X12345834Y-12123833D02*
X12393453Y-12123833D01*
X12393453Y-12123833D02*
X12412500Y-12114309D01*
X12479167Y-12066690D02*
X12555358Y-12066690D01*
X12507739Y-12000024D02*
X12507739Y-12171452D01*
X12507739Y-12171452D02*
X12517262Y-12190500D01*
X12517262Y-12190500D02*
X12536310Y-12200024D01*
X12536310Y-12200024D02*
X12555358Y-12200024D01*
X12698215Y-12190500D02*
X12679167Y-12200024D01*
X12679167Y-12200024D02*
X12641072Y-12200024D01*
X12641072Y-12200024D02*
X12622024Y-12190500D01*
X12622024Y-12190500D02*
X12612500Y-12171452D01*
X12612500Y-12171452D02*
X12612500Y-12095262D01*
X12612500Y-12095262D02*
X12622024Y-12076214D01*
X12622024Y-12076214D02*
X12641072Y-12066690D01*
X12641072Y-12066690D02*
X12679167Y-12066690D01*
X12679167Y-12066690D02*
X12698215Y-12076214D01*
X12698215Y-12076214D02*
X12707739Y-12095262D01*
X12707739Y-12095262D02*
X12707739Y-12114309D01*
X12707739Y-12114309D02*
X12612500Y-12133357D01*
X12879167Y-12200024D02*
X12879167Y-12000024D01*
X12879167Y-12190500D02*
X12860120Y-12200024D01*
X12860120Y-12200024D02*
X12822024Y-12200024D01*
X12822024Y-12200024D02*
X12802977Y-12190500D01*
X12802977Y-12190500D02*
X12793453Y-12180976D01*
X12793453Y-12180976D02*
X12783929Y-12161928D01*
X12783929Y-12161928D02*
X12783929Y-12104786D01*
X12783929Y-12104786D02*
X12793453Y-12085738D01*
X12793453Y-12085738D02*
X12802977Y-12076214D01*
X12802977Y-12076214D02*
X12822024Y-12066690D01*
X12822024Y-12066690D02*
X12860120Y-12066690D01*
X12860120Y-12066690D02*
X12879167Y-12076214D01*
X12955358Y-12276214D02*
X12964881Y-12266690D01*
X12964881Y-12266690D02*
X12983929Y-12238119D01*
X12983929Y-12238119D02*
X12993453Y-12219071D01*
X12993453Y-12219071D02*
X13002977Y-12190500D01*
X13002977Y-12190500D02*
X13012500Y-12142881D01*
X13012500Y-12142881D02*
X13012500Y-12104786D01*
X13012500Y-12104786D02*
X13002977Y-12057167D01*
X13002977Y-12057167D02*
X12993453Y-12028595D01*
X12993453Y-12028595D02*
X12983929Y-12009548D01*
X12983929Y-12009548D02*
X12964881Y-11980976D01*
X12964881Y-11980976D02*
X12955358Y-11971452D01*
X6212500Y-12371500D02*
G75*
G03*
X6212500Y-12371500I-100000J0D01*
G01*
X6450595Y-12283071D02*
X6460119Y-12273548D01*
X6460119Y-12273548D02*
X6479167Y-12264024D01*
X6479167Y-12264024D02*
X6526786Y-12264024D01*
X6526786Y-12264024D02*
X6545833Y-12273548D01*
X6545833Y-12273548D02*
X6555357Y-12283071D01*
X6555357Y-12283071D02*
X6564881Y-12302119D01*
X6564881Y-12302119D02*
X6564881Y-12321167D01*
X6564881Y-12321167D02*
X6555357Y-12349738D01*
X6555357Y-12349738D02*
X6441071Y-12464024D01*
X6441071Y-12464024D02*
X6564881Y-12464024D01*
X6650595Y-12444976D02*
X6660119Y-12454500D01*
X6660119Y-12454500D02*
X6650595Y-12464024D01*
X6650595Y-12464024D02*
X6641071Y-12454500D01*
X6641071Y-12454500D02*
X6650595Y-12444976D01*
X6650595Y-12444976D02*
X6650595Y-12464024D01*
X6783928Y-12264024D02*
X6802976Y-12264024D01*
X6802976Y-12264024D02*
X6822024Y-12273548D01*
X6822024Y-12273548D02*
X6831548Y-12283071D01*
X6831548Y-12283071D02*
X6841071Y-12302119D01*
X6841071Y-12302119D02*
X6850595Y-12340214D01*
X6850595Y-12340214D02*
X6850595Y-12387833D01*
X6850595Y-12387833D02*
X6841071Y-12425928D01*
X6841071Y-12425928D02*
X6831548Y-12444976D01*
X6831548Y-12444976D02*
X6822024Y-12454500D01*
X6822024Y-12454500D02*
X6802976Y-12464024D01*
X6802976Y-12464024D02*
X6783928Y-12464024D01*
X6783928Y-12464024D02*
X6764881Y-12454500D01*
X6764881Y-12454500D02*
X6755357Y-12444976D01*
X6755357Y-12444976D02*
X6745833Y-12425928D01*
X6745833Y-12425928D02*
X6736309Y-12387833D01*
X6736309Y-12387833D02*
X6736309Y-12340214D01*
X6736309Y-12340214D02*
X6745833Y-12302119D01*
X6745833Y-12302119D02*
X6755357Y-12283071D01*
X6755357Y-12283071D02*
X6764881Y-12273548D01*
X6764881Y-12273548D02*
X6783928Y-12264024D01*
X7031548Y-12264024D02*
X6936309Y-12264024D01*
X6936309Y-12264024D02*
X6926786Y-12359262D01*
X6926786Y-12359262D02*
X6936309Y-12349738D01*
X6936309Y-12349738D02*
X6955357Y-12340214D01*
X6955357Y-12340214D02*
X7002976Y-12340214D01*
X7002976Y-12340214D02*
X7022024Y-12349738D01*
X7022024Y-12349738D02*
X7031548Y-12359262D01*
X7031548Y-12359262D02*
X7041071Y-12378309D01*
X7041071Y-12378309D02*
X7041071Y-12425928D01*
X7041071Y-12425928D02*
X7031548Y-12444976D01*
X7031548Y-12444976D02*
X7022024Y-12454500D01*
X7022024Y-12454500D02*
X7002976Y-12464024D01*
X7002976Y-12464024D02*
X6955357Y-12464024D01*
X6955357Y-12464024D02*
X6936309Y-12454500D01*
X6936309Y-12454500D02*
X6926786Y-12444976D01*
X7164881Y-12264024D02*
X7183929Y-12264024D01*
X7183929Y-12264024D02*
X7202976Y-12273548D01*
X7202976Y-12273548D02*
X7212500Y-12283071D01*
X7212500Y-12283071D02*
X7222024Y-12302119D01*
X7222024Y-12302119D02*
X7231548Y-12340214D01*
X7231548Y-12340214D02*
X7231548Y-12387833D01*
X7231548Y-12387833D02*
X7222024Y-12425928D01*
X7222024Y-12425928D02*
X7212500Y-12444976D01*
X7212500Y-12444976D02*
X7202976Y-12454500D01*
X7202976Y-12454500D02*
X7183929Y-12464024D01*
X7183929Y-12464024D02*
X7164881Y-12464024D01*
X7164881Y-12464024D02*
X7145833Y-12454500D01*
X7145833Y-12454500D02*
X7136309Y-12444976D01*
X7136309Y-12444976D02*
X7126786Y-12425928D01*
X7126786Y-12425928D02*
X7117262Y-12387833D01*
X7117262Y-12387833D02*
X7117262Y-12340214D01*
X7117262Y-12340214D02*
X7126786Y-12302119D01*
X7126786Y-12302119D02*
X7136309Y-12283071D01*
X7136309Y-12283071D02*
X7145833Y-12273548D01*
X7145833Y-12273548D02*
X7164881Y-12264024D01*
X7317262Y-12464024D02*
X7317262Y-12330690D01*
X7317262Y-12349738D02*
X7326786Y-12340214D01*
X7326786Y-12340214D02*
X7345833Y-12330690D01*
X7345833Y-12330690D02*
X7374405Y-12330690D01*
X7374405Y-12330690D02*
X7393452Y-12340214D01*
X7393452Y-12340214D02*
X7402976Y-12359262D01*
X7402976Y-12359262D02*
X7402976Y-12464024D01*
X7402976Y-12359262D02*
X7412500Y-12340214D01*
X7412500Y-12340214D02*
X7431548Y-12330690D01*
X7431548Y-12330690D02*
X7460119Y-12330690D01*
X7460119Y-12330690D02*
X7479167Y-12340214D01*
X7479167Y-12340214D02*
X7488690Y-12359262D01*
X7488690Y-12359262D02*
X7488690Y-12464024D01*
X7583929Y-12464024D02*
X7583929Y-12330690D01*
X7583929Y-12349738D02*
X7593452Y-12340214D01*
X7593452Y-12340214D02*
X7612500Y-12330690D01*
X7612500Y-12330690D02*
X7641071Y-12330690D01*
X7641071Y-12330690D02*
X7660119Y-12340214D01*
X7660119Y-12340214D02*
X7669643Y-12359262D01*
X7669643Y-12359262D02*
X7669643Y-12464024D01*
X7669643Y-12359262D02*
X7679167Y-12340214D01*
X7679167Y-12340214D02*
X7698214Y-12330690D01*
X7698214Y-12330690D02*
X7726786Y-12330690D01*
X7726786Y-12330690D02*
X7745833Y-12340214D01*
X7745833Y-12340214D02*
X7755357Y-12359262D01*
X7755357Y-12359262D02*
X7755357Y-12464024D01*
X8145833Y-12254500D02*
X7974405Y-12511643D01*
X8402976Y-12264024D02*
X8422024Y-12264024D01*
X8422024Y-12264024D02*
X8441072Y-12273548D01*
X8441072Y-12273548D02*
X8450595Y-12283071D01*
X8450595Y-12283071D02*
X8460119Y-12302119D01*
X8460119Y-12302119D02*
X8469643Y-12340214D01*
X8469643Y-12340214D02*
X8469643Y-12387833D01*
X8469643Y-12387833D02*
X8460119Y-12425928D01*
X8460119Y-12425928D02*
X8450595Y-12444976D01*
X8450595Y-12444976D02*
X8441072Y-12454500D01*
X8441072Y-12454500D02*
X8422024Y-12464024D01*
X8422024Y-12464024D02*
X8402976Y-12464024D01*
X8402976Y-12464024D02*
X8383929Y-12454500D01*
X8383929Y-12454500D02*
X8374405Y-12444976D01*
X8374405Y-12444976D02*
X8364881Y-12425928D01*
X8364881Y-12425928D02*
X8355357Y-12387833D01*
X8355357Y-12387833D02*
X8355357Y-12340214D01*
X8355357Y-12340214D02*
X8364881Y-12302119D01*
X8364881Y-12302119D02*
X8374405Y-12283071D01*
X8374405Y-12283071D02*
X8383929Y-12273548D01*
X8383929Y-12273548D02*
X8402976Y-12264024D01*
X8555357Y-12444976D02*
X8564881Y-12454500D01*
X8564881Y-12454500D02*
X8555357Y-12464024D01*
X8555357Y-12464024D02*
X8545834Y-12454500D01*
X8545834Y-12454500D02*
X8555357Y-12444976D01*
X8555357Y-12444976D02*
X8555357Y-12464024D01*
X8688691Y-12264024D02*
X8707738Y-12264024D01*
X8707738Y-12264024D02*
X8726786Y-12273548D01*
X8726786Y-12273548D02*
X8736310Y-12283071D01*
X8736310Y-12283071D02*
X8745834Y-12302119D01*
X8745834Y-12302119D02*
X8755357Y-12340214D01*
X8755357Y-12340214D02*
X8755357Y-12387833D01*
X8755357Y-12387833D02*
X8745834Y-12425928D01*
X8745834Y-12425928D02*
X8736310Y-12444976D01*
X8736310Y-12444976D02*
X8726786Y-12454500D01*
X8726786Y-12454500D02*
X8707738Y-12464024D01*
X8707738Y-12464024D02*
X8688691Y-12464024D01*
X8688691Y-12464024D02*
X8669643Y-12454500D01*
X8669643Y-12454500D02*
X8660119Y-12444976D01*
X8660119Y-12444976D02*
X8650595Y-12425928D01*
X8650595Y-12425928D02*
X8641072Y-12387833D01*
X8641072Y-12387833D02*
X8641072Y-12340214D01*
X8641072Y-12340214D02*
X8650595Y-12302119D01*
X8650595Y-12302119D02*
X8660119Y-12283071D01*
X8660119Y-12283071D02*
X8669643Y-12273548D01*
X8669643Y-12273548D02*
X8688691Y-12264024D01*
X8869643Y-12349738D02*
X8850595Y-12340214D01*
X8850595Y-12340214D02*
X8841072Y-12330690D01*
X8841072Y-12330690D02*
X8831548Y-12311643D01*
X8831548Y-12311643D02*
X8831548Y-12302119D01*
X8831548Y-12302119D02*
X8841072Y-12283071D01*
X8841072Y-12283071D02*
X8850595Y-12273548D01*
X8850595Y-12273548D02*
X8869643Y-12264024D01*
X8869643Y-12264024D02*
X8907738Y-12264024D01*
X8907738Y-12264024D02*
X8926786Y-12273548D01*
X8926786Y-12273548D02*
X8936310Y-12283071D01*
X8936310Y-12283071D02*
X8945834Y-12302119D01*
X8945834Y-12302119D02*
X8945834Y-12311643D01*
X8945834Y-12311643D02*
X8936310Y-12330690D01*
X8936310Y-12330690D02*
X8926786Y-12340214D01*
X8926786Y-12340214D02*
X8907738Y-12349738D01*
X8907738Y-12349738D02*
X8869643Y-12349738D01*
X8869643Y-12349738D02*
X8850595Y-12359262D01*
X8850595Y-12359262D02*
X8841072Y-12368786D01*
X8841072Y-12368786D02*
X8831548Y-12387833D01*
X8831548Y-12387833D02*
X8831548Y-12425928D01*
X8831548Y-12425928D02*
X8841072Y-12444976D01*
X8841072Y-12444976D02*
X8850595Y-12454500D01*
X8850595Y-12454500D02*
X8869643Y-12464024D01*
X8869643Y-12464024D02*
X8907738Y-12464024D01*
X8907738Y-12464024D02*
X8926786Y-12454500D01*
X8926786Y-12454500D02*
X8936310Y-12444976D01*
X8936310Y-12444976D02*
X8945834Y-12425928D01*
X8945834Y-12425928D02*
X8945834Y-12387833D01*
X8945834Y-12387833D02*
X8936310Y-12368786D01*
X8936310Y-12368786D02*
X8926786Y-12359262D01*
X8926786Y-12359262D02*
X8907738Y-12349738D01*
X9069643Y-12264024D02*
X9088691Y-12264024D01*
X9088691Y-12264024D02*
X9107738Y-12273548D01*
X9107738Y-12273548D02*
X9117262Y-12283071D01*
X9117262Y-12283071D02*
X9126786Y-12302119D01*
X9126786Y-12302119D02*
X9136310Y-12340214D01*
X9136310Y-12340214D02*
X9136310Y-12387833D01*
X9136310Y-12387833D02*
X9126786Y-12425928D01*
X9126786Y-12425928D02*
X9117262Y-12444976D01*
X9117262Y-12444976D02*
X9107738Y-12454500D01*
X9107738Y-12454500D02*
X9088691Y-12464024D01*
X9088691Y-12464024D02*
X9069643Y-12464024D01*
X9069643Y-12464024D02*
X9050595Y-12454500D01*
X9050595Y-12454500D02*
X9041072Y-12444976D01*
X9041072Y-12444976D02*
X9031548Y-12425928D01*
X9031548Y-12425928D02*
X9022024Y-12387833D01*
X9022024Y-12387833D02*
X9022024Y-12340214D01*
X9022024Y-12340214D02*
X9031548Y-12302119D01*
X9031548Y-12302119D02*
X9041072Y-12283071D01*
X9041072Y-12283071D02*
X9050595Y-12273548D01*
X9050595Y-12273548D02*
X9069643Y-12264024D01*
X9202976Y-12264024D02*
X9336310Y-12264024D01*
X9336310Y-12264024D02*
X9250595Y-12464024D01*
X9402976Y-12264024D02*
X9402976Y-12302119D01*
X9479167Y-12264024D02*
X9479167Y-12302119D01*
X9774405Y-12540214D02*
X9764881Y-12530690D01*
X9764881Y-12530690D02*
X9745834Y-12502119D01*
X9745834Y-12502119D02*
X9736310Y-12483071D01*
X9736310Y-12483071D02*
X9726786Y-12454500D01*
X9726786Y-12454500D02*
X9717262Y-12406881D01*
X9717262Y-12406881D02*
X9717262Y-12368786D01*
X9717262Y-12368786D02*
X9726786Y-12321167D01*
X9726786Y-12321167D02*
X9736310Y-12292595D01*
X9736310Y-12292595D02*
X9745834Y-12273548D01*
X9745834Y-12273548D02*
X9764881Y-12244976D01*
X9764881Y-12244976D02*
X9774405Y-12235452D01*
X9936310Y-12330690D02*
X9936310Y-12464024D01*
X9888691Y-12254500D02*
X9841072Y-12397357D01*
X9841072Y-12397357D02*
X9964881Y-12397357D01*
X10193453Y-12464024D02*
X10193453Y-12264024D01*
X10279167Y-12464024D02*
X10279167Y-12359262D01*
X10279167Y-12359262D02*
X10269643Y-12340214D01*
X10269643Y-12340214D02*
X10250596Y-12330690D01*
X10250596Y-12330690D02*
X10222024Y-12330690D01*
X10222024Y-12330690D02*
X10202977Y-12340214D01*
X10202977Y-12340214D02*
X10193453Y-12349738D01*
X10402977Y-12464024D02*
X10383929Y-12454500D01*
X10383929Y-12454500D02*
X10374405Y-12444976D01*
X10374405Y-12444976D02*
X10364881Y-12425928D01*
X10364881Y-12425928D02*
X10364881Y-12368786D01*
X10364881Y-12368786D02*
X10374405Y-12349738D01*
X10374405Y-12349738D02*
X10383929Y-12340214D01*
X10383929Y-12340214D02*
X10402977Y-12330690D01*
X10402977Y-12330690D02*
X10431548Y-12330690D01*
X10431548Y-12330690D02*
X10450596Y-12340214D01*
X10450596Y-12340214D02*
X10460119Y-12349738D01*
X10460119Y-12349738D02*
X10469643Y-12368786D01*
X10469643Y-12368786D02*
X10469643Y-12425928D01*
X10469643Y-12425928D02*
X10460119Y-12444976D01*
X10460119Y-12444976D02*
X10450596Y-12454500D01*
X10450596Y-12454500D02*
X10431548Y-12464024D01*
X10431548Y-12464024D02*
X10402977Y-12464024D01*
X10583929Y-12464024D02*
X10564881Y-12454500D01*
X10564881Y-12454500D02*
X10555358Y-12435452D01*
X10555358Y-12435452D02*
X10555358Y-12264024D01*
X10736310Y-12454500D02*
X10717262Y-12464024D01*
X10717262Y-12464024D02*
X10679167Y-12464024D01*
X10679167Y-12464024D02*
X10660119Y-12454500D01*
X10660119Y-12454500D02*
X10650596Y-12435452D01*
X10650596Y-12435452D02*
X10650596Y-12359262D01*
X10650596Y-12359262D02*
X10660119Y-12340214D01*
X10660119Y-12340214D02*
X10679167Y-12330690D01*
X10679167Y-12330690D02*
X10717262Y-12330690D01*
X10717262Y-12330690D02*
X10736310Y-12340214D01*
X10736310Y-12340214D02*
X10745834Y-12359262D01*
X10745834Y-12359262D02*
X10745834Y-12378309D01*
X10745834Y-12378309D02*
X10650596Y-12397357D01*
X10822024Y-12454500D02*
X10841072Y-12464024D01*
X10841072Y-12464024D02*
X10879167Y-12464024D01*
X10879167Y-12464024D02*
X10898215Y-12454500D01*
X10898215Y-12454500D02*
X10907739Y-12435452D01*
X10907739Y-12435452D02*
X10907739Y-12425928D01*
X10907739Y-12425928D02*
X10898215Y-12406881D01*
X10898215Y-12406881D02*
X10879167Y-12397357D01*
X10879167Y-12397357D02*
X10850596Y-12397357D01*
X10850596Y-12397357D02*
X10831548Y-12387833D01*
X10831548Y-12387833D02*
X10822024Y-12368786D01*
X10822024Y-12368786D02*
X10822024Y-12359262D01*
X10822024Y-12359262D02*
X10831548Y-12340214D01*
X10831548Y-12340214D02*
X10850596Y-12330690D01*
X10850596Y-12330690D02*
X10879167Y-12330690D01*
X10879167Y-12330690D02*
X10898215Y-12340214D01*
X10974405Y-12540214D02*
X10983929Y-12530690D01*
X10983929Y-12530690D02*
X11002977Y-12502119D01*
X11002977Y-12502119D02*
X11012500Y-12483071D01*
X11012500Y-12483071D02*
X11022024Y-12454500D01*
X11022024Y-12454500D02*
X11031548Y-12406881D01*
X11031548Y-12406881D02*
X11031548Y-12368786D01*
X11031548Y-12368786D02*
X11022024Y-12321167D01*
X11022024Y-12321167D02*
X11012500Y-12292595D01*
X11012500Y-12292595D02*
X11002977Y-12273548D01*
X11002977Y-12273548D02*
X10983929Y-12244976D01*
X10983929Y-12244976D02*
X10974405Y-12235452D01*
X11336310Y-12540214D02*
X11326786Y-12530690D01*
X11326786Y-12530690D02*
X11307738Y-12502119D01*
X11307738Y-12502119D02*
X11298215Y-12483071D01*
X11298215Y-12483071D02*
X11288691Y-12454500D01*
X11288691Y-12454500D02*
X11279167Y-12406881D01*
X11279167Y-12406881D02*
X11279167Y-12368786D01*
X11279167Y-12368786D02*
X11288691Y-12321167D01*
X11288691Y-12321167D02*
X11298215Y-12292595D01*
X11298215Y-12292595D02*
X11307738Y-12273548D01*
X11307738Y-12273548D02*
X11326786Y-12244976D01*
X11326786Y-12244976D02*
X11336310Y-12235452D01*
X11412500Y-12330690D02*
X11412500Y-12464024D01*
X11412500Y-12349738D02*
X11422024Y-12340214D01*
X11422024Y-12340214D02*
X11441072Y-12330690D01*
X11441072Y-12330690D02*
X11469643Y-12330690D01*
X11469643Y-12330690D02*
X11488691Y-12340214D01*
X11488691Y-12340214D02*
X11498215Y-12359262D01*
X11498215Y-12359262D02*
X11498215Y-12464024D01*
X11622024Y-12464024D02*
X11602977Y-12454500D01*
X11602977Y-12454500D02*
X11593453Y-12444976D01*
X11593453Y-12444976D02*
X11583929Y-12425928D01*
X11583929Y-12425928D02*
X11583929Y-12368786D01*
X11583929Y-12368786D02*
X11593453Y-12349738D01*
X11593453Y-12349738D02*
X11602977Y-12340214D01*
X11602977Y-12340214D02*
X11622024Y-12330690D01*
X11622024Y-12330690D02*
X11650596Y-12330690D01*
X11650596Y-12330690D02*
X11669643Y-12340214D01*
X11669643Y-12340214D02*
X11679167Y-12349738D01*
X11679167Y-12349738D02*
X11688691Y-12368786D01*
X11688691Y-12368786D02*
X11688691Y-12425928D01*
X11688691Y-12425928D02*
X11679167Y-12444976D01*
X11679167Y-12444976D02*
X11669643Y-12454500D01*
X11669643Y-12454500D02*
X11650596Y-12464024D01*
X11650596Y-12464024D02*
X11622024Y-12464024D01*
X11745834Y-12330690D02*
X11822024Y-12330690D01*
X11774405Y-12264024D02*
X11774405Y-12435452D01*
X11774405Y-12435452D02*
X11783929Y-12454500D01*
X11783929Y-12454500D02*
X11802977Y-12464024D01*
X11802977Y-12464024D02*
X11822024Y-12464024D01*
X12041072Y-12330690D02*
X12041072Y-12530690D01*
X12041072Y-12340214D02*
X12060119Y-12330690D01*
X12060119Y-12330690D02*
X12098215Y-12330690D01*
X12098215Y-12330690D02*
X12117262Y-12340214D01*
X12117262Y-12340214D02*
X12126786Y-12349738D01*
X12126786Y-12349738D02*
X12136310Y-12368786D01*
X12136310Y-12368786D02*
X12136310Y-12425928D01*
X12136310Y-12425928D02*
X12126786Y-12444976D01*
X12126786Y-12444976D02*
X12117262Y-12454500D01*
X12117262Y-12454500D02*
X12098215Y-12464024D01*
X12098215Y-12464024D02*
X12060119Y-12464024D01*
X12060119Y-12464024D02*
X12041072Y-12454500D01*
X12250596Y-12464024D02*
X12231548Y-12454500D01*
X12231548Y-12454500D02*
X12222024Y-12435452D01*
X12222024Y-12435452D02*
X12222024Y-12264024D01*
X12412500Y-12464024D02*
X12412500Y-12359262D01*
X12412500Y-12359262D02*
X12402977Y-12340214D01*
X12402977Y-12340214D02*
X12383929Y-12330690D01*
X12383929Y-12330690D02*
X12345834Y-12330690D01*
X12345834Y-12330690D02*
X12326786Y-12340214D01*
X12412500Y-12454500D02*
X12393453Y-12464024D01*
X12393453Y-12464024D02*
X12345834Y-12464024D01*
X12345834Y-12464024D02*
X12326786Y-12454500D01*
X12326786Y-12454500D02*
X12317262Y-12435452D01*
X12317262Y-12435452D02*
X12317262Y-12416405D01*
X12317262Y-12416405D02*
X12326786Y-12397357D01*
X12326786Y-12397357D02*
X12345834Y-12387833D01*
X12345834Y-12387833D02*
X12393453Y-12387833D01*
X12393453Y-12387833D02*
X12412500Y-12378309D01*
X12479167Y-12330690D02*
X12555358Y-12330690D01*
X12507739Y-12264024D02*
X12507739Y-12435452D01*
X12507739Y-12435452D02*
X12517262Y-12454500D01*
X12517262Y-12454500D02*
X12536310Y-12464024D01*
X12536310Y-12464024D02*
X12555358Y-12464024D01*
X12698215Y-12454500D02*
X12679167Y-12464024D01*
X12679167Y-12464024D02*
X12641072Y-12464024D01*
X12641072Y-12464024D02*
X12622024Y-12454500D01*
X12622024Y-12454500D02*
X12612500Y-12435452D01*
X12612500Y-12435452D02*
X12612500Y-12359262D01*
X12612500Y-12359262D02*
X12622024Y-12340214D01*
X12622024Y-12340214D02*
X12641072Y-12330690D01*
X12641072Y-12330690D02*
X12679167Y-12330690D01*
X12679167Y-12330690D02*
X12698215Y-12340214D01*
X12698215Y-12340214D02*
X12707739Y-12359262D01*
X12707739Y-12359262D02*
X12707739Y-12378309D01*
X12707739Y-12378309D02*
X12612500Y-12397357D01*
X12879167Y-12464024D02*
X12879167Y-12264024D01*
X12879167Y-12454500D02*
X12860120Y-12464024D01*
X12860120Y-12464024D02*
X12822024Y-12464024D01*
X12822024Y-12464024D02*
X12802977Y-12454500D01*
X12802977Y-12454500D02*
X12793453Y-12444976D01*
X12793453Y-12444976D02*
X12783929Y-12425928D01*
X12783929Y-12425928D02*
X12783929Y-12368786D01*
X12783929Y-12368786D02*
X12793453Y-12349738D01*
X12793453Y-12349738D02*
X12802977Y-12340214D01*
X12802977Y-12340214D02*
X12822024Y-12330690D01*
X12822024Y-12330690D02*
X12860120Y-12330690D01*
X12860120Y-12330690D02*
X12879167Y-12340214D01*
X12955358Y-12540214D02*
X12964881Y-12530690D01*
X12964881Y-12530690D02*
X12983929Y-12502119D01*
X12983929Y-12502119D02*
X12993453Y-12483071D01*
X12993453Y-12483071D02*
X13002977Y-12454500D01*
X13002977Y-12454500D02*
X13012500Y-12406881D01*
X13012500Y-12406881D02*
X13012500Y-12368786D01*
X13012500Y-12368786D02*
X13002977Y-12321167D01*
X13002977Y-12321167D02*
X12993453Y-12292595D01*
X12993453Y-12292595D02*
X12983929Y-12273548D01*
X12983929Y-12273548D02*
X12964881Y-12244976D01*
X12964881Y-12244976D02*
X12955358Y-12235452D01*
X6112500Y-12591500D02*
X6112500Y-12791500D01*
X6012500Y-12691500D02*
X6212500Y-12691500D01*
X6450595Y-12603071D02*
X6460119Y-12593548D01*
X6460119Y-12593548D02*
X6479167Y-12584024D01*
X6479167Y-12584024D02*
X6526786Y-12584024D01*
X6526786Y-12584024D02*
X6545833Y-12593548D01*
X6545833Y-12593548D02*
X6555357Y-12603071D01*
X6555357Y-12603071D02*
X6564881Y-12622119D01*
X6564881Y-12622119D02*
X6564881Y-12641167D01*
X6564881Y-12641167D02*
X6555357Y-12669738D01*
X6555357Y-12669738D02*
X6441071Y-12784024D01*
X6441071Y-12784024D02*
X6564881Y-12784024D01*
X6650595Y-12764976D02*
X6660119Y-12774500D01*
X6660119Y-12774500D02*
X6650595Y-12784024D01*
X6650595Y-12784024D02*
X6641071Y-12774500D01*
X6641071Y-12774500D02*
X6650595Y-12764976D01*
X6650595Y-12764976D02*
X6650595Y-12784024D01*
X6774405Y-12669738D02*
X6755357Y-12660214D01*
X6755357Y-12660214D02*
X6745833Y-12650690D01*
X6745833Y-12650690D02*
X6736309Y-12631643D01*
X6736309Y-12631643D02*
X6736309Y-12622119D01*
X6736309Y-12622119D02*
X6745833Y-12603071D01*
X6745833Y-12603071D02*
X6755357Y-12593548D01*
X6755357Y-12593548D02*
X6774405Y-12584024D01*
X6774405Y-12584024D02*
X6812500Y-12584024D01*
X6812500Y-12584024D02*
X6831548Y-12593548D01*
X6831548Y-12593548D02*
X6841071Y-12603071D01*
X6841071Y-12603071D02*
X6850595Y-12622119D01*
X6850595Y-12622119D02*
X6850595Y-12631643D01*
X6850595Y-12631643D02*
X6841071Y-12650690D01*
X6841071Y-12650690D02*
X6831548Y-12660214D01*
X6831548Y-12660214D02*
X6812500Y-12669738D01*
X6812500Y-12669738D02*
X6774405Y-12669738D01*
X6774405Y-12669738D02*
X6755357Y-12679262D01*
X6755357Y-12679262D02*
X6745833Y-12688786D01*
X6745833Y-12688786D02*
X6736309Y-12707833D01*
X6736309Y-12707833D02*
X6736309Y-12745928D01*
X6736309Y-12745928D02*
X6745833Y-12764976D01*
X6745833Y-12764976D02*
X6755357Y-12774500D01*
X6755357Y-12774500D02*
X6774405Y-12784024D01*
X6774405Y-12784024D02*
X6812500Y-12784024D01*
X6812500Y-12784024D02*
X6831548Y-12774500D01*
X6831548Y-12774500D02*
X6841071Y-12764976D01*
X6841071Y-12764976D02*
X6850595Y-12745928D01*
X6850595Y-12745928D02*
X6850595Y-12707833D01*
X6850595Y-12707833D02*
X6841071Y-12688786D01*
X6841071Y-12688786D02*
X6831548Y-12679262D01*
X6831548Y-12679262D02*
X6812500Y-12669738D01*
X6974405Y-12584024D02*
X6993452Y-12584024D01*
X6993452Y-12584024D02*
X7012500Y-12593548D01*
X7012500Y-12593548D02*
X7022024Y-12603071D01*
X7022024Y-12603071D02*
X7031548Y-12622119D01*
X7031548Y-12622119D02*
X7041071Y-12660214D01*
X7041071Y-12660214D02*
X7041071Y-12707833D01*
X7041071Y-12707833D02*
X7031548Y-12745928D01*
X7031548Y-12745928D02*
X7022024Y-12764976D01*
X7022024Y-12764976D02*
X7012500Y-12774500D01*
X7012500Y-12774500D02*
X6993452Y-12784024D01*
X6993452Y-12784024D02*
X6974405Y-12784024D01*
X6974405Y-12784024D02*
X6955357Y-12774500D01*
X6955357Y-12774500D02*
X6945833Y-12764976D01*
X6945833Y-12764976D02*
X6936309Y-12745928D01*
X6936309Y-12745928D02*
X6926786Y-12707833D01*
X6926786Y-12707833D02*
X6926786Y-12660214D01*
X6926786Y-12660214D02*
X6936309Y-12622119D01*
X6936309Y-12622119D02*
X6945833Y-12603071D01*
X6945833Y-12603071D02*
X6955357Y-12593548D01*
X6955357Y-12593548D02*
X6974405Y-12584024D01*
X7164881Y-12584024D02*
X7183929Y-12584024D01*
X7183929Y-12584024D02*
X7202976Y-12593548D01*
X7202976Y-12593548D02*
X7212500Y-12603071D01*
X7212500Y-12603071D02*
X7222024Y-12622119D01*
X7222024Y-12622119D02*
X7231548Y-12660214D01*
X7231548Y-12660214D02*
X7231548Y-12707833D01*
X7231548Y-12707833D02*
X7222024Y-12745928D01*
X7222024Y-12745928D02*
X7212500Y-12764976D01*
X7212500Y-12764976D02*
X7202976Y-12774500D01*
X7202976Y-12774500D02*
X7183929Y-12784024D01*
X7183929Y-12784024D02*
X7164881Y-12784024D01*
X7164881Y-12784024D02*
X7145833Y-12774500D01*
X7145833Y-12774500D02*
X7136309Y-12764976D01*
X7136309Y-12764976D02*
X7126786Y-12745928D01*
X7126786Y-12745928D02*
X7117262Y-12707833D01*
X7117262Y-12707833D02*
X7117262Y-12660214D01*
X7117262Y-12660214D02*
X7126786Y-12622119D01*
X7126786Y-12622119D02*
X7136309Y-12603071D01*
X7136309Y-12603071D02*
X7145833Y-12593548D01*
X7145833Y-12593548D02*
X7164881Y-12584024D01*
X7317262Y-12784024D02*
X7317262Y-12650690D01*
X7317262Y-12669738D02*
X7326786Y-12660214D01*
X7326786Y-12660214D02*
X7345833Y-12650690D01*
X7345833Y-12650690D02*
X7374405Y-12650690D01*
X7374405Y-12650690D02*
X7393452Y-12660214D01*
X7393452Y-12660214D02*
X7402976Y-12679262D01*
X7402976Y-12679262D02*
X7402976Y-12784024D01*
X7402976Y-12679262D02*
X7412500Y-12660214D01*
X7412500Y-12660214D02*
X7431548Y-12650690D01*
X7431548Y-12650690D02*
X7460119Y-12650690D01*
X7460119Y-12650690D02*
X7479167Y-12660214D01*
X7479167Y-12660214D02*
X7488690Y-12679262D01*
X7488690Y-12679262D02*
X7488690Y-12784024D01*
X7583929Y-12784024D02*
X7583929Y-12650690D01*
X7583929Y-12669738D02*
X7593452Y-12660214D01*
X7593452Y-12660214D02*
X7612500Y-12650690D01*
X7612500Y-12650690D02*
X7641071Y-12650690D01*
X7641071Y-12650690D02*
X7660119Y-12660214D01*
X7660119Y-12660214D02*
X7669643Y-12679262D01*
X7669643Y-12679262D02*
X7669643Y-12784024D01*
X7669643Y-12679262D02*
X7679167Y-12660214D01*
X7679167Y-12660214D02*
X7698214Y-12650690D01*
X7698214Y-12650690D02*
X7726786Y-12650690D01*
X7726786Y-12650690D02*
X7745833Y-12660214D01*
X7745833Y-12660214D02*
X7755357Y-12679262D01*
X7755357Y-12679262D02*
X7755357Y-12784024D01*
X8145833Y-12574500D02*
X7974405Y-12831643D01*
X8402976Y-12584024D02*
X8422024Y-12584024D01*
X8422024Y-12584024D02*
X8441072Y-12593548D01*
X8441072Y-12593548D02*
X8450595Y-12603071D01*
X8450595Y-12603071D02*
X8460119Y-12622119D01*
X8460119Y-12622119D02*
X8469643Y-12660214D01*
X8469643Y-12660214D02*
X8469643Y-12707833D01*
X8469643Y-12707833D02*
X8460119Y-12745928D01*
X8460119Y-12745928D02*
X8450595Y-12764976D01*
X8450595Y-12764976D02*
X8441072Y-12774500D01*
X8441072Y-12774500D02*
X8422024Y-12784024D01*
X8422024Y-12784024D02*
X8402976Y-12784024D01*
X8402976Y-12784024D02*
X8383929Y-12774500D01*
X8383929Y-12774500D02*
X8374405Y-12764976D01*
X8374405Y-12764976D02*
X8364881Y-12745928D01*
X8364881Y-12745928D02*
X8355357Y-12707833D01*
X8355357Y-12707833D02*
X8355357Y-12660214D01*
X8355357Y-12660214D02*
X8364881Y-12622119D01*
X8364881Y-12622119D02*
X8374405Y-12603071D01*
X8374405Y-12603071D02*
X8383929Y-12593548D01*
X8383929Y-12593548D02*
X8402976Y-12584024D01*
X8555357Y-12764976D02*
X8564881Y-12774500D01*
X8564881Y-12774500D02*
X8555357Y-12784024D01*
X8555357Y-12784024D02*
X8545834Y-12774500D01*
X8545834Y-12774500D02*
X8555357Y-12764976D01*
X8555357Y-12764976D02*
X8555357Y-12784024D01*
X8755357Y-12784024D02*
X8641072Y-12784024D01*
X8698214Y-12784024D02*
X8698214Y-12584024D01*
X8698214Y-12584024D02*
X8679167Y-12612595D01*
X8679167Y-12612595D02*
X8660119Y-12631643D01*
X8660119Y-12631643D02*
X8641072Y-12641167D01*
X8945834Y-12784024D02*
X8831548Y-12784024D01*
X8888691Y-12784024D02*
X8888691Y-12584024D01*
X8888691Y-12584024D02*
X8869643Y-12612595D01*
X8869643Y-12612595D02*
X8850595Y-12631643D01*
X8850595Y-12631643D02*
X8831548Y-12641167D01*
X9069643Y-12584024D02*
X9088691Y-12584024D01*
X9088691Y-12584024D02*
X9107738Y-12593548D01*
X9107738Y-12593548D02*
X9117262Y-12603071D01*
X9117262Y-12603071D02*
X9126786Y-12622119D01*
X9126786Y-12622119D02*
X9136310Y-12660214D01*
X9136310Y-12660214D02*
X9136310Y-12707833D01*
X9136310Y-12707833D02*
X9126786Y-12745928D01*
X9126786Y-12745928D02*
X9117262Y-12764976D01*
X9117262Y-12764976D02*
X9107738Y-12774500D01*
X9107738Y-12774500D02*
X9088691Y-12784024D01*
X9088691Y-12784024D02*
X9069643Y-12784024D01*
X9069643Y-12784024D02*
X9050595Y-12774500D01*
X9050595Y-12774500D02*
X9041072Y-12764976D01*
X9041072Y-12764976D02*
X9031548Y-12745928D01*
X9031548Y-12745928D02*
X9022024Y-12707833D01*
X9022024Y-12707833D02*
X9022024Y-12660214D01*
X9022024Y-12660214D02*
X9031548Y-12622119D01*
X9031548Y-12622119D02*
X9041072Y-12603071D01*
X9041072Y-12603071D02*
X9050595Y-12593548D01*
X9050595Y-12593548D02*
X9069643Y-12584024D01*
X9212500Y-12603071D02*
X9222024Y-12593548D01*
X9222024Y-12593548D02*
X9241072Y-12584024D01*
X9241072Y-12584024D02*
X9288691Y-12584024D01*
X9288691Y-12584024D02*
X9307738Y-12593548D01*
X9307738Y-12593548D02*
X9317262Y-12603071D01*
X9317262Y-12603071D02*
X9326786Y-12622119D01*
X9326786Y-12622119D02*
X9326786Y-12641167D01*
X9326786Y-12641167D02*
X9317262Y-12669738D01*
X9317262Y-12669738D02*
X9202976Y-12784024D01*
X9202976Y-12784024D02*
X9326786Y-12784024D01*
X9402976Y-12584024D02*
X9402976Y-12622119D01*
X9479167Y-12584024D02*
X9479167Y-12622119D01*
X9774405Y-12860214D02*
X9764881Y-12850690D01*
X9764881Y-12850690D02*
X9745834Y-12822119D01*
X9745834Y-12822119D02*
X9736310Y-12803071D01*
X9736310Y-12803071D02*
X9726786Y-12774500D01*
X9726786Y-12774500D02*
X9717262Y-12726881D01*
X9717262Y-12726881D02*
X9717262Y-12688786D01*
X9717262Y-12688786D02*
X9726786Y-12641167D01*
X9726786Y-12641167D02*
X9736310Y-12612595D01*
X9736310Y-12612595D02*
X9745834Y-12593548D01*
X9745834Y-12593548D02*
X9764881Y-12564976D01*
X9764881Y-12564976D02*
X9774405Y-12555452D01*
X9936310Y-12650690D02*
X9936310Y-12784024D01*
X9888691Y-12574500D02*
X9841072Y-12717357D01*
X9841072Y-12717357D02*
X9964881Y-12717357D01*
X10193453Y-12784024D02*
X10193453Y-12584024D01*
X10279167Y-12784024D02*
X10279167Y-12679262D01*
X10279167Y-12679262D02*
X10269643Y-12660214D01*
X10269643Y-12660214D02*
X10250596Y-12650690D01*
X10250596Y-12650690D02*
X10222024Y-12650690D01*
X10222024Y-12650690D02*
X10202977Y-12660214D01*
X10202977Y-12660214D02*
X10193453Y-12669738D01*
X10402977Y-12784024D02*
X10383929Y-12774500D01*
X10383929Y-12774500D02*
X10374405Y-12764976D01*
X10374405Y-12764976D02*
X10364881Y-12745928D01*
X10364881Y-12745928D02*
X10364881Y-12688786D01*
X10364881Y-12688786D02*
X10374405Y-12669738D01*
X10374405Y-12669738D02*
X10383929Y-12660214D01*
X10383929Y-12660214D02*
X10402977Y-12650690D01*
X10402977Y-12650690D02*
X10431548Y-12650690D01*
X10431548Y-12650690D02*
X10450596Y-12660214D01*
X10450596Y-12660214D02*
X10460119Y-12669738D01*
X10460119Y-12669738D02*
X10469643Y-12688786D01*
X10469643Y-12688786D02*
X10469643Y-12745928D01*
X10469643Y-12745928D02*
X10460119Y-12764976D01*
X10460119Y-12764976D02*
X10450596Y-12774500D01*
X10450596Y-12774500D02*
X10431548Y-12784024D01*
X10431548Y-12784024D02*
X10402977Y-12784024D01*
X10583929Y-12784024D02*
X10564881Y-12774500D01*
X10564881Y-12774500D02*
X10555358Y-12755452D01*
X10555358Y-12755452D02*
X10555358Y-12584024D01*
X10736310Y-12774500D02*
X10717262Y-12784024D01*
X10717262Y-12784024D02*
X10679167Y-12784024D01*
X10679167Y-12784024D02*
X10660119Y-12774500D01*
X10660119Y-12774500D02*
X10650596Y-12755452D01*
X10650596Y-12755452D02*
X10650596Y-12679262D01*
X10650596Y-12679262D02*
X10660119Y-12660214D01*
X10660119Y-12660214D02*
X10679167Y-12650690D01*
X10679167Y-12650690D02*
X10717262Y-12650690D01*
X10717262Y-12650690D02*
X10736310Y-12660214D01*
X10736310Y-12660214D02*
X10745834Y-12679262D01*
X10745834Y-12679262D02*
X10745834Y-12698309D01*
X10745834Y-12698309D02*
X10650596Y-12717357D01*
X10822024Y-12774500D02*
X10841072Y-12784024D01*
X10841072Y-12784024D02*
X10879167Y-12784024D01*
X10879167Y-12784024D02*
X10898215Y-12774500D01*
X10898215Y-12774500D02*
X10907739Y-12755452D01*
X10907739Y-12755452D02*
X10907739Y-12745928D01*
X10907739Y-12745928D02*
X10898215Y-12726881D01*
X10898215Y-12726881D02*
X10879167Y-12717357D01*
X10879167Y-12717357D02*
X10850596Y-12717357D01*
X10850596Y-12717357D02*
X10831548Y-12707833D01*
X10831548Y-12707833D02*
X10822024Y-12688786D01*
X10822024Y-12688786D02*
X10822024Y-12679262D01*
X10822024Y-12679262D02*
X10831548Y-12660214D01*
X10831548Y-12660214D02*
X10850596Y-12650690D01*
X10850596Y-12650690D02*
X10879167Y-12650690D01*
X10879167Y-12650690D02*
X10898215Y-12660214D01*
X10974405Y-12860214D02*
X10983929Y-12850690D01*
X10983929Y-12850690D02*
X11002977Y-12822119D01*
X11002977Y-12822119D02*
X11012500Y-12803071D01*
X11012500Y-12803071D02*
X11022024Y-12774500D01*
X11022024Y-12774500D02*
X11031548Y-12726881D01*
X11031548Y-12726881D02*
X11031548Y-12688786D01*
X11031548Y-12688786D02*
X11022024Y-12641167D01*
X11022024Y-12641167D02*
X11012500Y-12612595D01*
X11012500Y-12612595D02*
X11002977Y-12593548D01*
X11002977Y-12593548D02*
X10983929Y-12564976D01*
X10983929Y-12564976D02*
X10974405Y-12555452D01*
X11336310Y-12860214D02*
X11326786Y-12850690D01*
X11326786Y-12850690D02*
X11307738Y-12822119D01*
X11307738Y-12822119D02*
X11298215Y-12803071D01*
X11298215Y-12803071D02*
X11288691Y-12774500D01*
X11288691Y-12774500D02*
X11279167Y-12726881D01*
X11279167Y-12726881D02*
X11279167Y-12688786D01*
X11279167Y-12688786D02*
X11288691Y-12641167D01*
X11288691Y-12641167D02*
X11298215Y-12612595D01*
X11298215Y-12612595D02*
X11307738Y-12593548D01*
X11307738Y-12593548D02*
X11326786Y-12564976D01*
X11326786Y-12564976D02*
X11336310Y-12555452D01*
X11412500Y-12650690D02*
X11412500Y-12784024D01*
X11412500Y-12669738D02*
X11422024Y-12660214D01*
X11422024Y-12660214D02*
X11441072Y-12650690D01*
X11441072Y-12650690D02*
X11469643Y-12650690D01*
X11469643Y-12650690D02*
X11488691Y-12660214D01*
X11488691Y-12660214D02*
X11498215Y-12679262D01*
X11498215Y-12679262D02*
X11498215Y-12784024D01*
X11622024Y-12784024D02*
X11602977Y-12774500D01*
X11602977Y-12774500D02*
X11593453Y-12764976D01*
X11593453Y-12764976D02*
X11583929Y-12745928D01*
X11583929Y-12745928D02*
X11583929Y-12688786D01*
X11583929Y-12688786D02*
X11593453Y-12669738D01*
X11593453Y-12669738D02*
X11602977Y-12660214D01*
X11602977Y-12660214D02*
X11622024Y-12650690D01*
X11622024Y-12650690D02*
X11650596Y-12650690D01*
X11650596Y-12650690D02*
X11669643Y-12660214D01*
X11669643Y-12660214D02*
X11679167Y-12669738D01*
X11679167Y-12669738D02*
X11688691Y-12688786D01*
X11688691Y-12688786D02*
X11688691Y-12745928D01*
X11688691Y-12745928D02*
X11679167Y-12764976D01*
X11679167Y-12764976D02*
X11669643Y-12774500D01*
X11669643Y-12774500D02*
X11650596Y-12784024D01*
X11650596Y-12784024D02*
X11622024Y-12784024D01*
X11745834Y-12650690D02*
X11822024Y-12650690D01*
X11774405Y-12584024D02*
X11774405Y-12755452D01*
X11774405Y-12755452D02*
X11783929Y-12774500D01*
X11783929Y-12774500D02*
X11802977Y-12784024D01*
X11802977Y-12784024D02*
X11822024Y-12784024D01*
X12041072Y-12650690D02*
X12041072Y-12850690D01*
X12041072Y-12660214D02*
X12060119Y-12650690D01*
X12060119Y-12650690D02*
X12098215Y-12650690D01*
X12098215Y-12650690D02*
X12117262Y-12660214D01*
X12117262Y-12660214D02*
X12126786Y-12669738D01*
X12126786Y-12669738D02*
X12136310Y-12688786D01*
X12136310Y-12688786D02*
X12136310Y-12745928D01*
X12136310Y-12745928D02*
X12126786Y-12764976D01*
X12126786Y-12764976D02*
X12117262Y-12774500D01*
X12117262Y-12774500D02*
X12098215Y-12784024D01*
X12098215Y-12784024D02*
X12060119Y-12784024D01*
X12060119Y-12784024D02*
X12041072Y-12774500D01*
X12250596Y-12784024D02*
X12231548Y-12774500D01*
X12231548Y-12774500D02*
X12222024Y-12755452D01*
X12222024Y-12755452D02*
X12222024Y-12584024D01*
X12412500Y-12784024D02*
X12412500Y-12679262D01*
X12412500Y-12679262D02*
X12402977Y-12660214D01*
X12402977Y-12660214D02*
X12383929Y-12650690D01*
X12383929Y-12650690D02*
X12345834Y-12650690D01*
X12345834Y-12650690D02*
X12326786Y-12660214D01*
X12412500Y-12774500D02*
X12393453Y-12784024D01*
X12393453Y-12784024D02*
X12345834Y-12784024D01*
X12345834Y-12784024D02*
X12326786Y-12774500D01*
X12326786Y-12774500D02*
X12317262Y-12755452D01*
X12317262Y-12755452D02*
X12317262Y-12736405D01*
X12317262Y-12736405D02*
X12326786Y-12717357D01*
X12326786Y-12717357D02*
X12345834Y-12707833D01*
X12345834Y-12707833D02*
X12393453Y-12707833D01*
X12393453Y-12707833D02*
X12412500Y-12698309D01*
X12479167Y-12650690D02*
X12555358Y-12650690D01*
X12507739Y-12584024D02*
X12507739Y-12755452D01*
X12507739Y-12755452D02*
X12517262Y-12774500D01*
X12517262Y-12774500D02*
X12536310Y-12784024D01*
X12536310Y-12784024D02*
X12555358Y-12784024D01*
X12698215Y-12774500D02*
X12679167Y-12784024D01*
X12679167Y-12784024D02*
X12641072Y-12784024D01*
X12641072Y-12784024D02*
X12622024Y-12774500D01*
X12622024Y-12774500D02*
X12612500Y-12755452D01*
X12612500Y-12755452D02*
X12612500Y-12679262D01*
X12612500Y-12679262D02*
X12622024Y-12660214D01*
X12622024Y-12660214D02*
X12641072Y-12650690D01*
X12641072Y-12650690D02*
X12679167Y-12650690D01*
X12679167Y-12650690D02*
X12698215Y-12660214D01*
X12698215Y-12660214D02*
X12707739Y-12679262D01*
X12707739Y-12679262D02*
X12707739Y-12698309D01*
X12707739Y-12698309D02*
X12612500Y-12717357D01*
X12879167Y-12784024D02*
X12879167Y-12584024D01*
X12879167Y-12774500D02*
X12860120Y-12784024D01*
X12860120Y-12784024D02*
X12822024Y-12784024D01*
X12822024Y-12784024D02*
X12802977Y-12774500D01*
X12802977Y-12774500D02*
X12793453Y-12764976D01*
X12793453Y-12764976D02*
X12783929Y-12745928D01*
X12783929Y-12745928D02*
X12783929Y-12688786D01*
X12783929Y-12688786D02*
X12793453Y-12669738D01*
X12793453Y-12669738D02*
X12802977Y-12660214D01*
X12802977Y-12660214D02*
X12822024Y-12650690D01*
X12822024Y-12650690D02*
X12860120Y-12650690D01*
X12860120Y-12650690D02*
X12879167Y-12660214D01*
X12955358Y-12860214D02*
X12964881Y-12850690D01*
X12964881Y-12850690D02*
X12983929Y-12822119D01*
X12983929Y-12822119D02*
X12993453Y-12803071D01*
X12993453Y-12803071D02*
X13002977Y-12774500D01*
X13002977Y-12774500D02*
X13012500Y-12726881D01*
X13012500Y-12726881D02*
X13012500Y-12688786D01*
X13012500Y-12688786D02*
X13002977Y-12641167D01*
X13002977Y-12641167D02*
X12993453Y-12612595D01*
X12993453Y-12612595D02*
X12983929Y-12593548D01*
X12983929Y-12593548D02*
X12964881Y-12564976D01*
X12964881Y-12564976D02*
X12955358Y-12555452D01*
X6183211Y-13082211D02*
X6183211Y-12940789D01*
X6041789Y-12940789D01*
X6041789Y-13082211D01*
X6183211Y-13082211D01*
X6441071Y-12904024D02*
X6564881Y-12904024D01*
X6564881Y-12904024D02*
X6498214Y-12980214D01*
X6498214Y-12980214D02*
X6526786Y-12980214D01*
X6526786Y-12980214D02*
X6545833Y-12989738D01*
X6545833Y-12989738D02*
X6555357Y-12999262D01*
X6555357Y-12999262D02*
X6564881Y-13018309D01*
X6564881Y-13018309D02*
X6564881Y-13065928D01*
X6564881Y-13065928D02*
X6555357Y-13084976D01*
X6555357Y-13084976D02*
X6545833Y-13094500D01*
X6545833Y-13094500D02*
X6526786Y-13104024D01*
X6526786Y-13104024D02*
X6469643Y-13104024D01*
X6469643Y-13104024D02*
X6450595Y-13094500D01*
X6450595Y-13094500D02*
X6441071Y-13084976D01*
X6650595Y-13084976D02*
X6660119Y-13094500D01*
X6660119Y-13094500D02*
X6650595Y-13104024D01*
X6650595Y-13104024D02*
X6641071Y-13094500D01*
X6641071Y-13094500D02*
X6650595Y-13084976D01*
X6650595Y-13084976D02*
X6650595Y-13104024D01*
X6755357Y-13104024D02*
X6793452Y-13104024D01*
X6793452Y-13104024D02*
X6812500Y-13094500D01*
X6812500Y-13094500D02*
X6822024Y-13084976D01*
X6822024Y-13084976D02*
X6841071Y-13056405D01*
X6841071Y-13056405D02*
X6850595Y-13018309D01*
X6850595Y-13018309D02*
X6850595Y-12942119D01*
X6850595Y-12942119D02*
X6841071Y-12923071D01*
X6841071Y-12923071D02*
X6831548Y-12913548D01*
X6831548Y-12913548D02*
X6812500Y-12904024D01*
X6812500Y-12904024D02*
X6774405Y-12904024D01*
X6774405Y-12904024D02*
X6755357Y-12913548D01*
X6755357Y-12913548D02*
X6745833Y-12923071D01*
X6745833Y-12923071D02*
X6736309Y-12942119D01*
X6736309Y-12942119D02*
X6736309Y-12989738D01*
X6736309Y-12989738D02*
X6745833Y-13008786D01*
X6745833Y-13008786D02*
X6755357Y-13018309D01*
X6755357Y-13018309D02*
X6774405Y-13027833D01*
X6774405Y-13027833D02*
X6812500Y-13027833D01*
X6812500Y-13027833D02*
X6831548Y-13018309D01*
X6831548Y-13018309D02*
X6841071Y-13008786D01*
X6841071Y-13008786D02*
X6850595Y-12989738D01*
X6974405Y-12904024D02*
X6993452Y-12904024D01*
X6993452Y-12904024D02*
X7012500Y-12913548D01*
X7012500Y-12913548D02*
X7022024Y-12923071D01*
X7022024Y-12923071D02*
X7031548Y-12942119D01*
X7031548Y-12942119D02*
X7041071Y-12980214D01*
X7041071Y-12980214D02*
X7041071Y-13027833D01*
X7041071Y-13027833D02*
X7031548Y-13065928D01*
X7031548Y-13065928D02*
X7022024Y-13084976D01*
X7022024Y-13084976D02*
X7012500Y-13094500D01*
X7012500Y-13094500D02*
X6993452Y-13104024D01*
X6993452Y-13104024D02*
X6974405Y-13104024D01*
X6974405Y-13104024D02*
X6955357Y-13094500D01*
X6955357Y-13094500D02*
X6945833Y-13084976D01*
X6945833Y-13084976D02*
X6936309Y-13065928D01*
X6936309Y-13065928D02*
X6926786Y-13027833D01*
X6926786Y-13027833D02*
X6926786Y-12980214D01*
X6926786Y-12980214D02*
X6936309Y-12942119D01*
X6936309Y-12942119D02*
X6945833Y-12923071D01*
X6945833Y-12923071D02*
X6955357Y-12913548D01*
X6955357Y-12913548D02*
X6974405Y-12904024D01*
X7164881Y-12904024D02*
X7183929Y-12904024D01*
X7183929Y-12904024D02*
X7202976Y-12913548D01*
X7202976Y-12913548D02*
X7212500Y-12923071D01*
X7212500Y-12923071D02*
X7222024Y-12942119D01*
X7222024Y-12942119D02*
X7231548Y-12980214D01*
X7231548Y-12980214D02*
X7231548Y-13027833D01*
X7231548Y-13027833D02*
X7222024Y-13065928D01*
X7222024Y-13065928D02*
X7212500Y-13084976D01*
X7212500Y-13084976D02*
X7202976Y-13094500D01*
X7202976Y-13094500D02*
X7183929Y-13104024D01*
X7183929Y-13104024D02*
X7164881Y-13104024D01*
X7164881Y-13104024D02*
X7145833Y-13094500D01*
X7145833Y-13094500D02*
X7136309Y-13084976D01*
X7136309Y-13084976D02*
X7126786Y-13065928D01*
X7126786Y-13065928D02*
X7117262Y-13027833D01*
X7117262Y-13027833D02*
X7117262Y-12980214D01*
X7117262Y-12980214D02*
X7126786Y-12942119D01*
X7126786Y-12942119D02*
X7136309Y-12923071D01*
X7136309Y-12923071D02*
X7145833Y-12913548D01*
X7145833Y-12913548D02*
X7164881Y-12904024D01*
X7317262Y-13104024D02*
X7317262Y-12970690D01*
X7317262Y-12989738D02*
X7326786Y-12980214D01*
X7326786Y-12980214D02*
X7345833Y-12970690D01*
X7345833Y-12970690D02*
X7374405Y-12970690D01*
X7374405Y-12970690D02*
X7393452Y-12980214D01*
X7393452Y-12980214D02*
X7402976Y-12999262D01*
X7402976Y-12999262D02*
X7402976Y-13104024D01*
X7402976Y-12999262D02*
X7412500Y-12980214D01*
X7412500Y-12980214D02*
X7431548Y-12970690D01*
X7431548Y-12970690D02*
X7460119Y-12970690D01*
X7460119Y-12970690D02*
X7479167Y-12980214D01*
X7479167Y-12980214D02*
X7488690Y-12999262D01*
X7488690Y-12999262D02*
X7488690Y-13104024D01*
X7583929Y-13104024D02*
X7583929Y-12970690D01*
X7583929Y-12989738D02*
X7593452Y-12980214D01*
X7593452Y-12980214D02*
X7612500Y-12970690D01*
X7612500Y-12970690D02*
X7641071Y-12970690D01*
X7641071Y-12970690D02*
X7660119Y-12980214D01*
X7660119Y-12980214D02*
X7669643Y-12999262D01*
X7669643Y-12999262D02*
X7669643Y-13104024D01*
X7669643Y-12999262D02*
X7679167Y-12980214D01*
X7679167Y-12980214D02*
X7698214Y-12970690D01*
X7698214Y-12970690D02*
X7726786Y-12970690D01*
X7726786Y-12970690D02*
X7745833Y-12980214D01*
X7745833Y-12980214D02*
X7755357Y-12999262D01*
X7755357Y-12999262D02*
X7755357Y-13104024D01*
X8145833Y-12894500D02*
X7974405Y-13151643D01*
X8402976Y-12904024D02*
X8422024Y-12904024D01*
X8422024Y-12904024D02*
X8441072Y-12913548D01*
X8441072Y-12913548D02*
X8450595Y-12923071D01*
X8450595Y-12923071D02*
X8460119Y-12942119D01*
X8460119Y-12942119D02*
X8469643Y-12980214D01*
X8469643Y-12980214D02*
X8469643Y-13027833D01*
X8469643Y-13027833D02*
X8460119Y-13065928D01*
X8460119Y-13065928D02*
X8450595Y-13084976D01*
X8450595Y-13084976D02*
X8441072Y-13094500D01*
X8441072Y-13094500D02*
X8422024Y-13104024D01*
X8422024Y-13104024D02*
X8402976Y-13104024D01*
X8402976Y-13104024D02*
X8383929Y-13094500D01*
X8383929Y-13094500D02*
X8374405Y-13084976D01*
X8374405Y-13084976D02*
X8364881Y-13065928D01*
X8364881Y-13065928D02*
X8355357Y-13027833D01*
X8355357Y-13027833D02*
X8355357Y-12980214D01*
X8355357Y-12980214D02*
X8364881Y-12942119D01*
X8364881Y-12942119D02*
X8374405Y-12923071D01*
X8374405Y-12923071D02*
X8383929Y-12913548D01*
X8383929Y-12913548D02*
X8402976Y-12904024D01*
X8555357Y-13084976D02*
X8564881Y-13094500D01*
X8564881Y-13094500D02*
X8555357Y-13104024D01*
X8555357Y-13104024D02*
X8545834Y-13094500D01*
X8545834Y-13094500D02*
X8555357Y-13084976D01*
X8555357Y-13084976D02*
X8555357Y-13104024D01*
X8755357Y-13104024D02*
X8641072Y-13104024D01*
X8698214Y-13104024D02*
X8698214Y-12904024D01*
X8698214Y-12904024D02*
X8679167Y-12932595D01*
X8679167Y-12932595D02*
X8660119Y-12951643D01*
X8660119Y-12951643D02*
X8641072Y-12961167D01*
X8936310Y-12904024D02*
X8841072Y-12904024D01*
X8841072Y-12904024D02*
X8831548Y-12999262D01*
X8831548Y-12999262D02*
X8841072Y-12989738D01*
X8841072Y-12989738D02*
X8860119Y-12980214D01*
X8860119Y-12980214D02*
X8907738Y-12980214D01*
X8907738Y-12980214D02*
X8926786Y-12989738D01*
X8926786Y-12989738D02*
X8936310Y-12999262D01*
X8936310Y-12999262D02*
X8945834Y-13018309D01*
X8945834Y-13018309D02*
X8945834Y-13065928D01*
X8945834Y-13065928D02*
X8936310Y-13084976D01*
X8936310Y-13084976D02*
X8926786Y-13094500D01*
X8926786Y-13094500D02*
X8907738Y-13104024D01*
X8907738Y-13104024D02*
X8860119Y-13104024D01*
X8860119Y-13104024D02*
X8841072Y-13094500D01*
X8841072Y-13094500D02*
X8831548Y-13084976D01*
X9012500Y-12904024D02*
X9136310Y-12904024D01*
X9136310Y-12904024D02*
X9069643Y-12980214D01*
X9069643Y-12980214D02*
X9098215Y-12980214D01*
X9098215Y-12980214D02*
X9117262Y-12989738D01*
X9117262Y-12989738D02*
X9126786Y-12999262D01*
X9126786Y-12999262D02*
X9136310Y-13018309D01*
X9136310Y-13018309D02*
X9136310Y-13065928D01*
X9136310Y-13065928D02*
X9126786Y-13084976D01*
X9126786Y-13084976D02*
X9117262Y-13094500D01*
X9117262Y-13094500D02*
X9098215Y-13104024D01*
X9098215Y-13104024D02*
X9041072Y-13104024D01*
X9041072Y-13104024D02*
X9022024Y-13094500D01*
X9022024Y-13094500D02*
X9012500Y-13084976D01*
X9317262Y-12904024D02*
X9222024Y-12904024D01*
X9222024Y-12904024D02*
X9212500Y-12999262D01*
X9212500Y-12999262D02*
X9222024Y-12989738D01*
X9222024Y-12989738D02*
X9241072Y-12980214D01*
X9241072Y-12980214D02*
X9288691Y-12980214D01*
X9288691Y-12980214D02*
X9307738Y-12989738D01*
X9307738Y-12989738D02*
X9317262Y-12999262D01*
X9317262Y-12999262D02*
X9326786Y-13018309D01*
X9326786Y-13018309D02*
X9326786Y-13065928D01*
X9326786Y-13065928D02*
X9317262Y-13084976D01*
X9317262Y-13084976D02*
X9307738Y-13094500D01*
X9307738Y-13094500D02*
X9288691Y-13104024D01*
X9288691Y-13104024D02*
X9241072Y-13104024D01*
X9241072Y-13104024D02*
X9222024Y-13094500D01*
X9222024Y-13094500D02*
X9212500Y-13084976D01*
X9402976Y-12904024D02*
X9402976Y-12942119D01*
X9479167Y-12904024D02*
X9479167Y-12942119D01*
X9774405Y-13180214D02*
X9764881Y-13170690D01*
X9764881Y-13170690D02*
X9745834Y-13142119D01*
X9745834Y-13142119D02*
X9736310Y-13123071D01*
X9736310Y-13123071D02*
X9726786Y-13094500D01*
X9726786Y-13094500D02*
X9717262Y-13046881D01*
X9717262Y-13046881D02*
X9717262Y-13008786D01*
X9717262Y-13008786D02*
X9726786Y-12961167D01*
X9726786Y-12961167D02*
X9736310Y-12932595D01*
X9736310Y-12932595D02*
X9745834Y-12913548D01*
X9745834Y-12913548D02*
X9764881Y-12884976D01*
X9764881Y-12884976D02*
X9774405Y-12875452D01*
X9831548Y-12904024D02*
X9964881Y-12904024D01*
X9964881Y-12904024D02*
X9879167Y-13104024D01*
X10193453Y-13104024D02*
X10193453Y-12904024D01*
X10279167Y-13104024D02*
X10279167Y-12999262D01*
X10279167Y-12999262D02*
X10269643Y-12980214D01*
X10269643Y-12980214D02*
X10250596Y-12970690D01*
X10250596Y-12970690D02*
X10222024Y-12970690D01*
X10222024Y-12970690D02*
X10202977Y-12980214D01*
X10202977Y-12980214D02*
X10193453Y-12989738D01*
X10402977Y-13104024D02*
X10383929Y-13094500D01*
X10383929Y-13094500D02*
X10374405Y-13084976D01*
X10374405Y-13084976D02*
X10364881Y-13065928D01*
X10364881Y-13065928D02*
X10364881Y-13008786D01*
X10364881Y-13008786D02*
X10374405Y-12989738D01*
X10374405Y-12989738D02*
X10383929Y-12980214D01*
X10383929Y-12980214D02*
X10402977Y-12970690D01*
X10402977Y-12970690D02*
X10431548Y-12970690D01*
X10431548Y-12970690D02*
X10450596Y-12980214D01*
X10450596Y-12980214D02*
X10460119Y-12989738D01*
X10460119Y-12989738D02*
X10469643Y-13008786D01*
X10469643Y-13008786D02*
X10469643Y-13065928D01*
X10469643Y-13065928D02*
X10460119Y-13084976D01*
X10460119Y-13084976D02*
X10450596Y-13094500D01*
X10450596Y-13094500D02*
X10431548Y-13104024D01*
X10431548Y-13104024D02*
X10402977Y-13104024D01*
X10583929Y-13104024D02*
X10564881Y-13094500D01*
X10564881Y-13094500D02*
X10555358Y-13075452D01*
X10555358Y-13075452D02*
X10555358Y-12904024D01*
X10736310Y-13094500D02*
X10717262Y-13104024D01*
X10717262Y-13104024D02*
X10679167Y-13104024D01*
X10679167Y-13104024D02*
X10660119Y-13094500D01*
X10660119Y-13094500D02*
X10650596Y-13075452D01*
X10650596Y-13075452D02*
X10650596Y-12999262D01*
X10650596Y-12999262D02*
X10660119Y-12980214D01*
X10660119Y-12980214D02*
X10679167Y-12970690D01*
X10679167Y-12970690D02*
X10717262Y-12970690D01*
X10717262Y-12970690D02*
X10736310Y-12980214D01*
X10736310Y-12980214D02*
X10745834Y-12999262D01*
X10745834Y-12999262D02*
X10745834Y-13018309D01*
X10745834Y-13018309D02*
X10650596Y-13037357D01*
X10822024Y-13094500D02*
X10841072Y-13104024D01*
X10841072Y-13104024D02*
X10879167Y-13104024D01*
X10879167Y-13104024D02*
X10898215Y-13094500D01*
X10898215Y-13094500D02*
X10907739Y-13075452D01*
X10907739Y-13075452D02*
X10907739Y-13065928D01*
X10907739Y-13065928D02*
X10898215Y-13046881D01*
X10898215Y-13046881D02*
X10879167Y-13037357D01*
X10879167Y-13037357D02*
X10850596Y-13037357D01*
X10850596Y-13037357D02*
X10831548Y-13027833D01*
X10831548Y-13027833D02*
X10822024Y-13008786D01*
X10822024Y-13008786D02*
X10822024Y-12999262D01*
X10822024Y-12999262D02*
X10831548Y-12980214D01*
X10831548Y-12980214D02*
X10850596Y-12970690D01*
X10850596Y-12970690D02*
X10879167Y-12970690D01*
X10879167Y-12970690D02*
X10898215Y-12980214D01*
X10974405Y-13180214D02*
X10983929Y-13170690D01*
X10983929Y-13170690D02*
X11002977Y-13142119D01*
X11002977Y-13142119D02*
X11012500Y-13123071D01*
X11012500Y-13123071D02*
X11022024Y-13094500D01*
X11022024Y-13094500D02*
X11031548Y-13046881D01*
X11031548Y-13046881D02*
X11031548Y-13008786D01*
X11031548Y-13008786D02*
X11022024Y-12961167D01*
X11022024Y-12961167D02*
X11012500Y-12932595D01*
X11012500Y-12932595D02*
X11002977Y-12913548D01*
X11002977Y-12913548D02*
X10983929Y-12884976D01*
X10983929Y-12884976D02*
X10974405Y-12875452D01*
X11336310Y-13180214D02*
X11326786Y-13170690D01*
X11326786Y-13170690D02*
X11307738Y-13142119D01*
X11307738Y-13142119D02*
X11298215Y-13123071D01*
X11298215Y-13123071D02*
X11288691Y-13094500D01*
X11288691Y-13094500D02*
X11279167Y-13046881D01*
X11279167Y-13046881D02*
X11279167Y-13008786D01*
X11279167Y-13008786D02*
X11288691Y-12961167D01*
X11288691Y-12961167D02*
X11298215Y-12932595D01*
X11298215Y-12932595D02*
X11307738Y-12913548D01*
X11307738Y-12913548D02*
X11326786Y-12884976D01*
X11326786Y-12884976D02*
X11336310Y-12875452D01*
X11412500Y-12970690D02*
X11412500Y-13104024D01*
X11412500Y-12989738D02*
X11422024Y-12980214D01*
X11422024Y-12980214D02*
X11441072Y-12970690D01*
X11441072Y-12970690D02*
X11469643Y-12970690D01*
X11469643Y-12970690D02*
X11488691Y-12980214D01*
X11488691Y-12980214D02*
X11498215Y-12999262D01*
X11498215Y-12999262D02*
X11498215Y-13104024D01*
X11622024Y-13104024D02*
X11602977Y-13094500D01*
X11602977Y-13094500D02*
X11593453Y-13084976D01*
X11593453Y-13084976D02*
X11583929Y-13065928D01*
X11583929Y-13065928D02*
X11583929Y-13008786D01*
X11583929Y-13008786D02*
X11593453Y-12989738D01*
X11593453Y-12989738D02*
X11602977Y-12980214D01*
X11602977Y-12980214D02*
X11622024Y-12970690D01*
X11622024Y-12970690D02*
X11650596Y-12970690D01*
X11650596Y-12970690D02*
X11669643Y-12980214D01*
X11669643Y-12980214D02*
X11679167Y-12989738D01*
X11679167Y-12989738D02*
X11688691Y-13008786D01*
X11688691Y-13008786D02*
X11688691Y-13065928D01*
X11688691Y-13065928D02*
X11679167Y-13084976D01*
X11679167Y-13084976D02*
X11669643Y-13094500D01*
X11669643Y-13094500D02*
X11650596Y-13104024D01*
X11650596Y-13104024D02*
X11622024Y-13104024D01*
X11745834Y-12970690D02*
X11822024Y-12970690D01*
X11774405Y-12904024D02*
X11774405Y-13075452D01*
X11774405Y-13075452D02*
X11783929Y-13094500D01*
X11783929Y-13094500D02*
X11802977Y-13104024D01*
X11802977Y-13104024D02*
X11822024Y-13104024D01*
X12041072Y-12970690D02*
X12041072Y-13170690D01*
X12041072Y-12980214D02*
X12060119Y-12970690D01*
X12060119Y-12970690D02*
X12098215Y-12970690D01*
X12098215Y-12970690D02*
X12117262Y-12980214D01*
X12117262Y-12980214D02*
X12126786Y-12989738D01*
X12126786Y-12989738D02*
X12136310Y-13008786D01*
X12136310Y-13008786D02*
X12136310Y-13065928D01*
X12136310Y-13065928D02*
X12126786Y-13084976D01*
X12126786Y-13084976D02*
X12117262Y-13094500D01*
X12117262Y-13094500D02*
X12098215Y-13104024D01*
X12098215Y-13104024D02*
X12060119Y-13104024D01*
X12060119Y-13104024D02*
X12041072Y-13094500D01*
X12250596Y-13104024D02*
X12231548Y-13094500D01*
X12231548Y-13094500D02*
X12222024Y-13075452D01*
X12222024Y-13075452D02*
X12222024Y-12904024D01*
X12412500Y-13104024D02*
X12412500Y-12999262D01*
X12412500Y-12999262D02*
X12402977Y-12980214D01*
X12402977Y-12980214D02*
X12383929Y-12970690D01*
X12383929Y-12970690D02*
X12345834Y-12970690D01*
X12345834Y-12970690D02*
X12326786Y-12980214D01*
X12412500Y-13094500D02*
X12393453Y-13104024D01*
X12393453Y-13104024D02*
X12345834Y-13104024D01*
X12345834Y-13104024D02*
X12326786Y-13094500D01*
X12326786Y-13094500D02*
X12317262Y-13075452D01*
X12317262Y-13075452D02*
X12317262Y-13056405D01*
X12317262Y-13056405D02*
X12326786Y-13037357D01*
X12326786Y-13037357D02*
X12345834Y-13027833D01*
X12345834Y-13027833D02*
X12393453Y-13027833D01*
X12393453Y-13027833D02*
X12412500Y-13018309D01*
X12479167Y-12970690D02*
X12555358Y-12970690D01*
X12507739Y-12904024D02*
X12507739Y-13075452D01*
X12507739Y-13075452D02*
X12517262Y-13094500D01*
X12517262Y-13094500D02*
X12536310Y-13104024D01*
X12536310Y-13104024D02*
X12555358Y-13104024D01*
X12698215Y-13094500D02*
X12679167Y-13104024D01*
X12679167Y-13104024D02*
X12641072Y-13104024D01*
X12641072Y-13104024D02*
X12622024Y-13094500D01*
X12622024Y-13094500D02*
X12612500Y-13075452D01*
X12612500Y-13075452D02*
X12612500Y-12999262D01*
X12612500Y-12999262D02*
X12622024Y-12980214D01*
X12622024Y-12980214D02*
X12641072Y-12970690D01*
X12641072Y-12970690D02*
X12679167Y-12970690D01*
X12679167Y-12970690D02*
X12698215Y-12980214D01*
X12698215Y-12980214D02*
X12707739Y-12999262D01*
X12707739Y-12999262D02*
X12707739Y-13018309D01*
X12707739Y-13018309D02*
X12612500Y-13037357D01*
X12879167Y-13104024D02*
X12879167Y-12904024D01*
X12879167Y-13094500D02*
X12860120Y-13104024D01*
X12860120Y-13104024D02*
X12822024Y-13104024D01*
X12822024Y-13104024D02*
X12802977Y-13094500D01*
X12802977Y-13094500D02*
X12793453Y-13084976D01*
X12793453Y-13084976D02*
X12783929Y-13065928D01*
X12783929Y-13065928D02*
X12783929Y-13008786D01*
X12783929Y-13008786D02*
X12793453Y-12989738D01*
X12793453Y-12989738D02*
X12802977Y-12980214D01*
X12802977Y-12980214D02*
X12822024Y-12970690D01*
X12822024Y-12970690D02*
X12860120Y-12970690D01*
X12860120Y-12970690D02*
X12879167Y-12980214D01*
X12955358Y-13180214D02*
X12964881Y-13170690D01*
X12964881Y-13170690D02*
X12983929Y-13142119D01*
X12983929Y-13142119D02*
X12993453Y-13123071D01*
X12993453Y-13123071D02*
X13002977Y-13094500D01*
X13002977Y-13094500D02*
X13012500Y-13046881D01*
X13012500Y-13046881D02*
X13012500Y-13008786D01*
X13012500Y-13008786D02*
X13002977Y-12961167D01*
X13002977Y-12961167D02*
X12993453Y-12932595D01*
X12993453Y-12932595D02*
X12983929Y-12913548D01*
X12983929Y-12913548D02*
X12964881Y-12884976D01*
X12964881Y-12884976D02*
X12955358Y-12875452D01*
M02*
