G04 #@! TF.GenerationSoftware,KiCad,Pcbnew,6.0.0-rc2*
G04 #@! TF.CreationDate,2022-06-24T19:42:49-07:00*
G04 #@! TF.ProjectId,RP2040_motor,52503230-3430-45f6-9d6f-746f722e6b69,REV1*
G04 #@! TF.SameCoordinates,Original*
G04 #@! TF.FileFunction,Copper,L4,Bot*
G04 #@! TF.FilePolarity,Positive*
%FSLAX46Y46*%
G04 Gerber Fmt 4.6, Leading zero omitted, Abs format (unit mm)*
G04 Created by KiCad (PCBNEW 6.0.0-rc2) date 2022-06-24 19:42:49*
%MOMM*%
%LPD*%
G01*
G04 APERTURE LIST*
G04 Aperture macros list*
%AMRoundRect*
0 Rectangle with rounded corners*
0 $1 Rounding radius*
0 $2 $3 $4 $5 $6 $7 $8 $9 X,Y pos of 4 corners*
0 Add a 4 corners polygon primitive as box body*
4,1,4,$2,$3,$4,$5,$6,$7,$8,$9,$2,$3,0*
0 Add four circle primitives for the rounded corners*
1,1,$1+$1,$2,$3*
1,1,$1+$1,$4,$5*
1,1,$1+$1,$6,$7*
1,1,$1+$1,$8,$9*
0 Add four rect primitives between the rounded corners*
20,1,$1+$1,$2,$3,$4,$5,0*
20,1,$1+$1,$4,$5,$6,$7,0*
20,1,$1+$1,$6,$7,$8,$9,0*
20,1,$1+$1,$8,$9,$2,$3,0*%
G04 Aperture macros list end*
G04 #@! TA.AperFunction,ComponentPad*
%ADD10C,3.900000*%
G04 #@! TD*
G04 #@! TA.AperFunction,ComponentPad*
%ADD11C,4.000000*%
G04 #@! TD*
G04 #@! TA.AperFunction,ComponentPad*
%ADD12O,2.190000X1.740000*%
G04 #@! TD*
G04 #@! TA.AperFunction,ComponentPad*
%ADD13RoundRect,0.250000X0.845000X-0.620000X0.845000X0.620000X-0.845000X0.620000X-0.845000X-0.620000X0*%
G04 #@! TD*
G04 #@! TA.AperFunction,ComponentPad*
%ADD14C,0.600000*%
G04 #@! TD*
G04 #@! TA.AperFunction,ComponentPad*
%ADD15C,2.000000*%
G04 #@! TD*
G04 #@! TA.AperFunction,ComponentPad*
%ADD16C,6.000000*%
G04 #@! TD*
G04 #@! TA.AperFunction,ComponentPad*
%ADD17RoundRect,0.250000X-0.620000X-0.845000X0.620000X-0.845000X0.620000X0.845000X-0.620000X0.845000X0*%
G04 #@! TD*
G04 #@! TA.AperFunction,ComponentPad*
%ADD18O,1.740000X2.190000*%
G04 #@! TD*
G04 #@! TA.AperFunction,ComponentPad*
%ADD19O,1.000000X2.100000*%
G04 #@! TD*
G04 #@! TA.AperFunction,ComponentPad*
%ADD20O,1.000000X1.600000*%
G04 #@! TD*
G04 #@! TA.AperFunction,ViaPad*
%ADD21C,0.800000*%
G04 #@! TD*
G04 #@! TA.AperFunction,ViaPad*
%ADD22C,0.600000*%
G04 #@! TD*
G04 #@! TA.AperFunction,ViaPad*
%ADD23C,1.000000*%
G04 #@! TD*
G04 #@! TA.AperFunction,Conductor*
%ADD24C,0.200000*%
G04 #@! TD*
G04 #@! TA.AperFunction,Conductor*
%ADD25C,0.400000*%
G04 #@! TD*
G04 #@! TA.AperFunction,Conductor*
%ADD26C,0.300000*%
G04 #@! TD*
G04 APERTURE END LIST*
D10*
X74000000Y-95000000D03*
X162510000Y-76000000D03*
X162510000Y-114000000D03*
D11*
X159500000Y-87750000D03*
D12*
X74100000Y-77240000D03*
X74100000Y-79780000D03*
X74100000Y-82320000D03*
X74100000Y-84860000D03*
D13*
X74100000Y-87400000D03*
D14*
X91390000Y-105250000D03*
X92665000Y-106525000D03*
X91390000Y-103975000D03*
X92665000Y-103975000D03*
X91390000Y-106525000D03*
X90115000Y-105250000D03*
X90115000Y-103975000D03*
X92665000Y-105250000D03*
X90115000Y-106525000D03*
D13*
X81050000Y-84960000D03*
D12*
X81050000Y-82420000D03*
X81050000Y-79880000D03*
X81050000Y-77340000D03*
D15*
X103000000Y-82600000D03*
X96500000Y-82600000D03*
X103000000Y-87100000D03*
X96500000Y-87100000D03*
D11*
X159500000Y-71250000D03*
D16*
X120350000Y-73000000D03*
D11*
X159500000Y-102250000D03*
D17*
X72490000Y-71200000D03*
D18*
X75030000Y-71200000D03*
X77570000Y-71200000D03*
X80110000Y-71200000D03*
D13*
X74100000Y-106000000D03*
D12*
X74100000Y-103460000D03*
X74100000Y-100920000D03*
X74100000Y-109690000D03*
X74100000Y-112230000D03*
X74100000Y-114770000D03*
X74100000Y-117310000D03*
D13*
X74100000Y-119850000D03*
D11*
X159500000Y-119000000D03*
X159500000Y-80600000D03*
X159500000Y-109400000D03*
D19*
X95720000Y-116145000D03*
X87080000Y-116145000D03*
D20*
X87080000Y-120325000D03*
X95720000Y-120325000D03*
D16*
X127350000Y-73000000D03*
D21*
X164500000Y-99000000D03*
X163500000Y-99000000D03*
X164500000Y-91000000D03*
X163500000Y-91000000D03*
X159500000Y-114500000D03*
X162500000Y-106250000D03*
X162500000Y-84000000D03*
X159500000Y-76000000D03*
X163500000Y-118000000D03*
X163500000Y-120000000D03*
X163500000Y-119000000D03*
X163500000Y-121000000D03*
X163500000Y-109000000D03*
X163500000Y-103000000D03*
X163500000Y-102000000D03*
X163500000Y-110000000D03*
X163500000Y-100000000D03*
X163500000Y-104000000D03*
X163500000Y-106000000D03*
X163500000Y-105000000D03*
X163500000Y-111000000D03*
X163500000Y-107000000D03*
X163500000Y-108000000D03*
X163500000Y-101000000D03*
X163500000Y-72000000D03*
X163500000Y-70000000D03*
X163500000Y-73000000D03*
X163500000Y-71000000D03*
X164500000Y-79000000D03*
X164500000Y-82000000D03*
X164500000Y-80000000D03*
X164500000Y-88000000D03*
X164500000Y-85000000D03*
X164500000Y-87000000D03*
X164500000Y-86000000D03*
X164500000Y-89000000D03*
X164500000Y-90000000D03*
X164500000Y-81000000D03*
X164500000Y-83000000D03*
X164500000Y-84000000D03*
X164500000Y-121000000D03*
X164500000Y-120000000D03*
X164500000Y-119000000D03*
X164500000Y-118000000D03*
X164500000Y-111000000D03*
X164500000Y-110000000D03*
X164500000Y-109000000D03*
X164500000Y-108000000D03*
X164500000Y-100000000D03*
X164500000Y-101000000D03*
X164500000Y-102000000D03*
X164500000Y-103000000D03*
X164500000Y-104000000D03*
X164500000Y-105000000D03*
X164500000Y-107000000D03*
X164500000Y-106000000D03*
X161500000Y-106250000D03*
X160500000Y-106250000D03*
X159500000Y-106250000D03*
X158500000Y-106250000D03*
X157500000Y-106250000D03*
X156500000Y-106250000D03*
X155500000Y-106250000D03*
X154500000Y-106250000D03*
X153500000Y-106250000D03*
X158500000Y-114500000D03*
X157500000Y-114500000D03*
X156500000Y-114500000D03*
X155500000Y-114500000D03*
X154500000Y-114500000D03*
X153500000Y-114500000D03*
X164500000Y-70000000D03*
X158500000Y-76000000D03*
X157500000Y-76000000D03*
X156500000Y-76000000D03*
X155500000Y-76000000D03*
X154500000Y-76000000D03*
X153500000Y-76000000D03*
X164500000Y-73000000D03*
X164500000Y-72000000D03*
X164500000Y-71000000D03*
X163500000Y-90000000D03*
X163500000Y-89000000D03*
X163500000Y-88000000D03*
X163500000Y-87000000D03*
X163500000Y-86000000D03*
X163500000Y-79000000D03*
X163500000Y-80000000D03*
X163500000Y-81000000D03*
X163500000Y-82000000D03*
X163500000Y-83000000D03*
X163500000Y-85000000D03*
X163500000Y-84000000D03*
X161500000Y-84000000D03*
X160500000Y-84000000D03*
X159500000Y-84000000D03*
X158497915Y-83997861D03*
X157500000Y-84000000D03*
X156500000Y-84000000D03*
X155500000Y-84000000D03*
X154500000Y-84000000D03*
X153500000Y-84000000D03*
D22*
X85100000Y-91650000D03*
X82100000Y-88500000D03*
X78700000Y-97650000D03*
X75900000Y-91800000D03*
X77500000Y-90100000D03*
X78100000Y-89450000D03*
X97500000Y-69500000D03*
X72150000Y-91650000D03*
X85050000Y-93550000D03*
X75250000Y-89100000D03*
X86350000Y-94150000D03*
X83400000Y-88750000D03*
X85750000Y-88850000D03*
X86400000Y-90450000D03*
X82000000Y-96500000D03*
X80150000Y-96450000D03*
X83200000Y-93000000D03*
X89050000Y-88850000D03*
X76700000Y-90500000D03*
X78750000Y-98950000D03*
X78800000Y-100200000D03*
X82850000Y-98800000D03*
X78850000Y-101000000D03*
D21*
X98500000Y-83450000D03*
X85850000Y-84300000D03*
X84200000Y-80400000D03*
X84800000Y-78600000D03*
D22*
X92800000Y-90300000D03*
X100000000Y-89000000D03*
X99900000Y-82600000D03*
X104800000Y-82800000D03*
X104900000Y-86500000D03*
X112900000Y-82900000D03*
X112500000Y-86200000D03*
X116000000Y-93300000D03*
X117200000Y-93300000D03*
X118200000Y-93300000D03*
X140450000Y-91850000D03*
X141950000Y-90750000D03*
X142850000Y-92550000D03*
X141700000Y-96450000D03*
X143100000Y-97850000D03*
D21*
X88900000Y-71400000D03*
D23*
X88300000Y-81800000D03*
D22*
X95300000Y-91000000D03*
X95700000Y-95000000D03*
X88700000Y-93000000D03*
X89600000Y-97350000D03*
D21*
X119650000Y-83720000D03*
X122650000Y-98400000D03*
X119650000Y-87420000D03*
X103700000Y-114250000D03*
X119700000Y-93300000D03*
X122550000Y-101050000D03*
X119650000Y-104150000D03*
X122650000Y-87420000D03*
D22*
X155610000Y-95750000D03*
D21*
X119650000Y-119050000D03*
D22*
X98300000Y-99100000D03*
D21*
X116400000Y-105050000D03*
X121600000Y-106850000D03*
X90300000Y-78400000D03*
X118400000Y-80700000D03*
X119650000Y-77970000D03*
X120650000Y-87420000D03*
X119650000Y-98400000D03*
X121650000Y-77970000D03*
X120650000Y-83720000D03*
D22*
X95750000Y-96200000D03*
D21*
X101300000Y-75800000D03*
X122600000Y-106850000D03*
X120600000Y-115700000D03*
X119650000Y-112600000D03*
X122650000Y-103150000D03*
X100300000Y-74800000D03*
X121650000Y-103150000D03*
X122650000Y-112600000D03*
X110700000Y-72800000D03*
X120650000Y-97400000D03*
X121650000Y-105850000D03*
X122650000Y-111600000D03*
X120650000Y-84720000D03*
X85100000Y-71000000D03*
X122650000Y-104150000D03*
X121550000Y-101050000D03*
X122650000Y-105850000D03*
X122600000Y-88420000D03*
X120650000Y-112600000D03*
X121650000Y-119050000D03*
X120650000Y-111600000D03*
X120650000Y-77970000D03*
X121650000Y-112600000D03*
X119650000Y-84720000D03*
X92500000Y-79400000D03*
X121650000Y-78970000D03*
X92500000Y-78400000D03*
X100300000Y-75800000D03*
X90300000Y-79400000D03*
X96950000Y-110750000D03*
X91950000Y-113500000D03*
X121600000Y-88420000D03*
X120600000Y-106850000D03*
X115100000Y-73300000D03*
X120650000Y-78970000D03*
X116400000Y-113100000D03*
X119600000Y-88420000D03*
X119650000Y-105850000D03*
X119600000Y-106850000D03*
X120650000Y-103150000D03*
X122650000Y-84720000D03*
X119550000Y-101050000D03*
X122650000Y-97400000D03*
X88450000Y-113000000D03*
X121600000Y-115700000D03*
X120650000Y-119050000D03*
X121650000Y-111600000D03*
X122650000Y-77970000D03*
D22*
X148810000Y-97100000D03*
D21*
X119650000Y-103150000D03*
X84450000Y-111200000D03*
D22*
X94300000Y-97450000D03*
D21*
X120650000Y-98400000D03*
X99700000Y-108500000D03*
D22*
X163000000Y-95300000D03*
D21*
X121650000Y-104150000D03*
X100300000Y-73800000D03*
X116800000Y-88200000D03*
X119650000Y-111600000D03*
D22*
X100650000Y-103800000D03*
X144360000Y-95000000D03*
X82499500Y-103944989D03*
X93000000Y-85800000D03*
D21*
X121650000Y-97400000D03*
X116410000Y-96950000D03*
X94900000Y-79400000D03*
X101300000Y-73800000D03*
X122650000Y-114700000D03*
X121700000Y-93300000D03*
D22*
X155460000Y-92500000D03*
D21*
X120650000Y-104150000D03*
X122700000Y-93300000D03*
X120550000Y-101050000D03*
D22*
X88750000Y-91750000D03*
D21*
X122650000Y-119050000D03*
X120600000Y-88420000D03*
X121650000Y-83720000D03*
X119650000Y-114700000D03*
X84450000Y-109450000D03*
X121650000Y-87420000D03*
X119650000Y-78970000D03*
X119600000Y-115700000D03*
X120700000Y-93300000D03*
D22*
X148960000Y-93100000D03*
D21*
X120650000Y-105850000D03*
X122600000Y-115700000D03*
X101300000Y-74800000D03*
X121650000Y-84720000D03*
X121650000Y-98400000D03*
X106900000Y-71750000D03*
X121650000Y-114700000D03*
D22*
X83450000Y-119250000D03*
D21*
X119650000Y-97400000D03*
X122650000Y-78970000D03*
X122650000Y-83720000D03*
X120650000Y-114700000D03*
D22*
X102600000Y-102100000D03*
X89660000Y-113250000D03*
X94450000Y-113750000D03*
D21*
X112310000Y-96900000D03*
X109200000Y-70600000D03*
X154450000Y-96300000D03*
X101700000Y-99000000D03*
D22*
X91650000Y-110600000D03*
X90790030Y-103150000D03*
X90250000Y-99825000D03*
X90650000Y-107350000D03*
X79500000Y-104069270D03*
X91400000Y-89700000D03*
X85700000Y-104849500D03*
X86600000Y-105250500D03*
X80600000Y-105700000D03*
X80250000Y-104800000D03*
X85850000Y-105650000D03*
X94000000Y-90200000D03*
X82300000Y-99900000D03*
X81750000Y-100700000D03*
X82900000Y-108600000D03*
X88889500Y-105000000D03*
X136050000Y-69820000D03*
X134940900Y-120380000D03*
X135300000Y-100500000D03*
X135800000Y-111950000D03*
X136800000Y-72070000D03*
X136050000Y-102000000D03*
X136050000Y-71320000D03*
X137190900Y-120380000D03*
X135050000Y-108950000D03*
X137550000Y-72070000D03*
X137190900Y-119630000D03*
X136562300Y-111200000D03*
X135800000Y-108950000D03*
X135690900Y-117380000D03*
X136800000Y-103500000D03*
X135300000Y-101250000D03*
X137300000Y-79670000D03*
X134940900Y-87350000D03*
X136050000Y-102750000D03*
X135690900Y-119630000D03*
X137550000Y-72820000D03*
X135300000Y-70570000D03*
X137300000Y-81170000D03*
X135800000Y-78920000D03*
X136562300Y-80420000D03*
X136550000Y-78920000D03*
X137300000Y-80420000D03*
X135050000Y-78170000D03*
X136550000Y-81170000D03*
X137550000Y-102750000D03*
X136550000Y-78170000D03*
X136562300Y-110450000D03*
X136440900Y-87350000D03*
X135050000Y-110450000D03*
X137190900Y-88850000D03*
X137550000Y-70570000D03*
X135300000Y-72070000D03*
X135690900Y-88100000D03*
X135050000Y-79670000D03*
X135300000Y-71320000D03*
X136440900Y-120380000D03*
D21*
X95500000Y-75200000D03*
D22*
X137190900Y-87350000D03*
X135050000Y-80420000D03*
X136550000Y-111950000D03*
X136050000Y-100500000D03*
X135050000Y-78920000D03*
X135800000Y-80420000D03*
X136800000Y-102750000D03*
X136782300Y-70570000D03*
X136562300Y-79670000D03*
X136440900Y-89600000D03*
X134940900Y-88850000D03*
X134940900Y-117380000D03*
X136440900Y-88100000D03*
X136050000Y-103500000D03*
X135050000Y-111950000D03*
X135800000Y-109700000D03*
X137190900Y-117380000D03*
X135300000Y-103500000D03*
X134940900Y-119630000D03*
X137550000Y-103500000D03*
X136440900Y-86600000D03*
X136550000Y-108950000D03*
X136800000Y-72820000D03*
X136782300Y-71320000D03*
X135300000Y-72820000D03*
X136050000Y-70570000D03*
X137550000Y-100500000D03*
X136550000Y-109700000D03*
X135800000Y-81170000D03*
X137190900Y-88100000D03*
X135690900Y-86600000D03*
X135300000Y-102000000D03*
X135690900Y-89600000D03*
X135690900Y-120380000D03*
X135300000Y-69820000D03*
X137300000Y-109700000D03*
X137550000Y-102000000D03*
X135050000Y-111200000D03*
X134940900Y-89600000D03*
X137190900Y-89600000D03*
X137190900Y-86600000D03*
X137300000Y-111950000D03*
X136440900Y-117380000D03*
X136440900Y-118130000D03*
X134940900Y-118130000D03*
X136440900Y-118880000D03*
X136440900Y-119630000D03*
X135050000Y-109700000D03*
X137300000Y-110450000D03*
X136800000Y-100500000D03*
X135800000Y-110450000D03*
X135300000Y-102750000D03*
X136782300Y-102000000D03*
X137550000Y-101250000D03*
X136800000Y-69820000D03*
X137300000Y-78170000D03*
X134940900Y-118880000D03*
X134940900Y-88100000D03*
X137190900Y-118130000D03*
X137550000Y-69820000D03*
X135690900Y-87350000D03*
X136050000Y-101250000D03*
X135800000Y-78170000D03*
X137550000Y-71320000D03*
X135690900Y-88850000D03*
X136782300Y-101250000D03*
X137300000Y-78920000D03*
X137300000Y-111200000D03*
D21*
X94500000Y-74800000D03*
D22*
X134940900Y-86600000D03*
X136440900Y-88850000D03*
X135800000Y-79670000D03*
X135050000Y-81170000D03*
X137300000Y-108950000D03*
X136050000Y-72820000D03*
X135690900Y-118130000D03*
X135690900Y-118880000D03*
X136050000Y-72070000D03*
X137190900Y-118880000D03*
X135800000Y-111200000D03*
X140780900Y-102711400D03*
X146130900Y-103480000D03*
X141530900Y-102711400D03*
X143880900Y-103480000D03*
X146130900Y-101980000D03*
X144630900Y-101230000D03*
X144630900Y-100480000D03*
X140780900Y-100461400D03*
X146130900Y-101230000D03*
X143880900Y-102730000D03*
X145380900Y-100480000D03*
X141530900Y-101961400D03*
X141530900Y-103461400D03*
D21*
X111300000Y-103150000D03*
D22*
X143880900Y-101980000D03*
X144630900Y-103480000D03*
X145380900Y-102730000D03*
X144630900Y-102730000D03*
X144630900Y-101980000D03*
X145380900Y-101980000D03*
X141530900Y-101211400D03*
X143880900Y-101230000D03*
X146130900Y-100480000D03*
X140780900Y-103461400D03*
X145380900Y-103480000D03*
X141530900Y-100461400D03*
X143880900Y-100480000D03*
X146130900Y-102730000D03*
X140780900Y-101211400D03*
X140780900Y-101961400D03*
X145380900Y-101230000D03*
X146380900Y-110430000D03*
X145630900Y-111930000D03*
X144130900Y-109680000D03*
X145630900Y-110430000D03*
X146380900Y-109680000D03*
X141530900Y-109711400D03*
X140780900Y-108961400D03*
X141530900Y-110461400D03*
X140780900Y-109711400D03*
X144880900Y-110430000D03*
X144880900Y-109680000D03*
X145630900Y-109680000D03*
X141530900Y-111211400D03*
X140780900Y-111961400D03*
X141530900Y-111961400D03*
X144130900Y-111930000D03*
X145630900Y-111180000D03*
X145630900Y-108930000D03*
X146380900Y-108930000D03*
X140780900Y-110461400D03*
X144880900Y-111180000D03*
D21*
X118210000Y-114800000D03*
X112400000Y-110250000D03*
D22*
X141530900Y-108961400D03*
X144130900Y-108930000D03*
X144880900Y-108930000D03*
X140780900Y-111211400D03*
X146380900Y-111180000D03*
X144880900Y-111930000D03*
X144130900Y-110430000D03*
X144130900Y-111180000D03*
X146380900Y-111930000D03*
X146130900Y-118130000D03*
X141480900Y-119661400D03*
X146130900Y-120380000D03*
X141480900Y-118911400D03*
X144630900Y-118880000D03*
X153260000Y-120800000D03*
X143880900Y-119630000D03*
X146130900Y-118880000D03*
X145380900Y-120380000D03*
X143880900Y-117380000D03*
X144630900Y-120380000D03*
D21*
X112200000Y-117600000D03*
D22*
X145380900Y-119630000D03*
X144630900Y-118130000D03*
X140730900Y-119661400D03*
X143880900Y-120380000D03*
X144630900Y-119630000D03*
X141480900Y-117411400D03*
X146130900Y-119630000D03*
X141480900Y-118161400D03*
X140730900Y-118911400D03*
X145380900Y-118130000D03*
X141480900Y-120411400D03*
X140730900Y-118161400D03*
X144630900Y-117380000D03*
X143880900Y-118880000D03*
X143880900Y-118130000D03*
X146130900Y-117380000D03*
X145380900Y-117380000D03*
X140730900Y-120411400D03*
X145380900Y-118880000D03*
X140730900Y-117411400D03*
D21*
X109000000Y-103050000D03*
D22*
X139010000Y-99400000D03*
X148960000Y-99950000D03*
D21*
X107900000Y-98800000D03*
X108900000Y-111400000D03*
X138450000Y-107350000D03*
X146660000Y-106700000D03*
X106810000Y-113400000D03*
X88600000Y-79700000D03*
X105450000Y-78450000D03*
X138350000Y-68750000D03*
X147950000Y-68749500D03*
X118150000Y-77400000D03*
X108700000Y-75000000D03*
X138660000Y-77000000D03*
X107100000Y-85500000D03*
X146950000Y-76600000D03*
X106900000Y-82000000D03*
X138160000Y-116200000D03*
X119310000Y-120100000D03*
X108300000Y-120400000D03*
X106800000Y-115500000D03*
X146450000Y-115900000D03*
X113400000Y-88000000D03*
X105300000Y-70800000D03*
X106100000Y-75000000D03*
X138750000Y-85200000D03*
X108733180Y-93041682D03*
X108100000Y-90470000D03*
D22*
X146960000Y-84400000D03*
X163450000Y-97200000D03*
X158050000Y-97100000D03*
X154750000Y-94100000D03*
X83000000Y-105300000D03*
D21*
X110516647Y-93676913D03*
D22*
X96900000Y-91850500D03*
X82800000Y-106300000D03*
X147150000Y-94800000D03*
D21*
X109932064Y-94487633D03*
D22*
X97600000Y-92500000D03*
X145380900Y-72050000D03*
X143880900Y-71300000D03*
X146130900Y-71300000D03*
X141530900Y-72831400D03*
X140780900Y-72081400D03*
X145380900Y-71300000D03*
X145380900Y-69800000D03*
X145380900Y-72800000D03*
X143880900Y-70550000D03*
X140780900Y-70581400D03*
D21*
X113000000Y-77500000D03*
D22*
X144630900Y-69800000D03*
X146130900Y-72800000D03*
X144630900Y-72800000D03*
X141530900Y-72081400D03*
X141530900Y-71331400D03*
X141530900Y-70581400D03*
X146130900Y-70550000D03*
X144630900Y-71300000D03*
X154350000Y-70300000D03*
X140780900Y-72831400D03*
X144630900Y-70550000D03*
X145380900Y-70550000D03*
X143880900Y-72050000D03*
X140780900Y-71331400D03*
X143880900Y-69800000D03*
X140780900Y-69831400D03*
X143880900Y-72800000D03*
X144630900Y-72050000D03*
X141530900Y-69831400D03*
X146130900Y-72050000D03*
X146130900Y-69800000D03*
X145630900Y-80400000D03*
X140780900Y-80431400D03*
X140780900Y-78181400D03*
X144130900Y-79650000D03*
X144880900Y-80400000D03*
X144880900Y-81150000D03*
X146380900Y-80400000D03*
X141530900Y-78931400D03*
X144130900Y-80400000D03*
X140780900Y-78931400D03*
X144130900Y-78150000D03*
X145630900Y-81150000D03*
X144880900Y-79650000D03*
X144130900Y-81150000D03*
X140780900Y-81181400D03*
X141530900Y-81181400D03*
X145630900Y-78900000D03*
X141530900Y-78181400D03*
X145630900Y-78150000D03*
X144880900Y-78150000D03*
X140780900Y-79681400D03*
X145630900Y-79650000D03*
X144880900Y-78900000D03*
X144130900Y-78900000D03*
D21*
X111800000Y-85400000D03*
D22*
X141530900Y-80431400D03*
X146380900Y-81150000D03*
X146380900Y-79650000D03*
X141530900Y-79681400D03*
X146380900Y-78150000D03*
X146380900Y-78900000D03*
X146130900Y-88850000D03*
X143880900Y-88850000D03*
X146130900Y-86600000D03*
X144630900Y-89600000D03*
X144630900Y-88100000D03*
X145380900Y-88100000D03*
X145380900Y-87350000D03*
X140780900Y-88881400D03*
X144630900Y-88850000D03*
X143880900Y-87350000D03*
X140780900Y-88131400D03*
X146130900Y-87350000D03*
X143880900Y-88100000D03*
X145380900Y-89600000D03*
X143880900Y-89600000D03*
X145380900Y-86600000D03*
X141530900Y-87381400D03*
X140780900Y-89631400D03*
X141530900Y-88881400D03*
X146130900Y-88100000D03*
X145380900Y-88850000D03*
X144630900Y-86600000D03*
X141530900Y-89631400D03*
X146130900Y-89600000D03*
X141530900Y-88131400D03*
X140780900Y-86631400D03*
X140780900Y-87381400D03*
X143880900Y-86600000D03*
X141530900Y-86631400D03*
X144630900Y-87350000D03*
D21*
X113400000Y-92549500D03*
X103100000Y-95900000D03*
X116210000Y-118700000D03*
X104300000Y-73300000D03*
X114400000Y-79500000D03*
X102300000Y-120200000D03*
X117800000Y-110000000D03*
D23*
X83560000Y-71400000D03*
D21*
X116810000Y-99900000D03*
X118000000Y-84720011D03*
X118700000Y-89500000D03*
D22*
X83400000Y-107200000D03*
D21*
X109376567Y-95350500D03*
D22*
X98450000Y-93250000D03*
X155250000Y-98100000D03*
X84760000Y-113700000D03*
X90260000Y-111100000D03*
X95900000Y-107925500D03*
X100200000Y-106250000D03*
X97500000Y-107050000D03*
X98750000Y-107200000D03*
X98450000Y-94400000D03*
X147350000Y-96989500D03*
D21*
X110149527Y-96150500D03*
D22*
X84300000Y-107500000D03*
X89047034Y-102710213D03*
X87200000Y-102000000D03*
X85700000Y-101700000D03*
X88907572Y-103662141D03*
X158100000Y-93400000D03*
X163200000Y-93200000D03*
X91160000Y-114450000D03*
X83810000Y-117200000D03*
X84710000Y-117200000D03*
X91610000Y-117150000D03*
X86600000Y-100800000D03*
X86950000Y-99150000D03*
X86700000Y-100000000D03*
X94550000Y-108750000D03*
X102300000Y-110700000D03*
X98900000Y-112500000D03*
X94950000Y-110000000D03*
X99200000Y-114250000D03*
X96700000Y-113150000D03*
X100450000Y-116000000D03*
X97450000Y-114250000D03*
X112950000Y-115250000D03*
X99300000Y-106350000D03*
X98400000Y-105800000D03*
X112950000Y-114250000D03*
X113049177Y-91049500D03*
X96200000Y-101950000D03*
X113400000Y-89700000D03*
X95450000Y-101500000D03*
X97400000Y-105250000D03*
X112450000Y-106500000D03*
X113200000Y-106000000D03*
X97950000Y-104600000D03*
X95950000Y-100500000D03*
D21*
X111900000Y-87200000D03*
D22*
X95250000Y-100050000D03*
X97000000Y-103500000D03*
X113450000Y-100750000D03*
X112950000Y-99000000D03*
X96850000Y-102600000D03*
D21*
X114500000Y-75800000D03*
D22*
X95600000Y-97450000D03*
D21*
X114610000Y-77700000D03*
D22*
X96150000Y-98050000D03*
D21*
X107600000Y-70700000D03*
X112500000Y-71100000D03*
X110700000Y-70400000D03*
X115900000Y-71200000D03*
D22*
X89650000Y-110500000D03*
X83760000Y-113700000D03*
D24*
X88550000Y-88850000D02*
X89050000Y-88850000D01*
X81050000Y-82170000D02*
X82070000Y-82170000D01*
X82700000Y-86850000D02*
X82700000Y-89100000D01*
X82070000Y-82170000D02*
X82650000Y-82750000D01*
X82650000Y-82750000D02*
X82650000Y-86800000D01*
X82650000Y-86800000D02*
X82700000Y-86850000D01*
X82700000Y-89100000D02*
X82900000Y-89300000D01*
X82900000Y-89300000D02*
X82900000Y-90000000D01*
X82900000Y-90000000D02*
X84550000Y-91650000D01*
X84550000Y-91650000D02*
X85100000Y-91650000D01*
D25*
X84200000Y-80400000D02*
X83700000Y-79900000D01*
X83700000Y-79900000D02*
X83700000Y-77000000D01*
X83700000Y-77000000D02*
X81100000Y-74400000D01*
X81100000Y-74400000D02*
X75600000Y-74400000D01*
X75030000Y-73830000D02*
X75030000Y-71200000D01*
X75600000Y-74400000D02*
X75030000Y-73830000D01*
D24*
X96150000Y-98050000D02*
X96712467Y-98050000D01*
X96712467Y-98050000D02*
X104900000Y-89862467D01*
X104900000Y-89862467D02*
X104900000Y-86500000D01*
X117200000Y-93300000D02*
X117200000Y-92900000D01*
X114600000Y-90300000D02*
X114600000Y-83500000D01*
X114600000Y-83500000D02*
X113300000Y-82200000D01*
X113300000Y-82200000D02*
X109400000Y-82200000D01*
X109400000Y-82200000D02*
X107100000Y-84500000D01*
X107100000Y-84500000D02*
X105700000Y-84500000D01*
X117200000Y-92900000D02*
X114600000Y-90300000D01*
X105700000Y-84500000D02*
X105100000Y-85100000D01*
X105100000Y-85100000D02*
X96000000Y-85100000D01*
X96000000Y-85100000D02*
X92800000Y-88300000D01*
X92800000Y-88300000D02*
X92800000Y-90300000D01*
X91400000Y-89700000D02*
X91400000Y-88400000D01*
X91400000Y-88400000D02*
X95300000Y-84500000D01*
X108800000Y-81600000D02*
X113725000Y-81600000D01*
X115300000Y-89900000D02*
X118200000Y-92800000D01*
X95300000Y-84500000D02*
X104100000Y-84500000D01*
X104100000Y-84500000D02*
X104800000Y-83800000D01*
X104800000Y-83800000D02*
X106600000Y-83800000D01*
X106600000Y-83800000D02*
X108800000Y-81600000D01*
X118200000Y-92800000D02*
X118200000Y-93300000D01*
X113725000Y-81600000D02*
X115300000Y-83175000D01*
X115300000Y-83175000D02*
X115300000Y-89900000D01*
X104800000Y-82800000D02*
X104800000Y-82525000D01*
X104800000Y-82525000D02*
X107575000Y-79750000D01*
X107575000Y-79750000D02*
X112560000Y-79750000D01*
X112560000Y-79750000D02*
X114610000Y-77700000D01*
X114500000Y-75800000D02*
X113000000Y-75800000D01*
X113000000Y-75800000D02*
X111500000Y-77300000D01*
X111500000Y-77300000D02*
X105150000Y-77300000D01*
X99900000Y-82550000D02*
X99900000Y-82600000D01*
X105150000Y-77300000D02*
X99900000Y-82550000D01*
X95900000Y-107925500D02*
X93850000Y-105875500D01*
X93850000Y-105875500D02*
X93850000Y-103550000D01*
X86300000Y-92700000D02*
X86300000Y-92600000D01*
X93850000Y-103550000D02*
X91100000Y-100800000D01*
X91100000Y-100800000D02*
X91100000Y-97500000D01*
X91100000Y-97500000D02*
X86300000Y-92700000D01*
X86300000Y-92600000D02*
X85250000Y-91550000D01*
X75250000Y-89100000D02*
X75450000Y-89100000D01*
X75450000Y-89100000D02*
X75900000Y-88650000D01*
X75900000Y-88650000D02*
X80400000Y-88650000D01*
X80400000Y-88650000D02*
X85050000Y-93300000D01*
X85850000Y-105650000D02*
X85350000Y-105650000D01*
X84244511Y-104544511D02*
X80505489Y-104544511D01*
X80505489Y-104544511D02*
X80250000Y-104800000D01*
X85350000Y-105650000D02*
X84244511Y-104544511D01*
X97950000Y-104600000D02*
X98000000Y-104550000D01*
X98000000Y-104550000D02*
X111750000Y-104550000D01*
X111750000Y-104550000D02*
X113200000Y-106000000D01*
X99300000Y-106350000D02*
X99850000Y-106900000D01*
X99850000Y-106900000D02*
X103200000Y-106900000D01*
X103200000Y-106900000D02*
X111550000Y-115250000D01*
X111550000Y-115250000D02*
X112950000Y-115250000D01*
X116000000Y-93300000D02*
X114550000Y-94750000D01*
X114550000Y-94750000D02*
X114550000Y-101025000D01*
X97675000Y-106125000D02*
X98750000Y-107200000D01*
X114550000Y-101025000D02*
X113500000Y-102075000D01*
X113500000Y-102075000D02*
X105050000Y-102075000D01*
X105050000Y-102075000D02*
X104000000Y-103125000D01*
X104000000Y-103125000D02*
X98900000Y-103125000D01*
X96650000Y-104925000D02*
X96650000Y-105700000D01*
X98900000Y-103125000D02*
X98200000Y-103825000D01*
X98200000Y-103825000D02*
X97750000Y-103825000D01*
X97750000Y-103825000D02*
X96650000Y-104925000D01*
X96650000Y-105700000D02*
X97075000Y-106125000D01*
X97075000Y-106125000D02*
X97675000Y-106125000D01*
X113450000Y-100750000D02*
X111950000Y-100750000D01*
X111950000Y-100750000D02*
X111700000Y-101000000D01*
X111700000Y-101000000D02*
X100125000Y-101000000D01*
X100125000Y-101000000D02*
X98075000Y-103050000D01*
X98075000Y-103050000D02*
X97450000Y-103050000D01*
X97450000Y-103050000D02*
X97000000Y-103500000D01*
X96850000Y-102600000D02*
X97050000Y-102400000D01*
X97050000Y-102400000D02*
X97825000Y-102400000D01*
X97825000Y-102400000D02*
X99725000Y-100500000D01*
X99725000Y-100500000D02*
X111450000Y-100500000D01*
X111450000Y-100500000D02*
X112950000Y-99000000D01*
X95950000Y-100119245D02*
X105759623Y-90309622D01*
X105759623Y-90309622D02*
X106090378Y-90309622D01*
X95950000Y-100500000D02*
X95950000Y-100119245D01*
X106090378Y-90309622D02*
X109200000Y-87200000D01*
X109200000Y-87200000D02*
X111900000Y-87200000D01*
D25*
X90250000Y-99825000D02*
X90200000Y-99875000D01*
X90200000Y-99875000D02*
X90200000Y-102559970D01*
X90200000Y-102559970D02*
X90790030Y-103150000D01*
D24*
X86950000Y-99150000D02*
X86000000Y-99150000D01*
X80500000Y-97200000D02*
X78750000Y-98950000D01*
X86000000Y-99150000D02*
X84050000Y-97200000D01*
X84050000Y-97200000D02*
X80500000Y-97200000D01*
X86100000Y-100000000D02*
X83800000Y-97700000D01*
X86700000Y-100000000D02*
X86100000Y-100000000D01*
X83800000Y-97700000D02*
X81200000Y-97700000D01*
X81200000Y-97700000D02*
X78800000Y-100100000D01*
X78800000Y-100100000D02*
X78800000Y-100200000D01*
X86600000Y-100800000D02*
X86300000Y-100800000D01*
X86300000Y-100800000D02*
X83700000Y-98200000D01*
X83700000Y-98200000D02*
X81650000Y-98200000D01*
X81650000Y-98200000D02*
X78850000Y-101000000D01*
X82850000Y-98800000D02*
X83700000Y-98800000D01*
X83700000Y-98800000D02*
X86300000Y-101400000D01*
X86300000Y-101400000D02*
X88584659Y-101400000D01*
X88584659Y-101400000D02*
X89650000Y-102465341D01*
X89650000Y-102465341D02*
X89650000Y-102955085D01*
X89650000Y-102955085D02*
X88942944Y-103662141D01*
X88942944Y-103662141D02*
X88907572Y-103662141D01*
X85623328Y-101600000D02*
X82847838Y-101600000D01*
X82847838Y-101600000D02*
X82648327Y-101799511D01*
X78100000Y-101300000D02*
X78100000Y-89450000D01*
X82648327Y-101799511D02*
X78599511Y-101799511D01*
X78599511Y-101799511D02*
X78100000Y-101300000D01*
X87200000Y-102000000D02*
X86850000Y-102350000D01*
X77500000Y-101550000D02*
X77500000Y-90100000D01*
X86850000Y-102350000D02*
X78300000Y-102350000D01*
X78300000Y-102350000D02*
X77500000Y-101550000D01*
X89047034Y-102710213D02*
X88889787Y-102710213D01*
X77950000Y-102800000D02*
X76800000Y-101650000D01*
X76800000Y-101650000D02*
X76800000Y-90600000D01*
X76800000Y-90600000D02*
X76700000Y-90500000D01*
X88889787Y-102710213D02*
X88400000Y-103200000D01*
X88400000Y-103200000D02*
X84402852Y-103200000D01*
X84402852Y-103200000D02*
X84002852Y-102800000D01*
X84002852Y-102800000D02*
X77950000Y-102800000D01*
X78100000Y-89450000D02*
X78050000Y-89400000D01*
X83400000Y-88750000D02*
X83350000Y-88700000D01*
X83350000Y-88700000D02*
X83350000Y-81800000D01*
X83350000Y-81800000D02*
X81180000Y-79630000D01*
X81180000Y-79630000D02*
X81050000Y-79630000D01*
D26*
X109200000Y-70600000D02*
X108400000Y-69800000D01*
X108400000Y-69800000D02*
X104400000Y-69800000D01*
X99700000Y-72200000D02*
X98500000Y-73400000D01*
X104400000Y-69800000D02*
X102000000Y-72200000D01*
X102000000Y-72200000D02*
X99700000Y-72200000D01*
X98500000Y-73400000D02*
X98500000Y-83450000D01*
D24*
X79500000Y-104069270D02*
X80223781Y-103345489D01*
X80223781Y-103345489D02*
X83810969Y-103345489D01*
X83810969Y-103345489D02*
X85314980Y-104849500D01*
X85314980Y-104849500D02*
X85700000Y-104849500D01*
D26*
X103000000Y-87100000D02*
X96500000Y-87100000D01*
D24*
X88550000Y-88850000D02*
X87200000Y-90200000D01*
X87200000Y-90200000D02*
X87200000Y-92900000D01*
X87200000Y-92900000D02*
X91900000Y-97600000D01*
X91900000Y-99000000D02*
X94350000Y-101450000D01*
X91900000Y-97600000D02*
X91900000Y-99000000D01*
X94350000Y-101450000D02*
X94350000Y-104850000D01*
X94350000Y-104850000D02*
X96550000Y-107050000D01*
X96550000Y-107050000D02*
X97500000Y-107050000D01*
D26*
X118150000Y-77400000D02*
X117950000Y-77400000D01*
X117950000Y-77400000D02*
X115550000Y-75000000D01*
X115550000Y-75000000D02*
X115300000Y-75000000D01*
D24*
X105300000Y-72650000D02*
X105300000Y-70800000D01*
X106100000Y-75000000D02*
X106100000Y-73450000D01*
X106100000Y-73450000D02*
X105300000Y-72650000D01*
X99950000Y-89050000D02*
X100000000Y-89000000D01*
X99950000Y-93900000D02*
X99950000Y-89050000D01*
D26*
X118210000Y-114800000D02*
X118210000Y-112800000D01*
X118210000Y-112800000D02*
X117310000Y-111900000D01*
X117310000Y-111900000D02*
X114050000Y-111900000D01*
X114050000Y-111900000D02*
X112400000Y-110250000D01*
D24*
X102300000Y-110700000D02*
X101401952Y-110700000D01*
X101401952Y-110700000D02*
X100001952Y-109300000D01*
X100001952Y-109300000D02*
X95100000Y-109300000D01*
X95100000Y-109300000D02*
X94550000Y-108750000D01*
D26*
X113400000Y-85800000D02*
X113400000Y-88000000D01*
X112900000Y-82900000D02*
X112900000Y-85300000D01*
X112900000Y-85300000D02*
X113400000Y-85800000D01*
D24*
X95250000Y-100050000D02*
X95300000Y-100050000D01*
X95300000Y-100050000D02*
X109150000Y-86200000D01*
X109150000Y-86200000D02*
X112500000Y-86200000D01*
X104200000Y-93000000D02*
X102250000Y-94950000D01*
X102250000Y-94950000D02*
X102250000Y-96050000D01*
X113400000Y-89700000D02*
X113240332Y-89540332D01*
X97050000Y-101250000D02*
X95700000Y-101250000D01*
X95700000Y-101250000D02*
X95450000Y-101500000D01*
X113240332Y-89540332D02*
X107702162Y-89540332D01*
X107702162Y-89540332D02*
X104242494Y-93000000D01*
X104242494Y-93000000D02*
X104200000Y-93000000D01*
X102250000Y-96050000D02*
X97050000Y-101250000D01*
D26*
X104450000Y-96900000D02*
X102350000Y-99000000D01*
X102350000Y-99000000D02*
X101700000Y-99000000D01*
X112310000Y-96900000D02*
X104450000Y-96900000D01*
D25*
X90650000Y-107350000D02*
X90700000Y-107350000D01*
X90700000Y-107350000D02*
X91650000Y-108300000D01*
X91650000Y-108300000D02*
X91650000Y-110600000D01*
D24*
X80600000Y-105700000D02*
X80850000Y-105700000D01*
X86600000Y-106300000D02*
X86600000Y-105250500D01*
X83250000Y-108100000D02*
X84800000Y-108100000D01*
X80850000Y-105700000D02*
X83250000Y-108100000D01*
X84800000Y-108100000D02*
X86600000Y-106300000D01*
D26*
X108700000Y-75000000D02*
X115400000Y-75000000D01*
X112100000Y-120400000D02*
X108300000Y-120400000D01*
X119310000Y-120100000D02*
X112400000Y-120100000D01*
X112400000Y-120100000D02*
X112100000Y-120400000D01*
X108170000Y-90400000D02*
X108100000Y-90470000D01*
D24*
X90260000Y-111100000D02*
X87285000Y-111100000D01*
X90260000Y-111100000D02*
X90210000Y-111050000D01*
X87285000Y-111100000D02*
X84685000Y-113700000D01*
X97146096Y-111900000D02*
X97746096Y-112500000D01*
X94950000Y-111050000D02*
X95800000Y-111900000D01*
X94950000Y-110000000D02*
X94950000Y-111050000D01*
X95800000Y-111900000D02*
X97146096Y-111900000D01*
X97746096Y-112500000D02*
X98900000Y-112500000D01*
X98100000Y-113150000D02*
X99200000Y-114250000D01*
X96700000Y-113150000D02*
X98100000Y-113150000D01*
X99200000Y-116000000D02*
X100450000Y-116000000D01*
X97450000Y-114250000D02*
X99200000Y-116000000D01*
X98400000Y-105800000D02*
X98600000Y-105600000D01*
X104300000Y-105600000D02*
X112950000Y-114250000D01*
X98600000Y-105600000D02*
X104300000Y-105600000D01*
X96250000Y-101900000D02*
X97300000Y-101900000D01*
X97300000Y-101900000D02*
X101950000Y-97250000D01*
X102849638Y-97250000D02*
X108799638Y-91300000D01*
X108799638Y-91300000D02*
X112798677Y-91300000D01*
X112798677Y-91300000D02*
X113049177Y-91049500D01*
X96200000Y-101950000D02*
X96250000Y-101900000D01*
X101950000Y-97250000D02*
X102849638Y-97250000D01*
X97400000Y-105250000D02*
X97442642Y-105292642D01*
X111150000Y-105200000D02*
X112450000Y-106500000D01*
X97950000Y-105292642D02*
X98042642Y-105200000D01*
X98042642Y-105200000D02*
X111150000Y-105200000D01*
X97442642Y-105292642D02*
X97950000Y-105292642D01*
X99950000Y-93900000D02*
X96400000Y-97450000D01*
X96400000Y-97450000D02*
X95600000Y-97450000D01*
D26*
X107600000Y-70700000D02*
X108400000Y-71500000D01*
X112100000Y-71500000D02*
X112500000Y-71100000D01*
X108400000Y-71500000D02*
X112100000Y-71500000D01*
X115000000Y-70300000D02*
X115900000Y-71200000D01*
X110700000Y-70400000D02*
X110800000Y-70300000D01*
X110800000Y-70300000D02*
X115000000Y-70300000D01*
D24*
X89650000Y-110500000D02*
X89650000Y-110581801D01*
X89500001Y-110649999D02*
X86841801Y-110649999D01*
X89650000Y-110500000D02*
X89500001Y-110649999D01*
X86841801Y-110649999D02*
X83791800Y-113700000D01*
X83791800Y-113700000D02*
X83760000Y-113700000D01*
G04 #@! TA.AperFunction,Conductor*
G36*
X137798122Y-68318907D02*
G01*
X137834086Y-68368407D01*
X137834086Y-68429593D01*
X137827372Y-68444673D01*
X137825464Y-68447159D01*
X137764956Y-68593238D01*
X137744318Y-68750000D01*
X137764956Y-68906762D01*
X137825464Y-69052841D01*
X137921718Y-69178282D01*
X137926871Y-69182236D01*
X138010994Y-69246786D01*
X138045650Y-69297211D01*
X138044048Y-69358375D01*
X138028546Y-69386526D01*
X137980423Y-69447718D01*
X137980421Y-69447722D01*
X137976413Y-69452818D01*
X137919494Y-69585735D01*
X137899210Y-69661435D01*
X137881900Y-69792917D01*
X137881900Y-73988600D01*
X137899210Y-74120082D01*
X137919494Y-74195782D01*
X137964323Y-74307758D01*
X138050974Y-74423510D01*
X138106390Y-74478926D01*
X138137849Y-74503666D01*
X138196101Y-74549477D01*
X138196105Y-74549479D01*
X138201201Y-74553487D01*
X138207164Y-74556040D01*
X138207163Y-74556040D01*
X138270872Y-74583322D01*
X138316921Y-74623610D01*
X138330900Y-74674329D01*
X138330900Y-76446792D01*
X138311993Y-76504983D01*
X138292167Y-76525334D01*
X138231718Y-76571718D01*
X138135464Y-76697159D01*
X138074956Y-76843238D01*
X138054318Y-77000000D01*
X138074956Y-77156762D01*
X138135464Y-77302841D01*
X138231718Y-77428282D01*
X138247439Y-77440345D01*
X138282094Y-77490770D01*
X138280491Y-77551934D01*
X138257174Y-77588890D01*
X138221074Y-77624990D01*
X138193620Y-77659900D01*
X138150523Y-77714701D01*
X138150521Y-77714705D01*
X138146513Y-77719801D01*
X138089594Y-77852718D01*
X138069310Y-77928418D01*
X138052000Y-78059900D01*
X138052000Y-82388600D01*
X138069310Y-82520082D01*
X138089594Y-82595782D01*
X138134423Y-82707758D01*
X138221074Y-82823510D01*
X138276490Y-82878926D01*
X138293100Y-82891988D01*
X138327151Y-82942821D01*
X138330900Y-82969806D01*
X138330900Y-84726146D01*
X138310442Y-84786413D01*
X138225464Y-84897159D01*
X138164956Y-85043238D01*
X138144318Y-85200000D01*
X138164956Y-85356762D01*
X138225464Y-85502841D01*
X138229415Y-85507990D01*
X138310442Y-85613587D01*
X138330900Y-85673854D01*
X138330900Y-85925326D01*
X138322907Y-85964297D01*
X138290984Y-86038845D01*
X138289594Y-86042091D01*
X138269310Y-86117791D01*
X138252000Y-86249273D01*
X138252000Y-90988600D01*
X138269310Y-91120082D01*
X138289594Y-91195782D01*
X138290689Y-91198517D01*
X138323808Y-91281243D01*
X138330900Y-91318038D01*
X138330900Y-99860285D01*
X138309719Y-99921483D01*
X138250523Y-99996755D01*
X138250521Y-99996759D01*
X138246513Y-100001855D01*
X138189594Y-100134772D01*
X138169310Y-100210472D01*
X138152000Y-100341954D01*
X138152000Y-105888600D01*
X138169310Y-106020082D01*
X138189594Y-106095782D01*
X138234423Y-106207758D01*
X138238311Y-106212952D01*
X138238314Y-106212957D01*
X138311153Y-106310258D01*
X138330900Y-106369587D01*
X138330900Y-106683206D01*
X138311993Y-106741397D01*
X138269786Y-106774670D01*
X138147159Y-106825464D01*
X138021718Y-106921718D01*
X137925464Y-107047159D01*
X137864956Y-107193238D01*
X137844318Y-107350000D01*
X137864956Y-107506762D01*
X137925464Y-107652841D01*
X138021718Y-107778282D01*
X138026871Y-107782236D01*
X138095464Y-107834869D01*
X138130120Y-107885293D01*
X138128519Y-107946458D01*
X138113016Y-107974609D01*
X138050523Y-108054074D01*
X138050521Y-108054078D01*
X138046513Y-108059174D01*
X137989594Y-108192091D01*
X137969310Y-108267791D01*
X137952000Y-108399273D01*
X137952000Y-113388600D01*
X137969310Y-113520082D01*
X137989594Y-113595782D01*
X138034423Y-113707758D01*
X138121074Y-113823510D01*
X138176490Y-113878926D01*
X138271301Y-113953487D01*
X138277264Y-113956041D01*
X138282417Y-113959098D01*
X138322814Y-114005052D01*
X138330900Y-114044239D01*
X138330900Y-115503930D01*
X138311993Y-115562121D01*
X138262493Y-115598085D01*
X138218980Y-115602083D01*
X138160000Y-115594318D01*
X138003238Y-115614956D01*
X137857159Y-115675464D01*
X137731718Y-115771718D01*
X137635464Y-115897159D01*
X137574956Y-116043238D01*
X137554318Y-116200000D01*
X137574956Y-116356762D01*
X137635464Y-116502841D01*
X137731718Y-116628282D01*
X137857159Y-116724536D01*
X138003238Y-116785044D01*
X138009674Y-116785891D01*
X138015939Y-116787570D01*
X138015250Y-116790142D01*
X138060286Y-116811609D01*
X138089495Y-116865372D01*
X138087785Y-116909062D01*
X138069310Y-116978011D01*
X138052000Y-117109493D01*
X138052000Y-121188600D01*
X138069310Y-121320082D01*
X138089594Y-121395782D01*
X138090689Y-121398517D01*
X138108980Y-121444205D01*
X138113055Y-121505254D01*
X138080467Y-121557040D01*
X138023665Y-121579780D01*
X138017072Y-121580000D01*
X123679900Y-121580000D01*
X123621709Y-121561093D01*
X123585745Y-121511593D01*
X123580900Y-121481000D01*
X123580900Y-75931304D01*
X125837622Y-75931304D01*
X125846394Y-75939790D01*
X126109547Y-76063060D01*
X126114529Y-76065073D01*
X126447622Y-76179116D01*
X126452762Y-76180570D01*
X126796250Y-76257979D01*
X126801506Y-76258868D01*
X127151343Y-76298727D01*
X127156679Y-76299044D01*
X127508766Y-76300887D01*
X127514102Y-76300626D01*
X127864340Y-76264433D01*
X127869599Y-76263600D01*
X128213883Y-76189792D01*
X128219036Y-76188392D01*
X128553320Y-76077838D01*
X128558297Y-76075887D01*
X128855473Y-75940456D01*
X128863281Y-75933301D01*
X128857871Y-75922084D01*
X127361086Y-74425300D01*
X127349203Y-74419246D01*
X127344172Y-74420042D01*
X125842518Y-75921695D01*
X125837622Y-75931304D01*
X123580900Y-75931304D01*
X123580900Y-72991134D01*
X124045308Y-72991134D01*
X124063121Y-73342772D01*
X124063681Y-73348098D01*
X124119367Y-73695757D01*
X124120496Y-73700977D01*
X124213402Y-74040585D01*
X124215092Y-74045666D01*
X124344133Y-74373253D01*
X124346358Y-74378114D01*
X124411819Y-74502798D01*
X124420127Y-74510906D01*
X124429974Y-74505813D01*
X125924700Y-73011086D01*
X125929942Y-73000797D01*
X128769246Y-73000797D01*
X128770042Y-73005828D01*
X130270092Y-74505879D01*
X130280599Y-74511232D01*
X130288339Y-74503666D01*
X130339042Y-74409498D01*
X130341327Y-74404643D01*
X130473786Y-74078435D01*
X130475528Y-74073377D01*
X130571984Y-73734763D01*
X130573169Y-73729549D01*
X130632493Y-73382492D01*
X130633109Y-73377168D01*
X130654679Y-73024493D01*
X130654771Y-73021648D01*
X130654842Y-73001422D01*
X130654770Y-72998585D01*
X130635662Y-72645747D01*
X130635086Y-72640446D01*
X130578185Y-72292979D01*
X130577033Y-72287741D01*
X130482951Y-71948488D01*
X130481234Y-71943386D01*
X130351058Y-71616268D01*
X130348812Y-71611406D01*
X130288295Y-71497109D01*
X130279915Y-71488988D01*
X130270155Y-71494058D01*
X128775300Y-72988914D01*
X128769246Y-73000797D01*
X125929942Y-73000797D01*
X125930754Y-72999203D01*
X125929958Y-72994172D01*
X124430032Y-71494245D01*
X124419579Y-71488919D01*
X124411791Y-71496559D01*
X124356053Y-71600947D01*
X124353791Y-71605798D01*
X124222469Y-71932473D01*
X124220742Y-71937547D01*
X124125468Y-72276496D01*
X124124303Y-72281706D01*
X124066193Y-72628961D01*
X124065594Y-72634292D01*
X124045327Y-72985798D01*
X124045308Y-72991134D01*
X123580900Y-72991134D01*
X123580900Y-70067142D01*
X125837095Y-70067142D01*
X125842488Y-70078275D01*
X127338914Y-71574700D01*
X127350797Y-71580754D01*
X127355828Y-71579958D01*
X128857842Y-70077945D01*
X128862708Y-70068394D01*
X128853860Y-70059865D01*
X128579750Y-69932627D01*
X128574774Y-69930636D01*
X128241279Y-69817755D01*
X128236115Y-69816313D01*
X127892385Y-69740110D01*
X127887105Y-69739236D01*
X127537137Y-69700599D01*
X127531814Y-69700301D01*
X127179717Y-69699687D01*
X127174369Y-69699967D01*
X126824288Y-69737381D01*
X126819001Y-69738236D01*
X126474988Y-69813243D01*
X126469840Y-69814661D01*
X126135938Y-69926384D01*
X126130977Y-69928348D01*
X125844926Y-70059916D01*
X125837095Y-70067142D01*
X123580900Y-70067142D01*
X123580900Y-68399000D01*
X123599807Y-68340809D01*
X123649307Y-68304845D01*
X123679900Y-68300000D01*
X137739931Y-68300000D01*
X137798122Y-68318907D01*
G37*
G04 #@! TD.AperFunction*
G04 #@! TA.AperFunction,Conductor*
G36*
X146186813Y-84720284D02*
G01*
X146240613Y-84772968D01*
X146315380Y-84896424D01*
X146441382Y-85026902D01*
X146448468Y-85031539D01*
X146473729Y-85048069D01*
X146593159Y-85126222D01*
X146601094Y-85129173D01*
X146601096Y-85129174D01*
X146632753Y-85140947D01*
X146763168Y-85189448D01*
X146942961Y-85213438D01*
X146951389Y-85212671D01*
X146951392Y-85212671D01*
X147052414Y-85203477D01*
X147084878Y-85200522D01*
X147162105Y-85213861D01*
X147222315Y-85264027D01*
X147249377Y-85337577D01*
X147250000Y-85351299D01*
X147250000Y-90988600D01*
X147229716Y-91064300D01*
X147174300Y-91119716D01*
X147098600Y-91140000D01*
X142884081Y-91140000D01*
X142808381Y-91119716D01*
X142752965Y-91064300D01*
X142732681Y-90988600D01*
X142736868Y-90955463D01*
X142738055Y-90952338D01*
X142763299Y-90772717D01*
X142763616Y-90750000D01*
X142743397Y-90569745D01*
X142683745Y-90398448D01*
X142587626Y-90244624D01*
X142572952Y-90229847D01*
X142465778Y-90121922D01*
X142465774Y-90121919D01*
X142459815Y-90115918D01*
X142306666Y-90018727D01*
X142298696Y-90015889D01*
X142298694Y-90015888D01*
X142143760Y-89960719D01*
X142135790Y-89957881D01*
X142127389Y-89956879D01*
X142127388Y-89956879D01*
X142073834Y-89950493D01*
X141955680Y-89936404D01*
X141947269Y-89937288D01*
X141947267Y-89937288D01*
X141890132Y-89943293D01*
X141775288Y-89955364D01*
X141767278Y-89958091D01*
X141767277Y-89958091D01*
X141611592Y-90011090D01*
X141611591Y-90011091D01*
X141603579Y-90013818D01*
X141596370Y-90018253D01*
X141596368Y-90018254D01*
X141595600Y-90018727D01*
X141449088Y-90108862D01*
X141443038Y-90114787D01*
X141443035Y-90114789D01*
X141387460Y-90169213D01*
X141319493Y-90235771D01*
X141221235Y-90388238D01*
X141218340Y-90396192D01*
X141218339Y-90396194D01*
X141214611Y-90406438D01*
X141159197Y-90558685D01*
X141136463Y-90738640D01*
X141154163Y-90919160D01*
X141156835Y-90927192D01*
X141161365Y-90940811D01*
X141166013Y-91019043D01*
X141130922Y-91089118D01*
X141065494Y-91132260D01*
X141017705Y-91140000D01*
X140883083Y-91140000D01*
X140816712Y-91124677D01*
X140813815Y-91123264D01*
X140806666Y-91118727D01*
X140798693Y-91115888D01*
X140798691Y-91115887D01*
X140643760Y-91060719D01*
X140635790Y-91057881D01*
X140627389Y-91056879D01*
X140627388Y-91056879D01*
X140573834Y-91050493D01*
X140455680Y-91036404D01*
X140447269Y-91037288D01*
X140447267Y-91037288D01*
X140390132Y-91043293D01*
X140275288Y-91055364D01*
X140267278Y-91058091D01*
X140267277Y-91058091D01*
X140111592Y-91111090D01*
X140111591Y-91111091D01*
X140103579Y-91113818D01*
X140096368Y-91118254D01*
X140088712Y-91121857D01*
X140087958Y-91120255D01*
X140018179Y-91140000D01*
X138911400Y-91140000D01*
X138835700Y-91119716D01*
X138780284Y-91064300D01*
X138760000Y-90988600D01*
X138760000Y-86249273D01*
X138780284Y-86173573D01*
X138835700Y-86118157D01*
X138879922Y-86101182D01*
X139024519Y-86070446D01*
X139024525Y-86070444D01*
X139032288Y-86068794D01*
X139039533Y-86065568D01*
X139039537Y-86065567D01*
X139199503Y-85994346D01*
X139199507Y-85994344D01*
X139206752Y-85991118D01*
X139361253Y-85878866D01*
X139489040Y-85736944D01*
X139584527Y-85571556D01*
X139643542Y-85389928D01*
X139649045Y-85337577D01*
X139662675Y-85207888D01*
X139663504Y-85200000D01*
X139662085Y-85186497D01*
X139644372Y-85017965D01*
X139644371Y-85017961D01*
X139643542Y-85010072D01*
X139615245Y-84922982D01*
X139607188Y-84898185D01*
X139603086Y-84819922D01*
X139638666Y-84750094D01*
X139704393Y-84707410D01*
X139751178Y-84700000D01*
X146111113Y-84700000D01*
X146186813Y-84720284D01*
G37*
G04 #@! TD.AperFunction*
G04 #@! TA.AperFunction,Conductor*
G36*
X146804200Y-68620284D02*
G01*
X146859616Y-68675700D01*
X146879900Y-68751400D01*
X146879900Y-73988600D01*
X146859616Y-74064300D01*
X146804200Y-74119716D01*
X146728500Y-74140000D01*
X138541300Y-74140000D01*
X138465600Y-74119716D01*
X138410184Y-74064300D01*
X138389900Y-73988600D01*
X138389900Y-69792917D01*
X138410184Y-69717217D01*
X138465600Y-69661801D01*
X138509822Y-69644825D01*
X138632288Y-69618794D01*
X138639533Y-69615568D01*
X138639537Y-69615567D01*
X138799503Y-69544346D01*
X138799507Y-69544344D01*
X138806752Y-69541118D01*
X138961253Y-69428866D01*
X139089040Y-69286944D01*
X139184527Y-69121556D01*
X139243542Y-68939928D01*
X139263504Y-68750000D01*
X139263376Y-68748783D01*
X139282959Y-68675700D01*
X139338375Y-68620284D01*
X139414075Y-68600000D01*
X146728500Y-68600000D01*
X146804200Y-68620284D01*
G37*
G04 #@! TD.AperFunction*
G04 #@! TA.AperFunction,Conductor*
G36*
X147074300Y-99620284D02*
G01*
X147129716Y-99675700D01*
X147150000Y-99751400D01*
X147150000Y-105691183D01*
X147129716Y-105766883D01*
X147074300Y-105822299D01*
X146998600Y-105842583D01*
X146951815Y-105835173D01*
X146949531Y-105834431D01*
X146942288Y-105831206D01*
X146934536Y-105829558D01*
X146934532Y-105829557D01*
X146763246Y-105793149D01*
X146763244Y-105793149D01*
X146755487Y-105791500D01*
X146564513Y-105791500D01*
X146556756Y-105793149D01*
X146556754Y-105793149D01*
X146497738Y-105805694D01*
X146377712Y-105831206D01*
X146370467Y-105834432D01*
X146370463Y-105834433D01*
X146210497Y-105905654D01*
X146210493Y-105905656D01*
X146203248Y-105908882D01*
X146196828Y-105913546D01*
X146196827Y-105913547D01*
X146062578Y-106011085D01*
X145989413Y-106039171D01*
X145973587Y-106040000D01*
X138811400Y-106040000D01*
X138735700Y-106019716D01*
X138680284Y-105964300D01*
X138660000Y-105888600D01*
X138660000Y-100341954D01*
X138680284Y-100266254D01*
X138735700Y-100210838D01*
X138811400Y-100190554D01*
X138831424Y-100191884D01*
X138850138Y-100194381D01*
X138992961Y-100213438D01*
X139001389Y-100212671D01*
X139001392Y-100212671D01*
X139064573Y-100206921D01*
X139173600Y-100196998D01*
X139216150Y-100183173D01*
X139338061Y-100143562D01*
X139338064Y-100143561D01*
X139346108Y-100140947D01*
X139501912Y-100048069D01*
X139633266Y-99922982D01*
X139733643Y-99771902D01*
X139761855Y-99697634D01*
X139807697Y-99634073D01*
X139879180Y-99601948D01*
X139903386Y-99600000D01*
X146998600Y-99600000D01*
X147074300Y-99620284D01*
G37*
G04 #@! TD.AperFunction*
G04 #@! TA.AperFunction,Conductor*
G36*
X145986029Y-107320284D02*
G01*
X146022840Y-107350094D01*
X146048747Y-107378866D01*
X146203248Y-107491118D01*
X146210493Y-107494344D01*
X146210497Y-107494346D01*
X146370463Y-107565567D01*
X146370467Y-107565568D01*
X146377712Y-107568794D01*
X146497738Y-107594306D01*
X146556754Y-107606851D01*
X146556756Y-107606851D01*
X146564513Y-107608500D01*
X146755487Y-107608500D01*
X146763242Y-107606852D01*
X146763248Y-107606851D01*
X146767123Y-107606027D01*
X146769766Y-107606166D01*
X146771142Y-107606021D01*
X146771165Y-107606239D01*
X146845386Y-107610129D01*
X146911113Y-107652814D01*
X146946692Y-107722642D01*
X146950000Y-107754119D01*
X146950000Y-113388600D01*
X146929716Y-113464300D01*
X146874300Y-113519716D01*
X146798600Y-113540000D01*
X138611400Y-113540000D01*
X138535700Y-113519716D01*
X138480284Y-113464300D01*
X138460000Y-113388600D01*
X138460000Y-108399273D01*
X138480284Y-108323573D01*
X138535700Y-108268157D01*
X138579922Y-108251182D01*
X138724519Y-108220446D01*
X138724525Y-108220444D01*
X138732288Y-108218794D01*
X138739533Y-108215568D01*
X138739537Y-108215567D01*
X138899503Y-108144346D01*
X138899507Y-108144344D01*
X138906752Y-108141118D01*
X139061253Y-108028866D01*
X139189040Y-107886944D01*
X139284527Y-107721556D01*
X139343542Y-107539928D01*
X139354510Y-107435574D01*
X139382596Y-107362409D01*
X139443501Y-107313089D01*
X139505081Y-107300000D01*
X145910329Y-107300000D01*
X145986029Y-107320284D01*
G37*
G04 #@! TD.AperFunction*
G04 #@! TA.AperFunction,Conductor*
G36*
X145492030Y-115520284D02*
G01*
X145547446Y-115575700D01*
X145567730Y-115651400D01*
X145560320Y-115698185D01*
X145556458Y-115710072D01*
X145555629Y-115717961D01*
X145555628Y-115717965D01*
X145544017Y-115828444D01*
X145536496Y-115900000D01*
X145537325Y-115907888D01*
X145547272Y-116002524D01*
X145556458Y-116089928D01*
X145615473Y-116271556D01*
X145710960Y-116436944D01*
X145838747Y-116578866D01*
X145993248Y-116691118D01*
X146000493Y-116694344D01*
X146000497Y-116694346D01*
X146160463Y-116765567D01*
X146160467Y-116765568D01*
X146167712Y-116768794D01*
X146287738Y-116794306D01*
X146346754Y-116806851D01*
X146346756Y-116806851D01*
X146354513Y-116808500D01*
X146545487Y-116808500D01*
X146553244Y-116806851D01*
X146553246Y-116806851D01*
X146612262Y-116794306D01*
X146732288Y-116768794D01*
X146739539Y-116765566D01*
X146739541Y-116765565D01*
X146837021Y-116722165D01*
X146914426Y-116709905D01*
X146987591Y-116737991D01*
X147036911Y-116798897D01*
X147050000Y-116860476D01*
X147050000Y-121188600D01*
X147029716Y-121264300D01*
X146974300Y-121319716D01*
X146898600Y-121340000D01*
X138711400Y-121340000D01*
X138635700Y-121319716D01*
X138580284Y-121264300D01*
X138560000Y-121188600D01*
X138560000Y-117109493D01*
X138580284Y-117033793D01*
X138622409Y-116987008D01*
X138764832Y-116883531D01*
X138771253Y-116878866D01*
X138843257Y-116798897D01*
X138893729Y-116742843D01*
X138893731Y-116742840D01*
X138899040Y-116736944D01*
X138994527Y-116571556D01*
X139053542Y-116389928D01*
X139073504Y-116200000D01*
X139072675Y-116192112D01*
X139054372Y-116017965D01*
X139054371Y-116017961D01*
X139053542Y-116010072D01*
X138994527Y-115828444D01*
X138936016Y-115727100D01*
X138915732Y-115651400D01*
X138936016Y-115575700D01*
X138991432Y-115520284D01*
X139067132Y-115500000D01*
X145416330Y-115500000D01*
X145492030Y-115520284D01*
G37*
G04 #@! TD.AperFunction*
G04 #@! TA.AperFunction,Conductor*
G36*
X145975874Y-76620284D02*
G01*
X146031290Y-76675700D01*
X146050745Y-76735574D01*
X146056458Y-76789928D01*
X146115473Y-76971556D01*
X146210960Y-77136944D01*
X146338747Y-77278866D01*
X146493248Y-77391118D01*
X146500493Y-77394344D01*
X146500497Y-77394346D01*
X146660463Y-77465567D01*
X146660467Y-77465568D01*
X146667712Y-77468794D01*
X146787738Y-77494306D01*
X146846754Y-77506851D01*
X146846756Y-77506851D01*
X146854513Y-77508500D01*
X146898600Y-77508500D01*
X146974300Y-77528784D01*
X147029716Y-77584200D01*
X147050000Y-77659900D01*
X147050000Y-82388600D01*
X147029716Y-82464300D01*
X146974300Y-82519716D01*
X146898600Y-82540000D01*
X138711400Y-82540000D01*
X138635700Y-82519716D01*
X138580284Y-82464300D01*
X138560000Y-82388600D01*
X138560000Y-78059900D01*
X138580284Y-77984200D01*
X138635700Y-77928784D01*
X138711400Y-77908500D01*
X138755487Y-77908500D01*
X138763244Y-77906851D01*
X138763246Y-77906851D01*
X138822262Y-77894306D01*
X138942288Y-77868794D01*
X138949533Y-77865568D01*
X138949537Y-77865567D01*
X139109503Y-77794346D01*
X139109507Y-77794344D01*
X139116752Y-77791118D01*
X139271253Y-77678866D01*
X139399040Y-77536944D01*
X139437435Y-77470443D01*
X139490557Y-77378432D01*
X139494527Y-77371556D01*
X139553542Y-77189928D01*
X139559834Y-77130070D01*
X139572675Y-77007888D01*
X139573504Y-77000000D01*
X139571237Y-76978432D01*
X139554372Y-76817965D01*
X139554371Y-76817961D01*
X139553542Y-76810072D01*
X139549680Y-76798185D01*
X139549521Y-76795143D01*
X139549440Y-76794764D01*
X139549500Y-76794751D01*
X139545578Y-76719922D01*
X139581158Y-76650094D01*
X139646885Y-76607410D01*
X139693670Y-76600000D01*
X145900174Y-76600000D01*
X145975874Y-76620284D01*
G37*
G04 #@! TD.AperFunction*
M02*
