G04 #@! TF.GenerationSoftware,KiCad,Pcbnew,6.0.0-rc2*
G04 #@! TF.CreationDate,2022-06-17T00:24:21-07:00*
G04 #@! TF.ProjectId,RP2040_motor,52503230-3430-45f6-9d6f-746f722e6b69,REV1*
G04 #@! TF.SameCoordinates,Original*
G04 #@! TF.FileFunction,Legend,Top*
G04 #@! TF.FilePolarity,Positive*
%FSLAX46Y46*%
G04 Gerber Fmt 4.6, Leading zero omitted, Abs format (unit mm)*
G04 Created by KiCad (PCBNEW 6.0.0-rc2) date 2022-06-17 00:24:21*
%MOMM*%
%LPD*%
G01*
G04 APERTURE LIST*
G04 Aperture macros list*
%AMRoundRect*
0 Rectangle with rounded corners*
0 $1 Rounding radius*
0 $2 $3 $4 $5 $6 $7 $8 $9 X,Y pos of 4 corners*
0 Add a 4 corners polygon primitive as box body*
4,1,4,$2,$3,$4,$5,$6,$7,$8,$9,$2,$3,0*
0 Add four circle primitives for the rounded corners*
1,1,$1+$1,$2,$3*
1,1,$1+$1,$4,$5*
1,1,$1+$1,$6,$7*
1,1,$1+$1,$8,$9*
0 Add four rect primitives between the rounded corners*
20,1,$1+$1,$2,$3,$4,$5,0*
20,1,$1+$1,$4,$5,$6,$7,0*
20,1,$1+$1,$6,$7,$8,$9,0*
20,1,$1+$1,$8,$9,$2,$3,0*%
%AMFreePoly0*
4,1,37,0.536062,0.786062,0.551000,0.750000,0.551000,-0.750000,0.536062,-0.786062,0.500000,-0.801000,0.000000,-0.801000,-0.012525,-0.795812,-0.080875,-0.794559,-0.095149,-0.792248,-0.230464,-0.749973,-0.243516,-0.743747,-0.361526,-0.665192,-0.372306,-0.655554,-0.463526,-0.547035,-0.471167,-0.534759,-0.528262,-0.405000,-0.532150,-0.391073,-0.549733,-0.256613,-0.548336,-0.256430,-0.551000,-0.250000,
-0.551000,0.250000,-0.550512,0.251179,-0.550356,0.263956,-0.528545,0.404033,-0.524317,0.417860,-0.464069,0.546185,-0.456130,0.558271,-0.362286,0.664529,-0.351274,0.673901,-0.231379,0.749549,-0.218180,0.755454,-0.081873,0.794411,-0.067546,0.796373,-0.011990,0.796033,0.000000,0.801000,0.500000,0.801000,0.536062,0.786062,0.536062,0.786062,$1*%
%AMFreePoly1*
4,1,37,0.012349,0.795885,0.074216,0.795507,0.088518,0.793370,0.224339,0.752751,0.237465,0.746685,0.356427,0.669578,0.367324,0.660073,0.459862,0.552676,0.467652,0.540494,0.526329,0.411442,0.530388,0.397563,0.550485,0.257230,0.551000,0.250000,0.551000,-0.250000,0.550996,-0.250622,0.550847,-0.262838,0.550144,-0.270677,0.526624,-0.410478,0.522228,-0.424254,0.460416,-0.551833,
0.452330,-0.563821,0.357195,-0.668925,0.346069,-0.678161,0.225259,-0.752338,0.211989,-0.758081,0.075216,-0.795370,0.060866,-0.797157,0.011464,-0.796251,0.000000,-0.801000,-0.500000,-0.801000,-0.536062,-0.786062,-0.551000,-0.750000,-0.551000,0.750000,-0.536062,0.786062,-0.500000,0.801000,0.000000,0.801000,0.012349,0.795885,0.012349,0.795885,$1*%
G04 Aperture macros list end*
%ADD10C,0.200000*%
%ADD11C,0.300000*%
%ADD12C,0.150000*%
%ADD13C,0.120000*%
%ADD14RoundRect,0.294750X0.243750X0.456250X-0.243750X0.456250X-0.243750X-0.456250X0.243750X-0.456250X0*%
%ADD15RoundRect,0.276000X0.225000X0.250000X-0.225000X0.250000X-0.225000X-0.250000X0.225000X-0.250000X0*%
%ADD16RoundRect,0.276000X-0.250000X0.225000X-0.250000X-0.225000X0.250000X-0.225000X0.250000X0.225000X0*%
%ADD17RoundRect,0.276000X-0.225000X-0.250000X0.225000X-0.250000X0.225000X0.250000X-0.225000X0.250000X0*%
%ADD18RoundRect,0.276000X0.250000X-0.225000X0.250000X0.225000X-0.250000X0.225000X-0.250000X-0.225000X0*%
%ADD19RoundRect,0.198500X0.147500X0.172500X-0.147500X0.172500X-0.147500X-0.172500X0.147500X-0.172500X0*%
%ADD20RoundRect,0.051000X0.750000X-1.000000X0.750000X1.000000X-0.750000X1.000000X-0.750000X-1.000000X0*%
%ADD21RoundRect,0.051000X1.900000X-1.000000X1.900000X1.000000X-1.900000X1.000000X-1.900000X-1.000000X0*%
%ADD22RoundRect,0.201000X-0.150000X0.650000X-0.150000X-0.650000X0.150000X-0.650000X0.150000X0.650000X0*%
%ADD23RoundRect,0.251000X-0.200000X-0.275000X0.200000X-0.275000X0.200000X0.275000X-0.200000X0.275000X0*%
%ADD24RoundRect,0.251000X0.275000X-0.200000X0.275000X0.200000X-0.275000X0.200000X-0.275000X-0.200000X0*%
%ADD25RoundRect,0.294750X-0.456250X0.243750X-0.456250X-0.243750X0.456250X-0.243750X0.456250X0.243750X0*%
%ADD26RoundRect,0.101000X0.387500X0.050000X-0.387500X0.050000X-0.387500X-0.050000X0.387500X-0.050000X0*%
%ADD27RoundRect,0.101000X0.050000X0.387500X-0.050000X0.387500X-0.050000X-0.387500X0.050000X-0.387500X0*%
%ADD28RoundRect,0.195000X1.456000X1.456000X-1.456000X1.456000X-1.456000X-1.456000X1.456000X-1.456000X0*%
%ADD29RoundRect,0.301000X-0.250000X-0.475000X0.250000X-0.475000X0.250000X0.475000X-0.250000X0.475000X0*%
%ADD30FreePoly0,90.000000*%
%ADD31FreePoly1,90.000000*%
%ADD32RoundRect,0.301000X0.845000X-0.620000X0.845000X0.620000X-0.845000X0.620000X-0.845000X-0.620000X0*%
%ADD33O,2.292000X1.842000*%
%ADD34RoundRect,0.201000X-0.150000X0.825000X-0.150000X-0.825000X0.150000X-0.825000X0.150000X0.825000X0*%
%ADD35RoundRect,0.676000X-1.075000X0.625000X-1.075000X-0.625000X1.075000X-0.625000X1.075000X0.625000X0*%
%ADD36RoundRect,0.051000X0.600000X-0.450000X0.600000X0.450000X-0.600000X0.450000X-0.600000X-0.450000X0*%
%ADD37RoundRect,0.301000X1.500000X1.000000X-1.500000X1.000000X-1.500000X-1.000000X1.500000X-1.000000X0*%
%ADD38RoundRect,0.251000X-0.275000X0.200000X-0.275000X-0.200000X0.275000X-0.200000X0.275000X0.200000X0*%
%ADD39RoundRect,0.301000X-1.500000X-0.550000X1.500000X-0.550000X1.500000X0.550000X-1.500000X0.550000X0*%
%ADD40RoundRect,0.051000X0.300000X0.350000X-0.300000X0.350000X-0.300000X-0.350000X0.300000X-0.350000X0*%
%ADD41C,2.102000*%
%ADD42RoundRect,0.301000X0.362500X1.425000X-0.362500X1.425000X-0.362500X-1.425000X0.362500X-1.425000X0*%
%ADD43RoundRect,0.251000X0.200000X0.275000X-0.200000X0.275000X-0.200000X-0.275000X0.200000X-0.275000X0*%
%ADD44RoundRect,0.051000X0.635000X0.305000X-0.635000X0.305000X-0.635000X-0.305000X0.635000X-0.305000X0*%
%ADD45RoundRect,0.051000X0.510000X0.305000X-0.510000X0.305000X-0.510000X-0.305000X0.510000X-0.305000X0*%
%ADD46RoundRect,0.051000X1.905000X1.955000X-1.905000X1.955000X-1.905000X-1.955000X1.905000X-1.955000X0*%
%ADD47C,4.102000*%
%ADD48RoundRect,0.051000X-0.450000X-0.600000X0.450000X-0.600000X0.450000X0.600000X-0.450000X0.600000X0*%
%ADD49RoundRect,0.051000X-1.250000X-0.900000X1.250000X-0.900000X1.250000X0.900000X-1.250000X0.900000X0*%
%ADD50RoundRect,0.201000X0.825000X0.150000X-0.825000X0.150000X-0.825000X-0.150000X0.825000X-0.150000X0*%
%ADD51C,6.102000*%
%ADD52RoundRect,0.301000X-0.475000X0.250000X-0.475000X-0.250000X0.475000X-0.250000X0.475000X0.250000X0*%
%ADD53RoundRect,0.051000X-0.225000X0.300000X-0.225000X-0.300000X0.225000X-0.300000X0.225000X0.300000X0*%
%ADD54RoundRect,0.051000X2.750000X-1.075000X2.750000X1.075000X-2.750000X1.075000X-2.750000X-1.075000X0*%
%ADD55RoundRect,0.051000X-0.600000X0.450000X-0.600000X-0.450000X0.600000X-0.450000X0.600000X0.450000X0*%
%ADD56RoundRect,0.051000X0.375000X-0.450000X0.375000X0.450000X-0.375000X0.450000X-0.375000X-0.450000X0*%
%ADD57RoundRect,0.301000X0.250000X0.475000X-0.250000X0.475000X-0.250000X-0.475000X0.250000X-0.475000X0*%
%ADD58RoundRect,0.301000X0.620000X0.845000X-0.620000X0.845000X-0.620000X-0.845000X0.620000X-0.845000X0*%
%ADD59O,1.842000X2.292000*%
%ADD60RoundRect,0.051000X0.450000X0.600000X-0.450000X0.600000X-0.450000X-0.600000X0.450000X-0.600000X0*%
%ADD61RoundRect,0.151000X0.712500X0.100000X-0.712500X0.100000X-0.712500X-0.100000X0.712500X-0.100000X0*%
%ADD62RoundRect,0.051000X-0.700000X-0.600000X0.700000X-0.600000X0.700000X0.600000X-0.700000X0.600000X0*%
%ADD63RoundRect,0.051000X-0.127000X0.304800X-0.127000X-0.304800X0.127000X-0.304800X0.127000X0.304800X0*%
%ADD64RoundRect,0.051000X-0.596900X0.381000X-0.596900X-0.381000X0.596900X-0.381000X0.596900X0.381000X0*%
%ADD65RoundRect,0.301000X0.625000X-0.312500X0.625000X0.312500X-0.625000X0.312500X-0.625000X-0.312500X0*%
%ADD66C,0.752000*%
%ADD67RoundRect,0.051000X-0.150000X-0.575000X0.150000X-0.575000X0.150000X0.575000X-0.150000X0.575000X0*%
%ADD68O,1.102000X2.202000*%
%ADD69O,1.102000X1.702000*%
G04 APERTURE END LIST*
D10*
X124090476Y-68152380D02*
X124423809Y-69152380D01*
X124757142Y-68152380D01*
X125090476Y-69152380D02*
X125090476Y-68152380D01*
X125423809Y-68866666D01*
X125757142Y-68152380D01*
X125757142Y-69152380D01*
X126423809Y-68152380D02*
X126614285Y-68152380D01*
X126709523Y-68200000D01*
X126804761Y-68295238D01*
X126852380Y-68485714D01*
X126852380Y-68819047D01*
X126804761Y-69009523D01*
X126709523Y-69104761D01*
X126614285Y-69152380D01*
X126423809Y-69152380D01*
X126328571Y-69104761D01*
X126233333Y-69009523D01*
X126185714Y-68819047D01*
X126185714Y-68485714D01*
X126233333Y-68295238D01*
X126328571Y-68200000D01*
X126423809Y-68152380D01*
X127138095Y-68152380D02*
X127709523Y-68152380D01*
X127423809Y-69152380D02*
X127423809Y-68152380D01*
X117838095Y-68200000D02*
X117742857Y-68152380D01*
X117600000Y-68152380D01*
X117457142Y-68200000D01*
X117361904Y-68295238D01*
X117314285Y-68390476D01*
X117266666Y-68580952D01*
X117266666Y-68723809D01*
X117314285Y-68914285D01*
X117361904Y-69009523D01*
X117457142Y-69104761D01*
X117600000Y-69152380D01*
X117695238Y-69152380D01*
X117838095Y-69104761D01*
X117885714Y-69057142D01*
X117885714Y-68723809D01*
X117695238Y-68723809D01*
X118314285Y-69152380D02*
X118314285Y-68152380D01*
X118885714Y-69152380D01*
X118885714Y-68152380D01*
X119361904Y-69152380D02*
X119361904Y-68152380D01*
X119600000Y-68152380D01*
X119742857Y-68200000D01*
X119838095Y-68295238D01*
X119885714Y-68390476D01*
X119933333Y-68580952D01*
X119933333Y-68723809D01*
X119885714Y-68914285D01*
X119838095Y-69009523D01*
X119742857Y-69104761D01*
X119600000Y-69152380D01*
X119361904Y-69152380D01*
D11*
X156678571Y-69000000D02*
X157392857Y-69000000D01*
X156535714Y-69428571D02*
X157035714Y-67928571D01*
X157535714Y-69428571D01*
X157964285Y-68071428D02*
X158035714Y-68000000D01*
X158178571Y-67928571D01*
X158535714Y-67928571D01*
X158678571Y-68000000D01*
X158750000Y-68071428D01*
X158821428Y-68214285D01*
X158821428Y-68357142D01*
X158750000Y-68571428D01*
X157892857Y-69428571D01*
X158821428Y-69428571D01*
X157600000Y-115435714D02*
X157528571Y-115507142D01*
X157314285Y-115578571D01*
X157171428Y-115578571D01*
X156957142Y-115507142D01*
X156814285Y-115364285D01*
X156742857Y-115221428D01*
X156671428Y-114935714D01*
X156671428Y-114721428D01*
X156742857Y-114435714D01*
X156814285Y-114292857D01*
X156957142Y-114150000D01*
X157171428Y-114078571D01*
X157314285Y-114078571D01*
X157528571Y-114150000D01*
X157600000Y-114221428D01*
X159028571Y-115578571D02*
X158171428Y-115578571D01*
X158600000Y-115578571D02*
X158600000Y-114078571D01*
X158457142Y-114292857D01*
X158314285Y-114435714D01*
X158171428Y-114507142D01*
X156778571Y-99150000D02*
X157492857Y-99150000D01*
X156635714Y-99578571D02*
X157135714Y-98078571D01*
X157635714Y-99578571D01*
X158921428Y-99578571D02*
X158064285Y-99578571D01*
X158492857Y-99578571D02*
X158492857Y-98078571D01*
X158350000Y-98292857D01*
X158207142Y-98435714D01*
X158064285Y-98507142D01*
X157550000Y-84885714D02*
X157478571Y-84957142D01*
X157264285Y-85028571D01*
X157121428Y-85028571D01*
X156907142Y-84957142D01*
X156764285Y-84814285D01*
X156692857Y-84671428D01*
X156621428Y-84385714D01*
X156621428Y-84171428D01*
X156692857Y-83885714D01*
X156764285Y-83742857D01*
X156907142Y-83600000D01*
X157121428Y-83528571D01*
X157264285Y-83528571D01*
X157478571Y-83600000D01*
X157550000Y-83671428D01*
X158121428Y-83671428D02*
X158192857Y-83600000D01*
X158335714Y-83528571D01*
X158692857Y-83528571D01*
X158835714Y-83600000D01*
X158907142Y-83671428D01*
X158978571Y-83814285D01*
X158978571Y-83957142D01*
X158907142Y-84171428D01*
X158050000Y-85028571D01*
X158978571Y-85028571D01*
X157092857Y-76592857D02*
X157307142Y-76664285D01*
X157378571Y-76735714D01*
X157450000Y-76878571D01*
X157450000Y-77092857D01*
X157378571Y-77235714D01*
X157307142Y-77307142D01*
X157164285Y-77378571D01*
X156592857Y-77378571D01*
X156592857Y-75878571D01*
X157092857Y-75878571D01*
X157235714Y-75950000D01*
X157307142Y-76021428D01*
X157378571Y-76164285D01*
X157378571Y-76307142D01*
X157307142Y-76450000D01*
X157235714Y-76521428D01*
X157092857Y-76592857D01*
X156592857Y-76592857D01*
X158021428Y-76021428D02*
X158092857Y-75950000D01*
X158235714Y-75878571D01*
X158592857Y-75878571D01*
X158735714Y-75950000D01*
X158807142Y-76021428D01*
X158878571Y-76164285D01*
X158878571Y-76307142D01*
X158807142Y-76521428D01*
X157950000Y-77378571D01*
X158878571Y-77378571D01*
D10*
X99342857Y-88828571D02*
X99485714Y-88876190D01*
X99533333Y-88923809D01*
X99580952Y-89019047D01*
X99580952Y-89161904D01*
X99533333Y-89257142D01*
X99485714Y-89304761D01*
X99390476Y-89352380D01*
X99009523Y-89352380D01*
X99009523Y-88352380D01*
X99342857Y-88352380D01*
X99438095Y-88400000D01*
X99485714Y-88447619D01*
X99533333Y-88542857D01*
X99533333Y-88638095D01*
X99485714Y-88733333D01*
X99438095Y-88780952D01*
X99342857Y-88828571D01*
X99009523Y-88828571D01*
X100200000Y-88352380D02*
X100390476Y-88352380D01*
X100485714Y-88400000D01*
X100580952Y-88495238D01*
X100628571Y-88685714D01*
X100628571Y-89019047D01*
X100580952Y-89209523D01*
X100485714Y-89304761D01*
X100390476Y-89352380D01*
X100200000Y-89352380D01*
X100104761Y-89304761D01*
X100009523Y-89209523D01*
X99961904Y-89019047D01*
X99961904Y-88685714D01*
X100009523Y-88495238D01*
X100104761Y-88400000D01*
X100200000Y-88352380D01*
X101247619Y-88352380D02*
X101438095Y-88352380D01*
X101533333Y-88400000D01*
X101628571Y-88495238D01*
X101676190Y-88685714D01*
X101676190Y-89019047D01*
X101628571Y-89209523D01*
X101533333Y-89304761D01*
X101438095Y-89352380D01*
X101247619Y-89352380D01*
X101152380Y-89304761D01*
X101057142Y-89209523D01*
X101009523Y-89019047D01*
X101009523Y-88685714D01*
X101057142Y-88495238D01*
X101152380Y-88400000D01*
X101247619Y-88352380D01*
X101961904Y-88352380D02*
X102533333Y-88352380D01*
X102247619Y-89352380D02*
X102247619Y-88352380D01*
D11*
X157092857Y-106942857D02*
X157307142Y-107014285D01*
X157378571Y-107085714D01*
X157450000Y-107228571D01*
X157450000Y-107442857D01*
X157378571Y-107585714D01*
X157307142Y-107657142D01*
X157164285Y-107728571D01*
X156592857Y-107728571D01*
X156592857Y-106228571D01*
X157092857Y-106228571D01*
X157235714Y-106300000D01*
X157307142Y-106371428D01*
X157378571Y-106514285D01*
X157378571Y-106657142D01*
X157307142Y-106800000D01*
X157235714Y-106871428D01*
X157092857Y-106942857D01*
X156592857Y-106942857D01*
X158878571Y-107728571D02*
X158021428Y-107728571D01*
X158450000Y-107728571D02*
X158450000Y-106228571D01*
X158307142Y-106442857D01*
X158164285Y-106585714D01*
X158021428Y-106657142D01*
D12*
X82856666Y-80422380D02*
X82856666Y-81136666D01*
X82809047Y-81279523D01*
X82713809Y-81374761D01*
X82570952Y-81422380D01*
X82475714Y-81422380D01*
X83761428Y-80755714D02*
X83761428Y-81422380D01*
X83523333Y-80374761D02*
X83285238Y-81089047D01*
X83904285Y-81089047D01*
X82816666Y-101122380D02*
X82816666Y-101836666D01*
X82769047Y-101979523D01*
X82673809Y-102074761D01*
X82530952Y-102122380D01*
X82435714Y-102122380D01*
X83197619Y-101122380D02*
X83816666Y-101122380D01*
X83483333Y-101503333D01*
X83626190Y-101503333D01*
X83721428Y-101550952D01*
X83769047Y-101598571D01*
X83816666Y-101693809D01*
X83816666Y-101931904D01*
X83769047Y-102027142D01*
X83721428Y-102074761D01*
X83626190Y-102122380D01*
X83340476Y-102122380D01*
X83245238Y-102074761D01*
X83197619Y-102027142D01*
X83006666Y-73722380D02*
X83006666Y-74436666D01*
X82959047Y-74579523D01*
X82863809Y-74674761D01*
X82720952Y-74722380D01*
X82625714Y-74722380D01*
X83959047Y-73722380D02*
X83482857Y-73722380D01*
X83435238Y-74198571D01*
X83482857Y-74150952D01*
X83578095Y-74103333D01*
X83816190Y-74103333D01*
X83911428Y-74150952D01*
X83959047Y-74198571D01*
X84006666Y-74293809D01*
X84006666Y-74531904D01*
X83959047Y-74627142D01*
X83911428Y-74674761D01*
X83816190Y-74722380D01*
X83578095Y-74722380D01*
X83482857Y-74674761D01*
X83435238Y-74627142D01*
X86816666Y-89472380D02*
X86816666Y-90186666D01*
X86769047Y-90329523D01*
X86673809Y-90424761D01*
X86530952Y-90472380D01*
X86435714Y-90472380D01*
X87721428Y-89472380D02*
X87530952Y-89472380D01*
X87435714Y-89520000D01*
X87388095Y-89567619D01*
X87292857Y-89710476D01*
X87245238Y-89900952D01*
X87245238Y-90281904D01*
X87292857Y-90377142D01*
X87340476Y-90424761D01*
X87435714Y-90472380D01*
X87626190Y-90472380D01*
X87721428Y-90424761D01*
X87769047Y-90377142D01*
X87816666Y-90281904D01*
X87816666Y-90043809D01*
X87769047Y-89948571D01*
X87721428Y-89900952D01*
X87626190Y-89853333D01*
X87435714Y-89853333D01*
X87340476Y-89900952D01*
X87292857Y-89948571D01*
X87245238Y-90043809D01*
X82736666Y-111322380D02*
X82736666Y-112036666D01*
X82689047Y-112179523D01*
X82593809Y-112274761D01*
X82450952Y-112322380D01*
X82355714Y-112322380D01*
X83165238Y-111417619D02*
X83212857Y-111370000D01*
X83308095Y-111322380D01*
X83546190Y-111322380D01*
X83641428Y-111370000D01*
X83689047Y-111417619D01*
X83736666Y-111512857D01*
X83736666Y-111608095D01*
X83689047Y-111750952D01*
X83117619Y-112322380D01*
X83736666Y-112322380D01*
D13*
X98963578Y-100310000D02*
X98446422Y-100310000D01*
X98963578Y-98890000D02*
X98446422Y-98890000D01*
X85495580Y-110780000D02*
X85214420Y-110780000D01*
X85495580Y-111800000D02*
X85214420Y-111800000D01*
X88070000Y-110794420D02*
X88070000Y-111075580D01*
X89090000Y-110794420D02*
X89090000Y-111075580D01*
X98724420Y-102440000D02*
X99005580Y-102440000D01*
X98724420Y-103460000D02*
X99005580Y-103460000D01*
X103250000Y-115835580D02*
X103250000Y-115554420D01*
X104270000Y-115835580D02*
X104270000Y-115554420D01*
X104190000Y-92190000D02*
X102930000Y-92190000D01*
X97370000Y-98200000D02*
X97370000Y-92190000D01*
X97370000Y-92190000D02*
X98630000Y-92190000D01*
X104190000Y-95950000D02*
X104190000Y-92190000D01*
X102380000Y-111135000D02*
X102380000Y-109460000D01*
X97190000Y-113860000D02*
X97190000Y-111135000D01*
X102640000Y-113860000D02*
X102640000Y-111135000D01*
X97190000Y-111135000D02*
X97450000Y-111135000D01*
X102640000Y-113860000D02*
X102640000Y-116585000D01*
X102640000Y-111135000D02*
X102380000Y-111135000D01*
X102640000Y-116585000D02*
X102380000Y-116585000D01*
X97190000Y-116585000D02*
X97450000Y-116585000D01*
X97190000Y-113860000D02*
X97190000Y-116585000D01*
X90035580Y-95560000D02*
X89754420Y-95560000D01*
X90035580Y-94540000D02*
X89754420Y-94540000D01*
X102237742Y-108432500D02*
X102712258Y-108432500D01*
X102237742Y-107387500D02*
X102712258Y-107387500D01*
X91540000Y-111944420D02*
X91540000Y-112225580D01*
X90520000Y-111944420D02*
X90520000Y-112225580D01*
X84085580Y-102690000D02*
X83804420Y-102690000D01*
X84085580Y-103710000D02*
X83804420Y-103710000D01*
X90859000Y-97505580D02*
X90859000Y-97224420D01*
X89839000Y-97505580D02*
X89839000Y-97224420D01*
X84657500Y-114972258D02*
X84657500Y-114497742D01*
X85702500Y-114972258D02*
X85702500Y-114497742D01*
X88220000Y-97505580D02*
X88220000Y-97224420D01*
X89240000Y-97505580D02*
X89240000Y-97224420D01*
X102880000Y-100088922D02*
X102880000Y-100606078D01*
X104300000Y-100088922D02*
X104300000Y-100606078D01*
X97724420Y-107790000D02*
X98005580Y-107790000D01*
X97724420Y-108810000D02*
X98005580Y-108810000D01*
X85435580Y-110210000D02*
X85154420Y-110210000D01*
X85435580Y-109190000D02*
X85154420Y-109190000D01*
X87770000Y-101040000D02*
X87770000Y-101690000D01*
X94340000Y-101040000D02*
X94990000Y-101040000D01*
X94340000Y-108260000D02*
X94990000Y-108260000D01*
X88420000Y-101040000D02*
X87770000Y-101040000D01*
X87770000Y-108260000D02*
X87770000Y-107610000D01*
X88420000Y-108260000D02*
X87770000Y-108260000D01*
X94990000Y-101040000D02*
X94990000Y-101690000D01*
X94630000Y-92365580D02*
X94630000Y-92084420D01*
X95650000Y-92365580D02*
X95650000Y-92084420D01*
X83902500Y-114972258D02*
X83902500Y-114497742D01*
X82857500Y-114972258D02*
X82857500Y-114497742D01*
X93140000Y-112044420D02*
X93140000Y-112325580D01*
X92120000Y-112044420D02*
X92120000Y-112325580D01*
X85435580Y-108560000D02*
X85154420Y-108560000D01*
X85435580Y-107540000D02*
X85154420Y-107540000D01*
X92802500Y-97272258D02*
X92802500Y-96797742D01*
X91757500Y-97272258D02*
X91757500Y-96797742D01*
X102250000Y-100116422D02*
X102250000Y-100633578D01*
X100830000Y-100116422D02*
X100830000Y-100633578D01*
X113889680Y-73530000D02*
X113608520Y-73530000D01*
X113889680Y-72510000D02*
X113608520Y-72510000D01*
X113019648Y-103515000D02*
X113542152Y-103515000D01*
X113019648Y-102045000D02*
X113542152Y-102045000D01*
X105490000Y-76400000D02*
X104890000Y-76400000D01*
X104190000Y-75700000D02*
X104190000Y-74300000D01*
X106190000Y-74300000D02*
X106190000Y-75700000D01*
X104890000Y-73600000D02*
X105490000Y-73600000D01*
X104190000Y-75700000D02*
G75*
G03*
X104890000Y-76400000I699999J-1D01*
G01*
X104890000Y-73600000D02*
G75*
G03*
X104190000Y-74300000I-1J-699999D01*
G01*
X105490000Y-76400000D02*
G75*
G03*
X106190000Y-75700000I1J699999D01*
G01*
X106190000Y-74300000D02*
G75*
G03*
X105490000Y-73600000I-699999J1D01*
G01*
X75820000Y-81880000D02*
X76420000Y-81880000D01*
X76420000Y-82820000D02*
X75820000Y-82820000D01*
X75820000Y-79700000D02*
X75820000Y-90080000D01*
X76420000Y-84420000D02*
X76420000Y-82820000D01*
X76420000Y-89500000D02*
X76420000Y-87900000D01*
X76420000Y-87900000D02*
X75820000Y-87900000D01*
X76420000Y-86960000D02*
X76420000Y-85360000D01*
X76850000Y-90370000D02*
X80850000Y-90370000D01*
X75820000Y-84420000D02*
X76420000Y-84420000D01*
X80310000Y-88450000D02*
X80310000Y-81330000D01*
X76420000Y-81880000D02*
X76420000Y-80280000D01*
X81840000Y-88700000D02*
X80840000Y-88700000D01*
X76420000Y-80280000D02*
X75820000Y-80280000D01*
X80840000Y-88700000D02*
X80310000Y-88450000D01*
X80840000Y-81080000D02*
X81840000Y-81080000D01*
X81840000Y-88450000D02*
X80840000Y-88450000D01*
X81840000Y-90080000D02*
X81840000Y-79700000D01*
X75820000Y-89500000D02*
X76420000Y-89500000D01*
X80840000Y-88700000D02*
X80840000Y-81080000D01*
X76420000Y-85360000D02*
X75820000Y-85360000D01*
X80310000Y-81330000D02*
X80840000Y-81080000D01*
X75820000Y-90080000D02*
X81840000Y-90080000D01*
X81840000Y-81330000D02*
X80840000Y-81330000D01*
X81840000Y-79700000D02*
X75820000Y-79700000D01*
X75820000Y-86960000D02*
X76420000Y-86960000D01*
X93900000Y-78300000D02*
X93900000Y-80250000D01*
X93900000Y-78300000D02*
X93900000Y-74850000D01*
X88780000Y-78300000D02*
X88780000Y-76350000D01*
X88780000Y-78300000D02*
X88780000Y-80250000D01*
X116740000Y-104050000D02*
X116740000Y-100150000D01*
X118740000Y-104050000D02*
X118740000Y-100150000D01*
X116740000Y-104050000D02*
X118740000Y-104050000D01*
X128960000Y-119845563D02*
X128960000Y-118160000D01*
X120440000Y-112390000D02*
X120440000Y-115140000D01*
X128960000Y-113454437D02*
X128960000Y-115140000D01*
X127895563Y-120910000D02*
X120440000Y-120910000D01*
X120440000Y-120910000D02*
X120440000Y-118160000D01*
X130200000Y-119160000D02*
X129200000Y-119160000D01*
X128960000Y-119845563D02*
X127895563Y-120910000D01*
X127895563Y-112390000D02*
X120440000Y-112390000D01*
X129700000Y-119660000D02*
X129700000Y-118660000D01*
X128960000Y-113454437D02*
X127895563Y-112390000D01*
X107167500Y-112587742D02*
X107167500Y-113062258D01*
X108212500Y-112587742D02*
X108212500Y-113062258D01*
X96509437Y-74830000D02*
X102265000Y-74830000D01*
X94417500Y-69572500D02*
X95205000Y-69572500D01*
X95445000Y-69074437D02*
X95445000Y-70360000D01*
X96509437Y-68010000D02*
X102265000Y-68010000D01*
X95445000Y-69074437D02*
X96509437Y-68010000D01*
X94811250Y-69178750D02*
X94811250Y-69966250D01*
X102265000Y-68010000D02*
X102265000Y-70360000D01*
X95445000Y-73765563D02*
X95445000Y-72480000D01*
X95445000Y-73765563D02*
X96509437Y-74830000D01*
X102265000Y-74830000D02*
X102265000Y-72480000D01*
X100690000Y-80250000D02*
X98840000Y-80250000D01*
X100690000Y-79050000D02*
X98840000Y-79050000D01*
X98840000Y-79050000D02*
X98840000Y-80250000D01*
X96240000Y-83500000D02*
X96240000Y-85000000D01*
X97490000Y-87500000D02*
X101990000Y-87500000D01*
X103240000Y-85000000D02*
X103240000Y-83500000D01*
X101990000Y-81000000D02*
X97490000Y-81000000D01*
X153477064Y-112430000D02*
X149122936Y-112430000D01*
X153477064Y-115850000D02*
X149122936Y-115850000D01*
X144630580Y-96790000D02*
X144349420Y-96790000D01*
X144630580Y-97810000D02*
X144349420Y-97810000D01*
X144717258Y-91187500D02*
X144242742Y-91187500D01*
X144717258Y-92232500D02*
X144242742Y-92232500D01*
X146495000Y-115730000D02*
X140605000Y-115730000D01*
X146950000Y-120870000D02*
X140605000Y-120870000D01*
X158087500Y-92582742D02*
X158087500Y-93057258D01*
X159132500Y-92582742D02*
X159132500Y-93057258D01*
X153477064Y-82550000D02*
X149122936Y-82550000D01*
X153477064Y-85970000D02*
X149122936Y-85970000D01*
X82717500Y-94262742D02*
X82717500Y-94737258D01*
X83762500Y-94262742D02*
X83762500Y-94737258D01*
X158136600Y-96602258D02*
X158136600Y-96127742D01*
X159181600Y-96602258D02*
X159181600Y-96127742D01*
X118070000Y-80760320D02*
X118070000Y-81041480D01*
X117050000Y-80760320D02*
X117050000Y-81041480D01*
X150850000Y-67970000D02*
X154750000Y-67970000D01*
X150850000Y-67970000D02*
X150850000Y-69970000D01*
X150850000Y-69970000D02*
X154750000Y-69970000D01*
X84357500Y-94272742D02*
X84357500Y-94747258D01*
X85402500Y-94272742D02*
X85402500Y-94747258D01*
X84182742Y-118382500D02*
X84657258Y-118382500D01*
X84182742Y-117337500D02*
X84657258Y-117337500D01*
X146495000Y-68159500D02*
X140605000Y-68159500D01*
X146950000Y-73299500D02*
X140605000Y-73299500D01*
X107336500Y-96077742D02*
X107336500Y-96552258D01*
X108381500Y-96077742D02*
X108381500Y-96552258D01*
X108946500Y-77497742D02*
X108946500Y-77972258D01*
X109991500Y-77497742D02*
X109991500Y-77972258D01*
X133821000Y-104875000D02*
X133821000Y-106875000D01*
X133821000Y-104875000D02*
X137721000Y-104875000D01*
X133821000Y-106875000D02*
X137721000Y-106875000D01*
X84597258Y-119047500D02*
X84122742Y-119047500D01*
X84597258Y-120092500D02*
X84122742Y-120092500D01*
X96585000Y-75250000D02*
X96585000Y-78550000D01*
X96585000Y-78550000D02*
X101985000Y-78550000D01*
X96585000Y-75250000D02*
X101985000Y-75250000D01*
X113409648Y-93365000D02*
X113932152Y-93365000D01*
X113409648Y-94835000D02*
X113932152Y-94835000D01*
X112449100Y-109810000D02*
X110499100Y-109810000D01*
X112449100Y-104690000D02*
X110499100Y-104690000D01*
X112449100Y-109810000D02*
X115899100Y-109810000D01*
X112449100Y-104690000D02*
X114399100Y-104690000D01*
X75820000Y-93200000D02*
X76420000Y-93200000D01*
X75820000Y-106480000D02*
X81840000Y-106480000D01*
X76420000Y-101760000D02*
X75820000Y-101760000D01*
X80840000Y-105100000D02*
X80840000Y-92400000D01*
X76420000Y-99220000D02*
X75820000Y-99220000D01*
X80310000Y-92650000D02*
X80840000Y-92400000D01*
X75820000Y-103360000D02*
X76420000Y-103360000D01*
X76420000Y-105900000D02*
X76420000Y-104300000D01*
X75820000Y-105900000D02*
X76420000Y-105900000D01*
X81840000Y-92650000D02*
X80840000Y-92650000D01*
X76850000Y-106770000D02*
X80850000Y-106770000D01*
X81840000Y-106480000D02*
X81840000Y-91020000D01*
X76420000Y-100820000D02*
X76420000Y-99220000D01*
X76420000Y-104300000D02*
X75820000Y-104300000D01*
X75820000Y-91020000D02*
X75820000Y-106480000D01*
X76420000Y-91600000D02*
X75820000Y-91600000D01*
X76420000Y-103360000D02*
X76420000Y-101760000D01*
X76420000Y-94140000D02*
X75820000Y-94140000D01*
X75820000Y-98280000D02*
X76420000Y-98280000D01*
X76420000Y-98280000D02*
X76420000Y-96680000D01*
X80840000Y-105100000D02*
X80310000Y-104850000D01*
X81840000Y-91020000D02*
X75820000Y-91020000D01*
X76420000Y-93200000D02*
X76420000Y-91600000D01*
X80840000Y-92400000D02*
X81840000Y-92400000D01*
X75820000Y-100820000D02*
X76420000Y-100820000D01*
X81840000Y-104850000D02*
X80840000Y-104850000D01*
X80310000Y-104850000D02*
X80310000Y-92650000D01*
X81840000Y-105100000D02*
X80840000Y-105100000D01*
X76420000Y-95740000D02*
X76420000Y-94140000D01*
X75820000Y-95740000D02*
X76420000Y-95740000D01*
X76420000Y-96680000D02*
X75820000Y-96680000D01*
X120440000Y-84880000D02*
X120440000Y-82130000D01*
X128960000Y-83815563D02*
X127895563Y-84880000D01*
X127895563Y-76360000D02*
X120440000Y-76360000D01*
X128960000Y-77424437D02*
X128960000Y-79110000D01*
X127895563Y-84880000D02*
X120440000Y-84880000D01*
X128960000Y-77424437D02*
X127895563Y-76360000D01*
X120440000Y-76360000D02*
X120440000Y-79110000D01*
X128960000Y-83815563D02*
X128960000Y-82130000D01*
X130200000Y-83130000D02*
X129200000Y-83130000D01*
X129700000Y-83630000D02*
X129700000Y-82630000D01*
X85665000Y-69533748D02*
X85665000Y-70056252D01*
X87135000Y-69533748D02*
X87135000Y-70056252D01*
X108291500Y-100677742D02*
X108291500Y-101152258D01*
X107246500Y-100677742D02*
X107246500Y-101152258D01*
X84387500Y-91437258D02*
X84387500Y-90962742D01*
X85432500Y-91437258D02*
X85432500Y-90962742D01*
X155881020Y-95135000D02*
X156162180Y-95135000D01*
X155881020Y-96155000D02*
X156162180Y-96155000D01*
X105150000Y-86195000D02*
X105150000Y-88745000D01*
X106850000Y-86195000D02*
X105150000Y-86195000D01*
X106850000Y-86195000D02*
X106850000Y-88745000D01*
X154044400Y-96722258D02*
X154044400Y-96247742D01*
X152999400Y-96722258D02*
X152999400Y-96247742D01*
X118740000Y-120950000D02*
X118740000Y-117050000D01*
X116740000Y-120950000D02*
X116740000Y-117050000D01*
X116740000Y-120950000D02*
X118740000Y-120950000D01*
X155859420Y-94080000D02*
X156140580Y-94080000D01*
X155859420Y-93060000D02*
X156140580Y-93060000D01*
X144630580Y-92840000D02*
X144349420Y-92840000D01*
X144630580Y-93860000D02*
X144349420Y-93860000D01*
X146950000Y-81640000D02*
X140605000Y-81640000D01*
X146495000Y-76500000D02*
X140605000Y-76500000D01*
X93895000Y-67720000D02*
X92695000Y-67720000D01*
X87495000Y-67720000D02*
X88695000Y-67720000D01*
X87495000Y-67720000D02*
X87495000Y-69120000D01*
X93895000Y-74520000D02*
X92695000Y-74520000D01*
X87495000Y-74520000D02*
X88695000Y-74520000D01*
X93895000Y-67720000D02*
X93895000Y-69120000D01*
X87495000Y-74520000D02*
X87495000Y-73120000D01*
X93895000Y-74520000D02*
X93895000Y-73120000D01*
X76850000Y-79020000D02*
X80850000Y-79020000D01*
X76420000Y-73070000D02*
X76420000Y-71470000D01*
X80840000Y-77350000D02*
X80310000Y-77100000D01*
X75820000Y-73070000D02*
X76420000Y-73070000D01*
X76420000Y-75610000D02*
X76420000Y-74010000D01*
X76420000Y-68930000D02*
X75820000Y-68930000D01*
X80840000Y-69730000D02*
X81840000Y-69730000D01*
X76420000Y-71470000D02*
X75820000Y-71470000D01*
X75820000Y-68350000D02*
X75820000Y-78730000D01*
X80310000Y-69980000D02*
X80840000Y-69730000D01*
X81840000Y-77100000D02*
X80840000Y-77100000D01*
X75820000Y-78150000D02*
X76420000Y-78150000D01*
X75820000Y-70530000D02*
X76420000Y-70530000D01*
X76420000Y-76550000D02*
X75820000Y-76550000D01*
X81840000Y-78730000D02*
X81840000Y-68350000D01*
X76420000Y-74010000D02*
X75820000Y-74010000D01*
X75820000Y-75610000D02*
X76420000Y-75610000D01*
X76420000Y-78150000D02*
X76420000Y-76550000D01*
X81840000Y-77350000D02*
X80840000Y-77350000D01*
X80840000Y-77350000D02*
X80840000Y-69730000D01*
X81840000Y-69980000D02*
X80840000Y-69980000D01*
X75820000Y-78730000D02*
X81840000Y-78730000D01*
X76420000Y-70530000D02*
X76420000Y-68930000D01*
X80310000Y-77100000D02*
X80310000Y-69980000D01*
X81840000Y-68350000D02*
X75820000Y-68350000D01*
X153477064Y-99570000D02*
X149122936Y-99570000D01*
X153477064Y-102990000D02*
X149122936Y-102990000D01*
X88342500Y-76382258D02*
X88342500Y-75907742D01*
X87297500Y-76382258D02*
X87297500Y-75907742D01*
X153477064Y-73830000D02*
X149122936Y-73830000D01*
X153477064Y-77250000D02*
X149122936Y-77250000D01*
X110250000Y-72770000D02*
X110250000Y-75320000D01*
X110250000Y-72770000D02*
X108550000Y-72770000D01*
X108550000Y-72770000D02*
X108550000Y-75320000D01*
X141557500Y-92837258D02*
X141557500Y-92362742D01*
X142602500Y-92837258D02*
X142602500Y-92362742D01*
X106290000Y-68130000D02*
X106290000Y-72030000D01*
X106290000Y-68130000D02*
X104290000Y-68130000D01*
X104290000Y-68130000D02*
X104290000Y-72030000D01*
X138350000Y-81640000D02*
X132005000Y-81640000D01*
X137895000Y-76500000D02*
X132005000Y-76500000D01*
X137895000Y-84950000D02*
X132005000Y-84950000D01*
X138350000Y-90090000D02*
X132005000Y-90090000D01*
X114199100Y-74060000D02*
X112249100Y-74060000D01*
X114199100Y-79180000D02*
X112249100Y-79180000D01*
X114199100Y-74060000D02*
X116149100Y-74060000D01*
X114199100Y-79180000D02*
X117649100Y-79180000D01*
X108081500Y-74197742D02*
X108081500Y-74672258D01*
X107036500Y-74197742D02*
X107036500Y-74672258D01*
X113790000Y-71600000D02*
X113790000Y-68500000D01*
X114940000Y-72050000D02*
X113865000Y-72050000D01*
X116590000Y-71600000D02*
X116590000Y-68600000D01*
X107386500Y-81402742D02*
X107386500Y-81877258D01*
X108431500Y-81402742D02*
X108431500Y-81877258D01*
X146495000Y-84950000D02*
X140605000Y-84950000D01*
X146950000Y-90090000D02*
X140605000Y-90090000D01*
X111060352Y-81135000D02*
X110537848Y-81135000D01*
X111060352Y-79665000D02*
X110537848Y-79665000D01*
X94500000Y-83659420D02*
X94500000Y-83940580D01*
X93480000Y-83659420D02*
X93480000Y-83940580D01*
X112659100Y-87430000D02*
X114609100Y-87430000D01*
X112659100Y-92550000D02*
X110709100Y-92550000D01*
X112659100Y-87430000D02*
X110709100Y-87430000D01*
X112659100Y-92550000D02*
X116109100Y-92550000D01*
X153477064Y-107030000D02*
X149122936Y-107030000D01*
X153477064Y-103610000D02*
X149122936Y-103610000D01*
X112459100Y-117580000D02*
X115909100Y-117580000D01*
X112459100Y-117580000D02*
X110509100Y-117580000D01*
X112459100Y-112460000D02*
X110509100Y-112460000D01*
X112459100Y-112460000D02*
X114409100Y-112460000D01*
X91442400Y-84175258D02*
X91442400Y-83700742D01*
X92487400Y-84175258D02*
X92487400Y-83700742D01*
X112649100Y-81810000D02*
X114599100Y-81810000D01*
X112649100Y-81810000D02*
X110699100Y-81810000D01*
X112649100Y-86930000D02*
X116099100Y-86930000D01*
X112649100Y-86930000D02*
X110699100Y-86930000D01*
X107288500Y-108892742D02*
X107288500Y-109367258D01*
X108333500Y-108892742D02*
X108333500Y-109367258D01*
X105150000Y-82870000D02*
X105150000Y-85420000D01*
X106850000Y-82870000D02*
X105150000Y-82870000D01*
X106850000Y-82870000D02*
X106850000Y-85420000D01*
X96561642Y-78987500D02*
X97036158Y-78987500D01*
X96561642Y-80032500D02*
X97036158Y-80032500D01*
X153477064Y-111830000D02*
X149122936Y-111830000D01*
X153477064Y-108410000D02*
X149122936Y-108410000D01*
X146495000Y-107280000D02*
X140605000Y-107280000D01*
X146950000Y-112420000D02*
X140605000Y-112420000D01*
X120440000Y-103340000D02*
X120440000Y-106090000D01*
X127895563Y-111860000D02*
X120440000Y-111860000D01*
X129700000Y-110610000D02*
X129700000Y-109610000D01*
X127895563Y-103340000D02*
X120440000Y-103340000D01*
X128960000Y-104404437D02*
X128960000Y-106090000D01*
X128960000Y-110795563D02*
X128960000Y-109110000D01*
X128960000Y-110795563D02*
X127895563Y-111860000D01*
X130200000Y-110110000D02*
X129200000Y-110110000D01*
X120440000Y-111860000D02*
X120440000Y-109110000D01*
X128960000Y-104404437D02*
X127895563Y-103340000D01*
X141761000Y-113335000D02*
X141761000Y-115335000D01*
X141761000Y-115335000D02*
X145661000Y-115335000D01*
X141761000Y-113335000D02*
X145661000Y-113335000D01*
X84460000Y-82910000D02*
X84460000Y-83910000D01*
X89290000Y-83910000D02*
X89040000Y-84440000D01*
X89290000Y-83910000D02*
X84210000Y-83910000D01*
X88490000Y-88330000D02*
X88490000Y-88930000D01*
X82830000Y-88930000D02*
X90670000Y-88930000D01*
X85010000Y-88330000D02*
X83410000Y-88330000D01*
X89290000Y-82910000D02*
X89290000Y-83910000D01*
X85010000Y-88930000D02*
X85010000Y-88330000D01*
X90090000Y-88330000D02*
X88490000Y-88330000D01*
X90090000Y-88930000D02*
X90090000Y-88330000D01*
X90960000Y-87900000D02*
X90960000Y-83900000D01*
X89040000Y-84440000D02*
X84460000Y-84440000D01*
X89040000Y-82910000D02*
X89040000Y-83910000D01*
X87550000Y-88330000D02*
X85950000Y-88330000D01*
X90670000Y-82910000D02*
X82830000Y-82910000D01*
X87550000Y-88930000D02*
X87550000Y-88330000D01*
X90670000Y-88930000D02*
X90670000Y-82910000D01*
X85950000Y-88330000D02*
X85950000Y-88930000D01*
X84460000Y-84440000D02*
X84210000Y-83910000D01*
X83410000Y-88330000D02*
X83410000Y-88930000D01*
X84210000Y-83910000D02*
X84210000Y-82910000D01*
X82830000Y-82910000D02*
X82830000Y-88930000D01*
X142450000Y-104875000D02*
X146350000Y-104875000D01*
X142450000Y-106875000D02*
X146350000Y-106875000D01*
X142450000Y-104875000D02*
X142450000Y-106875000D01*
X107186500Y-104382742D02*
X107186500Y-104857258D01*
X108231500Y-104382742D02*
X108231500Y-104857258D01*
X113319648Y-110345000D02*
X113842152Y-110345000D01*
X113319648Y-111815000D02*
X113842152Y-111815000D01*
X108412500Y-87557742D02*
X108412500Y-88032258D01*
X107367500Y-87557742D02*
X107367500Y-88032258D01*
X101740000Y-120800000D02*
X97840000Y-120800000D01*
X101740000Y-120800000D02*
X101740000Y-118800000D01*
X101740000Y-118800000D02*
X97840000Y-118800000D01*
X137895000Y-68150000D02*
X132005000Y-68150000D01*
X138350000Y-73290000D02*
X132005000Y-73290000D01*
X105150000Y-91070000D02*
X105150000Y-93620000D01*
X106850000Y-91070000D02*
X106850000Y-93620000D01*
X106850000Y-91070000D02*
X105150000Y-91070000D01*
X149340000Y-98010000D02*
X152265000Y-98010000D01*
X149340000Y-94790000D02*
X150840000Y-94790000D01*
X149340000Y-94790000D02*
X147840000Y-94790000D01*
X149340000Y-98010000D02*
X147840000Y-98010000D01*
X105150000Y-79520000D02*
X105150000Y-82070000D01*
X106850000Y-79520000D02*
X106850000Y-82070000D01*
X106850000Y-79520000D02*
X105150000Y-79520000D01*
X104950000Y-94850000D02*
X104950000Y-97400000D01*
X106650000Y-94850000D02*
X104950000Y-94850000D01*
X106650000Y-94850000D02*
X106650000Y-97400000D01*
X133871000Y-82045000D02*
X133871000Y-84045000D01*
X133871000Y-84045000D02*
X137771000Y-84045000D01*
X133871000Y-82045000D02*
X137771000Y-82045000D01*
X139384642Y-97660500D02*
X139859158Y-97660500D01*
X139384642Y-96615500D02*
X139859158Y-96615500D01*
X139770580Y-93970000D02*
X139489420Y-93970000D01*
X139770580Y-92950000D02*
X139489420Y-92950000D01*
X112499100Y-96240000D02*
X110549100Y-96240000D01*
X112499100Y-96240000D02*
X114449100Y-96240000D01*
X112499100Y-101360000D02*
X115949100Y-101360000D01*
X112499100Y-101360000D02*
X110549100Y-101360000D01*
X138350000Y-112420000D02*
X132005000Y-112420000D01*
X137895000Y-107280000D02*
X132005000Y-107280000D01*
X89940000Y-90650000D02*
X89940000Y-93950000D01*
X89940000Y-93950000D02*
X93940000Y-93950000D01*
X144772258Y-95108400D02*
X144297742Y-95108400D01*
X144772258Y-96153400D02*
X144297742Y-96153400D01*
X107067500Y-117387742D02*
X107067500Y-117862258D01*
X108112500Y-117387742D02*
X108112500Y-117862258D01*
X127895563Y-102860000D02*
X120440000Y-102860000D01*
X128960000Y-101795563D02*
X127895563Y-102860000D01*
X128960000Y-101795563D02*
X128960000Y-100110000D01*
X120440000Y-102860000D02*
X120440000Y-100110000D01*
X128960000Y-95404437D02*
X127895563Y-94340000D01*
X130200000Y-101110000D02*
X129200000Y-101110000D01*
X120440000Y-94340000D02*
X120440000Y-97090000D01*
X127895563Y-94340000D02*
X120440000Y-94340000D01*
X128960000Y-95404437D02*
X128960000Y-97090000D01*
X129700000Y-101610000D02*
X129700000Y-100610000D01*
X108450000Y-76220000D02*
X106750000Y-76220000D01*
X108450000Y-76220000D02*
X108450000Y-78770000D01*
X106750000Y-76220000D02*
X106750000Y-78770000D01*
X83612500Y-98072742D02*
X83612500Y-98547258D01*
X82567500Y-98072742D02*
X82567500Y-98547258D01*
X149340000Y-94350000D02*
X152265000Y-94350000D01*
X149340000Y-91130000D02*
X147840000Y-91130000D01*
X149340000Y-94350000D02*
X147840000Y-94350000D01*
X149340000Y-91130000D02*
X150840000Y-91130000D01*
X80840000Y-119050000D02*
X80840000Y-108890000D01*
X76420000Y-112230000D02*
X76420000Y-110630000D01*
X76420000Y-117310000D02*
X76420000Y-115710000D01*
X76420000Y-109690000D02*
X76420000Y-108090000D01*
X80840000Y-108890000D02*
X81840000Y-108890000D01*
X76420000Y-115710000D02*
X75820000Y-115710000D01*
X81840000Y-107510000D02*
X75820000Y-107510000D01*
X80310000Y-118800000D02*
X80310000Y-109140000D01*
X75820000Y-114770000D02*
X76420000Y-114770000D01*
X75820000Y-117310000D02*
X76420000Y-117310000D01*
X76420000Y-119850000D02*
X76420000Y-118250000D01*
X76420000Y-118250000D02*
X75820000Y-118250000D01*
X75820000Y-120430000D02*
X81840000Y-120430000D01*
X76420000Y-114770000D02*
X76420000Y-113170000D01*
X80840000Y-119050000D02*
X80310000Y-118800000D01*
X76420000Y-110630000D02*
X75820000Y-110630000D01*
X81840000Y-109140000D02*
X80840000Y-109140000D01*
X81840000Y-119050000D02*
X80840000Y-119050000D01*
X76420000Y-108090000D02*
X75820000Y-108090000D01*
X76420000Y-113170000D02*
X75820000Y-113170000D01*
X81840000Y-120430000D02*
X81840000Y-107510000D01*
X75820000Y-112230000D02*
X76420000Y-112230000D01*
X75820000Y-119850000D02*
X76420000Y-119850000D01*
X75820000Y-109690000D02*
X76420000Y-109690000D01*
X75820000Y-107510000D02*
X75820000Y-120430000D01*
X76850000Y-120720000D02*
X80850000Y-120720000D01*
X81840000Y-118800000D02*
X80840000Y-118800000D01*
X80310000Y-109140000D02*
X80840000Y-108890000D01*
X110390000Y-71600000D02*
X110390000Y-68500000D01*
X113190000Y-71600000D02*
X113190000Y-68600000D01*
X111540000Y-72050000D02*
X110465000Y-72050000D01*
X108312500Y-92357742D02*
X108312500Y-92832258D01*
X107267500Y-92357742D02*
X107267500Y-92832258D01*
X139748980Y-95935000D02*
X139467820Y-95935000D01*
X139748980Y-94915000D02*
X139467820Y-94915000D01*
X118840000Y-87120000D02*
X118840000Y-83220000D01*
X116840000Y-87120000D02*
X118840000Y-87120000D01*
X116840000Y-87120000D02*
X116840000Y-83220000D01*
X138350000Y-120870000D02*
X132005000Y-120870000D01*
X137895000Y-115730000D02*
X132005000Y-115730000D01*
X133050000Y-90755000D02*
X136950000Y-90755000D01*
X133050000Y-92755000D02*
X136950000Y-92755000D01*
X133050000Y-90755000D02*
X133050000Y-92755000D01*
X133821000Y-115335000D02*
X137721000Y-115335000D01*
X133821000Y-113335000D02*
X133821000Y-115335000D01*
X133821000Y-113335000D02*
X137721000Y-113335000D01*
X117770000Y-114040320D02*
X117770000Y-114321480D01*
X116750000Y-114040320D02*
X116750000Y-114321480D01*
X154002500Y-93017258D02*
X154002500Y-92542742D01*
X152957500Y-93017258D02*
X152957500Y-92542742D01*
X117970000Y-89010320D02*
X117970000Y-89291480D01*
X116950000Y-89010320D02*
X116950000Y-89291480D01*
X156295358Y-96719500D02*
X155820842Y-96719500D01*
X156295358Y-97764500D02*
X155820842Y-97764500D01*
X133950000Y-75695000D02*
X137850000Y-75695000D01*
X133950000Y-73695000D02*
X137850000Y-73695000D01*
X133950000Y-73695000D02*
X133950000Y-75695000D01*
X142561000Y-73695000D02*
X142561000Y-75695000D01*
X142561000Y-75695000D02*
X146461000Y-75695000D01*
X142561000Y-73695000D02*
X146461000Y-73695000D01*
X133450000Y-96250000D02*
X137350000Y-96250000D01*
X133450000Y-98250000D02*
X137350000Y-98250000D01*
X133450000Y-96250000D02*
X133450000Y-98250000D01*
X96349420Y-88300000D02*
X96630580Y-88300000D01*
X96349420Y-89320000D02*
X96630580Y-89320000D01*
X104950000Y-111225000D02*
X104950000Y-113775000D01*
X106650000Y-111225000D02*
X104950000Y-111225000D01*
X106650000Y-111225000D02*
X106650000Y-113775000D01*
X150561000Y-120935000D02*
X154461000Y-120935000D01*
X150561000Y-118935000D02*
X154461000Y-118935000D01*
X150561000Y-118935000D02*
X150561000Y-120935000D01*
X146495000Y-98839500D02*
X140605000Y-98839500D01*
X146950000Y-103979500D02*
X140605000Y-103979500D01*
X137895000Y-98830000D02*
X132005000Y-98830000D01*
X138350000Y-103970000D02*
X132005000Y-103970000D01*
X87112500Y-94282742D02*
X87112500Y-94757258D01*
X86067500Y-94282742D02*
X86067500Y-94757258D01*
X141599400Y-96552258D02*
X141599400Y-96077742D01*
X142644400Y-96552258D02*
X142644400Y-96077742D01*
X106990000Y-71600000D02*
X106990000Y-68500000D01*
X109790000Y-71600000D02*
X109790000Y-68600000D01*
X108140000Y-72050000D02*
X107065000Y-72050000D01*
X153477064Y-77930000D02*
X149122936Y-77930000D01*
X153477064Y-81350000D02*
X149122936Y-81350000D01*
X94211643Y-88821100D02*
X94523700Y-88821100D01*
X92016357Y-85722300D02*
X91704300Y-85722300D01*
X91704300Y-85722300D02*
X91704300Y-88821100D01*
X94523700Y-88821100D02*
X94523700Y-85722300D01*
X94523700Y-85722300D02*
X94211643Y-85722300D01*
X91704300Y-88821100D02*
X92016357Y-88821100D01*
X93840200Y-85384600D02*
G75*
G03*
X93840200Y-85384600I-76200J0D01*
G01*
X153477064Y-86490000D02*
X149122936Y-86490000D01*
X153477064Y-89910000D02*
X149122936Y-89910000D01*
X106650000Y-103000000D02*
X104950000Y-103000000D01*
X104950000Y-103000000D02*
X104950000Y-105550000D01*
X106650000Y-103000000D02*
X106650000Y-105550000D01*
X106650000Y-99400000D02*
X104950000Y-99400000D01*
X104950000Y-99400000D02*
X104950000Y-101950000D01*
X106650000Y-99400000D02*
X106650000Y-101950000D01*
X108433500Y-84512742D02*
X108433500Y-84987258D01*
X107388500Y-84512742D02*
X107388500Y-84987258D01*
X113209648Y-119865000D02*
X113732152Y-119865000D01*
X113209648Y-118395000D02*
X113732152Y-118395000D01*
X116640000Y-112400000D02*
X118640000Y-112400000D01*
X118640000Y-112400000D02*
X118640000Y-108500000D01*
X116640000Y-112400000D02*
X116640000Y-108500000D01*
X85867500Y-98062742D02*
X85867500Y-98537258D01*
X86912500Y-98062742D02*
X86912500Y-98537258D01*
X116850000Y-105840320D02*
X116850000Y-106121480D01*
X117870000Y-105840320D02*
X117870000Y-106121480D01*
X85302500Y-98062742D02*
X85302500Y-98537258D01*
X84257500Y-98062742D02*
X84257500Y-98537258D01*
X130200000Y-92080000D02*
X129200000Y-92080000D01*
X129700000Y-92580000D02*
X129700000Y-91580000D01*
X127895563Y-85310000D02*
X120440000Y-85310000D01*
X120440000Y-93830000D02*
X120440000Y-91080000D01*
X128960000Y-92765563D02*
X127895563Y-93830000D01*
X127895563Y-93830000D02*
X120440000Y-93830000D01*
X128960000Y-86374437D02*
X128960000Y-88060000D01*
X120440000Y-85310000D02*
X120440000Y-88060000D01*
X128960000Y-86374437D02*
X127895563Y-85310000D01*
X128960000Y-92765563D02*
X128960000Y-91080000D01*
X106650000Y-116100000D02*
X104950000Y-116100000D01*
X104950000Y-116100000D02*
X104950000Y-118650000D01*
X106650000Y-116100000D02*
X106650000Y-118650000D01*
X156217258Y-92422500D02*
X155742742Y-92422500D01*
X156217258Y-91377500D02*
X155742742Y-91377500D01*
X83160000Y-71232064D02*
X83160000Y-69777936D01*
X84980000Y-71232064D02*
X84980000Y-69777936D01*
X106650000Y-107550000D02*
X104950000Y-107550000D01*
X104950000Y-107550000D02*
X104950000Y-110100000D01*
X106650000Y-107550000D02*
X106650000Y-110100000D01*
X114319648Y-81185000D02*
X114842152Y-81185000D01*
X114319648Y-79715000D02*
X114842152Y-79715000D01*
X118940000Y-95370000D02*
X118940000Y-91470000D01*
X116940000Y-95370000D02*
X116940000Y-91470000D01*
X116940000Y-95370000D02*
X118940000Y-95370000D01*
X95945000Y-76583748D02*
X95945000Y-77106252D01*
X94475000Y-76583748D02*
X94475000Y-77106252D01*
X142361000Y-82105000D02*
X142361000Y-84105000D01*
X142361000Y-84105000D02*
X146261000Y-84105000D01*
X142361000Y-82105000D02*
X146261000Y-82105000D01*
X86692500Y-73622258D02*
X86692500Y-73147742D01*
X85647500Y-73622258D02*
X85647500Y-73147742D01*
X117000000Y-97380320D02*
X117000000Y-97661480D01*
X118020000Y-97380320D02*
X118020000Y-97661480D01*
X82757500Y-90962742D02*
X82757500Y-91437258D01*
X83802500Y-90962742D02*
X83802500Y-91437258D01*
X85800000Y-76740580D02*
X85800000Y-76459420D01*
X84780000Y-76740580D02*
X84780000Y-76459420D01*
X95970000Y-118720000D02*
X95970000Y-116800000D01*
X95970000Y-122435000D02*
X86810000Y-122435000D01*
X86810000Y-122435000D02*
X86810000Y-120730000D01*
X86810000Y-116800000D02*
X86810000Y-118720000D01*
X95970000Y-120730000D02*
X95970000Y-122435000D01*
X139352742Y-92322500D02*
X139827258Y-92322500D01*
X139352742Y-91277500D02*
X139827258Y-91277500D01*
G36*
X130781806Y-93154602D02*
G01*
X130786260Y-93157936D01*
X130795748Y-93160000D01*
X130815285Y-93160000D01*
X130883406Y-93180002D01*
X130887860Y-93183336D01*
X130910583Y-93188279D01*
X130910025Y-93190844D01*
X130959606Y-93205402D01*
X130965123Y-93209532D01*
X131013827Y-93233911D01*
X131037583Y-93239079D01*
X131037025Y-93241644D01*
X131086606Y-93256202D01*
X131098084Y-93264795D01*
X131140634Y-93286094D01*
X131171180Y-93312562D01*
X131222059Y-93338030D01*
X131226023Y-93341464D01*
X131267634Y-93362294D01*
X131302220Y-93392263D01*
X131343834Y-93413093D01*
X131366979Y-93433148D01*
X131371896Y-93440800D01*
X131403822Y-93468464D01*
X131445434Y-93489293D01*
X131468579Y-93509348D01*
X131473496Y-93517000D01*
X131505422Y-93544664D01*
X131547034Y-93565493D01*
X131570179Y-93585548D01*
X131575097Y-93593202D01*
X131595578Y-93610948D01*
X131600495Y-93618600D01*
X131620978Y-93636348D01*
X131625895Y-93644000D01*
X131646378Y-93661748D01*
X131651295Y-93669400D01*
X131671778Y-93687148D01*
X131676694Y-93694798D01*
X131702465Y-93717129D01*
X131710148Y-93718800D01*
X131729285Y-93718800D01*
X131749073Y-93712990D01*
X131766548Y-93692822D01*
X131774200Y-93687905D01*
X131791948Y-93667422D01*
X131799600Y-93662505D01*
X131817348Y-93642022D01*
X131825000Y-93637105D01*
X131842748Y-93616622D01*
X131850400Y-93611705D01*
X131868148Y-93591222D01*
X131875799Y-93586306D01*
X131884881Y-93575824D01*
X131944606Y-93537441D01*
X131952273Y-93535190D01*
X131969748Y-93515022D01*
X131977400Y-93510105D01*
X131995148Y-93489622D01*
X132002799Y-93484706D01*
X132011881Y-93474224D01*
X132071606Y-93435841D01*
X132079272Y-93433590D01*
X132088081Y-93423424D01*
X132147806Y-93385041D01*
X132155472Y-93382790D01*
X132164281Y-93372624D01*
X132224006Y-93334241D01*
X132231672Y-93331990D01*
X132240481Y-93321824D01*
X132300206Y-93283441D01*
X132320970Y-93277344D01*
X132351006Y-93258041D01*
X132382766Y-93248715D01*
X132394295Y-93241305D01*
X132400965Y-93240346D01*
X132447970Y-93226544D01*
X132478006Y-93207241D01*
X132509766Y-93197915D01*
X132521295Y-93190505D01*
X132527965Y-93189546D01*
X132585965Y-93172516D01*
X132597495Y-93165105D01*
X132632998Y-93160000D01*
X132643685Y-93160000D01*
X132687565Y-93147116D01*
X132699095Y-93139705D01*
X132734598Y-93134600D01*
X133101285Y-93134600D01*
X133169406Y-93154602D01*
X133173860Y-93157936D01*
X133183348Y-93160000D01*
X133228285Y-93160000D01*
X133296406Y-93180002D01*
X133300860Y-93183336D01*
X133323583Y-93188279D01*
X133323025Y-93190844D01*
X133372606Y-93205402D01*
X133377060Y-93208736D01*
X133399783Y-93213679D01*
X133399225Y-93216244D01*
X133448806Y-93230802D01*
X133454323Y-93234932D01*
X133503031Y-93259313D01*
X133503131Y-93259335D01*
X133553831Y-93284713D01*
X133553931Y-93284735D01*
X133604631Y-93310113D01*
X133604731Y-93310135D01*
X133660459Y-93338030D01*
X133664422Y-93341464D01*
X133706034Y-93362293D01*
X133729179Y-93382348D01*
X133734097Y-93390002D01*
X133754578Y-93407748D01*
X133759495Y-93415400D01*
X133779978Y-93433148D01*
X133784896Y-93440800D01*
X133829443Y-93479401D01*
X133839278Y-93494705D01*
X133856178Y-93509348D01*
X133861095Y-93517000D01*
X133881578Y-93534748D01*
X133886495Y-93542400D01*
X133906978Y-93560148D01*
X133911894Y-93567799D01*
X133922376Y-93576881D01*
X133960759Y-93636606D01*
X133963010Y-93644272D01*
X133973176Y-93653081D01*
X134011559Y-93712806D01*
X134017656Y-93733570D01*
X134036959Y-93763606D01*
X134043056Y-93784370D01*
X134062359Y-93814406D01*
X134068456Y-93835170D01*
X134087759Y-93865206D01*
X134097085Y-93896966D01*
X134104495Y-93908495D01*
X134105454Y-93915165D01*
X134122484Y-93973165D01*
X134129895Y-93984695D01*
X134135000Y-94020198D01*
X134135000Y-94056285D01*
X134147884Y-94100165D01*
X134155295Y-94111695D01*
X134160400Y-94147198D01*
X134160400Y-94234085D01*
X134173284Y-94277965D01*
X134180695Y-94289495D01*
X134185800Y-94324998D01*
X134185800Y-94463085D01*
X134165798Y-94531206D01*
X134162464Y-94535660D01*
X134160400Y-94545148D01*
X134160400Y-94615485D01*
X134140398Y-94683606D01*
X134137064Y-94688060D01*
X134135000Y-94697548D01*
X134135000Y-94717085D01*
X134114998Y-94785206D01*
X134111664Y-94789660D01*
X134106721Y-94812383D01*
X134104156Y-94811825D01*
X134089598Y-94861406D01*
X134086264Y-94865860D01*
X134081321Y-94888583D01*
X134078756Y-94888025D01*
X134064198Y-94937606D01*
X134060068Y-94943123D01*
X134033170Y-94996859D01*
X134029736Y-95000823D01*
X134008906Y-95042434D01*
X133982438Y-95072980D01*
X133959487Y-95118831D01*
X133959465Y-95118931D01*
X133931570Y-95174659D01*
X133928136Y-95178622D01*
X133907307Y-95220234D01*
X133887252Y-95243379D01*
X133879600Y-95248296D01*
X133851936Y-95280222D01*
X133831107Y-95321834D01*
X133811052Y-95344979D01*
X133803400Y-95349896D01*
X133775736Y-95381822D01*
X133754907Y-95423434D01*
X133734852Y-95446579D01*
X133727198Y-95451497D01*
X133709452Y-95471978D01*
X133701800Y-95476895D01*
X133684052Y-95497378D01*
X133676400Y-95502295D01*
X133658652Y-95522778D01*
X133651000Y-95527695D01*
X133633252Y-95548178D01*
X133625602Y-95553094D01*
X133597936Y-95585022D01*
X133577106Y-95626636D01*
X133565719Y-95639777D01*
X133505994Y-95678159D01*
X133498327Y-95680410D01*
X133480852Y-95700578D01*
X133473200Y-95705495D01*
X133455452Y-95725978D01*
X133447800Y-95730895D01*
X133430052Y-95751378D01*
X133422400Y-95756295D01*
X133404652Y-95776778D01*
X133397000Y-95781695D01*
X133379252Y-95802178D01*
X133371600Y-95807095D01*
X133353852Y-95827578D01*
X133346200Y-95832495D01*
X133328452Y-95852978D01*
X133320800Y-95857895D01*
X133303052Y-95878378D01*
X133295400Y-95883295D01*
X133277652Y-95903778D01*
X133270000Y-95908695D01*
X133252252Y-95929178D01*
X133244600Y-95934095D01*
X133226852Y-95954578D01*
X133219200Y-95959495D01*
X133201452Y-95979978D01*
X133193800Y-95984895D01*
X133176052Y-96005378D01*
X133168400Y-96010295D01*
X133150652Y-96030778D01*
X133143000Y-96035695D01*
X133125252Y-96056178D01*
X133117600Y-96061095D01*
X133099852Y-96081578D01*
X133092200Y-96086495D01*
X133074452Y-96106978D01*
X133066800Y-96111895D01*
X133049052Y-96132378D01*
X133041400Y-96137295D01*
X133023652Y-96157778D01*
X133016000Y-96162695D01*
X132998252Y-96183178D01*
X132990600Y-96188095D01*
X132972852Y-96208578D01*
X132965200Y-96213495D01*
X132947452Y-96233978D01*
X132939800Y-96238895D01*
X132922052Y-96259378D01*
X132914401Y-96264294D01*
X132905319Y-96274776D01*
X132845594Y-96313159D01*
X132837927Y-96315410D01*
X132820452Y-96335578D01*
X132812800Y-96340495D01*
X132795052Y-96360978D01*
X132787400Y-96365895D01*
X132769652Y-96386378D01*
X132762000Y-96391295D01*
X132744252Y-96411778D01*
X132736600Y-96416695D01*
X132718852Y-96437178D01*
X132711200Y-96442095D01*
X132693452Y-96462578D01*
X132685800Y-96467495D01*
X132668052Y-96487978D01*
X132660400Y-96492895D01*
X132642652Y-96513378D01*
X132635000Y-96518295D01*
X132617252Y-96538778D01*
X132609600Y-96543695D01*
X132591852Y-96564178D01*
X132584200Y-96569095D01*
X132566452Y-96589578D01*
X132558800Y-96594495D01*
X132541052Y-96614978D01*
X132533400Y-96619895D01*
X132515652Y-96640378D01*
X132508000Y-96645295D01*
X132490252Y-96665778D01*
X132482600Y-96670695D01*
X132464852Y-96691178D01*
X132457200Y-96696095D01*
X132439452Y-96716578D01*
X132431800Y-96721495D01*
X132414052Y-96741978D01*
X132406400Y-96746895D01*
X132388652Y-96767378D01*
X132381000Y-96772295D01*
X132363252Y-96792778D01*
X132355600Y-96797695D01*
X132337852Y-96818178D01*
X132330200Y-96823095D01*
X132312452Y-96843578D01*
X132304800Y-96848495D01*
X132287052Y-96868978D01*
X132279400Y-96873895D01*
X132261652Y-96894378D01*
X132254000Y-96899295D01*
X132236252Y-96919778D01*
X132228601Y-96924694D01*
X132219519Y-96935176D01*
X132159794Y-96973559D01*
X132152127Y-96975810D01*
X132134652Y-96995978D01*
X132127000Y-97000895D01*
X132109252Y-97021378D01*
X132101600Y-97026295D01*
X132083852Y-97046778D01*
X132076200Y-97051695D01*
X132058452Y-97072178D01*
X132050800Y-97077095D01*
X132033052Y-97097578D01*
X132025400Y-97102495D01*
X132007652Y-97122978D01*
X132000000Y-97127895D01*
X131982252Y-97148378D01*
X131974600Y-97153295D01*
X131956852Y-97173778D01*
X131949200Y-97178695D01*
X131931452Y-97199178D01*
X131923800Y-97204095D01*
X131906052Y-97224578D01*
X131898400Y-97229495D01*
X131880652Y-97249978D01*
X131873000Y-97254895D01*
X131855252Y-97275378D01*
X131847601Y-97280294D01*
X131838519Y-97290776D01*
X131778793Y-97329159D01*
X131761693Y-97334180D01*
X131690697Y-97334180D01*
X131686459Y-97331866D01*
X131673296Y-97329003D01*
X131617566Y-97301107D01*
X131594421Y-97281052D01*
X131589503Y-97273398D01*
X131569022Y-97255652D01*
X131564105Y-97248000D01*
X131543622Y-97230252D01*
X131538705Y-97222600D01*
X131518222Y-97204852D01*
X131513305Y-97197200D01*
X131492822Y-97179452D01*
X131487905Y-97171800D01*
X131467422Y-97154052D01*
X131462505Y-97146400D01*
X131442022Y-97128652D01*
X131437105Y-97121000D01*
X131416622Y-97103252D01*
X131411705Y-97095600D01*
X131391222Y-97077852D01*
X131386305Y-97070200D01*
X131365822Y-97052452D01*
X131360905Y-97044800D01*
X131340422Y-97027052D01*
X131335505Y-97019400D01*
X131315022Y-97001652D01*
X131310105Y-96994000D01*
X131289622Y-96976252D01*
X131284706Y-96968602D01*
X131252778Y-96940936D01*
X131211166Y-96920107D01*
X131188021Y-96900052D01*
X131183103Y-96892398D01*
X131162622Y-96874652D01*
X131157705Y-96867000D01*
X131137222Y-96849252D01*
X131132305Y-96841600D01*
X131111822Y-96823852D01*
X131106905Y-96816200D01*
X131086422Y-96798452D01*
X131081505Y-96790800D01*
X131061022Y-96773052D01*
X131056105Y-96765400D01*
X131035622Y-96747652D01*
X131030705Y-96740000D01*
X131010222Y-96722252D01*
X131005305Y-96714600D01*
X130984822Y-96696852D01*
X130979905Y-96689200D01*
X130959422Y-96671452D01*
X130954505Y-96663800D01*
X130934022Y-96646052D01*
X130929105Y-96638400D01*
X130908622Y-96620652D01*
X130903705Y-96613000D01*
X130883222Y-96595252D01*
X130878305Y-96587600D01*
X130857822Y-96569852D01*
X130852905Y-96562200D01*
X130832422Y-96544452D01*
X130827505Y-96536800D01*
X130807022Y-96519052D01*
X130802105Y-96511400D01*
X130781622Y-96493652D01*
X130776705Y-96486000D01*
X130756222Y-96468252D01*
X130751305Y-96460600D01*
X130730822Y-96442852D01*
X130725905Y-96435200D01*
X130705422Y-96417452D01*
X130700505Y-96409800D01*
X130680022Y-96392052D01*
X130675105Y-96384400D01*
X130654622Y-96366652D01*
X130649705Y-96359000D01*
X130629222Y-96341252D01*
X130624306Y-96333602D01*
X130592378Y-96305936D01*
X130550766Y-96285107D01*
X130527621Y-96265052D01*
X130522703Y-96257398D01*
X130502222Y-96239652D01*
X130497305Y-96232000D01*
X130476822Y-96214252D01*
X130471905Y-96206600D01*
X130451422Y-96188852D01*
X130446505Y-96181200D01*
X130426022Y-96163452D01*
X130421105Y-96155800D01*
X130400622Y-96138052D01*
X130395705Y-96130400D01*
X130375222Y-96112652D01*
X130370305Y-96105000D01*
X130349822Y-96087252D01*
X130344905Y-96079600D01*
X130324422Y-96061852D01*
X130319505Y-96054200D01*
X130299022Y-96036452D01*
X130294105Y-96028800D01*
X130273622Y-96011052D01*
X130268705Y-96003400D01*
X130248222Y-95985652D01*
X130243305Y-95978000D01*
X130222822Y-95960252D01*
X130217905Y-95952600D01*
X130197422Y-95934852D01*
X130192505Y-95927200D01*
X130172022Y-95909452D01*
X130167105Y-95901800D01*
X130146622Y-95884052D01*
X130141705Y-95876400D01*
X130121222Y-95858652D01*
X130116305Y-95851000D01*
X130095822Y-95833252D01*
X130090905Y-95825600D01*
X130070422Y-95807852D01*
X130065505Y-95800200D01*
X130045022Y-95782452D01*
X130040105Y-95774800D01*
X130019622Y-95757052D01*
X130014705Y-95749400D01*
X129994222Y-95731652D01*
X129989305Y-95724000D01*
X129968822Y-95706252D01*
X129963904Y-95698600D01*
X129919357Y-95659999D01*
X129909523Y-95644697D01*
X129881178Y-95620136D01*
X129839564Y-95599306D01*
X129826423Y-95587919D01*
X129788041Y-95528194D01*
X129785790Y-95520527D01*
X129765622Y-95503052D01*
X129760705Y-95495400D01*
X129740222Y-95477652D01*
X129735305Y-95470000D01*
X129714822Y-95452252D01*
X129709906Y-95444601D01*
X129699424Y-95435519D01*
X129661041Y-95375794D01*
X129658790Y-95368127D01*
X129638622Y-95350652D01*
X129633706Y-95343001D01*
X129623224Y-95333919D01*
X129584841Y-95274194D01*
X129582590Y-95266527D01*
X129562422Y-95249052D01*
X129557506Y-95241401D01*
X129547024Y-95232319D01*
X129508641Y-95172594D01*
X129502544Y-95151830D01*
X129483241Y-95121794D01*
X129477144Y-95101030D01*
X129457841Y-95070994D01*
X129455590Y-95063328D01*
X129445424Y-95054519D01*
X129407041Y-94994794D01*
X129397715Y-94963034D01*
X129390305Y-94951505D01*
X129389346Y-94944835D01*
X129375544Y-94897830D01*
X129356241Y-94867794D01*
X129346915Y-94836034D01*
X129339505Y-94824505D01*
X129338546Y-94817835D01*
X129321516Y-94759835D01*
X129314105Y-94748305D01*
X129313146Y-94741635D01*
X129296116Y-94683635D01*
X129288705Y-94672105D01*
X129283600Y-94636602D01*
X129283600Y-94600515D01*
X129270716Y-94556635D01*
X129263305Y-94545105D01*
X129258200Y-94509602D01*
X129258200Y-94269915D01*
X129278202Y-94201794D01*
X129281536Y-94197340D01*
X129283600Y-94187852D01*
X129283600Y-94117515D01*
X129303602Y-94049394D01*
X129306936Y-94044940D01*
X129309000Y-94035452D01*
X129309000Y-94015915D01*
X129329002Y-93947794D01*
X129332336Y-93943340D01*
X129337279Y-93920617D01*
X129339844Y-93921175D01*
X129354402Y-93871594D01*
X129358532Y-93866077D01*
X129382913Y-93817369D01*
X129382935Y-93817269D01*
X129408313Y-93766569D01*
X129408335Y-93766469D01*
X129436230Y-93710741D01*
X129439664Y-93706777D01*
X129460494Y-93665166D01*
X129490463Y-93630580D01*
X129511293Y-93588966D01*
X129531348Y-93565821D01*
X129539002Y-93560903D01*
X129556748Y-93540422D01*
X129564398Y-93535506D01*
X129601529Y-93492655D01*
X129617132Y-93464081D01*
X129656914Y-93440477D01*
X129658348Y-93438822D01*
X129666000Y-93433905D01*
X129683748Y-93413422D01*
X129691400Y-93408505D01*
X129709148Y-93388022D01*
X129716799Y-93383106D01*
X129725881Y-93372624D01*
X129785606Y-93334241D01*
X129806370Y-93328144D01*
X129836406Y-93308841D01*
X129857170Y-93302744D01*
X129887206Y-93283441D01*
X129907970Y-93277344D01*
X129938006Y-93258041D01*
X129958770Y-93251944D01*
X129988806Y-93232641D01*
X130020566Y-93223315D01*
X130032095Y-93215905D01*
X130038765Y-93214946D01*
X130096765Y-93197916D01*
X130108295Y-93190505D01*
X130114965Y-93189546D01*
X130172965Y-93172516D01*
X130184495Y-93165105D01*
X130219998Y-93160000D01*
X130256085Y-93160000D01*
X130299965Y-93147116D01*
X130311495Y-93139705D01*
X130346998Y-93134600D01*
X130713685Y-93134600D01*
X130781806Y-93154602D01*
G37*
%LPC*%
D14*
X99642500Y-99600000D03*
X97767500Y-99600000D03*
D15*
X86130000Y-111290000D03*
X84580000Y-111290000D03*
D16*
X88580000Y-110160000D03*
X88580000Y-111710000D03*
D17*
X98090000Y-102950000D03*
X99640000Y-102950000D03*
D18*
X103760000Y-116470000D03*
X103760000Y-114920000D03*
D19*
X102210000Y-106410000D03*
X101240000Y-106410000D03*
D20*
X98480000Y-97250000D03*
D21*
X100780000Y-90950000D03*
D20*
X100780000Y-97250000D03*
X103080000Y-97250000D03*
D22*
X101820000Y-110260000D03*
X100550000Y-110260000D03*
X99280000Y-110260000D03*
X98010000Y-110260000D03*
X98010000Y-117460000D03*
X99280000Y-117460000D03*
X100550000Y-117460000D03*
X101820000Y-117460000D03*
D15*
X90670000Y-95050000D03*
X89120000Y-95050000D03*
D23*
X101650000Y-107910000D03*
X103300000Y-107910000D03*
D16*
X91030000Y-111310000D03*
X91030000Y-112860000D03*
D15*
X84720000Y-103200000D03*
X83170000Y-103200000D03*
D18*
X90349000Y-98140000D03*
X90349000Y-96590000D03*
D24*
X85180000Y-115560000D03*
X85180000Y-113910000D03*
D18*
X88730000Y-98140000D03*
X88730000Y-96590000D03*
D25*
X103590000Y-99410000D03*
X103590000Y-101285000D03*
D17*
X97090000Y-108300000D03*
X98640000Y-108300000D03*
D15*
X86070000Y-109700000D03*
X84520000Y-109700000D03*
D26*
X94817500Y-107250000D03*
X94817500Y-106850000D03*
X94817500Y-106450000D03*
X94817500Y-106050000D03*
X94817500Y-105650000D03*
X94817500Y-105250000D03*
X94817500Y-104850000D03*
X94817500Y-104450000D03*
X94817500Y-104050000D03*
X94817500Y-103650000D03*
X94817500Y-103250000D03*
X94817500Y-102850000D03*
X94817500Y-102450000D03*
X94817500Y-102050000D03*
D27*
X93980000Y-101212500D03*
X93580000Y-101212500D03*
X93180000Y-101212500D03*
X92780000Y-101212500D03*
X92380000Y-101212500D03*
X91980000Y-101212500D03*
X91580000Y-101212500D03*
X91180000Y-101212500D03*
X90780000Y-101212500D03*
X90380000Y-101212500D03*
X89980000Y-101212500D03*
X89580000Y-101212500D03*
X89180000Y-101212500D03*
X88780000Y-101212500D03*
D26*
X87942500Y-102050000D03*
X87942500Y-102450000D03*
X87942500Y-102850000D03*
X87942500Y-103250000D03*
X87942500Y-103650000D03*
X87942500Y-104050000D03*
X87942500Y-104450000D03*
X87942500Y-104850000D03*
X87942500Y-105250000D03*
X87942500Y-105650000D03*
X87942500Y-106050000D03*
X87942500Y-106450000D03*
X87942500Y-106850000D03*
X87942500Y-107250000D03*
D27*
X88780000Y-108087500D03*
X89180000Y-108087500D03*
X89580000Y-108087500D03*
X89980000Y-108087500D03*
X90380000Y-108087500D03*
X90780000Y-108087500D03*
X91180000Y-108087500D03*
X91580000Y-108087500D03*
X91980000Y-108087500D03*
X92380000Y-108087500D03*
X92780000Y-108087500D03*
X93180000Y-108087500D03*
X93580000Y-108087500D03*
X93980000Y-108087500D03*
D28*
X91380000Y-104650000D03*
D18*
X95140000Y-93000000D03*
X95140000Y-91450000D03*
D24*
X83380000Y-115560000D03*
X83380000Y-113910000D03*
D16*
X92630000Y-111410000D03*
X92630000Y-112960000D03*
D15*
X86070000Y-108050000D03*
X84520000Y-108050000D03*
D24*
X92280000Y-97860000D03*
X92280000Y-96210000D03*
D25*
X101540000Y-99437500D03*
X101540000Y-101312500D03*
D15*
X114524100Y-73020000D03*
X112974100Y-73020000D03*
D29*
X112330900Y-102780000D03*
X114230900Y-102780000D03*
D30*
X105190000Y-75650000D03*
D31*
X105190000Y-74350000D03*
D32*
X78850000Y-88700000D03*
D33*
X78850000Y-86160000D03*
X78850000Y-83620000D03*
X78850000Y-81080000D03*
D34*
X93245000Y-75825000D03*
X91975000Y-75825000D03*
X90705000Y-75825000D03*
X89435000Y-75825000D03*
X89435000Y-80775000D03*
X90705000Y-80775000D03*
X91975000Y-80775000D03*
X93245000Y-80775000D03*
D35*
X91340000Y-78300000D03*
D36*
X117740000Y-103450000D03*
X117740000Y-100150000D03*
D37*
X127950000Y-116650000D03*
X121450000Y-116650000D03*
D38*
X107690000Y-112000000D03*
X107690000Y-113650000D03*
D39*
X96155000Y-71420000D03*
X101555000Y-71420000D03*
D40*
X99290000Y-79650000D03*
X100690000Y-79650000D03*
D41*
X102990000Y-82000000D03*
X96490000Y-82000000D03*
X102990000Y-86500000D03*
X96490000Y-86500000D03*
D42*
X154262500Y-114140000D03*
X148337500Y-114140000D03*
D15*
X145265000Y-97300000D03*
X143715000Y-97300000D03*
D43*
X145305000Y-91710000D03*
X143655000Y-91710000D03*
D44*
X146220000Y-118935000D03*
X146220000Y-120205000D03*
X146220000Y-117665000D03*
X146220000Y-116395000D03*
D45*
X140755000Y-117665000D03*
X140755000Y-118935000D03*
D46*
X142860000Y-118300000D03*
D45*
X140755000Y-120205000D03*
X140755000Y-116395000D03*
D38*
X158610000Y-91995000D03*
X158610000Y-93645000D03*
D47*
X157919000Y-87320000D03*
D42*
X154262500Y-84260000D03*
X148337500Y-84260000D03*
D38*
X83240000Y-93675000D03*
X83240000Y-95325000D03*
D24*
X158659100Y-97190000D03*
X158659100Y-95540000D03*
D16*
X117560000Y-80125900D03*
X117560000Y-81675900D03*
D48*
X151450000Y-68970000D03*
X154750000Y-68970000D03*
D38*
X84880000Y-93685000D03*
X84880000Y-95335000D03*
D23*
X83595000Y-117860000D03*
X85245000Y-117860000D03*
D44*
X146220000Y-71364500D03*
X146220000Y-72634500D03*
X146220000Y-70094500D03*
X146220000Y-68824500D03*
D45*
X140755000Y-70094500D03*
X140755000Y-72634500D03*
X140755000Y-68824500D03*
X140755000Y-71364500D03*
D46*
X142860000Y-70729500D03*
D38*
X107859000Y-95490000D03*
X107859000Y-97140000D03*
X109469000Y-76910000D03*
X109469000Y-78560000D03*
D48*
X134421000Y-105875000D03*
X137721000Y-105875000D03*
D43*
X85185000Y-119570000D03*
X83535000Y-119570000D03*
D49*
X97985000Y-76900000D03*
X101985000Y-76900000D03*
D29*
X112720900Y-94100000D03*
X114620900Y-94100000D03*
D47*
X157719000Y-71880000D03*
D50*
X114924100Y-109155000D03*
X114924100Y-107885000D03*
X114924100Y-106615000D03*
X114924100Y-105345000D03*
X109974100Y-105345000D03*
X109974100Y-106615000D03*
X109974100Y-107885000D03*
X109974100Y-109155000D03*
D32*
X78850000Y-105100000D03*
D33*
X78850000Y-102560000D03*
X78850000Y-100020000D03*
X78850000Y-97480000D03*
X78850000Y-94940000D03*
X78850000Y-92400000D03*
D51*
X120840000Y-72400000D03*
D37*
X127950000Y-80620000D03*
X121450000Y-80620000D03*
D52*
X86400000Y-68845000D03*
X86400000Y-70745000D03*
D38*
X107769000Y-100090000D03*
X107769000Y-101740000D03*
D24*
X84910000Y-92025000D03*
X84910000Y-90375000D03*
D17*
X155246600Y-95645000D03*
X156796600Y-95645000D03*
D53*
X106000000Y-86645000D03*
X106000000Y-88745000D03*
D24*
X153521900Y-97310000D03*
X153521900Y-95660000D03*
D36*
X117740000Y-120350000D03*
X117740000Y-117050000D03*
D17*
X155225000Y-93570000D03*
X156775000Y-93570000D03*
D15*
X145265000Y-93350000D03*
X143715000Y-93350000D03*
D44*
X146220000Y-80975000D03*
X146220000Y-78435000D03*
X146220000Y-79705000D03*
X146220000Y-77165000D03*
D46*
X142860000Y-79070000D03*
D45*
X140755000Y-79705000D03*
X140755000Y-80975000D03*
X140755000Y-77165000D03*
X140755000Y-78435000D03*
D47*
X157819000Y-101910000D03*
D54*
X90695000Y-73045000D03*
X90695000Y-69195000D03*
D32*
X78850000Y-77350000D03*
D33*
X78850000Y-74810000D03*
X78850000Y-72270000D03*
X78850000Y-69730000D03*
D42*
X154262500Y-101280000D03*
X148337500Y-101280000D03*
D24*
X87820000Y-76970000D03*
X87820000Y-75320000D03*
D42*
X154262500Y-75540000D03*
X148337500Y-75540000D03*
D53*
X109400000Y-73220000D03*
X109400000Y-75320000D03*
D24*
X142080000Y-93425000D03*
X142080000Y-91775000D03*
D55*
X105290000Y-68730000D03*
X105290000Y-72030000D03*
D44*
X137620000Y-78435000D03*
X137620000Y-79705000D03*
X137620000Y-80975000D03*
X137620000Y-77165000D03*
D45*
X132155000Y-79705000D03*
X132155000Y-78435000D03*
D46*
X134260000Y-79070000D03*
D45*
X132155000Y-80975000D03*
X132155000Y-77165000D03*
D44*
X137620000Y-86885000D03*
X137620000Y-89425000D03*
X137620000Y-88155000D03*
X137620000Y-85615000D03*
D46*
X134260000Y-87520000D03*
D45*
X132155000Y-88155000D03*
X132155000Y-89425000D03*
X132155000Y-85615000D03*
X132155000Y-86885000D03*
D50*
X116674100Y-78525000D03*
X116674100Y-77255000D03*
X116674100Y-75985000D03*
X116674100Y-74715000D03*
X111724100Y-74715000D03*
X111724100Y-75985000D03*
X111724100Y-77255000D03*
X111724100Y-78525000D03*
D38*
X107559000Y-73610000D03*
X107559000Y-75260000D03*
D56*
X114440000Y-71450000D03*
X115940000Y-71450000D03*
X115940000Y-68750000D03*
X114440000Y-68750000D03*
D38*
X107909000Y-80815000D03*
X107909000Y-82465000D03*
D44*
X146220000Y-86885000D03*
X146220000Y-88155000D03*
X146220000Y-89425000D03*
X146220000Y-85615000D03*
D45*
X140755000Y-86885000D03*
X140755000Y-89425000D03*
X140755000Y-88155000D03*
X140755000Y-85615000D03*
D46*
X142860000Y-87520000D03*
D57*
X111749100Y-80400000D03*
X109849100Y-80400000D03*
D16*
X93990000Y-83025000D03*
X93990000Y-84575000D03*
D50*
X115134100Y-91895000D03*
X115134100Y-90625000D03*
X115134100Y-89355000D03*
X115134100Y-88085000D03*
X110184100Y-88085000D03*
X110184100Y-89355000D03*
X110184100Y-90625000D03*
X110184100Y-91895000D03*
D42*
X154262500Y-105320000D03*
X148337500Y-105320000D03*
D50*
X114934100Y-116925000D03*
X114934100Y-115655000D03*
X114934100Y-114385000D03*
X114934100Y-113115000D03*
X109984100Y-113115000D03*
X109984100Y-114385000D03*
X109984100Y-115655000D03*
X109984100Y-116925000D03*
D24*
X91964900Y-84763000D03*
X91964900Y-83113000D03*
D50*
X115124100Y-86275000D03*
X115124100Y-85005000D03*
X115124100Y-83735000D03*
X115124100Y-82465000D03*
X110174100Y-82465000D03*
X110174100Y-83735000D03*
X110174100Y-85005000D03*
X110174100Y-86275000D03*
D38*
X107811000Y-108305000D03*
X107811000Y-109955000D03*
D53*
X106000000Y-83320000D03*
X106000000Y-85420000D03*
D23*
X95973900Y-79510000D03*
X97623900Y-79510000D03*
D42*
X154262500Y-110120000D03*
X148337500Y-110120000D03*
D44*
X146220000Y-110485000D03*
X146220000Y-109215000D03*
X146220000Y-111755000D03*
X146220000Y-107945000D03*
D45*
X140755000Y-109215000D03*
X140755000Y-107945000D03*
X140755000Y-111755000D03*
D46*
X142860000Y-109850000D03*
D45*
X140755000Y-110485000D03*
D37*
X127950000Y-107600000D03*
X121450000Y-107600000D03*
D48*
X142361000Y-114335000D03*
X145661000Y-114335000D03*
D58*
X89290000Y-85900000D03*
D59*
X86750000Y-85900000D03*
X84210000Y-85900000D03*
D48*
X143050000Y-105875000D03*
X146350000Y-105875000D03*
D38*
X107709000Y-103795000D03*
X107709000Y-105445000D03*
D29*
X112630900Y-111080000D03*
X114530900Y-111080000D03*
D38*
X107890000Y-86970000D03*
X107890000Y-88620000D03*
D60*
X101140000Y-119800000D03*
X97840000Y-119800000D03*
D44*
X137620000Y-72625000D03*
X137620000Y-70085000D03*
X137620000Y-71355000D03*
X137620000Y-68815000D03*
D45*
X132155000Y-71355000D03*
D46*
X134260000Y-70720000D03*
D45*
X132155000Y-72625000D03*
X132155000Y-70085000D03*
X132155000Y-68815000D03*
D53*
X106000000Y-91520000D03*
X106000000Y-93620000D03*
D61*
X151452500Y-97375000D03*
X151452500Y-96725000D03*
X151452500Y-96075000D03*
X151452500Y-95425000D03*
X147227500Y-95425000D03*
X147227500Y-96075000D03*
X147227500Y-96725000D03*
X147227500Y-97375000D03*
D53*
X106000000Y-79970000D03*
X106000000Y-82070000D03*
X105800000Y-95300000D03*
X105800000Y-97400000D03*
D48*
X134471000Y-83045000D03*
X137771000Y-83045000D03*
D23*
X138796900Y-97138000D03*
X140446900Y-97138000D03*
D15*
X140405000Y-93460000D03*
X138855000Y-93460000D03*
D50*
X114974100Y-100705000D03*
X114974100Y-99435000D03*
X114974100Y-98165000D03*
X114974100Y-96895000D03*
X110024100Y-96895000D03*
X110024100Y-98165000D03*
X110024100Y-99435000D03*
X110024100Y-100705000D03*
D44*
X137620000Y-110485000D03*
X137620000Y-111755000D03*
X137620000Y-109215000D03*
X137620000Y-107945000D03*
D45*
X132155000Y-110485000D03*
X132155000Y-107945000D03*
D46*
X134260000Y-109850000D03*
D45*
X132155000Y-109215000D03*
X132155000Y-111755000D03*
D62*
X90840000Y-93150000D03*
X93040000Y-93150000D03*
X93040000Y-91450000D03*
X90840000Y-91450000D03*
D43*
X145360000Y-95630900D03*
X143710000Y-95630900D03*
D38*
X107590000Y-116800000D03*
X107590000Y-118450000D03*
D37*
X127950000Y-98600000D03*
X121450000Y-98600000D03*
D53*
X107600000Y-76670000D03*
X107600000Y-78770000D03*
D38*
X83090000Y-97485000D03*
X83090000Y-99135000D03*
D61*
X151452500Y-93715000D03*
X151452500Y-93065000D03*
X151452500Y-92415000D03*
X151452500Y-91765000D03*
X147227500Y-91765000D03*
X147227500Y-92415000D03*
X147227500Y-93065000D03*
X147227500Y-93715000D03*
D32*
X78850000Y-119050000D03*
D33*
X78850000Y-116510000D03*
X78850000Y-113970000D03*
X78850000Y-111430000D03*
X78850000Y-108890000D03*
D56*
X111040000Y-71450000D03*
X112540000Y-71450000D03*
X112540000Y-68750000D03*
X111040000Y-68750000D03*
D38*
X107790000Y-91770000D03*
X107790000Y-93420000D03*
D15*
X140383400Y-95425000D03*
X138833400Y-95425000D03*
D36*
X117840000Y-86520000D03*
X117840000Y-83220000D03*
D44*
X137620000Y-117665000D03*
X137620000Y-120205000D03*
X137620000Y-118935000D03*
X137620000Y-116395000D03*
D45*
X132155000Y-116395000D03*
X132155000Y-118935000D03*
X132155000Y-120205000D03*
X132155000Y-117665000D03*
D46*
X134260000Y-118300000D03*
D48*
X133650000Y-91755000D03*
X136950000Y-91755000D03*
X134421000Y-114335000D03*
X137721000Y-114335000D03*
D16*
X117260000Y-113405900D03*
X117260000Y-114955900D03*
D24*
X153480000Y-93605000D03*
X153480000Y-91955000D03*
D16*
X117460000Y-88375900D03*
X117460000Y-89925900D03*
D43*
X156883100Y-97242000D03*
X155233100Y-97242000D03*
D48*
X134550000Y-74695000D03*
X137850000Y-74695000D03*
X143161000Y-74695000D03*
X146461000Y-74695000D03*
X134050000Y-97250000D03*
X137350000Y-97250000D03*
D17*
X95715000Y-88810000D03*
X97265000Y-88810000D03*
D53*
X105800000Y-111675000D03*
X105800000Y-113775000D03*
D48*
X151161000Y-119935000D03*
X154461000Y-119935000D03*
D44*
X146220000Y-103314500D03*
X146220000Y-100774500D03*
X146220000Y-102044500D03*
X146220000Y-99504500D03*
D45*
X140755000Y-103314500D03*
X140755000Y-100774500D03*
D46*
X142860000Y-101409500D03*
D45*
X140755000Y-99504500D03*
X140755000Y-102044500D03*
D44*
X137620000Y-102035000D03*
X137620000Y-103305000D03*
X137620000Y-100765000D03*
X137620000Y-99495000D03*
D45*
X132155000Y-103305000D03*
D46*
X134260000Y-101400000D03*
D45*
X132155000Y-99495000D03*
X132155000Y-102035000D03*
X132155000Y-100765000D03*
D38*
X86590000Y-93695000D03*
X86590000Y-95345000D03*
D24*
X142121900Y-97140000D03*
X142121900Y-95490000D03*
D56*
X107640000Y-71450000D03*
X109140000Y-71450000D03*
X109140000Y-68750000D03*
X107640000Y-68750000D03*
D42*
X154262500Y-79640000D03*
X148337500Y-79640000D03*
D63*
X93763999Y-86116000D03*
X93114000Y-86116000D03*
X92464001Y-86116000D03*
X92464001Y-88427400D03*
X93114000Y-88427400D03*
X93763999Y-88427400D03*
D64*
X93114000Y-87271700D03*
D42*
X154262500Y-88200000D03*
X148337500Y-88200000D03*
D47*
X157919000Y-118000000D03*
D53*
X105800000Y-103450000D03*
X105800000Y-105550000D03*
X105800000Y-99850000D03*
X105800000Y-101950000D03*
D47*
X157819000Y-79770000D03*
D38*
X107911000Y-83925000D03*
X107911000Y-85575000D03*
D29*
X112520900Y-119130000D03*
X114420900Y-119130000D03*
D36*
X117640000Y-111800000D03*
X117640000Y-108500000D03*
D38*
X86390000Y-97475000D03*
X86390000Y-99125000D03*
D16*
X117360000Y-105205900D03*
X117360000Y-106755900D03*
D47*
X157719000Y-110050000D03*
D38*
X84780000Y-97475000D03*
X84780000Y-99125000D03*
D37*
X127950000Y-89570000D03*
X121450000Y-89570000D03*
D53*
X105800000Y-116550000D03*
X105800000Y-118650000D03*
D43*
X156805000Y-91900000D03*
X155155000Y-91900000D03*
D65*
X84070000Y-71967500D03*
X84070000Y-69042500D03*
D53*
X105800000Y-108000000D03*
X105800000Y-110100000D03*
D29*
X113630900Y-80450000D03*
X115530900Y-80450000D03*
D36*
X117940000Y-94770000D03*
X117940000Y-91470000D03*
D52*
X95210000Y-75895000D03*
X95210000Y-77795000D03*
D48*
X142961000Y-83105000D03*
X146261000Y-83105000D03*
D24*
X86170000Y-74210000D03*
X86170000Y-72560000D03*
D16*
X117510000Y-96745900D03*
X117510000Y-98295900D03*
D38*
X83280000Y-90375000D03*
X83280000Y-92025000D03*
D18*
X85290000Y-77375000D03*
X85290000Y-75825000D03*
D66*
X94280000Y-116045000D03*
X88500000Y-116045000D03*
D67*
X88040000Y-114980000D03*
X88840000Y-114980000D03*
X90140000Y-114980000D03*
X91140000Y-114980000D03*
X91640000Y-114980000D03*
X92640000Y-114980000D03*
X93940000Y-114980000D03*
X94740000Y-114980000D03*
X94440000Y-114980000D03*
X93640000Y-114980000D03*
X93140000Y-114980000D03*
X92140000Y-114980000D03*
X90640000Y-114980000D03*
X89640000Y-114980000D03*
X89140000Y-114980000D03*
X88340000Y-114980000D03*
D68*
X95710000Y-115545000D03*
X87070000Y-115545000D03*
D69*
X87070000Y-119725000D03*
X95710000Y-119725000D03*
D23*
X138765000Y-91800000D03*
X140415000Y-91800000D03*
D51*
X128090000Y-72400000D03*
M02*
