G04 #@! TF.GenerationSoftware,KiCad,Pcbnew,6.0.2+dfsg-1*
G04 #@! TF.CreationDate,2022-12-09T23:48:52-08:00*
G04 #@! TF.ProjectId,RP2040_motor,52503230-3430-45f6-9d6f-746f722e6b69,REV1*
G04 #@! TF.SameCoordinates,Original*
G04 #@! TF.FileFunction,Legend,Bot*
G04 #@! TF.FilePolarity,Positive*
%FSLAX46Y46*%
G04 Gerber Fmt 4.6, Leading zero omitted, Abs format (unit mm)*
G04 Created by KiCad (PCBNEW 6.0.2+dfsg-1) date 2022-12-09 23:48:52*
%MOMM*%
%LPD*%
G01*
G04 APERTURE LIST*
G04 Aperture macros list*
%AMRoundRect*
0 Rectangle with rounded corners*
0 $1 Rounding radius*
0 $2 $3 $4 $5 $6 $7 $8 $9 X,Y pos of 4 corners*
0 Add a 4 corners polygon primitive as box body*
4,1,4,$2,$3,$4,$5,$6,$7,$8,$9,$2,$3,0*
0 Add four circle primitives for the rounded corners*
1,1,$1+$1,$2,$3*
1,1,$1+$1,$4,$5*
1,1,$1+$1,$6,$7*
1,1,$1+$1,$8,$9*
0 Add four rect primitives between the rounded corners*
20,1,$1+$1,$2,$3,$4,$5,0*
20,1,$1+$1,$4,$5,$6,$7,0*
20,1,$1+$1,$6,$7,$8,$9,0*
20,1,$1+$1,$8,$9,$2,$3,0*%
G04 Aperture macros list end*
%ADD10C,0.200000*%
%ADD11C,0.150000*%
%ADD12C,0.300000*%
%ADD13C,3.900000*%
%ADD14RoundRect,0.250000X0.845000X-0.620000X0.845000X0.620000X-0.845000X0.620000X-0.845000X-0.620000X0*%
%ADD15O,2.190000X1.740000*%
%ADD16C,5.300000*%
%ADD17C,6.500000*%
%ADD18RoundRect,0.250000X-0.845000X0.620000X-0.845000X-0.620000X0.845000X-0.620000X0.845000X0.620000X0*%
%ADD19RoundRect,0.250000X0.620000X0.845000X-0.620000X0.845000X-0.620000X-0.845000X0.620000X-0.845000X0*%
%ADD20O,1.740000X2.190000*%
%ADD21C,3.250000*%
%ADD22R,1.500000X1.500000*%
%ADD23C,1.500000*%
%ADD24C,2.600000*%
%ADD25R,1.700000X1.700000*%
%ADD26O,1.700000X1.700000*%
%ADD27C,0.650000*%
%ADD28O,1.000000X1.600000*%
%ADD29O,1.000000X2.100000*%
G04 APERTURE END LIST*
D10*
X117289285Y-80708333D02*
X117289285Y-79308333D01*
X116717857Y-79308333D01*
X116575000Y-79375000D01*
X116503571Y-79441666D01*
X116432142Y-79575000D01*
X116432142Y-79775000D01*
X116503571Y-79908333D01*
X116575000Y-79975000D01*
X116717857Y-80041666D01*
X117289285Y-80041666D01*
X115575000Y-80708333D02*
X115717857Y-80641666D01*
X115789285Y-80508333D01*
X115789285Y-79308333D01*
X114432142Y-80641666D02*
X114575000Y-80708333D01*
X114860714Y-80708333D01*
X115003571Y-80641666D01*
X115075000Y-80508333D01*
X115075000Y-79975000D01*
X115003571Y-79841666D01*
X114860714Y-79775000D01*
X114575000Y-79775000D01*
X114432142Y-79841666D01*
X114360714Y-79975000D01*
X114360714Y-80108333D01*
X115075000Y-80241666D01*
X113075000Y-80708333D02*
X113075000Y-79975000D01*
X113146428Y-79841666D01*
X113289285Y-79775000D01*
X113575000Y-79775000D01*
X113717857Y-79841666D01*
X113075000Y-80641666D02*
X113217857Y-80708333D01*
X113575000Y-80708333D01*
X113717857Y-80641666D01*
X113789285Y-80508333D01*
X113789285Y-80375000D01*
X113717857Y-80241666D01*
X113575000Y-80175000D01*
X113217857Y-80175000D01*
X113075000Y-80108333D01*
X112432142Y-80641666D02*
X112289285Y-80708333D01*
X112003571Y-80708333D01*
X111860714Y-80641666D01*
X111789285Y-80508333D01*
X111789285Y-80441666D01*
X111860714Y-80308333D01*
X112003571Y-80241666D01*
X112217857Y-80241666D01*
X112360714Y-80175000D01*
X112432142Y-80041666D01*
X112432142Y-79975000D01*
X112360714Y-79841666D01*
X112217857Y-79775000D01*
X112003571Y-79775000D01*
X111860714Y-79841666D01*
X110575000Y-80641666D02*
X110717857Y-80708333D01*
X111003571Y-80708333D01*
X111146428Y-80641666D01*
X111217857Y-80508333D01*
X111217857Y-79975000D01*
X111146428Y-79841666D01*
X111003571Y-79775000D01*
X110717857Y-79775000D01*
X110575000Y-79841666D01*
X110503571Y-79975000D01*
X110503571Y-80108333D01*
X111217857Y-80241666D01*
X108075000Y-80641666D02*
X108217857Y-80708333D01*
X108503571Y-80708333D01*
X108646428Y-80641666D01*
X108717857Y-80575000D01*
X108789285Y-80441666D01*
X108789285Y-80041666D01*
X108717857Y-79908333D01*
X108646428Y-79841666D01*
X108503571Y-79775000D01*
X108217857Y-79775000D01*
X108075000Y-79841666D01*
X107217857Y-80708333D02*
X107360714Y-80641666D01*
X107432142Y-80508333D01*
X107432142Y-79308333D01*
X106432142Y-80708333D02*
X106575000Y-80641666D01*
X106646428Y-80575000D01*
X106717857Y-80441666D01*
X106717857Y-80041666D01*
X106646428Y-79908333D01*
X106575000Y-79841666D01*
X106432142Y-79775000D01*
X106217857Y-79775000D01*
X106075000Y-79841666D01*
X106003571Y-79908333D01*
X105932142Y-80041666D01*
X105932142Y-80441666D01*
X106003571Y-80575000D01*
X106075000Y-80641666D01*
X106217857Y-80708333D01*
X106432142Y-80708333D01*
X105289285Y-79775000D02*
X105289285Y-80708333D01*
X105289285Y-79908333D02*
X105217857Y-79841666D01*
X105075000Y-79775000D01*
X104860714Y-79775000D01*
X104717857Y-79841666D01*
X104646428Y-79975000D01*
X104646428Y-80708333D01*
X103360714Y-80641666D02*
X103503571Y-80708333D01*
X103789285Y-80708333D01*
X103932142Y-80641666D01*
X104003571Y-80508333D01*
X104003571Y-79975000D01*
X103932142Y-79841666D01*
X103789285Y-79775000D01*
X103503571Y-79775000D01*
X103360714Y-79841666D01*
X103289285Y-79975000D01*
X103289285Y-80108333D01*
X104003571Y-80241666D01*
X101717857Y-79775000D02*
X101146428Y-79775000D01*
X101503571Y-79308333D02*
X101503571Y-80508333D01*
X101432142Y-80641666D01*
X101289285Y-80708333D01*
X101146428Y-80708333D01*
X100646428Y-80708333D02*
X100646428Y-79308333D01*
X100003571Y-80708333D02*
X100003571Y-79975000D01*
X100075000Y-79841666D01*
X100217857Y-79775000D01*
X100432142Y-79775000D01*
X100575000Y-79841666D01*
X100646428Y-79908333D01*
X99289285Y-80708333D02*
X99289285Y-79775000D01*
X99289285Y-79308333D02*
X99360714Y-79375000D01*
X99289285Y-79441666D01*
X99217857Y-79375000D01*
X99289285Y-79308333D01*
X99289285Y-79441666D01*
X98646428Y-80641666D02*
X98503571Y-80708333D01*
X98217857Y-80708333D01*
X98075000Y-80641666D01*
X98003571Y-80508333D01*
X98003571Y-80441666D01*
X98075000Y-80308333D01*
X98217857Y-80241666D01*
X98432142Y-80241666D01*
X98575000Y-80175000D01*
X98646428Y-80041666D01*
X98646428Y-79975000D01*
X98575000Y-79841666D01*
X98432142Y-79775000D01*
X98217857Y-79775000D01*
X98075000Y-79841666D01*
X96217857Y-80708333D02*
X96217857Y-79308333D01*
X96217857Y-79841666D02*
X96075000Y-79775000D01*
X95789285Y-79775000D01*
X95646428Y-79841666D01*
X95575000Y-79908333D01*
X95503571Y-80041666D01*
X95503571Y-80441666D01*
X95575000Y-80575000D01*
X95646428Y-80641666D01*
X95789285Y-80708333D01*
X96075000Y-80708333D01*
X96217857Y-80641666D01*
X94646428Y-80708333D02*
X94789285Y-80641666D01*
X94860714Y-80575000D01*
X94932142Y-80441666D01*
X94932142Y-80041666D01*
X94860714Y-79908333D01*
X94789285Y-79841666D01*
X94646428Y-79775000D01*
X94432142Y-79775000D01*
X94289285Y-79841666D01*
X94217857Y-79908333D01*
X94146428Y-80041666D01*
X94146428Y-80441666D01*
X94217857Y-80575000D01*
X94289285Y-80641666D01*
X94432142Y-80708333D01*
X94646428Y-80708333D01*
X92860714Y-80708333D02*
X92860714Y-79975000D01*
X92932142Y-79841666D01*
X93075000Y-79775000D01*
X93360714Y-79775000D01*
X93503571Y-79841666D01*
X92860714Y-80641666D02*
X93003571Y-80708333D01*
X93360714Y-80708333D01*
X93503571Y-80641666D01*
X93575000Y-80508333D01*
X93575000Y-80375000D01*
X93503571Y-80241666D01*
X93360714Y-80175000D01*
X93003571Y-80175000D01*
X92860714Y-80108333D01*
X92146428Y-80708333D02*
X92146428Y-79775000D01*
X92146428Y-80041666D02*
X92075000Y-79908333D01*
X92003571Y-79841666D01*
X91860714Y-79775000D01*
X91717857Y-79775000D01*
X90575000Y-80708333D02*
X90575000Y-79308333D01*
X90575000Y-80641666D02*
X90717857Y-80708333D01*
X91003571Y-80708333D01*
X91146428Y-80641666D01*
X91217857Y-80575000D01*
X91289285Y-80441666D01*
X91289285Y-80041666D01*
X91217857Y-79908333D01*
X91146428Y-79841666D01*
X91003571Y-79775000D01*
X90717857Y-79775000D01*
X90575000Y-79841666D01*
X89860714Y-80575000D02*
X89789285Y-80641666D01*
X89860714Y-80708333D01*
X89932142Y-80641666D01*
X89860714Y-80575000D01*
X89860714Y-80708333D01*
X89860714Y-80175000D02*
X89932142Y-79375000D01*
X89860714Y-79308333D01*
X89789285Y-79375000D01*
X89860714Y-80175000D01*
X89860714Y-79308333D01*
D11*
X134109523Y-39952380D02*
X133776190Y-40952380D01*
X133442857Y-39952380D01*
X133109523Y-40952380D02*
X133109523Y-39952380D01*
X132776190Y-40666666D01*
X132442857Y-39952380D01*
X132442857Y-40952380D01*
X131776190Y-39952380D02*
X131585714Y-39952380D01*
X131490476Y-40000000D01*
X131395238Y-40095238D01*
X131347619Y-40285714D01*
X131347619Y-40619047D01*
X131395238Y-40809523D01*
X131490476Y-40904761D01*
X131585714Y-40952380D01*
X131776190Y-40952380D01*
X131871428Y-40904761D01*
X131966666Y-40809523D01*
X132014285Y-40619047D01*
X132014285Y-40285714D01*
X131966666Y-40095238D01*
X131871428Y-40000000D01*
X131776190Y-39952380D01*
X131061904Y-39952380D02*
X130490476Y-39952380D01*
X130776190Y-40952380D02*
X130776190Y-39952380D01*
D10*
X90314285Y-101260857D02*
X89628571Y-101260857D01*
X89971428Y-102460857D02*
X89971428Y-101260857D01*
X89228571Y-102460857D02*
X89228571Y-101260857D01*
X88714285Y-102460857D02*
X88714285Y-101832285D01*
X88771428Y-101718000D01*
X88885714Y-101660857D01*
X89057142Y-101660857D01*
X89171428Y-101718000D01*
X89228571Y-101775142D01*
X87685714Y-102403714D02*
X87800000Y-102460857D01*
X88028571Y-102460857D01*
X88142857Y-102403714D01*
X88200000Y-102289428D01*
X88200000Y-101832285D01*
X88142857Y-101718000D01*
X88028571Y-101660857D01*
X87800000Y-101660857D01*
X87685714Y-101718000D01*
X87628571Y-101832285D01*
X87628571Y-101946571D01*
X88200000Y-102060857D01*
X86257142Y-102403714D02*
X86142857Y-102460857D01*
X85914285Y-102460857D01*
X85800000Y-102403714D01*
X85742857Y-102289428D01*
X85742857Y-102232285D01*
X85800000Y-102118000D01*
X85914285Y-102060857D01*
X86085714Y-102060857D01*
X86200000Y-102003714D01*
X86257142Y-101889428D01*
X86257142Y-101832285D01*
X86200000Y-101718000D01*
X86085714Y-101660857D01*
X85914285Y-101660857D01*
X85800000Y-101718000D01*
X85228571Y-102460857D02*
X85228571Y-101660857D01*
X85228571Y-101775142D02*
X85171428Y-101718000D01*
X85057142Y-101660857D01*
X84885714Y-101660857D01*
X84771428Y-101718000D01*
X84714285Y-101832285D01*
X84714285Y-102460857D01*
X84714285Y-101832285D02*
X84657142Y-101718000D01*
X84542857Y-101660857D01*
X84371428Y-101660857D01*
X84257142Y-101718000D01*
X84200000Y-101832285D01*
X84200000Y-102460857D01*
X83114285Y-102460857D02*
X83114285Y-101832285D01*
X83171428Y-101718000D01*
X83285714Y-101660857D01*
X83514285Y-101660857D01*
X83628571Y-101718000D01*
X83114285Y-102403714D02*
X83228571Y-102460857D01*
X83514285Y-102460857D01*
X83628571Y-102403714D01*
X83685714Y-102289428D01*
X83685714Y-102175142D01*
X83628571Y-102060857D01*
X83514285Y-102003714D01*
X83228571Y-102003714D01*
X83114285Y-101946571D01*
X82371428Y-102460857D02*
X82485714Y-102403714D01*
X82542857Y-102289428D01*
X82542857Y-101260857D01*
X81742857Y-102460857D02*
X81857142Y-102403714D01*
X81914285Y-102289428D01*
X81914285Y-101260857D01*
X80828571Y-102403714D02*
X80942857Y-102460857D01*
X81171428Y-102460857D01*
X81285714Y-102403714D01*
X81342857Y-102289428D01*
X81342857Y-101832285D01*
X81285714Y-101718000D01*
X81171428Y-101660857D01*
X80942857Y-101660857D01*
X80828571Y-101718000D01*
X80771428Y-101832285D01*
X80771428Y-101946571D01*
X81342857Y-102060857D01*
X80314285Y-102403714D02*
X80200000Y-102460857D01*
X79971428Y-102460857D01*
X79857142Y-102403714D01*
X79800000Y-102289428D01*
X79800000Y-102232285D01*
X79857142Y-102118000D01*
X79971428Y-102060857D01*
X80142857Y-102060857D01*
X80257142Y-102003714D01*
X80314285Y-101889428D01*
X80314285Y-101832285D01*
X80257142Y-101718000D01*
X80142857Y-101660857D01*
X79971428Y-101660857D01*
X79857142Y-101718000D01*
X79457142Y-101660857D02*
X79000000Y-101660857D01*
X79285714Y-101260857D02*
X79285714Y-102289428D01*
X79228571Y-102403714D01*
X79114285Y-102460857D01*
X79000000Y-102460857D01*
X77171428Y-102403714D02*
X77285714Y-102460857D01*
X77514285Y-102460857D01*
X77628571Y-102403714D01*
X77685714Y-102346571D01*
X77742857Y-102232285D01*
X77742857Y-101889428D01*
X77685714Y-101775142D01*
X77628571Y-101718000D01*
X77514285Y-101660857D01*
X77285714Y-101660857D01*
X77171428Y-101718000D01*
X76657142Y-102460857D02*
X76657142Y-101260857D01*
X76142857Y-102460857D02*
X76142857Y-101832285D01*
X76200000Y-101718000D01*
X76314285Y-101660857D01*
X76485714Y-101660857D01*
X76600000Y-101718000D01*
X76657142Y-101775142D01*
X75057142Y-102460857D02*
X75057142Y-101832285D01*
X75114285Y-101718000D01*
X75228571Y-101660857D01*
X75457142Y-101660857D01*
X75571428Y-101718000D01*
X75057142Y-102403714D02*
X75171428Y-102460857D01*
X75457142Y-102460857D01*
X75571428Y-102403714D01*
X75628571Y-102289428D01*
X75628571Y-102175142D01*
X75571428Y-102060857D01*
X75457142Y-102003714D01*
X75171428Y-102003714D01*
X75057142Y-101946571D01*
X74485714Y-101660857D02*
X74485714Y-102460857D01*
X74485714Y-101775142D02*
X74428571Y-101718000D01*
X74314285Y-101660857D01*
X74142857Y-101660857D01*
X74028571Y-101718000D01*
X73971428Y-101832285D01*
X73971428Y-102460857D01*
X72885714Y-101660857D02*
X72885714Y-102632285D01*
X72942857Y-102746571D01*
X73000000Y-102803714D01*
X73114285Y-102860857D01*
X73285714Y-102860857D01*
X73400000Y-102803714D01*
X72885714Y-102403714D02*
X73000000Y-102460857D01*
X73228571Y-102460857D01*
X73342857Y-102403714D01*
X73400000Y-102346571D01*
X73457142Y-102232285D01*
X73457142Y-101889428D01*
X73400000Y-101775142D01*
X73342857Y-101718000D01*
X73228571Y-101660857D01*
X73000000Y-101660857D01*
X72885714Y-101718000D01*
X71857142Y-102403714D02*
X71971428Y-102460857D01*
X72200000Y-102460857D01*
X72314285Y-102403714D01*
X72371428Y-102289428D01*
X72371428Y-101832285D01*
X72314285Y-101718000D01*
X72200000Y-101660857D01*
X71971428Y-101660857D01*
X71857142Y-101718000D01*
X71800000Y-101832285D01*
X71800000Y-101946571D01*
X72371428Y-102060857D01*
X89971428Y-104335714D02*
X90085714Y-104392857D01*
X90314285Y-104392857D01*
X90428571Y-104335714D01*
X90485714Y-104278571D01*
X90542857Y-104164285D01*
X90542857Y-103821428D01*
X90485714Y-103707142D01*
X90428571Y-103650000D01*
X90314285Y-103592857D01*
X90085714Y-103592857D01*
X89971428Y-103650000D01*
X88942857Y-104392857D02*
X88942857Y-103764285D01*
X89000000Y-103650000D01*
X89114285Y-103592857D01*
X89342857Y-103592857D01*
X89457142Y-103650000D01*
X88942857Y-104335714D02*
X89057142Y-104392857D01*
X89342857Y-104392857D01*
X89457142Y-104335714D01*
X89514285Y-104221428D01*
X89514285Y-104107142D01*
X89457142Y-103992857D01*
X89342857Y-103935714D01*
X89057142Y-103935714D01*
X88942857Y-103878571D01*
X88371428Y-103592857D02*
X88371428Y-104392857D01*
X88371428Y-103707142D02*
X88314285Y-103650000D01*
X88200000Y-103592857D01*
X88028571Y-103592857D01*
X87914285Y-103650000D01*
X87857142Y-103764285D01*
X87857142Y-104392857D01*
X86371428Y-104392857D02*
X86371428Y-103192857D01*
X86371428Y-103650000D02*
X86257142Y-103592857D01*
X86028571Y-103592857D01*
X85914285Y-103650000D01*
X85857142Y-103707142D01*
X85800000Y-103821428D01*
X85800000Y-104164285D01*
X85857142Y-104278571D01*
X85914285Y-104335714D01*
X86028571Y-104392857D01*
X86257142Y-104392857D01*
X86371428Y-104335714D01*
X84828571Y-104335714D02*
X84942857Y-104392857D01*
X85171428Y-104392857D01*
X85285714Y-104335714D01*
X85342857Y-104221428D01*
X85342857Y-103764285D01*
X85285714Y-103650000D01*
X85171428Y-103592857D01*
X84942857Y-103592857D01*
X84828571Y-103650000D01*
X84771428Y-103764285D01*
X84771428Y-103878571D01*
X85342857Y-103992857D01*
X83514285Y-103592857D02*
X83057142Y-103592857D01*
X83342857Y-103192857D02*
X83342857Y-104221428D01*
X83285714Y-104335714D01*
X83171428Y-104392857D01*
X83057142Y-104392857D01*
X82657142Y-104392857D02*
X82657142Y-103192857D01*
X82142857Y-104392857D02*
X82142857Y-103764285D01*
X82200000Y-103650000D01*
X82314285Y-103592857D01*
X82485714Y-103592857D01*
X82600000Y-103650000D01*
X82657142Y-103707142D01*
X81114285Y-104335714D02*
X81228571Y-104392857D01*
X81457142Y-104392857D01*
X81571428Y-104335714D01*
X81628571Y-104221428D01*
X81628571Y-103764285D01*
X81571428Y-103650000D01*
X81457142Y-103592857D01*
X81228571Y-103592857D01*
X81114285Y-103650000D01*
X81057142Y-103764285D01*
X81057142Y-103878571D01*
X81628571Y-103992857D01*
X79628571Y-104392857D02*
X79628571Y-103192857D01*
X79628571Y-103650000D02*
X79514285Y-103592857D01*
X79285714Y-103592857D01*
X79171428Y-103650000D01*
X79114285Y-103707142D01*
X79057142Y-103821428D01*
X79057142Y-104164285D01*
X79114285Y-104278571D01*
X79171428Y-104335714D01*
X79285714Y-104392857D01*
X79514285Y-104392857D01*
X79628571Y-104335714D01*
X78085714Y-104335714D02*
X78200000Y-104392857D01*
X78428571Y-104392857D01*
X78542857Y-104335714D01*
X78600000Y-104221428D01*
X78600000Y-103764285D01*
X78542857Y-103650000D01*
X78428571Y-103592857D01*
X78200000Y-103592857D01*
X78085714Y-103650000D01*
X78028571Y-103764285D01*
X78028571Y-103878571D01*
X78600000Y-103992857D01*
X77000000Y-103592857D02*
X77000000Y-104564285D01*
X77057142Y-104678571D01*
X77114285Y-104735714D01*
X77228571Y-104792857D01*
X77400000Y-104792857D01*
X77514285Y-104735714D01*
X77000000Y-104335714D02*
X77114285Y-104392857D01*
X77342857Y-104392857D01*
X77457142Y-104335714D01*
X77514285Y-104278571D01*
X77571428Y-104164285D01*
X77571428Y-103821428D01*
X77514285Y-103707142D01*
X77457142Y-103650000D01*
X77342857Y-103592857D01*
X77114285Y-103592857D01*
X77000000Y-103650000D01*
X76428571Y-104392857D02*
X76428571Y-103592857D01*
X76428571Y-103192857D02*
X76485714Y-103250000D01*
X76428571Y-103307142D01*
X76371428Y-103250000D01*
X76428571Y-103192857D01*
X76428571Y-103307142D01*
X75857142Y-103592857D02*
X75857142Y-104392857D01*
X75857142Y-103707142D02*
X75800000Y-103650000D01*
X75685714Y-103592857D01*
X75514285Y-103592857D01*
X75400000Y-103650000D01*
X75342857Y-103764285D01*
X75342857Y-104392857D01*
X74771428Y-103592857D02*
X74771428Y-104392857D01*
X74771428Y-103707142D02*
X74714285Y-103650000D01*
X74600000Y-103592857D01*
X74428571Y-103592857D01*
X74314285Y-103650000D01*
X74257142Y-103764285D01*
X74257142Y-104392857D01*
X73685714Y-104392857D02*
X73685714Y-103592857D01*
X73685714Y-103192857D02*
X73742857Y-103250000D01*
X73685714Y-103307142D01*
X73628571Y-103250000D01*
X73685714Y-103192857D01*
X73685714Y-103307142D01*
X73114285Y-103592857D02*
X73114285Y-104392857D01*
X73114285Y-103707142D02*
X73057142Y-103650000D01*
X72942857Y-103592857D01*
X72771428Y-103592857D01*
X72657142Y-103650000D01*
X72600000Y-103764285D01*
X72600000Y-104392857D01*
X71514285Y-103592857D02*
X71514285Y-104564285D01*
X71571428Y-104678571D01*
X71628571Y-104735714D01*
X71742857Y-104792857D01*
X71914285Y-104792857D01*
X72028571Y-104735714D01*
X71514285Y-104335714D02*
X71628571Y-104392857D01*
X71857142Y-104392857D01*
X71971428Y-104335714D01*
X72028571Y-104278571D01*
X72085714Y-104164285D01*
X72085714Y-103821428D01*
X72028571Y-103707142D01*
X71971428Y-103650000D01*
X71857142Y-103592857D01*
X71628571Y-103592857D01*
X71514285Y-103650000D01*
X88600000Y-106324857D02*
X88714285Y-106267714D01*
X88771428Y-106210571D01*
X88828571Y-106096285D01*
X88828571Y-105753428D01*
X88771428Y-105639142D01*
X88714285Y-105582000D01*
X88600000Y-105524857D01*
X88428571Y-105524857D01*
X88314285Y-105582000D01*
X88257142Y-105639142D01*
X88200000Y-105753428D01*
X88200000Y-106096285D01*
X88257142Y-106210571D01*
X88314285Y-106267714D01*
X88428571Y-106324857D01*
X88600000Y-106324857D01*
X87857142Y-105524857D02*
X87400000Y-105524857D01*
X87685714Y-106324857D02*
X87685714Y-105296285D01*
X87628571Y-105182000D01*
X87514285Y-105124857D01*
X87400000Y-105124857D01*
X86142857Y-106267714D02*
X86028571Y-106324857D01*
X85800000Y-106324857D01*
X85685714Y-106267714D01*
X85628571Y-106153428D01*
X85628571Y-106096285D01*
X85685714Y-105982000D01*
X85800000Y-105924857D01*
X85971428Y-105924857D01*
X86085714Y-105867714D01*
X86142857Y-105753428D01*
X86142857Y-105696285D01*
X86085714Y-105582000D01*
X85971428Y-105524857D01*
X85800000Y-105524857D01*
X85685714Y-105582000D01*
X84942857Y-106324857D02*
X85057142Y-106267714D01*
X85114285Y-106210571D01*
X85171428Y-106096285D01*
X85171428Y-105753428D01*
X85114285Y-105639142D01*
X85057142Y-105582000D01*
X84942857Y-105524857D01*
X84771428Y-105524857D01*
X84657142Y-105582000D01*
X84600000Y-105639142D01*
X84542857Y-105753428D01*
X84542857Y-106096285D01*
X84600000Y-106210571D01*
X84657142Y-106267714D01*
X84771428Y-106324857D01*
X84942857Y-106324857D01*
X84028571Y-106324857D02*
X84028571Y-105524857D01*
X84028571Y-105639142D02*
X83971428Y-105582000D01*
X83857142Y-105524857D01*
X83685714Y-105524857D01*
X83571428Y-105582000D01*
X83514285Y-105696285D01*
X83514285Y-106324857D01*
X83514285Y-105696285D02*
X83457142Y-105582000D01*
X83342857Y-105524857D01*
X83171428Y-105524857D01*
X83057142Y-105582000D01*
X83000000Y-105696285D01*
X83000000Y-106324857D01*
X81971428Y-106267714D02*
X82085714Y-106324857D01*
X82314285Y-106324857D01*
X82428571Y-106267714D01*
X82485714Y-106153428D01*
X82485714Y-105696285D01*
X82428571Y-105582000D01*
X82314285Y-105524857D01*
X82085714Y-105524857D01*
X81971428Y-105582000D01*
X81914285Y-105696285D01*
X81914285Y-105810571D01*
X82485714Y-105924857D01*
X81571428Y-105524857D02*
X81114285Y-105524857D01*
X81400000Y-105124857D02*
X81400000Y-106153428D01*
X81342857Y-106267714D01*
X81228571Y-106324857D01*
X81114285Y-106324857D01*
X80714285Y-106324857D02*
X80714285Y-105124857D01*
X80200000Y-106324857D02*
X80200000Y-105696285D01*
X80257142Y-105582000D01*
X80371428Y-105524857D01*
X80542857Y-105524857D01*
X80657142Y-105582000D01*
X80714285Y-105639142D01*
X79628571Y-106324857D02*
X79628571Y-105524857D01*
X79628571Y-105124857D02*
X79685714Y-105182000D01*
X79628571Y-105239142D01*
X79571428Y-105182000D01*
X79628571Y-105124857D01*
X79628571Y-105239142D01*
X79057142Y-105524857D02*
X79057142Y-106324857D01*
X79057142Y-105639142D02*
X79000000Y-105582000D01*
X78885714Y-105524857D01*
X78714285Y-105524857D01*
X78600000Y-105582000D01*
X78542857Y-105696285D01*
X78542857Y-106324857D01*
X77457142Y-105524857D02*
X77457142Y-106496285D01*
X77514285Y-106610571D01*
X77571428Y-106667714D01*
X77685714Y-106724857D01*
X77857142Y-106724857D01*
X77971428Y-106667714D01*
X77457142Y-106267714D02*
X77571428Y-106324857D01*
X77800000Y-106324857D01*
X77914285Y-106267714D01*
X77971428Y-106210571D01*
X78028571Y-106096285D01*
X78028571Y-105753428D01*
X77971428Y-105639142D01*
X77914285Y-105582000D01*
X77800000Y-105524857D01*
X77571428Y-105524857D01*
X77457142Y-105582000D01*
X75971428Y-106324857D02*
X75971428Y-105124857D01*
X75971428Y-105582000D02*
X75857142Y-105524857D01*
X75628571Y-105524857D01*
X75514285Y-105582000D01*
X75457142Y-105639142D01*
X75400000Y-105753428D01*
X75400000Y-106096285D01*
X75457142Y-106210571D01*
X75514285Y-106267714D01*
X75628571Y-106324857D01*
X75857142Y-106324857D01*
X75971428Y-106267714D01*
X74885714Y-106324857D02*
X74885714Y-105524857D01*
X74885714Y-105124857D02*
X74942857Y-105182000D01*
X74885714Y-105239142D01*
X74828571Y-105182000D01*
X74885714Y-105124857D01*
X74885714Y-105239142D01*
X73800000Y-105524857D02*
X73800000Y-106496285D01*
X73857142Y-106610571D01*
X73914285Y-106667714D01*
X74028571Y-106724857D01*
X74200000Y-106724857D01*
X74314285Y-106667714D01*
X73800000Y-106267714D02*
X73914285Y-106324857D01*
X74142857Y-106324857D01*
X74257142Y-106267714D01*
X74314285Y-106210571D01*
X74371428Y-106096285D01*
X74371428Y-105753428D01*
X74314285Y-105639142D01*
X74257142Y-105582000D01*
X74142857Y-105524857D01*
X73914285Y-105524857D01*
X73800000Y-105582000D01*
X73228571Y-106210571D02*
X73171428Y-106267714D01*
X73228571Y-106324857D01*
X73285714Y-106267714D01*
X73228571Y-106210571D01*
X73228571Y-106324857D01*
X112785714Y-81306333D02*
X112428571Y-82706333D01*
X112142857Y-81706333D01*
X111857142Y-82706333D01*
X111500000Y-81306333D01*
X110357142Y-82639666D02*
X110500000Y-82706333D01*
X110785714Y-82706333D01*
X110928571Y-82639666D01*
X111000000Y-82506333D01*
X111000000Y-81973000D01*
X110928571Y-81839666D01*
X110785714Y-81773000D01*
X110500000Y-81773000D01*
X110357142Y-81839666D01*
X110285714Y-81973000D01*
X110285714Y-82106333D01*
X111000000Y-82239666D01*
X108500000Y-81773000D02*
X108500000Y-82706333D01*
X108500000Y-81906333D02*
X108428571Y-81839666D01*
X108285714Y-81773000D01*
X108071428Y-81773000D01*
X107928571Y-81839666D01*
X107857142Y-81973000D01*
X107857142Y-82706333D01*
X106571428Y-82639666D02*
X106714285Y-82706333D01*
X107000000Y-82706333D01*
X107142857Y-82639666D01*
X107214285Y-82506333D01*
X107214285Y-81973000D01*
X107142857Y-81839666D01*
X107000000Y-81773000D01*
X106714285Y-81773000D01*
X106571428Y-81839666D01*
X106500000Y-81973000D01*
X106500000Y-82106333D01*
X107214285Y-82239666D01*
X105285714Y-82639666D02*
X105428571Y-82706333D01*
X105714285Y-82706333D01*
X105857142Y-82639666D01*
X105928571Y-82506333D01*
X105928571Y-81973000D01*
X105857142Y-81839666D01*
X105714285Y-81773000D01*
X105428571Y-81773000D01*
X105285714Y-81839666D01*
X105214285Y-81973000D01*
X105214285Y-82106333D01*
X105928571Y-82239666D01*
X103928571Y-82706333D02*
X103928571Y-81306333D01*
X103928571Y-82639666D02*
X104071428Y-82706333D01*
X104357142Y-82706333D01*
X104500000Y-82639666D01*
X104571428Y-82573000D01*
X104642857Y-82439666D01*
X104642857Y-82039666D01*
X104571428Y-81906333D01*
X104500000Y-81839666D01*
X104357142Y-81773000D01*
X104071428Y-81773000D01*
X103928571Y-81839666D01*
X102214285Y-81773000D02*
X101857142Y-82706333D01*
X101500000Y-81773000D02*
X101857142Y-82706333D01*
X102000000Y-83039666D01*
X102071428Y-83106333D01*
X102214285Y-83173000D01*
X100714285Y-82706333D02*
X100857142Y-82639666D01*
X100928571Y-82573000D01*
X101000000Y-82439666D01*
X101000000Y-82039666D01*
X100928571Y-81906333D01*
X100857142Y-81839666D01*
X100714285Y-81773000D01*
X100500000Y-81773000D01*
X100357142Y-81839666D01*
X100285714Y-81906333D01*
X100214285Y-82039666D01*
X100214285Y-82439666D01*
X100285714Y-82573000D01*
X100357142Y-82639666D01*
X100500000Y-82706333D01*
X100714285Y-82706333D01*
X98928571Y-81773000D02*
X98928571Y-82706333D01*
X99571428Y-81773000D02*
X99571428Y-82506333D01*
X99500000Y-82639666D01*
X99357142Y-82706333D01*
X99142857Y-82706333D01*
X99000000Y-82639666D01*
X98928571Y-82573000D01*
X98214285Y-82706333D02*
X98214285Y-81773000D01*
X98214285Y-82039666D02*
X98142857Y-81906333D01*
X98071428Y-81839666D01*
X97928571Y-81773000D01*
X97785714Y-81773000D01*
X96142857Y-82706333D02*
X96142857Y-81306333D01*
X95500000Y-82706333D02*
X95500000Y-81973000D01*
X95571428Y-81839666D01*
X95714285Y-81773000D01*
X95928571Y-81773000D01*
X96071428Y-81839666D01*
X96142857Y-81906333D01*
X94214285Y-82639666D02*
X94357142Y-82706333D01*
X94642857Y-82706333D01*
X94785714Y-82639666D01*
X94857142Y-82506333D01*
X94857142Y-81973000D01*
X94785714Y-81839666D01*
X94642857Y-81773000D01*
X94357142Y-81773000D01*
X94214285Y-81839666D01*
X94142857Y-81973000D01*
X94142857Y-82106333D01*
X94857142Y-82239666D01*
X93285714Y-82706333D02*
X93428571Y-82639666D01*
X93500000Y-82506333D01*
X93500000Y-81306333D01*
X92714285Y-81773000D02*
X92714285Y-83173000D01*
X92714285Y-81839666D02*
X92571428Y-81773000D01*
X92285714Y-81773000D01*
X92142857Y-81839666D01*
X92071428Y-81906333D01*
X92000000Y-82039666D01*
X92000000Y-82439666D01*
X92071428Y-82573000D01*
X92142857Y-82639666D01*
X92285714Y-82706333D01*
X92571428Y-82706333D01*
X92714285Y-82639666D01*
X91357142Y-82573000D02*
X91285714Y-82639666D01*
X91357142Y-82706333D01*
X91428571Y-82639666D01*
X91357142Y-82573000D01*
X91357142Y-82706333D01*
X121464285Y-84227000D02*
X121964285Y-84227000D01*
X121964285Y-84960333D02*
X121964285Y-83560333D01*
X121250000Y-83560333D01*
X120464285Y-84960333D02*
X120607142Y-84893666D01*
X120678571Y-84827000D01*
X120750000Y-84693666D01*
X120750000Y-84293666D01*
X120678571Y-84160333D01*
X120607142Y-84093666D01*
X120464285Y-84027000D01*
X120250000Y-84027000D01*
X120107142Y-84093666D01*
X120035714Y-84160333D01*
X119964285Y-84293666D01*
X119964285Y-84693666D01*
X120035714Y-84827000D01*
X120107142Y-84893666D01*
X120250000Y-84960333D01*
X120464285Y-84960333D01*
X119321428Y-84960333D02*
X119321428Y-84027000D01*
X119321428Y-84293666D02*
X119250000Y-84160333D01*
X119178571Y-84093666D01*
X119035714Y-84027000D01*
X118892857Y-84027000D01*
X118392857Y-84960333D02*
X118392857Y-83560333D01*
X118250000Y-84427000D02*
X117821428Y-84960333D01*
X117821428Y-84027000D02*
X118392857Y-84560333D01*
X116250000Y-84027000D02*
X115678571Y-84027000D01*
X116035714Y-83560333D02*
X116035714Y-84760333D01*
X115964285Y-84893666D01*
X115821428Y-84960333D01*
X115678571Y-84960333D01*
X115178571Y-84960333D02*
X115178571Y-83560333D01*
X114535714Y-84960333D02*
X114535714Y-84227000D01*
X114607142Y-84093666D01*
X114750000Y-84027000D01*
X114964285Y-84027000D01*
X115107142Y-84093666D01*
X115178571Y-84160333D01*
X113250000Y-84893666D02*
X113392857Y-84960333D01*
X113678571Y-84960333D01*
X113821428Y-84893666D01*
X113892857Y-84760333D01*
X113892857Y-84227000D01*
X113821428Y-84093666D01*
X113678571Y-84027000D01*
X113392857Y-84027000D01*
X113250000Y-84093666D01*
X113178571Y-84227000D01*
X113178571Y-84360333D01*
X113892857Y-84493666D01*
X110750000Y-84960333D02*
X110750000Y-83560333D01*
X110750000Y-84893666D02*
X110892857Y-84960333D01*
X111178571Y-84960333D01*
X111321428Y-84893666D01*
X111392857Y-84827000D01*
X111464285Y-84693666D01*
X111464285Y-84293666D01*
X111392857Y-84160333D01*
X111321428Y-84093666D01*
X111178571Y-84027000D01*
X110892857Y-84027000D01*
X110750000Y-84093666D01*
X109464285Y-84893666D02*
X109607142Y-84960333D01*
X109892857Y-84960333D01*
X110035714Y-84893666D01*
X110107142Y-84760333D01*
X110107142Y-84227000D01*
X110035714Y-84093666D01*
X109892857Y-84027000D01*
X109607142Y-84027000D01*
X109464285Y-84093666D01*
X109392857Y-84227000D01*
X109392857Y-84360333D01*
X110107142Y-84493666D01*
X108821428Y-84893666D02*
X108678571Y-84960333D01*
X108392857Y-84960333D01*
X108250000Y-84893666D01*
X108178571Y-84760333D01*
X108178571Y-84693666D01*
X108250000Y-84560333D01*
X108392857Y-84493666D01*
X108607142Y-84493666D01*
X108750000Y-84427000D01*
X108821428Y-84293666D01*
X108821428Y-84227000D01*
X108750000Y-84093666D01*
X108607142Y-84027000D01*
X108392857Y-84027000D01*
X108250000Y-84093666D01*
X107535714Y-84960333D02*
X107535714Y-84027000D01*
X107535714Y-83560333D02*
X107607142Y-83627000D01*
X107535714Y-83693666D01*
X107464285Y-83627000D01*
X107535714Y-83560333D01*
X107535714Y-83693666D01*
X106178571Y-84027000D02*
X106178571Y-85160333D01*
X106250000Y-85293666D01*
X106321428Y-85360333D01*
X106464285Y-85427000D01*
X106678571Y-85427000D01*
X106821428Y-85360333D01*
X106178571Y-84893666D02*
X106321428Y-84960333D01*
X106607142Y-84960333D01*
X106750000Y-84893666D01*
X106821428Y-84827000D01*
X106892857Y-84693666D01*
X106892857Y-84293666D01*
X106821428Y-84160333D01*
X106750000Y-84093666D01*
X106607142Y-84027000D01*
X106321428Y-84027000D01*
X106178571Y-84093666D01*
X105464285Y-84027000D02*
X105464285Y-84960333D01*
X105464285Y-84160333D02*
X105392857Y-84093666D01*
X105250000Y-84027000D01*
X105035714Y-84027000D01*
X104892857Y-84093666D01*
X104821428Y-84227000D01*
X104821428Y-84960333D01*
X102321428Y-84960333D02*
X102321428Y-84227000D01*
X102392857Y-84093666D01*
X102535714Y-84027000D01*
X102821428Y-84027000D01*
X102964285Y-84093666D01*
X102321428Y-84893666D02*
X102464285Y-84960333D01*
X102821428Y-84960333D01*
X102964285Y-84893666D01*
X103035714Y-84760333D01*
X103035714Y-84627000D01*
X102964285Y-84493666D01*
X102821428Y-84427000D01*
X102464285Y-84427000D01*
X102321428Y-84360333D01*
X101607142Y-84027000D02*
X101607142Y-84960333D01*
X101607142Y-84160333D02*
X101535714Y-84093666D01*
X101392857Y-84027000D01*
X101178571Y-84027000D01*
X101035714Y-84093666D01*
X100964285Y-84227000D01*
X100964285Y-84960333D01*
X99607142Y-84960333D02*
X99607142Y-83560333D01*
X99607142Y-84893666D02*
X99750000Y-84960333D01*
X100035714Y-84960333D01*
X100178571Y-84893666D01*
X100250000Y-84827000D01*
X100321428Y-84693666D01*
X100321428Y-84293666D01*
X100250000Y-84160333D01*
X100178571Y-84093666D01*
X100035714Y-84027000D01*
X99750000Y-84027000D01*
X99607142Y-84093666D01*
X97750000Y-84960333D02*
X97750000Y-84027000D01*
X97750000Y-84160333D02*
X97678571Y-84093666D01*
X97535714Y-84027000D01*
X97321428Y-84027000D01*
X97178571Y-84093666D01*
X97107142Y-84227000D01*
X97107142Y-84960333D01*
X97107142Y-84227000D02*
X97035714Y-84093666D01*
X96892857Y-84027000D01*
X96678571Y-84027000D01*
X96535714Y-84093666D01*
X96464285Y-84227000D01*
X96464285Y-84960333D01*
X95107142Y-84960333D02*
X95107142Y-84227000D01*
X95178571Y-84093666D01*
X95321428Y-84027000D01*
X95607142Y-84027000D01*
X95750000Y-84093666D01*
X95107142Y-84893666D02*
X95250000Y-84960333D01*
X95607142Y-84960333D01*
X95750000Y-84893666D01*
X95821428Y-84760333D01*
X95821428Y-84627000D01*
X95750000Y-84493666D01*
X95607142Y-84427000D01*
X95250000Y-84427000D01*
X95107142Y-84360333D01*
X94392857Y-84960333D02*
X94392857Y-83560333D01*
X94250000Y-84427000D02*
X93821428Y-84960333D01*
X93821428Y-84027000D02*
X94392857Y-84560333D01*
X92607142Y-84893666D02*
X92750000Y-84960333D01*
X93035714Y-84960333D01*
X93178571Y-84893666D01*
X93250000Y-84760333D01*
X93250000Y-84227000D01*
X93178571Y-84093666D01*
X93035714Y-84027000D01*
X92750000Y-84027000D01*
X92607142Y-84093666D01*
X92535714Y-84227000D01*
X92535714Y-84360333D01*
X93250000Y-84493666D01*
X90750000Y-84960333D02*
X90750000Y-84027000D01*
X90750000Y-83560333D02*
X90821428Y-83627000D01*
X90750000Y-83693666D01*
X90678571Y-83627000D01*
X90750000Y-83560333D01*
X90750000Y-83693666D01*
X90250000Y-84027000D02*
X89678571Y-84027000D01*
X90035714Y-83560333D02*
X90035714Y-84760333D01*
X89964285Y-84893666D01*
X89821428Y-84960333D01*
X89678571Y-84960333D01*
X88178571Y-84027000D02*
X87821428Y-84960333D01*
X87464285Y-84027000D02*
X87821428Y-84960333D01*
X87964285Y-85293666D01*
X88035714Y-85360333D01*
X88178571Y-85427000D01*
X86678571Y-84960333D02*
X86821428Y-84893666D01*
X86892857Y-84827000D01*
X86964285Y-84693666D01*
X86964285Y-84293666D01*
X86892857Y-84160333D01*
X86821428Y-84093666D01*
X86678571Y-84027000D01*
X86464285Y-84027000D01*
X86321428Y-84093666D01*
X86250000Y-84160333D01*
X86178571Y-84293666D01*
X86178571Y-84693666D01*
X86250000Y-84827000D01*
X86321428Y-84893666D01*
X86464285Y-84960333D01*
X86678571Y-84960333D01*
X84892857Y-84027000D02*
X84892857Y-84960333D01*
X85535714Y-84027000D02*
X85535714Y-84760333D01*
X85464285Y-84893666D01*
X85321428Y-84960333D01*
X85107142Y-84960333D01*
X84964285Y-84893666D01*
X84892857Y-84827000D01*
X84178571Y-84960333D02*
X84178571Y-84027000D01*
X84178571Y-84293666D02*
X84107142Y-84160333D01*
X84035714Y-84093666D01*
X83892857Y-84027000D01*
X83750000Y-84027000D01*
X83321428Y-84893666D02*
X83178571Y-84960333D01*
X82892857Y-84960333D01*
X82750000Y-84893666D01*
X82678571Y-84760333D01*
X82678571Y-84693666D01*
X82750000Y-84560333D01*
X82892857Y-84493666D01*
X83107142Y-84493666D01*
X83250000Y-84427000D01*
X83321428Y-84293666D01*
X83321428Y-84227000D01*
X83250000Y-84093666D01*
X83107142Y-84027000D01*
X82892857Y-84027000D01*
X82750000Y-84093666D01*
X82035714Y-84827000D02*
X81964285Y-84893666D01*
X82035714Y-84960333D01*
X82107142Y-84893666D01*
X82035714Y-84827000D01*
X82035714Y-84960333D01*
D11*
X70061904Y-87300000D02*
X70157142Y-87252380D01*
X70300000Y-87252380D01*
X70442857Y-87300000D01*
X70538095Y-87395238D01*
X70585714Y-87490476D01*
X70633333Y-87680952D01*
X70633333Y-87823809D01*
X70585714Y-88014285D01*
X70538095Y-88109523D01*
X70442857Y-88204761D01*
X70300000Y-88252380D01*
X70204761Y-88252380D01*
X70061904Y-88204761D01*
X70014285Y-88157142D01*
X70014285Y-87823809D01*
X70204761Y-87823809D01*
X69585714Y-88252380D02*
X69585714Y-87252380D01*
X69014285Y-88252380D01*
X69014285Y-87252380D01*
X68538095Y-88252380D02*
X68538095Y-87252380D01*
X68300000Y-87252380D01*
X68157142Y-87300000D01*
X68061904Y-87395238D01*
X68014285Y-87490476D01*
X67966666Y-87680952D01*
X67966666Y-87823809D01*
X68014285Y-88014285D01*
X68061904Y-88109523D01*
X68157142Y-88204761D01*
X68300000Y-88252380D01*
X68538095Y-88252380D01*
D12*
X125904761Y-71994761D02*
X125904761Y-69994761D01*
X125428571Y-69994761D01*
X125142857Y-70090000D01*
X124952380Y-70280476D01*
X124857142Y-70470952D01*
X124761904Y-70851904D01*
X124761904Y-71137619D01*
X124857142Y-71518571D01*
X124952380Y-71709047D01*
X125142857Y-71899523D01*
X125428571Y-71994761D01*
X125904761Y-71994761D01*
X123142857Y-71899523D02*
X123333333Y-71994761D01*
X123714285Y-71994761D01*
X123904761Y-71899523D01*
X124000000Y-71709047D01*
X124000000Y-70947142D01*
X123904761Y-70756666D01*
X123714285Y-70661428D01*
X123333333Y-70661428D01*
X123142857Y-70756666D01*
X123047619Y-70947142D01*
X123047619Y-71137619D01*
X124000000Y-71328095D01*
X122285714Y-71899523D02*
X122095238Y-71994761D01*
X121714285Y-71994761D01*
X121523809Y-71899523D01*
X121428571Y-71709047D01*
X121428571Y-71613809D01*
X121523809Y-71423333D01*
X121714285Y-71328095D01*
X122000000Y-71328095D01*
X122190476Y-71232857D01*
X122285714Y-71042380D01*
X122285714Y-70947142D01*
X122190476Y-70756666D01*
X122000000Y-70661428D01*
X121714285Y-70661428D01*
X121523809Y-70756666D01*
X120571428Y-71994761D02*
X120571428Y-70661428D01*
X120571428Y-69994761D02*
X120666666Y-70090000D01*
X120571428Y-70185238D01*
X120476190Y-70090000D01*
X120571428Y-69994761D01*
X120571428Y-70185238D01*
X118761904Y-70661428D02*
X118761904Y-72280476D01*
X118857142Y-72470952D01*
X118952380Y-72566190D01*
X119142857Y-72661428D01*
X119428571Y-72661428D01*
X119619047Y-72566190D01*
X118761904Y-71899523D02*
X118952380Y-71994761D01*
X119333333Y-71994761D01*
X119523809Y-71899523D01*
X119619047Y-71804285D01*
X119714285Y-71613809D01*
X119714285Y-71042380D01*
X119619047Y-70851904D01*
X119523809Y-70756666D01*
X119333333Y-70661428D01*
X118952380Y-70661428D01*
X118761904Y-70756666D01*
X117809523Y-70661428D02*
X117809523Y-71994761D01*
X117809523Y-70851904D02*
X117714285Y-70756666D01*
X117523809Y-70661428D01*
X117238095Y-70661428D01*
X117047619Y-70756666D01*
X116952380Y-70947142D01*
X116952380Y-71994761D01*
X115238095Y-71899523D02*
X115428571Y-71994761D01*
X115809523Y-71994761D01*
X116000000Y-71899523D01*
X116095238Y-71709047D01*
X116095238Y-70947142D01*
X116000000Y-70756666D01*
X115809523Y-70661428D01*
X115428571Y-70661428D01*
X115238095Y-70756666D01*
X115142857Y-70947142D01*
X115142857Y-71137619D01*
X116095238Y-71328095D01*
X113428571Y-71994761D02*
X113428571Y-69994761D01*
X113428571Y-71899523D02*
X113619047Y-71994761D01*
X114000000Y-71994761D01*
X114190476Y-71899523D01*
X114285714Y-71804285D01*
X114380952Y-71613809D01*
X114380952Y-71042380D01*
X114285714Y-70851904D01*
X114190476Y-70756666D01*
X114000000Y-70661428D01*
X113619047Y-70661428D01*
X113428571Y-70756666D01*
X110952380Y-71994761D02*
X110952380Y-69994761D01*
X110952380Y-70756666D02*
X110761904Y-70661428D01*
X110380952Y-70661428D01*
X110190476Y-70756666D01*
X110095238Y-70851904D01*
X110000000Y-71042380D01*
X110000000Y-71613809D01*
X110095238Y-71804285D01*
X110190476Y-71899523D01*
X110380952Y-71994761D01*
X110761904Y-71994761D01*
X110952380Y-71899523D01*
X109333333Y-70661428D02*
X108857142Y-71994761D01*
X108380952Y-70661428D02*
X108857142Y-71994761D01*
X109047619Y-72470952D01*
X109142857Y-72566190D01*
X109333333Y-72661428D01*
X106380952Y-69994761D02*
X105238095Y-69994761D01*
X105809523Y-71994761D02*
X105809523Y-69994761D01*
X103714285Y-71994761D02*
X103714285Y-70947142D01*
X103809523Y-70756666D01*
X104000000Y-70661428D01*
X104380952Y-70661428D01*
X104571428Y-70756666D01*
X103714285Y-71899523D02*
X103904761Y-71994761D01*
X104380952Y-71994761D01*
X104571428Y-71899523D01*
X104666666Y-71709047D01*
X104666666Y-71518571D01*
X104571428Y-71328095D01*
X104380952Y-71232857D01*
X103904761Y-71232857D01*
X103714285Y-71137619D01*
X102952380Y-70661428D02*
X102476190Y-71994761D01*
X102000000Y-70661428D02*
X102476190Y-71994761D01*
X102666666Y-72470952D01*
X102761904Y-72566190D01*
X102952380Y-72661428D01*
X100952380Y-71994761D02*
X101142857Y-71899523D01*
X101238095Y-71709047D01*
X101238095Y-69994761D01*
X99904761Y-71994761D02*
X100095238Y-71899523D01*
X100190476Y-71804285D01*
X100285714Y-71613809D01*
X100285714Y-71042380D01*
X100190476Y-70851904D01*
X100095238Y-70756666D01*
X99904761Y-70661428D01*
X99619047Y-70661428D01*
X99428571Y-70756666D01*
X99333333Y-70851904D01*
X99238095Y-71042380D01*
X99238095Y-71613809D01*
X99333333Y-71804285D01*
X99428571Y-71899523D01*
X99619047Y-71994761D01*
X99904761Y-71994761D01*
X98380952Y-71994761D02*
X98380952Y-70661428D01*
X98380952Y-71042380D02*
X98285714Y-70851904D01*
X98190476Y-70756666D01*
X98000000Y-70661428D01*
X97809523Y-70661428D01*
X95714285Y-71423333D02*
X94761904Y-71423333D01*
X95904761Y-71994761D02*
X95238095Y-69994761D01*
X94571428Y-71994761D01*
X93619047Y-71994761D02*
X93809523Y-71899523D01*
X93904761Y-71709047D01*
X93904761Y-69994761D01*
X92095238Y-71899523D02*
X92285714Y-71994761D01*
X92666666Y-71994761D01*
X92857142Y-71899523D01*
X92952380Y-71709047D01*
X92952380Y-70947142D01*
X92857142Y-70756666D01*
X92666666Y-70661428D01*
X92285714Y-70661428D01*
X92095238Y-70756666D01*
X92000000Y-70947142D01*
X92000000Y-71137619D01*
X92952380Y-71328095D01*
X91333333Y-71994761D02*
X90285714Y-70661428D01*
X91333333Y-70661428D02*
X90285714Y-71994761D01*
X88666666Y-71994761D02*
X88666666Y-70947142D01*
X88761904Y-70756666D01*
X88952380Y-70661428D01*
X89333333Y-70661428D01*
X89523809Y-70756666D01*
X88666666Y-71899523D02*
X88857142Y-71994761D01*
X89333333Y-71994761D01*
X89523809Y-71899523D01*
X89619047Y-71709047D01*
X89619047Y-71518571D01*
X89523809Y-71328095D01*
X89333333Y-71232857D01*
X88857142Y-71232857D01*
X88666666Y-71137619D01*
X87714285Y-70661428D02*
X87714285Y-71994761D01*
X87714285Y-70851904D02*
X87619047Y-70756666D01*
X87428571Y-70661428D01*
X87142857Y-70661428D01*
X86952380Y-70756666D01*
X86857142Y-70947142D01*
X86857142Y-71994761D01*
X85047619Y-71994761D02*
X85047619Y-69994761D01*
X85047619Y-71899523D02*
X85238095Y-71994761D01*
X85619047Y-71994761D01*
X85809523Y-71899523D01*
X85904761Y-71804285D01*
X86000000Y-71613809D01*
X86000000Y-71042380D01*
X85904761Y-70851904D01*
X85809523Y-70756666D01*
X85619047Y-70661428D01*
X85238095Y-70661428D01*
X85047619Y-70756666D01*
X83333333Y-71899523D02*
X83523809Y-71994761D01*
X83904761Y-71994761D01*
X84095238Y-71899523D01*
X84190476Y-71709047D01*
X84190476Y-70947142D01*
X84095238Y-70756666D01*
X83904761Y-70661428D01*
X83523809Y-70661428D01*
X83333333Y-70756666D01*
X83238095Y-70947142D01*
X83238095Y-71137619D01*
X84190476Y-71328095D01*
X82380952Y-71994761D02*
X82380952Y-70661428D01*
X82380952Y-71042380D02*
X82285714Y-70851904D01*
X82190476Y-70756666D01*
X82000000Y-70661428D01*
X81809523Y-70661428D01*
X116619047Y-74167142D02*
X117285714Y-74167142D01*
X117285714Y-75214761D02*
X117285714Y-73214761D01*
X116333333Y-73214761D01*
X115285714Y-75214761D02*
X115476190Y-75119523D01*
X115571428Y-75024285D01*
X115666666Y-74833809D01*
X115666666Y-74262380D01*
X115571428Y-74071904D01*
X115476190Y-73976666D01*
X115285714Y-73881428D01*
X115000000Y-73881428D01*
X114809523Y-73976666D01*
X114714285Y-74071904D01*
X114619047Y-74262380D01*
X114619047Y-74833809D01*
X114714285Y-75024285D01*
X114809523Y-75119523D01*
X115000000Y-75214761D01*
X115285714Y-75214761D01*
X113761904Y-75214761D02*
X113761904Y-73881428D01*
X113761904Y-74262380D02*
X113666666Y-74071904D01*
X113571428Y-73976666D01*
X113380952Y-73881428D01*
X113190476Y-73881428D01*
X111285714Y-73214761D02*
X110142857Y-73214761D01*
X110714285Y-75214761D02*
X110714285Y-73214761D01*
X109666666Y-73881428D02*
X109285714Y-75214761D01*
X108904761Y-74262380D01*
X108523809Y-75214761D01*
X108142857Y-73881428D01*
X107380952Y-75214761D02*
X107380952Y-73881428D01*
X107380952Y-73214761D02*
X107476190Y-73310000D01*
X107380952Y-73405238D01*
X107285714Y-73310000D01*
X107380952Y-73214761D01*
X107380952Y-73405238D01*
X106523809Y-75119523D02*
X106333333Y-75214761D01*
X105952380Y-75214761D01*
X105761904Y-75119523D01*
X105666666Y-74929047D01*
X105666666Y-74833809D01*
X105761904Y-74643333D01*
X105952380Y-74548095D01*
X106238095Y-74548095D01*
X106428571Y-74452857D01*
X106523809Y-74262380D01*
X106523809Y-74167142D01*
X106428571Y-73976666D01*
X106238095Y-73881428D01*
X105952380Y-73881428D01*
X105761904Y-73976666D01*
X105095238Y-73881428D02*
X104333333Y-73881428D01*
X104809523Y-73214761D02*
X104809523Y-74929047D01*
X104714285Y-75119523D01*
X104523809Y-75214761D01*
X104333333Y-75214761D01*
X102904761Y-75119523D02*
X103095238Y-75214761D01*
X103476190Y-75214761D01*
X103666666Y-75119523D01*
X103761904Y-74929047D01*
X103761904Y-74167142D01*
X103666666Y-73976666D01*
X103476190Y-73881428D01*
X103095238Y-73881428D01*
X102904761Y-73976666D01*
X102809523Y-74167142D01*
X102809523Y-74357619D01*
X103761904Y-74548095D01*
X101095238Y-75214761D02*
X101095238Y-73214761D01*
X101095238Y-75119523D02*
X101285714Y-75214761D01*
X101666666Y-75214761D01*
X101857142Y-75119523D01*
X101952380Y-75024285D01*
X102047619Y-74833809D01*
X102047619Y-74262380D01*
X101952380Y-74071904D01*
X101857142Y-73976666D01*
X101666666Y-73881428D01*
X101285714Y-73881428D01*
X101095238Y-73976666D01*
X97952380Y-74167142D02*
X98619047Y-74167142D01*
X98619047Y-75214761D02*
X98619047Y-73214761D01*
X97666666Y-73214761D01*
X96904761Y-75214761D02*
X96904761Y-73881428D01*
X96904761Y-73214761D02*
X97000000Y-73310000D01*
X96904761Y-73405238D01*
X96809523Y-73310000D01*
X96904761Y-73214761D01*
X96904761Y-73405238D01*
X95190476Y-75119523D02*
X95380952Y-75214761D01*
X95761904Y-75214761D01*
X95952380Y-75119523D01*
X96047619Y-74929047D01*
X96047619Y-74167142D01*
X95952380Y-73976666D01*
X95761904Y-73881428D01*
X95380952Y-73881428D01*
X95190476Y-73976666D01*
X95095238Y-74167142D01*
X95095238Y-74357619D01*
X96047619Y-74548095D01*
X93952380Y-75214761D02*
X94142857Y-75119523D01*
X94238095Y-74929047D01*
X94238095Y-73214761D01*
X92333333Y-75214761D02*
X92333333Y-73214761D01*
X92333333Y-75119523D02*
X92523809Y-75214761D01*
X92904761Y-75214761D01*
X93095238Y-75119523D01*
X93190476Y-75024285D01*
X93285714Y-74833809D01*
X93285714Y-74262380D01*
X93190476Y-74071904D01*
X93095238Y-73976666D01*
X92904761Y-73881428D01*
X92523809Y-73881428D01*
X92333333Y-73976666D01*
X91476190Y-75119523D02*
X91285714Y-75214761D01*
X90904761Y-75214761D01*
X90714285Y-75119523D01*
X90619047Y-74929047D01*
X90619047Y-74833809D01*
X90714285Y-74643333D01*
X90904761Y-74548095D01*
X91190476Y-74548095D01*
X91380952Y-74452857D01*
X91476190Y-74262380D01*
X91476190Y-74167142D01*
X91380952Y-73976666D01*
X91190476Y-73881428D01*
X90904761Y-73881428D01*
X90714285Y-73976666D01*
D10*
X78952380Y-76995238D02*
X78952380Y-77566666D01*
X79952380Y-77280952D02*
X78952380Y-77280952D01*
X79952380Y-77900000D02*
X78952380Y-77900000D01*
X79428571Y-77900000D02*
X79428571Y-78471428D01*
X79952380Y-78471428D02*
X78952380Y-78471428D01*
X79047619Y-78900000D02*
X79000000Y-78947619D01*
X78952380Y-79042857D01*
X78952380Y-79280952D01*
X79000000Y-79376190D01*
X79047619Y-79423809D01*
X79142857Y-79471428D01*
X79238095Y-79471428D01*
X79380952Y-79423809D01*
X79952380Y-78852380D01*
X79952380Y-79471428D01*
X80285714Y-80900000D02*
X78857142Y-80900000D01*
X78952380Y-82233333D02*
X78952380Y-82804761D01*
X79952380Y-82519047D02*
X78952380Y-82519047D01*
X79952380Y-83138095D02*
X78952380Y-83138095D01*
X79428571Y-83138095D02*
X79428571Y-83709523D01*
X79952380Y-83709523D02*
X78952380Y-83709523D01*
X79952380Y-84709523D02*
X79952380Y-84138095D01*
X79952380Y-84423809D02*
X78952380Y-84423809D01*
X79095238Y-84328571D01*
X79190476Y-84233333D01*
X79238095Y-84138095D01*
X70250000Y-46321428D02*
X70250000Y-45821428D01*
X69516666Y-45607142D02*
X69516666Y-46321428D01*
X70916666Y-46321428D01*
X70916666Y-45607142D01*
X69516666Y-44964285D02*
X70916666Y-44964285D01*
X69516666Y-44107142D01*
X70916666Y-44107142D01*
X69650000Y-42535714D02*
X69583333Y-42607142D01*
X69516666Y-42821428D01*
X69516666Y-42964285D01*
X69583333Y-43178571D01*
X69716666Y-43321428D01*
X69850000Y-43392857D01*
X70116666Y-43464285D01*
X70316666Y-43464285D01*
X70583333Y-43392857D01*
X70716666Y-43321428D01*
X70850000Y-43178571D01*
X70916666Y-42964285D01*
X70916666Y-42821428D01*
X70850000Y-42607142D01*
X70783333Y-42535714D01*
X70783333Y-41964285D02*
X70850000Y-41892857D01*
X70916666Y-41750000D01*
X70916666Y-41392857D01*
X70850000Y-41250000D01*
X70783333Y-41178571D01*
X70650000Y-41107142D01*
X70516666Y-41107142D01*
X70316666Y-41178571D01*
X69516666Y-42035714D01*
X69516666Y-41107142D01*
D11*
X66911904Y-62750000D02*
X67007142Y-62702380D01*
X67150000Y-62702380D01*
X67292857Y-62750000D01*
X67388095Y-62845238D01*
X67435714Y-62940476D01*
X67483333Y-63130952D01*
X67483333Y-63273809D01*
X67435714Y-63464285D01*
X67388095Y-63559523D01*
X67292857Y-63654761D01*
X67150000Y-63702380D01*
X67054761Y-63702380D01*
X66911904Y-63654761D01*
X66864285Y-63607142D01*
X66864285Y-63273809D01*
X67054761Y-63273809D01*
X66435714Y-63702380D02*
X66435714Y-62702380D01*
X65864285Y-63702380D01*
X65864285Y-62702380D01*
X65388095Y-63702380D02*
X65388095Y-62702380D01*
X65150000Y-62702380D01*
X65007142Y-62750000D01*
X64911904Y-62845238D01*
X64864285Y-62940476D01*
X64816666Y-63130952D01*
X64816666Y-63273809D01*
X64864285Y-63464285D01*
X64911904Y-63559523D01*
X65007142Y-63654761D01*
X65150000Y-63702380D01*
X65388095Y-63702380D01*
X81411904Y-63850000D02*
X81507142Y-63802380D01*
X81650000Y-63802380D01*
X81792857Y-63850000D01*
X81888095Y-63945238D01*
X81935714Y-64040476D01*
X81983333Y-64230952D01*
X81983333Y-64373809D01*
X81935714Y-64564285D01*
X81888095Y-64659523D01*
X81792857Y-64754761D01*
X81650000Y-64802380D01*
X81554761Y-64802380D01*
X81411904Y-64754761D01*
X81364285Y-64707142D01*
X81364285Y-64373809D01*
X81554761Y-64373809D01*
X80935714Y-64802380D02*
X80935714Y-63802380D01*
X80364285Y-64802380D01*
X80364285Y-63802380D01*
X79888095Y-64802380D02*
X79888095Y-63802380D01*
X79650000Y-63802380D01*
X79507142Y-63850000D01*
X79411904Y-63945238D01*
X79364285Y-64040476D01*
X79316666Y-64230952D01*
X79316666Y-64373809D01*
X79364285Y-64564285D01*
X79411904Y-64659523D01*
X79507142Y-64754761D01*
X79650000Y-64802380D01*
X79888095Y-64802380D01*
D10*
X70600000Y-61271428D02*
X70600000Y-60771428D01*
X69866666Y-60557142D02*
X69866666Y-61271428D01*
X71266666Y-61271428D01*
X71266666Y-60557142D01*
X69866666Y-59914285D02*
X71266666Y-59914285D01*
X69866666Y-59057142D01*
X71266666Y-59057142D01*
X70000000Y-57485714D02*
X69933333Y-57557142D01*
X69866666Y-57771428D01*
X69866666Y-57914285D01*
X69933333Y-58128571D01*
X70066666Y-58271428D01*
X70200000Y-58342857D01*
X70466666Y-58414285D01*
X70666666Y-58414285D01*
X70933333Y-58342857D01*
X71066666Y-58271428D01*
X71200000Y-58128571D01*
X71266666Y-57914285D01*
X71266666Y-57771428D01*
X71200000Y-57557142D01*
X71133333Y-57485714D01*
X69866666Y-56057142D02*
X69866666Y-56914285D01*
X69866666Y-56485714D02*
X71266666Y-56485714D01*
X71066666Y-56628571D01*
X70933333Y-56771428D01*
X70866666Y-56914285D01*
D11*
X70261904Y-78500000D02*
X70357142Y-78452380D01*
X70500000Y-78452380D01*
X70642857Y-78500000D01*
X70738095Y-78595238D01*
X70785714Y-78690476D01*
X70833333Y-78880952D01*
X70833333Y-79023809D01*
X70785714Y-79214285D01*
X70738095Y-79309523D01*
X70642857Y-79404761D01*
X70500000Y-79452380D01*
X70404761Y-79452380D01*
X70261904Y-79404761D01*
X70214285Y-79357142D01*
X70214285Y-79023809D01*
X70404761Y-79023809D01*
X69785714Y-79452380D02*
X69785714Y-78452380D01*
X69214285Y-79452380D01*
X69214285Y-78452380D01*
X68738095Y-79452380D02*
X68738095Y-78452380D01*
X68500000Y-78452380D01*
X68357142Y-78500000D01*
X68261904Y-78595238D01*
X68214285Y-78690476D01*
X68166666Y-78880952D01*
X68166666Y-79023809D01*
X68214285Y-79214285D01*
X68261904Y-79309523D01*
X68357142Y-79404761D01*
X68500000Y-79452380D01*
X68738095Y-79452380D01*
X77261904Y-67800000D02*
X77357142Y-67752380D01*
X77500000Y-67752380D01*
X77642857Y-67800000D01*
X77738095Y-67895238D01*
X77785714Y-67990476D01*
X77833333Y-68180952D01*
X77833333Y-68323809D01*
X77785714Y-68514285D01*
X77738095Y-68609523D01*
X77642857Y-68704761D01*
X77500000Y-68752380D01*
X77404761Y-68752380D01*
X77261904Y-68704761D01*
X77214285Y-68657142D01*
X77214285Y-68323809D01*
X77404761Y-68323809D01*
X76785714Y-68752380D02*
X76785714Y-67752380D01*
X76214285Y-68752380D01*
X76214285Y-67752380D01*
X75738095Y-68752380D02*
X75738095Y-67752380D01*
X75500000Y-67752380D01*
X75357142Y-67800000D01*
X75261904Y-67895238D01*
X75214285Y-67990476D01*
X75166666Y-68180952D01*
X75166666Y-68323809D01*
X75214285Y-68514285D01*
X75261904Y-68609523D01*
X75357142Y-68704761D01*
X75500000Y-68752380D01*
X75738095Y-68752380D01*
D12*
X108042857Y-44814761D02*
X108042857Y-42814761D01*
X107376190Y-44243333D01*
X106709523Y-42814761D01*
X106709523Y-44814761D01*
X104900000Y-44814761D02*
X104900000Y-43767142D01*
X104995238Y-43576666D01*
X105185714Y-43481428D01*
X105566666Y-43481428D01*
X105757142Y-43576666D01*
X104900000Y-44719523D02*
X105090476Y-44814761D01*
X105566666Y-44814761D01*
X105757142Y-44719523D01*
X105852380Y-44529047D01*
X105852380Y-44338571D01*
X105757142Y-44148095D01*
X105566666Y-44052857D01*
X105090476Y-44052857D01*
X104900000Y-43957619D01*
X103947619Y-43481428D02*
X103947619Y-44814761D01*
X103947619Y-43671904D02*
X103852380Y-43576666D01*
X103661904Y-43481428D01*
X103376190Y-43481428D01*
X103185714Y-43576666D01*
X103090476Y-43767142D01*
X103090476Y-44814761D01*
X102328571Y-43481428D02*
X101852380Y-44814761D01*
X101376190Y-43481428D02*
X101852380Y-44814761D01*
X102042857Y-45290952D01*
X102138095Y-45386190D01*
X102328571Y-45481428D01*
X99376190Y-43481428D02*
X98614285Y-43481428D01*
X99090476Y-42814761D02*
X99090476Y-44529047D01*
X98995238Y-44719523D01*
X98804761Y-44814761D01*
X98614285Y-44814761D01*
X97947619Y-44814761D02*
X97947619Y-42814761D01*
X97090476Y-44814761D02*
X97090476Y-43767142D01*
X97185714Y-43576666D01*
X97376190Y-43481428D01*
X97661904Y-43481428D01*
X97852380Y-43576666D01*
X97947619Y-43671904D01*
X95280952Y-44814761D02*
X95280952Y-43767142D01*
X95376190Y-43576666D01*
X95566666Y-43481428D01*
X95947619Y-43481428D01*
X96138095Y-43576666D01*
X95280952Y-44719523D02*
X95471428Y-44814761D01*
X95947619Y-44814761D01*
X96138095Y-44719523D01*
X96233333Y-44529047D01*
X96233333Y-44338571D01*
X96138095Y-44148095D01*
X95947619Y-44052857D01*
X95471428Y-44052857D01*
X95280952Y-43957619D01*
X94328571Y-43481428D02*
X94328571Y-44814761D01*
X94328571Y-43671904D02*
X94233333Y-43576666D01*
X94042857Y-43481428D01*
X93757142Y-43481428D01*
X93566666Y-43576666D01*
X93471428Y-43767142D01*
X93471428Y-44814761D01*
X92519047Y-44814761D02*
X92519047Y-42814761D01*
X92328571Y-44052857D02*
X91757142Y-44814761D01*
X91757142Y-43481428D02*
X92519047Y-44243333D01*
X90995238Y-44719523D02*
X90804761Y-44814761D01*
X90423809Y-44814761D01*
X90233333Y-44719523D01*
X90138095Y-44529047D01*
X90138095Y-44433809D01*
X90233333Y-44243333D01*
X90423809Y-44148095D01*
X90709523Y-44148095D01*
X90900000Y-44052857D01*
X90995238Y-43862380D01*
X90995238Y-43767142D01*
X90900000Y-43576666D01*
X90709523Y-43481428D01*
X90423809Y-43481428D01*
X90233333Y-43576666D01*
X88042857Y-43481428D02*
X87280952Y-43481428D01*
X87757142Y-42814761D02*
X87757142Y-44529047D01*
X87661904Y-44719523D01*
X87471428Y-44814761D01*
X87280952Y-44814761D01*
X86328571Y-44814761D02*
X86519047Y-44719523D01*
X86614285Y-44624285D01*
X86709523Y-44433809D01*
X86709523Y-43862380D01*
X86614285Y-43671904D01*
X86519047Y-43576666D01*
X86328571Y-43481428D01*
X86042857Y-43481428D01*
X85852380Y-43576666D01*
X85757142Y-43671904D01*
X85661904Y-43862380D01*
X85661904Y-44433809D01*
X85757142Y-44624285D01*
X85852380Y-44719523D01*
X86042857Y-44814761D01*
X86328571Y-44814761D01*
X111995238Y-48034761D02*
X111995238Y-46034761D01*
X111519047Y-46034761D01*
X111233333Y-46130000D01*
X111042857Y-46320476D01*
X110947619Y-46510952D01*
X110852380Y-46891904D01*
X110852380Y-47177619D01*
X110947619Y-47558571D01*
X111042857Y-47749047D01*
X111233333Y-47939523D01*
X111519047Y-48034761D01*
X111995238Y-48034761D01*
X109138095Y-48034761D02*
X109138095Y-46987142D01*
X109233333Y-46796666D01*
X109423809Y-46701428D01*
X109804761Y-46701428D01*
X109995238Y-46796666D01*
X109138095Y-47939523D02*
X109328571Y-48034761D01*
X109804761Y-48034761D01*
X109995238Y-47939523D01*
X110090476Y-47749047D01*
X110090476Y-47558571D01*
X109995238Y-47368095D01*
X109804761Y-47272857D01*
X109328571Y-47272857D01*
X109138095Y-47177619D01*
X108185714Y-46701428D02*
X108185714Y-48034761D01*
X108185714Y-46891904D02*
X108090476Y-46796666D01*
X107900000Y-46701428D01*
X107614285Y-46701428D01*
X107423809Y-46796666D01*
X107328571Y-46987142D01*
X107328571Y-48034761D01*
X106376190Y-48034761D02*
X106376190Y-46701428D01*
X106376190Y-46034761D02*
X106471428Y-46130000D01*
X106376190Y-46225238D01*
X106280952Y-46130000D01*
X106376190Y-46034761D01*
X106376190Y-46225238D01*
X104661904Y-47939523D02*
X104852380Y-48034761D01*
X105233333Y-48034761D01*
X105423809Y-47939523D01*
X105519047Y-47749047D01*
X105519047Y-46987142D01*
X105423809Y-46796666D01*
X105233333Y-46701428D01*
X104852380Y-46701428D01*
X104661904Y-46796666D01*
X104566666Y-46987142D01*
X104566666Y-47177619D01*
X105519047Y-47368095D01*
X103423809Y-48034761D02*
X103614285Y-47939523D01*
X103709523Y-47749047D01*
X103709523Y-46034761D01*
X101423809Y-46034761D02*
X100280952Y-46034761D01*
X100852380Y-48034761D02*
X100852380Y-46034761D01*
X99614285Y-48034761D02*
X99614285Y-46034761D01*
X98757142Y-48034761D02*
X98757142Y-46987142D01*
X98852380Y-46796666D01*
X99042857Y-46701428D01*
X99328571Y-46701428D01*
X99519047Y-46796666D01*
X99614285Y-46891904D01*
X97042857Y-47939523D02*
X97233333Y-48034761D01*
X97614285Y-48034761D01*
X97804761Y-47939523D01*
X97900000Y-47749047D01*
X97900000Y-46987142D01*
X97804761Y-46796666D01*
X97614285Y-46701428D01*
X97233333Y-46701428D01*
X97042857Y-46796666D01*
X96947619Y-46987142D01*
X96947619Y-47177619D01*
X97900000Y-47368095D01*
X95804761Y-48034761D02*
X95995238Y-47939523D01*
X96090476Y-47844285D01*
X96185714Y-47653809D01*
X96185714Y-47082380D01*
X96090476Y-46891904D01*
X95995238Y-46796666D01*
X95804761Y-46701428D01*
X95519047Y-46701428D01*
X95328571Y-46796666D01*
X95233333Y-46891904D01*
X95138095Y-47082380D01*
X95138095Y-47653809D01*
X95233333Y-47844285D01*
X95328571Y-47939523D01*
X95519047Y-48034761D01*
X95804761Y-48034761D01*
X94280952Y-48034761D02*
X94280952Y-46034761D01*
X94280952Y-46796666D02*
X94090476Y-46701428D01*
X93709523Y-46701428D01*
X93519047Y-46796666D01*
X93423809Y-46891904D01*
X93328571Y-47082380D01*
X93328571Y-47653809D01*
X93423809Y-47844285D01*
X93519047Y-47939523D01*
X93709523Y-48034761D01*
X94090476Y-48034761D01*
X94280952Y-47939523D01*
X91614285Y-48034761D02*
X91614285Y-46987142D01*
X91709523Y-46796666D01*
X91900000Y-46701428D01*
X92280952Y-46701428D01*
X92471428Y-46796666D01*
X91614285Y-47939523D02*
X91804761Y-48034761D01*
X92280952Y-48034761D01*
X92471428Y-47939523D01*
X92566666Y-47749047D01*
X92566666Y-47558571D01*
X92471428Y-47368095D01*
X92280952Y-47272857D01*
X91804761Y-47272857D01*
X91614285Y-47177619D01*
X90376190Y-48034761D02*
X90566666Y-47939523D01*
X90661904Y-47749047D01*
X90661904Y-46034761D01*
X88757142Y-48034761D02*
X88757142Y-46034761D01*
X88757142Y-47939523D02*
X88947619Y-48034761D01*
X89328571Y-48034761D01*
X89519047Y-47939523D01*
X89614285Y-47844285D01*
X89709523Y-47653809D01*
X89709523Y-47082380D01*
X89614285Y-46891904D01*
X89519047Y-46796666D01*
X89328571Y-46701428D01*
X88947619Y-46701428D01*
X88757142Y-46796666D01*
X85423809Y-48034761D02*
X85423809Y-46987142D01*
X85519047Y-46796666D01*
X85709523Y-46701428D01*
X86090476Y-46701428D01*
X86280952Y-46796666D01*
X85423809Y-47939523D02*
X85614285Y-48034761D01*
X86090476Y-48034761D01*
X86280952Y-47939523D01*
X86376190Y-47749047D01*
X86376190Y-47558571D01*
X86280952Y-47368095D01*
X86090476Y-47272857D01*
X85614285Y-47272857D01*
X85423809Y-47177619D01*
X84471428Y-46701428D02*
X84471428Y-48034761D01*
X84471428Y-46891904D02*
X84376190Y-46796666D01*
X84185714Y-46701428D01*
X83900000Y-46701428D01*
X83709523Y-46796666D01*
X83614285Y-46987142D01*
X83614285Y-48034761D01*
X81804761Y-48034761D02*
X81804761Y-46034761D01*
X81804761Y-47939523D02*
X81995238Y-48034761D01*
X82376190Y-48034761D01*
X82566666Y-47939523D01*
X82661904Y-47844285D01*
X82757142Y-47653809D01*
X82757142Y-47082380D01*
X82661904Y-46891904D01*
X82566666Y-46796666D01*
X82376190Y-46701428D01*
X81995238Y-46701428D01*
X81804761Y-46796666D01*
X110566666Y-51254761D02*
X110757142Y-51159523D01*
X110852380Y-51064285D01*
X110947619Y-50873809D01*
X110947619Y-50302380D01*
X110852380Y-50111904D01*
X110757142Y-50016666D01*
X110566666Y-49921428D01*
X110280952Y-49921428D01*
X110090476Y-50016666D01*
X109995238Y-50111904D01*
X109900000Y-50302380D01*
X109900000Y-50873809D01*
X109995238Y-51064285D01*
X110090476Y-51159523D01*
X110280952Y-51254761D01*
X110566666Y-51254761D01*
X108185714Y-49921428D02*
X108185714Y-51254761D01*
X109042857Y-49921428D02*
X109042857Y-50969047D01*
X108947619Y-51159523D01*
X108757142Y-51254761D01*
X108471428Y-51254761D01*
X108280952Y-51159523D01*
X108185714Y-51064285D01*
X107233333Y-51254761D02*
X107233333Y-49921428D01*
X107233333Y-50302380D02*
X107138095Y-50111904D01*
X107042857Y-50016666D01*
X106852380Y-49921428D01*
X106661904Y-49921428D01*
X104566666Y-51159523D02*
X104376190Y-51254761D01*
X103995238Y-51254761D01*
X103804761Y-51159523D01*
X103709523Y-50969047D01*
X103709523Y-50873809D01*
X103804761Y-50683333D01*
X103995238Y-50588095D01*
X104280952Y-50588095D01*
X104471428Y-50492857D01*
X104566666Y-50302380D01*
X104566666Y-50207142D01*
X104471428Y-50016666D01*
X104280952Y-49921428D01*
X103995238Y-49921428D01*
X103804761Y-50016666D01*
X101995238Y-49921428D02*
X101995238Y-51254761D01*
X102852380Y-49921428D02*
X102852380Y-50969047D01*
X102757142Y-51159523D01*
X102566666Y-51254761D01*
X102280952Y-51254761D01*
X102090476Y-51159523D01*
X101995238Y-51064285D01*
X101042857Y-49921428D02*
X101042857Y-51921428D01*
X101042857Y-50016666D02*
X100852380Y-49921428D01*
X100471428Y-49921428D01*
X100280952Y-50016666D01*
X100185714Y-50111904D01*
X100090476Y-50302380D01*
X100090476Y-50873809D01*
X100185714Y-51064285D01*
X100280952Y-51159523D01*
X100471428Y-51254761D01*
X100852380Y-51254761D01*
X101042857Y-51159523D01*
X99233333Y-49921428D02*
X99233333Y-51921428D01*
X99233333Y-50016666D02*
X99042857Y-49921428D01*
X98661904Y-49921428D01*
X98471428Y-50016666D01*
X98376190Y-50111904D01*
X98280952Y-50302380D01*
X98280952Y-50873809D01*
X98376190Y-51064285D01*
X98471428Y-51159523D01*
X98661904Y-51254761D01*
X99042857Y-51254761D01*
X99233333Y-51159523D01*
X97138095Y-51254761D02*
X97328571Y-51159523D01*
X97423809Y-51064285D01*
X97519047Y-50873809D01*
X97519047Y-50302380D01*
X97423809Y-50111904D01*
X97328571Y-50016666D01*
X97138095Y-49921428D01*
X96852380Y-49921428D01*
X96661904Y-50016666D01*
X96566666Y-50111904D01*
X96471428Y-50302380D01*
X96471428Y-50873809D01*
X96566666Y-51064285D01*
X96661904Y-51159523D01*
X96852380Y-51254761D01*
X97138095Y-51254761D01*
X95614285Y-51254761D02*
X95614285Y-49921428D01*
X95614285Y-50302380D02*
X95519047Y-50111904D01*
X95423809Y-50016666D01*
X95233333Y-49921428D01*
X95042857Y-49921428D01*
X94661904Y-49921428D02*
X93900000Y-49921428D01*
X94376190Y-49254761D02*
X94376190Y-50969047D01*
X94280952Y-51159523D01*
X94090476Y-51254761D01*
X93900000Y-51254761D01*
X92471428Y-51159523D02*
X92661904Y-51254761D01*
X93042857Y-51254761D01*
X93233333Y-51159523D01*
X93328571Y-50969047D01*
X93328571Y-50207142D01*
X93233333Y-50016666D01*
X93042857Y-49921428D01*
X92661904Y-49921428D01*
X92471428Y-50016666D01*
X92376190Y-50207142D01*
X92376190Y-50397619D01*
X93328571Y-50588095D01*
X91519047Y-51254761D02*
X91519047Y-49921428D01*
X91519047Y-50302380D02*
X91423809Y-50111904D01*
X91328571Y-50016666D01*
X91138095Y-49921428D01*
X90947619Y-49921428D01*
X90376190Y-51159523D02*
X90185714Y-51254761D01*
X89804761Y-51254761D01*
X89614285Y-51159523D01*
X89519047Y-50969047D01*
X89519047Y-50873809D01*
X89614285Y-50683333D01*
X89804761Y-50588095D01*
X90090476Y-50588095D01*
X90280952Y-50492857D01*
X90376190Y-50302380D01*
X90376190Y-50207142D01*
X90280952Y-50016666D01*
X90090476Y-49921428D01*
X89804761Y-49921428D01*
X89614285Y-50016666D01*
X86852380Y-51254761D02*
X87042857Y-51159523D01*
X87138095Y-51064285D01*
X87233333Y-50873809D01*
X87233333Y-50302380D01*
X87138095Y-50111904D01*
X87042857Y-50016666D01*
X86852380Y-49921428D01*
X86566666Y-49921428D01*
X86376190Y-50016666D01*
X86280952Y-50111904D01*
X86185714Y-50302380D01*
X86185714Y-50873809D01*
X86280952Y-51064285D01*
X86376190Y-51159523D01*
X86566666Y-51254761D01*
X86852380Y-51254761D01*
X85328571Y-49921428D02*
X85328571Y-51254761D01*
X85328571Y-50111904D02*
X85233333Y-50016666D01*
X85042857Y-49921428D01*
X84757142Y-49921428D01*
X84566666Y-50016666D01*
X84471428Y-50207142D01*
X84471428Y-51254761D01*
X110519047Y-54474761D02*
X110709523Y-54379523D01*
X110804761Y-54284285D01*
X110900000Y-54093809D01*
X110900000Y-53522380D01*
X110804761Y-53331904D01*
X110709523Y-53236666D01*
X110519047Y-53141428D01*
X110233333Y-53141428D01*
X110042857Y-53236666D01*
X109947619Y-53331904D01*
X109852380Y-53522380D01*
X109852380Y-54093809D01*
X109947619Y-54284285D01*
X110042857Y-54379523D01*
X110233333Y-54474761D01*
X110519047Y-54474761D01*
X108995238Y-53141428D02*
X108995238Y-55141428D01*
X108995238Y-53236666D02*
X108804761Y-53141428D01*
X108423809Y-53141428D01*
X108233333Y-53236666D01*
X108138095Y-53331904D01*
X108042857Y-53522380D01*
X108042857Y-54093809D01*
X108138095Y-54284285D01*
X108233333Y-54379523D01*
X108423809Y-54474761D01*
X108804761Y-54474761D01*
X108995238Y-54379523D01*
X106423809Y-54379523D02*
X106614285Y-54474761D01*
X106995238Y-54474761D01*
X107185714Y-54379523D01*
X107280952Y-54189047D01*
X107280952Y-53427142D01*
X107185714Y-53236666D01*
X106995238Y-53141428D01*
X106614285Y-53141428D01*
X106423809Y-53236666D01*
X106328571Y-53427142D01*
X106328571Y-53617619D01*
X107280952Y-53808095D01*
X105471428Y-53141428D02*
X105471428Y-54474761D01*
X105471428Y-53331904D02*
X105376190Y-53236666D01*
X105185714Y-53141428D01*
X104900000Y-53141428D01*
X104709523Y-53236666D01*
X104614285Y-53427142D01*
X104614285Y-54474761D01*
X101280952Y-54379523D02*
X101471428Y-54474761D01*
X101852380Y-54474761D01*
X102042857Y-54379523D01*
X102138095Y-54284285D01*
X102233333Y-54093809D01*
X102233333Y-53522380D01*
X102138095Y-53331904D01*
X102042857Y-53236666D01*
X101852380Y-53141428D01*
X101471428Y-53141428D01*
X101280952Y-53236666D01*
X100138095Y-54474761D02*
X100328571Y-54379523D01*
X100423809Y-54284285D01*
X100519047Y-54093809D01*
X100519047Y-53522380D01*
X100423809Y-53331904D01*
X100328571Y-53236666D01*
X100138095Y-53141428D01*
X99852380Y-53141428D01*
X99661904Y-53236666D01*
X99566666Y-53331904D01*
X99471428Y-53522380D01*
X99471428Y-54093809D01*
X99566666Y-54284285D01*
X99661904Y-54379523D01*
X99852380Y-54474761D01*
X100138095Y-54474761D01*
X98328571Y-54474761D02*
X98519047Y-54379523D01*
X98614285Y-54189047D01*
X98614285Y-52474761D01*
X97280952Y-54474761D02*
X97471428Y-54379523D01*
X97566666Y-54189047D01*
X97566666Y-52474761D01*
X95757142Y-54379523D02*
X95947619Y-54474761D01*
X96328571Y-54474761D01*
X96519047Y-54379523D01*
X96614285Y-54189047D01*
X96614285Y-53427142D01*
X96519047Y-53236666D01*
X96328571Y-53141428D01*
X95947619Y-53141428D01*
X95757142Y-53236666D01*
X95661904Y-53427142D01*
X95661904Y-53617619D01*
X96614285Y-53808095D01*
X93947619Y-54379523D02*
X94138095Y-54474761D01*
X94519047Y-54474761D01*
X94709523Y-54379523D01*
X94804761Y-54284285D01*
X94900000Y-54093809D01*
X94900000Y-53522380D01*
X94804761Y-53331904D01*
X94709523Y-53236666D01*
X94519047Y-53141428D01*
X94138095Y-53141428D01*
X93947619Y-53236666D01*
X93376190Y-53141428D02*
X92614285Y-53141428D01*
X93090476Y-52474761D02*
X93090476Y-54189047D01*
X92995238Y-54379523D01*
X92804761Y-54474761D01*
X92614285Y-54474761D01*
X91947619Y-54474761D02*
X91947619Y-53141428D01*
X91947619Y-52474761D02*
X92042857Y-52570000D01*
X91947619Y-52665238D01*
X91852380Y-52570000D01*
X91947619Y-52474761D01*
X91947619Y-52665238D01*
X91185714Y-53141428D02*
X90709523Y-54474761D01*
X90233333Y-53141428D01*
X88709523Y-54379523D02*
X88900000Y-54474761D01*
X89280952Y-54474761D01*
X89471428Y-54379523D01*
X89566666Y-54189047D01*
X89566666Y-53427142D01*
X89471428Y-53236666D01*
X89280952Y-53141428D01*
X88900000Y-53141428D01*
X88709523Y-53236666D01*
X88614285Y-53427142D01*
X88614285Y-53617619D01*
X89566666Y-53808095D01*
X86519047Y-53141428D02*
X85757142Y-53141428D01*
X86233333Y-54474761D02*
X86233333Y-52760476D01*
X86138095Y-52570000D01*
X85947619Y-52474761D01*
X85757142Y-52474761D01*
X84804761Y-54474761D02*
X84995238Y-54379523D01*
X85090476Y-54284285D01*
X85185714Y-54093809D01*
X85185714Y-53522380D01*
X85090476Y-53331904D01*
X84995238Y-53236666D01*
X84804761Y-53141428D01*
X84519047Y-53141428D01*
X84328571Y-53236666D01*
X84233333Y-53331904D01*
X84138095Y-53522380D01*
X84138095Y-54093809D01*
X84233333Y-54284285D01*
X84328571Y-54379523D01*
X84519047Y-54474761D01*
X84804761Y-54474761D01*
X83280952Y-54474761D02*
X83280952Y-53141428D01*
X83280952Y-53522380D02*
X83185714Y-53331904D01*
X83090476Y-53236666D01*
X82900000Y-53141428D01*
X82709523Y-53141428D01*
X110423809Y-56361428D02*
X109661904Y-56361428D01*
X110138095Y-57694761D02*
X110138095Y-55980476D01*
X110042857Y-55790000D01*
X109852380Y-55694761D01*
X109661904Y-55694761D01*
X108138095Y-56361428D02*
X108138095Y-57694761D01*
X108995238Y-56361428D02*
X108995238Y-57409047D01*
X108900000Y-57599523D01*
X108709523Y-57694761D01*
X108423809Y-57694761D01*
X108233333Y-57599523D01*
X108138095Y-57504285D01*
X107185714Y-56361428D02*
X107185714Y-57694761D01*
X107185714Y-56551904D02*
X107090476Y-56456666D01*
X106900000Y-56361428D01*
X106614285Y-56361428D01*
X106423809Y-56456666D01*
X106328571Y-56647142D01*
X106328571Y-57694761D01*
X104519047Y-57694761D02*
X104519047Y-55694761D01*
X104519047Y-57599523D02*
X104709523Y-57694761D01*
X105090476Y-57694761D01*
X105280952Y-57599523D01*
X105376190Y-57504285D01*
X105471428Y-57313809D01*
X105471428Y-56742380D01*
X105376190Y-56551904D01*
X105280952Y-56456666D01*
X105090476Y-56361428D01*
X104709523Y-56361428D01*
X104519047Y-56456666D01*
X103566666Y-57694761D02*
X103566666Y-56361428D01*
X103566666Y-55694761D02*
X103661904Y-55790000D01*
X103566666Y-55885238D01*
X103471428Y-55790000D01*
X103566666Y-55694761D01*
X103566666Y-55885238D01*
X102614285Y-56361428D02*
X102614285Y-57694761D01*
X102614285Y-56551904D02*
X102519047Y-56456666D01*
X102328571Y-56361428D01*
X102042857Y-56361428D01*
X101852380Y-56456666D01*
X101757142Y-56647142D01*
X101757142Y-57694761D01*
X99947619Y-56361428D02*
X99947619Y-57980476D01*
X100042857Y-58170952D01*
X100138095Y-58266190D01*
X100328571Y-58361428D01*
X100614285Y-58361428D01*
X100804761Y-58266190D01*
X99947619Y-57599523D02*
X100138095Y-57694761D01*
X100519047Y-57694761D01*
X100709523Y-57599523D01*
X100804761Y-57504285D01*
X100900000Y-57313809D01*
X100900000Y-56742380D01*
X100804761Y-56551904D01*
X100709523Y-56456666D01*
X100519047Y-56361428D01*
X100138095Y-56361428D01*
X99947619Y-56456666D01*
X97757142Y-56361428D02*
X96995238Y-56361428D01*
X97471428Y-55694761D02*
X97471428Y-57409047D01*
X97376190Y-57599523D01*
X97185714Y-57694761D01*
X96995238Y-57694761D01*
X96328571Y-57694761D02*
X96328571Y-55694761D01*
X95471428Y-57694761D02*
X95471428Y-56647142D01*
X95566666Y-56456666D01*
X95757142Y-56361428D01*
X96042857Y-56361428D01*
X96233333Y-56456666D01*
X96328571Y-56551904D01*
X94519047Y-57694761D02*
X94519047Y-56361428D01*
X94519047Y-55694761D02*
X94614285Y-55790000D01*
X94519047Y-55885238D01*
X94423809Y-55790000D01*
X94519047Y-55694761D01*
X94519047Y-55885238D01*
X93661904Y-57599523D02*
X93471428Y-57694761D01*
X93090476Y-57694761D01*
X92900000Y-57599523D01*
X92804761Y-57409047D01*
X92804761Y-57313809D01*
X92900000Y-57123333D01*
X93090476Y-57028095D01*
X93376190Y-57028095D01*
X93566666Y-56932857D01*
X93661904Y-56742380D01*
X93661904Y-56647142D01*
X93566666Y-56456666D01*
X93376190Y-56361428D01*
X93090476Y-56361428D01*
X92900000Y-56456666D01*
X90614285Y-56361428D02*
X90233333Y-57694761D01*
X89852380Y-56742380D01*
X89471428Y-57694761D01*
X89090476Y-56361428D01*
X88042857Y-57694761D02*
X88233333Y-57599523D01*
X88328571Y-57504285D01*
X88423809Y-57313809D01*
X88423809Y-56742380D01*
X88328571Y-56551904D01*
X88233333Y-56456666D01*
X88042857Y-56361428D01*
X87757142Y-56361428D01*
X87566666Y-56456666D01*
X87471428Y-56551904D01*
X87376190Y-56742380D01*
X87376190Y-57313809D01*
X87471428Y-57504285D01*
X87566666Y-57599523D01*
X87757142Y-57694761D01*
X88042857Y-57694761D01*
X86519047Y-57694761D02*
X86519047Y-56361428D01*
X86519047Y-56742380D02*
X86423809Y-56551904D01*
X86328571Y-56456666D01*
X86138095Y-56361428D01*
X85947619Y-56361428D01*
X85280952Y-57694761D02*
X85280952Y-55694761D01*
X85090476Y-56932857D02*
X84519047Y-57694761D01*
X84519047Y-56361428D02*
X85280952Y-57123333D01*
X83661904Y-57504285D02*
X83566666Y-57599523D01*
X83661904Y-57694761D01*
X83757142Y-57599523D01*
X83661904Y-57504285D01*
X83661904Y-57694761D01*
X83661904Y-56932857D02*
X83757142Y-55790000D01*
X83661904Y-55694761D01*
X83566666Y-55790000D01*
X83661904Y-56932857D01*
X83661904Y-55694761D01*
D10*
X137850000Y-73706333D02*
X137850000Y-72306333D01*
X137492857Y-72306333D01*
X137278571Y-72373000D01*
X137135714Y-72506333D01*
X137064285Y-72639666D01*
X136992857Y-72906333D01*
X136992857Y-73106333D01*
X137064285Y-73373000D01*
X137135714Y-73506333D01*
X137278571Y-73639666D01*
X137492857Y-73706333D01*
X137850000Y-73706333D01*
X135707142Y-72773000D02*
X135707142Y-73706333D01*
X136350000Y-72773000D02*
X136350000Y-73506333D01*
X136278571Y-73639666D01*
X136135714Y-73706333D01*
X135921428Y-73706333D01*
X135778571Y-73639666D01*
X135707142Y-73573000D01*
X134350000Y-73706333D02*
X134350000Y-72973000D01*
X134421428Y-72839666D01*
X134564285Y-72773000D01*
X134850000Y-72773000D01*
X134992857Y-72839666D01*
X134350000Y-73639666D02*
X134492857Y-73706333D01*
X134850000Y-73706333D01*
X134992857Y-73639666D01*
X135064285Y-73506333D01*
X135064285Y-73373000D01*
X134992857Y-73239666D01*
X134850000Y-73173000D01*
X134492857Y-73173000D01*
X134350000Y-73106333D01*
X133421428Y-73706333D02*
X133564285Y-73639666D01*
X133635714Y-73506333D01*
X133635714Y-72306333D01*
X130850000Y-73573000D02*
X130921428Y-73639666D01*
X131135714Y-73706333D01*
X131278571Y-73706333D01*
X131492857Y-73639666D01*
X131635714Y-73506333D01*
X131707142Y-73373000D01*
X131778571Y-73106333D01*
X131778571Y-72906333D01*
X131707142Y-72639666D01*
X131635714Y-72506333D01*
X131492857Y-72373000D01*
X131278571Y-72306333D01*
X131135714Y-72306333D01*
X130921428Y-72373000D01*
X130850000Y-72439666D01*
X130207142Y-73706333D02*
X130207142Y-72306333D01*
X129635714Y-72306333D01*
X129492857Y-72373000D01*
X129421428Y-72439666D01*
X129350000Y-72573000D01*
X129350000Y-72773000D01*
X129421428Y-72906333D01*
X129492857Y-72973000D01*
X129635714Y-73039666D01*
X130207142Y-73039666D01*
X128707142Y-72306333D02*
X128707142Y-73439666D01*
X128635714Y-73573000D01*
X128564285Y-73639666D01*
X128421428Y-73706333D01*
X128135714Y-73706333D01*
X127992857Y-73639666D01*
X127921428Y-73573000D01*
X127850000Y-73439666D01*
X127850000Y-72306333D01*
X138064285Y-74560333D02*
X137564285Y-75960333D01*
X137064285Y-74560333D01*
X135992857Y-75893666D02*
X136135714Y-75960333D01*
X136421428Y-75960333D01*
X136564285Y-75893666D01*
X136635714Y-75760333D01*
X136635714Y-75227000D01*
X136564285Y-75093666D01*
X136421428Y-75027000D01*
X136135714Y-75027000D01*
X135992857Y-75093666D01*
X135921428Y-75227000D01*
X135921428Y-75360333D01*
X136635714Y-75493666D01*
X135278571Y-75960333D02*
X135278571Y-75027000D01*
X135278571Y-75293666D02*
X135207142Y-75160333D01*
X135135714Y-75093666D01*
X134992857Y-75027000D01*
X134850000Y-75027000D01*
X134421428Y-75893666D02*
X134278571Y-75960333D01*
X133992857Y-75960333D01*
X133850000Y-75893666D01*
X133778571Y-75760333D01*
X133778571Y-75693666D01*
X133850000Y-75560333D01*
X133992857Y-75493666D01*
X134207142Y-75493666D01*
X134350000Y-75427000D01*
X134421428Y-75293666D01*
X134421428Y-75227000D01*
X134350000Y-75093666D01*
X134207142Y-75027000D01*
X133992857Y-75027000D01*
X133850000Y-75093666D01*
X133135714Y-75960333D02*
X133135714Y-75027000D01*
X133135714Y-74560333D02*
X133207142Y-74627000D01*
X133135714Y-74693666D01*
X133064285Y-74627000D01*
X133135714Y-74560333D01*
X133135714Y-74693666D01*
X132207142Y-75960333D02*
X132350000Y-75893666D01*
X132421428Y-75827000D01*
X132492857Y-75693666D01*
X132492857Y-75293666D01*
X132421428Y-75160333D01*
X132350000Y-75093666D01*
X132207142Y-75027000D01*
X131992857Y-75027000D01*
X131850000Y-75093666D01*
X131778571Y-75160333D01*
X131707142Y-75293666D01*
X131707142Y-75693666D01*
X131778571Y-75827000D01*
X131850000Y-75893666D01*
X131992857Y-75960333D01*
X132207142Y-75960333D01*
X131064285Y-75027000D02*
X131064285Y-75960333D01*
X131064285Y-75160333D02*
X130992857Y-75093666D01*
X130850000Y-75027000D01*
X130635714Y-75027000D01*
X130492857Y-75093666D01*
X130421428Y-75227000D01*
X130421428Y-75960333D01*
X127778571Y-75960333D02*
X128635714Y-75960333D01*
X128207142Y-75960333D02*
X128207142Y-74560333D01*
X128350000Y-74760333D01*
X128492857Y-74893666D01*
X128635714Y-74960333D01*
D11*
X77061904Y-40350000D02*
X77157142Y-40302380D01*
X77300000Y-40302380D01*
X77442857Y-40350000D01*
X77538095Y-40445238D01*
X77585714Y-40540476D01*
X77633333Y-40730952D01*
X77633333Y-40873809D01*
X77585714Y-41064285D01*
X77538095Y-41159523D01*
X77442857Y-41254761D01*
X77300000Y-41302380D01*
X77204761Y-41302380D01*
X77061904Y-41254761D01*
X77014285Y-41207142D01*
X77014285Y-40873809D01*
X77204761Y-40873809D01*
X76585714Y-41302380D02*
X76585714Y-40302380D01*
X76014285Y-41302380D01*
X76014285Y-40302380D01*
X75538095Y-41302380D02*
X75538095Y-40302380D01*
X75300000Y-40302380D01*
X75157142Y-40350000D01*
X75061904Y-40445238D01*
X75014285Y-40540476D01*
X74966666Y-40730952D01*
X74966666Y-40873809D01*
X75014285Y-41064285D01*
X75061904Y-41159523D01*
X75157142Y-41254761D01*
X75300000Y-41302380D01*
X75538095Y-41302380D01*
D10*
X145592857Y-62200000D02*
X145592857Y-63333333D01*
X145664285Y-63466666D01*
X145735714Y-63533333D01*
X145878571Y-63600000D01*
X146092857Y-63600000D01*
X146235714Y-63533333D01*
X145592857Y-63066666D02*
X145735714Y-63133333D01*
X146021428Y-63133333D01*
X146164285Y-63066666D01*
X146235714Y-63000000D01*
X146307142Y-62866666D01*
X146307142Y-62466666D01*
X146235714Y-62333333D01*
X146164285Y-62266666D01*
X146021428Y-62200000D01*
X145735714Y-62200000D01*
X145592857Y-62266666D01*
X144878571Y-63133333D02*
X144878571Y-62200000D01*
X144878571Y-61733333D02*
X144950000Y-61800000D01*
X144878571Y-61866666D01*
X144807142Y-61800000D01*
X144878571Y-61733333D01*
X144878571Y-61866666D01*
X144378571Y-62200000D02*
X143807142Y-62200000D01*
X144164285Y-61733333D02*
X144164285Y-62933333D01*
X144092857Y-63066666D01*
X143950000Y-63133333D01*
X143807142Y-63133333D01*
X143307142Y-63133333D02*
X143307142Y-61733333D01*
X142664285Y-63133333D02*
X142664285Y-62400000D01*
X142735714Y-62266666D01*
X142878571Y-62200000D01*
X143092857Y-62200000D01*
X143235714Y-62266666D01*
X143307142Y-62333333D01*
X141307142Y-62200000D02*
X141307142Y-63133333D01*
X141950000Y-62200000D02*
X141950000Y-62933333D01*
X141878571Y-63066666D01*
X141735714Y-63133333D01*
X141521428Y-63133333D01*
X141378571Y-63066666D01*
X141307142Y-63000000D01*
X140592857Y-63133333D02*
X140592857Y-61733333D01*
X140592857Y-62266666D02*
X140450000Y-62200000D01*
X140164285Y-62200000D01*
X140021428Y-62266666D01*
X139950000Y-62333333D01*
X139878571Y-62466666D01*
X139878571Y-62866666D01*
X139950000Y-63000000D01*
X140021428Y-63066666D01*
X140164285Y-63133333D01*
X140450000Y-63133333D01*
X140592857Y-63066666D01*
X139235714Y-63000000D02*
X139164285Y-63066666D01*
X139235714Y-63133333D01*
X139307142Y-63066666D01*
X139235714Y-63000000D01*
X139235714Y-63133333D01*
X137878571Y-63066666D02*
X138021428Y-63133333D01*
X138307142Y-63133333D01*
X138450000Y-63066666D01*
X138521428Y-63000000D01*
X138592857Y-62866666D01*
X138592857Y-62466666D01*
X138521428Y-62333333D01*
X138450000Y-62266666D01*
X138307142Y-62200000D01*
X138021428Y-62200000D01*
X137878571Y-62266666D01*
X137021428Y-63133333D02*
X137164285Y-63066666D01*
X137235714Y-63000000D01*
X137307142Y-62866666D01*
X137307142Y-62466666D01*
X137235714Y-62333333D01*
X137164285Y-62266666D01*
X137021428Y-62200000D01*
X136807142Y-62200000D01*
X136664285Y-62266666D01*
X136592857Y-62333333D01*
X136521428Y-62466666D01*
X136521428Y-62866666D01*
X136592857Y-63000000D01*
X136664285Y-63066666D01*
X136807142Y-63133333D01*
X137021428Y-63133333D01*
X135878571Y-63133333D02*
X135878571Y-62200000D01*
X135878571Y-62333333D02*
X135807142Y-62266666D01*
X135664285Y-62200000D01*
X135450000Y-62200000D01*
X135307142Y-62266666D01*
X135235714Y-62400000D01*
X135235714Y-63133333D01*
X135235714Y-62400000D02*
X135164285Y-62266666D01*
X135021428Y-62200000D01*
X134807142Y-62200000D01*
X134664285Y-62266666D01*
X134592857Y-62400000D01*
X134592857Y-63133333D01*
X132807142Y-61666666D02*
X134092857Y-63466666D01*
X132521428Y-61733333D02*
X131664285Y-61733333D01*
X132092857Y-63133333D02*
X132092857Y-61733333D01*
X131307142Y-62200000D02*
X131021428Y-63133333D01*
X130735714Y-62466666D01*
X130449999Y-63133333D01*
X130164285Y-62200000D01*
X129592857Y-63133333D02*
X129592857Y-62200000D01*
X129592857Y-61733333D02*
X129664285Y-61800000D01*
X129592857Y-61866666D01*
X129521428Y-61800000D01*
X129592857Y-61733333D01*
X129592857Y-61866666D01*
X128949999Y-63066666D02*
X128807142Y-63133333D01*
X128521428Y-63133333D01*
X128378571Y-63066666D01*
X128307142Y-62933333D01*
X128307142Y-62866666D01*
X128378571Y-62733333D01*
X128521428Y-62666666D01*
X128735714Y-62666666D01*
X128878571Y-62600000D01*
X128949999Y-62466666D01*
X128949999Y-62400000D01*
X128878571Y-62266666D01*
X128735714Y-62200000D01*
X128521428Y-62200000D01*
X128378571Y-62266666D01*
X127878571Y-62200000D02*
X127307142Y-62200000D01*
X127664285Y-61733333D02*
X127664285Y-62933333D01*
X127592857Y-63066666D01*
X127449999Y-63133333D01*
X127307142Y-63133333D01*
X126235714Y-63066666D02*
X126378571Y-63133333D01*
X126664285Y-63133333D01*
X126807142Y-63066666D01*
X126878571Y-62933333D01*
X126878571Y-62400000D01*
X126807142Y-62266666D01*
X126664285Y-62200000D01*
X126378571Y-62200000D01*
X126235714Y-62266666D01*
X126164285Y-62400000D01*
X126164285Y-62533333D01*
X126878571Y-62666666D01*
X124878571Y-63133333D02*
X124878571Y-61733333D01*
X124878571Y-63066666D02*
X125021428Y-63133333D01*
X125307142Y-63133333D01*
X125449999Y-63066666D01*
X125521428Y-63000000D01*
X125592857Y-62866666D01*
X125592857Y-62466666D01*
X125521428Y-62333333D01*
X125449999Y-62266666D01*
X125307142Y-62200000D01*
X125021428Y-62200000D01*
X124878571Y-62266666D01*
X124164285Y-62600000D02*
X123021428Y-62600000D01*
X121807142Y-62400000D02*
X122307142Y-62400000D01*
X122307142Y-63133333D02*
X122307142Y-61733333D01*
X121592857Y-61733333D01*
X121021428Y-63133333D02*
X121021428Y-62200000D01*
X121021428Y-61733333D02*
X121092857Y-61800000D01*
X121021428Y-61866666D01*
X120949999Y-61800000D01*
X121021428Y-61733333D01*
X121021428Y-61866666D01*
X119735714Y-63066666D02*
X119878571Y-63133333D01*
X120164285Y-63133333D01*
X120307142Y-63066666D01*
X120378571Y-62933333D01*
X120378571Y-62400000D01*
X120307142Y-62266666D01*
X120164285Y-62200000D01*
X119878571Y-62200000D01*
X119735714Y-62266666D01*
X119664285Y-62400000D01*
X119664285Y-62533333D01*
X120378571Y-62666666D01*
X118807142Y-63133333D02*
X118949999Y-63066666D01*
X119021428Y-62933333D01*
X119021428Y-61733333D01*
X117592857Y-63133333D02*
X117592857Y-61733333D01*
X117592857Y-63066666D02*
X117735714Y-63133333D01*
X118021428Y-63133333D01*
X118164285Y-63066666D01*
X118235714Y-63000000D01*
X118307142Y-62866666D01*
X118307142Y-62466666D01*
X118235714Y-62333333D01*
X118164285Y-62266666D01*
X118021428Y-62200000D01*
X117735714Y-62200000D01*
X117592857Y-62266666D01*
X116949999Y-63066666D02*
X116807142Y-63133333D01*
X116521428Y-63133333D01*
X116378571Y-63066666D01*
X116307142Y-62933333D01*
X116307142Y-62866666D01*
X116378571Y-62733333D01*
X116521428Y-62666666D01*
X116735714Y-62666666D01*
X116878571Y-62600000D01*
X116949999Y-62466666D01*
X116949999Y-62400000D01*
X116878571Y-62266666D01*
X116735714Y-62200000D01*
X116521428Y-62200000D01*
X116378571Y-62266666D01*
X114592857Y-61666666D02*
X115878571Y-63466666D01*
X114092857Y-63133333D02*
X114092857Y-62200000D01*
X114092857Y-62466666D02*
X114021428Y-62333333D01*
X113949999Y-62266666D01*
X113807142Y-62200000D01*
X113664285Y-62200000D01*
X113164285Y-62200000D02*
X113164285Y-63600000D01*
X113164285Y-62266666D02*
X113021428Y-62200000D01*
X112735714Y-62200000D01*
X112592857Y-62266666D01*
X112521428Y-62333333D01*
X112449999Y-62466666D01*
X112449999Y-62866666D01*
X112521428Y-63000000D01*
X112592857Y-63066666D01*
X112735714Y-63133333D01*
X113021428Y-63133333D01*
X113164285Y-63066666D01*
X111878571Y-61866666D02*
X111807142Y-61800000D01*
X111664285Y-61733333D01*
X111307142Y-61733333D01*
X111164285Y-61800000D01*
X111092857Y-61866666D01*
X111021428Y-62000000D01*
X111021428Y-62133333D01*
X111092857Y-62333333D01*
X111949999Y-63133333D01*
X111021428Y-63133333D01*
X110092857Y-61733333D02*
X109949999Y-61733333D01*
X109807142Y-61800000D01*
X109735714Y-61866666D01*
X109664285Y-62000000D01*
X109592857Y-62266666D01*
X109592857Y-62600000D01*
X109664285Y-62866666D01*
X109735714Y-63000000D01*
X109807142Y-63066666D01*
X109949999Y-63133333D01*
X110092857Y-63133333D01*
X110235714Y-63066666D01*
X110307142Y-63000000D01*
X110378571Y-62866666D01*
X110449999Y-62600000D01*
X110449999Y-62266666D01*
X110378571Y-62000000D01*
X110307142Y-61866666D01*
X110235714Y-61800000D01*
X110092857Y-61733333D01*
X108307142Y-62200000D02*
X108307142Y-63133333D01*
X108664285Y-61666666D02*
X109021428Y-62666666D01*
X108092857Y-62666666D01*
X107235714Y-61733333D02*
X107092857Y-61733333D01*
X106949999Y-61800000D01*
X106878571Y-61866666D01*
X106807142Y-62000000D01*
X106735714Y-62266666D01*
X106735714Y-62600000D01*
X106807142Y-62866666D01*
X106878571Y-63000000D01*
X106949999Y-63066666D01*
X107092857Y-63133333D01*
X107235714Y-63133333D01*
X107378571Y-63066666D01*
X107449999Y-63000000D01*
X107521428Y-62866666D01*
X107592857Y-62600000D01*
X107592857Y-62266666D01*
X107521428Y-62000000D01*
X107449999Y-61866666D01*
X107378571Y-61800000D01*
X107235714Y-61733333D01*
X106092857Y-62600000D02*
X104949999Y-62600000D01*
X104235714Y-63133333D02*
X104235714Y-62200000D01*
X104235714Y-62333333D02*
X104164285Y-62266666D01*
X104021428Y-62200000D01*
X103807142Y-62200000D01*
X103664285Y-62266666D01*
X103592857Y-62400000D01*
X103592857Y-63133333D01*
X103592857Y-62400000D02*
X103521428Y-62266666D01*
X103378571Y-62200000D01*
X103164285Y-62200000D01*
X103021428Y-62266666D01*
X102949999Y-62400000D01*
X102949999Y-63133333D01*
X102021428Y-63133333D02*
X102164285Y-63066666D01*
X102235714Y-63000000D01*
X102307142Y-62866666D01*
X102307142Y-62466666D01*
X102235714Y-62333333D01*
X102164285Y-62266666D01*
X102021428Y-62200000D01*
X101807142Y-62200000D01*
X101664285Y-62266666D01*
X101592857Y-62333333D01*
X101521428Y-62466666D01*
X101521428Y-62866666D01*
X101592857Y-63000000D01*
X101664285Y-63066666D01*
X101807142Y-63133333D01*
X102021428Y-63133333D01*
X101092857Y-62200000D02*
X100521428Y-62200000D01*
X100878571Y-61733333D02*
X100878571Y-62933333D01*
X100807142Y-63066666D01*
X100664285Y-63133333D01*
X100521428Y-63133333D01*
X99807142Y-63133333D02*
X99949999Y-63066666D01*
X100021428Y-63000000D01*
X100092857Y-62866666D01*
X100092857Y-62466666D01*
X100021428Y-62333333D01*
X99949999Y-62266666D01*
X99807142Y-62200000D01*
X99592857Y-62200000D01*
X99449999Y-62266666D01*
X99378571Y-62333333D01*
X99307142Y-62466666D01*
X99307142Y-62866666D01*
X99378571Y-63000000D01*
X99449999Y-63066666D01*
X99592857Y-63133333D01*
X99807142Y-63133333D01*
X98664285Y-63133333D02*
X98664285Y-62200000D01*
X98664285Y-62466666D02*
X98592857Y-62333333D01*
X98521428Y-62266666D01*
X98378571Y-62200000D01*
X98235714Y-62200000D01*
X97735714Y-62600000D02*
X96592857Y-62600000D01*
X95235714Y-63066666D02*
X95378571Y-63133333D01*
X95664285Y-63133333D01*
X95807142Y-63066666D01*
X95878571Y-63000000D01*
X95949999Y-62866666D01*
X95949999Y-62466666D01*
X95878571Y-62333333D01*
X95807142Y-62266666D01*
X95664285Y-62200000D01*
X95378571Y-62200000D01*
X95235714Y-62266666D01*
X94378571Y-63133333D02*
X94521428Y-63066666D01*
X94592857Y-63000000D01*
X94664285Y-62866666D01*
X94664285Y-62466666D01*
X94592857Y-62333333D01*
X94521428Y-62266666D01*
X94378571Y-62200000D01*
X94164285Y-62200000D01*
X94021428Y-62266666D01*
X93949999Y-62333333D01*
X93878571Y-62466666D01*
X93878571Y-62866666D01*
X93949999Y-63000000D01*
X94021428Y-63066666D01*
X94164285Y-63133333D01*
X94378571Y-63133333D01*
X93235714Y-62200000D02*
X93235714Y-63133333D01*
X93235714Y-62333333D02*
X93164285Y-62266666D01*
X93021428Y-62200000D01*
X92807142Y-62200000D01*
X92664285Y-62266666D01*
X92592857Y-62400000D01*
X92592857Y-63133333D01*
X92092857Y-62200000D02*
X91521428Y-62200000D01*
X91878571Y-61733333D02*
X91878571Y-62933333D01*
X91807142Y-63066666D01*
X91664285Y-63133333D01*
X91521428Y-63133333D01*
X91021428Y-63133333D02*
X91021428Y-62200000D01*
X91021428Y-62466666D02*
X90949999Y-62333333D01*
X90878571Y-62266666D01*
X90735714Y-62200000D01*
X90592857Y-62200000D01*
X89878571Y-63133333D02*
X90021428Y-63066666D01*
X90092857Y-63000000D01*
X90164285Y-62866666D01*
X90164285Y-62466666D01*
X90092857Y-62333333D01*
X90021428Y-62266666D01*
X89878571Y-62200000D01*
X89664285Y-62200000D01*
X89521428Y-62266666D01*
X89449999Y-62333333D01*
X89378571Y-62466666D01*
X89378571Y-62866666D01*
X89449999Y-63000000D01*
X89521428Y-63066666D01*
X89664285Y-63133333D01*
X89878571Y-63133333D01*
X88521428Y-63133333D02*
X88664285Y-63066666D01*
X88735714Y-62933333D01*
X88735714Y-61733333D01*
X87735714Y-63133333D02*
X87878571Y-63066666D01*
X87949999Y-62933333D01*
X87949999Y-61733333D01*
X86592857Y-63066666D02*
X86735714Y-63133333D01*
X87021428Y-63133333D01*
X87164285Y-63066666D01*
X87235714Y-62933333D01*
X87235714Y-62400000D01*
X87164285Y-62266666D01*
X87021428Y-62200000D01*
X86735714Y-62200000D01*
X86592857Y-62266666D01*
X86521428Y-62400000D01*
X86521428Y-62533333D01*
X87235714Y-62666666D01*
X85878571Y-63133333D02*
X85878571Y-62200000D01*
X85878571Y-62466666D02*
X85807142Y-62333333D01*
X85735714Y-62266666D01*
X85592857Y-62200000D01*
X85449999Y-62200000D01*
D11*
X116761904Y-39800000D02*
X116857142Y-39752380D01*
X117000000Y-39752380D01*
X117142857Y-39800000D01*
X117238095Y-39895238D01*
X117285714Y-39990476D01*
X117333333Y-40180952D01*
X117333333Y-40323809D01*
X117285714Y-40514285D01*
X117238095Y-40609523D01*
X117142857Y-40704761D01*
X117000000Y-40752380D01*
X116904761Y-40752380D01*
X116761904Y-40704761D01*
X116714285Y-40657142D01*
X116714285Y-40323809D01*
X116904761Y-40323809D01*
X116285714Y-40752380D02*
X116285714Y-39752380D01*
X115714285Y-40752380D01*
X115714285Y-39752380D01*
X115238095Y-40752380D02*
X115238095Y-39752380D01*
X115000000Y-39752380D01*
X114857142Y-39800000D01*
X114761904Y-39895238D01*
X114714285Y-39990476D01*
X114666666Y-40180952D01*
X114666666Y-40323809D01*
X114714285Y-40514285D01*
X114761904Y-40609523D01*
X114857142Y-40704761D01*
X115000000Y-40752380D01*
X115238095Y-40752380D01*
D10*
X103296428Y-88091666D02*
X103296428Y-88758333D01*
X103796428Y-87358333D02*
X103296428Y-88091666D01*
X102796428Y-87358333D01*
X102082142Y-88758333D02*
X102225000Y-88691666D01*
X102296428Y-88625000D01*
X102367857Y-88491666D01*
X102367857Y-88091666D01*
X102296428Y-87958333D01*
X102225000Y-87891666D01*
X102082142Y-87825000D01*
X101867857Y-87825000D01*
X101725000Y-87891666D01*
X101653571Y-87958333D01*
X101582142Y-88091666D01*
X101582142Y-88491666D01*
X101653571Y-88625000D01*
X101725000Y-88691666D01*
X101867857Y-88758333D01*
X102082142Y-88758333D01*
X100296428Y-87825000D02*
X100296428Y-88758333D01*
X100939285Y-87825000D02*
X100939285Y-88558333D01*
X100867857Y-88691666D01*
X100725000Y-88758333D01*
X100510714Y-88758333D01*
X100367857Y-88691666D01*
X100296428Y-88625000D01*
X97796428Y-88691666D02*
X97939285Y-88758333D01*
X98225000Y-88758333D01*
X98367857Y-88691666D01*
X98439285Y-88625000D01*
X98510714Y-88491666D01*
X98510714Y-88091666D01*
X98439285Y-87958333D01*
X98367857Y-87891666D01*
X98225000Y-87825000D01*
X97939285Y-87825000D01*
X97796428Y-87891666D01*
X96510714Y-88758333D02*
X96510714Y-88025000D01*
X96582142Y-87891666D01*
X96725000Y-87825000D01*
X97010714Y-87825000D01*
X97153571Y-87891666D01*
X96510714Y-88691666D02*
X96653571Y-88758333D01*
X97010714Y-88758333D01*
X97153571Y-88691666D01*
X97225000Y-88558333D01*
X97225000Y-88425000D01*
X97153571Y-88291666D01*
X97010714Y-88225000D01*
X96653571Y-88225000D01*
X96510714Y-88158333D01*
X95796428Y-87825000D02*
X95796428Y-88758333D01*
X95796428Y-87958333D02*
X95725000Y-87891666D01*
X95582142Y-87825000D01*
X95367857Y-87825000D01*
X95225000Y-87891666D01*
X95153571Y-88025000D01*
X95153571Y-88758333D01*
X92653571Y-88758333D02*
X92653571Y-87358333D01*
X92653571Y-88691666D02*
X92796428Y-88758333D01*
X93082142Y-88758333D01*
X93225000Y-88691666D01*
X93296428Y-88625000D01*
X93367857Y-88491666D01*
X93367857Y-88091666D01*
X93296428Y-87958333D01*
X93225000Y-87891666D01*
X93082142Y-87825000D01*
X92796428Y-87825000D01*
X92653571Y-87891666D01*
X91725000Y-88758333D02*
X91867857Y-88691666D01*
X91939285Y-88625000D01*
X92010714Y-88491666D01*
X92010714Y-88091666D01*
X91939285Y-87958333D01*
X91867857Y-87891666D01*
X91725000Y-87825000D01*
X91510714Y-87825000D01*
X91367857Y-87891666D01*
X91296428Y-87958333D01*
X91225000Y-88091666D01*
X91225000Y-88491666D01*
X91296428Y-88625000D01*
X91367857Y-88691666D01*
X91510714Y-88758333D01*
X91725000Y-88758333D01*
X89439285Y-88758333D02*
X89439285Y-87825000D01*
X89439285Y-87358333D02*
X89510714Y-87425000D01*
X89439285Y-87491666D01*
X89367857Y-87425000D01*
X89439285Y-87358333D01*
X89439285Y-87491666D01*
X88939285Y-87825000D02*
X88367857Y-87825000D01*
X88725000Y-87358333D02*
X88725000Y-88558333D01*
X88653571Y-88691666D01*
X88510714Y-88758333D01*
X88367857Y-88758333D01*
X87867857Y-88625000D02*
X87796428Y-88691666D01*
X87867857Y-88758333D01*
X87939285Y-88691666D01*
X87867857Y-88625000D01*
X87867857Y-88758333D01*
X87867857Y-88225000D02*
X87939285Y-87425000D01*
X87867857Y-87358333D01*
X87796428Y-87425000D01*
X87867857Y-88225000D01*
X87867857Y-87358333D01*
D11*
X96861904Y-91900000D02*
X96957142Y-91852380D01*
X97100000Y-91852380D01*
X97242857Y-91900000D01*
X97338095Y-91995238D01*
X97385714Y-92090476D01*
X97433333Y-92280952D01*
X97433333Y-92423809D01*
X97385714Y-92614285D01*
X97338095Y-92709523D01*
X97242857Y-92804761D01*
X97100000Y-92852380D01*
X97004761Y-92852380D01*
X96861904Y-92804761D01*
X96814285Y-92757142D01*
X96814285Y-92423809D01*
X97004761Y-92423809D01*
X96385714Y-92852380D02*
X96385714Y-91852380D01*
X95814285Y-92852380D01*
X95814285Y-91852380D01*
X95338095Y-92852380D02*
X95338095Y-91852380D01*
X95100000Y-91852380D01*
X94957142Y-91900000D01*
X94861904Y-91995238D01*
X94814285Y-92090476D01*
X94766666Y-92280952D01*
X94766666Y-92423809D01*
X94814285Y-92614285D01*
X94861904Y-92709523D01*
X94957142Y-92804761D01*
X95100000Y-92852380D01*
X95338095Y-92852380D01*
X70161904Y-95900000D02*
X70257142Y-95852380D01*
X70400000Y-95852380D01*
X70542857Y-95900000D01*
X70638095Y-95995238D01*
X70685714Y-96090476D01*
X70733333Y-96280952D01*
X70733333Y-96423809D01*
X70685714Y-96614285D01*
X70638095Y-96709523D01*
X70542857Y-96804761D01*
X70400000Y-96852380D01*
X70304761Y-96852380D01*
X70161904Y-96804761D01*
X70114285Y-96757142D01*
X70114285Y-96423809D01*
X70304761Y-96423809D01*
X69685714Y-96852380D02*
X69685714Y-95852380D01*
X69114285Y-96852380D01*
X69114285Y-95852380D01*
X68638095Y-96852380D02*
X68638095Y-95852380D01*
X68400000Y-95852380D01*
X68257142Y-95900000D01*
X68161904Y-95995238D01*
X68114285Y-96090476D01*
X68066666Y-96280952D01*
X68066666Y-96423809D01*
X68114285Y-96614285D01*
X68161904Y-96709523D01*
X68257142Y-96804761D01*
X68400000Y-96852380D01*
X68638095Y-96852380D01*
X77061904Y-54100000D02*
X77157142Y-54052380D01*
X77300000Y-54052380D01*
X77442857Y-54100000D01*
X77538095Y-54195238D01*
X77585714Y-54290476D01*
X77633333Y-54480952D01*
X77633333Y-54623809D01*
X77585714Y-54814285D01*
X77538095Y-54909523D01*
X77442857Y-55004761D01*
X77300000Y-55052380D01*
X77204761Y-55052380D01*
X77061904Y-55004761D01*
X77014285Y-54957142D01*
X77014285Y-54623809D01*
X77204761Y-54623809D01*
X76585714Y-55052380D02*
X76585714Y-54052380D01*
X76014285Y-55052380D01*
X76014285Y-54052380D01*
X75538095Y-55052380D02*
X75538095Y-54052380D01*
X75300000Y-54052380D01*
X75157142Y-54100000D01*
X75061904Y-54195238D01*
X75014285Y-54290476D01*
X74966666Y-54480952D01*
X74966666Y-54623809D01*
X75014285Y-54814285D01*
X75061904Y-54909523D01*
X75157142Y-55004761D01*
X75300000Y-55052380D01*
X75538095Y-55052380D01*
D10*
X150050000Y-95333333D02*
X150764285Y-95333333D01*
X150764285Y-93933333D01*
X149335714Y-95333333D02*
X149478571Y-95266666D01*
X149550000Y-95200000D01*
X149621428Y-95066666D01*
X149621428Y-94666666D01*
X149550000Y-94533333D01*
X149478571Y-94466666D01*
X149335714Y-94400000D01*
X149121428Y-94400000D01*
X148978571Y-94466666D01*
X148907142Y-94533333D01*
X148835714Y-94666666D01*
X148835714Y-95066666D01*
X148907142Y-95200000D01*
X148978571Y-95266666D01*
X149121428Y-95333333D01*
X149335714Y-95333333D01*
X148335714Y-94400000D02*
X147978571Y-95333333D01*
X147621428Y-94400000D01*
X146478571Y-95266666D02*
X146621428Y-95333333D01*
X146907142Y-95333333D01*
X147050000Y-95266666D01*
X147121428Y-95133333D01*
X147121428Y-94600000D01*
X147050000Y-94466666D01*
X146907142Y-94400000D01*
X146621428Y-94400000D01*
X146478571Y-94466666D01*
X146407142Y-94600000D01*
X146407142Y-94733333D01*
X147121428Y-94866666D01*
X144050000Y-95266666D02*
X144192857Y-95333333D01*
X144478571Y-95333333D01*
X144621428Y-95266666D01*
X144692857Y-95133333D01*
X144692857Y-94600000D01*
X144621428Y-94466666D01*
X144478571Y-94400000D01*
X144192857Y-94400000D01*
X144050000Y-94466666D01*
X143978571Y-94600000D01*
X143978571Y-94733333D01*
X144692857Y-94866666D01*
X143478571Y-94400000D02*
X143121428Y-95333333D01*
X142764285Y-94400000D01*
X141621428Y-95266666D02*
X141764285Y-95333333D01*
X142050000Y-95333333D01*
X142192857Y-95266666D01*
X142264285Y-95133333D01*
X142264285Y-94600000D01*
X142192857Y-94466666D01*
X142050000Y-94400000D01*
X141764285Y-94400000D01*
X141621428Y-94466666D01*
X141550000Y-94600000D01*
X141550000Y-94733333D01*
X142264285Y-94866666D01*
X140907142Y-95333333D02*
X140907142Y-94400000D01*
X140907142Y-94666666D02*
X140835714Y-94533333D01*
X140764285Y-94466666D01*
X140621428Y-94400000D01*
X140478571Y-94400000D01*
X140121428Y-94400000D02*
X139764285Y-95333333D01*
X139407142Y-94400000D02*
X139764285Y-95333333D01*
X139907142Y-95666666D01*
X139978571Y-95733333D01*
X140121428Y-95800000D01*
X138621428Y-95333333D02*
X138764285Y-95266666D01*
X138835714Y-95200000D01*
X138907142Y-95066666D01*
X138907142Y-94666666D01*
X138835714Y-94533333D01*
X138764285Y-94466666D01*
X138621428Y-94400000D01*
X138407142Y-94400000D01*
X138264285Y-94466666D01*
X138192857Y-94533333D01*
X138121428Y-94666666D01*
X138121428Y-95066666D01*
X138192857Y-95200000D01*
X138264285Y-95266666D01*
X138407142Y-95333333D01*
X138621428Y-95333333D01*
X137478571Y-94400000D02*
X137478571Y-95333333D01*
X137478571Y-94533333D02*
X137407142Y-94466666D01*
X137264285Y-94400000D01*
X137050000Y-94400000D01*
X136907142Y-94466666D01*
X136835714Y-94600000D01*
X136835714Y-95333333D01*
X135550000Y-95266666D02*
X135692857Y-95333333D01*
X135978571Y-95333333D01*
X136121428Y-95266666D01*
X136192857Y-95133333D01*
X136192857Y-94600000D01*
X136121428Y-94466666D01*
X135978571Y-94400000D01*
X135692857Y-94400000D01*
X135550000Y-94466666D01*
X135478571Y-94600000D01*
X135478571Y-94733333D01*
X136192857Y-94866666D01*
X134835714Y-95200000D02*
X134764285Y-95266666D01*
X134835714Y-95333333D01*
X134907142Y-95266666D01*
X134835714Y-95200000D01*
X134835714Y-95333333D01*
X123478571Y-98333333D02*
X123121428Y-99733333D01*
X122835714Y-98733333D01*
X122550000Y-99733333D01*
X122192857Y-98333333D01*
X121050000Y-99666666D02*
X121192857Y-99733333D01*
X121478571Y-99733333D01*
X121621428Y-99666666D01*
X121692857Y-99533333D01*
X121692857Y-99000000D01*
X121621428Y-98866666D01*
X121478571Y-98800000D01*
X121192857Y-98800000D01*
X121050000Y-98866666D01*
X120978571Y-99000000D01*
X120978571Y-99133333D01*
X121692857Y-99266666D01*
X118550000Y-99733333D02*
X118550000Y-99000000D01*
X118621428Y-98866666D01*
X118764285Y-98800000D01*
X119050000Y-98800000D01*
X119192857Y-98866666D01*
X118550000Y-99666666D02*
X118692857Y-99733333D01*
X119050000Y-99733333D01*
X119192857Y-99666666D01*
X119264285Y-99533333D01*
X119264285Y-99400000D01*
X119192857Y-99266666D01*
X119050000Y-99200000D01*
X118692857Y-99200000D01*
X118550000Y-99133333D01*
X117835714Y-99733333D02*
X117835714Y-98800000D01*
X117835714Y-99066666D02*
X117764285Y-98933333D01*
X117692857Y-98866666D01*
X117550000Y-98800000D01*
X117407142Y-98800000D01*
X116335714Y-99666666D02*
X116478571Y-99733333D01*
X116764285Y-99733333D01*
X116907142Y-99666666D01*
X116978571Y-99533333D01*
X116978571Y-99000000D01*
X116907142Y-98866666D01*
X116764285Y-98800000D01*
X116478571Y-98800000D01*
X116335714Y-98866666D01*
X116264285Y-99000000D01*
X116264285Y-99133333D01*
X116978571Y-99266666D01*
X113835714Y-99733333D02*
X113835714Y-99000000D01*
X113907142Y-98866666D01*
X114050000Y-98800000D01*
X114335714Y-98800000D01*
X114478571Y-98866666D01*
X113835714Y-99666666D02*
X113978571Y-99733333D01*
X114335714Y-99733333D01*
X114478571Y-99666666D01*
X114550000Y-99533333D01*
X114550000Y-99400000D01*
X114478571Y-99266666D01*
X114335714Y-99200000D01*
X113978571Y-99200000D01*
X113835714Y-99133333D01*
X112907142Y-99733333D02*
X113050000Y-99666666D01*
X113121428Y-99533333D01*
X113121428Y-98333333D01*
X112121428Y-99733333D02*
X112264285Y-99666666D01*
X112335714Y-99533333D01*
X112335714Y-98333333D01*
X110478571Y-99666666D02*
X110335714Y-99733333D01*
X110050000Y-99733333D01*
X109907142Y-99666666D01*
X109835714Y-99533333D01*
X109835714Y-99466666D01*
X109907142Y-99333333D01*
X110050000Y-99266666D01*
X110264285Y-99266666D01*
X110407142Y-99200000D01*
X110478571Y-99066666D01*
X110478571Y-99000000D01*
X110407142Y-98866666D01*
X110264285Y-98800000D01*
X110050000Y-98800000D01*
X109907142Y-98866666D01*
X109407142Y-98800000D02*
X108835714Y-98800000D01*
X109192857Y-98333333D02*
X109192857Y-99533333D01*
X109121428Y-99666666D01*
X108978571Y-99733333D01*
X108835714Y-99733333D01*
X107692857Y-99733333D02*
X107692857Y-99000000D01*
X107764285Y-98866666D01*
X107907142Y-98800000D01*
X108192857Y-98800000D01*
X108335714Y-98866666D01*
X107692857Y-99666666D02*
X107835714Y-99733333D01*
X108192857Y-99733333D01*
X108335714Y-99666666D01*
X108407142Y-99533333D01*
X108407142Y-99400000D01*
X108335714Y-99266666D01*
X108192857Y-99200000D01*
X107835714Y-99200000D01*
X107692857Y-99133333D01*
X106978571Y-99733333D02*
X106978571Y-98800000D01*
X106978571Y-99066666D02*
X106907142Y-98933333D01*
X106835714Y-98866666D01*
X106692857Y-98800000D01*
X106550000Y-98800000D01*
X104978571Y-99666666D02*
X104835714Y-99733333D01*
X104550000Y-99733333D01*
X104407142Y-99666666D01*
X104335714Y-99533333D01*
X104335714Y-99466666D01*
X104407142Y-99333333D01*
X104550000Y-99266666D01*
X104764285Y-99266666D01*
X104907142Y-99200000D01*
X104978571Y-99066666D01*
X104978571Y-99000000D01*
X104907142Y-98866666D01*
X104764285Y-98800000D01*
X104550000Y-98800000D01*
X104407142Y-98866666D01*
X103907142Y-98800000D02*
X103335714Y-98800000D01*
X103692857Y-98333333D02*
X103692857Y-99533333D01*
X103621428Y-99666666D01*
X103478571Y-99733333D01*
X103335714Y-99733333D01*
X102192857Y-98800000D02*
X102192857Y-99733333D01*
X102835714Y-98800000D02*
X102835714Y-99533333D01*
X102764285Y-99666666D01*
X102621428Y-99733333D01*
X102407142Y-99733333D01*
X102264285Y-99666666D01*
X102192857Y-99600000D01*
X101692857Y-98800000D02*
X101121428Y-98800000D01*
X101478571Y-99733333D02*
X101478571Y-98533333D01*
X101407142Y-98400000D01*
X101264285Y-98333333D01*
X101121428Y-98333333D01*
X100835714Y-98800000D02*
X100264285Y-98800000D01*
X100621428Y-99733333D02*
X100621428Y-98533333D01*
X100550000Y-98400000D01*
X100407142Y-98333333D01*
X100264285Y-98333333D01*
X99764285Y-99600000D02*
X99692857Y-99666666D01*
X99764285Y-99733333D01*
X99835714Y-99666666D01*
X99764285Y-99600000D01*
X99764285Y-99733333D01*
D12*
X153885714Y-66454761D02*
X154552380Y-65502380D01*
X155028571Y-66454761D02*
X155028571Y-64454761D01*
X154266666Y-64454761D01*
X154076190Y-64550000D01*
X153980952Y-64645238D01*
X153885714Y-64835714D01*
X153885714Y-65121428D01*
X153980952Y-65311904D01*
X154076190Y-65407142D01*
X154266666Y-65502380D01*
X155028571Y-65502380D01*
X153028571Y-66454761D02*
X153028571Y-64454761D01*
X152266666Y-64454761D01*
X152076190Y-64550000D01*
X151980952Y-64645238D01*
X151885714Y-64835714D01*
X151885714Y-65121428D01*
X151980952Y-65311904D01*
X152076190Y-65407142D01*
X152266666Y-65502380D01*
X153028571Y-65502380D01*
X151123809Y-64645238D02*
X151028571Y-64550000D01*
X150838095Y-64454761D01*
X150361904Y-64454761D01*
X150171428Y-64550000D01*
X150076190Y-64645238D01*
X149980952Y-64835714D01*
X149980952Y-65026190D01*
X150076190Y-65311904D01*
X151219047Y-66454761D01*
X149980952Y-66454761D01*
X148742857Y-64454761D02*
X148552380Y-64454761D01*
X148361904Y-64550000D01*
X148266666Y-64645238D01*
X148171428Y-64835714D01*
X148076190Y-65216666D01*
X148076190Y-65692857D01*
X148171428Y-66073809D01*
X148266666Y-66264285D01*
X148361904Y-66359523D01*
X148552380Y-66454761D01*
X148742857Y-66454761D01*
X148933333Y-66359523D01*
X149028571Y-66264285D01*
X149123809Y-66073809D01*
X149219047Y-65692857D01*
X149219047Y-65216666D01*
X149123809Y-64835714D01*
X149028571Y-64645238D01*
X148933333Y-64550000D01*
X148742857Y-64454761D01*
X146361904Y-65121428D02*
X146361904Y-66454761D01*
X146838095Y-64359523D02*
X147314285Y-65788095D01*
X146076190Y-65788095D01*
X144933333Y-64454761D02*
X144742857Y-64454761D01*
X144552380Y-64550000D01*
X144457142Y-64645238D01*
X144361904Y-64835714D01*
X144266666Y-65216666D01*
X144266666Y-65692857D01*
X144361904Y-66073809D01*
X144457142Y-66264285D01*
X144552380Y-66359523D01*
X144742857Y-66454761D01*
X144933333Y-66454761D01*
X145123809Y-66359523D01*
X145219047Y-66264285D01*
X145314285Y-66073809D01*
X145409523Y-65692857D01*
X145409523Y-65216666D01*
X145314285Y-64835714D01*
X145219047Y-64645238D01*
X145123809Y-64550000D01*
X144933333Y-64454761D01*
X141219047Y-65407142D02*
X140933333Y-65502380D01*
X140838095Y-65597619D01*
X140742857Y-65788095D01*
X140742857Y-66073809D01*
X140838095Y-66264285D01*
X140933333Y-66359523D01*
X141123809Y-66454761D01*
X141885714Y-66454761D01*
X141885714Y-64454761D01*
X141219047Y-64454761D01*
X141028571Y-64550000D01*
X140933333Y-64645238D01*
X140838095Y-64835714D01*
X140838095Y-65026190D01*
X140933333Y-65216666D01*
X141028571Y-65311904D01*
X141219047Y-65407142D01*
X141885714Y-65407142D01*
X139885714Y-66454761D02*
X139885714Y-65121428D01*
X139885714Y-65502380D02*
X139790476Y-65311904D01*
X139695238Y-65216666D01*
X139504761Y-65121428D01*
X139314285Y-65121428D01*
X137790476Y-65121428D02*
X137790476Y-66454761D01*
X138647619Y-65121428D02*
X138647619Y-66169047D01*
X138552380Y-66359523D01*
X138361904Y-66454761D01*
X138076190Y-66454761D01*
X137885714Y-66359523D01*
X137790476Y-66264285D01*
X136933333Y-66359523D02*
X136742857Y-66454761D01*
X136361904Y-66454761D01*
X136171428Y-66359523D01*
X136076190Y-66169047D01*
X136076190Y-66073809D01*
X136171428Y-65883333D01*
X136361904Y-65788095D01*
X136647619Y-65788095D01*
X136838095Y-65692857D01*
X136933333Y-65502380D01*
X136933333Y-65407142D01*
X136838095Y-65216666D01*
X136647619Y-65121428D01*
X136361904Y-65121428D01*
X136171428Y-65216666D01*
X135219047Y-66454761D02*
X135219047Y-64454761D01*
X134361904Y-66454761D02*
X134361904Y-65407142D01*
X134457142Y-65216666D01*
X134647619Y-65121428D01*
X134933333Y-65121428D01*
X135123809Y-65216666D01*
X135219047Y-65311904D01*
X133123809Y-66454761D02*
X133314285Y-66359523D01*
X133409523Y-66169047D01*
X133409523Y-64454761D01*
X131600000Y-66359523D02*
X131790476Y-66454761D01*
X132171428Y-66454761D01*
X132361904Y-66359523D01*
X132457142Y-66169047D01*
X132457142Y-65407142D01*
X132361904Y-65216666D01*
X132171428Y-65121428D01*
X131790476Y-65121428D01*
X131600000Y-65216666D01*
X131504761Y-65407142D01*
X131504761Y-65597619D01*
X132457142Y-65788095D01*
X130742857Y-66359523D02*
X130552380Y-66454761D01*
X130171428Y-66454761D01*
X129980952Y-66359523D01*
X129885714Y-66169047D01*
X129885714Y-66073809D01*
X129980952Y-65883333D01*
X130171428Y-65788095D01*
X130457142Y-65788095D01*
X130647619Y-65692857D01*
X130742857Y-65502380D01*
X130742857Y-65407142D01*
X130647619Y-65216666D01*
X130457142Y-65121428D01*
X130171428Y-65121428D01*
X129980952Y-65216666D01*
X129123809Y-66359523D02*
X128933333Y-66454761D01*
X128552380Y-66454761D01*
X128361904Y-66359523D01*
X128266666Y-66169047D01*
X128266666Y-66073809D01*
X128361904Y-65883333D01*
X128552380Y-65788095D01*
X128838095Y-65788095D01*
X129028571Y-65692857D01*
X129123809Y-65502380D01*
X129123809Y-65407142D01*
X129028571Y-65216666D01*
X128838095Y-65121428D01*
X128552380Y-65121428D01*
X128361904Y-65216666D01*
X125885714Y-66454761D02*
X125885714Y-64454761D01*
X125219047Y-65883333D01*
X124552380Y-64454761D01*
X124552380Y-66454761D01*
X123314285Y-66454761D02*
X123504761Y-66359523D01*
X123600000Y-66264285D01*
X123695238Y-66073809D01*
X123695238Y-65502380D01*
X123600000Y-65311904D01*
X123504761Y-65216666D01*
X123314285Y-65121428D01*
X123028571Y-65121428D01*
X122838095Y-65216666D01*
X122742857Y-65311904D01*
X122647619Y-65502380D01*
X122647619Y-66073809D01*
X122742857Y-66264285D01*
X122838095Y-66359523D01*
X123028571Y-66454761D01*
X123314285Y-66454761D01*
X122076190Y-65121428D02*
X121314285Y-65121428D01*
X121790476Y-64454761D02*
X121790476Y-66169047D01*
X121695238Y-66359523D01*
X121504761Y-66454761D01*
X121314285Y-66454761D01*
X120361904Y-66454761D02*
X120552380Y-66359523D01*
X120647619Y-66264285D01*
X120742857Y-66073809D01*
X120742857Y-65502380D01*
X120647619Y-65311904D01*
X120552380Y-65216666D01*
X120361904Y-65121428D01*
X120076190Y-65121428D01*
X119885714Y-65216666D01*
X119790476Y-65311904D01*
X119695238Y-65502380D01*
X119695238Y-66073809D01*
X119790476Y-66264285D01*
X119885714Y-66359523D01*
X120076190Y-66454761D01*
X120361904Y-66454761D01*
X118838095Y-66454761D02*
X118838095Y-65121428D01*
X118838095Y-65502380D02*
X118742857Y-65311904D01*
X118647619Y-65216666D01*
X118457142Y-65121428D01*
X118266666Y-65121428D01*
X114933333Y-66264285D02*
X115028571Y-66359523D01*
X115314285Y-66454761D01*
X115504761Y-66454761D01*
X115790476Y-66359523D01*
X115980952Y-66169047D01*
X116076190Y-65978571D01*
X116171428Y-65597619D01*
X116171428Y-65311904D01*
X116076190Y-64930952D01*
X115980952Y-64740476D01*
X115790476Y-64550000D01*
X115504761Y-64454761D01*
X115314285Y-64454761D01*
X115028571Y-64550000D01*
X114933333Y-64645238D01*
X113790476Y-66454761D02*
X113980952Y-66359523D01*
X114076190Y-66264285D01*
X114171428Y-66073809D01*
X114171428Y-65502380D01*
X114076190Y-65311904D01*
X113980952Y-65216666D01*
X113790476Y-65121428D01*
X113504761Y-65121428D01*
X113314285Y-65216666D01*
X113219047Y-65311904D01*
X113123809Y-65502380D01*
X113123809Y-66073809D01*
X113219047Y-66264285D01*
X113314285Y-66359523D01*
X113504761Y-66454761D01*
X113790476Y-66454761D01*
X112266666Y-65121428D02*
X112266666Y-66454761D01*
X112266666Y-65311904D02*
X112171428Y-65216666D01*
X111980952Y-65121428D01*
X111695238Y-65121428D01*
X111504761Y-65216666D01*
X111409523Y-65407142D01*
X111409523Y-66454761D01*
X110742857Y-65121428D02*
X109980952Y-65121428D01*
X110457142Y-64454761D02*
X110457142Y-66169047D01*
X110361904Y-66359523D01*
X110171428Y-66454761D01*
X109980952Y-66454761D01*
X109314285Y-66454761D02*
X109314285Y-65121428D01*
X109314285Y-65502380D02*
X109219047Y-65311904D01*
X109123809Y-65216666D01*
X108933333Y-65121428D01*
X108742857Y-65121428D01*
X107790476Y-66454761D02*
X107980952Y-66359523D01*
X108076190Y-66264285D01*
X108171428Y-66073809D01*
X108171428Y-65502380D01*
X108076190Y-65311904D01*
X107980952Y-65216666D01*
X107790476Y-65121428D01*
X107504761Y-65121428D01*
X107314285Y-65216666D01*
X107219047Y-65311904D01*
X107123809Y-65502380D01*
X107123809Y-66073809D01*
X107219047Y-66264285D01*
X107314285Y-66359523D01*
X107504761Y-66454761D01*
X107790476Y-66454761D01*
X105980952Y-66454761D02*
X106171428Y-66359523D01*
X106266666Y-66169047D01*
X106266666Y-64454761D01*
X104933333Y-66454761D02*
X105123809Y-66359523D01*
X105219047Y-66169047D01*
X105219047Y-64454761D01*
X103409523Y-66359523D02*
X103600000Y-66454761D01*
X103980952Y-66454761D01*
X104171428Y-66359523D01*
X104266666Y-66169047D01*
X104266666Y-65407142D01*
X104171428Y-65216666D01*
X103980952Y-65121428D01*
X103600000Y-65121428D01*
X103409523Y-65216666D01*
X103314285Y-65407142D01*
X103314285Y-65597619D01*
X104266666Y-65788095D01*
X102457142Y-66454761D02*
X102457142Y-65121428D01*
X102457142Y-65502380D02*
X102361904Y-65311904D01*
X102266666Y-65216666D01*
X102076190Y-65121428D01*
X101885714Y-65121428D01*
G36*
X132318244Y-56536429D02*
G01*
X132442380Y-56537629D01*
X132551155Y-56539921D01*
X132638410Y-56543102D01*
X132697985Y-56546968D01*
X132723721Y-56551314D01*
X132736113Y-56560715D01*
X132747536Y-56573724D01*
X132757279Y-56592627D01*
X132765477Y-56620268D01*
X132772261Y-56659492D01*
X132777765Y-56713143D01*
X132782123Y-56784068D01*
X132785467Y-56875109D01*
X132787931Y-56989114D01*
X132789649Y-57128925D01*
X132790753Y-57297388D01*
X132791377Y-57497349D01*
X132791653Y-57731651D01*
X132791715Y-58003139D01*
X132791715Y-58021773D01*
X132791690Y-58284477D01*
X132791560Y-58510268D01*
X132791236Y-58702072D01*
X132790635Y-58862814D01*
X132789668Y-58995421D01*
X132788249Y-59102818D01*
X132786293Y-59187932D01*
X132783711Y-59253687D01*
X132780419Y-59303011D01*
X132776329Y-59338829D01*
X132771355Y-59364067D01*
X132765411Y-59381650D01*
X132758409Y-59394505D01*
X132750264Y-59405558D01*
X132743165Y-59414291D01*
X132711543Y-59442297D01*
X132669897Y-59455186D01*
X132603364Y-59458297D01*
X132593122Y-59458293D01*
X132542426Y-59457096D01*
X132502870Y-59450746D01*
X132472998Y-59434882D01*
X132451356Y-59405145D01*
X132436491Y-59357177D01*
X132426948Y-59286617D01*
X132421272Y-59189106D01*
X132418009Y-59060286D01*
X132415705Y-58895796D01*
X132409695Y-58417478D01*
X132199390Y-58417478D01*
X132135192Y-58416592D01*
X132051486Y-58412600D01*
X131987233Y-58406129D01*
X131952701Y-58397990D01*
X131942165Y-58391240D01*
X131909141Y-58345102D01*
X131901221Y-58284516D01*
X131921264Y-58225208D01*
X131930646Y-58211777D01*
X131947756Y-58195549D01*
X131973699Y-58185416D01*
X132016265Y-58179947D01*
X132083247Y-58177715D01*
X132182436Y-58177288D01*
X132412234Y-58177288D01*
X132406975Y-57481741D01*
X132401715Y-56786193D01*
X132113076Y-56780617D01*
X132099519Y-56780337D01*
X131985221Y-56776338D01*
X131892871Y-56770124D01*
X131828484Y-56762218D01*
X131798076Y-56753147D01*
X131783241Y-56732661D01*
X131772683Y-56680118D01*
X131780097Y-56620793D01*
X131804815Y-56572600D01*
X131808147Y-56569100D01*
X131823364Y-56557804D01*
X131846613Y-56549406D01*
X131883222Y-56543487D01*
X131938520Y-56539634D01*
X132017833Y-56537429D01*
X132126489Y-56536457D01*
X132269815Y-56536303D01*
X132318244Y-56536429D01*
G37*
G36*
X125769042Y-59407113D02*
G01*
X125725570Y-59462422D01*
X125503643Y-59455015D01*
X125410628Y-59451069D01*
X125332433Y-59444308D01*
X125271326Y-59432824D01*
X125215142Y-59414238D01*
X125151715Y-59386169D01*
X125082411Y-59349155D01*
X124936797Y-59239219D01*
X124808723Y-59094692D01*
X124699122Y-58916968D01*
X124608923Y-58707445D01*
X124539057Y-58467517D01*
X124536029Y-58454254D01*
X124523735Y-58391322D01*
X124514730Y-58323885D01*
X124508586Y-58244840D01*
X124504880Y-58147086D01*
X124503184Y-58023522D01*
X124503074Y-57867044D01*
X124503127Y-57857142D01*
X124875084Y-57857142D01*
X124881407Y-58096987D01*
X124902260Y-58322019D01*
X124936696Y-58528746D01*
X124983769Y-58713680D01*
X125042536Y-58873331D01*
X125112050Y-59004210D01*
X125191366Y-59102827D01*
X125279539Y-59165693D01*
X125286504Y-59168903D01*
X125343722Y-59189620D01*
X125389894Y-59198092D01*
X125432028Y-59198092D01*
X125426872Y-57992143D01*
X125421715Y-56786193D01*
X125323038Y-56792586D01*
X125246907Y-56803646D01*
X125153175Y-56840297D01*
X125074901Y-56903433D01*
X125011060Y-56995128D01*
X124960625Y-57117458D01*
X124922569Y-57272498D01*
X124895866Y-57462322D01*
X124879488Y-57689006D01*
X124875084Y-57857142D01*
X124503127Y-57857142D01*
X124503772Y-57736409D01*
X124505530Y-57614746D01*
X124508802Y-57520073D01*
X124514110Y-57445358D01*
X124521978Y-57383571D01*
X124532930Y-57327681D01*
X124547491Y-57270656D01*
X124582225Y-57158570D01*
X124664483Y-56966554D01*
X124765951Y-56809523D01*
X124886579Y-56687547D01*
X125026317Y-56600695D01*
X125068404Y-56582160D01*
X125114532Y-56566097D01*
X125165017Y-56555182D01*
X125228768Y-56548082D01*
X125314698Y-56543461D01*
X125431715Y-56539986D01*
X125442728Y-56539718D01*
X125559502Y-56537758D01*
X125643326Y-56538641D01*
X125700661Y-56542813D01*
X125737971Y-56550722D01*
X125761715Y-56562814D01*
X125762516Y-56563418D01*
X125770194Y-56570262D01*
X125776814Y-56580156D01*
X125782469Y-56595946D01*
X125787249Y-56620476D01*
X125791246Y-56656590D01*
X125794552Y-56707134D01*
X125797259Y-56774953D01*
X125799457Y-56862889D01*
X125801240Y-56973790D01*
X125802698Y-57110498D01*
X125803922Y-57275859D01*
X125805006Y-57472717D01*
X125806039Y-57703917D01*
X125807115Y-57972304D01*
X125811912Y-59198092D01*
X125812514Y-59351803D01*
X125769042Y-59407113D01*
G37*
G36*
X127561791Y-56549009D02*
G01*
X127611715Y-56576028D01*
X127612566Y-56576883D01*
X127620229Y-56585659D01*
X127626822Y-56597237D01*
X127632423Y-56614481D01*
X127637115Y-56640254D01*
X127640977Y-56677420D01*
X127644091Y-56728844D01*
X127646536Y-56797388D01*
X127648394Y-56885917D01*
X127649745Y-56997295D01*
X127650669Y-57134385D01*
X127651248Y-57300052D01*
X127651561Y-57497158D01*
X127651690Y-57728569D01*
X127651715Y-57997147D01*
X127651715Y-58026505D01*
X127651683Y-58291137D01*
X127651539Y-58518895D01*
X127651202Y-58712643D01*
X127650592Y-58875244D01*
X127649627Y-59009564D01*
X127648228Y-59118465D01*
X127646314Y-59204811D01*
X127643803Y-59271467D01*
X127640617Y-59321295D01*
X127636673Y-59357160D01*
X127631892Y-59381926D01*
X127626192Y-59398456D01*
X127619494Y-59409615D01*
X127611715Y-59418266D01*
X127601693Y-59427422D01*
X127584110Y-59438231D01*
X127558475Y-59446180D01*
X127519461Y-59451705D01*
X127461746Y-59455244D01*
X127380004Y-59457231D01*
X127268911Y-59458103D01*
X127123144Y-59458297D01*
X127055287Y-59458253D01*
X126914132Y-59457422D01*
X126806573Y-59454722D01*
X126728057Y-59449107D01*
X126674029Y-59439526D01*
X126639936Y-59424934D01*
X126621222Y-59404280D01*
X126613333Y-59376518D01*
X126611715Y-59340598D01*
X126613465Y-59301142D01*
X126622752Y-59268480D01*
X126644996Y-59245581D01*
X126685606Y-59230537D01*
X126749991Y-59221435D01*
X126843558Y-59216365D01*
X126971715Y-59213416D01*
X127281715Y-59208100D01*
X127291715Y-57900452D01*
X127292824Y-57756598D01*
X127294756Y-57515790D01*
X127296587Y-57310538D01*
X127298423Y-57137921D01*
X127300371Y-56995021D01*
X127302537Y-56878916D01*
X127305029Y-56786689D01*
X127307952Y-56715418D01*
X127311414Y-56662186D01*
X127315522Y-56624071D01*
X127320381Y-56598155D01*
X127326099Y-56581517D01*
X127332783Y-56571239D01*
X127340538Y-56564400D01*
X127353409Y-56556530D01*
X127415918Y-56538544D01*
X127490952Y-56536276D01*
X127561791Y-56549009D01*
G37*
G36*
X129179647Y-56536002D02*
G01*
X129309793Y-56536357D01*
X129406684Y-56537635D01*
X129476016Y-56540356D01*
X129523487Y-56545037D01*
X129554796Y-56552197D01*
X129575640Y-56562354D01*
X129591715Y-56576028D01*
X129591739Y-56576052D01*
X129599564Y-56584764D01*
X129606294Y-56596008D01*
X129612014Y-56612670D01*
X129616804Y-56637633D01*
X129620748Y-56673782D01*
X129623928Y-56724002D01*
X129626425Y-56791176D01*
X129628322Y-56878191D01*
X129629702Y-56987930D01*
X129630646Y-57123277D01*
X129631237Y-57287118D01*
X129631558Y-57482337D01*
X129631690Y-57711818D01*
X129631715Y-57978447D01*
X129631715Y-57981560D01*
X129631653Y-58253936D01*
X129631378Y-58489142D01*
X129630760Y-58690010D01*
X129629668Y-58859371D01*
X129627969Y-59000056D01*
X129625534Y-59114896D01*
X129622229Y-59206723D01*
X129617923Y-59278369D01*
X129612486Y-59332664D01*
X129605786Y-59372439D01*
X129597690Y-59400528D01*
X129588069Y-59419759D01*
X129576790Y-59432966D01*
X129563721Y-59442979D01*
X129559950Y-59444326D01*
X129523464Y-59448603D01*
X129455089Y-59452320D01*
X129361079Y-59455265D01*
X129247687Y-59457226D01*
X129121166Y-59457991D01*
X129100102Y-59458000D01*
X128948616Y-59457351D01*
X128832035Y-59454613D01*
X128745827Y-59448656D01*
X128685458Y-59438351D01*
X128646396Y-59422569D01*
X128624107Y-59400180D01*
X128614058Y-59370054D01*
X128611715Y-59331063D01*
X128612499Y-59303326D01*
X128619433Y-59269356D01*
X128638271Y-59245830D01*
X128674632Y-59230846D01*
X128734131Y-59222500D01*
X128822385Y-59218889D01*
X128945012Y-59218108D01*
X128946028Y-59218108D01*
X129058543Y-59217711D01*
X129137671Y-59215964D01*
X129189969Y-59212019D01*
X129221997Y-59205029D01*
X129240313Y-59194147D01*
X129251475Y-59178526D01*
X129254140Y-59171558D01*
X129261416Y-59123628D01*
X129266111Y-59040491D01*
X129268080Y-58925801D01*
X129267179Y-58783215D01*
X129261715Y-58427485D01*
X129045036Y-58417478D01*
X128971013Y-58413604D01*
X128896049Y-58407386D01*
X128847752Y-58398851D01*
X128818342Y-58386445D01*
X128800036Y-58368616D01*
X128782862Y-58339707D01*
X128775016Y-58279995D01*
X128806715Y-58219792D01*
X128823447Y-58203189D01*
X128849788Y-58189516D01*
X128891037Y-58180925D01*
X128955558Y-58175804D01*
X129051715Y-58172540D01*
X129261715Y-58167281D01*
X129266990Y-57510961D01*
X129267844Y-57366302D01*
X129267745Y-57181034D01*
X129266021Y-57032492D01*
X129262690Y-56921496D01*
X129257773Y-56848864D01*
X129251286Y-56815414D01*
X129245758Y-56806381D01*
X129230493Y-56792756D01*
X129203588Y-56783956D01*
X129157954Y-56778950D01*
X129086503Y-56776704D01*
X128982146Y-56776185D01*
X128904336Y-56775993D01*
X128824326Y-56774499D01*
X128771595Y-56770505D01*
X128738721Y-56762828D01*
X128718281Y-56750288D01*
X128702850Y-56731700D01*
X128680360Y-56690414D01*
X128676549Y-56631326D01*
X128711715Y-56576028D01*
X128714566Y-56573233D01*
X128731089Y-56560243D01*
X128753426Y-56550675D01*
X128787272Y-56544008D01*
X128838327Y-56539725D01*
X128912287Y-56537308D01*
X129014851Y-56536238D01*
X129151715Y-56535996D01*
X129179647Y-56536002D01*
G37*
G36*
X130711974Y-56535007D02*
G01*
X130744815Y-56535996D01*
X130793291Y-56537669D01*
X130851849Y-56549616D01*
X130891715Y-56576028D01*
X130892566Y-56576883D01*
X130900229Y-56585659D01*
X130906822Y-56597237D01*
X130912423Y-56614481D01*
X130917115Y-56640254D01*
X130920977Y-56677420D01*
X130924091Y-56728844D01*
X130926536Y-56797388D01*
X130928394Y-56885917D01*
X130929745Y-56997295D01*
X130930669Y-57134385D01*
X130931248Y-57300052D01*
X130931561Y-57497158D01*
X130931690Y-57728569D01*
X130931715Y-57997147D01*
X130931715Y-58026505D01*
X130931683Y-58291137D01*
X130931539Y-58518895D01*
X130931202Y-58712643D01*
X130930592Y-58875244D01*
X130929627Y-59009564D01*
X130928228Y-59118465D01*
X130926314Y-59204811D01*
X130923803Y-59271467D01*
X130920617Y-59321295D01*
X130916673Y-59357160D01*
X130911892Y-59381926D01*
X130906192Y-59398456D01*
X130899494Y-59409615D01*
X130891715Y-59418266D01*
X130873332Y-59433464D01*
X130823803Y-59452681D01*
X130748290Y-59458297D01*
X130746888Y-59458299D01*
X130713484Y-59459423D01*
X130684592Y-59460775D01*
X130659886Y-59459670D01*
X130639040Y-59453424D01*
X130621731Y-59439354D01*
X130607632Y-59414777D01*
X130596419Y-59377007D01*
X130587767Y-59323362D01*
X130581350Y-59251158D01*
X130576843Y-59157710D01*
X130573922Y-59040336D01*
X130572261Y-58896350D01*
X130571534Y-58723070D01*
X130571418Y-58517812D01*
X130571587Y-58277891D01*
X130571715Y-58000624D01*
X130571715Y-57997890D01*
X130571597Y-57720371D01*
X130571459Y-57480179D01*
X130571617Y-57274632D01*
X130572390Y-57101052D01*
X130574093Y-56956757D01*
X130577043Y-56839070D01*
X130581557Y-56745309D01*
X130587952Y-56672794D01*
X130596543Y-56618847D01*
X130607649Y-56580788D01*
X130621586Y-56555936D01*
X130638670Y-56541611D01*
X130659218Y-56535135D01*
X130683547Y-56533827D01*
X130711974Y-56535007D01*
G37*
G36*
X123177187Y-56516071D02*
G01*
X123275575Y-56547298D01*
X123365439Y-56605540D01*
X123457892Y-56696094D01*
X123523778Y-56777568D01*
X123579403Y-56872968D01*
X123615386Y-56978178D01*
X123634876Y-57102833D01*
X123641019Y-57256563D01*
X123641073Y-57301818D01*
X123639782Y-57390871D01*
X123634938Y-57455664D01*
X123624641Y-57507433D01*
X123606990Y-57557415D01*
X123580085Y-57616847D01*
X123554287Y-57664624D01*
X123494083Y-57756777D01*
X123413953Y-57864496D01*
X123319249Y-57980322D01*
X123292036Y-58012534D01*
X123217980Y-58103403D01*
X123151146Y-58189769D01*
X123097975Y-58263152D01*
X123064911Y-58315072D01*
X123020491Y-58412410D01*
X122976403Y-58572001D01*
X122960488Y-58737513D01*
X122973461Y-58898268D01*
X123016040Y-59043591D01*
X123021105Y-59055043D01*
X123077035Y-59146365D01*
X123145242Y-59200355D01*
X123227051Y-59218108D01*
X123238585Y-59217595D01*
X123308497Y-59192712D01*
X123372950Y-59134730D01*
X123428736Y-59049587D01*
X123472647Y-58943222D01*
X123501475Y-58821575D01*
X123512010Y-58690586D01*
X123517284Y-58596508D01*
X123536495Y-58522740D01*
X123571786Y-58479114D01*
X123625250Y-58461388D01*
X123628525Y-58461096D01*
X123685183Y-58469057D01*
X123723356Y-58505685D01*
X123744823Y-58574028D01*
X123751368Y-58677132D01*
X123750205Y-58730056D01*
X123730784Y-58907161D01*
X123689282Y-59068835D01*
X123628062Y-59210428D01*
X123549485Y-59327286D01*
X123455914Y-59414758D01*
X123349709Y-59468193D01*
X123334854Y-59472700D01*
X123235233Y-59493433D01*
X123141174Y-59491546D01*
X123033446Y-59466965D01*
X122964987Y-59440571D01*
X122851031Y-59366060D01*
X122753554Y-59262344D01*
X122674085Y-59134764D01*
X122614155Y-58988663D01*
X122575294Y-58829381D01*
X122559033Y-58662260D01*
X122566900Y-58492642D01*
X122600426Y-58325868D01*
X122661142Y-58167281D01*
X122680497Y-58130724D01*
X122734031Y-58042901D01*
X122799118Y-57947720D01*
X122865752Y-57860202D01*
X122975205Y-57722153D01*
X123072643Y-57591127D01*
X123149205Y-57478567D01*
X123202567Y-57387898D01*
X123230408Y-57322543D01*
X123239192Y-57283849D01*
X123249928Y-57188335D01*
X123249929Y-57087822D01*
X123239608Y-56996939D01*
X123219376Y-56930313D01*
X123195849Y-56888566D01*
X123137287Y-56817346D01*
X123074736Y-56780017D01*
X123012235Y-56778348D01*
X122953825Y-56814105D01*
X122948649Y-56819869D01*
X122919537Y-56874067D01*
X122894990Y-56954083D01*
X122878039Y-57047777D01*
X122871715Y-57143008D01*
X122869739Y-57182653D01*
X122848961Y-57258123D01*
X122806829Y-57302193D01*
X122744933Y-57312732D01*
X122738913Y-57312062D01*
X122690388Y-57296992D01*
X122658518Y-57262914D01*
X122641793Y-57204933D01*
X122638703Y-57118149D01*
X122647735Y-56997666D01*
X122653065Y-56951875D01*
X122678793Y-56810997D01*
X122716675Y-56702200D01*
X122769050Y-56620099D01*
X122838258Y-56559311D01*
X122871128Y-56539060D01*
X122920089Y-56518283D01*
X122977984Y-56508675D01*
X123060255Y-56506567D01*
X123177187Y-56516071D01*
G37*
G36*
X117561416Y-56033762D02*
G01*
X117639156Y-56082676D01*
X117700483Y-56154190D01*
X117731209Y-56222421D01*
X117735626Y-56295769D01*
X117704999Y-56354819D01*
X117640374Y-56395374D01*
X117622093Y-56400992D01*
X117532239Y-56403786D01*
X117428803Y-56371618D01*
X117352833Y-56326198D01*
X117292916Y-56262701D01*
X117264159Y-56192816D01*
X117268898Y-56122670D01*
X117309465Y-56058388D01*
X117323807Y-56045670D01*
X117394333Y-56012954D01*
X117476672Y-56009753D01*
X117561416Y-56033762D01*
G37*
G36*
X117659150Y-57045760D02*
G01*
X117845130Y-57053960D01*
X118005440Y-57067737D01*
X118098772Y-57077949D01*
X118173496Y-57084042D01*
X118222613Y-57084333D01*
X118253539Y-57078817D01*
X118273691Y-57067487D01*
X118285310Y-57059067D01*
X118296208Y-57059405D01*
X118300747Y-57080448D01*
X118299856Y-57128585D01*
X118294464Y-57210204D01*
X118293546Y-57222302D01*
X118284089Y-57320078D01*
X118271828Y-57416333D01*
X118259173Y-57491837D01*
X118236294Y-57603336D01*
X118113334Y-57584432D01*
X118088759Y-57581210D01*
X117998444Y-57573942D01*
X117879416Y-57568717D01*
X117739867Y-57565514D01*
X117587989Y-57564311D01*
X117431973Y-57565086D01*
X117280012Y-57567818D01*
X117140297Y-57572486D01*
X117021021Y-57579067D01*
X116930374Y-57587541D01*
X116653041Y-57630320D01*
X116384181Y-57686758D01*
X116142782Y-57753457D01*
X115957281Y-57820430D01*
X115708598Y-57931750D01*
X115449820Y-58069369D01*
X115187692Y-58229377D01*
X114928962Y-58407866D01*
X114680374Y-58600925D01*
X114599825Y-58668690D01*
X114499383Y-58755868D01*
X114392138Y-58851211D01*
X114282181Y-58950874D01*
X114173606Y-59051012D01*
X114070506Y-59147780D01*
X113976973Y-59237332D01*
X113897100Y-59315824D01*
X113834981Y-59379409D01*
X113794708Y-59424242D01*
X113780374Y-59446479D01*
X113778238Y-59460787D01*
X113763074Y-59462644D01*
X113725374Y-59441047D01*
X113673680Y-59405966D01*
X113599021Y-59351961D01*
X113519459Y-59291825D01*
X113444408Y-59232836D01*
X113383284Y-59182269D01*
X113345499Y-59147404D01*
X113300624Y-59099379D01*
X113402796Y-58970434D01*
X113459692Y-58901982D01*
X113560752Y-58789476D01*
X113679286Y-58665086D01*
X113807405Y-58536670D01*
X113937219Y-58412087D01*
X114060838Y-58299194D01*
X114170374Y-58205852D01*
X114279104Y-58120068D01*
X114651815Y-57858932D01*
X115044727Y-57631996D01*
X115456439Y-57439865D01*
X115885551Y-57283139D01*
X116330663Y-57162423D01*
X116790374Y-57078319D01*
X116889136Y-57066723D01*
X117062495Y-57053619D01*
X117256304Y-57045690D01*
X117459032Y-57043036D01*
X117659150Y-57045760D01*
G37*
G36*
X117409830Y-58960456D02*
G01*
X117504468Y-58974659D01*
X117457421Y-59025242D01*
X117433213Y-59050399D01*
X117324314Y-59150401D01*
X117190617Y-59257883D01*
X117041489Y-59366262D01*
X116886298Y-59468958D01*
X116734415Y-59559387D01*
X116595206Y-59630970D01*
X116494797Y-59674683D01*
X116279985Y-59753782D01*
X116055019Y-59819998D01*
X115833837Y-59869467D01*
X115630374Y-59898329D01*
X115613147Y-59899960D01*
X115566033Y-59905209D01*
X115544013Y-59908967D01*
X115542082Y-59909830D01*
X115543384Y-59900588D01*
X115565607Y-59869882D01*
X115603078Y-59824391D01*
X115650125Y-59770797D01*
X115701077Y-59715781D01*
X115750262Y-59666023D01*
X115795391Y-59623389D01*
X115981920Y-59465133D01*
X116181733Y-59320707D01*
X116384225Y-59197328D01*
X116578793Y-59102210D01*
X116615193Y-59087471D01*
X116778724Y-59032532D01*
X116950686Y-58990531D01*
X117120346Y-58963297D01*
X117276971Y-58952662D01*
X117409830Y-58960456D01*
G37*
G36*
X115630747Y-53976216D02*
G01*
X115967465Y-54026728D01*
X116290220Y-54114660D01*
X116598521Y-54239830D01*
X116891876Y-54402053D01*
X117169795Y-54601146D01*
X117431785Y-54836925D01*
X117475083Y-54881002D01*
X117701421Y-55140900D01*
X117890692Y-55414075D01*
X118044219Y-55702955D01*
X118163325Y-56009967D01*
X118249331Y-56337538D01*
X118262403Y-56409408D01*
X118276927Y-56510433D01*
X118289365Y-56618944D01*
X118299124Y-56727089D01*
X118305608Y-56827015D01*
X118308221Y-56910870D01*
X118306370Y-56970801D01*
X118299458Y-56998955D01*
X118289411Y-57006642D01*
X118280374Y-56996653D01*
X118265937Y-56985959D01*
X118215890Y-56972352D01*
X118134464Y-56958066D01*
X118026257Y-56943781D01*
X117895867Y-56930176D01*
X117747893Y-56917932D01*
X117565411Y-56904605D01*
X117574061Y-56772180D01*
X117580951Y-56681314D01*
X117589592Y-56614689D01*
X117601695Y-56573707D01*
X117619543Y-56550896D01*
X117645421Y-56538784D01*
X117649495Y-56537541D01*
X117759394Y-56490229D01*
X117832480Y-56427364D01*
X117868846Y-56348827D01*
X117868586Y-56254500D01*
X117834247Y-56140943D01*
X117771828Y-56036339D01*
X117689037Y-55955409D01*
X117591608Y-55901251D01*
X117485272Y-55876963D01*
X117375762Y-55885641D01*
X117268809Y-55930385D01*
X117263657Y-55933626D01*
X117204030Y-55988839D01*
X117170727Y-56064236D01*
X117160374Y-56167179D01*
X117164029Y-56225202D01*
X117197074Y-56335968D01*
X117264725Y-56426752D01*
X117367245Y-56497979D01*
X117481036Y-56556360D01*
X117470446Y-56909968D01*
X117320410Y-56910510D01*
X117309869Y-56910582D01*
X117181984Y-56915106D01*
X117029442Y-56925763D01*
X116865619Y-56941457D01*
X116703890Y-56961091D01*
X116597406Y-56975567D01*
X116610023Y-56827677D01*
X116614728Y-56774136D01*
X116623614Y-56691987D01*
X116633940Y-56638200D01*
X116648429Y-56605025D01*
X116669807Y-56584716D01*
X116700798Y-56569525D01*
X116734237Y-56553431D01*
X116795618Y-56501778D01*
X116829789Y-56428080D01*
X116840374Y-56326014D01*
X116838937Y-56287332D01*
X116818214Y-56177088D01*
X116775971Y-56084906D01*
X116716192Y-56020589D01*
X116652139Y-55992761D01*
X116569438Y-55990734D01*
X116484341Y-56016212D01*
X116404462Y-56064435D01*
X116337419Y-56130645D01*
X116290828Y-56210082D01*
X116272305Y-56297985D01*
X116272136Y-56313949D01*
X116277735Y-56368104D01*
X116299275Y-56412147D01*
X116344398Y-56463644D01*
X116404313Y-56534705D01*
X116449317Y-56619380D01*
X116473297Y-56718884D01*
X116480374Y-56844768D01*
X116480374Y-57001028D01*
X116308945Y-57036342D01*
X116253402Y-57048620D01*
X116144290Y-57075481D01*
X116025396Y-57107268D01*
X115914121Y-57139438D01*
X115829183Y-57164900D01*
X115756763Y-57185993D01*
X115707427Y-57199649D01*
X115688750Y-57203708D01*
X115688986Y-57192497D01*
X115692433Y-57151019D01*
X115698574Y-57090110D01*
X115706469Y-57029792D01*
X115720231Y-56990272D01*
X115748390Y-56963941D01*
X115800147Y-56936925D01*
X115844939Y-56911651D01*
X115901952Y-56857210D01*
X115932014Y-56785652D01*
X115936898Y-56691457D01*
X115918379Y-56569107D01*
X115909194Y-56533466D01*
X115860947Y-56431076D01*
X115788340Y-56355999D01*
X115695391Y-56312851D01*
X115634274Y-56302084D01*
X115523410Y-56308407D01*
X115428892Y-56348068D01*
X115355483Y-56417333D01*
X115307945Y-56512470D01*
X115291041Y-56629747D01*
X115293908Y-56682068D01*
X115322429Y-56785597D01*
X115384189Y-56874156D01*
X115482474Y-56953302D01*
X115582080Y-57017895D01*
X115576227Y-57135538D01*
X115570374Y-57253182D01*
X115310532Y-57361518D01*
X115160453Y-57253566D01*
X114870789Y-57063748D01*
X114528253Y-56878209D01*
X114346132Y-56788706D01*
X114383169Y-56676352D01*
X114392966Y-56647197D01*
X114420565Y-56577742D01*
X114451516Y-56531127D01*
X114495792Y-56495272D01*
X114563368Y-56458095D01*
X114614086Y-56427943D01*
X114694146Y-56354147D01*
X114744445Y-56267710D01*
X114763046Y-56175270D01*
X114748012Y-56083463D01*
X114697406Y-55998925D01*
X114673659Y-55973111D01*
X114605824Y-55916104D01*
X114527417Y-55878790D01*
X114423833Y-55853401D01*
X114394724Y-55848751D01*
X114265680Y-55846891D01*
X114155369Y-55879698D01*
X114061926Y-55947659D01*
X114044606Y-55965989D01*
X113980994Y-56060568D01*
X113949980Y-56160705D01*
X113951685Y-56259384D01*
X113986229Y-56349590D01*
X114053733Y-56424307D01*
X114117867Y-56474099D01*
X114182923Y-56527419D01*
X114224544Y-56567837D01*
X114247888Y-56601584D01*
X114258112Y-56634893D01*
X114260374Y-56673994D01*
X114258011Y-56723992D01*
X114247842Y-56743200D01*
X114225374Y-56739156D01*
X114153312Y-56711236D01*
X114051511Y-56675810D01*
X113930655Y-56636300D01*
X113800626Y-56595784D01*
X113671310Y-56557342D01*
X113552590Y-56524051D01*
X113454349Y-56498991D01*
X113218324Y-56443491D01*
X113224349Y-56371489D01*
X113225510Y-56358907D01*
X113234940Y-56317858D01*
X113259912Y-56295552D01*
X113312409Y-56279472D01*
X113316159Y-56278541D01*
X113409222Y-56241022D01*
X113472626Y-56180967D01*
X113508851Y-56094792D01*
X113520375Y-55978913D01*
X113518678Y-55922450D01*
X113505192Y-55847355D01*
X113472466Y-55783407D01*
X113413677Y-55713640D01*
X113382986Y-55684852D01*
X113297074Y-55634975D01*
X113207542Y-55619197D01*
X113120527Y-55634587D01*
X113042165Y-55678214D01*
X112978595Y-55747147D01*
X112935952Y-55838457D01*
X112920374Y-55949212D01*
X112920408Y-55955785D01*
X112933805Y-56061158D01*
X112975007Y-56144692D01*
X113049196Y-56217167D01*
X113093437Y-56256023D01*
X113115240Y-56296129D01*
X113120374Y-56352879D01*
X113120238Y-56375614D01*
X113116080Y-56414873D01*
X113100343Y-56427404D01*
X113065374Y-56422959D01*
X113054565Y-56421100D01*
X113002396Y-56414432D01*
X112922464Y-56405841D01*
X112823517Y-56396238D01*
X112714304Y-56386529D01*
X112418234Y-56361396D01*
X112431508Y-56280402D01*
X112445642Y-56213638D01*
X112478670Y-56097701D01*
X112523644Y-55964886D01*
X112576615Y-55825962D01*
X112633638Y-55691700D01*
X112690767Y-55572871D01*
X112784025Y-55404844D01*
X112914293Y-55206046D01*
X113063323Y-55017849D01*
X113240374Y-54827699D01*
X113299741Y-54769592D01*
X113559539Y-54548976D01*
X113839637Y-54361714D01*
X114137401Y-54209015D01*
X114450200Y-54092084D01*
X114775402Y-54012128D01*
X115110374Y-53970355D01*
X115280558Y-53963308D01*
X115630747Y-53976216D01*
G37*
G36*
X115644699Y-56451351D02*
G01*
X115701437Y-56456822D01*
X115732380Y-56464924D01*
X115762454Y-56496818D01*
X115790495Y-56568424D01*
X115800374Y-56665361D01*
X115791124Y-56745781D01*
X115759318Y-56800913D01*
X115700374Y-56835721D01*
X115682719Y-56841278D01*
X115600695Y-56844598D01*
X115524091Y-56815315D01*
X115460264Y-56759414D01*
X115416573Y-56682879D01*
X115400374Y-56591695D01*
X115405803Y-56545250D01*
X115437777Y-56491061D01*
X115500264Y-56459794D01*
X115595374Y-56449912D01*
X115644699Y-56451351D01*
G37*
G36*
X112538103Y-56502121D02*
G01*
X112582541Y-56504927D01*
X113018017Y-56552099D01*
X113443621Y-56633735D01*
X113855750Y-56748684D01*
X114250802Y-56895792D01*
X114625175Y-57073907D01*
X114975266Y-57281877D01*
X115180158Y-57417262D01*
X114955266Y-57535432D01*
X114946153Y-57540227D01*
X114860550Y-57585857D01*
X114788434Y-57625319D01*
X114737150Y-57654534D01*
X114714043Y-57669422D01*
X114711942Y-57670540D01*
X114683807Y-57663970D01*
X114634129Y-57639296D01*
X114572141Y-57600970D01*
X114495768Y-57551993D01*
X114259596Y-57422944D01*
X113995998Y-57307012D01*
X113713338Y-57206653D01*
X113419979Y-57124321D01*
X113124286Y-57062472D01*
X112834622Y-57023562D01*
X112559350Y-57010047D01*
X112360374Y-57010047D01*
X112360517Y-56884948D01*
X112361589Y-56825051D01*
X112366221Y-56721933D01*
X112373245Y-56626494D01*
X112385832Y-56493137D01*
X112538103Y-56502121D01*
G37*
G36*
X116610282Y-56141985D02*
G01*
X116668597Y-56190936D01*
X116686759Y-56214920D01*
X116717442Y-56286604D01*
X116711075Y-56352585D01*
X116667677Y-56408121D01*
X116654661Y-56417878D01*
X116594723Y-56445773D01*
X116538860Y-56437094D01*
X116478836Y-56391098D01*
X116451612Y-56359213D01*
X116421689Y-56291288D01*
X116428793Y-56226641D01*
X116473072Y-56170838D01*
X116483388Y-56163071D01*
X116549441Y-56132789D01*
X116610282Y-56141985D01*
G37*
G36*
X114448080Y-56015275D02*
G01*
X114536201Y-56063886D01*
X114607508Y-56134357D01*
X114648185Y-56189401D01*
X114607441Y-56244444D01*
X114602382Y-56250987D01*
X114554491Y-56300921D01*
X114498536Y-56346306D01*
X114449882Y-56374061D01*
X114397074Y-56386248D01*
X114324545Y-56384622D01*
X114278068Y-56378238D01*
X114188100Y-56346512D01*
X114124735Y-56295999D01*
X114090327Y-56232716D01*
X114087230Y-56162679D01*
X114117799Y-56091907D01*
X114184388Y-56026415D01*
X114261976Y-55993988D01*
X114353290Y-55991113D01*
X114448080Y-56015275D01*
G37*
G36*
X112475756Y-57719350D02*
G01*
X112518805Y-57724737D01*
X112586660Y-57735325D01*
X112670771Y-57749848D01*
X113034537Y-57830713D01*
X113422916Y-57954419D01*
X113793868Y-58113768D01*
X113963859Y-58196883D01*
X113757117Y-58403555D01*
X113724404Y-58436179D01*
X113654920Y-58504916D01*
X113598196Y-58560257D01*
X113559382Y-58597207D01*
X113543624Y-58610768D01*
X113543264Y-58610736D01*
X113521620Y-58600722D01*
X113475272Y-58576278D01*
X113413624Y-58542352D01*
X113408052Y-58539277D01*
X113335587Y-58503926D01*
X113243523Y-58464921D01*
X113141221Y-58425577D01*
X113038041Y-58389209D01*
X112943344Y-58359128D01*
X112866490Y-58338650D01*
X112816842Y-58331087D01*
X112782496Y-58335751D01*
X112746280Y-58353199D01*
X112739883Y-58356848D01*
X112720436Y-58345748D01*
X112692843Y-58304016D01*
X112654501Y-58228101D01*
X112641356Y-58199530D01*
X112608688Y-58123634D01*
X112573562Y-58036889D01*
X112538947Y-57947264D01*
X112507811Y-57862729D01*
X112483123Y-57791251D01*
X112467852Y-57740801D01*
X112464967Y-57719347D01*
X112475756Y-57719350D01*
G37*
G36*
X117702172Y-57700894D02*
G01*
X117871228Y-57702452D01*
X118002367Y-57705376D01*
X118096817Y-57709708D01*
X118155802Y-57715493D01*
X118180549Y-57722775D01*
X118180807Y-57723041D01*
X118187229Y-57756911D01*
X118174884Y-57822373D01*
X118144780Y-57916279D01*
X118097922Y-58035483D01*
X118035318Y-58176837D01*
X118034908Y-58177722D01*
X117994138Y-58261838D01*
X117964061Y-58313588D01*
X117941197Y-58337984D01*
X117922069Y-58340041D01*
X117899881Y-58332204D01*
X117815609Y-58311920D01*
X117704151Y-58294174D01*
X117574877Y-58280064D01*
X117437161Y-58270690D01*
X117300374Y-58267150D01*
X117210958Y-58268281D01*
X116904141Y-58293373D01*
X116607568Y-58352235D01*
X116318072Y-58446043D01*
X116032486Y-58575969D01*
X115747642Y-58743187D01*
X115460374Y-58948870D01*
X115410409Y-58989047D01*
X115322487Y-59064152D01*
X115225459Y-59151214D01*
X115123650Y-59245939D01*
X115021383Y-59344035D01*
X114922984Y-59441206D01*
X114832777Y-59533161D01*
X114755088Y-59615605D01*
X114694242Y-59684245D01*
X114654562Y-59734786D01*
X114640374Y-59762937D01*
X114641585Y-59786333D01*
X114650397Y-59812640D01*
X114670091Y-59820269D01*
X114703422Y-59807474D01*
X114753145Y-59772510D01*
X114822014Y-59713629D01*
X114912786Y-59629087D01*
X115028213Y-59517136D01*
X115052205Y-59493676D01*
X115157964Y-59391876D01*
X115263722Y-59292398D01*
X115362417Y-59201748D01*
X115446989Y-59126430D01*
X115510374Y-59072951D01*
X115595665Y-59006375D01*
X115877237Y-58811462D01*
X116159902Y-58654526D01*
X116446627Y-58534062D01*
X116740374Y-58448564D01*
X116840468Y-58429594D01*
X117004149Y-58409816D01*
X117183217Y-58398312D01*
X117364146Y-58395526D01*
X117533408Y-58401901D01*
X117677478Y-58417880D01*
X117724164Y-58425858D01*
X117798649Y-58439920D01*
X117852156Y-58451802D01*
X117875405Y-58459552D01*
X117875882Y-58469709D01*
X117857936Y-58508944D01*
X117818780Y-58572286D01*
X117761109Y-58655509D01*
X117687614Y-58754384D01*
X117601171Y-58867436D01*
X117515773Y-58847481D01*
X117499322Y-58844088D01*
X117404552Y-58834390D01*
X117284402Y-58833327D01*
X117149892Y-58840122D01*
X117012038Y-58854001D01*
X116881860Y-58874189D01*
X116770374Y-58899911D01*
X116657077Y-58937324D01*
X116482279Y-59009744D01*
X116301970Y-59099071D01*
X116129424Y-59198577D01*
X115977912Y-59301537D01*
X115922098Y-59344815D01*
X115818687Y-59431273D01*
X115715433Y-59524511D01*
X115618654Y-59618306D01*
X115534671Y-59706433D01*
X115469805Y-59782667D01*
X115430374Y-59840785D01*
X115390374Y-59917165D01*
X115180374Y-59905059D01*
X114972932Y-59886432D01*
X114642272Y-59827697D01*
X114328005Y-59734845D01*
X114033805Y-59608825D01*
X113860173Y-59521508D01*
X114195274Y-59208608D01*
X114285380Y-59124668D01*
X114415847Y-59004251D01*
X114527328Y-58903317D01*
X114625917Y-58816650D01*
X114717709Y-58739031D01*
X114808799Y-58665242D01*
X114905281Y-58590066D01*
X115013249Y-58508283D01*
X115256529Y-58335236D01*
X115535678Y-58162552D01*
X115813422Y-58020742D01*
X116097215Y-57906468D01*
X116394506Y-57816393D01*
X116712749Y-57747180D01*
X116730612Y-57743973D01*
X116807897Y-57730919D01*
X116879958Y-57720752D01*
X116953254Y-57713119D01*
X117034246Y-57707666D01*
X117129395Y-57704041D01*
X117245160Y-57701888D01*
X117388002Y-57700856D01*
X117564382Y-57700591D01*
X117702172Y-57700894D01*
G37*
G36*
X112875298Y-58466310D02*
G01*
X112951441Y-58490286D01*
X113040147Y-58522623D01*
X113134201Y-58560316D01*
X113226387Y-58600363D01*
X113309489Y-58639759D01*
X113376292Y-58675502D01*
X113419581Y-58704586D01*
X113432139Y-58724009D01*
X113429333Y-58729559D01*
X113406159Y-58764049D01*
X113366302Y-58817531D01*
X113316406Y-58880994D01*
X113210374Y-59012676D01*
X113098225Y-58892424D01*
X113082380Y-58875041D01*
X113027737Y-58810611D01*
X112969260Y-58736344D01*
X112911787Y-58659059D01*
X112860157Y-58585579D01*
X112819211Y-58522723D01*
X112793786Y-58477313D01*
X112788723Y-58456170D01*
X112789561Y-58455453D01*
X112818932Y-58453697D01*
X112875298Y-58466310D01*
G37*
G36*
X112567593Y-57131033D02*
G01*
X112869942Y-57152702D01*
X113184025Y-57201392D01*
X113498211Y-57274507D01*
X113800871Y-57369451D01*
X114080374Y-57483627D01*
X114144776Y-57514281D01*
X114244822Y-57564211D01*
X114341177Y-57614719D01*
X114427376Y-57662206D01*
X114496953Y-57703079D01*
X114543441Y-57733738D01*
X114560374Y-57750590D01*
X114553523Y-57758919D01*
X114520020Y-57786513D01*
X114464942Y-57827338D01*
X114395374Y-57876010D01*
X114357249Y-57902334D01*
X114277820Y-57958952D01*
X114208289Y-58010695D01*
X114160374Y-58048940D01*
X114138719Y-58067283D01*
X114100565Y-58097714D01*
X114081454Y-58110100D01*
X114073221Y-58107281D01*
X114035732Y-58090110D01*
X113975745Y-58060764D01*
X113901454Y-58023199D01*
X113825248Y-57985256D01*
X113483775Y-57839865D01*
X113117094Y-57721160D01*
X112730374Y-57630874D01*
X112510374Y-57588826D01*
X112477400Y-57629411D01*
X112461997Y-57646033D01*
X112450127Y-57647364D01*
X112439971Y-57626507D01*
X112428798Y-57577691D01*
X112413877Y-57495143D01*
X112410020Y-57472894D01*
X112394210Y-57378565D01*
X112380194Y-57290481D01*
X112370627Y-57225216D01*
X112357924Y-57130141D01*
X112497030Y-57130141D01*
X112567593Y-57131033D01*
G37*
G36*
X113251107Y-55755905D02*
G01*
X113327323Y-55793818D01*
X113394774Y-55867396D01*
X113431467Y-55943207D01*
X113434992Y-56022723D01*
X113398923Y-56096630D01*
X113387229Y-56110426D01*
X113343022Y-56141036D01*
X113280225Y-56149369D01*
X113271023Y-56149286D01*
X113164962Y-56133434D01*
X113086234Y-56091498D01*
X113037239Y-56025437D01*
X113020374Y-55937209D01*
X113022818Y-55892648D01*
X113040063Y-55844476D01*
X113081909Y-55800873D01*
X113093601Y-55791588D01*
X113171432Y-55754786D01*
X113251107Y-55755905D01*
G37*
G36*
X134173311Y-53040249D02*
G01*
X134250486Y-53058796D01*
X134295660Y-53099778D01*
X134310374Y-53164313D01*
X134310344Y-53165220D01*
X134306282Y-53195722D01*
X134295875Y-53261213D01*
X134279835Y-53357661D01*
X134258876Y-53481036D01*
X134233711Y-53627304D01*
X134205052Y-53792436D01*
X134173614Y-53972398D01*
X134140108Y-54163160D01*
X134105247Y-54360690D01*
X134069745Y-54560956D01*
X134034315Y-54759927D01*
X133999669Y-54953570D01*
X133966521Y-55137855D01*
X133935583Y-55308750D01*
X133907569Y-55462223D01*
X133883191Y-55594243D01*
X133863162Y-55700777D01*
X133848196Y-55777795D01*
X133838103Y-55818217D01*
X133814356Y-55881607D01*
X133788585Y-55922909D01*
X133742938Y-55950284D01*
X133662590Y-55961150D01*
X133643458Y-55961310D01*
X133611664Y-55961285D01*
X133584455Y-55958274D01*
X133560862Y-55949244D01*
X133539909Y-55931160D01*
X133520626Y-55900988D01*
X133502039Y-55855692D01*
X133483175Y-55792239D01*
X133463063Y-55707593D01*
X133440729Y-55598722D01*
X133415201Y-55462590D01*
X133385505Y-55296162D01*
X133350670Y-55096405D01*
X133309723Y-54860283D01*
X133296018Y-54781326D01*
X133262470Y-54587858D01*
X133231324Y-54407992D01*
X133203219Y-54245419D01*
X133178790Y-54103830D01*
X133158674Y-53986915D01*
X133143507Y-53898367D01*
X133133925Y-53841875D01*
X133130565Y-53821132D01*
X133130469Y-53820248D01*
X133119190Y-53823985D01*
X133118287Y-53826231D01*
X133111175Y-53858207D01*
X133098407Y-53924848D01*
X133080644Y-54022395D01*
X133058548Y-54147090D01*
X133032780Y-54295175D01*
X133004001Y-54462893D01*
X132972871Y-54646485D01*
X132940053Y-54842194D01*
X132904541Y-55053868D01*
X132868979Y-55262308D01*
X132838525Y-55436129D01*
X132812662Y-55577975D01*
X132790878Y-55690492D01*
X132772657Y-55776325D01*
X132757484Y-55838120D01*
X132744845Y-55878522D01*
X132734225Y-55900176D01*
X132718041Y-55919078D01*
X132674086Y-55945961D01*
X132606760Y-55957104D01*
X132585946Y-55958810D01*
X132557025Y-55961318D01*
X132531775Y-55961323D01*
X132509385Y-55956198D01*
X132489043Y-55943315D01*
X132469936Y-55920047D01*
X132451252Y-55883768D01*
X132432179Y-55831849D01*
X132411905Y-55761665D01*
X132389618Y-55670587D01*
X132364506Y-55555989D01*
X132335756Y-55415244D01*
X132302557Y-55245724D01*
X132264095Y-55044802D01*
X132219560Y-54809851D01*
X132168139Y-54538244D01*
X132142778Y-54404235D01*
X132100893Y-54181823D01*
X132061622Y-53971931D01*
X132025575Y-53777908D01*
X131993367Y-53603105D01*
X131965610Y-53450872D01*
X131942918Y-53324557D01*
X131925902Y-53227512D01*
X131915175Y-53163086D01*
X131911352Y-53134628D01*
X131911344Y-53131593D01*
X131927915Y-53082180D01*
X131968080Y-53052090D01*
X132019874Y-53043459D01*
X132071332Y-53058421D01*
X132110488Y-53099109D01*
X132117530Y-53123170D01*
X132131217Y-53183356D01*
X132150441Y-53275095D01*
X132174395Y-53394318D01*
X132202275Y-53536954D01*
X132233276Y-53698932D01*
X132266594Y-53876182D01*
X132301422Y-54064633D01*
X132324345Y-54189686D01*
X132365129Y-54411973D01*
X132399580Y-54599290D01*
X132428272Y-54754575D01*
X132451777Y-54880767D01*
X132470668Y-54980808D01*
X132485518Y-55057636D01*
X132496900Y-55114190D01*
X132505386Y-55153412D01*
X132511550Y-55178239D01*
X132515964Y-55191613D01*
X132519200Y-55196471D01*
X132521833Y-55195755D01*
X132522442Y-55194076D01*
X132528596Y-55163872D01*
X132540274Y-55098859D01*
X132556845Y-55002796D01*
X132577676Y-54879445D01*
X132602138Y-54732567D01*
X132629597Y-54565922D01*
X132659423Y-54383272D01*
X132690985Y-54188376D01*
X132698252Y-54143351D01*
X132729681Y-53949342D01*
X132759340Y-53767405D01*
X132786578Y-53601462D01*
X132810742Y-53455436D01*
X132831182Y-53333248D01*
X132847246Y-53238820D01*
X132858282Y-53176076D01*
X132863639Y-53148936D01*
X132870588Y-53127886D01*
X132904099Y-53075248D01*
X132959136Y-53047156D01*
X133043474Y-53038849D01*
X133090937Y-53041153D01*
X133166296Y-53062115D01*
X133214364Y-53108074D01*
X133240365Y-53182847D01*
X133240742Y-53184914D01*
X133247263Y-53222206D01*
X133259681Y-53294344D01*
X133277298Y-53397237D01*
X133299415Y-53526791D01*
X133325336Y-53678916D01*
X133354362Y-53849518D01*
X133385794Y-54034506D01*
X133418935Y-54229787D01*
X133426144Y-54272199D01*
X133458615Y-54460972D01*
X133489245Y-54635449D01*
X133517359Y-54792030D01*
X133542287Y-54927117D01*
X133563353Y-55037111D01*
X133579887Y-55118411D01*
X133591214Y-55167419D01*
X133596663Y-55180535D01*
X133601912Y-55157256D01*
X133613404Y-55098108D01*
X133630308Y-55007350D01*
X133651900Y-54888992D01*
X133677452Y-54747046D01*
X133706239Y-54585521D01*
X133737534Y-54408429D01*
X133770612Y-54219779D01*
X133800680Y-54048028D01*
X133832869Y-53865046D01*
X133862873Y-53695387D01*
X133889916Y-53543405D01*
X133913218Y-53413453D01*
X133932003Y-53309882D01*
X133945494Y-53237047D01*
X133952911Y-53199298D01*
X133973413Y-53127852D01*
X134007251Y-53073678D01*
X134059036Y-53046374D01*
X134136899Y-53038849D01*
X134173311Y-53040249D01*
G37*
G36*
X135747671Y-53038898D02*
G01*
X135887690Y-53039304D01*
X135995533Y-53040389D01*
X136075905Y-53042470D01*
X136133511Y-53045863D01*
X136173056Y-53050884D01*
X136199245Y-53057850D01*
X136216783Y-53067077D01*
X136230375Y-53078881D01*
X136257199Y-53113707D01*
X136267634Y-53170929D01*
X136239240Y-53234553D01*
X136222417Y-53254415D01*
X136199187Y-53267668D01*
X136161613Y-53275087D01*
X136101148Y-53278326D01*
X136009240Y-53279038D01*
X135810374Y-53279038D01*
X135810374Y-55862891D01*
X135761284Y-55912020D01*
X135760028Y-55913259D01*
X135698893Y-55949563D01*
X135623253Y-55963320D01*
X135548586Y-55954012D01*
X135490374Y-55921119D01*
X135484883Y-55915287D01*
X135477663Y-55904974D01*
X135471526Y-55890100D01*
X135466386Y-55867709D01*
X135462153Y-55834845D01*
X135458741Y-55788552D01*
X135456060Y-55725874D01*
X135454023Y-55643855D01*
X135452541Y-55539540D01*
X135451526Y-55409972D01*
X135450890Y-55252197D01*
X135450545Y-55063257D01*
X135450402Y-54840198D01*
X135450374Y-54580063D01*
X135450374Y-53279038D01*
X135251803Y-53279038D01*
X135225118Y-53278937D01*
X135124832Y-53275176D01*
X135057131Y-53263992D01*
X135016099Y-53242659D01*
X134995820Y-53208453D01*
X134990374Y-53158649D01*
X134990547Y-53145596D01*
X134994010Y-53115156D01*
X135005046Y-53091118D01*
X135027709Y-53072730D01*
X135066052Y-53059238D01*
X135124128Y-53049889D01*
X135205991Y-53043929D01*
X135315692Y-53040604D01*
X135457286Y-53039162D01*
X135634825Y-53038849D01*
X135747671Y-53038898D01*
G37*
G36*
X130960732Y-53051097D02*
G01*
X131021284Y-53087979D01*
X131070374Y-53137108D01*
X131070374Y-55862891D01*
X131021284Y-55912020D01*
X131020028Y-55913259D01*
X130958893Y-55949563D01*
X130883253Y-55963320D01*
X130808586Y-55954012D01*
X130750374Y-55921119D01*
X130749524Y-55920263D01*
X130741861Y-55911487D01*
X130735268Y-55899909D01*
X130729667Y-55882665D01*
X130724975Y-55856892D01*
X130721113Y-55819726D01*
X130717999Y-55768302D01*
X130715554Y-55699758D01*
X130713696Y-55611229D01*
X130712345Y-55499851D01*
X130711421Y-55362761D01*
X130710842Y-55197094D01*
X130710529Y-54999988D01*
X130710400Y-54768578D01*
X130710374Y-54500000D01*
X130710375Y-54470641D01*
X130710407Y-54206010D01*
X130710551Y-53978252D01*
X130710888Y-53784504D01*
X130711498Y-53621902D01*
X130712463Y-53487582D01*
X130713862Y-53378681D01*
X130715776Y-53292335D01*
X130718287Y-53225679D01*
X130721473Y-53175851D01*
X130725417Y-53139986D01*
X130730198Y-53115220D01*
X130735898Y-53098690D01*
X130742596Y-53087531D01*
X130750374Y-53078881D01*
X130751550Y-53077723D01*
X130810385Y-53045449D01*
X130885273Y-53036747D01*
X130960732Y-53051097D01*
G37*
G36*
X127527671Y-53038898D02*
G01*
X127667690Y-53039304D01*
X127775533Y-53040389D01*
X127855905Y-53042470D01*
X127913511Y-53045863D01*
X127953056Y-53050884D01*
X127979245Y-53057850D01*
X127996783Y-53067077D01*
X128010374Y-53078881D01*
X128037199Y-53113707D01*
X128047634Y-53170929D01*
X128019240Y-53234553D01*
X128002417Y-53254415D01*
X127979187Y-53267668D01*
X127941613Y-53275087D01*
X127881148Y-53278326D01*
X127789240Y-53279038D01*
X127590374Y-53279038D01*
X127590374Y-55862891D01*
X127541284Y-55912020D01*
X127496572Y-55941442D01*
X127421796Y-55960758D01*
X127343479Y-55958323D01*
X127279197Y-55932746D01*
X127274924Y-55929352D01*
X127267753Y-55921044D01*
X127261598Y-55907740D01*
X127256351Y-55886521D01*
X127251905Y-55854468D01*
X127248155Y-55808660D01*
X127244993Y-55746179D01*
X127242313Y-55664104D01*
X127240008Y-55559516D01*
X127237971Y-55429495D01*
X127236096Y-55271122D01*
X127234276Y-55081478D01*
X127232405Y-54857642D01*
X127230374Y-54596694D01*
X127220374Y-53289046D01*
X127014583Y-53279038D01*
X126961460Y-53276177D01*
X126875616Y-53268501D01*
X126820148Y-53255873D01*
X126788524Y-53234972D01*
X126774212Y-53202479D01*
X126770681Y-53155075D01*
X126770750Y-53144506D01*
X126773951Y-53114551D01*
X126784809Y-53090852D01*
X126807369Y-53072679D01*
X126845673Y-53059303D01*
X126903762Y-53049994D01*
X126985679Y-53044024D01*
X127095467Y-53040663D01*
X127237168Y-53039181D01*
X127414825Y-53038849D01*
X127527671Y-53038898D01*
G37*
G36*
X125662402Y-53039127D02*
G01*
X125761422Y-53040305D01*
X125832265Y-53042932D01*
X125880758Y-53047555D01*
X125912724Y-53054722D01*
X125933988Y-53064981D01*
X125950374Y-53078881D01*
X125951225Y-53079736D01*
X125958888Y-53088512D01*
X125965481Y-53100090D01*
X125971082Y-53117334D01*
X125975774Y-53143107D01*
X125979636Y-53180273D01*
X125982750Y-53231697D01*
X125985195Y-53300241D01*
X125987053Y-53388770D01*
X125988404Y-53500148D01*
X125989328Y-53637238D01*
X125989907Y-53802905D01*
X125990220Y-54000011D01*
X125990349Y-54231422D01*
X125990374Y-54500000D01*
X125990374Y-54529358D01*
X125990342Y-54793990D01*
X125990198Y-55021748D01*
X125989861Y-55215496D01*
X125989251Y-55378097D01*
X125988286Y-55512417D01*
X125986887Y-55621318D01*
X125984973Y-55707664D01*
X125982462Y-55774320D01*
X125979276Y-55824148D01*
X125975332Y-55860013D01*
X125970551Y-55884779D01*
X125964851Y-55901309D01*
X125958153Y-55912468D01*
X125950374Y-55921119D01*
X125944315Y-55926895D01*
X125927472Y-55938864D01*
X125903797Y-55947674D01*
X125867762Y-55953806D01*
X125813839Y-55957739D01*
X125736501Y-55959954D01*
X125630219Y-55960931D01*
X125489465Y-55961150D01*
X125357936Y-55961067D01*
X125250289Y-55960429D01*
X125171778Y-55958648D01*
X125116781Y-55955135D01*
X125079673Y-55949304D01*
X125054834Y-55940567D01*
X125036638Y-55928335D01*
X125019465Y-55912020D01*
X125019103Y-55911657D01*
X124979362Y-55860042D01*
X124975121Y-55814131D01*
X125005374Y-55763339D01*
X125005614Y-55763052D01*
X125022326Y-55746530D01*
X125044900Y-55734809D01*
X125080165Y-55726897D01*
X125134947Y-55721801D01*
X125216075Y-55718528D01*
X125330374Y-55716086D01*
X125620374Y-55710953D01*
X125631220Y-54920331D01*
X125435247Y-54920331D01*
X125433108Y-54920330D01*
X125317841Y-54916879D01*
X125236990Y-54905300D01*
X125185500Y-54883467D01*
X125158313Y-54849252D01*
X125150374Y-54800531D01*
X125151031Y-54779864D01*
X125160816Y-54737023D01*
X125186936Y-54708232D01*
X125235268Y-54690891D01*
X125311685Y-54682395D01*
X125422062Y-54680141D01*
X125630893Y-54680141D01*
X125625634Y-53984594D01*
X125620374Y-53289046D01*
X125361670Y-53283416D01*
X125257613Y-53279587D01*
X125169612Y-53273239D01*
X125106836Y-53265121D01*
X125076670Y-53255946D01*
X125075758Y-53255148D01*
X125057799Y-53219977D01*
X125050374Y-53167636D01*
X125051754Y-53135992D01*
X125060245Y-53102593D01*
X125080628Y-53077820D01*
X125117587Y-53060401D01*
X125175803Y-53049066D01*
X125259960Y-53042542D01*
X125374740Y-53039561D01*
X125524825Y-53038849D01*
X125529383Y-53038849D01*
X125662402Y-53039127D01*
G37*
G36*
X129231473Y-53015257D02*
G01*
X129333876Y-53041369D01*
X129427532Y-53095393D01*
X129523283Y-53182312D01*
X129541101Y-53201501D01*
X129622576Y-53310512D01*
X129681455Y-53435027D01*
X129723410Y-53586500D01*
X129741182Y-53714375D01*
X129734049Y-53881521D01*
X129690631Y-54053005D01*
X129672479Y-54100094D01*
X129632518Y-54180180D01*
X129577285Y-54265409D01*
X129501925Y-54362952D01*
X129401582Y-54479984D01*
X129366539Y-54520102D01*
X129242688Y-54674396D01*
X129153469Y-54809180D01*
X129098963Y-54924334D01*
X129065499Y-55047751D01*
X129047044Y-55198694D01*
X129050413Y-55347108D01*
X129075254Y-55482431D01*
X129121217Y-55594103D01*
X129139176Y-55623230D01*
X129188382Y-55682419D01*
X129243796Y-55712549D01*
X129316732Y-55720961D01*
X129360603Y-55715772D01*
X129405432Y-55692142D01*
X129456919Y-55642091D01*
X129494477Y-55593748D01*
X129547082Y-55489083D01*
X129582995Y-55356263D01*
X129603760Y-55190543D01*
X129616490Y-55085165D01*
X129637848Y-55013205D01*
X129669551Y-54972916D01*
X129713474Y-54960362D01*
X129755507Y-54968414D01*
X129797699Y-55006906D01*
X129822243Y-55078708D01*
X129830027Y-55185539D01*
X129829736Y-55211315D01*
X129813663Y-55394981D01*
X129774572Y-55561422D01*
X129714580Y-55706473D01*
X129635804Y-55825970D01*
X129540364Y-55915747D01*
X129430374Y-55971639D01*
X129323876Y-55991250D01*
X129191878Y-55983457D01*
X129062411Y-55944098D01*
X128954313Y-55878425D01*
X128851602Y-55775151D01*
X128767338Y-55643754D01*
X128704035Y-55489202D01*
X128664209Y-55316461D01*
X128650374Y-55130496D01*
X128651580Y-55067193D01*
X128664198Y-54934730D01*
X128692977Y-54811164D01*
X128740914Y-54689692D01*
X128811007Y-54563512D01*
X128906253Y-54425822D01*
X129029649Y-54269818D01*
X129079493Y-54208545D01*
X129178110Y-54077996D01*
X129250718Y-53964496D01*
X129300531Y-53861869D01*
X129330765Y-53763936D01*
X129344633Y-53664520D01*
X129347437Y-53605795D01*
X129343970Y-53542091D01*
X129328366Y-53486138D01*
X129296975Y-53419149D01*
X129272643Y-53376159D01*
X129218017Y-53311065D01*
X129157085Y-53281936D01*
X129085428Y-53285988D01*
X129045936Y-53309576D01*
X129006251Y-53372518D01*
X128976659Y-53471358D01*
X128957853Y-53604367D01*
X128948523Y-53677024D01*
X128932855Y-53744959D01*
X128914620Y-53784436D01*
X128869860Y-53813872D01*
X128812967Y-53813609D01*
X128760555Y-53779632D01*
X128749561Y-53765744D01*
X128737346Y-53738521D01*
X128731545Y-53698057D01*
X128731220Y-53635476D01*
X128735432Y-53541902D01*
X128736302Y-53527141D01*
X128756082Y-53361553D01*
X128793421Y-53230516D01*
X128849918Y-53131982D01*
X128927176Y-53063901D01*
X129026794Y-53024226D01*
X129150374Y-53010906D01*
X129231473Y-53015257D01*
G37*
G36*
X124027907Y-55923588D02*
G01*
X124023989Y-55927445D01*
X124001927Y-55944969D01*
X123974245Y-55955587D01*
X123932364Y-55960426D01*
X123867709Y-55960612D01*
X123771702Y-55957275D01*
X123698832Y-55953723D01*
X123615629Y-55946445D01*
X123550518Y-55934355D01*
X123490413Y-55914741D01*
X123422227Y-55884893D01*
X123286627Y-55803309D01*
X123153366Y-55681377D01*
X123037086Y-55528521D01*
X122939041Y-55348060D01*
X122860484Y-55143315D01*
X122802669Y-54917605D01*
X122766848Y-54674248D01*
X122758182Y-54496616D01*
X123147801Y-54496616D01*
X123164108Y-54766557D01*
X123198024Y-55008225D01*
X123249182Y-55219534D01*
X123317218Y-55398394D01*
X123401766Y-55542717D01*
X123431941Y-55579570D01*
X123487754Y-55633774D01*
X123538444Y-55668663D01*
X123543579Y-55671035D01*
X123604693Y-55692237D01*
X123658553Y-55700945D01*
X123710687Y-55700945D01*
X123705531Y-54494996D01*
X123700374Y-53289046D01*
X123592952Y-53293623D01*
X123556482Y-53296310D01*
X123454624Y-53321434D01*
X123371255Y-53375779D01*
X123297026Y-53464749D01*
X123268790Y-53512348D01*
X123224895Y-53619305D01*
X123191531Y-53753518D01*
X123167818Y-53918985D01*
X123152878Y-54119700D01*
X123149467Y-54200490D01*
X123147801Y-54496616D01*
X122758182Y-54496616D01*
X122754277Y-54416565D01*
X122766208Y-54147875D01*
X122773385Y-54076554D01*
X122810962Y-53836217D01*
X122866672Y-53630010D01*
X122941330Y-53456314D01*
X123035754Y-53313506D01*
X123150761Y-53199966D01*
X123287167Y-53114072D01*
X123298783Y-53108368D01*
X123350693Y-53084197D01*
X123396442Y-53067401D01*
X123445262Y-53056373D01*
X123506382Y-53049509D01*
X123589035Y-53045202D01*
X123702451Y-53041848D01*
X123715357Y-53041517D01*
X123824256Y-53039153D01*
X123900988Y-53039068D01*
X123952650Y-53042022D01*
X123986342Y-53048774D01*
X124009161Y-53060083D01*
X124028207Y-53076711D01*
X124031256Y-53079789D01*
X124039038Y-53088787D01*
X124045713Y-53100536D01*
X124051365Y-53117905D01*
X124056080Y-53143761D01*
X124059943Y-53180971D01*
X124063039Y-53232404D01*
X124065452Y-53300928D01*
X124067268Y-53389409D01*
X124068571Y-53500715D01*
X124069447Y-53637715D01*
X124069980Y-53803276D01*
X124070256Y-54000265D01*
X124070359Y-54231550D01*
X124070374Y-54500000D01*
X124070374Y-55881087D01*
X124027907Y-55923588D01*
G37*
G36*
X73219079Y-89857038D02*
G01*
X73223533Y-89860372D01*
X73233021Y-89862436D01*
X73252558Y-89862436D01*
X73320679Y-89882438D01*
X73325133Y-89885772D01*
X73347856Y-89890715D01*
X73347298Y-89893280D01*
X73396879Y-89907838D01*
X73402396Y-89911968D01*
X73451100Y-89936347D01*
X73474856Y-89941515D01*
X73474298Y-89944080D01*
X73523879Y-89958638D01*
X73529396Y-89962768D01*
X73583132Y-89989666D01*
X73587096Y-89993100D01*
X73628707Y-90013930D01*
X73663293Y-90043899D01*
X73704907Y-90064730D01*
X73739493Y-90094699D01*
X73781107Y-90115530D01*
X73815693Y-90145499D01*
X73857307Y-90166329D01*
X73880452Y-90186384D01*
X73885370Y-90194038D01*
X73905851Y-90211784D01*
X73910767Y-90219434D01*
X73942695Y-90247100D01*
X73984307Y-90267929D01*
X74007452Y-90287984D01*
X74012370Y-90295638D01*
X74032851Y-90313384D01*
X74037768Y-90321036D01*
X74058251Y-90338784D01*
X74063168Y-90346436D01*
X74083651Y-90364184D01*
X74088568Y-90371836D01*
X74109051Y-90389584D01*
X74113967Y-90397234D01*
X74139738Y-90419565D01*
X74147421Y-90421236D01*
X74166558Y-90421236D01*
X74186346Y-90415426D01*
X74203821Y-90395258D01*
X74211473Y-90390341D01*
X74229221Y-90369858D01*
X74236873Y-90364941D01*
X74254621Y-90344458D01*
X74262273Y-90339541D01*
X74280021Y-90319058D01*
X74287673Y-90314141D01*
X74305421Y-90293658D01*
X74313072Y-90288742D01*
X74322154Y-90278260D01*
X74381879Y-90239877D01*
X74389546Y-90237626D01*
X74407021Y-90217458D01*
X74414672Y-90212542D01*
X74423754Y-90202060D01*
X74483479Y-90163677D01*
X74491146Y-90161426D01*
X74508621Y-90141258D01*
X74516272Y-90136342D01*
X74525354Y-90125860D01*
X74585079Y-90087477D01*
X74592745Y-90085226D01*
X74601554Y-90075060D01*
X74661279Y-90036677D01*
X74682043Y-90030580D01*
X74712079Y-90011277D01*
X74719745Y-90009026D01*
X74728554Y-89998860D01*
X74788279Y-89960477D01*
X74820039Y-89951151D01*
X74831568Y-89943741D01*
X74838238Y-89942782D01*
X74885243Y-89928980D01*
X74915279Y-89909677D01*
X74947039Y-89900351D01*
X74958568Y-89892941D01*
X74965238Y-89891982D01*
X75023238Y-89874952D01*
X75034768Y-89867541D01*
X75070271Y-89862436D01*
X75080958Y-89862436D01*
X75124838Y-89849552D01*
X75136368Y-89842141D01*
X75171871Y-89837036D01*
X75538558Y-89837036D01*
X75606679Y-89857038D01*
X75611133Y-89860372D01*
X75620621Y-89862436D01*
X75665558Y-89862436D01*
X75733679Y-89882438D01*
X75738133Y-89885772D01*
X75760856Y-89890715D01*
X75760298Y-89893280D01*
X75809879Y-89907838D01*
X75814333Y-89911172D01*
X75837056Y-89916115D01*
X75836498Y-89918680D01*
X75886079Y-89933238D01*
X75891596Y-89937368D01*
X75940304Y-89961749D01*
X75940404Y-89961771D01*
X75991104Y-89987149D01*
X75991204Y-89987171D01*
X76041904Y-90012549D01*
X76042004Y-90012571D01*
X76097732Y-90040466D01*
X76101695Y-90043900D01*
X76143307Y-90064729D01*
X76166452Y-90084784D01*
X76171370Y-90092438D01*
X76191851Y-90110184D01*
X76196767Y-90117834D01*
X76239618Y-90154965D01*
X76268192Y-90170568D01*
X76291796Y-90210350D01*
X76293451Y-90211784D01*
X76298368Y-90219436D01*
X76318851Y-90237184D01*
X76323768Y-90244836D01*
X76344251Y-90262584D01*
X76349167Y-90270235D01*
X76359649Y-90279317D01*
X76398032Y-90339042D01*
X76400283Y-90346708D01*
X76410449Y-90355517D01*
X76448832Y-90415242D01*
X76454929Y-90436006D01*
X76474232Y-90466042D01*
X76480329Y-90486806D01*
X76499632Y-90516842D01*
X76505729Y-90537606D01*
X76525032Y-90567642D01*
X76534358Y-90599402D01*
X76541768Y-90610931D01*
X76542727Y-90617601D01*
X76559757Y-90675601D01*
X76567168Y-90687131D01*
X76572273Y-90722634D01*
X76572273Y-90733321D01*
X76585157Y-90777201D01*
X76592568Y-90788731D01*
X76597673Y-90824234D01*
X76597673Y-90885721D01*
X76610557Y-90929601D01*
X76617968Y-90941131D01*
X76623073Y-90976634D01*
X76623073Y-91216321D01*
X76603071Y-91284442D01*
X76599737Y-91288896D01*
X76597673Y-91298384D01*
X76597673Y-91343321D01*
X76577671Y-91411442D01*
X76574337Y-91415896D01*
X76569394Y-91438619D01*
X76566829Y-91438061D01*
X76552271Y-91487642D01*
X76548937Y-91492096D01*
X76543994Y-91514819D01*
X76541429Y-91514261D01*
X76526871Y-91563842D01*
X76522741Y-91569359D01*
X76498362Y-91618063D01*
X76493194Y-91641819D01*
X76490629Y-91641261D01*
X76476071Y-91690842D01*
X76467478Y-91702320D01*
X76446179Y-91744870D01*
X76419711Y-91775416D01*
X76396760Y-91821267D01*
X76396738Y-91821367D01*
X76368843Y-91877095D01*
X76365409Y-91881058D01*
X76344580Y-91922670D01*
X76324525Y-91945815D01*
X76316873Y-91950732D01*
X76289209Y-91982658D01*
X76268380Y-92024270D01*
X76248325Y-92047415D01*
X76240673Y-92052332D01*
X76213009Y-92084258D01*
X76192180Y-92125870D01*
X76172125Y-92149015D01*
X76164471Y-92153933D01*
X76146725Y-92174414D01*
X76139073Y-92179331D01*
X76121325Y-92199814D01*
X76113675Y-92204730D01*
X76086009Y-92236658D01*
X76065179Y-92278272D01*
X76053792Y-92291413D01*
X75994067Y-92329795D01*
X75990948Y-92330711D01*
X75973472Y-92350879D01*
X75958168Y-92360714D01*
X75943525Y-92377614D01*
X75935873Y-92382531D01*
X75918125Y-92403014D01*
X75910473Y-92407931D01*
X75892725Y-92428414D01*
X75885073Y-92433331D01*
X75867325Y-92453814D01*
X75859673Y-92458731D01*
X75841925Y-92479214D01*
X75834273Y-92484131D01*
X75816525Y-92504614D01*
X75808873Y-92509531D01*
X75791125Y-92530014D01*
X75783473Y-92534931D01*
X75765725Y-92555414D01*
X75758073Y-92560331D01*
X75740325Y-92580814D01*
X75732673Y-92585731D01*
X75714925Y-92606214D01*
X75707273Y-92611131D01*
X75689525Y-92631614D01*
X75681873Y-92636531D01*
X75664125Y-92657014D01*
X75656473Y-92661931D01*
X75638725Y-92682414D01*
X75631073Y-92687331D01*
X75613325Y-92707814D01*
X75605673Y-92712731D01*
X75587925Y-92733214D01*
X75580273Y-92738131D01*
X75562525Y-92758614D01*
X75554873Y-92763531D01*
X75537125Y-92784014D01*
X75529473Y-92788931D01*
X75511725Y-92809414D01*
X75504073Y-92814331D01*
X75486325Y-92834814D01*
X75478673Y-92839731D01*
X75460925Y-92860214D01*
X75453273Y-92865131D01*
X75435525Y-92885614D01*
X75427873Y-92890531D01*
X75410125Y-92911014D01*
X75402473Y-92915931D01*
X75384725Y-92936414D01*
X75377073Y-92941331D01*
X75359325Y-92961814D01*
X75351674Y-92966730D01*
X75342592Y-92977212D01*
X75282867Y-93015595D01*
X75275200Y-93017846D01*
X75257725Y-93038014D01*
X75250073Y-93042931D01*
X75232325Y-93063414D01*
X75224673Y-93068331D01*
X75206925Y-93088814D01*
X75199273Y-93093731D01*
X75181525Y-93114214D01*
X75173873Y-93119131D01*
X75156125Y-93139614D01*
X75148473Y-93144531D01*
X75130725Y-93165014D01*
X75123073Y-93169931D01*
X75105325Y-93190414D01*
X75097673Y-93195331D01*
X75079925Y-93215814D01*
X75072273Y-93220731D01*
X75054525Y-93241214D01*
X75046873Y-93246131D01*
X75029125Y-93266614D01*
X75021473Y-93271531D01*
X75003725Y-93292014D01*
X74996073Y-93296931D01*
X74978325Y-93317414D01*
X74970673Y-93322331D01*
X74952925Y-93342814D01*
X74945273Y-93347731D01*
X74927525Y-93368214D01*
X74919873Y-93373131D01*
X74902125Y-93393614D01*
X74894473Y-93398531D01*
X74876725Y-93419014D01*
X74869073Y-93423931D01*
X74851325Y-93444414D01*
X74843673Y-93449331D01*
X74825925Y-93469814D01*
X74818273Y-93474731D01*
X74800525Y-93495214D01*
X74792873Y-93500131D01*
X74775125Y-93520614D01*
X74767473Y-93525531D01*
X74749725Y-93546014D01*
X74742073Y-93550931D01*
X74724325Y-93571414D01*
X74716673Y-93576331D01*
X74698925Y-93596814D01*
X74691274Y-93601730D01*
X74682192Y-93612212D01*
X74622467Y-93650595D01*
X74614800Y-93652846D01*
X74597325Y-93673014D01*
X74589673Y-93677931D01*
X74571925Y-93698414D01*
X74564273Y-93703331D01*
X74546525Y-93723814D01*
X74538873Y-93728731D01*
X74521125Y-93749214D01*
X74513473Y-93754131D01*
X74495725Y-93774614D01*
X74488073Y-93779531D01*
X74470325Y-93800014D01*
X74462673Y-93804931D01*
X74444925Y-93825414D01*
X74437273Y-93830331D01*
X74419525Y-93850814D01*
X74411873Y-93855731D01*
X74394125Y-93876214D01*
X74386473Y-93881131D01*
X74368725Y-93901614D01*
X74361073Y-93906531D01*
X74343325Y-93927014D01*
X74335673Y-93931931D01*
X74317925Y-93952414D01*
X74310273Y-93957331D01*
X74292525Y-93977814D01*
X74284874Y-93982730D01*
X74275792Y-93993212D01*
X74216066Y-94031595D01*
X74198966Y-94036616D01*
X74127970Y-94036616D01*
X74123732Y-94034302D01*
X74110569Y-94031439D01*
X74054839Y-94003543D01*
X74031694Y-93983488D01*
X74026776Y-93975834D01*
X74006295Y-93958088D01*
X74001378Y-93950436D01*
X73980895Y-93932688D01*
X73975978Y-93925036D01*
X73955495Y-93907288D01*
X73950578Y-93899636D01*
X73930095Y-93881888D01*
X73925178Y-93874236D01*
X73904695Y-93856488D01*
X73899778Y-93848836D01*
X73879295Y-93831088D01*
X73874378Y-93823436D01*
X73853895Y-93805688D01*
X73848978Y-93798036D01*
X73828495Y-93780288D01*
X73823578Y-93772636D01*
X73803095Y-93754888D01*
X73798178Y-93747236D01*
X73777695Y-93729488D01*
X73772778Y-93721836D01*
X73752295Y-93704088D01*
X73747379Y-93696438D01*
X73715451Y-93668772D01*
X73673839Y-93647943D01*
X73650694Y-93627888D01*
X73645776Y-93620234D01*
X73625295Y-93602488D01*
X73620378Y-93594836D01*
X73599895Y-93577088D01*
X73594978Y-93569436D01*
X73574495Y-93551688D01*
X73569578Y-93544036D01*
X73549095Y-93526288D01*
X73544178Y-93518636D01*
X73523695Y-93500888D01*
X73518778Y-93493236D01*
X73498295Y-93475488D01*
X73493378Y-93467836D01*
X73472895Y-93450088D01*
X73467978Y-93442436D01*
X73447495Y-93424688D01*
X73442578Y-93417036D01*
X73422095Y-93399288D01*
X73417178Y-93391636D01*
X73396695Y-93373888D01*
X73391778Y-93366236D01*
X73371295Y-93348488D01*
X73366378Y-93340836D01*
X73345895Y-93323088D01*
X73340978Y-93315436D01*
X73320495Y-93297688D01*
X73315578Y-93290036D01*
X73295095Y-93272288D01*
X73290178Y-93264636D01*
X73269695Y-93246888D01*
X73264778Y-93239236D01*
X73244295Y-93221488D01*
X73239378Y-93213836D01*
X73218895Y-93196088D01*
X73213978Y-93188436D01*
X73193495Y-93170688D01*
X73188578Y-93163036D01*
X73168095Y-93145288D01*
X73163178Y-93137636D01*
X73142695Y-93119888D01*
X73137778Y-93112236D01*
X73117295Y-93094488D01*
X73112378Y-93086836D01*
X73091895Y-93069088D01*
X73086978Y-93061436D01*
X73066495Y-93043688D01*
X73061579Y-93036038D01*
X73029651Y-93008372D01*
X72988039Y-92987543D01*
X72964894Y-92967488D01*
X72959976Y-92959834D01*
X72939495Y-92942088D01*
X72934578Y-92934436D01*
X72914095Y-92916688D01*
X72909178Y-92909036D01*
X72888695Y-92891288D01*
X72883778Y-92883636D01*
X72863295Y-92865888D01*
X72858378Y-92858236D01*
X72837895Y-92840488D01*
X72832978Y-92832836D01*
X72812495Y-92815088D01*
X72807578Y-92807436D01*
X72787095Y-92789688D01*
X72782178Y-92782036D01*
X72761695Y-92764288D01*
X72756778Y-92756636D01*
X72736295Y-92738888D01*
X72731378Y-92731236D01*
X72710895Y-92713488D01*
X72705978Y-92705836D01*
X72685495Y-92688088D01*
X72680578Y-92680436D01*
X72660095Y-92662688D01*
X72655178Y-92655036D01*
X72634695Y-92637288D01*
X72629778Y-92629636D01*
X72609295Y-92611888D01*
X72604378Y-92604236D01*
X72583895Y-92586488D01*
X72578978Y-92578836D01*
X72558495Y-92561088D01*
X72553578Y-92553436D01*
X72533095Y-92535688D01*
X72528178Y-92528036D01*
X72507695Y-92510288D01*
X72502778Y-92502636D01*
X72482295Y-92484888D01*
X72477378Y-92477236D01*
X72456895Y-92459488D01*
X72451978Y-92451836D01*
X72431495Y-92434088D01*
X72426578Y-92426436D01*
X72406095Y-92408688D01*
X72401179Y-92401038D01*
X72369251Y-92373372D01*
X72327637Y-92352542D01*
X72314496Y-92341155D01*
X72276114Y-92281430D01*
X72273863Y-92273763D01*
X72253695Y-92256288D01*
X72248778Y-92248636D01*
X72228295Y-92230888D01*
X72223378Y-92223236D01*
X72202895Y-92205488D01*
X72197978Y-92197836D01*
X72177495Y-92180088D01*
X72172578Y-92172436D01*
X72152095Y-92154688D01*
X72147179Y-92147037D01*
X72136697Y-92137955D01*
X72098314Y-92078230D01*
X72096063Y-92070563D01*
X72075895Y-92053088D01*
X72070979Y-92045437D01*
X72060497Y-92036355D01*
X72022114Y-91976630D01*
X72019863Y-91968963D01*
X71999695Y-91951488D01*
X71994779Y-91943837D01*
X71984297Y-91934755D01*
X71945914Y-91875030D01*
X71939817Y-91854266D01*
X71920514Y-91824230D01*
X71914417Y-91803466D01*
X71895114Y-91773430D01*
X71892863Y-91765764D01*
X71882697Y-91756955D01*
X71844314Y-91697230D01*
X71838217Y-91676466D01*
X71818914Y-91646430D01*
X71809588Y-91614670D01*
X71802178Y-91603141D01*
X71801219Y-91596471D01*
X71784189Y-91538471D01*
X71776778Y-91526941D01*
X71775819Y-91520271D01*
X71758789Y-91462271D01*
X71751378Y-91450741D01*
X71746273Y-91415238D01*
X71746273Y-91404551D01*
X71733389Y-91360671D01*
X71725978Y-91349141D01*
X71720873Y-91313638D01*
X71720873Y-91252151D01*
X71707989Y-91208271D01*
X71700578Y-91196741D01*
X71695473Y-91161238D01*
X71695473Y-91023151D01*
X71715475Y-90955030D01*
X71718809Y-90950576D01*
X71720873Y-90941088D01*
X71720873Y-90845351D01*
X71740875Y-90777230D01*
X71744209Y-90772776D01*
X71746273Y-90763288D01*
X71746273Y-90718351D01*
X71766275Y-90650230D01*
X71769609Y-90645776D01*
X71774552Y-90623053D01*
X71777117Y-90623611D01*
X71791675Y-90574030D01*
X71795805Y-90568513D01*
X71820186Y-90519805D01*
X71820208Y-90519705D01*
X71845586Y-90469005D01*
X71845608Y-90468905D01*
X71873503Y-90413177D01*
X71876937Y-90409213D01*
X71897767Y-90367602D01*
X71927736Y-90333016D01*
X71948566Y-90291402D01*
X71968621Y-90268257D01*
X71976275Y-90263339D01*
X71994021Y-90242858D01*
X72001673Y-90237940D01*
X72040274Y-90193393D01*
X72055578Y-90183558D01*
X72070221Y-90166658D01*
X72077873Y-90161741D01*
X72095621Y-90141258D01*
X72103273Y-90136341D01*
X72121021Y-90115858D01*
X72128673Y-90110941D01*
X72146421Y-90090458D01*
X72154072Y-90085542D01*
X72163154Y-90075060D01*
X72222879Y-90036677D01*
X72243643Y-90030580D01*
X72273679Y-90011277D01*
X72294443Y-90005180D01*
X72324479Y-89985877D01*
X72345243Y-89979780D01*
X72375279Y-89960477D01*
X72396043Y-89954380D01*
X72426079Y-89935077D01*
X72457839Y-89925751D01*
X72469368Y-89918341D01*
X72476038Y-89917382D01*
X72534038Y-89900352D01*
X72545568Y-89892941D01*
X72552238Y-89891982D01*
X72610238Y-89874952D01*
X72621768Y-89867541D01*
X72657271Y-89862436D01*
X72693358Y-89862436D01*
X72737238Y-89849552D01*
X72748768Y-89842141D01*
X72784271Y-89837036D01*
X73150958Y-89837036D01*
X73219079Y-89857038D01*
G37*
%LPC*%
D13*
X65700000Y-42450000D03*
D14*
X73200000Y-73350000D03*
D15*
X73200000Y-70810000D03*
X73200000Y-68270000D03*
D16*
X148950000Y-42250000D03*
D17*
X119750000Y-43900000D03*
D16*
X154850000Y-69750000D03*
D14*
X76450000Y-84610000D03*
D15*
X76450000Y-82070000D03*
X76450000Y-79530000D03*
X76450000Y-76990000D03*
D18*
X96475000Y-104747000D03*
D15*
X96475000Y-107287000D03*
X96475000Y-109827000D03*
X96475000Y-112367000D03*
D19*
X111482000Y-92302000D03*
D20*
X108942000Y-92302000D03*
X106402000Y-92302000D03*
X103862000Y-92302000D03*
X101322000Y-92302000D03*
X98782000Y-92302000D03*
D21*
X151430000Y-108840000D03*
X138730000Y-108840000D03*
D22*
X148650000Y-106300000D03*
D23*
X147630000Y-104520000D03*
X146610000Y-106300000D03*
X145590000Y-104520000D03*
X144570000Y-106300000D03*
X143550000Y-104520000D03*
X142530000Y-106300000D03*
X141510000Y-104520000D03*
D24*
X153210000Y-105280000D03*
X136950000Y-105280000D03*
D21*
X131830000Y-108840000D03*
X119130000Y-108840000D03*
D22*
X129050000Y-106300000D03*
D23*
X128030000Y-104520000D03*
X127010000Y-106300000D03*
X125990000Y-104520000D03*
X124970000Y-106300000D03*
X123950000Y-104520000D03*
X122930000Y-106300000D03*
X121910000Y-104520000D03*
D24*
X133610000Y-105280000D03*
X117350000Y-105280000D03*
D14*
X66000000Y-92840000D03*
D15*
X66000000Y-90300000D03*
X66000000Y-87760000D03*
D14*
X73200000Y-50950000D03*
D15*
X73200000Y-48410000D03*
X73200000Y-45870000D03*
X73200000Y-43330000D03*
X73200000Y-40790000D03*
D14*
X66000000Y-75500000D03*
D15*
X66000000Y-72960000D03*
X66000000Y-70420000D03*
X66000000Y-67880000D03*
X66000000Y-65340000D03*
D14*
X80332000Y-62136000D03*
D15*
X80332000Y-59596000D03*
X80332000Y-57056000D03*
X80332000Y-54516000D03*
X80332000Y-51976000D03*
X80332000Y-49436000D03*
D25*
X129100000Y-110500000D03*
D26*
X129100000Y-113040000D03*
X126560000Y-110500000D03*
X126560000Y-113040000D03*
X124020000Y-110500000D03*
X124020000Y-113040000D03*
X121480000Y-110500000D03*
X121480000Y-113040000D03*
D25*
X148800000Y-110400000D03*
D26*
X148800000Y-112940000D03*
X146260000Y-110400000D03*
X146260000Y-112940000D03*
X143720000Y-110400000D03*
X143720000Y-112940000D03*
X141180000Y-110400000D03*
X141180000Y-112940000D03*
D27*
X90540000Y-109295000D03*
X84760000Y-109295000D03*
D28*
X91970000Y-112975000D03*
D29*
X91970000Y-108795000D03*
D28*
X83330000Y-112975000D03*
D29*
X83330000Y-108795000D03*
D19*
X158800000Y-100323000D03*
D20*
X156260000Y-100323000D03*
D13*
X157350000Y-42450000D03*
D14*
X73200000Y-64700000D03*
D15*
X73200000Y-62160000D03*
X73200000Y-59620000D03*
X73200000Y-57080000D03*
X73200000Y-54540000D03*
D13*
X65700000Y-111100000D03*
D16*
X154900000Y-59500000D03*
D14*
X66000000Y-84200000D03*
D15*
X66000000Y-81660000D03*
X66000000Y-79120000D03*
D16*
X149750000Y-88800000D03*
X155150000Y-50600000D03*
D13*
X157350000Y-111100000D03*
D16*
X155150000Y-79450000D03*
D27*
X78040000Y-109295000D03*
X72260000Y-109295000D03*
D29*
X79470000Y-108795000D03*
X70830000Y-108795000D03*
D28*
X70830000Y-112975000D03*
X79470000Y-112975000D03*
D17*
X127500000Y-43900000D03*
D14*
X66000000Y-101500000D03*
D15*
X66000000Y-98960000D03*
X66000000Y-96420000D03*
G36*
X148308020Y-68593907D02*
G01*
X148343984Y-68643407D01*
X148348822Y-68675165D01*
X148301151Y-72727165D01*
X148281561Y-72785129D01*
X148231641Y-72820508D01*
X148202158Y-72825000D01*
X139399000Y-72825000D01*
X139340809Y-72806093D01*
X139304845Y-72756593D01*
X139300000Y-72726000D01*
X139300000Y-68674000D01*
X139318907Y-68615809D01*
X139368407Y-68579845D01*
X139399000Y-68575000D01*
X148249829Y-68575000D01*
X148308020Y-68593907D01*
G37*
G36*
X137306418Y-56870917D02*
G01*
X137342382Y-56920417D01*
X137347227Y-56950893D01*
X137352026Y-61016364D01*
X137333187Y-61074577D01*
X137283730Y-61110599D01*
X137253803Y-61115478D01*
X133694144Y-61143408D01*
X133635806Y-61124958D01*
X133599455Y-61075741D01*
X133594367Y-61044346D01*
X133597045Y-56950945D01*
X133615990Y-56892767D01*
X133665514Y-56856835D01*
X133696045Y-56852010D01*
X137248227Y-56852010D01*
X137306418Y-56870917D01*
G37*
G36*
X146424845Y-57235445D02*
G01*
X146483009Y-57254435D01*
X146518902Y-57303986D01*
X146523697Y-57335610D01*
X146476027Y-61387612D01*
X146456437Y-61445576D01*
X146406517Y-61480955D01*
X146376892Y-61485447D01*
X139173858Y-61475141D01*
X139115695Y-61456150D01*
X139079802Y-61406599D01*
X139075000Y-61376141D01*
X139075000Y-57324141D01*
X139093907Y-57265950D01*
X139143407Y-57229986D01*
X139174141Y-57225141D01*
X146424845Y-57235445D01*
G37*
G36*
X138156418Y-67645917D02*
G01*
X138192382Y-67695417D01*
X138197227Y-67725893D01*
X138202026Y-71791364D01*
X138183187Y-71849577D01*
X138133730Y-71885599D01*
X138103803Y-71890478D01*
X134544144Y-71918408D01*
X134485806Y-71899958D01*
X134449455Y-71850741D01*
X134444367Y-71819346D01*
X134447045Y-67725945D01*
X134465990Y-67667767D01*
X134515514Y-67631835D01*
X134546045Y-67627010D01*
X138098227Y-67627010D01*
X138156418Y-67645917D01*
G37*
G36*
X137681418Y-77120917D02*
G01*
X137717382Y-77170417D01*
X137722227Y-77200893D01*
X137727026Y-81266364D01*
X137708187Y-81324577D01*
X137658730Y-81360599D01*
X137628803Y-81365478D01*
X134069144Y-81393408D01*
X134010806Y-81374958D01*
X133974455Y-81325741D01*
X133969367Y-81294346D01*
X133972045Y-77200945D01*
X133990990Y-77142767D01*
X134040514Y-77106835D01*
X134071045Y-77102010D01*
X137623227Y-77102010D01*
X137681418Y-77120917D01*
G37*
G36*
X138184308Y-40193907D02*
G01*
X138220272Y-40243407D01*
X138225117Y-40273883D01*
X138229916Y-44339354D01*
X138211077Y-44397567D01*
X138161620Y-44433589D01*
X138131693Y-44438468D01*
X134572034Y-44466398D01*
X134513696Y-44447948D01*
X134477345Y-44398731D01*
X134472257Y-44367336D01*
X134474935Y-40273935D01*
X134493880Y-40215757D01*
X134543404Y-40179825D01*
X134573935Y-40175000D01*
X138126117Y-40175000D01*
X138184308Y-40193907D01*
G37*
G36*
X148583121Y-76668907D02*
G01*
X148619085Y-76718407D01*
X148623924Y-76750064D01*
X148576053Y-81202064D01*
X148556521Y-81260049D01*
X148506638Y-81295478D01*
X148477059Y-81300000D01*
X139174000Y-81300000D01*
X139115809Y-81281093D01*
X139079845Y-81231593D01*
X139075000Y-81201000D01*
X139075000Y-76749000D01*
X139093907Y-76690809D01*
X139143407Y-76654845D01*
X139174000Y-76650000D01*
X148524930Y-76650000D01*
X148583121Y-76668907D01*
G37*
G36*
X145758121Y-40118907D02*
G01*
X145794085Y-40168407D01*
X145798924Y-40200064D01*
X145751053Y-44652064D01*
X145731521Y-44710049D01*
X145681638Y-44745478D01*
X145652059Y-44750000D01*
X139349000Y-44750000D01*
X139290809Y-44731093D01*
X139254845Y-44681593D01*
X139250000Y-44651000D01*
X139250000Y-40199000D01*
X139268907Y-40140809D01*
X139318407Y-40104845D01*
X139349000Y-40100000D01*
X145699930Y-40100000D01*
X145758121Y-40118907D01*
G37*
G36*
X137848230Y-85927007D02*
G01*
X137906420Y-85945916D01*
X137942383Y-85995417D01*
X137947227Y-86025890D01*
X137952026Y-90091322D01*
X137933187Y-90149535D01*
X137883730Y-90185557D01*
X137853760Y-90190436D01*
X134094101Y-90218320D01*
X134035772Y-90199845D01*
X133999442Y-90150613D01*
X133994367Y-90119258D01*
X133997045Y-86025817D01*
X134015990Y-85967639D01*
X134065514Y-85931707D01*
X134096048Y-85926882D01*
X137848230Y-85927007D01*
G37*
G36*
X137881418Y-48470917D02*
G01*
X137917382Y-48520417D01*
X137922227Y-48550893D01*
X137927026Y-52616364D01*
X137908187Y-52674577D01*
X137858730Y-52710599D01*
X137828803Y-52715478D01*
X134269144Y-52743408D01*
X134210806Y-52724958D01*
X134174455Y-52675741D01*
X134169367Y-52644346D01*
X134172045Y-48550945D01*
X134190990Y-48492767D01*
X134240514Y-48456835D01*
X134271045Y-48452010D01*
X137823227Y-48452010D01*
X137881418Y-48470917D01*
G37*
G36*
X146733121Y-85943907D02*
G01*
X146769085Y-85993407D01*
X146773924Y-86025064D01*
X146726053Y-90477064D01*
X146706521Y-90535049D01*
X146656638Y-90570478D01*
X146627059Y-90575000D01*
X139024000Y-90575000D01*
X138965809Y-90556093D01*
X138929845Y-90506593D01*
X138925000Y-90476000D01*
X138925000Y-86024000D01*
X138943907Y-85965809D01*
X138993407Y-85929845D01*
X139024000Y-85925000D01*
X146674930Y-85925000D01*
X146733121Y-85943907D01*
G37*
G36*
X146459191Y-48843907D02*
G01*
X146495155Y-48893407D01*
X146500000Y-48924000D01*
X146500000Y-53200626D01*
X146481093Y-53258817D01*
X146431593Y-53294781D01*
X146400626Y-53299625D01*
X139973626Y-53275372D01*
X139915507Y-53256246D01*
X139879731Y-53206610D01*
X139875000Y-53176373D01*
X139875000Y-48924000D01*
X139893907Y-48865809D01*
X139943407Y-48829845D01*
X139974000Y-48825000D01*
X146401000Y-48825000D01*
X146459191Y-48843907D01*
G37*
M02*
