%TF.GenerationSoftware,KiCad,Pcbnew,7.0.2-6a45011f42~172~ubuntu22.04.1*%
%TF.CreationDate,2023-05-09T17:28:01-07:00*%
%TF.ProjectId,RP2040_motor,52503230-3430-45f6-9d6f-746f722e6b69,REV1*%
%TF.SameCoordinates,Original*%
%TF.FileFunction,Drillmap*%
%TF.FilePolarity,Positive*%
%FSLAX45Y45*%
G04 Gerber Fmt 4.5, Leading zero omitted, Abs format (unit mm)*
G04 Created by KiCad (PCBNEW 7.0.2-6a45011f42~172~ubuntu22.04.1) date 2023-05-09 17:28:01*
%MOMM*%
%LPD*%
G01*
G04 APERTURE LIST*
%ADD10C,0.050000*%
%ADD11C,0.200000*%
%ADD12C,0.030000*%
%ADD13C,0.040000*%
%ADD14C,0.060000*%
%ADD15C,0.080000*%
%ADD16C,0.100000*%
%ADD17C,0.119000*%
%ADD18C,0.160000*%
%ADD19C,0.450000*%
G04 APERTURE END LIST*
D10*
X6390000Y-3140000D02*
G75*
G03*
X6215000Y-3315000I0J-175000D01*
G01*
X17625000Y-3315000D02*
G75*
G03*
X17450000Y-3140000I-175000J0D01*
G01*
X6215000Y-11290000D02*
X6215000Y-3315000D01*
X17450000Y-11465000D02*
X6390000Y-11465000D01*
X17450000Y-11465000D02*
G75*
G03*
X17625000Y-11290000I0J175000D01*
G01*
X17450000Y-3140000D02*
X6390000Y-3140000D01*
X6215000Y-11290000D02*
G75*
G03*
X6390000Y-11465000I175000J0D01*
G01*
X17625000Y-3315000D02*
X17625000Y-11290000D01*
D11*
D12*
X8283100Y-9425900D02*
X8313100Y-9455900D01*
X8313100Y-9425900D02*
X8283100Y-9455900D01*
X8283100Y-9553400D02*
X8313100Y-9583400D01*
X8313100Y-9553400D02*
X8283100Y-9583400D01*
X8283100Y-9680900D02*
X8313100Y-9710900D01*
X8313100Y-9680900D02*
X8283100Y-9710900D01*
X8410600Y-9425900D02*
X8440600Y-9455900D01*
X8440600Y-9425900D02*
X8410600Y-9455900D01*
X8410600Y-9553400D02*
X8440600Y-9583400D01*
X8440600Y-9553400D02*
X8410600Y-9583400D01*
X8410600Y-9680900D02*
X8440600Y-9710900D01*
X8440600Y-9680900D02*
X8410600Y-9710900D01*
X8467500Y-4140000D02*
X8497500Y-4170000D01*
X8497500Y-4140000D02*
X8467500Y-4170000D01*
X8467500Y-4270000D02*
X8497500Y-4300000D01*
X8497500Y-4270000D02*
X8467500Y-4300000D01*
X8538100Y-9425900D02*
X8568100Y-9455900D01*
X8568100Y-9425900D02*
X8538100Y-9455900D01*
X8538100Y-9553400D02*
X8568100Y-9583400D01*
X8568100Y-9553400D02*
X8538100Y-9583400D01*
X8538100Y-9680900D02*
X8568100Y-9710900D01*
X8568100Y-9680900D02*
X8538100Y-9710900D01*
X8567500Y-4140000D02*
X8597500Y-4170000D01*
X8597500Y-4140000D02*
X8567500Y-4170000D01*
X8567500Y-4270000D02*
X8597500Y-4300000D01*
X8597500Y-4270000D02*
X8567500Y-4300000D01*
X8667500Y-4140000D02*
X8697500Y-4170000D01*
X8697500Y-4140000D02*
X8667500Y-4170000D01*
X8667500Y-4270000D02*
X8697500Y-4300000D01*
X8697500Y-4270000D02*
X8667500Y-4300000D01*
X8986500Y-7247500D02*
X9016500Y-7277500D01*
X9016500Y-7247500D02*
X8986500Y-7277500D01*
X8986500Y-7375000D02*
X9016500Y-7405000D01*
X9016500Y-7375000D02*
X8986500Y-7405000D01*
X8986500Y-7502500D02*
X9016500Y-7532500D01*
X9016500Y-7502500D02*
X8986500Y-7532500D01*
X9114000Y-7247500D02*
X9144000Y-7277500D01*
X9144000Y-7247500D02*
X9114000Y-7277500D01*
X9114000Y-7375000D02*
X9144000Y-7405000D01*
X9144000Y-7375000D02*
X9114000Y-7405000D01*
X9114000Y-7502500D02*
X9144000Y-7532500D01*
X9144000Y-7502500D02*
X9114000Y-7532500D01*
X9241500Y-7247500D02*
X9271500Y-7277500D01*
X9271500Y-7247500D02*
X9241500Y-7277500D01*
X9241500Y-7375000D02*
X9271500Y-7405000D01*
X9271500Y-7375000D02*
X9241500Y-7405000D01*
X9241500Y-7502500D02*
X9271500Y-7532500D01*
X9271500Y-7502500D02*
X9241500Y-7532500D01*
D13*
X6360000Y-10792500D02*
G75*
G03*
X6360000Y-10792500I-20000J0D01*
G01*
X6386250Y-10393750D02*
G75*
G03*
X6386250Y-10393750I-20000J0D01*
G01*
X6400000Y-7080000D02*
G75*
G03*
X6400000Y-7080000I-20000J0D01*
G01*
X6496550Y-5695000D02*
G75*
G03*
X6496550Y-5695000I-20000J0D01*
G01*
X6517500Y-7275000D02*
G75*
G03*
X6517500Y-7275000I-20000J0D01*
G01*
X6711104Y-5547174D02*
G75*
G03*
X6711104Y-5547174I-20000J0D01*
G01*
X6720000Y-5670000D02*
G75*
G03*
X6720000Y-5670000I-20000J0D01*
G01*
X6740050Y-5835000D02*
G75*
G03*
X6740050Y-5835000I-20000J0D01*
G01*
X6770000Y-9200000D02*
G75*
G03*
X6770000Y-9200000I-20000J0D01*
G01*
X6810000Y-5470000D02*
G75*
G03*
X6810000Y-5470000I-20000J0D01*
G01*
X6830000Y-9060000D02*
G75*
G03*
X6830000Y-9060000I-20000J0D01*
G01*
X6840000Y-8680000D02*
G75*
G03*
X6840000Y-8680000I-20000J0D01*
G01*
X6905000Y-10072500D02*
G75*
G03*
X6905000Y-10072500I-20000J0D01*
G01*
X6960000Y-5270000D02*
G75*
G03*
X6960000Y-5270000I-20000J0D01*
G01*
X6970000Y-5480000D02*
G75*
G03*
X6970000Y-5480000I-20000J0D01*
G01*
X6997500Y-3380000D02*
G75*
G03*
X6997500Y-3380000I-20000J0D01*
G01*
X7005000Y-4605000D02*
G75*
G03*
X7005000Y-4605000I-20000J0D01*
G01*
X7010000Y-8280000D02*
G75*
G03*
X7010000Y-8280000I-20000J0D01*
G01*
X7010000Y-9090000D02*
G75*
G03*
X7010000Y-9090000I-20000J0D01*
G01*
X7010000Y-9250000D02*
G75*
G03*
X7010000Y-9250000I-20000J0D01*
G01*
X7010000Y-9480000D02*
G75*
G03*
X7010000Y-9480000I-20000J0D01*
G01*
X7015000Y-7625000D02*
G75*
G03*
X7015000Y-7625000I-20000J0D01*
G01*
X7019000Y-7851000D02*
G75*
G03*
X7019000Y-7851000I-20000J0D01*
G01*
X7020000Y-9820000D02*
G75*
G03*
X7020000Y-9820000I-20000J0D01*
G01*
X7020755Y-3581318D02*
G75*
G03*
X7020755Y-3581318I-20000J0D01*
G01*
X7035000Y-7330000D02*
G75*
G03*
X7035000Y-7330000I-20000J0D01*
G01*
X7142500Y-8090000D02*
G75*
G03*
X7142500Y-8090000I-20000J0D01*
G01*
X7162728Y-7358803D02*
G75*
G03*
X7162728Y-7358803I-20000J0D01*
G01*
X7170000Y-9820000D02*
G75*
G03*
X7170000Y-9820000I-20000J0D01*
G01*
X7255000Y-10420000D02*
G75*
G03*
X7255000Y-10420000I-20000J0D01*
G01*
X7288932Y-8882267D02*
G75*
G03*
X7288932Y-8882267I-20000J0D01*
G01*
X7300000Y-8540000D02*
G75*
G03*
X7300000Y-8540000I-20000J0D01*
G01*
X7320000Y-8210000D02*
G75*
G03*
X7320000Y-8210000I-20000J0D01*
G01*
X7340000Y-9830000D02*
G75*
G03*
X7340000Y-9830000I-20000J0D01*
G01*
X7401964Y-3736964D02*
G75*
G03*
X7401964Y-3736964I-20000J0D01*
G01*
X7415000Y-8210000D02*
G75*
G03*
X7415000Y-8210000I-20000J0D01*
G01*
X7423962Y-9936038D02*
G75*
G03*
X7423962Y-9936038I-20000J0D01*
G01*
X7430000Y-9100000D02*
G75*
G03*
X7430000Y-9100000I-20000J0D01*
G01*
X7451600Y-8701600D02*
G75*
G03*
X7451600Y-8701600I-20000J0D01*
G01*
X7500000Y-3550000D02*
G75*
G03*
X7500000Y-3550000I-20000J0D01*
G01*
X7506250Y-10936250D02*
G75*
G03*
X7506250Y-10936250I-20000J0D01*
G01*
X7522604Y-9959193D02*
G75*
G03*
X7522604Y-9959193I-20000J0D01*
G01*
X7540528Y-3392608D02*
G75*
G03*
X7540528Y-3392608I-20000J0D01*
G01*
X7580000Y-6100000D02*
G75*
G03*
X7580000Y-6100000I-20000J0D01*
G01*
X7592554Y-9295000D02*
G75*
G03*
X7592554Y-9295000I-20000J0D01*
G01*
X7607500Y-3255000D02*
G75*
G03*
X7607500Y-3255000I-20000J0D01*
G01*
X7610000Y-7330000D02*
G75*
G03*
X7610000Y-7330000I-20000J0D01*
G01*
X7625000Y-7077500D02*
G75*
G03*
X7625000Y-7077500I-20000J0D01*
G01*
X7635552Y-9095807D02*
G75*
G03*
X7635552Y-9095807I-20000J0D01*
G01*
X7635707Y-9195757D02*
G75*
G03*
X7635707Y-9195757I-20000J0D01*
G01*
X7638226Y-10467150D02*
G75*
G03*
X7638226Y-10467150I-20000J0D01*
G01*
X7644653Y-10180147D02*
G75*
G03*
X7644653Y-10180147I-20000J0D01*
G01*
X7662786Y-10936338D02*
G75*
G03*
X7662786Y-10936338I-20000J0D01*
G01*
X7672524Y-9706983D02*
G75*
G03*
X7672524Y-9706983I-20000J0D01*
G01*
X7685170Y-8534065D02*
G75*
G03*
X7685170Y-8534065I-20000J0D01*
G01*
X7720000Y-5580000D02*
G75*
G03*
X7720000Y-5580000I-20000J0D01*
G01*
X7724758Y-8250229D02*
G75*
G03*
X7724758Y-8250229I-20000J0D01*
G01*
X7730000Y-7520000D02*
G75*
G03*
X7730000Y-7520000I-20000J0D01*
G01*
X7730000Y-9330000D02*
G75*
G03*
X7730000Y-9330000I-20000J0D01*
G01*
X7742504Y-9967012D02*
G75*
G03*
X7742504Y-9967012I-20000J0D01*
G01*
X7804628Y-8190138D02*
G75*
G03*
X7804628Y-8190138I-20000J0D01*
G01*
X7840000Y-7884950D02*
G75*
G03*
X7840000Y-7884950I-20000J0D01*
G01*
X7840000Y-9945000D02*
G75*
G03*
X7840000Y-9945000I-20000J0D01*
G01*
X7842121Y-6259580D02*
G75*
G03*
X7842121Y-6259580I-20000J0D01*
G01*
X7846373Y-10352182D02*
G75*
G03*
X7846373Y-10352182I-20000J0D01*
G01*
X7850607Y-5109627D02*
G75*
G03*
X7850607Y-5109627I-20000J0D01*
G01*
X7850747Y-5432422D02*
G75*
G03*
X7850747Y-5432422I-20000J0D01*
G01*
X7854115Y-6437958D02*
G75*
G03*
X7854115Y-6437958I-20000J0D01*
G01*
X7854535Y-6757816D02*
G75*
G03*
X7854535Y-6757816I-20000J0D01*
G01*
X7855503Y-9144447D02*
G75*
G03*
X7855503Y-9144447I-20000J0D01*
G01*
X7875000Y-8870000D02*
G75*
G03*
X7875000Y-8870000I-20000J0D01*
G01*
X7880000Y-4730000D02*
G75*
G03*
X7880000Y-4730000I-20000J0D01*
G01*
X7905000Y-9842200D02*
G75*
G03*
X7905000Y-9842200I-20000J0D01*
G01*
X7920000Y-4300000D02*
G75*
G03*
X7920000Y-4300000I-20000J0D01*
G01*
X7920000Y-4400000D02*
G75*
G03*
X7920000Y-4400000I-20000J0D01*
G01*
X7920000Y-4500000D02*
G75*
G03*
X7920000Y-4500000I-20000J0D01*
G01*
X7925050Y-8250992D02*
G75*
G03*
X7925050Y-8250992I-20000J0D01*
G01*
X7925767Y-8783903D02*
G75*
G03*
X7925767Y-8783903I-20000J0D01*
G01*
X7955000Y-10499900D02*
G75*
G03*
X7955000Y-10499900I-20000J0D01*
G01*
X7968594Y-9765091D02*
G75*
G03*
X7968594Y-9765091I-20000J0D01*
G01*
X7978877Y-7992691D02*
G75*
G03*
X7978877Y-7992691I-20000J0D01*
G01*
X7990000Y-10200000D02*
G75*
G03*
X7990000Y-10200000I-20000J0D01*
G01*
X7998612Y-7011779D02*
G75*
G03*
X7998612Y-7011779I-20000J0D01*
G01*
X7998949Y-5090303D02*
G75*
G03*
X7998949Y-5090303I-20000J0D01*
G01*
X8000000Y-5360000D02*
G75*
G03*
X8000000Y-5360000I-20000J0D01*
G01*
X8005000Y-9865000D02*
G75*
G03*
X8005000Y-9865000I-20000J0D01*
G01*
X8010000Y-8730000D02*
G75*
G03*
X8010000Y-8730000I-20000J0D01*
G01*
X8012485Y-5636655D02*
G75*
G03*
X8012485Y-5636655I-20000J0D01*
G01*
X8020000Y-4300000D02*
G75*
G03*
X8020000Y-4300000I-20000J0D01*
G01*
X8020000Y-4400000D02*
G75*
G03*
X8020000Y-4400000I-20000J0D01*
G01*
X8020000Y-4500000D02*
G75*
G03*
X8020000Y-4500000I-20000J0D01*
G01*
X8020000Y-6630000D02*
G75*
G03*
X8020000Y-6630000I-20000J0D01*
G01*
X8037887Y-6353881D02*
G75*
G03*
X8037887Y-6353881I-20000J0D01*
G01*
X8044699Y-4940602D02*
G75*
G03*
X8044699Y-4940602I-20000J0D01*
G01*
X8077028Y-9152442D02*
G75*
G03*
X8077028Y-9152442I-20000J0D01*
G01*
X8080000Y-10620000D02*
G75*
G03*
X8080000Y-10620000I-20000J0D01*
G01*
X8091104Y-7071396D02*
G75*
G03*
X8091104Y-7071396I-20000J0D01*
G01*
X8092500Y-5769950D02*
G75*
G03*
X8092500Y-5769950I-20000J0D01*
G01*
X8109103Y-8979676D02*
G75*
G03*
X8109103Y-8979676I-20000J0D01*
G01*
X8109950Y-6750000D02*
G75*
G03*
X8109950Y-6750000I-20000J0D01*
G01*
X8119389Y-7725118D02*
G75*
G03*
X8119389Y-7725118I-20000J0D01*
G01*
X8120000Y-3300000D02*
G75*
G03*
X8120000Y-3300000I-20000J0D01*
G01*
X8120000Y-3400000D02*
G75*
G03*
X8120000Y-3400000I-20000J0D01*
G01*
X8120000Y-4300000D02*
G75*
G03*
X8120000Y-4300000I-20000J0D01*
G01*
X8120000Y-4400000D02*
G75*
G03*
X8120000Y-4400000I-20000J0D01*
G01*
X8120000Y-4500000D02*
G75*
G03*
X8120000Y-4500000I-20000J0D01*
G01*
X8129822Y-7353261D02*
G75*
G03*
X8129822Y-7353261I-20000J0D01*
G01*
X8131187Y-9238450D02*
G75*
G03*
X8131187Y-9238450I-20000J0D01*
G01*
X8135000Y-4155000D02*
G75*
G03*
X8135000Y-4155000I-20000J0D01*
G01*
X8145000Y-9072958D02*
G75*
G03*
X8145000Y-9072958I-20000J0D01*
G01*
X8148387Y-5876263D02*
G75*
G03*
X8148387Y-5876263I-20000J0D01*
G01*
X8160000Y-10240000D02*
G75*
G03*
X8160000Y-10240000I-20000J0D01*
G01*
X8163824Y-7213542D02*
G75*
G03*
X8163824Y-7213542I-20000J0D01*
G01*
X8200000Y-7570000D02*
G75*
G03*
X8200000Y-7570000I-20000J0D01*
G01*
X8201536Y-5742450D02*
G75*
G03*
X8201536Y-5742450I-20000J0D01*
G01*
X8205000Y-6330000D02*
G75*
G03*
X8205000Y-6330000I-20000J0D01*
G01*
X8206056Y-8516056D02*
G75*
G03*
X8206056Y-8516056I-20000J0D01*
G01*
X8209547Y-9809397D02*
G75*
G03*
X8209547Y-9809397I-20000J0D01*
G01*
X8220000Y-3300000D02*
G75*
G03*
X8220000Y-3300000I-20000J0D01*
G01*
X8220000Y-3400000D02*
G75*
G03*
X8220000Y-3400000I-20000J0D01*
G01*
X8220000Y-3900000D02*
G75*
G03*
X8220000Y-3900000I-20000J0D01*
G01*
X8220000Y-4300000D02*
G75*
G03*
X8220000Y-4300000I-20000J0D01*
G01*
X8220000Y-4400000D02*
G75*
G03*
X8220000Y-4400000I-20000J0D01*
G01*
X8220000Y-4500000D02*
G75*
G03*
X8220000Y-4500000I-20000J0D01*
G01*
X8244855Y-9092634D02*
G75*
G03*
X8244855Y-9092634I-20000J0D01*
G01*
X8249137Y-7265688D02*
G75*
G03*
X8249137Y-7265688I-20000J0D01*
G01*
X8285538Y-7445538D02*
G75*
G03*
X8285538Y-7445538I-20000J0D01*
G01*
X8289081Y-8320869D02*
G75*
G03*
X8289081Y-8320869I-20000J0D01*
G01*
X8290050Y-5795000D02*
G75*
G03*
X8290050Y-5795000I-20000J0D01*
G01*
X8327906Y-8705050D02*
G75*
G03*
X8327906Y-8705050I-20000J0D01*
G01*
X8362550Y-6845000D02*
G75*
G03*
X8362550Y-6845000I-20000J0D01*
G01*
X8365000Y-7985000D02*
G75*
G03*
X8365000Y-7985000I-20000J0D01*
G01*
X8367908Y-7147063D02*
G75*
G03*
X8367908Y-7147063I-20000J0D01*
G01*
X8380050Y-6632500D02*
G75*
G03*
X8380050Y-6632500I-20000J0D01*
G01*
X8385050Y-10327151D02*
G75*
G03*
X8385050Y-10327151I-20000J0D01*
G01*
X8390000Y-7815000D02*
G75*
G03*
X8390000Y-7815000I-20000J0D01*
G01*
X8408790Y-8320440D02*
G75*
G03*
X8408790Y-8320440I-20000J0D01*
G01*
X8434113Y-10210000D02*
G75*
G03*
X8434113Y-10210000I-20000J0D01*
G01*
X8437049Y-5629125D02*
G75*
G03*
X8437049Y-5629125I-20000J0D01*
G01*
X8440050Y-7019003D02*
G75*
G03*
X8440050Y-7019003I-20000J0D01*
G01*
X8448509Y-8655318D02*
G75*
G03*
X8448509Y-8655318I-20000J0D01*
G01*
X8469950Y-5740000D02*
G75*
G03*
X8469950Y-5740000I-20000J0D01*
G01*
X8469950Y-5839950D02*
G75*
G03*
X8469950Y-5839950I-20000J0D01*
G01*
X8485000Y-10380000D02*
G75*
G03*
X8485000Y-10380000I-20000J0D01*
G01*
X8504606Y-9020780D02*
G75*
G03*
X8504606Y-9020780I-20000J0D01*
G01*
X8512746Y-7612746D02*
G75*
G03*
X8512746Y-7612746I-20000J0D01*
G01*
X8595398Y-8978986D02*
G75*
G03*
X8595398Y-8978986I-20000J0D01*
G01*
X8620000Y-7609950D02*
G75*
G03*
X8620000Y-7609950I-20000J0D01*
G01*
X8625000Y-6255000D02*
G75*
G03*
X8625000Y-6255000I-20000J0D01*
G01*
X8628126Y-8599950D02*
G75*
G03*
X8628126Y-8599950I-20000J0D01*
G01*
X8640000Y-3620000D02*
G75*
G03*
X8640000Y-3620000I-20000J0D01*
G01*
X8655297Y-10049156D02*
G75*
G03*
X8655297Y-10049156I-20000J0D01*
G01*
X8677450Y-6805000D02*
G75*
G03*
X8677450Y-6805000I-20000J0D01*
G01*
X8677940Y-9035349D02*
G75*
G03*
X8677940Y-9035349I-20000J0D01*
G01*
X8680000Y-7090000D02*
G75*
G03*
X8680000Y-7090000I-20000J0D01*
G01*
X8680000Y-8160050D02*
G75*
G03*
X8680000Y-8160050I-20000J0D01*
G01*
X8700000Y-3540000D02*
G75*
G03*
X8700000Y-3540000I-20000J0D01*
G01*
X8715000Y-4750000D02*
G75*
G03*
X8715000Y-4750000I-20000J0D01*
G01*
X8719800Y-10419136D02*
G75*
G03*
X8719800Y-10419136I-20000J0D01*
G01*
X8760000Y-3660000D02*
G75*
G03*
X8760000Y-3660000I-20000J0D01*
G01*
X8780000Y-8140000D02*
G75*
G03*
X8780000Y-8140000I-20000J0D01*
G01*
X8795000Y-10992500D02*
G75*
G03*
X8795000Y-10992500I-20000J0D01*
G01*
X8805081Y-8000813D02*
G75*
G03*
X8805081Y-8000813I-20000J0D01*
G01*
X8820000Y-3580000D02*
G75*
G03*
X8820000Y-3580000I-20000J0D01*
G01*
X8820000Y-7740000D02*
G75*
G03*
X8820000Y-7740000I-20000J0D01*
G01*
X8841191Y-9101555D02*
G75*
G03*
X8841191Y-9101555I-20000J0D01*
G01*
X8855242Y-8612974D02*
G75*
G03*
X8855242Y-8612974I-20000J0D01*
G01*
X8870000Y-6020000D02*
G75*
G03*
X8870000Y-6020000I-20000J0D01*
G01*
X8878042Y-6166339D02*
G75*
G03*
X8878042Y-6166339I-20000J0D01*
G01*
X8885000Y-10239186D02*
G75*
G03*
X8885000Y-10239186I-20000J0D01*
G01*
X8890000Y-6290000D02*
G75*
G03*
X8890000Y-6290000I-20000J0D01*
G01*
X8903550Y-10499642D02*
G75*
G03*
X8903550Y-10499642I-20000J0D01*
G01*
X8920000Y-3300000D02*
G75*
G03*
X8920000Y-3300000I-20000J0D01*
G01*
X8920000Y-7180000D02*
G75*
G03*
X8920000Y-7180000I-20000J0D01*
G01*
X8920000Y-8809950D02*
G75*
G03*
X8920000Y-8809950I-20000J0D01*
G01*
X8920000Y-9025000D02*
G75*
G03*
X8920000Y-9025000I-20000J0D01*
G01*
X8925000Y-10992500D02*
G75*
G03*
X8925000Y-10992500I-20000J0D01*
G01*
X8932439Y-9759676D02*
G75*
G03*
X8932439Y-9759676I-20000J0D01*
G01*
X8940000Y-8560000D02*
G75*
G03*
X8940000Y-8560000I-20000J0D01*
G01*
X8960000Y-6640000D02*
G75*
G03*
X8960000Y-6640000I-20000J0D01*
G01*
X8980000Y-5500000D02*
G75*
G03*
X8980000Y-5500000I-20000J0D01*
G01*
X9010000Y-9075000D02*
G75*
G03*
X9010000Y-9075000I-20000J0D01*
G01*
X9010240Y-9696930D02*
G75*
G03*
X9010240Y-9696930I-20000J0D01*
G01*
X9020000Y-3300000D02*
G75*
G03*
X9020000Y-3300000I-20000J0D01*
G01*
X9029000Y-4385500D02*
G75*
G03*
X9029000Y-4385500I-20000J0D01*
G01*
X9040000Y-8590000D02*
G75*
G03*
X9040000Y-8590000I-20000J0D01*
G01*
X9060000Y-8410000D02*
G75*
G03*
X9060000Y-8410000I-20000J0D01*
G01*
X9120000Y-3300000D02*
G75*
G03*
X9120000Y-3300000I-20000J0D01*
G01*
X9120000Y-4760000D02*
G75*
G03*
X9120000Y-4760000I-20000J0D01*
G01*
X9180000Y-5965000D02*
G75*
G03*
X9180000Y-5965000I-20000J0D01*
G01*
X9192167Y-8138233D02*
G75*
G03*
X9192167Y-8138233I-20000J0D01*
G01*
X9200000Y-5620000D02*
G75*
G03*
X9200000Y-5620000I-20000J0D01*
G01*
X9209000Y-7991000D02*
G75*
G03*
X9209000Y-7991000I-20000J0D01*
G01*
X9215915Y-10131114D02*
G75*
G03*
X9215915Y-10131114I-20000J0D01*
G01*
X9220000Y-3300000D02*
G75*
G03*
X9220000Y-3300000I-20000J0D01*
G01*
X9220000Y-3400000D02*
G75*
G03*
X9220000Y-3400000I-20000J0D01*
G01*
X9220000Y-6425000D02*
G75*
G03*
X9220000Y-6425000I-20000J0D01*
G01*
X9234622Y-10271064D02*
G75*
G03*
X9234622Y-10271064I-20000J0D01*
G01*
X9300000Y-5227450D02*
G75*
G03*
X9300000Y-5227450I-20000J0D01*
G01*
X9320000Y-3300000D02*
G75*
G03*
X9320000Y-3300000I-20000J0D01*
G01*
X9320000Y-3400000D02*
G75*
G03*
X9320000Y-3400000I-20000J0D01*
G01*
X9320000Y-4200000D02*
G75*
G03*
X9320000Y-4200000I-20000J0D01*
G01*
X9320000Y-4300000D02*
G75*
G03*
X9320000Y-4300000I-20000J0D01*
G01*
X9320000Y-4400000D02*
G75*
G03*
X9320000Y-4400000I-20000J0D01*
G01*
X9320000Y-4500000D02*
G75*
G03*
X9320000Y-4500000I-20000J0D01*
G01*
X9320000Y-4600000D02*
G75*
G03*
X9320000Y-4600000I-20000J0D01*
G01*
X9320000Y-6600000D02*
G75*
G03*
X9320000Y-6600000I-20000J0D01*
G01*
X9330000Y-6425000D02*
G75*
G03*
X9330000Y-6425000I-20000J0D01*
G01*
X9360000Y-5620000D02*
G75*
G03*
X9360000Y-5620000I-20000J0D01*
G01*
X9390000Y-9840000D02*
G75*
G03*
X9390000Y-9840000I-20000J0D01*
G01*
X9410756Y-10272382D02*
G75*
G03*
X9410756Y-10272382I-20000J0D01*
G01*
X9420000Y-3300000D02*
G75*
G03*
X9420000Y-3300000I-20000J0D01*
G01*
X9420000Y-3400000D02*
G75*
G03*
X9420000Y-3400000I-20000J0D01*
G01*
X9422500Y-5779950D02*
G75*
G03*
X9422500Y-5779950I-20000J0D01*
G01*
X9444710Y-9220197D02*
G75*
G03*
X9444710Y-9220197I-20000J0D01*
G01*
X9449764Y-8478389D02*
G75*
G03*
X9449764Y-8478389I-20000J0D01*
G01*
X9467500Y-8595050D02*
G75*
G03*
X9467500Y-8595050I-20000J0D01*
G01*
X9467500Y-8695000D02*
G75*
G03*
X9467500Y-8695000I-20000J0D01*
G01*
X9485000Y-6565000D02*
G75*
G03*
X9485000Y-6565000I-20000J0D01*
G01*
X9490000Y-6430000D02*
G75*
G03*
X9490000Y-6430000I-20000J0D01*
G01*
X9500000Y-5360000D02*
G75*
G03*
X9500000Y-5360000I-20000J0D01*
G01*
X9510000Y-7047550D02*
G75*
G03*
X9510000Y-7047550I-20000J0D01*
G01*
X9515000Y-10245000D02*
G75*
G03*
X9515000Y-10245000I-20000J0D01*
G01*
X9520000Y-3300000D02*
G75*
G03*
X9520000Y-3300000I-20000J0D01*
G01*
X9520000Y-3400000D02*
G75*
G03*
X9520000Y-3400000I-20000J0D01*
G01*
X9530000Y-5960000D02*
G75*
G03*
X9530000Y-5960000I-20000J0D01*
G01*
X9540000Y-3855000D02*
G75*
G03*
X9540000Y-3855000I-20000J0D01*
G01*
X9540000Y-5780000D02*
G75*
G03*
X9540000Y-5780000I-20000J0D01*
G01*
X9550000Y-6250000D02*
G75*
G03*
X9550000Y-6250000I-20000J0D01*
G01*
X9570000Y-7720000D02*
G75*
G03*
X9570000Y-7720000I-20000J0D01*
G01*
X9577274Y-6973630D02*
G75*
G03*
X9577274Y-6973630I-20000J0D01*
G01*
X9581250Y-8082811D02*
G75*
G03*
X9581250Y-8082811I-20000J0D01*
G01*
X9614754Y-10305247D02*
G75*
G03*
X9614754Y-10305247I-20000J0D01*
G01*
X9620000Y-3300000D02*
G75*
G03*
X9620000Y-3300000I-20000J0D01*
G01*
X9620000Y-3400000D02*
G75*
G03*
X9620000Y-3400000I-20000J0D01*
G01*
X9625000Y-10454950D02*
G75*
G03*
X9625000Y-10454950I-20000J0D01*
G01*
X9634000Y-4720000D02*
G75*
G03*
X9634000Y-4720000I-20000J0D01*
G01*
X9640000Y-5360000D02*
G75*
G03*
X9640000Y-5360000I-20000J0D01*
G01*
X9640000Y-5780000D02*
G75*
G03*
X9640000Y-5780000I-20000J0D01*
G01*
X9671450Y-5574653D02*
G75*
G03*
X9671450Y-5574653I-20000J0D01*
G01*
X9671937Y-8355513D02*
G75*
G03*
X9671937Y-8355513I-20000J0D01*
G01*
X9672500Y-7960000D02*
G75*
G03*
X9672500Y-7960000I-20000J0D01*
G01*
X9672500Y-9767500D02*
G75*
G03*
X9672500Y-9767500I-20000J0D01*
G01*
X9687450Y-8700050D02*
G75*
G03*
X9687450Y-8700050I-20000J0D01*
G01*
X9720000Y-3300000D02*
G75*
G03*
X9720000Y-3300000I-20000J0D01*
G01*
X9720000Y-3400000D02*
G75*
G03*
X9720000Y-3400000I-20000J0D01*
G01*
X9735313Y-10784950D02*
G75*
G03*
X9735313Y-10784950I-20000J0D01*
G01*
X9737293Y-5802892D02*
G75*
G03*
X9737293Y-5802892I-20000J0D01*
G01*
X9787400Y-8700050D02*
G75*
G03*
X9787400Y-8700050I-20000J0D01*
G01*
X9800000Y-5090000D02*
G75*
G03*
X9800000Y-5090000I-20000J0D01*
G01*
X9802450Y-8263868D02*
G75*
G03*
X9802450Y-8263868I-20000J0D01*
G01*
X9816696Y-8599380D02*
G75*
G03*
X9816696Y-8599380I-20000J0D01*
G01*
X9820000Y-7260050D02*
G75*
G03*
X9820000Y-7260050I-20000J0D01*
G01*
X9855330Y-8348684D02*
G75*
G03*
X9855330Y-8348684I-20000J0D01*
G01*
X9880000Y-5380000D02*
G75*
G03*
X9880000Y-5380000I-20000J0D01*
G01*
X9900000Y-3380000D02*
G75*
G03*
X9900000Y-3380000I-20000J0D01*
G01*
X9910897Y-8045050D02*
G75*
G03*
X9910897Y-8045050I-20000J0D01*
G01*
X9917500Y-9557500D02*
G75*
G03*
X9917500Y-9557500I-20000J0D01*
G01*
X9960000Y-8960000D02*
G75*
G03*
X9960000Y-8960000I-20000J0D01*
G01*
X9970000Y-4120000D02*
G75*
G03*
X9970000Y-4120000I-20000J0D01*
G01*
X9970000Y-5450000D02*
G75*
G03*
X9970000Y-5450000I-20000J0D01*
G01*
X9971962Y-9946962D02*
G75*
G03*
X9971962Y-9946962I-20000J0D01*
G01*
X9980000Y-4440000D02*
G75*
G03*
X9980000Y-4440000I-20000J0D01*
G01*
X10000000Y-4830000D02*
G75*
G03*
X10000000Y-4830000I-20000J0D01*
G01*
X10010000Y-3380000D02*
G75*
G03*
X10010000Y-3380000I-20000J0D01*
G01*
X10015000Y-8370000D02*
G75*
G03*
X10015000Y-8370000I-20000J0D01*
G01*
X10047984Y-7393477D02*
G75*
G03*
X10047984Y-7393477I-20000J0D01*
G01*
X10061962Y-10277550D02*
G75*
G03*
X10061962Y-10277550I-20000J0D01*
G01*
X10110000Y-6189950D02*
G75*
G03*
X10110000Y-6189950I-20000J0D01*
G01*
X10140000Y-7320000D02*
G75*
G03*
X10140000Y-7320000I-20000J0D01*
G01*
X10159950Y-6960050D02*
G75*
G03*
X10159950Y-6960050I-20000J0D01*
G01*
X10160000Y-3380000D02*
G75*
G03*
X10160000Y-3380000I-20000J0D01*
G01*
X10161821Y-3879780D02*
G75*
G03*
X10161821Y-3879780I-20000J0D01*
G01*
X10171962Y-5636962D02*
G75*
G03*
X10171962Y-5636962I-20000J0D01*
G01*
X10204117Y-5514988D02*
G75*
G03*
X10204117Y-5514988I-20000J0D01*
G01*
X10216776Y-3220050D02*
G75*
G03*
X10216776Y-3220050I-20000J0D01*
G01*
X10220050Y-6740000D02*
G75*
G03*
X10220050Y-6740000I-20000J0D01*
G01*
X10227202Y-6539292D02*
G75*
G03*
X10227202Y-6539292I-20000J0D01*
G01*
X10227500Y-7102500D02*
G75*
G03*
X10227500Y-7102500I-20000J0D01*
G01*
X10249950Y-6020000D02*
G75*
G03*
X10249950Y-6020000I-20000J0D01*
G01*
X10259900Y-6920050D02*
G75*
G03*
X10259900Y-6920050I-20000J0D01*
G01*
X10280000Y-4386000D02*
G75*
G03*
X10280000Y-4386000I-20000J0D01*
G01*
X10280000Y-9090000D02*
G75*
G03*
X10280000Y-9090000I-20000J0D01*
G01*
X10290000Y-11330000D02*
G75*
G03*
X10290000Y-11330000I-20000J0D01*
G01*
X10315000Y-4555000D02*
G75*
G03*
X10315000Y-4555000I-20000J0D01*
G01*
X10330000Y-3870000D02*
G75*
G03*
X10330000Y-3870000I-20000J0D01*
G01*
X10340000Y-5930000D02*
G75*
G03*
X10340000Y-5930000I-20000J0D01*
G01*
X10340442Y-5830051D02*
G75*
G03*
X10340442Y-5830051I-20000J0D01*
G01*
X10350000Y-8920000D02*
G75*
G03*
X10350000Y-8920000I-20000J0D01*
G01*
X10359950Y-8004065D02*
G75*
G03*
X10359950Y-8004065I-20000J0D01*
G01*
X10375000Y-5005000D02*
G75*
G03*
X10375000Y-5005000I-20000J0D01*
G01*
X10420000Y-7147500D02*
G75*
G03*
X10420000Y-7147500I-20000J0D01*
G01*
X10440000Y-3960000D02*
G75*
G03*
X10440000Y-3960000I-20000J0D01*
G01*
X10450000Y-8220050D02*
G75*
G03*
X10450000Y-8220050I-20000J0D01*
G01*
X10460000Y-6115000D02*
G75*
G03*
X10460000Y-6115000I-20000J0D01*
G01*
X10470450Y-6679097D02*
G75*
G03*
X10470450Y-6679097I-20000J0D01*
G01*
X10474550Y-6819047D02*
G75*
G03*
X10474550Y-6819047I-20000J0D01*
G01*
X10478881Y-5512974D02*
G75*
G03*
X10478881Y-5512974I-20000J0D01*
G01*
X10499827Y-7799934D02*
G75*
G03*
X10499827Y-7799934I-20000J0D01*
G01*
X10505000Y-9595000D02*
G75*
G03*
X10505000Y-9595000I-20000J0D01*
G01*
X10521235Y-4797794D02*
G75*
G03*
X10521235Y-4797794I-20000J0D01*
G01*
X10560000Y-10630000D02*
G75*
G03*
X10560000Y-10630000I-20000J0D01*
G01*
X10611901Y-8712321D02*
G75*
G03*
X10611901Y-8712321I-20000J0D01*
G01*
X10645000Y-9420000D02*
G75*
G03*
X10645000Y-9420000I-20000J0D01*
G01*
X10665000Y-7650000D02*
G75*
G03*
X10665000Y-7650000I-20000J0D01*
G01*
X10727500Y-7260000D02*
G75*
G03*
X10727500Y-7260000I-20000J0D01*
G01*
X10737022Y-6099102D02*
G75*
G03*
X10737022Y-6099102I-20000J0D01*
G01*
X10760000Y-8875000D02*
G75*
G03*
X10760000Y-8875000I-20000J0D01*
G01*
X10784692Y-5804101D02*
G75*
G03*
X10784692Y-5804101I-20000J0D01*
G01*
X10787571Y-3220050D02*
G75*
G03*
X10787571Y-3220050I-20000J0D01*
G01*
X10790000Y-3829900D02*
G75*
G03*
X10790000Y-3829900I-20000J0D01*
G01*
X10795897Y-3939850D02*
G75*
G03*
X10795897Y-3939850I-20000J0D01*
G01*
X10809089Y-4749545D02*
G75*
G03*
X10809089Y-4749545I-20000J0D01*
G01*
X10820000Y-5025000D02*
G75*
G03*
X10820000Y-5025000I-20000J0D01*
G01*
X10832500Y-9420000D02*
G75*
G03*
X10832500Y-9420000I-20000J0D01*
G01*
X10837514Y-7799022D02*
G75*
G03*
X10837514Y-7799022I-20000J0D01*
G01*
X10874528Y-6089950D02*
G75*
G03*
X10874528Y-6089950I-20000J0D01*
G01*
X10894839Y-11277447D02*
G75*
G03*
X10894839Y-11277447I-20000J0D01*
G01*
X10910000Y-10095000D02*
G75*
G03*
X10910000Y-10095000I-20000J0D01*
G01*
X10915000Y-8520000D02*
G75*
G03*
X10915000Y-8520000I-20000J0D01*
G01*
X10920000Y-6520000D02*
G75*
G03*
X10920000Y-6520000I-20000J0D01*
G01*
X10921967Y-6729950D02*
G75*
G03*
X10921967Y-6729950I-20000J0D01*
G01*
X10930000Y-5550000D02*
G75*
G03*
X10930000Y-5550000I-20000J0D01*
G01*
X10930000Y-8282500D02*
G75*
G03*
X10930000Y-8282500I-20000J0D01*
G01*
X10940000Y-7600000D02*
G75*
G03*
X10940000Y-7600000I-20000J0D01*
G01*
X10940000Y-10367650D02*
G75*
G03*
X10940000Y-10367650I-20000J0D01*
G01*
X10960000Y-5740000D02*
G75*
G03*
X10960000Y-5740000I-20000J0D01*
G01*
X10975000Y-10665000D02*
G75*
G03*
X10975000Y-10665000I-20000J0D01*
G01*
X10975000Y-10850000D02*
G75*
G03*
X10975000Y-10850000I-20000J0D01*
G01*
X11007500Y-8660000D02*
G75*
G03*
X11007500Y-8660000I-20000J0D01*
G01*
X11010880Y-10571712D02*
G75*
G03*
X11010880Y-10571712I-20000J0D01*
G01*
X11029717Y-6729950D02*
G75*
G03*
X11029717Y-6729950I-20000J0D01*
G01*
X11035000Y-10761550D02*
G75*
G03*
X11035000Y-10761550I-20000J0D01*
G01*
X11040000Y-4030000D02*
G75*
G03*
X11040000Y-4030000I-20000J0D01*
G01*
X11040000Y-7230000D02*
G75*
G03*
X11040000Y-7230000I-20000J0D01*
G01*
X11040000Y-11005000D02*
G75*
G03*
X11040000Y-11005000I-20000J0D01*
G01*
X11042892Y-8276889D02*
G75*
G03*
X11042892Y-8276889I-20000J0D01*
G01*
X11044484Y-5133537D02*
G75*
G03*
X11044484Y-5133537I-20000J0D01*
G01*
X11045000Y-9159950D02*
G75*
G03*
X11045000Y-9159950I-20000J0D01*
G01*
X11068235Y-6156932D02*
G75*
G03*
X11068235Y-6156932I-20000J0D01*
G01*
X11080000Y-4555000D02*
G75*
G03*
X11080000Y-4555000I-20000J0D01*
G01*
X11090000Y-10300000D02*
G75*
G03*
X11090000Y-10300000I-20000J0D01*
G01*
X11100000Y-7755000D02*
G75*
G03*
X11100000Y-7755000I-20000J0D01*
G01*
X11112500Y-7052500D02*
G75*
G03*
X11112500Y-7052500I-20000J0D01*
G01*
X11140000Y-8100000D02*
G75*
G03*
X11140000Y-8100000I-20000J0D01*
G01*
X11144830Y-8822516D02*
G75*
G03*
X11144830Y-8822516I-20000J0D01*
G01*
X11149484Y-5133537D02*
G75*
G03*
X11149484Y-5133537I-20000J0D01*
G01*
X11152524Y-7941644D02*
G75*
G03*
X11152524Y-7941644I-20000J0D01*
G01*
X11170000Y-10985000D02*
G75*
G03*
X11170000Y-10985000I-20000J0D01*
G01*
X11173235Y-6156932D02*
G75*
G03*
X11173235Y-6156932I-20000J0D01*
G01*
X11190000Y-7227808D02*
G75*
G03*
X11190000Y-7227808I-20000J0D01*
G01*
X11190000Y-10385000D02*
G75*
G03*
X11190000Y-10385000I-20000J0D01*
G01*
X11227892Y-8276889D02*
G75*
G03*
X11227892Y-8276889I-20000J0D01*
G01*
X11267000Y-6607000D02*
G75*
G03*
X11267000Y-6607000I-20000J0D01*
G01*
X11280746Y-8832802D02*
G75*
G03*
X11280746Y-8832802I-20000J0D01*
G01*
X11290000Y-5600000D02*
G75*
G03*
X11290000Y-5600000I-20000J0D01*
G01*
X11332500Y-7712500D02*
G75*
G03*
X11332500Y-7712500I-20000J0D01*
G01*
X11332500Y-11055000D02*
G75*
G03*
X11332500Y-11055000I-20000J0D01*
G01*
X11340000Y-6360000D02*
G75*
G03*
X11340000Y-6360000I-20000J0D01*
G01*
X11350000Y-5960000D02*
G75*
G03*
X11350000Y-5960000I-20000J0D01*
G01*
X11354760Y-6079660D02*
G75*
G03*
X11354760Y-6079660I-20000J0D01*
G01*
X11360000Y-5130000D02*
G75*
G03*
X11360000Y-5130000I-20000J0D01*
G01*
X11360000Y-7400000D02*
G75*
G03*
X11360000Y-7400000I-20000J0D01*
G01*
X11370000Y-4950000D02*
G75*
G03*
X11370000Y-4950000I-20000J0D01*
G01*
X11370000Y-6790000D02*
G75*
G03*
X11370000Y-6790000I-20000J0D01*
G01*
X11375931Y-7944223D02*
G75*
G03*
X11375931Y-7944223I-20000J0D01*
G01*
X11377500Y-9335000D02*
G75*
G03*
X11377500Y-9335000I-20000J0D01*
G01*
X11378035Y-8325664D02*
G75*
G03*
X11378035Y-8325664I-20000J0D01*
G01*
X11380000Y-5310000D02*
G75*
G03*
X11380000Y-5310000I-20000J0D01*
G01*
X11390000Y-6930000D02*
G75*
G03*
X11390000Y-6930000I-20000J0D01*
G01*
X11399950Y-10430000D02*
G75*
G03*
X11399950Y-10430000I-20000J0D01*
G01*
X11423629Y-10174950D02*
G75*
G03*
X11423629Y-10174950I-20000J0D01*
G01*
X11440000Y-4400000D02*
G75*
G03*
X11440000Y-4400000I-20000J0D01*
G01*
X11440000Y-6240000D02*
G75*
G03*
X11440000Y-6240000I-20000J0D01*
G01*
X11442000Y-5378000D02*
G75*
G03*
X11442000Y-5378000I-20000J0D01*
G01*
X11460000Y-7180000D02*
G75*
G03*
X11460000Y-7180000I-20000J0D01*
G01*
X11460000Y-8100000D02*
G75*
G03*
X11460000Y-8100000I-20000J0D01*
G01*
X11476973Y-3549950D02*
G75*
G03*
X11476973Y-3549950I-20000J0D01*
G01*
X11556429Y-9255000D02*
G75*
G03*
X11556429Y-9255000I-20000J0D01*
G01*
X11560000Y-3390000D02*
G75*
G03*
X11560000Y-3390000I-20000J0D01*
G01*
X11592500Y-6642500D02*
G75*
G03*
X11592500Y-6642500I-20000J0D01*
G01*
X11610050Y-4220000D02*
G75*
G03*
X11610050Y-4220000I-20000J0D01*
G01*
X11670000Y-3380000D02*
G75*
G03*
X11670000Y-3380000I-20000J0D01*
G01*
X11700000Y-8880000D02*
G75*
G03*
X11700000Y-8880000I-20000J0D01*
G01*
X11740000Y-4465000D02*
G75*
G03*
X11740000Y-4465000I-20000J0D01*
G01*
X11765000Y-10155000D02*
G75*
G03*
X11765000Y-10155000I-20000J0D01*
G01*
X11782500Y-4000000D02*
G75*
G03*
X11782500Y-4000000I-20000J0D01*
G01*
X11785000Y-6147500D02*
G75*
G03*
X11785000Y-6147500I-20000J0D01*
G01*
X11790000Y-5780000D02*
G75*
G03*
X11790000Y-5780000I-20000J0D01*
G01*
X11790000Y-6690000D02*
G75*
G03*
X11790000Y-6690000I-20000J0D01*
G01*
X11800000Y-3350000D02*
G75*
G03*
X11800000Y-3350000I-20000J0D01*
G01*
X11800000Y-7610000D02*
G75*
G03*
X11800000Y-7610000I-20000J0D01*
G01*
X11805000Y-7132500D02*
G75*
G03*
X11805000Y-7132500I-20000J0D01*
G01*
X11815000Y-8605000D02*
G75*
G03*
X11815000Y-8605000I-20000J0D01*
G01*
X11890000Y-9820000D02*
G75*
G03*
X11890000Y-9820000I-20000J0D01*
G01*
X11897283Y-5552447D02*
G75*
G03*
X11897283Y-5552447I-20000J0D01*
G01*
X11990000Y-4645000D02*
G75*
G03*
X11990000Y-4645000I-20000J0D01*
G01*
X12000000Y-10620000D02*
G75*
G03*
X12000000Y-10620000I-20000J0D01*
G01*
X12000000Y-10900000D02*
G75*
G03*
X12000000Y-10900000I-20000J0D01*
G01*
X12000000Y-11120000D02*
G75*
G03*
X12000000Y-11120000I-20000J0D01*
G01*
X12067500Y-5307500D02*
G75*
G03*
X12067500Y-5307500I-20000J0D01*
G01*
X12072500Y-6272500D02*
G75*
G03*
X12072500Y-6272500I-20000J0D01*
G01*
X12150000Y-4955000D02*
G75*
G03*
X12150000Y-4955000I-20000J0D01*
G01*
X12150000Y-9710000D02*
G75*
G03*
X12150000Y-9710000I-20000J0D01*
G01*
X12207500Y-5632500D02*
G75*
G03*
X12207500Y-5632500I-20000J0D01*
G01*
X12217500Y-3750000D02*
G75*
G03*
X12217500Y-3750000I-20000J0D01*
G01*
X12230000Y-10260000D02*
G75*
G03*
X12230000Y-10260000I-20000J0D01*
G01*
X12245000Y-4095000D02*
G75*
G03*
X12245000Y-4095000I-20000J0D01*
G01*
X12320000Y-8450000D02*
G75*
G03*
X12320000Y-8450000I-20000J0D01*
G01*
X12330000Y-9380000D02*
G75*
G03*
X12330000Y-9380000I-20000J0D01*
G01*
X12345000Y-6600000D02*
G75*
G03*
X12345000Y-6600000I-20000J0D01*
G01*
X12357254Y-5642254D02*
G75*
G03*
X12357254Y-5642254I-20000J0D01*
G01*
X12360000Y-4719950D02*
G75*
G03*
X12360000Y-4719950I-20000J0D01*
G01*
X12360000Y-9720000D02*
G75*
G03*
X12360000Y-9720000I-20000J0D01*
G01*
X12370587Y-7535000D02*
G75*
G03*
X12370587Y-7535000I-20000J0D01*
G01*
X12420000Y-11070000D02*
G75*
G03*
X12420000Y-11070000I-20000J0D01*
G01*
X12470000Y-10900000D02*
G75*
G03*
X12470000Y-10900000I-20000J0D01*
G01*
X12477400Y-3764751D02*
G75*
G03*
X12477400Y-3764751I-20000J0D01*
G01*
X12490000Y-10730000D02*
G75*
G03*
X12490000Y-10730000I-20000J0D01*
G01*
X12495000Y-9040000D02*
G75*
G03*
X12495000Y-9040000I-20000J0D01*
G01*
X12520000Y-10250000D02*
G75*
G03*
X12520000Y-10250000I-20000J0D01*
G01*
X12569104Y-5029104D02*
G75*
G03*
X12569104Y-5029104I-20000J0D01*
G01*
X12575000Y-5382500D02*
G75*
G03*
X12575000Y-5382500I-20000J0D01*
G01*
X12579500Y-4070208D02*
G75*
G03*
X12579500Y-4070208I-20000J0D01*
G01*
X12600000Y-7215000D02*
G75*
G03*
X12600000Y-7215000I-20000J0D01*
G01*
X12612500Y-6290000D02*
G75*
G03*
X12612500Y-6290000I-20000J0D01*
G01*
X12655000Y-8325000D02*
G75*
G03*
X12655000Y-8325000I-20000J0D01*
G01*
X12695000Y-5305000D02*
G75*
G03*
X12695000Y-5305000I-20000J0D01*
G01*
X12695000Y-9925000D02*
G75*
G03*
X12695000Y-9925000I-20000J0D01*
G01*
X12700000Y-8120000D02*
G75*
G03*
X12700000Y-8120000I-20000J0D01*
G01*
X12715000Y-4015000D02*
G75*
G03*
X12715000Y-4015000I-20000J0D01*
G01*
X12730000Y-4300000D02*
G75*
G03*
X12730000Y-4300000I-20000J0D01*
G01*
X12740000Y-6200000D02*
G75*
G03*
X12740000Y-6200000I-20000J0D01*
G01*
X12740000Y-8920000D02*
G75*
G03*
X12740000Y-8920000I-20000J0D01*
G01*
X12755000Y-4420000D02*
G75*
G03*
X12755000Y-4420000I-20000J0D01*
G01*
X12755000Y-4955000D02*
G75*
G03*
X12755000Y-4955000I-20000J0D01*
G01*
X12755000Y-5825000D02*
G75*
G03*
X12755000Y-5825000I-20000J0D01*
G01*
X12755000Y-11380000D02*
G75*
G03*
X12755000Y-11380000I-20000J0D01*
G01*
X12760000Y-7645000D02*
G75*
G03*
X12760000Y-7645000I-20000J0D01*
G01*
X12770000Y-6710000D02*
G75*
G03*
X12770000Y-6710000I-20000J0D01*
G01*
X12770000Y-7115000D02*
G75*
G03*
X12770000Y-7115000I-20000J0D01*
G01*
X12770000Y-9730000D02*
G75*
G03*
X12770000Y-9730000I-20000J0D01*
G01*
X12770000Y-10590000D02*
G75*
G03*
X12770000Y-10590000I-20000J0D01*
G01*
X12780000Y-9230000D02*
G75*
G03*
X12780000Y-9230000I-20000J0D01*
G01*
X12820000Y-10320000D02*
G75*
G03*
X12820000Y-10320000I-20000J0D01*
G01*
X12855000Y-11190000D02*
G75*
G03*
X12855000Y-11190000I-20000J0D01*
G01*
X12915000Y-9640000D02*
G75*
G03*
X12915000Y-9640000I-20000J0D01*
G01*
X13120000Y-10207500D02*
G75*
G03*
X13120000Y-10207500I-20000J0D01*
G01*
X13200000Y-10580000D02*
G75*
G03*
X13200000Y-10580000I-20000J0D01*
G01*
X13290000Y-10700000D02*
G75*
G03*
X13290000Y-10700000I-20000J0D01*
G01*
X13300000Y-11120000D02*
G75*
G03*
X13300000Y-11120000I-20000J0D01*
G01*
X13310000Y-9800000D02*
G75*
G03*
X13310000Y-9800000I-20000J0D01*
G01*
X13320000Y-10930000D02*
G75*
G03*
X13320000Y-10930000I-20000J0D01*
G01*
X13380000Y-11040000D02*
G75*
G03*
X13380000Y-11040000I-20000J0D01*
G01*
X13400000Y-10490000D02*
G75*
G03*
X13400000Y-10490000I-20000J0D01*
G01*
X13432500Y-3312500D02*
G75*
G03*
X13432500Y-3312500I-20000J0D01*
G01*
X13444607Y-9605940D02*
G75*
G03*
X13444607Y-9605940I-20000J0D01*
G01*
X13470000Y-9850000D02*
G75*
G03*
X13470000Y-9850000I-20000J0D01*
G01*
X13470000Y-11280000D02*
G75*
G03*
X13470000Y-11280000I-20000J0D01*
G01*
X13560000Y-10129950D02*
G75*
G03*
X13560000Y-10129950I-20000J0D01*
G01*
X13590000Y-9780000D02*
G75*
G03*
X13590000Y-9780000I-20000J0D01*
G01*
X13620000Y-3250000D02*
G75*
G03*
X13620000Y-3250000I-20000J0D01*
G01*
X13745000Y-3220000D02*
G75*
G03*
X13745000Y-3220000I-20000J0D01*
G01*
X13879324Y-9960676D02*
G75*
G03*
X13879324Y-9960676I-20000J0D01*
G01*
X13900000Y-9540000D02*
G75*
G03*
X13900000Y-9540000I-20000J0D01*
G01*
X13920000Y-10175000D02*
G75*
G03*
X13920000Y-10175000I-20000J0D01*
G01*
X13950000Y-9890000D02*
G75*
G03*
X13950000Y-9890000I-20000J0D01*
G01*
X14054221Y-10295197D02*
G75*
G03*
X14054221Y-10295197I-20000J0D01*
G01*
X14080000Y-9810000D02*
G75*
G03*
X14080000Y-9810000I-20000J0D01*
G01*
X14150000Y-10180000D02*
G75*
G03*
X14150000Y-10180000I-20000J0D01*
G01*
X14180000Y-9930000D02*
G75*
G03*
X14180000Y-9930000I-20000J0D01*
G01*
X14188699Y-11390154D02*
G75*
G03*
X14188699Y-11390154I-20000J0D01*
G01*
X14190000Y-9670000D02*
G75*
G03*
X14190000Y-9670000I-20000J0D01*
G01*
X14200000Y-10420000D02*
G75*
G03*
X14200000Y-10420000I-20000J0D01*
G01*
X14260000Y-10630000D02*
G75*
G03*
X14260000Y-10630000I-20000J0D01*
G01*
X14290000Y-9770000D02*
G75*
G03*
X14290000Y-9770000I-20000J0D01*
G01*
X14295000Y-11210000D02*
G75*
G03*
X14295000Y-11210000I-20000J0D01*
G01*
X14320000Y-9545000D02*
G75*
G03*
X14320000Y-9545000I-20000J0D01*
G01*
X14330000Y-11010000D02*
G75*
G03*
X14330000Y-11010000I-20000J0D01*
G01*
X14400000Y-10770000D02*
G75*
G03*
X14400000Y-10770000I-20000J0D01*
G01*
X14440000Y-9910000D02*
G75*
G03*
X14440000Y-9910000I-20000J0D01*
G01*
X14520000Y-9690000D02*
G75*
G03*
X14520000Y-9690000I-20000J0D01*
G01*
X14540000Y-9830000D02*
G75*
G03*
X14540000Y-9830000I-20000J0D01*
G01*
X14640025Y-9710515D02*
G75*
G03*
X14640025Y-9710515I-20000J0D01*
G01*
X14640025Y-9815515D02*
G75*
G03*
X14640025Y-9815515I-20000J0D01*
G01*
X14735000Y-10100000D02*
G75*
G03*
X14735000Y-10100000I-20000J0D01*
G01*
X14750000Y-10620000D02*
G75*
G03*
X14750000Y-10620000I-20000J0D01*
G01*
X14760000Y-10420000D02*
G75*
G03*
X14760000Y-10420000I-20000J0D01*
G01*
X15080593Y-3429407D02*
G75*
G03*
X15080593Y-3429407I-20000J0D01*
G01*
X15090000Y-10190000D02*
G75*
G03*
X15090000Y-10190000I-20000J0D01*
G01*
X15100000Y-9010000D02*
G75*
G03*
X15100000Y-9010000I-20000J0D01*
G01*
X15100000Y-9110000D02*
G75*
G03*
X15100000Y-9110000I-20000J0D01*
G01*
X15100000Y-9210000D02*
G75*
G03*
X15100000Y-9210000I-20000J0D01*
G01*
X15122500Y-7415000D02*
G75*
G03*
X15122500Y-7415000I-20000J0D01*
G01*
X15125000Y-8427315D02*
G75*
G03*
X15125000Y-8427315I-20000J0D01*
G01*
X15142500Y-5425000D02*
G75*
G03*
X15142500Y-5425000I-20000J0D01*
G01*
X15147500Y-6425000D02*
G75*
G03*
X15147500Y-6425000I-20000J0D01*
G01*
X15150000Y-3980000D02*
G75*
G03*
X15150000Y-3980000I-20000J0D01*
G01*
X15150000Y-4080000D02*
G75*
G03*
X15150000Y-4080000I-20000J0D01*
G01*
X15150000Y-4180000D02*
G75*
G03*
X15150000Y-4180000I-20000J0D01*
G01*
X15150000Y-4960000D02*
G75*
G03*
X15150000Y-4960000I-20000J0D01*
G01*
X15150000Y-5060000D02*
G75*
G03*
X15150000Y-5060000I-20000J0D01*
G01*
X15150000Y-5160000D02*
G75*
G03*
X15150000Y-5160000I-20000J0D01*
G01*
X15150000Y-5980000D02*
G75*
G03*
X15150000Y-5980000I-20000J0D01*
G01*
X15150000Y-6080000D02*
G75*
G03*
X15150000Y-6080000I-20000J0D01*
G01*
X15150000Y-6180000D02*
G75*
G03*
X15150000Y-6180000I-20000J0D01*
G01*
X15170000Y-7990000D02*
G75*
G03*
X15170000Y-7990000I-20000J0D01*
G01*
X15170000Y-8090000D02*
G75*
G03*
X15170000Y-8090000I-20000J0D01*
G01*
X15170000Y-8190000D02*
G75*
G03*
X15170000Y-8190000I-20000J0D01*
G01*
X15180000Y-4425000D02*
G75*
G03*
X15180000Y-4425000I-20000J0D01*
G01*
X15185000Y-6980000D02*
G75*
G03*
X15185000Y-6980000I-20000J0D01*
G01*
X15185000Y-7080000D02*
G75*
G03*
X15185000Y-7080000I-20000J0D01*
G01*
X15185000Y-7180000D02*
G75*
G03*
X15185000Y-7180000I-20000J0D01*
G01*
X15200000Y-9010000D02*
G75*
G03*
X15200000Y-9010000I-20000J0D01*
G01*
X15200000Y-9110000D02*
G75*
G03*
X15200000Y-9110000I-20000J0D01*
G01*
X15200000Y-9210000D02*
G75*
G03*
X15200000Y-9210000I-20000J0D01*
G01*
X15250000Y-3980000D02*
G75*
G03*
X15250000Y-3980000I-20000J0D01*
G01*
X15250000Y-4080000D02*
G75*
G03*
X15250000Y-4080000I-20000J0D01*
G01*
X15250000Y-4180000D02*
G75*
G03*
X15250000Y-4180000I-20000J0D01*
G01*
X15250000Y-4960000D02*
G75*
G03*
X15250000Y-4960000I-20000J0D01*
G01*
X15250000Y-5060000D02*
G75*
G03*
X15250000Y-5060000I-20000J0D01*
G01*
X15250000Y-5160000D02*
G75*
G03*
X15250000Y-5160000I-20000J0D01*
G01*
X15250000Y-5980000D02*
G75*
G03*
X15250000Y-5980000I-20000J0D01*
G01*
X15250000Y-6080000D02*
G75*
G03*
X15250000Y-6080000I-20000J0D01*
G01*
X15250000Y-6180000D02*
G75*
G03*
X15250000Y-6180000I-20000J0D01*
G01*
X15270000Y-7990000D02*
G75*
G03*
X15270000Y-7990000I-20000J0D01*
G01*
X15270000Y-8090000D02*
G75*
G03*
X15270000Y-8090000I-20000J0D01*
G01*
X15270000Y-8190000D02*
G75*
G03*
X15270000Y-8190000I-20000J0D01*
G01*
X15280000Y-5460000D02*
G75*
G03*
X15280000Y-5460000I-20000J0D01*
G01*
X15285000Y-6980000D02*
G75*
G03*
X15285000Y-6980000I-20000J0D01*
G01*
X15285000Y-7080000D02*
G75*
G03*
X15285000Y-7080000I-20000J0D01*
G01*
X15285000Y-7180000D02*
G75*
G03*
X15285000Y-7180000I-20000J0D01*
G01*
X15290000Y-6480000D02*
G75*
G03*
X15290000Y-6480000I-20000J0D01*
G01*
X15290000Y-10420000D02*
G75*
G03*
X15290000Y-10420000I-20000J0D01*
G01*
X15300000Y-9010000D02*
G75*
G03*
X15300000Y-9010000I-20000J0D01*
G01*
X15300000Y-9110000D02*
G75*
G03*
X15300000Y-9110000I-20000J0D01*
G01*
X15300000Y-9210000D02*
G75*
G03*
X15300000Y-9210000I-20000J0D01*
G01*
X15340000Y-10980000D02*
G75*
G03*
X15340000Y-10980000I-20000J0D01*
G01*
X15350000Y-3980000D02*
G75*
G03*
X15350000Y-3980000I-20000J0D01*
G01*
X15350000Y-4080000D02*
G75*
G03*
X15350000Y-4080000I-20000J0D01*
G01*
X15350000Y-4180000D02*
G75*
G03*
X15350000Y-4180000I-20000J0D01*
G01*
X15350000Y-4960000D02*
G75*
G03*
X15350000Y-4960000I-20000J0D01*
G01*
X15350000Y-5060000D02*
G75*
G03*
X15350000Y-5060000I-20000J0D01*
G01*
X15350000Y-5160000D02*
G75*
G03*
X15350000Y-5160000I-20000J0D01*
G01*
X15350000Y-5980000D02*
G75*
G03*
X15350000Y-5980000I-20000J0D01*
G01*
X15350000Y-6080000D02*
G75*
G03*
X15350000Y-6080000I-20000J0D01*
G01*
X15350000Y-6180000D02*
G75*
G03*
X15350000Y-6180000I-20000J0D01*
G01*
X15370000Y-7990000D02*
G75*
G03*
X15370000Y-7990000I-20000J0D01*
G01*
X15370000Y-8090000D02*
G75*
G03*
X15370000Y-8090000I-20000J0D01*
G01*
X15370000Y-8190000D02*
G75*
G03*
X15370000Y-8190000I-20000J0D01*
G01*
X15385000Y-6980000D02*
G75*
G03*
X15385000Y-6980000I-20000J0D01*
G01*
X15385000Y-7080000D02*
G75*
G03*
X15385000Y-7080000I-20000J0D01*
G01*
X15385000Y-7180000D02*
G75*
G03*
X15385000Y-7180000I-20000J0D01*
G01*
X15400000Y-9010000D02*
G75*
G03*
X15400000Y-9010000I-20000J0D01*
G01*
X15400000Y-9110000D02*
G75*
G03*
X15400000Y-9110000I-20000J0D01*
G01*
X15400000Y-9210000D02*
G75*
G03*
X15400000Y-9210000I-20000J0D01*
G01*
X15410000Y-10425050D02*
G75*
G03*
X15410000Y-10425050I-20000J0D01*
G01*
X15420000Y-4355000D02*
G75*
G03*
X15420000Y-4355000I-20000J0D01*
G01*
X15430000Y-8365000D02*
G75*
G03*
X15430000Y-8365000I-20000J0D01*
G01*
X15450000Y-3980000D02*
G75*
G03*
X15450000Y-3980000I-20000J0D01*
G01*
X15450000Y-4080000D02*
G75*
G03*
X15450000Y-4080000I-20000J0D01*
G01*
X15450000Y-4180000D02*
G75*
G03*
X15450000Y-4180000I-20000J0D01*
G01*
X15450000Y-4960000D02*
G75*
G03*
X15450000Y-4960000I-20000J0D01*
G01*
X15450000Y-5060000D02*
G75*
G03*
X15450000Y-5060000I-20000J0D01*
G01*
X15450000Y-5160000D02*
G75*
G03*
X15450000Y-5160000I-20000J0D01*
G01*
X15450000Y-5980000D02*
G75*
G03*
X15450000Y-5980000I-20000J0D01*
G01*
X15450000Y-6080000D02*
G75*
G03*
X15450000Y-6080000I-20000J0D01*
G01*
X15450000Y-6180000D02*
G75*
G03*
X15450000Y-6180000I-20000J0D01*
G01*
X15455000Y-7360000D02*
G75*
G03*
X15455000Y-7360000I-20000J0D01*
G01*
X15470000Y-7990000D02*
G75*
G03*
X15470000Y-7990000I-20000J0D01*
G01*
X15470000Y-8090000D02*
G75*
G03*
X15470000Y-8090000I-20000J0D01*
G01*
X15470000Y-8190000D02*
G75*
G03*
X15470000Y-8190000I-20000J0D01*
G01*
X15475277Y-10129524D02*
G75*
G03*
X15475277Y-10129524I-20000J0D01*
G01*
X15485000Y-6980000D02*
G75*
G03*
X15485000Y-6980000I-20000J0D01*
G01*
X15485000Y-7080000D02*
G75*
G03*
X15485000Y-7080000I-20000J0D01*
G01*
X15485000Y-7180000D02*
G75*
G03*
X15485000Y-7180000I-20000J0D01*
G01*
X15490000Y-11260000D02*
G75*
G03*
X15490000Y-11260000I-20000J0D01*
G01*
X15500000Y-9010000D02*
G75*
G03*
X15500000Y-9010000I-20000J0D01*
G01*
X15500000Y-9110000D02*
G75*
G03*
X15500000Y-9110000I-20000J0D01*
G01*
X15500000Y-9210000D02*
G75*
G03*
X15500000Y-9210000I-20000J0D01*
G01*
X15545953Y-10058849D02*
G75*
G03*
X15545953Y-10058849I-20000J0D01*
G01*
X15550000Y-3980000D02*
G75*
G03*
X15550000Y-3980000I-20000J0D01*
G01*
X15550000Y-4080000D02*
G75*
G03*
X15550000Y-4080000I-20000J0D01*
G01*
X15550000Y-4180000D02*
G75*
G03*
X15550000Y-4180000I-20000J0D01*
G01*
X15550000Y-4960000D02*
G75*
G03*
X15550000Y-4960000I-20000J0D01*
G01*
X15550000Y-5060000D02*
G75*
G03*
X15550000Y-5060000I-20000J0D01*
G01*
X15550000Y-5160000D02*
G75*
G03*
X15550000Y-5160000I-20000J0D01*
G01*
X15550000Y-5980000D02*
G75*
G03*
X15550000Y-5980000I-20000J0D01*
G01*
X15550000Y-6080000D02*
G75*
G03*
X15550000Y-6080000I-20000J0D01*
G01*
X15550000Y-6180000D02*
G75*
G03*
X15550000Y-6180000I-20000J0D01*
G01*
X15570000Y-7990000D02*
G75*
G03*
X15570000Y-7990000I-20000J0D01*
G01*
X15570000Y-8090000D02*
G75*
G03*
X15570000Y-8090000I-20000J0D01*
G01*
X15570000Y-8190000D02*
G75*
G03*
X15570000Y-8190000I-20000J0D01*
G01*
X15585000Y-6980000D02*
G75*
G03*
X15585000Y-6980000I-20000J0D01*
G01*
X15585000Y-7080000D02*
G75*
G03*
X15585000Y-7080000I-20000J0D01*
G01*
X15585000Y-7180000D02*
G75*
G03*
X15585000Y-7180000I-20000J0D01*
G01*
X15600000Y-9110000D02*
G75*
G03*
X15600000Y-9110000I-20000J0D01*
G01*
X15600000Y-9210000D02*
G75*
G03*
X15600000Y-9210000I-20000J0D01*
G01*
X15600000Y-9542500D02*
G75*
G03*
X15600000Y-9542500I-20000J0D01*
G01*
X15640000Y-4180000D02*
G75*
G03*
X15640000Y-4180000I-20000J0D01*
G01*
X15640000Y-9960000D02*
G75*
G03*
X15640000Y-9960000I-20000J0D01*
G01*
X15650000Y-5160000D02*
G75*
G03*
X15650000Y-5160000I-20000J0D01*
G01*
X15650000Y-6180000D02*
G75*
G03*
X15650000Y-6180000I-20000J0D01*
G01*
X15660000Y-9690000D02*
G75*
G03*
X15660000Y-9690000I-20000J0D01*
G01*
X15660000Y-11320000D02*
G75*
G03*
X15660000Y-11320000I-20000J0D01*
G01*
X15670000Y-8190000D02*
G75*
G03*
X15670000Y-8190000I-20000J0D01*
G01*
X15680000Y-7180000D02*
G75*
G03*
X15680000Y-7180000I-20000J0D01*
G01*
X15690000Y-9870000D02*
G75*
G03*
X15690000Y-9870000I-20000J0D01*
G01*
X15695000Y-9235000D02*
G75*
G03*
X15695000Y-9235000I-20000J0D01*
G01*
X15700000Y-4080000D02*
G75*
G03*
X15700000Y-4080000I-20000J0D01*
G01*
X15700000Y-9440000D02*
G75*
G03*
X15700000Y-9440000I-20000J0D01*
G01*
X15720000Y-6080000D02*
G75*
G03*
X15720000Y-6080000I-20000J0D01*
G01*
X15720500Y-9125000D02*
G75*
G03*
X15720500Y-9125000I-20000J0D01*
G01*
X15745000Y-6200000D02*
G75*
G03*
X15745000Y-6200000I-20000J0D01*
G01*
X15750000Y-4940000D02*
G75*
G03*
X15750000Y-4940000I-20000J0D01*
G01*
X15750000Y-5160000D02*
G75*
G03*
X15750000Y-5160000I-20000J0D01*
G01*
X15752500Y-7092500D02*
G75*
G03*
X15752500Y-7092500I-20000J0D01*
G01*
X15770000Y-4175000D02*
G75*
G03*
X15770000Y-4175000I-20000J0D01*
G01*
X15770000Y-8190000D02*
G75*
G03*
X15770000Y-8190000I-20000J0D01*
G01*
X15780000Y-3470000D02*
G75*
G03*
X15780000Y-3470000I-20000J0D01*
G01*
X15790000Y-8025000D02*
G75*
G03*
X15790000Y-8025000I-20000J0D01*
G01*
X15795000Y-9235000D02*
G75*
G03*
X15795000Y-9235000I-20000J0D01*
G01*
X15810000Y-11360000D02*
G75*
G03*
X15810000Y-11360000I-20000J0D01*
G01*
X15815000Y-3245000D02*
G75*
G03*
X15815000Y-3245000I-20000J0D01*
G01*
X15820000Y-7180000D02*
G75*
G03*
X15820000Y-7180000I-20000J0D01*
G01*
X15840000Y-5080000D02*
G75*
G03*
X15840000Y-5080000I-20000J0D01*
G01*
X15845000Y-6200000D02*
G75*
G03*
X15845000Y-6200000I-20000J0D01*
G01*
X15865000Y-7830000D02*
G75*
G03*
X15865000Y-7830000I-20000J0D01*
G01*
X15870000Y-8190000D02*
G75*
G03*
X15870000Y-8190000I-20000J0D01*
G01*
X15881905Y-4158667D02*
G75*
G03*
X15881905Y-4158667I-20000J0D01*
G01*
X15885000Y-10130000D02*
G75*
G03*
X15885000Y-10130000I-20000J0D01*
G01*
X15920000Y-7150000D02*
G75*
G03*
X15920000Y-7150000I-20000J0D01*
G01*
X15985000Y-7225000D02*
G75*
G03*
X15985000Y-7225000I-20000J0D01*
G01*
X16020000Y-10480000D02*
G75*
G03*
X16020000Y-10480000I-20000J0D01*
G01*
X16070000Y-5150000D02*
G75*
G03*
X16070000Y-5150000I-20000J0D01*
G01*
X16070000Y-9840000D02*
G75*
G03*
X16070000Y-9840000I-20000J0D01*
G01*
X16070000Y-10190000D02*
G75*
G03*
X16070000Y-10190000I-20000J0D01*
G01*
X16097500Y-4737500D02*
G75*
G03*
X16097500Y-4737500I-20000J0D01*
G01*
X16107500Y-4238039D02*
G75*
G03*
X16107500Y-4238039I-20000J0D01*
G01*
X16110000Y-10077500D02*
G75*
G03*
X16110000Y-10077500I-20000J0D01*
G01*
X16127662Y-8659481D02*
G75*
G03*
X16127662Y-8659481I-20000J0D01*
G01*
X16142550Y-6780000D02*
G75*
G03*
X16142550Y-6780000I-20000J0D01*
G01*
X16145750Y-8280750D02*
G75*
G03*
X16145750Y-8280750I-20000J0D01*
G01*
X16157500Y-5682653D02*
G75*
G03*
X16157500Y-5682653I-20000J0D01*
G01*
X16210000Y-8381500D02*
G75*
G03*
X16210000Y-8381500I-20000J0D01*
G01*
X16210000Y-8590000D02*
G75*
G03*
X16210000Y-8590000I-20000J0D01*
G01*
X16212500Y-4238039D02*
G75*
G03*
X16212500Y-4238039I-20000J0D01*
G01*
X16229950Y-10700000D02*
G75*
G03*
X16229950Y-10700000I-20000J0D01*
G01*
X16240000Y-11000000D02*
G75*
G03*
X16240000Y-11000000I-20000J0D01*
G01*
X16242500Y-6727556D02*
G75*
G03*
X16242500Y-6727556I-20000J0D01*
G01*
X16250000Y-11210000D02*
G75*
G03*
X16250000Y-11210000I-20000J0D01*
G01*
X16262500Y-5682653D02*
G75*
G03*
X16262500Y-5682653I-20000J0D01*
G01*
X16270000Y-5990000D02*
G75*
G03*
X16270000Y-5990000I-20000J0D01*
G01*
X16285000Y-6245000D02*
G75*
G03*
X16285000Y-6245000I-20000J0D01*
G01*
X16310000Y-10470000D02*
G75*
G03*
X16310000Y-10470000I-20000J0D01*
G01*
X16345000Y-5135000D02*
G75*
G03*
X16345000Y-5135000I-20000J0D01*
G01*
X16355000Y-6175000D02*
G75*
G03*
X16355000Y-6175000I-20000J0D01*
G01*
X16385000Y-4935000D02*
G75*
G03*
X16385000Y-4935000I-20000J0D01*
G01*
X16410000Y-7210000D02*
G75*
G03*
X16410000Y-7210000I-20000J0D01*
G01*
X16467974Y-10039950D02*
G75*
G03*
X16467974Y-10039950I-20000J0D01*
G01*
X16481500Y-7318500D02*
G75*
G03*
X16481500Y-7318500I-20000J0D01*
G01*
X16608442Y-6050050D02*
G75*
G03*
X16608442Y-6050050I-20000J0D01*
G01*
X16620000Y-6250000D02*
G75*
G03*
X16620000Y-6250000I-20000J0D01*
G01*
X16620000Y-10827500D02*
G75*
G03*
X16620000Y-10827500I-20000J0D01*
G01*
X16620000Y-10932500D02*
G75*
G03*
X16620000Y-10932500I-20000J0D01*
G01*
X16630000Y-10350000D02*
G75*
G03*
X16630000Y-10350000I-20000J0D01*
G01*
X16640000Y-3290000D02*
G75*
G03*
X16640000Y-3290000I-20000J0D01*
G01*
X16665000Y-8582500D02*
G75*
G03*
X16665000Y-8582500I-20000J0D01*
G01*
X16680000Y-10560000D02*
G75*
G03*
X16680000Y-10560000I-20000J0D01*
G01*
X16720000Y-9840000D02*
G75*
G03*
X16720000Y-9840000I-20000J0D01*
G01*
X16810000Y-10510000D02*
G75*
G03*
X16810000Y-10510000I-20000J0D01*
G01*
X16844648Y-6202532D02*
G75*
G03*
X16844648Y-6202532I-20000J0D01*
G01*
X16875000Y-5285000D02*
G75*
G03*
X16875000Y-5285000I-20000J0D01*
G01*
X16890000Y-3305000D02*
G75*
G03*
X16890000Y-3305000I-20000J0D01*
G01*
X16890000Y-5785000D02*
G75*
G03*
X16890000Y-5785000I-20000J0D01*
G01*
X16895000Y-5930000D02*
G75*
G03*
X16895000Y-5930000I-20000J0D01*
G01*
X16905000Y-9205000D02*
G75*
G03*
X16905000Y-9205000I-20000J0D01*
G01*
X16910000Y-3787500D02*
G75*
G03*
X16910000Y-3787500I-20000J0D01*
G01*
X16910000Y-10210000D02*
G75*
G03*
X16910000Y-10210000I-20000J0D01*
G01*
X16920000Y-9045000D02*
G75*
G03*
X16920000Y-9045000I-20000J0D01*
G01*
X16922500Y-9750000D02*
G75*
G03*
X16922500Y-9750000I-20000J0D01*
G01*
X16930000Y-10520000D02*
G75*
G03*
X16930000Y-10520000I-20000J0D01*
G01*
X16940000Y-6232500D02*
G75*
G03*
X16940000Y-6232500I-20000J0D01*
G01*
X16960000Y-6520000D02*
G75*
G03*
X16960000Y-6520000I-20000J0D01*
G01*
X16980000Y-11040000D02*
G75*
G03*
X16980000Y-11040000I-20000J0D01*
G01*
X17005000Y-5980000D02*
G75*
G03*
X17005000Y-5980000I-20000J0D01*
G01*
X17010000Y-7240000D02*
G75*
G03*
X17010000Y-7240000I-20000J0D01*
G01*
X17105000Y-6525000D02*
G75*
G03*
X17105000Y-6525000I-20000J0D01*
G01*
X17150000Y-9680000D02*
G75*
G03*
X17150000Y-9680000I-20000J0D01*
G01*
X17220000Y-10280000D02*
G75*
G03*
X17220000Y-10280000I-20000J0D01*
G01*
X17230000Y-10490000D02*
G75*
G03*
X17230000Y-10490000I-20000J0D01*
G01*
X17272450Y-6055000D02*
G75*
G03*
X17272450Y-6055000I-20000J0D01*
G01*
X17273991Y-6546729D02*
G75*
G03*
X17273991Y-6546729I-20000J0D01*
G01*
X17275050Y-6260000D02*
G75*
G03*
X17275050Y-6260000I-20000J0D01*
G01*
X17300000Y-6160000D02*
G75*
G03*
X17300000Y-6160000I-20000J0D01*
G01*
X17300000Y-10010000D02*
G75*
G03*
X17300000Y-10010000I-20000J0D01*
G01*
X17460000Y-10190000D02*
G75*
G03*
X17460000Y-10190000I-20000J0D01*
G01*
X17460000Y-10540000D02*
G75*
G03*
X17460000Y-10540000I-20000J0D01*
G01*
X17510050Y-5957624D02*
G75*
G03*
X17510050Y-5957624I-20000J0D01*
G01*
X17547500Y-6203780D02*
G75*
G03*
X17547500Y-6203780I-20000J0D01*
G01*
X17555000Y-6575000D02*
G75*
G03*
X17555000Y-6575000I-20000J0D01*
G01*
D14*
X7009600Y-6801000D02*
X7009600Y-6861000D01*
X6979600Y-6831000D02*
X7039600Y-6831000D01*
X7580000Y-5890000D02*
X7580000Y-5950000D01*
X7550000Y-5920000D02*
X7610000Y-5920000D01*
X7784628Y-8004645D02*
X7784628Y-8064645D01*
X7754628Y-8034645D02*
X7814628Y-8034645D01*
X8269950Y-8100000D02*
X8269950Y-8160000D01*
X8239950Y-8130000D02*
X8299950Y-8130000D01*
X8507500Y-8747500D02*
X8507500Y-8807500D01*
X8477500Y-8777500D02*
X8537500Y-8777500D01*
X8810000Y-5620000D02*
X8810000Y-5680000D01*
X8780000Y-5650000D02*
X8840000Y-5650000D01*
X9746567Y-9009633D02*
X9746567Y-9069633D01*
X9716567Y-9039633D02*
X9776567Y-9039633D01*
X9850000Y-8750000D02*
X9850000Y-8810000D01*
X9820000Y-8780000D02*
X9880000Y-8780000D01*
X10820000Y-4290000D02*
X10820000Y-4350000D01*
X10790000Y-4320000D02*
X10850000Y-4320000D01*
X14190000Y-11090000D02*
X14190000Y-11150000D01*
X14160000Y-11120000D02*
X14220000Y-11120000D01*
X7144213Y-10900713D02*
X7144213Y-10858287D01*
X7101787Y-10858287D01*
X7101787Y-10900713D01*
X7144213Y-10900713D01*
D11*
X7093000Y-10824500D02*
X7093000Y-10934500D01*
X7093000Y-10934500D02*
G75*
G03*
X7153000Y-10934500I30000J0D01*
G01*
X7153000Y-10934500D02*
X7153000Y-10824500D01*
X7153000Y-10824500D02*
G75*
G03*
X7093000Y-10824500I-30000J0D01*
G01*
D14*
X7144213Y-11318713D02*
X7144213Y-11276287D01*
X7101787Y-11276287D01*
X7101787Y-11318713D01*
X7144213Y-11318713D01*
D11*
X7093000Y-11267500D02*
X7093000Y-11327500D01*
X7093000Y-11327500D02*
G75*
G03*
X7153000Y-11327500I30000J0D01*
G01*
X7153000Y-11327500D02*
X7153000Y-11267500D01*
X7153000Y-11267500D02*
G75*
G03*
X7093000Y-11267500I-30000J0D01*
G01*
D14*
X8008213Y-10900713D02*
X8008213Y-10858287D01*
X7965787Y-10858287D01*
X7965787Y-10900713D01*
X8008213Y-10900713D01*
D11*
X7957000Y-10824500D02*
X7957000Y-10934500D01*
X7957000Y-10934500D02*
G75*
G03*
X8017000Y-10934500I30000J0D01*
G01*
X8017000Y-10934500D02*
X8017000Y-10824500D01*
X8017000Y-10824500D02*
G75*
G03*
X7957000Y-10824500I-30000J0D01*
G01*
D14*
X8008213Y-11318713D02*
X8008213Y-11276287D01*
X7965787Y-11276287D01*
X7965787Y-11318713D01*
X8008213Y-11318713D01*
D11*
X7957000Y-11267500D02*
X7957000Y-11327500D01*
X7957000Y-11327500D02*
G75*
G03*
X8017000Y-11327500I30000J0D01*
G01*
X8017000Y-11327500D02*
X8017000Y-11267500D01*
X8017000Y-11267500D02*
G75*
G03*
X7957000Y-11267500I-30000J0D01*
G01*
D14*
X8414213Y-10900713D02*
X8414213Y-10858287D01*
X8371787Y-10858287D01*
X8371787Y-10900713D01*
X8414213Y-10900713D01*
D11*
X8363000Y-10824500D02*
X8363000Y-10934500D01*
X8363000Y-10934500D02*
G75*
G03*
X8423000Y-10934500I30000J0D01*
G01*
X8423000Y-10934500D02*
X8423000Y-10824500D01*
X8423000Y-10824500D02*
G75*
G03*
X8363000Y-10824500I-30000J0D01*
G01*
D14*
X8414213Y-11318713D02*
X8414213Y-11276287D01*
X8371787Y-11276287D01*
X8371787Y-11318713D01*
X8414213Y-11318713D01*
D11*
X8363000Y-11267500D02*
X8363000Y-11327500D01*
X8363000Y-11327500D02*
G75*
G03*
X8423000Y-11327500I30000J0D01*
G01*
X8423000Y-11327500D02*
X8423000Y-11267500D01*
X8423000Y-11267500D02*
G75*
G03*
X8363000Y-11267500I-30000J0D01*
G01*
D14*
X9278213Y-10900713D02*
X9278213Y-10858287D01*
X9235787Y-10858287D01*
X9235787Y-10900713D01*
X9278213Y-10900713D01*
D11*
X9227000Y-10824500D02*
X9227000Y-10934500D01*
X9227000Y-10934500D02*
G75*
G03*
X9287000Y-10934500I30000J0D01*
G01*
X9287000Y-10934500D02*
X9287000Y-10824500D01*
X9287000Y-10824500D02*
G75*
G03*
X9227000Y-10824500I-30000J0D01*
G01*
D14*
X9278213Y-11318713D02*
X9278213Y-11276287D01*
X9235787Y-11276287D01*
X9235787Y-11318713D01*
X9278213Y-11318713D01*
D11*
X9227000Y-11267500D02*
X9227000Y-11327500D01*
X9227000Y-11327500D02*
G75*
G03*
X9287000Y-11327500I30000J0D01*
G01*
X9287000Y-11327500D02*
X9287000Y-11267500D01*
X9287000Y-11267500D02*
G75*
G03*
X9227000Y-11267500I-30000J0D01*
G01*
D15*
X7913030Y-3492500D02*
X7953030Y-3452500D01*
X7913030Y-3412500D01*
X7873030Y-3452500D01*
X7913030Y-3492500D01*
X7913030Y-3842500D02*
X7953030Y-3802500D01*
X7913030Y-3762500D01*
X7873030Y-3802500D01*
X7913030Y-3842500D01*
X13000000Y-3652000D02*
X13040000Y-3612000D01*
X13000000Y-3572000D01*
X12960000Y-3612000D01*
X13000000Y-3652000D01*
X13000000Y-4522000D02*
X13040000Y-4482000D01*
X13000000Y-4442000D01*
X12960000Y-4482000D01*
X13000000Y-4522000D01*
X13000000Y-5400000D02*
X13040000Y-5360000D01*
X13000000Y-5320000D01*
X12960000Y-5360000D01*
X13000000Y-5400000D01*
X13000000Y-7210000D02*
X13040000Y-7170000D01*
X13000000Y-7130000D01*
X12960000Y-7170000D01*
X13000000Y-7210000D01*
X13000000Y-8085000D02*
X13040000Y-8045000D01*
X13000000Y-8005000D01*
X12960000Y-8045000D01*
X13000000Y-8085000D01*
X13000000Y-8967500D02*
X13040000Y-8927500D01*
X13000000Y-8887500D01*
X12960000Y-8927500D01*
X13000000Y-8967500D01*
X13350000Y-3652000D02*
X13390000Y-3612000D01*
X13350000Y-3572000D01*
X13310000Y-3612000D01*
X13350000Y-3652000D01*
X13350000Y-4522000D02*
X13390000Y-4482000D01*
X13350000Y-4442000D01*
X13310000Y-4482000D01*
X13350000Y-4522000D01*
X13350000Y-5400000D02*
X13390000Y-5360000D01*
X13350000Y-5320000D01*
X13310000Y-5360000D01*
X13350000Y-5400000D01*
X13350000Y-7210000D02*
X13390000Y-7170000D01*
X13350000Y-7130000D01*
X13310000Y-7170000D01*
X13350000Y-7210000D01*
X13350000Y-8085000D02*
X13390000Y-8045000D01*
X13350000Y-8005000D01*
X13310000Y-8045000D01*
X13350000Y-8085000D01*
X13350000Y-8967500D02*
X13390000Y-8927500D01*
X13350000Y-8887500D01*
X13310000Y-8927500D01*
X13350000Y-8967500D01*
D16*
X13467500Y-10642500D02*
X13567500Y-10742500D01*
X13567500Y-10642500D02*
X13467500Y-10742500D01*
X13567500Y-10692500D02*
G75*
G03*
X13567500Y-10692500I-50000J0D01*
G01*
X13532500Y-10852500D02*
X13632500Y-10952500D01*
X13632500Y-10852500D02*
X13532500Y-10952500D01*
X13632500Y-10902500D02*
G75*
G03*
X13632500Y-10902500I-50000J0D01*
G01*
X13590000Y-10432500D02*
X13690000Y-10532500D01*
X13690000Y-10432500D02*
X13590000Y-10532500D01*
X13690000Y-10482500D02*
G75*
G03*
X13690000Y-10482500I-50000J0D01*
G01*
X13740000Y-10642500D02*
X13840000Y-10742500D01*
X13840000Y-10642500D02*
X13740000Y-10742500D01*
X13840000Y-10692500D02*
G75*
G03*
X13840000Y-10692500I-50000J0D01*
G01*
X13740000Y-10852500D02*
X13840000Y-10952500D01*
X13840000Y-10852500D02*
X13740000Y-10952500D01*
X13840000Y-10902500D02*
G75*
G03*
X13840000Y-10902500I-50000J0D01*
G01*
X13740000Y-11042500D02*
X13840000Y-11142500D01*
X13840000Y-11042500D02*
X13740000Y-11142500D01*
X13840000Y-11092500D02*
G75*
G03*
X13840000Y-11092500I-50000J0D01*
G01*
X13890000Y-10432500D02*
X13990000Y-10532500D01*
X13990000Y-10432500D02*
X13890000Y-10532500D01*
X13990000Y-10482500D02*
G75*
G03*
X13990000Y-10482500I-50000J0D01*
G01*
X13947500Y-10852500D02*
X14047500Y-10952500D01*
X14047500Y-10852500D02*
X13947500Y-10952500D01*
X14047500Y-10902500D02*
G75*
G03*
X14047500Y-10902500I-50000J0D01*
G01*
X14012500Y-10642500D02*
X14112500Y-10742500D01*
X14112500Y-10642500D02*
X14012500Y-10742500D01*
X14112500Y-10692500D02*
G75*
G03*
X14112500Y-10692500I-50000J0D01*
G01*
X15357500Y-10640000D02*
X15457500Y-10740000D01*
X15457500Y-10640000D02*
X15357500Y-10740000D01*
X15457500Y-10690000D02*
G75*
G03*
X15457500Y-10690000I-50000J0D01*
G01*
X15422500Y-10850000D02*
X15522500Y-10950000D01*
X15522500Y-10850000D02*
X15422500Y-10950000D01*
X15522500Y-10900000D02*
G75*
G03*
X15522500Y-10900000I-50000J0D01*
G01*
X15480000Y-10430000D02*
X15580000Y-10530000D01*
X15580000Y-10430000D02*
X15480000Y-10530000D01*
X15580000Y-10480000D02*
G75*
G03*
X15580000Y-10480000I-50000J0D01*
G01*
X15630000Y-10640000D02*
X15730000Y-10740000D01*
X15730000Y-10640000D02*
X15630000Y-10740000D01*
X15730000Y-10690000D02*
G75*
G03*
X15730000Y-10690000I-50000J0D01*
G01*
X15630000Y-10850000D02*
X15730000Y-10950000D01*
X15730000Y-10850000D02*
X15630000Y-10950000D01*
X15730000Y-10900000D02*
G75*
G03*
X15730000Y-10900000I-50000J0D01*
G01*
X15630000Y-11040000D02*
X15730000Y-11140000D01*
X15730000Y-11040000D02*
X15630000Y-11140000D01*
X15730000Y-11090000D02*
G75*
G03*
X15730000Y-11090000I-50000J0D01*
G01*
X15780000Y-10430000D02*
X15880000Y-10530000D01*
X15880000Y-10430000D02*
X15780000Y-10530000D01*
X15880000Y-10480000D02*
G75*
G03*
X15880000Y-10480000I-50000J0D01*
G01*
X15837500Y-10850000D02*
X15937500Y-10950000D01*
X15937500Y-10850000D02*
X15837500Y-10950000D01*
X15937500Y-10900000D02*
G75*
G03*
X15937500Y-10900000I-50000J0D01*
G01*
X15902500Y-10640000D02*
X16002500Y-10740000D01*
X16002500Y-10640000D02*
X15902500Y-10740000D01*
X16002500Y-10690000D02*
G75*
G03*
X16002500Y-10690000I-50000J0D01*
G01*
D17*
X6574500Y-3979100D02*
X6693500Y-4098100D01*
X6693500Y-3979100D02*
X6574500Y-4098100D01*
X6634000Y-3979100D02*
X6634000Y-4098100D01*
X6574500Y-4038600D02*
X6693500Y-4038600D01*
X6574500Y-4233100D02*
X6693500Y-4352100D01*
X6693500Y-4233100D02*
X6574500Y-4352100D01*
X6634000Y-4233100D02*
X6634000Y-4352100D01*
X6574500Y-4292600D02*
X6693500Y-4292600D01*
X6574500Y-4487100D02*
X6693500Y-4606100D01*
X6693500Y-4487100D02*
X6574500Y-4606100D01*
X6634000Y-4487100D02*
X6634000Y-4606100D01*
X6574500Y-4546600D02*
X6693500Y-4546600D01*
X6574500Y-4741100D02*
X6693500Y-4860100D01*
X6693500Y-4741100D02*
X6574500Y-4860100D01*
X6634000Y-4741100D02*
X6634000Y-4860100D01*
X6574500Y-4800600D02*
X6693500Y-4800600D01*
X6574500Y-4995100D02*
X6693500Y-5114100D01*
X6693500Y-4995100D02*
X6574500Y-5114100D01*
X6634000Y-4995100D02*
X6634000Y-5114100D01*
X6574500Y-5054600D02*
X6693500Y-5054600D01*
X6574500Y-5249100D02*
X6693500Y-5368100D01*
X6693500Y-5249100D02*
X6574500Y-5368100D01*
X6634000Y-5249100D02*
X6634000Y-5368100D01*
X6574500Y-5308600D02*
X6693500Y-5308600D01*
X6574500Y-5999500D02*
X6693500Y-6118500D01*
X6693500Y-5999500D02*
X6574500Y-6118500D01*
X6634000Y-5999500D02*
X6634000Y-6118500D01*
X6574500Y-6059000D02*
X6693500Y-6059000D01*
X6574500Y-6253500D02*
X6693500Y-6372500D01*
X6693500Y-6253500D02*
X6574500Y-6372500D01*
X6634000Y-6253500D02*
X6634000Y-6372500D01*
X6574500Y-6313000D02*
X6693500Y-6313000D01*
X6574500Y-6507500D02*
X6693500Y-6626500D01*
X6693500Y-6507500D02*
X6574500Y-6626500D01*
X6634000Y-6507500D02*
X6634000Y-6626500D01*
X6574500Y-6567000D02*
X6693500Y-6567000D01*
X6574500Y-6761500D02*
X6693500Y-6880500D01*
X6693500Y-6761500D02*
X6574500Y-6880500D01*
X6634000Y-6761500D02*
X6634000Y-6880500D01*
X6574500Y-6821000D02*
X6693500Y-6821000D01*
X6574500Y-7015500D02*
X6693500Y-7134500D01*
X6693500Y-7015500D02*
X6574500Y-7134500D01*
X6634000Y-7015500D02*
X6634000Y-7134500D01*
X6574500Y-7075000D02*
X6693500Y-7075000D01*
X6574500Y-7537500D02*
X6693500Y-7656500D01*
X6693500Y-7537500D02*
X6574500Y-7656500D01*
X6634000Y-7537500D02*
X6634000Y-7656500D01*
X6574500Y-7597000D02*
X6693500Y-7597000D01*
X6574500Y-7791500D02*
X6693500Y-7910500D01*
X6693500Y-7791500D02*
X6574500Y-7910500D01*
X6634000Y-7791500D02*
X6634000Y-7910500D01*
X6574500Y-7851000D02*
X6693500Y-7851000D01*
X6574500Y-8045500D02*
X6693500Y-8164500D01*
X6693500Y-8045500D02*
X6574500Y-8164500D01*
X6634000Y-8045500D02*
X6634000Y-8164500D01*
X6574500Y-8105000D02*
X6693500Y-8105000D01*
X6574500Y-8441500D02*
X6693500Y-8560500D01*
X6693500Y-8441500D02*
X6574500Y-8560500D01*
X6634000Y-8441500D02*
X6634000Y-8560500D01*
X6574500Y-8501000D02*
X6693500Y-8501000D01*
X6574500Y-8695500D02*
X6693500Y-8814500D01*
X6693500Y-8695500D02*
X6574500Y-8814500D01*
X6634000Y-8695500D02*
X6634000Y-8814500D01*
X6574500Y-8755000D02*
X6693500Y-8755000D01*
X6574500Y-8949500D02*
X6693500Y-9068500D01*
X6693500Y-8949500D02*
X6574500Y-9068500D01*
X6634000Y-8949500D02*
X6634000Y-9068500D01*
X6574500Y-9009000D02*
X6693500Y-9009000D01*
X6574500Y-9482500D02*
X6693500Y-9601500D01*
X6693500Y-9482500D02*
X6574500Y-9601500D01*
X6634000Y-9482500D02*
X6634000Y-9601500D01*
X6574500Y-9542000D02*
X6693500Y-9542000D01*
X6574500Y-9736500D02*
X6693500Y-9855500D01*
X6693500Y-9736500D02*
X6574500Y-9855500D01*
X6634000Y-9736500D02*
X6634000Y-9855500D01*
X6574500Y-9796000D02*
X6693500Y-9796000D01*
X6574500Y-9990500D02*
X6693500Y-10109500D01*
X6693500Y-9990500D02*
X6574500Y-10109500D01*
X6634000Y-9990500D02*
X6634000Y-10109500D01*
X6574500Y-10050000D02*
X6693500Y-10050000D01*
X7289500Y-5755500D02*
X7408500Y-5874500D01*
X7408500Y-5755500D02*
X7289500Y-5874500D01*
X7349000Y-5755500D02*
X7349000Y-5874500D01*
X7289500Y-5815000D02*
X7408500Y-5815000D01*
X7289500Y-6009500D02*
X7408500Y-6128500D01*
X7408500Y-6009500D02*
X7289500Y-6128500D01*
X7349000Y-6009500D02*
X7349000Y-6128500D01*
X7289500Y-6069000D02*
X7408500Y-6069000D01*
X7289500Y-6263500D02*
X7408500Y-6382500D01*
X7408500Y-6263500D02*
X7289500Y-6382500D01*
X7349000Y-6263500D02*
X7349000Y-6382500D01*
X7289500Y-6323000D02*
X7408500Y-6323000D01*
X7289500Y-6517500D02*
X7408500Y-6636500D01*
X7408500Y-6517500D02*
X7289500Y-6636500D01*
X7349000Y-6517500D02*
X7349000Y-6636500D01*
X7289500Y-6577000D02*
X7408500Y-6577000D01*
X7289500Y-6771500D02*
X7408500Y-6890500D01*
X7408500Y-6771500D02*
X7289500Y-6890500D01*
X7349000Y-6771500D02*
X7349000Y-6890500D01*
X7289500Y-6831000D02*
X7408500Y-6831000D01*
X7289500Y-7025500D02*
X7408500Y-7144500D01*
X7408500Y-7025500D02*
X7289500Y-7144500D01*
X7349000Y-7025500D02*
X7349000Y-7144500D01*
X7289500Y-7085000D02*
X7408500Y-7085000D01*
X7294500Y-4110500D02*
X7413500Y-4229500D01*
X7413500Y-4110500D02*
X7294500Y-4229500D01*
X7354000Y-4110500D02*
X7354000Y-4229500D01*
X7294500Y-4170000D02*
X7413500Y-4170000D01*
X7294500Y-4364500D02*
X7413500Y-4483500D01*
X7413500Y-4364500D02*
X7294500Y-4483500D01*
X7354000Y-4364500D02*
X7354000Y-4483500D01*
X7294500Y-4424000D02*
X7413500Y-4424000D01*
X7294500Y-4618500D02*
X7413500Y-4737500D01*
X7413500Y-4618500D02*
X7294500Y-4737500D01*
X7354000Y-4618500D02*
X7354000Y-4737500D01*
X7294500Y-4678000D02*
X7413500Y-4678000D01*
X7294500Y-4872500D02*
X7413500Y-4991500D01*
X7413500Y-4872500D02*
X7294500Y-4991500D01*
X7354000Y-4872500D02*
X7354000Y-4991500D01*
X7294500Y-4932000D02*
X7413500Y-4932000D01*
X7294500Y-5126500D02*
X7413500Y-5245500D01*
X7413500Y-5126500D02*
X7294500Y-5245500D01*
X7354000Y-5126500D02*
X7354000Y-5245500D01*
X7294500Y-5186000D02*
X7413500Y-5186000D01*
X7294500Y-5380500D02*
X7413500Y-5499500D01*
X7413500Y-5380500D02*
X7294500Y-5499500D01*
X7354000Y-5380500D02*
X7354000Y-5499500D01*
X7294500Y-5440000D02*
X7413500Y-5440000D01*
X9879500Y-10637500D02*
X9998500Y-10756500D01*
X9998500Y-10637500D02*
X9879500Y-10756500D01*
X9939000Y-10637500D02*
X9939000Y-10756500D01*
X9879500Y-10697000D02*
X9998500Y-10697000D01*
X9879500Y-10891500D02*
X9998500Y-11010500D01*
X9998500Y-10891500D02*
X9879500Y-11010500D01*
X9939000Y-10891500D02*
X9939000Y-11010500D01*
X9879500Y-10951000D02*
X9998500Y-10951000D01*
X9879500Y-11145500D02*
X9998500Y-11264500D01*
X9998500Y-11145500D02*
X9879500Y-11264500D01*
X9939000Y-11145500D02*
X9939000Y-11264500D01*
X9879500Y-11205000D02*
X9998500Y-11205000D01*
X10003200Y-9741700D02*
X10122200Y-9860700D01*
X10122200Y-9741700D02*
X10003200Y-9860700D01*
X10062700Y-9741700D02*
X10062700Y-9860700D01*
X10003200Y-9801200D02*
X10122200Y-9801200D01*
X10257200Y-9741700D02*
X10376200Y-9860700D01*
X10376200Y-9741700D02*
X10257200Y-9860700D01*
X10316700Y-9741700D02*
X10316700Y-9860700D01*
X10257200Y-9801200D02*
X10376200Y-9801200D01*
X10511200Y-9741700D02*
X10630200Y-9860700D01*
X10630200Y-9741700D02*
X10511200Y-9860700D01*
X10570700Y-9741700D02*
X10570700Y-9860700D01*
X10511200Y-9801200D02*
X10630200Y-9801200D01*
X10765200Y-9741700D02*
X10884200Y-9860700D01*
X10884200Y-9741700D02*
X10765200Y-9860700D01*
X10824700Y-9741700D02*
X10824700Y-9860700D01*
X10765200Y-9801200D02*
X10884200Y-9801200D01*
X11019200Y-9741700D02*
X11138200Y-9860700D01*
X11138200Y-9741700D02*
X11019200Y-9860700D01*
X11078700Y-9741700D02*
X11078700Y-9860700D01*
X11019200Y-9801200D02*
X11138200Y-9801200D01*
X11273200Y-9741700D02*
X11392200Y-9860700D01*
X11392200Y-9741700D02*
X11273200Y-9860700D01*
X11332700Y-9741700D02*
X11332700Y-9860700D01*
X11273200Y-9801200D02*
X11392200Y-9801200D01*
X12127000Y-10453200D02*
X12246000Y-10572200D01*
X12246000Y-10453200D02*
X12127000Y-10572200D01*
X12186500Y-10453200D02*
X12186500Y-10572200D01*
X12127000Y-10512700D02*
X12246000Y-10512700D01*
X12127000Y-10707200D02*
X12246000Y-10826200D01*
X12246000Y-10707200D02*
X12127000Y-10826200D01*
X12186500Y-10707200D02*
X12186500Y-10826200D01*
X12127000Y-10766700D02*
X12246000Y-10766700D01*
X12127000Y-10961200D02*
X12246000Y-11080200D01*
X12246000Y-10961200D02*
X12127000Y-11080200D01*
X12186500Y-10961200D02*
X12186500Y-11080200D01*
X12127000Y-11020700D02*
X12246000Y-11020700D01*
X12127000Y-11215200D02*
X12246000Y-11334200D01*
X12246000Y-11215200D02*
X12127000Y-11334200D01*
X12186500Y-11215200D02*
X12186500Y-11334200D01*
X12127000Y-11274700D02*
X12246000Y-11274700D01*
X16206800Y-9491500D02*
X16325800Y-9610500D01*
X16325800Y-9491500D02*
X16206800Y-9610500D01*
X16266300Y-9491500D02*
X16266300Y-9610500D01*
X16206800Y-9551000D02*
X16325800Y-9551000D01*
X16206800Y-9745500D02*
X16325800Y-9864500D01*
X16325800Y-9745500D02*
X16206800Y-9864500D01*
X16266300Y-9745500D02*
X16266300Y-9864500D01*
X16206800Y-9805000D02*
X16325800Y-9805000D01*
D18*
X9942500Y-7675000D02*
X10102500Y-7835000D01*
X10102500Y-7675000D02*
X9942500Y-7835000D01*
X10079069Y-7811569D02*
X10079069Y-7698431D01*
X9965931Y-7698431D01*
X9965931Y-7811569D01*
X10079069Y-7811569D01*
D19*
X12969000Y-6041000D02*
X13419000Y-6491000D01*
X13419000Y-6041000D02*
X12969000Y-6491000D01*
X13194000Y-6491000D02*
X13419000Y-6266000D01*
X13194000Y-6041000D01*
X12969000Y-6266000D01*
X13194000Y-6491000D01*
X13689000Y-6041000D02*
X14139000Y-6491000D01*
X14139000Y-6041000D02*
X13689000Y-6491000D01*
X13914000Y-6491000D02*
X14139000Y-6266000D01*
X13914000Y-6041000D01*
X13689000Y-6266000D01*
X13914000Y-6491000D01*
X16413500Y-4329500D02*
X16863500Y-4779500D01*
X16863500Y-4329500D02*
X16413500Y-4779500D01*
X16638500Y-4779500D02*
X16863500Y-4554500D01*
X16638500Y-4329500D01*
X16413500Y-4554500D01*
X16638500Y-4779500D01*
X16478500Y-7757000D02*
X16928500Y-8207000D01*
X16928500Y-7757000D02*
X16478500Y-8207000D01*
X16703500Y-8207000D02*
X16928500Y-7982000D01*
X16703500Y-7757000D01*
X16478500Y-7982000D01*
X16703500Y-8207000D01*
X16889500Y-4054500D02*
X17339500Y-4504500D01*
X17339500Y-4054500D02*
X16889500Y-4504500D01*
X17114500Y-4504500D02*
X17339500Y-4279500D01*
X17114500Y-4054500D01*
X16889500Y-4279500D01*
X17114500Y-4504500D01*
X16889500Y-4604500D02*
X17339500Y-5054500D01*
X17339500Y-4604500D02*
X16889500Y-5054500D01*
X17114500Y-5054500D02*
X17339500Y-4829500D01*
X17114500Y-4604500D01*
X16889500Y-4829500D01*
X17114500Y-5054500D01*
X16954500Y-7482000D02*
X17404500Y-7932000D01*
X17404500Y-7482000D02*
X16954500Y-7932000D01*
X17179500Y-7932000D02*
X17404500Y-7707000D01*
X17179500Y-7482000D01*
X16954500Y-7707000D01*
X17179500Y-7932000D01*
X16954500Y-8032000D02*
X17404500Y-8482000D01*
X17404500Y-8032000D02*
X16954500Y-8482000D01*
X17179500Y-8482000D02*
X17404500Y-8257000D01*
X17179500Y-8032000D01*
X16954500Y-8257000D01*
X17179500Y-8482000D01*
D11*
X6460119Y-11780024D02*
X6460119Y-11580024D01*
X6460119Y-11580024D02*
X6507738Y-11580024D01*
X6507738Y-11580024D02*
X6536309Y-11589548D01*
X6536309Y-11589548D02*
X6555357Y-11608595D01*
X6555357Y-11608595D02*
X6564881Y-11627643D01*
X6564881Y-11627643D02*
X6574405Y-11665738D01*
X6574405Y-11665738D02*
X6574405Y-11694309D01*
X6574405Y-11694309D02*
X6564881Y-11732405D01*
X6564881Y-11732405D02*
X6555357Y-11751452D01*
X6555357Y-11751452D02*
X6536309Y-11770500D01*
X6536309Y-11770500D02*
X6507738Y-11780024D01*
X6507738Y-11780024D02*
X6460119Y-11780024D01*
X6660119Y-11780024D02*
X6660119Y-11646690D01*
X6660119Y-11684786D02*
X6669643Y-11665738D01*
X6669643Y-11665738D02*
X6679167Y-11656214D01*
X6679167Y-11656214D02*
X6698214Y-11646690D01*
X6698214Y-11646690D02*
X6717262Y-11646690D01*
X6783928Y-11780024D02*
X6783928Y-11646690D01*
X6783928Y-11580024D02*
X6774405Y-11589548D01*
X6774405Y-11589548D02*
X6783928Y-11599071D01*
X6783928Y-11599071D02*
X6793452Y-11589548D01*
X6793452Y-11589548D02*
X6783928Y-11580024D01*
X6783928Y-11580024D02*
X6783928Y-11599071D01*
X6907738Y-11780024D02*
X6888690Y-11770500D01*
X6888690Y-11770500D02*
X6879167Y-11751452D01*
X6879167Y-11751452D02*
X6879167Y-11580024D01*
X7012500Y-11780024D02*
X6993452Y-11770500D01*
X6993452Y-11770500D02*
X6983928Y-11751452D01*
X6983928Y-11751452D02*
X6983928Y-11580024D01*
X7241071Y-11780024D02*
X7241071Y-11580024D01*
X7241071Y-11580024D02*
X7307738Y-11722881D01*
X7307738Y-11722881D02*
X7374405Y-11580024D01*
X7374405Y-11580024D02*
X7374405Y-11780024D01*
X7555357Y-11780024D02*
X7555357Y-11675262D01*
X7555357Y-11675262D02*
X7545833Y-11656214D01*
X7545833Y-11656214D02*
X7526786Y-11646690D01*
X7526786Y-11646690D02*
X7488690Y-11646690D01*
X7488690Y-11646690D02*
X7469643Y-11656214D01*
X7555357Y-11770500D02*
X7536309Y-11780024D01*
X7536309Y-11780024D02*
X7488690Y-11780024D01*
X7488690Y-11780024D02*
X7469643Y-11770500D01*
X7469643Y-11770500D02*
X7460119Y-11751452D01*
X7460119Y-11751452D02*
X7460119Y-11732405D01*
X7460119Y-11732405D02*
X7469643Y-11713357D01*
X7469643Y-11713357D02*
X7488690Y-11703833D01*
X7488690Y-11703833D02*
X7536309Y-11703833D01*
X7536309Y-11703833D02*
X7555357Y-11694309D01*
X7650595Y-11646690D02*
X7650595Y-11846690D01*
X7650595Y-11656214D02*
X7669643Y-11646690D01*
X7669643Y-11646690D02*
X7707738Y-11646690D01*
X7707738Y-11646690D02*
X7726786Y-11656214D01*
X7726786Y-11656214D02*
X7736309Y-11665738D01*
X7736309Y-11665738D02*
X7745833Y-11684786D01*
X7745833Y-11684786D02*
X7745833Y-11741928D01*
X7745833Y-11741928D02*
X7736309Y-11760976D01*
X7736309Y-11760976D02*
X7726786Y-11770500D01*
X7726786Y-11770500D02*
X7707738Y-11780024D01*
X7707738Y-11780024D02*
X7669643Y-11780024D01*
X7669643Y-11780024D02*
X7650595Y-11770500D01*
X7831548Y-11760976D02*
X7841071Y-11770500D01*
X7841071Y-11770500D02*
X7831548Y-11780024D01*
X7831548Y-11780024D02*
X7822024Y-11770500D01*
X7822024Y-11770500D02*
X7831548Y-11760976D01*
X7831548Y-11760976D02*
X7831548Y-11780024D01*
X7831548Y-11656214D02*
X7841071Y-11665738D01*
X7841071Y-11665738D02*
X7831548Y-11675262D01*
X7831548Y-11675262D02*
X7822024Y-11665738D01*
X7822024Y-11665738D02*
X7831548Y-11656214D01*
X7831548Y-11656214D02*
X7831548Y-11675262D01*
D12*
X6182500Y-12092500D02*
X6212500Y-12122500D01*
X6212500Y-12092500D02*
X6182500Y-12122500D01*
D11*
X6498214Y-12000024D02*
X6517262Y-12000024D01*
X6517262Y-12000024D02*
X6536309Y-12009548D01*
X6536309Y-12009548D02*
X6545833Y-12019071D01*
X6545833Y-12019071D02*
X6555357Y-12038119D01*
X6555357Y-12038119D02*
X6564881Y-12076214D01*
X6564881Y-12076214D02*
X6564881Y-12123833D01*
X6564881Y-12123833D02*
X6555357Y-12161928D01*
X6555357Y-12161928D02*
X6545833Y-12180976D01*
X6545833Y-12180976D02*
X6536309Y-12190500D01*
X6536309Y-12190500D02*
X6517262Y-12200024D01*
X6517262Y-12200024D02*
X6498214Y-12200024D01*
X6498214Y-12200024D02*
X6479167Y-12190500D01*
X6479167Y-12190500D02*
X6469643Y-12180976D01*
X6469643Y-12180976D02*
X6460119Y-12161928D01*
X6460119Y-12161928D02*
X6450595Y-12123833D01*
X6450595Y-12123833D02*
X6450595Y-12076214D01*
X6450595Y-12076214D02*
X6460119Y-12038119D01*
X6460119Y-12038119D02*
X6469643Y-12019071D01*
X6469643Y-12019071D02*
X6479167Y-12009548D01*
X6479167Y-12009548D02*
X6498214Y-12000024D01*
X6650595Y-12180976D02*
X6660119Y-12190500D01*
X6660119Y-12190500D02*
X6650595Y-12200024D01*
X6650595Y-12200024D02*
X6641071Y-12190500D01*
X6641071Y-12190500D02*
X6650595Y-12180976D01*
X6650595Y-12180976D02*
X6650595Y-12200024D01*
X6726786Y-12000024D02*
X6850595Y-12000024D01*
X6850595Y-12000024D02*
X6783928Y-12076214D01*
X6783928Y-12076214D02*
X6812500Y-12076214D01*
X6812500Y-12076214D02*
X6831548Y-12085738D01*
X6831548Y-12085738D02*
X6841071Y-12095262D01*
X6841071Y-12095262D02*
X6850595Y-12114309D01*
X6850595Y-12114309D02*
X6850595Y-12161928D01*
X6850595Y-12161928D02*
X6841071Y-12180976D01*
X6841071Y-12180976D02*
X6831548Y-12190500D01*
X6831548Y-12190500D02*
X6812500Y-12200024D01*
X6812500Y-12200024D02*
X6755357Y-12200024D01*
X6755357Y-12200024D02*
X6736309Y-12190500D01*
X6736309Y-12190500D02*
X6726786Y-12180976D01*
X6974405Y-12000024D02*
X6993452Y-12000024D01*
X6993452Y-12000024D02*
X7012500Y-12009548D01*
X7012500Y-12009548D02*
X7022024Y-12019071D01*
X7022024Y-12019071D02*
X7031548Y-12038119D01*
X7031548Y-12038119D02*
X7041071Y-12076214D01*
X7041071Y-12076214D02*
X7041071Y-12123833D01*
X7041071Y-12123833D02*
X7031548Y-12161928D01*
X7031548Y-12161928D02*
X7022024Y-12180976D01*
X7022024Y-12180976D02*
X7012500Y-12190500D01*
X7012500Y-12190500D02*
X6993452Y-12200024D01*
X6993452Y-12200024D02*
X6974405Y-12200024D01*
X6974405Y-12200024D02*
X6955357Y-12190500D01*
X6955357Y-12190500D02*
X6945833Y-12180976D01*
X6945833Y-12180976D02*
X6936309Y-12161928D01*
X6936309Y-12161928D02*
X6926786Y-12123833D01*
X6926786Y-12123833D02*
X6926786Y-12076214D01*
X6926786Y-12076214D02*
X6936309Y-12038119D01*
X6936309Y-12038119D02*
X6945833Y-12019071D01*
X6945833Y-12019071D02*
X6955357Y-12009548D01*
X6955357Y-12009548D02*
X6974405Y-12000024D01*
X7164881Y-12000024D02*
X7183929Y-12000024D01*
X7183929Y-12000024D02*
X7202976Y-12009548D01*
X7202976Y-12009548D02*
X7212500Y-12019071D01*
X7212500Y-12019071D02*
X7222024Y-12038119D01*
X7222024Y-12038119D02*
X7231548Y-12076214D01*
X7231548Y-12076214D02*
X7231548Y-12123833D01*
X7231548Y-12123833D02*
X7222024Y-12161928D01*
X7222024Y-12161928D02*
X7212500Y-12180976D01*
X7212500Y-12180976D02*
X7202976Y-12190500D01*
X7202976Y-12190500D02*
X7183929Y-12200024D01*
X7183929Y-12200024D02*
X7164881Y-12200024D01*
X7164881Y-12200024D02*
X7145833Y-12190500D01*
X7145833Y-12190500D02*
X7136309Y-12180976D01*
X7136309Y-12180976D02*
X7126786Y-12161928D01*
X7126786Y-12161928D02*
X7117262Y-12123833D01*
X7117262Y-12123833D02*
X7117262Y-12076214D01*
X7117262Y-12076214D02*
X7126786Y-12038119D01*
X7126786Y-12038119D02*
X7136309Y-12019071D01*
X7136309Y-12019071D02*
X7145833Y-12009548D01*
X7145833Y-12009548D02*
X7164881Y-12000024D01*
X7317262Y-12200024D02*
X7317262Y-12066690D01*
X7317262Y-12085738D02*
X7326786Y-12076214D01*
X7326786Y-12076214D02*
X7345833Y-12066690D01*
X7345833Y-12066690D02*
X7374405Y-12066690D01*
X7374405Y-12066690D02*
X7393452Y-12076214D01*
X7393452Y-12076214D02*
X7402976Y-12095262D01*
X7402976Y-12095262D02*
X7402976Y-12200024D01*
X7402976Y-12095262D02*
X7412500Y-12076214D01*
X7412500Y-12076214D02*
X7431548Y-12066690D01*
X7431548Y-12066690D02*
X7460119Y-12066690D01*
X7460119Y-12066690D02*
X7479167Y-12076214D01*
X7479167Y-12076214D02*
X7488690Y-12095262D01*
X7488690Y-12095262D02*
X7488690Y-12200024D01*
X7583929Y-12200024D02*
X7583929Y-12066690D01*
X7583929Y-12085738D02*
X7593452Y-12076214D01*
X7593452Y-12076214D02*
X7612500Y-12066690D01*
X7612500Y-12066690D02*
X7641071Y-12066690D01*
X7641071Y-12066690D02*
X7660119Y-12076214D01*
X7660119Y-12076214D02*
X7669643Y-12095262D01*
X7669643Y-12095262D02*
X7669643Y-12200024D01*
X7669643Y-12095262D02*
X7679167Y-12076214D01*
X7679167Y-12076214D02*
X7698214Y-12066690D01*
X7698214Y-12066690D02*
X7726786Y-12066690D01*
X7726786Y-12066690D02*
X7745833Y-12076214D01*
X7745833Y-12076214D02*
X7755357Y-12095262D01*
X7755357Y-12095262D02*
X7755357Y-12200024D01*
X8145833Y-11990500D02*
X7974405Y-12247643D01*
X8402976Y-12000024D02*
X8422024Y-12000024D01*
X8422024Y-12000024D02*
X8441072Y-12009548D01*
X8441072Y-12009548D02*
X8450595Y-12019071D01*
X8450595Y-12019071D02*
X8460119Y-12038119D01*
X8460119Y-12038119D02*
X8469643Y-12076214D01*
X8469643Y-12076214D02*
X8469643Y-12123833D01*
X8469643Y-12123833D02*
X8460119Y-12161928D01*
X8460119Y-12161928D02*
X8450595Y-12180976D01*
X8450595Y-12180976D02*
X8441072Y-12190500D01*
X8441072Y-12190500D02*
X8422024Y-12200024D01*
X8422024Y-12200024D02*
X8402976Y-12200024D01*
X8402976Y-12200024D02*
X8383929Y-12190500D01*
X8383929Y-12190500D02*
X8374405Y-12180976D01*
X8374405Y-12180976D02*
X8364881Y-12161928D01*
X8364881Y-12161928D02*
X8355357Y-12123833D01*
X8355357Y-12123833D02*
X8355357Y-12076214D01*
X8355357Y-12076214D02*
X8364881Y-12038119D01*
X8364881Y-12038119D02*
X8374405Y-12019071D01*
X8374405Y-12019071D02*
X8383929Y-12009548D01*
X8383929Y-12009548D02*
X8402976Y-12000024D01*
X8555357Y-12180976D02*
X8564881Y-12190500D01*
X8564881Y-12190500D02*
X8555357Y-12200024D01*
X8555357Y-12200024D02*
X8545834Y-12190500D01*
X8545834Y-12190500D02*
X8555357Y-12180976D01*
X8555357Y-12180976D02*
X8555357Y-12200024D01*
X8688691Y-12000024D02*
X8707738Y-12000024D01*
X8707738Y-12000024D02*
X8726786Y-12009548D01*
X8726786Y-12009548D02*
X8736310Y-12019071D01*
X8736310Y-12019071D02*
X8745834Y-12038119D01*
X8745834Y-12038119D02*
X8755357Y-12076214D01*
X8755357Y-12076214D02*
X8755357Y-12123833D01*
X8755357Y-12123833D02*
X8745834Y-12161928D01*
X8745834Y-12161928D02*
X8736310Y-12180976D01*
X8736310Y-12180976D02*
X8726786Y-12190500D01*
X8726786Y-12190500D02*
X8707738Y-12200024D01*
X8707738Y-12200024D02*
X8688691Y-12200024D01*
X8688691Y-12200024D02*
X8669643Y-12190500D01*
X8669643Y-12190500D02*
X8660119Y-12180976D01*
X8660119Y-12180976D02*
X8650595Y-12161928D01*
X8650595Y-12161928D02*
X8641072Y-12123833D01*
X8641072Y-12123833D02*
X8641072Y-12076214D01*
X8641072Y-12076214D02*
X8650595Y-12038119D01*
X8650595Y-12038119D02*
X8660119Y-12019071D01*
X8660119Y-12019071D02*
X8669643Y-12009548D01*
X8669643Y-12009548D02*
X8688691Y-12000024D01*
X8945834Y-12200024D02*
X8831548Y-12200024D01*
X8888691Y-12200024D02*
X8888691Y-12000024D01*
X8888691Y-12000024D02*
X8869643Y-12028595D01*
X8869643Y-12028595D02*
X8850595Y-12047643D01*
X8850595Y-12047643D02*
X8831548Y-12057167D01*
X9136310Y-12200024D02*
X9022024Y-12200024D01*
X9079167Y-12200024D02*
X9079167Y-12000024D01*
X9079167Y-12000024D02*
X9060119Y-12028595D01*
X9060119Y-12028595D02*
X9041072Y-12047643D01*
X9041072Y-12047643D02*
X9022024Y-12057167D01*
X9250595Y-12085738D02*
X9231548Y-12076214D01*
X9231548Y-12076214D02*
X9222024Y-12066690D01*
X9222024Y-12066690D02*
X9212500Y-12047643D01*
X9212500Y-12047643D02*
X9212500Y-12038119D01*
X9212500Y-12038119D02*
X9222024Y-12019071D01*
X9222024Y-12019071D02*
X9231548Y-12009548D01*
X9231548Y-12009548D02*
X9250595Y-12000024D01*
X9250595Y-12000024D02*
X9288691Y-12000024D01*
X9288691Y-12000024D02*
X9307738Y-12009548D01*
X9307738Y-12009548D02*
X9317262Y-12019071D01*
X9317262Y-12019071D02*
X9326786Y-12038119D01*
X9326786Y-12038119D02*
X9326786Y-12047643D01*
X9326786Y-12047643D02*
X9317262Y-12066690D01*
X9317262Y-12066690D02*
X9307738Y-12076214D01*
X9307738Y-12076214D02*
X9288691Y-12085738D01*
X9288691Y-12085738D02*
X9250595Y-12085738D01*
X9250595Y-12085738D02*
X9231548Y-12095262D01*
X9231548Y-12095262D02*
X9222024Y-12104786D01*
X9222024Y-12104786D02*
X9212500Y-12123833D01*
X9212500Y-12123833D02*
X9212500Y-12161928D01*
X9212500Y-12161928D02*
X9222024Y-12180976D01*
X9222024Y-12180976D02*
X9231548Y-12190500D01*
X9231548Y-12190500D02*
X9250595Y-12200024D01*
X9250595Y-12200024D02*
X9288691Y-12200024D01*
X9288691Y-12200024D02*
X9307738Y-12190500D01*
X9307738Y-12190500D02*
X9317262Y-12180976D01*
X9317262Y-12180976D02*
X9326786Y-12161928D01*
X9326786Y-12161928D02*
X9326786Y-12123833D01*
X9326786Y-12123833D02*
X9317262Y-12104786D01*
X9317262Y-12104786D02*
X9307738Y-12095262D01*
X9307738Y-12095262D02*
X9288691Y-12085738D01*
X9402976Y-12000024D02*
X9402976Y-12038119D01*
X9479167Y-12000024D02*
X9479167Y-12038119D01*
X9774405Y-12276214D02*
X9764881Y-12266690D01*
X9764881Y-12266690D02*
X9745834Y-12238119D01*
X9745834Y-12238119D02*
X9736310Y-12219071D01*
X9736310Y-12219071D02*
X9726786Y-12190500D01*
X9726786Y-12190500D02*
X9717262Y-12142881D01*
X9717262Y-12142881D02*
X9717262Y-12104786D01*
X9717262Y-12104786D02*
X9726786Y-12057167D01*
X9726786Y-12057167D02*
X9736310Y-12028595D01*
X9736310Y-12028595D02*
X9745834Y-12009548D01*
X9745834Y-12009548D02*
X9764881Y-11980976D01*
X9764881Y-11980976D02*
X9774405Y-11971452D01*
X9841072Y-12019071D02*
X9850596Y-12009548D01*
X9850596Y-12009548D02*
X9869643Y-12000024D01*
X9869643Y-12000024D02*
X9917262Y-12000024D01*
X9917262Y-12000024D02*
X9936310Y-12009548D01*
X9936310Y-12009548D02*
X9945834Y-12019071D01*
X9945834Y-12019071D02*
X9955357Y-12038119D01*
X9955357Y-12038119D02*
X9955357Y-12057167D01*
X9955357Y-12057167D02*
X9945834Y-12085738D01*
X9945834Y-12085738D02*
X9831548Y-12200024D01*
X9831548Y-12200024D02*
X9955357Y-12200024D01*
X10126786Y-12066690D02*
X10126786Y-12200024D01*
X10079167Y-11990500D02*
X10031548Y-12133357D01*
X10031548Y-12133357D02*
X10155357Y-12133357D01*
X10383929Y-12200024D02*
X10383929Y-12000024D01*
X10469643Y-12200024D02*
X10469643Y-12095262D01*
X10469643Y-12095262D02*
X10460119Y-12076214D01*
X10460119Y-12076214D02*
X10441072Y-12066690D01*
X10441072Y-12066690D02*
X10412500Y-12066690D01*
X10412500Y-12066690D02*
X10393453Y-12076214D01*
X10393453Y-12076214D02*
X10383929Y-12085738D01*
X10593453Y-12200024D02*
X10574405Y-12190500D01*
X10574405Y-12190500D02*
X10564881Y-12180976D01*
X10564881Y-12180976D02*
X10555358Y-12161928D01*
X10555358Y-12161928D02*
X10555358Y-12104786D01*
X10555358Y-12104786D02*
X10564881Y-12085738D01*
X10564881Y-12085738D02*
X10574405Y-12076214D01*
X10574405Y-12076214D02*
X10593453Y-12066690D01*
X10593453Y-12066690D02*
X10622024Y-12066690D01*
X10622024Y-12066690D02*
X10641072Y-12076214D01*
X10641072Y-12076214D02*
X10650596Y-12085738D01*
X10650596Y-12085738D02*
X10660119Y-12104786D01*
X10660119Y-12104786D02*
X10660119Y-12161928D01*
X10660119Y-12161928D02*
X10650596Y-12180976D01*
X10650596Y-12180976D02*
X10641072Y-12190500D01*
X10641072Y-12190500D02*
X10622024Y-12200024D01*
X10622024Y-12200024D02*
X10593453Y-12200024D01*
X10774405Y-12200024D02*
X10755358Y-12190500D01*
X10755358Y-12190500D02*
X10745834Y-12171452D01*
X10745834Y-12171452D02*
X10745834Y-12000024D01*
X10926786Y-12190500D02*
X10907739Y-12200024D01*
X10907739Y-12200024D02*
X10869643Y-12200024D01*
X10869643Y-12200024D02*
X10850596Y-12190500D01*
X10850596Y-12190500D02*
X10841072Y-12171452D01*
X10841072Y-12171452D02*
X10841072Y-12095262D01*
X10841072Y-12095262D02*
X10850596Y-12076214D01*
X10850596Y-12076214D02*
X10869643Y-12066690D01*
X10869643Y-12066690D02*
X10907739Y-12066690D01*
X10907739Y-12066690D02*
X10926786Y-12076214D01*
X10926786Y-12076214D02*
X10936310Y-12095262D01*
X10936310Y-12095262D02*
X10936310Y-12114309D01*
X10936310Y-12114309D02*
X10841072Y-12133357D01*
X11012500Y-12190500D02*
X11031548Y-12200024D01*
X11031548Y-12200024D02*
X11069643Y-12200024D01*
X11069643Y-12200024D02*
X11088691Y-12190500D01*
X11088691Y-12190500D02*
X11098215Y-12171452D01*
X11098215Y-12171452D02*
X11098215Y-12161928D01*
X11098215Y-12161928D02*
X11088691Y-12142881D01*
X11088691Y-12142881D02*
X11069643Y-12133357D01*
X11069643Y-12133357D02*
X11041072Y-12133357D01*
X11041072Y-12133357D02*
X11022024Y-12123833D01*
X11022024Y-12123833D02*
X11012500Y-12104786D01*
X11012500Y-12104786D02*
X11012500Y-12095262D01*
X11012500Y-12095262D02*
X11022024Y-12076214D01*
X11022024Y-12076214D02*
X11041072Y-12066690D01*
X11041072Y-12066690D02*
X11069643Y-12066690D01*
X11069643Y-12066690D02*
X11088691Y-12076214D01*
X11164881Y-12276214D02*
X11174405Y-12266690D01*
X11174405Y-12266690D02*
X11193453Y-12238119D01*
X11193453Y-12238119D02*
X11202977Y-12219071D01*
X11202977Y-12219071D02*
X11212500Y-12190500D01*
X11212500Y-12190500D02*
X11222024Y-12142881D01*
X11222024Y-12142881D02*
X11222024Y-12104786D01*
X11222024Y-12104786D02*
X11212500Y-12057167D01*
X11212500Y-12057167D02*
X11202977Y-12028595D01*
X11202977Y-12028595D02*
X11193453Y-12009548D01*
X11193453Y-12009548D02*
X11174405Y-11980976D01*
X11174405Y-11980976D02*
X11164881Y-11971452D01*
D13*
X6212500Y-12371500D02*
G75*
G03*
X6212500Y-12371500I-20000J0D01*
G01*
D11*
X6498214Y-12264024D02*
X6517262Y-12264024D01*
X6517262Y-12264024D02*
X6536309Y-12273548D01*
X6536309Y-12273548D02*
X6545833Y-12283071D01*
X6545833Y-12283071D02*
X6555357Y-12302119D01*
X6555357Y-12302119D02*
X6564881Y-12340214D01*
X6564881Y-12340214D02*
X6564881Y-12387833D01*
X6564881Y-12387833D02*
X6555357Y-12425928D01*
X6555357Y-12425928D02*
X6545833Y-12444976D01*
X6545833Y-12444976D02*
X6536309Y-12454500D01*
X6536309Y-12454500D02*
X6517262Y-12464024D01*
X6517262Y-12464024D02*
X6498214Y-12464024D01*
X6498214Y-12464024D02*
X6479167Y-12454500D01*
X6479167Y-12454500D02*
X6469643Y-12444976D01*
X6469643Y-12444976D02*
X6460119Y-12425928D01*
X6460119Y-12425928D02*
X6450595Y-12387833D01*
X6450595Y-12387833D02*
X6450595Y-12340214D01*
X6450595Y-12340214D02*
X6460119Y-12302119D01*
X6460119Y-12302119D02*
X6469643Y-12283071D01*
X6469643Y-12283071D02*
X6479167Y-12273548D01*
X6479167Y-12273548D02*
X6498214Y-12264024D01*
X6650595Y-12444976D02*
X6660119Y-12454500D01*
X6660119Y-12454500D02*
X6650595Y-12464024D01*
X6650595Y-12464024D02*
X6641071Y-12454500D01*
X6641071Y-12454500D02*
X6650595Y-12444976D01*
X6650595Y-12444976D02*
X6650595Y-12464024D01*
X6831548Y-12330690D02*
X6831548Y-12464024D01*
X6783928Y-12254500D02*
X6736309Y-12397357D01*
X6736309Y-12397357D02*
X6860119Y-12397357D01*
X6974405Y-12264024D02*
X6993452Y-12264024D01*
X6993452Y-12264024D02*
X7012500Y-12273548D01*
X7012500Y-12273548D02*
X7022024Y-12283071D01*
X7022024Y-12283071D02*
X7031548Y-12302119D01*
X7031548Y-12302119D02*
X7041071Y-12340214D01*
X7041071Y-12340214D02*
X7041071Y-12387833D01*
X7041071Y-12387833D02*
X7031548Y-12425928D01*
X7031548Y-12425928D02*
X7022024Y-12444976D01*
X7022024Y-12444976D02*
X7012500Y-12454500D01*
X7012500Y-12454500D02*
X6993452Y-12464024D01*
X6993452Y-12464024D02*
X6974405Y-12464024D01*
X6974405Y-12464024D02*
X6955357Y-12454500D01*
X6955357Y-12454500D02*
X6945833Y-12444976D01*
X6945833Y-12444976D02*
X6936309Y-12425928D01*
X6936309Y-12425928D02*
X6926786Y-12387833D01*
X6926786Y-12387833D02*
X6926786Y-12340214D01*
X6926786Y-12340214D02*
X6936309Y-12302119D01*
X6936309Y-12302119D02*
X6945833Y-12283071D01*
X6945833Y-12283071D02*
X6955357Y-12273548D01*
X6955357Y-12273548D02*
X6974405Y-12264024D01*
X7164881Y-12264024D02*
X7183929Y-12264024D01*
X7183929Y-12264024D02*
X7202976Y-12273548D01*
X7202976Y-12273548D02*
X7212500Y-12283071D01*
X7212500Y-12283071D02*
X7222024Y-12302119D01*
X7222024Y-12302119D02*
X7231548Y-12340214D01*
X7231548Y-12340214D02*
X7231548Y-12387833D01*
X7231548Y-12387833D02*
X7222024Y-12425928D01*
X7222024Y-12425928D02*
X7212500Y-12444976D01*
X7212500Y-12444976D02*
X7202976Y-12454500D01*
X7202976Y-12454500D02*
X7183929Y-12464024D01*
X7183929Y-12464024D02*
X7164881Y-12464024D01*
X7164881Y-12464024D02*
X7145833Y-12454500D01*
X7145833Y-12454500D02*
X7136309Y-12444976D01*
X7136309Y-12444976D02*
X7126786Y-12425928D01*
X7126786Y-12425928D02*
X7117262Y-12387833D01*
X7117262Y-12387833D02*
X7117262Y-12340214D01*
X7117262Y-12340214D02*
X7126786Y-12302119D01*
X7126786Y-12302119D02*
X7136309Y-12283071D01*
X7136309Y-12283071D02*
X7145833Y-12273548D01*
X7145833Y-12273548D02*
X7164881Y-12264024D01*
X7317262Y-12464024D02*
X7317262Y-12330690D01*
X7317262Y-12349738D02*
X7326786Y-12340214D01*
X7326786Y-12340214D02*
X7345833Y-12330690D01*
X7345833Y-12330690D02*
X7374405Y-12330690D01*
X7374405Y-12330690D02*
X7393452Y-12340214D01*
X7393452Y-12340214D02*
X7402976Y-12359262D01*
X7402976Y-12359262D02*
X7402976Y-12464024D01*
X7402976Y-12359262D02*
X7412500Y-12340214D01*
X7412500Y-12340214D02*
X7431548Y-12330690D01*
X7431548Y-12330690D02*
X7460119Y-12330690D01*
X7460119Y-12330690D02*
X7479167Y-12340214D01*
X7479167Y-12340214D02*
X7488690Y-12359262D01*
X7488690Y-12359262D02*
X7488690Y-12464024D01*
X7583929Y-12464024D02*
X7583929Y-12330690D01*
X7583929Y-12349738D02*
X7593452Y-12340214D01*
X7593452Y-12340214D02*
X7612500Y-12330690D01*
X7612500Y-12330690D02*
X7641071Y-12330690D01*
X7641071Y-12330690D02*
X7660119Y-12340214D01*
X7660119Y-12340214D02*
X7669643Y-12359262D01*
X7669643Y-12359262D02*
X7669643Y-12464024D01*
X7669643Y-12359262D02*
X7679167Y-12340214D01*
X7679167Y-12340214D02*
X7698214Y-12330690D01*
X7698214Y-12330690D02*
X7726786Y-12330690D01*
X7726786Y-12330690D02*
X7745833Y-12340214D01*
X7745833Y-12340214D02*
X7755357Y-12359262D01*
X7755357Y-12359262D02*
X7755357Y-12464024D01*
X8145833Y-12254500D02*
X7974405Y-12511643D01*
X8402976Y-12264024D02*
X8422024Y-12264024D01*
X8422024Y-12264024D02*
X8441072Y-12273548D01*
X8441072Y-12273548D02*
X8450595Y-12283071D01*
X8450595Y-12283071D02*
X8460119Y-12302119D01*
X8460119Y-12302119D02*
X8469643Y-12340214D01*
X8469643Y-12340214D02*
X8469643Y-12387833D01*
X8469643Y-12387833D02*
X8460119Y-12425928D01*
X8460119Y-12425928D02*
X8450595Y-12444976D01*
X8450595Y-12444976D02*
X8441072Y-12454500D01*
X8441072Y-12454500D02*
X8422024Y-12464024D01*
X8422024Y-12464024D02*
X8402976Y-12464024D01*
X8402976Y-12464024D02*
X8383929Y-12454500D01*
X8383929Y-12454500D02*
X8374405Y-12444976D01*
X8374405Y-12444976D02*
X8364881Y-12425928D01*
X8364881Y-12425928D02*
X8355357Y-12387833D01*
X8355357Y-12387833D02*
X8355357Y-12340214D01*
X8355357Y-12340214D02*
X8364881Y-12302119D01*
X8364881Y-12302119D02*
X8374405Y-12283071D01*
X8374405Y-12283071D02*
X8383929Y-12273548D01*
X8383929Y-12273548D02*
X8402976Y-12264024D01*
X8555357Y-12444976D02*
X8564881Y-12454500D01*
X8564881Y-12454500D02*
X8555357Y-12464024D01*
X8555357Y-12464024D02*
X8545834Y-12454500D01*
X8545834Y-12454500D02*
X8555357Y-12444976D01*
X8555357Y-12444976D02*
X8555357Y-12464024D01*
X8688691Y-12264024D02*
X8707738Y-12264024D01*
X8707738Y-12264024D02*
X8726786Y-12273548D01*
X8726786Y-12273548D02*
X8736310Y-12283071D01*
X8736310Y-12283071D02*
X8745834Y-12302119D01*
X8745834Y-12302119D02*
X8755357Y-12340214D01*
X8755357Y-12340214D02*
X8755357Y-12387833D01*
X8755357Y-12387833D02*
X8745834Y-12425928D01*
X8745834Y-12425928D02*
X8736310Y-12444976D01*
X8736310Y-12444976D02*
X8726786Y-12454500D01*
X8726786Y-12454500D02*
X8707738Y-12464024D01*
X8707738Y-12464024D02*
X8688691Y-12464024D01*
X8688691Y-12464024D02*
X8669643Y-12454500D01*
X8669643Y-12454500D02*
X8660119Y-12444976D01*
X8660119Y-12444976D02*
X8650595Y-12425928D01*
X8650595Y-12425928D02*
X8641072Y-12387833D01*
X8641072Y-12387833D02*
X8641072Y-12340214D01*
X8641072Y-12340214D02*
X8650595Y-12302119D01*
X8650595Y-12302119D02*
X8660119Y-12283071D01*
X8660119Y-12283071D02*
X8669643Y-12273548D01*
X8669643Y-12273548D02*
X8688691Y-12264024D01*
X8945834Y-12464024D02*
X8831548Y-12464024D01*
X8888691Y-12464024D02*
X8888691Y-12264024D01*
X8888691Y-12264024D02*
X8869643Y-12292595D01*
X8869643Y-12292595D02*
X8850595Y-12311643D01*
X8850595Y-12311643D02*
X8831548Y-12321167D01*
X9126786Y-12264024D02*
X9031548Y-12264024D01*
X9031548Y-12264024D02*
X9022024Y-12359262D01*
X9022024Y-12359262D02*
X9031548Y-12349738D01*
X9031548Y-12349738D02*
X9050595Y-12340214D01*
X9050595Y-12340214D02*
X9098215Y-12340214D01*
X9098215Y-12340214D02*
X9117262Y-12349738D01*
X9117262Y-12349738D02*
X9126786Y-12359262D01*
X9126786Y-12359262D02*
X9136310Y-12378309D01*
X9136310Y-12378309D02*
X9136310Y-12425928D01*
X9136310Y-12425928D02*
X9126786Y-12444976D01*
X9126786Y-12444976D02*
X9117262Y-12454500D01*
X9117262Y-12454500D02*
X9098215Y-12464024D01*
X9098215Y-12464024D02*
X9050595Y-12464024D01*
X9050595Y-12464024D02*
X9031548Y-12454500D01*
X9031548Y-12454500D02*
X9022024Y-12444976D01*
X9202976Y-12264024D02*
X9336310Y-12264024D01*
X9336310Y-12264024D02*
X9250595Y-12464024D01*
X9402976Y-12264024D02*
X9402976Y-12302119D01*
X9479167Y-12264024D02*
X9479167Y-12302119D01*
X9774405Y-12540214D02*
X9764881Y-12530690D01*
X9764881Y-12530690D02*
X9745834Y-12502119D01*
X9745834Y-12502119D02*
X9736310Y-12483071D01*
X9736310Y-12483071D02*
X9726786Y-12454500D01*
X9726786Y-12454500D02*
X9717262Y-12406881D01*
X9717262Y-12406881D02*
X9717262Y-12368786D01*
X9717262Y-12368786D02*
X9726786Y-12321167D01*
X9726786Y-12321167D02*
X9736310Y-12292595D01*
X9736310Y-12292595D02*
X9745834Y-12273548D01*
X9745834Y-12273548D02*
X9764881Y-12244976D01*
X9764881Y-12244976D02*
X9774405Y-12235452D01*
X9831548Y-12264024D02*
X9964881Y-12264024D01*
X9964881Y-12264024D02*
X9879167Y-12464024D01*
X10079167Y-12264024D02*
X10098215Y-12264024D01*
X10098215Y-12264024D02*
X10117262Y-12273548D01*
X10117262Y-12273548D02*
X10126786Y-12283071D01*
X10126786Y-12283071D02*
X10136310Y-12302119D01*
X10136310Y-12302119D02*
X10145834Y-12340214D01*
X10145834Y-12340214D02*
X10145834Y-12387833D01*
X10145834Y-12387833D02*
X10136310Y-12425928D01*
X10136310Y-12425928D02*
X10126786Y-12444976D01*
X10126786Y-12444976D02*
X10117262Y-12454500D01*
X10117262Y-12454500D02*
X10098215Y-12464024D01*
X10098215Y-12464024D02*
X10079167Y-12464024D01*
X10079167Y-12464024D02*
X10060119Y-12454500D01*
X10060119Y-12454500D02*
X10050596Y-12444976D01*
X10050596Y-12444976D02*
X10041072Y-12425928D01*
X10041072Y-12425928D02*
X10031548Y-12387833D01*
X10031548Y-12387833D02*
X10031548Y-12340214D01*
X10031548Y-12340214D02*
X10041072Y-12302119D01*
X10041072Y-12302119D02*
X10050596Y-12283071D01*
X10050596Y-12283071D02*
X10060119Y-12273548D01*
X10060119Y-12273548D02*
X10079167Y-12264024D01*
X10336310Y-12464024D02*
X10222024Y-12464024D01*
X10279167Y-12464024D02*
X10279167Y-12264024D01*
X10279167Y-12264024D02*
X10260119Y-12292595D01*
X10260119Y-12292595D02*
X10241072Y-12311643D01*
X10241072Y-12311643D02*
X10222024Y-12321167D01*
X10574405Y-12464024D02*
X10574405Y-12264024D01*
X10660119Y-12464024D02*
X10660119Y-12359262D01*
X10660119Y-12359262D02*
X10650596Y-12340214D01*
X10650596Y-12340214D02*
X10631548Y-12330690D01*
X10631548Y-12330690D02*
X10602977Y-12330690D01*
X10602977Y-12330690D02*
X10583929Y-12340214D01*
X10583929Y-12340214D02*
X10574405Y-12349738D01*
X10783929Y-12464024D02*
X10764881Y-12454500D01*
X10764881Y-12454500D02*
X10755358Y-12444976D01*
X10755358Y-12444976D02*
X10745834Y-12425928D01*
X10745834Y-12425928D02*
X10745834Y-12368786D01*
X10745834Y-12368786D02*
X10755358Y-12349738D01*
X10755358Y-12349738D02*
X10764881Y-12340214D01*
X10764881Y-12340214D02*
X10783929Y-12330690D01*
X10783929Y-12330690D02*
X10812500Y-12330690D01*
X10812500Y-12330690D02*
X10831548Y-12340214D01*
X10831548Y-12340214D02*
X10841072Y-12349738D01*
X10841072Y-12349738D02*
X10850596Y-12368786D01*
X10850596Y-12368786D02*
X10850596Y-12425928D01*
X10850596Y-12425928D02*
X10841072Y-12444976D01*
X10841072Y-12444976D02*
X10831548Y-12454500D01*
X10831548Y-12454500D02*
X10812500Y-12464024D01*
X10812500Y-12464024D02*
X10783929Y-12464024D01*
X10964881Y-12464024D02*
X10945834Y-12454500D01*
X10945834Y-12454500D02*
X10936310Y-12435452D01*
X10936310Y-12435452D02*
X10936310Y-12264024D01*
X11117262Y-12454500D02*
X11098215Y-12464024D01*
X11098215Y-12464024D02*
X11060119Y-12464024D01*
X11060119Y-12464024D02*
X11041072Y-12454500D01*
X11041072Y-12454500D02*
X11031548Y-12435452D01*
X11031548Y-12435452D02*
X11031548Y-12359262D01*
X11031548Y-12359262D02*
X11041072Y-12340214D01*
X11041072Y-12340214D02*
X11060119Y-12330690D01*
X11060119Y-12330690D02*
X11098215Y-12330690D01*
X11098215Y-12330690D02*
X11117262Y-12340214D01*
X11117262Y-12340214D02*
X11126786Y-12359262D01*
X11126786Y-12359262D02*
X11126786Y-12378309D01*
X11126786Y-12378309D02*
X11031548Y-12397357D01*
X11202977Y-12454500D02*
X11222024Y-12464024D01*
X11222024Y-12464024D02*
X11260119Y-12464024D01*
X11260119Y-12464024D02*
X11279167Y-12454500D01*
X11279167Y-12454500D02*
X11288691Y-12435452D01*
X11288691Y-12435452D02*
X11288691Y-12425928D01*
X11288691Y-12425928D02*
X11279167Y-12406881D01*
X11279167Y-12406881D02*
X11260119Y-12397357D01*
X11260119Y-12397357D02*
X11231548Y-12397357D01*
X11231548Y-12397357D02*
X11212500Y-12387833D01*
X11212500Y-12387833D02*
X11202977Y-12368786D01*
X11202977Y-12368786D02*
X11202977Y-12359262D01*
X11202977Y-12359262D02*
X11212500Y-12340214D01*
X11212500Y-12340214D02*
X11231548Y-12330690D01*
X11231548Y-12330690D02*
X11260119Y-12330690D01*
X11260119Y-12330690D02*
X11279167Y-12340214D01*
X11355358Y-12540214D02*
X11364881Y-12530690D01*
X11364881Y-12530690D02*
X11383929Y-12502119D01*
X11383929Y-12502119D02*
X11393453Y-12483071D01*
X11393453Y-12483071D02*
X11402977Y-12454500D01*
X11402977Y-12454500D02*
X11412500Y-12406881D01*
X11412500Y-12406881D02*
X11412500Y-12368786D01*
X11412500Y-12368786D02*
X11402977Y-12321167D01*
X11402977Y-12321167D02*
X11393453Y-12292595D01*
X11393453Y-12292595D02*
X11383929Y-12273548D01*
X11383929Y-12273548D02*
X11364881Y-12244976D01*
X11364881Y-12244976D02*
X11355358Y-12235452D01*
D14*
X6182500Y-12605500D02*
X6182500Y-12665500D01*
X6152500Y-12635500D02*
X6212500Y-12635500D01*
D11*
X6498214Y-12528024D02*
X6517262Y-12528024D01*
X6517262Y-12528024D02*
X6536309Y-12537548D01*
X6536309Y-12537548D02*
X6545833Y-12547071D01*
X6545833Y-12547071D02*
X6555357Y-12566119D01*
X6555357Y-12566119D02*
X6564881Y-12604214D01*
X6564881Y-12604214D02*
X6564881Y-12651833D01*
X6564881Y-12651833D02*
X6555357Y-12689928D01*
X6555357Y-12689928D02*
X6545833Y-12708976D01*
X6545833Y-12708976D02*
X6536309Y-12718500D01*
X6536309Y-12718500D02*
X6517262Y-12728024D01*
X6517262Y-12728024D02*
X6498214Y-12728024D01*
X6498214Y-12728024D02*
X6479167Y-12718500D01*
X6479167Y-12718500D02*
X6469643Y-12708976D01*
X6469643Y-12708976D02*
X6460119Y-12689928D01*
X6460119Y-12689928D02*
X6450595Y-12651833D01*
X6450595Y-12651833D02*
X6450595Y-12604214D01*
X6450595Y-12604214D02*
X6460119Y-12566119D01*
X6460119Y-12566119D02*
X6469643Y-12547071D01*
X6469643Y-12547071D02*
X6479167Y-12537548D01*
X6479167Y-12537548D02*
X6498214Y-12528024D01*
X6650595Y-12708976D02*
X6660119Y-12718500D01*
X6660119Y-12718500D02*
X6650595Y-12728024D01*
X6650595Y-12728024D02*
X6641071Y-12718500D01*
X6641071Y-12718500D02*
X6650595Y-12708976D01*
X6650595Y-12708976D02*
X6650595Y-12728024D01*
X6831548Y-12528024D02*
X6793452Y-12528024D01*
X6793452Y-12528024D02*
X6774405Y-12537548D01*
X6774405Y-12537548D02*
X6764881Y-12547071D01*
X6764881Y-12547071D02*
X6745833Y-12575643D01*
X6745833Y-12575643D02*
X6736309Y-12613738D01*
X6736309Y-12613738D02*
X6736309Y-12689928D01*
X6736309Y-12689928D02*
X6745833Y-12708976D01*
X6745833Y-12708976D02*
X6755357Y-12718500D01*
X6755357Y-12718500D02*
X6774405Y-12728024D01*
X6774405Y-12728024D02*
X6812500Y-12728024D01*
X6812500Y-12728024D02*
X6831548Y-12718500D01*
X6831548Y-12718500D02*
X6841071Y-12708976D01*
X6841071Y-12708976D02*
X6850595Y-12689928D01*
X6850595Y-12689928D02*
X6850595Y-12642309D01*
X6850595Y-12642309D02*
X6841071Y-12623262D01*
X6841071Y-12623262D02*
X6831548Y-12613738D01*
X6831548Y-12613738D02*
X6812500Y-12604214D01*
X6812500Y-12604214D02*
X6774405Y-12604214D01*
X6774405Y-12604214D02*
X6755357Y-12613738D01*
X6755357Y-12613738D02*
X6745833Y-12623262D01*
X6745833Y-12623262D02*
X6736309Y-12642309D01*
X6974405Y-12528024D02*
X6993452Y-12528024D01*
X6993452Y-12528024D02*
X7012500Y-12537548D01*
X7012500Y-12537548D02*
X7022024Y-12547071D01*
X7022024Y-12547071D02*
X7031548Y-12566119D01*
X7031548Y-12566119D02*
X7041071Y-12604214D01*
X7041071Y-12604214D02*
X7041071Y-12651833D01*
X7041071Y-12651833D02*
X7031548Y-12689928D01*
X7031548Y-12689928D02*
X7022024Y-12708976D01*
X7022024Y-12708976D02*
X7012500Y-12718500D01*
X7012500Y-12718500D02*
X6993452Y-12728024D01*
X6993452Y-12728024D02*
X6974405Y-12728024D01*
X6974405Y-12728024D02*
X6955357Y-12718500D01*
X6955357Y-12718500D02*
X6945833Y-12708976D01*
X6945833Y-12708976D02*
X6936309Y-12689928D01*
X6936309Y-12689928D02*
X6926786Y-12651833D01*
X6926786Y-12651833D02*
X6926786Y-12604214D01*
X6926786Y-12604214D02*
X6936309Y-12566119D01*
X6936309Y-12566119D02*
X6945833Y-12547071D01*
X6945833Y-12547071D02*
X6955357Y-12537548D01*
X6955357Y-12537548D02*
X6974405Y-12528024D01*
X7164881Y-12528024D02*
X7183929Y-12528024D01*
X7183929Y-12528024D02*
X7202976Y-12537548D01*
X7202976Y-12537548D02*
X7212500Y-12547071D01*
X7212500Y-12547071D02*
X7222024Y-12566119D01*
X7222024Y-12566119D02*
X7231548Y-12604214D01*
X7231548Y-12604214D02*
X7231548Y-12651833D01*
X7231548Y-12651833D02*
X7222024Y-12689928D01*
X7222024Y-12689928D02*
X7212500Y-12708976D01*
X7212500Y-12708976D02*
X7202976Y-12718500D01*
X7202976Y-12718500D02*
X7183929Y-12728024D01*
X7183929Y-12728024D02*
X7164881Y-12728024D01*
X7164881Y-12728024D02*
X7145833Y-12718500D01*
X7145833Y-12718500D02*
X7136309Y-12708976D01*
X7136309Y-12708976D02*
X7126786Y-12689928D01*
X7126786Y-12689928D02*
X7117262Y-12651833D01*
X7117262Y-12651833D02*
X7117262Y-12604214D01*
X7117262Y-12604214D02*
X7126786Y-12566119D01*
X7126786Y-12566119D02*
X7136309Y-12547071D01*
X7136309Y-12547071D02*
X7145833Y-12537548D01*
X7145833Y-12537548D02*
X7164881Y-12528024D01*
X7317262Y-12728024D02*
X7317262Y-12594690D01*
X7317262Y-12613738D02*
X7326786Y-12604214D01*
X7326786Y-12604214D02*
X7345833Y-12594690D01*
X7345833Y-12594690D02*
X7374405Y-12594690D01*
X7374405Y-12594690D02*
X7393452Y-12604214D01*
X7393452Y-12604214D02*
X7402976Y-12623262D01*
X7402976Y-12623262D02*
X7402976Y-12728024D01*
X7402976Y-12623262D02*
X7412500Y-12604214D01*
X7412500Y-12604214D02*
X7431548Y-12594690D01*
X7431548Y-12594690D02*
X7460119Y-12594690D01*
X7460119Y-12594690D02*
X7479167Y-12604214D01*
X7479167Y-12604214D02*
X7488690Y-12623262D01*
X7488690Y-12623262D02*
X7488690Y-12728024D01*
X7583929Y-12728024D02*
X7583929Y-12594690D01*
X7583929Y-12613738D02*
X7593452Y-12604214D01*
X7593452Y-12604214D02*
X7612500Y-12594690D01*
X7612500Y-12594690D02*
X7641071Y-12594690D01*
X7641071Y-12594690D02*
X7660119Y-12604214D01*
X7660119Y-12604214D02*
X7669643Y-12623262D01*
X7669643Y-12623262D02*
X7669643Y-12728024D01*
X7669643Y-12623262D02*
X7679167Y-12604214D01*
X7679167Y-12604214D02*
X7698214Y-12594690D01*
X7698214Y-12594690D02*
X7726786Y-12594690D01*
X7726786Y-12594690D02*
X7745833Y-12604214D01*
X7745833Y-12604214D02*
X7755357Y-12623262D01*
X7755357Y-12623262D02*
X7755357Y-12728024D01*
X8145833Y-12518500D02*
X7974405Y-12775643D01*
X8402976Y-12528024D02*
X8422024Y-12528024D01*
X8422024Y-12528024D02*
X8441072Y-12537548D01*
X8441072Y-12537548D02*
X8450595Y-12547071D01*
X8450595Y-12547071D02*
X8460119Y-12566119D01*
X8460119Y-12566119D02*
X8469643Y-12604214D01*
X8469643Y-12604214D02*
X8469643Y-12651833D01*
X8469643Y-12651833D02*
X8460119Y-12689928D01*
X8460119Y-12689928D02*
X8450595Y-12708976D01*
X8450595Y-12708976D02*
X8441072Y-12718500D01*
X8441072Y-12718500D02*
X8422024Y-12728024D01*
X8422024Y-12728024D02*
X8402976Y-12728024D01*
X8402976Y-12728024D02*
X8383929Y-12718500D01*
X8383929Y-12718500D02*
X8374405Y-12708976D01*
X8374405Y-12708976D02*
X8364881Y-12689928D01*
X8364881Y-12689928D02*
X8355357Y-12651833D01*
X8355357Y-12651833D02*
X8355357Y-12604214D01*
X8355357Y-12604214D02*
X8364881Y-12566119D01*
X8364881Y-12566119D02*
X8374405Y-12547071D01*
X8374405Y-12547071D02*
X8383929Y-12537548D01*
X8383929Y-12537548D02*
X8402976Y-12528024D01*
X8555357Y-12708976D02*
X8564881Y-12718500D01*
X8564881Y-12718500D02*
X8555357Y-12728024D01*
X8555357Y-12728024D02*
X8545834Y-12718500D01*
X8545834Y-12718500D02*
X8555357Y-12708976D01*
X8555357Y-12708976D02*
X8555357Y-12728024D01*
X8688691Y-12528024D02*
X8707738Y-12528024D01*
X8707738Y-12528024D02*
X8726786Y-12537548D01*
X8726786Y-12537548D02*
X8736310Y-12547071D01*
X8736310Y-12547071D02*
X8745834Y-12566119D01*
X8745834Y-12566119D02*
X8755357Y-12604214D01*
X8755357Y-12604214D02*
X8755357Y-12651833D01*
X8755357Y-12651833D02*
X8745834Y-12689928D01*
X8745834Y-12689928D02*
X8736310Y-12708976D01*
X8736310Y-12708976D02*
X8726786Y-12718500D01*
X8726786Y-12718500D02*
X8707738Y-12728024D01*
X8707738Y-12728024D02*
X8688691Y-12728024D01*
X8688691Y-12728024D02*
X8669643Y-12718500D01*
X8669643Y-12718500D02*
X8660119Y-12708976D01*
X8660119Y-12708976D02*
X8650595Y-12689928D01*
X8650595Y-12689928D02*
X8641072Y-12651833D01*
X8641072Y-12651833D02*
X8641072Y-12604214D01*
X8641072Y-12604214D02*
X8650595Y-12566119D01*
X8650595Y-12566119D02*
X8660119Y-12547071D01*
X8660119Y-12547071D02*
X8669643Y-12537548D01*
X8669643Y-12537548D02*
X8688691Y-12528024D01*
X8831548Y-12547071D02*
X8841072Y-12537548D01*
X8841072Y-12537548D02*
X8860119Y-12528024D01*
X8860119Y-12528024D02*
X8907738Y-12528024D01*
X8907738Y-12528024D02*
X8926786Y-12537548D01*
X8926786Y-12537548D02*
X8936310Y-12547071D01*
X8936310Y-12547071D02*
X8945834Y-12566119D01*
X8945834Y-12566119D02*
X8945834Y-12585167D01*
X8945834Y-12585167D02*
X8936310Y-12613738D01*
X8936310Y-12613738D02*
X8822024Y-12728024D01*
X8822024Y-12728024D02*
X8945834Y-12728024D01*
X9012500Y-12528024D02*
X9136310Y-12528024D01*
X9136310Y-12528024D02*
X9069643Y-12604214D01*
X9069643Y-12604214D02*
X9098215Y-12604214D01*
X9098215Y-12604214D02*
X9117262Y-12613738D01*
X9117262Y-12613738D02*
X9126786Y-12623262D01*
X9126786Y-12623262D02*
X9136310Y-12642309D01*
X9136310Y-12642309D02*
X9136310Y-12689928D01*
X9136310Y-12689928D02*
X9126786Y-12708976D01*
X9126786Y-12708976D02*
X9117262Y-12718500D01*
X9117262Y-12718500D02*
X9098215Y-12728024D01*
X9098215Y-12728024D02*
X9041072Y-12728024D01*
X9041072Y-12728024D02*
X9022024Y-12718500D01*
X9022024Y-12718500D02*
X9012500Y-12708976D01*
X9307738Y-12528024D02*
X9269643Y-12528024D01*
X9269643Y-12528024D02*
X9250595Y-12537548D01*
X9250595Y-12537548D02*
X9241072Y-12547071D01*
X9241072Y-12547071D02*
X9222024Y-12575643D01*
X9222024Y-12575643D02*
X9212500Y-12613738D01*
X9212500Y-12613738D02*
X9212500Y-12689928D01*
X9212500Y-12689928D02*
X9222024Y-12708976D01*
X9222024Y-12708976D02*
X9231548Y-12718500D01*
X9231548Y-12718500D02*
X9250595Y-12728024D01*
X9250595Y-12728024D02*
X9288691Y-12728024D01*
X9288691Y-12728024D02*
X9307738Y-12718500D01*
X9307738Y-12718500D02*
X9317262Y-12708976D01*
X9317262Y-12708976D02*
X9326786Y-12689928D01*
X9326786Y-12689928D02*
X9326786Y-12642309D01*
X9326786Y-12642309D02*
X9317262Y-12623262D01*
X9317262Y-12623262D02*
X9307738Y-12613738D01*
X9307738Y-12613738D02*
X9288691Y-12604214D01*
X9288691Y-12604214D02*
X9250595Y-12604214D01*
X9250595Y-12604214D02*
X9231548Y-12613738D01*
X9231548Y-12613738D02*
X9222024Y-12623262D01*
X9222024Y-12623262D02*
X9212500Y-12642309D01*
X9402976Y-12528024D02*
X9402976Y-12566119D01*
X9479167Y-12528024D02*
X9479167Y-12566119D01*
X9774405Y-12804214D02*
X9764881Y-12794690D01*
X9764881Y-12794690D02*
X9745834Y-12766119D01*
X9745834Y-12766119D02*
X9736310Y-12747071D01*
X9736310Y-12747071D02*
X9726786Y-12718500D01*
X9726786Y-12718500D02*
X9717262Y-12670881D01*
X9717262Y-12670881D02*
X9717262Y-12632786D01*
X9717262Y-12632786D02*
X9726786Y-12585167D01*
X9726786Y-12585167D02*
X9736310Y-12556595D01*
X9736310Y-12556595D02*
X9745834Y-12537548D01*
X9745834Y-12537548D02*
X9764881Y-12508976D01*
X9764881Y-12508976D02*
X9774405Y-12499452D01*
X9955357Y-12728024D02*
X9841072Y-12728024D01*
X9898215Y-12728024D02*
X9898215Y-12528024D01*
X9898215Y-12528024D02*
X9879167Y-12556595D01*
X9879167Y-12556595D02*
X9860119Y-12575643D01*
X9860119Y-12575643D02*
X9841072Y-12585167D01*
X10079167Y-12528024D02*
X10098215Y-12528024D01*
X10098215Y-12528024D02*
X10117262Y-12537548D01*
X10117262Y-12537548D02*
X10126786Y-12547071D01*
X10126786Y-12547071D02*
X10136310Y-12566119D01*
X10136310Y-12566119D02*
X10145834Y-12604214D01*
X10145834Y-12604214D02*
X10145834Y-12651833D01*
X10145834Y-12651833D02*
X10136310Y-12689928D01*
X10136310Y-12689928D02*
X10126786Y-12708976D01*
X10126786Y-12708976D02*
X10117262Y-12718500D01*
X10117262Y-12718500D02*
X10098215Y-12728024D01*
X10098215Y-12728024D02*
X10079167Y-12728024D01*
X10079167Y-12728024D02*
X10060119Y-12718500D01*
X10060119Y-12718500D02*
X10050596Y-12708976D01*
X10050596Y-12708976D02*
X10041072Y-12689928D01*
X10041072Y-12689928D02*
X10031548Y-12651833D01*
X10031548Y-12651833D02*
X10031548Y-12604214D01*
X10031548Y-12604214D02*
X10041072Y-12566119D01*
X10041072Y-12566119D02*
X10050596Y-12547071D01*
X10050596Y-12547071D02*
X10060119Y-12537548D01*
X10060119Y-12537548D02*
X10079167Y-12528024D01*
X10383929Y-12728024D02*
X10383929Y-12528024D01*
X10469643Y-12728024D02*
X10469643Y-12623262D01*
X10469643Y-12623262D02*
X10460119Y-12604214D01*
X10460119Y-12604214D02*
X10441072Y-12594690D01*
X10441072Y-12594690D02*
X10412500Y-12594690D01*
X10412500Y-12594690D02*
X10393453Y-12604214D01*
X10393453Y-12604214D02*
X10383929Y-12613738D01*
X10593453Y-12728024D02*
X10574405Y-12718500D01*
X10574405Y-12718500D02*
X10564881Y-12708976D01*
X10564881Y-12708976D02*
X10555358Y-12689928D01*
X10555358Y-12689928D02*
X10555358Y-12632786D01*
X10555358Y-12632786D02*
X10564881Y-12613738D01*
X10564881Y-12613738D02*
X10574405Y-12604214D01*
X10574405Y-12604214D02*
X10593453Y-12594690D01*
X10593453Y-12594690D02*
X10622024Y-12594690D01*
X10622024Y-12594690D02*
X10641072Y-12604214D01*
X10641072Y-12604214D02*
X10650596Y-12613738D01*
X10650596Y-12613738D02*
X10660119Y-12632786D01*
X10660119Y-12632786D02*
X10660119Y-12689928D01*
X10660119Y-12689928D02*
X10650596Y-12708976D01*
X10650596Y-12708976D02*
X10641072Y-12718500D01*
X10641072Y-12718500D02*
X10622024Y-12728024D01*
X10622024Y-12728024D02*
X10593453Y-12728024D01*
X10774405Y-12728024D02*
X10755358Y-12718500D01*
X10755358Y-12718500D02*
X10745834Y-12699452D01*
X10745834Y-12699452D02*
X10745834Y-12528024D01*
X10926786Y-12718500D02*
X10907739Y-12728024D01*
X10907739Y-12728024D02*
X10869643Y-12728024D01*
X10869643Y-12728024D02*
X10850596Y-12718500D01*
X10850596Y-12718500D02*
X10841072Y-12699452D01*
X10841072Y-12699452D02*
X10841072Y-12623262D01*
X10841072Y-12623262D02*
X10850596Y-12604214D01*
X10850596Y-12604214D02*
X10869643Y-12594690D01*
X10869643Y-12594690D02*
X10907739Y-12594690D01*
X10907739Y-12594690D02*
X10926786Y-12604214D01*
X10926786Y-12604214D02*
X10936310Y-12623262D01*
X10936310Y-12623262D02*
X10936310Y-12642309D01*
X10936310Y-12642309D02*
X10841072Y-12661357D01*
X11012500Y-12718500D02*
X11031548Y-12728024D01*
X11031548Y-12728024D02*
X11069643Y-12728024D01*
X11069643Y-12728024D02*
X11088691Y-12718500D01*
X11088691Y-12718500D02*
X11098215Y-12699452D01*
X11098215Y-12699452D02*
X11098215Y-12689928D01*
X11098215Y-12689928D02*
X11088691Y-12670881D01*
X11088691Y-12670881D02*
X11069643Y-12661357D01*
X11069643Y-12661357D02*
X11041072Y-12661357D01*
X11041072Y-12661357D02*
X11022024Y-12651833D01*
X11022024Y-12651833D02*
X11012500Y-12632786D01*
X11012500Y-12632786D02*
X11012500Y-12623262D01*
X11012500Y-12623262D02*
X11022024Y-12604214D01*
X11022024Y-12604214D02*
X11041072Y-12594690D01*
X11041072Y-12594690D02*
X11069643Y-12594690D01*
X11069643Y-12594690D02*
X11088691Y-12604214D01*
X11164881Y-12804214D02*
X11174405Y-12794690D01*
X11174405Y-12794690D02*
X11193453Y-12766119D01*
X11193453Y-12766119D02*
X11202977Y-12747071D01*
X11202977Y-12747071D02*
X11212500Y-12718500D01*
X11212500Y-12718500D02*
X11222024Y-12670881D01*
X11222024Y-12670881D02*
X11222024Y-12632786D01*
X11222024Y-12632786D02*
X11212500Y-12585167D01*
X11212500Y-12585167D02*
X11202977Y-12556595D01*
X11202977Y-12556595D02*
X11193453Y-12537548D01*
X11193453Y-12537548D02*
X11174405Y-12508976D01*
X11174405Y-12508976D02*
X11164881Y-12499452D01*
D14*
X6203713Y-12920713D02*
X6203713Y-12878287D01*
X6161287Y-12878287D01*
X6161287Y-12920713D01*
X6203713Y-12920713D01*
D11*
X6498214Y-12792024D02*
X6517262Y-12792024D01*
X6517262Y-12792024D02*
X6536309Y-12801548D01*
X6536309Y-12801548D02*
X6545833Y-12811071D01*
X6545833Y-12811071D02*
X6555357Y-12830119D01*
X6555357Y-12830119D02*
X6564881Y-12868214D01*
X6564881Y-12868214D02*
X6564881Y-12915833D01*
X6564881Y-12915833D02*
X6555357Y-12953928D01*
X6555357Y-12953928D02*
X6545833Y-12972976D01*
X6545833Y-12972976D02*
X6536309Y-12982500D01*
X6536309Y-12982500D02*
X6517262Y-12992024D01*
X6517262Y-12992024D02*
X6498214Y-12992024D01*
X6498214Y-12992024D02*
X6479167Y-12982500D01*
X6479167Y-12982500D02*
X6469643Y-12972976D01*
X6469643Y-12972976D02*
X6460119Y-12953928D01*
X6460119Y-12953928D02*
X6450595Y-12915833D01*
X6450595Y-12915833D02*
X6450595Y-12868214D01*
X6450595Y-12868214D02*
X6460119Y-12830119D01*
X6460119Y-12830119D02*
X6469643Y-12811071D01*
X6469643Y-12811071D02*
X6479167Y-12801548D01*
X6479167Y-12801548D02*
X6498214Y-12792024D01*
X6650595Y-12972976D02*
X6660119Y-12982500D01*
X6660119Y-12982500D02*
X6650595Y-12992024D01*
X6650595Y-12992024D02*
X6641071Y-12982500D01*
X6641071Y-12982500D02*
X6650595Y-12972976D01*
X6650595Y-12972976D02*
X6650595Y-12992024D01*
X6831548Y-12792024D02*
X6793452Y-12792024D01*
X6793452Y-12792024D02*
X6774405Y-12801548D01*
X6774405Y-12801548D02*
X6764881Y-12811071D01*
X6764881Y-12811071D02*
X6745833Y-12839643D01*
X6745833Y-12839643D02*
X6736309Y-12877738D01*
X6736309Y-12877738D02*
X6736309Y-12953928D01*
X6736309Y-12953928D02*
X6745833Y-12972976D01*
X6745833Y-12972976D02*
X6755357Y-12982500D01*
X6755357Y-12982500D02*
X6774405Y-12992024D01*
X6774405Y-12992024D02*
X6812500Y-12992024D01*
X6812500Y-12992024D02*
X6831548Y-12982500D01*
X6831548Y-12982500D02*
X6841071Y-12972976D01*
X6841071Y-12972976D02*
X6850595Y-12953928D01*
X6850595Y-12953928D02*
X6850595Y-12906309D01*
X6850595Y-12906309D02*
X6841071Y-12887262D01*
X6841071Y-12887262D02*
X6831548Y-12877738D01*
X6831548Y-12877738D02*
X6812500Y-12868214D01*
X6812500Y-12868214D02*
X6774405Y-12868214D01*
X6774405Y-12868214D02*
X6755357Y-12877738D01*
X6755357Y-12877738D02*
X6745833Y-12887262D01*
X6745833Y-12887262D02*
X6736309Y-12906309D01*
X6974405Y-12792024D02*
X6993452Y-12792024D01*
X6993452Y-12792024D02*
X7012500Y-12801548D01*
X7012500Y-12801548D02*
X7022024Y-12811071D01*
X7022024Y-12811071D02*
X7031548Y-12830119D01*
X7031548Y-12830119D02*
X7041071Y-12868214D01*
X7041071Y-12868214D02*
X7041071Y-12915833D01*
X7041071Y-12915833D02*
X7031548Y-12953928D01*
X7031548Y-12953928D02*
X7022024Y-12972976D01*
X7022024Y-12972976D02*
X7012500Y-12982500D01*
X7012500Y-12982500D02*
X6993452Y-12992024D01*
X6993452Y-12992024D02*
X6974405Y-12992024D01*
X6974405Y-12992024D02*
X6955357Y-12982500D01*
X6955357Y-12982500D02*
X6945833Y-12972976D01*
X6945833Y-12972976D02*
X6936309Y-12953928D01*
X6936309Y-12953928D02*
X6926786Y-12915833D01*
X6926786Y-12915833D02*
X6926786Y-12868214D01*
X6926786Y-12868214D02*
X6936309Y-12830119D01*
X6936309Y-12830119D02*
X6945833Y-12811071D01*
X6945833Y-12811071D02*
X6955357Y-12801548D01*
X6955357Y-12801548D02*
X6974405Y-12792024D01*
X7164881Y-12792024D02*
X7183929Y-12792024D01*
X7183929Y-12792024D02*
X7202976Y-12801548D01*
X7202976Y-12801548D02*
X7212500Y-12811071D01*
X7212500Y-12811071D02*
X7222024Y-12830119D01*
X7222024Y-12830119D02*
X7231548Y-12868214D01*
X7231548Y-12868214D02*
X7231548Y-12915833D01*
X7231548Y-12915833D02*
X7222024Y-12953928D01*
X7222024Y-12953928D02*
X7212500Y-12972976D01*
X7212500Y-12972976D02*
X7202976Y-12982500D01*
X7202976Y-12982500D02*
X7183929Y-12992024D01*
X7183929Y-12992024D02*
X7164881Y-12992024D01*
X7164881Y-12992024D02*
X7145833Y-12982500D01*
X7145833Y-12982500D02*
X7136309Y-12972976D01*
X7136309Y-12972976D02*
X7126786Y-12953928D01*
X7126786Y-12953928D02*
X7117262Y-12915833D01*
X7117262Y-12915833D02*
X7117262Y-12868214D01*
X7117262Y-12868214D02*
X7126786Y-12830119D01*
X7126786Y-12830119D02*
X7136309Y-12811071D01*
X7136309Y-12811071D02*
X7145833Y-12801548D01*
X7145833Y-12801548D02*
X7164881Y-12792024D01*
X7317262Y-12992024D02*
X7317262Y-12858690D01*
X7317262Y-12877738D02*
X7326786Y-12868214D01*
X7326786Y-12868214D02*
X7345833Y-12858690D01*
X7345833Y-12858690D02*
X7374405Y-12858690D01*
X7374405Y-12858690D02*
X7393452Y-12868214D01*
X7393452Y-12868214D02*
X7402976Y-12887262D01*
X7402976Y-12887262D02*
X7402976Y-12992024D01*
X7402976Y-12887262D02*
X7412500Y-12868214D01*
X7412500Y-12868214D02*
X7431548Y-12858690D01*
X7431548Y-12858690D02*
X7460119Y-12858690D01*
X7460119Y-12858690D02*
X7479167Y-12868214D01*
X7479167Y-12868214D02*
X7488690Y-12887262D01*
X7488690Y-12887262D02*
X7488690Y-12992024D01*
X7583929Y-12992024D02*
X7583929Y-12858690D01*
X7583929Y-12877738D02*
X7593452Y-12868214D01*
X7593452Y-12868214D02*
X7612500Y-12858690D01*
X7612500Y-12858690D02*
X7641071Y-12858690D01*
X7641071Y-12858690D02*
X7660119Y-12868214D01*
X7660119Y-12868214D02*
X7669643Y-12887262D01*
X7669643Y-12887262D02*
X7669643Y-12992024D01*
X7669643Y-12887262D02*
X7679167Y-12868214D01*
X7679167Y-12868214D02*
X7698214Y-12858690D01*
X7698214Y-12858690D02*
X7726786Y-12858690D01*
X7726786Y-12858690D02*
X7745833Y-12868214D01*
X7745833Y-12868214D02*
X7755357Y-12887262D01*
X7755357Y-12887262D02*
X7755357Y-12992024D01*
X8145833Y-12782500D02*
X7974405Y-13039643D01*
X8402976Y-12792024D02*
X8422024Y-12792024D01*
X8422024Y-12792024D02*
X8441072Y-12801548D01*
X8441072Y-12801548D02*
X8450595Y-12811071D01*
X8450595Y-12811071D02*
X8460119Y-12830119D01*
X8460119Y-12830119D02*
X8469643Y-12868214D01*
X8469643Y-12868214D02*
X8469643Y-12915833D01*
X8469643Y-12915833D02*
X8460119Y-12953928D01*
X8460119Y-12953928D02*
X8450595Y-12972976D01*
X8450595Y-12972976D02*
X8441072Y-12982500D01*
X8441072Y-12982500D02*
X8422024Y-12992024D01*
X8422024Y-12992024D02*
X8402976Y-12992024D01*
X8402976Y-12992024D02*
X8383929Y-12982500D01*
X8383929Y-12982500D02*
X8374405Y-12972976D01*
X8374405Y-12972976D02*
X8364881Y-12953928D01*
X8364881Y-12953928D02*
X8355357Y-12915833D01*
X8355357Y-12915833D02*
X8355357Y-12868214D01*
X8355357Y-12868214D02*
X8364881Y-12830119D01*
X8364881Y-12830119D02*
X8374405Y-12811071D01*
X8374405Y-12811071D02*
X8383929Y-12801548D01*
X8383929Y-12801548D02*
X8402976Y-12792024D01*
X8555357Y-12972976D02*
X8564881Y-12982500D01*
X8564881Y-12982500D02*
X8555357Y-12992024D01*
X8555357Y-12992024D02*
X8545834Y-12982500D01*
X8545834Y-12982500D02*
X8555357Y-12972976D01*
X8555357Y-12972976D02*
X8555357Y-12992024D01*
X8688691Y-12792024D02*
X8707738Y-12792024D01*
X8707738Y-12792024D02*
X8726786Y-12801548D01*
X8726786Y-12801548D02*
X8736310Y-12811071D01*
X8736310Y-12811071D02*
X8745834Y-12830119D01*
X8745834Y-12830119D02*
X8755357Y-12868214D01*
X8755357Y-12868214D02*
X8755357Y-12915833D01*
X8755357Y-12915833D02*
X8745834Y-12953928D01*
X8745834Y-12953928D02*
X8736310Y-12972976D01*
X8736310Y-12972976D02*
X8726786Y-12982500D01*
X8726786Y-12982500D02*
X8707738Y-12992024D01*
X8707738Y-12992024D02*
X8688691Y-12992024D01*
X8688691Y-12992024D02*
X8669643Y-12982500D01*
X8669643Y-12982500D02*
X8660119Y-12972976D01*
X8660119Y-12972976D02*
X8650595Y-12953928D01*
X8650595Y-12953928D02*
X8641072Y-12915833D01*
X8641072Y-12915833D02*
X8641072Y-12868214D01*
X8641072Y-12868214D02*
X8650595Y-12830119D01*
X8650595Y-12830119D02*
X8660119Y-12811071D01*
X8660119Y-12811071D02*
X8669643Y-12801548D01*
X8669643Y-12801548D02*
X8688691Y-12792024D01*
X8831548Y-12811071D02*
X8841072Y-12801548D01*
X8841072Y-12801548D02*
X8860119Y-12792024D01*
X8860119Y-12792024D02*
X8907738Y-12792024D01*
X8907738Y-12792024D02*
X8926786Y-12801548D01*
X8926786Y-12801548D02*
X8936310Y-12811071D01*
X8936310Y-12811071D02*
X8945834Y-12830119D01*
X8945834Y-12830119D02*
X8945834Y-12849167D01*
X8945834Y-12849167D02*
X8936310Y-12877738D01*
X8936310Y-12877738D02*
X8822024Y-12992024D01*
X8822024Y-12992024D02*
X8945834Y-12992024D01*
X9012500Y-12792024D02*
X9136310Y-12792024D01*
X9136310Y-12792024D02*
X9069643Y-12868214D01*
X9069643Y-12868214D02*
X9098215Y-12868214D01*
X9098215Y-12868214D02*
X9117262Y-12877738D01*
X9117262Y-12877738D02*
X9126786Y-12887262D01*
X9126786Y-12887262D02*
X9136310Y-12906309D01*
X9136310Y-12906309D02*
X9136310Y-12953928D01*
X9136310Y-12953928D02*
X9126786Y-12972976D01*
X9126786Y-12972976D02*
X9117262Y-12982500D01*
X9117262Y-12982500D02*
X9098215Y-12992024D01*
X9098215Y-12992024D02*
X9041072Y-12992024D01*
X9041072Y-12992024D02*
X9022024Y-12982500D01*
X9022024Y-12982500D02*
X9012500Y-12972976D01*
X9307738Y-12792024D02*
X9269643Y-12792024D01*
X9269643Y-12792024D02*
X9250595Y-12801548D01*
X9250595Y-12801548D02*
X9241072Y-12811071D01*
X9241072Y-12811071D02*
X9222024Y-12839643D01*
X9222024Y-12839643D02*
X9212500Y-12877738D01*
X9212500Y-12877738D02*
X9212500Y-12953928D01*
X9212500Y-12953928D02*
X9222024Y-12972976D01*
X9222024Y-12972976D02*
X9231548Y-12982500D01*
X9231548Y-12982500D02*
X9250595Y-12992024D01*
X9250595Y-12992024D02*
X9288691Y-12992024D01*
X9288691Y-12992024D02*
X9307738Y-12982500D01*
X9307738Y-12982500D02*
X9317262Y-12972976D01*
X9317262Y-12972976D02*
X9326786Y-12953928D01*
X9326786Y-12953928D02*
X9326786Y-12906309D01*
X9326786Y-12906309D02*
X9317262Y-12887262D01*
X9317262Y-12887262D02*
X9307738Y-12877738D01*
X9307738Y-12877738D02*
X9288691Y-12868214D01*
X9288691Y-12868214D02*
X9250595Y-12868214D01*
X9250595Y-12868214D02*
X9231548Y-12877738D01*
X9231548Y-12877738D02*
X9222024Y-12887262D01*
X9222024Y-12887262D02*
X9212500Y-12906309D01*
X9402976Y-12792024D02*
X9402976Y-12830119D01*
X9479167Y-12792024D02*
X9479167Y-12830119D01*
X9774405Y-13068214D02*
X9764881Y-13058690D01*
X9764881Y-13058690D02*
X9745834Y-13030119D01*
X9745834Y-13030119D02*
X9736310Y-13011071D01*
X9736310Y-13011071D02*
X9726786Y-12982500D01*
X9726786Y-12982500D02*
X9717262Y-12934881D01*
X9717262Y-12934881D02*
X9717262Y-12896786D01*
X9717262Y-12896786D02*
X9726786Y-12849167D01*
X9726786Y-12849167D02*
X9736310Y-12820595D01*
X9736310Y-12820595D02*
X9745834Y-12801548D01*
X9745834Y-12801548D02*
X9764881Y-12772976D01*
X9764881Y-12772976D02*
X9774405Y-12763452D01*
X9888691Y-12792024D02*
X9907738Y-12792024D01*
X9907738Y-12792024D02*
X9926786Y-12801548D01*
X9926786Y-12801548D02*
X9936310Y-12811071D01*
X9936310Y-12811071D02*
X9945834Y-12830119D01*
X9945834Y-12830119D02*
X9955357Y-12868214D01*
X9955357Y-12868214D02*
X9955357Y-12915833D01*
X9955357Y-12915833D02*
X9945834Y-12953928D01*
X9945834Y-12953928D02*
X9936310Y-12972976D01*
X9936310Y-12972976D02*
X9926786Y-12982500D01*
X9926786Y-12982500D02*
X9907738Y-12992024D01*
X9907738Y-12992024D02*
X9888691Y-12992024D01*
X9888691Y-12992024D02*
X9869643Y-12982500D01*
X9869643Y-12982500D02*
X9860119Y-12972976D01*
X9860119Y-12972976D02*
X9850596Y-12953928D01*
X9850596Y-12953928D02*
X9841072Y-12915833D01*
X9841072Y-12915833D02*
X9841072Y-12868214D01*
X9841072Y-12868214D02*
X9850596Y-12830119D01*
X9850596Y-12830119D02*
X9860119Y-12811071D01*
X9860119Y-12811071D02*
X9869643Y-12801548D01*
X9869643Y-12801548D02*
X9888691Y-12792024D01*
X10193453Y-12992024D02*
X10193453Y-12792024D01*
X10279167Y-12992024D02*
X10279167Y-12887262D01*
X10279167Y-12887262D02*
X10269643Y-12868214D01*
X10269643Y-12868214D02*
X10250596Y-12858690D01*
X10250596Y-12858690D02*
X10222024Y-12858690D01*
X10222024Y-12858690D02*
X10202977Y-12868214D01*
X10202977Y-12868214D02*
X10193453Y-12877738D01*
X10402977Y-12992024D02*
X10383929Y-12982500D01*
X10383929Y-12982500D02*
X10374405Y-12972976D01*
X10374405Y-12972976D02*
X10364881Y-12953928D01*
X10364881Y-12953928D02*
X10364881Y-12896786D01*
X10364881Y-12896786D02*
X10374405Y-12877738D01*
X10374405Y-12877738D02*
X10383929Y-12868214D01*
X10383929Y-12868214D02*
X10402977Y-12858690D01*
X10402977Y-12858690D02*
X10431548Y-12858690D01*
X10431548Y-12858690D02*
X10450596Y-12868214D01*
X10450596Y-12868214D02*
X10460119Y-12877738D01*
X10460119Y-12877738D02*
X10469643Y-12896786D01*
X10469643Y-12896786D02*
X10469643Y-12953928D01*
X10469643Y-12953928D02*
X10460119Y-12972976D01*
X10460119Y-12972976D02*
X10450596Y-12982500D01*
X10450596Y-12982500D02*
X10431548Y-12992024D01*
X10431548Y-12992024D02*
X10402977Y-12992024D01*
X10583929Y-12992024D02*
X10564881Y-12982500D01*
X10564881Y-12982500D02*
X10555358Y-12963452D01*
X10555358Y-12963452D02*
X10555358Y-12792024D01*
X10736310Y-12982500D02*
X10717262Y-12992024D01*
X10717262Y-12992024D02*
X10679167Y-12992024D01*
X10679167Y-12992024D02*
X10660119Y-12982500D01*
X10660119Y-12982500D02*
X10650596Y-12963452D01*
X10650596Y-12963452D02*
X10650596Y-12887262D01*
X10650596Y-12887262D02*
X10660119Y-12868214D01*
X10660119Y-12868214D02*
X10679167Y-12858690D01*
X10679167Y-12858690D02*
X10717262Y-12858690D01*
X10717262Y-12858690D02*
X10736310Y-12868214D01*
X10736310Y-12868214D02*
X10745834Y-12887262D01*
X10745834Y-12887262D02*
X10745834Y-12906309D01*
X10745834Y-12906309D02*
X10650596Y-12925357D01*
X10822024Y-12982500D02*
X10841072Y-12992024D01*
X10841072Y-12992024D02*
X10879167Y-12992024D01*
X10879167Y-12992024D02*
X10898215Y-12982500D01*
X10898215Y-12982500D02*
X10907739Y-12963452D01*
X10907739Y-12963452D02*
X10907739Y-12953928D01*
X10907739Y-12953928D02*
X10898215Y-12934881D01*
X10898215Y-12934881D02*
X10879167Y-12925357D01*
X10879167Y-12925357D02*
X10850596Y-12925357D01*
X10850596Y-12925357D02*
X10831548Y-12915833D01*
X10831548Y-12915833D02*
X10822024Y-12896786D01*
X10822024Y-12896786D02*
X10822024Y-12887262D01*
X10822024Y-12887262D02*
X10831548Y-12868214D01*
X10831548Y-12868214D02*
X10850596Y-12858690D01*
X10850596Y-12858690D02*
X10879167Y-12858690D01*
X10879167Y-12858690D02*
X10898215Y-12868214D01*
X11145834Y-12915833D02*
X11298215Y-12915833D01*
X11222024Y-12992024D02*
X11222024Y-12839643D01*
X11574405Y-12877738D02*
X11555358Y-12868214D01*
X11555358Y-12868214D02*
X11545834Y-12858690D01*
X11545834Y-12858690D02*
X11536310Y-12839643D01*
X11536310Y-12839643D02*
X11536310Y-12830119D01*
X11536310Y-12830119D02*
X11545834Y-12811071D01*
X11545834Y-12811071D02*
X11555358Y-12801548D01*
X11555358Y-12801548D02*
X11574405Y-12792024D01*
X11574405Y-12792024D02*
X11612500Y-12792024D01*
X11612500Y-12792024D02*
X11631548Y-12801548D01*
X11631548Y-12801548D02*
X11641072Y-12811071D01*
X11641072Y-12811071D02*
X11650596Y-12830119D01*
X11650596Y-12830119D02*
X11650596Y-12839643D01*
X11650596Y-12839643D02*
X11641072Y-12858690D01*
X11641072Y-12858690D02*
X11631548Y-12868214D01*
X11631548Y-12868214D02*
X11612500Y-12877738D01*
X11612500Y-12877738D02*
X11574405Y-12877738D01*
X11574405Y-12877738D02*
X11555358Y-12887262D01*
X11555358Y-12887262D02*
X11545834Y-12896786D01*
X11545834Y-12896786D02*
X11536310Y-12915833D01*
X11536310Y-12915833D02*
X11536310Y-12953928D01*
X11536310Y-12953928D02*
X11545834Y-12972976D01*
X11545834Y-12972976D02*
X11555358Y-12982500D01*
X11555358Y-12982500D02*
X11574405Y-12992024D01*
X11574405Y-12992024D02*
X11612500Y-12992024D01*
X11612500Y-12992024D02*
X11631548Y-12982500D01*
X11631548Y-12982500D02*
X11641072Y-12972976D01*
X11641072Y-12972976D02*
X11650596Y-12953928D01*
X11650596Y-12953928D02*
X11650596Y-12915833D01*
X11650596Y-12915833D02*
X11641072Y-12896786D01*
X11641072Y-12896786D02*
X11631548Y-12887262D01*
X11631548Y-12887262D02*
X11612500Y-12877738D01*
X11879167Y-12982500D02*
X11898215Y-12992024D01*
X11898215Y-12992024D02*
X11936310Y-12992024D01*
X11936310Y-12992024D02*
X11955358Y-12982500D01*
X11955358Y-12982500D02*
X11964881Y-12963452D01*
X11964881Y-12963452D02*
X11964881Y-12953928D01*
X11964881Y-12953928D02*
X11955358Y-12934881D01*
X11955358Y-12934881D02*
X11936310Y-12925357D01*
X11936310Y-12925357D02*
X11907739Y-12925357D01*
X11907739Y-12925357D02*
X11888691Y-12915833D01*
X11888691Y-12915833D02*
X11879167Y-12896786D01*
X11879167Y-12896786D02*
X11879167Y-12887262D01*
X11879167Y-12887262D02*
X11888691Y-12868214D01*
X11888691Y-12868214D02*
X11907739Y-12858690D01*
X11907739Y-12858690D02*
X11936310Y-12858690D01*
X11936310Y-12858690D02*
X11955358Y-12868214D01*
X12079167Y-12992024D02*
X12060120Y-12982500D01*
X12060120Y-12982500D02*
X12050596Y-12963452D01*
X12050596Y-12963452D02*
X12050596Y-12792024D01*
X12183929Y-12992024D02*
X12164881Y-12982500D01*
X12164881Y-12982500D02*
X12155358Y-12972976D01*
X12155358Y-12972976D02*
X12145834Y-12953928D01*
X12145834Y-12953928D02*
X12145834Y-12896786D01*
X12145834Y-12896786D02*
X12155358Y-12877738D01*
X12155358Y-12877738D02*
X12164881Y-12868214D01*
X12164881Y-12868214D02*
X12183929Y-12858690D01*
X12183929Y-12858690D02*
X12212501Y-12858690D01*
X12212501Y-12858690D02*
X12231548Y-12868214D01*
X12231548Y-12868214D02*
X12241072Y-12877738D01*
X12241072Y-12877738D02*
X12250596Y-12896786D01*
X12250596Y-12896786D02*
X12250596Y-12953928D01*
X12250596Y-12953928D02*
X12241072Y-12972976D01*
X12241072Y-12972976D02*
X12231548Y-12982500D01*
X12231548Y-12982500D02*
X12212501Y-12992024D01*
X12212501Y-12992024D02*
X12183929Y-12992024D01*
X12307739Y-12858690D02*
X12383929Y-12858690D01*
X12336310Y-12792024D02*
X12336310Y-12963452D01*
X12336310Y-12963452D02*
X12345834Y-12982500D01*
X12345834Y-12982500D02*
X12364881Y-12992024D01*
X12364881Y-12992024D02*
X12383929Y-12992024D01*
X12441072Y-12982500D02*
X12460120Y-12992024D01*
X12460120Y-12992024D02*
X12498215Y-12992024D01*
X12498215Y-12992024D02*
X12517262Y-12982500D01*
X12517262Y-12982500D02*
X12526786Y-12963452D01*
X12526786Y-12963452D02*
X12526786Y-12953928D01*
X12526786Y-12953928D02*
X12517262Y-12934881D01*
X12517262Y-12934881D02*
X12498215Y-12925357D01*
X12498215Y-12925357D02*
X12469643Y-12925357D01*
X12469643Y-12925357D02*
X12450596Y-12915833D01*
X12450596Y-12915833D02*
X12441072Y-12896786D01*
X12441072Y-12896786D02*
X12441072Y-12887262D01*
X12441072Y-12887262D02*
X12450596Y-12868214D01*
X12450596Y-12868214D02*
X12469643Y-12858690D01*
X12469643Y-12858690D02*
X12498215Y-12858690D01*
X12498215Y-12858690D02*
X12517262Y-12868214D01*
X12593453Y-13068214D02*
X12602977Y-13058690D01*
X12602977Y-13058690D02*
X12622024Y-13030119D01*
X12622024Y-13030119D02*
X12631548Y-13011071D01*
X12631548Y-13011071D02*
X12641072Y-12982500D01*
X12641072Y-12982500D02*
X12650596Y-12934881D01*
X12650596Y-12934881D02*
X12650596Y-12896786D01*
X12650596Y-12896786D02*
X12641072Y-12849167D01*
X12641072Y-12849167D02*
X12631548Y-12820595D01*
X12631548Y-12820595D02*
X12622024Y-12801548D01*
X12622024Y-12801548D02*
X12602977Y-12772976D01*
X12602977Y-12772976D02*
X12593453Y-12763452D01*
D15*
X6172500Y-13203500D02*
X6212500Y-13163500D01*
X6172500Y-13123500D01*
X6132500Y-13163500D01*
X6172500Y-13203500D01*
D11*
X6498214Y-13056024D02*
X6517262Y-13056024D01*
X6517262Y-13056024D02*
X6536309Y-13065548D01*
X6536309Y-13065548D02*
X6545833Y-13075071D01*
X6545833Y-13075071D02*
X6555357Y-13094119D01*
X6555357Y-13094119D02*
X6564881Y-13132214D01*
X6564881Y-13132214D02*
X6564881Y-13179833D01*
X6564881Y-13179833D02*
X6555357Y-13217928D01*
X6555357Y-13217928D02*
X6545833Y-13236976D01*
X6545833Y-13236976D02*
X6536309Y-13246500D01*
X6536309Y-13246500D02*
X6517262Y-13256024D01*
X6517262Y-13256024D02*
X6498214Y-13256024D01*
X6498214Y-13256024D02*
X6479167Y-13246500D01*
X6479167Y-13246500D02*
X6469643Y-13236976D01*
X6469643Y-13236976D02*
X6460119Y-13217928D01*
X6460119Y-13217928D02*
X6450595Y-13179833D01*
X6450595Y-13179833D02*
X6450595Y-13132214D01*
X6450595Y-13132214D02*
X6460119Y-13094119D01*
X6460119Y-13094119D02*
X6469643Y-13075071D01*
X6469643Y-13075071D02*
X6479167Y-13065548D01*
X6479167Y-13065548D02*
X6498214Y-13056024D01*
X6650595Y-13236976D02*
X6660119Y-13246500D01*
X6660119Y-13246500D02*
X6650595Y-13256024D01*
X6650595Y-13256024D02*
X6641071Y-13246500D01*
X6641071Y-13246500D02*
X6650595Y-13236976D01*
X6650595Y-13236976D02*
X6650595Y-13256024D01*
X6774405Y-13141738D02*
X6755357Y-13132214D01*
X6755357Y-13132214D02*
X6745833Y-13122690D01*
X6745833Y-13122690D02*
X6736309Y-13103643D01*
X6736309Y-13103643D02*
X6736309Y-13094119D01*
X6736309Y-13094119D02*
X6745833Y-13075071D01*
X6745833Y-13075071D02*
X6755357Y-13065548D01*
X6755357Y-13065548D02*
X6774405Y-13056024D01*
X6774405Y-13056024D02*
X6812500Y-13056024D01*
X6812500Y-13056024D02*
X6831548Y-13065548D01*
X6831548Y-13065548D02*
X6841071Y-13075071D01*
X6841071Y-13075071D02*
X6850595Y-13094119D01*
X6850595Y-13094119D02*
X6850595Y-13103643D01*
X6850595Y-13103643D02*
X6841071Y-13122690D01*
X6841071Y-13122690D02*
X6831548Y-13132214D01*
X6831548Y-13132214D02*
X6812500Y-13141738D01*
X6812500Y-13141738D02*
X6774405Y-13141738D01*
X6774405Y-13141738D02*
X6755357Y-13151262D01*
X6755357Y-13151262D02*
X6745833Y-13160786D01*
X6745833Y-13160786D02*
X6736309Y-13179833D01*
X6736309Y-13179833D02*
X6736309Y-13217928D01*
X6736309Y-13217928D02*
X6745833Y-13236976D01*
X6745833Y-13236976D02*
X6755357Y-13246500D01*
X6755357Y-13246500D02*
X6774405Y-13256024D01*
X6774405Y-13256024D02*
X6812500Y-13256024D01*
X6812500Y-13256024D02*
X6831548Y-13246500D01*
X6831548Y-13246500D02*
X6841071Y-13236976D01*
X6841071Y-13236976D02*
X6850595Y-13217928D01*
X6850595Y-13217928D02*
X6850595Y-13179833D01*
X6850595Y-13179833D02*
X6841071Y-13160786D01*
X6841071Y-13160786D02*
X6831548Y-13151262D01*
X6831548Y-13151262D02*
X6812500Y-13141738D01*
X6974405Y-13056024D02*
X6993452Y-13056024D01*
X6993452Y-13056024D02*
X7012500Y-13065548D01*
X7012500Y-13065548D02*
X7022024Y-13075071D01*
X7022024Y-13075071D02*
X7031548Y-13094119D01*
X7031548Y-13094119D02*
X7041071Y-13132214D01*
X7041071Y-13132214D02*
X7041071Y-13179833D01*
X7041071Y-13179833D02*
X7031548Y-13217928D01*
X7031548Y-13217928D02*
X7022024Y-13236976D01*
X7022024Y-13236976D02*
X7012500Y-13246500D01*
X7012500Y-13246500D02*
X6993452Y-13256024D01*
X6993452Y-13256024D02*
X6974405Y-13256024D01*
X6974405Y-13256024D02*
X6955357Y-13246500D01*
X6955357Y-13246500D02*
X6945833Y-13236976D01*
X6945833Y-13236976D02*
X6936309Y-13217928D01*
X6936309Y-13217928D02*
X6926786Y-13179833D01*
X6926786Y-13179833D02*
X6926786Y-13132214D01*
X6926786Y-13132214D02*
X6936309Y-13094119D01*
X6936309Y-13094119D02*
X6945833Y-13075071D01*
X6945833Y-13075071D02*
X6955357Y-13065548D01*
X6955357Y-13065548D02*
X6974405Y-13056024D01*
X7164881Y-13056024D02*
X7183929Y-13056024D01*
X7183929Y-13056024D02*
X7202976Y-13065548D01*
X7202976Y-13065548D02*
X7212500Y-13075071D01*
X7212500Y-13075071D02*
X7222024Y-13094119D01*
X7222024Y-13094119D02*
X7231548Y-13132214D01*
X7231548Y-13132214D02*
X7231548Y-13179833D01*
X7231548Y-13179833D02*
X7222024Y-13217928D01*
X7222024Y-13217928D02*
X7212500Y-13236976D01*
X7212500Y-13236976D02*
X7202976Y-13246500D01*
X7202976Y-13246500D02*
X7183929Y-13256024D01*
X7183929Y-13256024D02*
X7164881Y-13256024D01*
X7164881Y-13256024D02*
X7145833Y-13246500D01*
X7145833Y-13246500D02*
X7136309Y-13236976D01*
X7136309Y-13236976D02*
X7126786Y-13217928D01*
X7126786Y-13217928D02*
X7117262Y-13179833D01*
X7117262Y-13179833D02*
X7117262Y-13132214D01*
X7117262Y-13132214D02*
X7126786Y-13094119D01*
X7126786Y-13094119D02*
X7136309Y-13075071D01*
X7136309Y-13075071D02*
X7145833Y-13065548D01*
X7145833Y-13065548D02*
X7164881Y-13056024D01*
X7317262Y-13256024D02*
X7317262Y-13122690D01*
X7317262Y-13141738D02*
X7326786Y-13132214D01*
X7326786Y-13132214D02*
X7345833Y-13122690D01*
X7345833Y-13122690D02*
X7374405Y-13122690D01*
X7374405Y-13122690D02*
X7393452Y-13132214D01*
X7393452Y-13132214D02*
X7402976Y-13151262D01*
X7402976Y-13151262D02*
X7402976Y-13256024D01*
X7402976Y-13151262D02*
X7412500Y-13132214D01*
X7412500Y-13132214D02*
X7431548Y-13122690D01*
X7431548Y-13122690D02*
X7460119Y-13122690D01*
X7460119Y-13122690D02*
X7479167Y-13132214D01*
X7479167Y-13132214D02*
X7488690Y-13151262D01*
X7488690Y-13151262D02*
X7488690Y-13256024D01*
X7583929Y-13256024D02*
X7583929Y-13122690D01*
X7583929Y-13141738D02*
X7593452Y-13132214D01*
X7593452Y-13132214D02*
X7612500Y-13122690D01*
X7612500Y-13122690D02*
X7641071Y-13122690D01*
X7641071Y-13122690D02*
X7660119Y-13132214D01*
X7660119Y-13132214D02*
X7669643Y-13151262D01*
X7669643Y-13151262D02*
X7669643Y-13256024D01*
X7669643Y-13151262D02*
X7679167Y-13132214D01*
X7679167Y-13132214D02*
X7698214Y-13122690D01*
X7698214Y-13122690D02*
X7726786Y-13122690D01*
X7726786Y-13122690D02*
X7745833Y-13132214D01*
X7745833Y-13132214D02*
X7755357Y-13151262D01*
X7755357Y-13151262D02*
X7755357Y-13256024D01*
X8145833Y-13046500D02*
X7974405Y-13303643D01*
X8402976Y-13056024D02*
X8422024Y-13056024D01*
X8422024Y-13056024D02*
X8441072Y-13065548D01*
X8441072Y-13065548D02*
X8450595Y-13075071D01*
X8450595Y-13075071D02*
X8460119Y-13094119D01*
X8460119Y-13094119D02*
X8469643Y-13132214D01*
X8469643Y-13132214D02*
X8469643Y-13179833D01*
X8469643Y-13179833D02*
X8460119Y-13217928D01*
X8460119Y-13217928D02*
X8450595Y-13236976D01*
X8450595Y-13236976D02*
X8441072Y-13246500D01*
X8441072Y-13246500D02*
X8422024Y-13256024D01*
X8422024Y-13256024D02*
X8402976Y-13256024D01*
X8402976Y-13256024D02*
X8383929Y-13246500D01*
X8383929Y-13246500D02*
X8374405Y-13236976D01*
X8374405Y-13236976D02*
X8364881Y-13217928D01*
X8364881Y-13217928D02*
X8355357Y-13179833D01*
X8355357Y-13179833D02*
X8355357Y-13132214D01*
X8355357Y-13132214D02*
X8364881Y-13094119D01*
X8364881Y-13094119D02*
X8374405Y-13075071D01*
X8374405Y-13075071D02*
X8383929Y-13065548D01*
X8383929Y-13065548D02*
X8402976Y-13056024D01*
X8555357Y-13236976D02*
X8564881Y-13246500D01*
X8564881Y-13246500D02*
X8555357Y-13256024D01*
X8555357Y-13256024D02*
X8545834Y-13246500D01*
X8545834Y-13246500D02*
X8555357Y-13236976D01*
X8555357Y-13236976D02*
X8555357Y-13256024D01*
X8688691Y-13056024D02*
X8707738Y-13056024D01*
X8707738Y-13056024D02*
X8726786Y-13065548D01*
X8726786Y-13065548D02*
X8736310Y-13075071D01*
X8736310Y-13075071D02*
X8745834Y-13094119D01*
X8745834Y-13094119D02*
X8755357Y-13132214D01*
X8755357Y-13132214D02*
X8755357Y-13179833D01*
X8755357Y-13179833D02*
X8745834Y-13217928D01*
X8745834Y-13217928D02*
X8736310Y-13236976D01*
X8736310Y-13236976D02*
X8726786Y-13246500D01*
X8726786Y-13246500D02*
X8707738Y-13256024D01*
X8707738Y-13256024D02*
X8688691Y-13256024D01*
X8688691Y-13256024D02*
X8669643Y-13246500D01*
X8669643Y-13246500D02*
X8660119Y-13236976D01*
X8660119Y-13236976D02*
X8650595Y-13217928D01*
X8650595Y-13217928D02*
X8641072Y-13179833D01*
X8641072Y-13179833D02*
X8641072Y-13132214D01*
X8641072Y-13132214D02*
X8650595Y-13094119D01*
X8650595Y-13094119D02*
X8660119Y-13075071D01*
X8660119Y-13075071D02*
X8669643Y-13065548D01*
X8669643Y-13065548D02*
X8688691Y-13056024D01*
X8822024Y-13056024D02*
X8945834Y-13056024D01*
X8945834Y-13056024D02*
X8879167Y-13132214D01*
X8879167Y-13132214D02*
X8907738Y-13132214D01*
X8907738Y-13132214D02*
X8926786Y-13141738D01*
X8926786Y-13141738D02*
X8936310Y-13151262D01*
X8936310Y-13151262D02*
X8945834Y-13170309D01*
X8945834Y-13170309D02*
X8945834Y-13217928D01*
X8945834Y-13217928D02*
X8936310Y-13236976D01*
X8936310Y-13236976D02*
X8926786Y-13246500D01*
X8926786Y-13246500D02*
X8907738Y-13256024D01*
X8907738Y-13256024D02*
X8850595Y-13256024D01*
X8850595Y-13256024D02*
X8831548Y-13246500D01*
X8831548Y-13246500D02*
X8822024Y-13236976D01*
X9136310Y-13256024D02*
X9022024Y-13256024D01*
X9079167Y-13256024D02*
X9079167Y-13056024D01*
X9079167Y-13056024D02*
X9060119Y-13084595D01*
X9060119Y-13084595D02*
X9041072Y-13103643D01*
X9041072Y-13103643D02*
X9022024Y-13113167D01*
X9317262Y-13056024D02*
X9222024Y-13056024D01*
X9222024Y-13056024D02*
X9212500Y-13151262D01*
X9212500Y-13151262D02*
X9222024Y-13141738D01*
X9222024Y-13141738D02*
X9241072Y-13132214D01*
X9241072Y-13132214D02*
X9288691Y-13132214D01*
X9288691Y-13132214D02*
X9307738Y-13141738D01*
X9307738Y-13141738D02*
X9317262Y-13151262D01*
X9317262Y-13151262D02*
X9326786Y-13170309D01*
X9326786Y-13170309D02*
X9326786Y-13217928D01*
X9326786Y-13217928D02*
X9317262Y-13236976D01*
X9317262Y-13236976D02*
X9307738Y-13246500D01*
X9307738Y-13246500D02*
X9288691Y-13256024D01*
X9288691Y-13256024D02*
X9241072Y-13256024D01*
X9241072Y-13256024D02*
X9222024Y-13246500D01*
X9222024Y-13246500D02*
X9212500Y-13236976D01*
X9402976Y-13056024D02*
X9402976Y-13094119D01*
X9479167Y-13056024D02*
X9479167Y-13094119D01*
X9774405Y-13332214D02*
X9764881Y-13322690D01*
X9764881Y-13322690D02*
X9745834Y-13294119D01*
X9745834Y-13294119D02*
X9736310Y-13275071D01*
X9736310Y-13275071D02*
X9726786Y-13246500D01*
X9726786Y-13246500D02*
X9717262Y-13198881D01*
X9717262Y-13198881D02*
X9717262Y-13160786D01*
X9717262Y-13160786D02*
X9726786Y-13113167D01*
X9726786Y-13113167D02*
X9736310Y-13084595D01*
X9736310Y-13084595D02*
X9745834Y-13065548D01*
X9745834Y-13065548D02*
X9764881Y-13036976D01*
X9764881Y-13036976D02*
X9774405Y-13027452D01*
X9955357Y-13256024D02*
X9841072Y-13256024D01*
X9898215Y-13256024D02*
X9898215Y-13056024D01*
X9898215Y-13056024D02*
X9879167Y-13084595D01*
X9879167Y-13084595D02*
X9860119Y-13103643D01*
X9860119Y-13103643D02*
X9841072Y-13113167D01*
X10126786Y-13122690D02*
X10126786Y-13256024D01*
X10079167Y-13046500D02*
X10031548Y-13189357D01*
X10031548Y-13189357D02*
X10155357Y-13189357D01*
X10383929Y-13256024D02*
X10383929Y-13056024D01*
X10469643Y-13256024D02*
X10469643Y-13151262D01*
X10469643Y-13151262D02*
X10460119Y-13132214D01*
X10460119Y-13132214D02*
X10441072Y-13122690D01*
X10441072Y-13122690D02*
X10412500Y-13122690D01*
X10412500Y-13122690D02*
X10393453Y-13132214D01*
X10393453Y-13132214D02*
X10383929Y-13141738D01*
X10593453Y-13256024D02*
X10574405Y-13246500D01*
X10574405Y-13246500D02*
X10564881Y-13236976D01*
X10564881Y-13236976D02*
X10555358Y-13217928D01*
X10555358Y-13217928D02*
X10555358Y-13160786D01*
X10555358Y-13160786D02*
X10564881Y-13141738D01*
X10564881Y-13141738D02*
X10574405Y-13132214D01*
X10574405Y-13132214D02*
X10593453Y-13122690D01*
X10593453Y-13122690D02*
X10622024Y-13122690D01*
X10622024Y-13122690D02*
X10641072Y-13132214D01*
X10641072Y-13132214D02*
X10650596Y-13141738D01*
X10650596Y-13141738D02*
X10660119Y-13160786D01*
X10660119Y-13160786D02*
X10660119Y-13217928D01*
X10660119Y-13217928D02*
X10650596Y-13236976D01*
X10650596Y-13236976D02*
X10641072Y-13246500D01*
X10641072Y-13246500D02*
X10622024Y-13256024D01*
X10622024Y-13256024D02*
X10593453Y-13256024D01*
X10774405Y-13256024D02*
X10755358Y-13246500D01*
X10755358Y-13246500D02*
X10745834Y-13227452D01*
X10745834Y-13227452D02*
X10745834Y-13056024D01*
X10926786Y-13246500D02*
X10907739Y-13256024D01*
X10907739Y-13256024D02*
X10869643Y-13256024D01*
X10869643Y-13256024D02*
X10850596Y-13246500D01*
X10850596Y-13246500D02*
X10841072Y-13227452D01*
X10841072Y-13227452D02*
X10841072Y-13151262D01*
X10841072Y-13151262D02*
X10850596Y-13132214D01*
X10850596Y-13132214D02*
X10869643Y-13122690D01*
X10869643Y-13122690D02*
X10907739Y-13122690D01*
X10907739Y-13122690D02*
X10926786Y-13132214D01*
X10926786Y-13132214D02*
X10936310Y-13151262D01*
X10936310Y-13151262D02*
X10936310Y-13170309D01*
X10936310Y-13170309D02*
X10841072Y-13189357D01*
X11012500Y-13246500D02*
X11031548Y-13256024D01*
X11031548Y-13256024D02*
X11069643Y-13256024D01*
X11069643Y-13256024D02*
X11088691Y-13246500D01*
X11088691Y-13246500D02*
X11098215Y-13227452D01*
X11098215Y-13227452D02*
X11098215Y-13217928D01*
X11098215Y-13217928D02*
X11088691Y-13198881D01*
X11088691Y-13198881D02*
X11069643Y-13189357D01*
X11069643Y-13189357D02*
X11041072Y-13189357D01*
X11041072Y-13189357D02*
X11022024Y-13179833D01*
X11022024Y-13179833D02*
X11012500Y-13160786D01*
X11012500Y-13160786D02*
X11012500Y-13151262D01*
X11012500Y-13151262D02*
X11022024Y-13132214D01*
X11022024Y-13132214D02*
X11041072Y-13122690D01*
X11041072Y-13122690D02*
X11069643Y-13122690D01*
X11069643Y-13122690D02*
X11088691Y-13132214D01*
X11164881Y-13332214D02*
X11174405Y-13322690D01*
X11174405Y-13322690D02*
X11193453Y-13294119D01*
X11193453Y-13294119D02*
X11202977Y-13275071D01*
X11202977Y-13275071D02*
X11212500Y-13246500D01*
X11212500Y-13246500D02*
X11222024Y-13198881D01*
X11222024Y-13198881D02*
X11222024Y-13160786D01*
X11222024Y-13160786D02*
X11212500Y-13113167D01*
X11212500Y-13113167D02*
X11202977Y-13084595D01*
X11202977Y-13084595D02*
X11193453Y-13065548D01*
X11193453Y-13065548D02*
X11174405Y-13036976D01*
X11174405Y-13036976D02*
X11164881Y-13027452D01*
D16*
X6112500Y-13377500D02*
X6212500Y-13477500D01*
X6212500Y-13377500D02*
X6112500Y-13477500D01*
X6212500Y-13427500D02*
G75*
G03*
X6212500Y-13427500I-50000J0D01*
G01*
D11*
X6564881Y-13520024D02*
X6450595Y-13520024D01*
X6507738Y-13520024D02*
X6507738Y-13320024D01*
X6507738Y-13320024D02*
X6488690Y-13348595D01*
X6488690Y-13348595D02*
X6469643Y-13367643D01*
X6469643Y-13367643D02*
X6450595Y-13377167D01*
X6650595Y-13500976D02*
X6660119Y-13510500D01*
X6660119Y-13510500D02*
X6650595Y-13520024D01*
X6650595Y-13520024D02*
X6641071Y-13510500D01*
X6641071Y-13510500D02*
X6650595Y-13500976D01*
X6650595Y-13500976D02*
X6650595Y-13520024D01*
X6783928Y-13320024D02*
X6802976Y-13320024D01*
X6802976Y-13320024D02*
X6822024Y-13329548D01*
X6822024Y-13329548D02*
X6831548Y-13339071D01*
X6831548Y-13339071D02*
X6841071Y-13358119D01*
X6841071Y-13358119D02*
X6850595Y-13396214D01*
X6850595Y-13396214D02*
X6850595Y-13443833D01*
X6850595Y-13443833D02*
X6841071Y-13481928D01*
X6841071Y-13481928D02*
X6831548Y-13500976D01*
X6831548Y-13500976D02*
X6822024Y-13510500D01*
X6822024Y-13510500D02*
X6802976Y-13520024D01*
X6802976Y-13520024D02*
X6783928Y-13520024D01*
X6783928Y-13520024D02*
X6764881Y-13510500D01*
X6764881Y-13510500D02*
X6755357Y-13500976D01*
X6755357Y-13500976D02*
X6745833Y-13481928D01*
X6745833Y-13481928D02*
X6736309Y-13443833D01*
X6736309Y-13443833D02*
X6736309Y-13396214D01*
X6736309Y-13396214D02*
X6745833Y-13358119D01*
X6745833Y-13358119D02*
X6755357Y-13339071D01*
X6755357Y-13339071D02*
X6764881Y-13329548D01*
X6764881Y-13329548D02*
X6783928Y-13320024D01*
X6974405Y-13320024D02*
X6993452Y-13320024D01*
X6993452Y-13320024D02*
X7012500Y-13329548D01*
X7012500Y-13329548D02*
X7022024Y-13339071D01*
X7022024Y-13339071D02*
X7031548Y-13358119D01*
X7031548Y-13358119D02*
X7041071Y-13396214D01*
X7041071Y-13396214D02*
X7041071Y-13443833D01*
X7041071Y-13443833D02*
X7031548Y-13481928D01*
X7031548Y-13481928D02*
X7022024Y-13500976D01*
X7022024Y-13500976D02*
X7012500Y-13510500D01*
X7012500Y-13510500D02*
X6993452Y-13520024D01*
X6993452Y-13520024D02*
X6974405Y-13520024D01*
X6974405Y-13520024D02*
X6955357Y-13510500D01*
X6955357Y-13510500D02*
X6945833Y-13500976D01*
X6945833Y-13500976D02*
X6936309Y-13481928D01*
X6936309Y-13481928D02*
X6926786Y-13443833D01*
X6926786Y-13443833D02*
X6926786Y-13396214D01*
X6926786Y-13396214D02*
X6936309Y-13358119D01*
X6936309Y-13358119D02*
X6945833Y-13339071D01*
X6945833Y-13339071D02*
X6955357Y-13329548D01*
X6955357Y-13329548D02*
X6974405Y-13320024D01*
X7164881Y-13320024D02*
X7183929Y-13320024D01*
X7183929Y-13320024D02*
X7202976Y-13329548D01*
X7202976Y-13329548D02*
X7212500Y-13339071D01*
X7212500Y-13339071D02*
X7222024Y-13358119D01*
X7222024Y-13358119D02*
X7231548Y-13396214D01*
X7231548Y-13396214D02*
X7231548Y-13443833D01*
X7231548Y-13443833D02*
X7222024Y-13481928D01*
X7222024Y-13481928D02*
X7212500Y-13500976D01*
X7212500Y-13500976D02*
X7202976Y-13510500D01*
X7202976Y-13510500D02*
X7183929Y-13520024D01*
X7183929Y-13520024D02*
X7164881Y-13520024D01*
X7164881Y-13520024D02*
X7145833Y-13510500D01*
X7145833Y-13510500D02*
X7136309Y-13500976D01*
X7136309Y-13500976D02*
X7126786Y-13481928D01*
X7126786Y-13481928D02*
X7117262Y-13443833D01*
X7117262Y-13443833D02*
X7117262Y-13396214D01*
X7117262Y-13396214D02*
X7126786Y-13358119D01*
X7126786Y-13358119D02*
X7136309Y-13339071D01*
X7136309Y-13339071D02*
X7145833Y-13329548D01*
X7145833Y-13329548D02*
X7164881Y-13320024D01*
X7317262Y-13520024D02*
X7317262Y-13386690D01*
X7317262Y-13405738D02*
X7326786Y-13396214D01*
X7326786Y-13396214D02*
X7345833Y-13386690D01*
X7345833Y-13386690D02*
X7374405Y-13386690D01*
X7374405Y-13386690D02*
X7393452Y-13396214D01*
X7393452Y-13396214D02*
X7402976Y-13415262D01*
X7402976Y-13415262D02*
X7402976Y-13520024D01*
X7402976Y-13415262D02*
X7412500Y-13396214D01*
X7412500Y-13396214D02*
X7431548Y-13386690D01*
X7431548Y-13386690D02*
X7460119Y-13386690D01*
X7460119Y-13386690D02*
X7479167Y-13396214D01*
X7479167Y-13396214D02*
X7488690Y-13415262D01*
X7488690Y-13415262D02*
X7488690Y-13520024D01*
X7583929Y-13520024D02*
X7583929Y-13386690D01*
X7583929Y-13405738D02*
X7593452Y-13396214D01*
X7593452Y-13396214D02*
X7612500Y-13386690D01*
X7612500Y-13386690D02*
X7641071Y-13386690D01*
X7641071Y-13386690D02*
X7660119Y-13396214D01*
X7660119Y-13396214D02*
X7669643Y-13415262D01*
X7669643Y-13415262D02*
X7669643Y-13520024D01*
X7669643Y-13415262D02*
X7679167Y-13396214D01*
X7679167Y-13396214D02*
X7698214Y-13386690D01*
X7698214Y-13386690D02*
X7726786Y-13386690D01*
X7726786Y-13386690D02*
X7745833Y-13396214D01*
X7745833Y-13396214D02*
X7755357Y-13415262D01*
X7755357Y-13415262D02*
X7755357Y-13520024D01*
X8145833Y-13310500D02*
X7974405Y-13567643D01*
X8402976Y-13320024D02*
X8422024Y-13320024D01*
X8422024Y-13320024D02*
X8441072Y-13329548D01*
X8441072Y-13329548D02*
X8450595Y-13339071D01*
X8450595Y-13339071D02*
X8460119Y-13358119D01*
X8460119Y-13358119D02*
X8469643Y-13396214D01*
X8469643Y-13396214D02*
X8469643Y-13443833D01*
X8469643Y-13443833D02*
X8460119Y-13481928D01*
X8460119Y-13481928D02*
X8450595Y-13500976D01*
X8450595Y-13500976D02*
X8441072Y-13510500D01*
X8441072Y-13510500D02*
X8422024Y-13520024D01*
X8422024Y-13520024D02*
X8402976Y-13520024D01*
X8402976Y-13520024D02*
X8383929Y-13510500D01*
X8383929Y-13510500D02*
X8374405Y-13500976D01*
X8374405Y-13500976D02*
X8364881Y-13481928D01*
X8364881Y-13481928D02*
X8355357Y-13443833D01*
X8355357Y-13443833D02*
X8355357Y-13396214D01*
X8355357Y-13396214D02*
X8364881Y-13358119D01*
X8364881Y-13358119D02*
X8374405Y-13339071D01*
X8374405Y-13339071D02*
X8383929Y-13329548D01*
X8383929Y-13329548D02*
X8402976Y-13320024D01*
X8555357Y-13500976D02*
X8564881Y-13510500D01*
X8564881Y-13510500D02*
X8555357Y-13520024D01*
X8555357Y-13520024D02*
X8545834Y-13510500D01*
X8545834Y-13510500D02*
X8555357Y-13500976D01*
X8555357Y-13500976D02*
X8555357Y-13520024D01*
X8688691Y-13320024D02*
X8707738Y-13320024D01*
X8707738Y-13320024D02*
X8726786Y-13329548D01*
X8726786Y-13329548D02*
X8736310Y-13339071D01*
X8736310Y-13339071D02*
X8745834Y-13358119D01*
X8745834Y-13358119D02*
X8755357Y-13396214D01*
X8755357Y-13396214D02*
X8755357Y-13443833D01*
X8755357Y-13443833D02*
X8745834Y-13481928D01*
X8745834Y-13481928D02*
X8736310Y-13500976D01*
X8736310Y-13500976D02*
X8726786Y-13510500D01*
X8726786Y-13510500D02*
X8707738Y-13520024D01*
X8707738Y-13520024D02*
X8688691Y-13520024D01*
X8688691Y-13520024D02*
X8669643Y-13510500D01*
X8669643Y-13510500D02*
X8660119Y-13500976D01*
X8660119Y-13500976D02*
X8650595Y-13481928D01*
X8650595Y-13481928D02*
X8641072Y-13443833D01*
X8641072Y-13443833D02*
X8641072Y-13396214D01*
X8641072Y-13396214D02*
X8650595Y-13358119D01*
X8650595Y-13358119D02*
X8660119Y-13339071D01*
X8660119Y-13339071D02*
X8669643Y-13329548D01*
X8669643Y-13329548D02*
X8688691Y-13320024D01*
X8822024Y-13320024D02*
X8945834Y-13320024D01*
X8945834Y-13320024D02*
X8879167Y-13396214D01*
X8879167Y-13396214D02*
X8907738Y-13396214D01*
X8907738Y-13396214D02*
X8926786Y-13405738D01*
X8926786Y-13405738D02*
X8936310Y-13415262D01*
X8936310Y-13415262D02*
X8945834Y-13434309D01*
X8945834Y-13434309D02*
X8945834Y-13481928D01*
X8945834Y-13481928D02*
X8936310Y-13500976D01*
X8936310Y-13500976D02*
X8926786Y-13510500D01*
X8926786Y-13510500D02*
X8907738Y-13520024D01*
X8907738Y-13520024D02*
X8850595Y-13520024D01*
X8850595Y-13520024D02*
X8831548Y-13510500D01*
X8831548Y-13510500D02*
X8822024Y-13500976D01*
X9041072Y-13520024D02*
X9079167Y-13520024D01*
X9079167Y-13520024D02*
X9098215Y-13510500D01*
X9098215Y-13510500D02*
X9107738Y-13500976D01*
X9107738Y-13500976D02*
X9126786Y-13472405D01*
X9126786Y-13472405D02*
X9136310Y-13434309D01*
X9136310Y-13434309D02*
X9136310Y-13358119D01*
X9136310Y-13358119D02*
X9126786Y-13339071D01*
X9126786Y-13339071D02*
X9117262Y-13329548D01*
X9117262Y-13329548D02*
X9098215Y-13320024D01*
X9098215Y-13320024D02*
X9060119Y-13320024D01*
X9060119Y-13320024D02*
X9041072Y-13329548D01*
X9041072Y-13329548D02*
X9031548Y-13339071D01*
X9031548Y-13339071D02*
X9022024Y-13358119D01*
X9022024Y-13358119D02*
X9022024Y-13405738D01*
X9022024Y-13405738D02*
X9031548Y-13424786D01*
X9031548Y-13424786D02*
X9041072Y-13434309D01*
X9041072Y-13434309D02*
X9060119Y-13443833D01*
X9060119Y-13443833D02*
X9098215Y-13443833D01*
X9098215Y-13443833D02*
X9117262Y-13434309D01*
X9117262Y-13434309D02*
X9126786Y-13424786D01*
X9126786Y-13424786D02*
X9136310Y-13405738D01*
X9307738Y-13386690D02*
X9307738Y-13520024D01*
X9260119Y-13310500D02*
X9212500Y-13453357D01*
X9212500Y-13453357D02*
X9336310Y-13453357D01*
X9402976Y-13320024D02*
X9402976Y-13358119D01*
X9479167Y-13320024D02*
X9479167Y-13358119D01*
X9774405Y-13596214D02*
X9764881Y-13586690D01*
X9764881Y-13586690D02*
X9745834Y-13558119D01*
X9745834Y-13558119D02*
X9736310Y-13539071D01*
X9736310Y-13539071D02*
X9726786Y-13510500D01*
X9726786Y-13510500D02*
X9717262Y-13462881D01*
X9717262Y-13462881D02*
X9717262Y-13424786D01*
X9717262Y-13424786D02*
X9726786Y-13377167D01*
X9726786Y-13377167D02*
X9736310Y-13348595D01*
X9736310Y-13348595D02*
X9745834Y-13329548D01*
X9745834Y-13329548D02*
X9764881Y-13300976D01*
X9764881Y-13300976D02*
X9774405Y-13291452D01*
X9955357Y-13520024D02*
X9841072Y-13520024D01*
X9898215Y-13520024D02*
X9898215Y-13320024D01*
X9898215Y-13320024D02*
X9879167Y-13348595D01*
X9879167Y-13348595D02*
X9860119Y-13367643D01*
X9860119Y-13367643D02*
X9841072Y-13377167D01*
X10069643Y-13405738D02*
X10050596Y-13396214D01*
X10050596Y-13396214D02*
X10041072Y-13386690D01*
X10041072Y-13386690D02*
X10031548Y-13367643D01*
X10031548Y-13367643D02*
X10031548Y-13358119D01*
X10031548Y-13358119D02*
X10041072Y-13339071D01*
X10041072Y-13339071D02*
X10050596Y-13329548D01*
X10050596Y-13329548D02*
X10069643Y-13320024D01*
X10069643Y-13320024D02*
X10107738Y-13320024D01*
X10107738Y-13320024D02*
X10126786Y-13329548D01*
X10126786Y-13329548D02*
X10136310Y-13339071D01*
X10136310Y-13339071D02*
X10145834Y-13358119D01*
X10145834Y-13358119D02*
X10145834Y-13367643D01*
X10145834Y-13367643D02*
X10136310Y-13386690D01*
X10136310Y-13386690D02*
X10126786Y-13396214D01*
X10126786Y-13396214D02*
X10107738Y-13405738D01*
X10107738Y-13405738D02*
X10069643Y-13405738D01*
X10069643Y-13405738D02*
X10050596Y-13415262D01*
X10050596Y-13415262D02*
X10041072Y-13424786D01*
X10041072Y-13424786D02*
X10031548Y-13443833D01*
X10031548Y-13443833D02*
X10031548Y-13481928D01*
X10031548Y-13481928D02*
X10041072Y-13500976D01*
X10041072Y-13500976D02*
X10050596Y-13510500D01*
X10050596Y-13510500D02*
X10069643Y-13520024D01*
X10069643Y-13520024D02*
X10107738Y-13520024D01*
X10107738Y-13520024D02*
X10126786Y-13510500D01*
X10126786Y-13510500D02*
X10136310Y-13500976D01*
X10136310Y-13500976D02*
X10145834Y-13481928D01*
X10145834Y-13481928D02*
X10145834Y-13443833D01*
X10145834Y-13443833D02*
X10136310Y-13424786D01*
X10136310Y-13424786D02*
X10126786Y-13415262D01*
X10126786Y-13415262D02*
X10107738Y-13405738D01*
X10383929Y-13520024D02*
X10383929Y-13320024D01*
X10469643Y-13520024D02*
X10469643Y-13415262D01*
X10469643Y-13415262D02*
X10460119Y-13396214D01*
X10460119Y-13396214D02*
X10441072Y-13386690D01*
X10441072Y-13386690D02*
X10412500Y-13386690D01*
X10412500Y-13386690D02*
X10393453Y-13396214D01*
X10393453Y-13396214D02*
X10383929Y-13405738D01*
X10593453Y-13520024D02*
X10574405Y-13510500D01*
X10574405Y-13510500D02*
X10564881Y-13500976D01*
X10564881Y-13500976D02*
X10555358Y-13481928D01*
X10555358Y-13481928D02*
X10555358Y-13424786D01*
X10555358Y-13424786D02*
X10564881Y-13405738D01*
X10564881Y-13405738D02*
X10574405Y-13396214D01*
X10574405Y-13396214D02*
X10593453Y-13386690D01*
X10593453Y-13386690D02*
X10622024Y-13386690D01*
X10622024Y-13386690D02*
X10641072Y-13396214D01*
X10641072Y-13396214D02*
X10650596Y-13405738D01*
X10650596Y-13405738D02*
X10660119Y-13424786D01*
X10660119Y-13424786D02*
X10660119Y-13481928D01*
X10660119Y-13481928D02*
X10650596Y-13500976D01*
X10650596Y-13500976D02*
X10641072Y-13510500D01*
X10641072Y-13510500D02*
X10622024Y-13520024D01*
X10622024Y-13520024D02*
X10593453Y-13520024D01*
X10774405Y-13520024D02*
X10755358Y-13510500D01*
X10755358Y-13510500D02*
X10745834Y-13491452D01*
X10745834Y-13491452D02*
X10745834Y-13320024D01*
X10926786Y-13510500D02*
X10907739Y-13520024D01*
X10907739Y-13520024D02*
X10869643Y-13520024D01*
X10869643Y-13520024D02*
X10850596Y-13510500D01*
X10850596Y-13510500D02*
X10841072Y-13491452D01*
X10841072Y-13491452D02*
X10841072Y-13415262D01*
X10841072Y-13415262D02*
X10850596Y-13396214D01*
X10850596Y-13396214D02*
X10869643Y-13386690D01*
X10869643Y-13386690D02*
X10907739Y-13386690D01*
X10907739Y-13386690D02*
X10926786Y-13396214D01*
X10926786Y-13396214D02*
X10936310Y-13415262D01*
X10936310Y-13415262D02*
X10936310Y-13434309D01*
X10936310Y-13434309D02*
X10841072Y-13453357D01*
X11012500Y-13510500D02*
X11031548Y-13520024D01*
X11031548Y-13520024D02*
X11069643Y-13520024D01*
X11069643Y-13520024D02*
X11088691Y-13510500D01*
X11088691Y-13510500D02*
X11098215Y-13491452D01*
X11098215Y-13491452D02*
X11098215Y-13481928D01*
X11098215Y-13481928D02*
X11088691Y-13462881D01*
X11088691Y-13462881D02*
X11069643Y-13453357D01*
X11069643Y-13453357D02*
X11041072Y-13453357D01*
X11041072Y-13453357D02*
X11022024Y-13443833D01*
X11022024Y-13443833D02*
X11012500Y-13424786D01*
X11012500Y-13424786D02*
X11012500Y-13415262D01*
X11012500Y-13415262D02*
X11022024Y-13396214D01*
X11022024Y-13396214D02*
X11041072Y-13386690D01*
X11041072Y-13386690D02*
X11069643Y-13386690D01*
X11069643Y-13386690D02*
X11088691Y-13396214D01*
X11164881Y-13596214D02*
X11174405Y-13586690D01*
X11174405Y-13586690D02*
X11193453Y-13558119D01*
X11193453Y-13558119D02*
X11202977Y-13539071D01*
X11202977Y-13539071D02*
X11212500Y-13510500D01*
X11212500Y-13510500D02*
X11222024Y-13462881D01*
X11222024Y-13462881D02*
X11222024Y-13424786D01*
X11222024Y-13424786D02*
X11212500Y-13377167D01*
X11212500Y-13377167D02*
X11202977Y-13348595D01*
X11202977Y-13348595D02*
X11193453Y-13329548D01*
X11193453Y-13329548D02*
X11174405Y-13300976D01*
X11174405Y-13300976D02*
X11164881Y-13291452D01*
D17*
X6093500Y-13632000D02*
X6212500Y-13751000D01*
X6212500Y-13632000D02*
X6093500Y-13751000D01*
X6153000Y-13632000D02*
X6153000Y-13751000D01*
X6093500Y-13691500D02*
X6212500Y-13691500D01*
D11*
X6564881Y-13784024D02*
X6450595Y-13784024D01*
X6507738Y-13784024D02*
X6507738Y-13584024D01*
X6507738Y-13584024D02*
X6488690Y-13612595D01*
X6488690Y-13612595D02*
X6469643Y-13631643D01*
X6469643Y-13631643D02*
X6450595Y-13641167D01*
X6650595Y-13764976D02*
X6660119Y-13774500D01*
X6660119Y-13774500D02*
X6650595Y-13784024D01*
X6650595Y-13784024D02*
X6641071Y-13774500D01*
X6641071Y-13774500D02*
X6650595Y-13764976D01*
X6650595Y-13764976D02*
X6650595Y-13784024D01*
X6850595Y-13784024D02*
X6736309Y-13784024D01*
X6793452Y-13784024D02*
X6793452Y-13584024D01*
X6793452Y-13584024D02*
X6774405Y-13612595D01*
X6774405Y-13612595D02*
X6755357Y-13631643D01*
X6755357Y-13631643D02*
X6736309Y-13641167D01*
X6945833Y-13784024D02*
X6983928Y-13784024D01*
X6983928Y-13784024D02*
X7002976Y-13774500D01*
X7002976Y-13774500D02*
X7012500Y-13764976D01*
X7012500Y-13764976D02*
X7031548Y-13736405D01*
X7031548Y-13736405D02*
X7041071Y-13698309D01*
X7041071Y-13698309D02*
X7041071Y-13622119D01*
X7041071Y-13622119D02*
X7031548Y-13603071D01*
X7031548Y-13603071D02*
X7022024Y-13593548D01*
X7022024Y-13593548D02*
X7002976Y-13584024D01*
X7002976Y-13584024D02*
X6964881Y-13584024D01*
X6964881Y-13584024D02*
X6945833Y-13593548D01*
X6945833Y-13593548D02*
X6936309Y-13603071D01*
X6936309Y-13603071D02*
X6926786Y-13622119D01*
X6926786Y-13622119D02*
X6926786Y-13669738D01*
X6926786Y-13669738D02*
X6936309Y-13688786D01*
X6936309Y-13688786D02*
X6945833Y-13698309D01*
X6945833Y-13698309D02*
X6964881Y-13707833D01*
X6964881Y-13707833D02*
X7002976Y-13707833D01*
X7002976Y-13707833D02*
X7022024Y-13698309D01*
X7022024Y-13698309D02*
X7031548Y-13688786D01*
X7031548Y-13688786D02*
X7041071Y-13669738D01*
X7164881Y-13584024D02*
X7183929Y-13584024D01*
X7183929Y-13584024D02*
X7202976Y-13593548D01*
X7202976Y-13593548D02*
X7212500Y-13603071D01*
X7212500Y-13603071D02*
X7222024Y-13622119D01*
X7222024Y-13622119D02*
X7231548Y-13660214D01*
X7231548Y-13660214D02*
X7231548Y-13707833D01*
X7231548Y-13707833D02*
X7222024Y-13745928D01*
X7222024Y-13745928D02*
X7212500Y-13764976D01*
X7212500Y-13764976D02*
X7202976Y-13774500D01*
X7202976Y-13774500D02*
X7183929Y-13784024D01*
X7183929Y-13784024D02*
X7164881Y-13784024D01*
X7164881Y-13784024D02*
X7145833Y-13774500D01*
X7145833Y-13774500D02*
X7136309Y-13764976D01*
X7136309Y-13764976D02*
X7126786Y-13745928D01*
X7126786Y-13745928D02*
X7117262Y-13707833D01*
X7117262Y-13707833D02*
X7117262Y-13660214D01*
X7117262Y-13660214D02*
X7126786Y-13622119D01*
X7126786Y-13622119D02*
X7136309Y-13603071D01*
X7136309Y-13603071D02*
X7145833Y-13593548D01*
X7145833Y-13593548D02*
X7164881Y-13584024D01*
X7317262Y-13784024D02*
X7317262Y-13650690D01*
X7317262Y-13669738D02*
X7326786Y-13660214D01*
X7326786Y-13660214D02*
X7345833Y-13650690D01*
X7345833Y-13650690D02*
X7374405Y-13650690D01*
X7374405Y-13650690D02*
X7393452Y-13660214D01*
X7393452Y-13660214D02*
X7402976Y-13679262D01*
X7402976Y-13679262D02*
X7402976Y-13784024D01*
X7402976Y-13679262D02*
X7412500Y-13660214D01*
X7412500Y-13660214D02*
X7431548Y-13650690D01*
X7431548Y-13650690D02*
X7460119Y-13650690D01*
X7460119Y-13650690D02*
X7479167Y-13660214D01*
X7479167Y-13660214D02*
X7488690Y-13679262D01*
X7488690Y-13679262D02*
X7488690Y-13784024D01*
X7583929Y-13784024D02*
X7583929Y-13650690D01*
X7583929Y-13669738D02*
X7593452Y-13660214D01*
X7593452Y-13660214D02*
X7612500Y-13650690D01*
X7612500Y-13650690D02*
X7641071Y-13650690D01*
X7641071Y-13650690D02*
X7660119Y-13660214D01*
X7660119Y-13660214D02*
X7669643Y-13679262D01*
X7669643Y-13679262D02*
X7669643Y-13784024D01*
X7669643Y-13679262D02*
X7679167Y-13660214D01*
X7679167Y-13660214D02*
X7698214Y-13650690D01*
X7698214Y-13650690D02*
X7726786Y-13650690D01*
X7726786Y-13650690D02*
X7745833Y-13660214D01*
X7745833Y-13660214D02*
X7755357Y-13679262D01*
X7755357Y-13679262D02*
X7755357Y-13784024D01*
X8145833Y-13574500D02*
X7974405Y-13831643D01*
X8402976Y-13584024D02*
X8422024Y-13584024D01*
X8422024Y-13584024D02*
X8441072Y-13593548D01*
X8441072Y-13593548D02*
X8450595Y-13603071D01*
X8450595Y-13603071D02*
X8460119Y-13622119D01*
X8460119Y-13622119D02*
X8469643Y-13660214D01*
X8469643Y-13660214D02*
X8469643Y-13707833D01*
X8469643Y-13707833D02*
X8460119Y-13745928D01*
X8460119Y-13745928D02*
X8450595Y-13764976D01*
X8450595Y-13764976D02*
X8441072Y-13774500D01*
X8441072Y-13774500D02*
X8422024Y-13784024D01*
X8422024Y-13784024D02*
X8402976Y-13784024D01*
X8402976Y-13784024D02*
X8383929Y-13774500D01*
X8383929Y-13774500D02*
X8374405Y-13764976D01*
X8374405Y-13764976D02*
X8364881Y-13745928D01*
X8364881Y-13745928D02*
X8355357Y-13707833D01*
X8355357Y-13707833D02*
X8355357Y-13660214D01*
X8355357Y-13660214D02*
X8364881Y-13622119D01*
X8364881Y-13622119D02*
X8374405Y-13603071D01*
X8374405Y-13603071D02*
X8383929Y-13593548D01*
X8383929Y-13593548D02*
X8402976Y-13584024D01*
X8555357Y-13764976D02*
X8564881Y-13774500D01*
X8564881Y-13774500D02*
X8555357Y-13784024D01*
X8555357Y-13784024D02*
X8545834Y-13774500D01*
X8545834Y-13774500D02*
X8555357Y-13764976D01*
X8555357Y-13764976D02*
X8555357Y-13784024D01*
X8688691Y-13584024D02*
X8707738Y-13584024D01*
X8707738Y-13584024D02*
X8726786Y-13593548D01*
X8726786Y-13593548D02*
X8736310Y-13603071D01*
X8736310Y-13603071D02*
X8745834Y-13622119D01*
X8745834Y-13622119D02*
X8755357Y-13660214D01*
X8755357Y-13660214D02*
X8755357Y-13707833D01*
X8755357Y-13707833D02*
X8745834Y-13745928D01*
X8745834Y-13745928D02*
X8736310Y-13764976D01*
X8736310Y-13764976D02*
X8726786Y-13774500D01*
X8726786Y-13774500D02*
X8707738Y-13784024D01*
X8707738Y-13784024D02*
X8688691Y-13784024D01*
X8688691Y-13784024D02*
X8669643Y-13774500D01*
X8669643Y-13774500D02*
X8660119Y-13764976D01*
X8660119Y-13764976D02*
X8650595Y-13745928D01*
X8650595Y-13745928D02*
X8641072Y-13707833D01*
X8641072Y-13707833D02*
X8641072Y-13660214D01*
X8641072Y-13660214D02*
X8650595Y-13622119D01*
X8650595Y-13622119D02*
X8660119Y-13603071D01*
X8660119Y-13603071D02*
X8669643Y-13593548D01*
X8669643Y-13593548D02*
X8688691Y-13584024D01*
X8926786Y-13650690D02*
X8926786Y-13784024D01*
X8879167Y-13574500D02*
X8831548Y-13717357D01*
X8831548Y-13717357D02*
X8955357Y-13717357D01*
X9117262Y-13584024D02*
X9079167Y-13584024D01*
X9079167Y-13584024D02*
X9060119Y-13593548D01*
X9060119Y-13593548D02*
X9050595Y-13603071D01*
X9050595Y-13603071D02*
X9031548Y-13631643D01*
X9031548Y-13631643D02*
X9022024Y-13669738D01*
X9022024Y-13669738D02*
X9022024Y-13745928D01*
X9022024Y-13745928D02*
X9031548Y-13764976D01*
X9031548Y-13764976D02*
X9041072Y-13774500D01*
X9041072Y-13774500D02*
X9060119Y-13784024D01*
X9060119Y-13784024D02*
X9098215Y-13784024D01*
X9098215Y-13784024D02*
X9117262Y-13774500D01*
X9117262Y-13774500D02*
X9126786Y-13764976D01*
X9126786Y-13764976D02*
X9136310Y-13745928D01*
X9136310Y-13745928D02*
X9136310Y-13698309D01*
X9136310Y-13698309D02*
X9126786Y-13679262D01*
X9126786Y-13679262D02*
X9117262Y-13669738D01*
X9117262Y-13669738D02*
X9098215Y-13660214D01*
X9098215Y-13660214D02*
X9060119Y-13660214D01*
X9060119Y-13660214D02*
X9041072Y-13669738D01*
X9041072Y-13669738D02*
X9031548Y-13679262D01*
X9031548Y-13679262D02*
X9022024Y-13698309D01*
X9231548Y-13784024D02*
X9269643Y-13784024D01*
X9269643Y-13784024D02*
X9288691Y-13774500D01*
X9288691Y-13774500D02*
X9298215Y-13764976D01*
X9298215Y-13764976D02*
X9317262Y-13736405D01*
X9317262Y-13736405D02*
X9326786Y-13698309D01*
X9326786Y-13698309D02*
X9326786Y-13622119D01*
X9326786Y-13622119D02*
X9317262Y-13603071D01*
X9317262Y-13603071D02*
X9307738Y-13593548D01*
X9307738Y-13593548D02*
X9288691Y-13584024D01*
X9288691Y-13584024D02*
X9250595Y-13584024D01*
X9250595Y-13584024D02*
X9231548Y-13593548D01*
X9231548Y-13593548D02*
X9222024Y-13603071D01*
X9222024Y-13603071D02*
X9212500Y-13622119D01*
X9212500Y-13622119D02*
X9212500Y-13669738D01*
X9212500Y-13669738D02*
X9222024Y-13688786D01*
X9222024Y-13688786D02*
X9231548Y-13698309D01*
X9231548Y-13698309D02*
X9250595Y-13707833D01*
X9250595Y-13707833D02*
X9288691Y-13707833D01*
X9288691Y-13707833D02*
X9307738Y-13698309D01*
X9307738Y-13698309D02*
X9317262Y-13688786D01*
X9317262Y-13688786D02*
X9326786Y-13669738D01*
X9402976Y-13584024D02*
X9402976Y-13622119D01*
X9479167Y-13584024D02*
X9479167Y-13622119D01*
X9774405Y-13860214D02*
X9764881Y-13850690D01*
X9764881Y-13850690D02*
X9745834Y-13822119D01*
X9745834Y-13822119D02*
X9736310Y-13803071D01*
X9736310Y-13803071D02*
X9726786Y-13774500D01*
X9726786Y-13774500D02*
X9717262Y-13726881D01*
X9717262Y-13726881D02*
X9717262Y-13688786D01*
X9717262Y-13688786D02*
X9726786Y-13641167D01*
X9726786Y-13641167D02*
X9736310Y-13612595D01*
X9736310Y-13612595D02*
X9745834Y-13593548D01*
X9745834Y-13593548D02*
X9764881Y-13564976D01*
X9764881Y-13564976D02*
X9774405Y-13555452D01*
X9936310Y-13650690D02*
X9936310Y-13784024D01*
X9888691Y-13574500D02*
X9841072Y-13717357D01*
X9841072Y-13717357D02*
X9964881Y-13717357D01*
X10022024Y-13584024D02*
X10155357Y-13584024D01*
X10155357Y-13584024D02*
X10069643Y-13784024D01*
X10383929Y-13784024D02*
X10383929Y-13584024D01*
X10469643Y-13784024D02*
X10469643Y-13679262D01*
X10469643Y-13679262D02*
X10460119Y-13660214D01*
X10460119Y-13660214D02*
X10441072Y-13650690D01*
X10441072Y-13650690D02*
X10412500Y-13650690D01*
X10412500Y-13650690D02*
X10393453Y-13660214D01*
X10393453Y-13660214D02*
X10383929Y-13669738D01*
X10593453Y-13784024D02*
X10574405Y-13774500D01*
X10574405Y-13774500D02*
X10564881Y-13764976D01*
X10564881Y-13764976D02*
X10555358Y-13745928D01*
X10555358Y-13745928D02*
X10555358Y-13688786D01*
X10555358Y-13688786D02*
X10564881Y-13669738D01*
X10564881Y-13669738D02*
X10574405Y-13660214D01*
X10574405Y-13660214D02*
X10593453Y-13650690D01*
X10593453Y-13650690D02*
X10622024Y-13650690D01*
X10622024Y-13650690D02*
X10641072Y-13660214D01*
X10641072Y-13660214D02*
X10650596Y-13669738D01*
X10650596Y-13669738D02*
X10660119Y-13688786D01*
X10660119Y-13688786D02*
X10660119Y-13745928D01*
X10660119Y-13745928D02*
X10650596Y-13764976D01*
X10650596Y-13764976D02*
X10641072Y-13774500D01*
X10641072Y-13774500D02*
X10622024Y-13784024D01*
X10622024Y-13784024D02*
X10593453Y-13784024D01*
X10774405Y-13784024D02*
X10755358Y-13774500D01*
X10755358Y-13774500D02*
X10745834Y-13755452D01*
X10745834Y-13755452D02*
X10745834Y-13584024D01*
X10926786Y-13774500D02*
X10907739Y-13784024D01*
X10907739Y-13784024D02*
X10869643Y-13784024D01*
X10869643Y-13784024D02*
X10850596Y-13774500D01*
X10850596Y-13774500D02*
X10841072Y-13755452D01*
X10841072Y-13755452D02*
X10841072Y-13679262D01*
X10841072Y-13679262D02*
X10850596Y-13660214D01*
X10850596Y-13660214D02*
X10869643Y-13650690D01*
X10869643Y-13650690D02*
X10907739Y-13650690D01*
X10907739Y-13650690D02*
X10926786Y-13660214D01*
X10926786Y-13660214D02*
X10936310Y-13679262D01*
X10936310Y-13679262D02*
X10936310Y-13698309D01*
X10936310Y-13698309D02*
X10841072Y-13717357D01*
X11012500Y-13774500D02*
X11031548Y-13784024D01*
X11031548Y-13784024D02*
X11069643Y-13784024D01*
X11069643Y-13784024D02*
X11088691Y-13774500D01*
X11088691Y-13774500D02*
X11098215Y-13755452D01*
X11098215Y-13755452D02*
X11098215Y-13745928D01*
X11098215Y-13745928D02*
X11088691Y-13726881D01*
X11088691Y-13726881D02*
X11069643Y-13717357D01*
X11069643Y-13717357D02*
X11041072Y-13717357D01*
X11041072Y-13717357D02*
X11022024Y-13707833D01*
X11022024Y-13707833D02*
X11012500Y-13688786D01*
X11012500Y-13688786D02*
X11012500Y-13679262D01*
X11012500Y-13679262D02*
X11022024Y-13660214D01*
X11022024Y-13660214D02*
X11041072Y-13650690D01*
X11041072Y-13650690D02*
X11069643Y-13650690D01*
X11069643Y-13650690D02*
X11088691Y-13660214D01*
X11164881Y-13860214D02*
X11174405Y-13850690D01*
X11174405Y-13850690D02*
X11193453Y-13822119D01*
X11193453Y-13822119D02*
X11202977Y-13803071D01*
X11202977Y-13803071D02*
X11212500Y-13774500D01*
X11212500Y-13774500D02*
X11222024Y-13726881D01*
X11222024Y-13726881D02*
X11222024Y-13688786D01*
X11222024Y-13688786D02*
X11212500Y-13641167D01*
X11212500Y-13641167D02*
X11202977Y-13612595D01*
X11202977Y-13612595D02*
X11193453Y-13593548D01*
X11193453Y-13593548D02*
X11174405Y-13564976D01*
X11174405Y-13564976D02*
X11164881Y-13555452D01*
D18*
X6052500Y-13875500D02*
X6212500Y-14035500D01*
X6212500Y-13875500D02*
X6052500Y-14035500D01*
X6189069Y-14012069D02*
X6189069Y-13898931D01*
X6075931Y-13898931D01*
X6075931Y-14012069D01*
X6189069Y-14012069D01*
D11*
X6564881Y-14048024D02*
X6450595Y-14048024D01*
X6507738Y-14048024D02*
X6507738Y-13848024D01*
X6507738Y-13848024D02*
X6488690Y-13876595D01*
X6488690Y-13876595D02*
X6469643Y-13895643D01*
X6469643Y-13895643D02*
X6450595Y-13905167D01*
X6650595Y-14028976D02*
X6660119Y-14038500D01*
X6660119Y-14038500D02*
X6650595Y-14048024D01*
X6650595Y-14048024D02*
X6641071Y-14038500D01*
X6641071Y-14038500D02*
X6650595Y-14028976D01*
X6650595Y-14028976D02*
X6650595Y-14048024D01*
X6831548Y-13848024D02*
X6793452Y-13848024D01*
X6793452Y-13848024D02*
X6774405Y-13857548D01*
X6774405Y-13857548D02*
X6764881Y-13867071D01*
X6764881Y-13867071D02*
X6745833Y-13895643D01*
X6745833Y-13895643D02*
X6736309Y-13933738D01*
X6736309Y-13933738D02*
X6736309Y-14009928D01*
X6736309Y-14009928D02*
X6745833Y-14028976D01*
X6745833Y-14028976D02*
X6755357Y-14038500D01*
X6755357Y-14038500D02*
X6774405Y-14048024D01*
X6774405Y-14048024D02*
X6812500Y-14048024D01*
X6812500Y-14048024D02*
X6831548Y-14038500D01*
X6831548Y-14038500D02*
X6841071Y-14028976D01*
X6841071Y-14028976D02*
X6850595Y-14009928D01*
X6850595Y-14009928D02*
X6850595Y-13962309D01*
X6850595Y-13962309D02*
X6841071Y-13943262D01*
X6841071Y-13943262D02*
X6831548Y-13933738D01*
X6831548Y-13933738D02*
X6812500Y-13924214D01*
X6812500Y-13924214D02*
X6774405Y-13924214D01*
X6774405Y-13924214D02*
X6755357Y-13933738D01*
X6755357Y-13933738D02*
X6745833Y-13943262D01*
X6745833Y-13943262D02*
X6736309Y-13962309D01*
X6974405Y-13848024D02*
X6993452Y-13848024D01*
X6993452Y-13848024D02*
X7012500Y-13857548D01*
X7012500Y-13857548D02*
X7022024Y-13867071D01*
X7022024Y-13867071D02*
X7031548Y-13886119D01*
X7031548Y-13886119D02*
X7041071Y-13924214D01*
X7041071Y-13924214D02*
X7041071Y-13971833D01*
X7041071Y-13971833D02*
X7031548Y-14009928D01*
X7031548Y-14009928D02*
X7022024Y-14028976D01*
X7022024Y-14028976D02*
X7012500Y-14038500D01*
X7012500Y-14038500D02*
X6993452Y-14048024D01*
X6993452Y-14048024D02*
X6974405Y-14048024D01*
X6974405Y-14048024D02*
X6955357Y-14038500D01*
X6955357Y-14038500D02*
X6945833Y-14028976D01*
X6945833Y-14028976D02*
X6936309Y-14009928D01*
X6936309Y-14009928D02*
X6926786Y-13971833D01*
X6926786Y-13971833D02*
X6926786Y-13924214D01*
X6926786Y-13924214D02*
X6936309Y-13886119D01*
X6936309Y-13886119D02*
X6945833Y-13867071D01*
X6945833Y-13867071D02*
X6955357Y-13857548D01*
X6955357Y-13857548D02*
X6974405Y-13848024D01*
X7164881Y-13848024D02*
X7183929Y-13848024D01*
X7183929Y-13848024D02*
X7202976Y-13857548D01*
X7202976Y-13857548D02*
X7212500Y-13867071D01*
X7212500Y-13867071D02*
X7222024Y-13886119D01*
X7222024Y-13886119D02*
X7231548Y-13924214D01*
X7231548Y-13924214D02*
X7231548Y-13971833D01*
X7231548Y-13971833D02*
X7222024Y-14009928D01*
X7222024Y-14009928D02*
X7212500Y-14028976D01*
X7212500Y-14028976D02*
X7202976Y-14038500D01*
X7202976Y-14038500D02*
X7183929Y-14048024D01*
X7183929Y-14048024D02*
X7164881Y-14048024D01*
X7164881Y-14048024D02*
X7145833Y-14038500D01*
X7145833Y-14038500D02*
X7136309Y-14028976D01*
X7136309Y-14028976D02*
X7126786Y-14009928D01*
X7126786Y-14009928D02*
X7117262Y-13971833D01*
X7117262Y-13971833D02*
X7117262Y-13924214D01*
X7117262Y-13924214D02*
X7126786Y-13886119D01*
X7126786Y-13886119D02*
X7136309Y-13867071D01*
X7136309Y-13867071D02*
X7145833Y-13857548D01*
X7145833Y-13857548D02*
X7164881Y-13848024D01*
X7317262Y-14048024D02*
X7317262Y-13914690D01*
X7317262Y-13933738D02*
X7326786Y-13924214D01*
X7326786Y-13924214D02*
X7345833Y-13914690D01*
X7345833Y-13914690D02*
X7374405Y-13914690D01*
X7374405Y-13914690D02*
X7393452Y-13924214D01*
X7393452Y-13924214D02*
X7402976Y-13943262D01*
X7402976Y-13943262D02*
X7402976Y-14048024D01*
X7402976Y-13943262D02*
X7412500Y-13924214D01*
X7412500Y-13924214D02*
X7431548Y-13914690D01*
X7431548Y-13914690D02*
X7460119Y-13914690D01*
X7460119Y-13914690D02*
X7479167Y-13924214D01*
X7479167Y-13924214D02*
X7488690Y-13943262D01*
X7488690Y-13943262D02*
X7488690Y-14048024D01*
X7583929Y-14048024D02*
X7583929Y-13914690D01*
X7583929Y-13933738D02*
X7593452Y-13924214D01*
X7593452Y-13924214D02*
X7612500Y-13914690D01*
X7612500Y-13914690D02*
X7641071Y-13914690D01*
X7641071Y-13914690D02*
X7660119Y-13924214D01*
X7660119Y-13924214D02*
X7669643Y-13943262D01*
X7669643Y-13943262D02*
X7669643Y-14048024D01*
X7669643Y-13943262D02*
X7679167Y-13924214D01*
X7679167Y-13924214D02*
X7698214Y-13914690D01*
X7698214Y-13914690D02*
X7726786Y-13914690D01*
X7726786Y-13914690D02*
X7745833Y-13924214D01*
X7745833Y-13924214D02*
X7755357Y-13943262D01*
X7755357Y-13943262D02*
X7755357Y-14048024D01*
X8145833Y-13838500D02*
X7974405Y-14095643D01*
X8402976Y-13848024D02*
X8422024Y-13848024D01*
X8422024Y-13848024D02*
X8441072Y-13857548D01*
X8441072Y-13857548D02*
X8450595Y-13867071D01*
X8450595Y-13867071D02*
X8460119Y-13886119D01*
X8460119Y-13886119D02*
X8469643Y-13924214D01*
X8469643Y-13924214D02*
X8469643Y-13971833D01*
X8469643Y-13971833D02*
X8460119Y-14009928D01*
X8460119Y-14009928D02*
X8450595Y-14028976D01*
X8450595Y-14028976D02*
X8441072Y-14038500D01*
X8441072Y-14038500D02*
X8422024Y-14048024D01*
X8422024Y-14048024D02*
X8402976Y-14048024D01*
X8402976Y-14048024D02*
X8383929Y-14038500D01*
X8383929Y-14038500D02*
X8374405Y-14028976D01*
X8374405Y-14028976D02*
X8364881Y-14009928D01*
X8364881Y-14009928D02*
X8355357Y-13971833D01*
X8355357Y-13971833D02*
X8355357Y-13924214D01*
X8355357Y-13924214D02*
X8364881Y-13886119D01*
X8364881Y-13886119D02*
X8374405Y-13867071D01*
X8374405Y-13867071D02*
X8383929Y-13857548D01*
X8383929Y-13857548D02*
X8402976Y-13848024D01*
X8555357Y-14028976D02*
X8564881Y-14038500D01*
X8564881Y-14038500D02*
X8555357Y-14048024D01*
X8555357Y-14048024D02*
X8545834Y-14038500D01*
X8545834Y-14038500D02*
X8555357Y-14028976D01*
X8555357Y-14028976D02*
X8555357Y-14048024D01*
X8688691Y-13848024D02*
X8707738Y-13848024D01*
X8707738Y-13848024D02*
X8726786Y-13857548D01*
X8726786Y-13857548D02*
X8736310Y-13867071D01*
X8736310Y-13867071D02*
X8745834Y-13886119D01*
X8745834Y-13886119D02*
X8755357Y-13924214D01*
X8755357Y-13924214D02*
X8755357Y-13971833D01*
X8755357Y-13971833D02*
X8745834Y-14009928D01*
X8745834Y-14009928D02*
X8736310Y-14028976D01*
X8736310Y-14028976D02*
X8726786Y-14038500D01*
X8726786Y-14038500D02*
X8707738Y-14048024D01*
X8707738Y-14048024D02*
X8688691Y-14048024D01*
X8688691Y-14048024D02*
X8669643Y-14038500D01*
X8669643Y-14038500D02*
X8660119Y-14028976D01*
X8660119Y-14028976D02*
X8650595Y-14009928D01*
X8650595Y-14009928D02*
X8641072Y-13971833D01*
X8641072Y-13971833D02*
X8641072Y-13924214D01*
X8641072Y-13924214D02*
X8650595Y-13886119D01*
X8650595Y-13886119D02*
X8660119Y-13867071D01*
X8660119Y-13867071D02*
X8669643Y-13857548D01*
X8669643Y-13857548D02*
X8688691Y-13848024D01*
X8926786Y-13848024D02*
X8888691Y-13848024D01*
X8888691Y-13848024D02*
X8869643Y-13857548D01*
X8869643Y-13857548D02*
X8860119Y-13867071D01*
X8860119Y-13867071D02*
X8841072Y-13895643D01*
X8841072Y-13895643D02*
X8831548Y-13933738D01*
X8831548Y-13933738D02*
X8831548Y-14009928D01*
X8831548Y-14009928D02*
X8841072Y-14028976D01*
X8841072Y-14028976D02*
X8850595Y-14038500D01*
X8850595Y-14038500D02*
X8869643Y-14048024D01*
X8869643Y-14048024D02*
X8907738Y-14048024D01*
X8907738Y-14048024D02*
X8926786Y-14038500D01*
X8926786Y-14038500D02*
X8936310Y-14028976D01*
X8936310Y-14028976D02*
X8945834Y-14009928D01*
X8945834Y-14009928D02*
X8945834Y-13962309D01*
X8945834Y-13962309D02*
X8936310Y-13943262D01*
X8936310Y-13943262D02*
X8926786Y-13933738D01*
X8926786Y-13933738D02*
X8907738Y-13924214D01*
X8907738Y-13924214D02*
X8869643Y-13924214D01*
X8869643Y-13924214D02*
X8850595Y-13933738D01*
X8850595Y-13933738D02*
X8841072Y-13943262D01*
X8841072Y-13943262D02*
X8831548Y-13962309D01*
X9012500Y-13848024D02*
X9136310Y-13848024D01*
X9136310Y-13848024D02*
X9069643Y-13924214D01*
X9069643Y-13924214D02*
X9098215Y-13924214D01*
X9098215Y-13924214D02*
X9117262Y-13933738D01*
X9117262Y-13933738D02*
X9126786Y-13943262D01*
X9126786Y-13943262D02*
X9136310Y-13962309D01*
X9136310Y-13962309D02*
X9136310Y-14009928D01*
X9136310Y-14009928D02*
X9126786Y-14028976D01*
X9126786Y-14028976D02*
X9117262Y-14038500D01*
X9117262Y-14038500D02*
X9098215Y-14048024D01*
X9098215Y-14048024D02*
X9041072Y-14048024D01*
X9041072Y-14048024D02*
X9022024Y-14038500D01*
X9022024Y-14038500D02*
X9012500Y-14028976D01*
X9260119Y-13848024D02*
X9279167Y-13848024D01*
X9279167Y-13848024D02*
X9298215Y-13857548D01*
X9298215Y-13857548D02*
X9307738Y-13867071D01*
X9307738Y-13867071D02*
X9317262Y-13886119D01*
X9317262Y-13886119D02*
X9326786Y-13924214D01*
X9326786Y-13924214D02*
X9326786Y-13971833D01*
X9326786Y-13971833D02*
X9317262Y-14009928D01*
X9317262Y-14009928D02*
X9307738Y-14028976D01*
X9307738Y-14028976D02*
X9298215Y-14038500D01*
X9298215Y-14038500D02*
X9279167Y-14048024D01*
X9279167Y-14048024D02*
X9260119Y-14048024D01*
X9260119Y-14048024D02*
X9241072Y-14038500D01*
X9241072Y-14038500D02*
X9231548Y-14028976D01*
X9231548Y-14028976D02*
X9222024Y-14009928D01*
X9222024Y-14009928D02*
X9212500Y-13971833D01*
X9212500Y-13971833D02*
X9212500Y-13924214D01*
X9212500Y-13924214D02*
X9222024Y-13886119D01*
X9222024Y-13886119D02*
X9231548Y-13867071D01*
X9231548Y-13867071D02*
X9241072Y-13857548D01*
X9241072Y-13857548D02*
X9260119Y-13848024D01*
X9402976Y-13848024D02*
X9402976Y-13886119D01*
X9479167Y-13848024D02*
X9479167Y-13886119D01*
X9774405Y-14124214D02*
X9764881Y-14114690D01*
X9764881Y-14114690D02*
X9745834Y-14086119D01*
X9745834Y-14086119D02*
X9736310Y-14067071D01*
X9736310Y-14067071D02*
X9726786Y-14038500D01*
X9726786Y-14038500D02*
X9717262Y-13990881D01*
X9717262Y-13990881D02*
X9717262Y-13952786D01*
X9717262Y-13952786D02*
X9726786Y-13905167D01*
X9726786Y-13905167D02*
X9736310Y-13876595D01*
X9736310Y-13876595D02*
X9745834Y-13857548D01*
X9745834Y-13857548D02*
X9764881Y-13828976D01*
X9764881Y-13828976D02*
X9774405Y-13819452D01*
X9955357Y-14048024D02*
X9841072Y-14048024D01*
X9898215Y-14048024D02*
X9898215Y-13848024D01*
X9898215Y-13848024D02*
X9879167Y-13876595D01*
X9879167Y-13876595D02*
X9860119Y-13895643D01*
X9860119Y-13895643D02*
X9841072Y-13905167D01*
X10193453Y-14048024D02*
X10193453Y-13848024D01*
X10279167Y-14048024D02*
X10279167Y-13943262D01*
X10279167Y-13943262D02*
X10269643Y-13924214D01*
X10269643Y-13924214D02*
X10250596Y-13914690D01*
X10250596Y-13914690D02*
X10222024Y-13914690D01*
X10222024Y-13914690D02*
X10202977Y-13924214D01*
X10202977Y-13924214D02*
X10193453Y-13933738D01*
X10402977Y-14048024D02*
X10383929Y-14038500D01*
X10383929Y-14038500D02*
X10374405Y-14028976D01*
X10374405Y-14028976D02*
X10364881Y-14009928D01*
X10364881Y-14009928D02*
X10364881Y-13952786D01*
X10364881Y-13952786D02*
X10374405Y-13933738D01*
X10374405Y-13933738D02*
X10383929Y-13924214D01*
X10383929Y-13924214D02*
X10402977Y-13914690D01*
X10402977Y-13914690D02*
X10431548Y-13914690D01*
X10431548Y-13914690D02*
X10450596Y-13924214D01*
X10450596Y-13924214D02*
X10460119Y-13933738D01*
X10460119Y-13933738D02*
X10469643Y-13952786D01*
X10469643Y-13952786D02*
X10469643Y-14009928D01*
X10469643Y-14009928D02*
X10460119Y-14028976D01*
X10460119Y-14028976D02*
X10450596Y-14038500D01*
X10450596Y-14038500D02*
X10431548Y-14048024D01*
X10431548Y-14048024D02*
X10402977Y-14048024D01*
X10583929Y-14048024D02*
X10564881Y-14038500D01*
X10564881Y-14038500D02*
X10555358Y-14019452D01*
X10555358Y-14019452D02*
X10555358Y-13848024D01*
X10736310Y-14038500D02*
X10717262Y-14048024D01*
X10717262Y-14048024D02*
X10679167Y-14048024D01*
X10679167Y-14048024D02*
X10660119Y-14038500D01*
X10660119Y-14038500D02*
X10650596Y-14019452D01*
X10650596Y-14019452D02*
X10650596Y-13943262D01*
X10650596Y-13943262D02*
X10660119Y-13924214D01*
X10660119Y-13924214D02*
X10679167Y-13914690D01*
X10679167Y-13914690D02*
X10717262Y-13914690D01*
X10717262Y-13914690D02*
X10736310Y-13924214D01*
X10736310Y-13924214D02*
X10745834Y-13943262D01*
X10745834Y-13943262D02*
X10745834Y-13962309D01*
X10745834Y-13962309D02*
X10650596Y-13981357D01*
X10812500Y-14124214D02*
X10822024Y-14114690D01*
X10822024Y-14114690D02*
X10841072Y-14086119D01*
X10841072Y-14086119D02*
X10850596Y-14067071D01*
X10850596Y-14067071D02*
X10860119Y-14038500D01*
X10860119Y-14038500D02*
X10869643Y-13990881D01*
X10869643Y-13990881D02*
X10869643Y-13952786D01*
X10869643Y-13952786D02*
X10860119Y-13905167D01*
X10860119Y-13905167D02*
X10850596Y-13876595D01*
X10850596Y-13876595D02*
X10841072Y-13857548D01*
X10841072Y-13857548D02*
X10822024Y-13828976D01*
X10822024Y-13828976D02*
X10812500Y-13819452D01*
X6012500Y-14135500D02*
X6212500Y-14335500D01*
X6212500Y-14135500D02*
X6012500Y-14335500D01*
X6112500Y-14335500D02*
X6212500Y-14235500D01*
X6112500Y-14135500D01*
X6012500Y-14235500D01*
X6112500Y-14335500D01*
X6545833Y-14194690D02*
X6545833Y-14328024D01*
X6498214Y-14118500D02*
X6450595Y-14261357D01*
X6450595Y-14261357D02*
X6574405Y-14261357D01*
X6650595Y-14308976D02*
X6660119Y-14318500D01*
X6660119Y-14318500D02*
X6650595Y-14328024D01*
X6650595Y-14328024D02*
X6641071Y-14318500D01*
X6641071Y-14318500D02*
X6650595Y-14308976D01*
X6650595Y-14308976D02*
X6650595Y-14328024D01*
X6841071Y-14128024D02*
X6745833Y-14128024D01*
X6745833Y-14128024D02*
X6736309Y-14223262D01*
X6736309Y-14223262D02*
X6745833Y-14213738D01*
X6745833Y-14213738D02*
X6764881Y-14204214D01*
X6764881Y-14204214D02*
X6812500Y-14204214D01*
X6812500Y-14204214D02*
X6831548Y-14213738D01*
X6831548Y-14213738D02*
X6841071Y-14223262D01*
X6841071Y-14223262D02*
X6850595Y-14242309D01*
X6850595Y-14242309D02*
X6850595Y-14289928D01*
X6850595Y-14289928D02*
X6841071Y-14308976D01*
X6841071Y-14308976D02*
X6831548Y-14318500D01*
X6831548Y-14318500D02*
X6812500Y-14328024D01*
X6812500Y-14328024D02*
X6764881Y-14328024D01*
X6764881Y-14328024D02*
X6745833Y-14318500D01*
X6745833Y-14318500D02*
X6736309Y-14308976D01*
X6974405Y-14128024D02*
X6993452Y-14128024D01*
X6993452Y-14128024D02*
X7012500Y-14137548D01*
X7012500Y-14137548D02*
X7022024Y-14147071D01*
X7022024Y-14147071D02*
X7031548Y-14166119D01*
X7031548Y-14166119D02*
X7041071Y-14204214D01*
X7041071Y-14204214D02*
X7041071Y-14251833D01*
X7041071Y-14251833D02*
X7031548Y-14289928D01*
X7031548Y-14289928D02*
X7022024Y-14308976D01*
X7022024Y-14308976D02*
X7012500Y-14318500D01*
X7012500Y-14318500D02*
X6993452Y-14328024D01*
X6993452Y-14328024D02*
X6974405Y-14328024D01*
X6974405Y-14328024D02*
X6955357Y-14318500D01*
X6955357Y-14318500D02*
X6945833Y-14308976D01*
X6945833Y-14308976D02*
X6936309Y-14289928D01*
X6936309Y-14289928D02*
X6926786Y-14251833D01*
X6926786Y-14251833D02*
X6926786Y-14204214D01*
X6926786Y-14204214D02*
X6936309Y-14166119D01*
X6936309Y-14166119D02*
X6945833Y-14147071D01*
X6945833Y-14147071D02*
X6955357Y-14137548D01*
X6955357Y-14137548D02*
X6974405Y-14128024D01*
X7164881Y-14128024D02*
X7183929Y-14128024D01*
X7183929Y-14128024D02*
X7202976Y-14137548D01*
X7202976Y-14137548D02*
X7212500Y-14147071D01*
X7212500Y-14147071D02*
X7222024Y-14166119D01*
X7222024Y-14166119D02*
X7231548Y-14204214D01*
X7231548Y-14204214D02*
X7231548Y-14251833D01*
X7231548Y-14251833D02*
X7222024Y-14289928D01*
X7222024Y-14289928D02*
X7212500Y-14308976D01*
X7212500Y-14308976D02*
X7202976Y-14318500D01*
X7202976Y-14318500D02*
X7183929Y-14328024D01*
X7183929Y-14328024D02*
X7164881Y-14328024D01*
X7164881Y-14328024D02*
X7145833Y-14318500D01*
X7145833Y-14318500D02*
X7136309Y-14308976D01*
X7136309Y-14308976D02*
X7126786Y-14289928D01*
X7126786Y-14289928D02*
X7117262Y-14251833D01*
X7117262Y-14251833D02*
X7117262Y-14204214D01*
X7117262Y-14204214D02*
X7126786Y-14166119D01*
X7126786Y-14166119D02*
X7136309Y-14147071D01*
X7136309Y-14147071D02*
X7145833Y-14137548D01*
X7145833Y-14137548D02*
X7164881Y-14128024D01*
X7317262Y-14328024D02*
X7317262Y-14194690D01*
X7317262Y-14213738D02*
X7326786Y-14204214D01*
X7326786Y-14204214D02*
X7345833Y-14194690D01*
X7345833Y-14194690D02*
X7374405Y-14194690D01*
X7374405Y-14194690D02*
X7393452Y-14204214D01*
X7393452Y-14204214D02*
X7402976Y-14223262D01*
X7402976Y-14223262D02*
X7402976Y-14328024D01*
X7402976Y-14223262D02*
X7412500Y-14204214D01*
X7412500Y-14204214D02*
X7431548Y-14194690D01*
X7431548Y-14194690D02*
X7460119Y-14194690D01*
X7460119Y-14194690D02*
X7479167Y-14204214D01*
X7479167Y-14204214D02*
X7488690Y-14223262D01*
X7488690Y-14223262D02*
X7488690Y-14328024D01*
X7583929Y-14328024D02*
X7583929Y-14194690D01*
X7583929Y-14213738D02*
X7593452Y-14204214D01*
X7593452Y-14204214D02*
X7612500Y-14194690D01*
X7612500Y-14194690D02*
X7641071Y-14194690D01*
X7641071Y-14194690D02*
X7660119Y-14204214D01*
X7660119Y-14204214D02*
X7669643Y-14223262D01*
X7669643Y-14223262D02*
X7669643Y-14328024D01*
X7669643Y-14223262D02*
X7679167Y-14204214D01*
X7679167Y-14204214D02*
X7698214Y-14194690D01*
X7698214Y-14194690D02*
X7726786Y-14194690D01*
X7726786Y-14194690D02*
X7745833Y-14204214D01*
X7745833Y-14204214D02*
X7755357Y-14223262D01*
X7755357Y-14223262D02*
X7755357Y-14328024D01*
X8145833Y-14118500D02*
X7974405Y-14375643D01*
X8402976Y-14128024D02*
X8422024Y-14128024D01*
X8422024Y-14128024D02*
X8441072Y-14137548D01*
X8441072Y-14137548D02*
X8450595Y-14147071D01*
X8450595Y-14147071D02*
X8460119Y-14166119D01*
X8460119Y-14166119D02*
X8469643Y-14204214D01*
X8469643Y-14204214D02*
X8469643Y-14251833D01*
X8469643Y-14251833D02*
X8460119Y-14289928D01*
X8460119Y-14289928D02*
X8450595Y-14308976D01*
X8450595Y-14308976D02*
X8441072Y-14318500D01*
X8441072Y-14318500D02*
X8422024Y-14328024D01*
X8422024Y-14328024D02*
X8402976Y-14328024D01*
X8402976Y-14328024D02*
X8383929Y-14318500D01*
X8383929Y-14318500D02*
X8374405Y-14308976D01*
X8374405Y-14308976D02*
X8364881Y-14289928D01*
X8364881Y-14289928D02*
X8355357Y-14251833D01*
X8355357Y-14251833D02*
X8355357Y-14204214D01*
X8355357Y-14204214D02*
X8364881Y-14166119D01*
X8364881Y-14166119D02*
X8374405Y-14147071D01*
X8374405Y-14147071D02*
X8383929Y-14137548D01*
X8383929Y-14137548D02*
X8402976Y-14128024D01*
X8555357Y-14308976D02*
X8564881Y-14318500D01*
X8564881Y-14318500D02*
X8555357Y-14328024D01*
X8555357Y-14328024D02*
X8545834Y-14318500D01*
X8545834Y-14318500D02*
X8555357Y-14308976D01*
X8555357Y-14308976D02*
X8555357Y-14328024D01*
X8755357Y-14328024D02*
X8641072Y-14328024D01*
X8698214Y-14328024D02*
X8698214Y-14128024D01*
X8698214Y-14128024D02*
X8679167Y-14156595D01*
X8679167Y-14156595D02*
X8660119Y-14175643D01*
X8660119Y-14175643D02*
X8641072Y-14185167D01*
X8822024Y-14128024D02*
X8955357Y-14128024D01*
X8955357Y-14128024D02*
X8869643Y-14328024D01*
X9012500Y-14128024D02*
X9145834Y-14128024D01*
X9145834Y-14128024D02*
X9060119Y-14328024D01*
X9212500Y-14147071D02*
X9222024Y-14137548D01*
X9222024Y-14137548D02*
X9241072Y-14128024D01*
X9241072Y-14128024D02*
X9288691Y-14128024D01*
X9288691Y-14128024D02*
X9307738Y-14137548D01*
X9307738Y-14137548D02*
X9317262Y-14147071D01*
X9317262Y-14147071D02*
X9326786Y-14166119D01*
X9326786Y-14166119D02*
X9326786Y-14185167D01*
X9326786Y-14185167D02*
X9317262Y-14213738D01*
X9317262Y-14213738D02*
X9202976Y-14328024D01*
X9202976Y-14328024D02*
X9326786Y-14328024D01*
X9402976Y-14128024D02*
X9402976Y-14166119D01*
X9479167Y-14128024D02*
X9479167Y-14166119D01*
X9774405Y-14404214D02*
X9764881Y-14394690D01*
X9764881Y-14394690D02*
X9745834Y-14366119D01*
X9745834Y-14366119D02*
X9736310Y-14347071D01*
X9736310Y-14347071D02*
X9726786Y-14318500D01*
X9726786Y-14318500D02*
X9717262Y-14270881D01*
X9717262Y-14270881D02*
X9717262Y-14232786D01*
X9717262Y-14232786D02*
X9726786Y-14185167D01*
X9726786Y-14185167D02*
X9736310Y-14156595D01*
X9736310Y-14156595D02*
X9745834Y-14137548D01*
X9745834Y-14137548D02*
X9764881Y-14108976D01*
X9764881Y-14108976D02*
X9774405Y-14099452D01*
X9879167Y-14213738D02*
X9860119Y-14204214D01*
X9860119Y-14204214D02*
X9850596Y-14194690D01*
X9850596Y-14194690D02*
X9841072Y-14175643D01*
X9841072Y-14175643D02*
X9841072Y-14166119D01*
X9841072Y-14166119D02*
X9850596Y-14147071D01*
X9850596Y-14147071D02*
X9860119Y-14137548D01*
X9860119Y-14137548D02*
X9879167Y-14128024D01*
X9879167Y-14128024D02*
X9917262Y-14128024D01*
X9917262Y-14128024D02*
X9936310Y-14137548D01*
X9936310Y-14137548D02*
X9945834Y-14147071D01*
X9945834Y-14147071D02*
X9955357Y-14166119D01*
X9955357Y-14166119D02*
X9955357Y-14175643D01*
X9955357Y-14175643D02*
X9945834Y-14194690D01*
X9945834Y-14194690D02*
X9936310Y-14204214D01*
X9936310Y-14204214D02*
X9917262Y-14213738D01*
X9917262Y-14213738D02*
X9879167Y-14213738D01*
X9879167Y-14213738D02*
X9860119Y-14223262D01*
X9860119Y-14223262D02*
X9850596Y-14232786D01*
X9850596Y-14232786D02*
X9841072Y-14251833D01*
X9841072Y-14251833D02*
X9841072Y-14289928D01*
X9841072Y-14289928D02*
X9850596Y-14308976D01*
X9850596Y-14308976D02*
X9860119Y-14318500D01*
X9860119Y-14318500D02*
X9879167Y-14328024D01*
X9879167Y-14328024D02*
X9917262Y-14328024D01*
X9917262Y-14328024D02*
X9936310Y-14318500D01*
X9936310Y-14318500D02*
X9945834Y-14308976D01*
X9945834Y-14308976D02*
X9955357Y-14289928D01*
X9955357Y-14289928D02*
X9955357Y-14251833D01*
X9955357Y-14251833D02*
X9945834Y-14232786D01*
X9945834Y-14232786D02*
X9936310Y-14223262D01*
X9936310Y-14223262D02*
X9917262Y-14213738D01*
X10193453Y-14328024D02*
X10193453Y-14128024D01*
X10279167Y-14328024D02*
X10279167Y-14223262D01*
X10279167Y-14223262D02*
X10269643Y-14204214D01*
X10269643Y-14204214D02*
X10250596Y-14194690D01*
X10250596Y-14194690D02*
X10222024Y-14194690D01*
X10222024Y-14194690D02*
X10202977Y-14204214D01*
X10202977Y-14204214D02*
X10193453Y-14213738D01*
X10402977Y-14328024D02*
X10383929Y-14318500D01*
X10383929Y-14318500D02*
X10374405Y-14308976D01*
X10374405Y-14308976D02*
X10364881Y-14289928D01*
X10364881Y-14289928D02*
X10364881Y-14232786D01*
X10364881Y-14232786D02*
X10374405Y-14213738D01*
X10374405Y-14213738D02*
X10383929Y-14204214D01*
X10383929Y-14204214D02*
X10402977Y-14194690D01*
X10402977Y-14194690D02*
X10431548Y-14194690D01*
X10431548Y-14194690D02*
X10450596Y-14204214D01*
X10450596Y-14204214D02*
X10460119Y-14213738D01*
X10460119Y-14213738D02*
X10469643Y-14232786D01*
X10469643Y-14232786D02*
X10469643Y-14289928D01*
X10469643Y-14289928D02*
X10460119Y-14308976D01*
X10460119Y-14308976D02*
X10450596Y-14318500D01*
X10450596Y-14318500D02*
X10431548Y-14328024D01*
X10431548Y-14328024D02*
X10402977Y-14328024D01*
X10583929Y-14328024D02*
X10564881Y-14318500D01*
X10564881Y-14318500D02*
X10555358Y-14299452D01*
X10555358Y-14299452D02*
X10555358Y-14128024D01*
X10736310Y-14318500D02*
X10717262Y-14328024D01*
X10717262Y-14328024D02*
X10679167Y-14328024D01*
X10679167Y-14328024D02*
X10660119Y-14318500D01*
X10660119Y-14318500D02*
X10650596Y-14299452D01*
X10650596Y-14299452D02*
X10650596Y-14223262D01*
X10650596Y-14223262D02*
X10660119Y-14204214D01*
X10660119Y-14204214D02*
X10679167Y-14194690D01*
X10679167Y-14194690D02*
X10717262Y-14194690D01*
X10717262Y-14194690D02*
X10736310Y-14204214D01*
X10736310Y-14204214D02*
X10745834Y-14223262D01*
X10745834Y-14223262D02*
X10745834Y-14242309D01*
X10745834Y-14242309D02*
X10650596Y-14261357D01*
X10822024Y-14318500D02*
X10841072Y-14328024D01*
X10841072Y-14328024D02*
X10879167Y-14328024D01*
X10879167Y-14328024D02*
X10898215Y-14318500D01*
X10898215Y-14318500D02*
X10907739Y-14299452D01*
X10907739Y-14299452D02*
X10907739Y-14289928D01*
X10907739Y-14289928D02*
X10898215Y-14270881D01*
X10898215Y-14270881D02*
X10879167Y-14261357D01*
X10879167Y-14261357D02*
X10850596Y-14261357D01*
X10850596Y-14261357D02*
X10831548Y-14251833D01*
X10831548Y-14251833D02*
X10822024Y-14232786D01*
X10822024Y-14232786D02*
X10822024Y-14223262D01*
X10822024Y-14223262D02*
X10831548Y-14204214D01*
X10831548Y-14204214D02*
X10850596Y-14194690D01*
X10850596Y-14194690D02*
X10879167Y-14194690D01*
X10879167Y-14194690D02*
X10898215Y-14204214D01*
X10974405Y-14404214D02*
X10983929Y-14394690D01*
X10983929Y-14394690D02*
X11002977Y-14366119D01*
X11002977Y-14366119D02*
X11012500Y-14347071D01*
X11012500Y-14347071D02*
X11022024Y-14318500D01*
X11022024Y-14318500D02*
X11031548Y-14270881D01*
X11031548Y-14270881D02*
X11031548Y-14232786D01*
X11031548Y-14232786D02*
X11022024Y-14185167D01*
X11022024Y-14185167D02*
X11012500Y-14156595D01*
X11012500Y-14156595D02*
X11002977Y-14137548D01*
X11002977Y-14137548D02*
X10983929Y-14108976D01*
X10983929Y-14108976D02*
X10974405Y-14099452D01*
M02*
