G04 #@! TF.GenerationSoftware,KiCad,Pcbnew,6.0.0-rc2*
G04 #@! TF.CreationDate,2022-06-17T00:24:21-07:00*
G04 #@! TF.ProjectId,RP2040_motor,52503230-3430-45f6-9d6f-746f722e6b69,REV1*
G04 #@! TF.SameCoordinates,Original*
G04 #@! TF.FileFunction,Soldermask,Top*
G04 #@! TF.FilePolarity,Negative*
%FSLAX46Y46*%
G04 Gerber Fmt 4.6, Leading zero omitted, Abs format (unit mm)*
G04 Created by KiCad (PCBNEW 6.0.0-rc2) date 2022-06-17 00:24:21*
%MOMM*%
%LPD*%
G01*
G04 APERTURE LIST*
G04 Aperture macros list*
%AMRoundRect*
0 Rectangle with rounded corners*
0 $1 Rounding radius*
0 $2 $3 $4 $5 $6 $7 $8 $9 X,Y pos of 4 corners*
0 Add a 4 corners polygon primitive as box body*
4,1,4,$2,$3,$4,$5,$6,$7,$8,$9,$2,$3,0*
0 Add four circle primitives for the rounded corners*
1,1,$1+$1,$2,$3*
1,1,$1+$1,$4,$5*
1,1,$1+$1,$6,$7*
1,1,$1+$1,$8,$9*
0 Add four rect primitives between the rounded corners*
20,1,$1+$1,$2,$3,$4,$5,0*
20,1,$1+$1,$4,$5,$6,$7,0*
20,1,$1+$1,$6,$7,$8,$9,0*
20,1,$1+$1,$8,$9,$2,$3,0*%
%AMFreePoly0*
4,1,37,0.536062,0.786062,0.551000,0.750000,0.551000,-0.750000,0.536062,-0.786062,0.500000,-0.801000,0.000000,-0.801000,-0.012525,-0.795812,-0.080875,-0.794559,-0.095149,-0.792248,-0.230464,-0.749973,-0.243516,-0.743747,-0.361526,-0.665192,-0.372306,-0.655554,-0.463526,-0.547035,-0.471167,-0.534759,-0.528262,-0.405000,-0.532150,-0.391073,-0.549733,-0.256613,-0.548336,-0.256430,-0.551000,-0.250000,
-0.551000,0.250000,-0.550512,0.251179,-0.550356,0.263956,-0.528545,0.404033,-0.524317,0.417860,-0.464069,0.546185,-0.456130,0.558271,-0.362286,0.664529,-0.351274,0.673901,-0.231379,0.749549,-0.218180,0.755454,-0.081873,0.794411,-0.067546,0.796373,-0.011990,0.796033,0.000000,0.801000,0.500000,0.801000,0.536062,0.786062,0.536062,0.786062,$1*%
%AMFreePoly1*
4,1,37,0.012349,0.795885,0.074216,0.795507,0.088518,0.793370,0.224339,0.752751,0.237465,0.746685,0.356427,0.669578,0.367324,0.660073,0.459862,0.552676,0.467652,0.540494,0.526329,0.411442,0.530388,0.397563,0.550485,0.257230,0.551000,0.250000,0.551000,-0.250000,0.550996,-0.250622,0.550847,-0.262838,0.550144,-0.270677,0.526624,-0.410478,0.522228,-0.424254,0.460416,-0.551833,
0.452330,-0.563821,0.357195,-0.668925,0.346069,-0.678161,0.225259,-0.752338,0.211989,-0.758081,0.075216,-0.795370,0.060866,-0.797157,0.011464,-0.796251,0.000000,-0.801000,-0.500000,-0.801000,-0.536062,-0.786062,-0.551000,-0.750000,-0.551000,0.750000,-0.536062,0.786062,-0.500000,0.801000,0.000000,0.801000,0.012349,0.795885,0.012349,0.795885,$1*%
G04 Aperture macros list end*
%ADD10RoundRect,0.294750X0.243750X0.456250X-0.243750X0.456250X-0.243750X-0.456250X0.243750X-0.456250X0*%
%ADD11RoundRect,0.276000X0.225000X0.250000X-0.225000X0.250000X-0.225000X-0.250000X0.225000X-0.250000X0*%
%ADD12RoundRect,0.276000X-0.250000X0.225000X-0.250000X-0.225000X0.250000X-0.225000X0.250000X0.225000X0*%
%ADD13RoundRect,0.276000X-0.225000X-0.250000X0.225000X-0.250000X0.225000X0.250000X-0.225000X0.250000X0*%
%ADD14RoundRect,0.276000X0.250000X-0.225000X0.250000X0.225000X-0.250000X0.225000X-0.250000X-0.225000X0*%
%ADD15RoundRect,0.198500X0.147500X0.172500X-0.147500X0.172500X-0.147500X-0.172500X0.147500X-0.172500X0*%
%ADD16RoundRect,0.051000X0.750000X-1.000000X0.750000X1.000000X-0.750000X1.000000X-0.750000X-1.000000X0*%
%ADD17RoundRect,0.051000X1.900000X-1.000000X1.900000X1.000000X-1.900000X1.000000X-1.900000X-1.000000X0*%
%ADD18RoundRect,0.201000X-0.150000X0.650000X-0.150000X-0.650000X0.150000X-0.650000X0.150000X0.650000X0*%
%ADD19RoundRect,0.251000X-0.200000X-0.275000X0.200000X-0.275000X0.200000X0.275000X-0.200000X0.275000X0*%
%ADD20RoundRect,0.251000X0.275000X-0.200000X0.275000X0.200000X-0.275000X0.200000X-0.275000X-0.200000X0*%
%ADD21RoundRect,0.294750X-0.456250X0.243750X-0.456250X-0.243750X0.456250X-0.243750X0.456250X0.243750X0*%
%ADD22RoundRect,0.101000X0.387500X0.050000X-0.387500X0.050000X-0.387500X-0.050000X0.387500X-0.050000X0*%
%ADD23RoundRect,0.101000X0.050000X0.387500X-0.050000X0.387500X-0.050000X-0.387500X0.050000X-0.387500X0*%
%ADD24RoundRect,0.195000X1.456000X1.456000X-1.456000X1.456000X-1.456000X-1.456000X1.456000X-1.456000X0*%
%ADD25RoundRect,0.301000X-0.250000X-0.475000X0.250000X-0.475000X0.250000X0.475000X-0.250000X0.475000X0*%
%ADD26FreePoly0,90.000000*%
%ADD27FreePoly1,90.000000*%
%ADD28RoundRect,0.301000X0.845000X-0.620000X0.845000X0.620000X-0.845000X0.620000X-0.845000X-0.620000X0*%
%ADD29O,2.292000X1.842000*%
%ADD30RoundRect,0.201000X-0.150000X0.825000X-0.150000X-0.825000X0.150000X-0.825000X0.150000X0.825000X0*%
%ADD31RoundRect,0.676000X-1.075000X0.625000X-1.075000X-0.625000X1.075000X-0.625000X1.075000X0.625000X0*%
%ADD32RoundRect,0.051000X0.600000X-0.450000X0.600000X0.450000X-0.600000X0.450000X-0.600000X-0.450000X0*%
%ADD33RoundRect,0.301000X1.500000X1.000000X-1.500000X1.000000X-1.500000X-1.000000X1.500000X-1.000000X0*%
%ADD34RoundRect,0.251000X-0.275000X0.200000X-0.275000X-0.200000X0.275000X-0.200000X0.275000X0.200000X0*%
%ADD35RoundRect,0.301000X-1.500000X-0.550000X1.500000X-0.550000X1.500000X0.550000X-1.500000X0.550000X0*%
%ADD36RoundRect,0.051000X0.300000X0.350000X-0.300000X0.350000X-0.300000X-0.350000X0.300000X-0.350000X0*%
%ADD37C,2.102000*%
%ADD38RoundRect,0.301000X0.362500X1.425000X-0.362500X1.425000X-0.362500X-1.425000X0.362500X-1.425000X0*%
%ADD39RoundRect,0.251000X0.200000X0.275000X-0.200000X0.275000X-0.200000X-0.275000X0.200000X-0.275000X0*%
%ADD40RoundRect,0.051000X0.635000X0.305000X-0.635000X0.305000X-0.635000X-0.305000X0.635000X-0.305000X0*%
%ADD41RoundRect,0.051000X0.510000X0.305000X-0.510000X0.305000X-0.510000X-0.305000X0.510000X-0.305000X0*%
%ADD42RoundRect,0.051000X1.905000X1.955000X-1.905000X1.955000X-1.905000X-1.955000X1.905000X-1.955000X0*%
%ADD43C,4.102000*%
%ADD44RoundRect,0.051000X-0.450000X-0.600000X0.450000X-0.600000X0.450000X0.600000X-0.450000X0.600000X0*%
%ADD45RoundRect,0.051000X-1.250000X-0.900000X1.250000X-0.900000X1.250000X0.900000X-1.250000X0.900000X0*%
%ADD46RoundRect,0.201000X0.825000X0.150000X-0.825000X0.150000X-0.825000X-0.150000X0.825000X-0.150000X0*%
%ADD47C,6.102000*%
%ADD48RoundRect,0.301000X-0.475000X0.250000X-0.475000X-0.250000X0.475000X-0.250000X0.475000X0.250000X0*%
%ADD49RoundRect,0.051000X-0.225000X0.300000X-0.225000X-0.300000X0.225000X-0.300000X0.225000X0.300000X0*%
%ADD50RoundRect,0.051000X2.750000X-1.075000X2.750000X1.075000X-2.750000X1.075000X-2.750000X-1.075000X0*%
%ADD51RoundRect,0.051000X-0.600000X0.450000X-0.600000X-0.450000X0.600000X-0.450000X0.600000X0.450000X0*%
%ADD52RoundRect,0.051000X0.375000X-0.450000X0.375000X0.450000X-0.375000X0.450000X-0.375000X-0.450000X0*%
%ADD53RoundRect,0.301000X0.250000X0.475000X-0.250000X0.475000X-0.250000X-0.475000X0.250000X-0.475000X0*%
%ADD54RoundRect,0.301000X0.620000X0.845000X-0.620000X0.845000X-0.620000X-0.845000X0.620000X-0.845000X0*%
%ADD55O,1.842000X2.292000*%
%ADD56RoundRect,0.051000X0.450000X0.600000X-0.450000X0.600000X-0.450000X-0.600000X0.450000X-0.600000X0*%
%ADD57RoundRect,0.151000X0.712500X0.100000X-0.712500X0.100000X-0.712500X-0.100000X0.712500X-0.100000X0*%
%ADD58RoundRect,0.051000X-0.700000X-0.600000X0.700000X-0.600000X0.700000X0.600000X-0.700000X0.600000X0*%
%ADD59RoundRect,0.051000X-0.127000X0.304800X-0.127000X-0.304800X0.127000X-0.304800X0.127000X0.304800X0*%
%ADD60RoundRect,0.051000X-0.596900X0.381000X-0.596900X-0.381000X0.596900X-0.381000X0.596900X0.381000X0*%
%ADD61RoundRect,0.301000X0.625000X-0.312500X0.625000X0.312500X-0.625000X0.312500X-0.625000X-0.312500X0*%
%ADD62C,0.752000*%
%ADD63RoundRect,0.051000X-0.150000X-0.575000X0.150000X-0.575000X0.150000X0.575000X-0.150000X0.575000X0*%
%ADD64O,1.102000X2.202000*%
%ADD65O,1.102000X1.702000*%
G04 APERTURE END LIST*
D10*
X99642500Y-99600000D03*
X97767500Y-99600000D03*
D11*
X86130000Y-111290000D03*
X84580000Y-111290000D03*
D12*
X88580000Y-110160000D03*
X88580000Y-111710000D03*
D13*
X98090000Y-102950000D03*
X99640000Y-102950000D03*
D14*
X103760000Y-116470000D03*
X103760000Y-114920000D03*
D15*
X102210000Y-106410000D03*
X101240000Y-106410000D03*
D16*
X98480000Y-97250000D03*
D17*
X100780000Y-90950000D03*
D16*
X100780000Y-97250000D03*
X103080000Y-97250000D03*
D18*
X101820000Y-110260000D03*
X100550000Y-110260000D03*
X99280000Y-110260000D03*
X98010000Y-110260000D03*
X98010000Y-117460000D03*
X99280000Y-117460000D03*
X100550000Y-117460000D03*
X101820000Y-117460000D03*
D11*
X90670000Y-95050000D03*
X89120000Y-95050000D03*
D19*
X101650000Y-107910000D03*
X103300000Y-107910000D03*
D12*
X91030000Y-111310000D03*
X91030000Y-112860000D03*
D11*
X84720000Y-103200000D03*
X83170000Y-103200000D03*
D14*
X90349000Y-98140000D03*
X90349000Y-96590000D03*
D20*
X85180000Y-115560000D03*
X85180000Y-113910000D03*
D14*
X88730000Y-98140000D03*
X88730000Y-96590000D03*
D21*
X103590000Y-99410000D03*
X103590000Y-101285000D03*
D13*
X97090000Y-108300000D03*
X98640000Y-108300000D03*
D11*
X86070000Y-109700000D03*
X84520000Y-109700000D03*
D22*
X94817500Y-107250000D03*
X94817500Y-106850000D03*
X94817500Y-106450000D03*
X94817500Y-106050000D03*
X94817500Y-105650000D03*
X94817500Y-105250000D03*
X94817500Y-104850000D03*
X94817500Y-104450000D03*
X94817500Y-104050000D03*
X94817500Y-103650000D03*
X94817500Y-103250000D03*
X94817500Y-102850000D03*
X94817500Y-102450000D03*
X94817500Y-102050000D03*
D23*
X93980000Y-101212500D03*
X93580000Y-101212500D03*
X93180000Y-101212500D03*
X92780000Y-101212500D03*
X92380000Y-101212500D03*
X91980000Y-101212500D03*
X91580000Y-101212500D03*
X91180000Y-101212500D03*
X90780000Y-101212500D03*
X90380000Y-101212500D03*
X89980000Y-101212500D03*
X89580000Y-101212500D03*
X89180000Y-101212500D03*
X88780000Y-101212500D03*
D22*
X87942500Y-102050000D03*
X87942500Y-102450000D03*
X87942500Y-102850000D03*
X87942500Y-103250000D03*
X87942500Y-103650000D03*
X87942500Y-104050000D03*
X87942500Y-104450000D03*
X87942500Y-104850000D03*
X87942500Y-105250000D03*
X87942500Y-105650000D03*
X87942500Y-106050000D03*
X87942500Y-106450000D03*
X87942500Y-106850000D03*
X87942500Y-107250000D03*
D23*
X88780000Y-108087500D03*
X89180000Y-108087500D03*
X89580000Y-108087500D03*
X89980000Y-108087500D03*
X90380000Y-108087500D03*
X90780000Y-108087500D03*
X91180000Y-108087500D03*
X91580000Y-108087500D03*
X91980000Y-108087500D03*
X92380000Y-108087500D03*
X92780000Y-108087500D03*
X93180000Y-108087500D03*
X93580000Y-108087500D03*
X93980000Y-108087500D03*
D24*
X91380000Y-104650000D03*
D14*
X95140000Y-93000000D03*
X95140000Y-91450000D03*
D20*
X83380000Y-115560000D03*
X83380000Y-113910000D03*
D12*
X92630000Y-111410000D03*
X92630000Y-112960000D03*
D11*
X86070000Y-108050000D03*
X84520000Y-108050000D03*
D20*
X92280000Y-97860000D03*
X92280000Y-96210000D03*
D21*
X101540000Y-99437500D03*
X101540000Y-101312500D03*
D11*
X114524100Y-73020000D03*
X112974100Y-73020000D03*
D25*
X112330900Y-102780000D03*
X114230900Y-102780000D03*
D26*
X105190000Y-75650000D03*
D27*
X105190000Y-74350000D03*
D28*
X78850000Y-88700000D03*
D29*
X78850000Y-86160000D03*
X78850000Y-83620000D03*
X78850000Y-81080000D03*
D30*
X93245000Y-75825000D03*
X91975000Y-75825000D03*
X90705000Y-75825000D03*
X89435000Y-75825000D03*
X89435000Y-80775000D03*
X90705000Y-80775000D03*
X91975000Y-80775000D03*
X93245000Y-80775000D03*
D31*
X91340000Y-78300000D03*
D32*
X117740000Y-103450000D03*
X117740000Y-100150000D03*
D33*
X127950000Y-116650000D03*
X121450000Y-116650000D03*
D34*
X107690000Y-112000000D03*
X107690000Y-113650000D03*
D35*
X96155000Y-71420000D03*
X101555000Y-71420000D03*
D36*
X99290000Y-79650000D03*
X100690000Y-79650000D03*
D37*
X102990000Y-82000000D03*
X96490000Y-82000000D03*
X102990000Y-86500000D03*
X96490000Y-86500000D03*
D38*
X154262500Y-114140000D03*
X148337500Y-114140000D03*
D11*
X145265000Y-97300000D03*
X143715000Y-97300000D03*
D39*
X145305000Y-91710000D03*
X143655000Y-91710000D03*
D40*
X146220000Y-118935000D03*
X146220000Y-120205000D03*
X146220000Y-117665000D03*
X146220000Y-116395000D03*
D41*
X140755000Y-117665000D03*
X140755000Y-118935000D03*
D42*
X142860000Y-118300000D03*
D41*
X140755000Y-120205000D03*
X140755000Y-116395000D03*
D34*
X158610000Y-91995000D03*
X158610000Y-93645000D03*
D43*
X157919000Y-87320000D03*
D38*
X154262500Y-84260000D03*
X148337500Y-84260000D03*
D34*
X83240000Y-93675000D03*
X83240000Y-95325000D03*
D20*
X158659100Y-97190000D03*
X158659100Y-95540000D03*
D12*
X117560000Y-80125900D03*
X117560000Y-81675900D03*
D44*
X151450000Y-68970000D03*
X154750000Y-68970000D03*
D34*
X84880000Y-93685000D03*
X84880000Y-95335000D03*
D19*
X83595000Y-117860000D03*
X85245000Y-117860000D03*
D40*
X146220000Y-71364500D03*
X146220000Y-72634500D03*
X146220000Y-70094500D03*
X146220000Y-68824500D03*
D41*
X140755000Y-70094500D03*
X140755000Y-72634500D03*
X140755000Y-68824500D03*
X140755000Y-71364500D03*
D42*
X142860000Y-70729500D03*
D34*
X107859000Y-95490000D03*
X107859000Y-97140000D03*
X109469000Y-76910000D03*
X109469000Y-78560000D03*
D44*
X134421000Y-105875000D03*
X137721000Y-105875000D03*
D39*
X85185000Y-119570000D03*
X83535000Y-119570000D03*
D45*
X97985000Y-76900000D03*
X101985000Y-76900000D03*
D25*
X112720900Y-94100000D03*
X114620900Y-94100000D03*
D43*
X157719000Y-71880000D03*
D46*
X114924100Y-109155000D03*
X114924100Y-107885000D03*
X114924100Y-106615000D03*
X114924100Y-105345000D03*
X109974100Y-105345000D03*
X109974100Y-106615000D03*
X109974100Y-107885000D03*
X109974100Y-109155000D03*
D28*
X78850000Y-105100000D03*
D29*
X78850000Y-102560000D03*
X78850000Y-100020000D03*
X78850000Y-97480000D03*
X78850000Y-94940000D03*
X78850000Y-92400000D03*
D47*
X120840000Y-72400000D03*
D33*
X127950000Y-80620000D03*
X121450000Y-80620000D03*
D48*
X86400000Y-68845000D03*
X86400000Y-70745000D03*
D34*
X107769000Y-100090000D03*
X107769000Y-101740000D03*
D20*
X84910000Y-92025000D03*
X84910000Y-90375000D03*
D13*
X155246600Y-95645000D03*
X156796600Y-95645000D03*
D49*
X106000000Y-86645000D03*
X106000000Y-88745000D03*
D20*
X153521900Y-97310000D03*
X153521900Y-95660000D03*
D32*
X117740000Y-120350000D03*
X117740000Y-117050000D03*
D13*
X155225000Y-93570000D03*
X156775000Y-93570000D03*
D11*
X145265000Y-93350000D03*
X143715000Y-93350000D03*
D40*
X146220000Y-80975000D03*
X146220000Y-78435000D03*
X146220000Y-79705000D03*
X146220000Y-77165000D03*
D42*
X142860000Y-79070000D03*
D41*
X140755000Y-79705000D03*
X140755000Y-80975000D03*
X140755000Y-77165000D03*
X140755000Y-78435000D03*
D43*
X157819000Y-101910000D03*
D50*
X90695000Y-73045000D03*
X90695000Y-69195000D03*
D28*
X78850000Y-77350000D03*
D29*
X78850000Y-74810000D03*
X78850000Y-72270000D03*
X78850000Y-69730000D03*
D38*
X154262500Y-101280000D03*
X148337500Y-101280000D03*
D20*
X87820000Y-76970000D03*
X87820000Y-75320000D03*
D38*
X154262500Y-75540000D03*
X148337500Y-75540000D03*
D49*
X109400000Y-73220000D03*
X109400000Y-75320000D03*
D20*
X142080000Y-93425000D03*
X142080000Y-91775000D03*
D51*
X105290000Y-68730000D03*
X105290000Y-72030000D03*
D40*
X137620000Y-78435000D03*
X137620000Y-79705000D03*
X137620000Y-80975000D03*
X137620000Y-77165000D03*
D41*
X132155000Y-79705000D03*
X132155000Y-78435000D03*
D42*
X134260000Y-79070000D03*
D41*
X132155000Y-80975000D03*
X132155000Y-77165000D03*
D40*
X137620000Y-86885000D03*
X137620000Y-89425000D03*
X137620000Y-88155000D03*
X137620000Y-85615000D03*
D42*
X134260000Y-87520000D03*
D41*
X132155000Y-88155000D03*
X132155000Y-89425000D03*
X132155000Y-85615000D03*
X132155000Y-86885000D03*
D46*
X116674100Y-78525000D03*
X116674100Y-77255000D03*
X116674100Y-75985000D03*
X116674100Y-74715000D03*
X111724100Y-74715000D03*
X111724100Y-75985000D03*
X111724100Y-77255000D03*
X111724100Y-78525000D03*
D34*
X107559000Y-73610000D03*
X107559000Y-75260000D03*
D52*
X114440000Y-71450000D03*
X115940000Y-71450000D03*
X115940000Y-68750000D03*
X114440000Y-68750000D03*
D34*
X107909000Y-80815000D03*
X107909000Y-82465000D03*
D40*
X146220000Y-86885000D03*
X146220000Y-88155000D03*
X146220000Y-89425000D03*
X146220000Y-85615000D03*
D41*
X140755000Y-86885000D03*
X140755000Y-89425000D03*
X140755000Y-88155000D03*
X140755000Y-85615000D03*
D42*
X142860000Y-87520000D03*
D53*
X111749100Y-80400000D03*
X109849100Y-80400000D03*
D12*
X93990000Y-83025000D03*
X93990000Y-84575000D03*
D46*
X115134100Y-91895000D03*
X115134100Y-90625000D03*
X115134100Y-89355000D03*
X115134100Y-88085000D03*
X110184100Y-88085000D03*
X110184100Y-89355000D03*
X110184100Y-90625000D03*
X110184100Y-91895000D03*
D38*
X154262500Y-105320000D03*
X148337500Y-105320000D03*
D46*
X114934100Y-116925000D03*
X114934100Y-115655000D03*
X114934100Y-114385000D03*
X114934100Y-113115000D03*
X109984100Y-113115000D03*
X109984100Y-114385000D03*
X109984100Y-115655000D03*
X109984100Y-116925000D03*
D20*
X91964900Y-84763000D03*
X91964900Y-83113000D03*
D46*
X115124100Y-86275000D03*
X115124100Y-85005000D03*
X115124100Y-83735000D03*
X115124100Y-82465000D03*
X110174100Y-82465000D03*
X110174100Y-83735000D03*
X110174100Y-85005000D03*
X110174100Y-86275000D03*
D34*
X107811000Y-108305000D03*
X107811000Y-109955000D03*
D49*
X106000000Y-83320000D03*
X106000000Y-85420000D03*
D19*
X95973900Y-79510000D03*
X97623900Y-79510000D03*
D38*
X154262500Y-110120000D03*
X148337500Y-110120000D03*
D40*
X146220000Y-110485000D03*
X146220000Y-109215000D03*
X146220000Y-111755000D03*
X146220000Y-107945000D03*
D41*
X140755000Y-109215000D03*
X140755000Y-107945000D03*
X140755000Y-111755000D03*
D42*
X142860000Y-109850000D03*
D41*
X140755000Y-110485000D03*
D33*
X127950000Y-107600000D03*
X121450000Y-107600000D03*
D44*
X142361000Y-114335000D03*
X145661000Y-114335000D03*
D54*
X89290000Y-85900000D03*
D55*
X86750000Y-85900000D03*
X84210000Y-85900000D03*
D44*
X143050000Y-105875000D03*
X146350000Y-105875000D03*
D34*
X107709000Y-103795000D03*
X107709000Y-105445000D03*
D25*
X112630900Y-111080000D03*
X114530900Y-111080000D03*
D34*
X107890000Y-86970000D03*
X107890000Y-88620000D03*
D56*
X101140000Y-119800000D03*
X97840000Y-119800000D03*
D40*
X137620000Y-72625000D03*
X137620000Y-70085000D03*
X137620000Y-71355000D03*
X137620000Y-68815000D03*
D41*
X132155000Y-71355000D03*
D42*
X134260000Y-70720000D03*
D41*
X132155000Y-72625000D03*
X132155000Y-70085000D03*
X132155000Y-68815000D03*
D49*
X106000000Y-91520000D03*
X106000000Y-93620000D03*
D57*
X151452500Y-97375000D03*
X151452500Y-96725000D03*
X151452500Y-96075000D03*
X151452500Y-95425000D03*
X147227500Y-95425000D03*
X147227500Y-96075000D03*
X147227500Y-96725000D03*
X147227500Y-97375000D03*
D49*
X106000000Y-79970000D03*
X106000000Y-82070000D03*
X105800000Y-95300000D03*
X105800000Y-97400000D03*
D44*
X134471000Y-83045000D03*
X137771000Y-83045000D03*
D19*
X138796900Y-97138000D03*
X140446900Y-97138000D03*
D11*
X140405000Y-93460000D03*
X138855000Y-93460000D03*
D46*
X114974100Y-100705000D03*
X114974100Y-99435000D03*
X114974100Y-98165000D03*
X114974100Y-96895000D03*
X110024100Y-96895000D03*
X110024100Y-98165000D03*
X110024100Y-99435000D03*
X110024100Y-100705000D03*
D40*
X137620000Y-110485000D03*
X137620000Y-111755000D03*
X137620000Y-109215000D03*
X137620000Y-107945000D03*
D41*
X132155000Y-110485000D03*
X132155000Y-107945000D03*
D42*
X134260000Y-109850000D03*
D41*
X132155000Y-109215000D03*
X132155000Y-111755000D03*
D58*
X90840000Y-93150000D03*
X93040000Y-93150000D03*
X93040000Y-91450000D03*
X90840000Y-91450000D03*
D39*
X145360000Y-95630900D03*
X143710000Y-95630900D03*
D34*
X107590000Y-116800000D03*
X107590000Y-118450000D03*
D33*
X127950000Y-98600000D03*
X121450000Y-98600000D03*
D49*
X107600000Y-76670000D03*
X107600000Y-78770000D03*
D34*
X83090000Y-97485000D03*
X83090000Y-99135000D03*
D57*
X151452500Y-93715000D03*
X151452500Y-93065000D03*
X151452500Y-92415000D03*
X151452500Y-91765000D03*
X147227500Y-91765000D03*
X147227500Y-92415000D03*
X147227500Y-93065000D03*
X147227500Y-93715000D03*
D28*
X78850000Y-119050000D03*
D29*
X78850000Y-116510000D03*
X78850000Y-113970000D03*
X78850000Y-111430000D03*
X78850000Y-108890000D03*
D52*
X111040000Y-71450000D03*
X112540000Y-71450000D03*
X112540000Y-68750000D03*
X111040000Y-68750000D03*
D34*
X107790000Y-91770000D03*
X107790000Y-93420000D03*
D11*
X140383400Y-95425000D03*
X138833400Y-95425000D03*
D32*
X117840000Y-86520000D03*
X117840000Y-83220000D03*
D40*
X137620000Y-117665000D03*
X137620000Y-120205000D03*
X137620000Y-118935000D03*
X137620000Y-116395000D03*
D41*
X132155000Y-116395000D03*
X132155000Y-118935000D03*
X132155000Y-120205000D03*
X132155000Y-117665000D03*
D42*
X134260000Y-118300000D03*
D44*
X133650000Y-91755000D03*
X136950000Y-91755000D03*
X134421000Y-114335000D03*
X137721000Y-114335000D03*
D12*
X117260000Y-113405900D03*
X117260000Y-114955900D03*
D20*
X153480000Y-93605000D03*
X153480000Y-91955000D03*
D12*
X117460000Y-88375900D03*
X117460000Y-89925900D03*
D39*
X156883100Y-97242000D03*
X155233100Y-97242000D03*
D44*
X134550000Y-74695000D03*
X137850000Y-74695000D03*
X143161000Y-74695000D03*
X146461000Y-74695000D03*
X134050000Y-97250000D03*
X137350000Y-97250000D03*
D13*
X95715000Y-88810000D03*
X97265000Y-88810000D03*
D49*
X105800000Y-111675000D03*
X105800000Y-113775000D03*
D44*
X151161000Y-119935000D03*
X154461000Y-119935000D03*
D40*
X146220000Y-103314500D03*
X146220000Y-100774500D03*
X146220000Y-102044500D03*
X146220000Y-99504500D03*
D41*
X140755000Y-103314500D03*
X140755000Y-100774500D03*
D42*
X142860000Y-101409500D03*
D41*
X140755000Y-99504500D03*
X140755000Y-102044500D03*
D40*
X137620000Y-102035000D03*
X137620000Y-103305000D03*
X137620000Y-100765000D03*
X137620000Y-99495000D03*
D41*
X132155000Y-103305000D03*
D42*
X134260000Y-101400000D03*
D41*
X132155000Y-99495000D03*
X132155000Y-102035000D03*
X132155000Y-100765000D03*
D34*
X86590000Y-93695000D03*
X86590000Y-95345000D03*
D20*
X142121900Y-97140000D03*
X142121900Y-95490000D03*
D52*
X107640000Y-71450000D03*
X109140000Y-71450000D03*
X109140000Y-68750000D03*
X107640000Y-68750000D03*
D38*
X154262500Y-79640000D03*
X148337500Y-79640000D03*
D59*
X93763999Y-86116000D03*
X93114000Y-86116000D03*
X92464001Y-86116000D03*
X92464001Y-88427400D03*
X93114000Y-88427400D03*
X93763999Y-88427400D03*
D60*
X93114000Y-87271700D03*
D38*
X154262500Y-88200000D03*
X148337500Y-88200000D03*
D43*
X157919000Y-118000000D03*
D49*
X105800000Y-103450000D03*
X105800000Y-105550000D03*
X105800000Y-99850000D03*
X105800000Y-101950000D03*
D43*
X157819000Y-79770000D03*
D34*
X107911000Y-83925000D03*
X107911000Y-85575000D03*
D25*
X112520900Y-119130000D03*
X114420900Y-119130000D03*
D32*
X117640000Y-111800000D03*
X117640000Y-108500000D03*
D34*
X86390000Y-97475000D03*
X86390000Y-99125000D03*
D12*
X117360000Y-105205900D03*
X117360000Y-106755900D03*
D43*
X157719000Y-110050000D03*
D34*
X84780000Y-97475000D03*
X84780000Y-99125000D03*
D33*
X127950000Y-89570000D03*
X121450000Y-89570000D03*
D49*
X105800000Y-116550000D03*
X105800000Y-118650000D03*
D39*
X156805000Y-91900000D03*
X155155000Y-91900000D03*
D61*
X84070000Y-71967500D03*
X84070000Y-69042500D03*
D49*
X105800000Y-108000000D03*
X105800000Y-110100000D03*
D25*
X113630900Y-80450000D03*
X115530900Y-80450000D03*
D32*
X117940000Y-94770000D03*
X117940000Y-91470000D03*
D48*
X95210000Y-75895000D03*
X95210000Y-77795000D03*
D44*
X142961000Y-83105000D03*
X146261000Y-83105000D03*
D20*
X86170000Y-74210000D03*
X86170000Y-72560000D03*
D12*
X117510000Y-96745900D03*
X117510000Y-98295900D03*
D34*
X83280000Y-90375000D03*
X83280000Y-92025000D03*
D14*
X85290000Y-77375000D03*
X85290000Y-75825000D03*
D62*
X94280000Y-116045000D03*
X88500000Y-116045000D03*
D63*
X88040000Y-114980000D03*
X88840000Y-114980000D03*
X90140000Y-114980000D03*
X91140000Y-114980000D03*
X91640000Y-114980000D03*
X92640000Y-114980000D03*
X93940000Y-114980000D03*
X94740000Y-114980000D03*
X94440000Y-114980000D03*
X93640000Y-114980000D03*
X93140000Y-114980000D03*
X92140000Y-114980000D03*
X90640000Y-114980000D03*
X89640000Y-114980000D03*
X89140000Y-114980000D03*
X88340000Y-114980000D03*
D64*
X95710000Y-115545000D03*
X87070000Y-115545000D03*
D65*
X87070000Y-119725000D03*
X95710000Y-119725000D03*
D19*
X138765000Y-91800000D03*
X140415000Y-91800000D03*
D47*
X128090000Y-72400000D03*
M02*
