%FSLAX45Y45*%
G04 Gerber Fmt 4.5, Leading zero omitted, Abs format (unit mm)*
G04 Created by KiCad (PCBNEW 6.0.0-rc2) date 2022-06-30 13:47:26*
%MOMM*%
%LPD*%
G01*
G04 APERTURE LIST*
%TA.AperFunction,Profile*%
%ADD10C,0.050000*%
%TD*%
%ADD11C,0.200000*%
%ADD12C,0.065000*%
G04 APERTURE END LIST*
D10*
X7045000Y-12025000D02*
X7045000Y-6975000D01*
X16420000Y-12200000D02*
G75*
G03*
X16595000Y-12025000I0J175000D01*
G01*
X16420000Y-12200000D02*
X7220000Y-12200000D01*
X7220000Y-6800000D02*
G75*
G03*
X7045000Y-6975000I0J-175000D01*
G01*
X16595000Y-6975000D02*
G75*
G03*
X16420000Y-6800000I-175000J0D01*
G01*
X7045000Y-12025000D02*
G75*
G03*
X7220000Y-12200000I175000J0D01*
G01*
X16420000Y-6800000D02*
X7220000Y-6800000D01*
X16595000Y-6975000D02*
X16595000Y-12025000D01*
D11*
D12*
X8818500Y-11632000D02*
X8883500Y-11697000D01*
X8883500Y-11632000D02*
X8818500Y-11697000D01*
X9396500Y-11632000D02*
X9461500Y-11697000D01*
X9461500Y-11632000D02*
X9396500Y-11697000D01*
D11*
X7300119Y-12512976D02*
X7300119Y-12312976D01*
X7347738Y-12312976D01*
X7376309Y-12322500D01*
X7395357Y-12341548D01*
X7404881Y-12360595D01*
X7414405Y-12398690D01*
X7414405Y-12427262D01*
X7404881Y-12465357D01*
X7395357Y-12484405D01*
X7376309Y-12503452D01*
X7347738Y-12512976D01*
X7300119Y-12512976D01*
X7500119Y-12512976D02*
X7500119Y-12379643D01*
X7500119Y-12417738D02*
X7509643Y-12398690D01*
X7519167Y-12389167D01*
X7538214Y-12379643D01*
X7557262Y-12379643D01*
X7623928Y-12512976D02*
X7623928Y-12379643D01*
X7623928Y-12312976D02*
X7614405Y-12322500D01*
X7623928Y-12332024D01*
X7633452Y-12322500D01*
X7623928Y-12312976D01*
X7623928Y-12332024D01*
X7747738Y-12512976D02*
X7728690Y-12503452D01*
X7719167Y-12484405D01*
X7719167Y-12312976D01*
X7852500Y-12512976D02*
X7833452Y-12503452D01*
X7823928Y-12484405D01*
X7823928Y-12312976D01*
X8081071Y-12512976D02*
X8081071Y-12312976D01*
X8147738Y-12455833D01*
X8214405Y-12312976D01*
X8214405Y-12512976D01*
X8395357Y-12512976D02*
X8395357Y-12408214D01*
X8385833Y-12389167D01*
X8366786Y-12379643D01*
X8328690Y-12379643D01*
X8309643Y-12389167D01*
X8395357Y-12503452D02*
X8376309Y-12512976D01*
X8328690Y-12512976D01*
X8309643Y-12503452D01*
X8300119Y-12484405D01*
X8300119Y-12465357D01*
X8309643Y-12446309D01*
X8328690Y-12436786D01*
X8376309Y-12436786D01*
X8395357Y-12427262D01*
X8490595Y-12379643D02*
X8490595Y-12579643D01*
X8490595Y-12389167D02*
X8509643Y-12379643D01*
X8547738Y-12379643D01*
X8566786Y-12389167D01*
X8576310Y-12398690D01*
X8585833Y-12417738D01*
X8585833Y-12474881D01*
X8576310Y-12493928D01*
X8566786Y-12503452D01*
X8547738Y-12512976D01*
X8509643Y-12512976D01*
X8490595Y-12503452D01*
X8671548Y-12493928D02*
X8681071Y-12503452D01*
X8671548Y-12512976D01*
X8662024Y-12503452D01*
X8671548Y-12493928D01*
X8671548Y-12512976D01*
X8671548Y-12389167D02*
X8681071Y-12398690D01*
X8671548Y-12408214D01*
X8662024Y-12398690D01*
X8671548Y-12389167D01*
X8671548Y-12408214D01*
D12*
X6977500Y-12810000D02*
X7042500Y-12875000D01*
X7042500Y-12810000D02*
X6977500Y-12875000D01*
D11*
X7338214Y-12732976D02*
X7357262Y-12732976D01*
X7376309Y-12742500D01*
X7385833Y-12752024D01*
X7395357Y-12771071D01*
X7404881Y-12809167D01*
X7404881Y-12856786D01*
X7395357Y-12894881D01*
X7385833Y-12913928D01*
X7376309Y-12923452D01*
X7357262Y-12932976D01*
X7338214Y-12932976D01*
X7319167Y-12923452D01*
X7309643Y-12913928D01*
X7300119Y-12894881D01*
X7290595Y-12856786D01*
X7290595Y-12809167D01*
X7300119Y-12771071D01*
X7309643Y-12752024D01*
X7319167Y-12742500D01*
X7338214Y-12732976D01*
X7490595Y-12913928D02*
X7500119Y-12923452D01*
X7490595Y-12932976D01*
X7481071Y-12923452D01*
X7490595Y-12913928D01*
X7490595Y-12932976D01*
X7671548Y-12732976D02*
X7633452Y-12732976D01*
X7614405Y-12742500D01*
X7604881Y-12752024D01*
X7585833Y-12780595D01*
X7576309Y-12818690D01*
X7576309Y-12894881D01*
X7585833Y-12913928D01*
X7595357Y-12923452D01*
X7614405Y-12932976D01*
X7652500Y-12932976D01*
X7671548Y-12923452D01*
X7681071Y-12913928D01*
X7690595Y-12894881D01*
X7690595Y-12847262D01*
X7681071Y-12828214D01*
X7671548Y-12818690D01*
X7652500Y-12809167D01*
X7614405Y-12809167D01*
X7595357Y-12818690D01*
X7585833Y-12828214D01*
X7576309Y-12847262D01*
X7871548Y-12732976D02*
X7776309Y-12732976D01*
X7766786Y-12828214D01*
X7776309Y-12818690D01*
X7795357Y-12809167D01*
X7842976Y-12809167D01*
X7862024Y-12818690D01*
X7871548Y-12828214D01*
X7881071Y-12847262D01*
X7881071Y-12894881D01*
X7871548Y-12913928D01*
X7862024Y-12923452D01*
X7842976Y-12932976D01*
X7795357Y-12932976D01*
X7776309Y-12923452D01*
X7766786Y-12913928D01*
X8004881Y-12732976D02*
X8023928Y-12732976D01*
X8042976Y-12742500D01*
X8052500Y-12752024D01*
X8062024Y-12771071D01*
X8071548Y-12809167D01*
X8071548Y-12856786D01*
X8062024Y-12894881D01*
X8052500Y-12913928D01*
X8042976Y-12923452D01*
X8023928Y-12932976D01*
X8004881Y-12932976D01*
X7985833Y-12923452D01*
X7976309Y-12913928D01*
X7966786Y-12894881D01*
X7957262Y-12856786D01*
X7957262Y-12809167D01*
X7966786Y-12771071D01*
X7976309Y-12752024D01*
X7985833Y-12742500D01*
X8004881Y-12732976D01*
X8157262Y-12932976D02*
X8157262Y-12799643D01*
X8157262Y-12818690D02*
X8166786Y-12809167D01*
X8185833Y-12799643D01*
X8214405Y-12799643D01*
X8233452Y-12809167D01*
X8242976Y-12828214D01*
X8242976Y-12932976D01*
X8242976Y-12828214D02*
X8252500Y-12809167D01*
X8271548Y-12799643D01*
X8300119Y-12799643D01*
X8319167Y-12809167D01*
X8328690Y-12828214D01*
X8328690Y-12932976D01*
X8423929Y-12932976D02*
X8423929Y-12799643D01*
X8423929Y-12818690D02*
X8433452Y-12809167D01*
X8452500Y-12799643D01*
X8481071Y-12799643D01*
X8500119Y-12809167D01*
X8509643Y-12828214D01*
X8509643Y-12932976D01*
X8509643Y-12828214D02*
X8519167Y-12809167D01*
X8538214Y-12799643D01*
X8566786Y-12799643D01*
X8585833Y-12809167D01*
X8595357Y-12828214D01*
X8595357Y-12932976D01*
X8985833Y-12723452D02*
X8814405Y-12980595D01*
X9242976Y-12732976D02*
X9262024Y-12732976D01*
X9281071Y-12742500D01*
X9290595Y-12752024D01*
X9300119Y-12771071D01*
X9309643Y-12809167D01*
X9309643Y-12856786D01*
X9300119Y-12894881D01*
X9290595Y-12913928D01*
X9281071Y-12923452D01*
X9262024Y-12932976D01*
X9242976Y-12932976D01*
X9223929Y-12923452D01*
X9214405Y-12913928D01*
X9204881Y-12894881D01*
X9195357Y-12856786D01*
X9195357Y-12809167D01*
X9204881Y-12771071D01*
X9214405Y-12752024D01*
X9223929Y-12742500D01*
X9242976Y-12732976D01*
X9395357Y-12913928D02*
X9404881Y-12923452D01*
X9395357Y-12932976D01*
X9385833Y-12923452D01*
X9395357Y-12913928D01*
X9395357Y-12932976D01*
X9528690Y-12732976D02*
X9547738Y-12732976D01*
X9566786Y-12742500D01*
X9576310Y-12752024D01*
X9585833Y-12771071D01*
X9595357Y-12809167D01*
X9595357Y-12856786D01*
X9585833Y-12894881D01*
X9576310Y-12913928D01*
X9566786Y-12923452D01*
X9547738Y-12932976D01*
X9528690Y-12932976D01*
X9509643Y-12923452D01*
X9500119Y-12913928D01*
X9490595Y-12894881D01*
X9481071Y-12856786D01*
X9481071Y-12809167D01*
X9490595Y-12771071D01*
X9500119Y-12752024D01*
X9509643Y-12742500D01*
X9528690Y-12732976D01*
X9671548Y-12752024D02*
X9681071Y-12742500D01*
X9700119Y-12732976D01*
X9747738Y-12732976D01*
X9766786Y-12742500D01*
X9776310Y-12752024D01*
X9785833Y-12771071D01*
X9785833Y-12790119D01*
X9776310Y-12818690D01*
X9662024Y-12932976D01*
X9785833Y-12932976D01*
X9966786Y-12732976D02*
X9871548Y-12732976D01*
X9862024Y-12828214D01*
X9871548Y-12818690D01*
X9890595Y-12809167D01*
X9938214Y-12809167D01*
X9957262Y-12818690D01*
X9966786Y-12828214D01*
X9976310Y-12847262D01*
X9976310Y-12894881D01*
X9966786Y-12913928D01*
X9957262Y-12923452D01*
X9938214Y-12932976D01*
X9890595Y-12932976D01*
X9871548Y-12923452D01*
X9862024Y-12913928D01*
X10147738Y-12732976D02*
X10109643Y-12732976D01*
X10090595Y-12742500D01*
X10081071Y-12752024D01*
X10062024Y-12780595D01*
X10052500Y-12818690D01*
X10052500Y-12894881D01*
X10062024Y-12913928D01*
X10071548Y-12923452D01*
X10090595Y-12932976D01*
X10128690Y-12932976D01*
X10147738Y-12923452D01*
X10157262Y-12913928D01*
X10166786Y-12894881D01*
X10166786Y-12847262D01*
X10157262Y-12828214D01*
X10147738Y-12818690D01*
X10128690Y-12809167D01*
X10090595Y-12809167D01*
X10071548Y-12818690D01*
X10062024Y-12828214D01*
X10052500Y-12847262D01*
X10242976Y-12732976D02*
X10242976Y-12771071D01*
X10319167Y-12732976D02*
X10319167Y-12771071D01*
X10614405Y-13009167D02*
X10604881Y-12999643D01*
X10585833Y-12971071D01*
X10576310Y-12952024D01*
X10566786Y-12923452D01*
X10557262Y-12875833D01*
X10557262Y-12837738D01*
X10566786Y-12790119D01*
X10576310Y-12761548D01*
X10585833Y-12742500D01*
X10604881Y-12713928D01*
X10614405Y-12704405D01*
X10681071Y-12752024D02*
X10690595Y-12742500D01*
X10709643Y-12732976D01*
X10757262Y-12732976D01*
X10776310Y-12742500D01*
X10785833Y-12752024D01*
X10795357Y-12771071D01*
X10795357Y-12790119D01*
X10785833Y-12818690D01*
X10671548Y-12932976D01*
X10795357Y-12932976D01*
X11033452Y-12932976D02*
X11033452Y-12732976D01*
X11119167Y-12932976D02*
X11119167Y-12828214D01*
X11109643Y-12809167D01*
X11090595Y-12799643D01*
X11062024Y-12799643D01*
X11042976Y-12809167D01*
X11033452Y-12818690D01*
X11242976Y-12932976D02*
X11223928Y-12923452D01*
X11214405Y-12913928D01*
X11204881Y-12894881D01*
X11204881Y-12837738D01*
X11214405Y-12818690D01*
X11223928Y-12809167D01*
X11242976Y-12799643D01*
X11271548Y-12799643D01*
X11290595Y-12809167D01*
X11300119Y-12818690D01*
X11309643Y-12837738D01*
X11309643Y-12894881D01*
X11300119Y-12913928D01*
X11290595Y-12923452D01*
X11271548Y-12932976D01*
X11242976Y-12932976D01*
X11423928Y-12932976D02*
X11404881Y-12923452D01*
X11395357Y-12904405D01*
X11395357Y-12732976D01*
X11576309Y-12923452D02*
X11557262Y-12932976D01*
X11519167Y-12932976D01*
X11500119Y-12923452D01*
X11490595Y-12904405D01*
X11490595Y-12828214D01*
X11500119Y-12809167D01*
X11519167Y-12799643D01*
X11557262Y-12799643D01*
X11576309Y-12809167D01*
X11585833Y-12828214D01*
X11585833Y-12847262D01*
X11490595Y-12866309D01*
X11662024Y-12923452D02*
X11681071Y-12932976D01*
X11719167Y-12932976D01*
X11738214Y-12923452D01*
X11747738Y-12904405D01*
X11747738Y-12894881D01*
X11738214Y-12875833D01*
X11719167Y-12866309D01*
X11690595Y-12866309D01*
X11671548Y-12856786D01*
X11662024Y-12837738D01*
X11662024Y-12828214D01*
X11671548Y-12809167D01*
X11690595Y-12799643D01*
X11719167Y-12799643D01*
X11738214Y-12809167D01*
X11814405Y-13009167D02*
X11823928Y-12999643D01*
X11842976Y-12971071D01*
X11852500Y-12952024D01*
X11862024Y-12923452D01*
X11871548Y-12875833D01*
X11871548Y-12837738D01*
X11862024Y-12790119D01*
X11852500Y-12761548D01*
X11842976Y-12742500D01*
X11823928Y-12713928D01*
X11814405Y-12704405D01*
X12176309Y-13009167D02*
X12166786Y-12999643D01*
X12147738Y-12971071D01*
X12138214Y-12952024D01*
X12128690Y-12923452D01*
X12119167Y-12875833D01*
X12119167Y-12837738D01*
X12128690Y-12790119D01*
X12138214Y-12761548D01*
X12147738Y-12742500D01*
X12166786Y-12713928D01*
X12176309Y-12704405D01*
X12252500Y-12799643D02*
X12252500Y-12932976D01*
X12252500Y-12818690D02*
X12262024Y-12809167D01*
X12281071Y-12799643D01*
X12309643Y-12799643D01*
X12328690Y-12809167D01*
X12338214Y-12828214D01*
X12338214Y-12932976D01*
X12462024Y-12932976D02*
X12442976Y-12923452D01*
X12433452Y-12913928D01*
X12423928Y-12894881D01*
X12423928Y-12837738D01*
X12433452Y-12818690D01*
X12442976Y-12809167D01*
X12462024Y-12799643D01*
X12490595Y-12799643D01*
X12509643Y-12809167D01*
X12519167Y-12818690D01*
X12528690Y-12837738D01*
X12528690Y-12894881D01*
X12519167Y-12913928D01*
X12509643Y-12923452D01*
X12490595Y-12932976D01*
X12462024Y-12932976D01*
X12585833Y-12799643D02*
X12662024Y-12799643D01*
X12614405Y-12732976D02*
X12614405Y-12904405D01*
X12623928Y-12923452D01*
X12642976Y-12932976D01*
X12662024Y-12932976D01*
X12881071Y-12799643D02*
X12881071Y-12999643D01*
X12881071Y-12809167D02*
X12900119Y-12799643D01*
X12938214Y-12799643D01*
X12957262Y-12809167D01*
X12966786Y-12818690D01*
X12976309Y-12837738D01*
X12976309Y-12894881D01*
X12966786Y-12913928D01*
X12957262Y-12923452D01*
X12938214Y-12932976D01*
X12900119Y-12932976D01*
X12881071Y-12923452D01*
X13090595Y-12932976D02*
X13071548Y-12923452D01*
X13062024Y-12904405D01*
X13062024Y-12732976D01*
X13252500Y-12932976D02*
X13252500Y-12828214D01*
X13242976Y-12809167D01*
X13223928Y-12799643D01*
X13185833Y-12799643D01*
X13166786Y-12809167D01*
X13252500Y-12923452D02*
X13233452Y-12932976D01*
X13185833Y-12932976D01*
X13166786Y-12923452D01*
X13157262Y-12904405D01*
X13157262Y-12885357D01*
X13166786Y-12866309D01*
X13185833Y-12856786D01*
X13233452Y-12856786D01*
X13252500Y-12847262D01*
X13319167Y-12799643D02*
X13395357Y-12799643D01*
X13347738Y-12732976D02*
X13347738Y-12904405D01*
X13357262Y-12923452D01*
X13376309Y-12932976D01*
X13395357Y-12932976D01*
X13538214Y-12923452D02*
X13519167Y-12932976D01*
X13481071Y-12932976D01*
X13462024Y-12923452D01*
X13452500Y-12904405D01*
X13452500Y-12828214D01*
X13462024Y-12809167D01*
X13481071Y-12799643D01*
X13519167Y-12799643D01*
X13538214Y-12809167D01*
X13547738Y-12828214D01*
X13547738Y-12847262D01*
X13452500Y-12866309D01*
X13719167Y-12932976D02*
X13719167Y-12732976D01*
X13719167Y-12923452D02*
X13700119Y-12932976D01*
X13662024Y-12932976D01*
X13642976Y-12923452D01*
X13633452Y-12913928D01*
X13623928Y-12894881D01*
X13623928Y-12837738D01*
X13633452Y-12818690D01*
X13642976Y-12809167D01*
X13662024Y-12799643D01*
X13700119Y-12799643D01*
X13719167Y-12809167D01*
X13795357Y-13009167D02*
X13804881Y-12999643D01*
X13823928Y-12971071D01*
X13833452Y-12952024D01*
X13842976Y-12923452D01*
X13852500Y-12875833D01*
X13852500Y-12837738D01*
X13842976Y-12790119D01*
X13833452Y-12761548D01*
X13823928Y-12742500D01*
X13804881Y-12713928D01*
X13795357Y-12704405D01*
M02*
