G04 #@! TF.GenerationSoftware,KiCad,Pcbnew,6.0.2+dfsg-1*
G04 #@! TF.CreationDate,2022-12-09T23:48:52-08:00*
G04 #@! TF.ProjectId,RP2040_motor,52503230-3430-45f6-9d6f-746f722e6b69,REV1*
G04 #@! TF.SameCoordinates,Original*
G04 #@! TF.FileFunction,Paste,Top*
G04 #@! TF.FilePolarity,Positive*
%FSLAX46Y46*%
G04 Gerber Fmt 4.6, Leading zero omitted, Abs format (unit mm)*
G04 Created by KiCad (PCBNEW 6.0.2+dfsg-1) date 2022-12-09 23:48:52*
%MOMM*%
%LPD*%
G01*
G04 APERTURE LIST*
G04 Aperture macros list*
%AMRoundRect*
0 Rectangle with rounded corners*
0 $1 Rounding radius*
0 $2 $3 $4 $5 $6 $7 $8 $9 X,Y pos of 4 corners*
0 Add a 4 corners polygon primitive as box body*
4,1,4,$2,$3,$4,$5,$6,$7,$8,$9,$2,$3,0*
0 Add four circle primitives for the rounded corners*
1,1,$1+$1,$2,$3*
1,1,$1+$1,$4,$5*
1,1,$1+$1,$6,$7*
1,1,$1+$1,$8,$9*
0 Add four rect primitives between the rounded corners*
20,1,$1+$1,$2,$3,$4,$5,0*
20,1,$1+$1,$4,$5,$6,$7,0*
20,1,$1+$1,$6,$7,$8,$9,0*
20,1,$1+$1,$8,$9,$2,$3,0*%
G04 Aperture macros list end*
%ADD10RoundRect,0.225000X0.225000X0.250000X-0.225000X0.250000X-0.225000X-0.250000X0.225000X-0.250000X0*%
%ADD11RoundRect,0.225000X-0.250000X0.225000X-0.250000X-0.225000X0.250000X-0.225000X0.250000X0.225000X0*%
%ADD12RoundRect,0.225000X-0.225000X-0.250000X0.225000X-0.250000X0.225000X0.250000X-0.225000X0.250000X0*%
%ADD13RoundRect,0.135000X0.135000X0.185000X-0.135000X0.185000X-0.135000X-0.185000X0.135000X-0.185000X0*%
%ADD14RoundRect,0.150000X0.150000X-0.650000X0.150000X0.650000X-0.150000X0.650000X-0.150000X-0.650000X0*%
%ADD15RoundRect,0.200000X0.200000X0.275000X-0.200000X0.275000X-0.200000X-0.275000X0.200000X-0.275000X0*%
%ADD16RoundRect,0.225000X0.250000X-0.225000X0.250000X0.225000X-0.250000X0.225000X-0.250000X-0.225000X0*%
%ADD17RoundRect,0.200000X0.275000X-0.200000X0.275000X0.200000X-0.275000X0.200000X-0.275000X-0.200000X0*%
%ADD18RoundRect,0.250000X0.292217X0.292217X-0.292217X0.292217X-0.292217X-0.292217X0.292217X-0.292217X0*%
%ADD19RoundRect,0.050000X0.387500X0.050000X-0.387500X0.050000X-0.387500X-0.050000X0.387500X-0.050000X0*%
%ADD20RoundRect,0.050000X0.050000X0.387500X-0.050000X0.387500X-0.050000X-0.387500X0.050000X-0.387500X0*%
%ADD21RoundRect,0.243750X0.243750X0.456250X-0.243750X0.456250X-0.243750X-0.456250X0.243750X-0.456250X0*%
%ADD22RoundRect,0.250000X-0.250000X-0.475000X0.250000X-0.475000X0.250000X0.475000X-0.250000X0.475000X0*%
%ADD23RoundRect,0.242500X-0.527500X0.242500X-0.527500X-0.242500X0.527500X-0.242500X0.527500X0.242500X0*%
%ADD24RoundRect,0.150000X-0.150000X0.825000X-0.150000X-0.825000X0.150000X-0.825000X0.150000X0.825000X0*%
%ADD25R,1.200000X0.900000*%
%ADD26RoundRect,0.250000X1.500000X1.000000X-1.500000X1.000000X-1.500000X-1.000000X1.500000X-1.000000X0*%
%ADD27RoundRect,0.200000X-0.275000X0.200000X-0.275000X-0.200000X0.275000X-0.200000X0.275000X0.200000X0*%
%ADD28RoundRect,0.250000X-1.500000X-0.550000X1.500000X-0.550000X1.500000X0.550000X-1.500000X0.550000X0*%
%ADD29RoundRect,0.200000X-0.200000X-0.275000X0.200000X-0.275000X0.200000X0.275000X-0.200000X0.275000X0*%
%ADD30R,1.200000X1.000000*%
%ADD31RoundRect,0.250000X-0.325000X-0.650000X0.325000X-0.650000X0.325000X0.650000X-0.325000X0.650000X0*%
%ADD32R,0.610000X1.270000*%
%ADD33R,0.610000X1.020000*%
%ADD34R,3.910000X3.810000*%
%ADD35RoundRect,0.250000X-0.292217X0.292217X-0.292217X-0.292217X0.292217X-0.292217X0.292217X0.292217X0*%
%ADD36RoundRect,0.050000X-0.050000X0.387500X-0.050000X-0.387500X0.050000X-0.387500X0.050000X0.387500X0*%
%ADD37RoundRect,0.050000X-0.387500X0.050000X-0.387500X-0.050000X0.387500X-0.050000X0.387500X0.050000X0*%
%ADD38RoundRect,0.243750X-0.243750X-0.456250X0.243750X-0.456250X0.243750X0.456250X-0.243750X0.456250X0*%
%ADD39R,0.900000X1.200000*%
%ADD40RoundRect,0.250000X-0.475000X0.250000X-0.475000X-0.250000X0.475000X-0.250000X0.475000X0.250000X0*%
%ADD41R,2.500000X1.800000*%
%ADD42RoundRect,0.150000X0.825000X0.150000X-0.825000X0.150000X-0.825000X-0.150000X0.825000X-0.150000X0*%
%ADD43RoundRect,0.250000X0.325000X1.100000X-0.325000X1.100000X-0.325000X-1.100000X0.325000X-1.100000X0*%
%ADD44R,0.450000X0.600000*%
%ADD45R,5.500000X2.150000*%
%ADD46R,0.650000X0.400000*%
%ADD47R,1.270000X0.610000*%
%ADD48R,1.020000X0.610000*%
%ADD49R,3.810000X3.910000*%
%ADD50R,0.750000X0.900000*%
%ADD51R,1.300000X0.600000*%
%ADD52RoundRect,0.250000X0.250000X0.475000X-0.250000X0.475000X-0.250000X-0.475000X0.250000X-0.475000X0*%
%ADD53RoundRect,0.150000X-0.750000X-0.150000X0.750000X-0.150000X0.750000X0.150000X-0.750000X0.150000X0*%
%ADD54R,1.200000X1.400000*%
%ADD55R,2.000000X0.640000*%
%ADD56RoundRect,0.150000X-0.512500X-0.150000X0.512500X-0.150000X0.512500X0.150000X-0.512500X0.150000X0*%
%ADD57R,1.400000X1.200000*%
%ADD58R,0.300000X1.150000*%
%ADD59R,1.780000X3.430000*%
%ADD60RoundRect,0.150000X-0.875000X-0.150000X0.875000X-0.150000X0.875000X0.150000X-0.875000X0.150000X0*%
%ADD61R,1.000000X1.200000*%
%ADD62RoundRect,0.140000X-0.140000X-0.170000X0.140000X-0.170000X0.140000X0.170000X-0.140000X0.170000X0*%
%ADD63R,0.600000X0.450000*%
%ADD64RoundRect,0.218750X0.256250X-0.218750X0.256250X0.218750X-0.256250X0.218750X-0.256250X-0.218750X0*%
%ADD65RoundRect,0.150000X0.512500X0.150000X-0.512500X0.150000X-0.512500X-0.150000X0.512500X-0.150000X0*%
%ADD66RoundRect,0.250000X0.625000X-0.312500X0.625000X0.312500X-0.625000X0.312500X-0.625000X-0.312500X0*%
%ADD67RoundRect,0.150000X-0.150000X0.650000X-0.150000X-0.650000X0.150000X-0.650000X0.150000X0.650000X0*%
%ADD68R,2.750000X3.050000*%
%ADD69R,1.200000X2.200000*%
G04 APERTURE END LIST*
D10*
X85540000Y-82790000D03*
X83990000Y-82790000D03*
D11*
X87990000Y-81660000D03*
X87990000Y-83210000D03*
D12*
X97500000Y-74450000D03*
X99050000Y-74450000D03*
D11*
X97430000Y-60130000D03*
X97430000Y-61680000D03*
D13*
X102045000Y-56810000D03*
X101025000Y-56810000D03*
D14*
X99370000Y-67840000D03*
X100640000Y-67840000D03*
X101910000Y-67840000D03*
X103180000Y-67840000D03*
X103180000Y-60640000D03*
X101910000Y-60640000D03*
X100640000Y-60640000D03*
X99370000Y-60640000D03*
D10*
X90080000Y-66550000D03*
X88530000Y-66550000D03*
D15*
X101840000Y-58090000D03*
X100190000Y-58090000D03*
D11*
X90440000Y-82810000D03*
X90440000Y-84360000D03*
D10*
X84130000Y-74700000D03*
X82580000Y-74700000D03*
D16*
X89759000Y-69640000D03*
X89759000Y-68090000D03*
D17*
X76012000Y-99772000D03*
X76012000Y-98122000D03*
D16*
X87840000Y-69640000D03*
X87840000Y-68090000D03*
D12*
X96100000Y-80300000D03*
X97650000Y-80300000D03*
D10*
X85480000Y-81200000D03*
X83930000Y-81200000D03*
D18*
X91427500Y-75512500D03*
X90152500Y-76787500D03*
X90152500Y-75512500D03*
X91427500Y-76787500D03*
D19*
X94227500Y-78750000D03*
X94227500Y-78350000D03*
X94227500Y-77950000D03*
X94227500Y-77550000D03*
X94227500Y-77150000D03*
X94227500Y-76750000D03*
X94227500Y-76350000D03*
X94227500Y-75950000D03*
X94227500Y-75550000D03*
X94227500Y-75150000D03*
X94227500Y-74750000D03*
X94227500Y-74350000D03*
X94227500Y-73950000D03*
X94227500Y-73550000D03*
D20*
X93390000Y-72712500D03*
X92990000Y-72712500D03*
X92590000Y-72712500D03*
X92190000Y-72712500D03*
X91790000Y-72712500D03*
X91390000Y-72712500D03*
X90990000Y-72712500D03*
X90590000Y-72712500D03*
X90190000Y-72712500D03*
X89790000Y-72712500D03*
X89390000Y-72712500D03*
X88990000Y-72712500D03*
X88590000Y-72712500D03*
X88190000Y-72712500D03*
D19*
X87352500Y-73550000D03*
X87352500Y-73950000D03*
X87352500Y-74350000D03*
X87352500Y-74750000D03*
X87352500Y-75150000D03*
X87352500Y-75550000D03*
X87352500Y-75950000D03*
X87352500Y-76350000D03*
X87352500Y-76750000D03*
X87352500Y-77150000D03*
X87352500Y-77550000D03*
X87352500Y-77950000D03*
X87352500Y-78350000D03*
X87352500Y-78750000D03*
D20*
X88190000Y-79587500D03*
X88590000Y-79587500D03*
X88990000Y-79587500D03*
X89390000Y-79587500D03*
X89790000Y-79587500D03*
X90190000Y-79587500D03*
X90590000Y-79587500D03*
X90990000Y-79587500D03*
X91390000Y-79587500D03*
X91790000Y-79587500D03*
X92190000Y-79587500D03*
X92590000Y-79587500D03*
X92990000Y-79587500D03*
X93390000Y-79587500D03*
D16*
X94550000Y-64500000D03*
X94550000Y-62950000D03*
D17*
X74412000Y-99772000D03*
X74412000Y-98122000D03*
D11*
X92040000Y-82910000D03*
X92040000Y-84460000D03*
D10*
X85480000Y-79550000D03*
X83930000Y-79550000D03*
D17*
X91740000Y-69360000D03*
X91740000Y-67710000D03*
D21*
X79909500Y-96231000D03*
X78034500Y-96231000D03*
D12*
X113465900Y-44580000D03*
X115015900Y-44580000D03*
D22*
X111740900Y-74280000D03*
X113640900Y-74280000D03*
D15*
X124075000Y-96780000D03*
X122425000Y-96780000D03*
D11*
X94736000Y-96389000D03*
X94736000Y-97939000D03*
D23*
X89100000Y-50450000D03*
X87200000Y-49250000D03*
X89100000Y-49250000D03*
X87200000Y-50450000D03*
D24*
X90055000Y-47375000D03*
X88785000Y-47375000D03*
X87515000Y-47375000D03*
X86245000Y-47375000D03*
X86245000Y-52325000D03*
X87515000Y-52325000D03*
X88785000Y-52325000D03*
X90055000Y-52325000D03*
D25*
X117150000Y-74950000D03*
X117150000Y-71650000D03*
D26*
X127360000Y-88150000D03*
X120860000Y-88150000D03*
D27*
X107100000Y-83300000D03*
X107100000Y-84950000D03*
D28*
X95565000Y-42920000D03*
X100965000Y-42920000D03*
D29*
X153345000Y-84900000D03*
X154995000Y-84900000D03*
D15*
X143675000Y-65500000D03*
X142025000Y-65500000D03*
D30*
X86550000Y-59550000D03*
X93950000Y-59550000D03*
D10*
X154475000Y-64750000D03*
X152925000Y-64750000D03*
D25*
X80564000Y-98380000D03*
X80564000Y-101680000D03*
D31*
X135675000Y-46150000D03*
X138625000Y-46150000D03*
D32*
X143565000Y-90770000D03*
X142295000Y-90770000D03*
X144835000Y-90770000D03*
X146105000Y-90770000D03*
D33*
X144835000Y-85305000D03*
X143565000Y-85305000D03*
D34*
X144200000Y-87410000D03*
D33*
X142295000Y-85305000D03*
X146105000Y-85305000D03*
D22*
X144400000Y-95100000D03*
X146300000Y-95100000D03*
D24*
X151585000Y-49345000D03*
X150315000Y-49345000D03*
X149045000Y-49345000D03*
X147775000Y-49345000D03*
X147775000Y-54295000D03*
X149045000Y-54295000D03*
X150315000Y-54295000D03*
X151585000Y-54295000D03*
D10*
X79199000Y-67958000D03*
X77649000Y-67958000D03*
D35*
X86068500Y-91971500D03*
X86068500Y-90696500D03*
X87343500Y-90696500D03*
X87343500Y-91971500D03*
D36*
X89306000Y-87896500D03*
X88906000Y-87896500D03*
X88506000Y-87896500D03*
X88106000Y-87896500D03*
X87706000Y-87896500D03*
X87306000Y-87896500D03*
X86906000Y-87896500D03*
X86506000Y-87896500D03*
X86106000Y-87896500D03*
X85706000Y-87896500D03*
X85306000Y-87896500D03*
X84906000Y-87896500D03*
X84506000Y-87896500D03*
X84106000Y-87896500D03*
D37*
X83268500Y-88734000D03*
X83268500Y-89134000D03*
X83268500Y-89534000D03*
X83268500Y-89934000D03*
X83268500Y-90334000D03*
X83268500Y-90734000D03*
X83268500Y-91134000D03*
X83268500Y-91534000D03*
X83268500Y-91934000D03*
X83268500Y-92334000D03*
X83268500Y-92734000D03*
X83268500Y-93134000D03*
X83268500Y-93534000D03*
X83268500Y-93934000D03*
D36*
X84106000Y-94771500D03*
X84506000Y-94771500D03*
X84906000Y-94771500D03*
X85306000Y-94771500D03*
X85706000Y-94771500D03*
X86106000Y-94771500D03*
X86506000Y-94771500D03*
X86906000Y-94771500D03*
X87306000Y-94771500D03*
X87706000Y-94771500D03*
X88106000Y-94771500D03*
X88506000Y-94771500D03*
X88906000Y-94771500D03*
X89306000Y-94771500D03*
D37*
X90143500Y-93934000D03*
X90143500Y-93534000D03*
X90143500Y-93134000D03*
X90143500Y-92734000D03*
X90143500Y-92334000D03*
X90143500Y-91934000D03*
X90143500Y-91534000D03*
X90143500Y-91134000D03*
X90143500Y-90734000D03*
X90143500Y-90334000D03*
X90143500Y-89934000D03*
X90143500Y-89534000D03*
X90143500Y-89134000D03*
X90143500Y-88734000D03*
D38*
X112862500Y-99600000D03*
X114737500Y-99600000D03*
D15*
X79425000Y-41700000D03*
X77775000Y-41700000D03*
D11*
X116970000Y-51825900D03*
X116970000Y-53375900D03*
D39*
X150300000Y-46600000D03*
X147000000Y-46600000D03*
D40*
X63486000Y-59750000D03*
X63486000Y-61650000D03*
D15*
X79425000Y-43390000D03*
X77775000Y-43390000D03*
D29*
X67449000Y-106694000D03*
X69099000Y-106694000D03*
D32*
X142865000Y-45649500D03*
X141595000Y-45649500D03*
X144135000Y-45649500D03*
X145405000Y-45649500D03*
D33*
X144135000Y-40184500D03*
X141595000Y-40184500D03*
X145405000Y-40184500D03*
X142865000Y-40184500D03*
D34*
X143500000Y-42289500D03*
D27*
X107269000Y-66990000D03*
X107269000Y-68640000D03*
X107179000Y-48410000D03*
X107179000Y-50060000D03*
D25*
X158725000Y-84869000D03*
X158725000Y-81569000D03*
D17*
X77846000Y-101039000D03*
X77846000Y-99389000D03*
D41*
X97395000Y-48400000D03*
X101395000Y-48400000D03*
D22*
X112130900Y-65600000D03*
X114030900Y-65600000D03*
D38*
X109477500Y-99600000D03*
X111352500Y-99600000D03*
D42*
X114334100Y-80655000D03*
X114334100Y-79385000D03*
X114334100Y-78115000D03*
X114334100Y-76845000D03*
X109384100Y-76845000D03*
X109384100Y-78115000D03*
X109384100Y-79385000D03*
X109384100Y-80655000D03*
D27*
X84574000Y-100092000D03*
X84574000Y-101742000D03*
D26*
X127360000Y-52120000D03*
X120860000Y-52120000D03*
D40*
X85610000Y-39945000D03*
X85610000Y-41845000D03*
D27*
X107179000Y-71590000D03*
X107179000Y-73240000D03*
D43*
X94725000Y-50300000D03*
X91775000Y-50300000D03*
D17*
X84788000Y-64115000D03*
X84788000Y-62465000D03*
D44*
X105410000Y-58145000D03*
X105410000Y-60245000D03*
D25*
X117150000Y-91850000D03*
X117150000Y-88550000D03*
D27*
X155700000Y-104475000D03*
X155700000Y-106125000D03*
D32*
X142045000Y-54340000D03*
X144585000Y-54340000D03*
X143315000Y-54340000D03*
X145855000Y-54340000D03*
D34*
X143950000Y-50980000D03*
D33*
X143315000Y-48875000D03*
X142045000Y-48875000D03*
X145855000Y-48875000D03*
X144585000Y-48875000D03*
D45*
X90105000Y-44545000D03*
X90105000Y-40695000D03*
D10*
X102817000Y-113297000D03*
X101267000Y-113297000D03*
D17*
X84630000Y-48420000D03*
X84630000Y-46770000D03*
D46*
X114000000Y-94950000D03*
X114000000Y-95600000D03*
X114000000Y-96250000D03*
X115900000Y-96250000D03*
X115900000Y-94950000D03*
D12*
X153375000Y-83150000D03*
X154925000Y-83150000D03*
D44*
X105410000Y-44820000D03*
X105410000Y-46920000D03*
D29*
X152835000Y-74900000D03*
X154485000Y-74900000D03*
D10*
X80251000Y-92174000D03*
X78701000Y-92174000D03*
D29*
X152885000Y-66240000D03*
X154535000Y-66240000D03*
D15*
X111425000Y-101350000D03*
X109775000Y-101350000D03*
D39*
X103270000Y-54800000D03*
X99970000Y-54800000D03*
D47*
X139280000Y-49685000D03*
X139280000Y-50955000D03*
X139280000Y-52225000D03*
X139280000Y-48415000D03*
D48*
X133815000Y-50955000D03*
X133815000Y-49685000D03*
D49*
X135920000Y-50320000D03*
D48*
X133815000Y-52225000D03*
X133815000Y-48415000D03*
D17*
X89534000Y-101672000D03*
X89534000Y-100022000D03*
D47*
X139530000Y-58165000D03*
X139530000Y-60705000D03*
X139530000Y-59435000D03*
X139530000Y-56895000D03*
D49*
X136170000Y-58800000D03*
D48*
X134065000Y-59435000D03*
X134065000Y-60705000D03*
X134065000Y-56895000D03*
X134065000Y-58165000D03*
D42*
X114284100Y-50025000D03*
X114284100Y-48755000D03*
X114284100Y-47485000D03*
X114284100Y-46215000D03*
X109334100Y-46215000D03*
X109334100Y-47485000D03*
X109334100Y-48755000D03*
X109334100Y-50025000D03*
D27*
X107169000Y-45210000D03*
X107169000Y-46860000D03*
D11*
X77166000Y-92409000D03*
X77166000Y-93959000D03*
D50*
X113850000Y-42950000D03*
X115350000Y-42950000D03*
X115350000Y-40250000D03*
X113850000Y-40250000D03*
D27*
X107319000Y-52315000D03*
X107319000Y-53965000D03*
D22*
X67054000Y-46851000D03*
X68954000Y-46851000D03*
D32*
X144385000Y-62570000D03*
X143115000Y-62570000D03*
X141845000Y-62570000D03*
X145655000Y-62570000D03*
D33*
X144385000Y-57105000D03*
X141845000Y-57105000D03*
X143115000Y-57105000D03*
X145655000Y-57105000D03*
D34*
X143750000Y-59210000D03*
D51*
X139600000Y-94900000D03*
X139600000Y-96800000D03*
X141700000Y-95850000D03*
D10*
X83139000Y-66408000D03*
X81589000Y-66408000D03*
D52*
X111159100Y-51900000D03*
X109259100Y-51900000D03*
D11*
X92600000Y-54975000D03*
X92600000Y-56525000D03*
D42*
X114544100Y-63395000D03*
X114544100Y-62125000D03*
X114544100Y-60855000D03*
X114544100Y-59585000D03*
X109594100Y-59585000D03*
X109594100Y-60855000D03*
X109594100Y-62125000D03*
X109594100Y-63395000D03*
D29*
X153125000Y-55810000D03*
X154775000Y-55810000D03*
D12*
X67305000Y-60002000D03*
X68855000Y-60002000D03*
X152925000Y-63250000D03*
X154475000Y-63250000D03*
D10*
X157675000Y-65900000D03*
X156125000Y-65900000D03*
D53*
X96765000Y-97045000D03*
X96765000Y-98315000D03*
X96765000Y-99585000D03*
X96765000Y-100855000D03*
X107415000Y-100855000D03*
X107415000Y-99585000D03*
X107415000Y-98315000D03*
X107415000Y-97045000D03*
D42*
X114344100Y-88125000D03*
X114344100Y-86855000D03*
X114344100Y-85585000D03*
X114344100Y-84315000D03*
X109394100Y-84315000D03*
X109394100Y-85585000D03*
X109394100Y-86855000D03*
X109394100Y-88125000D03*
D29*
X99537000Y-51000000D03*
X101187000Y-51000000D03*
D31*
X136225000Y-54350000D03*
X139175000Y-54350000D03*
D42*
X114534100Y-57775000D03*
X114534100Y-56505000D03*
X114534100Y-55235000D03*
X114534100Y-53965000D03*
X109584100Y-53965000D03*
X109584100Y-55235000D03*
X109584100Y-56505000D03*
X109584100Y-57775000D03*
D27*
X107221000Y-79805000D03*
X107221000Y-81455000D03*
D44*
X105410000Y-54820000D03*
X105410000Y-56920000D03*
D40*
X65500000Y-59750000D03*
X65500000Y-61650000D03*
D29*
X96533900Y-51000000D03*
X98183900Y-51000000D03*
D54*
X75306000Y-91904000D03*
X75306000Y-89704000D03*
X73606000Y-89704000D03*
X73606000Y-91904000D03*
D55*
X89770000Y-105900000D03*
X89770000Y-103360000D03*
X83470000Y-103360000D03*
X83470000Y-105900000D03*
D32*
X143315000Y-82070000D03*
X144585000Y-82070000D03*
X142045000Y-82070000D03*
X145855000Y-82070000D03*
D33*
X144585000Y-76605000D03*
X145855000Y-76605000D03*
X142045000Y-76605000D03*
D34*
X143950000Y-78710000D03*
D33*
X143315000Y-76605000D03*
D26*
X127360000Y-79100000D03*
X120860000Y-79100000D03*
D39*
X156279000Y-75765000D03*
X159579000Y-75765000D03*
X159540000Y-73425000D03*
X156240000Y-73425000D03*
D31*
X136425000Y-83300000D03*
X139375000Y-83300000D03*
D27*
X107119000Y-75295000D03*
X107119000Y-76945000D03*
D22*
X112040900Y-82480000D03*
X113940900Y-82480000D03*
D11*
X93186000Y-96399000D03*
X93186000Y-97949000D03*
D27*
X107300000Y-58470000D03*
X107300000Y-60120000D03*
D47*
X139280000Y-44125000D03*
X139280000Y-41585000D03*
X139280000Y-42855000D03*
X139280000Y-40315000D03*
D48*
X133815000Y-42855000D03*
D49*
X135920000Y-42220000D03*
D48*
X133815000Y-44125000D03*
X133815000Y-41585000D03*
X133815000Y-40315000D03*
D44*
X105410000Y-63020000D03*
X105410000Y-65120000D03*
D11*
X84926000Y-97125000D03*
X84926000Y-98675000D03*
D44*
X105410000Y-51470000D03*
X105410000Y-53570000D03*
X105210000Y-66800000D03*
X105210000Y-68900000D03*
D25*
X159095000Y-54769000D03*
X159095000Y-51469000D03*
D15*
X72025000Y-85090000D03*
X70375000Y-85090000D03*
X102969000Y-78778000D03*
X101319000Y-78778000D03*
D42*
X114384100Y-72205000D03*
X114384100Y-70935000D03*
X114384100Y-69665000D03*
X114384100Y-68395000D03*
X109434100Y-68395000D03*
X109434100Y-69665000D03*
X109434100Y-70935000D03*
X109434100Y-72205000D03*
D56*
X148700800Y-64874000D03*
X148700800Y-65824000D03*
X148700800Y-66774000D03*
X150975800Y-66774000D03*
X150975800Y-65824000D03*
X150975800Y-64874000D03*
D17*
X87782000Y-101725000D03*
X87782000Y-100075000D03*
D47*
X139280000Y-79535000D03*
X139280000Y-80805000D03*
X139280000Y-78265000D03*
X139280000Y-76995000D03*
D48*
X133815000Y-79535000D03*
X133815000Y-76995000D03*
D49*
X135920000Y-78900000D03*
D48*
X133815000Y-78265000D03*
X133815000Y-80805000D03*
D57*
X90250000Y-64650000D03*
X92450000Y-64650000D03*
X92450000Y-62950000D03*
X90250000Y-62950000D03*
D12*
X91571000Y-86122000D03*
X93121000Y-86122000D03*
D46*
X117300000Y-94950000D03*
X117300000Y-95600000D03*
X117300000Y-96250000D03*
X119200000Y-96250000D03*
X119200000Y-94950000D03*
D16*
X159390000Y-79555000D03*
X159390000Y-78005000D03*
D27*
X107000000Y-86600000D03*
X107000000Y-88250000D03*
D26*
X127360000Y-70100000D03*
X120860000Y-70100000D03*
D58*
X84300000Y-108230000D03*
X85100000Y-108230000D03*
X86400000Y-108230000D03*
X87400000Y-108230000D03*
X87900000Y-108230000D03*
X88900000Y-108230000D03*
X90200000Y-108230000D03*
X91000000Y-108230000D03*
X90700000Y-108230000D03*
X89900000Y-108230000D03*
X89400000Y-108230000D03*
X88400000Y-108230000D03*
X86900000Y-108230000D03*
X85900000Y-108230000D03*
X85400000Y-108230000D03*
X84600000Y-108230000D03*
D44*
X105410000Y-48070000D03*
X105410000Y-50170000D03*
D59*
X79550000Y-72600000D03*
D24*
X151285000Y-68845000D03*
X150015000Y-68845000D03*
X148745000Y-68845000D03*
X147475000Y-68845000D03*
X147475000Y-73795000D03*
X148745000Y-73795000D03*
X150015000Y-73795000D03*
X151285000Y-73795000D03*
D29*
X154695000Y-94770000D03*
X156345000Y-94770000D03*
D15*
X79285000Y-66350000D03*
X77635000Y-66350000D03*
D24*
X151285000Y-57895000D03*
X150015000Y-57895000D03*
X148745000Y-57895000D03*
X147475000Y-57895000D03*
X147475000Y-62845000D03*
X148745000Y-62845000D03*
X150015000Y-62845000D03*
X151285000Y-62845000D03*
D50*
X110450000Y-42950000D03*
X111950000Y-42950000D03*
X111950000Y-40250000D03*
X110450000Y-40250000D03*
D12*
X122475000Y-95200000D03*
X124025000Y-95200000D03*
D27*
X107200000Y-63270000D03*
X107200000Y-64920000D03*
D60*
X104965000Y-103106000D03*
X104965000Y-104376000D03*
X104965000Y-105646000D03*
X104965000Y-106916000D03*
X104965000Y-108186000D03*
X104965000Y-109456000D03*
X104965000Y-110726000D03*
X104965000Y-111996000D03*
X104965000Y-113266000D03*
X114265000Y-113266000D03*
X114265000Y-111996000D03*
X114265000Y-110726000D03*
X114265000Y-109456000D03*
X114265000Y-108186000D03*
X114265000Y-106916000D03*
X114265000Y-105646000D03*
X114265000Y-104376000D03*
X114265000Y-103106000D03*
D25*
X117250000Y-58220000D03*
X117250000Y-54920000D03*
D47*
X139280000Y-86915000D03*
X139280000Y-89455000D03*
X139280000Y-88185000D03*
X139280000Y-85645000D03*
D48*
X133815000Y-85645000D03*
X133815000Y-88185000D03*
X133815000Y-89455000D03*
X133815000Y-86915000D03*
D49*
X135920000Y-87550000D03*
D51*
X135880000Y-94895000D03*
X135880000Y-96795000D03*
X137980000Y-95845000D03*
D25*
X159095000Y-56260000D03*
X159095000Y-59560000D03*
D17*
X64039000Y-106158000D03*
X64039000Y-104508000D03*
D39*
X156619000Y-89815000D03*
X153319000Y-89815000D03*
D11*
X83294000Y-97125000D03*
X83294000Y-98675000D03*
D31*
X136425000Y-74350000D03*
X139375000Y-74350000D03*
D11*
X116670000Y-84905900D03*
X116670000Y-86455900D03*
X156640000Y-83385000D03*
X156640000Y-84935000D03*
X116870000Y-59875900D03*
X116870000Y-61425900D03*
D61*
X102043000Y-69749000D03*
X102043000Y-77149000D03*
D17*
X86222000Y-101725000D03*
X86222000Y-100075000D03*
D39*
X155040000Y-46600000D03*
X151740000Y-46600000D03*
D62*
X146320000Y-64575000D03*
X147280000Y-64575000D03*
D12*
X152875000Y-73360000D03*
X154425000Y-73360000D03*
X101302000Y-107388000D03*
X102852000Y-107388000D03*
D25*
X159095000Y-49879000D03*
X159095000Y-46579000D03*
X158800000Y-67760000D03*
X158800000Y-71060000D03*
D63*
X98450000Y-52800000D03*
X96350000Y-52800000D03*
D16*
X94260000Y-56525000D03*
X94260000Y-54975000D03*
D44*
X105210000Y-82975000D03*
X105210000Y-85075000D03*
D39*
X153321000Y-87185000D03*
X156621000Y-87185000D03*
D11*
X91426000Y-96399000D03*
X91426000Y-97949000D03*
D64*
X65805000Y-106102500D03*
X65805000Y-104527500D03*
D32*
X141945000Y-73460500D03*
X144485000Y-73460500D03*
X143215000Y-73460500D03*
X145755000Y-73460500D03*
D33*
X141945000Y-67995500D03*
X144485000Y-67995500D03*
D34*
X143850000Y-70100500D03*
D33*
X145755000Y-67995500D03*
X143215000Y-67995500D03*
D47*
X139280000Y-70785000D03*
X139280000Y-72055000D03*
X139280000Y-69515000D03*
X139280000Y-68245000D03*
D48*
X133815000Y-72055000D03*
D49*
X135920000Y-70150000D03*
D48*
X133815000Y-68245000D03*
X133815000Y-70785000D03*
X133815000Y-69515000D03*
D13*
X97636000Y-85002000D03*
X96616000Y-85002000D03*
D12*
X94291000Y-90764000D03*
X95841000Y-90764000D03*
D27*
X80900000Y-39975000D03*
X80900000Y-41625000D03*
D15*
X112625000Y-96500000D03*
X110975000Y-96500000D03*
D62*
X148470000Y-56030000D03*
X149430000Y-56030000D03*
D10*
X79375000Y-44988000D03*
X77825000Y-44988000D03*
D50*
X107050000Y-42950000D03*
X108550000Y-42950000D03*
X108550000Y-40250000D03*
X107050000Y-40250000D03*
D62*
X148750000Y-84650000D03*
X149710000Y-84650000D03*
D24*
X151535000Y-77945000D03*
X150265000Y-77945000D03*
X148995000Y-77945000D03*
X147725000Y-77945000D03*
X147725000Y-82895000D03*
X148995000Y-82895000D03*
X150265000Y-82895000D03*
X151535000Y-82895000D03*
D65*
X90765800Y-56574000D03*
X90765800Y-55624000D03*
X90765800Y-54674000D03*
X88490800Y-54674000D03*
X88490800Y-55624000D03*
X88490800Y-56574000D03*
D16*
X97462000Y-83529000D03*
X97462000Y-81979000D03*
D11*
X156360000Y-54225000D03*
X156360000Y-55775000D03*
D15*
X72075000Y-77360000D03*
X70425000Y-77360000D03*
D12*
X94301000Y-92254000D03*
X95851000Y-92254000D03*
D44*
X105210000Y-74950000D03*
X105210000Y-77050000D03*
X105210000Y-71350000D03*
X105210000Y-73450000D03*
D27*
X107321000Y-55425000D03*
X107321000Y-57075000D03*
D40*
X114770000Y-89730900D03*
X114770000Y-91630900D03*
D54*
X102729000Y-111424000D03*
X102729000Y-109224000D03*
X101029000Y-109224000D03*
X101029000Y-111424000D03*
D25*
X117050000Y-83300000D03*
X117050000Y-80000000D03*
D15*
X83225000Y-64800000D03*
X81575000Y-64800000D03*
D11*
X116770000Y-76705900D03*
X116770000Y-78255900D03*
D29*
X67255000Y-61590000D03*
X68905000Y-61590000D03*
D26*
X127360000Y-61070000D03*
X120860000Y-61070000D03*
D44*
X105210000Y-86250000D03*
X105210000Y-88350000D03*
D10*
X147015000Y-65840000D03*
X145465000Y-65840000D03*
D62*
X147500000Y-75580000D03*
X148460000Y-75580000D03*
D10*
X79375000Y-40037000D03*
X77825000Y-40037000D03*
D66*
X83280000Y-42967500D03*
X83280000Y-40042500D03*
D10*
X80341000Y-93874000D03*
X78791000Y-93874000D03*
D12*
X73581000Y-87484000D03*
X75131000Y-87484000D03*
X92851000Y-94274000D03*
X94401000Y-94274000D03*
X153175000Y-54250000D03*
X154725000Y-54250000D03*
D44*
X105210000Y-79500000D03*
X105210000Y-81600000D03*
D31*
X136175000Y-63250000D03*
X139125000Y-63250000D03*
D22*
X113040900Y-51950000D03*
X114940900Y-51950000D03*
D25*
X117350000Y-66270000D03*
X117350000Y-62970000D03*
D12*
X113075000Y-101360000D03*
X114625000Y-101360000D03*
D52*
X93755000Y-47520000D03*
X91855000Y-47520000D03*
D17*
X120665000Y-96485000D03*
X120665000Y-94835000D03*
D39*
X155971000Y-63755000D03*
X159271000Y-63755000D03*
D16*
X80902000Y-44975000D03*
X80902000Y-43425000D03*
D67*
X103192000Y-80632000D03*
X101922000Y-80632000D03*
X100652000Y-80632000D03*
X99382000Y-80632000D03*
X99382000Y-87832000D03*
X100652000Y-87832000D03*
X101922000Y-87832000D03*
X103192000Y-87832000D03*
D29*
X79735000Y-103580000D03*
X81385000Y-103580000D03*
D17*
X85630000Y-44960000D03*
X85630000Y-43310000D03*
D68*
X67720000Y-53833000D03*
X64670000Y-57183000D03*
X64670000Y-53833000D03*
X67720000Y-57183000D03*
D69*
X68475000Y-49208000D03*
X63915000Y-49208000D03*
D11*
X116920000Y-68245900D03*
X116920000Y-69795900D03*
D27*
X86588000Y-62465000D03*
X86588000Y-64115000D03*
D12*
X82485000Y-44790000D03*
X84035000Y-44790000D03*
D58*
X71800000Y-108230000D03*
X72600000Y-108230000D03*
X73900000Y-108230000D03*
X74900000Y-108230000D03*
X75400000Y-108230000D03*
X76400000Y-108230000D03*
X77700000Y-108230000D03*
X78500000Y-108230000D03*
X78200000Y-108230000D03*
X77400000Y-108230000D03*
X76900000Y-108230000D03*
X75900000Y-108230000D03*
X74400000Y-108230000D03*
X73400000Y-108230000D03*
X72900000Y-108230000D03*
X72100000Y-108230000D03*
D15*
X79861000Y-90674000D03*
X78211000Y-90674000D03*
X140635000Y-65510000D03*
X138985000Y-65510000D03*
G36*
X73759191Y-60418907D02*
G01*
X73795155Y-60468407D01*
X73800000Y-60499000D01*
X73800000Y-61801000D01*
X73781093Y-61859191D01*
X73731593Y-61895155D01*
X73701000Y-61900000D01*
X71699000Y-61900000D01*
X71640809Y-61881093D01*
X71604845Y-61831593D01*
X71600000Y-61801000D01*
X71600000Y-60499000D01*
X71618907Y-60440809D01*
X71668407Y-60404845D01*
X71699000Y-60400000D01*
X73701000Y-60400000D01*
X73759191Y-60418907D01*
G37*
M02*
