G04 #@! TF.GenerationSoftware,KiCad,Pcbnew,6.0.2+dfsg-1*
G04 #@! TF.CreationDate,2022-12-09T23:48:52-08:00*
G04 #@! TF.ProjectId,RP2040_motor,52503230-3430-45f6-9d6f-746f722e6b69,REV1*
G04 #@! TF.SameCoordinates,Original*
G04 #@! TF.FileFunction,Copper,L4,Bot*
G04 #@! TF.FilePolarity,Positive*
%FSLAX46Y46*%
G04 Gerber Fmt 4.6, Leading zero omitted, Abs format (unit mm)*
G04 Created by KiCad (PCBNEW 6.0.2+dfsg-1) date 2022-12-09 23:48:52*
%MOMM*%
%LPD*%
G01*
G04 APERTURE LIST*
G04 Aperture macros list*
%AMRoundRect*
0 Rectangle with rounded corners*
0 $1 Rounding radius*
0 $2 $3 $4 $5 $6 $7 $8 $9 X,Y pos of 4 corners*
0 Add a 4 corners polygon primitive as box body*
4,1,4,$2,$3,$4,$5,$6,$7,$8,$9,$2,$3,0*
0 Add four circle primitives for the rounded corners*
1,1,$1+$1,$2,$3*
1,1,$1+$1,$4,$5*
1,1,$1+$1,$6,$7*
1,1,$1+$1,$8,$9*
0 Add four rect primitives between the rounded corners*
20,1,$1+$1,$2,$3,$4,$5,0*
20,1,$1+$1,$4,$5,$6,$7,0*
20,1,$1+$1,$6,$7,$8,$9,0*
20,1,$1+$1,$8,$9,$2,$3,0*%
G04 Aperture macros list end*
G04 #@! TA.AperFunction,ComponentPad*
%ADD10C,0.600000*%
G04 #@! TD*
G04 #@! TA.AperFunction,ComponentPad*
%ADD11C,3.900000*%
G04 #@! TD*
G04 #@! TA.AperFunction,ComponentPad*
%ADD12RoundRect,0.250000X0.845000X-0.620000X0.845000X0.620000X-0.845000X0.620000X-0.845000X-0.620000X0*%
G04 #@! TD*
G04 #@! TA.AperFunction,ComponentPad*
%ADD13O,2.190000X1.740000*%
G04 #@! TD*
G04 #@! TA.AperFunction,ComponentPad*
%ADD14C,5.300000*%
G04 #@! TD*
G04 #@! TA.AperFunction,ComponentPad*
%ADD15C,6.500000*%
G04 #@! TD*
G04 #@! TA.AperFunction,ComponentPad*
%ADD16RoundRect,0.250000X-0.845000X0.620000X-0.845000X-0.620000X0.845000X-0.620000X0.845000X0.620000X0*%
G04 #@! TD*
G04 #@! TA.AperFunction,ComponentPad*
%ADD17RoundRect,0.250000X0.620000X0.845000X-0.620000X0.845000X-0.620000X-0.845000X0.620000X-0.845000X0*%
G04 #@! TD*
G04 #@! TA.AperFunction,ComponentPad*
%ADD18O,1.740000X2.190000*%
G04 #@! TD*
G04 #@! TA.AperFunction,ComponentPad*
%ADD19R,1.500000X1.500000*%
G04 #@! TD*
G04 #@! TA.AperFunction,ComponentPad*
%ADD20C,1.500000*%
G04 #@! TD*
G04 #@! TA.AperFunction,ComponentPad*
%ADD21C,2.600000*%
G04 #@! TD*
G04 #@! TA.AperFunction,ComponentPad*
%ADD22R,1.700000X1.700000*%
G04 #@! TD*
G04 #@! TA.AperFunction,ComponentPad*
%ADD23O,1.700000X1.700000*%
G04 #@! TD*
G04 #@! TA.AperFunction,ComponentPad*
%ADD24O,1.000000X1.600000*%
G04 #@! TD*
G04 #@! TA.AperFunction,ComponentPad*
%ADD25O,1.000000X2.100000*%
G04 #@! TD*
G04 #@! TA.AperFunction,ViaPad*
%ADD26C,0.600000*%
G04 #@! TD*
G04 #@! TA.AperFunction,ViaPad*
%ADD27C,0.800000*%
G04 #@! TD*
G04 #@! TA.AperFunction,ViaPad*
%ADD28C,1.000000*%
G04 #@! TD*
G04 #@! TA.AperFunction,Conductor*
%ADD29C,0.300000*%
G04 #@! TD*
G04 #@! TA.AperFunction,Conductor*
%ADD30C,0.200000*%
G04 #@! TD*
G04 #@! TA.AperFunction,Conductor*
%ADD31C,0.600000*%
G04 #@! TD*
G04 #@! TA.AperFunction,Conductor*
%ADD32C,0.400000*%
G04 #@! TD*
G04 APERTURE END LIST*
D10*
X90790000Y-76150000D03*
X92065000Y-77425000D03*
X90790000Y-74875000D03*
X92065000Y-74875000D03*
X90790000Y-77425000D03*
X89515000Y-76150000D03*
X89515000Y-74875000D03*
X92065000Y-76150000D03*
X89515000Y-77425000D03*
X86706000Y-90059000D03*
X85431000Y-90059000D03*
X86706000Y-91334000D03*
X87981000Y-91334000D03*
X85431000Y-92609000D03*
X85431000Y-91334000D03*
X87981000Y-90059000D03*
X87981000Y-92609000D03*
X86706000Y-92609000D03*
D11*
X65700000Y-42450000D03*
D12*
X73200000Y-73350000D03*
D13*
X73200000Y-70810000D03*
X73200000Y-68270000D03*
D14*
X148950000Y-42250000D03*
D15*
X119750000Y-43900000D03*
D14*
X154850000Y-69750000D03*
D12*
X76450000Y-84610000D03*
D13*
X76450000Y-82070000D03*
X76450000Y-79530000D03*
X76450000Y-76990000D03*
D16*
X96475000Y-104747000D03*
D13*
X96475000Y-107287000D03*
X96475000Y-109827000D03*
X96475000Y-112367000D03*
D17*
X111482000Y-92302000D03*
D18*
X108942000Y-92302000D03*
X106402000Y-92302000D03*
X103862000Y-92302000D03*
X101322000Y-92302000D03*
X98782000Y-92302000D03*
D19*
X148650000Y-106300000D03*
D20*
X147630000Y-104520000D03*
X146610000Y-106300000D03*
X145590000Y-104520000D03*
X144570000Y-106300000D03*
X143550000Y-104520000D03*
X142530000Y-106300000D03*
X141510000Y-104520000D03*
D21*
X153210000Y-105280000D03*
X136950000Y-105280000D03*
D19*
X129050000Y-106300000D03*
D20*
X128030000Y-104520000D03*
X127010000Y-106300000D03*
X125990000Y-104520000D03*
X124970000Y-106300000D03*
X123950000Y-104520000D03*
X122930000Y-106300000D03*
X121910000Y-104520000D03*
D21*
X133610000Y-105280000D03*
X117350000Y-105280000D03*
D12*
X66000000Y-92840000D03*
D13*
X66000000Y-90300000D03*
X66000000Y-87760000D03*
D12*
X73200000Y-50950000D03*
D13*
X73200000Y-48410000D03*
X73200000Y-45870000D03*
X73200000Y-43330000D03*
X73200000Y-40790000D03*
D12*
X66000000Y-75500000D03*
D13*
X66000000Y-72960000D03*
X66000000Y-70420000D03*
X66000000Y-67880000D03*
X66000000Y-65340000D03*
D12*
X80332000Y-62136000D03*
D13*
X80332000Y-59596000D03*
X80332000Y-57056000D03*
X80332000Y-54516000D03*
X80332000Y-51976000D03*
X80332000Y-49436000D03*
D22*
X129100000Y-110500000D03*
D23*
X129100000Y-113040000D03*
X126560000Y-110500000D03*
X126560000Y-113040000D03*
X124020000Y-110500000D03*
X124020000Y-113040000D03*
X121480000Y-110500000D03*
X121480000Y-113040000D03*
D22*
X148800000Y-110400000D03*
D23*
X148800000Y-112940000D03*
X146260000Y-110400000D03*
X146260000Y-112940000D03*
X143720000Y-110400000D03*
X143720000Y-112940000D03*
X141180000Y-110400000D03*
X141180000Y-112940000D03*
D24*
X91970000Y-112975000D03*
D25*
X91970000Y-108795000D03*
D24*
X83330000Y-112975000D03*
D25*
X83330000Y-108795000D03*
D17*
X158800000Y-100323000D03*
D18*
X156260000Y-100323000D03*
D11*
X157350000Y-42450000D03*
D12*
X73200000Y-64700000D03*
D13*
X73200000Y-62160000D03*
X73200000Y-59620000D03*
X73200000Y-57080000D03*
X73200000Y-54540000D03*
D11*
X65700000Y-111100000D03*
D14*
X154900000Y-59500000D03*
D12*
X66000000Y-84200000D03*
D13*
X66000000Y-81660000D03*
X66000000Y-79120000D03*
D14*
X149750000Y-88800000D03*
X155150000Y-50600000D03*
D11*
X157350000Y-111100000D03*
D14*
X155150000Y-79450000D03*
D25*
X79470000Y-108795000D03*
X70830000Y-108795000D03*
D24*
X70830000Y-112975000D03*
X79470000Y-112975000D03*
D15*
X127500000Y-43900000D03*
D12*
X66000000Y-101500000D03*
D13*
X66000000Y-98960000D03*
X66000000Y-96420000D03*
D26*
X94700000Y-61900000D03*
X95100000Y-65900000D03*
X88100000Y-63900000D03*
D27*
X157500000Y-83400000D03*
D26*
X140650000Y-82150000D03*
X140950000Y-45650000D03*
D27*
X149714373Y-65644693D03*
D26*
X89000000Y-68250000D03*
X140200000Y-47150000D03*
D27*
X119050000Y-54620000D03*
D26*
X64100000Y-63000000D03*
X93900000Y-98650000D03*
X142150000Y-55400000D03*
X78150000Y-94650000D03*
D27*
X119050000Y-58320000D03*
D26*
X95400000Y-94650000D03*
D27*
X119000000Y-62900000D03*
D26*
X93400000Y-84900000D03*
X145400000Y-92400000D03*
X87500000Y-59200000D03*
D27*
X122450000Y-72350000D03*
X119050000Y-75050000D03*
X122550000Y-58320000D03*
D26*
X141700000Y-47150000D03*
X140200000Y-46400000D03*
D27*
X119050000Y-89950000D03*
D26*
X142900000Y-83650000D03*
X65200000Y-63000000D03*
X140900000Y-91650000D03*
X146650000Y-75150000D03*
D27*
X115800000Y-75950000D03*
X106550000Y-113200000D03*
D26*
X144700000Y-47150000D03*
X139900000Y-54650000D03*
X143150000Y-91650000D03*
D27*
X121500000Y-77750000D03*
D26*
X70400000Y-83950000D03*
D27*
X87100000Y-49350000D03*
D26*
X142150000Y-74400000D03*
X84150000Y-98900000D03*
D27*
X115000000Y-53300000D03*
X117950000Y-94550000D03*
X120050000Y-58320000D03*
D26*
X145900000Y-75150000D03*
X141400000Y-53900000D03*
X143950000Y-47150000D03*
X143650000Y-74400000D03*
X72506000Y-87334000D03*
X142900000Y-82900000D03*
X143650000Y-63900000D03*
X143650000Y-63150000D03*
D27*
X120050000Y-54620000D03*
X69400000Y-48000000D03*
D26*
X94400000Y-67200000D03*
X142450000Y-47150000D03*
D27*
X102150000Y-44900000D03*
D26*
X143150000Y-92400000D03*
X139450000Y-45650000D03*
X144400000Y-63150000D03*
D27*
X122500000Y-77750000D03*
X120000000Y-86600000D03*
X119050000Y-83500000D03*
D26*
X140650000Y-74400000D03*
X70000000Y-76700000D03*
X143200000Y-46400000D03*
X140950000Y-47150000D03*
X96150000Y-91400000D03*
D27*
X122550000Y-74050000D03*
D26*
X142400000Y-91650000D03*
D27*
X100200000Y-45900000D03*
D26*
X77900000Y-98150000D03*
D27*
X121550000Y-74050000D03*
D26*
X145150000Y-55400000D03*
X144400000Y-74400000D03*
X142150000Y-82900000D03*
D27*
X122550000Y-83500000D03*
D26*
X63100000Y-63000000D03*
X140650000Y-53900000D03*
D27*
X121550000Y-76750000D03*
X122550000Y-82500000D03*
X158600000Y-74600000D03*
D26*
X139900000Y-62400000D03*
X139900000Y-74400000D03*
D27*
X120050000Y-55620000D03*
D26*
X140650000Y-63900000D03*
X142150000Y-75150000D03*
X146650000Y-83650000D03*
X140150000Y-91650000D03*
D27*
X119900000Y-68500000D03*
D26*
X139900000Y-53900000D03*
X76650000Y-87650000D03*
D27*
X84300000Y-41400000D03*
X122550000Y-75050000D03*
X121450000Y-72350000D03*
D26*
X143650000Y-83650000D03*
D27*
X122550000Y-76750000D03*
D26*
X139900000Y-82900000D03*
D27*
X112250000Y-102350000D03*
X95100000Y-100300000D03*
X122500000Y-59320000D03*
D26*
X144650000Y-92400000D03*
D27*
X120050000Y-83500000D03*
D26*
X142150000Y-63150000D03*
D27*
X121550000Y-89950000D03*
X120050000Y-82500000D03*
X159500000Y-47600000D03*
X121550000Y-83500000D03*
X119050000Y-55620000D03*
X89300000Y-50350000D03*
D26*
X143650000Y-75150000D03*
X141400000Y-75150000D03*
D27*
X122400000Y-68500000D03*
X89300000Y-49350000D03*
D26*
X142450000Y-46400000D03*
X141400000Y-55400000D03*
X142900000Y-74400000D03*
X141400000Y-63900000D03*
D27*
X102150000Y-45900000D03*
X87100000Y-50350000D03*
D26*
X139900000Y-75150000D03*
X73300000Y-93800000D03*
D27*
X91350000Y-84400000D03*
X121500000Y-59320000D03*
X120000000Y-77750000D03*
D26*
X141650000Y-91650000D03*
X144400000Y-63900000D03*
X140950000Y-46400000D03*
X142900000Y-55400000D03*
X90500000Y-100500000D03*
D27*
X119000000Y-59320000D03*
D26*
X142150000Y-83650000D03*
D27*
X119050000Y-76750000D03*
D26*
X139400000Y-90900000D03*
D27*
X157400000Y-64500000D03*
X119000000Y-77750000D03*
X120050000Y-74050000D03*
X102350000Y-108100000D03*
X122550000Y-55620000D03*
D26*
X78300000Y-88150000D03*
D27*
X118950000Y-72350000D03*
D26*
X140200000Y-45650000D03*
X141400000Y-62400000D03*
D27*
X87000000Y-83100000D03*
X121500000Y-86600000D03*
D26*
X139900000Y-82150000D03*
D27*
X120050000Y-89950000D03*
X121550000Y-82500000D03*
D26*
X139900000Y-63900000D03*
X140650000Y-75150000D03*
X140150000Y-90900000D03*
D27*
X119050000Y-74050000D03*
X83850000Y-82100000D03*
D26*
X93700000Y-68350000D03*
X140900000Y-90900000D03*
D27*
X98600000Y-79700000D03*
X147500000Y-95050000D03*
X121550000Y-75050000D03*
D26*
X142150000Y-54650000D03*
D27*
X100200000Y-44900000D03*
X116000000Y-59500000D03*
X119050000Y-82500000D03*
X121400000Y-68500000D03*
D26*
X140650000Y-62400000D03*
X140650000Y-73650000D03*
D27*
X157500000Y-87300000D03*
D26*
X142150000Y-63900000D03*
X142900000Y-63150000D03*
X100050000Y-74700000D03*
X143650000Y-54650000D03*
D27*
X92700000Y-51050000D03*
D26*
X81899500Y-74844989D03*
X141400000Y-82150000D03*
X145900000Y-83650000D03*
X66850000Y-105950000D03*
X84700000Y-103900000D03*
D27*
X92650000Y-48850000D03*
X101200000Y-44900000D03*
X103299500Y-70000000D03*
X122550000Y-85600000D03*
D26*
X96150000Y-60900000D03*
D27*
X121500000Y-62900000D03*
D26*
X144400000Y-75150000D03*
X140650000Y-83650000D03*
D27*
X120050000Y-75050000D03*
D26*
X139450000Y-46400000D03*
X141400000Y-83650000D03*
X140900000Y-92400000D03*
D27*
X122500000Y-62900000D03*
X92700000Y-49900000D03*
D26*
X140650000Y-63150000D03*
X141400000Y-54650000D03*
X143950000Y-46400000D03*
X143200000Y-47150000D03*
D27*
X119950000Y-72350000D03*
D26*
X88150000Y-62650000D03*
D27*
X122550000Y-89950000D03*
X120000000Y-59320000D03*
X121550000Y-54620000D03*
X119050000Y-85600000D03*
X157800000Y-54500000D03*
X159500000Y-80400000D03*
D26*
X139900000Y-73650000D03*
D27*
X122400000Y-71400000D03*
X121400000Y-71400000D03*
X118900000Y-71400000D03*
X79000000Y-72100000D03*
X83850000Y-80350000D03*
D26*
X141700000Y-46400000D03*
X139450000Y-47150000D03*
X143900000Y-92400000D03*
D27*
X121550000Y-58320000D03*
X113600000Y-96900000D03*
D26*
X145150000Y-75150000D03*
X145100000Y-63900000D03*
X139400000Y-91650000D03*
D27*
X119000000Y-86600000D03*
D26*
X140150000Y-92400000D03*
D27*
X120000000Y-62900000D03*
D26*
X141400000Y-63150000D03*
X139900000Y-63150000D03*
X141400000Y-73650000D03*
X144400000Y-54650000D03*
D27*
X120050000Y-76750000D03*
X122500000Y-86600000D03*
X101200000Y-45900000D03*
D26*
X95400000Y-54300000D03*
X143650000Y-55400000D03*
D27*
X119900000Y-71400000D03*
X121550000Y-55620000D03*
X118900000Y-68500000D03*
D26*
X144400000Y-82900000D03*
X144400000Y-55400000D03*
X143650000Y-82900000D03*
X139900000Y-83650000D03*
X145150000Y-83650000D03*
D27*
X100300000Y-113300000D03*
D26*
X141650000Y-92400000D03*
X142900000Y-54650000D03*
X144400000Y-83650000D03*
X141400000Y-74400000D03*
X140650000Y-82900000D03*
X140650000Y-55400000D03*
X143900000Y-91650000D03*
X142900000Y-75150000D03*
X98600000Y-80900000D03*
X140650000Y-54650000D03*
X77100000Y-97150000D03*
D27*
X109600000Y-43400000D03*
D26*
X139400000Y-92400000D03*
D27*
X121550000Y-85600000D03*
D26*
X139900000Y-55400000D03*
X142900000Y-63900000D03*
D27*
X122550000Y-54620000D03*
X120050000Y-85600000D03*
D26*
X142400000Y-92400000D03*
X141400000Y-82900000D03*
X86000000Y-71700000D03*
D27*
X152200000Y-63149500D03*
X152350000Y-83150000D03*
X108600000Y-41500000D03*
X152178280Y-73968793D03*
X152300000Y-53700000D03*
X97000000Y-54000000D03*
X106300000Y-66100000D03*
D26*
X87100000Y-55200000D03*
D27*
X151950000Y-67200000D03*
D26*
X88400000Y-85650000D03*
D27*
X115900000Y-67299500D03*
D26*
X101400000Y-90400000D03*
X89556000Y-86824000D03*
X87000000Y-56300000D03*
X102200000Y-89900000D03*
D27*
X151800000Y-65800000D03*
X114300000Y-67100000D03*
D26*
X135950000Y-40720000D03*
X134840900Y-89530000D03*
X135200000Y-68350000D03*
X135700000Y-80650000D03*
X136700000Y-42970000D03*
X135950000Y-69850000D03*
X135950000Y-42220000D03*
X137090900Y-89530000D03*
X134950000Y-77650000D03*
D27*
X95100000Y-48450000D03*
D26*
X137450000Y-42970000D03*
X137090900Y-88780000D03*
X136462300Y-79900000D03*
X135700000Y-77650000D03*
D27*
X94400000Y-46750000D03*
D26*
X135590900Y-86530000D03*
X136700000Y-71350000D03*
X135200000Y-69100000D03*
D27*
X156500000Y-46000000D03*
D26*
X137200000Y-50570000D03*
X135090900Y-58250000D03*
X135950000Y-70600000D03*
X135590900Y-88780000D03*
X137450000Y-43720000D03*
X135200000Y-41470000D03*
X137200000Y-52070000D03*
X135700000Y-49820000D03*
X136462300Y-51320000D03*
X136450000Y-49820000D03*
X137200000Y-51320000D03*
D27*
X95200000Y-47400000D03*
D26*
X134950000Y-49070000D03*
X136450000Y-52070000D03*
X137450000Y-70600000D03*
X136450000Y-49070000D03*
X136462300Y-79150000D03*
X136590900Y-58250000D03*
X134950000Y-79150000D03*
X137340900Y-59750000D03*
X137450000Y-41470000D03*
X135200000Y-42970000D03*
X135840900Y-59000000D03*
X134950000Y-50570000D03*
X135200000Y-42220000D03*
X136340900Y-89530000D03*
D27*
X94900000Y-45850000D03*
D26*
X137340900Y-58250000D03*
X134950000Y-51320000D03*
X136450000Y-80650000D03*
X135950000Y-68350000D03*
X134950000Y-49820000D03*
X135700000Y-51320000D03*
X136700000Y-70600000D03*
X136682300Y-41470000D03*
X136462300Y-50570000D03*
X136590900Y-60500000D03*
X135090900Y-59750000D03*
X134840900Y-86530000D03*
X136590900Y-59000000D03*
X135950000Y-71350000D03*
X134950000Y-80650000D03*
X135700000Y-78400000D03*
X137090900Y-86530000D03*
X135200000Y-71350000D03*
X134840900Y-88780000D03*
X137450000Y-71350000D03*
D27*
X158800000Y-66800000D03*
D26*
X136590900Y-57500000D03*
X136450000Y-77650000D03*
X136700000Y-43720000D03*
X136682300Y-42220000D03*
X135200000Y-43720000D03*
X135950000Y-41470000D03*
X137450000Y-68350000D03*
X136450000Y-78400000D03*
X135700000Y-52070000D03*
X137340900Y-59000000D03*
X135840900Y-57500000D03*
X135200000Y-69850000D03*
X135840900Y-60500000D03*
X135590900Y-89530000D03*
X135200000Y-40720000D03*
X137200000Y-78400000D03*
D27*
X159500000Y-53000000D03*
D26*
X137450000Y-69850000D03*
X134950000Y-79900000D03*
X135090900Y-60500000D03*
X137340900Y-60500000D03*
X137340900Y-57500000D03*
X137200000Y-80650000D03*
D27*
X159300000Y-84200000D03*
D26*
X136340900Y-86530000D03*
X136340900Y-87280000D03*
X134840900Y-87280000D03*
X136340900Y-88030000D03*
X136340900Y-88780000D03*
X134950000Y-78400000D03*
X137200000Y-79150000D03*
X136700000Y-68350000D03*
X135700000Y-79150000D03*
X135200000Y-70600000D03*
X136682300Y-69850000D03*
X137450000Y-69100000D03*
X136700000Y-40720000D03*
X137200000Y-49070000D03*
X134840900Y-88030000D03*
X135090900Y-59000000D03*
X137090900Y-87280000D03*
X137450000Y-40720000D03*
X135840900Y-58250000D03*
X135950000Y-69100000D03*
X135700000Y-49070000D03*
X137450000Y-42220000D03*
X135840900Y-59750000D03*
X136682300Y-69100000D03*
X137200000Y-49820000D03*
X137200000Y-79900000D03*
D27*
X93950000Y-45900000D03*
D26*
X135090900Y-57500000D03*
X136590900Y-59750000D03*
X135700000Y-50570000D03*
X134950000Y-52070000D03*
X137200000Y-77650000D03*
X135950000Y-43720000D03*
X135590900Y-87280000D03*
X135590900Y-88030000D03*
X135950000Y-42970000D03*
X137090900Y-88030000D03*
X135700000Y-79900000D03*
X140680900Y-70811400D03*
X147650000Y-70900000D03*
D27*
X158400000Y-73300000D03*
D26*
X145380000Y-68969100D03*
X141430900Y-70811400D03*
X145380000Y-71219100D03*
X143880000Y-68969100D03*
X143130000Y-70469100D03*
X146150000Y-69400000D03*
X147650000Y-70150000D03*
X148400000Y-70150000D03*
X142380000Y-70469100D03*
X146900000Y-69400000D03*
X147650000Y-71650000D03*
X146900000Y-70900000D03*
X143130000Y-68969100D03*
X146900000Y-71650000D03*
X144630000Y-71219100D03*
X142380000Y-69719100D03*
X141430900Y-70061400D03*
X146900000Y-70150000D03*
X146150000Y-70150000D03*
X141430900Y-71561400D03*
D27*
X112400000Y-73600000D03*
D26*
X148400000Y-71650000D03*
X148400000Y-70900000D03*
X146150000Y-70900000D03*
X143880000Y-71219100D03*
X145380000Y-70469100D03*
X144630000Y-69719100D03*
X144630000Y-70469100D03*
X143880000Y-70469100D03*
X146150000Y-68650000D03*
X143880000Y-69719100D03*
X148150000Y-68150000D03*
X141430900Y-69311400D03*
X143130000Y-71219100D03*
X142380000Y-68969100D03*
X146150000Y-71650000D03*
X140680900Y-71561400D03*
X146900000Y-68650000D03*
X145380000Y-69719100D03*
X141430900Y-68561400D03*
X142380000Y-71219100D03*
X144630000Y-68969100D03*
X140680900Y-69311400D03*
X140680900Y-70061400D03*
X143130000Y-69719100D03*
X143930000Y-77319100D03*
X145430000Y-78069100D03*
X143180000Y-79569100D03*
X143930000Y-78069100D03*
X143180000Y-77319100D03*
X141430900Y-78411400D03*
X148349100Y-78150000D03*
X148349100Y-79650000D03*
X140680900Y-77661400D03*
X141430900Y-79161400D03*
X140680900Y-78411400D03*
X146849100Y-78150000D03*
X148349100Y-80400000D03*
D27*
X158400000Y-82100000D03*
D26*
X143930000Y-78819100D03*
X143180000Y-78819100D03*
X143180000Y-78069100D03*
X141430900Y-79911400D03*
X140680900Y-80661400D03*
X141430900Y-80661400D03*
X147599100Y-80400000D03*
X146849100Y-79650000D03*
X146850000Y-77000000D03*
X145430000Y-79569100D03*
X144680000Y-78069100D03*
X147599100Y-79650000D03*
X148349100Y-78900000D03*
X142430000Y-78069100D03*
X142430000Y-77319100D03*
X146849100Y-78900000D03*
X140680900Y-79161400D03*
X144680000Y-78819100D03*
D27*
X115500000Y-81500000D03*
D26*
X141430900Y-77661400D03*
X142430000Y-79569100D03*
X142430000Y-78819100D03*
X146849100Y-80400000D03*
X140680900Y-79911400D03*
X147599100Y-78900000D03*
X144680000Y-77319100D03*
X145430000Y-78819100D03*
X148400000Y-77150000D03*
X143930000Y-79569100D03*
X144680000Y-79569100D03*
X145430000Y-77319100D03*
X143530000Y-86219100D03*
X141380900Y-88811400D03*
X145780000Y-86219100D03*
X141380900Y-88061400D03*
X144280000Y-87719100D03*
X145030000Y-88469100D03*
X144280000Y-86219100D03*
X145780000Y-86969100D03*
X142780000Y-88469100D03*
X145780000Y-87719100D03*
D27*
X111972965Y-88445950D03*
D26*
X145030000Y-86969100D03*
X143530000Y-87719100D03*
X140630900Y-88811400D03*
X145780000Y-88469100D03*
X145030000Y-87719100D03*
X141380900Y-86561400D03*
X145030000Y-86219100D03*
X141380900Y-87311400D03*
X140630900Y-88061400D03*
X143530000Y-86969100D03*
X141380900Y-89561400D03*
X140630900Y-87311400D03*
X142780000Y-87719100D03*
X144280000Y-88469100D03*
X143530000Y-88469100D03*
X142780000Y-86219100D03*
X142780000Y-86969100D03*
X140630900Y-89561400D03*
X144280000Y-86969100D03*
X140630900Y-86561400D03*
D27*
X109809823Y-73640677D03*
D26*
X140500000Y-68100000D03*
D27*
X146300000Y-73500000D03*
X107300000Y-69700000D03*
X108900000Y-82300000D03*
X138400000Y-76400000D03*
X146500000Y-82100000D03*
X107000000Y-78500000D03*
X107800000Y-50600000D03*
X140100000Y-39700000D03*
D26*
X106400000Y-46200000D03*
D27*
X146100000Y-45100000D03*
X140500000Y-48400000D03*
X106500000Y-56400000D03*
X146600000Y-53800000D03*
X106300000Y-53400000D03*
X139900000Y-85400000D03*
X107819600Y-88000000D03*
X106199500Y-85200000D03*
X146600000Y-92450000D03*
X140600000Y-56800000D03*
X108133180Y-63941682D03*
X107500000Y-61370000D03*
X146400000Y-62800000D03*
D26*
X112000000Y-55400000D03*
D27*
X112800000Y-58900000D03*
D26*
X140640100Y-60140100D03*
X146900000Y-56650000D03*
X142900000Y-58650000D03*
X141390100Y-57890100D03*
X140640100Y-58640100D03*
X146140100Y-59140100D03*
X146140100Y-60640100D03*
X142150000Y-60150000D03*
X143650000Y-59400000D03*
X140640100Y-59390100D03*
X146890100Y-59540100D03*
X148390100Y-60290100D03*
X141390100Y-60890100D03*
X146140100Y-59890100D03*
X145150000Y-60900000D03*
X141390100Y-59390100D03*
X146890100Y-58790100D03*
X148390100Y-59540100D03*
X143650000Y-60150000D03*
X146140100Y-56890100D03*
X144400000Y-60150000D03*
X148390100Y-58790100D03*
X147640100Y-58790100D03*
X140640100Y-60890100D03*
X142150000Y-59400000D03*
X145150000Y-58650000D03*
X145150000Y-59400000D03*
X146890100Y-60290100D03*
X142150000Y-58650000D03*
X141390100Y-58640100D03*
X144400000Y-60900000D03*
X146140100Y-58390100D03*
X142150000Y-60900000D03*
X145150000Y-60150000D03*
X142900000Y-60900000D03*
X146140100Y-57640100D03*
X142900000Y-60150000D03*
X146890100Y-58040100D03*
D27*
X158600000Y-57800000D03*
D26*
X147640100Y-59540100D03*
X147640100Y-60290100D03*
X143650000Y-60900000D03*
X141390100Y-60140100D03*
X142900000Y-59400000D03*
X144400000Y-58650000D03*
X144400000Y-59400000D03*
X143650000Y-58650000D03*
D27*
X111600000Y-61800000D03*
D26*
X79100000Y-99900500D03*
X90300000Y-97324003D03*
X82400000Y-76200000D03*
D27*
X110200000Y-64294500D03*
D26*
X96300000Y-62750500D03*
D27*
X157300000Y-56000000D03*
D26*
X82085061Y-76934859D03*
D27*
X155200000Y-66000000D03*
X109500978Y-65044000D03*
D26*
X97000000Y-63400000D03*
X144250000Y-41769100D03*
X143500000Y-43269100D03*
X143500000Y-41019100D03*
X140980900Y-44131400D03*
X140230900Y-43631400D03*
X143500000Y-41769100D03*
X142000000Y-41769100D03*
X145000000Y-41769100D03*
X142750000Y-43269100D03*
X140230900Y-42131400D03*
X142000000Y-42519100D03*
X145000000Y-41019100D03*
X145000000Y-42519100D03*
X140980900Y-43381400D03*
X140980900Y-42631400D03*
X140980900Y-41881400D03*
X142750000Y-41019100D03*
X143500000Y-42519100D03*
X142750000Y-42519100D03*
X142750000Y-41769100D03*
X144250000Y-43269100D03*
D27*
X111900000Y-49000000D03*
D26*
X140230900Y-42881400D03*
X142000000Y-43269100D03*
X140230900Y-41381400D03*
X145000000Y-43269100D03*
X144250000Y-42519100D03*
X140980900Y-41131400D03*
X144250000Y-41019100D03*
X142000000Y-41019100D03*
X144680000Y-50939100D03*
X146900000Y-49450000D03*
X140680900Y-51531400D03*
D27*
X159400000Y-48900000D03*
D26*
X143930000Y-52439100D03*
X144680000Y-51689100D03*
X145430000Y-51689100D03*
X144680000Y-50189100D03*
X141430900Y-50031400D03*
X144680000Y-52439100D03*
X146900000Y-50200000D03*
X140680900Y-50031400D03*
X142430000Y-52439100D03*
X145430000Y-50939100D03*
X143930000Y-51689100D03*
X149150000Y-51700000D03*
X145430000Y-52439100D03*
X140680900Y-52281400D03*
X141430900Y-52281400D03*
X143180000Y-50939100D03*
X141430900Y-49281400D03*
X149150000Y-52450000D03*
X144650000Y-49350000D03*
X146900000Y-52450000D03*
X146900000Y-51700000D03*
X142430000Y-50939100D03*
X147650000Y-50950000D03*
X149150000Y-50950000D03*
X142430000Y-51689100D03*
X148400000Y-48400000D03*
X148400000Y-52450000D03*
X140680900Y-50781400D03*
X148400000Y-50950000D03*
X143900000Y-49350000D03*
X143930000Y-50939100D03*
X145400000Y-49350000D03*
X143180000Y-51689100D03*
X143180000Y-52439100D03*
X147650000Y-51700000D03*
D27*
X111400000Y-53550000D03*
D26*
X148400000Y-51700000D03*
X141430900Y-51531400D03*
X142400000Y-49350000D03*
X146900000Y-50950000D03*
X145430000Y-50189100D03*
X143930000Y-50189100D03*
X147650000Y-52450000D03*
X143150000Y-49350000D03*
X141430900Y-50781400D03*
X142430000Y-50189100D03*
X146900000Y-48400000D03*
X143180000Y-50189100D03*
X90300000Y-96524500D03*
X79100000Y-98900997D03*
D27*
X109900000Y-90149500D03*
D26*
X103100000Y-85900000D03*
D27*
X65600000Y-49400000D03*
D28*
X82800000Y-46500000D03*
D26*
X80650000Y-99400000D03*
D27*
X117500000Y-79100000D03*
X116500000Y-87400000D03*
X116210000Y-70800000D03*
D28*
X81800000Y-47100000D03*
D27*
X117400000Y-55900000D03*
D26*
X102400000Y-85900000D03*
D27*
X65600000Y-48200000D03*
D26*
X81150000Y-99900000D03*
X100350000Y-54000000D03*
D27*
X157852424Y-75529735D03*
D26*
X82508229Y-77613191D03*
D27*
X111822320Y-67850500D03*
D26*
X96600000Y-64300000D03*
X75637000Y-96450000D03*
X89660000Y-82000000D03*
X84750000Y-61000000D03*
X86200000Y-76150500D03*
X86200000Y-61600000D03*
X85099989Y-76550500D03*
X96800000Y-65300000D03*
D27*
X155800000Y-84400000D03*
X106199500Y-72599500D03*
D26*
X83007205Y-78399500D03*
D27*
X107050000Y-41050000D03*
X111950000Y-42150000D03*
D26*
X98000000Y-69400000D03*
X93950000Y-79650000D03*
X99623911Y-70723911D03*
X94350000Y-80900000D03*
X101000000Y-66500000D03*
X95100000Y-81500000D03*
X95319640Y-82268741D03*
X101900000Y-62100000D03*
X95190551Y-83057753D03*
X101900000Y-59200000D03*
X94000000Y-83300000D03*
X100500000Y-62000000D03*
X104000000Y-84100000D03*
X98600000Y-77300000D03*
X97800000Y-76700000D03*
X109740734Y-82759266D03*
X113400000Y-61900000D03*
X95600000Y-72850000D03*
X112800000Y-60600000D03*
X94850000Y-72400000D03*
X97100000Y-76150500D03*
X107810188Y-77707217D03*
X108900000Y-75100000D03*
X97600000Y-75500500D03*
X95350000Y-71400000D03*
D27*
X111400000Y-58500000D03*
D26*
X111700000Y-57650000D03*
X94650000Y-70950000D03*
X96300000Y-74400000D03*
X111884266Y-71715734D03*
X96250000Y-73500000D03*
X111500000Y-70000000D03*
X99300000Y-56200000D03*
X95000000Y-68350000D03*
X95550000Y-68950000D03*
X104300000Y-57400000D03*
D27*
X109700000Y-40900000D03*
X115300000Y-42100000D03*
D26*
X74787000Y-96450000D03*
X89050000Y-81400000D03*
D27*
X88100000Y-57500000D03*
D26*
X86300000Y-84000000D03*
X89158475Y-85902825D03*
D27*
X113229977Y-67229977D03*
D26*
X102100000Y-84900000D03*
D27*
X151850000Y-64550000D03*
D26*
X96600000Y-55600000D03*
X79100000Y-87100000D03*
X105400000Y-42000000D03*
D27*
X88300000Y-42300000D03*
X85400000Y-50650000D03*
D26*
X103000000Y-82500000D03*
X97000000Y-85900000D03*
X87325000Y-99000000D03*
X92900521Y-92499479D03*
X86475000Y-99000000D03*
X92299479Y-93100521D03*
D27*
X112800000Y-104400000D03*
X119550000Y-97650000D03*
X122100000Y-97850000D03*
D26*
X91350000Y-105950000D03*
X76300000Y-95400000D03*
X81700000Y-105100000D03*
X81851089Y-88698911D03*
X101800000Y-82000000D03*
X99300000Y-84200000D03*
D27*
X114924502Y-96200000D03*
X106850000Y-103150000D03*
X105800000Y-100800000D03*
D26*
X91600000Y-103700000D03*
D27*
X154250000Y-107600000D03*
X121700000Y-95700000D03*
X136950000Y-97050000D03*
X105150000Y-97900000D03*
X139100000Y-106150000D03*
X153450000Y-94850000D03*
X137000000Y-94900000D03*
X105850000Y-99200000D03*
X139450000Y-103050000D03*
X159200000Y-96600000D03*
D26*
X86279329Y-84827151D03*
X85578689Y-84344841D03*
X89837209Y-98020004D03*
X89418656Y-97338816D03*
X95400000Y-79150000D03*
X81716411Y-87816411D03*
X82316411Y-87216411D03*
X95701089Y-77998911D03*
X87505465Y-84500000D03*
D27*
X130550000Y-100250000D03*
X125150000Y-95699500D03*
X106050000Y-96850000D03*
X131250000Y-103300000D03*
X132450000Y-99500000D03*
X143100000Y-99700000D03*
X140750000Y-98549011D03*
X140700000Y-94900000D03*
X116614179Y-96928759D03*
X100050000Y-105300000D03*
X100050000Y-99950000D03*
X107500000Y-104250000D03*
D26*
X86350000Y-70050000D03*
X86100000Y-70900000D03*
X81001985Y-94702635D03*
D27*
X89450000Y-104550000D03*
X90750000Y-101700000D03*
D26*
X81966709Y-94379051D03*
D27*
X92150000Y-99400000D03*
X93350000Y-99450000D03*
D26*
X150150000Y-60350000D03*
X150150000Y-58850000D03*
X150150000Y-59600000D03*
X150900000Y-58850000D03*
X152650000Y-57150000D03*
X151650000Y-58850000D03*
X151900000Y-56900000D03*
X150900000Y-59600000D03*
X151650000Y-59600000D03*
X150900000Y-60350000D03*
X151650000Y-60350000D03*
X151900000Y-57650000D03*
X151900000Y-48150000D03*
X150400000Y-48150000D03*
X151150000Y-52400000D03*
X151900000Y-50900000D03*
X151900000Y-52400000D03*
X151150000Y-51650000D03*
X152650000Y-48150000D03*
X150400000Y-50900000D03*
X151900000Y-51650000D03*
X151150000Y-50900000D03*
X150400000Y-52400000D03*
X150400000Y-51650000D03*
X151150000Y-48150000D03*
X151650000Y-72150000D03*
X151650000Y-70650000D03*
X150900000Y-72150000D03*
X150650000Y-68300000D03*
X150150000Y-72150000D03*
X151650000Y-71400000D03*
X150650000Y-69350000D03*
X150150000Y-71400000D03*
X150900000Y-70650000D03*
X150900000Y-71400000D03*
X150150000Y-70650000D03*
X151150000Y-76650000D03*
X150400000Y-80650000D03*
X152400000Y-77400000D03*
X150400000Y-76650000D03*
X152650000Y-76650000D03*
X150400000Y-79900000D03*
X151900000Y-76650000D03*
X153400000Y-76650000D03*
X151150000Y-80650000D03*
X150400000Y-79150000D03*
X151150000Y-79150000D03*
X151150000Y-79900000D03*
X151900000Y-79150000D03*
X151900000Y-80650000D03*
X151900000Y-79900000D03*
X85900000Y-73000000D03*
X85485108Y-75792543D03*
X87400000Y-72500000D03*
X76700000Y-44900000D03*
X88447034Y-73610213D03*
X81100000Y-42500000D03*
X83400000Y-95000000D03*
X70900000Y-75400000D03*
X82834666Y-95565334D03*
X69400000Y-71400000D03*
X86306500Y-95708500D03*
X81521989Y-85421989D03*
D27*
X110050000Y-110400000D03*
D26*
X80871989Y-86071989D03*
D27*
X109950000Y-109150000D03*
X112400000Y-107100000D03*
D26*
X82600000Y-84100000D03*
D27*
X108650000Y-111900000D03*
D26*
X82169974Y-84774004D03*
X87505500Y-86900000D03*
D27*
X112000000Y-110700000D03*
D26*
X97100000Y-77950000D03*
D29*
X156431207Y-73968793D02*
X152178280Y-73968793D01*
X152200000Y-63149500D02*
X158850500Y-63149500D01*
X159600000Y-54800000D02*
X158500000Y-53700000D01*
X159600000Y-61500000D02*
X159600000Y-54800000D01*
X158850500Y-63149500D02*
X159600000Y-62400000D01*
X159600000Y-62400000D02*
X159600000Y-61500000D01*
X159600000Y-70800000D02*
X156900000Y-73500000D01*
X159600000Y-61500000D02*
X159600000Y-70800000D01*
X158500000Y-53700000D02*
X152300000Y-53700000D01*
X156900000Y-73500000D02*
X156431207Y-73968793D01*
D30*
X101400000Y-90400000D02*
X101600000Y-90600000D01*
X106300000Y-90600000D02*
X109100000Y-87800000D01*
X112349511Y-54249511D02*
X114699520Y-56599520D01*
X109100000Y-87800000D02*
X109750000Y-87800000D01*
X101600000Y-90600000D02*
X106300000Y-90600000D01*
X87100000Y-55200000D02*
X87800000Y-54500000D01*
X87800000Y-54500000D02*
X88400000Y-54500000D01*
X109750000Y-87800000D02*
X114700000Y-82850000D01*
X114699520Y-56599520D02*
X114699520Y-66099020D01*
X101949511Y-54249511D02*
X112349511Y-54249511D01*
X89700000Y-53200000D02*
X100900000Y-53200000D01*
X114699520Y-66099020D02*
X115900000Y-67299500D01*
X114700000Y-82850000D02*
X114700000Y-68499500D01*
X88400000Y-54500000D02*
X89700000Y-53200000D01*
X100900000Y-53200000D02*
X101949511Y-54249511D01*
X114700000Y-68499500D02*
X115900000Y-67299500D01*
X112248327Y-54800489D02*
X114300000Y-56852162D01*
X106500000Y-86700000D02*
X109665006Y-86700000D01*
X87400000Y-55900000D02*
X88700000Y-55900000D01*
X111552162Y-55000000D02*
X111751673Y-54800489D01*
X114300000Y-56852162D02*
X114300000Y-67100000D01*
X111751673Y-54800489D02*
X112248327Y-54800489D01*
X87000000Y-56300000D02*
X87400000Y-55900000D01*
X102200000Y-89900000D02*
X103300000Y-89900000D01*
X89600000Y-55000000D02*
X111552162Y-55000000D01*
X109665006Y-86700000D02*
X114300000Y-82065006D01*
X88700000Y-55900000D02*
X89600000Y-55000000D01*
X103300000Y-89900000D02*
X106500000Y-86700000D01*
X114300000Y-82065006D02*
X114300000Y-67100000D01*
D29*
X143468548Y-45000000D02*
X138730000Y-45000000D01*
X156500000Y-46000000D02*
X156500000Y-46250000D01*
X156500000Y-46250000D02*
X158500000Y-48250000D01*
X158500000Y-48250000D02*
X158500000Y-50000000D01*
X138730000Y-45000000D02*
X137450000Y-43720000D01*
X156500000Y-46000000D02*
X144468548Y-46000000D01*
X144468548Y-46000000D02*
X143468548Y-45000000D01*
X159500000Y-51000000D02*
X159500000Y-53000000D01*
X158500000Y-50000000D02*
X159500000Y-51000000D01*
X148400000Y-72900000D02*
X148400000Y-71650000D01*
X156400000Y-75300000D02*
X150800000Y-75300000D01*
X158400000Y-73300000D02*
X156400000Y-75300000D01*
X150800000Y-75300000D02*
X148400000Y-72900000D01*
X107570000Y-61300000D02*
X107500000Y-61370000D01*
X112000000Y-55400000D02*
X112000000Y-55900000D01*
X112000000Y-55900000D02*
X112800000Y-56700000D01*
X112800000Y-56700000D02*
X112800000Y-58900000D01*
D30*
X158600000Y-56310741D02*
X158600000Y-57800000D01*
X148390100Y-58790100D02*
X148390100Y-57009900D01*
X150250000Y-55150000D02*
X157439259Y-55150000D01*
X157439259Y-55150000D02*
X158600000Y-56310741D01*
X148390100Y-57009900D02*
X150250000Y-55150000D01*
X82667497Y-100167497D02*
X81300000Y-98800000D01*
X81300000Y-98800000D02*
X80200500Y-98800000D01*
X80200500Y-98800000D02*
X79100000Y-99900500D01*
X88800000Y-99334994D02*
X87967497Y-100167497D01*
X90251665Y-97324003D02*
X89666967Y-96739305D01*
X87967497Y-100167497D02*
X82667497Y-100167497D01*
X90300000Y-97324003D02*
X90251665Y-97324003D01*
X88800000Y-97100000D02*
X88800000Y-99334994D01*
X89666967Y-96739305D02*
X89160695Y-96739305D01*
X89160695Y-96739305D02*
X88800000Y-97100000D01*
X88300000Y-96749040D02*
X88300000Y-99200000D01*
X90100020Y-96324520D02*
X88724520Y-96324520D01*
X88724520Y-96324520D02*
X88300000Y-96749040D01*
X87900000Y-99600000D02*
X83000000Y-99600000D01*
X83000000Y-99600000D02*
X81600000Y-98200000D01*
X79149003Y-98900997D02*
X79100000Y-98900997D01*
X79850000Y-98200000D02*
X79149003Y-98900997D01*
X90300000Y-96524500D02*
X90100020Y-96324520D01*
X88300000Y-99200000D02*
X87900000Y-99600000D01*
X81600000Y-98200000D02*
X79850000Y-98200000D01*
D31*
X110049500Y-90000000D02*
X113900000Y-90000000D01*
X109900000Y-90149500D02*
X110049500Y-90000000D01*
X113900000Y-90000000D02*
X116500000Y-87400000D01*
D30*
X82155497Y-86529503D02*
X75437001Y-93247999D01*
X83842501Y-85452875D02*
X83723423Y-85571954D01*
X75437001Y-96250001D02*
X75637000Y-96450000D01*
X82993971Y-85691030D02*
X82155497Y-86529503D01*
X86685000Y-82000000D02*
X83842500Y-84842500D01*
X75437001Y-93247999D02*
X75437001Y-96250001D01*
X83418236Y-85571955D02*
X83418235Y-85571954D01*
X89660000Y-82000000D02*
X86685000Y-82000000D01*
X83113049Y-85571953D02*
X82993971Y-85691030D01*
X89660000Y-82000000D02*
X89610000Y-81950000D01*
X83113048Y-85571955D02*
X83113049Y-85571953D01*
X83113048Y-85571955D02*
G75*
G02*
X83418235Y-85571954I152594J-152592D01*
G01*
X83842501Y-85452875D02*
G75*
G03*
X83842500Y-85147688I-152593J152593D01*
G01*
X83842501Y-85147687D02*
G75*
G02*
X83842501Y-84842501I152588J152593D01*
G01*
X83418236Y-85571955D02*
G75*
G03*
X83723423Y-85571954I152593J152593D01*
G01*
X84600000Y-56244000D02*
X80332000Y-51976000D01*
X84600000Y-60850000D02*
X84600000Y-56244000D01*
X84750000Y-61000000D02*
X84600000Y-60850000D01*
X86200000Y-61600000D02*
X85800000Y-62000000D01*
X81016000Y-54516000D02*
X80332000Y-54516000D01*
X82800000Y-56300000D02*
X81016000Y-54516000D01*
X83300000Y-62000000D02*
X82800000Y-61500000D01*
X85800000Y-62000000D02*
X83300000Y-62000000D01*
X82800000Y-61500000D02*
X82800000Y-56300000D01*
X104000000Y-84100000D02*
X104000000Y-80600000D01*
X99100000Y-77800000D02*
X98600000Y-77300000D01*
X101200000Y-77800000D02*
X99100000Y-77800000D01*
X104000000Y-80600000D02*
X101200000Y-77800000D01*
X106710252Y-79199511D02*
X104210741Y-76700000D01*
X109740734Y-82759266D02*
X109740734Y-80240734D01*
X109740734Y-80240734D02*
X108699511Y-79199511D01*
X104210741Y-76700000D02*
X97800000Y-76700000D01*
X108699511Y-79199511D02*
X106710252Y-79199511D01*
X106700000Y-62800000D02*
X96700000Y-72800000D01*
X96700000Y-72800000D02*
X95650000Y-72800000D01*
X110079629Y-61100000D02*
X108379629Y-62800000D01*
X113400000Y-61900000D02*
X113252162Y-61900000D01*
X112452162Y-61100000D02*
X110079629Y-61100000D01*
X108379629Y-62800000D02*
X106700000Y-62800000D01*
X113252162Y-61900000D02*
X112452162Y-61100000D01*
X95650000Y-72800000D02*
X95600000Y-72850000D01*
X107159668Y-60440332D02*
X105655865Y-61944135D01*
X105655865Y-62944135D02*
X96450000Y-72150000D01*
X112640332Y-60440332D02*
X107159668Y-60440332D01*
X105655865Y-61944135D02*
X105655865Y-62944135D01*
X96450000Y-72150000D02*
X95100000Y-72150000D01*
X112800000Y-60600000D02*
X112640332Y-60440332D01*
X95100000Y-72150000D02*
X94850000Y-72400000D01*
X107810188Y-77707217D02*
X106202971Y-76100000D01*
X106202971Y-76100000D02*
X97150500Y-76100000D01*
X97150500Y-76100000D02*
X97100000Y-76150500D01*
X97650500Y-75450000D02*
X97600000Y-75500500D01*
X108550000Y-75450000D02*
X97650500Y-75450000D01*
X108900000Y-75100000D02*
X108550000Y-75450000D01*
X111400000Y-58500000D02*
X107869245Y-58500000D01*
X95350000Y-71019245D02*
X95350000Y-71400000D01*
X107869245Y-58500000D02*
X95350000Y-71019245D01*
X94700000Y-70950000D02*
X94650000Y-70950000D01*
X111700000Y-57650000D02*
X108000000Y-57650000D01*
X108000000Y-57650000D02*
X94700000Y-70950000D01*
X99525000Y-71900000D02*
X97475000Y-73950000D01*
X96750000Y-73950000D02*
X96300000Y-74400000D01*
X111284266Y-71715734D02*
X111100000Y-71900000D01*
X111100000Y-71900000D02*
X99525000Y-71900000D01*
X97475000Y-73950000D02*
X96750000Y-73950000D01*
X111884266Y-71715734D02*
X111284266Y-71715734D01*
X99125000Y-71400000D02*
X97225000Y-73300000D01*
X110100000Y-71400000D02*
X99125000Y-71400000D01*
X97225000Y-73300000D02*
X96450000Y-73300000D01*
X111500000Y-70000000D02*
X110100000Y-71400000D01*
X96450000Y-73300000D02*
X96250000Y-73500000D01*
X98600000Y-65150000D02*
X95400000Y-68350000D01*
X95400000Y-68350000D02*
X95000000Y-68350000D01*
X98600000Y-56900000D02*
X98600000Y-65150000D01*
X99300000Y-56200000D02*
X98600000Y-56900000D01*
X95550000Y-68950000D02*
X96112467Y-68950000D01*
X96112467Y-68950000D02*
X104300000Y-60762467D01*
X104300000Y-60762467D02*
X104300000Y-57400000D01*
D29*
X109700000Y-40900000D02*
X109900000Y-40900000D01*
D30*
X74986999Y-92804801D02*
X86241801Y-81549999D01*
X88900001Y-81549999D02*
X89050000Y-81400000D01*
X74787000Y-96450000D02*
X74986999Y-96250001D01*
X74986999Y-96250001D02*
X74986999Y-92804801D01*
X89050000Y-81400000D02*
X89050000Y-81481801D01*
X86241801Y-81549999D02*
X88900001Y-81549999D01*
X104600000Y-86000000D02*
X109300000Y-86000000D01*
X102100000Y-84900000D02*
X103500000Y-84900000D01*
X109300000Y-86000000D02*
X113229977Y-82070023D01*
X113229977Y-82070023D02*
X113229977Y-67229977D01*
X103500000Y-84900000D02*
X104600000Y-86000000D01*
D29*
X89100000Y-70355474D02*
X89100000Y-74371452D01*
X89649511Y-62550489D02*
X89649511Y-69805963D01*
X83870963Y-79600489D02*
X83299511Y-79600489D01*
X89649511Y-69805963D02*
X89100000Y-70355474D01*
X83299511Y-79600489D02*
X79100000Y-83800000D01*
X96600000Y-55600000D02*
X89649511Y-62550489D01*
X89100000Y-74371452D02*
X83870963Y-79600489D01*
X79100000Y-83800000D02*
X79100000Y-87100000D01*
D32*
X85400000Y-50650000D02*
X85400000Y-45200000D01*
X85400000Y-45200000D02*
X88300000Y-42300000D01*
D30*
X97800000Y-85100000D02*
X100300000Y-85100000D01*
X97000000Y-85900000D02*
X97800000Y-85100000D01*
X102900000Y-82500000D02*
X103000000Y-82500000D01*
X100300000Y-85100000D02*
X102900000Y-82500000D01*
X90893200Y-95925000D02*
X92900521Y-93917679D01*
X87325000Y-97600000D02*
X87325000Y-99000000D01*
X87593200Y-95925000D02*
X90893200Y-95925000D01*
X87325000Y-97600000D02*
X87125001Y-97400001D01*
X92900521Y-93917679D02*
X92900521Y-92499479D01*
X87125001Y-97400001D02*
X87125001Y-96393199D01*
X87125001Y-96393199D02*
X87593200Y-95925000D01*
X86674999Y-96206801D02*
X86674999Y-97400001D01*
X86475000Y-97600000D02*
X86475000Y-99000000D01*
X92450520Y-93251562D02*
X92450520Y-93731280D01*
X89806803Y-94969753D02*
X89806803Y-95175000D01*
X86674999Y-97400001D02*
X86475000Y-97600000D01*
X89506803Y-95475000D02*
X89456803Y-95475000D01*
X87406800Y-95475000D02*
X86674999Y-96206801D01*
X92299479Y-93100521D02*
X92450520Y-93251562D01*
X89456803Y-95475000D02*
X87406800Y-95475000D01*
X90406803Y-95175000D02*
X90406803Y-94969753D01*
X92450520Y-93731280D02*
X90706803Y-95475000D01*
X89506803Y-95475000D02*
G75*
G03*
X89806803Y-95175000I0J300000D01*
G01*
X89806803Y-94969753D02*
G75*
G02*
X90106803Y-94669753I300000J0D01*
G01*
X90106803Y-94669753D02*
G75*
G02*
X90406803Y-94969753I0J-300000D01*
G01*
X90406803Y-95175000D02*
G75*
G03*
X90706803Y-95475000I300000J0D01*
G01*
X119550000Y-97650000D02*
X112800000Y-104400000D01*
X81851089Y-88698911D02*
X76300000Y-94250000D01*
X76300000Y-94250000D02*
X76300000Y-95400000D01*
X99600000Y-84200000D02*
X99300000Y-84200000D01*
X101800000Y-82000000D02*
X99600000Y-84200000D01*
X113310741Y-96200000D02*
X112900489Y-96610252D01*
X114924502Y-96200000D02*
X113310741Y-96200000D01*
X106850000Y-102900000D02*
X106850000Y-103150000D01*
X112900489Y-96610252D02*
X112900489Y-96849511D01*
X112900489Y-96849511D02*
X106850000Y-102900000D01*
D32*
X128030000Y-104320000D02*
X128030000Y-104520000D01*
D30*
X153970526Y-107600000D02*
X153550000Y-108020526D01*
X154250000Y-107600000D02*
X153970526Y-107600000D01*
D32*
X153550000Y-109659474D02*
X150269474Y-112940000D01*
X147630000Y-104520000D02*
X147630000Y-104180000D01*
X149570000Y-104520000D02*
X151811479Y-106761479D01*
X145700000Y-102250000D02*
X130100000Y-102250000D01*
X130100000Y-102250000D02*
X128030000Y-104320000D01*
X147630000Y-104180000D02*
X145700000Y-102250000D01*
X151811479Y-106761479D02*
X152290953Y-106761479D01*
X152290953Y-106761479D02*
X153550000Y-108020526D01*
X147630000Y-104520000D02*
X149570000Y-104520000D01*
X153550000Y-108020526D02*
X153550000Y-109659474D01*
X150269474Y-112940000D02*
X148800000Y-112940000D01*
D30*
X153450000Y-94850000D02*
X152300000Y-96000000D01*
X152300000Y-96000000D02*
X140539259Y-96000000D01*
X136300489Y-96400489D02*
X136950000Y-97050000D01*
X140539259Y-96000000D02*
X138739748Y-94200489D01*
X136300489Y-94399511D02*
X136300489Y-96400489D01*
X136499511Y-94200489D02*
X136300489Y-94399511D01*
X138739748Y-94200489D02*
X136499511Y-94200489D01*
X141100000Y-103050000D02*
X142080000Y-103050000D01*
X122870489Y-108620489D02*
X120800000Y-106550000D01*
X142329511Y-111549511D02*
X142329511Y-107629511D01*
X122870489Y-111890489D02*
X122870489Y-108620489D01*
X121495766Y-103450000D02*
X122880000Y-103450000D01*
X142329511Y-107629511D02*
X140350000Y-105650000D01*
X140350000Y-103800000D02*
X141100000Y-103050000D01*
X159200000Y-96600000D02*
X138700000Y-96600000D01*
X124020000Y-113040000D02*
X122870489Y-111890489D01*
X140350000Y-105650000D02*
X140350000Y-103800000D01*
X120800000Y-104145766D02*
X121495766Y-103450000D01*
X143720000Y-112940000D02*
X142329511Y-111549511D01*
X122880000Y-103450000D02*
X123950000Y-104520000D01*
X120800000Y-106550000D02*
X120800000Y-104145766D01*
X142080000Y-103050000D02*
X143550000Y-104520000D01*
X138700000Y-96600000D02*
X137000000Y-94900000D01*
X67860000Y-98960000D02*
X66165000Y-98960000D01*
X89837209Y-99462791D02*
X88100000Y-101200000D01*
X89837209Y-98020004D02*
X89837209Y-99462791D01*
X88100000Y-101200000D02*
X70100000Y-101200000D01*
X70100000Y-101200000D02*
X67860000Y-98960000D01*
X89237698Y-97519774D02*
X89237698Y-99462302D01*
X88100000Y-100600000D02*
X73600000Y-100600000D01*
X89418656Y-97338816D02*
X89237698Y-97519774D01*
X67800000Y-90300000D02*
X66123000Y-90300000D01*
X73600000Y-100600000D02*
X70400000Y-97400000D01*
X70400000Y-97400000D02*
X70400000Y-92900000D01*
X70400000Y-92900000D02*
X67800000Y-90300000D01*
X89237698Y-99462302D02*
X88100000Y-100600000D01*
X92200000Y-82100000D02*
X92200000Y-79800000D01*
X91200000Y-83100000D02*
X92200000Y-82100000D01*
X90000000Y-83100000D02*
X91200000Y-83100000D01*
X84200000Y-86500000D02*
X86600000Y-86500000D01*
X92949511Y-79050489D02*
X95300489Y-79050489D01*
X82883589Y-87816411D02*
X84200000Y-86500000D01*
X92200000Y-79800000D02*
X92949511Y-79050489D01*
X95300489Y-79050489D02*
X95400000Y-79150000D01*
X81716411Y-87816411D02*
X82883589Y-87816411D01*
X86600000Y-86500000D02*
X90000000Y-83100000D01*
X87505465Y-84500000D02*
X87505465Y-84694535D01*
X87505465Y-84694535D02*
X86100000Y-86100000D01*
X86100000Y-86100000D02*
X83432822Y-86100000D01*
X83432822Y-86100000D02*
X82316411Y-87216411D01*
X99900000Y-98900000D02*
X101800000Y-98900000D01*
X96500000Y-102300000D02*
X99900000Y-98900000D01*
D32*
X126050000Y-96599500D02*
X125150000Y-95699500D01*
X126050000Y-103430000D02*
X126050000Y-96599500D01*
D30*
X101800000Y-98900000D02*
X103850000Y-96850000D01*
D32*
X126050000Y-104600000D02*
X126050000Y-103430000D01*
D30*
X125990000Y-104520000D02*
X125990000Y-104540000D01*
X125990000Y-104540000D02*
X126050000Y-104600000D01*
X96500000Y-103922000D02*
X96500000Y-102300000D01*
D32*
X129230000Y-100250000D02*
X126050000Y-103430000D01*
X130550000Y-100250000D02*
X129230000Y-100250000D01*
D30*
X103850000Y-96850000D02*
X106050000Y-96850000D01*
X107649511Y-112599511D02*
X119380489Y-112599511D01*
X119380489Y-112599511D02*
X121480000Y-110500000D01*
X96475000Y-107287000D02*
X97325000Y-107287000D01*
X104750000Y-109700000D02*
X107649511Y-112599511D01*
X129150000Y-108250000D02*
X124450000Y-108250000D01*
X140330000Y-111250000D02*
X137038052Y-111250000D01*
X97325000Y-107287000D02*
X99738000Y-109700000D01*
X99738000Y-109700000D02*
X104750000Y-109700000D01*
X122930000Y-106730000D02*
X122930000Y-106300000D01*
X124450000Y-108250000D02*
X122930000Y-106730000D01*
X137038052Y-111250000D02*
X132588052Y-106800000D01*
X132588052Y-106800000D02*
X130600000Y-106800000D01*
X141180000Y-110400000D02*
X140330000Y-111250000D01*
X130600000Y-106800000D02*
X129150000Y-108250000D01*
X104539259Y-110200000D02*
X96848000Y-110200000D01*
X96848000Y-110200000D02*
X96475000Y-109827000D01*
X107379259Y-113040000D02*
X104539259Y-110200000D01*
X121480000Y-113040000D02*
X107379259Y-113040000D01*
X116614179Y-96928759D02*
X115042938Y-98500000D01*
X113250000Y-98500000D02*
X107500000Y-104250000D01*
X100050000Y-99950000D02*
X100050000Y-105300000D01*
X115042938Y-98500000D02*
X113250000Y-98500000D01*
X86350000Y-70050000D02*
X80332000Y-64032000D01*
X80332000Y-64032000D02*
X80332000Y-62136000D01*
X86100000Y-70900000D02*
X83011619Y-70900000D01*
X83011619Y-70900000D02*
X78700000Y-66588381D01*
X80104000Y-59596000D02*
X80332000Y-59596000D01*
X78700000Y-61000000D02*
X80104000Y-59596000D01*
X78700000Y-66588381D02*
X78700000Y-61000000D01*
X89450000Y-104550000D02*
X93615006Y-104550000D01*
X108884000Y-94900000D02*
X111482000Y-92302000D01*
X93615006Y-104550000D02*
X103265006Y-94900000D01*
X103265006Y-94900000D02*
X108884000Y-94900000D01*
X103903480Y-93696520D02*
X107547480Y-93696520D01*
X107547480Y-93696520D02*
X108942000Y-92302000D01*
X90750000Y-101700000D02*
X92600000Y-101700000D01*
X101149520Y-96450480D02*
X103903480Y-93696520D01*
X97849520Y-96450480D02*
X101149520Y-96450480D01*
X92600000Y-101700000D02*
X97849520Y-96450480D01*
X101300000Y-95300000D02*
X103862000Y-92738000D01*
X92150000Y-99400000D02*
X92150000Y-98800000D01*
X92150000Y-98800000D02*
X95650000Y-95300000D01*
X95650000Y-95300000D02*
X101300000Y-95300000D01*
X103862000Y-92738000D02*
X103862000Y-92302000D01*
X74630000Y-43330000D02*
X73200000Y-43330000D01*
X77499500Y-58900000D02*
X77499500Y-60050500D01*
X75200000Y-45200000D02*
X75200000Y-43900000D01*
X77499500Y-71999500D02*
X78800000Y-73300000D01*
X75200000Y-43900000D02*
X74630000Y-43330000D01*
X77499500Y-47499500D02*
X75200000Y-45200000D01*
X78800000Y-73300000D02*
X85600000Y-73300000D01*
X77499500Y-58900000D02*
X77499500Y-71999500D01*
X77499500Y-58900000D02*
X77499500Y-47499500D01*
X85600000Y-73300000D02*
X85900000Y-73000000D01*
X85485108Y-75792543D02*
X85137065Y-75444500D01*
X75200000Y-72300000D02*
X75200000Y-59080000D01*
X85137065Y-75444500D02*
X78344500Y-75444500D01*
X75200000Y-59080000D02*
X73200000Y-57080000D01*
X78344500Y-75444500D02*
X75200000Y-72300000D01*
X78400000Y-73700000D02*
X76850000Y-72150000D01*
X76850000Y-72150000D02*
X76850000Y-49520000D01*
X76850000Y-49520000D02*
X73200000Y-45870000D01*
X87400000Y-72500000D02*
X86200000Y-73700000D01*
X86200000Y-73700000D02*
X78400000Y-73700000D01*
X88289787Y-73610213D02*
X87700000Y-74200000D01*
X74110000Y-48410000D02*
X73200000Y-48410000D01*
X76200000Y-72300000D02*
X76200000Y-50500000D01*
X76200000Y-50500000D02*
X74110000Y-48410000D01*
X87700000Y-74200000D02*
X78100000Y-74200000D01*
X78100000Y-74200000D02*
X76200000Y-72300000D01*
X88447034Y-73610213D02*
X88289787Y-73610213D01*
X77300000Y-95900000D02*
X81400000Y-95900000D01*
X83365823Y-94965823D02*
X83400000Y-95000000D01*
X72700489Y-96000489D02*
X73900000Y-97200000D01*
X81400000Y-95900000D02*
X82334177Y-94965823D01*
X73900000Y-97200000D02*
X76000000Y-97200000D01*
X72700489Y-88399511D02*
X72700489Y-96000489D01*
X70900000Y-75400000D02*
X73200000Y-77700000D01*
X73200000Y-87900000D02*
X72700489Y-88399511D01*
X82334177Y-94965823D02*
X83365823Y-94965823D01*
X73200000Y-77700000D02*
X73200000Y-87900000D01*
X76000000Y-97200000D02*
X77300000Y-95900000D01*
X69400000Y-71400000D02*
X69400000Y-77600480D01*
X78447838Y-96650000D02*
X81900000Y-96650000D01*
X82834666Y-95715334D02*
X82834666Y-95565334D01*
X77348327Y-97749511D02*
X78447838Y-96650000D01*
X81900000Y-96650000D02*
X82834666Y-95715334D01*
X69400000Y-77600480D02*
X71906489Y-80106969D01*
X71906489Y-80106969D02*
X71906489Y-96206489D01*
X73449511Y-97749511D02*
X77348327Y-97749511D01*
X71906489Y-96206489D02*
X73449511Y-97749511D01*
X68600000Y-70480000D02*
X66000000Y-67880000D01*
X78300489Y-98749511D02*
X73349511Y-98749511D01*
X79650000Y-97400000D02*
X78300489Y-98749511D01*
X86306500Y-95708500D02*
X85850155Y-96164845D01*
X85850155Y-96164845D02*
X83785155Y-96164845D01*
X83785155Y-96164845D02*
X82550000Y-97400000D01*
X73349511Y-98749511D02*
X71300000Y-96700000D01*
X68600000Y-77850000D02*
X68600000Y-70480000D01*
X71300000Y-80550000D02*
X68600000Y-77850000D01*
X71300000Y-96700000D02*
X71300000Y-80550000D01*
X82550000Y-97400000D02*
X79650000Y-97400000D01*
G04 #@! TA.AperFunction,Conductor*
G36*
X139676408Y-75929496D02*
G01*
X139703168Y-75939448D01*
X139882961Y-75963438D01*
X139891389Y-75962671D01*
X139891392Y-75962671D01*
X139954573Y-75956921D01*
X140063600Y-75946998D01*
X140123886Y-75927410D01*
X140170671Y-75920000D01*
X140373634Y-75920000D01*
X140426408Y-75929496D01*
X140453168Y-75939448D01*
X140632961Y-75963438D01*
X140641389Y-75962671D01*
X140641392Y-75962671D01*
X140704573Y-75956921D01*
X140813600Y-75946998D01*
X140873886Y-75927410D01*
X140920671Y-75920000D01*
X141123634Y-75920000D01*
X141176408Y-75929496D01*
X141203168Y-75939448D01*
X141382961Y-75963438D01*
X141391389Y-75962671D01*
X141391392Y-75962671D01*
X141454573Y-75956921D01*
X141563600Y-75946998D01*
X141623886Y-75927410D01*
X141670671Y-75920000D01*
X141873634Y-75920000D01*
X141926408Y-75929496D01*
X141953168Y-75939448D01*
X142132961Y-75963438D01*
X142141389Y-75962671D01*
X142141392Y-75962671D01*
X142204573Y-75956921D01*
X142313600Y-75946998D01*
X142373886Y-75927410D01*
X142420671Y-75920000D01*
X142623634Y-75920000D01*
X142676408Y-75929496D01*
X142703168Y-75939448D01*
X142882961Y-75963438D01*
X142891389Y-75962671D01*
X142891392Y-75962671D01*
X142954573Y-75956921D01*
X143063600Y-75946998D01*
X143123886Y-75927410D01*
X143170671Y-75920000D01*
X143373634Y-75920000D01*
X143426408Y-75929496D01*
X143453168Y-75939448D01*
X143632961Y-75963438D01*
X143641389Y-75962671D01*
X143641392Y-75962671D01*
X143704573Y-75956921D01*
X143813600Y-75946998D01*
X143873886Y-75927410D01*
X143920671Y-75920000D01*
X144123634Y-75920000D01*
X144176408Y-75929496D01*
X144203168Y-75939448D01*
X144382961Y-75963438D01*
X144391389Y-75962671D01*
X144391392Y-75962671D01*
X144454573Y-75956921D01*
X144563600Y-75946998D01*
X144623886Y-75927410D01*
X144670671Y-75920000D01*
X144873634Y-75920000D01*
X144926408Y-75929496D01*
X144953168Y-75939448D01*
X145132961Y-75963438D01*
X145141389Y-75962671D01*
X145141392Y-75962671D01*
X145204573Y-75956921D01*
X145313600Y-75946998D01*
X145373886Y-75927410D01*
X145420671Y-75920000D01*
X145623634Y-75920000D01*
X145676408Y-75929496D01*
X145703168Y-75939448D01*
X145882961Y-75963438D01*
X145891389Y-75962671D01*
X145891392Y-75962671D01*
X145954573Y-75956921D01*
X146063600Y-75946998D01*
X146123886Y-75927410D01*
X146170671Y-75920000D01*
X146373634Y-75920000D01*
X146426408Y-75929496D01*
X146453168Y-75939448D01*
X146632961Y-75963438D01*
X146641389Y-75962671D01*
X146641392Y-75962671D01*
X146704573Y-75956921D01*
X146813600Y-75946998D01*
X146873886Y-75927410D01*
X146920671Y-75920000D01*
X149347600Y-75920000D01*
X149423300Y-75940284D01*
X149478716Y-75995700D01*
X149499000Y-76071400D01*
X149499000Y-81688600D01*
X149478716Y-81764300D01*
X149423300Y-81819716D01*
X149347600Y-81840000D01*
X147480772Y-81840000D01*
X147405072Y-81819716D01*
X147349656Y-81764300D01*
X147340268Y-81743213D01*
X147340207Y-81743240D01*
X147336978Y-81735989D01*
X147334527Y-81728444D01*
X147290278Y-81651803D01*
X147243009Y-81569930D01*
X147243008Y-81569928D01*
X147239040Y-81563056D01*
X147192514Y-81511383D01*
X147116565Y-81427034D01*
X147111253Y-81421134D01*
X146956752Y-81308882D01*
X146949507Y-81305656D01*
X146949503Y-81305654D01*
X146789537Y-81234433D01*
X146789533Y-81234432D01*
X146782288Y-81231206D01*
X146662262Y-81205694D01*
X146603246Y-81193149D01*
X146603244Y-81193149D01*
X146595487Y-81191500D01*
X146404513Y-81191500D01*
X146396756Y-81193149D01*
X146396754Y-81193149D01*
X146337738Y-81205694D01*
X146217712Y-81231206D01*
X146210467Y-81234432D01*
X146210463Y-81234433D01*
X146050497Y-81305654D01*
X146050493Y-81305656D01*
X146043248Y-81308882D01*
X145888747Y-81421134D01*
X145883435Y-81427034D01*
X145807487Y-81511383D01*
X145760960Y-81563056D01*
X145756992Y-81569928D01*
X145756991Y-81569930D01*
X145709722Y-81651803D01*
X145665473Y-81728444D01*
X145663022Y-81735989D01*
X145659793Y-81743240D01*
X145658492Y-81742661D01*
X145620538Y-81801109D01*
X145550711Y-81836690D01*
X145519228Y-81840000D01*
X142243632Y-81840000D01*
X142167932Y-81819716D01*
X142115237Y-81768829D01*
X142099248Y-81743240D01*
X142037626Y-81644624D01*
X142022952Y-81629847D01*
X141915778Y-81521922D01*
X141915774Y-81521919D01*
X141909815Y-81515918D01*
X141756666Y-81418727D01*
X141748696Y-81415889D01*
X141748694Y-81415888D01*
X141593760Y-81360719D01*
X141585790Y-81357881D01*
X141577389Y-81356879D01*
X141577388Y-81356879D01*
X141523834Y-81350493D01*
X141405680Y-81336404D01*
X141397269Y-81337288D01*
X141397267Y-81337288D01*
X141340132Y-81343293D01*
X141225288Y-81355364D01*
X141217278Y-81358091D01*
X141217277Y-81358091D01*
X141072458Y-81407391D01*
X140994259Y-81412585D01*
X140972880Y-81406696D01*
X140843760Y-81360719D01*
X140835790Y-81357881D01*
X140827389Y-81356879D01*
X140827388Y-81356879D01*
X140773834Y-81350493D01*
X140655680Y-81336404D01*
X140647269Y-81337288D01*
X140647267Y-81337288D01*
X140590132Y-81343293D01*
X140475288Y-81355364D01*
X140467278Y-81358091D01*
X140467277Y-81358091D01*
X140322458Y-81407391D01*
X140244259Y-81412585D01*
X140222880Y-81406696D01*
X140093760Y-81360719D01*
X140085790Y-81357881D01*
X140077389Y-81356879D01*
X140077388Y-81356879D01*
X140023834Y-81350493D01*
X139905680Y-81336404D01*
X139897269Y-81337288D01*
X139897267Y-81337288D01*
X139840132Y-81343293D01*
X139725288Y-81355364D01*
X139717278Y-81358091D01*
X139717277Y-81358091D01*
X139561592Y-81411090D01*
X139561591Y-81411091D01*
X139553579Y-81413818D01*
X139546370Y-81418253D01*
X139546368Y-81418254D01*
X139525831Y-81430889D01*
X139399088Y-81508862D01*
X139393038Y-81514787D01*
X139393035Y-81514789D01*
X139349771Y-81557157D01*
X139269493Y-81635771D01*
X139200607Y-81742661D01*
X139182593Y-81770614D01*
X139124536Y-81823257D01*
X139055331Y-81840000D01*
X138710400Y-81840000D01*
X138634700Y-81819716D01*
X138579284Y-81764300D01*
X138559000Y-81688600D01*
X138559000Y-77417600D01*
X138579284Y-77341900D01*
X138634700Y-77286484D01*
X138667330Y-77273960D01*
X138666984Y-77272894D01*
X138674524Y-77270444D01*
X138682288Y-77268794D01*
X138689536Y-77265567D01*
X138849503Y-77194346D01*
X138849507Y-77194344D01*
X138856752Y-77191118D01*
X139011253Y-77078866D01*
X139139040Y-76936944D01*
X139234527Y-76771556D01*
X139293542Y-76589928D01*
X139313504Y-76400000D01*
X139293542Y-76210072D01*
X139263686Y-76118185D01*
X139259584Y-76039923D01*
X139295163Y-75970094D01*
X139360890Y-75927410D01*
X139407676Y-75920000D01*
X139623634Y-75920000D01*
X139676408Y-75929496D01*
G37*
G04 #@! TD.AperFunction*
G04 #@! TA.AperFunction,Conductor*
G36*
X139124739Y-39428284D02*
G01*
X139180155Y-39483700D01*
X139200439Y-39559400D01*
X139199610Y-39575225D01*
X139186496Y-39700000D01*
X139206458Y-39889928D01*
X139265473Y-40071556D01*
X139360960Y-40236944D01*
X139488747Y-40378866D01*
X139643248Y-40491118D01*
X139650493Y-40494344D01*
X139650497Y-40494346D01*
X139810463Y-40565567D01*
X139810467Y-40565568D01*
X139817712Y-40568794D01*
X139937738Y-40594306D01*
X139996754Y-40606851D01*
X139996756Y-40606851D01*
X140004513Y-40608500D01*
X140195487Y-40608500D01*
X140203244Y-40606851D01*
X140203246Y-40606851D01*
X140262262Y-40594306D01*
X140382288Y-40568794D01*
X140389533Y-40565568D01*
X140389537Y-40565567D01*
X140549503Y-40494346D01*
X140549507Y-40494344D01*
X140556752Y-40491118D01*
X140711253Y-40378866D01*
X140839040Y-40236944D01*
X140934527Y-40071556D01*
X140993542Y-39889928D01*
X141013504Y-39700000D01*
X141000390Y-39575225D01*
X141012650Y-39497820D01*
X141061971Y-39436915D01*
X141135136Y-39408829D01*
X141150961Y-39408000D01*
X151597600Y-39408000D01*
X151673300Y-39428284D01*
X151728716Y-39483700D01*
X151749000Y-39559400D01*
X151749000Y-44992600D01*
X151728716Y-45068300D01*
X151673300Y-45123716D01*
X151597600Y-45144000D01*
X147154450Y-45144000D01*
X147078750Y-45123716D01*
X147023334Y-45068300D01*
X147003879Y-45008425D01*
X146994372Y-44917965D01*
X146994371Y-44917961D01*
X146993542Y-44910072D01*
X146934527Y-44728444D01*
X146855594Y-44591728D01*
X146843009Y-44569930D01*
X146843008Y-44569928D01*
X146839040Y-44563056D01*
X146711253Y-44421134D01*
X146556752Y-44308882D01*
X146549507Y-44305656D01*
X146549503Y-44305654D01*
X146389537Y-44234433D01*
X146389533Y-44234432D01*
X146382288Y-44231206D01*
X146262262Y-44205694D01*
X146203246Y-44193149D01*
X146203244Y-44193149D01*
X146195487Y-44191500D01*
X146004513Y-44191500D01*
X145996756Y-44193149D01*
X145996754Y-44193149D01*
X145937738Y-44205694D01*
X145817712Y-44231206D01*
X145810467Y-44234432D01*
X145810463Y-44234433D01*
X145650497Y-44305654D01*
X145650493Y-44305656D01*
X145643248Y-44308882D01*
X145488747Y-44421134D01*
X145360960Y-44563056D01*
X145356992Y-44569928D01*
X145356991Y-44569930D01*
X145344406Y-44591728D01*
X145265473Y-44728444D01*
X145206458Y-44910072D01*
X145205629Y-44917961D01*
X145205628Y-44917965D01*
X145196121Y-45008425D01*
X145168035Y-45081590D01*
X145107130Y-45130911D01*
X145045550Y-45144000D01*
X144606520Y-45144000D01*
X144530820Y-45123716D01*
X144499464Y-45099656D01*
X143991536Y-44591728D01*
X143984347Y-44583827D01*
X143979964Y-44576920D01*
X143972521Y-44569930D01*
X143928602Y-44528688D01*
X143925186Y-44525378D01*
X143904881Y-44505073D01*
X143901122Y-44502157D01*
X143897754Y-44499188D01*
X143891486Y-44493834D01*
X143858681Y-44463028D01*
X143841635Y-44453657D01*
X143821785Y-44440617D01*
X143806416Y-44428696D01*
X143797681Y-44424916D01*
X143797674Y-44424912D01*
X143765115Y-44410823D01*
X143752305Y-44404548D01*
X143712885Y-44382876D01*
X143694044Y-44378038D01*
X143671579Y-44370346D01*
X143653724Y-44362620D01*
X143644318Y-44361130D01*
X143644317Y-44361130D01*
X143609283Y-44355581D01*
X143595319Y-44352689D01*
X143560962Y-44343868D01*
X143560956Y-44343867D01*
X143551736Y-44341500D01*
X143532287Y-44341500D01*
X143508604Y-44339636D01*
X143502632Y-44338690D01*
X143489396Y-44336594D01*
X143479917Y-44337490D01*
X143479915Y-44337490D01*
X143444604Y-44340828D01*
X143430356Y-44341500D01*
X139065471Y-44341500D01*
X138989771Y-44321216D01*
X138958415Y-44297156D01*
X138653344Y-43992085D01*
X138614159Y-43924214D01*
X138609000Y-43885029D01*
X138609000Y-39559400D01*
X138629284Y-39483700D01*
X138684700Y-39428284D01*
X138760400Y-39408000D01*
X139049039Y-39408000D01*
X139124739Y-39428284D01*
G37*
G04 #@! TD.AperFunction*
G04 #@! TA.AperFunction,Conductor*
G36*
X150964944Y-67116284D02*
G01*
X151020360Y-67171700D01*
X151039814Y-67231573D01*
X151056458Y-67389928D01*
X151115473Y-67571556D01*
X151119443Y-67578432D01*
X151165718Y-67658582D01*
X151210960Y-67736944D01*
X151338747Y-67878866D01*
X151345168Y-67883531D01*
X151463253Y-67969325D01*
X151493248Y-67991118D01*
X151500493Y-67994344D01*
X151500497Y-67994346D01*
X151660463Y-68065567D01*
X151660467Y-68065568D01*
X151667712Y-68068794D01*
X151787738Y-68094306D01*
X151846754Y-68106851D01*
X151846756Y-68106851D01*
X151854513Y-68108500D01*
X152045487Y-68108500D01*
X152053244Y-68106851D01*
X152053246Y-68106851D01*
X152112262Y-68094306D01*
X152232288Y-68068794D01*
X152239533Y-68065568D01*
X152239537Y-68065567D01*
X152399503Y-67994346D01*
X152399507Y-67994344D01*
X152406752Y-67991118D01*
X152436748Y-67969325D01*
X152554832Y-67883531D01*
X152561253Y-67878866D01*
X152689040Y-67736944D01*
X152734283Y-67658582D01*
X152780557Y-67578432D01*
X152784527Y-67571556D01*
X152843542Y-67389928D01*
X152860186Y-67231574D01*
X152888271Y-67158410D01*
X152949176Y-67109089D01*
X153010756Y-67096000D01*
X157716600Y-67096000D01*
X157792300Y-67116284D01*
X157847716Y-67171700D01*
X157868000Y-67247400D01*
X157868000Y-71538028D01*
X157847716Y-71613728D01*
X157823656Y-71645084D01*
X156413084Y-73055656D01*
X156345213Y-73094841D01*
X156306028Y-73100000D01*
X152476488Y-73100000D01*
X152445010Y-73096692D01*
X152281526Y-73061942D01*
X152281524Y-73061942D01*
X152273767Y-73060293D01*
X152082793Y-73060293D01*
X152075036Y-73061942D01*
X152075034Y-73061942D01*
X151911550Y-73096692D01*
X151880072Y-73100000D01*
X149858400Y-73100000D01*
X149782700Y-73079716D01*
X149727284Y-73024300D01*
X149707000Y-72948600D01*
X149707000Y-67451400D01*
X149689690Y-67319918D01*
X149688407Y-67315129D01*
X149680759Y-67286584D01*
X149680759Y-67208214D01*
X149719945Y-67140343D01*
X149787816Y-67101159D01*
X149827000Y-67096000D01*
X150889244Y-67096000D01*
X150964944Y-67116284D01*
G37*
G04 #@! TD.AperFunction*
G04 #@! TA.AperFunction,Conductor*
G36*
X157061615Y-76016284D02*
G01*
X157108397Y-76058405D01*
X157109420Y-76059812D01*
X157113384Y-76066679D01*
X157118690Y-76072572D01*
X157118693Y-76072576D01*
X157183702Y-76144775D01*
X157241171Y-76208601D01*
X157395672Y-76320853D01*
X157402917Y-76324079D01*
X157402921Y-76324081D01*
X157562887Y-76395302D01*
X157562891Y-76395303D01*
X157570136Y-76398529D01*
X157690162Y-76424041D01*
X157749178Y-76436586D01*
X157749180Y-76436586D01*
X157756937Y-76438235D01*
X157947911Y-76438235D01*
X157955672Y-76436585D01*
X157955675Y-76436585D01*
X157985124Y-76430326D01*
X158063387Y-76434429D01*
X158129113Y-76477113D01*
X158164692Y-76546942D01*
X158168000Y-76578418D01*
X158168000Y-81110496D01*
X158147716Y-81186196D01*
X158092300Y-81241612D01*
X158078179Y-81248807D01*
X157950501Y-81305652D01*
X157950495Y-81305655D01*
X157943248Y-81308882D01*
X157788747Y-81421134D01*
X157660960Y-81563056D01*
X157565473Y-81728444D01*
X157506458Y-81910072D01*
X157505629Y-81917961D01*
X157505628Y-81917965D01*
X157490235Y-82064425D01*
X157462149Y-82137591D01*
X157401244Y-82186911D01*
X157339664Y-82200000D01*
X150068663Y-82200000D01*
X149992963Y-82179716D01*
X149937547Y-82124300D01*
X149917263Y-82048600D01*
X149929487Y-81989001D01*
X149967279Y-81900749D01*
X149969406Y-81895782D01*
X149974613Y-81876352D01*
X149988409Y-81824862D01*
X149989690Y-81820082D01*
X150007000Y-81688600D01*
X150007000Y-76147400D01*
X150027284Y-76071700D01*
X150082700Y-76016284D01*
X150158400Y-75996000D01*
X156985915Y-75996000D01*
X157061615Y-76016284D01*
G37*
G04 #@! TD.AperFunction*
G04 #@! TA.AperFunction,Conductor*
G36*
X138111879Y-39218907D02*
G01*
X138147843Y-39268407D01*
X138147843Y-39329593D01*
X138144696Y-39337968D01*
X138138594Y-39352218D01*
X138118310Y-39427918D01*
X138101000Y-39559400D01*
X138101000Y-43885029D01*
X138105346Y-43951339D01*
X138110505Y-43990524D01*
X138120478Y-44043978D01*
X138174217Y-44178212D01*
X138175987Y-44181277D01*
X138211783Y-44243280D01*
X138211788Y-44243288D01*
X138213402Y-44246083D01*
X138214324Y-44247285D01*
X138230900Y-44301920D01*
X138230900Y-47815118D01*
X138222907Y-47854090D01*
X138188594Y-47934218D01*
X138168310Y-48009918D01*
X138151000Y-48141400D01*
X138151000Y-52908600D01*
X138168310Y-53040082D01*
X138188594Y-53115782D01*
X138189689Y-53118517D01*
X138223808Y-53203741D01*
X138230900Y-53240536D01*
X138230900Y-56239897D01*
X138227527Y-56265520D01*
X138218310Y-56299918D01*
X138201000Y-56431400D01*
X138201000Y-61398600D01*
X138218310Y-61530082D01*
X138219147Y-61533204D01*
X138227527Y-61564480D01*
X138230900Y-61590103D01*
X138230900Y-66914656D01*
X138211993Y-66972847D01*
X138201904Y-66984660D01*
X138170074Y-67016490D01*
X138138490Y-67056651D01*
X138099523Y-67106201D01*
X138099521Y-67106205D01*
X138095513Y-67111301D01*
X138038594Y-67244218D01*
X138018310Y-67319918D01*
X138001000Y-67451400D01*
X138001000Y-72972600D01*
X138018310Y-73104082D01*
X138038594Y-73179782D01*
X138083423Y-73291758D01*
X138170074Y-73407510D01*
X138201904Y-73439340D01*
X138229681Y-73493857D01*
X138230900Y-73509344D01*
X138230900Y-75642113D01*
X138211993Y-75700304D01*
X138165134Y-75734349D01*
X138165428Y-75735139D01*
X138162599Y-75736191D01*
X138162493Y-75736268D01*
X138162077Y-75736385D01*
X138159836Y-75737219D01*
X138154032Y-75738612D01*
X138075761Y-75779011D01*
X138008675Y-75813636D01*
X138008673Y-75813638D01*
X138003369Y-75816375D01*
X137875604Y-75927831D01*
X137778113Y-76066547D01*
X137716524Y-76224513D01*
X137694394Y-76392611D01*
X137712999Y-76561135D01*
X137771266Y-76720356D01*
X137865830Y-76861083D01*
X137991233Y-76975191D01*
X138072675Y-77019410D01*
X138114792Y-77063793D01*
X138122778Y-77124454D01*
X138116443Y-77145385D01*
X138088594Y-77210418D01*
X138068310Y-77286118D01*
X138051000Y-77417600D01*
X138051000Y-81688600D01*
X138068310Y-81820082D01*
X138088594Y-81895782D01*
X138133423Y-82007758D01*
X138137311Y-82012952D01*
X138137314Y-82012957D01*
X138211153Y-82111594D01*
X138230900Y-82170923D01*
X138230900Y-84335118D01*
X138222907Y-84374090D01*
X138188594Y-84454218D01*
X138168310Y-84529918D01*
X138151000Y-84661400D01*
X138151000Y-90137221D01*
X138152238Y-90172666D01*
X138153712Y-90193740D01*
X138155879Y-90217014D01*
X138192862Y-90356796D01*
X138194247Y-90360058D01*
X138223029Y-90427861D01*
X138230900Y-90466545D01*
X138230900Y-92481000D01*
X138211993Y-92539191D01*
X138162493Y-92575155D01*
X138131900Y-92580000D01*
X123757000Y-92580000D01*
X123698809Y-92561093D01*
X123662845Y-92511593D01*
X123658000Y-92481000D01*
X123658000Y-54258600D01*
X123651745Y-54179127D01*
X123646821Y-54148040D01*
X123623533Y-54056800D01*
X123556057Y-53928919D01*
X123519512Y-53878619D01*
X123501796Y-53855644D01*
X123503546Y-53854294D01*
X123481553Y-53806220D01*
X123480900Y-53794870D01*
X123480900Y-53650000D01*
X124400000Y-53650000D01*
X124400000Y-47015827D01*
X125803363Y-47015827D01*
X125811420Y-47023884D01*
X126051803Y-47146365D01*
X126056521Y-47148465D01*
X126399056Y-47279952D01*
X126403989Y-47281555D01*
X126758392Y-47376518D01*
X126763471Y-47377597D01*
X127125849Y-47434992D01*
X127131011Y-47435534D01*
X127497405Y-47454736D01*
X127502595Y-47454736D01*
X127868989Y-47435534D01*
X127874151Y-47434992D01*
X128236529Y-47377597D01*
X128241608Y-47376518D01*
X128596011Y-47281555D01*
X128600944Y-47279952D01*
X128943479Y-47148465D01*
X128948197Y-47146365D01*
X129188580Y-47023884D01*
X129196637Y-47015827D01*
X129191466Y-47005679D01*
X127511086Y-45325300D01*
X127499203Y-45319246D01*
X127494172Y-45320042D01*
X125808534Y-47005679D01*
X125803363Y-47015827D01*
X124400000Y-47015827D01*
X124400000Y-45585787D01*
X126074700Y-43911086D01*
X126079942Y-43900797D01*
X128919246Y-43900797D01*
X128920042Y-43905828D01*
X130605679Y-45591466D01*
X130615827Y-45596637D01*
X130623884Y-45588580D01*
X130746365Y-45348197D01*
X130748465Y-45343479D01*
X130879952Y-45000944D01*
X130881555Y-44996011D01*
X130976518Y-44641608D01*
X130977597Y-44636529D01*
X131034992Y-44274151D01*
X131035534Y-44268989D01*
X131054736Y-43902595D01*
X131054736Y-43897405D01*
X131035534Y-43531011D01*
X131034992Y-43525849D01*
X130977597Y-43163471D01*
X130976518Y-43158392D01*
X130881555Y-42803989D01*
X130879952Y-42799056D01*
X130748465Y-42456521D01*
X130746365Y-42451803D01*
X130623884Y-42211420D01*
X130615827Y-42203363D01*
X130605679Y-42208534D01*
X128925300Y-43888914D01*
X128919246Y-43900797D01*
X126079942Y-43900797D01*
X126080754Y-43899203D01*
X126079958Y-43894172D01*
X124400000Y-42214213D01*
X124400000Y-40784173D01*
X125803363Y-40784173D01*
X125808534Y-40794321D01*
X127488914Y-42474700D01*
X127500797Y-42480754D01*
X127505828Y-42479958D01*
X129191466Y-40794321D01*
X129196637Y-40784173D01*
X129188580Y-40776116D01*
X128948197Y-40653635D01*
X128943479Y-40651535D01*
X128600944Y-40520048D01*
X128596011Y-40518445D01*
X128241608Y-40423482D01*
X128236529Y-40422403D01*
X127874151Y-40365008D01*
X127868989Y-40364466D01*
X127502595Y-40345264D01*
X127497405Y-40345264D01*
X127131011Y-40364466D01*
X127125849Y-40365008D01*
X126763471Y-40422403D01*
X126758392Y-40423482D01*
X126403989Y-40518445D01*
X126399056Y-40520048D01*
X126056521Y-40651535D01*
X126051803Y-40653635D01*
X125811420Y-40776116D01*
X125803363Y-40784173D01*
X124400000Y-40784173D01*
X124400000Y-39200000D01*
X138053688Y-39200000D01*
X138111879Y-39218907D01*
G37*
G04 #@! TD.AperFunction*
G04 #@! TA.AperFunction,Conductor*
G36*
X139681021Y-56300284D02*
G01*
X139736437Y-56355700D01*
X139756721Y-56431400D01*
X139749311Y-56478184D01*
X139706458Y-56610072D01*
X139686496Y-56800000D01*
X139706458Y-56989928D01*
X139765473Y-57171556D01*
X139860960Y-57336944D01*
X139988747Y-57478866D01*
X140143248Y-57591118D01*
X140150493Y-57594344D01*
X140150497Y-57594346D01*
X140310463Y-57665567D01*
X140310467Y-57665568D01*
X140317712Y-57668794D01*
X140437738Y-57694306D01*
X140496754Y-57706851D01*
X140496756Y-57706851D01*
X140504513Y-57708500D01*
X140695487Y-57708500D01*
X140703244Y-57706851D01*
X140703246Y-57706851D01*
X140762262Y-57694306D01*
X140882288Y-57668794D01*
X140889533Y-57665568D01*
X140889537Y-57665567D01*
X141049503Y-57594346D01*
X141049507Y-57594344D01*
X141056752Y-57591118D01*
X141211253Y-57478866D01*
X141339040Y-57336944D01*
X141434527Y-57171556D01*
X141493542Y-56989928D01*
X141513504Y-56800000D01*
X141493542Y-56610072D01*
X141450689Y-56478185D01*
X141446587Y-56399923D01*
X141482166Y-56330094D01*
X141547893Y-56287410D01*
X141594679Y-56280000D01*
X149047600Y-56280000D01*
X149123300Y-56300284D01*
X149178716Y-56355700D01*
X149199000Y-56431400D01*
X149199000Y-61398600D01*
X149178716Y-61474300D01*
X149123300Y-61529716D01*
X149047600Y-61550000D01*
X138860400Y-61550000D01*
X138784700Y-61529716D01*
X138729284Y-61474300D01*
X138709000Y-61398600D01*
X138709000Y-56431400D01*
X138729284Y-56355700D01*
X138784700Y-56300284D01*
X138860400Y-56280000D01*
X139605321Y-56280000D01*
X139681021Y-56300284D01*
G37*
G04 #@! TD.AperFunction*
G04 #@! TA.AperFunction,Conductor*
G36*
X156532387Y-56516284D02*
G01*
X156569198Y-56546093D01*
X156688747Y-56678866D01*
X156843248Y-56791118D01*
X156850493Y-56794344D01*
X156850497Y-56794346D01*
X157010463Y-56865567D01*
X157010467Y-56865568D01*
X157017712Y-56868794D01*
X157137738Y-56894306D01*
X157196754Y-56906851D01*
X157196756Y-56906851D01*
X157204513Y-56908500D01*
X157395487Y-56908500D01*
X157403244Y-56906851D01*
X157403246Y-56906851D01*
X157462262Y-56894306D01*
X157582288Y-56868794D01*
X157589538Y-56865566D01*
X157597082Y-56863115D01*
X157597694Y-56864998D01*
X157664421Y-56854427D01*
X157737587Y-56882510D01*
X157786909Y-56943414D01*
X157800000Y-57004998D01*
X157800000Y-57328075D01*
X157779715Y-57403776D01*
X157769444Y-57421565D01*
X157769442Y-57421570D01*
X157765473Y-57428444D01*
X157706458Y-57610072D01*
X157686496Y-57800000D01*
X157706458Y-57989928D01*
X157765473Y-58171556D01*
X157769442Y-58178430D01*
X157769444Y-58178435D01*
X157779715Y-58196224D01*
X157800000Y-58271925D01*
X157800000Y-62248600D01*
X157779716Y-62324300D01*
X157724300Y-62379716D01*
X157648600Y-62400000D01*
X152763227Y-62400000D01*
X152687527Y-62379716D01*
X152674236Y-62371085D01*
X152663173Y-62363047D01*
X152663172Y-62363046D01*
X152656752Y-62358382D01*
X152649507Y-62355156D01*
X152649503Y-62355154D01*
X152489537Y-62283933D01*
X152489533Y-62283932D01*
X152482288Y-62280706D01*
X152362262Y-62255194D01*
X152303246Y-62242649D01*
X152303244Y-62242649D01*
X152295487Y-62241000D01*
X152104513Y-62241000D01*
X152096756Y-62242649D01*
X152096754Y-62242649D01*
X152037738Y-62255194D01*
X151917712Y-62280706D01*
X151910467Y-62283932D01*
X151910463Y-62283933D01*
X151750497Y-62355154D01*
X151750493Y-62355156D01*
X151743248Y-62358382D01*
X151736828Y-62363046D01*
X151736827Y-62363047D01*
X151725764Y-62371085D01*
X151652599Y-62399171D01*
X151636773Y-62400000D01*
X149683400Y-62400000D01*
X149607700Y-62379716D01*
X149552284Y-62324300D01*
X149532000Y-62248600D01*
X149532000Y-61893446D01*
X149552284Y-61817746D01*
X149564392Y-61799856D01*
X149606354Y-61746498D01*
X149606355Y-61746497D01*
X149612487Y-61738699D01*
X149669406Y-61605782D01*
X149689690Y-61530082D01*
X149707000Y-61398600D01*
X149707000Y-56647400D01*
X149727284Y-56571700D01*
X149782700Y-56516284D01*
X149858400Y-56496000D01*
X156456687Y-56496000D01*
X156532387Y-56516284D01*
G37*
G04 #@! TD.AperFunction*
G04 #@! TA.AperFunction,Conductor*
G36*
X139866019Y-67320284D02*
G01*
X139921435Y-67375700D01*
X139941719Y-67451400D01*
X139921435Y-67527100D01*
X139896249Y-67559570D01*
X139869493Y-67585771D01*
X139771235Y-67738238D01*
X139768340Y-67746192D01*
X139768339Y-67746194D01*
X139764611Y-67756438D01*
X139709197Y-67908685D01*
X139686463Y-68088640D01*
X139704163Y-68269160D01*
X139761418Y-68441273D01*
X139855380Y-68596424D01*
X139981382Y-68726902D01*
X139988468Y-68731539D01*
X140013729Y-68748069D01*
X140133159Y-68826222D01*
X140141094Y-68829173D01*
X140141096Y-68829174D01*
X140203488Y-68852377D01*
X140303168Y-68889448D01*
X140482961Y-68913438D01*
X140491389Y-68912671D01*
X140491392Y-68912671D01*
X140554573Y-68906921D01*
X140663600Y-68896998D01*
X140706150Y-68883173D01*
X140828061Y-68843562D01*
X140828064Y-68843561D01*
X140836108Y-68840947D01*
X140991912Y-68748069D01*
X141123266Y-68622982D01*
X141223643Y-68471902D01*
X141288055Y-68302338D01*
X141313299Y-68122717D01*
X141313616Y-68100000D01*
X141293397Y-67919745D01*
X141233745Y-67748448D01*
X141137626Y-67594624D01*
X141101338Y-67558082D01*
X141062390Y-67490075D01*
X141062663Y-67411705D01*
X141102085Y-67343971D01*
X141170092Y-67305023D01*
X141208767Y-67300000D01*
X149047600Y-67300000D01*
X149123300Y-67320284D01*
X149178716Y-67375700D01*
X149199000Y-67451400D01*
X149199000Y-72972600D01*
X149178716Y-73048300D01*
X149123300Y-73103716D01*
X149047600Y-73124000D01*
X147219372Y-73124000D01*
X147143672Y-73103716D01*
X147088256Y-73048300D01*
X147043009Y-72969930D01*
X147043008Y-72969928D01*
X147039040Y-72963056D01*
X147003211Y-72923263D01*
X146916565Y-72827034D01*
X146911253Y-72821134D01*
X146756752Y-72708882D01*
X146749507Y-72705656D01*
X146749503Y-72705654D01*
X146589537Y-72634433D01*
X146589533Y-72634432D01*
X146582288Y-72631206D01*
X146462262Y-72605694D01*
X146403246Y-72593149D01*
X146403244Y-72593149D01*
X146395487Y-72591500D01*
X146204513Y-72591500D01*
X146196756Y-72593149D01*
X146196754Y-72593149D01*
X146137738Y-72605694D01*
X146017712Y-72631206D01*
X146010467Y-72634432D01*
X146010463Y-72634433D01*
X145850497Y-72705654D01*
X145850493Y-72705656D01*
X145843248Y-72708882D01*
X145688747Y-72821134D01*
X145683435Y-72827034D01*
X145596790Y-72923263D01*
X145560960Y-72963056D01*
X145556992Y-72969928D01*
X145556991Y-72969930D01*
X145511744Y-73048300D01*
X145456328Y-73103716D01*
X145380628Y-73124000D01*
X142080167Y-73124000D01*
X142004467Y-73103716D01*
X141972738Y-73079281D01*
X141915782Y-73021926D01*
X141915778Y-73021923D01*
X141909815Y-73015918D01*
X141756666Y-72918727D01*
X141748696Y-72915889D01*
X141748694Y-72915888D01*
X141593760Y-72860719D01*
X141585790Y-72857881D01*
X141577389Y-72856879D01*
X141577388Y-72856879D01*
X141523834Y-72850493D01*
X141405680Y-72836404D01*
X141397269Y-72837288D01*
X141397267Y-72837288D01*
X141340132Y-72843293D01*
X141225288Y-72855364D01*
X141217278Y-72858091D01*
X141217277Y-72858091D01*
X141072458Y-72907391D01*
X140994259Y-72912585D01*
X140972880Y-72906696D01*
X140843760Y-72860719D01*
X140835790Y-72857881D01*
X140827389Y-72856879D01*
X140827388Y-72856879D01*
X140773834Y-72850493D01*
X140655680Y-72836404D01*
X140647269Y-72837288D01*
X140647267Y-72837288D01*
X140590132Y-72843293D01*
X140475288Y-72855364D01*
X140467278Y-72858091D01*
X140467277Y-72858091D01*
X140322458Y-72907391D01*
X140244259Y-72912585D01*
X140222880Y-72906696D01*
X140093760Y-72860719D01*
X140085790Y-72857881D01*
X140077389Y-72856879D01*
X140077388Y-72856879D01*
X140023834Y-72850493D01*
X139905680Y-72836404D01*
X139897269Y-72837288D01*
X139897267Y-72837288D01*
X139840132Y-72843293D01*
X139725288Y-72855364D01*
X139717278Y-72858091D01*
X139717277Y-72858091D01*
X139561592Y-72911090D01*
X139561591Y-72911091D01*
X139553579Y-72913818D01*
X139546370Y-72918253D01*
X139546368Y-72918254D01*
X139458031Y-72972600D01*
X139399088Y-73008862D01*
X139393038Y-73014787D01*
X139393035Y-73014789D01*
X139325657Y-73080771D01*
X139257380Y-73119243D01*
X139219728Y-73124000D01*
X138660400Y-73124000D01*
X138584700Y-73103716D01*
X138529284Y-73048300D01*
X138509000Y-72972600D01*
X138509000Y-67451400D01*
X138529284Y-67375700D01*
X138584700Y-67320284D01*
X138660400Y-67300000D01*
X139790319Y-67300000D01*
X139866019Y-67320284D01*
G37*
G04 #@! TD.AperFunction*
G04 #@! TA.AperFunction,Conductor*
G36*
X123108531Y-54177213D02*
G01*
X123145076Y-54227513D01*
X123150000Y-54258600D01*
X123150000Y-92599400D01*
X123130787Y-92658531D01*
X123080487Y-92695076D01*
X123049400Y-92700000D01*
X118200600Y-92700000D01*
X118141469Y-92680787D01*
X118104924Y-92630487D01*
X118100000Y-92599400D01*
X118100000Y-79829979D01*
X118119213Y-79770848D01*
X118125828Y-79762679D01*
X118239040Y-79636944D01*
X118334527Y-79471556D01*
X118393542Y-79289928D01*
X118413504Y-79100000D01*
X118393542Y-78910072D01*
X118334527Y-78728444D01*
X118239040Y-78563056D01*
X118125839Y-78437333D01*
X118100551Y-78380537D01*
X118100000Y-78370021D01*
X118100000Y-56518919D01*
X118119213Y-56459788D01*
X118125840Y-56451604D01*
X118135513Y-56440861D01*
X118139040Y-56436944D01*
X118234527Y-56271556D01*
X118293542Y-56089928D01*
X118313504Y-55900000D01*
X118293542Y-55710072D01*
X118234527Y-55528444D01*
X118139040Y-55363056D01*
X118125840Y-55348396D01*
X118100551Y-55291597D01*
X118100000Y-55281081D01*
X118100000Y-54258600D01*
X118119213Y-54199469D01*
X118169513Y-54162924D01*
X118200600Y-54158000D01*
X123049400Y-54158000D01*
X123108531Y-54177213D01*
G37*
G04 #@! TD.AperFunction*
G04 #@! TA.AperFunction,Conductor*
G36*
X139545279Y-48010284D02*
G01*
X139600695Y-48065700D01*
X139620979Y-48141400D01*
X139613569Y-48188184D01*
X139608912Y-48202517D01*
X139608911Y-48202524D01*
X139606458Y-48210072D01*
X139586496Y-48400000D01*
X139606458Y-48589928D01*
X139665473Y-48771556D01*
X139760960Y-48936944D01*
X139888747Y-49078866D01*
X140043248Y-49191118D01*
X140050493Y-49194344D01*
X140050497Y-49194346D01*
X140210463Y-49265567D01*
X140210467Y-49265568D01*
X140217712Y-49268794D01*
X140337738Y-49294306D01*
X140396754Y-49306851D01*
X140396756Y-49306851D01*
X140404513Y-49308500D01*
X140595487Y-49308500D01*
X140603244Y-49306851D01*
X140603246Y-49306851D01*
X140662262Y-49294306D01*
X140782288Y-49268794D01*
X140789533Y-49265568D01*
X140789537Y-49265567D01*
X140949503Y-49194346D01*
X140949507Y-49194344D01*
X140956752Y-49191118D01*
X141111253Y-49078866D01*
X141239040Y-48936944D01*
X141334527Y-48771556D01*
X141393542Y-48589928D01*
X141413504Y-48400000D01*
X141393542Y-48210072D01*
X141391089Y-48202524D01*
X141391088Y-48202517D01*
X141386431Y-48188184D01*
X141382330Y-48109921D01*
X141417910Y-48040093D01*
X141483637Y-47997410D01*
X141530421Y-47990000D01*
X149347600Y-47990000D01*
X149423300Y-48010284D01*
X149478716Y-48065700D01*
X149499000Y-48141400D01*
X149499000Y-52908600D01*
X149478716Y-52984300D01*
X149423300Y-53039716D01*
X149347600Y-53060000D01*
X147176303Y-53060000D01*
X147100603Y-53039716D01*
X147087313Y-53031085D01*
X147063178Y-53013550D01*
X147063173Y-53013547D01*
X147056752Y-53008882D01*
X147049507Y-53005656D01*
X147049503Y-53005654D01*
X146889537Y-52934433D01*
X146889533Y-52934432D01*
X146882288Y-52931206D01*
X146762262Y-52905694D01*
X146703246Y-52893149D01*
X146703244Y-52893149D01*
X146695487Y-52891500D01*
X146504513Y-52891500D01*
X146496756Y-52893149D01*
X146496754Y-52893149D01*
X146437738Y-52905694D01*
X146317712Y-52931206D01*
X146310467Y-52934432D01*
X146310463Y-52934433D01*
X146150497Y-53005654D01*
X146150493Y-53005656D01*
X146143248Y-53008882D01*
X146136827Y-53013547D01*
X146136822Y-53013550D01*
X146112687Y-53031085D01*
X146039522Y-53059171D01*
X146023697Y-53060000D01*
X138810400Y-53060000D01*
X138734700Y-53039716D01*
X138679284Y-52984300D01*
X138659000Y-52908600D01*
X138659000Y-48141400D01*
X138679284Y-48065700D01*
X138734700Y-48010284D01*
X138810400Y-47990000D01*
X139469579Y-47990000D01*
X139545279Y-48010284D01*
G37*
G04 #@! TD.AperFunction*
G04 #@! TA.AperFunction,Conductor*
G36*
X139214503Y-84530284D02*
G01*
X139269919Y-84585700D01*
X139290203Y-84661400D01*
X139269919Y-84737100D01*
X139251315Y-84762706D01*
X139160960Y-84863056D01*
X139065473Y-85028444D01*
X139006458Y-85210072D01*
X138986496Y-85400000D01*
X139006458Y-85589928D01*
X139065473Y-85771556D01*
X139160960Y-85936944D01*
X139288747Y-86078866D01*
X139443248Y-86191118D01*
X139450493Y-86194344D01*
X139450497Y-86194346D01*
X139610463Y-86265567D01*
X139610467Y-86265568D01*
X139617712Y-86268794D01*
X139737738Y-86294306D01*
X139796754Y-86306851D01*
X139796756Y-86306851D01*
X139804513Y-86308500D01*
X139995487Y-86308500D01*
X140003244Y-86306851D01*
X140003246Y-86306851D01*
X140062262Y-86294306D01*
X140182288Y-86268794D01*
X140189533Y-86265568D01*
X140189537Y-86265567D01*
X140349503Y-86194346D01*
X140349507Y-86194344D01*
X140356752Y-86191118D01*
X140511253Y-86078866D01*
X140639040Y-85936944D01*
X140734527Y-85771556D01*
X140793542Y-85589928D01*
X140813504Y-85400000D01*
X140793542Y-85210072D01*
X140734527Y-85028444D01*
X140639040Y-84863056D01*
X140548685Y-84762706D01*
X140513105Y-84692877D01*
X140517207Y-84614614D01*
X140559891Y-84548888D01*
X140629720Y-84513308D01*
X140661197Y-84510000D01*
X152297600Y-84510000D01*
X152373300Y-84530284D01*
X152428716Y-84585700D01*
X152449000Y-84661400D01*
X152449000Y-91678600D01*
X152428716Y-91754300D01*
X152373300Y-91809716D01*
X152297600Y-91830000D01*
X147331663Y-91830000D01*
X147255963Y-91809716D01*
X147219151Y-91779906D01*
X147211253Y-91771134D01*
X147087042Y-91680889D01*
X147063173Y-91663547D01*
X147063172Y-91663546D01*
X147056752Y-91658882D01*
X147049507Y-91655656D01*
X147049503Y-91655654D01*
X146889537Y-91584433D01*
X146889533Y-91584432D01*
X146882288Y-91581206D01*
X146762262Y-91555694D01*
X146703246Y-91543149D01*
X146703244Y-91543149D01*
X146695487Y-91541500D01*
X146504513Y-91541500D01*
X146496756Y-91543149D01*
X146496754Y-91543149D01*
X146437738Y-91555694D01*
X146317712Y-91581206D01*
X146310467Y-91584432D01*
X146310463Y-91584433D01*
X146150497Y-91655654D01*
X146150493Y-91655656D01*
X146143248Y-91658882D01*
X146136828Y-91663546D01*
X146136827Y-91663547D01*
X146039019Y-91734609D01*
X145965854Y-91762695D01*
X145888448Y-91750435D01*
X145868904Y-91739955D01*
X145772223Y-91678600D01*
X145756666Y-91668727D01*
X145748696Y-91665889D01*
X145748694Y-91665888D01*
X145593760Y-91610719D01*
X145585790Y-91607881D01*
X145577389Y-91606879D01*
X145577388Y-91606879D01*
X145523834Y-91600493D01*
X145405680Y-91586404D01*
X145397269Y-91587288D01*
X145397267Y-91587288D01*
X145347262Y-91592544D01*
X145225288Y-91605364D01*
X145217278Y-91608091D01*
X145217277Y-91608091D01*
X145072458Y-91657391D01*
X144994259Y-91662585D01*
X144972880Y-91656696D01*
X144907387Y-91633375D01*
X144835790Y-91607881D01*
X144827390Y-91606879D01*
X144827384Y-91606878D01*
X144826319Y-91606751D01*
X144825578Y-91606454D01*
X144819146Y-91604946D01*
X144819374Y-91603973D01*
X144753554Y-91577644D01*
X144705092Y-91516054D01*
X144697200Y-91486184D01*
X144696215Y-91486408D01*
X144694340Y-91478155D01*
X144693397Y-91469745D01*
X144689546Y-91458685D01*
X144636527Y-91306438D01*
X144633745Y-91298448D01*
X144537626Y-91144624D01*
X144462687Y-91069160D01*
X144415778Y-91021922D01*
X144415774Y-91021919D01*
X144409815Y-91015918D01*
X144256666Y-90918727D01*
X144248696Y-90915889D01*
X144248694Y-90915888D01*
X144093760Y-90860719D01*
X144085790Y-90857881D01*
X144077389Y-90856879D01*
X144077388Y-90856879D01*
X144023834Y-90850493D01*
X143905680Y-90836404D01*
X143897269Y-90837288D01*
X143897267Y-90837288D01*
X143847262Y-90842544D01*
X143725288Y-90855364D01*
X143717278Y-90858091D01*
X143717277Y-90858091D01*
X143572458Y-90907391D01*
X143494259Y-90912585D01*
X143472880Y-90906696D01*
X143343760Y-90860719D01*
X143335790Y-90857881D01*
X143327389Y-90856879D01*
X143327388Y-90856879D01*
X143273834Y-90850493D01*
X143155680Y-90836404D01*
X143147269Y-90837288D01*
X143147267Y-90837288D01*
X143097262Y-90842544D01*
X142975288Y-90855364D01*
X142967278Y-90858091D01*
X142967277Y-90858091D01*
X142822458Y-90907391D01*
X142744259Y-90912585D01*
X142722880Y-90906696D01*
X142593760Y-90860719D01*
X142585790Y-90857881D01*
X142577389Y-90856879D01*
X142577388Y-90856879D01*
X142523834Y-90850493D01*
X142405680Y-90836404D01*
X142397269Y-90837288D01*
X142397267Y-90837288D01*
X142347262Y-90842544D01*
X142225288Y-90855364D01*
X142217278Y-90858091D01*
X142217277Y-90858091D01*
X142072458Y-90907391D01*
X141994259Y-90912585D01*
X141972880Y-90906696D01*
X141907387Y-90883375D01*
X141835790Y-90857881D01*
X141827390Y-90856879D01*
X141827384Y-90856878D01*
X141826319Y-90856751D01*
X141825578Y-90856454D01*
X141819146Y-90854946D01*
X141819374Y-90853973D01*
X141753554Y-90827644D01*
X141705092Y-90766054D01*
X141697200Y-90736184D01*
X141696215Y-90736408D01*
X141694340Y-90728155D01*
X141693397Y-90719745D01*
X141689546Y-90708685D01*
X141636527Y-90556438D01*
X141633745Y-90548448D01*
X141537626Y-90394624D01*
X141528835Y-90385771D01*
X141415778Y-90271922D01*
X141415774Y-90271919D01*
X141409815Y-90265918D01*
X141256666Y-90168727D01*
X141248696Y-90165889D01*
X141248694Y-90165888D01*
X141093760Y-90110719D01*
X141085790Y-90107881D01*
X141077389Y-90106879D01*
X141077388Y-90106879D01*
X141023834Y-90100493D01*
X140905680Y-90086404D01*
X140897269Y-90087288D01*
X140897267Y-90087288D01*
X140840132Y-90093293D01*
X140725288Y-90105364D01*
X140717278Y-90108091D01*
X140717277Y-90108091D01*
X140572458Y-90157391D01*
X140494259Y-90162585D01*
X140472880Y-90156696D01*
X140343760Y-90110719D01*
X140335790Y-90107881D01*
X140327389Y-90106879D01*
X140327388Y-90106879D01*
X140273834Y-90100493D01*
X140155680Y-90086404D01*
X140147269Y-90087288D01*
X140147267Y-90087288D01*
X140090132Y-90093293D01*
X139975288Y-90105364D01*
X139967278Y-90108091D01*
X139967277Y-90108091D01*
X139822458Y-90157391D01*
X139744259Y-90162585D01*
X139722880Y-90156696D01*
X139593760Y-90110719D01*
X139585790Y-90107881D01*
X139577389Y-90106879D01*
X139577388Y-90106879D01*
X139523834Y-90100493D01*
X139405680Y-90086404D01*
X139397269Y-90087288D01*
X139397267Y-90087288D01*
X139340132Y-90093293D01*
X139225288Y-90105364D01*
X139217278Y-90108091D01*
X139217277Y-90108091D01*
X139061592Y-90161090D01*
X139061591Y-90161091D01*
X139053579Y-90163818D01*
X139046370Y-90168253D01*
X139046368Y-90168254D01*
X138945297Y-90230434D01*
X138901278Y-90257515D01*
X138901275Y-90257516D01*
X138899088Y-90258862D01*
X138898885Y-90258531D01*
X138831474Y-90287147D01*
X138753687Y-90277598D01*
X138691097Y-90230434D01*
X138660474Y-90158295D01*
X138659000Y-90137221D01*
X138659000Y-84661400D01*
X138679284Y-84585700D01*
X138734700Y-84530284D01*
X138810400Y-84510000D01*
X139138803Y-84510000D01*
X139214503Y-84530284D01*
G37*
G04 #@! TD.AperFunction*
G04 #@! TA.AperFunction,Conductor*
G36*
X124400000Y-41769898D02*
G01*
X124216679Y-42062137D01*
X124214229Y-42066520D01*
X124047754Y-42403356D01*
X124045770Y-42407941D01*
X123914181Y-42759893D01*
X123912670Y-42764659D01*
X123817326Y-43128086D01*
X123816300Y-43132994D01*
X123758172Y-43504194D01*
X123757647Y-43509187D01*
X123737328Y-43884368D01*
X123737311Y-43889363D01*
X123755010Y-44264686D01*
X123755497Y-44269660D01*
X123811036Y-44641278D01*
X123812023Y-44646173D01*
X123904833Y-45010277D01*
X123906312Y-45015054D01*
X124035434Y-45367897D01*
X124037394Y-45372513D01*
X124201508Y-45710494D01*
X124203927Y-45714895D01*
X124400000Y-46032362D01*
X124400000Y-53650000D01*
X117409200Y-53650000D01*
X117390955Y-53648304D01*
X115780966Y-53346431D01*
X115727257Y-53317124D01*
X115700928Y-53261021D01*
X115685993Y-53137602D01*
X115685992Y-53137599D01*
X115685276Y-53131680D01*
X115625345Y-52973077D01*
X115567294Y-52888612D01*
X115532692Y-52838267D01*
X115529312Y-52833349D01*
X115402721Y-52720560D01*
X115252881Y-52641224D01*
X115170661Y-52620571D01*
X115094231Y-52601373D01*
X115094228Y-52601373D01*
X115088441Y-52599919D01*
X115002841Y-52599471D01*
X114924861Y-52599062D01*
X114924859Y-52599062D01*
X114918895Y-52599031D01*
X114913099Y-52600423D01*
X114913095Y-52600423D01*
X114805703Y-52626207D01*
X114754032Y-52638612D01*
X114678701Y-52677493D01*
X114608675Y-52713636D01*
X114608673Y-52713638D01*
X114603369Y-52716375D01*
X114475604Y-52827831D01*
X114472173Y-52832713D01*
X114472172Y-52832714D01*
X114431051Y-52891224D01*
X114378113Y-52966547D01*
X114375945Y-52972108D01*
X114365472Y-52998969D01*
X114326718Y-53046317D01*
X114267536Y-53061843D01*
X114254996Y-53060312D01*
X111794997Y-52599062D01*
X109404514Y-52150846D01*
X109404510Y-52150846D01*
X109400000Y-52150000D01*
X93499000Y-52150000D01*
X93440809Y-52131093D01*
X93404845Y-52081593D01*
X93400000Y-52051000D01*
X93400000Y-51110360D01*
X93400988Y-51096411D01*
X93405034Y-51067984D01*
X93405034Y-51067980D01*
X93405490Y-51064778D01*
X93405645Y-51050000D01*
X93400717Y-51009277D01*
X93400000Y-50997384D01*
X93400000Y-50592611D01*
X107094394Y-50592611D01*
X107095049Y-50598544D01*
X107095049Y-50598548D01*
X107095566Y-50603231D01*
X107112999Y-50761135D01*
X107171266Y-50920356D01*
X107174591Y-50925305D01*
X107174592Y-50925306D01*
X107187689Y-50944796D01*
X107265830Y-51061083D01*
X107391233Y-51175191D01*
X107540235Y-51256092D01*
X107575189Y-51265262D01*
X107698464Y-51297603D01*
X107698468Y-51297604D01*
X107704233Y-51299116D01*
X107710194Y-51299210D01*
X107710197Y-51299210D01*
X107788965Y-51300447D01*
X107873760Y-51301779D01*
X107879575Y-51300447D01*
X107879577Y-51300447D01*
X108033206Y-51265262D01*
X108033209Y-51265261D01*
X108039029Y-51263928D01*
X108054610Y-51256092D01*
X108185165Y-51190429D01*
X108190498Y-51187747D01*
X108195035Y-51183872D01*
X108195038Y-51183870D01*
X108314888Y-51081508D01*
X108314891Y-51081505D01*
X108319423Y-51077634D01*
X108344590Y-51042611D01*
X108414877Y-50944796D01*
X108414878Y-50944794D01*
X108418361Y-50939947D01*
X108441785Y-50881680D01*
X108479377Y-50788167D01*
X108479378Y-50788165D01*
X108481601Y-50782634D01*
X108490077Y-50723077D01*
X108505034Y-50617985D01*
X108505034Y-50617979D01*
X108505490Y-50614778D01*
X108505645Y-50600000D01*
X108490624Y-50475870D01*
X108485993Y-50437602D01*
X108485992Y-50437599D01*
X108485276Y-50431680D01*
X108425345Y-50273077D01*
X108402576Y-50239947D01*
X108332692Y-50138267D01*
X108329312Y-50133349D01*
X108202721Y-50020560D01*
X108052881Y-49941224D01*
X107960360Y-49917984D01*
X107894231Y-49901373D01*
X107894228Y-49901373D01*
X107888441Y-49899919D01*
X107802841Y-49899471D01*
X107724861Y-49899062D01*
X107724859Y-49899062D01*
X107718895Y-49899031D01*
X107713099Y-49900423D01*
X107713095Y-49900423D01*
X107605703Y-49926207D01*
X107554032Y-49938612D01*
X107538922Y-49946411D01*
X107408675Y-50013636D01*
X107408673Y-50013638D01*
X107403369Y-50016375D01*
X107275604Y-50127831D01*
X107178113Y-50266547D01*
X107175945Y-50272108D01*
X107134802Y-50377634D01*
X107116524Y-50424513D01*
X107094394Y-50592611D01*
X93400000Y-50592611D01*
X93400000Y-49960360D01*
X93400988Y-49946411D01*
X93405034Y-49917984D01*
X93405034Y-49917980D01*
X93405490Y-49914778D01*
X93405645Y-49900000D01*
X93400717Y-49859277D01*
X93400000Y-49847384D01*
X93400000Y-48992611D01*
X111194394Y-48992611D01*
X111195049Y-48998544D01*
X111195049Y-48998548D01*
X111212344Y-49155204D01*
X111212999Y-49161135D01*
X111271266Y-49320356D01*
X111274591Y-49325305D01*
X111274592Y-49325306D01*
X111287689Y-49344796D01*
X111365830Y-49461083D01*
X111491233Y-49575191D01*
X111640235Y-49656092D01*
X111675189Y-49665262D01*
X111798464Y-49697603D01*
X111798468Y-49697604D01*
X111804233Y-49699116D01*
X111810194Y-49699210D01*
X111810197Y-49699210D01*
X111888965Y-49700447D01*
X111973760Y-49701779D01*
X111979575Y-49700447D01*
X111979577Y-49700447D01*
X112133206Y-49665262D01*
X112133209Y-49665261D01*
X112139029Y-49663928D01*
X112154610Y-49656092D01*
X112285165Y-49590429D01*
X112290498Y-49587747D01*
X112295035Y-49583872D01*
X112295038Y-49583870D01*
X112414888Y-49481508D01*
X112414891Y-49481505D01*
X112419423Y-49477634D01*
X112455210Y-49427831D01*
X112514877Y-49344796D01*
X112514878Y-49344794D01*
X112518361Y-49339947D01*
X112529965Y-49311083D01*
X112579377Y-49188167D01*
X112579378Y-49188165D01*
X112581601Y-49182634D01*
X112582442Y-49176727D01*
X112605034Y-49017985D01*
X112605034Y-49017979D01*
X112605490Y-49014778D01*
X112605645Y-49000000D01*
X112594792Y-48910314D01*
X112585993Y-48837602D01*
X112585992Y-48837599D01*
X112585276Y-48831680D01*
X112525345Y-48673077D01*
X112429312Y-48533349D01*
X112302721Y-48420560D01*
X112152881Y-48341224D01*
X112070661Y-48320571D01*
X111994231Y-48301373D01*
X111994228Y-48301373D01*
X111988441Y-48299919D01*
X111902841Y-48299471D01*
X111824861Y-48299062D01*
X111824859Y-48299062D01*
X111818895Y-48299031D01*
X111813099Y-48300423D01*
X111813095Y-48300423D01*
X111705703Y-48326207D01*
X111654032Y-48338612D01*
X111578700Y-48377494D01*
X111508675Y-48413636D01*
X111508673Y-48413638D01*
X111503369Y-48416375D01*
X111375604Y-48527831D01*
X111278113Y-48666547D01*
X111216524Y-48824513D01*
X111194394Y-48992611D01*
X93400000Y-48992611D01*
X93400000Y-45892611D01*
X99494394Y-45892611D01*
X99495049Y-45898544D01*
X99495049Y-45898548D01*
X99512344Y-46055204D01*
X99512999Y-46061135D01*
X99571266Y-46220356D01*
X99574591Y-46225305D01*
X99574592Y-46225306D01*
X99587689Y-46244796D01*
X99665830Y-46361083D01*
X99791233Y-46475191D01*
X99940235Y-46556092D01*
X99975189Y-46565262D01*
X100098464Y-46597603D01*
X100098468Y-46597604D01*
X100104233Y-46599116D01*
X100110194Y-46599210D01*
X100110197Y-46599210D01*
X100188965Y-46600447D01*
X100273760Y-46601779D01*
X100279575Y-46600447D01*
X100279577Y-46600447D01*
X100433206Y-46565262D01*
X100433209Y-46565261D01*
X100439029Y-46563928D01*
X100451599Y-46557606D01*
X100585172Y-46490426D01*
X100585174Y-46490425D01*
X100590498Y-46487747D01*
X100634794Y-46449914D01*
X100691321Y-46426501D01*
X100750816Y-46440785D01*
X100765717Y-46451973D01*
X100777628Y-46462811D01*
X100791233Y-46475191D01*
X100796479Y-46478039D01*
X100796480Y-46478040D01*
X100819298Y-46490429D01*
X100940235Y-46556092D01*
X100975189Y-46565262D01*
X101098464Y-46597603D01*
X101098468Y-46597604D01*
X101104233Y-46599116D01*
X101110194Y-46599210D01*
X101110197Y-46599210D01*
X101188965Y-46600447D01*
X101273760Y-46601779D01*
X101279575Y-46600447D01*
X101279577Y-46600447D01*
X101433206Y-46565262D01*
X101433209Y-46565261D01*
X101439029Y-46563928D01*
X101454610Y-46556092D01*
X101560487Y-46502841D01*
X101590498Y-46487747D01*
X101595035Y-46483872D01*
X101595038Y-46483870D01*
X101605199Y-46475191D01*
X101609000Y-46471944D01*
X101665526Y-46448529D01*
X101725021Y-46462811D01*
X101731814Y-46467911D01*
X101731952Y-46467716D01*
X101736819Y-46471175D01*
X101741233Y-46475191D01*
X101746479Y-46478039D01*
X101746480Y-46478040D01*
X101769298Y-46490429D01*
X101890235Y-46556092D01*
X101925189Y-46565262D01*
X102048464Y-46597603D01*
X102048468Y-46597604D01*
X102054233Y-46599116D01*
X102060194Y-46599210D01*
X102060197Y-46599210D01*
X102138965Y-46600447D01*
X102223760Y-46601779D01*
X102229575Y-46600447D01*
X102229577Y-46600447D01*
X102383206Y-46565262D01*
X102383209Y-46565261D01*
X102389029Y-46563928D01*
X102404610Y-46556092D01*
X102510487Y-46502841D01*
X102540498Y-46487747D01*
X102545035Y-46483872D01*
X102545038Y-46483870D01*
X102664888Y-46381508D01*
X102664891Y-46381505D01*
X102669423Y-46377634D01*
X102768361Y-46239947D01*
X102781834Y-46206434D01*
X102784420Y-46200000D01*
X105794318Y-46200000D01*
X105814956Y-46356762D01*
X105875464Y-46502841D01*
X105971718Y-46628282D01*
X106097159Y-46724536D01*
X106243238Y-46785044D01*
X106400000Y-46805682D01*
X106556762Y-46785044D01*
X106702841Y-46724536D01*
X106828282Y-46628282D01*
X106924536Y-46502841D01*
X106985044Y-46356762D01*
X107005682Y-46200000D01*
X106985044Y-46043238D01*
X106924536Y-45897159D01*
X106828282Y-45771718D01*
X106702841Y-45675464D01*
X106556762Y-45614956D01*
X106400000Y-45594318D01*
X106243238Y-45614956D01*
X106097159Y-45675464D01*
X105971718Y-45771718D01*
X105875464Y-45897159D01*
X105814956Y-46043238D01*
X105794318Y-46200000D01*
X102784420Y-46200000D01*
X102829377Y-46088167D01*
X102829378Y-46088165D01*
X102831601Y-46082634D01*
X102837208Y-46043238D01*
X102855034Y-45917985D01*
X102855034Y-45917979D01*
X102855490Y-45914778D01*
X102855645Y-45900000D01*
X102835276Y-45731680D01*
X102775345Y-45573077D01*
X102694314Y-45455177D01*
X102676937Y-45396514D01*
X102695507Y-45341334D01*
X102764877Y-45244796D01*
X102764878Y-45244794D01*
X102768361Y-45239947D01*
X102831601Y-45082634D01*
X102841899Y-45010277D01*
X102855034Y-44917985D01*
X102855034Y-44917979D01*
X102855490Y-44914778D01*
X102855645Y-44900000D01*
X102835276Y-44731680D01*
X102775345Y-44573077D01*
X102679312Y-44433349D01*
X102552721Y-44320560D01*
X102402881Y-44241224D01*
X102320661Y-44220571D01*
X102244231Y-44201373D01*
X102244228Y-44201373D01*
X102238441Y-44199919D01*
X102152841Y-44199471D01*
X102074861Y-44199062D01*
X102074859Y-44199062D01*
X102068895Y-44199031D01*
X102063099Y-44200423D01*
X102063095Y-44200423D01*
X101955703Y-44226207D01*
X101904032Y-44238612D01*
X101853515Y-44264686D01*
X101758675Y-44313636D01*
X101758673Y-44313638D01*
X101753369Y-44316375D01*
X101748874Y-44320297D01*
X101748870Y-44320299D01*
X101740647Y-44327473D01*
X101684367Y-44351478D01*
X101624726Y-44337818D01*
X101609704Y-44326782D01*
X101602721Y-44320560D01*
X101452881Y-44241224D01*
X101370661Y-44220571D01*
X101294231Y-44201373D01*
X101294228Y-44201373D01*
X101288441Y-44199919D01*
X101202841Y-44199471D01*
X101124861Y-44199062D01*
X101124859Y-44199062D01*
X101118895Y-44199031D01*
X101113099Y-44200423D01*
X101113095Y-44200423D01*
X101005703Y-44226207D01*
X100954032Y-44238612D01*
X100903515Y-44264686D01*
X100808675Y-44313636D01*
X100808673Y-44313638D01*
X100803369Y-44316375D01*
X100798874Y-44320297D01*
X100798870Y-44320299D01*
X100778788Y-44337818D01*
X100766171Y-44348825D01*
X100765383Y-44349512D01*
X100709103Y-44373517D01*
X100649462Y-44359857D01*
X100634449Y-44348829D01*
X100602721Y-44320560D01*
X100452881Y-44241224D01*
X100370661Y-44220571D01*
X100294231Y-44201373D01*
X100294228Y-44201373D01*
X100288441Y-44199919D01*
X100202841Y-44199471D01*
X100124861Y-44199062D01*
X100124859Y-44199062D01*
X100118895Y-44199031D01*
X100113099Y-44200423D01*
X100113095Y-44200423D01*
X100005703Y-44226207D01*
X99954032Y-44238612D01*
X99903515Y-44264686D01*
X99808675Y-44313636D01*
X99808673Y-44313638D01*
X99803369Y-44316375D01*
X99675604Y-44427831D01*
X99578113Y-44566547D01*
X99516524Y-44724513D01*
X99494394Y-44892611D01*
X99495049Y-44898544D01*
X99495049Y-44898548D01*
X99512344Y-45055204D01*
X99512999Y-45061135D01*
X99571266Y-45220356D01*
X99574595Y-45225310D01*
X99655587Y-45345841D01*
X99672349Y-45404685D01*
X99654413Y-45457982D01*
X99581544Y-45561665D01*
X99578113Y-45566547D01*
X99516524Y-45724513D01*
X99494394Y-45892611D01*
X93400000Y-45892611D01*
X93400000Y-43392611D01*
X108894394Y-43392611D01*
X108895049Y-43398544D01*
X108895049Y-43398548D01*
X108909381Y-43528362D01*
X108912999Y-43561135D01*
X108971266Y-43720356D01*
X108974591Y-43725305D01*
X108974592Y-43725306D01*
X108987689Y-43744796D01*
X109065830Y-43861083D01*
X109191233Y-43975191D01*
X109340235Y-44056092D01*
X109375189Y-44065262D01*
X109498464Y-44097603D01*
X109498468Y-44097604D01*
X109504233Y-44099116D01*
X109510194Y-44099210D01*
X109510197Y-44099210D01*
X109588996Y-44100447D01*
X109673760Y-44101779D01*
X109679575Y-44100447D01*
X109679577Y-44100447D01*
X109833206Y-44065262D01*
X109833209Y-44065261D01*
X109839029Y-44063928D01*
X109854610Y-44056092D01*
X109985165Y-43990429D01*
X109990498Y-43987747D01*
X109995035Y-43983872D01*
X109995038Y-43983870D01*
X110093237Y-43900000D01*
X116194627Y-43900000D01*
X116214104Y-44271638D01*
X116214509Y-44274196D01*
X116214510Y-44274204D01*
X116239716Y-44433349D01*
X116272320Y-44639204D01*
X116272991Y-44641708D01*
X116272992Y-44641713D01*
X116345294Y-44911545D01*
X116368639Y-44998671D01*
X116502005Y-45346100D01*
X116503178Y-45348403D01*
X116503182Y-45348411D01*
X116617162Y-45572108D01*
X116670957Y-45677686D01*
X116672368Y-45679858D01*
X116672371Y-45679864D01*
X116872226Y-45987615D01*
X116872232Y-45987623D01*
X116873643Y-45989796D01*
X117107843Y-46279009D01*
X117370991Y-46542157D01*
X117660204Y-46776357D01*
X117662377Y-46777768D01*
X117662385Y-46777774D01*
X117970135Y-46977629D01*
X117970141Y-46977632D01*
X117972313Y-46979043D01*
X117974621Y-46980219D01*
X118301589Y-47146818D01*
X118301597Y-47146822D01*
X118303900Y-47147995D01*
X118651329Y-47281361D01*
X118653826Y-47282030D01*
X118653832Y-47282032D01*
X119008287Y-47377008D01*
X119008292Y-47377009D01*
X119010796Y-47377680D01*
X119013367Y-47378087D01*
X119013366Y-47378087D01*
X119375796Y-47435490D01*
X119375804Y-47435491D01*
X119378362Y-47435896D01*
X119750000Y-47455373D01*
X120121638Y-47435896D01*
X120124196Y-47435491D01*
X120124204Y-47435490D01*
X120486634Y-47378087D01*
X120486633Y-47378087D01*
X120489204Y-47377680D01*
X120491708Y-47377009D01*
X120491713Y-47377008D01*
X120846168Y-47282032D01*
X120846174Y-47282030D01*
X120848671Y-47281361D01*
X121196100Y-47147995D01*
X121198403Y-47146822D01*
X121198411Y-47146818D01*
X121525379Y-46980219D01*
X121527687Y-46979043D01*
X121529859Y-46977632D01*
X121529865Y-46977629D01*
X121837615Y-46777774D01*
X121837623Y-46777768D01*
X121839796Y-46776357D01*
X122129009Y-46542157D01*
X122392157Y-46279009D01*
X122626357Y-45989796D01*
X122627768Y-45987623D01*
X122627774Y-45987615D01*
X122827629Y-45679864D01*
X122827632Y-45679858D01*
X122829043Y-45677686D01*
X122882838Y-45572108D01*
X122996818Y-45348411D01*
X122996822Y-45348403D01*
X122997995Y-45346100D01*
X123131361Y-44998671D01*
X123154707Y-44911545D01*
X123227008Y-44641713D01*
X123227009Y-44641708D01*
X123227680Y-44639204D01*
X123260284Y-44433349D01*
X123285490Y-44274204D01*
X123285491Y-44274196D01*
X123285896Y-44271638D01*
X123305373Y-43900000D01*
X123285896Y-43528362D01*
X123282069Y-43504194D01*
X123228087Y-43163366D01*
X123227680Y-43160796D01*
X123227008Y-43158287D01*
X123132032Y-42803832D01*
X123132030Y-42803826D01*
X123131361Y-42801329D01*
X122997995Y-42453900D01*
X122996822Y-42451597D01*
X122996818Y-42451589D01*
X122830219Y-42124622D01*
X122829043Y-42122314D01*
X122822050Y-42111545D01*
X122627774Y-41812385D01*
X122627768Y-41812377D01*
X122626357Y-41810204D01*
X122392157Y-41520991D01*
X122129009Y-41257843D01*
X121839796Y-41023643D01*
X121837623Y-41022232D01*
X121837615Y-41022226D01*
X121529865Y-40822371D01*
X121529859Y-40822368D01*
X121527687Y-40820957D01*
X121484655Y-40799031D01*
X121198411Y-40653182D01*
X121198403Y-40653178D01*
X121196100Y-40652005D01*
X120848671Y-40518639D01*
X120846174Y-40517970D01*
X120846168Y-40517968D01*
X120491713Y-40422992D01*
X120491708Y-40422991D01*
X120489204Y-40422320D01*
X120452274Y-40416471D01*
X120124204Y-40364510D01*
X120124196Y-40364509D01*
X120121638Y-40364104D01*
X119750000Y-40344627D01*
X119378362Y-40364104D01*
X119375804Y-40364509D01*
X119375796Y-40364510D01*
X119047726Y-40416471D01*
X119010796Y-40422320D01*
X119008292Y-40422991D01*
X119008287Y-40422992D01*
X118653832Y-40517968D01*
X118653826Y-40517970D01*
X118651329Y-40518639D01*
X118303900Y-40652005D01*
X118301597Y-40653178D01*
X118301589Y-40653182D01*
X118065663Y-40773393D01*
X117972314Y-40820957D01*
X117970142Y-40822368D01*
X117970136Y-40822371D01*
X117662385Y-41022226D01*
X117662377Y-41022232D01*
X117660204Y-41023643D01*
X117370991Y-41257843D01*
X117107843Y-41520991D01*
X116873643Y-41810204D01*
X116872232Y-41812377D01*
X116872226Y-41812385D01*
X116677950Y-42111545D01*
X116670957Y-42122314D01*
X116669781Y-42124622D01*
X116503182Y-42451589D01*
X116503178Y-42451597D01*
X116502005Y-42453900D01*
X116368639Y-42801329D01*
X116367970Y-42803826D01*
X116367968Y-42803832D01*
X116272992Y-43158287D01*
X116272320Y-43160796D01*
X116271913Y-43163366D01*
X116217932Y-43504194D01*
X116214104Y-43528362D01*
X116194627Y-43900000D01*
X110093237Y-43900000D01*
X110114888Y-43881508D01*
X110114891Y-43881505D01*
X110119423Y-43877634D01*
X110218361Y-43739947D01*
X110281601Y-43582634D01*
X110285505Y-43555204D01*
X110305034Y-43417985D01*
X110305034Y-43417979D01*
X110305490Y-43414778D01*
X110305645Y-43400000D01*
X110285276Y-43231680D01*
X110225345Y-43073077D01*
X110129312Y-42933349D01*
X110002721Y-42820560D01*
X109990196Y-42813928D01*
X109959363Y-42797603D01*
X109852881Y-42741224D01*
X109770661Y-42720571D01*
X109694231Y-42701373D01*
X109694228Y-42701373D01*
X109688441Y-42699919D01*
X109602841Y-42699471D01*
X109524861Y-42699062D01*
X109524859Y-42699062D01*
X109518895Y-42699031D01*
X109513099Y-42700423D01*
X109513095Y-42700423D01*
X109426677Y-42721171D01*
X109354032Y-42738612D01*
X109304983Y-42763928D01*
X109208675Y-42813636D01*
X109208673Y-42813638D01*
X109203369Y-42816375D01*
X109075604Y-42927831D01*
X108978113Y-43066547D01*
X108916524Y-43224513D01*
X108894394Y-43392611D01*
X93400000Y-43392611D01*
X93400000Y-42000000D01*
X104794318Y-42000000D01*
X104814956Y-42156762D01*
X104875464Y-42302841D01*
X104971718Y-42428282D01*
X105097159Y-42524536D01*
X105243238Y-42585044D01*
X105400000Y-42605682D01*
X105556762Y-42585044D01*
X105702841Y-42524536D01*
X105828282Y-42428282D01*
X105924536Y-42302841D01*
X105985044Y-42156762D01*
X106005682Y-42000000D01*
X106003248Y-41981508D01*
X106001087Y-41965100D01*
X105985044Y-41843238D01*
X105981387Y-41834408D01*
X105955581Y-41772108D01*
X105924536Y-41697159D01*
X105828282Y-41571718D01*
X105702841Y-41475464D01*
X105556762Y-41414956D01*
X105400000Y-41394318D01*
X105243238Y-41414956D01*
X105097159Y-41475464D01*
X104971718Y-41571718D01*
X104875464Y-41697159D01*
X104844419Y-41772108D01*
X104818614Y-41834408D01*
X104814956Y-41843238D01*
X104798913Y-41965100D01*
X104796753Y-41981508D01*
X104794318Y-42000000D01*
X93400000Y-42000000D01*
X93400000Y-41042611D01*
X106344394Y-41042611D01*
X106345049Y-41048544D01*
X106345049Y-41048548D01*
X106358076Y-41166547D01*
X106362999Y-41211135D01*
X106421266Y-41370356D01*
X106424591Y-41375305D01*
X106424592Y-41375306D01*
X106441131Y-41399919D01*
X106515830Y-41511083D01*
X106641233Y-41625191D01*
X106790235Y-41706092D01*
X106825189Y-41715262D01*
X106948464Y-41747603D01*
X106948468Y-41747604D01*
X106954233Y-41749116D01*
X106960194Y-41749210D01*
X106960197Y-41749210D01*
X107038996Y-41750447D01*
X107123760Y-41751779D01*
X107129575Y-41750447D01*
X107129577Y-41750447D01*
X107283206Y-41715262D01*
X107283209Y-41715261D01*
X107289029Y-41713928D01*
X107304610Y-41706092D01*
X107393996Y-41661135D01*
X107440498Y-41637747D01*
X107445035Y-41633872D01*
X107445038Y-41633870D01*
X107564888Y-41531508D01*
X107564891Y-41531505D01*
X107569423Y-41527634D01*
X107572904Y-41522790D01*
X107594590Y-41492611D01*
X107894394Y-41492611D01*
X107895049Y-41498544D01*
X107895049Y-41498548D01*
X107906446Y-41601779D01*
X107912999Y-41661135D01*
X107971266Y-41820356D01*
X107974591Y-41825305D01*
X107974592Y-41825306D01*
X107986642Y-41843238D01*
X108065830Y-41961083D01*
X108191233Y-42075191D01*
X108340235Y-42156092D01*
X108399680Y-42171687D01*
X108498464Y-42197603D01*
X108498468Y-42197604D01*
X108504233Y-42199116D01*
X108510194Y-42199210D01*
X108510197Y-42199210D01*
X108588965Y-42200447D01*
X108673760Y-42201779D01*
X108679575Y-42200447D01*
X108679577Y-42200447D01*
X108833206Y-42165262D01*
X108833209Y-42165261D01*
X108839029Y-42163928D01*
X108854610Y-42156092D01*
X108881414Y-42142611D01*
X111244394Y-42142611D01*
X111245049Y-42148544D01*
X111245049Y-42148548D01*
X111259200Y-42276727D01*
X111262999Y-42311135D01*
X111321266Y-42470356D01*
X111324591Y-42475305D01*
X111324592Y-42475306D01*
X111337689Y-42494796D01*
X111415830Y-42611083D01*
X111541233Y-42725191D01*
X111690235Y-42806092D01*
X111725189Y-42815262D01*
X111848464Y-42847603D01*
X111848468Y-42847604D01*
X111854233Y-42849116D01*
X111860194Y-42849210D01*
X111860197Y-42849210D01*
X111938996Y-42850447D01*
X112023760Y-42851779D01*
X112029575Y-42850447D01*
X112029577Y-42850447D01*
X112183206Y-42815262D01*
X112183209Y-42815261D01*
X112189029Y-42813928D01*
X112204610Y-42806092D01*
X112264764Y-42775837D01*
X112340498Y-42737747D01*
X112345035Y-42733872D01*
X112345038Y-42733870D01*
X112464888Y-42631508D01*
X112464891Y-42631505D01*
X112469423Y-42627634D01*
X112485806Y-42604835D01*
X112564877Y-42494796D01*
X112564878Y-42494794D01*
X112568361Y-42489947D01*
X112593151Y-42428282D01*
X112629377Y-42338167D01*
X112629378Y-42338165D01*
X112631601Y-42332634D01*
X112634661Y-42311135D01*
X112655034Y-42167985D01*
X112655034Y-42167979D01*
X112655490Y-42164778D01*
X112655645Y-42150000D01*
X112648700Y-42092611D01*
X114594394Y-42092611D01*
X114595049Y-42098544D01*
X114595049Y-42098548D01*
X114606446Y-42201779D01*
X114612999Y-42261135D01*
X114671266Y-42420356D01*
X114674591Y-42425305D01*
X114674592Y-42425306D01*
X114693806Y-42453900D01*
X114765830Y-42561083D01*
X114891233Y-42675191D01*
X115040235Y-42756092D01*
X115072891Y-42764659D01*
X115198464Y-42797603D01*
X115198468Y-42797604D01*
X115204233Y-42799116D01*
X115210194Y-42799210D01*
X115210197Y-42799210D01*
X115288996Y-42800447D01*
X115373760Y-42801779D01*
X115379575Y-42800447D01*
X115379577Y-42800447D01*
X115533206Y-42765262D01*
X115533209Y-42765261D01*
X115539029Y-42763928D01*
X115554610Y-42756092D01*
X115624042Y-42721171D01*
X115690498Y-42687747D01*
X115695035Y-42683872D01*
X115695038Y-42683870D01*
X115814888Y-42581508D01*
X115814891Y-42581505D01*
X115819423Y-42577634D01*
X115878948Y-42494796D01*
X115914877Y-42444796D01*
X115914878Y-42444794D01*
X115918361Y-42439947D01*
X115923051Y-42428282D01*
X115979377Y-42288167D01*
X115979378Y-42288165D01*
X115981601Y-42282634D01*
X115985505Y-42255204D01*
X116005034Y-42117985D01*
X116005034Y-42117979D01*
X116005490Y-42114778D01*
X116005645Y-42100000D01*
X115990651Y-41976099D01*
X115985993Y-41937602D01*
X115985992Y-41937599D01*
X115985276Y-41931680D01*
X115925345Y-41773077D01*
X115910708Y-41751779D01*
X115832692Y-41638267D01*
X115829312Y-41633349D01*
X115702721Y-41520560D01*
X115552881Y-41441224D01*
X115448305Y-41414956D01*
X115394231Y-41401373D01*
X115394228Y-41401373D01*
X115388441Y-41399919D01*
X115302841Y-41399471D01*
X115224861Y-41399062D01*
X115224859Y-41399062D01*
X115218895Y-41399031D01*
X115213099Y-41400423D01*
X115213095Y-41400423D01*
X115105703Y-41426207D01*
X115054032Y-41438612D01*
X114987443Y-41472981D01*
X114908675Y-41513636D01*
X114908673Y-41513638D01*
X114903369Y-41516375D01*
X114775604Y-41627831D01*
X114772173Y-41632713D01*
X114772172Y-41632714D01*
X114689428Y-41750447D01*
X114678113Y-41766547D01*
X114616524Y-41924513D01*
X114594394Y-42092611D01*
X112648700Y-42092611D01*
X112637493Y-42000000D01*
X112635993Y-41987602D01*
X112635992Y-41987599D01*
X112635276Y-41981680D01*
X112575345Y-41823077D01*
X112569627Y-41814756D01*
X112482692Y-41688267D01*
X112479312Y-41683349D01*
X112352721Y-41570560D01*
X112347441Y-41567764D01*
X112278964Y-41531508D01*
X112202881Y-41491224D01*
X112120661Y-41470571D01*
X112044231Y-41451373D01*
X112044228Y-41451373D01*
X112038441Y-41449919D01*
X111952841Y-41449471D01*
X111874861Y-41449062D01*
X111874859Y-41449062D01*
X111868895Y-41449031D01*
X111863099Y-41450423D01*
X111863095Y-41450423D01*
X111769138Y-41472981D01*
X111704032Y-41488612D01*
X111642640Y-41520299D01*
X111558675Y-41563636D01*
X111558673Y-41563638D01*
X111553369Y-41566375D01*
X111425604Y-41677831D01*
X111422173Y-41682713D01*
X111422172Y-41682714D01*
X111362122Y-41768157D01*
X111328113Y-41816547D01*
X111325945Y-41822108D01*
X111288187Y-41918952D01*
X111266524Y-41974513D01*
X111244394Y-42142611D01*
X108881414Y-42142611D01*
X108943181Y-42111545D01*
X108990498Y-42087747D01*
X108995035Y-42083872D01*
X108995038Y-42083870D01*
X109114888Y-41981508D01*
X109114891Y-41981505D01*
X109119423Y-41977634D01*
X109148189Y-41937602D01*
X109214877Y-41844796D01*
X109214878Y-41844794D01*
X109218361Y-41839947D01*
X109225533Y-41822108D01*
X109279377Y-41688167D01*
X109279378Y-41688165D01*
X109281601Y-41682634D01*
X109289627Y-41626237D01*
X109316544Y-41571291D01*
X109370617Y-41542660D01*
X109428981Y-41552217D01*
X109429444Y-41551048D01*
X109434803Y-41553170D01*
X109434875Y-41553182D01*
X109440235Y-41556092D01*
X109475189Y-41565262D01*
X109598464Y-41597603D01*
X109598468Y-41597604D01*
X109604233Y-41599116D01*
X109610194Y-41599210D01*
X109610197Y-41599210D01*
X109688996Y-41600447D01*
X109773760Y-41601779D01*
X109779575Y-41600447D01*
X109779577Y-41600447D01*
X109933206Y-41565262D01*
X109933209Y-41565261D01*
X109939029Y-41563928D01*
X109954610Y-41556092D01*
X110030806Y-41517769D01*
X110090498Y-41487747D01*
X110095035Y-41483872D01*
X110095038Y-41483870D01*
X110214888Y-41381508D01*
X110214891Y-41381505D01*
X110219423Y-41377634D01*
X110253343Y-41330429D01*
X110314877Y-41244796D01*
X110314878Y-41244794D01*
X110318361Y-41239947D01*
X110323676Y-41226727D01*
X110379377Y-41088167D01*
X110379378Y-41088165D01*
X110381601Y-41082634D01*
X110383686Y-41067985D01*
X110405034Y-40917985D01*
X110405034Y-40917979D01*
X110405490Y-40914778D01*
X110405645Y-40900000D01*
X110385276Y-40731680D01*
X110325345Y-40573077D01*
X110288571Y-40519570D01*
X110232692Y-40438267D01*
X110229312Y-40433349D01*
X110102721Y-40320560D01*
X109952881Y-40241224D01*
X109870661Y-40220571D01*
X109794231Y-40201373D01*
X109794228Y-40201373D01*
X109788441Y-40199919D01*
X109702841Y-40199471D01*
X109624861Y-40199062D01*
X109624859Y-40199062D01*
X109618895Y-40199031D01*
X109613099Y-40200423D01*
X109613095Y-40200423D01*
X109505703Y-40226207D01*
X109454032Y-40238612D01*
X109378700Y-40277494D01*
X109308675Y-40313636D01*
X109308673Y-40313638D01*
X109303369Y-40316375D01*
X109175604Y-40427831D01*
X109172173Y-40432713D01*
X109172172Y-40432714D01*
X109142785Y-40474528D01*
X109078113Y-40566547D01*
X109016524Y-40724513D01*
X109015745Y-40730428D01*
X109015745Y-40730429D01*
X109010089Y-40773393D01*
X108983748Y-40828618D01*
X108929978Y-40857813D01*
X108865612Y-40847964D01*
X108858159Y-40844018D01*
X108858155Y-40844016D01*
X108852881Y-40841224D01*
X108767514Y-40819781D01*
X108694231Y-40801373D01*
X108694228Y-40801373D01*
X108688441Y-40799919D01*
X108602841Y-40799471D01*
X108524861Y-40799062D01*
X108524859Y-40799062D01*
X108518895Y-40799031D01*
X108513099Y-40800423D01*
X108513095Y-40800423D01*
X108421679Y-40822371D01*
X108354032Y-40838612D01*
X108284475Y-40874513D01*
X108208675Y-40913636D01*
X108208673Y-40913638D01*
X108203369Y-40916375D01*
X108075604Y-41027831D01*
X108072173Y-41032713D01*
X108072172Y-41032714D01*
X108051909Y-41061545D01*
X107978113Y-41166547D01*
X107916524Y-41324513D01*
X107894394Y-41492611D01*
X107594590Y-41492611D01*
X107664877Y-41394796D01*
X107664878Y-41394794D01*
X107668361Y-41389947D01*
X107671754Y-41381508D01*
X107729377Y-41238167D01*
X107729378Y-41238165D01*
X107731601Y-41232634D01*
X107740215Y-41172108D01*
X107755034Y-41067985D01*
X107755034Y-41067979D01*
X107755490Y-41064778D01*
X107755645Y-41050000D01*
X107744792Y-40960314D01*
X107735993Y-40887602D01*
X107735992Y-40887599D01*
X107735276Y-40881680D01*
X107675345Y-40723077D01*
X107625859Y-40651074D01*
X107582692Y-40588267D01*
X107579312Y-40583349D01*
X107452721Y-40470560D01*
X107302881Y-40391224D01*
X107220661Y-40370572D01*
X107144231Y-40351373D01*
X107144228Y-40351373D01*
X107138441Y-40349919D01*
X107052841Y-40349471D01*
X106974861Y-40349062D01*
X106974859Y-40349062D01*
X106968895Y-40349031D01*
X106963099Y-40350423D01*
X106963095Y-40350423D01*
X106855703Y-40376207D01*
X106804032Y-40388612D01*
X106739513Y-40421913D01*
X106658675Y-40463636D01*
X106658673Y-40463638D01*
X106653369Y-40466375D01*
X106525604Y-40577831D01*
X106522173Y-40582713D01*
X106522172Y-40582714D01*
X106431544Y-40711665D01*
X106428113Y-40716547D01*
X106425945Y-40722108D01*
X106386854Y-40822371D01*
X106366524Y-40874513D01*
X106344394Y-41042611D01*
X93400000Y-41042611D01*
X93400000Y-39299000D01*
X93418907Y-39240809D01*
X93468407Y-39204845D01*
X93499000Y-39200000D01*
X124400000Y-39200000D01*
X124400000Y-41769898D01*
G37*
G04 #@! TD.AperFunction*
M02*
