G04 #@! TF.GenerationSoftware,KiCad,Pcbnew,6.0.0-rc2*
G04 #@! TF.CreationDate,2022-07-03T09:35:42-07:00*
G04 #@! TF.ProjectId,RP2040_motor-rounded,52503230-3430-45f6-9d6f-746f722d726f,REV1*
G04 #@! TF.SameCoordinates,Original*
G04 #@! TF.FileFunction,Soldermask,Bot*
G04 #@! TF.FilePolarity,Negative*
%FSLAX46Y46*%
G04 Gerber Fmt 4.6, Leading zero omitted, Abs format (unit mm)*
G04 Created by KiCad (PCBNEW 6.0.0-rc2) date 2022-07-03 09:35:42*
%MOMM*%
%LPD*%
G01*
G04 APERTURE LIST*
G04 Aperture macros list*
%AMRoundRect*
0 Rectangle with rounded corners*
0 $1 Rounding radius*
0 $2 $3 $4 $5 $6 $7 $8 $9 X,Y pos of 4 corners*
0 Add a 4 corners polygon primitive as box body*
4,1,4,$2,$3,$4,$5,$6,$7,$8,$9,$2,$3,0*
0 Add four circle primitives for the rounded corners*
1,1,$1+$1,$2,$3*
1,1,$1+$1,$4,$5*
1,1,$1+$1,$6,$7*
1,1,$1+$1,$8,$9*
0 Add four rect primitives between the rounded corners*
20,1,$1+$1,$2,$3,$4,$5,0*
20,1,$1+$1,$4,$5,$6,$7,0*
20,1,$1+$1,$6,$7,$8,$9,0*
20,1,$1+$1,$8,$9,$2,$3,0*%
G04 Aperture macros list end*
%ADD10C,4.002000*%
%ADD11RoundRect,0.301000X0.845000X-0.620000X0.845000X0.620000X-0.845000X0.620000X-0.845000X-0.620000X0*%
%ADD12O,2.292000X1.842000*%
%ADD13C,4.102000*%
%ADD14C,6.102000*%
%ADD15RoundRect,0.301000X-0.620000X-0.845000X0.620000X-0.845000X0.620000X0.845000X-0.620000X0.845000X0*%
%ADD16O,1.842000X2.292000*%
%ADD17C,0.752000*%
%ADD18O,1.102000X2.202000*%
%ADD19O,1.102000X1.702000*%
G04 APERTURE END LIST*
D10*
X73950000Y-95000000D03*
D11*
X81050000Y-84960000D03*
D12*
X81050000Y-82420000D03*
X81050000Y-79880000D03*
X81050000Y-77340000D03*
D13*
X159400000Y-71000000D03*
D14*
X120283060Y-73000000D03*
D13*
X159500000Y-102250000D03*
D15*
X72490000Y-71200000D03*
D16*
X75030000Y-71200000D03*
X77570000Y-71200000D03*
X80110000Y-71200000D03*
D11*
X74100000Y-87400000D03*
D12*
X74100000Y-84860000D03*
X74100000Y-82320000D03*
X74100000Y-79780000D03*
X74100000Y-77240000D03*
D11*
X74100000Y-106000000D03*
D12*
X74100000Y-103460000D03*
X74100000Y-100920000D03*
D10*
X162450000Y-75800000D03*
D11*
X74100000Y-119850000D03*
D12*
X74100000Y-117310000D03*
X74100000Y-114770000D03*
X74100000Y-112230000D03*
X74100000Y-109690000D03*
D13*
X159500000Y-87750000D03*
X159500000Y-119100000D03*
X159500000Y-80700000D03*
D10*
X162450000Y-114200000D03*
D13*
X159500000Y-109300000D03*
D17*
X94290000Y-116645000D03*
X88510000Y-116645000D03*
D18*
X95720000Y-116145000D03*
X87080000Y-116145000D03*
D19*
X87080000Y-120325000D03*
X95720000Y-120325000D03*
D14*
X128100000Y-73000000D03*
G36*
X137906418Y-85970917D02*
G01*
X137942382Y-86020417D01*
X137947227Y-86050893D01*
X137952026Y-90116364D01*
X137933187Y-90174577D01*
X137883730Y-90210599D01*
X137853803Y-90215478D01*
X134294144Y-90243408D01*
X134235806Y-90224958D01*
X134199455Y-90175741D01*
X134194367Y-90144346D01*
X134197045Y-86050945D01*
X134215990Y-85992767D01*
X134265514Y-85956835D01*
X134296045Y-85952010D01*
X137848227Y-85952010D01*
X137906418Y-85970917D01*
G37*
G36*
X146783121Y-85543907D02*
G01*
X146819085Y-85593407D01*
X146823924Y-85625064D01*
X146776053Y-90077064D01*
X146756521Y-90135049D01*
X146706638Y-90170478D01*
X146677059Y-90175000D01*
X140374000Y-90175000D01*
X140315809Y-90156093D01*
X140279845Y-90106593D01*
X140275000Y-90076000D01*
X140275000Y-85624000D01*
X140293907Y-85565809D01*
X140343407Y-85529845D01*
X140374000Y-85525000D01*
X146724930Y-85525000D01*
X146783121Y-85543907D01*
G37*
G36*
X138256418Y-99845917D02*
G01*
X138292382Y-99895417D01*
X138297227Y-99925893D01*
X138302026Y-103991364D01*
X138283187Y-104049577D01*
X138233730Y-104085599D01*
X138203803Y-104090478D01*
X134644144Y-104118408D01*
X134585806Y-104099958D01*
X134549455Y-104050741D01*
X134544367Y-104019346D01*
X134547045Y-99925945D01*
X134565990Y-99867767D01*
X134615514Y-99831835D01*
X134646045Y-99827010D01*
X138198227Y-99827010D01*
X138256418Y-99845917D01*
G37*
G36*
X137881418Y-108220917D02*
G01*
X137917382Y-108270417D01*
X137922227Y-108300893D01*
X137927026Y-112366364D01*
X137908187Y-112424577D01*
X137858730Y-112460599D01*
X137828803Y-112465478D01*
X134269144Y-112493408D01*
X134210806Y-112474958D01*
X134174455Y-112425741D01*
X134169367Y-112394346D01*
X134172045Y-108300945D01*
X134190990Y-108242767D01*
X134240514Y-108206835D01*
X134271045Y-108202010D01*
X137823227Y-108202010D01*
X137881418Y-108220917D01*
G37*
G36*
X146708121Y-99693907D02*
G01*
X146744085Y-99743407D01*
X146748924Y-99775064D01*
X146701053Y-104227064D01*
X146681521Y-104285049D01*
X146631638Y-104320478D01*
X146602059Y-104325000D01*
X140299000Y-104325000D01*
X140240809Y-104306093D01*
X140204845Y-104256593D01*
X140200000Y-104226000D01*
X140200000Y-99774000D01*
X140218907Y-99715809D01*
X140268407Y-99679845D01*
X140299000Y-99675000D01*
X146649930Y-99675000D01*
X146708121Y-99693907D01*
G37*
G36*
X137984308Y-69193907D02*
G01*
X138020272Y-69243407D01*
X138025117Y-69273883D01*
X138029916Y-73339354D01*
X138011077Y-73397567D01*
X137961620Y-73433589D01*
X137931693Y-73438468D01*
X134372034Y-73466398D01*
X134313696Y-73447948D01*
X134277345Y-73398731D01*
X134272257Y-73367336D01*
X134274935Y-69273935D01*
X134293880Y-69215757D01*
X134343404Y-69179825D01*
X134373935Y-69175000D01*
X137926117Y-69175000D01*
X137984308Y-69193907D01*
G37*
G36*
X146783121Y-108168907D02*
G01*
X146819085Y-108218407D01*
X146823924Y-108250064D01*
X146776053Y-112702064D01*
X146756521Y-112760049D01*
X146706638Y-112795478D01*
X146677059Y-112800000D01*
X140374000Y-112800000D01*
X140315809Y-112781093D01*
X140279845Y-112731593D01*
X140275000Y-112701000D01*
X140275000Y-108249000D01*
X140293907Y-108190809D01*
X140343407Y-108154845D01*
X140374000Y-108150000D01*
X146724930Y-108150000D01*
X146783121Y-108168907D01*
G37*
G36*
X146558121Y-69018907D02*
G01*
X146594085Y-69068407D01*
X146598924Y-69100064D01*
X146551053Y-73552064D01*
X146531521Y-73610049D01*
X146481638Y-73645478D01*
X146452059Y-73650000D01*
X140149000Y-73650000D01*
X140090809Y-73631093D01*
X140054845Y-73581593D01*
X140050000Y-73551000D01*
X140050000Y-69099000D01*
X140068907Y-69040809D01*
X140118407Y-69004845D01*
X140149000Y-69000000D01*
X146499930Y-69000000D01*
X146558121Y-69018907D01*
G37*
G36*
X137906418Y-116745917D02*
G01*
X137942382Y-116795417D01*
X137947227Y-116825893D01*
X137952026Y-120891364D01*
X137933187Y-120949577D01*
X137883730Y-120985599D01*
X137853803Y-120990478D01*
X134294144Y-121018408D01*
X134235806Y-120999958D01*
X134199455Y-120950741D01*
X134194367Y-120919346D01*
X134197045Y-116825945D01*
X134215990Y-116767767D01*
X134265514Y-116731835D01*
X134296045Y-116727010D01*
X137848227Y-116727010D01*
X137906418Y-116745917D01*
G37*
G36*
X137881418Y-77470917D02*
G01*
X137917382Y-77520417D01*
X137922227Y-77550893D01*
X137927026Y-81616364D01*
X137908187Y-81674577D01*
X137858730Y-81710599D01*
X137828803Y-81715478D01*
X134269144Y-81743408D01*
X134210806Y-81724958D01*
X134174455Y-81675741D01*
X134169367Y-81644346D01*
X134172045Y-77550945D01*
X134190990Y-77492767D01*
X134240514Y-77456835D01*
X134271045Y-77452010D01*
X137823227Y-77452010D01*
X137881418Y-77470917D01*
G37*
G36*
X146733121Y-116543907D02*
G01*
X146769085Y-116593407D01*
X146773924Y-116625064D01*
X146726053Y-121077064D01*
X146706521Y-121135049D01*
X146656638Y-121170478D01*
X146627059Y-121175000D01*
X140324000Y-121175000D01*
X140265809Y-121156093D01*
X140229845Y-121106593D01*
X140225000Y-121076000D01*
X140225000Y-116624000D01*
X140243907Y-116565809D01*
X140293407Y-116529845D01*
X140324000Y-116525000D01*
X146674930Y-116525000D01*
X146733121Y-116543907D01*
G37*
G36*
X146783121Y-77343907D02*
G01*
X146819085Y-77393407D01*
X146823924Y-77425064D01*
X146776053Y-81877064D01*
X146756521Y-81935049D01*
X146706638Y-81970478D01*
X146677059Y-81975000D01*
X140374000Y-81975000D01*
X140315809Y-81956093D01*
X140279845Y-81906593D01*
X140275000Y-81876000D01*
X140275000Y-77424000D01*
X140293907Y-77365809D01*
X140343407Y-77329845D01*
X140374000Y-77325000D01*
X146724930Y-77325000D01*
X146783121Y-77343907D01*
G37*
G36*
X137945002Y-120988776D02*
G01*
X137945002Y-120990776D01*
X137943286Y-120991776D01*
X134203266Y-121021121D01*
X134203250Y-121019121D01*
X134203250Y-121018996D01*
X134203235Y-121017121D01*
X137943253Y-120987776D01*
X137943270Y-120987776D01*
X137945002Y-120988776D01*
G37*
G36*
X137920002Y-112463776D02*
G01*
X137920002Y-112465776D01*
X137918286Y-112466776D01*
X134178266Y-112496121D01*
X134178250Y-112494121D01*
X134178250Y-112493996D01*
X134178235Y-112492121D01*
X137918253Y-112462776D01*
X137918270Y-112462776D01*
X137920002Y-112463776D01*
G37*
G36*
X138295002Y-104088776D02*
G01*
X138295002Y-104090776D01*
X138293286Y-104091776D01*
X134553266Y-104121121D01*
X134553250Y-104119121D01*
X134553250Y-104118996D01*
X134553235Y-104117121D01*
X138293253Y-104087776D01*
X138293270Y-104087776D01*
X138295002Y-104088776D01*
G37*
G36*
X137945002Y-90213776D02*
G01*
X137945002Y-90215776D01*
X137943286Y-90216776D01*
X134203266Y-90246121D01*
X134203250Y-90244121D01*
X134203250Y-90243996D01*
X134203235Y-90242121D01*
X137943253Y-90212776D01*
X137943270Y-90212776D01*
X137945002Y-90213776D01*
G37*
G36*
X137920002Y-81713776D02*
G01*
X137920002Y-81715776D01*
X137918286Y-81716776D01*
X134178266Y-81746121D01*
X134178250Y-81744121D01*
X134178250Y-81743996D01*
X134178235Y-81742121D01*
X137918253Y-81712776D01*
X137918270Y-81712776D01*
X137920002Y-81713776D01*
G37*
G36*
X138022892Y-73436766D02*
G01*
X138022892Y-73438766D01*
X138021176Y-73439766D01*
X134281156Y-73469111D01*
X134281140Y-73467111D01*
X134281140Y-73466986D01*
X134281125Y-73465111D01*
X138021143Y-73435766D01*
X138021160Y-73435766D01*
X138022892Y-73436766D01*
G37*
M02*
