G04 #@! TF.GenerationSoftware,KiCad,Pcbnew,6.0.2+dfsg-1*
G04 #@! TF.CreationDate,2023-01-06T20:52:01-08:00*
G04 #@! TF.ProjectId,RP2040_debugger,52503230-3430-45f6-9465-627567676572,REV1*
G04 #@! TF.SameCoordinates,Original*
G04 #@! TF.FileFunction,Copper,L3,Inr*
G04 #@! TF.FilePolarity,Positive*
%FSLAX46Y46*%
G04 Gerber Fmt 4.6, Leading zero omitted, Abs format (unit mm)*
G04 Created by KiCad (PCBNEW 6.0.2+dfsg-1) date 2023-01-06 20:52:01*
%MOMM*%
%LPD*%
G01*
G04 APERTURE LIST*
G04 Aperture macros list*
%AMRoundRect*
0 Rectangle with rounded corners*
0 $1 Rounding radius*
0 $2 $3 $4 $5 $6 $7 $8 $9 X,Y pos of 4 corners*
0 Add a 4 corners polygon primitive as box body*
4,1,4,$2,$3,$4,$5,$6,$7,$8,$9,$2,$3,0*
0 Add four circle primitives for the rounded corners*
1,1,$1+$1,$2,$3*
1,1,$1+$1,$4,$5*
1,1,$1+$1,$6,$7*
1,1,$1+$1,$8,$9*
0 Add four rect primitives between the rounded corners*
20,1,$1+$1,$2,$3,$4,$5,0*
20,1,$1+$1,$4,$5,$6,$7,0*
20,1,$1+$1,$6,$7,$8,$9,0*
20,1,$1+$1,$8,$9,$2,$3,0*%
G04 Aperture macros list end*
G04 #@! TA.AperFunction,ComponentPad*
%ADD10C,0.600000*%
G04 #@! TD*
G04 #@! TA.AperFunction,ComponentPad*
%ADD11C,3.900000*%
G04 #@! TD*
G04 #@! TA.AperFunction,ComponentPad*
%ADD12R,1.700000X1.700000*%
G04 #@! TD*
G04 #@! TA.AperFunction,ComponentPad*
%ADD13O,1.700000X1.700000*%
G04 #@! TD*
G04 #@! TA.AperFunction,ComponentPad*
%ADD14RoundRect,0.250000X0.845000X-0.620000X0.845000X0.620000X-0.845000X0.620000X-0.845000X-0.620000X0*%
G04 #@! TD*
G04 #@! TA.AperFunction,ComponentPad*
%ADD15O,2.190000X1.740000*%
G04 #@! TD*
G04 #@! TA.AperFunction,ComponentPad*
%ADD16O,1.000000X2.100000*%
G04 #@! TD*
G04 #@! TA.AperFunction,ComponentPad*
%ADD17O,1.000000X1.600000*%
G04 #@! TD*
G04 #@! TA.AperFunction,ViaPad*
%ADD18C,0.600000*%
G04 #@! TD*
G04 #@! TA.AperFunction,ViaPad*
%ADD19C,0.800000*%
G04 #@! TD*
G04 APERTURE END LIST*
D10*
X90790000Y-76150000D03*
X92065000Y-77425000D03*
X90790000Y-74875000D03*
X92065000Y-74875000D03*
X90790000Y-77425000D03*
X89515000Y-76150000D03*
X89515000Y-74875000D03*
X92065000Y-76150000D03*
X89515000Y-77425000D03*
D11*
X70000000Y-97000000D03*
D12*
X78500000Y-74500000D03*
D13*
X78500000Y-77040000D03*
X78500000Y-79580000D03*
X78500000Y-82120000D03*
X78500000Y-84660000D03*
X78500000Y-87200000D03*
X78500000Y-89740000D03*
X78500000Y-92280000D03*
X78500000Y-94820000D03*
X78500000Y-97360000D03*
D11*
X117000000Y-97000000D03*
X70000000Y-60000000D03*
D14*
X106832000Y-84636000D03*
D15*
X106832000Y-82096000D03*
X106832000Y-79556000D03*
X106832000Y-77016000D03*
X106832000Y-74476000D03*
X106832000Y-71936000D03*
D11*
X117000000Y-60000000D03*
D14*
X80000000Y-70750000D03*
D15*
X80000000Y-68210000D03*
X80000000Y-65670000D03*
X80000000Y-63130000D03*
X80000000Y-60590000D03*
X80000000Y-58050000D03*
D16*
X90970000Y-96295000D03*
X82330000Y-96295000D03*
D17*
X82330000Y-100475000D03*
X90970000Y-100475000D03*
D18*
X104000000Y-69600000D03*
X100600000Y-69600000D03*
X97100000Y-69500000D03*
D19*
X91850000Y-92100000D03*
X87250000Y-84250000D03*
X108500000Y-95250000D03*
D18*
X94400000Y-66300000D03*
X84250000Y-90250000D03*
X81900000Y-74800000D03*
X88000000Y-62600000D03*
X94900000Y-67500000D03*
X95500000Y-61900000D03*
X88300000Y-67400000D03*
D19*
X102250000Y-83500000D03*
X91350000Y-85200000D03*
D18*
X88500000Y-61900000D03*
D19*
X103750000Y-89000000D03*
D18*
X99800000Y-62700000D03*
X88000000Y-63500000D03*
X98500000Y-80600000D03*
X95600000Y-65000000D03*
X94200000Y-68400000D03*
D19*
X93500000Y-95500000D03*
D18*
X83850000Y-81950000D03*
X93500000Y-61900000D03*
X100000000Y-74500000D03*
D19*
X96250000Y-94750000D03*
D18*
X88000000Y-64400000D03*
X88000000Y-65200000D03*
X95600000Y-66000000D03*
X83850000Y-80350000D03*
D19*
X90000000Y-89500000D03*
D18*
X95700000Y-78900000D03*
X96300000Y-78000000D03*
X84700000Y-78600000D03*
D19*
X85000000Y-68500000D03*
D18*
X85900000Y-73000000D03*
X84100000Y-72400000D03*
X100750000Y-88250000D03*
X94000000Y-79750000D03*
D19*
X102000000Y-91500000D03*
X108500000Y-90750000D03*
D18*
X89309413Y-82105241D03*
X87387000Y-89200000D03*
X86537000Y-89200000D03*
X88708371Y-81504199D03*
D19*
X100000000Y-87000000D03*
X94272119Y-80977881D03*
D18*
X95319640Y-82268741D03*
X94750000Y-83750000D03*
G04 #@! TA.AperFunction,Conductor*
G36*
X116982282Y-55301504D02*
G01*
X117000000Y-55304628D01*
X117010364Y-55302801D01*
X117031866Y-55301392D01*
X117405316Y-55317697D01*
X117413920Y-55318450D01*
X117631017Y-55347031D01*
X117811874Y-55370842D01*
X117820357Y-55372337D01*
X118212232Y-55459214D01*
X118220565Y-55461447D01*
X118603380Y-55582148D01*
X118611482Y-55585096D01*
X118890332Y-55700599D01*
X118982315Y-55738700D01*
X118990142Y-55742350D01*
X119346170Y-55927687D01*
X119353632Y-55931995D01*
X119692181Y-56147674D01*
X119699233Y-56152612D01*
X120017676Y-56396962D01*
X120024280Y-56402503D01*
X120320223Y-56673685D01*
X120326315Y-56679777D01*
X120597497Y-56975720D01*
X120603036Y-56982322D01*
X120847388Y-57300767D01*
X120852326Y-57307819D01*
X121068005Y-57646368D01*
X121072313Y-57653830D01*
X121208352Y-57915157D01*
X121257650Y-58009858D01*
X121261300Y-58017685D01*
X121342147Y-58212866D01*
X121414901Y-58388511D01*
X121417852Y-58396620D01*
X121489736Y-58624604D01*
X121538553Y-58779433D01*
X121540786Y-58787768D01*
X121627663Y-59179643D01*
X121629160Y-59188135D01*
X121681550Y-59586080D01*
X121682303Y-59594684D01*
X121698608Y-59968134D01*
X121697199Y-59989636D01*
X121695372Y-60000000D01*
X121696876Y-60008530D01*
X121698496Y-60017717D01*
X121700000Y-60034908D01*
X121700000Y-97465092D01*
X121698496Y-97482282D01*
X121695372Y-97500000D01*
X121696876Y-97508530D01*
X121697199Y-97510362D01*
X121698608Y-97531866D01*
X121682303Y-97905316D01*
X121681550Y-97913920D01*
X121678374Y-97938045D01*
X121629496Y-98309316D01*
X121629160Y-98311865D01*
X121627663Y-98320357D01*
X121566354Y-98596904D01*
X121540788Y-98712225D01*
X121538553Y-98720565D01*
X121464761Y-98954607D01*
X121417855Y-99103373D01*
X121414904Y-99111482D01*
X121299401Y-99390332D01*
X121261300Y-99482315D01*
X121257650Y-99490142D01*
X121072313Y-99846170D01*
X121068005Y-99853632D01*
X120852326Y-100192181D01*
X120847388Y-100199233D01*
X120744960Y-100332720D01*
X120603038Y-100517676D01*
X120597497Y-100524280D01*
X120326315Y-100820223D01*
X120320223Y-100826315D01*
X120024280Y-101097497D01*
X120017678Y-101103036D01*
X119699233Y-101347388D01*
X119692181Y-101352326D01*
X119353632Y-101568005D01*
X119346170Y-101572313D01*
X119044146Y-101729537D01*
X118990142Y-101757650D01*
X118982315Y-101761300D01*
X118611482Y-101914904D01*
X118603380Y-101917852D01*
X118220567Y-102038553D01*
X118212232Y-102040786D01*
X117820357Y-102127663D01*
X117811874Y-102129158D01*
X117631017Y-102152969D01*
X117413920Y-102181550D01*
X117405316Y-102182303D01*
X117031866Y-102198608D01*
X117010364Y-102197199D01*
X117000000Y-102195372D01*
X116991470Y-102196876D01*
X116982283Y-102198496D01*
X116965092Y-102200000D01*
X70034908Y-102200000D01*
X70017717Y-102198496D01*
X70008530Y-102196876D01*
X70000000Y-102195372D01*
X69989636Y-102197199D01*
X69968134Y-102198608D01*
X69594684Y-102182303D01*
X69586080Y-102181550D01*
X69368983Y-102152969D01*
X69188126Y-102129158D01*
X69179643Y-102127663D01*
X68787768Y-102040786D01*
X68779433Y-102038553D01*
X68396620Y-101917852D01*
X68388518Y-101914904D01*
X68017685Y-101761300D01*
X68009858Y-101757650D01*
X67955854Y-101729537D01*
X67653830Y-101572313D01*
X67646368Y-101568005D01*
X67307819Y-101352326D01*
X67300767Y-101347388D01*
X66982322Y-101103036D01*
X66975720Y-101097497D01*
X66679777Y-100826315D01*
X66673685Y-100820223D01*
X66669923Y-100816117D01*
X81576800Y-100816117D01*
X81577132Y-100821832D01*
X81591345Y-100943737D01*
X81593974Y-100954862D01*
X81649975Y-101109140D01*
X81655093Y-101119361D01*
X81745082Y-101256616D01*
X81752414Y-101265386D01*
X81871573Y-101378265D01*
X81880713Y-101385103D01*
X82022643Y-101467543D01*
X82033122Y-101472099D01*
X82190207Y-101519676D01*
X82191441Y-101519898D01*
X82200666Y-101517521D01*
X82202973Y-101514727D01*
X82203400Y-101512485D01*
X82203400Y-101501831D01*
X82456600Y-101501831D01*
X82460722Y-101514516D01*
X82461326Y-101514955D01*
X82468473Y-101515471D01*
X82538437Y-101503449D01*
X82549401Y-101500223D01*
X82700430Y-101435959D01*
X82710349Y-101430301D01*
X82842546Y-101333015D01*
X82850903Y-101325222D01*
X82957168Y-101200140D01*
X82963511Y-101190628D01*
X83038151Y-101044456D01*
X83042134Y-101033746D01*
X83081466Y-100873010D01*
X83082786Y-100864331D01*
X83083106Y-100859172D01*
X83083200Y-100856138D01*
X83083200Y-100816117D01*
X90216800Y-100816117D01*
X90217132Y-100821832D01*
X90231345Y-100943737D01*
X90233974Y-100954862D01*
X90289975Y-101109140D01*
X90295093Y-101119361D01*
X90385082Y-101256616D01*
X90392414Y-101265386D01*
X90511573Y-101378265D01*
X90520713Y-101385103D01*
X90662643Y-101467543D01*
X90673122Y-101472099D01*
X90830207Y-101519676D01*
X90831441Y-101519898D01*
X90840666Y-101517521D01*
X90842973Y-101514727D01*
X90843400Y-101512485D01*
X90843400Y-101501831D01*
X91096600Y-101501831D01*
X91100722Y-101514516D01*
X91101326Y-101514955D01*
X91108473Y-101515471D01*
X91178437Y-101503449D01*
X91189401Y-101500223D01*
X91340430Y-101435959D01*
X91350349Y-101430301D01*
X91482546Y-101333015D01*
X91490903Y-101325222D01*
X91597168Y-101200140D01*
X91603511Y-101190628D01*
X91678151Y-101044456D01*
X91682134Y-101033746D01*
X91721466Y-100873010D01*
X91722786Y-100864331D01*
X91723106Y-100859172D01*
X91723200Y-100856138D01*
X91723200Y-100617280D01*
X91719078Y-100604595D01*
X91714957Y-100601600D01*
X91112280Y-100601600D01*
X91099595Y-100605722D01*
X91096600Y-100609843D01*
X91096600Y-101501831D01*
X90843400Y-101501831D01*
X90843400Y-100617280D01*
X90839278Y-100604595D01*
X90835157Y-100601600D01*
X90232480Y-100601600D01*
X90219795Y-100605722D01*
X90216800Y-100609843D01*
X90216800Y-100816117D01*
X83083200Y-100816117D01*
X83083200Y-100617280D01*
X83079078Y-100604595D01*
X83074957Y-100601600D01*
X82472280Y-100601600D01*
X82459595Y-100605722D01*
X82456600Y-100609843D01*
X82456600Y-101501831D01*
X82203400Y-101501831D01*
X82203400Y-100617280D01*
X82199278Y-100604595D01*
X82195157Y-100601600D01*
X81592480Y-100601600D01*
X81579795Y-100605722D01*
X81576800Y-100609843D01*
X81576800Y-100816117D01*
X66669923Y-100816117D01*
X66402503Y-100524280D01*
X66396962Y-100517676D01*
X66255040Y-100332720D01*
X81576800Y-100332720D01*
X81580922Y-100345405D01*
X81585043Y-100348400D01*
X82187720Y-100348400D01*
X82200405Y-100344278D01*
X82203400Y-100340157D01*
X82203400Y-100332720D01*
X82456600Y-100332720D01*
X82460722Y-100345405D01*
X82464843Y-100348400D01*
X83067520Y-100348400D01*
X83080205Y-100344278D01*
X83083200Y-100340157D01*
X83083200Y-100332720D01*
X90216800Y-100332720D01*
X90220922Y-100345405D01*
X90225043Y-100348400D01*
X90827720Y-100348400D01*
X90840405Y-100344278D01*
X90843400Y-100340157D01*
X90843400Y-100332720D01*
X91096600Y-100332720D01*
X91100722Y-100345405D01*
X91104843Y-100348400D01*
X91707520Y-100348400D01*
X91720205Y-100344278D01*
X91723200Y-100340157D01*
X91723200Y-100133883D01*
X91722868Y-100128168D01*
X91708655Y-100006263D01*
X91706026Y-99995138D01*
X91650025Y-99840860D01*
X91644907Y-99830639D01*
X91554918Y-99693384D01*
X91547586Y-99684614D01*
X91428427Y-99571735D01*
X91419287Y-99564897D01*
X91277357Y-99482457D01*
X91266878Y-99477901D01*
X91109793Y-99430324D01*
X91108559Y-99430102D01*
X91099334Y-99432479D01*
X91097027Y-99435273D01*
X91096600Y-99437515D01*
X91096600Y-100332720D01*
X90843400Y-100332720D01*
X90843400Y-99448169D01*
X90839278Y-99435484D01*
X90838674Y-99435045D01*
X90831527Y-99434529D01*
X90761563Y-99446551D01*
X90750599Y-99449777D01*
X90599570Y-99514041D01*
X90589651Y-99519699D01*
X90457454Y-99616985D01*
X90449097Y-99624778D01*
X90342832Y-99749860D01*
X90336489Y-99759372D01*
X90261849Y-99905544D01*
X90257866Y-99916254D01*
X90218534Y-100076990D01*
X90217214Y-100085669D01*
X90216894Y-100090828D01*
X90216800Y-100093862D01*
X90216800Y-100332720D01*
X83083200Y-100332720D01*
X83083200Y-100133883D01*
X83082868Y-100128168D01*
X83068655Y-100006263D01*
X83066026Y-99995138D01*
X83010025Y-99840860D01*
X83004907Y-99830639D01*
X82914918Y-99693384D01*
X82907586Y-99684614D01*
X82788427Y-99571735D01*
X82779287Y-99564897D01*
X82637357Y-99482457D01*
X82626878Y-99477901D01*
X82469793Y-99430324D01*
X82468559Y-99430102D01*
X82459334Y-99432479D01*
X82457027Y-99435273D01*
X82456600Y-99437515D01*
X82456600Y-100332720D01*
X82203400Y-100332720D01*
X82203400Y-99448169D01*
X82199278Y-99435484D01*
X82198674Y-99435045D01*
X82191527Y-99434529D01*
X82121563Y-99446551D01*
X82110599Y-99449777D01*
X81959570Y-99514041D01*
X81949651Y-99519699D01*
X81817454Y-99616985D01*
X81809097Y-99624778D01*
X81702832Y-99749860D01*
X81696489Y-99759372D01*
X81621849Y-99905544D01*
X81617866Y-99916254D01*
X81578534Y-100076990D01*
X81577214Y-100085669D01*
X81576894Y-100090828D01*
X81576800Y-100093862D01*
X81576800Y-100332720D01*
X66255040Y-100332720D01*
X66152612Y-100199233D01*
X66147674Y-100192181D01*
X65931995Y-99853632D01*
X65927687Y-99846170D01*
X65742350Y-99490142D01*
X65738700Y-99482315D01*
X65700599Y-99390332D01*
X65585096Y-99111482D01*
X65582145Y-99103373D01*
X65535240Y-98954607D01*
X65461447Y-98720565D01*
X65459212Y-98712225D01*
X65433646Y-98596904D01*
X65372337Y-98320357D01*
X65370840Y-98311865D01*
X65370505Y-98309316D01*
X65321626Y-97938045D01*
X65318450Y-97913920D01*
X65317697Y-97905316D01*
X65301392Y-97531866D01*
X65302801Y-97510362D01*
X65303124Y-97508530D01*
X65304628Y-97500000D01*
X65301504Y-97482282D01*
X65300000Y-97465092D01*
X65300000Y-97000000D01*
X67744671Y-97000000D01*
X67744883Y-97003234D01*
X67761754Y-97260628D01*
X67763966Y-97294380D01*
X67821519Y-97583722D01*
X67916348Y-97863077D01*
X67941421Y-97913920D01*
X68038310Y-98110391D01*
X68046828Y-98127664D01*
X68210727Y-98372957D01*
X68405242Y-98594758D01*
X68627043Y-98789273D01*
X68872335Y-98953172D01*
X68875239Y-98954604D01*
X68875244Y-98954607D01*
X69134009Y-99082215D01*
X69136923Y-99083652D01*
X69139992Y-99084694D01*
X69139995Y-99084695D01*
X69195019Y-99103373D01*
X69416278Y-99178481D01*
X69705620Y-99236034D01*
X69708842Y-99236245D01*
X69708848Y-99236246D01*
X69996766Y-99255117D01*
X70000000Y-99255329D01*
X70003234Y-99255117D01*
X70291152Y-99236246D01*
X70291158Y-99236245D01*
X70294380Y-99236034D01*
X70583722Y-99178481D01*
X70804981Y-99103373D01*
X70860005Y-99084695D01*
X70860008Y-99084694D01*
X70863077Y-99083652D01*
X70865991Y-99082215D01*
X71124756Y-98954607D01*
X71124761Y-98954604D01*
X71127665Y-98953172D01*
X71372957Y-98789273D01*
X71594758Y-98594758D01*
X71789273Y-98372957D01*
X71953172Y-98127664D01*
X71961691Y-98110391D01*
X72058579Y-97913920D01*
X72083652Y-97863077D01*
X72178481Y-97583722D01*
X72228998Y-97329754D01*
X77344967Y-97329754D01*
X77348142Y-97378197D01*
X77358214Y-97531866D01*
X77358796Y-97540749D01*
X77359912Y-97545142D01*
X77359912Y-97545144D01*
X77382487Y-97634032D01*
X77410845Y-97745690D01*
X77412747Y-97749815D01*
X77412747Y-97749816D01*
X77451518Y-97833916D01*
X77499369Y-97937714D01*
X77621405Y-98110391D01*
X77772865Y-98257937D01*
X77776638Y-98260458D01*
X77944899Y-98372887D01*
X77944902Y-98372889D01*
X77948677Y-98375411D01*
X78045472Y-98416997D01*
X78138774Y-98457083D01*
X78138778Y-98457084D01*
X78142953Y-98458878D01*
X78147387Y-98459881D01*
X78147386Y-98459881D01*
X78344760Y-98504543D01*
X78344765Y-98504544D01*
X78349186Y-98505544D01*
X78454828Y-98509695D01*
X78555937Y-98513668D01*
X78555938Y-98513668D01*
X78560470Y-98513846D01*
X78769730Y-98483504D01*
X78774029Y-98482045D01*
X78774032Y-98482044D01*
X78965654Y-98416997D01*
X78969955Y-98415537D01*
X79154442Y-98312219D01*
X79317012Y-98177012D01*
X79452219Y-98014442D01*
X79536988Y-97863077D01*
X79553319Y-97833916D01*
X79553320Y-97833914D01*
X79555537Y-97829955D01*
X79556997Y-97825654D01*
X79622044Y-97634032D01*
X79622045Y-97634029D01*
X79623504Y-97629730D01*
X79641078Y-97508530D01*
X79653426Y-97423369D01*
X79653426Y-97423363D01*
X79653846Y-97420470D01*
X79654214Y-97406444D01*
X79655353Y-97362914D01*
X79655353Y-97362909D01*
X79655429Y-97360000D01*
X79653168Y-97335386D01*
X79636496Y-97153960D01*
X79636081Y-97149440D01*
X79625105Y-97110522D01*
X79579920Y-96950306D01*
X79579920Y-96950305D01*
X79578686Y-96945931D01*
X79572966Y-96934331D01*
X79549189Y-96886117D01*
X81576800Y-96886117D01*
X81577132Y-96891832D01*
X81591345Y-97013737D01*
X81593974Y-97024862D01*
X81649975Y-97179140D01*
X81655093Y-97189361D01*
X81745082Y-97326616D01*
X81752414Y-97335386D01*
X81871573Y-97448265D01*
X81880713Y-97455103D01*
X82022643Y-97537543D01*
X82033122Y-97542099D01*
X82190207Y-97589676D01*
X82191441Y-97589898D01*
X82200666Y-97587521D01*
X82202973Y-97584727D01*
X82203400Y-97582485D01*
X82203400Y-97571831D01*
X82456600Y-97571831D01*
X82460722Y-97584516D01*
X82461326Y-97584955D01*
X82468473Y-97585471D01*
X82538437Y-97573449D01*
X82549401Y-97570223D01*
X82700430Y-97505959D01*
X82710349Y-97500301D01*
X82842546Y-97403015D01*
X82850903Y-97395222D01*
X82957168Y-97270140D01*
X82963511Y-97260628D01*
X83040767Y-97109332D01*
X83043097Y-97110522D01*
X83074549Y-97070853D01*
X83133484Y-97054410D01*
X83190828Y-97075747D01*
X83212905Y-97100270D01*
X83274214Y-97196877D01*
X83389418Y-97305062D01*
X83394881Y-97308065D01*
X83394882Y-97308066D01*
X83522450Y-97378197D01*
X83522454Y-97378198D01*
X83527908Y-97381197D01*
X83533934Y-97382744D01*
X83533936Y-97382745D01*
X83674946Y-97418951D01*
X83674950Y-97418952D01*
X83680981Y-97420500D01*
X83799350Y-97420500D01*
X83916792Y-97405664D01*
X84063732Y-97347486D01*
X84191587Y-97254594D01*
X84195553Y-97249800D01*
X84195556Y-97249797D01*
X84288354Y-97137622D01*
X84292324Y-97132823D01*
X84359614Y-96989826D01*
X84367988Y-96945931D01*
X84388060Y-96840704D01*
X84389227Y-96834588D01*
X84384246Y-96755412D01*
X88910773Y-96755412D01*
X88920696Y-96913138D01*
X88922622Y-96919065D01*
X88966599Y-97054410D01*
X88969533Y-97063441D01*
X88972871Y-97068701D01*
X88972872Y-97068703D01*
X89026978Y-97153960D01*
X89054214Y-97196877D01*
X89169418Y-97305062D01*
X89174881Y-97308065D01*
X89174882Y-97308066D01*
X89302450Y-97378197D01*
X89302454Y-97378198D01*
X89307908Y-97381197D01*
X89313934Y-97382744D01*
X89313936Y-97382745D01*
X89454946Y-97418951D01*
X89454950Y-97418952D01*
X89460981Y-97420500D01*
X89579350Y-97420500D01*
X89696792Y-97405664D01*
X89843732Y-97347486D01*
X89971587Y-97254594D01*
X89975553Y-97249800D01*
X89975556Y-97249797D01*
X90068354Y-97137622D01*
X90072324Y-97132823D01*
X90076343Y-97124284D01*
X90084315Y-97107342D01*
X90126198Y-97062739D01*
X90186300Y-97051273D01*
X90241662Y-97077324D01*
X90266952Y-97115714D01*
X90289975Y-97179140D01*
X90295093Y-97189361D01*
X90385082Y-97326616D01*
X90392414Y-97335386D01*
X90511573Y-97448265D01*
X90520713Y-97455103D01*
X90662643Y-97537543D01*
X90673122Y-97542099D01*
X90830207Y-97589676D01*
X90831441Y-97589898D01*
X90840666Y-97587521D01*
X90842973Y-97584727D01*
X90843400Y-97582485D01*
X90843400Y-97571831D01*
X91096600Y-97571831D01*
X91100722Y-97584516D01*
X91101326Y-97584955D01*
X91108473Y-97585471D01*
X91178437Y-97573449D01*
X91189401Y-97570223D01*
X91340430Y-97505959D01*
X91350349Y-97500301D01*
X91482546Y-97403015D01*
X91490903Y-97395222D01*
X91597168Y-97270140D01*
X91603511Y-97260628D01*
X91678151Y-97114456D01*
X91682134Y-97103746D01*
X91707521Y-97000000D01*
X114744671Y-97000000D01*
X114744883Y-97003234D01*
X114761754Y-97260628D01*
X114763966Y-97294380D01*
X114821519Y-97583722D01*
X114916348Y-97863077D01*
X114941421Y-97913920D01*
X115038310Y-98110391D01*
X115046828Y-98127664D01*
X115210727Y-98372957D01*
X115405242Y-98594758D01*
X115627043Y-98789273D01*
X115872335Y-98953172D01*
X115875239Y-98954604D01*
X115875244Y-98954607D01*
X116134009Y-99082215D01*
X116136923Y-99083652D01*
X116139992Y-99084694D01*
X116139995Y-99084695D01*
X116195019Y-99103373D01*
X116416278Y-99178481D01*
X116705620Y-99236034D01*
X116708842Y-99236245D01*
X116708848Y-99236246D01*
X116996766Y-99255117D01*
X117000000Y-99255329D01*
X117003234Y-99255117D01*
X117291152Y-99236246D01*
X117291158Y-99236245D01*
X117294380Y-99236034D01*
X117583722Y-99178481D01*
X117804981Y-99103373D01*
X117860005Y-99084695D01*
X117860008Y-99084694D01*
X117863077Y-99083652D01*
X117865991Y-99082215D01*
X118124756Y-98954607D01*
X118124761Y-98954604D01*
X118127665Y-98953172D01*
X118372957Y-98789273D01*
X118594758Y-98594758D01*
X118789273Y-98372957D01*
X118953172Y-98127664D01*
X118961691Y-98110391D01*
X119058579Y-97913920D01*
X119083652Y-97863077D01*
X119178481Y-97583722D01*
X119236034Y-97294380D01*
X119238247Y-97260628D01*
X119255117Y-97003234D01*
X119255329Y-97000000D01*
X119237942Y-96734726D01*
X119236246Y-96708848D01*
X119236245Y-96708842D01*
X119236034Y-96705620D01*
X119178481Y-96416278D01*
X119083652Y-96136923D01*
X119003231Y-95973846D01*
X118954608Y-95875247D01*
X118954605Y-95875242D01*
X118953172Y-95872336D01*
X118789273Y-95627043D01*
X118594758Y-95405242D01*
X118372957Y-95210727D01*
X118269704Y-95141735D01*
X118130362Y-95048630D01*
X118130361Y-95048629D01*
X118127665Y-95046828D01*
X118124761Y-95045396D01*
X118124756Y-95045393D01*
X117865991Y-94917785D01*
X117863077Y-94916348D01*
X117860008Y-94915306D01*
X117860005Y-94915305D01*
X117765925Y-94883369D01*
X117583722Y-94821519D01*
X117294380Y-94763966D01*
X117291158Y-94763755D01*
X117291152Y-94763754D01*
X117003234Y-94744883D01*
X117000000Y-94744671D01*
X116996766Y-94744883D01*
X116708848Y-94763754D01*
X116708842Y-94763755D01*
X116705620Y-94763966D01*
X116416278Y-94821519D01*
X116136923Y-94916348D01*
X116008676Y-94979592D01*
X115875247Y-95045392D01*
X115875242Y-95045395D01*
X115872336Y-95046828D01*
X115869640Y-95048630D01*
X115869639Y-95048630D01*
X115848296Y-95062891D01*
X115627043Y-95210727D01*
X115405242Y-95405242D01*
X115210727Y-95627043D01*
X115046828Y-95872336D01*
X115045395Y-95875242D01*
X115045392Y-95875247D01*
X114996769Y-95973846D01*
X114916348Y-96136923D01*
X114821519Y-96416278D01*
X114763966Y-96705620D01*
X114763755Y-96708842D01*
X114763754Y-96708848D01*
X114762058Y-96734726D01*
X114744671Y-97000000D01*
X91707521Y-97000000D01*
X91721466Y-96943010D01*
X91722786Y-96934331D01*
X91723106Y-96929172D01*
X91723200Y-96926138D01*
X91723200Y-96437280D01*
X91719078Y-96424595D01*
X91714957Y-96421600D01*
X91112280Y-96421600D01*
X91099595Y-96425722D01*
X91096600Y-96429843D01*
X91096600Y-97571831D01*
X90843400Y-97571831D01*
X90843400Y-96437280D01*
X90839278Y-96424595D01*
X90835157Y-96421600D01*
X90232480Y-96421600D01*
X90219794Y-96425722D01*
X90212907Y-96435201D01*
X90163407Y-96471166D01*
X90102222Y-96471166D01*
X90049226Y-96430058D01*
X90029123Y-96398381D01*
X90029122Y-96398380D01*
X90025786Y-96393123D01*
X89910582Y-96284938D01*
X89854002Y-96253833D01*
X89777550Y-96211803D01*
X89777546Y-96211802D01*
X89772092Y-96208803D01*
X89766066Y-96207256D01*
X89766064Y-96207255D01*
X89625054Y-96171049D01*
X89625050Y-96171048D01*
X89619019Y-96169500D01*
X89500650Y-96169500D01*
X89383208Y-96184336D01*
X89236268Y-96242514D01*
X89220689Y-96253833D01*
X89115159Y-96330505D01*
X89108413Y-96335406D01*
X89104447Y-96340200D01*
X89104444Y-96340203D01*
X89025856Y-96435201D01*
X89007676Y-96457177D01*
X88940386Y-96600174D01*
X88910773Y-96755412D01*
X84384246Y-96755412D01*
X84379304Y-96676862D01*
X84351244Y-96590504D01*
X84332393Y-96532486D01*
X84332392Y-96532485D01*
X84330467Y-96526559D01*
X84295202Y-96470989D01*
X84249123Y-96398381D01*
X84249122Y-96398380D01*
X84245786Y-96393123D01*
X84130582Y-96284938D01*
X84074002Y-96253833D01*
X83997550Y-96211803D01*
X83997546Y-96211802D01*
X83992092Y-96208803D01*
X83986066Y-96207256D01*
X83986064Y-96207255D01*
X83845054Y-96171049D01*
X83845050Y-96171048D01*
X83839019Y-96169500D01*
X83720650Y-96169500D01*
X83603208Y-96184336D01*
X83456268Y-96242514D01*
X83440689Y-96253833D01*
X83335159Y-96330505D01*
X83328413Y-96335406D01*
X83324447Y-96340200D01*
X83324444Y-96340203D01*
X83284190Y-96388863D01*
X83250289Y-96429843D01*
X83243372Y-96438204D01*
X83191712Y-96470989D01*
X83130647Y-96467147D01*
X83083503Y-96428146D01*
X83083262Y-96427634D01*
X83074957Y-96421600D01*
X82472280Y-96421600D01*
X82459595Y-96425722D01*
X82456600Y-96429843D01*
X82456600Y-97571831D01*
X82203400Y-97571831D01*
X82203400Y-96437280D01*
X82199278Y-96424595D01*
X82195157Y-96421600D01*
X81592480Y-96421600D01*
X81579795Y-96425722D01*
X81576800Y-96429843D01*
X81576800Y-96886117D01*
X79549189Y-96886117D01*
X79523777Y-96834588D01*
X79485165Y-96756290D01*
X79358651Y-96586867D01*
X79203381Y-96443337D01*
X79193782Y-96437280D01*
X79028391Y-96332926D01*
X79024554Y-96330505D01*
X78828160Y-96252152D01*
X78620775Y-96210901D01*
X78516599Y-96209537D01*
X78413886Y-96208192D01*
X78413881Y-96208192D01*
X78409346Y-96208133D01*
X78404873Y-96208902D01*
X78404868Y-96208902D01*
X78301601Y-96226647D01*
X78200953Y-96243941D01*
X78002575Y-96317127D01*
X77998676Y-96319446D01*
X77998671Y-96319449D01*
X77841068Y-96413213D01*
X77820856Y-96425238D01*
X77817441Y-96428233D01*
X77817438Y-96428235D01*
X77784436Y-96457177D01*
X77661881Y-96564655D01*
X77659073Y-96568217D01*
X77550754Y-96705620D01*
X77530976Y-96730708D01*
X77528862Y-96734726D01*
X77434995Y-96913138D01*
X77432523Y-96917836D01*
X77431179Y-96922165D01*
X77372693Y-97110522D01*
X77369820Y-97119773D01*
X77369286Y-97124283D01*
X77369286Y-97124284D01*
X77347890Y-97305062D01*
X77344967Y-97329754D01*
X72228998Y-97329754D01*
X72236034Y-97294380D01*
X72238247Y-97260628D01*
X72255117Y-97003234D01*
X72255329Y-97000000D01*
X72237942Y-96734726D01*
X72236246Y-96708848D01*
X72236245Y-96708842D01*
X72236034Y-96705620D01*
X72178481Y-96416278D01*
X72089014Y-96152720D01*
X81576800Y-96152720D01*
X81580922Y-96165405D01*
X81585043Y-96168400D01*
X82187720Y-96168400D01*
X82200405Y-96164278D01*
X82203400Y-96160157D01*
X82203400Y-96152720D01*
X82456600Y-96152720D01*
X82460722Y-96165405D01*
X82464843Y-96168400D01*
X83067520Y-96168400D01*
X83080205Y-96164278D01*
X83083200Y-96160157D01*
X83083200Y-96152720D01*
X90216800Y-96152720D01*
X90220922Y-96165405D01*
X90225043Y-96168400D01*
X90827720Y-96168400D01*
X90840405Y-96164278D01*
X90843400Y-96160157D01*
X90843400Y-96152720D01*
X91096600Y-96152720D01*
X91100722Y-96165405D01*
X91104843Y-96168400D01*
X91707520Y-96168400D01*
X91720205Y-96164278D01*
X91723200Y-96160157D01*
X91723200Y-95703883D01*
X91722868Y-95698168D01*
X91708655Y-95576263D01*
X91706026Y-95565138D01*
X91650025Y-95410860D01*
X91644907Y-95400639D01*
X91554918Y-95263384D01*
X91547586Y-95254614D01*
X91428427Y-95141735D01*
X91419287Y-95134897D01*
X91277357Y-95052457D01*
X91266878Y-95047901D01*
X91109793Y-95000324D01*
X91108559Y-95000102D01*
X91099334Y-95002479D01*
X91097027Y-95005273D01*
X91096600Y-95007515D01*
X91096600Y-96152720D01*
X90843400Y-96152720D01*
X90843400Y-95018169D01*
X90839278Y-95005484D01*
X90838674Y-95005045D01*
X90831527Y-95004529D01*
X90761563Y-95016551D01*
X90750599Y-95019777D01*
X90599570Y-95084041D01*
X90589651Y-95089699D01*
X90457454Y-95186985D01*
X90449097Y-95194778D01*
X90342832Y-95319860D01*
X90336489Y-95329372D01*
X90261849Y-95475544D01*
X90257866Y-95486254D01*
X90218534Y-95646990D01*
X90217214Y-95655669D01*
X90216894Y-95660828D01*
X90216800Y-95663862D01*
X90216800Y-96152720D01*
X83083200Y-96152720D01*
X83083200Y-95703883D01*
X83082868Y-95698168D01*
X83068655Y-95576263D01*
X83066026Y-95565138D01*
X83010025Y-95410860D01*
X83004907Y-95400639D01*
X82914918Y-95263384D01*
X82907586Y-95254614D01*
X82788427Y-95141735D01*
X82779287Y-95134897D01*
X82637357Y-95052457D01*
X82626878Y-95047901D01*
X82469793Y-95000324D01*
X82468559Y-95000102D01*
X82459334Y-95002479D01*
X82457027Y-95005273D01*
X82456600Y-95007515D01*
X82456600Y-96152720D01*
X82203400Y-96152720D01*
X82203400Y-95018169D01*
X82199278Y-95005484D01*
X82198674Y-95005045D01*
X82191527Y-95004529D01*
X82121563Y-95016551D01*
X82110599Y-95019777D01*
X81959570Y-95084041D01*
X81949651Y-95089699D01*
X81817454Y-95186985D01*
X81809097Y-95194778D01*
X81702832Y-95319860D01*
X81696489Y-95329372D01*
X81621849Y-95475544D01*
X81617866Y-95486254D01*
X81578534Y-95646990D01*
X81577214Y-95655669D01*
X81576894Y-95660828D01*
X81576800Y-95663862D01*
X81576800Y-96152720D01*
X72089014Y-96152720D01*
X72083652Y-96136923D01*
X72003231Y-95973846D01*
X71954608Y-95875247D01*
X71954605Y-95875242D01*
X71953172Y-95872336D01*
X71789273Y-95627043D01*
X71594758Y-95405242D01*
X71372957Y-95210727D01*
X71269704Y-95141735D01*
X71130362Y-95048630D01*
X71130361Y-95048629D01*
X71127665Y-95046828D01*
X71124761Y-95045396D01*
X71124756Y-95045393D01*
X70865991Y-94917785D01*
X70863077Y-94916348D01*
X70860008Y-94915306D01*
X70860005Y-94915305D01*
X70765925Y-94883369D01*
X70583722Y-94821519D01*
X70424027Y-94789754D01*
X77344967Y-94789754D01*
X77358796Y-95000749D01*
X77359912Y-95005142D01*
X77359912Y-95005144D01*
X77382487Y-95094032D01*
X77410845Y-95205690D01*
X77412747Y-95209815D01*
X77412747Y-95209816D01*
X77451518Y-95293916D01*
X77499369Y-95397714D01*
X77621405Y-95570391D01*
X77772865Y-95717937D01*
X77776638Y-95720458D01*
X77944899Y-95832887D01*
X77944902Y-95832889D01*
X77948677Y-95835411D01*
X78045472Y-95876997D01*
X78138774Y-95917083D01*
X78138778Y-95917084D01*
X78142953Y-95918878D01*
X78147387Y-95919881D01*
X78147386Y-95919881D01*
X78344760Y-95964543D01*
X78344765Y-95964544D01*
X78349186Y-95965544D01*
X78454828Y-95969695D01*
X78555937Y-95973668D01*
X78555938Y-95973668D01*
X78560470Y-95973846D01*
X78769730Y-95943504D01*
X78774029Y-95942045D01*
X78774032Y-95942044D01*
X78965654Y-95876997D01*
X78969955Y-95875537D01*
X79154442Y-95772219D01*
X79317012Y-95637012D01*
X79452219Y-95474442D01*
X79503878Y-95382199D01*
X79553319Y-95293916D01*
X79553320Y-95293914D01*
X79555537Y-95289955D01*
X79582431Y-95210727D01*
X79622044Y-95094032D01*
X79622045Y-95094029D01*
X79623504Y-95089730D01*
X79637062Y-94996223D01*
X79653426Y-94883369D01*
X79653426Y-94883363D01*
X79653846Y-94880470D01*
X79655429Y-94820000D01*
X79636081Y-94609440D01*
X79578686Y-94405931D01*
X79485165Y-94216290D01*
X79358651Y-94046867D01*
X79203381Y-93903337D01*
X79024554Y-93790505D01*
X78828160Y-93712152D01*
X78620775Y-93670901D01*
X78516599Y-93669537D01*
X78413886Y-93668192D01*
X78413881Y-93668192D01*
X78409346Y-93668133D01*
X78404873Y-93668902D01*
X78404868Y-93668902D01*
X78301601Y-93686647D01*
X78200953Y-93703941D01*
X78002575Y-93777127D01*
X77998676Y-93779446D01*
X77998671Y-93779449D01*
X77824762Y-93882914D01*
X77820856Y-93885238D01*
X77817441Y-93888233D01*
X77817438Y-93888235D01*
X77802977Y-93900917D01*
X77661881Y-94024655D01*
X77530976Y-94190708D01*
X77432523Y-94377836D01*
X77369820Y-94579773D01*
X77369286Y-94584283D01*
X77369286Y-94584284D01*
X77347945Y-94764597D01*
X77344967Y-94789754D01*
X70424027Y-94789754D01*
X70294380Y-94763966D01*
X70291158Y-94763755D01*
X70291152Y-94763754D01*
X70003234Y-94744883D01*
X70000000Y-94744671D01*
X69996766Y-94744883D01*
X69708848Y-94763754D01*
X69708842Y-94763755D01*
X69705620Y-94763966D01*
X69416278Y-94821519D01*
X69136923Y-94916348D01*
X69008676Y-94979592D01*
X68875247Y-95045392D01*
X68875242Y-95045395D01*
X68872336Y-95046828D01*
X68869640Y-95048630D01*
X68869639Y-95048630D01*
X68848296Y-95062891D01*
X68627043Y-95210727D01*
X68405242Y-95405242D01*
X68210727Y-95627043D01*
X68046828Y-95872336D01*
X68045395Y-95875242D01*
X68045392Y-95875247D01*
X67996769Y-95973846D01*
X67916348Y-96136923D01*
X67821519Y-96416278D01*
X67763966Y-96705620D01*
X67763755Y-96708842D01*
X67763754Y-96708848D01*
X67762058Y-96734726D01*
X67744671Y-97000000D01*
X65300000Y-97000000D01*
X65300000Y-92249754D01*
X77344967Y-92249754D01*
X77358796Y-92460749D01*
X77359912Y-92465142D01*
X77359912Y-92465144D01*
X77382487Y-92554032D01*
X77410845Y-92665690D01*
X77412747Y-92669815D01*
X77412747Y-92669816D01*
X77451518Y-92753916D01*
X77499369Y-92857714D01*
X77621405Y-93030391D01*
X77772865Y-93177937D01*
X77776638Y-93180458D01*
X77944899Y-93292887D01*
X77944902Y-93292889D01*
X77948677Y-93295411D01*
X78045472Y-93336997D01*
X78138774Y-93377083D01*
X78138778Y-93377084D01*
X78142953Y-93378878D01*
X78147387Y-93379881D01*
X78147386Y-93379881D01*
X78344760Y-93424543D01*
X78344765Y-93424544D01*
X78349186Y-93425544D01*
X78454828Y-93429695D01*
X78555937Y-93433668D01*
X78555938Y-93433668D01*
X78560470Y-93433846D01*
X78769730Y-93403504D01*
X78774029Y-93402045D01*
X78774032Y-93402044D01*
X78965654Y-93336997D01*
X78969955Y-93335537D01*
X79154442Y-93232219D01*
X79317012Y-93097012D01*
X79452219Y-92934442D01*
X79555537Y-92749955D01*
X79556997Y-92745654D01*
X79622044Y-92554032D01*
X79622045Y-92554029D01*
X79623504Y-92549730D01*
X79653846Y-92340470D01*
X79655429Y-92280000D01*
X79648242Y-92201779D01*
X79644043Y-92156092D01*
X79636081Y-92069440D01*
X79578686Y-91865931D01*
X79485165Y-91676290D01*
X79366953Y-91517985D01*
X79361367Y-91510504D01*
X79361366Y-91510503D01*
X79358651Y-91506867D01*
X79343229Y-91492611D01*
X101294394Y-91492611D01*
X101295049Y-91498544D01*
X101295049Y-91498548D01*
X101296369Y-91510504D01*
X101312999Y-91661135D01*
X101371266Y-91820356D01*
X101374591Y-91825305D01*
X101374592Y-91825306D01*
X101385921Y-91842165D01*
X101465830Y-91961083D01*
X101591233Y-92075191D01*
X101740235Y-92156092D01*
X101775189Y-92165262D01*
X101898464Y-92197603D01*
X101898468Y-92197604D01*
X101904233Y-92199116D01*
X101910194Y-92199210D01*
X101910197Y-92199210D01*
X101988996Y-92200447D01*
X102073760Y-92201779D01*
X102079575Y-92200447D01*
X102079577Y-92200447D01*
X102233206Y-92165262D01*
X102233209Y-92165261D01*
X102239029Y-92163928D01*
X102254610Y-92156092D01*
X102385165Y-92090429D01*
X102390498Y-92087747D01*
X102395035Y-92083872D01*
X102395038Y-92083870D01*
X102514888Y-91981508D01*
X102514891Y-91981505D01*
X102519423Y-91977634D01*
X102618361Y-91839947D01*
X102681601Y-91682634D01*
X102705490Y-91514778D01*
X102705645Y-91500000D01*
X102688814Y-91360917D01*
X102685993Y-91337602D01*
X102685992Y-91337599D01*
X102685276Y-91331680D01*
X102625345Y-91173077D01*
X102618539Y-91163173D01*
X102532692Y-91038267D01*
X102529312Y-91033349D01*
X102402721Y-90920560D01*
X102395505Y-90916739D01*
X102336587Y-90885544D01*
X102252881Y-90841224D01*
X102170661Y-90820572D01*
X102094231Y-90801373D01*
X102094228Y-90801373D01*
X102088441Y-90799919D01*
X102002841Y-90799471D01*
X101924861Y-90799062D01*
X101924859Y-90799062D01*
X101918895Y-90799031D01*
X101913099Y-90800423D01*
X101913095Y-90800423D01*
X101805703Y-90826207D01*
X101754032Y-90838612D01*
X101678701Y-90877493D01*
X101608675Y-90913636D01*
X101608673Y-90913638D01*
X101603369Y-90916375D01*
X101475604Y-91027831D01*
X101378113Y-91166547D01*
X101316524Y-91324513D01*
X101315745Y-91330428D01*
X101315745Y-91330429D01*
X101313401Y-91348235D01*
X101294394Y-91492611D01*
X79343229Y-91492611D01*
X79203381Y-91363337D01*
X79167075Y-91340429D01*
X79028391Y-91252926D01*
X79024554Y-91250505D01*
X78828160Y-91172152D01*
X78620775Y-91130901D01*
X78516599Y-91129537D01*
X78413886Y-91128192D01*
X78413881Y-91128192D01*
X78409346Y-91128133D01*
X78404873Y-91128902D01*
X78404868Y-91128902D01*
X78301601Y-91146647D01*
X78200953Y-91163941D01*
X78002575Y-91237127D01*
X77998676Y-91239446D01*
X77998671Y-91239449D01*
X77843645Y-91331680D01*
X77820856Y-91345238D01*
X77817441Y-91348233D01*
X77817438Y-91348235D01*
X77802977Y-91360917D01*
X77661881Y-91484655D01*
X77530976Y-91650708D01*
X77528862Y-91654726D01*
X77441720Y-91820356D01*
X77432523Y-91837836D01*
X77431179Y-91842165D01*
X77389115Y-91977634D01*
X77369820Y-92039773D01*
X77369286Y-92044283D01*
X77369286Y-92044284D01*
X77351140Y-92197603D01*
X77344967Y-92249754D01*
X65300000Y-92249754D01*
X65300000Y-89709754D01*
X77344967Y-89709754D01*
X77358796Y-89920749D01*
X77359912Y-89925142D01*
X77359912Y-89925144D01*
X77391601Y-90049919D01*
X77410845Y-90125690D01*
X77412747Y-90129815D01*
X77412747Y-90129816D01*
X77483527Y-90283349D01*
X77499369Y-90317714D01*
X77621405Y-90490391D01*
X77772865Y-90637937D01*
X77776638Y-90640458D01*
X77944899Y-90752887D01*
X77944902Y-90752889D01*
X77948677Y-90755411D01*
X78045472Y-90796997D01*
X78138774Y-90837083D01*
X78138778Y-90837084D01*
X78142953Y-90838878D01*
X78147387Y-90839881D01*
X78147386Y-90839881D01*
X78344760Y-90884543D01*
X78344765Y-90884544D01*
X78349186Y-90885544D01*
X78454828Y-90889695D01*
X78555937Y-90893668D01*
X78555938Y-90893668D01*
X78560470Y-90893846D01*
X78769730Y-90863504D01*
X78774029Y-90862045D01*
X78774032Y-90862044D01*
X78965654Y-90796997D01*
X78969955Y-90795537D01*
X79019153Y-90767985D01*
X79064461Y-90742611D01*
X107794394Y-90742611D01*
X107795049Y-90748544D01*
X107795049Y-90748548D01*
X107811090Y-90893846D01*
X107812999Y-90911135D01*
X107871266Y-91070356D01*
X107874591Y-91075305D01*
X107874592Y-91075306D01*
X107887689Y-91094796D01*
X107965830Y-91211083D01*
X108091233Y-91325191D01*
X108240235Y-91406092D01*
X108275189Y-91415262D01*
X108398464Y-91447603D01*
X108398468Y-91447604D01*
X108404233Y-91449116D01*
X108410194Y-91449210D01*
X108410197Y-91449210D01*
X108488965Y-91450447D01*
X108573760Y-91451779D01*
X108579575Y-91450447D01*
X108579577Y-91450447D01*
X108733206Y-91415262D01*
X108733209Y-91415261D01*
X108739029Y-91413928D01*
X108754610Y-91406092D01*
X108839618Y-91363337D01*
X108890498Y-91337747D01*
X108895035Y-91333872D01*
X108895038Y-91333870D01*
X109014888Y-91231508D01*
X109014891Y-91231505D01*
X109019423Y-91227634D01*
X109059291Y-91172152D01*
X109114877Y-91094796D01*
X109114878Y-91094794D01*
X109118361Y-91089947D01*
X109139137Y-91038267D01*
X109179377Y-90938167D01*
X109179378Y-90938165D01*
X109181601Y-90932634D01*
X109182755Y-90924528D01*
X109205034Y-90767985D01*
X109205034Y-90767979D01*
X109205490Y-90764778D01*
X109205645Y-90750000D01*
X109185276Y-90581680D01*
X109125345Y-90423077D01*
X109108064Y-90397932D01*
X109032692Y-90288267D01*
X109029312Y-90283349D01*
X108902721Y-90170560D01*
X108752881Y-90091224D01*
X108670661Y-90070571D01*
X108594231Y-90051373D01*
X108594228Y-90051373D01*
X108588441Y-90049919D01*
X108502841Y-90049471D01*
X108424861Y-90049062D01*
X108424859Y-90049062D01*
X108418895Y-90049031D01*
X108413099Y-90050423D01*
X108413095Y-90050423D01*
X108305703Y-90076207D01*
X108254032Y-90088612D01*
X108182195Y-90125690D01*
X108108675Y-90163636D01*
X108108673Y-90163638D01*
X108103369Y-90166375D01*
X107975604Y-90277831D01*
X107972173Y-90282713D01*
X107972172Y-90282714D01*
X107891196Y-90397932D01*
X107878113Y-90416547D01*
X107816524Y-90574513D01*
X107794394Y-90742611D01*
X79064461Y-90742611D01*
X79154442Y-90692219D01*
X79317012Y-90557012D01*
X79452219Y-90394442D01*
X79514790Y-90282714D01*
X79553319Y-90213916D01*
X79553320Y-90213914D01*
X79555537Y-90209955D01*
X79571260Y-90163636D01*
X79622044Y-90014032D01*
X79622045Y-90014029D01*
X79623504Y-90009730D01*
X79637062Y-89916223D01*
X79653426Y-89803369D01*
X79653426Y-89803363D01*
X79653846Y-89800470D01*
X79655429Y-89740000D01*
X79654237Y-89727019D01*
X79636496Y-89533960D01*
X79636081Y-89529440D01*
X79626490Y-89495434D01*
X79579920Y-89330306D01*
X79579920Y-89330305D01*
X79578686Y-89325931D01*
X79516583Y-89200000D01*
X85931318Y-89200000D01*
X85951956Y-89356762D01*
X86012464Y-89502841D01*
X86108718Y-89628282D01*
X86234159Y-89724536D01*
X86380238Y-89785044D01*
X86537000Y-89805682D01*
X86693762Y-89785044D01*
X86839841Y-89724536D01*
X86864975Y-89705250D01*
X86901733Y-89677045D01*
X86959409Y-89656621D01*
X87022267Y-89677045D01*
X87059025Y-89705250D01*
X87084159Y-89724536D01*
X87230238Y-89785044D01*
X87387000Y-89805682D01*
X87543762Y-89785044D01*
X87689841Y-89724536D01*
X87815282Y-89628282D01*
X87911536Y-89502841D01*
X87972044Y-89356762D01*
X87992682Y-89200000D01*
X87972044Y-89043238D01*
X87911536Y-88897159D01*
X87815282Y-88771718D01*
X87689841Y-88675464D01*
X87543762Y-88614956D01*
X87387000Y-88594318D01*
X87230238Y-88614956D01*
X87084159Y-88675464D01*
X87079010Y-88679415D01*
X87022267Y-88722955D01*
X86964591Y-88743379D01*
X86901733Y-88722955D01*
X86844990Y-88679415D01*
X86839841Y-88675464D01*
X86693762Y-88614956D01*
X86537000Y-88594318D01*
X86380238Y-88614956D01*
X86234159Y-88675464D01*
X86108718Y-88771718D01*
X86012464Y-88897159D01*
X85951956Y-89043238D01*
X85931318Y-89200000D01*
X79516583Y-89200000D01*
X79485165Y-89136290D01*
X79358651Y-88966867D01*
X79203381Y-88823337D01*
X79126037Y-88774536D01*
X79028391Y-88712926D01*
X79024554Y-88710505D01*
X78828160Y-88632152D01*
X78620775Y-88590901D01*
X78516599Y-88589537D01*
X78413886Y-88588192D01*
X78413881Y-88588192D01*
X78409346Y-88588133D01*
X78404873Y-88588902D01*
X78404868Y-88588902D01*
X78301601Y-88606647D01*
X78200953Y-88623941D01*
X78002575Y-88697127D01*
X77998676Y-88699446D01*
X77998671Y-88699449D01*
X77868288Y-88777019D01*
X77820856Y-88805238D01*
X77817441Y-88808233D01*
X77817438Y-88808235D01*
X77721911Y-88892010D01*
X77661881Y-88944655D01*
X77530976Y-89110708D01*
X77432523Y-89297836D01*
X77369820Y-89499773D01*
X77344967Y-89709754D01*
X65300000Y-89709754D01*
X65300000Y-87169754D01*
X77344967Y-87169754D01*
X77350397Y-87252597D01*
X77356440Y-87344796D01*
X77358796Y-87380749D01*
X77359912Y-87385142D01*
X77359912Y-87385144D01*
X77382172Y-87472790D01*
X77410845Y-87585690D01*
X77412747Y-87589815D01*
X77412747Y-87589816D01*
X77464363Y-87701779D01*
X77499369Y-87777714D01*
X77621405Y-87950391D01*
X77772865Y-88097937D01*
X77776638Y-88100458D01*
X77944899Y-88212887D01*
X77944902Y-88212889D01*
X77948677Y-88215411D01*
X78044161Y-88256434D01*
X78138774Y-88297083D01*
X78138778Y-88297084D01*
X78142953Y-88298878D01*
X78147387Y-88299881D01*
X78147386Y-88299881D01*
X78344760Y-88344543D01*
X78344765Y-88344544D01*
X78349186Y-88345544D01*
X78454828Y-88349695D01*
X78555937Y-88353668D01*
X78555938Y-88353668D01*
X78560470Y-88353846D01*
X78769730Y-88323504D01*
X78774029Y-88322045D01*
X78774032Y-88322044D01*
X78965654Y-88256997D01*
X78969955Y-88255537D01*
X79154442Y-88152219D01*
X79317012Y-88017012D01*
X79452219Y-87854442D01*
X79538461Y-87700447D01*
X79553319Y-87673916D01*
X79553320Y-87673914D01*
X79555537Y-87669955D01*
X79570544Y-87625745D01*
X79622044Y-87474032D01*
X79622045Y-87474029D01*
X79623504Y-87469730D01*
X79653846Y-87260470D01*
X79655429Y-87200000D01*
X79653834Y-87182634D01*
X79636496Y-86993960D01*
X79636372Y-86992611D01*
X99294394Y-86992611D01*
X99295049Y-86998544D01*
X99295049Y-86998548D01*
X99295566Y-87003231D01*
X99312999Y-87161135D01*
X99371266Y-87320356D01*
X99374591Y-87325305D01*
X99374592Y-87325306D01*
X99387689Y-87344796D01*
X99465830Y-87461083D01*
X99591233Y-87575191D01*
X99740235Y-87656092D01*
X99783491Y-87667440D01*
X99898464Y-87697603D01*
X99898468Y-87697604D01*
X99904233Y-87699116D01*
X99910194Y-87699210D01*
X99910197Y-87699210D01*
X99988996Y-87700447D01*
X100073760Y-87701779D01*
X100079575Y-87700447D01*
X100079577Y-87700447D01*
X100218198Y-87668699D01*
X100279141Y-87674138D01*
X100325248Y-87714360D01*
X100338907Y-87774001D01*
X100318841Y-87825467D01*
X100225464Y-87947159D01*
X100164956Y-88093238D01*
X100144318Y-88250000D01*
X100164956Y-88406762D01*
X100225464Y-88552841D01*
X100321718Y-88678282D01*
X100447159Y-88774536D01*
X100593238Y-88835044D01*
X100750000Y-88855682D01*
X100906762Y-88835044D01*
X101052841Y-88774536D01*
X101178282Y-88678282D01*
X101274536Y-88552841D01*
X101335044Y-88406762D01*
X101355682Y-88250000D01*
X101335044Y-88093238D01*
X101274536Y-87947159D01*
X101178282Y-87821718D01*
X101052841Y-87725464D01*
X100906762Y-87664956D01*
X100750000Y-87644318D01*
X100743566Y-87645165D01*
X100671619Y-87654637D01*
X100593238Y-87664956D01*
X100587241Y-87667440D01*
X100587204Y-87667450D01*
X100526103Y-87664249D01*
X100478552Y-87625745D01*
X100462715Y-87566645D01*
X100484640Y-87509523D01*
X100497282Y-87496545D01*
X100514886Y-87481509D01*
X100519423Y-87477634D01*
X100618361Y-87339947D01*
X100649146Y-87263369D01*
X100679377Y-87188167D01*
X100679378Y-87188165D01*
X100681601Y-87182634D01*
X100705490Y-87014778D01*
X100705645Y-87000000D01*
X100685276Y-86831680D01*
X100625345Y-86673077D01*
X100572571Y-86596290D01*
X100532692Y-86538267D01*
X100529312Y-86533349D01*
X100402721Y-86420560D01*
X100252881Y-86341224D01*
X100170661Y-86320572D01*
X100094231Y-86301373D01*
X100094228Y-86301373D01*
X100088441Y-86299919D01*
X100002841Y-86299471D01*
X99924861Y-86299062D01*
X99924859Y-86299062D01*
X99918895Y-86299031D01*
X99913099Y-86300423D01*
X99913095Y-86300423D01*
X99805703Y-86326207D01*
X99754032Y-86338612D01*
X99678700Y-86377494D01*
X99608675Y-86413636D01*
X99608673Y-86413638D01*
X99603369Y-86416375D01*
X99475604Y-86527831D01*
X99472173Y-86532713D01*
X99472172Y-86532714D01*
X99442646Y-86574726D01*
X99378113Y-86666547D01*
X99316524Y-86824513D01*
X99294394Y-86992611D01*
X79636372Y-86992611D01*
X79636081Y-86989440D01*
X79593259Y-86837602D01*
X79579920Y-86790306D01*
X79579920Y-86790305D01*
X79578686Y-86785931D01*
X79485165Y-86596290D01*
X79358651Y-86426867D01*
X79203381Y-86283337D01*
X79024554Y-86170505D01*
X78828160Y-86092152D01*
X78620775Y-86050901D01*
X78516599Y-86049537D01*
X78413886Y-86048192D01*
X78413881Y-86048192D01*
X78409346Y-86048133D01*
X78404873Y-86048902D01*
X78404868Y-86048902D01*
X78301601Y-86066647D01*
X78200953Y-86083941D01*
X78002575Y-86157127D01*
X77998676Y-86159446D01*
X77998671Y-86159449D01*
X77824762Y-86262914D01*
X77820856Y-86265238D01*
X77817441Y-86268233D01*
X77817438Y-86268235D01*
X77714262Y-86358718D01*
X77661881Y-86404655D01*
X77530976Y-86570708D01*
X77528862Y-86574726D01*
X77480553Y-86666547D01*
X77432523Y-86757836D01*
X77369820Y-86959773D01*
X77344967Y-87169754D01*
X65300000Y-87169754D01*
X65300000Y-84629754D01*
X77344967Y-84629754D01*
X77358796Y-84840749D01*
X77359912Y-84845142D01*
X77359912Y-84845144D01*
X77382487Y-84934032D01*
X77410845Y-85045690D01*
X77412747Y-85049815D01*
X77412747Y-85049816D01*
X77451518Y-85133916D01*
X77499369Y-85237714D01*
X77621405Y-85410391D01*
X77772865Y-85557937D01*
X77776638Y-85560458D01*
X77944899Y-85672887D01*
X77944902Y-85672889D01*
X77948677Y-85675411D01*
X78045472Y-85716997D01*
X78138774Y-85757083D01*
X78138778Y-85757084D01*
X78142953Y-85758878D01*
X78147387Y-85759881D01*
X78147386Y-85759881D01*
X78344760Y-85804543D01*
X78344765Y-85804544D01*
X78349186Y-85805544D01*
X78454828Y-85809695D01*
X78555937Y-85813668D01*
X78555938Y-85813668D01*
X78560470Y-85813846D01*
X78769730Y-85783504D01*
X78774029Y-85782045D01*
X78774032Y-85782044D01*
X78965654Y-85716997D01*
X78969955Y-85715537D01*
X79154442Y-85612219D01*
X79317012Y-85477012D01*
X79452219Y-85314442D01*
X79460995Y-85298772D01*
X105436500Y-85298772D01*
X105447364Y-85388547D01*
X105502887Y-85528783D01*
X105506967Y-85534158D01*
X105506968Y-85534160D01*
X105564015Y-85609316D01*
X105594078Y-85648922D01*
X105599457Y-85653005D01*
X105708840Y-85736032D01*
X105708842Y-85736033D01*
X105714217Y-85740113D01*
X105854453Y-85795636D01*
X105944228Y-85806500D01*
X107719772Y-85806500D01*
X107809547Y-85795636D01*
X107949783Y-85740113D01*
X107955158Y-85736033D01*
X107955160Y-85736032D01*
X108064543Y-85653005D01*
X108069922Y-85648922D01*
X108099985Y-85609316D01*
X108157032Y-85534160D01*
X108157033Y-85534158D01*
X108161113Y-85528783D01*
X108216636Y-85388547D01*
X108227500Y-85298772D01*
X108227500Y-83973228D01*
X108216636Y-83883453D01*
X108161113Y-83743217D01*
X108075560Y-83630505D01*
X108074005Y-83628457D01*
X108069922Y-83623078D01*
X108039089Y-83599674D01*
X107955160Y-83535968D01*
X107955158Y-83535967D01*
X107949783Y-83531887D01*
X107809547Y-83476364D01*
X107719772Y-83465500D01*
X105944228Y-83465500D01*
X105854453Y-83476364D01*
X105714217Y-83531887D01*
X105708842Y-83535967D01*
X105708840Y-83535968D01*
X105624911Y-83599674D01*
X105594078Y-83623078D01*
X105589995Y-83628457D01*
X105588441Y-83630505D01*
X105502887Y-83743217D01*
X105447364Y-83883453D01*
X105436500Y-83973228D01*
X105436500Y-85298772D01*
X79460995Y-85298772D01*
X79555537Y-85129955D01*
X79556997Y-85125654D01*
X79622044Y-84934032D01*
X79622045Y-84934029D01*
X79623504Y-84929730D01*
X79653846Y-84720470D01*
X79655429Y-84660000D01*
X79636081Y-84449440D01*
X79578686Y-84245931D01*
X79485165Y-84056290D01*
X79391634Y-83931037D01*
X79361367Y-83890504D01*
X79361366Y-83890503D01*
X79358651Y-83886867D01*
X79210589Y-83750000D01*
X94144318Y-83750000D01*
X94164956Y-83906762D01*
X94225464Y-84052841D01*
X94321718Y-84178282D01*
X94447159Y-84274536D01*
X94593238Y-84335044D01*
X94750000Y-84355682D01*
X94906762Y-84335044D01*
X95052841Y-84274536D01*
X95178282Y-84178282D01*
X95274536Y-84052841D01*
X95335044Y-83906762D01*
X95355682Y-83750000D01*
X95335044Y-83593238D01*
X95274536Y-83447159D01*
X95178282Y-83321718D01*
X95052841Y-83225464D01*
X94906762Y-83164956D01*
X94750000Y-83144318D01*
X94593238Y-83164956D01*
X94447159Y-83225464D01*
X94321718Y-83321718D01*
X94225464Y-83447159D01*
X94164956Y-83593238D01*
X94144318Y-83750000D01*
X79210589Y-83750000D01*
X79203381Y-83743337D01*
X79024554Y-83630505D01*
X78828160Y-83552152D01*
X78620775Y-83510901D01*
X78516599Y-83509537D01*
X78413886Y-83508192D01*
X78413881Y-83508192D01*
X78409346Y-83508133D01*
X78404873Y-83508902D01*
X78404868Y-83508902D01*
X78301601Y-83526647D01*
X78200953Y-83543941D01*
X78002575Y-83617127D01*
X77998676Y-83619446D01*
X77998671Y-83619449D01*
X77824762Y-83722914D01*
X77820856Y-83725238D01*
X77817441Y-83728233D01*
X77817438Y-83728235D01*
X77714262Y-83818718D01*
X77661881Y-83864655D01*
X77659073Y-83868217D01*
X77578628Y-83970262D01*
X77530976Y-84030708D01*
X77528862Y-84034726D01*
X77456045Y-84173129D01*
X77432523Y-84217836D01*
X77369820Y-84419773D01*
X77344967Y-84629754D01*
X65300000Y-84629754D01*
X65300000Y-82089754D01*
X77344967Y-82089754D01*
X77347327Y-82125767D01*
X77356650Y-82268000D01*
X77358796Y-82300749D01*
X77359912Y-82305142D01*
X77359912Y-82305144D01*
X77382487Y-82394032D01*
X77410845Y-82505690D01*
X77412747Y-82509815D01*
X77412747Y-82509816D01*
X77496335Y-82691132D01*
X77499369Y-82697714D01*
X77621405Y-82870391D01*
X77772865Y-83017937D01*
X77776638Y-83020458D01*
X77944899Y-83132887D01*
X77944902Y-83132889D01*
X77948677Y-83135411D01*
X78045472Y-83176997D01*
X78138774Y-83217083D01*
X78138778Y-83217084D01*
X78142953Y-83218878D01*
X78147387Y-83219881D01*
X78147386Y-83219881D01*
X78344760Y-83264543D01*
X78344765Y-83264544D01*
X78349186Y-83265544D01*
X78454828Y-83269695D01*
X78555937Y-83273668D01*
X78555938Y-83273668D01*
X78560470Y-83273846D01*
X78769730Y-83243504D01*
X78774029Y-83242045D01*
X78774032Y-83242044D01*
X78965654Y-83176997D01*
X78969955Y-83175537D01*
X78984414Y-83167440D01*
X79062199Y-83123878D01*
X79154442Y-83072219D01*
X79317012Y-82937012D01*
X79452219Y-82774442D01*
X79555537Y-82589955D01*
X79576442Y-82528370D01*
X79622044Y-82394032D01*
X79622045Y-82394029D01*
X79623504Y-82389730D01*
X79641047Y-82268741D01*
X79653426Y-82183369D01*
X79653426Y-82183363D01*
X79653846Y-82180470D01*
X79655429Y-82120000D01*
X79653539Y-82099426D01*
X79644749Y-82003770D01*
X79636081Y-81909440D01*
X79607584Y-81808395D01*
X79579920Y-81710306D01*
X79579920Y-81710305D01*
X79578686Y-81705931D01*
X79557962Y-81663906D01*
X79519554Y-81586023D01*
X79485165Y-81516290D01*
X79476136Y-81504199D01*
X88102689Y-81504199D01*
X88123327Y-81660961D01*
X88183835Y-81807040D01*
X88280089Y-81932481D01*
X88405530Y-82028735D01*
X88551609Y-82089243D01*
X88589646Y-82094251D01*
X88628955Y-82099426D01*
X88684180Y-82125767D01*
X88714186Y-82184657D01*
X88715246Y-82192706D01*
X88724369Y-82262003D01*
X88784877Y-82408082D01*
X88881131Y-82533523D01*
X89006572Y-82629777D01*
X89152651Y-82690285D01*
X89309413Y-82710923D01*
X89466175Y-82690285D01*
X89612254Y-82629777D01*
X89737695Y-82533523D01*
X89833949Y-82408082D01*
X89891666Y-82268741D01*
X94713958Y-82268741D01*
X94734596Y-82425503D01*
X94795104Y-82571582D01*
X94891358Y-82697023D01*
X95016799Y-82793277D01*
X95162878Y-82853785D01*
X95289014Y-82870391D01*
X95313047Y-82873555D01*
X95319640Y-82874423D01*
X95326234Y-82873555D01*
X95350266Y-82870391D01*
X95476402Y-82853785D01*
X95622481Y-82793277D01*
X95747922Y-82697023D01*
X95844176Y-82571582D01*
X95904684Y-82425503D01*
X95925322Y-82268741D01*
X95914723Y-82188230D01*
X105435109Y-82188230D01*
X105435878Y-82192705D01*
X105435878Y-82192706D01*
X105454443Y-82300749D01*
X105471540Y-82400246D01*
X105480858Y-82425503D01*
X105534749Y-82571582D01*
X105545997Y-82602072D01*
X105655988Y-82786950D01*
X105658983Y-82790365D01*
X105658985Y-82790368D01*
X105680533Y-82814938D01*
X105797829Y-82948688D01*
X105966769Y-83081870D01*
X106157150Y-83182034D01*
X106187407Y-83191429D01*
X106358258Y-83244480D01*
X106358261Y-83244481D01*
X106362597Y-83245827D01*
X106367107Y-83246361D01*
X106367108Y-83246361D01*
X106402915Y-83250599D01*
X106537262Y-83266500D01*
X107111578Y-83266500D01*
X107271221Y-83251831D01*
X107478267Y-83193438D01*
X107671205Y-83098291D01*
X107843573Y-82969578D01*
X107876906Y-82933519D01*
X107986521Y-82814938D01*
X107986522Y-82814937D01*
X107989599Y-82811608D01*
X107999599Y-82795760D01*
X108101971Y-82633510D01*
X108104392Y-82629673D01*
X108117105Y-82597809D01*
X108182426Y-82434077D01*
X108184107Y-82429864D01*
X108226075Y-82218875D01*
X108228532Y-82031218D01*
X108228832Y-82008309D01*
X108228832Y-82008304D01*
X108228891Y-82003770D01*
X108207585Y-81879773D01*
X108193228Y-81796223D01*
X108193228Y-81796222D01*
X108192460Y-81791754D01*
X108152596Y-81683697D01*
X108119576Y-81594191D01*
X108119575Y-81594188D01*
X108118003Y-81589928D01*
X108114867Y-81584656D01*
X108070459Y-81510014D01*
X108008012Y-81405050D01*
X108005017Y-81401635D01*
X108005015Y-81401632D01*
X107937507Y-81324655D01*
X107866171Y-81243312D01*
X107697231Y-81110130D01*
X107506850Y-81009966D01*
X107413925Y-80981112D01*
X107305742Y-80947520D01*
X107305739Y-80947519D01*
X107301403Y-80946173D01*
X107296893Y-80945639D01*
X107296892Y-80945639D01*
X107259312Y-80941191D01*
X107126738Y-80925500D01*
X106552422Y-80925500D01*
X106392779Y-80940169D01*
X106185733Y-80998562D01*
X105992795Y-81093709D01*
X105820427Y-81222422D01*
X105817346Y-81225755D01*
X105728690Y-81321663D01*
X105674401Y-81380392D01*
X105671983Y-81384225D01*
X105671981Y-81384227D01*
X105634910Y-81442981D01*
X105559608Y-81562327D01*
X105557928Y-81566538D01*
X105557926Y-81566542D01*
X105532161Y-81631124D01*
X105479893Y-81762136D01*
X105437925Y-81973125D01*
X105436517Y-82080677D01*
X105435173Y-82183369D01*
X105435109Y-82188230D01*
X95914723Y-82188230D01*
X95904684Y-82111979D01*
X95844176Y-81965900D01*
X95747922Y-81840459D01*
X95622481Y-81744205D01*
X95476402Y-81683697D01*
X95319640Y-81663059D01*
X95162878Y-81683697D01*
X95016799Y-81744205D01*
X94891358Y-81840459D01*
X94795104Y-81965900D01*
X94734596Y-82111979D01*
X94713958Y-82268741D01*
X89891666Y-82268741D01*
X89894457Y-82262003D01*
X89915095Y-82105241D01*
X89894457Y-81948479D01*
X89833949Y-81802400D01*
X89737695Y-81676959D01*
X89612254Y-81580705D01*
X89466175Y-81520197D01*
X89428138Y-81515189D01*
X89388829Y-81510014D01*
X89333604Y-81483673D01*
X89303598Y-81424783D01*
X89298258Y-81384227D01*
X89293415Y-81347437D01*
X89232907Y-81201358D01*
X89136653Y-81075917D01*
X89011212Y-80979663D01*
X88865133Y-80919155D01*
X88708371Y-80898517D01*
X88551609Y-80919155D01*
X88405530Y-80979663D01*
X88280089Y-81075917D01*
X88183835Y-81201358D01*
X88123327Y-81347437D01*
X88102689Y-81504199D01*
X79476136Y-81504199D01*
X79358651Y-81346867D01*
X79203381Y-81203337D01*
X79024554Y-81090505D01*
X78828160Y-81012152D01*
X78620775Y-80970901D01*
X78516599Y-80969537D01*
X78413886Y-80968192D01*
X78413881Y-80968192D01*
X78409346Y-80968133D01*
X78404873Y-80968902D01*
X78404868Y-80968902D01*
X78301601Y-80986647D01*
X78200953Y-81003941D01*
X78002575Y-81077127D01*
X77998676Y-81079446D01*
X77998671Y-81079449D01*
X77824762Y-81182914D01*
X77820856Y-81185238D01*
X77817441Y-81188233D01*
X77817438Y-81188235D01*
X77754635Y-81243312D01*
X77661881Y-81324655D01*
X77659073Y-81328217D01*
X77555666Y-81459389D01*
X77530976Y-81490708D01*
X77528862Y-81494726D01*
X77435065Y-81673005D01*
X77432523Y-81677836D01*
X77431179Y-81682165D01*
X77397151Y-81791754D01*
X77369820Y-81879773D01*
X77369286Y-81884283D01*
X77369286Y-81884284D01*
X77360236Y-81960751D01*
X77344967Y-82089754D01*
X65300000Y-82089754D01*
X65300000Y-79549754D01*
X77344967Y-79549754D01*
X77347424Y-79587241D01*
X77357670Y-79743566D01*
X77358796Y-79760749D01*
X77359912Y-79765142D01*
X77359912Y-79765144D01*
X77382487Y-79854032D01*
X77410845Y-79965690D01*
X77412747Y-79969815D01*
X77412747Y-79969816D01*
X77469771Y-80093510D01*
X77499369Y-80157714D01*
X77621405Y-80330391D01*
X77772865Y-80477937D01*
X77776638Y-80480458D01*
X77944899Y-80592887D01*
X77944902Y-80592889D01*
X77948677Y-80595411D01*
X78045472Y-80636997D01*
X78138774Y-80677083D01*
X78138778Y-80677084D01*
X78142953Y-80678878D01*
X78147387Y-80679881D01*
X78147386Y-80679881D01*
X78344760Y-80724543D01*
X78344765Y-80724544D01*
X78349186Y-80725544D01*
X78454828Y-80729695D01*
X78555937Y-80733668D01*
X78555938Y-80733668D01*
X78560470Y-80733846D01*
X78769730Y-80703504D01*
X78774029Y-80702045D01*
X78774032Y-80702044D01*
X78965654Y-80636997D01*
X78969955Y-80635537D01*
X79154442Y-80532219D01*
X79317012Y-80397012D01*
X79452219Y-80234442D01*
X79555537Y-80049955D01*
X79556997Y-80045654D01*
X79622044Y-79854032D01*
X79622045Y-79854029D01*
X79623504Y-79849730D01*
X79637965Y-79750000D01*
X93394318Y-79750000D01*
X93414956Y-79906762D01*
X93475464Y-80052841D01*
X93571718Y-80178282D01*
X93697159Y-80274536D01*
X93732848Y-80289319D01*
X93763612Y-80302062D01*
X93810138Y-80341799D01*
X93824421Y-80401294D01*
X93801006Y-80457822D01*
X93790805Y-80468129D01*
X93752223Y-80501785D01*
X93752217Y-80501792D01*
X93747723Y-80505712D01*
X93744292Y-80510594D01*
X93744291Y-80510595D01*
X93653663Y-80639546D01*
X93650232Y-80644428D01*
X93588643Y-80802394D01*
X93566513Y-80970492D01*
X93567168Y-80976425D01*
X93567168Y-80976429D01*
X93581929Y-81110130D01*
X93585118Y-81139016D01*
X93643385Y-81298237D01*
X93646710Y-81303186D01*
X93646711Y-81303187D01*
X93672416Y-81341440D01*
X93737949Y-81438964D01*
X93863352Y-81553072D01*
X94012354Y-81633973D01*
X94047308Y-81643143D01*
X94170583Y-81675484D01*
X94170587Y-81675485D01*
X94176352Y-81676997D01*
X94182313Y-81677091D01*
X94182316Y-81677091D01*
X94261115Y-81678328D01*
X94345879Y-81679660D01*
X94351694Y-81678328D01*
X94351696Y-81678328D01*
X94505325Y-81643143D01*
X94505328Y-81643142D01*
X94511148Y-81641809D01*
X94526729Y-81633973D01*
X94624784Y-81584656D01*
X94662617Y-81565628D01*
X94667154Y-81561753D01*
X94667157Y-81561751D01*
X94787007Y-81459389D01*
X94787010Y-81459386D01*
X94791542Y-81455515D01*
X94813625Y-81424783D01*
X94886996Y-81322677D01*
X94886997Y-81322675D01*
X94890480Y-81317828D01*
X94927494Y-81225755D01*
X94951496Y-81166048D01*
X94951497Y-81166046D01*
X94953720Y-81160515D01*
X94960891Y-81110130D01*
X94977153Y-80995866D01*
X94977153Y-80995860D01*
X94977609Y-80992659D01*
X94977764Y-80977881D01*
X94957395Y-80809561D01*
X94897464Y-80650958D01*
X94892255Y-80643378D01*
X94804811Y-80516148D01*
X94801431Y-80511230D01*
X94674840Y-80398441D01*
X94525000Y-80319105D01*
X94499485Y-80312696D01*
X94447654Y-80280181D01*
X94424834Y-80223410D01*
X94439741Y-80164069D01*
X94445063Y-80156412D01*
X94493330Y-80093510D01*
X94524536Y-80052841D01*
X94585044Y-79906762D01*
X94605682Y-79750000D01*
X94592284Y-79648230D01*
X105435109Y-79648230D01*
X105435878Y-79652705D01*
X105435878Y-79652706D01*
X105453702Y-79756434D01*
X105471540Y-79860246D01*
X105482467Y-79889864D01*
X105542592Y-80052841D01*
X105545997Y-80062072D01*
X105655988Y-80246950D01*
X105658983Y-80250365D01*
X105658985Y-80250368D01*
X105683043Y-80277800D01*
X105797829Y-80408688D01*
X105966769Y-80541870D01*
X106157150Y-80642034D01*
X106185890Y-80650958D01*
X106358258Y-80704480D01*
X106358261Y-80704481D01*
X106362597Y-80705827D01*
X106367107Y-80706361D01*
X106367108Y-80706361D01*
X106402915Y-80710599D01*
X106537262Y-80726500D01*
X107111578Y-80726500D01*
X107271221Y-80711831D01*
X107478267Y-80653438D01*
X107671205Y-80558291D01*
X107843573Y-80429578D01*
X107868688Y-80402409D01*
X107986521Y-80274938D01*
X107986522Y-80274937D01*
X107989599Y-80271608D01*
X108007623Y-80243043D01*
X108101971Y-80093510D01*
X108104392Y-80089673D01*
X108117105Y-80057809D01*
X108182426Y-79894077D01*
X108184107Y-79889864D01*
X108226075Y-79678875D01*
X108227824Y-79545250D01*
X108228832Y-79468309D01*
X108228832Y-79468304D01*
X108228891Y-79463770D01*
X108221471Y-79420585D01*
X108193228Y-79256223D01*
X108193228Y-79256222D01*
X108192460Y-79251754D01*
X108118003Y-79049928D01*
X108107478Y-79032236D01*
X108056852Y-78947143D01*
X108008012Y-78865050D01*
X108005017Y-78861635D01*
X108005015Y-78861632D01*
X107934883Y-78781663D01*
X107866171Y-78703312D01*
X107697231Y-78570130D01*
X107506850Y-78469966D01*
X107383894Y-78431787D01*
X107305742Y-78407520D01*
X107305739Y-78407519D01*
X107301403Y-78406173D01*
X107296893Y-78405639D01*
X107296892Y-78405639D01*
X107259312Y-78401191D01*
X107126738Y-78385500D01*
X106552422Y-78385500D01*
X106392779Y-78400169D01*
X106185733Y-78458562D01*
X105992795Y-78553709D01*
X105820427Y-78682422D01*
X105817346Y-78685755D01*
X105728690Y-78781663D01*
X105674401Y-78840392D01*
X105671983Y-78844225D01*
X105671981Y-78844227D01*
X105607046Y-78947143D01*
X105559608Y-79022327D01*
X105557928Y-79026538D01*
X105557926Y-79026542D01*
X105545870Y-79056762D01*
X105479893Y-79222136D01*
X105437925Y-79433125D01*
X105437234Y-79485891D01*
X105435173Y-79643369D01*
X105435109Y-79648230D01*
X94592284Y-79648230D01*
X94585044Y-79593238D01*
X94524536Y-79447159D01*
X94428282Y-79321718D01*
X94302841Y-79225464D01*
X94156762Y-79164956D01*
X94000000Y-79144318D01*
X93843238Y-79164956D01*
X93697159Y-79225464D01*
X93571718Y-79321718D01*
X93475464Y-79447159D01*
X93414956Y-79593238D01*
X93394318Y-79750000D01*
X79637965Y-79750000D01*
X79653426Y-79643369D01*
X79653426Y-79643363D01*
X79653846Y-79640470D01*
X79655083Y-79593238D01*
X79655353Y-79582914D01*
X79655353Y-79582909D01*
X79655429Y-79580000D01*
X79646782Y-79485891D01*
X79644749Y-79463770D01*
X79636081Y-79369440D01*
X79626490Y-79335434D01*
X79579920Y-79170306D01*
X79579920Y-79170305D01*
X79578686Y-79165931D01*
X79485165Y-78976290D01*
X79358651Y-78806867D01*
X79203381Y-78663337D01*
X79135797Y-78620694D01*
X79102999Y-78600000D01*
X84094318Y-78600000D01*
X84114956Y-78756762D01*
X84175464Y-78902841D01*
X84271718Y-79028282D01*
X84397159Y-79124536D01*
X84543238Y-79185044D01*
X84700000Y-79205682D01*
X84856762Y-79185044D01*
X85002841Y-79124536D01*
X85128282Y-79028282D01*
X85224536Y-78902841D01*
X85225713Y-78900000D01*
X95094318Y-78900000D01*
X95114956Y-79056762D01*
X95175464Y-79202841D01*
X95271718Y-79328282D01*
X95397159Y-79424536D01*
X95543238Y-79485044D01*
X95700000Y-79505682D01*
X95856762Y-79485044D01*
X96002841Y-79424536D01*
X96128282Y-79328282D01*
X96224536Y-79202841D01*
X96285044Y-79056762D01*
X96305682Y-78900000D01*
X96285044Y-78743238D01*
X96282559Y-78737238D01*
X96281160Y-78733860D01*
X96280955Y-78731250D01*
X96280881Y-78730975D01*
X96280932Y-78730961D01*
X96276360Y-78672863D01*
X96308329Y-78620694D01*
X96359702Y-78597822D01*
X96456762Y-78585044D01*
X96602841Y-78524536D01*
X96728282Y-78428282D01*
X96824536Y-78302841D01*
X96879959Y-78169039D01*
X96882560Y-78162759D01*
X96885044Y-78156762D01*
X96905682Y-78000000D01*
X96885044Y-77843238D01*
X96824536Y-77697159D01*
X96728282Y-77571718D01*
X96602841Y-77475464D01*
X96456762Y-77414956D01*
X96300000Y-77394318D01*
X96143238Y-77414956D01*
X95997159Y-77475464D01*
X95871718Y-77571718D01*
X95775464Y-77697159D01*
X95714956Y-77843238D01*
X95694318Y-78000000D01*
X95714956Y-78156762D01*
X95717440Y-78162759D01*
X95717441Y-78162762D01*
X95718840Y-78166140D01*
X95719045Y-78168750D01*
X95719119Y-78169025D01*
X95719068Y-78169039D01*
X95723640Y-78227137D01*
X95691671Y-78279306D01*
X95640298Y-78302178D01*
X95543238Y-78314956D01*
X95397159Y-78375464D01*
X95271718Y-78471718D01*
X95175464Y-78597159D01*
X95140147Y-78682422D01*
X95118841Y-78733860D01*
X95114956Y-78743238D01*
X95094318Y-78900000D01*
X85225713Y-78900000D01*
X85285044Y-78756762D01*
X85305682Y-78600000D01*
X85285044Y-78443238D01*
X85224536Y-78297159D01*
X85128282Y-78171718D01*
X85002841Y-78075464D01*
X84856762Y-78014956D01*
X84700000Y-77994318D01*
X84543238Y-78014956D01*
X84397159Y-78075464D01*
X84271718Y-78171718D01*
X84175464Y-78297159D01*
X84114956Y-78443238D01*
X84094318Y-78600000D01*
X79102999Y-78600000D01*
X79028391Y-78552926D01*
X79024554Y-78550505D01*
X78828160Y-78472152D01*
X78620775Y-78430901D01*
X78516599Y-78429537D01*
X78413886Y-78428192D01*
X78413881Y-78428192D01*
X78409346Y-78428133D01*
X78404873Y-78428902D01*
X78404868Y-78428902D01*
X78301601Y-78446647D01*
X78200953Y-78463941D01*
X78002575Y-78537127D01*
X77998676Y-78539446D01*
X77998671Y-78539449D01*
X77824762Y-78642914D01*
X77820856Y-78645238D01*
X77817441Y-78648233D01*
X77817438Y-78648235D01*
X77754635Y-78703312D01*
X77661881Y-78784655D01*
X77659073Y-78788217D01*
X77565879Y-78906434D01*
X77530976Y-78950708D01*
X77432523Y-79137836D01*
X77431179Y-79142165D01*
X77397151Y-79251754D01*
X77369820Y-79339773D01*
X77369286Y-79344283D01*
X77369286Y-79344284D01*
X77350284Y-79504835D01*
X77344967Y-79549754D01*
X65300000Y-79549754D01*
X65300000Y-77176005D01*
X77403268Y-77176005D01*
X77405417Y-77208792D01*
X77406830Y-77217713D01*
X77454505Y-77405431D01*
X77457525Y-77413959D01*
X77538608Y-77589842D01*
X77543126Y-77597667D01*
X77654910Y-77755838D01*
X77660774Y-77762704D01*
X77799510Y-77897854D01*
X77806533Y-77903541D01*
X77967566Y-78011140D01*
X77975517Y-78015457D01*
X78153462Y-78091908D01*
X78162057Y-78094701D01*
X78350960Y-78137446D01*
X78358222Y-78138402D01*
X78370569Y-78134920D01*
X78373182Y-78131606D01*
X78373400Y-78130384D01*
X78373400Y-78120779D01*
X78626600Y-78120779D01*
X78630722Y-78133464D01*
X78631892Y-78134315D01*
X78637872Y-78134825D01*
X78754143Y-78117966D01*
X78762942Y-78115854D01*
X78946333Y-78053601D01*
X78954595Y-78049923D01*
X79123575Y-77955289D01*
X79131029Y-77950166D01*
X79193658Y-77898078D01*
X89226790Y-77898078D01*
X89227071Y-77899852D01*
X89230533Y-77904015D01*
X89230867Y-77904271D01*
X89242007Y-77910703D01*
X89364592Y-77961478D01*
X89377017Y-77964808D01*
X89508567Y-77982127D01*
X89521433Y-77982127D01*
X89652983Y-77964808D01*
X89665408Y-77961478D01*
X89787993Y-77910703D01*
X89796523Y-77905778D01*
X89801815Y-77898078D01*
X90501790Y-77898078D01*
X90502071Y-77899852D01*
X90505533Y-77904015D01*
X90505867Y-77904271D01*
X90517007Y-77910703D01*
X90639592Y-77961478D01*
X90652017Y-77964808D01*
X90783567Y-77982127D01*
X90796433Y-77982127D01*
X90927983Y-77964808D01*
X90940408Y-77961478D01*
X91062993Y-77910703D01*
X91071523Y-77905778D01*
X91076815Y-77898078D01*
X91776790Y-77898078D01*
X91777071Y-77899852D01*
X91780533Y-77904015D01*
X91780867Y-77904271D01*
X91792007Y-77910703D01*
X91914592Y-77961478D01*
X91927017Y-77964808D01*
X92058567Y-77982127D01*
X92071433Y-77982127D01*
X92202983Y-77964808D01*
X92215408Y-77961478D01*
X92337993Y-77910703D01*
X92346523Y-77905778D01*
X92353357Y-77895834D01*
X92353310Y-77894036D01*
X92350424Y-77889463D01*
X92076086Y-77615125D01*
X92064203Y-77609071D01*
X92059172Y-77609867D01*
X91782844Y-77886195D01*
X91776790Y-77898078D01*
X91076815Y-77898078D01*
X91078357Y-77895834D01*
X91078310Y-77894036D01*
X91075424Y-77889463D01*
X90801086Y-77615125D01*
X90789203Y-77609071D01*
X90784172Y-77609867D01*
X90507844Y-77886195D01*
X90501790Y-77898078D01*
X89801815Y-77898078D01*
X89803357Y-77895834D01*
X89803310Y-77894036D01*
X89800424Y-77889463D01*
X89526086Y-77615125D01*
X89514203Y-77609071D01*
X89509172Y-77609867D01*
X89232844Y-77886195D01*
X89226790Y-77898078D01*
X79193658Y-77898078D01*
X79279922Y-77826333D01*
X79286333Y-77819922D01*
X79410166Y-77671029D01*
X79415289Y-77663575D01*
X79509923Y-77494595D01*
X79513601Y-77486333D01*
X79532237Y-77431433D01*
X88957873Y-77431433D01*
X88975192Y-77562983D01*
X88978522Y-77575408D01*
X89029297Y-77697993D01*
X89034222Y-77706523D01*
X89044166Y-77713357D01*
X89045964Y-77713310D01*
X89050537Y-77710424D01*
X89324875Y-77436086D01*
X89330117Y-77425797D01*
X89699071Y-77425797D01*
X89699867Y-77430828D01*
X89976195Y-77707156D01*
X89988078Y-77713210D01*
X89989852Y-77712929D01*
X89994015Y-77709467D01*
X89994271Y-77709133D01*
X90000703Y-77697993D01*
X90051478Y-77575408D01*
X90056488Y-77556712D01*
X90058722Y-77557311D01*
X90080688Y-77511257D01*
X90134459Y-77482062D01*
X90195120Y-77490048D01*
X90239503Y-77532165D01*
X90247561Y-77556967D01*
X90248512Y-77556712D01*
X90253522Y-77575408D01*
X90304297Y-77697993D01*
X90309222Y-77706523D01*
X90319166Y-77713357D01*
X90320964Y-77713310D01*
X90325537Y-77710424D01*
X90599875Y-77436086D01*
X90605117Y-77425797D01*
X90974071Y-77425797D01*
X90974867Y-77430828D01*
X91251195Y-77707156D01*
X91263078Y-77713210D01*
X91264852Y-77712929D01*
X91269015Y-77709467D01*
X91269271Y-77709133D01*
X91275703Y-77697993D01*
X91326478Y-77575408D01*
X91331488Y-77556712D01*
X91333722Y-77557311D01*
X91355688Y-77511257D01*
X91409459Y-77482062D01*
X91470120Y-77490048D01*
X91514503Y-77532165D01*
X91522561Y-77556967D01*
X91523512Y-77556712D01*
X91528522Y-77575408D01*
X91579297Y-77697993D01*
X91584222Y-77706523D01*
X91594166Y-77713357D01*
X91595964Y-77713310D01*
X91600537Y-77710424D01*
X91874875Y-77436086D01*
X91880117Y-77425797D01*
X92249071Y-77425797D01*
X92249867Y-77430828D01*
X92526195Y-77707156D01*
X92538078Y-77713210D01*
X92539852Y-77712929D01*
X92544015Y-77709467D01*
X92544271Y-77709133D01*
X92550703Y-77697993D01*
X92601478Y-77575408D01*
X92604808Y-77562983D01*
X92622127Y-77431433D01*
X92622127Y-77418567D01*
X92604808Y-77287017D01*
X92601478Y-77274592D01*
X92550703Y-77152007D01*
X92545778Y-77143477D01*
X92535834Y-77136643D01*
X92534036Y-77136690D01*
X92529463Y-77139576D01*
X92255125Y-77413914D01*
X92249071Y-77425797D01*
X91880117Y-77425797D01*
X91880929Y-77424203D01*
X91880133Y-77419172D01*
X91603805Y-77142844D01*
X91591922Y-77136790D01*
X91590148Y-77137071D01*
X91585985Y-77140533D01*
X91585729Y-77140867D01*
X91579297Y-77152007D01*
X91528522Y-77274592D01*
X91523512Y-77293288D01*
X91521278Y-77292689D01*
X91499312Y-77338743D01*
X91445541Y-77367938D01*
X91384880Y-77359952D01*
X91340497Y-77317835D01*
X91332439Y-77293033D01*
X91331488Y-77293288D01*
X91326478Y-77274592D01*
X91275703Y-77152007D01*
X91270778Y-77143477D01*
X91260834Y-77136643D01*
X91259036Y-77136690D01*
X91254463Y-77139576D01*
X90980125Y-77413914D01*
X90974071Y-77425797D01*
X90605117Y-77425797D01*
X90605929Y-77424203D01*
X90605133Y-77419172D01*
X90328805Y-77142844D01*
X90316922Y-77136790D01*
X90315148Y-77137071D01*
X90310985Y-77140533D01*
X90310729Y-77140867D01*
X90304297Y-77152007D01*
X90253522Y-77274592D01*
X90248512Y-77293288D01*
X90246278Y-77292689D01*
X90224312Y-77338743D01*
X90170541Y-77367938D01*
X90109880Y-77359952D01*
X90065497Y-77317835D01*
X90057439Y-77293033D01*
X90056488Y-77293288D01*
X90051478Y-77274592D01*
X90000703Y-77152007D01*
X89995778Y-77143477D01*
X89985834Y-77136643D01*
X89984036Y-77136690D01*
X89979463Y-77139576D01*
X89705125Y-77413914D01*
X89699071Y-77425797D01*
X89330117Y-77425797D01*
X89330929Y-77424203D01*
X89330133Y-77419172D01*
X89053805Y-77142844D01*
X89041922Y-77136790D01*
X89040148Y-77137071D01*
X89035985Y-77140533D01*
X89035729Y-77140867D01*
X89029297Y-77152007D01*
X88978522Y-77274592D01*
X88975192Y-77287017D01*
X88957873Y-77418567D01*
X88957873Y-77431433D01*
X79532237Y-77431433D01*
X79575854Y-77302942D01*
X79577966Y-77294143D01*
X79594209Y-77182118D01*
X79591950Y-77168972D01*
X79590915Y-77167963D01*
X79585068Y-77166600D01*
X78642280Y-77166600D01*
X78629595Y-77170722D01*
X78626600Y-77174843D01*
X78626600Y-78120779D01*
X78373400Y-78120779D01*
X78373400Y-77182280D01*
X78369278Y-77169595D01*
X78365157Y-77166600D01*
X77418332Y-77166600D01*
X77405647Y-77170722D01*
X77403572Y-77173577D01*
X77403268Y-77176005D01*
X65300000Y-77176005D01*
X65300000Y-76954166D01*
X89226643Y-76954166D01*
X89226690Y-76955964D01*
X89229576Y-76960537D01*
X89503914Y-77234875D01*
X89515797Y-77240929D01*
X89520828Y-77240133D01*
X89797156Y-76963805D01*
X89802067Y-76954166D01*
X90501643Y-76954166D01*
X90501690Y-76955964D01*
X90504576Y-76960537D01*
X90778914Y-77234875D01*
X90790797Y-77240929D01*
X90795828Y-77240133D01*
X91072156Y-76963805D01*
X91077067Y-76954166D01*
X91776643Y-76954166D01*
X91776690Y-76955964D01*
X91779576Y-76960537D01*
X92053914Y-77234875D01*
X92065797Y-77240929D01*
X92070828Y-77240133D01*
X92202731Y-77108230D01*
X105435109Y-77108230D01*
X105435878Y-77112705D01*
X105435878Y-77112706D01*
X105457774Y-77240133D01*
X105471540Y-77320246D01*
X105498866Y-77394318D01*
X105531237Y-77482062D01*
X105545997Y-77522072D01*
X105548319Y-77525975D01*
X105548320Y-77525977D01*
X105573181Y-77567764D01*
X105655988Y-77706950D01*
X105658983Y-77710365D01*
X105658985Y-77710368D01*
X105680533Y-77734938D01*
X105797829Y-77868688D01*
X105966769Y-78001870D01*
X106157150Y-78102034D01*
X106217519Y-78120779D01*
X106358258Y-78164480D01*
X106358261Y-78164481D01*
X106362597Y-78165827D01*
X106367107Y-78166361D01*
X106367108Y-78166361D01*
X106389735Y-78169039D01*
X106537262Y-78186500D01*
X107111578Y-78186500D01*
X107271221Y-78171831D01*
X107478267Y-78113438D01*
X107671205Y-78018291D01*
X107843573Y-77889578D01*
X107989599Y-77731608D01*
X108001208Y-77713210D01*
X108101971Y-77553510D01*
X108104392Y-77549673D01*
X108117105Y-77517809D01*
X108182426Y-77354077D01*
X108184107Y-77349864D01*
X108226075Y-77138875D01*
X108228493Y-76954166D01*
X108228832Y-76928309D01*
X108228832Y-76928304D01*
X108228891Y-76923770D01*
X108226682Y-76910911D01*
X108193228Y-76716223D01*
X108193228Y-76716222D01*
X108192460Y-76711754D01*
X108118003Y-76509928D01*
X108008012Y-76325050D01*
X108005017Y-76321635D01*
X108005015Y-76321632D01*
X107911542Y-76215048D01*
X107866171Y-76163312D01*
X107697231Y-76030130D01*
X107506850Y-75929966D01*
X107425405Y-75904677D01*
X107305742Y-75867520D01*
X107305739Y-75867519D01*
X107301403Y-75866173D01*
X107296893Y-75865639D01*
X107296892Y-75865639D01*
X107259312Y-75861191D01*
X107126738Y-75845500D01*
X106552422Y-75845500D01*
X106392779Y-75860169D01*
X106185733Y-75918562D01*
X105992795Y-76013709D01*
X105820427Y-76142422D01*
X105817346Y-76145755D01*
X105691669Y-76281712D01*
X105674401Y-76300392D01*
X105671983Y-76304225D01*
X105671981Y-76304227D01*
X105653151Y-76334071D01*
X105559608Y-76482327D01*
X105557928Y-76486538D01*
X105557926Y-76486542D01*
X105508195Y-76611195D01*
X105479893Y-76682136D01*
X105437925Y-76893125D01*
X105435109Y-77108230D01*
X92202731Y-77108230D01*
X92347156Y-76963805D01*
X92353210Y-76951922D01*
X92352929Y-76950148D01*
X92349467Y-76945985D01*
X92349133Y-76945729D01*
X92337993Y-76939297D01*
X92215408Y-76888522D01*
X92196712Y-76883512D01*
X92197311Y-76881278D01*
X92151257Y-76859312D01*
X92122062Y-76805541D01*
X92130048Y-76744880D01*
X92172165Y-76700497D01*
X92196967Y-76692439D01*
X92196712Y-76691488D01*
X92215408Y-76686478D01*
X92337993Y-76635703D01*
X92346523Y-76630778D01*
X92353357Y-76620834D01*
X92353310Y-76619036D01*
X92350424Y-76614463D01*
X92076086Y-76340125D01*
X92064203Y-76334071D01*
X92059172Y-76334867D01*
X91782844Y-76611195D01*
X91776790Y-76623078D01*
X91777071Y-76624852D01*
X91780533Y-76629015D01*
X91780867Y-76629271D01*
X91792007Y-76635703D01*
X91914592Y-76686478D01*
X91933288Y-76691488D01*
X91932689Y-76693722D01*
X91978743Y-76715688D01*
X92007938Y-76769459D01*
X91999952Y-76830120D01*
X91957835Y-76874503D01*
X91933033Y-76882561D01*
X91933288Y-76883512D01*
X91914592Y-76888522D01*
X91792007Y-76939297D01*
X91783477Y-76944222D01*
X91776643Y-76954166D01*
X91077067Y-76954166D01*
X91078210Y-76951922D01*
X91077929Y-76950148D01*
X91074467Y-76945985D01*
X91074133Y-76945729D01*
X91062993Y-76939297D01*
X90940408Y-76888522D01*
X90921712Y-76883512D01*
X90922311Y-76881278D01*
X90876257Y-76859312D01*
X90847062Y-76805541D01*
X90855048Y-76744880D01*
X90897165Y-76700497D01*
X90921967Y-76692439D01*
X90921712Y-76691488D01*
X90940408Y-76686478D01*
X91062993Y-76635703D01*
X91071523Y-76630778D01*
X91078357Y-76620834D01*
X91078310Y-76619036D01*
X91075424Y-76614463D01*
X90801086Y-76340125D01*
X90789203Y-76334071D01*
X90784172Y-76334867D01*
X90507844Y-76611195D01*
X90501790Y-76623078D01*
X90502071Y-76624852D01*
X90505533Y-76629015D01*
X90505867Y-76629271D01*
X90517007Y-76635703D01*
X90639592Y-76686478D01*
X90658288Y-76691488D01*
X90657689Y-76693722D01*
X90703743Y-76715688D01*
X90732938Y-76769459D01*
X90724952Y-76830120D01*
X90682835Y-76874503D01*
X90658033Y-76882561D01*
X90658288Y-76883512D01*
X90639592Y-76888522D01*
X90517007Y-76939297D01*
X90508477Y-76944222D01*
X90501643Y-76954166D01*
X89802067Y-76954166D01*
X89803210Y-76951922D01*
X89802929Y-76950148D01*
X89799467Y-76945985D01*
X89799133Y-76945729D01*
X89787993Y-76939297D01*
X89665408Y-76888522D01*
X89646712Y-76883512D01*
X89647311Y-76881278D01*
X89601257Y-76859312D01*
X89572062Y-76805541D01*
X89580048Y-76744880D01*
X89622165Y-76700497D01*
X89646967Y-76692439D01*
X89646712Y-76691488D01*
X89665408Y-76686478D01*
X89787993Y-76635703D01*
X89796523Y-76630778D01*
X89803357Y-76620834D01*
X89803310Y-76619036D01*
X89800424Y-76614463D01*
X89526086Y-76340125D01*
X89514203Y-76334071D01*
X89509172Y-76334867D01*
X89232844Y-76611195D01*
X89226790Y-76623078D01*
X89227071Y-76624852D01*
X89230533Y-76629015D01*
X89230867Y-76629271D01*
X89242007Y-76635703D01*
X89364592Y-76686478D01*
X89383288Y-76691488D01*
X89382689Y-76693722D01*
X89428743Y-76715688D01*
X89457938Y-76769459D01*
X89449952Y-76830120D01*
X89407835Y-76874503D01*
X89383033Y-76882561D01*
X89383288Y-76883512D01*
X89364592Y-76888522D01*
X89242007Y-76939297D01*
X89233477Y-76944222D01*
X89226643Y-76954166D01*
X65300000Y-76954166D01*
X65300000Y-76897828D01*
X77405848Y-76897828D01*
X77408451Y-76910911D01*
X77410024Y-76912365D01*
X77414739Y-76913400D01*
X78357720Y-76913400D01*
X78370405Y-76909278D01*
X78373400Y-76905157D01*
X78373400Y-76897720D01*
X78626600Y-76897720D01*
X78630722Y-76910405D01*
X78634843Y-76913400D01*
X79580613Y-76913400D01*
X79593298Y-76909278D01*
X79594967Y-76906982D01*
X79595371Y-76903366D01*
X79589789Y-76842614D01*
X79588142Y-76833730D01*
X79535570Y-76647325D01*
X79532329Y-76638881D01*
X79446670Y-76465182D01*
X79441945Y-76457472D01*
X79326065Y-76302290D01*
X79320019Y-76295575D01*
X79177788Y-76164096D01*
X79170632Y-76158606D01*
X79167188Y-76156433D01*
X88957873Y-76156433D01*
X88975192Y-76287983D01*
X88978522Y-76300408D01*
X89029297Y-76422993D01*
X89034222Y-76431523D01*
X89044166Y-76438357D01*
X89045964Y-76438310D01*
X89050537Y-76435424D01*
X89324875Y-76161086D01*
X89330117Y-76150797D01*
X89699071Y-76150797D01*
X89699867Y-76155828D01*
X89976195Y-76432156D01*
X89988078Y-76438210D01*
X89989852Y-76437929D01*
X89994015Y-76434467D01*
X89994271Y-76434133D01*
X90000703Y-76422993D01*
X90051478Y-76300408D01*
X90056488Y-76281712D01*
X90058722Y-76282311D01*
X90080688Y-76236257D01*
X90134459Y-76207062D01*
X90195120Y-76215048D01*
X90239503Y-76257165D01*
X90247561Y-76281967D01*
X90248512Y-76281712D01*
X90253522Y-76300408D01*
X90304297Y-76422993D01*
X90309222Y-76431523D01*
X90319166Y-76438357D01*
X90320964Y-76438310D01*
X90325537Y-76435424D01*
X90599875Y-76161086D01*
X90605117Y-76150797D01*
X90974071Y-76150797D01*
X90974867Y-76155828D01*
X91251195Y-76432156D01*
X91263078Y-76438210D01*
X91264852Y-76437929D01*
X91269015Y-76434467D01*
X91269271Y-76434133D01*
X91275703Y-76422993D01*
X91326478Y-76300408D01*
X91331488Y-76281712D01*
X91333722Y-76282311D01*
X91355688Y-76236257D01*
X91409459Y-76207062D01*
X91470120Y-76215048D01*
X91514503Y-76257165D01*
X91522561Y-76281967D01*
X91523512Y-76281712D01*
X91528522Y-76300408D01*
X91579297Y-76422993D01*
X91584222Y-76431523D01*
X91594166Y-76438357D01*
X91595964Y-76438310D01*
X91600537Y-76435424D01*
X91874875Y-76161086D01*
X91880117Y-76150797D01*
X92249071Y-76150797D01*
X92249867Y-76155828D01*
X92526195Y-76432156D01*
X92538078Y-76438210D01*
X92539852Y-76437929D01*
X92544015Y-76434467D01*
X92544271Y-76434133D01*
X92550703Y-76422993D01*
X92601478Y-76300408D01*
X92604808Y-76287983D01*
X92622127Y-76156433D01*
X92622127Y-76143567D01*
X92604808Y-76012017D01*
X92601478Y-75999592D01*
X92550703Y-75877007D01*
X92545778Y-75868477D01*
X92535834Y-75861643D01*
X92534036Y-75861690D01*
X92529463Y-75864576D01*
X92255125Y-76138914D01*
X92249071Y-76150797D01*
X91880117Y-76150797D01*
X91880929Y-76149203D01*
X91880133Y-76144172D01*
X91603805Y-75867844D01*
X91591922Y-75861790D01*
X91590148Y-75862071D01*
X91585985Y-75865533D01*
X91585729Y-75865867D01*
X91579297Y-75877007D01*
X91528522Y-75999592D01*
X91523512Y-76018288D01*
X91521278Y-76017689D01*
X91499312Y-76063743D01*
X91445541Y-76092938D01*
X91384880Y-76084952D01*
X91340497Y-76042835D01*
X91332439Y-76018033D01*
X91331488Y-76018288D01*
X91326478Y-75999592D01*
X91275703Y-75877007D01*
X91270778Y-75868477D01*
X91260834Y-75861643D01*
X91259036Y-75861690D01*
X91254463Y-75864576D01*
X90980125Y-76138914D01*
X90974071Y-76150797D01*
X90605117Y-76150797D01*
X90605929Y-76149203D01*
X90605133Y-76144172D01*
X90328805Y-75867844D01*
X90316922Y-75861790D01*
X90315148Y-75862071D01*
X90310985Y-75865533D01*
X90310729Y-75865867D01*
X90304297Y-75877007D01*
X90253522Y-75999592D01*
X90248512Y-76018288D01*
X90246278Y-76017689D01*
X90224312Y-76063743D01*
X90170541Y-76092938D01*
X90109880Y-76084952D01*
X90065497Y-76042835D01*
X90057439Y-76018033D01*
X90056488Y-76018288D01*
X90051478Y-75999592D01*
X90000703Y-75877007D01*
X89995778Y-75868477D01*
X89985834Y-75861643D01*
X89984036Y-75861690D01*
X89979463Y-75864576D01*
X89705125Y-76138914D01*
X89699071Y-76150797D01*
X89330117Y-76150797D01*
X89330929Y-76149203D01*
X89330133Y-76144172D01*
X89053805Y-75867844D01*
X89041922Y-75861790D01*
X89040148Y-75862071D01*
X89035985Y-75865533D01*
X89035729Y-75865867D01*
X89029297Y-75877007D01*
X88978522Y-75999592D01*
X88975192Y-76012017D01*
X88957873Y-76143567D01*
X88957873Y-76156433D01*
X79167188Y-76156433D01*
X79006826Y-76055252D01*
X78998772Y-76051149D01*
X78818880Y-75979380D01*
X78810222Y-75976815D01*
X78641979Y-75943348D01*
X78628734Y-75944916D01*
X78628699Y-75944948D01*
X78626600Y-75952992D01*
X78626600Y-76897720D01*
X78373400Y-76897720D01*
X78373400Y-75957986D01*
X78369278Y-75945301D01*
X78368674Y-75944862D01*
X78361527Y-75944346D01*
X78217717Y-75969058D01*
X78208993Y-75971396D01*
X78027289Y-76038429D01*
X78019121Y-76042325D01*
X77852684Y-76141345D01*
X77845359Y-76146666D01*
X77699754Y-76274360D01*
X77693527Y-76280921D01*
X77573627Y-76433013D01*
X77568702Y-76440596D01*
X77478521Y-76612004D01*
X77475066Y-76620344D01*
X77417632Y-76805310D01*
X77415751Y-76814161D01*
X77405848Y-76897828D01*
X65300000Y-76897828D01*
X65300000Y-75679166D01*
X89226643Y-75679166D01*
X89226690Y-75680964D01*
X89229576Y-75685537D01*
X89503914Y-75959875D01*
X89515797Y-75965929D01*
X89520828Y-75965133D01*
X89797156Y-75688805D01*
X89802067Y-75679166D01*
X90501643Y-75679166D01*
X90501690Y-75680964D01*
X90504576Y-75685537D01*
X90778914Y-75959875D01*
X90790797Y-75965929D01*
X90795828Y-75965133D01*
X91072156Y-75688805D01*
X91077067Y-75679166D01*
X91776643Y-75679166D01*
X91776690Y-75680964D01*
X91779576Y-75685537D01*
X92053914Y-75959875D01*
X92065797Y-75965929D01*
X92070828Y-75965133D01*
X92347156Y-75688805D01*
X92353210Y-75676922D01*
X92352929Y-75675148D01*
X92349467Y-75670985D01*
X92349133Y-75670729D01*
X92337993Y-75664297D01*
X92215408Y-75613522D01*
X92196712Y-75608512D01*
X92197311Y-75606278D01*
X92151257Y-75584312D01*
X92122062Y-75530541D01*
X92130048Y-75469880D01*
X92172165Y-75425497D01*
X92196967Y-75417439D01*
X92196712Y-75416488D01*
X92215408Y-75411478D01*
X92337993Y-75360703D01*
X92346523Y-75355778D01*
X92353357Y-75345834D01*
X92353310Y-75344036D01*
X92350424Y-75339463D01*
X92076086Y-75065125D01*
X92064203Y-75059071D01*
X92059172Y-75059867D01*
X91782844Y-75336195D01*
X91776790Y-75348078D01*
X91777071Y-75349852D01*
X91780533Y-75354015D01*
X91780867Y-75354271D01*
X91792007Y-75360703D01*
X91914592Y-75411478D01*
X91933288Y-75416488D01*
X91932689Y-75418722D01*
X91978743Y-75440688D01*
X92007938Y-75494459D01*
X91999952Y-75555120D01*
X91957835Y-75599503D01*
X91933033Y-75607561D01*
X91933288Y-75608512D01*
X91914592Y-75613522D01*
X91792007Y-75664297D01*
X91783477Y-75669222D01*
X91776643Y-75679166D01*
X91077067Y-75679166D01*
X91078210Y-75676922D01*
X91077929Y-75675148D01*
X91074467Y-75670985D01*
X91074133Y-75670729D01*
X91062993Y-75664297D01*
X90940408Y-75613522D01*
X90921712Y-75608512D01*
X90922311Y-75606278D01*
X90876257Y-75584312D01*
X90847062Y-75530541D01*
X90855048Y-75469880D01*
X90897165Y-75425497D01*
X90921967Y-75417439D01*
X90921712Y-75416488D01*
X90940408Y-75411478D01*
X91062993Y-75360703D01*
X91071523Y-75355778D01*
X91078357Y-75345834D01*
X91078310Y-75344036D01*
X91075424Y-75339463D01*
X90801086Y-75065125D01*
X90789203Y-75059071D01*
X90784172Y-75059867D01*
X90507844Y-75336195D01*
X90501790Y-75348078D01*
X90502071Y-75349852D01*
X90505533Y-75354015D01*
X90505867Y-75354271D01*
X90517007Y-75360703D01*
X90639592Y-75411478D01*
X90658288Y-75416488D01*
X90657689Y-75418722D01*
X90703743Y-75440688D01*
X90732938Y-75494459D01*
X90724952Y-75555120D01*
X90682835Y-75599503D01*
X90658033Y-75607561D01*
X90658288Y-75608512D01*
X90639592Y-75613522D01*
X90517007Y-75664297D01*
X90508477Y-75669222D01*
X90501643Y-75679166D01*
X89802067Y-75679166D01*
X89803210Y-75676922D01*
X89802929Y-75675148D01*
X89799467Y-75670985D01*
X89799133Y-75670729D01*
X89787993Y-75664297D01*
X89665408Y-75613522D01*
X89646712Y-75608512D01*
X89647311Y-75606278D01*
X89601257Y-75584312D01*
X89572062Y-75530541D01*
X89580048Y-75469880D01*
X89622165Y-75425497D01*
X89646967Y-75417439D01*
X89646712Y-75416488D01*
X89665408Y-75411478D01*
X89787993Y-75360703D01*
X89796523Y-75355778D01*
X89803357Y-75345834D01*
X89803310Y-75344036D01*
X89800424Y-75339463D01*
X89526086Y-75065125D01*
X89514203Y-75059071D01*
X89509172Y-75059867D01*
X89232844Y-75336195D01*
X89226790Y-75348078D01*
X89227071Y-75349852D01*
X89230533Y-75354015D01*
X89230867Y-75354271D01*
X89242007Y-75360703D01*
X89364592Y-75411478D01*
X89383288Y-75416488D01*
X89382689Y-75418722D01*
X89428743Y-75440688D01*
X89457938Y-75494459D01*
X89449952Y-75555120D01*
X89407835Y-75599503D01*
X89383033Y-75607561D01*
X89383288Y-75608512D01*
X89364592Y-75613522D01*
X89242007Y-75664297D01*
X89233477Y-75669222D01*
X89226643Y-75679166D01*
X65300000Y-75679166D01*
X65300000Y-75394646D01*
X77349500Y-75394646D01*
X77352618Y-75420846D01*
X77398061Y-75523153D01*
X77477287Y-75602241D01*
X77491472Y-75608512D01*
X77572864Y-75644496D01*
X77572866Y-75644496D01*
X77579673Y-75647506D01*
X77587067Y-75648368D01*
X77602378Y-75650153D01*
X77605354Y-75650500D01*
X79394646Y-75650500D01*
X79412561Y-75648368D01*
X79413469Y-75648260D01*
X79413470Y-75648260D01*
X79420846Y-75647382D01*
X79523153Y-75601939D01*
X79602241Y-75522713D01*
X79630383Y-75459058D01*
X79644496Y-75427136D01*
X79644496Y-75427134D01*
X79647506Y-75420327D01*
X79650500Y-75394646D01*
X79650500Y-74881433D01*
X88957873Y-74881433D01*
X88975192Y-75012983D01*
X88978522Y-75025408D01*
X89029297Y-75147993D01*
X89034222Y-75156523D01*
X89044166Y-75163357D01*
X89045964Y-75163310D01*
X89050537Y-75160424D01*
X89324875Y-74886086D01*
X89330117Y-74875797D01*
X89699071Y-74875797D01*
X89699867Y-74880828D01*
X89976195Y-75157156D01*
X89988078Y-75163210D01*
X89989852Y-75162929D01*
X89994015Y-75159467D01*
X89994271Y-75159133D01*
X90000703Y-75147993D01*
X90051478Y-75025408D01*
X90056488Y-75006712D01*
X90058722Y-75007311D01*
X90080688Y-74961257D01*
X90134459Y-74932062D01*
X90195120Y-74940048D01*
X90239503Y-74982165D01*
X90247561Y-75006967D01*
X90248512Y-75006712D01*
X90253522Y-75025408D01*
X90304297Y-75147993D01*
X90309222Y-75156523D01*
X90319166Y-75163357D01*
X90320964Y-75163310D01*
X90325537Y-75160424D01*
X90599875Y-74886086D01*
X90605117Y-74875797D01*
X90974071Y-74875797D01*
X90974867Y-74880828D01*
X91251195Y-75157156D01*
X91263078Y-75163210D01*
X91264852Y-75162929D01*
X91269015Y-75159467D01*
X91269271Y-75159133D01*
X91275703Y-75147993D01*
X91326478Y-75025408D01*
X91331488Y-75006712D01*
X91333722Y-75007311D01*
X91355688Y-74961257D01*
X91409459Y-74932062D01*
X91470120Y-74940048D01*
X91514503Y-74982165D01*
X91522561Y-75006967D01*
X91523512Y-75006712D01*
X91528522Y-75025408D01*
X91579297Y-75147993D01*
X91584222Y-75156523D01*
X91594166Y-75163357D01*
X91595964Y-75163310D01*
X91600537Y-75160424D01*
X91874875Y-74886086D01*
X91880117Y-74875797D01*
X92249071Y-74875797D01*
X92249867Y-74880828D01*
X92526195Y-75157156D01*
X92538078Y-75163210D01*
X92539852Y-75162929D01*
X92544015Y-75159467D01*
X92544271Y-75159133D01*
X92550703Y-75147993D01*
X92601478Y-75025408D01*
X92604808Y-75012983D01*
X92622127Y-74881433D01*
X92622127Y-74868567D01*
X92604808Y-74737017D01*
X92601478Y-74724592D01*
X92550703Y-74602007D01*
X92545778Y-74593477D01*
X92535834Y-74586643D01*
X92534036Y-74586690D01*
X92529463Y-74589576D01*
X92255125Y-74863914D01*
X92249071Y-74875797D01*
X91880117Y-74875797D01*
X91880929Y-74874203D01*
X91880133Y-74869172D01*
X91603805Y-74592844D01*
X91591922Y-74586790D01*
X91590148Y-74587071D01*
X91585985Y-74590533D01*
X91585729Y-74590867D01*
X91579297Y-74602007D01*
X91528522Y-74724592D01*
X91523512Y-74743288D01*
X91521278Y-74742689D01*
X91499312Y-74788743D01*
X91445541Y-74817938D01*
X91384880Y-74809952D01*
X91340497Y-74767835D01*
X91332439Y-74743033D01*
X91331488Y-74743288D01*
X91326478Y-74724592D01*
X91275703Y-74602007D01*
X91270778Y-74593477D01*
X91260834Y-74586643D01*
X91259036Y-74586690D01*
X91254463Y-74589576D01*
X90980125Y-74863914D01*
X90974071Y-74875797D01*
X90605117Y-74875797D01*
X90605929Y-74874203D01*
X90605133Y-74869172D01*
X90328805Y-74592844D01*
X90316922Y-74586790D01*
X90315148Y-74587071D01*
X90310985Y-74590533D01*
X90310729Y-74590867D01*
X90304297Y-74602007D01*
X90253522Y-74724592D01*
X90248512Y-74743288D01*
X90246278Y-74742689D01*
X90224312Y-74788743D01*
X90170541Y-74817938D01*
X90109880Y-74809952D01*
X90065497Y-74767835D01*
X90057439Y-74743033D01*
X90056488Y-74743288D01*
X90051478Y-74724592D01*
X90000703Y-74602007D01*
X89995778Y-74593477D01*
X89985834Y-74586643D01*
X89984036Y-74586690D01*
X89979463Y-74589576D01*
X89705125Y-74863914D01*
X89699071Y-74875797D01*
X89330117Y-74875797D01*
X89330929Y-74874203D01*
X89330133Y-74869172D01*
X89053805Y-74592844D01*
X89041922Y-74586790D01*
X89040148Y-74587071D01*
X89035985Y-74590533D01*
X89035729Y-74590867D01*
X89029297Y-74602007D01*
X88978522Y-74724592D01*
X88975192Y-74737017D01*
X88957873Y-74868567D01*
X88957873Y-74881433D01*
X79650500Y-74881433D01*
X79650500Y-74404166D01*
X89226643Y-74404166D01*
X89226690Y-74405964D01*
X89229576Y-74410537D01*
X89503914Y-74684875D01*
X89515797Y-74690929D01*
X89520828Y-74690133D01*
X89797156Y-74413805D01*
X89802067Y-74404166D01*
X90501643Y-74404166D01*
X90501690Y-74405964D01*
X90504576Y-74410537D01*
X90778914Y-74684875D01*
X90790797Y-74690929D01*
X90795828Y-74690133D01*
X91072156Y-74413805D01*
X91077067Y-74404166D01*
X91776643Y-74404166D01*
X91776690Y-74405964D01*
X91779576Y-74410537D01*
X92053914Y-74684875D01*
X92065797Y-74690929D01*
X92070828Y-74690133D01*
X92192731Y-74568230D01*
X105435109Y-74568230D01*
X105435878Y-74572705D01*
X105435878Y-74572706D01*
X105465146Y-74743033D01*
X105471540Y-74780246D01*
X105482467Y-74809864D01*
X105530494Y-74940048D01*
X105545997Y-74982072D01*
X105548319Y-74985975D01*
X105548320Y-74985977D01*
X105562418Y-75009673D01*
X105655988Y-75166950D01*
X105658983Y-75170365D01*
X105658985Y-75170368D01*
X105680533Y-75194938D01*
X105797829Y-75328688D01*
X105966769Y-75461870D01*
X105970784Y-75463983D01*
X105970785Y-75463983D01*
X105990377Y-75474291D01*
X106157150Y-75562034D01*
X106187407Y-75571429D01*
X106358258Y-75624480D01*
X106358261Y-75624481D01*
X106362597Y-75625827D01*
X106367107Y-75626361D01*
X106367108Y-75626361D01*
X106402915Y-75630599D01*
X106537262Y-75646500D01*
X107111578Y-75646500D01*
X107271221Y-75631831D01*
X107478267Y-75573438D01*
X107671205Y-75478291D01*
X107843573Y-75349578D01*
X107989599Y-75191608D01*
X108007623Y-75163043D01*
X108101971Y-75013510D01*
X108104392Y-75009673D01*
X108115367Y-74982165D01*
X108182426Y-74814077D01*
X108184107Y-74809864D01*
X108226075Y-74598875D01*
X108228541Y-74410537D01*
X108228832Y-74388309D01*
X108228832Y-74388304D01*
X108228891Y-74383770D01*
X108192460Y-74171754D01*
X108118003Y-73969928D01*
X108008012Y-73785050D01*
X108005017Y-73781635D01*
X108005015Y-73781632D01*
X107954936Y-73724529D01*
X107866171Y-73623312D01*
X107697231Y-73490130D01*
X107688707Y-73485645D01*
X107662203Y-73471701D01*
X107506850Y-73389966D01*
X107386570Y-73352618D01*
X107305742Y-73327520D01*
X107305739Y-73327519D01*
X107301403Y-73326173D01*
X107296893Y-73325639D01*
X107296892Y-73325639D01*
X107259312Y-73321191D01*
X107126738Y-73305500D01*
X106552422Y-73305500D01*
X106392779Y-73320169D01*
X106185733Y-73378562D01*
X105992795Y-73473709D01*
X105820427Y-73602422D01*
X105674401Y-73760392D01*
X105671983Y-73764225D01*
X105671981Y-73764227D01*
X105569752Y-73926250D01*
X105559608Y-73942327D01*
X105557928Y-73946538D01*
X105557926Y-73946542D01*
X105506866Y-74074527D01*
X105479893Y-74142136D01*
X105437925Y-74353125D01*
X105435109Y-74568230D01*
X92192731Y-74568230D01*
X92347156Y-74413805D01*
X92353210Y-74401922D01*
X92352929Y-74400148D01*
X92349467Y-74395985D01*
X92349133Y-74395729D01*
X92337993Y-74389297D01*
X92215408Y-74338522D01*
X92202983Y-74335192D01*
X92071433Y-74317873D01*
X92058567Y-74317873D01*
X91927017Y-74335192D01*
X91914592Y-74338522D01*
X91792007Y-74389297D01*
X91783477Y-74394222D01*
X91776643Y-74404166D01*
X91077067Y-74404166D01*
X91078210Y-74401922D01*
X91077929Y-74400148D01*
X91074467Y-74395985D01*
X91074133Y-74395729D01*
X91062993Y-74389297D01*
X90940408Y-74338522D01*
X90927983Y-74335192D01*
X90796433Y-74317873D01*
X90783567Y-74317873D01*
X90652017Y-74335192D01*
X90639592Y-74338522D01*
X90517007Y-74389297D01*
X90508477Y-74394222D01*
X90501643Y-74404166D01*
X89802067Y-74404166D01*
X89803210Y-74401922D01*
X89802929Y-74400148D01*
X89799467Y-74395985D01*
X89799133Y-74395729D01*
X89787993Y-74389297D01*
X89665408Y-74338522D01*
X89652983Y-74335192D01*
X89521433Y-74317873D01*
X89508567Y-74317873D01*
X89377017Y-74335192D01*
X89364592Y-74338522D01*
X89242007Y-74389297D01*
X89233477Y-74394222D01*
X89226643Y-74404166D01*
X79650500Y-74404166D01*
X79650500Y-73605354D01*
X79647382Y-73579154D01*
X79601939Y-73476847D01*
X79522713Y-73397759D01*
X79476504Y-73377330D01*
X79427136Y-73355504D01*
X79427134Y-73355504D01*
X79420327Y-73352494D01*
X79406322Y-73350861D01*
X79397494Y-73349832D01*
X79397493Y-73349832D01*
X79394646Y-73349500D01*
X77605354Y-73349500D01*
X77588951Y-73351452D01*
X77586531Y-73351740D01*
X77586530Y-73351740D01*
X77579154Y-73352618D01*
X77476847Y-73398061D01*
X77470390Y-73404529D01*
X77470389Y-73404530D01*
X77436976Y-73438002D01*
X77397759Y-73477287D01*
X77352494Y-73579673D01*
X77349500Y-73605354D01*
X77349500Y-75394646D01*
X65300000Y-75394646D01*
X65300000Y-72400000D01*
X83494318Y-72400000D01*
X83514956Y-72556762D01*
X83575464Y-72702841D01*
X83671718Y-72828282D01*
X83797159Y-72924536D01*
X83943238Y-72985044D01*
X84100000Y-73005682D01*
X84143159Y-73000000D01*
X85294318Y-73000000D01*
X85314956Y-73156762D01*
X85375464Y-73302841D01*
X85471718Y-73428282D01*
X85597159Y-73524536D01*
X85743238Y-73585044D01*
X85900000Y-73605682D01*
X86056762Y-73585044D01*
X86202841Y-73524536D01*
X86328282Y-73428282D01*
X86424536Y-73302841D01*
X86485044Y-73156762D01*
X86505682Y-73000000D01*
X86485044Y-72843238D01*
X86424536Y-72697159D01*
X86328282Y-72571718D01*
X86202841Y-72475464D01*
X86056762Y-72414956D01*
X85900000Y-72394318D01*
X85743238Y-72414956D01*
X85597159Y-72475464D01*
X85471718Y-72571718D01*
X85375464Y-72697159D01*
X85314956Y-72843238D01*
X85294318Y-73000000D01*
X84143159Y-73000000D01*
X84256762Y-72985044D01*
X84402841Y-72924536D01*
X84528282Y-72828282D01*
X84624536Y-72702841D01*
X84685044Y-72556762D01*
X84705682Y-72400000D01*
X84685044Y-72243238D01*
X84624536Y-72097159D01*
X84604873Y-72071533D01*
X105488862Y-72071533D01*
X105489729Y-72090272D01*
X105491052Y-72099563D01*
X105539058Y-72298758D01*
X105542113Y-72307630D01*
X105626923Y-72494159D01*
X105631599Y-72502291D01*
X105750150Y-72669417D01*
X105756279Y-72676517D01*
X105904295Y-72818212D01*
X105911657Y-72824026D01*
X106083798Y-72935177D01*
X106092114Y-72939488D01*
X106282180Y-73016087D01*
X106291160Y-73018747D01*
X106493401Y-73058242D01*
X106500454Y-73059098D01*
X106501318Y-73059140D01*
X106503765Y-73059200D01*
X106689720Y-73059200D01*
X106702405Y-73055078D01*
X106705400Y-73050957D01*
X106705400Y-73043520D01*
X106958600Y-73043520D01*
X106962722Y-73056205D01*
X106966843Y-73059200D01*
X107108189Y-73059200D01*
X107112903Y-73058975D01*
X107265663Y-73044401D01*
X107274884Y-73042625D01*
X107471494Y-72984946D01*
X107480206Y-72981462D01*
X107662370Y-72887641D01*
X107670266Y-72882571D01*
X107831391Y-72756007D01*
X107838198Y-72749524D01*
X107972485Y-72594772D01*
X107977934Y-72587133D01*
X108080537Y-72409776D01*
X108084445Y-72401241D01*
X108151662Y-72207679D01*
X108153885Y-72198558D01*
X108171348Y-72078118D01*
X108169089Y-72064972D01*
X108168054Y-72063963D01*
X108162207Y-72062600D01*
X106974280Y-72062600D01*
X106961595Y-72066722D01*
X106958600Y-72070843D01*
X106958600Y-73043520D01*
X106705400Y-73043520D01*
X106705400Y-72078280D01*
X106701278Y-72065595D01*
X106697157Y-72062600D01*
X105504128Y-72062600D01*
X105491443Y-72066722D01*
X105489070Y-72069988D01*
X105488862Y-72071533D01*
X84604873Y-72071533D01*
X84528282Y-71971718D01*
X84402841Y-71875464D01*
X84256762Y-71814956D01*
X84100000Y-71794318D01*
X83943238Y-71814956D01*
X83797159Y-71875464D01*
X83671718Y-71971718D01*
X83575464Y-72097159D01*
X83514956Y-72243238D01*
X83494318Y-72400000D01*
X65300000Y-72400000D01*
X65300000Y-71412772D01*
X78604500Y-71412772D01*
X78615364Y-71502547D01*
X78670887Y-71642783D01*
X78674967Y-71648158D01*
X78674968Y-71648160D01*
X78757995Y-71757543D01*
X78762078Y-71762922D01*
X78767457Y-71767005D01*
X78876840Y-71850032D01*
X78876842Y-71850033D01*
X78882217Y-71854113D01*
X79022453Y-71909636D01*
X79112228Y-71920500D01*
X80887772Y-71920500D01*
X80977547Y-71909636D01*
X81117783Y-71854113D01*
X81123158Y-71850033D01*
X81123160Y-71850032D01*
X81197134Y-71793882D01*
X105492652Y-71793882D01*
X105494911Y-71807028D01*
X105495946Y-71808037D01*
X105501793Y-71809400D01*
X106689720Y-71809400D01*
X106702405Y-71805278D01*
X106705400Y-71801157D01*
X106705400Y-71793720D01*
X106958600Y-71793720D01*
X106962722Y-71806405D01*
X106966843Y-71809400D01*
X108159872Y-71809400D01*
X108172557Y-71805278D01*
X108174930Y-71802012D01*
X108175138Y-71800467D01*
X108174271Y-71781728D01*
X108172948Y-71772437D01*
X108124942Y-71573242D01*
X108121887Y-71564370D01*
X108037077Y-71377841D01*
X108032401Y-71369709D01*
X107913850Y-71202583D01*
X107907721Y-71195483D01*
X107759705Y-71053788D01*
X107752343Y-71047974D01*
X107580202Y-70936823D01*
X107571886Y-70932512D01*
X107381820Y-70855913D01*
X107372840Y-70853253D01*
X107170599Y-70813758D01*
X107163546Y-70812902D01*
X107162682Y-70812860D01*
X107160235Y-70812800D01*
X106974280Y-70812800D01*
X106961595Y-70816922D01*
X106958600Y-70821043D01*
X106958600Y-71793720D01*
X106705400Y-71793720D01*
X106705400Y-70828480D01*
X106701278Y-70815795D01*
X106697157Y-70812800D01*
X106555811Y-70812800D01*
X106551097Y-70813025D01*
X106398337Y-70827599D01*
X106389116Y-70829375D01*
X106192506Y-70887054D01*
X106183794Y-70890538D01*
X106001630Y-70984359D01*
X105993734Y-70989429D01*
X105832609Y-71115993D01*
X105825802Y-71122476D01*
X105691515Y-71277228D01*
X105686066Y-71284867D01*
X105583463Y-71462224D01*
X105579555Y-71470759D01*
X105512338Y-71664321D01*
X105510115Y-71673442D01*
X105492652Y-71793882D01*
X81197134Y-71793882D01*
X81232543Y-71767005D01*
X81237922Y-71762922D01*
X81242005Y-71757543D01*
X81325032Y-71648160D01*
X81325033Y-71648158D01*
X81329113Y-71642783D01*
X81384636Y-71502547D01*
X81395500Y-71412772D01*
X81395500Y-70087228D01*
X81384636Y-69997453D01*
X81329113Y-69857217D01*
X81237922Y-69737078D01*
X81232543Y-69732995D01*
X81123160Y-69649968D01*
X81123158Y-69649967D01*
X81117783Y-69645887D01*
X80977547Y-69590364D01*
X80887772Y-69579500D01*
X79112228Y-69579500D01*
X79022453Y-69590364D01*
X78882217Y-69645887D01*
X78876842Y-69649967D01*
X78876840Y-69649968D01*
X78767457Y-69732995D01*
X78762078Y-69737078D01*
X78670887Y-69857217D01*
X78615364Y-69997453D01*
X78604500Y-70087228D01*
X78604500Y-71412772D01*
X65300000Y-71412772D01*
X65300000Y-68302230D01*
X78603109Y-68302230D01*
X78639540Y-68514246D01*
X78713997Y-68716072D01*
X78823988Y-68900950D01*
X78826983Y-68904365D01*
X78826985Y-68904368D01*
X78848533Y-68928938D01*
X78965829Y-69062688D01*
X79134769Y-69195870D01*
X79138784Y-69197983D01*
X79138785Y-69197983D01*
X79146000Y-69201779D01*
X79325150Y-69296034D01*
X79355407Y-69305429D01*
X79526258Y-69358480D01*
X79526261Y-69358481D01*
X79530597Y-69359827D01*
X79535107Y-69360361D01*
X79535108Y-69360361D01*
X79570915Y-69364599D01*
X79705262Y-69380500D01*
X80279578Y-69380500D01*
X80439221Y-69365831D01*
X80646267Y-69307438D01*
X80839205Y-69212291D01*
X81011573Y-69083578D01*
X81109507Y-68977634D01*
X81154521Y-68928938D01*
X81154522Y-68928937D01*
X81157599Y-68925608D01*
X81175623Y-68897043D01*
X81269971Y-68747510D01*
X81272392Y-68743673D01*
X81285105Y-68711809D01*
X81350426Y-68548077D01*
X81352107Y-68543864D01*
X81362302Y-68492611D01*
X84294394Y-68492611D01*
X84295049Y-68498544D01*
X84295049Y-68498548D01*
X84295566Y-68503231D01*
X84312999Y-68661135D01*
X84371266Y-68820356D01*
X84374591Y-68825305D01*
X84374592Y-68825306D01*
X84387689Y-68844796D01*
X84465830Y-68961083D01*
X84591233Y-69075191D01*
X84740235Y-69156092D01*
X84775189Y-69165262D01*
X84898464Y-69197603D01*
X84898468Y-69197604D01*
X84904233Y-69199116D01*
X84910194Y-69199210D01*
X84910197Y-69199210D01*
X84988965Y-69200447D01*
X85073760Y-69201779D01*
X85079575Y-69200447D01*
X85079577Y-69200447D01*
X85233206Y-69165262D01*
X85233209Y-69165261D01*
X85239029Y-69163928D01*
X85254610Y-69156092D01*
X85385165Y-69090429D01*
X85390498Y-69087747D01*
X85395035Y-69083872D01*
X85395038Y-69083870D01*
X85514888Y-68981508D01*
X85514891Y-68981505D01*
X85519423Y-68977634D01*
X85554415Y-68928938D01*
X85614877Y-68844796D01*
X85614878Y-68844794D01*
X85618361Y-68839947D01*
X85657064Y-68743673D01*
X85679377Y-68688167D01*
X85679378Y-68688165D01*
X85681601Y-68682634D01*
X85701351Y-68543864D01*
X85705034Y-68517985D01*
X85705034Y-68517979D01*
X85705490Y-68514778D01*
X85705543Y-68509777D01*
X85705611Y-68503231D01*
X85705645Y-68500000D01*
X85685276Y-68331680D01*
X85625345Y-68173077D01*
X85587334Y-68117770D01*
X85532692Y-68038267D01*
X85529312Y-68033349D01*
X85402721Y-67920560D01*
X85252881Y-67841224D01*
X85170661Y-67820571D01*
X85094231Y-67801373D01*
X85094228Y-67801373D01*
X85088441Y-67799919D01*
X85002841Y-67799471D01*
X84924861Y-67799062D01*
X84924859Y-67799062D01*
X84918895Y-67799031D01*
X84913099Y-67800423D01*
X84913095Y-67800423D01*
X84805703Y-67826207D01*
X84754032Y-67838612D01*
X84689493Y-67871923D01*
X84608675Y-67913636D01*
X84608673Y-67913638D01*
X84603369Y-67916375D01*
X84475604Y-68027831D01*
X84472173Y-68032713D01*
X84472172Y-68032714D01*
X84415540Y-68113294D01*
X84378113Y-68166547D01*
X84375945Y-68172108D01*
X84326982Y-68297691D01*
X84316524Y-68324513D01*
X84294394Y-68492611D01*
X81362302Y-68492611D01*
X81394075Y-68332875D01*
X81396180Y-68172108D01*
X81396832Y-68122309D01*
X81396832Y-68122304D01*
X81396891Y-68117770D01*
X81360460Y-67905754D01*
X81286003Y-67703928D01*
X81176012Y-67519050D01*
X81173017Y-67515635D01*
X81173015Y-67515632D01*
X81122936Y-67458529D01*
X81034171Y-67357312D01*
X80865231Y-67224130D01*
X80674850Y-67123966D01*
X80593405Y-67098677D01*
X80473742Y-67061520D01*
X80473739Y-67061519D01*
X80469403Y-67060173D01*
X80464893Y-67059639D01*
X80464892Y-67059639D01*
X80427312Y-67055191D01*
X80294738Y-67039500D01*
X79720422Y-67039500D01*
X79560779Y-67054169D01*
X79353733Y-67112562D01*
X79160795Y-67207709D01*
X78988427Y-67336422D01*
X78842401Y-67494392D01*
X78839983Y-67498225D01*
X78839981Y-67498227D01*
X78737752Y-67660250D01*
X78727608Y-67676327D01*
X78725928Y-67680538D01*
X78725926Y-67680542D01*
X78678642Y-67799062D01*
X78647893Y-67876136D01*
X78605925Y-68087125D01*
X78603109Y-68302230D01*
X65300000Y-68302230D01*
X65300000Y-65762230D01*
X78603109Y-65762230D01*
X78639540Y-65974246D01*
X78713997Y-66176072D01*
X78823988Y-66360950D01*
X78826983Y-66364365D01*
X78826985Y-66364368D01*
X78848533Y-66388938D01*
X78965829Y-66522688D01*
X79134769Y-66655870D01*
X79325150Y-66756034D01*
X79355407Y-66765429D01*
X79526258Y-66818480D01*
X79526261Y-66818481D01*
X79530597Y-66819827D01*
X79535107Y-66820361D01*
X79535108Y-66820361D01*
X79570915Y-66824599D01*
X79705262Y-66840500D01*
X80279578Y-66840500D01*
X80439221Y-66825831D01*
X80646267Y-66767438D01*
X80839205Y-66672291D01*
X81011573Y-66543578D01*
X81157599Y-66385608D01*
X81175623Y-66357043D01*
X81269971Y-66207510D01*
X81272392Y-66203673D01*
X81285105Y-66171809D01*
X81350426Y-66008077D01*
X81352107Y-66003864D01*
X81394075Y-65792875D01*
X81396891Y-65577770D01*
X81360460Y-65365754D01*
X81286003Y-65163928D01*
X81176012Y-64979050D01*
X81173017Y-64975635D01*
X81173015Y-64975632D01*
X81122936Y-64918529D01*
X81034171Y-64817312D01*
X80865231Y-64684130D01*
X80674850Y-64583966D01*
X80593405Y-64558677D01*
X80473742Y-64521520D01*
X80473739Y-64521519D01*
X80469403Y-64520173D01*
X80464893Y-64519639D01*
X80464892Y-64519639D01*
X80427312Y-64515191D01*
X80294738Y-64499500D01*
X79720422Y-64499500D01*
X79560779Y-64514169D01*
X79353733Y-64572562D01*
X79160795Y-64667709D01*
X78988427Y-64796422D01*
X78842401Y-64954392D01*
X78839983Y-64958225D01*
X78839981Y-64958227D01*
X78737752Y-65120250D01*
X78727608Y-65136327D01*
X78725928Y-65140538D01*
X78725926Y-65140542D01*
X78674866Y-65268527D01*
X78647893Y-65336136D01*
X78605925Y-65547125D01*
X78603109Y-65762230D01*
X65300000Y-65762230D01*
X65300000Y-63222230D01*
X78603109Y-63222230D01*
X78639540Y-63434246D01*
X78713997Y-63636072D01*
X78823988Y-63820950D01*
X78826983Y-63824365D01*
X78826985Y-63824368D01*
X78848533Y-63848938D01*
X78965829Y-63982688D01*
X79134769Y-64115870D01*
X79325150Y-64216034D01*
X79355407Y-64225429D01*
X79526258Y-64278480D01*
X79526261Y-64278481D01*
X79530597Y-64279827D01*
X79535107Y-64280361D01*
X79535108Y-64280361D01*
X79570915Y-64284599D01*
X79705262Y-64300500D01*
X80279578Y-64300500D01*
X80439221Y-64285831D01*
X80646267Y-64227438D01*
X80839205Y-64132291D01*
X81011573Y-64003578D01*
X81157599Y-63845608D01*
X81175623Y-63817043D01*
X81269971Y-63667510D01*
X81272392Y-63663673D01*
X81285105Y-63631809D01*
X81350426Y-63468077D01*
X81352107Y-63463864D01*
X81394075Y-63252875D01*
X81396891Y-63037770D01*
X81360460Y-62825754D01*
X81286003Y-62623928D01*
X81176012Y-62439050D01*
X81173017Y-62435635D01*
X81173015Y-62435632D01*
X81122936Y-62378529D01*
X81034171Y-62277312D01*
X80865231Y-62144130D01*
X80674850Y-62043966D01*
X80593405Y-62018677D01*
X80473742Y-61981520D01*
X80473739Y-61981519D01*
X80469403Y-61980173D01*
X80464893Y-61979639D01*
X80464892Y-61979639D01*
X80427312Y-61975191D01*
X80294738Y-61959500D01*
X79720422Y-61959500D01*
X79560779Y-61974169D01*
X79353733Y-62032562D01*
X79160795Y-62127709D01*
X78988427Y-62256422D01*
X78842401Y-62414392D01*
X78839983Y-62418225D01*
X78839981Y-62418227D01*
X78737752Y-62580250D01*
X78727608Y-62596327D01*
X78725928Y-62600538D01*
X78725926Y-62600542D01*
X78674866Y-62728527D01*
X78647893Y-62796136D01*
X78605925Y-63007125D01*
X78603109Y-63222230D01*
X65300000Y-63222230D01*
X65300000Y-60034908D01*
X65301504Y-60017717D01*
X65303124Y-60008530D01*
X65304628Y-60000000D01*
X67744671Y-60000000D01*
X67744883Y-60003234D01*
X67763694Y-60290223D01*
X67763966Y-60294380D01*
X67821519Y-60583722D01*
X67916348Y-60863077D01*
X67979592Y-60991324D01*
X68044860Y-61123673D01*
X68046828Y-61127664D01*
X68210727Y-61372957D01*
X68405242Y-61594758D01*
X68627043Y-61789273D01*
X68872335Y-61953172D01*
X68875239Y-61954604D01*
X68875244Y-61954607D01*
X69060728Y-62046077D01*
X69136923Y-62083652D01*
X69139992Y-62084694D01*
X69139995Y-62084695D01*
X69208319Y-62107888D01*
X69416278Y-62178481D01*
X69705620Y-62236034D01*
X69708842Y-62236245D01*
X69708848Y-62236246D01*
X69996766Y-62255117D01*
X70000000Y-62255329D01*
X70003234Y-62255117D01*
X70291152Y-62236246D01*
X70291158Y-62236245D01*
X70294380Y-62236034D01*
X70583722Y-62178481D01*
X70791681Y-62107888D01*
X70860005Y-62084695D01*
X70860008Y-62084694D01*
X70863077Y-62083652D01*
X70939272Y-62046077D01*
X71124756Y-61954607D01*
X71124761Y-61954604D01*
X71127665Y-61953172D01*
X71372957Y-61789273D01*
X71594758Y-61594758D01*
X71789273Y-61372957D01*
X71953172Y-61127664D01*
X71955141Y-61123673D01*
X72020408Y-60991324D01*
X72083652Y-60863077D01*
X72145042Y-60682230D01*
X78603109Y-60682230D01*
X78639540Y-60894246D01*
X78713997Y-61096072D01*
X78823988Y-61280950D01*
X78826983Y-61284365D01*
X78826985Y-61284368D01*
X78848533Y-61308938D01*
X78965829Y-61442688D01*
X79134769Y-61575870D01*
X79325150Y-61676034D01*
X79355407Y-61685429D01*
X79526258Y-61738480D01*
X79526261Y-61738481D01*
X79530597Y-61739827D01*
X79535107Y-61740361D01*
X79535108Y-61740361D01*
X79570915Y-61744599D01*
X79705262Y-61760500D01*
X80279578Y-61760500D01*
X80439221Y-61745831D01*
X80646267Y-61687438D01*
X80839205Y-61592291D01*
X81011573Y-61463578D01*
X81095342Y-61372957D01*
X81154521Y-61308938D01*
X81154522Y-61308937D01*
X81157599Y-61305608D01*
X81175623Y-61277043D01*
X81269971Y-61127510D01*
X81272392Y-61123673D01*
X81285105Y-61091809D01*
X81350426Y-60928077D01*
X81352107Y-60923864D01*
X81394075Y-60712875D01*
X81396891Y-60497770D01*
X81360460Y-60285754D01*
X81286003Y-60083928D01*
X81236071Y-60000000D01*
X114744671Y-60000000D01*
X114744883Y-60003234D01*
X114763694Y-60290223D01*
X114763966Y-60294380D01*
X114821519Y-60583722D01*
X114916348Y-60863077D01*
X114979592Y-60991324D01*
X115044860Y-61123673D01*
X115046828Y-61127664D01*
X115210727Y-61372957D01*
X115405242Y-61594758D01*
X115627043Y-61789273D01*
X115872335Y-61953172D01*
X115875239Y-61954604D01*
X115875244Y-61954607D01*
X116060728Y-62046077D01*
X116136923Y-62083652D01*
X116139992Y-62084694D01*
X116139995Y-62084695D01*
X116208319Y-62107888D01*
X116416278Y-62178481D01*
X116705620Y-62236034D01*
X116708842Y-62236245D01*
X116708848Y-62236246D01*
X116996766Y-62255117D01*
X117000000Y-62255329D01*
X117003234Y-62255117D01*
X117291152Y-62236246D01*
X117291158Y-62236245D01*
X117294380Y-62236034D01*
X117583722Y-62178481D01*
X117791681Y-62107888D01*
X117860005Y-62084695D01*
X117860008Y-62084694D01*
X117863077Y-62083652D01*
X117939272Y-62046077D01*
X118124756Y-61954607D01*
X118124761Y-61954604D01*
X118127665Y-61953172D01*
X118372957Y-61789273D01*
X118594758Y-61594758D01*
X118789273Y-61372957D01*
X118953172Y-61127664D01*
X118955141Y-61123673D01*
X119020408Y-60991324D01*
X119083652Y-60863077D01*
X119178481Y-60583722D01*
X119236034Y-60294380D01*
X119236307Y-60290223D01*
X119255117Y-60003234D01*
X119255329Y-60000000D01*
X119248488Y-59895632D01*
X119236246Y-59708848D01*
X119236245Y-59708842D01*
X119236034Y-59705620D01*
X119178481Y-59416278D01*
X119083652Y-59136923D01*
X118953172Y-58872336D01*
X118789273Y-58627043D01*
X118594758Y-58405242D01*
X118372957Y-58210727D01*
X118363297Y-58204272D01*
X118130362Y-58048630D01*
X118130361Y-58048629D01*
X118127665Y-58046828D01*
X118124761Y-58045396D01*
X118124756Y-58045393D01*
X117865991Y-57917785D01*
X117863077Y-57916348D01*
X117860008Y-57915306D01*
X117860005Y-57915305D01*
X117774963Y-57886437D01*
X117583722Y-57821519D01*
X117294380Y-57763966D01*
X117291158Y-57763755D01*
X117291152Y-57763754D01*
X117003234Y-57744883D01*
X117000000Y-57744671D01*
X116996766Y-57744883D01*
X116708848Y-57763754D01*
X116708842Y-57763755D01*
X116705620Y-57763966D01*
X116416278Y-57821519D01*
X116136923Y-57916348D01*
X116008676Y-57979592D01*
X115875247Y-58045392D01*
X115875242Y-58045395D01*
X115872336Y-58046828D01*
X115627043Y-58210727D01*
X115405242Y-58405242D01*
X115210727Y-58627043D01*
X115046828Y-58872336D01*
X114916348Y-59136923D01*
X114821519Y-59416278D01*
X114763966Y-59705620D01*
X114763755Y-59708842D01*
X114763754Y-59708848D01*
X114751512Y-59895632D01*
X114744671Y-60000000D01*
X81236071Y-60000000D01*
X81176012Y-59899050D01*
X81173017Y-59895635D01*
X81173015Y-59895632D01*
X81122936Y-59838529D01*
X81034171Y-59737312D01*
X80865231Y-59604130D01*
X80674850Y-59503966D01*
X80593405Y-59478677D01*
X80473742Y-59441520D01*
X80473739Y-59441519D01*
X80469403Y-59440173D01*
X80464893Y-59439639D01*
X80464892Y-59439639D01*
X80427312Y-59435191D01*
X80294738Y-59419500D01*
X79720422Y-59419500D01*
X79560779Y-59434169D01*
X79353733Y-59492562D01*
X79160795Y-59587709D01*
X78988427Y-59716422D01*
X78842401Y-59874392D01*
X78839983Y-59878225D01*
X78839981Y-59878227D01*
X78763148Y-60000000D01*
X78727608Y-60056327D01*
X78725928Y-60060538D01*
X78725926Y-60060542D01*
X78674866Y-60188527D01*
X78647893Y-60256136D01*
X78605925Y-60467125D01*
X78603109Y-60682230D01*
X72145042Y-60682230D01*
X72178481Y-60583722D01*
X72236034Y-60294380D01*
X72236307Y-60290223D01*
X72255117Y-60003234D01*
X72255329Y-60000000D01*
X72248488Y-59895632D01*
X72236246Y-59708848D01*
X72236245Y-59708842D01*
X72236034Y-59705620D01*
X72178481Y-59416278D01*
X72083652Y-59136923D01*
X71953172Y-58872336D01*
X71789273Y-58627043D01*
X71594758Y-58405242D01*
X71372957Y-58210727D01*
X71363297Y-58204272D01*
X71335252Y-58185533D01*
X78656862Y-58185533D01*
X78657729Y-58204272D01*
X78659052Y-58213563D01*
X78707058Y-58412758D01*
X78710113Y-58421630D01*
X78794923Y-58608159D01*
X78799599Y-58616291D01*
X78918150Y-58783417D01*
X78924279Y-58790517D01*
X79072295Y-58932212D01*
X79079657Y-58938026D01*
X79251798Y-59049177D01*
X79260114Y-59053488D01*
X79450180Y-59130087D01*
X79459160Y-59132747D01*
X79661401Y-59172242D01*
X79668454Y-59173098D01*
X79669318Y-59173140D01*
X79671765Y-59173200D01*
X79857720Y-59173200D01*
X79870405Y-59169078D01*
X79873400Y-59164957D01*
X79873400Y-59157520D01*
X80126600Y-59157520D01*
X80130722Y-59170205D01*
X80134843Y-59173200D01*
X80276189Y-59173200D01*
X80280903Y-59172975D01*
X80433663Y-59158401D01*
X80442884Y-59156625D01*
X80639494Y-59098946D01*
X80648206Y-59095462D01*
X80830370Y-59001641D01*
X80838266Y-58996571D01*
X80999391Y-58870007D01*
X81006198Y-58863524D01*
X81140485Y-58708772D01*
X81145934Y-58701133D01*
X81248537Y-58523776D01*
X81252445Y-58515241D01*
X81319662Y-58321679D01*
X81321885Y-58312558D01*
X81339348Y-58192118D01*
X81337089Y-58178972D01*
X81336054Y-58177963D01*
X81330207Y-58176600D01*
X80142280Y-58176600D01*
X80129595Y-58180722D01*
X80126600Y-58184843D01*
X80126600Y-59157520D01*
X79873400Y-59157520D01*
X79873400Y-58192280D01*
X79869278Y-58179595D01*
X79865157Y-58176600D01*
X78672128Y-58176600D01*
X78659443Y-58180722D01*
X78657070Y-58183988D01*
X78656862Y-58185533D01*
X71335252Y-58185533D01*
X71130362Y-58048630D01*
X71130361Y-58048629D01*
X71127665Y-58046828D01*
X71124761Y-58045396D01*
X71124756Y-58045393D01*
X70865991Y-57917785D01*
X70863077Y-57916348D01*
X70860008Y-57915306D01*
X70860005Y-57915305D01*
X70838138Y-57907882D01*
X78660652Y-57907882D01*
X78662911Y-57921028D01*
X78663946Y-57922037D01*
X78669793Y-57923400D01*
X79857720Y-57923400D01*
X79870405Y-57919278D01*
X79873400Y-57915157D01*
X79873400Y-57907720D01*
X80126600Y-57907720D01*
X80130722Y-57920405D01*
X80134843Y-57923400D01*
X81327872Y-57923400D01*
X81340557Y-57919278D01*
X81342930Y-57916012D01*
X81343138Y-57914467D01*
X81342271Y-57895728D01*
X81340948Y-57886437D01*
X81292942Y-57687242D01*
X81289887Y-57678370D01*
X81205077Y-57491841D01*
X81200401Y-57483709D01*
X81081850Y-57316583D01*
X81075721Y-57309483D01*
X80927705Y-57167788D01*
X80920343Y-57161974D01*
X80748202Y-57050823D01*
X80739886Y-57046512D01*
X80549820Y-56969913D01*
X80540840Y-56967253D01*
X80338599Y-56927758D01*
X80331546Y-56926902D01*
X80330682Y-56926860D01*
X80328235Y-56926800D01*
X80142280Y-56926800D01*
X80129595Y-56930922D01*
X80126600Y-56935043D01*
X80126600Y-57907720D01*
X79873400Y-57907720D01*
X79873400Y-56942480D01*
X79869278Y-56929795D01*
X79865157Y-56926800D01*
X79723811Y-56926800D01*
X79719097Y-56927025D01*
X79566337Y-56941599D01*
X79557116Y-56943375D01*
X79360506Y-57001054D01*
X79351794Y-57004538D01*
X79169630Y-57098359D01*
X79161734Y-57103429D01*
X79000609Y-57229993D01*
X78993802Y-57236476D01*
X78859515Y-57391228D01*
X78854066Y-57398867D01*
X78751463Y-57576224D01*
X78747555Y-57584759D01*
X78680338Y-57778321D01*
X78678115Y-57787442D01*
X78660652Y-57907882D01*
X70838138Y-57907882D01*
X70774963Y-57886437D01*
X70583722Y-57821519D01*
X70294380Y-57763966D01*
X70291158Y-57763755D01*
X70291152Y-57763754D01*
X70003234Y-57744883D01*
X70000000Y-57744671D01*
X69996766Y-57744883D01*
X69708848Y-57763754D01*
X69708842Y-57763755D01*
X69705620Y-57763966D01*
X69416278Y-57821519D01*
X69136923Y-57916348D01*
X69008676Y-57979592D01*
X68875247Y-58045392D01*
X68875242Y-58045395D01*
X68872336Y-58046828D01*
X68627043Y-58210727D01*
X68405242Y-58405242D01*
X68210727Y-58627043D01*
X68046828Y-58872336D01*
X67916348Y-59136923D01*
X67821519Y-59416278D01*
X67763966Y-59705620D01*
X67763755Y-59708842D01*
X67763754Y-59708848D01*
X67751512Y-59895632D01*
X67744671Y-60000000D01*
X65304628Y-60000000D01*
X65302801Y-59989636D01*
X65301392Y-59968134D01*
X65317697Y-59594684D01*
X65318450Y-59586080D01*
X65370840Y-59188135D01*
X65372337Y-59179643D01*
X65459214Y-58787768D01*
X65461447Y-58779433D01*
X65510264Y-58624604D01*
X65582148Y-58396620D01*
X65585099Y-58388511D01*
X65657854Y-58212866D01*
X65738700Y-58017685D01*
X65742350Y-58009858D01*
X65791648Y-57915157D01*
X65927687Y-57653830D01*
X65931995Y-57646368D01*
X66147674Y-57307819D01*
X66152612Y-57300767D01*
X66396964Y-56982322D01*
X66402503Y-56975720D01*
X66673685Y-56679777D01*
X66679777Y-56673685D01*
X66975720Y-56402503D01*
X66982324Y-56396962D01*
X67300767Y-56152612D01*
X67307819Y-56147674D01*
X67646368Y-55931995D01*
X67653830Y-55927687D01*
X68009858Y-55742350D01*
X68017685Y-55738700D01*
X68109668Y-55700599D01*
X68388518Y-55585096D01*
X68396620Y-55582148D01*
X68779435Y-55461447D01*
X68787768Y-55459214D01*
X69179643Y-55372337D01*
X69188126Y-55370842D01*
X69368983Y-55347031D01*
X69586080Y-55318450D01*
X69594684Y-55317697D01*
X69968134Y-55301392D01*
X69989636Y-55302801D01*
X70000000Y-55304628D01*
X70017718Y-55301504D01*
X70034908Y-55300000D01*
X116965092Y-55300000D01*
X116982282Y-55301504D01*
G37*
G04 #@! TD.AperFunction*
M02*
