G04 #@! TF.GenerationSoftware,KiCad,Pcbnew,6.0.2+dfsg-1*
G04 #@! TF.CreationDate,2023-01-06T20:52:01-08:00*
G04 #@! TF.ProjectId,RP2040_debugger,52503230-3430-45f6-9465-627567676572,REV1*
G04 #@! TF.SameCoordinates,Original*
G04 #@! TF.FileFunction,Legend,Top*
G04 #@! TF.FilePolarity,Positive*
%FSLAX46Y46*%
G04 Gerber Fmt 4.6, Leading zero omitted, Abs format (unit mm)*
G04 Created by KiCad (PCBNEW 6.0.2+dfsg-1) date 2023-01-06 20:52:01*
%MOMM*%
%LPD*%
G01*
G04 APERTURE LIST*
G04 Aperture macros list*
%AMRoundRect*
0 Rectangle with rounded corners*
0 $1 Rounding radius*
0 $2 $3 $4 $5 $6 $7 $8 $9 X,Y pos of 4 corners*
0 Add a 4 corners polygon primitive as box body*
4,1,4,$2,$3,$4,$5,$6,$7,$8,$9,$2,$3,0*
0 Add four circle primitives for the rounded corners*
1,1,$1+$1,$2,$3*
1,1,$1+$1,$4,$5*
1,1,$1+$1,$6,$7*
1,1,$1+$1,$8,$9*
0 Add four rect primitives between the rounded corners*
20,1,$1+$1,$2,$3,$4,$5,0*
20,1,$1+$1,$4,$5,$6,$7,0*
20,1,$1+$1,$6,$7,$8,$9,0*
20,1,$1+$1,$8,$9,$2,$3,0*%
G04 Aperture macros list end*
%ADD10C,0.200000*%
%ADD11C,0.400000*%
%ADD12C,0.150000*%
%ADD13C,0.120000*%
%ADD14R,0.750000X0.900000*%
%ADD15RoundRect,0.225000X0.225000X0.250000X-0.225000X0.250000X-0.225000X-0.250000X0.225000X-0.250000X0*%
%ADD16RoundRect,0.225000X-0.250000X0.225000X-0.250000X-0.225000X0.250000X-0.225000X0.250000X0.225000X0*%
%ADD17RoundRect,0.225000X-0.225000X-0.250000X0.225000X-0.250000X0.225000X0.250000X-0.225000X0.250000X0*%
%ADD18RoundRect,0.135000X-0.135000X-0.185000X0.135000X-0.185000X0.135000X0.185000X-0.135000X0.185000X0*%
%ADD19RoundRect,0.150000X0.650000X0.150000X-0.650000X0.150000X-0.650000X-0.150000X0.650000X-0.150000X0*%
%ADD20RoundRect,0.200000X-0.200000X-0.275000X0.200000X-0.275000X0.200000X0.275000X-0.200000X0.275000X0*%
%ADD21RoundRect,0.225000X0.250000X-0.225000X0.250000X0.225000X-0.250000X0.225000X-0.250000X-0.225000X0*%
%ADD22RoundRect,0.200000X0.275000X-0.200000X0.275000X0.200000X-0.275000X0.200000X-0.275000X-0.200000X0*%
%ADD23RoundRect,0.050000X0.387500X0.050000X-0.387500X0.050000X-0.387500X-0.050000X0.387500X-0.050000X0*%
%ADD24RoundRect,0.050000X0.050000X0.387500X-0.050000X0.387500X-0.050000X-0.387500X0.050000X-0.387500X0*%
%ADD25RoundRect,0.144000X1.456000X1.456000X-1.456000X1.456000X-1.456000X-1.456000X1.456000X-1.456000X0*%
%ADD26RoundRect,0.243750X0.243750X0.456250X-0.243750X0.456250X-0.243750X-0.456250X0.243750X-0.456250X0*%
%ADD27R,1.000000X1.200000*%
%ADD28RoundRect,0.250000X0.250000X0.475000X-0.250000X0.475000X-0.250000X-0.475000X0.250000X-0.475000X0*%
%ADD29RoundRect,0.200000X-0.275000X0.200000X-0.275000X-0.200000X0.275000X-0.200000X0.275000X0.200000X0*%
%ADD30C,3.900000*%
%ADD31R,1.700000X1.700000*%
%ADD32O,1.700000X1.700000*%
%ADD33RoundRect,0.250000X0.475000X-0.250000X0.475000X0.250000X-0.475000X0.250000X-0.475000X-0.250000X0*%
%ADD34R,1.400000X1.200000*%
%ADD35RoundRect,0.250000X0.845000X-0.620000X0.845000X0.620000X-0.845000X0.620000X-0.845000X-0.620000X0*%
%ADD36O,2.190000X1.740000*%
%ADD37R,3.430000X1.780000*%
%ADD38R,2.200000X1.200000*%
%ADD39R,6.400000X5.800000*%
%ADD40C,0.650000*%
%ADD41R,0.300000X1.150000*%
%ADD42O,1.000000X2.100000*%
%ADD43O,1.000000X1.600000*%
G04 APERTURE END LIST*
D10*
X102352380Y-81347619D02*
X101352380Y-81347619D01*
X101352380Y-81109523D01*
X101400000Y-80966666D01*
X101495238Y-80871428D01*
X101590476Y-80823809D01*
X101780952Y-80776190D01*
X101923809Y-80776190D01*
X102114285Y-80823809D01*
X102209523Y-80871428D01*
X102304761Y-80966666D01*
X102352380Y-81109523D01*
X102352380Y-81347619D01*
X101828571Y-80347619D02*
X101828571Y-80014285D01*
X102352380Y-79871428D02*
X102352380Y-80347619D01*
X101352380Y-80347619D01*
X101352380Y-79871428D01*
X101828571Y-79109523D02*
X101876190Y-78966666D01*
X101923809Y-78919047D01*
X102019047Y-78871428D01*
X102161904Y-78871428D01*
X102257142Y-78919047D01*
X102304761Y-78966666D01*
X102352380Y-79061904D01*
X102352380Y-79442857D01*
X101352380Y-79442857D01*
X101352380Y-79109523D01*
X101400000Y-79014285D01*
X101447619Y-78966666D01*
X101542857Y-78919047D01*
X101638095Y-78919047D01*
X101733333Y-78966666D01*
X101780952Y-79014285D01*
X101828571Y-79109523D01*
X101828571Y-79442857D01*
X101352380Y-78442857D02*
X102161904Y-78442857D01*
X102257142Y-78395238D01*
X102304761Y-78347619D01*
X102352380Y-78252380D01*
X102352380Y-78061904D01*
X102304761Y-77966666D01*
X102257142Y-77919047D01*
X102161904Y-77871428D01*
X101352380Y-77871428D01*
X101400000Y-76871428D02*
X101352380Y-76966666D01*
X101352380Y-77109523D01*
X101400000Y-77252380D01*
X101495238Y-77347619D01*
X101590476Y-77395238D01*
X101780952Y-77442857D01*
X101923809Y-77442857D01*
X102114285Y-77395238D01*
X102209523Y-77347619D01*
X102304761Y-77252380D01*
X102352380Y-77109523D01*
X102352380Y-77014285D01*
X102304761Y-76871428D01*
X102257142Y-76823809D01*
X101923809Y-76823809D01*
X101923809Y-77014285D01*
X101352380Y-75442857D02*
X101352380Y-75252380D01*
X101400000Y-75157142D01*
X101495238Y-75061904D01*
X101685714Y-75014285D01*
X102019047Y-75014285D01*
X102209523Y-75061904D01*
X102304761Y-75157142D01*
X102352380Y-75252380D01*
X102352380Y-75442857D01*
X102304761Y-75538095D01*
X102209523Y-75633333D01*
X102019047Y-75680952D01*
X101685714Y-75680952D01*
X101495238Y-75633333D01*
X101400000Y-75538095D01*
X101352380Y-75442857D01*
X101352380Y-74585714D02*
X102161904Y-74585714D01*
X102257142Y-74538095D01*
X102304761Y-74490476D01*
X102352380Y-74395238D01*
X102352380Y-74204761D01*
X102304761Y-74109523D01*
X102257142Y-74061904D01*
X102161904Y-74014285D01*
X101352380Y-74014285D01*
X101352380Y-73680952D02*
X101352380Y-73109523D01*
X102352380Y-73395238D02*
X101352380Y-73395238D01*
D11*
X71095238Y-66785714D02*
X71095238Y-65833333D01*
X73095238Y-65833333D01*
X71095238Y-67452380D02*
X72428571Y-67452380D01*
X73095238Y-67452380D02*
X73000000Y-67357142D01*
X72904761Y-67452380D01*
X73000000Y-67547619D01*
X73095238Y-67452380D01*
X72904761Y-67452380D01*
X71095238Y-68690476D02*
X71190476Y-68500000D01*
X71380952Y-68404761D01*
X73095238Y-68404761D01*
X71095238Y-71833333D02*
X73095238Y-71833333D01*
X71190476Y-71833333D02*
X71095238Y-71642857D01*
X71095238Y-71261904D01*
X71190476Y-71071428D01*
X71285714Y-70976190D01*
X71476190Y-70880952D01*
X72047619Y-70880952D01*
X72238095Y-70976190D01*
X72333333Y-71071428D01*
X72428571Y-71261904D01*
X72428571Y-71642857D01*
X72333333Y-71833333D01*
X71190476Y-73547619D02*
X71095238Y-73357142D01*
X71095238Y-72976190D01*
X71190476Y-72785714D01*
X71380952Y-72690476D01*
X72142857Y-72690476D01*
X72333333Y-72785714D01*
X72428571Y-72976190D01*
X72428571Y-73357142D01*
X72333333Y-73547619D01*
X72142857Y-73642857D01*
X71952380Y-73642857D01*
X71761904Y-72690476D01*
X71095238Y-74500000D02*
X73095238Y-74500000D01*
X72333333Y-74500000D02*
X72428571Y-74690476D01*
X72428571Y-75071428D01*
X72333333Y-75261904D01*
X72238095Y-75357142D01*
X72047619Y-75452380D01*
X71476190Y-75452380D01*
X71285714Y-75357142D01*
X71190476Y-75261904D01*
X71095238Y-75071428D01*
X71095238Y-74690476D01*
X71190476Y-74500000D01*
X72428571Y-77166666D02*
X71095238Y-77166666D01*
X72428571Y-76309523D02*
X71380952Y-76309523D01*
X71190476Y-76404761D01*
X71095238Y-76595238D01*
X71095238Y-76880952D01*
X71190476Y-77071428D01*
X71285714Y-77166666D01*
X72428571Y-78976190D02*
X70809523Y-78976190D01*
X70619047Y-78880952D01*
X70523809Y-78785714D01*
X70428571Y-78595238D01*
X70428571Y-78309523D01*
X70523809Y-78119047D01*
X71190476Y-78976190D02*
X71095238Y-78785714D01*
X71095238Y-78404761D01*
X71190476Y-78214285D01*
X71285714Y-78119047D01*
X71476190Y-78023809D01*
X72047619Y-78023809D01*
X72238095Y-78119047D01*
X72333333Y-78214285D01*
X72428571Y-78404761D01*
X72428571Y-78785714D01*
X72333333Y-78976190D01*
X72428571Y-80785714D02*
X70809523Y-80785714D01*
X70619047Y-80690476D01*
X70523809Y-80595238D01*
X70428571Y-80404761D01*
X70428571Y-80119047D01*
X70523809Y-79928571D01*
X71190476Y-80785714D02*
X71095238Y-80595238D01*
X71095238Y-80214285D01*
X71190476Y-80023809D01*
X71285714Y-79928571D01*
X71476190Y-79833333D01*
X72047619Y-79833333D01*
X72238095Y-79928571D01*
X72333333Y-80023809D01*
X72428571Y-80214285D01*
X72428571Y-80595238D01*
X72333333Y-80785714D01*
X71190476Y-82500000D02*
X71095238Y-82309523D01*
X71095238Y-81928571D01*
X71190476Y-81738095D01*
X71380952Y-81642857D01*
X72142857Y-81642857D01*
X72333333Y-81738095D01*
X72428571Y-81928571D01*
X72428571Y-82309523D01*
X72333333Y-82500000D01*
X72142857Y-82595238D01*
X71952380Y-82595238D01*
X71761904Y-81642857D01*
X71095238Y-83452380D02*
X72428571Y-83452380D01*
X72047619Y-83452380D02*
X72238095Y-83547619D01*
X72333333Y-83642857D01*
X72428571Y-83833333D01*
X72428571Y-84023809D01*
X72428571Y-85928571D02*
X72428571Y-86690476D01*
X71095238Y-86214285D02*
X72809523Y-86214285D01*
X73000000Y-86309523D01*
X73095238Y-86500000D01*
X73095238Y-86690476D01*
X71095238Y-87357142D02*
X72428571Y-87357142D01*
X72047619Y-87357142D02*
X72238095Y-87452380D01*
X72333333Y-87547619D01*
X72428571Y-87738095D01*
X72428571Y-87928571D01*
X71190476Y-89357142D02*
X71095238Y-89166666D01*
X71095238Y-88785714D01*
X71190476Y-88595238D01*
X71380952Y-88500000D01*
X72142857Y-88500000D01*
X72333333Y-88595238D01*
X72428571Y-88785714D01*
X72428571Y-89166666D01*
X72333333Y-89357142D01*
X72142857Y-89452380D01*
X71952380Y-89452380D01*
X71761904Y-88500000D01*
X72428571Y-90309523D02*
X71095238Y-90309523D01*
X72238095Y-90309523D02*
X72333333Y-90404761D01*
X72428571Y-90595238D01*
X72428571Y-90880952D01*
X72333333Y-91071428D01*
X72142857Y-91166666D01*
X71095238Y-91166666D01*
D10*
X84147619Y-61019047D02*
X85147619Y-61019047D01*
X85147619Y-61257142D01*
X85100000Y-61400000D01*
X85004761Y-61495238D01*
X84909523Y-61542857D01*
X84719047Y-61590476D01*
X84576190Y-61590476D01*
X84385714Y-61542857D01*
X84290476Y-61495238D01*
X84195238Y-61400000D01*
X84147619Y-61257142D01*
X84147619Y-61019047D01*
X84671428Y-62019047D02*
X84671428Y-62352380D01*
X84147619Y-62495238D02*
X84147619Y-62019047D01*
X85147619Y-62019047D01*
X85147619Y-62495238D01*
X84671428Y-63257142D02*
X84623809Y-63400000D01*
X84576190Y-63447619D01*
X84480952Y-63495238D01*
X84338095Y-63495238D01*
X84242857Y-63447619D01*
X84195238Y-63400000D01*
X84147619Y-63304761D01*
X84147619Y-62923809D01*
X85147619Y-62923809D01*
X85147619Y-63257142D01*
X85100000Y-63352380D01*
X85052380Y-63400000D01*
X84957142Y-63447619D01*
X84861904Y-63447619D01*
X84766666Y-63400000D01*
X84719047Y-63352380D01*
X84671428Y-63257142D01*
X84671428Y-62923809D01*
X85147619Y-63923809D02*
X84338095Y-63923809D01*
X84242857Y-63971428D01*
X84195238Y-64019047D01*
X84147619Y-64114285D01*
X84147619Y-64304761D01*
X84195238Y-64400000D01*
X84242857Y-64447619D01*
X84338095Y-64495238D01*
X85147619Y-64495238D01*
X85100000Y-65495238D02*
X85147619Y-65400000D01*
X85147619Y-65257142D01*
X85100000Y-65114285D01*
X85004761Y-65019047D01*
X84909523Y-64971428D01*
X84719047Y-64923809D01*
X84576190Y-64923809D01*
X84385714Y-64971428D01*
X84290476Y-65019047D01*
X84195238Y-65114285D01*
X84147619Y-65257142D01*
X84147619Y-65352380D01*
X84195238Y-65495238D01*
X84242857Y-65542857D01*
X84576190Y-65542857D01*
X84576190Y-65352380D01*
X84147619Y-66733333D02*
X85147619Y-66733333D01*
X84147619Y-67209523D02*
X85147619Y-67209523D01*
X84147619Y-67780952D01*
X85147619Y-67780952D01*
X103042857Y-92753571D02*
X103185714Y-92801190D01*
X103233333Y-92848809D01*
X103280952Y-92944047D01*
X103280952Y-93086904D01*
X103233333Y-93182142D01*
X103185714Y-93229761D01*
X103090476Y-93277380D01*
X102709523Y-93277380D01*
X102709523Y-92277380D01*
X103042857Y-92277380D01*
X103138095Y-92325000D01*
X103185714Y-92372619D01*
X103233333Y-92467857D01*
X103233333Y-92563095D01*
X103185714Y-92658333D01*
X103138095Y-92705952D01*
X103042857Y-92753571D01*
X102709523Y-92753571D01*
X103900000Y-92277380D02*
X104090476Y-92277380D01*
X104185714Y-92325000D01*
X104280952Y-92420238D01*
X104328571Y-92610714D01*
X104328571Y-92944047D01*
X104280952Y-93134523D01*
X104185714Y-93229761D01*
X104090476Y-93277380D01*
X103900000Y-93277380D01*
X103804761Y-93229761D01*
X103709523Y-93134523D01*
X103661904Y-92944047D01*
X103661904Y-92610714D01*
X103709523Y-92420238D01*
X103804761Y-92325000D01*
X103900000Y-92277380D01*
X104947619Y-92277380D02*
X105138095Y-92277380D01*
X105233333Y-92325000D01*
X105328571Y-92420238D01*
X105376190Y-92610714D01*
X105376190Y-92944047D01*
X105328571Y-93134523D01*
X105233333Y-93229761D01*
X105138095Y-93277380D01*
X104947619Y-93277380D01*
X104852380Y-93229761D01*
X104757142Y-93134523D01*
X104709523Y-92944047D01*
X104709523Y-92610714D01*
X104757142Y-92420238D01*
X104852380Y-92325000D01*
X104947619Y-92277380D01*
X105661904Y-92277380D02*
X106233333Y-92277380D01*
X105947619Y-93277380D02*
X105947619Y-92277380D01*
D12*
X77966666Y-99422380D02*
X77966666Y-100136666D01*
X77919047Y-100279523D01*
X77823809Y-100374761D01*
X77680952Y-100422380D01*
X77585714Y-100422380D01*
X78871428Y-99755714D02*
X78871428Y-100422380D01*
X78633333Y-99374761D02*
X78395238Y-100089047D01*
X79014285Y-100089047D01*
X83916666Y-70622380D02*
X83916666Y-71336666D01*
X83869047Y-71479523D01*
X83773809Y-71574761D01*
X83630952Y-71622380D01*
X83535714Y-71622380D01*
X84297619Y-70622380D02*
X84916666Y-70622380D01*
X84583333Y-71003333D01*
X84726190Y-71003333D01*
X84821428Y-71050952D01*
X84869047Y-71098571D01*
X84916666Y-71193809D01*
X84916666Y-71431904D01*
X84869047Y-71527142D01*
X84821428Y-71574761D01*
X84726190Y-71622380D01*
X84440476Y-71622380D01*
X84345238Y-71574761D01*
X84297619Y-71527142D01*
D13*
X98000000Y-69400000D02*
X96925000Y-69400000D01*
X99650000Y-68950000D02*
X99650000Y-65950000D01*
X96850000Y-68950000D02*
X96850000Y-65850000D01*
X103650000Y-68950000D02*
X103650000Y-65850000D01*
X104800000Y-69400000D02*
X103725000Y-69400000D01*
X106450000Y-68950000D02*
X106450000Y-65950000D01*
X100250000Y-68950000D02*
X100250000Y-65850000D01*
X103050000Y-68950000D02*
X103050000Y-65950000D01*
X101400000Y-69400000D02*
X100325000Y-69400000D01*
X84905580Y-82280000D02*
X84624420Y-82280000D01*
X84905580Y-83300000D02*
X84624420Y-83300000D01*
X87180000Y-82294420D02*
X87180000Y-82575580D01*
X88200000Y-82294420D02*
X88200000Y-82575580D01*
X98134420Y-73940000D02*
X98415580Y-73940000D01*
X98134420Y-74960000D02*
X98415580Y-74960000D01*
X104735580Y-88440000D02*
X104454420Y-88440000D01*
X104735580Y-87420000D02*
X104454420Y-87420000D01*
X97811359Y-89810000D02*
X98118641Y-89810000D01*
X97811359Y-90570000D02*
X98118641Y-90570000D01*
X100950000Y-88725000D02*
X102625000Y-88725000D01*
X98225000Y-83535000D02*
X100950000Y-83535000D01*
X98225000Y-88985000D02*
X100950000Y-88985000D01*
X100950000Y-83535000D02*
X100950000Y-83795000D01*
X98225000Y-88985000D02*
X95500000Y-88985000D01*
X100950000Y-88985000D02*
X100950000Y-88725000D01*
X95500000Y-88985000D02*
X95500000Y-88725000D01*
X95500000Y-83535000D02*
X95500000Y-83795000D01*
X98225000Y-83535000D02*
X95500000Y-83535000D01*
X89445580Y-67060000D02*
X89164420Y-67060000D01*
X89445580Y-66040000D02*
X89164420Y-66040000D01*
X100497742Y-90682500D02*
X100972258Y-90682500D01*
X100497742Y-89637500D02*
X100972258Y-89637500D01*
X91050000Y-83644420D02*
X91050000Y-83925580D01*
X90030000Y-83644420D02*
X90030000Y-83925580D01*
X83495580Y-74190000D02*
X83214420Y-74190000D01*
X83495580Y-75210000D02*
X83214420Y-75210000D01*
X90269000Y-69005580D02*
X90269000Y-68724420D01*
X89249000Y-69005580D02*
X89249000Y-68724420D01*
X87239500Y-91934258D02*
X87239500Y-91459742D01*
X88284500Y-91934258D02*
X88284500Y-91459742D01*
X87330000Y-69005580D02*
X87330000Y-68724420D01*
X88350000Y-69005580D02*
X88350000Y-68724420D01*
X96734420Y-79790000D02*
X97015580Y-79790000D01*
X96734420Y-80810000D02*
X97015580Y-80810000D01*
X84845580Y-81710000D02*
X84564420Y-81710000D01*
X84845580Y-80690000D02*
X84564420Y-80690000D01*
X87180000Y-72540000D02*
X87180000Y-73190000D01*
X93750000Y-72540000D02*
X94400000Y-72540000D01*
X93750000Y-79760000D02*
X94400000Y-79760000D01*
X87830000Y-72540000D02*
X87180000Y-72540000D01*
X87180000Y-79760000D02*
X87180000Y-79110000D01*
X87830000Y-79760000D02*
X87180000Y-79760000D01*
X94400000Y-72540000D02*
X94400000Y-73190000D01*
X94040000Y-63865580D02*
X94040000Y-63584420D01*
X95060000Y-63865580D02*
X95060000Y-63584420D01*
X86684500Y-91934258D02*
X86684500Y-91459742D01*
X85639500Y-91934258D02*
X85639500Y-91459742D01*
X92650000Y-83744420D02*
X92650000Y-84025580D01*
X91630000Y-83744420D02*
X91630000Y-84025580D01*
X84845580Y-80060000D02*
X84564420Y-80060000D01*
X84845580Y-79040000D02*
X84564420Y-79040000D01*
X92262500Y-68772258D02*
X92262500Y-68297742D01*
X91217500Y-68772258D02*
X91217500Y-68297742D01*
X104730578Y-90941000D02*
X104213422Y-90941000D01*
X104730578Y-89521000D02*
X104213422Y-89521000D01*
X106750000Y-96250000D02*
X106750000Y-90250000D01*
X110350000Y-90250000D02*
X110350000Y-96250000D01*
X110350000Y-96250000D02*
X106750000Y-96250000D01*
X106750000Y-90250000D02*
X110350000Y-90250000D01*
X93061252Y-91721000D02*
X92538748Y-91721000D01*
X93061252Y-90251000D02*
X92538748Y-90251000D01*
X83783500Y-91536742D02*
X83783500Y-92011258D01*
X84828500Y-91536742D02*
X84828500Y-92011258D01*
X90118500Y-91451258D02*
X90118500Y-90976742D01*
X89073500Y-91451258D02*
X89073500Y-90976742D01*
D12*
X73350000Y-97000000D02*
G75*
G03*
X73350000Y-97000000I-3350000J0D01*
G01*
G36*
X109966104Y-56708675D02*
G01*
X110023999Y-56718283D01*
X110072960Y-56739060D01*
X110105830Y-56759311D01*
X110175038Y-56820099D01*
X110227413Y-56902200D01*
X110265295Y-57010997D01*
X110291023Y-57151875D01*
X110296353Y-57197666D01*
X110305385Y-57318149D01*
X110302295Y-57404933D01*
X110285570Y-57462914D01*
X110253700Y-57496992D01*
X110205175Y-57512062D01*
X110199155Y-57512732D01*
X110137259Y-57502193D01*
X110095127Y-57458123D01*
X110074349Y-57382653D01*
X110072373Y-57343008D01*
X110066049Y-57247777D01*
X110049098Y-57154083D01*
X110024551Y-57074067D01*
X109995439Y-57019869D01*
X109990263Y-57014105D01*
X109931853Y-56978348D01*
X109869352Y-56980017D01*
X109806801Y-57017346D01*
X109748239Y-57088566D01*
X109724712Y-57130313D01*
X109704480Y-57196939D01*
X109694159Y-57287822D01*
X109694160Y-57388335D01*
X109704896Y-57483849D01*
X109713680Y-57522543D01*
X109741521Y-57587898D01*
X109794883Y-57678567D01*
X109871445Y-57791127D01*
X109968883Y-57922153D01*
X110078336Y-58060202D01*
X110144970Y-58147720D01*
X110210057Y-58242901D01*
X110263591Y-58330724D01*
X110282946Y-58367281D01*
X110343662Y-58525868D01*
X110377188Y-58692642D01*
X110385055Y-58862260D01*
X110368794Y-59029381D01*
X110329933Y-59188663D01*
X110270003Y-59334764D01*
X110190534Y-59462344D01*
X110093057Y-59566060D01*
X109979101Y-59640571D01*
X109910642Y-59666965D01*
X109802914Y-59691546D01*
X109708855Y-59693433D01*
X109609234Y-59672700D01*
X109594379Y-59668193D01*
X109488174Y-59614758D01*
X109394603Y-59527286D01*
X109316026Y-59410428D01*
X109254806Y-59268835D01*
X109213304Y-59107161D01*
X109193883Y-58930056D01*
X109192720Y-58877132D01*
X109199265Y-58774028D01*
X109220732Y-58705685D01*
X109258905Y-58669057D01*
X109315563Y-58661096D01*
X109318838Y-58661388D01*
X109372302Y-58679114D01*
X109407593Y-58722740D01*
X109426804Y-58796508D01*
X109432078Y-58890586D01*
X109442613Y-59021575D01*
X109471441Y-59143222D01*
X109515352Y-59249587D01*
X109571138Y-59334730D01*
X109635591Y-59392712D01*
X109705503Y-59417595D01*
X109717037Y-59418108D01*
X109798846Y-59400355D01*
X109867053Y-59346365D01*
X109922983Y-59255043D01*
X109928048Y-59243591D01*
X109970627Y-59098268D01*
X109983600Y-58937513D01*
X109967685Y-58772001D01*
X109923597Y-58612410D01*
X109879177Y-58515072D01*
X109846113Y-58463152D01*
X109792942Y-58389769D01*
X109726108Y-58303403D01*
X109652052Y-58212534D01*
X109624839Y-58180322D01*
X109530135Y-58064496D01*
X109450005Y-57956777D01*
X109389801Y-57864624D01*
X109364003Y-57816847D01*
X109337098Y-57757415D01*
X109319447Y-57707433D01*
X109309150Y-57655664D01*
X109304306Y-57590871D01*
X109303015Y-57501818D01*
X109303069Y-57456563D01*
X109309212Y-57302833D01*
X109328702Y-57178178D01*
X109364685Y-57072968D01*
X109420310Y-56977568D01*
X109486196Y-56896094D01*
X109578649Y-56805540D01*
X109668513Y-56747298D01*
X109766901Y-56716071D01*
X109883833Y-56706567D01*
X109966104Y-56708675D01*
G37*
G36*
X102284870Y-56735135D02*
G01*
X102305418Y-56741611D01*
X102322502Y-56755936D01*
X102336439Y-56780788D01*
X102347545Y-56818847D01*
X102356136Y-56872794D01*
X102362531Y-56945309D01*
X102367045Y-57039070D01*
X102369995Y-57156757D01*
X102371698Y-57301052D01*
X102372471Y-57474632D01*
X102372629Y-57680179D01*
X102372491Y-57920371D01*
X102372373Y-58197890D01*
X102372373Y-58200624D01*
X102372501Y-58477891D01*
X102372670Y-58717812D01*
X102372554Y-58923070D01*
X102371827Y-59096350D01*
X102370166Y-59240336D01*
X102367245Y-59357710D01*
X102362738Y-59451158D01*
X102356321Y-59523362D01*
X102347669Y-59577007D01*
X102336456Y-59614777D01*
X102322357Y-59639354D01*
X102305048Y-59653424D01*
X102284202Y-59659670D01*
X102259496Y-59660775D01*
X102230604Y-59659423D01*
X102197200Y-59658299D01*
X102195798Y-59658297D01*
X102120285Y-59652681D01*
X102070756Y-59633464D01*
X102052373Y-59618266D01*
X102044594Y-59609615D01*
X102037896Y-59598456D01*
X102032196Y-59581926D01*
X102027415Y-59557160D01*
X102023471Y-59521295D01*
X102020285Y-59471467D01*
X102017774Y-59404811D01*
X102015860Y-59318465D01*
X102014461Y-59209564D01*
X102013496Y-59075244D01*
X102012886Y-58912643D01*
X102012549Y-58718895D01*
X102012405Y-58491137D01*
X102012373Y-58226505D01*
X102012373Y-58197147D01*
X102012398Y-57928569D01*
X102012527Y-57697158D01*
X102012840Y-57500052D01*
X102013419Y-57334385D01*
X102014343Y-57197295D01*
X102015694Y-57085917D01*
X102017552Y-56997388D01*
X102019997Y-56928844D01*
X102023111Y-56877420D01*
X102026973Y-56840254D01*
X102031665Y-56814481D01*
X102037266Y-56797237D01*
X102043859Y-56785659D01*
X102051522Y-56776883D01*
X102052373Y-56776028D01*
X102092239Y-56749616D01*
X102150797Y-56737669D01*
X102199273Y-56735996D01*
X102232114Y-56735007D01*
X102260541Y-56733827D01*
X102284870Y-56735135D01*
G37*
G36*
X103929237Y-56736238D02*
G01*
X104031801Y-56737308D01*
X104105761Y-56739725D01*
X104156816Y-56744008D01*
X104190662Y-56750675D01*
X104212999Y-56760243D01*
X104229522Y-56773233D01*
X104232373Y-56776028D01*
X104267539Y-56831326D01*
X104263728Y-56890414D01*
X104241238Y-56931700D01*
X104225807Y-56950288D01*
X104205367Y-56962828D01*
X104172493Y-56970505D01*
X104119762Y-56974499D01*
X104039752Y-56975993D01*
X103961942Y-56976185D01*
X103857585Y-56976704D01*
X103786134Y-56978950D01*
X103740500Y-56983956D01*
X103713595Y-56992756D01*
X103698330Y-57006381D01*
X103692802Y-57015414D01*
X103686315Y-57048864D01*
X103681398Y-57121496D01*
X103678067Y-57232492D01*
X103676343Y-57381034D01*
X103676244Y-57566302D01*
X103677098Y-57710961D01*
X103682373Y-58367281D01*
X103892373Y-58372540D01*
X103988530Y-58375804D01*
X104053051Y-58380925D01*
X104094300Y-58389516D01*
X104120641Y-58403189D01*
X104137373Y-58419792D01*
X104169072Y-58479995D01*
X104161226Y-58539707D01*
X104144052Y-58568616D01*
X104125746Y-58586445D01*
X104096336Y-58598851D01*
X104048039Y-58607386D01*
X103973075Y-58613604D01*
X103899052Y-58617478D01*
X103682373Y-58627485D01*
X103676909Y-58983215D01*
X103676008Y-59125801D01*
X103677977Y-59240491D01*
X103682672Y-59323628D01*
X103689948Y-59371558D01*
X103692613Y-59378526D01*
X103703775Y-59394147D01*
X103722091Y-59405029D01*
X103754119Y-59412019D01*
X103806417Y-59415964D01*
X103885545Y-59417711D01*
X103998060Y-59418108D01*
X103999076Y-59418108D01*
X104121703Y-59418889D01*
X104209957Y-59422500D01*
X104269456Y-59430846D01*
X104305817Y-59445830D01*
X104324655Y-59469356D01*
X104331589Y-59503326D01*
X104332373Y-59531063D01*
X104330030Y-59570054D01*
X104319981Y-59600180D01*
X104297692Y-59622569D01*
X104258630Y-59638351D01*
X104198261Y-59648656D01*
X104112053Y-59654613D01*
X103995472Y-59657351D01*
X103843986Y-59658000D01*
X103822922Y-59657991D01*
X103696401Y-59657226D01*
X103583009Y-59655265D01*
X103488999Y-59652320D01*
X103420624Y-59648603D01*
X103384138Y-59644326D01*
X103380367Y-59642979D01*
X103367298Y-59632966D01*
X103356019Y-59619759D01*
X103346398Y-59600528D01*
X103338302Y-59572439D01*
X103331602Y-59532664D01*
X103326165Y-59478369D01*
X103321859Y-59406723D01*
X103318554Y-59314896D01*
X103316119Y-59200056D01*
X103314420Y-59059371D01*
X103313328Y-58890010D01*
X103312710Y-58689142D01*
X103312435Y-58453936D01*
X103312373Y-58181560D01*
X103312373Y-58178447D01*
X103312398Y-57911818D01*
X103312530Y-57682337D01*
X103312851Y-57487118D01*
X103313442Y-57323277D01*
X103314386Y-57187930D01*
X103315766Y-57078191D01*
X103317663Y-56991176D01*
X103320160Y-56924002D01*
X103323340Y-56873782D01*
X103327284Y-56837633D01*
X103332074Y-56812670D01*
X103337794Y-56796008D01*
X103344524Y-56784764D01*
X103352349Y-56776052D01*
X103352373Y-56776028D01*
X103368448Y-56762354D01*
X103389292Y-56752197D01*
X103420601Y-56745037D01*
X103468072Y-56740356D01*
X103537404Y-56737635D01*
X103634295Y-56736357D01*
X103764441Y-56736002D01*
X103792373Y-56735996D01*
X103929237Y-56736238D01*
G37*
G36*
X107138049Y-57903917D02*
G01*
X107139082Y-57672717D01*
X107140166Y-57475859D01*
X107141390Y-57310498D01*
X107142848Y-57173790D01*
X107144631Y-57062889D01*
X107146829Y-56974953D01*
X107149536Y-56907134D01*
X107152842Y-56856590D01*
X107156839Y-56820476D01*
X107161619Y-56795946D01*
X107167274Y-56780156D01*
X107173894Y-56770262D01*
X107181572Y-56763418D01*
X107182373Y-56762814D01*
X107206117Y-56750722D01*
X107243427Y-56742813D01*
X107300762Y-56738641D01*
X107384586Y-56737758D01*
X107501360Y-56739718D01*
X107512373Y-56739986D01*
X107629390Y-56743461D01*
X107715320Y-56748082D01*
X107779071Y-56755182D01*
X107829556Y-56766097D01*
X107875684Y-56782160D01*
X107917771Y-56800695D01*
X108057509Y-56887547D01*
X108178137Y-57009523D01*
X108279605Y-57166554D01*
X108361863Y-57358570D01*
X108396597Y-57470656D01*
X108411158Y-57527681D01*
X108422110Y-57583571D01*
X108429978Y-57645358D01*
X108435286Y-57720073D01*
X108438558Y-57814746D01*
X108440316Y-57936409D01*
X108441014Y-58067044D01*
X108440904Y-58223522D01*
X108439208Y-58347086D01*
X108435502Y-58444840D01*
X108429358Y-58523885D01*
X108420353Y-58591322D01*
X108408059Y-58654254D01*
X108405031Y-58667517D01*
X108335165Y-58907445D01*
X108244966Y-59116968D01*
X108135365Y-59294692D01*
X108007291Y-59439219D01*
X107861677Y-59549155D01*
X107792373Y-59586169D01*
X107728946Y-59614238D01*
X107672762Y-59632824D01*
X107611655Y-59644308D01*
X107533460Y-59651069D01*
X107440445Y-59655015D01*
X107218518Y-59662422D01*
X107175046Y-59607113D01*
X107131574Y-59551803D01*
X107132176Y-59398092D01*
X107512060Y-59398092D01*
X107554194Y-59398092D01*
X107600366Y-59389620D01*
X107657584Y-59368903D01*
X107664549Y-59365693D01*
X107752722Y-59302827D01*
X107832038Y-59204210D01*
X107901552Y-59073331D01*
X107960319Y-58913680D01*
X108007392Y-58728746D01*
X108041828Y-58522019D01*
X108062681Y-58296987D01*
X108069004Y-58057142D01*
X108064600Y-57889006D01*
X108048222Y-57662322D01*
X108021519Y-57472498D01*
X107983463Y-57317458D01*
X107933028Y-57195128D01*
X107869187Y-57103433D01*
X107790913Y-57040297D01*
X107697181Y-57003646D01*
X107621050Y-56992586D01*
X107522373Y-56986193D01*
X107517216Y-58192143D01*
X107512060Y-59398092D01*
X107132176Y-59398092D01*
X107136973Y-58172304D01*
X107138049Y-57903917D01*
G37*
G36*
X100817599Y-56736457D02*
G01*
X100926255Y-56737429D01*
X101005568Y-56739634D01*
X101060866Y-56743487D01*
X101097475Y-56749406D01*
X101120724Y-56757804D01*
X101135941Y-56769100D01*
X101139273Y-56772600D01*
X101163991Y-56820793D01*
X101171405Y-56880118D01*
X101160847Y-56932661D01*
X101146012Y-56953147D01*
X101115604Y-56962218D01*
X101051217Y-56970124D01*
X100958867Y-56976338D01*
X100844569Y-56980337D01*
X100831012Y-56980617D01*
X100542373Y-56986193D01*
X100537113Y-57681741D01*
X100531854Y-58377288D01*
X100761652Y-58377288D01*
X100860841Y-58377715D01*
X100927823Y-58379947D01*
X100970389Y-58385416D01*
X100996332Y-58395549D01*
X101013442Y-58411777D01*
X101022824Y-58425208D01*
X101042867Y-58484516D01*
X101034947Y-58545102D01*
X101001923Y-58591240D01*
X100991387Y-58597990D01*
X100956855Y-58606129D01*
X100892602Y-58612600D01*
X100808896Y-58616592D01*
X100744698Y-58617478D01*
X100534393Y-58617478D01*
X100528383Y-59095796D01*
X100526079Y-59260286D01*
X100522816Y-59389106D01*
X100517140Y-59486617D01*
X100507597Y-59557177D01*
X100492732Y-59605145D01*
X100471090Y-59634882D01*
X100441218Y-59650746D01*
X100401662Y-59657096D01*
X100350966Y-59658293D01*
X100340724Y-59658297D01*
X100274191Y-59655186D01*
X100232545Y-59642297D01*
X100200923Y-59614291D01*
X100193824Y-59605558D01*
X100185679Y-59594505D01*
X100178677Y-59581650D01*
X100172733Y-59564067D01*
X100167759Y-59538829D01*
X100163669Y-59503011D01*
X100160377Y-59453687D01*
X100157795Y-59387932D01*
X100155839Y-59302818D01*
X100154420Y-59195421D01*
X100153453Y-59062814D01*
X100152852Y-58902072D01*
X100152528Y-58710268D01*
X100152398Y-58484477D01*
X100152373Y-58221773D01*
X100152373Y-58203139D01*
X100152435Y-57931651D01*
X100152711Y-57697349D01*
X100153335Y-57497388D01*
X100154439Y-57328925D01*
X100156157Y-57189114D01*
X100158621Y-57075109D01*
X100161965Y-56984068D01*
X100166323Y-56913143D01*
X100171827Y-56859492D01*
X100178611Y-56820268D01*
X100186809Y-56792627D01*
X100196552Y-56773724D01*
X100207975Y-56760715D01*
X100220367Y-56751314D01*
X100246103Y-56746968D01*
X100305678Y-56743102D01*
X100392933Y-56739921D01*
X100501708Y-56737629D01*
X100625844Y-56736429D01*
X100674273Y-56736303D01*
X100817599Y-56736457D01*
G37*
G36*
X105528170Y-56738544D02*
G01*
X105590679Y-56756530D01*
X105603550Y-56764400D01*
X105611305Y-56771239D01*
X105617989Y-56781517D01*
X105623707Y-56798155D01*
X105628566Y-56824071D01*
X105632674Y-56862186D01*
X105636136Y-56915418D01*
X105639059Y-56986689D01*
X105641551Y-57078916D01*
X105643717Y-57195021D01*
X105645665Y-57337921D01*
X105647501Y-57510538D01*
X105649332Y-57715790D01*
X105651264Y-57956598D01*
X105652373Y-58100452D01*
X105662373Y-59408100D01*
X105972373Y-59413416D01*
X106100530Y-59416365D01*
X106194097Y-59421435D01*
X106258482Y-59430537D01*
X106299092Y-59445581D01*
X106321336Y-59468480D01*
X106330623Y-59501142D01*
X106332373Y-59540598D01*
X106330755Y-59576518D01*
X106322866Y-59604280D01*
X106304152Y-59624934D01*
X106270059Y-59639526D01*
X106216031Y-59649107D01*
X106137515Y-59654722D01*
X106029956Y-59657422D01*
X105888801Y-59658253D01*
X105820944Y-59658297D01*
X105675177Y-59658103D01*
X105564084Y-59657231D01*
X105482342Y-59655244D01*
X105424627Y-59651705D01*
X105385613Y-59646180D01*
X105359978Y-59638231D01*
X105342395Y-59627422D01*
X105332373Y-59618266D01*
X105324594Y-59609615D01*
X105317896Y-59598456D01*
X105312196Y-59581926D01*
X105307415Y-59557160D01*
X105303471Y-59521295D01*
X105300285Y-59471467D01*
X105297774Y-59404811D01*
X105295860Y-59318465D01*
X105294461Y-59209564D01*
X105293496Y-59075244D01*
X105292886Y-58912643D01*
X105292549Y-58718895D01*
X105292405Y-58491137D01*
X105292373Y-58226505D01*
X105292373Y-58197147D01*
X105292398Y-57928569D01*
X105292527Y-57697158D01*
X105292840Y-57500052D01*
X105293419Y-57334385D01*
X105294343Y-57197295D01*
X105295694Y-57085917D01*
X105297552Y-56997388D01*
X105299997Y-56928844D01*
X105303111Y-56877420D01*
X105306973Y-56840254D01*
X105311665Y-56814481D01*
X105317266Y-56797237D01*
X105323859Y-56785659D01*
X105331522Y-56776883D01*
X105332373Y-56776028D01*
X105382297Y-56749009D01*
X105453136Y-56736276D01*
X105528170Y-56738544D01*
G37*
D13*
X77170000Y-74500000D02*
X77170000Y-73170000D01*
X77170000Y-75770000D02*
X79830000Y-75770000D01*
X77170000Y-75770000D02*
X77170000Y-98690000D01*
X77170000Y-73170000D02*
X78500000Y-73170000D01*
X79830000Y-75770000D02*
X79830000Y-98690000D01*
X77170000Y-98690000D02*
X79830000Y-98690000D01*
D12*
X120350000Y-97000000D02*
G75*
G03*
X120350000Y-97000000I-3350000J0D01*
G01*
X73350000Y-60000000D02*
G75*
G03*
X73350000Y-60000000I-3350000J0D01*
G01*
D13*
X94586000Y-98007252D02*
X94586000Y-97484748D01*
X93116000Y-98007252D02*
X93116000Y-97484748D01*
X93061252Y-92265000D02*
X92538748Y-92265000D01*
X93061252Y-93735000D02*
X92538748Y-93735000D01*
G36*
X85736802Y-56739162D02*
G01*
X85878396Y-56740604D01*
X85988097Y-56743929D01*
X86069960Y-56749889D01*
X86128036Y-56759238D01*
X86166379Y-56772730D01*
X86189042Y-56791118D01*
X86200078Y-56815156D01*
X86203541Y-56845596D01*
X86203714Y-56858649D01*
X86198268Y-56908453D01*
X86177989Y-56942659D01*
X86136957Y-56963992D01*
X86069256Y-56975176D01*
X85968970Y-56978937D01*
X85942285Y-56979038D01*
X85743714Y-56979038D01*
X85743714Y-58280063D01*
X85743686Y-58540198D01*
X85743543Y-58763257D01*
X85743198Y-58952197D01*
X85742562Y-59109972D01*
X85741547Y-59239540D01*
X85740065Y-59343855D01*
X85738028Y-59425874D01*
X85735347Y-59488552D01*
X85731935Y-59534845D01*
X85727702Y-59567709D01*
X85722562Y-59590100D01*
X85716425Y-59604974D01*
X85709205Y-59615287D01*
X85703714Y-59621119D01*
X85645502Y-59654012D01*
X85570835Y-59663320D01*
X85495195Y-59649563D01*
X85434060Y-59613259D01*
X85432804Y-59612020D01*
X85383714Y-59562891D01*
X85383714Y-56979038D01*
X85184848Y-56979038D01*
X85092940Y-56978326D01*
X85032475Y-56975087D01*
X84994901Y-56967668D01*
X84971671Y-56954415D01*
X84954848Y-56934553D01*
X84926454Y-56870929D01*
X84936889Y-56813707D01*
X84963713Y-56778881D01*
X84977305Y-56767077D01*
X84994843Y-56757850D01*
X85021032Y-56750884D01*
X85060577Y-56745863D01*
X85118183Y-56742470D01*
X85198555Y-56740389D01*
X85306398Y-56739304D01*
X85446417Y-56738898D01*
X85559263Y-56738849D01*
X85736802Y-56739162D01*
G37*
G36*
X90383703Y-56745449D02*
G01*
X90442538Y-56777723D01*
X90443714Y-56778881D01*
X90451492Y-56787531D01*
X90458190Y-56798690D01*
X90463890Y-56815220D01*
X90468671Y-56839986D01*
X90472615Y-56875851D01*
X90475801Y-56925679D01*
X90478312Y-56992335D01*
X90480226Y-57078681D01*
X90481625Y-57187582D01*
X90482590Y-57321902D01*
X90483200Y-57484504D01*
X90483537Y-57678252D01*
X90483681Y-57906010D01*
X90483713Y-58170641D01*
X90483714Y-58200000D01*
X90483688Y-58468578D01*
X90483559Y-58699988D01*
X90483246Y-58897094D01*
X90482667Y-59062761D01*
X90481743Y-59199851D01*
X90480392Y-59311229D01*
X90478534Y-59399758D01*
X90476089Y-59468302D01*
X90472975Y-59519726D01*
X90469113Y-59556892D01*
X90464421Y-59582665D01*
X90458820Y-59599909D01*
X90452227Y-59611487D01*
X90444564Y-59620263D01*
X90443714Y-59621119D01*
X90385502Y-59654012D01*
X90310835Y-59663320D01*
X90235195Y-59649563D01*
X90174060Y-59613259D01*
X90172804Y-59612020D01*
X90123714Y-59562891D01*
X90123714Y-56837108D01*
X90172804Y-56787979D01*
X90233356Y-56751097D01*
X90308815Y-56736747D01*
X90383703Y-56745449D01*
G37*
G36*
X92167294Y-56724226D02*
G01*
X92266912Y-56763901D01*
X92344170Y-56831982D01*
X92400667Y-56930516D01*
X92438006Y-57061553D01*
X92457786Y-57227141D01*
X92458656Y-57241902D01*
X92462868Y-57335476D01*
X92462543Y-57398057D01*
X92456742Y-57438521D01*
X92444527Y-57465744D01*
X92433533Y-57479632D01*
X92381121Y-57513609D01*
X92324228Y-57513872D01*
X92279468Y-57484436D01*
X92261233Y-57444959D01*
X92245565Y-57377024D01*
X92236235Y-57304367D01*
X92217429Y-57171358D01*
X92187837Y-57072518D01*
X92148152Y-57009576D01*
X92108660Y-56985988D01*
X92037003Y-56981936D01*
X91976071Y-57011065D01*
X91921445Y-57076159D01*
X91897113Y-57119149D01*
X91865722Y-57186138D01*
X91850118Y-57242091D01*
X91846651Y-57305795D01*
X91849455Y-57364520D01*
X91863323Y-57463936D01*
X91893557Y-57561869D01*
X91943370Y-57664496D01*
X92015978Y-57777996D01*
X92114595Y-57908545D01*
X92164439Y-57969818D01*
X92287835Y-58125822D01*
X92383081Y-58263512D01*
X92453174Y-58389692D01*
X92501111Y-58511164D01*
X92529890Y-58634730D01*
X92542508Y-58767193D01*
X92543714Y-58830496D01*
X92529879Y-59016461D01*
X92490053Y-59189202D01*
X92426750Y-59343754D01*
X92342486Y-59475151D01*
X92239775Y-59578425D01*
X92131677Y-59644098D01*
X92002210Y-59683457D01*
X91870212Y-59691250D01*
X91763714Y-59671639D01*
X91653724Y-59615747D01*
X91558284Y-59525970D01*
X91479508Y-59406473D01*
X91419516Y-59261422D01*
X91380425Y-59094981D01*
X91364352Y-58911315D01*
X91364061Y-58885539D01*
X91371845Y-58778708D01*
X91396389Y-58706906D01*
X91438581Y-58668414D01*
X91480614Y-58660362D01*
X91524537Y-58672916D01*
X91556240Y-58713205D01*
X91577598Y-58785165D01*
X91590328Y-58890543D01*
X91611093Y-59056263D01*
X91647006Y-59189083D01*
X91699611Y-59293748D01*
X91737169Y-59342091D01*
X91788656Y-59392142D01*
X91833485Y-59415772D01*
X91877356Y-59420961D01*
X91950292Y-59412549D01*
X92005706Y-59382419D01*
X92054912Y-59323230D01*
X92072871Y-59294103D01*
X92118834Y-59182431D01*
X92143675Y-59047108D01*
X92147044Y-58898694D01*
X92128589Y-58747751D01*
X92095125Y-58624334D01*
X92040619Y-58509180D01*
X91951400Y-58374396D01*
X91827549Y-58220102D01*
X91792506Y-58179984D01*
X91692163Y-58062952D01*
X91616803Y-57965409D01*
X91561570Y-57880180D01*
X91521609Y-57800094D01*
X91503457Y-57753005D01*
X91460039Y-57581521D01*
X91452906Y-57414375D01*
X91470678Y-57286500D01*
X91512633Y-57135027D01*
X91571512Y-57010512D01*
X91652987Y-56901501D01*
X91670805Y-56882312D01*
X91766556Y-56795393D01*
X91860212Y-56741369D01*
X91962615Y-56715257D01*
X92043714Y-56710906D01*
X92167294Y-56724226D01*
G37*
G36*
X93956920Y-56739181D02*
G01*
X94098621Y-56740663D01*
X94208409Y-56744024D01*
X94290326Y-56749994D01*
X94348415Y-56759303D01*
X94386719Y-56772679D01*
X94409279Y-56790852D01*
X94420137Y-56814551D01*
X94423338Y-56844506D01*
X94423407Y-56855075D01*
X94419876Y-56902479D01*
X94405564Y-56934972D01*
X94373940Y-56955873D01*
X94318472Y-56968501D01*
X94232628Y-56976177D01*
X94179505Y-56979038D01*
X93973714Y-56989046D01*
X93963714Y-58296694D01*
X93961683Y-58557642D01*
X93959812Y-58781478D01*
X93957992Y-58971122D01*
X93956117Y-59129495D01*
X93954080Y-59259516D01*
X93951775Y-59364104D01*
X93949095Y-59446179D01*
X93945933Y-59508660D01*
X93942183Y-59554468D01*
X93937737Y-59586521D01*
X93932490Y-59607740D01*
X93926335Y-59621044D01*
X93919164Y-59629352D01*
X93914891Y-59632746D01*
X93850609Y-59658323D01*
X93772292Y-59660758D01*
X93697516Y-59641442D01*
X93652804Y-59612020D01*
X93603714Y-59562891D01*
X93603714Y-56979038D01*
X93404848Y-56979038D01*
X93312940Y-56978326D01*
X93252475Y-56975087D01*
X93214901Y-56967668D01*
X93191671Y-56954415D01*
X93174848Y-56934553D01*
X93146454Y-56870929D01*
X93156889Y-56813707D01*
X93183714Y-56778881D01*
X93197305Y-56767077D01*
X93214843Y-56757850D01*
X93241032Y-56750884D01*
X93280577Y-56745863D01*
X93338183Y-56742470D01*
X93418555Y-56740389D01*
X93526398Y-56739304D01*
X93666417Y-56738898D01*
X93779263Y-56738849D01*
X93956920Y-56739181D01*
G37*
G36*
X97123729Y-57931550D02*
G01*
X97123832Y-57700265D01*
X97124108Y-57503276D01*
X97124641Y-57337715D01*
X97125517Y-57200715D01*
X97126820Y-57089409D01*
X97128636Y-57000928D01*
X97131049Y-56932404D01*
X97134145Y-56880971D01*
X97138008Y-56843761D01*
X97142723Y-56817905D01*
X97148375Y-56800536D01*
X97155050Y-56788787D01*
X97162832Y-56779789D01*
X97165881Y-56776711D01*
X97184927Y-56760083D01*
X97207746Y-56748774D01*
X97241438Y-56742022D01*
X97293100Y-56739068D01*
X97369832Y-56739153D01*
X97478731Y-56741517D01*
X97491637Y-56741848D01*
X97605053Y-56745202D01*
X97687706Y-56749509D01*
X97748826Y-56756373D01*
X97797646Y-56767401D01*
X97843395Y-56784197D01*
X97895305Y-56808368D01*
X97906921Y-56814072D01*
X98043327Y-56899966D01*
X98158334Y-57013506D01*
X98252758Y-57156314D01*
X98327416Y-57330010D01*
X98383126Y-57536217D01*
X98420703Y-57776554D01*
X98427880Y-57847875D01*
X98439811Y-58116565D01*
X98427240Y-58374248D01*
X98391419Y-58617605D01*
X98333604Y-58843315D01*
X98255047Y-59048060D01*
X98157002Y-59228521D01*
X98040722Y-59381377D01*
X97907461Y-59503309D01*
X97771861Y-59584893D01*
X97703675Y-59614741D01*
X97643570Y-59634355D01*
X97578459Y-59646445D01*
X97495256Y-59653723D01*
X97422386Y-59657275D01*
X97326379Y-59660612D01*
X97261724Y-59660426D01*
X97219843Y-59655587D01*
X97192161Y-59644969D01*
X97170099Y-59627445D01*
X97166181Y-59623588D01*
X97123714Y-59581087D01*
X97123714Y-59400945D01*
X97483401Y-59400945D01*
X97535535Y-59400945D01*
X97589395Y-59392237D01*
X97650509Y-59371035D01*
X97655644Y-59368663D01*
X97706334Y-59333774D01*
X97762147Y-59279570D01*
X97792322Y-59242717D01*
X97876870Y-59098394D01*
X97944906Y-58919534D01*
X97996064Y-58708225D01*
X98029980Y-58466557D01*
X98046287Y-58196616D01*
X98044621Y-57900490D01*
X98041210Y-57819700D01*
X98026270Y-57618985D01*
X98002557Y-57453518D01*
X97969193Y-57319305D01*
X97925298Y-57212348D01*
X97897062Y-57164749D01*
X97822833Y-57075779D01*
X97739464Y-57021434D01*
X97637606Y-56996310D01*
X97601136Y-56993623D01*
X97493714Y-56989046D01*
X97488557Y-58194996D01*
X97483401Y-59400945D01*
X97123714Y-59400945D01*
X97123714Y-58200000D01*
X97123729Y-57931550D01*
G37*
G36*
X88234952Y-56747156D02*
G01*
X88289989Y-56775248D01*
X88323500Y-56827886D01*
X88330449Y-56848936D01*
X88335806Y-56876076D01*
X88346842Y-56938820D01*
X88362906Y-57033248D01*
X88383346Y-57155436D01*
X88407510Y-57301462D01*
X88434748Y-57467405D01*
X88464407Y-57649342D01*
X88495836Y-57843351D01*
X88503103Y-57888376D01*
X88534665Y-58083272D01*
X88564491Y-58265922D01*
X88591950Y-58432567D01*
X88616412Y-58579445D01*
X88637243Y-58702796D01*
X88653814Y-58798859D01*
X88665492Y-58863872D01*
X88671646Y-58894076D01*
X88672255Y-58895755D01*
X88674888Y-58896471D01*
X88678124Y-58891613D01*
X88682538Y-58878239D01*
X88688702Y-58853412D01*
X88697188Y-58814190D01*
X88708570Y-58757636D01*
X88723420Y-58680808D01*
X88742311Y-58580767D01*
X88765816Y-58454575D01*
X88794508Y-58299290D01*
X88828959Y-58111973D01*
X88869743Y-57889686D01*
X88892666Y-57764633D01*
X88927494Y-57576182D01*
X88960812Y-57398932D01*
X88991813Y-57236954D01*
X89019693Y-57094318D01*
X89043647Y-56975095D01*
X89062871Y-56883356D01*
X89076558Y-56823170D01*
X89083600Y-56799109D01*
X89122756Y-56758421D01*
X89174214Y-56743459D01*
X89226008Y-56752090D01*
X89266173Y-56782180D01*
X89282744Y-56831593D01*
X89282736Y-56834628D01*
X89278913Y-56863086D01*
X89268186Y-56927512D01*
X89251170Y-57024557D01*
X89228478Y-57150872D01*
X89200721Y-57303105D01*
X89168513Y-57477908D01*
X89132466Y-57671931D01*
X89093195Y-57881823D01*
X89051310Y-58104235D01*
X89025949Y-58238244D01*
X88974528Y-58509851D01*
X88929993Y-58744802D01*
X88891531Y-58945724D01*
X88858332Y-59115244D01*
X88829582Y-59255989D01*
X88804470Y-59370587D01*
X88782183Y-59461665D01*
X88761909Y-59531849D01*
X88742836Y-59583768D01*
X88724152Y-59620047D01*
X88705045Y-59643315D01*
X88684703Y-59656198D01*
X88662313Y-59661323D01*
X88637063Y-59661318D01*
X88608142Y-59658810D01*
X88587328Y-59657104D01*
X88520002Y-59645961D01*
X88476047Y-59619078D01*
X88459863Y-59600176D01*
X88449243Y-59578522D01*
X88436604Y-59538120D01*
X88421431Y-59476325D01*
X88403210Y-59390492D01*
X88381426Y-59277975D01*
X88355563Y-59136129D01*
X88325109Y-58962308D01*
X88289547Y-58753868D01*
X88254035Y-58542194D01*
X88221217Y-58346485D01*
X88190087Y-58162893D01*
X88161308Y-57995175D01*
X88135540Y-57847090D01*
X88113444Y-57722395D01*
X88095681Y-57624848D01*
X88082913Y-57558207D01*
X88075801Y-57526231D01*
X88074898Y-57523985D01*
X88063619Y-57520248D01*
X88063523Y-57521132D01*
X88060163Y-57541875D01*
X88050581Y-57598367D01*
X88035414Y-57686915D01*
X88015298Y-57803830D01*
X87990869Y-57945419D01*
X87962764Y-58107992D01*
X87931618Y-58287858D01*
X87898070Y-58481326D01*
X87884365Y-58560283D01*
X87843418Y-58796405D01*
X87808583Y-58996162D01*
X87778887Y-59162590D01*
X87753359Y-59298722D01*
X87731025Y-59407593D01*
X87710913Y-59492239D01*
X87692049Y-59555692D01*
X87673462Y-59600988D01*
X87654179Y-59631160D01*
X87633226Y-59649244D01*
X87609633Y-59658274D01*
X87582424Y-59661285D01*
X87550630Y-59661310D01*
X87531498Y-59661150D01*
X87451150Y-59650284D01*
X87405503Y-59622909D01*
X87379732Y-59581607D01*
X87355985Y-59518217D01*
X87345892Y-59477795D01*
X87330926Y-59400777D01*
X87310897Y-59294243D01*
X87286519Y-59162223D01*
X87258505Y-59008750D01*
X87227567Y-58837855D01*
X87194419Y-58653570D01*
X87159773Y-58459927D01*
X87124343Y-58260956D01*
X87088841Y-58060690D01*
X87053980Y-57863160D01*
X87020474Y-57672398D01*
X86989036Y-57492436D01*
X86960377Y-57327304D01*
X86935212Y-57181036D01*
X86914253Y-57057661D01*
X86898213Y-56961213D01*
X86887806Y-56895722D01*
X86883744Y-56865220D01*
X86883714Y-56864313D01*
X86898428Y-56799778D01*
X86943602Y-56758796D01*
X87020777Y-56740249D01*
X87057189Y-56738849D01*
X87135052Y-56746374D01*
X87186837Y-56773678D01*
X87220675Y-56827852D01*
X87241177Y-56899298D01*
X87248594Y-56937047D01*
X87262085Y-57009882D01*
X87280870Y-57113453D01*
X87304172Y-57243405D01*
X87331215Y-57395387D01*
X87361219Y-57565046D01*
X87393408Y-57748028D01*
X87423476Y-57919779D01*
X87456554Y-58108429D01*
X87487849Y-58285521D01*
X87516636Y-58447046D01*
X87542188Y-58588992D01*
X87563780Y-58707350D01*
X87580684Y-58798108D01*
X87592176Y-58857256D01*
X87597425Y-58880535D01*
X87602874Y-58867419D01*
X87614201Y-58818411D01*
X87630735Y-58737111D01*
X87651801Y-58627117D01*
X87676729Y-58492030D01*
X87704843Y-58335449D01*
X87735473Y-58160972D01*
X87767944Y-57972199D01*
X87775153Y-57929787D01*
X87808294Y-57734506D01*
X87839726Y-57549518D01*
X87868752Y-57378916D01*
X87894673Y-57226791D01*
X87916790Y-57097237D01*
X87934407Y-56994344D01*
X87946825Y-56922206D01*
X87953346Y-56884914D01*
X87953723Y-56882847D01*
X87979724Y-56808074D01*
X88027792Y-56762115D01*
X88103151Y-56741153D01*
X88150614Y-56738849D01*
X88234952Y-56747156D01*
G37*
G36*
X95819348Y-56739561D02*
G01*
X95934128Y-56742542D01*
X96018285Y-56749066D01*
X96076501Y-56760401D01*
X96113460Y-56777820D01*
X96133843Y-56802593D01*
X96142334Y-56835992D01*
X96143714Y-56867636D01*
X96136289Y-56919977D01*
X96118330Y-56955148D01*
X96117418Y-56955946D01*
X96087252Y-56965121D01*
X96024476Y-56973239D01*
X95936475Y-56979587D01*
X95832418Y-56983416D01*
X95573714Y-56989046D01*
X95568454Y-57684594D01*
X95563195Y-58380141D01*
X95772026Y-58380141D01*
X95882403Y-58382395D01*
X95958820Y-58390891D01*
X96007152Y-58408232D01*
X96033272Y-58437023D01*
X96043057Y-58479864D01*
X96043714Y-58500531D01*
X96035775Y-58549252D01*
X96008588Y-58583467D01*
X95957098Y-58605300D01*
X95876247Y-58616879D01*
X95760980Y-58620330D01*
X95758841Y-58620331D01*
X95562868Y-58620331D01*
X95573714Y-59410953D01*
X95863714Y-59416086D01*
X95978013Y-59418528D01*
X96059141Y-59421801D01*
X96113923Y-59426897D01*
X96149188Y-59434809D01*
X96171762Y-59446530D01*
X96188474Y-59463052D01*
X96188714Y-59463339D01*
X96218967Y-59514131D01*
X96214726Y-59560042D01*
X96174985Y-59611657D01*
X96174623Y-59612020D01*
X96157450Y-59628335D01*
X96139254Y-59640567D01*
X96114415Y-59649304D01*
X96077307Y-59655135D01*
X96022310Y-59658648D01*
X95943799Y-59660429D01*
X95836152Y-59661067D01*
X95704623Y-59661150D01*
X95563869Y-59660931D01*
X95457587Y-59659954D01*
X95380249Y-59657739D01*
X95326326Y-59653806D01*
X95290291Y-59647674D01*
X95266616Y-59638864D01*
X95249773Y-59626895D01*
X95243714Y-59621119D01*
X95235935Y-59612468D01*
X95229237Y-59601309D01*
X95223537Y-59584779D01*
X95218756Y-59560013D01*
X95214812Y-59524148D01*
X95211626Y-59474320D01*
X95209115Y-59407664D01*
X95207201Y-59321318D01*
X95205802Y-59212417D01*
X95204837Y-59078097D01*
X95204227Y-58915496D01*
X95203890Y-58721748D01*
X95203746Y-58493990D01*
X95203714Y-58229358D01*
X95203714Y-58200000D01*
X95203739Y-57931422D01*
X95203868Y-57700011D01*
X95204181Y-57502905D01*
X95204760Y-57337238D01*
X95205684Y-57200148D01*
X95207035Y-57088770D01*
X95208893Y-57000241D01*
X95211338Y-56931697D01*
X95214452Y-56880273D01*
X95218314Y-56843107D01*
X95223006Y-56817334D01*
X95228607Y-56800090D01*
X95235200Y-56788512D01*
X95242863Y-56779736D01*
X95243714Y-56778881D01*
X95260100Y-56764981D01*
X95281364Y-56754722D01*
X95313330Y-56747555D01*
X95361823Y-56742932D01*
X95432666Y-56740305D01*
X95531686Y-56739127D01*
X95664705Y-56738849D01*
X95669263Y-56738849D01*
X95819348Y-56739561D01*
G37*
G36*
X108541372Y-64655454D02*
G01*
X108735181Y-64663383D01*
X108908540Y-64676487D01*
X109007302Y-64688083D01*
X109467013Y-64772187D01*
X109912125Y-64892903D01*
X110341237Y-65049629D01*
X110752949Y-65241760D01*
X111145861Y-65468696D01*
X111518572Y-65729832D01*
X111627302Y-65815616D01*
X111736838Y-65908958D01*
X111860457Y-66021851D01*
X111990271Y-66146434D01*
X112118390Y-66274850D01*
X112236924Y-66399240D01*
X112337984Y-66511746D01*
X112394880Y-66580198D01*
X112497052Y-66709143D01*
X112452177Y-66757168D01*
X112414392Y-66792033D01*
X112353268Y-66842600D01*
X112278217Y-66901589D01*
X112198655Y-66961725D01*
X112123996Y-67015730D01*
X112072302Y-67050811D01*
X112034602Y-67072408D01*
X112019438Y-67070551D01*
X112017302Y-67056243D01*
X112002968Y-67034006D01*
X111962695Y-66989173D01*
X111900576Y-66925588D01*
X111820703Y-66847096D01*
X111727170Y-66757544D01*
X111624070Y-66660776D01*
X111515495Y-66560638D01*
X111405538Y-66460975D01*
X111298293Y-66365632D01*
X111197851Y-66278454D01*
X111117302Y-66210689D01*
X110868714Y-66017630D01*
X110609984Y-65839141D01*
X110347856Y-65679133D01*
X110089078Y-65541514D01*
X109840395Y-65430194D01*
X109654894Y-65363221D01*
X109413495Y-65296522D01*
X109144635Y-65240084D01*
X108867302Y-65197305D01*
X108776655Y-65188831D01*
X108657379Y-65182250D01*
X108517664Y-65177582D01*
X108365703Y-65174850D01*
X108209687Y-65174075D01*
X108057809Y-65175278D01*
X107918260Y-65178481D01*
X107799232Y-65183706D01*
X107708917Y-65190974D01*
X107684342Y-65194196D01*
X107561382Y-65213100D01*
X107538503Y-65101601D01*
X107525848Y-65026097D01*
X107513587Y-64929842D01*
X107504130Y-64832066D01*
X107503212Y-64819968D01*
X107497820Y-64738349D01*
X107496929Y-64690212D01*
X107501468Y-64669169D01*
X107512366Y-64668831D01*
X107523985Y-64677251D01*
X107544137Y-64688581D01*
X107575063Y-64694097D01*
X107624180Y-64693806D01*
X107698904Y-64687713D01*
X107792236Y-64677501D01*
X107952546Y-64663724D01*
X108138526Y-64655524D01*
X108338644Y-64652800D01*
X108541372Y-64655454D01*
G37*
G36*
X109314288Y-63772835D02*
G01*
X109324604Y-63780602D01*
X109368883Y-63836405D01*
X109375987Y-63901052D01*
X109346064Y-63968977D01*
X109318840Y-64000862D01*
X109258816Y-64046858D01*
X109202953Y-64055537D01*
X109143015Y-64027642D01*
X109129999Y-64017885D01*
X109086601Y-63962349D01*
X109080234Y-63896368D01*
X109110917Y-63824684D01*
X109129079Y-63800700D01*
X109187394Y-63751749D01*
X109248235Y-63742553D01*
X109314288Y-63772835D01*
G37*
G36*
X113329824Y-65350565D02*
G01*
X113314553Y-65401015D01*
X113289865Y-65472493D01*
X113258729Y-65557028D01*
X113224114Y-65646653D01*
X113188988Y-65733398D01*
X113156320Y-65809294D01*
X113143175Y-65837865D01*
X113104833Y-65913780D01*
X113077240Y-65955512D01*
X113057793Y-65966612D01*
X113051396Y-65962963D01*
X113015180Y-65945515D01*
X112980834Y-65940851D01*
X112931186Y-65948414D01*
X112854332Y-65968892D01*
X112759635Y-65998973D01*
X112656455Y-66035341D01*
X112554153Y-66074685D01*
X112462089Y-66113690D01*
X112389624Y-66149041D01*
X112384052Y-66152116D01*
X112322404Y-66186042D01*
X112276056Y-66210486D01*
X112254412Y-66220500D01*
X112254052Y-66220532D01*
X112238294Y-66206971D01*
X112199480Y-66170021D01*
X112142756Y-66114680D01*
X112073272Y-66045943D01*
X112040559Y-66013319D01*
X111833817Y-65806647D01*
X112003808Y-65723532D01*
X112374760Y-65564183D01*
X112763139Y-65440477D01*
X113126905Y-65359612D01*
X113211016Y-65345089D01*
X113278871Y-65334501D01*
X113321920Y-65329114D01*
X113332709Y-65329111D01*
X113329824Y-65350565D01*
G37*
G36*
X108409674Y-65310620D02*
G01*
X108552516Y-65311652D01*
X108668281Y-65313805D01*
X108763430Y-65317430D01*
X108844422Y-65322883D01*
X108917718Y-65330516D01*
X108989779Y-65340683D01*
X109067064Y-65353737D01*
X109084927Y-65356944D01*
X109403170Y-65426157D01*
X109700461Y-65516232D01*
X109984254Y-65630506D01*
X110261998Y-65772316D01*
X110541147Y-65945000D01*
X110784427Y-66118047D01*
X110892395Y-66199830D01*
X110988877Y-66275006D01*
X111079967Y-66348795D01*
X111171759Y-66426414D01*
X111270348Y-66513081D01*
X111381829Y-66614015D01*
X111512296Y-66734432D01*
X111602402Y-66818372D01*
X111937503Y-67131272D01*
X111763871Y-67218589D01*
X111469671Y-67344609D01*
X111155404Y-67437461D01*
X110824744Y-67496196D01*
X110617302Y-67514823D01*
X110407302Y-67526929D01*
X110367302Y-67450549D01*
X110327871Y-67392431D01*
X110263005Y-67316197D01*
X110179022Y-67228070D01*
X110082243Y-67134275D01*
X109978989Y-67041037D01*
X109875578Y-66954579D01*
X109819764Y-66911301D01*
X109668252Y-66808341D01*
X109495706Y-66708835D01*
X109315397Y-66619508D01*
X109140599Y-66547088D01*
X109027302Y-66509675D01*
X108915816Y-66483953D01*
X108785638Y-66463765D01*
X108647784Y-66449886D01*
X108513274Y-66443091D01*
X108393124Y-66444154D01*
X108298354Y-66453852D01*
X108281903Y-66457245D01*
X108196505Y-66477200D01*
X108110062Y-66364148D01*
X108036567Y-66265273D01*
X107978896Y-66182050D01*
X107939740Y-66118708D01*
X107921794Y-66079473D01*
X107922271Y-66069316D01*
X107945520Y-66061566D01*
X107999027Y-66049684D01*
X108073512Y-66035622D01*
X108120198Y-66027644D01*
X108264268Y-66011665D01*
X108433530Y-66005290D01*
X108614459Y-66008076D01*
X108793527Y-66019580D01*
X108957208Y-66039358D01*
X109057302Y-66058328D01*
X109351049Y-66143826D01*
X109637774Y-66264290D01*
X109920439Y-66421226D01*
X110202011Y-66616139D01*
X110287302Y-66682715D01*
X110350687Y-66736194D01*
X110435259Y-66811512D01*
X110533954Y-66902162D01*
X110639712Y-67001640D01*
X110745471Y-67103440D01*
X110769463Y-67126900D01*
X110884890Y-67238851D01*
X110975662Y-67323393D01*
X111044531Y-67382274D01*
X111094254Y-67417238D01*
X111127585Y-67430033D01*
X111147279Y-67422404D01*
X111156091Y-67396097D01*
X111157302Y-67372701D01*
X111143114Y-67344550D01*
X111103434Y-67294009D01*
X111042588Y-67225369D01*
X110964899Y-67142925D01*
X110874692Y-67050970D01*
X110776293Y-66953799D01*
X110674026Y-66855703D01*
X110572217Y-66760978D01*
X110475189Y-66673916D01*
X110387267Y-66598811D01*
X110337302Y-66558634D01*
X110050034Y-66352951D01*
X109765190Y-66185733D01*
X109479604Y-66055807D01*
X109190108Y-65961999D01*
X108893535Y-65903137D01*
X108586718Y-65878045D01*
X108497302Y-65876914D01*
X108360515Y-65880454D01*
X108222799Y-65889828D01*
X108093525Y-65903938D01*
X107982067Y-65921684D01*
X107897795Y-65941968D01*
X107875607Y-65949805D01*
X107856479Y-65947748D01*
X107833615Y-65923352D01*
X107803538Y-65871602D01*
X107762768Y-65787486D01*
X107762358Y-65786601D01*
X107699754Y-65645247D01*
X107652896Y-65526043D01*
X107622792Y-65432137D01*
X107610447Y-65366675D01*
X107616869Y-65332805D01*
X107617127Y-65332539D01*
X107641874Y-65325257D01*
X107700859Y-65319472D01*
X107795309Y-65315140D01*
X107926448Y-65312216D01*
X108095504Y-65310658D01*
X108233294Y-65310355D01*
X108409674Y-65310620D01*
G37*
G36*
X113008115Y-66065217D02*
G01*
X113008953Y-66065934D01*
X113003890Y-66087077D01*
X112978465Y-66132487D01*
X112937519Y-66195343D01*
X112885889Y-66268823D01*
X112828416Y-66346108D01*
X112769939Y-66420375D01*
X112715296Y-66484805D01*
X112699451Y-66502188D01*
X112587302Y-66622440D01*
X112481270Y-66490758D01*
X112431374Y-66427295D01*
X112391517Y-66373813D01*
X112368343Y-66339323D01*
X112365537Y-66333773D01*
X112378095Y-66314350D01*
X112421384Y-66285266D01*
X112488187Y-66249523D01*
X112571289Y-66210127D01*
X112663475Y-66170080D01*
X112757529Y-66132387D01*
X112846235Y-66100050D01*
X112922378Y-66076074D01*
X112978744Y-66063461D01*
X113008115Y-66065217D01*
G37*
G36*
X110687302Y-61580119D02*
G01*
X111022274Y-61621892D01*
X111347476Y-61701848D01*
X111660275Y-61818779D01*
X111958039Y-61971478D01*
X112238137Y-62158740D01*
X112497935Y-62379356D01*
X112557302Y-62437463D01*
X112734353Y-62627613D01*
X112883383Y-62815810D01*
X113013651Y-63014608D01*
X113106909Y-63182635D01*
X113164038Y-63301464D01*
X113221061Y-63435726D01*
X113274032Y-63574650D01*
X113319006Y-63707465D01*
X113352034Y-63823402D01*
X113366168Y-63890166D01*
X113379442Y-63971160D01*
X113083372Y-63996293D01*
X112974159Y-64006002D01*
X112875212Y-64015605D01*
X112795280Y-64024196D01*
X112743111Y-64030864D01*
X112732302Y-64032723D01*
X112697333Y-64037168D01*
X112681596Y-64024637D01*
X112677438Y-63985378D01*
X112677302Y-63962643D01*
X112682436Y-63905893D01*
X112704239Y-63865787D01*
X112748480Y-63826931D01*
X112822669Y-63754456D01*
X112863871Y-63670922D01*
X112877268Y-63565549D01*
X112877302Y-63558976D01*
X112861724Y-63448221D01*
X112819081Y-63356911D01*
X112755511Y-63287978D01*
X112677149Y-63244351D01*
X112590134Y-63228961D01*
X112500602Y-63244739D01*
X112414690Y-63294616D01*
X112383999Y-63323404D01*
X112325210Y-63393171D01*
X112292484Y-63457119D01*
X112278998Y-63532214D01*
X112277301Y-63588677D01*
X112288825Y-63704556D01*
X112325050Y-63790731D01*
X112388454Y-63850786D01*
X112481517Y-63888305D01*
X112485267Y-63889236D01*
X112537764Y-63905316D01*
X112562736Y-63927622D01*
X112572166Y-63968671D01*
X112573327Y-63981253D01*
X112579352Y-64053255D01*
X112343327Y-64108755D01*
X112245086Y-64133815D01*
X112126366Y-64167106D01*
X111997050Y-64205548D01*
X111867021Y-64246064D01*
X111746165Y-64285574D01*
X111644364Y-64321000D01*
X111572302Y-64348920D01*
X111549834Y-64352964D01*
X111539665Y-64333756D01*
X111537302Y-64283758D01*
X111539564Y-64244657D01*
X111549788Y-64211348D01*
X111573132Y-64177601D01*
X111614753Y-64137183D01*
X111679809Y-64083863D01*
X111743943Y-64034071D01*
X111811447Y-63959354D01*
X111845991Y-63869148D01*
X111847696Y-63770469D01*
X111816682Y-63670332D01*
X111753070Y-63575753D01*
X111735750Y-63557423D01*
X111642307Y-63489462D01*
X111531996Y-63456655D01*
X111402952Y-63458515D01*
X111373843Y-63463165D01*
X111270259Y-63488554D01*
X111191852Y-63525868D01*
X111124017Y-63582875D01*
X111100270Y-63608689D01*
X111049664Y-63693227D01*
X111034630Y-63785034D01*
X111053231Y-63877474D01*
X111103530Y-63963911D01*
X111183590Y-64037707D01*
X111234308Y-64067859D01*
X111301884Y-64105036D01*
X111346160Y-64140891D01*
X111377111Y-64187506D01*
X111404710Y-64256961D01*
X111414507Y-64286116D01*
X111451544Y-64398470D01*
X111269423Y-64487973D01*
X110926887Y-64673512D01*
X110637223Y-64863330D01*
X110487144Y-64971282D01*
X110227302Y-64862946D01*
X110221449Y-64745302D01*
X110215596Y-64627659D01*
X110315202Y-64563066D01*
X110413487Y-64483920D01*
X110475247Y-64395361D01*
X110503768Y-64291832D01*
X110506635Y-64239511D01*
X110489731Y-64122234D01*
X110442193Y-64027097D01*
X110368784Y-63957832D01*
X110274266Y-63918171D01*
X110163402Y-63911848D01*
X110102285Y-63922615D01*
X110009336Y-63965763D01*
X109936729Y-64040840D01*
X109888482Y-64143230D01*
X109879297Y-64178871D01*
X109860778Y-64301221D01*
X109865662Y-64395416D01*
X109895724Y-64466974D01*
X109952737Y-64521415D01*
X109997529Y-64546689D01*
X110049286Y-64573705D01*
X110077445Y-64600036D01*
X110091207Y-64639556D01*
X110099102Y-64699874D01*
X110105243Y-64760783D01*
X110108690Y-64802261D01*
X110108926Y-64813472D01*
X110090249Y-64809413D01*
X110040913Y-64795757D01*
X109968493Y-64774664D01*
X109883555Y-64749202D01*
X109772280Y-64717032D01*
X109653386Y-64685245D01*
X109544274Y-64658384D01*
X109488731Y-64646106D01*
X109317302Y-64610792D01*
X109317302Y-64454532D01*
X109324379Y-64328648D01*
X109348359Y-64229144D01*
X109393363Y-64144469D01*
X109453278Y-64073408D01*
X109498401Y-64021911D01*
X109519941Y-63977868D01*
X109525540Y-63923713D01*
X109525371Y-63907749D01*
X109506848Y-63819846D01*
X109460257Y-63740409D01*
X109393214Y-63674199D01*
X109313335Y-63625976D01*
X109228238Y-63600498D01*
X109145537Y-63602525D01*
X109081484Y-63630353D01*
X109021705Y-63694670D01*
X108979462Y-63786852D01*
X108958739Y-63897096D01*
X108957302Y-63935778D01*
X108967887Y-64037844D01*
X109002058Y-64111542D01*
X109063439Y-64163195D01*
X109096878Y-64179289D01*
X109127869Y-64194480D01*
X109149247Y-64214789D01*
X109163736Y-64247964D01*
X109174062Y-64301751D01*
X109182948Y-64383900D01*
X109187653Y-64437441D01*
X109200270Y-64585331D01*
X109093786Y-64570855D01*
X108932057Y-64551221D01*
X108768234Y-64535527D01*
X108615692Y-64524870D01*
X108487807Y-64520346D01*
X108477266Y-64520274D01*
X108327230Y-64519732D01*
X108316640Y-64166124D01*
X108430431Y-64107743D01*
X108532951Y-64036516D01*
X108600602Y-63945732D01*
X108633647Y-63834966D01*
X108637302Y-63776943D01*
X108626949Y-63674000D01*
X108593646Y-63598603D01*
X108534019Y-63543390D01*
X108528867Y-63540149D01*
X108421914Y-63495405D01*
X108312404Y-63486727D01*
X108206068Y-63511015D01*
X108108639Y-63565173D01*
X108025848Y-63646103D01*
X107963429Y-63750707D01*
X107929090Y-63864264D01*
X107928830Y-63958591D01*
X107965196Y-64037128D01*
X108038282Y-64099993D01*
X108148181Y-64147305D01*
X108152255Y-64148548D01*
X108178133Y-64160660D01*
X108195981Y-64183471D01*
X108208084Y-64224453D01*
X108216725Y-64291078D01*
X108223615Y-64381944D01*
X108232265Y-64514369D01*
X108049783Y-64527696D01*
X107901809Y-64539940D01*
X107771419Y-64553545D01*
X107663212Y-64567830D01*
X107581786Y-64582116D01*
X107531739Y-64595723D01*
X107517302Y-64606417D01*
X107508265Y-64616406D01*
X107498218Y-64608719D01*
X107491306Y-64580565D01*
X107489455Y-64520634D01*
X107492068Y-64436779D01*
X107498552Y-64336853D01*
X107508311Y-64228708D01*
X107520749Y-64120197D01*
X107535273Y-64019172D01*
X107548345Y-63947302D01*
X107634351Y-63619731D01*
X107753457Y-63312719D01*
X107906984Y-63023839D01*
X108096255Y-62750664D01*
X108322593Y-62490766D01*
X108365891Y-62446689D01*
X108627881Y-62210910D01*
X108905800Y-62011817D01*
X109199155Y-61849594D01*
X109507456Y-61724424D01*
X109830211Y-61636492D01*
X110166929Y-61585980D01*
X110517118Y-61573072D01*
X110687302Y-61580119D01*
G37*
G36*
X112704075Y-63401352D02*
G01*
X112715767Y-63410637D01*
X112757613Y-63454240D01*
X112774858Y-63502412D01*
X112777302Y-63546973D01*
X112760437Y-63635201D01*
X112711442Y-63701262D01*
X112632714Y-63743198D01*
X112526653Y-63759050D01*
X112517451Y-63759133D01*
X112454654Y-63750800D01*
X112410447Y-63720190D01*
X112398753Y-63706394D01*
X112362684Y-63632487D01*
X112366209Y-63552971D01*
X112402902Y-63477160D01*
X112470353Y-63403582D01*
X112546569Y-63365669D01*
X112626244Y-63364550D01*
X112704075Y-63401352D01*
G37*
G36*
X108677330Y-66573061D02*
G01*
X108846990Y-66600295D01*
X109018952Y-66642296D01*
X109182483Y-66697235D01*
X109218883Y-66711974D01*
X109413451Y-66807092D01*
X109615943Y-66930471D01*
X109815756Y-67074897D01*
X110002285Y-67233153D01*
X110047414Y-67275787D01*
X110096599Y-67325545D01*
X110147551Y-67380561D01*
X110194598Y-67434155D01*
X110232069Y-67479646D01*
X110254292Y-67510352D01*
X110255594Y-67519594D01*
X110253663Y-67518731D01*
X110231643Y-67514973D01*
X110184529Y-67509724D01*
X110167302Y-67508093D01*
X109963839Y-67479231D01*
X109742657Y-67429762D01*
X109517691Y-67363546D01*
X109302879Y-67284447D01*
X109202470Y-67240734D01*
X109063261Y-67169151D01*
X108911378Y-67078722D01*
X108756187Y-66976026D01*
X108607059Y-66867647D01*
X108473362Y-66760165D01*
X108364463Y-66660163D01*
X108340255Y-66635006D01*
X108293208Y-66584423D01*
X108387846Y-66570220D01*
X108520705Y-66562426D01*
X108677330Y-66573061D01*
G37*
G36*
X113424431Y-64236258D02*
G01*
X113431455Y-64331697D01*
X113436087Y-64434815D01*
X113437159Y-64494712D01*
X113437302Y-64619811D01*
X113238326Y-64619811D01*
X112963054Y-64633326D01*
X112673390Y-64672236D01*
X112377697Y-64734085D01*
X112084338Y-64816417D01*
X111801678Y-64916776D01*
X111538080Y-65032708D01*
X111301908Y-65161757D01*
X111225535Y-65210734D01*
X111163547Y-65249060D01*
X111113869Y-65273734D01*
X111085734Y-65280304D01*
X111083633Y-65279186D01*
X111060526Y-65264298D01*
X111009242Y-65235083D01*
X110937126Y-65195621D01*
X110851523Y-65149991D01*
X110842410Y-65145196D01*
X110617518Y-65027026D01*
X110822410Y-64891641D01*
X111172501Y-64683671D01*
X111546874Y-64505556D01*
X111941926Y-64358448D01*
X112354055Y-64243499D01*
X112779659Y-64161863D01*
X113215135Y-64114691D01*
X113259573Y-64111885D01*
X113411844Y-64102901D01*
X113424431Y-64236258D01*
G37*
G36*
X110297412Y-64069558D02*
G01*
X110359899Y-64100825D01*
X110391873Y-64155014D01*
X110397302Y-64201459D01*
X110381103Y-64292643D01*
X110337412Y-64369178D01*
X110273585Y-64425079D01*
X110196981Y-64454362D01*
X110114957Y-64451042D01*
X110097302Y-64445485D01*
X110038358Y-64410677D01*
X110006552Y-64355545D01*
X109997302Y-64275125D01*
X110007181Y-64178188D01*
X110035222Y-64106582D01*
X110065296Y-64074688D01*
X110096239Y-64066586D01*
X110152977Y-64061115D01*
X110202302Y-64059676D01*
X110297412Y-64069558D01*
G37*
G36*
X108403343Y-63622718D02*
G01*
X108473869Y-63655434D01*
X108488211Y-63668152D01*
X108528778Y-63732434D01*
X108533517Y-63802580D01*
X108504760Y-63872465D01*
X108444843Y-63935962D01*
X108368873Y-63981382D01*
X108265437Y-64013550D01*
X108175583Y-64010756D01*
X108157302Y-64005138D01*
X108092677Y-63964583D01*
X108062050Y-63905533D01*
X108066467Y-63832185D01*
X108097193Y-63763954D01*
X108158520Y-63692440D01*
X108236260Y-63643526D01*
X108321004Y-63619517D01*
X108403343Y-63622718D01*
G37*
G36*
X113427049Y-64834980D02*
G01*
X113417482Y-64900245D01*
X113403466Y-64988329D01*
X113387656Y-65082658D01*
X113383799Y-65104907D01*
X113368878Y-65187455D01*
X113357705Y-65236271D01*
X113347549Y-65257128D01*
X113335679Y-65255797D01*
X113320276Y-65239175D01*
X113287302Y-65198590D01*
X113067302Y-65240638D01*
X112680582Y-65330924D01*
X112313901Y-65449629D01*
X111972428Y-65595020D01*
X111896222Y-65632963D01*
X111821931Y-65670528D01*
X111761944Y-65699874D01*
X111724455Y-65717045D01*
X111716222Y-65719864D01*
X111697111Y-65707478D01*
X111658957Y-65677047D01*
X111637302Y-65658704D01*
X111589387Y-65620459D01*
X111519856Y-65568716D01*
X111440427Y-65512098D01*
X111402302Y-65485774D01*
X111332734Y-65437102D01*
X111277656Y-65396277D01*
X111244153Y-65368683D01*
X111237302Y-65360354D01*
X111254235Y-65343502D01*
X111300723Y-65312843D01*
X111370300Y-65271970D01*
X111456499Y-65224483D01*
X111552854Y-65173975D01*
X111652900Y-65124045D01*
X111717302Y-65093391D01*
X111996805Y-64979215D01*
X112299465Y-64884271D01*
X112613651Y-64811156D01*
X112927734Y-64762466D01*
X113230083Y-64740797D01*
X113300646Y-64739905D01*
X113439752Y-64739905D01*
X113427049Y-64834980D01*
G37*
G36*
X111535700Y-63603752D02*
G01*
X111613288Y-63636179D01*
X111679877Y-63701671D01*
X111710446Y-63772443D01*
X111707349Y-63842480D01*
X111672941Y-63905763D01*
X111609576Y-63956276D01*
X111519608Y-63988002D01*
X111473131Y-63994386D01*
X111400602Y-63996012D01*
X111347794Y-63983825D01*
X111299140Y-63956070D01*
X111243185Y-63910685D01*
X111195294Y-63860751D01*
X111190235Y-63854208D01*
X111149491Y-63799165D01*
X111190168Y-63744121D01*
X111261475Y-63673650D01*
X111349596Y-63625039D01*
X111444386Y-63600877D01*
X111535700Y-63603752D01*
G37*
X89350000Y-62150000D02*
X89350000Y-65450000D01*
X89350000Y-65450000D02*
X93350000Y-65450000D01*
X104402000Y-73676000D02*
X103802000Y-73676000D01*
X104402000Y-72736000D02*
X104402000Y-71136000D01*
X103802000Y-85436000D02*
X104402000Y-85436000D01*
X103802000Y-75276000D02*
X104402000Y-75276000D01*
X104402000Y-77816000D02*
X104402000Y-76216000D01*
X104832000Y-86306000D02*
X108832000Y-86306000D01*
X104402000Y-71136000D02*
X103802000Y-71136000D01*
X104402000Y-81296000D02*
X103802000Y-81296000D01*
X109822000Y-86016000D02*
X109822000Y-70556000D01*
X109822000Y-84386000D02*
X108822000Y-84386000D01*
X109822000Y-70556000D02*
X103802000Y-70556000D01*
X108822000Y-84636000D02*
X108822000Y-71936000D01*
X108822000Y-84636000D02*
X108292000Y-84386000D01*
X103802000Y-77816000D02*
X104402000Y-77816000D01*
X104402000Y-75276000D02*
X104402000Y-73676000D01*
X104402000Y-85436000D02*
X104402000Y-83836000D01*
X109822000Y-84636000D02*
X108822000Y-84636000D01*
X104402000Y-82896000D02*
X104402000Y-81296000D01*
X103802000Y-82896000D02*
X104402000Y-82896000D01*
X103802000Y-72736000D02*
X104402000Y-72736000D01*
X104402000Y-83836000D02*
X103802000Y-83836000D01*
X103802000Y-80356000D02*
X104402000Y-80356000D01*
X108292000Y-72186000D02*
X108822000Y-71936000D01*
X108292000Y-84386000D02*
X108292000Y-72186000D01*
X103802000Y-70556000D02*
X103802000Y-86016000D01*
X103802000Y-86016000D02*
X109822000Y-86016000D01*
X104402000Y-80356000D02*
X104402000Y-78756000D01*
X104402000Y-78756000D02*
X103802000Y-78756000D01*
X108822000Y-71936000D02*
X109822000Y-71936000D01*
X109822000Y-72186000D02*
X108822000Y-72186000D01*
X104402000Y-76216000D02*
X103802000Y-76216000D01*
D12*
X120350000Y-60000000D02*
G75*
G03*
X120350000Y-60000000I-3350000J0D01*
G01*
X98500000Y-61750000D02*
X102700000Y-61750000D01*
X102700000Y-64150000D02*
X98500000Y-64150000D01*
X102700000Y-61750000D02*
X102700000Y-64150000D01*
X98500000Y-64150000D02*
X98500000Y-61750000D01*
D13*
X77570000Y-57250000D02*
X76970000Y-57250000D01*
X77570000Y-71550000D02*
X77570000Y-69950000D01*
X77570000Y-63930000D02*
X77570000Y-62330000D01*
X76970000Y-61390000D02*
X77570000Y-61390000D01*
X81460000Y-58300000D02*
X81990000Y-58050000D01*
X81990000Y-70750000D02*
X81990000Y-58050000D01*
X76970000Y-71550000D02*
X77570000Y-71550000D01*
X76970000Y-63930000D02*
X77570000Y-63930000D01*
X77570000Y-66470000D02*
X77570000Y-64870000D01*
X76970000Y-66470000D02*
X77570000Y-66470000D01*
X82990000Y-72130000D02*
X82990000Y-56670000D01*
X77570000Y-58850000D02*
X77570000Y-57250000D01*
X77570000Y-69950000D02*
X76970000Y-69950000D01*
X81460000Y-70500000D02*
X81460000Y-58300000D01*
X77570000Y-59790000D02*
X76970000Y-59790000D01*
X82990000Y-70500000D02*
X81990000Y-70500000D01*
X82990000Y-70750000D02*
X81990000Y-70750000D01*
X77570000Y-62330000D02*
X76970000Y-62330000D01*
X76970000Y-69010000D02*
X77570000Y-69010000D01*
X76970000Y-56670000D02*
X76970000Y-72130000D01*
X77570000Y-69010000D02*
X77570000Y-67410000D01*
X76970000Y-72130000D02*
X82990000Y-72130000D01*
X77570000Y-64870000D02*
X76970000Y-64870000D01*
X82990000Y-56670000D02*
X76970000Y-56670000D01*
X77570000Y-61390000D02*
X77570000Y-59790000D01*
X82990000Y-58300000D02*
X81990000Y-58300000D01*
X81990000Y-70750000D02*
X81460000Y-70500000D01*
X78000000Y-72420000D02*
X82000000Y-72420000D01*
X81990000Y-58050000D02*
X82990000Y-58050000D01*
X77570000Y-67410000D02*
X76970000Y-67410000D01*
X76970000Y-58850000D02*
X77570000Y-58850000D01*
X98122000Y-101645000D02*
X98122000Y-101375000D01*
X99622000Y-101645000D02*
X98122000Y-101645000D01*
X99622000Y-94745000D02*
X98122000Y-94745000D01*
X98122000Y-101375000D02*
X97022000Y-101375000D01*
X98122000Y-94745000D02*
X98122000Y-95015000D01*
X98122000Y-95015000D02*
X95292000Y-95015000D01*
X91230000Y-99470000D02*
X91230000Y-97550000D01*
X91230000Y-103185000D02*
X82070000Y-103185000D01*
X82070000Y-103185000D02*
X82070000Y-101480000D01*
X82070000Y-97550000D02*
X82070000Y-99470000D01*
X91230000Y-101480000D02*
X91230000Y-103185000D01*
G36*
X113598679Y-77357038D02*
G01*
X113603133Y-77360372D01*
X113612621Y-77362436D01*
X113632158Y-77362436D01*
X113700279Y-77382438D01*
X113704733Y-77385772D01*
X113727456Y-77390715D01*
X113726898Y-77393280D01*
X113776479Y-77407838D01*
X113781996Y-77411968D01*
X113830700Y-77436347D01*
X113854456Y-77441515D01*
X113853898Y-77444080D01*
X113903479Y-77458638D01*
X113914957Y-77467231D01*
X113957507Y-77488530D01*
X113988053Y-77514998D01*
X114038932Y-77540466D01*
X114042896Y-77543900D01*
X114084507Y-77564730D01*
X114119093Y-77594699D01*
X114160707Y-77615529D01*
X114183852Y-77635584D01*
X114188769Y-77643236D01*
X114220695Y-77670900D01*
X114262307Y-77691729D01*
X114285452Y-77711784D01*
X114290369Y-77719436D01*
X114322295Y-77747100D01*
X114363907Y-77767929D01*
X114387052Y-77787984D01*
X114391970Y-77795638D01*
X114412451Y-77813384D01*
X114417368Y-77821036D01*
X114437851Y-77838784D01*
X114442768Y-77846436D01*
X114463251Y-77864184D01*
X114468168Y-77871836D01*
X114488651Y-77889584D01*
X114493567Y-77897234D01*
X114519338Y-77919565D01*
X114527021Y-77921236D01*
X114546158Y-77921236D01*
X114565946Y-77915426D01*
X114583421Y-77895258D01*
X114591073Y-77890341D01*
X114608821Y-77869858D01*
X114616473Y-77864941D01*
X114634221Y-77844458D01*
X114641873Y-77839541D01*
X114659621Y-77819058D01*
X114667273Y-77814141D01*
X114685021Y-77793658D01*
X114692672Y-77788742D01*
X114701754Y-77778260D01*
X114761479Y-77739877D01*
X114769146Y-77737626D01*
X114786621Y-77717458D01*
X114794273Y-77712541D01*
X114812021Y-77692058D01*
X114819672Y-77687142D01*
X114828754Y-77676660D01*
X114888479Y-77638277D01*
X114896145Y-77636026D01*
X114904954Y-77625860D01*
X114964679Y-77587477D01*
X114972345Y-77585226D01*
X114981154Y-77575060D01*
X115040879Y-77536677D01*
X115048545Y-77534426D01*
X115057354Y-77524260D01*
X115117079Y-77485877D01*
X115137843Y-77479780D01*
X115167879Y-77460477D01*
X115199639Y-77451151D01*
X115211168Y-77443741D01*
X115217838Y-77442782D01*
X115264843Y-77428980D01*
X115294879Y-77409677D01*
X115326639Y-77400351D01*
X115338168Y-77392941D01*
X115344838Y-77391982D01*
X115402838Y-77374952D01*
X115414368Y-77367541D01*
X115449871Y-77362436D01*
X115460558Y-77362436D01*
X115504438Y-77349552D01*
X115515968Y-77342141D01*
X115551471Y-77337036D01*
X115918158Y-77337036D01*
X115986279Y-77357038D01*
X115990733Y-77360372D01*
X116000221Y-77362436D01*
X116045158Y-77362436D01*
X116113279Y-77382438D01*
X116117733Y-77385772D01*
X116140456Y-77390715D01*
X116139898Y-77393280D01*
X116189479Y-77407838D01*
X116193933Y-77411172D01*
X116216656Y-77416115D01*
X116216098Y-77418680D01*
X116265679Y-77433238D01*
X116271196Y-77437368D01*
X116319904Y-77461749D01*
X116320004Y-77461771D01*
X116370704Y-77487149D01*
X116370804Y-77487171D01*
X116421504Y-77512549D01*
X116421604Y-77512571D01*
X116477332Y-77540466D01*
X116481295Y-77543900D01*
X116522907Y-77564729D01*
X116546052Y-77584784D01*
X116550970Y-77592438D01*
X116571451Y-77610184D01*
X116576368Y-77617836D01*
X116596851Y-77635584D01*
X116601769Y-77643236D01*
X116646316Y-77681837D01*
X116656151Y-77697141D01*
X116673051Y-77711784D01*
X116677968Y-77719436D01*
X116698451Y-77737184D01*
X116703368Y-77744836D01*
X116723851Y-77762584D01*
X116728767Y-77770235D01*
X116739249Y-77779317D01*
X116777632Y-77839042D01*
X116779883Y-77846708D01*
X116790049Y-77855517D01*
X116828432Y-77915242D01*
X116834529Y-77936006D01*
X116853832Y-77966042D01*
X116859929Y-77986806D01*
X116879232Y-78016842D01*
X116885329Y-78037606D01*
X116904632Y-78067642D01*
X116913958Y-78099402D01*
X116921368Y-78110931D01*
X116922327Y-78117601D01*
X116939357Y-78175601D01*
X116946768Y-78187131D01*
X116951873Y-78222634D01*
X116951873Y-78258721D01*
X116964757Y-78302601D01*
X116972168Y-78314131D01*
X116977273Y-78349634D01*
X116977273Y-78436521D01*
X116990157Y-78480401D01*
X116997568Y-78491931D01*
X117002673Y-78527434D01*
X117002673Y-78665521D01*
X116982671Y-78733642D01*
X116979337Y-78738096D01*
X116977273Y-78747584D01*
X116977273Y-78817921D01*
X116957271Y-78886042D01*
X116953937Y-78890496D01*
X116951873Y-78899984D01*
X116951873Y-78919521D01*
X116931871Y-78987642D01*
X116928537Y-78992096D01*
X116923594Y-79014819D01*
X116921029Y-79014261D01*
X116906471Y-79063842D01*
X116903137Y-79068296D01*
X116898194Y-79091019D01*
X116895629Y-79090461D01*
X116881071Y-79140042D01*
X116876941Y-79145559D01*
X116850043Y-79199295D01*
X116846609Y-79203259D01*
X116825779Y-79244870D01*
X116799311Y-79275416D01*
X116776360Y-79321267D01*
X116776338Y-79321367D01*
X116748443Y-79377095D01*
X116745009Y-79381058D01*
X116724180Y-79422670D01*
X116704125Y-79445815D01*
X116696473Y-79450732D01*
X116668809Y-79482658D01*
X116647980Y-79524270D01*
X116627925Y-79547415D01*
X116620273Y-79552332D01*
X116592609Y-79584258D01*
X116571780Y-79625870D01*
X116551725Y-79649015D01*
X116544071Y-79653933D01*
X116526325Y-79674414D01*
X116518673Y-79679331D01*
X116500925Y-79699814D01*
X116493273Y-79704731D01*
X116475525Y-79725214D01*
X116467873Y-79730131D01*
X116450125Y-79750614D01*
X116442475Y-79755530D01*
X116414809Y-79787458D01*
X116393979Y-79829072D01*
X116382592Y-79842213D01*
X116322867Y-79880595D01*
X116315200Y-79882846D01*
X116297725Y-79903014D01*
X116290073Y-79907931D01*
X116272325Y-79928414D01*
X116264673Y-79933331D01*
X116246925Y-79953814D01*
X116239273Y-79958731D01*
X116221525Y-79979214D01*
X116213873Y-79984131D01*
X116196125Y-80004614D01*
X116188473Y-80009531D01*
X116170725Y-80030014D01*
X116163073Y-80034931D01*
X116145325Y-80055414D01*
X116137673Y-80060331D01*
X116119925Y-80080814D01*
X116112273Y-80085731D01*
X116094525Y-80106214D01*
X116086873Y-80111131D01*
X116069125Y-80131614D01*
X116061473Y-80136531D01*
X116043725Y-80157014D01*
X116036073Y-80161931D01*
X116018325Y-80182414D01*
X116010673Y-80187331D01*
X115992925Y-80207814D01*
X115985273Y-80212731D01*
X115967525Y-80233214D01*
X115959873Y-80238131D01*
X115942125Y-80258614D01*
X115934473Y-80263531D01*
X115916725Y-80284014D01*
X115909073Y-80288931D01*
X115891325Y-80309414D01*
X115883673Y-80314331D01*
X115865925Y-80334814D01*
X115858273Y-80339731D01*
X115840525Y-80360214D01*
X115832873Y-80365131D01*
X115815125Y-80385614D01*
X115807473Y-80390531D01*
X115789725Y-80411014D01*
X115782073Y-80415931D01*
X115764325Y-80436414D01*
X115756673Y-80441331D01*
X115738925Y-80461814D01*
X115731274Y-80466730D01*
X115722192Y-80477212D01*
X115662467Y-80515595D01*
X115654800Y-80517846D01*
X115637325Y-80538014D01*
X115629673Y-80542931D01*
X115611925Y-80563414D01*
X115604273Y-80568331D01*
X115586525Y-80588814D01*
X115578873Y-80593731D01*
X115561125Y-80614214D01*
X115553473Y-80619131D01*
X115535725Y-80639614D01*
X115528073Y-80644531D01*
X115510325Y-80665014D01*
X115502673Y-80669931D01*
X115484925Y-80690414D01*
X115477273Y-80695331D01*
X115459525Y-80715814D01*
X115451873Y-80720731D01*
X115434125Y-80741214D01*
X115426473Y-80746131D01*
X115408725Y-80766614D01*
X115401073Y-80771531D01*
X115383325Y-80792014D01*
X115375673Y-80796931D01*
X115357925Y-80817414D01*
X115350273Y-80822331D01*
X115332525Y-80842814D01*
X115324873Y-80847731D01*
X115307125Y-80868214D01*
X115299473Y-80873131D01*
X115281725Y-80893614D01*
X115274073Y-80898531D01*
X115256325Y-80919014D01*
X115248673Y-80923931D01*
X115230925Y-80944414D01*
X115223273Y-80949331D01*
X115205525Y-80969814D01*
X115197873Y-80974731D01*
X115180125Y-80995214D01*
X115172473Y-81000131D01*
X115154725Y-81020614D01*
X115147073Y-81025531D01*
X115129325Y-81046014D01*
X115121673Y-81050931D01*
X115103925Y-81071414D01*
X115096273Y-81076331D01*
X115078525Y-81096814D01*
X115070873Y-81101731D01*
X115053125Y-81122214D01*
X115045474Y-81127130D01*
X115036392Y-81137612D01*
X114976667Y-81175995D01*
X114969000Y-81178246D01*
X114951525Y-81198414D01*
X114943873Y-81203331D01*
X114926125Y-81223814D01*
X114918473Y-81228731D01*
X114900725Y-81249214D01*
X114893073Y-81254131D01*
X114875325Y-81274614D01*
X114867673Y-81279531D01*
X114849925Y-81300014D01*
X114842273Y-81304931D01*
X114824525Y-81325414D01*
X114816873Y-81330331D01*
X114799125Y-81350814D01*
X114791473Y-81355731D01*
X114773725Y-81376214D01*
X114766073Y-81381131D01*
X114748325Y-81401614D01*
X114740673Y-81406531D01*
X114722925Y-81427014D01*
X114715273Y-81431931D01*
X114697525Y-81452414D01*
X114689873Y-81457331D01*
X114672125Y-81477814D01*
X114664474Y-81482730D01*
X114655392Y-81493212D01*
X114595666Y-81531595D01*
X114578566Y-81536616D01*
X114507570Y-81536616D01*
X114503332Y-81534302D01*
X114490169Y-81531439D01*
X114434439Y-81503543D01*
X114411294Y-81483488D01*
X114406376Y-81475834D01*
X114385895Y-81458088D01*
X114380978Y-81450436D01*
X114360495Y-81432688D01*
X114355578Y-81425036D01*
X114335095Y-81407288D01*
X114330178Y-81399636D01*
X114309695Y-81381888D01*
X114304778Y-81374236D01*
X114284295Y-81356488D01*
X114279378Y-81348836D01*
X114258895Y-81331088D01*
X114253978Y-81323436D01*
X114233495Y-81305688D01*
X114228578Y-81298036D01*
X114208095Y-81280288D01*
X114203178Y-81272636D01*
X114182695Y-81254888D01*
X114177778Y-81247236D01*
X114157295Y-81229488D01*
X114152378Y-81221836D01*
X114131895Y-81204088D01*
X114126978Y-81196436D01*
X114106495Y-81178688D01*
X114101579Y-81171038D01*
X114069651Y-81143372D01*
X114028039Y-81122543D01*
X114004894Y-81102488D01*
X113999976Y-81094834D01*
X113979495Y-81077088D01*
X113974578Y-81069436D01*
X113954095Y-81051688D01*
X113949178Y-81044036D01*
X113928695Y-81026288D01*
X113923778Y-81018636D01*
X113903295Y-81000888D01*
X113898378Y-80993236D01*
X113877895Y-80975488D01*
X113872978Y-80967836D01*
X113852495Y-80950088D01*
X113847578Y-80942436D01*
X113827095Y-80924688D01*
X113822178Y-80917036D01*
X113801695Y-80899288D01*
X113796778Y-80891636D01*
X113776295Y-80873888D01*
X113771378Y-80866236D01*
X113750895Y-80848488D01*
X113745978Y-80840836D01*
X113725495Y-80823088D01*
X113720578Y-80815436D01*
X113700095Y-80797688D01*
X113695178Y-80790036D01*
X113674695Y-80772288D01*
X113669778Y-80764636D01*
X113649295Y-80746888D01*
X113644378Y-80739236D01*
X113623895Y-80721488D01*
X113618978Y-80713836D01*
X113598495Y-80696088D01*
X113593578Y-80688436D01*
X113573095Y-80670688D01*
X113568178Y-80663036D01*
X113547695Y-80645288D01*
X113542778Y-80637636D01*
X113522295Y-80619888D01*
X113517378Y-80612236D01*
X113496895Y-80594488D01*
X113491978Y-80586836D01*
X113471495Y-80569088D01*
X113466578Y-80561436D01*
X113446095Y-80543688D01*
X113441179Y-80536038D01*
X113409251Y-80508372D01*
X113367639Y-80487543D01*
X113344494Y-80467488D01*
X113339576Y-80459834D01*
X113319095Y-80442088D01*
X113314178Y-80434436D01*
X113293695Y-80416688D01*
X113288778Y-80409036D01*
X113268295Y-80391288D01*
X113263378Y-80383636D01*
X113242895Y-80365888D01*
X113237978Y-80358236D01*
X113217495Y-80340488D01*
X113212578Y-80332836D01*
X113192095Y-80315088D01*
X113187178Y-80307436D01*
X113166695Y-80289688D01*
X113161778Y-80282036D01*
X113141295Y-80264288D01*
X113136378Y-80256636D01*
X113115895Y-80238888D01*
X113110978Y-80231236D01*
X113090495Y-80213488D01*
X113085578Y-80205836D01*
X113065095Y-80188088D01*
X113060178Y-80180436D01*
X113039695Y-80162688D01*
X113034778Y-80155036D01*
X113014295Y-80137288D01*
X113009378Y-80129636D01*
X112988895Y-80111888D01*
X112983978Y-80104236D01*
X112963495Y-80086488D01*
X112958578Y-80078836D01*
X112938095Y-80061088D01*
X112933178Y-80053436D01*
X112912695Y-80035688D01*
X112907778Y-80028036D01*
X112887295Y-80010288D01*
X112882378Y-80002636D01*
X112861895Y-79984888D01*
X112856978Y-79977236D01*
X112836495Y-79959488D01*
X112831578Y-79951836D01*
X112811095Y-79934088D01*
X112806178Y-79926436D01*
X112785695Y-79908688D01*
X112780777Y-79901036D01*
X112736230Y-79862435D01*
X112726396Y-79847133D01*
X112698051Y-79822572D01*
X112656437Y-79801742D01*
X112643296Y-79790355D01*
X112604914Y-79730630D01*
X112602663Y-79722963D01*
X112582495Y-79705488D01*
X112577578Y-79697836D01*
X112557095Y-79680088D01*
X112552178Y-79672436D01*
X112531695Y-79654688D01*
X112526779Y-79647037D01*
X112516297Y-79637955D01*
X112477914Y-79578230D01*
X112475663Y-79570563D01*
X112455495Y-79553088D01*
X112450579Y-79545437D01*
X112440097Y-79536355D01*
X112401714Y-79476630D01*
X112399463Y-79468963D01*
X112379295Y-79451488D01*
X112374379Y-79443837D01*
X112363897Y-79434755D01*
X112325514Y-79375030D01*
X112319417Y-79354266D01*
X112300114Y-79324230D01*
X112294017Y-79303466D01*
X112274714Y-79273430D01*
X112272463Y-79265764D01*
X112262297Y-79256955D01*
X112223914Y-79197230D01*
X112214588Y-79165470D01*
X112207178Y-79153941D01*
X112206219Y-79147271D01*
X112192417Y-79100266D01*
X112173114Y-79070230D01*
X112163788Y-79038470D01*
X112156378Y-79026941D01*
X112155419Y-79020271D01*
X112138389Y-78962271D01*
X112130978Y-78950741D01*
X112130019Y-78944071D01*
X112112989Y-78886071D01*
X112105578Y-78874541D01*
X112100473Y-78839038D01*
X112100473Y-78802951D01*
X112087589Y-78759071D01*
X112080178Y-78747541D01*
X112075073Y-78712038D01*
X112075073Y-78472351D01*
X112095075Y-78404230D01*
X112098409Y-78399776D01*
X112100473Y-78390288D01*
X112100473Y-78319951D01*
X112120475Y-78251830D01*
X112123809Y-78247376D01*
X112125873Y-78237888D01*
X112125873Y-78218351D01*
X112145875Y-78150230D01*
X112149209Y-78145776D01*
X112154152Y-78123053D01*
X112156717Y-78123611D01*
X112171275Y-78074030D01*
X112175405Y-78068513D01*
X112199786Y-78019805D01*
X112199808Y-78019705D01*
X112225186Y-77969005D01*
X112225208Y-77968905D01*
X112253103Y-77913177D01*
X112256537Y-77909213D01*
X112277367Y-77867602D01*
X112307336Y-77833016D01*
X112328166Y-77791402D01*
X112348221Y-77768257D01*
X112355875Y-77763339D01*
X112373621Y-77742858D01*
X112381271Y-77737942D01*
X112418402Y-77695091D01*
X112434005Y-77666517D01*
X112473787Y-77642913D01*
X112475221Y-77641258D01*
X112482873Y-77636341D01*
X112500621Y-77615858D01*
X112508273Y-77610941D01*
X112526021Y-77590458D01*
X112533672Y-77585542D01*
X112542754Y-77575060D01*
X112602479Y-77536677D01*
X112623243Y-77530580D01*
X112653279Y-77511277D01*
X112674043Y-77505180D01*
X112704079Y-77485877D01*
X112724843Y-77479780D01*
X112754879Y-77460477D01*
X112775643Y-77454380D01*
X112805679Y-77435077D01*
X112837439Y-77425751D01*
X112848968Y-77418341D01*
X112855638Y-77417382D01*
X112913638Y-77400352D01*
X112925168Y-77392941D01*
X112931838Y-77391982D01*
X112989838Y-77374952D01*
X113001368Y-77367541D01*
X113036871Y-77362436D01*
X113072958Y-77362436D01*
X113116838Y-77349552D01*
X113128368Y-77342141D01*
X113163871Y-77337036D01*
X113530558Y-77337036D01*
X113598679Y-77357038D01*
G37*
G36*
X84131806Y-84904602D02*
G01*
X84136260Y-84907936D01*
X84145748Y-84910000D01*
X84165285Y-84910000D01*
X84233406Y-84930002D01*
X84237860Y-84933336D01*
X84260583Y-84938279D01*
X84260025Y-84940844D01*
X84309606Y-84955402D01*
X84315123Y-84959532D01*
X84363827Y-84983911D01*
X84387583Y-84989079D01*
X84387025Y-84991644D01*
X84436606Y-85006202D01*
X84448084Y-85014795D01*
X84490634Y-85036094D01*
X84521180Y-85062562D01*
X84572059Y-85088030D01*
X84576023Y-85091464D01*
X84617634Y-85112294D01*
X84652220Y-85142263D01*
X84693834Y-85163093D01*
X84716979Y-85183148D01*
X84721896Y-85190800D01*
X84753822Y-85218464D01*
X84795434Y-85239293D01*
X84818579Y-85259348D01*
X84823496Y-85267000D01*
X84855422Y-85294664D01*
X84897034Y-85315493D01*
X84920179Y-85335548D01*
X84925097Y-85343202D01*
X84945578Y-85360948D01*
X84950495Y-85368600D01*
X84970978Y-85386348D01*
X84975895Y-85394000D01*
X84996378Y-85411748D01*
X85001295Y-85419400D01*
X85021778Y-85437148D01*
X85026694Y-85444798D01*
X85052465Y-85467129D01*
X85060148Y-85468800D01*
X85079285Y-85468800D01*
X85099073Y-85462990D01*
X85116548Y-85442822D01*
X85124200Y-85437905D01*
X85141948Y-85417422D01*
X85149600Y-85412505D01*
X85167348Y-85392022D01*
X85175000Y-85387105D01*
X85192748Y-85366622D01*
X85200400Y-85361705D01*
X85218148Y-85341222D01*
X85225799Y-85336306D01*
X85234881Y-85325824D01*
X85294606Y-85287441D01*
X85302273Y-85285190D01*
X85319748Y-85265022D01*
X85327400Y-85260105D01*
X85345148Y-85239622D01*
X85352799Y-85234706D01*
X85361881Y-85224224D01*
X85421606Y-85185841D01*
X85429272Y-85183590D01*
X85438081Y-85173424D01*
X85497806Y-85135041D01*
X85505472Y-85132790D01*
X85514281Y-85122624D01*
X85574006Y-85084241D01*
X85581672Y-85081990D01*
X85590481Y-85071824D01*
X85650206Y-85033441D01*
X85670970Y-85027344D01*
X85701006Y-85008041D01*
X85732766Y-84998715D01*
X85744295Y-84991305D01*
X85750965Y-84990346D01*
X85797970Y-84976544D01*
X85828006Y-84957241D01*
X85859766Y-84947915D01*
X85871295Y-84940505D01*
X85877965Y-84939546D01*
X85935965Y-84922516D01*
X85947495Y-84915105D01*
X85982998Y-84910000D01*
X85993685Y-84910000D01*
X86037565Y-84897116D01*
X86049095Y-84889705D01*
X86084598Y-84884600D01*
X86451285Y-84884600D01*
X86519406Y-84904602D01*
X86523860Y-84907936D01*
X86533348Y-84910000D01*
X86578285Y-84910000D01*
X86646406Y-84930002D01*
X86650860Y-84933336D01*
X86673583Y-84938279D01*
X86673025Y-84940844D01*
X86722606Y-84955402D01*
X86727060Y-84958736D01*
X86749783Y-84963679D01*
X86749225Y-84966244D01*
X86798806Y-84980802D01*
X86804323Y-84984932D01*
X86853031Y-85009313D01*
X86853131Y-85009335D01*
X86903831Y-85034713D01*
X86903931Y-85034735D01*
X86954631Y-85060113D01*
X86954731Y-85060135D01*
X87010459Y-85088030D01*
X87014422Y-85091464D01*
X87056034Y-85112293D01*
X87079179Y-85132348D01*
X87084097Y-85140002D01*
X87104578Y-85157748D01*
X87109495Y-85165400D01*
X87129978Y-85183148D01*
X87134896Y-85190800D01*
X87179443Y-85229401D01*
X87189278Y-85244705D01*
X87206178Y-85259348D01*
X87211095Y-85267000D01*
X87231578Y-85284748D01*
X87236495Y-85292400D01*
X87256978Y-85310148D01*
X87261894Y-85317799D01*
X87272376Y-85326881D01*
X87310759Y-85386606D01*
X87313010Y-85394272D01*
X87323176Y-85403081D01*
X87361559Y-85462806D01*
X87367656Y-85483570D01*
X87386959Y-85513606D01*
X87393056Y-85534370D01*
X87412359Y-85564406D01*
X87418456Y-85585170D01*
X87437759Y-85615206D01*
X87447085Y-85646966D01*
X87454495Y-85658495D01*
X87455454Y-85665165D01*
X87472484Y-85723165D01*
X87479895Y-85734695D01*
X87485000Y-85770198D01*
X87485000Y-85806285D01*
X87497884Y-85850165D01*
X87505295Y-85861695D01*
X87510400Y-85897198D01*
X87510400Y-85984085D01*
X87523284Y-86027965D01*
X87530695Y-86039495D01*
X87535800Y-86074998D01*
X87535800Y-86213085D01*
X87515798Y-86281206D01*
X87512464Y-86285660D01*
X87510400Y-86295148D01*
X87510400Y-86365485D01*
X87490398Y-86433606D01*
X87487064Y-86438060D01*
X87485000Y-86447548D01*
X87485000Y-86467085D01*
X87464998Y-86535206D01*
X87461664Y-86539660D01*
X87456721Y-86562383D01*
X87454156Y-86561825D01*
X87439598Y-86611406D01*
X87436264Y-86615860D01*
X87431321Y-86638583D01*
X87428756Y-86638025D01*
X87414198Y-86687606D01*
X87410068Y-86693123D01*
X87383170Y-86746859D01*
X87379736Y-86750823D01*
X87358906Y-86792434D01*
X87332438Y-86822980D01*
X87309487Y-86868831D01*
X87309465Y-86868931D01*
X87281570Y-86924659D01*
X87278136Y-86928622D01*
X87257307Y-86970234D01*
X87237252Y-86993379D01*
X87229600Y-86998296D01*
X87201936Y-87030222D01*
X87181107Y-87071834D01*
X87161052Y-87094979D01*
X87153400Y-87099896D01*
X87125736Y-87131822D01*
X87104907Y-87173434D01*
X87084852Y-87196579D01*
X87077198Y-87201497D01*
X87059452Y-87221978D01*
X87051800Y-87226895D01*
X87034052Y-87247378D01*
X87026400Y-87252295D01*
X87008652Y-87272778D01*
X87001000Y-87277695D01*
X86983252Y-87298178D01*
X86975602Y-87303094D01*
X86947936Y-87335022D01*
X86927106Y-87376636D01*
X86915719Y-87389777D01*
X86855994Y-87428159D01*
X86848327Y-87430410D01*
X86830852Y-87450578D01*
X86823200Y-87455495D01*
X86805452Y-87475978D01*
X86797800Y-87480895D01*
X86780052Y-87501378D01*
X86772400Y-87506295D01*
X86754652Y-87526778D01*
X86747000Y-87531695D01*
X86729252Y-87552178D01*
X86721600Y-87557095D01*
X86703852Y-87577578D01*
X86696200Y-87582495D01*
X86678452Y-87602978D01*
X86670800Y-87607895D01*
X86653052Y-87628378D01*
X86645400Y-87633295D01*
X86627652Y-87653778D01*
X86620000Y-87658695D01*
X86602252Y-87679178D01*
X86594600Y-87684095D01*
X86576852Y-87704578D01*
X86569200Y-87709495D01*
X86551452Y-87729978D01*
X86543800Y-87734895D01*
X86526052Y-87755378D01*
X86518400Y-87760295D01*
X86500652Y-87780778D01*
X86493000Y-87785695D01*
X86475252Y-87806178D01*
X86467600Y-87811095D01*
X86449852Y-87831578D01*
X86442200Y-87836495D01*
X86424452Y-87856978D01*
X86416800Y-87861895D01*
X86399052Y-87882378D01*
X86391400Y-87887295D01*
X86373652Y-87907778D01*
X86366000Y-87912695D01*
X86348252Y-87933178D01*
X86340600Y-87938095D01*
X86322852Y-87958578D01*
X86315200Y-87963495D01*
X86297452Y-87983978D01*
X86289800Y-87988895D01*
X86272052Y-88009378D01*
X86264401Y-88014294D01*
X86255319Y-88024776D01*
X86195594Y-88063159D01*
X86187927Y-88065410D01*
X86170452Y-88085578D01*
X86162800Y-88090495D01*
X86145052Y-88110978D01*
X86137400Y-88115895D01*
X86119652Y-88136378D01*
X86112000Y-88141295D01*
X86094252Y-88161778D01*
X86086600Y-88166695D01*
X86068852Y-88187178D01*
X86061200Y-88192095D01*
X86043452Y-88212578D01*
X86035800Y-88217495D01*
X86018052Y-88237978D01*
X86010400Y-88242895D01*
X85992652Y-88263378D01*
X85985000Y-88268295D01*
X85967252Y-88288778D01*
X85959600Y-88293695D01*
X85941852Y-88314178D01*
X85934200Y-88319095D01*
X85916452Y-88339578D01*
X85908800Y-88344495D01*
X85891052Y-88364978D01*
X85883400Y-88369895D01*
X85865652Y-88390378D01*
X85858000Y-88395295D01*
X85840252Y-88415778D01*
X85832600Y-88420695D01*
X85814852Y-88441178D01*
X85807200Y-88446095D01*
X85789452Y-88466578D01*
X85781800Y-88471495D01*
X85764052Y-88491978D01*
X85756400Y-88496895D01*
X85738652Y-88517378D01*
X85731000Y-88522295D01*
X85713252Y-88542778D01*
X85705600Y-88547695D01*
X85687852Y-88568178D01*
X85680200Y-88573095D01*
X85662452Y-88593578D01*
X85654800Y-88598495D01*
X85637052Y-88618978D01*
X85629400Y-88623895D01*
X85611652Y-88644378D01*
X85604000Y-88649295D01*
X85586252Y-88669778D01*
X85578601Y-88674694D01*
X85569519Y-88685176D01*
X85509794Y-88723559D01*
X85502127Y-88725810D01*
X85484652Y-88745978D01*
X85477000Y-88750895D01*
X85459252Y-88771378D01*
X85451600Y-88776295D01*
X85433852Y-88796778D01*
X85426200Y-88801695D01*
X85408452Y-88822178D01*
X85400800Y-88827095D01*
X85383052Y-88847578D01*
X85375400Y-88852495D01*
X85357652Y-88872978D01*
X85350000Y-88877895D01*
X85332252Y-88898378D01*
X85324600Y-88903295D01*
X85306852Y-88923778D01*
X85299200Y-88928695D01*
X85281452Y-88949178D01*
X85273800Y-88954095D01*
X85256052Y-88974578D01*
X85248400Y-88979495D01*
X85230652Y-88999978D01*
X85223000Y-89004895D01*
X85205252Y-89025378D01*
X85197601Y-89030294D01*
X85188519Y-89040776D01*
X85128793Y-89079159D01*
X85111693Y-89084180D01*
X85040697Y-89084180D01*
X85036459Y-89081866D01*
X85023296Y-89079003D01*
X84967566Y-89051107D01*
X84944421Y-89031052D01*
X84939503Y-89023398D01*
X84919022Y-89005652D01*
X84914105Y-88998000D01*
X84893622Y-88980252D01*
X84888705Y-88972600D01*
X84868222Y-88954852D01*
X84863305Y-88947200D01*
X84842822Y-88929452D01*
X84837905Y-88921800D01*
X84817422Y-88904052D01*
X84812505Y-88896400D01*
X84792022Y-88878652D01*
X84787105Y-88871000D01*
X84766622Y-88853252D01*
X84761705Y-88845600D01*
X84741222Y-88827852D01*
X84736305Y-88820200D01*
X84715822Y-88802452D01*
X84710905Y-88794800D01*
X84690422Y-88777052D01*
X84685505Y-88769400D01*
X84665022Y-88751652D01*
X84660105Y-88744000D01*
X84639622Y-88726252D01*
X84634706Y-88718602D01*
X84602778Y-88690936D01*
X84561166Y-88670107D01*
X84538021Y-88650052D01*
X84533103Y-88642398D01*
X84512622Y-88624652D01*
X84507705Y-88617000D01*
X84487222Y-88599252D01*
X84482305Y-88591600D01*
X84461822Y-88573852D01*
X84456905Y-88566200D01*
X84436422Y-88548452D01*
X84431505Y-88540800D01*
X84411022Y-88523052D01*
X84406105Y-88515400D01*
X84385622Y-88497652D01*
X84380705Y-88490000D01*
X84360222Y-88472252D01*
X84355305Y-88464600D01*
X84334822Y-88446852D01*
X84329905Y-88439200D01*
X84309422Y-88421452D01*
X84304505Y-88413800D01*
X84284022Y-88396052D01*
X84279105Y-88388400D01*
X84258622Y-88370652D01*
X84253705Y-88363000D01*
X84233222Y-88345252D01*
X84228305Y-88337600D01*
X84207822Y-88319852D01*
X84202905Y-88312200D01*
X84182422Y-88294452D01*
X84177505Y-88286800D01*
X84157022Y-88269052D01*
X84152105Y-88261400D01*
X84131622Y-88243652D01*
X84126705Y-88236000D01*
X84106222Y-88218252D01*
X84101305Y-88210600D01*
X84080822Y-88192852D01*
X84075905Y-88185200D01*
X84055422Y-88167452D01*
X84050505Y-88159800D01*
X84030022Y-88142052D01*
X84025105Y-88134400D01*
X84004622Y-88116652D01*
X83999705Y-88109000D01*
X83979222Y-88091252D01*
X83974306Y-88083602D01*
X83942378Y-88055936D01*
X83900766Y-88035107D01*
X83877621Y-88015052D01*
X83872703Y-88007398D01*
X83852222Y-87989652D01*
X83847305Y-87982000D01*
X83826822Y-87964252D01*
X83821905Y-87956600D01*
X83801422Y-87938852D01*
X83796505Y-87931200D01*
X83776022Y-87913452D01*
X83771105Y-87905800D01*
X83750622Y-87888052D01*
X83745705Y-87880400D01*
X83725222Y-87862652D01*
X83720305Y-87855000D01*
X83699822Y-87837252D01*
X83694905Y-87829600D01*
X83674422Y-87811852D01*
X83669505Y-87804200D01*
X83649022Y-87786452D01*
X83644105Y-87778800D01*
X83623622Y-87761052D01*
X83618705Y-87753400D01*
X83598222Y-87735652D01*
X83593305Y-87728000D01*
X83572822Y-87710252D01*
X83567905Y-87702600D01*
X83547422Y-87684852D01*
X83542505Y-87677200D01*
X83522022Y-87659452D01*
X83517105Y-87651800D01*
X83496622Y-87634052D01*
X83491705Y-87626400D01*
X83471222Y-87608652D01*
X83466305Y-87601000D01*
X83445822Y-87583252D01*
X83440905Y-87575600D01*
X83420422Y-87557852D01*
X83415505Y-87550200D01*
X83395022Y-87532452D01*
X83390105Y-87524800D01*
X83369622Y-87507052D01*
X83364705Y-87499400D01*
X83344222Y-87481652D01*
X83339305Y-87474000D01*
X83318822Y-87456252D01*
X83313904Y-87448600D01*
X83269357Y-87409999D01*
X83259523Y-87394697D01*
X83231178Y-87370136D01*
X83189564Y-87349306D01*
X83176423Y-87337919D01*
X83138041Y-87278194D01*
X83135790Y-87270527D01*
X83115622Y-87253052D01*
X83110705Y-87245400D01*
X83090222Y-87227652D01*
X83085305Y-87220000D01*
X83064822Y-87202252D01*
X83059906Y-87194601D01*
X83049424Y-87185519D01*
X83011041Y-87125794D01*
X83008790Y-87118127D01*
X82988622Y-87100652D01*
X82983706Y-87093001D01*
X82973224Y-87083919D01*
X82934841Y-87024194D01*
X82932590Y-87016527D01*
X82912422Y-86999052D01*
X82907506Y-86991401D01*
X82897024Y-86982319D01*
X82858641Y-86922594D01*
X82852544Y-86901830D01*
X82833241Y-86871794D01*
X82827144Y-86851030D01*
X82807841Y-86820994D01*
X82805590Y-86813328D01*
X82795424Y-86804519D01*
X82757041Y-86744794D01*
X82747715Y-86713034D01*
X82740305Y-86701505D01*
X82739346Y-86694835D01*
X82725544Y-86647830D01*
X82706241Y-86617794D01*
X82696915Y-86586034D01*
X82689505Y-86574505D01*
X82688546Y-86567835D01*
X82671516Y-86509835D01*
X82664105Y-86498305D01*
X82663146Y-86491635D01*
X82646116Y-86433635D01*
X82638705Y-86422105D01*
X82633600Y-86386602D01*
X82633600Y-86350515D01*
X82620716Y-86306635D01*
X82613305Y-86295105D01*
X82608200Y-86259602D01*
X82608200Y-86019915D01*
X82628202Y-85951794D01*
X82631536Y-85947340D01*
X82633600Y-85937852D01*
X82633600Y-85867515D01*
X82653602Y-85799394D01*
X82656936Y-85794940D01*
X82659000Y-85785452D01*
X82659000Y-85765915D01*
X82679002Y-85697794D01*
X82682336Y-85693340D01*
X82687279Y-85670617D01*
X82689844Y-85671175D01*
X82704402Y-85621594D01*
X82708532Y-85616077D01*
X82732913Y-85567369D01*
X82732935Y-85567269D01*
X82758313Y-85516569D01*
X82758335Y-85516469D01*
X82786230Y-85460741D01*
X82789664Y-85456777D01*
X82810494Y-85415166D01*
X82840463Y-85380580D01*
X82861293Y-85338966D01*
X82881348Y-85315821D01*
X82889002Y-85310903D01*
X82906748Y-85290422D01*
X82914398Y-85285506D01*
X82951529Y-85242655D01*
X82967132Y-85214081D01*
X83006914Y-85190477D01*
X83008348Y-85188822D01*
X83016000Y-85183905D01*
X83033748Y-85163422D01*
X83041400Y-85158505D01*
X83059148Y-85138022D01*
X83066799Y-85133106D01*
X83075881Y-85122624D01*
X83135606Y-85084241D01*
X83156370Y-85078144D01*
X83186406Y-85058841D01*
X83207170Y-85052744D01*
X83237206Y-85033441D01*
X83257970Y-85027344D01*
X83288006Y-85008041D01*
X83308770Y-85001944D01*
X83338806Y-84982641D01*
X83370566Y-84973315D01*
X83382095Y-84965905D01*
X83388765Y-84964946D01*
X83446765Y-84947916D01*
X83458295Y-84940505D01*
X83464965Y-84939546D01*
X83522965Y-84922516D01*
X83534495Y-84915105D01*
X83569998Y-84910000D01*
X83606085Y-84910000D01*
X83649965Y-84897116D01*
X83661495Y-84889705D01*
X83696998Y-84884600D01*
X84063685Y-84884600D01*
X84131806Y-84904602D01*
G37*
%LPC*%
D14*
X97500000Y-66100000D03*
X99000000Y-66100000D03*
X99000000Y-68800000D03*
X97500000Y-68800000D03*
X104300000Y-68800000D03*
X105800000Y-68800000D03*
X105800000Y-66100000D03*
X104300000Y-66100000D03*
X100900000Y-68800000D03*
X102400000Y-68800000D03*
X102400000Y-66100000D03*
X100900000Y-66100000D03*
D15*
X85540000Y-82790000D03*
X83990000Y-82790000D03*
D16*
X87690000Y-81660000D03*
X87690000Y-83210000D03*
D17*
X97500000Y-74450000D03*
X99050000Y-74450000D03*
D15*
X105370000Y-87930000D03*
X103820000Y-87930000D03*
D18*
X97455000Y-90190000D03*
X98475000Y-90190000D03*
D19*
X101825000Y-88165000D03*
X101825000Y-86895000D03*
X101825000Y-85625000D03*
X101825000Y-84355000D03*
X94625000Y-84355000D03*
X94625000Y-85625000D03*
X94625000Y-86895000D03*
X94625000Y-88165000D03*
D15*
X90080000Y-66550000D03*
X88530000Y-66550000D03*
D20*
X99910000Y-90160000D03*
X101560000Y-90160000D03*
D16*
X90540000Y-83010000D03*
X90540000Y-84560000D03*
D15*
X84130000Y-74700000D03*
X82580000Y-74700000D03*
D21*
X89759000Y-69640000D03*
X89759000Y-68090000D03*
D22*
X87762000Y-92522000D03*
X87762000Y-90872000D03*
D21*
X87840000Y-69640000D03*
X87840000Y-68090000D03*
D17*
X96100000Y-80300000D03*
X97650000Y-80300000D03*
D15*
X85480000Y-81200000D03*
X83930000Y-81200000D03*
D23*
X94227500Y-78750000D03*
X94227500Y-78350000D03*
X94227500Y-77950000D03*
X94227500Y-77550000D03*
X94227500Y-77150000D03*
X94227500Y-76750000D03*
X94227500Y-76350000D03*
X94227500Y-75950000D03*
X94227500Y-75550000D03*
X94227500Y-75150000D03*
X94227500Y-74750000D03*
X94227500Y-74350000D03*
X94227500Y-73950000D03*
X94227500Y-73550000D03*
D24*
X93390000Y-72712500D03*
X92990000Y-72712500D03*
X92590000Y-72712500D03*
X92190000Y-72712500D03*
X91790000Y-72712500D03*
X91390000Y-72712500D03*
X90990000Y-72712500D03*
X90590000Y-72712500D03*
X90190000Y-72712500D03*
X89790000Y-72712500D03*
X89390000Y-72712500D03*
X88990000Y-72712500D03*
X88590000Y-72712500D03*
X88190000Y-72712500D03*
D23*
X87352500Y-73550000D03*
X87352500Y-73950000D03*
X87352500Y-74350000D03*
X87352500Y-74750000D03*
X87352500Y-75150000D03*
X87352500Y-75550000D03*
X87352500Y-75950000D03*
X87352500Y-76350000D03*
X87352500Y-76750000D03*
X87352500Y-77150000D03*
X87352500Y-77550000D03*
X87352500Y-77950000D03*
X87352500Y-78350000D03*
X87352500Y-78750000D03*
D24*
X88190000Y-79587500D03*
X88590000Y-79587500D03*
X88990000Y-79587500D03*
X89390000Y-79587500D03*
X89790000Y-79587500D03*
X90190000Y-79587500D03*
X90590000Y-79587500D03*
X90990000Y-79587500D03*
X91390000Y-79587500D03*
X91790000Y-79587500D03*
X92190000Y-79587500D03*
X92590000Y-79587500D03*
X92990000Y-79587500D03*
X93390000Y-79587500D03*
D25*
X90790000Y-76150000D03*
D21*
X94550000Y-64500000D03*
X94550000Y-62950000D03*
D22*
X86162000Y-92522000D03*
X86162000Y-90872000D03*
D16*
X92140000Y-83110000D03*
X92140000Y-84660000D03*
D15*
X85480000Y-79550000D03*
X83930000Y-79550000D03*
D22*
X91740000Y-69360000D03*
X91740000Y-67710000D03*
D26*
X105409500Y-90231000D03*
X103534500Y-90231000D03*
D27*
X108550000Y-96950000D03*
X108550000Y-89550000D03*
D28*
X93750000Y-90986000D03*
X91850000Y-90986000D03*
D29*
X84306000Y-90949000D03*
X84306000Y-92599000D03*
D22*
X89596000Y-92039000D03*
X89596000Y-90389000D03*
D30*
X70000000Y-97000000D03*
D31*
X78500000Y-74500000D03*
D32*
X78500000Y-77040000D03*
X78500000Y-79580000D03*
X78500000Y-82120000D03*
X78500000Y-84660000D03*
X78500000Y-87200000D03*
X78500000Y-89740000D03*
X78500000Y-92280000D03*
X78500000Y-94820000D03*
X78500000Y-97360000D03*
D30*
X117000000Y-97000000D03*
X70000000Y-60000000D03*
D33*
X93851000Y-98696000D03*
X93851000Y-96796000D03*
D28*
X93750000Y-93000000D03*
X91850000Y-93000000D03*
D34*
X90250000Y-64650000D03*
X92450000Y-64650000D03*
X92450000Y-62950000D03*
X90250000Y-62950000D03*
D35*
X106832000Y-84636000D03*
D36*
X106832000Y-82096000D03*
X106832000Y-79556000D03*
X106832000Y-77016000D03*
X106832000Y-74476000D03*
X106832000Y-71936000D03*
D30*
X117000000Y-60000000D03*
D37*
X100600000Y-62950000D03*
D35*
X80000000Y-70750000D03*
D36*
X80000000Y-68210000D03*
X80000000Y-65670000D03*
X80000000Y-63130000D03*
X80000000Y-60590000D03*
X80000000Y-58050000D03*
D38*
X96392000Y-95915000D03*
D39*
X102692000Y-98195000D03*
D38*
X96392000Y-100475000D03*
D40*
X89540000Y-96795000D03*
X83760000Y-96795000D03*
D41*
X83300000Y-95730000D03*
X84100000Y-95730000D03*
X85400000Y-95730000D03*
X86400000Y-95730000D03*
X86900000Y-95730000D03*
X87900000Y-95730000D03*
X89200000Y-95730000D03*
X90000000Y-95730000D03*
X89700000Y-95730000D03*
X88900000Y-95730000D03*
X88400000Y-95730000D03*
X87400000Y-95730000D03*
X85900000Y-95730000D03*
X84900000Y-95730000D03*
X84400000Y-95730000D03*
X83600000Y-95730000D03*
D42*
X90970000Y-96295000D03*
X82330000Y-96295000D03*
D43*
X82330000Y-100475000D03*
X90970000Y-100475000D03*
M02*
