M48
; DRILL file {KiCad 6.0.2+dfsg-1} date Fri 06 Jan 2023 08:52:05 PM PST
; FORMAT={-:-/ absolute / metric / decimal}
; #@! TF.CreationDate,2023-01-06T20:52:05-08:00
; #@! TF.GenerationSoftware,Kicad,Pcbnew,6.0.2+dfsg-1
; #@! TF.FileFunction,Plated,1,4,PTH
FMAT,2
METRIC
; #@! TA.AperFunction,Plated,PTH,ViaDrill
T1C0.200
; #@! TA.AperFunction,Plated,PTH,ComponentDrill
T2C0.200
; #@! TA.AperFunction,Plated,PTH,ViaDrill
T3C0.400
; #@! TA.AperFunction,Plated,PTH,ComponentDrill
T4C0.600
; #@! TA.AperFunction,Plated,PTH,ComponentDrill
T5C1.000
; #@! TA.AperFunction,Plated,PTH,ComponentDrill
T6C1.190
; #@! TA.AperFunction,Plated,PTH,ComponentDrill
T7C3.900
%
G90
G05
T1
X81.9Y-74.8
X83.85Y-80.35
X83.85Y-81.95
X84.1Y-72.4
X84.25Y-90.25
X84.7Y-78.6
X85.9Y-73.0
X86.537Y-89.2
X87.387Y-89.2
X88.0Y-62.6
X88.0Y-63.5
X88.0Y-64.4
X88.0Y-65.2
X88.3Y-67.4
X88.5Y-61.9
X88.708Y-81.504
X89.309Y-82.105
X93.5Y-61.9
X94.0Y-79.75
X94.2Y-68.4
X94.4Y-66.3
X94.75Y-83.75
X94.9Y-67.5
X95.32Y-82.269
X95.5Y-61.9
X95.6Y-65.0
X95.6Y-66.0
X95.7Y-78.9
X96.3Y-78.0
X97.1Y-69.5
X98.5Y-80.6
X99.8Y-62.7
X100.0Y-74.5
X100.6Y-69.6
X100.75Y-88.25
X104.0Y-69.6
T2
X89.515Y-74.875
X89.515Y-76.15
X89.515Y-77.425
X90.79Y-74.875
X90.79Y-76.15
X90.79Y-77.425
X92.065Y-74.875
X92.065Y-76.15
X92.065Y-77.425
T3
X85.0Y-68.5
X87.25Y-84.25
X90.0Y-89.5
X91.35Y-85.2
X91.85Y-92.1
X93.5Y-95.5
X94.272Y-80.978
X96.25Y-94.75
X100.0Y-87.0
X102.0Y-91.5
X102.25Y-83.5
X103.75Y-89.0
X108.5Y-90.75
X108.5Y-95.25
T5
X78.5Y-74.5
X78.5Y-77.04
X78.5Y-79.58
X78.5Y-82.12
X78.5Y-84.66
X78.5Y-87.2
X78.5Y-89.74
X78.5Y-92.28
X78.5Y-94.82
X78.5Y-97.36
T6
X80.0Y-58.05
X80.0Y-60.59
X80.0Y-63.13
X80.0Y-65.67
X80.0Y-68.21
X80.0Y-70.75
X106.832Y-71.936
X106.832Y-74.476
X106.832Y-77.016
X106.832Y-79.556
X106.832Y-82.096
X106.832Y-84.636
T7
X70.0Y-60.0
X70.0Y-97.0
X117.0Y-60.0
X117.0Y-97.0
T4
X82.33Y-95.745G85X82.33Y-96.845
G05
X82.33Y-100.175G85X82.33Y-100.775
G05
X90.97Y-95.745G85X90.97Y-96.845
G05
X90.97Y-100.175G85X90.97Y-100.775
G05
T0
M30
