G04 #@! TF.GenerationSoftware,KiCad,Pcbnew,6.0.2+dfsg-1*
G04 #@! TF.CreationDate,2023-01-06T20:52:01-08:00*
G04 #@! TF.ProjectId,RP2040_debugger,52503230-3430-45f6-9465-627567676572,REV1*
G04 #@! TF.SameCoordinates,Original*
G04 #@! TF.FileFunction,Copper,L4,Bot*
G04 #@! TF.FilePolarity,Positive*
%FSLAX46Y46*%
G04 Gerber Fmt 4.6, Leading zero omitted, Abs format (unit mm)*
G04 Created by KiCad (PCBNEW 6.0.2+dfsg-1) date 2023-01-06 20:52:01*
%MOMM*%
%LPD*%
G01*
G04 APERTURE LIST*
G04 Aperture macros list*
%AMRoundRect*
0 Rectangle with rounded corners*
0 $1 Rounding radius*
0 $2 $3 $4 $5 $6 $7 $8 $9 X,Y pos of 4 corners*
0 Add a 4 corners polygon primitive as box body*
4,1,4,$2,$3,$4,$5,$6,$7,$8,$9,$2,$3,0*
0 Add four circle primitives for the rounded corners*
1,1,$1+$1,$2,$3*
1,1,$1+$1,$4,$5*
1,1,$1+$1,$6,$7*
1,1,$1+$1,$8,$9*
0 Add four rect primitives between the rounded corners*
20,1,$1+$1,$2,$3,$4,$5,0*
20,1,$1+$1,$4,$5,$6,$7,0*
20,1,$1+$1,$6,$7,$8,$9,0*
20,1,$1+$1,$8,$9,$2,$3,0*%
G04 Aperture macros list end*
G04 #@! TA.AperFunction,ComponentPad*
%ADD10C,0.600000*%
G04 #@! TD*
G04 #@! TA.AperFunction,ComponentPad*
%ADD11C,3.900000*%
G04 #@! TD*
G04 #@! TA.AperFunction,ComponentPad*
%ADD12R,1.700000X1.700000*%
G04 #@! TD*
G04 #@! TA.AperFunction,ComponentPad*
%ADD13O,1.700000X1.700000*%
G04 #@! TD*
G04 #@! TA.AperFunction,ComponentPad*
%ADD14RoundRect,0.250000X0.845000X-0.620000X0.845000X0.620000X-0.845000X0.620000X-0.845000X-0.620000X0*%
G04 #@! TD*
G04 #@! TA.AperFunction,ComponentPad*
%ADD15O,2.190000X1.740000*%
G04 #@! TD*
G04 #@! TA.AperFunction,ComponentPad*
%ADD16O,1.000000X2.100000*%
G04 #@! TD*
G04 #@! TA.AperFunction,ComponentPad*
%ADD17O,1.000000X1.600000*%
G04 #@! TD*
G04 #@! TA.AperFunction,ViaPad*
%ADD18C,0.600000*%
G04 #@! TD*
G04 #@! TA.AperFunction,ViaPad*
%ADD19C,0.800000*%
G04 #@! TD*
G04 #@! TA.AperFunction,Conductor*
%ADD20C,0.200000*%
G04 #@! TD*
G04 APERTURE END LIST*
D10*
X90790000Y-76150000D03*
X92065000Y-77425000D03*
X90790000Y-74875000D03*
X92065000Y-74875000D03*
X90790000Y-77425000D03*
X89515000Y-76150000D03*
X89515000Y-74875000D03*
X92065000Y-76150000D03*
X89515000Y-77425000D03*
D11*
X70000000Y-97000000D03*
D12*
X78500000Y-74500000D03*
D13*
X78500000Y-77040000D03*
X78500000Y-79580000D03*
X78500000Y-82120000D03*
X78500000Y-84660000D03*
X78500000Y-87200000D03*
X78500000Y-89740000D03*
X78500000Y-92280000D03*
X78500000Y-94820000D03*
X78500000Y-97360000D03*
D11*
X117000000Y-97000000D03*
X70000000Y-60000000D03*
D14*
X106832000Y-84636000D03*
D15*
X106832000Y-82096000D03*
X106832000Y-79556000D03*
X106832000Y-77016000D03*
X106832000Y-74476000D03*
X106832000Y-71936000D03*
D11*
X117000000Y-60000000D03*
D14*
X80000000Y-70750000D03*
D15*
X80000000Y-68210000D03*
X80000000Y-65670000D03*
X80000000Y-63130000D03*
X80000000Y-60590000D03*
X80000000Y-58050000D03*
D16*
X90970000Y-96295000D03*
X82330000Y-96295000D03*
D17*
X82330000Y-100475000D03*
X90970000Y-100475000D03*
D18*
X104000000Y-69600000D03*
X100600000Y-69600000D03*
X97100000Y-69500000D03*
D19*
X91850000Y-92100000D03*
X87250000Y-84250000D03*
X108500000Y-95250000D03*
D18*
X94400000Y-66300000D03*
X84250000Y-90250000D03*
X81900000Y-74800000D03*
X88000000Y-62600000D03*
X94900000Y-67500000D03*
X95500000Y-61900000D03*
X88300000Y-67400000D03*
D19*
X102250000Y-83500000D03*
X91350000Y-85200000D03*
D18*
X88500000Y-61900000D03*
D19*
X103750000Y-89000000D03*
D18*
X99800000Y-62700000D03*
X88000000Y-63500000D03*
X98500000Y-80600000D03*
X95600000Y-65000000D03*
X94200000Y-68400000D03*
D19*
X93500000Y-95500000D03*
D18*
X83850000Y-81950000D03*
X93500000Y-61900000D03*
X100000000Y-74500000D03*
D19*
X96250000Y-94750000D03*
D18*
X88000000Y-64400000D03*
X88000000Y-65200000D03*
X95600000Y-66000000D03*
X83850000Y-80350000D03*
D19*
X90000000Y-89500000D03*
D18*
X95700000Y-78900000D03*
X96300000Y-78000000D03*
X84700000Y-78600000D03*
D19*
X85000000Y-68500000D03*
D18*
X85900000Y-73000000D03*
X84100000Y-72400000D03*
X100750000Y-88250000D03*
X94000000Y-79750000D03*
D19*
X102000000Y-91500000D03*
X108500000Y-90750000D03*
D18*
X89309413Y-82105241D03*
X87387000Y-89200000D03*
X86537000Y-89200000D03*
X88708371Y-81504199D03*
D19*
X100000000Y-87000000D03*
X94272119Y-80977881D03*
D18*
X95319640Y-82268741D03*
X94750000Y-83750000D03*
D20*
X85000000Y-68500000D02*
X84000000Y-69500000D01*
X84000000Y-69500000D02*
X81250000Y-69500000D01*
X81250000Y-69500000D02*
X80000000Y-70750000D01*
X89309413Y-82105241D02*
X89026570Y-82105241D01*
X89026570Y-82105241D02*
X88825000Y-82306811D01*
X87387000Y-87613000D02*
X87387000Y-89200000D01*
X88825000Y-82306811D02*
X88825000Y-86175000D01*
X88825000Y-86175000D02*
X87387000Y-87613000D01*
X82900000Y-61900000D02*
X81590000Y-60590000D01*
X81590000Y-60590000D02*
X80250000Y-60590000D01*
X94900000Y-70000000D02*
X89700000Y-70000000D01*
X82900000Y-63200000D02*
X82900000Y-61900000D01*
X96700000Y-78900000D02*
X97300000Y-78300000D01*
X97300000Y-72400000D02*
X94900000Y-70000000D01*
X97300000Y-78300000D02*
X97300000Y-72400000D01*
X95700000Y-78900000D02*
X96700000Y-78900000D01*
X80250000Y-60590000D02*
X80000000Y-60340000D01*
X89700000Y-70000000D02*
X82900000Y-63200000D01*
X80250000Y-63130000D02*
X80000000Y-62880000D01*
X96300000Y-78000000D02*
X96300000Y-72800000D01*
X96300000Y-72800000D02*
X94500000Y-71000000D01*
X81430000Y-63130000D02*
X80250000Y-63130000D01*
X89300000Y-71000000D02*
X81430000Y-63130000D01*
X94500000Y-71000000D02*
X89300000Y-71000000D01*
X80500000Y-82042762D02*
X80500000Y-95360000D01*
X80500000Y-95360000D02*
X78500000Y-97360000D01*
X83942762Y-78600000D02*
X80500000Y-82042762D01*
X84700000Y-78600000D02*
X83942762Y-78600000D01*
X85900000Y-73700000D02*
X85900000Y-73000000D01*
X78500000Y-79580000D02*
X80020000Y-79580000D01*
X80020000Y-79580000D02*
X85900000Y-73700000D01*
X76700000Y-80320000D02*
X78500000Y-82120000D01*
X83700000Y-72800000D02*
X77600000Y-72800000D01*
X76700000Y-73700000D02*
X76700000Y-80320000D01*
X77600000Y-72800000D02*
X76700000Y-73700000D01*
X84100000Y-72400000D02*
X83700000Y-72800000D01*
X101500000Y-86750000D02*
X101500000Y-87500000D01*
X101500000Y-87500000D02*
X100750000Y-88250000D01*
X94000000Y-79750000D02*
X94500000Y-79750000D01*
X94500000Y-79750000D02*
X101500000Y-86750000D01*
X102000000Y-91500000D02*
X107750000Y-91500000D01*
X107750000Y-91500000D02*
X108500000Y-90750000D01*
X88375000Y-85506800D02*
X86537000Y-87344800D01*
X88708371Y-81504199D02*
X88708371Y-81787042D01*
X86537000Y-87344800D02*
X86537000Y-89200000D01*
X88375000Y-82120413D02*
X88375000Y-85506800D01*
X88708371Y-81787042D02*
X88375000Y-82120413D01*
X100000000Y-86101263D02*
X100000000Y-87000000D01*
X94272119Y-80977881D02*
X94876618Y-80977881D01*
X94876618Y-80977881D02*
X100000000Y-86101263D01*
X94750000Y-82838381D02*
X95319640Y-82268741D01*
X94750000Y-83750000D02*
X94750000Y-82838381D01*
M02*
