%FSLAX45Y45*%
G04 Gerber Fmt 4.5, Leading zero omitted, Abs format (unit mm)*
G04 Created by KiCad (PCBNEW 6.0.2+dfsg-1) date 2023-01-06 20:52:03*
%MOMM*%
%LPD*%
G01*
G04 APERTURE LIST*
%TA.AperFunction,Profile*%
%ADD10C,0.050000*%
%TD*%
%ADD11C,0.200000*%
%ADD12C,0.020000*%
%ADD13C,0.040000*%
%ADD14C,0.060000*%
%ADD15C,0.100000*%
%ADD16C,0.119000*%
%ADD17C,0.390000*%
G04 APERTURE END LIST*
D10*
X7000000Y-5500000D02*
G75*
G03*
X6500000Y-6000000I0J-500000D01*
G01*
X6500000Y-9750000D02*
X6500000Y-6000000D01*
X12200000Y-6000000D02*
X12200000Y-9750000D01*
X6500000Y-9750000D02*
G75*
G03*
X7000000Y-10250000I500000J0D01*
G01*
X12200000Y-6000000D02*
G75*
G03*
X11700000Y-5500000I-500000J0D01*
G01*
X11700000Y-5500000D02*
X7000000Y-5500000D01*
X11700000Y-10250000D02*
X7000000Y-10250000D01*
X11700000Y-10250000D02*
G75*
G03*
X12200000Y-9750000I0J500000D01*
G01*
D11*
D12*
X8180000Y-7470000D02*
X8200000Y-7490000D01*
X8200000Y-7470000D02*
X8180000Y-7490000D01*
X8375000Y-8025000D02*
X8395000Y-8045000D01*
X8395000Y-8025000D02*
X8375000Y-8045000D01*
X8375000Y-8185000D02*
X8395000Y-8205000D01*
X8395000Y-8185000D02*
X8375000Y-8205000D01*
X8400000Y-7230000D02*
X8420000Y-7250000D01*
X8420000Y-7230000D02*
X8400000Y-7250000D01*
X8415000Y-9015000D02*
X8435000Y-9035000D01*
X8435000Y-9015000D02*
X8415000Y-9035000D01*
X8460000Y-7850000D02*
X8480000Y-7870000D01*
X8480000Y-7850000D02*
X8460000Y-7870000D01*
X8580000Y-7290000D02*
X8600000Y-7310000D01*
X8600000Y-7290000D02*
X8580000Y-7310000D01*
X8643700Y-8910000D02*
X8663700Y-8930000D01*
X8663700Y-8910000D02*
X8643700Y-8930000D01*
X8728700Y-8910000D02*
X8748700Y-8930000D01*
X8748700Y-8910000D02*
X8728700Y-8930000D01*
X8790000Y-6250000D02*
X8810000Y-6270000D01*
X8810000Y-6250000D02*
X8790000Y-6270000D01*
X8790000Y-6340000D02*
X8810000Y-6360000D01*
X8810000Y-6340000D02*
X8790000Y-6360000D01*
X8790000Y-6430000D02*
X8810000Y-6450000D01*
X8810000Y-6430000D02*
X8790000Y-6450000D01*
X8790000Y-6510000D02*
X8810000Y-6530000D01*
X8810000Y-6510000D02*
X8790000Y-6530000D01*
X8820000Y-6730000D02*
X8840000Y-6750000D01*
X8840000Y-6730000D02*
X8820000Y-6750000D01*
X8840000Y-6180000D02*
X8860000Y-6200000D01*
X8860000Y-6180000D02*
X8840000Y-6200000D01*
X8860837Y-8140420D02*
X8880837Y-8160420D01*
X8880837Y-8140420D02*
X8860837Y-8160420D01*
X8920941Y-8200524D02*
X8940941Y-8220524D01*
X8940941Y-8200524D02*
X8920941Y-8220524D01*
X9340000Y-6180000D02*
X9360000Y-6200000D01*
X9360000Y-6180000D02*
X9340000Y-6200000D01*
X9390000Y-7965000D02*
X9410000Y-7985000D01*
X9410000Y-7965000D02*
X9390000Y-7985000D01*
X9410000Y-6830000D02*
X9430000Y-6850000D01*
X9430000Y-6830000D02*
X9410000Y-6850000D01*
X9430000Y-6620000D02*
X9450000Y-6640000D01*
X9450000Y-6620000D02*
X9430000Y-6640000D01*
X9465000Y-8365000D02*
X9485000Y-8385000D01*
X9485000Y-8365000D02*
X9465000Y-8385000D01*
X9480000Y-6740000D02*
X9500000Y-6760000D01*
X9500000Y-6740000D02*
X9480000Y-6760000D01*
X9521964Y-8216874D02*
X9541964Y-8236874D01*
X9541964Y-8216874D02*
X9521964Y-8236874D01*
X9540000Y-6180000D02*
X9560000Y-6200000D01*
X9560000Y-6180000D02*
X9540000Y-6200000D01*
X9550000Y-6490000D02*
X9570000Y-6510000D01*
X9570000Y-6490000D02*
X9550000Y-6510000D01*
X9550000Y-6590000D02*
X9570000Y-6610000D01*
X9570000Y-6590000D02*
X9550000Y-6610000D01*
X9560000Y-7880000D02*
X9580000Y-7900000D01*
X9580000Y-7880000D02*
X9560000Y-7900000D01*
X9620000Y-7790000D02*
X9640000Y-7810000D01*
X9640000Y-7790000D02*
X9620000Y-7810000D01*
X9700000Y-6940000D02*
X9720000Y-6960000D01*
X9720000Y-6940000D02*
X9700000Y-6960000D01*
X9840000Y-8050000D02*
X9860000Y-8070000D01*
X9860000Y-8050000D02*
X9840000Y-8070000D01*
X9970000Y-6260000D02*
X9990000Y-6280000D01*
X9990000Y-6260000D02*
X9970000Y-6280000D01*
X9990000Y-7440000D02*
X10010000Y-7460000D01*
X10010000Y-7440000D02*
X9990000Y-7460000D01*
X10050000Y-6950000D02*
X10070000Y-6970000D01*
X10070000Y-6950000D02*
X10050000Y-6970000D01*
X10065000Y-8815000D02*
X10085000Y-8835000D01*
X10085000Y-8815000D02*
X10065000Y-8835000D01*
X10390000Y-6950000D02*
X10410000Y-6970000D01*
X10410000Y-6950000D02*
X10390000Y-6970000D01*
X8961500Y-7487500D02*
G75*
G03*
X8961500Y-7487500I-10000J0D01*
G01*
X8961500Y-7615000D02*
G75*
G03*
X8961500Y-7615000I-10000J0D01*
G01*
X8961500Y-7742500D02*
G75*
G03*
X8961500Y-7742500I-10000J0D01*
G01*
X9089000Y-7487500D02*
G75*
G03*
X9089000Y-7487500I-10000J0D01*
G01*
X9089000Y-7615000D02*
G75*
G03*
X9089000Y-7615000I-10000J0D01*
G01*
X9089000Y-7742500D02*
G75*
G03*
X9089000Y-7742500I-10000J0D01*
G01*
X9216500Y-7487500D02*
G75*
G03*
X9216500Y-7487500I-10000J0D01*
G01*
X9216500Y-7615000D02*
G75*
G03*
X9216500Y-7615000I-10000J0D01*
G01*
X9216500Y-7742500D02*
G75*
G03*
X9216500Y-7742500I-10000J0D01*
G01*
D13*
X8500000Y-6830000D02*
X8500000Y-6870000D01*
X8480000Y-6850000D02*
X8520000Y-6850000D01*
X8725000Y-8405000D02*
X8725000Y-8445000D01*
X8705000Y-8425000D02*
X8745000Y-8425000D01*
X9000000Y-8930000D02*
X9000000Y-8970000D01*
X8980000Y-8950000D02*
X9020000Y-8950000D01*
X9135000Y-8500000D02*
X9135000Y-8540000D01*
X9115000Y-8520000D02*
X9155000Y-8520000D01*
X9185000Y-9190000D02*
X9185000Y-9230000D01*
X9165000Y-9210000D02*
X9205000Y-9210000D01*
X9350000Y-9530000D02*
X9350000Y-9570000D01*
X9330000Y-9550000D02*
X9370000Y-9550000D01*
X9427212Y-8077788D02*
X9427212Y-8117788D01*
X9407212Y-8097788D02*
X9447212Y-8097788D01*
X9625000Y-9455000D02*
X9625000Y-9495000D01*
X9605000Y-9475000D02*
X9645000Y-9475000D01*
X10000000Y-8680000D02*
X10000000Y-8720000D01*
X9980000Y-8700000D02*
X10020000Y-8700000D01*
X10200000Y-9130000D02*
X10200000Y-9170000D01*
X10180000Y-9150000D02*
X10220000Y-9150000D01*
X10225000Y-8330000D02*
X10225000Y-8370000D01*
X10205000Y-8350000D02*
X10245000Y-8350000D01*
X10375000Y-8880000D02*
X10375000Y-8920000D01*
X10355000Y-8900000D02*
X10395000Y-8900000D01*
X10850000Y-9055000D02*
X10850000Y-9095000D01*
X10830000Y-9075000D02*
X10870000Y-9075000D01*
X10850000Y-9505000D02*
X10850000Y-9545000D01*
X10830000Y-9525000D02*
X10870000Y-9525000D01*
D14*
X8254213Y-9650713D02*
X8254213Y-9608287D01*
X8211787Y-9608287D01*
X8211787Y-9650713D01*
X8254213Y-9650713D01*
D11*
X8213000Y-9574500D02*
X8213000Y-9684500D01*
X8253000Y-9574500D02*
X8253000Y-9684500D01*
X8213000Y-9684500D02*
G75*
G03*
X8253000Y-9684500I20000J0D01*
G01*
X8253000Y-9574500D02*
G75*
G03*
X8213000Y-9574500I-20000J0D01*
G01*
D14*
X8254213Y-10068713D02*
X8254213Y-10026287D01*
X8211787Y-10026287D01*
X8211787Y-10068713D01*
X8254213Y-10068713D01*
D11*
X8213000Y-10017500D02*
X8213000Y-10077500D01*
X8253000Y-10017500D02*
X8253000Y-10077500D01*
X8213000Y-10077500D02*
G75*
G03*
X8253000Y-10077500I20000J0D01*
G01*
X8253000Y-10017500D02*
G75*
G03*
X8213000Y-10017500I-20000J0D01*
G01*
D14*
X9118213Y-9650713D02*
X9118213Y-9608287D01*
X9075787Y-9608287D01*
X9075787Y-9650713D01*
X9118213Y-9650713D01*
D11*
X9077000Y-9574500D02*
X9077000Y-9684500D01*
X9117000Y-9574500D02*
X9117000Y-9684500D01*
X9077000Y-9684500D02*
G75*
G03*
X9117000Y-9684500I20000J0D01*
G01*
X9117000Y-9574500D02*
G75*
G03*
X9077000Y-9574500I-20000J0D01*
G01*
D14*
X9118213Y-10068713D02*
X9118213Y-10026287D01*
X9075787Y-10026287D01*
X9075787Y-10068713D01*
X9118213Y-10068713D01*
D11*
X9077000Y-10017500D02*
X9077000Y-10077500D01*
X9117000Y-10017500D02*
X9117000Y-10077500D01*
X9077000Y-10077500D02*
G75*
G03*
X9117000Y-10077500I20000J0D01*
G01*
X9117000Y-10017500D02*
G75*
G03*
X9077000Y-10017500I-20000J0D01*
G01*
D15*
X7850000Y-7500000D02*
X7900000Y-7450000D01*
X7850000Y-7400000D01*
X7800000Y-7450000D01*
X7850000Y-7500000D01*
X7850000Y-7754000D02*
X7900000Y-7704000D01*
X7850000Y-7654000D01*
X7800000Y-7704000D01*
X7850000Y-7754000D01*
X7850000Y-8008000D02*
X7900000Y-7958000D01*
X7850000Y-7908000D01*
X7800000Y-7958000D01*
X7850000Y-8008000D01*
X7850000Y-8262000D02*
X7900000Y-8212000D01*
X7850000Y-8162000D01*
X7800000Y-8212000D01*
X7850000Y-8262000D01*
X7850000Y-8516000D02*
X7900000Y-8466000D01*
X7850000Y-8416000D01*
X7800000Y-8466000D01*
X7850000Y-8516000D01*
X7850000Y-8770000D02*
X7900000Y-8720000D01*
X7850000Y-8670000D01*
X7800000Y-8720000D01*
X7850000Y-8770000D01*
X7850000Y-9024000D02*
X7900000Y-8974000D01*
X7850000Y-8924000D01*
X7800000Y-8974000D01*
X7850000Y-9024000D01*
X7850000Y-9278000D02*
X7900000Y-9228000D01*
X7850000Y-9178000D01*
X7800000Y-9228000D01*
X7850000Y-9278000D01*
X7850000Y-9532000D02*
X7900000Y-9482000D01*
X7850000Y-9432000D01*
X7800000Y-9482000D01*
X7850000Y-9532000D01*
X7850000Y-9786000D02*
X7900000Y-9736000D01*
X7850000Y-9686000D01*
X7800000Y-9736000D01*
X7850000Y-9786000D01*
D16*
X7940500Y-5745500D02*
X8059500Y-5864500D01*
X8059500Y-5745500D02*
X7940500Y-5864500D01*
X8059500Y-5805000D02*
G75*
G03*
X8059500Y-5805000I-59500J0D01*
G01*
X7940500Y-5999500D02*
X8059500Y-6118500D01*
X8059500Y-5999500D02*
X7940500Y-6118500D01*
X8059500Y-6059000D02*
G75*
G03*
X8059500Y-6059000I-59500J0D01*
G01*
X7940500Y-6253500D02*
X8059500Y-6372500D01*
X8059500Y-6253500D02*
X7940500Y-6372500D01*
X8059500Y-6313000D02*
G75*
G03*
X8059500Y-6313000I-59500J0D01*
G01*
X7940500Y-6507500D02*
X8059500Y-6626500D01*
X8059500Y-6507500D02*
X7940500Y-6626500D01*
X8059500Y-6567000D02*
G75*
G03*
X8059500Y-6567000I-59500J0D01*
G01*
X7940500Y-6761500D02*
X8059500Y-6880500D01*
X8059500Y-6761500D02*
X7940500Y-6880500D01*
X8059500Y-6821000D02*
G75*
G03*
X8059500Y-6821000I-59500J0D01*
G01*
X7940500Y-7015500D02*
X8059500Y-7134500D01*
X8059500Y-7015500D02*
X7940500Y-7134500D01*
X8059500Y-7075000D02*
G75*
G03*
X8059500Y-7075000I-59500J0D01*
G01*
X10623700Y-7134100D02*
X10742700Y-7253100D01*
X10742700Y-7134100D02*
X10623700Y-7253100D01*
X10742700Y-7193600D02*
G75*
G03*
X10742700Y-7193600I-59500J0D01*
G01*
X10623700Y-7388100D02*
X10742700Y-7507100D01*
X10742700Y-7388100D02*
X10623700Y-7507100D01*
X10742700Y-7447600D02*
G75*
G03*
X10742700Y-7447600I-59500J0D01*
G01*
X10623700Y-7642100D02*
X10742700Y-7761100D01*
X10742700Y-7642100D02*
X10623700Y-7761100D01*
X10742700Y-7701600D02*
G75*
G03*
X10742700Y-7701600I-59500J0D01*
G01*
X10623700Y-7896100D02*
X10742700Y-8015100D01*
X10742700Y-7896100D02*
X10623700Y-8015100D01*
X10742700Y-7955600D02*
G75*
G03*
X10742700Y-7955600I-59500J0D01*
G01*
X10623700Y-8150100D02*
X10742700Y-8269100D01*
X10742700Y-8150100D02*
X10623700Y-8269100D01*
X10742700Y-8209600D02*
G75*
G03*
X10742700Y-8209600I-59500J0D01*
G01*
X10623700Y-8404100D02*
X10742700Y-8523100D01*
X10742700Y-8404100D02*
X10623700Y-8523100D01*
X10742700Y-8463600D02*
G75*
G03*
X10742700Y-8463600I-59500J0D01*
G01*
D17*
X6805000Y-5805000D02*
X7195000Y-6195000D01*
X7195000Y-5805000D02*
X6805000Y-6195000D01*
X7000000Y-5805000D02*
X7000000Y-6195000D01*
X6805000Y-6000000D02*
X7195000Y-6000000D01*
X6805000Y-9505000D02*
X7195000Y-9895000D01*
X7195000Y-9505000D02*
X6805000Y-9895000D01*
X7000000Y-9505000D02*
X7000000Y-9895000D01*
X6805000Y-9700000D02*
X7195000Y-9700000D01*
X11505000Y-5805000D02*
X11895000Y-6195000D01*
X11895000Y-5805000D02*
X11505000Y-6195000D01*
X11700000Y-5805000D02*
X11700000Y-6195000D01*
X11505000Y-6000000D02*
X11895000Y-6000000D01*
X11505000Y-9505000D02*
X11895000Y-9895000D01*
X11895000Y-9505000D02*
X11505000Y-9895000D01*
X11700000Y-9505000D02*
X11700000Y-9895000D01*
X11505000Y-9700000D02*
X11895000Y-9700000D01*
D11*
X6755119Y-10562976D02*
X6755119Y-10362976D01*
X6802738Y-10362976D01*
X6831309Y-10372500D01*
X6850357Y-10391548D01*
X6859881Y-10410595D01*
X6869405Y-10448690D01*
X6869405Y-10477262D01*
X6859881Y-10515357D01*
X6850357Y-10534405D01*
X6831309Y-10553452D01*
X6802738Y-10562976D01*
X6755119Y-10562976D01*
X6955119Y-10562976D02*
X6955119Y-10429643D01*
X6955119Y-10467738D02*
X6964643Y-10448690D01*
X6974167Y-10439167D01*
X6993214Y-10429643D01*
X7012262Y-10429643D01*
X7078928Y-10562976D02*
X7078928Y-10429643D01*
X7078928Y-10362976D02*
X7069405Y-10372500D01*
X7078928Y-10382024D01*
X7088452Y-10372500D01*
X7078928Y-10362976D01*
X7078928Y-10382024D01*
X7202738Y-10562976D02*
X7183690Y-10553452D01*
X7174167Y-10534405D01*
X7174167Y-10362976D01*
X7307500Y-10562976D02*
X7288452Y-10553452D01*
X7278928Y-10534405D01*
X7278928Y-10362976D01*
X7536071Y-10562976D02*
X7536071Y-10362976D01*
X7602738Y-10505833D01*
X7669405Y-10362976D01*
X7669405Y-10562976D01*
X7850357Y-10562976D02*
X7850357Y-10458214D01*
X7840833Y-10439167D01*
X7821786Y-10429643D01*
X7783690Y-10429643D01*
X7764643Y-10439167D01*
X7850357Y-10553452D02*
X7831309Y-10562976D01*
X7783690Y-10562976D01*
X7764643Y-10553452D01*
X7755119Y-10534405D01*
X7755119Y-10515357D01*
X7764643Y-10496310D01*
X7783690Y-10486786D01*
X7831309Y-10486786D01*
X7850357Y-10477262D01*
X7945595Y-10429643D02*
X7945595Y-10629643D01*
X7945595Y-10439167D02*
X7964643Y-10429643D01*
X8002738Y-10429643D01*
X8021786Y-10439167D01*
X8031309Y-10448690D01*
X8040833Y-10467738D01*
X8040833Y-10524881D01*
X8031309Y-10543929D01*
X8021786Y-10553452D01*
X8002738Y-10562976D01*
X7964643Y-10562976D01*
X7945595Y-10553452D01*
X8126548Y-10543929D02*
X8136071Y-10553452D01*
X8126548Y-10562976D01*
X8117024Y-10553452D01*
X8126548Y-10543929D01*
X8126548Y-10562976D01*
X8126548Y-10439167D02*
X8136071Y-10448690D01*
X8126548Y-10458214D01*
X8117024Y-10448690D01*
X8126548Y-10439167D01*
X8126548Y-10458214D01*
D12*
X6477500Y-10882500D02*
X6497500Y-10902500D01*
X6497500Y-10882500D02*
X6477500Y-10902500D01*
D11*
X6793214Y-10782976D02*
X6812262Y-10782976D01*
X6831309Y-10792500D01*
X6840833Y-10802024D01*
X6850357Y-10821071D01*
X6859881Y-10859167D01*
X6859881Y-10906786D01*
X6850357Y-10944881D01*
X6840833Y-10963929D01*
X6831309Y-10973452D01*
X6812262Y-10982976D01*
X6793214Y-10982976D01*
X6774167Y-10973452D01*
X6764643Y-10963929D01*
X6755119Y-10944881D01*
X6745595Y-10906786D01*
X6745595Y-10859167D01*
X6755119Y-10821071D01*
X6764643Y-10802024D01*
X6774167Y-10792500D01*
X6793214Y-10782976D01*
X6945595Y-10963929D02*
X6955119Y-10973452D01*
X6945595Y-10982976D01*
X6936071Y-10973452D01*
X6945595Y-10963929D01*
X6945595Y-10982976D01*
X7031309Y-10802024D02*
X7040833Y-10792500D01*
X7059881Y-10782976D01*
X7107500Y-10782976D01*
X7126548Y-10792500D01*
X7136071Y-10802024D01*
X7145595Y-10821071D01*
X7145595Y-10840119D01*
X7136071Y-10868690D01*
X7021786Y-10982976D01*
X7145595Y-10982976D01*
X7269405Y-10782976D02*
X7288452Y-10782976D01*
X7307500Y-10792500D01*
X7317024Y-10802024D01*
X7326548Y-10821071D01*
X7336071Y-10859167D01*
X7336071Y-10906786D01*
X7326548Y-10944881D01*
X7317024Y-10963929D01*
X7307500Y-10973452D01*
X7288452Y-10982976D01*
X7269405Y-10982976D01*
X7250357Y-10973452D01*
X7240833Y-10963929D01*
X7231309Y-10944881D01*
X7221786Y-10906786D01*
X7221786Y-10859167D01*
X7231309Y-10821071D01*
X7240833Y-10802024D01*
X7250357Y-10792500D01*
X7269405Y-10782976D01*
X7459881Y-10782976D02*
X7478928Y-10782976D01*
X7497976Y-10792500D01*
X7507500Y-10802024D01*
X7517024Y-10821071D01*
X7526548Y-10859167D01*
X7526548Y-10906786D01*
X7517024Y-10944881D01*
X7507500Y-10963929D01*
X7497976Y-10973452D01*
X7478928Y-10982976D01*
X7459881Y-10982976D01*
X7440833Y-10973452D01*
X7431309Y-10963929D01*
X7421786Y-10944881D01*
X7412262Y-10906786D01*
X7412262Y-10859167D01*
X7421786Y-10821071D01*
X7431309Y-10802024D01*
X7440833Y-10792500D01*
X7459881Y-10782976D01*
X7612262Y-10982976D02*
X7612262Y-10849643D01*
X7612262Y-10868690D02*
X7621786Y-10859167D01*
X7640833Y-10849643D01*
X7669405Y-10849643D01*
X7688452Y-10859167D01*
X7697976Y-10878214D01*
X7697976Y-10982976D01*
X7697976Y-10878214D02*
X7707500Y-10859167D01*
X7726548Y-10849643D01*
X7755119Y-10849643D01*
X7774167Y-10859167D01*
X7783690Y-10878214D01*
X7783690Y-10982976D01*
X7878928Y-10982976D02*
X7878928Y-10849643D01*
X7878928Y-10868690D02*
X7888452Y-10859167D01*
X7907500Y-10849643D01*
X7936071Y-10849643D01*
X7955119Y-10859167D01*
X7964643Y-10878214D01*
X7964643Y-10982976D01*
X7964643Y-10878214D02*
X7974167Y-10859167D01*
X7993214Y-10849643D01*
X8021786Y-10849643D01*
X8040833Y-10859167D01*
X8050357Y-10878214D01*
X8050357Y-10982976D01*
X8440833Y-10773452D02*
X8269405Y-11030595D01*
X8697976Y-10782976D02*
X8717024Y-10782976D01*
X8736071Y-10792500D01*
X8745595Y-10802024D01*
X8755119Y-10821071D01*
X8764643Y-10859167D01*
X8764643Y-10906786D01*
X8755119Y-10944881D01*
X8745595Y-10963929D01*
X8736071Y-10973452D01*
X8717024Y-10982976D01*
X8697976Y-10982976D01*
X8678929Y-10973452D01*
X8669405Y-10963929D01*
X8659881Y-10944881D01*
X8650357Y-10906786D01*
X8650357Y-10859167D01*
X8659881Y-10821071D01*
X8669405Y-10802024D01*
X8678929Y-10792500D01*
X8697976Y-10782976D01*
X8850357Y-10963929D02*
X8859881Y-10973452D01*
X8850357Y-10982976D01*
X8840833Y-10973452D01*
X8850357Y-10963929D01*
X8850357Y-10982976D01*
X8983690Y-10782976D02*
X9002738Y-10782976D01*
X9021786Y-10792500D01*
X9031310Y-10802024D01*
X9040833Y-10821071D01*
X9050357Y-10859167D01*
X9050357Y-10906786D01*
X9040833Y-10944881D01*
X9031310Y-10963929D01*
X9021786Y-10973452D01*
X9002738Y-10982976D01*
X8983690Y-10982976D01*
X8964643Y-10973452D01*
X8955119Y-10963929D01*
X8945595Y-10944881D01*
X8936071Y-10906786D01*
X8936071Y-10859167D01*
X8945595Y-10821071D01*
X8955119Y-10802024D01*
X8964643Y-10792500D01*
X8983690Y-10782976D01*
X9174167Y-10782976D02*
X9193214Y-10782976D01*
X9212262Y-10792500D01*
X9221786Y-10802024D01*
X9231310Y-10821071D01*
X9240833Y-10859167D01*
X9240833Y-10906786D01*
X9231310Y-10944881D01*
X9221786Y-10963929D01*
X9212262Y-10973452D01*
X9193214Y-10982976D01*
X9174167Y-10982976D01*
X9155119Y-10973452D01*
X9145595Y-10963929D01*
X9136071Y-10944881D01*
X9126548Y-10906786D01*
X9126548Y-10859167D01*
X9136071Y-10821071D01*
X9145595Y-10802024D01*
X9155119Y-10792500D01*
X9174167Y-10782976D01*
X9307500Y-10782976D02*
X9440833Y-10782976D01*
X9355119Y-10982976D01*
X9526548Y-10982976D02*
X9564643Y-10982976D01*
X9583690Y-10973452D01*
X9593214Y-10963929D01*
X9612262Y-10935357D01*
X9621786Y-10897262D01*
X9621786Y-10821071D01*
X9612262Y-10802024D01*
X9602738Y-10792500D01*
X9583690Y-10782976D01*
X9545595Y-10782976D01*
X9526548Y-10792500D01*
X9517024Y-10802024D01*
X9507500Y-10821071D01*
X9507500Y-10868690D01*
X9517024Y-10887738D01*
X9526548Y-10897262D01*
X9545595Y-10906786D01*
X9583690Y-10906786D01*
X9602738Y-10897262D01*
X9612262Y-10887738D01*
X9621786Y-10868690D01*
X9697976Y-10782976D02*
X9697976Y-10821071D01*
X9774167Y-10782976D02*
X9774167Y-10821071D01*
X10069405Y-11059167D02*
X10059881Y-11049643D01*
X10040833Y-11021071D01*
X10031310Y-11002024D01*
X10021786Y-10973452D01*
X10012262Y-10925833D01*
X10012262Y-10887738D01*
X10021786Y-10840119D01*
X10031310Y-10811548D01*
X10040833Y-10792500D01*
X10059881Y-10763929D01*
X10069405Y-10754405D01*
X10126548Y-10782976D02*
X10250357Y-10782976D01*
X10183690Y-10859167D01*
X10212262Y-10859167D01*
X10231310Y-10868690D01*
X10240833Y-10878214D01*
X10250357Y-10897262D01*
X10250357Y-10944881D01*
X10240833Y-10963929D01*
X10231310Y-10973452D01*
X10212262Y-10982976D01*
X10155119Y-10982976D01*
X10136071Y-10973452D01*
X10126548Y-10963929D01*
X10421786Y-10782976D02*
X10383690Y-10782976D01*
X10364643Y-10792500D01*
X10355119Y-10802024D01*
X10336071Y-10830595D01*
X10326548Y-10868690D01*
X10326548Y-10944881D01*
X10336071Y-10963929D01*
X10345595Y-10973452D01*
X10364643Y-10982976D01*
X10402738Y-10982976D01*
X10421786Y-10973452D01*
X10431310Y-10963929D01*
X10440833Y-10944881D01*
X10440833Y-10897262D01*
X10431310Y-10878214D01*
X10421786Y-10868690D01*
X10402738Y-10859167D01*
X10364643Y-10859167D01*
X10345595Y-10868690D01*
X10336071Y-10878214D01*
X10326548Y-10897262D01*
X10678929Y-10982976D02*
X10678929Y-10782976D01*
X10764643Y-10982976D02*
X10764643Y-10878214D01*
X10755119Y-10859167D01*
X10736071Y-10849643D01*
X10707500Y-10849643D01*
X10688452Y-10859167D01*
X10678929Y-10868690D01*
X10888452Y-10982976D02*
X10869405Y-10973452D01*
X10859881Y-10963929D01*
X10850357Y-10944881D01*
X10850357Y-10887738D01*
X10859881Y-10868690D01*
X10869405Y-10859167D01*
X10888452Y-10849643D01*
X10917024Y-10849643D01*
X10936071Y-10859167D01*
X10945595Y-10868690D01*
X10955119Y-10887738D01*
X10955119Y-10944881D01*
X10945595Y-10963929D01*
X10936071Y-10973452D01*
X10917024Y-10982976D01*
X10888452Y-10982976D01*
X11069405Y-10982976D02*
X11050357Y-10973452D01*
X11040833Y-10954405D01*
X11040833Y-10782976D01*
X11221786Y-10973452D02*
X11202738Y-10982976D01*
X11164643Y-10982976D01*
X11145595Y-10973452D01*
X11136071Y-10954405D01*
X11136071Y-10878214D01*
X11145595Y-10859167D01*
X11164643Y-10849643D01*
X11202738Y-10849643D01*
X11221786Y-10859167D01*
X11231309Y-10878214D01*
X11231309Y-10897262D01*
X11136071Y-10916310D01*
X11307500Y-10973452D02*
X11326548Y-10982976D01*
X11364643Y-10982976D01*
X11383690Y-10973452D01*
X11393214Y-10954405D01*
X11393214Y-10944881D01*
X11383690Y-10925833D01*
X11364643Y-10916310D01*
X11336071Y-10916310D01*
X11317024Y-10906786D01*
X11307500Y-10887738D01*
X11307500Y-10878214D01*
X11317024Y-10859167D01*
X11336071Y-10849643D01*
X11364643Y-10849643D01*
X11383690Y-10859167D01*
X11459881Y-11059167D02*
X11469405Y-11049643D01*
X11488452Y-11021071D01*
X11497976Y-11002024D01*
X11507500Y-10973452D01*
X11517024Y-10925833D01*
X11517024Y-10887738D01*
X11507500Y-10840119D01*
X11497976Y-10811548D01*
X11488452Y-10792500D01*
X11469405Y-10763929D01*
X11459881Y-10754405D01*
D12*
X6497500Y-11156500D02*
G75*
G03*
X6497500Y-11156500I-10000J0D01*
G01*
D11*
X6793214Y-11046976D02*
X6812262Y-11046976D01*
X6831309Y-11056500D01*
X6840833Y-11066024D01*
X6850357Y-11085071D01*
X6859881Y-11123167D01*
X6859881Y-11170786D01*
X6850357Y-11208881D01*
X6840833Y-11227928D01*
X6831309Y-11237452D01*
X6812262Y-11246976D01*
X6793214Y-11246976D01*
X6774167Y-11237452D01*
X6764643Y-11227928D01*
X6755119Y-11208881D01*
X6745595Y-11170786D01*
X6745595Y-11123167D01*
X6755119Y-11085071D01*
X6764643Y-11066024D01*
X6774167Y-11056500D01*
X6793214Y-11046976D01*
X6945595Y-11227928D02*
X6955119Y-11237452D01*
X6945595Y-11246976D01*
X6936071Y-11237452D01*
X6945595Y-11227928D01*
X6945595Y-11246976D01*
X7031309Y-11066024D02*
X7040833Y-11056500D01*
X7059881Y-11046976D01*
X7107500Y-11046976D01*
X7126548Y-11056500D01*
X7136071Y-11066024D01*
X7145595Y-11085071D01*
X7145595Y-11104119D01*
X7136071Y-11132690D01*
X7021786Y-11246976D01*
X7145595Y-11246976D01*
X7269405Y-11046976D02*
X7288452Y-11046976D01*
X7307500Y-11056500D01*
X7317024Y-11066024D01*
X7326548Y-11085071D01*
X7336071Y-11123167D01*
X7336071Y-11170786D01*
X7326548Y-11208881D01*
X7317024Y-11227928D01*
X7307500Y-11237452D01*
X7288452Y-11246976D01*
X7269405Y-11246976D01*
X7250357Y-11237452D01*
X7240833Y-11227928D01*
X7231309Y-11208881D01*
X7221786Y-11170786D01*
X7221786Y-11123167D01*
X7231309Y-11085071D01*
X7240833Y-11066024D01*
X7250357Y-11056500D01*
X7269405Y-11046976D01*
X7459881Y-11046976D02*
X7478928Y-11046976D01*
X7497976Y-11056500D01*
X7507500Y-11066024D01*
X7517024Y-11085071D01*
X7526548Y-11123167D01*
X7526548Y-11170786D01*
X7517024Y-11208881D01*
X7507500Y-11227928D01*
X7497976Y-11237452D01*
X7478928Y-11246976D01*
X7459881Y-11246976D01*
X7440833Y-11237452D01*
X7431309Y-11227928D01*
X7421786Y-11208881D01*
X7412262Y-11170786D01*
X7412262Y-11123167D01*
X7421786Y-11085071D01*
X7431309Y-11066024D01*
X7440833Y-11056500D01*
X7459881Y-11046976D01*
X7612262Y-11246976D02*
X7612262Y-11113643D01*
X7612262Y-11132690D02*
X7621786Y-11123167D01*
X7640833Y-11113643D01*
X7669405Y-11113643D01*
X7688452Y-11123167D01*
X7697976Y-11142214D01*
X7697976Y-11246976D01*
X7697976Y-11142214D02*
X7707500Y-11123167D01*
X7726548Y-11113643D01*
X7755119Y-11113643D01*
X7774167Y-11123167D01*
X7783690Y-11142214D01*
X7783690Y-11246976D01*
X7878928Y-11246976D02*
X7878928Y-11113643D01*
X7878928Y-11132690D02*
X7888452Y-11123167D01*
X7907500Y-11113643D01*
X7936071Y-11113643D01*
X7955119Y-11123167D01*
X7964643Y-11142214D01*
X7964643Y-11246976D01*
X7964643Y-11142214D02*
X7974167Y-11123167D01*
X7993214Y-11113643D01*
X8021786Y-11113643D01*
X8040833Y-11123167D01*
X8050357Y-11142214D01*
X8050357Y-11246976D01*
X8440833Y-11037452D02*
X8269405Y-11294595D01*
X8697976Y-11046976D02*
X8717024Y-11046976D01*
X8736071Y-11056500D01*
X8745595Y-11066024D01*
X8755119Y-11085071D01*
X8764643Y-11123167D01*
X8764643Y-11170786D01*
X8755119Y-11208881D01*
X8745595Y-11227928D01*
X8736071Y-11237452D01*
X8717024Y-11246976D01*
X8697976Y-11246976D01*
X8678929Y-11237452D01*
X8669405Y-11227928D01*
X8659881Y-11208881D01*
X8650357Y-11170786D01*
X8650357Y-11123167D01*
X8659881Y-11085071D01*
X8669405Y-11066024D01*
X8678929Y-11056500D01*
X8697976Y-11046976D01*
X8850357Y-11227928D02*
X8859881Y-11237452D01*
X8850357Y-11246976D01*
X8840833Y-11237452D01*
X8850357Y-11227928D01*
X8850357Y-11246976D01*
X8983690Y-11046976D02*
X9002738Y-11046976D01*
X9021786Y-11056500D01*
X9031310Y-11066024D01*
X9040833Y-11085071D01*
X9050357Y-11123167D01*
X9050357Y-11170786D01*
X9040833Y-11208881D01*
X9031310Y-11227928D01*
X9021786Y-11237452D01*
X9002738Y-11246976D01*
X8983690Y-11246976D01*
X8964643Y-11237452D01*
X8955119Y-11227928D01*
X8945595Y-11208881D01*
X8936071Y-11170786D01*
X8936071Y-11123167D01*
X8945595Y-11085071D01*
X8955119Y-11066024D01*
X8964643Y-11056500D01*
X8983690Y-11046976D01*
X9174167Y-11046976D02*
X9193214Y-11046976D01*
X9212262Y-11056500D01*
X9221786Y-11066024D01*
X9231310Y-11085071D01*
X9240833Y-11123167D01*
X9240833Y-11170786D01*
X9231310Y-11208881D01*
X9221786Y-11227928D01*
X9212262Y-11237452D01*
X9193214Y-11246976D01*
X9174167Y-11246976D01*
X9155119Y-11237452D01*
X9145595Y-11227928D01*
X9136071Y-11208881D01*
X9126548Y-11170786D01*
X9126548Y-11123167D01*
X9136071Y-11085071D01*
X9145595Y-11066024D01*
X9155119Y-11056500D01*
X9174167Y-11046976D01*
X9307500Y-11046976D02*
X9440833Y-11046976D01*
X9355119Y-11246976D01*
X9526548Y-11246976D02*
X9564643Y-11246976D01*
X9583690Y-11237452D01*
X9593214Y-11227928D01*
X9612262Y-11199357D01*
X9621786Y-11161262D01*
X9621786Y-11085071D01*
X9612262Y-11066024D01*
X9602738Y-11056500D01*
X9583690Y-11046976D01*
X9545595Y-11046976D01*
X9526548Y-11056500D01*
X9517024Y-11066024D01*
X9507500Y-11085071D01*
X9507500Y-11132690D01*
X9517024Y-11151738D01*
X9526548Y-11161262D01*
X9545595Y-11170786D01*
X9583690Y-11170786D01*
X9602738Y-11161262D01*
X9612262Y-11151738D01*
X9621786Y-11132690D01*
X9697976Y-11046976D02*
X9697976Y-11085071D01*
X9774167Y-11046976D02*
X9774167Y-11085071D01*
X10069405Y-11323167D02*
X10059881Y-11313643D01*
X10040833Y-11285071D01*
X10031310Y-11266024D01*
X10021786Y-11237452D01*
X10012262Y-11189833D01*
X10012262Y-11151738D01*
X10021786Y-11104119D01*
X10031310Y-11075548D01*
X10040833Y-11056500D01*
X10059881Y-11027929D01*
X10069405Y-11018405D01*
X10155119Y-11246976D02*
X10193214Y-11246976D01*
X10212262Y-11237452D01*
X10221786Y-11227928D01*
X10240833Y-11199357D01*
X10250357Y-11161262D01*
X10250357Y-11085071D01*
X10240833Y-11066024D01*
X10231310Y-11056500D01*
X10212262Y-11046976D01*
X10174167Y-11046976D01*
X10155119Y-11056500D01*
X10145595Y-11066024D01*
X10136071Y-11085071D01*
X10136071Y-11132690D01*
X10145595Y-11151738D01*
X10155119Y-11161262D01*
X10174167Y-11170786D01*
X10212262Y-11170786D01*
X10231310Y-11161262D01*
X10240833Y-11151738D01*
X10250357Y-11132690D01*
X10488452Y-11246976D02*
X10488452Y-11046976D01*
X10574167Y-11246976D02*
X10574167Y-11142214D01*
X10564643Y-11123167D01*
X10545595Y-11113643D01*
X10517024Y-11113643D01*
X10497976Y-11123167D01*
X10488452Y-11132690D01*
X10697976Y-11246976D02*
X10678929Y-11237452D01*
X10669405Y-11227928D01*
X10659881Y-11208881D01*
X10659881Y-11151738D01*
X10669405Y-11132690D01*
X10678929Y-11123167D01*
X10697976Y-11113643D01*
X10726548Y-11113643D01*
X10745595Y-11123167D01*
X10755119Y-11132690D01*
X10764643Y-11151738D01*
X10764643Y-11208881D01*
X10755119Y-11227928D01*
X10745595Y-11237452D01*
X10726548Y-11246976D01*
X10697976Y-11246976D01*
X10878929Y-11246976D02*
X10859881Y-11237452D01*
X10850357Y-11218405D01*
X10850357Y-11046976D01*
X11031310Y-11237452D02*
X11012262Y-11246976D01*
X10974167Y-11246976D01*
X10955119Y-11237452D01*
X10945595Y-11218405D01*
X10945595Y-11142214D01*
X10955119Y-11123167D01*
X10974167Y-11113643D01*
X11012262Y-11113643D01*
X11031310Y-11123167D01*
X11040833Y-11142214D01*
X11040833Y-11161262D01*
X10945595Y-11180310D01*
X11117024Y-11237452D02*
X11136071Y-11246976D01*
X11174167Y-11246976D01*
X11193214Y-11237452D01*
X11202738Y-11218405D01*
X11202738Y-11208881D01*
X11193214Y-11189833D01*
X11174167Y-11180310D01*
X11145595Y-11180310D01*
X11126548Y-11170786D01*
X11117024Y-11151738D01*
X11117024Y-11142214D01*
X11126548Y-11123167D01*
X11145595Y-11113643D01*
X11174167Y-11113643D01*
X11193214Y-11123167D01*
X11269405Y-11323167D02*
X11278928Y-11313643D01*
X11297976Y-11285071D01*
X11307500Y-11266024D01*
X11317024Y-11237452D01*
X11326548Y-11189833D01*
X11326548Y-11151738D01*
X11317024Y-11104119D01*
X11307500Y-11075548D01*
X11297976Y-11056500D01*
X11278928Y-11027929D01*
X11269405Y-11018405D01*
D13*
X6477500Y-11400500D02*
X6477500Y-11440500D01*
X6457500Y-11420500D02*
X6497500Y-11420500D01*
D11*
X6793214Y-11310976D02*
X6812262Y-11310976D01*
X6831309Y-11320500D01*
X6840833Y-11330024D01*
X6850357Y-11349071D01*
X6859881Y-11387167D01*
X6859881Y-11434786D01*
X6850357Y-11472881D01*
X6840833Y-11491928D01*
X6831309Y-11501452D01*
X6812262Y-11510976D01*
X6793214Y-11510976D01*
X6774167Y-11501452D01*
X6764643Y-11491928D01*
X6755119Y-11472881D01*
X6745595Y-11434786D01*
X6745595Y-11387167D01*
X6755119Y-11349071D01*
X6764643Y-11330024D01*
X6774167Y-11320500D01*
X6793214Y-11310976D01*
X6945595Y-11491928D02*
X6955119Y-11501452D01*
X6945595Y-11510976D01*
X6936071Y-11501452D01*
X6945595Y-11491928D01*
X6945595Y-11510976D01*
X7126548Y-11377643D02*
X7126548Y-11510976D01*
X7078928Y-11301452D02*
X7031309Y-11444309D01*
X7155119Y-11444309D01*
X7269405Y-11310976D02*
X7288452Y-11310976D01*
X7307500Y-11320500D01*
X7317024Y-11330024D01*
X7326548Y-11349071D01*
X7336071Y-11387167D01*
X7336071Y-11434786D01*
X7326548Y-11472881D01*
X7317024Y-11491928D01*
X7307500Y-11501452D01*
X7288452Y-11510976D01*
X7269405Y-11510976D01*
X7250357Y-11501452D01*
X7240833Y-11491928D01*
X7231309Y-11472881D01*
X7221786Y-11434786D01*
X7221786Y-11387167D01*
X7231309Y-11349071D01*
X7240833Y-11330024D01*
X7250357Y-11320500D01*
X7269405Y-11310976D01*
X7459881Y-11310976D02*
X7478928Y-11310976D01*
X7497976Y-11320500D01*
X7507500Y-11330024D01*
X7517024Y-11349071D01*
X7526548Y-11387167D01*
X7526548Y-11434786D01*
X7517024Y-11472881D01*
X7507500Y-11491928D01*
X7497976Y-11501452D01*
X7478928Y-11510976D01*
X7459881Y-11510976D01*
X7440833Y-11501452D01*
X7431309Y-11491928D01*
X7421786Y-11472881D01*
X7412262Y-11434786D01*
X7412262Y-11387167D01*
X7421786Y-11349071D01*
X7431309Y-11330024D01*
X7440833Y-11320500D01*
X7459881Y-11310976D01*
X7612262Y-11510976D02*
X7612262Y-11377643D01*
X7612262Y-11396690D02*
X7621786Y-11387167D01*
X7640833Y-11377643D01*
X7669405Y-11377643D01*
X7688452Y-11387167D01*
X7697976Y-11406214D01*
X7697976Y-11510976D01*
X7697976Y-11406214D02*
X7707500Y-11387167D01*
X7726548Y-11377643D01*
X7755119Y-11377643D01*
X7774167Y-11387167D01*
X7783690Y-11406214D01*
X7783690Y-11510976D01*
X7878928Y-11510976D02*
X7878928Y-11377643D01*
X7878928Y-11396690D02*
X7888452Y-11387167D01*
X7907500Y-11377643D01*
X7936071Y-11377643D01*
X7955119Y-11387167D01*
X7964643Y-11406214D01*
X7964643Y-11510976D01*
X7964643Y-11406214D02*
X7974167Y-11387167D01*
X7993214Y-11377643D01*
X8021786Y-11377643D01*
X8040833Y-11387167D01*
X8050357Y-11406214D01*
X8050357Y-11510976D01*
X8440833Y-11301452D02*
X8269405Y-11558595D01*
X8697976Y-11310976D02*
X8717024Y-11310976D01*
X8736071Y-11320500D01*
X8745595Y-11330024D01*
X8755119Y-11349071D01*
X8764643Y-11387167D01*
X8764643Y-11434786D01*
X8755119Y-11472881D01*
X8745595Y-11491928D01*
X8736071Y-11501452D01*
X8717024Y-11510976D01*
X8697976Y-11510976D01*
X8678929Y-11501452D01*
X8669405Y-11491928D01*
X8659881Y-11472881D01*
X8650357Y-11434786D01*
X8650357Y-11387167D01*
X8659881Y-11349071D01*
X8669405Y-11330024D01*
X8678929Y-11320500D01*
X8697976Y-11310976D01*
X8850357Y-11491928D02*
X8859881Y-11501452D01*
X8850357Y-11510976D01*
X8840833Y-11501452D01*
X8850357Y-11491928D01*
X8850357Y-11510976D01*
X8983690Y-11310976D02*
X9002738Y-11310976D01*
X9021786Y-11320500D01*
X9031310Y-11330024D01*
X9040833Y-11349071D01*
X9050357Y-11387167D01*
X9050357Y-11434786D01*
X9040833Y-11472881D01*
X9031310Y-11491928D01*
X9021786Y-11501452D01*
X9002738Y-11510976D01*
X8983690Y-11510976D01*
X8964643Y-11501452D01*
X8955119Y-11491928D01*
X8945595Y-11472881D01*
X8936071Y-11434786D01*
X8936071Y-11387167D01*
X8945595Y-11349071D01*
X8955119Y-11330024D01*
X8964643Y-11320500D01*
X8983690Y-11310976D01*
X9240833Y-11510976D02*
X9126548Y-11510976D01*
X9183690Y-11510976D02*
X9183690Y-11310976D01*
X9164643Y-11339548D01*
X9145595Y-11358595D01*
X9126548Y-11368119D01*
X9421786Y-11310976D02*
X9326548Y-11310976D01*
X9317024Y-11406214D01*
X9326548Y-11396690D01*
X9345595Y-11387167D01*
X9393214Y-11387167D01*
X9412262Y-11396690D01*
X9421786Y-11406214D01*
X9431310Y-11425262D01*
X9431310Y-11472881D01*
X9421786Y-11491928D01*
X9412262Y-11501452D01*
X9393214Y-11510976D01*
X9345595Y-11510976D01*
X9326548Y-11501452D01*
X9317024Y-11491928D01*
X9497976Y-11310976D02*
X9631310Y-11310976D01*
X9545595Y-11510976D01*
X9697976Y-11310976D02*
X9697976Y-11349071D01*
X9774167Y-11310976D02*
X9774167Y-11349071D01*
X10069405Y-11587167D02*
X10059881Y-11577643D01*
X10040833Y-11549071D01*
X10031310Y-11530024D01*
X10021786Y-11501452D01*
X10012262Y-11453833D01*
X10012262Y-11415738D01*
X10021786Y-11368119D01*
X10031310Y-11339548D01*
X10040833Y-11320500D01*
X10059881Y-11291928D01*
X10069405Y-11282405D01*
X10250357Y-11510976D02*
X10136071Y-11510976D01*
X10193214Y-11510976D02*
X10193214Y-11310976D01*
X10174167Y-11339548D01*
X10155119Y-11358595D01*
X10136071Y-11368119D01*
X10421786Y-11377643D02*
X10421786Y-11510976D01*
X10374167Y-11301452D02*
X10326548Y-11444309D01*
X10450357Y-11444309D01*
X10678929Y-11510976D02*
X10678929Y-11310976D01*
X10764643Y-11510976D02*
X10764643Y-11406214D01*
X10755119Y-11387167D01*
X10736071Y-11377643D01*
X10707500Y-11377643D01*
X10688452Y-11387167D01*
X10678929Y-11396690D01*
X10888452Y-11510976D02*
X10869405Y-11501452D01*
X10859881Y-11491928D01*
X10850357Y-11472881D01*
X10850357Y-11415738D01*
X10859881Y-11396690D01*
X10869405Y-11387167D01*
X10888452Y-11377643D01*
X10917024Y-11377643D01*
X10936071Y-11387167D01*
X10945595Y-11396690D01*
X10955119Y-11415738D01*
X10955119Y-11472881D01*
X10945595Y-11491928D01*
X10936071Y-11501452D01*
X10917024Y-11510976D01*
X10888452Y-11510976D01*
X11069405Y-11510976D02*
X11050357Y-11501452D01*
X11040833Y-11482405D01*
X11040833Y-11310976D01*
X11221786Y-11501452D02*
X11202738Y-11510976D01*
X11164643Y-11510976D01*
X11145595Y-11501452D01*
X11136071Y-11482405D01*
X11136071Y-11406214D01*
X11145595Y-11387167D01*
X11164643Y-11377643D01*
X11202738Y-11377643D01*
X11221786Y-11387167D01*
X11231309Y-11406214D01*
X11231309Y-11425262D01*
X11136071Y-11444309D01*
X11307500Y-11501452D02*
X11326548Y-11510976D01*
X11364643Y-11510976D01*
X11383690Y-11501452D01*
X11393214Y-11482405D01*
X11393214Y-11472881D01*
X11383690Y-11453833D01*
X11364643Y-11444309D01*
X11336071Y-11444309D01*
X11317024Y-11434786D01*
X11307500Y-11415738D01*
X11307500Y-11406214D01*
X11317024Y-11387167D01*
X11336071Y-11377643D01*
X11364643Y-11377643D01*
X11383690Y-11387167D01*
X11459881Y-11587167D02*
X11469405Y-11577643D01*
X11488452Y-11549071D01*
X11497976Y-11530024D01*
X11507500Y-11501452D01*
X11517024Y-11453833D01*
X11517024Y-11415738D01*
X11507500Y-11368119D01*
X11497976Y-11339548D01*
X11488452Y-11320500D01*
X11469405Y-11291928D01*
X11459881Y-11282405D01*
D14*
X6488713Y-11705713D02*
X6488713Y-11663287D01*
X6446287Y-11663287D01*
X6446287Y-11705713D01*
X6488713Y-11705713D01*
D11*
X6793214Y-11574976D02*
X6812262Y-11574976D01*
X6831309Y-11584500D01*
X6840833Y-11594024D01*
X6850357Y-11613071D01*
X6859881Y-11651167D01*
X6859881Y-11698786D01*
X6850357Y-11736881D01*
X6840833Y-11755928D01*
X6831309Y-11765452D01*
X6812262Y-11774976D01*
X6793214Y-11774976D01*
X6774167Y-11765452D01*
X6764643Y-11755928D01*
X6755119Y-11736881D01*
X6745595Y-11698786D01*
X6745595Y-11651167D01*
X6755119Y-11613071D01*
X6764643Y-11594024D01*
X6774167Y-11584500D01*
X6793214Y-11574976D01*
X6945595Y-11755928D02*
X6955119Y-11765452D01*
X6945595Y-11774976D01*
X6936071Y-11765452D01*
X6945595Y-11755928D01*
X6945595Y-11774976D01*
X7126548Y-11574976D02*
X7088452Y-11574976D01*
X7069405Y-11584500D01*
X7059881Y-11594024D01*
X7040833Y-11622595D01*
X7031309Y-11660690D01*
X7031309Y-11736881D01*
X7040833Y-11755928D01*
X7050357Y-11765452D01*
X7069405Y-11774976D01*
X7107500Y-11774976D01*
X7126548Y-11765452D01*
X7136071Y-11755928D01*
X7145595Y-11736881D01*
X7145595Y-11689262D01*
X7136071Y-11670214D01*
X7126548Y-11660690D01*
X7107500Y-11651167D01*
X7069405Y-11651167D01*
X7050357Y-11660690D01*
X7040833Y-11670214D01*
X7031309Y-11689262D01*
X7269405Y-11574976D02*
X7288452Y-11574976D01*
X7307500Y-11584500D01*
X7317024Y-11594024D01*
X7326548Y-11613071D01*
X7336071Y-11651167D01*
X7336071Y-11698786D01*
X7326548Y-11736881D01*
X7317024Y-11755928D01*
X7307500Y-11765452D01*
X7288452Y-11774976D01*
X7269405Y-11774976D01*
X7250357Y-11765452D01*
X7240833Y-11755928D01*
X7231309Y-11736881D01*
X7221786Y-11698786D01*
X7221786Y-11651167D01*
X7231309Y-11613071D01*
X7240833Y-11594024D01*
X7250357Y-11584500D01*
X7269405Y-11574976D01*
X7459881Y-11574976D02*
X7478928Y-11574976D01*
X7497976Y-11584500D01*
X7507500Y-11594024D01*
X7517024Y-11613071D01*
X7526548Y-11651167D01*
X7526548Y-11698786D01*
X7517024Y-11736881D01*
X7507500Y-11755928D01*
X7497976Y-11765452D01*
X7478928Y-11774976D01*
X7459881Y-11774976D01*
X7440833Y-11765452D01*
X7431309Y-11755928D01*
X7421786Y-11736881D01*
X7412262Y-11698786D01*
X7412262Y-11651167D01*
X7421786Y-11613071D01*
X7431309Y-11594024D01*
X7440833Y-11584500D01*
X7459881Y-11574976D01*
X7612262Y-11774976D02*
X7612262Y-11641643D01*
X7612262Y-11660690D02*
X7621786Y-11651167D01*
X7640833Y-11641643D01*
X7669405Y-11641643D01*
X7688452Y-11651167D01*
X7697976Y-11670214D01*
X7697976Y-11774976D01*
X7697976Y-11670214D02*
X7707500Y-11651167D01*
X7726548Y-11641643D01*
X7755119Y-11641643D01*
X7774167Y-11651167D01*
X7783690Y-11670214D01*
X7783690Y-11774976D01*
X7878928Y-11774976D02*
X7878928Y-11641643D01*
X7878928Y-11660690D02*
X7888452Y-11651167D01*
X7907500Y-11641643D01*
X7936071Y-11641643D01*
X7955119Y-11651167D01*
X7964643Y-11670214D01*
X7964643Y-11774976D01*
X7964643Y-11670214D02*
X7974167Y-11651167D01*
X7993214Y-11641643D01*
X8021786Y-11641643D01*
X8040833Y-11651167D01*
X8050357Y-11670214D01*
X8050357Y-11774976D01*
X8440833Y-11565452D02*
X8269405Y-11822595D01*
X8697976Y-11574976D02*
X8717024Y-11574976D01*
X8736071Y-11584500D01*
X8745595Y-11594024D01*
X8755119Y-11613071D01*
X8764643Y-11651167D01*
X8764643Y-11698786D01*
X8755119Y-11736881D01*
X8745595Y-11755928D01*
X8736071Y-11765452D01*
X8717024Y-11774976D01*
X8697976Y-11774976D01*
X8678929Y-11765452D01*
X8669405Y-11755928D01*
X8659881Y-11736881D01*
X8650357Y-11698786D01*
X8650357Y-11651167D01*
X8659881Y-11613071D01*
X8669405Y-11594024D01*
X8678929Y-11584500D01*
X8697976Y-11574976D01*
X8850357Y-11755928D02*
X8859881Y-11765452D01*
X8850357Y-11774976D01*
X8840833Y-11765452D01*
X8850357Y-11755928D01*
X8850357Y-11774976D01*
X8983690Y-11574976D02*
X9002738Y-11574976D01*
X9021786Y-11584500D01*
X9031310Y-11594024D01*
X9040833Y-11613071D01*
X9050357Y-11651167D01*
X9050357Y-11698786D01*
X9040833Y-11736881D01*
X9031310Y-11755928D01*
X9021786Y-11765452D01*
X9002738Y-11774976D01*
X8983690Y-11774976D01*
X8964643Y-11765452D01*
X8955119Y-11755928D01*
X8945595Y-11736881D01*
X8936071Y-11698786D01*
X8936071Y-11651167D01*
X8945595Y-11613071D01*
X8955119Y-11594024D01*
X8964643Y-11584500D01*
X8983690Y-11574976D01*
X9126548Y-11594024D02*
X9136071Y-11584500D01*
X9155119Y-11574976D01*
X9202738Y-11574976D01*
X9221786Y-11584500D01*
X9231310Y-11594024D01*
X9240833Y-11613071D01*
X9240833Y-11632119D01*
X9231310Y-11660690D01*
X9117024Y-11774976D01*
X9240833Y-11774976D01*
X9307500Y-11574976D02*
X9431310Y-11574976D01*
X9364643Y-11651167D01*
X9393214Y-11651167D01*
X9412262Y-11660690D01*
X9421786Y-11670214D01*
X9431310Y-11689262D01*
X9431310Y-11736881D01*
X9421786Y-11755928D01*
X9412262Y-11765452D01*
X9393214Y-11774976D01*
X9336071Y-11774976D01*
X9317024Y-11765452D01*
X9307500Y-11755928D01*
X9602738Y-11574976D02*
X9564643Y-11574976D01*
X9545595Y-11584500D01*
X9536071Y-11594024D01*
X9517024Y-11622595D01*
X9507500Y-11660690D01*
X9507500Y-11736881D01*
X9517024Y-11755928D01*
X9526548Y-11765452D01*
X9545595Y-11774976D01*
X9583690Y-11774976D01*
X9602738Y-11765452D01*
X9612262Y-11755928D01*
X9621786Y-11736881D01*
X9621786Y-11689262D01*
X9612262Y-11670214D01*
X9602738Y-11660690D01*
X9583690Y-11651167D01*
X9545595Y-11651167D01*
X9526548Y-11660690D01*
X9517024Y-11670214D01*
X9507500Y-11689262D01*
X9697976Y-11574976D02*
X9697976Y-11613071D01*
X9774167Y-11574976D02*
X9774167Y-11613071D01*
X10069405Y-11851167D02*
X10059881Y-11841643D01*
X10040833Y-11813071D01*
X10031310Y-11794024D01*
X10021786Y-11765452D01*
X10012262Y-11717833D01*
X10012262Y-11679738D01*
X10021786Y-11632119D01*
X10031310Y-11603548D01*
X10040833Y-11584500D01*
X10059881Y-11555928D01*
X10069405Y-11546405D01*
X10183690Y-11574976D02*
X10202738Y-11574976D01*
X10221786Y-11584500D01*
X10231310Y-11594024D01*
X10240833Y-11613071D01*
X10250357Y-11651167D01*
X10250357Y-11698786D01*
X10240833Y-11736881D01*
X10231310Y-11755928D01*
X10221786Y-11765452D01*
X10202738Y-11774976D01*
X10183690Y-11774976D01*
X10164643Y-11765452D01*
X10155119Y-11755928D01*
X10145595Y-11736881D01*
X10136071Y-11698786D01*
X10136071Y-11651167D01*
X10145595Y-11613071D01*
X10155119Y-11594024D01*
X10164643Y-11584500D01*
X10183690Y-11574976D01*
X10488452Y-11774976D02*
X10488452Y-11574976D01*
X10574167Y-11774976D02*
X10574167Y-11670214D01*
X10564643Y-11651167D01*
X10545595Y-11641643D01*
X10517024Y-11641643D01*
X10497976Y-11651167D01*
X10488452Y-11660690D01*
X10697976Y-11774976D02*
X10678929Y-11765452D01*
X10669405Y-11755928D01*
X10659881Y-11736881D01*
X10659881Y-11679738D01*
X10669405Y-11660690D01*
X10678929Y-11651167D01*
X10697976Y-11641643D01*
X10726548Y-11641643D01*
X10745595Y-11651167D01*
X10755119Y-11660690D01*
X10764643Y-11679738D01*
X10764643Y-11736881D01*
X10755119Y-11755928D01*
X10745595Y-11765452D01*
X10726548Y-11774976D01*
X10697976Y-11774976D01*
X10878929Y-11774976D02*
X10859881Y-11765452D01*
X10850357Y-11746405D01*
X10850357Y-11574976D01*
X11031310Y-11765452D02*
X11012262Y-11774976D01*
X10974167Y-11774976D01*
X10955119Y-11765452D01*
X10945595Y-11746405D01*
X10945595Y-11670214D01*
X10955119Y-11651167D01*
X10974167Y-11641643D01*
X11012262Y-11641643D01*
X11031310Y-11651167D01*
X11040833Y-11670214D01*
X11040833Y-11689262D01*
X10945595Y-11708309D01*
X11117024Y-11765452D02*
X11136071Y-11774976D01*
X11174167Y-11774976D01*
X11193214Y-11765452D01*
X11202738Y-11746405D01*
X11202738Y-11736881D01*
X11193214Y-11717833D01*
X11174167Y-11708309D01*
X11145595Y-11708309D01*
X11126548Y-11698786D01*
X11117024Y-11679738D01*
X11117024Y-11670214D01*
X11126548Y-11651167D01*
X11145595Y-11641643D01*
X11174167Y-11641643D01*
X11193214Y-11651167D01*
X11440833Y-11698786D02*
X11593214Y-11698786D01*
X11517024Y-11774976D02*
X11517024Y-11622595D01*
X11926548Y-11641643D02*
X11926548Y-11774976D01*
X11878928Y-11565452D02*
X11831309Y-11708309D01*
X11955119Y-11708309D01*
X12174167Y-11765452D02*
X12193214Y-11774976D01*
X12231309Y-11774976D01*
X12250357Y-11765452D01*
X12259881Y-11746405D01*
X12259881Y-11736881D01*
X12250357Y-11717833D01*
X12231309Y-11708309D01*
X12202738Y-11708309D01*
X12183690Y-11698786D01*
X12174167Y-11679738D01*
X12174167Y-11670214D01*
X12183690Y-11651167D01*
X12202738Y-11641643D01*
X12231309Y-11641643D01*
X12250357Y-11651167D01*
X12374167Y-11774976D02*
X12355119Y-11765452D01*
X12345595Y-11746405D01*
X12345595Y-11574976D01*
X12478928Y-11774976D02*
X12459881Y-11765452D01*
X12450357Y-11755928D01*
X12440833Y-11736881D01*
X12440833Y-11679738D01*
X12450357Y-11660690D01*
X12459881Y-11651167D01*
X12478928Y-11641643D01*
X12507500Y-11641643D01*
X12526548Y-11651167D01*
X12536071Y-11660690D01*
X12545595Y-11679738D01*
X12545595Y-11736881D01*
X12536071Y-11755928D01*
X12526548Y-11765452D01*
X12507500Y-11774976D01*
X12478928Y-11774976D01*
X12602738Y-11641643D02*
X12678928Y-11641643D01*
X12631309Y-11574976D02*
X12631309Y-11746405D01*
X12640833Y-11765452D01*
X12659881Y-11774976D01*
X12678928Y-11774976D01*
X12736071Y-11765452D02*
X12755119Y-11774976D01*
X12793214Y-11774976D01*
X12812262Y-11765452D01*
X12821786Y-11746405D01*
X12821786Y-11736881D01*
X12812262Y-11717833D01*
X12793214Y-11708309D01*
X12764643Y-11708309D01*
X12745595Y-11698786D01*
X12736071Y-11679738D01*
X12736071Y-11670214D01*
X12745595Y-11651167D01*
X12764643Y-11641643D01*
X12793214Y-11641643D01*
X12812262Y-11651167D01*
X12888452Y-11851167D02*
X12897976Y-11841643D01*
X12917024Y-11813071D01*
X12926548Y-11794024D01*
X12936071Y-11765452D01*
X12945595Y-11717833D01*
X12945595Y-11679738D01*
X12936071Y-11632119D01*
X12926548Y-11603548D01*
X12917024Y-11584500D01*
X12897976Y-11555928D01*
X12888452Y-11546405D01*
D15*
X6447500Y-11998500D02*
X6497500Y-11948500D01*
X6447500Y-11898500D01*
X6397500Y-11948500D01*
X6447500Y-11998500D01*
D11*
X6859881Y-12038976D02*
X6745595Y-12038976D01*
X6802738Y-12038976D02*
X6802738Y-11838976D01*
X6783690Y-11867548D01*
X6764643Y-11886595D01*
X6745595Y-11896119D01*
X6945595Y-12019928D02*
X6955119Y-12029452D01*
X6945595Y-12038976D01*
X6936071Y-12029452D01*
X6945595Y-12019928D01*
X6945595Y-12038976D01*
X7078928Y-11838976D02*
X7097976Y-11838976D01*
X7117024Y-11848500D01*
X7126548Y-11858024D01*
X7136071Y-11877071D01*
X7145595Y-11915167D01*
X7145595Y-11962786D01*
X7136071Y-12000881D01*
X7126548Y-12019928D01*
X7117024Y-12029452D01*
X7097976Y-12038976D01*
X7078928Y-12038976D01*
X7059881Y-12029452D01*
X7050357Y-12019928D01*
X7040833Y-12000881D01*
X7031309Y-11962786D01*
X7031309Y-11915167D01*
X7040833Y-11877071D01*
X7050357Y-11858024D01*
X7059881Y-11848500D01*
X7078928Y-11838976D01*
X7269405Y-11838976D02*
X7288452Y-11838976D01*
X7307500Y-11848500D01*
X7317024Y-11858024D01*
X7326548Y-11877071D01*
X7336071Y-11915167D01*
X7336071Y-11962786D01*
X7326548Y-12000881D01*
X7317024Y-12019928D01*
X7307500Y-12029452D01*
X7288452Y-12038976D01*
X7269405Y-12038976D01*
X7250357Y-12029452D01*
X7240833Y-12019928D01*
X7231309Y-12000881D01*
X7221786Y-11962786D01*
X7221786Y-11915167D01*
X7231309Y-11877071D01*
X7240833Y-11858024D01*
X7250357Y-11848500D01*
X7269405Y-11838976D01*
X7459881Y-11838976D02*
X7478928Y-11838976D01*
X7497976Y-11848500D01*
X7507500Y-11858024D01*
X7517024Y-11877071D01*
X7526548Y-11915167D01*
X7526548Y-11962786D01*
X7517024Y-12000881D01*
X7507500Y-12019928D01*
X7497976Y-12029452D01*
X7478928Y-12038976D01*
X7459881Y-12038976D01*
X7440833Y-12029452D01*
X7431309Y-12019928D01*
X7421786Y-12000881D01*
X7412262Y-11962786D01*
X7412262Y-11915167D01*
X7421786Y-11877071D01*
X7431309Y-11858024D01*
X7440833Y-11848500D01*
X7459881Y-11838976D01*
X7612262Y-12038976D02*
X7612262Y-11905643D01*
X7612262Y-11924690D02*
X7621786Y-11915167D01*
X7640833Y-11905643D01*
X7669405Y-11905643D01*
X7688452Y-11915167D01*
X7697976Y-11934214D01*
X7697976Y-12038976D01*
X7697976Y-11934214D02*
X7707500Y-11915167D01*
X7726548Y-11905643D01*
X7755119Y-11905643D01*
X7774167Y-11915167D01*
X7783690Y-11934214D01*
X7783690Y-12038976D01*
X7878928Y-12038976D02*
X7878928Y-11905643D01*
X7878928Y-11924690D02*
X7888452Y-11915167D01*
X7907500Y-11905643D01*
X7936071Y-11905643D01*
X7955119Y-11915167D01*
X7964643Y-11934214D01*
X7964643Y-12038976D01*
X7964643Y-11934214D02*
X7974167Y-11915167D01*
X7993214Y-11905643D01*
X8021786Y-11905643D01*
X8040833Y-11915167D01*
X8050357Y-11934214D01*
X8050357Y-12038976D01*
X8440833Y-11829452D02*
X8269405Y-12086595D01*
X8697976Y-11838976D02*
X8717024Y-11838976D01*
X8736071Y-11848500D01*
X8745595Y-11858024D01*
X8755119Y-11877071D01*
X8764643Y-11915167D01*
X8764643Y-11962786D01*
X8755119Y-12000881D01*
X8745595Y-12019928D01*
X8736071Y-12029452D01*
X8717024Y-12038976D01*
X8697976Y-12038976D01*
X8678929Y-12029452D01*
X8669405Y-12019928D01*
X8659881Y-12000881D01*
X8650357Y-11962786D01*
X8650357Y-11915167D01*
X8659881Y-11877071D01*
X8669405Y-11858024D01*
X8678929Y-11848500D01*
X8697976Y-11838976D01*
X8850357Y-12019928D02*
X8859881Y-12029452D01*
X8850357Y-12038976D01*
X8840833Y-12029452D01*
X8850357Y-12019928D01*
X8850357Y-12038976D01*
X8983690Y-11838976D02*
X9002738Y-11838976D01*
X9021786Y-11848500D01*
X9031310Y-11858024D01*
X9040833Y-11877071D01*
X9050357Y-11915167D01*
X9050357Y-11962786D01*
X9040833Y-12000881D01*
X9031310Y-12019928D01*
X9021786Y-12029452D01*
X9002738Y-12038976D01*
X8983690Y-12038976D01*
X8964643Y-12029452D01*
X8955119Y-12019928D01*
X8945595Y-12000881D01*
X8936071Y-11962786D01*
X8936071Y-11915167D01*
X8945595Y-11877071D01*
X8955119Y-11858024D01*
X8964643Y-11848500D01*
X8983690Y-11838976D01*
X9117024Y-11838976D02*
X9240833Y-11838976D01*
X9174167Y-11915167D01*
X9202738Y-11915167D01*
X9221786Y-11924690D01*
X9231310Y-11934214D01*
X9240833Y-11953262D01*
X9240833Y-12000881D01*
X9231310Y-12019928D01*
X9221786Y-12029452D01*
X9202738Y-12038976D01*
X9145595Y-12038976D01*
X9126548Y-12029452D01*
X9117024Y-12019928D01*
X9336071Y-12038976D02*
X9374167Y-12038976D01*
X9393214Y-12029452D01*
X9402738Y-12019928D01*
X9421786Y-11991357D01*
X9431310Y-11953262D01*
X9431310Y-11877071D01*
X9421786Y-11858024D01*
X9412262Y-11848500D01*
X9393214Y-11838976D01*
X9355119Y-11838976D01*
X9336071Y-11848500D01*
X9326548Y-11858024D01*
X9317024Y-11877071D01*
X9317024Y-11924690D01*
X9326548Y-11943738D01*
X9336071Y-11953262D01*
X9355119Y-11962786D01*
X9393214Y-11962786D01*
X9412262Y-11953262D01*
X9421786Y-11943738D01*
X9431310Y-11924690D01*
X9602738Y-11905643D02*
X9602738Y-12038976D01*
X9555119Y-11829452D02*
X9507500Y-11972309D01*
X9631310Y-11972309D01*
X9697976Y-11838976D02*
X9697976Y-11877071D01*
X9774167Y-11838976D02*
X9774167Y-11877071D01*
X10069405Y-12115167D02*
X10059881Y-12105643D01*
X10040833Y-12077071D01*
X10031310Y-12058024D01*
X10021786Y-12029452D01*
X10012262Y-11981833D01*
X10012262Y-11943738D01*
X10021786Y-11896119D01*
X10031310Y-11867548D01*
X10040833Y-11848500D01*
X10059881Y-11819928D01*
X10069405Y-11810405D01*
X10250357Y-12038976D02*
X10136071Y-12038976D01*
X10193214Y-12038976D02*
X10193214Y-11838976D01*
X10174167Y-11867548D01*
X10155119Y-11886595D01*
X10136071Y-11896119D01*
X10374167Y-11838976D02*
X10393214Y-11838976D01*
X10412262Y-11848500D01*
X10421786Y-11858024D01*
X10431310Y-11877071D01*
X10440833Y-11915167D01*
X10440833Y-11962786D01*
X10431310Y-12000881D01*
X10421786Y-12019928D01*
X10412262Y-12029452D01*
X10393214Y-12038976D01*
X10374167Y-12038976D01*
X10355119Y-12029452D01*
X10345595Y-12019928D01*
X10336071Y-12000881D01*
X10326548Y-11962786D01*
X10326548Y-11915167D01*
X10336071Y-11877071D01*
X10345595Y-11858024D01*
X10355119Y-11848500D01*
X10374167Y-11838976D01*
X10678929Y-12038976D02*
X10678929Y-11838976D01*
X10764643Y-12038976D02*
X10764643Y-11934214D01*
X10755119Y-11915167D01*
X10736071Y-11905643D01*
X10707500Y-11905643D01*
X10688452Y-11915167D01*
X10678929Y-11924690D01*
X10888452Y-12038976D02*
X10869405Y-12029452D01*
X10859881Y-12019928D01*
X10850357Y-12000881D01*
X10850357Y-11943738D01*
X10859881Y-11924690D01*
X10869405Y-11915167D01*
X10888452Y-11905643D01*
X10917024Y-11905643D01*
X10936071Y-11915167D01*
X10945595Y-11924690D01*
X10955119Y-11943738D01*
X10955119Y-12000881D01*
X10945595Y-12019928D01*
X10936071Y-12029452D01*
X10917024Y-12038976D01*
X10888452Y-12038976D01*
X11069405Y-12038976D02*
X11050357Y-12029452D01*
X11040833Y-12010405D01*
X11040833Y-11838976D01*
X11221786Y-12029452D02*
X11202738Y-12038976D01*
X11164643Y-12038976D01*
X11145595Y-12029452D01*
X11136071Y-12010405D01*
X11136071Y-11934214D01*
X11145595Y-11915167D01*
X11164643Y-11905643D01*
X11202738Y-11905643D01*
X11221786Y-11915167D01*
X11231309Y-11934214D01*
X11231309Y-11953262D01*
X11136071Y-11972309D01*
X11307500Y-12029452D02*
X11326548Y-12038976D01*
X11364643Y-12038976D01*
X11383690Y-12029452D01*
X11393214Y-12010405D01*
X11393214Y-12000881D01*
X11383690Y-11981833D01*
X11364643Y-11972309D01*
X11336071Y-11972309D01*
X11317024Y-11962786D01*
X11307500Y-11943738D01*
X11307500Y-11934214D01*
X11317024Y-11915167D01*
X11336071Y-11905643D01*
X11364643Y-11905643D01*
X11383690Y-11915167D01*
X11459881Y-12115167D02*
X11469405Y-12105643D01*
X11488452Y-12077071D01*
X11497976Y-12058024D01*
X11507500Y-12029452D01*
X11517024Y-11981833D01*
X11517024Y-11943738D01*
X11507500Y-11896119D01*
X11497976Y-11867548D01*
X11488452Y-11848500D01*
X11469405Y-11819928D01*
X11459881Y-11810405D01*
D16*
X6378500Y-12153000D02*
X6497500Y-12272000D01*
X6497500Y-12153000D02*
X6378500Y-12272000D01*
X6497500Y-12212500D02*
G75*
G03*
X6497500Y-12212500I-59500J0D01*
G01*
D11*
X6859881Y-12302976D02*
X6745595Y-12302976D01*
X6802738Y-12302976D02*
X6802738Y-12102976D01*
X6783690Y-12131548D01*
X6764643Y-12150595D01*
X6745595Y-12160119D01*
X6945595Y-12283928D02*
X6955119Y-12293452D01*
X6945595Y-12302976D01*
X6936071Y-12293452D01*
X6945595Y-12283928D01*
X6945595Y-12302976D01*
X7145595Y-12302976D02*
X7031309Y-12302976D01*
X7088452Y-12302976D02*
X7088452Y-12102976D01*
X7069405Y-12131548D01*
X7050357Y-12150595D01*
X7031309Y-12160119D01*
X7240833Y-12302976D02*
X7278928Y-12302976D01*
X7297976Y-12293452D01*
X7307500Y-12283928D01*
X7326548Y-12255357D01*
X7336071Y-12217262D01*
X7336071Y-12141071D01*
X7326548Y-12122024D01*
X7317024Y-12112500D01*
X7297976Y-12102976D01*
X7259881Y-12102976D01*
X7240833Y-12112500D01*
X7231309Y-12122024D01*
X7221786Y-12141071D01*
X7221786Y-12188690D01*
X7231309Y-12207738D01*
X7240833Y-12217262D01*
X7259881Y-12226786D01*
X7297976Y-12226786D01*
X7317024Y-12217262D01*
X7326548Y-12207738D01*
X7336071Y-12188690D01*
X7459881Y-12102976D02*
X7478928Y-12102976D01*
X7497976Y-12112500D01*
X7507500Y-12122024D01*
X7517024Y-12141071D01*
X7526548Y-12179167D01*
X7526548Y-12226786D01*
X7517024Y-12264881D01*
X7507500Y-12283928D01*
X7497976Y-12293452D01*
X7478928Y-12302976D01*
X7459881Y-12302976D01*
X7440833Y-12293452D01*
X7431309Y-12283928D01*
X7421786Y-12264881D01*
X7412262Y-12226786D01*
X7412262Y-12179167D01*
X7421786Y-12141071D01*
X7431309Y-12122024D01*
X7440833Y-12112500D01*
X7459881Y-12102976D01*
X7612262Y-12302976D02*
X7612262Y-12169643D01*
X7612262Y-12188690D02*
X7621786Y-12179167D01*
X7640833Y-12169643D01*
X7669405Y-12169643D01*
X7688452Y-12179167D01*
X7697976Y-12198214D01*
X7697976Y-12302976D01*
X7697976Y-12198214D02*
X7707500Y-12179167D01*
X7726548Y-12169643D01*
X7755119Y-12169643D01*
X7774167Y-12179167D01*
X7783690Y-12198214D01*
X7783690Y-12302976D01*
X7878928Y-12302976D02*
X7878928Y-12169643D01*
X7878928Y-12188690D02*
X7888452Y-12179167D01*
X7907500Y-12169643D01*
X7936071Y-12169643D01*
X7955119Y-12179167D01*
X7964643Y-12198214D01*
X7964643Y-12302976D01*
X7964643Y-12198214D02*
X7974167Y-12179167D01*
X7993214Y-12169643D01*
X8021786Y-12169643D01*
X8040833Y-12179167D01*
X8050357Y-12198214D01*
X8050357Y-12302976D01*
X8440833Y-12093452D02*
X8269405Y-12350595D01*
X8697976Y-12102976D02*
X8717024Y-12102976D01*
X8736071Y-12112500D01*
X8745595Y-12122024D01*
X8755119Y-12141071D01*
X8764643Y-12179167D01*
X8764643Y-12226786D01*
X8755119Y-12264881D01*
X8745595Y-12283928D01*
X8736071Y-12293452D01*
X8717024Y-12302976D01*
X8697976Y-12302976D01*
X8678929Y-12293452D01*
X8669405Y-12283928D01*
X8659881Y-12264881D01*
X8650357Y-12226786D01*
X8650357Y-12179167D01*
X8659881Y-12141071D01*
X8669405Y-12122024D01*
X8678929Y-12112500D01*
X8697976Y-12102976D01*
X8850357Y-12283928D02*
X8859881Y-12293452D01*
X8850357Y-12302976D01*
X8840833Y-12293452D01*
X8850357Y-12283928D01*
X8850357Y-12302976D01*
X8983690Y-12102976D02*
X9002738Y-12102976D01*
X9021786Y-12112500D01*
X9031310Y-12122024D01*
X9040833Y-12141071D01*
X9050357Y-12179167D01*
X9050357Y-12226786D01*
X9040833Y-12264881D01*
X9031310Y-12283928D01*
X9021786Y-12293452D01*
X9002738Y-12302976D01*
X8983690Y-12302976D01*
X8964643Y-12293452D01*
X8955119Y-12283928D01*
X8945595Y-12264881D01*
X8936071Y-12226786D01*
X8936071Y-12179167D01*
X8945595Y-12141071D01*
X8955119Y-12122024D01*
X8964643Y-12112500D01*
X8983690Y-12102976D01*
X9221786Y-12169643D02*
X9221786Y-12302976D01*
X9174167Y-12093452D02*
X9126548Y-12236309D01*
X9250357Y-12236309D01*
X9412262Y-12102976D02*
X9374167Y-12102976D01*
X9355119Y-12112500D01*
X9345595Y-12122024D01*
X9326548Y-12150595D01*
X9317024Y-12188690D01*
X9317024Y-12264881D01*
X9326548Y-12283928D01*
X9336071Y-12293452D01*
X9355119Y-12302976D01*
X9393214Y-12302976D01*
X9412262Y-12293452D01*
X9421786Y-12283928D01*
X9431310Y-12264881D01*
X9431310Y-12217262D01*
X9421786Y-12198214D01*
X9412262Y-12188690D01*
X9393214Y-12179167D01*
X9355119Y-12179167D01*
X9336071Y-12188690D01*
X9326548Y-12198214D01*
X9317024Y-12217262D01*
X9526548Y-12302976D02*
X9564643Y-12302976D01*
X9583690Y-12293452D01*
X9593214Y-12283928D01*
X9612262Y-12255357D01*
X9621786Y-12217262D01*
X9621786Y-12141071D01*
X9612262Y-12122024D01*
X9602738Y-12112500D01*
X9583690Y-12102976D01*
X9545595Y-12102976D01*
X9526548Y-12112500D01*
X9517024Y-12122024D01*
X9507500Y-12141071D01*
X9507500Y-12188690D01*
X9517024Y-12207738D01*
X9526548Y-12217262D01*
X9545595Y-12226786D01*
X9583690Y-12226786D01*
X9602738Y-12217262D01*
X9612262Y-12207738D01*
X9621786Y-12188690D01*
X9697976Y-12102976D02*
X9697976Y-12141071D01*
X9774167Y-12102976D02*
X9774167Y-12141071D01*
X10069405Y-12379167D02*
X10059881Y-12369643D01*
X10040833Y-12341071D01*
X10031310Y-12322024D01*
X10021786Y-12293452D01*
X10012262Y-12245833D01*
X10012262Y-12207738D01*
X10021786Y-12160119D01*
X10031310Y-12131548D01*
X10040833Y-12112500D01*
X10059881Y-12083928D01*
X10069405Y-12074405D01*
X10250357Y-12302976D02*
X10136071Y-12302976D01*
X10193214Y-12302976D02*
X10193214Y-12102976D01*
X10174167Y-12131548D01*
X10155119Y-12150595D01*
X10136071Y-12160119D01*
X10326548Y-12122024D02*
X10336071Y-12112500D01*
X10355119Y-12102976D01*
X10402738Y-12102976D01*
X10421786Y-12112500D01*
X10431310Y-12122024D01*
X10440833Y-12141071D01*
X10440833Y-12160119D01*
X10431310Y-12188690D01*
X10317024Y-12302976D01*
X10440833Y-12302976D01*
X10678929Y-12302976D02*
X10678929Y-12102976D01*
X10764643Y-12302976D02*
X10764643Y-12198214D01*
X10755119Y-12179167D01*
X10736071Y-12169643D01*
X10707500Y-12169643D01*
X10688452Y-12179167D01*
X10678929Y-12188690D01*
X10888452Y-12302976D02*
X10869405Y-12293452D01*
X10859881Y-12283928D01*
X10850357Y-12264881D01*
X10850357Y-12207738D01*
X10859881Y-12188690D01*
X10869405Y-12179167D01*
X10888452Y-12169643D01*
X10917024Y-12169643D01*
X10936071Y-12179167D01*
X10945595Y-12188690D01*
X10955119Y-12207738D01*
X10955119Y-12264881D01*
X10945595Y-12283928D01*
X10936071Y-12293452D01*
X10917024Y-12302976D01*
X10888452Y-12302976D01*
X11069405Y-12302976D02*
X11050357Y-12293452D01*
X11040833Y-12274405D01*
X11040833Y-12102976D01*
X11221786Y-12293452D02*
X11202738Y-12302976D01*
X11164643Y-12302976D01*
X11145595Y-12293452D01*
X11136071Y-12274405D01*
X11136071Y-12198214D01*
X11145595Y-12179167D01*
X11164643Y-12169643D01*
X11202738Y-12169643D01*
X11221786Y-12179167D01*
X11231309Y-12198214D01*
X11231309Y-12217262D01*
X11136071Y-12236309D01*
X11307500Y-12293452D02*
X11326548Y-12302976D01*
X11364643Y-12302976D01*
X11383690Y-12293452D01*
X11393214Y-12274405D01*
X11393214Y-12264881D01*
X11383690Y-12245833D01*
X11364643Y-12236309D01*
X11336071Y-12236309D01*
X11317024Y-12226786D01*
X11307500Y-12207738D01*
X11307500Y-12198214D01*
X11317024Y-12179167D01*
X11336071Y-12169643D01*
X11364643Y-12169643D01*
X11383690Y-12179167D01*
X11459881Y-12379167D02*
X11469405Y-12369643D01*
X11488452Y-12341071D01*
X11497976Y-12322024D01*
X11507500Y-12293452D01*
X11517024Y-12245833D01*
X11517024Y-12207738D01*
X11507500Y-12160119D01*
X11497976Y-12131548D01*
X11488452Y-12112500D01*
X11469405Y-12083928D01*
X11459881Y-12074405D01*
X6297500Y-12376500D02*
X6497500Y-12576500D01*
X6497500Y-12376500D02*
X6297500Y-12576500D01*
X6397500Y-12376500D02*
X6397500Y-12576500D01*
X6297500Y-12476500D02*
X6497500Y-12476500D01*
X6736071Y-12366976D02*
X6859881Y-12366976D01*
X6793214Y-12443167D01*
X6821786Y-12443167D01*
X6840833Y-12452690D01*
X6850357Y-12462214D01*
X6859881Y-12481262D01*
X6859881Y-12528881D01*
X6850357Y-12547928D01*
X6840833Y-12557452D01*
X6821786Y-12566976D01*
X6764643Y-12566976D01*
X6745595Y-12557452D01*
X6736071Y-12547928D01*
X6945595Y-12547928D02*
X6955119Y-12557452D01*
X6945595Y-12566976D01*
X6936071Y-12557452D01*
X6945595Y-12547928D01*
X6945595Y-12566976D01*
X7050357Y-12566976D02*
X7088452Y-12566976D01*
X7107500Y-12557452D01*
X7117024Y-12547928D01*
X7136071Y-12519357D01*
X7145595Y-12481262D01*
X7145595Y-12405071D01*
X7136071Y-12386024D01*
X7126548Y-12376500D01*
X7107500Y-12366976D01*
X7069405Y-12366976D01*
X7050357Y-12376500D01*
X7040833Y-12386024D01*
X7031309Y-12405071D01*
X7031309Y-12452690D01*
X7040833Y-12471738D01*
X7050357Y-12481262D01*
X7069405Y-12490786D01*
X7107500Y-12490786D01*
X7126548Y-12481262D01*
X7136071Y-12471738D01*
X7145595Y-12452690D01*
X7269405Y-12366976D02*
X7288452Y-12366976D01*
X7307500Y-12376500D01*
X7317024Y-12386024D01*
X7326548Y-12405071D01*
X7336071Y-12443167D01*
X7336071Y-12490786D01*
X7326548Y-12528881D01*
X7317024Y-12547928D01*
X7307500Y-12557452D01*
X7288452Y-12566976D01*
X7269405Y-12566976D01*
X7250357Y-12557452D01*
X7240833Y-12547928D01*
X7231309Y-12528881D01*
X7221786Y-12490786D01*
X7221786Y-12443167D01*
X7231309Y-12405071D01*
X7240833Y-12386024D01*
X7250357Y-12376500D01*
X7269405Y-12366976D01*
X7459881Y-12366976D02*
X7478928Y-12366976D01*
X7497976Y-12376500D01*
X7507500Y-12386024D01*
X7517024Y-12405071D01*
X7526548Y-12443167D01*
X7526548Y-12490786D01*
X7517024Y-12528881D01*
X7507500Y-12547928D01*
X7497976Y-12557452D01*
X7478928Y-12566976D01*
X7459881Y-12566976D01*
X7440833Y-12557452D01*
X7431309Y-12547928D01*
X7421786Y-12528881D01*
X7412262Y-12490786D01*
X7412262Y-12443167D01*
X7421786Y-12405071D01*
X7431309Y-12386024D01*
X7440833Y-12376500D01*
X7459881Y-12366976D01*
X7612262Y-12566976D02*
X7612262Y-12433643D01*
X7612262Y-12452690D02*
X7621786Y-12443167D01*
X7640833Y-12433643D01*
X7669405Y-12433643D01*
X7688452Y-12443167D01*
X7697976Y-12462214D01*
X7697976Y-12566976D01*
X7697976Y-12462214D02*
X7707500Y-12443167D01*
X7726548Y-12433643D01*
X7755119Y-12433643D01*
X7774167Y-12443167D01*
X7783690Y-12462214D01*
X7783690Y-12566976D01*
X7878928Y-12566976D02*
X7878928Y-12433643D01*
X7878928Y-12452690D02*
X7888452Y-12443167D01*
X7907500Y-12433643D01*
X7936071Y-12433643D01*
X7955119Y-12443167D01*
X7964643Y-12462214D01*
X7964643Y-12566976D01*
X7964643Y-12462214D02*
X7974167Y-12443167D01*
X7993214Y-12433643D01*
X8021786Y-12433643D01*
X8040833Y-12443167D01*
X8050357Y-12462214D01*
X8050357Y-12566976D01*
X8440833Y-12357452D02*
X8269405Y-12614595D01*
X8697976Y-12366976D02*
X8717024Y-12366976D01*
X8736071Y-12376500D01*
X8745595Y-12386024D01*
X8755119Y-12405071D01*
X8764643Y-12443167D01*
X8764643Y-12490786D01*
X8755119Y-12528881D01*
X8745595Y-12547928D01*
X8736071Y-12557452D01*
X8717024Y-12566976D01*
X8697976Y-12566976D01*
X8678929Y-12557452D01*
X8669405Y-12547928D01*
X8659881Y-12528881D01*
X8650357Y-12490786D01*
X8650357Y-12443167D01*
X8659881Y-12405071D01*
X8669405Y-12386024D01*
X8678929Y-12376500D01*
X8697976Y-12366976D01*
X8850357Y-12547928D02*
X8859881Y-12557452D01*
X8850357Y-12566976D01*
X8840833Y-12557452D01*
X8850357Y-12547928D01*
X8850357Y-12566976D01*
X9050357Y-12566976D02*
X8936071Y-12566976D01*
X8993214Y-12566976D02*
X8993214Y-12366976D01*
X8974167Y-12395548D01*
X8955119Y-12414595D01*
X8936071Y-12424119D01*
X9231310Y-12366976D02*
X9136071Y-12366976D01*
X9126548Y-12462214D01*
X9136071Y-12452690D01*
X9155119Y-12443167D01*
X9202738Y-12443167D01*
X9221786Y-12452690D01*
X9231310Y-12462214D01*
X9240833Y-12481262D01*
X9240833Y-12528881D01*
X9231310Y-12547928D01*
X9221786Y-12557452D01*
X9202738Y-12566976D01*
X9155119Y-12566976D01*
X9136071Y-12557452D01*
X9126548Y-12547928D01*
X9307500Y-12366976D02*
X9431310Y-12366976D01*
X9364643Y-12443167D01*
X9393214Y-12443167D01*
X9412262Y-12452690D01*
X9421786Y-12462214D01*
X9431310Y-12481262D01*
X9431310Y-12528881D01*
X9421786Y-12547928D01*
X9412262Y-12557452D01*
X9393214Y-12566976D01*
X9336071Y-12566976D01*
X9317024Y-12557452D01*
X9307500Y-12547928D01*
X9612262Y-12366976D02*
X9517024Y-12366976D01*
X9507500Y-12462214D01*
X9517024Y-12452690D01*
X9536071Y-12443167D01*
X9583690Y-12443167D01*
X9602738Y-12452690D01*
X9612262Y-12462214D01*
X9621786Y-12481262D01*
X9621786Y-12528881D01*
X9612262Y-12547928D01*
X9602738Y-12557452D01*
X9583690Y-12566976D01*
X9536071Y-12566976D01*
X9517024Y-12557452D01*
X9507500Y-12547928D01*
X9697976Y-12366976D02*
X9697976Y-12405071D01*
X9774167Y-12366976D02*
X9774167Y-12405071D01*
X10069405Y-12643167D02*
X10059881Y-12633643D01*
X10040833Y-12605071D01*
X10031310Y-12586024D01*
X10021786Y-12557452D01*
X10012262Y-12509833D01*
X10012262Y-12471738D01*
X10021786Y-12424119D01*
X10031310Y-12395548D01*
X10040833Y-12376500D01*
X10059881Y-12347928D01*
X10069405Y-12338405D01*
X10231310Y-12433643D02*
X10231310Y-12566976D01*
X10183690Y-12357452D02*
X10136071Y-12500309D01*
X10259881Y-12500309D01*
X10488452Y-12566976D02*
X10488452Y-12366976D01*
X10574167Y-12566976D02*
X10574167Y-12462214D01*
X10564643Y-12443167D01*
X10545595Y-12433643D01*
X10517024Y-12433643D01*
X10497976Y-12443167D01*
X10488452Y-12452690D01*
X10697976Y-12566976D02*
X10678929Y-12557452D01*
X10669405Y-12547928D01*
X10659881Y-12528881D01*
X10659881Y-12471738D01*
X10669405Y-12452690D01*
X10678929Y-12443167D01*
X10697976Y-12433643D01*
X10726548Y-12433643D01*
X10745595Y-12443167D01*
X10755119Y-12452690D01*
X10764643Y-12471738D01*
X10764643Y-12528881D01*
X10755119Y-12547928D01*
X10745595Y-12557452D01*
X10726548Y-12566976D01*
X10697976Y-12566976D01*
X10878929Y-12566976D02*
X10859881Y-12557452D01*
X10850357Y-12538405D01*
X10850357Y-12366976D01*
X11031310Y-12557452D02*
X11012262Y-12566976D01*
X10974167Y-12566976D01*
X10955119Y-12557452D01*
X10945595Y-12538405D01*
X10945595Y-12462214D01*
X10955119Y-12443167D01*
X10974167Y-12433643D01*
X11012262Y-12433643D01*
X11031310Y-12443167D01*
X11040833Y-12462214D01*
X11040833Y-12481262D01*
X10945595Y-12500309D01*
X11117024Y-12557452D02*
X11136071Y-12566976D01*
X11174167Y-12566976D01*
X11193214Y-12557452D01*
X11202738Y-12538405D01*
X11202738Y-12528881D01*
X11193214Y-12509833D01*
X11174167Y-12500309D01*
X11145595Y-12500309D01*
X11126548Y-12490786D01*
X11117024Y-12471738D01*
X11117024Y-12462214D01*
X11126548Y-12443167D01*
X11145595Y-12433643D01*
X11174167Y-12433643D01*
X11193214Y-12443167D01*
X11269405Y-12643167D02*
X11278928Y-12633643D01*
X11297976Y-12605071D01*
X11307500Y-12586024D01*
X11317024Y-12557452D01*
X11326548Y-12509833D01*
X11326548Y-12471738D01*
X11317024Y-12424119D01*
X11307500Y-12395548D01*
X11297976Y-12376500D01*
X11278928Y-12347928D01*
X11269405Y-12338405D01*
M02*
