G04 #@! TF.GenerationSoftware,KiCad,Pcbnew,6.0.2+dfsg-1*
G04 #@! TF.CreationDate,2023-01-06T20:52:01-08:00*
G04 #@! TF.ProjectId,RP2040_debugger,52503230-3430-45f6-9465-627567676572,REV1*
G04 #@! TF.SameCoordinates,Original*
G04 #@! TF.FileFunction,Legend,Bot*
G04 #@! TF.FilePolarity,Positive*
%FSLAX46Y46*%
G04 Gerber Fmt 4.6, Leading zero omitted, Abs format (unit mm)*
G04 Created by KiCad (PCBNEW 6.0.2+dfsg-1) date 2023-01-06 20:52:01*
%MOMM*%
%LPD*%
G01*
G04 APERTURE LIST*
G04 Aperture macros list*
%AMRoundRect*
0 Rectangle with rounded corners*
0 $1 Rounding radius*
0 $2 $3 $4 $5 $6 $7 $8 $9 X,Y pos of 4 corners*
0 Add a 4 corners polygon primitive as box body*
4,1,4,$2,$3,$4,$5,$6,$7,$8,$9,$2,$3,0*
0 Add four circle primitives for the rounded corners*
1,1,$1+$1,$2,$3*
1,1,$1+$1,$4,$5*
1,1,$1+$1,$6,$7*
1,1,$1+$1,$8,$9*
0 Add four rect primitives between the rounded corners*
20,1,$1+$1,$2,$3,$4,$5,0*
20,1,$1+$1,$4,$5,$6,$7,0*
20,1,$1+$1,$6,$7,$8,$9,0*
20,1,$1+$1,$8,$9,$2,$3,0*%
G04 Aperture macros list end*
%ADD10C,0.200000*%
%ADD11C,0.400000*%
%ADD12C,3.900000*%
%ADD13R,1.700000X1.700000*%
%ADD14O,1.700000X1.700000*%
%ADD15RoundRect,0.250000X0.845000X-0.620000X0.845000X0.620000X-0.845000X0.620000X-0.845000X-0.620000X0*%
%ADD16O,2.190000X1.740000*%
%ADD17C,0.650000*%
%ADD18O,1.000000X2.100000*%
%ADD19O,1.000000X1.600000*%
G04 APERTURE END LIST*
D10*
X119021428Y-88573000D02*
X119021428Y-89706333D01*
X119092857Y-89839666D01*
X119164285Y-89906333D01*
X119307142Y-89973000D01*
X119521428Y-89973000D01*
X119664285Y-89906333D01*
X119021428Y-89439666D02*
X119164285Y-89506333D01*
X119450000Y-89506333D01*
X119592857Y-89439666D01*
X119664285Y-89373000D01*
X119735714Y-89239666D01*
X119735714Y-88839666D01*
X119664285Y-88706333D01*
X119592857Y-88639666D01*
X119450000Y-88573000D01*
X119164285Y-88573000D01*
X119021428Y-88639666D01*
X118307142Y-89506333D02*
X118307142Y-88573000D01*
X118307142Y-88106333D02*
X118378571Y-88173000D01*
X118307142Y-88239666D01*
X118235714Y-88173000D01*
X118307142Y-88106333D01*
X118307142Y-88239666D01*
X117807142Y-88573000D02*
X117235714Y-88573000D01*
X117592857Y-88106333D02*
X117592857Y-89306333D01*
X117521428Y-89439666D01*
X117378571Y-89506333D01*
X117235714Y-89506333D01*
X116735714Y-89506333D02*
X116735714Y-88106333D01*
X116092857Y-89506333D02*
X116092857Y-88773000D01*
X116164285Y-88639666D01*
X116307142Y-88573000D01*
X116521428Y-88573000D01*
X116664285Y-88639666D01*
X116735714Y-88706333D01*
X114735714Y-88573000D02*
X114735714Y-89506333D01*
X115378571Y-88573000D02*
X115378571Y-89306333D01*
X115307142Y-89439666D01*
X115164285Y-89506333D01*
X114950000Y-89506333D01*
X114807142Y-89439666D01*
X114735714Y-89373000D01*
X114021428Y-89506333D02*
X114021428Y-88106333D01*
X114021428Y-88639666D02*
X113878571Y-88573000D01*
X113592857Y-88573000D01*
X113450000Y-88639666D01*
X113378571Y-88706333D01*
X113307142Y-88839666D01*
X113307142Y-89239666D01*
X113378571Y-89373000D01*
X113450000Y-89439666D01*
X113592857Y-89506333D01*
X113878571Y-89506333D01*
X114021428Y-89439666D01*
X112664285Y-89373000D02*
X112592857Y-89439666D01*
X112664285Y-89506333D01*
X112735714Y-89439666D01*
X112664285Y-89373000D01*
X112664285Y-89506333D01*
X111307142Y-89439666D02*
X111450000Y-89506333D01*
X111735714Y-89506333D01*
X111878571Y-89439666D01*
X111950000Y-89373000D01*
X112021428Y-89239666D01*
X112021428Y-88839666D01*
X111950000Y-88706333D01*
X111878571Y-88639666D01*
X111735714Y-88573000D01*
X111450000Y-88573000D01*
X111307142Y-88639666D01*
X110450000Y-89506333D02*
X110592857Y-89439666D01*
X110664285Y-89373000D01*
X110735714Y-89239666D01*
X110735714Y-88839666D01*
X110664285Y-88706333D01*
X110592857Y-88639666D01*
X110450000Y-88573000D01*
X110235714Y-88573000D01*
X110092857Y-88639666D01*
X110021428Y-88706333D01*
X109950000Y-88839666D01*
X109950000Y-89239666D01*
X110021428Y-89373000D01*
X110092857Y-89439666D01*
X110235714Y-89506333D01*
X110450000Y-89506333D01*
X109307142Y-89506333D02*
X109307142Y-88573000D01*
X109307142Y-88706333D02*
X109235714Y-88639666D01*
X109092857Y-88573000D01*
X108878571Y-88573000D01*
X108735714Y-88639666D01*
X108664285Y-88773000D01*
X108664285Y-89506333D01*
X108664285Y-88773000D02*
X108592857Y-88639666D01*
X108450000Y-88573000D01*
X108235714Y-88573000D01*
X108092857Y-88639666D01*
X108021428Y-88773000D01*
X108021428Y-89506333D01*
X106235714Y-88039666D02*
X107521428Y-89839666D01*
X105950000Y-88106333D02*
X105092857Y-88106333D01*
X105521428Y-89506333D02*
X105521428Y-88106333D01*
X104735714Y-88573000D02*
X104450000Y-89506333D01*
X104164285Y-88839666D01*
X103878571Y-89506333D01*
X103592857Y-88573000D01*
X103021428Y-89506333D02*
X103021428Y-88573000D01*
X103021428Y-88106333D02*
X103092857Y-88173000D01*
X103021428Y-88239666D01*
X102950000Y-88173000D01*
X103021428Y-88106333D01*
X103021428Y-88239666D01*
X102378571Y-89439666D02*
X102235714Y-89506333D01*
X101950000Y-89506333D01*
X101807142Y-89439666D01*
X101735714Y-89306333D01*
X101735714Y-89239666D01*
X101807142Y-89106333D01*
X101950000Y-89039666D01*
X102164285Y-89039666D01*
X102307142Y-88973000D01*
X102378571Y-88839666D01*
X102378571Y-88773000D01*
X102307142Y-88639666D01*
X102164285Y-88573000D01*
X101950000Y-88573000D01*
X101807142Y-88639666D01*
X101307142Y-88573000D02*
X100735714Y-88573000D01*
X101092857Y-88106333D02*
X101092857Y-89306333D01*
X101021428Y-89439666D01*
X100878571Y-89506333D01*
X100735714Y-89506333D01*
X99664285Y-89439666D02*
X99807142Y-89506333D01*
X100092857Y-89506333D01*
X100235714Y-89439666D01*
X100307142Y-89306333D01*
X100307142Y-88773000D01*
X100235714Y-88639666D01*
X100092857Y-88573000D01*
X99807142Y-88573000D01*
X99664285Y-88639666D01*
X99592857Y-88773000D01*
X99592857Y-88906333D01*
X100307142Y-89039666D01*
X98307142Y-89506333D02*
X98307142Y-88106333D01*
X98307142Y-89439666D02*
X98450000Y-89506333D01*
X98735714Y-89506333D01*
X98878571Y-89439666D01*
X98950000Y-89373000D01*
X99021428Y-89239666D01*
X99021428Y-88839666D01*
X98950000Y-88706333D01*
X98878571Y-88639666D01*
X98735714Y-88573000D01*
X98450000Y-88573000D01*
X98307142Y-88639666D01*
X97592857Y-88973000D02*
X96450000Y-88973000D01*
X95235714Y-88773000D02*
X95735714Y-88773000D01*
X95735714Y-89506333D02*
X95735714Y-88106333D01*
X95021428Y-88106333D01*
X94450000Y-89506333D02*
X94450000Y-88573000D01*
X94450000Y-88106333D02*
X94521428Y-88173000D01*
X94450000Y-88239666D01*
X94378571Y-88173000D01*
X94450000Y-88106333D01*
X94450000Y-88239666D01*
X93164285Y-89439666D02*
X93307142Y-89506333D01*
X93592857Y-89506333D01*
X93735714Y-89439666D01*
X93807142Y-89306333D01*
X93807142Y-88773000D01*
X93735714Y-88639666D01*
X93592857Y-88573000D01*
X93307142Y-88573000D01*
X93164285Y-88639666D01*
X93092857Y-88773000D01*
X93092857Y-88906333D01*
X93807142Y-89039666D01*
X92235714Y-89506333D02*
X92378571Y-89439666D01*
X92450000Y-89306333D01*
X92450000Y-88106333D01*
X91021428Y-89506333D02*
X91021428Y-88106333D01*
X91021428Y-89439666D02*
X91164285Y-89506333D01*
X91450000Y-89506333D01*
X91592857Y-89439666D01*
X91664285Y-89373000D01*
X91735714Y-89239666D01*
X91735714Y-88839666D01*
X91664285Y-88706333D01*
X91592857Y-88639666D01*
X91450000Y-88573000D01*
X91164285Y-88573000D01*
X91021428Y-88639666D01*
X90378571Y-89439666D02*
X90235714Y-89506333D01*
X89950000Y-89506333D01*
X89807142Y-89439666D01*
X89735714Y-89306333D01*
X89735714Y-89239666D01*
X89807142Y-89106333D01*
X89950000Y-89039666D01*
X90164285Y-89039666D01*
X90307142Y-88973000D01*
X90378571Y-88839666D01*
X90378571Y-88773000D01*
X90307142Y-88639666D01*
X90164285Y-88573000D01*
X89950000Y-88573000D01*
X89807142Y-88639666D01*
X88021428Y-88039666D02*
X89307142Y-89839666D01*
X118164285Y-91760333D02*
X118164285Y-90827000D01*
X118164285Y-91093666D02*
X118092857Y-90960333D01*
X118021428Y-90893666D01*
X117878571Y-90827000D01*
X117735714Y-90827000D01*
X117235714Y-90827000D02*
X117235714Y-92227000D01*
X117235714Y-90893666D02*
X117092857Y-90827000D01*
X116807142Y-90827000D01*
X116664285Y-90893666D01*
X116592857Y-90960333D01*
X116521428Y-91093666D01*
X116521428Y-91493666D01*
X116592857Y-91627000D01*
X116664285Y-91693666D01*
X116807142Y-91760333D01*
X117092857Y-91760333D01*
X117235714Y-91693666D01*
X115950000Y-90493666D02*
X115878571Y-90427000D01*
X115735714Y-90360333D01*
X115378571Y-90360333D01*
X115235714Y-90427000D01*
X115164285Y-90493666D01*
X115092857Y-90627000D01*
X115092857Y-90760333D01*
X115164285Y-90960333D01*
X116021428Y-91760333D01*
X115092857Y-91760333D01*
X114164285Y-90360333D02*
X114021428Y-90360333D01*
X113878571Y-90427000D01*
X113807142Y-90493666D01*
X113735714Y-90627000D01*
X113664285Y-90893666D01*
X113664285Y-91227000D01*
X113735714Y-91493666D01*
X113807142Y-91627000D01*
X113878571Y-91693666D01*
X114021428Y-91760333D01*
X114164285Y-91760333D01*
X114307142Y-91693666D01*
X114378571Y-91627000D01*
X114450000Y-91493666D01*
X114521428Y-91227000D01*
X114521428Y-90893666D01*
X114450000Y-90627000D01*
X114378571Y-90493666D01*
X114307142Y-90427000D01*
X114164285Y-90360333D01*
X112378571Y-90827000D02*
X112378571Y-91760333D01*
X112735714Y-90293666D02*
X113092857Y-91293666D01*
X112164285Y-91293666D01*
X111307142Y-90360333D02*
X111164285Y-90360333D01*
X111021428Y-90427000D01*
X110950000Y-90493666D01*
X110878571Y-90627000D01*
X110807142Y-90893666D01*
X110807142Y-91227000D01*
X110878571Y-91493666D01*
X110950000Y-91627000D01*
X111021428Y-91693666D01*
X111164285Y-91760333D01*
X111307142Y-91760333D01*
X111450000Y-91693666D01*
X111521428Y-91627000D01*
X111592857Y-91493666D01*
X111664285Y-91227000D01*
X111664285Y-90893666D01*
X111592857Y-90627000D01*
X111521428Y-90493666D01*
X111450000Y-90427000D01*
X111307142Y-90360333D01*
X110164285Y-91227000D02*
X109021428Y-91227000D01*
X108307142Y-91760333D02*
X108307142Y-90827000D01*
X108307142Y-90960333D02*
X108235714Y-90893666D01*
X108092857Y-90827000D01*
X107878571Y-90827000D01*
X107735714Y-90893666D01*
X107664285Y-91027000D01*
X107664285Y-91760333D01*
X107664285Y-91027000D02*
X107592857Y-90893666D01*
X107450000Y-90827000D01*
X107235714Y-90827000D01*
X107092857Y-90893666D01*
X107021428Y-91027000D01*
X107021428Y-91760333D01*
X106092857Y-91760333D02*
X106235714Y-91693666D01*
X106307142Y-91627000D01*
X106378571Y-91493666D01*
X106378571Y-91093666D01*
X106307142Y-90960333D01*
X106235714Y-90893666D01*
X106092857Y-90827000D01*
X105878571Y-90827000D01*
X105735714Y-90893666D01*
X105664285Y-90960333D01*
X105592857Y-91093666D01*
X105592857Y-91493666D01*
X105664285Y-91627000D01*
X105735714Y-91693666D01*
X105878571Y-91760333D01*
X106092857Y-91760333D01*
X105164285Y-90827000D02*
X104592857Y-90827000D01*
X104950000Y-90360333D02*
X104950000Y-91560333D01*
X104878571Y-91693666D01*
X104735714Y-91760333D01*
X104592857Y-91760333D01*
X103878571Y-91760333D02*
X104021428Y-91693666D01*
X104092857Y-91627000D01*
X104164285Y-91493666D01*
X104164285Y-91093666D01*
X104092857Y-90960333D01*
X104021428Y-90893666D01*
X103878571Y-90827000D01*
X103664285Y-90827000D01*
X103521428Y-90893666D01*
X103450000Y-90960333D01*
X103378571Y-91093666D01*
X103378571Y-91493666D01*
X103450000Y-91627000D01*
X103521428Y-91693666D01*
X103664285Y-91760333D01*
X103878571Y-91760333D01*
X102735714Y-91760333D02*
X102735714Y-90827000D01*
X102735714Y-91093666D02*
X102664285Y-90960333D01*
X102592857Y-90893666D01*
X102450000Y-90827000D01*
X102307142Y-90827000D01*
X101807142Y-91227000D02*
X100664285Y-91227000D01*
X99307142Y-91693666D02*
X99450000Y-91760333D01*
X99735714Y-91760333D01*
X99878571Y-91693666D01*
X99950000Y-91627000D01*
X100021428Y-91493666D01*
X100021428Y-91093666D01*
X99950000Y-90960333D01*
X99878571Y-90893666D01*
X99735714Y-90827000D01*
X99450000Y-90827000D01*
X99307142Y-90893666D01*
X98450000Y-91760333D02*
X98592857Y-91693666D01*
X98664285Y-91627000D01*
X98735714Y-91493666D01*
X98735714Y-91093666D01*
X98664285Y-90960333D01*
X98592857Y-90893666D01*
X98450000Y-90827000D01*
X98235714Y-90827000D01*
X98092857Y-90893666D01*
X98021428Y-90960333D01*
X97950000Y-91093666D01*
X97950000Y-91493666D01*
X98021428Y-91627000D01*
X98092857Y-91693666D01*
X98235714Y-91760333D01*
X98450000Y-91760333D01*
X97307142Y-90827000D02*
X97307142Y-91760333D01*
X97307142Y-90960333D02*
X97235714Y-90893666D01*
X97092857Y-90827000D01*
X96878571Y-90827000D01*
X96735714Y-90893666D01*
X96664285Y-91027000D01*
X96664285Y-91760333D01*
X96164285Y-90827000D02*
X95592857Y-90827000D01*
X95950000Y-90360333D02*
X95950000Y-91560333D01*
X95878571Y-91693666D01*
X95735714Y-91760333D01*
X95592857Y-91760333D01*
X95092857Y-91760333D02*
X95092857Y-90827000D01*
X95092857Y-91093666D02*
X95021428Y-90960333D01*
X94950000Y-90893666D01*
X94807142Y-90827000D01*
X94664285Y-90827000D01*
X93950000Y-91760333D02*
X94092857Y-91693666D01*
X94164285Y-91627000D01*
X94235714Y-91493666D01*
X94235714Y-91093666D01*
X94164285Y-90960333D01*
X94092857Y-90893666D01*
X93950000Y-90827000D01*
X93735714Y-90827000D01*
X93592857Y-90893666D01*
X93521428Y-90960333D01*
X93450000Y-91093666D01*
X93450000Y-91493666D01*
X93521428Y-91627000D01*
X93592857Y-91693666D01*
X93735714Y-91760333D01*
X93950000Y-91760333D01*
X92592857Y-91760333D02*
X92735714Y-91693666D01*
X92807142Y-91560333D01*
X92807142Y-90360333D01*
X91807142Y-91760333D02*
X91950000Y-91693666D01*
X92021428Y-91560333D01*
X92021428Y-90360333D01*
X90664285Y-91693666D02*
X90807142Y-91760333D01*
X91092857Y-91760333D01*
X91235714Y-91693666D01*
X91307142Y-91560333D01*
X91307142Y-91027000D01*
X91235714Y-90893666D01*
X91092857Y-90827000D01*
X90807142Y-90827000D01*
X90664285Y-90893666D01*
X90592857Y-91027000D01*
X90592857Y-91160333D01*
X91307142Y-91293666D01*
X89950000Y-91760333D02*
X89950000Y-90827000D01*
X89950000Y-91093666D02*
X89878571Y-90960333D01*
X89807142Y-90893666D01*
X89664285Y-90827000D01*
X89521428Y-90827000D01*
D11*
X115523809Y-64961428D02*
X115523809Y-66961428D01*
X115523809Y-65056666D02*
X115333333Y-64961428D01*
X114952380Y-64961428D01*
X114761904Y-65056666D01*
X114666666Y-65151904D01*
X114571428Y-65342380D01*
X114571428Y-65913809D01*
X114666666Y-66104285D01*
X114761904Y-66199523D01*
X114952380Y-66294761D01*
X115333333Y-66294761D01*
X115523809Y-66199523D01*
X112857142Y-66294761D02*
X112857142Y-65247142D01*
X112952380Y-65056666D01*
X113142857Y-64961428D01*
X113523809Y-64961428D01*
X113714285Y-65056666D01*
X112857142Y-66199523D02*
X113047619Y-66294761D01*
X113523809Y-66294761D01*
X113714285Y-66199523D01*
X113809523Y-66009047D01*
X113809523Y-65818571D01*
X113714285Y-65628095D01*
X113523809Y-65532857D01*
X113047619Y-65532857D01*
X112857142Y-65437619D01*
X111904761Y-66294761D02*
X111904761Y-64961428D01*
X111904761Y-65342380D02*
X111809523Y-65151904D01*
X111714285Y-65056666D01*
X111523809Y-64961428D01*
X111333333Y-64961428D01*
X109809523Y-66294761D02*
X109809523Y-64294761D01*
X109809523Y-66199523D02*
X110000000Y-66294761D01*
X110380952Y-66294761D01*
X110571428Y-66199523D01*
X110666666Y-66104285D01*
X110761904Y-65913809D01*
X110761904Y-65342380D01*
X110666666Y-65151904D01*
X110571428Y-65056666D01*
X110380952Y-64961428D01*
X110000000Y-64961428D01*
X109809523Y-65056666D01*
X108571428Y-66294761D02*
X108761904Y-66199523D01*
X108857142Y-66104285D01*
X108952380Y-65913809D01*
X108952380Y-65342380D01*
X108857142Y-65151904D01*
X108761904Y-65056666D01*
X108571428Y-64961428D01*
X108285714Y-64961428D01*
X108095238Y-65056666D01*
X108000000Y-65151904D01*
X107904761Y-65342380D01*
X107904761Y-65913809D01*
X108000000Y-66104285D01*
X108095238Y-66199523D01*
X108285714Y-66294761D01*
X108571428Y-66294761D01*
X107047619Y-64961428D02*
X107047619Y-66294761D01*
X107047619Y-65151904D02*
X106952380Y-65056666D01*
X106761904Y-64961428D01*
X106476190Y-64961428D01*
X106285714Y-65056666D01*
X106190476Y-65247142D01*
X106190476Y-66294761D01*
X103714285Y-66294761D02*
X103714285Y-64961428D01*
X103714285Y-65151904D02*
X103619047Y-65056666D01*
X103428571Y-64961428D01*
X103142857Y-64961428D01*
X102952380Y-65056666D01*
X102857142Y-65247142D01*
X102857142Y-66294761D01*
X102857142Y-65247142D02*
X102761904Y-65056666D01*
X102571428Y-64961428D01*
X102285714Y-64961428D01*
X102095238Y-65056666D01*
X102000000Y-65247142D01*
X102000000Y-66294761D01*
X100285714Y-66199523D02*
X100476190Y-66294761D01*
X100857142Y-66294761D01*
X101047619Y-66199523D01*
X101142857Y-66009047D01*
X101142857Y-65247142D01*
X101047619Y-65056666D01*
X100857142Y-64961428D01*
X100476190Y-64961428D01*
X100285714Y-65056666D01*
X100190476Y-65247142D01*
X100190476Y-65437619D01*
X101142857Y-65628095D01*
X99238095Y-66199523D02*
X99238095Y-66294761D01*
X99333333Y-66485238D01*
X99428571Y-66580476D01*
X96857142Y-66294761D02*
X96857142Y-64294761D01*
X96857142Y-65056666D02*
X96666666Y-64961428D01*
X96285714Y-64961428D01*
X96095238Y-65056666D01*
X96000000Y-65151904D01*
X95904761Y-65342380D01*
X95904761Y-65913809D01*
X96000000Y-66104285D01*
X96095238Y-66199523D01*
X96285714Y-66294761D01*
X96666666Y-66294761D01*
X96857142Y-66199523D01*
X94190476Y-64961428D02*
X94190476Y-66294761D01*
X95047619Y-64961428D02*
X95047619Y-66009047D01*
X94952380Y-66199523D01*
X94761904Y-66294761D01*
X94476190Y-66294761D01*
X94285714Y-66199523D01*
X94190476Y-66104285D01*
X93523809Y-64961428D02*
X92761904Y-64961428D01*
X93238095Y-64294761D02*
X93238095Y-66009047D01*
X93142857Y-66199523D01*
X92952380Y-66294761D01*
X92761904Y-66294761D01*
X89714285Y-64961428D02*
X89714285Y-66294761D01*
X90571428Y-64961428D02*
X90571428Y-66009047D01*
X90476190Y-66199523D01*
X90285714Y-66294761D01*
X90000000Y-66294761D01*
X89809523Y-66199523D01*
X89714285Y-66104285D01*
X88761904Y-66294761D02*
X88761904Y-64961428D01*
X88761904Y-65342380D02*
X88666666Y-65151904D01*
X88571428Y-65056666D01*
X88380952Y-64961428D01*
X88190476Y-64961428D01*
X117952380Y-69514761D02*
X117952380Y-67514761D01*
X117952380Y-68276666D02*
X117761904Y-68181428D01*
X117380952Y-68181428D01*
X117190476Y-68276666D01*
X117095238Y-68371904D01*
X117000000Y-68562380D01*
X117000000Y-69133809D01*
X117095238Y-69324285D01*
X117190476Y-69419523D01*
X117380952Y-69514761D01*
X117761904Y-69514761D01*
X117952380Y-69419523D01*
X115857142Y-69514761D02*
X116047619Y-69419523D01*
X116142857Y-69324285D01*
X116238095Y-69133809D01*
X116238095Y-68562380D01*
X116142857Y-68371904D01*
X116047619Y-68276666D01*
X115857142Y-68181428D01*
X115571428Y-68181428D01*
X115380952Y-68276666D01*
X115285714Y-68371904D01*
X115190476Y-68562380D01*
X115190476Y-69133809D01*
X115285714Y-69324285D01*
X115380952Y-69419523D01*
X115571428Y-69514761D01*
X115857142Y-69514761D01*
X113476190Y-69514761D02*
X113476190Y-68467142D01*
X113571428Y-68276666D01*
X113761904Y-68181428D01*
X114142857Y-68181428D01*
X114333333Y-68276666D01*
X113476190Y-69419523D02*
X113666666Y-69514761D01*
X114142857Y-69514761D01*
X114333333Y-69419523D01*
X114428571Y-69229047D01*
X114428571Y-69038571D01*
X114333333Y-68848095D01*
X114142857Y-68752857D01*
X113666666Y-68752857D01*
X113476190Y-68657619D01*
X112523809Y-69514761D02*
X112523809Y-68181428D01*
X112523809Y-68562380D02*
X112428571Y-68371904D01*
X112333333Y-68276666D01*
X112142857Y-68181428D01*
X111952380Y-68181428D01*
X110428571Y-69514761D02*
X110428571Y-67514761D01*
X110428571Y-69419523D02*
X110619047Y-69514761D01*
X111000000Y-69514761D01*
X111190476Y-69419523D01*
X111285714Y-69324285D01*
X111380952Y-69133809D01*
X111380952Y-68562380D01*
X111285714Y-68371904D01*
X111190476Y-68276666D01*
X111000000Y-68181428D01*
X110619047Y-68181428D01*
X110428571Y-68276666D01*
X107952380Y-69514761D02*
X107952380Y-68181428D01*
X107952380Y-67514761D02*
X108047619Y-67610000D01*
X107952380Y-67705238D01*
X107857142Y-67610000D01*
X107952380Y-67514761D01*
X107952380Y-67705238D01*
X107095238Y-69419523D02*
X106904761Y-69514761D01*
X106523809Y-69514761D01*
X106333333Y-69419523D01*
X106238095Y-69229047D01*
X106238095Y-69133809D01*
X106333333Y-68943333D01*
X106523809Y-68848095D01*
X106809523Y-68848095D01*
X107000000Y-68752857D01*
X107095238Y-68562380D01*
X107095238Y-68467142D01*
X107000000Y-68276666D01*
X106809523Y-68181428D01*
X106523809Y-68181428D01*
X106333333Y-68276666D01*
X103000000Y-68181428D02*
X103000000Y-69514761D01*
X103857142Y-68181428D02*
X103857142Y-69229047D01*
X103761904Y-69419523D01*
X103571428Y-69514761D01*
X103285714Y-69514761D01*
X103095238Y-69419523D01*
X103000000Y-69324285D01*
X102047619Y-68181428D02*
X102047619Y-70181428D01*
X102047619Y-68276666D02*
X101857142Y-68181428D01*
X101476190Y-68181428D01*
X101285714Y-68276666D01*
X101190476Y-68371904D01*
X101095238Y-68562380D01*
X101095238Y-69133809D01*
X101190476Y-69324285D01*
X101285714Y-69419523D01*
X101476190Y-69514761D01*
X101857142Y-69514761D01*
X102047619Y-69419523D01*
X100333333Y-69419523D02*
X100142857Y-69514761D01*
X99761904Y-69514761D01*
X99571428Y-69419523D01*
X99476190Y-69229047D01*
X99476190Y-69133809D01*
X99571428Y-68943333D01*
X99761904Y-68848095D01*
X100047619Y-68848095D01*
X100238095Y-68752857D01*
X100333333Y-68562380D01*
X100333333Y-68467142D01*
X100238095Y-68276666D01*
X100047619Y-68181428D01*
X99761904Y-68181428D01*
X99571428Y-68276666D01*
X98619047Y-69514761D02*
X98619047Y-68181428D01*
X98619047Y-67514761D02*
X98714285Y-67610000D01*
X98619047Y-67705238D01*
X98523809Y-67610000D01*
X98619047Y-67514761D01*
X98619047Y-67705238D01*
X96809523Y-69514761D02*
X96809523Y-67514761D01*
X96809523Y-69419523D02*
X97000000Y-69514761D01*
X97380952Y-69514761D01*
X97571428Y-69419523D01*
X97666666Y-69324285D01*
X97761904Y-69133809D01*
X97761904Y-68562380D01*
X97666666Y-68371904D01*
X97571428Y-68276666D01*
X97380952Y-68181428D01*
X97000000Y-68181428D01*
X96809523Y-68276666D01*
X95095238Y-69419523D02*
X95285714Y-69514761D01*
X95666666Y-69514761D01*
X95857142Y-69419523D01*
X95952380Y-69229047D01*
X95952380Y-68467142D01*
X95857142Y-68276666D01*
X95666666Y-68181428D01*
X95285714Y-68181428D01*
X95095238Y-68276666D01*
X95000000Y-68467142D01*
X95000000Y-68657619D01*
X95952380Y-68848095D01*
X91761904Y-69514761D02*
X91761904Y-67514761D01*
X91761904Y-69419523D02*
X91952380Y-69514761D01*
X92333333Y-69514761D01*
X92523809Y-69419523D01*
X92619047Y-69324285D01*
X92714285Y-69133809D01*
X92714285Y-68562380D01*
X92619047Y-68371904D01*
X92523809Y-68276666D01*
X92333333Y-68181428D01*
X91952380Y-68181428D01*
X91761904Y-68276666D01*
X90523809Y-69514761D02*
X90714285Y-69419523D01*
X90809523Y-69324285D01*
X90904761Y-69133809D01*
X90904761Y-68562380D01*
X90809523Y-68371904D01*
X90714285Y-68276666D01*
X90523809Y-68181428D01*
X90238095Y-68181428D01*
X90047619Y-68276666D01*
X89952380Y-68371904D01*
X89857142Y-68562380D01*
X89857142Y-69133809D01*
X89952380Y-69324285D01*
X90047619Y-69419523D01*
X90238095Y-69514761D01*
X90523809Y-69514761D01*
X89190476Y-68181428D02*
X88809523Y-69514761D01*
X88428571Y-68562380D01*
X88047619Y-69514761D01*
X87666666Y-68181428D01*
X86904761Y-68181428D02*
X86904761Y-69514761D01*
X86904761Y-68371904D02*
X86809523Y-68276666D01*
X86619047Y-68181428D01*
X86333333Y-68181428D01*
X86142857Y-68276666D01*
X86047619Y-68467142D01*
X86047619Y-69514761D01*
%LPC*%
D12*
X70000000Y-97000000D03*
D13*
X78500000Y-74500000D03*
D14*
X78500000Y-77040000D03*
X78500000Y-79580000D03*
X78500000Y-82120000D03*
X78500000Y-84660000D03*
X78500000Y-87200000D03*
X78500000Y-89740000D03*
X78500000Y-92280000D03*
X78500000Y-94820000D03*
X78500000Y-97360000D03*
D12*
X117000000Y-97000000D03*
X70000000Y-60000000D03*
D15*
X106832000Y-84636000D03*
D16*
X106832000Y-82096000D03*
X106832000Y-79556000D03*
X106832000Y-77016000D03*
X106832000Y-74476000D03*
X106832000Y-71936000D03*
D12*
X117000000Y-60000000D03*
D15*
X80000000Y-70750000D03*
D16*
X80000000Y-68210000D03*
X80000000Y-65670000D03*
X80000000Y-63130000D03*
X80000000Y-60590000D03*
X80000000Y-58050000D03*
D17*
X89540000Y-96795000D03*
X83760000Y-96795000D03*
D18*
X90970000Y-96295000D03*
X82330000Y-96295000D03*
D19*
X82330000Y-100475000D03*
X90970000Y-100475000D03*
M02*
