G04 #@! TF.GenerationSoftware,KiCad,Pcbnew,6.0.0-rc2*
G04 #@! TF.CreationDate,2022-06-15T13:36:45-07:00*
G04 #@! TF.ProjectId,RP2040_motor,52503230-3430-45f6-9d6f-746f722e6b69,REV1*
G04 #@! TF.SameCoordinates,Original*
G04 #@! TF.FileFunction,Legend,Bot*
G04 #@! TF.FilePolarity,Positive*
%FSLAX46Y46*%
G04 Gerber Fmt 4.6, Leading zero omitted, Abs format (unit mm)*
G04 Created by KiCad (PCBNEW 6.0.0-rc2) date 2022-06-15 13:36:45*
%MOMM*%
%LPD*%
G01*
G04 APERTURE LIST*
G04 Aperture macros list*
%AMRoundRect*
0 Rectangle with rounded corners*
0 $1 Rounding radius*
0 $2 $3 $4 $5 $6 $7 $8 $9 X,Y pos of 4 corners*
0 Add a 4 corners polygon primitive as box body*
4,1,4,$2,$3,$4,$5,$6,$7,$8,$9,$2,$3,0*
0 Add four circle primitives for the rounded corners*
1,1,$1+$1,$2,$3*
1,1,$1+$1,$4,$5*
1,1,$1+$1,$6,$7*
1,1,$1+$1,$8,$9*
0 Add four rect primitives between the rounded corners*
20,1,$1+$1,$2,$3,$4,$5,0*
20,1,$1+$1,$4,$5,$6,$7,0*
20,1,$1+$1,$6,$7,$8,$9,0*
20,1,$1+$1,$8,$9,$2,$3,0*%
G04 Aperture macros list end*
%ADD10RoundRect,0.301000X0.845000X-0.620000X0.845000X0.620000X-0.845000X0.620000X-0.845000X-0.620000X0*%
%ADD11O,2.292000X1.842000*%
%ADD12C,2.102000*%
%ADD13C,4.102000*%
%ADD14RoundRect,0.301000X-0.620000X-0.845000X0.620000X-0.845000X0.620000X0.845000X-0.620000X0.845000X0*%
%ADD15O,1.842000X2.292000*%
%ADD16C,6.102000*%
%ADD17C,0.752000*%
%ADD18O,1.102000X2.202000*%
%ADD19O,1.102000X1.702000*%
G04 APERTURE END LIST*
%LPC*%
D10*
X77750000Y-89300000D03*
D11*
X77750000Y-86760000D03*
X77750000Y-84220000D03*
X77750000Y-81680000D03*
D12*
X101890000Y-84000000D03*
X95390000Y-84000000D03*
X101890000Y-88500000D03*
X95390000Y-88500000D03*
D13*
X156619000Y-89920000D03*
D14*
X83390000Y-86600000D03*
D15*
X85930000Y-86600000D03*
X88470000Y-86600000D03*
D13*
X156619000Y-72130000D03*
D10*
X77750000Y-105700000D03*
D11*
X77750000Y-103160000D03*
X77750000Y-100620000D03*
X77750000Y-98080000D03*
X77750000Y-95540000D03*
X77750000Y-93000000D03*
D16*
X119740000Y-73000000D03*
D13*
X156619000Y-100510000D03*
D10*
X77750000Y-77950000D03*
D11*
X77750000Y-75410000D03*
X77750000Y-72870000D03*
X77750000Y-70330000D03*
D10*
X77750000Y-119650000D03*
D11*
X77750000Y-117110000D03*
X77750000Y-114570000D03*
X77750000Y-112030000D03*
X77750000Y-109490000D03*
D13*
X156619000Y-117800000D03*
X156619000Y-80470000D03*
X156619000Y-109350000D03*
D17*
X93180000Y-116645000D03*
X87400000Y-116645000D03*
D18*
X94610000Y-116145000D03*
X85970000Y-116145000D03*
D19*
X85970000Y-120325000D03*
X94610000Y-120325000D03*
D16*
X126990000Y-73000000D03*
M02*
