G04 #@! TF.GenerationSoftware,KiCad,Pcbnew,6.0.0-rc2*
G04 #@! TF.CreationDate,2022-06-15T13:36:45-07:00*
G04 #@! TF.ProjectId,RP2040_motor,52503230-3430-45f6-9d6f-746f722e6b69,REV1*
G04 #@! TF.SameCoordinates,Original*
G04 #@! TF.FileFunction,Soldermask,Top*
G04 #@! TF.FilePolarity,Negative*
%FSLAX46Y46*%
G04 Gerber Fmt 4.6, Leading zero omitted, Abs format (unit mm)*
G04 Created by KiCad (PCBNEW 6.0.0-rc2) date 2022-06-15 13:36:45*
%MOMM*%
%LPD*%
G01*
G04 APERTURE LIST*
G04 Aperture macros list*
%AMRoundRect*
0 Rectangle with rounded corners*
0 $1 Rounding radius*
0 $2 $3 $4 $5 $6 $7 $8 $9 X,Y pos of 4 corners*
0 Add a 4 corners polygon primitive as box body*
4,1,4,$2,$3,$4,$5,$6,$7,$8,$9,$2,$3,0*
0 Add four circle primitives for the rounded corners*
1,1,$1+$1,$2,$3*
1,1,$1+$1,$4,$5*
1,1,$1+$1,$6,$7*
1,1,$1+$1,$8,$9*
0 Add four rect primitives between the rounded corners*
20,1,$1+$1,$2,$3,$4,$5,0*
20,1,$1+$1,$4,$5,$6,$7,0*
20,1,$1+$1,$6,$7,$8,$9,0*
20,1,$1+$1,$8,$9,$2,$3,0*%
G04 Aperture macros list end*
%ADD10RoundRect,0.294750X0.243750X0.456250X-0.243750X0.456250X-0.243750X-0.456250X0.243750X-0.456250X0*%
%ADD11RoundRect,0.276000X0.225000X0.250000X-0.225000X0.250000X-0.225000X-0.250000X0.225000X-0.250000X0*%
%ADD12RoundRect,0.276000X-0.250000X0.225000X-0.250000X-0.225000X0.250000X-0.225000X0.250000X0.225000X0*%
%ADD13RoundRect,0.276000X-0.225000X-0.250000X0.225000X-0.250000X0.225000X0.250000X-0.225000X0.250000X0*%
%ADD14RoundRect,0.276000X0.250000X-0.225000X0.250000X0.225000X-0.250000X0.225000X-0.250000X-0.225000X0*%
%ADD15RoundRect,0.198500X0.147500X0.172500X-0.147500X0.172500X-0.147500X-0.172500X0.147500X-0.172500X0*%
%ADD16RoundRect,0.051000X0.750000X-1.000000X0.750000X1.000000X-0.750000X1.000000X-0.750000X-1.000000X0*%
%ADD17RoundRect,0.051000X1.900000X-1.000000X1.900000X1.000000X-1.900000X1.000000X-1.900000X-1.000000X0*%
%ADD18RoundRect,0.201000X-0.150000X0.650000X-0.150000X-0.650000X0.150000X-0.650000X0.150000X0.650000X0*%
%ADD19RoundRect,0.251000X-0.200000X-0.275000X0.200000X-0.275000X0.200000X0.275000X-0.200000X0.275000X0*%
%ADD20RoundRect,0.251000X0.275000X-0.200000X0.275000X0.200000X-0.275000X0.200000X-0.275000X-0.200000X0*%
%ADD21RoundRect,0.294750X-0.456250X0.243750X-0.456250X-0.243750X0.456250X-0.243750X0.456250X0.243750X0*%
%ADD22RoundRect,0.101000X0.387500X0.050000X-0.387500X0.050000X-0.387500X-0.050000X0.387500X-0.050000X0*%
%ADD23RoundRect,0.101000X0.050000X0.387500X-0.050000X0.387500X-0.050000X-0.387500X0.050000X-0.387500X0*%
%ADD24RoundRect,0.195000X1.456000X1.456000X-1.456000X1.456000X-1.456000X-1.456000X1.456000X-1.456000X0*%
%ADD25RoundRect,0.301000X-0.250000X-0.475000X0.250000X-0.475000X0.250000X0.475000X-0.250000X0.475000X0*%
%ADD26RoundRect,0.301000X0.845000X-0.620000X0.845000X0.620000X-0.845000X0.620000X-0.845000X-0.620000X0*%
%ADD27O,2.292000X1.842000*%
%ADD28RoundRect,0.201000X-0.150000X0.825000X-0.150000X-0.825000X0.150000X-0.825000X0.150000X0.825000X0*%
%ADD29RoundRect,0.676000X-1.075000X0.625000X-1.075000X-0.625000X1.075000X-0.625000X1.075000X0.625000X0*%
%ADD30RoundRect,0.051000X0.600000X-0.450000X0.600000X0.450000X-0.600000X0.450000X-0.600000X-0.450000X0*%
%ADD31RoundRect,0.301000X1.500000X1.000000X-1.500000X1.000000X-1.500000X-1.000000X1.500000X-1.000000X0*%
%ADD32RoundRect,0.251000X-0.275000X0.200000X-0.275000X-0.200000X0.275000X-0.200000X0.275000X0.200000X0*%
%ADD33RoundRect,0.301000X-1.500000X-0.550000X1.500000X-0.550000X1.500000X0.550000X-1.500000X0.550000X0*%
%ADD34RoundRect,0.051000X-0.300000X-0.350000X0.300000X-0.350000X0.300000X0.350000X-0.300000X0.350000X0*%
%ADD35C,2.102000*%
%ADD36RoundRect,0.301000X0.362500X1.425000X-0.362500X1.425000X-0.362500X-1.425000X0.362500X-1.425000X0*%
%ADD37RoundRect,0.051000X0.635000X0.305000X-0.635000X0.305000X-0.635000X-0.305000X0.635000X-0.305000X0*%
%ADD38RoundRect,0.051000X0.510000X0.305000X-0.510000X0.305000X-0.510000X-0.305000X0.510000X-0.305000X0*%
%ADD39RoundRect,0.051000X1.905000X1.955000X-1.905000X1.955000X-1.905000X-1.955000X1.905000X-1.955000X0*%
%ADD40C,4.102000*%
%ADD41RoundRect,0.051000X-0.450000X-0.600000X0.450000X-0.600000X0.450000X0.600000X-0.450000X0.600000X0*%
%ADD42RoundRect,0.251000X0.200000X0.275000X-0.200000X0.275000X-0.200000X-0.275000X0.200000X-0.275000X0*%
%ADD43RoundRect,0.301000X-0.620000X-0.845000X0.620000X-0.845000X0.620000X0.845000X-0.620000X0.845000X0*%
%ADD44O,1.842000X2.292000*%
%ADD45RoundRect,0.051000X-1.250000X-0.900000X1.250000X-0.900000X1.250000X0.900000X-1.250000X0.900000X0*%
%ADD46RoundRect,0.201000X0.825000X0.150000X-0.825000X0.150000X-0.825000X-0.150000X0.825000X-0.150000X0*%
%ADD47C,6.102000*%
%ADD48RoundRect,0.301000X-0.475000X0.250000X-0.475000X-0.250000X0.475000X-0.250000X0.475000X0.250000X0*%
%ADD49RoundRect,0.051000X-0.225000X0.300000X-0.225000X-0.300000X0.225000X-0.300000X0.225000X0.300000X0*%
%ADD50RoundRect,0.051000X2.750000X-1.075000X2.750000X1.075000X-2.750000X1.075000X-2.750000X-1.075000X0*%
%ADD51RoundRect,0.051000X0.450000X0.600000X-0.450000X0.600000X-0.450000X-0.600000X0.450000X-0.600000X0*%
%ADD52RoundRect,0.051000X-0.700000X-0.600000X0.700000X-0.600000X0.700000X0.600000X-0.700000X0.600000X0*%
%ADD53RoundRect,0.301000X0.625000X-0.312500X0.625000X0.312500X-0.625000X0.312500X-0.625000X-0.312500X0*%
%ADD54C,0.752000*%
%ADD55RoundRect,0.051000X-0.150000X-0.575000X0.150000X-0.575000X0.150000X0.575000X-0.150000X0.575000X0*%
%ADD56O,1.102000X2.202000*%
%ADD57O,1.102000X1.702000*%
G04 APERTURE END LIST*
D10*
X98542500Y-100200000D03*
X96667500Y-100200000D03*
D11*
X85030000Y-111690000D03*
X83480000Y-111690000D03*
D12*
X87480000Y-110760000D03*
X87480000Y-112310000D03*
D13*
X96990000Y-103550000D03*
X98540000Y-103550000D03*
D14*
X102660000Y-117070000D03*
X102660000Y-115520000D03*
D15*
X101110000Y-107010000D03*
X100140000Y-107010000D03*
D16*
X97380000Y-97750000D03*
D17*
X99680000Y-91450000D03*
D16*
X99680000Y-97750000D03*
X101980000Y-97750000D03*
D18*
X100720000Y-110860000D03*
X99450000Y-110860000D03*
X98180000Y-110860000D03*
X96910000Y-110860000D03*
X96910000Y-118060000D03*
X98180000Y-118060000D03*
X99450000Y-118060000D03*
X100720000Y-118060000D03*
D11*
X89570000Y-95650000D03*
X88020000Y-95650000D03*
D19*
X100550000Y-108510000D03*
X102200000Y-108510000D03*
D12*
X89930000Y-111910000D03*
X89930000Y-113460000D03*
D11*
X84320000Y-103800000D03*
X82770000Y-103800000D03*
D14*
X89249000Y-98790000D03*
X89249000Y-97240000D03*
D20*
X84080000Y-116160000D03*
X84080000Y-114510000D03*
D14*
X87630000Y-98840000D03*
X87630000Y-97290000D03*
D21*
X102490000Y-100010000D03*
X102490000Y-101885000D03*
D13*
X95990000Y-108900000D03*
X97540000Y-108900000D03*
D11*
X84970000Y-110100000D03*
X83420000Y-110100000D03*
D22*
X93717500Y-107850000D03*
X93717500Y-107450000D03*
X93717500Y-107050000D03*
X93717500Y-106650000D03*
X93717500Y-106250000D03*
X93717500Y-105850000D03*
X93717500Y-105450000D03*
X93717500Y-105050000D03*
X93717500Y-104650000D03*
X93717500Y-104250000D03*
X93717500Y-103850000D03*
X93717500Y-103450000D03*
X93717500Y-103050000D03*
X93717500Y-102650000D03*
D23*
X92880000Y-101812500D03*
X92480000Y-101812500D03*
X92080000Y-101812500D03*
X91680000Y-101812500D03*
X91280000Y-101812500D03*
X90880000Y-101812500D03*
X90480000Y-101812500D03*
X90080000Y-101812500D03*
X89680000Y-101812500D03*
X89280000Y-101812500D03*
X88880000Y-101812500D03*
X88480000Y-101812500D03*
X88080000Y-101812500D03*
X87680000Y-101812500D03*
D22*
X86842500Y-102650000D03*
X86842500Y-103050000D03*
X86842500Y-103450000D03*
X86842500Y-103850000D03*
X86842500Y-104250000D03*
X86842500Y-104650000D03*
X86842500Y-105050000D03*
X86842500Y-105450000D03*
X86842500Y-105850000D03*
X86842500Y-106250000D03*
X86842500Y-106650000D03*
X86842500Y-107050000D03*
X86842500Y-107450000D03*
X86842500Y-107850000D03*
D23*
X87680000Y-108687500D03*
X88080000Y-108687500D03*
X88480000Y-108687500D03*
X88880000Y-108687500D03*
X89280000Y-108687500D03*
X89680000Y-108687500D03*
X90080000Y-108687500D03*
X90480000Y-108687500D03*
X90880000Y-108687500D03*
X91280000Y-108687500D03*
X91680000Y-108687500D03*
X92080000Y-108687500D03*
X92480000Y-108687500D03*
X92880000Y-108687500D03*
D24*
X90280000Y-105250000D03*
D14*
X94040000Y-93600000D03*
X94040000Y-92050000D03*
D20*
X82280000Y-116160000D03*
X82280000Y-114510000D03*
D12*
X91630000Y-111910000D03*
X91630000Y-113460000D03*
D11*
X84970000Y-108450000D03*
X83420000Y-108450000D03*
D20*
X91380000Y-98560000D03*
X91380000Y-96910000D03*
D21*
X100440000Y-100037500D03*
X100440000Y-101912500D03*
D12*
X115410000Y-71065900D03*
X115410000Y-72615900D03*
D25*
X111230900Y-103380000D03*
X113130900Y-103380000D03*
D26*
X77750000Y-89300000D03*
D27*
X77750000Y-86760000D03*
X77750000Y-84220000D03*
X77750000Y-81680000D03*
D28*
X92145000Y-76425000D03*
X90875000Y-76425000D03*
X89605000Y-76425000D03*
X88335000Y-76425000D03*
X88335000Y-81375000D03*
X89605000Y-81375000D03*
X90875000Y-81375000D03*
X92145000Y-81375000D03*
D29*
X90240000Y-78900000D03*
D30*
X116640000Y-104050000D03*
X116640000Y-100750000D03*
D31*
X126850000Y-117050000D03*
X120350000Y-117050000D03*
D32*
X106590000Y-112600000D03*
X106590000Y-114250000D03*
D33*
X95055000Y-72020000D03*
X100455000Y-72020000D03*
D34*
X92690000Y-86150000D03*
X91290000Y-86150000D03*
D35*
X101890000Y-84000000D03*
X95390000Y-84000000D03*
X101890000Y-88500000D03*
X95390000Y-88500000D03*
D36*
X153162500Y-116840000D03*
X147237500Y-116840000D03*
D32*
X158626900Y-95410000D03*
X158626900Y-97060000D03*
D13*
X151415000Y-99000000D03*
X152965000Y-99000000D03*
D37*
X145120000Y-118435000D03*
X145120000Y-119705000D03*
X145120000Y-117165000D03*
X145120000Y-115895000D03*
D38*
X139655000Y-117165000D03*
X139655000Y-118435000D03*
D39*
X141760000Y-117800000D03*
D38*
X139655000Y-119705000D03*
X139655000Y-115895000D03*
D40*
X156619000Y-89920000D03*
D36*
X153162500Y-88960000D03*
X147237500Y-88960000D03*
D32*
X82140000Y-94275000D03*
X82140000Y-95925000D03*
D19*
X155400000Y-95469100D03*
X157050000Y-95469100D03*
D12*
X116460000Y-80525900D03*
X116460000Y-82075900D03*
D41*
X147050000Y-70270000D03*
X150350000Y-70270000D03*
D32*
X83780000Y-94285000D03*
X83780000Y-95935000D03*
D19*
X82495000Y-118460000D03*
X84145000Y-118460000D03*
D37*
X145120000Y-73664500D03*
X145120000Y-74934500D03*
X145120000Y-72394500D03*
X145120000Y-71124500D03*
D38*
X139655000Y-72394500D03*
X139655000Y-74934500D03*
X139655000Y-71124500D03*
X139655000Y-73664500D03*
D39*
X141760000Y-73029500D03*
D32*
X106759000Y-96090000D03*
X106759000Y-97740000D03*
X105669000Y-73810000D03*
X105669000Y-75460000D03*
D41*
X133321000Y-105075000D03*
X136621000Y-105075000D03*
D42*
X84085000Y-120170000D03*
X82435000Y-120170000D03*
D43*
X83390000Y-86600000D03*
D44*
X85930000Y-86600000D03*
X88470000Y-86600000D03*
D45*
X96885000Y-77500000D03*
X100885000Y-77500000D03*
D25*
X111620900Y-94700000D03*
X113520900Y-94700000D03*
D40*
X156619000Y-72130000D03*
D46*
X113824100Y-109755000D03*
X113824100Y-108485000D03*
X113824100Y-107215000D03*
X113824100Y-105945000D03*
X108874100Y-105945000D03*
X108874100Y-107215000D03*
X108874100Y-108485000D03*
X108874100Y-109755000D03*
D26*
X77750000Y-105700000D03*
D27*
X77750000Y-103160000D03*
X77750000Y-100620000D03*
X77750000Y-98080000D03*
X77750000Y-95540000D03*
X77750000Y-93000000D03*
D47*
X119740000Y-73000000D03*
D31*
X126850000Y-81220000D03*
X120350000Y-81220000D03*
D48*
X85300000Y-69445000D03*
X85300000Y-71345000D03*
D32*
X106669000Y-100690000D03*
X106669000Y-102340000D03*
D20*
X83810000Y-92625000D03*
X83810000Y-90975000D03*
D13*
X155446600Y-93745000D03*
X156996600Y-93745000D03*
D49*
X104900000Y-87245000D03*
X104900000Y-89345000D03*
D19*
X155380000Y-97031900D03*
X157030000Y-97031900D03*
D30*
X116640000Y-120950000D03*
X116640000Y-117650000D03*
D37*
X145120000Y-83375000D03*
X145120000Y-80835000D03*
X145120000Y-82105000D03*
X145120000Y-79565000D03*
D39*
X141760000Y-81470000D03*
D38*
X139655000Y-82105000D03*
X139655000Y-83375000D03*
X139655000Y-79565000D03*
X139655000Y-80835000D03*
D40*
X156619000Y-100510000D03*
D50*
X89595000Y-73645000D03*
X89595000Y-69795000D03*
D26*
X77750000Y-77950000D03*
D27*
X77750000Y-75410000D03*
X77750000Y-72870000D03*
X77750000Y-70330000D03*
D36*
X153162500Y-101880000D03*
X147237500Y-101880000D03*
D20*
X86720000Y-77570000D03*
X86720000Y-75920000D03*
D36*
X153162500Y-79640000D03*
X147237500Y-79640000D03*
D49*
X103700000Y-70220000D03*
X103700000Y-72320000D03*
D30*
X115390000Y-77770000D03*
X115390000Y-74470000D03*
D37*
X136520000Y-80835000D03*
X136520000Y-82105000D03*
X136520000Y-83375000D03*
X136520000Y-79565000D03*
D38*
X131055000Y-82105000D03*
X131055000Y-80835000D03*
D39*
X133160000Y-81470000D03*
D38*
X131055000Y-83375000D03*
X131055000Y-79565000D03*
D37*
X136520000Y-89285000D03*
X136520000Y-91825000D03*
X136520000Y-90555000D03*
X136520000Y-88015000D03*
D39*
X133160000Y-89920000D03*
D38*
X131055000Y-90555000D03*
X131055000Y-91825000D03*
X131055000Y-88015000D03*
X131055000Y-89285000D03*
D46*
X112874100Y-75025000D03*
X112874100Y-73755000D03*
X112874100Y-72485000D03*
X112874100Y-71215000D03*
X107924100Y-71215000D03*
X107924100Y-72485000D03*
X107924100Y-73755000D03*
X107924100Y-75025000D03*
D32*
X105759000Y-70410000D03*
X105759000Y-72060000D03*
X106809000Y-79115000D03*
X106809000Y-80765000D03*
D37*
X145120000Y-89285000D03*
X145120000Y-90555000D03*
X145120000Y-91825000D03*
X145120000Y-88015000D03*
D38*
X139655000Y-89285000D03*
X139655000Y-91825000D03*
X139655000Y-90555000D03*
X139655000Y-88015000D03*
D39*
X141760000Y-89920000D03*
D25*
X110230900Y-77100000D03*
X112130900Y-77100000D03*
D46*
X114034100Y-92495000D03*
X114034100Y-91225000D03*
X114034100Y-89955000D03*
X114034100Y-88685000D03*
X109084100Y-88685000D03*
X109084100Y-89955000D03*
X109084100Y-91225000D03*
X109084100Y-92495000D03*
D36*
X153162500Y-107520000D03*
X147237500Y-107520000D03*
D46*
X113834100Y-117525000D03*
X113834100Y-116255000D03*
X113834100Y-114985000D03*
X113834100Y-113715000D03*
X108884100Y-113715000D03*
X108884100Y-114985000D03*
X108884100Y-116255000D03*
X108884100Y-117525000D03*
D42*
X92853000Y-87825100D03*
X91203000Y-87825100D03*
D46*
X114024100Y-84475000D03*
X114024100Y-83205000D03*
X114024100Y-81935000D03*
X114024100Y-80665000D03*
X109074100Y-80665000D03*
X109074100Y-81935000D03*
X109074100Y-83205000D03*
X109074100Y-84475000D03*
D32*
X106711000Y-108905000D03*
X106711000Y-110555000D03*
D49*
X104900000Y-83320000D03*
X104900000Y-85420000D03*
D19*
X91273900Y-84510000D03*
X92923900Y-84510000D03*
D36*
X153162500Y-111620000D03*
X147237500Y-111620000D03*
D37*
X145120000Y-109985000D03*
X145120000Y-108715000D03*
X145120000Y-111255000D03*
X145120000Y-107445000D03*
D38*
X139655000Y-108715000D03*
X139655000Y-107445000D03*
X139655000Y-111255000D03*
D39*
X141760000Y-109350000D03*
D38*
X139655000Y-109985000D03*
D31*
X126850000Y-108600000D03*
X120350000Y-108600000D03*
D41*
X141261000Y-113575000D03*
X144561000Y-113575000D03*
X142050000Y-105150000D03*
X145350000Y-105150000D03*
D32*
X106609000Y-104395000D03*
X106609000Y-106045000D03*
D25*
X111530900Y-111680000D03*
X113430900Y-111680000D03*
D32*
X106790000Y-87570000D03*
X106790000Y-89220000D03*
D51*
X100040000Y-120400000D03*
X96740000Y-120400000D03*
D37*
X136520000Y-74925000D03*
X136520000Y-72385000D03*
X136520000Y-73655000D03*
X136520000Y-71115000D03*
D38*
X131055000Y-73655000D03*
D39*
X133160000Y-73020000D03*
D38*
X131055000Y-74925000D03*
X131055000Y-72385000D03*
X131055000Y-71115000D03*
D49*
X104900000Y-92120000D03*
X104900000Y-94220000D03*
D46*
X153315000Y-97305000D03*
X153315000Y-96035000D03*
X153315000Y-94765000D03*
X153315000Y-93495000D03*
X148365000Y-93495000D03*
X148365000Y-94765000D03*
X148365000Y-96035000D03*
X148365000Y-97305000D03*
D49*
X104900000Y-78770000D03*
X104900000Y-80870000D03*
X104700000Y-95900000D03*
X104700000Y-98000000D03*
D41*
X133671000Y-85545000D03*
X136971000Y-85545000D03*
D19*
X139896900Y-94238000D03*
X141546900Y-94238000D03*
D46*
X113874100Y-101305000D03*
X113874100Y-100035000D03*
X113874100Y-98765000D03*
X113874100Y-97495000D03*
X108924100Y-97495000D03*
X108924100Y-98765000D03*
X108924100Y-100035000D03*
X108924100Y-101305000D03*
D37*
X136520000Y-109985000D03*
X136520000Y-111255000D03*
X136520000Y-108715000D03*
X136520000Y-107445000D03*
D38*
X131055000Y-109985000D03*
X131055000Y-107445000D03*
D39*
X133160000Y-109350000D03*
D38*
X131055000Y-108715000D03*
X131055000Y-111255000D03*
D52*
X89740000Y-93750000D03*
X91940000Y-93750000D03*
X91940000Y-92050000D03*
X89740000Y-92050000D03*
D42*
X146360000Y-95430900D03*
X144710000Y-95430900D03*
D32*
X106490000Y-117400000D03*
X106490000Y-119050000D03*
D31*
X126850000Y-99400000D03*
X120350000Y-99400000D03*
D49*
X103700000Y-73570000D03*
X103700000Y-75670000D03*
D32*
X81990000Y-98085000D03*
X81990000Y-99735000D03*
D26*
X77750000Y-119650000D03*
D27*
X77750000Y-117110000D03*
X77750000Y-114570000D03*
X77750000Y-112030000D03*
X77750000Y-109490000D03*
D32*
X106690000Y-92370000D03*
X106690000Y-94020000D03*
D11*
X146283400Y-93725000D03*
X144733400Y-93725000D03*
D30*
X116740000Y-87120000D03*
X116740000Y-83820000D03*
D37*
X136520000Y-117165000D03*
X136520000Y-119705000D03*
X136520000Y-118435000D03*
X136520000Y-115895000D03*
D38*
X131055000Y-115895000D03*
X131055000Y-118435000D03*
X131055000Y-119705000D03*
X131055000Y-117165000D03*
D39*
X133160000Y-117800000D03*
D41*
X133250000Y-94255000D03*
X136550000Y-94255000D03*
X133321000Y-113635000D03*
X136621000Y-113635000D03*
D12*
X116160000Y-114005900D03*
X116160000Y-115555900D03*
X116360000Y-88975900D03*
X116360000Y-90525900D03*
D19*
X139796900Y-96158000D03*
X141446900Y-96158000D03*
D41*
X133450000Y-77270000D03*
X136750000Y-77270000D03*
X142261000Y-77195000D03*
X145561000Y-77195000D03*
X133250000Y-96650000D03*
X136550000Y-96650000D03*
D49*
X104700000Y-112275000D03*
X104700000Y-114375000D03*
D41*
X150261000Y-120135000D03*
X153561000Y-120135000D03*
D37*
X145120000Y-102814500D03*
X145120000Y-100274500D03*
X145120000Y-101544500D03*
X145120000Y-99004500D03*
D38*
X139655000Y-102814500D03*
X139655000Y-100274500D03*
D39*
X141760000Y-100909500D03*
D38*
X139655000Y-99004500D03*
X139655000Y-101544500D03*
D37*
X136520000Y-101535000D03*
X136520000Y-102805000D03*
X136520000Y-100265000D03*
X136520000Y-98995000D03*
D38*
X131055000Y-102805000D03*
D39*
X133160000Y-100900000D03*
D38*
X131055000Y-98995000D03*
X131055000Y-101535000D03*
X131055000Y-100265000D03*
D32*
X85490000Y-94295000D03*
X85490000Y-95945000D03*
X143096900Y-94510000D03*
X143096900Y-96160000D03*
D42*
X146330000Y-97168100D03*
X144680000Y-97168100D03*
D36*
X153162500Y-83740000D03*
X147237500Y-83740000D03*
X153162500Y-74000000D03*
X147237500Y-74000000D03*
D40*
X156619000Y-117800000D03*
D49*
X104700000Y-104050000D03*
X104700000Y-106150000D03*
X104700000Y-100450000D03*
X104700000Y-102550000D03*
D40*
X156619000Y-80470000D03*
D32*
X106911000Y-83625000D03*
X106911000Y-85275000D03*
D25*
X111420900Y-119730000D03*
X113320900Y-119730000D03*
D30*
X116540000Y-112400000D03*
X116540000Y-109100000D03*
D32*
X85290000Y-98075000D03*
X85290000Y-99725000D03*
D12*
X116260000Y-105805900D03*
X116260000Y-107355900D03*
D40*
X156619000Y-109350000D03*
D32*
X83680000Y-98075000D03*
X83680000Y-99725000D03*
D31*
X126850000Y-90170000D03*
X120350000Y-90170000D03*
D49*
X104700000Y-117150000D03*
X104700000Y-119250000D03*
D53*
X82970000Y-72567500D03*
X82970000Y-69642500D03*
D49*
X104700000Y-108600000D03*
X104700000Y-110700000D03*
D25*
X111730900Y-86650000D03*
X113630900Y-86650000D03*
D30*
X116840000Y-95370000D03*
X116840000Y-92070000D03*
D48*
X94110000Y-76495000D03*
X94110000Y-78395000D03*
D41*
X141961000Y-85605000D03*
X145261000Y-85605000D03*
D20*
X85070000Y-74810000D03*
X85070000Y-73160000D03*
D12*
X116410000Y-97345900D03*
X116410000Y-98895900D03*
D32*
X82180000Y-90975000D03*
X82180000Y-92625000D03*
D14*
X84190000Y-77975000D03*
X84190000Y-76425000D03*
D54*
X93180000Y-116645000D03*
X87400000Y-116645000D03*
D55*
X86940000Y-115580000D03*
X87740000Y-115580000D03*
X89040000Y-115580000D03*
X90040000Y-115580000D03*
X90540000Y-115580000D03*
X91540000Y-115580000D03*
X92840000Y-115580000D03*
X93640000Y-115580000D03*
X93340000Y-115580000D03*
X92540000Y-115580000D03*
X92040000Y-115580000D03*
X91040000Y-115580000D03*
X89540000Y-115580000D03*
X88540000Y-115580000D03*
X88040000Y-115580000D03*
X87240000Y-115580000D03*
D56*
X94610000Y-116145000D03*
X85970000Y-116145000D03*
D57*
X85970000Y-120325000D03*
X94610000Y-120325000D03*
D47*
X126990000Y-73000000D03*
M02*
