G04 #@! TF.GenerationSoftware,KiCad,Pcbnew,6.0.0-rc2*
G04 #@! TF.CreationDate,2022-06-15T13:36:44-07:00*
G04 #@! TF.ProjectId,RP2040_motor,52503230-3430-45f6-9d6f-746f722e6b69,REV1*
G04 #@! TF.SameCoordinates,Original*
G04 #@! TF.FileFunction,Copper,L3,Inr*
G04 #@! TF.FilePolarity,Positive*
%FSLAX46Y46*%
G04 Gerber Fmt 4.6, Leading zero omitted, Abs format (unit mm)*
G04 Created by KiCad (PCBNEW 6.0.0-rc2) date 2022-06-15 13:36:44*
%MOMM*%
%LPD*%
G01*
G04 APERTURE LIST*
G04 Aperture macros list*
%AMRoundRect*
0 Rectangle with rounded corners*
0 $1 Rounding radius*
0 $2 $3 $4 $5 $6 $7 $8 $9 X,Y pos of 4 corners*
0 Add a 4 corners polygon primitive as box body*
4,1,4,$2,$3,$4,$5,$6,$7,$8,$9,$2,$3,0*
0 Add four circle primitives for the rounded corners*
1,1,$1+$1,$2,$3*
1,1,$1+$1,$4,$5*
1,1,$1+$1,$6,$7*
1,1,$1+$1,$8,$9*
0 Add four rect primitives between the rounded corners*
20,1,$1+$1,$2,$3,$4,$5,0*
20,1,$1+$1,$4,$5,$6,$7,0*
20,1,$1+$1,$6,$7,$8,$9,0*
20,1,$1+$1,$8,$9,$2,$3,0*%
G04 Aperture macros list end*
G04 #@! TA.AperFunction,ComponentPad*
%ADD10C,0.600000*%
G04 #@! TD*
G04 #@! TA.AperFunction,ComponentPad*
%ADD11RoundRect,0.250000X0.845000X-0.620000X0.845000X0.620000X-0.845000X0.620000X-0.845000X-0.620000X0*%
G04 #@! TD*
G04 #@! TA.AperFunction,ComponentPad*
%ADD12O,2.190000X1.740000*%
G04 #@! TD*
G04 #@! TA.AperFunction,ComponentPad*
%ADD13C,2.000000*%
G04 #@! TD*
G04 #@! TA.AperFunction,ComponentPad*
%ADD14C,4.000000*%
G04 #@! TD*
G04 #@! TA.AperFunction,ComponentPad*
%ADD15RoundRect,0.250000X-0.620000X-0.845000X0.620000X-0.845000X0.620000X0.845000X-0.620000X0.845000X0*%
G04 #@! TD*
G04 #@! TA.AperFunction,ComponentPad*
%ADD16O,1.740000X2.190000*%
G04 #@! TD*
G04 #@! TA.AperFunction,ComponentPad*
%ADD17C,6.000000*%
G04 #@! TD*
G04 #@! TA.AperFunction,ComponentPad*
%ADD18O,1.000000X2.100000*%
G04 #@! TD*
G04 #@! TA.AperFunction,ComponentPad*
%ADD19O,1.000000X1.600000*%
G04 #@! TD*
G04 #@! TA.AperFunction,ViaPad*
%ADD20C,0.600000*%
G04 #@! TD*
G04 #@! TA.AperFunction,ViaPad*
%ADD21C,0.800000*%
G04 #@! TD*
G04 #@! TA.AperFunction,Conductor*
%ADD22C,0.300000*%
G04 #@! TD*
G04 #@! TA.AperFunction,Conductor*
%ADD23C,0.150000*%
G04 #@! TD*
G04 #@! TA.AperFunction,Conductor*
%ADD24C,1.000000*%
G04 #@! TD*
G04 #@! TA.AperFunction,Conductor*
%ADD25C,0.600000*%
G04 #@! TD*
G04 APERTURE END LIST*
D10*
X90280000Y-105250000D03*
X91555000Y-106525000D03*
X90280000Y-103975000D03*
X91555000Y-103975000D03*
X90280000Y-106525000D03*
X89005000Y-105250000D03*
X89005000Y-103975000D03*
X91555000Y-105250000D03*
X89005000Y-106525000D03*
D11*
X77750000Y-89300000D03*
D12*
X77750000Y-86760000D03*
X77750000Y-84220000D03*
X77750000Y-81680000D03*
D13*
X101890000Y-84000000D03*
X95390000Y-84000000D03*
X101890000Y-88500000D03*
X95390000Y-88500000D03*
D14*
X156619000Y-89920000D03*
D15*
X83390000Y-86600000D03*
D16*
X85930000Y-86600000D03*
X88470000Y-86600000D03*
D14*
X156619000Y-72130000D03*
D11*
X77750000Y-105700000D03*
D12*
X77750000Y-103160000D03*
X77750000Y-100620000D03*
X77750000Y-98080000D03*
X77750000Y-95540000D03*
X77750000Y-93000000D03*
D17*
X119740000Y-73000000D03*
D14*
X156619000Y-100510000D03*
D11*
X77750000Y-77950000D03*
D12*
X77750000Y-75410000D03*
X77750000Y-72870000D03*
X77750000Y-70330000D03*
D11*
X77750000Y-119650000D03*
D12*
X77750000Y-117110000D03*
X77750000Y-114570000D03*
X77750000Y-112030000D03*
X77750000Y-109490000D03*
D14*
X156619000Y-117800000D03*
X156619000Y-80470000D03*
X156619000Y-109350000D03*
D18*
X94610000Y-116145000D03*
X85970000Y-116145000D03*
D19*
X85970000Y-120325000D03*
X94610000Y-120325000D03*
D17*
X126990000Y-73000000D03*
D20*
X90524500Y-97893500D03*
X94190000Y-91000000D03*
X94590000Y-95000000D03*
X87790000Y-93500000D03*
D21*
X152540000Y-76770000D03*
D20*
X88390000Y-97600000D03*
D21*
X118540000Y-83720000D03*
X158290000Y-104650000D03*
X119540000Y-114300000D03*
X152290000Y-105650000D03*
X121540000Y-98400000D03*
X153290000Y-104650000D03*
X118540000Y-87420000D03*
X102590000Y-114250000D03*
X118540000Y-114300000D03*
X150290000Y-85120000D03*
X158540000Y-76770000D03*
X118540000Y-93170000D03*
X155290000Y-86120000D03*
X151340000Y-113000000D03*
X121540000Y-105850000D03*
X118540000Y-104150000D03*
X121540000Y-87420000D03*
X118540000Y-119050000D03*
D20*
X97190000Y-99100000D03*
D21*
X155290000Y-85120000D03*
X150290000Y-86120000D03*
X115290000Y-105050000D03*
X156290000Y-113000000D03*
X120490000Y-107850000D03*
X157540000Y-76770000D03*
X89190000Y-78400000D03*
X122540000Y-98400000D03*
X119490000Y-79970000D03*
X118540000Y-77970000D03*
X119540000Y-87420000D03*
X122540000Y-93170000D03*
X153290000Y-86120000D03*
X156290000Y-86120000D03*
X118540000Y-98400000D03*
X120540000Y-77970000D03*
X151290000Y-104650000D03*
X158390000Y-94200000D03*
X119540000Y-83720000D03*
X156540000Y-75770000D03*
D20*
X94590000Y-96800000D03*
D21*
X156540000Y-76770000D03*
X101590000Y-76000000D03*
X151540000Y-75770000D03*
X121490000Y-107850000D03*
X122540000Y-97400000D03*
X122540000Y-92170000D03*
X119490000Y-116300000D03*
X118540000Y-112600000D03*
X121540000Y-103150000D03*
X157540000Y-75770000D03*
X85590000Y-77400000D03*
X100590000Y-75000000D03*
X120540000Y-103150000D03*
X121540000Y-112600000D03*
X158290000Y-85120000D03*
X150290000Y-114000000D03*
X122490000Y-79970000D03*
X119540000Y-97400000D03*
X120540000Y-106850000D03*
X121540000Y-111600000D03*
X122540000Y-77970000D03*
X156290000Y-84120000D03*
X119540000Y-84720000D03*
X156290000Y-85120000D03*
X144190000Y-94600000D03*
X118540000Y-92170000D03*
X158290000Y-105650000D03*
X83990000Y-71000000D03*
X121540000Y-104150000D03*
X120540000Y-105850000D03*
X122540000Y-114300000D03*
X157290000Y-85120000D03*
X121540000Y-106850000D03*
X120540000Y-92170000D03*
X152290000Y-86120000D03*
X121490000Y-88420000D03*
X153540000Y-75770000D03*
X122540000Y-119050000D03*
X152290000Y-114000000D03*
X151290000Y-114000000D03*
X119540000Y-112600000D03*
X151540000Y-76770000D03*
X157290000Y-113000000D03*
X122540000Y-83720000D03*
X120540000Y-119050000D03*
X119540000Y-111600000D03*
X119540000Y-77970000D03*
X158540000Y-75770000D03*
X154290000Y-86120000D03*
X120540000Y-112600000D03*
X118540000Y-84720000D03*
X91390000Y-79400000D03*
X120540000Y-78970000D03*
X154540000Y-75770000D03*
X157290000Y-104650000D03*
X91390000Y-78400000D03*
X100590000Y-76000000D03*
X89190000Y-79400000D03*
X154290000Y-104650000D03*
X95840000Y-110750000D03*
X90840000Y-113500000D03*
X122540000Y-104150000D03*
X158290000Y-114000000D03*
X120490000Y-88420000D03*
X119490000Y-107850000D03*
X119540000Y-78970000D03*
X152540000Y-75770000D03*
X122540000Y-106850000D03*
X154090000Y-98600000D03*
X115290000Y-113100000D03*
X157290000Y-105650000D03*
X151740000Y-93400000D03*
X118490000Y-88420000D03*
X120490000Y-79970000D03*
X118540000Y-106850000D03*
X118490000Y-107850000D03*
X122490000Y-88420000D03*
X119540000Y-103150000D03*
X121540000Y-84720000D03*
X118540000Y-105850000D03*
X121540000Y-97400000D03*
X122540000Y-112600000D03*
X122540000Y-84720000D03*
X87340000Y-113000000D03*
X120490000Y-116300000D03*
X119540000Y-119050000D03*
X153540000Y-76770000D03*
X120540000Y-111600000D03*
X154290000Y-114000000D03*
X156290000Y-114000000D03*
X121540000Y-77970000D03*
X150290000Y-105650000D03*
X156290000Y-105650000D03*
X153290000Y-85120000D03*
X118540000Y-103150000D03*
X114290000Y-70370000D03*
X115490000Y-79770000D03*
X151290000Y-86120000D03*
X83340000Y-111000000D03*
D20*
X93201000Y-98420500D03*
D21*
X119540000Y-98400000D03*
X98590000Y-108500000D03*
X119540000Y-92170000D03*
X122540000Y-103150000D03*
X120540000Y-104150000D03*
X100590000Y-74000000D03*
X115490000Y-88070000D03*
X121540000Y-114300000D03*
X118540000Y-111600000D03*
X154540000Y-76770000D03*
X121540000Y-92170000D03*
X155540000Y-76770000D03*
X155540000Y-75770000D03*
X122540000Y-105850000D03*
X122490000Y-116300000D03*
D20*
X99280000Y-104050000D03*
X81780000Y-103945000D03*
D21*
X155290000Y-104650000D03*
D20*
X91190000Y-86900000D03*
D21*
X120540000Y-97400000D03*
X93790000Y-79400000D03*
X156290000Y-104650000D03*
X101590000Y-74000000D03*
X121540000Y-115300000D03*
X120540000Y-93170000D03*
X157290000Y-114000000D03*
X119540000Y-104150000D03*
X150340000Y-113000000D03*
X121540000Y-93170000D03*
X157290000Y-84120000D03*
X152290000Y-85120000D03*
X150290000Y-104650000D03*
X119540000Y-105850000D03*
D20*
X87840000Y-91650000D03*
D21*
X153290000Y-114000000D03*
X158290000Y-84120000D03*
X121540000Y-119050000D03*
X119490000Y-88420000D03*
X120540000Y-83720000D03*
X118540000Y-115300000D03*
X151290000Y-105650000D03*
X83340000Y-109250000D03*
X154290000Y-85120000D03*
X122540000Y-87420000D03*
X155290000Y-114000000D03*
X120540000Y-114300000D03*
X120540000Y-87420000D03*
X121490000Y-79970000D03*
X122490000Y-107850000D03*
X118540000Y-78970000D03*
X118490000Y-116300000D03*
X119540000Y-93170000D03*
X154290000Y-105650000D03*
X152290000Y-104650000D03*
X118490000Y-79970000D03*
X155290000Y-105650000D03*
X119540000Y-106850000D03*
X122540000Y-111600000D03*
X121490000Y-116300000D03*
X101590000Y-75000000D03*
X120540000Y-84720000D03*
X152340000Y-113000000D03*
X150540000Y-76770000D03*
X120540000Y-98400000D03*
X115290000Y-96650000D03*
X158290000Y-113000000D03*
X150540000Y-75770000D03*
X122540000Y-115300000D03*
X120540000Y-115300000D03*
D20*
X82340000Y-119250000D03*
D21*
X151290000Y-85120000D03*
X122540000Y-78970000D03*
X118540000Y-97400000D03*
X121540000Y-78970000D03*
X121540000Y-83720000D03*
X119540000Y-115300000D03*
D20*
X101490000Y-102100000D03*
D21*
X153290000Y-105650000D03*
D20*
X87840000Y-114250000D03*
X93340000Y-113750000D03*
D21*
X110690000Y-96900000D03*
X150390000Y-99000000D03*
X149040000Y-98150000D03*
X100590000Y-99000000D03*
D20*
X90480000Y-110300006D03*
X89680030Y-103150000D03*
X89288839Y-99801161D03*
X89580000Y-107350000D03*
X111090000Y-72750000D03*
X94840000Y-98000000D03*
X94846482Y-98805985D03*
X111318275Y-73550500D03*
X110520734Y-81319266D03*
X93833027Y-100119441D03*
X95090000Y-100250000D03*
X112340000Y-82500000D03*
X112299668Y-89540332D03*
X94340000Y-101500000D03*
X112340000Y-92250000D03*
X95090000Y-102074500D03*
X111840000Y-99000000D03*
X95590000Y-102750000D03*
X95795982Y-103591665D03*
X112340000Y-100750000D03*
X112090000Y-106000000D03*
X96664505Y-104718131D03*
X96064725Y-105246778D03*
X111340000Y-106500000D03*
X97196856Y-105785989D03*
X111840000Y-114250000D03*
X111840000Y-115250000D03*
X97903450Y-106174500D03*
X80890000Y-99800000D03*
X81790000Y-101200000D03*
X85344954Y-100594546D03*
X81690000Y-108100000D03*
X87779500Y-105000000D03*
X93340000Y-108750000D03*
X100090000Y-107500000D03*
X99340000Y-116000000D03*
X96340000Y-114250000D03*
X98090000Y-114250000D03*
X95683767Y-112906233D03*
X97790000Y-112500000D03*
X93351233Y-109938767D03*
X84090000Y-117250000D03*
X90840000Y-117750000D03*
X89590000Y-114500000D03*
X82340000Y-117250000D03*
X133190000Y-71520000D03*
X132080900Y-119280000D03*
X132440000Y-99400000D03*
X132940000Y-110850000D03*
X133940000Y-73770000D03*
X133190000Y-100900000D03*
X133190000Y-73020000D03*
X134330900Y-119280000D03*
X132190000Y-107850000D03*
X134690000Y-73770000D03*
X134330900Y-118530000D03*
X133702300Y-110100000D03*
X132940000Y-107850000D03*
X132830900Y-116280000D03*
X133940000Y-102400000D03*
X132440000Y-100150000D03*
X134440000Y-81470000D03*
X132080900Y-89150000D03*
X133190000Y-101650000D03*
X132830900Y-118530000D03*
X134690000Y-74520000D03*
X132440000Y-72270000D03*
X134440000Y-82970000D03*
X132940000Y-80720000D03*
X133702300Y-82220000D03*
X133690000Y-80720000D03*
X134440000Y-82220000D03*
X132190000Y-79970000D03*
X133690000Y-82970000D03*
X134690000Y-101650000D03*
X133690000Y-79970000D03*
X133702300Y-109350000D03*
X133580900Y-89150000D03*
X132190000Y-109350000D03*
X134330900Y-90650000D03*
X134690000Y-72270000D03*
X132440000Y-73770000D03*
X132830900Y-89900000D03*
X132190000Y-81470000D03*
X132440000Y-73020000D03*
X133580900Y-119280000D03*
D21*
X94390000Y-75200000D03*
D20*
X134330900Y-89150000D03*
X132190000Y-82220000D03*
X133690000Y-110850000D03*
X133190000Y-99400000D03*
X132190000Y-80720000D03*
X132940000Y-82220000D03*
X133940000Y-101650000D03*
X133922300Y-72270000D03*
X133702300Y-81470000D03*
X133580900Y-91400000D03*
X132080900Y-90650000D03*
X132080900Y-116280000D03*
X133580900Y-89900000D03*
X133190000Y-102400000D03*
X132190000Y-110850000D03*
X132940000Y-108600000D03*
X134330900Y-116280000D03*
X132440000Y-102400000D03*
X132080900Y-118530000D03*
X134690000Y-102400000D03*
X133580900Y-88400000D03*
X133690000Y-107850000D03*
X133940000Y-74520000D03*
X133922300Y-73020000D03*
X132440000Y-74520000D03*
X133190000Y-72270000D03*
X134690000Y-99400000D03*
X133690000Y-108600000D03*
X132940000Y-82970000D03*
X134330900Y-89900000D03*
X132830900Y-88400000D03*
X132440000Y-100900000D03*
X132830900Y-91400000D03*
X132830900Y-119280000D03*
X132440000Y-71520000D03*
X134440000Y-108600000D03*
X134690000Y-100900000D03*
X132190000Y-110100000D03*
X132080900Y-91400000D03*
X134330900Y-91400000D03*
X134330900Y-88400000D03*
X134440000Y-110850000D03*
X133580900Y-116280000D03*
X133580900Y-117030000D03*
X132080900Y-117030000D03*
X133580900Y-117780000D03*
X133580900Y-118530000D03*
X132190000Y-108600000D03*
X134440000Y-109350000D03*
X133940000Y-99400000D03*
X132940000Y-109350000D03*
X132440000Y-101650000D03*
X133922300Y-100900000D03*
X134690000Y-100150000D03*
X133940000Y-71520000D03*
X134440000Y-79970000D03*
X132080900Y-117780000D03*
X132080900Y-89900000D03*
X134330900Y-117030000D03*
X134690000Y-71520000D03*
X132830900Y-89150000D03*
X133190000Y-100150000D03*
X132940000Y-79970000D03*
X134690000Y-73020000D03*
X132830900Y-90650000D03*
X133922300Y-100150000D03*
X134440000Y-80720000D03*
X134440000Y-110100000D03*
D21*
X93590000Y-74800000D03*
D20*
X132080900Y-88400000D03*
X133580900Y-90650000D03*
X132940000Y-81470000D03*
X132190000Y-82970000D03*
X134440000Y-107850000D03*
X133190000Y-74520000D03*
X132830900Y-117030000D03*
X132830900Y-117780000D03*
X133190000Y-73770000D03*
X134330900Y-117780000D03*
X132940000Y-110100000D03*
X137920900Y-101261400D03*
X143270900Y-102380000D03*
X138670900Y-101261400D03*
X141020900Y-102380000D03*
X143270900Y-100880000D03*
X141770900Y-100130000D03*
D21*
X137990000Y-96600000D03*
D20*
X141770900Y-99380000D03*
X137920900Y-99011400D03*
X143270900Y-100130000D03*
X141020900Y-101630000D03*
X142520900Y-99380000D03*
X138670900Y-100511400D03*
X138670900Y-102761400D03*
X138670900Y-102011400D03*
D21*
X111290000Y-101650000D03*
D20*
X141020900Y-100880000D03*
X141770900Y-102380000D03*
X142520900Y-101630000D03*
X141770900Y-101630000D03*
X141770900Y-100880000D03*
X142520900Y-100880000D03*
X137920900Y-102761400D03*
X138670900Y-99761400D03*
X141020900Y-100130000D03*
X143270900Y-99380000D03*
X137920900Y-102011400D03*
D21*
X140690000Y-104200000D03*
D20*
X142520900Y-102380000D03*
X138670900Y-99011400D03*
X141020900Y-99380000D03*
X143270900Y-101630000D03*
X137920900Y-99761400D03*
X137920900Y-100511400D03*
X142520900Y-100130000D03*
X143520900Y-109330000D03*
X142770900Y-110830000D03*
X141270900Y-108580000D03*
X142770900Y-109330000D03*
X143520900Y-108580000D03*
X138670900Y-108211400D03*
X138670900Y-111211400D03*
X137920900Y-107461400D03*
X138670900Y-108961400D03*
X137920900Y-108211400D03*
X142020900Y-109330000D03*
X142020900Y-108580000D03*
X142770900Y-108580000D03*
X138670900Y-109711400D03*
X137920900Y-110461400D03*
X138670900Y-110461400D03*
X141270900Y-110830000D03*
X142770900Y-110080000D03*
D21*
X110840000Y-112250000D03*
D20*
X142770900Y-107830000D03*
X143520900Y-107830000D03*
X137920900Y-108961400D03*
X142020900Y-110080000D03*
D21*
X137990000Y-105800000D03*
X111290000Y-110250000D03*
D20*
X138670900Y-107461400D03*
X141270900Y-107830000D03*
X142020900Y-107830000D03*
X137920900Y-109711400D03*
X143520900Y-110080000D03*
X142020900Y-110830000D03*
X141270900Y-109330000D03*
X141270900Y-110080000D03*
X143520900Y-110830000D03*
X137920900Y-111211400D03*
X143270900Y-117030000D03*
X138670900Y-117911400D03*
X143270900Y-119280000D03*
X138670900Y-117161400D03*
X141770900Y-117780000D03*
X141020900Y-118530000D03*
X143270900Y-117780000D03*
X142520900Y-119280000D03*
X141020900Y-116280000D03*
X141770900Y-119280000D03*
X142520900Y-118530000D03*
X141770900Y-117030000D03*
X137920900Y-117911400D03*
X141020900Y-119280000D03*
X141770900Y-118530000D03*
X138670900Y-115661400D03*
X143270900Y-118530000D03*
X138670900Y-116411400D03*
X137920900Y-117161400D03*
X142520900Y-117030000D03*
X137920900Y-119411400D03*
X138670900Y-118661400D03*
X137920900Y-116411400D03*
X141770900Y-116280000D03*
X141020900Y-117780000D03*
X141020900Y-117030000D03*
X143270900Y-116280000D03*
X142520900Y-116280000D03*
X137920900Y-118661400D03*
X142520900Y-117780000D03*
X137920900Y-115661400D03*
X138670900Y-119411400D03*
D21*
X104290000Y-74970000D03*
X136190000Y-70200000D03*
X144790000Y-70400000D03*
X104690000Y-71570000D03*
X135990000Y-78600000D03*
X107990000Y-86200000D03*
X144590000Y-78600000D03*
X106990000Y-82200000D03*
X81590000Y-69800000D03*
X86990000Y-80200000D03*
X107890000Y-103050000D03*
X135640000Y-97800000D03*
X144790000Y-98400000D03*
X106790000Y-98800000D03*
X107790000Y-111400000D03*
X135640000Y-106450000D03*
X144040000Y-106250000D03*
X106990000Y-107400000D03*
X136390000Y-87200000D03*
X107790000Y-94000000D03*
X106990000Y-90470000D03*
X144790000Y-87000000D03*
X149890000Y-94200000D03*
X140790000Y-95000000D03*
X135240000Y-114750000D03*
X107190000Y-120400000D03*
X105690000Y-115500000D03*
X143640000Y-114700000D03*
D20*
X85090000Y-114250000D03*
X89330499Y-111000000D03*
D21*
X151290000Y-94900000D03*
X142261844Y-96930559D03*
X151690000Y-96600000D03*
D20*
X84848475Y-105752825D03*
D21*
X109090000Y-95100000D03*
D20*
X97340000Y-93250000D03*
X97590000Y-94250000D03*
X85094386Y-106513570D03*
D21*
X108990000Y-96100000D03*
X149995378Y-97205378D03*
D20*
X142520900Y-73750000D03*
X141020900Y-73000000D03*
X143270900Y-73000000D03*
X138670900Y-74131400D03*
D21*
X110290000Y-75370000D03*
D20*
X137920900Y-73381400D03*
D21*
X137990000Y-77149500D03*
D20*
X142520900Y-73000000D03*
X142520900Y-71500000D03*
X142520900Y-74500000D03*
X141020900Y-72250000D03*
X137920900Y-71881400D03*
X141770900Y-71500000D03*
X143270900Y-74500000D03*
X141770900Y-74500000D03*
X137920900Y-74881400D03*
X138670900Y-73381400D03*
X138670900Y-72631400D03*
X138670900Y-71881400D03*
X143270900Y-72250000D03*
X141770900Y-73000000D03*
X138670900Y-74881400D03*
X137920900Y-74131400D03*
X141770900Y-72250000D03*
X142520900Y-72250000D03*
X141020900Y-73750000D03*
X137920900Y-72631400D03*
X141020900Y-71500000D03*
X137920900Y-71131400D03*
X141020900Y-74500000D03*
X141770900Y-73750000D03*
X138670900Y-71131400D03*
X143270900Y-73750000D03*
X143270900Y-71500000D03*
X142770900Y-82200000D03*
X137920900Y-81831400D03*
X137920900Y-79581400D03*
X141270900Y-81450000D03*
X142020900Y-82200000D03*
X142020900Y-82950000D03*
X143520900Y-82200000D03*
X138670900Y-80331400D03*
X141270900Y-82200000D03*
X137920900Y-80331400D03*
X141270900Y-79950000D03*
X142770900Y-82950000D03*
D21*
X112340000Y-84970000D03*
D20*
X142020900Y-81450000D03*
X141270900Y-82950000D03*
X137920900Y-82581400D03*
X138670900Y-82581400D03*
X142770900Y-80700000D03*
X138670900Y-79581400D03*
X142770900Y-79950000D03*
D21*
X138190000Y-86000000D03*
D20*
X142020900Y-79950000D03*
X137920900Y-81081400D03*
X142770900Y-81450000D03*
X142020900Y-80700000D03*
X141270900Y-80700000D03*
X138670900Y-81831400D03*
X143520900Y-82950000D03*
X143520900Y-81450000D03*
X137920900Y-83331400D03*
X138670900Y-81081400D03*
X143520900Y-79950000D03*
X143520900Y-80700000D03*
X138670900Y-83331400D03*
X143270900Y-90650000D03*
X141020900Y-90650000D03*
X143270900Y-88400000D03*
X141770900Y-91400000D03*
X141770900Y-89900000D03*
X142520900Y-89900000D03*
X142520900Y-89150000D03*
X137920900Y-90031400D03*
X141770900Y-90650000D03*
X141020900Y-89150000D03*
X137920900Y-91531400D03*
X137920900Y-89281400D03*
X143270900Y-89150000D03*
X141020900Y-89900000D03*
X142520900Y-91400000D03*
X141020900Y-91400000D03*
X142520900Y-88400000D03*
X138670900Y-88531400D03*
X137920900Y-90781400D03*
X138670900Y-90031400D03*
X143270900Y-89900000D03*
X142520900Y-90650000D03*
X141770900Y-88400000D03*
X138670900Y-90781400D03*
X143270900Y-91400000D03*
X138670900Y-89281400D03*
X138670900Y-91531400D03*
X137920900Y-87781400D03*
D21*
X137690000Y-94370000D03*
D20*
X137920900Y-88531400D03*
X141020900Y-88400000D03*
X138670900Y-87781400D03*
X141770900Y-89150000D03*
D21*
X111290000Y-93270000D03*
X101990000Y-95900000D03*
X117190000Y-77899000D03*
X116290000Y-119100000D03*
X101190000Y-120200000D03*
X116690000Y-110000000D03*
X83190000Y-80300000D03*
X117190000Y-99700000D03*
X116890000Y-84720011D03*
X116990000Y-93100000D03*
D20*
X84090000Y-105500000D03*
X92840000Y-89000000D03*
X88705500Y-110425500D03*
X82840000Y-113750000D03*
X94790000Y-107925500D03*
X99090000Y-106175500D03*
X81990000Y-89500000D03*
X96529210Y-106748531D03*
X84790000Y-91100000D03*
X97390000Y-107000000D03*
X82590000Y-107000000D03*
X87937034Y-102710213D03*
X86990000Y-101800000D03*
X84889308Y-101975980D03*
X87797572Y-103662141D03*
D22*
X92340000Y-112750000D02*
X93340000Y-113750000D01*
X89340000Y-112750000D02*
X91840000Y-112750000D01*
X91840000Y-112750000D02*
X92340000Y-112750000D01*
X87840000Y-114250000D02*
X89340000Y-112750000D01*
X149540000Y-98150000D02*
X150390000Y-99000000D01*
X142552373Y-97700000D02*
X136690000Y-97700000D01*
X116490000Y-97400000D02*
X111890000Y-97400000D01*
X117590480Y-96299520D02*
X116490000Y-97400000D01*
X149040000Y-98150000D02*
X149540000Y-98150000D01*
X149040000Y-98150000D02*
X148190000Y-97300000D01*
X111890000Y-97400000D02*
X111390000Y-96900000D01*
X142952373Y-97300000D02*
X142552373Y-97700000D01*
X135289520Y-96299520D02*
X117590480Y-96299520D01*
X148190000Y-97300000D02*
X142952373Y-97300000D01*
X136690000Y-97700000D02*
X135289520Y-96299520D01*
X111390000Y-96900000D02*
X110690000Y-96900000D01*
D23*
X80890000Y-99800000D02*
X80290000Y-100400000D01*
X76380480Y-115740480D02*
X77750000Y-117110000D01*
X80290000Y-100400000D02*
X80290000Y-106500000D01*
X80290000Y-106500000D02*
X79290000Y-107500000D01*
X79290000Y-107500000D02*
X77896405Y-107500000D01*
X76380480Y-109015925D02*
X76380480Y-115740480D01*
X77896405Y-107500000D02*
X76380480Y-109015925D01*
X80639520Y-102350480D02*
X80639520Y-111680480D01*
X80639520Y-111680480D02*
X77750000Y-114570000D01*
X81790000Y-101200000D02*
X80639520Y-102350480D01*
X87779500Y-105000000D02*
X86090000Y-103310500D01*
X86090000Y-102800000D02*
X86090000Y-101339592D01*
X86090000Y-101339592D02*
X85344954Y-100594546D01*
X86090000Y-103310500D02*
X86090000Y-102800000D01*
X81680000Y-108100000D02*
X81690000Y-108100000D01*
X87779500Y-105000000D02*
X84679500Y-108100000D01*
X84679500Y-108100000D02*
X81680000Y-108100000D01*
D22*
X90840000Y-118000000D02*
X90840000Y-117750000D01*
X84090000Y-117250000D02*
X84840000Y-118000000D01*
X84840000Y-118000000D02*
X90840000Y-118000000D01*
D24*
X126990000Y-73000000D02*
X123260489Y-69270489D01*
X94390000Y-75200000D02*
X93990000Y-74800000D01*
X93990000Y-74800000D02*
X93590000Y-74800000D01*
X99119511Y-69270489D02*
X93590000Y-74800000D01*
X123260489Y-69270489D02*
X99119511Y-69270489D01*
D22*
X117639511Y-113349511D02*
X135782789Y-113349511D01*
X110840000Y-112250000D02*
X111246428Y-112250000D01*
X135782789Y-113349511D02*
X137920900Y-111211400D01*
X111246428Y-112250000D02*
X111896428Y-111600000D01*
X111896428Y-111600000D02*
X115890000Y-111600000D01*
X115890000Y-111600000D02*
X117639511Y-113349511D01*
X136190000Y-70200000D02*
X136190000Y-75800000D01*
X105060000Y-74200000D02*
X104290000Y-74970000D01*
X113590000Y-76400000D02*
X111390000Y-74200000D01*
X135590000Y-76400000D02*
X113590000Y-76400000D01*
X111390000Y-74200000D02*
X105060000Y-74200000D01*
X136190000Y-75800000D02*
X135590000Y-76400000D01*
X135990000Y-82338548D02*
X132609037Y-85719511D01*
X132609037Y-85719511D02*
X108470489Y-85719511D01*
X135990000Y-78600000D02*
X135990000Y-82338548D01*
X108470489Y-85719511D02*
X107990000Y-86200000D01*
X123389511Y-102399511D02*
X108540489Y-102399511D01*
X135640000Y-97800000D02*
X135640000Y-102368548D01*
X134959037Y-103049511D02*
X124039511Y-103049511D01*
X108540489Y-102399511D02*
X107890000Y-103050000D01*
X124039511Y-103049511D02*
X123389511Y-102399511D01*
X135640000Y-102368548D02*
X134959037Y-103049511D01*
X135390000Y-111700000D02*
X123699970Y-111700000D01*
X111939511Y-110850489D02*
X111390000Y-111400000D01*
X123699970Y-111700000D02*
X122850459Y-110850489D01*
X135640000Y-111450000D02*
X135390000Y-111700000D01*
X111390000Y-111400000D02*
X107790000Y-111400000D01*
X122850459Y-110850489D02*
X111939511Y-110850489D01*
X135640000Y-106450000D02*
X135640000Y-111450000D01*
X135190000Y-94200000D02*
X136390000Y-93000000D01*
X107790000Y-94000000D02*
X107990000Y-94200000D01*
X107990000Y-94200000D02*
X135190000Y-94200000D01*
X136390000Y-93000000D02*
X136390000Y-87200000D01*
X84848475Y-105339927D02*
X84848475Y-105752825D01*
X139339511Y-93850489D02*
X137990000Y-95200000D01*
X90340000Y-93250000D02*
X83890000Y-99700000D01*
X83890000Y-99700000D02*
X83890000Y-104381452D01*
X137990000Y-95200000D02*
X109190000Y-95200000D01*
X97340000Y-93250000D02*
X90340000Y-93250000D01*
X150241539Y-96145111D02*
X147946917Y-93850489D01*
X147946917Y-93850489D02*
X139339511Y-93850489D01*
X151690000Y-96600000D02*
X151235111Y-96145111D01*
X83890000Y-104381452D02*
X84848475Y-105339927D01*
X109190000Y-95200000D02*
X109090000Y-95100000D01*
X151235111Y-96145111D02*
X150241539Y-96145111D01*
X97590000Y-94250000D02*
X90340000Y-94250000D01*
X84690000Y-99900000D02*
X84690000Y-100858124D01*
X149995378Y-97205378D02*
X148590000Y-95800000D01*
X85538819Y-101706943D02*
X85538819Y-106069137D01*
X148590000Y-95800000D02*
X110990000Y-95800000D01*
X110990000Y-95800000D02*
X110690000Y-96100000D01*
X110690000Y-96100000D02*
X108990000Y-96100000D01*
X85538819Y-106069137D02*
X85094386Y-106513570D01*
X84690000Y-100858124D02*
X85538819Y-101706943D01*
X90340000Y-94250000D02*
X84690000Y-99900000D01*
D25*
X104790000Y-96800000D02*
X104790000Y-99800000D01*
X104790000Y-88500000D02*
X112390000Y-88500000D01*
X104790000Y-99800000D02*
X104790000Y-109500000D01*
X104790000Y-109500000D02*
X104790000Y-117100000D01*
X106889511Y-119199511D02*
X107890489Y-119199511D01*
X112390000Y-88500000D02*
X116990000Y-93100000D01*
X83989511Y-81099511D02*
X103389511Y-81099511D01*
X104790000Y-96800000D02*
X102890000Y-96800000D01*
X104790000Y-84472102D02*
X104790000Y-88500000D01*
X116240478Y-84070489D02*
X116890000Y-84720011D01*
X102890000Y-96800000D02*
X101990000Y-95900000D01*
X104890000Y-84372102D02*
X104790000Y-84472102D01*
X102190489Y-119199511D02*
X101190000Y-120200000D01*
X104790000Y-99800000D02*
X117090000Y-99800000D01*
X107890489Y-119199511D02*
X116190489Y-119199511D01*
X105290000Y-83000000D02*
X106360489Y-84070489D01*
X116040489Y-109350489D02*
X116690000Y-110000000D01*
X107890489Y-119199511D02*
X102190489Y-119199511D01*
X104790000Y-109500000D02*
X104939511Y-109350489D01*
X104790000Y-88500000D02*
X104790000Y-96800000D01*
X104939511Y-109350489D02*
X116040489Y-109350489D01*
X104790000Y-117100000D02*
X106889511Y-119199511D01*
X104890000Y-82600000D02*
X104890000Y-84372102D01*
X117090000Y-99800000D02*
X117190000Y-99700000D01*
X116190489Y-119199511D02*
X116290000Y-119100000D01*
X103389511Y-81099511D02*
X104890000Y-82600000D01*
X83190000Y-80300000D02*
X83989511Y-81099511D01*
X106590022Y-77899000D02*
X117190000Y-77899000D01*
X104890000Y-82600000D02*
X105290000Y-83000000D01*
X106360489Y-84070489D02*
X116240478Y-84070489D01*
X103389511Y-81099511D02*
X106590022Y-77899000D01*
D22*
X92840000Y-89368548D02*
X83290000Y-98918548D01*
X92840000Y-89000000D02*
X92840000Y-89368548D01*
X83290000Y-98918548D02*
X83290000Y-104700000D01*
X83290000Y-104700000D02*
X84090000Y-105500000D01*
D23*
X91764511Y-86662029D02*
X89322482Y-84220000D01*
X89322482Y-84220000D02*
X77750000Y-84220000D01*
X99090000Y-106175500D02*
X98164511Y-105250011D01*
X91764511Y-86774511D02*
X91764511Y-86662029D01*
X98164511Y-105250011D02*
X98164511Y-93174511D01*
X98164511Y-93174511D02*
X91764511Y-86774511D01*
D22*
X82690000Y-106900000D02*
X82690000Y-98150000D01*
X85930000Y-94910000D02*
X85930000Y-86600000D01*
X82590000Y-107000000D02*
X82690000Y-106900000D01*
X82690000Y-98150000D02*
X85930000Y-94910000D01*
G04 #@! TA.AperFunction,Conductor*
G36*
X142717771Y-114210284D02*
G01*
X142773187Y-114265700D01*
X142793471Y-114341400D01*
X142786061Y-114388185D01*
X142749232Y-114501534D01*
X142746458Y-114510072D01*
X142745629Y-114517961D01*
X142745628Y-114517965D01*
X142741996Y-114552524D01*
X142726496Y-114700000D01*
X142727325Y-114707888D01*
X142744237Y-114868794D01*
X142746458Y-114889928D01*
X142805473Y-115071556D01*
X142900960Y-115236944D01*
X142906269Y-115242840D01*
X142906271Y-115242843D01*
X142971674Y-115315479D01*
X143028747Y-115378866D01*
X143183248Y-115491118D01*
X143190493Y-115494344D01*
X143190497Y-115494346D01*
X143350463Y-115565567D01*
X143350467Y-115565568D01*
X143357712Y-115568794D01*
X143477738Y-115594306D01*
X143536754Y-115606851D01*
X143536756Y-115606851D01*
X143544513Y-115608500D01*
X143735487Y-115608500D01*
X143743244Y-115606851D01*
X143743246Y-115606851D01*
X143802262Y-115594306D01*
X143922288Y-115568794D01*
X143929533Y-115565568D01*
X143929537Y-115565567D01*
X144089503Y-115494346D01*
X144089507Y-115494344D01*
X144096752Y-115491118D01*
X144251253Y-115378866D01*
X144308326Y-115315479D01*
X144373729Y-115242843D01*
X144373731Y-115242840D01*
X144379040Y-115236944D01*
X144474527Y-115071556D01*
X144533542Y-114889928D01*
X144535764Y-114868794D01*
X144552675Y-114707888D01*
X144553504Y-114700000D01*
X144538004Y-114552524D01*
X144534372Y-114517965D01*
X144534371Y-114517961D01*
X144533542Y-114510072D01*
X144530768Y-114501534D01*
X144493939Y-114388185D01*
X144489837Y-114309922D01*
X144525417Y-114240093D01*
X144591144Y-114197410D01*
X144637929Y-114190000D01*
X149286483Y-114190000D01*
X149362183Y-114210284D01*
X149417599Y-114265700D01*
X149430473Y-114294615D01*
X149445675Y-114341400D01*
X149455473Y-114371556D01*
X149550960Y-114536944D01*
X149556269Y-114542840D01*
X149556271Y-114542843D01*
X149578891Y-114567965D01*
X149678747Y-114678866D01*
X149707835Y-114700000D01*
X149790000Y-114759696D01*
X149833248Y-114791118D01*
X149840493Y-114794344D01*
X149840497Y-114794346D01*
X150000463Y-114865567D01*
X150000467Y-114865568D01*
X150007712Y-114868794D01*
X150107139Y-114889928D01*
X150186754Y-114906851D01*
X150186756Y-114906851D01*
X150194513Y-114908500D01*
X150385487Y-114908500D01*
X150393244Y-114906851D01*
X150393246Y-114906851D01*
X150472861Y-114889928D01*
X150572288Y-114868794D01*
X150579533Y-114865568D01*
X150579537Y-114865567D01*
X150728420Y-114799280D01*
X150805826Y-114787020D01*
X150851580Y-114799280D01*
X151000463Y-114865567D01*
X151000467Y-114865568D01*
X151007712Y-114868794D01*
X151107139Y-114889928D01*
X151186754Y-114906851D01*
X151186756Y-114906851D01*
X151194513Y-114908500D01*
X151385487Y-114908500D01*
X151393244Y-114906851D01*
X151393246Y-114906851D01*
X151472861Y-114889928D01*
X151572288Y-114868794D01*
X151579533Y-114865568D01*
X151579537Y-114865567D01*
X151728420Y-114799280D01*
X151805826Y-114787020D01*
X151851580Y-114799280D01*
X152000463Y-114865567D01*
X152000467Y-114865568D01*
X152007712Y-114868794D01*
X152107139Y-114889928D01*
X152186754Y-114906851D01*
X152186756Y-114906851D01*
X152194513Y-114908500D01*
X152385487Y-114908500D01*
X152393244Y-114906851D01*
X152393246Y-114906851D01*
X152472861Y-114889928D01*
X152572288Y-114868794D01*
X152579533Y-114865568D01*
X152579537Y-114865567D01*
X152728420Y-114799280D01*
X152805826Y-114787020D01*
X152851580Y-114799280D01*
X153000463Y-114865567D01*
X153000467Y-114865568D01*
X153007712Y-114868794D01*
X153107139Y-114889928D01*
X153186754Y-114906851D01*
X153186756Y-114906851D01*
X153194513Y-114908500D01*
X153385487Y-114908500D01*
X153393244Y-114906851D01*
X153393246Y-114906851D01*
X153472861Y-114889928D01*
X153572288Y-114868794D01*
X153579533Y-114865568D01*
X153579537Y-114865567D01*
X153728420Y-114799280D01*
X153805826Y-114787020D01*
X153851580Y-114799280D01*
X154000463Y-114865567D01*
X154000467Y-114865568D01*
X154007712Y-114868794D01*
X154107139Y-114889928D01*
X154186754Y-114906851D01*
X154186756Y-114906851D01*
X154194513Y-114908500D01*
X154385487Y-114908500D01*
X154393244Y-114906851D01*
X154393246Y-114906851D01*
X154472861Y-114889928D01*
X154572288Y-114868794D01*
X154579533Y-114865568D01*
X154579537Y-114865567D01*
X154728420Y-114799280D01*
X154805826Y-114787020D01*
X154851580Y-114799280D01*
X155000463Y-114865567D01*
X155000467Y-114865568D01*
X155007712Y-114868794D01*
X155107139Y-114889928D01*
X155186754Y-114906851D01*
X155186756Y-114906851D01*
X155194513Y-114908500D01*
X155385487Y-114908500D01*
X155393244Y-114906851D01*
X155393246Y-114906851D01*
X155472861Y-114889928D01*
X155572288Y-114868794D01*
X155579533Y-114865568D01*
X155579537Y-114865567D01*
X155728420Y-114799280D01*
X155805826Y-114787020D01*
X155851580Y-114799280D01*
X156000463Y-114865567D01*
X156000467Y-114865568D01*
X156007712Y-114868794D01*
X156107139Y-114889928D01*
X156186754Y-114906851D01*
X156186756Y-114906851D01*
X156194513Y-114908500D01*
X156385487Y-114908500D01*
X156393244Y-114906851D01*
X156393246Y-114906851D01*
X156472861Y-114889928D01*
X156572288Y-114868794D01*
X156579533Y-114865568D01*
X156579537Y-114865567D01*
X156728420Y-114799280D01*
X156805826Y-114787020D01*
X156851580Y-114799280D01*
X157000463Y-114865567D01*
X157000467Y-114865568D01*
X157007712Y-114868794D01*
X157107139Y-114889928D01*
X157186754Y-114906851D01*
X157186756Y-114906851D01*
X157194513Y-114908500D01*
X157385487Y-114908500D01*
X157393244Y-114906851D01*
X157393246Y-114906851D01*
X157472861Y-114889928D01*
X157572288Y-114868794D01*
X157579533Y-114865568D01*
X157579537Y-114865567D01*
X157728420Y-114799280D01*
X157805826Y-114787020D01*
X157851580Y-114799280D01*
X158000463Y-114865567D01*
X158000467Y-114865568D01*
X158007712Y-114868794D01*
X158107139Y-114889928D01*
X158186754Y-114906851D01*
X158186756Y-114906851D01*
X158194513Y-114908500D01*
X158385487Y-114908500D01*
X158393244Y-114906851D01*
X158393246Y-114906851D01*
X158472861Y-114889928D01*
X158572288Y-114868794D01*
X158579533Y-114865568D01*
X158579537Y-114865567D01*
X158739503Y-114794346D01*
X158739507Y-114794344D01*
X158746752Y-114791118D01*
X158790001Y-114759696D01*
X158872165Y-114700000D01*
X158901253Y-114678866D01*
X159001109Y-114567965D01*
X159023729Y-114542843D01*
X159023731Y-114542840D01*
X159029040Y-114536944D01*
X159049484Y-114501534D01*
X159104900Y-114446118D01*
X159180600Y-114425834D01*
X159256300Y-114446118D01*
X159311716Y-114501534D01*
X159332000Y-114577234D01*
X159332000Y-120198710D01*
X159330197Y-120222002D01*
X159326814Y-120243730D01*
X159328213Y-120254428D01*
X159328213Y-120254434D01*
X159328305Y-120255139D01*
X159329116Y-120286646D01*
X159317644Y-120432410D01*
X159313928Y-120455874D01*
X159273993Y-120622216D01*
X159266654Y-120644804D01*
X159205947Y-120791362D01*
X159201191Y-120802845D01*
X159190406Y-120824012D01*
X159101025Y-120969869D01*
X159087061Y-120989089D01*
X158975966Y-121119166D01*
X158959166Y-121135966D01*
X158829089Y-121247061D01*
X158809869Y-121261025D01*
X158664012Y-121350406D01*
X158642846Y-121361190D01*
X158484804Y-121426654D01*
X158462218Y-121433992D01*
X158416912Y-121444869D01*
X158295874Y-121473928D01*
X158272410Y-121477644D01*
X158244217Y-121479863D01*
X158133953Y-121488541D01*
X158117723Y-121487923D01*
X158117715Y-121488605D01*
X158106928Y-121488473D01*
X158096270Y-121486814D01*
X158066614Y-121490692D01*
X158066385Y-121490722D01*
X158046754Y-121492000D01*
X135866300Y-121492000D01*
X135790600Y-121471716D01*
X135735184Y-121416300D01*
X135714900Y-121340600D01*
X135714900Y-119908722D01*
X155576896Y-119908722D01*
X155578650Y-119911761D01*
X155582071Y-119914212D01*
X155711476Y-119978027D01*
X155720621Y-119981815D01*
X156003536Y-120077851D01*
X156013079Y-120080408D01*
X156306114Y-120138697D01*
X156315925Y-120139988D01*
X156614057Y-120159529D01*
X156623943Y-120159529D01*
X156922075Y-120139988D01*
X156931886Y-120138697D01*
X157224921Y-120080408D01*
X157234464Y-120077851D01*
X157517379Y-119981815D01*
X157526524Y-119978027D01*
X157649184Y-119917538D01*
X157661421Y-119906807D01*
X157660737Y-119903367D01*
X157658284Y-119899944D01*
X156633096Y-118874756D01*
X156619000Y-118866618D01*
X156604904Y-118874756D01*
X155585034Y-119894626D01*
X155576896Y-119908722D01*
X135714900Y-119908722D01*
X135714900Y-117804943D01*
X154259471Y-117804943D01*
X154279012Y-118103075D01*
X154280303Y-118112886D01*
X154338592Y-118405921D01*
X154341149Y-118415464D01*
X154437186Y-118698381D01*
X154440973Y-118707525D01*
X154501462Y-118830183D01*
X154512194Y-118842420D01*
X154515635Y-118841735D01*
X154519057Y-118839283D01*
X155544244Y-117814096D01*
X155552382Y-117800000D01*
X157685618Y-117800000D01*
X157693756Y-117814096D01*
X158713625Y-118833965D01*
X158727721Y-118842103D01*
X158730760Y-118840349D01*
X158733212Y-118836927D01*
X158797027Y-118707525D01*
X158800814Y-118698381D01*
X158896851Y-118415464D01*
X158899408Y-118405921D01*
X158957697Y-118112886D01*
X158958988Y-118103075D01*
X158978529Y-117804943D01*
X158978529Y-117795057D01*
X158958988Y-117496925D01*
X158957697Y-117487114D01*
X158899408Y-117194079D01*
X158896851Y-117184536D01*
X158800814Y-116901619D01*
X158797027Y-116892475D01*
X158736538Y-116769817D01*
X158725806Y-116757580D01*
X158722365Y-116758265D01*
X158718943Y-116760717D01*
X157693756Y-117785904D01*
X157685618Y-117800000D01*
X155552382Y-117800000D01*
X155544244Y-117785904D01*
X154524375Y-116766035D01*
X154510279Y-116757897D01*
X154507240Y-116759651D01*
X154504788Y-116763073D01*
X154440973Y-116892475D01*
X154437186Y-116901619D01*
X154341149Y-117184536D01*
X154338592Y-117194079D01*
X154280303Y-117487114D01*
X154279012Y-117496925D01*
X154259471Y-117795057D01*
X154259471Y-117804943D01*
X135714900Y-117804943D01*
X135714900Y-115693194D01*
X155576580Y-115693194D01*
X155577265Y-115696635D01*
X155579717Y-115700057D01*
X156604904Y-116725244D01*
X156619000Y-116733382D01*
X156633096Y-116725244D01*
X157652966Y-115705374D01*
X157661104Y-115691278D01*
X157659350Y-115688239D01*
X157655929Y-115685788D01*
X157526524Y-115621973D01*
X157517379Y-115618185D01*
X157234464Y-115522149D01*
X157224921Y-115519592D01*
X156931886Y-115461303D01*
X156922075Y-115460012D01*
X156623943Y-115440471D01*
X156614057Y-115440471D01*
X156315925Y-115460012D01*
X156306114Y-115461303D01*
X156013079Y-115519592D01*
X156003536Y-115522149D01*
X155720619Y-115618186D01*
X155711475Y-115621973D01*
X155588817Y-115682462D01*
X155576580Y-115693194D01*
X135714900Y-115693194D01*
X135714900Y-115605075D01*
X135735184Y-115529375D01*
X135777309Y-115482590D01*
X135844831Y-115433532D01*
X135844832Y-115433531D01*
X135851253Y-115428866D01*
X135979040Y-115286944D01*
X136074527Y-115121556D01*
X136133542Y-114939928D01*
X136136846Y-114908500D01*
X136152675Y-114757888D01*
X136153504Y-114750000D01*
X136146028Y-114678866D01*
X136134372Y-114567965D01*
X136134371Y-114567961D01*
X136133542Y-114560072D01*
X136077692Y-114388185D01*
X136073590Y-114309923D01*
X136109169Y-114240094D01*
X136174896Y-114197410D01*
X136221682Y-114190000D01*
X142642071Y-114190000D01*
X142717771Y-114210284D01*
G37*
G04 #@! TD.AperFunction*
G04 #@! TA.AperFunction,Conductor*
G36*
X159256300Y-96585284D02*
G01*
X159311716Y-96640700D01*
X159332000Y-96716400D01*
X159332000Y-104072766D01*
X159311716Y-104148466D01*
X159256300Y-104203882D01*
X159180600Y-104224166D01*
X159104900Y-104203882D01*
X159049484Y-104148466D01*
X159033009Y-104119930D01*
X159033008Y-104119928D01*
X159029040Y-104113056D01*
X158901253Y-103971134D01*
X158824003Y-103915008D01*
X158753173Y-103863547D01*
X158753172Y-103863546D01*
X158746752Y-103858882D01*
X158739507Y-103855656D01*
X158739503Y-103855654D01*
X158579537Y-103784433D01*
X158579533Y-103784432D01*
X158572288Y-103781206D01*
X158452262Y-103755694D01*
X158393246Y-103743149D01*
X158393244Y-103743149D01*
X158385487Y-103741500D01*
X158194513Y-103741500D01*
X158186756Y-103743149D01*
X158186754Y-103743149D01*
X158127738Y-103755694D01*
X158007712Y-103781206D01*
X158000467Y-103784432D01*
X158000463Y-103784433D01*
X157851580Y-103850720D01*
X157774174Y-103862980D01*
X157728420Y-103850720D01*
X157579537Y-103784433D01*
X157579533Y-103784432D01*
X157572288Y-103781206D01*
X157452262Y-103755694D01*
X157393246Y-103743149D01*
X157393244Y-103743149D01*
X157385487Y-103741500D01*
X157194513Y-103741500D01*
X157186756Y-103743149D01*
X157186754Y-103743149D01*
X157127738Y-103755694D01*
X157007712Y-103781206D01*
X157000467Y-103784432D01*
X157000463Y-103784433D01*
X156851580Y-103850720D01*
X156774174Y-103862980D01*
X156728420Y-103850720D01*
X156579537Y-103784433D01*
X156579533Y-103784432D01*
X156572288Y-103781206D01*
X156452262Y-103755694D01*
X156393246Y-103743149D01*
X156393244Y-103743149D01*
X156385487Y-103741500D01*
X156194513Y-103741500D01*
X156186756Y-103743149D01*
X156186754Y-103743149D01*
X156127738Y-103755694D01*
X156007712Y-103781206D01*
X156000467Y-103784432D01*
X156000463Y-103784433D01*
X155851580Y-103850720D01*
X155774174Y-103862980D01*
X155728420Y-103850720D01*
X155579537Y-103784433D01*
X155579533Y-103784432D01*
X155572288Y-103781206D01*
X155452262Y-103755694D01*
X155393246Y-103743149D01*
X155393244Y-103743149D01*
X155385487Y-103741500D01*
X155194513Y-103741500D01*
X155186756Y-103743149D01*
X155186754Y-103743149D01*
X155127738Y-103755694D01*
X155007712Y-103781206D01*
X155000467Y-103784432D01*
X155000463Y-103784433D01*
X154851580Y-103850720D01*
X154774174Y-103862980D01*
X154728420Y-103850720D01*
X154579537Y-103784433D01*
X154579533Y-103784432D01*
X154572288Y-103781206D01*
X154452262Y-103755694D01*
X154393246Y-103743149D01*
X154393244Y-103743149D01*
X154385487Y-103741500D01*
X154194513Y-103741500D01*
X154186756Y-103743149D01*
X154186754Y-103743149D01*
X154127738Y-103755694D01*
X154007712Y-103781206D01*
X154000467Y-103784432D01*
X154000463Y-103784433D01*
X153851580Y-103850720D01*
X153774174Y-103862980D01*
X153728420Y-103850720D01*
X153579537Y-103784433D01*
X153579533Y-103784432D01*
X153572288Y-103781206D01*
X153452262Y-103755694D01*
X153393246Y-103743149D01*
X153393244Y-103743149D01*
X153385487Y-103741500D01*
X153194513Y-103741500D01*
X153186756Y-103743149D01*
X153186754Y-103743149D01*
X153127738Y-103755694D01*
X153007712Y-103781206D01*
X153000467Y-103784432D01*
X153000463Y-103784433D01*
X152851580Y-103850720D01*
X152774174Y-103862980D01*
X152728420Y-103850720D01*
X152579537Y-103784433D01*
X152579533Y-103784432D01*
X152572288Y-103781206D01*
X152452262Y-103755694D01*
X152393246Y-103743149D01*
X152393244Y-103743149D01*
X152385487Y-103741500D01*
X152194513Y-103741500D01*
X152186756Y-103743149D01*
X152186754Y-103743149D01*
X152127738Y-103755694D01*
X152007712Y-103781206D01*
X152000467Y-103784432D01*
X152000463Y-103784433D01*
X151851580Y-103850720D01*
X151774174Y-103862980D01*
X151728420Y-103850720D01*
X151579537Y-103784433D01*
X151579533Y-103784432D01*
X151572288Y-103781206D01*
X151452262Y-103755694D01*
X151393246Y-103743149D01*
X151393244Y-103743149D01*
X151385487Y-103741500D01*
X151194513Y-103741500D01*
X151186756Y-103743149D01*
X151186754Y-103743149D01*
X151127738Y-103755694D01*
X151007712Y-103781206D01*
X151000467Y-103784432D01*
X151000463Y-103784433D01*
X150851580Y-103850720D01*
X150774174Y-103862980D01*
X150728420Y-103850720D01*
X150579537Y-103784433D01*
X150579533Y-103784432D01*
X150572288Y-103781206D01*
X150452262Y-103755694D01*
X150393246Y-103743149D01*
X150393244Y-103743149D01*
X150385487Y-103741500D01*
X150194513Y-103741500D01*
X150186756Y-103743149D01*
X150186754Y-103743149D01*
X150127738Y-103755694D01*
X150007712Y-103781206D01*
X150000467Y-103784432D01*
X150000463Y-103784433D01*
X149840497Y-103855654D01*
X149840493Y-103855656D01*
X149833248Y-103858882D01*
X149826828Y-103863546D01*
X149826827Y-103863547D01*
X149755997Y-103915008D01*
X149678747Y-103971134D01*
X149550960Y-104113056D01*
X149455473Y-104278444D01*
X149396458Y-104460072D01*
X149376496Y-104650000D01*
X149396458Y-104839928D01*
X149455473Y-105021556D01*
X149459443Y-105028432D01*
X149462667Y-105035673D01*
X149461373Y-105036249D01*
X149479420Y-105103595D01*
X149459139Y-105179296D01*
X149403724Y-105234714D01*
X149328020Y-105255000D01*
X138789193Y-105255000D01*
X138713493Y-105234716D01*
X138676686Y-105204911D01*
X138601253Y-105121134D01*
X138484419Y-105036249D01*
X138453173Y-105013547D01*
X138453172Y-105013546D01*
X138446752Y-105008882D01*
X138439507Y-105005656D01*
X138439503Y-105005654D01*
X138279537Y-104934433D01*
X138279533Y-104934432D01*
X138272288Y-104931206D01*
X138152262Y-104905694D01*
X138093246Y-104893149D01*
X138093244Y-104893149D01*
X138085487Y-104891500D01*
X137894513Y-104891500D01*
X137886756Y-104893149D01*
X137886754Y-104893149D01*
X137827738Y-104905694D01*
X137707712Y-104931206D01*
X137700467Y-104934432D01*
X137700463Y-104934433D01*
X137540497Y-105005654D01*
X137540493Y-105005656D01*
X137533248Y-105008882D01*
X137526828Y-105013546D01*
X137526827Y-105013547D01*
X137495581Y-105036249D01*
X137378747Y-105121134D01*
X137303316Y-105204908D01*
X137237593Y-105247590D01*
X137190807Y-105255000D01*
X135081300Y-105255000D01*
X135005600Y-105234716D01*
X134950184Y-105179300D01*
X134929900Y-105103600D01*
X134929900Y-103854232D01*
X134950184Y-103778532D01*
X135005600Y-103723116D01*
X135055935Y-103705291D01*
X135062868Y-103705073D01*
X135081541Y-103699648D01*
X135104797Y-103694832D01*
X135124101Y-103692393D01*
X135132956Y-103688887D01*
X135132960Y-103688886D01*
X135165938Y-103675829D01*
X135179433Y-103671209D01*
X135213483Y-103661316D01*
X135213487Y-103661314D01*
X135222637Y-103658656D01*
X135239374Y-103648758D01*
X135260712Y-103638305D01*
X135278793Y-103631146D01*
X135315192Y-103604700D01*
X135327114Y-103596869D01*
X135365844Y-103573964D01*
X135379597Y-103560211D01*
X135397662Y-103544782D01*
X135405690Y-103538949D01*
X135413394Y-103533352D01*
X135442073Y-103498685D01*
X135451673Y-103488135D01*
X136048272Y-102891536D01*
X136056173Y-102884347D01*
X136063080Y-102879964D01*
X136111312Y-102828602D01*
X136114622Y-102825186D01*
X136134927Y-102804881D01*
X136137843Y-102801122D01*
X136140812Y-102797754D01*
X136146166Y-102791486D01*
X136176972Y-102758681D01*
X136186343Y-102741635D01*
X136199383Y-102721785D01*
X136211304Y-102706416D01*
X136215084Y-102697681D01*
X136215088Y-102697674D01*
X136229177Y-102665115D01*
X136235452Y-102652305D01*
X136249068Y-102627538D01*
X136253915Y-102618722D01*
X155576896Y-102618722D01*
X155578650Y-102621761D01*
X155582071Y-102624212D01*
X155711476Y-102688027D01*
X155720621Y-102691815D01*
X156003536Y-102787851D01*
X156013079Y-102790408D01*
X156306114Y-102848697D01*
X156315925Y-102849988D01*
X156614057Y-102869529D01*
X156623943Y-102869529D01*
X156922075Y-102849988D01*
X156931886Y-102848697D01*
X157224921Y-102790408D01*
X157234464Y-102787851D01*
X157517379Y-102691815D01*
X157526524Y-102688027D01*
X157649184Y-102627538D01*
X157661421Y-102616807D01*
X157660737Y-102613367D01*
X157658284Y-102609944D01*
X156633096Y-101584756D01*
X156619000Y-101576618D01*
X156604904Y-101584756D01*
X155585034Y-102604626D01*
X155576896Y-102618722D01*
X136253915Y-102618722D01*
X136257124Y-102612885D01*
X136261962Y-102594044D01*
X136269655Y-102571575D01*
X136273598Y-102562464D01*
X136277380Y-102553724D01*
X136284419Y-102509283D01*
X136287311Y-102495319D01*
X136296132Y-102460962D01*
X136296133Y-102460956D01*
X136298500Y-102451736D01*
X136298500Y-102432287D01*
X136300364Y-102408604D01*
X136301916Y-102398803D01*
X136303406Y-102389396D01*
X136299172Y-102344604D01*
X136298500Y-102330356D01*
X136298500Y-98484509D01*
X136318784Y-98408809D01*
X136337390Y-98383201D01*
X136342154Y-98377911D01*
X136407882Y-98335231D01*
X136486145Y-98331133D01*
X136496258Y-98333673D01*
X136504824Y-98337380D01*
X136520912Y-98339928D01*
X136549265Y-98344419D01*
X136563229Y-98347311D01*
X136597586Y-98356132D01*
X136597592Y-98356133D01*
X136606812Y-98358500D01*
X136626261Y-98358500D01*
X136649944Y-98360364D01*
X136652622Y-98360788D01*
X136669152Y-98363406D01*
X136678631Y-98362510D01*
X136678633Y-98362510D01*
X136713944Y-98359172D01*
X136728192Y-98358500D01*
X142471251Y-98358500D01*
X142481927Y-98359004D01*
X142489910Y-98360788D01*
X142499429Y-98360489D01*
X142499430Y-98360489D01*
X142560328Y-98358575D01*
X142565084Y-98358500D01*
X142593805Y-98358500D01*
X142598538Y-98357902D01*
X142603093Y-98357615D01*
X142611239Y-98356975D01*
X142634074Y-98356257D01*
X142656204Y-98355562D01*
X142674877Y-98350137D01*
X142698133Y-98345321D01*
X142717437Y-98342882D01*
X142726292Y-98339376D01*
X142726296Y-98339375D01*
X142759274Y-98326318D01*
X142772769Y-98321698D01*
X142806819Y-98311805D01*
X142806823Y-98311803D01*
X142815973Y-98309145D01*
X142832710Y-98299247D01*
X142854048Y-98288794D01*
X142872129Y-98281635D01*
X142908528Y-98255189D01*
X142920450Y-98247358D01*
X142939667Y-98235993D01*
X142959180Y-98224453D01*
X142972933Y-98210700D01*
X142990998Y-98195271D01*
X142999026Y-98189438D01*
X143006730Y-98183841D01*
X143012800Y-98176504D01*
X143012804Y-98176500D01*
X143035411Y-98149173D01*
X143045010Y-98138623D01*
X143180789Y-98002844D01*
X143248658Y-97963659D01*
X143287844Y-97958500D01*
X143769814Y-97958500D01*
X143845514Y-97978784D01*
X143900930Y-98034200D01*
X143921214Y-98109900D01*
X143913804Y-98156685D01*
X143898911Y-98202520D01*
X143898909Y-98202527D01*
X143896458Y-98210072D01*
X143895629Y-98217961D01*
X143895628Y-98217965D01*
X143880951Y-98357615D01*
X143876496Y-98400000D01*
X143877325Y-98407888D01*
X143893938Y-98565950D01*
X143896458Y-98589928D01*
X143955473Y-98771556D01*
X144050960Y-98936944D01*
X144056269Y-98942840D01*
X144056271Y-98942843D01*
X144088316Y-98978432D01*
X144178747Y-99078866D01*
X144333248Y-99191118D01*
X144340493Y-99194344D01*
X144340497Y-99194346D01*
X144500463Y-99265567D01*
X144500467Y-99265568D01*
X144507712Y-99268794D01*
X144627738Y-99294306D01*
X144686754Y-99306851D01*
X144686756Y-99306851D01*
X144694513Y-99308500D01*
X144885487Y-99308500D01*
X144893244Y-99306851D01*
X144893246Y-99306851D01*
X144952262Y-99294306D01*
X145072288Y-99268794D01*
X145079533Y-99265568D01*
X145079537Y-99265567D01*
X145239503Y-99194346D01*
X145239507Y-99194344D01*
X145246752Y-99191118D01*
X145401253Y-99078866D01*
X145491684Y-98978432D01*
X145523729Y-98942843D01*
X145523731Y-98942840D01*
X145529040Y-98936944D01*
X145624527Y-98771556D01*
X145683542Y-98589928D01*
X145686063Y-98565950D01*
X145702675Y-98407888D01*
X145703504Y-98400000D01*
X145699049Y-98357615D01*
X145684372Y-98217965D01*
X145684371Y-98217961D01*
X145683542Y-98210072D01*
X145681091Y-98202527D01*
X145681089Y-98202520D01*
X145666196Y-98156685D01*
X145662095Y-98078422D01*
X145697674Y-98008593D01*
X145763401Y-97965910D01*
X145810186Y-97958500D01*
X147854528Y-97958500D01*
X147930228Y-97978784D01*
X147961584Y-98002844D01*
X148090670Y-98131930D01*
X148129855Y-98199801D01*
X148134185Y-98223160D01*
X148145534Y-98331133D01*
X148146458Y-98339928D01*
X148148908Y-98347467D01*
X148148908Y-98347469D01*
X148197709Y-98497662D01*
X148205473Y-98521556D01*
X148209443Y-98528432D01*
X148277046Y-98645523D01*
X148300960Y-98686944D01*
X148428747Y-98828866D01*
X148583248Y-98941118D01*
X148590493Y-98944344D01*
X148590497Y-98944346D01*
X148750463Y-99015567D01*
X148750467Y-99015568D01*
X148757712Y-99018794D01*
X148877738Y-99044306D01*
X148936754Y-99056851D01*
X148936756Y-99056851D01*
X148944513Y-99058500D01*
X149135487Y-99058500D01*
X149143244Y-99056851D01*
X149143246Y-99056851D01*
X149310585Y-99021282D01*
X149388848Y-99025384D01*
X149454575Y-99068068D01*
X149490155Y-99137896D01*
X149492633Y-99153547D01*
X149495627Y-99182035D01*
X149495630Y-99182048D01*
X149496458Y-99189928D01*
X149498908Y-99197467D01*
X149498908Y-99197469D01*
X149521035Y-99265567D01*
X149555473Y-99371556D01*
X149566767Y-99391118D01*
X149628577Y-99498175D01*
X149650960Y-99536944D01*
X149656269Y-99542840D01*
X149656271Y-99542843D01*
X149679967Y-99569160D01*
X149778747Y-99678866D01*
X149785168Y-99683531D01*
X149864643Y-99741273D01*
X149933248Y-99791118D01*
X149940493Y-99794344D01*
X149940497Y-99794346D01*
X150100463Y-99865567D01*
X150100467Y-99865568D01*
X150107712Y-99868794D01*
X150227738Y-99894306D01*
X150286754Y-99906851D01*
X150286756Y-99906851D01*
X150294513Y-99908500D01*
X150485487Y-99908500D01*
X150493244Y-99906851D01*
X150493246Y-99906851D01*
X150552262Y-99894306D01*
X150672288Y-99868794D01*
X150679533Y-99865568D01*
X150679537Y-99865567D01*
X150839503Y-99794346D01*
X150839507Y-99794344D01*
X150846752Y-99791118D01*
X150915358Y-99741273D01*
X150994832Y-99683531D01*
X151001253Y-99678866D01*
X151100033Y-99569160D01*
X151123729Y-99542843D01*
X151123731Y-99542840D01*
X151129040Y-99536944D01*
X151151424Y-99498175D01*
X151213233Y-99391118D01*
X151224527Y-99371556D01*
X151283542Y-99189928D01*
X151289834Y-99130070D01*
X151302675Y-99007888D01*
X151303504Y-99000000D01*
X151301237Y-98978432D01*
X151284372Y-98817965D01*
X151284371Y-98817961D01*
X151283542Y-98810072D01*
X151224527Y-98628444D01*
X151208105Y-98600000D01*
X153176496Y-98600000D01*
X153177325Y-98607888D01*
X153195250Y-98778432D01*
X153196458Y-98789928D01*
X153205568Y-98817965D01*
X153246144Y-98942843D01*
X153255473Y-98971556D01*
X153259443Y-98978432D01*
X153317429Y-99078866D01*
X153350960Y-99136944D01*
X153478747Y-99278866D01*
X153633248Y-99391118D01*
X153640493Y-99394344D01*
X153640497Y-99394346D01*
X153800463Y-99465567D01*
X153800467Y-99465568D01*
X153807712Y-99468794D01*
X153927738Y-99494306D01*
X153986754Y-99506851D01*
X153986756Y-99506851D01*
X153994513Y-99508500D01*
X154185487Y-99508500D01*
X154193244Y-99506851D01*
X154193246Y-99506851D01*
X154234062Y-99498175D01*
X154312325Y-99502277D01*
X154378052Y-99544960D01*
X154413632Y-99614789D01*
X154408905Y-99694933D01*
X154341149Y-99894536D01*
X154338592Y-99904079D01*
X154280303Y-100197114D01*
X154279012Y-100206925D01*
X154259471Y-100505057D01*
X154259471Y-100514943D01*
X154279012Y-100813075D01*
X154280303Y-100822886D01*
X154338592Y-101115921D01*
X154341149Y-101125464D01*
X154437186Y-101408381D01*
X154440973Y-101417525D01*
X154501462Y-101540183D01*
X154512194Y-101552420D01*
X154515635Y-101551735D01*
X154519057Y-101549283D01*
X155558340Y-100510000D01*
X157685618Y-100510000D01*
X157693756Y-100524096D01*
X158713625Y-101543965D01*
X158727721Y-101552103D01*
X158730760Y-101550349D01*
X158733212Y-101546927D01*
X158797027Y-101417525D01*
X158800814Y-101408381D01*
X158896851Y-101125464D01*
X158899408Y-101115921D01*
X158957697Y-100822886D01*
X158958988Y-100813075D01*
X158978529Y-100514943D01*
X158978529Y-100505057D01*
X158958988Y-100206925D01*
X158957697Y-100197114D01*
X158899408Y-99904079D01*
X158896851Y-99894536D01*
X158800814Y-99611619D01*
X158797027Y-99602475D01*
X158736538Y-99479817D01*
X158725806Y-99467580D01*
X158722365Y-99468265D01*
X158718943Y-99470717D01*
X157693756Y-100495904D01*
X157685618Y-100510000D01*
X155558340Y-100510000D01*
X157652966Y-98415374D01*
X157661104Y-98401278D01*
X157659350Y-98398239D01*
X157655929Y-98395788D01*
X157526524Y-98331973D01*
X157517379Y-98328185D01*
X157234464Y-98232149D01*
X157224921Y-98229592D01*
X156931886Y-98171303D01*
X156922075Y-98170012D01*
X156623943Y-98150471D01*
X156614057Y-98150471D01*
X156315925Y-98170012D01*
X156306114Y-98171303D01*
X156013079Y-98229592D01*
X156003536Y-98232149D01*
X155720619Y-98328186D01*
X155711475Y-98331974D01*
X155443524Y-98464113D01*
X155434942Y-98469067D01*
X155227432Y-98607721D01*
X155153221Y-98632913D01*
X155076356Y-98617624D01*
X155017435Y-98565950D01*
X154992748Y-98497662D01*
X154984372Y-98417965D01*
X154984371Y-98417961D01*
X154983542Y-98410072D01*
X154924527Y-98228444D01*
X154868387Y-98131206D01*
X154833009Y-98069930D01*
X154833008Y-98069928D01*
X154829040Y-98063056D01*
X154806383Y-98037892D01*
X154706565Y-97927034D01*
X154701253Y-97921134D01*
X154546752Y-97808882D01*
X154539507Y-97805656D01*
X154539503Y-97805654D01*
X154379537Y-97734433D01*
X154379533Y-97734432D01*
X154372288Y-97731206D01*
X154252262Y-97705694D01*
X154193246Y-97693149D01*
X154193244Y-97693149D01*
X154185487Y-97691500D01*
X153994513Y-97691500D01*
X153986756Y-97693149D01*
X153986754Y-97693149D01*
X153927738Y-97705694D01*
X153807712Y-97731206D01*
X153800467Y-97734432D01*
X153800463Y-97734433D01*
X153640497Y-97805654D01*
X153640493Y-97805656D01*
X153633248Y-97808882D01*
X153478747Y-97921134D01*
X153473435Y-97927034D01*
X153373618Y-98037892D01*
X153350960Y-98063056D01*
X153346992Y-98069928D01*
X153346991Y-98069930D01*
X153311613Y-98131206D01*
X153255473Y-98228444D01*
X153196458Y-98410072D01*
X153195629Y-98417961D01*
X153195628Y-98417965D01*
X153184018Y-98528432D01*
X153176496Y-98600000D01*
X151208105Y-98600000D01*
X151129040Y-98463056D01*
X151001253Y-98321134D01*
X150904710Y-98250991D01*
X150853173Y-98213547D01*
X150853172Y-98213546D01*
X150846752Y-98208882D01*
X150839507Y-98205656D01*
X150839503Y-98205654D01*
X150715558Y-98150471D01*
X150672288Y-98131206D01*
X150668789Y-98130462D01*
X150604538Y-98088734D01*
X150568961Y-98018905D01*
X150573064Y-97940642D01*
X150608567Y-97885987D01*
X150606631Y-97884244D01*
X150729107Y-97748221D01*
X150729109Y-97748218D01*
X150734418Y-97742322D01*
X150829905Y-97576934D01*
X150852677Y-97506851D01*
X150886469Y-97402851D01*
X150886470Y-97402846D01*
X150888920Y-97395306D01*
X150890023Y-97395664D01*
X150922120Y-97332660D01*
X150987844Y-97289973D01*
X151066107Y-97285867D01*
X151123630Y-97311475D01*
X151233248Y-97391118D01*
X151240493Y-97394344D01*
X151240497Y-97394346D01*
X151400463Y-97465567D01*
X151400467Y-97465568D01*
X151407712Y-97468794D01*
X151527738Y-97494306D01*
X151586754Y-97506851D01*
X151586756Y-97506851D01*
X151594513Y-97508500D01*
X151785487Y-97508500D01*
X151793244Y-97506851D01*
X151793246Y-97506851D01*
X151852262Y-97494306D01*
X151972288Y-97468794D01*
X151979533Y-97465568D01*
X151979537Y-97465567D01*
X152139503Y-97394346D01*
X152139507Y-97394344D01*
X152146752Y-97391118D01*
X152301253Y-97278866D01*
X152429040Y-97136944D01*
X152524527Y-96971556D01*
X152583542Y-96789928D01*
X152586370Y-96763028D01*
X152592933Y-96700575D01*
X152621018Y-96627410D01*
X152681923Y-96578089D01*
X152743504Y-96565000D01*
X159180600Y-96565000D01*
X159256300Y-96585284D01*
G37*
G04 #@! TD.AperFunction*
G04 #@! TA.AperFunction,Conductor*
G36*
X141295218Y-96585284D02*
G01*
X141350634Y-96640700D01*
X141370918Y-96716400D01*
X141368404Y-96740316D01*
X141368302Y-96740631D01*
X141361529Y-96805073D01*
X141350929Y-96905926D01*
X141322843Y-96979091D01*
X141261938Y-97028411D01*
X141200358Y-97041500D01*
X137025472Y-97041500D01*
X136949772Y-97021216D01*
X136918416Y-96997156D01*
X136744716Y-96823456D01*
X136705531Y-96755585D01*
X136705531Y-96677215D01*
X136744716Y-96609344D01*
X136812587Y-96570159D01*
X136851772Y-96565000D01*
X141219518Y-96565000D01*
X141295218Y-96585284D01*
G37*
G04 #@! TD.AperFunction*
G04 #@! TA.AperFunction,Conductor*
G36*
X158062003Y-68509803D02*
G01*
X158073068Y-68511526D01*
X158073069Y-68511526D01*
X158083730Y-68513186D01*
X158094428Y-68511787D01*
X158094434Y-68511787D01*
X158095139Y-68511695D01*
X158126646Y-68510884D01*
X158272410Y-68522356D01*
X158295874Y-68526072D01*
X158416912Y-68555131D01*
X158462218Y-68566008D01*
X158484804Y-68573346D01*
X158642845Y-68638809D01*
X158664012Y-68649594D01*
X158809869Y-68738975D01*
X158829089Y-68752939D01*
X158959166Y-68864034D01*
X158975966Y-68880834D01*
X159087061Y-69010911D01*
X159101025Y-69030131D01*
X159190406Y-69175988D01*
X159201190Y-69197154D01*
X159266654Y-69355196D01*
X159273993Y-69377784D01*
X159313928Y-69544126D01*
X159317644Y-69567590D01*
X159325699Y-69669930D01*
X159328541Y-69706043D01*
X159327923Y-69722277D01*
X159328605Y-69722285D01*
X159328473Y-69733072D01*
X159326814Y-69743730D01*
X159328213Y-69754426D01*
X159330722Y-69773615D01*
X159332000Y-69793246D01*
X159332000Y-74925315D01*
X159311716Y-75001015D01*
X159256300Y-75056431D01*
X159180600Y-75076715D01*
X159104900Y-75056431D01*
X159091609Y-75047800D01*
X159003173Y-74983547D01*
X159003172Y-74983546D01*
X158996752Y-74978882D01*
X158989507Y-74975656D01*
X158989503Y-74975654D01*
X158829537Y-74904433D01*
X158829533Y-74904432D01*
X158822288Y-74901206D01*
X158702262Y-74875694D01*
X158643246Y-74863149D01*
X158643244Y-74863149D01*
X158635487Y-74861500D01*
X158444513Y-74861500D01*
X158436756Y-74863149D01*
X158436754Y-74863149D01*
X158377738Y-74875694D01*
X158257712Y-74901206D01*
X158250467Y-74904432D01*
X158250463Y-74904433D01*
X158101580Y-74970720D01*
X158024174Y-74982980D01*
X157978420Y-74970720D01*
X157829537Y-74904433D01*
X157829533Y-74904432D01*
X157822288Y-74901206D01*
X157702262Y-74875694D01*
X157643246Y-74863149D01*
X157643244Y-74863149D01*
X157635487Y-74861500D01*
X157444513Y-74861500D01*
X157436756Y-74863149D01*
X157436754Y-74863149D01*
X157377738Y-74875694D01*
X157257712Y-74901206D01*
X157250467Y-74904432D01*
X157250463Y-74904433D01*
X157101580Y-74970720D01*
X157024174Y-74982980D01*
X156978420Y-74970720D01*
X156829537Y-74904433D01*
X156829533Y-74904432D01*
X156822288Y-74901206D01*
X156702262Y-74875694D01*
X156643246Y-74863149D01*
X156643244Y-74863149D01*
X156635487Y-74861500D01*
X156444513Y-74861500D01*
X156436756Y-74863149D01*
X156436754Y-74863149D01*
X156377738Y-74875694D01*
X156257712Y-74901206D01*
X156250467Y-74904432D01*
X156250463Y-74904433D01*
X156101580Y-74970720D01*
X156024174Y-74982980D01*
X155978420Y-74970720D01*
X155829537Y-74904433D01*
X155829533Y-74904432D01*
X155822288Y-74901206D01*
X155702262Y-74875694D01*
X155643246Y-74863149D01*
X155643244Y-74863149D01*
X155635487Y-74861500D01*
X155444513Y-74861500D01*
X155436756Y-74863149D01*
X155436754Y-74863149D01*
X155377738Y-74875694D01*
X155257712Y-74901206D01*
X155250467Y-74904432D01*
X155250463Y-74904433D01*
X155101580Y-74970720D01*
X155024174Y-74982980D01*
X154978420Y-74970720D01*
X154829537Y-74904433D01*
X154829533Y-74904432D01*
X154822288Y-74901206D01*
X154702262Y-74875694D01*
X154643246Y-74863149D01*
X154643244Y-74863149D01*
X154635487Y-74861500D01*
X154444513Y-74861500D01*
X154436756Y-74863149D01*
X154436754Y-74863149D01*
X154377738Y-74875694D01*
X154257712Y-74901206D01*
X154250467Y-74904432D01*
X154250463Y-74904433D01*
X154101580Y-74970720D01*
X154024174Y-74982980D01*
X153978420Y-74970720D01*
X153829537Y-74904433D01*
X153829533Y-74904432D01*
X153822288Y-74901206D01*
X153702262Y-74875694D01*
X153643246Y-74863149D01*
X153643244Y-74863149D01*
X153635487Y-74861500D01*
X153444513Y-74861500D01*
X153436756Y-74863149D01*
X153436754Y-74863149D01*
X153377738Y-74875694D01*
X153257712Y-74901206D01*
X153250467Y-74904432D01*
X153250463Y-74904433D01*
X153101580Y-74970720D01*
X153024174Y-74982980D01*
X152978420Y-74970720D01*
X152829537Y-74904433D01*
X152829533Y-74904432D01*
X152822288Y-74901206D01*
X152702262Y-74875694D01*
X152643246Y-74863149D01*
X152643244Y-74863149D01*
X152635487Y-74861500D01*
X152444513Y-74861500D01*
X152436756Y-74863149D01*
X152436754Y-74863149D01*
X152377738Y-74875694D01*
X152257712Y-74901206D01*
X152250467Y-74904432D01*
X152250463Y-74904433D01*
X152101580Y-74970720D01*
X152024174Y-74982980D01*
X151978420Y-74970720D01*
X151829537Y-74904433D01*
X151829533Y-74904432D01*
X151822288Y-74901206D01*
X151702262Y-74875694D01*
X151643246Y-74863149D01*
X151643244Y-74863149D01*
X151635487Y-74861500D01*
X151444513Y-74861500D01*
X151436756Y-74863149D01*
X151436754Y-74863149D01*
X151377738Y-74875694D01*
X151257712Y-74901206D01*
X151250467Y-74904432D01*
X151250463Y-74904433D01*
X151101580Y-74970720D01*
X151024174Y-74982980D01*
X150978420Y-74970720D01*
X150829537Y-74904433D01*
X150829533Y-74904432D01*
X150822288Y-74901206D01*
X150702262Y-74875694D01*
X150643246Y-74863149D01*
X150643244Y-74863149D01*
X150635487Y-74861500D01*
X150444513Y-74861500D01*
X150436756Y-74863149D01*
X150436754Y-74863149D01*
X150377738Y-74875694D01*
X150257712Y-74901206D01*
X150250467Y-74904432D01*
X150250463Y-74904433D01*
X150090497Y-74975654D01*
X150090493Y-74975656D01*
X150083248Y-74978882D01*
X150076828Y-74983546D01*
X150076827Y-74983547D01*
X150005997Y-75035008D01*
X149928747Y-75091134D01*
X149800960Y-75233056D01*
X149705473Y-75398444D01*
X149646458Y-75580072D01*
X149626496Y-75770000D01*
X149644441Y-75940730D01*
X149646232Y-75957774D01*
X149633972Y-76035180D01*
X149584652Y-76096085D01*
X149511487Y-76124171D01*
X149495661Y-76125000D01*
X136982500Y-76125000D01*
X136906800Y-76104716D01*
X136851384Y-76049300D01*
X136831100Y-75973600D01*
X136832964Y-75949917D01*
X136834419Y-75940730D01*
X136837310Y-75926770D01*
X136848500Y-75883188D01*
X136848500Y-75863739D01*
X136850364Y-75840057D01*
X136851916Y-75830256D01*
X136853406Y-75820848D01*
X136849172Y-75776056D01*
X136848500Y-75761808D01*
X136848500Y-74238722D01*
X155576896Y-74238722D01*
X155578650Y-74241761D01*
X155582071Y-74244212D01*
X155711476Y-74308027D01*
X155720621Y-74311815D01*
X156003536Y-74407851D01*
X156013079Y-74410408D01*
X156306114Y-74468697D01*
X156315925Y-74469988D01*
X156614057Y-74489529D01*
X156623943Y-74489529D01*
X156922075Y-74469988D01*
X156931886Y-74468697D01*
X157224921Y-74410408D01*
X157234464Y-74407851D01*
X157517379Y-74311815D01*
X157526524Y-74308027D01*
X157649184Y-74247538D01*
X157661421Y-74236807D01*
X157660737Y-74233367D01*
X157658284Y-74229944D01*
X156633096Y-73204756D01*
X156619000Y-73196618D01*
X156604904Y-73204756D01*
X155585034Y-74224626D01*
X155576896Y-74238722D01*
X136848500Y-74238722D01*
X136848500Y-72134943D01*
X154259471Y-72134943D01*
X154279012Y-72433075D01*
X154280303Y-72442886D01*
X154338592Y-72735921D01*
X154341149Y-72745464D01*
X154437186Y-73028381D01*
X154440973Y-73037525D01*
X154501462Y-73160183D01*
X154512194Y-73172420D01*
X154515635Y-73171735D01*
X154519057Y-73169283D01*
X155544244Y-72144096D01*
X155552382Y-72130000D01*
X157685618Y-72130000D01*
X157693756Y-72144096D01*
X158713625Y-73163965D01*
X158727721Y-73172103D01*
X158730760Y-73170349D01*
X158733212Y-73166927D01*
X158797027Y-73037525D01*
X158800814Y-73028381D01*
X158896851Y-72745464D01*
X158899408Y-72735921D01*
X158957697Y-72442886D01*
X158958988Y-72433075D01*
X158978529Y-72134943D01*
X158978529Y-72125057D01*
X158958988Y-71826925D01*
X158957697Y-71817114D01*
X158899408Y-71524079D01*
X158896851Y-71514536D01*
X158800814Y-71231619D01*
X158797027Y-71222475D01*
X158736538Y-71099817D01*
X158725806Y-71087580D01*
X158722365Y-71088265D01*
X158718943Y-71090717D01*
X157693756Y-72115904D01*
X157685618Y-72130000D01*
X155552382Y-72130000D01*
X155544244Y-72115904D01*
X154524375Y-71096035D01*
X154510279Y-71087897D01*
X154507240Y-71089651D01*
X154504788Y-71093073D01*
X154440973Y-71222475D01*
X154437186Y-71231619D01*
X154341149Y-71514536D01*
X154338592Y-71524079D01*
X154280303Y-71817114D01*
X154279012Y-71826925D01*
X154259471Y-72125057D01*
X154259471Y-72134943D01*
X136848500Y-72134943D01*
X136848500Y-70884509D01*
X136868784Y-70808809D01*
X136887383Y-70783209D01*
X136929040Y-70736944D01*
X137024527Y-70571556D01*
X137080269Y-70400000D01*
X143876496Y-70400000D01*
X143877325Y-70407888D01*
X143895250Y-70578432D01*
X143896458Y-70589928D01*
X143955473Y-70771556D01*
X143959443Y-70778432D01*
X144020687Y-70884509D01*
X144050960Y-70936944D01*
X144178747Y-71078866D01*
X144333248Y-71191118D01*
X144340493Y-71194344D01*
X144340497Y-71194346D01*
X144500463Y-71265567D01*
X144500467Y-71265568D01*
X144507712Y-71268794D01*
X144627738Y-71294306D01*
X144686754Y-71306851D01*
X144686756Y-71306851D01*
X144694513Y-71308500D01*
X144885487Y-71308500D01*
X144893244Y-71306851D01*
X144893246Y-71306851D01*
X144952262Y-71294306D01*
X145072288Y-71268794D01*
X145079533Y-71265568D01*
X145079537Y-71265567D01*
X145239503Y-71194346D01*
X145239507Y-71194344D01*
X145246752Y-71191118D01*
X145401253Y-71078866D01*
X145529040Y-70936944D01*
X145559314Y-70884509D01*
X145620557Y-70778432D01*
X145624527Y-70771556D01*
X145683542Y-70589928D01*
X145684751Y-70578432D01*
X145702675Y-70407888D01*
X145703504Y-70400000D01*
X145683542Y-70210072D01*
X145624527Y-70028444D01*
X145621496Y-70023194D01*
X155576580Y-70023194D01*
X155577265Y-70026635D01*
X155579717Y-70030057D01*
X156604904Y-71055244D01*
X156619000Y-71063382D01*
X156633096Y-71055244D01*
X157652966Y-70035374D01*
X157661104Y-70021278D01*
X157659350Y-70018239D01*
X157655929Y-70015788D01*
X157526524Y-69951973D01*
X157517379Y-69948185D01*
X157234464Y-69852149D01*
X157224921Y-69849592D01*
X156931886Y-69791303D01*
X156922075Y-69790012D01*
X156623943Y-69770471D01*
X156614057Y-69770471D01*
X156315925Y-69790012D01*
X156306114Y-69791303D01*
X156013079Y-69849592D01*
X156003536Y-69852149D01*
X155720619Y-69948186D01*
X155711475Y-69951973D01*
X155588817Y-70012462D01*
X155576580Y-70023194D01*
X145621496Y-70023194D01*
X145529040Y-69863056D01*
X145519220Y-69852149D01*
X145427244Y-69750000D01*
X145401253Y-69721134D01*
X145246752Y-69608882D01*
X145239507Y-69605656D01*
X145239503Y-69605654D01*
X145079537Y-69534433D01*
X145079533Y-69534432D01*
X145072288Y-69531206D01*
X144952262Y-69505694D01*
X144893246Y-69493149D01*
X144893244Y-69493149D01*
X144885487Y-69491500D01*
X144694513Y-69491500D01*
X144686756Y-69493149D01*
X144686754Y-69493149D01*
X144627738Y-69505694D01*
X144507712Y-69531206D01*
X144500467Y-69534432D01*
X144500463Y-69534433D01*
X144340497Y-69605654D01*
X144340493Y-69605656D01*
X144333248Y-69608882D01*
X144178747Y-69721134D01*
X144152756Y-69750000D01*
X144060781Y-69852149D01*
X144050960Y-69863056D01*
X143955473Y-70028444D01*
X143896458Y-70210072D01*
X143876496Y-70400000D01*
X137080269Y-70400000D01*
X137083542Y-70389928D01*
X137103504Y-70200000D01*
X137102675Y-70192112D01*
X137084372Y-70017965D01*
X137084371Y-70017961D01*
X137083542Y-70010072D01*
X137035773Y-69863056D01*
X137026980Y-69835993D01*
X137026979Y-69835992D01*
X137024527Y-69828444D01*
X136963231Y-69722277D01*
X136933009Y-69669930D01*
X136933008Y-69669928D01*
X136929040Y-69663056D01*
X136801253Y-69521134D01*
X136646752Y-69408882D01*
X136639507Y-69405656D01*
X136639503Y-69405654D01*
X136479537Y-69334433D01*
X136479533Y-69334432D01*
X136472288Y-69331206D01*
X136352262Y-69305694D01*
X136293246Y-69293149D01*
X136293244Y-69293149D01*
X136285487Y-69291500D01*
X136094513Y-69291500D01*
X136086756Y-69293149D01*
X136086754Y-69293149D01*
X136027738Y-69305694D01*
X135907712Y-69331206D01*
X135900467Y-69334432D01*
X135900463Y-69334433D01*
X135842880Y-69360071D01*
X135765474Y-69372331D01*
X135692309Y-69344245D01*
X135642989Y-69283340D01*
X135629900Y-69221760D01*
X135629900Y-68659400D01*
X135650184Y-68583700D01*
X135705600Y-68528284D01*
X135781300Y-68508000D01*
X158038710Y-68508000D01*
X158062003Y-68509803D01*
G37*
G04 #@! TD.AperFunction*
G04 #@! TA.AperFunction,Conductor*
G36*
X137009095Y-77105284D02*
G01*
X137064511Y-77160700D01*
X137083966Y-77220574D01*
X137096458Y-77339428D01*
X137155473Y-77521056D01*
X137159443Y-77527932D01*
X137246374Y-77678500D01*
X137250960Y-77686444D01*
X137378747Y-77828366D01*
X137533248Y-77940618D01*
X137540493Y-77943844D01*
X137540497Y-77943846D01*
X137700463Y-78015067D01*
X137700467Y-78015068D01*
X137707712Y-78018294D01*
X137827738Y-78043806D01*
X137886754Y-78056351D01*
X137886756Y-78056351D01*
X137894513Y-78058000D01*
X138085487Y-78058000D01*
X138093244Y-78056351D01*
X138093246Y-78056351D01*
X138152262Y-78043806D01*
X138272288Y-78018294D01*
X138279533Y-78015068D01*
X138279537Y-78015067D01*
X138439503Y-77943846D01*
X138439507Y-77943844D01*
X138446752Y-77940618D01*
X138601253Y-77828366D01*
X138729040Y-77686444D01*
X138733627Y-77678500D01*
X138820557Y-77527932D01*
X138824527Y-77521056D01*
X138883542Y-77339428D01*
X138896034Y-77220574D01*
X138924120Y-77147409D01*
X138985025Y-77098089D01*
X139046605Y-77085000D01*
X149585410Y-77085000D01*
X149661110Y-77105284D01*
X149716526Y-77160700D01*
X149800960Y-77306944D01*
X149806269Y-77312840D01*
X149806271Y-77312843D01*
X149837005Y-77346976D01*
X149928747Y-77448866D01*
X149935168Y-77453531D01*
X150040000Y-77529696D01*
X150083248Y-77561118D01*
X150090493Y-77564344D01*
X150090497Y-77564346D01*
X150250463Y-77635567D01*
X150250467Y-77635568D01*
X150257712Y-77638794D01*
X150357304Y-77659963D01*
X150436754Y-77676851D01*
X150436756Y-77676851D01*
X150444513Y-77678500D01*
X150635487Y-77678500D01*
X150643244Y-77676851D01*
X150643246Y-77676851D01*
X150722696Y-77659963D01*
X150822288Y-77638794D01*
X150829533Y-77635568D01*
X150829537Y-77635567D01*
X150978420Y-77569280D01*
X151055826Y-77557020D01*
X151101580Y-77569280D01*
X151250463Y-77635567D01*
X151250467Y-77635568D01*
X151257712Y-77638794D01*
X151357304Y-77659963D01*
X151436754Y-77676851D01*
X151436756Y-77676851D01*
X151444513Y-77678500D01*
X151635487Y-77678500D01*
X151643244Y-77676851D01*
X151643246Y-77676851D01*
X151722696Y-77659963D01*
X151822288Y-77638794D01*
X151829533Y-77635568D01*
X151829537Y-77635567D01*
X151978420Y-77569280D01*
X152055826Y-77557020D01*
X152101580Y-77569280D01*
X152250463Y-77635567D01*
X152250467Y-77635568D01*
X152257712Y-77638794D01*
X152357304Y-77659963D01*
X152436754Y-77676851D01*
X152436756Y-77676851D01*
X152444513Y-77678500D01*
X152635487Y-77678500D01*
X152643244Y-77676851D01*
X152643246Y-77676851D01*
X152722696Y-77659963D01*
X152822288Y-77638794D01*
X152829533Y-77635568D01*
X152829537Y-77635567D01*
X152978420Y-77569280D01*
X153055826Y-77557020D01*
X153101580Y-77569280D01*
X153250463Y-77635567D01*
X153250467Y-77635568D01*
X153257712Y-77638794D01*
X153357304Y-77659963D01*
X153436754Y-77676851D01*
X153436756Y-77676851D01*
X153444513Y-77678500D01*
X153635487Y-77678500D01*
X153643244Y-77676851D01*
X153643246Y-77676851D01*
X153722696Y-77659963D01*
X153822288Y-77638794D01*
X153829533Y-77635568D01*
X153829537Y-77635567D01*
X153978420Y-77569280D01*
X154055826Y-77557020D01*
X154101580Y-77569280D01*
X154250463Y-77635567D01*
X154250467Y-77635568D01*
X154257712Y-77638794D01*
X154357304Y-77659963D01*
X154436754Y-77676851D01*
X154436756Y-77676851D01*
X154444513Y-77678500D01*
X154635487Y-77678500D01*
X154643244Y-77676851D01*
X154643246Y-77676851D01*
X154722696Y-77659963D01*
X154822288Y-77638794D01*
X154829533Y-77635568D01*
X154829537Y-77635567D01*
X154978420Y-77569280D01*
X155055826Y-77557020D01*
X155101580Y-77569280D01*
X155250463Y-77635567D01*
X155250467Y-77635568D01*
X155257712Y-77638794D01*
X155357304Y-77659963D01*
X155436754Y-77676851D01*
X155436756Y-77676851D01*
X155444513Y-77678500D01*
X155635487Y-77678500D01*
X155643244Y-77676851D01*
X155643246Y-77676851D01*
X155722696Y-77659963D01*
X155822288Y-77638794D01*
X155829533Y-77635568D01*
X155829537Y-77635567D01*
X155978420Y-77569280D01*
X156055826Y-77557020D01*
X156101580Y-77569280D01*
X156250463Y-77635567D01*
X156250467Y-77635568D01*
X156257712Y-77638794D01*
X156357304Y-77659963D01*
X156436754Y-77676851D01*
X156436756Y-77676851D01*
X156444513Y-77678500D01*
X156635487Y-77678500D01*
X156643244Y-77676851D01*
X156643246Y-77676851D01*
X156722696Y-77659963D01*
X156822288Y-77638794D01*
X156829533Y-77635568D01*
X156829537Y-77635567D01*
X156978420Y-77569280D01*
X157055826Y-77557020D01*
X157101580Y-77569280D01*
X157250463Y-77635567D01*
X157250467Y-77635568D01*
X157257712Y-77638794D01*
X157357304Y-77659963D01*
X157436754Y-77676851D01*
X157436756Y-77676851D01*
X157444513Y-77678500D01*
X157635487Y-77678500D01*
X157643244Y-77676851D01*
X157643246Y-77676851D01*
X157722696Y-77659963D01*
X157822288Y-77638794D01*
X157829533Y-77635568D01*
X157829537Y-77635567D01*
X157978420Y-77569280D01*
X158055826Y-77557020D01*
X158101580Y-77569280D01*
X158250463Y-77635567D01*
X158250467Y-77635568D01*
X158257712Y-77638794D01*
X158357304Y-77659963D01*
X158436754Y-77676851D01*
X158436756Y-77676851D01*
X158444513Y-77678500D01*
X158635487Y-77678500D01*
X158643244Y-77676851D01*
X158643246Y-77676851D01*
X158722696Y-77659963D01*
X158822288Y-77638794D01*
X158829533Y-77635568D01*
X158829537Y-77635567D01*
X158989503Y-77564346D01*
X158989507Y-77564344D01*
X158996752Y-77561118D01*
X159040001Y-77529696D01*
X159091609Y-77492200D01*
X159164774Y-77464114D01*
X159242180Y-77476374D01*
X159303085Y-77525694D01*
X159331171Y-77598859D01*
X159332000Y-77614685D01*
X159332000Y-83542766D01*
X159311716Y-83618466D01*
X159256300Y-83673882D01*
X159180600Y-83694166D01*
X159104900Y-83673882D01*
X159049484Y-83618466D01*
X159033009Y-83589930D01*
X159033008Y-83589928D01*
X159029040Y-83583056D01*
X159022295Y-83575564D01*
X158906565Y-83447034D01*
X158901253Y-83441134D01*
X158824002Y-83385008D01*
X158753173Y-83333547D01*
X158753172Y-83333546D01*
X158746752Y-83328882D01*
X158739507Y-83325656D01*
X158739503Y-83325654D01*
X158579537Y-83254433D01*
X158579533Y-83254432D01*
X158572288Y-83251206D01*
X158452262Y-83225694D01*
X158393246Y-83213149D01*
X158393244Y-83213149D01*
X158385487Y-83211500D01*
X158194513Y-83211500D01*
X158186756Y-83213149D01*
X158186754Y-83213149D01*
X158127738Y-83225694D01*
X158007712Y-83251206D01*
X158000467Y-83254432D01*
X158000463Y-83254433D01*
X157851580Y-83320720D01*
X157774174Y-83332980D01*
X157728420Y-83320720D01*
X157579537Y-83254433D01*
X157579533Y-83254432D01*
X157572288Y-83251206D01*
X157452262Y-83225694D01*
X157393246Y-83213149D01*
X157393244Y-83213149D01*
X157385487Y-83211500D01*
X157194513Y-83211500D01*
X157186756Y-83213149D01*
X157186754Y-83213149D01*
X157127738Y-83225694D01*
X157007712Y-83251206D01*
X157000467Y-83254432D01*
X157000463Y-83254433D01*
X156851580Y-83320720D01*
X156774174Y-83332980D01*
X156728420Y-83320720D01*
X156579537Y-83254433D01*
X156579533Y-83254432D01*
X156572288Y-83251206D01*
X156452262Y-83225694D01*
X156393246Y-83213149D01*
X156393244Y-83213149D01*
X156385487Y-83211500D01*
X156194513Y-83211500D01*
X156186756Y-83213149D01*
X156186754Y-83213149D01*
X156127738Y-83225694D01*
X156007712Y-83251206D01*
X156000467Y-83254432D01*
X156000463Y-83254433D01*
X155840497Y-83325654D01*
X155840493Y-83325656D01*
X155833248Y-83328882D01*
X155826828Y-83333546D01*
X155826827Y-83333547D01*
X155755998Y-83385008D01*
X155678747Y-83441134D01*
X155673435Y-83447034D01*
X155557706Y-83575564D01*
X155550960Y-83583056D01*
X155455473Y-83748444D01*
X155396458Y-83930072D01*
X155395629Y-83937964D01*
X155381128Y-84075926D01*
X155353042Y-84149091D01*
X155292137Y-84198411D01*
X155230557Y-84211500D01*
X155194513Y-84211500D01*
X155186756Y-84213149D01*
X155186754Y-84213149D01*
X155127738Y-84225694D01*
X155007712Y-84251206D01*
X155000467Y-84254432D01*
X155000463Y-84254433D01*
X154851580Y-84320720D01*
X154774174Y-84332980D01*
X154728420Y-84320720D01*
X154579537Y-84254433D01*
X154579533Y-84254432D01*
X154572288Y-84251206D01*
X154452262Y-84225694D01*
X154393246Y-84213149D01*
X154393244Y-84213149D01*
X154385487Y-84211500D01*
X154194513Y-84211500D01*
X154186756Y-84213149D01*
X154186754Y-84213149D01*
X154127738Y-84225694D01*
X154007712Y-84251206D01*
X154000467Y-84254432D01*
X154000463Y-84254433D01*
X153851580Y-84320720D01*
X153774174Y-84332980D01*
X153728420Y-84320720D01*
X153579537Y-84254433D01*
X153579533Y-84254432D01*
X153572288Y-84251206D01*
X153452262Y-84225694D01*
X153393246Y-84213149D01*
X153393244Y-84213149D01*
X153385487Y-84211500D01*
X153194513Y-84211500D01*
X153186756Y-84213149D01*
X153186754Y-84213149D01*
X153127738Y-84225694D01*
X153007712Y-84251206D01*
X153000467Y-84254432D01*
X153000463Y-84254433D01*
X152851580Y-84320720D01*
X152774174Y-84332980D01*
X152728420Y-84320720D01*
X152579537Y-84254433D01*
X152579533Y-84254432D01*
X152572288Y-84251206D01*
X152452262Y-84225694D01*
X152393246Y-84213149D01*
X152393244Y-84213149D01*
X152385487Y-84211500D01*
X152194513Y-84211500D01*
X152186756Y-84213149D01*
X152186754Y-84213149D01*
X152127738Y-84225694D01*
X152007712Y-84251206D01*
X152000467Y-84254432D01*
X152000463Y-84254433D01*
X151851580Y-84320720D01*
X151774174Y-84332980D01*
X151728420Y-84320720D01*
X151579537Y-84254433D01*
X151579533Y-84254432D01*
X151572288Y-84251206D01*
X151452262Y-84225694D01*
X151393246Y-84213149D01*
X151393244Y-84213149D01*
X151385487Y-84211500D01*
X151194513Y-84211500D01*
X151186756Y-84213149D01*
X151186754Y-84213149D01*
X151127738Y-84225694D01*
X151007712Y-84251206D01*
X151000467Y-84254432D01*
X151000463Y-84254433D01*
X150851580Y-84320720D01*
X150774174Y-84332980D01*
X150728420Y-84320720D01*
X150579537Y-84254433D01*
X150579533Y-84254432D01*
X150572288Y-84251206D01*
X150452262Y-84225694D01*
X150393246Y-84213149D01*
X150393244Y-84213149D01*
X150385487Y-84211500D01*
X150194513Y-84211500D01*
X150186756Y-84213149D01*
X150186754Y-84213149D01*
X150127738Y-84225694D01*
X150007712Y-84251206D01*
X150000467Y-84254432D01*
X150000463Y-84254433D01*
X149840497Y-84325654D01*
X149840493Y-84325656D01*
X149833248Y-84328882D01*
X149826828Y-84333546D01*
X149826827Y-84333547D01*
X149736326Y-84399300D01*
X149678747Y-84441134D01*
X149677925Y-84440002D01*
X149615744Y-84471690D01*
X149584258Y-84475000D01*
X135791300Y-84475000D01*
X135715600Y-84454716D01*
X135660184Y-84399300D01*
X135639900Y-84323600D01*
X135639900Y-83682620D01*
X135660184Y-83606920D01*
X135684244Y-83575564D01*
X136398272Y-82861536D01*
X136406173Y-82854347D01*
X136413080Y-82849964D01*
X136461312Y-82798602D01*
X136464622Y-82795186D01*
X136484927Y-82774881D01*
X136487843Y-82771122D01*
X136490812Y-82767754D01*
X136496166Y-82761486D01*
X136526972Y-82728681D01*
X136536343Y-82711635D01*
X136549383Y-82691785D01*
X136561304Y-82676416D01*
X136565084Y-82667681D01*
X136565088Y-82667674D01*
X136579177Y-82635115D01*
X136585452Y-82622305D01*
X136607124Y-82582885D01*
X136608193Y-82578722D01*
X155576896Y-82578722D01*
X155578650Y-82581761D01*
X155582071Y-82584212D01*
X155711476Y-82648027D01*
X155720621Y-82651815D01*
X156003536Y-82747851D01*
X156013079Y-82750408D01*
X156306114Y-82808697D01*
X156315925Y-82809988D01*
X156614057Y-82829529D01*
X156623943Y-82829529D01*
X156922075Y-82809988D01*
X156931886Y-82808697D01*
X157224921Y-82750408D01*
X157234464Y-82747851D01*
X157517379Y-82651815D01*
X157526524Y-82648027D01*
X157649184Y-82587538D01*
X157661421Y-82576807D01*
X157660737Y-82573367D01*
X157658284Y-82569944D01*
X156633096Y-81544756D01*
X156619000Y-81536618D01*
X156604904Y-81544756D01*
X155585034Y-82564626D01*
X155576896Y-82578722D01*
X136608193Y-82578722D01*
X136611962Y-82564044D01*
X136619655Y-82541575D01*
X136623598Y-82532464D01*
X136627380Y-82523724D01*
X136634419Y-82479283D01*
X136637311Y-82465319D01*
X136646132Y-82430962D01*
X136646133Y-82430956D01*
X136648500Y-82421736D01*
X136648500Y-82402287D01*
X136650364Y-82378604D01*
X136651916Y-82368803D01*
X136653406Y-82359396D01*
X136649172Y-82314604D01*
X136648500Y-82300356D01*
X136648500Y-80474943D01*
X154259471Y-80474943D01*
X154279012Y-80773075D01*
X154280303Y-80782886D01*
X154338592Y-81075921D01*
X154341149Y-81085464D01*
X154437186Y-81368381D01*
X154440973Y-81377525D01*
X154501462Y-81500183D01*
X154512194Y-81512420D01*
X154515635Y-81511735D01*
X154519057Y-81509283D01*
X155544244Y-80484096D01*
X155552382Y-80470000D01*
X157685618Y-80470000D01*
X157693756Y-80484096D01*
X158713625Y-81503965D01*
X158727721Y-81512103D01*
X158730760Y-81510349D01*
X158733212Y-81506927D01*
X158797027Y-81377525D01*
X158800814Y-81368381D01*
X158896851Y-81085464D01*
X158899408Y-81075921D01*
X158957697Y-80782886D01*
X158958988Y-80773075D01*
X158978529Y-80474943D01*
X158978529Y-80465057D01*
X158958988Y-80166925D01*
X158957697Y-80157114D01*
X158899408Y-79864079D01*
X158896851Y-79854536D01*
X158800814Y-79571619D01*
X158797027Y-79562475D01*
X158736538Y-79439817D01*
X158725806Y-79427580D01*
X158722365Y-79428265D01*
X158718943Y-79430717D01*
X157693756Y-80455904D01*
X157685618Y-80470000D01*
X155552382Y-80470000D01*
X155544244Y-80455904D01*
X154524375Y-79436035D01*
X154510279Y-79427897D01*
X154507240Y-79429651D01*
X154504788Y-79433073D01*
X154440973Y-79562475D01*
X154437186Y-79571619D01*
X154341149Y-79854536D01*
X154338592Y-79864079D01*
X154280303Y-80157114D01*
X154279012Y-80166925D01*
X154259471Y-80465057D01*
X154259471Y-80474943D01*
X136648500Y-80474943D01*
X136648500Y-79284509D01*
X136668784Y-79208809D01*
X136687383Y-79183209D01*
X136729040Y-79136944D01*
X136824527Y-78971556D01*
X136883542Y-78789928D01*
X136903504Y-78600000D01*
X143676496Y-78600000D01*
X143696458Y-78789928D01*
X143755473Y-78971556D01*
X143850960Y-79136944D01*
X143978747Y-79278866D01*
X144133248Y-79391118D01*
X144140493Y-79394344D01*
X144140497Y-79394346D01*
X144300463Y-79465567D01*
X144300467Y-79465568D01*
X144307712Y-79468794D01*
X144427738Y-79494306D01*
X144486754Y-79506851D01*
X144486756Y-79506851D01*
X144494513Y-79508500D01*
X144685487Y-79508500D01*
X144693244Y-79506851D01*
X144693246Y-79506851D01*
X144752262Y-79494306D01*
X144872288Y-79468794D01*
X144879533Y-79465568D01*
X144879537Y-79465567D01*
X145039503Y-79394346D01*
X145039507Y-79394344D01*
X145046752Y-79391118D01*
X145201253Y-79278866D01*
X145329040Y-79136944D01*
X145424527Y-78971556D01*
X145483542Y-78789928D01*
X145503504Y-78600000D01*
X145483542Y-78410072D01*
X145468310Y-78363194D01*
X155576580Y-78363194D01*
X155577265Y-78366635D01*
X155579717Y-78370057D01*
X156604904Y-79395244D01*
X156619000Y-79403382D01*
X156633096Y-79395244D01*
X157652966Y-78375374D01*
X157661104Y-78361278D01*
X157659350Y-78358239D01*
X157655929Y-78355788D01*
X157526524Y-78291973D01*
X157517379Y-78288185D01*
X157234464Y-78192149D01*
X157224921Y-78189592D01*
X156931886Y-78131303D01*
X156922075Y-78130012D01*
X156623943Y-78110471D01*
X156614057Y-78110471D01*
X156315925Y-78130012D01*
X156306114Y-78131303D01*
X156013079Y-78189592D01*
X156003536Y-78192149D01*
X155720619Y-78288186D01*
X155711475Y-78291973D01*
X155588817Y-78352462D01*
X155576580Y-78363194D01*
X145468310Y-78363194D01*
X145424527Y-78228444D01*
X145329040Y-78063056D01*
X145201253Y-77921134D01*
X145046752Y-77808882D01*
X145039507Y-77805656D01*
X145039503Y-77805654D01*
X144879537Y-77734433D01*
X144879533Y-77734432D01*
X144872288Y-77731206D01*
X144737925Y-77702646D01*
X144693246Y-77693149D01*
X144693244Y-77693149D01*
X144685487Y-77691500D01*
X144494513Y-77691500D01*
X144486756Y-77693149D01*
X144486754Y-77693149D01*
X144442075Y-77702646D01*
X144307712Y-77731206D01*
X144300467Y-77734432D01*
X144300463Y-77734433D01*
X144140497Y-77805654D01*
X144140493Y-77805656D01*
X144133248Y-77808882D01*
X143978747Y-77921134D01*
X143850960Y-78063056D01*
X143755473Y-78228444D01*
X143696458Y-78410072D01*
X143676496Y-78600000D01*
X136903504Y-78600000D01*
X136883542Y-78410072D01*
X136824527Y-78228444D01*
X136729040Y-78063056D01*
X136601253Y-77921134D01*
X136446752Y-77808882D01*
X136439507Y-77805656D01*
X136439503Y-77805654D01*
X136279537Y-77734433D01*
X136279533Y-77734432D01*
X136272288Y-77731206D01*
X136137925Y-77702646D01*
X136093246Y-77693149D01*
X136093244Y-77693149D01*
X136085487Y-77691500D01*
X135894513Y-77691500D01*
X135886756Y-77693149D01*
X135886745Y-77693150D01*
X135822778Y-77706747D01*
X135744515Y-77702646D01*
X135678788Y-77659963D01*
X135643209Y-77590134D01*
X135639900Y-77558656D01*
X135639900Y-77236400D01*
X135660184Y-77160700D01*
X135715600Y-77105284D01*
X135791300Y-77085000D01*
X136933395Y-77085000D01*
X137009095Y-77105284D01*
G37*
G04 #@! TD.AperFunction*
G04 #@! TA.AperFunction,Conductor*
G36*
X143260770Y-105485284D02*
G01*
X143316186Y-105540700D01*
X143336470Y-105616400D01*
X143316186Y-105692100D01*
X143307554Y-105705393D01*
X143306276Y-105707152D01*
X143300960Y-105713056D01*
X143205473Y-105878444D01*
X143203021Y-105885992D01*
X143203020Y-105885993D01*
X143194227Y-105913056D01*
X143146458Y-106060072D01*
X143145629Y-106067961D01*
X143145628Y-106067965D01*
X143142669Y-106096118D01*
X143126496Y-106250000D01*
X143127325Y-106257888D01*
X143143281Y-106409696D01*
X143146458Y-106439928D01*
X143205473Y-106621556D01*
X143300960Y-106786944D01*
X143306269Y-106792840D01*
X143306271Y-106792843D01*
X143338316Y-106828432D01*
X143428747Y-106928866D01*
X143435168Y-106933531D01*
X143572353Y-107033202D01*
X143583248Y-107041118D01*
X143590493Y-107044344D01*
X143590497Y-107044346D01*
X143750463Y-107115567D01*
X143750467Y-107115568D01*
X143757712Y-107118794D01*
X143877738Y-107144306D01*
X143936754Y-107156851D01*
X143936756Y-107156851D01*
X143944513Y-107158500D01*
X144135487Y-107158500D01*
X144143244Y-107156851D01*
X144143246Y-107156851D01*
X144202262Y-107144306D01*
X144322288Y-107118794D01*
X144329533Y-107115568D01*
X144329537Y-107115567D01*
X144489503Y-107044346D01*
X144489507Y-107044344D01*
X144496752Y-107041118D01*
X144507648Y-107033202D01*
X144644832Y-106933531D01*
X144651253Y-106928866D01*
X144741684Y-106828432D01*
X144773729Y-106792843D01*
X144773731Y-106792840D01*
X144779040Y-106786944D01*
X144874527Y-106621556D01*
X144933542Y-106439928D01*
X144936720Y-106409696D01*
X144952675Y-106257888D01*
X144953504Y-106250000D01*
X144937331Y-106096118D01*
X144934372Y-106067965D01*
X144934371Y-106067961D01*
X144933542Y-106060072D01*
X144885773Y-105913056D01*
X144876980Y-105885993D01*
X144876979Y-105885992D01*
X144874527Y-105878444D01*
X144779040Y-105713056D01*
X144773724Y-105707152D01*
X144772446Y-105705393D01*
X144744360Y-105632228D01*
X144756618Y-105554823D01*
X144805937Y-105493916D01*
X144879102Y-105465830D01*
X144894930Y-105465000D01*
X149227793Y-105465000D01*
X149303493Y-105485284D01*
X149358909Y-105540700D01*
X149379193Y-105616400D01*
X149378364Y-105632224D01*
X149376496Y-105650000D01*
X149377325Y-105657888D01*
X149389848Y-105777034D01*
X149396458Y-105839928D01*
X149455473Y-106021556D01*
X149550960Y-106186944D01*
X149678747Y-106328866D01*
X149685168Y-106333531D01*
X149790000Y-106409696D01*
X149833248Y-106441118D01*
X149840493Y-106444344D01*
X149840497Y-106444346D01*
X150000463Y-106515567D01*
X150000467Y-106515568D01*
X150007712Y-106518794D01*
X150127738Y-106544306D01*
X150186754Y-106556851D01*
X150186756Y-106556851D01*
X150194513Y-106558500D01*
X150385487Y-106558500D01*
X150393244Y-106556851D01*
X150393246Y-106556851D01*
X150452262Y-106544306D01*
X150572288Y-106518794D01*
X150579533Y-106515568D01*
X150579537Y-106515567D01*
X150728420Y-106449280D01*
X150805826Y-106437020D01*
X150851580Y-106449280D01*
X151000463Y-106515567D01*
X151000467Y-106515568D01*
X151007712Y-106518794D01*
X151127738Y-106544306D01*
X151186754Y-106556851D01*
X151186756Y-106556851D01*
X151194513Y-106558500D01*
X151385487Y-106558500D01*
X151393244Y-106556851D01*
X151393246Y-106556851D01*
X151452262Y-106544306D01*
X151572288Y-106518794D01*
X151579533Y-106515568D01*
X151579537Y-106515567D01*
X151728420Y-106449280D01*
X151805826Y-106437020D01*
X151851580Y-106449280D01*
X152000463Y-106515567D01*
X152000467Y-106515568D01*
X152007712Y-106518794D01*
X152127738Y-106544306D01*
X152186754Y-106556851D01*
X152186756Y-106556851D01*
X152194513Y-106558500D01*
X152385487Y-106558500D01*
X152393244Y-106556851D01*
X152393246Y-106556851D01*
X152452262Y-106544306D01*
X152572288Y-106518794D01*
X152579533Y-106515568D01*
X152579537Y-106515567D01*
X152728420Y-106449280D01*
X152805826Y-106437020D01*
X152851580Y-106449280D01*
X153000463Y-106515567D01*
X153000467Y-106515568D01*
X153007712Y-106518794D01*
X153127738Y-106544306D01*
X153186754Y-106556851D01*
X153186756Y-106556851D01*
X153194513Y-106558500D01*
X153385487Y-106558500D01*
X153393244Y-106556851D01*
X153393246Y-106556851D01*
X153452262Y-106544306D01*
X153572288Y-106518794D01*
X153579533Y-106515568D01*
X153579537Y-106515567D01*
X153728420Y-106449280D01*
X153805826Y-106437020D01*
X153851580Y-106449280D01*
X154000463Y-106515567D01*
X154000467Y-106515568D01*
X154007712Y-106518794D01*
X154127738Y-106544306D01*
X154186754Y-106556851D01*
X154186756Y-106556851D01*
X154194513Y-106558500D01*
X154385487Y-106558500D01*
X154393244Y-106556851D01*
X154393246Y-106556851D01*
X154452262Y-106544306D01*
X154572288Y-106518794D01*
X154579533Y-106515568D01*
X154579537Y-106515567D01*
X154728420Y-106449280D01*
X154805826Y-106437020D01*
X154851580Y-106449280D01*
X155000463Y-106515567D01*
X155000467Y-106515568D01*
X155007712Y-106518794D01*
X155127738Y-106544306D01*
X155186754Y-106556851D01*
X155186756Y-106556851D01*
X155194513Y-106558500D01*
X155385487Y-106558500D01*
X155393244Y-106556851D01*
X155393246Y-106556851D01*
X155452262Y-106544306D01*
X155572288Y-106518794D01*
X155579533Y-106515568D01*
X155579537Y-106515567D01*
X155728420Y-106449280D01*
X155805826Y-106437020D01*
X155851580Y-106449280D01*
X156000463Y-106515567D01*
X156000467Y-106515568D01*
X156007712Y-106518794D01*
X156127738Y-106544306D01*
X156186754Y-106556851D01*
X156186756Y-106556851D01*
X156194513Y-106558500D01*
X156385487Y-106558500D01*
X156393244Y-106556851D01*
X156393246Y-106556851D01*
X156452262Y-106544306D01*
X156572288Y-106518794D01*
X156579533Y-106515568D01*
X156579537Y-106515567D01*
X156728420Y-106449280D01*
X156805826Y-106437020D01*
X156851580Y-106449280D01*
X157000463Y-106515567D01*
X157000467Y-106515568D01*
X157007712Y-106518794D01*
X157127738Y-106544306D01*
X157186754Y-106556851D01*
X157186756Y-106556851D01*
X157194513Y-106558500D01*
X157385487Y-106558500D01*
X157393244Y-106556851D01*
X157393246Y-106556851D01*
X157452262Y-106544306D01*
X157572288Y-106518794D01*
X157579533Y-106515568D01*
X157579537Y-106515567D01*
X157728420Y-106449280D01*
X157805826Y-106437020D01*
X157851580Y-106449280D01*
X158000463Y-106515567D01*
X158000467Y-106515568D01*
X158007712Y-106518794D01*
X158127738Y-106544306D01*
X158186754Y-106556851D01*
X158186756Y-106556851D01*
X158194513Y-106558500D01*
X158385487Y-106558500D01*
X158393244Y-106556851D01*
X158393246Y-106556851D01*
X158452262Y-106544306D01*
X158572288Y-106518794D01*
X158579533Y-106515568D01*
X158579537Y-106515567D01*
X158739503Y-106444346D01*
X158739507Y-106444344D01*
X158746752Y-106441118D01*
X158790001Y-106409696D01*
X158894832Y-106333531D01*
X158901253Y-106328866D01*
X159029040Y-106186944D01*
X159049484Y-106151534D01*
X159104900Y-106096118D01*
X159180600Y-106075834D01*
X159256300Y-106096118D01*
X159311716Y-106151534D01*
X159332000Y-106227234D01*
X159332000Y-112422766D01*
X159311716Y-112498466D01*
X159256300Y-112553882D01*
X159180600Y-112574166D01*
X159104900Y-112553882D01*
X159049484Y-112498466D01*
X159033009Y-112469930D01*
X159033008Y-112469928D01*
X159029040Y-112463056D01*
X158901253Y-112321134D01*
X158804710Y-112250991D01*
X158753173Y-112213547D01*
X158753172Y-112213546D01*
X158746752Y-112208882D01*
X158739507Y-112205656D01*
X158739503Y-112205654D01*
X158579537Y-112134433D01*
X158579533Y-112134432D01*
X158572288Y-112131206D01*
X158452262Y-112105694D01*
X158393246Y-112093149D01*
X158393244Y-112093149D01*
X158385487Y-112091500D01*
X158194513Y-112091500D01*
X158186756Y-112093149D01*
X158186754Y-112093149D01*
X158127738Y-112105694D01*
X158007712Y-112131206D01*
X158000467Y-112134432D01*
X158000463Y-112134433D01*
X157851580Y-112200720D01*
X157774174Y-112212980D01*
X157728420Y-112200720D01*
X157579537Y-112134433D01*
X157579533Y-112134432D01*
X157572288Y-112131206D01*
X157452262Y-112105694D01*
X157393246Y-112093149D01*
X157393244Y-112093149D01*
X157385487Y-112091500D01*
X157194513Y-112091500D01*
X157186756Y-112093149D01*
X157186754Y-112093149D01*
X157127738Y-112105694D01*
X157007712Y-112131206D01*
X157000467Y-112134432D01*
X157000463Y-112134433D01*
X156851580Y-112200720D01*
X156774174Y-112212980D01*
X156728420Y-112200720D01*
X156579537Y-112134433D01*
X156579533Y-112134432D01*
X156572288Y-112131206D01*
X156452262Y-112105694D01*
X156393246Y-112093149D01*
X156393244Y-112093149D01*
X156385487Y-112091500D01*
X156194513Y-112091500D01*
X156186756Y-112093149D01*
X156186754Y-112093149D01*
X156127738Y-112105694D01*
X156007712Y-112131206D01*
X156000467Y-112134432D01*
X156000463Y-112134433D01*
X155840497Y-112205654D01*
X155840493Y-112205656D01*
X155833248Y-112208882D01*
X155826828Y-112213546D01*
X155826827Y-112213547D01*
X155775290Y-112250991D01*
X155678747Y-112321134D01*
X155550960Y-112463056D01*
X155455473Y-112628444D01*
X155396458Y-112810072D01*
X155386860Y-112901393D01*
X155381128Y-112955926D01*
X155353042Y-113029091D01*
X155292137Y-113078411D01*
X155230557Y-113091500D01*
X155194513Y-113091500D01*
X155186756Y-113093149D01*
X155186754Y-113093149D01*
X155127738Y-113105694D01*
X155007712Y-113131206D01*
X155000467Y-113134432D01*
X155000463Y-113134433D01*
X154851580Y-113200720D01*
X154774174Y-113212980D01*
X154728420Y-113200720D01*
X154579537Y-113134433D01*
X154579533Y-113134432D01*
X154572288Y-113131206D01*
X154452262Y-113105694D01*
X154393246Y-113093149D01*
X154393244Y-113093149D01*
X154385487Y-113091500D01*
X154194513Y-113091500D01*
X154186756Y-113093149D01*
X154186754Y-113093149D01*
X154127738Y-113105694D01*
X154007712Y-113131206D01*
X154000467Y-113134432D01*
X154000463Y-113134433D01*
X153851580Y-113200720D01*
X153774174Y-113212980D01*
X153728420Y-113200720D01*
X153579537Y-113134433D01*
X153579533Y-113134432D01*
X153572288Y-113131206D01*
X153452262Y-113105694D01*
X153393246Y-113093149D01*
X153393244Y-113093149D01*
X153385487Y-113091500D01*
X153382071Y-113091500D01*
X153310610Y-113064070D01*
X153261288Y-113003166D01*
X153249027Y-112957408D01*
X153248872Y-112955926D01*
X153234372Y-112817964D01*
X153234371Y-112817961D01*
X153233542Y-112810072D01*
X153174527Y-112628444D01*
X153079040Y-112463056D01*
X152951253Y-112321134D01*
X152854710Y-112250991D01*
X152803173Y-112213547D01*
X152803172Y-112213546D01*
X152796752Y-112208882D01*
X152789507Y-112205656D01*
X152789503Y-112205654D01*
X152629537Y-112134433D01*
X152629533Y-112134432D01*
X152622288Y-112131206D01*
X152502262Y-112105694D01*
X152443246Y-112093149D01*
X152443244Y-112093149D01*
X152435487Y-112091500D01*
X152244513Y-112091500D01*
X152236756Y-112093149D01*
X152236754Y-112093149D01*
X152177738Y-112105694D01*
X152057712Y-112131206D01*
X152050467Y-112134432D01*
X152050463Y-112134433D01*
X151901580Y-112200720D01*
X151824174Y-112212980D01*
X151778420Y-112200720D01*
X151629537Y-112134433D01*
X151629533Y-112134432D01*
X151622288Y-112131206D01*
X151502262Y-112105694D01*
X151443246Y-112093149D01*
X151443244Y-112093149D01*
X151435487Y-112091500D01*
X151244513Y-112091500D01*
X151236756Y-112093149D01*
X151236754Y-112093149D01*
X151177738Y-112105694D01*
X151057712Y-112131206D01*
X151050467Y-112134432D01*
X151050463Y-112134433D01*
X150901580Y-112200720D01*
X150824174Y-112212980D01*
X150778420Y-112200720D01*
X150629537Y-112134433D01*
X150629533Y-112134432D01*
X150622288Y-112131206D01*
X150502262Y-112105694D01*
X150443246Y-112093149D01*
X150443244Y-112093149D01*
X150435487Y-112091500D01*
X150244513Y-112091500D01*
X150236756Y-112093149D01*
X150236754Y-112093149D01*
X150177738Y-112105694D01*
X150057712Y-112131206D01*
X150050467Y-112134432D01*
X150050463Y-112134433D01*
X149890497Y-112205654D01*
X149890493Y-112205656D01*
X149883248Y-112208882D01*
X149876828Y-112213546D01*
X149876827Y-112213547D01*
X149825290Y-112250991D01*
X149728747Y-112321134D01*
X149600960Y-112463056D01*
X149505473Y-112628444D01*
X149446458Y-112810072D01*
X149445629Y-112817961D01*
X149445628Y-112817965D01*
X149427325Y-112992112D01*
X149426496Y-113000000D01*
X149427325Y-113007888D01*
X149436182Y-113092154D01*
X149446458Y-113189928D01*
X149505473Y-113371556D01*
X149510926Y-113381000D01*
X149511438Y-113382913D01*
X149512667Y-113385673D01*
X149512230Y-113385868D01*
X149531209Y-113456698D01*
X149510925Y-113532398D01*
X149455473Y-113628444D01*
X149453021Y-113635992D01*
X149453020Y-113635993D01*
X149415851Y-113750386D01*
X149373167Y-113816113D01*
X149303338Y-113851692D01*
X149271861Y-113855000D01*
X144007912Y-113855000D01*
X143946332Y-113841911D01*
X143929537Y-113834433D01*
X143929533Y-113834432D01*
X143922288Y-113831206D01*
X143802262Y-113805694D01*
X143743246Y-113793149D01*
X143743244Y-113793149D01*
X143735487Y-113791500D01*
X143544513Y-113791500D01*
X143536756Y-113793149D01*
X143536754Y-113793149D01*
X143477738Y-113805694D01*
X143357712Y-113831206D01*
X143350467Y-113834432D01*
X143350463Y-113834433D01*
X143333668Y-113841911D01*
X143272088Y-113855000D01*
X135791300Y-113855000D01*
X135715600Y-113834716D01*
X135660184Y-113779300D01*
X135639900Y-113703600D01*
X135639900Y-112408214D01*
X135660184Y-112332514D01*
X135710746Y-112282997D01*
X135709756Y-112281635D01*
X135746156Y-112255189D01*
X135758077Y-112247358D01*
X135796807Y-112224453D01*
X135810560Y-112210700D01*
X135828625Y-112195271D01*
X135836653Y-112189438D01*
X135844357Y-112183841D01*
X135850427Y-112176504D01*
X135850431Y-112176500D01*
X135873038Y-112149173D01*
X135882637Y-112138623D01*
X136048262Y-111972998D01*
X136056170Y-111965802D01*
X136063080Y-111961416D01*
X136111327Y-111910038D01*
X136114637Y-111906622D01*
X136134926Y-111886333D01*
X136137847Y-111882568D01*
X136140865Y-111879144D01*
X136146156Y-111872949D01*
X136176972Y-111840133D01*
X136181560Y-111831788D01*
X136181564Y-111831782D01*
X136186338Y-111823097D01*
X136199383Y-111803237D01*
X136205464Y-111795398D01*
X136205465Y-111795397D01*
X136211304Y-111787869D01*
X136229179Y-111746563D01*
X136235447Y-111733767D01*
X136252536Y-111702683D01*
X136252537Y-111702681D01*
X136257124Y-111694337D01*
X136261960Y-111675503D01*
X136269657Y-111653021D01*
X136273595Y-111643921D01*
X136277379Y-111635177D01*
X136284417Y-111590739D01*
X136287310Y-111576771D01*
X136296130Y-111542418D01*
X136298500Y-111533188D01*
X136298500Y-111513739D01*
X136300364Y-111490054D01*
X136303406Y-111470849D01*
X136302260Y-111458722D01*
X155576896Y-111458722D01*
X155578650Y-111461761D01*
X155582071Y-111464212D01*
X155711476Y-111528027D01*
X155720621Y-111531815D01*
X156003536Y-111627851D01*
X156013079Y-111630408D01*
X156306114Y-111688697D01*
X156315925Y-111689988D01*
X156614057Y-111709529D01*
X156623943Y-111709529D01*
X156922075Y-111689988D01*
X156931886Y-111688697D01*
X157224921Y-111630408D01*
X157234464Y-111627851D01*
X157517379Y-111531815D01*
X157526524Y-111528027D01*
X157649184Y-111467538D01*
X157661421Y-111456807D01*
X157660737Y-111453367D01*
X157658284Y-111449944D01*
X156633096Y-110424756D01*
X156619000Y-110416618D01*
X156604904Y-110424756D01*
X155585034Y-111444626D01*
X155576896Y-111458722D01*
X136302260Y-111458722D01*
X136301754Y-111453367D01*
X136299172Y-111426060D01*
X136298500Y-111411811D01*
X136298500Y-109354943D01*
X154259471Y-109354943D01*
X154279012Y-109653075D01*
X154280303Y-109662886D01*
X154338592Y-109955921D01*
X154341149Y-109965464D01*
X154437186Y-110248381D01*
X154440973Y-110257525D01*
X154501462Y-110380183D01*
X154512194Y-110392420D01*
X154515635Y-110391735D01*
X154519057Y-110389283D01*
X155544244Y-109364096D01*
X155552382Y-109350000D01*
X157685618Y-109350000D01*
X157693756Y-109364096D01*
X158713625Y-110383965D01*
X158727721Y-110392103D01*
X158730760Y-110390349D01*
X158733212Y-110386927D01*
X158797027Y-110257525D01*
X158800814Y-110248381D01*
X158896851Y-109965464D01*
X158899408Y-109955921D01*
X158957697Y-109662886D01*
X158958988Y-109653075D01*
X158978529Y-109354943D01*
X158978529Y-109345057D01*
X158958988Y-109046925D01*
X158957697Y-109037114D01*
X158899408Y-108744079D01*
X158896851Y-108734536D01*
X158800814Y-108451619D01*
X158797027Y-108442475D01*
X158736538Y-108319817D01*
X158725806Y-108307580D01*
X158722365Y-108308265D01*
X158718943Y-108310717D01*
X157693756Y-109335904D01*
X157685618Y-109350000D01*
X155552382Y-109350000D01*
X155544244Y-109335904D01*
X154524375Y-108316035D01*
X154510279Y-108307897D01*
X154507240Y-108309651D01*
X154504788Y-108313073D01*
X154440973Y-108442475D01*
X154437186Y-108451619D01*
X154341149Y-108734536D01*
X154338592Y-108744079D01*
X154280303Y-109037114D01*
X154279012Y-109046925D01*
X154259471Y-109345057D01*
X154259471Y-109354943D01*
X136298500Y-109354943D01*
X136298500Y-107243194D01*
X155576580Y-107243194D01*
X155577265Y-107246635D01*
X155579717Y-107250057D01*
X156604904Y-108275244D01*
X156619000Y-108283382D01*
X156633096Y-108275244D01*
X157652966Y-107255374D01*
X157661104Y-107241278D01*
X157659350Y-107238239D01*
X157655929Y-107235788D01*
X157526524Y-107171973D01*
X157517379Y-107168185D01*
X157234464Y-107072149D01*
X157224921Y-107069592D01*
X156931886Y-107011303D01*
X156922075Y-107010012D01*
X156623943Y-106990471D01*
X156614057Y-106990471D01*
X156315925Y-107010012D01*
X156306114Y-107011303D01*
X156013079Y-107069592D01*
X156003536Y-107072149D01*
X155720619Y-107168186D01*
X155711475Y-107171973D01*
X155588817Y-107232462D01*
X155576580Y-107243194D01*
X136298500Y-107243194D01*
X136298500Y-107134509D01*
X136318784Y-107058809D01*
X136337383Y-107033209D01*
X136379040Y-106986944D01*
X136412572Y-106928866D01*
X136470557Y-106828432D01*
X136474527Y-106821556D01*
X136483857Y-106792843D01*
X136531089Y-106647476D01*
X136533542Y-106639928D01*
X136534751Y-106628432D01*
X136552675Y-106457888D01*
X136553504Y-106450000D01*
X136552675Y-106442112D01*
X136534372Y-106267965D01*
X136534371Y-106267961D01*
X136533542Y-106260072D01*
X136474527Y-106078444D01*
X136379040Y-105913056D01*
X136354673Y-105885993D01*
X136256565Y-105777034D01*
X136251253Y-105771134D01*
X136206866Y-105738885D01*
X136157546Y-105677980D01*
X136145286Y-105600574D01*
X136173372Y-105527409D01*
X136234277Y-105478089D01*
X136295857Y-105465000D01*
X143185070Y-105465000D01*
X143260770Y-105485284D01*
G37*
G04 #@! TD.AperFunction*
G04 #@! TA.AperFunction,Conductor*
G36*
X137551295Y-85080284D02*
G01*
X137606711Y-85135700D01*
X137626995Y-85211400D01*
X137606711Y-85287100D01*
X137579730Y-85320420D01*
X137578747Y-85321134D01*
X137450960Y-85463056D01*
X137446992Y-85469928D01*
X137446991Y-85469930D01*
X137409807Y-85534335D01*
X137355473Y-85628444D01*
X137296458Y-85810072D01*
X137295629Y-85817961D01*
X137295628Y-85817965D01*
X137283016Y-85937965D01*
X137276496Y-86000000D01*
X137277325Y-86007888D01*
X137293741Y-86164074D01*
X137296458Y-86189928D01*
X137355473Y-86371556D01*
X137359443Y-86378432D01*
X137439139Y-86516469D01*
X137450960Y-86536944D01*
X137578747Y-86678866D01*
X137733248Y-86791118D01*
X137740493Y-86794344D01*
X137740497Y-86794346D01*
X137900463Y-86865567D01*
X137900467Y-86865568D01*
X137907712Y-86868794D01*
X138027738Y-86894306D01*
X138086754Y-86906851D01*
X138086756Y-86906851D01*
X138094513Y-86908500D01*
X138285487Y-86908500D01*
X138293244Y-86906851D01*
X138293246Y-86906851D01*
X138352262Y-86894306D01*
X138472288Y-86868794D01*
X138479533Y-86865568D01*
X138479537Y-86865567D01*
X138639503Y-86794346D01*
X138639507Y-86794344D01*
X138646752Y-86791118D01*
X138801253Y-86678866D01*
X138929040Y-86536944D01*
X138940862Y-86516469D01*
X139020557Y-86378432D01*
X139024527Y-86371556D01*
X139083542Y-86189928D01*
X139086260Y-86164074D01*
X139102675Y-86007888D01*
X139103504Y-86000000D01*
X139096984Y-85937965D01*
X139084372Y-85817965D01*
X139084371Y-85817961D01*
X139083542Y-85810072D01*
X139024527Y-85628444D01*
X138970193Y-85534335D01*
X138933009Y-85469930D01*
X138933008Y-85469928D01*
X138929040Y-85463056D01*
X138801253Y-85321134D01*
X138801279Y-85321111D01*
X138760414Y-85258183D01*
X138756314Y-85179920D01*
X138791894Y-85110092D01*
X138857622Y-85067409D01*
X138904405Y-85060000D01*
X149233868Y-85060000D01*
X149309568Y-85080284D01*
X149364984Y-85135700D01*
X149384439Y-85195574D01*
X149396458Y-85309928D01*
X149455473Y-85491556D01*
X149480172Y-85534335D01*
X149485925Y-85544300D01*
X149506209Y-85619999D01*
X149485925Y-85695699D01*
X149455473Y-85748444D01*
X149396458Y-85930072D01*
X149395629Y-85937961D01*
X149395628Y-85937965D01*
X149379491Y-86091500D01*
X149376496Y-86120000D01*
X149377325Y-86127888D01*
X149395628Y-86302035D01*
X149395629Y-86302039D01*
X149396458Y-86309928D01*
X149455473Y-86491556D01*
X149459443Y-86498432D01*
X149530536Y-86621568D01*
X149550960Y-86656944D01*
X149556269Y-86662840D01*
X149556271Y-86662843D01*
X149574899Y-86683531D01*
X149678747Y-86798866D01*
X149729848Y-86835993D01*
X149790000Y-86879696D01*
X149833248Y-86911118D01*
X149840493Y-86914344D01*
X149840497Y-86914346D01*
X150000463Y-86985567D01*
X150000467Y-86985568D01*
X150007712Y-86988794D01*
X150097542Y-87007888D01*
X150186754Y-87026851D01*
X150186756Y-87026851D01*
X150194513Y-87028500D01*
X150385487Y-87028500D01*
X150393244Y-87026851D01*
X150393246Y-87026851D01*
X150482458Y-87007888D01*
X150572288Y-86988794D01*
X150579533Y-86985568D01*
X150579537Y-86985567D01*
X150728420Y-86919280D01*
X150805826Y-86907020D01*
X150851580Y-86919280D01*
X151000463Y-86985567D01*
X151000467Y-86985568D01*
X151007712Y-86988794D01*
X151097542Y-87007888D01*
X151186754Y-87026851D01*
X151186756Y-87026851D01*
X151194513Y-87028500D01*
X151385487Y-87028500D01*
X151393244Y-87026851D01*
X151393246Y-87026851D01*
X151482458Y-87007888D01*
X151572288Y-86988794D01*
X151579533Y-86985568D01*
X151579537Y-86985567D01*
X151728420Y-86919280D01*
X151805826Y-86907020D01*
X151851580Y-86919280D01*
X152000463Y-86985567D01*
X152000467Y-86985568D01*
X152007712Y-86988794D01*
X152097542Y-87007888D01*
X152186754Y-87026851D01*
X152186756Y-87026851D01*
X152194513Y-87028500D01*
X152385487Y-87028500D01*
X152393244Y-87026851D01*
X152393246Y-87026851D01*
X152482458Y-87007888D01*
X152572288Y-86988794D01*
X152579533Y-86985568D01*
X152579537Y-86985567D01*
X152728420Y-86919280D01*
X152805826Y-86907020D01*
X152851580Y-86919280D01*
X153000463Y-86985567D01*
X153000467Y-86985568D01*
X153007712Y-86988794D01*
X153097542Y-87007888D01*
X153186754Y-87026851D01*
X153186756Y-87026851D01*
X153194513Y-87028500D01*
X153385487Y-87028500D01*
X153393244Y-87026851D01*
X153393246Y-87026851D01*
X153482458Y-87007888D01*
X153572288Y-86988794D01*
X153579533Y-86985568D01*
X153579537Y-86985567D01*
X153728420Y-86919280D01*
X153805826Y-86907020D01*
X153851580Y-86919280D01*
X154000463Y-86985567D01*
X154000467Y-86985568D01*
X154007712Y-86988794D01*
X154097542Y-87007888D01*
X154186754Y-87026851D01*
X154186756Y-87026851D01*
X154194513Y-87028500D01*
X154385487Y-87028500D01*
X154393244Y-87026851D01*
X154393246Y-87026851D01*
X154482458Y-87007888D01*
X154572288Y-86988794D01*
X154579533Y-86985568D01*
X154579537Y-86985567D01*
X154728420Y-86919280D01*
X154805826Y-86907020D01*
X154851580Y-86919280D01*
X155000463Y-86985567D01*
X155000467Y-86985568D01*
X155007712Y-86988794D01*
X155097542Y-87007888D01*
X155186754Y-87026851D01*
X155186756Y-87026851D01*
X155194513Y-87028500D01*
X155385487Y-87028500D01*
X155393244Y-87026851D01*
X155393246Y-87026851D01*
X155482458Y-87007888D01*
X155572288Y-86988794D01*
X155579533Y-86985568D01*
X155579537Y-86985567D01*
X155728420Y-86919280D01*
X155805826Y-86907020D01*
X155851580Y-86919280D01*
X156000463Y-86985567D01*
X156000467Y-86985568D01*
X156007712Y-86988794D01*
X156097542Y-87007888D01*
X156186754Y-87026851D01*
X156186756Y-87026851D01*
X156194513Y-87028500D01*
X156385487Y-87028500D01*
X156393244Y-87026851D01*
X156393246Y-87026851D01*
X156482458Y-87007888D01*
X156572288Y-86988794D01*
X156579533Y-86985568D01*
X156579537Y-86985567D01*
X156739503Y-86914346D01*
X156739507Y-86914344D01*
X156746752Y-86911118D01*
X156790001Y-86879696D01*
X156850152Y-86835993D01*
X156901253Y-86798866D01*
X157005101Y-86683531D01*
X157023729Y-86662843D01*
X157023731Y-86662840D01*
X157029040Y-86656944D01*
X157049465Y-86621568D01*
X157120557Y-86498432D01*
X157124527Y-86491556D01*
X157183542Y-86309928D01*
X157195361Y-86197476D01*
X157198872Y-86164074D01*
X157226958Y-86090909D01*
X157287863Y-86041589D01*
X157349443Y-86028500D01*
X157385487Y-86028500D01*
X157393244Y-86026851D01*
X157393246Y-86026851D01*
X157482458Y-86007888D01*
X157572288Y-85988794D01*
X157579533Y-85985568D01*
X157579537Y-85985567D01*
X157728420Y-85919280D01*
X157805826Y-85907020D01*
X157851580Y-85919280D01*
X158000463Y-85985567D01*
X158000467Y-85985568D01*
X158007712Y-85988794D01*
X158097542Y-86007888D01*
X158186754Y-86026851D01*
X158186756Y-86026851D01*
X158194513Y-86028500D01*
X158385487Y-86028500D01*
X158393244Y-86026851D01*
X158393246Y-86026851D01*
X158482458Y-86007888D01*
X158572288Y-85988794D01*
X158579533Y-85985568D01*
X158579537Y-85985567D01*
X158739503Y-85914346D01*
X158739507Y-85914344D01*
X158746752Y-85911118D01*
X158790001Y-85879696D01*
X158824002Y-85854992D01*
X158901253Y-85798866D01*
X159029040Y-85656944D01*
X159049484Y-85621534D01*
X159104900Y-85566118D01*
X159180600Y-85545834D01*
X159256300Y-85566118D01*
X159311716Y-85621534D01*
X159332000Y-85697234D01*
X159332000Y-93494056D01*
X159311716Y-93569756D01*
X159256300Y-93625172D01*
X159180600Y-93645456D01*
X159104900Y-93625172D01*
X159068088Y-93595362D01*
X159045032Y-93569756D01*
X159001253Y-93521134D01*
X158872252Y-93427409D01*
X158853173Y-93413547D01*
X158853172Y-93413546D01*
X158846752Y-93408882D01*
X158839507Y-93405656D01*
X158839503Y-93405654D01*
X158679537Y-93334433D01*
X158679533Y-93334432D01*
X158672288Y-93331206D01*
X158540206Y-93303131D01*
X158493246Y-93293149D01*
X158493244Y-93293149D01*
X158485487Y-93291500D01*
X158294513Y-93291500D01*
X158286756Y-93293149D01*
X158286754Y-93293149D01*
X158239794Y-93303131D01*
X158107712Y-93331206D01*
X158100467Y-93334432D01*
X158100463Y-93334433D01*
X157940497Y-93405654D01*
X157940493Y-93405656D01*
X157933248Y-93408882D01*
X157926828Y-93413546D01*
X157926827Y-93413547D01*
X157907748Y-93427409D01*
X157778747Y-93521134D01*
X157734968Y-93569756D01*
X157663538Y-93649087D01*
X157650960Y-93663056D01*
X157555473Y-93828444D01*
X157496458Y-94010072D01*
X157495629Y-94017961D01*
X157495628Y-94017965D01*
X157477325Y-94192112D01*
X157476496Y-94200000D01*
X157477325Y-94207888D01*
X157493634Y-94363056D01*
X157496458Y-94389928D01*
X157498910Y-94397475D01*
X157498911Y-94397479D01*
X157549058Y-94551815D01*
X157553160Y-94630078D01*
X157517580Y-94699906D01*
X157451853Y-94742590D01*
X157405068Y-94750000D01*
X152306514Y-94750000D01*
X152230814Y-94729716D01*
X152175398Y-94674300D01*
X152162524Y-94645385D01*
X152126981Y-94535996D01*
X152126980Y-94535994D01*
X152124527Y-94528444D01*
X152098062Y-94482604D01*
X152068440Y-94431298D01*
X152048156Y-94355598D01*
X152068440Y-94279898D01*
X152123856Y-94224482D01*
X152137976Y-94217287D01*
X152189502Y-94194346D01*
X152189503Y-94194346D01*
X152196752Y-94191118D01*
X152351253Y-94078866D01*
X152479040Y-93936944D01*
X152574527Y-93771556D01*
X152633542Y-93589928D01*
X152635663Y-93569756D01*
X152652675Y-93407888D01*
X152653504Y-93400000D01*
X152651589Y-93381782D01*
X152634372Y-93217965D01*
X152634371Y-93217961D01*
X152633542Y-93210072D01*
X152574527Y-93028444D01*
X152479040Y-92863056D01*
X152351253Y-92721134D01*
X152196752Y-92608882D01*
X152189507Y-92605656D01*
X152189503Y-92605654D01*
X152029537Y-92534433D01*
X152029533Y-92534432D01*
X152022288Y-92531206D01*
X151902262Y-92505694D01*
X151843246Y-92493149D01*
X151843244Y-92493149D01*
X151835487Y-92491500D01*
X151644513Y-92491500D01*
X151636756Y-92493149D01*
X151636754Y-92493149D01*
X151577738Y-92505694D01*
X151457712Y-92531206D01*
X151450467Y-92534432D01*
X151450463Y-92534433D01*
X151290497Y-92605654D01*
X151290493Y-92605656D01*
X151283248Y-92608882D01*
X151128747Y-92721134D01*
X151000960Y-92863056D01*
X150905473Y-93028444D01*
X150846458Y-93210072D01*
X150845629Y-93217961D01*
X150845628Y-93217965D01*
X150828411Y-93381782D01*
X150826496Y-93400000D01*
X150827325Y-93407888D01*
X150835187Y-93482691D01*
X150822927Y-93560096D01*
X150773606Y-93621001D01*
X150700441Y-93649087D01*
X150623036Y-93636827D01*
X150572104Y-93599822D01*
X150545032Y-93569756D01*
X150501253Y-93521134D01*
X150372252Y-93427409D01*
X150353173Y-93413547D01*
X150353172Y-93413546D01*
X150346752Y-93408882D01*
X150339507Y-93405656D01*
X150339503Y-93405654D01*
X150179537Y-93334433D01*
X150179533Y-93334432D01*
X150172288Y-93331206D01*
X150040206Y-93303131D01*
X149993246Y-93293149D01*
X149993244Y-93293149D01*
X149985487Y-93291500D01*
X149794513Y-93291500D01*
X149786756Y-93293149D01*
X149786754Y-93293149D01*
X149739794Y-93303131D01*
X149607712Y-93331206D01*
X149600467Y-93334432D01*
X149600463Y-93334433D01*
X149440497Y-93405654D01*
X149440493Y-93405656D01*
X149433248Y-93408882D01*
X149426828Y-93413546D01*
X149426827Y-93413547D01*
X149407748Y-93427409D01*
X149278747Y-93521134D01*
X149234968Y-93569756D01*
X149163538Y-93649087D01*
X149150960Y-93663056D01*
X149146992Y-93669928D01*
X149146991Y-93669930D01*
X149081163Y-93783947D01*
X149025747Y-93839364D01*
X148950046Y-93859647D01*
X148874347Y-93839363D01*
X148842991Y-93815303D01*
X148469905Y-93442217D01*
X148462716Y-93434316D01*
X148458333Y-93427409D01*
X148443572Y-93413547D01*
X148406971Y-93379177D01*
X148403555Y-93375867D01*
X148383250Y-93355562D01*
X148379491Y-93352646D01*
X148376123Y-93349677D01*
X148369855Y-93344323D01*
X148337050Y-93313517D01*
X148320004Y-93304146D01*
X148300154Y-93291106D01*
X148284785Y-93279185D01*
X148276050Y-93275405D01*
X148276043Y-93275401D01*
X148243484Y-93261312D01*
X148230674Y-93255037D01*
X148211211Y-93244337D01*
X148191254Y-93233365D01*
X148172413Y-93228527D01*
X148149948Y-93220835D01*
X148132093Y-93213109D01*
X148122687Y-93211619D01*
X148122686Y-93211619D01*
X148087652Y-93206070D01*
X148073688Y-93203178D01*
X148039331Y-93194357D01*
X148039325Y-93194356D01*
X148030105Y-93191989D01*
X148010656Y-93191989D01*
X147986973Y-93190125D01*
X147981001Y-93189179D01*
X147967765Y-93187083D01*
X147958286Y-93187979D01*
X147958284Y-93187979D01*
X147922973Y-93191317D01*
X147908725Y-93191989D01*
X139420643Y-93191989D01*
X139409959Y-93191485D01*
X139401974Y-93189700D01*
X139392457Y-93189999D01*
X139392455Y-93189999D01*
X139331537Y-93191914D01*
X139326780Y-93191989D01*
X139298079Y-93191989D01*
X139293359Y-93192585D01*
X139288816Y-93192871D01*
X139280656Y-93193513D01*
X139269471Y-93193865D01*
X139235680Y-93194927D01*
X139217007Y-93200352D01*
X139193751Y-93205168D01*
X139174447Y-93207607D01*
X139165592Y-93211113D01*
X139165588Y-93211114D01*
X139132610Y-93224171D01*
X139119115Y-93228791D01*
X139085065Y-93238684D01*
X139085061Y-93238686D01*
X139075911Y-93241344D01*
X139059174Y-93251242D01*
X139037836Y-93261695D01*
X139019755Y-93268854D01*
X139012049Y-93274453D01*
X138983355Y-93295300D01*
X138971434Y-93303131D01*
X138932704Y-93326036D01*
X138918951Y-93339789D01*
X138900887Y-93355218D01*
X138885154Y-93366648D01*
X138879085Y-93373984D01*
X138879084Y-93373985D01*
X138856475Y-93401315D01*
X138846875Y-93411865D01*
X137761584Y-94497156D01*
X137693713Y-94536341D01*
X137654528Y-94541500D01*
X136145272Y-94541500D01*
X136069572Y-94521216D01*
X136014156Y-94465800D01*
X135993872Y-94390100D01*
X136014156Y-94314400D01*
X136038216Y-94283044D01*
X136798263Y-93522996D01*
X136806169Y-93515801D01*
X136813080Y-93511416D01*
X136840055Y-93482691D01*
X136861327Y-93460038D01*
X136864637Y-93456622D01*
X136884926Y-93436333D01*
X136887847Y-93432568D01*
X136890865Y-93429144D01*
X136896156Y-93422949D01*
X136926972Y-93390133D01*
X136931560Y-93381788D01*
X136931564Y-93381782D01*
X136936338Y-93373097D01*
X136949383Y-93353237D01*
X136955464Y-93345398D01*
X136955465Y-93345397D01*
X136961304Y-93337869D01*
X136979179Y-93296563D01*
X136985447Y-93283767D01*
X137002536Y-93252683D01*
X137002537Y-93252681D01*
X137007124Y-93244337D01*
X137010549Y-93230997D01*
X137011960Y-93225503D01*
X137019657Y-93203021D01*
X137020813Y-93200351D01*
X137027379Y-93185177D01*
X137034417Y-93140739D01*
X137037310Y-93126771D01*
X137046130Y-93092418D01*
X137048500Y-93083188D01*
X137048500Y-93063739D01*
X137050364Y-93040054D01*
X137051007Y-93035993D01*
X137053406Y-93020849D01*
X137049172Y-92976057D01*
X137048500Y-92961809D01*
X137048500Y-92028722D01*
X155576896Y-92028722D01*
X155578650Y-92031761D01*
X155582071Y-92034212D01*
X155711476Y-92098027D01*
X155720621Y-92101815D01*
X156003536Y-92197851D01*
X156013079Y-92200408D01*
X156306114Y-92258697D01*
X156315925Y-92259988D01*
X156614057Y-92279529D01*
X156623943Y-92279529D01*
X156922075Y-92259988D01*
X156931886Y-92258697D01*
X157224921Y-92200408D01*
X157234464Y-92197851D01*
X157517379Y-92101815D01*
X157526524Y-92098027D01*
X157649184Y-92037538D01*
X157661421Y-92026807D01*
X157660737Y-92023367D01*
X157658284Y-92019944D01*
X156633096Y-90994756D01*
X156619000Y-90986618D01*
X156604904Y-90994756D01*
X155585034Y-92014626D01*
X155576896Y-92028722D01*
X137048500Y-92028722D01*
X137048500Y-89924943D01*
X154259471Y-89924943D01*
X154279012Y-90223075D01*
X154280303Y-90232886D01*
X154338592Y-90525921D01*
X154341149Y-90535464D01*
X154437186Y-90818381D01*
X154440973Y-90827525D01*
X154501462Y-90950183D01*
X154512194Y-90962420D01*
X154515635Y-90961735D01*
X154519057Y-90959283D01*
X155544244Y-89934096D01*
X155552382Y-89920000D01*
X157685618Y-89920000D01*
X157693756Y-89934096D01*
X158713625Y-90953965D01*
X158727721Y-90962103D01*
X158730760Y-90960349D01*
X158733212Y-90956927D01*
X158797027Y-90827525D01*
X158800814Y-90818381D01*
X158896851Y-90535464D01*
X158899408Y-90525921D01*
X158957697Y-90232886D01*
X158958988Y-90223075D01*
X158978529Y-89924943D01*
X158978529Y-89915057D01*
X158958988Y-89616925D01*
X158957697Y-89607114D01*
X158899408Y-89314079D01*
X158896851Y-89304536D01*
X158800814Y-89021619D01*
X158797027Y-89012475D01*
X158736538Y-88889817D01*
X158725806Y-88877580D01*
X158722365Y-88878265D01*
X158718943Y-88880717D01*
X157693756Y-89905904D01*
X157685618Y-89920000D01*
X155552382Y-89920000D01*
X155544244Y-89905904D01*
X154524375Y-88886035D01*
X154510279Y-88877897D01*
X154507240Y-88879651D01*
X154504788Y-88883073D01*
X154440973Y-89012475D01*
X154437186Y-89021619D01*
X154341149Y-89304536D01*
X154338592Y-89314079D01*
X154280303Y-89607114D01*
X154279012Y-89616925D01*
X154259471Y-89915057D01*
X154259471Y-89924943D01*
X137048500Y-89924943D01*
X137048500Y-87884509D01*
X137068784Y-87808809D01*
X137087383Y-87783209D01*
X137129040Y-87736944D01*
X137162572Y-87678866D01*
X137192996Y-87626170D01*
X137224527Y-87571556D01*
X137233857Y-87542843D01*
X137281089Y-87397476D01*
X137283542Y-87389928D01*
X137284751Y-87378432D01*
X137302675Y-87207888D01*
X137303504Y-87200000D01*
X137283542Y-87010072D01*
X137280269Y-87000000D01*
X143876496Y-87000000D01*
X143896458Y-87189928D01*
X143955473Y-87371556D01*
X144050960Y-87536944D01*
X144056269Y-87542840D01*
X144056271Y-87542843D01*
X144090901Y-87581303D01*
X144178747Y-87678866D01*
X144185168Y-87683531D01*
X144322353Y-87783202D01*
X144333248Y-87791118D01*
X144340493Y-87794344D01*
X144340497Y-87794346D01*
X144500463Y-87865567D01*
X144500467Y-87865568D01*
X144507712Y-87868794D01*
X144627738Y-87894306D01*
X144686754Y-87906851D01*
X144686756Y-87906851D01*
X144694513Y-87908500D01*
X144885487Y-87908500D01*
X144893244Y-87906851D01*
X144893246Y-87906851D01*
X144952262Y-87894306D01*
X145072288Y-87868794D01*
X145079533Y-87865568D01*
X145079537Y-87865567D01*
X145197169Y-87813194D01*
X155576580Y-87813194D01*
X155577265Y-87816635D01*
X155579717Y-87820057D01*
X156604904Y-88845244D01*
X156619000Y-88853382D01*
X156633096Y-88845244D01*
X157652966Y-87825374D01*
X157661104Y-87811278D01*
X157659350Y-87808239D01*
X157655929Y-87805788D01*
X157526524Y-87741973D01*
X157517379Y-87738185D01*
X157234464Y-87642149D01*
X157224921Y-87639592D01*
X156931886Y-87581303D01*
X156922075Y-87580012D01*
X156623943Y-87560471D01*
X156614057Y-87560471D01*
X156315925Y-87580012D01*
X156306114Y-87581303D01*
X156013079Y-87639592D01*
X156003536Y-87642149D01*
X155720619Y-87738186D01*
X155711475Y-87741973D01*
X155588817Y-87802462D01*
X155576580Y-87813194D01*
X145197169Y-87813194D01*
X145239503Y-87794346D01*
X145239507Y-87794344D01*
X145246752Y-87791118D01*
X145257648Y-87783202D01*
X145394832Y-87683531D01*
X145401253Y-87678866D01*
X145489099Y-87581303D01*
X145523729Y-87542843D01*
X145523731Y-87542840D01*
X145529040Y-87536944D01*
X145624527Y-87371556D01*
X145683542Y-87189928D01*
X145703504Y-87000000D01*
X145689375Y-86865567D01*
X145684372Y-86817965D01*
X145684371Y-86817961D01*
X145683542Y-86810072D01*
X145635704Y-86662843D01*
X145626980Y-86635993D01*
X145626979Y-86635992D01*
X145624527Y-86628444D01*
X145565978Y-86527034D01*
X145533009Y-86469930D01*
X145533008Y-86469928D01*
X145529040Y-86463056D01*
X145494838Y-86425070D01*
X145408837Y-86329557D01*
X145401253Y-86321134D01*
X145246752Y-86208882D01*
X145239507Y-86205656D01*
X145239503Y-86205654D01*
X145079537Y-86134433D01*
X145079533Y-86134432D01*
X145072288Y-86131206D01*
X144952262Y-86105694D01*
X144893246Y-86093149D01*
X144893244Y-86093149D01*
X144885487Y-86091500D01*
X144694513Y-86091500D01*
X144686756Y-86093149D01*
X144686754Y-86093149D01*
X144627738Y-86105694D01*
X144507712Y-86131206D01*
X144500467Y-86134432D01*
X144500463Y-86134433D01*
X144340497Y-86205654D01*
X144340493Y-86205656D01*
X144333248Y-86208882D01*
X144178747Y-86321134D01*
X144171163Y-86329557D01*
X144085163Y-86425070D01*
X144050960Y-86463056D01*
X144046992Y-86469928D01*
X144046991Y-86469930D01*
X144014022Y-86527034D01*
X143955473Y-86628444D01*
X143953021Y-86635992D01*
X143953020Y-86635993D01*
X143944296Y-86662843D01*
X143896458Y-86810072D01*
X143895629Y-86817961D01*
X143895628Y-86817965D01*
X143890625Y-86865567D01*
X143876496Y-87000000D01*
X137280269Y-87000000D01*
X137224527Y-86828444D01*
X137192996Y-86773830D01*
X137133009Y-86669930D01*
X137133008Y-86669928D01*
X137129040Y-86663056D01*
X137117348Y-86650070D01*
X137006565Y-86527034D01*
X137001253Y-86521134D01*
X136846752Y-86408882D01*
X136839507Y-86405656D01*
X136839503Y-86405654D01*
X136679537Y-86334433D01*
X136679533Y-86334432D01*
X136672288Y-86331206D01*
X136535050Y-86302035D01*
X136493246Y-86293149D01*
X136493244Y-86293149D01*
X136485487Y-86291500D01*
X136294513Y-86291500D01*
X136286756Y-86293149D01*
X136286754Y-86293149D01*
X136244950Y-86302035D01*
X136107712Y-86331206D01*
X136100467Y-86334432D01*
X136100463Y-86334433D01*
X135933248Y-86408882D01*
X135932552Y-86407319D01*
X135866295Y-86425070D01*
X135790596Y-86404784D01*
X135735181Y-86349366D01*
X135714900Y-86273670D01*
X135714900Y-85211400D01*
X135735184Y-85135700D01*
X135790600Y-85080284D01*
X135866300Y-85060000D01*
X137475595Y-85060000D01*
X137551295Y-85080284D01*
G37*
G04 #@! TD.AperFunction*
M02*
