G04 #@! TF.GenerationSoftware,KiCad,Pcbnew,6.0.0-rc2*
G04 #@! TF.CreationDate,2022-06-15T19:41:01-07:00*
G04 #@! TF.ProjectId,RP2040_motor,52503230-3430-45f6-9d6f-746f722e6b69,REV1*
G04 #@! TF.SameCoordinates,Original*
G04 #@! TF.FileFunction,Copper,L3,Inr*
G04 #@! TF.FilePolarity,Positive*
%FSLAX46Y46*%
G04 Gerber Fmt 4.6, Leading zero omitted, Abs format (unit mm)*
G04 Created by KiCad (PCBNEW 6.0.0-rc2) date 2022-06-15 19:41:01*
%MOMM*%
%LPD*%
G01*
G04 APERTURE LIST*
G04 Aperture macros list*
%AMRoundRect*
0 Rectangle with rounded corners*
0 $1 Rounding radius*
0 $2 $3 $4 $5 $6 $7 $8 $9 X,Y pos of 4 corners*
0 Add a 4 corners polygon primitive as box body*
4,1,4,$2,$3,$4,$5,$6,$7,$8,$9,$2,$3,0*
0 Add four circle primitives for the rounded corners*
1,1,$1+$1,$2,$3*
1,1,$1+$1,$4,$5*
1,1,$1+$1,$6,$7*
1,1,$1+$1,$8,$9*
0 Add four rect primitives between the rounded corners*
20,1,$1+$1,$2,$3,$4,$5,0*
20,1,$1+$1,$4,$5,$6,$7,0*
20,1,$1+$1,$6,$7,$8,$9,0*
20,1,$1+$1,$8,$9,$2,$3,0*%
G04 Aperture macros list end*
G04 #@! TA.AperFunction,ComponentPad*
%ADD10O,1.740000X2.190000*%
G04 #@! TD*
G04 #@! TA.AperFunction,ComponentPad*
%ADD11RoundRect,0.250000X0.620000X0.845000X-0.620000X0.845000X-0.620000X-0.845000X0.620000X-0.845000X0*%
G04 #@! TD*
G04 #@! TA.AperFunction,ComponentPad*
%ADD12C,0.600000*%
G04 #@! TD*
G04 #@! TA.AperFunction,ComponentPad*
%ADD13O,2.190000X1.740000*%
G04 #@! TD*
G04 #@! TA.AperFunction,ComponentPad*
%ADD14RoundRect,0.250000X0.845000X-0.620000X0.845000X0.620000X-0.845000X0.620000X-0.845000X-0.620000X0*%
G04 #@! TD*
G04 #@! TA.AperFunction,ComponentPad*
%ADD15C,2.000000*%
G04 #@! TD*
G04 #@! TA.AperFunction,ComponentPad*
%ADD16C,4.000000*%
G04 #@! TD*
G04 #@! TA.AperFunction,ComponentPad*
%ADD17C,6.000000*%
G04 #@! TD*
G04 #@! TA.AperFunction,ComponentPad*
%ADD18O,1.000000X1.600000*%
G04 #@! TD*
G04 #@! TA.AperFunction,ComponentPad*
%ADD19O,1.000000X2.100000*%
G04 #@! TD*
G04 #@! TA.AperFunction,ViaPad*
%ADD20C,0.600000*%
G04 #@! TD*
G04 #@! TA.AperFunction,ViaPad*
%ADD21C,0.800000*%
G04 #@! TD*
G04 #@! TA.AperFunction,Conductor*
%ADD22C,0.300000*%
G04 #@! TD*
G04 #@! TA.AperFunction,Conductor*
%ADD23C,0.150000*%
G04 #@! TD*
G04 #@! TA.AperFunction,Conductor*
%ADD24C,1.000000*%
G04 #@! TD*
G04 #@! TA.AperFunction,Conductor*
%ADD25C,0.600000*%
G04 #@! TD*
G04 APERTURE END LIST*
D10*
X83110000Y-86500000D03*
X85650000Y-86500000D03*
D11*
X88190000Y-86500000D03*
D12*
X89005000Y-106525000D03*
X91555000Y-105250000D03*
X89005000Y-103975000D03*
X89005000Y-105250000D03*
X90280000Y-106525000D03*
X91555000Y-103975000D03*
X90280000Y-103975000D03*
X91555000Y-106525000D03*
X90280000Y-105250000D03*
D13*
X77750000Y-81680000D03*
X77750000Y-84220000D03*
X77750000Y-86760000D03*
D14*
X77750000Y-89300000D03*
D15*
X95390000Y-87100000D03*
X101890000Y-87100000D03*
X95390000Y-82600000D03*
X101890000Y-82600000D03*
D16*
X156819000Y-87920000D03*
X156619000Y-72130000D03*
D13*
X77750000Y-93000000D03*
X77750000Y-95540000D03*
X77750000Y-98080000D03*
X77750000Y-100620000D03*
X77750000Y-103160000D03*
D14*
X77750000Y-105700000D03*
D17*
X119740000Y-73000000D03*
D16*
X156719000Y-102810000D03*
D13*
X77750000Y-70330000D03*
X77750000Y-72870000D03*
X77750000Y-75410000D03*
D14*
X77750000Y-77950000D03*
D13*
X77750000Y-109490000D03*
X77750000Y-112030000D03*
X77750000Y-114570000D03*
X77750000Y-117110000D03*
D14*
X77750000Y-119650000D03*
D16*
X156819000Y-118600000D03*
X156619000Y-80470000D03*
X156619000Y-110650000D03*
D18*
X94610000Y-120325000D03*
X85970000Y-120325000D03*
D19*
X85970000Y-116145000D03*
X94610000Y-116145000D03*
D17*
X126990000Y-73000000D03*
D20*
X90524500Y-97893500D03*
X94190000Y-91000000D03*
X94590000Y-95000000D03*
X87790000Y-93500000D03*
D21*
X158990000Y-115000000D03*
X152540000Y-76070000D03*
D20*
X88390000Y-97600000D03*
D21*
X118540000Y-83720000D03*
X119540000Y-114300000D03*
X121540000Y-98400000D03*
X118540000Y-87420000D03*
X102590000Y-114250000D03*
X151090000Y-106000000D03*
X118540000Y-114300000D03*
X151990000Y-115600000D03*
X158540000Y-76770000D03*
X118540000Y-93170000D03*
X121540000Y-105850000D03*
X118540000Y-104150000D03*
X121540000Y-87420000D03*
X118540000Y-119050000D03*
D20*
X97190000Y-99100000D03*
D21*
X155290000Y-85120000D03*
X150290000Y-84220000D03*
X115290000Y-105050000D03*
X120490000Y-107850000D03*
X157540000Y-76770000D03*
X151090000Y-115600000D03*
X89190000Y-78400000D03*
X156090000Y-106400000D03*
X122540000Y-98400000D03*
X119490000Y-79970000D03*
X118540000Y-77970000D03*
X119540000Y-87420000D03*
X122540000Y-93170000D03*
X156290000Y-114100000D03*
X118540000Y-98400000D03*
X156990000Y-107300000D03*
X120540000Y-77970000D03*
X158990000Y-114100000D03*
X119540000Y-83720000D03*
X156540000Y-75770000D03*
D20*
X94590000Y-96800000D03*
D21*
X156540000Y-76770000D03*
X100190000Y-75800000D03*
X151540000Y-75070000D03*
X121490000Y-107850000D03*
X122540000Y-97400000D03*
X122540000Y-92170000D03*
X119490000Y-116300000D03*
X118540000Y-112600000D03*
X156990000Y-106400000D03*
X121540000Y-103150000D03*
X157540000Y-75770000D03*
X85590000Y-77400000D03*
X99190000Y-74800000D03*
X120540000Y-103150000D03*
X121540000Y-112600000D03*
X154490000Y-114100000D03*
X158290000Y-85120000D03*
X122490000Y-79970000D03*
X119540000Y-97400000D03*
X120540000Y-106850000D03*
X121540000Y-111600000D03*
X122540000Y-77970000D03*
X119540000Y-84720000D03*
X156290000Y-85120000D03*
X157890000Y-106400000D03*
X151990000Y-106000000D03*
X118540000Y-92170000D03*
X83990000Y-71000000D03*
X121540000Y-104150000D03*
X120540000Y-105850000D03*
X122540000Y-114300000D03*
X157190000Y-115000000D03*
X157290000Y-85120000D03*
X121540000Y-106850000D03*
X120540000Y-92170000D03*
X155390000Y-114100000D03*
X121490000Y-88420000D03*
X153540000Y-75070000D03*
X122540000Y-119050000D03*
X150190000Y-115600000D03*
X119540000Y-112600000D03*
X151540000Y-76070000D03*
X122540000Y-83720000D03*
X120540000Y-119050000D03*
X119540000Y-111600000D03*
X155190000Y-107300000D03*
X119540000Y-77970000D03*
X158540000Y-75770000D03*
X120540000Y-112600000D03*
X118540000Y-84720000D03*
X91390000Y-79400000D03*
X120540000Y-78970000D03*
X154540000Y-75770000D03*
X91390000Y-78400000D03*
X99190000Y-75800000D03*
X89190000Y-79400000D03*
X95840000Y-110750000D03*
X90840000Y-113500000D03*
X122540000Y-104150000D03*
X150190000Y-113800000D03*
X120490000Y-88420000D03*
X119490000Y-107850000D03*
X157890000Y-107300000D03*
X119540000Y-78970000D03*
X152540000Y-75070000D03*
X122540000Y-106850000D03*
X158790000Y-107300000D03*
X115290000Y-113100000D03*
X118490000Y-88420000D03*
X120490000Y-79970000D03*
X150190000Y-106000000D03*
X118540000Y-106850000D03*
X118490000Y-107850000D03*
X122490000Y-88420000D03*
X119540000Y-103150000D03*
X121540000Y-84720000D03*
X118540000Y-105850000D03*
X121540000Y-97400000D03*
X122540000Y-112600000D03*
X122540000Y-84720000D03*
X154290000Y-106400000D03*
X151990000Y-106900000D03*
X87340000Y-113000000D03*
X120490000Y-116300000D03*
X151090000Y-106900000D03*
X119540000Y-119050000D03*
X153540000Y-76070000D03*
X120540000Y-111600000D03*
X150190000Y-114700000D03*
X151990000Y-113800000D03*
X121540000Y-77970000D03*
X118540000Y-103150000D03*
X114290000Y-70370000D03*
X115490000Y-79770000D03*
X83340000Y-111000000D03*
D20*
X93201000Y-98420500D03*
D21*
X119540000Y-98400000D03*
X98590000Y-108500000D03*
X119540000Y-92170000D03*
X122540000Y-103150000D03*
X120540000Y-104150000D03*
X99190000Y-73800000D03*
X115490000Y-88070000D03*
X121540000Y-114300000D03*
X118540000Y-111600000D03*
X154490000Y-115000000D03*
X154540000Y-76770000D03*
X121540000Y-92170000D03*
X155540000Y-76770000D03*
X155540000Y-75770000D03*
X122540000Y-105850000D03*
X122490000Y-116300000D03*
D20*
X99280000Y-104050000D03*
D21*
X150190000Y-106900000D03*
D20*
X81780000Y-103945000D03*
D21*
X120540000Y-97400000D03*
X93790000Y-79400000D03*
X100190000Y-73800000D03*
X121540000Y-115300000D03*
X120540000Y-93170000D03*
X151090000Y-113800000D03*
X119540000Y-104150000D03*
X121540000Y-93170000D03*
X151990000Y-114700000D03*
X119540000Y-105850000D03*
D20*
X87840000Y-91650000D03*
D21*
X121540000Y-119050000D03*
X158790000Y-106400000D03*
X119490000Y-88420000D03*
X120540000Y-83720000D03*
X118540000Y-115300000D03*
X158090000Y-115000000D03*
X83340000Y-109250000D03*
X154290000Y-85120000D03*
X122540000Y-87420000D03*
X151090000Y-114700000D03*
X120540000Y-114300000D03*
X120540000Y-87420000D03*
X121490000Y-79970000D03*
X122490000Y-107850000D03*
X118540000Y-78970000D03*
X156290000Y-115000000D03*
X118490000Y-116300000D03*
X119540000Y-93170000D03*
X118490000Y-79970000D03*
X119540000Y-106850000D03*
X122540000Y-111600000D03*
X158090000Y-114100000D03*
X121490000Y-116300000D03*
X100190000Y-74800000D03*
X157190000Y-114100000D03*
X120540000Y-84720000D03*
X120540000Y-98400000D03*
X115290000Y-96650000D03*
X156090000Y-107300000D03*
X150540000Y-74170000D03*
X155390000Y-115000000D03*
X122540000Y-115300000D03*
X120540000Y-115300000D03*
D20*
X82340000Y-119250000D03*
D21*
X122540000Y-78970000D03*
X118540000Y-97400000D03*
X121540000Y-78970000D03*
X121540000Y-83720000D03*
X119540000Y-115300000D03*
X155190000Y-106400000D03*
D20*
X101490000Y-102100000D03*
D21*
X154290000Y-107300000D03*
D20*
X87840000Y-114250000D03*
X93340000Y-113750000D03*
D21*
X110690000Y-96900000D03*
X100590000Y-99000000D03*
D20*
X90480000Y-110300006D03*
X89680030Y-103150000D03*
X89288839Y-99801161D03*
X89580000Y-107350000D03*
X111090000Y-72750000D03*
X94840000Y-98000000D03*
X94846482Y-98805985D03*
X111318275Y-73550500D03*
X110520734Y-81319266D03*
X93833027Y-100119441D03*
X95090000Y-100250000D03*
X112340000Y-82500000D03*
X112299668Y-89540332D03*
X94340000Y-101500000D03*
X112340000Y-92250000D03*
X95090000Y-102074500D03*
X111840000Y-99000000D03*
X95590000Y-102750000D03*
X95795982Y-103591665D03*
X112340000Y-100750000D03*
X112090000Y-106000000D03*
X96664505Y-104718131D03*
X96064725Y-105246778D03*
X111340000Y-106500000D03*
X97196856Y-105785989D03*
X111840000Y-114250000D03*
X111840000Y-115250000D03*
X97903450Y-106174500D03*
X80890000Y-99800000D03*
X81790000Y-101200000D03*
X85344954Y-100594546D03*
X81690000Y-108100000D03*
X87779500Y-105000000D03*
X93340000Y-108750000D03*
X100090000Y-107500000D03*
X99340000Y-116000000D03*
X96340000Y-114250000D03*
X98090000Y-114250000D03*
X95683767Y-112906233D03*
X97790000Y-112500000D03*
X93351233Y-109938767D03*
X84090000Y-117250000D03*
X90840000Y-117750000D03*
X89590000Y-114500000D03*
X82340000Y-117250000D03*
X133190000Y-69820000D03*
X132080900Y-120380000D03*
X132440000Y-100500000D03*
X132940000Y-111950000D03*
X133940000Y-72070000D03*
X133190000Y-102000000D03*
X133190000Y-71320000D03*
X134330900Y-120380000D03*
X132190000Y-108950000D03*
X134690000Y-72070000D03*
X134330900Y-119630000D03*
X133702300Y-111200000D03*
X132940000Y-108950000D03*
X132830900Y-117380000D03*
X133940000Y-103500000D03*
X132440000Y-101250000D03*
X134440000Y-79670000D03*
X132080900Y-87350000D03*
X133190000Y-102750000D03*
X132830900Y-119630000D03*
X134690000Y-72820000D03*
X132440000Y-70570000D03*
X134440000Y-81170000D03*
X132940000Y-78920000D03*
X133702300Y-80420000D03*
X133690000Y-78920000D03*
X134440000Y-80420000D03*
X132190000Y-78170000D03*
X133690000Y-81170000D03*
X134690000Y-102750000D03*
X133690000Y-78170000D03*
X133702300Y-110450000D03*
X133580900Y-87350000D03*
X132190000Y-110450000D03*
X134330900Y-88850000D03*
X134690000Y-70570000D03*
X132440000Y-72070000D03*
X132830900Y-88100000D03*
X132190000Y-79670000D03*
X132440000Y-71320000D03*
X133580900Y-120380000D03*
D21*
X94390000Y-75200000D03*
D20*
X134330900Y-87350000D03*
X132190000Y-80420000D03*
X133690000Y-111950000D03*
X133190000Y-100500000D03*
X132190000Y-78920000D03*
X132940000Y-80420000D03*
X133940000Y-102750000D03*
X133922300Y-70570000D03*
X133702300Y-79670000D03*
X133580900Y-89600000D03*
X132080900Y-88850000D03*
X132080900Y-117380000D03*
X133580900Y-88100000D03*
X133190000Y-103500000D03*
X132190000Y-111950000D03*
X132940000Y-109700000D03*
X134330900Y-117380000D03*
X132440000Y-103500000D03*
X132080900Y-119630000D03*
X134690000Y-103500000D03*
X133580900Y-86600000D03*
X133690000Y-108950000D03*
X133940000Y-72820000D03*
X133922300Y-71320000D03*
X132440000Y-72820000D03*
X133190000Y-70570000D03*
X134690000Y-100500000D03*
X133690000Y-109700000D03*
X132940000Y-81170000D03*
X134330900Y-88100000D03*
X132830900Y-86600000D03*
X132440000Y-102000000D03*
X132830900Y-89600000D03*
X132830900Y-120380000D03*
X132440000Y-69820000D03*
X134440000Y-109700000D03*
X134690000Y-102000000D03*
X132190000Y-111200000D03*
X132080900Y-89600000D03*
X134330900Y-89600000D03*
X134330900Y-86600000D03*
X134440000Y-111950000D03*
X133580900Y-117380000D03*
X133580900Y-118130000D03*
X132080900Y-118130000D03*
X133580900Y-118880000D03*
X133580900Y-119630000D03*
X132190000Y-109700000D03*
X134440000Y-110450000D03*
X133940000Y-100500000D03*
X132940000Y-110450000D03*
X132440000Y-102750000D03*
X133922300Y-102000000D03*
X134690000Y-101250000D03*
X133940000Y-69820000D03*
X134440000Y-78170000D03*
X132080900Y-118880000D03*
X132080900Y-88100000D03*
X134330900Y-118130000D03*
X134690000Y-69820000D03*
X132830900Y-87350000D03*
X133190000Y-101250000D03*
X132940000Y-78170000D03*
X134690000Y-71320000D03*
X132830900Y-88850000D03*
X133922300Y-101250000D03*
X134440000Y-78920000D03*
X134440000Y-111200000D03*
D21*
X93590000Y-74800000D03*
D20*
X132080900Y-86600000D03*
X133580900Y-88850000D03*
X132940000Y-79670000D03*
X132190000Y-81170000D03*
X134440000Y-108950000D03*
X133190000Y-72820000D03*
X132830900Y-118130000D03*
X132830900Y-118880000D03*
X133190000Y-72070000D03*
X134330900Y-118880000D03*
X132940000Y-111200000D03*
X137920900Y-102361400D03*
X143270900Y-103480000D03*
X138670900Y-102361400D03*
X141020900Y-103480000D03*
X143270900Y-101980000D03*
X141770900Y-101230000D03*
X141770900Y-100480000D03*
X137920900Y-100111400D03*
X143270900Y-101230000D03*
X141020900Y-102730000D03*
X142520900Y-100480000D03*
X138670900Y-101611400D03*
X138670900Y-103861400D03*
X138670900Y-103111400D03*
D21*
X111290000Y-101650000D03*
D20*
X141020900Y-101980000D03*
X141770900Y-103480000D03*
X142520900Y-102730000D03*
X141770900Y-102730000D03*
X141770900Y-101980000D03*
X142520900Y-101980000D03*
X137920900Y-103861400D03*
X138670900Y-100861400D03*
X141020900Y-101230000D03*
X143270900Y-100480000D03*
X137920900Y-103111400D03*
D21*
X140690000Y-104600000D03*
D20*
X142520900Y-103480000D03*
X138670900Y-100111400D03*
X141020900Y-100480000D03*
X143270900Y-102730000D03*
X137920900Y-100861400D03*
X137920900Y-101611400D03*
X142520900Y-101230000D03*
X143520900Y-110430000D03*
X142770900Y-111930000D03*
X141270900Y-109680000D03*
X142770900Y-110430000D03*
X143520900Y-109680000D03*
X138670900Y-109311400D03*
X138670900Y-112311400D03*
X137920900Y-108561400D03*
X138670900Y-110061400D03*
X137920900Y-109311400D03*
X142020900Y-110430000D03*
X142020900Y-109680000D03*
X142770900Y-109680000D03*
X138670900Y-110811400D03*
X137920900Y-111561400D03*
X138670900Y-111561400D03*
X141270900Y-111930000D03*
X142770900Y-111180000D03*
D21*
X110840000Y-112250000D03*
D20*
X142770900Y-108930000D03*
X143520900Y-108930000D03*
X137920900Y-110061400D03*
X142020900Y-111180000D03*
D21*
X137990000Y-106700000D03*
X111290000Y-110250000D03*
D20*
X138670900Y-108561400D03*
X141270900Y-108930000D03*
X142020900Y-108930000D03*
X137920900Y-110811400D03*
X143520900Y-111180000D03*
X142020900Y-111930000D03*
X141270900Y-110430000D03*
X141270900Y-111180000D03*
X143520900Y-111930000D03*
X137920900Y-112311400D03*
X143270900Y-118130000D03*
X138670900Y-119011400D03*
X143270900Y-120380000D03*
X138670900Y-118261400D03*
X141770900Y-118880000D03*
X141020900Y-119630000D03*
X143270900Y-118880000D03*
X142520900Y-120380000D03*
X141020900Y-117380000D03*
X141770900Y-120380000D03*
X142520900Y-119630000D03*
X141770900Y-118130000D03*
X137920900Y-119011400D03*
X141020900Y-120380000D03*
X141770900Y-119630000D03*
X138670900Y-116761400D03*
X143270900Y-119630000D03*
X138670900Y-117511400D03*
X137920900Y-118261400D03*
X142520900Y-118130000D03*
X137920900Y-120511400D03*
X138670900Y-119761400D03*
X137920900Y-117511400D03*
X141770900Y-117380000D03*
X141020900Y-118880000D03*
X141020900Y-118130000D03*
X143270900Y-117380000D03*
X142520900Y-117380000D03*
X137920900Y-119761400D03*
X142520900Y-118880000D03*
X137920900Y-116761400D03*
X138670900Y-120511400D03*
D21*
X104290000Y-74970000D03*
X135490000Y-68699500D03*
X144790000Y-68700000D03*
X104690000Y-71570000D03*
X135390000Y-77000000D03*
X107990000Y-86200000D03*
X144090000Y-77100000D03*
X106990000Y-82200000D03*
X81590000Y-69800000D03*
X86990000Y-80200000D03*
X107890000Y-103050000D03*
X106790000Y-98800000D03*
X107790000Y-111400000D03*
X135640000Y-107350000D03*
X144040000Y-107450000D03*
X106990000Y-107400000D03*
X136390000Y-84900000D03*
X107790000Y-94000000D03*
X106990000Y-90470000D03*
X144790000Y-85700000D03*
X135240000Y-115850000D03*
X107190000Y-120400000D03*
X105690000Y-115500000D03*
X143640000Y-115900000D03*
D20*
X85090000Y-114250000D03*
X89330499Y-111000000D03*
X84848475Y-105752825D03*
D21*
X109090000Y-95100000D03*
D20*
X97340000Y-93250000D03*
X97590000Y-94250000D03*
X85094386Y-106513570D03*
D21*
X108990000Y-96100000D03*
D20*
X142520900Y-72050000D03*
X141020900Y-71300000D03*
X143270900Y-71300000D03*
X138670900Y-72431400D03*
D21*
X110290000Y-75370000D03*
D20*
X137920900Y-71681400D03*
D21*
X137990000Y-75349500D03*
D20*
X142520900Y-71300000D03*
X142520900Y-69800000D03*
X142520900Y-72800000D03*
X141020900Y-70550000D03*
X137920900Y-70181400D03*
X141770900Y-69800000D03*
X143270900Y-72800000D03*
X141770900Y-72800000D03*
X137920900Y-73181400D03*
X138670900Y-71681400D03*
X138670900Y-70931400D03*
X138670900Y-70181400D03*
X143270900Y-70550000D03*
X141770900Y-71300000D03*
X138670900Y-73181400D03*
X137920900Y-72431400D03*
X141770900Y-70550000D03*
X142520900Y-70550000D03*
X141020900Y-72050000D03*
X137920900Y-70931400D03*
X141020900Y-69800000D03*
X137920900Y-69431400D03*
X141020900Y-72800000D03*
X141770900Y-72050000D03*
X138670900Y-69431400D03*
X143270900Y-72050000D03*
X143270900Y-69800000D03*
X142770900Y-80400000D03*
X137920900Y-80031400D03*
X137920900Y-77781400D03*
X141270900Y-79650000D03*
X142020900Y-80400000D03*
X142020900Y-81150000D03*
X143520900Y-80400000D03*
X138670900Y-78531400D03*
X141270900Y-80400000D03*
X137920900Y-78531400D03*
X141270900Y-78150000D03*
X142770900Y-81150000D03*
D21*
X112340000Y-84970000D03*
D20*
X142020900Y-79650000D03*
X141270900Y-81150000D03*
X137920900Y-80781400D03*
X138670900Y-80781400D03*
X142770900Y-78900000D03*
X138670900Y-77781400D03*
X142770900Y-78150000D03*
D21*
X138190000Y-84400000D03*
D20*
X142020900Y-78150000D03*
X137920900Y-79281400D03*
X142770900Y-79650000D03*
X142020900Y-78900000D03*
X141270900Y-78900000D03*
X138670900Y-80031400D03*
X143520900Y-81150000D03*
X143520900Y-79650000D03*
X137920900Y-81531400D03*
X138670900Y-79281400D03*
X143520900Y-78150000D03*
X143520900Y-78900000D03*
X138670900Y-81531400D03*
X143270900Y-88850000D03*
X141020900Y-88850000D03*
X143270900Y-86600000D03*
X141770900Y-89600000D03*
X141770900Y-88100000D03*
X142520900Y-88100000D03*
X142520900Y-87350000D03*
X137920900Y-88231400D03*
X141770900Y-88850000D03*
X141020900Y-87350000D03*
X137920900Y-89731400D03*
X137920900Y-87481400D03*
X143270900Y-87350000D03*
X141020900Y-88100000D03*
X142520900Y-89600000D03*
X141020900Y-89600000D03*
X142520900Y-86600000D03*
X138670900Y-86731400D03*
X137920900Y-88981400D03*
X138670900Y-88231400D03*
X143270900Y-88100000D03*
X142520900Y-88850000D03*
X141770900Y-86600000D03*
X138670900Y-88981400D03*
X143270900Y-89600000D03*
X138670900Y-87481400D03*
X138670900Y-89731400D03*
X137920900Y-85981400D03*
X137920900Y-86731400D03*
X141020900Y-86600000D03*
X138670900Y-85981400D03*
X141770900Y-87350000D03*
D21*
X111290000Y-93270000D03*
X101990000Y-95900000D03*
X117190000Y-77899000D03*
X116290000Y-119100000D03*
X101190000Y-120200000D03*
X116690000Y-110000000D03*
X83190000Y-80300000D03*
X117190000Y-99700000D03*
X116890000Y-84720011D03*
X116990000Y-93100000D03*
D20*
X88705500Y-110425500D03*
X82840000Y-113750000D03*
X94790000Y-107925500D03*
X99090000Y-106175500D03*
X81990000Y-89500000D03*
X96529210Y-106748531D03*
X84790000Y-91100000D03*
X97390000Y-107000000D03*
X82590000Y-107000000D03*
X87937034Y-102710213D03*
X86990000Y-101800000D03*
X84889308Y-101975980D03*
X87797572Y-103662141D03*
D22*
X135490000Y-68699500D02*
X136190000Y-69399500D01*
X136190000Y-69399500D02*
X136190000Y-74100000D01*
X92340000Y-112750000D02*
X93340000Y-113750000D01*
X89340000Y-112750000D02*
X91840000Y-112750000D01*
X91840000Y-112750000D02*
X92340000Y-112750000D01*
X87840000Y-114250000D02*
X89340000Y-112750000D01*
X116490000Y-97400000D02*
X111890000Y-97400000D01*
X117590480Y-96299520D02*
X116490000Y-97400000D01*
X111890000Y-97400000D02*
X111390000Y-96900000D01*
X111390000Y-96900000D02*
X110690000Y-96900000D01*
D23*
X80890000Y-99800000D02*
X80290000Y-100400000D01*
X76380480Y-115740480D02*
X77750000Y-117110000D01*
X80290000Y-100400000D02*
X80290000Y-106500000D01*
X80290000Y-106500000D02*
X79290000Y-107500000D01*
X79290000Y-107500000D02*
X77896405Y-107500000D01*
X76380480Y-109015925D02*
X76380480Y-115740480D01*
X77896405Y-107500000D02*
X76380480Y-109015925D01*
X80639520Y-102350480D02*
X80639520Y-111680480D01*
X80639520Y-111680480D02*
X77750000Y-114570000D01*
X81790000Y-101200000D02*
X80639520Y-102350480D01*
X87779500Y-105000000D02*
X86090000Y-103310500D01*
X86090000Y-102800000D02*
X86090000Y-101339592D01*
X86090000Y-101339592D02*
X85344954Y-100594546D01*
X86090000Y-103310500D02*
X86090000Y-102800000D01*
X81680000Y-108100000D02*
X81690000Y-108100000D01*
X87779500Y-105000000D02*
X84679500Y-108100000D01*
X84679500Y-108100000D02*
X81680000Y-108100000D01*
D22*
X90840000Y-118000000D02*
X90840000Y-117750000D01*
X84090000Y-117250000D02*
X84840000Y-118000000D01*
X84840000Y-118000000D02*
X90840000Y-118000000D01*
D24*
X126990000Y-73000000D02*
X123260489Y-69270489D01*
X94390000Y-75200000D02*
X93990000Y-74800000D01*
X93990000Y-74800000D02*
X93590000Y-74800000D01*
X99119511Y-69270489D02*
X93590000Y-74800000D01*
X123260489Y-69270489D02*
X99119511Y-69270489D01*
D22*
X110840000Y-112250000D02*
X111246428Y-112250000D01*
X135782789Y-114449511D02*
X137920900Y-112311400D01*
X111246428Y-112250000D02*
X111896428Y-111600000D01*
X111896428Y-111600000D02*
X115890000Y-111600000D01*
X115890000Y-111600000D02*
X117639511Y-113349511D01*
X105060000Y-74200000D02*
X104290000Y-74970000D01*
X113590000Y-76400000D02*
X111390000Y-74200000D01*
X111390000Y-74200000D02*
X105060000Y-74200000D01*
X136190000Y-74200000D02*
X135590000Y-74800000D01*
X135990000Y-81138548D02*
X132609037Y-84519511D01*
X135390000Y-76700000D02*
X135990000Y-77300000D01*
X108470489Y-85719511D02*
X107990000Y-86200000D01*
X135990000Y-77300000D02*
X135990000Y-80538548D01*
X123389511Y-102399511D02*
X108540489Y-102399511D01*
X108540489Y-102399511D02*
X107890000Y-103050000D01*
X124039511Y-103049511D02*
X123389511Y-102399511D01*
X111939511Y-110850489D02*
X111390000Y-111400000D01*
X123699970Y-111700000D02*
X122850459Y-110850489D01*
X135640000Y-112550000D02*
X135390000Y-112800000D01*
X111390000Y-111400000D02*
X107790000Y-111400000D01*
X122850459Y-110850489D02*
X111939511Y-110850489D01*
X135640000Y-107550000D02*
X135640000Y-112550000D01*
X107790000Y-94000000D02*
X107990000Y-94200000D01*
X84848475Y-105339927D02*
X84848475Y-105752825D01*
X90340000Y-93250000D02*
X83890000Y-99700000D01*
X83890000Y-99700000D02*
X83890000Y-104381452D01*
X97340000Y-93250000D02*
X90340000Y-93250000D01*
X83890000Y-104381452D02*
X84848475Y-105339927D01*
X109190000Y-95200000D02*
X109090000Y-95100000D01*
X97590000Y-94250000D02*
X90340000Y-94250000D01*
X84690000Y-99900000D02*
X84690000Y-100858124D01*
X85538819Y-101706943D02*
X85538819Y-106069137D01*
X110990000Y-95800000D02*
X110690000Y-96100000D01*
X110690000Y-96100000D02*
X108990000Y-96100000D01*
X85538819Y-106069137D02*
X85094386Y-106513570D01*
X84690000Y-100858124D02*
X85538819Y-101706943D01*
X90340000Y-94250000D02*
X84690000Y-99900000D01*
D25*
X104790000Y-96800000D02*
X104790000Y-99800000D01*
X104790000Y-88500000D02*
X112390000Y-88500000D01*
X104790000Y-99800000D02*
X104790000Y-109500000D01*
X104790000Y-109500000D02*
X104790000Y-117100000D01*
X106889511Y-119199511D02*
X107890489Y-119199511D01*
X112390000Y-88500000D02*
X116990000Y-93100000D01*
X83989511Y-81099511D02*
X103389511Y-81099511D01*
X104790000Y-96800000D02*
X102890000Y-96800000D01*
X104790000Y-84472102D02*
X104790000Y-88500000D01*
X116240478Y-84070489D02*
X116890000Y-84720011D01*
X102890000Y-96800000D02*
X101990000Y-95900000D01*
X104890000Y-84372102D02*
X104790000Y-84472102D01*
X102190489Y-119199511D02*
X101190000Y-120200000D01*
X104790000Y-99800000D02*
X117090000Y-99800000D01*
X107890489Y-119199511D02*
X116190489Y-119199511D01*
X105290000Y-83000000D02*
X106360489Y-84070489D01*
X116040489Y-109350489D02*
X116690000Y-110000000D01*
X107890489Y-119199511D02*
X102190489Y-119199511D01*
X104790000Y-109500000D02*
X104939511Y-109350489D01*
X104790000Y-88500000D02*
X104790000Y-96800000D01*
X104939511Y-109350489D02*
X116040489Y-109350489D01*
X104790000Y-117100000D02*
X106889511Y-119199511D01*
X104890000Y-82600000D02*
X104890000Y-84372102D01*
X117090000Y-99800000D02*
X117190000Y-99700000D01*
X116190489Y-119199511D02*
X116290000Y-119100000D01*
X103389511Y-81099511D02*
X104890000Y-82600000D01*
X83190000Y-80300000D02*
X83989511Y-81099511D01*
X106590022Y-77899000D02*
X117190000Y-77899000D01*
X104890000Y-82600000D02*
X105290000Y-83000000D01*
X106360489Y-84070489D02*
X116240478Y-84070489D01*
X103389511Y-81099511D02*
X106590022Y-77899000D01*
D22*
X92840000Y-89368548D02*
X83290000Y-98918548D01*
D23*
X91764511Y-86662029D02*
X89322482Y-84220000D01*
X89322482Y-84220000D02*
X77750000Y-84220000D01*
X99090000Y-106175500D02*
X98164511Y-105250011D01*
X98164511Y-105250011D02*
X98164511Y-93174511D01*
X98164511Y-93174511D02*
X91764511Y-86774511D01*
D22*
X82690000Y-106900000D02*
X82690000Y-98150000D01*
X82590000Y-107000000D02*
X82690000Y-106900000D01*
X82690000Y-98150000D02*
X85930000Y-94910000D01*
G04 #@! TA.AperFunction,Conductor*
G36*
X142664823Y-115910284D02*
G01*
X142720239Y-115965700D01*
X142739694Y-116025574D01*
X142746458Y-116089928D01*
X142786774Y-116214007D01*
X142802142Y-116261303D01*
X142805473Y-116271556D01*
X142812387Y-116283531D01*
X142884989Y-116409281D01*
X142900960Y-116436944D01*
X142906269Y-116442840D01*
X142906271Y-116442843D01*
X142944939Y-116485788D01*
X143028747Y-116578866D01*
X143183248Y-116691118D01*
X143190493Y-116694344D01*
X143190497Y-116694346D01*
X143350463Y-116765567D01*
X143350467Y-116765568D01*
X143357712Y-116768794D01*
X143477738Y-116794306D01*
X143536754Y-116806851D01*
X143536756Y-116806851D01*
X143544513Y-116808500D01*
X143735487Y-116808500D01*
X143743244Y-116806851D01*
X143743246Y-116806851D01*
X143802262Y-116794306D01*
X143922288Y-116768794D01*
X143929533Y-116765568D01*
X143929537Y-116765567D01*
X144089503Y-116694346D01*
X144089507Y-116694344D01*
X144096752Y-116691118D01*
X144251253Y-116578866D01*
X144335061Y-116485788D01*
X144373729Y-116442843D01*
X144373731Y-116442840D01*
X144379040Y-116436944D01*
X144395012Y-116409281D01*
X144467613Y-116283531D01*
X144474527Y-116271556D01*
X144477859Y-116261303D01*
X144493226Y-116214007D01*
X144533542Y-116089928D01*
X144540306Y-116025574D01*
X144568392Y-115952409D01*
X144629298Y-115903089D01*
X144690877Y-115890000D01*
X149221750Y-115890000D01*
X149297450Y-115910284D01*
X149352866Y-115965700D01*
X149354810Y-115969515D01*
X149355473Y-115971556D01*
X149358679Y-115977108D01*
X149358680Y-115977111D01*
X149394948Y-116039928D01*
X149450960Y-116136944D01*
X149578747Y-116278866D01*
X149733248Y-116391118D01*
X149740493Y-116394344D01*
X149740497Y-116394346D01*
X149900463Y-116465567D01*
X149900467Y-116465568D01*
X149907712Y-116468794D01*
X150022504Y-116493194D01*
X150086754Y-116506851D01*
X150086756Y-116506851D01*
X150094513Y-116508500D01*
X150285487Y-116508500D01*
X150293244Y-116506851D01*
X150293246Y-116506851D01*
X150357496Y-116493194D01*
X150472288Y-116468794D01*
X150479533Y-116465568D01*
X150479537Y-116465567D01*
X150578420Y-116421541D01*
X150655826Y-116409281D01*
X150701580Y-116421541D01*
X150800463Y-116465567D01*
X150800467Y-116465568D01*
X150807712Y-116468794D01*
X150922504Y-116493194D01*
X150986754Y-116506851D01*
X150986756Y-116506851D01*
X150994513Y-116508500D01*
X151185487Y-116508500D01*
X151193244Y-116506851D01*
X151193246Y-116506851D01*
X151257496Y-116493194D01*
X151372288Y-116468794D01*
X151379533Y-116465568D01*
X151379537Y-116465567D01*
X151478420Y-116421541D01*
X151555826Y-116409281D01*
X151601580Y-116421541D01*
X151700463Y-116465567D01*
X151700467Y-116465568D01*
X151707712Y-116468794D01*
X151822504Y-116493194D01*
X151886754Y-116506851D01*
X151886756Y-116506851D01*
X151894513Y-116508500D01*
X152085487Y-116508500D01*
X152093244Y-116506851D01*
X152093246Y-116506851D01*
X152157496Y-116493194D01*
X155776580Y-116493194D01*
X155777265Y-116496635D01*
X155779717Y-116500057D01*
X156804904Y-117525244D01*
X156819000Y-117533382D01*
X156833096Y-117525244D01*
X157852966Y-116505374D01*
X157861104Y-116491278D01*
X157859350Y-116488239D01*
X157855929Y-116485788D01*
X157726524Y-116421973D01*
X157717379Y-116418185D01*
X157434464Y-116322149D01*
X157424921Y-116319592D01*
X157131886Y-116261303D01*
X157122075Y-116260012D01*
X156823943Y-116240471D01*
X156814057Y-116240471D01*
X156515925Y-116260012D01*
X156506114Y-116261303D01*
X156213079Y-116319592D01*
X156203536Y-116322149D01*
X155920619Y-116418186D01*
X155911475Y-116421973D01*
X155788817Y-116482462D01*
X155776580Y-116493194D01*
X152157496Y-116493194D01*
X152272288Y-116468794D01*
X152279533Y-116465568D01*
X152279537Y-116465567D01*
X152439503Y-116394346D01*
X152439507Y-116394344D01*
X152446752Y-116391118D01*
X152601253Y-116278866D01*
X152729040Y-116136944D01*
X152824527Y-115971556D01*
X152825962Y-115972384D01*
X152869255Y-115918918D01*
X152942419Y-115890830D01*
X152958250Y-115890000D01*
X154291568Y-115890000D01*
X154323045Y-115893309D01*
X154394513Y-115908500D01*
X154585487Y-115908500D01*
X154656955Y-115893309D01*
X154688432Y-115890000D01*
X155191568Y-115890000D01*
X155223045Y-115893309D01*
X155294513Y-115908500D01*
X155485487Y-115908500D01*
X155556955Y-115893309D01*
X155588432Y-115890000D01*
X156091568Y-115890000D01*
X156123045Y-115893309D01*
X156194513Y-115908500D01*
X156385487Y-115908500D01*
X156456955Y-115893309D01*
X156488432Y-115890000D01*
X156991568Y-115890000D01*
X157023045Y-115893309D01*
X157094513Y-115908500D01*
X157285487Y-115908500D01*
X157356955Y-115893309D01*
X157388432Y-115890000D01*
X157891568Y-115890000D01*
X157923045Y-115893309D01*
X157994513Y-115908500D01*
X158185487Y-115908500D01*
X158256955Y-115893309D01*
X158288432Y-115890000D01*
X158791568Y-115890000D01*
X158823045Y-115893309D01*
X158894513Y-115908500D01*
X159085487Y-115908500D01*
X159149125Y-115894973D01*
X159227385Y-115899075D01*
X159293112Y-115941759D01*
X159328692Y-116011587D01*
X159332000Y-116043065D01*
X159332000Y-117760246D01*
X159311716Y-117835946D01*
X159256300Y-117891362D01*
X159180600Y-117911646D01*
X159104900Y-117891362D01*
X159049484Y-117835946D01*
X159037235Y-117808912D01*
X159000814Y-117701618D01*
X158997027Y-117692475D01*
X158936538Y-117569817D01*
X158925806Y-117557580D01*
X158922365Y-117558265D01*
X158918943Y-117560717D01*
X157893756Y-118585904D01*
X157885618Y-118600000D01*
X157893756Y-118614096D01*
X158913625Y-119633965D01*
X158927721Y-119642103D01*
X158930760Y-119640349D01*
X158933212Y-119636927D01*
X158997027Y-119507525D01*
X159000814Y-119498382D01*
X159037235Y-119391088D01*
X159080775Y-119325926D01*
X159151063Y-119291263D01*
X159229266Y-119296389D01*
X159294428Y-119339929D01*
X159329091Y-119410217D01*
X159332000Y-119439754D01*
X159332000Y-120198710D01*
X159330197Y-120222002D01*
X159326814Y-120243730D01*
X159328213Y-120254428D01*
X159328213Y-120254434D01*
X159328305Y-120255139D01*
X159329116Y-120286646D01*
X159317644Y-120432410D01*
X159313928Y-120455874D01*
X159273993Y-120622216D01*
X159266654Y-120644804D01*
X159211471Y-120778027D01*
X159201191Y-120802845D01*
X159190406Y-120824012D01*
X159101025Y-120969869D01*
X159087061Y-120989089D01*
X158975966Y-121119166D01*
X158959166Y-121135966D01*
X158829089Y-121247061D01*
X158809869Y-121261025D01*
X158664012Y-121350406D01*
X158642846Y-121361190D01*
X158484804Y-121426654D01*
X158462218Y-121433992D01*
X158416912Y-121444869D01*
X158295874Y-121473928D01*
X158272410Y-121477644D01*
X158244217Y-121479863D01*
X158133953Y-121488541D01*
X158117723Y-121487923D01*
X158117715Y-121488605D01*
X158106928Y-121488473D01*
X158096270Y-121486814D01*
X158066614Y-121490692D01*
X158066385Y-121490722D01*
X158046754Y-121492000D01*
X135866300Y-121492000D01*
X135790600Y-121471716D01*
X135735184Y-121416300D01*
X135714900Y-121340600D01*
X135714900Y-120708722D01*
X155776896Y-120708722D01*
X155778650Y-120711761D01*
X155782071Y-120714212D01*
X155911476Y-120778027D01*
X155920621Y-120781815D01*
X156203536Y-120877851D01*
X156213079Y-120880408D01*
X156506114Y-120938697D01*
X156515925Y-120939988D01*
X156814057Y-120959529D01*
X156823943Y-120959529D01*
X157122075Y-120939988D01*
X157131886Y-120938697D01*
X157424921Y-120880408D01*
X157434464Y-120877851D01*
X157717379Y-120781815D01*
X157726524Y-120778027D01*
X157849184Y-120717538D01*
X157861421Y-120706807D01*
X157860737Y-120703367D01*
X157858284Y-120699944D01*
X156833096Y-119674756D01*
X156819000Y-119666618D01*
X156804904Y-119674756D01*
X155785034Y-120694626D01*
X155776896Y-120708722D01*
X135714900Y-120708722D01*
X135714900Y-118604943D01*
X154459471Y-118604943D01*
X154479012Y-118903075D01*
X154480303Y-118912886D01*
X154538592Y-119205921D01*
X154541149Y-119215464D01*
X154637186Y-119498381D01*
X154640973Y-119507525D01*
X154701462Y-119630183D01*
X154712194Y-119642420D01*
X154715635Y-119641735D01*
X154719057Y-119639283D01*
X155744244Y-118614096D01*
X155752382Y-118600000D01*
X155744244Y-118585904D01*
X154724375Y-117566035D01*
X154710279Y-117557897D01*
X154707240Y-117559651D01*
X154704788Y-117563073D01*
X154640973Y-117692475D01*
X154637186Y-117701619D01*
X154541149Y-117984536D01*
X154538592Y-117994079D01*
X154480303Y-118287114D01*
X154479012Y-118296925D01*
X154459471Y-118595057D01*
X154459471Y-118604943D01*
X135714900Y-118604943D01*
X135714900Y-116705075D01*
X135735184Y-116629375D01*
X135777309Y-116582590D01*
X135844831Y-116533532D01*
X135844832Y-116533531D01*
X135851253Y-116528866D01*
X135908326Y-116465479D01*
X135973729Y-116392843D01*
X135973731Y-116392840D01*
X135979040Y-116386944D01*
X136016450Y-116322149D01*
X136070557Y-116228432D01*
X136074527Y-116221556D01*
X136100103Y-116142843D01*
X136131092Y-116047469D01*
X136131092Y-116047467D01*
X136133542Y-116039928D01*
X136134372Y-116032035D01*
X136135052Y-116025571D01*
X136163139Y-115952406D01*
X136224045Y-115903088D01*
X136285622Y-115890000D01*
X142589123Y-115890000D01*
X142664823Y-115910284D01*
G37*
G04 #@! TD.AperFunction*
G04 #@! TA.AperFunction,Conductor*
G36*
X159256300Y-99585284D02*
G01*
X159311716Y-99640700D01*
X159332000Y-99716400D01*
X159332000Y-102338939D01*
X159311716Y-102414639D01*
X159256300Y-102470055D01*
X159180600Y-102490339D01*
X159104900Y-102470055D01*
X159049484Y-102414639D01*
X159032109Y-102368476D01*
X158999408Y-102204079D01*
X158996851Y-102194536D01*
X158900814Y-101911619D01*
X158897027Y-101902475D01*
X158836538Y-101779817D01*
X158825806Y-101767580D01*
X158822365Y-101768265D01*
X158818943Y-101770717D01*
X157793756Y-102795904D01*
X157785618Y-102810000D01*
X157793756Y-102824096D01*
X158813625Y-103843965D01*
X158827721Y-103852103D01*
X158830760Y-103850349D01*
X158833212Y-103846927D01*
X158897027Y-103717525D01*
X158900814Y-103708381D01*
X158996851Y-103425464D01*
X158999408Y-103415921D01*
X159032109Y-103251524D01*
X159066771Y-103181236D01*
X159131934Y-103137696D01*
X159210137Y-103132570D01*
X159280425Y-103167232D01*
X159323965Y-103232395D01*
X159332000Y-103281061D01*
X159332000Y-105413701D01*
X159311716Y-105489401D01*
X159256300Y-105544817D01*
X159180600Y-105565101D01*
X159119021Y-105552012D01*
X159079541Y-105534435D01*
X159079539Y-105534434D01*
X159072288Y-105531206D01*
X158952262Y-105505694D01*
X158893246Y-105493149D01*
X158893244Y-105493149D01*
X158885487Y-105491500D01*
X158694513Y-105491500D01*
X158686756Y-105493149D01*
X158686754Y-105493149D01*
X158627738Y-105505694D01*
X158507712Y-105531206D01*
X158500467Y-105534432D01*
X158500463Y-105534433D01*
X158401580Y-105578459D01*
X158324174Y-105590719D01*
X158278420Y-105578459D01*
X158179537Y-105534433D01*
X158179533Y-105534432D01*
X158172288Y-105531206D01*
X158052262Y-105505694D01*
X157993246Y-105493149D01*
X157993244Y-105493149D01*
X157985487Y-105491500D01*
X157794513Y-105491500D01*
X157786756Y-105493149D01*
X157786754Y-105493149D01*
X157727738Y-105505694D01*
X157607712Y-105531206D01*
X157600467Y-105534432D01*
X157600463Y-105534433D01*
X157501580Y-105578459D01*
X157424174Y-105590719D01*
X157378420Y-105578459D01*
X157279537Y-105534433D01*
X157279533Y-105534432D01*
X157272288Y-105531206D01*
X157152262Y-105505694D01*
X157093246Y-105493149D01*
X157093244Y-105493149D01*
X157085487Y-105491500D01*
X156894513Y-105491500D01*
X156886756Y-105493149D01*
X156886754Y-105493149D01*
X156827738Y-105505694D01*
X156707712Y-105531206D01*
X156700467Y-105534432D01*
X156700463Y-105534433D01*
X156601580Y-105578459D01*
X156524174Y-105590719D01*
X156478420Y-105578459D01*
X156379537Y-105534433D01*
X156379533Y-105534432D01*
X156372288Y-105531206D01*
X156252262Y-105505694D01*
X156193246Y-105493149D01*
X156193244Y-105493149D01*
X156185487Y-105491500D01*
X155994513Y-105491500D01*
X155986756Y-105493149D01*
X155986754Y-105493149D01*
X155927738Y-105505694D01*
X155807712Y-105531206D01*
X155800467Y-105534432D01*
X155800463Y-105534433D01*
X155701580Y-105578459D01*
X155624174Y-105590719D01*
X155578420Y-105578459D01*
X155479537Y-105534433D01*
X155479533Y-105534432D01*
X155472288Y-105531206D01*
X155352262Y-105505694D01*
X155293246Y-105493149D01*
X155293244Y-105493149D01*
X155285487Y-105491500D01*
X155094513Y-105491500D01*
X155086756Y-105493149D01*
X155086754Y-105493149D01*
X155027738Y-105505694D01*
X154907712Y-105531206D01*
X154900467Y-105534432D01*
X154900463Y-105534433D01*
X154801580Y-105578459D01*
X154724174Y-105590719D01*
X154678420Y-105578459D01*
X154579537Y-105534433D01*
X154579533Y-105534432D01*
X154572288Y-105531206D01*
X154452262Y-105505694D01*
X154393246Y-105493149D01*
X154393244Y-105493149D01*
X154385487Y-105491500D01*
X154194513Y-105491500D01*
X154186756Y-105493149D01*
X154186754Y-105493149D01*
X154127738Y-105505694D01*
X154007712Y-105531206D01*
X154000467Y-105534432D01*
X154000463Y-105534433D01*
X153840497Y-105605654D01*
X153840493Y-105605656D01*
X153833248Y-105608882D01*
X153678747Y-105721134D01*
X153603316Y-105804908D01*
X153537593Y-105847590D01*
X153490807Y-105855000D01*
X153008139Y-105855000D01*
X152932439Y-105834716D01*
X152877023Y-105779300D01*
X152864149Y-105750386D01*
X152826980Y-105635993D01*
X152826979Y-105635992D01*
X152824527Y-105628444D01*
X152768387Y-105531206D01*
X152733009Y-105469930D01*
X152733008Y-105469928D01*
X152729040Y-105463056D01*
X152601253Y-105321134D01*
X152446752Y-105208882D01*
X152439507Y-105205656D01*
X152439503Y-105205654D01*
X152279537Y-105134433D01*
X152279533Y-105134432D01*
X152272288Y-105131206D01*
X152152262Y-105105694D01*
X152093246Y-105093149D01*
X152093244Y-105093149D01*
X152085487Y-105091500D01*
X151894513Y-105091500D01*
X151886756Y-105093149D01*
X151886754Y-105093149D01*
X151827738Y-105105694D01*
X151707712Y-105131206D01*
X151700467Y-105134432D01*
X151700463Y-105134433D01*
X151601580Y-105178459D01*
X151524174Y-105190719D01*
X151478420Y-105178459D01*
X151379537Y-105134433D01*
X151379533Y-105134432D01*
X151372288Y-105131206D01*
X151252262Y-105105694D01*
X151193246Y-105093149D01*
X151193244Y-105093149D01*
X151185487Y-105091500D01*
X150994513Y-105091500D01*
X150986756Y-105093149D01*
X150986754Y-105093149D01*
X150927738Y-105105694D01*
X150807712Y-105131206D01*
X150800467Y-105134432D01*
X150800463Y-105134433D01*
X150701580Y-105178459D01*
X150624174Y-105190719D01*
X150578420Y-105178459D01*
X150479537Y-105134433D01*
X150479533Y-105134432D01*
X150472288Y-105131206D01*
X150352262Y-105105694D01*
X150293246Y-105093149D01*
X150293244Y-105093149D01*
X150285487Y-105091500D01*
X150094513Y-105091500D01*
X150086756Y-105093149D01*
X150086754Y-105093149D01*
X150027738Y-105105694D01*
X149907712Y-105131206D01*
X149900467Y-105134432D01*
X149900463Y-105134433D01*
X149740497Y-105205654D01*
X149740493Y-105205656D01*
X149733248Y-105208882D01*
X149578747Y-105321134D01*
X149450960Y-105463056D01*
X149446992Y-105469928D01*
X149446991Y-105469930D01*
X149411613Y-105531206D01*
X149355473Y-105628444D01*
X149353021Y-105635992D01*
X149353020Y-105635993D01*
X149315851Y-105750386D01*
X149273167Y-105816113D01*
X149203338Y-105851692D01*
X149171861Y-105855000D01*
X138357912Y-105855000D01*
X138296332Y-105841911D01*
X138279537Y-105834433D01*
X138279533Y-105834432D01*
X138272288Y-105831206D01*
X138148557Y-105804906D01*
X138093246Y-105793149D01*
X138093244Y-105793149D01*
X138085487Y-105791500D01*
X137894513Y-105791500D01*
X137886756Y-105793149D01*
X137886754Y-105793149D01*
X137831443Y-105804906D01*
X137707712Y-105831206D01*
X137700467Y-105834432D01*
X137700463Y-105834433D01*
X137683668Y-105841911D01*
X137622088Y-105855000D01*
X135081300Y-105855000D01*
X135005600Y-105834716D01*
X134950184Y-105779300D01*
X134929900Y-105703600D01*
X134929900Y-104918722D01*
X155676896Y-104918722D01*
X155678650Y-104921761D01*
X155682071Y-104924212D01*
X155811476Y-104988027D01*
X155820621Y-104991815D01*
X156103536Y-105087851D01*
X156113079Y-105090408D01*
X156406114Y-105148697D01*
X156415925Y-105149988D01*
X156714057Y-105169529D01*
X156723943Y-105169529D01*
X157022075Y-105149988D01*
X157031886Y-105148697D01*
X157324921Y-105090408D01*
X157334464Y-105087851D01*
X157617379Y-104991815D01*
X157626524Y-104988027D01*
X157749184Y-104927538D01*
X157761421Y-104916807D01*
X157760737Y-104913367D01*
X157758284Y-104909944D01*
X156733096Y-103884756D01*
X156719000Y-103876618D01*
X156704904Y-103884756D01*
X155685034Y-104904626D01*
X155676896Y-104918722D01*
X134929900Y-104918722D01*
X134929900Y-104381123D01*
X134950184Y-104305423D01*
X135005600Y-104250007D01*
X135018278Y-104243491D01*
X135026108Y-104240947D01*
X135050810Y-104226222D01*
X135174638Y-104152405D01*
X135181912Y-104148069D01*
X135313266Y-104022982D01*
X135413643Y-103871902D01*
X135478055Y-103702338D01*
X135503299Y-103522717D01*
X135503616Y-103500000D01*
X135483397Y-103319745D01*
X135480614Y-103311753D01*
X135480613Y-103311749D01*
X135432213Y-103172764D01*
X135426473Y-103094604D01*
X135433659Y-103069209D01*
X135475048Y-102960255D01*
X135475049Y-102960252D01*
X135478055Y-102952338D01*
X135497365Y-102814943D01*
X154359471Y-102814943D01*
X154379012Y-103113075D01*
X154380303Y-103122886D01*
X154438592Y-103415921D01*
X154441149Y-103425464D01*
X154537186Y-103708381D01*
X154540973Y-103717525D01*
X154601462Y-103840183D01*
X154612194Y-103852420D01*
X154615635Y-103851735D01*
X154619057Y-103849283D01*
X155644244Y-102824096D01*
X155652382Y-102810000D01*
X155644244Y-102795904D01*
X154624375Y-101776035D01*
X154610279Y-101767897D01*
X154607240Y-101769651D01*
X154604788Y-101773073D01*
X154540973Y-101902475D01*
X154537186Y-101911619D01*
X154441149Y-102194536D01*
X154438592Y-102204079D01*
X154380303Y-102497114D01*
X154379012Y-102506925D01*
X154359471Y-102805057D01*
X154359471Y-102814943D01*
X135497365Y-102814943D01*
X135503299Y-102772717D01*
X135503616Y-102750000D01*
X135483397Y-102569745D01*
X135480614Y-102561753D01*
X135480613Y-102561749D01*
X135432213Y-102422764D01*
X135426473Y-102344604D01*
X135433659Y-102319209D01*
X135475048Y-102210255D01*
X135475049Y-102210252D01*
X135478055Y-102202338D01*
X135503299Y-102022717D01*
X135503616Y-102000000D01*
X135496853Y-101939705D01*
X135484341Y-101828157D01*
X135484340Y-101828153D01*
X135483397Y-101819745D01*
X135480614Y-101811753D01*
X135480613Y-101811749D01*
X135432213Y-101672764D01*
X135426473Y-101594604D01*
X135433659Y-101569209D01*
X135475048Y-101460255D01*
X135475049Y-101460252D01*
X135478055Y-101452338D01*
X135503299Y-101272717D01*
X135503616Y-101250000D01*
X135483397Y-101069745D01*
X135480614Y-101061753D01*
X135480613Y-101061749D01*
X135432213Y-100922764D01*
X135426473Y-100844604D01*
X135433659Y-100819209D01*
X135475048Y-100710255D01*
X135475049Y-100710252D01*
X135477730Y-100703194D01*
X155676580Y-100703194D01*
X155677265Y-100706635D01*
X155679717Y-100710057D01*
X156704904Y-101735244D01*
X156719000Y-101743382D01*
X156733096Y-101735244D01*
X157752966Y-100715374D01*
X157761104Y-100701278D01*
X157759350Y-100698239D01*
X157755929Y-100695788D01*
X157626524Y-100631973D01*
X157617379Y-100628185D01*
X157334464Y-100532149D01*
X157324921Y-100529592D01*
X157031886Y-100471303D01*
X157022075Y-100470012D01*
X156723943Y-100450471D01*
X156714057Y-100450471D01*
X156415925Y-100470012D01*
X156406114Y-100471303D01*
X156113079Y-100529592D01*
X156103536Y-100532149D01*
X155820619Y-100628186D01*
X155811475Y-100631973D01*
X155688817Y-100692462D01*
X155676580Y-100703194D01*
X135477730Y-100703194D01*
X135478055Y-100702338D01*
X135493167Y-100594813D01*
X135502638Y-100527421D01*
X135502638Y-100527419D01*
X135503299Y-100522717D01*
X135503616Y-100500000D01*
X135483397Y-100319745D01*
X135423745Y-100148448D01*
X135327626Y-99994624D01*
X135318835Y-99985771D01*
X135205778Y-99871922D01*
X135205774Y-99871919D01*
X135199815Y-99865918D01*
X135165640Y-99844230D01*
X135112595Y-99786543D01*
X135095499Y-99710060D01*
X135118935Y-99635275D01*
X135176623Y-99582229D01*
X135246766Y-99565000D01*
X159180600Y-99565000D01*
X159256300Y-99585284D01*
G37*
G04 #@! TD.AperFunction*
G04 #@! TA.AperFunction,Conductor*
G36*
X143804229Y-68528284D02*
G01*
X143859645Y-68583700D01*
X143879929Y-68659400D01*
X143879100Y-68675223D01*
X143876496Y-68700000D01*
X143877325Y-68707888D01*
X143894550Y-68871773D01*
X143896458Y-68889928D01*
X143955473Y-69071556D01*
X143959443Y-69078432D01*
X144021631Y-69186144D01*
X144050960Y-69236944D01*
X144056269Y-69242840D01*
X144056271Y-69242843D01*
X144066072Y-69253728D01*
X144178747Y-69378866D01*
X144185168Y-69383531D01*
X144318802Y-69480622D01*
X144333248Y-69491118D01*
X144340493Y-69494344D01*
X144340497Y-69494346D01*
X144500463Y-69565567D01*
X144500467Y-69565568D01*
X144507712Y-69568794D01*
X144627738Y-69594306D01*
X144686754Y-69606851D01*
X144686756Y-69606851D01*
X144694513Y-69608500D01*
X144885487Y-69608500D01*
X144893244Y-69606851D01*
X144893246Y-69606851D01*
X144952262Y-69594306D01*
X145072288Y-69568794D01*
X145079533Y-69565568D01*
X145079537Y-69565567D01*
X145239503Y-69494346D01*
X145239507Y-69494344D01*
X145246752Y-69491118D01*
X145261199Y-69480622D01*
X145394832Y-69383531D01*
X145401253Y-69378866D01*
X145513928Y-69253728D01*
X145523729Y-69242843D01*
X145523731Y-69242840D01*
X145529040Y-69236944D01*
X145558370Y-69186144D01*
X145620557Y-69078432D01*
X145624527Y-69071556D01*
X145683542Y-68889928D01*
X145685451Y-68871773D01*
X145702675Y-68707888D01*
X145703504Y-68700000D01*
X145700900Y-68675225D01*
X145713160Y-68597820D01*
X145762480Y-68536915D01*
X145835645Y-68508829D01*
X145851471Y-68508000D01*
X158038710Y-68508000D01*
X158062002Y-68509803D01*
X158065090Y-68510284D01*
X158073068Y-68511526D01*
X158073069Y-68511526D01*
X158083730Y-68513186D01*
X158094428Y-68511787D01*
X158094434Y-68511787D01*
X158095139Y-68511695D01*
X158126646Y-68510884D01*
X158272410Y-68522356D01*
X158295874Y-68526072D01*
X158405305Y-68552344D01*
X158462218Y-68566008D01*
X158484804Y-68573346D01*
X158642845Y-68638809D01*
X158664012Y-68649594D01*
X158809869Y-68738975D01*
X158829089Y-68752939D01*
X158959166Y-68864034D01*
X158975964Y-68880832D01*
X159055913Y-68974441D01*
X159087061Y-69010911D01*
X159101025Y-69030131D01*
X159190406Y-69175988D01*
X159201190Y-69197154D01*
X159266654Y-69355196D01*
X159273993Y-69377784D01*
X159313928Y-69544126D01*
X159317644Y-69567590D01*
X159328541Y-69706043D01*
X159327923Y-69722277D01*
X159328605Y-69722285D01*
X159328473Y-69733072D01*
X159326814Y-69743730D01*
X159328213Y-69754426D01*
X159330722Y-69773615D01*
X159332000Y-69793246D01*
X159332000Y-74925315D01*
X159311716Y-75001015D01*
X159256300Y-75056431D01*
X159180600Y-75076715D01*
X159104900Y-75056431D01*
X159091609Y-75047800D01*
X159003173Y-74983547D01*
X159003172Y-74983546D01*
X158996752Y-74978882D01*
X158989507Y-74975656D01*
X158989503Y-74975654D01*
X158829537Y-74904433D01*
X158829533Y-74904432D01*
X158822288Y-74901206D01*
X158702262Y-74875694D01*
X158643246Y-74863149D01*
X158643244Y-74863149D01*
X158635487Y-74861500D01*
X158444513Y-74861500D01*
X158436756Y-74863149D01*
X158436754Y-74863149D01*
X158377738Y-74875694D01*
X158257712Y-74901206D01*
X158250467Y-74904432D01*
X158250463Y-74904433D01*
X158101580Y-74970720D01*
X158024174Y-74982980D01*
X157978420Y-74970720D01*
X157829537Y-74904433D01*
X157829533Y-74904432D01*
X157822288Y-74901206D01*
X157702262Y-74875694D01*
X157643246Y-74863149D01*
X157643244Y-74863149D01*
X157635487Y-74861500D01*
X157444513Y-74861500D01*
X157436756Y-74863149D01*
X157436754Y-74863149D01*
X157377738Y-74875694D01*
X157257712Y-74901206D01*
X157250467Y-74904432D01*
X157250463Y-74904433D01*
X157101580Y-74970720D01*
X157024174Y-74982980D01*
X156978420Y-74970720D01*
X156829537Y-74904433D01*
X156829533Y-74904432D01*
X156822288Y-74901206D01*
X156702262Y-74875694D01*
X156643246Y-74863149D01*
X156643244Y-74863149D01*
X156635487Y-74861500D01*
X156444513Y-74861500D01*
X156436756Y-74863149D01*
X156436754Y-74863149D01*
X156377738Y-74875694D01*
X156257712Y-74901206D01*
X156250467Y-74904432D01*
X156250463Y-74904433D01*
X156101580Y-74970720D01*
X156024174Y-74982980D01*
X155978420Y-74970720D01*
X155829537Y-74904433D01*
X155829533Y-74904432D01*
X155822288Y-74901206D01*
X155702262Y-74875694D01*
X155643246Y-74863149D01*
X155643244Y-74863149D01*
X155635487Y-74861500D01*
X155444513Y-74861500D01*
X155436756Y-74863149D01*
X155436754Y-74863149D01*
X155377738Y-74875694D01*
X155257712Y-74901206D01*
X155250467Y-74904432D01*
X155250463Y-74904433D01*
X155101580Y-74970720D01*
X155024174Y-74982980D01*
X154978420Y-74970720D01*
X154829537Y-74904433D01*
X154829533Y-74904432D01*
X154822288Y-74901206D01*
X154702262Y-74875694D01*
X154643246Y-74863149D01*
X154643244Y-74863149D01*
X154635487Y-74861500D01*
X154537506Y-74861500D01*
X154461806Y-74841216D01*
X154406390Y-74785800D01*
X154393516Y-74756886D01*
X154374527Y-74698444D01*
X154338667Y-74636333D01*
X154283009Y-74539930D01*
X154283008Y-74539928D01*
X154279040Y-74533056D01*
X154151253Y-74391134D01*
X154042080Y-74311815D01*
X154003173Y-74283547D01*
X154003172Y-74283546D01*
X153996752Y-74278882D01*
X153989507Y-74275656D01*
X153989503Y-74275654D01*
X153906552Y-74238722D01*
X155576896Y-74238722D01*
X155578650Y-74241761D01*
X155582071Y-74244212D01*
X155711476Y-74308027D01*
X155720621Y-74311815D01*
X156003536Y-74407851D01*
X156013079Y-74410408D01*
X156306114Y-74468697D01*
X156315925Y-74469988D01*
X156614057Y-74489529D01*
X156623943Y-74489529D01*
X156922075Y-74469988D01*
X156931886Y-74468697D01*
X157224921Y-74410408D01*
X157234464Y-74407851D01*
X157517379Y-74311815D01*
X157526524Y-74308027D01*
X157649184Y-74247538D01*
X157661421Y-74236807D01*
X157660737Y-74233367D01*
X157658284Y-74229944D01*
X156633096Y-73204756D01*
X156619000Y-73196618D01*
X156604904Y-73204756D01*
X155585034Y-74224626D01*
X155576896Y-74238722D01*
X153906552Y-74238722D01*
X153829537Y-74204433D01*
X153829533Y-74204432D01*
X153822288Y-74201206D01*
X153702262Y-74175694D01*
X153643246Y-74163149D01*
X153643244Y-74163149D01*
X153635487Y-74161500D01*
X153444513Y-74161500D01*
X153436756Y-74163149D01*
X153436754Y-74163149D01*
X153377738Y-74175694D01*
X153257712Y-74201206D01*
X153250467Y-74204432D01*
X153250463Y-74204433D01*
X153101580Y-74270720D01*
X153024174Y-74282980D01*
X152978420Y-74270720D01*
X152829537Y-74204433D01*
X152829533Y-74204432D01*
X152822288Y-74201206D01*
X152702262Y-74175694D01*
X152643246Y-74163149D01*
X152643244Y-74163149D01*
X152635487Y-74161500D01*
X152444513Y-74161500D01*
X152436756Y-74163149D01*
X152436754Y-74163149D01*
X152377738Y-74175694D01*
X152257712Y-74201206D01*
X152250467Y-74204432D01*
X152250463Y-74204433D01*
X152101580Y-74270720D01*
X152024174Y-74282980D01*
X151978420Y-74270720D01*
X151829537Y-74204433D01*
X151829533Y-74204432D01*
X151822288Y-74201206D01*
X151702262Y-74175694D01*
X151643246Y-74163149D01*
X151643244Y-74163149D01*
X151635487Y-74161500D01*
X151588932Y-74161500D01*
X151513232Y-74141216D01*
X151457816Y-74085800D01*
X151438361Y-74025924D01*
X151434371Y-73987958D01*
X151434371Y-73987957D01*
X151433542Y-73980072D01*
X151431090Y-73972524D01*
X151376980Y-73805993D01*
X151376979Y-73805992D01*
X151374527Y-73798444D01*
X151279040Y-73633056D01*
X151151253Y-73491134D01*
X150996752Y-73378882D01*
X150989507Y-73375656D01*
X150989503Y-73375654D01*
X150829537Y-73304433D01*
X150829533Y-73304432D01*
X150822288Y-73301206D01*
X150702262Y-73275694D01*
X150643246Y-73263149D01*
X150643244Y-73263149D01*
X150635487Y-73261500D01*
X150444513Y-73261500D01*
X150436756Y-73263149D01*
X150436754Y-73263149D01*
X150377738Y-73275694D01*
X150257712Y-73301206D01*
X150250467Y-73304432D01*
X150250463Y-73304433D01*
X150090497Y-73375654D01*
X150090493Y-73375656D01*
X150083248Y-73378882D01*
X149928747Y-73491134D01*
X149800960Y-73633056D01*
X149705473Y-73798444D01*
X149646458Y-73980072D01*
X149645629Y-73987958D01*
X149645628Y-73987965D01*
X149629521Y-74141216D01*
X149626496Y-74170000D01*
X149627325Y-74177888D01*
X149638371Y-74282980D01*
X149646458Y-74359928D01*
X149682219Y-74469988D01*
X149701436Y-74529130D01*
X149705473Y-74541556D01*
X149709443Y-74548432D01*
X149796053Y-74698444D01*
X149800960Y-74706944D01*
X149928747Y-74848866D01*
X150083248Y-74961118D01*
X150090493Y-74964344D01*
X150090497Y-74964346D01*
X150250463Y-75035567D01*
X150250467Y-75035568D01*
X150257712Y-75038794D01*
X150377738Y-75064306D01*
X150436754Y-75076851D01*
X150436756Y-75076851D01*
X150444513Y-75078500D01*
X150491068Y-75078500D01*
X150566768Y-75098784D01*
X150622184Y-75154200D01*
X150641639Y-75214075D01*
X150646458Y-75259928D01*
X150648908Y-75267467D01*
X150648908Y-75267469D01*
X150667531Y-75324785D01*
X150705473Y-75441556D01*
X150714214Y-75456695D01*
X150735925Y-75494300D01*
X150756209Y-75569999D01*
X150735925Y-75645699D01*
X150705473Y-75698444D01*
X150646458Y-75880072D01*
X150645629Y-75887961D01*
X150645628Y-75887965D01*
X150634965Y-75989425D01*
X150606880Y-76062590D01*
X150545975Y-76111911D01*
X150484394Y-76125000D01*
X135781300Y-76125000D01*
X135705600Y-76104716D01*
X135650184Y-76049300D01*
X135629900Y-75973600D01*
X135629900Y-75587811D01*
X135650184Y-75512111D01*
X135705600Y-75456695D01*
X135739060Y-75442423D01*
X135844448Y-75411805D01*
X135844456Y-75411802D01*
X135853600Y-75409145D01*
X135996807Y-75324453D01*
X136684927Y-74636333D01*
X136761304Y-74537868D01*
X136802430Y-74442834D01*
X136823598Y-74393917D01*
X136823598Y-74393916D01*
X136827380Y-74385177D01*
X136853406Y-74220848D01*
X136851855Y-74204433D01*
X136849172Y-74176056D01*
X136848500Y-74161808D01*
X136848500Y-72134943D01*
X154259471Y-72134943D01*
X154279012Y-72433075D01*
X154280303Y-72442886D01*
X154338592Y-72735921D01*
X154341149Y-72745464D01*
X154437186Y-73028381D01*
X154440973Y-73037525D01*
X154501462Y-73160183D01*
X154512194Y-73172420D01*
X154515635Y-73171735D01*
X154519057Y-73169283D01*
X155544244Y-72144096D01*
X155552382Y-72130000D01*
X157685618Y-72130000D01*
X157693756Y-72144096D01*
X158713625Y-73163965D01*
X158727721Y-73172103D01*
X158730760Y-73170349D01*
X158733212Y-73166927D01*
X158797027Y-73037525D01*
X158800814Y-73028381D01*
X158896851Y-72745464D01*
X158899408Y-72735921D01*
X158957697Y-72442886D01*
X158958988Y-72433075D01*
X158978529Y-72134943D01*
X158978529Y-72125057D01*
X158958988Y-71826925D01*
X158957697Y-71817114D01*
X158899408Y-71524079D01*
X158896851Y-71514536D01*
X158800814Y-71231619D01*
X158797027Y-71222475D01*
X158736538Y-71099817D01*
X158725806Y-71087580D01*
X158722365Y-71088265D01*
X158718943Y-71090717D01*
X157693756Y-72115904D01*
X157685618Y-72130000D01*
X155552382Y-72130000D01*
X155544244Y-72115904D01*
X154524375Y-71096035D01*
X154510279Y-71087897D01*
X154507240Y-71089651D01*
X154504788Y-71093073D01*
X154440973Y-71222475D01*
X154437186Y-71231619D01*
X154341149Y-71514536D01*
X154338592Y-71524079D01*
X154280303Y-71817114D01*
X154279012Y-71826925D01*
X154259471Y-72125057D01*
X154259471Y-72134943D01*
X136848500Y-72134943D01*
X136848500Y-70023194D01*
X155576580Y-70023194D01*
X155577265Y-70026635D01*
X155579717Y-70030057D01*
X156604904Y-71055244D01*
X156619000Y-71063382D01*
X156633096Y-71055244D01*
X157652966Y-70035374D01*
X157661104Y-70021278D01*
X157659350Y-70018239D01*
X157655929Y-70015788D01*
X157526524Y-69951973D01*
X157517379Y-69948185D01*
X157234464Y-69852149D01*
X157224921Y-69849592D01*
X156931886Y-69791303D01*
X156922075Y-69790012D01*
X156623943Y-69770471D01*
X156614057Y-69770471D01*
X156315925Y-69790012D01*
X156306114Y-69791303D01*
X156013079Y-69849592D01*
X156003536Y-69852149D01*
X155720619Y-69948186D01*
X155711475Y-69951973D01*
X155588817Y-70012462D01*
X155576580Y-70023194D01*
X136848500Y-70023194D01*
X136848500Y-69480622D01*
X136849004Y-69469946D01*
X136850788Y-69461963D01*
X136848575Y-69391544D01*
X136848500Y-69386789D01*
X136848500Y-69358068D01*
X136847902Y-69353335D01*
X136847615Y-69348780D01*
X136846975Y-69340634D01*
X136845861Y-69305191D01*
X136845562Y-69295669D01*
X136840137Y-69276996D01*
X136835321Y-69253740D01*
X136832882Y-69234436D01*
X136816320Y-69192605D01*
X136811700Y-69179110D01*
X136801805Y-69145053D01*
X136801803Y-69145049D01*
X136799145Y-69135899D01*
X136789247Y-69119162D01*
X136778795Y-69097828D01*
X136771635Y-69079744D01*
X136745186Y-69043340D01*
X136737355Y-69031419D01*
X136719301Y-69000891D01*
X136719298Y-69000888D01*
X136714452Y-68992693D01*
X136700702Y-68978943D01*
X136685272Y-68960877D01*
X136673841Y-68945143D01*
X136639169Y-68916460D01*
X136628619Y-68906860D01*
X136488216Y-68766456D01*
X136449031Y-68698585D01*
X136449031Y-68620214D01*
X136488216Y-68552344D01*
X136556087Y-68513159D01*
X136595272Y-68508000D01*
X143728529Y-68508000D01*
X143804229Y-68528284D01*
G37*
G04 #@! TD.AperFunction*
G04 #@! TA.AperFunction,Conductor*
G36*
X143114298Y-77105284D02*
G01*
X143169714Y-77160700D01*
X143189169Y-77220575D01*
X143193663Y-77263331D01*
X143196458Y-77289928D01*
X143201987Y-77306944D01*
X143248101Y-77448866D01*
X143255473Y-77471556D01*
X143259443Y-77478432D01*
X143338109Y-77614685D01*
X143350960Y-77636944D01*
X143356269Y-77642840D01*
X143356271Y-77642843D01*
X143421674Y-77715479D01*
X143478747Y-77778866D01*
X143633248Y-77891118D01*
X143640493Y-77894344D01*
X143640497Y-77894346D01*
X143800463Y-77965567D01*
X143800467Y-77965568D01*
X143807712Y-77968794D01*
X143927738Y-77994306D01*
X143986754Y-78006851D01*
X143986756Y-78006851D01*
X143994513Y-78008500D01*
X144185487Y-78008500D01*
X144193244Y-78006851D01*
X144193246Y-78006851D01*
X144252262Y-77994306D01*
X144372288Y-77968794D01*
X144379533Y-77965568D01*
X144379537Y-77965567D01*
X144539503Y-77894346D01*
X144539507Y-77894344D01*
X144546752Y-77891118D01*
X144701253Y-77778866D01*
X144758326Y-77715479D01*
X144823729Y-77642843D01*
X144823731Y-77642840D01*
X144829040Y-77636944D01*
X144841892Y-77614685D01*
X144920557Y-77478432D01*
X144924527Y-77471556D01*
X144931900Y-77448866D01*
X144978013Y-77306944D01*
X144983542Y-77289928D01*
X144986338Y-77263331D01*
X144990831Y-77220575D01*
X145018916Y-77147410D01*
X145079821Y-77098089D01*
X145141402Y-77085000D01*
X153585410Y-77085000D01*
X153661110Y-77105284D01*
X153716526Y-77160700D01*
X153795494Y-77297476D01*
X153800960Y-77306944D01*
X153806269Y-77312840D01*
X153806271Y-77312843D01*
X153850949Y-77362463D01*
X153928747Y-77448866D01*
X153935168Y-77453531D01*
X154040000Y-77529696D01*
X154083248Y-77561118D01*
X154090493Y-77564344D01*
X154090497Y-77564346D01*
X154250463Y-77635567D01*
X154250467Y-77635568D01*
X154257712Y-77638794D01*
X154377738Y-77664306D01*
X154436754Y-77676851D01*
X154436756Y-77676851D01*
X154444513Y-77678500D01*
X154635487Y-77678500D01*
X154643244Y-77676851D01*
X154643246Y-77676851D01*
X154702262Y-77664306D01*
X154822288Y-77638794D01*
X154829533Y-77635568D01*
X154829537Y-77635567D01*
X154978420Y-77569280D01*
X155055826Y-77557020D01*
X155101580Y-77569280D01*
X155250463Y-77635567D01*
X155250467Y-77635568D01*
X155257712Y-77638794D01*
X155377738Y-77664306D01*
X155436754Y-77676851D01*
X155436756Y-77676851D01*
X155444513Y-77678500D01*
X155635487Y-77678500D01*
X155643244Y-77676851D01*
X155643246Y-77676851D01*
X155702262Y-77664306D01*
X155822288Y-77638794D01*
X155829533Y-77635568D01*
X155829537Y-77635567D01*
X155978420Y-77569280D01*
X156055826Y-77557020D01*
X156101580Y-77569280D01*
X156250463Y-77635567D01*
X156250467Y-77635568D01*
X156257712Y-77638794D01*
X156377738Y-77664306D01*
X156436754Y-77676851D01*
X156436756Y-77676851D01*
X156444513Y-77678500D01*
X156635487Y-77678500D01*
X156643244Y-77676851D01*
X156643246Y-77676851D01*
X156702262Y-77664306D01*
X156822288Y-77638794D01*
X156829533Y-77635568D01*
X156829537Y-77635567D01*
X156978420Y-77569280D01*
X157055826Y-77557020D01*
X157101580Y-77569280D01*
X157250463Y-77635567D01*
X157250467Y-77635568D01*
X157257712Y-77638794D01*
X157377738Y-77664306D01*
X157436754Y-77676851D01*
X157436756Y-77676851D01*
X157444513Y-77678500D01*
X157635487Y-77678500D01*
X157643244Y-77676851D01*
X157643246Y-77676851D01*
X157702262Y-77664306D01*
X157822288Y-77638794D01*
X157829533Y-77635568D01*
X157829537Y-77635567D01*
X157978420Y-77569280D01*
X158055826Y-77557020D01*
X158101580Y-77569280D01*
X158250463Y-77635567D01*
X158250467Y-77635568D01*
X158257712Y-77638794D01*
X158377738Y-77664306D01*
X158436754Y-77676851D01*
X158436756Y-77676851D01*
X158444513Y-77678500D01*
X158635487Y-77678500D01*
X158643244Y-77676851D01*
X158643246Y-77676851D01*
X158702262Y-77664306D01*
X158822288Y-77638794D01*
X158829533Y-77635568D01*
X158829537Y-77635567D01*
X158989503Y-77564346D01*
X158989507Y-77564344D01*
X158996752Y-77561118D01*
X159040001Y-77529696D01*
X159091609Y-77492200D01*
X159164774Y-77464114D01*
X159242180Y-77476374D01*
X159303085Y-77525694D01*
X159331171Y-77598859D01*
X159332000Y-77614685D01*
X159332000Y-84323600D01*
X159311716Y-84399300D01*
X159256300Y-84454716D01*
X159180600Y-84475000D01*
X158995742Y-84475000D01*
X158920042Y-84454716D01*
X158901286Y-84441088D01*
X158901253Y-84441134D01*
X158753173Y-84333547D01*
X158753172Y-84333546D01*
X158746752Y-84328882D01*
X158739507Y-84325656D01*
X158739503Y-84325654D01*
X158579537Y-84254433D01*
X158579533Y-84254432D01*
X158572288Y-84251206D01*
X158452262Y-84225694D01*
X158393246Y-84213149D01*
X158393244Y-84213149D01*
X158385487Y-84211500D01*
X158194513Y-84211500D01*
X158186756Y-84213149D01*
X158186754Y-84213149D01*
X158127738Y-84225694D01*
X158007712Y-84251206D01*
X158000467Y-84254432D01*
X158000463Y-84254433D01*
X157851580Y-84320720D01*
X157774174Y-84332980D01*
X157728420Y-84320720D01*
X157579537Y-84254433D01*
X157579533Y-84254432D01*
X157572288Y-84251206D01*
X157452262Y-84225694D01*
X157393246Y-84213149D01*
X157393244Y-84213149D01*
X157385487Y-84211500D01*
X157194513Y-84211500D01*
X157186756Y-84213149D01*
X157186754Y-84213149D01*
X157127738Y-84225694D01*
X157007712Y-84251206D01*
X157000467Y-84254432D01*
X157000463Y-84254433D01*
X156851580Y-84320720D01*
X156774174Y-84332980D01*
X156728420Y-84320720D01*
X156579537Y-84254433D01*
X156579533Y-84254432D01*
X156572288Y-84251206D01*
X156452262Y-84225694D01*
X156393246Y-84213149D01*
X156393244Y-84213149D01*
X156385487Y-84211500D01*
X156194513Y-84211500D01*
X156186756Y-84213149D01*
X156186754Y-84213149D01*
X156127738Y-84225694D01*
X156007712Y-84251206D01*
X156000467Y-84254432D01*
X156000463Y-84254433D01*
X155851580Y-84320720D01*
X155774174Y-84332980D01*
X155728420Y-84320720D01*
X155579537Y-84254433D01*
X155579533Y-84254432D01*
X155572288Y-84251206D01*
X155452262Y-84225694D01*
X155393246Y-84213149D01*
X155393244Y-84213149D01*
X155385487Y-84211500D01*
X155194513Y-84211500D01*
X155186756Y-84213149D01*
X155186754Y-84213149D01*
X155127738Y-84225694D01*
X155007712Y-84251206D01*
X155000467Y-84254432D01*
X155000463Y-84254433D01*
X154851580Y-84320720D01*
X154774174Y-84332980D01*
X154728420Y-84320720D01*
X154579537Y-84254433D01*
X154579533Y-84254432D01*
X154572288Y-84251206D01*
X154452262Y-84225694D01*
X154393246Y-84213149D01*
X154393244Y-84213149D01*
X154385487Y-84211500D01*
X154194513Y-84211500D01*
X154186756Y-84213149D01*
X154186754Y-84213149D01*
X154127738Y-84225694D01*
X154007712Y-84251206D01*
X154000467Y-84254432D01*
X154000463Y-84254433D01*
X153840497Y-84325654D01*
X153840493Y-84325656D01*
X153833248Y-84328882D01*
X153826828Y-84333546D01*
X153826827Y-84333547D01*
X153786212Y-84363056D01*
X153678747Y-84441134D01*
X153677925Y-84440002D01*
X153615744Y-84471690D01*
X153584258Y-84475000D01*
X151344850Y-84475000D01*
X151269150Y-84454716D01*
X151213734Y-84399300D01*
X151193450Y-84323600D01*
X151194279Y-84307775D01*
X151202675Y-84227888D01*
X151203504Y-84220000D01*
X151198821Y-84175444D01*
X151184372Y-84037965D01*
X151184371Y-84037961D01*
X151183542Y-84030072D01*
X151124527Y-83848444D01*
X151029040Y-83683056D01*
X150901253Y-83541134D01*
X150746752Y-83428882D01*
X150739507Y-83425656D01*
X150739503Y-83425654D01*
X150579537Y-83354433D01*
X150579533Y-83354432D01*
X150572288Y-83351206D01*
X150452262Y-83325694D01*
X150393246Y-83313149D01*
X150393244Y-83313149D01*
X150385487Y-83311500D01*
X150194513Y-83311500D01*
X150186756Y-83313149D01*
X150186754Y-83313149D01*
X150127738Y-83325694D01*
X150007712Y-83351206D01*
X150000467Y-83354432D01*
X150000463Y-83354433D01*
X149840497Y-83425654D01*
X149840493Y-83425656D01*
X149833248Y-83428882D01*
X149678747Y-83541134D01*
X149550960Y-83683056D01*
X149455473Y-83848444D01*
X149396458Y-84030072D01*
X149395629Y-84037961D01*
X149395628Y-84037965D01*
X149381179Y-84175444D01*
X149376496Y-84220000D01*
X149377325Y-84227888D01*
X149385721Y-84307775D01*
X149373460Y-84385181D01*
X149324140Y-84446086D01*
X149250975Y-84474171D01*
X149235150Y-84475000D01*
X137281082Y-84475000D01*
X137205382Y-84454716D01*
X137149967Y-84399301D01*
X137133011Y-84369933D01*
X137133008Y-84369929D01*
X137129040Y-84363056D01*
X137101960Y-84332980D01*
X137058326Y-84284521D01*
X137001253Y-84221134D01*
X136921492Y-84163184D01*
X136853173Y-84113547D01*
X136853172Y-84113546D01*
X136846752Y-84108882D01*
X136839507Y-84105656D01*
X136839503Y-84105654D01*
X136679537Y-84034433D01*
X136679533Y-84034432D01*
X136672288Y-84031206D01*
X136552262Y-84005694D01*
X136493246Y-83993149D01*
X136493244Y-83993149D01*
X136485487Y-83991500D01*
X136294513Y-83991500D01*
X136286756Y-83993149D01*
X136286754Y-83993149D01*
X136227738Y-84005694D01*
X136107712Y-84031206D01*
X136100467Y-84034432D01*
X136100463Y-84034433D01*
X135940497Y-84105654D01*
X135940493Y-84105656D01*
X135933248Y-84108882D01*
X135926828Y-84113546D01*
X135926827Y-84113547D01*
X135880291Y-84147358D01*
X135807127Y-84175444D01*
X135729721Y-84163184D01*
X135668815Y-84113864D01*
X135640729Y-84040700D01*
X135639900Y-84024873D01*
X135639900Y-82578722D01*
X155576896Y-82578722D01*
X155578650Y-82581761D01*
X155582071Y-82584212D01*
X155711476Y-82648027D01*
X155720621Y-82651815D01*
X156003536Y-82747851D01*
X156013079Y-82750408D01*
X156306114Y-82808697D01*
X156315925Y-82809988D01*
X156614057Y-82829529D01*
X156623943Y-82829529D01*
X156922075Y-82809988D01*
X156931886Y-82808697D01*
X157224921Y-82750408D01*
X157234464Y-82747851D01*
X157517379Y-82651815D01*
X157526524Y-82648027D01*
X157649184Y-82587538D01*
X157661421Y-82576807D01*
X157660737Y-82573367D01*
X157658284Y-82569944D01*
X156633096Y-81544756D01*
X156619000Y-81536618D01*
X156604904Y-81544756D01*
X155585034Y-82564626D01*
X155576896Y-82578722D01*
X135639900Y-82578722D01*
X135639900Y-82482620D01*
X135660184Y-82406920D01*
X135684244Y-82375564D01*
X136484927Y-81574881D01*
X136533377Y-81512420D01*
X136555469Y-81483939D01*
X136555470Y-81483937D01*
X136561304Y-81476416D01*
X136627380Y-81323724D01*
X136628870Y-81314317D01*
X136628871Y-81314313D01*
X136651916Y-81168802D01*
X136653406Y-81159396D01*
X136637749Y-80993759D01*
X136602168Y-80894926D01*
X136595611Y-80816833D01*
X136603299Y-80789843D01*
X136607124Y-80782885D01*
X136648500Y-80621736D01*
X136648500Y-80474943D01*
X154259471Y-80474943D01*
X154279012Y-80773075D01*
X154280303Y-80782885D01*
X154338592Y-81075921D01*
X154341149Y-81085464D01*
X154437186Y-81368381D01*
X154440973Y-81377525D01*
X154501462Y-81500183D01*
X154512194Y-81512420D01*
X154515635Y-81511735D01*
X154519057Y-81509283D01*
X155544244Y-80484096D01*
X155552382Y-80470000D01*
X157685618Y-80470000D01*
X157693756Y-80484096D01*
X158713625Y-81503965D01*
X158727721Y-81512103D01*
X158730760Y-81510349D01*
X158733212Y-81506927D01*
X158797027Y-81377525D01*
X158800814Y-81368381D01*
X158896851Y-81085464D01*
X158899408Y-81075921D01*
X158957697Y-80782885D01*
X158958988Y-80773075D01*
X158978529Y-80474943D01*
X158978529Y-80465057D01*
X158958988Y-80166925D01*
X158957697Y-80157114D01*
X158899408Y-79864079D01*
X158896851Y-79854536D01*
X158800814Y-79571619D01*
X158797027Y-79562475D01*
X158736538Y-79439817D01*
X158725806Y-79427580D01*
X158722365Y-79428265D01*
X158718943Y-79430717D01*
X157693756Y-80455904D01*
X157685618Y-80470000D01*
X155552382Y-80470000D01*
X155544244Y-80455904D01*
X154524375Y-79436035D01*
X154510279Y-79427897D01*
X154507240Y-79429651D01*
X154504788Y-79433073D01*
X154440973Y-79562475D01*
X154437186Y-79571619D01*
X154341149Y-79854536D01*
X154338592Y-79864079D01*
X154280303Y-80157114D01*
X154279012Y-80166925D01*
X154259471Y-80465057D01*
X154259471Y-80474943D01*
X136648500Y-80474943D01*
X136648500Y-78363194D01*
X155576580Y-78363194D01*
X155577265Y-78366635D01*
X155579717Y-78370057D01*
X156604904Y-79395244D01*
X156619000Y-79403382D01*
X156633096Y-79395244D01*
X157652966Y-78375374D01*
X157661104Y-78361278D01*
X157659350Y-78358239D01*
X157655929Y-78355788D01*
X157526524Y-78291973D01*
X157517379Y-78288185D01*
X157234464Y-78192149D01*
X157224921Y-78189592D01*
X156931886Y-78131303D01*
X156922075Y-78130012D01*
X156623943Y-78110471D01*
X156614057Y-78110471D01*
X156315925Y-78130012D01*
X156306114Y-78131303D01*
X156013079Y-78189592D01*
X156003536Y-78192149D01*
X155720619Y-78288186D01*
X155711475Y-78291973D01*
X155588817Y-78352462D01*
X155576580Y-78363194D01*
X136648500Y-78363194D01*
X136648500Y-77381122D01*
X136649004Y-77370446D01*
X136650788Y-77362463D01*
X136648575Y-77292044D01*
X136648500Y-77287289D01*
X136648500Y-77258568D01*
X136647903Y-77253840D01*
X136647604Y-77249098D01*
X136648973Y-77249012D01*
X136658723Y-77177752D01*
X136706747Y-77115820D01*
X136779303Y-77086197D01*
X136798302Y-77085000D01*
X143038598Y-77085000D01*
X143114298Y-77105284D01*
G37*
G04 #@! TD.AperFunction*
G04 #@! TA.AperFunction,Conductor*
G36*
X143218845Y-107885284D02*
G01*
X143274261Y-107940700D01*
X143292893Y-107972971D01*
X143300960Y-107986944D01*
X143306269Y-107992840D01*
X143306271Y-107992843D01*
X143371673Y-108065479D01*
X143428747Y-108128866D01*
X143583248Y-108241118D01*
X143590493Y-108244344D01*
X143590497Y-108244346D01*
X143750463Y-108315567D01*
X143750467Y-108315568D01*
X143757712Y-108318794D01*
X143877738Y-108344306D01*
X143936754Y-108356851D01*
X143936756Y-108356851D01*
X143944513Y-108358500D01*
X144135487Y-108358500D01*
X144143244Y-108356851D01*
X144143246Y-108356851D01*
X144202262Y-108344306D01*
X144322288Y-108318794D01*
X144329533Y-108315568D01*
X144329537Y-108315567D01*
X144489503Y-108244346D01*
X144489507Y-108244344D01*
X144496752Y-108241118D01*
X144651253Y-108128866D01*
X144708327Y-108065479D01*
X144773729Y-107992843D01*
X144773731Y-107992840D01*
X144779040Y-107986944D01*
X144787108Y-107972971D01*
X144805739Y-107940700D01*
X144861155Y-107885284D01*
X144936855Y-107865000D01*
X153508815Y-107865000D01*
X153584515Y-107885284D01*
X153621322Y-107915090D01*
X153678747Y-107978866D01*
X153833248Y-108091118D01*
X153840493Y-108094344D01*
X153840497Y-108094346D01*
X154000463Y-108165567D01*
X154000467Y-108165568D01*
X154007712Y-108168794D01*
X154127738Y-108194306D01*
X154186754Y-108206851D01*
X154186756Y-108206851D01*
X154194513Y-108208500D01*
X154385487Y-108208500D01*
X154393244Y-108206851D01*
X154393246Y-108206851D01*
X154452262Y-108194306D01*
X154572288Y-108168794D01*
X154579533Y-108165568D01*
X154579537Y-108165567D01*
X154661968Y-108128866D01*
X154678420Y-108121541D01*
X154755826Y-108109281D01*
X154801579Y-108121541D01*
X154818032Y-108128866D01*
X154900463Y-108165567D01*
X154900467Y-108165568D01*
X154907712Y-108168794D01*
X155027738Y-108194306D01*
X155086754Y-108206851D01*
X155086756Y-108206851D01*
X155094513Y-108208500D01*
X155285487Y-108208500D01*
X155293244Y-108206851D01*
X155293246Y-108206851D01*
X155352262Y-108194306D01*
X155472288Y-108168794D01*
X155479533Y-108165568D01*
X155479537Y-108165567D01*
X155561968Y-108128866D01*
X155578420Y-108121541D01*
X155655826Y-108109281D01*
X155701579Y-108121541D01*
X155718032Y-108128866D01*
X155798199Y-108164559D01*
X155859105Y-108213880D01*
X155887190Y-108287045D01*
X155874930Y-108364450D01*
X155825609Y-108425356D01*
X155785285Y-108446235D01*
X155720618Y-108468186D01*
X155711475Y-108471973D01*
X155588817Y-108532462D01*
X155576580Y-108543194D01*
X155577265Y-108546635D01*
X155579717Y-108550057D01*
X156604904Y-109575244D01*
X156619000Y-109583382D01*
X156633096Y-109575244D01*
X157652966Y-108555374D01*
X157661104Y-108541278D01*
X157659350Y-108538239D01*
X157655929Y-108535788D01*
X157526524Y-108471973D01*
X157517379Y-108468185D01*
X157363066Y-108415803D01*
X157297903Y-108372263D01*
X157263241Y-108301975D01*
X157268367Y-108223772D01*
X157311907Y-108158609D01*
X157350151Y-108134128D01*
X157378419Y-108121542D01*
X157455824Y-108109281D01*
X157501579Y-108121541D01*
X157518032Y-108128866D01*
X157600463Y-108165567D01*
X157600467Y-108165568D01*
X157607712Y-108168794D01*
X157727738Y-108194306D01*
X157786754Y-108206851D01*
X157786756Y-108206851D01*
X157794513Y-108208500D01*
X157985487Y-108208500D01*
X157993244Y-108206851D01*
X157993246Y-108206851D01*
X158052262Y-108194306D01*
X158172288Y-108168794D01*
X158179533Y-108165568D01*
X158179537Y-108165567D01*
X158261968Y-108128866D01*
X158278420Y-108121541D01*
X158355826Y-108109281D01*
X158401579Y-108121541D01*
X158418032Y-108128866D01*
X158500463Y-108165567D01*
X158500467Y-108165568D01*
X158507712Y-108168794D01*
X158627738Y-108194306D01*
X158686754Y-108206851D01*
X158686756Y-108206851D01*
X158694513Y-108208500D01*
X158885487Y-108208500D01*
X158893244Y-108206851D01*
X158893246Y-108206851D01*
X158952262Y-108194306D01*
X159072288Y-108168794D01*
X159079539Y-108165566D01*
X159079541Y-108165565D01*
X159119021Y-108147988D01*
X159196427Y-108135729D01*
X159269592Y-108163815D01*
X159318911Y-108224720D01*
X159332000Y-108286299D01*
X159332000Y-113056934D01*
X159311716Y-113132634D01*
X159256300Y-113188050D01*
X159180600Y-113208334D01*
X159149122Y-113205026D01*
X159093246Y-113193149D01*
X159093244Y-113193149D01*
X159085487Y-113191500D01*
X158894513Y-113191500D01*
X158886756Y-113193149D01*
X158886754Y-113193149D01*
X158827738Y-113205694D01*
X158707712Y-113231206D01*
X158700467Y-113234432D01*
X158700463Y-113234433D01*
X158683668Y-113241911D01*
X158622088Y-113255000D01*
X158457912Y-113255000D01*
X158396332Y-113241911D01*
X158379537Y-113234433D01*
X158379533Y-113234432D01*
X158372288Y-113231206D01*
X158252262Y-113205694D01*
X158193246Y-113193149D01*
X158193244Y-113193149D01*
X158185487Y-113191500D01*
X157994513Y-113191500D01*
X157986756Y-113193149D01*
X157986754Y-113193149D01*
X157927738Y-113205694D01*
X157807712Y-113231206D01*
X157800467Y-113234432D01*
X157800463Y-113234433D01*
X157783668Y-113241911D01*
X157722088Y-113255000D01*
X157557912Y-113255000D01*
X157496332Y-113241911D01*
X157479537Y-113234433D01*
X157479533Y-113234432D01*
X157472288Y-113231206D01*
X157464525Y-113229556D01*
X157464519Y-113229554D01*
X157315057Y-113197784D01*
X157245228Y-113162205D01*
X157202545Y-113096478D01*
X157198444Y-113018215D01*
X157234023Y-112948386D01*
X157297869Y-112906328D01*
X157517379Y-112831815D01*
X157526524Y-112828027D01*
X157649184Y-112767538D01*
X157661421Y-112756807D01*
X157660737Y-112753367D01*
X157658284Y-112749944D01*
X156633096Y-111724756D01*
X156619000Y-111716618D01*
X156604904Y-111724756D01*
X155585034Y-112744626D01*
X155576896Y-112758722D01*
X155578650Y-112761761D01*
X155582071Y-112764212D01*
X155711476Y-112828027D01*
X155720621Y-112831815D01*
X156003536Y-112927851D01*
X156013076Y-112930408D01*
X156019547Y-112931695D01*
X156089835Y-112966358D01*
X156133375Y-113031521D01*
X156138500Y-113109724D01*
X156103837Y-113180012D01*
X156038674Y-113223552D01*
X156021487Y-113228277D01*
X156015481Y-113229554D01*
X156015475Y-113229556D01*
X156007712Y-113231206D01*
X156000467Y-113234432D01*
X156000463Y-113234433D01*
X155983668Y-113241911D01*
X155922088Y-113255000D01*
X155757912Y-113255000D01*
X155696332Y-113241911D01*
X155679537Y-113234433D01*
X155679533Y-113234432D01*
X155672288Y-113231206D01*
X155552262Y-113205694D01*
X155493246Y-113193149D01*
X155493244Y-113193149D01*
X155485487Y-113191500D01*
X155294513Y-113191500D01*
X155286756Y-113193149D01*
X155286754Y-113193149D01*
X155227738Y-113205694D01*
X155107712Y-113231206D01*
X155100467Y-113234432D01*
X155100463Y-113234433D01*
X155083668Y-113241911D01*
X155022088Y-113255000D01*
X154857912Y-113255000D01*
X154796332Y-113241911D01*
X154779537Y-113234433D01*
X154779533Y-113234432D01*
X154772288Y-113231206D01*
X154652262Y-113205694D01*
X154593246Y-113193149D01*
X154593244Y-113193149D01*
X154585487Y-113191500D01*
X154394513Y-113191500D01*
X154386756Y-113193149D01*
X154386754Y-113193149D01*
X154327738Y-113205694D01*
X154207712Y-113231206D01*
X154200467Y-113234432D01*
X154200463Y-113234433D01*
X154183668Y-113241911D01*
X154122088Y-113255000D01*
X152789193Y-113255000D01*
X152713493Y-113234716D01*
X152676686Y-113204911D01*
X152601253Y-113121134D01*
X152446752Y-113008882D01*
X152439507Y-113005656D01*
X152439503Y-113005654D01*
X152279537Y-112934433D01*
X152279533Y-112934432D01*
X152272288Y-112931206D01*
X152103826Y-112895398D01*
X152093246Y-112893149D01*
X152093244Y-112893149D01*
X152085487Y-112891500D01*
X151894513Y-112891500D01*
X151886756Y-112893149D01*
X151886754Y-112893149D01*
X151876174Y-112895398D01*
X151707712Y-112931206D01*
X151700467Y-112934432D01*
X151700463Y-112934433D01*
X151628759Y-112966358D01*
X151602299Y-112978139D01*
X151601580Y-112978459D01*
X151524174Y-112990719D01*
X151478420Y-112978459D01*
X151477702Y-112978139D01*
X151451241Y-112966358D01*
X151379537Y-112934433D01*
X151379533Y-112934432D01*
X151372288Y-112931206D01*
X151203826Y-112895398D01*
X151193246Y-112893149D01*
X151193244Y-112893149D01*
X151185487Y-112891500D01*
X150994513Y-112891500D01*
X150986756Y-112893149D01*
X150986754Y-112893149D01*
X150976174Y-112895398D01*
X150807712Y-112931206D01*
X150800467Y-112934432D01*
X150800463Y-112934433D01*
X150728759Y-112966358D01*
X150702299Y-112978139D01*
X150701580Y-112978459D01*
X150624174Y-112990719D01*
X150578420Y-112978459D01*
X150577702Y-112978139D01*
X150551241Y-112966358D01*
X150479537Y-112934433D01*
X150479533Y-112934432D01*
X150472288Y-112931206D01*
X150303826Y-112895398D01*
X150293246Y-112893149D01*
X150293244Y-112893149D01*
X150285487Y-112891500D01*
X150094513Y-112891500D01*
X150086756Y-112893149D01*
X150086754Y-112893149D01*
X150076174Y-112895398D01*
X149907712Y-112931206D01*
X149900467Y-112934432D01*
X149900463Y-112934433D01*
X149740497Y-113005654D01*
X149740493Y-113005656D01*
X149733248Y-113008882D01*
X149578747Y-113121134D01*
X149503316Y-113204908D01*
X149437593Y-113247590D01*
X149390807Y-113255000D01*
X136231771Y-113255000D01*
X136156071Y-113234716D01*
X136100655Y-113179300D01*
X136080371Y-113103600D01*
X136100655Y-113027900D01*
X136124715Y-112996544D01*
X136134926Y-112986333D01*
X136137847Y-112982568D01*
X136140865Y-112979144D01*
X136146156Y-112972949D01*
X136176972Y-112940133D01*
X136181560Y-112931788D01*
X136181564Y-112931782D01*
X136186338Y-112923097D01*
X136199383Y-112903237D01*
X136205464Y-112895398D01*
X136205465Y-112895397D01*
X136211304Y-112887869D01*
X136229179Y-112846563D01*
X136235447Y-112833767D01*
X136252536Y-112802683D01*
X136252537Y-112802681D01*
X136257124Y-112794337D01*
X136261960Y-112775503D01*
X136269657Y-112753021D01*
X136273595Y-112743921D01*
X136277379Y-112735177D01*
X136284417Y-112690739D01*
X136287310Y-112676771D01*
X136296130Y-112642418D01*
X136298500Y-112633188D01*
X136298500Y-112613739D01*
X136300364Y-112590054D01*
X136303406Y-112570849D01*
X136299172Y-112526059D01*
X136298500Y-112511811D01*
X136298500Y-110654943D01*
X154259471Y-110654943D01*
X154279012Y-110953075D01*
X154280303Y-110962886D01*
X154338592Y-111255921D01*
X154341149Y-111265464D01*
X154437186Y-111548381D01*
X154440973Y-111557525D01*
X154501462Y-111680183D01*
X154512194Y-111692420D01*
X154515635Y-111691735D01*
X154519057Y-111689283D01*
X155544244Y-110664096D01*
X155552382Y-110650000D01*
X157685618Y-110650000D01*
X157693756Y-110664096D01*
X158713625Y-111683965D01*
X158727721Y-111692103D01*
X158730760Y-111690349D01*
X158733212Y-111686927D01*
X158797027Y-111557525D01*
X158800814Y-111548381D01*
X158896851Y-111265464D01*
X158899408Y-111255921D01*
X158957697Y-110962886D01*
X158958988Y-110953075D01*
X158978529Y-110654943D01*
X158978529Y-110645057D01*
X158958988Y-110346925D01*
X158957697Y-110337114D01*
X158899408Y-110044079D01*
X158896851Y-110034536D01*
X158800814Y-109751619D01*
X158797027Y-109742475D01*
X158736538Y-109619817D01*
X158725806Y-109607580D01*
X158722365Y-109608265D01*
X158718943Y-109610717D01*
X157693756Y-110635904D01*
X157685618Y-110650000D01*
X155552382Y-110650000D01*
X155544244Y-110635904D01*
X154524375Y-109616035D01*
X154510279Y-109607897D01*
X154507240Y-109609651D01*
X154504788Y-109613073D01*
X154440973Y-109742475D01*
X154437186Y-109751619D01*
X154341149Y-110034536D01*
X154338592Y-110044079D01*
X154280303Y-110337114D01*
X154279012Y-110346925D01*
X154259471Y-110645057D01*
X154259471Y-110654943D01*
X136298500Y-110654943D01*
X136298500Y-108034509D01*
X136318784Y-107958809D01*
X136337390Y-107933201D01*
X136353696Y-107915092D01*
X136419423Y-107872409D01*
X136466206Y-107865000D01*
X143143145Y-107865000D01*
X143218845Y-107885284D01*
G37*
G04 #@! TD.AperFunction*
G04 #@! TA.AperFunction,Conductor*
G36*
X137579287Y-85080284D02*
G01*
X137592578Y-85088915D01*
X137711164Y-85175073D01*
X137733248Y-85191118D01*
X137740493Y-85194344D01*
X137740497Y-85194346D01*
X137900463Y-85265567D01*
X137900467Y-85265568D01*
X137907712Y-85268794D01*
X138027738Y-85294306D01*
X138086754Y-85306851D01*
X138086756Y-85306851D01*
X138094513Y-85308500D01*
X138285487Y-85308500D01*
X138293244Y-85306851D01*
X138293246Y-85306851D01*
X138352262Y-85294306D01*
X138472288Y-85268794D01*
X138479533Y-85265568D01*
X138479537Y-85265567D01*
X138639503Y-85194346D01*
X138639507Y-85194344D01*
X138646752Y-85191118D01*
X138668836Y-85175073D01*
X138787422Y-85088915D01*
X138860587Y-85060829D01*
X138876413Y-85060000D01*
X143848227Y-85060000D01*
X143923927Y-85080284D01*
X143979343Y-85135700D01*
X143999627Y-85211400D01*
X143979343Y-85287100D01*
X143966988Y-85308500D01*
X143955473Y-85328444D01*
X143896458Y-85510072D01*
X143895629Y-85517961D01*
X143895628Y-85517965D01*
X143877325Y-85692112D01*
X143876496Y-85700000D01*
X143877325Y-85707888D01*
X143895383Y-85879696D01*
X143896458Y-85889928D01*
X143955473Y-86071556D01*
X144050960Y-86236944D01*
X144178747Y-86378866D01*
X144333248Y-86491118D01*
X144340493Y-86494344D01*
X144340497Y-86494346D01*
X144500463Y-86565567D01*
X144500467Y-86565568D01*
X144507712Y-86568794D01*
X144627738Y-86594306D01*
X144686754Y-86606851D01*
X144686756Y-86606851D01*
X144694513Y-86608500D01*
X144885487Y-86608500D01*
X144893244Y-86606851D01*
X144893246Y-86606851D01*
X144952262Y-86594306D01*
X145072288Y-86568794D01*
X145079533Y-86565568D01*
X145079537Y-86565567D01*
X145239503Y-86494346D01*
X145239507Y-86494344D01*
X145246752Y-86491118D01*
X145401253Y-86378866D01*
X145529040Y-86236944D01*
X145624527Y-86071556D01*
X145683542Y-85889928D01*
X145684618Y-85879696D01*
X145702675Y-85707888D01*
X145703504Y-85700000D01*
X145702675Y-85692112D01*
X145684372Y-85517965D01*
X145684371Y-85517961D01*
X145683542Y-85510072D01*
X145624527Y-85328444D01*
X145613013Y-85308500D01*
X145600657Y-85287100D01*
X145580373Y-85211400D01*
X145600657Y-85135700D01*
X145656073Y-85080284D01*
X145731773Y-85060000D01*
X149910859Y-85060000D01*
X149972437Y-85073089D01*
X150007712Y-85088794D01*
X150015470Y-85090443D01*
X150186754Y-85126851D01*
X150186756Y-85126851D01*
X150194513Y-85128500D01*
X150385487Y-85128500D01*
X150393244Y-85126851D01*
X150393246Y-85126851D01*
X150564530Y-85090443D01*
X150572288Y-85088794D01*
X150607563Y-85073089D01*
X150669141Y-85060000D01*
X153233868Y-85060000D01*
X153309568Y-85080284D01*
X153364984Y-85135700D01*
X153384439Y-85195574D01*
X153396458Y-85309928D01*
X153455473Y-85491556D01*
X153466163Y-85510072D01*
X153505882Y-85578866D01*
X153550960Y-85656944D01*
X153556269Y-85662840D01*
X153556271Y-85662843D01*
X153584637Y-85694346D01*
X153678747Y-85798866D01*
X153692007Y-85808500D01*
X153804083Y-85889928D01*
X153833248Y-85911118D01*
X153840493Y-85914344D01*
X153840497Y-85914346D01*
X154000463Y-85985567D01*
X154000467Y-85985568D01*
X154007712Y-85988794D01*
X154127738Y-86014306D01*
X154186754Y-86026851D01*
X154186756Y-86026851D01*
X154194513Y-86028500D01*
X154385487Y-86028500D01*
X154393244Y-86026851D01*
X154393246Y-86026851D01*
X154452262Y-86014306D01*
X154572288Y-85988794D01*
X154579533Y-85985568D01*
X154579537Y-85985567D01*
X154728420Y-85919280D01*
X154805826Y-85907020D01*
X154851580Y-85919280D01*
X155000463Y-85985567D01*
X155000467Y-85985568D01*
X155007712Y-85988794D01*
X155127738Y-86014306D01*
X155186754Y-86026851D01*
X155186756Y-86026851D01*
X155194513Y-86028500D01*
X155385487Y-86028500D01*
X155393244Y-86026851D01*
X155393246Y-86026851D01*
X155452262Y-86014306D01*
X155572288Y-85988794D01*
X155579539Y-85985566D01*
X155579541Y-85985565D01*
X155728422Y-85919280D01*
X155805827Y-85907020D01*
X155851576Y-85919278D01*
X155875264Y-85929824D01*
X155920738Y-85961078D01*
X156804904Y-86845244D01*
X156819000Y-86853382D01*
X156833096Y-86845244D01*
X157713985Y-85964355D01*
X157781856Y-85925170D01*
X157860226Y-85925170D01*
X157882621Y-85933100D01*
X158000463Y-85985567D01*
X158000467Y-85985568D01*
X158007712Y-85988794D01*
X158127738Y-86014306D01*
X158186754Y-86026851D01*
X158186756Y-86026851D01*
X158194513Y-86028500D01*
X158385487Y-86028500D01*
X158393244Y-86026851D01*
X158393246Y-86026851D01*
X158452262Y-86014306D01*
X158572288Y-85988794D01*
X158579533Y-85985568D01*
X158579537Y-85985567D01*
X158739503Y-85914346D01*
X158739507Y-85914344D01*
X158746752Y-85911118D01*
X158775918Y-85889928D01*
X158887993Y-85808500D01*
X158901253Y-85798866D01*
X158995363Y-85694346D01*
X159023729Y-85662843D01*
X159023731Y-85662840D01*
X159029040Y-85656944D01*
X159049484Y-85621534D01*
X159104900Y-85566118D01*
X159180600Y-85545834D01*
X159256300Y-85566118D01*
X159311716Y-85621534D01*
X159332000Y-85697234D01*
X159332000Y-87080246D01*
X159311716Y-87155946D01*
X159256300Y-87211362D01*
X159180600Y-87231646D01*
X159104900Y-87211362D01*
X159049484Y-87155946D01*
X159037235Y-87128912D01*
X159000814Y-87021618D01*
X158997027Y-87012475D01*
X158936538Y-86889817D01*
X158925806Y-86877580D01*
X158922365Y-86878265D01*
X158918943Y-86880717D01*
X157893756Y-87905904D01*
X157885618Y-87920000D01*
X157893756Y-87934096D01*
X158913625Y-88953965D01*
X158927721Y-88962103D01*
X158930760Y-88960349D01*
X158933212Y-88956927D01*
X158997027Y-88827525D01*
X159000814Y-88818382D01*
X159037235Y-88711088D01*
X159080775Y-88645926D01*
X159151063Y-88611263D01*
X159229266Y-88616389D01*
X159294428Y-88659929D01*
X159329091Y-88730217D01*
X159332000Y-88759754D01*
X159332000Y-90498600D01*
X159311716Y-90574300D01*
X159256300Y-90629716D01*
X159180600Y-90650000D01*
X135866300Y-90650000D01*
X135790600Y-90629716D01*
X135735184Y-90574300D01*
X135714900Y-90498600D01*
X135714900Y-90028722D01*
X155776896Y-90028722D01*
X155778650Y-90031761D01*
X155782071Y-90034212D01*
X155911476Y-90098027D01*
X155920621Y-90101815D01*
X156203536Y-90197851D01*
X156213079Y-90200408D01*
X156506114Y-90258697D01*
X156515925Y-90259988D01*
X156814057Y-90279529D01*
X156823943Y-90279529D01*
X157122075Y-90259988D01*
X157131886Y-90258697D01*
X157424921Y-90200408D01*
X157434464Y-90197851D01*
X157717379Y-90101815D01*
X157726524Y-90098027D01*
X157849184Y-90037538D01*
X157861421Y-90026807D01*
X157860737Y-90023367D01*
X157858284Y-90019944D01*
X156833096Y-88994756D01*
X156819000Y-88986618D01*
X156804904Y-88994756D01*
X155785034Y-90014626D01*
X155776896Y-90028722D01*
X135714900Y-90028722D01*
X135714900Y-87924943D01*
X154459471Y-87924943D01*
X154479012Y-88223075D01*
X154480303Y-88232886D01*
X154538592Y-88525921D01*
X154541149Y-88535464D01*
X154637186Y-88818381D01*
X154640973Y-88827525D01*
X154701462Y-88950183D01*
X154712194Y-88962420D01*
X154715635Y-88961735D01*
X154719057Y-88959283D01*
X155744244Y-87934096D01*
X155752382Y-87920000D01*
X155744244Y-87905904D01*
X154724375Y-86886035D01*
X154710279Y-86877897D01*
X154707240Y-86879651D01*
X154704788Y-86883073D01*
X154640973Y-87012475D01*
X154637186Y-87021619D01*
X154541149Y-87304536D01*
X154538592Y-87314079D01*
X154480303Y-87607114D01*
X154479012Y-87616925D01*
X154459471Y-87915057D01*
X154459471Y-87924943D01*
X135714900Y-87924943D01*
X135714900Y-85826330D01*
X135735184Y-85750630D01*
X135790600Y-85695214D01*
X135866300Y-85674930D01*
X135932552Y-85692681D01*
X135933248Y-85691118D01*
X136100463Y-85765567D01*
X136100467Y-85765568D01*
X136107712Y-85768794D01*
X136221432Y-85792966D01*
X136286754Y-85806851D01*
X136286756Y-85806851D01*
X136294513Y-85808500D01*
X136485487Y-85808500D01*
X136493244Y-85806851D01*
X136493246Y-85806851D01*
X136558568Y-85792966D01*
X136672288Y-85768794D01*
X136679533Y-85765568D01*
X136679537Y-85765567D01*
X136839503Y-85694346D01*
X136839507Y-85694344D01*
X136846752Y-85691118D01*
X136903250Y-85650070D01*
X136994832Y-85583531D01*
X137001253Y-85578866D01*
X137079867Y-85491556D01*
X137123729Y-85442843D01*
X137123731Y-85442840D01*
X137129040Y-85436944D01*
X137224527Y-85271556D01*
X137254179Y-85180299D01*
X137259275Y-85164614D01*
X137301959Y-85098887D01*
X137371788Y-85063308D01*
X137403265Y-85060000D01*
X137503587Y-85060000D01*
X137579287Y-85080284D01*
G37*
G04 #@! TD.AperFunction*
M02*
