M48
; DRILL file {KiCad 6.0.0-rc2} date Wed 15 Jun 2022 01:37:22 PM PDT
; FORMAT={-:-/ absolute / metric / decimal}
; #@! TF.CreationDate,2022-06-15T13:37:22-07:00
; #@! TF.GenerationSoftware,Kicad,Pcbnew,6.0.0-rc2
; #@! TF.FileFunction,Plated,1,4,PTH
FMAT,2
METRIC
; #@! TA.AperFunction,Plated,PTH,ViaDrill
T1C0.350
; #@! TA.AperFunction,Plated,PTH,ComponentDrill
T2C0.350
; #@! TA.AperFunction,Plated,PTH,ViaDrill
T3C0.400
; #@! TA.AperFunction,Plated,PTH,ViaDrill
T4C0.500
; #@! TA.AperFunction,Plated,PTH,ComponentDrill
T5C0.600
; #@! TA.AperFunction,Plated,PTH,ComponentDrill
T6C1.100
; #@! TA.AperFunction,Plated,PTH,ComponentDrill
T7C1.190
; #@! TA.AperFunction,Plated,PTH,ComponentDrill
T8C2.300
; #@! TA.AperFunction,Plated,PTH,ComponentDrill
T9C3.500
%
G90
G05
T1
X80.89Y-99.8
X81.69Y-108.1
X81.78Y-103.945
X81.79Y-101.2
X81.99Y-89.5
X82.34Y-117.25
X82.34Y-119.25
X82.59Y-107.0
X82.84Y-113.75
X84.09Y-105.5
X84.09Y-117.25
X84.79Y-91.1
X84.848Y-105.753
X84.889Y-101.976
X85.09Y-114.25
X85.094Y-106.514
X85.345Y-100.595
X86.99Y-101.8
X87.779Y-105.0
X87.79Y-93.5
X87.798Y-103.662
X87.84Y-91.65
X87.84Y-114.25
X87.937Y-102.71
X88.39Y-97.6
X88.706Y-110.425
X89.289Y-99.801
X89.33Y-111.0
X89.58Y-107.35
X89.59Y-114.5
X89.68Y-103.15
X90.48Y-110.3
X90.524Y-97.893
X90.84Y-117.75
X91.19Y-86.9
X92.84Y-89.0
X93.201Y-98.42
X93.34Y-108.75
X93.34Y-113.75
X93.351Y-109.939
X93.833Y-100.119
X94.19Y-91.0
X94.34Y-101.5
X94.59Y-95.0
X94.59Y-96.8
X94.79Y-107.925
X94.84Y-98.0
X94.846Y-98.806
X95.09Y-100.25
X95.09Y-102.075
X95.59Y-102.75
X95.684Y-112.906
X95.796Y-103.592
X96.065Y-105.247
X96.34Y-114.25
X96.529Y-106.749
X96.665Y-104.718
X97.19Y-99.1
X97.197Y-105.786
X97.34Y-93.25
X97.39Y-107.0
X97.59Y-94.25
X97.79Y-112.5
X97.903Y-106.174
X98.09Y-114.25
X99.09Y-106.175
X99.28Y-104.05
X99.34Y-116.0
X100.09Y-107.5
X101.49Y-102.1
X110.521Y-81.319
X111.09Y-72.75
X111.318Y-73.55
X111.34Y-106.5
X111.84Y-99.0
X111.84Y-114.25
X111.84Y-115.25
X112.09Y-106.0
X112.3Y-89.54
X112.34Y-82.5
X112.34Y-92.25
X112.34Y-100.75
X132.081Y-88.4
X132.081Y-89.15
X132.081Y-89.9
X132.081Y-90.65
X132.081Y-91.4
X132.081Y-116.28
X132.081Y-117.03
X132.081Y-117.78
X132.081Y-118.53
X132.081Y-119.28
X132.831Y-88.4
X132.831Y-89.15
X132.831Y-89.9
X132.831Y-90.65
X132.831Y-91.4
X132.831Y-116.28
X132.831Y-117.03
X132.831Y-117.78
X132.831Y-118.53
X132.831Y-119.28
X133.581Y-88.4
X133.581Y-89.15
X133.581Y-89.9
X133.581Y-90.65
X133.581Y-91.4
X133.581Y-116.28
X133.581Y-117.03
X133.581Y-117.78
X133.581Y-118.53
X133.581Y-119.28
X134.331Y-88.4
X134.331Y-89.15
X134.331Y-89.9
X134.331Y-90.65
X134.331Y-91.4
X134.331Y-116.28
X134.331Y-117.03
X134.331Y-117.78
X134.331Y-118.53
X134.331Y-119.28
X141.021Y-71.5
X141.021Y-72.25
X141.021Y-73.0
X141.021Y-73.75
X141.021Y-74.5
X141.021Y-88.4
X141.021Y-89.15
X141.021Y-89.9
X141.021Y-90.65
X141.021Y-91.4
X141.021Y-99.38
X141.021Y-100.13
X141.021Y-100.88
X141.021Y-101.63
X141.021Y-102.38
X141.021Y-116.28
X141.021Y-117.03
X141.021Y-117.78
X141.021Y-118.53
X141.021Y-119.28
X141.271Y-79.95
X141.271Y-80.7
X141.271Y-81.45
X141.271Y-82.2
X141.271Y-82.95
X141.271Y-107.83
X141.271Y-108.58
X141.271Y-109.33
X141.271Y-110.08
X141.271Y-110.83
X141.771Y-71.5
X141.771Y-72.25
X141.771Y-73.0
X141.771Y-73.75
X141.771Y-74.5
X141.771Y-88.4
X141.771Y-89.15
X141.771Y-89.9
X141.771Y-90.65
X141.771Y-91.4
X141.771Y-99.38
X141.771Y-100.13
X141.771Y-100.88
X141.771Y-101.63
X141.771Y-102.38
X141.771Y-116.28
X141.771Y-117.03
X141.771Y-117.78
X141.771Y-118.53
X141.771Y-119.28
X142.021Y-79.95
X142.021Y-80.7
X142.021Y-81.45
X142.021Y-82.2
X142.021Y-82.95
X142.021Y-107.83
X142.021Y-108.58
X142.021Y-109.33
X142.021Y-110.08
X142.021Y-110.83
X142.521Y-71.5
X142.521Y-72.25
X142.521Y-73.0
X142.521Y-73.75
X142.521Y-74.5
X142.521Y-88.4
X142.521Y-89.15
X142.521Y-89.9
X142.521Y-90.65
X142.521Y-91.4
X142.521Y-99.38
X142.521Y-100.13
X142.521Y-100.88
X142.521Y-101.63
X142.521Y-102.38
X142.521Y-116.28
X142.521Y-117.03
X142.521Y-117.78
X142.521Y-118.53
X142.521Y-119.28
X142.771Y-79.95
X142.771Y-80.7
X142.771Y-81.45
X142.771Y-82.2
X142.771Y-82.95
X142.771Y-107.83
X142.771Y-108.58
X142.771Y-109.33
X142.771Y-110.08
X142.771Y-110.83
X143.271Y-71.5
X143.271Y-72.25
X143.271Y-73.0
X143.271Y-73.75
X143.271Y-74.5
X143.271Y-88.4
X143.271Y-89.15
X143.271Y-89.9
X143.271Y-90.65
X143.271Y-91.4
X143.271Y-99.38
X143.271Y-100.13
X143.271Y-100.88
X143.271Y-101.63
X143.271Y-102.38
X143.271Y-116.28
X143.271Y-117.03
X143.271Y-117.78
X143.271Y-118.53
X143.271Y-119.28
X143.521Y-79.95
X143.521Y-80.7
X143.521Y-81.45
X143.521Y-82.2
X143.521Y-82.95
X143.521Y-107.83
X143.521Y-108.58
X143.521Y-109.33
X143.521Y-110.08
X143.521Y-110.83
T2
X89.005Y-103.975
X89.005Y-105.25
X89.005Y-106.525
X90.28Y-103.975
X90.28Y-105.25
X90.28Y-106.525
X91.555Y-103.975
X91.555Y-105.25
X91.555Y-106.525
T3
X132.19Y-79.97
X132.19Y-80.72
X132.19Y-81.47
X132.19Y-82.22
X132.19Y-82.97
X132.19Y-107.85
X132.19Y-108.6
X132.19Y-109.35
X132.19Y-110.1
X132.19Y-110.85
X132.44Y-71.52
X132.44Y-72.27
X132.44Y-73.02
X132.44Y-73.77
X132.44Y-74.52
X132.44Y-99.4
X132.44Y-100.15
X132.44Y-100.9
X132.44Y-101.65
X132.44Y-102.4
X132.94Y-79.97
X132.94Y-80.72
X132.94Y-81.47
X132.94Y-82.22
X132.94Y-82.97
X132.94Y-107.85
X132.94Y-108.6
X132.94Y-109.35
X132.94Y-110.1
X132.94Y-110.85
X133.19Y-71.52
X133.19Y-72.27
X133.19Y-73.02
X133.19Y-73.77
X133.19Y-74.52
X133.19Y-99.4
X133.19Y-100.15
X133.19Y-100.9
X133.19Y-101.65
X133.19Y-102.4
X133.69Y-79.97
X133.69Y-80.72
X133.69Y-82.97
X133.69Y-107.85
X133.69Y-108.6
X133.69Y-110.85
X133.702Y-81.47
X133.702Y-82.22
X133.702Y-109.35
X133.702Y-110.1
X133.922Y-72.27
X133.922Y-73.02
X133.922Y-100.15
X133.922Y-100.9
X133.94Y-71.52
X133.94Y-73.77
X133.94Y-74.52
X133.94Y-99.4
X133.94Y-101.65
X133.94Y-102.4
X134.44Y-79.97
X134.44Y-80.72
X134.44Y-81.47
X134.44Y-82.22
X134.44Y-82.97
X134.44Y-107.85
X134.44Y-108.6
X134.44Y-109.35
X134.44Y-110.1
X134.44Y-110.85
X134.69Y-71.52
X134.69Y-72.27
X134.69Y-73.02
X134.69Y-73.77
X134.69Y-74.52
X134.69Y-99.4
X134.69Y-100.15
X134.69Y-100.9
X134.69Y-101.65
X134.69Y-102.4
X137.921Y-71.131
X137.921Y-71.881
X137.921Y-72.631
X137.921Y-73.381
X137.921Y-74.131
X137.921Y-74.881
X137.921Y-79.581
X137.921Y-80.331
X137.921Y-81.081
X137.921Y-81.831
X137.921Y-82.581
X137.921Y-83.331
X137.921Y-87.781
X137.921Y-88.531
X137.921Y-89.281
X137.921Y-90.031
X137.921Y-90.781
X137.921Y-91.531
X137.921Y-99.011
X137.921Y-99.761
X137.921Y-100.511
X137.921Y-101.261
X137.921Y-102.011
X137.921Y-102.761
X137.921Y-107.461
X137.921Y-108.211
X137.921Y-108.961
X137.921Y-109.711
X137.921Y-110.461
X137.921Y-111.211
X137.921Y-115.661
X137.921Y-116.411
X137.921Y-117.161
X137.921Y-117.911
X137.921Y-118.661
X137.921Y-119.411
X138.671Y-71.131
X138.671Y-71.881
X138.671Y-72.631
X138.671Y-73.381
X138.671Y-74.131
X138.671Y-74.881
X138.671Y-79.581
X138.671Y-80.331
X138.671Y-81.081
X138.671Y-81.831
X138.671Y-82.581
X138.671Y-83.331
X138.671Y-87.781
X138.671Y-88.531
X138.671Y-89.281
X138.671Y-90.031
X138.671Y-90.781
X138.671Y-91.531
X138.671Y-99.011
X138.671Y-99.761
X138.671Y-100.511
X138.671Y-101.261
X138.671Y-102.011
X138.671Y-102.761
X138.671Y-107.461
X138.671Y-108.211
X138.671Y-108.961
X138.671Y-109.711
X138.671Y-110.461
X138.671Y-111.211
X138.671Y-115.661
X138.671Y-116.411
X138.671Y-117.161
X138.671Y-117.911
X138.671Y-118.661
X138.671Y-119.411
T4
X81.59Y-69.8
X83.19Y-80.3
X83.34Y-109.25
X83.34Y-111.0
X83.99Y-71.0
X85.59Y-77.4
X86.99Y-80.2
X87.34Y-113.0
X89.19Y-78.4
X89.19Y-79.4
X90.84Y-113.5
X91.39Y-78.4
X91.39Y-79.4
X93.59Y-74.8
X93.79Y-79.4
X94.39Y-75.2
X95.84Y-110.75
X98.59Y-108.5
X100.59Y-74.0
X100.59Y-75.0
X100.59Y-76.0
X100.59Y-99.0
X101.19Y-120.2
X101.59Y-74.0
X101.59Y-75.0
X101.59Y-76.0
X101.99Y-95.9
X102.59Y-114.25
X104.29Y-74.97
X104.69Y-71.57
X105.69Y-115.5
X106.79Y-98.8
X106.99Y-82.2
X106.99Y-90.47
X106.99Y-107.4
X107.19Y-120.4
X107.79Y-94.0
X107.79Y-111.4
X107.89Y-103.05
X107.99Y-86.2
X108.99Y-96.1
X109.09Y-95.1
X110.29Y-75.37
X110.69Y-96.9
X110.84Y-112.25
X111.29Y-93.27
X111.29Y-101.65
X111.29Y-110.25
X112.34Y-84.97
X114.29Y-70.37
X115.29Y-96.65
X115.29Y-105.05
X115.29Y-113.1
X115.49Y-79.77
X115.49Y-88.07
X116.29Y-119.1
X116.69Y-110.0
X116.89Y-84.72
X116.99Y-93.1
X117.19Y-77.899
X117.19Y-99.7
X118.49Y-79.97
X118.49Y-88.42
X118.49Y-107.85
X118.49Y-116.3
X118.54Y-77.97
X118.54Y-78.97
X118.54Y-83.72
X118.54Y-84.72
X118.54Y-87.42
X118.54Y-92.17
X118.54Y-93.17
X118.54Y-97.4
X118.54Y-98.4
X118.54Y-103.15
X118.54Y-104.15
X118.54Y-105.85
X118.54Y-106.85
X118.54Y-111.6
X118.54Y-112.6
X118.54Y-114.3
X118.54Y-115.3
X118.54Y-119.05
X119.49Y-79.97
X119.49Y-88.42
X119.49Y-107.85
X119.49Y-116.3
X119.54Y-77.97
X119.54Y-78.97
X119.54Y-83.72
X119.54Y-84.72
X119.54Y-87.42
X119.54Y-92.17
X119.54Y-93.17
X119.54Y-97.4
X119.54Y-98.4
X119.54Y-103.15
X119.54Y-104.15
X119.54Y-105.85
X119.54Y-106.85
X119.54Y-111.6
X119.54Y-112.6
X119.54Y-114.3
X119.54Y-115.3
X119.54Y-119.05
X120.49Y-79.97
X120.49Y-88.42
X120.49Y-107.85
X120.49Y-116.3
X120.54Y-77.97
X120.54Y-78.97
X120.54Y-83.72
X120.54Y-84.72
X120.54Y-87.42
X120.54Y-92.17
X120.54Y-93.17
X120.54Y-97.4
X120.54Y-98.4
X120.54Y-103.15
X120.54Y-104.15
X120.54Y-105.85
X120.54Y-106.85
X120.54Y-111.6
X120.54Y-112.6
X120.54Y-114.3
X120.54Y-115.3
X120.54Y-119.05
X121.49Y-79.97
X121.49Y-88.42
X121.49Y-107.85
X121.49Y-116.3
X121.54Y-77.97
X121.54Y-78.97
X121.54Y-83.72
X121.54Y-84.72
X121.54Y-87.42
X121.54Y-92.17
X121.54Y-93.17
X121.54Y-97.4
X121.54Y-98.4
X121.54Y-103.15
X121.54Y-104.15
X121.54Y-105.85
X121.54Y-106.85
X121.54Y-111.6
X121.54Y-112.6
X121.54Y-114.3
X121.54Y-115.3
X121.54Y-119.05
X122.49Y-79.97
X122.49Y-88.42
X122.49Y-107.85
X122.49Y-116.3
X122.54Y-77.97
X122.54Y-78.97
X122.54Y-83.72
X122.54Y-84.72
X122.54Y-87.42
X122.54Y-92.17
X122.54Y-93.17
X122.54Y-97.4
X122.54Y-98.4
X122.54Y-103.15
X122.54Y-104.15
X122.54Y-105.85
X122.54Y-106.85
X122.54Y-111.6
X122.54Y-112.6
X122.54Y-114.3
X122.54Y-115.3
X122.54Y-119.05
X135.24Y-114.75
X135.64Y-97.8
X135.64Y-106.45
X135.99Y-78.6
X136.19Y-70.2
X136.39Y-87.2
X137.69Y-94.37
X137.99Y-77.15
X137.99Y-96.6
X137.99Y-105.8
X138.19Y-86.0
X140.69Y-104.2
X140.79Y-95.0
X142.262Y-96.931
X143.64Y-114.7
X144.04Y-106.25
X144.19Y-94.6
X144.59Y-78.6
X144.79Y-70.4
X144.79Y-87.0
X144.79Y-98.4
X149.04Y-98.15
X149.89Y-94.2
X149.995Y-97.205
X150.29Y-85.12
X150.29Y-86.12
X150.29Y-104.65
X150.29Y-105.65
X150.29Y-114.0
X150.34Y-113.0
X150.39Y-99.0
X150.54Y-75.77
X150.54Y-76.77
X151.29Y-85.12
X151.29Y-86.12
X151.29Y-94.9
X151.29Y-104.65
X151.29Y-105.65
X151.29Y-114.0
X151.34Y-113.0
X151.54Y-75.77
X151.54Y-76.77
X151.69Y-96.6
X151.74Y-93.4
X152.29Y-85.12
X152.29Y-86.12
X152.29Y-104.65
X152.29Y-105.65
X152.29Y-114.0
X152.34Y-113.0
X152.54Y-75.77
X152.54Y-76.77
X153.29Y-85.12
X153.29Y-86.12
X153.29Y-104.65
X153.29Y-105.65
X153.29Y-114.0
X153.54Y-75.77
X153.54Y-76.77
X154.09Y-98.6
X154.29Y-85.12
X154.29Y-86.12
X154.29Y-104.65
X154.29Y-105.65
X154.29Y-114.0
X154.54Y-75.77
X154.54Y-76.77
X155.29Y-85.12
X155.29Y-86.12
X155.29Y-104.65
X155.29Y-105.65
X155.29Y-114.0
X155.54Y-75.77
X155.54Y-76.77
X156.29Y-84.12
X156.29Y-85.12
X156.29Y-86.12
X156.29Y-104.65
X156.29Y-105.65
X156.29Y-113.0
X156.29Y-114.0
X156.54Y-75.77
X156.54Y-76.77
X157.29Y-84.12
X157.29Y-85.12
X157.29Y-104.65
X157.29Y-105.65
X157.29Y-113.0
X157.29Y-114.0
X157.54Y-75.77
X157.54Y-76.77
X158.29Y-84.12
X158.29Y-85.12
X158.29Y-104.65
X158.29Y-105.65
X158.29Y-113.0
X158.29Y-114.0
X158.39Y-94.2
X158.54Y-75.77
X158.54Y-76.77
T6
X95.39Y-84.0
X95.39Y-88.5
X101.89Y-84.0
X101.89Y-88.5
T7
X77.75Y-70.33
X77.75Y-72.87
X77.75Y-75.41
X77.75Y-77.95
X77.75Y-81.68
X77.75Y-84.22
X77.75Y-86.76
X77.75Y-89.3
X77.75Y-93.0
X77.75Y-95.54
X77.75Y-98.08
X77.75Y-100.62
X77.75Y-103.16
X77.75Y-105.7
X77.75Y-109.49
X77.75Y-112.03
X77.75Y-114.57
X77.75Y-117.11
X77.75Y-119.65
X83.39Y-86.6
X85.93Y-86.6
X88.47Y-86.6
T8
X156.619Y-72.13
X156.619Y-80.47
X156.619Y-89.92
X156.619Y-100.51
X156.619Y-109.35
X156.619Y-117.8
T9
X119.74Y-73.0
X126.99Y-73.0
T5
X85.97Y-115.595G85X85.97Y-116.695
G05
X85.97Y-120.025G85X85.97Y-120.625
G05
X94.61Y-115.595G85X94.61Y-116.695
G05
X94.61Y-120.025G85X94.61Y-120.625
G05
T0
M30
