M48
; DRILL file {KiCad 6.0.0-rc2} date Wed 15 Jun 2022 07:41:06 PM PDT
; FORMAT={-:-/ absolute / metric / decimal}
; #@! TF.CreationDate,2022-06-15T19:41:06-07:00
; #@! TF.GenerationSoftware,Kicad,Pcbnew,6.0.0-rc2
; #@! TF.FileFunction,Plated,1,4,PTH
FMAT,2
METRIC
; #@! TA.AperFunction,Plated,PTH,ViaDrill
T1C0.350
; #@! TA.AperFunction,Plated,PTH,ComponentDrill
T2C0.350
; #@! TA.AperFunction,Plated,PTH,ViaDrill
T3C0.400
; #@! TA.AperFunction,Plated,PTH,ViaDrill
T4C0.500
; #@! TA.AperFunction,Plated,PTH,ComponentDrill
T5C0.600
; #@! TA.AperFunction,Plated,PTH,ComponentDrill
T6C1.100
; #@! TA.AperFunction,Plated,PTH,ComponentDrill
T7C1.190
; #@! TA.AperFunction,Plated,PTH,ComponentDrill
T8C2.300
; #@! TA.AperFunction,Plated,PTH,ComponentDrill
T9C3.500
%
G90
G05
T1
X80.89Y-99.8
X81.69Y-108.1
X81.78Y-103.945
X81.79Y-101.2
X81.99Y-89.5
X82.34Y-117.25
X82.34Y-119.25
X82.59Y-107.0
X82.84Y-113.75
X84.09Y-117.25
X84.79Y-91.1
X84.848Y-105.753
X84.889Y-101.976
X85.09Y-114.25
X85.094Y-106.514
X85.345Y-100.595
X86.99Y-101.8
X87.779Y-105.0
X87.79Y-93.5
X87.798Y-103.662
X87.84Y-91.65
X87.84Y-114.25
X87.937Y-102.71
X88.39Y-97.6
X88.706Y-110.425
X89.289Y-99.801
X89.33Y-111.0
X89.58Y-107.35
X89.59Y-114.5
X89.68Y-103.15
X90.48Y-110.3
X90.524Y-97.893
X90.84Y-117.75
X93.201Y-98.42
X93.34Y-108.75
X93.34Y-113.75
X93.351Y-109.939
X93.833Y-100.119
X94.19Y-91.0
X94.34Y-101.5
X94.59Y-95.0
X94.59Y-96.8
X94.79Y-107.925
X94.84Y-98.0
X94.846Y-98.806
X95.09Y-100.25
X95.09Y-102.075
X95.59Y-102.75
X95.684Y-112.906
X95.796Y-103.592
X96.065Y-105.247
X96.34Y-114.25
X96.529Y-106.749
X96.665Y-104.718
X97.19Y-99.1
X97.197Y-105.786
X97.34Y-93.25
X97.39Y-107.0
X97.59Y-94.25
X97.79Y-112.5
X97.903Y-106.174
X98.09Y-114.25
X99.09Y-106.175
X99.28Y-104.05
X99.34Y-116.0
X100.09Y-107.5
X101.49Y-102.1
X110.521Y-81.319
X111.09Y-72.75
X111.318Y-73.55
X111.34Y-106.5
X111.84Y-99.0
X111.84Y-114.25
X111.84Y-115.25
X112.09Y-106.0
X112.3Y-89.54
X112.34Y-82.5
X112.34Y-92.25
X112.34Y-100.75
X132.081Y-86.6
X132.081Y-87.35
X132.081Y-88.1
X132.081Y-88.85
X132.081Y-89.6
X132.081Y-117.38
X132.081Y-118.13
X132.081Y-118.88
X132.081Y-119.63
X132.081Y-120.38
X132.831Y-86.6
X132.831Y-87.35
X132.831Y-88.1
X132.831Y-88.85
X132.831Y-89.6
X132.831Y-117.38
X132.831Y-118.13
X132.831Y-118.88
X132.831Y-119.63
X132.831Y-120.38
X133.581Y-86.6
X133.581Y-87.35
X133.581Y-88.1
X133.581Y-88.85
X133.581Y-89.6
X133.581Y-117.38
X133.581Y-118.13
X133.581Y-118.88
X133.581Y-119.63
X133.581Y-120.38
X134.331Y-86.6
X134.331Y-87.35
X134.331Y-88.1
X134.331Y-88.85
X134.331Y-89.6
X134.331Y-117.38
X134.331Y-118.13
X134.331Y-118.88
X134.331Y-119.63
X134.331Y-120.38
X141.021Y-69.8
X141.021Y-70.55
X141.021Y-71.3
X141.021Y-72.05
X141.021Y-72.8
X141.021Y-86.6
X141.021Y-87.35
X141.021Y-88.1
X141.021Y-88.85
X141.021Y-89.6
X141.021Y-100.48
X141.021Y-101.23
X141.021Y-101.98
X141.021Y-102.73
X141.021Y-103.48
X141.021Y-117.38
X141.021Y-118.13
X141.021Y-118.88
X141.021Y-119.63
X141.021Y-120.38
X141.271Y-78.15
X141.271Y-78.9
X141.271Y-79.65
X141.271Y-80.4
X141.271Y-81.15
X141.271Y-108.93
X141.271Y-109.68
X141.271Y-110.43
X141.271Y-111.18
X141.271Y-111.93
X141.771Y-69.8
X141.771Y-70.55
X141.771Y-71.3
X141.771Y-72.05
X141.771Y-72.8
X141.771Y-86.6
X141.771Y-87.35
X141.771Y-88.1
X141.771Y-88.85
X141.771Y-89.6
X141.771Y-100.48
X141.771Y-101.23
X141.771Y-101.98
X141.771Y-102.73
X141.771Y-103.48
X141.771Y-117.38
X141.771Y-118.13
X141.771Y-118.88
X141.771Y-119.63
X141.771Y-120.38
X142.021Y-78.15
X142.021Y-78.9
X142.021Y-79.65
X142.021Y-80.4
X142.021Y-81.15
X142.021Y-108.93
X142.021Y-109.68
X142.021Y-110.43
X142.021Y-111.18
X142.021Y-111.93
X142.521Y-69.8
X142.521Y-70.55
X142.521Y-71.3
X142.521Y-72.05
X142.521Y-72.8
X142.521Y-86.6
X142.521Y-87.35
X142.521Y-88.1
X142.521Y-88.85
X142.521Y-89.6
X142.521Y-100.48
X142.521Y-101.23
X142.521Y-101.98
X142.521Y-102.73
X142.521Y-103.48
X142.521Y-117.38
X142.521Y-118.13
X142.521Y-118.88
X142.521Y-119.63
X142.521Y-120.38
X142.771Y-78.15
X142.771Y-78.9
X142.771Y-79.65
X142.771Y-80.4
X142.771Y-81.15
X142.771Y-108.93
X142.771Y-109.68
X142.771Y-110.43
X142.771Y-111.18
X142.771Y-111.93
X143.271Y-69.8
X143.271Y-70.55
X143.271Y-71.3
X143.271Y-72.05
X143.271Y-72.8
X143.271Y-86.6
X143.271Y-87.35
X143.271Y-88.1
X143.271Y-88.85
X143.271Y-89.6
X143.271Y-100.48
X143.271Y-101.23
X143.271Y-101.98
X143.271Y-102.73
X143.271Y-103.48
X143.271Y-117.38
X143.271Y-118.13
X143.271Y-118.88
X143.271Y-119.63
X143.271Y-120.38
X143.521Y-78.15
X143.521Y-78.9
X143.521Y-79.65
X143.521Y-80.4
X143.521Y-81.15
X143.521Y-108.93
X143.521Y-109.68
X143.521Y-110.43
X143.521Y-111.18
X143.521Y-111.93
T2
X89.005Y-103.975
X89.005Y-105.25
X89.005Y-106.525
X90.28Y-103.975
X90.28Y-105.25
X90.28Y-106.525
X91.555Y-103.975
X91.555Y-105.25
X91.555Y-106.525
T3
X132.19Y-78.17
X132.19Y-78.92
X132.19Y-79.67
X132.19Y-80.42
X132.19Y-81.17
X132.19Y-108.95
X132.19Y-109.7
X132.19Y-110.45
X132.19Y-111.2
X132.19Y-111.95
X132.44Y-69.82
X132.44Y-70.57
X132.44Y-71.32
X132.44Y-72.07
X132.44Y-72.82
X132.44Y-100.5
X132.44Y-101.25
X132.44Y-102.0
X132.44Y-102.75
X132.44Y-103.5
X132.94Y-78.17
X132.94Y-78.92
X132.94Y-79.67
X132.94Y-80.42
X132.94Y-81.17
X132.94Y-108.95
X132.94Y-109.7
X132.94Y-110.45
X132.94Y-111.2
X132.94Y-111.95
X133.19Y-69.82
X133.19Y-70.57
X133.19Y-71.32
X133.19Y-72.07
X133.19Y-72.82
X133.19Y-100.5
X133.19Y-101.25
X133.19Y-102.0
X133.19Y-102.75
X133.19Y-103.5
X133.69Y-78.17
X133.69Y-78.92
X133.69Y-81.17
X133.69Y-108.95
X133.69Y-109.7
X133.69Y-111.95
X133.702Y-79.67
X133.702Y-80.42
X133.702Y-110.45
X133.702Y-111.2
X133.922Y-70.57
X133.922Y-71.32
X133.922Y-101.25
X133.922Y-102.0
X133.94Y-69.82
X133.94Y-72.07
X133.94Y-72.82
X133.94Y-100.5
X133.94Y-102.75
X133.94Y-103.5
X134.44Y-78.17
X134.44Y-78.92
X134.44Y-79.67
X134.44Y-80.42
X134.44Y-81.17
X134.44Y-108.95
X134.44Y-109.7
X134.44Y-110.45
X134.44Y-111.2
X134.44Y-111.95
X134.69Y-69.82
X134.69Y-70.57
X134.69Y-71.32
X134.69Y-72.07
X134.69Y-72.82
X134.69Y-100.5
X134.69Y-101.25
X134.69Y-102.0
X134.69Y-102.75
X134.69Y-103.5
X137.921Y-69.431
X137.921Y-70.181
X137.921Y-70.931
X137.921Y-71.681
X137.921Y-72.431
X137.921Y-73.181
X137.921Y-77.781
X137.921Y-78.531
X137.921Y-79.281
X137.921Y-80.031
X137.921Y-80.781
X137.921Y-81.531
X137.921Y-85.981
X137.921Y-86.731
X137.921Y-87.481
X137.921Y-88.231
X137.921Y-88.981
X137.921Y-89.731
X137.921Y-100.111
X137.921Y-100.861
X137.921Y-101.611
X137.921Y-102.361
X137.921Y-103.111
X137.921Y-103.861
X137.921Y-108.561
X137.921Y-109.311
X137.921Y-110.061
X137.921Y-110.811
X137.921Y-111.561
X137.921Y-112.311
X137.921Y-116.761
X137.921Y-117.511
X137.921Y-118.261
X137.921Y-119.011
X137.921Y-119.761
X137.921Y-120.511
X138.671Y-69.431
X138.671Y-70.181
X138.671Y-70.931
X138.671Y-71.681
X138.671Y-72.431
X138.671Y-73.181
X138.671Y-77.781
X138.671Y-78.531
X138.671Y-79.281
X138.671Y-80.031
X138.671Y-80.781
X138.671Y-81.531
X138.671Y-85.981
X138.671Y-86.731
X138.671Y-87.481
X138.671Y-88.231
X138.671Y-88.981
X138.671Y-89.731
X138.671Y-100.111
X138.671Y-100.861
X138.671Y-101.611
X138.671Y-102.361
X138.671Y-103.111
X138.671Y-103.861
X138.671Y-108.561
X138.671Y-109.311
X138.671Y-110.061
X138.671Y-110.811
X138.671Y-111.561
X138.671Y-112.311
X138.671Y-116.761
X138.671Y-117.511
X138.671Y-118.261
X138.671Y-119.011
X138.671Y-119.761
X138.671Y-120.511
T4
X81.59Y-69.8
X83.19Y-80.3
X83.34Y-109.25
X83.34Y-111.0
X83.99Y-71.0
X85.59Y-77.4
X86.99Y-80.2
X87.34Y-113.0
X89.19Y-78.4
X89.19Y-79.4
X90.84Y-113.5
X91.39Y-78.4
X91.39Y-79.4
X93.59Y-74.8
X93.79Y-79.4
X94.39Y-75.2
X95.84Y-110.75
X98.59Y-108.5
X99.19Y-73.8
X99.19Y-74.8
X99.19Y-75.8
X100.19Y-73.8
X100.19Y-74.8
X100.19Y-75.8
X100.59Y-99.0
X101.19Y-120.2
X101.99Y-95.9
X102.59Y-114.25
X104.29Y-74.97
X104.69Y-71.57
X105.69Y-115.5
X106.79Y-98.8
X106.99Y-82.2
X106.99Y-90.47
X106.99Y-107.4
X107.19Y-120.4
X107.79Y-94.0
X107.79Y-111.4
X107.89Y-103.05
X107.99Y-86.2
X108.99Y-96.1
X109.09Y-95.1
X110.29Y-75.37
X110.69Y-96.9
X110.84Y-112.25
X111.29Y-93.27
X111.29Y-101.65
X111.29Y-110.25
X112.34Y-84.97
X114.29Y-70.37
X115.29Y-96.65
X115.29Y-105.05
X115.29Y-113.1
X115.49Y-79.77
X115.49Y-88.07
X116.29Y-119.1
X116.69Y-110.0
X116.89Y-84.72
X116.99Y-93.1
X117.19Y-77.899
X117.19Y-99.7
X118.49Y-79.97
X118.49Y-88.42
X118.49Y-107.85
X118.49Y-116.3
X118.54Y-77.97
X118.54Y-78.97
X118.54Y-83.72
X118.54Y-84.72
X118.54Y-87.42
X118.54Y-92.17
X118.54Y-93.17
X118.54Y-97.4
X118.54Y-98.4
X118.54Y-103.15
X118.54Y-104.15
X118.54Y-105.85
X118.54Y-106.85
X118.54Y-111.6
X118.54Y-112.6
X118.54Y-114.3
X118.54Y-115.3
X118.54Y-119.05
X119.49Y-79.97
X119.49Y-88.42
X119.49Y-107.85
X119.49Y-116.3
X119.54Y-77.97
X119.54Y-78.97
X119.54Y-83.72
X119.54Y-84.72
X119.54Y-87.42
X119.54Y-92.17
X119.54Y-93.17
X119.54Y-97.4
X119.54Y-98.4
X119.54Y-103.15
X119.54Y-104.15
X119.54Y-105.85
X119.54Y-106.85
X119.54Y-111.6
X119.54Y-112.6
X119.54Y-114.3
X119.54Y-115.3
X119.54Y-119.05
X120.49Y-79.97
X120.49Y-88.42
X120.49Y-107.85
X120.49Y-116.3
X120.54Y-77.97
X120.54Y-78.97
X120.54Y-83.72
X120.54Y-84.72
X120.54Y-87.42
X120.54Y-92.17
X120.54Y-93.17
X120.54Y-97.4
X120.54Y-98.4
X120.54Y-103.15
X120.54Y-104.15
X120.54Y-105.85
X120.54Y-106.85
X120.54Y-111.6
X120.54Y-112.6
X120.54Y-114.3
X120.54Y-115.3
X120.54Y-119.05
X121.49Y-79.97
X121.49Y-88.42
X121.49Y-107.85
X121.49Y-116.3
X121.54Y-77.97
X121.54Y-78.97
X121.54Y-83.72
X121.54Y-84.72
X121.54Y-87.42
X121.54Y-92.17
X121.54Y-93.17
X121.54Y-97.4
X121.54Y-98.4
X121.54Y-103.15
X121.54Y-104.15
X121.54Y-105.85
X121.54Y-106.85
X121.54Y-111.6
X121.54Y-112.6
X121.54Y-114.3
X121.54Y-115.3
X121.54Y-119.05
X122.49Y-79.97
X122.49Y-88.42
X122.49Y-107.85
X122.49Y-116.3
X122.54Y-77.97
X122.54Y-78.97
X122.54Y-83.72
X122.54Y-84.72
X122.54Y-87.42
X122.54Y-92.17
X122.54Y-93.17
X122.54Y-97.4
X122.54Y-98.4
X122.54Y-103.15
X122.54Y-104.15
X122.54Y-105.85
X122.54Y-106.85
X122.54Y-111.6
X122.54Y-112.6
X122.54Y-114.3
X122.54Y-115.3
X122.54Y-119.05
X135.24Y-115.85
X135.39Y-77.0
X135.49Y-68.7
X135.64Y-107.35
X136.39Y-84.9
X137.99Y-75.349
X137.99Y-106.7
X138.19Y-84.4
X140.69Y-104.6
X143.64Y-115.9
X144.04Y-107.45
X144.09Y-77.1
X144.79Y-68.7
X144.79Y-85.7
X150.19Y-106.0
X150.19Y-106.9
X150.19Y-113.8
X150.19Y-114.7
X150.19Y-115.6
X150.29Y-84.22
X150.54Y-74.17
X151.09Y-106.0
X151.09Y-106.9
X151.09Y-113.8
X151.09Y-114.7
X151.09Y-115.6
X151.54Y-75.07
X151.54Y-76.07
X151.99Y-106.0
X151.99Y-106.9
X151.99Y-113.8
X151.99Y-114.7
X151.99Y-115.6
X152.54Y-75.07
X152.54Y-76.07
X153.54Y-75.07
X153.54Y-76.07
X154.29Y-85.12
X154.29Y-106.4
X154.29Y-107.3
X154.49Y-114.1
X154.49Y-115.0
X154.54Y-75.77
X154.54Y-76.77
X155.19Y-106.4
X155.19Y-107.3
X155.29Y-85.12
X155.39Y-114.1
X155.39Y-115.0
X155.54Y-75.77
X155.54Y-76.77
X156.09Y-106.4
X156.09Y-107.3
X156.29Y-85.12
X156.29Y-114.1
X156.29Y-115.0
X156.54Y-75.77
X156.54Y-76.77
X156.99Y-106.4
X156.99Y-107.3
X157.19Y-114.1
X157.19Y-115.0
X157.29Y-85.12
X157.54Y-75.77
X157.54Y-76.77
X157.89Y-106.4
X157.89Y-107.3
X158.09Y-114.1
X158.09Y-115.0
X158.29Y-85.12
X158.54Y-75.77
X158.54Y-76.77
X158.79Y-106.4
X158.79Y-107.3
X158.99Y-114.1
X158.99Y-115.0
T6
X95.39Y-82.6
X95.39Y-87.1
X101.89Y-82.6
X101.89Y-87.1
T7
X77.75Y-70.33
X77.75Y-72.87
X77.75Y-75.41
X77.75Y-77.95
X77.75Y-81.68
X77.75Y-84.22
X77.75Y-86.76
X77.75Y-89.3
X77.75Y-93.0
X77.75Y-95.54
X77.75Y-98.08
X77.75Y-100.62
X77.75Y-103.16
X77.75Y-105.7
X77.75Y-109.49
X77.75Y-112.03
X77.75Y-114.57
X77.75Y-117.11
X77.75Y-119.65
X83.11Y-86.5
X85.65Y-86.5
X88.19Y-86.5
T8
X156.619Y-72.13
X156.619Y-80.47
X156.619Y-110.65
X156.719Y-102.81
X156.819Y-87.92
X156.819Y-118.6
T9
X119.74Y-73.0
X126.99Y-73.0
T5
X85.97Y-115.595G85X85.97Y-116.695
G05
X85.97Y-120.025G85X85.97Y-120.625
G05
X94.61Y-115.595G85X94.61Y-116.695
G05
X94.61Y-120.025G85X94.61Y-120.625
G05
T0
M30
