%FSLAX45Y45*%
G04 Gerber Fmt 4.5, Leading zero omitted, Abs format (unit mm)*
G04 Created by KiCad (PCBNEW 6.0.0-rc2) date 2022-06-15 13:37:27*
%MOMM*%
%LPD*%
G01*
G04 APERTURE LIST*
%TA.AperFunction,Profile*%
%ADD10C,0.050000*%
%TD*%
%ADD11C,0.200000*%
%ADD12C,0.035000*%
%ADD13C,0.040000*%
%ADD14C,0.050000*%
%ADD15C,0.060000*%
%ADD16C,0.110000*%
%ADD17C,0.119000*%
%ADD18C,0.230000*%
%ADD19C,0.350000*%
G04 APERTURE END LIST*
D10*
X7434000Y-12025000D02*
X7434000Y-6975000D01*
X15809000Y-12200000D02*
G75*
G03*
X15984000Y-12025000I0J175000D01*
G01*
X15809000Y-12200000D02*
X7609000Y-12200000D01*
X7609000Y-6800000D02*
G75*
G03*
X7434000Y-6975000I0J-175000D01*
G01*
X7609000Y-6800000D02*
X15809000Y-6800000D01*
X15984000Y-6975000D02*
G75*
G03*
X15809000Y-6800000I-175000J0D01*
G01*
X7434000Y-12025000D02*
G75*
G03*
X7609000Y-12200000I175000J0D01*
G01*
X15984000Y-6975000D02*
X15984000Y-12025000D01*
D11*
D12*
X8071500Y-9962500D02*
X8106500Y-9997500D01*
X8106500Y-9962500D02*
X8071500Y-9997500D01*
X8151500Y-10792500D02*
X8186500Y-10827500D01*
X8186500Y-10792500D02*
X8151500Y-10827500D01*
X8160500Y-10377000D02*
X8195500Y-10412000D01*
X8195500Y-10377000D02*
X8160500Y-10412000D01*
X8161500Y-10102500D02*
X8196500Y-10137500D01*
X8196500Y-10102500D02*
X8161500Y-10137500D01*
X8181500Y-8932500D02*
X8216500Y-8967500D01*
X8216500Y-8932500D02*
X8181500Y-8967500D01*
X8216500Y-11707500D02*
X8251500Y-11742500D01*
X8251500Y-11707500D02*
X8216500Y-11742500D01*
X8216500Y-11907500D02*
X8251500Y-11942500D01*
X8251500Y-11907500D02*
X8216500Y-11942500D01*
X8241500Y-10682500D02*
X8276500Y-10717500D01*
X8276500Y-10682500D02*
X8241500Y-10717500D01*
X8266500Y-11357500D02*
X8301500Y-11392500D01*
X8301500Y-11357500D02*
X8266500Y-11392500D01*
X8391500Y-10532500D02*
X8426500Y-10567500D01*
X8426500Y-10532500D02*
X8391500Y-10567500D01*
X8391500Y-11707500D02*
X8426500Y-11742500D01*
X8426500Y-11707500D02*
X8391500Y-11742500D01*
X8461500Y-9092500D02*
X8496500Y-9127500D01*
X8496500Y-9092500D02*
X8461500Y-9127500D01*
X8467348Y-10557783D02*
X8502348Y-10592783D01*
X8502348Y-10557783D02*
X8467348Y-10592783D01*
X8471431Y-10180098D02*
X8506431Y-10215098D01*
X8506431Y-10180098D02*
X8471431Y-10215098D01*
X8491500Y-11407500D02*
X8526500Y-11442500D01*
X8526500Y-11407500D02*
X8491500Y-11442500D01*
X8491939Y-10633857D02*
X8526939Y-10668857D01*
X8526939Y-10633857D02*
X8491939Y-10668857D01*
X8516995Y-10041955D02*
X8551995Y-10076955D01*
X8551995Y-10041955D02*
X8516995Y-10076955D01*
X8681500Y-10162500D02*
X8716500Y-10197500D01*
X8716500Y-10162500D02*
X8681500Y-10197500D01*
X8760450Y-10482500D02*
X8795450Y-10517500D01*
X8795450Y-10482500D02*
X8760450Y-10517500D01*
X8761500Y-9332500D02*
X8796500Y-9367500D01*
X8796500Y-9332500D02*
X8761500Y-9367500D01*
X8762257Y-10348714D02*
X8797257Y-10383714D01*
X8797257Y-10348714D02*
X8762257Y-10383714D01*
X8766500Y-9147500D02*
X8801500Y-9182500D01*
X8801500Y-9147500D02*
X8766500Y-9182500D01*
X8766500Y-11407500D02*
X8801500Y-11442500D01*
X8801500Y-11407500D02*
X8766500Y-11442500D01*
X8776203Y-10253521D02*
X8811203Y-10288521D01*
X8811203Y-10253521D02*
X8776203Y-10288521D01*
X8821500Y-9742500D02*
X8856500Y-9777500D01*
X8856500Y-9742500D02*
X8821500Y-9777500D01*
X8853050Y-11025050D02*
X8888050Y-11060050D01*
X8888050Y-11025050D02*
X8853050Y-11060050D01*
X8911384Y-9962616D02*
X8946384Y-9997616D01*
X8946384Y-9962616D02*
X8911384Y-9997616D01*
X8915550Y-11082500D02*
X8950550Y-11117500D01*
X8950550Y-11082500D02*
X8915550Y-11117500D01*
X8940500Y-10717500D02*
X8975500Y-10752500D01*
X8975500Y-10717500D02*
X8940500Y-10752500D01*
X8941500Y-11432500D02*
X8976500Y-11467500D01*
X8976500Y-11432500D02*
X8941500Y-11467500D01*
X8950503Y-10297500D02*
X8985503Y-10332500D01*
X8985503Y-10297500D02*
X8950503Y-10332500D01*
X9030500Y-11012501D02*
X9065500Y-11047501D01*
X9065500Y-11012501D02*
X9030500Y-11047501D01*
X9034950Y-9771850D02*
X9069950Y-9806850D01*
X9069950Y-9771850D02*
X9034950Y-9806850D01*
X9066500Y-11757500D02*
X9101500Y-11792500D01*
X9101500Y-11757500D02*
X9066500Y-11792500D01*
X9101500Y-8672500D02*
X9136500Y-8707500D01*
X9136500Y-8672500D02*
X9101500Y-8707500D01*
X9266500Y-8882500D02*
X9301500Y-8917500D01*
X9301500Y-8882500D02*
X9266500Y-8917500D01*
X9302600Y-9824550D02*
X9337600Y-9859550D01*
X9337600Y-9824550D02*
X9302600Y-9859550D01*
X9316500Y-10857500D02*
X9351500Y-10892500D01*
X9351500Y-10857500D02*
X9316500Y-10892500D01*
X9316500Y-11357500D02*
X9351500Y-11392500D01*
X9351500Y-11357500D02*
X9316500Y-11392500D01*
X9317623Y-10976377D02*
X9352623Y-11011377D01*
X9352623Y-10976377D02*
X9317623Y-11011377D01*
X9365803Y-9994444D02*
X9400803Y-10029444D01*
X9400803Y-9994444D02*
X9365803Y-10029444D01*
X9401500Y-9082500D02*
X9436500Y-9117500D01*
X9436500Y-9082500D02*
X9401500Y-9117500D01*
X9416500Y-10132500D02*
X9451500Y-10167500D01*
X9451500Y-10132500D02*
X9416500Y-10167500D01*
X9441500Y-9482500D02*
X9476500Y-9517500D01*
X9476500Y-9482500D02*
X9441500Y-9517500D01*
X9441500Y-9662500D02*
X9476500Y-9697500D01*
X9476500Y-9662500D02*
X9441500Y-9697500D01*
X9461500Y-10775050D02*
X9496500Y-10810050D01*
X9496500Y-10775050D02*
X9461500Y-10810050D01*
X9466500Y-9782500D02*
X9501500Y-9817500D01*
X9501500Y-9782500D02*
X9466500Y-9817500D01*
X9467148Y-9863099D02*
X9502148Y-9898099D01*
X9502148Y-9863099D02*
X9467148Y-9898099D01*
X9491500Y-10007500D02*
X9526500Y-10042500D01*
X9526500Y-10007500D02*
X9491500Y-10042500D01*
X9491500Y-10189950D02*
X9526500Y-10224950D01*
X9526500Y-10189950D02*
X9491500Y-10224950D01*
X9541500Y-10257500D02*
X9576500Y-10292500D01*
X9576500Y-10257500D02*
X9541500Y-10292500D01*
X9550877Y-11273123D02*
X9585877Y-11308123D01*
X9585877Y-11273123D02*
X9550877Y-11308123D01*
X9562098Y-10341667D02*
X9597098Y-10376667D01*
X9597098Y-10341667D02*
X9562098Y-10376667D01*
X9588973Y-10507178D02*
X9623973Y-10542178D01*
X9623973Y-10507178D02*
X9588973Y-10542178D01*
X9616500Y-11407500D02*
X9651500Y-11442500D01*
X9651500Y-11407500D02*
X9616500Y-11442500D01*
X9635421Y-10657353D02*
X9670421Y-10692353D01*
X9670421Y-10657353D02*
X9635421Y-10692353D01*
X9648951Y-10454313D02*
X9683951Y-10489313D01*
X9683951Y-10454313D02*
X9648951Y-10489313D01*
X9701500Y-9892500D02*
X9736500Y-9927500D01*
X9736500Y-9892500D02*
X9701500Y-9927500D01*
X9702186Y-10561099D02*
X9737186Y-10596099D01*
X9737186Y-10561099D02*
X9702186Y-10596099D01*
X9716500Y-9307500D02*
X9751500Y-9342500D01*
X9751500Y-9307500D02*
X9716500Y-9342500D01*
X9721500Y-10682500D02*
X9756500Y-10717500D01*
X9756500Y-10682500D02*
X9721500Y-10717500D01*
X9741500Y-9407500D02*
X9776500Y-9442500D01*
X9776500Y-9407500D02*
X9741500Y-9442500D01*
X9761500Y-11232500D02*
X9796500Y-11267500D01*
X9796500Y-11232500D02*
X9761500Y-11267500D01*
X9772845Y-10599950D02*
X9807845Y-10634950D01*
X9807845Y-10599950D02*
X9772845Y-10634950D01*
X9791500Y-11407500D02*
X9826500Y-11442500D01*
X9826500Y-11407500D02*
X9791500Y-11442500D01*
X9891500Y-10600050D02*
X9926500Y-10635050D01*
X9926500Y-10600050D02*
X9891500Y-10635050D01*
X9910500Y-10387500D02*
X9945500Y-10422500D01*
X9945500Y-10387500D02*
X9910500Y-10422500D01*
X9916500Y-11582500D02*
X9951500Y-11617500D01*
X9951500Y-11582500D02*
X9916500Y-11617500D01*
X9991500Y-10732500D02*
X10026500Y-10767500D01*
X10026500Y-10732500D02*
X9991500Y-10767500D01*
X10131500Y-10192500D02*
X10166500Y-10227500D01*
X10166500Y-10192500D02*
X10131500Y-10227500D01*
X11034573Y-8114427D02*
X11069573Y-8149427D01*
X11069573Y-8114427D02*
X11034573Y-8149427D01*
X11091500Y-7257500D02*
X11126500Y-7292500D01*
X11126500Y-7257500D02*
X11091500Y-7292500D01*
X11114328Y-7337550D02*
X11149328Y-7372550D01*
X11149328Y-7337550D02*
X11114328Y-7372550D01*
X11116500Y-10632500D02*
X11151500Y-10667500D01*
X11151500Y-10632500D02*
X11116500Y-10667500D01*
X11166500Y-9882500D02*
X11201500Y-9917500D01*
X11201500Y-9882500D02*
X11166500Y-9917500D01*
X11166500Y-11407500D02*
X11201500Y-11442500D01*
X11201500Y-11407500D02*
X11166500Y-11442500D01*
X11166500Y-11507500D02*
X11201500Y-11542500D01*
X11201500Y-11507500D02*
X11166500Y-11542500D01*
X11191500Y-10582500D02*
X11226500Y-10617500D01*
X11226500Y-10582500D02*
X11191500Y-10617500D01*
X11212467Y-8936533D02*
X11247467Y-8971533D01*
X11247467Y-8936533D02*
X11212467Y-8971533D01*
X11216500Y-8232500D02*
X11251500Y-8267500D01*
X11251500Y-8232500D02*
X11216500Y-8267500D01*
X11216500Y-9207500D02*
X11251500Y-9242500D01*
X11251500Y-9207500D02*
X11216500Y-9242500D01*
X11216500Y-10057500D02*
X11251500Y-10092500D01*
X11251500Y-10057500D02*
X11216500Y-10092500D01*
X13190590Y-8822500D02*
X13225590Y-8857500D01*
X13225590Y-8822500D02*
X13190590Y-8857500D01*
X13190590Y-8897500D02*
X13225590Y-8932500D01*
X13225590Y-8897500D02*
X13190590Y-8932500D01*
X13190590Y-8972500D02*
X13225590Y-9007500D01*
X13225590Y-8972500D02*
X13190590Y-9007500D01*
X13190590Y-9047500D02*
X13225590Y-9082500D01*
X13225590Y-9047500D02*
X13190590Y-9082500D01*
X13190590Y-9122500D02*
X13225590Y-9157500D01*
X13225590Y-9122500D02*
X13190590Y-9157500D01*
X13190590Y-11610500D02*
X13225590Y-11645500D01*
X13225590Y-11610500D02*
X13190590Y-11645500D01*
X13190590Y-11685500D02*
X13225590Y-11720500D01*
X13225590Y-11685500D02*
X13190590Y-11720500D01*
X13190590Y-11760500D02*
X13225590Y-11795500D01*
X13225590Y-11760500D02*
X13190590Y-11795500D01*
X13190590Y-11835500D02*
X13225590Y-11870500D01*
X13225590Y-11835500D02*
X13190590Y-11870500D01*
X13190590Y-11910500D02*
X13225590Y-11945500D01*
X13225590Y-11910500D02*
X13190590Y-11945500D01*
X13265590Y-8822500D02*
X13300590Y-8857500D01*
X13300590Y-8822500D02*
X13265590Y-8857500D01*
X13265590Y-8897500D02*
X13300590Y-8932500D01*
X13300590Y-8897500D02*
X13265590Y-8932500D01*
X13265590Y-8972500D02*
X13300590Y-9007500D01*
X13300590Y-8972500D02*
X13265590Y-9007500D01*
X13265590Y-9047500D02*
X13300590Y-9082500D01*
X13300590Y-9047500D02*
X13265590Y-9082500D01*
X13265590Y-9122500D02*
X13300590Y-9157500D01*
X13300590Y-9122500D02*
X13265590Y-9157500D01*
X13265590Y-11610500D02*
X13300590Y-11645500D01*
X13300590Y-11610500D02*
X13265590Y-11645500D01*
X13265590Y-11685500D02*
X13300590Y-11720500D01*
X13300590Y-11685500D02*
X13265590Y-11720500D01*
X13265590Y-11760500D02*
X13300590Y-11795500D01*
X13300590Y-11760500D02*
X13265590Y-11795500D01*
X13265590Y-11835500D02*
X13300590Y-11870500D01*
X13300590Y-11835500D02*
X13265590Y-11870500D01*
X13265590Y-11910500D02*
X13300590Y-11945500D01*
X13300590Y-11910500D02*
X13265590Y-11945500D01*
X13340590Y-8822500D02*
X13375590Y-8857500D01*
X13375590Y-8822500D02*
X13340590Y-8857500D01*
X13340590Y-8897500D02*
X13375590Y-8932500D01*
X13375590Y-8897500D02*
X13340590Y-8932500D01*
X13340590Y-8972500D02*
X13375590Y-9007500D01*
X13375590Y-8972500D02*
X13340590Y-9007500D01*
X13340590Y-9047500D02*
X13375590Y-9082500D01*
X13375590Y-9047500D02*
X13340590Y-9082500D01*
X13340590Y-9122500D02*
X13375590Y-9157500D01*
X13375590Y-9122500D02*
X13340590Y-9157500D01*
X13340590Y-11610500D02*
X13375590Y-11645500D01*
X13375590Y-11610500D02*
X13340590Y-11645500D01*
X13340590Y-11685500D02*
X13375590Y-11720500D01*
X13375590Y-11685500D02*
X13340590Y-11720500D01*
X13340590Y-11760500D02*
X13375590Y-11795500D01*
X13375590Y-11760500D02*
X13340590Y-11795500D01*
X13340590Y-11835500D02*
X13375590Y-11870500D01*
X13375590Y-11835500D02*
X13340590Y-11870500D01*
X13340590Y-11910500D02*
X13375590Y-11945500D01*
X13375590Y-11910500D02*
X13340590Y-11945500D01*
X13415590Y-8822500D02*
X13450590Y-8857500D01*
X13450590Y-8822500D02*
X13415590Y-8857500D01*
X13415590Y-8897500D02*
X13450590Y-8932500D01*
X13450590Y-8897500D02*
X13415590Y-8932500D01*
X13415590Y-8972500D02*
X13450590Y-9007500D01*
X13450590Y-8972500D02*
X13415590Y-9007500D01*
X13415590Y-9047500D02*
X13450590Y-9082500D01*
X13450590Y-9047500D02*
X13415590Y-9082500D01*
X13415590Y-9122500D02*
X13450590Y-9157500D01*
X13450590Y-9122500D02*
X13415590Y-9157500D01*
X13415590Y-11610500D02*
X13450590Y-11645500D01*
X13450590Y-11610500D02*
X13415590Y-11645500D01*
X13415590Y-11685500D02*
X13450590Y-11720500D01*
X13450590Y-11685500D02*
X13415590Y-11720500D01*
X13415590Y-11760500D02*
X13450590Y-11795500D01*
X13450590Y-11760500D02*
X13415590Y-11795500D01*
X13415590Y-11835500D02*
X13450590Y-11870500D01*
X13450590Y-11835500D02*
X13415590Y-11870500D01*
X13415590Y-11910500D02*
X13450590Y-11945500D01*
X13450590Y-11910500D02*
X13415590Y-11945500D01*
X14084590Y-7132500D02*
X14119590Y-7167500D01*
X14119590Y-7132500D02*
X14084590Y-7167500D01*
X14084590Y-7207500D02*
X14119590Y-7242500D01*
X14119590Y-7207500D02*
X14084590Y-7242500D01*
X14084590Y-7282500D02*
X14119590Y-7317500D01*
X14119590Y-7282500D02*
X14084590Y-7317500D01*
X14084590Y-7357500D02*
X14119590Y-7392500D01*
X14119590Y-7357500D02*
X14084590Y-7392500D01*
X14084590Y-7432500D02*
X14119590Y-7467500D01*
X14119590Y-7432500D02*
X14084590Y-7467500D01*
X14084590Y-8822500D02*
X14119590Y-8857500D01*
X14119590Y-8822500D02*
X14084590Y-8857500D01*
X14084590Y-8897500D02*
X14119590Y-8932500D01*
X14119590Y-8897500D02*
X14084590Y-8932500D01*
X14084590Y-8972500D02*
X14119590Y-9007500D01*
X14119590Y-8972500D02*
X14084590Y-9007500D01*
X14084590Y-9047500D02*
X14119590Y-9082500D01*
X14119590Y-9047500D02*
X14084590Y-9082500D01*
X14084590Y-9122500D02*
X14119590Y-9157500D01*
X14119590Y-9122500D02*
X14084590Y-9157500D01*
X14084590Y-9920500D02*
X14119590Y-9955500D01*
X14119590Y-9920500D02*
X14084590Y-9955500D01*
X14084590Y-9995500D02*
X14119590Y-10030500D01*
X14119590Y-9995500D02*
X14084590Y-10030500D01*
X14084590Y-10070500D02*
X14119590Y-10105500D01*
X14119590Y-10070500D02*
X14084590Y-10105500D01*
X14084590Y-10145500D02*
X14119590Y-10180500D01*
X14119590Y-10145500D02*
X14084590Y-10180500D01*
X14084590Y-10220500D02*
X14119590Y-10255500D01*
X14119590Y-10220500D02*
X14084590Y-10255500D01*
X14084590Y-11610500D02*
X14119590Y-11645500D01*
X14119590Y-11610500D02*
X14084590Y-11645500D01*
X14084590Y-11685500D02*
X14119590Y-11720500D01*
X14119590Y-11685500D02*
X14084590Y-11720500D01*
X14084590Y-11760500D02*
X14119590Y-11795500D01*
X14119590Y-11760500D02*
X14084590Y-11795500D01*
X14084590Y-11835500D02*
X14119590Y-11870500D01*
X14119590Y-11835500D02*
X14084590Y-11870500D01*
X14084590Y-11910500D02*
X14119590Y-11945500D01*
X14119590Y-11910500D02*
X14084590Y-11945500D01*
X14109590Y-7977500D02*
X14144590Y-8012500D01*
X14144590Y-7977500D02*
X14109590Y-8012500D01*
X14109590Y-8052500D02*
X14144590Y-8087500D01*
X14144590Y-8052500D02*
X14109590Y-8087500D01*
X14109590Y-8127500D02*
X14144590Y-8162500D01*
X14144590Y-8127500D02*
X14109590Y-8162500D01*
X14109590Y-8202500D02*
X14144590Y-8237500D01*
X14144590Y-8202500D02*
X14109590Y-8237500D01*
X14109590Y-8277500D02*
X14144590Y-8312500D01*
X14144590Y-8277500D02*
X14109590Y-8312500D01*
X14109590Y-10765500D02*
X14144590Y-10800500D01*
X14144590Y-10765500D02*
X14109590Y-10800500D01*
X14109590Y-10840500D02*
X14144590Y-10875500D01*
X14144590Y-10840500D02*
X14109590Y-10875500D01*
X14109590Y-10915500D02*
X14144590Y-10950500D01*
X14144590Y-10915500D02*
X14109590Y-10950500D01*
X14109590Y-10990500D02*
X14144590Y-11025500D01*
X14144590Y-10990500D02*
X14109590Y-11025500D01*
X14109590Y-11065500D02*
X14144590Y-11100500D01*
X14144590Y-11065500D02*
X14109590Y-11100500D01*
X14159590Y-7132500D02*
X14194590Y-7167500D01*
X14194590Y-7132500D02*
X14159590Y-7167500D01*
X14159590Y-7207500D02*
X14194590Y-7242500D01*
X14194590Y-7207500D02*
X14159590Y-7242500D01*
X14159590Y-7282500D02*
X14194590Y-7317500D01*
X14194590Y-7282500D02*
X14159590Y-7317500D01*
X14159590Y-7357500D02*
X14194590Y-7392500D01*
X14194590Y-7357500D02*
X14159590Y-7392500D01*
X14159590Y-7432500D02*
X14194590Y-7467500D01*
X14194590Y-7432500D02*
X14159590Y-7467500D01*
X14159590Y-8822500D02*
X14194590Y-8857500D01*
X14194590Y-8822500D02*
X14159590Y-8857500D01*
X14159590Y-8897500D02*
X14194590Y-8932500D01*
X14194590Y-8897500D02*
X14159590Y-8932500D01*
X14159590Y-8972500D02*
X14194590Y-9007500D01*
X14194590Y-8972500D02*
X14159590Y-9007500D01*
X14159590Y-9047500D02*
X14194590Y-9082500D01*
X14194590Y-9047500D02*
X14159590Y-9082500D01*
X14159590Y-9122500D02*
X14194590Y-9157500D01*
X14194590Y-9122500D02*
X14159590Y-9157500D01*
X14159590Y-9920500D02*
X14194590Y-9955500D01*
X14194590Y-9920500D02*
X14159590Y-9955500D01*
X14159590Y-9995500D02*
X14194590Y-10030500D01*
X14194590Y-9995500D02*
X14159590Y-10030500D01*
X14159590Y-10070500D02*
X14194590Y-10105500D01*
X14194590Y-10070500D02*
X14159590Y-10105500D01*
X14159590Y-10145500D02*
X14194590Y-10180500D01*
X14194590Y-10145500D02*
X14159590Y-10180500D01*
X14159590Y-10220500D02*
X14194590Y-10255500D01*
X14194590Y-10220500D02*
X14159590Y-10255500D01*
X14159590Y-11610500D02*
X14194590Y-11645500D01*
X14194590Y-11610500D02*
X14159590Y-11645500D01*
X14159590Y-11685500D02*
X14194590Y-11720500D01*
X14194590Y-11685500D02*
X14159590Y-11720500D01*
X14159590Y-11760500D02*
X14194590Y-11795500D01*
X14194590Y-11760500D02*
X14159590Y-11795500D01*
X14159590Y-11835500D02*
X14194590Y-11870500D01*
X14194590Y-11835500D02*
X14159590Y-11870500D01*
X14159590Y-11910500D02*
X14194590Y-11945500D01*
X14194590Y-11910500D02*
X14159590Y-11945500D01*
X14184590Y-7977500D02*
X14219590Y-8012500D01*
X14219590Y-7977500D02*
X14184590Y-8012500D01*
X14184590Y-8052500D02*
X14219590Y-8087500D01*
X14219590Y-8052500D02*
X14184590Y-8087500D01*
X14184590Y-8127500D02*
X14219590Y-8162500D01*
X14219590Y-8127500D02*
X14184590Y-8162500D01*
X14184590Y-8202500D02*
X14219590Y-8237500D01*
X14219590Y-8202500D02*
X14184590Y-8237500D01*
X14184590Y-8277500D02*
X14219590Y-8312500D01*
X14219590Y-8277500D02*
X14184590Y-8312500D01*
X14184590Y-10765500D02*
X14219590Y-10800500D01*
X14219590Y-10765500D02*
X14184590Y-10800500D01*
X14184590Y-10840500D02*
X14219590Y-10875500D01*
X14219590Y-10840500D02*
X14184590Y-10875500D01*
X14184590Y-10915500D02*
X14219590Y-10950500D01*
X14219590Y-10915500D02*
X14184590Y-10950500D01*
X14184590Y-10990500D02*
X14219590Y-11025500D01*
X14219590Y-10990500D02*
X14184590Y-11025500D01*
X14184590Y-11065500D02*
X14219590Y-11100500D01*
X14219590Y-11065500D02*
X14184590Y-11100500D01*
X14234590Y-7132500D02*
X14269590Y-7167500D01*
X14269590Y-7132500D02*
X14234590Y-7167500D01*
X14234590Y-7207500D02*
X14269590Y-7242500D01*
X14269590Y-7207500D02*
X14234590Y-7242500D01*
X14234590Y-7282500D02*
X14269590Y-7317500D01*
X14269590Y-7282500D02*
X14234590Y-7317500D01*
X14234590Y-7357500D02*
X14269590Y-7392500D01*
X14269590Y-7357500D02*
X14234590Y-7392500D01*
X14234590Y-7432500D02*
X14269590Y-7467500D01*
X14269590Y-7432500D02*
X14234590Y-7467500D01*
X14234590Y-8822500D02*
X14269590Y-8857500D01*
X14269590Y-8822500D02*
X14234590Y-8857500D01*
X14234590Y-8897500D02*
X14269590Y-8932500D01*
X14269590Y-8897500D02*
X14234590Y-8932500D01*
X14234590Y-8972500D02*
X14269590Y-9007500D01*
X14269590Y-8972500D02*
X14234590Y-9007500D01*
X14234590Y-9047500D02*
X14269590Y-9082500D01*
X14269590Y-9047500D02*
X14234590Y-9082500D01*
X14234590Y-9122500D02*
X14269590Y-9157500D01*
X14269590Y-9122500D02*
X14234590Y-9157500D01*
X14234590Y-9920500D02*
X14269590Y-9955500D01*
X14269590Y-9920500D02*
X14234590Y-9955500D01*
X14234590Y-9995500D02*
X14269590Y-10030500D01*
X14269590Y-9995500D02*
X14234590Y-10030500D01*
X14234590Y-10070500D02*
X14269590Y-10105500D01*
X14269590Y-10070500D02*
X14234590Y-10105500D01*
X14234590Y-10145500D02*
X14269590Y-10180500D01*
X14269590Y-10145500D02*
X14234590Y-10180500D01*
X14234590Y-10220500D02*
X14269590Y-10255500D01*
X14269590Y-10220500D02*
X14234590Y-10255500D01*
X14234590Y-11610500D02*
X14269590Y-11645500D01*
X14269590Y-11610500D02*
X14234590Y-11645500D01*
X14234590Y-11685500D02*
X14269590Y-11720500D01*
X14269590Y-11685500D02*
X14234590Y-11720500D01*
X14234590Y-11760500D02*
X14269590Y-11795500D01*
X14269590Y-11760500D02*
X14234590Y-11795500D01*
X14234590Y-11835500D02*
X14269590Y-11870500D01*
X14269590Y-11835500D02*
X14234590Y-11870500D01*
X14234590Y-11910500D02*
X14269590Y-11945500D01*
X14269590Y-11910500D02*
X14234590Y-11945500D01*
X14259590Y-7977500D02*
X14294590Y-8012500D01*
X14294590Y-7977500D02*
X14259590Y-8012500D01*
X14259590Y-8052500D02*
X14294590Y-8087500D01*
X14294590Y-8052500D02*
X14259590Y-8087500D01*
X14259590Y-8127500D02*
X14294590Y-8162500D01*
X14294590Y-8127500D02*
X14259590Y-8162500D01*
X14259590Y-8202500D02*
X14294590Y-8237500D01*
X14294590Y-8202500D02*
X14259590Y-8237500D01*
X14259590Y-8277500D02*
X14294590Y-8312500D01*
X14294590Y-8277500D02*
X14259590Y-8312500D01*
X14259590Y-10765500D02*
X14294590Y-10800500D01*
X14294590Y-10765500D02*
X14259590Y-10800500D01*
X14259590Y-10840500D02*
X14294590Y-10875500D01*
X14294590Y-10840500D02*
X14259590Y-10875500D01*
X14259590Y-10915500D02*
X14294590Y-10950500D01*
X14294590Y-10915500D02*
X14259590Y-10950500D01*
X14259590Y-10990500D02*
X14294590Y-11025500D01*
X14294590Y-10990500D02*
X14259590Y-11025500D01*
X14259590Y-11065500D02*
X14294590Y-11100500D01*
X14294590Y-11065500D02*
X14259590Y-11100500D01*
X14309590Y-7132500D02*
X14344590Y-7167500D01*
X14344590Y-7132500D02*
X14309590Y-7167500D01*
X14309590Y-7207500D02*
X14344590Y-7242500D01*
X14344590Y-7207500D02*
X14309590Y-7242500D01*
X14309590Y-7282500D02*
X14344590Y-7317500D01*
X14344590Y-7282500D02*
X14309590Y-7317500D01*
X14309590Y-7357500D02*
X14344590Y-7392500D01*
X14344590Y-7357500D02*
X14309590Y-7392500D01*
X14309590Y-7432500D02*
X14344590Y-7467500D01*
X14344590Y-7432500D02*
X14309590Y-7467500D01*
X14309590Y-8822500D02*
X14344590Y-8857500D01*
X14344590Y-8822500D02*
X14309590Y-8857500D01*
X14309590Y-8897500D02*
X14344590Y-8932500D01*
X14344590Y-8897500D02*
X14309590Y-8932500D01*
X14309590Y-8972500D02*
X14344590Y-9007500D01*
X14344590Y-8972500D02*
X14309590Y-9007500D01*
X14309590Y-9047500D02*
X14344590Y-9082500D01*
X14344590Y-9047500D02*
X14309590Y-9082500D01*
X14309590Y-9122500D02*
X14344590Y-9157500D01*
X14344590Y-9122500D02*
X14309590Y-9157500D01*
X14309590Y-9920500D02*
X14344590Y-9955500D01*
X14344590Y-9920500D02*
X14309590Y-9955500D01*
X14309590Y-9995500D02*
X14344590Y-10030500D01*
X14344590Y-9995500D02*
X14309590Y-10030500D01*
X14309590Y-10070500D02*
X14344590Y-10105500D01*
X14344590Y-10070500D02*
X14309590Y-10105500D01*
X14309590Y-10145500D02*
X14344590Y-10180500D01*
X14344590Y-10145500D02*
X14309590Y-10180500D01*
X14309590Y-10220500D02*
X14344590Y-10255500D01*
X14344590Y-10220500D02*
X14309590Y-10255500D01*
X14309590Y-11610500D02*
X14344590Y-11645500D01*
X14344590Y-11610500D02*
X14309590Y-11645500D01*
X14309590Y-11685500D02*
X14344590Y-11720500D01*
X14344590Y-11685500D02*
X14309590Y-11720500D01*
X14309590Y-11760500D02*
X14344590Y-11795500D01*
X14344590Y-11760500D02*
X14309590Y-11795500D01*
X14309590Y-11835500D02*
X14344590Y-11870500D01*
X14344590Y-11835500D02*
X14309590Y-11870500D01*
X14309590Y-11910500D02*
X14344590Y-11945500D01*
X14344590Y-11910500D02*
X14309590Y-11945500D01*
X14334590Y-7977500D02*
X14369590Y-8012500D01*
X14369590Y-7977500D02*
X14334590Y-8012500D01*
X14334590Y-8052500D02*
X14369590Y-8087500D01*
X14369590Y-8052500D02*
X14334590Y-8087500D01*
X14334590Y-8127500D02*
X14369590Y-8162500D01*
X14369590Y-8127500D02*
X14334590Y-8162500D01*
X14334590Y-8202500D02*
X14369590Y-8237500D01*
X14369590Y-8202500D02*
X14334590Y-8237500D01*
X14334590Y-8277500D02*
X14369590Y-8312500D01*
X14369590Y-8277500D02*
X14334590Y-8312500D01*
X14334590Y-10765500D02*
X14369590Y-10800500D01*
X14369590Y-10765500D02*
X14334590Y-10800500D01*
X14334590Y-10840500D02*
X14369590Y-10875500D01*
X14369590Y-10840500D02*
X14334590Y-10875500D01*
X14334590Y-10915500D02*
X14369590Y-10950500D01*
X14369590Y-10915500D02*
X14334590Y-10950500D01*
X14334590Y-10990500D02*
X14369590Y-11025500D01*
X14369590Y-10990500D02*
X14334590Y-11025500D01*
X14334590Y-11065500D02*
X14369590Y-11100500D01*
X14369590Y-11065500D02*
X14334590Y-11100500D01*
X8918000Y-10397500D02*
G75*
G03*
X8918000Y-10397500I-17500J0D01*
G01*
X8918000Y-10525000D02*
G75*
G03*
X8918000Y-10525000I-17500J0D01*
G01*
X8918000Y-10652500D02*
G75*
G03*
X8918000Y-10652500I-17500J0D01*
G01*
X9045500Y-10397500D02*
G75*
G03*
X9045500Y-10397500I-17500J0D01*
G01*
X9045500Y-10525000D02*
G75*
G03*
X9045500Y-10525000I-17500J0D01*
G01*
X9045500Y-10652500D02*
G75*
G03*
X9045500Y-10652500I-17500J0D01*
G01*
X9173000Y-10397500D02*
G75*
G03*
X9173000Y-10397500I-17500J0D01*
G01*
X9173000Y-10525000D02*
G75*
G03*
X9173000Y-10525000I-17500J0D01*
G01*
X9173000Y-10652500D02*
G75*
G03*
X9173000Y-10652500I-17500J0D01*
G01*
D13*
X13219000Y-7977000D02*
X13219000Y-8017000D01*
X13199000Y-7997000D02*
X13239000Y-7997000D01*
X13219000Y-8052000D02*
X13219000Y-8092000D01*
X13199000Y-8072000D02*
X13239000Y-8072000D01*
X13219000Y-8127000D02*
X13219000Y-8167000D01*
X13199000Y-8147000D02*
X13239000Y-8147000D01*
X13219000Y-8202000D02*
X13219000Y-8242000D01*
X13199000Y-8222000D02*
X13239000Y-8222000D01*
X13219000Y-8277000D02*
X13219000Y-8317000D01*
X13199000Y-8297000D02*
X13239000Y-8297000D01*
X13219000Y-10765000D02*
X13219000Y-10805000D01*
X13199000Y-10785000D02*
X13239000Y-10785000D01*
X13219000Y-10840000D02*
X13219000Y-10880000D01*
X13199000Y-10860000D02*
X13239000Y-10860000D01*
X13219000Y-10915000D02*
X13219000Y-10955000D01*
X13199000Y-10935000D02*
X13239000Y-10935000D01*
X13219000Y-10990000D02*
X13219000Y-11030000D01*
X13199000Y-11010000D02*
X13239000Y-11010000D01*
X13219000Y-11065000D02*
X13219000Y-11105000D01*
X13199000Y-11085000D02*
X13239000Y-11085000D01*
X13244000Y-7132000D02*
X13244000Y-7172000D01*
X13224000Y-7152000D02*
X13264000Y-7152000D01*
X13244000Y-7207000D02*
X13244000Y-7247000D01*
X13224000Y-7227000D02*
X13264000Y-7227000D01*
X13244000Y-7282000D02*
X13244000Y-7322000D01*
X13224000Y-7302000D02*
X13264000Y-7302000D01*
X13244000Y-7357000D02*
X13244000Y-7397000D01*
X13224000Y-7377000D02*
X13264000Y-7377000D01*
X13244000Y-7432000D02*
X13244000Y-7472000D01*
X13224000Y-7452000D02*
X13264000Y-7452000D01*
X13244000Y-9920000D02*
X13244000Y-9960000D01*
X13224000Y-9940000D02*
X13264000Y-9940000D01*
X13244000Y-9995000D02*
X13244000Y-10035000D01*
X13224000Y-10015000D02*
X13264000Y-10015000D01*
X13244000Y-10070000D02*
X13244000Y-10110000D01*
X13224000Y-10090000D02*
X13264000Y-10090000D01*
X13244000Y-10145000D02*
X13244000Y-10185000D01*
X13224000Y-10165000D02*
X13264000Y-10165000D01*
X13244000Y-10220000D02*
X13244000Y-10260000D01*
X13224000Y-10240000D02*
X13264000Y-10240000D01*
X13294000Y-7977000D02*
X13294000Y-8017000D01*
X13274000Y-7997000D02*
X13314000Y-7997000D01*
X13294000Y-8052000D02*
X13294000Y-8092000D01*
X13274000Y-8072000D02*
X13314000Y-8072000D01*
X13294000Y-8127000D02*
X13294000Y-8167000D01*
X13274000Y-8147000D02*
X13314000Y-8147000D01*
X13294000Y-8202000D02*
X13294000Y-8242000D01*
X13274000Y-8222000D02*
X13314000Y-8222000D01*
X13294000Y-8277000D02*
X13294000Y-8317000D01*
X13274000Y-8297000D02*
X13314000Y-8297000D01*
X13294000Y-10765000D02*
X13294000Y-10805000D01*
X13274000Y-10785000D02*
X13314000Y-10785000D01*
X13294000Y-10840000D02*
X13294000Y-10880000D01*
X13274000Y-10860000D02*
X13314000Y-10860000D01*
X13294000Y-10915000D02*
X13294000Y-10955000D01*
X13274000Y-10935000D02*
X13314000Y-10935000D01*
X13294000Y-10990000D02*
X13294000Y-11030000D01*
X13274000Y-11010000D02*
X13314000Y-11010000D01*
X13294000Y-11065000D02*
X13294000Y-11105000D01*
X13274000Y-11085000D02*
X13314000Y-11085000D01*
X13319000Y-7132000D02*
X13319000Y-7172000D01*
X13299000Y-7152000D02*
X13339000Y-7152000D01*
X13319000Y-7207000D02*
X13319000Y-7247000D01*
X13299000Y-7227000D02*
X13339000Y-7227000D01*
X13319000Y-7282000D02*
X13319000Y-7322000D01*
X13299000Y-7302000D02*
X13339000Y-7302000D01*
X13319000Y-7357000D02*
X13319000Y-7397000D01*
X13299000Y-7377000D02*
X13339000Y-7377000D01*
X13319000Y-7432000D02*
X13319000Y-7472000D01*
X13299000Y-7452000D02*
X13339000Y-7452000D01*
X13319000Y-9920000D02*
X13319000Y-9960000D01*
X13299000Y-9940000D02*
X13339000Y-9940000D01*
X13319000Y-9995000D02*
X13319000Y-10035000D01*
X13299000Y-10015000D02*
X13339000Y-10015000D01*
X13319000Y-10070000D02*
X13319000Y-10110000D01*
X13299000Y-10090000D02*
X13339000Y-10090000D01*
X13319000Y-10145000D02*
X13319000Y-10185000D01*
X13299000Y-10165000D02*
X13339000Y-10165000D01*
X13319000Y-10220000D02*
X13319000Y-10260000D01*
X13299000Y-10240000D02*
X13339000Y-10240000D01*
X13369000Y-7977000D02*
X13369000Y-8017000D01*
X13349000Y-7997000D02*
X13389000Y-7997000D01*
X13369000Y-8052000D02*
X13369000Y-8092000D01*
X13349000Y-8072000D02*
X13389000Y-8072000D01*
X13369000Y-8277000D02*
X13369000Y-8317000D01*
X13349000Y-8297000D02*
X13389000Y-8297000D01*
X13369000Y-10765000D02*
X13369000Y-10805000D01*
X13349000Y-10785000D02*
X13389000Y-10785000D01*
X13369000Y-10840000D02*
X13369000Y-10880000D01*
X13349000Y-10860000D02*
X13389000Y-10860000D01*
X13369000Y-11065000D02*
X13369000Y-11105000D01*
X13349000Y-11085000D02*
X13389000Y-11085000D01*
X13370230Y-8127000D02*
X13370230Y-8167000D01*
X13350230Y-8147000D02*
X13390230Y-8147000D01*
X13370230Y-8202000D02*
X13370230Y-8242000D01*
X13350230Y-8222000D02*
X13390230Y-8222000D01*
X13370230Y-10915000D02*
X13370230Y-10955000D01*
X13350230Y-10935000D02*
X13390230Y-10935000D01*
X13370230Y-10990000D02*
X13370230Y-11030000D01*
X13350230Y-11010000D02*
X13390230Y-11010000D01*
X13392230Y-7207000D02*
X13392230Y-7247000D01*
X13372230Y-7227000D02*
X13412230Y-7227000D01*
X13392230Y-7282000D02*
X13392230Y-7322000D01*
X13372230Y-7302000D02*
X13412230Y-7302000D01*
X13392230Y-9995000D02*
X13392230Y-10035000D01*
X13372230Y-10015000D02*
X13412230Y-10015000D01*
X13392230Y-10070000D02*
X13392230Y-10110000D01*
X13372230Y-10090000D02*
X13412230Y-10090000D01*
X13394000Y-7132000D02*
X13394000Y-7172000D01*
X13374000Y-7152000D02*
X13414000Y-7152000D01*
X13394000Y-7357000D02*
X13394000Y-7397000D01*
X13374000Y-7377000D02*
X13414000Y-7377000D01*
X13394000Y-7432000D02*
X13394000Y-7472000D01*
X13374000Y-7452000D02*
X13414000Y-7452000D01*
X13394000Y-9920000D02*
X13394000Y-9960000D01*
X13374000Y-9940000D02*
X13414000Y-9940000D01*
X13394000Y-10145000D02*
X13394000Y-10185000D01*
X13374000Y-10165000D02*
X13414000Y-10165000D01*
X13394000Y-10220000D02*
X13394000Y-10260000D01*
X13374000Y-10240000D02*
X13414000Y-10240000D01*
X13444000Y-7977000D02*
X13444000Y-8017000D01*
X13424000Y-7997000D02*
X13464000Y-7997000D01*
X13444000Y-8052000D02*
X13444000Y-8092000D01*
X13424000Y-8072000D02*
X13464000Y-8072000D01*
X13444000Y-8127000D02*
X13444000Y-8167000D01*
X13424000Y-8147000D02*
X13464000Y-8147000D01*
X13444000Y-8202000D02*
X13444000Y-8242000D01*
X13424000Y-8222000D02*
X13464000Y-8222000D01*
X13444000Y-8277000D02*
X13444000Y-8317000D01*
X13424000Y-8297000D02*
X13464000Y-8297000D01*
X13444000Y-10765000D02*
X13444000Y-10805000D01*
X13424000Y-10785000D02*
X13464000Y-10785000D01*
X13444000Y-10840000D02*
X13444000Y-10880000D01*
X13424000Y-10860000D02*
X13464000Y-10860000D01*
X13444000Y-10915000D02*
X13444000Y-10955000D01*
X13424000Y-10935000D02*
X13464000Y-10935000D01*
X13444000Y-10990000D02*
X13444000Y-11030000D01*
X13424000Y-11010000D02*
X13464000Y-11010000D01*
X13444000Y-11065000D02*
X13444000Y-11105000D01*
X13424000Y-11085000D02*
X13464000Y-11085000D01*
X13469000Y-7132000D02*
X13469000Y-7172000D01*
X13449000Y-7152000D02*
X13489000Y-7152000D01*
X13469000Y-7207000D02*
X13469000Y-7247000D01*
X13449000Y-7227000D02*
X13489000Y-7227000D01*
X13469000Y-7282000D02*
X13469000Y-7322000D01*
X13449000Y-7302000D02*
X13489000Y-7302000D01*
X13469000Y-7357000D02*
X13469000Y-7397000D01*
X13449000Y-7377000D02*
X13489000Y-7377000D01*
X13469000Y-7432000D02*
X13469000Y-7472000D01*
X13449000Y-7452000D02*
X13489000Y-7452000D01*
X13469000Y-9920000D02*
X13469000Y-9960000D01*
X13449000Y-9940000D02*
X13489000Y-9940000D01*
X13469000Y-9995000D02*
X13469000Y-10035000D01*
X13449000Y-10015000D02*
X13489000Y-10015000D01*
X13469000Y-10070000D02*
X13469000Y-10110000D01*
X13449000Y-10090000D02*
X13489000Y-10090000D01*
X13469000Y-10145000D02*
X13469000Y-10185000D01*
X13449000Y-10165000D02*
X13489000Y-10165000D01*
X13469000Y-10220000D02*
X13469000Y-10260000D01*
X13449000Y-10240000D02*
X13489000Y-10240000D01*
X13792090Y-7093140D02*
X13792090Y-7133140D01*
X13772090Y-7113140D02*
X13812090Y-7113140D01*
X13792090Y-7168140D02*
X13792090Y-7208140D01*
X13772090Y-7188140D02*
X13812090Y-7188140D01*
X13792090Y-7243140D02*
X13792090Y-7283140D01*
X13772090Y-7263140D02*
X13812090Y-7263140D01*
X13792090Y-7318140D02*
X13792090Y-7358140D01*
X13772090Y-7338140D02*
X13812090Y-7338140D01*
X13792090Y-7393140D02*
X13792090Y-7433140D01*
X13772090Y-7413140D02*
X13812090Y-7413140D01*
X13792090Y-7468140D02*
X13792090Y-7508140D01*
X13772090Y-7488140D02*
X13812090Y-7488140D01*
X13792090Y-7938140D02*
X13792090Y-7978140D01*
X13772090Y-7958140D02*
X13812090Y-7958140D01*
X13792090Y-8013140D02*
X13792090Y-8053140D01*
X13772090Y-8033140D02*
X13812090Y-8033140D01*
X13792090Y-8088140D02*
X13792090Y-8128140D01*
X13772090Y-8108140D02*
X13812090Y-8108140D01*
X13792090Y-8163140D02*
X13792090Y-8203140D01*
X13772090Y-8183140D02*
X13812090Y-8183140D01*
X13792090Y-8238140D02*
X13792090Y-8278140D01*
X13772090Y-8258140D02*
X13812090Y-8258140D01*
X13792090Y-8313140D02*
X13792090Y-8353140D01*
X13772090Y-8333140D02*
X13812090Y-8333140D01*
X13792090Y-8758140D02*
X13792090Y-8798140D01*
X13772090Y-8778140D02*
X13812090Y-8778140D01*
X13792090Y-8833140D02*
X13792090Y-8873140D01*
X13772090Y-8853140D02*
X13812090Y-8853140D01*
X13792090Y-8908140D02*
X13792090Y-8948140D01*
X13772090Y-8928140D02*
X13812090Y-8928140D01*
X13792090Y-8983140D02*
X13792090Y-9023140D01*
X13772090Y-9003140D02*
X13812090Y-9003140D01*
X13792090Y-9058140D02*
X13792090Y-9098140D01*
X13772090Y-9078140D02*
X13812090Y-9078140D01*
X13792090Y-9133140D02*
X13792090Y-9173140D01*
X13772090Y-9153140D02*
X13812090Y-9153140D01*
X13792090Y-9881140D02*
X13792090Y-9921140D01*
X13772090Y-9901140D02*
X13812090Y-9901140D01*
X13792090Y-9956140D02*
X13792090Y-9996140D01*
X13772090Y-9976140D02*
X13812090Y-9976140D01*
X13792090Y-10031140D02*
X13792090Y-10071140D01*
X13772090Y-10051140D02*
X13812090Y-10051140D01*
X13792090Y-10106140D02*
X13792090Y-10146140D01*
X13772090Y-10126140D02*
X13812090Y-10126140D01*
X13792090Y-10181140D02*
X13792090Y-10221140D01*
X13772090Y-10201140D02*
X13812090Y-10201140D01*
X13792090Y-10256140D02*
X13792090Y-10296140D01*
X13772090Y-10276140D02*
X13812090Y-10276140D01*
X13792090Y-10726140D02*
X13792090Y-10766140D01*
X13772090Y-10746140D02*
X13812090Y-10746140D01*
X13792090Y-10801140D02*
X13792090Y-10841140D01*
X13772090Y-10821140D02*
X13812090Y-10821140D01*
X13792090Y-10876140D02*
X13792090Y-10916140D01*
X13772090Y-10896140D02*
X13812090Y-10896140D01*
X13792090Y-10951140D02*
X13792090Y-10991140D01*
X13772090Y-10971140D02*
X13812090Y-10971140D01*
X13792090Y-11026140D02*
X13792090Y-11066140D01*
X13772090Y-11046140D02*
X13812090Y-11046140D01*
X13792090Y-11101140D02*
X13792090Y-11141140D01*
X13772090Y-11121140D02*
X13812090Y-11121140D01*
X13792090Y-11546140D02*
X13792090Y-11586140D01*
X13772090Y-11566140D02*
X13812090Y-11566140D01*
X13792090Y-11621140D02*
X13792090Y-11661140D01*
X13772090Y-11641140D02*
X13812090Y-11641140D01*
X13792090Y-11696140D02*
X13792090Y-11736140D01*
X13772090Y-11716140D02*
X13812090Y-11716140D01*
X13792090Y-11771140D02*
X13792090Y-11811140D01*
X13772090Y-11791140D02*
X13812090Y-11791140D01*
X13792090Y-11846140D02*
X13792090Y-11886140D01*
X13772090Y-11866140D02*
X13812090Y-11866140D01*
X13792090Y-11921140D02*
X13792090Y-11961140D01*
X13772090Y-11941140D02*
X13812090Y-11941140D01*
X13867090Y-7093140D02*
X13867090Y-7133140D01*
X13847090Y-7113140D02*
X13887090Y-7113140D01*
X13867090Y-7168140D02*
X13867090Y-7208140D01*
X13847090Y-7188140D02*
X13887090Y-7188140D01*
X13867090Y-7243140D02*
X13867090Y-7283140D01*
X13847090Y-7263140D02*
X13887090Y-7263140D01*
X13867090Y-7318140D02*
X13867090Y-7358140D01*
X13847090Y-7338140D02*
X13887090Y-7338140D01*
X13867090Y-7393140D02*
X13867090Y-7433140D01*
X13847090Y-7413140D02*
X13887090Y-7413140D01*
X13867090Y-7468140D02*
X13867090Y-7508140D01*
X13847090Y-7488140D02*
X13887090Y-7488140D01*
X13867090Y-7938140D02*
X13867090Y-7978140D01*
X13847090Y-7958140D02*
X13887090Y-7958140D01*
X13867090Y-8013140D02*
X13867090Y-8053140D01*
X13847090Y-8033140D02*
X13887090Y-8033140D01*
X13867090Y-8088140D02*
X13867090Y-8128140D01*
X13847090Y-8108140D02*
X13887090Y-8108140D01*
X13867090Y-8163140D02*
X13867090Y-8203140D01*
X13847090Y-8183140D02*
X13887090Y-8183140D01*
X13867090Y-8238140D02*
X13867090Y-8278140D01*
X13847090Y-8258140D02*
X13887090Y-8258140D01*
X13867090Y-8313140D02*
X13867090Y-8353140D01*
X13847090Y-8333140D02*
X13887090Y-8333140D01*
X13867090Y-8758140D02*
X13867090Y-8798140D01*
X13847090Y-8778140D02*
X13887090Y-8778140D01*
X13867090Y-8833140D02*
X13867090Y-8873140D01*
X13847090Y-8853140D02*
X13887090Y-8853140D01*
X13867090Y-8908140D02*
X13867090Y-8948140D01*
X13847090Y-8928140D02*
X13887090Y-8928140D01*
X13867090Y-8983140D02*
X13867090Y-9023140D01*
X13847090Y-9003140D02*
X13887090Y-9003140D01*
X13867090Y-9058140D02*
X13867090Y-9098140D01*
X13847090Y-9078140D02*
X13887090Y-9078140D01*
X13867090Y-9133140D02*
X13867090Y-9173140D01*
X13847090Y-9153140D02*
X13887090Y-9153140D01*
X13867090Y-9881140D02*
X13867090Y-9921140D01*
X13847090Y-9901140D02*
X13887090Y-9901140D01*
X13867090Y-9956140D02*
X13867090Y-9996140D01*
X13847090Y-9976140D02*
X13887090Y-9976140D01*
X13867090Y-10031140D02*
X13867090Y-10071140D01*
X13847090Y-10051140D02*
X13887090Y-10051140D01*
X13867090Y-10106140D02*
X13867090Y-10146140D01*
X13847090Y-10126140D02*
X13887090Y-10126140D01*
X13867090Y-10181140D02*
X13867090Y-10221140D01*
X13847090Y-10201140D02*
X13887090Y-10201140D01*
X13867090Y-10256140D02*
X13867090Y-10296140D01*
X13847090Y-10276140D02*
X13887090Y-10276140D01*
X13867090Y-10726140D02*
X13867090Y-10766140D01*
X13847090Y-10746140D02*
X13887090Y-10746140D01*
X13867090Y-10801140D02*
X13867090Y-10841140D01*
X13847090Y-10821140D02*
X13887090Y-10821140D01*
X13867090Y-10876140D02*
X13867090Y-10916140D01*
X13847090Y-10896140D02*
X13887090Y-10896140D01*
X13867090Y-10951140D02*
X13867090Y-10991140D01*
X13847090Y-10971140D02*
X13887090Y-10971140D01*
X13867090Y-11026140D02*
X13867090Y-11066140D01*
X13847090Y-11046140D02*
X13887090Y-11046140D01*
X13867090Y-11101140D02*
X13867090Y-11141140D01*
X13847090Y-11121140D02*
X13887090Y-11121140D01*
X13867090Y-11546140D02*
X13867090Y-11586140D01*
X13847090Y-11566140D02*
X13887090Y-11566140D01*
X13867090Y-11621140D02*
X13867090Y-11661140D01*
X13847090Y-11641140D02*
X13887090Y-11641140D01*
X13867090Y-11696140D02*
X13867090Y-11736140D01*
X13847090Y-11716140D02*
X13887090Y-11716140D01*
X13867090Y-11771140D02*
X13867090Y-11811140D01*
X13847090Y-11791140D02*
X13887090Y-11791140D01*
X13867090Y-11846140D02*
X13867090Y-11886140D01*
X13847090Y-11866140D02*
X13887090Y-11866140D01*
X13867090Y-11921140D02*
X13867090Y-11961140D01*
X13847090Y-11941140D02*
X13887090Y-11941140D01*
D14*
X8176678Y-6997678D02*
X8176678Y-6962322D01*
X8141322Y-6962322D01*
X8141322Y-6997678D01*
X8176678Y-6997678D01*
X8336678Y-8047678D02*
X8336678Y-8012322D01*
X8301322Y-8012322D01*
X8301322Y-8047678D01*
X8336678Y-8047678D01*
X8351678Y-10942678D02*
X8351678Y-10907322D01*
X8316322Y-10907322D01*
X8316322Y-10942678D01*
X8351678Y-10942678D01*
X8351678Y-11117678D02*
X8351678Y-11082322D01*
X8316322Y-11082322D01*
X8316322Y-11117678D01*
X8351678Y-11117678D01*
X8416678Y-7117678D02*
X8416678Y-7082322D01*
X8381322Y-7082322D01*
X8381322Y-7117678D01*
X8416678Y-7117678D01*
X8576678Y-7757678D02*
X8576678Y-7722322D01*
X8541322Y-7722322D01*
X8541322Y-7757678D01*
X8576678Y-7757678D01*
X8716678Y-8037678D02*
X8716678Y-8002322D01*
X8681322Y-8002322D01*
X8681322Y-8037678D01*
X8716678Y-8037678D01*
X8751678Y-11317678D02*
X8751678Y-11282322D01*
X8716322Y-11282322D01*
X8716322Y-11317678D01*
X8751678Y-11317678D01*
X8936678Y-7857678D02*
X8936678Y-7822322D01*
X8901322Y-7822322D01*
X8901322Y-7857678D01*
X8936678Y-7857678D01*
X8936678Y-7957678D02*
X8936678Y-7922322D01*
X8901322Y-7922322D01*
X8901322Y-7957678D01*
X8936678Y-7957678D01*
X9101678Y-11367678D02*
X9101678Y-11332322D01*
X9066322Y-11332322D01*
X9066322Y-11367678D01*
X9101678Y-11367678D01*
X9156678Y-7857678D02*
X9156678Y-7822322D01*
X9121322Y-7822322D01*
X9121322Y-7857678D01*
X9156678Y-7857678D01*
X9156678Y-7957678D02*
X9156678Y-7922322D01*
X9121322Y-7922322D01*
X9121322Y-7957678D01*
X9156678Y-7957678D01*
X9376678Y-7497678D02*
X9376678Y-7462322D01*
X9341322Y-7462322D01*
X9341322Y-7497678D01*
X9376678Y-7497678D01*
X9396678Y-7957678D02*
X9396678Y-7922322D01*
X9361322Y-7922322D01*
X9361322Y-7957678D01*
X9396678Y-7957678D01*
X9456678Y-7537678D02*
X9456678Y-7502322D01*
X9421322Y-7502322D01*
X9421322Y-7537678D01*
X9456678Y-7537678D01*
X9601678Y-11092678D02*
X9601678Y-11057322D01*
X9566322Y-11057322D01*
X9566322Y-11092678D01*
X9601678Y-11092678D01*
X9876678Y-10867678D02*
X9876678Y-10832322D01*
X9841322Y-10832322D01*
X9841322Y-10867678D01*
X9876678Y-10867678D01*
X10076678Y-7417678D02*
X10076678Y-7382322D01*
X10041322Y-7382322D01*
X10041322Y-7417678D01*
X10076678Y-7417678D01*
X10076678Y-7517678D02*
X10076678Y-7482322D01*
X10041322Y-7482322D01*
X10041322Y-7517678D01*
X10076678Y-7517678D01*
X10076678Y-7617678D02*
X10076678Y-7582322D01*
X10041322Y-7582322D01*
X10041322Y-7617678D01*
X10076678Y-7617678D01*
X10076678Y-9917678D02*
X10076678Y-9882322D01*
X10041322Y-9882322D01*
X10041322Y-9917678D01*
X10076678Y-9917678D01*
X10136678Y-12037678D02*
X10136678Y-12002322D01*
X10101322Y-12002322D01*
X10101322Y-12037678D01*
X10136678Y-12037678D01*
X10176678Y-7417678D02*
X10176678Y-7382322D01*
X10141322Y-7382322D01*
X10141322Y-7417678D01*
X10176678Y-7417678D01*
X10176678Y-7517678D02*
X10176678Y-7482322D01*
X10141322Y-7482322D01*
X10141322Y-7517678D01*
X10176678Y-7517678D01*
X10176678Y-7617678D02*
X10176678Y-7582322D01*
X10141322Y-7582322D01*
X10141322Y-7617678D01*
X10176678Y-7617678D01*
X10216678Y-9607678D02*
X10216678Y-9572322D01*
X10181322Y-9572322D01*
X10181322Y-9607678D01*
X10216678Y-9607678D01*
X10276678Y-11442678D02*
X10276678Y-11407322D01*
X10241322Y-11407322D01*
X10241322Y-11442678D01*
X10276678Y-11442678D01*
X10446678Y-7514678D02*
X10446678Y-7479322D01*
X10411322Y-7479322D01*
X10411322Y-7514678D01*
X10446678Y-7514678D01*
X10486678Y-7174678D02*
X10486678Y-7139322D01*
X10451322Y-7139322D01*
X10451322Y-7174678D01*
X10486678Y-7174678D01*
X10586678Y-11567678D02*
X10586678Y-11532322D01*
X10551322Y-11532322D01*
X10551322Y-11567678D01*
X10586678Y-11567678D01*
X10696678Y-9897678D02*
X10696678Y-9862322D01*
X10661322Y-9862322D01*
X10661322Y-9897678D01*
X10696678Y-9897678D01*
X10716678Y-8237678D02*
X10716678Y-8202322D01*
X10681322Y-8202322D01*
X10681322Y-8237678D01*
X10716678Y-8237678D01*
X10716678Y-9064678D02*
X10716678Y-9029322D01*
X10681322Y-9029322D01*
X10681322Y-9064678D01*
X10716678Y-9064678D01*
X10716678Y-10757678D02*
X10716678Y-10722322D01*
X10681322Y-10722322D01*
X10681322Y-10757678D01*
X10716678Y-10757678D01*
X10736678Y-12057678D02*
X10736678Y-12022322D01*
X10701322Y-12022322D01*
X10701322Y-12057678D01*
X10736678Y-12057678D01*
X10796678Y-9417678D02*
X10796678Y-9382322D01*
X10761322Y-9382322D01*
X10761322Y-9417678D01*
X10796678Y-9417678D01*
X10796678Y-11157678D02*
X10796678Y-11122322D01*
X10761322Y-11122322D01*
X10761322Y-11157678D01*
X10796678Y-11157678D01*
X10806678Y-10322678D02*
X10806678Y-10287322D01*
X10771322Y-10287322D01*
X10771322Y-10322678D01*
X10806678Y-10322678D01*
X10816678Y-8637678D02*
X10816678Y-8602322D01*
X10781322Y-8602322D01*
X10781322Y-8637678D01*
X10816678Y-8637678D01*
X10916678Y-9627678D02*
X10916678Y-9592322D01*
X10881322Y-9592322D01*
X10881322Y-9627678D01*
X10916678Y-9627678D01*
X10926678Y-9527678D02*
X10926678Y-9492322D01*
X10891322Y-9492322D01*
X10891322Y-9527678D01*
X10926678Y-9527678D01*
X11046678Y-7554678D02*
X11046678Y-7519322D01*
X11011322Y-7519322D01*
X11011322Y-7554678D01*
X11046678Y-7554678D01*
X11086678Y-9707678D02*
X11086678Y-9672322D01*
X11051322Y-9672322D01*
X11051322Y-9707678D01*
X11086678Y-9707678D01*
X11101678Y-11242678D02*
X11101678Y-11207322D01*
X11066322Y-11207322D01*
X11066322Y-11242678D01*
X11101678Y-11242678D01*
X11146678Y-9344678D02*
X11146678Y-9309322D01*
X11111322Y-9309322D01*
X11111322Y-9344678D01*
X11146678Y-9344678D01*
X11146678Y-10182678D02*
X11146678Y-10147322D01*
X11111322Y-10147322D01*
X11111322Y-10182678D01*
X11146678Y-10182678D01*
X11146678Y-11042678D02*
X11146678Y-11007322D01*
X11111322Y-11007322D01*
X11111322Y-11042678D01*
X11146678Y-11042678D01*
X11251678Y-8514678D02*
X11251678Y-8479322D01*
X11216322Y-8479322D01*
X11216322Y-8514678D01*
X11251678Y-8514678D01*
X11446678Y-7054678D02*
X11446678Y-7019322D01*
X11411322Y-7019322D01*
X11411322Y-7054678D01*
X11446678Y-7054678D01*
X11546678Y-9682678D02*
X11546678Y-9647322D01*
X11511322Y-9647322D01*
X11511322Y-9682678D01*
X11546678Y-9682678D01*
X11546678Y-10522678D02*
X11546678Y-10487322D01*
X11511322Y-10487322D01*
X11511322Y-10522678D01*
X11546678Y-10522678D01*
X11546678Y-11327678D02*
X11546678Y-11292322D01*
X11511322Y-11292322D01*
X11511322Y-11327678D01*
X11546678Y-11327678D01*
X11566678Y-7994678D02*
X11566678Y-7959322D01*
X11531322Y-7959322D01*
X11531322Y-7994678D01*
X11566678Y-7994678D01*
X11566678Y-8824678D02*
X11566678Y-8789322D01*
X11531322Y-8789322D01*
X11531322Y-8824678D01*
X11566678Y-8824678D01*
X11646678Y-11927678D02*
X11646678Y-11892322D01*
X11611322Y-11892322D01*
X11611322Y-11927678D01*
X11646678Y-11927678D01*
X11686678Y-11017678D02*
X11686678Y-10982322D01*
X11651322Y-10982322D01*
X11651322Y-11017678D01*
X11686678Y-11017678D01*
X11706678Y-8489679D02*
X11706678Y-8454323D01*
X11671322Y-8454323D01*
X11671322Y-8489679D01*
X11706678Y-8489679D01*
X11716678Y-9327678D02*
X11716678Y-9292322D01*
X11681322Y-9292322D01*
X11681322Y-9327678D01*
X11716678Y-9327678D01*
X11736678Y-7807578D02*
X11736678Y-7772222D01*
X11701322Y-7772222D01*
X11701322Y-7807578D01*
X11736678Y-7807578D01*
X11736678Y-9987678D02*
X11736678Y-9952322D01*
X11701322Y-9952322D01*
X11701322Y-9987678D01*
X11736678Y-9987678D01*
X11866678Y-8014678D02*
X11866678Y-7979322D01*
X11831322Y-7979322D01*
X11831322Y-8014678D01*
X11866678Y-8014678D01*
X11866678Y-8859678D02*
X11866678Y-8824322D01*
X11831322Y-8824322D01*
X11831322Y-8859678D01*
X11866678Y-8859678D01*
X11866678Y-10802678D02*
X11866678Y-10767322D01*
X11831322Y-10767322D01*
X11831322Y-10802678D01*
X11866678Y-10802678D01*
X11866678Y-11647678D02*
X11866678Y-11612322D01*
X11831322Y-11612322D01*
X11831322Y-11647678D01*
X11866678Y-11647678D01*
X11871678Y-7814678D02*
X11871678Y-7779322D01*
X11836322Y-7779322D01*
X11836322Y-7814678D01*
X11871678Y-7814678D01*
X11871678Y-7914678D02*
X11871678Y-7879322D01*
X11836322Y-7879322D01*
X11836322Y-7914678D01*
X11871678Y-7914678D01*
X11871678Y-8389678D02*
X11871678Y-8354322D01*
X11836322Y-8354322D01*
X11836322Y-8389678D01*
X11871678Y-8389678D01*
X11871678Y-8489678D02*
X11871678Y-8454322D01*
X11836322Y-8454322D01*
X11836322Y-8489678D01*
X11871678Y-8489678D01*
X11871678Y-8759678D02*
X11871678Y-8724322D01*
X11836322Y-8724322D01*
X11836322Y-8759678D01*
X11871678Y-8759678D01*
X11871678Y-9234678D02*
X11871678Y-9199322D01*
X11836322Y-9199322D01*
X11836322Y-9234678D01*
X11871678Y-9234678D01*
X11871678Y-9334678D02*
X11871678Y-9299322D01*
X11836322Y-9299322D01*
X11836322Y-9334678D01*
X11871678Y-9334678D01*
X11871678Y-9757678D02*
X11871678Y-9722322D01*
X11836322Y-9722322D01*
X11836322Y-9757678D01*
X11871678Y-9757678D01*
X11871678Y-9857678D02*
X11871678Y-9822322D01*
X11836322Y-9822322D01*
X11836322Y-9857678D01*
X11871678Y-9857678D01*
X11871678Y-10332678D02*
X11871678Y-10297322D01*
X11836322Y-10297322D01*
X11836322Y-10332678D01*
X11871678Y-10332678D01*
X11871678Y-10432678D02*
X11871678Y-10397322D01*
X11836322Y-10397322D01*
X11836322Y-10432678D01*
X11871678Y-10432678D01*
X11871678Y-10602678D02*
X11871678Y-10567322D01*
X11836322Y-10567322D01*
X11836322Y-10602678D01*
X11871678Y-10602678D01*
X11871678Y-10702678D02*
X11871678Y-10667322D01*
X11836322Y-10667322D01*
X11836322Y-10702678D01*
X11871678Y-10702678D01*
X11871678Y-11177678D02*
X11871678Y-11142322D01*
X11836322Y-11142322D01*
X11836322Y-11177678D01*
X11871678Y-11177678D01*
X11871678Y-11277678D02*
X11871678Y-11242322D01*
X11836322Y-11242322D01*
X11836322Y-11277678D01*
X11871678Y-11277678D01*
X11871678Y-11447678D02*
X11871678Y-11412322D01*
X11836322Y-11412322D01*
X11836322Y-11447678D01*
X11871678Y-11447678D01*
X11871678Y-11547678D02*
X11871678Y-11512322D01*
X11836322Y-11512322D01*
X11836322Y-11547678D01*
X11871678Y-11547678D01*
X11871678Y-11922678D02*
X11871678Y-11887322D01*
X11836322Y-11887322D01*
X11836322Y-11922678D01*
X11871678Y-11922678D01*
X11966678Y-8014678D02*
X11966678Y-7979322D01*
X11931322Y-7979322D01*
X11931322Y-8014678D01*
X11966678Y-8014678D01*
X11966678Y-8859678D02*
X11966678Y-8824322D01*
X11931322Y-8824322D01*
X11931322Y-8859678D01*
X11966678Y-8859678D01*
X11966678Y-10802678D02*
X11966678Y-10767322D01*
X11931322Y-10767322D01*
X11931322Y-10802678D01*
X11966678Y-10802678D01*
X11966678Y-11647678D02*
X11966678Y-11612322D01*
X11931322Y-11612322D01*
X11931322Y-11647678D01*
X11966678Y-11647678D01*
X11971678Y-7814678D02*
X11971678Y-7779322D01*
X11936322Y-7779322D01*
X11936322Y-7814678D01*
X11971678Y-7814678D01*
X11971678Y-7914678D02*
X11971678Y-7879322D01*
X11936322Y-7879322D01*
X11936322Y-7914678D01*
X11971678Y-7914678D01*
X11971678Y-8389678D02*
X11971678Y-8354322D01*
X11936322Y-8354322D01*
X11936322Y-8389678D01*
X11971678Y-8389678D01*
X11971678Y-8489678D02*
X11971678Y-8454322D01*
X11936322Y-8454322D01*
X11936322Y-8489678D01*
X11971678Y-8489678D01*
X11971678Y-8759678D02*
X11971678Y-8724322D01*
X11936322Y-8724322D01*
X11936322Y-8759678D01*
X11971678Y-8759678D01*
X11971678Y-9234678D02*
X11971678Y-9199322D01*
X11936322Y-9199322D01*
X11936322Y-9234678D01*
X11971678Y-9234678D01*
X11971678Y-9334678D02*
X11971678Y-9299322D01*
X11936322Y-9299322D01*
X11936322Y-9334678D01*
X11971678Y-9334678D01*
X11971678Y-9757678D02*
X11971678Y-9722322D01*
X11936322Y-9722322D01*
X11936322Y-9757678D01*
X11971678Y-9757678D01*
X11971678Y-9857678D02*
X11971678Y-9822322D01*
X11936322Y-9822322D01*
X11936322Y-9857678D01*
X11971678Y-9857678D01*
X11971678Y-10332678D02*
X11971678Y-10297322D01*
X11936322Y-10297322D01*
X11936322Y-10332678D01*
X11971678Y-10332678D01*
X11971678Y-10432678D02*
X11971678Y-10397322D01*
X11936322Y-10397322D01*
X11936322Y-10432678D01*
X11971678Y-10432678D01*
X11971678Y-10602678D02*
X11971678Y-10567322D01*
X11936322Y-10567322D01*
X11936322Y-10602678D01*
X11971678Y-10602678D01*
X11971678Y-10702678D02*
X11971678Y-10667322D01*
X11936322Y-10667322D01*
X11936322Y-10702678D01*
X11971678Y-10702678D01*
X11971678Y-11177678D02*
X11971678Y-11142322D01*
X11936322Y-11142322D01*
X11936322Y-11177678D01*
X11971678Y-11177678D01*
X11971678Y-11277678D02*
X11971678Y-11242322D01*
X11936322Y-11242322D01*
X11936322Y-11277678D01*
X11971678Y-11277678D01*
X11971678Y-11447678D02*
X11971678Y-11412322D01*
X11936322Y-11412322D01*
X11936322Y-11447678D01*
X11971678Y-11447678D01*
X11971678Y-11547678D02*
X11971678Y-11512322D01*
X11936322Y-11512322D01*
X11936322Y-11547678D01*
X11971678Y-11547678D01*
X11971678Y-11922678D02*
X11971678Y-11887322D01*
X11936322Y-11887322D01*
X11936322Y-11922678D01*
X11971678Y-11922678D01*
X12066678Y-8014678D02*
X12066678Y-7979322D01*
X12031322Y-7979322D01*
X12031322Y-8014678D01*
X12066678Y-8014678D01*
X12066678Y-8859678D02*
X12066678Y-8824322D01*
X12031322Y-8824322D01*
X12031322Y-8859678D01*
X12066678Y-8859678D01*
X12066678Y-10802678D02*
X12066678Y-10767322D01*
X12031322Y-10767322D01*
X12031322Y-10802678D01*
X12066678Y-10802678D01*
X12066678Y-11647678D02*
X12066678Y-11612322D01*
X12031322Y-11612322D01*
X12031322Y-11647678D01*
X12066678Y-11647678D01*
X12071678Y-7814678D02*
X12071678Y-7779322D01*
X12036322Y-7779322D01*
X12036322Y-7814678D01*
X12071678Y-7814678D01*
X12071678Y-7914678D02*
X12071678Y-7879322D01*
X12036322Y-7879322D01*
X12036322Y-7914678D01*
X12071678Y-7914678D01*
X12071678Y-8389678D02*
X12071678Y-8354322D01*
X12036322Y-8354322D01*
X12036322Y-8389678D01*
X12071678Y-8389678D01*
X12071678Y-8489678D02*
X12071678Y-8454322D01*
X12036322Y-8454322D01*
X12036322Y-8489678D01*
X12071678Y-8489678D01*
X12071678Y-8759678D02*
X12071678Y-8724322D01*
X12036322Y-8724322D01*
X12036322Y-8759678D01*
X12071678Y-8759678D01*
X12071678Y-9234678D02*
X12071678Y-9199322D01*
X12036322Y-9199322D01*
X12036322Y-9234678D01*
X12071678Y-9234678D01*
X12071678Y-9334678D02*
X12071678Y-9299322D01*
X12036322Y-9299322D01*
X12036322Y-9334678D01*
X12071678Y-9334678D01*
X12071678Y-9757678D02*
X12071678Y-9722322D01*
X12036322Y-9722322D01*
X12036322Y-9757678D01*
X12071678Y-9757678D01*
X12071678Y-9857678D02*
X12071678Y-9822322D01*
X12036322Y-9822322D01*
X12036322Y-9857678D01*
X12071678Y-9857678D01*
X12071678Y-10332678D02*
X12071678Y-10297322D01*
X12036322Y-10297322D01*
X12036322Y-10332678D01*
X12071678Y-10332678D01*
X12071678Y-10432678D02*
X12071678Y-10397322D01*
X12036322Y-10397322D01*
X12036322Y-10432678D01*
X12071678Y-10432678D01*
X12071678Y-10602678D02*
X12071678Y-10567322D01*
X12036322Y-10567322D01*
X12036322Y-10602678D01*
X12071678Y-10602678D01*
X12071678Y-10702678D02*
X12071678Y-10667322D01*
X12036322Y-10667322D01*
X12036322Y-10702678D01*
X12071678Y-10702678D01*
X12071678Y-11177678D02*
X12071678Y-11142322D01*
X12036322Y-11142322D01*
X12036322Y-11177678D01*
X12071678Y-11177678D01*
X12071678Y-11277678D02*
X12071678Y-11242322D01*
X12036322Y-11242322D01*
X12036322Y-11277678D01*
X12071678Y-11277678D01*
X12071678Y-11447678D02*
X12071678Y-11412322D01*
X12036322Y-11412322D01*
X12036322Y-11447678D01*
X12071678Y-11447678D01*
X12071678Y-11547678D02*
X12071678Y-11512322D01*
X12036322Y-11512322D01*
X12036322Y-11547678D01*
X12071678Y-11547678D01*
X12071678Y-11922678D02*
X12071678Y-11887322D01*
X12036322Y-11887322D01*
X12036322Y-11922678D01*
X12071678Y-11922678D01*
X12166678Y-8014678D02*
X12166678Y-7979322D01*
X12131322Y-7979322D01*
X12131322Y-8014678D01*
X12166678Y-8014678D01*
X12166678Y-8859678D02*
X12166678Y-8824322D01*
X12131322Y-8824322D01*
X12131322Y-8859678D01*
X12166678Y-8859678D01*
X12166678Y-10802678D02*
X12166678Y-10767322D01*
X12131322Y-10767322D01*
X12131322Y-10802678D01*
X12166678Y-10802678D01*
X12166678Y-11647678D02*
X12166678Y-11612322D01*
X12131322Y-11612322D01*
X12131322Y-11647678D01*
X12166678Y-11647678D01*
X12171678Y-7814678D02*
X12171678Y-7779322D01*
X12136322Y-7779322D01*
X12136322Y-7814678D01*
X12171678Y-7814678D01*
X12171678Y-7914678D02*
X12171678Y-7879322D01*
X12136322Y-7879322D01*
X12136322Y-7914678D01*
X12171678Y-7914678D01*
X12171678Y-8389678D02*
X12171678Y-8354322D01*
X12136322Y-8354322D01*
X12136322Y-8389678D01*
X12171678Y-8389678D01*
X12171678Y-8489678D02*
X12171678Y-8454322D01*
X12136322Y-8454322D01*
X12136322Y-8489678D01*
X12171678Y-8489678D01*
X12171678Y-8759678D02*
X12171678Y-8724322D01*
X12136322Y-8724322D01*
X12136322Y-8759678D01*
X12171678Y-8759678D01*
X12171678Y-9234678D02*
X12171678Y-9199322D01*
X12136322Y-9199322D01*
X12136322Y-9234678D01*
X12171678Y-9234678D01*
X12171678Y-9334678D02*
X12171678Y-9299322D01*
X12136322Y-9299322D01*
X12136322Y-9334678D01*
X12171678Y-9334678D01*
X12171678Y-9757678D02*
X12171678Y-9722322D01*
X12136322Y-9722322D01*
X12136322Y-9757678D01*
X12171678Y-9757678D01*
X12171678Y-9857678D02*
X12171678Y-9822322D01*
X12136322Y-9822322D01*
X12136322Y-9857678D01*
X12171678Y-9857678D01*
X12171678Y-10332678D02*
X12171678Y-10297322D01*
X12136322Y-10297322D01*
X12136322Y-10332678D01*
X12171678Y-10332678D01*
X12171678Y-10432678D02*
X12171678Y-10397322D01*
X12136322Y-10397322D01*
X12136322Y-10432678D01*
X12171678Y-10432678D01*
X12171678Y-10602678D02*
X12171678Y-10567322D01*
X12136322Y-10567322D01*
X12136322Y-10602678D01*
X12171678Y-10602678D01*
X12171678Y-10702678D02*
X12171678Y-10667322D01*
X12136322Y-10667322D01*
X12136322Y-10702678D01*
X12171678Y-10702678D01*
X12171678Y-11177678D02*
X12171678Y-11142322D01*
X12136322Y-11142322D01*
X12136322Y-11177678D01*
X12171678Y-11177678D01*
X12171678Y-11277678D02*
X12171678Y-11242322D01*
X12136322Y-11242322D01*
X12136322Y-11277678D01*
X12171678Y-11277678D01*
X12171678Y-11447678D02*
X12171678Y-11412322D01*
X12136322Y-11412322D01*
X12136322Y-11447678D01*
X12171678Y-11447678D01*
X12171678Y-11547678D02*
X12171678Y-11512322D01*
X12136322Y-11512322D01*
X12136322Y-11547678D01*
X12171678Y-11547678D01*
X12171678Y-11922678D02*
X12171678Y-11887322D01*
X12136322Y-11887322D01*
X12136322Y-11922678D01*
X12171678Y-11922678D01*
X12266678Y-8014678D02*
X12266678Y-7979322D01*
X12231322Y-7979322D01*
X12231322Y-8014678D01*
X12266678Y-8014678D01*
X12266678Y-8859678D02*
X12266678Y-8824322D01*
X12231322Y-8824322D01*
X12231322Y-8859678D01*
X12266678Y-8859678D01*
X12266678Y-10802678D02*
X12266678Y-10767322D01*
X12231322Y-10767322D01*
X12231322Y-10802678D01*
X12266678Y-10802678D01*
X12266678Y-11647678D02*
X12266678Y-11612322D01*
X12231322Y-11612322D01*
X12231322Y-11647678D01*
X12266678Y-11647678D01*
X12271678Y-7814678D02*
X12271678Y-7779322D01*
X12236322Y-7779322D01*
X12236322Y-7814678D01*
X12271678Y-7814678D01*
X12271678Y-7914678D02*
X12271678Y-7879322D01*
X12236322Y-7879322D01*
X12236322Y-7914678D01*
X12271678Y-7914678D01*
X12271678Y-8389678D02*
X12271678Y-8354322D01*
X12236322Y-8354322D01*
X12236322Y-8389678D01*
X12271678Y-8389678D01*
X12271678Y-8489678D02*
X12271678Y-8454322D01*
X12236322Y-8454322D01*
X12236322Y-8489678D01*
X12271678Y-8489678D01*
X12271678Y-8759678D02*
X12271678Y-8724322D01*
X12236322Y-8724322D01*
X12236322Y-8759678D01*
X12271678Y-8759678D01*
X12271678Y-9234678D02*
X12271678Y-9199322D01*
X12236322Y-9199322D01*
X12236322Y-9234678D01*
X12271678Y-9234678D01*
X12271678Y-9334678D02*
X12271678Y-9299322D01*
X12236322Y-9299322D01*
X12236322Y-9334678D01*
X12271678Y-9334678D01*
X12271678Y-9757678D02*
X12271678Y-9722322D01*
X12236322Y-9722322D01*
X12236322Y-9757678D01*
X12271678Y-9757678D01*
X12271678Y-9857678D02*
X12271678Y-9822322D01*
X12236322Y-9822322D01*
X12236322Y-9857678D01*
X12271678Y-9857678D01*
X12271678Y-10332678D02*
X12271678Y-10297322D01*
X12236322Y-10297322D01*
X12236322Y-10332678D01*
X12271678Y-10332678D01*
X12271678Y-10432678D02*
X12271678Y-10397322D01*
X12236322Y-10397322D01*
X12236322Y-10432678D01*
X12271678Y-10432678D01*
X12271678Y-10602678D02*
X12271678Y-10567322D01*
X12236322Y-10567322D01*
X12236322Y-10602678D01*
X12271678Y-10602678D01*
X12271678Y-10702678D02*
X12271678Y-10667322D01*
X12236322Y-10667322D01*
X12236322Y-10702678D01*
X12271678Y-10702678D01*
X12271678Y-11177678D02*
X12271678Y-11142322D01*
X12236322Y-11142322D01*
X12236322Y-11177678D01*
X12271678Y-11177678D01*
X12271678Y-11277678D02*
X12271678Y-11242322D01*
X12236322Y-11242322D01*
X12236322Y-11277678D01*
X12271678Y-11277678D01*
X12271678Y-11447678D02*
X12271678Y-11412322D01*
X12236322Y-11412322D01*
X12236322Y-11447678D01*
X12271678Y-11447678D01*
X12271678Y-11547678D02*
X12271678Y-11512322D01*
X12236322Y-11512322D01*
X12236322Y-11547678D01*
X12271678Y-11547678D01*
X12271678Y-11922678D02*
X12271678Y-11887322D01*
X12236322Y-11887322D01*
X12236322Y-11922678D01*
X12271678Y-11922678D01*
X13541678Y-11492678D02*
X13541678Y-11457322D01*
X13506322Y-11457322D01*
X13506322Y-11492678D01*
X13541678Y-11492678D01*
X13581678Y-9797678D02*
X13581678Y-9762322D01*
X13546322Y-9762322D01*
X13546322Y-9797678D01*
X13581678Y-9797678D01*
X13581678Y-10662678D02*
X13581678Y-10627322D01*
X13546322Y-10627322D01*
X13546322Y-10662678D01*
X13581678Y-10662678D01*
X13616678Y-7877678D02*
X13616678Y-7842322D01*
X13581322Y-7842322D01*
X13581322Y-7877678D01*
X13616678Y-7877678D01*
X13636678Y-7037678D02*
X13636678Y-7002322D01*
X13601322Y-7002322D01*
X13601322Y-7037678D01*
X13636678Y-7037678D01*
X13656678Y-8737678D02*
X13656678Y-8702322D01*
X13621322Y-8702322D01*
X13621322Y-8737678D01*
X13656678Y-8737678D01*
X13786678Y-9454678D02*
X13786678Y-9419322D01*
X13751322Y-9419322D01*
X13751322Y-9454678D01*
X13786678Y-9454678D01*
X13816678Y-7732628D02*
X13816678Y-7697272D01*
X13781322Y-7697272D01*
X13781322Y-7732628D01*
X13816678Y-7732628D01*
X13816678Y-9677678D02*
X13816678Y-9642322D01*
X13781322Y-9642322D01*
X13781322Y-9677678D01*
X13816678Y-9677678D01*
X13816678Y-10597678D02*
X13816678Y-10562322D01*
X13781322Y-10562322D01*
X13781322Y-10597678D01*
X13816678Y-10597678D01*
X13836678Y-8617678D02*
X13836678Y-8582322D01*
X13801322Y-8582322D01*
X13801322Y-8617678D01*
X13836678Y-8617678D01*
X14086678Y-10437678D02*
X14086678Y-10402322D01*
X14051322Y-10402322D01*
X14051322Y-10437678D01*
X14086678Y-10437678D01*
X14096678Y-9517678D02*
X14096678Y-9482322D01*
X14061322Y-9482322D01*
X14061322Y-9517678D01*
X14096678Y-9517678D01*
X14243862Y-9710734D02*
X14243862Y-9675378D01*
X14208507Y-9675378D01*
X14208507Y-9710734D01*
X14243862Y-9710734D01*
X14381678Y-11487678D02*
X14381678Y-11452322D01*
X14346322Y-11452322D01*
X14346322Y-11487678D01*
X14381678Y-11487678D01*
X14421678Y-10642678D02*
X14421678Y-10607322D01*
X14386322Y-10607322D01*
X14386322Y-10642678D01*
X14421678Y-10642678D01*
X14436678Y-9477678D02*
X14436678Y-9442322D01*
X14401322Y-9442322D01*
X14401322Y-9477678D01*
X14436678Y-9477678D01*
X14476678Y-7877678D02*
X14476678Y-7842322D01*
X14441322Y-7842322D01*
X14441322Y-7877678D01*
X14476678Y-7877678D01*
X14496678Y-7057678D02*
X14496678Y-7022322D01*
X14461322Y-7022322D01*
X14461322Y-7057678D01*
X14496678Y-7057678D01*
X14496678Y-8717678D02*
X14496678Y-8682322D01*
X14461322Y-8682322D01*
X14461322Y-8717678D01*
X14496678Y-8717678D01*
X14496678Y-9857678D02*
X14496678Y-9822322D01*
X14461322Y-9822322D01*
X14461322Y-9857678D01*
X14496678Y-9857678D01*
X14921678Y-9832678D02*
X14921678Y-9797322D01*
X14886322Y-9797322D01*
X14886322Y-9832678D01*
X14921678Y-9832678D01*
X15006678Y-9437678D02*
X15006678Y-9402322D01*
X14971322Y-9402322D01*
X14971322Y-9437678D01*
X15006678Y-9437678D01*
X15017216Y-9738216D02*
X15017216Y-9702860D01*
X14981860Y-9702860D01*
X14981860Y-9738216D01*
X15017216Y-9738216D01*
X15046678Y-8529678D02*
X15046678Y-8494322D01*
X15011322Y-8494322D01*
X15011322Y-8529678D01*
X15046678Y-8529678D01*
X15046678Y-8629678D02*
X15046678Y-8594322D01*
X15011322Y-8594322D01*
X15011322Y-8629678D01*
X15046678Y-8629678D01*
X15046678Y-10482678D02*
X15046678Y-10447322D01*
X15011322Y-10447322D01*
X15011322Y-10482678D01*
X15046678Y-10482678D01*
X15046678Y-10582678D02*
X15046678Y-10547322D01*
X15011322Y-10547322D01*
X15011322Y-10582678D01*
X15046678Y-10582678D01*
X15046678Y-11417678D02*
X15046678Y-11382322D01*
X15011322Y-11382322D01*
X15011322Y-11417678D01*
X15046678Y-11417678D01*
X15051678Y-11317678D02*
X15051678Y-11282322D01*
X15016322Y-11282322D01*
X15016322Y-11317678D01*
X15051678Y-11317678D01*
X15056678Y-9917678D02*
X15056678Y-9882322D01*
X15021322Y-9882322D01*
X15021322Y-9917678D01*
X15056678Y-9917678D01*
X15071678Y-7594678D02*
X15071678Y-7559322D01*
X15036322Y-7559322D01*
X15036322Y-7594678D01*
X15071678Y-7594678D01*
X15071678Y-7694678D02*
X15071678Y-7659322D01*
X15036322Y-7659322D01*
X15036322Y-7694678D01*
X15071678Y-7694678D01*
X15146678Y-8529678D02*
X15146678Y-8494322D01*
X15111322Y-8494322D01*
X15111322Y-8529678D01*
X15146678Y-8529678D01*
X15146678Y-8629678D02*
X15146678Y-8594322D01*
X15111322Y-8594322D01*
X15111322Y-8629678D01*
X15146678Y-8629678D01*
X15146678Y-9507678D02*
X15146678Y-9472322D01*
X15111322Y-9472322D01*
X15111322Y-9507678D01*
X15146678Y-9507678D01*
X15146678Y-10482678D02*
X15146678Y-10447322D01*
X15111322Y-10447322D01*
X15111322Y-10482678D01*
X15146678Y-10482678D01*
X15146678Y-10582678D02*
X15146678Y-10547322D01*
X15111322Y-10547322D01*
X15111322Y-10582678D01*
X15146678Y-10582678D01*
X15146678Y-11417678D02*
X15146678Y-11382322D01*
X15111322Y-11382322D01*
X15111322Y-11417678D01*
X15146678Y-11417678D01*
X15151678Y-11317678D02*
X15151678Y-11282322D01*
X15116322Y-11282322D01*
X15116322Y-11317678D01*
X15151678Y-11317678D01*
X15171678Y-7594678D02*
X15171678Y-7559322D01*
X15136322Y-7559322D01*
X15136322Y-7594678D01*
X15171678Y-7594678D01*
X15171678Y-7694678D02*
X15171678Y-7659322D01*
X15136322Y-7659322D01*
X15136322Y-7694678D01*
X15171678Y-7694678D01*
X15186678Y-9677678D02*
X15186678Y-9642322D01*
X15151322Y-9642322D01*
X15151322Y-9677678D01*
X15186678Y-9677678D01*
X15191678Y-9357678D02*
X15191678Y-9322322D01*
X15156322Y-9322322D01*
X15156322Y-9357678D01*
X15191678Y-9357678D01*
X15246678Y-8529678D02*
X15246678Y-8494322D01*
X15211322Y-8494322D01*
X15211322Y-8529678D01*
X15246678Y-8529678D01*
X15246678Y-8629678D02*
X15246678Y-8594322D01*
X15211322Y-8594322D01*
X15211322Y-8629678D01*
X15246678Y-8629678D01*
X15246678Y-10482678D02*
X15246678Y-10447322D01*
X15211322Y-10447322D01*
X15211322Y-10482678D01*
X15246678Y-10482678D01*
X15246678Y-10582678D02*
X15246678Y-10547322D01*
X15211322Y-10547322D01*
X15211322Y-10582678D01*
X15246678Y-10582678D01*
X15246678Y-11417678D02*
X15246678Y-11382322D01*
X15211322Y-11382322D01*
X15211322Y-11417678D01*
X15246678Y-11417678D01*
X15251678Y-11317678D02*
X15251678Y-11282322D01*
X15216322Y-11282322D01*
X15216322Y-11317678D01*
X15251678Y-11317678D01*
X15271678Y-7594678D02*
X15271678Y-7559322D01*
X15236322Y-7559322D01*
X15236322Y-7594678D01*
X15271678Y-7594678D01*
X15271678Y-7694678D02*
X15271678Y-7659322D01*
X15236322Y-7659322D01*
X15236322Y-7694678D01*
X15271678Y-7694678D01*
X15346678Y-8529678D02*
X15346678Y-8494322D01*
X15311322Y-8494322D01*
X15311322Y-8529678D01*
X15346678Y-8529678D01*
X15346678Y-8629678D02*
X15346678Y-8594322D01*
X15311322Y-8594322D01*
X15311322Y-8629678D01*
X15346678Y-8629678D01*
X15346678Y-10482678D02*
X15346678Y-10447322D01*
X15311322Y-10447322D01*
X15311322Y-10482678D01*
X15346678Y-10482678D01*
X15346678Y-10582678D02*
X15346678Y-10547322D01*
X15311322Y-10547322D01*
X15311322Y-10582678D01*
X15346678Y-10582678D01*
X15346678Y-11417678D02*
X15346678Y-11382322D01*
X15311322Y-11382322D01*
X15311322Y-11417678D01*
X15346678Y-11417678D01*
X15371678Y-7594678D02*
X15371678Y-7559322D01*
X15336322Y-7559322D01*
X15336322Y-7594678D01*
X15371678Y-7594678D01*
X15371678Y-7694678D02*
X15371678Y-7659322D01*
X15336322Y-7659322D01*
X15336322Y-7694678D01*
X15371678Y-7694678D01*
X15426678Y-9877678D02*
X15426678Y-9842322D01*
X15391322Y-9842322D01*
X15391322Y-9877678D01*
X15426678Y-9877678D01*
X15446678Y-8529678D02*
X15446678Y-8494322D01*
X15411322Y-8494322D01*
X15411322Y-8529678D01*
X15446678Y-8529678D01*
X15446678Y-8629678D02*
X15446678Y-8594322D01*
X15411322Y-8594322D01*
X15411322Y-8629678D01*
X15446678Y-8629678D01*
X15446678Y-10482678D02*
X15446678Y-10447322D01*
X15411322Y-10447322D01*
X15411322Y-10482678D01*
X15446678Y-10482678D01*
X15446678Y-10582678D02*
X15446678Y-10547322D01*
X15411322Y-10547322D01*
X15411322Y-10582678D01*
X15446678Y-10582678D01*
X15446678Y-11417678D02*
X15446678Y-11382322D01*
X15411322Y-11382322D01*
X15411322Y-11417678D01*
X15446678Y-11417678D01*
X15471678Y-7594678D02*
X15471678Y-7559322D01*
X15436322Y-7559322D01*
X15436322Y-7594678D01*
X15471678Y-7594678D01*
X15471678Y-7694678D02*
X15471678Y-7659322D01*
X15436322Y-7659322D01*
X15436322Y-7694678D01*
X15471678Y-7694678D01*
X15546678Y-8529678D02*
X15546678Y-8494322D01*
X15511322Y-8494322D01*
X15511322Y-8529678D01*
X15546678Y-8529678D01*
X15546678Y-8629678D02*
X15546678Y-8594322D01*
X15511322Y-8594322D01*
X15511322Y-8629678D01*
X15546678Y-8629678D01*
X15546678Y-10482678D02*
X15546678Y-10447322D01*
X15511322Y-10447322D01*
X15511322Y-10482678D01*
X15546678Y-10482678D01*
X15546678Y-10582678D02*
X15546678Y-10547322D01*
X15511322Y-10547322D01*
X15511322Y-10582678D01*
X15546678Y-10582678D01*
X15546678Y-11417678D02*
X15546678Y-11382322D01*
X15511322Y-11382322D01*
X15511322Y-11417678D01*
X15546678Y-11417678D01*
X15571678Y-7594678D02*
X15571678Y-7559322D01*
X15536322Y-7559322D01*
X15536322Y-7594678D01*
X15571678Y-7594678D01*
X15571678Y-7694678D02*
X15571678Y-7659322D01*
X15536322Y-7659322D01*
X15536322Y-7694678D01*
X15571678Y-7694678D01*
X15646678Y-8429678D02*
X15646678Y-8394322D01*
X15611322Y-8394322D01*
X15611322Y-8429678D01*
X15646678Y-8429678D01*
X15646678Y-8529678D02*
X15646678Y-8494322D01*
X15611322Y-8494322D01*
X15611322Y-8529678D01*
X15646678Y-8529678D01*
X15646678Y-8629678D02*
X15646678Y-8594322D01*
X15611322Y-8594322D01*
X15611322Y-8629678D01*
X15646678Y-8629678D01*
X15646678Y-10482678D02*
X15646678Y-10447322D01*
X15611322Y-10447322D01*
X15611322Y-10482678D01*
X15646678Y-10482678D01*
X15646678Y-10582678D02*
X15646678Y-10547322D01*
X15611322Y-10547322D01*
X15611322Y-10582678D01*
X15646678Y-10582678D01*
X15646678Y-11317678D02*
X15646678Y-11282322D01*
X15611322Y-11282322D01*
X15611322Y-11317678D01*
X15646678Y-11317678D01*
X15646678Y-11417678D02*
X15646678Y-11382322D01*
X15611322Y-11382322D01*
X15611322Y-11417678D01*
X15646678Y-11417678D01*
X15671678Y-7594678D02*
X15671678Y-7559322D01*
X15636322Y-7559322D01*
X15636322Y-7594678D01*
X15671678Y-7594678D01*
X15671678Y-7694678D02*
X15671678Y-7659322D01*
X15636322Y-7659322D01*
X15636322Y-7694678D01*
X15671678Y-7694678D01*
X15746678Y-8429678D02*
X15746678Y-8394322D01*
X15711322Y-8394322D01*
X15711322Y-8429678D01*
X15746678Y-8429678D01*
X15746678Y-8529678D02*
X15746678Y-8494322D01*
X15711322Y-8494322D01*
X15711322Y-8529678D01*
X15746678Y-8529678D01*
X15746678Y-10482678D02*
X15746678Y-10447322D01*
X15711322Y-10447322D01*
X15711322Y-10482678D01*
X15746678Y-10482678D01*
X15746678Y-10582678D02*
X15746678Y-10547322D01*
X15711322Y-10547322D01*
X15711322Y-10582678D01*
X15746678Y-10582678D01*
X15746678Y-11317678D02*
X15746678Y-11282322D01*
X15711322Y-11282322D01*
X15711322Y-11317678D01*
X15746678Y-11317678D01*
X15746678Y-11417678D02*
X15746678Y-11382322D01*
X15711322Y-11382322D01*
X15711322Y-11417678D01*
X15746678Y-11417678D01*
X15771678Y-7594678D02*
X15771678Y-7559322D01*
X15736322Y-7559322D01*
X15736322Y-7594678D01*
X15771678Y-7594678D01*
X15771678Y-7694678D02*
X15771678Y-7659322D01*
X15736322Y-7659322D01*
X15736322Y-7694678D01*
X15771678Y-7694678D01*
X15846678Y-8429678D02*
X15846678Y-8394322D01*
X15811322Y-8394322D01*
X15811322Y-8429678D01*
X15846678Y-8429678D01*
X15846678Y-8529678D02*
X15846678Y-8494322D01*
X15811322Y-8494322D01*
X15811322Y-8529678D01*
X15846678Y-8529678D01*
X15846678Y-10482678D02*
X15846678Y-10447322D01*
X15811322Y-10447322D01*
X15811322Y-10482678D01*
X15846678Y-10482678D01*
X15846678Y-10582678D02*
X15846678Y-10547322D01*
X15811322Y-10547322D01*
X15811322Y-10582678D01*
X15846678Y-10582678D01*
X15846678Y-11317678D02*
X15846678Y-11282322D01*
X15811322Y-11282322D01*
X15811322Y-11317678D01*
X15846678Y-11317678D01*
X15846678Y-11417678D02*
X15846678Y-11382322D01*
X15811322Y-11382322D01*
X15811322Y-11417678D01*
X15846678Y-11417678D01*
X15856678Y-9437678D02*
X15856678Y-9402322D01*
X15821322Y-9402322D01*
X15821322Y-9437678D01*
X15856678Y-9437678D01*
X15871678Y-7594678D02*
X15871678Y-7559322D01*
X15836322Y-7559322D01*
X15836322Y-7594678D01*
X15871678Y-7594678D01*
X15871678Y-7694678D02*
X15871678Y-7659322D01*
X15836322Y-7659322D01*
X15836322Y-7694678D01*
X15871678Y-7694678D01*
D15*
X8597000Y-11644500D02*
X8627000Y-11614500D01*
X8597000Y-11584500D01*
X8567000Y-11614500D01*
X8597000Y-11644500D01*
D11*
X8577000Y-11559500D02*
X8577000Y-11669500D01*
X8617000Y-11559500D02*
X8617000Y-11669500D01*
X8577000Y-11669500D02*
G75*
G03*
X8617000Y-11669500I20000J0D01*
G01*
X8617000Y-11559500D02*
G75*
G03*
X8577000Y-11559500I-20000J0D01*
G01*
D15*
X8597000Y-12062500D02*
X8627000Y-12032500D01*
X8597000Y-12002500D01*
X8567000Y-12032500D01*
X8597000Y-12062500D01*
D11*
X8577000Y-12002500D02*
X8577000Y-12062500D01*
X8617000Y-12002500D02*
X8617000Y-12062500D01*
X8577000Y-12062500D02*
G75*
G03*
X8617000Y-12062500I20000J0D01*
G01*
X8617000Y-12002500D02*
G75*
G03*
X8577000Y-12002500I-20000J0D01*
G01*
D15*
X9461000Y-11644500D02*
X9491000Y-11614500D01*
X9461000Y-11584500D01*
X9431000Y-11614500D01*
X9461000Y-11644500D01*
D11*
X9441000Y-11559500D02*
X9441000Y-11669500D01*
X9481000Y-11559500D02*
X9481000Y-11669500D01*
X9441000Y-11669500D02*
G75*
G03*
X9481000Y-11669500I20000J0D01*
G01*
X9481000Y-11559500D02*
G75*
G03*
X9441000Y-11559500I-20000J0D01*
G01*
D15*
X9461000Y-12062500D02*
X9491000Y-12032500D01*
X9461000Y-12002500D01*
X9431000Y-12032500D01*
X9461000Y-12062500D01*
D11*
X9441000Y-12002500D02*
X9441000Y-12062500D01*
X9481000Y-12002500D02*
X9481000Y-12062500D01*
X9441000Y-12062500D02*
G75*
G03*
X9481000Y-12062500I20000J0D01*
G01*
X9481000Y-12002500D02*
G75*
G03*
X9441000Y-12002500I-20000J0D01*
G01*
D16*
X9484000Y-8345000D02*
X9594000Y-8455000D01*
X9594000Y-8345000D02*
X9484000Y-8455000D01*
X9594000Y-8400000D02*
G75*
G03*
X9594000Y-8400000I-55000J0D01*
G01*
X9484000Y-8795000D02*
X9594000Y-8905000D01*
X9594000Y-8795000D02*
X9484000Y-8905000D01*
X9594000Y-8850000D02*
G75*
G03*
X9594000Y-8850000I-55000J0D01*
G01*
X10134000Y-8345000D02*
X10244000Y-8455000D01*
X10244000Y-8345000D02*
X10134000Y-8455000D01*
X10244000Y-8400000D02*
G75*
G03*
X10244000Y-8400000I-55000J0D01*
G01*
X10134000Y-8795000D02*
X10244000Y-8905000D01*
X10244000Y-8795000D02*
X10134000Y-8905000D01*
X10244000Y-8850000D02*
G75*
G03*
X10244000Y-8850000I-55000J0D01*
G01*
D17*
X7715500Y-6973500D02*
X7834500Y-7092500D01*
X7834500Y-6973500D02*
X7715500Y-7092500D01*
X7775000Y-6973500D02*
X7775000Y-7092500D01*
X7715500Y-7033000D02*
X7834500Y-7033000D01*
X7715500Y-7227500D02*
X7834500Y-7346500D01*
X7834500Y-7227500D02*
X7715500Y-7346500D01*
X7775000Y-7227500D02*
X7775000Y-7346500D01*
X7715500Y-7287000D02*
X7834500Y-7287000D01*
X7715500Y-7481500D02*
X7834500Y-7600500D01*
X7834500Y-7481500D02*
X7715500Y-7600500D01*
X7775000Y-7481500D02*
X7775000Y-7600500D01*
X7715500Y-7541000D02*
X7834500Y-7541000D01*
X7715500Y-7735500D02*
X7834500Y-7854500D01*
X7834500Y-7735500D02*
X7715500Y-7854500D01*
X7775000Y-7735500D02*
X7775000Y-7854500D01*
X7715500Y-7795000D02*
X7834500Y-7795000D01*
X7715500Y-8108500D02*
X7834500Y-8227500D01*
X7834500Y-8108500D02*
X7715500Y-8227500D01*
X7775000Y-8108500D02*
X7775000Y-8227500D01*
X7715500Y-8168000D02*
X7834500Y-8168000D01*
X7715500Y-8362500D02*
X7834500Y-8481500D01*
X7834500Y-8362500D02*
X7715500Y-8481500D01*
X7775000Y-8362500D02*
X7775000Y-8481500D01*
X7715500Y-8422000D02*
X7834500Y-8422000D01*
X7715500Y-8616500D02*
X7834500Y-8735500D01*
X7834500Y-8616500D02*
X7715500Y-8735500D01*
X7775000Y-8616500D02*
X7775000Y-8735500D01*
X7715500Y-8676000D02*
X7834500Y-8676000D01*
X7715500Y-8870500D02*
X7834500Y-8989500D01*
X7834500Y-8870500D02*
X7715500Y-8989500D01*
X7775000Y-8870500D02*
X7775000Y-8989500D01*
X7715500Y-8930000D02*
X7834500Y-8930000D01*
X7715500Y-9240500D02*
X7834500Y-9359500D01*
X7834500Y-9240500D02*
X7715500Y-9359500D01*
X7775000Y-9240500D02*
X7775000Y-9359500D01*
X7715500Y-9300000D02*
X7834500Y-9300000D01*
X7715500Y-9494500D02*
X7834500Y-9613500D01*
X7834500Y-9494500D02*
X7715500Y-9613500D01*
X7775000Y-9494500D02*
X7775000Y-9613500D01*
X7715500Y-9554000D02*
X7834500Y-9554000D01*
X7715500Y-9748500D02*
X7834500Y-9867500D01*
X7834500Y-9748500D02*
X7715500Y-9867500D01*
X7775000Y-9748500D02*
X7775000Y-9867500D01*
X7715500Y-9808000D02*
X7834500Y-9808000D01*
X7715500Y-10002500D02*
X7834500Y-10121500D01*
X7834500Y-10002500D02*
X7715500Y-10121500D01*
X7775000Y-10002500D02*
X7775000Y-10121500D01*
X7715500Y-10062000D02*
X7834500Y-10062000D01*
X7715500Y-10256500D02*
X7834500Y-10375500D01*
X7834500Y-10256500D02*
X7715500Y-10375500D01*
X7775000Y-10256500D02*
X7775000Y-10375500D01*
X7715500Y-10316000D02*
X7834500Y-10316000D01*
X7715500Y-10510500D02*
X7834500Y-10629500D01*
X7834500Y-10510500D02*
X7715500Y-10629500D01*
X7775000Y-10510500D02*
X7775000Y-10629500D01*
X7715500Y-10570000D02*
X7834500Y-10570000D01*
X7715500Y-10889500D02*
X7834500Y-11008500D01*
X7834500Y-10889500D02*
X7715500Y-11008500D01*
X7775000Y-10889500D02*
X7775000Y-11008500D01*
X7715500Y-10949000D02*
X7834500Y-10949000D01*
X7715500Y-11143500D02*
X7834500Y-11262500D01*
X7834500Y-11143500D02*
X7715500Y-11262500D01*
X7775000Y-11143500D02*
X7775000Y-11262500D01*
X7715500Y-11203000D02*
X7834500Y-11203000D01*
X7715500Y-11397500D02*
X7834500Y-11516500D01*
X7834500Y-11397500D02*
X7715500Y-11516500D01*
X7775000Y-11397500D02*
X7775000Y-11516500D01*
X7715500Y-11457000D02*
X7834500Y-11457000D01*
X7715500Y-11651500D02*
X7834500Y-11770500D01*
X7834500Y-11651500D02*
X7715500Y-11770500D01*
X7775000Y-11651500D02*
X7775000Y-11770500D01*
X7715500Y-11711000D02*
X7834500Y-11711000D01*
X7715500Y-11905500D02*
X7834500Y-12024500D01*
X7834500Y-11905500D02*
X7715500Y-12024500D01*
X7775000Y-11905500D02*
X7775000Y-12024500D01*
X7715500Y-11965000D02*
X7834500Y-11965000D01*
X8279500Y-8600500D02*
X8398500Y-8719500D01*
X8398500Y-8600500D02*
X8279500Y-8719500D01*
X8339000Y-8600500D02*
X8339000Y-8719500D01*
X8279500Y-8660000D02*
X8398500Y-8660000D01*
X8533500Y-8600500D02*
X8652500Y-8719500D01*
X8652500Y-8600500D02*
X8533500Y-8719500D01*
X8593000Y-8600500D02*
X8593000Y-8719500D01*
X8533500Y-8660000D02*
X8652500Y-8660000D01*
X8787500Y-8600500D02*
X8906500Y-8719500D01*
X8906500Y-8600500D02*
X8787500Y-8719500D01*
X8847000Y-8600500D02*
X8847000Y-8719500D01*
X8787500Y-8660000D02*
X8906500Y-8660000D01*
D18*
X15546900Y-7098000D02*
X15776900Y-7328000D01*
X15776900Y-7098000D02*
X15546900Y-7328000D01*
X15743218Y-7294318D02*
X15743218Y-7131682D01*
X15580582Y-7131682D01*
X15580582Y-7294318D01*
X15743218Y-7294318D01*
X15546900Y-7932000D02*
X15776900Y-8162000D01*
X15776900Y-7932000D02*
X15546900Y-8162000D01*
X15743218Y-8128318D02*
X15743218Y-7965682D01*
X15580582Y-7965682D01*
X15580582Y-8128318D01*
X15743218Y-8128318D01*
X15546900Y-8877000D02*
X15776900Y-9107000D01*
X15776900Y-8877000D02*
X15546900Y-9107000D01*
X15743218Y-9073318D02*
X15743218Y-8910682D01*
X15580582Y-8910682D01*
X15580582Y-9073318D01*
X15743218Y-9073318D01*
X15546900Y-9936000D02*
X15776900Y-10166000D01*
X15776900Y-9936000D02*
X15546900Y-10166000D01*
X15743218Y-10132318D02*
X15743218Y-9969682D01*
X15580582Y-9969682D01*
X15580582Y-10132318D01*
X15743218Y-10132318D01*
X15546900Y-10820000D02*
X15776900Y-11050000D01*
X15776900Y-10820000D02*
X15546900Y-11050000D01*
X15743218Y-11016318D02*
X15743218Y-10853682D01*
X15580582Y-10853682D01*
X15580582Y-11016318D01*
X15743218Y-11016318D01*
X15546900Y-11665000D02*
X15776900Y-11895000D01*
X15776900Y-11665000D02*
X15546900Y-11895000D01*
X15743218Y-11861318D02*
X15743218Y-11698682D01*
X15580582Y-11698682D01*
X15580582Y-11861318D01*
X15743218Y-11861318D01*
D19*
X11799000Y-7125000D02*
X12149000Y-7475000D01*
X12149000Y-7125000D02*
X11799000Y-7475000D01*
X11974000Y-7475000D02*
X12149000Y-7300000D01*
X11974000Y-7125000D01*
X11799000Y-7300000D01*
X11974000Y-7475000D01*
X12524000Y-7125000D02*
X12874000Y-7475000D01*
X12874000Y-7125000D02*
X12524000Y-7475000D01*
X12699000Y-7475000D02*
X12874000Y-7300000D01*
X12699000Y-7125000D01*
X12524000Y-7300000D01*
X12699000Y-7475000D01*
D11*
X7689119Y-12512976D02*
X7689119Y-12312976D01*
X7736738Y-12312976D01*
X7765309Y-12322500D01*
X7784357Y-12341548D01*
X7793881Y-12360595D01*
X7803405Y-12398690D01*
X7803405Y-12427262D01*
X7793881Y-12465357D01*
X7784357Y-12484405D01*
X7765309Y-12503452D01*
X7736738Y-12512976D01*
X7689119Y-12512976D01*
X7889119Y-12512976D02*
X7889119Y-12379643D01*
X7889119Y-12417738D02*
X7898643Y-12398690D01*
X7908167Y-12389167D01*
X7927214Y-12379643D01*
X7946262Y-12379643D01*
X8012928Y-12512976D02*
X8012928Y-12379643D01*
X8012928Y-12312976D02*
X8003405Y-12322500D01*
X8012928Y-12332024D01*
X8022452Y-12322500D01*
X8012928Y-12312976D01*
X8012928Y-12332024D01*
X8136738Y-12512976D02*
X8117690Y-12503452D01*
X8108167Y-12484405D01*
X8108167Y-12312976D01*
X8241500Y-12512976D02*
X8222452Y-12503452D01*
X8212928Y-12484405D01*
X8212928Y-12312976D01*
X8470071Y-12512976D02*
X8470071Y-12312976D01*
X8536738Y-12455833D01*
X8603405Y-12312976D01*
X8603405Y-12512976D01*
X8784357Y-12512976D02*
X8784357Y-12408214D01*
X8774833Y-12389167D01*
X8755786Y-12379643D01*
X8717690Y-12379643D01*
X8698643Y-12389167D01*
X8784357Y-12503452D02*
X8765310Y-12512976D01*
X8717690Y-12512976D01*
X8698643Y-12503452D01*
X8689119Y-12484405D01*
X8689119Y-12465357D01*
X8698643Y-12446309D01*
X8717690Y-12436786D01*
X8765310Y-12436786D01*
X8784357Y-12427262D01*
X8879595Y-12379643D02*
X8879595Y-12579643D01*
X8879595Y-12389167D02*
X8898643Y-12379643D01*
X8936738Y-12379643D01*
X8955786Y-12389167D01*
X8965310Y-12398690D01*
X8974833Y-12417738D01*
X8974833Y-12474881D01*
X8965310Y-12493928D01*
X8955786Y-12503452D01*
X8936738Y-12512976D01*
X8898643Y-12512976D01*
X8879595Y-12503452D01*
X9060548Y-12493928D02*
X9070071Y-12503452D01*
X9060548Y-12512976D01*
X9051024Y-12503452D01*
X9060548Y-12493928D01*
X9060548Y-12512976D01*
X9060548Y-12389167D02*
X9070071Y-12398690D01*
X9060548Y-12408214D01*
X9051024Y-12398690D01*
X9060548Y-12389167D01*
X9060548Y-12408214D01*
D12*
X7396500Y-12825000D02*
X7431500Y-12860000D01*
X7431500Y-12825000D02*
X7396500Y-12860000D01*
D11*
X7727214Y-12732976D02*
X7746262Y-12732976D01*
X7765309Y-12742500D01*
X7774833Y-12752024D01*
X7784357Y-12771071D01*
X7793881Y-12809167D01*
X7793881Y-12856786D01*
X7784357Y-12894881D01*
X7774833Y-12913928D01*
X7765309Y-12923452D01*
X7746262Y-12932976D01*
X7727214Y-12932976D01*
X7708167Y-12923452D01*
X7698643Y-12913928D01*
X7689119Y-12894881D01*
X7679595Y-12856786D01*
X7679595Y-12809167D01*
X7689119Y-12771071D01*
X7698643Y-12752024D01*
X7708167Y-12742500D01*
X7727214Y-12732976D01*
X7879595Y-12913928D02*
X7889119Y-12923452D01*
X7879595Y-12932976D01*
X7870071Y-12923452D01*
X7879595Y-12913928D01*
X7879595Y-12932976D01*
X7955786Y-12732976D02*
X8079595Y-12732976D01*
X8012928Y-12809167D01*
X8041500Y-12809167D01*
X8060548Y-12818690D01*
X8070071Y-12828214D01*
X8079595Y-12847262D01*
X8079595Y-12894881D01*
X8070071Y-12913928D01*
X8060548Y-12923452D01*
X8041500Y-12932976D01*
X7984357Y-12932976D01*
X7965309Y-12923452D01*
X7955786Y-12913928D01*
X8260548Y-12732976D02*
X8165309Y-12732976D01*
X8155786Y-12828214D01*
X8165309Y-12818690D01*
X8184357Y-12809167D01*
X8231976Y-12809167D01*
X8251024Y-12818690D01*
X8260548Y-12828214D01*
X8270071Y-12847262D01*
X8270071Y-12894881D01*
X8260548Y-12913928D01*
X8251024Y-12923452D01*
X8231976Y-12932976D01*
X8184357Y-12932976D01*
X8165309Y-12923452D01*
X8155786Y-12913928D01*
X8393881Y-12732976D02*
X8412929Y-12732976D01*
X8431976Y-12742500D01*
X8441500Y-12752024D01*
X8451024Y-12771071D01*
X8460548Y-12809167D01*
X8460548Y-12856786D01*
X8451024Y-12894881D01*
X8441500Y-12913928D01*
X8431976Y-12923452D01*
X8412929Y-12932976D01*
X8393881Y-12932976D01*
X8374833Y-12923452D01*
X8365309Y-12913928D01*
X8355786Y-12894881D01*
X8346262Y-12856786D01*
X8346262Y-12809167D01*
X8355786Y-12771071D01*
X8365309Y-12752024D01*
X8374833Y-12742500D01*
X8393881Y-12732976D01*
X8546262Y-12932976D02*
X8546262Y-12799643D01*
X8546262Y-12818690D02*
X8555786Y-12809167D01*
X8574833Y-12799643D01*
X8603405Y-12799643D01*
X8622452Y-12809167D01*
X8631976Y-12828214D01*
X8631976Y-12932976D01*
X8631976Y-12828214D02*
X8641500Y-12809167D01*
X8660548Y-12799643D01*
X8689119Y-12799643D01*
X8708167Y-12809167D01*
X8717690Y-12828214D01*
X8717690Y-12932976D01*
X8812929Y-12932976D02*
X8812929Y-12799643D01*
X8812929Y-12818690D02*
X8822452Y-12809167D01*
X8841500Y-12799643D01*
X8870071Y-12799643D01*
X8889119Y-12809167D01*
X8898643Y-12828214D01*
X8898643Y-12932976D01*
X8898643Y-12828214D02*
X8908167Y-12809167D01*
X8927214Y-12799643D01*
X8955786Y-12799643D01*
X8974833Y-12809167D01*
X8984357Y-12828214D01*
X8984357Y-12932976D01*
X9374833Y-12723452D02*
X9203405Y-12980595D01*
X9631976Y-12732976D02*
X9651024Y-12732976D01*
X9670071Y-12742500D01*
X9679595Y-12752024D01*
X9689119Y-12771071D01*
X9698643Y-12809167D01*
X9698643Y-12856786D01*
X9689119Y-12894881D01*
X9679595Y-12913928D01*
X9670071Y-12923452D01*
X9651024Y-12932976D01*
X9631976Y-12932976D01*
X9612929Y-12923452D01*
X9603405Y-12913928D01*
X9593881Y-12894881D01*
X9584357Y-12856786D01*
X9584357Y-12809167D01*
X9593881Y-12771071D01*
X9603405Y-12752024D01*
X9612929Y-12742500D01*
X9631976Y-12732976D01*
X9784357Y-12913928D02*
X9793881Y-12923452D01*
X9784357Y-12932976D01*
X9774833Y-12923452D01*
X9784357Y-12913928D01*
X9784357Y-12932976D01*
X9917690Y-12732976D02*
X9936738Y-12732976D01*
X9955786Y-12742500D01*
X9965310Y-12752024D01*
X9974833Y-12771071D01*
X9984357Y-12809167D01*
X9984357Y-12856786D01*
X9974833Y-12894881D01*
X9965310Y-12913928D01*
X9955786Y-12923452D01*
X9936738Y-12932976D01*
X9917690Y-12932976D01*
X9898643Y-12923452D01*
X9889119Y-12913928D01*
X9879595Y-12894881D01*
X9870071Y-12856786D01*
X9870071Y-12809167D01*
X9879595Y-12771071D01*
X9889119Y-12752024D01*
X9898643Y-12742500D01*
X9917690Y-12732976D01*
X10174833Y-12932976D02*
X10060548Y-12932976D01*
X10117690Y-12932976D02*
X10117690Y-12732976D01*
X10098643Y-12761548D01*
X10079595Y-12780595D01*
X10060548Y-12790119D01*
X10241500Y-12732976D02*
X10365310Y-12732976D01*
X10298643Y-12809167D01*
X10327214Y-12809167D01*
X10346262Y-12818690D01*
X10355786Y-12828214D01*
X10365310Y-12847262D01*
X10365310Y-12894881D01*
X10355786Y-12913928D01*
X10346262Y-12923452D01*
X10327214Y-12932976D01*
X10270071Y-12932976D01*
X10251024Y-12923452D01*
X10241500Y-12913928D01*
X10479595Y-12818690D02*
X10460548Y-12809167D01*
X10451024Y-12799643D01*
X10441500Y-12780595D01*
X10441500Y-12771071D01*
X10451024Y-12752024D01*
X10460548Y-12742500D01*
X10479595Y-12732976D01*
X10517690Y-12732976D01*
X10536738Y-12742500D01*
X10546262Y-12752024D01*
X10555786Y-12771071D01*
X10555786Y-12780595D01*
X10546262Y-12799643D01*
X10536738Y-12809167D01*
X10517690Y-12818690D01*
X10479595Y-12818690D01*
X10460548Y-12828214D01*
X10451024Y-12837738D01*
X10441500Y-12856786D01*
X10441500Y-12894881D01*
X10451024Y-12913928D01*
X10460548Y-12923452D01*
X10479595Y-12932976D01*
X10517690Y-12932976D01*
X10536738Y-12923452D01*
X10546262Y-12913928D01*
X10555786Y-12894881D01*
X10555786Y-12856786D01*
X10546262Y-12837738D01*
X10536738Y-12828214D01*
X10517690Y-12818690D01*
X10631976Y-12732976D02*
X10631976Y-12771071D01*
X10708167Y-12732976D02*
X10708167Y-12771071D01*
X11003405Y-13009167D02*
X10993881Y-12999643D01*
X10974833Y-12971071D01*
X10965310Y-12952024D01*
X10955786Y-12923452D01*
X10946262Y-12875833D01*
X10946262Y-12837738D01*
X10955786Y-12790119D01*
X10965310Y-12761548D01*
X10974833Y-12742500D01*
X10993881Y-12713928D01*
X11003405Y-12704405D01*
X11070071Y-12752024D02*
X11079595Y-12742500D01*
X11098643Y-12732976D01*
X11146262Y-12732976D01*
X11165310Y-12742500D01*
X11174833Y-12752024D01*
X11184357Y-12771071D01*
X11184357Y-12790119D01*
X11174833Y-12818690D01*
X11060548Y-12932976D01*
X11184357Y-12932976D01*
X11355786Y-12799643D02*
X11355786Y-12932976D01*
X11308167Y-12723452D02*
X11260548Y-12866309D01*
X11384357Y-12866309D01*
X11451024Y-12752024D02*
X11460548Y-12742500D01*
X11479595Y-12732976D01*
X11527214Y-12732976D01*
X11546262Y-12742500D01*
X11555786Y-12752024D01*
X11565309Y-12771071D01*
X11565309Y-12790119D01*
X11555786Y-12818690D01*
X11441500Y-12932976D01*
X11565309Y-12932976D01*
X11803405Y-12932976D02*
X11803405Y-12732976D01*
X11889119Y-12932976D02*
X11889119Y-12828214D01*
X11879595Y-12809167D01*
X11860548Y-12799643D01*
X11831976Y-12799643D01*
X11812928Y-12809167D01*
X11803405Y-12818690D01*
X12012928Y-12932976D02*
X11993881Y-12923452D01*
X11984357Y-12913928D01*
X11974833Y-12894881D01*
X11974833Y-12837738D01*
X11984357Y-12818690D01*
X11993881Y-12809167D01*
X12012928Y-12799643D01*
X12041500Y-12799643D01*
X12060548Y-12809167D01*
X12070071Y-12818690D01*
X12079595Y-12837738D01*
X12079595Y-12894881D01*
X12070071Y-12913928D01*
X12060548Y-12923452D01*
X12041500Y-12932976D01*
X12012928Y-12932976D01*
X12193881Y-12932976D02*
X12174833Y-12923452D01*
X12165309Y-12904405D01*
X12165309Y-12732976D01*
X12346262Y-12923452D02*
X12327214Y-12932976D01*
X12289119Y-12932976D01*
X12270071Y-12923452D01*
X12260548Y-12904405D01*
X12260548Y-12828214D01*
X12270071Y-12809167D01*
X12289119Y-12799643D01*
X12327214Y-12799643D01*
X12346262Y-12809167D01*
X12355786Y-12828214D01*
X12355786Y-12847262D01*
X12260548Y-12866309D01*
X12431976Y-12923452D02*
X12451024Y-12932976D01*
X12489119Y-12932976D01*
X12508167Y-12923452D01*
X12517690Y-12904405D01*
X12517690Y-12894881D01*
X12508167Y-12875833D01*
X12489119Y-12866309D01*
X12460548Y-12866309D01*
X12441500Y-12856786D01*
X12431976Y-12837738D01*
X12431976Y-12828214D01*
X12441500Y-12809167D01*
X12460548Y-12799643D01*
X12489119Y-12799643D01*
X12508167Y-12809167D01*
X12584357Y-13009167D02*
X12593881Y-12999643D01*
X12612928Y-12971071D01*
X12622452Y-12952024D01*
X12631976Y-12923452D01*
X12641500Y-12875833D01*
X12641500Y-12837738D01*
X12631976Y-12790119D01*
X12622452Y-12761548D01*
X12612928Y-12742500D01*
X12593881Y-12713928D01*
X12584357Y-12704405D01*
D12*
X7431500Y-13106500D02*
G75*
G03*
X7431500Y-13106500I-17500J0D01*
G01*
D11*
X7727214Y-12996976D02*
X7746262Y-12996976D01*
X7765309Y-13006500D01*
X7774833Y-13016024D01*
X7784357Y-13035071D01*
X7793881Y-13073167D01*
X7793881Y-13120786D01*
X7784357Y-13158881D01*
X7774833Y-13177928D01*
X7765309Y-13187452D01*
X7746262Y-13196976D01*
X7727214Y-13196976D01*
X7708167Y-13187452D01*
X7698643Y-13177928D01*
X7689119Y-13158881D01*
X7679595Y-13120786D01*
X7679595Y-13073167D01*
X7689119Y-13035071D01*
X7698643Y-13016024D01*
X7708167Y-13006500D01*
X7727214Y-12996976D01*
X7879595Y-13177928D02*
X7889119Y-13187452D01*
X7879595Y-13196976D01*
X7870071Y-13187452D01*
X7879595Y-13177928D01*
X7879595Y-13196976D01*
X7955786Y-12996976D02*
X8079595Y-12996976D01*
X8012928Y-13073167D01*
X8041500Y-13073167D01*
X8060548Y-13082690D01*
X8070071Y-13092214D01*
X8079595Y-13111262D01*
X8079595Y-13158881D01*
X8070071Y-13177928D01*
X8060548Y-13187452D01*
X8041500Y-13196976D01*
X7984357Y-13196976D01*
X7965309Y-13187452D01*
X7955786Y-13177928D01*
X8260548Y-12996976D02*
X8165309Y-12996976D01*
X8155786Y-13092214D01*
X8165309Y-13082690D01*
X8184357Y-13073167D01*
X8231976Y-13073167D01*
X8251024Y-13082690D01*
X8260548Y-13092214D01*
X8270071Y-13111262D01*
X8270071Y-13158881D01*
X8260548Y-13177928D01*
X8251024Y-13187452D01*
X8231976Y-13196976D01*
X8184357Y-13196976D01*
X8165309Y-13187452D01*
X8155786Y-13177928D01*
X8393881Y-12996976D02*
X8412929Y-12996976D01*
X8431976Y-13006500D01*
X8441500Y-13016024D01*
X8451024Y-13035071D01*
X8460548Y-13073167D01*
X8460548Y-13120786D01*
X8451024Y-13158881D01*
X8441500Y-13177928D01*
X8431976Y-13187452D01*
X8412929Y-13196976D01*
X8393881Y-13196976D01*
X8374833Y-13187452D01*
X8365309Y-13177928D01*
X8355786Y-13158881D01*
X8346262Y-13120786D01*
X8346262Y-13073167D01*
X8355786Y-13035071D01*
X8365309Y-13016024D01*
X8374833Y-13006500D01*
X8393881Y-12996976D01*
X8546262Y-13196976D02*
X8546262Y-13063643D01*
X8546262Y-13082690D02*
X8555786Y-13073167D01*
X8574833Y-13063643D01*
X8603405Y-13063643D01*
X8622452Y-13073167D01*
X8631976Y-13092214D01*
X8631976Y-13196976D01*
X8631976Y-13092214D02*
X8641500Y-13073167D01*
X8660548Y-13063643D01*
X8689119Y-13063643D01*
X8708167Y-13073167D01*
X8717690Y-13092214D01*
X8717690Y-13196976D01*
X8812929Y-13196976D02*
X8812929Y-13063643D01*
X8812929Y-13082690D02*
X8822452Y-13073167D01*
X8841500Y-13063643D01*
X8870071Y-13063643D01*
X8889119Y-13073167D01*
X8898643Y-13092214D01*
X8898643Y-13196976D01*
X8898643Y-13092214D02*
X8908167Y-13073167D01*
X8927214Y-13063643D01*
X8955786Y-13063643D01*
X8974833Y-13073167D01*
X8984357Y-13092214D01*
X8984357Y-13196976D01*
X9374833Y-12987452D02*
X9203405Y-13244595D01*
X9631976Y-12996976D02*
X9651024Y-12996976D01*
X9670071Y-13006500D01*
X9679595Y-13016024D01*
X9689119Y-13035071D01*
X9698643Y-13073167D01*
X9698643Y-13120786D01*
X9689119Y-13158881D01*
X9679595Y-13177928D01*
X9670071Y-13187452D01*
X9651024Y-13196976D01*
X9631976Y-13196976D01*
X9612929Y-13187452D01*
X9603405Y-13177928D01*
X9593881Y-13158881D01*
X9584357Y-13120786D01*
X9584357Y-13073167D01*
X9593881Y-13035071D01*
X9603405Y-13016024D01*
X9612929Y-13006500D01*
X9631976Y-12996976D01*
X9784357Y-13177928D02*
X9793881Y-13187452D01*
X9784357Y-13196976D01*
X9774833Y-13187452D01*
X9784357Y-13177928D01*
X9784357Y-13196976D01*
X9917690Y-12996976D02*
X9936738Y-12996976D01*
X9955786Y-13006500D01*
X9965310Y-13016024D01*
X9974833Y-13035071D01*
X9984357Y-13073167D01*
X9984357Y-13120786D01*
X9974833Y-13158881D01*
X9965310Y-13177928D01*
X9955786Y-13187452D01*
X9936738Y-13196976D01*
X9917690Y-13196976D01*
X9898643Y-13187452D01*
X9889119Y-13177928D01*
X9879595Y-13158881D01*
X9870071Y-13120786D01*
X9870071Y-13073167D01*
X9879595Y-13035071D01*
X9889119Y-13016024D01*
X9898643Y-13006500D01*
X9917690Y-12996976D01*
X10174833Y-13196976D02*
X10060548Y-13196976D01*
X10117690Y-13196976D02*
X10117690Y-12996976D01*
X10098643Y-13025548D01*
X10079595Y-13044595D01*
X10060548Y-13054119D01*
X10241500Y-12996976D02*
X10365310Y-12996976D01*
X10298643Y-13073167D01*
X10327214Y-13073167D01*
X10346262Y-13082690D01*
X10355786Y-13092214D01*
X10365310Y-13111262D01*
X10365310Y-13158881D01*
X10355786Y-13177928D01*
X10346262Y-13187452D01*
X10327214Y-13196976D01*
X10270071Y-13196976D01*
X10251024Y-13187452D01*
X10241500Y-13177928D01*
X10479595Y-13082690D02*
X10460548Y-13073167D01*
X10451024Y-13063643D01*
X10441500Y-13044595D01*
X10441500Y-13035071D01*
X10451024Y-13016024D01*
X10460548Y-13006500D01*
X10479595Y-12996976D01*
X10517690Y-12996976D01*
X10536738Y-13006500D01*
X10546262Y-13016024D01*
X10555786Y-13035071D01*
X10555786Y-13044595D01*
X10546262Y-13063643D01*
X10536738Y-13073167D01*
X10517690Y-13082690D01*
X10479595Y-13082690D01*
X10460548Y-13092214D01*
X10451024Y-13101738D01*
X10441500Y-13120786D01*
X10441500Y-13158881D01*
X10451024Y-13177928D01*
X10460548Y-13187452D01*
X10479595Y-13196976D01*
X10517690Y-13196976D01*
X10536738Y-13187452D01*
X10546262Y-13177928D01*
X10555786Y-13158881D01*
X10555786Y-13120786D01*
X10546262Y-13101738D01*
X10536738Y-13092214D01*
X10517690Y-13082690D01*
X10631976Y-12996976D02*
X10631976Y-13035071D01*
X10708167Y-12996976D02*
X10708167Y-13035071D01*
X11003405Y-13273167D02*
X10993881Y-13263643D01*
X10974833Y-13235071D01*
X10965310Y-13216024D01*
X10955786Y-13187452D01*
X10946262Y-13139833D01*
X10946262Y-13101738D01*
X10955786Y-13054119D01*
X10965310Y-13025548D01*
X10974833Y-13006500D01*
X10993881Y-12977928D01*
X11003405Y-12968405D01*
X11089119Y-13196976D02*
X11127214Y-13196976D01*
X11146262Y-13187452D01*
X11155786Y-13177928D01*
X11174833Y-13149357D01*
X11184357Y-13111262D01*
X11184357Y-13035071D01*
X11174833Y-13016024D01*
X11165310Y-13006500D01*
X11146262Y-12996976D01*
X11108167Y-12996976D01*
X11089119Y-13006500D01*
X11079595Y-13016024D01*
X11070071Y-13035071D01*
X11070071Y-13082690D01*
X11079595Y-13101738D01*
X11089119Y-13111262D01*
X11108167Y-13120786D01*
X11146262Y-13120786D01*
X11165310Y-13111262D01*
X11174833Y-13101738D01*
X11184357Y-13082690D01*
X11422452Y-13196976D02*
X11422452Y-12996976D01*
X11508167Y-13196976D02*
X11508167Y-13092214D01*
X11498643Y-13073167D01*
X11479595Y-13063643D01*
X11451024Y-13063643D01*
X11431976Y-13073167D01*
X11422452Y-13082690D01*
X11631976Y-13196976D02*
X11612928Y-13187452D01*
X11603405Y-13177928D01*
X11593881Y-13158881D01*
X11593881Y-13101738D01*
X11603405Y-13082690D01*
X11612928Y-13073167D01*
X11631976Y-13063643D01*
X11660548Y-13063643D01*
X11679595Y-13073167D01*
X11689119Y-13082690D01*
X11698643Y-13101738D01*
X11698643Y-13158881D01*
X11689119Y-13177928D01*
X11679595Y-13187452D01*
X11660548Y-13196976D01*
X11631976Y-13196976D01*
X11812928Y-13196976D02*
X11793881Y-13187452D01*
X11784357Y-13168405D01*
X11784357Y-12996976D01*
X11965309Y-13187452D02*
X11946262Y-13196976D01*
X11908167Y-13196976D01*
X11889119Y-13187452D01*
X11879595Y-13168405D01*
X11879595Y-13092214D01*
X11889119Y-13073167D01*
X11908167Y-13063643D01*
X11946262Y-13063643D01*
X11965309Y-13073167D01*
X11974833Y-13092214D01*
X11974833Y-13111262D01*
X11879595Y-13130309D01*
X12051024Y-13187452D02*
X12070071Y-13196976D01*
X12108167Y-13196976D01*
X12127214Y-13187452D01*
X12136738Y-13168405D01*
X12136738Y-13158881D01*
X12127214Y-13139833D01*
X12108167Y-13130309D01*
X12079595Y-13130309D01*
X12060548Y-13120786D01*
X12051024Y-13101738D01*
X12051024Y-13092214D01*
X12060548Y-13073167D01*
X12079595Y-13063643D01*
X12108167Y-13063643D01*
X12127214Y-13073167D01*
X12203405Y-13273167D02*
X12212928Y-13263643D01*
X12231976Y-13235071D01*
X12241500Y-13216024D01*
X12251024Y-13187452D01*
X12260548Y-13139833D01*
X12260548Y-13101738D01*
X12251024Y-13054119D01*
X12241500Y-13025548D01*
X12231976Y-13006500D01*
X12212928Y-12977928D01*
X12203405Y-12968405D01*
D13*
X7411500Y-13350500D02*
X7411500Y-13390500D01*
X7391500Y-13370500D02*
X7431500Y-13370500D01*
D11*
X7727214Y-13260976D02*
X7746262Y-13260976D01*
X7765309Y-13270500D01*
X7774833Y-13280024D01*
X7784357Y-13299071D01*
X7793881Y-13337167D01*
X7793881Y-13384786D01*
X7784357Y-13422881D01*
X7774833Y-13441928D01*
X7765309Y-13451452D01*
X7746262Y-13460976D01*
X7727214Y-13460976D01*
X7708167Y-13451452D01*
X7698643Y-13441928D01*
X7689119Y-13422881D01*
X7679595Y-13384786D01*
X7679595Y-13337167D01*
X7689119Y-13299071D01*
X7698643Y-13280024D01*
X7708167Y-13270500D01*
X7727214Y-13260976D01*
X7879595Y-13441928D02*
X7889119Y-13451452D01*
X7879595Y-13460976D01*
X7870071Y-13451452D01*
X7879595Y-13441928D01*
X7879595Y-13460976D01*
X8060548Y-13327643D02*
X8060548Y-13460976D01*
X8012928Y-13251452D02*
X7965309Y-13394309D01*
X8089119Y-13394309D01*
X8203405Y-13260976D02*
X8222452Y-13260976D01*
X8241500Y-13270500D01*
X8251024Y-13280024D01*
X8260548Y-13299071D01*
X8270071Y-13337167D01*
X8270071Y-13384786D01*
X8260548Y-13422881D01*
X8251024Y-13441928D01*
X8241500Y-13451452D01*
X8222452Y-13460976D01*
X8203405Y-13460976D01*
X8184357Y-13451452D01*
X8174833Y-13441928D01*
X8165309Y-13422881D01*
X8155786Y-13384786D01*
X8155786Y-13337167D01*
X8165309Y-13299071D01*
X8174833Y-13280024D01*
X8184357Y-13270500D01*
X8203405Y-13260976D01*
X8393881Y-13260976D02*
X8412929Y-13260976D01*
X8431976Y-13270500D01*
X8441500Y-13280024D01*
X8451024Y-13299071D01*
X8460548Y-13337167D01*
X8460548Y-13384786D01*
X8451024Y-13422881D01*
X8441500Y-13441928D01*
X8431976Y-13451452D01*
X8412929Y-13460976D01*
X8393881Y-13460976D01*
X8374833Y-13451452D01*
X8365309Y-13441928D01*
X8355786Y-13422881D01*
X8346262Y-13384786D01*
X8346262Y-13337167D01*
X8355786Y-13299071D01*
X8365309Y-13280024D01*
X8374833Y-13270500D01*
X8393881Y-13260976D01*
X8546262Y-13460976D02*
X8546262Y-13327643D01*
X8546262Y-13346690D02*
X8555786Y-13337167D01*
X8574833Y-13327643D01*
X8603405Y-13327643D01*
X8622452Y-13337167D01*
X8631976Y-13356214D01*
X8631976Y-13460976D01*
X8631976Y-13356214D02*
X8641500Y-13337167D01*
X8660548Y-13327643D01*
X8689119Y-13327643D01*
X8708167Y-13337167D01*
X8717690Y-13356214D01*
X8717690Y-13460976D01*
X8812929Y-13460976D02*
X8812929Y-13327643D01*
X8812929Y-13346690D02*
X8822452Y-13337167D01*
X8841500Y-13327643D01*
X8870071Y-13327643D01*
X8889119Y-13337167D01*
X8898643Y-13356214D01*
X8898643Y-13460976D01*
X8898643Y-13356214D02*
X8908167Y-13337167D01*
X8927214Y-13327643D01*
X8955786Y-13327643D01*
X8974833Y-13337167D01*
X8984357Y-13356214D01*
X8984357Y-13460976D01*
X9374833Y-13251452D02*
X9203405Y-13508595D01*
X9631976Y-13260976D02*
X9651024Y-13260976D01*
X9670071Y-13270500D01*
X9679595Y-13280024D01*
X9689119Y-13299071D01*
X9698643Y-13337167D01*
X9698643Y-13384786D01*
X9689119Y-13422881D01*
X9679595Y-13441928D01*
X9670071Y-13451452D01*
X9651024Y-13460976D01*
X9631976Y-13460976D01*
X9612929Y-13451452D01*
X9603405Y-13441928D01*
X9593881Y-13422881D01*
X9584357Y-13384786D01*
X9584357Y-13337167D01*
X9593881Y-13299071D01*
X9603405Y-13280024D01*
X9612929Y-13270500D01*
X9631976Y-13260976D01*
X9784357Y-13441928D02*
X9793881Y-13451452D01*
X9784357Y-13460976D01*
X9774833Y-13451452D01*
X9784357Y-13441928D01*
X9784357Y-13460976D01*
X9917690Y-13260976D02*
X9936738Y-13260976D01*
X9955786Y-13270500D01*
X9965310Y-13280024D01*
X9974833Y-13299071D01*
X9984357Y-13337167D01*
X9984357Y-13384786D01*
X9974833Y-13422881D01*
X9965310Y-13441928D01*
X9955786Y-13451452D01*
X9936738Y-13460976D01*
X9917690Y-13460976D01*
X9898643Y-13451452D01*
X9889119Y-13441928D01*
X9879595Y-13422881D01*
X9870071Y-13384786D01*
X9870071Y-13337167D01*
X9879595Y-13299071D01*
X9889119Y-13280024D01*
X9898643Y-13270500D01*
X9917690Y-13260976D01*
X10174833Y-13460976D02*
X10060548Y-13460976D01*
X10117690Y-13460976D02*
X10117690Y-13260976D01*
X10098643Y-13289548D01*
X10079595Y-13308595D01*
X10060548Y-13318119D01*
X10355786Y-13260976D02*
X10260548Y-13260976D01*
X10251024Y-13356214D01*
X10260548Y-13346690D01*
X10279595Y-13337167D01*
X10327214Y-13337167D01*
X10346262Y-13346690D01*
X10355786Y-13356214D01*
X10365310Y-13375262D01*
X10365310Y-13422881D01*
X10355786Y-13441928D01*
X10346262Y-13451452D01*
X10327214Y-13460976D01*
X10279595Y-13460976D01*
X10260548Y-13451452D01*
X10251024Y-13441928D01*
X10431976Y-13260976D02*
X10565310Y-13260976D01*
X10479595Y-13460976D01*
X10631976Y-13260976D02*
X10631976Y-13299071D01*
X10708167Y-13260976D02*
X10708167Y-13299071D01*
X11003405Y-13537167D02*
X10993881Y-13527643D01*
X10974833Y-13499071D01*
X10965310Y-13480024D01*
X10955786Y-13451452D01*
X10946262Y-13403833D01*
X10946262Y-13365738D01*
X10955786Y-13318119D01*
X10965310Y-13289548D01*
X10974833Y-13270500D01*
X10993881Y-13241928D01*
X11003405Y-13232405D01*
X11184357Y-13460976D02*
X11070071Y-13460976D01*
X11127214Y-13460976D02*
X11127214Y-13260976D01*
X11108167Y-13289548D01*
X11089119Y-13308595D01*
X11070071Y-13318119D01*
X11365309Y-13260976D02*
X11270071Y-13260976D01*
X11260548Y-13356214D01*
X11270071Y-13346690D01*
X11289119Y-13337167D01*
X11336738Y-13337167D01*
X11355786Y-13346690D01*
X11365309Y-13356214D01*
X11374833Y-13375262D01*
X11374833Y-13422881D01*
X11365309Y-13441928D01*
X11355786Y-13451452D01*
X11336738Y-13460976D01*
X11289119Y-13460976D01*
X11270071Y-13451452D01*
X11260548Y-13441928D01*
X11451024Y-13280024D02*
X11460548Y-13270500D01*
X11479595Y-13260976D01*
X11527214Y-13260976D01*
X11546262Y-13270500D01*
X11555786Y-13280024D01*
X11565309Y-13299071D01*
X11565309Y-13318119D01*
X11555786Y-13346690D01*
X11441500Y-13460976D01*
X11565309Y-13460976D01*
X11803405Y-13460976D02*
X11803405Y-13260976D01*
X11889119Y-13460976D02*
X11889119Y-13356214D01*
X11879595Y-13337167D01*
X11860548Y-13327643D01*
X11831976Y-13327643D01*
X11812928Y-13337167D01*
X11803405Y-13346690D01*
X12012928Y-13460976D02*
X11993881Y-13451452D01*
X11984357Y-13441928D01*
X11974833Y-13422881D01*
X11974833Y-13365738D01*
X11984357Y-13346690D01*
X11993881Y-13337167D01*
X12012928Y-13327643D01*
X12041500Y-13327643D01*
X12060548Y-13337167D01*
X12070071Y-13346690D01*
X12079595Y-13365738D01*
X12079595Y-13422881D01*
X12070071Y-13441928D01*
X12060548Y-13451452D01*
X12041500Y-13460976D01*
X12012928Y-13460976D01*
X12193881Y-13460976D02*
X12174833Y-13451452D01*
X12165309Y-13432405D01*
X12165309Y-13260976D01*
X12346262Y-13451452D02*
X12327214Y-13460976D01*
X12289119Y-13460976D01*
X12270071Y-13451452D01*
X12260548Y-13432405D01*
X12260548Y-13356214D01*
X12270071Y-13337167D01*
X12289119Y-13327643D01*
X12327214Y-13327643D01*
X12346262Y-13337167D01*
X12355786Y-13356214D01*
X12355786Y-13375262D01*
X12260548Y-13394309D01*
X12431976Y-13451452D02*
X12451024Y-13460976D01*
X12489119Y-13460976D01*
X12508167Y-13451452D01*
X12517690Y-13432405D01*
X12517690Y-13422881D01*
X12508167Y-13403833D01*
X12489119Y-13394309D01*
X12460548Y-13394309D01*
X12441500Y-13384786D01*
X12431976Y-13365738D01*
X12431976Y-13356214D01*
X12441500Y-13337167D01*
X12460548Y-13327643D01*
X12489119Y-13327643D01*
X12508167Y-13337167D01*
X12584357Y-13537167D02*
X12593881Y-13527643D01*
X12612928Y-13499071D01*
X12622452Y-13480024D01*
X12631976Y-13451452D01*
X12641500Y-13403833D01*
X12641500Y-13365738D01*
X12631976Y-13318119D01*
X12622452Y-13289548D01*
X12612928Y-13270500D01*
X12593881Y-13241928D01*
X12584357Y-13232405D01*
D14*
X7424178Y-13652178D02*
X7424178Y-13616822D01*
X7388822Y-13616822D01*
X7388822Y-13652178D01*
X7424178Y-13652178D01*
D11*
X7727214Y-13524976D02*
X7746262Y-13524976D01*
X7765309Y-13534500D01*
X7774833Y-13544024D01*
X7784357Y-13563071D01*
X7793881Y-13601167D01*
X7793881Y-13648786D01*
X7784357Y-13686881D01*
X7774833Y-13705928D01*
X7765309Y-13715452D01*
X7746262Y-13724976D01*
X7727214Y-13724976D01*
X7708167Y-13715452D01*
X7698643Y-13705928D01*
X7689119Y-13686881D01*
X7679595Y-13648786D01*
X7679595Y-13601167D01*
X7689119Y-13563071D01*
X7698643Y-13544024D01*
X7708167Y-13534500D01*
X7727214Y-13524976D01*
X7879595Y-13705928D02*
X7889119Y-13715452D01*
X7879595Y-13724976D01*
X7870071Y-13715452D01*
X7879595Y-13705928D01*
X7879595Y-13724976D01*
X8070071Y-13524976D02*
X7974833Y-13524976D01*
X7965309Y-13620214D01*
X7974833Y-13610690D01*
X7993881Y-13601167D01*
X8041500Y-13601167D01*
X8060548Y-13610690D01*
X8070071Y-13620214D01*
X8079595Y-13639262D01*
X8079595Y-13686881D01*
X8070071Y-13705928D01*
X8060548Y-13715452D01*
X8041500Y-13724976D01*
X7993881Y-13724976D01*
X7974833Y-13715452D01*
X7965309Y-13705928D01*
X8203405Y-13524976D02*
X8222452Y-13524976D01*
X8241500Y-13534500D01*
X8251024Y-13544024D01*
X8260548Y-13563071D01*
X8270071Y-13601167D01*
X8270071Y-13648786D01*
X8260548Y-13686881D01*
X8251024Y-13705928D01*
X8241500Y-13715452D01*
X8222452Y-13724976D01*
X8203405Y-13724976D01*
X8184357Y-13715452D01*
X8174833Y-13705928D01*
X8165309Y-13686881D01*
X8155786Y-13648786D01*
X8155786Y-13601167D01*
X8165309Y-13563071D01*
X8174833Y-13544024D01*
X8184357Y-13534500D01*
X8203405Y-13524976D01*
X8393881Y-13524976D02*
X8412929Y-13524976D01*
X8431976Y-13534500D01*
X8441500Y-13544024D01*
X8451024Y-13563071D01*
X8460548Y-13601167D01*
X8460548Y-13648786D01*
X8451024Y-13686881D01*
X8441500Y-13705928D01*
X8431976Y-13715452D01*
X8412929Y-13724976D01*
X8393881Y-13724976D01*
X8374833Y-13715452D01*
X8365309Y-13705928D01*
X8355786Y-13686881D01*
X8346262Y-13648786D01*
X8346262Y-13601167D01*
X8355786Y-13563071D01*
X8365309Y-13544024D01*
X8374833Y-13534500D01*
X8393881Y-13524976D01*
X8546262Y-13724976D02*
X8546262Y-13591643D01*
X8546262Y-13610690D02*
X8555786Y-13601167D01*
X8574833Y-13591643D01*
X8603405Y-13591643D01*
X8622452Y-13601167D01*
X8631976Y-13620214D01*
X8631976Y-13724976D01*
X8631976Y-13620214D02*
X8641500Y-13601167D01*
X8660548Y-13591643D01*
X8689119Y-13591643D01*
X8708167Y-13601167D01*
X8717690Y-13620214D01*
X8717690Y-13724976D01*
X8812929Y-13724976D02*
X8812929Y-13591643D01*
X8812929Y-13610690D02*
X8822452Y-13601167D01*
X8841500Y-13591643D01*
X8870071Y-13591643D01*
X8889119Y-13601167D01*
X8898643Y-13620214D01*
X8898643Y-13724976D01*
X8898643Y-13620214D02*
X8908167Y-13601167D01*
X8927214Y-13591643D01*
X8955786Y-13591643D01*
X8974833Y-13601167D01*
X8984357Y-13620214D01*
X8984357Y-13724976D01*
X9374833Y-13515452D02*
X9203405Y-13772595D01*
X9631976Y-13524976D02*
X9651024Y-13524976D01*
X9670071Y-13534500D01*
X9679595Y-13544024D01*
X9689119Y-13563071D01*
X9698643Y-13601167D01*
X9698643Y-13648786D01*
X9689119Y-13686881D01*
X9679595Y-13705928D01*
X9670071Y-13715452D01*
X9651024Y-13724976D01*
X9631976Y-13724976D01*
X9612929Y-13715452D01*
X9603405Y-13705928D01*
X9593881Y-13686881D01*
X9584357Y-13648786D01*
X9584357Y-13601167D01*
X9593881Y-13563071D01*
X9603405Y-13544024D01*
X9612929Y-13534500D01*
X9631976Y-13524976D01*
X9784357Y-13705928D02*
X9793881Y-13715452D01*
X9784357Y-13724976D01*
X9774833Y-13715452D01*
X9784357Y-13705928D01*
X9784357Y-13724976D01*
X9917690Y-13524976D02*
X9936738Y-13524976D01*
X9955786Y-13534500D01*
X9965310Y-13544024D01*
X9974833Y-13563071D01*
X9984357Y-13601167D01*
X9984357Y-13648786D01*
X9974833Y-13686881D01*
X9965310Y-13705928D01*
X9955786Y-13715452D01*
X9936738Y-13724976D01*
X9917690Y-13724976D01*
X9898643Y-13715452D01*
X9889119Y-13705928D01*
X9879595Y-13686881D01*
X9870071Y-13648786D01*
X9870071Y-13601167D01*
X9879595Y-13563071D01*
X9889119Y-13544024D01*
X9898643Y-13534500D01*
X9917690Y-13524976D01*
X10174833Y-13724976D02*
X10060548Y-13724976D01*
X10117690Y-13724976D02*
X10117690Y-13524976D01*
X10098643Y-13553548D01*
X10079595Y-13572595D01*
X10060548Y-13582119D01*
X10270071Y-13724976D02*
X10308167Y-13724976D01*
X10327214Y-13715452D01*
X10336738Y-13705928D01*
X10355786Y-13677357D01*
X10365310Y-13639262D01*
X10365310Y-13563071D01*
X10355786Y-13544024D01*
X10346262Y-13534500D01*
X10327214Y-13524976D01*
X10289119Y-13524976D01*
X10270071Y-13534500D01*
X10260548Y-13544024D01*
X10251024Y-13563071D01*
X10251024Y-13610690D01*
X10260548Y-13629738D01*
X10270071Y-13639262D01*
X10289119Y-13648786D01*
X10327214Y-13648786D01*
X10346262Y-13639262D01*
X10355786Y-13629738D01*
X10365310Y-13610690D01*
X10431976Y-13524976D02*
X10565310Y-13524976D01*
X10479595Y-13724976D01*
X10631976Y-13524976D02*
X10631976Y-13563071D01*
X10708167Y-13524976D02*
X10708167Y-13563071D01*
X11003405Y-13801167D02*
X10993881Y-13791643D01*
X10974833Y-13763071D01*
X10965310Y-13744024D01*
X10955786Y-13715452D01*
X10946262Y-13667833D01*
X10946262Y-13629738D01*
X10955786Y-13582119D01*
X10965310Y-13553548D01*
X10974833Y-13534500D01*
X10993881Y-13505928D01*
X11003405Y-13496405D01*
X11070071Y-13544024D02*
X11079595Y-13534500D01*
X11098643Y-13524976D01*
X11146262Y-13524976D01*
X11165310Y-13534500D01*
X11174833Y-13544024D01*
X11184357Y-13563071D01*
X11184357Y-13582119D01*
X11174833Y-13610690D01*
X11060548Y-13724976D01*
X11184357Y-13724976D01*
X11251024Y-13524976D02*
X11384357Y-13524976D01*
X11298643Y-13724976D01*
X11565309Y-13724976D02*
X11451024Y-13724976D01*
X11508167Y-13724976D02*
X11508167Y-13524976D01*
X11489119Y-13553548D01*
X11470071Y-13572595D01*
X11451024Y-13582119D01*
X11803405Y-13724976D02*
X11803405Y-13524976D01*
X11889119Y-13724976D02*
X11889119Y-13620214D01*
X11879595Y-13601167D01*
X11860548Y-13591643D01*
X11831976Y-13591643D01*
X11812928Y-13601167D01*
X11803405Y-13610690D01*
X12012928Y-13724976D02*
X11993881Y-13715452D01*
X11984357Y-13705928D01*
X11974833Y-13686881D01*
X11974833Y-13629738D01*
X11984357Y-13610690D01*
X11993881Y-13601167D01*
X12012928Y-13591643D01*
X12041500Y-13591643D01*
X12060548Y-13601167D01*
X12070071Y-13610690D01*
X12079595Y-13629738D01*
X12079595Y-13686881D01*
X12070071Y-13705928D01*
X12060548Y-13715452D01*
X12041500Y-13724976D01*
X12012928Y-13724976D01*
X12193881Y-13724976D02*
X12174833Y-13715452D01*
X12165309Y-13696405D01*
X12165309Y-13524976D01*
X12346262Y-13715452D02*
X12327214Y-13724976D01*
X12289119Y-13724976D01*
X12270071Y-13715452D01*
X12260548Y-13696405D01*
X12260548Y-13620214D01*
X12270071Y-13601167D01*
X12289119Y-13591643D01*
X12327214Y-13591643D01*
X12346262Y-13601167D01*
X12355786Y-13620214D01*
X12355786Y-13639262D01*
X12260548Y-13658309D01*
X12431976Y-13715452D02*
X12451024Y-13724976D01*
X12489119Y-13724976D01*
X12508167Y-13715452D01*
X12517690Y-13696405D01*
X12517690Y-13686881D01*
X12508167Y-13667833D01*
X12489119Y-13658309D01*
X12460548Y-13658309D01*
X12441500Y-13648786D01*
X12431976Y-13629738D01*
X12431976Y-13620214D01*
X12441500Y-13601167D01*
X12460548Y-13591643D01*
X12489119Y-13591643D01*
X12508167Y-13601167D01*
X12584357Y-13801167D02*
X12593881Y-13791643D01*
X12612928Y-13763071D01*
X12622452Y-13744024D01*
X12631976Y-13715452D01*
X12641500Y-13667833D01*
X12641500Y-13629738D01*
X12631976Y-13582119D01*
X12622452Y-13553548D01*
X12612928Y-13534500D01*
X12593881Y-13505928D01*
X12584357Y-13496405D01*
D15*
X7401500Y-13928500D02*
X7431500Y-13898500D01*
X7401500Y-13868500D01*
X7371500Y-13898500D01*
X7401500Y-13928500D01*
D11*
X7727214Y-13788976D02*
X7746262Y-13788976D01*
X7765309Y-13798500D01*
X7774833Y-13808024D01*
X7784357Y-13827071D01*
X7793881Y-13865167D01*
X7793881Y-13912786D01*
X7784357Y-13950881D01*
X7774833Y-13969928D01*
X7765309Y-13979452D01*
X7746262Y-13988976D01*
X7727214Y-13988976D01*
X7708167Y-13979452D01*
X7698643Y-13969928D01*
X7689119Y-13950881D01*
X7679595Y-13912786D01*
X7679595Y-13865167D01*
X7689119Y-13827071D01*
X7698643Y-13808024D01*
X7708167Y-13798500D01*
X7727214Y-13788976D01*
X7879595Y-13969928D02*
X7889119Y-13979452D01*
X7879595Y-13988976D01*
X7870071Y-13979452D01*
X7879595Y-13969928D01*
X7879595Y-13988976D01*
X8060548Y-13788976D02*
X8022452Y-13788976D01*
X8003405Y-13798500D01*
X7993881Y-13808024D01*
X7974833Y-13836595D01*
X7965309Y-13874690D01*
X7965309Y-13950881D01*
X7974833Y-13969928D01*
X7984357Y-13979452D01*
X8003405Y-13988976D01*
X8041500Y-13988976D01*
X8060548Y-13979452D01*
X8070071Y-13969928D01*
X8079595Y-13950881D01*
X8079595Y-13903262D01*
X8070071Y-13884214D01*
X8060548Y-13874690D01*
X8041500Y-13865167D01*
X8003405Y-13865167D01*
X7984357Y-13874690D01*
X7974833Y-13884214D01*
X7965309Y-13903262D01*
X8203405Y-13788976D02*
X8222452Y-13788976D01*
X8241500Y-13798500D01*
X8251024Y-13808024D01*
X8260548Y-13827071D01*
X8270071Y-13865167D01*
X8270071Y-13912786D01*
X8260548Y-13950881D01*
X8251024Y-13969928D01*
X8241500Y-13979452D01*
X8222452Y-13988976D01*
X8203405Y-13988976D01*
X8184357Y-13979452D01*
X8174833Y-13969928D01*
X8165309Y-13950881D01*
X8155786Y-13912786D01*
X8155786Y-13865167D01*
X8165309Y-13827071D01*
X8174833Y-13808024D01*
X8184357Y-13798500D01*
X8203405Y-13788976D01*
X8393881Y-13788976D02*
X8412929Y-13788976D01*
X8431976Y-13798500D01*
X8441500Y-13808024D01*
X8451024Y-13827071D01*
X8460548Y-13865167D01*
X8460548Y-13912786D01*
X8451024Y-13950881D01*
X8441500Y-13969928D01*
X8431976Y-13979452D01*
X8412929Y-13988976D01*
X8393881Y-13988976D01*
X8374833Y-13979452D01*
X8365309Y-13969928D01*
X8355786Y-13950881D01*
X8346262Y-13912786D01*
X8346262Y-13865167D01*
X8355786Y-13827071D01*
X8365309Y-13808024D01*
X8374833Y-13798500D01*
X8393881Y-13788976D01*
X8546262Y-13988976D02*
X8546262Y-13855643D01*
X8546262Y-13874690D02*
X8555786Y-13865167D01*
X8574833Y-13855643D01*
X8603405Y-13855643D01*
X8622452Y-13865167D01*
X8631976Y-13884214D01*
X8631976Y-13988976D01*
X8631976Y-13884214D02*
X8641500Y-13865167D01*
X8660548Y-13855643D01*
X8689119Y-13855643D01*
X8708167Y-13865167D01*
X8717690Y-13884214D01*
X8717690Y-13988976D01*
X8812929Y-13988976D02*
X8812929Y-13855643D01*
X8812929Y-13874690D02*
X8822452Y-13865167D01*
X8841500Y-13855643D01*
X8870071Y-13855643D01*
X8889119Y-13865167D01*
X8898643Y-13884214D01*
X8898643Y-13988976D01*
X8898643Y-13884214D02*
X8908167Y-13865167D01*
X8927214Y-13855643D01*
X8955786Y-13855643D01*
X8974833Y-13865167D01*
X8984357Y-13884214D01*
X8984357Y-13988976D01*
X9374833Y-13779452D02*
X9203405Y-14036595D01*
X9631976Y-13788976D02*
X9651024Y-13788976D01*
X9670071Y-13798500D01*
X9679595Y-13808024D01*
X9689119Y-13827071D01*
X9698643Y-13865167D01*
X9698643Y-13912786D01*
X9689119Y-13950881D01*
X9679595Y-13969928D01*
X9670071Y-13979452D01*
X9651024Y-13988976D01*
X9631976Y-13988976D01*
X9612929Y-13979452D01*
X9603405Y-13969928D01*
X9593881Y-13950881D01*
X9584357Y-13912786D01*
X9584357Y-13865167D01*
X9593881Y-13827071D01*
X9603405Y-13808024D01*
X9612929Y-13798500D01*
X9631976Y-13788976D01*
X9784357Y-13969928D02*
X9793881Y-13979452D01*
X9784357Y-13988976D01*
X9774833Y-13979452D01*
X9784357Y-13969928D01*
X9784357Y-13988976D01*
X9917690Y-13788976D02*
X9936738Y-13788976D01*
X9955786Y-13798500D01*
X9965310Y-13808024D01*
X9974833Y-13827071D01*
X9984357Y-13865167D01*
X9984357Y-13912786D01*
X9974833Y-13950881D01*
X9965310Y-13969928D01*
X9955786Y-13979452D01*
X9936738Y-13988976D01*
X9917690Y-13988976D01*
X9898643Y-13979452D01*
X9889119Y-13969928D01*
X9879595Y-13950881D01*
X9870071Y-13912786D01*
X9870071Y-13865167D01*
X9879595Y-13827071D01*
X9889119Y-13808024D01*
X9898643Y-13798500D01*
X9917690Y-13788976D01*
X10060548Y-13808024D02*
X10070071Y-13798500D01*
X10089119Y-13788976D01*
X10136738Y-13788976D01*
X10155786Y-13798500D01*
X10165310Y-13808024D01*
X10174833Y-13827071D01*
X10174833Y-13846119D01*
X10165310Y-13874690D01*
X10051024Y-13988976D01*
X10174833Y-13988976D01*
X10241500Y-13788976D02*
X10365310Y-13788976D01*
X10298643Y-13865167D01*
X10327214Y-13865167D01*
X10346262Y-13874690D01*
X10355786Y-13884214D01*
X10365310Y-13903262D01*
X10365310Y-13950881D01*
X10355786Y-13969928D01*
X10346262Y-13979452D01*
X10327214Y-13988976D01*
X10270071Y-13988976D01*
X10251024Y-13979452D01*
X10241500Y-13969928D01*
X10536738Y-13788976D02*
X10498643Y-13788976D01*
X10479595Y-13798500D01*
X10470071Y-13808024D01*
X10451024Y-13836595D01*
X10441500Y-13874690D01*
X10441500Y-13950881D01*
X10451024Y-13969928D01*
X10460548Y-13979452D01*
X10479595Y-13988976D01*
X10517690Y-13988976D01*
X10536738Y-13979452D01*
X10546262Y-13969928D01*
X10555786Y-13950881D01*
X10555786Y-13903262D01*
X10546262Y-13884214D01*
X10536738Y-13874690D01*
X10517690Y-13865167D01*
X10479595Y-13865167D01*
X10460548Y-13874690D01*
X10451024Y-13884214D01*
X10441500Y-13903262D01*
X10631976Y-13788976D02*
X10631976Y-13827071D01*
X10708167Y-13788976D02*
X10708167Y-13827071D01*
X11003405Y-14065167D02*
X10993881Y-14055643D01*
X10974833Y-14027071D01*
X10965310Y-14008024D01*
X10955786Y-13979452D01*
X10946262Y-13931833D01*
X10946262Y-13893738D01*
X10955786Y-13846119D01*
X10965310Y-13817548D01*
X10974833Y-13798500D01*
X10993881Y-13769928D01*
X11003405Y-13760405D01*
X11117690Y-13788976D02*
X11136738Y-13788976D01*
X11155786Y-13798500D01*
X11165310Y-13808024D01*
X11174833Y-13827071D01*
X11184357Y-13865167D01*
X11184357Y-13912786D01*
X11174833Y-13950881D01*
X11165310Y-13969928D01*
X11155786Y-13979452D01*
X11136738Y-13988976D01*
X11117690Y-13988976D01*
X11098643Y-13979452D01*
X11089119Y-13969928D01*
X11079595Y-13950881D01*
X11070071Y-13912786D01*
X11070071Y-13865167D01*
X11079595Y-13827071D01*
X11089119Y-13808024D01*
X11098643Y-13798500D01*
X11117690Y-13788976D01*
X11422452Y-13988976D02*
X11422452Y-13788976D01*
X11508167Y-13988976D02*
X11508167Y-13884214D01*
X11498643Y-13865167D01*
X11479595Y-13855643D01*
X11451024Y-13855643D01*
X11431976Y-13865167D01*
X11422452Y-13874690D01*
X11631976Y-13988976D02*
X11612928Y-13979452D01*
X11603405Y-13969928D01*
X11593881Y-13950881D01*
X11593881Y-13893738D01*
X11603405Y-13874690D01*
X11612928Y-13865167D01*
X11631976Y-13855643D01*
X11660548Y-13855643D01*
X11679595Y-13865167D01*
X11689119Y-13874690D01*
X11698643Y-13893738D01*
X11698643Y-13950881D01*
X11689119Y-13969928D01*
X11679595Y-13979452D01*
X11660548Y-13988976D01*
X11631976Y-13988976D01*
X11812928Y-13988976D02*
X11793881Y-13979452D01*
X11784357Y-13960405D01*
X11784357Y-13788976D01*
X11965309Y-13979452D02*
X11946262Y-13988976D01*
X11908167Y-13988976D01*
X11889119Y-13979452D01*
X11879595Y-13960405D01*
X11879595Y-13884214D01*
X11889119Y-13865167D01*
X11908167Y-13855643D01*
X11946262Y-13855643D01*
X11965309Y-13865167D01*
X11974833Y-13884214D01*
X11974833Y-13903262D01*
X11879595Y-13922309D01*
X12051024Y-13979452D02*
X12070071Y-13988976D01*
X12108167Y-13988976D01*
X12127214Y-13979452D01*
X12136738Y-13960405D01*
X12136738Y-13950881D01*
X12127214Y-13931833D01*
X12108167Y-13922309D01*
X12079595Y-13922309D01*
X12060548Y-13912786D01*
X12051024Y-13893738D01*
X12051024Y-13884214D01*
X12060548Y-13865167D01*
X12079595Y-13855643D01*
X12108167Y-13855643D01*
X12127214Y-13865167D01*
X12374833Y-13912786D02*
X12527214Y-13912786D01*
X12451024Y-13988976D02*
X12451024Y-13836595D01*
X12860548Y-13855643D02*
X12860548Y-13988976D01*
X12812928Y-13779452D02*
X12765309Y-13922309D01*
X12889119Y-13922309D01*
X13108167Y-13979452D02*
X13127214Y-13988976D01*
X13165309Y-13988976D01*
X13184357Y-13979452D01*
X13193881Y-13960405D01*
X13193881Y-13950881D01*
X13184357Y-13931833D01*
X13165309Y-13922309D01*
X13136738Y-13922309D01*
X13117690Y-13912786D01*
X13108167Y-13893738D01*
X13108167Y-13884214D01*
X13117690Y-13865167D01*
X13136738Y-13855643D01*
X13165309Y-13855643D01*
X13184357Y-13865167D01*
X13308167Y-13988976D02*
X13289119Y-13979452D01*
X13279595Y-13960405D01*
X13279595Y-13788976D01*
X13412928Y-13988976D02*
X13393881Y-13979452D01*
X13384357Y-13969928D01*
X13374833Y-13950881D01*
X13374833Y-13893738D01*
X13384357Y-13874690D01*
X13393881Y-13865167D01*
X13412928Y-13855643D01*
X13441500Y-13855643D01*
X13460548Y-13865167D01*
X13470071Y-13874690D01*
X13479595Y-13893738D01*
X13479595Y-13950881D01*
X13470071Y-13969928D01*
X13460548Y-13979452D01*
X13441500Y-13988976D01*
X13412928Y-13988976D01*
X13536738Y-13855643D02*
X13612928Y-13855643D01*
X13565309Y-13788976D02*
X13565309Y-13960405D01*
X13574833Y-13979452D01*
X13593881Y-13988976D01*
X13612928Y-13988976D01*
X13670071Y-13979452D02*
X13689119Y-13988976D01*
X13727214Y-13988976D01*
X13746262Y-13979452D01*
X13755786Y-13960405D01*
X13755786Y-13950881D01*
X13746262Y-13931833D01*
X13727214Y-13922309D01*
X13698643Y-13922309D01*
X13679595Y-13912786D01*
X13670071Y-13893738D01*
X13670071Y-13884214D01*
X13679595Y-13865167D01*
X13698643Y-13855643D01*
X13727214Y-13855643D01*
X13746262Y-13865167D01*
X13822452Y-14065167D02*
X13831976Y-14055643D01*
X13851024Y-14027071D01*
X13860548Y-14008024D01*
X13870071Y-13979452D01*
X13879595Y-13931833D01*
X13879595Y-13893738D01*
X13870071Y-13846119D01*
X13860548Y-13817548D01*
X13851024Y-13798500D01*
X13831976Y-13769928D01*
X13822452Y-13760405D01*
D16*
X7321500Y-14107500D02*
X7431500Y-14217500D01*
X7431500Y-14107500D02*
X7321500Y-14217500D01*
X7431500Y-14162500D02*
G75*
G03*
X7431500Y-14162500I-55000J0D01*
G01*
D11*
X7793881Y-14252976D02*
X7679595Y-14252976D01*
X7736738Y-14252976D02*
X7736738Y-14052976D01*
X7717690Y-14081548D01*
X7698643Y-14100595D01*
X7679595Y-14110119D01*
X7879595Y-14233928D02*
X7889119Y-14243452D01*
X7879595Y-14252976D01*
X7870071Y-14243452D01*
X7879595Y-14233928D01*
X7879595Y-14252976D01*
X8079595Y-14252976D02*
X7965309Y-14252976D01*
X8022452Y-14252976D02*
X8022452Y-14052976D01*
X8003405Y-14081548D01*
X7984357Y-14100595D01*
X7965309Y-14110119D01*
X8203405Y-14052976D02*
X8222452Y-14052976D01*
X8241500Y-14062500D01*
X8251024Y-14072024D01*
X8260548Y-14091071D01*
X8270071Y-14129167D01*
X8270071Y-14176786D01*
X8260548Y-14214881D01*
X8251024Y-14233928D01*
X8241500Y-14243452D01*
X8222452Y-14252976D01*
X8203405Y-14252976D01*
X8184357Y-14243452D01*
X8174833Y-14233928D01*
X8165309Y-14214881D01*
X8155786Y-14176786D01*
X8155786Y-14129167D01*
X8165309Y-14091071D01*
X8174833Y-14072024D01*
X8184357Y-14062500D01*
X8203405Y-14052976D01*
X8393881Y-14052976D02*
X8412929Y-14052976D01*
X8431976Y-14062500D01*
X8441500Y-14072024D01*
X8451024Y-14091071D01*
X8460548Y-14129167D01*
X8460548Y-14176786D01*
X8451024Y-14214881D01*
X8441500Y-14233928D01*
X8431976Y-14243452D01*
X8412929Y-14252976D01*
X8393881Y-14252976D01*
X8374833Y-14243452D01*
X8365309Y-14233928D01*
X8355786Y-14214881D01*
X8346262Y-14176786D01*
X8346262Y-14129167D01*
X8355786Y-14091071D01*
X8365309Y-14072024D01*
X8374833Y-14062500D01*
X8393881Y-14052976D01*
X8546262Y-14252976D02*
X8546262Y-14119643D01*
X8546262Y-14138690D02*
X8555786Y-14129167D01*
X8574833Y-14119643D01*
X8603405Y-14119643D01*
X8622452Y-14129167D01*
X8631976Y-14148214D01*
X8631976Y-14252976D01*
X8631976Y-14148214D02*
X8641500Y-14129167D01*
X8660548Y-14119643D01*
X8689119Y-14119643D01*
X8708167Y-14129167D01*
X8717690Y-14148214D01*
X8717690Y-14252976D01*
X8812929Y-14252976D02*
X8812929Y-14119643D01*
X8812929Y-14138690D02*
X8822452Y-14129167D01*
X8841500Y-14119643D01*
X8870071Y-14119643D01*
X8889119Y-14129167D01*
X8898643Y-14148214D01*
X8898643Y-14252976D01*
X8898643Y-14148214D02*
X8908167Y-14129167D01*
X8927214Y-14119643D01*
X8955786Y-14119643D01*
X8974833Y-14129167D01*
X8984357Y-14148214D01*
X8984357Y-14252976D01*
X9374833Y-14043452D02*
X9203405Y-14300595D01*
X9631976Y-14052976D02*
X9651024Y-14052976D01*
X9670071Y-14062500D01*
X9679595Y-14072024D01*
X9689119Y-14091071D01*
X9698643Y-14129167D01*
X9698643Y-14176786D01*
X9689119Y-14214881D01*
X9679595Y-14233928D01*
X9670071Y-14243452D01*
X9651024Y-14252976D01*
X9631976Y-14252976D01*
X9612929Y-14243452D01*
X9603405Y-14233928D01*
X9593881Y-14214881D01*
X9584357Y-14176786D01*
X9584357Y-14129167D01*
X9593881Y-14091071D01*
X9603405Y-14072024D01*
X9612929Y-14062500D01*
X9631976Y-14052976D01*
X9784357Y-14233928D02*
X9793881Y-14243452D01*
X9784357Y-14252976D01*
X9774833Y-14243452D01*
X9784357Y-14233928D01*
X9784357Y-14252976D01*
X9917690Y-14052976D02*
X9936738Y-14052976D01*
X9955786Y-14062500D01*
X9965310Y-14072024D01*
X9974833Y-14091071D01*
X9984357Y-14129167D01*
X9984357Y-14176786D01*
X9974833Y-14214881D01*
X9965310Y-14233928D01*
X9955786Y-14243452D01*
X9936738Y-14252976D01*
X9917690Y-14252976D01*
X9898643Y-14243452D01*
X9889119Y-14233928D01*
X9879595Y-14214881D01*
X9870071Y-14176786D01*
X9870071Y-14129167D01*
X9879595Y-14091071D01*
X9889119Y-14072024D01*
X9898643Y-14062500D01*
X9917690Y-14052976D01*
X10155786Y-14119643D02*
X10155786Y-14252976D01*
X10108167Y-14043452D02*
X10060548Y-14186309D01*
X10184357Y-14186309D01*
X10241500Y-14052976D02*
X10365310Y-14052976D01*
X10298643Y-14129167D01*
X10327214Y-14129167D01*
X10346262Y-14138690D01*
X10355786Y-14148214D01*
X10365310Y-14167262D01*
X10365310Y-14214881D01*
X10355786Y-14233928D01*
X10346262Y-14243452D01*
X10327214Y-14252976D01*
X10270071Y-14252976D01*
X10251024Y-14243452D01*
X10241500Y-14233928D01*
X10431976Y-14052976D02*
X10555786Y-14052976D01*
X10489119Y-14129167D01*
X10517690Y-14129167D01*
X10536738Y-14138690D01*
X10546262Y-14148214D01*
X10555786Y-14167262D01*
X10555786Y-14214881D01*
X10546262Y-14233928D01*
X10536738Y-14243452D01*
X10517690Y-14252976D01*
X10460548Y-14252976D01*
X10441500Y-14243452D01*
X10431976Y-14233928D01*
X10631976Y-14052976D02*
X10631976Y-14091071D01*
X10708167Y-14052976D02*
X10708167Y-14091071D01*
X11003405Y-14329167D02*
X10993881Y-14319643D01*
X10974833Y-14291071D01*
X10965310Y-14272024D01*
X10955786Y-14243452D01*
X10946262Y-14195833D01*
X10946262Y-14157738D01*
X10955786Y-14110119D01*
X10965310Y-14081548D01*
X10974833Y-14062500D01*
X10993881Y-14033928D01*
X11003405Y-14024405D01*
X11165310Y-14119643D02*
X11165310Y-14252976D01*
X11117690Y-14043452D02*
X11070071Y-14186309D01*
X11193881Y-14186309D01*
X11422452Y-14252976D02*
X11422452Y-14052976D01*
X11508167Y-14252976D02*
X11508167Y-14148214D01*
X11498643Y-14129167D01*
X11479595Y-14119643D01*
X11451024Y-14119643D01*
X11431976Y-14129167D01*
X11422452Y-14138690D01*
X11631976Y-14252976D02*
X11612928Y-14243452D01*
X11603405Y-14233928D01*
X11593881Y-14214881D01*
X11593881Y-14157738D01*
X11603405Y-14138690D01*
X11612928Y-14129167D01*
X11631976Y-14119643D01*
X11660548Y-14119643D01*
X11679595Y-14129167D01*
X11689119Y-14138690D01*
X11698643Y-14157738D01*
X11698643Y-14214881D01*
X11689119Y-14233928D01*
X11679595Y-14243452D01*
X11660548Y-14252976D01*
X11631976Y-14252976D01*
X11812928Y-14252976D02*
X11793881Y-14243452D01*
X11784357Y-14224405D01*
X11784357Y-14052976D01*
X11965309Y-14243452D02*
X11946262Y-14252976D01*
X11908167Y-14252976D01*
X11889119Y-14243452D01*
X11879595Y-14224405D01*
X11879595Y-14148214D01*
X11889119Y-14129167D01*
X11908167Y-14119643D01*
X11946262Y-14119643D01*
X11965309Y-14129167D01*
X11974833Y-14148214D01*
X11974833Y-14167262D01*
X11879595Y-14186309D01*
X12051024Y-14243452D02*
X12070071Y-14252976D01*
X12108167Y-14252976D01*
X12127214Y-14243452D01*
X12136738Y-14224405D01*
X12136738Y-14214881D01*
X12127214Y-14195833D01*
X12108167Y-14186309D01*
X12079595Y-14186309D01*
X12060548Y-14176786D01*
X12051024Y-14157738D01*
X12051024Y-14148214D01*
X12060548Y-14129167D01*
X12079595Y-14119643D01*
X12108167Y-14119643D01*
X12127214Y-14129167D01*
X12203405Y-14329167D02*
X12212928Y-14319643D01*
X12231976Y-14291071D01*
X12241500Y-14272024D01*
X12251024Y-14243452D01*
X12260548Y-14195833D01*
X12260548Y-14157738D01*
X12251024Y-14110119D01*
X12241500Y-14081548D01*
X12231976Y-14062500D01*
X12212928Y-14033928D01*
X12203405Y-14024405D01*
D17*
X7312500Y-14367000D02*
X7431500Y-14486000D01*
X7431500Y-14367000D02*
X7312500Y-14486000D01*
X7372000Y-14367000D02*
X7372000Y-14486000D01*
X7312500Y-14426500D02*
X7431500Y-14426500D01*
D11*
X7793881Y-14516976D02*
X7679595Y-14516976D01*
X7736738Y-14516976D02*
X7736738Y-14316976D01*
X7717690Y-14345548D01*
X7698643Y-14364595D01*
X7679595Y-14374119D01*
X7879595Y-14497928D02*
X7889119Y-14507452D01*
X7879595Y-14516976D01*
X7870071Y-14507452D01*
X7879595Y-14497928D01*
X7879595Y-14516976D01*
X8079595Y-14516976D02*
X7965309Y-14516976D01*
X8022452Y-14516976D02*
X8022452Y-14316976D01*
X8003405Y-14345548D01*
X7984357Y-14364595D01*
X7965309Y-14374119D01*
X8174833Y-14516976D02*
X8212928Y-14516976D01*
X8231976Y-14507452D01*
X8241500Y-14497928D01*
X8260548Y-14469357D01*
X8270071Y-14431262D01*
X8270071Y-14355071D01*
X8260548Y-14336024D01*
X8251024Y-14326500D01*
X8231976Y-14316976D01*
X8193881Y-14316976D01*
X8174833Y-14326500D01*
X8165309Y-14336024D01*
X8155786Y-14355071D01*
X8155786Y-14402690D01*
X8165309Y-14421738D01*
X8174833Y-14431262D01*
X8193881Y-14440786D01*
X8231976Y-14440786D01*
X8251024Y-14431262D01*
X8260548Y-14421738D01*
X8270071Y-14402690D01*
X8393881Y-14316976D02*
X8412929Y-14316976D01*
X8431976Y-14326500D01*
X8441500Y-14336024D01*
X8451024Y-14355071D01*
X8460548Y-14393167D01*
X8460548Y-14440786D01*
X8451024Y-14478881D01*
X8441500Y-14497928D01*
X8431976Y-14507452D01*
X8412929Y-14516976D01*
X8393881Y-14516976D01*
X8374833Y-14507452D01*
X8365309Y-14497928D01*
X8355786Y-14478881D01*
X8346262Y-14440786D01*
X8346262Y-14393167D01*
X8355786Y-14355071D01*
X8365309Y-14336024D01*
X8374833Y-14326500D01*
X8393881Y-14316976D01*
X8546262Y-14516976D02*
X8546262Y-14383643D01*
X8546262Y-14402690D02*
X8555786Y-14393167D01*
X8574833Y-14383643D01*
X8603405Y-14383643D01*
X8622452Y-14393167D01*
X8631976Y-14412214D01*
X8631976Y-14516976D01*
X8631976Y-14412214D02*
X8641500Y-14393167D01*
X8660548Y-14383643D01*
X8689119Y-14383643D01*
X8708167Y-14393167D01*
X8717690Y-14412214D01*
X8717690Y-14516976D01*
X8812929Y-14516976D02*
X8812929Y-14383643D01*
X8812929Y-14402690D02*
X8822452Y-14393167D01*
X8841500Y-14383643D01*
X8870071Y-14383643D01*
X8889119Y-14393167D01*
X8898643Y-14412214D01*
X8898643Y-14516976D01*
X8898643Y-14412214D02*
X8908167Y-14393167D01*
X8927214Y-14383643D01*
X8955786Y-14383643D01*
X8974833Y-14393167D01*
X8984357Y-14412214D01*
X8984357Y-14516976D01*
X9374833Y-14307452D02*
X9203405Y-14564595D01*
X9631976Y-14316976D02*
X9651024Y-14316976D01*
X9670071Y-14326500D01*
X9679595Y-14336024D01*
X9689119Y-14355071D01*
X9698643Y-14393167D01*
X9698643Y-14440786D01*
X9689119Y-14478881D01*
X9679595Y-14497928D01*
X9670071Y-14507452D01*
X9651024Y-14516976D01*
X9631976Y-14516976D01*
X9612929Y-14507452D01*
X9603405Y-14497928D01*
X9593881Y-14478881D01*
X9584357Y-14440786D01*
X9584357Y-14393167D01*
X9593881Y-14355071D01*
X9603405Y-14336024D01*
X9612929Y-14326500D01*
X9631976Y-14316976D01*
X9784357Y-14497928D02*
X9793881Y-14507452D01*
X9784357Y-14516976D01*
X9774833Y-14507452D01*
X9784357Y-14497928D01*
X9784357Y-14516976D01*
X9917690Y-14316976D02*
X9936738Y-14316976D01*
X9955786Y-14326500D01*
X9965310Y-14336024D01*
X9974833Y-14355071D01*
X9984357Y-14393167D01*
X9984357Y-14440786D01*
X9974833Y-14478881D01*
X9965310Y-14497928D01*
X9955786Y-14507452D01*
X9936738Y-14516976D01*
X9917690Y-14516976D01*
X9898643Y-14507452D01*
X9889119Y-14497928D01*
X9879595Y-14478881D01*
X9870071Y-14440786D01*
X9870071Y-14393167D01*
X9879595Y-14355071D01*
X9889119Y-14336024D01*
X9898643Y-14326500D01*
X9917690Y-14316976D01*
X10155786Y-14383643D02*
X10155786Y-14516976D01*
X10108167Y-14307452D02*
X10060548Y-14450309D01*
X10184357Y-14450309D01*
X10346262Y-14316976D02*
X10308167Y-14316976D01*
X10289119Y-14326500D01*
X10279595Y-14336024D01*
X10260548Y-14364595D01*
X10251024Y-14402690D01*
X10251024Y-14478881D01*
X10260548Y-14497928D01*
X10270071Y-14507452D01*
X10289119Y-14516976D01*
X10327214Y-14516976D01*
X10346262Y-14507452D01*
X10355786Y-14497928D01*
X10365310Y-14478881D01*
X10365310Y-14431262D01*
X10355786Y-14412214D01*
X10346262Y-14402690D01*
X10327214Y-14393167D01*
X10289119Y-14393167D01*
X10270071Y-14402690D01*
X10260548Y-14412214D01*
X10251024Y-14431262D01*
X10460548Y-14516976D02*
X10498643Y-14516976D01*
X10517690Y-14507452D01*
X10527214Y-14497928D01*
X10546262Y-14469357D01*
X10555786Y-14431262D01*
X10555786Y-14355071D01*
X10546262Y-14336024D01*
X10536738Y-14326500D01*
X10517690Y-14316976D01*
X10479595Y-14316976D01*
X10460548Y-14326500D01*
X10451024Y-14336024D01*
X10441500Y-14355071D01*
X10441500Y-14402690D01*
X10451024Y-14421738D01*
X10460548Y-14431262D01*
X10479595Y-14440786D01*
X10517690Y-14440786D01*
X10536738Y-14431262D01*
X10546262Y-14421738D01*
X10555786Y-14402690D01*
X10631976Y-14316976D02*
X10631976Y-14355071D01*
X10708167Y-14316976D02*
X10708167Y-14355071D01*
X11003405Y-14593167D02*
X10993881Y-14583643D01*
X10974833Y-14555071D01*
X10965310Y-14536024D01*
X10955786Y-14507452D01*
X10946262Y-14459833D01*
X10946262Y-14421738D01*
X10955786Y-14374119D01*
X10965310Y-14345548D01*
X10974833Y-14326500D01*
X10993881Y-14297928D01*
X11003405Y-14288405D01*
X11070071Y-14336024D02*
X11079595Y-14326500D01*
X11098643Y-14316976D01*
X11146262Y-14316976D01*
X11165310Y-14326500D01*
X11174833Y-14336024D01*
X11184357Y-14355071D01*
X11184357Y-14374119D01*
X11174833Y-14402690D01*
X11060548Y-14516976D01*
X11184357Y-14516976D01*
X11260548Y-14336024D02*
X11270071Y-14326500D01*
X11289119Y-14316976D01*
X11336738Y-14316976D01*
X11355786Y-14326500D01*
X11365309Y-14336024D01*
X11374833Y-14355071D01*
X11374833Y-14374119D01*
X11365309Y-14402690D01*
X11251024Y-14516976D01*
X11374833Y-14516976D01*
X11612928Y-14516976D02*
X11612928Y-14316976D01*
X11698643Y-14516976D02*
X11698643Y-14412214D01*
X11689119Y-14393167D01*
X11670071Y-14383643D01*
X11641500Y-14383643D01*
X11622452Y-14393167D01*
X11612928Y-14402690D01*
X11822452Y-14516976D02*
X11803405Y-14507452D01*
X11793881Y-14497928D01*
X11784357Y-14478881D01*
X11784357Y-14421738D01*
X11793881Y-14402690D01*
X11803405Y-14393167D01*
X11822452Y-14383643D01*
X11851024Y-14383643D01*
X11870071Y-14393167D01*
X11879595Y-14402690D01*
X11889119Y-14421738D01*
X11889119Y-14478881D01*
X11879595Y-14497928D01*
X11870071Y-14507452D01*
X11851024Y-14516976D01*
X11822452Y-14516976D01*
X12003405Y-14516976D02*
X11984357Y-14507452D01*
X11974833Y-14488405D01*
X11974833Y-14316976D01*
X12155786Y-14507452D02*
X12136738Y-14516976D01*
X12098643Y-14516976D01*
X12079595Y-14507452D01*
X12070071Y-14488405D01*
X12070071Y-14412214D01*
X12079595Y-14393167D01*
X12098643Y-14383643D01*
X12136738Y-14383643D01*
X12155786Y-14393167D01*
X12165309Y-14412214D01*
X12165309Y-14431262D01*
X12070071Y-14450309D01*
X12241500Y-14507452D02*
X12260548Y-14516976D01*
X12298643Y-14516976D01*
X12317690Y-14507452D01*
X12327214Y-14488405D01*
X12327214Y-14478881D01*
X12317690Y-14459833D01*
X12298643Y-14450309D01*
X12270071Y-14450309D01*
X12251024Y-14440786D01*
X12241500Y-14421738D01*
X12241500Y-14412214D01*
X12251024Y-14393167D01*
X12270071Y-14383643D01*
X12298643Y-14383643D01*
X12317690Y-14393167D01*
X12393881Y-14593167D02*
X12403405Y-14583643D01*
X12422452Y-14555071D01*
X12431976Y-14536024D01*
X12441500Y-14507452D01*
X12451024Y-14459833D01*
X12451024Y-14421738D01*
X12441500Y-14374119D01*
X12431976Y-14345548D01*
X12422452Y-14326500D01*
X12403405Y-14297928D01*
X12393881Y-14288405D01*
X7231500Y-14590500D02*
X7431500Y-14790500D01*
X7431500Y-14590500D02*
X7231500Y-14790500D01*
X7402211Y-14761211D02*
X7402211Y-14619789D01*
X7260789Y-14619789D01*
X7260789Y-14761211D01*
X7402211Y-14761211D01*
X7679595Y-14600024D02*
X7689119Y-14590500D01*
X7708167Y-14580976D01*
X7755786Y-14580976D01*
X7774833Y-14590500D01*
X7784357Y-14600024D01*
X7793881Y-14619071D01*
X7793881Y-14638119D01*
X7784357Y-14666690D01*
X7670071Y-14780976D01*
X7793881Y-14780976D01*
X7879595Y-14761928D02*
X7889119Y-14771452D01*
X7879595Y-14780976D01*
X7870071Y-14771452D01*
X7879595Y-14761928D01*
X7879595Y-14780976D01*
X7955786Y-14580976D02*
X8079595Y-14580976D01*
X8012928Y-14657167D01*
X8041500Y-14657167D01*
X8060548Y-14666690D01*
X8070071Y-14676214D01*
X8079595Y-14695262D01*
X8079595Y-14742881D01*
X8070071Y-14761928D01*
X8060548Y-14771452D01*
X8041500Y-14780976D01*
X7984357Y-14780976D01*
X7965309Y-14771452D01*
X7955786Y-14761928D01*
X8203405Y-14580976D02*
X8222452Y-14580976D01*
X8241500Y-14590500D01*
X8251024Y-14600024D01*
X8260548Y-14619071D01*
X8270071Y-14657167D01*
X8270071Y-14704786D01*
X8260548Y-14742881D01*
X8251024Y-14761928D01*
X8241500Y-14771452D01*
X8222452Y-14780976D01*
X8203405Y-14780976D01*
X8184357Y-14771452D01*
X8174833Y-14761928D01*
X8165309Y-14742881D01*
X8155786Y-14704786D01*
X8155786Y-14657167D01*
X8165309Y-14619071D01*
X8174833Y-14600024D01*
X8184357Y-14590500D01*
X8203405Y-14580976D01*
X8393881Y-14580976D02*
X8412929Y-14580976D01*
X8431976Y-14590500D01*
X8441500Y-14600024D01*
X8451024Y-14619071D01*
X8460548Y-14657167D01*
X8460548Y-14704786D01*
X8451024Y-14742881D01*
X8441500Y-14761928D01*
X8431976Y-14771452D01*
X8412929Y-14780976D01*
X8393881Y-14780976D01*
X8374833Y-14771452D01*
X8365309Y-14761928D01*
X8355786Y-14742881D01*
X8346262Y-14704786D01*
X8346262Y-14657167D01*
X8355786Y-14619071D01*
X8365309Y-14600024D01*
X8374833Y-14590500D01*
X8393881Y-14580976D01*
X8546262Y-14780976D02*
X8546262Y-14647643D01*
X8546262Y-14666690D02*
X8555786Y-14657167D01*
X8574833Y-14647643D01*
X8603405Y-14647643D01*
X8622452Y-14657167D01*
X8631976Y-14676214D01*
X8631976Y-14780976D01*
X8631976Y-14676214D02*
X8641500Y-14657167D01*
X8660548Y-14647643D01*
X8689119Y-14647643D01*
X8708167Y-14657167D01*
X8717690Y-14676214D01*
X8717690Y-14780976D01*
X8812929Y-14780976D02*
X8812929Y-14647643D01*
X8812929Y-14666690D02*
X8822452Y-14657167D01*
X8841500Y-14647643D01*
X8870071Y-14647643D01*
X8889119Y-14657167D01*
X8898643Y-14676214D01*
X8898643Y-14780976D01*
X8898643Y-14676214D02*
X8908167Y-14657167D01*
X8927214Y-14647643D01*
X8955786Y-14647643D01*
X8974833Y-14657167D01*
X8984357Y-14676214D01*
X8984357Y-14780976D01*
X9374833Y-14571452D02*
X9203405Y-14828595D01*
X9631976Y-14580976D02*
X9651024Y-14580976D01*
X9670071Y-14590500D01*
X9679595Y-14600024D01*
X9689119Y-14619071D01*
X9698643Y-14657167D01*
X9698643Y-14704786D01*
X9689119Y-14742881D01*
X9679595Y-14761928D01*
X9670071Y-14771452D01*
X9651024Y-14780976D01*
X9631976Y-14780976D01*
X9612929Y-14771452D01*
X9603405Y-14761928D01*
X9593881Y-14742881D01*
X9584357Y-14704786D01*
X9584357Y-14657167D01*
X9593881Y-14619071D01*
X9603405Y-14600024D01*
X9612929Y-14590500D01*
X9631976Y-14580976D01*
X9784357Y-14761928D02*
X9793881Y-14771452D01*
X9784357Y-14780976D01*
X9774833Y-14771452D01*
X9784357Y-14761928D01*
X9784357Y-14780976D01*
X9917690Y-14580976D02*
X9936738Y-14580976D01*
X9955786Y-14590500D01*
X9965310Y-14600024D01*
X9974833Y-14619071D01*
X9984357Y-14657167D01*
X9984357Y-14704786D01*
X9974833Y-14742881D01*
X9965310Y-14761928D01*
X9955786Y-14771452D01*
X9936738Y-14780976D01*
X9917690Y-14780976D01*
X9898643Y-14771452D01*
X9889119Y-14761928D01*
X9879595Y-14742881D01*
X9870071Y-14704786D01*
X9870071Y-14657167D01*
X9879595Y-14619071D01*
X9889119Y-14600024D01*
X9898643Y-14590500D01*
X9917690Y-14580976D01*
X10079595Y-14780976D02*
X10117690Y-14780976D01*
X10136738Y-14771452D01*
X10146262Y-14761928D01*
X10165310Y-14733357D01*
X10174833Y-14695262D01*
X10174833Y-14619071D01*
X10165310Y-14600024D01*
X10155786Y-14590500D01*
X10136738Y-14580976D01*
X10098643Y-14580976D01*
X10079595Y-14590500D01*
X10070071Y-14600024D01*
X10060548Y-14619071D01*
X10060548Y-14666690D01*
X10070071Y-14685738D01*
X10079595Y-14695262D01*
X10098643Y-14704786D01*
X10136738Y-14704786D01*
X10155786Y-14695262D01*
X10165310Y-14685738D01*
X10174833Y-14666690D01*
X10298643Y-14580976D02*
X10317690Y-14580976D01*
X10336738Y-14590500D01*
X10346262Y-14600024D01*
X10355786Y-14619071D01*
X10365310Y-14657167D01*
X10365310Y-14704786D01*
X10355786Y-14742881D01*
X10346262Y-14761928D01*
X10336738Y-14771452D01*
X10317690Y-14780976D01*
X10298643Y-14780976D01*
X10279595Y-14771452D01*
X10270071Y-14761928D01*
X10260548Y-14742881D01*
X10251024Y-14704786D01*
X10251024Y-14657167D01*
X10260548Y-14619071D01*
X10270071Y-14600024D01*
X10279595Y-14590500D01*
X10298643Y-14580976D01*
X10536738Y-14580976D02*
X10498643Y-14580976D01*
X10479595Y-14590500D01*
X10470071Y-14600024D01*
X10451024Y-14628595D01*
X10441500Y-14666690D01*
X10441500Y-14742881D01*
X10451024Y-14761928D01*
X10460548Y-14771452D01*
X10479595Y-14780976D01*
X10517690Y-14780976D01*
X10536738Y-14771452D01*
X10546262Y-14761928D01*
X10555786Y-14742881D01*
X10555786Y-14695262D01*
X10546262Y-14676214D01*
X10536738Y-14666690D01*
X10517690Y-14657167D01*
X10479595Y-14657167D01*
X10460548Y-14666690D01*
X10451024Y-14676214D01*
X10441500Y-14695262D01*
X10631976Y-14580976D02*
X10631976Y-14619071D01*
X10708167Y-14580976D02*
X10708167Y-14619071D01*
X11003405Y-14857167D02*
X10993881Y-14847643D01*
X10974833Y-14819071D01*
X10965310Y-14800024D01*
X10955786Y-14771452D01*
X10946262Y-14723833D01*
X10946262Y-14685738D01*
X10955786Y-14638119D01*
X10965310Y-14609548D01*
X10974833Y-14590500D01*
X10993881Y-14561928D01*
X11003405Y-14552405D01*
X11165310Y-14580976D02*
X11127214Y-14580976D01*
X11108167Y-14590500D01*
X11098643Y-14600024D01*
X11079595Y-14628595D01*
X11070071Y-14666690D01*
X11070071Y-14742881D01*
X11079595Y-14761928D01*
X11089119Y-14771452D01*
X11108167Y-14780976D01*
X11146262Y-14780976D01*
X11165310Y-14771452D01*
X11174833Y-14761928D01*
X11184357Y-14742881D01*
X11184357Y-14695262D01*
X11174833Y-14676214D01*
X11165310Y-14666690D01*
X11146262Y-14657167D01*
X11108167Y-14657167D01*
X11089119Y-14666690D01*
X11079595Y-14676214D01*
X11070071Y-14695262D01*
X11422452Y-14780976D02*
X11422452Y-14580976D01*
X11508167Y-14780976D02*
X11508167Y-14676214D01*
X11498643Y-14657167D01*
X11479595Y-14647643D01*
X11451024Y-14647643D01*
X11431976Y-14657167D01*
X11422452Y-14666690D01*
X11631976Y-14780976D02*
X11612928Y-14771452D01*
X11603405Y-14761928D01*
X11593881Y-14742881D01*
X11593881Y-14685738D01*
X11603405Y-14666690D01*
X11612928Y-14657167D01*
X11631976Y-14647643D01*
X11660548Y-14647643D01*
X11679595Y-14657167D01*
X11689119Y-14666690D01*
X11698643Y-14685738D01*
X11698643Y-14742881D01*
X11689119Y-14761928D01*
X11679595Y-14771452D01*
X11660548Y-14780976D01*
X11631976Y-14780976D01*
X11812928Y-14780976D02*
X11793881Y-14771452D01*
X11784357Y-14752405D01*
X11784357Y-14580976D01*
X11965309Y-14771452D02*
X11946262Y-14780976D01*
X11908167Y-14780976D01*
X11889119Y-14771452D01*
X11879595Y-14752405D01*
X11879595Y-14676214D01*
X11889119Y-14657167D01*
X11908167Y-14647643D01*
X11946262Y-14647643D01*
X11965309Y-14657167D01*
X11974833Y-14676214D01*
X11974833Y-14695262D01*
X11879595Y-14714309D01*
X12051024Y-14771452D02*
X12070071Y-14780976D01*
X12108167Y-14780976D01*
X12127214Y-14771452D01*
X12136738Y-14752405D01*
X12136738Y-14742881D01*
X12127214Y-14723833D01*
X12108167Y-14714309D01*
X12079595Y-14714309D01*
X12060548Y-14704786D01*
X12051024Y-14685738D01*
X12051024Y-14676214D01*
X12060548Y-14657167D01*
X12079595Y-14647643D01*
X12108167Y-14647643D01*
X12127214Y-14657167D01*
X12203405Y-14857167D02*
X12212928Y-14847643D01*
X12231976Y-14819071D01*
X12241500Y-14800024D01*
X12251024Y-14771452D01*
X12260548Y-14723833D01*
X12260548Y-14685738D01*
X12251024Y-14638119D01*
X12241500Y-14609548D01*
X12231976Y-14590500D01*
X12212928Y-14561928D01*
X12203405Y-14552405D01*
X7231500Y-14910500D02*
X7431500Y-15110500D01*
X7431500Y-14910500D02*
X7231500Y-15110500D01*
X7331500Y-15110500D02*
X7431500Y-15010500D01*
X7331500Y-14910500D01*
X7231500Y-15010500D01*
X7331500Y-15110500D01*
X7670071Y-14900976D02*
X7793881Y-14900976D01*
X7727214Y-14977167D01*
X7755786Y-14977167D01*
X7774833Y-14986690D01*
X7784357Y-14996214D01*
X7793881Y-15015262D01*
X7793881Y-15062881D01*
X7784357Y-15081928D01*
X7774833Y-15091452D01*
X7755786Y-15100976D01*
X7698643Y-15100976D01*
X7679595Y-15091452D01*
X7670071Y-15081928D01*
X7879595Y-15081928D02*
X7889119Y-15091452D01*
X7879595Y-15100976D01*
X7870071Y-15091452D01*
X7879595Y-15081928D01*
X7879595Y-15100976D01*
X8070071Y-14900976D02*
X7974833Y-14900976D01*
X7965309Y-14996214D01*
X7974833Y-14986690D01*
X7993881Y-14977167D01*
X8041500Y-14977167D01*
X8060548Y-14986690D01*
X8070071Y-14996214D01*
X8079595Y-15015262D01*
X8079595Y-15062881D01*
X8070071Y-15081928D01*
X8060548Y-15091452D01*
X8041500Y-15100976D01*
X7993881Y-15100976D01*
X7974833Y-15091452D01*
X7965309Y-15081928D01*
X8203405Y-14900976D02*
X8222452Y-14900976D01*
X8241500Y-14910500D01*
X8251024Y-14920024D01*
X8260548Y-14939071D01*
X8270071Y-14977167D01*
X8270071Y-15024786D01*
X8260548Y-15062881D01*
X8251024Y-15081928D01*
X8241500Y-15091452D01*
X8222452Y-15100976D01*
X8203405Y-15100976D01*
X8184357Y-15091452D01*
X8174833Y-15081928D01*
X8165309Y-15062881D01*
X8155786Y-15024786D01*
X8155786Y-14977167D01*
X8165309Y-14939071D01*
X8174833Y-14920024D01*
X8184357Y-14910500D01*
X8203405Y-14900976D01*
X8393881Y-14900976D02*
X8412929Y-14900976D01*
X8431976Y-14910500D01*
X8441500Y-14920024D01*
X8451024Y-14939071D01*
X8460548Y-14977167D01*
X8460548Y-15024786D01*
X8451024Y-15062881D01*
X8441500Y-15081928D01*
X8431976Y-15091452D01*
X8412929Y-15100976D01*
X8393881Y-15100976D01*
X8374833Y-15091452D01*
X8365309Y-15081928D01*
X8355786Y-15062881D01*
X8346262Y-15024786D01*
X8346262Y-14977167D01*
X8355786Y-14939071D01*
X8365309Y-14920024D01*
X8374833Y-14910500D01*
X8393881Y-14900976D01*
X8546262Y-15100976D02*
X8546262Y-14967643D01*
X8546262Y-14986690D02*
X8555786Y-14977167D01*
X8574833Y-14967643D01*
X8603405Y-14967643D01*
X8622452Y-14977167D01*
X8631976Y-14996214D01*
X8631976Y-15100976D01*
X8631976Y-14996214D02*
X8641500Y-14977167D01*
X8660548Y-14967643D01*
X8689119Y-14967643D01*
X8708167Y-14977167D01*
X8717690Y-14996214D01*
X8717690Y-15100976D01*
X8812929Y-15100976D02*
X8812929Y-14967643D01*
X8812929Y-14986690D02*
X8822452Y-14977167D01*
X8841500Y-14967643D01*
X8870071Y-14967643D01*
X8889119Y-14977167D01*
X8898643Y-14996214D01*
X8898643Y-15100976D01*
X8898643Y-14996214D02*
X8908167Y-14977167D01*
X8927214Y-14967643D01*
X8955786Y-14967643D01*
X8974833Y-14977167D01*
X8984357Y-14996214D01*
X8984357Y-15100976D01*
X9374833Y-14891452D02*
X9203405Y-15148595D01*
X9631976Y-14900976D02*
X9651024Y-14900976D01*
X9670071Y-14910500D01*
X9679595Y-14920024D01*
X9689119Y-14939071D01*
X9698643Y-14977167D01*
X9698643Y-15024786D01*
X9689119Y-15062881D01*
X9679595Y-15081928D01*
X9670071Y-15091452D01*
X9651024Y-15100976D01*
X9631976Y-15100976D01*
X9612929Y-15091452D01*
X9603405Y-15081928D01*
X9593881Y-15062881D01*
X9584357Y-15024786D01*
X9584357Y-14977167D01*
X9593881Y-14939071D01*
X9603405Y-14920024D01*
X9612929Y-14910500D01*
X9631976Y-14900976D01*
X9784357Y-15081928D02*
X9793881Y-15091452D01*
X9784357Y-15100976D01*
X9774833Y-15091452D01*
X9784357Y-15081928D01*
X9784357Y-15100976D01*
X9984357Y-15100976D02*
X9870071Y-15100976D01*
X9927214Y-15100976D02*
X9927214Y-14900976D01*
X9908167Y-14929548D01*
X9889119Y-14948595D01*
X9870071Y-14958119D01*
X10051024Y-14900976D02*
X10174833Y-14900976D01*
X10108167Y-14977167D01*
X10136738Y-14977167D01*
X10155786Y-14986690D01*
X10165310Y-14996214D01*
X10174833Y-15015262D01*
X10174833Y-15062881D01*
X10165310Y-15081928D01*
X10155786Y-15091452D01*
X10136738Y-15100976D01*
X10079595Y-15100976D01*
X10060548Y-15091452D01*
X10051024Y-15081928D01*
X10241500Y-14900976D02*
X10374833Y-14900976D01*
X10289119Y-15100976D01*
X10479595Y-14986690D02*
X10460548Y-14977167D01*
X10451024Y-14967643D01*
X10441500Y-14948595D01*
X10441500Y-14939071D01*
X10451024Y-14920024D01*
X10460548Y-14910500D01*
X10479595Y-14900976D01*
X10517690Y-14900976D01*
X10536738Y-14910500D01*
X10546262Y-14920024D01*
X10555786Y-14939071D01*
X10555786Y-14948595D01*
X10546262Y-14967643D01*
X10536738Y-14977167D01*
X10517690Y-14986690D01*
X10479595Y-14986690D01*
X10460548Y-14996214D01*
X10451024Y-15005738D01*
X10441500Y-15024786D01*
X10441500Y-15062881D01*
X10451024Y-15081928D01*
X10460548Y-15091452D01*
X10479595Y-15100976D01*
X10517690Y-15100976D01*
X10536738Y-15091452D01*
X10546262Y-15081928D01*
X10555786Y-15062881D01*
X10555786Y-15024786D01*
X10546262Y-15005738D01*
X10536738Y-14996214D01*
X10517690Y-14986690D01*
X10631976Y-14900976D02*
X10631976Y-14939071D01*
X10708167Y-14900976D02*
X10708167Y-14939071D01*
X11003405Y-15177167D02*
X10993881Y-15167643D01*
X10974833Y-15139071D01*
X10965310Y-15120024D01*
X10955786Y-15091452D01*
X10946262Y-15043833D01*
X10946262Y-15005738D01*
X10955786Y-14958119D01*
X10965310Y-14929548D01*
X10974833Y-14910500D01*
X10993881Y-14881928D01*
X11003405Y-14872405D01*
X11070071Y-14920024D02*
X11079595Y-14910500D01*
X11098643Y-14900976D01*
X11146262Y-14900976D01*
X11165310Y-14910500D01*
X11174833Y-14920024D01*
X11184357Y-14939071D01*
X11184357Y-14958119D01*
X11174833Y-14986690D01*
X11060548Y-15100976D01*
X11184357Y-15100976D01*
X11422452Y-15100976D02*
X11422452Y-14900976D01*
X11508167Y-15100976D02*
X11508167Y-14996214D01*
X11498643Y-14977167D01*
X11479595Y-14967643D01*
X11451024Y-14967643D01*
X11431976Y-14977167D01*
X11422452Y-14986690D01*
X11631976Y-15100976D02*
X11612928Y-15091452D01*
X11603405Y-15081928D01*
X11593881Y-15062881D01*
X11593881Y-15005738D01*
X11603405Y-14986690D01*
X11612928Y-14977167D01*
X11631976Y-14967643D01*
X11660548Y-14967643D01*
X11679595Y-14977167D01*
X11689119Y-14986690D01*
X11698643Y-15005738D01*
X11698643Y-15062881D01*
X11689119Y-15081928D01*
X11679595Y-15091452D01*
X11660548Y-15100976D01*
X11631976Y-15100976D01*
X11812928Y-15100976D02*
X11793881Y-15091452D01*
X11784357Y-15072405D01*
X11784357Y-14900976D01*
X11965309Y-15091452D02*
X11946262Y-15100976D01*
X11908167Y-15100976D01*
X11889119Y-15091452D01*
X11879595Y-15072405D01*
X11879595Y-14996214D01*
X11889119Y-14977167D01*
X11908167Y-14967643D01*
X11946262Y-14967643D01*
X11965309Y-14977167D01*
X11974833Y-14996214D01*
X11974833Y-15015262D01*
X11879595Y-15034309D01*
X12051024Y-15091452D02*
X12070071Y-15100976D01*
X12108167Y-15100976D01*
X12127214Y-15091452D01*
X12136738Y-15072405D01*
X12136738Y-15062881D01*
X12127214Y-15043833D01*
X12108167Y-15034309D01*
X12079595Y-15034309D01*
X12060548Y-15024786D01*
X12051024Y-15005738D01*
X12051024Y-14996214D01*
X12060548Y-14977167D01*
X12079595Y-14967643D01*
X12108167Y-14967643D01*
X12127214Y-14977167D01*
X12203405Y-15177167D02*
X12212928Y-15167643D01*
X12231976Y-15139071D01*
X12241500Y-15120024D01*
X12251024Y-15091452D01*
X12260548Y-15043833D01*
X12260548Y-15005738D01*
X12251024Y-14958119D01*
X12241500Y-14929548D01*
X12231976Y-14910500D01*
X12212928Y-14881928D01*
X12203405Y-14872405D01*
M02*
