G04 #@! TF.GenerationSoftware,KiCad,Pcbnew,6.0.0-rc2*
G04 #@! TF.CreationDate,2022-07-08T10:42:51-07:00*
G04 #@! TF.ProjectId,rp2040_encoder,72703230-3430-45f6-956e-636f6465722e,rev?*
G04 #@! TF.SameCoordinates,Original*
G04 #@! TF.FileFunction,Copper,L1,Top*
G04 #@! TF.FilePolarity,Positive*
%FSLAX46Y46*%
G04 Gerber Fmt 4.6, Leading zero omitted, Abs format (unit mm)*
G04 Created by KiCad (PCBNEW 6.0.0-rc2) date 2022-07-08 10:42:51*
%MOMM*%
%LPD*%
G01*
G04 APERTURE LIST*
G04 Aperture macros list*
%AMRoundRect*
0 Rectangle with rounded corners*
0 $1 Rounding radius*
0 $2 $3 $4 $5 $6 $7 $8 $9 X,Y pos of 4 corners*
0 Add a 4 corners polygon primitive as box body*
4,1,4,$2,$3,$4,$5,$6,$7,$8,$9,$2,$3,0*
0 Add four circle primitives for the rounded corners*
1,1,$1+$1,$2,$3*
1,1,$1+$1,$4,$5*
1,1,$1+$1,$6,$7*
1,1,$1+$1,$8,$9*
0 Add four rect primitives between the rounded corners*
20,1,$1+$1,$2,$3,$4,$5,0*
20,1,$1+$1,$4,$5,$6,$7,0*
20,1,$1+$1,$6,$7,$8,$9,0*
20,1,$1+$1,$8,$9,$2,$3,0*%
%AMHorizOval*
0 Thick line with rounded ends*
0 $1 width*
0 $2 $3 position (X,Y) of the first rounded end (center of the circle)*
0 $4 $5 position (X,Y) of the second rounded end (center of the circle)*
0 Add line between two ends*
20,1,$1,$2,$3,$4,$5,0*
0 Add two circle primitives to create the rounded ends*
1,1,$1,$2,$3*
1,1,$1,$4,$5*%
%AMRotRect*
0 Rectangle, with rotation*
0 The origin of the aperture is its center*
0 $1 length*
0 $2 width*
0 $3 Rotation angle, in degrees counterclockwise*
0 Add horizontal line*
21,1,$1,$2,0,0,$3*%
%AMFreePoly0*
4,1,22,0.550000,-0.750000,0.000000,-0.750000,0.000000,-0.745033,-0.079941,-0.743568,-0.215256,-0.701293,-0.333266,-0.622738,-0.424486,-0.514219,-0.481581,-0.384460,-0.499164,-0.250000,-0.500000,-0.250000,-0.500000,0.250000,-0.499164,0.250000,-0.499963,0.256109,-0.478152,0.396186,-0.417904,0.524511,-0.324060,0.630769,-0.204165,0.706417,-0.067858,0.745374,0.000000,0.744959,0.000000,0.750000,
0.550000,0.750000,0.550000,-0.750000,0.550000,-0.750000,$1*%
%AMFreePoly1*
4,1,20,0.000000,0.744959,0.073905,0.744508,0.209726,0.703889,0.328688,0.626782,0.421226,0.519385,0.479903,0.390333,0.500000,0.250000,0.500000,-0.250000,0.499851,-0.262216,0.476331,-0.402017,0.414519,-0.529596,0.319384,-0.634700,0.198574,-0.708877,0.061801,-0.746166,0.000000,-0.745033,0.000000,-0.750000,-0.550000,-0.750000,-0.550000,0.750000,0.000000,0.750000,0.000000,0.744959,
0.000000,0.744959,$1*%
%AMFreePoly2*
4,1,22,0.500000,-0.750000,0.000000,-0.750000,0.000000,-0.745033,-0.079941,-0.743568,-0.215256,-0.701293,-0.333266,-0.622738,-0.424486,-0.514219,-0.481581,-0.384460,-0.499164,-0.250000,-0.500000,-0.250000,-0.500000,0.250000,-0.499164,0.250000,-0.499963,0.256109,-0.478152,0.396186,-0.417904,0.524511,-0.324060,0.630769,-0.204165,0.706417,-0.067858,0.745374,0.000000,0.744959,0.000000,0.750000,
0.500000,0.750000,0.500000,-0.750000,0.500000,-0.750000,$1*%
%AMFreePoly3*
4,1,20,0.000000,0.744959,0.073905,0.744508,0.209726,0.703889,0.328688,0.626782,0.421226,0.519385,0.479903,0.390333,0.500000,0.250000,0.500000,-0.250000,0.499851,-0.262216,0.476331,-0.402017,0.414519,-0.529596,0.319384,-0.634700,0.198574,-0.708877,0.061801,-0.746166,0.000000,-0.745033,0.000000,-0.750000,-0.500000,-0.750000,-0.500000,0.750000,0.000000,0.750000,0.000000,0.744959,
0.000000,0.744959,$1*%
G04 Aperture macros list end*
G04 #@! TA.AperFunction,SMDPad,CuDef*
%ADD10FreePoly0,0.000000*%
G04 #@! TD*
G04 #@! TA.AperFunction,SMDPad,CuDef*
%ADD11R,1.000000X1.500000*%
G04 #@! TD*
G04 #@! TA.AperFunction,SMDPad,CuDef*
%ADD12FreePoly1,0.000000*%
G04 #@! TD*
G04 #@! TA.AperFunction,ComponentPad*
%ADD13HorizOval,1.740000X-0.141602X0.181242X0.141602X-0.181242X0*%
G04 #@! TD*
G04 #@! TA.AperFunction,ComponentPad*
%ADD14RotRect,1.740000X2.200000X218.000000*%
G04 #@! TD*
G04 #@! TA.AperFunction,SMDPad,CuDef*
%ADD15RoundRect,0.225000X0.250000X-0.225000X0.250000X0.225000X-0.250000X0.225000X-0.250000X-0.225000X0*%
G04 #@! TD*
G04 #@! TA.AperFunction,SMDPad,CuDef*
%ADD16FreePoly2,0.000000*%
G04 #@! TD*
G04 #@! TA.AperFunction,SMDPad,CuDef*
%ADD17FreePoly3,0.000000*%
G04 #@! TD*
G04 #@! TA.AperFunction,SMDPad,CuDef*
%ADD18R,1.100000X1.100000*%
G04 #@! TD*
G04 #@! TA.AperFunction,SMDPad,CuDef*
%ADD19RoundRect,0.225000X-0.250000X0.225000X-0.250000X-0.225000X0.250000X-0.225000X0.250000X0.225000X0*%
G04 #@! TD*
G04 #@! TA.AperFunction,SMDPad,CuDef*
%ADD20RoundRect,0.150000X-0.725000X-0.150000X0.725000X-0.150000X0.725000X0.150000X-0.725000X0.150000X0*%
G04 #@! TD*
G04 #@! TA.AperFunction,ViaPad*
%ADD21C,0.800000*%
G04 #@! TD*
G04 #@! TA.AperFunction,Conductor*
%ADD22C,0.250000*%
G04 #@! TD*
G04 APERTURE END LIST*
D10*
X155200000Y-98500000D03*
D11*
X156500000Y-98500000D03*
D12*
X157800000Y-98500000D03*
D13*
X136073811Y-93255121D03*
X138075358Y-91691340D03*
X140076905Y-90127560D03*
X142078453Y-88563780D03*
D14*
X144080000Y-87000000D03*
D15*
X143250000Y-100025000D03*
X143250000Y-98475000D03*
D10*
X155270000Y-102370000D03*
D11*
X156570000Y-102370000D03*
D12*
X157870000Y-102370000D03*
D16*
X144500000Y-107550000D03*
D17*
X145800000Y-107550000D03*
D10*
X148020000Y-104270000D03*
D11*
X149320000Y-104270000D03*
D12*
X150620000Y-104270000D03*
D18*
X141050000Y-103400000D03*
X143850000Y-103400000D03*
D19*
X145250000Y-98475000D03*
X145250000Y-100025000D03*
D20*
X147425000Y-98095000D03*
X147425000Y-99365000D03*
X147425000Y-100635000D03*
X147425000Y-101905000D03*
X152575000Y-101905000D03*
X152575000Y-100635000D03*
X152575000Y-99365000D03*
X152575000Y-98095000D03*
D21*
X152900000Y-97400000D03*
X145700000Y-106250000D03*
X153950000Y-100650000D03*
X156350000Y-97100000D03*
X146000000Y-102750000D03*
X156950000Y-103850000D03*
X148600000Y-101150000D03*
D22*
X152575000Y-99365000D02*
X152115000Y-99365000D01*
X152115000Y-99365000D02*
X144650000Y-91900000D01*
X144650000Y-91900000D02*
X141849345Y-91900000D01*
X141849345Y-91900000D02*
X140076905Y-90127560D01*
X152575000Y-98095000D02*
X152575000Y-97725000D01*
X152575000Y-97725000D02*
X152900000Y-97400000D01*
X145700000Y-106250000D02*
X145700000Y-107450000D01*
X145700000Y-107450000D02*
X145800000Y-107550000D01*
X156950000Y-103850000D02*
X157870000Y-102930000D01*
X157870000Y-102930000D02*
X157870000Y-102370000D01*
X156350000Y-97100000D02*
X156500000Y-97250000D01*
X156500000Y-97250000D02*
X156500000Y-98500000D01*
X152575000Y-100635000D02*
X153935000Y-100635000D01*
X153935000Y-100635000D02*
X153950000Y-100650000D01*
X148025000Y-104275000D02*
X146500000Y-102750000D01*
X146845000Y-101905000D02*
X146000000Y-102750000D01*
X143250000Y-100025000D02*
X145250000Y-100025000D01*
X146000000Y-101000000D02*
X146000000Y-102750000D01*
X144500000Y-102750000D02*
X143850000Y-103400000D01*
X146500000Y-102750000D02*
X146000000Y-102750000D01*
X146000000Y-102750000D02*
X144500000Y-102750000D01*
X145250000Y-100025000D02*
X145250000Y-100250000D01*
X145250000Y-100250000D02*
X146000000Y-101000000D01*
X147425000Y-101905000D02*
X146845000Y-101905000D01*
X146000000Y-98500000D02*
X145275000Y-98500000D01*
X145275000Y-98500000D02*
X145250000Y-98475000D01*
X146405000Y-98095000D02*
X146000000Y-98500000D01*
X147425000Y-98095000D02*
X146405000Y-98095000D01*
X140076905Y-90576905D02*
X140076905Y-90127560D01*
X156500000Y-102300000D02*
X156500000Y-100750000D01*
X157000000Y-100250000D02*
X157500000Y-100250000D01*
X156570000Y-102370000D02*
X156500000Y-102300000D01*
X157500000Y-100250000D02*
X157800000Y-99950000D01*
X157800000Y-99950000D02*
X157800000Y-98500000D01*
X156500000Y-100750000D02*
X157000000Y-100250000D01*
X154250000Y-98500000D02*
X153845000Y-98095000D01*
X155200000Y-98500000D02*
X154250000Y-98500000D01*
X153845000Y-98095000D02*
X152575000Y-98095000D01*
X149350000Y-104250000D02*
X149325000Y-104275000D01*
X148065000Y-99365000D02*
X149350000Y-100650000D01*
X149350000Y-100650000D02*
X149350000Y-104250000D01*
X147425000Y-99365000D02*
X148065000Y-99365000D01*
X154805000Y-101905000D02*
X155270000Y-102370000D01*
X152575000Y-101905000D02*
X154805000Y-101905000D01*
X148085000Y-100635000D02*
X147425000Y-100635000D01*
X148600000Y-101150000D02*
X148085000Y-100635000D01*
G04 #@! TA.AperFunction,Conductor*
G36*
X143061461Y-81185237D02*
G01*
X143078194Y-81195925D01*
X151800883Y-87789750D01*
X165591983Y-98214987D01*
X165634261Y-98272021D01*
X165642000Y-98315499D01*
X165642000Y-101933388D01*
X165621998Y-102001509D01*
X165591699Y-102034114D01*
X152939718Y-111542532D01*
X151364019Y-112726726D01*
X151297546Y-112751662D01*
X151288320Y-112752000D01*
X148714422Y-112752000D01*
X148646301Y-112731998D01*
X148637943Y-112726135D01*
X144319660Y-109427984D01*
X147937730Y-109427984D01*
X147937883Y-109432372D01*
X147937883Y-109432378D01*
X147942760Y-109572016D01*
X147947777Y-109715697D01*
X147997769Y-109999212D01*
X148086731Y-110273011D01*
X148212933Y-110531763D01*
X148215388Y-110535402D01*
X148215391Y-110535408D01*
X148371459Y-110766788D01*
X148371464Y-110766795D01*
X148373919Y-110770434D01*
X148566554Y-110984377D01*
X148787089Y-111169428D01*
X149031233Y-111321986D01*
X149294232Y-111439081D01*
X149570969Y-111518434D01*
X149575316Y-111519045D01*
X149575321Y-111519046D01*
X149713512Y-111538467D01*
X149856056Y-111558500D01*
X150071890Y-111558500D01*
X150074076Y-111558347D01*
X150074080Y-111558347D01*
X150282802Y-111543752D01*
X150282807Y-111543751D01*
X150287187Y-111543445D01*
X150568785Y-111483589D01*
X150572914Y-111482086D01*
X150572918Y-111482085D01*
X150835167Y-111386635D01*
X150835171Y-111386633D01*
X150839312Y-111385126D01*
X151093503Y-111249970D01*
X151201150Y-111171760D01*
X151322847Y-111083342D01*
X151322850Y-111083340D01*
X151326410Y-111080753D01*
X151426210Y-110984377D01*
X151530337Y-110883823D01*
X151530340Y-110883819D01*
X151533499Y-110880769D01*
X151619703Y-110770434D01*
X151708033Y-110657376D01*
X151710741Y-110653910D01*
X151854686Y-110404591D01*
X151856336Y-110400507D01*
X151856339Y-110400501D01*
X151960882Y-110141746D01*
X151962531Y-110137665D01*
X152032177Y-109858328D01*
X152046714Y-109720026D01*
X152061811Y-109576385D01*
X152061811Y-109576382D01*
X152062270Y-109572016D01*
X152057394Y-109432378D01*
X152052377Y-109288700D01*
X152052376Y-109288694D01*
X152052223Y-109284303D01*
X152002231Y-109000788D01*
X151913269Y-108726989D01*
X151901654Y-108703173D01*
X151804883Y-108504765D01*
X151787067Y-108468237D01*
X151784612Y-108464598D01*
X151784609Y-108464592D01*
X151628541Y-108233212D01*
X151628536Y-108233205D01*
X151626081Y-108229566D01*
X151579266Y-108177572D01*
X151436394Y-108018897D01*
X151436393Y-108018896D01*
X151433446Y-108015623D01*
X151212911Y-107830572D01*
X150968767Y-107678014D01*
X150705768Y-107560919D01*
X150429031Y-107481566D01*
X150424684Y-107480955D01*
X150424679Y-107480954D01*
X150257563Y-107457468D01*
X150143944Y-107441500D01*
X149928110Y-107441500D01*
X149925924Y-107441653D01*
X149925920Y-107441653D01*
X149717198Y-107456248D01*
X149717193Y-107456249D01*
X149712813Y-107456555D01*
X149431215Y-107516411D01*
X149427086Y-107517914D01*
X149427082Y-107517915D01*
X149164833Y-107613365D01*
X149164829Y-107613367D01*
X149160688Y-107614874D01*
X148906497Y-107750030D01*
X148902938Y-107752616D01*
X148902936Y-107752617D01*
X148749166Y-107864338D01*
X148673590Y-107919247D01*
X148670426Y-107922303D01*
X148670423Y-107922305D01*
X148469663Y-108116177D01*
X148469660Y-108116181D01*
X148466501Y-108119231D01*
X148463795Y-108122695D01*
X148463791Y-108122699D01*
X148323511Y-108302250D01*
X148289259Y-108346090D01*
X148244563Y-108423506D01*
X148197648Y-108504765D01*
X148145314Y-108595409D01*
X148143664Y-108599493D01*
X148143661Y-108599499D01*
X148088544Y-108735920D01*
X148037469Y-108862335D01*
X147967823Y-109141672D01*
X147967364Y-109146042D01*
X147967363Y-109146046D01*
X147938189Y-109423615D01*
X147937730Y-109427984D01*
X144319660Y-109427984D01*
X142267265Y-107860438D01*
X144785503Y-107860438D01*
X144786063Y-107864723D01*
X144786271Y-107871760D01*
X144786271Y-108300000D01*
X144791500Y-108373111D01*
X144832696Y-108513411D01*
X144837567Y-108520990D01*
X144906878Y-108628841D01*
X144906880Y-108628844D01*
X144911750Y-108636421D01*
X144918560Y-108642322D01*
X145015445Y-108726274D01*
X145015448Y-108726276D01*
X145022257Y-108732176D01*
X145155266Y-108792919D01*
X145164189Y-108794202D01*
X145180100Y-108796490D01*
X145300000Y-108813729D01*
X145787322Y-108813729D01*
X145789630Y-108813750D01*
X145853020Y-108814912D01*
X145880382Y-108811504D01*
X145993128Y-108797460D01*
X145993132Y-108797459D01*
X145997565Y-108796907D01*
X146135745Y-108759234D01*
X146139862Y-108757452D01*
X146139866Y-108757451D01*
X146265296Y-108703173D01*
X146265301Y-108703171D01*
X146269420Y-108701388D01*
X146391472Y-108626448D01*
X146394922Y-108623584D01*
X146500093Y-108536270D01*
X146500095Y-108536268D01*
X146503540Y-108533408D01*
X146599654Y-108427224D01*
X146631781Y-108379594D01*
X146678599Y-108310183D01*
X146678602Y-108310178D01*
X146681107Y-108306464D01*
X146743554Y-108177572D01*
X146787838Y-108038812D01*
X146811600Y-107897574D01*
X146818682Y-107818627D01*
X146818833Y-107806285D01*
X146813995Y-107731964D01*
X146813729Y-107723779D01*
X146813729Y-107379481D01*
X146814233Y-107368223D01*
X146818464Y-107321053D01*
X146818682Y-107318627D01*
X146818833Y-107306285D01*
X146813683Y-107227171D01*
X146793379Y-107085394D01*
X146752497Y-106945590D01*
X146693217Y-106815211D01*
X146690805Y-106811440D01*
X146690801Y-106811432D01*
X146617158Y-106696281D01*
X146614742Y-106692503D01*
X146586050Y-106659204D01*
X146556736Y-106594541D01*
X146561670Y-106538020D01*
X146575218Y-106496324D01*
X146593542Y-106439928D01*
X146613504Y-106250000D01*
X146593542Y-106060072D01*
X146534527Y-105878444D01*
X146439040Y-105713056D01*
X146311253Y-105571134D01*
X146212157Y-105499136D01*
X146162094Y-105462763D01*
X146162093Y-105462762D01*
X146156752Y-105458882D01*
X146150724Y-105456198D01*
X146150722Y-105456197D01*
X145988319Y-105383891D01*
X145988318Y-105383891D01*
X145982288Y-105381206D01*
X145888888Y-105361353D01*
X145801944Y-105342872D01*
X145801939Y-105342872D01*
X145795487Y-105341500D01*
X145604513Y-105341500D01*
X145598061Y-105342872D01*
X145598056Y-105342872D01*
X145511112Y-105361353D01*
X145417712Y-105381206D01*
X145411682Y-105383891D01*
X145411681Y-105383891D01*
X145249278Y-105456197D01*
X145249276Y-105456198D01*
X145243248Y-105458882D01*
X145237907Y-105462762D01*
X145237906Y-105462763D01*
X145187843Y-105499136D01*
X145088747Y-105571134D01*
X144960960Y-105713056D01*
X144865473Y-105878444D01*
X144806458Y-106060072D01*
X144786496Y-106250000D01*
X144806458Y-106439928D01*
X144808498Y-106446206D01*
X144808500Y-106446214D01*
X144832439Y-106519890D01*
X144834467Y-106590857D01*
X144827220Y-106611167D01*
X144810825Y-106647067D01*
X144807081Y-106655266D01*
X144786271Y-106800000D01*
X144786271Y-107261047D01*
X144786273Y-107261047D01*
X144786682Y-107264015D01*
X144785503Y-107360438D01*
X144786063Y-107364723D01*
X144786271Y-107371760D01*
X144786271Y-107761047D01*
X144786273Y-107761047D01*
X144786682Y-107764015D01*
X144785503Y-107860438D01*
X142267265Y-107860438D01*
X137205797Y-103994669D01*
X139992001Y-103994669D01*
X139992371Y-104001490D01*
X139997895Y-104052352D01*
X140001521Y-104067604D01*
X140046676Y-104188054D01*
X140055214Y-104203649D01*
X140131715Y-104305724D01*
X140144276Y-104318285D01*
X140246351Y-104394786D01*
X140261946Y-104403324D01*
X140382394Y-104448478D01*
X140397649Y-104452105D01*
X140448514Y-104457631D01*
X140455328Y-104458000D01*
X140777885Y-104458000D01*
X140793124Y-104453525D01*
X140794329Y-104452135D01*
X140796000Y-104444452D01*
X140796000Y-104439884D01*
X141304000Y-104439884D01*
X141308475Y-104455123D01*
X141309865Y-104456328D01*
X141317548Y-104457999D01*
X141644669Y-104457999D01*
X141651490Y-104457629D01*
X141702352Y-104452105D01*
X141717604Y-104448479D01*
X141838054Y-104403324D01*
X141853649Y-104394786D01*
X141955724Y-104318285D01*
X141968285Y-104305724D01*
X142044786Y-104203649D01*
X142053324Y-104188054D01*
X142098478Y-104067606D01*
X142102105Y-104052351D01*
X142107631Y-104001486D01*
X142108000Y-103994672D01*
X142108000Y-103672115D01*
X142103525Y-103656876D01*
X142102135Y-103655671D01*
X142094452Y-103654000D01*
X141322115Y-103654000D01*
X141306876Y-103658475D01*
X141305671Y-103659865D01*
X141304000Y-103667548D01*
X141304000Y-104439884D01*
X140796000Y-104439884D01*
X140796000Y-103672115D01*
X140791525Y-103656876D01*
X140790135Y-103655671D01*
X140782452Y-103654000D01*
X140010116Y-103654000D01*
X139994877Y-103658475D01*
X139993672Y-103659865D01*
X139992001Y-103667548D01*
X139992001Y-103994669D01*
X137205797Y-103994669D01*
X136070913Y-103127885D01*
X139992000Y-103127885D01*
X139996475Y-103143124D01*
X139997865Y-103144329D01*
X140005548Y-103146000D01*
X140777885Y-103146000D01*
X140793124Y-103141525D01*
X140794329Y-103140135D01*
X140796000Y-103132452D01*
X140796000Y-103127885D01*
X141304000Y-103127885D01*
X141308475Y-103143124D01*
X141309865Y-103144329D01*
X141317548Y-103146000D01*
X142089884Y-103146000D01*
X142105123Y-103141525D01*
X142106328Y-103140135D01*
X142107999Y-103132452D01*
X142107999Y-102805331D01*
X142107629Y-102798510D01*
X142102105Y-102747648D01*
X142098479Y-102732396D01*
X142053324Y-102611946D01*
X142044786Y-102596351D01*
X141968285Y-102494276D01*
X141955724Y-102481715D01*
X141853649Y-102405214D01*
X141838054Y-102396676D01*
X141717606Y-102351522D01*
X141702351Y-102347895D01*
X141651486Y-102342369D01*
X141644672Y-102342000D01*
X141322115Y-102342000D01*
X141306876Y-102346475D01*
X141305671Y-102347865D01*
X141304000Y-102355548D01*
X141304000Y-103127885D01*
X140796000Y-103127885D01*
X140796000Y-102360116D01*
X140791525Y-102344877D01*
X140790135Y-102343672D01*
X140782452Y-102342001D01*
X140455331Y-102342001D01*
X140448510Y-102342371D01*
X140397648Y-102347895D01*
X140382396Y-102351521D01*
X140261946Y-102396676D01*
X140246351Y-102405214D01*
X140144276Y-102481715D01*
X140131715Y-102494276D01*
X140055214Y-102596351D01*
X140046676Y-102611946D01*
X140001522Y-102732394D01*
X139997895Y-102747649D01*
X139992369Y-102798514D01*
X139992000Y-102805328D01*
X139992000Y-103127885D01*
X136070913Y-103127885D01*
X133368134Y-101063599D01*
X133326138Y-101006355D01*
X133322019Y-100992563D01*
X133319788Y-100983163D01*
X133069326Y-99927984D01*
X135437730Y-99927984D01*
X135437883Y-99932372D01*
X135437883Y-99932378D01*
X135447503Y-100207840D01*
X135447777Y-100215697D01*
X135448540Y-100220021D01*
X135448540Y-100220026D01*
X135468126Y-100331100D01*
X135497769Y-100499212D01*
X135586731Y-100773011D01*
X135588659Y-100776964D01*
X135588661Y-100776969D01*
X135630680Y-100863119D01*
X135712933Y-101031763D01*
X135715388Y-101035402D01*
X135715391Y-101035408D01*
X135871459Y-101266788D01*
X135871464Y-101266795D01*
X135873919Y-101270434D01*
X135876863Y-101273703D01*
X135876864Y-101273705D01*
X135994184Y-101404002D01*
X136066554Y-101484377D01*
X136287089Y-101669428D01*
X136531233Y-101821986D01*
X136794232Y-101939081D01*
X137070969Y-102018434D01*
X137075316Y-102019045D01*
X137075321Y-102019046D01*
X137213512Y-102038467D01*
X137356056Y-102058500D01*
X137571890Y-102058500D01*
X137574076Y-102058347D01*
X137574080Y-102058347D01*
X137782802Y-102043752D01*
X137782807Y-102043751D01*
X137787187Y-102043445D01*
X138068785Y-101983589D01*
X138072914Y-101982086D01*
X138072918Y-101982085D01*
X138335167Y-101886635D01*
X138335171Y-101886633D01*
X138339312Y-101885126D01*
X138593503Y-101749970D01*
X138663810Y-101698889D01*
X138822847Y-101583342D01*
X138822850Y-101583340D01*
X138826410Y-101580753D01*
X138897085Y-101512503D01*
X139030337Y-101383823D01*
X139030340Y-101383819D01*
X139033499Y-101380769D01*
X139058951Y-101348193D01*
X139208033Y-101157376D01*
X139210741Y-101153910D01*
X139295932Y-101006355D01*
X139352481Y-100908411D01*
X139352484Y-100908406D01*
X139354686Y-100904591D01*
X139356336Y-100900507D01*
X139356339Y-100900501D01*
X139449479Y-100669970D01*
X139462531Y-100637665D01*
X139532177Y-100358328D01*
X139533079Y-100349753D01*
X139538441Y-100298732D01*
X142266500Y-100298732D01*
X142266837Y-100301978D01*
X142266837Y-100301982D01*
X142267720Y-100310493D01*
X142277113Y-100401019D01*
X142279295Y-100407559D01*
X142312805Y-100507999D01*
X142331244Y-100563268D01*
X142335096Y-100569492D01*
X142335096Y-100569493D01*
X142360252Y-100610144D01*
X142421248Y-100708713D01*
X142542298Y-100829552D01*
X142548528Y-100833392D01*
X142548529Y-100833393D01*
X142670231Y-100908411D01*
X142687899Y-100919302D01*
X142850243Y-100973149D01*
X142857080Y-100973849D01*
X142857082Y-100973850D01*
X142898401Y-100978083D01*
X142951268Y-100983500D01*
X143548732Y-100983500D01*
X143551978Y-100983163D01*
X143551982Y-100983163D01*
X143586083Y-100979625D01*
X143651019Y-100972887D01*
X143804726Y-100921606D01*
X143806324Y-100921073D01*
X143806326Y-100921072D01*
X143813268Y-100918756D01*
X143829986Y-100908411D01*
X143952485Y-100832606D01*
X143958713Y-100828752D01*
X144013409Y-100773961D01*
X144074382Y-100712881D01*
X144079552Y-100707702D01*
X144081014Y-100705330D01*
X144137412Y-100665345D01*
X144178376Y-100658500D01*
X144321621Y-100658500D01*
X144389742Y-100678502D01*
X144418884Y-100704894D01*
X144421248Y-100708713D01*
X144542298Y-100829552D01*
X144548528Y-100833392D01*
X144548529Y-100833393D01*
X144670231Y-100908411D01*
X144687899Y-100919302D01*
X144850243Y-100973149D01*
X144857080Y-100973849D01*
X144857082Y-100973850D01*
X144898401Y-100978083D01*
X144951268Y-100983500D01*
X145035406Y-100983500D01*
X145103527Y-101003502D01*
X145124501Y-101020405D01*
X145329595Y-101225499D01*
X145363621Y-101287811D01*
X145366500Y-101314594D01*
X145366500Y-101990500D01*
X145346498Y-102058621D01*
X145292842Y-102105114D01*
X145240500Y-102116500D01*
X144578767Y-102116500D01*
X144567584Y-102115973D01*
X144560091Y-102114298D01*
X144552165Y-102114547D01*
X144552164Y-102114547D01*
X144492001Y-102116438D01*
X144488043Y-102116500D01*
X144460144Y-102116500D01*
X144456154Y-102117004D01*
X144444320Y-102117936D01*
X144400111Y-102119326D01*
X144392497Y-102121538D01*
X144392492Y-102121539D01*
X144380659Y-102124977D01*
X144361296Y-102128988D01*
X144341203Y-102131526D01*
X144333836Y-102134443D01*
X144333831Y-102134444D01*
X144300092Y-102147802D01*
X144288865Y-102151646D01*
X144246407Y-102163982D01*
X144239581Y-102168019D01*
X144228972Y-102174293D01*
X144211224Y-102182988D01*
X144192383Y-102190448D01*
X144185967Y-102195110D01*
X144185966Y-102195110D01*
X144156613Y-102216436D01*
X144146693Y-102222952D01*
X144115465Y-102241420D01*
X144115462Y-102241422D01*
X144108638Y-102245458D01*
X144094317Y-102259779D01*
X144079284Y-102272619D01*
X144062893Y-102284528D01*
X144057840Y-102290636D01*
X144057838Y-102290638D01*
X144053557Y-102295813D01*
X143994725Y-102335553D01*
X143956471Y-102341500D01*
X143251866Y-102341500D01*
X143189684Y-102348255D01*
X143053295Y-102399385D01*
X142936739Y-102486739D01*
X142849385Y-102603295D01*
X142798255Y-102739684D01*
X142791500Y-102801866D01*
X142791500Y-103998134D01*
X142798255Y-104060316D01*
X142849385Y-104196705D01*
X142936739Y-104313261D01*
X143053295Y-104400615D01*
X143189684Y-104451745D01*
X143251866Y-104458500D01*
X144448134Y-104458500D01*
X144510316Y-104451745D01*
X144646705Y-104400615D01*
X144763261Y-104313261D01*
X144850615Y-104196705D01*
X144901745Y-104060316D01*
X144908500Y-103998134D01*
X144908500Y-103509500D01*
X144928502Y-103441379D01*
X144982158Y-103394886D01*
X145034500Y-103383500D01*
X145291800Y-103383500D01*
X145359921Y-103403502D01*
X145379147Y-103419843D01*
X145379420Y-103419540D01*
X145384332Y-103423963D01*
X145388747Y-103428866D01*
X145543248Y-103541118D01*
X145549276Y-103543802D01*
X145549278Y-103543803D01*
X145684077Y-103603819D01*
X145717712Y-103618794D01*
X145790422Y-103634249D01*
X145898056Y-103657128D01*
X145898061Y-103657128D01*
X145904513Y-103658500D01*
X146095487Y-103658500D01*
X146101939Y-103657128D01*
X146101944Y-103657128D01*
X146244091Y-103626913D01*
X146282288Y-103618794D01*
X146288321Y-103616108D01*
X146288324Y-103616107D01*
X146307291Y-103607662D01*
X146335062Y-103595298D01*
X146405427Y-103585863D01*
X146469724Y-103615969D01*
X146475405Y-103621309D01*
X146969366Y-104115270D01*
X147003392Y-104177582D01*
X147006271Y-104204365D01*
X147006271Y-104481047D01*
X147006273Y-104481047D01*
X147006682Y-104484014D01*
X147005504Y-104580438D01*
X147006085Y-104584880D01*
X147006085Y-104584883D01*
X147023492Y-104718002D01*
X147024074Y-104722452D01*
X147063245Y-104862748D01*
X147120928Y-104993841D01*
X147197897Y-105117496D01*
X147200779Y-105120924D01*
X147200780Y-105120926D01*
X147208673Y-105130316D01*
X147290054Y-105227131D01*
X147398639Y-105324218D01*
X147402372Y-105326703D01*
X147402376Y-105326706D01*
X147514135Y-105401099D01*
X147517864Y-105403581D01*
X147649333Y-105466289D01*
X147653612Y-105467626D01*
X147653615Y-105467627D01*
X147729078Y-105491203D01*
X147786039Y-105508999D01*
X147790463Y-105509716D01*
X147790465Y-105509716D01*
X147820441Y-105514571D01*
X147929821Y-105532287D01*
X147996782Y-105533514D01*
X148068539Y-105534830D01*
X148068541Y-105534830D01*
X148073020Y-105534912D01*
X148077465Y-105534359D01*
X148081944Y-105534122D01*
X148081951Y-105534249D01*
X148090339Y-105533729D01*
X148570000Y-105533729D01*
X148590162Y-105532287D01*
X148636375Y-105528982D01*
X148636377Y-105528982D01*
X148643111Y-105528500D01*
X148652989Y-105525600D01*
X148655423Y-105524885D01*
X148709496Y-105523474D01*
X148709684Y-105521745D01*
X148771866Y-105528500D01*
X149868134Y-105528500D01*
X149930316Y-105521745D01*
X150066705Y-105470615D01*
X150183261Y-105383261D01*
X150270615Y-105266705D01*
X150321745Y-105130316D01*
X150328500Y-105068134D01*
X150328500Y-103471866D01*
X150321745Y-103409684D01*
X150270615Y-103273295D01*
X150183261Y-103156739D01*
X150150855Y-103132452D01*
X150073887Y-103074767D01*
X150073884Y-103074765D01*
X150066705Y-103069385D01*
X150058302Y-103066235D01*
X150050426Y-103061923D01*
X150052063Y-103058932D01*
X150008487Y-103026180D01*
X149983804Y-102959612D01*
X149983500Y-102950865D01*
X149983500Y-100728763D01*
X149984027Y-100717579D01*
X149985701Y-100710091D01*
X149983562Y-100642032D01*
X149983500Y-100638075D01*
X149983500Y-100610144D01*
X149982994Y-100606138D01*
X149982061Y-100594292D01*
X149980922Y-100558037D01*
X149980673Y-100550110D01*
X149975022Y-100530658D01*
X149971014Y-100511306D01*
X149969468Y-100499068D01*
X149969467Y-100499066D01*
X149968474Y-100491203D01*
X149952194Y-100450086D01*
X149948359Y-100438885D01*
X149936018Y-100396406D01*
X149931985Y-100389587D01*
X149931983Y-100389582D01*
X149925707Y-100378971D01*
X149917010Y-100361221D01*
X149909552Y-100342383D01*
X149902994Y-100333356D01*
X149885355Y-100309079D01*
X149883571Y-100306623D01*
X149877053Y-100296701D01*
X149858578Y-100265460D01*
X149858574Y-100265455D01*
X149854542Y-100258637D01*
X149840218Y-100244313D01*
X149827376Y-100229278D01*
X149827182Y-100229011D01*
X149815472Y-100212893D01*
X149781406Y-100184711D01*
X149772627Y-100176722D01*
X148845405Y-99249500D01*
X148811379Y-99187188D01*
X148808500Y-99160405D01*
X148808500Y-99148498D01*
X148807171Y-99131613D01*
X148806067Y-99117579D01*
X148806066Y-99117574D01*
X148805562Y-99111169D01*
X148759145Y-98951399D01*
X148695663Y-98844057D01*
X148678493Y-98815024D01*
X148678492Y-98815023D01*
X148674453Y-98808193D01*
X148671513Y-98805253D01*
X148646180Y-98740734D01*
X148660079Y-98671111D01*
X148672126Y-98652364D01*
X148678090Y-98644676D01*
X148754648Y-98515221D01*
X148760893Y-98500790D01*
X148799939Y-98366395D01*
X148799899Y-98352294D01*
X148792630Y-98349000D01*
X147297000Y-98349000D01*
X147228879Y-98328998D01*
X147182386Y-98275342D01*
X147171000Y-98223000D01*
X147171000Y-97822885D01*
X147679000Y-97822885D01*
X147683475Y-97838124D01*
X147684865Y-97839329D01*
X147692548Y-97841000D01*
X148786878Y-97841000D01*
X148800409Y-97837027D01*
X148801544Y-97829129D01*
X148760893Y-97689210D01*
X148754648Y-97674779D01*
X148678089Y-97545322D01*
X148668449Y-97532896D01*
X148562104Y-97426551D01*
X148549678Y-97416911D01*
X148420221Y-97340352D01*
X148405790Y-97334107D01*
X148259935Y-97291731D01*
X148247333Y-97289430D01*
X148218916Y-97287193D01*
X148213986Y-97287000D01*
X147697115Y-97287000D01*
X147681876Y-97291475D01*
X147680671Y-97292865D01*
X147679000Y-97300548D01*
X147679000Y-97822885D01*
X147171000Y-97822885D01*
X147171000Y-97305116D01*
X147166525Y-97289877D01*
X147165135Y-97288672D01*
X147157452Y-97287001D01*
X146636017Y-97287001D01*
X146631080Y-97287195D01*
X146602664Y-97289430D01*
X146590069Y-97291730D01*
X146444210Y-97334107D01*
X146429779Y-97340352D01*
X146300322Y-97416911D01*
X146287896Y-97426551D01*
X146181551Y-97532896D01*
X146171909Y-97545325D01*
X146125527Y-97623755D01*
X146073635Y-97672208D01*
X146003784Y-97684914D01*
X145950957Y-97666877D01*
X145818120Y-97584996D01*
X145804939Y-97578849D01*
X145656186Y-97529509D01*
X145642810Y-97526642D01*
X145551903Y-97517328D01*
X145545486Y-97517000D01*
X145522115Y-97517000D01*
X145506876Y-97521475D01*
X145505671Y-97522865D01*
X145504000Y-97530548D01*
X145504000Y-98603000D01*
X145483998Y-98671121D01*
X145430342Y-98717614D01*
X145378000Y-98729000D01*
X144267000Y-98729000D01*
X144267000Y-98728895D01*
X144225746Y-98730369D01*
X144219453Y-98729000D01*
X142285115Y-98729000D01*
X142269876Y-98733475D01*
X142268671Y-98734865D01*
X142267000Y-98742548D01*
X142267000Y-98745438D01*
X142267337Y-98751953D01*
X142276894Y-98844057D01*
X142279788Y-98857456D01*
X142329381Y-99006107D01*
X142335555Y-99019286D01*
X142417788Y-99152173D01*
X142431371Y-99169311D01*
X142429441Y-99170841D01*
X142457903Y-99222880D01*
X142452887Y-99293699D01*
X142429201Y-99330617D01*
X142430157Y-99331372D01*
X142425619Y-99337118D01*
X142420448Y-99342298D01*
X142416608Y-99348528D01*
X142416607Y-99348529D01*
X142407804Y-99362811D01*
X142330698Y-99487899D01*
X142276851Y-99650243D01*
X142266500Y-99751268D01*
X142266500Y-100298732D01*
X139538441Y-100298732D01*
X139561811Y-100076385D01*
X139561811Y-100076382D01*
X139562270Y-100072016D01*
X139562117Y-100067622D01*
X139552377Y-99788700D01*
X139552376Y-99788694D01*
X139552223Y-99784303D01*
X139549136Y-99766793D01*
X139511125Y-99551226D01*
X139502231Y-99500788D01*
X139413269Y-99226989D01*
X139409732Y-99219736D01*
X139334993Y-99066500D01*
X139287067Y-98968237D01*
X139284612Y-98964598D01*
X139284609Y-98964592D01*
X139128541Y-98733212D01*
X139128536Y-98733205D01*
X139126081Y-98729566D01*
X139115320Y-98717614D01*
X138936394Y-98518897D01*
X138936393Y-98518896D01*
X138933446Y-98515623D01*
X138712911Y-98330572D01*
X138508955Y-98203126D01*
X142267071Y-98203126D01*
X142271475Y-98218124D01*
X142272865Y-98219329D01*
X142280548Y-98221000D01*
X142977885Y-98221000D01*
X142993124Y-98216525D01*
X142994329Y-98215135D01*
X142996000Y-98207452D01*
X142996000Y-98202885D01*
X143504000Y-98202885D01*
X143508475Y-98218124D01*
X143509865Y-98219329D01*
X143517548Y-98221000D01*
X144233000Y-98221000D01*
X144233000Y-98221105D01*
X144274254Y-98219631D01*
X144280547Y-98221000D01*
X144977885Y-98221000D01*
X144993124Y-98216525D01*
X144994329Y-98215135D01*
X144996000Y-98207452D01*
X144996000Y-97535115D01*
X144991525Y-97519876D01*
X144990135Y-97518671D01*
X144982452Y-97517000D01*
X144954562Y-97517000D01*
X144948047Y-97517337D01*
X144855943Y-97526894D01*
X144842544Y-97529788D01*
X144693893Y-97579381D01*
X144680714Y-97585555D01*
X144547827Y-97667788D01*
X144536426Y-97676824D01*
X144426014Y-97787429D01*
X144417002Y-97798840D01*
X144357297Y-97895700D01*
X144304525Y-97943193D01*
X144234453Y-97954617D01*
X144169329Y-97926343D01*
X144142892Y-97895887D01*
X144082207Y-97797821D01*
X144073176Y-97786426D01*
X143962571Y-97676014D01*
X143951160Y-97667002D01*
X143818120Y-97584996D01*
X143804939Y-97578849D01*
X143656186Y-97529509D01*
X143642810Y-97526642D01*
X143551903Y-97517328D01*
X143545486Y-97517000D01*
X143522115Y-97517000D01*
X143506876Y-97521475D01*
X143505671Y-97522865D01*
X143504000Y-97530548D01*
X143504000Y-98202885D01*
X142996000Y-98202885D01*
X142996000Y-97535115D01*
X142991525Y-97519876D01*
X142990135Y-97518671D01*
X142982452Y-97517000D01*
X142954562Y-97517000D01*
X142948047Y-97517337D01*
X142855943Y-97526894D01*
X142842544Y-97529788D01*
X142693893Y-97579381D01*
X142680714Y-97585555D01*
X142547827Y-97667788D01*
X142536426Y-97676824D01*
X142426014Y-97787429D01*
X142417002Y-97798840D01*
X142334996Y-97931880D01*
X142328849Y-97945061D01*
X142279509Y-98093814D01*
X142276642Y-98107190D01*
X142267328Y-98198097D01*
X142267071Y-98203126D01*
X138508955Y-98203126D01*
X138468767Y-98178014D01*
X138205768Y-98060919D01*
X137929031Y-97981566D01*
X137924684Y-97980955D01*
X137924679Y-97980954D01*
X137757563Y-97957468D01*
X137643944Y-97941500D01*
X137428110Y-97941500D01*
X137425924Y-97941653D01*
X137425920Y-97941653D01*
X137217198Y-97956248D01*
X137217193Y-97956249D01*
X137212813Y-97956555D01*
X136931215Y-98016411D01*
X136927086Y-98017914D01*
X136927082Y-98017915D01*
X136664833Y-98113365D01*
X136664829Y-98113367D01*
X136660688Y-98114874D01*
X136406497Y-98250030D01*
X136402938Y-98252616D01*
X136402936Y-98252617D01*
X136265743Y-98352294D01*
X136173590Y-98419247D01*
X136170426Y-98422303D01*
X136170423Y-98422305D01*
X135969663Y-98616177D01*
X135969660Y-98616181D01*
X135966501Y-98619231D01*
X135963795Y-98622695D01*
X135963791Y-98622699D01*
X135849780Y-98768627D01*
X135789259Y-98846090D01*
X135782697Y-98857456D01*
X135656029Y-99076851D01*
X135645314Y-99095409D01*
X135643664Y-99099493D01*
X135643661Y-99099499D01*
X135594795Y-99220448D01*
X135537469Y-99362335D01*
X135536405Y-99366604D01*
X135536404Y-99366606D01*
X135482212Y-99583959D01*
X135467823Y-99641672D01*
X135467364Y-99646042D01*
X135467363Y-99646046D01*
X135439181Y-99914181D01*
X135437730Y-99927984D01*
X133069326Y-99927984D01*
X131462452Y-93158339D01*
X134551306Y-93158339D01*
X134585278Y-93389800D01*
X134657764Y-93612227D01*
X134766690Y-93819261D01*
X134780871Y-93839289D01*
X134781772Y-93840442D01*
X134781780Y-93840453D01*
X135087077Y-94231213D01*
X135165304Y-94331339D01*
X135167096Y-94333271D01*
X135167103Y-94333279D01*
X135245756Y-94418068D01*
X135284311Y-94459631D01*
X135470034Y-94601883D01*
X135677067Y-94710809D01*
X135682146Y-94712464D01*
X135682148Y-94712465D01*
X135802224Y-94751595D01*
X135899494Y-94783294D01*
X136130954Y-94817266D01*
X136233547Y-94814849D01*
X136359495Y-94811881D01*
X136359499Y-94811881D01*
X136364829Y-94811755D01*
X136370059Y-94810734D01*
X136370065Y-94810733D01*
X136589201Y-94767939D01*
X136589204Y-94767938D01*
X136594433Y-94766917D01*
X136813197Y-94684033D01*
X137014871Y-94565475D01*
X137193685Y-94414633D01*
X137344527Y-94235819D01*
X137463085Y-94034146D01*
X137545967Y-93815380D01*
X137585640Y-93612227D01*
X137589783Y-93591014D01*
X137589784Y-93591008D01*
X137590805Y-93585778D01*
X137596316Y-93351902D01*
X137590112Y-93309631D01*
X137600010Y-93239327D01*
X137646345Y-93185536D01*
X137714407Y-93165335D01*
X137753816Y-93171535D01*
X137901041Y-93219513D01*
X138132501Y-93253485D01*
X138235094Y-93251068D01*
X138361042Y-93248100D01*
X138361046Y-93248100D01*
X138366376Y-93247974D01*
X138371606Y-93246953D01*
X138371612Y-93246952D01*
X138590748Y-93204158D01*
X138590751Y-93204157D01*
X138595980Y-93203136D01*
X138814744Y-93120252D01*
X139016418Y-93001694D01*
X139195232Y-92850852D01*
X139346074Y-92672038D01*
X139425181Y-92537474D01*
X139461926Y-92474968D01*
X139464632Y-92470365D01*
X139547514Y-92251599D01*
X139548537Y-92246363D01*
X139591330Y-92027233D01*
X139591331Y-92027227D01*
X139592352Y-92021997D01*
X139593239Y-91984377D01*
X139596902Y-91828912D01*
X139597863Y-91788121D01*
X139591659Y-91745851D01*
X139601556Y-91675548D01*
X139647892Y-91621756D01*
X139715954Y-91601555D01*
X139755363Y-91607755D01*
X139902588Y-91655733D01*
X140134048Y-91689705D01*
X140236641Y-91687288D01*
X140362589Y-91684320D01*
X140362593Y-91684320D01*
X140367923Y-91684194D01*
X140373153Y-91683173D01*
X140373159Y-91683172D01*
X140592294Y-91640378D01*
X140592295Y-91640378D01*
X140597527Y-91639356D01*
X140600666Y-91638167D01*
X140671067Y-91638736D01*
X140723687Y-91670246D01*
X141345688Y-92292247D01*
X141353232Y-92300537D01*
X141357345Y-92307018D01*
X141363122Y-92312443D01*
X141407012Y-92353658D01*
X141409854Y-92356413D01*
X141429576Y-92376135D01*
X141432718Y-92378572D01*
X141432778Y-92378619D01*
X141441790Y-92386317D01*
X141442129Y-92386635D01*
X141474024Y-92416586D01*
X141480967Y-92420403D01*
X141491776Y-92426345D01*
X141508298Y-92437198D01*
X141524304Y-92449614D01*
X141531582Y-92452764D01*
X141531583Y-92452764D01*
X141564882Y-92467174D01*
X141575532Y-92472391D01*
X141614285Y-92493695D01*
X141621960Y-92495666D01*
X141621961Y-92495666D01*
X141633907Y-92498733D01*
X141652612Y-92505137D01*
X141671200Y-92513181D01*
X141679023Y-92514420D01*
X141679033Y-92514423D01*
X141714869Y-92520099D01*
X141726489Y-92522505D01*
X141761634Y-92531528D01*
X141769315Y-92533500D01*
X141789569Y-92533500D01*
X141809279Y-92535051D01*
X141829288Y-92538220D01*
X141837180Y-92537474D01*
X141873306Y-92534059D01*
X141885164Y-92533500D01*
X144335406Y-92533500D01*
X144403527Y-92553502D01*
X144424501Y-92570405D01*
X151154595Y-99300499D01*
X151188621Y-99362811D01*
X151191500Y-99389594D01*
X151191500Y-99581502D01*
X151194438Y-99618831D01*
X151217330Y-99697627D01*
X151236649Y-99764122D01*
X151240855Y-99778601D01*
X151325547Y-99921807D01*
X151328229Y-99924489D01*
X151353502Y-99988861D01*
X151339600Y-100058484D01*
X151329428Y-100074312D01*
X151325547Y-100078193D01*
X151240855Y-100221399D01*
X151238644Y-100229010D01*
X151238643Y-100229012D01*
X151230036Y-100258637D01*
X151194438Y-100381169D01*
X151193934Y-100387574D01*
X151193933Y-100387579D01*
X151192868Y-100401117D01*
X151191500Y-100418498D01*
X151191500Y-100851502D01*
X151191693Y-100853950D01*
X151191693Y-100853958D01*
X151193920Y-100882249D01*
X151194438Y-100888831D01*
X151202013Y-100914904D01*
X151228582Y-101006355D01*
X151240855Y-101048601D01*
X151325547Y-101191807D01*
X151328229Y-101194489D01*
X151353502Y-101258861D01*
X151339600Y-101328484D01*
X151329428Y-101344312D01*
X151325547Y-101348193D01*
X151240855Y-101491399D01*
X151238644Y-101499010D01*
X151238643Y-101499012D01*
X151223472Y-101551231D01*
X151194438Y-101651169D01*
X151193934Y-101657574D01*
X151193933Y-101657579D01*
X151192817Y-101671760D01*
X151191500Y-101688498D01*
X151191500Y-102121502D01*
X151191693Y-102123950D01*
X151191693Y-102123958D01*
X151193873Y-102151646D01*
X151194438Y-102158831D01*
X151204978Y-102195110D01*
X151234235Y-102295813D01*
X151240855Y-102318601D01*
X151244892Y-102325427D01*
X151321509Y-102454980D01*
X151321511Y-102454983D01*
X151325547Y-102461807D01*
X151443193Y-102579453D01*
X151450017Y-102583489D01*
X151450020Y-102583491D01*
X151546992Y-102640840D01*
X151586399Y-102664145D01*
X151594010Y-102666356D01*
X151594012Y-102666357D01*
X151642480Y-102680438D01*
X151746169Y-102710562D01*
X151752574Y-102711066D01*
X151752579Y-102711067D01*
X151781042Y-102713307D01*
X151781050Y-102713307D01*
X151783498Y-102713500D01*
X153366502Y-102713500D01*
X153368950Y-102713307D01*
X153368958Y-102713307D01*
X153397421Y-102711067D01*
X153397426Y-102711066D01*
X153403831Y-102710562D01*
X153507520Y-102680438D01*
X153555988Y-102666357D01*
X153555990Y-102666356D01*
X153563601Y-102664145D01*
X153603008Y-102640840D01*
X153699980Y-102583491D01*
X153699983Y-102583489D01*
X153706807Y-102579453D01*
X153712416Y-102573844D01*
X153718675Y-102568989D01*
X153719844Y-102570496D01*
X153773167Y-102541379D01*
X153799950Y-102538500D01*
X154129689Y-102538500D01*
X154197810Y-102558502D01*
X154244303Y-102612158D01*
X154255680Y-102666039D01*
X154255504Y-102680438D01*
X154256085Y-102684880D01*
X154256085Y-102684883D01*
X154270938Y-102798469D01*
X154274074Y-102822452D01*
X154313245Y-102962748D01*
X154370928Y-103093841D01*
X154447897Y-103217496D01*
X154450779Y-103220924D01*
X154450780Y-103220926D01*
X154501868Y-103281703D01*
X154540054Y-103327131D01*
X154648639Y-103424218D01*
X154652372Y-103426703D01*
X154652376Y-103426706D01*
X154764135Y-103501099D01*
X154767864Y-103503581D01*
X154899333Y-103566289D01*
X154903612Y-103567626D01*
X154903615Y-103567627D01*
X154961985Y-103585863D01*
X155036039Y-103608999D01*
X155040463Y-103609716D01*
X155040465Y-103609716D01*
X155070441Y-103614571D01*
X155179821Y-103632287D01*
X155246782Y-103633514D01*
X155318539Y-103634830D01*
X155318541Y-103634830D01*
X155323020Y-103634912D01*
X155327465Y-103634359D01*
X155331944Y-103634122D01*
X155331951Y-103634249D01*
X155340339Y-103633729D01*
X155820000Y-103633729D01*
X155833161Y-103632788D01*
X155886377Y-103628982D01*
X155886380Y-103628981D01*
X155893111Y-103628500D01*
X155898335Y-103626966D01*
X155968431Y-103634500D01*
X156023713Y-103679047D01*
X156046136Y-103746409D01*
X156045526Y-103764080D01*
X156036496Y-103850000D01*
X156037186Y-103856565D01*
X156052418Y-104001486D01*
X156056458Y-104039928D01*
X156115473Y-104221556D01*
X156210960Y-104386944D01*
X156215378Y-104391851D01*
X156215379Y-104391852D01*
X156298364Y-104484016D01*
X156338747Y-104528866D01*
X156493248Y-104641118D01*
X156499276Y-104643802D01*
X156499278Y-104643803D01*
X156661681Y-104716109D01*
X156667712Y-104718794D01*
X156761113Y-104738647D01*
X156848056Y-104757128D01*
X156848061Y-104757128D01*
X156854513Y-104758500D01*
X157045487Y-104758500D01*
X157051939Y-104757128D01*
X157051944Y-104757128D01*
X157138887Y-104738647D01*
X157232288Y-104718794D01*
X157238319Y-104716109D01*
X157400722Y-104643803D01*
X157400724Y-104643802D01*
X157406752Y-104641118D01*
X157561253Y-104528866D01*
X157601636Y-104484016D01*
X157684621Y-104391852D01*
X157684622Y-104391851D01*
X157689040Y-104386944D01*
X157784527Y-104221556D01*
X157843542Y-104039928D01*
X157860907Y-103874706D01*
X157887920Y-103809050D01*
X157897122Y-103798782D01*
X158059617Y-103636287D01*
X158115570Y-103603819D01*
X158201412Y-103580416D01*
X158201420Y-103580413D01*
X158205745Y-103579234D01*
X158209862Y-103577452D01*
X158209866Y-103577451D01*
X158335296Y-103523173D01*
X158335301Y-103523171D01*
X158339420Y-103521388D01*
X158461472Y-103446448D01*
X158467578Y-103441379D01*
X158570093Y-103356270D01*
X158570095Y-103356268D01*
X158573540Y-103353408D01*
X158669654Y-103247224D01*
X158692270Y-103213694D01*
X158748599Y-103130183D01*
X158748602Y-103130178D01*
X158751107Y-103126464D01*
X158813554Y-102997572D01*
X158857838Y-102858812D01*
X158881600Y-102717574D01*
X158888682Y-102638627D01*
X158888833Y-102626285D01*
X158883995Y-102551964D01*
X158883729Y-102543779D01*
X158883729Y-102199481D01*
X158884233Y-102188223D01*
X158885030Y-102179341D01*
X158888682Y-102138627D01*
X158888833Y-102126285D01*
X158886471Y-102089993D01*
X158883841Y-102049592D01*
X158883840Y-102049582D01*
X158883683Y-102047171D01*
X158874708Y-101984502D01*
X158864016Y-101909839D01*
X158864015Y-101909833D01*
X158863379Y-101905394D01*
X158857894Y-101886635D01*
X158823755Y-101769892D01*
X158822497Y-101765590D01*
X158763217Y-101635211D01*
X158760805Y-101631440D01*
X158760801Y-101631432D01*
X158687157Y-101516279D01*
X158687156Y-101516278D01*
X158684742Y-101512503D01*
X158591252Y-101404002D01*
X158481489Y-101308250D01*
X158449956Y-101287811D01*
X158365062Y-101232786D01*
X158361304Y-101230350D01*
X158357242Y-101228473D01*
X158233145Y-101171132D01*
X158233143Y-101171131D01*
X158229076Y-101169252D01*
X158160467Y-101148734D01*
X158096156Y-101129501D01*
X158096151Y-101129500D01*
X158091858Y-101128216D01*
X158087426Y-101127554D01*
X158087423Y-101127553D01*
X157952235Y-101107350D01*
X157952232Y-101107350D01*
X157947804Y-101106688D01*
X157873145Y-101106232D01*
X157809055Y-101105840D01*
X157809050Y-101105840D01*
X157804583Y-101105813D01*
X157802139Y-101106148D01*
X157798344Y-101106271D01*
X157718706Y-101106271D01*
X157650585Y-101086269D01*
X157604092Y-101032613D01*
X157593988Y-100962339D01*
X157623482Y-100897759D01*
X157672323Y-100863119D01*
X157699912Y-100852196D01*
X157711142Y-100848351D01*
X157745983Y-100838229D01*
X157745984Y-100838229D01*
X157753593Y-100836018D01*
X157760412Y-100831985D01*
X157760417Y-100831983D01*
X157771028Y-100825707D01*
X157788776Y-100817012D01*
X157807617Y-100809552D01*
X157843387Y-100783564D01*
X157853307Y-100777048D01*
X157867216Y-100768822D01*
X157891362Y-100754542D01*
X157896969Y-100748936D01*
X157905685Y-100740220D01*
X157920719Y-100727379D01*
X157930695Y-100720131D01*
X157930696Y-100720130D01*
X157937107Y-100715472D01*
X157965288Y-100681407D01*
X157973278Y-100672626D01*
X158192258Y-100453647D01*
X158200537Y-100446113D01*
X158207018Y-100442000D01*
X158253645Y-100392347D01*
X158256399Y-100389506D01*
X158276135Y-100369770D01*
X158278615Y-100366573D01*
X158286320Y-100357551D01*
X158306590Y-100335966D01*
X158316586Y-100325321D01*
X158320405Y-100318375D01*
X158320407Y-100318372D01*
X158326348Y-100307566D01*
X158337199Y-100291047D01*
X158337559Y-100290583D01*
X158349614Y-100275041D01*
X158352759Y-100267772D01*
X158352762Y-100267768D01*
X158367174Y-100234463D01*
X158372391Y-100223813D01*
X158393695Y-100185060D01*
X158398733Y-100165437D01*
X158405137Y-100146734D01*
X158410033Y-100135420D01*
X158410033Y-100135419D01*
X158413181Y-100128145D01*
X158414420Y-100120322D01*
X158414423Y-100120312D01*
X158420099Y-100084476D01*
X158422505Y-100072856D01*
X158431528Y-100037711D01*
X158431528Y-100037710D01*
X158433500Y-100030030D01*
X158433500Y-100009776D01*
X158435051Y-99990065D01*
X158436980Y-99977886D01*
X158438220Y-99970057D01*
X158434243Y-99927984D01*
X160437730Y-99927984D01*
X160437883Y-99932372D01*
X160437883Y-99932378D01*
X160447503Y-100207840D01*
X160447777Y-100215697D01*
X160448540Y-100220021D01*
X160448540Y-100220026D01*
X160468126Y-100331100D01*
X160497769Y-100499212D01*
X160586731Y-100773011D01*
X160588659Y-100776964D01*
X160588661Y-100776969D01*
X160630680Y-100863119D01*
X160712933Y-101031763D01*
X160715388Y-101035402D01*
X160715391Y-101035408D01*
X160871459Y-101266788D01*
X160871464Y-101266795D01*
X160873919Y-101270434D01*
X160876863Y-101273703D01*
X160876864Y-101273705D01*
X160994184Y-101404002D01*
X161066554Y-101484377D01*
X161287089Y-101669428D01*
X161531233Y-101821986D01*
X161794232Y-101939081D01*
X162070969Y-102018434D01*
X162075316Y-102019045D01*
X162075321Y-102019046D01*
X162213512Y-102038467D01*
X162356056Y-102058500D01*
X162571890Y-102058500D01*
X162574076Y-102058347D01*
X162574080Y-102058347D01*
X162782802Y-102043752D01*
X162782807Y-102043751D01*
X162787187Y-102043445D01*
X163068785Y-101983589D01*
X163072914Y-101982086D01*
X163072918Y-101982085D01*
X163335167Y-101886635D01*
X163335171Y-101886633D01*
X163339312Y-101885126D01*
X163593503Y-101749970D01*
X163663810Y-101698889D01*
X163822847Y-101583342D01*
X163822850Y-101583340D01*
X163826410Y-101580753D01*
X163897085Y-101512503D01*
X164030337Y-101383823D01*
X164030340Y-101383819D01*
X164033499Y-101380769D01*
X164058951Y-101348193D01*
X164208033Y-101157376D01*
X164210741Y-101153910D01*
X164295932Y-101006355D01*
X164352481Y-100908411D01*
X164352484Y-100908406D01*
X164354686Y-100904591D01*
X164356336Y-100900507D01*
X164356339Y-100900501D01*
X164449479Y-100669970D01*
X164462531Y-100637665D01*
X164532177Y-100358328D01*
X164533079Y-100349753D01*
X164561811Y-100076385D01*
X164561811Y-100076382D01*
X164562270Y-100072016D01*
X164562117Y-100067622D01*
X164552377Y-99788700D01*
X164552376Y-99788694D01*
X164552223Y-99784303D01*
X164549136Y-99766793D01*
X164511125Y-99551226D01*
X164502231Y-99500788D01*
X164413269Y-99226989D01*
X164409732Y-99219736D01*
X164334993Y-99066500D01*
X164287067Y-98968237D01*
X164284612Y-98964598D01*
X164284609Y-98964592D01*
X164128541Y-98733212D01*
X164128536Y-98733205D01*
X164126081Y-98729566D01*
X164115320Y-98717614D01*
X163936394Y-98518897D01*
X163936393Y-98518896D01*
X163933446Y-98515623D01*
X163712911Y-98330572D01*
X163468767Y-98178014D01*
X163205768Y-98060919D01*
X162929031Y-97981566D01*
X162924684Y-97980955D01*
X162924679Y-97980954D01*
X162757563Y-97957468D01*
X162643944Y-97941500D01*
X162428110Y-97941500D01*
X162425924Y-97941653D01*
X162425920Y-97941653D01*
X162217198Y-97956248D01*
X162217193Y-97956249D01*
X162212813Y-97956555D01*
X161931215Y-98016411D01*
X161927086Y-98017914D01*
X161927082Y-98017915D01*
X161664833Y-98113365D01*
X161664829Y-98113367D01*
X161660688Y-98114874D01*
X161406497Y-98250030D01*
X161402938Y-98252616D01*
X161402936Y-98252617D01*
X161265743Y-98352294D01*
X161173590Y-98419247D01*
X161170426Y-98422303D01*
X161170423Y-98422305D01*
X160969663Y-98616177D01*
X160969660Y-98616181D01*
X160966501Y-98619231D01*
X160963795Y-98622695D01*
X160963791Y-98622699D01*
X160849780Y-98768627D01*
X160789259Y-98846090D01*
X160782697Y-98857456D01*
X160656029Y-99076851D01*
X160645314Y-99095409D01*
X160643664Y-99099493D01*
X160643661Y-99099499D01*
X160594795Y-99220448D01*
X160537469Y-99362335D01*
X160536405Y-99366604D01*
X160536404Y-99366606D01*
X160482212Y-99583959D01*
X160467823Y-99641672D01*
X160467364Y-99646042D01*
X160467363Y-99646046D01*
X160439181Y-99914181D01*
X160437730Y-99927984D01*
X158434243Y-99927984D01*
X158434059Y-99926038D01*
X158433500Y-99914181D01*
X158433500Y-99600713D01*
X158453502Y-99532592D01*
X158479016Y-99503768D01*
X158500093Y-99486270D01*
X158500095Y-99486268D01*
X158503540Y-99483408D01*
X158599654Y-99377224D01*
X158609697Y-99362335D01*
X158678599Y-99260183D01*
X158678602Y-99260178D01*
X158681107Y-99256464D01*
X158743554Y-99127572D01*
X158787838Y-98988812D01*
X158811600Y-98847574D01*
X158818682Y-98768627D01*
X158818833Y-98756285D01*
X158813995Y-98681964D01*
X158813729Y-98673779D01*
X158813729Y-98329481D01*
X158814233Y-98318223D01*
X158814589Y-98314249D01*
X158818682Y-98268627D01*
X158818833Y-98256285D01*
X158815045Y-98198097D01*
X158813841Y-98179592D01*
X158813840Y-98179582D01*
X158813683Y-98177171D01*
X158805058Y-98116944D01*
X158794016Y-98039839D01*
X158794015Y-98039833D01*
X158793379Y-98035394D01*
X158777639Y-97981566D01*
X158753755Y-97899892D01*
X158752497Y-97895590D01*
X158693217Y-97765211D01*
X158690805Y-97761440D01*
X158690801Y-97761432D01*
X158617157Y-97646279D01*
X158617156Y-97646278D01*
X158614742Y-97642503D01*
X158521252Y-97534002D01*
X158411489Y-97438250D01*
X158404538Y-97433744D01*
X158295062Y-97362786D01*
X158291304Y-97360350D01*
X158283630Y-97356804D01*
X158163145Y-97301132D01*
X158163143Y-97301131D01*
X158159076Y-97299252D01*
X158090467Y-97278734D01*
X158026156Y-97259501D01*
X158026151Y-97259500D01*
X158021858Y-97258216D01*
X158017426Y-97257554D01*
X158017423Y-97257553D01*
X157882235Y-97237350D01*
X157882232Y-97237350D01*
X157877804Y-97236688D01*
X157803145Y-97236232D01*
X157739055Y-97235840D01*
X157739050Y-97235840D01*
X157734583Y-97235813D01*
X157732139Y-97236148D01*
X157728344Y-97236271D01*
X157388814Y-97236271D01*
X157320693Y-97216269D01*
X157274200Y-97162613D01*
X157262814Y-97110271D01*
X157262814Y-97106565D01*
X157263504Y-97100000D01*
X157243542Y-96910072D01*
X157184527Y-96728444D01*
X157089040Y-96563056D01*
X156961253Y-96421134D01*
X156806752Y-96308882D01*
X156800724Y-96306198D01*
X156800722Y-96306197D01*
X156638319Y-96233891D01*
X156638318Y-96233891D01*
X156632288Y-96231206D01*
X156538888Y-96211353D01*
X156451944Y-96192872D01*
X156451939Y-96192872D01*
X156445487Y-96191500D01*
X156254513Y-96191500D01*
X156248061Y-96192872D01*
X156248056Y-96192872D01*
X156161112Y-96211353D01*
X156067712Y-96231206D01*
X156061682Y-96233891D01*
X156061681Y-96233891D01*
X155899278Y-96306197D01*
X155899276Y-96306198D01*
X155893248Y-96308882D01*
X155738747Y-96421134D01*
X155610960Y-96563056D01*
X155515473Y-96728444D01*
X155456458Y-96910072D01*
X155436496Y-97100000D01*
X155437186Y-97106565D01*
X155437186Y-97110271D01*
X155417184Y-97178392D01*
X155363528Y-97224885D01*
X155311186Y-97236271D01*
X155209992Y-97236271D01*
X155209222Y-97236269D01*
X155139069Y-97235840D01*
X155139063Y-97235840D01*
X155134583Y-97235813D01*
X155050493Y-97247331D01*
X154994724Y-97254970D01*
X154994720Y-97254971D01*
X154990273Y-97255580D01*
X154852564Y-97294937D01*
X154719602Y-97354414D01*
X154715820Y-97356800D01*
X154715813Y-97356804D01*
X154647352Y-97400000D01*
X154598474Y-97430840D01*
X154487548Y-97525246D01*
X154484577Y-97528610D01*
X154484576Y-97528611D01*
X154426725Y-97594115D01*
X154366640Y-97631933D01*
X154295646Y-97631263D01*
X154246032Y-97602558D01*
X154226100Y-97583841D01*
X154220321Y-97578414D01*
X154213375Y-97574595D01*
X154213372Y-97574593D01*
X154202566Y-97568652D01*
X154186047Y-97557801D01*
X154185583Y-97557441D01*
X154170041Y-97545386D01*
X154162772Y-97542241D01*
X154162768Y-97542238D01*
X154129463Y-97527826D01*
X154118813Y-97522609D01*
X154080060Y-97501305D01*
X154060437Y-97496267D01*
X154041734Y-97489863D01*
X154030420Y-97484967D01*
X154030419Y-97484967D01*
X154023145Y-97481819D01*
X154015322Y-97480580D01*
X154015312Y-97480577D01*
X153979476Y-97474901D01*
X153967856Y-97472495D01*
X153932711Y-97463472D01*
X153932710Y-97463472D01*
X153925030Y-97461500D01*
X153917556Y-97461500D01*
X153852665Y-97433200D01*
X153813262Y-97374140D01*
X153808222Y-97349744D01*
X153794232Y-97216635D01*
X153794232Y-97216633D01*
X153793542Y-97210072D01*
X153734527Y-97028444D01*
X153639040Y-96863056D01*
X153511253Y-96721134D01*
X153356752Y-96608882D01*
X153350724Y-96606198D01*
X153350722Y-96606197D01*
X153188319Y-96533891D01*
X153188318Y-96533891D01*
X153182288Y-96531206D01*
X153088887Y-96511353D01*
X153001944Y-96492872D01*
X153001939Y-96492872D01*
X152995487Y-96491500D01*
X152804513Y-96491500D01*
X152798061Y-96492872D01*
X152798056Y-96492872D01*
X152711113Y-96511353D01*
X152617712Y-96531206D01*
X152611682Y-96533891D01*
X152611681Y-96533891D01*
X152449278Y-96606197D01*
X152449276Y-96606198D01*
X152443248Y-96608882D01*
X152288747Y-96721134D01*
X152160960Y-96863056D01*
X152065473Y-97028444D01*
X152016752Y-97178392D01*
X152009914Y-97199436D01*
X151969840Y-97258042D01*
X151904444Y-97285679D01*
X151890081Y-97286500D01*
X151783498Y-97286500D01*
X151781050Y-97286693D01*
X151781042Y-97286693D01*
X151752579Y-97288933D01*
X151752574Y-97288934D01*
X151746169Y-97289438D01*
X151646231Y-97318472D01*
X151594012Y-97333643D01*
X151594010Y-97333644D01*
X151586399Y-97335855D01*
X151579572Y-97339892D01*
X151579573Y-97339892D01*
X151450020Y-97416509D01*
X151450017Y-97416511D01*
X151443193Y-97420547D01*
X151343915Y-97519825D01*
X151281607Y-97553848D01*
X151210791Y-97548784D01*
X151165728Y-97519823D01*
X145153652Y-91507747D01*
X145146112Y-91499461D01*
X145142000Y-91492982D01*
X145092348Y-91446356D01*
X145089507Y-91443602D01*
X145069770Y-91423865D01*
X145066573Y-91421385D01*
X145057551Y-91413680D01*
X145031100Y-91388841D01*
X145025321Y-91383414D01*
X145018375Y-91379595D01*
X145018372Y-91379593D01*
X145007566Y-91373652D01*
X144991047Y-91362801D01*
X144988316Y-91360683D01*
X144975041Y-91350386D01*
X144967772Y-91347241D01*
X144967768Y-91347238D01*
X144934463Y-91332826D01*
X144923813Y-91327609D01*
X144885060Y-91306305D01*
X144865437Y-91301267D01*
X144846734Y-91294863D01*
X144835420Y-91289967D01*
X144835419Y-91289967D01*
X144828145Y-91286819D01*
X144820322Y-91285580D01*
X144820312Y-91285577D01*
X144784476Y-91279901D01*
X144772856Y-91277495D01*
X144737711Y-91268472D01*
X144737710Y-91268472D01*
X144730030Y-91266500D01*
X144709776Y-91266500D01*
X144690065Y-91264949D01*
X144677886Y-91263020D01*
X144670057Y-91261780D01*
X144662165Y-91262526D01*
X144626039Y-91265941D01*
X144614181Y-91266500D01*
X142163940Y-91266500D01*
X142095819Y-91246498D01*
X142074845Y-91229595D01*
X141593871Y-90748621D01*
X141559845Y-90686309D01*
X141559302Y-90635376D01*
X141592877Y-90463453D01*
X141592878Y-90463447D01*
X141593899Y-90458217D01*
X141594612Y-90427984D01*
X147937730Y-90427984D01*
X147937883Y-90432372D01*
X147937883Y-90432378D01*
X147946751Y-90686309D01*
X147947777Y-90715697D01*
X147997769Y-90999212D01*
X148086731Y-91273011D01*
X148088659Y-91276964D01*
X148088661Y-91276969D01*
X148132093Y-91366017D01*
X148212933Y-91531763D01*
X148215388Y-91535402D01*
X148215391Y-91535408D01*
X148371459Y-91766788D01*
X148371464Y-91766795D01*
X148373919Y-91770434D01*
X148376863Y-91773703D01*
X148376864Y-91773705D01*
X148383546Y-91781126D01*
X148566554Y-91984377D01*
X148787089Y-92169428D01*
X149031233Y-92321986D01*
X149176437Y-92386635D01*
X149276354Y-92431121D01*
X149294232Y-92439081D01*
X149298460Y-92440293D01*
X149298459Y-92440293D01*
X149552650Y-92513181D01*
X149570969Y-92518434D01*
X149575316Y-92519045D01*
X149575321Y-92519046D01*
X149689206Y-92535051D01*
X149856056Y-92558500D01*
X150071890Y-92558500D01*
X150074076Y-92558347D01*
X150074080Y-92558347D01*
X150282802Y-92543752D01*
X150282807Y-92543751D01*
X150287187Y-92543445D01*
X150568785Y-92483589D01*
X150572914Y-92482086D01*
X150572918Y-92482085D01*
X150835167Y-92386635D01*
X150835171Y-92386633D01*
X150839312Y-92385126D01*
X151093503Y-92249970D01*
X151201150Y-92171760D01*
X151322847Y-92083342D01*
X151322850Y-92083340D01*
X151326410Y-92080753D01*
X151329577Y-92077695D01*
X151530337Y-91883823D01*
X151530340Y-91883819D01*
X151533499Y-91880769D01*
X151543661Y-91867763D01*
X151689765Y-91680759D01*
X151710741Y-91653910D01*
X151806785Y-91487557D01*
X151852481Y-91408411D01*
X151852484Y-91408406D01*
X151854686Y-91404591D01*
X151856336Y-91400507D01*
X151856339Y-91400501D01*
X151960882Y-91141746D01*
X151962531Y-91137665D01*
X152032177Y-90858328D01*
X152046714Y-90720026D01*
X152061811Y-90576385D01*
X152061811Y-90576382D01*
X152062270Y-90572016D01*
X152058479Y-90463453D01*
X152052377Y-90288700D01*
X152052376Y-90288694D01*
X152052223Y-90284303D01*
X152048843Y-90265131D01*
X152018014Y-90090299D01*
X152002231Y-90000788D01*
X151913269Y-89726989D01*
X151787067Y-89468237D01*
X151784612Y-89464598D01*
X151784609Y-89464592D01*
X151628541Y-89233212D01*
X151628536Y-89233205D01*
X151626081Y-89229566D01*
X151433446Y-89015623D01*
X151212911Y-88830572D01*
X150968767Y-88678014D01*
X150783984Y-88595743D01*
X150709782Y-88562706D01*
X150709780Y-88562705D01*
X150705768Y-88560919D01*
X150429031Y-88481566D01*
X150424684Y-88480955D01*
X150424679Y-88480954D01*
X150257563Y-88457468D01*
X150143944Y-88441500D01*
X149928110Y-88441500D01*
X149925924Y-88441653D01*
X149925920Y-88441653D01*
X149717198Y-88456248D01*
X149717193Y-88456249D01*
X149712813Y-88456555D01*
X149431215Y-88516411D01*
X149427086Y-88517914D01*
X149427082Y-88517915D01*
X149164833Y-88613365D01*
X149164829Y-88613367D01*
X149160688Y-88614874D01*
X148906497Y-88750030D01*
X148902938Y-88752616D01*
X148902936Y-88752617D01*
X148691515Y-88906224D01*
X148673590Y-88919247D01*
X148670426Y-88922303D01*
X148670423Y-88922305D01*
X148469663Y-89116177D01*
X148469660Y-89116181D01*
X148466501Y-89119231D01*
X148463795Y-89122695D01*
X148463791Y-89122699D01*
X148377449Y-89233212D01*
X148289259Y-89346090D01*
X148220842Y-89464592D01*
X148164424Y-89562310D01*
X148145314Y-89595409D01*
X148143664Y-89599493D01*
X148143661Y-89599499D01*
X148095291Y-89719220D01*
X148037469Y-89862335D01*
X148036405Y-89866604D01*
X148036404Y-89866606D01*
X148016511Y-89946392D01*
X147967823Y-90141672D01*
X147967364Y-90146042D01*
X147967363Y-90146046D01*
X147952244Y-90289890D01*
X147937730Y-90427984D01*
X141594612Y-90427984D01*
X141598449Y-90265131D01*
X141599410Y-90224341D01*
X141593206Y-90182071D01*
X141603103Y-90111768D01*
X141649439Y-90057976D01*
X141717501Y-90037775D01*
X141756910Y-90043975D01*
X141799874Y-90057976D01*
X141904136Y-90091953D01*
X142135596Y-90125925D01*
X142238189Y-90123508D01*
X142364137Y-90120540D01*
X142364141Y-90120540D01*
X142369471Y-90120414D01*
X142374701Y-90119393D01*
X142374707Y-90119392D01*
X142593843Y-90076598D01*
X142593846Y-90076597D01*
X142599075Y-90075576D01*
X142817839Y-89992692D01*
X143019513Y-89874134D01*
X143198327Y-89723292D01*
X143349169Y-89544478D01*
X143467727Y-89342805D01*
X143550609Y-89124039D01*
X143551632Y-89118802D01*
X143593449Y-88904670D01*
X143626137Y-88841646D01*
X143687709Y-88806299D01*
X143758616Y-88809852D01*
X143782854Y-88821330D01*
X143860995Y-88869121D01*
X143877320Y-88876152D01*
X144000447Y-88909490D01*
X144018086Y-88911656D01*
X144145626Y-88909095D01*
X144163159Y-88906224D01*
X144285878Y-88867649D01*
X144300131Y-88861115D01*
X144343615Y-88834154D01*
X144349217Y-88830246D01*
X144855551Y-88434654D01*
X144864807Y-88421743D01*
X144864900Y-88419905D01*
X144861488Y-88412824D01*
X143955667Y-87253425D01*
X143927222Y-87217018D01*
X143927221Y-87217016D01*
X143794680Y-87047371D01*
X144441461Y-87047371D01*
X144444873Y-87054452D01*
X145258983Y-88096466D01*
X145271894Y-88105722D01*
X145273732Y-88105815D01*
X145280813Y-88102403D01*
X145790759Y-87703988D01*
X145795885Y-87699518D01*
X145832578Y-87663836D01*
X145842368Y-87651584D01*
X145909481Y-87541848D01*
X145916510Y-87525527D01*
X145949849Y-87402398D01*
X145952015Y-87384758D01*
X145949455Y-87257217D01*
X145946584Y-87239686D01*
X145908009Y-87116967D01*
X145901475Y-87102714D01*
X145874514Y-87059230D01*
X145870606Y-87053628D01*
X145333412Y-86366051D01*
X145320501Y-86356795D01*
X145318663Y-86356702D01*
X145311582Y-86360114D01*
X144450810Y-87032623D01*
X144441554Y-87045533D01*
X144441461Y-87047371D01*
X143794680Y-87047371D01*
X142901017Y-85903534D01*
X142888106Y-85894278D01*
X142886268Y-85894185D01*
X142879187Y-85897597D01*
X142369241Y-86296012D01*
X142364115Y-86300482D01*
X142327422Y-86336164D01*
X142317632Y-86348416D01*
X142250519Y-86458152D01*
X142243490Y-86474473D01*
X142210151Y-86597602D01*
X142207985Y-86615242D01*
X142210545Y-86742783D01*
X142213416Y-86760315D01*
X142242001Y-86851251D01*
X142243347Y-86922235D01*
X142206103Y-86982678D01*
X142142093Y-87013390D01*
X142103505Y-87013699D01*
X142053839Y-87006409D01*
X142026592Y-87002410D01*
X142026589Y-87002410D01*
X142021310Y-87001635D01*
X141918717Y-87004052D01*
X141792769Y-87007020D01*
X141792765Y-87007020D01*
X141787435Y-87007146D01*
X141782205Y-87008167D01*
X141782199Y-87008168D01*
X141563063Y-87050962D01*
X141563060Y-87050963D01*
X141557831Y-87051984D01*
X141339067Y-87134868D01*
X141137393Y-87253425D01*
X140958579Y-87404267D01*
X140955144Y-87408339D01*
X140842521Y-87541848D01*
X140807737Y-87583082D01*
X140805035Y-87587678D01*
X140805033Y-87587681D01*
X140760264Y-87663836D01*
X140689179Y-87784755D01*
X140606297Y-88003521D01*
X140605276Y-88008752D01*
X140605274Y-88008757D01*
X140562481Y-88227887D01*
X140562480Y-88227893D01*
X140561459Y-88233123D01*
X140555948Y-88466998D01*
X140558086Y-88481566D01*
X140562152Y-88509269D01*
X140552254Y-88579573D01*
X140505919Y-88633364D01*
X140437857Y-88653565D01*
X140398448Y-88647365D01*
X140256297Y-88601041D01*
X140256299Y-88601041D01*
X140251222Y-88599387D01*
X140019762Y-88565415D01*
X139917169Y-88567832D01*
X139791221Y-88570800D01*
X139791217Y-88570800D01*
X139785887Y-88570926D01*
X139780657Y-88571947D01*
X139780651Y-88571948D01*
X139561515Y-88614742D01*
X139561512Y-88614743D01*
X139556283Y-88615764D01*
X139337519Y-88698648D01*
X139135845Y-88817205D01*
X138957031Y-88968047D01*
X138953596Y-88972119D01*
X138825442Y-89124039D01*
X138806189Y-89146862D01*
X138803487Y-89151458D01*
X138803485Y-89151461D01*
X138755426Y-89233212D01*
X138687631Y-89348535D01*
X138604749Y-89567301D01*
X138603728Y-89572532D01*
X138603726Y-89572537D01*
X138560933Y-89791667D01*
X138560932Y-89791673D01*
X138559911Y-89796903D01*
X138559785Y-89802233D01*
X138559785Y-89802237D01*
X138558172Y-89870689D01*
X138554400Y-90030778D01*
X138555176Y-90036063D01*
X138560604Y-90073049D01*
X138550706Y-90143353D01*
X138504371Y-90197144D01*
X138436309Y-90217345D01*
X138396900Y-90211145D01*
X138390623Y-90209100D01*
X138249675Y-90163167D01*
X138018215Y-90129195D01*
X137915622Y-90131612D01*
X137789674Y-90134580D01*
X137789670Y-90134580D01*
X137784340Y-90134706D01*
X137779110Y-90135727D01*
X137779104Y-90135728D01*
X137559968Y-90178522D01*
X137559965Y-90178523D01*
X137554736Y-90179544D01*
X137335972Y-90262428D01*
X137134298Y-90380985D01*
X136955484Y-90531827D01*
X136952049Y-90535899D01*
X136823895Y-90687819D01*
X136804642Y-90710642D01*
X136686084Y-90912315D01*
X136603202Y-91131081D01*
X136602181Y-91136312D01*
X136602179Y-91136317D01*
X136559386Y-91355447D01*
X136559385Y-91355453D01*
X136558364Y-91360683D01*
X136552853Y-91594558D01*
X136559058Y-91636833D01*
X136549159Y-91707134D01*
X136502823Y-91760925D01*
X136434761Y-91781126D01*
X136395353Y-91774926D01*
X136370381Y-91766788D01*
X136248128Y-91726948D01*
X136016668Y-91692976D01*
X135914075Y-91695393D01*
X135788127Y-91698361D01*
X135788123Y-91698361D01*
X135782793Y-91698487D01*
X135777563Y-91699508D01*
X135777557Y-91699509D01*
X135558421Y-91742303D01*
X135558418Y-91742304D01*
X135553189Y-91743325D01*
X135334425Y-91826209D01*
X135132751Y-91944766D01*
X134953937Y-92095608D01*
X134950502Y-92099680D01*
X134822349Y-92251599D01*
X134803095Y-92274423D01*
X134800393Y-92279019D01*
X134800391Y-92279022D01*
X134700105Y-92449614D01*
X134684537Y-92476096D01*
X134601655Y-92694862D01*
X134600634Y-92700093D01*
X134600632Y-92700098D01*
X134557839Y-92919228D01*
X134557838Y-92919234D01*
X134556817Y-92924464D01*
X134551306Y-93158339D01*
X131462452Y-93158339D01*
X130839258Y-90532869D01*
X130842987Y-90461972D01*
X130885313Y-90403682D01*
X130939817Y-90362003D01*
X137193082Y-85580095D01*
X143295100Y-85580095D01*
X143298512Y-85587176D01*
X144112622Y-86629190D01*
X144125533Y-86638446D01*
X144127371Y-86638539D01*
X144134452Y-86635127D01*
X144995223Y-85962619D01*
X145004479Y-85949708D01*
X145004572Y-85947870D01*
X145001160Y-85940789D01*
X144461151Y-85249609D01*
X144456664Y-85244465D01*
X144420990Y-85207780D01*
X144408743Y-85197995D01*
X144299004Y-85130879D01*
X144282680Y-85123848D01*
X144159553Y-85090510D01*
X144141914Y-85088344D01*
X144014374Y-85090905D01*
X143996841Y-85093776D01*
X143874122Y-85132351D01*
X143859869Y-85138885D01*
X143816385Y-85165846D01*
X143810783Y-85169754D01*
X143304449Y-85565346D01*
X143295193Y-85578257D01*
X143295100Y-85580095D01*
X137193082Y-85580095D01*
X142925673Y-81196349D01*
X142991936Y-81170858D01*
X143061461Y-81185237D01*
G37*
G04 #@! TD.AperFunction*
M02*
