G04 #@! TF.GenerationSoftware,KiCad,Pcbnew,6.0.2+dfsg-1*
G04 #@! TF.CreationDate,2023-01-26T22:51:51-08:00*
G04 #@! TF.ProjectId,rp2040_encoder,72703230-3430-45f6-956e-636f6465722e,rev?*
G04 #@! TF.SameCoordinates,Original*
G04 #@! TF.FileFunction,Copper,L2,Bot*
G04 #@! TF.FilePolarity,Positive*
%FSLAX46Y46*%
G04 Gerber Fmt 4.6, Leading zero omitted, Abs format (unit mm)*
G04 Created by KiCad (PCBNEW 6.0.2+dfsg-1) date 2023-01-26 22:51:51*
%MOMM*%
%LPD*%
G01*
G04 APERTURE LIST*
G04 Aperture macros list*
%AMHorizOval*
0 Thick line with rounded ends*
0 $1 width*
0 $2 $3 position (X,Y) of the first rounded end (center of the circle)*
0 $4 $5 position (X,Y) of the second rounded end (center of the circle)*
0 Add line between two ends*
20,1,$1,$2,$3,$4,$5,0*
0 Add two circle primitives to create the rounded ends*
1,1,$1,$2,$3*
1,1,$1,$4,$5*%
%AMRotRect*
0 Rectangle, with rotation*
0 The origin of the aperture is its center*
0 $1 length*
0 $2 width*
0 $3 Rotation angle, in degrees counterclockwise*
0 Add horizontal line*
21,1,$1,$2,0,0,$3*%
G04 Aperture macros list end*
G04 #@! TA.AperFunction,ComponentPad*
%ADD10RotRect,1.740000X2.200000X218.000000*%
G04 #@! TD*
G04 #@! TA.AperFunction,ComponentPad*
%ADD11HorizOval,1.740000X-0.141602X0.181242X0.141602X-0.181242X0*%
G04 #@! TD*
G04 #@! TA.AperFunction,ViaPad*
%ADD12C,0.800000*%
G04 #@! TD*
G04 #@! TA.AperFunction,Conductor*
%ADD13C,0.250000*%
G04 #@! TD*
G04 APERTURE END LIST*
D10*
X144080000Y-87000000D03*
D11*
X142078453Y-88563780D03*
X140076905Y-90127560D03*
X138075358Y-91691340D03*
X136073811Y-93255121D03*
D12*
X143000000Y-94600000D03*
X143744053Y-107212911D03*
X158912299Y-98087701D03*
X153000000Y-94200000D03*
X159900000Y-93000000D03*
X142800000Y-90800000D03*
X144200000Y-99500000D03*
X146100000Y-102175500D03*
X148597062Y-87384013D03*
X153400000Y-92024500D03*
X157600000Y-106800000D03*
X156100000Y-95250000D03*
X140700000Y-92300000D03*
X157546241Y-103335406D03*
X144931127Y-103355725D03*
X153200000Y-96800000D03*
X150700000Y-96900000D03*
X141500000Y-99700000D03*
X145200000Y-91200000D03*
X158407788Y-95517547D03*
X153600000Y-98200000D03*
X141100000Y-85900000D03*
X152212299Y-87987701D03*
X157400000Y-101200000D03*
X148722259Y-101270984D03*
X152604500Y-102804500D03*
X156323132Y-101953210D03*
X147200000Y-87500000D03*
X161600000Y-95800000D03*
X156600000Y-91700000D03*
X148462498Y-102736246D03*
X153700000Y-100900000D03*
X157200000Y-105800000D03*
X154950000Y-94850000D03*
X145600000Y-108200000D03*
X155100000Y-107100000D03*
X158987701Y-94212299D03*
X156800000Y-92800000D03*
X153600000Y-90000000D03*
X142893039Y-105759789D03*
X145600000Y-94900000D03*
D13*
X156100000Y-95250000D02*
X156100000Y-94400000D01*
X153200000Y-94000000D02*
X153000000Y-94200000D01*
X156100000Y-94400000D02*
X155700000Y-94000000D01*
X155700000Y-94000000D02*
X153200000Y-94000000D01*
X153200000Y-96800000D02*
X153100000Y-96900000D01*
X153100000Y-96900000D02*
X150700000Y-96900000D01*
X158407788Y-95517547D02*
X158312043Y-95517547D01*
X148100000Y-93800000D02*
X145500000Y-91200000D01*
X141800000Y-99400000D02*
X141800000Y-88842233D01*
X155794496Y-93000000D02*
X153000000Y-93000000D01*
X141500000Y-99700000D02*
X141800000Y-99400000D01*
X153000000Y-93000000D02*
X151500000Y-93800000D01*
X141863780Y-88563780D02*
X142078453Y-88563780D01*
X145500000Y-91200000D02*
X145200000Y-91200000D01*
X141800000Y-88842233D02*
X142078453Y-88563780D01*
X158312043Y-95517547D02*
X155794496Y-93000000D01*
X151500000Y-93800000D02*
X148100000Y-93800000D01*
X155700000Y-101200000D02*
X153600000Y-99100000D01*
X148722259Y-101270984D02*
X148751275Y-101300000D01*
X151300000Y-101300000D02*
X153600000Y-99000000D01*
X145400000Y-84500000D02*
X143200000Y-84500000D01*
X153600000Y-99000000D02*
X153600000Y-98200000D01*
X152212299Y-87987701D02*
X145400000Y-84500000D01*
X157400000Y-101200000D02*
X155700000Y-101200000D01*
X153600000Y-99100000D02*
X153600000Y-98200000D01*
X143200000Y-84500000D02*
X141100000Y-85900000D01*
X148751275Y-101300000D02*
X151300000Y-101300000D01*
X156323132Y-101953210D02*
X153746790Y-101953210D01*
X153746790Y-101953210D02*
X152900000Y-102800000D01*
X138075358Y-89700000D02*
X138075358Y-91691340D01*
X138075358Y-89700000D02*
X143600000Y-85300000D01*
X152900000Y-102800000D02*
X152604500Y-102800000D01*
X152604500Y-102800000D02*
X152600000Y-102804500D01*
X147100000Y-87500000D02*
X144873043Y-85273043D01*
X144000000Y-85200000D02*
X144873043Y-85273043D01*
X143600000Y-85300000D02*
X144000000Y-85200000D01*
X147200000Y-87500000D02*
X147100000Y-87500000D01*
X156600000Y-91700000D02*
X157500000Y-91700000D01*
X157500000Y-91700000D02*
X161600000Y-95800000D01*
X152600000Y-100900000D02*
X151500000Y-102000000D01*
X153700000Y-100900000D02*
X152600000Y-100900000D01*
X151500000Y-102000000D02*
X149198744Y-102000000D01*
X149198744Y-102000000D02*
X148462498Y-102736246D01*
X159400000Y-103600000D02*
X157200000Y-105800000D01*
X154950000Y-94850000D02*
X154950000Y-95650000D01*
X159400000Y-100100000D02*
X159400000Y-103600000D01*
X154950000Y-95650000D02*
X159400000Y-100100000D01*
X146500000Y-107300000D02*
X145600000Y-108200000D01*
X154900000Y-107300000D02*
X146500000Y-107300000D01*
X155100000Y-107100000D02*
X154900000Y-107300000D01*
X157725882Y-92950480D02*
X156700480Y-92950480D01*
X156700480Y-92950480D02*
X153750000Y-90000000D01*
X153750000Y-90000000D02*
X153600000Y-90000000D01*
X158987701Y-94212299D02*
X157725882Y-92950480D01*
X145600000Y-94900000D02*
X145600000Y-99800000D01*
X142700000Y-102700000D02*
X142700000Y-105566750D01*
X142700000Y-105566750D02*
X142893039Y-105759789D01*
X145600000Y-99800000D02*
X142700000Y-102700000D01*
G04 #@! TA.AperFunction,Conductor*
G36*
X143825709Y-80539920D02*
G01*
X143838659Y-80547774D01*
X150436475Y-85113227D01*
X165695696Y-95672064D01*
X165740332Y-95727274D01*
X165750000Y-95775677D01*
X165750000Y-102830132D01*
X165729998Y-102898253D01*
X165697489Y-102932481D01*
X151904209Y-112836349D01*
X151830720Y-112860000D01*
X148175465Y-112860000D01*
X148107344Y-112839998D01*
X148099820Y-112834766D01*
X146255864Y-111450500D01*
X141910948Y-108188753D01*
X144794514Y-108188753D01*
X144795201Y-108195760D01*
X144795201Y-108195763D01*
X144796285Y-108206817D01*
X144812039Y-108367486D01*
X144814262Y-108374168D01*
X144814262Y-108374169D01*
X144847685Y-108474642D01*
X144868726Y-108537896D01*
X144961759Y-108691512D01*
X144966648Y-108696575D01*
X144966649Y-108696576D01*
X144996584Y-108727574D01*
X145086514Y-108820699D01*
X145236789Y-108919036D01*
X145405116Y-108981636D01*
X145412097Y-108982567D01*
X145412099Y-108982568D01*
X145576149Y-109004457D01*
X145576153Y-109004457D01*
X145583130Y-109005388D01*
X145590142Y-109004750D01*
X145590146Y-109004750D01*
X145754960Y-108989751D01*
X145754961Y-108989751D01*
X145761981Y-108989112D01*
X145932782Y-108933615D01*
X145963714Y-108915176D01*
X146080992Y-108845265D01*
X146080994Y-108845264D01*
X146087044Y-108841657D01*
X146217099Y-108717807D01*
X146234570Y-108691512D01*
X146312582Y-108574093D01*
X146316483Y-108568222D01*
X146331168Y-108529564D01*
X146377757Y-108406919D01*
X146377758Y-108406914D01*
X146380257Y-108400336D01*
X146385859Y-108360476D01*
X146404700Y-108226416D01*
X146404700Y-108226411D01*
X146405251Y-108222493D01*
X146405565Y-108200000D01*
X146405165Y-108196435D01*
X146421799Y-108127498D01*
X146441901Y-108101268D01*
X146680764Y-107862405D01*
X146743076Y-107828379D01*
X146769859Y-107825500D01*
X148612924Y-107825500D01*
X148681045Y-107845502D01*
X148727538Y-107899158D01*
X148737642Y-107969432D01*
X148708148Y-108034012D01*
X148701333Y-108041276D01*
X148533171Y-108206817D01*
X148365594Y-108426396D01*
X148230627Y-108667396D01*
X148229023Y-108671541D01*
X148229022Y-108671544D01*
X148208967Y-108723384D01*
X148130964Y-108925009D01*
X148129961Y-108929334D01*
X148129960Y-108929339D01*
X148112549Y-109004457D01*
X148068593Y-109194095D01*
X148044759Y-109469285D01*
X148045003Y-109473720D01*
X148045003Y-109473724D01*
X148048384Y-109535147D01*
X148059938Y-109745087D01*
X148113825Y-110015999D01*
X148205347Y-110276616D01*
X148332678Y-110521737D01*
X148335261Y-110525352D01*
X148335265Y-110525358D01*
X148372272Y-110577144D01*
X148493275Y-110746471D01*
X148683936Y-110946335D01*
X148687431Y-110949091D01*
X148687433Y-110949092D01*
X148735469Y-110986960D01*
X148900856Y-111117341D01*
X148962559Y-111153181D01*
X149135853Y-111253839D01*
X149135859Y-111253842D01*
X149139707Y-111256077D01*
X149395723Y-111359774D01*
X149400036Y-111360845D01*
X149400041Y-111360847D01*
X149659475Y-111425291D01*
X149659480Y-111425292D01*
X149663796Y-111426364D01*
X149668224Y-111426818D01*
X149668226Y-111426818D01*
X149743339Y-111434514D01*
X149899370Y-111450500D01*
X150070362Y-111450500D01*
X150275530Y-111435973D01*
X150279885Y-111435035D01*
X150279888Y-111435035D01*
X150541215Y-111378773D01*
X150541217Y-111378773D01*
X150545562Y-111377837D01*
X150804709Y-111282233D01*
X150853185Y-111256077D01*
X151043884Y-111153181D01*
X151047800Y-111151068D01*
X151269984Y-110986960D01*
X151466829Y-110793183D01*
X151634406Y-110573604D01*
X151769373Y-110332604D01*
X151869036Y-110074991D01*
X151931407Y-109805905D01*
X151955241Y-109530715D01*
X151954997Y-109526276D01*
X151940307Y-109259356D01*
X151940306Y-109259349D01*
X151940062Y-109254913D01*
X151886175Y-108984001D01*
X151794653Y-108723384D01*
X151667322Y-108478263D01*
X151664739Y-108474648D01*
X151664735Y-108474642D01*
X151509313Y-108257150D01*
X151509310Y-108257146D01*
X151506725Y-108253529D01*
X151316064Y-108053665D01*
X151312571Y-108050912D01*
X151312563Y-108050904D01*
X151311984Y-108050448D01*
X151311843Y-108050249D01*
X151309272Y-108047910D01*
X151309783Y-108047349D01*
X151270872Y-107992566D01*
X151267580Y-107921646D01*
X151303153Y-107860204D01*
X151366297Y-107827748D01*
X151389992Y-107825500D01*
X154731498Y-107825500D01*
X154775418Y-107833402D01*
X154905116Y-107881636D01*
X154912097Y-107882567D01*
X154912099Y-107882568D01*
X155076149Y-107904457D01*
X155076153Y-107904457D01*
X155083130Y-107905388D01*
X155090142Y-107904750D01*
X155090146Y-107904750D01*
X155254960Y-107889751D01*
X155254961Y-107889751D01*
X155261981Y-107889112D01*
X155432782Y-107833615D01*
X155446395Y-107825500D01*
X155580992Y-107745265D01*
X155580994Y-107745264D01*
X155587044Y-107741657D01*
X155717099Y-107617807D01*
X155816483Y-107468222D01*
X155844225Y-107395191D01*
X155877757Y-107306919D01*
X155877758Y-107306914D01*
X155880257Y-107300336D01*
X155905251Y-107122493D01*
X155905565Y-107100000D01*
X155885546Y-106921528D01*
X155862376Y-106854991D01*
X155840617Y-106792509D01*
X155826485Y-106751927D01*
X155731316Y-106599625D01*
X155653726Y-106521492D01*
X155609733Y-106477190D01*
X155609729Y-106477187D01*
X155604770Y-106472193D01*
X155593761Y-106465206D01*
X155529708Y-106424557D01*
X155453136Y-106375963D01*
X155423352Y-106365357D01*
X155290586Y-106318081D01*
X155290581Y-106318080D01*
X155283951Y-106315719D01*
X155276965Y-106314886D01*
X155276961Y-106314885D01*
X155123411Y-106296576D01*
X155105624Y-106294455D01*
X155098621Y-106295191D01*
X155098620Y-106295191D01*
X154934025Y-106312490D01*
X154934021Y-106312491D01*
X154927017Y-106313227D01*
X154920346Y-106315498D01*
X154763677Y-106368832D01*
X154763674Y-106368833D01*
X154757007Y-106371103D01*
X154751009Y-106374793D01*
X154751007Y-106374794D01*
X154684628Y-106415631D01*
X154604045Y-106465206D01*
X154599014Y-106470132D01*
X154599011Y-106470135D01*
X154578933Y-106489797D01*
X154475732Y-106590859D01*
X154471915Y-106596782D01*
X154394597Y-106716756D01*
X154340882Y-106763180D01*
X154288686Y-106774500D01*
X146514426Y-106774500D01*
X146509149Y-106774389D01*
X146508553Y-106774364D01*
X146450081Y-106771913D01*
X146441715Y-106773875D01*
X146441716Y-106773875D01*
X146409908Y-106781335D01*
X146398238Y-106783498D01*
X146357354Y-106789099D01*
X146349474Y-106792509D01*
X146344649Y-106794597D01*
X146323380Y-106801631D01*
X146318271Y-106802829D01*
X146318269Y-106802830D01*
X146309907Y-106804791D01*
X146302381Y-106808929D01*
X146302377Y-106808930D01*
X146273747Y-106824670D01*
X146263102Y-106829886D01*
X146225217Y-106846280D01*
X146218540Y-106851687D01*
X146214460Y-106854991D01*
X146195870Y-106867483D01*
X146183737Y-106874153D01*
X146175995Y-106880836D01*
X146152791Y-106904040D01*
X146142991Y-106912865D01*
X146113325Y-106936888D01*
X146103194Y-106951144D01*
X146089587Y-106967244D01*
X145698473Y-107358358D01*
X145636161Y-107392384D01*
X145610570Y-107395045D01*
X145605624Y-107394455D01*
X145598621Y-107395191D01*
X145598620Y-107395191D01*
X145434025Y-107412490D01*
X145434021Y-107412491D01*
X145427017Y-107413227D01*
X145420346Y-107415498D01*
X145263677Y-107468832D01*
X145263674Y-107468833D01*
X145257007Y-107471103D01*
X145104045Y-107565206D01*
X145099014Y-107570132D01*
X145099011Y-107570135D01*
X145056326Y-107611936D01*
X144975732Y-107690859D01*
X144971913Y-107696784D01*
X144971912Y-107696786D01*
X144888962Y-107825500D01*
X144878446Y-107841817D01*
X144876037Y-107848437D01*
X144876035Y-107848440D01*
X144855647Y-107904457D01*
X144817022Y-108010578D01*
X144794514Y-108188753D01*
X141910948Y-108188753D01*
X138660385Y-105748542D01*
X142087553Y-105748542D01*
X142088240Y-105755549D01*
X142088240Y-105755552D01*
X142094416Y-105818532D01*
X142105078Y-105927275D01*
X142107301Y-105933957D01*
X142107301Y-105933958D01*
X142131572Y-106006919D01*
X142161765Y-106097685D01*
X142165412Y-106103707D01*
X142204484Y-106168222D01*
X142254798Y-106251301D01*
X142259687Y-106256364D01*
X142259688Y-106256365D01*
X142316201Y-106314885D01*
X142379553Y-106380488D01*
X142529828Y-106478825D01*
X142698155Y-106541425D01*
X142705136Y-106542356D01*
X142705138Y-106542357D01*
X142869188Y-106564246D01*
X142869192Y-106564246D01*
X142876169Y-106565177D01*
X142883181Y-106564539D01*
X142883185Y-106564539D01*
X143047999Y-106549540D01*
X143048000Y-106549540D01*
X143055020Y-106548901D01*
X143225821Y-106493404D01*
X143250278Y-106478825D01*
X143374031Y-106405054D01*
X143374033Y-106405053D01*
X143380083Y-106401446D01*
X143510138Y-106277596D01*
X143527609Y-106251301D01*
X143605621Y-106133882D01*
X143609522Y-106128011D01*
X143655521Y-106006919D01*
X143670796Y-105966708D01*
X143670797Y-105966703D01*
X143673296Y-105960125D01*
X143678898Y-105920265D01*
X143697739Y-105786205D01*
X143697739Y-105786200D01*
X143698290Y-105782282D01*
X143698604Y-105759789D01*
X143678585Y-105581317D01*
X143672465Y-105563741D01*
X143652475Y-105506338D01*
X143619524Y-105411716D01*
X143610284Y-105396928D01*
X143528088Y-105265388D01*
X143524355Y-105259414D01*
X143427137Y-105161515D01*
X143402772Y-105136979D01*
X143402768Y-105136976D01*
X143397809Y-105131982D01*
X143283985Y-105059747D01*
X143237187Y-105006359D01*
X143225500Y-104953363D01*
X143225500Y-102969859D01*
X143245502Y-102901738D01*
X143262405Y-102880764D01*
X143418170Y-102724999D01*
X147657012Y-102724999D01*
X147657699Y-102732006D01*
X147657699Y-102732009D01*
X147658773Y-102742961D01*
X147674537Y-102903732D01*
X147676760Y-102910414D01*
X147676760Y-102910415D01*
X147685632Y-102937084D01*
X147731224Y-103074142D01*
X147734871Y-103080164D01*
X147794482Y-103178593D01*
X147824257Y-103227758D01*
X147949012Y-103356945D01*
X148099287Y-103455282D01*
X148267614Y-103517882D01*
X148274595Y-103518813D01*
X148274597Y-103518814D01*
X148438647Y-103540703D01*
X148438651Y-103540703D01*
X148445628Y-103541634D01*
X148452640Y-103540996D01*
X148452644Y-103540996D01*
X148617458Y-103525997D01*
X148617459Y-103525997D01*
X148624479Y-103525358D01*
X148795280Y-103469861D01*
X148863730Y-103429057D01*
X148943490Y-103381511D01*
X148943492Y-103381510D01*
X148949542Y-103377903D01*
X149079597Y-103254053D01*
X149097068Y-103227758D01*
X149175080Y-103110339D01*
X149178981Y-103104468D01*
X149226768Y-102978669D01*
X149240255Y-102943165D01*
X149240256Y-102943160D01*
X149242755Y-102936582D01*
X149256164Y-102841170D01*
X149267198Y-102762662D01*
X149267198Y-102762657D01*
X149267749Y-102758739D01*
X149268063Y-102736246D01*
X149267663Y-102732681D01*
X149284297Y-102663744D01*
X149304399Y-102637514D01*
X149379508Y-102562405D01*
X149441820Y-102528379D01*
X149468603Y-102525500D01*
X151485565Y-102525500D01*
X151490842Y-102525611D01*
X151549919Y-102528087D01*
X151590105Y-102518662D01*
X151601771Y-102516500D01*
X151634136Y-102512067D01*
X151634138Y-102512066D01*
X151642646Y-102510901D01*
X151650528Y-102507490D01*
X151658802Y-102505180D01*
X151659774Y-102508661D01*
X151713514Y-102502026D01*
X151777493Y-102532803D01*
X151814676Y-102593284D01*
X151818102Y-102642152D01*
X151799014Y-102793253D01*
X151816539Y-102971986D01*
X151818762Y-102978668D01*
X151818762Y-102978669D01*
X151864605Y-103116479D01*
X151873226Y-103142396D01*
X151876873Y-103148418D01*
X151940848Y-103254053D01*
X151966259Y-103296012D01*
X151971148Y-103301075D01*
X151971149Y-103301076D01*
X152028827Y-103360803D01*
X152091014Y-103425199D01*
X152241289Y-103523536D01*
X152409616Y-103586136D01*
X152416597Y-103587067D01*
X152416599Y-103587068D01*
X152580649Y-103608957D01*
X152580653Y-103608957D01*
X152587630Y-103609888D01*
X152594642Y-103609250D01*
X152594646Y-103609250D01*
X152759460Y-103594251D01*
X152759461Y-103594251D01*
X152766481Y-103593612D01*
X152937282Y-103538115D01*
X152969660Y-103518814D01*
X153085492Y-103449765D01*
X153085494Y-103449764D01*
X153091544Y-103446157D01*
X153221599Y-103322307D01*
X153239070Y-103296012D01*
X153284719Y-103227303D01*
X153320983Y-103172722D01*
X153342348Y-103116479D01*
X153371041Y-103072128D01*
X153927554Y-102515615D01*
X153989866Y-102481589D01*
X154016649Y-102478710D01*
X155664229Y-102478710D01*
X155732350Y-102498712D01*
X155754866Y-102517183D01*
X155809646Y-102573909D01*
X155959921Y-102672246D01*
X156128248Y-102734846D01*
X156135229Y-102735777D01*
X156135231Y-102735778D01*
X156299281Y-102757667D01*
X156299285Y-102757667D01*
X156306262Y-102758598D01*
X156313274Y-102757960D01*
X156313278Y-102757960D01*
X156478092Y-102742961D01*
X156478093Y-102742961D01*
X156485113Y-102742322D01*
X156655914Y-102686825D01*
X156694633Y-102663744D01*
X156804124Y-102598475D01*
X156804126Y-102598474D01*
X156810176Y-102594867D01*
X156940231Y-102471017D01*
X156945604Y-102462931D01*
X157020165Y-102350707D01*
X157039615Y-102321432D01*
X157077320Y-102222173D01*
X157100889Y-102160129D01*
X157100890Y-102160124D01*
X157103389Y-102153546D01*
X157111563Y-102095382D01*
X157140851Y-102030709D01*
X157200454Y-101992135D01*
X157253000Y-101988025D01*
X157282536Y-101991966D01*
X157376149Y-102004457D01*
X157376153Y-102004457D01*
X157383130Y-102005388D01*
X157390142Y-102004750D01*
X157390146Y-102004750D01*
X157554960Y-101989751D01*
X157554961Y-101989751D01*
X157561981Y-101989112D01*
X157732782Y-101933615D01*
X157826351Y-101877837D01*
X157880992Y-101845265D01*
X157880994Y-101845264D01*
X157887044Y-101841657D01*
X158017099Y-101717807D01*
X158116483Y-101568222D01*
X158134535Y-101520699D01*
X158177757Y-101406919D01*
X158177758Y-101406914D01*
X158180257Y-101400336D01*
X158194876Y-101296314D01*
X158204700Y-101226416D01*
X158204700Y-101226411D01*
X158205251Y-101222493D01*
X158205565Y-101200000D01*
X158185546Y-101021528D01*
X158126485Y-100851927D01*
X158079426Y-100776616D01*
X158035049Y-100705599D01*
X158031316Y-100699625D01*
X157911663Y-100579134D01*
X157909733Y-100577190D01*
X157909729Y-100577187D01*
X157904770Y-100572193D01*
X157893761Y-100565206D01*
X157822831Y-100520193D01*
X157753136Y-100475963D01*
X157723352Y-100465357D01*
X157590586Y-100418081D01*
X157590581Y-100418080D01*
X157583951Y-100415719D01*
X157576965Y-100414886D01*
X157576961Y-100414885D01*
X157449177Y-100399648D01*
X157405624Y-100394455D01*
X157398621Y-100395191D01*
X157398620Y-100395191D01*
X157234025Y-100412490D01*
X157234021Y-100412491D01*
X157227017Y-100413227D01*
X157220346Y-100415498D01*
X157063677Y-100468832D01*
X157063674Y-100468833D01*
X157057007Y-100471103D01*
X157051009Y-100474793D01*
X157051007Y-100474794D01*
X157031274Y-100486934D01*
X156904045Y-100565206D01*
X156829173Y-100638526D01*
X156766510Y-100671894D01*
X156741018Y-100674500D01*
X155969859Y-100674500D01*
X155901738Y-100654498D01*
X155880764Y-100637595D01*
X154177207Y-98934038D01*
X154143181Y-98871726D01*
X154148246Y-98800911D01*
X154179410Y-98753698D01*
X154211995Y-98722668D01*
X154211997Y-98722666D01*
X154217099Y-98717807D01*
X154316483Y-98568222D01*
X154337445Y-98513040D01*
X154377757Y-98406919D01*
X154377758Y-98406914D01*
X154380257Y-98400336D01*
X154385859Y-98360476D01*
X154404700Y-98226416D01*
X154404700Y-98226411D01*
X154405251Y-98222493D01*
X154405565Y-98200000D01*
X154385546Y-98021528D01*
X154326485Y-97851927D01*
X154231316Y-97699625D01*
X154153726Y-97621492D01*
X154109733Y-97577190D01*
X154109729Y-97577187D01*
X154104770Y-97572193D01*
X153953136Y-97475963D01*
X153910079Y-97460631D01*
X153852615Y-97418937D01*
X153826814Y-97352795D01*
X153840869Y-97283203D01*
X153847397Y-97272205D01*
X153912582Y-97174093D01*
X153916483Y-97168222D01*
X153931168Y-97129564D01*
X153977757Y-97006919D01*
X153977758Y-97006914D01*
X153980257Y-97000336D01*
X154005251Y-96822493D01*
X154005565Y-96800000D01*
X153985546Y-96621528D01*
X153979926Y-96605388D01*
X153954932Y-96533615D01*
X153926485Y-96451927D01*
X153888326Y-96390859D01*
X153835049Y-96305599D01*
X153831316Y-96299625D01*
X153712267Y-96179742D01*
X153709733Y-96177190D01*
X153709729Y-96177187D01*
X153704770Y-96172193D01*
X153693761Y-96165206D01*
X153614467Y-96114885D01*
X153553136Y-96075963D01*
X153523352Y-96065357D01*
X153390586Y-96018081D01*
X153390581Y-96018080D01*
X153383951Y-96015719D01*
X153376965Y-96014886D01*
X153376961Y-96014885D01*
X153249177Y-95999648D01*
X153205624Y-95994455D01*
X153198621Y-95995191D01*
X153198620Y-95995191D01*
X153034025Y-96012490D01*
X153034021Y-96012491D01*
X153027017Y-96013227D01*
X153020346Y-96015498D01*
X152863677Y-96068832D01*
X152863674Y-96068833D01*
X152857007Y-96071103D01*
X152851009Y-96074793D01*
X152851007Y-96074794D01*
X152785840Y-96114885D01*
X152704045Y-96165206D01*
X152699014Y-96170132D01*
X152699011Y-96170135D01*
X152693060Y-96175963D01*
X152575732Y-96290859D01*
X152571915Y-96296782D01*
X152559043Y-96316756D01*
X152505328Y-96363180D01*
X152453132Y-96374500D01*
X151358815Y-96374500D01*
X151290694Y-96354498D01*
X151269410Y-96337284D01*
X151209738Y-96277195D01*
X151209734Y-96277192D01*
X151204770Y-96272193D01*
X151193761Y-96265206D01*
X151142575Y-96232723D01*
X151053136Y-96175963D01*
X151006071Y-96159204D01*
X150890586Y-96118081D01*
X150890581Y-96118080D01*
X150883951Y-96115719D01*
X150876965Y-96114886D01*
X150876961Y-96114885D01*
X150749177Y-96099648D01*
X150705624Y-96094455D01*
X150698621Y-96095191D01*
X150698620Y-96095191D01*
X150534025Y-96112490D01*
X150534021Y-96112491D01*
X150527017Y-96113227D01*
X150520346Y-96115498D01*
X150363677Y-96168832D01*
X150363674Y-96168833D01*
X150357007Y-96171103D01*
X150351009Y-96174793D01*
X150351007Y-96174794D01*
X150280526Y-96218154D01*
X150204045Y-96265206D01*
X150199014Y-96270132D01*
X150199011Y-96270135D01*
X150162797Y-96305599D01*
X150075732Y-96390859D01*
X150071913Y-96396784D01*
X150071912Y-96396786D01*
X150036376Y-96451927D01*
X149978446Y-96541817D01*
X149976037Y-96548437D01*
X149976035Y-96548440D01*
X149963953Y-96581636D01*
X149917022Y-96710578D01*
X149894514Y-96888753D01*
X149912039Y-97067486D01*
X149968726Y-97237896D01*
X150061759Y-97391512D01*
X150066648Y-97396575D01*
X150066649Y-97396576D01*
X150088243Y-97418937D01*
X150186514Y-97520699D01*
X150336789Y-97619036D01*
X150505116Y-97681636D01*
X150512097Y-97682567D01*
X150512099Y-97682568D01*
X150676149Y-97704457D01*
X150676153Y-97704457D01*
X150683130Y-97705388D01*
X150690142Y-97704750D01*
X150690146Y-97704750D01*
X150854960Y-97689751D01*
X150854961Y-97689751D01*
X150861981Y-97689112D01*
X151032782Y-97633615D01*
X151119695Y-97581805D01*
X151180992Y-97545265D01*
X151180994Y-97545264D01*
X151187044Y-97541657D01*
X151272525Y-97460254D01*
X151335651Y-97427762D01*
X151359418Y-97425500D01*
X152656289Y-97425500D01*
X152725282Y-97446068D01*
X152836789Y-97519036D01*
X152884553Y-97536799D01*
X152891310Y-97539312D01*
X152948186Y-97581805D01*
X152973060Y-97648301D01*
X152958035Y-97717690D01*
X152953301Y-97725665D01*
X152878446Y-97841817D01*
X152817022Y-98010578D01*
X152794514Y-98188753D01*
X152795201Y-98195760D01*
X152795201Y-98195763D01*
X152796005Y-98203963D01*
X152812039Y-98367486D01*
X152814262Y-98374168D01*
X152814262Y-98374169D01*
X152860458Y-98513040D01*
X152868726Y-98537896D01*
X152961759Y-98691512D01*
X152966655Y-98696582D01*
X152975750Y-98706000D01*
X153008683Y-98768896D01*
X153002383Y-98839613D01*
X152974209Y-98882622D01*
X151119236Y-100737595D01*
X151056924Y-100771621D01*
X151030141Y-100774500D01*
X149409888Y-100774500D01*
X149341767Y-100754498D01*
X149320482Y-100737284D01*
X149231992Y-100648174D01*
X149231988Y-100648171D01*
X149227029Y-100643177D01*
X149218234Y-100637595D01*
X149169119Y-100606426D01*
X149075395Y-100546947D01*
X149045611Y-100536341D01*
X148912845Y-100489065D01*
X148912840Y-100489064D01*
X148906210Y-100486703D01*
X148899224Y-100485870D01*
X148899220Y-100485869D01*
X148771436Y-100470632D01*
X148727883Y-100465439D01*
X148720880Y-100466175D01*
X148720879Y-100466175D01*
X148556284Y-100483474D01*
X148556280Y-100483475D01*
X148549276Y-100484211D01*
X148542605Y-100486482D01*
X148385936Y-100539816D01*
X148385933Y-100539817D01*
X148379266Y-100542087D01*
X148373268Y-100545777D01*
X148373266Y-100545778D01*
X148333681Y-100570131D01*
X148226304Y-100636190D01*
X148221273Y-100641116D01*
X148221270Y-100641119D01*
X148214066Y-100648174D01*
X148097991Y-100761843D01*
X148094172Y-100767768D01*
X148094171Y-100767770D01*
X148008955Y-100900000D01*
X148000705Y-100912801D01*
X147998296Y-100919421D01*
X147998294Y-100919424D01*
X147969993Y-100997182D01*
X147939281Y-101081562D01*
X147916773Y-101259737D01*
X147917460Y-101266744D01*
X147917460Y-101266747D01*
X147920052Y-101293183D01*
X147934298Y-101438470D01*
X147936521Y-101445152D01*
X147936521Y-101445153D01*
X147984232Y-101588578D01*
X147990985Y-101608880D01*
X147994632Y-101614902D01*
X148080131Y-101756077D01*
X148084018Y-101762496D01*
X148088907Y-101767559D01*
X148088908Y-101767560D01*
X148136712Y-101817062D01*
X148169644Y-101879958D01*
X148163344Y-101950675D01*
X148119812Y-102006759D01*
X148112108Y-102011900D01*
X147966543Y-102101452D01*
X147961512Y-102106378D01*
X147961509Y-102106381D01*
X147920467Y-102146573D01*
X147838230Y-102227105D01*
X147834411Y-102233030D01*
X147834410Y-102233032D01*
X147744763Y-102372137D01*
X147740944Y-102378063D01*
X147738535Y-102384683D01*
X147738533Y-102384686D01*
X147715637Y-102447594D01*
X147679520Y-102546824D01*
X147657012Y-102724999D01*
X143418170Y-102724999D01*
X144608630Y-101534540D01*
X145961377Y-100181793D01*
X145965186Y-100178140D01*
X146002385Y-100143934D01*
X146008712Y-100138116D01*
X146030458Y-100103044D01*
X146037178Y-100093266D01*
X146056934Y-100067238D01*
X146056935Y-100067237D01*
X146062127Y-100060396D01*
X146067222Y-100047526D01*
X146077286Y-100027518D01*
X146084582Y-100015750D01*
X146086977Y-100007507D01*
X146086980Y-100007500D01*
X146096101Y-99976107D01*
X146099945Y-99964880D01*
X146111968Y-99934513D01*
X146111969Y-99934511D01*
X146115129Y-99926528D01*
X146116026Y-99917991D01*
X146116028Y-99917984D01*
X146116577Y-99912761D01*
X146120888Y-99890784D01*
X146122911Y-99883822D01*
X146122911Y-99883820D01*
X146124751Y-99877488D01*
X146125500Y-99867288D01*
X146125500Y-99834462D01*
X146126190Y-99821291D01*
X146129281Y-99791881D01*
X146130179Y-99783339D01*
X146128660Y-99774354D01*
X146127264Y-99766103D01*
X146125500Y-99745091D01*
X146125500Y-95559039D01*
X146145502Y-95490918D01*
X146164604Y-95467797D01*
X146217099Y-95417807D01*
X146316483Y-95268222D01*
X146337115Y-95213908D01*
X146377757Y-95106919D01*
X146377758Y-95106914D01*
X146380257Y-95100336D01*
X146383151Y-95079742D01*
X146404700Y-94926416D01*
X146404700Y-94926411D01*
X146405251Y-94922493D01*
X146405565Y-94900000D01*
X146398695Y-94838753D01*
X154144514Y-94838753D01*
X154145201Y-94845760D01*
X154145201Y-94845763D01*
X154150104Y-94895763D01*
X154162039Y-95017486D01*
X154164262Y-95024168D01*
X154164262Y-95024169D01*
X154215165Y-95177190D01*
X154218726Y-95187896D01*
X154222373Y-95193918D01*
X154270929Y-95274093D01*
X154311759Y-95341512D01*
X154316648Y-95346575D01*
X154316649Y-95346576D01*
X154389137Y-95421639D01*
X154422069Y-95484535D01*
X154424500Y-95509166D01*
X154424500Y-95635565D01*
X154424389Y-95640841D01*
X154421913Y-95699919D01*
X154431337Y-95740097D01*
X154433500Y-95751771D01*
X154436775Y-95775677D01*
X154439099Y-95792646D01*
X154442510Y-95800527D01*
X154442510Y-95800529D01*
X154444595Y-95805347D01*
X154451627Y-95826610D01*
X154452828Y-95831729D01*
X154454790Y-95840093D01*
X154474681Y-95876275D01*
X154479888Y-95886905D01*
X154496280Y-95924783D01*
X154501686Y-95931459D01*
X154501687Y-95931461D01*
X154504992Y-95935542D01*
X154517480Y-95954126D01*
X154524153Y-95966263D01*
X154530836Y-95974005D01*
X154554040Y-95997209D01*
X154562865Y-96007009D01*
X154586888Y-96036675D01*
X154601144Y-96046806D01*
X154617244Y-96060413D01*
X158837595Y-100280765D01*
X158871621Y-100343077D01*
X158874500Y-100369860D01*
X158874500Y-103330140D01*
X158854498Y-103398261D01*
X158837595Y-103419235D01*
X157298473Y-104958358D01*
X157236161Y-104992383D01*
X157210570Y-104995045D01*
X157205624Y-104994455D01*
X157198621Y-104995191D01*
X157198620Y-104995191D01*
X157034025Y-105012490D01*
X157034021Y-105012491D01*
X157027017Y-105013227D01*
X157020346Y-105015498D01*
X156863677Y-105068832D01*
X156863674Y-105068833D01*
X156857007Y-105071103D01*
X156704045Y-105165206D01*
X156699014Y-105170132D01*
X156699011Y-105170135D01*
X156636883Y-105230976D01*
X156575732Y-105290859D01*
X156478446Y-105441817D01*
X156417022Y-105610578D01*
X156394514Y-105788753D01*
X156395201Y-105795760D01*
X156395201Y-105795763D01*
X156397434Y-105818532D01*
X156412039Y-105967486D01*
X156414262Y-105974168D01*
X156414262Y-105974169D01*
X156463247Y-106121424D01*
X156468726Y-106137896D01*
X156472373Y-106143918D01*
X156549776Y-106271725D01*
X156561759Y-106291512D01*
X156566648Y-106296575D01*
X156566649Y-106296576D01*
X156591844Y-106322666D01*
X156686514Y-106420699D01*
X156836789Y-106519036D01*
X157005116Y-106581636D01*
X157012097Y-106582567D01*
X157012099Y-106582568D01*
X157176149Y-106604457D01*
X157176153Y-106604457D01*
X157183130Y-106605388D01*
X157190142Y-106604750D01*
X157190146Y-106604750D01*
X157354960Y-106589751D01*
X157354961Y-106589751D01*
X157361981Y-106589112D01*
X157505877Y-106542357D01*
X157526082Y-106535792D01*
X157532782Y-106533615D01*
X157624694Y-106478825D01*
X157680992Y-106445265D01*
X157680994Y-106445264D01*
X157687044Y-106441657D01*
X157817099Y-106317807D01*
X157834570Y-106291512D01*
X157912582Y-106174093D01*
X157916483Y-106168222D01*
X157945815Y-106091006D01*
X157977757Y-106006919D01*
X157977758Y-106006914D01*
X157980257Y-106000336D01*
X158005251Y-105822493D01*
X158005565Y-105800000D01*
X158005165Y-105796435D01*
X158021799Y-105727498D01*
X158041901Y-105701268D01*
X159761364Y-103981805D01*
X159765173Y-103978152D01*
X159802385Y-103943934D01*
X159808712Y-103938116D01*
X159830465Y-103903032D01*
X159837182Y-103893260D01*
X159856935Y-103867236D01*
X159862128Y-103860395D01*
X159867224Y-103847524D01*
X159877292Y-103827507D01*
X159880056Y-103823049D01*
X159884582Y-103815750D01*
X159896094Y-103776126D01*
X159899939Y-103764897D01*
X159911968Y-103734514D01*
X159911968Y-103734512D01*
X159915130Y-103726527D01*
X159916577Y-103712758D01*
X159920890Y-103690776D01*
X159922908Y-103683830D01*
X159924751Y-103677488D01*
X159925500Y-103667288D01*
X159925500Y-103634471D01*
X159926190Y-103621300D01*
X159929282Y-103591882D01*
X159930180Y-103583338D01*
X159927265Y-103566104D01*
X159925500Y-103545091D01*
X159925500Y-100114426D01*
X159925611Y-100109149D01*
X159926072Y-100098154D01*
X159928087Y-100050081D01*
X159918665Y-100009908D01*
X159916502Y-99998239D01*
X159915887Y-99993747D01*
X159912536Y-99969285D01*
X160544759Y-99969285D01*
X160545003Y-99973720D01*
X160545003Y-99973724D01*
X160558437Y-100217807D01*
X160559938Y-100245087D01*
X160589649Y-100394455D01*
X160608468Y-100489065D01*
X160613825Y-100515999D01*
X160705347Y-100776616D01*
X160832678Y-101021737D01*
X160835261Y-101025352D01*
X160835265Y-101025358D01*
X160990687Y-101242850D01*
X160993275Y-101246471D01*
X161037836Y-101293183D01*
X161166169Y-101427710D01*
X161183936Y-101446335D01*
X161187431Y-101449091D01*
X161187433Y-101449092D01*
X161271838Y-101515631D01*
X161400856Y-101617341D01*
X161462559Y-101653181D01*
X161635853Y-101753839D01*
X161635859Y-101753842D01*
X161639707Y-101756077D01*
X161895723Y-101859774D01*
X161900036Y-101860845D01*
X161900041Y-101860847D01*
X162159475Y-101925291D01*
X162159480Y-101925292D01*
X162163796Y-101926364D01*
X162168224Y-101926818D01*
X162168226Y-101926818D01*
X162199362Y-101930008D01*
X162399370Y-101950500D01*
X162570362Y-101950500D01*
X162775530Y-101935973D01*
X162779885Y-101935035D01*
X162779888Y-101935035D01*
X163041215Y-101878773D01*
X163041217Y-101878773D01*
X163045562Y-101877837D01*
X163304709Y-101782233D01*
X163353185Y-101756077D01*
X163543884Y-101653181D01*
X163547800Y-101651068D01*
X163769984Y-101486960D01*
X163812099Y-101445502D01*
X163963648Y-101296314D01*
X163966829Y-101293183D01*
X164134406Y-101073604D01*
X164136584Y-101069715D01*
X164267197Y-100836490D01*
X164267198Y-100836487D01*
X164269373Y-100832604D01*
X164294456Y-100767770D01*
X164367433Y-100579134D01*
X164369036Y-100574991D01*
X164370163Y-100570131D01*
X164410689Y-100395289D01*
X164431407Y-100305905D01*
X164455241Y-100030715D01*
X164454819Y-100023046D01*
X164440307Y-99759356D01*
X164440306Y-99759349D01*
X164440062Y-99754913D01*
X164391896Y-99512761D01*
X164387043Y-99488364D01*
X164387042Y-99488362D01*
X164386175Y-99484001D01*
X164294653Y-99223384D01*
X164167322Y-98978263D01*
X164164739Y-98974648D01*
X164164735Y-98974642D01*
X164009313Y-98757150D01*
X164009310Y-98757146D01*
X164006725Y-98753529D01*
X163911395Y-98653597D01*
X163819136Y-98556885D01*
X163819134Y-98556883D01*
X163816064Y-98553665D01*
X163787589Y-98531217D01*
X163602639Y-98385414D01*
X163602637Y-98385413D01*
X163599144Y-98382659D01*
X163486609Y-98317294D01*
X163364147Y-98246161D01*
X163364141Y-98246158D01*
X163360293Y-98243923D01*
X163104277Y-98140226D01*
X163099964Y-98139155D01*
X163099959Y-98139153D01*
X162840525Y-98074709D01*
X162840520Y-98074708D01*
X162836204Y-98073636D01*
X162831776Y-98073182D01*
X162831774Y-98073182D01*
X162751573Y-98064965D01*
X162600630Y-98049500D01*
X162429638Y-98049500D01*
X162224470Y-98064027D01*
X162220115Y-98064965D01*
X162220112Y-98064965D01*
X161958785Y-98121227D01*
X161958783Y-98121227D01*
X161954438Y-98122163D01*
X161695291Y-98217767D01*
X161691373Y-98219881D01*
X161642668Y-98246161D01*
X161452200Y-98348932D01*
X161230016Y-98513040D01*
X161226837Y-98516169D01*
X161226834Y-98516172D01*
X161173960Y-98568222D01*
X161033171Y-98706817D01*
X160865594Y-98926396D01*
X160730627Y-99167396D01*
X160630964Y-99425009D01*
X160629961Y-99429334D01*
X160629960Y-99429339D01*
X160621164Y-99467288D01*
X160568593Y-99694095D01*
X160544759Y-99969285D01*
X159912536Y-99969285D01*
X159910901Y-99957354D01*
X159905403Y-99944649D01*
X159898369Y-99923380D01*
X159897171Y-99918271D01*
X159897170Y-99918269D01*
X159895209Y-99909907D01*
X159891071Y-99902381D01*
X159891070Y-99902377D01*
X159875330Y-99873747D01*
X159870114Y-99863102D01*
X159853720Y-99825217D01*
X159845009Y-99814460D01*
X159832515Y-99795867D01*
X159829029Y-99789525D01*
X159829028Y-99789524D01*
X159825847Y-99783737D01*
X159819164Y-99775995D01*
X159795960Y-99752791D01*
X159787134Y-99742990D01*
X159768518Y-99720001D01*
X159763112Y-99713325D01*
X159748856Y-99703194D01*
X159732756Y-99689587D01*
X155576950Y-95533781D01*
X155542924Y-95471469D01*
X155547989Y-95400654D01*
X155567120Y-95367821D01*
X155567099Y-95367807D01*
X155567339Y-95367446D01*
X155567340Y-95367444D01*
X155581539Y-95346074D01*
X155639639Y-95258625D01*
X155666483Y-95218222D01*
X155689199Y-95158423D01*
X155727757Y-95056919D01*
X155727758Y-95056914D01*
X155730257Y-95050336D01*
X155735239Y-95014885D01*
X155754700Y-94876416D01*
X155754700Y-94876411D01*
X155755251Y-94872493D01*
X155755403Y-94861576D01*
X155755510Y-94853963D01*
X155755510Y-94853956D01*
X155755565Y-94850000D01*
X155735546Y-94671528D01*
X155729427Y-94653955D01*
X155678803Y-94508584D01*
X155676485Y-94501927D01*
X155651852Y-94462505D01*
X155585049Y-94355599D01*
X155581316Y-94349625D01*
X155506177Y-94273960D01*
X155459733Y-94227190D01*
X155459729Y-94227187D01*
X155454770Y-94222193D01*
X155443761Y-94215206D01*
X155380081Y-94174794D01*
X155303136Y-94125963D01*
X155265299Y-94112490D01*
X155140586Y-94068081D01*
X155140581Y-94068080D01*
X155133951Y-94065719D01*
X155126965Y-94064886D01*
X155126961Y-94064885D01*
X154999177Y-94049648D01*
X154955624Y-94044455D01*
X154948621Y-94045191D01*
X154948620Y-94045191D01*
X154784025Y-94062490D01*
X154784021Y-94062491D01*
X154777017Y-94063227D01*
X154770346Y-94065498D01*
X154613677Y-94118832D01*
X154613674Y-94118833D01*
X154607007Y-94121103D01*
X154601009Y-94124793D01*
X154601007Y-94124794D01*
X154550754Y-94155710D01*
X154454045Y-94215206D01*
X154449014Y-94220132D01*
X154449011Y-94220135D01*
X154397953Y-94270135D01*
X154325732Y-94340859D01*
X154321913Y-94346784D01*
X154321912Y-94346786D01*
X154293509Y-94390859D01*
X154228446Y-94491817D01*
X154167022Y-94660578D01*
X154144514Y-94838753D01*
X146398695Y-94838753D01*
X146385546Y-94721528D01*
X146380788Y-94707863D01*
X146328803Y-94558584D01*
X146326485Y-94551927D01*
X146295242Y-94501927D01*
X146235049Y-94405599D01*
X146231316Y-94399625D01*
X146156963Y-94324751D01*
X146109733Y-94277190D01*
X146109729Y-94277187D01*
X146104770Y-94272193D01*
X146093761Y-94265206D01*
X145998391Y-94204683D01*
X145953136Y-94175963D01*
X145896259Y-94155710D01*
X145790586Y-94118081D01*
X145790581Y-94118080D01*
X145783951Y-94115719D01*
X145776965Y-94114886D01*
X145776961Y-94114885D01*
X145649177Y-94099648D01*
X145605624Y-94094455D01*
X145598621Y-94095191D01*
X145598620Y-94095191D01*
X145434025Y-94112490D01*
X145434021Y-94112491D01*
X145427017Y-94113227D01*
X145420346Y-94115498D01*
X145263677Y-94168832D01*
X145263674Y-94168833D01*
X145257007Y-94171103D01*
X145251009Y-94174793D01*
X145251007Y-94174794D01*
X145191318Y-94211515D01*
X145104045Y-94265206D01*
X145099014Y-94270132D01*
X145099011Y-94270135D01*
X145049055Y-94319056D01*
X144975732Y-94390859D01*
X144971913Y-94396784D01*
X144971912Y-94396786D01*
X144934171Y-94455349D01*
X144878446Y-94541817D01*
X144876037Y-94548437D01*
X144876035Y-94548440D01*
X144874766Y-94551927D01*
X144817022Y-94710578D01*
X144794514Y-94888753D01*
X144795201Y-94895760D01*
X144795201Y-94895763D01*
X144796005Y-94903963D01*
X144812039Y-95067486D01*
X144814262Y-95074168D01*
X144814262Y-95074169D01*
X144854097Y-95193918D01*
X144868726Y-95237896D01*
X144872373Y-95243918D01*
X144947403Y-95367807D01*
X144961759Y-95391512D01*
X144966648Y-95396575D01*
X144966649Y-95396576D01*
X145039137Y-95471639D01*
X145072069Y-95534535D01*
X145074500Y-95559166D01*
X145074500Y-99530141D01*
X145054498Y-99598262D01*
X145037595Y-99619236D01*
X142338636Y-102318195D01*
X142334827Y-102321848D01*
X142291288Y-102361884D01*
X142286760Y-102369187D01*
X142286759Y-102369188D01*
X142269543Y-102396955D01*
X142262820Y-102406737D01*
X142237872Y-102439604D01*
X142234710Y-102447591D01*
X142234708Y-102447594D01*
X142232772Y-102452483D01*
X142222713Y-102472484D01*
X142215418Y-102484250D01*
X142206048Y-102516500D01*
X142203905Y-102523877D01*
X142200060Y-102535105D01*
X142188033Y-102565484D01*
X142188032Y-102565487D01*
X142184871Y-102573472D01*
X142183974Y-102582009D01*
X142183972Y-102582016D01*
X142183423Y-102587239D01*
X142179112Y-102609215D01*
X142175249Y-102622512D01*
X142174500Y-102632712D01*
X142174500Y-102665539D01*
X142173810Y-102678710D01*
X142169821Y-102716662D01*
X142171253Y-102725128D01*
X142171253Y-102725131D01*
X142172736Y-102733898D01*
X142174500Y-102754910D01*
X142174500Y-105371105D01*
X142166901Y-105414199D01*
X142112472Y-105563741D01*
X142112471Y-105563746D01*
X142110061Y-105570367D01*
X142087553Y-105748542D01*
X138660385Y-105748542D01*
X134163812Y-102372946D01*
X134121313Y-102315975D01*
X134063543Y-102160129D01*
X133251419Y-99969285D01*
X135544759Y-99969285D01*
X135545003Y-99973720D01*
X135545003Y-99973724D01*
X135558437Y-100217807D01*
X135559938Y-100245087D01*
X135589649Y-100394455D01*
X135608468Y-100489065D01*
X135613825Y-100515999D01*
X135705347Y-100776616D01*
X135832678Y-101021737D01*
X135835261Y-101025352D01*
X135835265Y-101025358D01*
X135990687Y-101242850D01*
X135993275Y-101246471D01*
X136037836Y-101293183D01*
X136166169Y-101427710D01*
X136183936Y-101446335D01*
X136187431Y-101449091D01*
X136187433Y-101449092D01*
X136271838Y-101515631D01*
X136400856Y-101617341D01*
X136462559Y-101653181D01*
X136635853Y-101753839D01*
X136635859Y-101753842D01*
X136639707Y-101756077D01*
X136895723Y-101859774D01*
X136900036Y-101860845D01*
X136900041Y-101860847D01*
X137159475Y-101925291D01*
X137159480Y-101925292D01*
X137163796Y-101926364D01*
X137168224Y-101926818D01*
X137168226Y-101926818D01*
X137199362Y-101930008D01*
X137399370Y-101950500D01*
X137570362Y-101950500D01*
X137775530Y-101935973D01*
X137779885Y-101935035D01*
X137779888Y-101935035D01*
X138041215Y-101878773D01*
X138041217Y-101878773D01*
X138045562Y-101877837D01*
X138304709Y-101782233D01*
X138353185Y-101756077D01*
X138543884Y-101653181D01*
X138547800Y-101651068D01*
X138769984Y-101486960D01*
X138812099Y-101445502D01*
X138963648Y-101296314D01*
X138966829Y-101293183D01*
X139134406Y-101073604D01*
X139136584Y-101069715D01*
X139267197Y-100836490D01*
X139267198Y-100836487D01*
X139269373Y-100832604D01*
X139294456Y-100767770D01*
X139367433Y-100579134D01*
X139369036Y-100574991D01*
X139370163Y-100570131D01*
X139410689Y-100395289D01*
X139431407Y-100305905D01*
X139455241Y-100030715D01*
X139454819Y-100023046D01*
X139440307Y-99759356D01*
X139440306Y-99759349D01*
X139440062Y-99754913D01*
X139391896Y-99512761D01*
X139387043Y-99488364D01*
X139387042Y-99488362D01*
X139386175Y-99484001D01*
X139294653Y-99223384D01*
X139167322Y-98978263D01*
X139164739Y-98974648D01*
X139164735Y-98974642D01*
X139009313Y-98757150D01*
X139009310Y-98757146D01*
X139006725Y-98753529D01*
X138911395Y-98653597D01*
X138819136Y-98556885D01*
X138819134Y-98556883D01*
X138816064Y-98553665D01*
X138787589Y-98531217D01*
X138602639Y-98385414D01*
X138602637Y-98385413D01*
X138599144Y-98382659D01*
X138486609Y-98317294D01*
X138364147Y-98246161D01*
X138364141Y-98246158D01*
X138360293Y-98243923D01*
X138104277Y-98140226D01*
X138099964Y-98139155D01*
X138099959Y-98139153D01*
X137840525Y-98074709D01*
X137840520Y-98074708D01*
X137836204Y-98073636D01*
X137831776Y-98073182D01*
X137831774Y-98073182D01*
X137751573Y-98064965D01*
X137600630Y-98049500D01*
X137429638Y-98049500D01*
X137224470Y-98064027D01*
X137220115Y-98064965D01*
X137220112Y-98064965D01*
X136958785Y-98121227D01*
X136958783Y-98121227D01*
X136954438Y-98122163D01*
X136695291Y-98217767D01*
X136691373Y-98219881D01*
X136642668Y-98246161D01*
X136452200Y-98348932D01*
X136230016Y-98513040D01*
X136226837Y-98516169D01*
X136226834Y-98516172D01*
X136173960Y-98568222D01*
X136033171Y-98706817D01*
X135865594Y-98926396D01*
X135730627Y-99167396D01*
X135630964Y-99425009D01*
X135629961Y-99429334D01*
X135629960Y-99429339D01*
X135621164Y-99467288D01*
X135568593Y-99694095D01*
X135544759Y-99969285D01*
X133251419Y-99969285D01*
X132281513Y-97352795D01*
X131152562Y-94307252D01*
X135149239Y-94307252D01*
X135152650Y-94314331D01*
X135164034Y-94328902D01*
X135167501Y-94332973D01*
X135281022Y-94455349D01*
X135288887Y-94462505D01*
X135466065Y-94598214D01*
X135475027Y-94603945D01*
X135672544Y-94707863D01*
X135682335Y-94711999D01*
X135894528Y-94781149D01*
X135904899Y-94783581D01*
X136125700Y-94815989D01*
X136136323Y-94816639D01*
X136359441Y-94811381D01*
X136370012Y-94810232D01*
X136589063Y-94767455D01*
X136599280Y-94764544D01*
X136807991Y-94685471D01*
X136817581Y-94680876D01*
X136834734Y-94670793D01*
X136844545Y-94660340D01*
X136839416Y-94647616D01*
X136041189Y-93625931D01*
X136028278Y-93616675D01*
X136026440Y-93616582D01*
X136019359Y-93619994D01*
X135158588Y-94292502D01*
X135149332Y-94305413D01*
X135149239Y-94307252D01*
X131152562Y-94307252D01*
X130724682Y-93152972D01*
X134551932Y-93152972D01*
X134552582Y-93163593D01*
X134584992Y-93384406D01*
X134587420Y-93394757D01*
X134656574Y-93606959D01*
X134660710Y-93616750D01*
X134765180Y-93815316D01*
X134769515Y-93822383D01*
X134780420Y-93837784D01*
X134782224Y-93840209D01*
X134820400Y-93889071D01*
X134833310Y-93898327D01*
X134835148Y-93898420D01*
X134842229Y-93895008D01*
X135703001Y-93222499D01*
X135712257Y-93209588D01*
X135712350Y-93207750D01*
X135708938Y-93200669D01*
X134909146Y-92176982D01*
X134897683Y-92168764D01*
X134888385Y-92174093D01*
X134806950Y-92270630D01*
X134800798Y-92279319D01*
X134687694Y-92471716D01*
X134683102Y-92481299D01*
X134604027Y-92690015D01*
X134601116Y-92700233D01*
X134558339Y-92919281D01*
X134557190Y-92929852D01*
X134551932Y-93152972D01*
X130724682Y-93152972D01*
X130241647Y-91849902D01*
X135303077Y-91849902D01*
X135308206Y-91862626D01*
X136117588Y-92898588D01*
X137238476Y-94333260D01*
X137249939Y-94341478D01*
X137259237Y-94336149D01*
X137340672Y-94239612D01*
X137346824Y-94230923D01*
X137459928Y-94038526D01*
X137464520Y-94028943D01*
X137543595Y-93820227D01*
X137546506Y-93810009D01*
X137589283Y-93590960D01*
X137590432Y-93580389D01*
X137595690Y-93357270D01*
X137595040Y-93346649D01*
X137572342Y-93192002D01*
X137582239Y-93121698D01*
X137628574Y-93067906D01*
X137696636Y-93047705D01*
X137742982Y-93056392D01*
X137746491Y-93057767D01*
X137751511Y-93060270D01*
X137969189Y-93123922D01*
X137974760Y-93124517D01*
X137974763Y-93124518D01*
X138189121Y-93147427D01*
X138194698Y-93148023D01*
X138420911Y-93131807D01*
X138426346Y-93130422D01*
X138426350Y-93130421D01*
X138533653Y-93103070D01*
X138640677Y-93075790D01*
X138847050Y-92981740D01*
X138937253Y-92919281D01*
X139028890Y-92855829D01*
X139028893Y-92855827D01*
X139033508Y-92852631D01*
X139062704Y-92823537D01*
X139186437Y-92700233D01*
X139194153Y-92692544D01*
X139291864Y-92552479D01*
X139320706Y-92511136D01*
X139320709Y-92511131D01*
X139323913Y-92506538D01*
X139418681Y-92300495D01*
X139423006Y-92283774D01*
X139474061Y-92086358D01*
X139474061Y-92086357D01*
X139475466Y-92080925D01*
X139492470Y-91854771D01*
X139469158Y-91629178D01*
X139467600Y-91623779D01*
X139456298Y-91584622D01*
X139456625Y-91513626D01*
X139495283Y-91454078D01*
X139559999Y-91424882D01*
X139633576Y-91436919D01*
X139753058Y-91496490D01*
X139758438Y-91498063D01*
X139758440Y-91498064D01*
X139810870Y-91513395D01*
X139970736Y-91560142D01*
X139976307Y-91560737D01*
X139976310Y-91560738D01*
X140190668Y-91583647D01*
X140196245Y-91584243D01*
X140422458Y-91568027D01*
X140427893Y-91566642D01*
X140427897Y-91566641D01*
X140540668Y-91537896D01*
X140642224Y-91512010D01*
X140848597Y-91417960D01*
X140968657Y-91334827D01*
X141030437Y-91292049D01*
X141030440Y-91292047D01*
X141035055Y-91288851D01*
X141059561Y-91264430D01*
X141121931Y-91230514D01*
X141192738Y-91235702D01*
X141249499Y-91278347D01*
X141274194Y-91344911D01*
X141274500Y-91353681D01*
X141274500Y-98840898D01*
X141254498Y-98909019D01*
X141200842Y-98955512D01*
X141189104Y-98960176D01*
X141163678Y-98968831D01*
X141163670Y-98968835D01*
X141157007Y-98971103D01*
X141004045Y-99065206D01*
X140999014Y-99070132D01*
X140999011Y-99070135D01*
X140936883Y-99130976D01*
X140875732Y-99190859D01*
X140778446Y-99341817D01*
X140776037Y-99348437D01*
X140776035Y-99348440D01*
X140749520Y-99421290D01*
X140717022Y-99510578D01*
X140694514Y-99688753D01*
X140695201Y-99695760D01*
X140695201Y-99695763D01*
X140700573Y-99750546D01*
X140712039Y-99867486D01*
X140714262Y-99874168D01*
X140714262Y-99874169D01*
X140764861Y-100026276D01*
X140768726Y-100037896D01*
X140772373Y-100043918D01*
X140853661Y-100178140D01*
X140861759Y-100191512D01*
X140986514Y-100320699D01*
X141136789Y-100419036D01*
X141305116Y-100481636D01*
X141312097Y-100482567D01*
X141312099Y-100482568D01*
X141476149Y-100504457D01*
X141476153Y-100504457D01*
X141483130Y-100505388D01*
X141490142Y-100504750D01*
X141490146Y-100504750D01*
X141654960Y-100489751D01*
X141654961Y-100489751D01*
X141661981Y-100489112D01*
X141832782Y-100433615D01*
X141864202Y-100414885D01*
X141980992Y-100345265D01*
X141980994Y-100345264D01*
X141987044Y-100341657D01*
X142117099Y-100217807D01*
X142134570Y-100191512D01*
X142187532Y-100111797D01*
X142216483Y-100068222D01*
X142236415Y-100015750D01*
X142277757Y-99906919D01*
X142277758Y-99906914D01*
X142280257Y-99900336D01*
X142281237Y-99893364D01*
X142304700Y-99726416D01*
X142304700Y-99726411D01*
X142305251Y-99722493D01*
X142305406Y-99711415D01*
X142305510Y-99703962D01*
X142305510Y-99703957D01*
X142305565Y-99700000D01*
X142296506Y-99619236D01*
X142296016Y-99614866D01*
X142304078Y-99554440D01*
X142311969Y-99534510D01*
X142311969Y-99534509D01*
X142315129Y-99526528D01*
X142316026Y-99517991D01*
X142316028Y-99517984D01*
X142316577Y-99512761D01*
X142320888Y-99490784D01*
X142322911Y-99483822D01*
X142322911Y-99483820D01*
X142324751Y-99477488D01*
X142325500Y-99467288D01*
X142325500Y-99434461D01*
X142326190Y-99421290D01*
X142329281Y-99391880D01*
X142330179Y-99383338D01*
X142327264Y-99366102D01*
X142325500Y-99345090D01*
X142325500Y-91188753D01*
X144394514Y-91188753D01*
X144395201Y-91195760D01*
X144395201Y-91195763D01*
X144401287Y-91257828D01*
X144412039Y-91367486D01*
X144414262Y-91374168D01*
X144414262Y-91374169D01*
X144463351Y-91521737D01*
X144468726Y-91537896D01*
X144472373Y-91543918D01*
X144520739Y-91623779D01*
X144561759Y-91691512D01*
X144566648Y-91696575D01*
X144566649Y-91696576D01*
X144617942Y-91749691D01*
X144686514Y-91820699D01*
X144836789Y-91919036D01*
X145005116Y-91981636D01*
X145012097Y-91982567D01*
X145012099Y-91982568D01*
X145176149Y-92004457D01*
X145176153Y-92004457D01*
X145183130Y-92005388D01*
X145190142Y-92004750D01*
X145190146Y-92004750D01*
X145354963Y-91989751D01*
X145354966Y-91989750D01*
X145361981Y-91989112D01*
X145427396Y-91967857D01*
X145498361Y-91965829D01*
X145555426Y-91998595D01*
X147718195Y-94161364D01*
X147721848Y-94165173D01*
X147761884Y-94208712D01*
X147769184Y-94213238D01*
X147769185Y-94213239D01*
X147796960Y-94230460D01*
X147806730Y-94237174D01*
X147839604Y-94262127D01*
X147852474Y-94267222D01*
X147872482Y-94277286D01*
X147884250Y-94284582D01*
X147892493Y-94286977D01*
X147892500Y-94286980D01*
X147923893Y-94296101D01*
X147935120Y-94299945D01*
X147965487Y-94311968D01*
X147965489Y-94311969D01*
X147973472Y-94315129D01*
X147982009Y-94316026D01*
X147982016Y-94316028D01*
X147987239Y-94316577D01*
X148009216Y-94320888D01*
X148016178Y-94322911D01*
X148016180Y-94322911D01*
X148022512Y-94324751D01*
X148029327Y-94325251D01*
X148030404Y-94325331D01*
X148030417Y-94325331D01*
X148032712Y-94325500D01*
X148065538Y-94325500D01*
X148078709Y-94326190D01*
X148116661Y-94330179D01*
X148125127Y-94328747D01*
X148125130Y-94328747D01*
X148133897Y-94327264D01*
X148154909Y-94325500D01*
X151478288Y-94325500D01*
X151486480Y-94325767D01*
X151537671Y-94329102D01*
X151546080Y-94327334D01*
X151546082Y-94327334D01*
X151585455Y-94319056D01*
X151594276Y-94317526D01*
X151642646Y-94310901D01*
X151650531Y-94307489D01*
X151656963Y-94305693D01*
X151665817Y-94302878D01*
X151665814Y-94302869D01*
X151672104Y-94300840D01*
X151678570Y-94299481D01*
X151684612Y-94296806D01*
X151684616Y-94296805D01*
X151685801Y-94296280D01*
X151685802Y-94296279D01*
X151687922Y-94295341D01*
X151723489Y-94276372D01*
X151732728Y-94271919D01*
X151774783Y-94253720D01*
X151781458Y-94248315D01*
X151781464Y-94248311D01*
X151782439Y-94247521D01*
X151802436Y-94234268D01*
X153103582Y-93540324D01*
X153162876Y-93525500D01*
X155524637Y-93525500D01*
X155592758Y-93545502D01*
X155613732Y-93562405D01*
X157575257Y-95523930D01*
X157609283Y-95586242D01*
X157611561Y-95600730D01*
X157619827Y-95685033D01*
X157622050Y-95691715D01*
X157622050Y-95691716D01*
X157668626Y-95831729D01*
X157676514Y-95855443D01*
X157680161Y-95861465D01*
X157765202Y-96001884D01*
X157769547Y-96009059D01*
X157774436Y-96014122D01*
X157774437Y-96014123D01*
X157799632Y-96040213D01*
X157894302Y-96138246D01*
X158044577Y-96236583D01*
X158212904Y-96299183D01*
X158219885Y-96300114D01*
X158219887Y-96300115D01*
X158383937Y-96322004D01*
X158383941Y-96322004D01*
X158390918Y-96322935D01*
X158397930Y-96322297D01*
X158397934Y-96322297D01*
X158562748Y-96307298D01*
X158562749Y-96307298D01*
X158569769Y-96306659D01*
X158740570Y-96251162D01*
X158864660Y-96177190D01*
X158888780Y-96162812D01*
X158888782Y-96162811D01*
X158894832Y-96159204D01*
X159024887Y-96035354D01*
X159037933Y-96015719D01*
X159098350Y-95924783D01*
X159124271Y-95885769D01*
X159144799Y-95831729D01*
X159185545Y-95724466D01*
X159185546Y-95724461D01*
X159188045Y-95717883D01*
X159189025Y-95710911D01*
X159212488Y-95543963D01*
X159212488Y-95543958D01*
X159213039Y-95540040D01*
X159213353Y-95517547D01*
X159193334Y-95339075D01*
X159191017Y-95332421D01*
X159136590Y-95176127D01*
X159136589Y-95176126D01*
X159134273Y-95169474D01*
X159130542Y-95163503D01*
X159128108Y-95158423D01*
X159116714Y-95088347D01*
X159145015Y-95023235D01*
X159202803Y-94984151D01*
X159267961Y-94962979D01*
X159313784Y-94948091D01*
X159313787Y-94948090D01*
X159320483Y-94945914D01*
X159326534Y-94942307D01*
X159468693Y-94857564D01*
X159468695Y-94857563D01*
X159474745Y-94853956D01*
X159604800Y-94730106D01*
X159605882Y-94731242D01*
X159658056Y-94696524D01*
X159729044Y-94695391D01*
X159784574Y-94727743D01*
X160758356Y-95701525D01*
X160792382Y-95763837D01*
X160794720Y-95787120D01*
X160794514Y-95788753D01*
X160812039Y-95967486D01*
X160814262Y-95974168D01*
X160814262Y-95974169D01*
X160862135Y-96118081D01*
X160868726Y-96137896D01*
X160872373Y-96143918D01*
X160948813Y-96270135D01*
X160961759Y-96291512D01*
X160966648Y-96296575D01*
X160966649Y-96296576D01*
X160976386Y-96306659D01*
X161086514Y-96420699D01*
X161236789Y-96519036D01*
X161405116Y-96581636D01*
X161412097Y-96582567D01*
X161412099Y-96582568D01*
X161576149Y-96604457D01*
X161576153Y-96604457D01*
X161583130Y-96605388D01*
X161590142Y-96604750D01*
X161590146Y-96604750D01*
X161754960Y-96589751D01*
X161754961Y-96589751D01*
X161761981Y-96589112D01*
X161932782Y-96533615D01*
X162079841Y-96445951D01*
X162080992Y-96445265D01*
X162080994Y-96445264D01*
X162087044Y-96441657D01*
X162217099Y-96317807D01*
X162234570Y-96291512D01*
X162308829Y-96179742D01*
X162316483Y-96168222D01*
X162344225Y-96095191D01*
X162377757Y-96006919D01*
X162377758Y-96006914D01*
X162380257Y-96000336D01*
X162386751Y-95954130D01*
X162404700Y-95826416D01*
X162404700Y-95826411D01*
X162405251Y-95822493D01*
X162405403Y-95811576D01*
X162405510Y-95803963D01*
X162405510Y-95803958D01*
X162405565Y-95800000D01*
X162385546Y-95621528D01*
X162378304Y-95600730D01*
X162328803Y-95458584D01*
X162326485Y-95451927D01*
X162321508Y-95443961D01*
X162235049Y-95305599D01*
X162231316Y-95299625D01*
X162120364Y-95187896D01*
X162109733Y-95177190D01*
X162109729Y-95177187D01*
X162104770Y-95172193D01*
X161953136Y-95075963D01*
X161923352Y-95065357D01*
X161790586Y-95018081D01*
X161790581Y-95018080D01*
X161783951Y-95015719D01*
X161776965Y-95014886D01*
X161776961Y-95014885D01*
X161649177Y-94999648D01*
X161605624Y-94994455D01*
X161598619Y-94995191D01*
X161591575Y-94995142D01*
X161591594Y-94992402D01*
X161533997Y-94981855D01*
X161501595Y-94958425D01*
X157881805Y-91338636D01*
X157878152Y-91334827D01*
X157843934Y-91297615D01*
X157838116Y-91291288D01*
X157827798Y-91284890D01*
X157803045Y-91269543D01*
X157793262Y-91262819D01*
X157767240Y-91243067D01*
X157760396Y-91237872D01*
X157752409Y-91234710D01*
X157752406Y-91234708D01*
X157747517Y-91232772D01*
X157727516Y-91222713D01*
X157715750Y-91215418D01*
X157676119Y-91203904D01*
X157664895Y-91200060D01*
X157634516Y-91188033D01*
X157634513Y-91188032D01*
X157626528Y-91184871D01*
X157617991Y-91183974D01*
X157617984Y-91183972D01*
X157612761Y-91183423D01*
X157590784Y-91179112D01*
X157583822Y-91177089D01*
X157583820Y-91177089D01*
X157577488Y-91175249D01*
X157570673Y-91174749D01*
X157569596Y-91174669D01*
X157569583Y-91174669D01*
X157567288Y-91174500D01*
X157534461Y-91174500D01*
X157521290Y-91173810D01*
X157483338Y-91169821D01*
X157474872Y-91171253D01*
X157474869Y-91171253D01*
X157466102Y-91172736D01*
X157445090Y-91174500D01*
X157258815Y-91174500D01*
X157190694Y-91154498D01*
X157169410Y-91137284D01*
X157109738Y-91077195D01*
X157109734Y-91077192D01*
X157104770Y-91072193D01*
X157093761Y-91065206D01*
X157017059Y-91016530D01*
X156953136Y-90975963D01*
X156923352Y-90965357D01*
X156790586Y-90918081D01*
X156790581Y-90918080D01*
X156783951Y-90915719D01*
X156776965Y-90914886D01*
X156776961Y-90914885D01*
X156649177Y-90899648D01*
X156605624Y-90894455D01*
X156598621Y-90895191D01*
X156598620Y-90895191D01*
X156434025Y-90912490D01*
X156434021Y-90912491D01*
X156427017Y-90913227D01*
X156420346Y-90915498D01*
X156263677Y-90968832D01*
X156263674Y-90968833D01*
X156257007Y-90971103D01*
X156251009Y-90974793D01*
X156251007Y-90974794D01*
X156203607Y-91003955D01*
X156104045Y-91065206D01*
X156099014Y-91070132D01*
X156099011Y-91070135D01*
X156036883Y-91130976D01*
X155975732Y-91190859D01*
X155946002Y-91236990D01*
X155892290Y-91283413D01*
X155822003Y-91293428D01*
X155757460Y-91263853D01*
X155750998Y-91257828D01*
X154425699Y-89932530D01*
X154391674Y-89870218D01*
X154389579Y-89857481D01*
X154386331Y-89828526D01*
X154385546Y-89821528D01*
X154379427Y-89803955D01*
X154331191Y-89665440D01*
X154326485Y-89651927D01*
X154318976Y-89639909D01*
X154235049Y-89505599D01*
X154231316Y-89499625D01*
X154121685Y-89389226D01*
X154109733Y-89377190D01*
X154109729Y-89377187D01*
X154104770Y-89372193D01*
X154093761Y-89365206D01*
X154025332Y-89321780D01*
X153953136Y-89275963D01*
X153900303Y-89257150D01*
X153790586Y-89218081D01*
X153790581Y-89218080D01*
X153783951Y-89215719D01*
X153776965Y-89214886D01*
X153776961Y-89214885D01*
X153649177Y-89199648D01*
X153605624Y-89194455D01*
X153598621Y-89195191D01*
X153598620Y-89195191D01*
X153434025Y-89212490D01*
X153434021Y-89212491D01*
X153427017Y-89213227D01*
X153420346Y-89215498D01*
X153263677Y-89268832D01*
X153263674Y-89268833D01*
X153257007Y-89271103D01*
X153251009Y-89274793D01*
X153251007Y-89274794D01*
X153195821Y-89308745D01*
X153104045Y-89365206D01*
X153099014Y-89370132D01*
X153099011Y-89370135D01*
X153041560Y-89426396D01*
X152975732Y-89490859D01*
X152971913Y-89496784D01*
X152971912Y-89496786D01*
X152927414Y-89565834D01*
X152878446Y-89641817D01*
X152876037Y-89648437D01*
X152876035Y-89648440D01*
X152848758Y-89723384D01*
X152817022Y-89810578D01*
X152794514Y-89988753D01*
X152795201Y-89995760D01*
X152795201Y-89995763D01*
X152796824Y-90012317D01*
X152812039Y-90167486D01*
X152814262Y-90174168D01*
X152814262Y-90174169D01*
X152842600Y-90259356D01*
X152868726Y-90337896D01*
X152872373Y-90343918D01*
X152948024Y-90468832D01*
X152961759Y-90491512D01*
X152966648Y-90496575D01*
X152966649Y-90496576D01*
X152998974Y-90530049D01*
X153086514Y-90620699D01*
X153236789Y-90719036D01*
X153405116Y-90781636D01*
X153412097Y-90782567D01*
X153412099Y-90782568D01*
X153576149Y-90804457D01*
X153576153Y-90804457D01*
X153583130Y-90805388D01*
X153590142Y-90804750D01*
X153590145Y-90804750D01*
X153679645Y-90796605D01*
X153734332Y-90791628D01*
X153803984Y-90805373D01*
X153834845Y-90828014D01*
X155266236Y-92259405D01*
X155300262Y-92321717D01*
X155295197Y-92392532D01*
X155252650Y-92449368D01*
X155186130Y-92474179D01*
X155177141Y-92474500D01*
X153021712Y-92474500D01*
X153013521Y-92474233D01*
X153009214Y-92473952D01*
X152962329Y-92470898D01*
X152953920Y-92472666D01*
X152953918Y-92472666D01*
X152914545Y-92480944D01*
X152905724Y-92482474D01*
X152857354Y-92489099D01*
X152849469Y-92492511D01*
X152843037Y-92494307D01*
X152834183Y-92497122D01*
X152834186Y-92497131D01*
X152827896Y-92499160D01*
X152821430Y-92500519D01*
X152815388Y-92503194D01*
X152815384Y-92503195D01*
X152814199Y-92503720D01*
X152812078Y-92504659D01*
X152776511Y-92523628D01*
X152767275Y-92528079D01*
X152725217Y-92546280D01*
X152718542Y-92551685D01*
X152718536Y-92551689D01*
X152717561Y-92552479D01*
X152697564Y-92565732D01*
X151396418Y-93259676D01*
X151337124Y-93274500D01*
X148369859Y-93274500D01*
X148301738Y-93254498D01*
X148280764Y-93237595D01*
X145963662Y-90920493D01*
X145933766Y-90872836D01*
X145933313Y-90871535D01*
X145926485Y-90851927D01*
X145913379Y-90830952D01*
X145835049Y-90705599D01*
X145831316Y-90699625D01*
X145743245Y-90610937D01*
X145709733Y-90577190D01*
X145709729Y-90577187D01*
X145704770Y-90572193D01*
X145693761Y-90565206D01*
X145638362Y-90530049D01*
X145553136Y-90475963D01*
X145534382Y-90469285D01*
X148044759Y-90469285D01*
X148045003Y-90473720D01*
X148045003Y-90473724D01*
X148058955Y-90727222D01*
X148059938Y-90745087D01*
X148113825Y-91015999D01*
X148205347Y-91276616D01*
X148332678Y-91521737D01*
X148335261Y-91525352D01*
X148335265Y-91525358D01*
X148479119Y-91726662D01*
X148493275Y-91746471D01*
X148683936Y-91946335D01*
X148687431Y-91949091D01*
X148687433Y-91949092D01*
X148854663Y-92080925D01*
X148900856Y-92117341D01*
X148962559Y-92153181D01*
X149135853Y-92253839D01*
X149135859Y-92253842D01*
X149139707Y-92256077D01*
X149395723Y-92359774D01*
X149400036Y-92360845D01*
X149400041Y-92360847D01*
X149659475Y-92425291D01*
X149659480Y-92425292D01*
X149663796Y-92426364D01*
X149668224Y-92426818D01*
X149668226Y-92426818D01*
X149743339Y-92434514D01*
X149899370Y-92450500D01*
X150070362Y-92450500D01*
X150275530Y-92435973D01*
X150279885Y-92435035D01*
X150279888Y-92435035D01*
X150541215Y-92378773D01*
X150541217Y-92378773D01*
X150545562Y-92377837D01*
X150804709Y-92282233D01*
X150853185Y-92256077D01*
X151043884Y-92153181D01*
X151047800Y-92151068D01*
X151269984Y-91986960D01*
X151275393Y-91981636D01*
X151366612Y-91891838D01*
X151466829Y-91793183D01*
X151634406Y-91573604D01*
X151637529Y-91568027D01*
X151767197Y-91336490D01*
X151767198Y-91336487D01*
X151769373Y-91332604D01*
X151783410Y-91296322D01*
X151844937Y-91137284D01*
X151869036Y-91074991D01*
X151883690Y-91011772D01*
X151910689Y-90895289D01*
X151931407Y-90805905D01*
X151955241Y-90530715D01*
X151953362Y-90496576D01*
X151940307Y-90259356D01*
X151940306Y-90259349D01*
X151940062Y-90254913D01*
X151891607Y-90011308D01*
X151887043Y-89988364D01*
X151887042Y-89988362D01*
X151886175Y-89984001D01*
X151794653Y-89723384D01*
X151667322Y-89478263D01*
X151664739Y-89474648D01*
X151664735Y-89474642D01*
X151509313Y-89257150D01*
X151509310Y-89257146D01*
X151506725Y-89253529D01*
X151316064Y-89053665D01*
X151307809Y-89047157D01*
X151102639Y-88885414D01*
X151102637Y-88885413D01*
X151099144Y-88882659D01*
X150966805Y-88805790D01*
X150864147Y-88746161D01*
X150864141Y-88746158D01*
X150860293Y-88743923D01*
X150677657Y-88669948D01*
X150608403Y-88641897D01*
X150608401Y-88641896D01*
X150604277Y-88640226D01*
X150599964Y-88639155D01*
X150599959Y-88639153D01*
X150340525Y-88574709D01*
X150340520Y-88574708D01*
X150336204Y-88573636D01*
X150331776Y-88573182D01*
X150331774Y-88573182D01*
X150251573Y-88564965D01*
X150100630Y-88549500D01*
X149929638Y-88549500D01*
X149724470Y-88564027D01*
X149720115Y-88564965D01*
X149720112Y-88564965D01*
X149458785Y-88621227D01*
X149458783Y-88621227D01*
X149454438Y-88622163D01*
X149195291Y-88717767D01*
X149191373Y-88719881D01*
X149009154Y-88818201D01*
X148952200Y-88848932D01*
X148730016Y-89013040D01*
X148533171Y-89206817D01*
X148365594Y-89426396D01*
X148363416Y-89430285D01*
X148244595Y-89642455D01*
X148230627Y-89667396D01*
X148229023Y-89671541D01*
X148229022Y-89671544D01*
X148208967Y-89723384D01*
X148130964Y-89925009D01*
X148129961Y-89929334D01*
X148129960Y-89929339D01*
X148112483Y-90004741D01*
X148068593Y-90194095D01*
X148044759Y-90469285D01*
X145534382Y-90469285D01*
X145521935Y-90464853D01*
X145390586Y-90418081D01*
X145390581Y-90418080D01*
X145383951Y-90415719D01*
X145376965Y-90414886D01*
X145376961Y-90414885D01*
X145249177Y-90399648D01*
X145205624Y-90394455D01*
X145198621Y-90395191D01*
X145198620Y-90395191D01*
X145034025Y-90412490D01*
X145034021Y-90412491D01*
X145027017Y-90413227D01*
X145020346Y-90415498D01*
X144863677Y-90468832D01*
X144863674Y-90468833D01*
X144857007Y-90471103D01*
X144851009Y-90474793D01*
X144851007Y-90474794D01*
X144815601Y-90496576D01*
X144704045Y-90565206D01*
X144699014Y-90570132D01*
X144699011Y-90570135D01*
X144647377Y-90620699D01*
X144575732Y-90690859D01*
X144571913Y-90696784D01*
X144571912Y-90696786D01*
X144501923Y-90805388D01*
X144478446Y-90841817D01*
X144476037Y-90848437D01*
X144476035Y-90848440D01*
X144462328Y-90886100D01*
X144417022Y-91010578D01*
X144394514Y-91188753D01*
X142325500Y-91188753D01*
X142325500Y-90126931D01*
X142345502Y-90058810D01*
X142399158Y-90012317D01*
X142424132Y-90004741D01*
X142424006Y-90004247D01*
X142503435Y-89984001D01*
X142643772Y-89948230D01*
X142850145Y-89854180D01*
X142913115Y-89810578D01*
X143031985Y-89728269D01*
X143031988Y-89728267D01*
X143036603Y-89725071D01*
X143197248Y-89564984D01*
X143246330Y-89494627D01*
X143323801Y-89383576D01*
X143323804Y-89383571D01*
X143327008Y-89378978D01*
X143387323Y-89247843D01*
X143419432Y-89178032D01*
X143419433Y-89178029D01*
X143421776Y-89172935D01*
X143478561Y-88953365D01*
X143491696Y-88778667D01*
X143495144Y-88732811D01*
X143495144Y-88732810D01*
X143495565Y-88727211D01*
X143494988Y-88721628D01*
X143494988Y-88721621D01*
X143491565Y-88688499D01*
X143504458Y-88618683D01*
X143553050Y-88566920D01*
X143621913Y-88549646D01*
X143689183Y-88572344D01*
X143716185Y-88597971D01*
X143775465Y-88673846D01*
X143844910Y-88738606D01*
X143959889Y-88792221D01*
X143969731Y-88793429D01*
X143969733Y-88793430D01*
X144075970Y-88806474D01*
X144075971Y-88806474D01*
X144085810Y-88807682D01*
X144210345Y-88783475D01*
X144293393Y-88737441D01*
X144938260Y-88233615D01*
X145710301Y-87630430D01*
X145710307Y-87630424D01*
X145714205Y-87627379D01*
X145778965Y-87557935D01*
X145785929Y-87543002D01*
X145804133Y-87503963D01*
X145832581Y-87442955D01*
X145848042Y-87317035D01*
X145846150Y-87307301D01*
X145845807Y-87297488D01*
X145863418Y-87228711D01*
X145915418Y-87180373D01*
X145985296Y-87167821D01*
X146050868Y-87195042D01*
X146060825Y-87203994D01*
X146367931Y-87511100D01*
X146401957Y-87573412D01*
X146404235Y-87587899D01*
X146412039Y-87667486D01*
X146468726Y-87837896D01*
X146561759Y-87991512D01*
X146686514Y-88120699D01*
X146836789Y-88219036D01*
X147005116Y-88281636D01*
X147012097Y-88282567D01*
X147012099Y-88282568D01*
X147176149Y-88304457D01*
X147176153Y-88304457D01*
X147183130Y-88305388D01*
X147190142Y-88304750D01*
X147190146Y-88304750D01*
X147354960Y-88289751D01*
X147354961Y-88289751D01*
X147361981Y-88289112D01*
X147532782Y-88233615D01*
X147598197Y-88194620D01*
X147680992Y-88145265D01*
X147680994Y-88145264D01*
X147687044Y-88141657D01*
X147817099Y-88017807D01*
X147834469Y-87991664D01*
X147912582Y-87874093D01*
X147916483Y-87868222D01*
X147941420Y-87802575D01*
X147977757Y-87706919D01*
X147977758Y-87706914D01*
X147980257Y-87700336D01*
X147981237Y-87693364D01*
X148004700Y-87526416D01*
X148004700Y-87526411D01*
X148005251Y-87522493D01*
X148005565Y-87500000D01*
X147985546Y-87321528D01*
X147977175Y-87297488D01*
X147945239Y-87205782D01*
X147926485Y-87151927D01*
X147913532Y-87131197D01*
X147835049Y-87005599D01*
X147831316Y-86999625D01*
X147754306Y-86922076D01*
X147709733Y-86877190D01*
X147709729Y-86877187D01*
X147704770Y-86872193D01*
X147553136Y-86775963D01*
X147523352Y-86765357D01*
X147390586Y-86718081D01*
X147390581Y-86718080D01*
X147383951Y-86715719D01*
X147376965Y-86714886D01*
X147376961Y-86714885D01*
X147249177Y-86699648D01*
X147205624Y-86694455D01*
X147198621Y-86695191D01*
X147198619Y-86695191D01*
X147113371Y-86704151D01*
X147043533Y-86691379D01*
X147011110Y-86667940D01*
X146034794Y-85691625D01*
X146000771Y-85629315D01*
X146005835Y-85558500D01*
X146048382Y-85501664D01*
X146114902Y-85476853D01*
X146181311Y-85490376D01*
X148378310Y-86615176D01*
X151386273Y-88155167D01*
X151437793Y-88204015D01*
X151448406Y-88227540D01*
X151481025Y-88325597D01*
X151574058Y-88479213D01*
X151698813Y-88608400D01*
X151849088Y-88706737D01*
X152017415Y-88769337D01*
X152024396Y-88770268D01*
X152024398Y-88770269D01*
X152188448Y-88792158D01*
X152188452Y-88792158D01*
X152195429Y-88793089D01*
X152202441Y-88792451D01*
X152202445Y-88792451D01*
X152367259Y-88777452D01*
X152367260Y-88777452D01*
X152374280Y-88776813D01*
X152495454Y-88737441D01*
X152538381Y-88723493D01*
X152545081Y-88721316D01*
X152576013Y-88702877D01*
X152693291Y-88632966D01*
X152693293Y-88632965D01*
X152699343Y-88629358D01*
X152829398Y-88505508D01*
X152834844Y-88497312D01*
X152924881Y-88361794D01*
X152928782Y-88355923D01*
X152947508Y-88306627D01*
X152990056Y-88194620D01*
X152990057Y-88194615D01*
X152992556Y-88188037D01*
X152999757Y-88136799D01*
X153016999Y-88014117D01*
X153016999Y-88014112D01*
X153017550Y-88010194D01*
X153017864Y-87987701D01*
X152997845Y-87809229D01*
X152938784Y-87639628D01*
X152933037Y-87630430D01*
X152847348Y-87493300D01*
X152843615Y-87487326D01*
X152780070Y-87423336D01*
X152722032Y-87364891D01*
X152722028Y-87364888D01*
X152717069Y-87359894D01*
X152565435Y-87263664D01*
X152535651Y-87253058D01*
X152402885Y-87205782D01*
X152402880Y-87205781D01*
X152396250Y-87203420D01*
X152389264Y-87202587D01*
X152389260Y-87202586D01*
X152261476Y-87187349D01*
X152217923Y-87182156D01*
X152210920Y-87182892D01*
X152210919Y-87182892D01*
X152046324Y-87200191D01*
X152046320Y-87200192D01*
X152039316Y-87200928D01*
X152032645Y-87203199D01*
X151963319Y-87226799D01*
X151892386Y-87229817D01*
X151865294Y-87219677D01*
X145663589Y-84044583D01*
X145654613Y-84039514D01*
X145623049Y-84019943D01*
X145623046Y-84019942D01*
X145615750Y-84015418D01*
X145577592Y-84004332D01*
X145563618Y-84000272D01*
X145557103Y-83998186D01*
X145513957Y-83983067D01*
X145513954Y-83983066D01*
X145505854Y-83980228D01*
X145497288Y-83979672D01*
X145490325Y-83978254D01*
X145490324Y-83978260D01*
X145483831Y-83977092D01*
X145477488Y-83975249D01*
X145470906Y-83974766D01*
X145470902Y-83974765D01*
X145469596Y-83974669D01*
X145469583Y-83974669D01*
X145467288Y-83974500D01*
X145421627Y-83974500D01*
X145413472Y-83974236D01*
X145408803Y-83973933D01*
X145362177Y-83970909D01*
X145353772Y-83972679D01*
X145345205Y-83973291D01*
X145345193Y-83973126D01*
X145332001Y-83974500D01*
X143270297Y-83974500D01*
X143261443Y-83974043D01*
X143254617Y-83972378D01*
X143192409Y-83974431D01*
X143188253Y-83974500D01*
X143163930Y-83974500D01*
X143159691Y-83975081D01*
X143155399Y-83975373D01*
X143155396Y-83975324D01*
X143149054Y-83975862D01*
X143110717Y-83977127D01*
X143094726Y-83982166D01*
X143073969Y-83986823D01*
X143057354Y-83989099D01*
X143031535Y-84000272D01*
X143022153Y-84004332D01*
X143009979Y-84008870D01*
X142979696Y-84018412D01*
X142979692Y-84018414D01*
X142973395Y-84020398D01*
X142967649Y-84023647D01*
X142967648Y-84023648D01*
X142966500Y-84024297D01*
X142966492Y-84024302D01*
X142964492Y-84025433D01*
X142962562Y-84026719D01*
X142962563Y-84026719D01*
X142957467Y-84030116D01*
X142937623Y-84040911D01*
X142925217Y-84046280D01*
X142918544Y-84051684D01*
X142918542Y-84051685D01*
X142892467Y-84072801D01*
X142883064Y-84079719D01*
X141360886Y-85094504D01*
X141293111Y-85115648D01*
X141276077Y-85114780D01*
X141105624Y-85094455D01*
X141098621Y-85095191D01*
X141098620Y-85095191D01*
X140934025Y-85112490D01*
X140934021Y-85112491D01*
X140927017Y-85113227D01*
X140920346Y-85115498D01*
X140763677Y-85168832D01*
X140763674Y-85168833D01*
X140757007Y-85171103D01*
X140604045Y-85265206D01*
X140599014Y-85270132D01*
X140599011Y-85270135D01*
X140536883Y-85330976D01*
X140475732Y-85390859D01*
X140471913Y-85396784D01*
X140471912Y-85396786D01*
X140404323Y-85501664D01*
X140378446Y-85541817D01*
X140317022Y-85710578D01*
X140294514Y-85888753D01*
X140312039Y-86067486D01*
X140368726Y-86237896D01*
X140461759Y-86391512D01*
X140586514Y-86520699D01*
X140736789Y-86619036D01*
X140743393Y-86621492D01*
X140743395Y-86621493D01*
X140775579Y-86633462D01*
X140832456Y-86675954D01*
X140857330Y-86742451D01*
X140842305Y-86811839D01*
X140810158Y-86850120D01*
X137851087Y-89206817D01*
X137799575Y-89247843D01*
X137785493Y-89256907D01*
X137780281Y-89260529D01*
X137772628Y-89264429D01*
X137766306Y-89270242D01*
X137766302Y-89270245D01*
X137736309Y-89297825D01*
X137729533Y-89303627D01*
X137719761Y-89311410D01*
X137709856Y-89321788D01*
X137703999Y-89327536D01*
X137672972Y-89356066D01*
X137672969Y-89356070D01*
X137666646Y-89361884D01*
X137662119Y-89369185D01*
X137656644Y-89375804D01*
X137656516Y-89375698D01*
X137656321Y-89375951D01*
X137656455Y-89376048D01*
X137651422Y-89383010D01*
X137645489Y-89389226D01*
X137621605Y-89434023D01*
X137617538Y-89441088D01*
X137590776Y-89484250D01*
X137588379Y-89492499D01*
X137584885Y-89500347D01*
X137584734Y-89500280D01*
X137584611Y-89500584D01*
X137584766Y-89500641D01*
X137581791Y-89508697D01*
X137577751Y-89516275D01*
X137575898Y-89524657D01*
X137566795Y-89565834D01*
X137564762Y-89573787D01*
X137552449Y-89616169D01*
X137552448Y-89616176D01*
X137550607Y-89622512D01*
X137549858Y-89632712D01*
X137549858Y-89633232D01*
X137549008Y-89639891D01*
X137549227Y-89639909D01*
X137548529Y-89648469D01*
X137546674Y-89656859D01*
X137547144Y-89665440D01*
X137549669Y-89711541D01*
X137549858Y-89718432D01*
X137549858Y-90207697D01*
X137529856Y-90275818D01*
X137476110Y-90322352D01*
X137400830Y-90356659D01*
X137303666Y-90400940D01*
X137282322Y-90415719D01*
X137121826Y-90526851D01*
X137121823Y-90526853D01*
X137117208Y-90530049D01*
X137113229Y-90534014D01*
X137113228Y-90534015D01*
X137085632Y-90561515D01*
X136956563Y-90690136D01*
X136953358Y-90694730D01*
X136953354Y-90694735D01*
X136843695Y-90851927D01*
X136826803Y-90876141D01*
X136732035Y-91082185D01*
X136711766Y-91160560D01*
X136677404Y-91293428D01*
X136675250Y-91301755D01*
X136658246Y-91527909D01*
X136664107Y-91584622D01*
X136674591Y-91686079D01*
X136661697Y-91755895D01*
X136613104Y-91807657D01*
X136544241Y-91824931D01*
X136490593Y-91810541D01*
X136475080Y-91802380D01*
X136465287Y-91798243D01*
X136253085Y-91729090D01*
X136242734Y-91726662D01*
X136021921Y-91694252D01*
X136011300Y-91693602D01*
X135788182Y-91698861D01*
X135777610Y-91700010D01*
X135558559Y-91742787D01*
X135548342Y-91745698D01*
X135339631Y-91824771D01*
X135330041Y-91829366D01*
X135312888Y-91839449D01*
X135303077Y-91849902D01*
X130241647Y-91849902D01*
X130009540Y-91223752D01*
X130004618Y-91152926D01*
X130038768Y-91090682D01*
X130050691Y-91080217D01*
X130054753Y-91077082D01*
X143689973Y-80551649D01*
X143756119Y-80525857D01*
X143825709Y-80539920D01*
G37*
G04 #@! TD.AperFunction*
M02*
