%FSLAX45Y45*%
G04 Gerber Fmt 4.5, Leading zero omitted, Abs format (unit mm)*
G04 Created by KiCad (PCBNEW 6.0.0-rc2) date 2022-07-08 10:40:52*
%MOMM*%
%LPD*%
G01*
G04 APERTURE LIST*
%TA.AperFunction,Profile*%
%ADD10C,0.200000*%
%TD*%
%ADD11C,0.200000*%
%ADD12C,0.310000*%
G04 APERTURE END LIST*
D10*
X14850000Y-11326000D02*
X13288000Y-10133000D01*
X14300000Y-8050000D02*
X16615000Y-9800000D01*
X15150000Y-11326000D02*
X14850000Y-11326000D01*
X16615000Y-10225000D02*
X15150000Y-11326000D01*
X13025000Y-9025000D02*
X14300000Y-8050000D01*
X16615000Y-9800000D02*
X16615000Y-10225000D01*
X13288000Y-10133000D02*
X13025000Y-9025000D01*
D11*
D12*
X13595000Y-9845000D02*
X13905000Y-10155000D01*
X13905000Y-9845000D02*
X13595000Y-10155000D01*
X14845000Y-8895000D02*
X15155000Y-9205000D01*
X15155000Y-8895000D02*
X14845000Y-9205000D01*
X14845000Y-10795000D02*
X15155000Y-11105000D01*
X15155000Y-10795000D02*
X14845000Y-11105000D01*
X16095000Y-9845000D02*
X16405000Y-10155000D01*
X16405000Y-9845000D02*
X16095000Y-10155000D01*
D11*
X13272619Y-11646476D02*
X13272619Y-11446476D01*
X13320238Y-11446476D01*
X13348809Y-11456000D01*
X13367857Y-11475048D01*
X13377381Y-11494095D01*
X13386905Y-11532190D01*
X13386905Y-11560762D01*
X13377381Y-11598857D01*
X13367857Y-11617905D01*
X13348809Y-11636952D01*
X13320238Y-11646476D01*
X13272619Y-11646476D01*
X13472619Y-11646476D02*
X13472619Y-11513143D01*
X13472619Y-11551238D02*
X13482143Y-11532190D01*
X13491667Y-11522667D01*
X13510714Y-11513143D01*
X13529762Y-11513143D01*
X13596428Y-11646476D02*
X13596428Y-11513143D01*
X13596428Y-11446476D02*
X13586905Y-11456000D01*
X13596428Y-11465524D01*
X13605952Y-11456000D01*
X13596428Y-11446476D01*
X13596428Y-11465524D01*
X13720238Y-11646476D02*
X13701190Y-11636952D01*
X13691667Y-11617905D01*
X13691667Y-11446476D01*
X13825000Y-11646476D02*
X13805952Y-11636952D01*
X13796428Y-11617905D01*
X13796428Y-11446476D01*
X14053571Y-11646476D02*
X14053571Y-11446476D01*
X14120238Y-11589333D01*
X14186905Y-11446476D01*
X14186905Y-11646476D01*
X14367857Y-11646476D02*
X14367857Y-11541714D01*
X14358333Y-11522667D01*
X14339286Y-11513143D01*
X14301190Y-11513143D01*
X14282143Y-11522667D01*
X14367857Y-11636952D02*
X14348809Y-11646476D01*
X14301190Y-11646476D01*
X14282143Y-11636952D01*
X14272619Y-11617905D01*
X14272619Y-11598857D01*
X14282143Y-11579809D01*
X14301190Y-11570286D01*
X14348809Y-11570286D01*
X14367857Y-11560762D01*
X14463095Y-11513143D02*
X14463095Y-11713143D01*
X14463095Y-11522667D02*
X14482143Y-11513143D01*
X14520238Y-11513143D01*
X14539286Y-11522667D01*
X14548809Y-11532190D01*
X14558333Y-11551238D01*
X14558333Y-11608381D01*
X14548809Y-11627428D01*
X14539286Y-11636952D01*
X14520238Y-11646476D01*
X14482143Y-11646476D01*
X14463095Y-11636952D01*
X14644048Y-11627428D02*
X14653571Y-11636952D01*
X14644048Y-11646476D01*
X14634524Y-11636952D01*
X14644048Y-11627428D01*
X14644048Y-11646476D01*
X14644048Y-11522667D02*
X14653571Y-11532190D01*
X14644048Y-11541714D01*
X14634524Y-11532190D01*
X14644048Y-11522667D01*
X14644048Y-11541714D01*
X12815000Y-11876000D02*
X13015000Y-12076000D01*
X13015000Y-11876000D02*
X12815000Y-12076000D01*
X13253571Y-11866476D02*
X13377381Y-11866476D01*
X13310714Y-11942667D01*
X13339286Y-11942667D01*
X13358333Y-11952190D01*
X13367857Y-11961714D01*
X13377381Y-11980762D01*
X13377381Y-12028381D01*
X13367857Y-12047428D01*
X13358333Y-12056952D01*
X13339286Y-12066476D01*
X13282143Y-12066476D01*
X13263095Y-12056952D01*
X13253571Y-12047428D01*
X13463095Y-12047428D02*
X13472619Y-12056952D01*
X13463095Y-12066476D01*
X13453571Y-12056952D01*
X13463095Y-12047428D01*
X13463095Y-12066476D01*
X13663095Y-12066476D02*
X13548809Y-12066476D01*
X13605952Y-12066476D02*
X13605952Y-11866476D01*
X13586905Y-11895048D01*
X13567857Y-11914095D01*
X13548809Y-11923619D01*
X13786905Y-11866476D02*
X13805952Y-11866476D01*
X13825000Y-11876000D01*
X13834524Y-11885524D01*
X13844048Y-11904571D01*
X13853571Y-11942667D01*
X13853571Y-11990286D01*
X13844048Y-12028381D01*
X13834524Y-12047428D01*
X13825000Y-12056952D01*
X13805952Y-12066476D01*
X13786905Y-12066476D01*
X13767857Y-12056952D01*
X13758333Y-12047428D01*
X13748809Y-12028381D01*
X13739286Y-11990286D01*
X13739286Y-11942667D01*
X13748809Y-11904571D01*
X13758333Y-11885524D01*
X13767857Y-11876000D01*
X13786905Y-11866476D01*
X13977381Y-11866476D02*
X13996428Y-11866476D01*
X14015476Y-11876000D01*
X14025000Y-11885524D01*
X14034524Y-11904571D01*
X14044048Y-11942667D01*
X14044048Y-11990286D01*
X14034524Y-12028381D01*
X14025000Y-12047428D01*
X14015476Y-12056952D01*
X13996428Y-12066476D01*
X13977381Y-12066476D01*
X13958333Y-12056952D01*
X13948809Y-12047428D01*
X13939286Y-12028381D01*
X13929762Y-11990286D01*
X13929762Y-11942667D01*
X13939286Y-11904571D01*
X13948809Y-11885524D01*
X13958333Y-11876000D01*
X13977381Y-11866476D01*
X14129762Y-12066476D02*
X14129762Y-11933143D01*
X14129762Y-11952190D02*
X14139286Y-11942667D01*
X14158333Y-11933143D01*
X14186905Y-11933143D01*
X14205952Y-11942667D01*
X14215476Y-11961714D01*
X14215476Y-12066476D01*
X14215476Y-11961714D02*
X14225000Y-11942667D01*
X14244048Y-11933143D01*
X14272619Y-11933143D01*
X14291667Y-11942667D01*
X14301190Y-11961714D01*
X14301190Y-12066476D01*
X14396428Y-12066476D02*
X14396428Y-11933143D01*
X14396428Y-11952190D02*
X14405952Y-11942667D01*
X14425000Y-11933143D01*
X14453571Y-11933143D01*
X14472619Y-11942667D01*
X14482143Y-11961714D01*
X14482143Y-12066476D01*
X14482143Y-11961714D02*
X14491667Y-11942667D01*
X14510714Y-11933143D01*
X14539286Y-11933143D01*
X14558333Y-11942667D01*
X14567857Y-11961714D01*
X14567857Y-12066476D01*
X14958333Y-11856952D02*
X14786905Y-12114095D01*
X15215476Y-11866476D02*
X15234524Y-11866476D01*
X15253571Y-11876000D01*
X15263095Y-11885524D01*
X15272619Y-11904571D01*
X15282143Y-11942667D01*
X15282143Y-11990286D01*
X15272619Y-12028381D01*
X15263095Y-12047428D01*
X15253571Y-12056952D01*
X15234524Y-12066476D01*
X15215476Y-12066476D01*
X15196428Y-12056952D01*
X15186905Y-12047428D01*
X15177381Y-12028381D01*
X15167857Y-11990286D01*
X15167857Y-11942667D01*
X15177381Y-11904571D01*
X15186905Y-11885524D01*
X15196428Y-11876000D01*
X15215476Y-11866476D01*
X15367857Y-12047428D02*
X15377381Y-12056952D01*
X15367857Y-12066476D01*
X15358333Y-12056952D01*
X15367857Y-12047428D01*
X15367857Y-12066476D01*
X15567857Y-12066476D02*
X15453571Y-12066476D01*
X15510714Y-12066476D02*
X15510714Y-11866476D01*
X15491667Y-11895048D01*
X15472619Y-11914095D01*
X15453571Y-11923619D01*
X15644048Y-11885524D02*
X15653571Y-11876000D01*
X15672619Y-11866476D01*
X15720238Y-11866476D01*
X15739286Y-11876000D01*
X15748809Y-11885524D01*
X15758333Y-11904571D01*
X15758333Y-11923619D01*
X15748809Y-11952190D01*
X15634524Y-12066476D01*
X15758333Y-12066476D01*
X15834524Y-11885524D02*
X15844048Y-11876000D01*
X15863095Y-11866476D01*
X15910714Y-11866476D01*
X15929762Y-11876000D01*
X15939286Y-11885524D01*
X15948809Y-11904571D01*
X15948809Y-11923619D01*
X15939286Y-11952190D01*
X15825000Y-12066476D01*
X15948809Y-12066476D01*
X16072619Y-11866476D02*
X16091667Y-11866476D01*
X16110714Y-11876000D01*
X16120238Y-11885524D01*
X16129762Y-11904571D01*
X16139286Y-11942667D01*
X16139286Y-11990286D01*
X16129762Y-12028381D01*
X16120238Y-12047428D01*
X16110714Y-12056952D01*
X16091667Y-12066476D01*
X16072619Y-12066476D01*
X16053571Y-12056952D01*
X16044048Y-12047428D01*
X16034524Y-12028381D01*
X16025000Y-11990286D01*
X16025000Y-11942667D01*
X16034524Y-11904571D01*
X16044048Y-11885524D01*
X16053571Y-11876000D01*
X16072619Y-11866476D01*
X16215476Y-11866476D02*
X16215476Y-11904571D01*
X16291667Y-11866476D02*
X16291667Y-11904571D01*
X16586905Y-12142667D02*
X16577381Y-12133143D01*
X16558333Y-12104571D01*
X16548809Y-12085524D01*
X16539286Y-12056952D01*
X16529762Y-12009333D01*
X16529762Y-11971238D01*
X16539286Y-11923619D01*
X16548809Y-11895048D01*
X16558333Y-11876000D01*
X16577381Y-11847428D01*
X16586905Y-11837905D01*
X16748809Y-11933143D02*
X16748809Y-12066476D01*
X16701190Y-11856952D02*
X16653571Y-11999809D01*
X16777381Y-11999809D01*
X17005952Y-12066476D02*
X17005952Y-11866476D01*
X17091667Y-12066476D02*
X17091667Y-11961714D01*
X17082143Y-11942667D01*
X17063095Y-11933143D01*
X17034524Y-11933143D01*
X17015476Y-11942667D01*
X17005952Y-11952190D01*
X17215476Y-12066476D02*
X17196429Y-12056952D01*
X17186905Y-12047428D01*
X17177381Y-12028381D01*
X17177381Y-11971238D01*
X17186905Y-11952190D01*
X17196429Y-11942667D01*
X17215476Y-11933143D01*
X17244048Y-11933143D01*
X17263095Y-11942667D01*
X17272619Y-11952190D01*
X17282143Y-11971238D01*
X17282143Y-12028381D01*
X17272619Y-12047428D01*
X17263095Y-12056952D01*
X17244048Y-12066476D01*
X17215476Y-12066476D01*
X17396429Y-12066476D02*
X17377381Y-12056952D01*
X17367857Y-12037905D01*
X17367857Y-11866476D01*
X17548810Y-12056952D02*
X17529762Y-12066476D01*
X17491667Y-12066476D01*
X17472619Y-12056952D01*
X17463095Y-12037905D01*
X17463095Y-11961714D01*
X17472619Y-11942667D01*
X17491667Y-11933143D01*
X17529762Y-11933143D01*
X17548810Y-11942667D01*
X17558333Y-11961714D01*
X17558333Y-11980762D01*
X17463095Y-11999809D01*
X17634524Y-12056952D02*
X17653571Y-12066476D01*
X17691667Y-12066476D01*
X17710714Y-12056952D01*
X17720238Y-12037905D01*
X17720238Y-12028381D01*
X17710714Y-12009333D01*
X17691667Y-11999809D01*
X17663095Y-11999809D01*
X17644048Y-11990286D01*
X17634524Y-11971238D01*
X17634524Y-11961714D01*
X17644048Y-11942667D01*
X17663095Y-11933143D01*
X17691667Y-11933143D01*
X17710714Y-11942667D01*
X17786905Y-12142667D02*
X17796429Y-12133143D01*
X17815476Y-12104571D01*
X17825000Y-12085524D01*
X17834524Y-12056952D01*
X17844048Y-12009333D01*
X17844048Y-11971238D01*
X17834524Y-11923619D01*
X17825000Y-11895048D01*
X17815476Y-11876000D01*
X17796429Y-11847428D01*
X17786905Y-11837905D01*
X18148810Y-12142667D02*
X18139286Y-12133143D01*
X18120238Y-12104571D01*
X18110714Y-12085524D01*
X18101190Y-12056952D01*
X18091667Y-12009333D01*
X18091667Y-11971238D01*
X18101190Y-11923619D01*
X18110714Y-11895048D01*
X18120238Y-11876000D01*
X18139286Y-11847428D01*
X18148810Y-11837905D01*
X18225000Y-11933143D02*
X18225000Y-12066476D01*
X18225000Y-11952190D02*
X18234524Y-11942667D01*
X18253571Y-11933143D01*
X18282143Y-11933143D01*
X18301190Y-11942667D01*
X18310714Y-11961714D01*
X18310714Y-12066476D01*
X18434524Y-12066476D02*
X18415476Y-12056952D01*
X18405952Y-12047428D01*
X18396429Y-12028381D01*
X18396429Y-11971238D01*
X18405952Y-11952190D01*
X18415476Y-11942667D01*
X18434524Y-11933143D01*
X18463095Y-11933143D01*
X18482143Y-11942667D01*
X18491667Y-11952190D01*
X18501190Y-11971238D01*
X18501190Y-12028381D01*
X18491667Y-12047428D01*
X18482143Y-12056952D01*
X18463095Y-12066476D01*
X18434524Y-12066476D01*
X18558333Y-11933143D02*
X18634524Y-11933143D01*
X18586905Y-11866476D02*
X18586905Y-12037905D01*
X18596429Y-12056952D01*
X18615476Y-12066476D01*
X18634524Y-12066476D01*
X18853571Y-11933143D02*
X18853571Y-12133143D01*
X18853571Y-11942667D02*
X18872619Y-11933143D01*
X18910714Y-11933143D01*
X18929762Y-11942667D01*
X18939286Y-11952190D01*
X18948810Y-11971238D01*
X18948810Y-12028381D01*
X18939286Y-12047428D01*
X18929762Y-12056952D01*
X18910714Y-12066476D01*
X18872619Y-12066476D01*
X18853571Y-12056952D01*
X19063095Y-12066476D02*
X19044048Y-12056952D01*
X19034524Y-12037905D01*
X19034524Y-11866476D01*
X19225000Y-12066476D02*
X19225000Y-11961714D01*
X19215476Y-11942667D01*
X19196429Y-11933143D01*
X19158333Y-11933143D01*
X19139286Y-11942667D01*
X19225000Y-12056952D02*
X19205952Y-12066476D01*
X19158333Y-12066476D01*
X19139286Y-12056952D01*
X19129762Y-12037905D01*
X19129762Y-12018857D01*
X19139286Y-11999809D01*
X19158333Y-11990286D01*
X19205952Y-11990286D01*
X19225000Y-11980762D01*
X19291667Y-11933143D02*
X19367857Y-11933143D01*
X19320238Y-11866476D02*
X19320238Y-12037905D01*
X19329762Y-12056952D01*
X19348810Y-12066476D01*
X19367857Y-12066476D01*
X19510714Y-12056952D02*
X19491667Y-12066476D01*
X19453571Y-12066476D01*
X19434524Y-12056952D01*
X19425000Y-12037905D01*
X19425000Y-11961714D01*
X19434524Y-11942667D01*
X19453571Y-11933143D01*
X19491667Y-11933143D01*
X19510714Y-11942667D01*
X19520238Y-11961714D01*
X19520238Y-11980762D01*
X19425000Y-11999809D01*
X19691667Y-12066476D02*
X19691667Y-11866476D01*
X19691667Y-12056952D02*
X19672619Y-12066476D01*
X19634524Y-12066476D01*
X19615476Y-12056952D01*
X19605952Y-12047428D01*
X19596429Y-12028381D01*
X19596429Y-11971238D01*
X19605952Y-11952190D01*
X19615476Y-11942667D01*
X19634524Y-11933143D01*
X19672619Y-11933143D01*
X19691667Y-11942667D01*
X19767857Y-12142667D02*
X19777381Y-12133143D01*
X19796429Y-12104571D01*
X19805952Y-12085524D01*
X19815476Y-12056952D01*
X19825000Y-12009333D01*
X19825000Y-11971238D01*
X19815476Y-11923619D01*
X19805952Y-11895048D01*
X19796429Y-11876000D01*
X19777381Y-11847428D01*
X19767857Y-11837905D01*
M02*
