G04 #@! TF.GenerationSoftware,KiCad,Pcbnew,6.0.0-rc2*
G04 #@! TF.CreationDate,2022-07-08T10:42:51-07:00*
G04 #@! TF.ProjectId,rp2040_encoder,72703230-3430-45f6-956e-636f6465722e,rev?*
G04 #@! TF.SameCoordinates,Original*
G04 #@! TF.FileFunction,Copper,L2,Bot*
G04 #@! TF.FilePolarity,Positive*
%FSLAX46Y46*%
G04 Gerber Fmt 4.6, Leading zero omitted, Abs format (unit mm)*
G04 Created by KiCad (PCBNEW 6.0.0-rc2) date 2022-07-08 10:42:51*
%MOMM*%
%LPD*%
G01*
G04 APERTURE LIST*
G04 Aperture macros list*
%AMHorizOval*
0 Thick line with rounded ends*
0 $1 width*
0 $2 $3 position (X,Y) of the first rounded end (center of the circle)*
0 $4 $5 position (X,Y) of the second rounded end (center of the circle)*
0 Add line between two ends*
20,1,$1,$2,$3,$4,$5,0*
0 Add two circle primitives to create the rounded ends*
1,1,$1,$2,$3*
1,1,$1,$4,$5*%
%AMRotRect*
0 Rectangle, with rotation*
0 The origin of the aperture is its center*
0 $1 length*
0 $2 width*
0 $3 Rotation angle, in degrees counterclockwise*
0 Add horizontal line*
21,1,$1,$2,0,0,$3*%
G04 Aperture macros list end*
G04 #@! TA.AperFunction,ComponentPad*
%ADD10HorizOval,1.740000X-0.141602X0.181242X0.141602X-0.181242X0*%
G04 #@! TD*
G04 #@! TA.AperFunction,ComponentPad*
%ADD11RotRect,1.740000X2.200000X218.000000*%
G04 #@! TD*
G04 #@! TA.AperFunction,ViaPad*
%ADD12C,0.800000*%
G04 #@! TD*
G04 #@! TA.AperFunction,Conductor*
%ADD13C,0.250000*%
G04 #@! TD*
G04 APERTURE END LIST*
D10*
X136073811Y-93255121D03*
X138075358Y-91691340D03*
X140076905Y-90127560D03*
X142078453Y-88563780D03*
D11*
X144080000Y-87000000D03*
D12*
X152900000Y-97400000D03*
X145700000Y-106250000D03*
X153950000Y-100650000D03*
X156350000Y-97100000D03*
X146000000Y-102750000D03*
X156950000Y-103850000D03*
X148600000Y-101150000D03*
D13*
X144550000Y-102300000D02*
X144550000Y-105200000D01*
X144250000Y-99350000D02*
X144250000Y-102000000D01*
X145600000Y-106250000D02*
X145700000Y-106250000D01*
X144550000Y-105200000D02*
X145600000Y-106250000D01*
X152650000Y-97650000D02*
X148950000Y-97650000D01*
X152900000Y-97400000D02*
X152650000Y-97650000D01*
X144450000Y-102200000D02*
X144550000Y-102300000D01*
X145950000Y-97650000D02*
X144250000Y-99350000D01*
X144250000Y-102000000D02*
X144450000Y-102200000D01*
X148950000Y-97650000D02*
X145950000Y-97650000D01*
X156950000Y-103850000D02*
X156850000Y-103750000D01*
X156850000Y-103750000D02*
X152000000Y-103750000D01*
X152000000Y-103750000D02*
X149400000Y-101150000D01*
X149400000Y-101150000D02*
X148600000Y-101150000D01*
X153950000Y-100650000D02*
X155100000Y-99500000D01*
X155100000Y-99500000D02*
X156450000Y-99500000D01*
X156450000Y-99500000D02*
X157600000Y-98350000D01*
X154700000Y-93600000D02*
X146550000Y-93600000D01*
X157600000Y-98350000D02*
X157600000Y-96500000D01*
X157600000Y-96500000D02*
X154700000Y-93600000D01*
X146550000Y-93600000D02*
X142078453Y-89128453D01*
X142078453Y-89128453D02*
X142078453Y-88563780D01*
X156350000Y-97100000D02*
X156200000Y-97100000D01*
X156200000Y-97100000D02*
X153650000Y-94550000D01*
X153650000Y-94550000D02*
X140900000Y-94550000D01*
X140900000Y-94550000D02*
X138075358Y-91725358D01*
X138075358Y-91725358D02*
X138075358Y-91691340D01*
G04 #@! TA.AperFunction,Conductor*
G36*
X143061461Y-81185237D02*
G01*
X143078194Y-81195925D01*
X153151026Y-88810376D01*
X165591983Y-98214987D01*
X165634261Y-98272021D01*
X165642000Y-98315499D01*
X165642000Y-101933388D01*
X165621998Y-102001509D01*
X165591699Y-102034114D01*
X152939718Y-111542532D01*
X151364019Y-112726726D01*
X151297546Y-112751662D01*
X151288320Y-112752000D01*
X148714422Y-112752000D01*
X148646301Y-112731998D01*
X148637943Y-112726135D01*
X144319660Y-109427984D01*
X147937730Y-109427984D01*
X147937883Y-109432372D01*
X147937883Y-109432378D01*
X147942760Y-109572016D01*
X147947777Y-109715697D01*
X147997769Y-109999212D01*
X148086731Y-110273011D01*
X148212933Y-110531763D01*
X148215388Y-110535402D01*
X148215391Y-110535408D01*
X148371459Y-110766788D01*
X148371464Y-110766795D01*
X148373919Y-110770434D01*
X148566554Y-110984377D01*
X148787089Y-111169428D01*
X149031233Y-111321986D01*
X149294232Y-111439081D01*
X149570969Y-111518434D01*
X149575316Y-111519045D01*
X149575321Y-111519046D01*
X149713512Y-111538467D01*
X149856056Y-111558500D01*
X150071890Y-111558500D01*
X150074076Y-111558347D01*
X150074080Y-111558347D01*
X150282802Y-111543752D01*
X150282807Y-111543751D01*
X150287187Y-111543445D01*
X150568785Y-111483589D01*
X150572914Y-111482086D01*
X150572918Y-111482085D01*
X150835167Y-111386635D01*
X150835171Y-111386633D01*
X150839312Y-111385126D01*
X151093503Y-111249970D01*
X151201150Y-111171760D01*
X151322847Y-111083342D01*
X151322850Y-111083340D01*
X151326410Y-111080753D01*
X151426210Y-110984377D01*
X151530337Y-110883823D01*
X151530340Y-110883819D01*
X151533499Y-110880769D01*
X151619703Y-110770434D01*
X151708033Y-110657376D01*
X151710741Y-110653910D01*
X151854686Y-110404591D01*
X151856336Y-110400507D01*
X151856339Y-110400501D01*
X151960882Y-110141746D01*
X151962531Y-110137665D01*
X152032177Y-109858328D01*
X152046714Y-109720026D01*
X152061811Y-109576385D01*
X152061811Y-109576382D01*
X152062270Y-109572016D01*
X152057394Y-109432378D01*
X152052377Y-109288700D01*
X152052376Y-109288694D01*
X152052223Y-109284303D01*
X152002231Y-109000788D01*
X151913269Y-108726989D01*
X151787067Y-108468237D01*
X151784612Y-108464598D01*
X151784609Y-108464592D01*
X151628541Y-108233212D01*
X151628536Y-108233205D01*
X151626081Y-108229566D01*
X151433446Y-108015623D01*
X151212911Y-107830572D01*
X150968767Y-107678014D01*
X150705768Y-107560919D01*
X150429031Y-107481566D01*
X150424684Y-107480955D01*
X150424679Y-107480954D01*
X150257563Y-107457468D01*
X150143944Y-107441500D01*
X149928110Y-107441500D01*
X149925924Y-107441653D01*
X149925920Y-107441653D01*
X149717198Y-107456248D01*
X149717193Y-107456249D01*
X149712813Y-107456555D01*
X149431215Y-107516411D01*
X149427086Y-107517914D01*
X149427082Y-107517915D01*
X149164833Y-107613365D01*
X149164829Y-107613367D01*
X149160688Y-107614874D01*
X148906497Y-107750030D01*
X148902938Y-107752616D01*
X148902936Y-107752617D01*
X148795641Y-107830572D01*
X148673590Y-107919247D01*
X148670426Y-107922303D01*
X148670423Y-107922305D01*
X148469663Y-108116177D01*
X148469660Y-108116181D01*
X148466501Y-108119231D01*
X148463795Y-108122695D01*
X148463791Y-108122699D01*
X148377449Y-108233212D01*
X148289259Y-108346090D01*
X148145314Y-108595409D01*
X148143664Y-108599493D01*
X148143661Y-108599499D01*
X148093751Y-108723031D01*
X148037469Y-108862335D01*
X147967823Y-109141672D01*
X147967364Y-109146042D01*
X147967363Y-109146046D01*
X147938189Y-109423615D01*
X147937730Y-109427984D01*
X144319660Y-109427984D01*
X133368134Y-101063599D01*
X133326138Y-101006355D01*
X133322019Y-100992563D01*
X133312817Y-100953794D01*
X133069326Y-99927984D01*
X135437730Y-99927984D01*
X135437883Y-99932372D01*
X135437883Y-99932378D01*
X135444984Y-100135702D01*
X135447777Y-100215697D01*
X135448540Y-100220021D01*
X135448540Y-100220026D01*
X135459949Y-100284729D01*
X135497769Y-100499212D01*
X135586731Y-100773011D01*
X135588659Y-100776964D01*
X135588661Y-100776969D01*
X135645199Y-100892887D01*
X135712933Y-101031763D01*
X135715388Y-101035402D01*
X135715391Y-101035408D01*
X135871459Y-101266788D01*
X135871464Y-101266795D01*
X135873919Y-101270434D01*
X135876863Y-101273703D01*
X135876864Y-101273705D01*
X135942144Y-101346206D01*
X136066554Y-101484377D01*
X136287089Y-101669428D01*
X136531233Y-101821986D01*
X136676437Y-101886635D01*
X136780783Y-101933093D01*
X136794232Y-101939081D01*
X136838627Y-101951811D01*
X137041410Y-102009958D01*
X137070969Y-102018434D01*
X137075316Y-102019045D01*
X137075321Y-102019046D01*
X137195190Y-102035892D01*
X137356056Y-102058500D01*
X137571890Y-102058500D01*
X137574076Y-102058347D01*
X137574080Y-102058347D01*
X137782802Y-102043752D01*
X137782807Y-102043751D01*
X137787187Y-102043445D01*
X138068785Y-101983589D01*
X138072914Y-101982086D01*
X138072918Y-101982085D01*
X138335167Y-101886635D01*
X138335171Y-101886633D01*
X138339312Y-101885126D01*
X138593503Y-101749970D01*
X138610536Y-101737595D01*
X138822847Y-101583342D01*
X138822850Y-101583340D01*
X138826410Y-101580753D01*
X138849454Y-101558500D01*
X139030337Y-101383823D01*
X139030340Y-101383819D01*
X139033499Y-101380769D01*
X139070536Y-101333365D01*
X139208033Y-101157376D01*
X139210741Y-101153910D01*
X139354686Y-100904591D01*
X139356336Y-100900507D01*
X139356339Y-100900501D01*
X139460882Y-100641746D01*
X139462531Y-100637665D01*
X139469666Y-100609050D01*
X139502827Y-100476045D01*
X139532177Y-100358328D01*
X139540574Y-100278444D01*
X139561811Y-100076385D01*
X139561811Y-100076382D01*
X139562270Y-100072016D01*
X139561672Y-100054890D01*
X139552377Y-99788700D01*
X139552376Y-99788694D01*
X139552223Y-99784303D01*
X139502231Y-99500788D01*
X139446721Y-99329943D01*
X143611780Y-99329943D01*
X143612526Y-99337835D01*
X143615941Y-99373961D01*
X143616500Y-99385819D01*
X143616500Y-101921233D01*
X143615973Y-101932416D01*
X143614298Y-101939909D01*
X143614547Y-101947835D01*
X143614547Y-101947836D01*
X143616438Y-102007986D01*
X143616500Y-102011945D01*
X143616500Y-102039856D01*
X143616997Y-102043790D01*
X143616997Y-102043791D01*
X143617005Y-102043856D01*
X143617938Y-102055693D01*
X143619327Y-102099889D01*
X143624978Y-102119339D01*
X143628987Y-102138700D01*
X143631526Y-102158797D01*
X143634445Y-102166168D01*
X143634445Y-102166170D01*
X143647804Y-102199912D01*
X143651649Y-102211142D01*
X143663982Y-102253593D01*
X143668015Y-102260412D01*
X143668017Y-102260417D01*
X143674293Y-102271028D01*
X143682988Y-102288776D01*
X143690448Y-102307617D01*
X143695110Y-102314033D01*
X143695110Y-102314034D01*
X143716436Y-102343387D01*
X143722952Y-102353307D01*
X143738007Y-102378763D01*
X143745458Y-102391362D01*
X143759779Y-102405683D01*
X143772619Y-102420716D01*
X143784528Y-102437107D01*
X143790634Y-102442158D01*
X143818605Y-102465298D01*
X143827384Y-102473288D01*
X143879595Y-102525499D01*
X143913621Y-102587811D01*
X143916500Y-102614594D01*
X143916500Y-105121233D01*
X143915973Y-105132416D01*
X143914298Y-105139909D01*
X143914547Y-105147835D01*
X143914547Y-105147836D01*
X143916438Y-105207986D01*
X143916500Y-105211945D01*
X143916500Y-105239856D01*
X143916997Y-105243790D01*
X143916997Y-105243791D01*
X143917005Y-105243856D01*
X143917938Y-105255693D01*
X143919327Y-105299889D01*
X143924978Y-105319339D01*
X143928987Y-105338700D01*
X143931526Y-105358797D01*
X143934445Y-105366168D01*
X143934445Y-105366170D01*
X143947804Y-105399912D01*
X143951649Y-105411142D01*
X143963982Y-105453593D01*
X143968015Y-105460412D01*
X143968017Y-105460417D01*
X143974293Y-105471028D01*
X143982988Y-105488776D01*
X143990448Y-105507617D01*
X143995110Y-105514033D01*
X143995110Y-105514034D01*
X144016436Y-105543387D01*
X144022952Y-105553307D01*
X144031199Y-105567251D01*
X144045458Y-105591362D01*
X144059779Y-105605683D01*
X144072619Y-105620716D01*
X144084528Y-105637107D01*
X144090634Y-105642158D01*
X144118605Y-105665298D01*
X144127384Y-105673288D01*
X144764623Y-106310527D01*
X144798649Y-106372839D01*
X144800837Y-106386449D01*
X144806458Y-106439928D01*
X144865473Y-106621556D01*
X144960960Y-106786944D01*
X145088747Y-106928866D01*
X145243248Y-107041118D01*
X145249276Y-107043802D01*
X145249278Y-107043803D01*
X145411681Y-107116109D01*
X145417712Y-107118794D01*
X145511112Y-107138647D01*
X145598056Y-107157128D01*
X145598061Y-107157128D01*
X145604513Y-107158500D01*
X145795487Y-107158500D01*
X145801939Y-107157128D01*
X145801944Y-107157128D01*
X145888887Y-107138647D01*
X145982288Y-107118794D01*
X145988319Y-107116109D01*
X146150722Y-107043803D01*
X146150724Y-107043802D01*
X146156752Y-107041118D01*
X146311253Y-106928866D01*
X146439040Y-106786944D01*
X146534527Y-106621556D01*
X146593542Y-106439928D01*
X146599163Y-106386453D01*
X146612814Y-106256565D01*
X146613504Y-106250000D01*
X146593542Y-106060072D01*
X146534527Y-105878444D01*
X146439040Y-105713056D01*
X146348677Y-105612697D01*
X146315675Y-105576045D01*
X146315674Y-105576044D01*
X146311253Y-105571134D01*
X146185217Y-105479563D01*
X146162094Y-105462763D01*
X146162093Y-105462762D01*
X146156752Y-105458882D01*
X146150724Y-105456198D01*
X146150722Y-105456197D01*
X145988319Y-105383891D01*
X145988318Y-105383891D01*
X145982288Y-105381206D01*
X145876863Y-105358797D01*
X145801944Y-105342872D01*
X145801939Y-105342872D01*
X145795487Y-105341500D01*
X145639595Y-105341500D01*
X145571474Y-105321498D01*
X145550500Y-105304595D01*
X145220405Y-104974500D01*
X145186379Y-104912188D01*
X145183500Y-104885405D01*
X145183500Y-102378763D01*
X145184027Y-102367579D01*
X145185701Y-102360091D01*
X145183562Y-102292032D01*
X145183500Y-102288075D01*
X145183500Y-102260144D01*
X145182994Y-102256138D01*
X145182061Y-102244292D01*
X145180922Y-102208037D01*
X145180673Y-102200110D01*
X145175022Y-102180658D01*
X145171014Y-102161306D01*
X145169467Y-102149063D01*
X145168474Y-102141203D01*
X145159818Y-102119339D01*
X145152200Y-102100097D01*
X145148355Y-102088870D01*
X145139531Y-102058500D01*
X145136018Y-102046407D01*
X145131984Y-102039585D01*
X145131981Y-102039579D01*
X145125706Y-102028968D01*
X145117010Y-102011218D01*
X145112472Y-101999756D01*
X145112469Y-101999751D01*
X145109552Y-101992383D01*
X145083573Y-101956625D01*
X145077057Y-101946707D01*
X145061991Y-101921233D01*
X145054542Y-101908637D01*
X145040218Y-101894313D01*
X145027376Y-101879278D01*
X145015472Y-101862893D01*
X144981406Y-101834711D01*
X144972627Y-101826722D01*
X144920405Y-101774500D01*
X144886379Y-101712188D01*
X144883500Y-101685405D01*
X144883500Y-101150000D01*
X147686496Y-101150000D01*
X147706458Y-101339928D01*
X147765473Y-101521556D01*
X147768776Y-101527278D01*
X147768777Y-101527279D01*
X147786803Y-101558500D01*
X147860960Y-101686944D01*
X147988747Y-101828866D01*
X148063333Y-101883056D01*
X148132609Y-101933388D01*
X148143248Y-101941118D01*
X148149276Y-101943802D01*
X148149278Y-101943803D01*
X148311681Y-102016109D01*
X148317712Y-102018794D01*
X148411113Y-102038647D01*
X148498056Y-102057128D01*
X148498061Y-102057128D01*
X148504513Y-102058500D01*
X148695487Y-102058500D01*
X148701939Y-102057128D01*
X148701944Y-102057128D01*
X148788888Y-102038647D01*
X148882288Y-102018794D01*
X148888319Y-102016109D01*
X149050722Y-101943803D01*
X149050724Y-101943802D01*
X149056752Y-101941118D01*
X149067392Y-101933388D01*
X149107806Y-101904025D01*
X149174674Y-101880167D01*
X149243825Y-101896247D01*
X149270962Y-101916866D01*
X151496343Y-104142247D01*
X151503887Y-104150537D01*
X151508000Y-104157018D01*
X151513777Y-104162443D01*
X151557667Y-104203658D01*
X151560509Y-104206413D01*
X151580230Y-104226134D01*
X151583425Y-104228612D01*
X151592447Y-104236318D01*
X151624679Y-104266586D01*
X151631628Y-104270406D01*
X151642432Y-104276346D01*
X151658956Y-104287199D01*
X151674959Y-104299613D01*
X151715543Y-104317176D01*
X151726173Y-104322383D01*
X151764940Y-104343695D01*
X151772617Y-104345666D01*
X151772622Y-104345668D01*
X151784558Y-104348732D01*
X151803266Y-104355137D01*
X151821855Y-104363181D01*
X151829683Y-104364421D01*
X151829690Y-104364423D01*
X151865524Y-104370099D01*
X151877144Y-104372505D01*
X151911113Y-104381226D01*
X151919970Y-104383500D01*
X151940224Y-104383500D01*
X151959934Y-104385051D01*
X151979943Y-104388220D01*
X151987835Y-104387474D01*
X152023961Y-104384059D01*
X152035819Y-104383500D01*
X156151761Y-104383500D01*
X156219882Y-104403502D01*
X156245396Y-104425189D01*
X156338747Y-104528866D01*
X156493248Y-104641118D01*
X156499276Y-104643802D01*
X156499278Y-104643803D01*
X156661681Y-104716109D01*
X156667712Y-104718794D01*
X156761113Y-104738647D01*
X156848056Y-104757128D01*
X156848061Y-104757128D01*
X156854513Y-104758500D01*
X157045487Y-104758500D01*
X157051939Y-104757128D01*
X157051944Y-104757128D01*
X157138887Y-104738647D01*
X157232288Y-104718794D01*
X157238319Y-104716109D01*
X157400722Y-104643803D01*
X157400724Y-104643802D01*
X157406752Y-104641118D01*
X157561253Y-104528866D01*
X157689040Y-104386944D01*
X157776004Y-104236318D01*
X157781223Y-104227279D01*
X157781224Y-104227278D01*
X157784527Y-104221556D01*
X157843542Y-104039928D01*
X157863504Y-103850000D01*
X157843542Y-103660072D01*
X157784527Y-103478444D01*
X157689040Y-103313056D01*
X157561253Y-103171134D01*
X157406752Y-103058882D01*
X157400724Y-103056198D01*
X157400722Y-103056197D01*
X157238319Y-102983891D01*
X157238318Y-102983891D01*
X157232288Y-102981206D01*
X157138887Y-102961353D01*
X157051944Y-102942872D01*
X157051939Y-102942872D01*
X157045487Y-102941500D01*
X156854513Y-102941500D01*
X156848061Y-102942872D01*
X156848056Y-102942872D01*
X156761112Y-102961353D01*
X156667712Y-102981206D01*
X156661682Y-102983891D01*
X156661681Y-102983891D01*
X156499278Y-103056197D01*
X156499276Y-103056198D01*
X156493248Y-103058882D01*
X156487907Y-103062762D01*
X156487906Y-103062763D01*
X156447065Y-103092436D01*
X156380197Y-103116294D01*
X156373004Y-103116500D01*
X152314595Y-103116500D01*
X152246474Y-103096498D01*
X152225500Y-103079595D01*
X149903652Y-100757747D01*
X149896112Y-100749461D01*
X149892000Y-100742982D01*
X149842348Y-100696356D01*
X149839507Y-100693602D01*
X149819770Y-100673865D01*
X149816573Y-100671385D01*
X149807551Y-100663680D01*
X149781100Y-100638841D01*
X149775321Y-100633414D01*
X149768375Y-100629595D01*
X149768372Y-100629593D01*
X149757566Y-100623652D01*
X149741047Y-100612801D01*
X149735048Y-100608148D01*
X149725041Y-100600386D01*
X149717772Y-100597241D01*
X149717768Y-100597238D01*
X149684463Y-100582826D01*
X149673813Y-100577609D01*
X149635060Y-100556305D01*
X149615437Y-100551267D01*
X149596734Y-100544863D01*
X149585420Y-100539967D01*
X149585419Y-100539967D01*
X149578145Y-100536819D01*
X149570322Y-100535580D01*
X149570312Y-100535577D01*
X149534476Y-100529901D01*
X149522856Y-100527495D01*
X149487711Y-100518472D01*
X149487710Y-100518472D01*
X149480030Y-100516500D01*
X149459776Y-100516500D01*
X149440065Y-100514949D01*
X149427886Y-100513020D01*
X149420057Y-100511780D01*
X149412165Y-100512526D01*
X149376039Y-100515941D01*
X149364181Y-100516500D01*
X149308200Y-100516500D01*
X149240079Y-100496498D01*
X149220853Y-100480157D01*
X149220580Y-100480460D01*
X149215668Y-100476037D01*
X149211253Y-100471134D01*
X149056752Y-100358882D01*
X149050724Y-100356198D01*
X149050722Y-100356197D01*
X148888319Y-100283891D01*
X148888318Y-100283891D01*
X148882288Y-100281206D01*
X148788887Y-100261353D01*
X148701944Y-100242872D01*
X148701939Y-100242872D01*
X148695487Y-100241500D01*
X148504513Y-100241500D01*
X148498061Y-100242872D01*
X148498056Y-100242872D01*
X148411113Y-100261353D01*
X148317712Y-100281206D01*
X148311682Y-100283891D01*
X148311681Y-100283891D01*
X148149278Y-100356197D01*
X148149276Y-100356198D01*
X148143248Y-100358882D01*
X147988747Y-100471134D01*
X147984326Y-100476044D01*
X147984325Y-100476045D01*
X147875203Y-100597238D01*
X147860960Y-100613056D01*
X147765473Y-100778444D01*
X147706458Y-100960072D01*
X147705768Y-100966633D01*
X147705768Y-100966635D01*
X147700656Y-101015271D01*
X147686496Y-101150000D01*
X144883500Y-101150000D01*
X144883500Y-99664594D01*
X144903502Y-99596473D01*
X144920405Y-99575499D01*
X146175500Y-98320405D01*
X146237812Y-98286379D01*
X146264595Y-98283500D01*
X152571233Y-98283500D01*
X152582416Y-98284027D01*
X152589909Y-98285702D01*
X152597835Y-98285453D01*
X152597836Y-98285453D01*
X152657986Y-98283562D01*
X152661945Y-98283500D01*
X152673653Y-98283500D01*
X152699850Y-98286253D01*
X152798056Y-98307128D01*
X152798061Y-98307128D01*
X152804513Y-98308500D01*
X152995487Y-98308500D01*
X153001939Y-98307128D01*
X153001944Y-98307128D01*
X153088888Y-98288647D01*
X153182288Y-98268794D01*
X153218218Y-98252797D01*
X153350722Y-98193803D01*
X153350724Y-98193802D01*
X153356752Y-98191118D01*
X153511253Y-98078866D01*
X153528504Y-98059707D01*
X153634621Y-97941852D01*
X153634622Y-97941851D01*
X153639040Y-97936944D01*
X153734527Y-97771556D01*
X153793542Y-97589928D01*
X153813504Y-97400000D01*
X153794439Y-97218605D01*
X153794232Y-97216635D01*
X153794232Y-97216633D01*
X153793542Y-97210072D01*
X153734527Y-97028444D01*
X153728462Y-97017938D01*
X153642341Y-96868774D01*
X153639040Y-96863056D01*
X153511253Y-96721134D01*
X153356752Y-96608882D01*
X153350724Y-96606198D01*
X153350722Y-96606197D01*
X153188319Y-96533891D01*
X153188318Y-96533891D01*
X153182288Y-96531206D01*
X153088887Y-96511353D01*
X153001944Y-96492872D01*
X153001939Y-96492872D01*
X152995487Y-96491500D01*
X152804513Y-96491500D01*
X152798061Y-96492872D01*
X152798056Y-96492872D01*
X152711113Y-96511353D01*
X152617712Y-96531206D01*
X152611682Y-96533891D01*
X152611681Y-96533891D01*
X152449278Y-96606197D01*
X152449276Y-96606198D01*
X152443248Y-96608882D01*
X152288747Y-96721134D01*
X152160960Y-96863056D01*
X152157659Y-96868774D01*
X152108742Y-96953500D01*
X152057359Y-97002493D01*
X151999623Y-97016500D01*
X146028767Y-97016500D01*
X146017584Y-97015973D01*
X146010091Y-97014298D01*
X146002165Y-97014547D01*
X146002164Y-97014547D01*
X145942014Y-97016438D01*
X145938055Y-97016500D01*
X145910144Y-97016500D01*
X145906210Y-97016997D01*
X145906209Y-97016997D01*
X145906144Y-97017005D01*
X145894307Y-97017938D01*
X145862049Y-97018952D01*
X145858030Y-97019078D01*
X145850111Y-97019327D01*
X145830657Y-97024979D01*
X145811300Y-97028987D01*
X145799070Y-97030532D01*
X145799069Y-97030532D01*
X145791203Y-97031526D01*
X145783832Y-97034445D01*
X145783830Y-97034445D01*
X145750088Y-97047804D01*
X145738858Y-97051649D01*
X145704017Y-97061771D01*
X145704016Y-97061771D01*
X145696407Y-97063982D01*
X145689588Y-97068015D01*
X145689583Y-97068017D01*
X145678972Y-97074293D01*
X145661224Y-97082988D01*
X145642383Y-97090448D01*
X145635967Y-97095110D01*
X145635966Y-97095110D01*
X145606613Y-97116436D01*
X145596693Y-97122952D01*
X145565465Y-97141420D01*
X145565462Y-97141422D01*
X145558638Y-97145458D01*
X145544317Y-97159779D01*
X145529284Y-97172619D01*
X145512893Y-97184528D01*
X145507842Y-97190634D01*
X145484702Y-97218605D01*
X145476712Y-97227384D01*
X143857747Y-98846348D01*
X143849461Y-98853888D01*
X143842982Y-98858000D01*
X143837557Y-98863777D01*
X143796357Y-98907651D01*
X143793602Y-98910493D01*
X143773865Y-98930230D01*
X143771385Y-98933427D01*
X143763682Y-98942447D01*
X143733414Y-98974679D01*
X143729595Y-98981625D01*
X143729593Y-98981628D01*
X143723652Y-98992434D01*
X143712801Y-99008953D01*
X143700386Y-99024959D01*
X143697241Y-99032228D01*
X143697238Y-99032232D01*
X143682826Y-99065537D01*
X143677609Y-99076187D01*
X143656305Y-99114940D01*
X143654334Y-99122615D01*
X143654334Y-99122616D01*
X143651267Y-99134562D01*
X143644863Y-99153266D01*
X143636819Y-99171855D01*
X143635580Y-99179678D01*
X143635577Y-99179688D01*
X143629901Y-99215524D01*
X143627495Y-99227144D01*
X143618472Y-99262289D01*
X143616500Y-99269970D01*
X143616500Y-99290224D01*
X143614949Y-99309934D01*
X143611780Y-99329943D01*
X139446721Y-99329943D01*
X139413269Y-99226989D01*
X139407678Y-99215524D01*
X139338248Y-99073173D01*
X139287067Y-98968237D01*
X139284612Y-98964598D01*
X139284609Y-98964592D01*
X139128541Y-98733212D01*
X139128536Y-98733205D01*
X139126081Y-98729566D01*
X139098451Y-98698879D01*
X138936394Y-98518897D01*
X138936393Y-98518896D01*
X138933446Y-98515623D01*
X138712911Y-98330572D01*
X138468767Y-98178014D01*
X138205768Y-98060919D01*
X137929031Y-97981566D01*
X137924684Y-97980955D01*
X137924679Y-97980954D01*
X137757563Y-97957468D01*
X137643944Y-97941500D01*
X137428110Y-97941500D01*
X137425924Y-97941653D01*
X137425920Y-97941653D01*
X137217198Y-97956248D01*
X137217193Y-97956249D01*
X137212813Y-97956555D01*
X136931215Y-98016411D01*
X136927086Y-98017914D01*
X136927082Y-98017915D01*
X136664833Y-98113365D01*
X136664829Y-98113367D01*
X136660688Y-98114874D01*
X136406497Y-98250030D01*
X136402938Y-98252616D01*
X136402936Y-98252617D01*
X136186626Y-98409776D01*
X136173590Y-98419247D01*
X136170426Y-98422303D01*
X136170423Y-98422305D01*
X135969663Y-98616177D01*
X135969660Y-98616181D01*
X135966501Y-98619231D01*
X135963795Y-98622695D01*
X135963791Y-98622699D01*
X135846698Y-98772572D01*
X135789259Y-98846090D01*
X135736467Y-98937528D01*
X135655724Y-99077379D01*
X135645314Y-99095409D01*
X135643664Y-99099493D01*
X135643661Y-99099499D01*
X135590460Y-99231178D01*
X135537469Y-99362335D01*
X135467823Y-99641672D01*
X135467364Y-99646042D01*
X135467363Y-99646046D01*
X135445275Y-99856197D01*
X135437730Y-99927984D01*
X133069326Y-99927984D01*
X131735163Y-94307252D01*
X135149239Y-94307252D01*
X135152650Y-94314331D01*
X135164034Y-94328902D01*
X135167501Y-94332973D01*
X135281022Y-94455349D01*
X135288887Y-94462505D01*
X135466065Y-94598214D01*
X135475027Y-94603945D01*
X135672544Y-94707863D01*
X135682335Y-94711999D01*
X135894528Y-94781149D01*
X135904899Y-94783581D01*
X136125700Y-94815989D01*
X136136323Y-94816639D01*
X136359441Y-94811381D01*
X136370012Y-94810232D01*
X136589063Y-94767455D01*
X136599280Y-94764544D01*
X136807991Y-94685471D01*
X136817581Y-94680876D01*
X136834734Y-94670793D01*
X136844545Y-94660340D01*
X136839416Y-94647616D01*
X136041189Y-93625931D01*
X136028278Y-93616675D01*
X136026440Y-93616582D01*
X136019359Y-93619994D01*
X135158588Y-94292502D01*
X135149332Y-94305413D01*
X135149239Y-94307252D01*
X131735163Y-94307252D01*
X131461178Y-93152972D01*
X134551932Y-93152972D01*
X134552582Y-93163593D01*
X134584992Y-93384406D01*
X134587420Y-93394757D01*
X134656574Y-93606959D01*
X134660710Y-93616750D01*
X134765180Y-93815316D01*
X134769515Y-93822383D01*
X134780420Y-93837784D01*
X134782224Y-93840209D01*
X134820400Y-93889071D01*
X134833310Y-93898327D01*
X134835148Y-93898420D01*
X134842229Y-93895008D01*
X135703001Y-93222499D01*
X135712257Y-93209588D01*
X135712350Y-93207750D01*
X135708938Y-93200669D01*
X134909146Y-92176982D01*
X134897683Y-92168764D01*
X134888385Y-92174093D01*
X134806950Y-92270630D01*
X134800798Y-92279319D01*
X134687694Y-92471716D01*
X134683102Y-92481299D01*
X134604027Y-92690015D01*
X134601116Y-92700233D01*
X134558339Y-92919281D01*
X134557190Y-92929852D01*
X134551932Y-93152972D01*
X131461178Y-93152972D01*
X131151875Y-91849902D01*
X135303077Y-91849902D01*
X135308206Y-91862626D01*
X136117588Y-92898588D01*
X137238476Y-94333260D01*
X137249939Y-94341478D01*
X137259237Y-94336149D01*
X137340672Y-94239612D01*
X137346824Y-94230923D01*
X137459928Y-94038526D01*
X137464520Y-94028943D01*
X137543595Y-93820227D01*
X137546506Y-93810009D01*
X137589283Y-93590960D01*
X137590432Y-93580389D01*
X137595690Y-93357270D01*
X137595040Y-93346647D01*
X137589582Y-93309458D01*
X137599479Y-93239155D01*
X137645815Y-93185363D01*
X137713877Y-93165162D01*
X137753283Y-93171361D01*
X137901041Y-93219513D01*
X138132501Y-93253485D01*
X138235094Y-93251068D01*
X138361042Y-93248100D01*
X138361046Y-93248100D01*
X138366376Y-93247974D01*
X138371606Y-93246953D01*
X138371612Y-93246952D01*
X138581402Y-93205983D01*
X138652094Y-93212558D01*
X138694647Y-93240552D01*
X140396348Y-94942253D01*
X140403888Y-94950539D01*
X140408000Y-94957018D01*
X140413777Y-94962443D01*
X140457651Y-95003643D01*
X140460493Y-95006398D01*
X140480230Y-95026135D01*
X140483427Y-95028615D01*
X140492447Y-95036318D01*
X140524679Y-95066586D01*
X140531625Y-95070405D01*
X140531628Y-95070407D01*
X140542434Y-95076348D01*
X140558953Y-95087199D01*
X140574959Y-95099614D01*
X140582228Y-95102759D01*
X140582232Y-95102762D01*
X140615537Y-95117174D01*
X140626187Y-95122391D01*
X140664940Y-95143695D01*
X140672615Y-95145666D01*
X140672616Y-95145666D01*
X140684562Y-95148733D01*
X140703267Y-95155137D01*
X140721855Y-95163181D01*
X140729678Y-95164420D01*
X140729688Y-95164423D01*
X140765524Y-95170099D01*
X140777144Y-95172505D01*
X140812289Y-95181528D01*
X140819970Y-95183500D01*
X140840224Y-95183500D01*
X140859934Y-95185051D01*
X140879943Y-95188220D01*
X140887835Y-95187474D01*
X140923961Y-95184059D01*
X140935819Y-95183500D01*
X153335406Y-95183500D01*
X153403527Y-95203502D01*
X153424501Y-95220405D01*
X155420822Y-97216726D01*
X155454974Y-97279624D01*
X155455767Y-97283356D01*
X155456458Y-97289928D01*
X155515473Y-97471556D01*
X155610960Y-97636944D01*
X155615378Y-97641851D01*
X155615379Y-97641852D01*
X155666804Y-97698965D01*
X155738747Y-97778866D01*
X155893248Y-97891118D01*
X155899276Y-97893802D01*
X155899278Y-97893803D01*
X156042273Y-97957468D01*
X156067712Y-97968794D01*
X156161113Y-97988647D01*
X156248056Y-98007128D01*
X156248061Y-98007128D01*
X156254513Y-98008500D01*
X156445487Y-98008500D01*
X156451939Y-98007128D01*
X156451944Y-98007128D01*
X156538887Y-97988647D01*
X156632288Y-97968794D01*
X156659778Y-97956555D01*
X156789251Y-97898910D01*
X156859618Y-97889476D01*
X156923915Y-97919583D01*
X156961729Y-97979671D01*
X156966500Y-98014017D01*
X156966500Y-98035405D01*
X156946498Y-98103526D01*
X156929595Y-98124501D01*
X156224499Y-98829596D01*
X156162187Y-98863621D01*
X156135404Y-98866500D01*
X155178768Y-98866500D01*
X155167585Y-98865973D01*
X155160092Y-98864298D01*
X155152166Y-98864547D01*
X155152165Y-98864547D01*
X155092002Y-98866438D01*
X155088044Y-98866500D01*
X155060144Y-98866500D01*
X155056154Y-98867004D01*
X155044320Y-98867936D01*
X155000111Y-98869326D01*
X154992495Y-98871539D01*
X154992493Y-98871539D01*
X154980652Y-98874979D01*
X154961293Y-98878988D01*
X154959983Y-98879154D01*
X154941203Y-98881526D01*
X154933837Y-98884442D01*
X154933831Y-98884444D01*
X154900098Y-98897800D01*
X154888868Y-98901645D01*
X154868195Y-98907651D01*
X154846407Y-98913981D01*
X154839584Y-98918016D01*
X154828966Y-98924295D01*
X154811213Y-98932992D01*
X154810294Y-98933356D01*
X154792383Y-98940448D01*
X154785968Y-98945109D01*
X154756612Y-98966437D01*
X154746695Y-98972951D01*
X154708638Y-98995458D01*
X154694317Y-99009779D01*
X154679284Y-99022619D01*
X154662893Y-99034528D01*
X154657843Y-99040632D01*
X154657838Y-99040637D01*
X154634707Y-99068598D01*
X154626717Y-99077379D01*
X153999499Y-99704596D01*
X153937187Y-99738621D01*
X153910404Y-99741500D01*
X153854513Y-99741500D01*
X153848061Y-99742872D01*
X153848056Y-99742872D01*
X153761112Y-99761353D01*
X153667712Y-99781206D01*
X153661682Y-99783891D01*
X153661681Y-99783891D01*
X153499278Y-99856197D01*
X153499276Y-99856198D01*
X153493248Y-99858882D01*
X153338747Y-99971134D01*
X153334326Y-99976044D01*
X153334325Y-99976045D01*
X153222707Y-100100010D01*
X153210960Y-100113056D01*
X153154239Y-100211300D01*
X153136011Y-100242872D01*
X153115473Y-100278444D01*
X153056458Y-100460072D01*
X153055768Y-100466633D01*
X153055768Y-100466635D01*
X153044105Y-100577604D01*
X153036496Y-100650000D01*
X153037186Y-100656565D01*
X153048985Y-100768822D01*
X153056458Y-100839928D01*
X153115473Y-101021556D01*
X153210960Y-101186944D01*
X153338747Y-101328866D01*
X153405412Y-101377301D01*
X153487425Y-101436887D01*
X153493248Y-101441118D01*
X153499276Y-101443802D01*
X153499278Y-101443803D01*
X153659799Y-101515271D01*
X153667712Y-101518794D01*
X153761112Y-101538647D01*
X153848056Y-101557128D01*
X153848061Y-101557128D01*
X153854513Y-101558500D01*
X154045487Y-101558500D01*
X154051939Y-101557128D01*
X154051944Y-101557128D01*
X154138887Y-101538647D01*
X154232288Y-101518794D01*
X154240201Y-101515271D01*
X154400722Y-101443803D01*
X154400724Y-101443802D01*
X154406752Y-101441118D01*
X154412576Y-101436887D01*
X154494588Y-101377301D01*
X154561253Y-101328866D01*
X154689040Y-101186944D01*
X154784527Y-101021556D01*
X154843542Y-100839928D01*
X154860907Y-100674706D01*
X154887920Y-100609050D01*
X154897122Y-100598782D01*
X155325499Y-100170405D01*
X155387811Y-100136379D01*
X155414594Y-100133500D01*
X156371233Y-100133500D01*
X156382416Y-100134027D01*
X156389909Y-100135702D01*
X156397835Y-100135453D01*
X156397836Y-100135453D01*
X156457986Y-100133562D01*
X156461945Y-100133500D01*
X156489856Y-100133500D01*
X156493791Y-100133003D01*
X156493856Y-100132995D01*
X156505693Y-100132062D01*
X156537951Y-100131048D01*
X156541970Y-100130922D01*
X156549889Y-100130673D01*
X156569343Y-100125021D01*
X156588700Y-100121013D01*
X156600930Y-100119468D01*
X156600931Y-100119468D01*
X156608797Y-100118474D01*
X156616168Y-100115555D01*
X156616170Y-100115555D01*
X156649912Y-100102196D01*
X156661142Y-100098351D01*
X156695983Y-100088229D01*
X156695984Y-100088229D01*
X156703593Y-100086018D01*
X156710412Y-100081985D01*
X156710417Y-100081983D01*
X156721028Y-100075707D01*
X156738776Y-100067012D01*
X156757617Y-100059552D01*
X156793387Y-100033564D01*
X156803307Y-100027048D01*
X156834535Y-100008580D01*
X156834538Y-100008578D01*
X156841362Y-100004542D01*
X156855683Y-99990221D01*
X156870717Y-99977380D01*
X156887107Y-99965472D01*
X156915298Y-99931395D01*
X156918402Y-99927984D01*
X160437730Y-99927984D01*
X160437883Y-99932372D01*
X160437883Y-99932378D01*
X160444984Y-100135702D01*
X160447777Y-100215697D01*
X160448540Y-100220021D01*
X160448540Y-100220026D01*
X160459949Y-100284729D01*
X160497769Y-100499212D01*
X160586731Y-100773011D01*
X160588659Y-100776964D01*
X160588661Y-100776969D01*
X160645199Y-100892887D01*
X160712933Y-101031763D01*
X160715388Y-101035402D01*
X160715391Y-101035408D01*
X160871459Y-101266788D01*
X160871464Y-101266795D01*
X160873919Y-101270434D01*
X160876863Y-101273703D01*
X160876864Y-101273705D01*
X160942144Y-101346206D01*
X161066554Y-101484377D01*
X161287089Y-101669428D01*
X161531233Y-101821986D01*
X161676437Y-101886635D01*
X161780783Y-101933093D01*
X161794232Y-101939081D01*
X161838627Y-101951811D01*
X162041410Y-102009958D01*
X162070969Y-102018434D01*
X162075316Y-102019045D01*
X162075321Y-102019046D01*
X162195190Y-102035892D01*
X162356056Y-102058500D01*
X162571890Y-102058500D01*
X162574076Y-102058347D01*
X162574080Y-102058347D01*
X162782802Y-102043752D01*
X162782807Y-102043751D01*
X162787187Y-102043445D01*
X163068785Y-101983589D01*
X163072914Y-101982086D01*
X163072918Y-101982085D01*
X163335167Y-101886635D01*
X163335171Y-101886633D01*
X163339312Y-101885126D01*
X163593503Y-101749970D01*
X163610536Y-101737595D01*
X163822847Y-101583342D01*
X163822850Y-101583340D01*
X163826410Y-101580753D01*
X163849454Y-101558500D01*
X164030337Y-101383823D01*
X164030340Y-101383819D01*
X164033499Y-101380769D01*
X164070536Y-101333365D01*
X164208033Y-101157376D01*
X164210741Y-101153910D01*
X164354686Y-100904591D01*
X164356336Y-100900507D01*
X164356339Y-100900501D01*
X164460882Y-100641746D01*
X164462531Y-100637665D01*
X164469666Y-100609050D01*
X164502827Y-100476045D01*
X164532177Y-100358328D01*
X164540574Y-100278444D01*
X164561811Y-100076385D01*
X164561811Y-100076382D01*
X164562270Y-100072016D01*
X164561672Y-100054890D01*
X164552377Y-99788700D01*
X164552376Y-99788694D01*
X164552223Y-99784303D01*
X164502231Y-99500788D01*
X164413269Y-99226989D01*
X164407678Y-99215524D01*
X164338248Y-99073173D01*
X164287067Y-98968237D01*
X164284612Y-98964598D01*
X164284609Y-98964592D01*
X164128541Y-98733212D01*
X164128536Y-98733205D01*
X164126081Y-98729566D01*
X164098451Y-98698879D01*
X163936394Y-98518897D01*
X163936393Y-98518896D01*
X163933446Y-98515623D01*
X163712911Y-98330572D01*
X163468767Y-98178014D01*
X163205768Y-98060919D01*
X162929031Y-97981566D01*
X162924684Y-97980955D01*
X162924679Y-97980954D01*
X162757563Y-97957468D01*
X162643944Y-97941500D01*
X162428110Y-97941500D01*
X162425924Y-97941653D01*
X162425920Y-97941653D01*
X162217198Y-97956248D01*
X162217193Y-97956249D01*
X162212813Y-97956555D01*
X161931215Y-98016411D01*
X161927086Y-98017914D01*
X161927082Y-98017915D01*
X161664833Y-98113365D01*
X161664829Y-98113367D01*
X161660688Y-98114874D01*
X161406497Y-98250030D01*
X161402938Y-98252616D01*
X161402936Y-98252617D01*
X161186626Y-98409776D01*
X161173590Y-98419247D01*
X161170426Y-98422303D01*
X161170423Y-98422305D01*
X160969663Y-98616177D01*
X160969660Y-98616181D01*
X160966501Y-98619231D01*
X160963795Y-98622695D01*
X160963791Y-98622699D01*
X160846698Y-98772572D01*
X160789259Y-98846090D01*
X160736467Y-98937528D01*
X160655724Y-99077379D01*
X160645314Y-99095409D01*
X160643664Y-99099493D01*
X160643661Y-99099499D01*
X160590460Y-99231178D01*
X160537469Y-99362335D01*
X160467823Y-99641672D01*
X160467364Y-99646042D01*
X160467363Y-99646046D01*
X160445275Y-99856197D01*
X160437730Y-99927984D01*
X156918402Y-99927984D01*
X156923288Y-99922616D01*
X157992247Y-98853657D01*
X158000537Y-98846113D01*
X158007018Y-98842000D01*
X158053659Y-98792332D01*
X158056413Y-98789491D01*
X158076135Y-98769769D01*
X158078612Y-98766576D01*
X158086317Y-98757555D01*
X158111159Y-98731100D01*
X158116586Y-98725321D01*
X158120407Y-98718371D01*
X158126346Y-98707568D01*
X158137202Y-98691041D01*
X158144757Y-98681302D01*
X158144758Y-98681300D01*
X158149614Y-98675040D01*
X158167174Y-98634460D01*
X158172391Y-98623812D01*
X158189875Y-98592009D01*
X158189876Y-98592007D01*
X158193695Y-98585060D01*
X158198733Y-98565437D01*
X158205137Y-98546734D01*
X158210033Y-98535420D01*
X158210033Y-98535419D01*
X158213181Y-98528145D01*
X158214420Y-98520322D01*
X158214423Y-98520312D01*
X158220099Y-98484476D01*
X158222505Y-98472856D01*
X158231528Y-98437711D01*
X158231528Y-98437710D01*
X158233500Y-98430030D01*
X158233500Y-98409776D01*
X158235051Y-98390065D01*
X158236980Y-98377886D01*
X158238220Y-98370057D01*
X158234059Y-98326038D01*
X158233500Y-98314181D01*
X158233500Y-96578763D01*
X158234027Y-96567579D01*
X158235701Y-96560091D01*
X158233562Y-96492032D01*
X158233500Y-96488075D01*
X158233500Y-96460144D01*
X158232994Y-96456138D01*
X158232061Y-96444292D01*
X158230922Y-96408037D01*
X158230673Y-96400110D01*
X158225022Y-96380658D01*
X158221014Y-96361306D01*
X158219467Y-96349063D01*
X158218474Y-96341203D01*
X158215556Y-96333832D01*
X158202200Y-96300097D01*
X158198355Y-96288870D01*
X158197721Y-96286687D01*
X158186018Y-96246407D01*
X158181984Y-96239585D01*
X158181981Y-96239579D01*
X158175706Y-96228968D01*
X158167010Y-96211218D01*
X158162472Y-96199756D01*
X158162469Y-96199751D01*
X158159552Y-96192383D01*
X158133573Y-96156625D01*
X158127057Y-96146707D01*
X158108575Y-96115457D01*
X158104542Y-96108637D01*
X158090218Y-96094313D01*
X158077376Y-96079278D01*
X158065472Y-96062893D01*
X158031406Y-96034711D01*
X158022627Y-96026722D01*
X155203652Y-93207747D01*
X155196112Y-93199461D01*
X155192000Y-93192982D01*
X155142348Y-93146356D01*
X155139507Y-93143602D01*
X155119770Y-93123865D01*
X155116573Y-93121385D01*
X155107551Y-93113680D01*
X155081100Y-93088841D01*
X155075321Y-93083414D01*
X155068375Y-93079595D01*
X155068372Y-93079593D01*
X155057566Y-93073652D01*
X155041047Y-93062801D01*
X155040583Y-93062441D01*
X155025041Y-93050386D01*
X155017772Y-93047241D01*
X155017768Y-93047238D01*
X154984463Y-93032826D01*
X154973813Y-93027609D01*
X154935060Y-93006305D01*
X154915437Y-93001267D01*
X154896734Y-92994863D01*
X154885420Y-92989967D01*
X154885419Y-92989967D01*
X154878145Y-92986819D01*
X154870322Y-92985580D01*
X154870312Y-92985577D01*
X154834476Y-92979901D01*
X154822856Y-92977495D01*
X154787711Y-92968472D01*
X154787710Y-92968472D01*
X154780030Y-92966500D01*
X154759776Y-92966500D01*
X154740065Y-92964949D01*
X154727886Y-92963020D01*
X154720057Y-92961780D01*
X154712165Y-92962526D01*
X154676039Y-92965941D01*
X154664181Y-92966500D01*
X146864595Y-92966500D01*
X146796474Y-92946498D01*
X146775500Y-92929595D01*
X144273889Y-90427984D01*
X147937730Y-90427984D01*
X147937883Y-90432372D01*
X147937883Y-90432378D01*
X147946978Y-90692810D01*
X147947777Y-90715697D01*
X147997769Y-90999212D01*
X148086731Y-91273011D01*
X148088659Y-91276964D01*
X148088661Y-91276969D01*
X148132093Y-91366017D01*
X148212933Y-91531763D01*
X148215388Y-91535402D01*
X148215391Y-91535408D01*
X148371459Y-91766788D01*
X148371464Y-91766795D01*
X148373919Y-91770434D01*
X148376863Y-91773703D01*
X148376864Y-91773705D01*
X148436060Y-91839449D01*
X148566554Y-91984377D01*
X148787089Y-92169428D01*
X149031233Y-92321986D01*
X149294232Y-92439081D01*
X149570969Y-92518434D01*
X149575316Y-92519045D01*
X149575321Y-92519046D01*
X149713512Y-92538467D01*
X149856056Y-92558500D01*
X150071890Y-92558500D01*
X150074076Y-92558347D01*
X150074080Y-92558347D01*
X150282802Y-92543752D01*
X150282807Y-92543751D01*
X150287187Y-92543445D01*
X150568785Y-92483589D01*
X150572914Y-92482086D01*
X150572918Y-92482085D01*
X150835167Y-92386635D01*
X150835171Y-92386633D01*
X150839312Y-92385126D01*
X151093503Y-92249970D01*
X151124271Y-92227616D01*
X151322847Y-92083342D01*
X151322850Y-92083340D01*
X151326410Y-92080753D01*
X151359865Y-92048446D01*
X151530337Y-91883823D01*
X151530340Y-91883819D01*
X151533499Y-91880769D01*
X151573660Y-91829366D01*
X151689765Y-91680759D01*
X151710741Y-91653910D01*
X151790988Y-91514918D01*
X151852481Y-91408411D01*
X151852484Y-91408406D01*
X151854686Y-91404591D01*
X151856336Y-91400507D01*
X151856339Y-91400501D01*
X151960882Y-91141746D01*
X151962531Y-91137665D01*
X152032177Y-90858328D01*
X152046714Y-90720026D01*
X152061811Y-90576385D01*
X152061811Y-90576382D01*
X152062270Y-90572016D01*
X152058479Y-90463453D01*
X152052377Y-90288700D01*
X152052376Y-90288694D01*
X152052223Y-90284303D01*
X152048843Y-90265131D01*
X152002993Y-90005111D01*
X152002231Y-90000788D01*
X151913269Y-89726989D01*
X151787067Y-89468237D01*
X151784612Y-89464598D01*
X151784609Y-89464592D01*
X151628541Y-89233212D01*
X151628536Y-89233205D01*
X151626081Y-89229566D01*
X151433446Y-89015623D01*
X151212911Y-88830572D01*
X150968767Y-88678014D01*
X150783984Y-88595743D01*
X150709782Y-88562706D01*
X150709780Y-88562705D01*
X150705768Y-88560919D01*
X150429031Y-88481566D01*
X150424684Y-88480955D01*
X150424679Y-88480954D01*
X150257563Y-88457468D01*
X150143944Y-88441500D01*
X149928110Y-88441500D01*
X149925924Y-88441653D01*
X149925920Y-88441653D01*
X149717198Y-88456248D01*
X149717193Y-88456249D01*
X149712813Y-88456555D01*
X149431215Y-88516411D01*
X149427086Y-88517914D01*
X149427082Y-88517915D01*
X149164833Y-88613365D01*
X149164829Y-88613367D01*
X149160688Y-88614874D01*
X148906497Y-88750030D01*
X148902938Y-88752616D01*
X148902936Y-88752617D01*
X148683101Y-88912337D01*
X148673590Y-88919247D01*
X148670426Y-88922303D01*
X148670423Y-88922305D01*
X148469663Y-89116177D01*
X148469660Y-89116181D01*
X148466501Y-89119231D01*
X148463795Y-89122695D01*
X148463791Y-89122699D01*
X148377449Y-89233212D01*
X148289259Y-89346090D01*
X148238218Y-89434496D01*
X148164424Y-89562310D01*
X148145314Y-89595409D01*
X148143664Y-89599493D01*
X148143661Y-89599499D01*
X148093751Y-89723031D01*
X148037469Y-89862335D01*
X148036405Y-89866604D01*
X148036404Y-89866606D01*
X148016511Y-89946392D01*
X147967823Y-90141672D01*
X147967364Y-90146042D01*
X147967363Y-90146046D01*
X147952244Y-90289890D01*
X147937730Y-90427984D01*
X144273889Y-90427984D01*
X143433351Y-89587446D01*
X143399325Y-89525134D01*
X143404390Y-89454319D01*
X143413825Y-89434496D01*
X143465021Y-89347409D01*
X143465023Y-89347404D01*
X143467727Y-89342805D01*
X143550609Y-89124039D01*
X143552145Y-89116177D01*
X143590602Y-88919247D01*
X143593346Y-88905193D01*
X143626033Y-88842170D01*
X143687605Y-88806823D01*
X143758513Y-88810376D01*
X143782751Y-88821853D01*
X143868456Y-88874270D01*
X143877122Y-88876616D01*
X143877121Y-88876616D01*
X143988316Y-88906723D01*
X144009050Y-88912337D01*
X144018023Y-88912157D01*
X144018024Y-88912157D01*
X144102481Y-88910462D01*
X144154678Y-88909414D01*
X144163238Y-88906723D01*
X144163240Y-88906723D01*
X144286098Y-88868104D01*
X144286101Y-88868103D01*
X144293633Y-88865735D01*
X144318200Y-88850503D01*
X144343886Y-88834577D01*
X144343889Y-88834575D01*
X144346792Y-88832775D01*
X144670876Y-88579573D01*
X145791106Y-87704354D01*
X145791109Y-87704352D01*
X145793791Y-87702256D01*
X145838632Y-87658649D01*
X145914629Y-87534389D01*
X145952696Y-87393794D01*
X145949773Y-87248166D01*
X145906095Y-87109211D01*
X145873135Y-87056053D01*
X145869956Y-87051984D01*
X144461518Y-85249265D01*
X144461512Y-85249258D01*
X144459411Y-85246569D01*
X144457036Y-85244126D01*
X144457031Y-85244121D01*
X144421311Y-85207389D01*
X144415805Y-85201727D01*
X144291544Y-85125730D01*
X144221247Y-85106696D01*
X144159615Y-85090009D01*
X144159614Y-85090009D01*
X144150950Y-85087663D01*
X144141977Y-85087843D01*
X144141976Y-85087843D01*
X144057519Y-85089538D01*
X144005322Y-85090586D01*
X143996762Y-85093277D01*
X143996760Y-85093277D01*
X143873902Y-85131896D01*
X143873899Y-85131897D01*
X143866367Y-85134265D01*
X143813208Y-85167225D01*
X142366209Y-86297744D01*
X142321368Y-86341351D01*
X142245371Y-86465611D01*
X142207304Y-86606206D01*
X142210227Y-86751834D01*
X142212918Y-86760394D01*
X142212918Y-86760396D01*
X142241452Y-86851171D01*
X142242797Y-86922154D01*
X142205553Y-86982597D01*
X142141542Y-87013309D01*
X142102953Y-87013618D01*
X142021310Y-87001635D01*
X141918717Y-87004052D01*
X141792769Y-87007020D01*
X141792765Y-87007020D01*
X141787435Y-87007146D01*
X141782205Y-87008167D01*
X141782199Y-87008168D01*
X141563063Y-87050962D01*
X141563060Y-87050963D01*
X141557831Y-87051984D01*
X141339067Y-87134868D01*
X141137393Y-87253425D01*
X140958579Y-87404267D01*
X140807737Y-87583082D01*
X140805035Y-87587678D01*
X140805033Y-87587681D01*
X140698464Y-87768961D01*
X140689179Y-87784755D01*
X140606297Y-88003521D01*
X140605276Y-88008752D01*
X140605274Y-88008757D01*
X140562481Y-88227887D01*
X140562480Y-88227893D01*
X140561459Y-88233123D01*
X140555948Y-88466998D01*
X140558086Y-88481566D01*
X140562152Y-88509269D01*
X140552254Y-88579573D01*
X140505919Y-88633364D01*
X140437857Y-88653565D01*
X140398448Y-88647365D01*
X140256297Y-88601041D01*
X140256299Y-88601041D01*
X140251222Y-88599387D01*
X140019762Y-88565415D01*
X139917169Y-88567832D01*
X139791221Y-88570800D01*
X139791217Y-88570800D01*
X139785887Y-88570926D01*
X139780657Y-88571947D01*
X139780651Y-88571948D01*
X139561515Y-88614742D01*
X139561512Y-88614743D01*
X139556283Y-88615764D01*
X139337519Y-88698648D01*
X139135845Y-88817205D01*
X138957031Y-88968047D01*
X138953596Y-88972119D01*
X138825442Y-89124039D01*
X138806189Y-89146862D01*
X138803487Y-89151458D01*
X138803485Y-89151461D01*
X138755426Y-89233212D01*
X138687631Y-89348535D01*
X138604749Y-89567301D01*
X138603728Y-89572532D01*
X138603726Y-89572537D01*
X138560933Y-89791667D01*
X138560932Y-89791673D01*
X138559911Y-89796903D01*
X138559785Y-89802233D01*
X138559785Y-89802237D01*
X138557612Y-89894448D01*
X138554400Y-90030778D01*
X138555176Y-90036063D01*
X138560604Y-90073049D01*
X138550706Y-90143353D01*
X138504371Y-90197144D01*
X138436309Y-90217345D01*
X138396900Y-90211145D01*
X138390623Y-90209100D01*
X138249675Y-90163167D01*
X138018215Y-90129195D01*
X137915622Y-90131612D01*
X137789674Y-90134580D01*
X137789670Y-90134580D01*
X137784340Y-90134706D01*
X137779110Y-90135727D01*
X137779104Y-90135728D01*
X137559968Y-90178522D01*
X137559965Y-90178523D01*
X137554736Y-90179544D01*
X137335972Y-90262428D01*
X137134298Y-90380985D01*
X136955484Y-90531827D01*
X136952049Y-90535899D01*
X136823895Y-90687819D01*
X136804642Y-90710642D01*
X136686084Y-90912315D01*
X136603202Y-91131081D01*
X136602181Y-91136312D01*
X136602179Y-91136317D01*
X136559386Y-91355447D01*
X136559385Y-91355453D01*
X136558364Y-91360683D01*
X136552853Y-91594558D01*
X136559139Y-91637384D01*
X136549242Y-91707685D01*
X136502907Y-91761477D01*
X136434846Y-91781679D01*
X136395434Y-91775479D01*
X136253085Y-91729090D01*
X136242734Y-91726662D01*
X136021921Y-91694252D01*
X136011300Y-91693602D01*
X135788182Y-91698861D01*
X135777610Y-91700010D01*
X135558559Y-91742787D01*
X135548342Y-91745698D01*
X135339631Y-91824771D01*
X135330041Y-91829366D01*
X135312888Y-91839449D01*
X135303077Y-91849902D01*
X131151875Y-91849902D01*
X130839258Y-90532869D01*
X130842987Y-90461972D01*
X130885313Y-90403682D01*
X130939817Y-90362003D01*
X142925673Y-81196349D01*
X142991936Y-81170858D01*
X143061461Y-81185237D01*
G37*
G04 #@! TD.AperFunction*
M02*
