%FSLAX45Y45*%
G04 Gerber Fmt 4.5, Leading zero omitted, Abs format (unit mm)*
G04 Created by KiCad (PCBNEW 6.0.2+dfsg-1) date 2023-01-26 22:51:58*
%MOMM*%
%LPD*%
G01*
G04 APERTURE LIST*
%TA.AperFunction,Profile*%
%ADD10C,0.200000*%
%TD*%
%ADD11C,0.200000*%
%ADD12C,0.040000*%
%ADD13C,0.120000*%
G04 APERTURE END LIST*
D10*
X14800000Y-11326000D02*
X13380000Y-10260000D01*
X14375000Y-8000000D02*
X16615000Y-9550000D01*
X15200000Y-11326000D02*
X14800000Y-11326000D01*
X16615000Y-10310000D02*
X15200000Y-11326000D01*
X12950000Y-9100000D02*
X14375000Y-8000000D01*
X16615000Y-9550000D02*
X16615000Y-10310000D01*
X13380000Y-10260000D02*
X12950000Y-9100000D01*
D11*
D12*
X14050000Y-9210000D02*
X14090000Y-9250000D01*
X14090000Y-9210000D02*
X14050000Y-9250000D01*
X14090000Y-8570000D02*
X14130000Y-8610000D01*
X14130000Y-8570000D02*
X14090000Y-8610000D01*
X14130000Y-9950000D02*
X14170000Y-9990000D01*
X14170000Y-9950000D02*
X14130000Y-9990000D01*
X14260000Y-9060000D02*
X14300000Y-9100000D01*
X14300000Y-9060000D02*
X14260000Y-9100000D01*
X14269304Y-10555979D02*
X14309304Y-10595979D01*
X14309304Y-10555979D02*
X14269304Y-10595979D01*
X14280000Y-9440000D02*
X14320000Y-9480000D01*
X14320000Y-9440000D02*
X14280000Y-9480000D01*
X14354405Y-10701291D02*
X14394405Y-10741291D01*
X14394405Y-10701291D02*
X14354405Y-10741291D01*
X14400000Y-9930000D02*
X14440000Y-9970000D01*
X14440000Y-9930000D02*
X14400000Y-9970000D01*
X14473113Y-10315573D02*
X14513113Y-10355573D01*
X14513113Y-10315573D02*
X14473113Y-10355573D01*
X14500000Y-9100000D02*
X14540000Y-9140000D01*
X14540000Y-9100000D02*
X14500000Y-9140000D01*
X14540000Y-9470000D02*
X14580000Y-9510000D01*
X14580000Y-9470000D02*
X14540000Y-9510000D01*
X14540000Y-10800000D02*
X14580000Y-10840000D01*
X14580000Y-10800000D02*
X14540000Y-10840000D01*
X14590000Y-10197550D02*
X14630000Y-10237550D01*
X14630000Y-10197550D02*
X14590000Y-10237550D01*
X14700000Y-8730000D02*
X14740000Y-8770000D01*
X14740000Y-8730000D02*
X14700000Y-8770000D01*
X14826250Y-10253625D02*
X14866250Y-10293625D01*
X14866250Y-10253625D02*
X14826250Y-10293625D01*
X14839706Y-8718401D02*
X14879706Y-8758401D01*
X14879706Y-8718401D02*
X14839706Y-8758401D01*
X14852226Y-10107098D02*
X14892226Y-10147098D01*
X14892226Y-10107098D02*
X14852226Y-10147098D01*
X15050000Y-9670000D02*
X15090000Y-9710000D01*
X15090000Y-9670000D02*
X15050000Y-9710000D01*
X15201230Y-8778770D02*
X15241230Y-8818770D01*
X15241230Y-8778770D02*
X15201230Y-8818770D01*
X15240450Y-10260450D02*
X15280450Y-10300450D01*
X15280450Y-10260450D02*
X15240450Y-10300450D01*
X15280000Y-9400000D02*
X15320000Y-9440000D01*
X15320000Y-9400000D02*
X15280000Y-9440000D01*
X15300000Y-9660000D02*
X15340000Y-9700000D01*
X15340000Y-9660000D02*
X15300000Y-9700000D01*
X15320000Y-9182450D02*
X15360000Y-9222450D01*
X15360000Y-9182450D02*
X15320000Y-9222450D01*
X15340000Y-8980000D02*
X15380000Y-9020000D01*
X15380000Y-8980000D02*
X15340000Y-9020000D01*
X15340000Y-9800000D02*
X15380000Y-9840000D01*
X15380000Y-9800000D02*
X15340000Y-9840000D01*
X15350000Y-10070000D02*
X15390000Y-10110000D01*
X15390000Y-10070000D02*
X15350000Y-10110000D01*
X15475000Y-9465000D02*
X15515000Y-9505000D01*
X15515000Y-9465000D02*
X15475000Y-9505000D01*
X15490000Y-10690000D02*
X15530000Y-10730000D01*
X15530000Y-10690000D02*
X15490000Y-10730000D01*
X15590000Y-9505000D02*
X15630000Y-9545000D01*
X15630000Y-9505000D02*
X15590000Y-9545000D01*
X15612313Y-10175321D02*
X15652313Y-10215321D01*
X15652313Y-10175321D02*
X15612313Y-10215321D01*
X15640000Y-9150000D02*
X15680000Y-9190000D01*
X15680000Y-9150000D02*
X15640000Y-9190000D01*
X15660000Y-9260000D02*
X15700000Y-9300000D01*
X15700000Y-9260000D02*
X15660000Y-9300000D01*
X15700000Y-10560000D02*
X15740000Y-10600000D01*
X15740000Y-10560000D02*
X15700000Y-10600000D01*
X15720000Y-10100000D02*
X15760000Y-10140000D01*
X15760000Y-10100000D02*
X15720000Y-10140000D01*
X15734624Y-10313541D02*
X15774624Y-10353541D01*
X15774624Y-10313541D02*
X15734624Y-10353541D01*
X15740000Y-10660000D02*
X15780000Y-10700000D01*
X15780000Y-10660000D02*
X15740000Y-10700000D01*
X15820779Y-9531755D02*
X15860779Y-9571755D01*
X15860779Y-9531755D02*
X15820779Y-9571755D01*
X15871230Y-9788770D02*
X15911230Y-9828770D01*
X15911230Y-9788770D02*
X15871230Y-9828770D01*
X15878770Y-9401230D02*
X15918770Y-9441230D01*
X15918770Y-9401230D02*
X15878770Y-9441230D01*
X15970000Y-9280000D02*
X16010000Y-9320000D01*
X16010000Y-9280000D02*
X15970000Y-9320000D01*
X16140000Y-9560000D02*
X16180000Y-9600000D01*
X16180000Y-9560000D02*
X16140000Y-9600000D01*
D13*
X13667381Y-9325512D02*
G75*
G03*
X13667381Y-9325512I-60000J0D01*
G01*
X13867536Y-9169134D02*
G75*
G03*
X13867536Y-9169134I-60000J0D01*
G01*
X14067690Y-9012756D02*
G75*
G03*
X14067690Y-9012756I-60000J0D01*
G01*
X14267845Y-8856378D02*
G75*
G03*
X14267845Y-8856378I-60000J0D01*
G01*
X14468000Y-8700000D02*
G75*
G03*
X14468000Y-8700000I-60000J0D01*
G01*
D11*
X13197619Y-11646476D02*
X13197619Y-11446476D01*
X13245238Y-11446476D01*
X13273809Y-11456000D01*
X13292857Y-11475048D01*
X13302381Y-11494095D01*
X13311905Y-11532190D01*
X13311905Y-11560762D01*
X13302381Y-11598857D01*
X13292857Y-11617905D01*
X13273809Y-11636952D01*
X13245238Y-11646476D01*
X13197619Y-11646476D01*
X13397619Y-11646476D02*
X13397619Y-11513143D01*
X13397619Y-11551238D02*
X13407143Y-11532190D01*
X13416667Y-11522667D01*
X13435714Y-11513143D01*
X13454762Y-11513143D01*
X13521428Y-11646476D02*
X13521428Y-11513143D01*
X13521428Y-11446476D02*
X13511905Y-11456000D01*
X13521428Y-11465524D01*
X13530952Y-11456000D01*
X13521428Y-11446476D01*
X13521428Y-11465524D01*
X13645238Y-11646476D02*
X13626190Y-11636952D01*
X13616667Y-11617905D01*
X13616667Y-11446476D01*
X13750000Y-11646476D02*
X13730952Y-11636952D01*
X13721428Y-11617905D01*
X13721428Y-11446476D01*
X13978571Y-11646476D02*
X13978571Y-11446476D01*
X14045238Y-11589333D01*
X14111905Y-11446476D01*
X14111905Y-11646476D01*
X14292857Y-11646476D02*
X14292857Y-11541714D01*
X14283333Y-11522667D01*
X14264286Y-11513143D01*
X14226190Y-11513143D01*
X14207143Y-11522667D01*
X14292857Y-11636952D02*
X14273809Y-11646476D01*
X14226190Y-11646476D01*
X14207143Y-11636952D01*
X14197619Y-11617905D01*
X14197619Y-11598857D01*
X14207143Y-11579809D01*
X14226190Y-11570286D01*
X14273809Y-11570286D01*
X14292857Y-11560762D01*
X14388095Y-11513143D02*
X14388095Y-11713143D01*
X14388095Y-11522667D02*
X14407143Y-11513143D01*
X14445238Y-11513143D01*
X14464286Y-11522667D01*
X14473809Y-11532190D01*
X14483333Y-11551238D01*
X14483333Y-11608381D01*
X14473809Y-11627428D01*
X14464286Y-11636952D01*
X14445238Y-11646476D01*
X14407143Y-11646476D01*
X14388095Y-11636952D01*
X14569048Y-11627428D02*
X14578571Y-11636952D01*
X14569048Y-11646476D01*
X14559524Y-11636952D01*
X14569048Y-11627428D01*
X14569048Y-11646476D01*
X14569048Y-11522667D02*
X14578571Y-11532190D01*
X14569048Y-11541714D01*
X14559524Y-11532190D01*
X14569048Y-11522667D01*
X14569048Y-11541714D01*
D12*
X12900000Y-11956000D02*
X12940000Y-11996000D01*
X12940000Y-11956000D02*
X12900000Y-11996000D01*
D11*
X13235714Y-11866476D02*
X13254762Y-11866476D01*
X13273809Y-11876000D01*
X13283333Y-11885524D01*
X13292857Y-11904571D01*
X13302381Y-11942667D01*
X13302381Y-11990286D01*
X13292857Y-12028381D01*
X13283333Y-12047428D01*
X13273809Y-12056952D01*
X13254762Y-12066476D01*
X13235714Y-12066476D01*
X13216667Y-12056952D01*
X13207143Y-12047428D01*
X13197619Y-12028381D01*
X13188095Y-11990286D01*
X13188095Y-11942667D01*
X13197619Y-11904571D01*
X13207143Y-11885524D01*
X13216667Y-11876000D01*
X13235714Y-11866476D01*
X13388095Y-12047428D02*
X13397619Y-12056952D01*
X13388095Y-12066476D01*
X13378571Y-12056952D01*
X13388095Y-12047428D01*
X13388095Y-12066476D01*
X13569048Y-11933143D02*
X13569048Y-12066476D01*
X13521428Y-11856952D02*
X13473809Y-11999809D01*
X13597619Y-11999809D01*
X13711905Y-11866476D02*
X13730952Y-11866476D01*
X13750000Y-11876000D01*
X13759524Y-11885524D01*
X13769048Y-11904571D01*
X13778571Y-11942667D01*
X13778571Y-11990286D01*
X13769048Y-12028381D01*
X13759524Y-12047428D01*
X13750000Y-12056952D01*
X13730952Y-12066476D01*
X13711905Y-12066476D01*
X13692857Y-12056952D01*
X13683333Y-12047428D01*
X13673809Y-12028381D01*
X13664286Y-11990286D01*
X13664286Y-11942667D01*
X13673809Y-11904571D01*
X13683333Y-11885524D01*
X13692857Y-11876000D01*
X13711905Y-11866476D01*
X13902381Y-11866476D02*
X13921428Y-11866476D01*
X13940476Y-11876000D01*
X13950000Y-11885524D01*
X13959524Y-11904571D01*
X13969048Y-11942667D01*
X13969048Y-11990286D01*
X13959524Y-12028381D01*
X13950000Y-12047428D01*
X13940476Y-12056952D01*
X13921428Y-12066476D01*
X13902381Y-12066476D01*
X13883333Y-12056952D01*
X13873809Y-12047428D01*
X13864286Y-12028381D01*
X13854762Y-11990286D01*
X13854762Y-11942667D01*
X13864286Y-11904571D01*
X13873809Y-11885524D01*
X13883333Y-11876000D01*
X13902381Y-11866476D01*
X14054762Y-12066476D02*
X14054762Y-11933143D01*
X14054762Y-11952190D02*
X14064286Y-11942667D01*
X14083333Y-11933143D01*
X14111905Y-11933143D01*
X14130952Y-11942667D01*
X14140476Y-11961714D01*
X14140476Y-12066476D01*
X14140476Y-11961714D02*
X14150000Y-11942667D01*
X14169048Y-11933143D01*
X14197619Y-11933143D01*
X14216667Y-11942667D01*
X14226190Y-11961714D01*
X14226190Y-12066476D01*
X14321428Y-12066476D02*
X14321428Y-11933143D01*
X14321428Y-11952190D02*
X14330952Y-11942667D01*
X14350000Y-11933143D01*
X14378571Y-11933143D01*
X14397619Y-11942667D01*
X14407143Y-11961714D01*
X14407143Y-12066476D01*
X14407143Y-11961714D02*
X14416667Y-11942667D01*
X14435714Y-11933143D01*
X14464286Y-11933143D01*
X14483333Y-11942667D01*
X14492857Y-11961714D01*
X14492857Y-12066476D01*
X14883333Y-11856952D02*
X14711905Y-12114095D01*
X15140476Y-11866476D02*
X15159524Y-11866476D01*
X15178571Y-11876000D01*
X15188095Y-11885524D01*
X15197619Y-11904571D01*
X15207143Y-11942667D01*
X15207143Y-11990286D01*
X15197619Y-12028381D01*
X15188095Y-12047428D01*
X15178571Y-12056952D01*
X15159524Y-12066476D01*
X15140476Y-12066476D01*
X15121428Y-12056952D01*
X15111905Y-12047428D01*
X15102381Y-12028381D01*
X15092857Y-11990286D01*
X15092857Y-11942667D01*
X15102381Y-11904571D01*
X15111905Y-11885524D01*
X15121428Y-11876000D01*
X15140476Y-11866476D01*
X15292857Y-12047428D02*
X15302381Y-12056952D01*
X15292857Y-12066476D01*
X15283333Y-12056952D01*
X15292857Y-12047428D01*
X15292857Y-12066476D01*
X15426190Y-11866476D02*
X15445238Y-11866476D01*
X15464286Y-11876000D01*
X15473809Y-11885524D01*
X15483333Y-11904571D01*
X15492857Y-11942667D01*
X15492857Y-11990286D01*
X15483333Y-12028381D01*
X15473809Y-12047428D01*
X15464286Y-12056952D01*
X15445238Y-12066476D01*
X15426190Y-12066476D01*
X15407143Y-12056952D01*
X15397619Y-12047428D01*
X15388095Y-12028381D01*
X15378571Y-11990286D01*
X15378571Y-11942667D01*
X15388095Y-11904571D01*
X15397619Y-11885524D01*
X15407143Y-11876000D01*
X15426190Y-11866476D01*
X15683333Y-12066476D02*
X15569048Y-12066476D01*
X15626190Y-12066476D02*
X15626190Y-11866476D01*
X15607143Y-11895048D01*
X15588095Y-11914095D01*
X15569048Y-11923619D01*
X15864286Y-11866476D02*
X15769048Y-11866476D01*
X15759524Y-11961714D01*
X15769048Y-11952190D01*
X15788095Y-11942667D01*
X15835714Y-11942667D01*
X15854762Y-11952190D01*
X15864286Y-11961714D01*
X15873809Y-11980762D01*
X15873809Y-12028381D01*
X15864286Y-12047428D01*
X15854762Y-12056952D01*
X15835714Y-12066476D01*
X15788095Y-12066476D01*
X15769048Y-12056952D01*
X15759524Y-12047428D01*
X15940476Y-11866476D02*
X16073809Y-11866476D01*
X15988095Y-12066476D01*
X16140476Y-11866476D02*
X16140476Y-11904571D01*
X16216667Y-11866476D02*
X16216667Y-11904571D01*
X16511905Y-12142667D02*
X16502381Y-12133143D01*
X16483333Y-12104571D01*
X16473809Y-12085524D01*
X16464286Y-12056952D01*
X16454762Y-12009333D01*
X16454762Y-11971238D01*
X16464286Y-11923619D01*
X16473809Y-11895048D01*
X16483333Y-11876000D01*
X16502381Y-11847428D01*
X16511905Y-11837905D01*
X16673809Y-11933143D02*
X16673809Y-12066476D01*
X16626190Y-11856952D02*
X16578571Y-11999809D01*
X16702381Y-11999809D01*
X16883333Y-12066476D02*
X16769048Y-12066476D01*
X16826190Y-12066476D02*
X16826190Y-11866476D01*
X16807143Y-11895048D01*
X16788095Y-11914095D01*
X16769048Y-11923619D01*
X17121429Y-12066476D02*
X17121429Y-11866476D01*
X17207143Y-12066476D02*
X17207143Y-11961714D01*
X17197619Y-11942667D01*
X17178571Y-11933143D01*
X17150000Y-11933143D01*
X17130952Y-11942667D01*
X17121429Y-11952190D01*
X17330952Y-12066476D02*
X17311905Y-12056952D01*
X17302381Y-12047428D01*
X17292857Y-12028381D01*
X17292857Y-11971238D01*
X17302381Y-11952190D01*
X17311905Y-11942667D01*
X17330952Y-11933143D01*
X17359524Y-11933143D01*
X17378571Y-11942667D01*
X17388095Y-11952190D01*
X17397619Y-11971238D01*
X17397619Y-12028381D01*
X17388095Y-12047428D01*
X17378571Y-12056952D01*
X17359524Y-12066476D01*
X17330952Y-12066476D01*
X17511905Y-12066476D02*
X17492857Y-12056952D01*
X17483333Y-12037905D01*
X17483333Y-11866476D01*
X17664286Y-12056952D02*
X17645238Y-12066476D01*
X17607143Y-12066476D01*
X17588095Y-12056952D01*
X17578571Y-12037905D01*
X17578571Y-11961714D01*
X17588095Y-11942667D01*
X17607143Y-11933143D01*
X17645238Y-11933143D01*
X17664286Y-11942667D01*
X17673810Y-11961714D01*
X17673810Y-11980762D01*
X17578571Y-11999809D01*
X17750000Y-12056952D02*
X17769048Y-12066476D01*
X17807143Y-12066476D01*
X17826190Y-12056952D01*
X17835714Y-12037905D01*
X17835714Y-12028381D01*
X17826190Y-12009333D01*
X17807143Y-11999809D01*
X17778571Y-11999809D01*
X17759524Y-11990286D01*
X17750000Y-11971238D01*
X17750000Y-11961714D01*
X17759524Y-11942667D01*
X17778571Y-11933143D01*
X17807143Y-11933143D01*
X17826190Y-11942667D01*
X17902381Y-12142667D02*
X17911905Y-12133143D01*
X17930952Y-12104571D01*
X17940476Y-12085524D01*
X17950000Y-12056952D01*
X17959524Y-12009333D01*
X17959524Y-11971238D01*
X17950000Y-11923619D01*
X17940476Y-11895048D01*
X17930952Y-11876000D01*
X17911905Y-11847428D01*
X17902381Y-11837905D01*
D13*
X12940000Y-12240000D02*
G75*
G03*
X12940000Y-12240000I-60000J0D01*
G01*
D11*
X13302381Y-12330476D02*
X13188095Y-12330476D01*
X13245238Y-12330476D02*
X13245238Y-12130476D01*
X13226190Y-12159048D01*
X13207143Y-12178095D01*
X13188095Y-12187619D01*
X13388095Y-12311428D02*
X13397619Y-12320952D01*
X13388095Y-12330476D01*
X13378571Y-12320952D01*
X13388095Y-12311428D01*
X13388095Y-12330476D01*
X13473809Y-12149524D02*
X13483333Y-12140000D01*
X13502381Y-12130476D01*
X13550000Y-12130476D01*
X13569048Y-12140000D01*
X13578571Y-12149524D01*
X13588095Y-12168571D01*
X13588095Y-12187619D01*
X13578571Y-12216190D01*
X13464286Y-12330476D01*
X13588095Y-12330476D01*
X13711905Y-12130476D02*
X13730952Y-12130476D01*
X13750000Y-12140000D01*
X13759524Y-12149524D01*
X13769048Y-12168571D01*
X13778571Y-12206667D01*
X13778571Y-12254286D01*
X13769048Y-12292381D01*
X13759524Y-12311428D01*
X13750000Y-12320952D01*
X13730952Y-12330476D01*
X13711905Y-12330476D01*
X13692857Y-12320952D01*
X13683333Y-12311428D01*
X13673809Y-12292381D01*
X13664286Y-12254286D01*
X13664286Y-12206667D01*
X13673809Y-12168571D01*
X13683333Y-12149524D01*
X13692857Y-12140000D01*
X13711905Y-12130476D01*
X13902381Y-12130476D02*
X13921428Y-12130476D01*
X13940476Y-12140000D01*
X13950000Y-12149524D01*
X13959524Y-12168571D01*
X13969048Y-12206667D01*
X13969048Y-12254286D01*
X13959524Y-12292381D01*
X13950000Y-12311428D01*
X13940476Y-12320952D01*
X13921428Y-12330476D01*
X13902381Y-12330476D01*
X13883333Y-12320952D01*
X13873809Y-12311428D01*
X13864286Y-12292381D01*
X13854762Y-12254286D01*
X13854762Y-12206667D01*
X13864286Y-12168571D01*
X13873809Y-12149524D01*
X13883333Y-12140000D01*
X13902381Y-12130476D01*
X14054762Y-12330476D02*
X14054762Y-12197143D01*
X14054762Y-12216190D02*
X14064286Y-12206667D01*
X14083333Y-12197143D01*
X14111905Y-12197143D01*
X14130952Y-12206667D01*
X14140476Y-12225714D01*
X14140476Y-12330476D01*
X14140476Y-12225714D02*
X14150000Y-12206667D01*
X14169048Y-12197143D01*
X14197619Y-12197143D01*
X14216667Y-12206667D01*
X14226190Y-12225714D01*
X14226190Y-12330476D01*
X14321428Y-12330476D02*
X14321428Y-12197143D01*
X14321428Y-12216190D02*
X14330952Y-12206667D01*
X14350000Y-12197143D01*
X14378571Y-12197143D01*
X14397619Y-12206667D01*
X14407143Y-12225714D01*
X14407143Y-12330476D01*
X14407143Y-12225714D02*
X14416667Y-12206667D01*
X14435714Y-12197143D01*
X14464286Y-12197143D01*
X14483333Y-12206667D01*
X14492857Y-12225714D01*
X14492857Y-12330476D01*
X14883333Y-12120952D02*
X14711905Y-12378095D01*
X15140476Y-12130476D02*
X15159524Y-12130476D01*
X15178571Y-12140000D01*
X15188095Y-12149524D01*
X15197619Y-12168571D01*
X15207143Y-12206667D01*
X15207143Y-12254286D01*
X15197619Y-12292381D01*
X15188095Y-12311428D01*
X15178571Y-12320952D01*
X15159524Y-12330476D01*
X15140476Y-12330476D01*
X15121428Y-12320952D01*
X15111905Y-12311428D01*
X15102381Y-12292381D01*
X15092857Y-12254286D01*
X15092857Y-12206667D01*
X15102381Y-12168571D01*
X15111905Y-12149524D01*
X15121428Y-12140000D01*
X15140476Y-12130476D01*
X15292857Y-12311428D02*
X15302381Y-12320952D01*
X15292857Y-12330476D01*
X15283333Y-12320952D01*
X15292857Y-12311428D01*
X15292857Y-12330476D01*
X15426190Y-12130476D02*
X15445238Y-12130476D01*
X15464286Y-12140000D01*
X15473809Y-12149524D01*
X15483333Y-12168571D01*
X15492857Y-12206667D01*
X15492857Y-12254286D01*
X15483333Y-12292381D01*
X15473809Y-12311428D01*
X15464286Y-12320952D01*
X15445238Y-12330476D01*
X15426190Y-12330476D01*
X15407143Y-12320952D01*
X15397619Y-12311428D01*
X15388095Y-12292381D01*
X15378571Y-12254286D01*
X15378571Y-12206667D01*
X15388095Y-12168571D01*
X15397619Y-12149524D01*
X15407143Y-12140000D01*
X15426190Y-12130476D01*
X15664286Y-12197143D02*
X15664286Y-12330476D01*
X15616667Y-12120952D02*
X15569048Y-12263809D01*
X15692857Y-12263809D01*
X15750000Y-12130476D02*
X15883333Y-12130476D01*
X15797619Y-12330476D01*
X15950000Y-12149524D02*
X15959524Y-12140000D01*
X15978571Y-12130476D01*
X16026190Y-12130476D01*
X16045238Y-12140000D01*
X16054762Y-12149524D01*
X16064286Y-12168571D01*
X16064286Y-12187619D01*
X16054762Y-12216190D01*
X15940476Y-12330476D01*
X16064286Y-12330476D01*
X16140476Y-12130476D02*
X16140476Y-12168571D01*
X16216667Y-12130476D02*
X16216667Y-12168571D01*
X16511905Y-12406667D02*
X16502381Y-12397143D01*
X16483333Y-12368571D01*
X16473809Y-12349524D01*
X16464286Y-12320952D01*
X16454762Y-12273333D01*
X16454762Y-12235238D01*
X16464286Y-12187619D01*
X16473809Y-12159048D01*
X16483333Y-12140000D01*
X16502381Y-12111428D01*
X16511905Y-12101905D01*
X16683333Y-12130476D02*
X16588095Y-12130476D01*
X16578571Y-12225714D01*
X16588095Y-12216190D01*
X16607143Y-12206667D01*
X16654762Y-12206667D01*
X16673809Y-12216190D01*
X16683333Y-12225714D01*
X16692857Y-12244762D01*
X16692857Y-12292381D01*
X16683333Y-12311428D01*
X16673809Y-12320952D01*
X16654762Y-12330476D01*
X16607143Y-12330476D01*
X16588095Y-12320952D01*
X16578571Y-12311428D01*
X16930952Y-12330476D02*
X16930952Y-12130476D01*
X17016667Y-12330476D02*
X17016667Y-12225714D01*
X17007143Y-12206667D01*
X16988095Y-12197143D01*
X16959524Y-12197143D01*
X16940476Y-12206667D01*
X16930952Y-12216190D01*
X17140476Y-12330476D02*
X17121429Y-12320952D01*
X17111905Y-12311428D01*
X17102381Y-12292381D01*
X17102381Y-12235238D01*
X17111905Y-12216190D01*
X17121429Y-12206667D01*
X17140476Y-12197143D01*
X17169048Y-12197143D01*
X17188095Y-12206667D01*
X17197619Y-12216190D01*
X17207143Y-12235238D01*
X17207143Y-12292381D01*
X17197619Y-12311428D01*
X17188095Y-12320952D01*
X17169048Y-12330476D01*
X17140476Y-12330476D01*
X17321429Y-12330476D02*
X17302381Y-12320952D01*
X17292857Y-12301905D01*
X17292857Y-12130476D01*
X17473810Y-12320952D02*
X17454762Y-12330476D01*
X17416667Y-12330476D01*
X17397619Y-12320952D01*
X17388095Y-12301905D01*
X17388095Y-12225714D01*
X17397619Y-12206667D01*
X17416667Y-12197143D01*
X17454762Y-12197143D01*
X17473810Y-12206667D01*
X17483333Y-12225714D01*
X17483333Y-12244762D01*
X17388095Y-12263809D01*
X17559524Y-12320952D02*
X17578571Y-12330476D01*
X17616667Y-12330476D01*
X17635714Y-12320952D01*
X17645238Y-12301905D01*
X17645238Y-12292381D01*
X17635714Y-12273333D01*
X17616667Y-12263809D01*
X17588095Y-12263809D01*
X17569048Y-12254286D01*
X17559524Y-12235238D01*
X17559524Y-12225714D01*
X17569048Y-12206667D01*
X17588095Y-12197143D01*
X17616667Y-12197143D01*
X17635714Y-12206667D01*
X17711905Y-12406667D02*
X17721429Y-12397143D01*
X17740476Y-12368571D01*
X17750000Y-12349524D01*
X17759524Y-12320952D01*
X17769048Y-12273333D01*
X17769048Y-12235238D01*
X17759524Y-12187619D01*
X17750000Y-12159048D01*
X17740476Y-12140000D01*
X17721429Y-12111428D01*
X17711905Y-12101905D01*
M02*
