G04 #@! TF.GenerationSoftware,KiCad,Pcbnew,6.0.0-rc2*
G04 #@! TF.CreationDate,2022-07-08T10:42:51-07:00*
G04 #@! TF.ProjectId,rp2040_encoder,72703230-3430-45f6-956e-636f6465722e,rev?*
G04 #@! TF.SameCoordinates,Original*
G04 #@! TF.FileFunction,Paste,Top*
G04 #@! TF.FilePolarity,Positive*
%FSLAX46Y46*%
G04 Gerber Fmt 4.6, Leading zero omitted, Abs format (unit mm)*
G04 Created by KiCad (PCBNEW 6.0.0-rc2) date 2022-07-08 10:42:51*
%MOMM*%
%LPD*%
G01*
G04 APERTURE LIST*
G04 Aperture macros list*
%AMRoundRect*
0 Rectangle with rounded corners*
0 $1 Rounding radius*
0 $2 $3 $4 $5 $6 $7 $8 $9 X,Y pos of 4 corners*
0 Add a 4 corners polygon primitive as box body*
4,1,4,$2,$3,$4,$5,$6,$7,$8,$9,$2,$3,0*
0 Add four circle primitives for the rounded corners*
1,1,$1+$1,$2,$3*
1,1,$1+$1,$4,$5*
1,1,$1+$1,$6,$7*
1,1,$1+$1,$8,$9*
0 Add four rect primitives between the rounded corners*
20,1,$1+$1,$2,$3,$4,$5,0*
20,1,$1+$1,$4,$5,$6,$7,0*
20,1,$1+$1,$6,$7,$8,$9,0*
20,1,$1+$1,$8,$9,$2,$3,0*%
G04 Aperture macros list end*
%ADD10RoundRect,0.225000X0.250000X-0.225000X0.250000X0.225000X-0.250000X0.225000X-0.250000X-0.225000X0*%
%ADD11R,1.100000X1.100000*%
%ADD12RoundRect,0.225000X-0.250000X0.225000X-0.250000X-0.225000X0.250000X-0.225000X0.250000X0.225000X0*%
%ADD13RoundRect,0.150000X-0.725000X-0.150000X0.725000X-0.150000X0.725000X0.150000X-0.725000X0.150000X0*%
G04 APERTURE END LIST*
D10*
X143250000Y-100025000D03*
X143250000Y-98475000D03*
D11*
X141050000Y-103400000D03*
X143850000Y-103400000D03*
D12*
X145250000Y-98475000D03*
X145250000Y-100025000D03*
D13*
X147425000Y-98095000D03*
X147425000Y-99365000D03*
X147425000Y-100635000D03*
X147425000Y-101905000D03*
X152575000Y-101905000D03*
X152575000Y-100635000D03*
X152575000Y-99365000D03*
X152575000Y-98095000D03*
G36*
X151012121Y-103540002D02*
G01*
X151058614Y-103593658D01*
X151070000Y-103646000D01*
X151070000Y-104894000D01*
X151049998Y-104962121D01*
X150996342Y-105008614D01*
X150944000Y-105020000D01*
X148946000Y-105020000D01*
X148877879Y-104999998D01*
X148831386Y-104946342D01*
X148820000Y-104894000D01*
X148820000Y-103646000D01*
X148840002Y-103577879D01*
X148893658Y-103531386D01*
X148946000Y-103520000D01*
X150944000Y-103520000D01*
X151012121Y-103540002D01*
G37*
G36*
X146212121Y-106820002D02*
G01*
X146258614Y-106873658D01*
X146270000Y-106926000D01*
X146270000Y-108174000D01*
X146249998Y-108242121D01*
X146196342Y-108288614D01*
X146144000Y-108300000D01*
X144146000Y-108300000D01*
X144077879Y-108279998D01*
X144031386Y-108226342D01*
X144020000Y-108174000D01*
X144020000Y-106926000D01*
X144040002Y-106857879D01*
X144093658Y-106811386D01*
X144146000Y-106800000D01*
X146144000Y-106800000D01*
X146212121Y-106820002D01*
G37*
G36*
X158192121Y-97770002D02*
G01*
X158238614Y-97823658D01*
X158250000Y-97876000D01*
X158250000Y-99124000D01*
X158229998Y-99192121D01*
X158176342Y-99238614D01*
X158124000Y-99250000D01*
X156126000Y-99250000D01*
X156057879Y-99229998D01*
X156011386Y-99176342D01*
X156000000Y-99124000D01*
X156000000Y-97876000D01*
X156020002Y-97807879D01*
X156073658Y-97761386D01*
X156126000Y-97750000D01*
X158124000Y-97750000D01*
X158192121Y-97770002D01*
G37*
G36*
X157012121Y-101640002D02*
G01*
X157058614Y-101693658D01*
X157070000Y-101746000D01*
X157070000Y-102994000D01*
X157049998Y-103062121D01*
X156996342Y-103108614D01*
X156944000Y-103120000D01*
X154946000Y-103120000D01*
X154877879Y-103099998D01*
X154831386Y-103046342D01*
X154820000Y-102994000D01*
X154820000Y-101746000D01*
X154840002Y-101677879D01*
X154893658Y-101631386D01*
X154946000Y-101620000D01*
X156944000Y-101620000D01*
X157012121Y-101640002D01*
G37*
M02*
