G04 #@! TF.GenerationSoftware,KiCad,Pcbnew,6.0.2+dfsg-1*
G04 #@! TF.CreationDate,2023-01-26T22:51:51-08:00*
G04 #@! TF.ProjectId,rp2040_encoder,72703230-3430-45f6-956e-636f6465722e,rev?*
G04 #@! TF.SameCoordinates,Original*
G04 #@! TF.FileFunction,Copper,L1,Top*
G04 #@! TF.FilePolarity,Positive*
%FSLAX46Y46*%
G04 Gerber Fmt 4.6, Leading zero omitted, Abs format (unit mm)*
G04 Created by KiCad (PCBNEW 6.0.2+dfsg-1) date 2023-01-26 22:51:51*
%MOMM*%
%LPD*%
G01*
G04 APERTURE LIST*
G04 Aperture macros list*
%AMRoundRect*
0 Rectangle with rounded corners*
0 $1 Rounding radius*
0 $2 $3 $4 $5 $6 $7 $8 $9 X,Y pos of 4 corners*
0 Add a 4 corners polygon primitive as box body*
4,1,4,$2,$3,$4,$5,$6,$7,$8,$9,$2,$3,0*
0 Add four circle primitives for the rounded corners*
1,1,$1+$1,$2,$3*
1,1,$1+$1,$4,$5*
1,1,$1+$1,$6,$7*
1,1,$1+$1,$8,$9*
0 Add four rect primitives between the rounded corners*
20,1,$1+$1,$2,$3,$4,$5,0*
20,1,$1+$1,$4,$5,$6,$7,0*
20,1,$1+$1,$6,$7,$8,$9,0*
20,1,$1+$1,$8,$9,$2,$3,0*%
%AMHorizOval*
0 Thick line with rounded ends*
0 $1 width*
0 $2 $3 position (X,Y) of the first rounded end (center of the circle)*
0 $4 $5 position (X,Y) of the second rounded end (center of the circle)*
0 Add line between two ends*
20,1,$1,$2,$3,$4,$5,0*
0 Add two circle primitives to create the rounded ends*
1,1,$1,$2,$3*
1,1,$1,$4,$5*%
%AMRotRect*
0 Rectangle, with rotation*
0 The origin of the aperture is its center*
0 $1 length*
0 $2 width*
0 $3 Rotation angle, in degrees counterclockwise*
0 Add horizontal line*
21,1,$1,$2,0,0,$3*%
G04 Aperture macros list end*
G04 #@! TA.AperFunction,SMDPad,CuDef*
%ADD10RoundRect,0.225000X0.250000X-0.225000X0.250000X0.225000X-0.250000X0.225000X-0.250000X-0.225000X0*%
G04 #@! TD*
G04 #@! TA.AperFunction,SMDPad,CuDef*
%ADD11RoundRect,0.200000X0.200000X0.275000X-0.200000X0.275000X-0.200000X-0.275000X0.200000X-0.275000X0*%
G04 #@! TD*
G04 #@! TA.AperFunction,SMDPad,CuDef*
%ADD12R,0.400000X0.650000*%
G04 #@! TD*
G04 #@! TA.AperFunction,SMDPad,CuDef*
%ADD13RoundRect,0.225000X-0.225000X-0.250000X0.225000X-0.250000X0.225000X0.250000X-0.225000X0.250000X0*%
G04 #@! TD*
G04 #@! TA.AperFunction,SMDPad,CuDef*
%ADD14R,0.500000X0.500000*%
G04 #@! TD*
G04 #@! TA.AperFunction,SMDPad,CuDef*
%ADD15RotRect,1.100000X1.100000X310.000000*%
G04 #@! TD*
G04 #@! TA.AperFunction,SMDPad,CuDef*
%ADD16RotRect,0.650000X0.400000X230.000000*%
G04 #@! TD*
G04 #@! TA.AperFunction,ComponentPad*
%ADD17RotRect,1.740000X2.200000X218.000000*%
G04 #@! TD*
G04 #@! TA.AperFunction,ComponentPad*
%ADD18HorizOval,1.740000X-0.141602X0.181242X0.141602X-0.181242X0*%
G04 #@! TD*
G04 #@! TA.AperFunction,SMDPad,CuDef*
%ADD19RoundRect,0.225000X-0.250000X0.225000X-0.250000X-0.225000X0.250000X-0.225000X0.250000X0.225000X0*%
G04 #@! TD*
G04 #@! TA.AperFunction,SMDPad,CuDef*
%ADD20RoundRect,0.225000X0.017678X-0.335876X0.335876X-0.017678X-0.017678X0.335876X-0.335876X0.017678X0*%
G04 #@! TD*
G04 #@! TA.AperFunction,SMDPad,CuDef*
%ADD21R,0.650000X0.400000*%
G04 #@! TD*
G04 #@! TA.AperFunction,SMDPad,CuDef*
%ADD22RoundRect,0.150000X-0.725000X-0.150000X0.725000X-0.150000X0.725000X0.150000X-0.725000X0.150000X0*%
G04 #@! TD*
G04 #@! TA.AperFunction,SMDPad,CuDef*
%ADD23RotRect,0.650000X0.400000X308.000000*%
G04 #@! TD*
G04 #@! TA.AperFunction,SMDPad,CuDef*
%ADD24RoundRect,0.225000X0.023387X0.335527X-0.331218X0.058479X-0.023387X-0.335527X0.331218X-0.058479X0*%
G04 #@! TD*
G04 #@! TA.AperFunction,ViaPad*
%ADD25C,0.800000*%
G04 #@! TD*
G04 #@! TA.AperFunction,Conductor*
%ADD26C,0.250000*%
G04 #@! TD*
G04 APERTURE END LIST*
D10*
X143250000Y-100025000D03*
X143250000Y-98475000D03*
D11*
X156225000Y-100850000D03*
X154575000Y-100850000D03*
D12*
X143420000Y-101570000D03*
X142770000Y-101570000D03*
X142120000Y-101570000D03*
X142120000Y-103470000D03*
X143420000Y-103470000D03*
D13*
X156150000Y-97725000D03*
X157700000Y-97725000D03*
D14*
X144450000Y-94450000D03*
X144450000Y-93550000D03*
X143550000Y-93550000D03*
X143550000Y-94450000D03*
D11*
X148825000Y-86310000D03*
X147175000Y-86310000D03*
D15*
X132500097Y-94077538D03*
X134299903Y-96222462D03*
D14*
X156450000Y-94450000D03*
X155550000Y-94450000D03*
X155550000Y-93550000D03*
X156450000Y-93550000D03*
D16*
X161528577Y-94520070D03*
X161030648Y-94102258D03*
X160532719Y-93684446D03*
X159311423Y-95139930D03*
X160307281Y-95975554D03*
D10*
X146500000Y-105385000D03*
X146500000Y-103835000D03*
D17*
X144080000Y-87000000D03*
D18*
X142078453Y-88563780D03*
X140076905Y-90127560D03*
X138075358Y-91691340D03*
X136073811Y-93255121D03*
D19*
X145250000Y-98475000D03*
X145250000Y-100025000D03*
D20*
X158051992Y-93298008D03*
X159148008Y-92201992D03*
D21*
X154200000Y-90750000D03*
X154200000Y-91400000D03*
X154200000Y-92050000D03*
X156100000Y-92050000D03*
X156100000Y-90750000D03*
D22*
X147425000Y-98095000D03*
X147425000Y-99365000D03*
X147425000Y-100635000D03*
X147425000Y-101905000D03*
X152575000Y-101905000D03*
X152575000Y-100635000D03*
X152575000Y-99365000D03*
X152575000Y-98095000D03*
D14*
X144450000Y-106450000D03*
X144450000Y-105550000D03*
X143550000Y-105550000D03*
X143550000Y-106450000D03*
D23*
X157827329Y-101951210D03*
X157315122Y-102351390D03*
X156802915Y-102751570D03*
X157972671Y-104248790D03*
X158997085Y-103448430D03*
D11*
X156215000Y-99250000D03*
X154565000Y-99250000D03*
D14*
X156450000Y-105550000D03*
X155550000Y-105550000D03*
X155550000Y-106450000D03*
X156450000Y-106450000D03*
D24*
X159810708Y-104822862D03*
X158589292Y-105777138D03*
D25*
X143000000Y-94600000D03*
X143744053Y-107212911D03*
X158912299Y-98087701D03*
X153000000Y-94200000D03*
X159900000Y-93000000D03*
X142800000Y-90800000D03*
X144200000Y-99500000D03*
X146100000Y-102175500D03*
X148597062Y-87384013D03*
X153400000Y-92024500D03*
X157600000Y-106800000D03*
X156100000Y-95250000D03*
X140700000Y-92300000D03*
X157546241Y-103335406D03*
X144931127Y-103355725D03*
X153200000Y-96800000D03*
X150700000Y-96900000D03*
X141500000Y-99700000D03*
X145200000Y-91200000D03*
X158407788Y-95517547D03*
X153600000Y-98200000D03*
X141100000Y-85900000D03*
X152212299Y-87987701D03*
X157400000Y-101200000D03*
X148722259Y-101270984D03*
X152604500Y-102804500D03*
X156323132Y-101953210D03*
X147200000Y-87500000D03*
X161600000Y-95800000D03*
X156600000Y-91700000D03*
X148462498Y-102736246D03*
X153700000Y-100900000D03*
X157200000Y-105800000D03*
X154950000Y-94850000D03*
X145600000Y-108200000D03*
X155100000Y-107100000D03*
X158987701Y-94212299D03*
X156800000Y-92800000D03*
X153600000Y-90000000D03*
X142893039Y-105759789D03*
X145600000Y-94900000D03*
D26*
X142800000Y-90800000D02*
X142200000Y-90800000D01*
X143875000Y-99400000D02*
X144625000Y-99400000D01*
X147610000Y-86310000D02*
X147175000Y-86310000D01*
X147130000Y-101905000D02*
X147425000Y-101905000D01*
X159900000Y-93000000D02*
X160532719Y-93632719D01*
X142775000Y-102800000D02*
X142120000Y-102145000D01*
X146020725Y-103355725D02*
X146500000Y-103835000D01*
X142120000Y-101570000D02*
X142120000Y-101155000D01*
X142120000Y-102145000D02*
X142120000Y-101570000D01*
X153400000Y-93800000D02*
X153000000Y-94200000D01*
X157546241Y-103335406D02*
X157386751Y-103335406D01*
X149446770Y-100970881D02*
X148486369Y-100010480D01*
X156100000Y-95250000D02*
X156450000Y-94900000D01*
X149022362Y-101995495D02*
X149446770Y-101571087D01*
X147425000Y-101905000D02*
X146370500Y-101905000D01*
X157600000Y-106800000D02*
X157766430Y-106800000D01*
X157600000Y-106800000D02*
X156800000Y-106800000D01*
X159900000Y-93000000D02*
X159151992Y-92251992D01*
X157700000Y-97725000D02*
X158549598Y-97725000D01*
X160532719Y-93632719D02*
X160532719Y-93684446D01*
X144200000Y-99500000D02*
X144300000Y-99400000D01*
X148100480Y-86800480D02*
X147610000Y-86310000D01*
X154200000Y-92050000D02*
X154150000Y-92050000D01*
X153425500Y-92050000D02*
X154200000Y-92050000D01*
X158549598Y-97725000D02*
X158912299Y-98087701D01*
X145264520Y-100010480D02*
X145250000Y-100025000D01*
X143550000Y-94450000D02*
X143150000Y-94450000D01*
X134299903Y-96222462D02*
X134299903Y-95029029D01*
X148597062Y-87384013D02*
X148100480Y-86887431D01*
X148486369Y-100010480D02*
X145264520Y-100010480D01*
X142200000Y-90800000D02*
X140700000Y-92300000D01*
X143150000Y-94450000D02*
X143000000Y-94600000D01*
X146370500Y-101905000D02*
X146100000Y-102175500D01*
X157766430Y-106800000D02*
X158689292Y-105877138D01*
X143550000Y-107018858D02*
X143550000Y-106450000D01*
X156450000Y-94900000D02*
X156450000Y-94450000D01*
X147515495Y-101995495D02*
X149022362Y-101995495D01*
X144931127Y-103355725D02*
X144375402Y-102800000D01*
X153400000Y-92024500D02*
X153425500Y-92050000D01*
X149446770Y-101571087D02*
X149446770Y-100970881D01*
X148100480Y-86887431D02*
X148100480Y-86800480D01*
X142120000Y-101155000D02*
X143250000Y-100025000D01*
X144625000Y-99400000D02*
X145250000Y-100025000D01*
X144300000Y-99400000D02*
X144625000Y-99400000D01*
X143744053Y-107212911D02*
X143550000Y-107018858D01*
X153400000Y-92024500D02*
X153400000Y-93800000D01*
X144375402Y-102800000D02*
X142775000Y-102800000D01*
X157386751Y-103335406D02*
X156802915Y-102751570D01*
X143250000Y-100025000D02*
X143875000Y-99400000D01*
X147425000Y-101905000D02*
X147515495Y-101995495D01*
X144931127Y-103355725D02*
X146020725Y-103355725D01*
X156800000Y-106800000D02*
X156450000Y-106450000D01*
X159151992Y-92251992D02*
X159098008Y-92251992D01*
X134299903Y-95029029D02*
X136073811Y-93255121D01*
X156100000Y-90750000D02*
X155450489Y-91399511D01*
X156215000Y-100790000D02*
X156225000Y-100800000D01*
X158001992Y-91401992D02*
X157350000Y-90750000D01*
X159810708Y-104822862D02*
X159810708Y-104262053D01*
X159910708Y-104922862D02*
X159787846Y-104800000D01*
X146000000Y-98500000D02*
X145275000Y-98500000D01*
X155450489Y-91399511D02*
X155450489Y-93450489D01*
X145275000Y-98500000D02*
X145250000Y-98475000D01*
X146405000Y-98095000D02*
X146000000Y-98500000D01*
X158371065Y-104800000D02*
X158218519Y-104952546D01*
X146300000Y-105385000D02*
X144615000Y-105385000D01*
X157350000Y-90750000D02*
X156100000Y-90750000D01*
X159810708Y-104262053D02*
X158997085Y-103448430D01*
X155952546Y-104952546D02*
X155000000Y-104000000D01*
X144615000Y-105385000D02*
X144450000Y-105550000D01*
X147425000Y-98095000D02*
X146405000Y-98095000D01*
X159787846Y-104800000D02*
X158371065Y-104800000D01*
X155450489Y-93450489D02*
X155550000Y-93550000D01*
X158001992Y-93348008D02*
X158001992Y-91401992D01*
X158218519Y-104952546D02*
X155952546Y-104952546D01*
X141500000Y-99700000D02*
X141595489Y-99795489D01*
X141595489Y-99795489D02*
X141595489Y-102945489D01*
X141595489Y-102945489D02*
X142120000Y-103470000D01*
X142263780Y-88563780D02*
X142078453Y-88563780D01*
X144900000Y-91200000D02*
X142263780Y-88563780D01*
X158407788Y-95517547D02*
X158747577Y-95517547D01*
X159390146Y-95841972D02*
X159998058Y-95234060D01*
X159998058Y-95134848D02*
X161030648Y-94102258D01*
X159072002Y-95841972D02*
X159390146Y-95841972D01*
X159998058Y-95234060D02*
X159998058Y-95134848D01*
X158747577Y-95517547D02*
X159072002Y-95841972D01*
X145200000Y-91200000D02*
X144900000Y-91200000D01*
X152575000Y-98095000D02*
X152200000Y-97720000D01*
X154100000Y-91300000D02*
X154200000Y-91400000D01*
X154724022Y-91400000D02*
X154200000Y-91400000D01*
X143709520Y-101280480D02*
X143420000Y-101570000D01*
X157827329Y-101627329D02*
X157827329Y-101951210D01*
X152200000Y-97720000D02*
X152200000Y-91940338D01*
X152200000Y-91940338D02*
X152840338Y-91300000D01*
X154849511Y-90224897D02*
X154849511Y-91274511D01*
X157400000Y-101200000D02*
X157827329Y-101627329D01*
X152680000Y-98200000D02*
X152575000Y-98095000D01*
X152612315Y-87987701D02*
X154849511Y-90224897D01*
X140076905Y-86923095D02*
X140076905Y-90127560D01*
X148712763Y-101280480D02*
X143709520Y-101280480D01*
X148722259Y-101270984D02*
X148712763Y-101280480D01*
X153600000Y-98200000D02*
X152680000Y-98200000D01*
X152212299Y-87987701D02*
X152612315Y-87987701D01*
X141100000Y-85900000D02*
X140076905Y-86923095D01*
X154849511Y-91274511D02*
X154724022Y-91400000D01*
X152840338Y-91300000D02*
X154100000Y-91300000D01*
X150500000Y-88200000D02*
X152350000Y-90050000D01*
X156487402Y-102117480D02*
X156557067Y-102047814D01*
X151300000Y-102200000D02*
X151904500Y-102804500D01*
X151904500Y-102804500D02*
X152604500Y-102804500D01*
X156557067Y-102047814D02*
X157011546Y-102047814D01*
X151600000Y-97375375D02*
X151300000Y-97675375D01*
X156323132Y-101953210D02*
X156487402Y-102117480D01*
X147900000Y-88200000D02*
X150500000Y-88200000D01*
X152350000Y-90750000D02*
X154200000Y-90750000D01*
X147200000Y-87500000D02*
X147900000Y-88200000D01*
X151300000Y-97675375D02*
X151300000Y-102200000D01*
X152350000Y-90050000D02*
X152350000Y-90750000D01*
X151600000Y-91621685D02*
X151600000Y-97375375D01*
X152350000Y-90750000D02*
X152350000Y-90871685D01*
X157011546Y-102047814D02*
X157315122Y-102351390D01*
X152350000Y-90871685D02*
X151600000Y-91621685D01*
X156450000Y-91700000D02*
X156100000Y-92050000D01*
X161600000Y-95800000D02*
X161600000Y-94591493D01*
X161600000Y-94591493D02*
X161528577Y-94520070D01*
X156600000Y-91700000D02*
X156450000Y-91700000D01*
X148462498Y-102736246D02*
X148298744Y-102900000D01*
X145500000Y-102900000D02*
X144819511Y-102219511D01*
X148298744Y-102900000D02*
X145500000Y-102900000D01*
X142895489Y-102219511D02*
X142770000Y-102094022D01*
X144819511Y-102219511D02*
X142895489Y-102219511D01*
X154360000Y-100635000D02*
X154575000Y-100850000D01*
X152575000Y-100635000D02*
X154360000Y-100635000D01*
X152610000Y-100600000D02*
X152575000Y-100635000D01*
X153700000Y-100900000D02*
X152840000Y-100900000D01*
X152840000Y-100900000D02*
X152575000Y-100635000D01*
X154575000Y-100850000D02*
X154325000Y-100600000D01*
X142770000Y-102094022D02*
X142770000Y-101570000D01*
X154565000Y-99250000D02*
X152690000Y-99250000D01*
X152690000Y-99250000D02*
X152575000Y-99365000D01*
X155400000Y-103224614D02*
X155400000Y-100085000D01*
X157972671Y-104248790D02*
X157448790Y-104248790D01*
X157124511Y-103924511D02*
X156099897Y-103924511D01*
X155400000Y-100085000D02*
X154565000Y-99250000D01*
X156099897Y-103924511D02*
X155400000Y-103224614D01*
X157448790Y-104248790D02*
X157124511Y-103924511D01*
X157200000Y-105800000D02*
X156950000Y-105550000D01*
X154950000Y-94850000D02*
X155150000Y-94850000D01*
X156950000Y-105550000D02*
X156450000Y-105550000D01*
X155550000Y-94575112D02*
X155550000Y-94450000D01*
X155150000Y-94850000D02*
X155550000Y-94450000D01*
X155100000Y-107100000D02*
X155100000Y-106900000D01*
X155100000Y-106900000D02*
X155550000Y-106450000D01*
X144450000Y-107050000D02*
X144450000Y-106450000D01*
X145600000Y-108200000D02*
X144450000Y-107050000D01*
X153600000Y-90000000D02*
X153200000Y-90000000D01*
X158987701Y-94816208D02*
X158987701Y-94212299D01*
X153200000Y-90000000D02*
X149310000Y-86110000D01*
X149310000Y-86110000D02*
X149225000Y-86110000D01*
X156450000Y-93150000D02*
X156800000Y-92800000D01*
X156450000Y-93550000D02*
X156450000Y-93150000D01*
X159311423Y-95139930D02*
X158987701Y-94816208D01*
X143102828Y-105550000D02*
X142893039Y-105759789D01*
X145600000Y-94900000D02*
X145150000Y-94450000D01*
X143550000Y-105550000D02*
X143102828Y-105550000D01*
X145150000Y-94450000D02*
X144450000Y-94450000D01*
G04 #@! TA.AperFunction,Conductor*
G36*
X143825709Y-80539920D02*
G01*
X143838659Y-80547774D01*
X158960823Y-91011772D01*
X158999597Y-91038602D01*
X159044233Y-91093812D01*
X159051934Y-91164390D01*
X159020256Y-91227927D01*
X158959237Y-91264256D01*
X158905919Y-91277946D01*
X158905913Y-91277948D01*
X158898238Y-91279919D01*
X158848332Y-91307355D01*
X158765395Y-91352950D01*
X158765391Y-91352953D01*
X158759748Y-91356055D01*
X158732698Y-91379158D01*
X158325175Y-91786682D01*
X158302071Y-91813732D01*
X158298969Y-91819375D01*
X158298968Y-91819376D01*
X158291744Y-91832517D01*
X158225935Y-91952222D01*
X158223965Y-91959894D01*
X158223964Y-91959897D01*
X158188604Y-92097617D01*
X158186633Y-92105295D01*
X158186633Y-92113222D01*
X158185919Y-92118875D01*
X158157537Y-92183952D01*
X158098478Y-92223354D01*
X158061021Y-92229084D01*
X157955529Y-92229176D01*
X157941094Y-92230871D01*
X157789029Y-92266959D01*
X157775364Y-92271932D01*
X157635291Y-92342229D01*
X157618030Y-92353395D01*
X157616588Y-92351166D01*
X157562211Y-92374003D01*
X157492281Y-92361739D01*
X157441276Y-92315564D01*
X157435049Y-92305599D01*
X157431316Y-92299625D01*
X157341201Y-92208879D01*
X157307394Y-92146449D01*
X157312706Y-92075651D01*
X157315036Y-92070400D01*
X157316483Y-92068222D01*
X157321620Y-92054698D01*
X157377757Y-91906919D01*
X157377758Y-91906914D01*
X157380257Y-91900336D01*
X157385874Y-91860371D01*
X157404700Y-91726416D01*
X157404700Y-91726411D01*
X157405251Y-91722493D01*
X157405565Y-91700000D01*
X157385546Y-91521528D01*
X157370344Y-91477872D01*
X157345635Y-91406919D01*
X157326485Y-91351927D01*
X157320157Y-91341799D01*
X157235049Y-91205599D01*
X157231316Y-91199625D01*
X157126239Y-91093812D01*
X157109733Y-91077190D01*
X157109729Y-91077187D01*
X157104770Y-91072193D01*
X157093761Y-91065206D01*
X156968651Y-90985809D01*
X156953653Y-90974649D01*
X156927135Y-90951671D01*
X156919452Y-90950000D01*
X156901986Y-90950000D01*
X156859720Y-90942699D01*
X156800672Y-90921673D01*
X156790585Y-90918081D01*
X156790583Y-90918081D01*
X156783951Y-90915719D01*
X156776965Y-90914886D01*
X156776961Y-90914885D01*
X156649177Y-90899648D01*
X156605624Y-90894455D01*
X156598621Y-90895191D01*
X156598620Y-90895191D01*
X156434025Y-90912490D01*
X156434021Y-90912491D01*
X156427017Y-90913227D01*
X156338741Y-90943278D01*
X156298138Y-90950000D01*
X156026000Y-90950000D01*
X155957879Y-90929998D01*
X155911386Y-90876342D01*
X155900000Y-90824000D01*
X155900000Y-90531885D01*
X156300000Y-90531885D01*
X156304475Y-90547124D01*
X156305865Y-90548329D01*
X156313548Y-90550000D01*
X156914884Y-90550000D01*
X156930123Y-90545525D01*
X156931328Y-90544135D01*
X156932999Y-90536452D01*
X156932999Y-90505331D01*
X156932629Y-90498510D01*
X156927105Y-90447648D01*
X156923479Y-90432396D01*
X156878324Y-90311946D01*
X156869786Y-90296351D01*
X156793285Y-90194276D01*
X156780724Y-90181715D01*
X156678649Y-90105214D01*
X156663054Y-90096676D01*
X156542606Y-90051522D01*
X156527351Y-90047895D01*
X156476486Y-90042369D01*
X156469672Y-90042000D01*
X156318115Y-90042000D01*
X156302876Y-90046475D01*
X156301671Y-90047865D01*
X156300000Y-90055548D01*
X156300000Y-90531885D01*
X155900000Y-90531885D01*
X155900000Y-90060116D01*
X155895525Y-90044877D01*
X155894135Y-90043672D01*
X155886452Y-90042001D01*
X155730331Y-90042001D01*
X155723510Y-90042371D01*
X155672648Y-90047895D01*
X155657396Y-90051521D01*
X155536939Y-90096679D01*
X155523166Y-90104219D01*
X155453809Y-90119388D01*
X155387261Y-90094651D01*
X155345960Y-90040087D01*
X155344721Y-90034804D01*
X155324830Y-89998622D01*
X155319623Y-89987992D01*
X155303231Y-89950114D01*
X155294519Y-89939355D01*
X155282031Y-89920771D01*
X155275358Y-89908634D01*
X155268675Y-89900892D01*
X155245471Y-89877688D01*
X155236645Y-89867887D01*
X155218029Y-89844898D01*
X155212623Y-89838222D01*
X155198367Y-89828091D01*
X155182267Y-89814484D01*
X152994120Y-87626337D01*
X152990467Y-87622528D01*
X152956249Y-87585316D01*
X152950431Y-87578989D01*
X152915359Y-87557243D01*
X152905576Y-87550519D01*
X152881245Y-87532050D01*
X152850573Y-87498461D01*
X152847348Y-87493300D01*
X152843615Y-87487326D01*
X152763306Y-87406455D01*
X152722032Y-87364891D01*
X152722028Y-87364888D01*
X152717069Y-87359894D01*
X152706060Y-87352907D01*
X152659159Y-87323143D01*
X152565435Y-87263664D01*
X152498097Y-87239686D01*
X152402885Y-87205782D01*
X152402880Y-87205781D01*
X152396250Y-87203420D01*
X152389264Y-87202587D01*
X152389260Y-87202586D01*
X152261476Y-87187349D01*
X152217923Y-87182156D01*
X152210920Y-87182892D01*
X152210919Y-87182892D01*
X152046324Y-87200191D01*
X152046320Y-87200192D01*
X152039316Y-87200928D01*
X152032645Y-87203199D01*
X151875976Y-87256533D01*
X151875973Y-87256534D01*
X151869306Y-87258804D01*
X151863308Y-87262494D01*
X151863306Y-87262495D01*
X151808773Y-87296044D01*
X151716344Y-87352907D01*
X151711313Y-87357833D01*
X151711310Y-87357836D01*
X151593094Y-87473602D01*
X151530429Y-87506972D01*
X151459671Y-87501166D01*
X151415842Y-87472673D01*
X149691805Y-85748636D01*
X149688152Y-85744827D01*
X149653934Y-85707615D01*
X149648116Y-85701288D01*
X149613044Y-85679542D01*
X149603262Y-85672819D01*
X149577240Y-85653067D01*
X149570396Y-85647872D01*
X149562409Y-85644710D01*
X149562406Y-85644708D01*
X149557517Y-85642772D01*
X149537516Y-85632713D01*
X149525750Y-85625418D01*
X149517502Y-85623022D01*
X149517496Y-85623019D01*
X149486113Y-85613901D01*
X149474888Y-85610058D01*
X149455607Y-85602424D01*
X149425286Y-85585236D01*
X149390553Y-85558584D01*
X149327841Y-85510464D01*
X149181762Y-85449956D01*
X149173574Y-85448878D01*
X149068448Y-85435038D01*
X149068447Y-85435038D01*
X149064361Y-85434500D01*
X148825030Y-85434500D01*
X148585640Y-85434501D01*
X148581556Y-85435039D01*
X148581550Y-85435039D01*
X148476425Y-85448878D01*
X148476423Y-85448878D01*
X148468238Y-85449956D01*
X148322159Y-85510464D01*
X148196718Y-85606718D01*
X148191695Y-85613264D01*
X148161153Y-85653067D01*
X148100464Y-85732159D01*
X148097799Y-85730114D01*
X148057750Y-85768309D01*
X147988038Y-85781754D01*
X147922124Y-85755375D01*
X147901020Y-85731020D01*
X147899536Y-85732159D01*
X147808305Y-85613264D01*
X147803282Y-85606718D01*
X147677841Y-85510464D01*
X147531762Y-85449956D01*
X147523574Y-85448878D01*
X147418448Y-85435038D01*
X147418447Y-85435038D01*
X147414361Y-85434500D01*
X147175030Y-85434500D01*
X146935640Y-85434501D01*
X146931556Y-85435039D01*
X146931550Y-85435039D01*
X146826425Y-85448878D01*
X146826423Y-85448878D01*
X146818238Y-85449956D01*
X146672159Y-85510464D01*
X146546718Y-85606718D01*
X146450464Y-85732159D01*
X146389956Y-85878238D01*
X146374500Y-85995639D01*
X146374501Y-86624360D01*
X146375039Y-86628444D01*
X146375039Y-86628450D01*
X146385220Y-86705786D01*
X146389956Y-86741762D01*
X146450464Y-86887841D01*
X146455492Y-86894394D01*
X146455494Y-86894397D01*
X146500624Y-86953212D01*
X146526225Y-87019432D01*
X146511960Y-87088981D01*
X146506574Y-87098171D01*
X146478446Y-87141817D01*
X146417022Y-87310578D01*
X146394514Y-87488753D01*
X146412039Y-87667486D01*
X146468726Y-87837896D01*
X146561759Y-87991512D01*
X146686514Y-88120699D01*
X146836789Y-88219036D01*
X147005116Y-88281636D01*
X147012097Y-88282567D01*
X147012099Y-88282568D01*
X147176149Y-88304457D01*
X147176153Y-88304457D01*
X147183130Y-88305388D01*
X147190141Y-88304750D01*
X147190143Y-88304750D01*
X147193360Y-88304457D01*
X147196841Y-88304140D01*
X147266494Y-88317885D01*
X147297356Y-88340526D01*
X147518206Y-88561376D01*
X147521859Y-88565185D01*
X147561884Y-88608712D01*
X147589673Y-88625942D01*
X147596953Y-88630456D01*
X147606732Y-88637177D01*
X147639604Y-88662127D01*
X147652474Y-88667222D01*
X147672482Y-88677286D01*
X147684250Y-88684582D01*
X147692493Y-88686977D01*
X147692500Y-88686980D01*
X147723893Y-88696101D01*
X147735120Y-88699945D01*
X147765487Y-88711968D01*
X147765489Y-88711969D01*
X147773472Y-88715129D01*
X147782009Y-88716026D01*
X147782016Y-88716028D01*
X147787239Y-88716577D01*
X147809216Y-88720888D01*
X147816178Y-88722911D01*
X147816180Y-88722911D01*
X147822512Y-88724751D01*
X147829327Y-88725251D01*
X147830404Y-88725331D01*
X147830417Y-88725331D01*
X147832712Y-88725500D01*
X147865538Y-88725500D01*
X147878709Y-88726190D01*
X147916661Y-88730179D01*
X147925127Y-88728747D01*
X147925130Y-88728747D01*
X147933897Y-88727264D01*
X147954909Y-88725500D01*
X148736646Y-88725500D01*
X148804767Y-88745502D01*
X148851260Y-88799158D01*
X148861364Y-88869432D01*
X148831870Y-88934012D01*
X148811505Y-88952851D01*
X148730016Y-89013040D01*
X148533171Y-89206817D01*
X148365594Y-89426396D01*
X148363416Y-89430285D01*
X148279141Y-89580769D01*
X148230627Y-89667396D01*
X148229023Y-89671541D01*
X148229022Y-89671544D01*
X148173798Y-89814290D01*
X148130964Y-89925009D01*
X148129961Y-89929334D01*
X148129960Y-89929339D01*
X148110516Y-90013227D01*
X148068593Y-90194095D01*
X148044759Y-90469285D01*
X148045003Y-90473720D01*
X148045003Y-90473724D01*
X148058955Y-90727222D01*
X148059938Y-90745087D01*
X148113825Y-91015999D01*
X148205347Y-91276616D01*
X148332678Y-91521737D01*
X148335261Y-91525352D01*
X148335265Y-91525358D01*
X148490687Y-91742850D01*
X148493275Y-91746471D01*
X148565839Y-91822538D01*
X148671802Y-91933615D01*
X148683936Y-91946335D01*
X148687431Y-91949091D01*
X148687433Y-91949092D01*
X148885576Y-92105295D01*
X148900856Y-92117341D01*
X148999636Y-92174717D01*
X149135853Y-92253839D01*
X149135859Y-92253842D01*
X149139707Y-92256077D01*
X149313366Y-92326416D01*
X149374471Y-92351166D01*
X149395723Y-92359774D01*
X149400036Y-92360845D01*
X149400041Y-92360847D01*
X149659475Y-92425291D01*
X149659480Y-92425292D01*
X149663796Y-92426364D01*
X149668224Y-92426818D01*
X149668226Y-92426818D01*
X149743339Y-92434514D01*
X149899370Y-92450500D01*
X150070362Y-92450500D01*
X150275530Y-92435973D01*
X150279885Y-92435035D01*
X150279888Y-92435035D01*
X150541215Y-92378773D01*
X150541217Y-92378773D01*
X150545562Y-92377837D01*
X150804709Y-92282233D01*
X150888668Y-92236931D01*
X150958117Y-92222187D01*
X151024512Y-92247329D01*
X151066774Y-92304377D01*
X151074500Y-92347819D01*
X151074500Y-97105516D01*
X151054498Y-97173637D01*
X151037595Y-97194611D01*
X150938636Y-97293570D01*
X150934827Y-97297223D01*
X150891288Y-97337259D01*
X150886760Y-97344562D01*
X150886759Y-97344563D01*
X150869543Y-97372330D01*
X150862820Y-97382112D01*
X150837872Y-97414979D01*
X150834710Y-97422966D01*
X150834708Y-97422969D01*
X150832772Y-97427858D01*
X150822713Y-97447859D01*
X150815418Y-97459625D01*
X150803905Y-97499252D01*
X150800060Y-97510480D01*
X150788033Y-97540859D01*
X150788032Y-97540862D01*
X150784871Y-97548847D01*
X150783974Y-97557384D01*
X150783972Y-97557391D01*
X150783423Y-97562614D01*
X150779112Y-97584590D01*
X150775249Y-97597887D01*
X150774500Y-97608087D01*
X150774500Y-97640914D01*
X150773810Y-97654085D01*
X150769821Y-97692037D01*
X150771253Y-97700503D01*
X150771253Y-97700506D01*
X150772736Y-97709273D01*
X150774500Y-97730285D01*
X150774500Y-102185565D01*
X150774389Y-102190841D01*
X150771913Y-102249919D01*
X150781337Y-102290097D01*
X150783500Y-102301771D01*
X150784755Y-102310930D01*
X150789099Y-102342646D01*
X150792510Y-102350527D01*
X150792510Y-102350529D01*
X150794595Y-102355347D01*
X150801627Y-102376610D01*
X150802510Y-102380374D01*
X150804790Y-102390093D01*
X150824681Y-102426275D01*
X150829888Y-102436905D01*
X150846280Y-102474783D01*
X150851686Y-102481459D01*
X150851687Y-102481461D01*
X150854992Y-102485542D01*
X150867480Y-102504126D01*
X150874153Y-102516263D01*
X150880836Y-102524005D01*
X150904040Y-102547209D01*
X150912865Y-102557009D01*
X150936888Y-102586675D01*
X150951144Y-102596806D01*
X150967244Y-102610413D01*
X151522695Y-103165864D01*
X151526348Y-103169673D01*
X151566384Y-103213212D01*
X151573684Y-103217738D01*
X151573685Y-103217739D01*
X151601460Y-103234960D01*
X151611230Y-103241674D01*
X151644104Y-103266627D01*
X151656974Y-103271722D01*
X151676982Y-103281786D01*
X151688750Y-103289082D01*
X151696993Y-103291477D01*
X151697000Y-103291480D01*
X151728393Y-103300601D01*
X151739620Y-103304445D01*
X151769987Y-103316468D01*
X151769989Y-103316469D01*
X151777972Y-103319629D01*
X151786509Y-103320526D01*
X151786516Y-103320528D01*
X151791739Y-103321077D01*
X151813716Y-103325388D01*
X151820678Y-103327411D01*
X151820680Y-103327411D01*
X151827012Y-103329251D01*
X151833827Y-103329751D01*
X151834904Y-103329831D01*
X151834917Y-103329831D01*
X151837212Y-103330000D01*
X151870038Y-103330000D01*
X151883209Y-103330690D01*
X151921161Y-103334679D01*
X151929629Y-103333247D01*
X151938217Y-103332977D01*
X151938286Y-103335168D01*
X151997024Y-103342133D01*
X152038172Y-103370481D01*
X152086115Y-103420127D01*
X152086120Y-103420131D01*
X152091014Y-103425199D01*
X152241289Y-103523536D01*
X152409616Y-103586136D01*
X152416597Y-103587067D01*
X152416599Y-103587068D01*
X152580649Y-103608957D01*
X152580653Y-103608957D01*
X152587630Y-103609888D01*
X152594642Y-103609250D01*
X152594646Y-103609250D01*
X152759460Y-103594251D01*
X152759461Y-103594251D01*
X152766481Y-103593612D01*
X152879999Y-103556727D01*
X152930582Y-103540292D01*
X152937282Y-103538115D01*
X152969660Y-103518814D01*
X153085492Y-103449765D01*
X153085494Y-103449764D01*
X153091544Y-103446157D01*
X153221599Y-103322307D01*
X153233467Y-103304445D01*
X153284954Y-103226950D01*
X153320983Y-103172722D01*
X153348290Y-103100836D01*
X153382257Y-103011419D01*
X153382258Y-103011414D01*
X153384757Y-103004836D01*
X153394279Y-102937084D01*
X153409200Y-102830916D01*
X153409200Y-102830911D01*
X153409751Y-102826993D01*
X153410065Y-102804500D01*
X153399220Y-102707816D01*
X153411504Y-102637890D01*
X153459643Y-102585706D01*
X153478048Y-102576621D01*
X153572783Y-102539113D01*
X153692922Y-102447922D01*
X153784113Y-102327783D01*
X153839636Y-102187547D01*
X153850500Y-102097772D01*
X153850500Y-101784386D01*
X153870502Y-101716265D01*
X153924158Y-101669772D01*
X153937557Y-101664556D01*
X153989101Y-101647808D01*
X154060068Y-101645781D01*
X154076251Y-101651231D01*
X154218238Y-101710044D01*
X154226426Y-101711122D01*
X154265492Y-101716265D01*
X154335639Y-101725500D01*
X154363836Y-101725500D01*
X154748500Y-101725499D01*
X154816620Y-101745501D01*
X154863114Y-101799156D01*
X154874500Y-101851499D01*
X154874500Y-103210179D01*
X154874389Y-103215455D01*
X154871913Y-103274533D01*
X154878929Y-103304445D01*
X154881337Y-103314711D01*
X154883500Y-103326384D01*
X154883893Y-103329251D01*
X154887817Y-103357899D01*
X154889099Y-103367260D01*
X154892510Y-103375141D01*
X154892510Y-103375143D01*
X154894595Y-103379961D01*
X154901627Y-103401224D01*
X154902828Y-103406343D01*
X154904790Y-103414707D01*
X154924681Y-103450889D01*
X154929888Y-103461519D01*
X154946280Y-103499397D01*
X154951686Y-103506073D01*
X154951687Y-103506075D01*
X154954992Y-103510156D01*
X154967480Y-103528740D01*
X154974153Y-103540877D01*
X154980836Y-103548619D01*
X155004040Y-103571823D01*
X155012865Y-103581623D01*
X155036888Y-103611289D01*
X155051144Y-103621420D01*
X155067244Y-103635027D01*
X155718092Y-104285875D01*
X155721745Y-104289684D01*
X155761781Y-104333223D01*
X155796865Y-104354976D01*
X155806633Y-104361690D01*
X155839502Y-104386639D01*
X155847483Y-104389799D01*
X155847485Y-104389800D01*
X155852371Y-104391734D01*
X155872387Y-104401802D01*
X155884147Y-104409093D01*
X155892391Y-104411488D01*
X155892393Y-104411489D01*
X155923771Y-104420605D01*
X155935000Y-104424450D01*
X155965383Y-104436479D01*
X155965385Y-104436479D01*
X155973370Y-104439641D01*
X155986995Y-104441073D01*
X155987139Y-104441088D01*
X156009119Y-104445401D01*
X156022409Y-104449262D01*
X156028990Y-104449745D01*
X156028994Y-104449746D01*
X156030301Y-104449842D01*
X156030314Y-104449842D01*
X156032609Y-104450011D01*
X156065426Y-104450011D01*
X156078597Y-104450701D01*
X156116559Y-104454691D01*
X156125031Y-104453258D01*
X156125032Y-104453258D01*
X156133793Y-104451776D01*
X156154806Y-104450011D01*
X156854652Y-104450011D01*
X156922773Y-104470013D01*
X156943747Y-104486916D01*
X157066985Y-104610154D01*
X157070638Y-104613963D01*
X157110674Y-104657502D01*
X157145758Y-104679255D01*
X157155526Y-104685969D01*
X157188395Y-104710918D01*
X157196376Y-104714078D01*
X157196378Y-104714079D01*
X157201264Y-104716013D01*
X157221280Y-104726081D01*
X157233040Y-104733372D01*
X157241284Y-104735767D01*
X157241286Y-104735768D01*
X157272664Y-104744884D01*
X157283891Y-104748728D01*
X157303709Y-104756574D01*
X157359684Y-104800247D01*
X157363987Y-104812526D01*
X157382202Y-104793759D01*
X157448373Y-104780000D01*
X157448321Y-104778342D01*
X157456908Y-104778072D01*
X157465452Y-104778970D01*
X157473924Y-104777537D01*
X157473925Y-104777537D01*
X157482686Y-104776055D01*
X157503699Y-104774290D01*
X157559739Y-104774290D01*
X157627860Y-104794292D01*
X157659028Y-104822717D01*
X157708989Y-104886664D01*
X157735167Y-104952658D01*
X157721510Y-105022329D01*
X157672354Y-105073555D01*
X157603305Y-105090075D01*
X157556265Y-105077949D01*
X157553136Y-105075963D01*
X157401962Y-105022133D01*
X157344499Y-104980439D01*
X157338027Y-104963847D01*
X157315493Y-104985498D01*
X157242410Y-104998841D01*
X157212618Y-104995289D01*
X157205624Y-104994455D01*
X157198621Y-104995191D01*
X157198620Y-104995191D01*
X157043895Y-105011453D01*
X156974057Y-104998681D01*
X156953879Y-104984094D01*
X156953374Y-104984789D01*
X156945354Y-104978962D01*
X156938342Y-104971950D01*
X156825304Y-104914354D01*
X156815515Y-104912804D01*
X156815513Y-104912803D01*
X156788151Y-104908470D01*
X156731519Y-104899500D01*
X156726566Y-104899500D01*
X156449887Y-104899501D01*
X156168482Y-104899501D01*
X156165406Y-104899988D01*
X156096426Y-104885495D01*
X156080460Y-104875308D01*
X156053648Y-104855213D01*
X156038054Y-104846676D01*
X155917606Y-104801522D01*
X155902351Y-104797895D01*
X155851486Y-104792369D01*
X155844672Y-104792000D01*
X155818115Y-104792000D01*
X155802876Y-104796475D01*
X155801671Y-104797865D01*
X155800000Y-104805548D01*
X155800000Y-105262127D01*
X155799833Y-105266378D01*
X155799500Y-105268481D01*
X155799501Y-105529958D01*
X155799501Y-105673500D01*
X155779499Y-105741620D01*
X155725844Y-105788114D01*
X155673501Y-105799500D01*
X155288574Y-105799501D01*
X155268482Y-105799501D01*
X155266382Y-105799834D01*
X155262141Y-105800000D01*
X154810116Y-105800000D01*
X154794877Y-105804475D01*
X154793672Y-105805865D01*
X154792001Y-105813548D01*
X154792001Y-105844669D01*
X154792371Y-105851490D01*
X154797895Y-105902352D01*
X154801521Y-105917604D01*
X154846676Y-106038054D01*
X154855214Y-106053648D01*
X154875307Y-106080459D01*
X154900154Y-106146966D01*
X154900096Y-106164719D01*
X154899500Y-106168481D01*
X154899500Y-106232387D01*
X154879498Y-106300508D01*
X154825842Y-106347001D01*
X154814105Y-106351665D01*
X154763676Y-106368832D01*
X154763671Y-106368834D01*
X154757007Y-106371103D01*
X154604045Y-106465206D01*
X154599014Y-106470132D01*
X154599011Y-106470135D01*
X154536883Y-106530976D01*
X154475732Y-106590859D01*
X154471913Y-106596784D01*
X154471912Y-106596786D01*
X154388275Y-106726566D01*
X154378446Y-106741817D01*
X154376037Y-106748437D01*
X154376035Y-106748440D01*
X154351625Y-106815506D01*
X154317022Y-106910578D01*
X154294514Y-107088753D01*
X154295201Y-107095760D01*
X154295201Y-107095763D01*
X154297290Y-107117069D01*
X154312039Y-107267486D01*
X154314262Y-107274168D01*
X154314262Y-107274169D01*
X154362135Y-107418081D01*
X154368726Y-107437896D01*
X154372373Y-107443918D01*
X154451583Y-107574709D01*
X154461759Y-107591512D01*
X154466648Y-107596575D01*
X154466649Y-107596576D01*
X154508802Y-107640226D01*
X154586514Y-107720699D01*
X154736789Y-107819036D01*
X154905116Y-107881636D01*
X154912097Y-107882567D01*
X154912099Y-107882568D01*
X155076149Y-107904457D01*
X155076153Y-107904457D01*
X155083130Y-107905388D01*
X155090142Y-107904750D01*
X155090146Y-107904750D01*
X155254960Y-107889751D01*
X155254961Y-107889751D01*
X155261981Y-107889112D01*
X155432782Y-107833615D01*
X155527861Y-107776937D01*
X155580992Y-107745265D01*
X155580994Y-107745264D01*
X155587044Y-107741657D01*
X155717099Y-107617807D01*
X155734570Y-107591512D01*
X155775432Y-107530008D01*
X155816483Y-107468222D01*
X155836427Y-107415719D01*
X155877757Y-107306919D01*
X155877758Y-107306914D01*
X155880257Y-107300336D01*
X155885183Y-107265289D01*
X155896924Y-107181743D01*
X155926212Y-107117069D01*
X155985816Y-107078496D01*
X156060635Y-107079446D01*
X156065860Y-107081144D01*
X156074696Y-107085646D01*
X156168481Y-107100500D01*
X156305141Y-107100500D01*
X156373262Y-107120502D01*
X156394236Y-107137405D01*
X156418195Y-107161364D01*
X156421848Y-107165173D01*
X156461884Y-107208712D01*
X156496968Y-107230465D01*
X156506736Y-107237179D01*
X156539605Y-107262128D01*
X156547586Y-107265288D01*
X156547588Y-107265289D01*
X156552474Y-107267223D01*
X156572490Y-107277291D01*
X156584250Y-107284582D01*
X156592494Y-107286977D01*
X156592496Y-107286978D01*
X156623874Y-107296094D01*
X156635103Y-107299939D01*
X156665486Y-107311968D01*
X156665488Y-107311968D01*
X156673473Y-107315130D01*
X156687098Y-107316562D01*
X156687242Y-107316577D01*
X156709222Y-107320890D01*
X156722512Y-107324751D01*
X156729093Y-107325234D01*
X156729097Y-107325235D01*
X156730404Y-107325331D01*
X156730417Y-107325331D01*
X156732712Y-107325500D01*
X156765529Y-107325500D01*
X156778700Y-107326190D01*
X156816662Y-107330180D01*
X156825134Y-107328747D01*
X156825135Y-107328747D01*
X156833896Y-107327265D01*
X156854909Y-107325500D01*
X156941097Y-107325500D01*
X157009218Y-107345502D01*
X157031734Y-107363973D01*
X157053697Y-107386716D01*
X157086514Y-107420699D01*
X157236789Y-107519036D01*
X157405116Y-107581636D01*
X157412097Y-107582567D01*
X157412099Y-107582568D01*
X157576149Y-107604457D01*
X157576153Y-107604457D01*
X157583130Y-107605388D01*
X157590142Y-107604750D01*
X157590146Y-107604750D01*
X157754960Y-107589751D01*
X157754961Y-107589751D01*
X157761981Y-107589112D01*
X157932782Y-107533615D01*
X157963714Y-107515176D01*
X158080992Y-107445265D01*
X158080994Y-107445264D01*
X158087044Y-107441657D01*
X158217099Y-107317807D01*
X158228971Y-107299939D01*
X158286574Y-107213239D01*
X158316483Y-107168222D01*
X158346589Y-107088968D01*
X158377757Y-107006919D01*
X158377758Y-107006914D01*
X158380257Y-107000336D01*
X158385999Y-106959480D01*
X158415287Y-106894806D01*
X158421678Y-106887921D01*
X158535891Y-106773708D01*
X158598203Y-106739682D01*
X158608755Y-106737853D01*
X158724828Y-106722777D01*
X158802337Y-106691776D01*
X158865587Y-106666478D01*
X158865590Y-106666476D01*
X158871564Y-106664087D01*
X158901228Y-106644452D01*
X159355378Y-106289630D01*
X159381607Y-106265597D01*
X159474053Y-106137419D01*
X159531717Y-105990276D01*
X159532683Y-105982407D01*
X159534081Y-105976883D01*
X159570182Y-105915751D01*
X159633604Y-105883840D01*
X159671477Y-105882718D01*
X159776192Y-105895482D01*
X159790730Y-105895559D01*
X159946059Y-105878273D01*
X159960227Y-105875002D01*
X160107823Y-105822301D01*
X160120127Y-105816327D01*
X160197497Y-105767699D01*
X160201619Y-105764804D01*
X160210728Y-105752099D01*
X160210821Y-105750261D01*
X160207409Y-105743180D01*
X159761305Y-105172193D01*
X159531748Y-104878374D01*
X159528519Y-104870233D01*
X160172169Y-104870233D01*
X160175581Y-104877314D01*
X160604904Y-105426822D01*
X160617814Y-105436078D01*
X160619652Y-105436171D01*
X160626733Y-105432759D01*
X160629005Y-105430984D01*
X160633942Y-105426698D01*
X160700632Y-105362466D01*
X160709411Y-105351934D01*
X160796015Y-105221339D01*
X160802599Y-105208361D01*
X160856688Y-105061744D01*
X160860109Y-105047604D01*
X160879020Y-104892470D01*
X160879097Y-104877932D01*
X160861811Y-104722604D01*
X160858539Y-104708434D01*
X160805838Y-104560839D01*
X160799864Y-104548535D01*
X160751234Y-104471163D01*
X160747545Y-104465909D01*
X160733153Y-104447487D01*
X160720247Y-104438235D01*
X160718408Y-104438142D01*
X160711324Y-104441555D01*
X160181518Y-104855484D01*
X160172262Y-104868395D01*
X160172169Y-104870233D01*
X159528519Y-104870233D01*
X159505570Y-104812380D01*
X159519228Y-104742709D01*
X159553464Y-104701512D01*
X160394968Y-104044058D01*
X160404224Y-104031147D01*
X160404317Y-104029311D01*
X160400903Y-104022226D01*
X160383731Y-104000248D01*
X160379460Y-103995328D01*
X160315221Y-103928630D01*
X160304689Y-103919851D01*
X160174088Y-103833243D01*
X160161120Y-103826664D01*
X160014494Y-103772571D01*
X160000363Y-103769152D01*
X159974895Y-103766048D01*
X159909695Y-103737951D01*
X159870036Y-103679063D01*
X159864166Y-103643502D01*
X159861435Y-103507432D01*
X159858564Y-103489901D01*
X159819989Y-103367182D01*
X159813455Y-103352929D01*
X159786489Y-103309437D01*
X159782595Y-103303855D01*
X159689280Y-103184418D01*
X159676374Y-103175165D01*
X159674534Y-103175072D01*
X159667453Y-103178484D01*
X159292096Y-103471745D01*
X159282840Y-103484655D01*
X159282747Y-103486493D01*
X159286159Y-103493574D01*
X159614586Y-103913941D01*
X159640764Y-103979935D01*
X159627106Y-104049606D01*
X159592870Y-104090803D01*
X159534557Y-104136362D01*
X159476243Y-104181922D01*
X159410249Y-104208100D01*
X159340578Y-104194442D01*
X159299381Y-104160206D01*
X158962615Y-103729164D01*
X158337792Y-102929427D01*
X158324881Y-102920171D01*
X158293306Y-102918567D01*
X158226288Y-102895133D01*
X158192847Y-102859500D01*
X158177557Y-102835031D01*
X158165642Y-102823032D01*
X158145153Y-102802400D01*
X158111346Y-102739969D01*
X158116410Y-102672480D01*
X158646771Y-102672480D01*
X158650182Y-102679560D01*
X159020401Y-103153419D01*
X159033311Y-103162675D01*
X159035149Y-103162768D01*
X159042230Y-103159356D01*
X159417587Y-102866095D01*
X159426843Y-102853184D01*
X159426936Y-102851347D01*
X159423523Y-102844265D01*
X159327397Y-102721228D01*
X159322927Y-102716105D01*
X159287245Y-102679410D01*
X159275001Y-102669627D01*
X159165258Y-102602510D01*
X159148935Y-102595480D01*
X159025808Y-102562142D01*
X159008169Y-102559976D01*
X158880631Y-102562537D01*
X158863096Y-102565408D01*
X158740375Y-102603984D01*
X158726126Y-102610515D01*
X158682639Y-102637478D01*
X158677045Y-102641381D01*
X158656118Y-102657731D01*
X158646864Y-102670640D01*
X158646771Y-102672480D01*
X158116410Y-102672480D01*
X158116658Y-102669172D01*
X158156985Y-102614327D01*
X158391036Y-102431465D01*
X158456429Y-102380374D01*
X158521189Y-102310930D01*
X158574805Y-102195950D01*
X158585035Y-102112631D01*
X158589058Y-102079870D01*
X158589058Y-102079869D01*
X158590266Y-102070030D01*
X158566059Y-101945495D01*
X158561253Y-101936825D01*
X158561252Y-101936822D01*
X158522423Y-101866773D01*
X158522420Y-101866768D01*
X158520024Y-101862446D01*
X158381000Y-101684504D01*
X158354822Y-101618509D01*
X158354400Y-101601654D01*
X158355056Y-101585996D01*
X158355416Y-101577410D01*
X158345994Y-101537237D01*
X158343831Y-101525568D01*
X158339395Y-101493190D01*
X158338230Y-101484683D01*
X158332732Y-101471978D01*
X158325698Y-101450709D01*
X158324500Y-101445600D01*
X158324499Y-101445598D01*
X158322538Y-101437236D01*
X158318400Y-101429710D01*
X158318399Y-101429706D01*
X158302659Y-101401076D01*
X158297443Y-101390431D01*
X158281049Y-101352546D01*
X158272338Y-101341789D01*
X158259844Y-101323196D01*
X158256358Y-101316854D01*
X158256357Y-101316853D01*
X158253176Y-101311066D01*
X158246493Y-101303324D01*
X158242342Y-101299173D01*
X158208316Y-101236861D01*
X158205449Y-101208321D01*
X158205510Y-101203964D01*
X158205510Y-101203959D01*
X158205565Y-101200000D01*
X158185546Y-101021528D01*
X158171099Y-100980040D01*
X158128803Y-100858584D01*
X158126485Y-100851927D01*
X158116997Y-100836742D01*
X158035049Y-100705599D01*
X158031316Y-100699625D01*
X157951249Y-100618997D01*
X157909733Y-100577190D01*
X157909729Y-100577187D01*
X157904770Y-100572193D01*
X157893761Y-100565206D01*
X157822831Y-100520193D01*
X157753136Y-100475963D01*
X157723352Y-100465357D01*
X157590586Y-100418081D01*
X157590581Y-100418080D01*
X157583951Y-100415719D01*
X157576965Y-100414886D01*
X157576961Y-100414885D01*
X157449177Y-100399648D01*
X157405624Y-100394455D01*
X157398621Y-100395191D01*
X157398620Y-100395191D01*
X157227017Y-100413227D01*
X157226814Y-100411295D01*
X157165605Y-100407055D01*
X157108674Y-100364636D01*
X157089138Y-100326581D01*
X157077284Y-100288755D01*
X157071079Y-100275012D01*
X156990176Y-100141426D01*
X156976186Y-100123585D01*
X156978272Y-100121950D01*
X156950272Y-100070674D01*
X156955337Y-99999859D01*
X156972480Y-99969285D01*
X160544759Y-99969285D01*
X160545003Y-99973720D01*
X160545003Y-99973724D01*
X160559600Y-100238943D01*
X160559938Y-100245087D01*
X160589172Y-100392057D01*
X160612077Y-100507209D01*
X160613825Y-100515999D01*
X160705347Y-100776616D01*
X160832678Y-101021737D01*
X160835261Y-101025352D01*
X160835265Y-101025358D01*
X160990687Y-101242850D01*
X160993275Y-101246471D01*
X161037836Y-101293183D01*
X161168073Y-101429706D01*
X161183936Y-101446335D01*
X161187431Y-101449091D01*
X161187433Y-101449092D01*
X161377530Y-101598952D01*
X161400856Y-101617341D01*
X161496101Y-101672664D01*
X161635853Y-101753839D01*
X161635859Y-101753842D01*
X161639707Y-101756077D01*
X161790902Y-101817317D01*
X161887087Y-101856276D01*
X161895723Y-101859774D01*
X161900036Y-101860845D01*
X161900041Y-101860847D01*
X162159475Y-101925291D01*
X162159480Y-101925292D01*
X162163796Y-101926364D01*
X162168224Y-101926818D01*
X162168226Y-101926818D01*
X162243339Y-101934514D01*
X162399370Y-101950500D01*
X162570362Y-101950500D01*
X162775530Y-101935973D01*
X162779885Y-101935035D01*
X162779888Y-101935035D01*
X163041215Y-101878773D01*
X163041217Y-101878773D01*
X163045562Y-101877837D01*
X163304709Y-101782233D01*
X163353185Y-101756077D01*
X163543884Y-101653181D01*
X163547800Y-101651068D01*
X163769984Y-101486960D01*
X163785204Y-101471978D01*
X163953743Y-101306065D01*
X163966829Y-101293183D01*
X164134406Y-101073604D01*
X164158634Y-101030342D01*
X164267197Y-100836490D01*
X164267198Y-100836487D01*
X164269373Y-100832604D01*
X164275979Y-100815530D01*
X164340165Y-100649617D01*
X164369036Y-100574991D01*
X164372403Y-100560468D01*
X164410689Y-100395289D01*
X164431407Y-100305905D01*
X164455241Y-100030715D01*
X164454997Y-100026276D01*
X164440307Y-99759356D01*
X164440306Y-99759349D01*
X164440062Y-99754913D01*
X164393756Y-99522115D01*
X164387043Y-99488364D01*
X164387042Y-99488362D01*
X164386175Y-99484001D01*
X164294653Y-99223384D01*
X164167322Y-98978263D01*
X164164739Y-98974648D01*
X164164735Y-98974642D01*
X164009313Y-98757150D01*
X164009310Y-98757146D01*
X164006725Y-98753529D01*
X163863127Y-98603000D01*
X163819136Y-98556885D01*
X163819134Y-98556883D01*
X163816064Y-98553665D01*
X163770067Y-98517404D01*
X163602639Y-98385414D01*
X163602637Y-98385413D01*
X163599144Y-98382659D01*
X163458360Y-98300885D01*
X163364147Y-98246161D01*
X163364141Y-98246158D01*
X163360293Y-98243923D01*
X163104277Y-98140226D01*
X163099964Y-98139155D01*
X163099959Y-98139153D01*
X162840525Y-98074709D01*
X162840520Y-98074708D01*
X162836204Y-98073636D01*
X162831776Y-98073182D01*
X162831774Y-98073182D01*
X162751573Y-98064965D01*
X162600630Y-98049500D01*
X162429638Y-98049500D01*
X162224470Y-98064027D01*
X162220115Y-98064965D01*
X162220112Y-98064965D01*
X161958785Y-98121227D01*
X161958783Y-98121227D01*
X161954438Y-98122163D01*
X161695291Y-98217767D01*
X161691373Y-98219881D01*
X161479666Y-98334112D01*
X161452200Y-98348932D01*
X161230016Y-98513040D01*
X161226837Y-98516169D01*
X161226834Y-98516172D01*
X161145831Y-98595913D01*
X161033171Y-98706817D01*
X160865594Y-98926396D01*
X160863416Y-98930285D01*
X160768859Y-99099129D01*
X160730627Y-99167396D01*
X160729023Y-99171541D01*
X160729022Y-99171544D01*
X160715847Y-99205599D01*
X160630964Y-99425009D01*
X160629961Y-99429334D01*
X160629960Y-99429339D01*
X160602083Y-99549610D01*
X160568593Y-99694095D01*
X160544759Y-99969285D01*
X156972480Y-99969285D01*
X156974244Y-99966139D01*
X156980175Y-99958576D01*
X157061079Y-99824988D01*
X157067285Y-99811243D01*
X157114256Y-99661356D01*
X157116869Y-99648306D01*
X157122734Y-99584479D01*
X157123000Y-99578691D01*
X157123000Y-99522115D01*
X157118525Y-99506876D01*
X157117135Y-99505671D01*
X157109452Y-99504000D01*
X156487115Y-99504000D01*
X156471876Y-99508475D01*
X156470671Y-99509865D01*
X156469000Y-99517548D01*
X156469000Y-99808885D01*
X156473896Y-99825559D01*
X156479000Y-99861057D01*
X156479000Y-100978000D01*
X156458998Y-101046121D01*
X156405342Y-101092614D01*
X156353000Y-101104000D01*
X156097000Y-101104000D01*
X156028879Y-101083998D01*
X155982386Y-101030342D01*
X155971000Y-100978000D01*
X155971000Y-100291115D01*
X155966104Y-100274441D01*
X155961000Y-100238943D01*
X155961000Y-98766115D01*
X155956525Y-98750875D01*
X155939488Y-98736112D01*
X155901104Y-98676386D01*
X155896000Y-98640888D01*
X155896000Y-98208885D01*
X156404000Y-98208885D01*
X156408475Y-98224125D01*
X156425512Y-98238888D01*
X156463896Y-98298614D01*
X156469000Y-98334112D01*
X156469000Y-98977885D01*
X156473475Y-98993124D01*
X156474865Y-98994329D01*
X156482548Y-98996000D01*
X157104884Y-98996000D01*
X157120123Y-98991525D01*
X157121328Y-98990135D01*
X157122999Y-98982452D01*
X157122999Y-98921295D01*
X157122736Y-98915546D01*
X157116868Y-98851685D01*
X157114257Y-98838649D01*
X157075205Y-98714032D01*
X157073921Y-98643047D01*
X157111218Y-98582636D01*
X157175255Y-98551980D01*
X157230592Y-98555356D01*
X157376373Y-98597709D01*
X157397674Y-98599385D01*
X157409380Y-98600307D01*
X157409389Y-98600307D01*
X157411837Y-98600500D01*
X157699766Y-98600500D01*
X157988162Y-98600499D01*
X158006854Y-98599028D01*
X158017209Y-98598214D01*
X158017210Y-98598214D01*
X158023627Y-98597709D01*
X158029807Y-98595914D01*
X158029810Y-98595913D01*
X158160149Y-98558046D01*
X158231146Y-98558249D01*
X158285939Y-98591516D01*
X158398813Y-98708400D01*
X158549088Y-98806737D01*
X158717415Y-98869337D01*
X158724396Y-98870268D01*
X158724398Y-98870269D01*
X158888448Y-98892158D01*
X158888452Y-98892158D01*
X158895429Y-98893089D01*
X158902441Y-98892451D01*
X158902445Y-98892451D01*
X159067259Y-98877452D01*
X159067260Y-98877452D01*
X159074280Y-98876813D01*
X159245081Y-98821316D01*
X159329315Y-98771103D01*
X159393291Y-98732966D01*
X159393293Y-98732965D01*
X159399343Y-98729358D01*
X159529398Y-98605508D01*
X159535773Y-98595914D01*
X159588753Y-98516172D01*
X159628782Y-98455923D01*
X159655566Y-98385414D01*
X159690056Y-98294620D01*
X159690057Y-98294615D01*
X159692556Y-98288037D01*
X159698991Y-98242249D01*
X159716999Y-98114117D01*
X159716999Y-98114112D01*
X159717550Y-98110194D01*
X159717864Y-98087701D01*
X159697845Y-97909229D01*
X159638784Y-97739628D01*
X159599034Y-97676014D01*
X159547348Y-97593300D01*
X159543615Y-97587326D01*
X159461820Y-97504958D01*
X159422032Y-97464891D01*
X159422028Y-97464888D01*
X159417069Y-97459894D01*
X159265435Y-97363664D01*
X159235651Y-97353058D01*
X159102885Y-97305782D01*
X159102880Y-97305781D01*
X159096250Y-97303420D01*
X159089264Y-97302587D01*
X159089260Y-97302586D01*
X158958546Y-97287000D01*
X158917923Y-97282156D01*
X158910921Y-97282892D01*
X158910918Y-97282892D01*
X158893793Y-97284692D01*
X158818765Y-97269153D01*
X158816838Y-97268067D01*
X158809994Y-97262872D01*
X158802007Y-97259710D01*
X158802004Y-97259708D01*
X158797115Y-97257772D01*
X158777114Y-97247713D01*
X158765348Y-97240418D01*
X158725717Y-97228904D01*
X158714493Y-97225060D01*
X158684114Y-97213033D01*
X158684111Y-97213032D01*
X158676126Y-97209871D01*
X158667589Y-97208974D01*
X158667582Y-97208972D01*
X158662359Y-97208423D01*
X158640382Y-97204112D01*
X158633420Y-97202089D01*
X158633418Y-97202089D01*
X158627086Y-97200249D01*
X158620271Y-97199749D01*
X158619194Y-97199669D01*
X158619181Y-97199669D01*
X158616886Y-97199500D01*
X158584059Y-97199500D01*
X158570888Y-97198810D01*
X158545913Y-97196185D01*
X158480257Y-97169172D01*
X158450631Y-97135014D01*
X158427208Y-97095407D01*
X158427206Y-97095404D01*
X158423170Y-97088580D01*
X158311420Y-96976830D01*
X158304596Y-96972794D01*
X158304593Y-96972792D01*
X158182216Y-96900419D01*
X158182217Y-96900419D01*
X158175390Y-96896382D01*
X158167779Y-96894171D01*
X158167777Y-96894170D01*
X158119257Y-96880074D01*
X158023627Y-96852291D01*
X158002326Y-96850615D01*
X157990620Y-96849693D01*
X157990611Y-96849693D01*
X157988163Y-96849500D01*
X157700234Y-96849500D01*
X157411838Y-96849501D01*
X157393146Y-96850972D01*
X157382791Y-96851786D01*
X157382790Y-96851786D01*
X157376373Y-96852291D01*
X157370193Y-96854086D01*
X157370190Y-96854087D01*
X157232223Y-96894170D01*
X157232221Y-96894171D01*
X157224610Y-96896382D01*
X157088580Y-96976830D01*
X157082971Y-96982439D01*
X157078473Y-96985928D01*
X157012388Y-97011875D01*
X156942765Y-96997974D01*
X156912230Y-96975542D01*
X156837572Y-96901015D01*
X156826160Y-96892002D01*
X156693120Y-96809996D01*
X156679939Y-96803849D01*
X156531186Y-96754509D01*
X156517810Y-96751642D01*
X156432476Y-96742899D01*
X159930324Y-96742899D01*
X159930615Y-96744714D01*
X159935426Y-96750934D01*
X159959272Y-96770942D01*
X159964721Y-96775034D01*
X160007243Y-96803501D01*
X160021260Y-96810528D01*
X160142560Y-96853362D01*
X160159978Y-96856843D01*
X160287356Y-96863854D01*
X160305052Y-96862306D01*
X160429271Y-96833284D01*
X160445831Y-96826828D01*
X160557848Y-96763581D01*
X160570426Y-96754232D01*
X160607358Y-96718814D01*
X160612023Y-96713828D01*
X160709438Y-96597734D01*
X160715807Y-96583182D01*
X160715516Y-96581366D01*
X160710707Y-96575150D01*
X160345810Y-96268965D01*
X160331258Y-96262596D01*
X160329442Y-96262887D01*
X160323226Y-96267696D01*
X159936693Y-96728347D01*
X159930324Y-96742899D01*
X156432476Y-96742899D01*
X156426903Y-96742328D01*
X156421874Y-96742071D01*
X156406876Y-96746475D01*
X156405671Y-96747865D01*
X156404000Y-96755548D01*
X156404000Y-98208885D01*
X155896000Y-98208885D01*
X155896000Y-97997115D01*
X155891525Y-97981876D01*
X155890135Y-97980671D01*
X155882452Y-97979000D01*
X155210115Y-97979000D01*
X155194876Y-97983475D01*
X155193671Y-97984865D01*
X155192000Y-97992548D01*
X155192000Y-98020438D01*
X155192337Y-98026953D01*
X155201894Y-98119057D01*
X155204788Y-98132456D01*
X155254382Y-98281111D01*
X155263646Y-98300885D01*
X155274432Y-98371058D01*
X155245567Y-98435922D01*
X155186217Y-98474884D01*
X155115223Y-98475573D01*
X155081972Y-98458884D01*
X155081546Y-98459621D01*
X155074393Y-98455491D01*
X155067841Y-98450464D01*
X154921762Y-98389956D01*
X154887262Y-98385414D01*
X154808448Y-98375038D01*
X154808447Y-98375038D01*
X154804361Y-98374500D01*
X154792734Y-98374500D01*
X154528833Y-98374501D01*
X154460714Y-98354499D01*
X154414221Y-98300844D01*
X154404061Y-98230960D01*
X154404699Y-98226419D01*
X154405251Y-98222493D01*
X154405565Y-98200000D01*
X154385546Y-98021528D01*
X154326485Y-97851927D01*
X154317175Y-97837027D01*
X154231316Y-97699625D01*
X154155974Y-97623755D01*
X154109733Y-97577190D01*
X154109729Y-97577187D01*
X154104770Y-97572193D01*
X153953136Y-97475963D01*
X153897408Y-97456119D01*
X153888326Y-97452885D01*
X155192000Y-97452885D01*
X155196475Y-97468124D01*
X155197865Y-97469329D01*
X155205548Y-97471000D01*
X155877885Y-97471000D01*
X155893124Y-97466525D01*
X155894329Y-97465135D01*
X155896000Y-97457452D01*
X155896000Y-96760115D01*
X155891525Y-96744876D01*
X155890135Y-96743671D01*
X155882452Y-96742000D01*
X155879562Y-96742000D01*
X155873047Y-96742337D01*
X155780943Y-96751894D01*
X155767544Y-96754788D01*
X155618893Y-96804381D01*
X155605714Y-96810555D01*
X155472827Y-96892788D01*
X155461426Y-96901824D01*
X155351014Y-97012429D01*
X155342002Y-97023840D01*
X155259996Y-97156880D01*
X155253849Y-97170061D01*
X155204509Y-97318814D01*
X155201642Y-97332190D01*
X155192328Y-97423097D01*
X155192000Y-97429514D01*
X155192000Y-97452885D01*
X153888326Y-97452885D01*
X153790586Y-97418081D01*
X153790581Y-97418080D01*
X153783951Y-97415719D01*
X153776965Y-97414886D01*
X153776961Y-97414885D01*
X153648721Y-97399594D01*
X153605624Y-97394455D01*
X153598621Y-97395191D01*
X153598620Y-97395191D01*
X153472227Y-97408475D01*
X153433318Y-97405669D01*
X153432547Y-97405364D01*
X153424515Y-97404392D01*
X153424511Y-97404391D01*
X153379123Y-97398899D01*
X153342772Y-97394500D01*
X152851500Y-97394500D01*
X152783379Y-97374498D01*
X152736886Y-97320842D01*
X152725500Y-97268500D01*
X152725500Y-95114941D01*
X152745502Y-95046820D01*
X152799158Y-95000327D01*
X152868163Y-94990048D01*
X152923540Y-94997437D01*
X152976150Y-95004457D01*
X152976153Y-95004457D01*
X152983130Y-95005388D01*
X152990142Y-95004750D01*
X152990146Y-95004750D01*
X153154960Y-94989751D01*
X153154961Y-94989751D01*
X153161981Y-94989112D01*
X153332782Y-94933615D01*
X153344859Y-94926416D01*
X153480992Y-94845265D01*
X153480994Y-94845264D01*
X153487044Y-94841657D01*
X153617099Y-94717807D01*
X153621088Y-94711804D01*
X153670954Y-94636749D01*
X153716483Y-94568222D01*
X153749120Y-94482305D01*
X153777757Y-94406919D01*
X153777758Y-94406914D01*
X153780257Y-94400336D01*
X153783661Y-94376115D01*
X153804700Y-94226416D01*
X153804700Y-94226411D01*
X153805251Y-94222493D01*
X153805565Y-94200000D01*
X153805032Y-94195245D01*
X153805072Y-94195017D01*
X153804930Y-94192111D01*
X153805588Y-94192079D01*
X153817321Y-94125320D01*
X153823159Y-94114817D01*
X153830453Y-94103052D01*
X153837178Y-94093266D01*
X153856934Y-94067238D01*
X153856935Y-94067237D01*
X153862127Y-94060396D01*
X153867222Y-94047526D01*
X153877286Y-94027518D01*
X153884582Y-94015750D01*
X153886977Y-94007507D01*
X153886980Y-94007500D01*
X153896101Y-93976107D01*
X153899945Y-93964880D01*
X153911968Y-93934513D01*
X153911969Y-93934511D01*
X153915129Y-93926528D01*
X153916026Y-93917991D01*
X153916028Y-93917984D01*
X153916577Y-93912761D01*
X153920888Y-93890784D01*
X153922911Y-93883822D01*
X153922911Y-93883820D01*
X153924751Y-93877488D01*
X153925500Y-93867288D01*
X153925500Y-93834462D01*
X153926190Y-93821291D01*
X153927957Y-93804475D01*
X153930179Y-93783339D01*
X153927264Y-93766103D01*
X153925500Y-93745091D01*
X153925500Y-92776500D01*
X153945502Y-92708379D01*
X153999158Y-92661886D01*
X154051500Y-92650500D01*
X154532642Y-92650499D01*
X154556518Y-92650499D01*
X154585141Y-92645966D01*
X154640506Y-92637198D01*
X154640508Y-92637197D01*
X154650304Y-92635646D01*
X154763342Y-92578050D01*
X154853050Y-92488342D01*
X154910646Y-92375304D01*
X154912795Y-92361739D01*
X154921687Y-92305592D01*
X154925500Y-92281519D01*
X154925499Y-91967749D01*
X154945501Y-91899630D01*
X154986229Y-91859974D01*
X154990925Y-91857130D01*
X154998805Y-91853720D01*
X155005476Y-91848318D01*
X155005478Y-91848317D01*
X155009564Y-91845008D01*
X155028148Y-91832520D01*
X155040285Y-91825847D01*
X155048027Y-91819164D01*
X155071231Y-91795960D01*
X155081032Y-91787134D01*
X155104021Y-91768518D01*
X155110697Y-91763112D01*
X155120828Y-91748856D01*
X155134435Y-91732756D01*
X155161603Y-91705588D01*
X155223915Y-91671562D01*
X155294730Y-91676627D01*
X155351566Y-91719174D01*
X155376377Y-91785694D01*
X155375394Y-91808633D01*
X155375663Y-91808654D01*
X155375275Y-91813591D01*
X155374500Y-91818481D01*
X155374501Y-92281518D01*
X155375276Y-92286409D01*
X155375276Y-92286412D01*
X155387206Y-92361739D01*
X155389354Y-92375304D01*
X155446950Y-92488342D01*
X155535514Y-92576906D01*
X155569540Y-92639218D01*
X155564475Y-92710033D01*
X155521928Y-92766869D01*
X155455408Y-92791680D01*
X155446419Y-92792001D01*
X155255331Y-92792001D01*
X155248510Y-92792371D01*
X155197648Y-92797895D01*
X155182396Y-92801521D01*
X155061946Y-92846676D01*
X155046351Y-92855214D01*
X154944276Y-92931715D01*
X154931715Y-92944276D01*
X154855214Y-93046351D01*
X154846676Y-93061946D01*
X154801522Y-93182394D01*
X154797895Y-93197649D01*
X154792369Y-93248514D01*
X154792000Y-93255328D01*
X154792000Y-93281885D01*
X154796475Y-93297124D01*
X154797865Y-93298329D01*
X154805548Y-93300000D01*
X155673500Y-93300000D01*
X155741621Y-93320002D01*
X155788114Y-93373658D01*
X155799500Y-93425999D01*
X155799501Y-93673499D01*
X155779499Y-93741620D01*
X155725844Y-93788113D01*
X155673501Y-93799500D01*
X155288574Y-93799501D01*
X155268482Y-93799501D01*
X155266382Y-93799834D01*
X155262141Y-93800000D01*
X154810116Y-93800000D01*
X154794877Y-93804475D01*
X154793672Y-93805865D01*
X154792001Y-93813548D01*
X154792001Y-93844669D01*
X154792371Y-93851490D01*
X154797895Y-93902352D01*
X154801522Y-93917607D01*
X154801558Y-93917704D01*
X154801564Y-93917785D01*
X154803349Y-93925293D01*
X154802135Y-93925582D01*
X154806742Y-93988511D01*
X154772822Y-94050880D01*
X154724183Y-94081213D01*
X154639810Y-94109936D01*
X154607007Y-94121103D01*
X154454045Y-94215206D01*
X154449014Y-94220132D01*
X154449011Y-94220135D01*
X154395852Y-94272193D01*
X154325732Y-94340859D01*
X154321913Y-94346784D01*
X154321912Y-94346786D01*
X154275971Y-94418073D01*
X154228446Y-94491817D01*
X154226037Y-94498437D01*
X154226035Y-94498440D01*
X154200637Y-94568222D01*
X154167022Y-94660578D01*
X154144514Y-94838753D01*
X154145201Y-94845760D01*
X154145201Y-94845763D01*
X154150908Y-94903963D01*
X154162039Y-95017486D01*
X154164262Y-95024168D01*
X154164262Y-95024169D01*
X154215015Y-95176739D01*
X154218726Y-95187896D01*
X154222373Y-95193918D01*
X154303652Y-95328125D01*
X154311759Y-95341512D01*
X154316648Y-95346575D01*
X154316649Y-95346576D01*
X154373209Y-95405145D01*
X154436514Y-95470699D01*
X154586789Y-95569036D01*
X154755116Y-95631636D01*
X154762097Y-95632567D01*
X154762099Y-95632568D01*
X154926149Y-95654457D01*
X154926153Y-95654457D01*
X154933130Y-95655388D01*
X154940142Y-95654750D01*
X154940146Y-95654750D01*
X155104960Y-95639751D01*
X155104961Y-95639751D01*
X155111981Y-95639112D01*
X155186577Y-95614874D01*
X155257450Y-95591846D01*
X155328417Y-95589818D01*
X155389215Y-95626481D01*
X155404162Y-95646408D01*
X155442457Y-95709640D01*
X155461759Y-95741512D01*
X155466648Y-95746575D01*
X155466649Y-95746576D01*
X155536137Y-95818532D01*
X155586514Y-95870699D01*
X155736789Y-95969036D01*
X155905116Y-96031636D01*
X155912097Y-96032567D01*
X155912099Y-96032568D01*
X156076149Y-96054457D01*
X156076153Y-96054457D01*
X156083130Y-96055388D01*
X156090142Y-96054750D01*
X156090146Y-96054750D01*
X156254960Y-96039751D01*
X156254961Y-96039751D01*
X156261981Y-96039112D01*
X156432782Y-95983615D01*
X156463714Y-95965176D01*
X156580992Y-95895265D01*
X156580994Y-95895264D01*
X156587044Y-95891657D01*
X156717099Y-95767807D01*
X156734570Y-95741512D01*
X156792321Y-95654589D01*
X156816483Y-95618222D01*
X156844197Y-95545265D01*
X156877757Y-95456919D01*
X156877758Y-95456914D01*
X156880257Y-95450336D01*
X156886664Y-95404750D01*
X156904700Y-95276416D01*
X156904700Y-95276411D01*
X156905251Y-95272493D01*
X156905445Y-95258625D01*
X156905510Y-95253963D01*
X156905510Y-95253958D01*
X156905565Y-95250000D01*
X156903408Y-95230767D01*
X156902587Y-95223447D01*
X156915165Y-95161601D01*
X156912127Y-95160398D01*
X156917223Y-95147526D01*
X156927292Y-95127507D01*
X156930056Y-95123049D01*
X156934582Y-95115750D01*
X156942878Y-95087197D01*
X156946094Y-95076126D01*
X156949939Y-95064897D01*
X156961967Y-95034517D01*
X156961968Y-95034514D01*
X156965130Y-95026527D01*
X156965240Y-95025477D01*
X156996642Y-94969750D01*
X157028050Y-94938342D01*
X157085646Y-94825304D01*
X157100500Y-94731519D01*
X157100499Y-94168482D01*
X157095690Y-94138116D01*
X157087198Y-94084494D01*
X157087197Y-94084492D01*
X157085646Y-94074696D01*
X157081143Y-94065859D01*
X157081142Y-94065855D01*
X157076733Y-94057202D01*
X157063629Y-93987425D01*
X157076733Y-93942798D01*
X157081144Y-93934140D01*
X157081144Y-93934139D01*
X157085646Y-93925304D01*
X157087633Y-93912761D01*
X157090306Y-93895889D01*
X157120719Y-93831737D01*
X157180987Y-93794211D01*
X157196254Y-93791569D01*
X157204558Y-93786232D01*
X157962897Y-93027893D01*
X158025209Y-92993867D01*
X158096024Y-92998932D01*
X158141087Y-93027893D01*
X158322107Y-93208913D01*
X158356133Y-93271225D01*
X158351068Y-93342040D01*
X158322107Y-93387103D01*
X157566998Y-94142212D01*
X157559386Y-94156152D01*
X157559518Y-94157988D01*
X157563767Y-94164600D01*
X157583487Y-94184320D01*
X157588328Y-94188685D01*
X157660225Y-94247064D01*
X157671740Y-94254488D01*
X157811920Y-94324532D01*
X157825602Y-94329486D01*
X157977724Y-94365306D01*
X157992166Y-94366977D01*
X158104462Y-94366879D01*
X158172601Y-94386822D01*
X158219140Y-94440437D01*
X158224131Y-94453108D01*
X158253668Y-94541900D01*
X158256427Y-94550195D01*
X158261126Y-94557953D01*
X158262220Y-94559760D01*
X158262903Y-94562340D01*
X158263030Y-94562614D01*
X158262982Y-94562636D01*
X158280398Y-94628390D01*
X158258587Y-94695953D01*
X158203710Y-94740999D01*
X158195049Y-94744308D01*
X158064795Y-94788650D01*
X158058797Y-94792340D01*
X158058795Y-94792341D01*
X158036622Y-94805982D01*
X157911833Y-94882753D01*
X157906802Y-94887679D01*
X157906799Y-94887682D01*
X157862343Y-94931217D01*
X157783520Y-95008406D01*
X157779701Y-95014331D01*
X157779700Y-95014333D01*
X157697982Y-95141134D01*
X157686234Y-95159364D01*
X157683825Y-95165984D01*
X157683823Y-95165987D01*
X157665754Y-95215631D01*
X157624810Y-95328125D01*
X157602302Y-95506300D01*
X157602989Y-95513307D01*
X157602989Y-95513310D01*
X157608045Y-95564871D01*
X157619827Y-95685033D01*
X157622050Y-95691715D01*
X157622050Y-95691716D01*
X157664236Y-95818532D01*
X157676514Y-95855443D01*
X157680161Y-95861465D01*
X157764185Y-96000205D01*
X157769547Y-96009059D01*
X157774436Y-96014122D01*
X157774437Y-96014123D01*
X157819904Y-96061205D01*
X157894302Y-96138246D01*
X158044577Y-96236583D01*
X158212904Y-96299183D01*
X158219885Y-96300114D01*
X158219887Y-96300115D01*
X158383937Y-96322004D01*
X158383941Y-96322004D01*
X158390918Y-96322935D01*
X158397930Y-96322297D01*
X158397934Y-96322297D01*
X158562748Y-96307298D01*
X158562749Y-96307298D01*
X158569769Y-96306659D01*
X158665479Y-96275561D01*
X158678830Y-96271223D01*
X158749798Y-96269196D01*
X158793944Y-96290692D01*
X158811606Y-96304099D01*
X158824476Y-96309194D01*
X158844484Y-96319258D01*
X158856252Y-96326554D01*
X158864495Y-96328949D01*
X158864502Y-96328952D01*
X158895895Y-96338073D01*
X158907122Y-96341917D01*
X158937489Y-96353940D01*
X158937491Y-96353941D01*
X158945474Y-96357101D01*
X158954011Y-96357998D01*
X158954018Y-96358000D01*
X158959241Y-96358549D01*
X158981218Y-96362860D01*
X158988180Y-96364883D01*
X158988182Y-96364883D01*
X158994514Y-96366723D01*
X159001329Y-96367223D01*
X159002406Y-96367303D01*
X159002419Y-96367303D01*
X159004714Y-96367472D01*
X159037540Y-96367472D01*
X159050711Y-96368162D01*
X159088663Y-96372151D01*
X159097129Y-96370719D01*
X159097132Y-96370719D01*
X159105899Y-96369236D01*
X159126911Y-96367472D01*
X159375711Y-96367472D01*
X159380988Y-96367583D01*
X159437497Y-96369951D01*
X159437500Y-96369952D01*
X159440065Y-96370059D01*
X159440049Y-96370445D01*
X159504349Y-96382901D01*
X159536965Y-96410617D01*
X159538544Y-96409103D01*
X159579437Y-96451744D01*
X159584402Y-96456390D01*
X159604752Y-96473466D01*
X159619305Y-96479834D01*
X159621121Y-96479544D01*
X159627340Y-96474732D01*
X160025515Y-96000205D01*
X160284990Y-95690975D01*
X160292417Y-95682871D01*
X160359434Y-95615854D01*
X160363243Y-95612201D01*
X160400443Y-95577994D01*
X160406770Y-95572176D01*
X160428516Y-95537104D01*
X160435236Y-95527326D01*
X160454992Y-95501298D01*
X160454993Y-95501297D01*
X160460185Y-95494456D01*
X160463347Y-95486470D01*
X160467563Y-95478987D01*
X160468305Y-95479405D01*
X160482502Y-95455589D01*
X160677869Y-95222761D01*
X160687451Y-95200867D01*
X160713785Y-95162290D01*
X160838135Y-95037940D01*
X160900447Y-95003914D01*
X160971262Y-95008979D01*
X161008216Y-95030509D01*
X161027447Y-95046644D01*
X161066777Y-95105752D01*
X161067907Y-95176739D01*
X161034618Y-95233194D01*
X160975732Y-95290859D01*
X160971913Y-95296784D01*
X160971912Y-95296786D01*
X160882265Y-95435891D01*
X160878446Y-95441817D01*
X160876037Y-95448437D01*
X160876035Y-95448440D01*
X160819430Y-95603961D01*
X160817022Y-95610578D01*
X160816140Y-95617562D01*
X160816138Y-95617569D01*
X160811461Y-95654589D01*
X160782976Y-95719787D01*
X160600692Y-95937024D01*
X160594323Y-95951576D01*
X160594614Y-95953392D01*
X160599423Y-95959608D01*
X160911464Y-96221441D01*
X160938248Y-96252691D01*
X160943363Y-96261136D01*
X160958109Y-96285486D01*
X160958111Y-96285489D01*
X160961759Y-96291512D01*
X160966652Y-96296579D01*
X160966653Y-96296580D01*
X161005862Y-96337182D01*
X161086514Y-96420699D01*
X161236789Y-96519036D01*
X161405116Y-96581636D01*
X161412097Y-96582567D01*
X161412099Y-96582568D01*
X161576149Y-96604457D01*
X161576153Y-96604457D01*
X161583130Y-96605388D01*
X161590142Y-96604750D01*
X161590146Y-96604750D01*
X161754960Y-96589751D01*
X161754961Y-96589751D01*
X161761981Y-96589112D01*
X161932782Y-96533615D01*
X161980565Y-96505131D01*
X162080992Y-96445265D01*
X162080994Y-96445264D01*
X162087044Y-96441657D01*
X162217099Y-96317807D01*
X162230985Y-96296908D01*
X162291992Y-96205084D01*
X162316483Y-96168222D01*
X162331168Y-96129564D01*
X162377757Y-96006919D01*
X162377758Y-96006914D01*
X162380257Y-96000336D01*
X162384874Y-95967486D01*
X162404700Y-95826416D01*
X162404700Y-95826411D01*
X162405251Y-95822493D01*
X162405565Y-95800000D01*
X162385546Y-95621528D01*
X162374504Y-95589818D01*
X162347861Y-95513310D01*
X162326485Y-95451927D01*
X162314025Y-95431986D01*
X162235049Y-95305599D01*
X162231316Y-95299625D01*
X162217713Y-95285927D01*
X162162094Y-95229918D01*
X162128287Y-95167487D01*
X162125500Y-95141134D01*
X162125500Y-94788756D01*
X162145502Y-94720635D01*
X162154978Y-94707765D01*
X162214568Y-94636749D01*
X162214571Y-94636745D01*
X162217751Y-94632955D01*
X162222156Y-94625625D01*
X162244917Y-94587744D01*
X162266658Y-94551563D01*
X162270144Y-94536466D01*
X162292966Y-94437609D01*
X162292966Y-94437608D01*
X162295196Y-94427949D01*
X162284139Y-94301565D01*
X162262984Y-94251726D01*
X162238445Y-94193915D01*
X162238443Y-94193912D01*
X162234569Y-94184785D01*
X162172273Y-94113122D01*
X161817566Y-93815489D01*
X161753539Y-93777017D01*
X161723350Y-93751685D01*
X161674344Y-93695310D01*
X161319637Y-93397677D01*
X161255610Y-93359205D01*
X161225421Y-93333873D01*
X161176415Y-93277498D01*
X160933256Y-93073464D01*
X160825502Y-92983048D01*
X160825498Y-92983045D01*
X160821708Y-92979865D01*
X160817458Y-92977311D01*
X160748127Y-92935651D01*
X160700038Y-92883421D01*
X160687808Y-92841694D01*
X160686331Y-92828527D01*
X160685546Y-92821528D01*
X160668210Y-92771744D01*
X160651702Y-92724341D01*
X160626485Y-92651927D01*
X160621481Y-92643918D01*
X160535049Y-92505599D01*
X160531316Y-92499625D01*
X160448677Y-92416407D01*
X160409733Y-92377190D01*
X160409729Y-92377187D01*
X160404770Y-92372193D01*
X160388298Y-92361739D01*
X160315537Y-92315564D01*
X160253136Y-92275963D01*
X160192487Y-92254367D01*
X160135023Y-92212673D01*
X160109747Y-92151459D01*
X160109383Y-92148578D01*
X160109383Y-92140650D01*
X160101662Y-92110578D01*
X160089055Y-92061474D01*
X160091489Y-91990519D01*
X160131897Y-91932144D01*
X160197450Y-91904881D01*
X160267337Y-91917388D01*
X160282788Y-91926524D01*
X163185173Y-93934871D01*
X165695696Y-95672064D01*
X165740332Y-95727274D01*
X165750000Y-95775677D01*
X165750000Y-102830132D01*
X165729998Y-102898253D01*
X165697489Y-102932481D01*
X151904209Y-112836349D01*
X151830720Y-112860000D01*
X148175465Y-112860000D01*
X148107344Y-112839998D01*
X148099820Y-112834766D01*
X146255864Y-111450500D01*
X143616722Y-109469285D01*
X148044759Y-109469285D01*
X148045003Y-109473720D01*
X148045003Y-109473724D01*
X148048384Y-109535147D01*
X148059938Y-109745087D01*
X148113825Y-110015999D01*
X148205347Y-110276616D01*
X148332678Y-110521737D01*
X148335261Y-110525352D01*
X148335265Y-110525358D01*
X148372272Y-110577144D01*
X148493275Y-110746471D01*
X148683936Y-110946335D01*
X148687431Y-110949091D01*
X148687433Y-110949092D01*
X148735469Y-110986960D01*
X148900856Y-111117341D01*
X148962559Y-111153181D01*
X149135853Y-111253839D01*
X149135859Y-111253842D01*
X149139707Y-111256077D01*
X149395723Y-111359774D01*
X149400036Y-111360845D01*
X149400041Y-111360847D01*
X149659475Y-111425291D01*
X149659480Y-111425292D01*
X149663796Y-111426364D01*
X149668224Y-111426818D01*
X149668226Y-111426818D01*
X149743339Y-111434514D01*
X149899370Y-111450500D01*
X150070362Y-111450500D01*
X150275530Y-111435973D01*
X150279885Y-111435035D01*
X150279888Y-111435035D01*
X150541215Y-111378773D01*
X150541217Y-111378773D01*
X150545562Y-111377837D01*
X150804709Y-111282233D01*
X150853185Y-111256077D01*
X151043884Y-111153181D01*
X151047800Y-111151068D01*
X151269984Y-110986960D01*
X151466829Y-110793183D01*
X151634406Y-110573604D01*
X151769373Y-110332604D01*
X151869036Y-110074991D01*
X151931407Y-109805905D01*
X151955241Y-109530715D01*
X151954997Y-109526276D01*
X151940307Y-109259356D01*
X151940306Y-109259349D01*
X151940062Y-109254913D01*
X151886175Y-108984001D01*
X151794653Y-108723384D01*
X151667322Y-108478263D01*
X151664739Y-108474648D01*
X151664735Y-108474642D01*
X151509313Y-108257150D01*
X151509310Y-108257146D01*
X151506725Y-108253529D01*
X151316064Y-108053665D01*
X151284177Y-108028527D01*
X151102639Y-107885414D01*
X151102637Y-107885413D01*
X151099144Y-107882659D01*
X150905436Y-107770144D01*
X150864147Y-107746161D01*
X150864141Y-107746158D01*
X150860293Y-107743923D01*
X150604277Y-107640226D01*
X150599964Y-107639155D01*
X150599959Y-107639153D01*
X150340525Y-107574709D01*
X150340520Y-107574708D01*
X150336204Y-107573636D01*
X150331776Y-107573182D01*
X150331774Y-107573182D01*
X150251573Y-107564965D01*
X150100630Y-107549500D01*
X149929638Y-107549500D01*
X149724470Y-107564027D01*
X149720115Y-107564965D01*
X149720112Y-107564965D01*
X149458785Y-107621227D01*
X149458783Y-107621227D01*
X149454438Y-107622163D01*
X149195291Y-107717767D01*
X149191373Y-107719881D01*
X149085630Y-107776937D01*
X148952200Y-107848932D01*
X148730016Y-108013040D01*
X148726837Y-108016169D01*
X148726834Y-108016172D01*
X148691548Y-108050908D01*
X148533171Y-108206817D01*
X148365594Y-108426396D01*
X148230627Y-108667396D01*
X148229023Y-108671541D01*
X148229022Y-108671544D01*
X148208967Y-108723384D01*
X148130964Y-108925009D01*
X148129961Y-108929334D01*
X148129960Y-108929339D01*
X148112549Y-109004457D01*
X148068593Y-109194095D01*
X148044759Y-109469285D01*
X143616722Y-109469285D01*
X138660385Y-105748542D01*
X142087553Y-105748542D01*
X142088240Y-105755549D01*
X142088240Y-105755552D01*
X142093927Y-105813548D01*
X142105078Y-105927275D01*
X142107301Y-105933957D01*
X142107301Y-105933958D01*
X142154118Y-106074696D01*
X142161765Y-106097685D01*
X142165412Y-106103707D01*
X142219489Y-106192998D01*
X142254798Y-106251301D01*
X142259687Y-106256364D01*
X142259688Y-106256365D01*
X142272803Y-106269946D01*
X142379553Y-106380488D01*
X142529828Y-106478825D01*
X142698155Y-106541425D01*
X142770081Y-106551022D01*
X142790166Y-106553702D01*
X142855042Y-106582538D01*
X142894031Y-106641871D01*
X142899501Y-106678595D01*
X142899501Y-106731518D01*
X142914354Y-106825304D01*
X142957804Y-106910578D01*
X142958812Y-106912557D01*
X142971916Y-106982334D01*
X142964948Y-107012849D01*
X142961075Y-107023489D01*
X142938567Y-107201664D01*
X142939254Y-107208671D01*
X142939254Y-107208674D01*
X142944995Y-107267223D01*
X142956092Y-107380397D01*
X142958315Y-107387079D01*
X142958315Y-107387080D01*
X142968628Y-107418081D01*
X143012779Y-107550807D01*
X143016426Y-107556829D01*
X143055994Y-107622163D01*
X143105812Y-107704423D01*
X143110701Y-107709486D01*
X143110702Y-107709487D01*
X143142340Y-107742249D01*
X143230567Y-107833610D01*
X143380842Y-107931947D01*
X143549169Y-107994547D01*
X143556150Y-107995478D01*
X143556152Y-107995479D01*
X143720202Y-108017368D01*
X143720206Y-108017368D01*
X143727183Y-108018299D01*
X143734195Y-108017661D01*
X143734199Y-108017661D01*
X143899013Y-108002662D01*
X143899014Y-108002662D01*
X143906034Y-108002023D01*
X144076835Y-107946526D01*
X144145845Y-107905388D01*
X144225045Y-107858176D01*
X144225047Y-107858175D01*
X144231097Y-107854568D01*
X144285631Y-107802636D01*
X144348756Y-107770144D01*
X144419427Y-107776937D01*
X144461618Y-107804787D01*
X144758356Y-108101525D01*
X144792382Y-108163837D01*
X144794720Y-108187120D01*
X144794514Y-108188753D01*
X144812039Y-108367486D01*
X144814262Y-108374168D01*
X144814262Y-108374169D01*
X144847685Y-108474642D01*
X144868726Y-108537896D01*
X144961759Y-108691512D01*
X144966648Y-108696575D01*
X144966649Y-108696576D01*
X144996584Y-108727574D01*
X145086514Y-108820699D01*
X145236789Y-108919036D01*
X145405116Y-108981636D01*
X145412097Y-108982567D01*
X145412099Y-108982568D01*
X145576149Y-109004457D01*
X145576153Y-109004457D01*
X145583130Y-109005388D01*
X145590142Y-109004750D01*
X145590146Y-109004750D01*
X145754960Y-108989751D01*
X145754961Y-108989751D01*
X145761981Y-108989112D01*
X145932782Y-108933615D01*
X145963714Y-108915176D01*
X146080992Y-108845265D01*
X146080994Y-108845264D01*
X146087044Y-108841657D01*
X146217099Y-108717807D01*
X146234570Y-108691512D01*
X146312582Y-108574093D01*
X146316483Y-108568222D01*
X146331168Y-108529564D01*
X146377757Y-108406919D01*
X146377758Y-108406914D01*
X146380257Y-108400336D01*
X146385859Y-108360476D01*
X146404700Y-108226416D01*
X146404700Y-108226411D01*
X146405251Y-108222493D01*
X146405565Y-108200000D01*
X146385546Y-108021528D01*
X146326485Y-107851927D01*
X146315043Y-107833615D01*
X146235049Y-107705599D01*
X146231316Y-107699625D01*
X146144237Y-107611936D01*
X146109733Y-107577190D01*
X146109729Y-107577187D01*
X146104770Y-107572193D01*
X146091903Y-107564027D01*
X146021008Y-107519036D01*
X145953136Y-107475963D01*
X145912898Y-107461635D01*
X145790586Y-107418081D01*
X145790581Y-107418080D01*
X145783951Y-107415719D01*
X145776965Y-107414886D01*
X145776961Y-107414885D01*
X145649177Y-107399648D01*
X145605624Y-107394455D01*
X145598619Y-107395191D01*
X145591575Y-107395142D01*
X145591594Y-107392400D01*
X145534004Y-107381858D01*
X145501596Y-107358426D01*
X145306404Y-107163234D01*
X145110278Y-106967109D01*
X145076253Y-106904796D01*
X145079540Y-106839076D01*
X145081144Y-106834140D01*
X145085646Y-106825304D01*
X145100500Y-106731519D01*
X145100499Y-106168482D01*
X145100012Y-106165406D01*
X145114505Y-106096426D01*
X145124692Y-106080460D01*
X145144787Y-106053648D01*
X145153324Y-106038054D01*
X145198478Y-105917606D01*
X145202105Y-105902351D01*
X145207631Y-105851486D01*
X145208000Y-105844672D01*
X145208000Y-105818115D01*
X145203525Y-105802876D01*
X145202135Y-105801671D01*
X145194452Y-105800000D01*
X144737873Y-105800000D01*
X144733622Y-105799833D01*
X144731519Y-105799500D01*
X144711434Y-105799500D01*
X144326499Y-105799501D01*
X144258380Y-105779499D01*
X144211886Y-105725844D01*
X144200500Y-105673501D01*
X144200500Y-105655438D01*
X145517000Y-105655438D01*
X145517337Y-105661953D01*
X145526894Y-105754057D01*
X145529788Y-105767456D01*
X145579381Y-105916107D01*
X145585555Y-105929286D01*
X145667788Y-106062173D01*
X145676824Y-106073574D01*
X145787429Y-106183986D01*
X145798840Y-106192998D01*
X145931880Y-106275004D01*
X145945061Y-106281151D01*
X146093814Y-106330491D01*
X146107190Y-106333358D01*
X146198097Y-106342672D01*
X146204513Y-106343000D01*
X146227885Y-106343000D01*
X146243124Y-106338525D01*
X146244329Y-106337135D01*
X146246000Y-106329452D01*
X146246000Y-106324885D01*
X146754000Y-106324885D01*
X146758475Y-106340124D01*
X146759865Y-106341329D01*
X146767548Y-106343000D01*
X146795438Y-106343000D01*
X146801953Y-106342663D01*
X146894057Y-106333106D01*
X146907456Y-106330212D01*
X147056107Y-106280619D01*
X147069286Y-106274445D01*
X147202173Y-106192212D01*
X147213574Y-106183176D01*
X147323986Y-106072571D01*
X147332998Y-106061160D01*
X147415004Y-105928120D01*
X147421151Y-105914939D01*
X147470491Y-105766186D01*
X147473358Y-105752810D01*
X147482672Y-105661903D01*
X147482929Y-105656874D01*
X147478525Y-105641876D01*
X147477135Y-105640671D01*
X147469452Y-105639000D01*
X146772115Y-105639000D01*
X146756876Y-105643475D01*
X146755671Y-105644865D01*
X146754000Y-105652548D01*
X146754000Y-106324885D01*
X146246000Y-106324885D01*
X146246000Y-105657115D01*
X146241525Y-105641876D01*
X146240135Y-105640671D01*
X146232452Y-105639000D01*
X145535115Y-105639000D01*
X145519876Y-105643475D01*
X145518671Y-105644865D01*
X145517000Y-105652548D01*
X145517000Y-105655438D01*
X144200500Y-105655438D01*
X144200499Y-105281885D01*
X144700000Y-105281885D01*
X144704475Y-105297124D01*
X144705865Y-105298329D01*
X144713548Y-105300000D01*
X145189884Y-105300000D01*
X145205123Y-105295525D01*
X145206328Y-105294135D01*
X145207999Y-105286452D01*
X145207999Y-105281885D01*
X154792000Y-105281885D01*
X154796475Y-105297124D01*
X154797865Y-105298329D01*
X154805548Y-105300000D01*
X155281885Y-105300000D01*
X155297124Y-105295525D01*
X155298329Y-105294135D01*
X155300000Y-105286452D01*
X155300000Y-104810116D01*
X155295525Y-104794877D01*
X155294135Y-104793672D01*
X155286452Y-104792001D01*
X155255331Y-104792001D01*
X155248510Y-104792371D01*
X155197648Y-104797895D01*
X155182396Y-104801521D01*
X155061946Y-104846676D01*
X155046351Y-104855214D01*
X154944276Y-104931715D01*
X154931715Y-104944276D01*
X154855214Y-105046351D01*
X154846676Y-105061946D01*
X154801522Y-105182393D01*
X154797895Y-105197649D01*
X154792369Y-105248514D01*
X154792000Y-105255328D01*
X154792000Y-105281885D01*
X145207999Y-105281885D01*
X145207999Y-105255331D01*
X145207629Y-105248510D01*
X145202105Y-105197648D01*
X145198478Y-105182393D01*
X145153324Y-105061946D01*
X145144786Y-105046351D01*
X145068285Y-104944276D01*
X145055724Y-104931715D01*
X144953649Y-104855214D01*
X144938054Y-104846676D01*
X144817606Y-104801522D01*
X144802351Y-104797895D01*
X144751486Y-104792369D01*
X144744672Y-104792000D01*
X144718115Y-104792000D01*
X144702876Y-104796475D01*
X144701671Y-104797865D01*
X144700000Y-104805548D01*
X144700000Y-105281885D01*
X144200499Y-105281885D01*
X144200499Y-105273437D01*
X144200499Y-105268482D01*
X144200166Y-105266382D01*
X144200000Y-105262141D01*
X144200000Y-104810116D01*
X144195525Y-104794877D01*
X144194135Y-104793672D01*
X144186452Y-104792001D01*
X144155331Y-104792001D01*
X144148510Y-104792371D01*
X144097648Y-104797895D01*
X144082396Y-104801521D01*
X143961946Y-104846676D01*
X143946352Y-104855214D01*
X143919541Y-104875307D01*
X143853034Y-104900154D01*
X143835281Y-104900096D01*
X143831519Y-104899500D01*
X143550171Y-104899500D01*
X143268482Y-104899501D01*
X143263589Y-104900276D01*
X143263588Y-104900276D01*
X143184494Y-104912802D01*
X143184492Y-104912803D01*
X143174696Y-104914354D01*
X143093016Y-104955972D01*
X143020897Y-104968819D01*
X142898663Y-104954244D01*
X142891660Y-104954980D01*
X142891659Y-104954980D01*
X142727064Y-104972279D01*
X142727060Y-104972280D01*
X142720056Y-104973016D01*
X142713385Y-104975287D01*
X142556716Y-105028621D01*
X142556713Y-105028622D01*
X142550046Y-105030892D01*
X142544048Y-105034582D01*
X142544046Y-105034583D01*
X142480698Y-105073555D01*
X142397084Y-105124995D01*
X142392053Y-105129921D01*
X142392050Y-105129924D01*
X142348887Y-105172193D01*
X142268771Y-105250648D01*
X142264952Y-105256573D01*
X142264951Y-105256575D01*
X142236966Y-105300000D01*
X142171485Y-105401606D01*
X142110061Y-105570367D01*
X142087553Y-105748542D01*
X138660385Y-105748542D01*
X134163812Y-102372946D01*
X134121313Y-102315975D01*
X134099927Y-102258281D01*
X133251419Y-99969285D01*
X135544759Y-99969285D01*
X135545003Y-99973720D01*
X135545003Y-99973724D01*
X135559600Y-100238943D01*
X135559938Y-100245087D01*
X135589172Y-100392057D01*
X135612077Y-100507209D01*
X135613825Y-100515999D01*
X135705347Y-100776616D01*
X135832678Y-101021737D01*
X135835261Y-101025352D01*
X135835265Y-101025358D01*
X135990687Y-101242850D01*
X135993275Y-101246471D01*
X136037836Y-101293183D01*
X136168073Y-101429706D01*
X136183936Y-101446335D01*
X136187431Y-101449091D01*
X136187433Y-101449092D01*
X136377530Y-101598952D01*
X136400856Y-101617341D01*
X136496101Y-101672664D01*
X136635853Y-101753839D01*
X136635859Y-101753842D01*
X136639707Y-101756077D01*
X136790902Y-101817317D01*
X136887087Y-101856276D01*
X136895723Y-101859774D01*
X136900036Y-101860845D01*
X136900041Y-101860847D01*
X137159475Y-101925291D01*
X137159480Y-101925292D01*
X137163796Y-101926364D01*
X137168224Y-101926818D01*
X137168226Y-101926818D01*
X137243339Y-101934514D01*
X137399370Y-101950500D01*
X137570362Y-101950500D01*
X137775530Y-101935973D01*
X137779885Y-101935035D01*
X137779888Y-101935035D01*
X138041215Y-101878773D01*
X138041217Y-101878773D01*
X138045562Y-101877837D01*
X138304709Y-101782233D01*
X138353185Y-101756077D01*
X138543884Y-101653181D01*
X138547800Y-101651068D01*
X138769984Y-101486960D01*
X138785204Y-101471978D01*
X138953743Y-101306065D01*
X138966829Y-101293183D01*
X139134406Y-101073604D01*
X139158634Y-101030342D01*
X139267197Y-100836490D01*
X139267198Y-100836487D01*
X139269373Y-100832604D01*
X139275979Y-100815530D01*
X139340165Y-100649617D01*
X139369036Y-100574991D01*
X139372403Y-100560468D01*
X139410689Y-100395289D01*
X139431407Y-100305905D01*
X139455241Y-100030715D01*
X139454997Y-100026276D01*
X139440307Y-99759356D01*
X139440306Y-99759349D01*
X139440062Y-99754913D01*
X139426902Y-99688753D01*
X140694514Y-99688753D01*
X140695201Y-99695760D01*
X140695201Y-99695763D01*
X140703020Y-99775500D01*
X140712039Y-99867486D01*
X140714262Y-99874168D01*
X140714262Y-99874169D01*
X140764861Y-100026276D01*
X140768726Y-100037896D01*
X140772373Y-100043918D01*
X140841058Y-100157330D01*
X140861759Y-100191512D01*
X140986514Y-100320699D01*
X140992409Y-100324557D01*
X140992412Y-100324559D01*
X141012981Y-100338019D01*
X141059030Y-100392057D01*
X141069989Y-100443452D01*
X141069989Y-102931054D01*
X141069878Y-102936330D01*
X141067402Y-102995408D01*
X141076826Y-103035586D01*
X141078989Y-103047259D01*
X141084588Y-103088135D01*
X141087999Y-103096016D01*
X141087999Y-103096018D01*
X141090084Y-103100836D01*
X141097116Y-103122099D01*
X141098317Y-103127218D01*
X141100279Y-103135582D01*
X141120170Y-103171764D01*
X141125377Y-103182394D01*
X141141769Y-103220272D01*
X141147175Y-103226948D01*
X141147176Y-103226950D01*
X141150481Y-103231031D01*
X141162969Y-103249615D01*
X141169642Y-103261752D01*
X141176325Y-103269494D01*
X141199529Y-103292698D01*
X141208354Y-103302498D01*
X141232377Y-103332164D01*
X141246633Y-103342295D01*
X141262733Y-103355902D01*
X141482596Y-103575765D01*
X141516622Y-103638077D01*
X141519501Y-103664860D01*
X141519501Y-103826518D01*
X141520276Y-103831411D01*
X141520276Y-103831412D01*
X141525669Y-103865462D01*
X141534354Y-103920304D01*
X141591950Y-104033342D01*
X141681658Y-104123050D01*
X141794696Y-104180646D01*
X141804485Y-104182196D01*
X141804487Y-104182197D01*
X141831849Y-104186530D01*
X141888481Y-104195500D01*
X142119953Y-104195500D01*
X142351518Y-104195499D01*
X142356412Y-104194724D01*
X142435506Y-104182198D01*
X142435508Y-104182197D01*
X142445304Y-104180646D01*
X142558342Y-104123050D01*
X142611417Y-104069975D01*
X142673729Y-104035949D01*
X142744544Y-104041014D01*
X142801339Y-104083506D01*
X142851716Y-104150725D01*
X142864276Y-104163285D01*
X142966351Y-104239786D01*
X142981946Y-104248324D01*
X143102394Y-104293478D01*
X143117649Y-104297105D01*
X143168514Y-104302631D01*
X143175328Y-104303000D01*
X143201885Y-104303000D01*
X143217124Y-104298525D01*
X143218329Y-104297135D01*
X143220000Y-104289452D01*
X143220000Y-103451500D01*
X143240002Y-103383379D01*
X143293658Y-103336886D01*
X143346000Y-103325500D01*
X143494000Y-103325500D01*
X143562121Y-103345502D01*
X143608614Y-103399158D01*
X143620000Y-103451500D01*
X143620000Y-104284884D01*
X143624475Y-104300123D01*
X143625865Y-104301328D01*
X143633548Y-104302999D01*
X143664669Y-104302999D01*
X143671490Y-104302629D01*
X143722352Y-104297105D01*
X143737604Y-104293479D01*
X143858054Y-104248324D01*
X143873649Y-104239786D01*
X143975724Y-104163285D01*
X143988285Y-104150724D01*
X144064786Y-104048649D01*
X144073324Y-104033054D01*
X144114872Y-103922226D01*
X144157514Y-103865462D01*
X144224075Y-103840762D01*
X144293424Y-103855970D01*
X144323490Y-103878928D01*
X144417641Y-103976424D01*
X144567916Y-104074761D01*
X144736243Y-104137361D01*
X144743224Y-104138292D01*
X144743226Y-104138293D01*
X144907276Y-104160182D01*
X144907280Y-104160182D01*
X144914257Y-104161113D01*
X144921269Y-104160475D01*
X144921273Y-104160475D01*
X145086087Y-104145476D01*
X145086088Y-104145476D01*
X145093108Y-104144837D01*
X145206626Y-104107952D01*
X145257209Y-104091517D01*
X145263909Y-104089340D01*
X145418171Y-103997382D01*
X145422644Y-103993122D01*
X145488679Y-103967992D01*
X145558151Y-103982623D01*
X145608685Y-104032491D01*
X145624501Y-104093609D01*
X145624501Y-104123162D01*
X145627291Y-104158627D01*
X145629086Y-104164804D01*
X145629087Y-104164810D01*
X145666469Y-104293479D01*
X145671382Y-104310390D01*
X145751830Y-104446420D01*
X145757439Y-104452029D01*
X145760928Y-104456527D01*
X145786875Y-104522612D01*
X145772974Y-104592235D01*
X145750542Y-104622770D01*
X145676015Y-104697428D01*
X145667002Y-104708840D01*
X145584996Y-104841880D01*
X145578849Y-104855061D01*
X145529509Y-105003814D01*
X145526642Y-105017190D01*
X145517328Y-105108097D01*
X145517071Y-105113126D01*
X145521475Y-105128124D01*
X145522865Y-105129329D01*
X145530548Y-105131000D01*
X147464885Y-105131000D01*
X147480124Y-105126525D01*
X147481329Y-105125135D01*
X147483000Y-105117452D01*
X147483000Y-105114562D01*
X147482663Y-105108047D01*
X147473106Y-105015943D01*
X147470212Y-105002544D01*
X147420619Y-104853893D01*
X147414445Y-104840714D01*
X147332212Y-104707827D01*
X147323176Y-104696426D01*
X147249585Y-104622963D01*
X147215506Y-104560680D01*
X147220509Y-104489860D01*
X147239044Y-104456563D01*
X147242562Y-104452028D01*
X147248170Y-104446420D01*
X147252206Y-104439596D01*
X147252208Y-104439593D01*
X147324581Y-104317216D01*
X147328618Y-104310390D01*
X147333532Y-104293478D01*
X147361996Y-104195500D01*
X147372709Y-104158627D01*
X147375155Y-104127550D01*
X147375307Y-104125620D01*
X147375307Y-104125611D01*
X147375500Y-104123163D01*
X147375499Y-103551500D01*
X147395501Y-103483379D01*
X147449157Y-103436886D01*
X147501499Y-103425500D01*
X148016212Y-103425500D01*
X148085205Y-103446068D01*
X148093391Y-103451425D01*
X148093399Y-103451429D01*
X148099287Y-103455282D01*
X148105883Y-103457735D01*
X148105885Y-103457736D01*
X148128790Y-103466254D01*
X148267614Y-103517882D01*
X148274595Y-103518813D01*
X148274597Y-103518814D01*
X148438647Y-103540703D01*
X148438651Y-103540703D01*
X148445628Y-103541634D01*
X148452640Y-103540996D01*
X148452644Y-103540996D01*
X148617458Y-103525997D01*
X148617459Y-103525997D01*
X148624479Y-103525358D01*
X148795280Y-103469861D01*
X148835044Y-103446157D01*
X148943490Y-103381511D01*
X148943492Y-103381510D01*
X148949542Y-103377903D01*
X149079597Y-103254053D01*
X149087815Y-103241685D01*
X149136947Y-103167734D01*
X149178981Y-103104468D01*
X149220409Y-102995408D01*
X149240255Y-102943165D01*
X149240256Y-102943160D01*
X149242755Y-102936582D01*
X149243761Y-102929427D01*
X149267198Y-102762662D01*
X149267198Y-102762657D01*
X149267749Y-102758739D01*
X149268063Y-102736246D01*
X149248604Y-102562767D01*
X149260888Y-102492841D01*
X149298932Y-102451422D01*
X149297145Y-102449215D01*
X149307904Y-102440503D01*
X149326488Y-102428015D01*
X149338625Y-102421342D01*
X149346367Y-102414659D01*
X149369571Y-102391455D01*
X149379372Y-102382629D01*
X149409037Y-102358607D01*
X149419168Y-102344351D01*
X149432775Y-102328251D01*
X149808134Y-101952892D01*
X149811943Y-101949239D01*
X149849155Y-101915021D01*
X149855482Y-101909203D01*
X149877235Y-101874119D01*
X149883952Y-101864347D01*
X149888354Y-101858548D01*
X149908898Y-101831482D01*
X149913994Y-101818611D01*
X149924062Y-101798594D01*
X149926826Y-101794136D01*
X149931352Y-101786837D01*
X149942864Y-101747213D01*
X149946709Y-101735984D01*
X149958738Y-101705601D01*
X149958738Y-101705599D01*
X149961900Y-101697614D01*
X149963347Y-101683845D01*
X149967660Y-101661863D01*
X149969678Y-101654917D01*
X149971521Y-101648575D01*
X149972270Y-101638375D01*
X149972270Y-101605558D01*
X149972960Y-101592387D01*
X149976052Y-101562967D01*
X149976950Y-101554425D01*
X149974034Y-101537183D01*
X149972270Y-101516171D01*
X149972270Y-100985316D01*
X149972381Y-100980040D01*
X149974497Y-100929547D01*
X149974857Y-100920962D01*
X149965435Y-100880789D01*
X149963272Y-100869120D01*
X149962657Y-100864628D01*
X149957671Y-100828235D01*
X149952173Y-100815530D01*
X149945139Y-100794261D01*
X149943941Y-100789152D01*
X149943940Y-100789150D01*
X149941979Y-100780788D01*
X149937841Y-100773262D01*
X149937840Y-100773258D01*
X149922100Y-100744628D01*
X149916884Y-100733983D01*
X149900490Y-100696098D01*
X149891779Y-100685341D01*
X149879285Y-100666748D01*
X149875799Y-100660406D01*
X149875798Y-100660405D01*
X149872617Y-100654618D01*
X149865934Y-100646876D01*
X149842730Y-100623672D01*
X149833904Y-100613871D01*
X149815288Y-100590882D01*
X149809882Y-100584206D01*
X149795626Y-100574075D01*
X149779526Y-100560468D01*
X148868174Y-99649116D01*
X148864521Y-99645307D01*
X148830303Y-99608095D01*
X148824485Y-99601768D01*
X148789413Y-99580022D01*
X148779631Y-99573299D01*
X148753609Y-99553547D01*
X148746765Y-99548352D01*
X148738778Y-99545190D01*
X148738775Y-99545188D01*
X148733886Y-99543252D01*
X148713885Y-99533193D01*
X148702119Y-99525898D01*
X148662488Y-99514384D01*
X148651264Y-99510540D01*
X148620885Y-99498513D01*
X148620882Y-99498512D01*
X148612897Y-99495351D01*
X148604360Y-99494454D01*
X148604353Y-99494452D01*
X148599130Y-99493903D01*
X148577153Y-99489592D01*
X148570191Y-99487569D01*
X148570189Y-99487569D01*
X148563857Y-99485729D01*
X148557042Y-99485229D01*
X148555965Y-99485149D01*
X148555952Y-99485149D01*
X148553657Y-99484980D01*
X148520830Y-99484980D01*
X148507659Y-99484290D01*
X148506860Y-99484206D01*
X148469707Y-99480301D01*
X148461241Y-99481733D01*
X148461238Y-99481733D01*
X148452471Y-99483216D01*
X148431459Y-99484980D01*
X147297000Y-99484980D01*
X147228879Y-99464978D01*
X147182386Y-99411322D01*
X147171000Y-99358980D01*
X147171000Y-99092885D01*
X147679000Y-99092885D01*
X147683475Y-99108124D01*
X147684865Y-99109329D01*
X147692548Y-99111000D01*
X148786878Y-99111000D01*
X148800409Y-99107027D01*
X148801544Y-99099129D01*
X148760893Y-98959210D01*
X148754648Y-98944779D01*
X148678088Y-98815322D01*
X148671811Y-98807230D01*
X148645861Y-98741146D01*
X148659759Y-98671523D01*
X148671811Y-98652770D01*
X148678088Y-98644678D01*
X148754648Y-98515221D01*
X148760893Y-98500790D01*
X148799939Y-98366395D01*
X148799899Y-98352294D01*
X148792630Y-98349000D01*
X147697115Y-98349000D01*
X147681876Y-98353475D01*
X147680671Y-98354865D01*
X147679000Y-98362548D01*
X147679000Y-99092885D01*
X147171000Y-99092885D01*
X147171000Y-97822885D01*
X147679000Y-97822885D01*
X147683475Y-97838124D01*
X147684865Y-97839329D01*
X147692548Y-97841000D01*
X148786878Y-97841000D01*
X148800409Y-97837027D01*
X148801544Y-97829129D01*
X148760893Y-97689210D01*
X148754648Y-97674779D01*
X148678089Y-97545322D01*
X148668449Y-97532896D01*
X148562104Y-97426551D01*
X148549678Y-97416911D01*
X148420221Y-97340352D01*
X148405790Y-97334107D01*
X148259935Y-97291731D01*
X148247333Y-97289430D01*
X148218916Y-97287193D01*
X148213986Y-97287000D01*
X147697115Y-97287000D01*
X147681876Y-97291475D01*
X147680671Y-97292865D01*
X147679000Y-97300548D01*
X147679000Y-97822885D01*
X147171000Y-97822885D01*
X147171000Y-97305116D01*
X147166525Y-97289877D01*
X147165135Y-97288672D01*
X147157452Y-97287001D01*
X146636017Y-97287001D01*
X146631080Y-97287195D01*
X146602664Y-97289430D01*
X146590069Y-97291730D01*
X146444210Y-97334107D01*
X146429779Y-97340352D01*
X146300322Y-97416911D01*
X146287896Y-97426551D01*
X146181551Y-97532896D01*
X146171909Y-97545325D01*
X146125527Y-97623755D01*
X146073635Y-97672208D01*
X146003784Y-97684914D01*
X145950957Y-97666877D01*
X145818120Y-97584996D01*
X145804939Y-97578849D01*
X145656186Y-97529509D01*
X145642810Y-97526642D01*
X145551903Y-97517328D01*
X145545486Y-97517000D01*
X145522115Y-97517000D01*
X145506876Y-97521475D01*
X145505671Y-97522865D01*
X145504000Y-97530548D01*
X145504000Y-98603000D01*
X145483998Y-98671121D01*
X145430342Y-98717614D01*
X145378000Y-98729000D01*
X144443012Y-98729000D01*
X144400746Y-98721699D01*
X144390589Y-98718082D01*
X144390583Y-98718081D01*
X144383951Y-98715719D01*
X144376965Y-98714886D01*
X144376961Y-98714885D01*
X144249177Y-98699648D01*
X144205624Y-98694455D01*
X144198621Y-98695191D01*
X144198620Y-98695191D01*
X144034025Y-98712490D01*
X144034021Y-98712491D01*
X144027017Y-98713227D01*
X144000429Y-98722278D01*
X143959825Y-98729000D01*
X142285115Y-98729000D01*
X142269876Y-98733475D01*
X142268671Y-98734865D01*
X142267000Y-98742548D01*
X142267000Y-98745438D01*
X142267337Y-98751953D01*
X142276894Y-98844057D01*
X142279788Y-98857456D01*
X142329381Y-99006107D01*
X142335555Y-99019286D01*
X142417788Y-99152173D01*
X142426824Y-99163574D01*
X142500415Y-99237037D01*
X142534494Y-99299320D01*
X142529491Y-99370140D01*
X142510956Y-99403437D01*
X142507439Y-99407971D01*
X142501830Y-99413580D01*
X142480218Y-99450124D01*
X142428328Y-99498575D01*
X142358477Y-99511281D01*
X142292846Y-99484206D01*
X142252775Y-99427421D01*
X142228941Y-99358980D01*
X142226485Y-99351927D01*
X142193613Y-99299320D01*
X142135049Y-99205599D01*
X142131316Y-99199625D01*
X142041648Y-99109329D01*
X142009733Y-99077190D01*
X142009729Y-99077187D01*
X142004770Y-99072193D01*
X141993761Y-99065206D01*
X141921402Y-99019286D01*
X141853136Y-98975963D01*
X141823352Y-98965357D01*
X141690586Y-98918081D01*
X141690581Y-98918080D01*
X141683951Y-98915719D01*
X141676965Y-98914886D01*
X141676961Y-98914885D01*
X141549177Y-98899648D01*
X141505624Y-98894455D01*
X141498621Y-98895191D01*
X141498620Y-98895191D01*
X141334025Y-98912490D01*
X141334021Y-98912491D01*
X141327017Y-98913227D01*
X141320346Y-98915498D01*
X141163677Y-98968832D01*
X141163674Y-98968833D01*
X141157007Y-98971103D01*
X141151009Y-98974793D01*
X141151007Y-98974794D01*
X141100109Y-99006107D01*
X141004045Y-99065206D01*
X140999014Y-99070132D01*
X140999011Y-99070135D01*
X140936883Y-99130976D01*
X140875732Y-99190859D01*
X140871913Y-99196784D01*
X140871912Y-99196786D01*
X140804216Y-99301830D01*
X140778446Y-99341817D01*
X140776037Y-99348437D01*
X140776035Y-99348440D01*
X140748167Y-99425009D01*
X140717022Y-99510578D01*
X140694514Y-99688753D01*
X139426902Y-99688753D01*
X139393756Y-99522115D01*
X139387043Y-99488364D01*
X139387042Y-99488362D01*
X139386175Y-99484001D01*
X139294653Y-99223384D01*
X139167322Y-98978263D01*
X139164739Y-98974648D01*
X139164735Y-98974642D01*
X139009313Y-98757150D01*
X139009310Y-98757146D01*
X139006725Y-98753529D01*
X138863127Y-98603000D01*
X138819136Y-98556885D01*
X138819134Y-98556883D01*
X138816064Y-98553665D01*
X138770067Y-98517404D01*
X138602639Y-98385414D01*
X138602637Y-98385413D01*
X138599144Y-98382659D01*
X138458360Y-98300885D01*
X138364147Y-98246161D01*
X138364141Y-98246158D01*
X138360293Y-98243923D01*
X138259570Y-98203126D01*
X142267071Y-98203126D01*
X142271475Y-98218124D01*
X142272865Y-98219329D01*
X142280548Y-98221000D01*
X142977885Y-98221000D01*
X142993124Y-98216525D01*
X142994329Y-98215135D01*
X142996000Y-98207452D01*
X142996000Y-98202885D01*
X143504000Y-98202885D01*
X143508475Y-98218124D01*
X143509865Y-98219329D01*
X143517548Y-98221000D01*
X144233000Y-98221000D01*
X144233000Y-98221105D01*
X144274254Y-98219631D01*
X144280547Y-98221000D01*
X144977885Y-98221000D01*
X144993124Y-98216525D01*
X144994329Y-98215135D01*
X144996000Y-98207452D01*
X144996000Y-97535115D01*
X144991525Y-97519876D01*
X144990135Y-97518671D01*
X144982452Y-97517000D01*
X144954562Y-97517000D01*
X144948047Y-97517337D01*
X144855943Y-97526894D01*
X144842544Y-97529788D01*
X144693893Y-97579381D01*
X144680714Y-97585555D01*
X144547827Y-97667788D01*
X144536426Y-97676824D01*
X144426014Y-97787429D01*
X144417002Y-97798840D01*
X144357297Y-97895700D01*
X144304525Y-97943193D01*
X144234453Y-97954617D01*
X144169329Y-97926343D01*
X144142892Y-97895887D01*
X144082207Y-97797821D01*
X144073176Y-97786426D01*
X143962571Y-97676014D01*
X143951160Y-97667002D01*
X143818120Y-97584996D01*
X143804939Y-97578849D01*
X143656186Y-97529509D01*
X143642810Y-97526642D01*
X143551903Y-97517328D01*
X143545486Y-97517000D01*
X143522115Y-97517000D01*
X143506876Y-97521475D01*
X143505671Y-97522865D01*
X143504000Y-97530548D01*
X143504000Y-98202885D01*
X142996000Y-98202885D01*
X142996000Y-97535115D01*
X142991525Y-97519876D01*
X142990135Y-97518671D01*
X142982452Y-97517000D01*
X142954562Y-97517000D01*
X142948047Y-97517337D01*
X142855943Y-97526894D01*
X142842544Y-97529788D01*
X142693893Y-97579381D01*
X142680714Y-97585555D01*
X142547827Y-97667788D01*
X142536426Y-97676824D01*
X142426014Y-97787429D01*
X142417002Y-97798840D01*
X142334996Y-97931880D01*
X142328849Y-97945061D01*
X142279509Y-98093814D01*
X142276642Y-98107190D01*
X142267328Y-98198097D01*
X142267071Y-98203126D01*
X138259570Y-98203126D01*
X138104277Y-98140226D01*
X138099964Y-98139155D01*
X138099959Y-98139153D01*
X137840525Y-98074709D01*
X137840520Y-98074708D01*
X137836204Y-98073636D01*
X137831776Y-98073182D01*
X137831774Y-98073182D01*
X137751573Y-98064965D01*
X137600630Y-98049500D01*
X137429638Y-98049500D01*
X137224470Y-98064027D01*
X137220115Y-98064965D01*
X137220112Y-98064965D01*
X136958785Y-98121227D01*
X136958783Y-98121227D01*
X136954438Y-98122163D01*
X136695291Y-98217767D01*
X136691373Y-98219881D01*
X136479666Y-98334112D01*
X136452200Y-98348932D01*
X136230016Y-98513040D01*
X136226837Y-98516169D01*
X136226834Y-98516172D01*
X136145831Y-98595913D01*
X136033171Y-98706817D01*
X135865594Y-98926396D01*
X135863416Y-98930285D01*
X135768859Y-99099129D01*
X135730627Y-99167396D01*
X135729023Y-99171541D01*
X135729022Y-99171544D01*
X135715847Y-99205599D01*
X135630964Y-99425009D01*
X135629961Y-99429334D01*
X135629960Y-99429339D01*
X135602083Y-99549610D01*
X135568593Y-99694095D01*
X135544759Y-99969285D01*
X133251419Y-99969285D01*
X132894379Y-99006107D01*
X131847866Y-96182957D01*
X133120541Y-96182957D01*
X133122771Y-96192616D01*
X133146808Y-96296728D01*
X133149080Y-96306571D01*
X133154187Y-96315070D01*
X133154188Y-96315073D01*
X133170318Y-96341917D01*
X133197985Y-96387962D01*
X133201166Y-96391753D01*
X133296301Y-96505131D01*
X133945571Y-97278900D01*
X133949313Y-97282153D01*
X133950163Y-97282892D01*
X134017234Y-97341197D01*
X134026361Y-97345071D01*
X134026364Y-97345073D01*
X134098085Y-97375516D01*
X134134014Y-97390767D01*
X134143889Y-97391631D01*
X134250522Y-97400960D01*
X134260398Y-97401824D01*
X134325066Y-97386894D01*
X134374349Y-97375516D01*
X134384012Y-97373285D01*
X134392511Y-97368178D01*
X134392514Y-97368177D01*
X134448246Y-97334689D01*
X134465403Y-97324380D01*
X135356341Y-96576794D01*
X135418638Y-96505131D01*
X135422512Y-96496004D01*
X135422514Y-96496001D01*
X135464335Y-96397475D01*
X135468208Y-96388351D01*
X135476034Y-96298904D01*
X135478401Y-96271843D01*
X135479265Y-96261967D01*
X135450726Y-96138353D01*
X135445619Y-96129854D01*
X135445618Y-96129851D01*
X135423305Y-96092717D01*
X135401821Y-96056962D01*
X134854881Y-95405144D01*
X134826417Y-95340105D01*
X134825403Y-95324154D01*
X134825403Y-95298888D01*
X134845405Y-95230767D01*
X134862308Y-95209793D01*
X135484357Y-94587744D01*
X135546669Y-94553718D01*
X135617484Y-94558783D01*
X135629672Y-94564077D01*
X135729799Y-94613997D01*
X135749964Y-94624051D01*
X135755344Y-94625624D01*
X135755346Y-94625625D01*
X135807776Y-94640956D01*
X135967642Y-94687703D01*
X135973213Y-94688298D01*
X135973216Y-94688299D01*
X136187574Y-94711208D01*
X136193151Y-94711804D01*
X136419364Y-94695588D01*
X136424799Y-94694203D01*
X136424803Y-94694202D01*
X136556715Y-94660578D01*
X136639130Y-94639571D01*
X136750639Y-94588753D01*
X142194514Y-94588753D01*
X142195201Y-94595760D01*
X142195201Y-94595763D01*
X142202242Y-94667569D01*
X142212039Y-94767486D01*
X142214262Y-94774168D01*
X142214262Y-94774169D01*
X142262285Y-94918532D01*
X142268726Y-94937896D01*
X142272373Y-94943918D01*
X142357173Y-95083939D01*
X142361759Y-95091512D01*
X142366648Y-95096575D01*
X142366649Y-95096576D01*
X142423830Y-95155788D01*
X142486514Y-95220699D01*
X142636789Y-95319036D01*
X142805116Y-95381636D01*
X142812097Y-95382567D01*
X142812099Y-95382568D01*
X142976149Y-95404457D01*
X142976153Y-95404457D01*
X142983130Y-95405388D01*
X142990142Y-95404750D01*
X142990146Y-95404750D01*
X143154960Y-95389751D01*
X143154961Y-95389751D01*
X143161981Y-95389112D01*
X143332782Y-95333615D01*
X143365160Y-95314314D01*
X143480992Y-95245265D01*
X143480994Y-95245264D01*
X143487044Y-95241657D01*
X143598779Y-95135253D01*
X143661904Y-95102761D01*
X143685671Y-95100499D01*
X143831518Y-95100499D01*
X143836412Y-95099724D01*
X143915506Y-95087198D01*
X143915508Y-95087197D01*
X143925304Y-95085646D01*
X143934141Y-95081143D01*
X143934145Y-95081142D01*
X143942798Y-95076733D01*
X144012575Y-95063629D01*
X144057202Y-95076733D01*
X144065860Y-95081144D01*
X144074696Y-95085646D01*
X144084485Y-95087196D01*
X144084487Y-95087197D01*
X144111733Y-95091512D01*
X144168481Y-95100500D01*
X144173434Y-95100500D01*
X144731518Y-95100499D01*
X144731518Y-95102781D01*
X144791754Y-95115451D01*
X144842300Y-95165307D01*
X144851688Y-95186678D01*
X144868726Y-95237896D01*
X144872373Y-95243918D01*
X144872374Y-95243920D01*
X144946324Y-95366025D01*
X144961759Y-95391512D01*
X145086514Y-95520699D01*
X145236789Y-95619036D01*
X145405116Y-95681636D01*
X145412097Y-95682567D01*
X145412099Y-95682568D01*
X145576149Y-95704457D01*
X145576153Y-95704457D01*
X145583130Y-95705388D01*
X145590142Y-95704750D01*
X145590146Y-95704750D01*
X145754960Y-95689751D01*
X145754961Y-95689751D01*
X145761981Y-95689112D01*
X145893409Y-95646408D01*
X145926082Y-95635792D01*
X145932782Y-95633615D01*
X145941317Y-95628527D01*
X146080992Y-95545265D01*
X146080994Y-95545264D01*
X146087044Y-95541657D01*
X146217099Y-95417807D01*
X146225958Y-95404474D01*
X146275432Y-95330008D01*
X146316483Y-95268222D01*
X146335512Y-95218128D01*
X146377757Y-95106919D01*
X146377758Y-95106914D01*
X146380257Y-95100336D01*
X146381497Y-95091512D01*
X146404700Y-94926416D01*
X146404700Y-94926411D01*
X146405251Y-94922493D01*
X146405565Y-94900000D01*
X146385546Y-94721528D01*
X146381834Y-94710867D01*
X146354702Y-94632955D01*
X146326485Y-94551927D01*
X146320220Y-94541900D01*
X146235049Y-94405599D01*
X146231316Y-94399625D01*
X146133938Y-94301565D01*
X146109733Y-94277190D01*
X146109729Y-94277187D01*
X146104770Y-94272193D01*
X146084787Y-94259511D01*
X146009157Y-94211515D01*
X145953136Y-94175963D01*
X145918383Y-94163588D01*
X145790586Y-94118081D01*
X145790581Y-94118080D01*
X145783951Y-94115719D01*
X145776965Y-94114886D01*
X145776961Y-94114885D01*
X145659858Y-94100922D01*
X145605624Y-94094455D01*
X145598622Y-94095191D01*
X145592072Y-94095145D01*
X145524092Y-94074667D01*
X145500207Y-94054437D01*
X145488116Y-94041288D01*
X145453044Y-94019542D01*
X145443262Y-94012819D01*
X145417240Y-93993067D01*
X145410396Y-93987872D01*
X145402409Y-93984710D01*
X145402406Y-93984708D01*
X145397517Y-93982772D01*
X145377516Y-93972713D01*
X145365750Y-93965418D01*
X145326119Y-93953904D01*
X145314896Y-93950061D01*
X145287619Y-93939262D01*
X145231644Y-93895589D01*
X145208000Y-93822109D01*
X145208000Y-93818115D01*
X145203525Y-93802876D01*
X145202135Y-93801671D01*
X145194452Y-93800000D01*
X144737873Y-93800000D01*
X144733622Y-93799833D01*
X144731519Y-93799500D01*
X144711434Y-93799500D01*
X144326499Y-93799501D01*
X144258380Y-93779499D01*
X144211886Y-93725844D01*
X144200500Y-93673501D01*
X144200499Y-93281885D01*
X144700000Y-93281885D01*
X144704475Y-93297124D01*
X144705865Y-93298329D01*
X144713548Y-93300000D01*
X145189884Y-93300000D01*
X145205123Y-93295525D01*
X145206328Y-93294135D01*
X145207999Y-93286452D01*
X145207999Y-93255331D01*
X145207629Y-93248510D01*
X145202105Y-93197648D01*
X145198479Y-93182396D01*
X145153324Y-93061946D01*
X145144786Y-93046351D01*
X145068285Y-92944276D01*
X145055724Y-92931715D01*
X144953649Y-92855214D01*
X144938054Y-92846676D01*
X144817606Y-92801522D01*
X144802351Y-92797895D01*
X144751486Y-92792369D01*
X144744672Y-92792000D01*
X144718115Y-92792000D01*
X144702876Y-92796475D01*
X144701671Y-92797865D01*
X144700000Y-92805548D01*
X144700000Y-93281885D01*
X144200499Y-93281885D01*
X144200499Y-93273437D01*
X144200499Y-93268482D01*
X144200166Y-93266382D01*
X144200000Y-93262141D01*
X144200000Y-92810116D01*
X144195525Y-92794877D01*
X144194135Y-92793672D01*
X144186452Y-92792001D01*
X144155331Y-92792001D01*
X144148510Y-92792371D01*
X144097648Y-92797895D01*
X144082396Y-92801521D01*
X143961946Y-92846676D01*
X143946352Y-92855214D01*
X143919541Y-92875307D01*
X143853034Y-92900154D01*
X143835281Y-92900096D01*
X143831519Y-92899500D01*
X143550171Y-92899500D01*
X143268482Y-92899501D01*
X143263589Y-92900276D01*
X143263588Y-92900276D01*
X143184494Y-92912802D01*
X143184492Y-92912803D01*
X143174696Y-92914354D01*
X143165859Y-92918857D01*
X143165858Y-92918857D01*
X143143105Y-92930451D01*
X143061658Y-92971950D01*
X142971950Y-93061658D01*
X142914354Y-93174696D01*
X142912804Y-93184485D01*
X142912803Y-93184487D01*
X142910577Y-93198543D01*
X142899500Y-93268481D01*
X142899501Y-93535181D01*
X142899501Y-93698344D01*
X142879499Y-93766464D01*
X142825844Y-93812958D01*
X142814109Y-93817621D01*
X142657007Y-93871103D01*
X142651009Y-93874793D01*
X142651007Y-93874794D01*
X142585654Y-93915000D01*
X142504045Y-93965206D01*
X142499014Y-93970132D01*
X142499011Y-93970135D01*
X142440419Y-94027513D01*
X142375732Y-94090859D01*
X142371913Y-94096784D01*
X142371912Y-94096786D01*
X142305395Y-94200000D01*
X142278446Y-94241817D01*
X142276037Y-94248437D01*
X142276035Y-94248440D01*
X142263430Y-94283072D01*
X142217022Y-94410578D01*
X142194514Y-94588753D01*
X136750639Y-94588753D01*
X136845503Y-94545521D01*
X136991992Y-94444088D01*
X137027343Y-94419610D01*
X137027346Y-94419608D01*
X137031961Y-94416412D01*
X137037816Y-94410578D01*
X137124161Y-94324532D01*
X137192606Y-94256325D01*
X137242838Y-94184320D01*
X137319159Y-94074917D01*
X137319162Y-94074912D01*
X137322366Y-94070319D01*
X137385870Y-93932249D01*
X137414790Y-93869373D01*
X137414791Y-93869370D01*
X137417134Y-93864276D01*
X137424845Y-93834462D01*
X137472514Y-93650139D01*
X137472514Y-93650138D01*
X137473919Y-93644706D01*
X137489383Y-93439038D01*
X137490502Y-93424152D01*
X137490502Y-93424151D01*
X137490923Y-93418552D01*
X137467611Y-93192959D01*
X137454750Y-93148402D01*
X137455076Y-93077408D01*
X137493733Y-93017859D01*
X137558449Y-92988663D01*
X137632029Y-93000699D01*
X137751511Y-93060270D01*
X137756891Y-93061843D01*
X137756893Y-93061844D01*
X137858962Y-93091690D01*
X137969189Y-93123922D01*
X137974760Y-93124517D01*
X137974763Y-93124518D01*
X138189121Y-93147427D01*
X138194698Y-93148023D01*
X138420911Y-93131807D01*
X138426346Y-93130422D01*
X138426350Y-93130421D01*
X138533653Y-93103070D01*
X138640677Y-93075790D01*
X138847050Y-92981740D01*
X138904561Y-92941918D01*
X139028890Y-92855829D01*
X139028893Y-92855827D01*
X139033508Y-92852631D01*
X139062704Y-92823537D01*
X139190178Y-92696505D01*
X139194153Y-92692544D01*
X139271307Y-92581947D01*
X139320706Y-92511136D01*
X139320709Y-92511131D01*
X139323913Y-92506538D01*
X139387440Y-92368418D01*
X139416337Y-92305592D01*
X139416338Y-92305589D01*
X139418681Y-92300495D01*
X139423006Y-92283774D01*
X139474061Y-92086358D01*
X139474061Y-92086357D01*
X139475466Y-92080925D01*
X139492470Y-91854771D01*
X139469158Y-91629178D01*
X139464101Y-91611658D01*
X139456298Y-91584622D01*
X139456625Y-91513626D01*
X139495283Y-91454078D01*
X139559999Y-91424882D01*
X139633576Y-91436919D01*
X139753058Y-91496490D01*
X139758438Y-91498063D01*
X139758440Y-91498064D01*
X139825886Y-91517786D01*
X139970736Y-91560142D01*
X139976307Y-91560737D01*
X139976320Y-91560740D01*
X140012176Y-91564572D01*
X140077785Y-91591700D01*
X140118312Y-91649993D01*
X140120891Y-91720942D01*
X140086941Y-91779883D01*
X140075732Y-91790859D01*
X140071913Y-91796784D01*
X140071912Y-91796786D01*
X139986056Y-91930008D01*
X139978446Y-91941817D01*
X139976037Y-91948437D01*
X139976035Y-91948440D01*
X139961791Y-91987577D01*
X139917022Y-92110578D01*
X139894514Y-92288753D01*
X139895201Y-92295760D01*
X139895201Y-92295763D01*
X139897143Y-92315564D01*
X139912039Y-92467486D01*
X139914262Y-92474168D01*
X139914262Y-92474169D01*
X139966480Y-92631143D01*
X139968726Y-92637896D01*
X139972373Y-92643918D01*
X140046835Y-92766869D01*
X140061759Y-92791512D01*
X140066648Y-92796575D01*
X140066649Y-92796576D01*
X140087152Y-92817807D01*
X140186514Y-92920699D01*
X140336789Y-93019036D01*
X140505116Y-93081636D01*
X140512097Y-93082567D01*
X140512099Y-93082568D01*
X140676149Y-93104457D01*
X140676153Y-93104457D01*
X140683130Y-93105388D01*
X140690142Y-93104750D01*
X140690146Y-93104750D01*
X140854960Y-93089751D01*
X140854961Y-93089751D01*
X140861981Y-93089112D01*
X141032782Y-93033615D01*
X141042381Y-93027893D01*
X141180992Y-92945265D01*
X141180994Y-92945264D01*
X141187044Y-92941657D01*
X141317099Y-92817807D01*
X141327340Y-92802394D01*
X141397692Y-92696505D01*
X141416483Y-92668222D01*
X141451171Y-92576906D01*
X141477757Y-92506919D01*
X141477758Y-92506914D01*
X141480257Y-92500336D01*
X141486468Y-92456141D01*
X141504700Y-92326416D01*
X141504700Y-92326411D01*
X141505251Y-92322493D01*
X141505565Y-92300000D01*
X141505165Y-92296436D01*
X141521799Y-92227500D01*
X141541901Y-92201268D01*
X142235843Y-91507327D01*
X142298155Y-91473302D01*
X142368971Y-91478367D01*
X142393931Y-91490991D01*
X142408464Y-91500501D01*
X142436789Y-91519036D01*
X142443381Y-91521488D01*
X142443384Y-91521489D01*
X142487502Y-91537896D01*
X142605116Y-91581636D01*
X142612097Y-91582567D01*
X142612099Y-91582568D01*
X142776149Y-91604457D01*
X142776153Y-91604457D01*
X142783130Y-91605388D01*
X142790142Y-91604750D01*
X142790146Y-91604750D01*
X142954960Y-91589751D01*
X142954961Y-91589751D01*
X142961981Y-91589112D01*
X143132782Y-91533615D01*
X143143555Y-91527193D01*
X143280992Y-91445265D01*
X143280994Y-91445264D01*
X143287044Y-91441657D01*
X143417099Y-91317807D01*
X143424044Y-91307355D01*
X143497986Y-91196062D01*
X143516483Y-91168222D01*
X143547102Y-91087618D01*
X143577757Y-91006919D01*
X143577758Y-91006914D01*
X143580257Y-91000336D01*
X143582299Y-90985809D01*
X143591530Y-90920127D01*
X143620819Y-90855453D01*
X143680423Y-90816880D01*
X143751419Y-90816655D01*
X143805399Y-90848568D01*
X144434703Y-91477872D01*
X144465165Y-91527191D01*
X144468726Y-91537896D01*
X144472373Y-91543918D01*
X144472374Y-91543920D01*
X144545828Y-91665206D01*
X144561759Y-91691512D01*
X144566648Y-91696575D01*
X144566649Y-91696576D01*
X144617942Y-91749691D01*
X144686514Y-91820699D01*
X144836789Y-91919036D01*
X145005116Y-91981636D01*
X145012097Y-91982567D01*
X145012099Y-91982568D01*
X145176149Y-92004457D01*
X145176153Y-92004457D01*
X145183130Y-92005388D01*
X145190142Y-92004750D01*
X145190146Y-92004750D01*
X145354960Y-91989751D01*
X145354961Y-91989751D01*
X145361981Y-91989112D01*
X145532782Y-91933615D01*
X145538833Y-91930008D01*
X145680992Y-91845265D01*
X145680994Y-91845264D01*
X145687044Y-91841657D01*
X145817099Y-91717807D01*
X145825218Y-91705588D01*
X145892214Y-91604750D01*
X145916483Y-91568222D01*
X145931562Y-91528527D01*
X145977757Y-91406919D01*
X145977758Y-91406914D01*
X145980257Y-91400336D01*
X145982987Y-91380910D01*
X146004700Y-91226416D01*
X146004700Y-91226411D01*
X146005251Y-91222493D01*
X146005565Y-91200000D01*
X145985546Y-91021528D01*
X145961083Y-90951278D01*
X145928803Y-90858584D01*
X145926485Y-90851927D01*
X145913379Y-90830952D01*
X145835049Y-90705599D01*
X145831316Y-90699625D01*
X145722378Y-90589924D01*
X145709733Y-90577190D01*
X145709729Y-90577187D01*
X145704770Y-90572193D01*
X145687075Y-90560963D01*
X145638362Y-90530049D01*
X145553136Y-90475963D01*
X145515106Y-90462421D01*
X145390586Y-90418081D01*
X145390581Y-90418080D01*
X145383951Y-90415719D01*
X145376965Y-90414886D01*
X145376961Y-90414885D01*
X145249177Y-90399648D01*
X145205624Y-90394455D01*
X145198621Y-90395191D01*
X145198620Y-90395191D01*
X145034025Y-90412490D01*
X145034021Y-90412491D01*
X145027017Y-90413227D01*
X145020346Y-90415498D01*
X144973971Y-90431285D01*
X144903038Y-90434303D01*
X144844271Y-90401102D01*
X143512265Y-89069096D01*
X143478239Y-89006784D01*
X143477052Y-88959419D01*
X143477153Y-88958810D01*
X143478561Y-88953365D01*
X143487528Y-88834103D01*
X143512581Y-88767674D01*
X143569571Y-88725335D01*
X143640405Y-88720528D01*
X143703505Y-88755709D01*
X143739006Y-88792217D01*
X143751257Y-88802005D01*
X143860996Y-88869121D01*
X143877320Y-88876152D01*
X144000447Y-88909490D01*
X144018086Y-88911656D01*
X144145626Y-88909095D01*
X144163159Y-88906224D01*
X144285878Y-88867649D01*
X144300131Y-88861115D01*
X144343615Y-88834154D01*
X144349217Y-88830246D01*
X144855551Y-88434654D01*
X144864807Y-88421743D01*
X144864900Y-88419905D01*
X144861488Y-88412824D01*
X143914651Y-87200928D01*
X143794679Y-87047371D01*
X144441461Y-87047371D01*
X144444873Y-87054452D01*
X145258983Y-88096466D01*
X145271894Y-88105722D01*
X145273732Y-88105815D01*
X145280813Y-88102403D01*
X145790759Y-87703988D01*
X145795885Y-87699518D01*
X145832578Y-87663836D01*
X145842368Y-87651584D01*
X145909481Y-87541848D01*
X145916510Y-87525527D01*
X145949849Y-87402398D01*
X145952015Y-87384758D01*
X145949455Y-87257217D01*
X145946584Y-87239686D01*
X145908009Y-87116967D01*
X145901475Y-87102714D01*
X145874514Y-87059230D01*
X145870606Y-87053628D01*
X145333412Y-86366051D01*
X145320501Y-86356795D01*
X145318663Y-86356702D01*
X145311582Y-86360114D01*
X144450810Y-87032623D01*
X144441554Y-87045533D01*
X144441461Y-87047371D01*
X143794679Y-87047371D01*
X142901016Y-85903534D01*
X142888106Y-85894278D01*
X142886268Y-85894185D01*
X142879187Y-85897597D01*
X142369241Y-86296012D01*
X142364115Y-86300482D01*
X142327422Y-86336164D01*
X142317632Y-86348416D01*
X142250519Y-86458152D01*
X142243490Y-86474473D01*
X142210151Y-86597602D01*
X142207985Y-86615242D01*
X142210545Y-86742783D01*
X142213416Y-86760314D01*
X142251991Y-86883033D01*
X142258524Y-86897284D01*
X142283260Y-86937180D01*
X142302156Y-87005615D01*
X142281054Y-87073404D01*
X142226653Y-87119022D01*
X142162784Y-87128863D01*
X141964690Y-87107693D01*
X141959113Y-87107097D01*
X141732900Y-87123313D01*
X141727465Y-87124698D01*
X141727461Y-87124699D01*
X141620158Y-87152050D01*
X141513134Y-87179330D01*
X141306761Y-87273380D01*
X141302147Y-87276575D01*
X141124921Y-87399291D01*
X141124918Y-87399293D01*
X141120303Y-87402489D01*
X141116324Y-87406454D01*
X141116323Y-87406455D01*
X141063189Y-87459405D01*
X140959658Y-87562576D01*
X140956453Y-87567170D01*
X140956449Y-87567175D01*
X140831744Y-87745935D01*
X140776364Y-87790360D01*
X140705757Y-87797792D01*
X140642341Y-87765871D01*
X140606250Y-87704733D01*
X140602405Y-87673844D01*
X140602405Y-87192954D01*
X140622407Y-87124833D01*
X140639310Y-87103859D01*
X141001478Y-86741691D01*
X141063790Y-86707665D01*
X141083166Y-86705786D01*
X141083130Y-86705388D01*
X141254960Y-86689751D01*
X141254961Y-86689751D01*
X141261981Y-86689112D01*
X141432782Y-86633615D01*
X141438833Y-86630008D01*
X141580992Y-86545265D01*
X141580994Y-86545264D01*
X141587044Y-86541657D01*
X141717099Y-86417807D01*
X141816483Y-86268222D01*
X141831168Y-86229564D01*
X141877757Y-86106919D01*
X141877758Y-86106914D01*
X141880257Y-86100336D01*
X141894392Y-85999761D01*
X141904700Y-85926416D01*
X141904700Y-85926411D01*
X141905251Y-85922493D01*
X141905565Y-85900000D01*
X141885546Y-85721528D01*
X141879427Y-85703955D01*
X141851242Y-85623019D01*
X141836294Y-85580095D01*
X143295100Y-85580095D01*
X143298512Y-85587176D01*
X144112622Y-86629190D01*
X144125533Y-86638446D01*
X144127371Y-86638539D01*
X144134452Y-86635127D01*
X144995223Y-85962619D01*
X145004479Y-85949708D01*
X145004572Y-85947870D01*
X145001160Y-85940789D01*
X144461151Y-85249609D01*
X144456664Y-85244465D01*
X144420990Y-85207780D01*
X144408743Y-85197995D01*
X144299004Y-85130879D01*
X144282680Y-85123848D01*
X144159553Y-85090510D01*
X144141914Y-85088344D01*
X144014374Y-85090905D01*
X143996841Y-85093776D01*
X143874122Y-85132351D01*
X143859869Y-85138885D01*
X143816385Y-85165846D01*
X143810783Y-85169754D01*
X143304449Y-85565346D01*
X143295193Y-85578257D01*
X143295100Y-85580095D01*
X141836294Y-85580095D01*
X141826485Y-85551927D01*
X141798602Y-85507304D01*
X141735049Y-85405599D01*
X141731316Y-85399625D01*
X141667771Y-85335635D01*
X141609733Y-85277190D01*
X141609729Y-85277187D01*
X141604770Y-85272193D01*
X141593761Y-85265206D01*
X141503271Y-85207780D01*
X141453136Y-85175963D01*
X141423352Y-85165357D01*
X141290586Y-85118081D01*
X141290581Y-85118080D01*
X141283951Y-85115719D01*
X141276965Y-85114886D01*
X141276961Y-85114885D01*
X141149177Y-85099648D01*
X141105624Y-85094455D01*
X141098621Y-85095191D01*
X141098620Y-85095191D01*
X140934025Y-85112490D01*
X140934021Y-85112491D01*
X140927017Y-85113227D01*
X140920346Y-85115498D01*
X140763677Y-85168832D01*
X140763674Y-85168833D01*
X140757007Y-85171103D01*
X140751009Y-85174793D01*
X140751007Y-85174794D01*
X140713295Y-85197995D01*
X140604045Y-85265206D01*
X140599014Y-85270132D01*
X140599011Y-85270135D01*
X140591807Y-85277190D01*
X140475732Y-85390859D01*
X140471913Y-85396784D01*
X140471912Y-85396786D01*
X140435610Y-85453116D01*
X140378446Y-85541817D01*
X140376037Y-85548437D01*
X140376035Y-85548440D01*
X140348891Y-85623019D01*
X140317022Y-85710578D01*
X140294514Y-85888753D01*
X140295201Y-85895760D01*
X140295201Y-85895762D01*
X140295271Y-85896473D01*
X140295185Y-85896925D01*
X140295103Y-85902807D01*
X140294070Y-85902793D01*
X140282012Y-85966220D01*
X140258967Y-85997864D01*
X139715540Y-86541291D01*
X139711731Y-86544944D01*
X139668193Y-86584979D01*
X139663665Y-86592282D01*
X139663664Y-86592283D01*
X139646448Y-86620050D01*
X139639725Y-86629832D01*
X139614777Y-86662699D01*
X139611615Y-86670686D01*
X139611613Y-86670689D01*
X139609677Y-86675578D01*
X139599618Y-86695579D01*
X139592323Y-86707345D01*
X139582344Y-86741691D01*
X139580810Y-86746972D01*
X139576965Y-86758200D01*
X139564938Y-86788579D01*
X139564937Y-86788582D01*
X139561776Y-86796567D01*
X139560879Y-86805104D01*
X139560877Y-86805111D01*
X139560328Y-86810334D01*
X139556017Y-86832310D01*
X139552154Y-86845607D01*
X139551405Y-86855807D01*
X139551405Y-86888634D01*
X139550715Y-86901805D01*
X139546726Y-86939757D01*
X139548158Y-86948223D01*
X139548158Y-86948226D01*
X139549641Y-86956993D01*
X139551405Y-86978005D01*
X139551405Y-88643917D01*
X139531403Y-88712038D01*
X139477657Y-88758572D01*
X139457685Y-88767674D01*
X139305213Y-88837160D01*
X139300599Y-88840355D01*
X139123373Y-88963071D01*
X139123370Y-88963073D01*
X139118755Y-88966269D01*
X139114776Y-88970234D01*
X139114775Y-88970235D01*
X139078099Y-89006784D01*
X138958110Y-89126356D01*
X138954905Y-89130950D01*
X138954901Y-89130955D01*
X138904163Y-89203686D01*
X138828350Y-89312361D01*
X138733582Y-89518405D01*
X138676797Y-89737975D01*
X138659793Y-89964129D01*
X138683105Y-90189722D01*
X138684662Y-90195117D01*
X138684663Y-90195121D01*
X138695965Y-90234278D01*
X138695638Y-90305274D01*
X138656980Y-90364822D01*
X138592264Y-90394018D01*
X138518687Y-90381981D01*
X138399205Y-90322410D01*
X138281305Y-90287934D01*
X138186914Y-90260332D01*
X138186911Y-90260331D01*
X138181527Y-90258757D01*
X137956018Y-90234657D01*
X137729805Y-90250873D01*
X137724370Y-90252258D01*
X137724366Y-90252259D01*
X137617063Y-90279610D01*
X137510039Y-90306890D01*
X137303666Y-90400940D01*
X137282322Y-90415719D01*
X137121826Y-90526851D01*
X137121823Y-90526853D01*
X137117208Y-90530049D01*
X137113229Y-90534014D01*
X137113228Y-90534015D01*
X137086186Y-90560963D01*
X136956563Y-90690136D01*
X136953358Y-90694730D01*
X136953354Y-90694735D01*
X136847864Y-90845951D01*
X136826803Y-90876141D01*
X136732035Y-91082185D01*
X136675250Y-91301755D01*
X136674829Y-91307355D01*
X136659794Y-91507327D01*
X136658246Y-91527909D01*
X136681558Y-91753502D01*
X136694419Y-91798059D01*
X136694093Y-91869053D01*
X136655436Y-91928602D01*
X136590720Y-91957798D01*
X136517140Y-91945762D01*
X136439232Y-91906919D01*
X136397658Y-91886191D01*
X136256822Y-91845008D01*
X136185367Y-91824113D01*
X136185364Y-91824112D01*
X136179980Y-91822538D01*
X135954471Y-91798438D01*
X135728258Y-91814654D01*
X135722823Y-91816039D01*
X135722819Y-91816040D01*
X135636926Y-91837934D01*
X135508492Y-91870671D01*
X135302119Y-91964721D01*
X135297505Y-91967916D01*
X135120279Y-92090632D01*
X135120276Y-92090634D01*
X135115661Y-92093830D01*
X135111682Y-92097795D01*
X135111681Y-92097796D01*
X135068678Y-92140650D01*
X134955016Y-92253917D01*
X134951811Y-92258511D01*
X134951807Y-92258516D01*
X134828665Y-92435035D01*
X134825256Y-92439922D01*
X134730488Y-92645966D01*
X134714347Y-92708379D01*
X134678581Y-92846676D01*
X134673703Y-92865536D01*
X134669694Y-92918857D01*
X134657640Y-93079181D01*
X134656699Y-93091690D01*
X134680011Y-93317283D01*
X134681568Y-93322676D01*
X134681568Y-93322678D01*
X134727960Y-93483402D01*
X134742905Y-93535181D01*
X134775312Y-93600751D01*
X134804630Y-93660073D01*
X134816880Y-93730004D01*
X134789378Y-93795458D01*
X134780768Y-93804994D01*
X133938527Y-94647236D01*
X133934717Y-94650889D01*
X133891191Y-94690913D01*
X133886663Y-94698216D01*
X133886662Y-94698217D01*
X133869446Y-94725984D01*
X133862723Y-94735766D01*
X133837775Y-94768633D01*
X133834613Y-94776620D01*
X133834611Y-94776623D01*
X133832675Y-94781512D01*
X133822616Y-94801513D01*
X133815321Y-94813279D01*
X133809950Y-94831766D01*
X133803808Y-94852906D01*
X133799963Y-94864134D01*
X133787936Y-94894513D01*
X133787935Y-94894516D01*
X133784774Y-94902501D01*
X133783877Y-94911038D01*
X133783875Y-94911045D01*
X133783326Y-94916268D01*
X133779015Y-94938244D01*
X133775152Y-94951541D01*
X133774403Y-94961741D01*
X133774403Y-94994568D01*
X133773713Y-95007739D01*
X133769724Y-95045691D01*
X133771156Y-95054157D01*
X133771156Y-95054160D01*
X133772639Y-95062927D01*
X133774403Y-95083939D01*
X133774403Y-95363865D01*
X133754401Y-95431986D01*
X133729394Y-95460387D01*
X133717105Y-95470699D01*
X133243465Y-95868130D01*
X133181168Y-95939793D01*
X133177294Y-95948920D01*
X133177292Y-95948923D01*
X133155525Y-96000205D01*
X133131598Y-96056573D01*
X133120541Y-96182957D01*
X131847866Y-96182957D01*
X131392898Y-94955601D01*
X131857940Y-94955601D01*
X131861597Y-94962559D01*
X132071875Y-95213158D01*
X132076526Y-95218128D01*
X132113461Y-95253549D01*
X132126044Y-95262903D01*
X132238064Y-95326150D01*
X132254614Y-95332602D01*
X132378838Y-95361625D01*
X132396533Y-95363173D01*
X132523912Y-95356163D01*
X132541331Y-95352682D01*
X132662635Y-95309847D01*
X132676642Y-95302825D01*
X132719173Y-95274353D01*
X132724616Y-95270266D01*
X132971713Y-95062926D01*
X132980512Y-95049701D01*
X132980541Y-95047862D01*
X132976884Y-95040904D01*
X132480435Y-94449259D01*
X132467210Y-94440460D01*
X132465371Y-94440431D01*
X132458413Y-94444088D01*
X131866768Y-94940537D01*
X131857969Y-94953762D01*
X131857940Y-94955601D01*
X131392898Y-94955601D01*
X131279346Y-94649274D01*
X131274424Y-94578448D01*
X131308574Y-94516204D01*
X131370955Y-94482305D01*
X131441760Y-94487512D01*
X131494012Y-94524488D01*
X131514709Y-94549154D01*
X131527934Y-94557953D01*
X131529773Y-94557982D01*
X131536731Y-94554325D01*
X132063559Y-94112264D01*
X132862990Y-94112264D01*
X132866647Y-94119222D01*
X133363096Y-94710867D01*
X133376321Y-94719666D01*
X133378160Y-94719695D01*
X133385118Y-94716038D01*
X133635717Y-94505760D01*
X133640687Y-94501109D01*
X133676108Y-94464174D01*
X133685462Y-94451591D01*
X133748709Y-94339571D01*
X133755161Y-94323021D01*
X133784184Y-94198797D01*
X133785732Y-94181102D01*
X133778722Y-94053723D01*
X133775241Y-94036304D01*
X133732406Y-93915000D01*
X133725384Y-93900993D01*
X133696912Y-93858462D01*
X133692825Y-93853019D01*
X133485485Y-93605922D01*
X133472260Y-93597123D01*
X133470421Y-93597094D01*
X133463463Y-93600751D01*
X132871818Y-94097200D01*
X132863019Y-94110425D01*
X132862990Y-94112264D01*
X132063559Y-94112264D01*
X132128376Y-94057876D01*
X132137175Y-94044651D01*
X132137204Y-94042812D01*
X132133547Y-94035854D01*
X131637098Y-93444209D01*
X131623873Y-93435410D01*
X131622034Y-93435381D01*
X131615076Y-93439038D01*
X131364477Y-93649316D01*
X131359507Y-93653967D01*
X131324086Y-93690902D01*
X131314732Y-93703485D01*
X131251485Y-93815505D01*
X131245033Y-93832054D01*
X131236460Y-93868748D01*
X131201484Y-93930531D01*
X131138658Y-93963597D01*
X131067928Y-93957448D01*
X131011751Y-93914036D01*
X130995620Y-93883876D01*
X130992254Y-93874794D01*
X130707720Y-93107214D01*
X132019653Y-93107214D01*
X132023310Y-93114172D01*
X132519759Y-93705817D01*
X132532984Y-93714616D01*
X132534823Y-93714645D01*
X132541781Y-93710988D01*
X133133426Y-93214539D01*
X133142225Y-93201314D01*
X133142254Y-93199475D01*
X133138597Y-93192517D01*
X132928319Y-92941918D01*
X132923668Y-92936948D01*
X132886733Y-92901527D01*
X132874150Y-92892173D01*
X132762130Y-92828926D01*
X132745580Y-92822474D01*
X132621356Y-92793451D01*
X132603661Y-92791903D01*
X132476282Y-92798913D01*
X132458863Y-92802394D01*
X132337559Y-92845229D01*
X132323552Y-92852251D01*
X132281021Y-92880723D01*
X132275578Y-92884810D01*
X132028481Y-93092150D01*
X132019682Y-93105375D01*
X132019653Y-93107214D01*
X130707720Y-93107214D01*
X130379649Y-92222187D01*
X130009540Y-91223752D01*
X130004618Y-91152926D01*
X130038768Y-91090682D01*
X130050691Y-91080217D01*
X130054613Y-91077190D01*
X143689973Y-80551649D01*
X143756119Y-80525857D01*
X143825709Y-80539920D01*
G37*
G04 #@! TD.AperFunction*
M02*
