G04 #@! TF.GenerationSoftware,KiCad,Pcbnew,6.0.2+dfsg-1*
G04 #@! TF.CreationDate,2023-01-26T22:51:51-08:00*
G04 #@! TF.ProjectId,rp2040_encoder,72703230-3430-45f6-956e-636f6465722e,rev?*
G04 #@! TF.SameCoordinates,Original*
G04 #@! TF.FileFunction,Legend,Top*
G04 #@! TF.FilePolarity,Positive*
%FSLAX46Y46*%
G04 Gerber Fmt 4.6, Leading zero omitted, Abs format (unit mm)*
G04 Created by KiCad (PCBNEW 6.0.2+dfsg-1) date 2023-01-26 22:51:51*
%MOMM*%
%LPD*%
G01*
G04 APERTURE LIST*
G04 Aperture macros list*
%AMRoundRect*
0 Rectangle with rounded corners*
0 $1 Rounding radius*
0 $2 $3 $4 $5 $6 $7 $8 $9 X,Y pos of 4 corners*
0 Add a 4 corners polygon primitive as box body*
4,1,4,$2,$3,$4,$5,$6,$7,$8,$9,$2,$3,0*
0 Add four circle primitives for the rounded corners*
1,1,$1+$1,$2,$3*
1,1,$1+$1,$4,$5*
1,1,$1+$1,$6,$7*
1,1,$1+$1,$8,$9*
0 Add four rect primitives between the rounded corners*
20,1,$1+$1,$2,$3,$4,$5,0*
20,1,$1+$1,$4,$5,$6,$7,0*
20,1,$1+$1,$6,$7,$8,$9,0*
20,1,$1+$1,$8,$9,$2,$3,0*%
%AMHorizOval*
0 Thick line with rounded ends*
0 $1 width*
0 $2 $3 position (X,Y) of the first rounded end (center of the circle)*
0 $4 $5 position (X,Y) of the second rounded end (center of the circle)*
0 Add line between two ends*
20,1,$1,$2,$3,$4,$5,0*
0 Add two circle primitives to create the rounded ends*
1,1,$1,$2,$3*
1,1,$1,$4,$5*%
%AMRotRect*
0 Rectangle, with rotation*
0 The origin of the aperture is its center*
0 $1 length*
0 $2 width*
0 $3 Rotation angle, in degrees counterclockwise*
0 Add horizontal line*
21,1,$1,$2,0,0,$3*%
G04 Aperture macros list end*
%ADD10C,0.150000*%
%ADD11C,0.075000*%
%ADD12C,0.120000*%
%ADD13C,0.100000*%
%ADD14C,0.010000*%
%ADD15RoundRect,0.225000X0.250000X-0.225000X0.250000X0.225000X-0.250000X0.225000X-0.250000X-0.225000X0*%
%ADD16RoundRect,0.200000X0.200000X0.275000X-0.200000X0.275000X-0.200000X-0.275000X0.200000X-0.275000X0*%
%ADD17R,0.400000X0.650000*%
%ADD18RoundRect,0.225000X-0.225000X-0.250000X0.225000X-0.250000X0.225000X0.250000X-0.225000X0.250000X0*%
%ADD19C,3.100000*%
%ADD20R,0.500000X0.500000*%
%ADD21RotRect,1.100000X1.100000X310.000000*%
%ADD22RotRect,0.650000X0.400000X230.000000*%
%ADD23RotRect,1.740000X2.200000X218.000000*%
%ADD24HorizOval,1.740000X-0.141602X0.181242X0.141602X-0.181242X0*%
%ADD25RoundRect,0.225000X-0.250000X0.225000X-0.250000X-0.225000X0.250000X-0.225000X0.250000X0.225000X0*%
%ADD26RoundRect,0.225000X0.017678X-0.335876X0.335876X-0.017678X-0.017678X0.335876X-0.335876X0.017678X0*%
%ADD27R,0.650000X0.400000*%
%ADD28RoundRect,0.150000X-0.725000X-0.150000X0.725000X-0.150000X0.725000X0.150000X-0.725000X0.150000X0*%
%ADD29RotRect,0.650000X0.400000X308.000000*%
%ADD30RoundRect,0.225000X0.023387X0.335527X-0.331218X0.058479X-0.023387X-0.335527X0.331218X-0.058479X0*%
G04 APERTURE END LIST*
D10*
X147032909Y-88528060D02*
X143326627Y-83784235D01*
X147050000Y-88528060D02*
X136851810Y-96482406D01*
X143326627Y-83784235D02*
X133145528Y-91738581D01*
X136851810Y-96482406D02*
X133145528Y-91738581D01*
X146141421Y-97300000D02*
G75*
G03*
X146141421Y-97300000I-141421J0D01*
G01*
X144619196Y-82386548D02*
X145033419Y-82846590D01*
X144527273Y-82853782D01*
X144622863Y-82959945D01*
X144651202Y-83062584D01*
X144647677Y-83129835D01*
X144608765Y-83228950D01*
X144431826Y-83388267D01*
X144329187Y-83416606D01*
X144261936Y-83413081D01*
X144162821Y-83374169D01*
X143971641Y-83161842D01*
X143943302Y-83059203D01*
X143946826Y-82991951D01*
X144647820Y-83770484D02*
X144644296Y-83837735D01*
X144577045Y-83834211D01*
X144580569Y-83766960D01*
X144647820Y-83770484D01*
X144577045Y-83834211D01*
X145575096Y-83448183D02*
X145989320Y-83908225D01*
X145483174Y-83915417D01*
X145578764Y-84021581D01*
X145607103Y-84124220D01*
X145603578Y-84191471D01*
X145564666Y-84290585D01*
X145387727Y-84449902D01*
X145285088Y-84478241D01*
X145217836Y-84474717D01*
X145118722Y-84435804D01*
X144927542Y-84223477D01*
X144899203Y-84120838D01*
X144902727Y-84053587D01*
X146180500Y-84120552D02*
X145660399Y-85037398D01*
X146626587Y-84615982D01*
X138580952Y-104102380D02*
X139152380Y-104102380D01*
X138866666Y-105102380D02*
X138866666Y-104102380D01*
X139961904Y-105102380D02*
X139485714Y-105102380D01*
X139485714Y-104102380D01*
X140247619Y-104816666D02*
X140723809Y-104816666D01*
X140152380Y-105102380D02*
X140485714Y-104102380D01*
X140819047Y-105102380D01*
X139411758Y-95549229D02*
X139383419Y-95446590D01*
X139287829Y-95340426D01*
X139156851Y-95266126D01*
X139022349Y-95259077D01*
X138919710Y-95287416D01*
X138746295Y-95379481D01*
X138640131Y-95475071D01*
X138530443Y-95637913D01*
X138491531Y-95737027D01*
X138484482Y-95871530D01*
X138544684Y-96009557D01*
X138608411Y-96080332D01*
X138739389Y-96154632D01*
X138806640Y-96158157D01*
X139054355Y-95935113D01*
X138926902Y-95793562D01*
X139022635Y-96540374D02*
X139765780Y-95871244D01*
X139404995Y-96965029D01*
X140148140Y-96295898D01*
X139723629Y-97318907D02*
X140466774Y-96649776D01*
X140626090Y-96826716D01*
X140686293Y-96964743D01*
X140679244Y-97099245D01*
X140640331Y-97198360D01*
X140530643Y-97361201D01*
X140424480Y-97456791D01*
X140251065Y-97548857D01*
X140148426Y-97577195D01*
X140013923Y-97570146D01*
X139882946Y-97495846D01*
X139723629Y-97318907D01*
X141533333Y-98957142D02*
X141485714Y-99004761D01*
X141342857Y-99052380D01*
X141247619Y-99052380D01*
X141104761Y-99004761D01*
X141009523Y-98909523D01*
X140961904Y-98814285D01*
X140914285Y-98623809D01*
X140914285Y-98480952D01*
X140961904Y-98290476D01*
X141009523Y-98195238D01*
X141104761Y-98100000D01*
X141247619Y-98052380D01*
X141342857Y-98052380D01*
X141485714Y-98100000D01*
X141533333Y-98147619D01*
X142438095Y-98052380D02*
X141961904Y-98052380D01*
X141914285Y-98528571D01*
X141961904Y-98480952D01*
X142057142Y-98433333D01*
X142295238Y-98433333D01*
X142390476Y-98480952D01*
X142438095Y-98528571D01*
X142485714Y-98623809D01*
X142485714Y-98861904D01*
X142438095Y-98957142D01*
X142390476Y-99004761D01*
X142295238Y-99052380D01*
X142057142Y-99052380D01*
X141961904Y-99004761D01*
X141914285Y-98957142D01*
X154933333Y-102632380D02*
X154600000Y-102156190D01*
X154361904Y-102632380D02*
X154361904Y-101632380D01*
X154742857Y-101632380D01*
X154838095Y-101680000D01*
X154885714Y-101727619D01*
X154933333Y-101822857D01*
X154933333Y-101965714D01*
X154885714Y-102060952D01*
X154838095Y-102108571D01*
X154742857Y-102156190D01*
X154361904Y-102156190D01*
X155314285Y-101727619D02*
X155361904Y-101680000D01*
X155457142Y-101632380D01*
X155695238Y-101632380D01*
X155790476Y-101680000D01*
X155838095Y-101727619D01*
X155885714Y-101822857D01*
X155885714Y-101918095D01*
X155838095Y-102060952D01*
X155266666Y-102632380D01*
X155885714Y-102632380D01*
X139606142Y-101864892D02*
X139606142Y-102674416D01*
X139653761Y-102769654D01*
X139701380Y-102817273D01*
X139796618Y-102864892D01*
X139987094Y-102864892D01*
X140082332Y-102817273D01*
X140129951Y-102769654D01*
X140177570Y-102674416D01*
X140177570Y-101864892D01*
X141177570Y-102864892D02*
X140606142Y-102864892D01*
X140891856Y-102864892D02*
X140891856Y-101864892D01*
X140796618Y-102007750D01*
X140701380Y-102102988D01*
X140606142Y-102150607D01*
X159108333Y-98452142D02*
X159060714Y-98499761D01*
X158917857Y-98547380D01*
X158822619Y-98547380D01*
X158679761Y-98499761D01*
X158584523Y-98404523D01*
X158536904Y-98309285D01*
X158489285Y-98118809D01*
X158489285Y-97975952D01*
X158536904Y-97785476D01*
X158584523Y-97690238D01*
X158679761Y-97595000D01*
X158822619Y-97547380D01*
X158917857Y-97547380D01*
X159060714Y-97595000D01*
X159108333Y-97642619D01*
X159441666Y-97547380D02*
X160060714Y-97547380D01*
X159727380Y-97928333D01*
X159870238Y-97928333D01*
X159965476Y-97975952D01*
X160013095Y-98023571D01*
X160060714Y-98118809D01*
X160060714Y-98356904D01*
X160013095Y-98452142D01*
X159965476Y-98499761D01*
X159870238Y-98547380D01*
X159584523Y-98547380D01*
X159489285Y-98499761D01*
X159441666Y-98452142D01*
X144161904Y-92702380D02*
X144161904Y-91702380D01*
X144400000Y-91702380D01*
X144542857Y-91750000D01*
X144638095Y-91845238D01*
X144685714Y-91940476D01*
X144733333Y-92130952D01*
X144733333Y-92273809D01*
X144685714Y-92464285D01*
X144638095Y-92559523D01*
X144542857Y-92654761D01*
X144400000Y-92702380D01*
X144161904Y-92702380D01*
X145638095Y-91702380D02*
X145161904Y-91702380D01*
X145114285Y-92178571D01*
X145161904Y-92130952D01*
X145257142Y-92083333D01*
X145495238Y-92083333D01*
X145590476Y-92130952D01*
X145638095Y-92178571D01*
X145685714Y-92273809D01*
X145685714Y-92511904D01*
X145638095Y-92607142D01*
X145590476Y-92654761D01*
X145495238Y-92702380D01*
X145257142Y-92702380D01*
X145161904Y-92654761D01*
X145114285Y-92607142D01*
D11*
X145010714Y-94585714D02*
X144839285Y-94585714D01*
X144925000Y-94585714D02*
X144925000Y-94285714D01*
X144896428Y-94328571D01*
X144867857Y-94357142D01*
X144839285Y-94371428D01*
D10*
X148333333Y-88192380D02*
X148000000Y-87716190D01*
X147761904Y-88192380D02*
X147761904Y-87192380D01*
X148142857Y-87192380D01*
X148238095Y-87240000D01*
X148285714Y-87287619D01*
X148333333Y-87382857D01*
X148333333Y-87525714D01*
X148285714Y-87620952D01*
X148238095Y-87668571D01*
X148142857Y-87716190D01*
X147761904Y-87716190D01*
X149285714Y-88192380D02*
X148714285Y-88192380D01*
X149000000Y-88192380D02*
X149000000Y-87192380D01*
X148904761Y-87335238D01*
X148809523Y-87430476D01*
X148714285Y-87478095D01*
X132928822Y-98616328D02*
X132928822Y-97616328D01*
X133166918Y-97616328D01*
X133309775Y-97663948D01*
X133405013Y-97759186D01*
X133452632Y-97854424D01*
X133500251Y-98044900D01*
X133500251Y-98187757D01*
X133452632Y-98378233D01*
X133405013Y-98473471D01*
X133309775Y-98568709D01*
X133166918Y-98616328D01*
X132928822Y-98616328D01*
X134452632Y-98616328D02*
X133881203Y-98616328D01*
X134166918Y-98616328D02*
X134166918Y-97616328D01*
X134071679Y-97759186D01*
X133976441Y-97854424D01*
X133881203Y-97902043D01*
X153431577Y-94298346D02*
X153431577Y-93298346D01*
X153669673Y-93298346D01*
X153812530Y-93345966D01*
X153907768Y-93441204D01*
X153955387Y-93536442D01*
X154003006Y-93726918D01*
X154003006Y-93869775D01*
X153955387Y-94060251D01*
X153907768Y-94155489D01*
X153812530Y-94250727D01*
X153669673Y-94298346D01*
X153431577Y-94298346D01*
X154383958Y-93393585D02*
X154431577Y-93345966D01*
X154526815Y-93298346D01*
X154764911Y-93298346D01*
X154860149Y-93345966D01*
X154907768Y-93393585D01*
X154955387Y-93488823D01*
X154955387Y-93584061D01*
X154907768Y-93726918D01*
X154336339Y-94298346D01*
X154955387Y-94298346D01*
D11*
X156360714Y-92885714D02*
X156189285Y-92885714D01*
X156275000Y-92885714D02*
X156275000Y-92585714D01*
X156246428Y-92628571D01*
X156217857Y-92657142D01*
X156189285Y-92671428D01*
D10*
X161792845Y-95847225D02*
X162412976Y-96367577D01*
X162516542Y-96392316D01*
X162583629Y-96386447D01*
X162681325Y-96344099D01*
X162803761Y-96198186D01*
X162828501Y-96094620D01*
X162822631Y-96027533D01*
X162780283Y-95929837D01*
X162160152Y-95409485D01*
X162997070Y-94930660D02*
X163507766Y-95359185D01*
X162552199Y-94868180D02*
X162946329Y-95509705D01*
X163344245Y-95035487D01*
X148159565Y-105831234D02*
X148111946Y-105878853D01*
X147969089Y-105926472D01*
X147873851Y-105926472D01*
X147730993Y-105878853D01*
X147635755Y-105783615D01*
X147588136Y-105688377D01*
X147540517Y-105497901D01*
X147540517Y-105355044D01*
X147588136Y-105164568D01*
X147635755Y-105069330D01*
X147730993Y-104974092D01*
X147873851Y-104926472D01*
X147969089Y-104926472D01*
X148111946Y-104974092D01*
X148159565Y-105021711D01*
X149111946Y-105926472D02*
X148540517Y-105926472D01*
X148826232Y-105926472D02*
X148826232Y-104926472D01*
X148730993Y-105069330D01*
X148635755Y-105164568D01*
X148540517Y-105212187D01*
X145240867Y-90252798D02*
X145680625Y-90815663D01*
X145731053Y-90957553D01*
X145714639Y-91091236D01*
X145631383Y-91216712D01*
X145556334Y-91275347D01*
X146644540Y-90425148D02*
X146194248Y-90776954D01*
X146419394Y-90601051D02*
X145803732Y-89813040D01*
X145816635Y-89984247D01*
X145800221Y-90117931D01*
X145754489Y-90214089D01*
X145083333Y-101557142D02*
X145035714Y-101604761D01*
X144892857Y-101652380D01*
X144797619Y-101652380D01*
X144654761Y-101604761D01*
X144559523Y-101509523D01*
X144511904Y-101414285D01*
X144464285Y-101223809D01*
X144464285Y-101080952D01*
X144511904Y-100890476D01*
X144559523Y-100795238D01*
X144654761Y-100700000D01*
X144797619Y-100652380D01*
X144892857Y-100652380D01*
X145035714Y-100700000D01*
X145083333Y-100747619D01*
X145940476Y-100652380D02*
X145750000Y-100652380D01*
X145654761Y-100700000D01*
X145607142Y-100747619D01*
X145511904Y-100890476D01*
X145464285Y-101080952D01*
X145464285Y-101461904D01*
X145511904Y-101557142D01*
X145559523Y-101604761D01*
X145654761Y-101652380D01*
X145845238Y-101652380D01*
X145940476Y-101604761D01*
X145988095Y-101557142D01*
X146035714Y-101461904D01*
X146035714Y-101223809D01*
X145988095Y-101128571D01*
X145940476Y-101080952D01*
X145845238Y-101033333D01*
X145654761Y-101033333D01*
X145559523Y-101080952D01*
X145511904Y-101128571D01*
X145464285Y-101223809D01*
X157973524Y-92159227D02*
X157973524Y-92226570D01*
X157906180Y-92361257D01*
X157838837Y-92428601D01*
X157704149Y-92495944D01*
X157569462Y-92495944D01*
X157468447Y-92462273D01*
X157300088Y-92361257D01*
X157199073Y-92260242D01*
X157098058Y-92091883D01*
X157064386Y-91990868D01*
X157064386Y-91856181D01*
X157131730Y-91721494D01*
X157199073Y-91654150D01*
X157333760Y-91586807D01*
X157401104Y-91586807D01*
X158175554Y-91149074D02*
X158646959Y-91620479D01*
X157737821Y-91048059D02*
X158074539Y-91721494D01*
X158512272Y-91283761D01*
X154388095Y-88852380D02*
X154388095Y-89661904D01*
X154435714Y-89757142D01*
X154483333Y-89804761D01*
X154578571Y-89852380D01*
X154769047Y-89852380D01*
X154864285Y-89804761D01*
X154911904Y-89757142D01*
X154959523Y-89661904D01*
X154959523Y-88852380D01*
X155340476Y-88852380D02*
X155959523Y-88852380D01*
X155626190Y-89233333D01*
X155769047Y-89233333D01*
X155864285Y-89280952D01*
X155911904Y-89328571D01*
X155959523Y-89423809D01*
X155959523Y-89661904D01*
X155911904Y-89757142D01*
X155864285Y-89804761D01*
X155769047Y-89852380D01*
X155483333Y-89852380D01*
X155388095Y-89804761D01*
X155340476Y-89757142D01*
X147738095Y-103167380D02*
X147738095Y-103976904D01*
X147785714Y-104072142D01*
X147833333Y-104119761D01*
X147928571Y-104167380D01*
X148119047Y-104167380D01*
X148214285Y-104119761D01*
X148261904Y-104072142D01*
X148309523Y-103976904D01*
X148309523Y-103167380D01*
X149261904Y-103167380D02*
X148785714Y-103167380D01*
X148738095Y-103643571D01*
X148785714Y-103595952D01*
X148880952Y-103548333D01*
X149119047Y-103548333D01*
X149214285Y-103595952D01*
X149261904Y-103643571D01*
X149309523Y-103738809D01*
X149309523Y-103976904D01*
X149261904Y-104072142D01*
X149214285Y-104119761D01*
X149119047Y-104167380D01*
X148880952Y-104167380D01*
X148785714Y-104119761D01*
X148738095Y-104072142D01*
X145711904Y-107502380D02*
X145711904Y-106502380D01*
X145950000Y-106502380D01*
X146092857Y-106550000D01*
X146188095Y-106645238D01*
X146235714Y-106740476D01*
X146283333Y-106930952D01*
X146283333Y-107073809D01*
X146235714Y-107264285D01*
X146188095Y-107359523D01*
X146092857Y-107454761D01*
X145950000Y-107502380D01*
X145711904Y-107502380D01*
X147140476Y-106835714D02*
X147140476Y-107502380D01*
X146902380Y-106454761D02*
X146664285Y-107169047D01*
X147283333Y-107169047D01*
D11*
X145010714Y-106585714D02*
X144839285Y-106585714D01*
X144925000Y-106585714D02*
X144925000Y-106285714D01*
X144896428Y-106328571D01*
X144867857Y-106357142D01*
X144839285Y-106371428D01*
D10*
X159131139Y-101861523D02*
X159629532Y-102499437D01*
X159725691Y-102545168D01*
X159792532Y-102553375D01*
X159896898Y-102532265D01*
X160046995Y-102414996D01*
X160092727Y-102318838D01*
X160100934Y-102251996D01*
X160079824Y-102147630D01*
X159581431Y-101509717D01*
X159977785Y-101320910D02*
X159985992Y-101254069D01*
X160031723Y-101157910D01*
X160219345Y-101011324D01*
X160323711Y-100990214D01*
X160390552Y-100998421D01*
X160486711Y-101044152D01*
X160545345Y-101119201D01*
X160595773Y-101261091D01*
X160497287Y-102063190D01*
X160985103Y-101682066D01*
X157923333Y-99932380D02*
X157590000Y-99456190D01*
X157351904Y-99932380D02*
X157351904Y-98932380D01*
X157732857Y-98932380D01*
X157828095Y-98980000D01*
X157875714Y-99027619D01*
X157923333Y-99122857D01*
X157923333Y-99265714D01*
X157875714Y-99360952D01*
X157828095Y-99408571D01*
X157732857Y-99456190D01*
X157351904Y-99456190D01*
X158256666Y-98932380D02*
X158875714Y-98932380D01*
X158542380Y-99313333D01*
X158685238Y-99313333D01*
X158780476Y-99360952D01*
X158828095Y-99408571D01*
X158875714Y-99503809D01*
X158875714Y-99741904D01*
X158828095Y-99837142D01*
X158780476Y-99884761D01*
X158685238Y-99932380D01*
X158399523Y-99932380D01*
X158304285Y-99884761D01*
X158256666Y-99837142D01*
X155909902Y-108171123D02*
X155909902Y-107171123D01*
X156147998Y-107171123D01*
X156290855Y-107218743D01*
X156386093Y-107313981D01*
X156433712Y-107409219D01*
X156481331Y-107599695D01*
X156481331Y-107742552D01*
X156433712Y-107933028D01*
X156386093Y-108028266D01*
X156290855Y-108123504D01*
X156147998Y-108171123D01*
X155909902Y-108171123D01*
X156814664Y-107171123D02*
X157433712Y-107171123D01*
X157100378Y-107552076D01*
X157243236Y-107552076D01*
X157338474Y-107599695D01*
X157386093Y-107647314D01*
X157433712Y-107742552D01*
X157433712Y-107980647D01*
X157386093Y-108075885D01*
X157338474Y-108123504D01*
X157243236Y-108171123D01*
X156957521Y-108171123D01*
X156862283Y-108123504D01*
X156814664Y-108075885D01*
D11*
X156660714Y-104785714D02*
X156489285Y-104785714D01*
X156575000Y-104785714D02*
X156575000Y-104485714D01*
X156546428Y-104528571D01*
X156517857Y-104557142D01*
X156489285Y-104571428D01*
D10*
X161658148Y-104807188D02*
X161649941Y-104874030D01*
X161566686Y-104999506D01*
X161491637Y-105058140D01*
X161349747Y-105108567D01*
X161216064Y-105092153D01*
X161119905Y-105046422D01*
X160965112Y-104925642D01*
X160877160Y-104813069D01*
X160797416Y-104633654D01*
X160776306Y-104529288D01*
X160792720Y-104395605D01*
X160875975Y-104270129D01*
X160951024Y-104211495D01*
X161092914Y-104161068D01*
X161159756Y-104169275D01*
X161459950Y-103934737D02*
X161468158Y-103867895D01*
X161513889Y-103771737D01*
X161701511Y-103625151D01*
X161805876Y-103604041D01*
X161872718Y-103612248D01*
X161968877Y-103657979D01*
X162027511Y-103733028D01*
X162077938Y-103874918D01*
X161979453Y-104677016D01*
X162467269Y-104295893D01*
D12*
X142740000Y-99390580D02*
X142740000Y-99109420D01*
X143760000Y-99390580D02*
X143760000Y-99109420D01*
X155637258Y-100327500D02*
X155162742Y-100327500D01*
X155637258Y-101372500D02*
X155162742Y-101372500D01*
X143930000Y-103220000D02*
X143930000Y-101320000D01*
X141610000Y-101820000D02*
X141610000Y-103220000D01*
X156784420Y-98235000D02*
X157065580Y-98235000D01*
X156784420Y-97215000D02*
X157065580Y-97215000D01*
D13*
X143150000Y-94850000D02*
X143800000Y-94850000D01*
X143150000Y-94200000D02*
X143150000Y-94850000D01*
D12*
X148237258Y-86832500D02*
X147762742Y-86832500D01*
X148237258Y-85787500D02*
X147762742Y-85787500D01*
X132751912Y-92821915D02*
X131219823Y-94107490D01*
X132751912Y-92821915D02*
X135226644Y-95771186D01*
X131219823Y-94107490D02*
X133694555Y-97056761D01*
D13*
X156850000Y-94850000D02*
X156850000Y-94200000D01*
X156200000Y-94850000D02*
X156850000Y-94850000D01*
D12*
X160858660Y-96111865D02*
X162079957Y-94656380D01*
X159981340Y-93548135D02*
X159081437Y-94620597D01*
D14*
X154999971Y-95227772D02*
X155063841Y-95249360D01*
X155063841Y-95249360D02*
X155143140Y-95300942D01*
X155143140Y-95300942D02*
X155197286Y-95372008D01*
X155197286Y-95372008D02*
X155227499Y-95468408D01*
X155227499Y-95468408D02*
X155234998Y-95595992D01*
X155234998Y-95595992D02*
X155221005Y-95760612D01*
X155221005Y-95760612D02*
X155199359Y-95899400D01*
X155199359Y-95899400D02*
X155181650Y-96008614D01*
X155181650Y-96008614D02*
X155168289Y-96107541D01*
X155168289Y-96107541D02*
X155161545Y-96178818D01*
X155161545Y-96178818D02*
X155161152Y-96191500D01*
X155161152Y-96191500D02*
X155149202Y-96312726D01*
X155149202Y-96312726D02*
X155116399Y-96405169D01*
X155116399Y-96405169D02*
X155066388Y-96460176D01*
X155066388Y-96460176D02*
X155044063Y-96469357D01*
X155044063Y-96469357D02*
X154977645Y-96470872D01*
X154977645Y-96470872D02*
X154941625Y-96455101D01*
X154941625Y-96455101D02*
X154927326Y-96439593D01*
X154927326Y-96439593D02*
X154918393Y-96416243D01*
X154918393Y-96416243D02*
X154915070Y-96377729D01*
X154915070Y-96377729D02*
X154917602Y-96316731D01*
X154917602Y-96316731D02*
X154926233Y-96225929D01*
X154926233Y-96225929D02*
X154941207Y-96098002D01*
X154941207Y-96098002D02*
X154958059Y-95962900D01*
X154958059Y-95962900D02*
X154978354Y-95799782D01*
X154978354Y-95799782D02*
X154992150Y-95679510D01*
X154992150Y-95679510D02*
X154999630Y-95594567D01*
X154999630Y-95594567D02*
X155000976Y-95537441D01*
X155000976Y-95537441D02*
X154996374Y-95500618D01*
X154996374Y-95500618D02*
X154986004Y-95476583D01*
X154986004Y-95476583D02*
X154970367Y-95458137D01*
X154970367Y-95458137D02*
X154903054Y-95423347D01*
X154903054Y-95423347D02*
X154812960Y-95418103D01*
X154812960Y-95418103D02*
X154716957Y-95440200D01*
X154716957Y-95440200D02*
X154631919Y-95487430D01*
X154631919Y-95487430D02*
X154612276Y-95504953D01*
X154612276Y-95504953D02*
X154561209Y-95579186D01*
X154561209Y-95579186D02*
X154511962Y-95692041D01*
X154511962Y-95692041D02*
X154467862Y-95831367D01*
X154467862Y-95831367D02*
X154432233Y-95985008D01*
X154432233Y-95985008D02*
X154408400Y-96140811D01*
X154408400Y-96140811D02*
X154399702Y-96281895D01*
X154399702Y-96281895D02*
X154381951Y-96373999D01*
X154381951Y-96373999D02*
X154335934Y-96440894D01*
X154335934Y-96440894D02*
X154271003Y-96473825D01*
X154271003Y-96473825D02*
X154202409Y-96466524D01*
X154202409Y-96466524D02*
X154181747Y-96432650D01*
X154181747Y-96432650D02*
X154172221Y-96356847D01*
X154172221Y-96356847D02*
X154173998Y-96246787D01*
X154173998Y-96246787D02*
X154187248Y-96110144D01*
X154187248Y-96110144D02*
X154193576Y-96064500D01*
X154193576Y-96064500D02*
X154205512Y-95976027D01*
X154205512Y-95976027D02*
X154220388Y-95854445D01*
X154220388Y-95854445D02*
X154236128Y-95717195D01*
X154236128Y-95717195D02*
X154248003Y-95607300D01*
X154248003Y-95607300D02*
X154264670Y-95457052D01*
X154264670Y-95457052D02*
X154280270Y-95350337D01*
X154280270Y-95350337D02*
X154297941Y-95280060D01*
X154297941Y-95280060D02*
X154320820Y-95239129D01*
X154320820Y-95239129D02*
X154352045Y-95220449D01*
X154352045Y-95220449D02*
X154394754Y-95216928D01*
X154394754Y-95216928D02*
X154419970Y-95218515D01*
X154419970Y-95218515D02*
X154484966Y-95230268D01*
X154484966Y-95230268D02*
X154514711Y-95257649D01*
X154514711Y-95257649D02*
X154521998Y-95285914D01*
X154521998Y-95285914D02*
X154530438Y-95345529D01*
X154530438Y-95345529D02*
X154592669Y-95287066D01*
X154592669Y-95287066D02*
X154666920Y-95245245D01*
X154666920Y-95245245D02*
X154771539Y-95220463D01*
X154771539Y-95220463D02*
X154888548Y-95214159D01*
X154888548Y-95214159D02*
X154999971Y-95227772D01*
X154999971Y-95227772D02*
X154999971Y-95227772D01*
G36*
X154999971Y-95227772D02*
G01*
X155063841Y-95249360D01*
X155143140Y-95300942D01*
X155197286Y-95372008D01*
X155227499Y-95468408D01*
X155234998Y-95595992D01*
X155221005Y-95760612D01*
X155199359Y-95899400D01*
X155181650Y-96008614D01*
X155168289Y-96107541D01*
X155161545Y-96178818D01*
X155161152Y-96191500D01*
X155149202Y-96312726D01*
X155116399Y-96405169D01*
X155066388Y-96460176D01*
X155044063Y-96469357D01*
X154977645Y-96470872D01*
X154941625Y-96455101D01*
X154927326Y-96439593D01*
X154918393Y-96416243D01*
X154915070Y-96377729D01*
X154917602Y-96316731D01*
X154926233Y-96225929D01*
X154941207Y-96098002D01*
X154958059Y-95962900D01*
X154978354Y-95799782D01*
X154992150Y-95679510D01*
X154999630Y-95594567D01*
X155000976Y-95537441D01*
X154996374Y-95500618D01*
X154986004Y-95476583D01*
X154970367Y-95458137D01*
X154903054Y-95423347D01*
X154812960Y-95418103D01*
X154716957Y-95440200D01*
X154631919Y-95487430D01*
X154612276Y-95504953D01*
X154561209Y-95579186D01*
X154511962Y-95692041D01*
X154467862Y-95831367D01*
X154432233Y-95985008D01*
X154408400Y-96140811D01*
X154399702Y-96281895D01*
X154381951Y-96373999D01*
X154335934Y-96440894D01*
X154271003Y-96473825D01*
X154202409Y-96466524D01*
X154181747Y-96432650D01*
X154172221Y-96356847D01*
X154173998Y-96246787D01*
X154187248Y-96110144D01*
X154193576Y-96064500D01*
X154205512Y-95976027D01*
X154220388Y-95854445D01*
X154236128Y-95717195D01*
X154248003Y-95607300D01*
X154264670Y-95457052D01*
X154280270Y-95350337D01*
X154297941Y-95280060D01*
X154320820Y-95239129D01*
X154352045Y-95220449D01*
X154394754Y-95216928D01*
X154419970Y-95218515D01*
X154484966Y-95230268D01*
X154514711Y-95257649D01*
X154521998Y-95285914D01*
X154530438Y-95345529D01*
X154592669Y-95287066D01*
X154666920Y-95245245D01*
X154771539Y-95220463D01*
X154888548Y-95214159D01*
X154999971Y-95227772D01*
G37*
X154999971Y-95227772D02*
X155063841Y-95249360D01*
X155143140Y-95300942D01*
X155197286Y-95372008D01*
X155227499Y-95468408D01*
X155234998Y-95595992D01*
X155221005Y-95760612D01*
X155199359Y-95899400D01*
X155181650Y-96008614D01*
X155168289Y-96107541D01*
X155161545Y-96178818D01*
X155161152Y-96191500D01*
X155149202Y-96312726D01*
X155116399Y-96405169D01*
X155066388Y-96460176D01*
X155044063Y-96469357D01*
X154977645Y-96470872D01*
X154941625Y-96455101D01*
X154927326Y-96439593D01*
X154918393Y-96416243D01*
X154915070Y-96377729D01*
X154917602Y-96316731D01*
X154926233Y-96225929D01*
X154941207Y-96098002D01*
X154958059Y-95962900D01*
X154978354Y-95799782D01*
X154992150Y-95679510D01*
X154999630Y-95594567D01*
X155000976Y-95537441D01*
X154996374Y-95500618D01*
X154986004Y-95476583D01*
X154970367Y-95458137D01*
X154903054Y-95423347D01*
X154812960Y-95418103D01*
X154716957Y-95440200D01*
X154631919Y-95487430D01*
X154612276Y-95504953D01*
X154561209Y-95579186D01*
X154511962Y-95692041D01*
X154467862Y-95831367D01*
X154432233Y-95985008D01*
X154408400Y-96140811D01*
X154399702Y-96281895D01*
X154381951Y-96373999D01*
X154335934Y-96440894D01*
X154271003Y-96473825D01*
X154202409Y-96466524D01*
X154181747Y-96432650D01*
X154172221Y-96356847D01*
X154173998Y-96246787D01*
X154187248Y-96110144D01*
X154193576Y-96064500D01*
X154205512Y-95976027D01*
X154220388Y-95854445D01*
X154236128Y-95717195D01*
X154248003Y-95607300D01*
X154264670Y-95457052D01*
X154280270Y-95350337D01*
X154297941Y-95280060D01*
X154320820Y-95239129D01*
X154352045Y-95220449D01*
X154394754Y-95216928D01*
X154419970Y-95218515D01*
X154484966Y-95230268D01*
X154514711Y-95257649D01*
X154521998Y-95285914D01*
X154530438Y-95345529D01*
X154592669Y-95287066D01*
X154666920Y-95245245D01*
X154771539Y-95220463D01*
X154888548Y-95214159D01*
X154999971Y-95227772D01*
X143868202Y-95218019D02*
X144008070Y-95240741D01*
X144008070Y-95240741D02*
X144114363Y-95293579D01*
X144114363Y-95293579D02*
X144198558Y-95384195D01*
X144198558Y-95384195D02*
X144249773Y-95472760D01*
X144249773Y-95472760D02*
X144303705Y-95635829D01*
X144303705Y-95635829D02*
X144313191Y-95810984D01*
X144313191Y-95810984D02*
X144279610Y-95988387D01*
X144279610Y-95988387D02*
X144204342Y-96158205D01*
X144204342Y-96158205D02*
X144140510Y-96251399D01*
X144140510Y-96251399D02*
X144034007Y-96351164D01*
X144034007Y-96351164D02*
X143901179Y-96423616D01*
X143901179Y-96423616D02*
X143756061Y-96464322D01*
X143756061Y-96464322D02*
X143612689Y-96468851D01*
X143612689Y-96468851D02*
X143519300Y-96447546D01*
X143519300Y-96447546D02*
X143387019Y-96373734D01*
X143387019Y-96373734D02*
X143288112Y-96263296D01*
X143288112Y-96263296D02*
X143224584Y-96119566D01*
X143224584Y-96119566D02*
X143198441Y-95945875D01*
X143198441Y-95945875D02*
X143197859Y-95913329D01*
X143197859Y-95913329D02*
X143202496Y-95869444D01*
X143202496Y-95869444D02*
X143430381Y-95869444D01*
X143430381Y-95869444D02*
X143432999Y-95995576D01*
X143432999Y-95995576D02*
X143463237Y-96106702D01*
X143463237Y-96106702D02*
X143521630Y-96191487D01*
X143521630Y-96191487D02*
X143549868Y-96213520D01*
X143549868Y-96213520D02*
X143629734Y-96241864D01*
X143629734Y-96241864D02*
X143729919Y-96247510D01*
X143729919Y-96247510D02*
X143828561Y-96231783D01*
X143828561Y-96231783D02*
X143903795Y-96196008D01*
X143903795Y-96196008D02*
X143908751Y-96191778D01*
X143908751Y-96191778D02*
X143965510Y-96120939D01*
X143965510Y-96120939D02*
X144020088Y-96021280D01*
X144020088Y-96021280D02*
X144063204Y-95913423D01*
X144063204Y-95913423D02*
X144085575Y-95817992D01*
X144085575Y-95817992D02*
X144086859Y-95796006D01*
X144086859Y-95796006D02*
X144076202Y-95698880D01*
X144076202Y-95698880D02*
X144048496Y-95597228D01*
X144048496Y-95597228D02*
X144010139Y-95509261D01*
X144010139Y-95509261D02*
X143967526Y-95453192D01*
X143967526Y-95453192D02*
X143966039Y-95452034D01*
X143966039Y-95452034D02*
X143914634Y-95431562D01*
X143914634Y-95431562D02*
X143836687Y-95419185D01*
X143836687Y-95419185D02*
X143801109Y-95417607D01*
X143801109Y-95417607D02*
X143724038Y-95421774D01*
X143724038Y-95421774D02*
X143667556Y-95442089D01*
X143667556Y-95442089D02*
X143609516Y-95488373D01*
X143609516Y-95488373D02*
X143582889Y-95514369D01*
X143582889Y-95514369D02*
X143505861Y-95617505D01*
X143505861Y-95617505D02*
X143454847Y-95739641D01*
X143454847Y-95739641D02*
X143430381Y-95869444D01*
X143430381Y-95869444D02*
X143202496Y-95869444D01*
X143202496Y-95869444D02*
X143218783Y-95715321D01*
X143218783Y-95715321D02*
X143280536Y-95542983D01*
X143280536Y-95542983D02*
X143381592Y-95400208D01*
X143381592Y-95400208D02*
X143410484Y-95371730D01*
X143410484Y-95371730D02*
X143530339Y-95281328D01*
X143530339Y-95281328D02*
X143656652Y-95231037D01*
X143656652Y-95231037D02*
X143804550Y-95215776D01*
X143804550Y-95215776D02*
X143868202Y-95218019D01*
X143868202Y-95218019D02*
X143868202Y-95218019D01*
G36*
X143280536Y-95542983D02*
G01*
X143381592Y-95400208D01*
X143410484Y-95371730D01*
X143530339Y-95281328D01*
X143656652Y-95231037D01*
X143804550Y-95215776D01*
X143868202Y-95218019D01*
X144008070Y-95240741D01*
X144114363Y-95293579D01*
X144198558Y-95384195D01*
X144249773Y-95472760D01*
X144303705Y-95635829D01*
X144313191Y-95810984D01*
X144279610Y-95988387D01*
X144204342Y-96158205D01*
X144140510Y-96251399D01*
X144034007Y-96351164D01*
X143901179Y-96423616D01*
X143756061Y-96464322D01*
X143612689Y-96468851D01*
X143519300Y-96447546D01*
X143387019Y-96373734D01*
X143288112Y-96263296D01*
X143224584Y-96119566D01*
X143198441Y-95945875D01*
X143197859Y-95913329D01*
X143202496Y-95869444D01*
X143430381Y-95869444D01*
X143432999Y-95995576D01*
X143463237Y-96106702D01*
X143521630Y-96191487D01*
X143549868Y-96213520D01*
X143629734Y-96241864D01*
X143729919Y-96247510D01*
X143828561Y-96231783D01*
X143903795Y-96196008D01*
X143908751Y-96191778D01*
X143965510Y-96120939D01*
X144020088Y-96021280D01*
X144063204Y-95913423D01*
X144085575Y-95817992D01*
X144086859Y-95796006D01*
X144076202Y-95698880D01*
X144048496Y-95597228D01*
X144010139Y-95509261D01*
X143967526Y-95453192D01*
X143966039Y-95452034D01*
X143914634Y-95431562D01*
X143836687Y-95419185D01*
X143801109Y-95417607D01*
X143724038Y-95421774D01*
X143667556Y-95442089D01*
X143609516Y-95488373D01*
X143582889Y-95514369D01*
X143505861Y-95617505D01*
X143454847Y-95739641D01*
X143430381Y-95869444D01*
X143202496Y-95869444D01*
X143218783Y-95715321D01*
X143280536Y-95542983D01*
G37*
X143280536Y-95542983D02*
X143381592Y-95400208D01*
X143410484Y-95371730D01*
X143530339Y-95281328D01*
X143656652Y-95231037D01*
X143804550Y-95215776D01*
X143868202Y-95218019D01*
X144008070Y-95240741D01*
X144114363Y-95293579D01*
X144198558Y-95384195D01*
X144249773Y-95472760D01*
X144303705Y-95635829D01*
X144313191Y-95810984D01*
X144279610Y-95988387D01*
X144204342Y-96158205D01*
X144140510Y-96251399D01*
X144034007Y-96351164D01*
X143901179Y-96423616D01*
X143756061Y-96464322D01*
X143612689Y-96468851D01*
X143519300Y-96447546D01*
X143387019Y-96373734D01*
X143288112Y-96263296D01*
X143224584Y-96119566D01*
X143198441Y-95945875D01*
X143197859Y-95913329D01*
X143202496Y-95869444D01*
X143430381Y-95869444D01*
X143432999Y-95995576D01*
X143463237Y-96106702D01*
X143521630Y-96191487D01*
X143549868Y-96213520D01*
X143629734Y-96241864D01*
X143729919Y-96247510D01*
X143828561Y-96231783D01*
X143903795Y-96196008D01*
X143908751Y-96191778D01*
X143965510Y-96120939D01*
X144020088Y-96021280D01*
X144063204Y-95913423D01*
X144085575Y-95817992D01*
X144086859Y-95796006D01*
X144076202Y-95698880D01*
X144048496Y-95597228D01*
X144010139Y-95509261D01*
X143967526Y-95453192D01*
X143966039Y-95452034D01*
X143914634Y-95431562D01*
X143836687Y-95419185D01*
X143801109Y-95417607D01*
X143724038Y-95421774D01*
X143667556Y-95442089D01*
X143609516Y-95488373D01*
X143582889Y-95514369D01*
X143505861Y-95617505D01*
X143454847Y-95739641D01*
X143430381Y-95869444D01*
X143202496Y-95869444D01*
X143218783Y-95715321D01*
X143280536Y-95542983D01*
X156129733Y-95218754D02*
X156256827Y-95240022D01*
X156256827Y-95240022D02*
X156341905Y-95285193D01*
X156341905Y-95285193D02*
X156389918Y-95358815D01*
X156389918Y-95358815D02*
X156405817Y-95465437D01*
X156405817Y-95465437D02*
X156405859Y-95472383D01*
X156405859Y-95472383D02*
X156389226Y-95598957D01*
X156389226Y-95598957D02*
X156335988Y-95702180D01*
X156335988Y-95702180D02*
X156241137Y-95788967D01*
X156241137Y-95788967D02*
X156131371Y-95851482D01*
X156131371Y-95851482D02*
X156024702Y-95894840D01*
X156024702Y-95894840D02*
X155911145Y-95928596D01*
X155911145Y-95928596D02*
X155832921Y-95943037D01*
X155832921Y-95943037D02*
X155753594Y-95952933D01*
X155753594Y-95952933D02*
X155712428Y-95966796D01*
X155712428Y-95966796D02*
X155696946Y-95992646D01*
X155696946Y-95992646D02*
X155694659Y-96031907D01*
X155694659Y-96031907D02*
X155719220Y-96116881D01*
X155719220Y-96116881D02*
X155768905Y-96180753D01*
X155768905Y-96180753D02*
X155861166Y-96239017D01*
X155861166Y-96239017D02*
X155973983Y-96256209D01*
X155973983Y-96256209D02*
X156097193Y-96231716D01*
X156097193Y-96231716D02*
X156158493Y-96204200D01*
X156158493Y-96204200D02*
X156235414Y-96166656D01*
X156235414Y-96166656D02*
X156282608Y-96157611D01*
X156282608Y-96157611D02*
X156312983Y-96177944D01*
X156312983Y-96177944D02*
X156333937Y-96216147D01*
X156333937Y-96216147D02*
X156349433Y-96274044D01*
X156349433Y-96274044D02*
X156329103Y-96319167D01*
X156329103Y-96319167D02*
X156328742Y-96319604D01*
X156328742Y-96319604D02*
X156255375Y-96378416D01*
X156255375Y-96378416D02*
X156150180Y-96427581D01*
X156150180Y-96427581D02*
X156031994Y-96461177D01*
X156031994Y-96461177D02*
X155919650Y-96473280D01*
X155919650Y-96473280D02*
X155859759Y-96467068D01*
X155859759Y-96467068D02*
X155704761Y-96417116D01*
X155704761Y-96417116D02*
X155590975Y-96345219D01*
X155590975Y-96345219D02*
X155514273Y-96245838D01*
X155514273Y-96245838D02*
X155470528Y-96113439D01*
X155470528Y-96113439D02*
X155455613Y-95942485D01*
X155455613Y-95942485D02*
X155455544Y-95924800D01*
X155455544Y-95924800D02*
X155459041Y-95800965D01*
X155459041Y-95800965D02*
X155464248Y-95761514D01*
X155464248Y-95761514D02*
X155694659Y-95761514D01*
X155694659Y-95761514D02*
X155716241Y-95770324D01*
X155716241Y-95770324D02*
X155773095Y-95763019D01*
X155773095Y-95763019D02*
X155853383Y-95742494D01*
X155853383Y-95742494D02*
X155945268Y-95711642D01*
X155945268Y-95711642D02*
X156015537Y-95683083D01*
X156015537Y-95683083D02*
X156107167Y-95629207D01*
X156107167Y-95629207D02*
X156168526Y-95566551D01*
X156168526Y-95566551D02*
X156196348Y-95503366D01*
X156196348Y-95503366D02*
X156187370Y-95447903D01*
X156187370Y-95447903D02*
X156138327Y-95408412D01*
X156138327Y-95408412D02*
X156125976Y-95403947D01*
X156125976Y-95403947D02*
X156068365Y-95404847D01*
X156068365Y-95404847D02*
X155988546Y-95428238D01*
X155988546Y-95428238D02*
X155905519Y-95466899D01*
X155905519Y-95466899D02*
X155838935Y-95513018D01*
X155838935Y-95513018D02*
X155802050Y-95557295D01*
X155802050Y-95557295D02*
X155759158Y-95623107D01*
X155759158Y-95623107D02*
X155720783Y-95692329D01*
X155720783Y-95692329D02*
X155697449Y-95746834D01*
X155697449Y-95746834D02*
X155694659Y-95761514D01*
X155694659Y-95761514D02*
X155464248Y-95761514D01*
X155464248Y-95761514D02*
X155471120Y-95709455D01*
X155471120Y-95709455D02*
X155494968Y-95632081D01*
X155494968Y-95632081D02*
X155514456Y-95588548D01*
X155514456Y-95588548D02*
X155611558Y-95441523D01*
X155611558Y-95441523D02*
X155739839Y-95327304D01*
X155739839Y-95327304D02*
X155890604Y-95251118D01*
X155890604Y-95251118D02*
X156055160Y-95218189D01*
X156055160Y-95218189D02*
X156129733Y-95218754D01*
X156129733Y-95218754D02*
X156129733Y-95218754D01*
G36*
X155494968Y-95632081D02*
G01*
X155514456Y-95588548D01*
X155611558Y-95441523D01*
X155739839Y-95327304D01*
X155890604Y-95251118D01*
X156055160Y-95218189D01*
X156129733Y-95218754D01*
X156256827Y-95240022D01*
X156341905Y-95285193D01*
X156389918Y-95358815D01*
X156405817Y-95465437D01*
X156405859Y-95472383D01*
X156389226Y-95598957D01*
X156335988Y-95702180D01*
X156241137Y-95788967D01*
X156131371Y-95851482D01*
X156024702Y-95894840D01*
X155911145Y-95928596D01*
X155832921Y-95943037D01*
X155753594Y-95952933D01*
X155712428Y-95966796D01*
X155696946Y-95992646D01*
X155694659Y-96031907D01*
X155719220Y-96116881D01*
X155768905Y-96180753D01*
X155861166Y-96239017D01*
X155973983Y-96256209D01*
X156097193Y-96231716D01*
X156158493Y-96204200D01*
X156235414Y-96166656D01*
X156282608Y-96157611D01*
X156312983Y-96177944D01*
X156333937Y-96216147D01*
X156349433Y-96274044D01*
X156329103Y-96319167D01*
X156328742Y-96319604D01*
X156255375Y-96378416D01*
X156150180Y-96427581D01*
X156031994Y-96461177D01*
X155919650Y-96473280D01*
X155859759Y-96467068D01*
X155704761Y-96417116D01*
X155590975Y-96345219D01*
X155514273Y-96245838D01*
X155470528Y-96113439D01*
X155455613Y-95942485D01*
X155455544Y-95924800D01*
X155459041Y-95800965D01*
X155464248Y-95761514D01*
X155694659Y-95761514D01*
X155716241Y-95770324D01*
X155773095Y-95763019D01*
X155853383Y-95742494D01*
X155945268Y-95711642D01*
X156015537Y-95683083D01*
X156107167Y-95629207D01*
X156168526Y-95566551D01*
X156196348Y-95503366D01*
X156187370Y-95447903D01*
X156138327Y-95408412D01*
X156125976Y-95403947D01*
X156068365Y-95404847D01*
X155988546Y-95428238D01*
X155905519Y-95466899D01*
X155838935Y-95513018D01*
X155802050Y-95557295D01*
X155759158Y-95623107D01*
X155720783Y-95692329D01*
X155697449Y-95746834D01*
X155694659Y-95761514D01*
X155464248Y-95761514D01*
X155471120Y-95709455D01*
X155494968Y-95632081D01*
G37*
X155494968Y-95632081D02*
X155514456Y-95588548D01*
X155611558Y-95441523D01*
X155739839Y-95327304D01*
X155890604Y-95251118D01*
X156055160Y-95218189D01*
X156129733Y-95218754D01*
X156256827Y-95240022D01*
X156341905Y-95285193D01*
X156389918Y-95358815D01*
X156405817Y-95465437D01*
X156405859Y-95472383D01*
X156389226Y-95598957D01*
X156335988Y-95702180D01*
X156241137Y-95788967D01*
X156131371Y-95851482D01*
X156024702Y-95894840D01*
X155911145Y-95928596D01*
X155832921Y-95943037D01*
X155753594Y-95952933D01*
X155712428Y-95966796D01*
X155696946Y-95992646D01*
X155694659Y-96031907D01*
X155719220Y-96116881D01*
X155768905Y-96180753D01*
X155861166Y-96239017D01*
X155973983Y-96256209D01*
X156097193Y-96231716D01*
X156158493Y-96204200D01*
X156235414Y-96166656D01*
X156282608Y-96157611D01*
X156312983Y-96177944D01*
X156333937Y-96216147D01*
X156349433Y-96274044D01*
X156329103Y-96319167D01*
X156328742Y-96319604D01*
X156255375Y-96378416D01*
X156150180Y-96427581D01*
X156031994Y-96461177D01*
X155919650Y-96473280D01*
X155859759Y-96467068D01*
X155704761Y-96417116D01*
X155590975Y-96345219D01*
X155514273Y-96245838D01*
X155470528Y-96113439D01*
X155455613Y-95942485D01*
X155455544Y-95924800D01*
X155459041Y-95800965D01*
X155464248Y-95761514D01*
X155694659Y-95761514D01*
X155716241Y-95770324D01*
X155773095Y-95763019D01*
X155853383Y-95742494D01*
X155945268Y-95711642D01*
X156015537Y-95683083D01*
X156107167Y-95629207D01*
X156168526Y-95566551D01*
X156196348Y-95503366D01*
X156187370Y-95447903D01*
X156138327Y-95408412D01*
X156125976Y-95403947D01*
X156068365Y-95404847D01*
X155988546Y-95428238D01*
X155905519Y-95466899D01*
X155838935Y-95513018D01*
X155802050Y-95557295D01*
X155759158Y-95623107D01*
X155720783Y-95692329D01*
X155697449Y-95746834D01*
X155694659Y-95761514D01*
X155464248Y-95761514D01*
X155471120Y-95709455D01*
X155494968Y-95632081D01*
X148788794Y-95218099D02*
X148834961Y-95224790D01*
X148834961Y-95224790D02*
X148863031Y-95241689D01*
X148863031Y-95241689D02*
X148880786Y-95280648D01*
X148880786Y-95280648D02*
X148896004Y-95353521D01*
X148896004Y-95353521D02*
X148902541Y-95391400D01*
X148902541Y-95391400D02*
X148918510Y-95492836D01*
X148918510Y-95492836D02*
X148937083Y-95622541D01*
X148937083Y-95622541D02*
X148955127Y-95758308D01*
X148955127Y-95758308D02*
X148961637Y-95810500D01*
X148961637Y-95810500D02*
X148980604Y-95961947D01*
X148980604Y-95961947D02*
X148995651Y-96069799D01*
X148995651Y-96069799D02*
X149008160Y-96140980D01*
X149008160Y-96140980D02*
X149019511Y-96182416D01*
X149019511Y-96182416D02*
X149031088Y-96201034D01*
X149031088Y-96201034D02*
X149040176Y-96204200D01*
X149040176Y-96204200D02*
X149072992Y-96183731D01*
X149072992Y-96183731D02*
X149121258Y-96130141D01*
X149121258Y-96130141D02*
X149176562Y-96055152D01*
X149176562Y-96055152D02*
X149230487Y-95970487D01*
X149230487Y-95970487D02*
X149274618Y-95887870D01*
X149274618Y-95887870D02*
X149286319Y-95861300D01*
X149286319Y-95861300D02*
X149324009Y-95753950D01*
X149324009Y-95753950D02*
X149362252Y-95620352D01*
X149362252Y-95620352D02*
X149395843Y-95481236D01*
X149395843Y-95481236D02*
X149419576Y-95357337D01*
X149419576Y-95357337D02*
X149426606Y-95302500D01*
X149426606Y-95302500D02*
X149436935Y-95251051D01*
X149436935Y-95251051D02*
X149466060Y-95230075D01*
X149466060Y-95230075D02*
X149522459Y-95226300D01*
X149522459Y-95226300D02*
X149611359Y-95226300D01*
X149611359Y-95226300D02*
X149619053Y-95360135D01*
X149619053Y-95360135D02*
X149609240Y-95533598D01*
X149609240Y-95533598D02*
X149565009Y-95720801D01*
X149565009Y-95720801D02*
X149492202Y-95909643D01*
X149492202Y-95909643D02*
X149396666Y-96088023D01*
X149396666Y-96088023D02*
X149284244Y-96243839D01*
X149284244Y-96243839D02*
X149160782Y-96364989D01*
X149160782Y-96364989D02*
X149119339Y-96394825D01*
X149119339Y-96394825D02*
X149014820Y-96451089D01*
X149014820Y-96451089D02*
X148927490Y-96474128D01*
X148927490Y-96474128D02*
X148866539Y-96462148D01*
X148866539Y-96462148D02*
X148840138Y-96427435D01*
X148840138Y-96427435D02*
X148815921Y-96356725D01*
X148815921Y-96356725D02*
X148792832Y-96245605D01*
X148792832Y-96245605D02*
X148769813Y-96089662D01*
X148769813Y-96089662D02*
X148761576Y-96023662D01*
X148761576Y-96023662D02*
X148746559Y-95902610D01*
X148746559Y-95902610D02*
X148727570Y-95754865D01*
X148727570Y-95754865D02*
X148707667Y-95604047D01*
X148707667Y-95604047D02*
X148697916Y-95531846D01*
X148697916Y-95531846D02*
X148684400Y-95417335D01*
X148684400Y-95417335D02*
X148677042Y-95321575D01*
X148677042Y-95321575D02*
X148676448Y-95255663D01*
X148676448Y-95255663D02*
X148681552Y-95231546D01*
X148681552Y-95231546D02*
X148719617Y-95218976D01*
X148719617Y-95218976D02*
X148783005Y-95217598D01*
X148783005Y-95217598D02*
X148788794Y-95218099D01*
X148788794Y-95218099D02*
X148788794Y-95218099D01*
G36*
X148788794Y-95218099D02*
G01*
X148834961Y-95224790D01*
X148863031Y-95241689D01*
X148880786Y-95280648D01*
X148896004Y-95353521D01*
X148902541Y-95391400D01*
X148918510Y-95492836D01*
X148937083Y-95622541D01*
X148955127Y-95758308D01*
X148961637Y-95810500D01*
X148980604Y-95961947D01*
X148995651Y-96069799D01*
X149008160Y-96140980D01*
X149019511Y-96182416D01*
X149031088Y-96201034D01*
X149040176Y-96204200D01*
X149072992Y-96183731D01*
X149121258Y-96130141D01*
X149176562Y-96055152D01*
X149230487Y-95970487D01*
X149274618Y-95887870D01*
X149286319Y-95861300D01*
X149324009Y-95753950D01*
X149362252Y-95620352D01*
X149395843Y-95481236D01*
X149419576Y-95357337D01*
X149426606Y-95302500D01*
X149436935Y-95251051D01*
X149466060Y-95230075D01*
X149522459Y-95226300D01*
X149611359Y-95226300D01*
X149619053Y-95360135D01*
X149609240Y-95533598D01*
X149565009Y-95720801D01*
X149492202Y-95909643D01*
X149396666Y-96088023D01*
X149284244Y-96243839D01*
X149160782Y-96364989D01*
X149119339Y-96394825D01*
X149014820Y-96451089D01*
X148927490Y-96474128D01*
X148866539Y-96462148D01*
X148840138Y-96427435D01*
X148815921Y-96356725D01*
X148792832Y-96245605D01*
X148769813Y-96089662D01*
X148761576Y-96023662D01*
X148746559Y-95902610D01*
X148727570Y-95754865D01*
X148707667Y-95604047D01*
X148697916Y-95531846D01*
X148684400Y-95417335D01*
X148677042Y-95321575D01*
X148676448Y-95255663D01*
X148681552Y-95231546D01*
X148719617Y-95218976D01*
X148783005Y-95217598D01*
X148788794Y-95218099D01*
G37*
X148788794Y-95218099D02*
X148834961Y-95224790D01*
X148863031Y-95241689D01*
X148880786Y-95280648D01*
X148896004Y-95353521D01*
X148902541Y-95391400D01*
X148918510Y-95492836D01*
X148937083Y-95622541D01*
X148955127Y-95758308D01*
X148961637Y-95810500D01*
X148980604Y-95961947D01*
X148995651Y-96069799D01*
X149008160Y-96140980D01*
X149019511Y-96182416D01*
X149031088Y-96201034D01*
X149040176Y-96204200D01*
X149072992Y-96183731D01*
X149121258Y-96130141D01*
X149176562Y-96055152D01*
X149230487Y-95970487D01*
X149274618Y-95887870D01*
X149286319Y-95861300D01*
X149324009Y-95753950D01*
X149362252Y-95620352D01*
X149395843Y-95481236D01*
X149419576Y-95357337D01*
X149426606Y-95302500D01*
X149436935Y-95251051D01*
X149466060Y-95230075D01*
X149522459Y-95226300D01*
X149611359Y-95226300D01*
X149619053Y-95360135D01*
X149609240Y-95533598D01*
X149565009Y-95720801D01*
X149492202Y-95909643D01*
X149396666Y-96088023D01*
X149284244Y-96243839D01*
X149160782Y-96364989D01*
X149119339Y-96394825D01*
X149014820Y-96451089D01*
X148927490Y-96474128D01*
X148866539Y-96462148D01*
X148840138Y-96427435D01*
X148815921Y-96356725D01*
X148792832Y-96245605D01*
X148769813Y-96089662D01*
X148761576Y-96023662D01*
X148746559Y-95902610D01*
X148727570Y-95754865D01*
X148707667Y-95604047D01*
X148697916Y-95531846D01*
X148684400Y-95417335D01*
X148677042Y-95321575D01*
X148676448Y-95255663D01*
X148681552Y-95231546D01*
X148719617Y-95218976D01*
X148783005Y-95217598D01*
X148788794Y-95218099D01*
X151563524Y-95193143D02*
X151623783Y-95208711D01*
X151623783Y-95208711D02*
X151649242Y-95246820D01*
X151649242Y-95246820D02*
X151651750Y-95260144D01*
X151651750Y-95260144D02*
X151639190Y-95331944D01*
X151639190Y-95331944D02*
X151589468Y-95388664D01*
X151589468Y-95388664D02*
X151516213Y-95416076D01*
X151516213Y-95416076D02*
X151501671Y-95416800D01*
X151501671Y-95416800D02*
X151420086Y-95439440D01*
X151420086Y-95439440D02*
X151335787Y-95500499D01*
X151335787Y-95500499D02*
X151260467Y-95589680D01*
X151260467Y-95589680D02*
X151217823Y-95666732D01*
X151217823Y-95666732D02*
X151194746Y-95735981D01*
X151194746Y-95735981D02*
X151168750Y-95841223D01*
X151168750Y-95841223D02*
X151143058Y-95968026D01*
X151143058Y-95968026D02*
X151121355Y-96098787D01*
X151121355Y-96098787D02*
X151097822Y-96246062D01*
X151097822Y-96246062D02*
X151076434Y-96349152D01*
X151076434Y-96349152D02*
X151055516Y-96414527D01*
X151055516Y-96414527D02*
X151033395Y-96448657D01*
X151033395Y-96448657D02*
X151030170Y-96451265D01*
X151030170Y-96451265D02*
X150964543Y-96481343D01*
X150964543Y-96481343D02*
X150906582Y-96463867D01*
X150906582Y-96463867D02*
X150883150Y-96443662D01*
X150883150Y-96443662D02*
X150855248Y-96385718D01*
X150855248Y-96385718D02*
X150855992Y-96348412D01*
X150855992Y-96348412D02*
X150864656Y-96298125D01*
X150864656Y-96298125D02*
X150876427Y-96213181D01*
X150876427Y-96213181D02*
X150889150Y-96109450D01*
X150889150Y-96109450D02*
X150892813Y-96077200D01*
X150892813Y-96077200D02*
X150918346Y-95847573D01*
X150918346Y-95847573D02*
X150939231Y-95663398D01*
X150939231Y-95663398D02*
X150956756Y-95519673D01*
X150956756Y-95519673D02*
X150972211Y-95411397D01*
X150972211Y-95411397D02*
X150986885Y-95333569D01*
X150986885Y-95333569D02*
X151002065Y-95281189D01*
X151002065Y-95281189D02*
X151019040Y-95249255D01*
X151019040Y-95249255D02*
X151039099Y-95232766D01*
X151039099Y-95232766D02*
X151063531Y-95226722D01*
X151063531Y-95226722D02*
X151093625Y-95226121D01*
X151093625Y-95226121D02*
X151112075Y-95226300D01*
X151112075Y-95226300D02*
X151176737Y-95230114D01*
X151176737Y-95230114D02*
X151204616Y-95246943D01*
X151204616Y-95246943D02*
X151209542Y-95283450D01*
X151209542Y-95283450D02*
X151215889Y-95328025D01*
X151215889Y-95328025D02*
X151228592Y-95340600D01*
X151228592Y-95340600D02*
X151249397Y-95321549D01*
X151249397Y-95321549D02*
X151249659Y-95317997D01*
X151249659Y-95317997D02*
X151271882Y-95290513D01*
X151271882Y-95290513D02*
X151328278Y-95258114D01*
X151328278Y-95258114D02*
X151403435Y-95226928D01*
X151403435Y-95226928D02*
X151481940Y-95203087D01*
X151481940Y-95203087D02*
X151548383Y-95192721D01*
X151548383Y-95192721D02*
X151563524Y-95193143D01*
X151563524Y-95193143D02*
X151563524Y-95193143D01*
G36*
X151563524Y-95193143D02*
G01*
X151623783Y-95208711D01*
X151649242Y-95246820D01*
X151651750Y-95260144D01*
X151639190Y-95331944D01*
X151589468Y-95388664D01*
X151516213Y-95416076D01*
X151501671Y-95416800D01*
X151420086Y-95439440D01*
X151335787Y-95500499D01*
X151260467Y-95589680D01*
X151217823Y-95666732D01*
X151194746Y-95735981D01*
X151168750Y-95841223D01*
X151143058Y-95968026D01*
X151121355Y-96098787D01*
X151097822Y-96246062D01*
X151076434Y-96349152D01*
X151055516Y-96414527D01*
X151033395Y-96448657D01*
X151030170Y-96451265D01*
X150964543Y-96481343D01*
X150906582Y-96463867D01*
X150883150Y-96443662D01*
X150855248Y-96385718D01*
X150855992Y-96348412D01*
X150864656Y-96298125D01*
X150876427Y-96213181D01*
X150889150Y-96109450D01*
X150892813Y-96077200D01*
X150918346Y-95847573D01*
X150939231Y-95663398D01*
X150956756Y-95519673D01*
X150972211Y-95411397D01*
X150986885Y-95333569D01*
X151002065Y-95281189D01*
X151019040Y-95249255D01*
X151039099Y-95232766D01*
X151063531Y-95226722D01*
X151093625Y-95226121D01*
X151112075Y-95226300D01*
X151176737Y-95230114D01*
X151204616Y-95246943D01*
X151209542Y-95283450D01*
X151215889Y-95328025D01*
X151228592Y-95340600D01*
X151249397Y-95321549D01*
X151249659Y-95317997D01*
X151271882Y-95290513D01*
X151328278Y-95258114D01*
X151403435Y-95226928D01*
X151481940Y-95203087D01*
X151548383Y-95192721D01*
X151563524Y-95193143D01*
G37*
X151563524Y-95193143D02*
X151623783Y-95208711D01*
X151649242Y-95246820D01*
X151651750Y-95260144D01*
X151639190Y-95331944D01*
X151589468Y-95388664D01*
X151516213Y-95416076D01*
X151501671Y-95416800D01*
X151420086Y-95439440D01*
X151335787Y-95500499D01*
X151260467Y-95589680D01*
X151217823Y-95666732D01*
X151194746Y-95735981D01*
X151168750Y-95841223D01*
X151143058Y-95968026D01*
X151121355Y-96098787D01*
X151097822Y-96246062D01*
X151076434Y-96349152D01*
X151055516Y-96414527D01*
X151033395Y-96448657D01*
X151030170Y-96451265D01*
X150964543Y-96481343D01*
X150906582Y-96463867D01*
X150883150Y-96443662D01*
X150855248Y-96385718D01*
X150855992Y-96348412D01*
X150864656Y-96298125D01*
X150876427Y-96213181D01*
X150889150Y-96109450D01*
X150892813Y-96077200D01*
X150918346Y-95847573D01*
X150939231Y-95663398D01*
X150956756Y-95519673D01*
X150972211Y-95411397D01*
X150986885Y-95333569D01*
X151002065Y-95281189D01*
X151019040Y-95249255D01*
X151039099Y-95232766D01*
X151063531Y-95226722D01*
X151093625Y-95226121D01*
X151112075Y-95226300D01*
X151176737Y-95230114D01*
X151204616Y-95246943D01*
X151209542Y-95283450D01*
X151215889Y-95328025D01*
X151228592Y-95340600D01*
X151249397Y-95321549D01*
X151249659Y-95317997D01*
X151271882Y-95290513D01*
X151328278Y-95258114D01*
X151403435Y-95226928D01*
X151481940Y-95203087D01*
X151548383Y-95192721D01*
X151563524Y-95193143D01*
X145345411Y-95217770D02*
X145391012Y-95227098D01*
X145391012Y-95227098D02*
X145414431Y-95251064D01*
X145414431Y-95251064D02*
X145424835Y-95304037D01*
X145424835Y-95304037D02*
X145428119Y-95347422D01*
X145428119Y-95347422D02*
X145419878Y-95498447D01*
X145419878Y-95498447D02*
X145381212Y-95668318D01*
X145381212Y-95668318D02*
X145317685Y-95845412D01*
X145317685Y-95845412D02*
X145234861Y-96018107D01*
X145234861Y-96018107D02*
X145138303Y-96174779D01*
X145138303Y-96174779D02*
X145033575Y-96303807D01*
X145033575Y-96303807D02*
X144927813Y-96392587D01*
X144927813Y-96392587D02*
X144813821Y-96451333D01*
X144813821Y-96451333D02*
X144724043Y-96470170D01*
X144724043Y-96470170D02*
X144664803Y-96451303D01*
X144664803Y-96451303D02*
X144648263Y-96428893D01*
X144648263Y-96428893D02*
X144631612Y-96384687D01*
X144631612Y-96384687D02*
X144613880Y-96313756D01*
X144613880Y-96313756D02*
X144594100Y-96211173D01*
X144594100Y-96211173D02*
X144571304Y-96072009D01*
X144571304Y-96072009D02*
X144544523Y-95891337D01*
X144544523Y-95891337D02*
X144518930Y-95708900D01*
X144518930Y-95708900D02*
X144504302Y-95589201D01*
X144504302Y-95589201D02*
X144492454Y-95467489D01*
X144492454Y-95467489D02*
X144485861Y-95369315D01*
X144485861Y-95369315D02*
X144485733Y-95366000D01*
X144485733Y-95366000D02*
X144483982Y-95286043D01*
X144483982Y-95286043D02*
X144490883Y-95243658D01*
X144490883Y-95243658D02*
X144513203Y-95225650D01*
X144513203Y-95225650D02*
X144557713Y-95218826D01*
X144557713Y-95218826D02*
X144561421Y-95218466D01*
X144561421Y-95218466D02*
X144612084Y-95219207D01*
X144612084Y-95219207D02*
X144648863Y-95237875D01*
X144648863Y-95237875D02*
X144675660Y-95282017D01*
X144675660Y-95282017D02*
X144696376Y-95359180D01*
X144696376Y-95359180D02*
X144714914Y-95476912D01*
X144714914Y-95476912D02*
X144721480Y-95528056D01*
X144721480Y-95528056D02*
X144737481Y-95648573D01*
X144737481Y-95648573D02*
X144755022Y-95767913D01*
X144755022Y-95767913D02*
X144770784Y-95863708D01*
X144770784Y-95863708D02*
X144773481Y-95878337D01*
X144773481Y-95878337D02*
X144788182Y-95972636D01*
X144788182Y-95972636D02*
X144796964Y-96061373D01*
X144796964Y-96061373D02*
X144798059Y-96091867D01*
X144798059Y-96091867D02*
X144806046Y-96163263D01*
X144806046Y-96163263D02*
X144831450Y-96187999D01*
X144831450Y-96187999D02*
X144876432Y-96166634D01*
X144876432Y-96166634D02*
X144921600Y-96123611D01*
X144921600Y-96123611D02*
X145008880Y-96005299D01*
X145008880Y-96005299D02*
X145087277Y-95853374D01*
X145087277Y-95853374D02*
X145150206Y-95684969D01*
X145150206Y-95684969D02*
X145191082Y-95517221D01*
X145191082Y-95517221D02*
X145203554Y-95389904D01*
X145203554Y-95389904D02*
X145219107Y-95290394D01*
X145219107Y-95290394D02*
X145263180Y-95232616D01*
X145263180Y-95232616D02*
X145335507Y-95216892D01*
X145335507Y-95216892D02*
X145345411Y-95217770D01*
X145345411Y-95217770D02*
X145345411Y-95217770D01*
G36*
X145345411Y-95217770D02*
G01*
X145391012Y-95227098D01*
X145414431Y-95251064D01*
X145424835Y-95304037D01*
X145428119Y-95347422D01*
X145419878Y-95498447D01*
X145381212Y-95668318D01*
X145317685Y-95845412D01*
X145234861Y-96018107D01*
X145138303Y-96174779D01*
X145033575Y-96303807D01*
X144927813Y-96392587D01*
X144813821Y-96451333D01*
X144724043Y-96470170D01*
X144664803Y-96451303D01*
X144648263Y-96428893D01*
X144631612Y-96384687D01*
X144613880Y-96313756D01*
X144594100Y-96211173D01*
X144571304Y-96072009D01*
X144544523Y-95891337D01*
X144518930Y-95708900D01*
X144504302Y-95589201D01*
X144492454Y-95467489D01*
X144485861Y-95369315D01*
X144485733Y-95366000D01*
X144483982Y-95286043D01*
X144490883Y-95243658D01*
X144513203Y-95225650D01*
X144557713Y-95218826D01*
X144561421Y-95218466D01*
X144612084Y-95219207D01*
X144648863Y-95237875D01*
X144675660Y-95282017D01*
X144696376Y-95359180D01*
X144714914Y-95476912D01*
X144721480Y-95528056D01*
X144737481Y-95648573D01*
X144755022Y-95767913D01*
X144770784Y-95863708D01*
X144773481Y-95878337D01*
X144788182Y-95972636D01*
X144796964Y-96061373D01*
X144798059Y-96091867D01*
X144806046Y-96163263D01*
X144831450Y-96187999D01*
X144876432Y-96166634D01*
X144921600Y-96123611D01*
X145008880Y-96005299D01*
X145087277Y-95853374D01*
X145150206Y-95684969D01*
X145191082Y-95517221D01*
X145203554Y-95389904D01*
X145219107Y-95290394D01*
X145263180Y-95232616D01*
X145335507Y-95216892D01*
X145345411Y-95217770D01*
G37*
X145345411Y-95217770D02*
X145391012Y-95227098D01*
X145414431Y-95251064D01*
X145424835Y-95304037D01*
X145428119Y-95347422D01*
X145419878Y-95498447D01*
X145381212Y-95668318D01*
X145317685Y-95845412D01*
X145234861Y-96018107D01*
X145138303Y-96174779D01*
X145033575Y-96303807D01*
X144927813Y-96392587D01*
X144813821Y-96451333D01*
X144724043Y-96470170D01*
X144664803Y-96451303D01*
X144648263Y-96428893D01*
X144631612Y-96384687D01*
X144613880Y-96313756D01*
X144594100Y-96211173D01*
X144571304Y-96072009D01*
X144544523Y-95891337D01*
X144518930Y-95708900D01*
X144504302Y-95589201D01*
X144492454Y-95467489D01*
X144485861Y-95369315D01*
X144485733Y-95366000D01*
X144483982Y-95286043D01*
X144490883Y-95243658D01*
X144513203Y-95225650D01*
X144557713Y-95218826D01*
X144561421Y-95218466D01*
X144612084Y-95219207D01*
X144648863Y-95237875D01*
X144675660Y-95282017D01*
X144696376Y-95359180D01*
X144714914Y-95476912D01*
X144721480Y-95528056D01*
X144737481Y-95648573D01*
X144755022Y-95767913D01*
X144770784Y-95863708D01*
X144773481Y-95878337D01*
X144788182Y-95972636D01*
X144796964Y-96061373D01*
X144798059Y-96091867D01*
X144806046Y-96163263D01*
X144831450Y-96187999D01*
X144876432Y-96166634D01*
X144921600Y-96123611D01*
X145008880Y-96005299D01*
X145087277Y-95853374D01*
X145150206Y-95684969D01*
X145191082Y-95517221D01*
X145203554Y-95389904D01*
X145219107Y-95290394D01*
X145263180Y-95232616D01*
X145335507Y-95216892D01*
X145345411Y-95217770D01*
X153580836Y-95228259D02*
X153652688Y-95235942D01*
X153652688Y-95235942D02*
X153705415Y-95253363D01*
X153705415Y-95253363D02*
X153754825Y-95284177D01*
X153754825Y-95284177D02*
X153769086Y-95294839D01*
X153769086Y-95294839D02*
X153858360Y-95389803D01*
X153858360Y-95389803D02*
X153929729Y-95518687D01*
X153929729Y-95518687D02*
X153974590Y-95665469D01*
X153974590Y-95665469D02*
X153977779Y-95683500D01*
X153977779Y-95683500D02*
X153978551Y-95817290D01*
X153978551Y-95817290D02*
X153945706Y-95966609D01*
X153945706Y-95966609D02*
X153885362Y-96115326D01*
X153885362Y-96115326D02*
X153803632Y-96247315D01*
X153803632Y-96247315D02*
X153735548Y-96322415D01*
X153735548Y-96322415D02*
X153639351Y-96387442D01*
X153639351Y-96387442D02*
X153519234Y-96436949D01*
X153519234Y-96436949D02*
X153393084Y-96466046D01*
X153393084Y-96466046D02*
X153278785Y-96469845D01*
X153278785Y-96469845D02*
X153230694Y-96460427D01*
X153230694Y-96460427D02*
X153080193Y-96391043D01*
X153080193Y-96391043D02*
X152968154Y-96288785D01*
X152968154Y-96288785D02*
X152894037Y-96152950D01*
X152894037Y-96152950D02*
X152857297Y-95982839D01*
X152857297Y-95982839D02*
X152856754Y-95977056D01*
X152856754Y-95977056D02*
X152859188Y-95901069D01*
X152859188Y-95901069D02*
X153103953Y-95901069D01*
X153103953Y-95901069D02*
X153111598Y-96023610D01*
X153111598Y-96023610D02*
X153136497Y-96113068D01*
X153136497Y-96113068D02*
X153153786Y-96146073D01*
X153153786Y-96146073D02*
X153226009Y-96220795D01*
X153226009Y-96220795D02*
X153320663Y-96257166D01*
X153320663Y-96257166D02*
X153426031Y-96254447D01*
X153426031Y-96254447D02*
X153530396Y-96211898D01*
X153530396Y-96211898D02*
X153581176Y-96173056D01*
X153581176Y-96173056D02*
X153663096Y-96066068D01*
X153663096Y-96066068D02*
X153716314Y-95930641D01*
X153716314Y-95930641D02*
X153737826Y-95782156D01*
X153737826Y-95782156D02*
X153724628Y-95635994D01*
X153724628Y-95635994D02*
X153700800Y-95560518D01*
X153700800Y-95560518D02*
X153653224Y-95479359D01*
X153653224Y-95479359D02*
X153587005Y-95434160D01*
X153587005Y-95434160D02*
X153489506Y-95417418D01*
X153489506Y-95417418D02*
X153458699Y-95416800D01*
X153458699Y-95416800D02*
X153338145Y-95439780D01*
X153338145Y-95439780D02*
X153238977Y-95505603D01*
X153238977Y-95505603D02*
X153164620Y-95609593D01*
X153164620Y-95609593D02*
X153118501Y-95747074D01*
X153118501Y-95747074D02*
X153103953Y-95901069D01*
X153103953Y-95901069D02*
X152859188Y-95901069D01*
X152859188Y-95901069D02*
X152862379Y-95801461D01*
X152862379Y-95801461D02*
X152907240Y-95630330D01*
X152907240Y-95630330D02*
X152986019Y-95475547D01*
X152986019Y-95475547D02*
X153093398Y-95348996D01*
X153093398Y-95348996D02*
X153161204Y-95296709D01*
X153161204Y-95296709D02*
X153223237Y-95260682D01*
X153223237Y-95260682D02*
X153282364Y-95239587D01*
X153282364Y-95239587D02*
X153355879Y-95229552D01*
X153355879Y-95229552D02*
X153461079Y-95226702D01*
X153461079Y-95226702D02*
X153474049Y-95226663D01*
X153474049Y-95226663D02*
X153580836Y-95228259D01*
X153580836Y-95228259D02*
X153580836Y-95228259D01*
G36*
X152907240Y-95630330D02*
G01*
X152986019Y-95475547D01*
X153093398Y-95348996D01*
X153161204Y-95296709D01*
X153223237Y-95260682D01*
X153282364Y-95239587D01*
X153355879Y-95229552D01*
X153461079Y-95226702D01*
X153474049Y-95226663D01*
X153580836Y-95228259D01*
X153652688Y-95235942D01*
X153705415Y-95253363D01*
X153754825Y-95284177D01*
X153769086Y-95294839D01*
X153858360Y-95389803D01*
X153929729Y-95518687D01*
X153974590Y-95665469D01*
X153977779Y-95683500D01*
X153978551Y-95817290D01*
X153945706Y-95966609D01*
X153885362Y-96115326D01*
X153803632Y-96247315D01*
X153735548Y-96322415D01*
X153639351Y-96387442D01*
X153519234Y-96436949D01*
X153393084Y-96466046D01*
X153278785Y-96469845D01*
X153230694Y-96460427D01*
X153080193Y-96391043D01*
X152968154Y-96288785D01*
X152894037Y-96152950D01*
X152857297Y-95982839D01*
X152856754Y-95977056D01*
X152859188Y-95901069D01*
X153103953Y-95901069D01*
X153111598Y-96023610D01*
X153136497Y-96113068D01*
X153153786Y-96146073D01*
X153226009Y-96220795D01*
X153320663Y-96257166D01*
X153426031Y-96254447D01*
X153530396Y-96211898D01*
X153581176Y-96173056D01*
X153663096Y-96066068D01*
X153716314Y-95930641D01*
X153737826Y-95782156D01*
X153724628Y-95635994D01*
X153700800Y-95560518D01*
X153653224Y-95479359D01*
X153587005Y-95434160D01*
X153489506Y-95417418D01*
X153458699Y-95416800D01*
X153338145Y-95439780D01*
X153238977Y-95505603D01*
X153164620Y-95609593D01*
X153118501Y-95747074D01*
X153103953Y-95901069D01*
X152859188Y-95901069D01*
X152862379Y-95801461D01*
X152907240Y-95630330D01*
G37*
X152907240Y-95630330D02*
X152986019Y-95475547D01*
X153093398Y-95348996D01*
X153161204Y-95296709D01*
X153223237Y-95260682D01*
X153282364Y-95239587D01*
X153355879Y-95229552D01*
X153461079Y-95226702D01*
X153474049Y-95226663D01*
X153580836Y-95228259D01*
X153652688Y-95235942D01*
X153705415Y-95253363D01*
X153754825Y-95284177D01*
X153769086Y-95294839D01*
X153858360Y-95389803D01*
X153929729Y-95518687D01*
X153974590Y-95665469D01*
X153977779Y-95683500D01*
X153978551Y-95817290D01*
X153945706Y-95966609D01*
X153885362Y-96115326D01*
X153803632Y-96247315D01*
X153735548Y-96322415D01*
X153639351Y-96387442D01*
X153519234Y-96436949D01*
X153393084Y-96466046D01*
X153278785Y-96469845D01*
X153230694Y-96460427D01*
X153080193Y-96391043D01*
X152968154Y-96288785D01*
X152894037Y-96152950D01*
X152857297Y-95982839D01*
X152856754Y-95977056D01*
X152859188Y-95901069D01*
X153103953Y-95901069D01*
X153111598Y-96023610D01*
X153136497Y-96113068D01*
X153153786Y-96146073D01*
X153226009Y-96220795D01*
X153320663Y-96257166D01*
X153426031Y-96254447D01*
X153530396Y-96211898D01*
X153581176Y-96173056D01*
X153663096Y-96066068D01*
X153716314Y-95930641D01*
X153737826Y-95782156D01*
X153724628Y-95635994D01*
X153700800Y-95560518D01*
X153653224Y-95479359D01*
X153587005Y-95434160D01*
X153489506Y-95417418D01*
X153458699Y-95416800D01*
X153338145Y-95439780D01*
X153238977Y-95505603D01*
X153164620Y-95609593D01*
X153118501Y-95747074D01*
X153103953Y-95901069D01*
X152859188Y-95901069D01*
X152862379Y-95801461D01*
X152907240Y-95630330D01*
X146300845Y-95222069D02*
X146403560Y-95255967D01*
X146403560Y-95255967D02*
X146476827Y-95313989D01*
X146476827Y-95313989D02*
X146500950Y-95356170D01*
X146500950Y-95356170D02*
X146524049Y-95481129D01*
X146524049Y-95481129D02*
X146499305Y-95600743D01*
X146499305Y-95600743D02*
X146429660Y-95710879D01*
X146429660Y-95710879D02*
X146318055Y-95807404D01*
X146318055Y-95807404D02*
X146167432Y-95886186D01*
X146167432Y-95886186D02*
X146107984Y-95908153D01*
X146107984Y-95908153D02*
X146012895Y-95933474D01*
X146012895Y-95933474D02*
X145918556Y-95948454D01*
X145918556Y-95948454D02*
X145885734Y-95950200D01*
X145885734Y-95950200D02*
X145819806Y-95957392D01*
X145819806Y-95957392D02*
X145790881Y-95984022D01*
X145790881Y-95984022D02*
X145796336Y-96037672D01*
X145796336Y-96037672D02*
X145828541Y-96115467D01*
X145828541Y-96115467D02*
X145893524Y-96198492D01*
X145893524Y-96198492D02*
X145986602Y-96246740D01*
X145986602Y-96246740D02*
X146096847Y-96257955D01*
X146096847Y-96257955D02*
X146213328Y-96229884D01*
X146213328Y-96229884D02*
X146262831Y-96205044D01*
X146262831Y-96205044D02*
X146349061Y-96167528D01*
X146349061Y-96167528D02*
X146409801Y-96169581D01*
X146409801Y-96169581D02*
X146441418Y-96210063D01*
X146441418Y-96210063D02*
X146444156Y-96261873D01*
X146444156Y-96261873D02*
X146430785Y-96314969D01*
X146430785Y-96314969D02*
X146394934Y-96355192D01*
X146394934Y-96355192D02*
X146323929Y-96396493D01*
X146323929Y-96396493D02*
X146320111Y-96398398D01*
X146320111Y-96398398D02*
X146158544Y-96457639D01*
X146158544Y-96457639D02*
X146005507Y-96468899D01*
X146005507Y-96468899D02*
X145890259Y-96445488D01*
X145890259Y-96445488D02*
X145754783Y-96385130D01*
X145754783Y-96385130D02*
X145657742Y-96300810D01*
X145657742Y-96300810D02*
X145595616Y-96187027D01*
X145595616Y-96187027D02*
X145564888Y-96038280D01*
X145564888Y-96038280D02*
X145560059Y-95929163D01*
X145560059Y-95929163D02*
X145576192Y-95757225D01*
X145576192Y-95757225D02*
X145815034Y-95757225D01*
X145815034Y-95757225D02*
X145831442Y-95772400D01*
X145831442Y-95772400D02*
X145863413Y-95766012D01*
X145863413Y-95766012D02*
X145928837Y-95749423D01*
X145928837Y-95749423D02*
X145997824Y-95730593D01*
X145997824Y-95730593D02*
X146109665Y-95688130D01*
X146109665Y-95688130D02*
X146199984Y-95632899D01*
X146199984Y-95632899D02*
X146263520Y-95571410D01*
X146263520Y-95571410D02*
X146295015Y-95510172D01*
X146295015Y-95510172D02*
X146289208Y-95455695D01*
X146289208Y-95455695D02*
X146249709Y-95418860D01*
X146249709Y-95418860D02*
X146178032Y-95406824D01*
X146178032Y-95406824D02*
X146090147Y-95429629D01*
X146090147Y-95429629D02*
X145998927Y-95480465D01*
X145998927Y-95480465D02*
X145917247Y-95552520D01*
X145917247Y-95552520D02*
X145867253Y-95621170D01*
X145867253Y-95621170D02*
X145825950Y-95705771D01*
X145825950Y-95705771D02*
X145815034Y-95757225D01*
X145815034Y-95757225D02*
X145576192Y-95757225D01*
X145576192Y-95757225D02*
X145579160Y-95725594D01*
X145579160Y-95725594D02*
X145636840Y-95554709D01*
X145636840Y-95554709D02*
X145733660Y-95415498D01*
X145733660Y-95415498D02*
X145870181Y-95306951D01*
X145870181Y-95306951D02*
X145921199Y-95279096D01*
X145921199Y-95279096D02*
X146049146Y-95232235D01*
X146049146Y-95232235D02*
X146179201Y-95213692D01*
X146179201Y-95213692D02*
X146300845Y-95222069D01*
X146300845Y-95222069D02*
X146300845Y-95222069D01*
G36*
X145636840Y-95554709D02*
G01*
X145733660Y-95415498D01*
X145870181Y-95306951D01*
X145921199Y-95279096D01*
X146049146Y-95232235D01*
X146179201Y-95213692D01*
X146300845Y-95222069D01*
X146403560Y-95255967D01*
X146476827Y-95313989D01*
X146500950Y-95356170D01*
X146524049Y-95481129D01*
X146499305Y-95600743D01*
X146429660Y-95710879D01*
X146318055Y-95807404D01*
X146167432Y-95886186D01*
X146107984Y-95908153D01*
X146012895Y-95933474D01*
X145918556Y-95948454D01*
X145885734Y-95950200D01*
X145819806Y-95957392D01*
X145790881Y-95984022D01*
X145796336Y-96037672D01*
X145828541Y-96115467D01*
X145893524Y-96198492D01*
X145986602Y-96246740D01*
X146096847Y-96257955D01*
X146213328Y-96229884D01*
X146262831Y-96205044D01*
X146349061Y-96167528D01*
X146409801Y-96169581D01*
X146441418Y-96210063D01*
X146444156Y-96261873D01*
X146430785Y-96314969D01*
X146394934Y-96355192D01*
X146323929Y-96396493D01*
X146320111Y-96398398D01*
X146158544Y-96457639D01*
X146005507Y-96468899D01*
X145890259Y-96445488D01*
X145754783Y-96385130D01*
X145657742Y-96300810D01*
X145595616Y-96187027D01*
X145564888Y-96038280D01*
X145560059Y-95929163D01*
X145576192Y-95757225D01*
X145815034Y-95757225D01*
X145831442Y-95772400D01*
X145863413Y-95766012D01*
X145928837Y-95749423D01*
X145997824Y-95730593D01*
X146109665Y-95688130D01*
X146199984Y-95632899D01*
X146263520Y-95571410D01*
X146295015Y-95510172D01*
X146289208Y-95455695D01*
X146249709Y-95418860D01*
X146178032Y-95406824D01*
X146090147Y-95429629D01*
X145998927Y-95480465D01*
X145917247Y-95552520D01*
X145867253Y-95621170D01*
X145825950Y-95705771D01*
X145815034Y-95757225D01*
X145576192Y-95757225D01*
X145579160Y-95725594D01*
X145636840Y-95554709D01*
G37*
X145636840Y-95554709D02*
X145733660Y-95415498D01*
X145870181Y-95306951D01*
X145921199Y-95279096D01*
X146049146Y-95232235D01*
X146179201Y-95213692D01*
X146300845Y-95222069D01*
X146403560Y-95255967D01*
X146476827Y-95313989D01*
X146500950Y-95356170D01*
X146524049Y-95481129D01*
X146499305Y-95600743D01*
X146429660Y-95710879D01*
X146318055Y-95807404D01*
X146167432Y-95886186D01*
X146107984Y-95908153D01*
X146012895Y-95933474D01*
X145918556Y-95948454D01*
X145885734Y-95950200D01*
X145819806Y-95957392D01*
X145790881Y-95984022D01*
X145796336Y-96037672D01*
X145828541Y-96115467D01*
X145893524Y-96198492D01*
X145986602Y-96246740D01*
X146096847Y-96257955D01*
X146213328Y-96229884D01*
X146262831Y-96205044D01*
X146349061Y-96167528D01*
X146409801Y-96169581D01*
X146441418Y-96210063D01*
X146444156Y-96261873D01*
X146430785Y-96314969D01*
X146394934Y-96355192D01*
X146323929Y-96396493D01*
X146320111Y-96398398D01*
X146158544Y-96457639D01*
X146005507Y-96468899D01*
X145890259Y-96445488D01*
X145754783Y-96385130D01*
X145657742Y-96300810D01*
X145595616Y-96187027D01*
X145564888Y-96038280D01*
X145560059Y-95929163D01*
X145576192Y-95757225D01*
X145815034Y-95757225D01*
X145831442Y-95772400D01*
X145863413Y-95766012D01*
X145928837Y-95749423D01*
X145997824Y-95730593D01*
X146109665Y-95688130D01*
X146199984Y-95632899D01*
X146263520Y-95571410D01*
X146295015Y-95510172D01*
X146289208Y-95455695D01*
X146249709Y-95418860D01*
X146178032Y-95406824D01*
X146090147Y-95429629D01*
X145998927Y-95480465D01*
X145917247Y-95552520D01*
X145867253Y-95621170D01*
X145825950Y-95705771D01*
X145815034Y-95757225D01*
X145576192Y-95757225D01*
X145579160Y-95725594D01*
X145636840Y-95554709D01*
X151863769Y-95213865D02*
X151890872Y-95218275D01*
X151890872Y-95218275D02*
X151912823Y-95232248D01*
X151912823Y-95232248D02*
X151931185Y-95261202D01*
X151931185Y-95261202D02*
X151947521Y-95310555D01*
X151947521Y-95310555D02*
X151963395Y-95385727D01*
X151963395Y-95385727D02*
X151980369Y-95492135D01*
X151980369Y-95492135D02*
X152000007Y-95635198D01*
X152000007Y-95635198D02*
X152023872Y-95820335D01*
X152023872Y-95820335D02*
X152038786Y-95937500D01*
X152038786Y-95937500D02*
X152052356Y-96036498D01*
X152052356Y-96036498D02*
X152065866Y-96122812D01*
X152065866Y-96122812D02*
X152076038Y-96176080D01*
X152076038Y-96176080D02*
X152090649Y-96236860D01*
X152090649Y-96236860D02*
X152177018Y-96153148D01*
X152177018Y-96153148D02*
X152255410Y-96058916D01*
X152255410Y-96058916D02*
X152324318Y-95934846D01*
X152324318Y-95934846D02*
X152386811Y-95774170D01*
X152386811Y-95774170D02*
X152445958Y-95570123D01*
X152445958Y-95570123D02*
X152451678Y-95547586D01*
X152451678Y-95547586D02*
X152481670Y-95435535D01*
X152481670Y-95435535D02*
X152510674Y-95339996D01*
X152510674Y-95339996D02*
X152534828Y-95273040D01*
X152534828Y-95273040D02*
X152547186Y-95249136D01*
X152547186Y-95249136D02*
X152591481Y-95224582D01*
X152591481Y-95224582D02*
X152658520Y-95213636D01*
X152658520Y-95213636D02*
X152662469Y-95213600D01*
X152662469Y-95213600D02*
X152709318Y-95217518D01*
X152709318Y-95217518D02*
X152737217Y-95234322D01*
X152737217Y-95234322D02*
X152746769Y-95271583D01*
X152746769Y-95271583D02*
X152738577Y-95336875D01*
X152738577Y-95336875D02*
X152713244Y-95437770D01*
X152713244Y-95437770D02*
X152687462Y-95527426D01*
X152687462Y-95527426D02*
X152656971Y-95633566D01*
X152656971Y-95633566D02*
X152618402Y-95771318D01*
X152618402Y-95771318D02*
X152576612Y-95923172D01*
X152576612Y-95923172D02*
X152536459Y-96071615D01*
X152536459Y-96071615D02*
X152534965Y-96077200D01*
X152534965Y-96077200D02*
X152498884Y-96211829D01*
X152498884Y-96211829D02*
X152465002Y-96337731D01*
X152465002Y-96337731D02*
X152436726Y-96442283D01*
X152436726Y-96442283D02*
X152417461Y-96512865D01*
X152417461Y-96512865D02*
X152415016Y-96521700D01*
X152415016Y-96521700D02*
X152344574Y-96742080D01*
X152344574Y-96742080D02*
X152267441Y-96916120D01*
X152267441Y-96916120D02*
X152180553Y-97048149D01*
X152180553Y-97048149D02*
X152080845Y-97142496D01*
X152080845Y-97142496D02*
X151965252Y-97203490D01*
X151965252Y-97203490D02*
X151922759Y-97217131D01*
X151922759Y-97217131D02*
X151837902Y-97237539D01*
X151837902Y-97237539D02*
X151772416Y-97241151D01*
X151772416Y-97241151D02*
X151700711Y-97227333D01*
X151700711Y-97227333D02*
X151643359Y-97210191D01*
X151643359Y-97210191D02*
X151526880Y-97162555D01*
X151526880Y-97162555D02*
X151453184Y-97108294D01*
X151453184Y-97108294D02*
X151424365Y-97050728D01*
X151424365Y-97050728D02*
X151442517Y-96993178D01*
X151442517Y-96993178D02*
X151482832Y-96955695D01*
X151482832Y-96955695D02*
X151524260Y-96932777D01*
X151524260Y-96932777D02*
X151562398Y-96935986D01*
X151562398Y-96935986D02*
X151619180Y-96966955D01*
X151619180Y-96966955D02*
X151715773Y-97005231D01*
X151715773Y-97005231D02*
X151823631Y-97015683D01*
X151823631Y-97015683D02*
X151923202Y-96998305D01*
X151923202Y-96998305D02*
X151980661Y-96967024D01*
X151980661Y-96967024D02*
X152014550Y-96924655D01*
X152014550Y-96924655D02*
X152055612Y-96852590D01*
X152055612Y-96852590D02*
X152099855Y-96760910D01*
X152099855Y-96760910D02*
X152143285Y-96659699D01*
X152143285Y-96659699D02*
X152181907Y-96559040D01*
X152181907Y-96559040D02*
X152211730Y-96469014D01*
X152211730Y-96469014D02*
X152228760Y-96399705D01*
X152228760Y-96399705D02*
X152229002Y-96361195D01*
X152229002Y-96361195D02*
X152222430Y-96356600D01*
X152222430Y-96356600D02*
X152195197Y-96369743D01*
X152195197Y-96369743D02*
X152146064Y-96401625D01*
X152146064Y-96401625D02*
X152142580Y-96404067D01*
X152142580Y-96404067D02*
X152048227Y-96458355D01*
X152048227Y-96458355D02*
X151976611Y-96470742D01*
X151976611Y-96470742D02*
X151925473Y-96444586D01*
X151925473Y-96444586D02*
X151906891Y-96424454D01*
X151906891Y-96424454D02*
X151892508Y-96401104D01*
X151892508Y-96401104D02*
X151880249Y-96365981D01*
X151880249Y-96365981D02*
X151868041Y-96310533D01*
X151868041Y-96310533D02*
X151853809Y-96226207D01*
X151853809Y-96226207D02*
X151835480Y-96104448D01*
X151835480Y-96104448D02*
X151824063Y-96026400D01*
X151824063Y-96026400D02*
X151791694Y-95803123D01*
X151791694Y-95803123D02*
X151766827Y-95624998D01*
X151766827Y-95624998D02*
X151749497Y-95486924D01*
X151749497Y-95486924D02*
X151739743Y-95383804D01*
X151739743Y-95383804D02*
X151737600Y-95310540D01*
X151737600Y-95310540D02*
X151743107Y-95262034D01*
X151743107Y-95262034D02*
X151756299Y-95233186D01*
X151756299Y-95233186D02*
X151777214Y-95218900D01*
X151777214Y-95218900D02*
X151805889Y-95214076D01*
X151805889Y-95214076D02*
X151829951Y-95213599D01*
X151829951Y-95213599D02*
X151863769Y-95213865D01*
X151863769Y-95213865D02*
X151863769Y-95213865D01*
G36*
X151863769Y-95213865D02*
G01*
X151890872Y-95218275D01*
X151912823Y-95232248D01*
X151931185Y-95261202D01*
X151947521Y-95310555D01*
X151963395Y-95385727D01*
X151980369Y-95492135D01*
X152000007Y-95635198D01*
X152023872Y-95820335D01*
X152038786Y-95937500D01*
X152052356Y-96036498D01*
X152065866Y-96122812D01*
X152076038Y-96176080D01*
X152090649Y-96236860D01*
X152177018Y-96153148D01*
X152255410Y-96058916D01*
X152324318Y-95934846D01*
X152386811Y-95774170D01*
X152445958Y-95570123D01*
X152451678Y-95547586D01*
X152481670Y-95435535D01*
X152510674Y-95339996D01*
X152534828Y-95273040D01*
X152547186Y-95249136D01*
X152591481Y-95224582D01*
X152658520Y-95213636D01*
X152662469Y-95213600D01*
X152709318Y-95217518D01*
X152737217Y-95234322D01*
X152746769Y-95271583D01*
X152738577Y-95336875D01*
X152713244Y-95437770D01*
X152687462Y-95527426D01*
X152656971Y-95633566D01*
X152618402Y-95771318D01*
X152576612Y-95923172D01*
X152536459Y-96071615D01*
X152534965Y-96077200D01*
X152498884Y-96211829D01*
X152465002Y-96337731D01*
X152436726Y-96442283D01*
X152417461Y-96512865D01*
X152415016Y-96521700D01*
X152344574Y-96742080D01*
X152267441Y-96916120D01*
X152180553Y-97048149D01*
X152080845Y-97142496D01*
X151965252Y-97203490D01*
X151922759Y-97217131D01*
X151837902Y-97237539D01*
X151772416Y-97241151D01*
X151700711Y-97227333D01*
X151643359Y-97210191D01*
X151526880Y-97162555D01*
X151453184Y-97108294D01*
X151424365Y-97050728D01*
X151442517Y-96993178D01*
X151482832Y-96955695D01*
X151524260Y-96932777D01*
X151562398Y-96935986D01*
X151619180Y-96966955D01*
X151715773Y-97005231D01*
X151823631Y-97015683D01*
X151923202Y-96998305D01*
X151980661Y-96967024D01*
X152014550Y-96924655D01*
X152055612Y-96852590D01*
X152099855Y-96760910D01*
X152143285Y-96659699D01*
X152181907Y-96559040D01*
X152211730Y-96469014D01*
X152228760Y-96399705D01*
X152229002Y-96361195D01*
X152222430Y-96356600D01*
X152195197Y-96369743D01*
X152146064Y-96401625D01*
X152142580Y-96404067D01*
X152048227Y-96458355D01*
X151976611Y-96470742D01*
X151925473Y-96444586D01*
X151906891Y-96424454D01*
X151892508Y-96401104D01*
X151880249Y-96365981D01*
X151868041Y-96310533D01*
X151853809Y-96226207D01*
X151835480Y-96104448D01*
X151824063Y-96026400D01*
X151791694Y-95803123D01*
X151766827Y-95624998D01*
X151749497Y-95486924D01*
X151739743Y-95383804D01*
X151737600Y-95310540D01*
X151743107Y-95262034D01*
X151756299Y-95233186D01*
X151777214Y-95218900D01*
X151805889Y-95214076D01*
X151829951Y-95213599D01*
X151863769Y-95213865D01*
G37*
X151863769Y-95213865D02*
X151890872Y-95218275D01*
X151912823Y-95232248D01*
X151931185Y-95261202D01*
X151947521Y-95310555D01*
X151963395Y-95385727D01*
X151980369Y-95492135D01*
X152000007Y-95635198D01*
X152023872Y-95820335D01*
X152038786Y-95937500D01*
X152052356Y-96036498D01*
X152065866Y-96122812D01*
X152076038Y-96176080D01*
X152090649Y-96236860D01*
X152177018Y-96153148D01*
X152255410Y-96058916D01*
X152324318Y-95934846D01*
X152386811Y-95774170D01*
X152445958Y-95570123D01*
X152451678Y-95547586D01*
X152481670Y-95435535D01*
X152510674Y-95339996D01*
X152534828Y-95273040D01*
X152547186Y-95249136D01*
X152591481Y-95224582D01*
X152658520Y-95213636D01*
X152662469Y-95213600D01*
X152709318Y-95217518D01*
X152737217Y-95234322D01*
X152746769Y-95271583D01*
X152738577Y-95336875D01*
X152713244Y-95437770D01*
X152687462Y-95527426D01*
X152656971Y-95633566D01*
X152618402Y-95771318D01*
X152576612Y-95923172D01*
X152536459Y-96071615D01*
X152534965Y-96077200D01*
X152498884Y-96211829D01*
X152465002Y-96337731D01*
X152436726Y-96442283D01*
X152417461Y-96512865D01*
X152415016Y-96521700D01*
X152344574Y-96742080D01*
X152267441Y-96916120D01*
X152180553Y-97048149D01*
X152080845Y-97142496D01*
X151965252Y-97203490D01*
X151922759Y-97217131D01*
X151837902Y-97237539D01*
X151772416Y-97241151D01*
X151700711Y-97227333D01*
X151643359Y-97210191D01*
X151526880Y-97162555D01*
X151453184Y-97108294D01*
X151424365Y-97050728D01*
X151442517Y-96993178D01*
X151482832Y-96955695D01*
X151524260Y-96932777D01*
X151562398Y-96935986D01*
X151619180Y-96966955D01*
X151715773Y-97005231D01*
X151823631Y-97015683D01*
X151923202Y-96998305D01*
X151980661Y-96967024D01*
X152014550Y-96924655D01*
X152055612Y-96852590D01*
X152099855Y-96760910D01*
X152143285Y-96659699D01*
X152181907Y-96559040D01*
X152211730Y-96469014D01*
X152228760Y-96399705D01*
X152229002Y-96361195D01*
X152222430Y-96356600D01*
X152195197Y-96369743D01*
X152146064Y-96401625D01*
X152142580Y-96404067D01*
X152048227Y-96458355D01*
X151976611Y-96470742D01*
X151925473Y-96444586D01*
X151906891Y-96424454D01*
X151892508Y-96401104D01*
X151880249Y-96365981D01*
X151868041Y-96310533D01*
X151853809Y-96226207D01*
X151835480Y-96104448D01*
X151824063Y-96026400D01*
X151791694Y-95803123D01*
X151766827Y-95624998D01*
X151749497Y-95486924D01*
X151739743Y-95383804D01*
X151737600Y-95310540D01*
X151743107Y-95262034D01*
X151756299Y-95233186D01*
X151777214Y-95218900D01*
X151805889Y-95214076D01*
X151829951Y-95213599D01*
X151863769Y-95213865D01*
X156724448Y-96192336D02*
X156773585Y-96239244D01*
X156773585Y-96239244D02*
X156786859Y-96304055D01*
X156786859Y-96304055D02*
X156765452Y-96391812D01*
X156765452Y-96391812D02*
X156708375Y-96450583D01*
X156708375Y-96450583D02*
X156626342Y-96472098D01*
X156626342Y-96472098D02*
X156577326Y-96465803D01*
X156577326Y-96465803D02*
X156529460Y-96432574D01*
X156529460Y-96432574D02*
X156511203Y-96374856D01*
X156511203Y-96374856D02*
X156519244Y-96306849D01*
X156519244Y-96306849D02*
X156550276Y-96242757D01*
X156550276Y-96242757D02*
X156600988Y-96196781D01*
X156600988Y-96196781D02*
X156643146Y-96183314D01*
X156643146Y-96183314D02*
X156724448Y-96192336D01*
X156724448Y-96192336D02*
X156724448Y-96192336D01*
G36*
X156724448Y-96192336D02*
G01*
X156773585Y-96239244D01*
X156786859Y-96304055D01*
X156765452Y-96391812D01*
X156708375Y-96450583D01*
X156626342Y-96472098D01*
X156577326Y-96465803D01*
X156529460Y-96432574D01*
X156511203Y-96374856D01*
X156519244Y-96306849D01*
X156550276Y-96242757D01*
X156600988Y-96196781D01*
X156643146Y-96183314D01*
X156724448Y-96192336D01*
G37*
X156724448Y-96192336D02*
X156773585Y-96239244D01*
X156786859Y-96304055D01*
X156765452Y-96391812D01*
X156708375Y-96450583D01*
X156626342Y-96472098D01*
X156577326Y-96465803D01*
X156529460Y-96432574D01*
X156511203Y-96374856D01*
X156519244Y-96306849D01*
X156550276Y-96242757D01*
X156600988Y-96196781D01*
X156643146Y-96183314D01*
X156724448Y-96192336D01*
X150449097Y-95218856D02*
X150575282Y-95243070D01*
X150575282Y-95243070D02*
X150659496Y-95293182D01*
X150659496Y-95293182D02*
X150705166Y-95372293D01*
X150705166Y-95372293D02*
X150716259Y-95460588D01*
X150716259Y-95460588D02*
X150696384Y-95596948D01*
X150696384Y-95596948D02*
X150634986Y-95710588D01*
X150634986Y-95710588D02*
X150529402Y-95804978D01*
X150529402Y-95804978D02*
X150398759Y-95874470D01*
X150398759Y-95874470D02*
X150294359Y-95910506D01*
X150294359Y-95910506D02*
X150180069Y-95937235D01*
X150180069Y-95937235D02*
X150138409Y-95943234D01*
X150138409Y-95943234D02*
X150060855Y-95953296D01*
X150060855Y-95953296D02*
X150021250Y-95967843D01*
X150021250Y-95967843D02*
X150006895Y-95995321D01*
X150006895Y-95995321D02*
X150005059Y-96031907D01*
X150005059Y-96031907D02*
X150029620Y-96116881D01*
X150029620Y-96116881D02*
X150079305Y-96180753D01*
X150079305Y-96180753D02*
X150172617Y-96240057D01*
X150172617Y-96240057D02*
X150286993Y-96255195D01*
X150286993Y-96255195D02*
X150418062Y-96225973D01*
X150418062Y-96225973D02*
X150481016Y-96198454D01*
X150481016Y-96198454D02*
X150548918Y-96165960D01*
X150548918Y-96165960D02*
X150587067Y-96155772D01*
X150587067Y-96155772D02*
X150610940Y-96167073D01*
X150610940Y-96167073D02*
X150629848Y-96190609D01*
X150629848Y-96190609D02*
X150658092Y-96241568D01*
X150658092Y-96241568D02*
X150665459Y-96270711D01*
X150665459Y-96270711D02*
X150642744Y-96315020D01*
X150642744Y-96315020D02*
X150582125Y-96364480D01*
X150582125Y-96364480D02*
X150494891Y-96411559D01*
X150494891Y-96411559D02*
X150403355Y-96445553D01*
X150403355Y-96445553D02*
X150320446Y-96468976D01*
X150320446Y-96468976D02*
X150264669Y-96478443D01*
X150264669Y-96478443D02*
X150214640Y-96475050D01*
X150214640Y-96475050D02*
X150148974Y-96459892D01*
X150148974Y-96459892D02*
X150144759Y-96458810D01*
X150144759Y-96458810D02*
X149990733Y-96400902D01*
X149990733Y-96400902D02*
X149876602Y-96315198D01*
X149876602Y-96315198D02*
X149800773Y-96199141D01*
X149800773Y-96199141D02*
X149761652Y-96050174D01*
X149761652Y-96050174D02*
X149757647Y-95865738D01*
X149757647Y-95865738D02*
X149759509Y-95840386D01*
X149759509Y-95840386D02*
X149780699Y-95737651D01*
X149780699Y-95737651D02*
X150005901Y-95737651D01*
X150005901Y-95737651D02*
X150025860Y-95760781D01*
X150025860Y-95760781D02*
X150083764Y-95759826D01*
X150083764Y-95759826D02*
X150100309Y-95757016D01*
X150100309Y-95757016D02*
X150185948Y-95735060D01*
X150185948Y-95735060D02*
X150281238Y-95702302D01*
X150281238Y-95702302D02*
X150305104Y-95692584D01*
X150305104Y-95692584D02*
X150403345Y-95643569D01*
X150403345Y-95643569D02*
X150460344Y-95594227D01*
X150460344Y-95594227D02*
X150484851Y-95535208D01*
X150484851Y-95535208D02*
X150487659Y-95497531D01*
X150487659Y-95497531D02*
X150470595Y-95432620D01*
X150470595Y-95432620D02*
X150424664Y-95400726D01*
X150424664Y-95400726D02*
X150357760Y-95399807D01*
X150357760Y-95399807D02*
X150277775Y-95427818D01*
X150277775Y-95427818D02*
X150192602Y-95482714D01*
X150192602Y-95482714D02*
X150110132Y-95562450D01*
X150110132Y-95562450D02*
X150077534Y-95603772D01*
X150077534Y-95603772D02*
X150023316Y-95686595D01*
X150023316Y-95686595D02*
X150005901Y-95737651D01*
X150005901Y-95737651D02*
X149780699Y-95737651D01*
X149780699Y-95737651D02*
X149796543Y-95660840D01*
X149796543Y-95660840D02*
X149872440Y-95504572D01*
X149872440Y-95504572D02*
X149981300Y-95376901D01*
X149981300Y-95376901D02*
X150117220Y-95283145D01*
X150117220Y-95283145D02*
X150274299Y-95228624D01*
X150274299Y-95228624D02*
X150446637Y-95218656D01*
X150446637Y-95218656D02*
X150449097Y-95218856D01*
X150449097Y-95218856D02*
X150449097Y-95218856D01*
G36*
X149872440Y-95504572D02*
G01*
X149981300Y-95376901D01*
X150117220Y-95283145D01*
X150274299Y-95228624D01*
X150446637Y-95218656D01*
X150449097Y-95218856D01*
X150575282Y-95243070D01*
X150659496Y-95293182D01*
X150705166Y-95372293D01*
X150716259Y-95460588D01*
X150696384Y-95596948D01*
X150634986Y-95710588D01*
X150529402Y-95804978D01*
X150398759Y-95874470D01*
X150294359Y-95910506D01*
X150180069Y-95937235D01*
X150138409Y-95943234D01*
X150060855Y-95953296D01*
X150021250Y-95967843D01*
X150006895Y-95995321D01*
X150005059Y-96031907D01*
X150029620Y-96116881D01*
X150079305Y-96180753D01*
X150172617Y-96240057D01*
X150286993Y-96255195D01*
X150418062Y-96225973D01*
X150481016Y-96198454D01*
X150548918Y-96165960D01*
X150587067Y-96155772D01*
X150610940Y-96167073D01*
X150629848Y-96190609D01*
X150658092Y-96241568D01*
X150665459Y-96270711D01*
X150642744Y-96315020D01*
X150582125Y-96364480D01*
X150494891Y-96411559D01*
X150403355Y-96445553D01*
X150320446Y-96468976D01*
X150264669Y-96478443D01*
X150214640Y-96475050D01*
X150148974Y-96459892D01*
X150144759Y-96458810D01*
X149990733Y-96400902D01*
X149876602Y-96315198D01*
X149800773Y-96199141D01*
X149761652Y-96050174D01*
X149757647Y-95865738D01*
X149759509Y-95840386D01*
X149780699Y-95737651D01*
X150005901Y-95737651D01*
X150025860Y-95760781D01*
X150083764Y-95759826D01*
X150100309Y-95757016D01*
X150185948Y-95735060D01*
X150281238Y-95702302D01*
X150305104Y-95692584D01*
X150403345Y-95643569D01*
X150460344Y-95594227D01*
X150484851Y-95535208D01*
X150487659Y-95497531D01*
X150470595Y-95432620D01*
X150424664Y-95400726D01*
X150357760Y-95399807D01*
X150277775Y-95427818D01*
X150192602Y-95482714D01*
X150110132Y-95562450D01*
X150077534Y-95603772D01*
X150023316Y-95686595D01*
X150005901Y-95737651D01*
X149780699Y-95737651D01*
X149796543Y-95660840D01*
X149872440Y-95504572D01*
G37*
X149872440Y-95504572D02*
X149981300Y-95376901D01*
X150117220Y-95283145D01*
X150274299Y-95228624D01*
X150446637Y-95218656D01*
X150449097Y-95218856D01*
X150575282Y-95243070D01*
X150659496Y-95293182D01*
X150705166Y-95372293D01*
X150716259Y-95460588D01*
X150696384Y-95596948D01*
X150634986Y-95710588D01*
X150529402Y-95804978D01*
X150398759Y-95874470D01*
X150294359Y-95910506D01*
X150180069Y-95937235D01*
X150138409Y-95943234D01*
X150060855Y-95953296D01*
X150021250Y-95967843D01*
X150006895Y-95995321D01*
X150005059Y-96031907D01*
X150029620Y-96116881D01*
X150079305Y-96180753D01*
X150172617Y-96240057D01*
X150286993Y-96255195D01*
X150418062Y-96225973D01*
X150481016Y-96198454D01*
X150548918Y-96165960D01*
X150587067Y-96155772D01*
X150610940Y-96167073D01*
X150629848Y-96190609D01*
X150658092Y-96241568D01*
X150665459Y-96270711D01*
X150642744Y-96315020D01*
X150582125Y-96364480D01*
X150494891Y-96411559D01*
X150403355Y-96445553D01*
X150320446Y-96468976D01*
X150264669Y-96478443D01*
X150214640Y-96475050D01*
X150148974Y-96459892D01*
X150144759Y-96458810D01*
X149990733Y-96400902D01*
X149876602Y-96315198D01*
X149800773Y-96199141D01*
X149761652Y-96050174D01*
X149757647Y-95865738D01*
X149759509Y-95840386D01*
X149780699Y-95737651D01*
X150005901Y-95737651D01*
X150025860Y-95760781D01*
X150083764Y-95759826D01*
X150100309Y-95757016D01*
X150185948Y-95735060D01*
X150281238Y-95702302D01*
X150305104Y-95692584D01*
X150403345Y-95643569D01*
X150460344Y-95594227D01*
X150484851Y-95535208D01*
X150487659Y-95497531D01*
X150470595Y-95432620D01*
X150424664Y-95400726D01*
X150357760Y-95399807D01*
X150277775Y-95427818D01*
X150192602Y-95482714D01*
X150110132Y-95562450D01*
X150077534Y-95603772D01*
X150023316Y-95686595D01*
X150005901Y-95737651D01*
X149780699Y-95737651D01*
X149796543Y-95660840D01*
X149872440Y-95504572D01*
X148177964Y-94377373D02*
X148309559Y-94379705D01*
X148309559Y-94379705D02*
X148422072Y-94383623D01*
X148422072Y-94383623D02*
X148505522Y-94389121D01*
X148505522Y-94389121D02*
X148549930Y-94396195D01*
X148549930Y-94396195D02*
X148552942Y-94397595D01*
X148552942Y-94397595D02*
X148575449Y-94437202D01*
X148575449Y-94437202D02*
X148578342Y-94492456D01*
X148578342Y-94492456D02*
X148569959Y-94565900D01*
X148569959Y-94565900D02*
X148145974Y-94572857D01*
X148145974Y-94572857D02*
X147721989Y-94579815D01*
X147721989Y-94579815D02*
X147708692Y-94687157D01*
X147708692Y-94687157D02*
X147699402Y-94770046D01*
X147699402Y-94770046D02*
X147688557Y-94878110D01*
X147688557Y-94878110D02*
X147679902Y-94972300D01*
X147679902Y-94972300D02*
X147670126Y-95070750D01*
X147670126Y-95070750D02*
X147659590Y-95155712D01*
X147659590Y-95155712D02*
X147650879Y-95207250D01*
X147650879Y-95207250D02*
X147637351Y-95264399D01*
X147637351Y-95264399D02*
X147992987Y-95264399D01*
X147992987Y-95264399D02*
X148145834Y-95265561D01*
X148145834Y-95265561D02*
X148254165Y-95270411D01*
X148254165Y-95270411D02*
X148324237Y-95280998D01*
X148324237Y-95280998D02*
X148362308Y-95299371D01*
X148362308Y-95299371D02*
X148374635Y-95327580D01*
X148374635Y-95327580D02*
X148367474Y-95367672D01*
X148367474Y-95367672D02*
X148361464Y-95385050D01*
X148361464Y-95385050D02*
X148346014Y-95416883D01*
X148346014Y-95416883D02*
X148321573Y-95439231D01*
X148321573Y-95439231D02*
X148279904Y-95453764D01*
X148279904Y-95453764D02*
X148212771Y-95462154D01*
X148212771Y-95462154D02*
X148111934Y-95466073D01*
X148111934Y-95466073D02*
X147969158Y-95467193D01*
X147969158Y-95467193D02*
X147956632Y-95467211D01*
X147956632Y-95467211D02*
X147622706Y-95467600D01*
X147622706Y-95467600D02*
X147593882Y-95689850D01*
X147593882Y-95689850D02*
X147578784Y-95807606D01*
X147578784Y-95807606D02*
X147564494Y-95921354D01*
X147564494Y-95921354D02*
X147553594Y-96010474D01*
X147553594Y-96010474D02*
X147551712Y-96026400D01*
X147551712Y-96026400D02*
X147540716Y-96106466D01*
X147540716Y-96106466D02*
X147529134Y-96170288D01*
X147529134Y-96170288D02*
X147525592Y-96184543D01*
X147525592Y-96184543D02*
X147524686Y-96200495D01*
X147524686Y-96200495D02*
X147537106Y-96212276D01*
X147537106Y-96212276D02*
X147569570Y-96220687D01*
X147569570Y-96220687D02*
X147628791Y-96226525D01*
X147628791Y-96226525D02*
X147721487Y-96230590D01*
X147721487Y-96230590D02*
X147854372Y-96233682D01*
X147854372Y-96233682D02*
X147952489Y-96235343D01*
X147952489Y-96235343D02*
X148392159Y-96242300D01*
X148392159Y-96242300D02*
X148400542Y-96315743D01*
X148400542Y-96315743D02*
X148395928Y-96377426D01*
X148395928Y-96377426D02*
X148375142Y-96410604D01*
X148375142Y-96410604D02*
X148340634Y-96417088D01*
X148340634Y-96417088D02*
X148265476Y-96422478D01*
X148265476Y-96422478D02*
X148159027Y-96426729D01*
X148159027Y-96426729D02*
X148030645Y-96429796D01*
X148030645Y-96429796D02*
X147889688Y-96431632D01*
X147889688Y-96431632D02*
X147745516Y-96432191D01*
X147745516Y-96432191D02*
X147607487Y-96431428D01*
X147607487Y-96431428D02*
X147484959Y-96429296D01*
X147484959Y-96429296D02*
X147387290Y-96425749D01*
X147387290Y-96425749D02*
X147323839Y-96420742D01*
X147323839Y-96420742D02*
X147304192Y-96415866D01*
X147304192Y-96415866D02*
X147291398Y-96374801D01*
X147291398Y-96374801D02*
X147288150Y-96292791D01*
X147288150Y-96292791D02*
X147294287Y-96178755D01*
X147294287Y-96178755D02*
X147309649Y-96041611D01*
X147309649Y-96041611D02*
X147311081Y-96031265D01*
X147311081Y-96031265D02*
X147324867Y-95927292D01*
X147324867Y-95927292D02*
X147341243Y-95795464D01*
X147341243Y-95795464D02*
X147357422Y-95658441D01*
X147357422Y-95658441D02*
X147363209Y-95607300D01*
X147363209Y-95607300D02*
X147383314Y-95431992D01*
X147383314Y-95431992D02*
X147406888Y-95234587D01*
X147406888Y-95234587D02*
X147431979Y-95030785D01*
X147431979Y-95030785D02*
X147456637Y-94836290D01*
X147456637Y-94836290D02*
X147478911Y-94666804D01*
X147478911Y-94666804D02*
X147490723Y-94580782D01*
X147490723Y-94580782D02*
X147507371Y-94493397D01*
X147507371Y-94493397D02*
X147528120Y-94426618D01*
X147528120Y-94426618D02*
X147546502Y-94397021D01*
X147546502Y-94397021D02*
X147583025Y-94389714D01*
X147583025Y-94389714D02*
X147660342Y-94384027D01*
X147660342Y-94384027D02*
X147768474Y-94379955D01*
X147768474Y-94379955D02*
X147897441Y-94377493D01*
X147897441Y-94377493D02*
X148037264Y-94376634D01*
X148037264Y-94376634D02*
X148177964Y-94377373D01*
X148177964Y-94377373D02*
X148177964Y-94377373D01*
G36*
X148177964Y-94377373D02*
G01*
X148309559Y-94379705D01*
X148422072Y-94383623D01*
X148505522Y-94389121D01*
X148549930Y-94396195D01*
X148552942Y-94397595D01*
X148575449Y-94437202D01*
X148578342Y-94492456D01*
X148569959Y-94565900D01*
X148145974Y-94572857D01*
X147721989Y-94579815D01*
X147708692Y-94687157D01*
X147699402Y-94770046D01*
X147688557Y-94878110D01*
X147679902Y-94972300D01*
X147670126Y-95070750D01*
X147659590Y-95155712D01*
X147650879Y-95207250D01*
X147637351Y-95264399D01*
X147992987Y-95264399D01*
X148145834Y-95265561D01*
X148254165Y-95270411D01*
X148324237Y-95280998D01*
X148362308Y-95299371D01*
X148374635Y-95327580D01*
X148367474Y-95367672D01*
X148361464Y-95385050D01*
X148346014Y-95416883D01*
X148321573Y-95439231D01*
X148279904Y-95453764D01*
X148212771Y-95462154D01*
X148111934Y-95466073D01*
X147969158Y-95467193D01*
X147956632Y-95467211D01*
X147622706Y-95467600D01*
X147593882Y-95689850D01*
X147578784Y-95807606D01*
X147564494Y-95921354D01*
X147553594Y-96010474D01*
X147551712Y-96026400D01*
X147540716Y-96106466D01*
X147529134Y-96170288D01*
X147525592Y-96184543D01*
X147524686Y-96200495D01*
X147537106Y-96212276D01*
X147569570Y-96220687D01*
X147628791Y-96226525D01*
X147721487Y-96230590D01*
X147854372Y-96233682D01*
X147952489Y-96235343D01*
X148392159Y-96242300D01*
X148400542Y-96315743D01*
X148395928Y-96377426D01*
X148375142Y-96410604D01*
X148340634Y-96417088D01*
X148265476Y-96422478D01*
X148159027Y-96426729D01*
X148030645Y-96429796D01*
X147889688Y-96431632D01*
X147745516Y-96432191D01*
X147607487Y-96431428D01*
X147484959Y-96429296D01*
X147387290Y-96425749D01*
X147323839Y-96420742D01*
X147304192Y-96415866D01*
X147291398Y-96374801D01*
X147288150Y-96292791D01*
X147294287Y-96178755D01*
X147309649Y-96041611D01*
X147311081Y-96031265D01*
X147324867Y-95927292D01*
X147341243Y-95795464D01*
X147357422Y-95658441D01*
X147363209Y-95607300D01*
X147383314Y-95431992D01*
X147406888Y-95234587D01*
X147431979Y-95030785D01*
X147456637Y-94836290D01*
X147478911Y-94666804D01*
X147490723Y-94580782D01*
X147507371Y-94493397D01*
X147528120Y-94426618D01*
X147546502Y-94397021D01*
X147583025Y-94389714D01*
X147660342Y-94384027D01*
X147768474Y-94379955D01*
X147897441Y-94377493D01*
X148037264Y-94376634D01*
X148177964Y-94377373D01*
G37*
X148177964Y-94377373D02*
X148309559Y-94379705D01*
X148422072Y-94383623D01*
X148505522Y-94389121D01*
X148549930Y-94396195D01*
X148552942Y-94397595D01*
X148575449Y-94437202D01*
X148578342Y-94492456D01*
X148569959Y-94565900D01*
X148145974Y-94572857D01*
X147721989Y-94579815D01*
X147708692Y-94687157D01*
X147699402Y-94770046D01*
X147688557Y-94878110D01*
X147679902Y-94972300D01*
X147670126Y-95070750D01*
X147659590Y-95155712D01*
X147650879Y-95207250D01*
X147637351Y-95264399D01*
X147992987Y-95264399D01*
X148145834Y-95265561D01*
X148254165Y-95270411D01*
X148324237Y-95280998D01*
X148362308Y-95299371D01*
X148374635Y-95327580D01*
X148367474Y-95367672D01*
X148361464Y-95385050D01*
X148346014Y-95416883D01*
X148321573Y-95439231D01*
X148279904Y-95453764D01*
X148212771Y-95462154D01*
X148111934Y-95466073D01*
X147969158Y-95467193D01*
X147956632Y-95467211D01*
X147622706Y-95467600D01*
X147593882Y-95689850D01*
X147578784Y-95807606D01*
X147564494Y-95921354D01*
X147553594Y-96010474D01*
X147551712Y-96026400D01*
X147540716Y-96106466D01*
X147529134Y-96170288D01*
X147525592Y-96184543D01*
X147524686Y-96200495D01*
X147537106Y-96212276D01*
X147569570Y-96220687D01*
X147628791Y-96226525D01*
X147721487Y-96230590D01*
X147854372Y-96233682D01*
X147952489Y-96235343D01*
X148392159Y-96242300D01*
X148400542Y-96315743D01*
X148395928Y-96377426D01*
X148375142Y-96410604D01*
X148340634Y-96417088D01*
X148265476Y-96422478D01*
X148159027Y-96426729D01*
X148030645Y-96429796D01*
X147889688Y-96431632D01*
X147745516Y-96432191D01*
X147607487Y-96431428D01*
X147484959Y-96429296D01*
X147387290Y-96425749D01*
X147323839Y-96420742D01*
X147304192Y-96415866D01*
X147291398Y-96374801D01*
X147288150Y-96292791D01*
X147294287Y-96178755D01*
X147309649Y-96041611D01*
X147311081Y-96031265D01*
X147324867Y-95927292D01*
X147341243Y-95795464D01*
X147357422Y-95658441D01*
X147363209Y-95607300D01*
X147383314Y-95431992D01*
X147406888Y-95234587D01*
X147431979Y-95030785D01*
X147456637Y-94836290D01*
X147478911Y-94666804D01*
X147490723Y-94580782D01*
X147507371Y-94493397D01*
X147528120Y-94426618D01*
X147546502Y-94397021D01*
X147583025Y-94389714D01*
X147660342Y-94384027D01*
X147768474Y-94379955D01*
X147897441Y-94377493D01*
X148037264Y-94376634D01*
X148177964Y-94377373D01*
X142365037Y-94353445D02*
X142396592Y-94367780D01*
X142396592Y-94367780D02*
X142416896Y-94399005D01*
X142416896Y-94399005D02*
X142426619Y-94453121D01*
X142426619Y-94453121D02*
X142426434Y-94536126D01*
X142426434Y-94536126D02*
X142417010Y-94654021D01*
X142417010Y-94654021D02*
X142399020Y-94812806D01*
X142399020Y-94812806D02*
X142385495Y-94921500D01*
X142385495Y-94921500D02*
X142372200Y-95029478D01*
X142372200Y-95029478D02*
X142356077Y-95164603D01*
X142356077Y-95164603D02*
X142339898Y-95303532D01*
X142339898Y-95303532D02*
X142334218Y-95353300D01*
X142334218Y-95353300D02*
X142316837Y-95499881D01*
X142316837Y-95499881D02*
X142295845Y-95667052D01*
X142295845Y-95667052D02*
X142274997Y-95825140D01*
X142274997Y-95825140D02*
X142269045Y-95868418D01*
X142269045Y-95868418D02*
X142249208Y-96001195D01*
X142249208Y-96001195D02*
X142236564Y-96097091D01*
X142236564Y-96097091D02*
X142237373Y-96162030D01*
X142237373Y-96162030D02*
X142257895Y-96201931D01*
X142257895Y-96201931D02*
X142304390Y-96222719D01*
X142304390Y-96222719D02*
X142383118Y-96230312D01*
X142383118Y-96230312D02*
X142500339Y-96230635D01*
X142500339Y-96230635D02*
X142650865Y-96229600D01*
X142650865Y-96229600D02*
X142806067Y-96229966D01*
X142806067Y-96229966D02*
X142918166Y-96231650D01*
X142918166Y-96231650D02*
X142994857Y-96235529D01*
X142994857Y-96235529D02*
X143043836Y-96242482D01*
X143043836Y-96242482D02*
X143072797Y-96253385D01*
X143072797Y-96253385D02*
X143089435Y-96269117D01*
X143089435Y-96269117D02*
X143096259Y-96280400D01*
X143096259Y-96280400D02*
X143109551Y-96345351D01*
X143109551Y-96345351D02*
X143096259Y-96382000D01*
X143096259Y-96382000D02*
X143084563Y-96399166D01*
X143084563Y-96399166D02*
X143065853Y-96411963D01*
X143065853Y-96411963D02*
X143033287Y-96421029D01*
X143033287Y-96421029D02*
X142980019Y-96427003D01*
X142980019Y-96427003D02*
X142899205Y-96430525D01*
X142899205Y-96430525D02*
X142784002Y-96432235D01*
X142784002Y-96432235D02*
X142627566Y-96432771D01*
X142627566Y-96432771D02*
X142552375Y-96432800D01*
X142552375Y-96432800D02*
X142368900Y-96432101D01*
X142368900Y-96432101D02*
X142230271Y-96429753D01*
X142230271Y-96429753D02*
X142130547Y-96425372D01*
X142130547Y-96425372D02*
X142063791Y-96418578D01*
X142063791Y-96418578D02*
X142024064Y-96408989D01*
X142024064Y-96408989D02*
X142006577Y-96397734D01*
X142006577Y-96397734D02*
X141993056Y-96362719D01*
X141993056Y-96362719D02*
X141990000Y-96297547D01*
X141990000Y-96297547D02*
X141997310Y-96194114D01*
X141997310Y-96194114D02*
X142003441Y-96137384D01*
X142003441Y-96137384D02*
X142019502Y-95997224D01*
X142019502Y-95997224D02*
X142037505Y-95838884D01*
X142037505Y-95838884D02*
X142053779Y-95694673D01*
X142053779Y-95694673D02*
X142055032Y-95683500D01*
X142055032Y-95683500D02*
X142067956Y-95573240D01*
X142067956Y-95573240D02*
X142080383Y-95475790D01*
X142080383Y-95475790D02*
X142090263Y-95406954D01*
X142090263Y-95406954D02*
X142092958Y-95391400D01*
X142092958Y-95391400D02*
X142101306Y-95337833D01*
X142101306Y-95337833D02*
X142112994Y-95249554D01*
X142112994Y-95249554D02*
X142125969Y-95142366D01*
X142125969Y-95142366D02*
X142130885Y-95099300D01*
X142130885Y-95099300D02*
X142154932Y-94885442D01*
X142154932Y-94885442D02*
X142174576Y-94716710D01*
X142174576Y-94716710D02*
X142191178Y-94587758D01*
X142191178Y-94587758D02*
X142206098Y-94493240D01*
X142206098Y-94493240D02*
X142220696Y-94427810D01*
X142220696Y-94427810D02*
X142236333Y-94386122D01*
X142236333Y-94386122D02*
X142254369Y-94362830D01*
X142254369Y-94362830D02*
X142276165Y-94352587D01*
X142276165Y-94352587D02*
X142303081Y-94350049D01*
X142303081Y-94350049D02*
X142321558Y-94350000D01*
X142321558Y-94350000D02*
X142365037Y-94353445D01*
X142365037Y-94353445D02*
X142365037Y-94353445D01*
G36*
X142365037Y-94353445D02*
G01*
X142396592Y-94367780D01*
X142416896Y-94399005D01*
X142426619Y-94453121D01*
X142426434Y-94536126D01*
X142417010Y-94654021D01*
X142399020Y-94812806D01*
X142385495Y-94921500D01*
X142372200Y-95029478D01*
X142356077Y-95164603D01*
X142339898Y-95303532D01*
X142334218Y-95353300D01*
X142316837Y-95499881D01*
X142295845Y-95667052D01*
X142274997Y-95825140D01*
X142269045Y-95868418D01*
X142249208Y-96001195D01*
X142236564Y-96097091D01*
X142237373Y-96162030D01*
X142257895Y-96201931D01*
X142304390Y-96222719D01*
X142383118Y-96230312D01*
X142500339Y-96230635D01*
X142650865Y-96229600D01*
X142806067Y-96229966D01*
X142918166Y-96231650D01*
X142994857Y-96235529D01*
X143043836Y-96242482D01*
X143072797Y-96253385D01*
X143089435Y-96269117D01*
X143096259Y-96280400D01*
X143109551Y-96345351D01*
X143096259Y-96382000D01*
X143084563Y-96399166D01*
X143065853Y-96411963D01*
X143033287Y-96421029D01*
X142980019Y-96427003D01*
X142899205Y-96430525D01*
X142784002Y-96432235D01*
X142627566Y-96432771D01*
X142552375Y-96432800D01*
X142368900Y-96432101D01*
X142230271Y-96429753D01*
X142130547Y-96425372D01*
X142063791Y-96418578D01*
X142024064Y-96408989D01*
X142006577Y-96397734D01*
X141993056Y-96362719D01*
X141990000Y-96297547D01*
X141997310Y-96194114D01*
X142003441Y-96137384D01*
X142019502Y-95997224D01*
X142037505Y-95838884D01*
X142053779Y-95694673D01*
X142055032Y-95683500D01*
X142067956Y-95573240D01*
X142080383Y-95475790D01*
X142090263Y-95406954D01*
X142092958Y-95391400D01*
X142101306Y-95337833D01*
X142112994Y-95249554D01*
X142125969Y-95142366D01*
X142130885Y-95099300D01*
X142154932Y-94885442D01*
X142174576Y-94716710D01*
X142191178Y-94587758D01*
X142206098Y-94493240D01*
X142220696Y-94427810D01*
X142236333Y-94386122D01*
X142254369Y-94362830D01*
X142276165Y-94352587D01*
X142303081Y-94350049D01*
X142321558Y-94350000D01*
X142365037Y-94353445D01*
G37*
X142365037Y-94353445D02*
X142396592Y-94367780D01*
X142416896Y-94399005D01*
X142426619Y-94453121D01*
X142426434Y-94536126D01*
X142417010Y-94654021D01*
X142399020Y-94812806D01*
X142385495Y-94921500D01*
X142372200Y-95029478D01*
X142356077Y-95164603D01*
X142339898Y-95303532D01*
X142334218Y-95353300D01*
X142316837Y-95499881D01*
X142295845Y-95667052D01*
X142274997Y-95825140D01*
X142269045Y-95868418D01*
X142249208Y-96001195D01*
X142236564Y-96097091D01*
X142237373Y-96162030D01*
X142257895Y-96201931D01*
X142304390Y-96222719D01*
X142383118Y-96230312D01*
X142500339Y-96230635D01*
X142650865Y-96229600D01*
X142806067Y-96229966D01*
X142918166Y-96231650D01*
X142994857Y-96235529D01*
X143043836Y-96242482D01*
X143072797Y-96253385D01*
X143089435Y-96269117D01*
X143096259Y-96280400D01*
X143109551Y-96345351D01*
X143096259Y-96382000D01*
X143084563Y-96399166D01*
X143065853Y-96411963D01*
X143033287Y-96421029D01*
X142980019Y-96427003D01*
X142899205Y-96430525D01*
X142784002Y-96432235D01*
X142627566Y-96432771D01*
X142552375Y-96432800D01*
X142368900Y-96432101D01*
X142230271Y-96429753D01*
X142130547Y-96425372D01*
X142063791Y-96418578D01*
X142024064Y-96408989D01*
X142006577Y-96397734D01*
X141993056Y-96362719D01*
X141990000Y-96297547D01*
X141997310Y-96194114D01*
X142003441Y-96137384D01*
X142019502Y-95997224D01*
X142037505Y-95838884D01*
X142053779Y-95694673D01*
X142055032Y-95683500D01*
X142067956Y-95573240D01*
X142080383Y-95475790D01*
X142090263Y-95406954D01*
X142092958Y-95391400D01*
X142101306Y-95337833D01*
X142112994Y-95249554D01*
X142125969Y-95142366D01*
X142130885Y-95099300D01*
X142154932Y-94885442D01*
X142174576Y-94716710D01*
X142191178Y-94587758D01*
X142206098Y-94493240D01*
X142220696Y-94427810D01*
X142236333Y-94386122D01*
X142254369Y-94362830D01*
X142276165Y-94352587D01*
X142303081Y-94350049D01*
X142321558Y-94350000D01*
X142365037Y-94353445D01*
D12*
X147010000Y-104750580D02*
X147010000Y-104469420D01*
X145990000Y-104750580D02*
X145990000Y-104469420D01*
D10*
X131209631Y-82078481D02*
X130853098Y-82034705D01*
D12*
X143677065Y-84421445D02*
X141645383Y-81821010D01*
D10*
X135070412Y-91145700D02*
X135619582Y-91848606D01*
X128851551Y-83598485D02*
X128451241Y-83911241D01*
X137040592Y-85416128D02*
X133211178Y-80514701D01*
X130452789Y-82347461D02*
X130409012Y-82703994D01*
X140243068Y-82914080D02*
X136413654Y-78012653D01*
X134455883Y-79219901D02*
X134412106Y-79576433D01*
X132854645Y-80470925D02*
X132454336Y-80783681D01*
X133037498Y-88543689D02*
X129208083Y-83642262D01*
X133211178Y-80514701D02*
X132854645Y-80470925D01*
X132454336Y-80783681D02*
X132410559Y-81140213D01*
X136657585Y-77499742D02*
X136857740Y-77343364D01*
X130853098Y-82034705D02*
X130452789Y-82347461D01*
X136271340Y-90207432D02*
X136820510Y-90910338D01*
X132410559Y-81140213D02*
X133211178Y-80514701D01*
X136457431Y-77656120D02*
X136657585Y-77499742D01*
X128451241Y-83911241D02*
X128407465Y-84267774D01*
X136413654Y-78012653D02*
X136457431Y-77656120D01*
X128407465Y-84267774D02*
X132236879Y-89169201D01*
X139042140Y-83852348D02*
X135212725Y-78950921D01*
D12*
X131637646Y-89639911D02*
X141645383Y-81821010D01*
D10*
X128651396Y-83754863D02*
X128182262Y-83154399D01*
X136857740Y-77343364D02*
X137214273Y-77387141D01*
X134269793Y-91771212D02*
X134818963Y-92474118D01*
D12*
X133669329Y-92240346D02*
X131637646Y-89639911D01*
D10*
X135212725Y-78950921D02*
X134856193Y-78907144D01*
X134412106Y-79576433D02*
X135212725Y-78950921D01*
X135118853Y-76767948D02*
X128313592Y-82084801D01*
X134856193Y-78907144D02*
X134455883Y-79219901D01*
X130409012Y-82703994D02*
X134238426Y-87605420D01*
X136657585Y-77499742D02*
X136188451Y-76899278D01*
X141075054Y-86454360D02*
X141624224Y-87157265D01*
X140274435Y-87079872D02*
X140823605Y-87782777D01*
X129208083Y-83642262D02*
X128851551Y-83598485D01*
X132410559Y-81140213D02*
X136239974Y-86041640D01*
X134412106Y-79576433D02*
X138241521Y-84477860D01*
X142275982Y-85516092D02*
X142825152Y-86218997D01*
X143625771Y-85593485D02*
X143076601Y-84890579D01*
X135039045Y-86979908D02*
X131209631Y-82078481D01*
D12*
X143677065Y-84421445D02*
X133669329Y-92240346D01*
D10*
X139073507Y-88018140D02*
X139622677Y-88721045D01*
X130409012Y-82703994D02*
X131209631Y-82078481D01*
X128407465Y-84267774D02*
X129208083Y-83642262D01*
X137071959Y-89581920D02*
X137621129Y-90284825D01*
X137214273Y-77387141D02*
X136413654Y-78012653D01*
X138272888Y-88643652D02*
X138822058Y-89346557D01*
X137214273Y-77387141D02*
X141043687Y-82288568D01*
X128313592Y-82084801D02*
G75*
G03*
X128182262Y-83154399I469136J-600464D01*
G01*
X136188451Y-76899278D02*
G75*
G03*
X135118853Y-76767948I-600464J-469136D01*
G01*
D12*
X145760000Y-99109420D02*
X145760000Y-99390580D01*
X144740000Y-99109420D02*
X144740000Y-99390580D01*
X158139970Y-92488781D02*
X158338781Y-92289970D01*
X158861219Y-93210030D02*
X159060030Y-93011219D01*
X154450000Y-92560000D02*
X155850000Y-92560000D01*
X155850000Y-90240000D02*
X153950000Y-90240000D01*
X150000000Y-97440000D02*
X151950000Y-97440000D01*
X150000000Y-97440000D02*
X146550000Y-97440000D01*
X150000000Y-102560000D02*
X148050000Y-102560000D01*
X150000000Y-102560000D02*
X151950000Y-102560000D01*
D13*
X143150000Y-106850000D02*
X143800000Y-106850000D01*
X143150000Y-106200000D02*
X143150000Y-106850000D01*
D12*
X156554944Y-103262560D02*
X157416871Y-104365775D01*
X159245056Y-102937440D02*
X158075299Y-101440220D01*
X155627258Y-98727500D02*
X155152742Y-98727500D01*
X155627258Y-99772500D02*
X155152742Y-99772500D01*
D13*
X156200000Y-106850000D02*
X156850000Y-106850000D01*
X156850000Y-106850000D02*
X156850000Y-106200000D01*
D12*
X158996791Y-104811565D02*
X158775234Y-104984664D01*
X159624766Y-105615336D02*
X159403209Y-105788435D01*
G36*
X151622006Y-102810269D02*
G01*
X151626460Y-102813603D01*
X151635948Y-102815667D01*
X151655485Y-102815667D01*
X151723606Y-102835669D01*
X151728060Y-102839003D01*
X151750783Y-102843946D01*
X151750225Y-102846511D01*
X151799806Y-102861069D01*
X151805323Y-102865199D01*
X151854027Y-102889578D01*
X151877783Y-102894746D01*
X151877225Y-102897311D01*
X151926806Y-102911869D01*
X151938284Y-102920462D01*
X151980834Y-102941761D01*
X152011380Y-102968229D01*
X152062259Y-102993697D01*
X152066223Y-102997131D01*
X152107834Y-103017961D01*
X152142420Y-103047930D01*
X152184034Y-103068760D01*
X152207179Y-103088815D01*
X152212096Y-103096467D01*
X152244022Y-103124131D01*
X152285634Y-103144960D01*
X152308779Y-103165015D01*
X152313696Y-103172667D01*
X152345622Y-103200331D01*
X152387234Y-103221160D01*
X152410379Y-103241215D01*
X152415297Y-103248869D01*
X152435778Y-103266615D01*
X152440695Y-103274267D01*
X152461178Y-103292015D01*
X152466095Y-103299667D01*
X152486578Y-103317415D01*
X152491495Y-103325067D01*
X152511978Y-103342815D01*
X152516894Y-103350465D01*
X152542665Y-103372796D01*
X152550348Y-103374467D01*
X152569485Y-103374467D01*
X152589273Y-103368657D01*
X152606748Y-103348489D01*
X152614400Y-103343572D01*
X152632148Y-103323089D01*
X152639800Y-103318172D01*
X152657548Y-103297689D01*
X152665200Y-103292772D01*
X152682948Y-103272289D01*
X152690600Y-103267372D01*
X152708348Y-103246889D01*
X152715999Y-103241973D01*
X152725081Y-103231491D01*
X152784806Y-103193108D01*
X152792473Y-103190857D01*
X152809948Y-103170689D01*
X152817600Y-103165772D01*
X152835348Y-103145289D01*
X152842999Y-103140373D01*
X152852081Y-103129891D01*
X152911806Y-103091508D01*
X152919472Y-103089257D01*
X152928281Y-103079091D01*
X152988006Y-103040708D01*
X152995672Y-103038457D01*
X153004481Y-103028291D01*
X153064206Y-102989908D01*
X153071872Y-102987657D01*
X153080681Y-102977491D01*
X153140406Y-102939108D01*
X153161170Y-102933011D01*
X153191206Y-102913708D01*
X153222966Y-102904382D01*
X153234495Y-102896972D01*
X153241165Y-102896013D01*
X153288170Y-102882211D01*
X153318206Y-102862908D01*
X153349966Y-102853582D01*
X153361495Y-102846172D01*
X153368165Y-102845213D01*
X153426165Y-102828183D01*
X153437695Y-102820772D01*
X153473198Y-102815667D01*
X153483885Y-102815667D01*
X153527765Y-102802783D01*
X153539295Y-102795372D01*
X153574798Y-102790267D01*
X153941485Y-102790267D01*
X154009606Y-102810269D01*
X154014060Y-102813603D01*
X154023548Y-102815667D01*
X154068485Y-102815667D01*
X154136606Y-102835669D01*
X154141060Y-102839003D01*
X154163783Y-102843946D01*
X154163225Y-102846511D01*
X154212806Y-102861069D01*
X154217260Y-102864403D01*
X154239983Y-102869346D01*
X154239425Y-102871911D01*
X154289006Y-102886469D01*
X154294523Y-102890599D01*
X154343231Y-102914980D01*
X154343331Y-102915002D01*
X154394031Y-102940380D01*
X154394131Y-102940402D01*
X154444831Y-102965780D01*
X154444931Y-102965802D01*
X154500659Y-102993697D01*
X154504622Y-102997131D01*
X154546234Y-103017960D01*
X154569379Y-103038015D01*
X154574297Y-103045669D01*
X154594778Y-103063415D01*
X154599695Y-103071067D01*
X154620178Y-103088815D01*
X154625096Y-103096467D01*
X154669643Y-103135068D01*
X154679478Y-103150372D01*
X154696378Y-103165015D01*
X154701295Y-103172667D01*
X154721778Y-103190415D01*
X154726695Y-103198067D01*
X154747178Y-103215815D01*
X154752094Y-103223466D01*
X154762576Y-103232548D01*
X154800959Y-103292273D01*
X154803210Y-103299939D01*
X154813376Y-103308748D01*
X154851759Y-103368473D01*
X154857856Y-103389237D01*
X154877159Y-103419273D01*
X154883256Y-103440037D01*
X154902559Y-103470073D01*
X154908656Y-103490837D01*
X154927959Y-103520873D01*
X154937285Y-103552633D01*
X154944695Y-103564162D01*
X154945654Y-103570832D01*
X154962684Y-103628832D01*
X154970095Y-103640362D01*
X154975200Y-103675865D01*
X154975200Y-103711952D01*
X154988084Y-103755832D01*
X154995495Y-103767362D01*
X155000600Y-103802865D01*
X155000600Y-103889752D01*
X155013484Y-103933632D01*
X155020895Y-103945162D01*
X155026000Y-103980665D01*
X155026000Y-104118752D01*
X155005998Y-104186873D01*
X155002664Y-104191327D01*
X155000600Y-104200815D01*
X155000600Y-104271152D01*
X154980598Y-104339273D01*
X154977264Y-104343727D01*
X154975200Y-104353215D01*
X154975200Y-104372752D01*
X154955198Y-104440873D01*
X154951864Y-104445327D01*
X154946921Y-104468050D01*
X154944356Y-104467492D01*
X154929798Y-104517073D01*
X154926464Y-104521527D01*
X154921521Y-104544250D01*
X154918956Y-104543692D01*
X154904398Y-104593273D01*
X154900268Y-104598790D01*
X154873370Y-104652526D01*
X154869936Y-104656490D01*
X154849106Y-104698101D01*
X154822638Y-104728647D01*
X154799687Y-104774498D01*
X154799665Y-104774598D01*
X154771770Y-104830326D01*
X154768336Y-104834289D01*
X154747507Y-104875901D01*
X154727452Y-104899046D01*
X154719800Y-104903963D01*
X154692136Y-104935889D01*
X154671307Y-104977501D01*
X154651252Y-105000646D01*
X154643600Y-105005563D01*
X154615936Y-105037489D01*
X154595107Y-105079101D01*
X154575052Y-105102246D01*
X154567398Y-105107164D01*
X154549652Y-105127645D01*
X154542000Y-105132562D01*
X154524252Y-105153045D01*
X154516600Y-105157962D01*
X154498852Y-105178445D01*
X154491200Y-105183362D01*
X154473452Y-105203845D01*
X154465802Y-105208761D01*
X154438136Y-105240689D01*
X154417306Y-105282303D01*
X154405919Y-105295444D01*
X154346194Y-105333826D01*
X154338527Y-105336077D01*
X154321052Y-105356245D01*
X154313400Y-105361162D01*
X154295652Y-105381645D01*
X154288000Y-105386562D01*
X154270252Y-105407045D01*
X154262600Y-105411962D01*
X154244852Y-105432445D01*
X154237200Y-105437362D01*
X154219452Y-105457845D01*
X154211800Y-105462762D01*
X154194052Y-105483245D01*
X154186400Y-105488162D01*
X154168652Y-105508645D01*
X154161000Y-105513562D01*
X154143252Y-105534045D01*
X154135600Y-105538962D01*
X154117852Y-105559445D01*
X154110200Y-105564362D01*
X154092452Y-105584845D01*
X154084800Y-105589762D01*
X154067052Y-105610245D01*
X154059400Y-105615162D01*
X154041652Y-105635645D01*
X154034000Y-105640562D01*
X154016252Y-105661045D01*
X154008600Y-105665962D01*
X153990852Y-105686445D01*
X153983200Y-105691362D01*
X153965452Y-105711845D01*
X153957800Y-105716762D01*
X153940052Y-105737245D01*
X153932400Y-105742162D01*
X153914652Y-105762645D01*
X153907000Y-105767562D01*
X153889252Y-105788045D01*
X153881600Y-105792962D01*
X153863852Y-105813445D01*
X153856200Y-105818362D01*
X153838452Y-105838845D01*
X153830800Y-105843762D01*
X153813052Y-105864245D01*
X153805400Y-105869162D01*
X153787652Y-105889645D01*
X153780000Y-105894562D01*
X153762252Y-105915045D01*
X153754601Y-105919961D01*
X153745519Y-105930443D01*
X153685794Y-105968826D01*
X153678127Y-105971077D01*
X153660652Y-105991245D01*
X153653000Y-105996162D01*
X153635252Y-106016645D01*
X153627600Y-106021562D01*
X153609852Y-106042045D01*
X153602200Y-106046962D01*
X153584452Y-106067445D01*
X153576800Y-106072362D01*
X153559052Y-106092845D01*
X153551400Y-106097762D01*
X153533652Y-106118245D01*
X153526000Y-106123162D01*
X153508252Y-106143645D01*
X153500600Y-106148562D01*
X153482852Y-106169045D01*
X153475200Y-106173962D01*
X153457452Y-106194445D01*
X153449800Y-106199362D01*
X153432052Y-106219845D01*
X153424400Y-106224762D01*
X153406652Y-106245245D01*
X153399000Y-106250162D01*
X153381252Y-106270645D01*
X153373600Y-106275562D01*
X153355852Y-106296045D01*
X153348200Y-106300962D01*
X153330452Y-106321445D01*
X153322800Y-106326362D01*
X153305052Y-106346845D01*
X153297400Y-106351762D01*
X153279652Y-106372245D01*
X153272000Y-106377162D01*
X153254252Y-106397645D01*
X153246600Y-106402562D01*
X153228852Y-106423045D01*
X153221200Y-106427962D01*
X153203452Y-106448445D01*
X153195800Y-106453362D01*
X153178052Y-106473845D01*
X153170400Y-106478762D01*
X153152652Y-106499245D01*
X153145000Y-106504162D01*
X153127252Y-106524645D01*
X153119600Y-106529562D01*
X153101852Y-106550045D01*
X153094200Y-106554962D01*
X153076452Y-106575445D01*
X153068801Y-106580361D01*
X153059719Y-106590843D01*
X152999994Y-106629226D01*
X152992327Y-106631477D01*
X152974852Y-106651645D01*
X152967200Y-106656562D01*
X152949452Y-106677045D01*
X152941800Y-106681962D01*
X152924052Y-106702445D01*
X152916400Y-106707362D01*
X152898652Y-106727845D01*
X152891000Y-106732762D01*
X152873252Y-106753245D01*
X152865600Y-106758162D01*
X152847852Y-106778645D01*
X152840200Y-106783562D01*
X152822452Y-106804045D01*
X152814800Y-106808962D01*
X152797052Y-106829445D01*
X152789400Y-106834362D01*
X152771652Y-106854845D01*
X152764000Y-106859762D01*
X152746252Y-106880245D01*
X152738600Y-106885162D01*
X152720852Y-106905645D01*
X152713200Y-106910562D01*
X152695452Y-106931045D01*
X152687801Y-106935961D01*
X152678719Y-106946443D01*
X152618993Y-106984826D01*
X152601893Y-106989847D01*
X152530897Y-106989847D01*
X152526659Y-106987533D01*
X152513496Y-106984670D01*
X152457766Y-106956774D01*
X152434621Y-106936719D01*
X152429703Y-106929065D01*
X152409222Y-106911319D01*
X152404305Y-106903667D01*
X152383822Y-106885919D01*
X152378905Y-106878267D01*
X152358422Y-106860519D01*
X152353505Y-106852867D01*
X152333022Y-106835119D01*
X152328105Y-106827467D01*
X152307622Y-106809719D01*
X152302705Y-106802067D01*
X152282222Y-106784319D01*
X152277305Y-106776667D01*
X152256822Y-106758919D01*
X152251905Y-106751267D01*
X152231422Y-106733519D01*
X152226505Y-106725867D01*
X152206022Y-106708119D01*
X152201105Y-106700467D01*
X152180622Y-106682719D01*
X152175705Y-106675067D01*
X152155222Y-106657319D01*
X152150305Y-106649667D01*
X152129822Y-106631919D01*
X152124906Y-106624269D01*
X152092978Y-106596603D01*
X152051366Y-106575774D01*
X152028221Y-106555719D01*
X152023303Y-106548065D01*
X152002822Y-106530319D01*
X151997905Y-106522667D01*
X151977422Y-106504919D01*
X151972505Y-106497267D01*
X151952022Y-106479519D01*
X151947105Y-106471867D01*
X151926622Y-106454119D01*
X151921705Y-106446467D01*
X151901222Y-106428719D01*
X151896305Y-106421067D01*
X151875822Y-106403319D01*
X151870905Y-106395667D01*
X151850422Y-106377919D01*
X151845505Y-106370267D01*
X151825022Y-106352519D01*
X151820105Y-106344867D01*
X151799622Y-106327119D01*
X151794705Y-106319467D01*
X151774222Y-106301719D01*
X151769305Y-106294067D01*
X151748822Y-106276319D01*
X151743905Y-106268667D01*
X151723422Y-106250919D01*
X151718505Y-106243267D01*
X151698022Y-106225519D01*
X151693105Y-106217867D01*
X151672622Y-106200119D01*
X151667705Y-106192467D01*
X151647222Y-106174719D01*
X151642305Y-106167067D01*
X151621822Y-106149319D01*
X151616905Y-106141667D01*
X151596422Y-106123919D01*
X151591505Y-106116267D01*
X151571022Y-106098519D01*
X151566105Y-106090867D01*
X151545622Y-106073119D01*
X151540705Y-106065467D01*
X151520222Y-106047719D01*
X151515305Y-106040067D01*
X151494822Y-106022319D01*
X151489905Y-106014667D01*
X151469422Y-105996919D01*
X151464506Y-105989269D01*
X151432578Y-105961603D01*
X151390966Y-105940774D01*
X151367821Y-105920719D01*
X151362903Y-105913065D01*
X151342422Y-105895319D01*
X151337505Y-105887667D01*
X151317022Y-105869919D01*
X151312105Y-105862267D01*
X151291622Y-105844519D01*
X151286705Y-105836867D01*
X151266222Y-105819119D01*
X151261305Y-105811467D01*
X151240822Y-105793719D01*
X151235905Y-105786067D01*
X151215422Y-105768319D01*
X151210505Y-105760667D01*
X151190022Y-105742919D01*
X151185105Y-105735267D01*
X151164622Y-105717519D01*
X151159705Y-105709867D01*
X151139222Y-105692119D01*
X151134305Y-105684467D01*
X151113822Y-105666719D01*
X151108905Y-105659067D01*
X151088422Y-105641319D01*
X151083505Y-105633667D01*
X151063022Y-105615919D01*
X151058105Y-105608267D01*
X151037622Y-105590519D01*
X151032705Y-105582867D01*
X151012222Y-105565119D01*
X151007305Y-105557467D01*
X150986822Y-105539719D01*
X150981905Y-105532067D01*
X150961422Y-105514319D01*
X150956505Y-105506667D01*
X150936022Y-105488919D01*
X150931105Y-105481267D01*
X150910622Y-105463519D01*
X150905705Y-105455867D01*
X150885222Y-105438119D01*
X150880305Y-105430467D01*
X150859822Y-105412719D01*
X150854905Y-105405067D01*
X150834422Y-105387319D01*
X150829505Y-105379667D01*
X150809022Y-105361919D01*
X150804104Y-105354267D01*
X150759557Y-105315666D01*
X150749723Y-105300364D01*
X150721378Y-105275803D01*
X150679764Y-105254973D01*
X150666623Y-105243586D01*
X150628241Y-105183861D01*
X150625990Y-105176194D01*
X150605822Y-105158719D01*
X150600905Y-105151067D01*
X150580422Y-105133319D01*
X150575505Y-105125667D01*
X150555022Y-105107919D01*
X150550106Y-105100268D01*
X150539624Y-105091186D01*
X150501241Y-105031461D01*
X150498990Y-105023794D01*
X150478822Y-105006319D01*
X150473906Y-104998668D01*
X150463424Y-104989586D01*
X150425041Y-104929861D01*
X150422790Y-104922194D01*
X150402622Y-104904719D01*
X150397706Y-104897068D01*
X150387224Y-104887986D01*
X150348841Y-104828261D01*
X150342744Y-104807497D01*
X150323441Y-104777461D01*
X150317344Y-104756697D01*
X150298041Y-104726661D01*
X150295790Y-104718995D01*
X150285624Y-104710186D01*
X150247241Y-104650461D01*
X150237915Y-104618701D01*
X150230505Y-104607172D01*
X150229546Y-104600502D01*
X150215744Y-104553497D01*
X150196441Y-104523461D01*
X150187115Y-104491701D01*
X150179705Y-104480172D01*
X150178746Y-104473502D01*
X150161716Y-104415502D01*
X150154305Y-104403972D01*
X150153346Y-104397302D01*
X150136316Y-104339302D01*
X150128905Y-104327772D01*
X150123800Y-104292269D01*
X150123800Y-104256182D01*
X150110916Y-104212302D01*
X150103505Y-104200772D01*
X150098400Y-104165269D01*
X150098400Y-103925582D01*
X150118402Y-103857461D01*
X150121736Y-103853007D01*
X150123800Y-103843519D01*
X150123800Y-103773182D01*
X150143802Y-103705061D01*
X150147136Y-103700607D01*
X150149200Y-103691119D01*
X150149200Y-103671582D01*
X150169202Y-103603461D01*
X150172536Y-103599007D01*
X150177479Y-103576284D01*
X150180044Y-103576842D01*
X150194602Y-103527261D01*
X150198732Y-103521744D01*
X150223113Y-103473036D01*
X150223135Y-103472936D01*
X150248513Y-103422236D01*
X150248535Y-103422136D01*
X150276430Y-103366408D01*
X150279864Y-103362444D01*
X150300694Y-103320833D01*
X150330663Y-103286247D01*
X150351493Y-103244633D01*
X150371548Y-103221488D01*
X150379202Y-103216570D01*
X150396948Y-103196089D01*
X150404598Y-103191173D01*
X150441729Y-103148322D01*
X150457332Y-103119748D01*
X150497114Y-103096144D01*
X150498548Y-103094489D01*
X150506200Y-103089572D01*
X150523948Y-103069089D01*
X150531600Y-103064172D01*
X150549348Y-103043689D01*
X150556999Y-103038773D01*
X150566081Y-103028291D01*
X150625806Y-102989908D01*
X150646570Y-102983811D01*
X150676606Y-102964508D01*
X150697370Y-102958411D01*
X150727406Y-102939108D01*
X150748170Y-102933011D01*
X150778206Y-102913708D01*
X150798970Y-102907611D01*
X150829006Y-102888308D01*
X150860766Y-102878982D01*
X150872295Y-102871572D01*
X150878965Y-102870613D01*
X150936965Y-102853583D01*
X150948495Y-102846172D01*
X150955165Y-102845213D01*
X151013165Y-102828183D01*
X151024695Y-102820772D01*
X151060198Y-102815667D01*
X151096285Y-102815667D01*
X151140165Y-102802783D01*
X151151695Y-102795372D01*
X151187198Y-102790267D01*
X151553885Y-102790267D01*
X151622006Y-102810269D01*
G37*
%LPC*%
D15*
X143250000Y-100025000D03*
X143250000Y-98475000D03*
D16*
X156225000Y-100850000D03*
X154575000Y-100850000D03*
D17*
X143420000Y-101570000D03*
X142770000Y-101570000D03*
X142120000Y-101570000D03*
X142120000Y-103470000D03*
X143420000Y-103470000D03*
D18*
X156150000Y-97725000D03*
X157700000Y-97725000D03*
D19*
X162500000Y-100000000D03*
D20*
X144450000Y-94450000D03*
X144450000Y-93550000D03*
X143550000Y-93550000D03*
X143550000Y-94450000D03*
D16*
X148825000Y-86310000D03*
X147175000Y-86310000D03*
D19*
X137500000Y-100000000D03*
X150000000Y-109500000D03*
D21*
X132500097Y-94077538D03*
X134299903Y-96222462D03*
D20*
X156450000Y-94450000D03*
X155550000Y-94450000D03*
X155550000Y-93550000D03*
X156450000Y-93550000D03*
D22*
X161528577Y-94520070D03*
X161030648Y-94102258D03*
X160532719Y-93684446D03*
X159311423Y-95139930D03*
X160307281Y-95975554D03*
D15*
X146500000Y-105385000D03*
X146500000Y-103835000D03*
D23*
X144080000Y-87000000D03*
D24*
X142078453Y-88563780D03*
X140076905Y-90127560D03*
X138075358Y-91691340D03*
X136073811Y-93255121D03*
D25*
X145250000Y-98475000D03*
X145250000Y-100025000D03*
D26*
X158051992Y-93298008D03*
X159148008Y-92201992D03*
D27*
X154200000Y-90750000D03*
X154200000Y-91400000D03*
X154200000Y-92050000D03*
X156100000Y-92050000D03*
X156100000Y-90750000D03*
D28*
X147425000Y-98095000D03*
X147425000Y-99365000D03*
X147425000Y-100635000D03*
X147425000Y-101905000D03*
X152575000Y-101905000D03*
X152575000Y-100635000D03*
X152575000Y-99365000D03*
X152575000Y-98095000D03*
D20*
X144450000Y-106450000D03*
X144450000Y-105550000D03*
X143550000Y-105550000D03*
X143550000Y-106450000D03*
D29*
X157827329Y-101951210D03*
X157315122Y-102351390D03*
X156802915Y-102751570D03*
X157972671Y-104248790D03*
X158997085Y-103448430D03*
D16*
X156215000Y-99250000D03*
X154565000Y-99250000D03*
D19*
X150000000Y-90500000D03*
D20*
X156450000Y-105550000D03*
X155550000Y-105550000D03*
X155550000Y-106450000D03*
X156450000Y-106450000D03*
D30*
X159810708Y-104822862D03*
X158589292Y-105777138D03*
M02*
