M48
; DRILL file {KiCad 6.0.2+dfsg-1} date Thu 26 Jan 2023 10:51:59 PM PST
; FORMAT={-:-/ absolute / metric / decimal}
; #@! TF.CreationDate,2023-01-26T22:51:59-08:00
; #@! TF.GenerationSoftware,Kicad,Pcbnew,6.0.2+dfsg-1
; #@! TF.FileFunction,Plated,1,2,PTH
FMAT,2
METRIC
; #@! TA.AperFunction,Plated,PTH,ViaDrill
T1C0.400
; #@! TA.AperFunction,Plated,PTH,ComponentDrill
T2C1.200
%
G90
G05
T1
X140.7Y-92.3
X141.1Y-85.9
X141.5Y-99.7
X142.8Y-90.8
X142.893Y-105.76
X143.0Y-94.6
X143.744Y-107.213
X144.2Y-99.5
X144.931Y-103.356
X145.2Y-91.2
X145.6Y-94.9
X145.6Y-108.2
X146.1Y-102.175
X147.2Y-87.5
X148.462Y-102.736
X148.597Y-87.384
X148.722Y-101.271
X150.7Y-96.9
X152.212Y-87.988
X152.605Y-102.804
X153.0Y-94.2
X153.2Y-96.8
X153.4Y-92.024
X153.6Y-90.0
X153.6Y-98.2
X153.7Y-100.9
X154.95Y-94.85
X155.1Y-107.1
X156.1Y-95.25
X156.323Y-101.953
X156.6Y-91.7
X156.8Y-92.8
X157.2Y-105.8
X157.4Y-101.2
X157.546Y-103.335
X157.6Y-106.8
X158.408Y-95.518
X158.912Y-98.088
X158.988Y-94.212
X159.9Y-93.0
X161.6Y-95.8
T2
X136.074Y-93.255
X138.075Y-91.691
X140.077Y-90.128
X142.078Y-88.564
X144.08Y-87.0
T0
M30
