G04 #@! TF.GenerationSoftware,KiCad,Pcbnew,6.0.2+dfsg-1*
G04 #@! TF.CreationDate,2023-01-26T22:51:51-08:00*
G04 #@! TF.ProjectId,rp2040_encoder,72703230-3430-45f6-956e-636f6465722e,rev?*
G04 #@! TF.SameCoordinates,Original*
G04 #@! TF.FileFunction,Soldermask,Top*
G04 #@! TF.FilePolarity,Negative*
%FSLAX46Y46*%
G04 Gerber Fmt 4.6, Leading zero omitted, Abs format (unit mm)*
G04 Created by KiCad (PCBNEW 6.0.2+dfsg-1) date 2023-01-26 22:51:51*
%MOMM*%
%LPD*%
G01*
G04 APERTURE LIST*
G04 Aperture macros list*
%AMRoundRect*
0 Rectangle with rounded corners*
0 $1 Rounding radius*
0 $2 $3 $4 $5 $6 $7 $8 $9 X,Y pos of 4 corners*
0 Add a 4 corners polygon primitive as box body*
4,1,4,$2,$3,$4,$5,$6,$7,$8,$9,$2,$3,0*
0 Add four circle primitives for the rounded corners*
1,1,$1+$1,$2,$3*
1,1,$1+$1,$4,$5*
1,1,$1+$1,$6,$7*
1,1,$1+$1,$8,$9*
0 Add four rect primitives between the rounded corners*
20,1,$1+$1,$2,$3,$4,$5,0*
20,1,$1+$1,$4,$5,$6,$7,0*
20,1,$1+$1,$6,$7,$8,$9,0*
20,1,$1+$1,$8,$9,$2,$3,0*%
%AMHorizOval*
0 Thick line with rounded ends*
0 $1 width*
0 $2 $3 position (X,Y) of the first rounded end (center of the circle)*
0 $4 $5 position (X,Y) of the second rounded end (center of the circle)*
0 Add line between two ends*
20,1,$1,$2,$3,$4,$5,0*
0 Add two circle primitives to create the rounded ends*
1,1,$1,$2,$3*
1,1,$1,$4,$5*%
%AMRotRect*
0 Rectangle, with rotation*
0 The origin of the aperture is its center*
0 $1 length*
0 $2 width*
0 $3 Rotation angle, in degrees counterclockwise*
0 Add horizontal line*
21,1,$1,$2,0,0,$3*%
G04 Aperture macros list end*
%ADD10RoundRect,0.225000X0.250000X-0.225000X0.250000X0.225000X-0.250000X0.225000X-0.250000X-0.225000X0*%
%ADD11RoundRect,0.200000X0.200000X0.275000X-0.200000X0.275000X-0.200000X-0.275000X0.200000X-0.275000X0*%
%ADD12R,0.400000X0.650000*%
%ADD13RoundRect,0.225000X-0.225000X-0.250000X0.225000X-0.250000X0.225000X0.250000X-0.225000X0.250000X0*%
%ADD14C,3.100000*%
%ADD15R,0.500000X0.500000*%
%ADD16RotRect,1.100000X1.100000X310.000000*%
%ADD17RotRect,0.650000X0.400000X230.000000*%
%ADD18RotRect,1.740000X2.200000X218.000000*%
%ADD19HorizOval,1.740000X-0.141602X0.181242X0.141602X-0.181242X0*%
%ADD20RoundRect,0.225000X-0.250000X0.225000X-0.250000X-0.225000X0.250000X-0.225000X0.250000X0.225000X0*%
%ADD21RoundRect,0.225000X0.017678X-0.335876X0.335876X-0.017678X-0.017678X0.335876X-0.335876X0.017678X0*%
%ADD22R,0.650000X0.400000*%
%ADD23RoundRect,0.150000X-0.725000X-0.150000X0.725000X-0.150000X0.725000X0.150000X-0.725000X0.150000X0*%
%ADD24RotRect,0.650000X0.400000X308.000000*%
%ADD25RoundRect,0.225000X0.023387X0.335527X-0.331218X0.058479X-0.023387X-0.335527X0.331218X-0.058479X0*%
G04 APERTURE END LIST*
D10*
X143250000Y-100025000D03*
X143250000Y-98475000D03*
D11*
X156225000Y-100850000D03*
X154575000Y-100850000D03*
D12*
X143420000Y-101570000D03*
X142770000Y-101570000D03*
X142120000Y-101570000D03*
X142120000Y-103470000D03*
X143420000Y-103470000D03*
D13*
X156150000Y-97725000D03*
X157700000Y-97725000D03*
D14*
X162500000Y-100000000D03*
D15*
X144450000Y-94450000D03*
X144450000Y-93550000D03*
X143550000Y-93550000D03*
X143550000Y-94450000D03*
D11*
X148825000Y-86310000D03*
X147175000Y-86310000D03*
D14*
X137500000Y-100000000D03*
X150000000Y-109500000D03*
D16*
X132500097Y-94077538D03*
X134299903Y-96222462D03*
D15*
X156450000Y-94450000D03*
X155550000Y-94450000D03*
X155550000Y-93550000D03*
X156450000Y-93550000D03*
D17*
X161528577Y-94520070D03*
X161030648Y-94102258D03*
X160532719Y-93684446D03*
X159311423Y-95139930D03*
X160307281Y-95975554D03*
D10*
X146500000Y-105385000D03*
X146500000Y-103835000D03*
D18*
X144080000Y-87000000D03*
D19*
X142078453Y-88563780D03*
X140076905Y-90127560D03*
X138075358Y-91691340D03*
X136073811Y-93255121D03*
D20*
X145250000Y-98475000D03*
X145250000Y-100025000D03*
D21*
X158051992Y-93298008D03*
X159148008Y-92201992D03*
D22*
X154200000Y-90750000D03*
X154200000Y-91400000D03*
X154200000Y-92050000D03*
X156100000Y-92050000D03*
X156100000Y-90750000D03*
D23*
X147425000Y-98095000D03*
X147425000Y-99365000D03*
X147425000Y-100635000D03*
X147425000Y-101905000D03*
X152575000Y-101905000D03*
X152575000Y-100635000D03*
X152575000Y-99365000D03*
X152575000Y-98095000D03*
D15*
X144450000Y-106450000D03*
X144450000Y-105550000D03*
X143550000Y-105550000D03*
X143550000Y-106450000D03*
D24*
X157827329Y-101951210D03*
X157315122Y-102351390D03*
X156802915Y-102751570D03*
X157972671Y-104248790D03*
X158997085Y-103448430D03*
D11*
X156215000Y-99250000D03*
X154565000Y-99250000D03*
D14*
X150000000Y-90500000D03*
D15*
X156450000Y-105550000D03*
X155550000Y-105550000D03*
X155550000Y-106450000D03*
X156450000Y-106450000D03*
D25*
X159810708Y-104822862D03*
X158589292Y-105777138D03*
M02*
